<svg width="20" height="24" viewBox="0 0 20 24" fill="none" xmlns="http://www.w3.org/2000/svg">
<g id="logo_kinesis 1" clip-path="url(#clip0_2428_637461)">
<g id="Group">
<path id="Vector" d="M0.0341797 13.3994L9.98168 17.9784L19.9287 13.3994L9.98143 12.9872L0.0341797 13.3994Z" fill="#FCBF92"/>
<path id="Vector_2" d="M10.0123 0.000183105L0.0390625 4.97418V11.9924H11.9981V0.992683L10.0123 0.000183105Z" fill="#9D5025"/>
<path id="Vector_3" d="M0.0390625 16.9402L10.0183 24.0002L19.9671 16.9402L9.99631 15.4892L0.0390625 16.9402Z" fill="#FCBF92"/>
<g id="Group_2">
<path id="Vector_4" d="M10.0117 11.9924H15.2735V4.50345L13.737 3.88895L10.012 4.97545L10.0117 11.9924Z" fill="#9D5025"/>
<path id="Vector_5" d="M13.7373 11.9925H17.8043V7.13495L16.6411 6.78595L13.7373 7.27895V11.9925Z" fill="#9D5025"/>
<path id="Vector_6" d="M16.6406 6.4052V11.9924H19.9281L19.9669 6.38045L18.9681 5.98145L16.6406 6.4052Z" fill="#9D5025"/>
</g>
<path id="Vector_7" d="M10.0117 0.000183105V11.9924H11.9974V0.992683L10.0117 0.000183105ZM15.2734 4.50343L13.7369 3.88893V11.9924H15.2734V4.50343ZM17.8039 7.13493L16.6407 6.78593V11.9927H17.8039V7.13493ZM18.9682 11.9924H19.9667V6.38018L18.9682 5.98118V11.9924ZM9.98145 14.3942V17.9784L19.9284 15.4989V13.3994L9.98145 14.3942ZM9.98145 20.4612V24.0002L19.9664 19.0077V16.9402L9.98145 20.4612Z" fill="#F68534"/>
<path id="Vector_8" d="M0.0386797 19.0292L9.98168 24.0002V20.4352L0.0391797 16.9399L0.0386797 19.0292ZM0.0341797 15.4989L9.98168 17.9784V14.3942L0.0341797 13.3992V15.4989Z" fill="#9D5025"/>
</g>
</g>
<defs>
<clipPath id="clip0_2428_637461">
<rect width="19.9968" height="24" fill="white" transform="translate(0.00195312 0.000183105)"/>
</clipPath>
</defs>
</svg>
