<svg xmlns="http://www.w3.org/2000/svg" width="55" height="52" viewBox="0 0 55 52">
  <path fill="#FFF" d="M134.108759,136.18444 C135.64182,136.712988 137.287393,137 139,137 C141.48677,137 143.832202,136.39486 145.897072,135.323804 C143.14904,132.826099 141.176852,129.489873 140.384711,125.71933 C136.990682,128.104749 134.630325,131.861492 134.108759,136.18444 Z M131.273055,134.85931 C132.209949,129.534864 135.487089,125.016925 140.004477,122.40549 C140.001498,122.270687 140,122.135518 140,122 C140,116.718842 142.274372,111.968893 145.897072,108.676196 C143.832202,107.60514 141.48677,107 139,107 C130.715729,107 124,113.715729 124,122 C124,127.457913 126.914994,132.234992 131.273055,134.85931 Z M153.891241,123.81556 C152.35818,123.287012 150.712607,123 149,123 C146.927397,123 144.952973,123.420356 143.157332,124.180463 C143.708633,127.966154 145.673898,131.293298 148.5,133.608766 C151.416559,131.219185 153.416292,127.75213 153.891241,123.81556 Z M153.943352,120.687288 C153.5841,116.543595 151.540131,112.882059 148.5,110.391234 C145.380459,112.947122 143.3098,116.735679 143.031956,121.012973 C144.899592,120.356841 146.908124,120 149,120 C150.714317,120 152.372659,120.239654 153.943352,120.687288 Z M131.000454,138.129186 C125.073334,135.183868 121,129.067623 121,122 C121,112.058875 129.058875,104 139,104 C142.487134,104 145.742665,104.991609 148.5,106.708234 C151.257335,104.991609 154.512866,104 158,104 C167.941125,104 176,112.058875 176,122 C176,128.664389 172.378204,134.482863 166.995523,137.59451 C166.998502,137.729313 167,137.864482 167,138 C167,147.941125 158.941125,156 149,156 C139.101972,156 131.06991,148.010849 131.000454,138.129186 Z M134.056648,139.312712 C134.721586,146.982242 141.158032,153 149,153 C156.952639,153 163.459804,146.811192 163.968044,138.987027 C162.100408,139.643159 160.091876,140 158,140 C154.512866,140 151.257335,139.008391 148.5,137.291766 C145.742665,139.008391 142.487134,140 139,140 C137.285683,140 135.627341,139.760346 134.056648,139.312712 Z M156.999546,121.870814 C161.85734,124.28476 165.469901,128.828693 166.615289,134.28067 C170.476586,131.566842 173,127.078109 173,122 C173,113.715729 166.284271,107 158,107 C155.51323,107 153.167798,107.60514 151.102928,108.676196 C154.696064,111.942022 156.96279,116.641414 156.999546,121.870814 Z M156.726945,125.14069 C156.021757,129.148335 153.990728,132.699063 151.102928,135.323804 C153.167798,136.39486 155.51323,137 158,137 C160.072603,137 162.047027,136.579644 163.842668,135.819537 C163.182362,131.285323 160.493662,127.408915 156.726945,125.14069 Z" transform="translate(-121 -104)"/>
</svg>