<svg xmlns="http://www.w3.org/2000/svg" width="55" height="52" viewBox="0 0 55 52">
  <path fill="#45BDB0" d="M134.108759,196.18444 C135.64182,196.712988 137.287393,197 139,197 C141.48677,197 143.832202,196.39486 145.897072,195.323804 C143.14904,192.826099 141.176852,189.489873 140.384711,185.71933 C136.990682,188.104749 134.630325,191.861492 134.108759,196.18444 Z M131.273055,194.85931 C132.209949,189.534864 135.487089,185.016925 140.004477,182.40549 C140.001498,182.270687 140,182.135518 140,182 C140,176.718842 142.274372,171.968893 145.897072,168.676196 C143.832202,167.60514 141.48677,167 139,167 C130.715729,167 124,173.715729 124,182 C124,187.457913 126.914994,192.234992 131.273055,194.85931 Z M153.891241,183.81556 C152.35818,183.287012 150.712607,183 149,183 C146.927397,183 144.952973,183.420356 143.157332,184.180463 C143.708633,187.966154 145.673898,191.293298 148.5,193.608766 C151.416559,191.219185 153.416292,187.75213 153.891241,183.81556 Z M153.943352,180.687288 C153.5841,176.543595 151.540131,172.882059 148.5,170.391234 C145.380459,172.947122 143.3098,176.735679 143.031956,181.012973 C144.899592,180.356841 146.908124,180 149,180 C150.714317,180 152.372659,180.239654 153.943352,180.687288 Z M131.000454,198.129186 C125.073334,195.183868 121,189.067623 121,182 C121,172.058875 129.058875,164 139,164 C142.487134,164 145.742665,164.991609 148.5,166.708234 C151.257335,164.991609 154.512866,164 158,164 C167.941125,164 176,172.058875 176,182 C176,188.664389 172.378204,194.482863 166.995523,197.59451 C166.998502,197.729313 167,197.864482 167,198 C167,207.941125 158.941125,216 149,216 C139.101972,216 131.06991,208.010849 131.000454,198.129186 Z M134.056648,199.312712 C134.721586,206.982242 141.158032,213 149,213 C156.952639,213 163.459804,206.811192 163.968044,198.987027 C162.100408,199.643159 160.091876,200 158,200 C154.512866,200 151.257335,199.008391 148.5,197.291766 C145.742665,199.008391 142.487134,200 139,200 C137.285683,200 135.627341,199.760346 134.056648,199.312712 Z M156.999546,181.870814 C161.85734,184.28476 165.469901,188.828693 166.615289,194.28067 C170.476586,191.566842 173,187.078109 173,182 C173,173.715729 166.284271,167 158,167 C155.51323,167 153.167798,167.60514 151.102928,168.676196 C154.696064,171.942022 156.96279,176.641414 156.999546,181.870814 Z M156.726945,185.14069 C156.021757,189.148335 153.990728,192.699063 151.102928,195.323804 C153.167798,196.39486 155.51323,197 158,197 C160.072603,197 162.047027,196.579644 163.842668,195.819537 C163.182362,191.285323 160.493662,187.408915 156.726945,185.14069 Z" transform="translate(-121 -164)"/>
</svg>