<svg xmlns="http://www.w3.org/2000/svg" width="24" height="24" fill="none"><path fill="#252F3E" d="M6.764 10.409c0 .292.032.528.088.702.064.173.144.363.255.568a.34.34 0 0 1 .056.181q.002.12-.151.237l-.503.331a.4.4 0 0 1-.208.071c-.08 0-.16-.04-.24-.11a2.4 2.4 0 0 1-.287-.371 6 6 0 0 1-.247-.465Q4.593 12.64 3.18 12.64c-.67 0-1.205-.19-1.596-.568q-.588-.567-.59-1.514c0-.67.239-1.215.726-1.625s1.133-.616 1.955-.616c.272 0 .551.024.846.064.296.039.599.102.918.173V7.98c0-.6-.128-1.017-.375-1.262q-.38-.364-1.3-.363-.42-.002-.863.103a6.4 6.4 0 0 0-.862.268 2 2 0 0 1-.28.103.5.5 0 0 1-.127.023q-.168.002-.168-.244V6.22c0-.126.016-.22.056-.276a.6.6 0 0 1 .224-.166 4.6 4.6 0 0 1 1.005-.354c.392-.103.807-.15 1.246-.15q1.423 0 2.09.639.662.639.663 1.94v2.556zm-3.24 1.199c.263 0 .534-.048.822-.142a1.8 1.8 0 0 0 .758-.505c.128-.15.223-.316.271-.505a2.8 2.8 0 0 0 .08-.686v-.331a7 7 0 0 0-.734-.135 6 6 0 0 0-.75-.047c-.535 0-.926.103-1.19.316s-.39.512-.39.907c0 .37.095.647.295.836q.286.294.838.292m6.409.852c-.144 0-.24-.024-.304-.08-.063-.046-.12-.157-.167-.307L7.586 5.976a1.4 1.4 0 0 1-.072-.316c0-.126.064-.197.192-.197h.782q.228-.002.311.079c.064.047.112.158.16.307l1.34 5.222 1.246-5.222c.04-.157.088-.26.152-.307a.55.55 0 0 1 .319-.079h.639q.225-.002.319.079c.064.047.12.158.151.307l1.261 5.285 1.381-5.285q.074-.236.16-.307a.53.53 0 0 1 .311-.079h.742c.128 0 .2.063.2.197 0 .04-.008.079-.016.126-.008.048-.024.11-.056.198l-1.923 6.097q-.072.236-.168.308a.5.5 0 0 1-.303.079h-.687q-.225.002-.319-.08c-.064-.054-.12-.157-.152-.315L12.32 6.985l-1.229 5.08c-.04.158-.088.26-.152.316-.063.055-.175.079-.319.079zm10.256.213c-.415 0-.83-.048-1.23-.142-.398-.095-.71-.197-.917-.316-.128-.07-.216-.15-.247-.22a.55.55 0 0 1-.048-.222v-.402c0-.165.064-.244.183-.244q.072 0 .144.023c.048.016.12.048.2.08.27.117.566.212.877.275.32.063.631.095.95.095q.756 0 1.166-.26a.85.85 0 0 0 .415-.75.76.76 0 0 0-.216-.552q-.218-.223-.806-.41l-1.157-.355c-.583-.182-1.014-.45-1.277-.805a1.87 1.87 0 0 1-.4-1.143q0-.498.216-.876c.144-.252.335-.473.575-.647.24-.181.51-.315.83-.41s.654-.134 1.005-.134c.176 0 .36.008.535.031.184.024.351.056.519.087q.24.058.455.126.215.072.335.142a.7.7 0 0 1 .24.198q.07.095.071.26v.37c0 .166-.063.253-.183.253a.8.8 0 0 1-.303-.095 3.7 3.7 0 0 0-1.533-.307c-.455 0-.814.07-1.062.22-.247.15-.375.38-.375.703 0 .22.08.41.24.56s.455.3.878.434l1.133.355q.864.271 1.237.757c.248.323.367.694.367 1.104q-.002.512-.207.915a2.1 2.1 0 0 1-.583.694c-.247.197-.542.34-.886.442-.359.11-.734.166-1.141.166"/><path fill="#F90" fill-rule="evenodd" d="M21.698 16.507c-2.626 1.916-6.442 2.934-9.722 2.934-4.597 0-8.74-1.68-11.868-4.472-.248-.221-.024-.521.27-.348 3.385 1.94 7.56 3.116 11.877 3.116 2.914 0 6.114-.6 9.06-1.83.438-.197.813.284.383.6" clip-rule="evenodd"/><path fill="#F90" fill-rule="evenodd" d="M22.791 15.276c-.335-.426-2.219-.205-3.073-.102-.255.031-.295-.19-.064-.355 1.5-1.042 3.967-.742 4.254-.395.288.355-.08 2.793-1.484 3.96-.216.181-.423.087-.327-.15.319-.78 1.03-2.54.694-2.958" clip-rule="evenodd"/></svg>