<svg xmlns="http://www.w3.org/2000/svg" width="24" height="24" fill="none"><path fill="#8C3123" d="m12.178 17.785 8.327 2.015V4.164L12.178 6.18z"/><path fill="#E05243" d="m20.505 4.164 1.601.8v14.04l-1.6.8zM15.81 6.952l-3.632-.899V0l3.632 1.816zM12.178 24l3.632-1.815v-5.136l-3.632.898zM15.81 14.571l-3.632.463V8.98l3.632.456zM12.178 17.785 3.85 19.8V4.164l8.328 2.016z"/><path fill="#8C3123" d="m3.85 4.164-1.6.8v14.04l1.6.8zM8.546 6.952l3.632-.899V0L8.546 1.816zM12.178 24l-3.632-1.815v-5.136l3.632.898zM8.546 14.571l3.632.463V8.98l-3.632.456z"/><path fill="#5E1F18" d="m15.81 6.952-3.632.662-3.632-.662 3.632-.899z"/><path fill="#F2B0A9" d="m15.81 17.049-3.632-.667-3.632.667 3.632.904z"/></svg>