<svg xmlns="http://www.w3.org/2000/svg" width="24" height="24" fill="none"><g clip-path="url(#a)"><path fill="url(#b)" d="M24 0H0v24h24z"/><path fill="#fff" fill-rule="evenodd" d="M8.1 15.9h7.5V8.4H8.1zm8.1-7.5h1.2V9h-1.2v1.2h1.2v.6h-1.2v.9h1.2v.6h-1.2v1.2h1.2v.6h-1.2v1.2h1.2v.6h-1.2v.04a.56.56 0 0 1-.56.56h-.04v1.2H15v-1.2h-1.2v1.2h-.6v-1.2h-.9v1.2h-.6v-1.2h-1.2v1.2h-.6v-1.2H8.7v1.2h-.6v-1.2h-.04a.56.56 0 0 1-.56-.56v-.04h-.9v-.6h.9v-1.2h-.9v-.6h.9v-1.2h-.9v-.6h.9v-.9h-.9v-.6h.9V9h-.9v-.6h.9v-.04c0-.31.25-.56.56-.56h.04V6.6h.6v1.2h1.2V6.6h.6v1.2h1.2V6.6h.6v1.2h.9V6.6h.6v1.2H15V6.6h.6v1.2h.04c.31 0 .56.25.56.56zm-3.9 11.363c0 .02-.017.037-.037.037H4.237a.037.037 0 0 1-.037-.037v-8.026c0-.02.017-.037.037-.037H6v-.6H4.237a.64.64 0 0 0-.637.637v8.026c0 .351.286.637.637.637h8.026a.64.64 0 0 0 .637-.637V18.3h-.6zm8.1-15.526v8.026a.64.64 0 0 1-.637.637H18v-.6h1.763c.02 0 .037-.017.037-.037V4.237a.037.037 0 0 0-.037-.037h-8.026a.037.037 0 0 0-.037.037V6h-.6V4.237c0-.351.286-.637.637-.637h8.026c.351 0 .637.286.637.637" clip-rule="evenodd"/></g><defs><linearGradient id="b" x1="0" x2="2400" y1="2400" y2="0" gradientUnits="userSpaceOnUse"><stop stop-color="#C8511B"/><stop offset="1" stop-color="#F90"/></linearGradient><clipPath id="a"><rect width="24" height="24" fill="#fff" rx="4"/></clipPath></defs></svg>