<svg width="16" height="16" viewBox="0 0 16 16" fill="none" xmlns="http://www.w3.org/2000/svg">
<path d="M7.5393 11.7311V4.26895L6.29822 5.63447C6.11561 5.82722 5.81956 5.82722 5.63695 5.63447C5.45435 5.44173 5.45435 5.12923 5.63695 4.93649L7.0081 3.43367C7.55591 2.85544 8.44409 2.85544 8.9919 3.43367L10.363 4.93649C10.5457 5.12923 10.5457 5.44173 10.363 5.63447C10.1804 5.82722 9.88439 5.82722 9.70178 5.63447L8.47447 4.28348V11.7165L9.70178 10.3655C9.88439 10.1728 10.1804 10.1728 10.363 10.3655C10.5457 10.5583 10.5457 10.8708 10.363 11.0635L8.9919 12.5663C8.44409 13.1446 7.55591 13.1446 7.0081 12.5663L5.63695 11.0635C5.45435 10.8708 5.45435 10.5583 5.63695 10.3655C5.81956 10.1728 6.11561 10.1728 6.29822 10.3655L7.5393 11.7311Z" fill="#1D2A3E"/>
<path d="M12.7311 8.4607H3.26895L4.63447 9.70178C4.82722 9.88439 4.82722 10.1804 4.63447 10.363C4.44173 10.5457 4.12923 10.5457 3.93649 10.363L2.43367 8.9919C1.85544 8.44409 1.85544 7.55591 2.43367 7.0081L3.93649 5.63695C4.12923 5.45435 4.44173 5.45435 4.63447 5.63695C4.82722 5.81956 4.82722 6.11561 4.63447 6.29822L3.28348 7.52553H12.7165L11.3655 6.29822C11.1728 6.11561 11.1728 5.81956 11.3655 5.63695C11.5583 5.45435 11.8708 5.45435 12.0635 5.63695L13.5663 7.0081C14.1446 7.55591 14.1446 8.44409 13.5663 8.9919L12.0635 10.363C11.8708 10.5457 11.5583 10.5457 11.3655 10.363C11.1728 10.1804 11.1728 9.88439 11.3655 9.70178L12.7311 8.4607Z" fill="#1D2A3E"/>
<path d="M14 1C15.1046 1 16 1.89543 16 3V13L15.9893 13.2041C15.887 14.2128 15.0357 15 14 15H2L1.7959 14.9893C0.854346 14.8938 0.1062 14.1457 0.0107422 13.2041L0 13V3C0 1.96435 0.787223 1.113 1.7959 1.01074L2 1H14ZM2 2C1.44772 2 1 2.44772 1 3V13C1 13.5523 1.44772 14 2 14H14C14.5523 14 15 13.5523 15 13V3C15 2.44772 14.5523 2 14 2H2Z" fill="#1D2A3E"/>
</svg>
