<svg xmlns="http://www.w3.org/2000/svg" width="24" height="24" fill="none"><path fill="#000" d="m13.204.167-.494 6.08a6 6 0 0 0-.707-.04q-.45-.001-.88.066l-.28-2.946a.16.16 0 0 1 .16-.174h.5l-.24-2.98C11.256.08 11.329 0 11.416 0h1.635c.093 0 .166.08.153.173zm-4.123.3C9.055.38 8.961.327 8.875.36L7.34.92a.156.156 0 0 0-.087.213l1.248 2.72-.474.174c-.086.033-.126.133-.086.213l1.274 2.673c.46-.253.96-.446 1.488-.566L9.088.467zM5.32 2.16l3.529 4.973c-.447.294-.854.64-1.201 1.04l-2.115-2.08a.16.16 0 0 1 .007-.233l.387-.32-2.102-2.127a.156.156 0 0 1 .014-.233l1.247-1.047a.154.154 0 0 1 .227.027zM2.357 5.04c-.074-.053-.18-.027-.227.053l-.814 1.414a.157.157 0 0 0 .067.22l2.708 1.28-.253.433a.153.153 0 0 0 .073.22l2.695 1.233c.194-.5.454-.966.774-1.386zM.362 8.88c.013-.093.107-.147.194-.127l5.904 1.54q-.232.752-.254 1.574l-2.955-.24a.154.154 0 0 1-.14-.187l.086-.493-2.982-.28c-.093-.007-.153-.094-.14-.187l.28-1.607zm-.22 3.987c-.093.006-.153.093-.14.186l.287 1.607c.013.093.106.147.193.127l2.895-.754.087.494c.014.093.107.146.194.126l2.855-.786a5.8 5.8 0 0 1-.3-1.56l-6.078.56zm.947 4.226a.157.157 0 0 1 .067-.22l5.51-2.613c.207.493.487.953.82 1.367l-2.414 1.72a.157.157 0 0 1-.227-.047l-.253-.44-2.462 1.7c-.073.053-.18.027-.227-.053l-.82-1.414zm6.678-1.146-4.29 4.34a.156.156 0 0 0 .014.233l1.254 1.047c.073.06.174.046.227-.027l1.734-2.44.387.327c.074.06.18.046.234-.034l1.681-2.44a6 6 0 0 1-1.234-1.006zm-.847 6.966a.156.156 0 0 1-.087-.213l2.542-5.547c.467.24.974.42 1.5.52l-.746 2.867a.157.157 0 0 1-.207.107l-.474-.174-.794 2.887c-.026.087-.12.14-.206.107l-1.535-.56zm4.376-5.166-.493 6.08c-.007.093.066.173.153.173h1.634c.094 0 .167-.08.154-.173l-.24-2.98h.5c.093 0 .167-.08.16-.174l-.28-2.946q-.43.068-.88.066-.358.002-.708-.046m5.884-16.46c.04-.087 0-.18-.087-.214L15.56.513c-.087-.033-.18.02-.207.107l-.794 2.887-.473-.174c-.087-.033-.18.02-.207.107l-.747 2.867a6 6 0 0 1 1.5.52zm3.35 2.42-4.29 4.34a5.8 5.8 0 0 0-1.235-1.007l1.681-2.44a.163.163 0 0 1 .234-.033l.387.326 1.735-2.44a.155.155 0 0 1 .226-.026l1.255 1.046c.073.06.073.167.013.234zm2.32 3.413a.153.153 0 0 0 .067-.22l-.82-1.413a.164.164 0 0 0-.227-.054l-2.462 1.7-.253-.433c-.047-.08-.154-.107-.227-.047l-2.415 1.72c.334.414.607.874.82 1.367l5.511-2.613zm.868 2.213.28 1.607a.16.16 0 0 1-.14.187l-6.077.566a5.7 5.7 0 0 0-.3-1.56l2.855-.786a.153.153 0 0 1 .193.126l.087.494 2.895-.754c.087-.02.18.034.194.127zm-.274 5.9c.087.02.18-.033.194-.126l.28-1.607a.16.16 0 0 0-.14-.187l-2.982-.28.087-.493a.16.16 0 0 0-.14-.187l-2.956-.24a5.8 5.8 0 0 1-.253 1.574l5.904 1.54zM21.87 18.9a.164.164 0 0 1-.227.053l-5.023-3.466c.32-.42.58-.887.774-1.387l2.695 1.233c.087.04.12.14.073.22l-.253.434 2.708 1.28c.08.04.114.14.067.22zm-6.718-2.047 3.53 4.974c.053.073.16.086.226.026l1.247-1.046a.16.16 0 0 0 .014-.234l-2.102-2.126.387-.32c.074-.06.074-.167.007-.234l-2.115-2.08c-.353.4-.754.754-1.2 1.04zm-.033 6.774c-.087.033-.18-.02-.207-.107l-1.615-5.88a5.7 5.7 0 0 0 1.488-.567l1.274 2.674c.04.086 0 .186-.086.213l-.474.173 1.248 2.72c.04.087 0 .18-.087.214l-1.534.56z"/></svg>