<svg xmlns="http://www.w3.org/2000/svg" width="8" height="8" viewBox="0 0 8 8" fill="white">
  <path d="M3.5 0l-.5 1.19c-.1.03-.19.08-.28.13l-1.19-.5-.72.72.5 1.19c-.05.1-.09.18-.13.28l-1.19.5v1l1.19.5c.04.1.08.18.13.28l-.5 1.19.72.72 1.19-.5c.09.04.18.09.28.13l.5 1.19h1l.5-1.19c.09-.04.19-.08.28-.13l1.19.5.72-.72-.5-1.19c.04-.09.09-.19.13-.28l1.19-.5v-1l-1.19-.5c-.03-.09-.08-.19-.13-.28l.5-1.19-.72-.72-1.19.5c-.09-.04-.19-.09-.28-.13l-.5-1.19h-1zm.5 2.5c.83 0 1.5.67 1.5 1.5s-.67 1.5-1.5 1.5-1.5-.67-1.5-1.5.67-1.5 1.5-1.5z"
  />
</svg>
