<svg xmlns="http://www.w3.org/2000/svg" width="147" height="51" viewBox="0 0 147 51">
  <g fill="#FFF" fill-rule="evenodd">
    <polygon points="0 0 0 46 40 0"/>
    <path d="M23.1487518,27 L3.71557862,49.0544767 L2,51 L39,51 C36.9701896,41.1410139 31.1632495,32.644207 23.1487518,27"/>
    <g transform="translate(55 13)">
      <path d="M4.3,23.99 L4.3,17.29 L6.4,17.09 L10.4,24.09 L14.5,24.09 L9.5,15.29 L14.3,7.59 L10.3,7.59 L6.4,13.99 L4.4,14.19 L4.4,0.59 L0.8,0.59 L0.8,23.99 L4.3,23.99 Z M17.3,23.99 L20.9,23.99 L20.9,7.49 L17.3,7.49 L17.3,23.99 Z M17.3,4.69 L20.9,4.69 L20.9,0.89 L17.3,0.89 L17.3,4.69 Z M33,7.19 C31.1,7.19 28.9,8.19 28.9,8.19 L28.9,0.69 L25.3,0.69 L25.3,24.09 C25.3,24.09 29.6,24.49 31.3,24.49 C37.2,24.49 39.4,22.49 39.4,15.59 C39.4,9.39 37.5,7.19 33,7.19 Z M31.3,21.19 C30.6,21.19 28.8,21.09 28.8,21.09 L28.8,11.09 C28.8,11.09 30.7,10.39 32.5,10.39 C34.7,10.39 35.7,11.89 35.7,15.59 C35.7,19.59 35,21.19 31.3,21.19 Z M55.2,12.59 C55.2,8.79 53.5,7.09 49.5,7.09 C46.5,7.09 42.9,7.99 42.9,7.99 L43,10.49 C43,10.49 47,10.19 49.2,10.19 C50.8,10.19 51.6,10.79 51.6,12.59 L51.6,13.79 L47.3,14.19 C43.8,14.49 41.8,15.69 41.8,19.19 C41.8,22.59 43.5,24.49 46.7,24.49 C49.4,24.49 52,23.29 52,23.29 C53.2,24.29 54.4,24.49 56.4,24.49 L56.5,21.79 C55.5,21.69 55.1,21.29 55,20.29 L55.2,12.59 Z M51.6,16.29 L51.6,20.69 C51.6,20.69 49.4,21.39 47.5,21.39 C46.1,21.39 45.5,20.49 45.5,18.99 C45.5,17.49 46.3,16.79 47.8,16.69 L51.6,16.29 Z M63.3,23.99 L63.3,11.19 C63.3,11.19 65.1,10.29 67,10.29 C69.5,10.29 69.9,11.89 69.9,15.19 L69.9,23.99 L73.5,23.99 L73.5,15.09 C73.5,9.69 72.4,7.09 67.8,7.09 C65.7,7.09 63.2,8.49 63.2,8.49 L63.2,7.49 L59.6,7.49 L59.6,23.99 L63.3,23.99 Z M89.9,12.59 C89.9,8.79 88.2,7.09 84.2,7.09 C81.2,7.09 77.6,7.99 77.6,7.99 L77.7,10.49 C77.7,10.49 81.7,10.19 83.9,10.19 C85.5,10.19 86.3,10.79 86.3,12.59 L86.3,13.79 L82,14.19 C78.5,14.49 76.5,15.69 76.5,19.19 C76.5,22.59 78.2,24.49 81.4,24.49 C84.1,24.49 86.7,23.29 86.7,23.29 C87.9,24.29 89.1,24.49 91.1,24.49 L91.2,21.79 C90.2,21.69 89.8,21.29 89.7,20.29 L89.9,12.59 Z M86.3,16.29 L86.3,20.69 C86.3,20.69 84.1,21.39 82.2,21.39 C80.8,21.39 80.2,20.49 80.2,18.99 C80.2,17.49 81,16.79 82.5,16.69 L86.3,16.29 Z"/>
    </g>
  </g>
</svg>
