<svg xmlns="http://www.w3.org/2000/svg" width="64" height="64"><defs><mask id="A" height="69" width="64.6" y="0" x=".1" maskUnits="userSpaceOnUse"><g filter="url(#E)"><path d="M64.8 0H.1v69h64.7z" fill="#fff"/></g></mask><filter height="12.7" width="11.5" y=".1" x="0" filterUnits="userSpaceOnUse" ><feColorMatrix values="1 0 0 0 0 0 1 0 0 0 0 0 1 0 0 0 0 0 1 0"/></filter><filter height="12.9" width="10.6" y=".2" x=".1" filterUnits="userSpaceOnUse" ><feColorMatrix values="1 0 0 0 0 0 1 0 0 0 0 0 1 0 0 0 0 0 1 0"/></filter><filter height="12.9" width="12.7" y=".2" x="0" filterUnits="userSpaceOnUse" ><feColorMatrix values="1 0 0 0 0 0 1 0 0 0 0 0 1 0 0 0 0 0 1 0"/></filter><filter height="69" width="64.6" y="0" x=".1" filterUnits="userSpaceOnUse" id="E"><feColorMatrix values="1 0 0 0 0 0 1 0 0 0 0 0 1 0 0 0 0 0 1 0"/></filter></defs><g fill="#5c2d90"><path d="M57.705 33.717l1.575 20.1L31.4 58.82 29 38.72l3.983-.556c.648.278 1.112.37 1.853.556 1.204.278 2.594.648 4.63-.463.463-.278 1.482-1.112 1.853-1.667zm-43.073 23.9c-.463-.74-1.297-1.575-2.594-2.594-1.853-1.482-1.204-4.076-.093-5.65 1.4-2.686 8.707-6.206 8.337-10.56-.185-1.575-.37-3.613-1.853-5.095-.093.556 0 1.112 0 1.112s-.648-.74-.926-1.853c-.278-.37-.556-.556-.834-1.112-.185.648-.185 1.297-.185 1.297s-.463-1.204-.556-2.13c-.278.463-.37 1.297-.37 1.297s-.648-1.853-.463-2.87c-.278-.834-1.204-2.594-.926-6.484 1.575 1.112 5.095.834 6.484-1.204.463-.648.74-2.5-.185-6.114-.648-2.316-2.223-5.743-2.87-7.04l-.093.093c.37 1.02 1.02 3.242 1.297 4.354.74 3.242 1.02 4.354.648 5.836-.278 1.297-1.02 2.13-2.964 3.057-1.853.926-4.446-1.4-4.54-1.482-1.853-1.482-3.242-3.9-3.427-5.002-.185-1.297.74-2.038 1.204-3.057-.648.185-1.4.556-1.4.556s.834-.926 1.945-1.667a9.43 9.43 0 0 0 1.204-.834H10.28s1.112-.648 2.316-1.02H10.93l4.446-1.945c1.4-.556 2.686-.37 3.427.648 1.02 1.4 2.038 2.13 4.168 2.686 1.297-.556 1.76-.926 3.427-1.4 1.482-1.667 2.686-1.853 2.686-1.853s-.834.74-.926 1.575c.834-.648 1.76-1.204 1.76-1.204s-.37.463-.648 1.112l.093.093c1.02-.556 2.13-1.02 2.13-1.02s-.37.37-.74.926c.74 0 2.223 0 2.78.093 3.427.093 4.168-3.613 5.465-4.168 1.667-.556 2.408-.926 5.187 1.853 2.408 2.408 4.26 6.577 3.335 7.503-.74.74-2.316-.278-4.076-2.408-.926-1.112-1.575-2.5-1.945-4.168-.185-1.4-1.204-2.223-1.204-2.223s.648 1.4.648 2.594c0 .648.093 3.057 1.112 4.446-.093.185-.185 1.02-.278 1.112-1.204-1.482-3.9-2.5-4.26-2.87 1.482 1.204 4.817 3.9 6.114 6.484 1.204 2.5.463 4.724 1.112 5.28.185.185 2.594 3.15 3.057 4.724.834 2.686.093 5.465-1.02 7.132l-2.964.463a3.92 3.92 0 0 1-1.112-.371c.185-.37.648-1.297.648-1.482l-.185-.278c-.926 1.297-2.5 2.594-3.798 3.335-1.667.926-3.613.834-4.9.37-3.613-1.112-7.04-3.52-7.78-4.168 0 0 0 .463.093.648a28.07 28.07 0 0 0 5.002 4.168l-4.26.463 2.038 15.747c-.926.093-1.02.185-2.038.37-.834-3.057-2.5-5.002-4.354-6.206-1.575-1.02-3.798-1.297-5.928-.834l-.093.185c1.482-.185 3.242.093 5.002 1.204s3.15 3.983 3.705 5.65c.648 2.223 1.112 4.54-.648 7.04-1.297 1.76-5.002 2.78-7.966.648.834 1.297 1.853 2.316 3.335 2.5 2.13.278 4.168-.093 5.65-1.482 1.204-1.204 1.853-3.798 1.667-6.577l1.945-.278.648 4.9L62.06 56.7l-2.78-25.195-1.575.278L54.556 0 1.942 6.114l6.484 52.428z" mask="url(#A)"/><path d="M39.665 30.06c1.4 1.02 2.594 1.667 3.798 1.575.74-.093 1.482-1.297 1.945-2.408.37-.74.37-1.575-.185-1.853-.278-.093-1.4-.093-2.223 0-1.575.185-3.15.74-3.52 1.02-.556.37-.278 1.297.185 1.667m.37-10.84v.093l.093.185c.37.74.74 1.482 1.482 1.853.185 0 .37-.093.556-.093.648 0 1.02.093 1.297.185v-.556c-.093-.926.185-2.594-1.667-3.52-.74-.37-1.667-.185-2.038.185h.185c.463.185.185.37.093.556-.093.37-.185.463 0 1.112"/><path d="M31.698 19.407c.463-.37-2.13-.926-4.168.37-1.482 1.02-1.482 3.15-.093 4.354a1.27 1.27 0 0 1 .37.278c.37-.185.926-.37 1.4-.556.926-.278 1.667-.463 2.316-.556.278-.37.648-.926.556-1.945-.093-1.4-1.204-1.112-.37-1.945m15.098 22.5l-4.446 7.4-5.187-1.575-4.54 6.947.185 2.223 24.825-4.54-1.482-15.47-4.076 8.522z"/></g></svg>