<svg width="32" height="32" viewBox="0 0 32 32" fill="none" xmlns="http://www.w3.org/2000/svg">
<path d="M32 0H0V32H32V0Z" fill="url(#paint0_linear_2692_9935)"/>
<path fill-rule="evenodd" clip-rule="evenodd" d="M17.668 16.498C17.668 16.5668 17.6488 18.0336 16.468 18.3084V13.9144L17.668 14.4344V16.498ZM14.468 16.4916V14.4344L15.668 13.9144V18.3096C14.518 18.0456 14.4692 16.6636 14.468 16.4916ZM18.2268 13.8048L16.2268 12.938C16.1256 12.894 16.0104 12.894 15.9092 12.938L13.9092 13.8048C13.7624 13.868 13.668 14.0124 13.668 14.172V16.4916C13.668 17.4136 14.1696 19.1568 16.068 19.1568C17.9664 19.1568 18.468 17.4176 18.468 16.498V14.172C18.468 14.0124 18.3736 13.868 18.2268 13.8048ZM23.596 21.6696C22.8852 21.6696 22.3072 21.0916 22.3072 20.3808C22.3072 19.67 22.8852 19.0916 23.596 19.0916C24.3072 19.0916 24.8852 19.67 24.8852 20.3808C24.8852 21.0916 24.3072 21.6696 23.596 21.6696ZM16.1068 19.9808C13.896 19.9808 12.0976 18.1824 12.0976 15.972C12.0976 13.7612 13.896 11.9628 16.1068 11.9628C18.3172 11.9628 20.1156 13.7612 20.1156 15.972C20.1156 18.1824 18.3172 19.9808 16.1068 19.9808ZM17.4032 24.7236C17.4032 25.4344 16.8252 26.0128 16.114 26.0128C15.4032 26.0128 14.8252 25.4344 14.8252 24.7236C14.8252 24.0132 15.4032 23.4349 16.114 23.4349C16.8252 23.4349 17.4032 24.0132 17.4032 24.7236ZM14.85 6.88885C14.85 6.17805 15.428 5.60005 16.1392 5.60005C16.8496 5.60005 17.4276 6.17805 17.4276 6.88885C17.4276 7.59965 16.8496 8.17805 16.1392 8.17805C15.428 8.17805 14.85 7.59965 14.85 6.88885ZM8.4892 21.1824C7.778 21.1824 7.2 20.6044 7.2 19.8936C7.2 19.1828 7.778 18.6048 8.4892 18.6048C9.1996 18.6048 9.7776 19.1828 9.7776 19.8936C9.7776 20.6044 9.1996 21.1824 8.4892 21.1824ZM8.928 12.748C8.2172 12.748 7.6392 12.17 7.6392 11.4592C7.6392 10.7484 8.2172 10.17 8.928 10.17C9.6388 10.17 10.2168 10.7484 10.2168 11.4592C10.2168 12.17 9.6388 12.748 8.928 12.748ZM23.6468 9.85325C24.358 9.85325 24.936 10.4312 24.936 11.142C24.936 11.8528 24.358 12.4312 23.6468 12.4312C22.9364 12.4312 22.3584 11.8528 22.3584 11.142C22.3584 10.4312 22.9364 9.85325 23.6468 9.85325ZM23.596 18.2916C23.018 18.2916 22.494 18.5284 22.1156 18.9092L20.5292 17.858C20.7772 17.2784 20.9156 16.6412 20.9156 15.972C20.9156 15.0964 20.6764 14.2776 20.2664 13.57L22.0816 12.5104C22.4648 12.9484 23.0208 13.2312 23.6468 13.2312C24.7988 13.2312 25.736 12.294 25.736 11.142C25.736 9.99005 24.7988 9.05325 23.6468 9.05325C22.4952 9.05325 21.5584 9.99005 21.5584 11.142C21.5584 11.38 21.6068 11.6052 21.6804 11.8184L19.8112 12.9092C19.0088 11.94 17.8328 11.2932 16.5068 11.1832V8.94085C17.4828 8.76605 18.2276 7.91485 18.2276 6.88885C18.2276 5.73725 17.2908 4.80005 16.1392 4.80005C14.9872 4.80005 14.05 5.73725 14.05 6.88885C14.05 7.89245 14.7616 8.73165 15.7068 8.93165V11.1832C14.2868 11.3008 13.0432 12.038 12.2416 13.1228L10.8664 12.2264C10.9608 11.9884 11.0168 11.7308 11.0168 11.4592C11.0168 10.3072 10.0796 9.37005 8.928 9.37005C7.7764 9.37005 6.8392 10.3072 6.8392 11.4592C6.8392 12.6112 7.7764 13.548 8.928 13.548C9.5208 13.548 10.0536 13.2976 10.434 12.8996L11.8204 13.8036C11.4888 14.456 11.2976 15.1912 11.2976 15.972C11.2976 16.5664 11.4112 17.1336 11.6096 17.66L10.0652 18.5384C9.682 18.0932 9.1212 17.8048 8.4892 17.8048C7.3372 17.8048 6.4 18.7416 6.4 19.8936C6.4 21.0457 7.3372 21.9825 8.4892 21.9825C9.6408 21.9825 10.5776 21.0457 10.5776 19.8936C10.5776 19.6616 10.5308 19.4424 10.4608 19.2336L11.9536 18.3844C12.7252 19.708 14.108 20.6304 15.714 20.7608V22.6752C14.7532 22.8624 14.0252 23.7088 14.0252 24.7236C14.0252 25.8756 14.962 26.8128 16.114 26.8128C17.266 26.8128 18.2032 25.8756 18.2032 24.7236C18.2032 23.7088 17.4752 22.8624 16.514 22.6752V20.76C18.04 20.6312 19.3624 19.7884 20.1496 18.566L21.67 19.5736C21.5652 19.822 21.5072 20.0948 21.5072 20.3808C21.5072 21.5324 22.444 22.4696 23.596 22.4696C24.748 22.4696 25.6852 21.5324 25.6852 20.3808C25.6852 19.2288 24.748 18.2916 23.596 18.2916Z" fill="white"/>
<defs>
<linearGradient id="paint0_linear_2692_9935" x1="0" y1="3200" x2="3200" y2="0" gradientUnits="userSpaceOnUse">
<stop stop-color="#BD0816"/>
<stop offset="1" stop-color="#FF5252"/>
</linearGradient>
</defs>
</svg>
