<svg width="32" height="32" viewBox="0 0 32 32" fill="none" xmlns="http://www.w3.org/2000/svg">
<path d="M32 0H0V32H32V0Z" fill="url(#paint0_linear_2692_9941)"/>
<path fill-rule="evenodd" clip-rule="evenodd" d="M14.2033 12.3423C13.6888 12.3423 13.2706 11.9236 13.2706 11.4094C13.2706 10.8948 13.6888 10.4761 14.2033 10.4761C14.7178 10.4761 15.1364 10.8948 15.1364 11.4094C15.1364 11.9236 14.7178 12.3423 14.2033 12.3423ZM13.5294 15.4205C14.4154 15.4205 15.1364 16.1416 15.1364 17.0278C15.1364 17.914 14.4154 18.6352 13.5294 18.6352C12.6434 18.6352 11.9224 17.914 11.9224 17.0278C11.9224 16.1416 12.6434 15.4205 13.5294 15.4205ZM13.5294 19.9837C10.4132 19.9837 7.87784 17.4478 7.87784 14.3309C7.87784 11.214 10.4132 8.67809 13.5294 8.67809C16.6456 8.67809 19.181 11.214 19.181 14.3309C19.181 15.134 19.01 15.8971 18.7064 16.5899L15.8079 16.1684C15.5906 15.5939 15.1632 15.1232 14.6187 14.8499V13.1183C15.3909 12.9305 15.9673 12.2381 15.9673 11.4094C15.9673 10.4365 15.176 9.6454 14.2033 9.6454C13.2306 9.6454 12.4397 10.4365 12.4397 11.4094C12.4397 12.2381 13.0161 12.9305 13.7879 13.1183V14.6038C13.7028 14.595 13.6165 14.5898 13.5294 14.5898C12.911 14.5898 12.3474 14.8231 11.9168 15.2039L10.9121 14.1891C11.1794 13.8047 11.3372 13.3384 11.3372 12.8358C11.3372 12.0235 10.9289 11.2763 10.245 10.8372L9.81363 11.5101C10.267 11.8014 10.5382 12.2968 10.5382 12.8358C10.5382 13.7056 9.8308 14.4132 8.96118 14.4132V15.2123C9.46929 15.2123 9.93946 15.0505 10.3265 14.7776L11.3931 15.8552C11.201 16.2036 11.0915 16.6031 11.0915 17.0278C11.0915 18.3723 12.1852 19.4659 13.5294 19.4659C14.8724 19.4659 15.9653 18.3739 15.9673 17.031L18.2878 17.3687C17.2827 18.9385 15.5271 19.9837 13.5294 19.9837ZM13.5294 7.84743C9.95503 7.84743 7.04697 10.7557 7.04697 14.3309C7.04697 17.906 9.95503 20.8148 13.5294 20.8148C17.1038 20.8148 20.0118 17.906 20.0118 14.3309C20.0118 10.7557 17.1038 7.84743 13.5294 7.84743ZM26.0381 25.5418C25.5587 26.072 24.7343 26.116 24.2022 25.6377L19.1075 21.0409C19.7746 20.4851 20.3566 19.8315 20.8339 19.1031L25.9422 23.7055C26.4731 24.1857 26.5159 25.0096 26.0381 25.5418ZM5.63088 14.3309C5.63088 9.97462 9.17409 6.43064 13.5294 6.43064C17.8847 6.43064 21.4279 9.97462 21.4279 14.3309C21.4279 18.6872 17.8847 22.2311 13.5294 22.2311C9.17409 22.2311 5.63088 18.6872 5.63088 14.3309ZM26.4983 23.0886L21.2633 18.3727C21.8981 17.1633 22.2588 15.7888 22.2588 14.3309C22.2588 9.51634 18.3425 5.59998 13.5294 5.59998C8.71631 5.59998 4.8 9.51634 4.8 14.3309C4.8 19.1454 8.71631 23.0622 13.5294 23.0622C15.3453 23.0622 17.0339 22.5036 18.4324 21.5503L23.6469 26.255C24.0528 26.6202 24.5625 26.8 25.0706 26.8C25.6538 26.8 26.2346 26.563 26.6553 26.0976C27.439 25.225 27.3687 23.8753 26.4983 23.0886Z" fill="white"/>
<defs>
<linearGradient id="paint0_linear_2692_9941" x1="0" y1="3200" x2="3200" y2="0" gradientUnits="userSpaceOnUse">
<stop stop-color="#BD0816"/>
<stop offset="1" stop-color="#FF5252"/>
</linearGradient>
</defs>
</svg>
