<svg width="28" height="32" viewBox="0 0 28 32" fill="none" xmlns="http://www.w3.org/2000/svg">
<path d="M13.1451 30.7759V32H14.7882V30.7759C14.2624 30.9977 13.6709 30.9977 13.1451 30.7759Z" fill="white"/>
<path d="M14.7882 13.9255H13.1451V15.5687H14.7882V13.9255Z" fill="white"/>
<path d="M6.21105 2.42362C4.26393 3.65597 0 4.06676 0 4.06676V13.104C0 13.104 0 13.3998 0.0410783 13.9256H13.1451V0C10.3846 0.18896 7.97741 1.30629 6.21105 2.42362Z" fill="#1E88E5"/>
<path d="M27.8922 13.9256C27.9333 13.3998 27.9333 13.104 27.9333 13.104V4.06676C27.9333 4.06676 23.6693 3.65597 21.7304 2.42362C19.9641 1.29808 17.5487 0.18896 14.7964 0V13.9256H27.9004H27.8922Z" fill="#1E88E5"/>
<path d="M0.279404 15.5686C1.00238 19.2081 3.60675 26.0847 13.0137 30.7265C13.0548 30.7512 13.1041 30.7594 13.1451 30.7758V15.5686H0.279404Z" fill="#1E88E5"/>
<path d="M14.9197 30.7265C24.3266 26.0847 26.931 19.2081 27.6539 15.5686H14.7882V30.7758C14.8293 30.7594 14.8786 30.7512 14.9197 30.7265Z" fill="#1E88E5"/>
</svg>
