<svg width="27" height="33" viewBox="0 0 27 33" fill="none" xmlns="http://www.w3.org/2000/svg">
<path d="M13.5066 0C4.71128 0 0.291697 4.68373 0.291697 4.68373C0.291697 4.68373 -0.212772 8.14466 0.105263 15.132C0.587797 25.6786 13.4956 32 13.4956 32.0109C13.4956 32.0218 26.4144 25.6677 26.8969 15.132C27.2259 8.14466 26.7214 4.68373 26.7214 4.68373C26.7214 4.68373 22.3019 0 13.5066 0Z" fill="#ED2E26"/>
<path d="M20.1085 13.8546C20.1085 10.1317 17.1475 7.09651 13.5066 7.09651C9.86562 7.09651 6.90461 10.0443 6.90461 13.669C6.90461 16.5622 9.40501 18.9423 11.3242 20.1651C10.5785 20.5909 8.93345 21.0385 7.35424 21.1804C5.01834 19.379 3.6475 16.6059 3.6475 13.669C3.62557 8.24288 8.03418 3.8321 13.4846 3.81026C18.9351 3.78843 23.3656 8.17737 23.3876 13.6035C23.3876 13.6253 23.3876 13.6472 23.3876 13.669C23.3876 16.9443 22.0167 19.8485 19.4286 22.0757C17.0049 24.161 13.4737 25.5476 9.43792 26.2026C8.56058 25.7222 7.06911 24.3029 6.50981 23.4732C9.87658 23.0474 13.0569 22.2285 15.1954 21.1149C18.4525 19.4118 20.1085 16.9662 20.1085 13.8546Z" fill="white"/>
</svg>
