<svg width="32" height="31" viewBox="0 0 32 31" fill="none" xmlns="http://www.w3.org/2000/svg">
<path fill-rule="evenodd" clip-rule="evenodd" d="M31.3172 19.3301L22.2854 29.2363C21.7702 29.801 21.0304 30.1176 20.27 30.1176C20.1011 30.1176 19.93 30.1015 19.759 30.0692L6.44301 27.5261C5.4951 27.3467 4.71411 26.6771 4.40708 25.7817L0.139451 13.3828C-0.167588 12.4874 0.040539 11.4931 0.683465 10.7873L9.71533 0.881088C10.3438 0.191366 11.3103 -0.129295 12.2396 0.0481779L25.5556 2.59128C26.5035 2.77077 27.2845 3.44234 27.5936 4.33777L31.8592 16.7346C32.1683 17.6321 31.9602 18.6263 31.3172 19.3301ZM25.3784 3.49276L23.0849 3.05311C23.2621 3.20235 23.4187 3.3778 23.5485 3.57746L29.5121 12.7838L26.7055 4.63019C26.5035 4.04534 25.9945 3.60973 25.3784 3.49276ZM23.5341 25.3682L25.5577 21.605C25.5453 21.6131 25.533 21.6212 25.5206 21.6272L17.111 26.3907L22.3101 26.1326C22.8232 26.1084 23.293 25.816 23.5341 25.3682ZM10.5602 26.7174L15.0772 26.4936C15.036 26.4734 14.9968 26.4532 14.9577 26.4311L6.48216 21.6292C6.4224 21.5949 6.3647 21.5586 6.30906 21.5183L9.2455 26.0519C9.52781 26.4875 10.0306 26.7416 10.5602 26.7174ZM8.46657 4.7512L6.44301 8.51442C6.45743 8.50635 6.4698 8.49828 6.48216 8.49223L14.8876 3.72871L9.69061 3.98685C9.17544 4.01106 8.70767 4.30348 8.46657 4.7512ZM21.4425 3.40402L16.9256 3.62788C16.9647 3.64804 17.0059 3.67023 17.0451 3.6904L25.5206 8.49223C25.5803 8.5245 25.636 8.56282 25.6937 8.60114L22.7552 4.06752C22.4729 3.63191 21.968 3.37377 21.4425 3.40402ZM25.6216 10.2569C25.6216 9.85554 25.4031 9.48447 25.0508 9.28481L16.5753 4.48297C16.3981 4.38415 16.2002 4.33373 16.0003 4.33373C15.8025 4.33373 15.6047 4.38213 15.4275 4.48297L6.95199 9.28279C6.59962 9.48447 6.37913 9.85554 6.37913 10.2549V19.8626C6.37913 20.2639 6.59962 20.635 6.95199 20.8346L15.4254 25.6365C15.7799 25.8361 16.2208 25.8361 16.5753 25.6365L25.0508 20.8366C25.4031 20.635 25.6216 20.2639 25.6216 19.8646V10.2569ZM5.44153 19.8646V10.3759L2.95637 14.9962C2.71321 15.45 2.73588 16.0005 3.01613 16.4341L5.47656 20.2357C5.45389 20.1126 5.44153 19.9896 5.44153 19.8646ZM26.5592 10.2569V19.7436L29.0443 15.1232C29.2875 14.6715 29.2648 14.1189 28.9846 13.6873L26.5241 9.8858C26.5468 10.0068 26.5592 10.1318 26.5592 10.2569ZM8.79628 3.2689C9.06211 3.15394 9.34854 3.08538 9.64527 3.06924L20.3772 2.53682L12.0624 0.949657C11.9511 0.92949 11.8399 0.919406 11.7286 0.919406C11.234 0.919406 10.7518 1.12511 10.416 1.49417L8.79628 3.2689ZM1.02966 13.0924L1.85804 15.5004C1.88071 15.1797 1.96932 14.8611 2.12799 14.5707L7.35588 4.848L1.38203 11.3983C0.963714 11.8582 0.827711 12.5055 1.02966 13.0924ZM6.62228 26.6267L8.91374 27.0643C8.73858 26.9171 8.57991 26.7396 8.45215 26.542L2.4886 17.3356L5.29522 25.4892C5.49716 26.0721 6.00409 26.5097 6.62228 26.6267ZM23.2044 26.8526C22.9386 26.9675 22.6542 27.0361 22.3554 27.0522L11.6235 27.5826L19.9383 29.1718C20.5441 29.2868 21.1747 29.077 21.5847 28.6273L23.2044 26.8526ZM30.971 17.0291L30.1427 14.6191C30.12 14.9417 30.0314 15.2584 29.8748 15.5508L24.6448 25.2714L30.6166 18.7211C31.037 18.2613 31.173 17.6139 30.971 17.0291Z" fill="white"/>
</svg>
