<svg width="32" height="27" viewBox="0 0 32 27" fill="none" xmlns="http://www.w3.org/2000/svg">
<path d="M16.1763 15.6979C16.2182 15.7823 16.3438 15.7823 16.3438 15.6979L19.2746 8.02265C19.4002 7.6431 19.7771 7.43224 20.1539 7.43224H22.8754C23.3778 7.43224 23.8383 7.85396 23.8383 8.36002C23.8383 8.48654 23.8383 8.57088 23.7965 8.6974L17.1812 26.6205C17.1812 26.6626 16.9718 26.8313 16.8044 26.9578C16.7625 27 16.6788 27 16.595 27C16.3438 26.9157 16.0926 26.7048 16.0089 26.4518L12.4919 17.8909C12.3663 17.6378 12.0732 17.5113 11.822 17.6378C11.7382 17.68 11.6126 17.7644 11.5707 17.8909L7.13263 26.7891C7.09076 26.8313 7.0489 26.8735 7.00703 26.8313C6.96516 26.8313 6.96516 26.7891 6.96516 26.7891L0.05678 8.65523C-0.110696 8.14916 0.0986489 7.60093 0.601076 7.43224C0.726683 7.39007 0.810421 7.3479 0.936028 7.3479H3.90872C4.28554 7.3479 4.66236 7.60093 4.78797 7.9383L7.7188 15.6558C7.76067 15.7401 7.88627 15.7401 7.88627 15.6558L11.5707 7.60093C11.6963 7.3479 11.9894 7.22138 12.2406 7.3479C12.3663 7.39007 12.45 7.47441 12.4919 7.60093L16.1763 15.6979ZM27.9701 0.0948868C27.9283 -0.0316289 27.7189 -0.0316289 27.677 0.0948868C27.5096 0.938325 27.1327 2.20348 26.4628 2.87823C25.7929 3.55298 24.5369 3.93253 23.6995 4.10122C23.5739 4.14339 23.5739 4.35425 23.6995 4.39642C24.5369 4.56511 25.7929 4.94465 26.4628 5.6194C27.3421 6.50501 27.6352 7.728 27.7608 8.44492C27.7608 8.48709 27.9282 8.48709 27.9282 8.44492C28.0957 7.68583 28.4307 6.33633 29.1425 5.6194C29.8124 4.94465 31.0684 4.56511 31.9058 4.39642C32.0314 4.35425 32.0314 4.14339 31.9058 4.10122C31.0684 3.93253 29.8124 3.55298 29.1425 2.87823C28.5144 2.20348 28.1376 0.938325 27.9701 0.0948868Z" fill="#325FE8"/>
</svg>
