<svg xmlns="http://www.w3.org/2000/svg" width="72" height="71.986" viewBox="0 0 19.05 19.046" version="1.1"><g fill="#29ace3" fill-rule="evenodd"><path d="M9.834 13.13A2.128 2.128 0 017.7 11.005c0-1.171.955-2.122 2.132-2.122 1.178 0 2.132.95 2.132 2.122a2.127 2.127 0 01-2.131 2.123zm-6.28 0a2.128 2.128 0 01-2.133-2.123c0-1.172.955-2.123 2.133-2.123 1.177 0 2.13.95 2.13 2.122a2.127 2.127 0 01-2.13 2.123zm6.28-5.662c-1.36 0-2.544.762-3.14 1.88a3.554 3.554 0 00-3.14-1.88c-.8 0-1.538.263-2.133.708V5.194A.708.708 0 00.71 4.5c-.389 0-.701.308-.71.694v5.871a3.546 3.546 0 003.553 3.481 3.556 3.556 0 003.14-1.88 3.556 3.556 0 003.14 1.88 3.547 3.547 0 003.554-3.54 3.546 3.546 0 00-3.554-3.538z"/><path d="M18.902 13.36l-1.932-2.358 1.934-2.365a.669.669 0 00-.163-.979.822.822 0 00-1.073.13l-1.665 2.03-1.662-2.03a.82.82 0 00-1.073-.13.668.668 0 00-.162.98l1.93 2.364-1.93 2.36c-.245.312-.175.746.162.979a.822.822 0 001.073-.13l1.663-2.029 1.661 2.029a.823.823 0 001.074.13c.338-.233.408-.667.163-.98z"/></g></svg>