<svg width="100" height="100" fill="none" xmlns="http://www.w3.org/2000/svg"><g clip-path="url(#clip0)"><g clip-path="url(#clip1)"><path d="M6.913 82.125l4.441 7.67c.923 1.615 2.25 2.884 3.807 3.807L31.02 66.15H-.7c0 1.788.461 3.576 1.384 5.19l6.23 10.786z" fill="#0066DA"/><path d="M49.65 33.851L33.79 6.398c-1.558.923-2.884 2.192-3.807 3.806L.684 60.959A10.45 10.45 0 00-.7 66.148h31.721L49.65 33.852z" fill="#00AC47"/><path d="M84.14 93.602c1.557-.923 2.883-2.192 3.806-3.806l1.846-3.173 8.824-15.283A10.45 10.45 0 00100 66.149H68.277l6.75 13.265 9.112 14.188z" fill="#EA4335"/><path d="M49.65 33.851L65.51 6.398c-1.557-.923-3.345-1.384-5.19-1.384H38.98c-1.845 0-3.633.519-5.19 1.384L49.65 33.85z" fill="#00832D"/><path d="M68.279 66.149H31.02l-15.86 27.453c1.557.923 3.345 1.384 5.19 1.384H78.95c1.845 0 3.633-.519 5.19-1.384L68.28 66.15z" fill="#2684FC"/><path d="M83.966 35.581L69.317 10.204c-.923-1.614-2.25-2.883-3.806-3.806L49.65 33.85 68.279 66.15h31.663a10.45 10.45 0 00-1.384-5.19L83.966 35.58z" fill="#FFBA00"/></g></g><defs><clipPath id="clip0"><path fill="#fff" d="M0 0h100v100H0z"/></clipPath><clipPath id="clip1"><path fill="#fff" transform="translate(-.7 5.014)" d="M0 0h100.7v89.972H0z"/></clipPath></defs></svg>