<svg width="64" height="64" viewBox="0 0 64 64" fill="none" xmlns="http://www.w3.org/2000/svg">
<path d="M32.4738 47.4258L54.6809 52.7991V11.104L32.4738 16.4809V47.4258Z" fill="#8C3123"/>
<path d="M54.6818 11.104L58.9493 13.2373V50.6782L54.6818 52.8107V11.104Z" fill="#E05243"/>
<path d="M42.16 18.5387L32.4738 16.1422V0L42.16 4.84267V18.5387Z" fill="#E05243"/>
<path d="M32.4738 64L42.1591 59.1591V45.4631L32.4738 47.8587V64Z" fill="#E05243"/>
<path d="M42.16 38.8569L32.4738 40.0898V23.9467L42.16 25.1618V38.8569Z" fill="#E05243"/>
<path d="M32.4738 47.4258L10.2658 52.7991V11.104L32.4738 16.4809V47.4258Z" fill="#E05243"/>
<path d="M10.2658 11.104L5.99998 13.2373V50.6782L10.2658 52.8107V11.104Z" fill="#8C3123"/>
<path d="M22.7902 18.5387L32.4738 16.1422V0L22.7902 4.84267V18.5387Z" fill="#8C3123"/>
<path d="M32.4738 64L22.7893 59.1591V45.4631L32.4738 47.8587V64Z" fill="#8C3123"/>
<path d="M22.7902 38.8569L32.4738 40.0898V23.9467L22.7902 25.1618V38.8569Z" fill="#8C3123"/>
<path d="M42.16 18.5387L32.4738 20.304L22.7902 18.5387L32.4738 16.1422L42.16 18.5387Z" fill="#5E1F18"/>
<path d="M42.16 45.4622L32.4738 43.6853L22.7902 45.4622L32.4738 47.8738L42.16 45.4622Z" fill="#F2B0A9"/>
</svg>
