<svg width="100" height="100" fill="none" xmlns="http://www.w3.org/2000/svg"><g clip-path="url(#clip0)"><path d="M6.818 87.517h15.91V48.881L0 31.835V80.7a6.816 6.816 0 006.818 6.818z" fill="#4285F4"/><path d="M77.273 87.517h15.909A6.816 6.816 0 00100 80.7V31.835L77.273 48.881v38.636z" fill="#34A853"/><path d="M77.273 19.335v29.546L100 31.835v-9.09c0-8.427-9.62-13.24-16.364-8.183l-6.363 4.773z" fill="#FBBC04"/><path d="M22.727 48.88V19.336L50 39.79l27.273-20.455v29.546L50 69.335 22.727 48.881z" fill="#EA4335"/><path d="M0 22.744v9.091l22.727 17.046V19.335l-6.363-4.773C9.619 9.506 0 14.319 0 22.745z" fill="#C5221F"/></g><defs><clipPath id="clip0"><path fill="#fff" transform="translate(0 12.499)" d="M0 0h100v75.018H0z"/></clipPath></defs></svg>