<svg xmlns="http://www.w3.org/2000/svg" width="64" height="64" fill="none" viewBox="0 0 64 64">
  <g clip-path="url(#a)">
    <path fill="#fff" d="M3.85 2.76 39.265.145c4.35-.373 5.467-.122 8.203 1.867L58.77 9.975c1.864 1.37 2.485 1.743 2.485 3.234v43.675c0 2.738-.994 4.357-4.473 4.604l-41.124 2.49c-2.611.124-3.855-.249-5.223-1.991L2.113 51.162C.619 49.169 0 47.678 0 45.935V7.112C0 4.874.994 3.008 3.85 2.76Z"/>
    <path fill="#000" fill-rule="evenodd" d="M39.264.145 3.851 2.761C.994 3.008 0 4.875 0 7.112v38.823c0 1.742.619 3.234 2.112 5.227l8.325 10.824c1.367 1.743 2.61 2.116 5.222 1.992l41.124-2.49c3.477-.247 4.474-1.866 4.474-4.603V13.21c0-1.415-.559-1.823-2.204-3.03L47.467 2.013C44.732.023 43.614-.228 39.264.145Zm-22.675 12.35c-3.358.226-4.12.277-6.027-1.274L5.713 7.364c-.493-.499-.245-1.121.997-1.246l34.043-2.487c2.86-.25 4.348.747 5.466 1.617l5.839 4.23c.25.126.87.87.123.87l-35.157 2.117-.435.03Zm-3.915 44.017V19.435c0-1.62.497-2.366 1.986-2.492l40.38-2.364c1.37-.123 1.989.747 1.989 2.364v36.83c0 1.619-.25 2.989-2.486 3.112l-38.64 2.24c-2.236.124-3.228-.62-3.228-2.613h-.001Zm38.144-35.09c.248 1.12 0 2.24-1.12 2.369l-1.862.369v27.375c-1.618.87-3.106 1.367-4.35 1.367-1.989 0-2.486-.622-3.975-2.487l-12.18-19.162v18.539l3.854.872s0 2.24-3.109 2.24l-8.57.498c-.249-.5 0-1.743.869-1.99l2.238-.622V26.278l-3.106-.251c-.25-1.12.371-2.737 2.112-2.863l9.195-.619 12.672 19.41V24.783l-3.23-.37c-.25-1.372.744-2.369 1.986-2.49l8.576-.5Z" clip-rule="evenodd"/>
  </g>
  <defs>
    <clipPath id="a">
      <path fill="#fff" d="M0 0h64v64H0z"/>
    </clipPath>
  </defs>
</svg>
