<svg fill="none" height="100" viewBox="0 0 100 100" width="100" xmlns="http://www.w3.org/2000/svg"><path d="m60.4144 61.235 20.6412-19.7397c-4.2876-16.7185-21.3163-26.7957-38.0349-22.5081-7.5288 1.9308-14.0679 6.598-18.341 13.0904.3194-.008 35.7347 29.1574 35.7347 29.1574z" fill="#0364b8"/><path d="m38.1321 35.7933-.001.0034c-3.9441-2.4428-8.4928-3.734-13.1321-3.7277-.1072 0-.2125.0068-.3194.008-13.8001.171-24.848511 11.4967-24.67764455 25.2964.06194815 5.0058 1.62603455 9.8776 4.48952455 13.9839l30.92382-3.873 23.7087-19.1172z" fill="#0078d4"/><path d="m81.0554 41.4944c-.4537-.0303-.9096-.0513-1.3711-.0513-2.7691-.0027-5.5093.5629-8.0511 1.6618l-.0006-.0021-12.5086 5.2638 13.7898 17.0339 24.6528 5.9928c5.3204-9.8765 1.6264-22.1957-8.2501-27.5158-2.5521-1.3747-5.3688-2.1872-8.2609-2.383z" fill="#1490df"/><path d="m4.49161 71.3574c4.66932 6.7133 12.33019 10.7142 20.50749 10.7098h54.6853c7.4702.0021 14.3384-4.0971 17.8823-10.6731l-38.4426-23.0269z" fill="#28a8ea"/></svg>