<svg width="16" height="13" viewBox="0 0 16 13" fill="none" xmlns="http://www.w3.org/2000/svg">
<path fill-rule="evenodd" clip-rule="evenodd" d="M7.58956 9.05857L7.34995 4.18143H8.64995L8.40014 9.05857H7.58956ZM7.98423 10.96C7.80995 10.96 7.66066 10.8979 7.53638 10.7736C7.41209 10.6493 7.34995 10.5014 7.34995 10.33C7.34995 10.1557 7.41209 10.0071 7.53638 9.88429C7.66066 9.76143 7.80995 9.7 7.98423 9.7C8.15281 9.7 8.29923 9.76071 8.42352 9.88214C8.54781 10.0036 8.60995 10.1529 8.60995 10.33C8.60995 10.5043 8.54709 10.6529 8.42138 10.7757C8.29566 10.8986 8.14995 10.96 7.98423 10.96ZM1.99995 13C1.24089 13 0.758575 12.1875 1.12205 11.5211L7.12205 0.521148C7.50107 -0.173716 8.49883 -0.173716 8.87784 0.521148L14.8778 11.5211C15.2413 12.1875 14.759 13 13.9999 13H1.99995ZM1.99995 12H13.9999L7.99995 1L1.99995 12Z" fill="#F5A700"/>
</svg>
