<svg width="16" height="16" viewBox="0 0 16 16" fill="none" xmlns="http://www.w3.org/2000/svg">
<path d="M8.74572 8L11.8456 4.90016C12.0515 4.69424 12.0515 4.36037 11.8456 4.15444C11.6396 3.94852 11.3058 3.94852 11.0998 4.15444L8 7.25428L4.90016 4.15444C4.69424 3.94852 4.36037 3.94852 4.15444 4.15444C3.94852 4.36037 3.94852 4.69424 4.15444 4.90016L7.25428 8L4.15444 11.0998C3.94852 11.3058 3.94852 11.6396 4.15444 11.8456C4.36037 12.0515 4.69424 12.0515 4.90016 11.8456L8 8.74572L11.0998 11.8456C11.3058 12.0515 11.6396 12.0515 11.8456 11.8456C12.0515 11.6396 12.0515 11.3058 11.8456 11.0998L8.74572 8ZM8 16C3.58172 16 0 12.4183 0 8C0 3.58172 3.58172 0 8 0C12.4183 0 16 3.58172 16 8C16 12.4183 12.4183 16 8 16Z" fill="#BD271E"/>
</svg>
