<svg width="18" height="18" viewBox="0 0 18 18" fill="none" xmlns="http://www.w3.org/2000/svg">
<path fill-rule="evenodd" clip-rule="evenodd" d="M8.31121 13.8239L8.26929 9H6.59375V7.625H9.89506L9.93699 12.4489H11.475V13.8239H8.31121ZM7.96875 5.29603C7.96875 4.97768 8.06342 4.71334 8.25275 4.503C8.44208 4.29267 8.71275 4.1875 9.06475 4.1875C9.41675 4.1875 9.68875 4.29267 9.88075 4.503C10.0728 4.71334 10.1688 4.97768 10.1688 5.29603C10.1688 5.60869 10.0728 5.86877 9.88075 6.07626C9.68875 6.28375 9.41675 6.3875 9.06475 6.3875C8.71275 6.3875 8.44208 6.28375 8.25275 6.07626C8.06342 5.86877 7.96875 5.60869 7.96875 5.29603ZM9 15.875C12.797 15.875 15.875 12.797 15.875 9C15.875 5.20304 12.797 2.125 9 2.125C5.20304 2.125 2.125 5.20304 2.125 9C2.125 12.797 5.20304 15.875 9 15.875ZM9 17.25C4.44365 17.25 0.75 13.5563 0.75 9C0.75 4.44365 4.44365 0.75 9 0.75C13.5563 0.75 17.25 4.44365 17.25 9C17.25 13.5563 13.5563 17.25 9 17.25Z" fill="#006BB4"/>
</svg>
