<svg width="16" height="16" viewBox="0 0 16 16" fill="none" xmlns="http://www.w3.org/2000/svg">
<path fill-rule="evenodd" clip-rule="evenodd" d="M12 0.5C12 0.223858 11.7761 0 11.5 0C11.2239 0 11 0.223858 11 0.5C11 0.919988 10.8699 1.5611 10.4942 2.08285C10.1369 2.5791 9.53704 3 8.5 3C8.22386 3 8 3.22386 8 3.5C8 3.77614 8.22386 4 8.5 4C9.53704 4 10.1369 4.4209 10.4942 4.91715C10.8699 5.4389 11 6.08001 11 6.5C11 6.77614 11.2239 7 11.5 7C11.7761 7 12 6.77614 12 6.5C12 6.08001 12.1301 5.4389 12.5058 4.91715C12.8631 4.4209 13.463 4 14.5 4C14.7761 4 15 3.77614 15 3.5C15 3.22386 14.7761 3 14.5 3C13.463 3 12.8631 2.5791 12.5058 2.08285C12.1301 1.5611 12 0.919988 12 0.5Z" fill="url(#paint0_linear_5416_44252)"/>
<path fill-rule="evenodd" clip-rule="evenodd" d="M6 3.5C6 3.22386 5.77614 3 5.5 3C5.22386 3 5 3.22386 5 3.5L4.99991 3.50628C4.9998 3.51297 4.99957 3.52414 4.99906 3.53949C4.99803 3.57022 4.99591 3.61759 4.99151 3.67922C4.98269 3.80265 4.96481 3.98223 4.92868 4.19905C4.85601 4.63505 4.71161 5.20875 4.42779 5.77639C4.14494 6.34208 3.72853 6.89255 3.11327 7.30272C2.50115 7.71081 1.66251 8 0.5 8C0.223858 8 0 8.22386 0 8.5C0 8.77614 0.223858 9 0.5 9C1.66251 9 2.50115 9.28919 3.11327 9.69728C3.72853 10.1074 4.14494 10.6579 4.42779 11.2236C4.71161 11.7912 4.85601 12.3649 4.92868 12.8009C4.96481 13.0178 4.98269 13.1974 4.99151 13.3208C4.99591 13.3824 4.99803 13.4298 4.99906 13.4605C4.99957 13.4759 4.9998 13.487 4.99991 13.4937L5 13.4995C5 13.7756 5.22386 14 5.5 14C5.77614 14 6 13.7761 6 13.5L6.00009 13.4937C6.0002 13.487 6.00043 13.4759 6.00094 13.4605C6.00197 13.4298 6.00409 13.3824 6.00849 13.3208C6.01731 13.1974 6.03519 13.0178 6.07132 12.8009C6.14399 12.3649 6.28839 11.7912 6.57221 11.2236C6.85506 10.6579 7.27147 10.1074 7.88673 9.69728C8.49885 9.28919 9.33749 9 10.5 9C10.7761 9 11 8.77614 11 8.5C11 8.22386 10.7761 8 10.5 8C9.33749 8 8.49885 7.71081 7.88673 7.30272C7.27147 6.89255 6.85506 6.34208 6.57221 5.77639C6.28839 5.20875 6.14399 4.63505 6.07132 4.19905C6.03519 3.98223 6.01731 3.80265 6.00849 3.67922C6.00409 3.61759 6.00197 3.57022 6.00094 3.53949C6.00043 3.52414 6.0002 3.51297 6.00009 3.50628L6 3.5Z" fill="url(#paint1_linear_5416_44252)"/>
<path fill-rule="evenodd" clip-rule="evenodd" d="M12.5 9C12.7761 9 13 9.22386 13 9.5C13 9.91999 13.1301 10.5611 13.5058 11.0828C13.8631 11.5791 14.463 12 15.5 12C15.7761 12 16 12.2239 16 12.5C16 12.7761 15.7761 13 15.5 13C14.463 13 13.8631 13.4209 13.5058 13.9172C13.1301 14.4389 13 15.08 13 15.5C13 15.7761 12.7761 16 12.5 16C12.2239 16 12 15.7761 12 15.5C12 15.08 11.8699 14.4389 11.4942 13.9172C11.1369 13.4209 10.537 13 9.5 13C9.22386 13 9 12.7761 9 12.5C9 12.2239 9.22386 12 9.5 12C10.537 12 11.1369 11.5791 11.4942 11.0828C11.8699 10.5611 12 9.91999 12 9.5C12 9.22386 12.2239 9 12.5 9Z" fill="url(#paint2_linear_5416_44252)"/>
<defs>
<linearGradient id="paint0_linear_5416_44252" x1="-1.75" y1="-2.5" x2="14.573" y2="11.6084" gradientUnits="userSpaceOnUse">
<stop offset="0.168292" stop-color="#0B64DD"/>
<stop offset="0.83" stop-color="#731DCF"/>
</linearGradient>
<linearGradient id="paint1_linear_5416_44252" x1="-1.75" y1="-2.5" x2="14.573" y2="11.6084" gradientUnits="userSpaceOnUse">
<stop offset="0.168292" stop-color="#0B64DD"/>
<stop offset="0.83" stop-color="#731DCF"/>
</linearGradient>
<linearGradient id="paint2_linear_5416_44252" x1="-1.75" y1="-2.5" x2="14.573" y2="11.6084" gradientUnits="userSpaceOnUse">
<stop offset="0.168292" stop-color="#0B64DD"/>
<stop offset="0.83" stop-color="#731DCF"/>
</linearGradient>
</defs>
</svg>
