<svg xmlns="http://www.w3.org/2000/svg" version="1.1" id="Layer_1" x="0" y="0" viewBox="-12.06 13.62 35.251 35.399" xml:space="preserve" width="35.251" height="35.399"><defs id="defs30"><mask id="b_1_" height="71.5" width="56.2" y="41.4" x="555.7" maskUnits="userSpaceOnUse"><g id="g12" filter="url(#Adobe_OpacityMaskFilter)"><path d="M306.3 12.4H.8v120.9h611.1V12.4z" id="a_1_" fill="#fff"/></g></mask><defs id="defs9"><filter height="71.5" width="56.2" y="41.4" x="555.7" filterUnits="userSpaceOnUse" id="Adobe_OpacityMaskFilter"><feColorMatrix id="feColorMatrix6" values="1 0 0 0 0 0 1 0 0 0 0 0 1 0 0 0 0 0 1 0" type="matrix"/></filter></defs></defs><style type="text/css" id="style2"></style><g id="g859" transform="matrix(1.77073 0 0 1.77073 .852 -43.01)" stroke-width=".166"><path d="M4.728 37.956a8.738 8.738 0 01-2.074.232c-.714 0-1.41-.083-2.074-.232a9.157 9.157 0 012.074-2.306 9.157 9.157 0 012.074 2.306zm6.255-5.077a9.394 9.394 0 00-2.622-.332c-2.024 0-4.015.597-5.707 1.726a10.127 10.127 0 00-5.708-1.726c-.912 0-1.791.116-2.621.332-.348.083-.697.2-1.029.332-.016.016-.033.033-.016.05.15.315.315.63.48.929.018.016.034.016.05.016a9.244 9.244 0 013.136-.547c1.742 0 3.368.48 4.762 1.327a10.278 10.278 0 00-2.223 2.638 10.214 10.214 0 00-1.427 5.21 10.27 10.27 0 003.186 7.433c.149.149.315.298.48.43.133.117.266.217.399.316.166.133.348.266.53.382.017.016.034.016.05 0 .183-.116.349-.25.531-.382.133-.1.266-.199.399-.315.166-.133.331-.282.48-.431a10.255 10.255 0 003.17-7.433c0-1.46-.316-2.904-.913-4.231-.066-.133-.133-.282-.199-.415a6.59 6.59 0 00-.332-.58 10.62 10.62 0 00-2.223-2.639 9.284 9.284 0 014.762-1.327c1.062 0 2.14.183 3.135.548.017 0 .034 0 .05-.017.183-.299.332-.614.481-.912.017-.017 0-.05-.016-.05a8.458 8.458 0 00-1.045-.332z" id="path19" fill="#151f34"/><path d="M6.138 42.85a9.124 9.124 0 01-2.505 6.305 9.163 9.163 0 01-.415-2.754c0-2.44.946-4.662 2.505-6.305.266.863.415 1.792.415 2.754" id="path21" fill="#348540"/><path d="M2.106 46.384c0 .962-.15 1.892-.415 2.754a9.2 9.2 0 01-2.505-6.304c0-.963.15-1.892.432-2.754a9.261 9.261 0 012.488 6.304" id="path23" fill="#7dbc42"/></g></svg>