<svg xmlns="http://www.w3.org/2000/svg" width="313" height="461" viewBox="0 0 313 461">
  <g fill="none" fill-rule="evenodd">
    <path fill="#F5F7FA" d="M294.009,184.137 C456.386,184.137 588.018,315.77 588.018,478.146 C588.018,640.523 456.386,772.156 294.009,772.156 C131.632,772.156 0,640.523 0,478.146 C0,315.77 131.632,184.137 294.009,184.137 Z M294.009,384.552 C242.318,384.552 200.415,426.456 200.415,478.146 C200.415,529.837 242.318,571.741 294.009,571.741 C345.7,571.741 387.604,529.837 387.604,478.146 C387.604,426.456 345.7,384.552 294.009,384.552 Z"/>
    <path fill="#E6EBF2" d="M202.958,365.731 L202.958,380.991 L187.698,380.991 L187.698,365.731 L202.958,365.731 Z M202.958,327.073 L202.958,342.333 L187.698,342.333 L187.698,327.073 L202.958,327.073 Z M243.651,325.038 L243.651,340.298 L228.391,340.298 L228.391,325.038 L243.651,325.038 Z M243.651,286.379 L243.651,301.639 L228.391,301.639 L228.391,286.379 L243.651,286.379 Z M202.958,285.362 L202.958,300.622 L187.698,300.622 L187.698,285.362 L202.958,285.362 Z M284.345,284.345 L284.345,299.605 L269.085,299.605 L269.085,284.345 L284.345,284.345 Z M284.345,245.686 L284.345,260.946 L269.085,260.946 L269.085,245.686 L284.345,245.686 Z M243.651,244.669 L243.651,259.929 L228.391,259.929 L228.391,244.669 L243.651,244.669 Z M202.958,243.651 L202.958,258.911 L187.698,258.911 L187.698,243.651 L202.958,243.651 Z M284.345,203.975 L284.345,219.235 L269.085,219.235 L269.085,203.975 L284.345,203.975 Z M202.958,203.975 L202.958,219.235 L187.698,219.235 L187.698,203.975 L202.958,203.975 Z M243.651,202.958 L243.651,218.218 L228.391,218.218 L228.391,202.958 L243.651,202.958 Z M243.651,163.282 L243.651,178.542 L228.391,178.542 L228.391,163.282 L243.651,163.282 Z M202.958,163.282 L202.958,178.542 L187.698,178.542 L187.698,163.282 L202.958,163.282 Z M284.345,162.265 L284.345,177.525 L269.085,177.525 L269.085,162.265 L284.345,162.265 Z M284.345,122.589 L284.345,137.849 L269.085,137.849 L269.085,122.589 L284.345,122.589 Z M243.651,122.589 L243.651,137.849 L228.391,137.849 L228.391,122.589 L243.651,122.589 Z M202.958,122.589 L202.958,137.849 L187.698,137.849 L187.698,122.589 L202.958,122.589 Z M284.345,81.8954 L284.345,97.1554 L269.085,97.1554 L269.085,81.8954 L284.345,81.8954 Z M243.651,81.8954 L243.651,97.1554 L228.391,97.1554 L228.391,81.8954 L243.651,81.8954 Z M202.958,81.8954 L202.958,97.1554 L187.698,97.1554 L187.698,81.8954 L202.958,81.8954 Z M284.345,41.202 L284.345,56.462 L269.085,56.462 L269.085,41.202 L284.345,41.202 Z M243.651,41.202 L243.651,56.462 L228.391,56.462 L228.391,41.202 L243.651,41.202 Z M284.345,0.508789 L284.345,15.7688 L269.085,15.7688 L269.085,0.508789 L284.345,0.508789 Z"/>
  </g>
</svg>
