<svg xmlns="http://www.w3.org/2000/svg" xmlns:xlink="http://www.w3.org/1999/xlink" width="1170" height="880" viewBox="0 0 1170 880">
  <defs>
    <linearGradient id="bg_bottom_branded_dark-a" x1="77.613%" x2="2.264%" y1="48.924%" y2="48.924%">
      <stop offset="0%" stop-color="#FFF" stop-opacity=".4"/>
      <stop offset="100%" stop-color="#FFF" stop-opacity="0"/>
    </linearGradient>
    <linearGradient id="bg_bottom_branded_dark-c" x1="0%" y1="0%" y2="100%">
      <stop offset="0%" stop-color="#FFF" stop-opacity=".4"/>
      <stop offset="100%" stop-opacity="0"/>
    </linearGradient>
    <linearGradient id="bg_bottom_branded_dark-d" x1="50%" x2="50%" y1=".727%" y2="53.618%">
      <stop offset="0%" stop-color="#FFF"/>
      <stop offset="100%" stop-color="#D9D9D9" stop-opacity=".3"/>
    </linearGradient>
    <path id="bg_bottom_branded_dark-b" d="M197,880 L374,880 C365.385564,795.927984 296.005151,723.868711 197,686 L197,880 Z"/>
  </defs>
  <g fill="none" fill-rule="evenodd">
    <polygon fill="url(#bg_bottom_branded_dark-a)" points="561 364 1170 880 561 880" opacity=".03"/>
    <polygon fill="#F5F5F5" fill-opacity=".35" points="0 0 1048 880 0 880" opacity=".01"/>
    <polygon fill="#FFF" points="-12 538 342 868 -12 868" opacity=".02" transform="matrix(0 -1 -1 0 868 868)"/>
    <path fill="#000" d="M197,737.327273 L197,880 L165,880 L165,703 L197,737.327273 Z" opacity=".03"/>
    <g opacity=".02">
      <use fill="#F5F5F5" xlink:href="#bg_bottom_branded_dark-b"/>
      <use fill="url(#bg_bottom_branded_dark-c)" xlink:href="#bg_bottom_branded_dark-b" style="mix-blend-mode:overlay"/>
      <use fill="url(#bg_bottom_branded_dark-d)" xlink:href="#bg_bottom_branded_dark-b" style="mix-blend-mode:overlay"/>
    </g>
    <path fill="#FFF" fill-opacity=".5" d="M330,880 L197,880 L197,737.327273 L330,880 Z" opacity=".01"/>
  </g>
</svg>
