<svg width="128" height="128" viewBox="0 0 128 128" fill="none" xmlns="http://www.w3.org/2000/svg">
<g clip-path="url(#clip0_14415_12194)">
<rect width="128" height="128" fill="white"/>
<path d="M67.4098 89.0198C83.4868 89.0198 96.5198 75.9868 96.5198 59.9098C96.5198 43.8328 83.4868 30.7998 67.4098 30.7998C51.3328 30.7998 38.2998 43.8328 38.2998 59.9098C38.2998 75.9868 51.3328 89.0198 67.4098 89.0198Z" fill="#48EFCF" stroke="#101C3F" stroke-linejoin="round"/>
<path d="M98.6399 74.1001C93.2699 67.1301 86.2499 59.8801 77.9799 53.0501C76.2099 51.5901 74.4299 50.1901 72.6499 48.8501C74.1799 50.0101 75.6999 51.2201 77.2199 52.4701C85.7299 59.4901 93.0499 66.9101 98.6499 74.1001H98.6399Z" fill="#101C3F" stroke="#101C3F" stroke-linejoin="round"/>
<path d="M98.6401 74.1C109.09 87.66 113.29 100.14 108.23 106.27C100.57 115.55 74.6101 106.77 50.2401 86.66C25.8701 66.55 12.3301 42.72 19.9901 33.44C27.0901 24.83 49.9301 31.76 72.6401 48.84C48.6401 30.62 23.7901 23.77 15.6301 33.66C6.95006 44.18 20.4501 69.65 45.7801 90.55C71.1101 111.45 98.4401 119.67 107.36 109.36C114.02 101.67 109.7 88.32 98.6401 74.1Z" fill="#153385" stroke="#101C3F" stroke-linejoin="round"/>
<path d="M107.36 109.36C98.4401 119.67 71.1101 111.46 45.7801 90.5503C20.4501 69.6503 6.95006 44.1703 15.6301 33.6603C24.3101 23.1403 51.8801 31.5603 77.2101 52.4703C102.54 73.3803 117.38 97.7803 107.36 109.36Z" stroke="#101C3F" stroke-linejoin="round"/>
<path d="M82.08 47.5098C54.74 24.9398 24.55 16.3698 14.66 28.3598C8.40999 35.9298 11.75 49.8898 21.94 64.8298C13.25 51.8498 10.38 40.0198 15.63 33.6598C24.31 23.1398 51.88 31.5598 77.21 52.4698C102.54 73.3698 117.38 97.7798 107.36 109.36C98.47 119.64 71.28 111.51 46.02 90.7498C46.1 90.8098 46.17 90.8798 46.25 90.9398C73.59 113.51 103.78 122.08 113.68 110.08C123.58 98.0898 109.43 70.0698 82.09 47.5098H82.08Z" fill="#0B64DD" stroke="#101C3F" stroke-linejoin="round"/>
<mask id="mask0_14415_12194" style="mask-type:luminance" maskUnits="userSpaceOnUse" x="18" y="-3" width="94" height="139">
<path d="M91.76 43.97C91.76 43.97 96.62 51.3 96.51 59.91L108.06 54.81L111.95 -3L75.16 0.88L29.84 44.52L22.38 77.9L18.04 125.4L36.09 135.22L78.59 91.58L77.9 87.01C77.9 87.01 74.49 89 64.65 89C56.17 89 42.94 87.69 42.94 87.69L56.67 46.64L78.58 33.54L91.75 43.95L91.76 43.97Z" fill="white"/>
</mask>
<g mask="url(#mask0_14415_12194)">
<path d="M100.97 13.4003C91.7804 7.31026 69.6504 24.4803 51.2404 51.8503C68.5504 26.2403 88.5804 9.81026 96.3804 14.9803C104.33 20.2503 96.5704 45.9603 79.0404 72.4103C61.5104 98.8603 40.8604 116.03 32.9104 110.76C31.0504 109.53 30.0504 107.18 29.8304 103.96C29.7604 109.09 31.0404 112.86 33.8304 114.71C43.1404 120.88 65.7104 103.2 84.2504 75.2303C102.79 47.2603 110.27 19.5803 100.96 13.4103L100.97 13.4003Z" fill="#101C3F" stroke="#101C3F" stroke-linejoin="round"/>
<path d="M51.2504 51.8501C50.9204 52.3401 50.5904 52.8301 50.2604 53.3201C36.8304 73.5801 29.1404 93.4101 29.8504 103.95C30.0104 91.9401 37.5704 72.4801 50.5604 52.8801C50.7904 52.5301 51.0204 52.1901 51.2504 51.8501Z" fill="#0B64DD" stroke="#101C3F" stroke-linejoin="round"/>
<path d="M99.6703 9.31005C89.2203 2.07005 64.6903 19.3901 44.8903 47.9901C25.0803 76.5901 17.1103 107.94 29.8903 117.39C40.1103 124.95 62.9403 102.79 82.7403 74.2001C102.55 45.6001 110.13 16.5501 99.6803 9.31005H99.6703ZM79.0503 72.4101C61.5203 98.8601 40.8703 116.03 32.9203 110.76C24.9703 105.49 32.7303 79.7801 50.2603 53.3301C67.7903 26.8801 88.4403 9.71005 96.3903 14.9801C104.34 20.2501 96.5803 45.9601 79.0503 72.4101Z" fill="#0B64DD" stroke="#101C3F" stroke-linejoin="round"/>
</g>
<path d="M51.6101 59.0901L51.0601 58.8301L53.7901 57.5801C64.4301 62.5001 70.3901 69.3101 74.6301 80.1901L71.8801 81.4101C67.7401 70.7801 62.0101 63.9601 51.6101 59.0901Z" fill="#101C3F" stroke="#101C3F" stroke-linecap="round" stroke-linejoin="round"/>
<path d="M90.5901 60.59L91.1401 60.85L93.9101 59.61C83.3001 54.69 77.3701 47.89 73.1401 37.04L70.3901 38.31C74.5201 48.91 80.2301 55.73 90.5901 60.59Z" fill="#101C3F" stroke="#101C3F" stroke-linejoin="round"/>
<path d="M91.1401 60.8499C80.7201 64.7399 75.3601 70.9299 71.8701 81.4099L74.6201 80.1899C78.1101 69.6999 83.4701 63.4999 93.9001 59.6099L91.1301 60.8499H91.1401Z" stroke="black" stroke-linecap="round" stroke-linejoin="round"/>
<path d="M93.91 59.61C83.48 63.5 78.12 69.7 74.63 80.19C70.39 69.3 64.43 62.5 53.79 57.58C64.24 53.7 69.64 47.54 73.15 37.04C77.38 47.89 83.31 54.69 93.92 59.61H93.91Z" fill="white" stroke="#101C3F" stroke-linejoin="round"/>
<path d="M70.2001 38.88L70.4001 38.31L73.1501 37.04C68.9801 49.52 62.5401 53.56 51.0601 58.83C61.2501 55.05 66.7301 49.14 70.2001 38.88Z" fill="#101C3F" stroke="#101C3F" stroke-linejoin="round"/>
<path d="M79.7102 38.3395L79.4902 38.2395L80.5702 37.7495C84.7602 39.6895 87.1102 42.3695 88.7802 46.6595L87.7002 47.1395C86.0702 42.9495 83.8102 40.2595 79.7102 38.3395Z" fill="#101C3F" stroke="#101C3F" stroke-linecap="round" stroke-linejoin="round"/>
<path d="M95.0804 38.9296L95.3004 39.0296L96.3904 38.5396C92.2104 36.5996 89.8704 33.9196 88.2104 29.6396L87.1304 30.1396C88.7604 34.3196 91.0104 36.9996 95.0904 38.9196L95.0804 38.9296Z" fill="#101C3F" stroke="#101C3F" stroke-linejoin="round"/>
<path d="M95.2902 39.0295C91.1802 40.5595 89.0702 42.9996 87.7002 47.1296L88.7802 46.6496C90.1602 42.5196 92.2702 40.0696 96.3802 38.5396L95.2902 39.0295Z" stroke="black" stroke-linecap="round" stroke-linejoin="round"/>
<path d="M96.3803 38.5396C92.2703 40.0696 90.1603 42.5197 88.7803 46.6497C87.1103 42.3597 84.7603 39.6797 80.5703 37.7397C84.6903 36.2097 86.8203 33.7796 88.2003 29.6396C89.8703 33.9196 92.2003 36.5996 96.3803 38.5396Z" fill="white" stroke="#101C3F" stroke-linejoin="round"/>
<path d="M87.04 30.3694L87.12 30.1494L88.2 29.6494C86.56 34.5694 84.02 36.1594 79.5 38.2394C83.51 36.7494 85.68 34.4194 87.04 30.3794V30.3694Z" fill="#101C3F" stroke="#101C3F" stroke-linejoin="round"/>
</g>
<defs>
<clipPath id="clip0_14415_12194">
<rect width="128" height="128" fill="white"/>
</clipPath>
</defs>
</svg>
