<svg width="128" height="128" viewBox="0 0 128 128" fill="none" xmlns="http://www.w3.org/2000/svg">
<path d="M18.98 82.74L94.05 82.74C95.972 82.74 97.53 81.1819 97.53 79.26L97.53 18.46C97.53 16.538 95.972 14.98 94.05 14.98L18.98 14.98C17.0581 14.98 15.5 16.538 15.5 18.46L15.5 79.26C15.5 81.1819 17.0581 82.74 18.98 82.74Z" fill="#153385" stroke="#101C3F" stroke-miterlimit="10"/>
<path d="M96.79 14.98H21.72C19.798 14.98 18.24 16.538 18.24 18.46V79.26C18.24 81.1819 19.798 82.74 21.72 82.74H96.79C98.7119 82.74 100.27 81.1819 100.27 79.26V18.46C100.27 16.538 98.7119 14.98 96.79 14.98Z" fill="#0B64DD"/>
<mask id="mask0_14759_17373" style="mask-type:luminance" maskUnits="userSpaceOnUse" x="18" y="14" width="83" height="69">
<path d="M96.79 14.98H21.72C19.798 14.98 18.24 16.538 18.24 18.46V79.26C18.24 81.1819 19.798 82.74 21.72 82.74H96.79C98.7119 82.74 100.27 81.1819 100.27 79.26V18.46C100.27 16.538 98.7119 14.98 96.79 14.98Z" fill="white"/>
</mask>
<g mask="url(#mask0_14759_17373)">
<path d="M101.04 14.5H17.6399V26.37H101.04V14.5Z" stroke="#101C3F" stroke-miterlimit="10"/>
</g>
<path d="M96.79 14.98H21.72C19.798 14.98 18.24 16.538 18.24 18.46V79.26C18.24 81.1819 19.798 82.74 21.72 82.74H96.79C98.7119 82.74 100.27 81.1819 100.27 79.26V18.46C100.27 16.538 98.7119 14.98 96.79 14.98Z" stroke="#101C3F" stroke-miterlimit="10"/>
<path d="M37.4299 26.3401V82.7401" stroke="#101C3F" stroke-miterlimit="10"/>
<path d="M21.8 32.9199H32.73" stroke="#101C3F" stroke-miterlimit="10"/>
<path d="M21.8 37.6499H32.73" stroke="#101C3F" stroke-miterlimit="10"/>
<path d="M21.8 42.3799H32.73" stroke="#101C3F" stroke-miterlimit="10"/>
<path d="M21.8 47.1199H29.11" stroke="#101C3F" stroke-miterlimit="10"/>
<path d="M21.8 51.8501H29.11" stroke="#101C3F" stroke-miterlimit="10"/>
<path d="M21.8 56.5801H29.11" stroke="#101C3F" stroke-miterlimit="10"/>
<path d="M109.22 70.49H55.75C53.8281 70.49 52.27 72.048 52.27 73.97V112.15C52.27 114.072 53.8281 115.63 55.75 115.63H109.22C111.142 115.63 112.7 114.072 112.7 112.15V73.97C112.7 72.048 111.142 70.49 109.22 70.49Z" fill="#153385" stroke="#101C3F" stroke-miterlimit="10"/>
<path d="M112.1 70.49H58.6299C56.708 70.49 55.1499 72.048 55.1499 73.97V112.15C55.1499 114.072 56.708 115.63 58.6299 115.63H112.1C114.022 115.63 115.58 114.072 115.58 112.15V73.97C115.58 72.048 114.022 70.49 112.1 70.49Z" fill="white" stroke="#101C3F" stroke-miterlimit="10"/>
<path d="M76.6899 109.22H83.6599V98.49H76.6899V109.22Z" fill="#48EFCF" stroke="#101C3F" stroke-miterlimit="10"/>
<path d="M66 109.23H72.97V82.23H66V109.23Z" fill="#48EFCF" stroke="#101C3F" stroke-miterlimit="10"/>
<path d="M87.3901 109.23H94.3601V90.09H87.3901V109.23Z" fill="#48EFCF" stroke="#101C3F" stroke-miterlimit="10"/>
<path d="M98.0901 109.23H105.06V84.1H98.0901V109.23Z" fill="#48EFCF" stroke="#101C3F" stroke-miterlimit="10"/>
<path d="M63.1599 109.23H107.57" stroke="#101C3F" stroke-miterlimit="10"/>
<path d="M25.4599 22.9399C26.7247 22.9399 27.7499 21.9146 27.7499 20.6499C27.7499 19.3851 26.7247 18.3599 25.4599 18.3599C24.1952 18.3599 23.1699 19.3851 23.1699 20.6499C23.1699 21.9146 24.1952 22.9399 25.4599 22.9399Z" fill="white"/>
<path d="M79.8799 20.6499H88.8799" stroke="white" stroke-miterlimit="10"/>
<path d="M91.1699 20.6499H94.8999" stroke="white" stroke-miterlimit="10"/>
<mask id="mask1_14759_17373" style="mask-type:luminance" maskUnits="userSpaceOnUse" x="37" y="26" width="86" height="61">
<path d="M118.56 26.3401H41.3999C39.478 26.3401 37.9199 27.8981 37.9199 29.8201V82.5801C37.9199 84.502 39.478 86.0601 41.3999 86.0601H118.56C120.482 86.0601 122.04 84.502 122.04 82.5801V29.8201C122.04 27.8981 120.482 26.3401 118.56 26.3401Z" fill="white"/>
</mask>
<g mask="url(#mask1_14759_17373)">
<path d="M109.69 36.0701L96.5198 34.3401L100.56 39.5901L76.0898 55.0801L72.6298 49.2801L52.8098 61.9501L47.4498 54.5301L30.2898 64.1501L33.0698 69.1101L45.8098 61.9701L51.3398 69.6401L70.7498 57.2301L74.1898 63.0101L104.03 44.1201L107.59 48.7501L109.69 36.0701Z" fill="#101C3F"/>
<path d="M109.69 36.0701L109.31 33.6401L103.76 34.1401L104.26 39.4201L109.69 36.0701Z" fill="#101C3F"/>
<path d="M108.77 34.0701L95.6099 32.3301L99.6399 37.5901L75.1699 53.0801L71.7099 47.2801L51.8899 59.9501L46.5399 52.5301L29.3799 62.1401L32.1499 67.1001L44.8899 59.9701L50.4299 67.6401L69.8299 55.2301L73.2799 61.0101L103.12 42.1201L106.67 46.7501L108.77 34.0701Z" fill="#48EFCF" stroke="#101C3F" stroke-miterlimit="10"/>
</g>
</svg>
