<svg width="28" height="23" viewBox="0 0 28 23" fill="none" xmlns="http://www.w3.org/2000/svg">
<g clip-path="url(#clip0_2_63)">
<path d="M18.6213 6.27492L21.0552 3.81737L21.2174 2.78258C16.7821 -1.28956 9.73171 -0.827825 5.73351 3.74603C4.62292 5.01638 3.79899 6.60016 3.35963 8.23562L4.23135 8.1116L9.09909 7.3011L9.4749 6.91303C11.6402 4.51191 15.3013 4.18888 17.8014 6.23185L18.6213 6.27492Z" fill="#EA4335"/>
<path d="M24.5224 8.1633C23.9629 6.08311 22.8144 4.21308 21.2174 2.78259L17.8014 6.23176C19.2438 7.42183 20.0656 9.21466 20.0304 11.0951V11.7073C21.7094 11.7073 23.0707 13.0817 23.0707 14.777C23.0707 16.4725 21.7094 17.8124 20.0304 17.8124H13.9413L13.3435 18.4677V22.1497L13.9413 22.7274H20.0304C24.3977 22.7617 27.9657 19.2493 27.9998 14.8395C28.0203 12.1666 26.7151 9.66082 24.5224 8.1633Z" fill="#4285F4"/>
<path d="M7.86082 22.7274H13.9413V17.8123H7.86082C7.42759 17.8122 7.00802 17.7182 6.61405 17.5365L5.75141 17.8037L3.30043 20.2613L3.08693 21.0977C4.46144 22.1457 6.13849 22.735 7.86082 22.7274Z" fill="#34A853"/>
<path d="M7.86089 6.78364C3.49344 6.80992 -0.0258115 10.4062 0.000219779 14.8159C0.0147667 17.2785 1.1538 19.5965 3.087 21.0977L6.61413 17.5364C5.08386 16.8384 4.40388 15.02 5.09524 13.475C5.78649 11.93 7.58745 11.2434 9.1175 11.9414C9.7918 12.2489 10.3318 12.7943 10.6364 13.475L14.1635 9.91375C12.6628 7.93284 10.3309 6.77469 7.86089 6.78364Z" fill="#FBBC05"/>
</g>
<defs>
<clipPath id="clip0_2_63">
<rect width="28" height="22.75" fill="white"/>
</clipPath>
</defs>
</svg>
