<svg width="24" height="15" viewBox="0 0 24 15" fill="none" xmlns="http://www.w3.org/2000/svg">
<path d="M6.76427 5.40873C6.76427 5.70059 6.7962 5.93723 6.85207 6.11077C6.91592 6.28431 6.99574 6.47362 7.10748 6.67871C7.14739 6.74182 7.16335 6.80492 7.16335 6.86014C7.16335 6.93902 7.11546 7.0179 7.0117 7.09678L6.50887 7.42808C6.43703 7.47541 6.3652 7.49908 6.30135 7.49908C6.22153 7.49908 6.14172 7.45964 6.0619 7.38864C5.95016 7.27032 5.85438 7.14411 5.77457 7.0179C5.69475 6.88381 5.61494 6.73393 5.52714 6.55251C4.90459 7.27821 4.1224 7.64106 3.18058 7.64106C2.51014 7.64106 1.97538 7.45175 1.58428 7.07312C1.19319 6.69449 0.993652 6.18965 0.993652 5.55861C0.993652 4.88812 1.2331 4.34384 1.71997 3.93366C2.20684 3.52348 2.85334 3.31839 3.67544 3.31839C3.94681 3.31839 4.22616 3.34205 4.52147 3.38149C4.81679 3.42094 5.12009 3.48404 5.43935 3.55503V2.9792C5.43935 2.37971 5.31164 1.96164 5.06422 1.71711C4.80881 1.47258 4.37781 1.35426 3.76323 1.35426C3.48388 1.35426 3.19655 1.38581 2.90123 1.4568C2.60591 1.52779 2.31858 1.61456 2.03923 1.725C1.91152 1.78021 1.81575 1.81177 1.75988 1.82754C1.70401 1.84332 1.6641 1.85121 1.63217 1.85121C1.52043 1.85121 1.46456 1.77233 1.46456 1.60668V1.22016C1.46456 1.09395 1.48052 0.999293 1.52043 0.944076C1.56034 0.888859 1.63217 0.833643 1.74391 0.778426C2.02327 0.636441 2.35849 0.518119 2.74958 0.423462C3.14068 0.320917 3.55571 0.273589 3.9947 0.273589C4.94449 0.273589 5.63888 0.486567 6.08585 0.912524C6.52483 1.33848 6.74831 1.9853 6.74831 2.85299V5.40873H6.76427ZM3.52379 6.60772C3.78718 6.60772 4.05855 6.56039 4.34588 6.46574C4.63322 6.37108 4.88862 6.19754 5.10412 5.9609C5.23183 5.81103 5.32761 5.64538 5.37549 5.45606C5.42338 5.26675 5.45531 5.03799 5.45531 4.7698V4.4385C5.22385 4.38328 4.97642 4.33595 4.72101 4.3044C4.4656 4.27285 4.21818 4.25707 3.97075 4.25707C3.43599 4.25707 3.0449 4.35962 2.78151 4.5726C2.51812 4.78557 2.39041 5.08532 2.39041 5.47973C2.39041 5.85047 2.48619 6.12655 2.68573 6.31586C2.87729 6.51306 3.15664 6.60772 3.52379 6.60772ZM9.93293 7.45964C9.78926 7.45964 9.69348 7.43597 9.62963 7.38075C9.56578 7.33343 9.50991 7.22299 9.46202 7.07312L7.58637 0.975628C7.53848 0.817867 7.51454 0.715321 7.51454 0.660105C7.51454 0.533895 7.57839 0.462903 7.70609 0.462903H8.48828C8.63993 0.462903 8.74369 0.486567 8.79956 0.541784C8.86341 0.589112 8.9113 0.699545 8.95919 0.849419L10.3001 6.07133L11.5452 0.849419C11.5851 0.691657 11.633 0.589112 11.6968 0.541784C11.7607 0.494455 11.8724 0.462903 12.0161 0.462903H12.6546C12.8063 0.462903 12.91 0.486567 12.9739 0.541784C13.0377 0.589112 13.0936 0.699545 13.1255 0.849419L14.3866 6.13444L15.7674 0.849419C15.8153 0.691657 15.8712 0.589112 15.927 0.541784C15.9909 0.494455 16.0946 0.462903 16.2383 0.462903H16.9806C17.1083 0.462903 17.1801 0.526007 17.1801 0.660105C17.1801 0.699545 17.1721 0.738986 17.1642 0.786314C17.1562 0.833643 17.1402 0.896747 17.1083 0.983516L15.1848 7.08101C15.1369 7.23877 15.081 7.34131 15.0171 7.38864C14.9533 7.43597 14.8495 7.46752 14.7138 7.46752H14.0274C13.8758 7.46752 13.772 7.44386 13.7082 7.38864C13.6443 7.33343 13.5885 7.23088 13.5565 7.07312L12.3194 1.9853L11.0902 7.06523C11.0503 7.22299 11.0024 7.32554 10.9386 7.38075C10.8747 7.43597 10.763 7.45964 10.6193 7.45964H9.93293ZM20.1892 7.67261C19.7741 7.67261 19.3591 7.62529 18.96 7.53063C18.5609 7.43597 18.2496 7.33343 18.0421 7.2151C17.9144 7.14411 17.8266 7.06523 17.7947 6.99424C17.7628 6.92325 17.7468 6.84436 17.7468 6.77337V6.37108C17.7468 6.20543 17.8107 6.12655 17.9304 6.12655C17.9783 6.12655 18.0262 6.13444 18.0741 6.15021C18.1219 6.16599 18.1938 6.19754 18.2736 6.22909C18.545 6.34741 18.8403 6.44207 19.1516 6.50518C19.4708 6.56828 19.7821 6.59983 20.1014 6.59983C20.6042 6.59983 20.9953 6.51306 21.2667 6.33953C21.538 6.16599 21.6817 5.91357 21.6817 5.59016C21.6817 5.36929 21.6099 5.18787 21.4662 5.03799C21.3225 4.88812 21.0512 4.75402 20.6601 4.62781L19.5027 4.27285C18.9201 4.09142 18.4891 3.82323 18.2257 3.46826C17.9623 3.12119 17.8266 2.73467 17.8266 2.32449C17.8266 1.99319 17.8985 1.70133 18.0421 1.44891C18.1858 1.19649 18.3774 0.975628 18.6168 0.80209C18.8562 0.620664 19.1276 0.486567 19.4469 0.39191C19.7661 0.297253 20.1014 0.257812 20.4525 0.257812C20.6281 0.257812 20.8117 0.265701 20.9873 0.289365C21.1709 0.313029 21.3385 0.344581 21.5061 0.376134C21.6657 0.415574 21.8174 0.455015 21.961 0.502343C22.1047 0.549672 22.2165 0.597 22.2963 0.644329C22.408 0.707433 22.4878 0.770538 22.5357 0.841531C22.5836 0.904635 22.6075 0.991405 22.6075 1.10184V1.47258C22.6075 1.63823 22.5437 1.725 22.424 1.725C22.3601 1.725 22.2564 1.69344 22.1207 1.63034C21.6657 1.42525 21.1549 1.3227 20.5882 1.3227C20.1333 1.3227 19.7741 1.3937 19.5267 1.54357C19.2793 1.69344 19.1516 1.9222 19.1516 2.24561C19.1516 2.46648 19.2314 2.65579 19.391 2.80566C19.5506 2.95554 19.8459 3.10541 20.269 3.23951L21.4023 3.59447C21.977 3.7759 22.392 4.02832 22.6395 4.35173C22.8869 4.67514 23.0066 5.04588 23.0066 5.45606C23.0066 5.79525 22.9348 6.10288 22.7991 6.37108C22.6554 6.63927 22.4639 6.87592 22.2165 7.06523C21.969 7.26243 21.6737 7.40442 21.3305 7.50696C20.9713 7.6174 20.5962 7.67261 20.1892 7.67261Z" fill="#252F3E"/>
<path fill-rule="evenodd" clip-rule="evenodd" d="M21.6977 11.5064C19.0718 13.4232 15.2567 14.4408 11.9763 14.4408C7.37892 14.4408 3.23653 12.7606 0.10778 9.96824C-0.139647 9.74737 0.0838353 9.44763 0.379151 9.62116C3.76331 11.5616 7.93763 12.737 12.2556 12.737C15.1689 12.737 18.3694 12.1375 21.3146 10.9069C21.7536 10.7097 22.1287 11.1909 21.6977 11.5064Z" fill="#FF9900"/>
<path fill-rule="evenodd" clip-rule="evenodd" d="M22.7914 10.276C22.4562 9.85008 20.5725 10.0709 19.7185 10.1735C19.4631 10.205 19.4232 9.98417 19.6547 9.81853C21.1552 8.7773 23.6215 9.07705 23.9088 9.42412C24.1961 9.77908 23.829 12.2165 22.4242 13.3839C22.2087 13.5654 22.0012 13.4707 22.097 13.2341C22.4163 12.4531 23.1266 10.6941 22.7914 10.276Z" fill="#FF9900"/>
</svg>
