<svg width="24" height="24" viewBox="0 0 24 24" fill="none" xmlns="http://www.w3.org/2000/svg">
<g clip-path="url(#clip0_3163_4621)">
<path fill-rule="evenodd" clip-rule="evenodd" d="M13.2001 0.173503L12.7067 6.2535C12.4734 6.22684 12.2401 6.2135 12.0001 6.2135C11.7001 6.2135 11.4067 6.2335 11.1201 6.28017L10.8401 3.3335C10.8334 3.24017 10.9067 3.16017 11.0001 3.16017H11.5001L11.2601 0.180169C11.2534 0.086836 11.3267 0.00683594 11.4134 0.00683594H13.0467C13.1401 0.00683594 13.2134 0.086836 13.2001 0.180169V0.173503ZM9.08006 0.473503C9.0534 0.386836 8.96006 0.333503 8.8734 0.366836L7.34007 0.926836C7.2534 0.960169 7.2134 1.06017 7.2534 1.14017L8.50006 3.86017L8.02673 4.0335C7.94006 4.06684 7.90006 4.16684 7.94006 4.24684L9.2134 6.92017C9.6734 6.66684 10.1734 6.4735 10.7001 6.3535L9.08673 0.473503H9.08006ZM5.32007 2.16684L8.84673 7.14017C8.40007 7.4335 7.9934 7.78017 7.64673 8.18017L5.5334 6.10017C5.46673 6.0335 5.4734 5.92684 5.54007 5.86684L5.92673 5.54684L3.82673 3.42017C3.76007 3.3535 3.76673 3.24684 3.84007 3.18684L5.08673 2.14017C5.16007 2.08017 5.26007 2.0935 5.3134 2.16684H5.32007ZM2.36007 5.04684C2.28673 4.9935 2.18007 5.02017 2.1334 5.10017L1.32007 6.5135C1.2734 6.5935 1.30673 6.6935 1.38673 6.7335L4.0934 8.0135L3.84007 8.44684C3.7934 8.52684 3.82673 8.6335 3.9134 8.66684L6.60673 9.90017C6.80007 9.40017 7.06006 8.9335 7.38006 8.5135L2.36007 5.04684ZM0.366732 8.88684C0.380066 8.7935 0.473399 8.74017 0.560066 8.76017L6.46006 10.3002C6.30673 10.8002 6.22007 11.3268 6.20673 11.8735L3.2534 11.6335C3.16007 11.6268 3.0934 11.5402 3.1134 11.4468L3.20007 10.9535L0.220066 10.6735C0.126732 10.6668 0.0667322 10.5802 0.0800655 10.4868L0.360066 8.88017L0.366732 8.88684ZM0.146732 12.8735C0.0533989 12.8802 -0.00660111 12.9668 0.00673222 13.0602L0.293399 14.6668C0.306732 14.7602 0.400066 14.8135 0.486732 14.7935L3.38007 14.0402L3.46673 14.5335C3.48007 14.6268 3.5734 14.6802 3.66007 14.6602L6.5134 13.8735C6.34673 13.3802 6.24007 12.8535 6.2134 12.3135L0.140066 12.8735H0.146732ZM1.0934 17.1002C1.04673 17.0202 1.08007 16.9202 1.16007 16.8802L6.66673 14.2668C6.8734 14.7602 7.1534 15.2202 7.48673 15.6335L5.0734 17.3535C5.00007 17.4068 4.8934 17.3868 4.84673 17.3068L4.5934 16.8668L2.1334 18.5668C2.06007 18.6202 1.9534 18.5935 1.90673 18.5135L1.08673 17.1002H1.0934ZM7.76673 15.9535L3.48007 20.2935C3.4134 20.3602 3.42007 20.4668 3.4934 20.5268L4.74673 21.5735C4.82007 21.6335 4.92007 21.6202 4.9734 21.5468L6.70673 19.1068L7.0934 19.4335C7.16673 19.4935 7.2734 19.4802 7.32673 19.4002L9.00673 16.9602C8.5534 16.6802 8.1334 16.3402 7.7734 15.9535H7.76673ZM6.92006 22.9202C6.8334 22.8868 6.7934 22.7868 6.8334 22.7068L9.3734 17.1602C9.84007 17.4002 10.3467 17.5802 10.8734 17.6802L10.1267 20.5468C10.1067 20.6335 10.0067 20.6868 9.92006 20.6535L9.44673 20.4802L8.6534 23.3668C8.62673 23.4535 8.5334 23.5068 8.44673 23.4735L6.9134 22.9135L6.92006 22.9202ZM11.2934 17.7535L10.8001 23.8335C10.7934 23.9268 10.8667 24.0068 10.9534 24.0068H12.5867C12.6801 24.0068 12.7534 23.9268 12.7401 23.8335L12.5001 20.8535H13.0001C13.0934 20.8535 13.1667 20.7735 13.1601 20.6802L12.8801 17.7335C12.5934 17.7802 12.3001 17.8002 12.0001 17.8002C11.7601 17.8002 11.5267 17.7868 11.2934 17.7535ZM17.1734 1.2935C17.2134 1.20684 17.1734 1.1135 17.0867 1.08017L15.5534 0.520169C15.4667 0.486836 15.3734 0.540169 15.3467 0.626836L14.5534 3.5135L14.0801 3.34017C13.9934 3.30684 13.9001 3.36017 13.8734 3.44684L13.1267 6.3135C13.6601 6.42017 14.1601 6.60017 14.6267 6.8335L17.1734 1.2935ZM20.5201 3.7135L16.2334 8.0535C15.8734 7.66684 15.4601 7.32684 15.0001 7.04684L16.6801 4.60684C16.7334 4.5335 16.8401 4.5135 16.9134 4.5735L17.3001 4.90017L19.0334 2.46017C19.0867 2.38684 19.1934 2.3735 19.2601 2.4335L20.5134 3.48017C20.5867 3.54017 20.5867 3.64684 20.5267 3.7135H20.5201ZM22.8401 7.12684C22.9267 7.08684 22.9534 6.98684 22.9067 6.90684L22.0867 5.4935C22.0401 5.4135 21.9334 5.3935 21.8601 5.44017L19.4001 7.14017L19.1467 6.70684C19.1001 6.62684 18.9934 6.60017 18.9201 6.66017L16.5067 8.38017C16.8401 8.7935 17.1134 9.2535 17.3267 9.74684L22.8334 7.1335L22.8401 7.12684ZM23.7067 9.34017L23.9867 10.9468C24.0001 11.0402 23.9401 11.1202 23.8467 11.1335L17.7734 11.7002C17.7467 11.1535 17.6401 10.6335 17.4734 10.1402L20.3267 9.3535C20.4134 9.32684 20.5067 9.38684 20.5201 9.48017L20.6067 9.9735L23.5001 9.22017C23.5867 9.20017 23.6801 9.2535 23.6934 9.34684L23.7067 9.34017ZM23.4334 15.2402C23.5201 15.2602 23.6134 15.2068 23.6267 15.1135L23.9067 13.5068C23.9201 13.4135 23.8601 13.3335 23.7667 13.3202L20.7867 13.0402L20.8734 12.5468C20.8867 12.4535 20.8267 12.3735 20.7334 12.3602L17.7801 12.1202C17.7667 12.6668 17.6801 13.1935 17.5267 13.6935L23.4267 15.2335L23.4334 15.2402ZM21.8601 18.9068C21.8134 18.9868 21.7067 19.0068 21.6334 18.9602L16.6134 15.4935C16.9334 15.0735 17.1934 14.6068 17.3867 14.1068L20.0801 15.3402C20.1667 15.3802 20.2001 15.4802 20.1534 15.5602L19.9001 15.9935L22.6067 17.2735C22.6867 17.3135 22.7201 17.4135 22.6734 17.4935L21.8601 18.9068ZM15.1467 16.8602L18.6734 21.8335C18.7267 21.9068 18.8334 21.9202 18.9001 21.8602L20.1467 20.8135C20.2201 20.7535 20.2201 20.6468 20.1601 20.5802L18.0601 18.4535L18.4467 18.1335C18.5201 18.0735 18.5201 17.9668 18.4534 17.9002L16.3401 15.8202C15.9867 16.2202 15.5867 16.5735 15.1401 16.8602H15.1467ZM15.1134 23.6335C15.0267 23.6668 14.9334 23.6135 14.9067 23.5268L13.2934 17.6468C13.8201 17.5268 14.3201 17.3335 14.7801 17.0802L16.0534 19.7535C16.0934 19.8402 16.0534 19.9402 15.9667 19.9668L15.4934 20.1402L16.7401 22.8602C16.7801 22.9468 16.7401 23.0402 16.6534 23.0735L15.1201 23.6335H15.1134Z" fill="#191919"/>
</g>
<defs>
<clipPath id="clip0_3163_4621">
<rect width="24" height="24" fill="white"/>
</clipPath>
</defs>
</svg>
