<svg xmlns="http://www.w3.org/2000/svg" width="56" height="56" fill="none"><mask id="a" width="50" height="44" x="3" y="7" maskUnits="userSpaceOnUse" style="mask-type:luminance"><path fill="#fff" d="M52.876 7.438H3.938V50.05h48.938z"/></mask><g mask="url(#a)"><path stroke="#153385" stroke-miterlimit="10" d="M7.131 9.896h11.813M6.151 21.184h10.085M7.844 32.471h11.813m-10.92-5.643h8.601M7.844 15.54h7.24"/><path fill="#153385" d="M48.593 7.678H17.058a2.435 2.435 0 0 0-2.437 2.437V34.09a2.435 2.435 0 0 0 2.437 2.437h31.535a2.435 2.435 0 0 0 2.437-2.437V10.115a2.435 2.435 0 0 0-2.437-2.437"/><path stroke="#101c3f" stroke-miterlimit="10" d="M48.593 7.678H17.058a2.435 2.435 0 0 0-2.437 2.437V34.09a2.435 2.435 0 0 0 2.437 2.437h31.535a2.435 2.435 0 0 0 2.437-2.437V10.115a2.435 2.435 0 0 0-2.437-2.437Z"/><path fill="#0b64dd" d="M49.656 7.656H18.121a2.435 2.435 0 0 0-2.436 2.437v23.975a2.435 2.435 0 0 0 2.436 2.437h31.535a2.435 2.435 0 0 0 2.437-2.437V10.093a2.435 2.435 0 0 0-2.437-2.437"/><path stroke="#fff" stroke-miterlimit="10" d="M52.093 21.136c-2.58.796-2.765 7.052-5.696 7.052-3.128 0-3.128-7.135-6.256-7.135s-3.128 7.135-6.256 7.135-3.129-11.17-6.257-11.17-3.128 11.17-6.256 11.17c-2.927 0-3.115-6.243-5.687-7.048"/><path stroke="#101c3f" stroke-miterlimit="10" d="M49.656 7.656H18.121a2.435 2.435 0 0 0-2.436 2.437v23.975a2.435 2.435 0 0 0 2.436 2.437h31.535a2.435 2.435 0 0 0 2.437-2.437V10.093a2.435 2.435 0 0 0-2.437-2.437ZM15.71 13.764h36.304"/><path fill="#fff" d="M23.7 10.194h-4.11a.83.83 0 0 0-.827.827c0 .455.372.826.827.826h4.108a.83.83 0 0 0 .827-.826.83.83 0 0 0-.827-.827"/><path stroke="#101c3f" stroke-miterlimit="10" d="M18.764 33.832h10.88m-10.88-2.104h4.594"/><path fill="#153385" stroke="#101c3f" stroke-miterlimit="10" d="M4.156 49.831V47.85c0-9.795 7.972-17.766 17.767-17.766 9.796 0 17.767 7.97 17.767 17.766v1.982z"/><path fill="#48efcf" stroke="#101c3f" stroke-miterlimit="10" d="M6.138 49.831V47.85c0-9.795 7.971-17.766 17.767-17.766s17.767 7.97 17.767 17.766v1.982z"/><path fill="#101c3f" d="M8.12 47.85c0-8.72 7.066-15.786 15.785-15.786S39.69 39.13 39.69 47.85z"/><path stroke="#101c3f" stroke-miterlimit="10" d="M38.53 47.85h1.16c0-8.72-7.065-15.786-15.785-15.786-2.787 0-5.403.727-7.674 1.991a15.7 15.7 0 0 1 6.528-1.413c8.527 0 15.466 6.755 15.772 15.207Z"/><path fill="#fff" stroke="#101c3f" stroke-miterlimit="10" d="M8.12 47.85h30.41c-.306-8.453-7.244-15.208-15.771-15.208a15.7 15.7 0 0 0-6.528 1.413c-4.838 2.695-8.11 7.862-8.11 13.794Z"/><path fill="#48efcf" stroke="#101c3f" stroke-miterlimit="10" d="m17.99 45.014-.958-1.903 13.93-6.081.372.788z"/><path fill="#101c3f" stroke="#101c3f" stroke-miterlimit="10" d="M23.433 39.974a.957.957 0 1 0 1.321 1.172.957.957 0 0 0-1.321-1.172Z"/><path fill="#101c3f" d="m24.028 39.795.45.153-.713 1.951-.538-.183z"/><path fill="#101c3f" stroke="#101c3f" stroke-miterlimit="10" d="M24.933 41.213c.17-.5-.03-1.024-.455-1.169-.424-.144-.905.14-1.076.644-.17.498.03 1.023.455 1.168.424.144.906-.14 1.076-.644Z"/></g></svg>
