<svg width="251" height="139" viewBox="0 0 251 139" fill="none" xmlns="http://www.w3.org/2000/svg">
<g clip-path="url(#clip0_3118_38848)">
<g style="mix-blend-mode:multiply">
<mask id="mask0_3118_38848" style="mask-type:luminance" maskUnits="userSpaceOnUse" x="0" y="0" width="300" height="222">
<path d="M299.5 0.5V220.66H0.5L0.5 0.5L299.5 0.5Z" fill="white" stroke="white"/>
</mask>
<g mask="url(#mask0_3118_38848)">
<path d="M297.924 107.922L299.247 122.25C299.247 122.253 299.247 122.256 299.247 122.259C299.247 122.282 299.246 122.318 299.245 122.366C299.243 122.462 299.237 122.607 299.227 122.795C299.205 123.172 299.161 123.726 299.073 124.425C298.897 125.824 298.542 127.802 297.828 130.107C296.4 134.718 293.539 140.631 287.8 145.844C282.038 151.077 274.087 155.357 267.55 158.334C264.286 159.82 261.384 160.978 259.299 161.764C258.256 162.156 257.419 162.456 256.842 162.657C256.553 162.758 256.33 162.834 256.18 162.885C256.112 162.908 256.058 162.925 256.021 162.938H248.333L246.931 148.601C246.964 148.596 246.999 148.592 247.035 148.588C247.409 148.541 247.946 148.474 248.596 148.393C249.895 148.231 251.645 148.015 253.448 147.799C255.252 147.583 257.109 147.367 258.621 147.205C260.149 147.042 261.289 146.938 261.688 146.938C261.834 146.938 261.978 146.893 262.087 146.852C262.207 146.806 262.342 146.743 262.484 146.669C262.77 146.52 263.124 146.307 263.531 146.042C264.348 145.511 265.415 144.752 266.645 143.833C269.106 141.993 272.245 139.491 275.397 136.843C278.549 134.194 281.721 131.393 284.246 128.95C285.508 127.729 286.615 126.593 287.478 125.607C288.331 124.633 288.978 123.771 289.288 123.103C289.881 121.825 290.288 119.678 290.577 117.244C290.869 114.79 291.047 111.975 291.155 109.319C291.264 106.662 291.302 104.156 291.313 102.314C291.318 101.65 291.316 101.071 291.315 100.604L297.924 107.922Z" fill="white" stroke="#F7E0EE"/>
<path d="M3.60547 105.881C3.75443 106.08 3.97046 106.375 4.23633 106.757C4.76839 107.521 5.49895 108.631 6.29004 110.009C7.87407 112.768 9.69127 116.587 10.6465 120.852C11.1705 123.19 13.0606 125.331 15.4736 127.207C17.9024 129.095 20.9415 130.777 23.8984 132.177C26.8587 133.578 29.7552 134.707 31.9102 135.484C32.9881 135.873 33.8821 136.175 34.5068 136.38C34.7633 136.464 34.9747 136.53 35.1348 136.581V149.876H30.7881C8.17484 142.31 2.77864 128.229 1.55469 123.316C1.33185 122.42 1.21233 121.502 1.18555 120.574V120.573L0.763672 106.639L3.57812 105.845C3.58687 105.856 3.5962 105.868 3.60547 105.881Z" fill="white" stroke="#F7E0EE"/>
<path d="M42.9386 64.4503C42.9386 64.4503 2.48759 71.8542 0.320751 104.822C-1.18519 127.743 22.4306 137.475 32.0615 140.583C32.0615 140.583 15.5845 200.384 96.6934 210.283C154.966 217.397 180.242 185.876 180.242 185.876C180.242 185.876 215.188 198.893 236.726 185.11C258.263 171.324 255.248 151.869 255.248 151.869C255.248 151.869 287.554 142.462 296.603 118.77C305.648 95.0774 278.511 81.6419 263.865 75.6558C263.865 75.6558 279.84 34.363 231.988 15.5947C165.709 -10.3983 119.078 30.0115 119.078 30.0115C119.078 30.0115 97.5308 15.2946 66.0221 28.4601C37.6968 40.2962 42.9386 64.4503 42.9386 64.4503Z" fill="white" stroke="#F7E0EE" stroke-miterlimit="10"/>
<mask id="path-5-inside-1_3118_38848" fill="white">
<path d="M113.397 211.577C107.951 211.577 102.366 211.229 96.6629 210.533C68.7715 207.13 49.3305 197.493 38.8797 181.891C32.1219 171.801 30.5604 161.092 30.4419 153.882C30.3284 146.978 31.4786 141.877 31.7586 140.747C26.2419 138.949 18.3893 135.694 11.856 130.324C3.38036 123.359 -0.585027 114.772 0.070826 104.802C0.567761 97.232 3.13316 90.3831 7.69639 84.4474C11.3414 79.7049 16.2603 75.535 22.3194 72.0513C31.7258 66.6403 41.0238 64.5793 42.6483 64.2488C42.4339 63.0203 41.6519 57.4554 43.6195 50.8184C45.6703 43.9064 51.2047 34.376 65.9286 28.2233C82.2669 21.3971 95.8809 22.1842 104.422 24.0484C112.807 25.8773 118.092 29.0734 119.06 29.694C120.473 28.5159 132.021 19.1974 150.597 12.8126C162.2 8.82439 174.24 6.74323 186.381 6.62467C201.554 6.48088 216.931 9.41468 232.079 15.3554C243.034 19.6515 251.538 25.4989 257.352 32.7338C262.009 38.5282 264.957 45.2182 266.12 52.6195C267.931 64.1706 264.753 73.9003 264.186 75.5098C275.322 80.0808 283.536 84.9494 289.292 90.3857C298.275 98.8692 300.812 108.448 296.839 118.856C292.14 131.164 281.096 139.551 272.659 144.418C264.339 149.218 256.85 151.635 255.526 152.043C255.642 153.07 256.01 157.598 254.305 163.385C252.524 169.437 248.052 178.153 236.862 185.317C225.672 192.479 210.842 192.309 200.374 190.907C189.908 189.504 181.593 186.624 180.322 186.169C179.396 187.262 172.944 194.539 160.435 200.967C152.514 205.036 143.748 207.98 134.377 209.713C127.682 210.952 120.667 211.572 113.397 211.572V211.577ZM92.0997 23.2563C84.7819 23.2563 75.948 24.5857 66.1203 28.695C51.5906 34.767 46.1319 44.1461 44.1089 50.9445C41.9143 58.3181 43.173 64.3396 43.1882 64.4002L43.2436 64.655L42.9863 64.7029C42.8854 64.7205 32.7853 66.6176 22.559 72.5028C16.563 75.9538 11.6946 80.0808 8.09242 84.7703C3.59477 90.6228 1.06722 97.3758 0.575329 104.843C-0.0679122 114.641 3.83442 123.086 12.1789 129.943C18.7425 135.336 26.6581 138.578 32.1421 140.349L32.3716 140.422L32.3085 140.654C32.2934 140.707 30.8203 146.158 30.9514 153.9C31.0725 161.037 32.6188 171.639 39.3085 181.621C49.6735 197.092 68.9935 206.651 96.7285 210.036C109.987 211.655 122.617 211.383 134.271 209.229C143.592 207.506 152.31 204.582 160.185 200.538C173.595 193.654 179.989 185.799 180.052 185.72L180.166 185.579L180.337 185.642C180.425 185.675 189.186 188.906 200.459 190.415C210.842 191.805 225.538 191.977 236.597 184.898C242.696 180.996 250.635 174.073 253.821 163.274C255.728 156.811 255.014 151.958 255.006 151.907L254.973 151.688L255.185 151.625C255.266 151.602 263.348 149.218 272.424 143.979C280.786 139.153 291.729 130.843 296.375 118.679C302.833 101.765 291.865 87.3686 263.779 75.8882L263.55 75.7948L263.638 75.5628C263.679 75.4593 267.588 65.1393 265.626 52.6801C264.476 45.3721 261.56 38.7653 256.959 33.044C251.202 25.8849 242.772 20.0929 231.902 15.8297C216.82 9.91416 201.516 6.99045 186.409 7.13424C174.324 7.25028 162.339 9.32135 150.788 13.2869C131.113 20.045 119.368 30.1001 119.249 30.2011L119.103 30.3272L118.942 30.2187C118.889 30.1809 113.47 26.5357 104.294 24.5378C100.961 23.8138 96.8521 23.2538 92.1047 23.2538L92.0997 23.2563Z"/>
</mask>
<path d="M113.397 211.577C107.951 211.577 102.366 211.229 96.6629 210.533C68.7715 207.13 49.3305 197.493 38.8797 181.891C32.1219 171.801 30.5604 161.092 30.4419 153.882C30.3284 146.978 31.4786 141.877 31.7586 140.747C26.2419 138.949 18.3893 135.694 11.856 130.324C3.38036 123.359 -0.585027 114.772 0.070826 104.802C0.567761 97.232 3.13316 90.3831 7.69639 84.4474C11.3414 79.7049 16.2603 75.535 22.3194 72.0513C31.7258 66.6403 41.0238 64.5793 42.6483 64.2488C42.4339 63.0203 41.6519 57.4554 43.6195 50.8184C45.6703 43.9064 51.2047 34.376 65.9286 28.2233C82.2669 21.3971 95.8809 22.1842 104.422 24.0484C112.807 25.8773 118.092 29.0734 119.06 29.694C120.473 28.5159 132.021 19.1974 150.597 12.8126C162.2 8.82439 174.24 6.74323 186.381 6.62467C201.554 6.48088 216.931 9.41468 232.079 15.3554C243.034 19.6515 251.538 25.4989 257.352 32.7338C262.009 38.5282 264.957 45.2182 266.12 52.6195C267.931 64.1706 264.753 73.9003 264.186 75.5098C275.322 80.0808 283.536 84.9494 289.292 90.3857C298.275 98.8692 300.812 108.448 296.839 118.856C292.14 131.164 281.096 139.551 272.659 144.418C264.339 149.218 256.85 151.635 255.526 152.043C255.642 153.07 256.01 157.598 254.305 163.385C252.524 169.437 248.052 178.153 236.862 185.317C225.672 192.479 210.842 192.309 200.374 190.907C189.908 189.504 181.593 186.624 180.322 186.169C179.396 187.262 172.944 194.539 160.435 200.967C152.514 205.036 143.748 207.98 134.377 209.713C127.682 210.952 120.667 211.572 113.397 211.572V211.577ZM92.0997 23.2563C84.7819 23.2563 75.948 24.5857 66.1203 28.695C51.5906 34.767 46.1319 44.1461 44.1089 50.9445C41.9143 58.3181 43.173 64.3396 43.1882 64.4002L43.2436 64.655L42.9863 64.7029C42.8854 64.7205 32.7853 66.6176 22.559 72.5028C16.563 75.9538 11.6946 80.0808 8.09242 84.7703C3.59477 90.6228 1.06722 97.3758 0.575329 104.843C-0.0679122 114.641 3.83442 123.086 12.1789 129.943C18.7425 135.336 26.6581 138.578 32.1421 140.349L32.3716 140.422L32.3085 140.654C32.2934 140.707 30.8203 146.158 30.9514 153.9C31.0725 161.037 32.6188 171.639 39.3085 181.621C49.6735 197.092 68.9935 206.651 96.7285 210.036C109.987 211.655 122.617 211.383 134.271 209.229C143.592 207.506 152.31 204.582 160.185 200.538C173.595 193.654 179.989 185.799 180.052 185.72L180.166 185.579L180.337 185.642C180.425 185.675 189.186 188.906 200.459 190.415C210.842 191.805 225.538 191.977 236.597 184.898C242.696 180.996 250.635 174.073 253.821 163.274C255.728 156.811 255.014 151.958 255.006 151.907L254.973 151.688L255.185 151.625C255.266 151.602 263.348 149.218 272.424 143.979C280.786 139.153 291.729 130.843 296.375 118.679C302.833 101.765 291.865 87.3686 263.779 75.8882L263.55 75.7948L263.638 75.5628C263.679 75.4593 267.588 65.1393 265.626 52.6801C264.476 45.3721 261.56 38.7653 256.959 33.044C251.202 25.8849 242.772 20.0929 231.902 15.8297C216.82 9.91416 201.516 6.99045 186.409 7.13424C174.324 7.25028 162.339 9.32135 150.788 13.2869C131.113 20.045 119.368 30.1001 119.249 30.2011L119.103 30.3272L118.942 30.2187C118.889 30.1809 113.47 26.5357 104.294 24.5378C100.961 23.8138 96.8521 23.2538 92.1047 23.2538L92.0997 23.2563Z" fill="#7BECD1"/>
<path d="M113.397 211.577V212.577H114.397V211.577H113.397ZM96.6629 210.533L96.7841 209.54L96.784 209.54L96.6629 210.533ZM38.8797 181.891L38.0488 182.448L38.0489 182.448L38.8797 181.891ZM30.4419 153.882L29.442 153.899L29.442 153.899L30.4419 153.882ZM31.7586 140.747L32.7293 140.988L32.953 140.085L32.0686 139.796L31.7586 140.747ZM11.856 130.324L12.491 129.551L12.4909 129.551L11.856 130.324ZM0.070826 104.802L1.06867 104.868L1.06868 104.868L0.070826 104.802ZM7.69639 84.4474L8.48919 85.0569L8.48926 85.0568L7.69639 84.4474ZM22.3194 72.0513L22.8178 72.9182L22.818 72.9181L22.3194 72.0513ZM42.6483 64.2488L42.8477 65.2287L43.8006 65.0349L43.6334 64.0769L42.6483 64.2488ZM43.6195 50.8184L42.6608 50.534L42.6607 50.5342L43.6195 50.8184ZM65.9286 28.2233L65.5431 27.3006L65.543 27.3006L65.9286 28.2233ZM104.422 24.0484L104.209 25.0254L104.209 25.0254L104.422 24.0484ZM119.06 29.694L118.521 30.536L119.138 30.9314L119.701 30.462L119.06 29.694ZM150.597 12.8126L150.272 11.867L150.272 11.867L150.597 12.8126ZM186.381 6.62467L186.372 5.62471L186.371 5.62472L186.381 6.62467ZM232.079 15.3554L231.714 16.2864L231.714 16.2864L232.079 15.3554ZM257.352 32.7338L258.132 32.1073L258.132 32.1073L257.352 32.7338ZM266.12 52.6195L267.108 52.4646L267.108 52.4643L266.12 52.6195ZM264.186 75.5098L263.242 75.1772L262.926 76.0739L263.806 76.4349L264.186 75.5098ZM289.292 90.3857L289.979 89.6586L289.979 89.6586L289.292 90.3857ZM296.839 118.856L297.774 119.213L297.774 119.213L296.839 118.856ZM272.659 144.418L272.159 143.551L272.159 143.551L272.659 144.418ZM255.526 152.043L255.231 151.088L254.439 151.332L254.532 152.156L255.526 152.043ZM254.305 163.385L253.346 163.103L253.346 163.103L254.305 163.385ZM236.862 185.317L237.401 186.159L237.401 186.159L236.862 185.317ZM200.374 190.907L200.241 191.898L200.241 191.898L200.374 190.907ZM180.322 186.169L180.658 185.228L180.007 184.995L179.559 185.523L180.322 186.169ZM160.435 200.967L160.892 201.857L160.892 201.857L160.435 200.967ZM134.377 209.713L134.195 208.73L134.195 208.73L134.377 209.713ZM113.397 211.572V210.572H112.397V211.572H113.397ZM92.0997 23.2563V24.2563H92.3358L92.5469 24.1507L92.0997 23.2563ZM66.1203 28.695L66.5059 29.6177L66.5061 29.6176L66.1203 28.695ZM44.1089 50.9445L45.0673 51.2298L45.0673 51.2298L44.1089 50.9445ZM43.1882 64.4002L44.1652 64.1874L44.162 64.1725L44.1583 64.1576L43.1882 64.4002ZM43.2436 64.655L43.4268 65.638L44.4401 65.4493L44.2207 64.4422L43.2436 64.655ZM42.9863 64.7029L43.1587 65.688L43.1695 65.686L42.9863 64.7029ZM22.559 72.5028L22.0602 71.6361L22.0602 71.6361L22.559 72.5028ZM8.09242 84.7703L8.88532 85.3797L8.88546 85.3795L8.09242 84.7703ZM0.575329 104.843L-0.422509 104.777L-0.422523 104.777L0.575329 104.843ZM12.1789 129.943L12.8138 129.17L12.8137 129.17L12.1789 129.943ZM32.1421 140.349L31.8348 141.3L31.8384 141.301L32.1421 140.349ZM32.3716 140.422L33.3366 140.684L33.5877 139.76L32.6753 139.469L32.3716 140.422ZM32.3085 140.654L33.2701 140.929L33.2735 140.916L32.3085 140.654ZM30.9514 153.9L29.9516 153.917L29.9516 153.917L30.9514 153.9ZM39.3085 181.621L40.1393 181.065L40.1392 181.064L39.3085 181.621ZM96.7285 210.036L96.8497 209.043L96.8497 209.043L96.7285 210.036ZM134.271 209.229L134.089 208.245L134.089 208.245L134.271 209.229ZM160.185 200.538L159.728 199.649L159.728 199.649L160.185 200.538ZM180.052 185.72L180.831 186.348L180.832 186.347L180.052 185.72ZM180.166 185.579L180.511 184.641L179.836 184.393L179.386 184.953L180.166 185.579ZM180.337 185.642L180.685 184.705L180.682 184.704L180.337 185.642ZM200.459 190.415L200.592 189.424L200.592 189.424L200.459 190.415ZM236.597 184.898L236.058 184.056L236.058 184.056L236.597 184.898ZM253.821 163.274L252.861 162.991L252.861 162.991L253.821 163.274ZM255.006 151.907L254.017 152.055L254.017 152.056L255.006 151.907ZM254.973 151.688L254.688 150.729L253.856 150.977L253.984 151.836L254.973 151.688ZM255.185 151.625L254.914 150.662L254.907 150.664L254.9 150.666L255.185 151.625ZM272.424 143.979L271.924 143.113L271.924 143.113L272.424 143.979ZM296.375 118.679L297.31 119.036L297.31 119.036L296.375 118.679ZM263.779 75.8882L264.158 74.9625L264.156 74.9618L263.779 75.8882ZM263.55 75.7948L262.615 75.4393L262.268 76.3529L263.173 76.7212L263.55 75.7948ZM263.638 75.5628L262.707 75.1992L262.704 75.2072L263.638 75.5628ZM265.626 52.6801L264.638 52.8356L264.638 52.8357L265.626 52.6801ZM256.959 33.044L256.179 33.6707L256.179 33.6707L256.959 33.044ZM231.902 15.8297L231.537 16.7607L231.537 16.7607L231.902 15.8297ZM186.409 7.13424L186.399 6.13428L186.399 6.13428L186.409 7.13424ZM150.788 13.2869L150.464 12.3411L150.464 12.3411L150.788 13.2869ZM119.249 30.2011L118.601 29.4395L118.597 29.4436L119.249 30.2011ZM119.103 30.3272L118.545 31.1572L119.178 31.5826L119.756 31.0846L119.103 30.3272ZM118.942 30.2187L118.36 31.0324L118.372 31.0407L118.384 31.0487L118.942 30.2187ZM104.294 24.5378L104.506 23.5607L104.506 23.5606L104.294 24.5378ZM92.1047 23.2538V22.2538H91.8687L91.6575 22.3593L92.1047 23.2538ZM113.397 211.577V210.577C107.994 210.577 102.449 210.232 96.7841 209.54L96.6629 210.533L96.5417 211.526C102.283 212.226 107.909 212.577 113.397 212.577V211.577ZM96.6629 210.533L96.784 209.54C69.0362 206.155 49.9327 196.596 39.7105 181.335L38.8797 181.891L38.0489 182.448C48.7282 198.391 68.5068 208.105 96.5418 211.526L96.6629 210.533ZM38.8797 181.891L39.7106 181.335C33.0956 171.457 31.5584 160.959 31.4417 153.866L30.4419 153.882L29.442 153.899C29.5625 161.225 31.1481 172.144 38.0488 182.448L38.8797 181.891ZM30.4419 153.882L31.4417 153.866C31.3301 147.074 32.4627 142.064 32.7293 140.988L31.7586 140.747L30.788 140.507C30.4946 141.691 29.3267 146.882 29.442 153.899L30.4419 153.882ZM31.7586 140.747L32.0686 139.796C26.6074 138.016 18.8875 134.809 12.491 129.551L11.856 130.324L11.221 131.096C17.8911 136.579 25.8764 139.881 31.4487 141.698L31.7586 140.747ZM11.856 130.324L12.4909 129.551C4.23582 122.767 0.436276 114.481 1.06867 104.868L0.070826 104.802L-0.927017 104.737C-1.60633 115.063 2.52491 123.95 11.2211 131.096L11.856 130.324ZM0.070826 104.802L1.06868 104.868C1.55283 97.4923 4.0484 90.8333 8.48919 85.0569L7.69639 84.4474L6.90359 83.8379C2.21792 89.9329 -0.417306 96.9718 -0.927027 104.737L0.070826 104.802ZM7.69639 84.4474L8.48926 85.0568C12.0417 80.4347 16.8539 76.3472 22.8178 72.9182L22.3194 72.0513L21.8209 71.1843C15.6667 74.7228 10.6411 78.9751 6.90351 83.838L7.69639 84.4474ZM22.3194 72.0513L22.818 72.9181C32.0904 67.5842 41.2689 65.5499 42.8477 65.2287L42.6483 64.2488L42.449 63.2689C40.7787 63.6087 31.3613 65.6963 21.8208 71.1845L22.3194 72.0513ZM42.6483 64.2488L43.6334 64.0769C43.4332 62.9295 42.6712 57.5354 44.5782 51.1026L43.6195 50.8184L42.6607 50.5342C40.6326 57.3755 41.4347 63.1111 41.6632 64.4207L42.6483 64.2488ZM43.6195 50.8184L44.5782 51.1029C46.551 44.4536 51.891 35.173 66.3142 29.146L65.9286 28.2233L65.543 27.3006C50.5184 33.579 44.7895 43.3593 42.6608 50.534L43.6195 50.8184ZM65.9286 28.2233L66.3141 29.146C82.4316 22.4121 95.8319 23.197 104.209 25.0254L104.422 24.0484L104.635 23.0714C95.93 21.1713 82.1023 20.3821 65.5431 27.3006L65.9286 28.2233ZM104.422 24.0484L104.209 25.0254C112.447 26.8222 117.621 29.9596 118.521 30.536L119.06 29.694L119.6 28.852C118.562 28.1873 113.167 24.9324 104.635 23.0714L104.422 24.0484ZM119.06 29.694L119.701 30.462C121.058 29.3304 132.5 20.0902 150.922 13.7583L150.597 12.8126L150.272 11.867C131.542 18.3046 119.888 27.7015 118.42 28.926L119.06 29.694ZM150.597 12.8126L150.922 13.7583C162.425 9.80462 174.358 7.74213 186.391 7.62462L186.381 6.62467L186.371 5.62472C174.122 5.74434 161.976 7.84416 150.272 11.867L150.597 12.8126ZM186.381 6.62467L186.391 7.62462C201.427 7.48213 216.677 10.3891 231.714 16.2864L232.079 15.3554L232.444 14.4245C217.186 8.44025 201.681 5.47963 186.372 5.62471L186.381 6.62467ZM232.079 15.3554L231.714 16.2864C242.55 20.5355 250.893 26.293 256.573 33.3602L257.352 32.7338L258.132 32.1073C252.182 24.7048 243.519 18.7674 232.444 14.4245L232.079 15.3554ZM257.352 32.7338L256.573 33.3602C261.119 39.0172 263.996 45.5444 265.132 52.7748L266.12 52.6195L267.108 52.4643C265.918 44.892 262.898 38.0392 258.132 32.1073L257.352 32.7338ZM266.12 52.6195L265.132 52.7745C266.906 64.0862 263.788 73.631 263.242 75.1772L264.186 75.5098L265.129 75.8424C265.719 74.1697 268.957 64.255 267.108 52.4646L266.12 52.6195ZM264.186 75.5098L263.806 76.4349C274.882 80.9809 282.972 85.7927 288.606 91.1127L289.292 90.3857L289.979 89.6586C284.099 84.1062 275.763 79.1806 264.565 74.5847L264.186 75.5098ZM289.292 90.3857L288.605 91.1127C292.995 95.2585 295.755 99.6192 296.958 104.155C298.158 108.683 297.827 113.465 295.905 118.499L296.839 118.856L297.774 119.213C299.825 113.839 300.212 108.627 298.891 103.643C297.572 98.6666 294.572 93.9963 289.979 89.6586L289.292 90.3857ZM296.839 118.856L295.905 118.499C291.33 130.481 280.534 138.722 272.159 143.551L272.659 144.418L273.158 145.284C281.659 140.381 292.95 131.846 297.774 119.213L296.839 118.856ZM272.659 144.418L272.159 143.551C263.929 148.3 256.518 150.691 255.231 151.088L255.526 152.043L255.821 152.999C257.182 152.579 264.749 150.136 273.158 145.284L272.659 144.418ZM255.526 152.043L254.532 152.156C254.639 153.099 255.001 157.484 253.346 163.103L254.305 163.385L255.264 163.668C257.019 157.713 256.645 153.042 256.519 151.931L255.526 152.043ZM254.305 163.385L253.346 163.103C251.623 168.956 247.283 177.457 236.322 184.475L236.862 185.317L237.401 186.159C248.82 178.848 253.425 169.918 255.264 163.667L254.305 163.385ZM236.862 185.317L236.323 184.475C225.446 191.436 210.923 191.311 200.506 189.916L200.374 190.907L200.241 191.898C210.761 193.308 225.898 193.521 237.401 186.159L236.862 185.317ZM200.374 190.907L200.506 189.916C190.138 188.526 181.898 185.67 180.658 185.228L180.322 186.169L179.986 187.111C181.289 187.577 189.677 190.482 200.241 191.898L200.374 190.907ZM180.322 186.169L179.559 185.523C178.694 186.544 172.34 193.725 159.978 200.078L160.435 200.967L160.892 201.857C173.547 195.354 180.099 187.979 181.085 186.816L180.322 186.169ZM160.435 200.967L159.978 200.078C152.149 204.099 143.477 207.013 134.195 208.73L134.377 209.713L134.559 210.696C144.019 208.947 152.878 205.973 160.892 201.857L160.435 200.967ZM134.377 209.713L134.195 208.73C127.564 209.956 120.61 210.572 113.397 210.572V211.572V212.572C120.724 212.572 127.8 211.947 134.559 210.696L134.377 209.713ZM113.397 211.572H112.397V211.577H113.397H114.397V211.572H113.397ZM92.0997 23.2563V22.2563C84.6577 22.2563 75.6919 23.6089 65.7345 27.7725L66.1203 28.695L66.5061 29.6176C76.2042 25.5625 84.906 24.2563 92.0997 24.2563V23.2563ZM66.1203 28.695L65.7347 27.7724C50.9054 33.9695 45.2518 43.5976 43.1504 50.6593L44.1089 50.9445L45.0673 51.2298C47.012 44.6946 52.2758 35.5645 66.5059 29.6177L66.1203 28.695ZM44.1089 50.9445L43.1504 50.6593C40.8903 58.2531 42.1736 64.4652 42.218 64.6427L43.1882 64.4002L44.1583 64.1576C44.1724 64.2141 42.9383 58.3831 45.0673 51.2298L44.1089 50.9445ZM43.1882 64.4002L42.2111 64.613L42.2665 64.8678L43.2436 64.655L44.2207 64.4422L44.1652 64.1874L43.1882 64.4002ZM43.2436 64.655L43.0605 63.6719L42.8032 63.7198L42.9863 64.7029L43.1695 65.686L43.4268 65.638L43.2436 64.655ZM42.9863 64.7029L42.8139 63.7179C42.6578 63.7452 32.4293 65.6686 22.0602 71.6361L22.559 72.5028L23.0578 73.3695C28.0916 70.4726 33.1027 68.553 36.8724 67.3556C38.7556 66.7574 40.3247 66.3408 41.4261 66.0732C42.5312 65.8048 43.1596 65.6878 43.1587 65.6879L42.9863 64.7029ZM22.559 72.5028L22.0602 71.6361C15.9694 75.1416 10.9942 79.3509 7.29937 84.1612L8.09242 84.7703L8.88546 85.3795C12.3949 80.8106 17.1566 76.7659 23.0579 73.3695L22.559 72.5028ZM8.09242 84.7703L7.29951 84.161C2.67939 90.1728 0.0821868 97.1157 -0.422509 104.777L0.575329 104.843L1.57317 104.909C2.05225 97.6359 4.51016 91.0727 8.88532 85.3797L8.09242 84.7703ZM0.575329 104.843L-0.422523 104.777C-1.0892 114.932 2.97935 123.678 11.544 130.715L12.1789 129.943L12.8137 129.17C4.68948 122.495 0.953376 114.349 1.57318 104.908L0.575329 104.843ZM12.1789 129.943L11.544 130.715C18.2461 136.223 26.2961 139.512 31.8348 141.3L32.1421 140.349L32.4494 139.397C27.0201 137.644 19.2389 134.45 12.8138 129.17L12.1789 129.943ZM32.1421 140.349L31.8384 141.301L32.0679 141.375L32.3716 140.422L32.6753 139.469L32.4458 139.396L32.1421 140.349ZM32.3716 140.422L31.4066 140.16L31.3435 140.392L32.3085 140.654L33.2735 140.916L33.3366 140.684L32.3716 140.422ZM32.3085 140.654L31.347 140.379C31.3125 140.5 29.8183 146.052 29.9516 153.917L30.9514 153.9L31.9513 153.883C31.8222 146.264 33.2743 140.914 33.2701 140.929L32.3085 140.654ZM30.9514 153.9L29.9516 153.917C30.0746 161.169 31.645 171.982 38.4778 182.178L39.3085 181.621L40.1392 181.064C33.5926 171.296 32.0704 160.904 31.9513 153.883L30.9514 153.9ZM39.3085 181.621L38.4777 182.178C49.0717 197.991 68.7299 207.626 96.6073 211.029L96.7285 210.036L96.8497 209.043C69.257 205.675 50.2753 196.194 40.1393 181.065L39.3085 181.621ZM96.7285 210.036L96.6072 211.029C109.954 212.659 122.687 212.387 134.453 210.212L134.271 209.229L134.089 208.245C122.547 210.379 110.02 210.652 96.8497 209.043L96.7285 210.036ZM134.271 209.229L134.453 210.212C143.863 208.473 152.674 205.519 160.642 201.428L160.185 200.538L159.728 199.649C151.945 203.645 143.321 206.539 134.089 208.245L134.271 209.229ZM160.185 200.538L160.642 201.428C174.208 194.463 180.706 186.502 180.831 186.348L180.052 185.72L179.274 185.093C179.275 185.091 177.702 187.03 174.47 189.82C171.239 192.61 166.353 196.248 159.728 199.649L160.185 200.538ZM180.052 185.72L180.832 186.347L180.945 186.205L180.166 185.579L179.386 184.953L179.273 185.094L180.052 185.72ZM180.166 185.579L179.821 186.518L179.992 186.581L180.337 185.642L180.682 184.704L180.511 184.641L180.166 185.579ZM180.337 185.642L179.989 186.58C180.11 186.625 188.949 189.884 200.327 191.406L200.459 190.415L200.592 189.424C195.012 188.677 190.05 187.503 186.471 186.512C184.682 186.016 183.242 185.566 182.245 185.239C181.746 185.076 181.359 184.943 181.095 184.851C180.963 184.805 180.862 184.769 180.793 184.744C180.758 184.731 180.732 184.722 180.714 184.715C180.705 184.712 180.698 184.709 180.693 184.707C180.688 184.706 180.685 184.705 180.685 184.705L180.337 185.642ZM200.459 190.415L200.327 191.406C210.76 192.803 225.764 193.019 237.136 185.74L236.597 184.898L236.058 184.056C225.313 190.934 210.924 190.807 200.592 189.424L200.459 190.415ZM236.597 184.898L237.136 185.74C243.335 181.774 251.497 174.683 254.78 163.557L253.821 163.274L252.861 162.991C249.772 173.464 242.058 180.217 236.058 184.056L236.597 184.898ZM253.821 163.274L254.78 163.557C256.742 156.907 256.015 151.895 255.995 151.759L255.006 151.907L254.017 152.056C254.012 152.021 254.713 156.716 252.861 162.991L253.821 163.274ZM255.006 151.907L255.995 151.759L255.962 151.54L254.973 151.688L253.984 151.836L254.017 152.055L255.006 151.907ZM254.973 151.688L255.259 152.646L255.47 152.583L255.185 151.625L254.9 150.666L254.688 150.729L254.973 151.688ZM255.185 151.625L255.456 152.587C255.586 152.551 263.753 150.139 272.924 144.845L272.424 143.979L271.924 143.113C267.439 145.702 263.195 147.588 260.063 148.828C258.498 149.448 257.212 149.906 256.316 150.21C255.415 150.515 254.912 150.663 254.914 150.662L255.185 151.625ZM272.424 143.979L272.924 144.845C281.349 139.983 292.538 131.526 297.31 119.036L296.375 118.679L295.441 118.322C290.919 130.16 280.224 138.323 271.924 143.113L272.424 143.979ZM296.375 118.679L297.31 119.036C300.661 110.257 299.483 102.065 293.827 94.6401C288.223 87.2835 278.266 80.7295 264.158 74.9625L263.779 75.8882L263.401 76.8138C277.378 82.5273 286.949 88.9118 292.236 95.8521C297.47 102.724 298.547 110.187 295.441 118.323L296.375 118.679ZM263.779 75.8882L264.156 74.9618L263.927 74.8685L263.55 75.7948L263.173 76.7212L263.403 76.8145L263.779 75.8882ZM263.55 75.7948L264.485 76.1504L264.573 75.9183L263.638 75.5628L262.704 75.2072L262.615 75.4393L263.55 75.7948ZM263.638 75.5628L264.57 75.9263C264.636 75.7561 268.617 65.2396 266.614 52.5245L265.626 52.6801L264.638 52.8357C265.597 58.9263 265.122 64.505 264.399 68.58C264.037 70.6154 263.614 72.2695 263.281 73.417C262.948 74.5668 262.705 75.2028 262.707 75.1992L263.638 75.5628ZM265.626 52.6801L266.614 52.5246C265.437 45.0454 262.449 38.2759 257.738 32.4174L256.959 33.044L256.179 33.6707C260.67 39.2548 263.515 45.6987 264.638 52.8356L265.626 52.6801ZM256.959 33.044L257.738 32.4174C251.847 25.0904 243.256 19.2087 232.268 14.8987L231.902 15.8297L231.537 16.7607C242.288 20.9772 250.558 26.6793 256.179 33.6707L256.959 33.044ZM231.902 15.8297L232.268 14.8987C217.075 8.9398 201.644 5.98919 186.399 6.13428L186.409 7.13424L186.418 8.13419C201.389 7.99171 216.566 10.8885 231.537 16.7607L231.902 15.8297ZM186.409 7.13424L186.399 6.13428C174.205 6.25137 162.115 8.3411 150.464 12.3411L150.788 13.2869L151.113 14.2327C162.563 10.3016 174.442 8.24919 186.418 8.13419L186.409 7.13424ZM150.788 13.2869L150.464 12.3411C140.541 15.7494 132.617 19.989 127.156 23.3917C124.425 25.0934 122.308 26.5869 120.863 27.6643C120.14 28.203 119.585 28.6378 119.206 28.9427C119.016 29.0952 118.87 29.2152 118.768 29.2994C118.717 29.3416 118.678 29.3747 118.65 29.3985C118.636 29.4105 118.624 29.42 118.616 29.4271C118.609 29.4334 118.601 29.4397 118.601 29.4395L119.249 30.2011L119.898 30.9626C119.966 30.9047 131.601 20.9346 151.113 14.2327L150.788 13.2869ZM119.249 30.2011L118.597 29.4436L118.45 29.5698L119.103 30.3272L119.756 31.0846L119.902 30.9585L119.249 30.2011ZM119.103 30.3272L119.661 29.4972L119.499 29.3887L118.942 30.2187L118.384 31.0487L118.545 31.1572L119.103 30.3272ZM118.942 30.2187L119.523 29.405C119.38 29.3029 113.838 25.5924 104.506 23.5607L104.294 24.5378L104.081 25.5149C113.102 27.479 118.398 31.0589 118.36 31.0324L118.942 30.2187ZM104.294 24.5378L104.506 23.5606C101.111 22.8231 96.9309 22.2538 92.1047 22.2538V23.2538V24.2538C96.7733 24.2538 100.811 24.8045 104.081 25.515L104.294 24.5378ZM92.1047 23.2538L91.6575 22.3593L91.6524 22.3619L92.0997 23.2563L92.5469 24.1507L92.552 24.1482L92.1047 23.2538Z" fill="#F7E0EE" mask="url(#path-5-inside-1_3118_38848)"/>
<path d="M72.752 34.7314C82.96 30.1299 93.1789 30.6236 100.868 32.2803C104.712 33.1086 107.917 34.2259 110.158 35.1357C111.279 35.5906 112.158 35.9932 112.756 36.2812C112.953 36.3763 113.119 36.4605 113.253 36.5283L109.078 45.9199C89.3056 40.1579 76.0319 44.291 67.6816 49.9482C63.4867 52.7904 60.5501 56.0061 58.6611 58.5127C57.7165 59.7662 57.0326 60.8437 56.584 61.6104C56.3876 61.946 56.2356 62.2222 56.127 62.4277L54.7559 61.8965C54.7202 61.7986 54.6735 61.6631 54.6221 61.4922C54.5019 61.0927 54.3549 60.5007 54.251 59.7461C54.0433 58.2372 54.0107 56.0765 54.7256 53.498C56.151 48.3574 60.5754 41.457 72.752 34.7314Z" fill="white" stroke="#F7E0EE"/>
<mask id="path-8-inside-2_3118_38848" fill="white">
<path d="M98.2124 70.5198L54.2601 62.682L54.2803 62.4398L54.0608 62.4953C54.0129 62.3112 52.9106 57.8915 54.641 52.1627C57.5267 42.602 66.0226 37.143 72.6442 34.247C83.9854 29.2851 94.6026 30.1125 101.512 31.6765C108.999 33.3742 113.875 36.2853 113.923 36.3156L114.117 36.4316L98.2124 70.5147V70.5198ZM54.5174 62.2153L97.9198 69.9547L113.469 36.6385C112.495 36.0886 107.959 33.6568 101.386 32.1684C94.5547 30.6221 84.0585 29.8098 72.851 34.7112C66.3379 37.5592 57.9758 42.9223 55.1379 52.2838C53.6194 57.2962 54.3433 61.3803 54.5199 62.2153H54.5174Z"/>
</mask>
<path d="M98.2124 70.5198L54.2601 62.682L54.2803 62.4398L54.0608 62.4953C54.0129 62.3112 52.9106 57.8915 54.641 52.1627C57.5267 42.602 66.0226 37.143 72.6442 34.247C83.9854 29.2851 94.6026 30.1125 101.512 31.6765C108.999 33.3742 113.875 36.2853 113.923 36.3156L114.117 36.4316L98.2124 70.5147V70.5198ZM54.5174 62.2153L97.9198 69.9547L113.469 36.6385C112.495 36.0886 107.959 33.6568 101.386 32.1684C94.5547 30.6221 84.0585 29.8098 72.851 34.7112C66.3379 37.5592 57.9758 42.9223 55.1379 52.2838C53.6194 57.2962 54.3433 61.3803 54.5199 62.2153H54.5174Z" fill="#7BECD1"/>
<path d="M98.2124 70.5198L98.0368 71.5042L99.2124 71.7139V70.5198H98.2124ZM54.2601 62.682L53.2635 62.5989L53.1879 63.5066L54.0845 63.6665L54.2601 62.682ZM54.2803 62.4398L55.2768 62.5229L55.3932 61.1269L54.0351 61.4703L54.2803 62.4398ZM54.0608 62.4953L53.0931 62.7472L53.3432 63.7083L54.306 63.4648L54.0608 62.4953ZM54.641 52.1627L55.5983 52.4518L55.5983 52.4516L54.641 52.1627ZM72.6442 34.247L73.0449 35.1633L73.045 35.1632L72.6442 34.247ZM101.512 31.6765L101.733 30.7013L101.733 30.7012L101.512 31.6765ZM113.923 36.3156L113.389 37.1611L113.399 37.1677L113.41 37.1741L113.923 36.3156ZM114.117 36.4316L115.023 36.8545L115.405 36.0362L114.63 35.5732L114.117 36.4316ZM98.2124 70.5147L97.3062 70.0919L97.2124 70.2929V70.5147H98.2124ZM54.5174 62.2153V61.2153L54.3418 63.1998L54.5174 62.2153ZM97.9198 69.9547L97.7442 70.9392L98.5009 71.0741L98.8259 70.3776L97.9198 69.9547ZM113.469 36.6385L114.375 37.0614L114.766 36.2229L113.96 35.7678L113.469 36.6385ZM101.386 32.1684L101.607 31.1931L101.606 31.1931L101.386 32.1684ZM72.851 34.7112L73.2517 35.6274L73.2517 35.6274L72.851 34.7112ZM55.1379 52.2838L54.1809 51.9937L54.1809 51.9938L55.1379 52.2838ZM54.5199 62.2153V63.2153H55.7535L55.4983 62.0084L54.5199 62.2153ZM98.2124 70.5198L98.3879 69.5353L54.4356 61.6975L54.2601 62.682L54.0845 63.6665L98.0368 71.5042L98.2124 70.5198ZM54.2601 62.682L55.2566 62.7651L55.2768 62.5229L54.2803 62.4398L53.2837 62.3568L53.2635 62.5989L54.2601 62.682ZM54.2803 62.4398L54.0351 61.4703L53.8157 61.5258L54.0608 62.4953L54.306 63.4648L54.5254 63.4093L54.2803 62.4398ZM54.0608 62.4953L55.0286 62.2434C55.006 62.1567 53.9408 57.9393 55.5983 52.4518L54.641 52.1627L53.6837 51.8735C51.8803 57.8438 53.0198 62.4656 53.0931 62.7472L54.0608 62.4953ZM54.641 52.1627L55.5983 52.4516C58.3546 43.3201 66.5061 38.023 73.0449 35.1633L72.6442 34.247L72.2435 33.3308C65.539 36.263 56.6989 41.8838 53.6837 51.8737L54.641 52.1627ZM72.6442 34.247L73.045 35.1632C84.1304 30.3131 94.5152 31.118 101.291 32.6518L101.512 31.6765L101.733 30.7012C94.6901 29.107 83.8404 28.257 72.2433 33.3309L72.6442 34.247ZM101.512 31.6765L101.291 32.6517C108.643 34.319 113.414 37.1773 113.389 37.1611L113.923 36.3156L114.457 35.4701C114.335 35.3933 109.354 32.4294 101.733 30.7013L101.512 31.6765ZM113.923 36.3156L113.41 37.1741L113.604 37.2901L114.117 36.4316L114.63 35.5732L114.435 35.4571L113.923 36.3156ZM114.117 36.4316L113.211 36.0088L97.3062 70.0919L98.2124 70.5147L99.1186 70.9376L115.023 36.8545L114.117 36.4316ZM98.2124 70.5147H97.2124V70.5198H98.2124H99.2124V70.5147H98.2124ZM54.5174 62.2153L54.3418 63.1998L97.7442 70.9392L97.9198 69.9547L98.0953 68.9702L54.6929 61.2308L54.5174 62.2153ZM97.9198 69.9547L98.8259 70.3776L114.375 37.0614L113.469 36.6385L112.562 36.2156L97.0136 69.5318L97.9198 69.9547ZM113.469 36.6385L113.96 35.7678C112.934 35.1881 108.305 32.7098 101.607 31.1931L101.386 32.1684L101.165 33.1437C107.613 34.6037 112.056 36.989 112.977 37.5092L113.469 36.6385ZM101.386 32.1684L101.606 31.1931C94.6418 29.6165 83.9133 28.7818 72.4503 33.795L72.851 34.7112L73.2517 35.6274C84.2038 30.8377 94.4677 31.6276 101.165 33.1437L101.386 32.1684ZM72.851 34.7112L72.4504 33.795C65.8561 36.6785 57.1489 42.2029 54.1809 51.9937L55.1379 52.2838L56.0949 52.5739C58.8026 43.6418 66.8197 38.44 73.2517 35.6274L72.851 34.7112ZM55.1379 52.2838L54.1809 51.9938C52.5954 57.2273 53.3459 61.497 53.5416 62.4222L54.5199 62.2153L55.4983 62.0084C55.3408 61.2636 54.6434 57.3651 56.095 52.5737L55.1379 52.2838ZM54.5199 62.2153V61.2153H54.5174V62.2153V63.2153H54.5199V62.2153Z" fill="#F7E0EE" mask="url(#path-8-inside-2_3118_38848)"/>
<mask id="path-10-inside-3_3118_38848" fill="white">
<path d="M56.4976 62.8914L56.041 62.677C56.0738 62.6063 59.4792 55.4623 67.7228 49.8797C72.5635 46.6003 78.1004 44.4889 84.1797 43.6009C91.7699 42.4935 100.233 43.3033 109.332 46.0075L109.188 46.4918C100.167 43.8103 91.7825 43.0056 84.2705 44.0979C78.2669 44.9707 72.8031 47.0519 68.0255 50.2833C59.8879 55.7877 56.5304 62.8207 56.4976 62.8914Z"/>
</mask>
<path d="M56.4976 62.8914L56.041 62.677C56.0738 62.6063 59.4792 55.4623 67.7228 49.8797C72.5635 46.6003 78.1004 44.4889 84.1797 43.6009C91.7699 42.4935 100.233 43.3033 109.332 46.0075L109.188 46.4918C100.167 43.8103 91.7825 43.0056 84.2705 44.0979C78.2669 44.9707 72.8031 47.0519 68.0255 50.2833C59.8879 55.7877 56.5304 62.8207 56.4976 62.8914Z" fill="#7BECD1"/>
<path d="M56.4976 62.8914L56.0725 63.7965L56.9816 64.2235L57.4046 63.3125L56.4976 62.8914ZM56.041 62.677L55.134 62.2559L54.7148 63.1589L55.6159 63.5821L56.041 62.677ZM67.7228 49.8797L68.2835 50.7077L68.2836 50.7076L67.7228 49.8797ZM84.1797 43.6009L84.0353 42.6114L84.0351 42.6114L84.1797 43.6009ZM109.332 46.0075L110.29 46.2921L110.575 45.3337L109.617 45.0489L109.332 46.0075ZM109.188 46.4918L108.903 47.4504L109.862 47.7354L110.147 46.7764L109.188 46.4918ZM84.2705 44.0979L84.4143 45.0875L84.4144 45.0875L84.2705 44.0979ZM68.0255 50.2833L67.4652 49.455L67.4652 49.455L68.0255 50.2833ZM56.4976 62.8914L56.9227 61.9862L56.4661 61.7718L56.041 62.677L55.6159 63.5821L56.0725 63.7965L56.4976 62.8914ZM56.041 62.677L56.948 63.098C56.9413 63.1125 60.249 56.1487 68.2835 50.7077L67.7228 49.8797L67.1621 49.0517C58.7094 54.7759 55.2063 62.1001 55.134 62.2559L56.041 62.677ZM67.7228 49.8797L68.2836 50.7076C72.993 47.5172 78.3862 45.4577 84.3242 44.5904L84.1797 43.6009L84.0351 42.6114C77.8146 43.52 72.1339 45.6835 67.1619 49.0518L67.7228 49.8797ZM84.1797 43.6009L84.324 44.5904C91.7407 43.5083 100.055 44.2936 109.047 46.9661L109.332 46.0075L109.617 45.0489C100.411 42.3129 91.7991 41.4786 84.0353 42.6114L84.1797 43.6009ZM109.332 46.0075L108.373 45.7229L108.229 46.2072L109.188 46.4918L110.147 46.7764L110.29 46.2921L109.332 46.0075ZM109.188 46.4918L109.473 45.5333C100.346 42.82 91.8122 41.9908 84.1266 43.1083L84.2705 44.0979L84.4144 45.0875C91.7529 44.0204 99.989 44.8005 108.903 47.4504L109.188 46.4918ZM84.2705 44.0979L84.1266 43.1083C77.9816 44.0017 72.3741 46.1348 67.4652 49.455L68.0255 50.2833L68.5857 51.1116C73.2321 47.9689 78.5521 45.9397 84.4143 45.0875L84.2705 44.0979ZM68.0255 50.2833L67.4652 49.455C59.1187 55.1006 55.6633 62.3136 55.5906 62.4703L56.4976 62.8914L57.4046 63.3125C57.3974 63.3279 60.657 56.4747 68.5858 51.1116L68.0255 50.2833Z" fill="#F7E0EE" mask="url(#path-10-inside-3_3118_38848)"/>
<path d="M97.6865 79.1311L106.899 95.8606L103.513 97.4543L99.4541 90.2903L99.3369 90.0842L99.1035 90.0442L52.4375 81.9719L52.373 81.9612L52.3076 81.967C36.6259 83.3665 26.4873 90.63 20.2754 97.5491C17.1721 101.006 15.0499 104.375 13.7021 106.882C13.1035 107.996 12.6583 108.94 12.3467 109.648C12.2832 109.366 12.2164 109.047 12.1514 108.697C11.8772 107.217 11.6294 105.176 11.7344 102.921C11.8259 100.952 12.4706 98.7498 13.1719 96.6409L13.4746 95.7434C15.4426 89.9622 20.4484 85.1187 25.0293 81.6985C27.3113 79.9948 29.4702 78.6574 31.0576 77.7463C31.8508 77.2911 32.5005 76.9423 32.9512 76.7083C33.1764 76.5912 33.3522 76.5035 33.4707 76.4446C33.5297 76.4152 33.5746 76.3927 33.6045 76.3782C33.6157 76.3727 33.6249 76.3678 33.6318 76.3645L48.8691 70.6194L97.6865 79.1311Z" fill="white" stroke="#F7E0EE"/>
<mask id="path-13-inside-4_3118_38848" fill="white">
<path d="M38.1551 133.376L38.0693 133.361C38.0088 133.351 31.9699 132.306 25.6661 128.626C19.8366 125.22 12.5768 118.803 11.1037 107.557C10.2788 101.266 11.757 95.3702 15.4954 90.0349C18.477 85.7817 22.8989 81.8742 28.6326 78.4258C38.3771 72.5632 48.6967 70.0154 48.7976 69.9902L48.848 69.9775L48.8985 69.9876L97.8756 78.4081L107.567 96.1295L38.1551 133.376ZM48.8682 70.4947C48.0787 70.694 38.2131 73.2494 28.8823 78.8647C23.2117 82.2778 18.8453 86.1349 15.904 90.33C12.2413 95.5569 10.7934 101.331 11.6031 107.491C13.051 118.528 20.1797 124.834 25.9058 128.182C31.7303 131.585 37.3227 132.71 38.0693 132.849L106.878 95.9252L97.5502 78.8647L48.8657 70.4947H48.8682Z"/>
</mask>
<path d="M38.1551 133.376L38.0693 133.361C38.0088 133.351 31.9699 132.306 25.6661 128.626C19.8366 125.22 12.5768 118.803 11.1037 107.557C10.2788 101.266 11.757 95.3702 15.4954 90.0349C18.477 85.7817 22.8989 81.8742 28.6326 78.4258C38.3771 72.5632 48.6967 70.0154 48.7976 69.9902L48.848 69.9775L48.8985 69.9876L97.8756 78.4081L107.567 96.1295L38.1551 133.376ZM48.8682 70.4947C48.0787 70.694 38.2131 73.2494 28.8823 78.8647C23.2117 82.2778 18.8453 86.1349 15.904 90.33C12.2413 95.5569 10.7934 101.331 11.6031 107.491C13.051 118.528 20.1797 124.834 25.9058 128.182C31.7303 131.585 37.3227 132.71 38.0693 132.849L106.878 95.9252L97.5502 78.8647L48.8657 70.4947H48.8682Z" fill="#7BECD1"/>
<path d="M38.1551 133.376L37.9813 134.361L38.3226 134.421L38.6279 134.257L38.1551 133.376ZM38.0693 133.361L38.2431 132.376L38.2337 132.374L38.0693 133.361ZM25.6661 128.626L25.1617 129.489L25.1619 129.489L25.6661 128.626ZM11.1037 107.557L12.0952 107.427L12.0952 107.427L11.1037 107.557ZM15.4954 90.0349L14.6765 89.4608L14.6764 89.461L15.4954 90.0349ZM28.6326 78.4258L29.148 79.2827L29.1481 79.2827L28.6326 78.4258ZM48.7976 69.9902L49.0401 70.9603L49.0402 70.9603L48.7976 69.9902ZM48.848 69.9775L49.0442 68.997L48.8237 68.9528L48.6054 69.0074L48.848 69.9775ZM48.8985 69.9876L48.7023 70.9682L48.7156 70.9709L48.729 70.9732L48.8985 69.9876ZM97.8756 78.4081L98.753 77.9283L98.5212 77.5044L98.045 77.4226L97.8756 78.4081ZM107.567 96.1295L108.04 97.0107L108.928 96.5341L108.444 95.6497L107.567 96.1295ZM48.8682 70.4947L49.1129 71.4643L48.8682 69.4947V70.4947ZM28.8823 78.8647L28.3667 78.0079L28.3666 78.0079L28.8823 78.8647ZM15.904 90.33L15.0852 89.7559L15.0851 89.7561L15.904 90.33ZM11.6031 107.491L12.5946 107.361L12.5946 107.361L11.6031 107.491ZM25.9058 128.182L25.4011 129.045L25.4013 129.045L25.9058 128.182ZM38.0693 132.849L37.8866 133.832L38.2323 133.896L38.5422 133.73L38.0693 132.849ZM106.878 95.9252L107.351 96.8063L108.239 96.3298L107.756 95.4454L106.878 95.9252ZM97.5502 78.8647L98.4276 78.385L98.1958 77.961L97.7196 77.8792L97.5502 78.8647ZM48.8657 70.4947V69.4947L48.6962 71.4802L48.8657 70.4947ZM38.1551 133.376L38.3289 132.391L38.2431 132.376L38.0693 133.361L37.8955 134.346L37.9813 134.361L38.1551 133.376ZM38.0693 133.361L38.2337 132.374C38.2415 132.376 36.7624 132.122 34.508 131.416C32.2532 130.709 29.2408 129.555 26.1703 127.762L25.6661 128.626L25.1619 129.489C31.6151 133.257 37.789 134.328 37.9049 134.347L38.0693 133.361ZM25.6661 128.626L26.1705 127.762C20.49 124.444 13.5132 118.252 12.0952 107.427L11.1037 107.557L10.1121 107.687C11.6404 119.353 19.1832 125.997 25.1617 129.489L25.6661 128.626ZM11.1037 107.557L12.0952 107.427C11.3038 101.391 12.7152 95.7454 16.3143 90.6087L15.4954 90.0349L14.6764 89.461C10.7988 94.995 9.25382 101.14 10.1121 107.687L11.1037 107.557ZM15.4954 90.0349L16.3142 90.6089C19.196 86.4982 23.501 82.679 29.148 79.2827L28.6326 78.4258L28.1172 77.5688C22.2969 81.0694 17.758 85.0653 14.6765 89.4608L15.4954 90.0349ZM28.6326 78.4258L29.1481 79.2827C38.7616 73.4989 48.9634 70.9795 49.0401 70.9603L48.7976 69.9902L48.555 69.02C48.5552 69.02 48.5551 69.02 48.5544 69.0202C48.5535 69.0204 48.5532 69.0205 48.5518 69.0208C48.5497 69.0214 48.5468 69.0221 48.5432 69.023C48.5361 69.0247 48.5264 69.0272 48.5142 69.0302C48.4899 69.0364 48.4559 69.045 48.4124 69.0562C48.3256 69.0785 48.2014 69.1109 48.0423 69.1537C47.7243 69.2391 47.2671 69.3658 46.692 69.5352C45.542 69.874 43.919 70.3841 41.9925 71.0782C38.1437 72.4649 33.0631 74.5933 28.1171 77.5689L28.6326 78.4258ZM48.7976 69.9902L49.0402 70.9603L49.0906 70.9477L48.848 69.9775L48.6054 69.0074L48.555 69.02L48.7976 69.9902ZM48.848 69.9775L48.6518 70.9581L48.7023 70.9682L48.8985 69.9876L49.0947 69.0071L49.0442 68.997L48.848 69.9775ZM48.8985 69.9876L48.729 70.9732L97.7062 79.3937L97.8756 78.4081L98.045 77.4226L49.0679 69.0021L48.8985 69.9876ZM97.8756 78.4081L96.9982 78.8879L106.69 96.6093L107.567 96.1295L108.444 95.6497L98.753 77.9283L97.8756 78.4081ZM107.567 96.1295L107.094 95.2484L37.6823 132.495L38.1551 133.376L38.6279 134.257L108.04 97.0107L107.567 96.1295ZM48.8682 70.4947L48.6235 69.5251C47.804 69.7319 37.8247 72.316 28.3667 78.0079L28.8823 78.8647L29.398 79.7215C38.6015 74.1828 48.3533 71.656 49.1129 71.4643L48.8682 70.4947ZM28.8823 78.8647L28.3666 78.0079C22.6099 81.4729 18.1264 85.4183 15.0852 89.7559L15.904 90.33L16.7228 90.9041C19.5641 86.8516 23.8136 83.0828 29.398 79.7215L28.8823 78.8647ZM15.904 90.33L15.0851 89.7561C11.2832 95.1816 9.76833 101.206 10.6116 107.622L11.6031 107.491L12.5946 107.361C11.8185 101.456 13.1994 95.9321 16.7229 90.9039L15.904 90.33ZM11.6031 107.491L10.6116 107.621C12.1147 119.078 19.5262 125.611 25.4011 129.045L25.9058 128.182L26.4105 127.319C20.8332 124.058 13.9874 117.977 12.5946 107.361L11.6031 107.491ZM25.9058 128.182L25.4013 129.045C31.3675 132.531 37.0875 133.683 37.8866 133.832L38.0693 132.849L38.252 131.866C37.5579 131.737 32.093 130.639 26.4102 127.318L25.9058 128.182ZM38.0693 132.849L38.5422 133.73L107.351 96.8063L106.878 95.9252L106.406 95.044L37.5965 131.968L38.0693 132.849ZM106.878 95.9252L107.756 95.4454L98.4276 78.385L97.5502 78.8647L96.6728 79.3445L106.001 96.4049L106.878 95.9252ZM97.5502 78.8647L97.7196 77.8792L49.0351 69.5091L48.8657 70.4947L48.6962 71.4802L97.3807 79.8503L97.5502 78.8647ZM48.8657 70.4947V71.4947H48.8682V70.4947V69.4947H48.8657V70.4947Z" fill="#F7E0EE" mask="url(#path-13-inside-4_3118_38848)"/>
<mask id="path-15-inside-5_3118_38848" fill="white">
<path d="M12.5236 112.009L12.0469 111.848C12.0696 111.78 14.4054 104.994 20.5225 97.966C26.1704 91.4803 36.2857 83.4458 52.4197 82.0054H52.4525L52.4853 82.0079L99.2527 90.1232L103.551 97.9988L103.107 98.2409L98.9247 90.5772L52.4323 82.5099C36.4951 83.9402 26.5009 91.8739 20.9185 98.2813C14.8595 105.236 12.5489 111.941 12.5262 112.009H12.5236Z"/>
</mask>
<path d="M12.5236 112.009L12.0469 111.848C12.0696 111.78 14.4054 104.994 20.5225 97.966C26.1704 91.4803 36.2857 83.4458 52.4197 82.0054H52.4525L52.4853 82.0079L99.2527 90.1232L103.551 97.9988L103.107 98.2409L98.9247 90.5772L52.4323 82.5099C36.4951 83.9402 26.5009 91.8739 20.9185 98.2813C14.8595 105.236 12.5489 111.941 12.5262 112.009H12.5236Z" fill="#7BECD1"/>
<path d="M12.5236 112.009L12.2029 112.957L12.3589 113.009H12.5236V112.009ZM12.0469 111.848L11.0982 111.532L10.7835 112.476L11.7261 112.795L12.0469 111.848ZM20.5225 97.966L19.7684 97.3093L19.7682 97.3094L20.5225 97.966ZM52.4197 82.0054V81.0054H52.3751L52.3308 81.0093L52.4197 82.0054ZM52.4525 82.0054L52.5293 81.0083L52.4909 81.0054H52.4525V82.0054ZM52.4853 82.0079L52.6562 81.0226L52.6094 81.0145L52.5621 81.0108L52.4853 82.0079ZM99.2527 90.1232L100.13 89.6441L99.8992 89.2204L99.4236 89.1379L99.2527 90.1232ZM103.551 97.9988L104.03 98.8767L104.908 98.3977L104.429 97.5197L103.551 97.9988ZM103.107 98.2409L102.229 98.72L102.708 99.5976L103.586 99.1188L103.107 98.2409ZM98.9247 90.5772L99.8025 90.0982L99.5713 89.6745L99.0957 89.592L98.9247 90.5772ZM52.4323 82.5099L52.6033 81.5246L52.4738 81.5022L52.3429 81.5139L52.4323 82.5099ZM20.9185 98.2813L20.1646 97.6244L20.1646 97.6244L20.9185 98.2813ZM12.5262 112.009V113.009H13.2469L13.4748 112.326L12.5262 112.009ZM12.5236 112.009L12.8444 111.062L12.3676 110.901L12.0469 111.848L11.7261 112.795L12.2029 112.957L12.5236 112.009ZM12.0469 111.848L12.9956 112.164C12.9939 112.169 15.2763 105.517 21.2768 98.6225L20.5225 97.966L19.7682 97.3094C13.5345 104.471 11.1452 111.391 11.0982 111.532L12.0469 111.848ZM20.5225 97.966L21.2766 98.6227C26.8021 92.2776 36.6955 84.4132 52.5086 83.0014L52.4197 82.0054L52.3308 81.0093C35.8759 82.4784 25.5387 90.683 19.7684 97.3093L20.5225 97.966ZM52.4197 82.0054V83.0054H52.4525V82.0054V81.0054H52.4197V82.0054ZM52.4525 82.0054L52.3757 83.0024L52.4085 83.0049L52.4853 82.0079L52.5621 81.0108L52.5293 81.0083L52.4525 82.0054ZM52.4853 82.0079L52.3143 82.9932L99.0817 91.1084L99.2527 90.1232L99.4236 89.1379L52.6562 81.0226L52.4853 82.0079ZM99.2527 90.1232L98.3749 90.6022L102.673 98.4778L103.551 97.9988L104.429 97.5197L100.13 89.6441L99.2527 90.1232ZM103.551 97.9988L103.072 97.1209L102.628 97.3631L103.107 98.2409L103.586 99.1188L104.03 98.8767L103.551 97.9988ZM103.107 98.2409L103.985 97.7619L99.8025 90.0982L98.9247 90.5772L98.0469 91.0563L102.229 98.72L103.107 98.2409ZM98.9247 90.5772L99.0957 89.592L52.6033 81.5246L52.4323 82.5099L52.2613 83.4952L98.7538 91.5625L98.9247 90.5772ZM52.4323 82.5099L52.3429 81.5139C36.0853 82.973 25.8693 91.0764 20.1646 97.6244L20.9185 98.2813L21.6725 98.9382C27.1324 92.6713 36.9049 84.9075 52.5217 83.5059L52.4323 82.5099ZM20.9185 98.2813L20.1646 97.6244C13.989 104.713 11.6247 111.551 11.5775 111.693L12.5262 112.009L13.4748 112.326C13.473 112.331 15.73 105.759 21.6725 98.9382L20.9185 98.2813ZM12.5262 112.009V111.009H12.5236V112.009V113.009H12.5262V112.009Z" fill="#F7E0EE" mask="url(#path-15-inside-5_3118_38848)"/>
<path d="M166.377 18.0388C178.584 14.8684 207.145 11.3238 234.205 28.9001C246.349 36.7878 251.508 45.2742 253.646 51.7507C254.717 54.9935 255.034 57.743 255.084 59.6755C255.094 60.0533 255.091 60.3998 255.084 60.7126C248.433 45.8101 231.899 30.3476 198.598 26.7917L196.931 26.6257C177.066 24.7715 159.519 29.7741 146.946 35.2312C140.659 37.9604 135.61 40.8053 132.132 42.9695C130.393 44.0517 129.045 44.9635 128.131 45.6062C127.674 45.9275 127.326 46.182 127.091 46.3562C126.973 46.4433 126.884 46.5107 126.824 46.5564C126.794 46.5791 126.771 46.5963 126.756 46.6082C126.748 46.614 126.742 46.6187 126.738 46.6218C126.736 46.6234 126.735 46.6249 126.733 46.6257L126.732 46.6267C126.734 46.6295 126.757 46.6603 127.038 47.0222L126.731 46.6267L126.633 46.7039L126.582 46.8171L112.111 79.0564L108.918 74.0964L125.906 36.1218C125.928 36.1063 125.953 36.0891 125.981 36.0691C126.104 35.9822 126.287 35.853 126.529 35.6863C127.014 35.3527 127.737 34.8678 128.681 34.2654C130.568 33.0605 133.343 31.3855 136.886 29.5115C143.971 25.763 154.121 21.2192 166.376 18.0388H166.377Z" fill="white" stroke="#F7E0EE"/>
<mask id="path-18-inside-6_3118_38848" fill="white">
<path d="M181.474 113.974L181.37 113.942L119.201 94.1038L119.11 94.0004L108.18 74.3694L108.23 74.2559L125.146 35.458L125.202 35.4176C125.29 35.352 134.257 28.8664 147.932 23.1905C160.557 17.951 179.895 12.3483 200.327 15.4133C212.011 17.1665 222.444 20.683 231.334 25.867C239.802 30.8063 246.502 37.1557 250.709 44.2291C256.405 53.81 257.447 64.2865 253.721 74.5233L253.688 74.6141L253.605 74.6595L181.474 113.98V113.974ZM119.506 93.6724L181.423 113.43L253.28 74.2609C256.915 64.2007 255.875 53.9084 250.275 44.489C246.113 37.4887 239.474 31.1998 231.079 26.3059C222.245 21.1548 211.873 17.6584 200.251 15.9178C179.94 12.8705 160.701 18.4429 148.139 23.6572C135.075 29.0783 126.327 35.2411 125.555 35.7935L108.745 74.3517L119.506 93.68V93.6724Z"/>
</mask>
<path d="M181.474 113.974L181.37 113.942L119.201 94.1038L119.11 94.0004L108.18 74.3694L108.23 74.2559L125.146 35.458L125.202 35.4176C125.29 35.352 134.257 28.8664 147.932 23.1905C160.557 17.951 179.895 12.3483 200.327 15.4133C212.011 17.1665 222.444 20.683 231.334 25.867C239.802 30.8063 246.502 37.1557 250.709 44.2291C256.405 53.81 257.447 64.2865 253.721 74.5233L253.688 74.6141L253.605 74.6595L181.474 113.98V113.974ZM119.506 93.6724L181.423 113.43L253.28 74.2609C256.915 64.2007 255.875 53.9084 250.275 44.489C246.113 37.4887 239.474 31.1998 231.079 26.3059C222.245 21.1548 211.873 17.6584 200.251 15.9178C179.94 12.8705 160.701 18.4429 148.139 23.6572C135.075 29.0783 126.327 35.2411 125.555 35.7935L108.745 74.3517L119.506 93.68V93.6724Z" fill="#7BECD1"/>
<path d="M181.474 113.974H182.474V113.242L181.776 113.021L181.474 113.974ZM181.37 113.942L181.066 114.894L181.068 114.895L181.37 113.942ZM119.201 94.1038L118.449 94.7636L118.632 94.9721L118.897 95.0565L119.201 94.1038ZM119.11 94.0004L118.236 94.4868L118.288 94.58L118.358 94.6602L119.11 94.0004ZM108.18 74.3694L107.266 73.9632L107.063 74.4195L107.306 74.8558L108.18 74.3694ZM108.23 74.2559L109.144 74.662L109.147 74.6555L108.23 74.2559ZM125.146 35.458L124.558 34.6492L124.338 34.8091L124.229 35.0583L125.146 35.458ZM125.202 35.4176L125.79 36.2264L125.798 36.2204L125.202 35.4176ZM147.932 23.1905L147.549 22.2669L147.549 22.2669L147.932 23.1905ZM200.327 15.4133L200.476 14.4244L200.475 14.4243L200.327 15.4133ZM231.334 25.867L231.838 25.0032L231.838 25.0032L231.334 25.867ZM250.709 44.2291L251.569 43.7181L251.569 43.7179L250.709 44.2291ZM253.721 74.5233L252.781 74.1812L252.781 74.1836L253.721 74.5233ZM253.688 74.6141L254.167 75.492L254.5 75.3104L254.629 74.9537L253.688 74.6141ZM253.605 74.6595L254.084 75.5375L254.084 75.5374L253.605 74.6595ZM181.474 113.98H180.474V115.664L181.952 114.858L181.474 113.98ZM119.506 93.6724L119.81 92.7198L118.506 92.3037V93.6724H119.506ZM181.423 113.43L181.119 114.382L181.527 114.512L181.902 114.308L181.423 113.43ZM253.28 74.2609L253.758 75.1389L254.091 74.9574L254.22 74.6007L253.28 74.2609ZM250.275 44.489L251.135 43.9779L251.135 43.9779L250.275 44.489ZM231.079 26.3059L230.575 27.1698L230.575 27.1699L231.079 26.3059ZM200.251 15.9178L200.103 16.9067L200.103 16.9068L200.251 15.9178ZM148.139 23.6572L148.522 24.5808L148.522 24.5808L148.139 23.6572ZM125.555 35.7935L124.973 34.9803L124.748 35.1409L124.638 35.3939L125.555 35.7935ZM108.745 74.3517L107.828 73.9521L107.63 74.4057L107.871 74.8382L108.745 74.3517ZM119.506 93.68L118.632 94.1664L120.506 97.5319V93.68H119.506ZM181.474 113.974L181.776 113.021L181.673 112.988L181.37 113.942L181.068 114.895L181.172 114.928L181.474 113.974ZM181.37 113.942L181.674 112.989L119.505 93.1511L119.201 94.1038L118.897 95.0565L181.066 114.894L181.37 113.942ZM119.201 94.1038L119.952 93.4441L119.861 93.3406L119.11 94.0004L118.358 94.6602L118.449 94.7636L119.201 94.1038ZM119.11 94.0004L119.983 93.5139L109.053 73.8829L108.18 74.3694L107.306 74.8558L118.236 94.4868L119.11 94.0004ZM108.18 74.3694L109.093 74.7755L109.144 74.662L108.23 74.2559L107.316 73.8497L107.266 73.9632L108.18 74.3694ZM108.23 74.2559L109.147 74.6555L126.063 35.8577L125.146 35.458L124.229 35.0583L107.313 73.8562L108.23 74.2559ZM125.146 35.458L125.734 36.2668L125.79 36.2264L125.202 35.4176L124.613 34.6089L124.558 34.6492L125.146 35.458ZM125.202 35.4176L125.798 36.2204C125.796 36.222 125.935 36.1208 126.213 35.9276C126.488 35.737 126.892 35.4603 127.419 35.1116C128.473 34.4142 130.015 33.4291 131.98 32.2691C135.911 29.9484 141.53 26.9306 148.315 24.1141L147.932 23.1905L147.549 22.2669C133.779 27.9824 124.74 34.5151 124.605 34.6149L125.202 35.4176ZM147.932 23.1905L148.315 24.1141C160.861 18.9077 180.002 13.3755 200.179 16.4022L200.327 15.4133L200.475 14.4243C179.788 11.3211 160.254 16.9943 147.549 22.2669L147.932 23.1905ZM200.327 15.4133L200.179 16.4022C211.756 18.1394 222.065 21.6195 230.83 26.7308L231.334 25.867L231.838 25.0032C222.824 19.7466 212.267 16.1936 200.476 14.4244L200.327 15.4133ZM231.334 25.867L230.83 26.7308C239.18 31.601 245.744 37.8383 249.85 44.7404L250.709 44.2291L251.569 43.7179C247.259 36.4732 240.424 30.0116 231.838 25.0032L231.334 25.867ZM250.709 44.2291L249.85 44.7402C255.396 54.0701 256.402 64.2339 252.781 74.1812L253.721 74.5233L254.661 74.8653C258.492 64.339 257.414 53.55 251.569 43.7181L250.709 44.2291ZM253.721 74.5233L252.781 74.1836L252.748 74.2745L253.688 74.6141L254.629 74.9537L254.662 74.8629L253.721 74.5233ZM253.688 74.6141L253.209 73.7362L253.126 73.7816L253.605 74.6595L254.084 75.5374L254.167 75.492L253.688 74.6141ZM253.605 74.6595L253.126 73.7815L180.995 113.101L181.474 113.98L181.952 114.858L254.084 75.5375L253.605 74.6595ZM181.474 113.98H182.474V113.974H181.474H180.474V113.98H181.474ZM119.506 93.6724L119.202 94.6251L181.119 114.382L181.423 113.43L181.727 112.477L119.81 92.7198L119.506 93.6724ZM181.423 113.43L181.902 114.308L253.758 75.1389L253.28 74.2609L252.801 73.3829L180.945 112.552L181.423 113.43ZM253.28 74.2609L254.22 74.6007C257.96 64.2511 256.883 53.6473 251.135 43.9779L250.275 44.489L249.416 45C254.867 54.1696 255.87 64.1503 252.339 73.9211L253.28 74.2609ZM250.275 44.489L251.135 43.9779C246.871 36.8059 240.096 30.4049 231.583 25.442L231.079 26.3059L230.575 27.1699C238.852 31.9947 245.356 38.1715 249.416 45L250.275 44.489ZM231.079 26.3059L231.583 25.4421C222.624 20.2183 212.128 16.6855 200.4 14.9288L200.251 15.9178L200.103 16.9068C211.618 18.6314 221.866 22.0912 230.575 27.1698L231.079 26.3059ZM200.251 15.9178L200.4 14.9289C179.833 11.8432 160.397 17.4863 147.755 22.7336L148.139 23.6572L148.522 24.5808C161.005 19.3996 180.047 13.8977 200.103 16.9067L200.251 15.9178ZM148.139 23.6572L147.756 22.7336C134.597 28.1938 125.781 34.4018 124.973 34.9803L125.555 35.7935L126.137 36.6067C126.872 36.0803 135.552 29.9628 148.522 24.5808L148.139 23.6572ZM125.555 35.7935L124.638 35.3939L107.828 73.9521L108.745 74.3517L109.661 74.7514L126.471 36.1931L125.555 35.7935ZM108.745 74.3517L107.871 74.8382L118.632 94.1664L119.506 93.68L120.379 93.1936L109.618 73.8653L108.745 74.3517ZM119.506 93.68H120.506V93.6724H119.506H118.506V93.68H119.506Z" fill="#F7E0EE" mask="url(#path-18-inside-6_3118_38848)"/>
<path d="M177.398 123.243L188.771 140.055L186.646 146.404L179.021 133.597L178.924 133.435L178.745 133.377L115.604 112.838L115.403 112.773L115.216 112.871L46.1973 149.422L46.0137 149.519L45.9531 149.718L42.918 159.71C42.8363 159.03 42.7458 158.248 42.6582 157.428C42.3918 154.935 42.159 152.167 42.2559 150.865C42.3527 149.562 42.9685 146.961 43.5771 144.639C43.8788 143.488 44.1744 142.421 44.3945 141.642C44.5046 141.252 44.5966 140.935 44.6602 140.715C44.6763 140.659 44.6897 140.609 44.7021 140.567L114.202 101.173L177.398 123.243Z" fill="white" stroke="#F7E0EE"/>
<mask id="path-21-inside-7_3118_38848" fill="white">
<path d="M108.011 201.923C98.6724 201.923 89.6317 200.5 81.04 197.67C63.4354 191.871 51.5165 182.898 45.6088 170.998C39.3025 158.292 41.878 146.161 43.9742 140.064L44.0322 139.895H44.1482L113.767 100.428L113.876 100.466L177.733 122.683L189.869 140.112L174.297 179.747L174.239 179.79C174.126 179.873 162.807 188.311 145.745 194.693C135.723 198.442 125.706 200.76 115.977 201.585C113.3 201.812 110.642 201.926 108.011 201.926V201.923ZM44.4181 140.318C42.3522 146.373 39.865 158.295 46.0603 170.774C51.905 182.547 63.7255 191.437 81.1964 197.191C92.1441 200.796 103.828 202.105 115.924 201.081C125.608 200.261 135.577 197.953 145.553 194.222C161.929 188.097 172.991 180.077 173.879 179.424L189.299 140.175L177.41 123.102L113.815 100.978L44.4156 140.321L44.4181 140.318Z"/>
</mask>
<path d="M108.011 201.923C98.6724 201.923 89.6317 200.5 81.04 197.67C63.4354 191.871 51.5165 182.898 45.6088 170.998C39.3025 158.292 41.878 146.161 43.9742 140.064L44.0322 139.895H44.1482L113.767 100.428L113.876 100.466L177.733 122.683L189.869 140.112L174.297 179.747L174.239 179.79C174.126 179.873 162.807 188.311 145.745 194.693C135.723 198.442 125.706 200.76 115.977 201.585C113.3 201.812 110.642 201.926 108.011 201.926V201.923ZM44.4181 140.318C42.3522 146.373 39.865 158.295 46.0603 170.774C51.905 182.547 63.7255 191.437 81.1964 197.191C92.1441 200.796 103.828 202.105 115.924 201.081C125.608 200.261 135.577 197.953 145.553 194.222C161.929 188.097 172.991 180.077 173.879 179.424L189.299 140.175L177.41 123.102L113.815 100.978L44.4156 140.321L44.4181 140.318Z" fill="#7BECD1"/>
<path d="M108.011 201.923H109.011V200.923H108.011V201.923ZM81.04 197.67L81.3529 196.72L81.3529 196.72L81.04 197.67ZM45.6088 170.998L44.713 171.443L44.7131 171.443L45.6088 170.998ZM43.9742 140.064L44.9199 140.389L44.92 140.388L43.9742 140.064ZM44.0322 139.895V138.895H43.3182L43.0864 139.57L44.0322 139.895ZM44.1482 139.895V140.895H44.412L44.6414 140.765L44.1482 139.895ZM113.767 100.428L114.097 99.484L113.668 99.3347L113.274 99.5583L113.767 100.428ZM113.876 100.466L113.546 101.41L113.547 101.411L113.876 100.466ZM177.733 122.683L178.554 122.111L178.368 121.845L178.062 121.738L177.733 122.683ZM189.869 140.112L190.8 140.477L190.995 139.979L190.689 139.54L189.869 140.112ZM174.297 179.747L174.892 180.551L175.123 180.38L175.228 180.113L174.297 179.747ZM174.239 179.79L174.831 180.596L174.834 180.594L174.239 179.79ZM145.745 194.693L146.095 195.63L146.095 195.63L145.745 194.693ZM115.977 201.585L115.892 200.589L115.892 200.589L115.977 201.585ZM108.011 201.926H107.011V202.926H108.011V201.926ZM44.4181 140.318L45.3646 140.641L43.711 139.611L44.4181 140.318ZM46.0603 170.774L45.1646 171.219L45.1646 171.219L46.0603 170.774ZM81.1964 197.191L80.8836 198.141L80.8836 198.141L81.1964 197.191ZM115.924 201.081L115.839 200.084L115.839 200.084L115.924 201.081ZM145.553 194.222L145.904 195.158L145.904 195.158L145.553 194.222ZM173.879 179.424L174.471 180.229L174.704 180.058L174.809 179.79L173.879 179.424ZM189.299 140.175L190.229 140.54L190.425 140.042L190.119 139.603L189.299 140.175ZM177.41 123.102L178.231 122.53L178.045 122.264L177.739 122.157L177.41 123.102ZM113.815 100.978L114.144 100.034L113.716 99.8849L113.322 100.108L113.815 100.978ZM44.4156 140.321L43.7085 139.614L44.9088 141.191L44.4156 140.321ZM108.011 201.923V200.923C98.7749 200.923 89.8401 199.516 81.3529 196.72L81.04 197.67L80.7271 198.62C89.4233 201.485 98.5699 202.923 108.011 202.923V201.923ZM81.04 197.67L81.3529 196.72C63.9001 190.971 52.2527 182.132 46.5045 170.554L45.6088 170.998L44.7131 171.443C50.7803 183.664 62.9707 192.77 80.7271 198.62L81.04 197.67ZM45.6088 170.998L46.5045 170.554C40.3669 158.187 42.8657 146.363 44.9199 140.389L43.9742 140.064L43.0285 139.738C40.8902 145.958 38.238 158.397 44.713 171.443L45.6088 170.998ZM43.9742 140.064L44.92 140.388L44.978 140.219L44.0322 139.895L43.0864 139.57L43.0284 139.739L43.9742 140.064ZM44.0322 139.895V140.895H44.1482V139.895V138.895H44.0322V139.895ZM44.1482 139.895L44.6414 140.765L114.26 101.298L113.767 100.428L113.274 99.5583L43.6551 139.025L44.1482 139.895ZM113.767 100.428L113.438 101.372L113.546 101.41L113.876 100.466L114.205 99.5219L114.097 99.484L113.767 100.428ZM113.876 100.466L113.547 101.411L177.404 123.627L177.733 122.683L178.062 121.738L114.204 99.5216L113.876 100.466ZM177.733 122.683L176.912 123.254L189.048 140.683L189.869 140.112L190.689 139.54L178.554 122.111L177.733 122.683ZM189.869 140.112L188.938 139.746L173.367 179.381L174.297 179.747L175.228 180.113L190.8 140.477L189.869 140.112ZM174.297 179.747L173.703 178.943L173.645 178.986L174.239 179.79L174.834 180.594L174.892 180.551L174.297 179.747ZM174.239 179.79L173.648 178.983C173.566 179.044 162.333 187.421 145.395 193.757L145.745 194.693L146.095 195.63C154.692 192.414 161.84 188.682 166.854 185.742C169.361 184.272 171.337 182.999 172.696 182.086C173.376 181.63 173.901 181.264 174.261 181.008C174.441 180.88 174.58 180.779 174.677 180.709C174.725 180.674 174.762 180.647 174.789 180.627C174.802 180.617 174.813 180.61 174.82 180.604C174.83 180.597 174.831 180.596 174.831 180.596L174.239 179.79ZM145.745 194.693L145.395 193.757C135.45 197.476 125.523 199.772 115.892 200.589L115.977 201.585L116.061 202.582C125.89 201.748 135.996 199.408 146.095 195.63L145.745 194.693ZM115.977 201.585L115.892 200.589C113.243 200.813 110.613 200.926 108.011 200.926V201.926V202.926C110.67 202.926 113.357 202.811 116.061 202.582L115.977 201.585ZM108.011 201.926H109.011V201.923H108.011H107.011V201.926H108.011ZM44.4181 140.318L43.4717 139.995C41.3638 146.173 38.8013 158.401 45.1646 171.219L46.0603 170.774L46.956 170.329C40.9287 158.188 43.3406 146.573 45.3646 140.641L44.4181 140.318ZM46.0603 170.774L45.1646 171.219C51.169 183.313 63.2616 192.337 80.8836 198.141L81.1964 197.191L81.5092 196.241C64.1893 190.537 52.6409 181.781 46.956 170.329L46.0603 170.774ZM81.1964 197.191L80.8836 198.141C91.9659 201.79 103.786 203.112 116.008 202.077L115.924 201.081L115.839 200.084C103.871 201.098 92.3223 199.801 81.5091 196.241L81.1964 197.191ZM115.924 201.081L116.008 202.077C125.791 201.249 135.85 198.918 145.904 195.158L145.553 194.222L145.203 193.285C135.304 196.987 125.424 199.273 115.839 200.084L115.924 201.081ZM145.553 194.222L145.904 195.158C162.399 188.989 173.544 180.912 174.471 180.229L173.879 179.424L173.286 178.619C172.438 179.243 161.46 187.205 145.203 193.285L145.553 194.222ZM173.879 179.424L174.809 179.79L190.229 140.54L189.299 140.175L188.368 139.809L172.948 179.058L173.879 179.424ZM189.299 140.175L190.119 139.603L178.231 122.53L177.41 123.102L176.589 123.673L188.478 140.746L189.299 140.175ZM177.41 123.102L177.739 122.157L114.144 100.034L113.815 100.978L113.486 101.923L177.082 124.046L177.41 123.102ZM113.815 100.978L113.322 100.108L43.9225 139.451L44.4156 140.321L44.9088 141.191L114.308 101.848L113.815 100.978ZM44.4156 140.321L45.1227 141.028L45.1253 141.025L44.4181 140.318L43.711 139.611L43.7085 139.614L44.4156 140.321Z" fill="#F7E0EE" mask="url(#path-21-inside-7_3118_38848)"/>
<path d="M273.046 91.2068L273.123 91.2654C273.191 91.3177 273.29 91.396 273.419 91.4978C273.676 91.7018 274.049 92.0014 274.504 92.3826C275.415 93.1451 276.659 94.2325 277.987 95.53C280.659 98.1387 283.621 101.548 284.968 104.852C285.732 106.727 285.954 108.914 285.978 110.657C285.984 111.162 285.973 111.626 285.956 112.03C282.101 105.664 275.81 101.093 270.372 98.075C267.446 96.451 264.751 95.2682 262.788 94.491C261.806 94.1023 261.007 93.8145 260.451 93.6238C260.173 93.5284 259.957 93.4575 259.809 93.4099C259.735 93.3861 259.677 93.3682 259.639 93.3562C259.619 93.3502 259.605 93.3456 259.595 93.3425L259.58 93.3376H259.579H259.578L259.38 93.2781L259.198 93.3757L194.585 128.01L190.769 121.499L258.694 83.2878L273.046 91.2068Z" fill="white" stroke="#F7E0EE"/>
<mask id="path-24-inside-8_3118_38848" fill="white">
<path d="M194.633 128.838L194.394 128.394L259.406 93.5439L259.507 93.5742C259.704 93.6322 279.251 99.6613 286.551 113.581L286.105 113.816C279.17 100.592 260.973 94.5681 259.462 94.0863L194.636 128.835L194.633 128.838Z"/>
</mask>
<path d="M194.633 128.838L194.394 128.394L259.406 93.5439L259.507 93.5742C259.704 93.6322 279.251 99.6613 286.551 113.581L286.105 113.816C279.17 100.592 260.973 94.5681 259.462 94.0863L194.636 128.835L194.633 128.838Z" fill="#7BECD1"/>
<path d="M194.633 128.838L193.753 129.313L194.391 130.494L195.34 129.545L194.633 128.838ZM194.394 128.394L193.921 127.513L193.037 127.986L193.514 128.869L194.394 128.394ZM259.406 93.5439L259.694 92.5861L259.298 92.4674L258.934 92.6626L259.406 93.5439ZM259.507 93.5742L259.22 94.5321L259.224 94.5334L259.507 93.5742ZM286.551 113.581L287.016 114.466L287.901 114.002L287.437 113.117L286.551 113.581ZM286.105 113.816L285.219 114.28L285.684 115.166L286.57 114.701L286.105 113.816ZM259.462 94.0863L259.766 93.1336L259.362 93.005L258.989 93.2049L259.462 94.0863ZM194.636 128.835L194.163 127.954L194.033 128.024L193.929 128.128L194.636 128.835ZM194.633 128.838L195.513 128.363L195.274 127.919L194.394 128.394L193.514 128.869L193.753 129.313L194.633 128.838ZM194.394 128.394L194.866 129.275L259.879 94.4253L259.406 93.5439L258.934 92.6626L193.921 127.513L194.394 128.394ZM259.406 93.5439L259.119 94.5018L259.22 94.532L259.507 93.5742L259.795 92.6164L259.694 92.5861L259.406 93.5439ZM259.507 93.5742L259.224 94.5334C259.223 94.533 259.3 94.5565 259.453 94.6063C259.603 94.6551 259.82 94.7275 260.098 94.824C260.652 95.0171 261.446 95.3064 262.417 95.6956C264.362 96.4744 267.011 97.6507 269.878 99.2524C275.636 102.47 282.148 107.339 285.665 114.046L286.551 113.581L287.437 113.117C283.654 105.903 276.742 100.798 270.853 97.5065C264.946 94.2054 259.936 92.6581 259.79 92.615L259.507 93.5742ZM286.551 113.581L286.086 112.696L285.639 112.93L286.105 113.816L286.57 114.701L287.016 114.466L286.551 113.581ZM286.105 113.816L286.99 113.351C283.394 106.493 276.92 101.563 271.247 98.3057C265.557 95.0377 260.557 93.3859 259.766 93.1336L259.462 94.0863L259.158 95.039C259.878 95.2685 264.731 96.8696 270.251 100.04C275.789 103.221 281.881 107.914 285.219 114.28L286.105 113.816ZM259.462 94.0863L258.989 93.2049L194.163 127.954L194.636 128.835L195.108 129.717L259.934 94.9677L259.462 94.0863ZM194.636 128.835L193.929 128.128L193.926 128.131L194.633 128.838L195.34 129.545L195.343 129.542L194.636 128.835Z" fill="#F7E0EE" mask="url(#path-24-inside-8_3118_38848)"/>
<mask id="path-26-inside-9_3118_38848" fill="white">
<path d="M248.482 145.467H248.462L248.422 145.462L199.707 136.734H199.593L199.515 136.62L189.221 121.081L258.582 82.6765L258.691 82.7144C258.744 82.7345 264.154 84.7022 270.138 88.365C280.167 94.5051 284.085 100.612 285.606 104.656C287.619 110.012 287.044 115.609 283.898 121.293C276.906 133.923 267.651 139.824 261.117 142.548C254.251 145.411 248.86 145.467 248.482 145.467ZM199.876 136.252L248.487 144.962C248.853 144.962 254.165 144.907 260.946 142.072C267.398 139.375 276.54 133.538 283.457 121.046C286.529 115.496 287.092 110.042 285.134 104.83C280.145 91.5587 260.267 83.842 258.625 83.2265L189.942 121.255L199.873 136.249L199.876 136.252Z"/>
</mask>
<path d="M248.482 145.467H248.462L248.422 145.462L199.707 136.734H199.593L199.515 136.62L189.221 121.081L258.582 82.6765L258.691 82.7144C258.744 82.7345 264.154 84.7022 270.138 88.365C280.167 94.5051 284.085 100.612 285.606 104.656C287.619 110.012 287.044 115.609 283.898 121.293C276.906 133.923 267.651 139.824 261.117 142.548C254.251 145.411 248.86 145.467 248.482 145.467ZM199.876 136.252L248.487 144.962C248.853 144.962 254.165 144.907 260.946 142.072C267.398 139.375 276.54 133.538 283.457 121.046C286.529 115.496 287.092 110.042 285.134 104.83C280.145 91.5587 260.267 83.842 258.625 83.2265L189.942 121.255L199.873 136.249L199.876 136.252Z" fill="#7BECD1"/>
<path d="M248.462 145.467L248.338 146.459L248.4 146.467H248.462V145.467ZM248.422 145.462L248.245 146.446L248.271 146.451L248.297 146.454L248.422 145.462ZM199.707 136.734L199.883 135.749L199.796 135.734H199.707V136.734ZM199.593 136.734L198.77 137.301L199.068 137.734H199.593V136.734ZM199.515 136.62L198.681 137.172L198.686 137.18L198.692 137.188L199.515 136.62ZM189.221 121.081L188.736 120.206L187.789 120.73L188.387 121.633L189.221 121.081ZM258.582 82.6765L258.912 81.7323L258.489 81.585L258.098 81.8017L258.582 82.6765ZM258.691 82.7144L259.047 81.7799L259.033 81.7748L259.02 81.7702L258.691 82.7144ZM270.138 88.365L270.66 87.5122L270.66 87.5121L270.138 88.365ZM285.606 104.656L286.542 104.304L286.542 104.304L285.606 104.656ZM283.898 121.293L284.773 121.777L284.773 121.777L283.898 121.293ZM261.117 142.548L261.502 143.471L261.502 143.471L261.117 142.548ZM199.876 136.252L199.169 136.959L199.391 137.181L199.699 137.236L199.876 136.252ZM248.487 144.962L248.311 145.947L248.398 145.962H248.487V144.962ZM260.946 142.072L260.56 141.149L260.56 141.149L260.946 142.072ZM283.457 121.046L284.332 121.53L284.332 121.53L283.457 121.046ZM285.134 104.83L286.07 104.479L286.07 104.478L285.134 104.83ZM258.625 83.2265L258.976 82.2901L258.544 82.1282L258.141 82.3516L258.625 83.2265ZM189.942 121.255L189.458 120.38L188.511 120.904L189.108 121.807L189.942 121.255ZM199.873 136.249L199.04 136.802L199.095 136.885L199.166 136.956L199.873 136.249ZM248.482 145.467V144.467H248.462V145.467V146.467H248.482V145.467ZM248.462 145.467L248.586 144.475L248.546 144.47L248.422 145.462L248.297 146.454L248.338 146.459L248.462 145.467ZM248.422 145.462L248.598 144.478L199.883 135.749L199.707 136.734L199.53 137.718L248.245 146.446L248.422 145.462ZM199.707 136.734V135.734H199.593V136.734V137.734H199.707V136.734ZM199.593 136.734L200.417 136.166L200.339 136.053L199.515 136.62L198.692 137.188L198.77 137.301L199.593 136.734ZM199.515 136.62L200.349 136.068L190.054 120.529L189.221 121.081L188.387 121.633L198.681 137.172L199.515 136.62ZM189.221 121.081L189.705 121.956L259.067 83.5514L258.582 82.6765L258.098 81.8017L188.736 120.206L189.221 121.081ZM258.582 82.6765L258.253 83.6207L258.361 83.6586L258.691 82.7144L259.02 81.7702L258.912 81.7323L258.582 82.6765ZM258.691 82.7144L258.335 83.6488C258.377 83.665 263.716 85.606 269.616 89.2179L270.138 88.365L270.66 87.5121C267.624 85.6535 264.736 84.2269 262.602 83.2624C261.534 82.7798 260.653 82.412 260.033 82.1629C259.723 82.0383 259.479 81.9433 259.309 81.8785C259.224 81.8461 259.158 81.8212 259.112 81.804C259.089 81.7954 259.071 81.7887 259.058 81.784C259.039 81.777 259.042 81.7782 259.047 81.7799L258.691 82.7144ZM270.138 88.365L269.616 89.2179C279.484 95.2591 283.238 101.202 284.67 105.008L285.606 104.656L286.542 104.304C284.932 100.023 280.851 93.7511 270.66 87.5122L270.138 88.365ZM285.606 104.656L284.67 105.008C286.565 110.05 286.048 115.342 283.023 120.809L283.898 121.293L284.773 121.777C288.039 115.876 288.673 109.973 286.542 104.304L285.606 104.656ZM283.898 121.293L283.023 120.808C276.158 133.21 267.094 138.972 260.732 141.625L261.117 142.548L261.502 143.471C268.207 140.675 277.654 134.637 284.773 121.777L283.898 121.293ZM261.117 142.548L260.733 141.625C254.027 144.421 248.779 144.467 248.482 144.467V145.467V146.467C248.942 146.467 254.475 146.402 261.502 143.471L261.117 142.548ZM199.876 136.252L199.699 137.236L248.311 145.947L248.487 144.962L248.664 143.978L200.052 135.268L199.876 136.252ZM248.487 144.962V145.962C248.936 145.962 254.39 145.897 261.332 142.994L260.946 142.072L260.56 141.149C253.94 143.917 248.77 143.962 248.487 143.962V144.962ZM260.946 142.072L261.331 142.994C267.956 140.226 277.288 134.251 284.332 121.53L283.457 121.046L282.582 120.561C275.792 132.824 266.841 138.524 260.56 141.149L260.946 142.072ZM283.457 121.046L284.332 121.53C287.524 115.763 288.146 110.004 286.07 104.479L285.134 104.83L284.198 105.182C286.038 110.08 285.534 115.228 282.582 120.561L283.457 121.046ZM285.134 104.83L286.07 104.478C283.457 97.5265 277.004 92.1318 271.159 88.437C265.279 84.7207 259.829 82.6097 258.976 82.2901L258.625 83.2265L258.274 84.1628C259.064 84.4587 264.373 86.5138 270.09 90.1276C275.841 93.7629 281.822 98.8623 284.198 105.182L285.134 104.83ZM258.625 83.2265L258.141 82.3516L189.458 120.38L189.942 121.255L190.427 122.13L259.11 84.1013L258.625 83.2265ZM189.942 121.255L189.108 121.807L199.04 136.802L199.873 136.249L200.707 135.697L190.776 120.703L189.942 121.255ZM199.873 136.249L199.166 136.956L199.169 136.959L199.876 136.252L200.583 135.545L200.58 135.542L199.873 136.249Z" fill="#F7E0EE" mask="url(#path-26-inside-9_3118_38848)"/>
<mask id="path-28-inside-10_3118_38848" fill="white">
<path d="M42.9404 161.907L42.4561 161.76L46.202 149.425L46.2953 149.377L115.412 112.779L115.513 112.811L178.742 133.381L178.79 133.462L186.976 147.205L186.542 147.462L178.404 133.8L115.458 113.323L46.6258 149.773L42.9404 161.907Z"/>
</mask>
<path d="M42.9404 161.907L42.4561 161.76L46.202 149.425L46.2953 149.377L115.412 112.779L115.513 112.811L178.742 133.381L178.79 133.462L186.976 147.205L186.542 147.462L178.404 133.8L115.458 113.323L46.6258 149.773L42.9404 161.907Z" fill="#7BECD1"/>
<path d="M42.9404 161.907L42.6512 162.864L43.607 163.153L43.8972 162.197L42.9404 161.907ZM42.4561 161.76L41.4992 161.47L41.2082 162.428L42.1669 162.718L42.4561 161.76ZM46.202 149.425L45.7452 148.535L45.3683 148.729L45.2451 149.134L46.202 149.425ZM46.2953 149.377L46.7521 150.266L46.7633 150.26L46.2953 149.377ZM115.412 112.779L115.721 111.828L115.319 111.697L114.944 111.895L115.412 112.779ZM115.513 112.811L115.822 111.86L115.822 111.86L115.513 112.811ZM178.742 133.381L179.602 132.87L179.41 132.546L179.052 132.43L178.742 133.381ZM178.79 133.462L177.931 133.972L177.931 133.973L178.79 133.462ZM186.976 147.205L187.486 148.065L188.348 147.554L187.835 146.693L186.976 147.205ZM186.542 147.462L185.683 147.974L186.194 148.831L187.052 148.322L186.542 147.462ZM178.404 133.8L179.264 133.288L179.071 132.965L178.714 132.849L178.404 133.8ZM115.458 113.323L115.767 112.372L115.364 112.241L114.99 112.44L115.458 113.323ZM46.6258 149.773L46.1578 148.889L45.7899 149.084L45.6689 149.482L46.6258 149.773ZM42.9404 161.907L43.2296 160.949L42.7453 160.803L42.4561 161.76L42.1669 162.718L42.6512 162.864L42.9404 161.907ZM42.4561 161.76L43.4129 162.051L47.1588 149.715L46.202 149.425L45.2451 149.134L41.4992 161.47L42.4561 161.76ZM46.202 149.425L46.6588 150.314L46.7521 150.266L46.2953 149.377L45.8386 148.487L45.7452 148.535L46.202 149.425ZM46.2953 149.377L46.7633 150.26L115.88 113.662L115.412 112.779L114.944 111.895L45.8274 148.493L46.2953 149.377ZM115.412 112.779L115.103 113.73L115.204 113.762L115.513 112.811L115.822 111.86L115.721 111.828L115.412 112.779ZM115.513 112.811L115.204 113.762L178.433 134.332L178.742 133.381L179.052 132.43L115.822 111.86L115.513 112.811ZM178.742 133.381L177.883 133.891L177.931 133.972L178.79 133.462L179.65 132.951L179.602 132.87L178.742 133.381ZM178.79 133.462L177.931 133.973L186.117 147.716L186.976 147.205L187.835 146.693L179.65 132.95L178.79 133.462ZM186.976 147.205L186.466 146.345L186.032 146.602L186.542 147.462L187.052 148.322L187.486 148.065L186.976 147.205ZM186.542 147.462L187.401 146.95L179.264 133.288L178.404 133.8L177.545 134.311L185.683 147.974L186.542 147.462ZM178.404 133.8L178.714 132.849L115.767 112.372L115.458 113.323L115.148 114.274L178.095 134.75L178.404 133.8ZM115.458 113.323L114.99 112.44L46.1578 148.889L46.6258 149.773L47.0938 150.656L115.926 114.207L115.458 113.323ZM46.6258 149.773L45.6689 149.482L41.9835 161.616L42.9404 161.907L43.8972 162.197L47.5826 150.063L46.6258 149.773Z" fill="#F7E0EE" mask="url(#path-28-inside-10_3118_38848)"/>
<mask id="path-30-inside-11_3118_38848" fill="white">
<path d="M111.891 80.2066L111.432 79.9998L126.304 46.8602L126.355 46.8223C126.43 46.7618 134.107 40.8437 146.515 35.4579C157.967 30.4859 175.915 24.9638 196.377 26.8709C212.819 28.4047 226.569 32.8823 237.245 40.1777C248.311 47.7406 253.487 56.5949 255.881 62.6896L255.412 62.8737C251.736 53.5148 238.622 31.3183 196.332 27.3729C175.983 25.4734 158.126 30.9677 146.732 35.912C134.896 41.0481 127.389 46.6659 126.713 47.1805L111.891 80.2041V80.2066Z"/>
</mask>
<path d="M111.891 80.2066L111.432 79.9998L126.304 46.8602L126.355 46.8223C126.43 46.7618 134.107 40.8437 146.515 35.4579C157.967 30.4859 175.915 24.9638 196.377 26.8709C212.819 28.4047 226.569 32.8823 237.245 40.1777C248.311 47.7406 253.487 56.5949 255.881 62.6896L255.412 62.8737C251.736 53.5148 238.622 31.3183 196.332 27.3729C175.983 25.4734 158.126 30.9677 146.732 35.912C134.896 41.0481 127.389 46.6659 126.713 47.1805L111.891 80.2041V80.2066Z" fill="#7BECD1"/>
<path d="M111.891 80.2066L111.48 81.1184L112.891 81.754V80.2066H111.891ZM111.432 79.9998L110.519 79.5903L110.11 80.5013L111.021 80.9115L111.432 79.9998ZM126.304 46.8602L125.704 46.0603L125.498 46.2152L125.392 46.4507L126.304 46.8602ZM126.355 46.8223L126.955 47.6222L126.967 47.6129L126.98 47.6032L126.355 46.8223ZM146.515 35.4579L146.913 36.3752L146.913 36.3752L146.515 35.4579ZM196.377 26.8709L196.47 25.8753L196.47 25.8753L196.377 26.8709ZM237.245 40.1777L237.809 39.3521L237.809 39.3521L237.245 40.1777ZM255.881 62.6896L256.246 63.6205L257.177 63.255L256.812 62.324L255.881 62.6896ZM255.412 62.8737L254.481 63.2393L254.846 64.1699L255.777 63.8046L255.412 62.8737ZM196.332 27.3729L196.239 28.3686L196.239 28.3686L196.332 27.3729ZM146.732 35.912L146.334 34.9946L146.334 34.9947L146.732 35.912ZM126.713 47.1805L126.107 46.3848L125.905 46.5389L125.801 46.771L126.713 47.1805ZM111.891 80.2041L110.978 79.7946L110.891 79.99V80.2041H111.891ZM111.891 80.2066L112.302 79.2949L111.842 79.0881L111.432 79.9998L111.021 80.9115L111.48 81.1184L111.891 80.2066ZM111.432 79.9998L112.344 80.4092L127.217 47.2696L126.304 46.8602L125.392 46.4507L110.519 79.5903L111.432 79.9998ZM126.304 46.8602L126.905 47.66L126.955 47.6222L126.355 46.8223L125.755 46.0224L125.704 46.0603L126.304 46.8602ZM126.355 46.8223L126.98 47.6032C126.975 47.6066 127.45 47.2389 128.366 46.5975C129.276 45.9597 130.615 45.0562 132.338 43.9867C135.784 41.8471 140.761 39.0453 146.913 36.3752L146.515 35.4579L146.117 34.5406C133.611 39.9685 125.86 45.9375 125.73 46.0415L126.355 46.8223ZM146.515 35.4579L146.913 36.3752C158.275 31.4422 176.048 25.9806 196.284 27.8666L196.377 26.8709L196.47 25.8753C175.782 23.9471 157.659 29.5295 146.117 34.5407L146.515 35.4579ZM196.377 26.8709L196.284 27.8666C212.603 29.3889 226.179 33.8267 236.68 41.0034L237.245 40.1777L237.809 39.3521C226.96 31.938 213.035 27.4205 196.47 25.8753L196.377 26.8709ZM237.245 40.1777L236.68 41.0034C247.555 48.4353 252.617 57.1156 254.95 63.0552L255.881 62.6896L256.812 62.324C254.357 56.0743 249.067 47.0458 237.809 39.3521L237.245 40.1777ZM255.881 62.6896L255.516 61.7587L255.046 61.9429L255.412 62.8737L255.777 63.8046L256.246 63.6205L255.881 62.6896ZM255.412 62.8737L256.342 62.5082C254.455 57.7027 250.166 49.6559 240.977 42.3121C231.782 34.9642 217.741 28.3659 196.425 26.3773L196.332 27.3729L196.239 28.3686C217.213 30.3254 230.874 36.798 239.728 43.8744C248.587 50.9549 252.693 58.6859 254.481 63.2393L255.412 62.8737ZM196.332 27.3729L196.425 26.3773C175.85 24.4566 157.818 30.0114 146.334 34.9946L146.732 35.912L147.13 36.8294C158.434 31.924 176.116 26.4902 196.239 28.3686L196.332 27.3729ZM146.732 35.912L146.334 34.9947C134.401 40.1727 126.824 45.8393 126.107 46.3848L126.713 47.1805L127.319 47.9762C127.954 47.4925 135.391 41.9234 147.13 36.8294L146.732 35.912ZM126.713 47.1805L125.801 46.771L110.978 79.7946L111.891 80.2041L112.803 80.6136L127.625 47.59L126.713 47.1805ZM111.891 80.2041H110.891V80.2066H111.891H112.891V80.2041H111.891Z" fill="#F7E0EE" mask="url(#path-30-inside-11_3118_38848)"/>
<mask id="path-32-inside-12_3118_38848" fill="white">
<path d="M30.6229 150.616C20.7422 147.321 12.9931 142.44 7.58984 136.106C3.13256 130.881 1.43743 125.962 0.821937 123.498C0.592388 122.572 0.458691 121.595 0.430943 120.597L-0.00292969 106.268L0.501573 106.253L0.935446 120.581C0.963193 121.545 1.08932 122.483 1.31131 123.376C1.91419 125.798 3.58408 130.632 7.97326 135.78C13.3159 142.044 20.9894 146.872 30.7818 150.139L30.6229 150.618V150.616Z"/>
</mask>
<path d="M30.6229 150.616C20.7422 147.321 12.9931 142.44 7.58984 136.106C3.13256 130.881 1.43743 125.962 0.821937 123.498C0.592388 122.572 0.458691 121.595 0.430943 120.597L-0.00292969 106.268L0.501573 106.253L0.935446 120.581C0.963193 121.545 1.08932 122.483 1.31131 123.376C1.91419 125.798 3.58408 130.632 7.97326 135.78C13.3159 142.044 20.9894 146.872 30.7818 150.139L30.6229 150.618V150.616Z" fill="#7BECD1"/>
<path d="M30.6229 150.616H31.6229V149.895L30.9392 149.667L30.6229 150.616ZM7.58984 136.106L8.35064 135.457L8.35058 135.457L7.58984 136.106ZM0.821937 123.498L-0.148674 123.738L-0.148266 123.74L0.821937 123.498ZM0.430943 120.597L1.43056 120.569L1.43048 120.566L0.430943 120.597ZM-0.00292969 106.268L-0.0329162 105.269L-1.03275 105.299L-1.00247 106.298L-0.00292969 106.268ZM0.501573 106.253L1.50111 106.223L1.47086 105.223L0.471586 105.253L0.501573 106.253ZM0.935446 120.581L1.93503 120.553L1.93499 120.551L0.935446 120.581ZM1.31131 123.376L0.340839 123.618L0.340923 123.618L1.31131 123.376ZM7.97326 135.78L7.21225 136.429L7.21243 136.429L7.97326 135.78ZM30.7818 150.139L31.731 150.454L32.0451 149.506L31.0983 149.19L30.7818 150.139ZM30.6229 150.618H29.6229L31.5721 150.933L30.6229 150.618ZM30.6229 150.616L30.9392 149.667C21.1882 146.416 13.6094 141.622 8.35064 135.457L7.58984 136.106L6.82903 136.755C12.3767 143.258 20.2963 148.227 30.3066 151.564L30.6229 150.616ZM7.58984 136.106L8.35058 135.457C4.01521 130.375 2.37918 125.606 1.79214 123.255L0.821937 123.498L-0.148266 123.74C0.495682 126.318 2.2499 131.387 6.82909 136.755L7.58984 136.106ZM0.821937 123.498L1.79255 123.257C1.58057 122.402 1.45634 121.497 1.43056 120.569L0.430943 120.597L-0.568672 120.624C-0.538963 121.694 -0.395796 122.742 -0.148673 123.738L0.821937 123.498ZM0.430943 120.597L1.43048 120.566L0.996612 106.238L-0.00292969 106.268L-1.00247 106.298L-0.568599 120.627L0.430943 120.597ZM-0.00292969 106.268L0.0270568 107.268L0.531559 107.252L0.501573 106.253L0.471586 105.253L-0.0329162 105.269L-0.00292969 106.268ZM0.501573 106.253L-0.497969 106.283L-0.0640963 120.612L0.935446 120.581L1.93499 120.551L1.50111 106.223L0.501573 106.253ZM0.935446 120.581L-0.0641401 120.61C-0.0344291 121.642 0.100746 122.652 0.340839 123.618L1.31131 123.376L2.28177 123.135C2.0779 122.315 1.96082 121.448 1.93503 120.553L0.935446 120.581ZM1.31131 123.376L0.340923 123.618C0.972564 126.155 2.70194 131.138 7.21225 136.429L7.97326 135.78L8.73426 135.131C4.46623 130.125 2.85581 125.441 2.28169 123.135L1.31131 123.376ZM7.97326 135.78L7.21243 136.429C12.6999 142.863 20.544 147.778 30.4654 151.088L30.7818 150.139L31.0983 149.19C21.4348 145.967 13.932 141.225 8.73408 135.131L7.97326 135.78ZM30.7818 150.139L29.8326 149.824L29.6737 150.303L30.6229 150.618L31.5721 150.933L31.731 150.454L30.7818 150.139ZM30.6229 150.618H31.6229V150.616H30.6229H29.6229V150.618H30.6229Z" fill="#F7E0EE" mask="url(#path-32-inside-12_3118_38848)"/>
<mask id="path-34-inside-13_3118_38848" fill="white">
<path d="M49.1065 70.1558L48.623 70.2998L52.2033 82.3177L52.6868 82.1737L49.1065 70.1558Z"/>
</mask>
<path d="M49.1065 70.1558L48.623 70.2998L52.2033 82.3177L52.6868 82.1737L49.1065 70.1558Z" fill="#7BECD1"/>
<path d="M48.623 70.2998L48.3375 69.3414L47.3792 69.627L47.6647 70.5853L48.623 70.2998ZM49.1065 70.1558L50.0649 69.8702L49.7794 68.9118L48.821 69.1974L49.1065 70.1558ZM52.6868 82.1737L52.9723 83.1321L53.9307 82.8465L53.6452 81.8881L52.6868 82.1737ZM52.2033 82.3177L51.2449 82.6033L51.5305 83.5616L52.4888 83.2761L52.2033 82.3177ZM48.623 70.2998L48.9086 71.2582L49.3921 71.1141L49.1065 70.1558L48.821 69.1974L48.3375 69.3414L48.623 70.2998ZM49.1065 70.1558L48.1482 70.4413L51.7284 82.4592L52.6868 82.1737L53.6452 81.8881L50.0649 69.8702L49.1065 70.1558ZM52.6868 82.1737L52.4013 81.2153L51.9178 81.3594L52.2033 82.3177L52.4888 83.2761L52.9723 83.1321L52.6868 82.1737ZM52.2033 82.3177L53.1617 82.0322L49.5814 70.0143L48.623 70.2998L47.6647 70.5853L51.2449 82.6033L52.2033 82.3177Z" fill="#F7E0EE" mask="url(#path-34-inside-13_3118_38848)"/>
<mask id="path-36-inside-14_3118_38848" fill="white">
<path d="M97.9647 78.612L97.4629 78.6707L98.8327 90.3843L99.3345 90.3256L97.9647 78.612Z"/>
</mask>
<path d="M97.9647 78.612L97.4629 78.6707L98.8327 90.3843L99.3345 90.3256L97.9647 78.612Z" fill="#7BECD1"/>
<path d="M97.4629 78.6707L97.3467 77.6774L96.3535 77.7936L96.4697 78.7868L97.4629 78.6707ZM97.9647 78.612L98.958 78.4958L98.8418 77.5026L97.8486 77.6187L97.9647 78.612ZM99.3345 90.3256L99.4506 91.3189L100.444 91.2027L100.328 90.2095L99.3345 90.3256ZM98.8327 90.3843L97.8394 90.5005L97.9556 91.4937L98.9488 91.3775L98.8327 90.3843ZM97.4629 78.6707L97.579 79.6639L98.0809 79.6052L97.9647 78.612L97.8486 77.6187L97.3467 77.6774L97.4629 78.6707ZM97.9647 78.612L96.9715 78.7281L98.3413 90.4418L99.3345 90.3256L100.328 90.2095L98.958 78.4958L97.9647 78.612ZM99.3345 90.3256L99.2184 89.3324L98.7165 89.3911L98.8327 90.3843L98.9488 91.3775L99.4506 91.3189L99.3345 90.3256ZM98.8327 90.3843L99.8259 90.2682L98.4561 78.5545L97.4629 78.6707L96.4697 78.7868L97.8394 90.5005L98.8327 90.3843Z" fill="#F7E0EE" mask="url(#path-36-inside-14_3118_38848)"/>
<mask id="path-38-inside-15_3118_38848" fill="white">
<path d="M114.038 100.683L113.537 100.749L115.178 113.1L115.679 113.034L114.038 100.683Z"/>
</mask>
<path d="M114.038 100.683L113.537 100.749L115.178 113.1L115.679 113.034L114.038 100.683Z" fill="#7BECD1"/>
<path d="M113.537 100.749L113.405 99.758L112.414 99.8897L112.546 100.881L113.537 100.749ZM114.038 100.683L115.029 100.551L114.898 99.5597L113.906 99.6914L114.038 100.683ZM115.679 113.034L115.811 114.025L116.802 113.893L116.671 112.902L115.679 113.034ZM115.178 113.1L114.187 113.232L114.319 114.223L115.31 114.091L115.178 113.1ZM113.537 100.749L113.669 101.741L114.17 101.674L114.038 100.683L113.906 99.6914L113.405 99.758L113.537 100.749ZM114.038 100.683L113.047 100.814L114.688 113.165L115.679 113.034L116.671 112.902L115.029 100.551L114.038 100.683ZM115.679 113.034L115.548 112.042L115.047 112.109L115.178 113.1L115.31 114.091L115.811 114.025L115.679 113.034ZM115.178 113.1L116.17 112.968L114.528 100.618L113.537 100.749L112.546 100.881L114.187 113.232L115.178 113.1Z" fill="#F7E0EE" mask="url(#path-38-inside-15_3118_38848)"/>
<mask id="path-40-inside-16_3118_38848" fill="white">
<path d="M177.831 122.856L177.328 122.903L178.33 133.603L178.833 133.556L177.831 122.856Z"/>
</mask>
<path d="M177.831 122.856L177.328 122.903L178.33 133.603L178.833 133.556L177.831 122.856Z" fill="#7BECD1"/>
<path d="M177.328 122.903L177.235 121.908L176.239 122.001L176.332 122.997L177.328 122.903ZM177.831 122.856L178.827 122.763L178.734 121.767L177.738 121.861L177.831 122.856ZM178.833 133.556L178.926 134.552L179.922 134.458L179.829 133.463L178.833 133.556ZM178.33 133.603L177.334 133.696L177.428 134.692L178.423 134.599L178.33 133.603ZM177.328 122.903L177.421 123.899L177.924 123.852L177.831 122.856L177.738 121.861L177.235 121.908L177.328 122.903ZM177.831 122.856L176.836 122.949L177.838 133.649L178.833 133.556L179.829 133.463L178.827 122.763L177.831 122.856ZM178.833 133.556L178.74 132.56L178.237 132.607L178.33 133.603L178.423 134.599L178.926 134.552L178.833 133.556ZM178.33 133.603L179.326 133.51L178.324 122.81L177.328 122.903L176.332 122.997L177.334 133.696L178.33 133.603Z" fill="#F7E0EE" mask="url(#path-40-inside-16_3118_38848)"/>
<mask id="path-42-inside-17_3118_38848" fill="white">
<path d="M125.601 35.5914L125.099 35.6426L126.259 47.0466L126.762 46.9955L125.601 35.5914Z"/>
</mask>
<path d="M125.601 35.5914L125.099 35.6426L126.259 47.0466L126.762 46.9955L125.601 35.5914Z" fill="#7BECD1"/>
<path d="M125.099 35.6426L124.997 34.6477L124.003 34.7489L124.104 35.7438L125.099 35.6426ZM125.601 35.5914L126.596 35.4902L126.495 34.4953L125.5 34.5966L125.601 35.5914ZM126.762 46.9955L126.863 47.9904L127.858 47.8891L127.757 46.8943L126.762 46.9955ZM126.259 47.0466L125.264 47.1479L125.365 48.1427L126.36 48.0415L126.259 47.0466ZM125.099 35.6426L125.2 36.6374L125.703 36.5863L125.601 35.5914L125.5 34.5966L124.997 34.6477L125.099 35.6426ZM125.601 35.5914L124.606 35.6927L125.767 47.0967L126.762 46.9955L127.757 46.8943L126.596 35.4902L125.601 35.5914ZM126.762 46.9955L126.66 46.0006L126.158 46.0518L126.259 47.0466L126.36 48.0415L126.863 47.9904L126.762 46.9955ZM126.259 47.0466L127.254 46.9454L126.093 35.5413L125.099 35.6426L124.104 35.7438L125.264 47.1479L126.259 47.0466Z" fill="#F7E0EE" mask="url(#path-42-inside-17_3118_38848)"/>
</g>
</g>
</g>
<defs>
<clipPath id="clip0_3118_38848">
<rect width="251" height="139" fill="white"/>
</clipPath>
</defs>
</svg>
