<svg xmlns="http://www.w3.org/2000/svg" width="568" height="320" fill="none"><path fill="#25262E" d="M0 0h568v320H0z"/><g filter="url(#a)"><rect width="384" height="124" x="160" y="24" fill="#1D1E24" rx="4"/></g><rect width="120" height="4" x="292" y="32" fill="#A7AFBE" rx="2"/><rect width="16" height="4" x="176" y="56" fill="#535966" rx="2"/><rect width="24" height="4" x="237" y="136" fill="#535966" rx="2"/><rect width="24" height="4" x="317" y="136" fill="#535966" rx="2"/><rect width="24" height="4" x="397" y="136" fill="#535966" rx="2"/><rect width="24" height="4" x="477" y="136" fill="#535966" rx="2"/><rect width="24" height="4" x="168" y="76" fill="#535966" rx="2"/><rect width="20" height="4" x="172" y="96" fill="#535966" rx="2"/><rect width="16" height="4" x="176" y="116" fill="#535966" rx="2" transform="rotate(-.17 176 116)"/><path stroke="#343741" stroke-linecap="round" stroke-linejoin="round" d="M200.5 48.5V58m335 69.5H489M200.5 58h-4m4 0v20m0 0h-4m4 0v20m0 0h-4m4 0v20m0 0v9.5H249m-48.5-9.5h-4m52.5 13.5v-4m0 0h80m0 0v4m0-4h80m0 0v4m0-4h80m0 0v4"/><rect width="16" height="24" x="210" y="101" fill="#54B399" rx="1"/><rect width="16" height="28" x="230" y="97" fill="#54B399" rx="1"/><rect width="16" height="26" x="250" y="99" fill="#54B399" rx="1"/><rect width="16" height="33" x="270" y="92" fill="#54B399" rx="1"/><rect width="16" height="72" x="290" y="53" fill="#54B399" rx="1"/><rect width="16" height="66" x="310" y="59" fill="#54B399" rx="1"/><rect width="16" height="24" x="330" y="101" fill="#54B399" rx="1"/><rect width="16" height="20" x="350" y="105" fill="#54B399" rx="1"/><rect width="16" height="22" x="370" y="103" fill="#54B399" rx="1"/><rect width="16" height="36" x="390" y="89" fill="#54B399" rx="1"/><rect width="16" height="72" x="410" y="53" fill="#54B399" rx="1"/><rect width="16" height="62" x="430" y="63" fill="#54B399" rx="1"/><rect width="16" height="16" x="450" y="109" fill="#54B399" rx="1"/><rect width="16" height="13" x="470" y="112" fill="#54B399" rx="1"/><rect width="16" height="24" x="490" y="101" fill="#54B399" rx="1"/><rect width="16" height="20" x="510" y="105" fill="#54B399" rx="1"/><g filter="url(#b)"><rect width="112" height="272" x="24" y="24" fill="#1D1E24" rx="4"/></g><rect width="58" height="4" x="32" y="32" fill="#A7AFBE" rx="2"/><rect width="51" height="4" x="32" y="88" fill="#535966" rx="2"/><rect width="63" height="4" x="40" y="100" fill="#343741" rx="2"/><rect width="54" height="4" x="40" y="112" fill="#343741" rx="2"/><rect width="72" height="4" x="40" y="124" fill="#343741" rx="2"/><rect width="68" height="4" x="40" y="136" fill="#343741" rx="2"/><rect width="43" height="4" x="32" y="164" fill="#535966" rx="2"/><rect width="68" height="4" x="40" y="176" fill="#343741" rx="2"/><rect width="63" height="4" x="40" y="188" fill="#343741" rx="2"/><rect width="78" height="4" x="40" y="200" fill="#343741" rx="2"/><rect width="50" height="4" x="40" y="212" fill="#343741" rx="2"/><rect width="78" height="4" x="40" y="224" fill="#343741" rx="2"/><rect width="68" height="4" x="40" y="236" fill="#343741" rx="2"/><rect width="61" height="4" x="40" y="248" fill="#343741" rx="2"/><rect width="66" height="4" x="40" y="260" fill="#343741" rx="2"/><rect width="63" height="4" x="40" y="272" fill="#343741" rx="2"/><rect width="70" height="4" x="40" y="284" fill="#343741" rx="2"/><rect width="95" height="15" x="32.5" y="48.5" fill="#1D1E24" stroke="#343741" rx=".5"/><path fill="#535966" fill-rule="evenodd" d="M44 55a3 3 0 1 1-6 0 3 3 0 0 1 6 0m1 0a4 4 0 0 1-6.453 3.16l-2.693 2.694a.5.5 0 0 1-.708-.708l2.694-2.693A4 4 0 1 1 45 55" clip-rule="evenodd"/><rect width="4" height="4" x="32" y="100" fill="#535966" rx="1"/><rect width="4" height="4" x="32" y="112" fill="#535966" rx="1"/><rect width="4" height="4" x="32" y="124" fill="#535966" rx="1"/><rect width="4" height="4" x="32" y="136" fill="#535966" rx="1"/><rect width="4" height="4" x="32" y="176" fill="#535966" rx="1"/><rect width="4" height="4" x="32" y="188" fill="#535966" rx="1"/><rect width="4" height="4" x="32" y="200" fill="#535966" rx="1"/><rect width="4" height="4" x="32" y="212" fill="#535966" rx="1"/><rect width="4" height="4" x="32" y="224" fill="#535966" rx="1"/><rect width="4" height="4" x="32" y="236" fill="#535966" rx="1"/><rect width="4" height="4" x="32" y="248" fill="#535966" rx="1"/><rect width="4" height="4" x="32" y="260" fill="#535966" rx="1"/><rect width="4" height="4" x="32" y="272" fill="#535966" rx="1"/><rect width="4" height="4" x="32" y="284" fill="#535966" rx="1"/><g filter="url(#c)"><rect width="384" height="124" x="160" y="172" fill="#1D1E24" rx="4"/></g><rect width="54" height="4" x="178" y="180" fill="#535966" rx="2"/><rect width="32" height="4" x="270" y="180" fill="#535966" rx="2"/><rect width="50" height="4" x="362" y="180" fill="#535966" rx="2"/><rect width="55" height="4" x="454" y="180" fill="#535966" rx="2"/><rect width="59" height="4" x="178" y="200" fill="#343741" rx="2"/><rect width="39" height="4" x="270" y="200" fill="#343741" rx="2"/><rect width="57" height="4" x="362" y="200" fill="#343741" rx="2"/><rect width="45" height="4" x="454" y="200" fill="#343741" rx="2"/><path stroke="#434548" stroke-linecap="round" stroke-linejoin="round" d="m168.5 200.5 1.5 1.5-1.5 1.5"/><rect width="52" height="4" x="178" y="212" fill="#343741" rx="2"/><rect width="44" height="4" x="270" y="212" fill="#343741" rx="2"/><rect width="50" height="4" x="362" y="212" fill="#343741" rx="2"/><rect width="39" height="4" x="454" y="212" fill="#343741" rx="2"/><path stroke="#434548" stroke-linecap="round" stroke-linejoin="round" d="m168.5 212.5 1.5 1.5-1.5 1.5"/><rect width="54" height="4" x="178" y="224" fill="#343741" rx="2"/><rect width="34" height="4" x="270" y="224" fill="#343741" rx="2"/><rect width="55" height="4" x="362" y="224" fill="#343741" rx="2"/><rect width="59" height="4" x="454" y="224" fill="#343741" rx="2"/><path stroke="#434548" stroke-linecap="round" stroke-linejoin="round" d="m168.5 224.5 1.5 1.5-1.5 1.5"/><rect width="57" height="4" x="178" y="236" fill="#343741" rx="2"/><rect width="51" height="4" x="270" y="236" fill="#343741" rx="2"/><rect width="48" height="4" x="362" y="236" fill="#343741" rx="2"/><rect width="51" height="4" x="454" y="236" fill="#343741" rx="2"/><path stroke="#434548" stroke-linecap="round" stroke-linejoin="round" d="m168.5 236.5 1.5 1.5-1.5 1.5"/><rect width="47" height="4" x="178" y="248" fill="#343741" rx="2"/><rect width="48" height="4" x="270" y="248" fill="#343741" rx="2"/><rect width="50" height="4" x="362" y="248" fill="#343741" rx="2"/><rect width="54" height="4" x="454" y="248" fill="#343741" rx="2"/><path stroke="#434548" stroke-linecap="round" stroke-linejoin="round" d="m168.5 248.5 1.5 1.5-1.5 1.5"/><rect width="63" height="4" x="178" y="260" fill="#343741" rx="2"/><rect width="44" height="4" x="270" y="260" fill="#343741" rx="2"/><rect width="46" height="4" x="362" y="260" fill="#343741" rx="2"/><rect width="47" height="4" x="454" y="260" fill="#343741" rx="2"/><path stroke="#434548" stroke-linecap="round" stroke-linejoin="round" d="m168.5 260.5 1.5 1.5-1.5 1.5"/><rect width="54" height="4" x="178" y="272" fill="#343741" rx="2"/><rect width="56" height="4" x="270" y="272" fill="#343741" rx="2"/><rect width="57" height="4" x="362" y="272" fill="#343741" rx="2"/><rect width="53" height="4" x="454" y="272" fill="#343741" rx="2"/><path stroke="#434548" stroke-linecap="round" stroke-linejoin="round" d="m168.5 272.5 1.5 1.5-1.5 1.5"/><rect width="60" height="4" x="178" y="284" fill="#343741" rx="2"/><rect width="51" height="4" x="270" y="284" fill="#343741" rx="2"/><rect width="50" height="4" x="362" y="284" fill="#343741" rx="2"/><rect width="62" height="4" x="454" y="284" fill="#343741" rx="2"/><path stroke="#434548" stroke-linecap="round" stroke-linejoin="round" d="m168.5 284.5 1.5 1.5-1.5 1.5"/><path stroke="#343741" stroke-linecap="round" stroke-linejoin="round" d="M168.5 192h367"/><defs><filter id="a" width="416" height="156" x="144" y="12" color-interpolation-filters="sRGB" filterUnits="userSpaceOnUse"><feFlood flood-opacity="0" result="BackgroundImageFix"/><feColorMatrix in="SourceAlpha" values="0 0 0 0 0 0 0 0 0 0 0 0 0 0 0 0 0 0 127 0"/><feOffset dy="4"/><feGaussianBlur stdDeviation="8"/><feColorMatrix values="0 0 0 0 0 0 0 0 0 0 0 0 0 0 0 0 0 0 0.05 0"/><feBlend in2="BackgroundImageFix" result="effect1_dropShadow"/><feBlend in="SourceGraphic" in2="effect1_dropShadow" result="shape"/></filter><filter id="b" width="144" height="304" x="8" y="12" color-interpolation-filters="sRGB" filterUnits="userSpaceOnUse"><feFlood flood-opacity="0" result="BackgroundImageFix"/><feColorMatrix in="SourceAlpha" values="0 0 0 0 0 0 0 0 0 0 0 0 0 0 0 0 0 0 127 0"/><feOffset dy="4"/><feGaussianBlur stdDeviation="8"/><feColorMatrix values="0 0 0 0 0 0 0 0 0 0 0 0 0 0 0 0 0 0 0.05 0"/><feBlend in2="BackgroundImageFix" result="effect1_dropShadow"/><feBlend in="SourceGraphic" in2="effect1_dropShadow" result="shape"/></filter><filter id="c" width="416" height="156" x="144" y="160" color-interpolation-filters="sRGB" filterUnits="userSpaceOnUse"><feFlood flood-opacity="0" result="BackgroundImageFix"/><feColorMatrix in="SourceAlpha" values="0 0 0 0 0 0 0 0 0 0 0 0 0 0 0 0 0 0 127 0"/><feOffset dy="4"/><feGaussianBlur stdDeviation="8"/><feColorMatrix values="0 0 0 0 0 0 0 0 0 0 0 0 0 0 0 0 0 0 0.05 0"/><feBlend in2="BackgroundImageFix" result="effect1_dropShadow"/><feBlend in="SourceGraphic" in2="effect1_dropShadow" result="shape"/></filter></defs></svg>