<svg xmlns="http://www.w3.org/2000/svg" width="584" height="347" fill="none"><g filter="url(#a)"><rect width="520" height="124" x="24" y="117" fill="#25262E" rx="4"/></g><rect width="101" height="4" x="32" y="125" fill="#A7AFBE" rx="2"/><rect width="18" height="4" x="38" y="145" fill="#535966" rx="2"/><rect width="24" height="4" x="32" y="166" fill="#535966" rx="2"/><rect width="16" height="4" x="40" y="187" fill="#535966" rx="2"/><rect width="20" height="4" x="36" y="208" fill="#535966" rx="2"/><rect width="24" height="4" x="72" y="229" fill="#535966" rx="2"/><rect width="24" height="4" x="216" y="229" fill="#535966" rx="2"/><rect width="24" height="4" x="360" y="229" fill="#535966" rx="2"/><rect width="24" height="4" x="504" y="229" fill="#535966" rx="2"/><path fill="#54B399" d="M80.177 211 65 203v17h470.5v-36.5l-15.177 12.692-15.178 1.346-15.177-8.846-15.178 17.885-15.177.961-15.178-5.384-15.177-.769-15.177 5.384-15.178-5.846-15.177-40.615-15.178 18.077-15.177-38.462L338.194 197l-15.178-16.308-15.177 12.923-15.178-9.538-15.177 5.615-15.178-24.384L247.129 164l-15.177-15.615-15.178 49.077-15.177 4.615-15.178-22.154-15.177-5.385L156.065 143l-15.178 37.923-15.177 6.923-15.178 19.692-15.177-4.692z" opacity=".1"/><path stroke="#54B399" stroke-linecap="round" stroke-linejoin="round" d="m65 203 15.177 8 15.178-8.154 15.177 4.692 15.178-19.692 15.177-6.923L156.065 143l15.177 31.538 15.177 5.385 15.178 22.154 15.177-4.615 15.178-49.077L247.129 164l15.177 1.308 15.178 24.384 15.177-5.615 15.178 9.538 15.177-12.923L338.194 197l15.177-57.077 15.177 38.462 15.178-18.077 15.177 40.615 15.178 5.846 15.177-5.384 15.177.769 15.178 5.384 15.177-.961 15.178-17.885 15.177 8.846 15.178-1.346L535.5 183.5"/><circle cx="100" cy="156" r="8" fill="#6092C0" opacity=".1"/><circle cx="232" cy="148" r="8" fill="#6092C0" opacity=".1"/><circle cx="323" cy="181" r="8" fill="#6092C0" opacity=".1"/><circle cx="353" cy="140" r="8" fill="#6092C0" opacity=".1"/><circle cx="523" cy="140" r="8" fill="#6092C0" opacity=".1"/><circle cx="106" cy="161" r="4" fill="#6092C0" opacity=".1"/><circle cx="156" cy="143" r="4" fill="#6092C0" opacity=".1"/><circle cx="240" cy="148" r="4" fill="#6092C0" opacity=".1"/><circle cx="262" cy="165" r="4" fill="#6092C0" opacity=".1"/><circle cx="345" cy="141" r="4" fill="#6092C0" opacity=".1"/><circle cx="484" cy="185" r="4" fill="#7DE2D1" opacity=".1"/><circle cx="490" cy="189" r="4" fill="#7DE2D1" opacity=".1"/><circle cx="100" cy="156" r="7.5" stroke="#6092C0"/><circle cx="232" cy="148" r="7.5" stroke="#6092C0"/><circle cx="323" cy="181" r="7.5" stroke="#6092C0"/><circle cx="353" cy="140" r="7.5" stroke="#6092C0"/><circle cx="523" cy="140" r="7.5" stroke="#6092C0"/><circle cx="106" cy="161" r="3.5" stroke="#6092C0"/><circle cx="156" cy="143" r="3.5" stroke="#6092C0"/><circle cx="240" cy="148" r="3.5" stroke="#6092C0"/><circle cx="262" cy="165" r="3.5" stroke="#6092C0"/><circle cx="345" cy="141" r="3.5" stroke="#6092C0"/><circle cx="484" cy="185" r="3.5" stroke="#7DE2D1"/><circle cx="490" cy="189" r="3.5" stroke="#7DE2D1"/><path stroke="#343741" stroke-linecap="round" stroke-linejoin="round" d="M64.5 137.5v9.5m471 73.5H516M64.5 147h-4m4 0v21m0 0h-4m4 0v21m0 0h-4m4 0v21m0 0v10.5H84M64.5 210h-4M84 224.5v-4m0 0h144m0 0v4m0-4h144m0 0v4m0-4h144m0 0v4"/><g filter="url(#b)"><rect width="248" height="124" x="160" y="12" fill="#25262E" rx="4"/></g><rect width="80" height="4" x="168" y="20" fill="#A7AFBE" rx="2"/><path fill="#54B399" d="M312.284 108.284a39.996 39.996 0 0 0-10.054-63.888 40 40 0 0 0-24.383-3.92l2.461 15.81a23.999 23.999 0 0 1 20.663 40.685z"/><mask id="c" width="72" height="31" x="249" y="90" fill="#000" maskUnits="userSpaceOnUse"><path fill="#fff" d="M249 90h72v31h-72z"/><path d="M250.416 101.728a40 40 0 0 0 34.591 18.259 40 40 0 0 0 33.628-19.976l-13.854-8.005a24 24 0 0 1-20.177 11.986 24 24 0 0 1-20.755-10.955z"/></mask><path fill="#6092C0" d="M250.416 101.728a40 40 0 0 0 34.591 18.259 40 40 0 0 0 33.628-19.976l-13.854-8.005a24 24 0 0 1-20.177 11.986 24 24 0 0 1-20.755-10.955z"/><path stroke="#1D1E24" stroke-width="2" d="M250.416 101.728a40 40 0 0 0 34.591 18.259 40 40 0 0 0 33.628-19.976l-13.854-8.005a24 24 0 0 1-20.177 11.986 24 24 0 0 1-20.755-10.955z" mask="url(#c)"/><mask id="d" width="24" height="54" x="243" y="53" fill="#000" maskUnits="userSpaceOnUse"><path fill="#fff" d="M243 53h24v54h-24z"/><path d="M252.645 55.163a40 40 0 0 0 .54 50.341l12.326-10.202a24 24 0 0 1-.324-30.204z"/></mask><path fill="#D36086" d="M252.645 55.163a40 40 0 0 0 .54 50.341l12.326-10.202a24 24 0 0 1-.324-30.204z"/><path stroke="#1D1E24" stroke-width="2" d="M252.645 55.163a40 40 0 0 0 .54 50.341l12.326-10.202a24 24 0 0 1-.324-30.204z" mask="url(#d)"/><mask id="e" width="37" height="30" x="248" y="39" fill="#000" maskUnits="userSpaceOnUse"><path fill="#fff" d="M248 39h37v30h-37z"/><path d="M284 40a40 40 0 0 0-33.929 18.814l13.572 8.474A24 24 0 0 1 284 56z"/></mask><path fill="#9170B8" d="M284 40a40 40 0 0 0-33.929 18.814l13.572 8.474A24 24 0 0 1 284 56z"/><path stroke="#1D1E24" stroke-width="2" d="M284 40a40 40 0 0 0-33.929 18.814l13.572 8.474A24 24 0 0 1 284 56z" mask="url(#e)"/><rect width="22" height="4" x="231" y="32" fill="#535966" rx="2"/><rect width="16" height="4" x="209" y="90" fill="#535966" rx="2"/><rect width="24" height="4" x="305" y="124" fill="#535966" rx="2"/><rect width="24" height="4" x="335" y="50" fill="#535966" rx="2"/><path stroke="#343741" stroke-linecap="round" stroke-linejoin="round" d="M257.5 34h4l4 8.5m65 9.5h-4l-7 4.5m-26.5 64 3.5 5.5h4m-58-41-9 7h-4"/><g filter="url(#f)"><rect width="228" height="111" x="48" y="216" fill="#25262E" rx="4"/><rect width="12" height="4" x="52" y="220" fill="#54B399" rx="1"/><rect width="12" height="4" x="68" y="220" fill="#6092C0" rx="1"/><rect width="12" height="4" x="84" y="220" fill="#D36086" rx="1"/><rect width="12" height="4" x="100" y="220" fill="#9170B8" rx="1"/><path stroke="#343741" d="m167 283 24 12m0 0-24 12m24-12 24 12m-24-12h34m-34 0 24-12m-98-32 16 20m0 0-34-12m34 12h-24m24 0-34 12m34-12-16 20m16-20 16 20m-16-20h24m-24 0 16-20m-16 20 34-12m-34 12 34 12m0-48 24 12m0 0-24 12m24-12 24-12m-24 12 24 12"/><circle cx="133" cy="271" r="4.5" fill="#9170B8" stroke="#1D1E24"/><circle cx="191" cy="295" r="4.5" fill="#6092C0" stroke="#1D1E24"/><circle cx="191" cy="247" r="4.5" fill="#D36086" stroke="#1D1E24"/><circle cx="149" cy="251" r="4.5" fill="#54B399" stroke="#1D1E24"/><circle cx="167" cy="235" r="4.5" fill="#54B399" stroke="#1D1E24"/><circle cx="215" cy="235" r="4.5" fill="#54B399" stroke="#1D1E24"/><circle cx="215" cy="259" r="4.5" fill="#54B399" stroke="#1D1E24"/><circle cx="215" cy="307" r="4.5" fill="#54B399" stroke="#1D1E24"/><circle cx="225" cy="295" r="4.5" fill="#54B399" stroke="#1D1E24"/><circle cx="215" cy="283" r="4.5" fill="#54B399" stroke="#1D1E24"/><circle cx="167" cy="259" r="4.5" fill="#54B399" stroke="#1D1E24"/><circle cx="167" cy="283" r="4.5" fill="#54B399" stroke="#1D1E24"/><circle cx="167" cy="307" r="4.5" fill="#54B399" stroke="#1D1E24"/><circle cx="157" cy="271" r="4.5" fill="#54B399" stroke="#1D1E24"/><circle cx="149" cy="291" r="4.5" fill="#54B399" stroke="#1D1E24"/><circle cx="117" cy="251" r="4.5" fill="#54B399" stroke="#1D1E24"/><circle cx="109" cy="271" r="4.5" fill="#54B399" stroke="#1D1E24"/><circle cx="117" cy="291" r="4.5" fill="#54B399" stroke="#1D1E24"/><circle cx="99" cy="283" r="4.5" fill="#54B399" stroke="#1D1E24"/><circle cx="99" cy="259" r="4.5" fill="#54B399" stroke="#1D1E24"/><rect width="15" height="3" x="125.5" y="276.5" fill="#535966" stroke="#1D1E24" rx="1.5"/><rect width="9" height="3" x="186.5" y="300.5" fill="#535966" stroke="#1D1E24" rx="1.5"/><rect width="11" height="3" x="185.5" y="252.5" fill="#535966" stroke="#1D1E24" rx="1.5"/></g><g filter="url(#g)"><rect width="52" height="56" x="232" y="208" fill="#25262E" rx="4"/></g><rect width="43" height="7" x="236.5" y="252.5" fill="#1D1E24" stroke="#343741" rx=".5"/><rect width="26" height="2" x="236" y="212" fill="#A7AFBE" rx="1"/><rect width="26" height="2" x="236" y="246" fill="#A7AFBE" rx="1"/><rect width="29" height="2" x="240" y="218" fill="#535966" rx="1"/><rect width="23" height="2" x="240" y="224" fill="#535966" rx="1"/><rect width="26" height="2" x="240" y="230" fill="#535966" rx="1"/><rect width="33" height="2" x="240" y="236" fill="#535966" rx="1"/><circle cx="237" cy="219" r="1" fill="#54B399"/><circle cx="237" cy="225" r="1" fill="#6092C0"/><circle cx="237" cy="231" r="1" fill="#D36086"/><circle cx="237" cy="237" r="1" fill="#9170B8"/><g filter="url(#h)"><rect width="248" height="124" x="320" y="169" fill="#25262E" rx="4"/></g><rect width="120" height="4" x="328" y="177" fill="#A7AFBE" rx="2"/><rect width="16" height="4" x="336" y="197" fill="#535966" rx="2"/><rect width="24" height="4" x="368" y="281" fill="#535966" rx="2"/><rect width="24" height="4" x="421" y="281" fill="#535966" rx="2"/><rect width="24" height="4" x="474" y="281" fill="#535966" rx="2"/><rect width="24" height="4" x="527" y="281" fill="#535966" rx="2"/><rect width="24" height="4" x="328" y="218" fill="#535966" rx="2"/><rect width="20" height="4" x="332" y="239" fill="#535966" rx="2"/><rect width="16" height="4" x="336" y="260" fill="#535966" rx="2" transform="rotate(-.17 336 260)"/><path stroke="#343741" stroke-linecap="round" stroke-linejoin="round" d="M360.5 189.5v9.5m199 73.5H539M360.5 199h-4m4 0v21m0 0h-4m4 0v21m0 0h-4m4 0v21m0 0v10.5H380M360.5 262h-4m23.5 14.5v-4m0 0h53m0 0v4m0-4h53m0 0v4m0-4h53m0 0v4"/><rect width="181" height="16" x="363" y="191" fill="#54B399" rx="1"/><rect width="59" height="16" x="363" y="233" fill="#D36086" rx="1"/><rect width="120" height="16" x="363" y="212" fill="#6092C0" rx="1"/><rect width="30" height="16" x="363" y="254" fill="#9170B8" rx="1"/><defs><filter id="a" width="552" height="156" x="8" y="105" color-interpolation-filters="sRGB" filterUnits="userSpaceOnUse"><feFlood flood-opacity="0" result="BackgroundImageFix"/><feColorMatrix in="SourceAlpha" values="0 0 0 0 0 0 0 0 0 0 0 0 0 0 0 0 0 0 127 0"/><feOffset dy="4"/><feGaussianBlur stdDeviation="8"/><feColorMatrix values="0 0 0 0 0 0 0 0 0 0 0 0 0 0 0 0 0 0 0.3 0"/><feBlend in2="BackgroundImageFix" result="effect1_dropShadow"/><feBlend in="SourceGraphic" in2="effect1_dropShadow" result="shape"/></filter><filter id="b" width="280" height="156" x="144" y="0" color-interpolation-filters="sRGB" filterUnits="userSpaceOnUse"><feFlood flood-opacity="0" result="BackgroundImageFix"/><feColorMatrix in="SourceAlpha" values="0 0 0 0 0 0 0 0 0 0 0 0 0 0 0 0 0 0 127 0"/><feOffset dy="4"/><feGaussianBlur stdDeviation="8"/><feColorMatrix values="0 0 0 0 0 0 0 0 0 0 0 0 0 0 0 0 0 0 0.3 0"/><feBlend in2="BackgroundImageFix" result="effect1_dropShadow"/><feBlend in="SourceGraphic" in2="effect1_dropShadow" result="shape"/></filter><filter id="f" width="260" height="143" x="32" y="204" color-interpolation-filters="sRGB" filterUnits="userSpaceOnUse"><feFlood flood-opacity="0" result="BackgroundImageFix"/><feColorMatrix in="SourceAlpha" values="0 0 0 0 0 0 0 0 0 0 0 0 0 0 0 0 0 0 127 0"/><feOffset dy="4"/><feGaussianBlur stdDeviation="8"/><feColorMatrix values="0 0 0 0 0 0 0 0 0 0 0 0 0 0 0 0 0 0 0.3 0"/><feBlend in2="BackgroundImageFix" result="effect1_dropShadow"/><feBlend in="SourceGraphic" in2="effect1_dropShadow" result="shape"/></filter><filter id="g" width="84" height="88" x="216" y="196" color-interpolation-filters="sRGB" filterUnits="userSpaceOnUse"><feFlood flood-opacity="0" result="BackgroundImageFix"/><feColorMatrix in="SourceAlpha" values="0 0 0 0 0 0 0 0 0 0 0 0 0 0 0 0 0 0 127 0"/><feOffset dy="4"/><feGaussianBlur stdDeviation="8"/><feColorMatrix values="0 0 0 0 0 0 0 0 0 0 0 0 0 0 0 0 0 0 0.2 0"/><feBlend in2="BackgroundImageFix" result="effect1_dropShadow"/><feBlend in="SourceGraphic" in2="effect1_dropShadow" result="shape"/></filter><filter id="h" width="280" height="156" x="304" y="157" color-interpolation-filters="sRGB" filterUnits="userSpaceOnUse"><feFlood flood-opacity="0" result="BackgroundImageFix"/><feColorMatrix in="SourceAlpha" values="0 0 0 0 0 0 0 0 0 0 0 0 0 0 0 0 0 0 127 0"/><feOffset dy="4"/><feGaussianBlur stdDeviation="8"/><feColorMatrix values="0 0 0 0 0 0 0 0 0 0 0 0 0 0 0 0 0 0 0.3 0"/><feBlend in2="BackgroundImageFix" result="effect1_dropShadow"/><feBlend in="SourceGraphic" in2="effect1_dropShadow" result="shape"/></filter></defs></svg>