<svg xmlns="http://www.w3.org/2000/svg" width="268" height="151" fill="none"><path fill="#F5F7FA" d="M0 0h268v151H0z"/><g filter="url(#a)"><rect width="228" height="111" x="20" y="20" fill="#fff" rx="2"/><rect width="12" height="4" x="24" y="24" fill="#54B399" rx="1"/><rect width="12" height="4" x="40" y="24" fill="#6092C0" rx="1"/><rect width="12" height="4" x="56" y="24" fill="#D36086" rx="1"/><rect width="12" height="4" x="72" y="24" fill="#9170B8" rx="1"/><path stroke="#D3DAE6" d="m139 87 24 12m0 0-24 12m24-12 24 12m-24-12h34m-34 0 24-12M89 55l16 20m0 0L71 63m34 12H81m24 0L71 87m34-12L89 95m16-20 16 20m-16-20h24m-24 0 16-20m-16 20 34-12m-34 12 34 12m0-48 24 12m0 0-24 12m24-12 24-12m-24 12 24 12"/><circle cx="105" cy="75" r="4.5" fill="#9170B8" stroke="#fff"/><circle cx="163" cy="99" r="4.5" fill="#6092C0" stroke="#fff"/><circle cx="163" cy="51" r="4.5" fill="#D36086" stroke="#fff"/><circle cx="121" cy="55" r="4.5" fill="#54B399" stroke="#fff"/><circle cx="139" cy="39" r="4.5" fill="#54B399" stroke="#fff"/><circle cx="187" cy="39" r="4.5" fill="#54B399" stroke="#fff"/><circle cx="187" cy="63" r="4.5" fill="#54B399" stroke="#fff"/><circle cx="187" cy="111" r="4.5" fill="#54B399" stroke="#fff"/><circle cx="197" cy="99" r="4.5" fill="#54B399" stroke="#fff"/><circle cx="187" cy="87" r="4.5" fill="#54B399" stroke="#fff"/><circle cx="139" cy="63" r="4.5" fill="#54B399" stroke="#fff"/><circle cx="139" cy="87" r="4.5" fill="#54B399" stroke="#fff"/><circle cx="139" cy="111" r="4.5" fill="#54B399" stroke="#fff"/><circle cx="129" cy="75" r="4.5" fill="#54B399" stroke="#fff"/><circle cx="121" cy="95" r="4.5" fill="#54B399" stroke="#fff"/><circle cx="89" cy="55" r="4.5" fill="#54B399" stroke="#fff"/><circle cx="81" cy="75" r="4.5" fill="#54B399" stroke="#fff"/><circle cx="89" cy="95" r="4.5" fill="#54B399" stroke="#fff"/><circle cx="71" cy="87" r="4.5" fill="#54B399" stroke="#fff"/><circle cx="71" cy="63" r="4.5" fill="#54B399" stroke="#fff"/><rect width="15" height="3" x="97.5" y="80.5" fill="#98A2B3" stroke="#fff" rx="1.5"/><rect width="9" height="3" x="158.5" y="104.5" fill="#98A2B3" stroke="#fff" rx="1.5"/><rect width="11" height="3" x="157.5" y="56.5" fill="#98A2B3" stroke="#fff" rx="1.5"/></g><g filter="url(#b)"><rect width="52" height="56" x="204" y="12" fill="#fff" rx="2"/></g><rect width="43" height="7" x="208.5" y="56.5" fill="#fff" stroke="#D3DAE6" rx=".5"/><rect width="26" height="2" x="208" y="16" fill="#6A717D" rx="1"/><rect width="26" height="2" x="208" y="50" fill="#6A717D" rx="1"/><rect width="29" height="2" x="212" y="22" fill="#98A2B3" rx="1"/><rect width="23" height="2" x="212" y="28" fill="#98A2B3" rx="1"/><rect width="26" height="2" x="212" y="34" fill="#98A2B3" rx="1"/><rect width="33" height="2" x="212" y="40" fill="#98A2B3" rx="1"/><circle cx="209" cy="23" r="1" fill="#54B399"/><circle cx="209" cy="29" r="1" fill="#6092C0"/><circle cx="209" cy="35" r="1" fill="#D36086"/><circle cx="209" cy="41" r="1" fill="#DD0A73"/><defs><filter id="a" width="244" height="127" x="12" y="14" color-interpolation-filters="sRGB" filterUnits="userSpaceOnUse"><feFlood flood-opacity="0" result="BackgroundImageFix"/><feColorMatrix in="SourceAlpha" values="0 0 0 0 0 0 0 0 0 0 0 0 0 0 0 0 0 0 127 0"/><feOffset dy="2"/><feGaussianBlur stdDeviation="4"/><feColorMatrix values="0 0 0 0 0 0 0 0 0 0 0 0 0 0 0 0 0 0 0.05 0"/><feBlend in2="BackgroundImageFix" result="effect1_dropShadow"/><feBlend in="SourceGraphic" in2="effect1_dropShadow" result="shape"/></filter><filter id="b" width="68" height="72" x="196" y="6" color-interpolation-filters="sRGB" filterUnits="userSpaceOnUse"><feFlood flood-opacity="0" result="BackgroundImageFix"/><feColorMatrix in="SourceAlpha" values="0 0 0 0 0 0 0 0 0 0 0 0 0 0 0 0 0 0 127 0"/><feOffset dy="2"/><feGaussianBlur stdDeviation="4"/><feColorMatrix values="0 0 0 0 0 0 0 0 0 0 0 0 0 0 0 0 0 0 0.05 0"/><feBlend in2="BackgroundImageFix" result="effect1_dropShadow"/><feBlend in="SourceGraphic" in2="effect1_dropShadow" result="shape"/></filter></defs></svg>