<svg xmlns="http://www.w3.org/2000/svg" width="268" height="151" fill="none"><path fill="#F5F7FA" d="M0 0h268v151H0z"/><g filter="url(#a)"><rect width="176" height="127" x="12" y="12" fill="#fff" rx="2"/></g><rect width="22" height="2" x="89" y="132" fill="#AFB0B3" rx="1"/><path stroke="#AFB0B3" stroke-linecap="round" stroke-linejoin="round" d="m115.5 131.5 1.5 1.5-1.5 1.5m-30.5-3-1.5 1.5 1.5 1.5"/><rect width="82" height="16" x="60" y="21" fill="#fff" stroke="#D3DAE6" stroke-dasharray="1 2" stroke-linecap="round" stroke-linejoin="round" rx="1"/><rect width="40" height="2" x="81" y="28" fill="#54B399" rx="1"/><rect width="76" height="76" x="104" y="45" fill="#fff" stroke="#D3DAE6" stroke-dasharray="1 2" stroke-linecap="round" stroke-linejoin="round" rx="1"/><rect width="22" height="2" x="116" y="81" fill="#98A2B3" rx="1"/><rect width="2" height="2" x="112" y="81" fill="#D36086" rx="1"/><rect width="2" height="2" x="146" y="81" fill="#D36086" rx="1"/><rect width="22" height="2" x="150" y="81" fill="#98A2B3" rx="1"/><rect width="60" height="8" x="112" y="65" fill="#D36086" rx="2"/><rect width="22" height="2" x="116" y="87" fill="#98A2B3" rx="1"/><rect width="2" height="2" x="112" y="87" fill="#D36086" rx="1"/><rect width="2" height="2" x="146" y="87" fill="#D36086" rx="1"/><rect width="22" height="2" x="150" y="87" fill="#98A2B3" rx="1"/><rect width="22" height="2" x="116" y="93" fill="#98A2B3" rx="1"/><rect width="2" height="2" x="112" y="93" fill="#D36086" rx="1"/><rect width="2" height="2" x="146" y="93" fill="#D36086" rx="1"/><rect width="22" height="2" x="150" y="93" fill="#98A2B3" rx="1"/><rect width="22" height="2" x="116" y="99" fill="#98A2B3" rx="1"/><rect width="2" height="2" x="112" y="99" fill="#D36086" rx="1"/><rect width="2" height="2" x="146" y="99" fill="#D36086" rx="1"/><rect width="22" height="2" x="150" y="99" fill="#98A2B3" rx="1"/><rect width="76" height="76" x="20" y="45" fill="#fff" stroke="#AFB0B3" stroke-dasharray="1 2" stroke-linecap="round" stroke-linejoin="round" rx="1"/><path fill="#fff" stroke="#AFB0B3" stroke-linecap="round" stroke-linejoin="round" d="M18.5 43.5h3v3h-3zm0 76h3v3h-3zm76 0h3v3h-3zm0-76h3v3h-3zm-38 0h3v3h-3zm-38 38h3v3h-3zm38 38h3v3h-3zm38-38h3v3h-3z"/><rect width="22" height="2" x="47" y="104" fill="#98A2B3" rx="1"/><path fill="#D3DAE6" d="M41.03 99.97a24 24 0 1 1 33.94 0l-5.668-5.668a15.984 15.984 0 1 0-22.604 0l-5.669 5.669z"/><path fill="#6092C0" d="M41.03 99.97a24.002 24.002 0 0 1 9.488-39.774 24 24 0 0 1 26.378 8.007l-6.311 4.942a15.986 15.986 0 0 0-23.183-2.11 15.983 15.983 0 0 0-.704 23.267l-5.669 5.669z"/><g filter="url(#b)"><rect width="56" height="127" x="200" y="12" fill="#fff" rx="2"/></g><rect width="22" height="2" x="204" y="56" fill="#98A2B3" rx="1"/><rect width="22" height="2" x="204" y="98" fill="#98A2B3" rx="1"/><rect width="22" height="2" x="204" y="120" fill="#98A2B3" rx="1"/><rect width="9" height="4" x="204" y="104" fill="#D3DAE6" rx="2"/><rect width="9" height="4" x="217" y="104" fill="#D3DAE6" rx="2"/><rect width="9" height="4" x="230" y="104" fill="#D3DAE6" rx="2"/><rect width="9" height="4" x="243" y="104" fill="#D3DAE6" rx="2"/><rect width="47" height="7" x="204.5" y="24.5" fill="#fff" stroke="#D3DAE6" rx=".5"/><rect width="47" height="23" x="204.5" y="62.5" fill="#fff" stroke="#D3DAE6" rx=".5"/><rect width="21" height="7" x="204.5" y="36.5" fill="#fff" stroke="#D3DAE6" rx=".5"/><rect width="7" height="7" x="204.5" y="126.5" fill="#54B399" stroke="#D3DAE6" rx=".5"/><rect width="21" height="7" x="230.5" y="36.5" fill="#fff" stroke="#D3DAE6" rx=".5"/><rect width="27" height="2" x="204" y="16" fill="#6A717D" rx="1"/><defs><filter id="a" width="192" height="143" x="4" y="6" color-interpolation-filters="sRGB" filterUnits="userSpaceOnUse"><feFlood flood-opacity="0" result="BackgroundImageFix"/><feColorMatrix in="SourceAlpha" values="0 0 0 0 0 0 0 0 0 0 0 0 0 0 0 0 0 0 127 0"/><feOffset dy="2"/><feGaussianBlur stdDeviation="4"/><feColorMatrix values="0 0 0 0 0 0 0 0 0 0 0 0 0 0 0 0 0 0 0.05 0"/><feBlend in2="BackgroundImageFix" result="effect1_dropShadow"/><feBlend in="SourceGraphic" in2="effect1_dropShadow" result="shape"/></filter><filter id="b" width="72" height="143" x="192" y="6" color-interpolation-filters="sRGB" filterUnits="userSpaceOnUse"><feFlood flood-opacity="0" result="BackgroundImageFix"/><feColorMatrix in="SourceAlpha" values="0 0 0 0 0 0 0 0 0 0 0 0 0 0 0 0 0 0 127 0"/><feOffset dy="2"/><feGaussianBlur stdDeviation="4"/><feColorMatrix values="0 0 0 0 0 0 0 0 0 0 0 0 0 0 0 0 0 0 0.05 0"/><feBlend in2="BackgroundImageFix" result="effect1_dropShadow"/><feBlend in="SourceGraphic" in2="effect1_dropShadow" result="shape"/></filter></defs></svg>