<svg xmlns="http://www.w3.org/2000/svg" width="268" height="151" fill="none"><path fill="#25262E" d="M0 0h268v151H0z"/><g filter="url(#a)"><rect width="176" height="127" x="80" y="12" fill="#1D1E24" rx="2"/></g><rect width="16" height="2" x="90" y="29" fill="#535966" rx="1"/><rect width="13" height="2" x="93" y="63" fill="#535966" rx="1"/><rect width="17" height="2" x="89" y="76" fill="#535966" rx="1"/><rect width="20" height="2" x="86" y="89" fill="#535966" rx="1"/><rect width="14" height="2" x="92" y="102" fill="#535966" rx="1"/><rect width="18" height="2" x="88" y="115" fill="#535966" rx="1"/><rect width="19" height="2" x="87" y="128" fill="#535966" rx="1"/><rect width="37" height="7" x="84.5" y="46.5" fill="#1D1E24" stroke="#343741" rx=".5"/><rect width="37" height="7" x="123.5" y="46.5" fill="#1D1E24" stroke="#343741" rx=".5"/><path stroke="#434548" stroke-linecap="round" stroke-linejoin="round" d="M118.5 49.5 117 51l-1.5-1.5m42 0L156 51l-1.5-1.5"/><rect width="61" height="2" x="84" y="16" fill="#A7AFBE" rx="1"/><g filter="url(#b)"><rect width="56" height="127" x="12" y="12" fill="#1D1E24" rx="2"/></g><rect width="21" height="2" x="16" y="16" fill="#A7AFBE" rx="1"/><rect width="22" height="2" x="16" y="24" fill="#535966" rx="1"/><rect width="23" height="2" x="20" y="30" fill="#343741" rx="1"/><rect width="19" height="2" x="20" y="38" fill="#343741" rx="1"/><rect width="23" height="2" x="20" y="46" fill="#343741" rx="1"/><rect width="14" height="2" x="20" y="54" fill="#343741" rx="1"/><rect width="34" height="1" x="20" y="33" fill="#9170B8" rx=".5"/><rect width="31" height="1" x="20" y="41" fill="#9170B8" rx=".5"/><rect width="29" height="1" x="20" y="49" fill="#9170B8" rx=".5"/><rect width="24" height="1" x="20" y="57" fill="#D36086" rx=".5"/><rect width="28" height="2" x="16" y="70" fill="#535966" rx="1"/><rect width="14" height="2" x="20" y="76" fill="#343741" rx="1"/><rect width="20" height="2" x="20" y="84" fill="#343741" rx="1"/><rect width="20" height="1" x="20" y="79" fill="#D36086" rx=".5"/><rect width="16" height="1" x="20" y="87" fill="#D36086" rx=".5"/><rect width="13" height="2" x="16" y="100" fill="#535966" rx="1"/><rect width="15" height="2" x="20" y="106" fill="#343741" rx="1"/><rect width="21" height="2" x="20" y="114" fill="#343741" rx="1"/><rect width="19" height="2" x="20" y="122" fill="#343741" rx="1"/><rect width="15" height="2" x="20" y="130" fill="#343741" rx="1"/><rect width="13" height="1" x="20" y="109" fill="#6092C0" rx=".5"/><rect width="10" height="1" x="20" y="117" fill="#6092C0" rx=".5"/><rect width="6" height="1" x="20" y="125" fill="#54B399" rx=".5"/><rect width="5" height="1" x="20" y="133" fill="#54B399" rx=".5"/><rect width="12" height="12" x="110" y="24" fill="#54B399" rx="1"/><rect width="12" height="12" x="123" y="24" fill="#6092C0" rx="1"/><rect width="12" height="12" x="136" y="24" fill="#D36086" rx="1"/><rect width="12" height="12" x="149" y="24" fill="#D36086" rx="1"/><rect width="12" height="12" x="162" y="24" fill="#9170B8" rx="1"/><rect width="12" height="12" x="175" y="24" fill="#D36086" rx="1"/><rect width="12" height="12" x="188" y="24" fill="#54B399" rx="1"/><rect width="12" height="12" x="201" y="24" fill="#54B399" rx="1"/><rect width="12" height="12" x="214" y="24" fill="#6092C0" rx="1"/><rect width="12" height="12" x="227" y="24" fill="#6092C0" rx="1"/><rect width="12" height="12" x="240" y="24" fill="#D36086" rx="1"/><rect width="12" height="12" x="110" y="58" fill="#25262E" rx="1"/><rect width="12" height="12" x="123" y="58" fill="#25262E" rx="1"/><rect width="12" height="12" x="136" y="58" fill="#25262E" rx="1"/><rect width="12" height="12" x="149" y="58" fill="#25262E" rx="1"/><rect width="12" height="12" x="162" y="58" fill="#25262E" rx="1"/><rect width="12" height="12" x="175" y="58" fill="#25262E" rx="1"/><rect width="12" height="12" x="188" y="58" fill="#25262E" rx="1"/><rect width="12" height="12" x="201" y="58" fill="#25262E" rx="1"/><rect width="12" height="12" x="214" y="58" fill="#25262E" rx="1"/><rect width="12" height="12" x="227" y="58" fill="#25262E" rx="1"/><rect width="12" height="12" x="240" y="58" fill="#25262E" rx="1"/><rect width="12" height="12" x="110" y="71" fill="#25262E" rx="1"/><rect width="12" height="12" x="123" y="71" fill="#25262E" rx="1"/><rect width="12" height="12" x="136" y="71" fill="#25262E" rx="1"/><rect width="12" height="12" x="149" y="71" fill="#25262E" rx="1"/><rect width="12" height="12" x="162" y="71" fill="#D36086" rx="1"/><rect width="12" height="12" x="175" y="71" fill="#25262E" rx="1"/><rect width="12" height="12" x="188" y="71" fill="#25262E" rx="1"/><rect width="12" height="12" x="201" y="71" fill="#25262E" rx="1"/><rect width="12" height="12" x="214" y="71" fill="#25262E" rx="1"/><rect width="12" height="12" x="227" y="71" fill="#25262E" rx="1"/><rect width="12" height="12" x="240" y="71" fill="#25262E" rx="1"/><rect width="12" height="12" x="110" y="84" fill="#25262E" rx="1"/><rect width="12" height="12" x="123" y="84" fill="#25262E" rx="1"/><rect width="12" height="12" x="136" y="84" fill="#25262E" rx="1"/><rect width="12" height="12" x="149" y="84" fill="#25262E" rx="1"/><rect width="12" height="12" x="162" y="84" fill="#D36086" rx="1"/><rect width="12" height="12" x="175" y="84" fill="#25262E" rx="1"/><rect width="12" height="12" x="188" y="84" fill="#25262E" rx="1"/><rect width="12" height="12" x="201" y="84" fill="#25262E" rx="1"/><rect width="12" height="12" x="214" y="84" fill="#25262E" rx="1"/><rect width="12" height="12" x="227" y="84" fill="#25262E" rx="1"/><rect width="12" height="12" x="240" y="84" fill="#D36086" rx="1"/><rect width="12" height="12" x="110" y="97" fill="#25262E" rx="1"/><rect width="12" height="12" x="123" y="97" fill="#25262E" rx="1"/><rect width="12" height="12" x="136" y="97" fill="#25262E" rx="1"/><rect width="12" height="12" x="149" y="97" fill="#6092C0" rx="1"/><rect width="12" height="12" x="162" y="97" fill="#25262E" rx="1"/><rect width="12" height="12" x="175" y="97" fill="#25262E" rx="1"/><rect width="12" height="12" x="188" y="97" fill="#25262E" rx="1"/><rect width="12" height="12" x="201" y="97" fill="#25262E" rx="1"/><rect width="12" height="12" x="214" y="97" fill="#25262E" rx="1"/><rect width="12" height="12" x="227" y="97" fill="#25262E" rx="1"/><rect width="12" height="12" x="240" y="97" fill="#25262E" rx="1"/><rect width="12" height="12" x="110" y="110" fill="#25262E" rx="1"/><rect width="12" height="12" x="123" y="110" fill="#25262E" rx="1"/><rect width="12" height="12" x="136" y="110" fill="#25262E" rx="1"/><rect width="12" height="12" x="149" y="110" fill="#25262E" rx="1"/><rect width="12" height="12" x="162" y="110" fill="#25262E" rx="1"/><rect width="12" height="12" x="175" y="110" fill="#54B399" rx="1"/><rect width="12" height="12" x="188" y="110" fill="#25262E" rx="1"/><rect width="12" height="12" x="201" y="110" fill="#25262E" rx="1"/><rect width="12" height="12" x="214" y="110" fill="#25262E" rx="1"/><rect width="12" height="12" x="227" y="110" fill="#25262E" rx="1"/><rect width="12" height="12" x="240" y="110" fill="#D36086" rx="1"/><rect width="12" height="12" x="110" y="123" fill="#25262E" rx="1"/><rect width="12" height="12" x="123" y="123" fill="#25262E" rx="1"/><rect width="12" height="12" x="136" y="123" fill="#25262E" rx="1"/><rect width="12" height="12" x="149" y="123" fill="#25262E" rx="1"/><rect width="12" height="12" x="162" y="123" fill="#D36086" rx="1"/><rect width="12" height="12" x="175" y="123" fill="#25262E" rx="1"/><rect width="12" height="12" x="188" y="123" fill="#25262E" rx="1"/><rect width="12" height="12" x="201" y="123" fill="#25262E" rx="1"/><rect width="12" height="12" x="214" y="123" fill="#25262E" rx="1"/><rect width="12" height="12" x="227" y="123" fill="#25262E" rx="1"/><rect width="12" height="12" x="240" y="123" fill="#25262E" rx="1"/><defs><filter id="a" width="192" height="143" x="72" y="6" color-interpolation-filters="sRGB" filterUnits="userSpaceOnUse"><feFlood flood-opacity="0" result="BackgroundImageFix"/><feColorMatrix in="SourceAlpha" values="0 0 0 0 0 0 0 0 0 0 0 0 0 0 0 0 0 0 127 0"/><feOffset dy="2"/><feGaussianBlur stdDeviation="4"/><feColorMatrix values="0 0 0 0 0 0 0 0 0 0 0 0 0 0 0 0 0 0 0.05 0"/><feBlend in2="BackgroundImageFix" result="effect1_dropShadow"/><feBlend in="SourceGraphic" in2="effect1_dropShadow" result="shape"/></filter><filter id="b" width="72" height="143" x="4" y="6" color-interpolation-filters="sRGB" filterUnits="userSpaceOnUse"><feFlood flood-opacity="0" result="BackgroundImageFix"/><feColorMatrix in="SourceAlpha" values="0 0 0 0 0 0 0 0 0 0 0 0 0 0 0 0 0 0 127 0"/><feOffset dy="2"/><feGaussianBlur stdDeviation="4"/><feColorMatrix values="0 0 0 0 0 0 0 0 0 0 0 0 0 0 0 0 0 0 0.05 0"/><feBlend in2="BackgroundImageFix" result="effect1_dropShadow"/><feBlend in="SourceGraphic" in2="effect1_dropShadow" result="shape"/></filter></defs></svg>