<svg width="568" height="320" fill="none" xmlns="http://www.w3.org/2000/svg">
  <path fill="#25262E" d="M0 0h568v320H0z"/>
  <g filter="url(#kibana_dashboard_dark__filter0_d)">
    <rect x="24" y="172" width="248" height="124" rx="4" fill="#1D1E24"/>
  </g>
  <rect x="32" y="180" width="120" height="4" rx="2" fill="#A7AFBE"/>
  <rect x="40" y="200" width="16" height="4" rx="2" fill="#535966"/>
  <rect x="72" y="284" width="24" height="4" rx="2" fill="#535966"/>
  <rect x="125" y="284" width="24" height="4" rx="2" fill="#535966"/>
  <rect x="178" y="284" width="24" height="4" rx="2" fill="#535966"/>
  <rect x="231" y="284" width="24" height="4" rx="2" fill="#535966"/>
  <rect x="32" y="221" width="24" height="4" rx="2" fill="#535966"/>
  <rect x="36" y="242" width="20" height="4" rx="2" fill="#535966"/>
  <rect x="40" y="263" width="16" height="4" rx="2" transform="rotate(-.17 40 263)" fill="#535966"/>
  <path d="M64.5 192.5v9.5m199 73.5H243M64.5 202h-4m4 0v21m0 0h-4m4 0v21m0 0h-4m4 0v21m0 0v10.5H84M64.5 265h-4M84 279.5v-4m0 0h53m0 0v4m0-4h53m0 0v4m0-4h53m0 0v4" stroke="#343741" stroke-linecap="round" stroke-linejoin="round"/>
  <rect x="67" y="194" width="181" height="16" rx="1" fill="#54B399"/>
  <rect x="67" y="236" width="59" height="16" rx="1" fill="#D36086"/>
  <rect x="67" y="215" width="120" height="16" rx="1" fill="#6092C0"/>
  <rect x="67" y="257" width="30" height="16" rx="1" fill="#9170B8"/>
  <g filter="url(#kibana_dashboard_dark__filter1_d)">
    <rect x="24" y="24" width="520" height="124" rx="4" fill="#1D1E24"/>
  </g>
  <rect x="32" y="32" width="101" height="4" rx="2" fill="#A7AFBE"/>
  <rect x="38" y="52" width="18" height="4" rx="2" fill="#535966"/>
  <rect x="32" y="73" width="24" height="4" rx="2" fill="#535966"/>
  <rect x="40" y="94" width="16" height="4" rx="2" fill="#535966"/>
  <rect x="36" y="115" width="20" height="4" rx="2" fill="#535966"/>
  <rect x="72" y="136" width="24" height="4" rx="2" fill="#535966"/>
  <rect x="216" y="136" width="24" height="4" rx="2" fill="#535966"/>
  <rect x="360" y="136" width="24" height="4" rx="2" fill="#535966"/>
  <rect x="504" y="136" width="24" height="4" rx="2" fill="#535966"/>
  <path opacity=".1" d="M80.177 118L65 110v17h470.5V90.5l-15.177 12.692-15.178 1.346-15.177-8.846-15.178 17.885-15.177.961-15.178-5.384-15.177-.769-15.177 5.384-15.178-5.846-15.177-40.615-15.178 18.077-15.177-38.462L338.194 104l-15.178-16.308-15.177 12.923-15.178-9.538-15.177 5.615-15.178-24.384L247.129 71l-15.177-15.615-15.178 49.077-15.177 4.615-15.178-22.154-15.177-5.385L156.065 50l-15.178 37.923-15.177 6.923-15.178 19.692-15.177-4.692L80.177 118z" fill="#54B399"/>
  <path d="M65 110l15.177 8 15.178-8.154 15.177 4.692 15.178-19.692 15.177-6.923L156.065 50l15.177 31.538 15.177 5.385 15.178 22.154 15.177-4.615 15.178-49.077L247.129 71l15.177 1.308 15.178 24.384 15.177-5.615 15.178 9.538 15.177-12.923L338.194 104l15.177-57.077 15.177 38.462 15.178-18.077 15.177 40.615 15.178 5.846 15.177-5.384 15.177.769 15.178 5.384 15.177-.961 15.178-17.885 15.177 8.846 15.178-1.346L535.5 90.5" stroke="#54B399" stroke-linecap="round" stroke-linejoin="round"/>
  <circle opacity=".1" cx="100" cy="63" r="8" fill="#6092C0"/>
  <circle opacity=".1" cx="232" cy="55" r="8" fill="#6092C0"/>
  <circle opacity=".1" cx="323" cy="88" r="8" fill="#6092C0"/>
  <circle opacity=".1" cx="353" cy="47" r="7.5" fill="#6092C0" stroke="#6092C0"/>
  <circle opacity=".1" cx="523" cy="47" r="8" fill="#6092C0"/>
  <circle opacity=".1" cx="106" cy="68" r="4" fill="#6092C0"/>
  <circle opacity=".1" cx="156" cy="50" r="4" fill="#6092C0"/>
  <circle opacity=".1" cx="240" cy="55" r="4" fill="#6092C0"/>
  <circle opacity=".1" cx="262" cy="72" r="4" fill="#6092C0"/>
  <circle opacity=".1" cx="345" cy="48" r="4" fill="#6092C0"/>
  <circle opacity=".1" cx="484" cy="92" r="3.5" fill="#6092C0" stroke="#6092C0"/>
  <circle opacity=".1" cx="490" cy="96" r="4" fill="#6092C0"/>
  <circle cx="100" cy="63" r="7.5" stroke="#6092C0"/>
  <circle cx="232" cy="55" r="7.5" stroke="#6092C0"/>
  <circle cx="323" cy="88" r="7.5" stroke="#6092C0"/>
  <circle cx="353" cy="47" r="7.5" stroke="#6092C0"/>
  <circle cx="523" cy="47" r="7.5" stroke="#6092C0"/>
  <circle cx="106" cy="68" r="3.5" stroke="#6092C0"/>
  <circle cx="156" cy="50" r="3.5" stroke="#6092C0"/>
  <circle cx="240" cy="55" r="3.5" stroke="#6092C0"/>
  <circle cx="262" cy="72" r="3.5" stroke="#6092C0"/>
  <circle cx="345" cy="48" r="3.5" stroke="#6092C0"/>
  <circle cx="484" cy="92" r="3.5" stroke="#6092C0"/>
  <circle cx="490" cy="96" r="3.5" stroke="#6092C0"/>
  <path d="M64.5 44.5V54m471 73.5H516M64.5 54h-4m4 0v21m0 0h-4m4 0v21m0 0h-4m4 0v21m0 0v10.5H84M64.5 117h-4M84 131.5v-4m0 0h144m0 0v4m0-4h144m0 0v4m0-4h144m0 0v4" stroke="#343741" stroke-linecap="round" stroke-linejoin="round"/>
  <g filter="url(#kibana_dashboard_dark__filter2_d)">
    <rect x="296" y="172" width="248" height="124" rx="4" fill="#1D1E24"/>
  </g>
  <rect x="304" y="180" width="80" height="4" rx="2" fill="#A7AFBE"/>
  <path d="M448.284 268.284a39.997 39.997 0 00-10.054-63.888 39.997 39.997 0 00-24.383-3.92l2.461 15.81a24 24 0 0120.663 40.685l11.313 11.313z" fill="#54B399"/>
  <mask id="a" maskUnits="userSpaceOnUse" x="385" y="250" width="72" height="31" fill="#000">
    <path fill="#fff" d="M385 250h72v31h-72z"/>
    <path d="M386.416 261.728a39.996 39.996 0 0034.591 18.259 39.994 39.994 0 0033.628-19.976l-13.854-8.005a24 24 0 01-40.932 1.031l-13.433 8.691z"/>
  </mask>
  <path d="M386.416 261.728a39.996 39.996 0 0034.591 18.259 39.994 39.994 0 0033.628-19.976l-13.854-8.005a24 24 0 01-40.932 1.031l-13.433 8.691z" fill="#6092C0"/>
  <path d="M386.416 261.728a39.996 39.996 0 0034.591 18.259 39.994 39.994 0 0033.628-19.976l-13.854-8.005a24 24 0 01-40.932 1.031l-13.433 8.691z" stroke="#1D1E24" stroke-width="2" mask="url(#a)"/>
  <mask id="b" maskUnits="userSpaceOnUse" x="379" y="213" width="24" height="54" fill="#000">
    <path fill="#fff" d="M379 213h24v54h-24z"/>
    <path d="M388.645 215.163a40 40 0 00.54 50.341l12.326-10.202a24 24 0 01-.324-30.204l-12.542-9.935z"/>
  </mask>
  <path d="M388.645 215.163a40 40 0 00.54 50.341l12.326-10.202a24 24 0 01-.324-30.204l-12.542-9.935z" fill="#D36086"/>
  <path d="M388.645 215.163a40 40 0 00.54 50.341l12.326-10.202a24 24 0 01-.324-30.204l-12.542-9.935z" stroke="#1D1E24" stroke-width="2" mask="url(#b)"/>
  <mask id="c" maskUnits="userSpaceOnUse" x="384" y="199" width="37" height="30" fill="#000">
    <path fill="#fff" d="M384 199h37v30h-37z"/>
    <path d="M420 200a40.005 40.005 0 00-33.929 18.814l13.572 8.474A24.004 24.004 0 01420 216v-16z"/>
  </mask>
  <path d="M420 200a40.005 40.005 0 00-33.929 18.814l13.572 8.474A24.004 24.004 0 01420 216v-16z" fill="#9170B8"/>
  <path d="M420 200a40.005 40.005 0 00-33.929 18.814l13.572 8.474A24.004 24.004 0 01420 216v-16z" stroke="#1D1E24" stroke-width="2" mask="url(#c)"/>
  <rect x="367" y="192" width="22" height="4" rx="2" fill="#535966"/>
  <rect x="345" y="250" width="16" height="4" rx="2" fill="#535966"/>
  <rect x="441" y="284" width="24" height="4" rx="2" fill="#535966"/>
  <rect x="471" y="210" width="24" height="4" rx="2" fill="#535966"/>
  <path d="M393.5 194h4l4 8.5m65 9.5h-4l-7 4.5m-26.5 64l3.5 5.5h4m-58-41l-9 7h-4" stroke="#343741" stroke-linecap="round" stroke-linejoin="round"/>
  <defs>
    <filter id="kibana_dashboard_dark__filter0_d" x="8" y="160" width="280" height="156" filterUnits="userSpaceOnUse" color-interpolation-filters="sRGB">
      <feFlood flood-opacity="0" result="BackgroundImageFix"/>
      <feColorMatrix in="SourceAlpha" values="0 0 0 0 0 0 0 0 0 0 0 0 0 0 0 0 0 0 127 0"/>
      <feOffset dy="4"/>
      <feGaussianBlur stdDeviation="8"/>
      <feColorMatrix values="0 0 0 0 0 0 0 0 0 0 0 0 0 0 0 0 0 0 0.05 0"/>
      <feBlend in2="BackgroundImageFix" result="effect1_dropShadow"/>
      <feBlend in="SourceGraphic" in2="effect1_dropShadow" result="shape"/>
    </filter>
    <filter id="kibana_dashboard_dark__filter1_d" x="8" y="12" width="552" height="156" filterUnits="userSpaceOnUse" color-interpolation-filters="sRGB">
      <feFlood flood-opacity="0" result="BackgroundImageFix"/>
      <feColorMatrix in="SourceAlpha" values="0 0 0 0 0 0 0 0 0 0 0 0 0 0 0 0 0 0 127 0"/>
      <feOffset dy="4"/>
      <feGaussianBlur stdDeviation="8"/>
      <feColorMatrix values="0 0 0 0 0 0 0 0 0 0 0 0 0 0 0 0 0 0 0.05 0"/>
      <feBlend in2="BackgroundImageFix" result="effect1_dropShadow"/>
      <feBlend in="SourceGraphic" in2="effect1_dropShadow" result="shape"/>
    </filter>
    <filter id="kibana_dashboard_dark__filter2_d" x="280" y="160" width="280" height="156" filterUnits="userSpaceOnUse" color-interpolation-filters="sRGB">
      <feFlood flood-opacity="0" result="BackgroundImageFix"/>
      <feColorMatrix in="SourceAlpha" values="0 0 0 0 0 0 0 0 0 0 0 0 0 0 0 0 0 0 127 0"/>
      <feOffset dy="4"/>
      <feGaussianBlur stdDeviation="8"/>
      <feColorMatrix values="0 0 0 0 0 0 0 0 0 0 0 0 0 0 0 0 0 0 0.05 0"/>
      <feBlend in2="BackgroundImageFix" result="effect1_dropShadow"/>
      <feBlend in="SourceGraphic" in2="effect1_dropShadow" result="shape"/>
    </filter>
  </defs>
</svg>
