<svg xmlns="http://www.w3.org/2000/svg" width="568" height="320" fill="none"><path fill="#F5F7FA" d="M0 0h568v320H0z"/><g filter="url(#a)"><rect width="248" height="124" x="24" y="172" fill="#fff" rx="4"/></g><rect width="120" height="4" x="32" y="180" fill="#6A717D" rx="2"/><rect width="16" height="4" x="40" y="200" fill="#98A2B3" rx="2"/><rect width="24" height="4" x="72" y="284" fill="#98A2B3" rx="2"/><rect width="24" height="4" x="125" y="284" fill="#98A2B3" rx="2"/><rect width="24" height="4" x="178" y="284" fill="#98A2B3" rx="2"/><rect width="24" height="4" x="231" y="284" fill="#98A2B3" rx="2"/><rect width="24" height="4" x="32" y="221" fill="#98A2B3" rx="2"/><rect width="20" height="4" x="36" y="242" fill="#98A2B3" rx="2"/><rect width="16" height="4" x="40" y="263" fill="#98A2B3" rx="2" transform="rotate(-.17 40 263)"/><path stroke="#D3DAE6" stroke-linecap="round" stroke-linejoin="round" d="M64.5 192.5v9.5m199 73.5H243M64.5 202h-4m4 0v21m0 0h-4m4 0v21m0 0h-4m4 0v21m0 0v10.5H84M64.5 265h-4M84 279.5v-4m0 0h53m0 0v4m0-4h53m0 0v4m0-4h53m0 0v4"/><rect width="181" height="16" x="67" y="194" fill="#54B399" rx="1"/><rect width="59" height="16" x="67" y="236" fill="#D36086" rx="1"/><rect width="120" height="16" x="67" y="215" fill="#6092C0" rx="1"/><rect width="30" height="16" x="67" y="257" fill="#9170B8" rx="1"/><g filter="url(#b)"><rect width="520" height="124" x="24" y="24" fill="#fff" rx="4"/></g><rect width="101" height="4" x="32" y="32" fill="#6A717D" rx="2"/><rect width="18" height="4" x="38" y="52" fill="#98A2B3" rx="2"/><rect width="24" height="4" x="32" y="73" fill="#98A2B3" rx="2"/><rect width="16" height="4" x="40" y="94" fill="#98A2B3" rx="2"/><rect width="20" height="4" x="36" y="115" fill="#98A2B3" rx="2"/><rect width="24" height="4" x="72" y="136" fill="#98A2B3" rx="2"/><rect width="24" height="4" x="216" y="136" fill="#98A2B3" rx="2"/><rect width="24" height="4" x="360" y="136" fill="#98A2B3" rx="2"/><rect width="24" height="4" x="504" y="136" fill="#98A2B3" rx="2"/><path fill="#54B399" d="M80.177 118 65 110v17h470.5V90.5l-15.177 12.692-15.178 1.346-15.177-8.846-15.178 17.885-15.177.961-15.178-5.384-15.177-.769-15.177 5.384-15.178-5.846-15.177-40.615-15.178 18.077-15.177-38.462L338.194 104l-15.178-16.308-15.177 12.923-15.178-9.538-15.177 5.615-15.178-24.384L247.129 71l-15.177-15.615-15.178 49.077-15.177 4.615-15.178-22.154-15.177-5.385L156.065 50l-15.178 37.923-15.177 6.923-15.178 19.692-15.177-4.692z" opacity=".1"/><path stroke="#54B399" stroke-linecap="round" stroke-linejoin="round" d="m65 110 15.177 8 15.178-8.154 15.177 4.692 15.178-19.692 15.177-6.923L156.065 50l15.177 31.538 15.177 5.385 15.178 22.154 15.177-4.615 15.178-49.077L247.129 71l15.177 1.308 15.178 24.384 15.177-5.615 15.178 9.538 15.177-12.923L338.194 104l15.177-57.077 15.177 38.462 15.178-18.077 15.177 40.615 15.178 5.846 15.177-5.384 15.177.769 15.178 5.384 15.177-.961 15.178-17.885 15.177 8.846 15.178-1.346L535.5 90.5"/><circle cx="100" cy="63" r="7.5" fill="#6092C0" stroke="#6092C0" opacity=".1"/><circle cx="232" cy="55" r="7.5" fill="#6092C0" stroke="#6092C0" opacity=".1"/><circle cx="323" cy="88" r="7.5" fill="#6092C0" stroke="#6092C0" opacity=".1"/><circle cx="353" cy="47" r="7.5" fill="#6092C0" stroke="#6092C0" opacity=".1"/><circle cx="523" cy="47" r="7.5" fill="#6092C0" stroke="#6092C0" opacity=".1"/><circle cx="106" cy="68" r="3.5" fill="#6092C0" stroke="#6092C0" opacity=".1"/><circle cx="156" cy="50" r="3.5" fill="#6092C0" stroke="#6092C0" opacity=".1"/><circle cx="240" cy="55" r="3.5" fill="#6092C0" stroke="#6092C0" opacity=".1"/><circle cx="262" cy="72" r="3.5" fill="#6092C0" stroke="#6092C0" opacity=".1"/><circle cx="345" cy="48" r="3.5" fill="#6092C0" stroke="#6092C0" opacity=".1"/><circle cx="484" cy="92" r="3.5" fill="#6092C0" stroke="#6092C0" opacity=".1"/><circle cx="490" cy="96" r="3.5" fill="#6092C0" stroke="#6092C0" opacity=".1"/><circle cx="100" cy="63" r="7.5" stroke="#6092C0"/><circle cx="232" cy="55" r="7.5" stroke="#6092C0"/><circle cx="323" cy="88" r="7.5" stroke="#6092C0"/><circle cx="353" cy="47" r="7.5" stroke="#6092C0"/><circle cx="523" cy="47" r="7.5" stroke="#6092C0"/><circle cx="106" cy="68" r="3.5" stroke="#6092C0"/><circle cx="156" cy="50" r="3.5" stroke="#6092C0"/><circle cx="240" cy="55" r="3.5" stroke="#6092C0"/><circle cx="262" cy="72" r="3.5" stroke="#6092C0"/><circle cx="345" cy="48" r="3.5" stroke="#6092C0"/><circle cx="484" cy="92" r="3.5" stroke="#6092C0"/><circle cx="490" cy="96" r="3.5" stroke="#6092C0"/><path stroke="#D3DAE6" stroke-linecap="round" stroke-linejoin="round" d="M64.5 44.5V54m471 73.5H516M64.5 54h-4m4 0v21m0 0h-4m4 0v21m0 0h-4m4 0v21m0 0v10.5H84M64.5 117h-4M84 131.5v-4m0 0h144m0 0v4m0-4h144m0 0v4m0-4h144m0 0v4"/><g filter="url(#c)"><rect width="248" height="124" x="296" y="172" fill="#fff" rx="4"/></g><rect width="80" height="4" x="304" y="180" fill="#6A717D" rx="2"/><path fill="#54B399" d="M448.284 268.284a39.997 39.997 0 0 0-10.054-63.888 40 40 0 0 0-24.383-3.92l2.461 15.81a24 24 0 0 1 20.663 40.685z"/><mask id="d" width="72" height="31" x="385" y="250" fill="#000" maskUnits="userSpaceOnUse"><path fill="#fff" d="M385 250h72v31h-72z"/><path d="M386.416 261.728a40 40 0 0 0 34.591 18.259 40 40 0 0 0 33.628-19.976l-13.854-8.005a24 24 0 0 1-40.932 1.031z"/></mask><path fill="#6092C0" d="M386.416 261.728a40 40 0 0 0 34.591 18.259 40 40 0 0 0 33.628-19.976l-13.854-8.005a24 24 0 0 1-40.932 1.031z"/><path stroke="#fff" stroke-width="2" d="M386.416 261.728a40 40 0 0 0 34.591 18.259 40 40 0 0 0 33.628-19.976l-13.854-8.005a24 24 0 0 1-40.932 1.031z" mask="url(#d)"/><mask id="e" width="24" height="54" x="379" y="213" fill="#000" maskUnits="userSpaceOnUse"><path fill="#fff" d="M379 213h24v54h-24z"/><path d="M388.645 215.163a40 40 0 0 0 .54 50.341l12.326-10.202a24 24 0 0 1-.324-30.204z"/></mask><path fill="#D36086" d="M388.645 215.163a40 40 0 0 0 .54 50.341l12.326-10.202a24 24 0 0 1-.324-30.204z"/><path stroke="#fff" stroke-width="2" d="M388.645 215.163a40 40 0 0 0 .54 50.341l12.326-10.202a24 24 0 0 1-.324-30.204z" mask="url(#e)"/><mask id="f" width="37" height="30" x="384" y="199" fill="#000" maskUnits="userSpaceOnUse"><path fill="#fff" d="M384 199h37v30h-37z"/><path d="M420 200a40 40 0 0 0-33.929 18.814l13.572 8.474A24 24 0 0 1 420 216z"/></mask><path fill="#9170B8" d="M420 200a40 40 0 0 0-33.929 18.814l13.572 8.474A24 24 0 0 1 420 216z"/><path stroke="#fff" stroke-width="2" d="M420 200a40 40 0 0 0-33.929 18.814l13.572 8.474A24 24 0 0 1 420 216z" mask="url(#f)"/><rect width="22" height="4" x="367" y="192" fill="#98A2B3" rx="2"/><rect width="16" height="4" x="345" y="250" fill="#98A2B3" rx="2"/><rect width="24" height="4" x="441" y="284" fill="#98A2B3" rx="2"/><rect width="24" height="4" x="471" y="210" fill="#98A2B3" rx="2"/><path stroke="#D3DAE6" stroke-linecap="round" stroke-linejoin="round" d="M393.5 194h4l4 8.5m65 9.5h-4l-7 4.5m-26.5 64 3.5 5.5h4m-58-41-9 7h-4"/><defs><filter id="a" width="280" height="156" x="8" y="160" color-interpolation-filters="sRGB" filterUnits="userSpaceOnUse"><feFlood flood-opacity="0" result="BackgroundImageFix"/><feColorMatrix in="SourceAlpha" values="0 0 0 0 0 0 0 0 0 0 0 0 0 0 0 0 0 0 127 0"/><feOffset dy="4"/><feGaussianBlur stdDeviation="8"/><feColorMatrix values="0 0 0 0 0 0 0 0 0 0 0 0 0 0 0 0 0 0 0.05 0"/><feBlend in2="BackgroundImageFix" result="effect1_dropShadow"/><feBlend in="SourceGraphic" in2="effect1_dropShadow" result="shape"/></filter><filter id="b" width="552" height="156" x="8" y="12" color-interpolation-filters="sRGB" filterUnits="userSpaceOnUse"><feFlood flood-opacity="0" result="BackgroundImageFix"/><feColorMatrix in="SourceAlpha" values="0 0 0 0 0 0 0 0 0 0 0 0 0 0 0 0 0 0 127 0"/><feOffset dy="4"/><feGaussianBlur stdDeviation="8"/><feColorMatrix values="0 0 0 0 0 0 0 0 0 0 0 0 0 0 0 0 0 0 0.05 0"/><feBlend in2="BackgroundImageFix" result="effect1_dropShadow"/><feBlend in="SourceGraphic" in2="effect1_dropShadow" result="shape"/></filter><filter id="c" width="280" height="156" x="280" y="160" color-interpolation-filters="sRGB" filterUnits="userSpaceOnUse"><feFlood flood-opacity="0" result="BackgroundImageFix"/><feColorMatrix in="SourceAlpha" values="0 0 0 0 0 0 0 0 0 0 0 0 0 0 0 0 0 0 127 0"/><feOffset dy="4"/><feGaussianBlur stdDeviation="8"/><feColorMatrix values="0 0 0 0 0 0 0 0 0 0 0 0 0 0 0 0 0 0 0.05 0"/><feBlend in2="BackgroundImageFix" result="effect1_dropShadow"/><feBlend in="SourceGraphic" in2="effect1_dropShadow" result="shape"/></filter></defs></svg>