<svg xmlns="http://www.w3.org/2000/svg" width="580" height="339" fill="none"><g filter="url(#a)"><rect width="520" height="124" x="24" y="111" fill="#fff" rx="4"/></g><rect width="101" height="4" x="32" y="119" fill="#6A717D" rx="2"/><rect width="18" height="4" x="38" y="139" fill="#98A2B3" rx="2"/><rect width="24" height="4" x="32" y="160" fill="#98A2B3" rx="2"/><rect width="16" height="4" x="40" y="181" fill="#98A2B3" rx="2"/><rect width="20" height="4" x="36" y="202" fill="#98A2B3" rx="2"/><rect width="24" height="4" x="72" y="223" fill="#98A2B3" rx="2"/><rect width="24" height="4" x="216" y="223" fill="#98A2B3" rx="2"/><rect width="24" height="4" x="360" y="223" fill="#98A2B3" rx="2"/><rect width="24" height="4" x="504" y="223" fill="#98A2B3" rx="2"/><path fill="#54B399" d="M80.177 205 65 197v17h470.5v-36.5l-15.177 12.692-15.178 1.346-15.177-8.846-15.178 17.885-15.177.961-15.178-5.384-15.177-.769-15.177 5.384-15.178-5.846-15.177-40.615-15.178 18.077-15.177-38.462L338.194 191l-15.178-16.308-15.177 12.923-15.178-9.538-15.177 5.615-15.178-24.384L247.129 158l-15.177-15.615-15.178 49.077-15.177 4.615-15.178-22.154-15.177-5.385L156.065 137l-15.178 37.923-15.177 6.923-15.178 19.692-15.177-4.692z" opacity=".1"/><path stroke="#54B399" stroke-linecap="round" stroke-linejoin="round" d="m65 197 15.177 8 15.178-8.154 15.177 4.692 15.178-19.692 15.177-6.923L156.065 137l15.177 31.538 15.177 5.385 15.178 22.154 15.177-4.615 15.178-49.077L247.129 158l15.177 1.308 15.178 24.384 15.177-5.615 15.178 9.538 15.177-12.923L338.194 191l15.177-57.077 15.177 38.462 15.178-18.077 15.177 40.615 15.178 5.846 15.177-5.384 15.177.769 15.178 5.384 15.177-.961 15.178-17.885 15.177 8.846 15.178-1.346L535.5 177.5"/><circle cx="100" cy="150" r="8" fill="#6092C0" opacity=".1"/><circle cx="232" cy="142" r="8" fill="#6092C0" opacity=".1"/><circle cx="323" cy="175" r="8" fill="#6092C0" opacity=".1"/><circle cx="353" cy="134" r="8" fill="#6092C0" opacity=".1"/><circle cx="523" cy="134" r="8" fill="#6092C0" opacity=".1"/><circle cx="106" cy="155" r="4" fill="#6092C0" opacity=".1"/><circle cx="156" cy="137" r="4" fill="#6092C0" opacity=".1"/><circle cx="240" cy="142" r="4" fill="#6092C0" opacity=".1"/><circle cx="262" cy="159" r="4" fill="#6092C0" opacity=".1"/><circle cx="345" cy="135" r="4" fill="#6092C0" opacity=".1"/><circle cx="484" cy="179" r="4" fill="#017D73" opacity=".1"/><circle cx="490" cy="183" r="4" fill="#017D73" opacity=".1"/><circle cx="100" cy="150" r="7.5" stroke="#6092C0"/><circle cx="232" cy="142" r="7.5" stroke="#6092C0"/><circle cx="323" cy="175" r="7.5" stroke="#6092C0"/><circle cx="353" cy="134" r="7.5" stroke="#6092C0"/><circle cx="523" cy="134" r="7.5" stroke="#6092C0"/><circle cx="106" cy="155" r="3.5" stroke="#6092C0"/><circle cx="156" cy="137" r="3.5" stroke="#6092C0"/><circle cx="240" cy="142" r="3.5" stroke="#6092C0"/><circle cx="262" cy="159" r="3.5" stroke="#6092C0"/><circle cx="345" cy="135" r="3.5" stroke="#6092C0"/><circle cx="484" cy="179" r="3.5" stroke="#017D73"/><circle cx="490" cy="183" r="3.5" stroke="#017D73"/><path stroke="#D3DAE6" stroke-linecap="round" stroke-linejoin="round" d="M64.5 131.5v9.5m471 73.5H516M64.5 141h-4m4 0v21m0 0h-4m4 0v21m0 0h-4m4 0v21m0 0v10.5H84M64.5 204h-4M84 218.5v-4m0 0h144m0 0v4m0-4h144m0 0v4m0-4h144m0 0v4"/><g filter="url(#b)"><rect width="248" height="124" x="160" y="6" fill="#fff" rx="4"/></g><rect width="80" height="4" x="168" y="14" fill="#6A717D" rx="2"/><path fill="#54B399" d="M312.284 102.284a39.996 39.996 0 0 0-10.054-63.888 40 40 0 0 0-24.383-3.92l2.461 15.81a23.999 23.999 0 0 1 20.663 40.685z"/><mask id="c" width="72" height="31" x="249" y="84" fill="#000" maskUnits="userSpaceOnUse"><path fill="#fff" d="M249 84h72v31h-72z"/><path d="M250.416 95.728a40 40 0 0 0 34.591 18.259 40 40 0 0 0 33.628-19.976l-13.854-8.005a24.003 24.003 0 0 1-31.985 9.218 24 24 0 0 1-8.947-8.187z"/></mask><path fill="#6092C0" d="M250.416 95.728a40 40 0 0 0 34.591 18.259 40 40 0 0 0 33.628-19.976l-13.854-8.005a24.003 24.003 0 0 1-31.985 9.218 24 24 0 0 1-8.947-8.187z"/><path stroke="#fff" stroke-width="2" d="M250.416 95.728a40 40 0 0 0 34.591 18.259 40 40 0 0 0 33.628-19.976l-13.854-8.005a24.003 24.003 0 0 1-31.985 9.218 24 24 0 0 1-8.947-8.187z" mask="url(#c)"/><mask id="d" width="24" height="54" x="243" y="47" fill="#000" maskUnits="userSpaceOnUse"><path fill="#fff" d="M243 47h24v54h-24z"/><path d="M252.645 49.163a40 40 0 0 0 .54 50.34l12.326-10.2a24 24 0 0 1-.324-30.205z"/></mask><path fill="#D36086" d="M252.645 49.163a40 40 0 0 0 .54 50.34l12.326-10.2a24 24 0 0 1-.324-30.205z"/><path stroke="#fff" stroke-width="2" d="M252.645 49.163a40 40 0 0 0 .54 50.34l12.326-10.2a24 24 0 0 1-.324-30.205z" mask="url(#d)"/><mask id="e" width="37" height="30" x="248" y="33" fill="#000" maskUnits="userSpaceOnUse"><path fill="#fff" d="M248 33h37v30h-37z"/><path d="M284 34a40 40 0 0 0-33.929 18.814l13.572 8.474A24 24 0 0 1 284 50z"/></mask><path fill="#9170B8" d="M284 34a40 40 0 0 0-33.929 18.814l13.572 8.474A24 24 0 0 1 284 50z"/><path stroke="#fff" stroke-width="2" d="M284 34a40 40 0 0 0-33.929 18.814l13.572 8.474A24 24 0 0 1 284 50z" mask="url(#e)"/><rect width="22" height="4" x="231" y="26" fill="#98A2B3" rx="2"/><rect width="16" height="4" x="209" y="84" fill="#98A2B3" rx="2"/><rect width="24" height="4" x="305" y="118" fill="#98A2B3" rx="2"/><rect width="24" height="4" x="335" y="44" fill="#98A2B3" rx="2"/><path stroke="#D3DAE6" stroke-linecap="round" stroke-linejoin="round" d="M257.5 28h4l4 8.5m65 9.5h-4l-7 4.5m-26.5 64 3.5 5.5h4m-58-41-9 7h-4"/><g filter="url(#f)"><rect width="228" height="111" x="48" y="210" fill="#fff" rx="4"/><rect width="12" height="4" x="52" y="214" fill="#54B399" rx="1"/><rect width="12" height="4" x="68" y="214" fill="#6092C0" rx="1"/><rect width="12" height="4" x="84" y="214" fill="#D36086" rx="1"/><rect width="12" height="4" x="100" y="214" fill="#9170B8" rx="1"/><path stroke="#D3DAE6" d="m167 277 24 12m0 0-24 12m24-12 24 12m-24-12h34m-34 0 24-12m-98-32 16 20m0 0-34-12m34 12h-24m24 0-34 12m34-12-16 20m16-20 16 20m-16-20h24m-24 0 16-20m-16 20 34-12m-34 12 34 12m0-48 24 12m0 0-24 12m24-12 24-12m-24 12 24 12"/><circle cx="133" cy="265" r="4.5" fill="#9170B8" stroke="#fff"/><circle cx="191" cy="289" r="4.5" fill="#6092C0" stroke="#fff"/><circle cx="191" cy="241" r="4.5" fill="#D36086" stroke="#fff"/><circle cx="149" cy="245" r="4.5" fill="#54B399" stroke="#fff"/><circle cx="167" cy="229" r="4.5" fill="#54B399" stroke="#fff"/><circle cx="215" cy="229" r="4.5" fill="#54B399" stroke="#fff"/><circle cx="215" cy="253" r="4.5" fill="#54B399" stroke="#fff"/><circle cx="215" cy="301" r="4.5" fill="#54B399" stroke="#fff"/><circle cx="225" cy="289" r="4.5" fill="#54B399" stroke="#fff"/><circle cx="215" cy="277" r="4.5" fill="#54B399" stroke="#fff"/><circle cx="167" cy="253" r="4.5" fill="#54B399" stroke="#fff"/><circle cx="167" cy="277" r="4.5" fill="#54B399" stroke="#fff"/><circle cx="167" cy="301" r="4.5" fill="#54B399" stroke="#fff"/><circle cx="157" cy="265" r="4.5" fill="#54B399" stroke="#fff"/><circle cx="149" cy="285" r="4.5" fill="#54B399" stroke="#fff"/><circle cx="117" cy="245" r="4.5" fill="#54B399" stroke="#fff"/><circle cx="109" cy="265" r="4.5" fill="#54B399" stroke="#fff"/><circle cx="117" cy="285" r="4.5" fill="#54B399" stroke="#fff"/><circle cx="99" cy="277" r="4.5" fill="#54B399" stroke="#fff"/><circle cx="99" cy="253" r="4.5" fill="#54B399" stroke="#fff"/><rect width="15" height="3" x="125.5" y="270.5" fill="#98A2B3" stroke="#fff" rx="1.5"/><rect width="9" height="3" x="186.5" y="294.5" fill="#98A2B3" stroke="#fff" rx="1.5"/><rect width="11" height="3" x="185.5" y="246.5" fill="#98A2B3" stroke="#fff" rx="1.5"/></g><g filter="url(#g)"><rect width="52" height="56" x="232" y="202" fill="#fff" rx="4"/></g><rect width="43" height="7" x="236.5" y="246.5" fill="#fff" stroke="#D3DAE6" rx=".5"/><rect width="26" height="2" x="236" y="206" fill="#6A717D" rx="1"/><rect width="26" height="2" x="236" y="240" fill="#6A717D" rx="1"/><rect width="29" height="2" x="240" y="212" fill="#98A2B3" rx="1"/><rect width="23" height="2" x="240" y="218" fill="#98A2B3" rx="1"/><rect width="26" height="2" x="240" y="224" fill="#98A2B3" rx="1"/><rect width="33" height="2" x="240" y="230" fill="#98A2B3" rx="1"/><circle cx="237" cy="213" r="1" fill="#54B399"/><circle cx="237" cy="219" r="1" fill="#6092C0"/><circle cx="237" cy="225" r="1" fill="#D36086"/><circle cx="237" cy="231" r="1" fill="#9170B8"/><g filter="url(#h)"><rect width="248" height="124" x="320" y="163" fill="#fff" rx="4"/></g><rect width="120" height="4" x="328" y="171" fill="#6A717D" rx="2"/><rect width="16" height="4" x="336" y="191" fill="#98A2B3" rx="2"/><rect width="24" height="4" x="368" y="275" fill="#98A2B3" rx="2"/><rect width="24" height="4" x="421" y="275" fill="#98A2B3" rx="2"/><rect width="24" height="4" x="474" y="275" fill="#98A2B3" rx="2"/><rect width="24" height="4" x="527" y="275" fill="#98A2B3" rx="2"/><rect width="24" height="4" x="328" y="212" fill="#98A2B3" rx="2"/><rect width="20" height="4" x="332" y="233" fill="#98A2B3" rx="2"/><rect width="16" height="4" x="336" y="254" fill="#98A2B3" rx="2" transform="rotate(-.17 336 254)"/><path stroke="#D3DAE6" stroke-linecap="round" stroke-linejoin="round" d="M360.5 183.5v9.5m199 73.5H539M360.5 193h-4m4 0v21m0 0h-4m4 0v21m0 0h-4m4 0v21m0 0v10.5H380M360.5 256h-4m23.5 14.5v-4m0 0h53m0 0v4m0-4h53m0 0v4m0-4h53m0 0v4"/><rect width="181" height="16" x="363" y="185" fill="#54B399" rx="1"/><rect width="59" height="16" x="363" y="227" fill="#D36086" rx="1"/><rect width="120" height="16" x="363" y="206" fill="#6092C0" rx="1"/><rect width="30" height="16" x="363" y="248" fill="#9170B8" rx="1"/><defs><filter id="a" width="544" height="148" x="12" y="105" color-interpolation-filters="sRGB" filterUnits="userSpaceOnUse"><feFlood flood-opacity="0" result="BackgroundImageFix"/><feColorMatrix in="SourceAlpha" values="0 0 0 0 0 0 0 0 0 0 0 0 0 0 0 0 0 0 127 0"/><feOffset dy="2"/><feGaussianBlur stdDeviation="1"/><feColorMatrix values="0 0 0 0 0.596078 0 0 0 0 0.635294 0 0 0 0 0.701961 0 0 0 0.15 0"/><feBlend in2="BackgroundImageFix" result="effect1_dropShadow"/><feColorMatrix in="SourceAlpha" values="0 0 0 0 0 0 0 0 0 0 0 0 0 0 0 0 0 0 127 0"/><feOffset dy="4"/><feGaussianBlur stdDeviation="2"/><feColorMatrix values="0 0 0 0 0.596078 0 0 0 0 0.635294 0 0 0 0 0.701961 0 0 0 0.15 0"/><feBlend in2="effect1_dropShadow" result="effect2_dropShadow"/><feColorMatrix in="SourceAlpha" values="0 0 0 0 0 0 0 0 0 0 0 0 0 0 0 0 0 0 127 0"/><feOffset dy="6"/><feGaussianBlur stdDeviation="6"/><feColorMatrix values="0 0 0 0 0.596078 0 0 0 0 0.635294 0 0 0 0 0.701961 0 0 0 0.15 0"/><feBlend in2="effect2_dropShadow" result="effect3_dropShadow"/><feBlend in="SourceGraphic" in2="effect3_dropShadow" result="shape"/></filter><filter id="b" width="272" height="148" x="148" y="0" color-interpolation-filters="sRGB" filterUnits="userSpaceOnUse"><feFlood flood-opacity="0" result="BackgroundImageFix"/><feColorMatrix in="SourceAlpha" values="0 0 0 0 0 0 0 0 0 0 0 0 0 0 0 0 0 0 127 0"/><feOffset dy="2"/><feGaussianBlur stdDeviation="1"/><feColorMatrix values="0 0 0 0 0.596078 0 0 0 0 0.635294 0 0 0 0 0.701961 0 0 0 0.15 0"/><feBlend in2="BackgroundImageFix" result="effect1_dropShadow"/><feColorMatrix in="SourceAlpha" values="0 0 0 0 0 0 0 0 0 0 0 0 0 0 0 0 0 0 127 0"/><feOffset dy="4"/><feGaussianBlur stdDeviation="2"/><feColorMatrix values="0 0 0 0 0.596078 0 0 0 0 0.635294 0 0 0 0 0.701961 0 0 0 0.15 0"/><feBlend in2="effect1_dropShadow" result="effect2_dropShadow"/><feColorMatrix in="SourceAlpha" values="0 0 0 0 0 0 0 0 0 0 0 0 0 0 0 0 0 0 127 0"/><feOffset dy="6"/><feGaussianBlur stdDeviation="6"/><feColorMatrix values="0 0 0 0 0.596078 0 0 0 0 0.635294 0 0 0 0 0.701961 0 0 0 0.15 0"/><feBlend in2="effect2_dropShadow" result="effect3_dropShadow"/><feBlend in="SourceGraphic" in2="effect3_dropShadow" result="shape"/></filter><filter id="f" width="252" height="135" x="36" y="204" color-interpolation-filters="sRGB" filterUnits="userSpaceOnUse"><feFlood flood-opacity="0" result="BackgroundImageFix"/><feColorMatrix in="SourceAlpha" values="0 0 0 0 0 0 0 0 0 0 0 0 0 0 0 0 0 0 127 0"/><feOffset dy="2"/><feGaussianBlur stdDeviation="1"/><feColorMatrix values="0 0 0 0 0.596078 0 0 0 0 0.635294 0 0 0 0 0.701961 0 0 0 0.15 0"/><feBlend in2="BackgroundImageFix" result="effect1_dropShadow"/><feColorMatrix in="SourceAlpha" values="0 0 0 0 0 0 0 0 0 0 0 0 0 0 0 0 0 0 127 0"/><feOffset dy="4"/><feGaussianBlur stdDeviation="2"/><feColorMatrix values="0 0 0 0 0.596078 0 0 0 0 0.635294 0 0 0 0 0.701961 0 0 0 0.15 0"/><feBlend in2="effect1_dropShadow" result="effect2_dropShadow"/><feColorMatrix in="SourceAlpha" values="0 0 0 0 0 0 0 0 0 0 0 0 0 0 0 0 0 0 127 0"/><feOffset dy="6"/><feGaussianBlur stdDeviation="6"/><feColorMatrix values="0 0 0 0 0.596078 0 0 0 0 0.635294 0 0 0 0 0.701961 0 0 0 0.15 0"/><feBlend in2="effect2_dropShadow" result="effect3_dropShadow"/><feBlend in="SourceGraphic" in2="effect3_dropShadow" result="shape"/></filter><filter id="g" width="84" height="88" x="216" y="190" color-interpolation-filters="sRGB" filterUnits="userSpaceOnUse"><feFlood flood-opacity="0" result="BackgroundImageFix"/><feColorMatrix in="SourceAlpha" values="0 0 0 0 0 0 0 0 0 0 0 0 0 0 0 0 0 0 127 0"/><feOffset dy="4"/><feGaussianBlur stdDeviation="8"/><feColorMatrix values="0 0 0 0 0 0 0 0 0 0 0 0 0 0 0 0 0 0 0.05 0"/><feBlend in2="BackgroundImageFix" result="effect1_dropShadow"/><feBlend in="SourceGraphic" in2="effect1_dropShadow" result="shape"/></filter><filter id="h" width="272" height="148" x="308" y="157" color-interpolation-filters="sRGB" filterUnits="userSpaceOnUse"><feFlood flood-opacity="0" result="BackgroundImageFix"/><feColorMatrix in="SourceAlpha" values="0 0 0 0 0 0 0 0 0 0 0 0 0 0 0 0 0 0 127 0"/><feOffset dy="2"/><feGaussianBlur stdDeviation="1"/><feColorMatrix values="0 0 0 0 0.596078 0 0 0 0 0.635294 0 0 0 0 0.701961 0 0 0 0.15 0"/><feBlend in2="BackgroundImageFix" result="effect1_dropShadow"/><feColorMatrix in="SourceAlpha" values="0 0 0 0 0 0 0 0 0 0 0 0 0 0 0 0 0 0 127 0"/><feOffset dy="4"/><feGaussianBlur stdDeviation="2"/><feColorMatrix values="0 0 0 0 0.596078 0 0 0 0 0.635294 0 0 0 0 0.701961 0 0 0 0.15 0"/><feBlend in2="effect1_dropShadow" result="effect2_dropShadow"/><feColorMatrix in="SourceAlpha" values="0 0 0 0 0 0 0 0 0 0 0 0 0 0 0 0 0 0 127 0"/><feOffset dy="6"/><feGaussianBlur stdDeviation="6"/><feColorMatrix values="0 0 0 0 0.596078 0 0 0 0 0.635294 0 0 0 0 0.701961 0 0 0 0.15 0"/><feBlend in2="effect2_dropShadow" result="effect3_dropShadow"/><feBlend in="SourceGraphic" in2="effect3_dropShadow" result="shape"/></filter></defs></svg>