<svg xmlns="http://www.w3.org/2000/svg" width="32" height="32" fill="none"><g fill-rule="evenodd" clip-path="url(#a)" clip-rule="evenodd"><path fill="#61a2ff" d="M7 24h2v-7H7zM12 24h2V14h-2zM17 24h2v-8h-2zM22 16h3v-2h-3zM22 20h3v-2h-3zM21.999 24h3v-2h-3z"/><path fill="#cad3e2" d="M30.06 29.29a4.4 4.4 0 0 1-1.34-.46 7.1 7.1 0 0 0-2.9-.82 8.1 8.1 0 0 0-2.78.55 6.2 6.2 0 0 1-2.13.45 6.3 6.3 0 0 1-2.14-.45 8 8 0 0 0-2.77-.54 9 9 0 0 0-3.08.6 5.7 5.7 0 0 1-1.83.4 6.4 6.4 0 0 1-2-.43 8.7 8.7 0 0 0-2.91-.57 7.1 7.1 0 0 0-2.9.82 10 10 0 0 1-1.28.52c.033-.763.21-1.513.52-2.21a10.5 10.5 0 0 0 .73-3.13 8.5 8.5 0 0 0-.54-2.81 6.5 6.5 0 0 1-.44-2.19c.018-.75.167-1.492.44-2.19.336-.9.518-1.85.54-2.81a10.4 10.4 0 0 0-.72-3.13 9 9 0 0 1-.59-2.16H2a5.7 5.7 0 0 1 1.29.46 7.1 7.1 0 0 0 2.9.82A8.1 8.1 0 0 0 9 9.46a6.2 6.2 0 0 1 2.09-.44 6.1 6.1 0 0 1 2.13.45c.887.344 1.828.53 2.78.55a8.2 8.2 0 0 0 2.78-.55 6.1 6.1 0 0 1 2.13-.45 6.2 6.2 0 0 1 2.09.44 8.2 8.2 0 0 0 2.78.55 7.1 7.1 0 0 0 2.9-.82A9.6 9.6 0 0 1 30 8.68a6.1 6.1 0 0 1-.52 2.21c-.403 1-.65 2.055-.73 3.13.02.96.203 1.91.54 2.81.272.698.42 1.44.44 2.19a6.5 6.5 0 0 1-.44 2.19 8.6 8.6 0 0 0-.54 2.81c.078 1.074.32 2.13.72 3.13.285.692.484 1.417.59 2.16zM21.17 7.02h-.26a8 8 0 0 0-2.77.55 6.2 6.2 0 0 1-2.14.45 6.2 6.2 0 0 1-2.14-.45 8 8 0 0 0-2.77-.55h-.26L16 2.74zm9.56 17a6.5 6.5 0 0 1 .45-2.19c.336-.9.52-1.85.54-2.81a8.5 8.5 0 0 0-.54-2.81 6.5 6.5 0 0 1-.45-2.19 9.2 9.2 0 0 1 .62-2.49c.53-1.57 1.08-3.19.08-4.2s-2.41-.44-3.52.05a5.6 5.6 0 0 1-2.09.64 5 5 0 0 1-.59 0L16 .3 6.77 8.02a5 5 0 0 1-.59 0 5.6 5.6 0 0 1-2.09-.65C3 6.89 1.6 6.27.57 7.33s-.45 2.63.08 4.2c.322.797.53 1.634.62 2.49a6.5 6.5 0 0 1-.45 2.19 8.6 8.6 0 0 0-.54 2.81c.02.96.203 1.91.54 2.81.276.698.427 1.438.45 2.19a9.2 9.2 0 0 1-.62 2.49c-.53 1.57-1.08 3.19-.08 4.2.353.38.851.59 1.37.58a5.6 5.6 0 0 0 2.15-.63 5.6 5.6 0 0 1 2.09-.64c.783.03 1.557.188 2.29.47a8 8 0 0 0 2.62.53 7.4 7.4 0 0 0 2.47-.51 7.2 7.2 0 0 1 2.44-.49 6.2 6.2 0 0 1 2.14.45 8 8 0 0 0 2.77.55 8.1 8.1 0 0 0 2.77-.55 6.2 6.2 0 0 1 2.14-.45 5.6 5.6 0 0 1 2.09.65c1.11.49 2.49 1.11 3.52.05s.45-2.63-.08-4.2a9.2 9.2 0 0 1-.62-2.5"/></g><defs><clipPath id="a"><path fill="#fff" d="M0 0h32v32H0z"/></clipPath></defs></svg>