<svg xmlns="http://www.w3.org/2000/svg" width="80" height="80" fill="none"><mask id="a" width="72" height="71" x="4" y="5" maskUnits="userSpaceOnUse" style="mask-type:luminance"><path fill="#fff" d="M75.131 5H4.375v70.081h70.756z"/></mask><g mask="url(#a)"><path fill="#153385" stroke="#101c3f" stroke-miterlimit="10" stroke-width="1.607" d="M42.788 8.631c-17.432 0-31.563 14.132-31.563 31.563s14.131 31.562 31.563 31.562c17.43 0 31.562-14.13 31.562-31.562C74.35 22.763 60.22 8.63 42.788 8.63Zm0 53.625c-12.188 0-22.07-9.88-22.07-22.068s9.882-22.07 22.07-22.07c12.187 0 22.068 9.882 22.068 22.07 0 12.187-9.88 22.068-22.068 22.068Z"/><path fill="#153385" stroke="#101c3f" stroke-miterlimit="10" stroke-width="1.607" d="M41.525 51.6c6.3 0 11.406-5.106 11.406-11.406s-5.106-11.406-11.406-11.406-11.406 5.106-11.406 11.406S35.225 51.6 41.525 51.6Z"/><path fill="#0b64dd" stroke="#101c3f" stroke-miterlimit="10" stroke-width="1.607" d="M39.938 8.631c-17.432 0-31.563 14.132-31.563 31.557S22.506 71.75 39.938 71.75c17.43 0 31.562-14.131 31.562-31.562S57.369 8.63 39.938 8.63Zm0 53.625c-12.188 0-22.07-9.88-22.07-22.068s9.882-22.07 22.07-22.07c12.187 0 22.068 9.882 22.068 22.07 0 12.187-9.881 22.068-22.068 22.068Z"/><path fill="#48efcf" stroke="#101c3f" stroke-miterlimit="10" stroke-width="1.607" d="M39.938 51.6c6.3 0 11.406-5.106 11.406-11.406s-5.107-11.406-11.407-11.406-11.406 5.106-11.406 11.406S33.638 51.6 39.938 51.6Z"/><path stroke="#153385" stroke-miterlimit="10" stroke-width="1.607" d="M39.938 5v17.088M39.938 57.987v17.088M75.131 39.913H58.044M21.463 39.913H4.374"/><path fill="#fff" d="M31.837 40.25s7.175-10.25 16.2 0c0 0-6.968 9.637-16.2 0"/><path fill="#101c3f" d="M39.756 44.181a4 4 0 1 0 0-8c-2.212 0-4 1.788-4 4 0 2.213 1.788 4 4 4"/></g></svg>