<?xml version="1.0" encoding="UTF-8"?>
<svg width="74px" height="25px" viewBox="0 0 74 25" version="1.1" xmlns="http://www.w3.org/2000/svg" xmlns:xlink="http://www.w3.org/1999/xlink">
    <!-- Generator: Sketch 42 (36781) - http://www.bohemiancoding.com/sketch -->
    <title>icon-number</title>
    <desc>Created with Sketch.</desc>
    <defs></defs>
    <g id="Visualize" stroke="none" stroke-width="1" fill="none" fill-rule="evenodd">
        <g id="Visualize-Create-New" transform="translate(-269.000000, -664.000000)" fill="#000000">
            <g id="data" transform="translate(74.000000, 576.000000)">
                <g id="number" transform="translate(162.000000, 44.000000)">
                    <path d="M43.9794922,65 L39.6040039,65 L39.6040039,53.0205078 L39.6464844,51.0522461 L39.7172852,48.8999023 C38.9903935,49.626794 38.485353,50.1035145 38.2021484,50.3300781 L35.8232422,52.2416992 L33.7133789,49.6079102 L40.3828125,44.2978516 L43.9794922,44.2978516 L43.9794922,65 Z M55.0527344,61.9555664 C54.5618465,63.862477 53.7311256,66.1233593 52.5605469,68.7382812 L49.4453125,68.7382812 C50.0589223,66.227201 50.5356428,63.8577585 50.8754883,61.6298828 L54.840332,61.6298828 L55.0527344,61.9555664 Z M72.597168,65 L58.1254883,65 L58.1254883,61.9555664 L63.3222656,56.7021484 C64.8610103,55.1256432 65.8663713,54.032962 66.3383789,53.4240723 C66.8103865,52.8151825 67.1502268,52.2511419 67.3579102,51.7319336 C67.5655935,51.2127253 67.6694336,50.6746447 67.6694336,50.1176758 C67.6694336,49.2869425 67.4405134,48.6686218 66.982666,48.2626953 C66.5248187,47.8567688 65.913578,47.6538086 65.1489258,47.6538086 C64.3465129,47.6538086 63.5677121,47.8378888 62.8125,48.2060547 C62.0572879,48.5742206 61.2690471,49.0981411 60.4477539,49.777832 L58.0688477,46.9599609 C59.088384,46.091467 59.9332649,45.4778664 60.6035156,45.1191406 C61.2737664,44.7604149 62.0053671,44.4842946 62.7983398,44.2907715 C63.5913126,44.0972484 64.4786735,44.0004883 65.4604492,44.0004883 C66.75375,44.0004883 67.8959911,44.2364885 68.887207,44.7084961 C69.8784229,45.1805037 70.6477837,45.8413043 71.1953125,46.690918 C71.7428413,47.5405316 72.0166016,48.5128526 72.0166016,49.6079102 C72.0166016,50.5613654 71.8490414,51.4558064 71.513916,52.2912598 C71.1787906,53.1267132 70.6595901,53.983394 69.9562988,54.8613281 C69.2530076,55.7392622 68.0140063,56.9900635 66.2392578,58.6137695 L63.5771484,61.1201172 L63.5771484,61.3183594 L72.597168,61.3183594 L72.597168,65 Z M88.3432617,48.9282227 C88.3432617,50.2215234 87.9515013,51.3212845 87.1679688,52.2275391 C86.3844362,53.1337936 85.284675,53.7568342 83.8686523,54.0966797 L83.8686523,54.1816406 C85.5395591,54.389324 86.8045204,54.8967245 87.6635742,55.7038574 C88.522628,56.5109904 88.9521484,57.5989515 88.9521484,58.9677734 C88.9521484,60.9596454 88.2299877,62.510167 86.7856445,63.6193848 C85.3413014,64.7286026 83.2786592,65.2832031 80.5976562,65.2832031 C78.3509002,65.2832031 76.3590582,64.9103227 74.6220703,64.1645508 L74.6220703,60.4404297 C75.4244832,60.8463562 76.3071241,61.1767565 77.2700195,61.4316406 C78.232915,61.6865247 79.186356,61.8139648 80.1303711,61.8139648 C81.5747143,61.8139648 82.6414354,61.5685246 83.3305664,61.0776367 C84.0196975,60.5867488 84.3642578,59.798508 84.3642578,58.7128906 C84.3642578,57.740555 83.9677774,57.0514343 83.1748047,56.6455078 C82.381832,56.2395813 81.1168707,56.0366211 79.3798828,56.0366211 L77.8081055,56.0366211 L77.8081055,52.6806641 L79.4082031,52.6806641 C81.0130289,52.6806641 82.1859501,52.4706238 82.927002,52.0505371 C83.6680538,51.6304504 84.0385742,50.9106496 84.0385742,49.8911133 C84.0385742,48.3240482 83.0568132,47.5405273 81.0932617,47.5405273 C80.4135708,47.5405273 79.7220901,47.6538075 79.0187988,47.8803711 C78.3155076,48.1069347 77.5343467,48.4986951 76.675293,49.0556641 L74.6503906,46.0395508 C76.5384209,44.680169 78.7898632,44.0004883 81.4047852,44.0004883 C83.5476995,44.0004883 85.2398213,44.4347287 86.4812012,45.3032227 C87.7225811,46.1717166 88.3432617,47.3800378 88.3432617,48.9282227 Z M106.170898,60.7094727 L103.678711,60.7094727 L103.678711,65 L99.4023438,65 L99.4023438,60.7094727 L90.5664062,60.7094727 L90.5664062,57.6650391 L99.6430664,44.2978516 L103.678711,44.2978516 L103.678711,57.3110352 L106.170898,57.3110352 L106.170898,60.7094727 Z M99.4023438,57.3110352 L99.4023438,53.7993164 C99.4023438,53.214027 99.4259438,52.3644261 99.4731445,51.2504883 C99.5203453,50.1365504 99.5581053,49.4899098 99.5864258,49.3105469 L99.4731445,49.3105469 C99.1238589,50.0846393 98.7037785,50.8398401 98.2128906,51.5761719 L94.4179688,57.3110352 L99.4023438,57.3110352 Z" id="icon-number"></path>
                </g>
            </g>
        </g>
    </g>
</svg>