<?xml version="1.0" encoding="UTF-8"?>
<svg width="63px" height="41px" viewBox="0 0 63 41" version="1.1" xmlns="http://www.w3.org/2000/svg" xmlns:xlink="http://www.w3.org/1999/xlink">
    <!-- Generator: Sketch 43.1 (39012) - http://www.bohemiancoding.com/sketch -->
    <title>42</title>
    <desc>Created with Sketch.</desc>
    <defs></defs>
    <g id="Visualize" stroke="none" stroke-width="1" fill="none" fill-rule="evenodd">
        <g id="Visualize-Create-New" transform="translate(-272.000000, -657.000000)" fill="#000000">
            <g id="data" transform="translate(74.000000, 576.000000)">
                <g id="number" transform="translate(162.000000, 44.000000)">
                    <path d="M67.0898438,69.7148438 L62.2773438,69.7148438 L62.2773438,78 L54.0195312,78 L54.0195312,69.7148438 L36.9570312,69.7148438 L36.9570312,63.8359375 L54.484375,38.0234375 L62.2773438,38.0234375 L62.2773438,63.1523438 L67.0898438,63.1523438 L67.0898438,69.7148438 Z M54.0195312,63.1523438 L54.0195312,56.3710938 C54.0195312,55.2408798 54.0651037,53.6002712 54.15625,51.4492188 C54.2473963,49.2981663 54.3203122,48.0494809 54.375,47.703125 L54.15625,47.703125 C53.4817675,49.1979241 52.6705777,50.6562429 51.7226562,52.078125 L44.3945312,63.1523438 L54.0195312,63.1523438 Z M98.1523438,78 L70.2070312,78 L70.2070312,72.1210938 L80.2421875,61.9765625 C83.2135565,58.9322764 85.1549434,56.8222715 86.0664062,55.6464844 C86.9778691,54.4706972 87.6341126,53.3815154 88.0351562,52.3789062 C88.4361999,51.3762971 88.6367188,50.337245 88.6367188,49.2617188 C88.6367188,47.6575441 88.1946659,46.4635456 87.3105469,45.6796875 C86.4264279,44.8958294 85.2461011,44.5039062 83.7695312,44.5039062 C82.2200443,44.5039062 80.7161531,44.8593714 79.2578125,45.5703125 C77.7994719,46.2812536 76.2773517,47.2929622 74.6914062,48.6054688 L70.0976562,43.1640625 C72.0664161,41.4869708 73.6979102,40.3020868 74.9921875,39.609375 C76.2864648,38.9166632 77.6992111,38.3834654 79.2304688,38.0097656 C80.7617264,37.6360658 82.4752509,37.4492188 84.3710938,37.4492188 C86.8685021,37.4492188 89.0742092,37.9049434 90.9882812,38.8164062 C92.9023533,39.7278691 94.3880155,41.003898 95.4453125,42.6445312 C96.5026095,44.2851645 97.03125,46.1627498 97.03125,48.2773438 C97.03125,50.1184988 96.7076855,51.8456951 96.0605469,53.4589844 C95.4134082,55.0722737 94.4108141,56.726554 93.0527344,58.421875 C91.6946547,60.117196 89.3021005,62.5325364 85.875,65.6679688 L80.734375,70.5078125 L80.734375,70.890625 L98.1523438,70.890625 L98.1523438,78 Z" id="42"></path>
                </g>
            </g>
        </g>
    </g>
</svg>