<svg xmlns="http://www.w3.org/2000/svg" width="107" height="105" fill="none">
  <g clip-path="url(#a)">
    <path fill="#61A2FF" stroke="#101C3F" stroke-miterlimit="10" d="M65.907 6.129c.496 0 .972.165 1.354.486.383.32.631.754.703 1.25l1.902 12.477.186.062.6.227.29.104.495.196.393.155.383.166.486.216.279.125.589.268.165.083 11.836-9.84c.392-.29.878-.424 1.364-.393.486.03.94.248 1.292.589l11.66 10.347a2.054 2.054 0 0 1 .207 2.646l-9.53 13.51c.02.062.051.124.082.176.083.196.176.393.269.579l.124.279.217.496.155.382c.062.135.114.259.165.393.052.135.124.331.197.496.072.166.072.186.103.29l.217.6.062.185 12.487 1.85c.486.083.93.331 1.251.704.32.372.485.858.485 1.354v15.928c0 .497-.165.972-.485 1.355-.321.382-.755.63-1.251.703l-12.487 1.901-.062.186-.217.61-.103.28c-.073.165-.135.33-.197.496a5.023 5.023 0 0 1-.165.392l-.155.383-1.313-.641-.393.858c.786.627 1.151 1.006 1.096 1.137-.031.052 2.119-2.098 2.098-2.036l7.474 10.17c.279.394.413.88.382 1.365-.031.486-.248.941-.589 1.282l-13.427 13.53a2.107 2.107 0 0 1-1.292.59 2.076 2.076 0 0 1-1.365-.393L73.753 87.21l-.165.083-.59.268-.279.124-.486.217-.382.166-.393.155-.496.196-.29.104-.599.227-.186.062-1.902 12.476a2.12 2.12 0 0 1-.703 1.251 2.09 2.09 0 0 1-1.354.486h-7.96V6.129h7.96-.02Z"/>
    <path fill="#fff" stroke="#101C3F" stroke-miterlimit="10" d="M65.906.951c.497 0 .972.166 1.355.486.382.32.63.755.703 1.25l1.901 12.477.187.062.599.227.29.104.496.196.392.155.383.166.486.217.279.124.589.269.165.082 10.172-7.473c.392-.29.878-.424 1.364-.393.486.031.94.248 1.292.59l11.257 11.318c.34.341.548.796.589 1.282.041.486-.093.961-.382 1.364l-7.474 10.171a.91.91 0 0 0 .083.176c.082.197.176.393.269.579l.124.28.217.495.155.383c.062.134.113.258.165.393.052.134.124.33.197.496.072.165.072.186.103.29l.217.599.062.186 12.487 1.85c.486.083.93.33 1.25.703.321.372.486.858.486 1.354v15.929c0 .496-.165.971-.486 1.354a1.99 1.99 0 0 1-1.25.703l-12.487 1.902-.062.186-.217.61-.103.279c-.073.165-.135.33-.197.496a5.061 5.061 0 0 1-.165.393l-.155.382-.217.496-.124.28a9.926 9.926 0 0 0-.27.578.911.911 0 0 0-.082.176l7.474 10.171c.279.393.413.879.382 1.365-.031.486-.248.94-.59 1.281L86.56 89.31a2.108 2.108 0 0 1-1.292.588 2.077 2.077 0 0 1-1.364-.392L73.73 82.031l-.165.083-.59.269-.278.124-.486.217-.383.165-.392.155-.496.197-.29.103-.6.227-.186.062-1.901 12.477a2.12 2.12 0 0 1-.703 1.25c-.383.32-.858.486-1.355.486h-7.959V.951h7.96Z"/>
    <path stroke="#101C3F" stroke-miterlimit="10" d="M85.246 89.836v4.507M73.545 82.063v5.447M66.816 27.135 83.758 37.76v24.291L66.816 74.084"/>
    <path stroke="#101C3F" stroke-miterlimit="10" d="m83.758 62.052-16.942-6.523v-7.566"/>
    <path fill="#61A2FF" stroke="#101C3F" stroke-miterlimit="10" d="M66.816 48.924a3.485 3.485 0 0 1-3.484-3.483 3.485 3.485 0 0 1 3.483-3.484A3.485 3.485 0 0 1 70.3 45.44a3.485 3.485 0 0 1-3.484 3.484ZM66.816 77.567a3.485 3.485 0 0 1-3.484-3.484 3.485 3.485 0 0 1 3.483-3.483 3.485 3.485 0 0 1 3.484 3.483 3.485 3.485 0 0 1-3.484 3.484ZM66.816 30.617a3.485 3.485 0 0 1-3.484-3.483 3.485 3.485 0 0 1 3.483-3.484 3.485 3.485 0 0 1 3.484 3.484 3.485 3.485 0 0 1-3.484 3.483Z"/>
    <path fill="#101C3F" d="M53.316 11.494S54.567.527 43.105 1.364c-12.487.91-13.22 13.003-13.22 13.003s-16.974.951-16.012 20.074c0 0-21.387 11.35-6.45 37.626 0 0-2.068 19.557 22.565 24.922 0 0 12.114 15.577 23.33 1.84V11.494Z"/>
    <path stroke="#101C3F" stroke-miterlimit="10" d="M53.316 11.494S54.567.527 43.105 1.364c-12.487.91-13.22 13.003-13.22 13.003s-16.974.951-16.012 20.074c0 0-21.387 11.35-6.45 37.626 0 0-2.068 19.557 22.565 24.922 0 0 12.114 15.577 23.33 1.84V11.494Z"/>
    <path fill="#16C5C0" d="M51.715 10.698S52.955-.269 41.502.558c-12.487.91-13.22 13.004-13.22 13.004s-16.973.95-16.012 20.074c0 0-21.386 11.35-6.45 37.625 0 0-2.067 19.557 22.565 24.922 0 0 12.115 15.577 23.33 1.84V10.698Z"/>
    <path stroke="#101C3F" stroke-miterlimit="10" d="M51.715 10.698S52.955-.269 41.502.558c-12.487.91-13.22 13.004-13.22 13.004s-16.973.95-16.012 20.074c0 0-21.386 11.35-6.45 37.625 0 0-2.067 19.557 22.565 24.922 0 0 12.115 15.577 23.33 1.84V10.698Z"/>
    <path stroke="#101C3F" stroke-miterlimit="10" d="M28.386 96.184s-11.619-12.394-.259-23.558c0 0 1.044-10.223 8.642-9.995M28.282 13.563S26.866 31.32 45.73 29.945"/>
    <path stroke="#101C3F" stroke-miterlimit="10" d="M23.753 82.063s-11.484-1.85-7.111-12.28c0 0-9.872-4.672-5.665-14.709M51.902 53.026s-10.709-11.091-24.209.662M12.27 33.647s12.9-5.045 20.61.95M51.902 78.3s-12.91-1.282-13.603 14.13M51.602 21.727s-8.517.063-9.375-9.385"/>
    <path stroke="#101C3F" stroke-miterlimit="10" d="M33.936 49.214s-2.398-10.378-17.397-6.306M48.304 50.412s1.623-7.7-4.486-10.822M38.299 70.972s7.7-1.096 9.582 8.156"/>
  </g>
  <defs>
    <clipPath id="a">
      <path fill="#fff" d="M0 0h106.85v105H0z"/>
    </clipPath>
  </defs>
</svg>
