<svg width="32" height="32" viewBox="0 0 32 32" fill="none" xmlns="http://www.w3.org/2000/svg">
<path d="M27.9956 13.4579C28.3086 12.5151 28.4169 11.5163 28.3131 10.5283C28.2094 9.54035 27.896 8.58586 27.3939 7.72865C26.6495 6.43298 25.5129 5.40717 24.148 4.79911C22.783 4.19104 21.2602 4.03214 19.7991 4.34532C18.9691 3.42198 17.9106 2.7333 16.7302 2.34847C15.5497 1.96363 14.2888 1.89618 13.074 2.1529C11.8592 2.40961 10.7333 2.98144 9.80951 3.81097C8.88567 4.64049 8.19636 5.6985 7.81082 6.87874C6.83743 7.07834 5.91785 7.48341 5.11355 8.06686C4.30924 8.65032 3.63873 9.39873 3.14683 10.2621C2.39437 11.5556 2.07278 13.0549 2.22854 14.5432C2.3843 16.0315 3.00935 17.4317 4.01332 18.5414C3.69909 19.4838 3.58973 20.4824 3.69254 21.4704C3.79535 22.4584 4.10797 23.4131 4.60948 24.2706C5.3548 25.5667 6.49239 26.5928 7.85831 27.2008C9.22423 27.8089 10.7479 27.9676 12.2098 27.654C12.8693 28.3967 13.6796 28.9901 14.5867 29.3946C15.4938 29.7992 16.4767 30.0055 17.4699 30C18.9675 30.0013 20.4267 29.5268 21.6371 28.6449C22.8474 27.7629 23.7462 26.5192 24.2036 25.0932C25.1769 24.8933 26.0964 24.488 26.9006 23.9046C27.7049 23.3211 28.3755 22.5729 28.8676 21.7098C29.6112 20.4181 29.9273 18.9245 29.7706 17.4424C29.614 15.9603 28.9927 14.5656 27.9956 13.4579ZM17.4699 28.1674C16.2434 28.1693 15.0554 27.7394 14.1141 26.9531L14.2796 26.8593L19.8543 23.6414C19.9931 23.56 20.1083 23.444 20.1886 23.3046C20.2689 23.1653 20.3116 23.0074 20.3125 22.8466V14.9868L22.6691 16.3502C22.6808 16.3561 22.6909 16.3647 22.6986 16.3752C22.7063 16.3858 22.7114 16.398 22.7135 16.4109V22.9239C22.7105 24.3137 22.1571 25.6457 21.1744 26.6284C20.1917 27.6111 18.8596 28.1644 17.4699 28.1674ZM6.19907 23.3544C5.58397 22.2923 5.36312 21.0473 5.57537 19.8384L5.74103 19.9378L11.3212 23.1557C11.4593 23.2367 11.6165 23.2795 11.7766 23.2795C11.9366 23.2795 12.0938 23.2367 12.2319 23.1557L19.0485 19.2258V21.9469C19.0479 21.961 19.044 21.9748 19.0373 21.9872C19.0306 21.9997 19.0212 22.0104 19.0098 22.0187L13.3633 25.2752C12.1583 25.9694 10.7271 26.157 9.38384 25.7969C8.04062 25.4367 6.8952 24.5583 6.19907 23.3544ZM4.73093 11.2115C5.3503 10.1426 6.3279 9.32726 7.49068 8.9099V15.5333C7.48858 15.6933 7.52947 15.851 7.60907 15.9898C7.68867 16.1286 7.80407 16.2435 7.94323 16.3226L14.7267 20.2359L12.3699 21.5992C12.3572 21.6059 12.3429 21.6095 12.3285 21.6095C12.3141 21.6095 12.2998 21.6059 12.2871 21.5992L6.65173 18.3482C5.44897 17.6511 4.57151 16.5057 4.21149 15.1629C3.85148 13.8201 4.03826 12.3893 4.73093 11.184V11.2115ZM24.0933 15.7099L17.2878 11.758L19.6391 10.4C19.6518 10.3932 19.666 10.3897 19.6805 10.3897C19.6949 10.3897 19.7091 10.3932 19.7219 10.4L25.3573 13.6565C26.2189 14.1537 26.9213 14.8857 27.3825 15.7671C27.8437 16.6485 28.0447 17.643 27.962 18.6343C27.8792 19.6257 27.5162 20.573 26.9152 21.3658C26.3142 22.1585 25.5001 22.7639 24.568 23.1114V16.488C24.5631 16.3282 24.5168 16.1725 24.4335 16.0361C24.3503 15.8997 24.2331 15.7873 24.0933 15.7099ZM26.4391 12.183L26.2734 12.0836L20.7044 8.83815C20.5654 8.75663 20.4073 8.71365 20.2462 8.71365C20.0851 8.71365 19.927 8.75663 19.788 8.83815L12.9772 12.768V10.0469C12.9757 10.0331 12.978 10.0191 12.9839 10.0065C12.9897 9.99388 12.9988 9.98306 13.0103 9.97519L18.6457 6.72415C19.5093 6.22659 20.4969 5.98523 21.4927 6.0283C22.4885 6.07138 23.4515 6.3971 24.269 6.96738C25.0865 7.53767 25.7248 8.32893 26.1091 9.24862C26.4934 10.1683 26.6079 11.1784 26.4392 12.1608L26.4391 12.183ZM11.6909 17.0068L9.33425 15.649C9.32246 15.6419 9.31238 15.6323 9.30471 15.6209C9.29705 15.6095 9.292 15.5965 9.28992 15.5829V9.08654C9.29121 8.08994 9.5762 7.11431 10.1115 6.2737C10.6469 5.4331 11.4105 4.76227 12.313 4.33965C13.2156 3.91703 14.2198 3.76008 15.2083 3.88715C16.1967 4.01422 17.1286 4.42006 17.8949 5.05722L17.7292 5.15114L12.1547 8.3688C12.0159 8.45018 11.9007 8.56624 11.8204 8.7056C11.7401 8.84495 11.6974 9.00281 11.6965 9.16365L11.6909 17.0068ZM12.9715 14.2472L16.0071 12.4974L19.0485 14.2472V17.7465L16.0182 19.4961L12.977 17.7465L12.9715 14.2472Z" fill="#2B394F"/>
</svg>
