<svg xmlns="http://www.w3.org/2000/svg" viewBox="0 0 180 180"><style>@media (prefers-color-scheme:dark){path{fill:#fff}}</style><path d="M180 94.27a35.54 35.54 0 0 0-23.43-33.52 50.82 50.82 0 0 0-91.12-39.58A27 27 0 0 0 23.62 52a35.88 35.88 0 0 0-17.18 54.26 35.5 35.5 0 0 0 17.1 13.07 51.6 51.6 0 0 0-.89 9.7 50.66 50.66 0 0 0 92 29.66 27 27 0 0 0 41.85-30.75A36 36 0 0 0 180 94.27M69.69 26.62a44.46 44.46 0 0 1 80.2 34l-39.73 34.9-39.39-18L63.08 61Zm-19.92-4.44a21.25 21.25 0 0 1 12.93 4.39l-6 30.78-27-6.4a21.43 21.43 0 0 1 20-28.77ZM7 85.77a30.16 30.16 0 0 1 20.41-28.39L57 64.4l7 14.91-37.89 34.38A29.88 29.88 0 0 1 7 85.77m103.53 67.61a44.52 44.52 0 0 1-81.35-25.12 45.5 45.5 0 0 1 .89-8.87l38.68-35.18 39.54 18.09 8.76 16.79Zm19.78 4.44a21 21 0 0 1-12.86-4.44l5.87-30.68 27 6.33a21.49 21.49 0 0 1-10.14 26.32 21.24 21.24 0 0 1-9.84 2.45Zm22.32-35.24-29.69-7-7.94-15.05 38.84-34.15A29.81 29.81 0 0 1 173 94.25a30.16 30.16 0 0 1-20.45 28.31Z" style="fill:#1c1e23"/></svg>