<svg xmlns="http://www.w3.org/2000/svg" viewBox="0 0 180 180"><style>path{fill:#1c1e23}@media (prefers-color-scheme:dark){path{fill:#fff}}</style><path d="M11.19 101A30.34 30.34 0 0 1 7 85.75a30.09 30.09 0 0 1 20.5-28.4l29.6 7 6.9 14.9L40 101h9.9l18.9-17.15L106.23 101h9.11l-.34-.65 38.8-34.1a29.84 29.84 0 0 1 19.2 27.8 31 31 0 0 1-.9 7h7.21a35 35 0 0 0 .69-6.85 35.8 35.8 0 0 0-6.4-20.5 34.77 34.77 0 0 0-17-13 52 52 0 0 0 .9-9.69 51.15 51.15 0 0 0-9.7-30 50.78 50.78 0 0 0-57-18.4 51.44 51.44 0 0 0-25.4 18.6 27 27 0 0 0-16.2-5.7 26.52 26.52 0 0 0-16.3 5.3A27.3 27.3 0 0 0 23 34.86a26.7 26.7 0 0 0 .6 17.2A36.3 36.3 0 0 0 6.5 65.15 35.86 35.86 0 0 0 3.41 101ZM69.7 26.56a43.77 43.77 0 0 1 24.1-17.5 44.51 44.51 0 0 1 56.1 51.49l-39.7 34.9-39.4-18L63.1 61Zm-41.1 14.3a20.6 20.6 0 0 1 3.7-9.5 22.2 22.2 0 0 1 7.6-6.7 20.23 20.23 0 0 1 9.9-2.5 20.76 20.76 0 0 1 12.9 4.4l-6 30.79-27-6.35a21.64 21.64 0 0 1-1.1-10.14M10 108v72h160v-72Zm57.39 46.7a16.26 16.26 0 0 1-6.74 6.9 21.5 21.5 0 0 1-10.47 2.4H36v-40h14.29a21.4 21.4 0 0 1 10.4 2.39 16.3 16.3 0 0 1 6.71 6.87 25.68 25.68 0 0 1 0 21.44ZM103 164H76v-40h27v7H84.45v9.53h17.11v7H84.45V157H103Zm29.19 0h-10.87l-13.81-40h9.39l9.67 30.39h.37l9.69-30.39H146Z"/><path d="M49.85 131.25h-5.39v25.5h5.37q5.64 0 8.56-3t2.92-9.75q0-6.66-2.92-9.69c-1.95-2.05-4.79-3.06-8.54-3.06"/></svg>