<svg width="128" height="128" viewBox="0 0 128 128" fill="none" xmlns="http://www.w3.org/2000/svg">
<path d="M102.75 19.5H20.12C17.0162 19.5 14.5 22.0162 14.5 25.12V50.49C14.5 53.5938 17.0162 56.11 20.12 56.11H102.75C105.854 56.11 108.37 53.5938 108.37 50.49V25.12C108.37 22.0162 105.854 19.5 102.75 19.5Z" fill="#153385" stroke="#101C3F" stroke-miterlimit="10"/>
<path d="M102.75 72.66H20.12C17.0162 72.66 14.5 75.1762 14.5 78.28V103.65C14.5 106.754 17.0162 109.27 20.12 109.27H102.75C105.854 109.27 108.37 106.754 108.37 103.65V78.28C108.37 75.1762 105.854 72.66 102.75 72.66Z" fill="#153385" stroke="#101C3F" stroke-miterlimit="10"/>
<path d="M101.42 19.5H20.12C17.0162 19.5 14.5 22.0162 14.5 25.12V48.15C14.5 51.2538 17.0162 53.77 20.12 53.77H101.42C104.524 53.77 107.04 51.2538 107.04 48.15V25.12C107.04 22.0162 104.524 19.5 101.42 19.5Z" fill="#0B64DD" stroke="#101C3F" stroke-miterlimit="10"/>
<path d="M29.6801 28.15L21.9301 41.3H37.4301L29.6801 28.15Z" fill="white"/>
<path d="M101.42 72.23H20.12C17.0162 72.23 14.5 74.7461 14.5 77.85V100.88C14.5 103.984 17.0162 106.5 20.12 106.5H101.42C104.524 106.5 107.04 103.984 107.04 100.88V77.85C107.04 74.7461 104.524 72.23 101.42 72.23Z" fill="#0B64DD" stroke="#101C3F" stroke-miterlimit="10"/>
<path d="M36.25 82.8H23.11V95.9401H36.25V82.8Z" fill="white"/>
<path d="M115.52 44.91H32.89C29.7862 44.91 27.27 47.4262 27.27 50.53V75.9C27.27 79.0039 29.7862 81.52 32.89 81.52H115.52C118.624 81.52 121.14 79.0039 121.14 75.9V50.53C121.14 47.4262 118.624 44.91 115.52 44.91Z" fill="#153385" stroke="#101C3F" stroke-miterlimit="10"/>
<path d="M113.3 44.91H32C28.8962 44.91 26.38 47.4262 26.38 50.53V73.56C26.38 76.6639 28.8962 79.18 32 79.18H113.3C116.404 79.18 118.92 76.6639 118.92 73.56V50.53C118.92 47.4262 116.404 44.91 113.3 44.91Z" fill="#48EFCF" stroke="#101C3F" stroke-miterlimit="10"/>
<path d="M117.64 109.61C117.64 109.61 109.32 99.07 108.92 97.29C108.52 95.51 104.24 81.35 103.59 79.78C102.82 77.91 100.83 75.05 97.4899 70.52C96.8699 69.68 95.4199 69.56 95.4199 69.56L93.6999 67.55C93.6999 67.55 92.5499 65.74 90 66.27C90 66.27 88.8499 64.84 87.5299 64.96C85.6299 65.12 84.29 65.88 84.29 65.88C84.29 65.88 78.1499 59.6 76.7599 58.23C75.3799 56.86 74.4999 56.19 73.5099 57.11C72.5199 58.03 72.65 60.44 74.18 62.23C75.71 64.02 79.37 70.18 79.37 70.18C79.37 70.18 77.46 74.41 77.16 75.27C76.86 76.13 78.27 77.21 79.98 76.77C79.98 76.77 80.7999 78.91 83.3099 78.07C83.3099 78.07 84.9399 82.78 84.9199 85C84.8999 87.21 83.3799 88.17 81.4899 86.33C79.5999 84.49 76.08 80.53 71.88 79.37C67.68 78.21 67.49 81.55 68.72 82.72C69.95 83.89 72.66 86.98 74.24 88.63C75.82 90.29 82.0599 97.12 85.3499 100.48C88.6399 103.84 92.8 105.88 94.48 107.34C97.56 110.04 102.84 118.98 102.84 118.98C104.35 122.46 120.13 113.5 117.61 109.61H117.64Z" fill="white" stroke="#101C3F" stroke-miterlimit="10"/>
<path d="M79.3899 70.1699C79.3899 70.1699 81.4399 73.7799 83.3399 78.0599" stroke="#101C3F" stroke-linecap="round" stroke-linejoin="round"/>
<path d="M80.01 76.7499C80.01 76.7499 81.06 76.2499 81.59 74.4299" stroke="#101C3F" stroke-linecap="round" stroke-linejoin="round"/>
<path d="M84.2999 65.87C84.2999 65.87 84.7599 66.3 85.5099 67.29C86.0599 68.02 89.4899 74.84 90.0999 75.69C90.6999 76.55 92.1799 76.91 92.1799 76.91" stroke="#101C3F" stroke-linecap="round" stroke-linejoin="round"/>
<path d="M90 66.26L96.22 74.62" stroke="#101C3F" stroke-linecap="round" stroke-linejoin="round"/>
<path d="M95.4299 69.5499L99.4599 75.3899" stroke="#101C3F" stroke-linecap="round" stroke-linejoin="round"/>
<path d="M44 69.8C48.2802 69.8 51.75 66.3303 51.75 62.05C51.75 57.7698 48.2802 54.3 44 54.3C39.7198 54.3 36.25 57.7698 36.25 62.05C36.25 66.3303 39.7198 69.8 44 69.8Z" fill="white"/>
</svg>
