<svg width="64" height="64" viewBox="0 0 64 64" fill="none" xmlns="http://www.w3.org/2000/svg">
<g clip-path="url(#clip0_857_78974)">
<path d="M46.3439 3.99999H17.6561C16.4718 3.99999 15.3787 4.63106 14.7874 5.65633L0.443484 30.5014C-0.147828 31.5266 -0.147828 32.7888 0.443484 33.814L14.7874 58.6591C15.3787 59.6844 16.4735 60.3154 17.6561 60.3154H46.3439C47.5282 60.3154 48.6213 59.6844 49.2126 58.6591L63.5565 33.814C64.1478 32.7888 64.1478 31.5266 63.5565 30.5014L49.2126 5.65633C48.6213 4.63106 47.5282 3.99999 46.3439 3.99999Z" fill="#2979FF"/>
<path d="M45.2507 50.3774H18.7493C17.835 50.3774 17.093 49.6354 17.093 48.7211V15.5944C17.093 14.6801 17.835 13.938 18.7493 13.938H40.2817L46.9071 20.5634V48.7211C46.9071 49.6354 46.165 50.3774 45.2507 50.3774Z" fill="white"/>
<path d="M40.2817 13.938V18.907C40.2817 19.8213 41.0237 20.5634 41.938 20.5634H46.9071L40.2817 13.938Z" fill="#B1CFFF"/>
<path d="M29.1263 31.8778H26.9151V24.8367L24.7419 25.4711V23.7965L28.9225 22.3505H29.1246L29.1263 31.8778ZM39.7881 27.9837C39.7881 28.6728 39.7069 29.2691 39.5463 29.7742C39.3856 30.2761 39.1587 30.6952 38.8655 31.0264C38.574 31.3577 38.2245 31.6045 37.8187 31.7652C37.4129 31.9258 36.9657 32.007 36.4771 32.007C35.9835 32.007 35.533 31.9258 35.1255 31.7652C34.7181 31.6045 34.3686 31.3577 34.0771 31.0264C33.7855 30.6952 33.5553 30.2761 33.393 29.7742C33.229 29.2691 33.1495 28.6728 33.1495 27.9837V26.2429C33.1495 25.5589 33.2307 24.9626 33.3913 24.4574C33.552 23.9522 33.7789 23.5332 34.0721 23.2019C34.3636 22.8706 34.7131 22.6238 35.1189 22.4632C35.5214 22.3009 35.9702 22.2197 36.4638 22.2197C36.9525 22.2197 37.3997 22.3009 37.8071 22.4615C38.2146 22.6222 38.5657 22.869 38.8589 23.2002C39.1504 23.5315 39.3773 23.9506 39.5413 24.4558C39.7053 24.9609 39.7881 25.5572 39.7881 26.2413V27.9837ZM37.5819 25.963C37.5819 25.5837 37.5554 25.2657 37.504 25.004C37.451 24.7473 37.3781 24.5353 37.2821 24.3729C37.186 24.2123 37.0684 24.0963 36.9309 24.0268C36.7934 23.9572 36.6394 23.9224 36.4638 23.9224C36.2899 23.9224 36.1326 23.9572 35.9951 24.0268C35.8576 24.0963 35.7417 24.2123 35.6489 24.3729C35.5545 24.5336 35.4833 24.7456 35.4336 25.004C35.3839 25.2657 35.3591 25.5837 35.3591 25.963V28.2537C35.3591 28.6413 35.3822 28.9676 35.4336 29.2293C35.4833 29.491 35.5578 29.703 35.6539 29.8604C35.75 30.021 35.8676 30.1353 36.0067 30.2049C36.1458 30.2745 36.3032 30.3092 36.4771 30.3092C36.6477 30.3092 36.8001 30.2745 36.9375 30.2049C37.075 30.1353 37.1926 30.021 37.2887 29.8604C37.3848 29.703 37.456 29.491 37.5073 29.2293C37.557 28.9676 37.5835 28.643 37.5835 28.2537L37.5819 25.963ZM30.8538 41.3852C30.8538 42.0742 30.7727 42.6705 30.612 43.1757C30.4513 43.6775 30.2244 44.0966 29.9312 44.4279C29.6397 44.7591 29.2902 45.0059 28.8844 45.1666C28.4786 45.3272 28.0314 45.4084 27.5428 45.4084C27.0492 45.4084 26.5987 45.3272 26.1912 45.1666C25.7838 45.0059 25.4343 44.7591 25.1428 44.4279C24.8513 44.0966 24.621 43.6775 24.4587 43.1757C24.2947 42.6705 24.2152 42.0742 24.2152 41.3852V39.6444C24.2152 38.9603 24.2964 38.364 24.4571 37.8588C24.6177 37.3536 24.8446 36.9346 25.1378 36.6033C25.4293 36.2721 25.7788 36.0253 26.1846 35.8646C26.5904 35.7039 27.0393 35.6228 27.5329 35.6228C28.0215 35.6228 28.4687 35.7039 28.8762 35.8646C29.2836 36.0253 29.6348 36.2721 29.9279 36.6033C30.2194 36.9346 30.4464 37.3536 30.6103 37.8588C30.7743 38.364 30.8571 38.9603 30.8571 39.6444V41.3852H30.8538ZM28.6492 39.3628C28.6492 38.9835 28.6227 38.6655 28.5714 38.4038C28.5184 38.147 28.4455 37.935 28.3494 37.7727C28.2534 37.612 28.1358 37.4961 27.9983 37.4265C27.8608 37.357 27.7068 37.3222 27.5312 37.3222C27.3556 37.3222 27.1999 37.357 27.0625 37.4265C26.925 37.4961 26.809 37.612 26.7163 37.7727C26.6219 37.9334 26.5507 38.1454 26.501 38.4038C26.4513 38.6655 26.4264 38.9835 26.4264 39.3628V41.6535C26.4264 42.0411 26.4496 42.3674 26.501 42.6291C26.5507 42.8908 26.6252 43.1028 26.7213 43.2601C26.8173 43.4208 26.9349 43.5351 27.0741 43.6047C27.2132 43.6742 27.3705 43.709 27.5445 43.709C27.7151 43.709 27.8674 43.6742 28.0049 43.6047C28.1424 43.5351 28.26 43.4208 28.3561 43.2601C28.4521 43.1028 28.5234 42.8908 28.5747 42.6291C28.6244 42.3674 28.6509 42.0427 28.6509 41.6535V39.3628H28.6492ZM38.0605 45.2776H35.8493V38.2365L33.6762 38.8708V37.1963L37.8568 35.7503H38.0589L38.0605 45.2776Z" fill="#03A9F4"/>
</g>
<defs>
<clipPath id="clip0_857_78974">
<rect width="64" height="64" fill="white"/>
</clipPath>
</defs>
</svg>
