<svg width="32" height="32" viewBox="0 0 32 32" fill="none" xmlns="http://www.w3.org/2000/svg">
<g clip-path="url(#clip0_1173_3)">
<path d="M13.4118 25.6592L6.3408 18.5879L8.57147 17.9904L14.0095 23.4285L21.4381 21.438L23.4286 14.0094L17.9906 8.57145L18.5883 6.34074L25.6593 13.4117L23.37 21.9555L28.3199 26.9053L28.021 28.0206L26.9056 28.3195L21.9559 23.3698L13.4118 25.6592Z" fill="#535766"/>
<path fill-rule="evenodd" clip-rule="evenodd" d="M19.5353 19.5357L14.7057 20.8298L11.1702 17.2942L12.1654 13.5799L3.68021 5.09471L3.9791 3.97921L5.09432 3.68039L13.5797 12.1657L17.2939 11.1705L20.8294 14.7061L19.5353 19.5357ZM18.5987 15.3038L17.9023 17.9027L15.3034 18.5991L13.4009 16.6965L14.0973 14.0976L16.6962 13.4012L18.5987 15.3038Z" fill="#00BFB3"/>
</g>
<defs>
<clipPath id="clip0_1173_3">
<rect width="32" height="32" fill="white"/>
</clipPath>
</defs>
</svg>
