<svg fill="none" height="100" width="100" xmlns="http://www.w3.org/2000/svg"><clipPath id="a"><path d="M0 0h100v100H0z"/></clipPath><g clip-path="url(#a)"><path d="M50.814 23.572h-4.2a58.57 58.57 0 0 1 0 52.857h4.572a26.429 26.429 0 1 0 0-52.857zM50-.014a49.743 49.743 0 0 0-19.271 3.871 59.558 59.558 0 0 1 13.485 15.415h8.072l.071.085a30.686 30.686 0 0 1 0 61.243l-.071.1h-8.072A59.56 59.56 0 0 1 30.73 96.115 50.003 50.003 0 0 0 90.12 79.85 50 50 0 0 0 50-.014zM39.129 19.272a54.829 54.829 0 0 0-12.73-13.357A50.2 50.2 0 0 0 8.3 22.457a30.7 30.7 0 0 1 13.571-3.185zm0 61.428H21.87A30.515 30.515 0 0 1 8.3 77.5a50.158 50.158 0 0 0 18.128 16.572 55.301 55.301 0 0 0 12.7-13.357zm2.642-4.286a54.357 54.357 0 0 0 0-52.857h-19.9A26.315 26.315 0 0 0 3.93 30.615a2.86 2.86 0 0 1-.158.371 49.714 49.714 0 0 0 0 37.986c.061.12.114.244.158.371A26.371 26.371 0 0 0 21.872 76.4z" fill="#0060d5"/></g></svg>