<svg fill="none" height="100" width="100" xmlns="http://www.w3.org/2000/svg" xmlns:xlink="http://www.w3.org/1999/xlink"><linearGradient id="a"><stop offset=".18" stop-color="#0052cc"/><stop offset="1" stop-color="#2684ff"/></linearGradient><linearGradient id="c" gradientUnits="userSpaceOnUse" x1="75.142" x2="54.783" xlink:href="#a" y1="24.078" y2="45.323"/><linearGradient id="d" gradientUnits="userSpaceOnUse" x1="1956.92" x2="1082.22" xlink:href="#a" y1="1849.11" y2="2714.75"/><clipPath id="b"><path d="M0 0h100v100H0z"/></clipPath><g clip-path="url(#b)"><path d="M95.822 0H47.668a21.737 21.737 0 0 0 21.738 21.738h8.87v8.564c.008 11.995 9.73 21.716 21.724 21.724V4.178A4.178 4.178 0 0 0 95.822 0z" fill="#2684ff"/><path d="M71.995 23.994H23.841c.007 11.995 9.729 21.717 21.724 21.724h8.87v8.592c.015 11.995 9.743 21.71 21.738 21.71V28.172a4.178 4.178 0 0 0-4.178-4.178z" fill="url(#c)"/><path d="M48.154 47.972H0C0 59.978 9.732 69.71 21.738 69.71h8.898v8.564c.008 11.984 9.713 21.701 21.696 21.724V52.15a4.178 4.178 0 0 0-4.178-4.178z" fill="url(#d)"/></g></svg>