<svg fill="none" height="100" width="100" xmlns="http://www.w3.org/2000/svg" xmlns:xlink="http://www.w3.org/1999/xlink"><linearGradient id="a"><stop offset=".18" stop-color="#0052cc"/><stop offset="1" stop-color="#2684ff"/></linearGradient><linearGradient id="b" gradientUnits="userSpaceOnUse" x1="47.736" x2="27.087" xlink:href="#a" y1="20.235" y2="40.885"/><linearGradient id="c" gradientUnits="userSpaceOnUse" x1="1416.82" x2="2098.99" xlink:href="#a" y1="3129.77" y2="2687.25"/><path d="M97.591 47.132 54.495 4.147 50.35 0l-32.37 32.37L3.161 47.132a3.952 3.952 0 0 0 0 5.598L32.768 82.39 50.348 100l32.44-32.398.498-.498 14.306-14.319a3.952 3.952 0 0 0 0-5.653zM50.35 64.782l-14.79-14.789 14.79-14.79 14.79 14.79z" fill="#2684ff"/><path d="M50.349 35.204a24.88 24.88 0 0 1 0-35.066L17.923 32.44l17.609 17.61z" fill="url(#b)"/><path d="M65.207 49.896 50.349 64.782a24.879 24.879 0 0 1 0 35.218l32.48-32.44z" fill="url(#c)"/></svg>