<svg width="70" height="70" fill="none" xmlns="http://www.w3.org/2000/svg"><circle cx="35" cy="35" r="35" fill="#0060D5"/><mask id="a" style="mask-type:alpha" maskUnits="userSpaceOnUse" x="0" y="0" width="70" height="70"><circle cx="35" cy="35" r="35" fill="#0060D5"/></mask><g mask="url(#a)"><path d="m32.525 17.676 3.89 3.89-14.85 14.848-3.89-3.889a6.5 6.5 0 0 1 0-9.192l5.658-5.657a6.5 6.5 0 0 1 9.192 0zM48.435 33.586l3.89 3.889a6.5 6.5 0 0 1 0 9.192l-5.658 5.657a6.5 6.5 0 0 1-9.192 0l-3.89-3.89 14.85-14.848z" stroke="#fff" stroke-width="3"/><rect x="8.13" y="6.716" width="20" height="3" rx="1.5" transform="rotate(45 8.13 6.716)" fill="#fff"/><rect x="49.142" y="47.728" width="20" height="3" rx="1.5" transform="rotate(45 49.142 47.728)" fill="#fff"/><rect x="25.101" y="30.757" width="11" height="3" rx="1.5" transform="rotate(45 25.1 30.757)" fill="#fff"/><rect x="32.879" y="22.979" width="11" height="3" rx="1.5" transform="rotate(45 32.879 22.979)" fill="#fff"/></g></svg>