<svg xmlns="http://www.w3.org/2000/svg" width="62" height="62" viewBox="19 19 62 62" fill="none"><g clip-path="url(#C)"><path d="M83.65 51.55a1.49 1.49 0 0 0-.71-1.279h-.008l-.028-.016-23.095-13.671a3.15 3.15 0 0 0-.31-.184 3.1 3.1 0 0 0-2.843 0 3.15 3.15 0 0 0-.31.184L33.252 50.256l-.028.016c-.706.439-.922 1.367-.483 2.073.129.208.308.381.519.505L56.355 66.52a3.48 3.48 0 0 0 .31.184 3.1 3.1 0 0 0 2.843 0 3.48 3.48 0 0 0 .31-.184l23.095-13.671c.461-.269.743-.765.738-1.299z" fill="#0a2767"/><path d="M35.944 42.422H51.1v13.893H35.944V42.422zM80.55 28.3v-6.355A2.88 2.88 0 0 0 77.74 19H38.41a2.88 2.88 0 0 0-2.81 2.945V28.3l23.25 6.2 21.7-6.2z" fill="#0364b8"/><path d="M35.6 28.3h15.5v13.95H35.6V28.3z" fill="#0078d4"/><path d="M66.6 28.3H51.1v13.95L66.6 56.2h13.95V42.25L66.6 28.3z" fill="#28a8ea"/><path d="M51.1 42.25h15.5V56.2H51.1V42.25z" fill="#0078d4"/><path d="M51.1 56.2h15.5v13.95H51.1V56.2z" fill="#0364b8"/><path d="M35.944 56.315H51.1v12.629H35.944V56.315z" fill="#14447d"/><path d="M66.6 56.2h13.95v13.95H66.6V56.2z" fill="#0078d4"/><path d="M82.94 52.764l-.029.016-23.095 12.989-.31.174a3.22 3.22 0 0 1-1.252.31l-1.262-.738c-.107-.053-.21-.113-.31-.178L33.277 51.978h-.011l-.766-.428v26.294A3.18 3.18 0 0 0 35.698 81h44.804c.026 0 .05-.012.078-.012a3.92 3.92 0 0 0 1.085-.226 3.13 3.13 0 0 0 .436-.226c.104-.059.282-.187.282-.187a3.13 3.13 0 0 0 1.268-2.503V51.55c-.001.503-.272.967-.71 1.214z" fill="url(#A)"/><path opacity=".5" d="M82.41 51.446v1.612L58.261 69.685 33.26 51.989c0-.009-.007-.016-.016-.016l-2.294-1.379v-1.163l.945-.015 2 1.147.046.016.17.109 23.56 13.438.899.527a4.29 4.29 0 0 1 .248-.093c.047-.031 23.328-13.128 23.328-13.128l.264.016z" fill="#0a2767"/><path d="M82.94 52.764l-.029.017L59.816 65.77l-.31.174a3.24 3.24 0 0 1-2.843 0 3.52 3.52 0 0 1-.31-.174L33.258 52.781l-.028-.017c-.446-.242-.725-.706-.73-1.214v26.294c.011 1.754 1.442 3.167 3.196 3.156h44.758c1.754.011 3.185-1.402 3.196-3.156V51.55c-.001.503-.272.967-.71 1.214z" fill="#1490df"/><g fill="#000"><path opacity=".1" d="M60.152 65.578l-.346.194a3.35 3.35 0 0 1-.31.175 3.21 3.21 0 0 1-1.218.322l8.787 10.391 15.328 3.694a3.16 3.16 0 0 0 .972-1.214L60.152 65.578z"/><path opacity=".05" d="M61.717 64.697l-1.911 1.074c-.1.064-.204.122-.31.175a3.21 3.21 0 0 1-1.218.322l4.117 11.351 20.003 2.73c.788-.592 1.252-1.519 1.252-2.505v-.339L61.717 64.697z"/></g><path d="M35.74 81h44.71c.688.004 1.359-.214 1.914-.62L56.99 65.517c-.107-.054-.21-.113-.31-.178L33.275 51.981h-.011l-.764-.431v26.204c-.002 1.791 1.449 3.244 3.239 3.246z" fill="#28a8ea"/><g fill="#000"><path opacity=".1" d="M54.2 34.241v33.061a2.85 2.85 0 0 1-1.783 2.635 2.67 2.67 0 0 1-1.054.217H32.5V32.95h3.1V31.4h15.764a2.85 2.85 0 0 1 2.837 2.841z"/><path opacity=".2" d="M52.65 35.791v33.061c.004.374-.075.745-.233 1.085-.43 1.061-1.459 1.757-2.604 1.762H32.5V32.95h17.313a2.6 2.6 0 0 1 1.287.326 2.82 2.82 0 0 1 1.55 2.516z"/><path opacity=".2" d="M52.65 35.791v29.962a2.86 2.86 0 0 1-2.837 2.847H32.5V32.95h17.313a2.6 2.6 0 0 1 1.287.326 2.82 2.82 0 0 1 1.55 2.516z"/><path opacity=".2" d="M51.1 35.791v29.961a2.85 2.85 0 0 1-2.837 2.847H32.5V32.95h15.764a2.84 2.84 0 0 1 2.837 2.84z"/></g><path d="M19.841 32.95h28.418a2.84 2.84 0 0 1 2.841 2.841v28.418a2.84 2.84 0 0 1-2.841 2.841H19.841A2.84 2.84 0 0 1 17 64.209V35.791a2.84 2.84 0 0 1 2.841-2.841z" fill="url(#B)"/><path d="M25.88 44.866c.7-1.492 1.831-2.741 3.246-3.585 1.567-.897 3.352-1.345 5.157-1.293 1.673-.036 3.324.388 4.773 1.226a8.19 8.19 0 0 1 3.157 3.425c.761 1.568 1.14 3.294 1.107 5.038a11.67 11.67 0 0 1-1.139 5.27c-.715 1.474-1.847 2.707-3.255 3.545-1.504.864-3.216 1.299-4.951 1.259a9.33 9.33 0 0 1-4.878-1.24c-1.374-.813-2.484-2.005-3.199-3.432-.765-1.546-1.149-3.252-1.119-4.977-.032-1.806.345-3.596 1.102-5.236zm3.46 8.417c.373.943 1.006 1.761 1.826 2.359a4.77 4.77 0 0 0 2.852.859c1.084.043 2.153-.268 3.044-.887a5.14 5.14 0 0 0 1.773-2.359 9.16 9.16 0 0 0 .566-3.291 10.02 10.02 0 0 0-.533-3.332 5.27 5.27 0 0 0-1.717-2.458c-.869-.648-1.935-.976-3.018-.93a4.92 4.92 0 0 0-2.919.867 5.41 5.41 0 0 0-1.86 2.379c-.846 2.186-.851 4.608-.012 6.797l-.002-.003z" fill="#fff"/><path d="M66.6 28.3h13.95v13.95H66.6V28.3z" fill="#50d9ff"/></g><defs><linearGradient id="A" x1="58.075" y1="51.55" x2="58.075" y2="81" gradientUnits="userSpaceOnUse"><stop stop-color="#35b8f1"/><stop offset="1" stop-color="#28a8ea"/></linearGradient><linearGradient id="B" x1="22.924" y1="30.73" x2="45.176" y2="69.27" gradientUnits="userSpaceOnUse"><stop stop-color="#1784d9"/><stop offset=".5" stop-color="#107ad5"/><stop offset="1" stop-color="#0a63c9"/></linearGradient><clipPath id="C"><path fill="#fff" transform="translate(17 19)" d="M0 0h66.65v62H0z"/></clipPath></defs></svg>