<svg xmlns="http://www.w3.org/2000/svg" width="62" height="62" viewBox="19 19 62 62" fill="none"><path d="M19 39.46C19 28.16 28.16 19 39.46 19h21.08C71.84 19 81 28.16 81 39.46v21.08C81 71.84 71.84 81 60.54 81H39.46C28.16 81 19 71.84 19 60.54V39.46z" fill="url(#A)"/><path d="M32.764 42.56a2.23 2.23 0 0 1 2.232-2.232h16.678c3.287 0 5.952 2.665 5.952 5.952v11.16a2.23 2.23 0 0 1-2.232 2.232H38.716c-3.287 0-5.952-2.665-5.952-5.952V42.56zm26.164 4.981a3.75 3.75 0 0 1 1.348-2.876l4.163-3.454c1.581-1.312 2.859-.706 2.859 1.348v14.88c0 2.054-1.278 2.66-2.859 1.348l-4.163-3.454a3.75 3.75 0 0 1-1.348-2.876v-4.918z" fill="#fff"/><defs><linearGradient id="A" x1="50" y1="-49.26" x2="50" y2="148.862" gradientUnits="userSpaceOnUse"><stop stop-color="#57a2ff"/><stop offset="1" stop-color="#3c82fb"/></linearGradient></defs></svg>