<?xml version="1.0" encoding="utf-8"?>
<svg viewBox="0 0 200 80" width="200" height="80" style="enable-background:new 0 0 686.2 235.7;" xmlns="http://www.w3.org/2000/svg">
  <defs>
    <style type="text/css">
	.st0{fill:#2D2D2D;}
</style>
  </defs>
  <g transform="matrix(1, 0, 0, 1, 0, 2.842170943040401e-14)">
    <g>
      <path class="st0" d="M329.4,160.3l4.7-0.5l0.3,9.6c-12.4,1.7-23,2.6-31.8,2.6c-11.7,0-20-3.4-24.9-10.2&#10;&#9;&#9;&#9;c-4.9-6.8-7.3-17.4-7.3-31.7c0-28.6,11.4-42.9,34.1-42.9c11,0,19.2,3.1,24.6,9.2c5.4,6.1,8.1,15.8,8.1,28.9l-0.7,9.3h-53.8&#10;&#9;&#9;&#9;c0,9,1.6,15.7,4.9,20c3.3,4.3,8.9,6.5,17,6.5C312.8,161.2,321.1,160.9,329.4,160.3z M325,124.9c0-10-1.6-17.1-4.8-21.2&#10;&#9;&#9;&#9;c-3.2-4.1-8.4-6.2-15.6-6.2c-7.2,0-12.7,2.2-16.3,6.5c-3.6,4.3-5.5,11.3-5.6,20.9H325z"/>
      <path class="st0" d="M354.3,171.4V64h12.2v107.4H354.3z"/>
      <path class="st0" d="M443.5,113.5v41.1c0,4.1,10.1,3.9,10.1,3.9l-0.6,10.8c-8.6,0-15.7,0.7-20-3.4c-9.8,4.3-19.5,6.1-29.3,6.1&#10;&#9;&#9;&#9;c-7.5,0-13.2-2.1-17.1-6.4c-3.9-4.2-5.9-10.3-5.9-18.3c0-7.9,2-13.8,6-17.5c4-3.7,10.3-6.1,18.9-6.9l25.6-2.4v-7&#10;&#9;&#9;&#9;c0-5.5-1.2-9.5-3.6-11.9c-2.4-2.4-5.7-3.6-9.8-3.6l-32.1,0V87.2h31.3c9.2,0,15.9,2.1,20.1,6.4C441.4,97.8,443.5,104.5,443.5,113.5&#10;&#9;&#9;&#9;z M393.3,146.7c0,10,4.1,15,12.4,15c7.4,0,14.7-1.2,21.8-3.7l3.7-1.3v-26.9l-24.1,2.3c-4.9,0.4-8.4,1.8-10.6,4.2&#10;&#9;&#9;&#9;C394.4,138.7,393.3,142.2,393.3,146.7z"/>
      <path class="st0" d="M491.2,98.2c-11.8,0-17.8,4.1-17.8,12.4c0,3.8,1.4,6.5,4.1,8.1c2.7,1.6,8.9,3.2,18.6,4.9&#10;&#9;&#9;&#9;c9.7,1.7,16.5,4,20.5,7.1c4,3,6,8.7,6,17.1c0,8.4-2.7,14.5-8.1,18.4c-5.4,3.9-13.2,5.9-23.6,5.9c-6.7,0-29.2-2.5-29.2-2.5&#10;&#9;&#9;&#9;l0.7-10.6c12.9,1.2,22.3,2.2,28.6,2.2c6.3,0,11.1-1,14.4-3c3.3-2,5-5.4,5-10.1c0-4.7-1.4-7.9-4.2-9.6c-2.8-1.7-9-3.3-18.6-4.8&#10;&#9;&#9;&#9;c-9.6-1.5-16.4-3.7-20.4-6.7c-4-2.9-6-8.4-6-16.3c0-7.9,2.8-13.8,8.4-17.6c5.6-3.8,12.6-5.7,20.9-5.7c6.6,0,29.6,1.7,29.6,1.7&#10;&#9;&#9;&#9;v10.7C508.1,99,498.2,98.2,491.2,98.2z"/>
      <path class="st0" d="M581.7,99.5h-25.9v39c0,9.3,0.7,15.5,2,18.4c1.4,2.9,4.6,4.4,9.7,4.4l14.5-1l0.8,10.1&#10;&#9;&#9;&#9;c-7.3,1.2-12.8,1.8-16.6,1.8c-8.5,0-14.3-2.1-17.6-6.2c-3.3-4.1-4.9-12-4.9-23.6V99.5h-11.6V88.9h11.6V63.9h12.1v24.9h25.9V99.5z"/>
      <path class="st0" d="M598.7,78.4V64.3h12.2v14.2H598.7z M598.7,171.4V88.9h12.2v82.5H598.7z"/>
      <path class="st0" d="M663.8,87.2c3.6,0,9.7,0.7,18.3,2l3.9,0.5l-0.5,9.9c-8.7-1-15.1-1.5-19.2-1.5c-9.2,0-15.5,2.2-18.8,6.6&#10;&#9;&#9;&#9;c-3.3,4.4-5,12.6-5,24.5c0,11.9,1.5,20.2,4.6,24.9c3.1,4.7,9.5,7,19.3,7l19.2-1.5l0.5,10.1c-10.1,1.5-17.7,2.3-22.7,2.3&#10;&#9;&#9;&#9;c-12.7,0-21.5-3.3-26.3-9.8c-4.8-6.5-7.3-17.5-7.3-33c0-15.5,2.6-26.4,7.8-32.6C643,90.4,651.7,87.2,663.8,87.2z"/>
    </g>
    <g transform="matrix(1, 0, 0, 1, 2.788006, 0)">
      <path class="st0" d="M 69.877 40.457 C 69.877 36.409 67.362 32.851 63.579 31.481 C 63.743 30.622 63.824 29.763 63.824 28.884 C 63.824 21.339 57.69 15.205 50.166 15.205 C 45.749 15.205 41.66 17.311 39.083 20.869 C 37.816 19.887 36.262 19.356 34.646 19.356 C 30.639 19.356 27.388 22.607 27.388 26.614 C 27.388 27.494 27.551 28.352 27.838 29.15 C 24.075 30.499 21.499 34.118 21.499 38.147 C 21.499 42.216 24.034 45.773 27.817 47.143 C 27.654 47.982 27.572 48.861 27.572 49.74 C 27.572 57.265 33.685 63.378 41.21 63.378 C 45.626 63.378 49.716 61.252 52.272 57.694 C 53.539 58.696 55.093 59.248 56.709 59.248 C 60.716 59.248 63.967 55.997 63.967 51.989 C 63.967 51.11 63.804 50.251 63.518 49.454 C 67.28 48.104 69.877 44.485 69.877 40.457 Z M 40.228 22.321 C 42.457 19.069 46.138 17.127 50.063 17.127 C 56.647 17.127 62.005 22.484 62.005 29.068 C 62.005 29.866 61.923 30.642 61.78 31.419 L 51.106 40.784 L 40.515 35.959 L 38.45 31.542 L 40.228 22.321 Z M 34.871 21.135 C 36.139 21.135 37.345 21.544 38.347 22.3 L 36.752 30.54 L 29.494 28.823 C 29.269 28.189 29.146 27.535 29.146 26.839 C 29.146 23.711 31.702 21.135 34.871 21.135 Z M 23.36 38.167 C 23.36 34.752 25.609 31.644 28.86 30.561 L 36.834 32.462 L 38.695 36.449 L 28.512 45.651 C 25.425 44.465 23.36 41.5 23.36 38.167 Z M 51.188 56.283 C 48.959 59.575 45.258 61.517 41.292 61.517 C 34.687 61.517 29.31 56.14 29.31 49.556 C 29.31 48.738 29.392 47.941 29.535 47.164 L 39.942 37.758 L 50.575 42.604 L 52.926 47.102 L 51.188 56.283 Z M 56.504 57.449 C 55.257 57.449 54.051 57.04 53.049 56.263 L 54.623 48.043 L 61.861 49.74 C 62.086 50.374 62.209 51.028 62.209 51.723 C 62.229 54.893 59.653 57.449 56.504 57.449 Z M 62.495 48.022 L 54.521 46.162 L 52.394 42.113 L 62.822 32.973 C 65.91 34.139 67.975 37.104 67.975 40.437 C 67.996 43.851 65.746 46.959 62.495 48.022 Z" style="fill: rgb(255, 255, 255);"/>
      <path class="st0" d="M 121.401 40.063 C 121.401 36.015 118.886 32.457 115.103 31.087 C 115.267 30.228 115.348 29.369 115.348 28.49 C 115.348 20.945 109.214 14.811 101.69 14.811 C 97.273 14.811 93.184 16.917 90.607 20.475 C 89.34 19.493 87.786 18.962 86.17 18.962 C 82.163 18.962 78.912 22.213 78.912 26.22 C 78.912 27.1 79.075 27.958 79.362 28.756 C 75.599 30.105 73.023 33.724 73.023 37.753 C 73.023 41.822 75.558 45.379 79.341 46.749 C 79.178 47.588 79.096 48.467 79.096 49.346 C 79.096 56.871 85.209 62.984 92.734 62.984 C 97.15 62.984 101.24 60.858 103.796 57.3 C 105.063 58.302 106.617 58.854 108.233 58.854 C 112.24 58.854 115.491 55.603 115.491 51.595 C 115.491 50.716 115.328 49.857 115.042 49.06 C 118.804 47.71 121.401 44.091 121.401 40.063 Z M 91.752 21.927 C 93.981 18.675 97.662 16.733 101.587 16.733 C 108.171 16.733 113.529 22.09 113.529 28.674 C 113.529 29.472 113.447 30.248 113.304 31.025 L 102.63 40.39 L 92.039 35.565 L 89.974 31.148 L 91.752 21.927 Z M 86.395 20.741 C 87.663 20.741 88.869 21.15 89.871 21.906 L 88.276 30.146 L 81.018 28.429 C 80.793 27.795 80.67 27.141 80.67 26.445 C 80.67 23.317 83.226 20.741 86.395 20.741 Z M 74.884 37.773 C 74.884 34.358 77.133 31.25 80.384 30.167 L 88.358 32.068 L 90.219 36.055 L 80.036 45.257 C 76.949 44.071 74.884 41.106 74.884 37.773 Z M 102.712 55.889 C 100.483 59.181 96.782 61.123 92.816 61.123 C 86.211 61.123 80.834 55.746 80.834 49.162 C 80.834 48.344 80.916 47.547 81.059 46.77 L 91.466 37.364 L 102.099 42.21 L 104.45 46.708 L 102.712 55.889 Z M 108.028 57.055 C 106.781 57.055 105.575 56.646 104.573 55.869 L 106.147 47.649 L 113.385 49.346 C 113.61 49.98 113.733 50.634 113.733 51.329 C 113.753 54.499 111.177 57.055 108.028 57.055 Z M 114.019 47.628 L 106.045 45.768 L 103.918 41.719 L 114.346 32.579 C 117.434 33.745 119.499 36.71 119.499 40.043 C 119.52 43.457 117.27 46.565 114.019 47.628 Z" style="fill: rgb(255, 255, 255);"/>
      <path class="st0" d="M 172.925 40.063 C 172.925 36.015 170.41 32.457 166.627 31.087 C 166.791 30.228 166.872 29.369 166.872 28.49 C 166.872 20.945 160.738 14.811 153.214 14.811 C 148.797 14.811 144.708 16.917 142.131 20.475 C 140.864 19.493 139.31 18.962 137.694 18.962 C 133.687 18.962 130.436 22.213 130.436 26.22 C 130.436 27.1 130.599 27.958 130.886 28.756 C 127.123 30.105 124.547 33.724 124.547 37.753 C 124.547 41.822 127.082 45.379 130.865 46.749 C 130.702 47.588 130.62 48.467 130.62 49.346 C 130.62 56.871 136.733 62.984 144.258 62.984 C 148.674 62.984 152.764 60.858 155.32 57.3 C 156.587 58.302 158.141 58.854 159.757 58.854 C 163.764 58.854 167.015 55.603 167.015 51.595 C 167.015 50.716 166.852 49.857 166.566 49.06 C 170.328 47.71 172.925 44.091 172.925 40.063 Z M 143.276 21.927 C 145.505 18.675 149.186 16.733 153.111 16.733 C 159.695 16.733 165.053 22.09 165.053 28.674 C 165.053 29.472 164.971 30.248 164.828 31.025 L 154.154 40.39 L 143.563 35.565 L 141.498 31.148 L 143.276 21.927 Z M 137.919 20.741 C 139.187 20.741 140.393 21.15 141.395 21.906 L 139.8 30.146 L 132.542 28.429 C 132.317 27.795 132.194 27.141 132.194 26.445 C 132.194 23.317 134.75 20.741 137.919 20.741 Z M 126.408 37.773 C 126.408 34.358 128.657 31.25 131.908 30.167 L 139.882 32.068 L 141.743 36.055 L 131.56 45.257 C 128.473 44.071 126.408 41.106 126.408 37.773 Z M 154.236 55.889 C 152.007 59.181 148.306 61.123 144.34 61.123 C 137.735 61.123 132.358 55.746 132.358 49.162 C 132.358 48.344 132.44 47.547 132.583 46.77 L 142.99 37.364 L 153.623 42.21 L 155.974 46.708 L 154.236 55.889 Z M 159.552 57.055 C 158.305 57.055 157.099 56.646 156.097 55.869 L 157.671 47.649 L 164.909 49.346 C 165.134 49.98 165.257 50.634 165.257 51.329 C 165.277 54.499 162.701 57.055 159.552 57.055 Z M 165.543 47.628 L 157.569 45.768 L 155.442 41.719 L 165.87 32.579 C 168.958 33.745 171.023 36.71 171.023 40.043 C 171.044 43.457 168.794 46.565 165.543 47.628 Z" style="fill: rgb(255, 255, 255);"/>
    </g>
  </g>
</svg>