<?xml version="1.0" standalone="no"?>
<!DOCTYPE svg PUBLIC "-//W3C//DTD SVG 20010904//EN"
 "http://www.w3.org/TR/2001/REC-SVG-20010904/DTD/svg10.dtd">
<svg version="1.0" xmlns="http://www.w3.org/2000/svg"
 width="636.000000pt" height="636.000000pt" viewBox="0 0 636.000000 636.000000"
 preserveAspectRatio="xMidYMid meet">
<metadata>
Created by potrace 1.11, written by Peter Selinger 2001-2013
</metadata>
<g transform="translate(0.000000,636.000000) scale(0.100000,-0.100000)"
fill="#000000" stroke="none">
<path d="M2878 6346 c-8 -7 -25 -19 -40 -27 -68 -37 -208 -169 -276 -262 -44
-59 -120 -202 -125 -234 -1 -10 -5 -22 -8 -28 -5 -9 -15 -42 -25 -80 -1 -5 -5
-28 -8 -50 -4 -23 -8 -52 -11 -65 -11 -59 -4 -309 10 -380 10 -44 25 -124 31
-154 3 -16 8 -34 11 -40 4 -6 8 -17 8 -26 2 -16 40 -141 55 -175 19 -45 19
-55 4 -55 -24 0 -143 -40 -212 -71 -34 -16 -64 -29 -67 -29 -7 0 -26 41 -31
67 -8 40 -31 79 -59 97 -25 16 -28 16 -77 -11 -61 -34 -133 -111 -173 -190
-16 -32 -32 -60 -35 -63 -3 -3 -6 -9 -7 -15 -2 -5 -15 -45 -31 -88 -26 -73
-29 -77 -44 -60 -32 35 -77 130 -97 201 -39 141 -14 367 58 536 12 27 19 51
17 54 -9 9 -142 -87 -207 -150 -128 -123 -209 -283 -236 -463 -10 -66 -10
-303 -1 -385 5 -36 15 -105 23 -155 9 -49 18 -110 21 -134 3 -24 10 -55 15
-68 4 -12 5 -23 1 -24 -4 0 -16 -2 -27 -4 -11 -2 -42 -6 -70 -10 -240 -31
-330 -92 -293 -197 13 -36 27 -46 73 -54 20 -3 47 -8 59 -10 11 -2 41 -7 66
-10 56 -6 152 -23 156 -27 3 -3 -31 -59 -161 -265 -103 -162 -145 -228 -153
-237 -4 -5 -11 -17 -14 -26 -3 -9 -27 -48 -52 -88 -25 -39 -46 -73 -46 -75 0
-2 -19 -35 -42 -72 -60 -100 -149 -306 -173 -404 -30 -122 -55 -233 -60 -264
-3 -21 -7 -41 -9 -45 -3 -4 -7 -25 -10 -46 -8 -65 -17 -128 -22 -155 -28 -150
-33 -579 -9 -690 3 -14 8 -45 11 -70 7 -69 61 -273 96 -364 44 -115 165 -340
197 -366 3 -3 25 -30 49 -61 43 -57 123 -141 203 -214 l44 -40 618 1 c340 0
620 -2 622 -5 2 -3 140 -5 307 -3 374 4 982 4 1348 0 l275 -3 14 30 c8 16 16
24 19 17 2 -6 8 -12 13 -12 48 0 400 336 598 570 98 116 99 117 127 160 15 22
30 40 35 40 4 0 11 9 14 20 3 11 12 26 19 32 7 7 37 51 66 98 30 47 58 87 62
88 5 2 8 7 8 12 0 5 20 41 43 82 62 103 227 438 232 468 1 5 52 141 66 175 9
24 19 58 18 65 0 3 6 23 15 45 14 38 34 108 42 150 2 11 6 31 9 45 16 75 23
115 30 175 3 28 8 66 11 85 7 46 6 313 0 365 -3 22 -9 63 -12 90 -7 58 -7 54
-32 170 -43 195 -131 411 -246 605 -27 47 -53 87 -58 88 -4 2 -8 10 -8 18 0 9
-4 13 -9 10 -4 -3 -5 -23 -1 -44 28 -153 -53 -596 -151 -827 -4 -11 -24 -60
-44 -109 -70 -171 -102 -218 -190 -266 -44 -25 -126 -50 -166 -50 -24 0 -28
10 -95 211 l-70 211 21 46 c31 67 138 339 145 367 1 6 8 26 16 45 20 53 63
201 69 240 3 19 10 49 16 66 27 85 31 296 8 427 -21 120 -22 124 -43 202 -9
33 -19 69 -21 81 -3 11 -21 70 -41 130 -20 60 -37 114 -39 119 -2 10 -10 32
-48 125 -12 30 -22 57 -23 60 -1 7 -23 62 -34 85 -5 11 -19 43 -31 70 -79 183
-199 390 -269 465 -17 18 -38 45 -47 61 -10 16 -20 29 -23 29 -5 0 -77 146
-101 205 -10 24 -47 142 -54 170 -16 67 -47 215 -50 240 -2 17 -8 53 -12 80
-4 28 -7 53 -7 57 -2 17 -16 19 -22 2 -4 -10 -17 -42 -30 -71 -22 -48 -61
-160 -69 -193 -19 -86 -35 -176 -41 -225 -7 -63 -7 -268 0 -320 2 -16 7 -50
10 -75 9 -75 20 -132 36 -200 7 -25 13 -53 15 -62 8 -40 95 -288 119 -341 15
-32 29 -72 32 -90 6 -43 6 -270 0 -288 -3 -8 -8 -32 -11 -53 -6 -46 -48 -168
-63 -187 -43 -55 -96 -108 -102 -104 -5 3 -10 1 -12 -5 -4 -12 -102 -47 -147
-52 -33 -3 -33 -3 -61 72 -36 99 -58 150 -80 180 -10 14 -19 30 -20 35 -2 6
-10 20 -18 33 -14 21 -13 29 12 90 26 68 30 83 41 182 23 205 19 447 -10 573
-3 12 -7 33 -9 47 -19 116 -119 386 -148 398 -4 2 -8 8 -8 13 0 20 -84 138
-153 216 -16 17 -55 52 -87 78 l-59 46 29 -72 c57 -137 102 -298 116 -414 33
-276 -40 -408 -222 -401 -80 3 -125 21 -178 73 -74 72 -124 207 -144 388 -12
120 -5 498 12 605 3 14 7 55 11 92 3 37 8 77 10 90 9 47 14 98 10 98 -2 0 -10
-6 -17 -14z"/>
</g>
</svg>
