<svg xmlns="http://www.w3.org/2000/svg" width="55" height="52"><path fill="#45BDB0" d="M13.109 32.184A15 15 0 0 0 18 33c2.487 0 4.832-.605 6.897-1.676a17.98 17.98 0 0 1-5.512-9.605 15 15 0 0 0-6.276 10.465m-2.836-1.325c.937-5.324 4.214-9.842 8.731-12.454Q19 18.203 19 18a17.95 17.95 0 0 1 5.897-13.324A14.94 14.94 0 0 0 18 3C9.716 3 3 9.716 3 18c0 5.458 2.915 10.235 7.273 12.86m22.618-11.043A15 15 0 0 0 28 19c-2.073 0-4.047.42-5.843 1.18A14.98 14.98 0 0 0 27.5 29.61a14.98 14.98 0 0 0 5.391-9.793m.052-3.129A14.97 14.97 0 0 0 27.5 6.391a14.97 14.97 0 0 0-5.468 10.622A18 18 0 0 1 28 16c1.714 0 3.373.24 4.943.687M10 34.13C4.073 31.184 0 25.068 0 18 0 8.059 8.059 0 18 0c3.487 0 6.743.992 9.5 2.708A17.9 17.9 0 0 1 37 0c9.941 0 18 8.059 18 18 0 6.664-3.622 12.483-9.004 15.595Q46 33.797 46 34c0 9.941-8.059 18-18 18-9.898 0-17.93-7.99-18-17.87m3.057 1.184C13.722 42.983 20.158 49 28 49c7.953 0 14.46-6.189 14.968-14.013A18 18 0 0 1 37 36c-3.487 0-6.743-.992-9.5-2.708A17.9 17.9 0 0 1 18 36c-1.714 0-3.373-.24-4.943-.687M36 17.87c4.857 2.414 8.47 6.958 9.615 12.41C49.477 27.567 52 23.078 52 18c0-8.284-6.716-15-15-15-2.487 0-4.832.605-6.897 1.676A17.95 17.95 0 0 1 36 17.871m-.273 3.27a17.97 17.97 0 0 1-5.624 10.183A14.94 14.94 0 0 0 37 33c2.073 0 4.047-.42 5.843-1.18a15 15 0 0 0-7.116-10.68"/></svg>