<svg xmlns="http://www.w3.org/2000/svg" viewBox="0 0 288 246"><defs/><defs><style>.cls-1{fill:#ecf0f6}.cls-2{fill:#dae0eb}.cls-3{fill:#fec514}.cls-4{fill:#e6ebf2}.cls-5{fill:#7de2d1}.cls-6{fill:#00bfb3}.cls-7{fill:#1ba9f5}.cls-8{fill:#0d90e0}.cls-11{fill:#fa744e}</style></defs><g id="Layer_1" data-name="Layer 1"><path class="cls-1" d="M95 34.8a.9.9 0 00-.6 1 .8.8 0 00.8.8c.7 0 1.2-.8 1.2-1a1.2 1.2 0 00-1.4-.8zM98.3 32.6a1.5 1.5 0 00-.9-.7.9.9 0 00-1.2.6A1.8 1.8 0 0097 34a1 1 0 00.7 0 1.1 1.1 0 00.6.3c.2-.2.6-.4.7-.8a.8.8 0 00-.6-1zM99.1 41.8a1.2 1.2 0 00-1.3.3h1.9a.8.8 0 00-.6-.3zM64.6 42h2.8c-1.1-.8-1.7-.8-2.8 0zM79 39.8a1.6 1.6 0 00-2 1.3 1.5 1.5 0 000 1h2.8a1.3 1.3 0 00.2 0h1.4a.8.8 0 00-.7-.5.8.8 0 00.1-.2.9.9 0 00-.6-1 1 1 0 00-.4 0 1.2 1.2 0 00-.8-.6zM134.4 38.5a1 1 0 00-1 .8.8.8 0 00.7 1 .9.9 0 10.3-1.8zM142.2 42h1.5a1 1 0 00-.4-.3.7.7 0 00-1 .3zM126.4 42h2.8a2.6 2.6 0 00-1.2-.7 1.6 1.6 0 00-1.6.8zM129.4 36.6a.8.8 0 00-1 .4 2.8 2.8 0 01-.5.7 1.3 1.3 0 00-.3 1.6c.3.6.8.7 1.6 0l.5-1.2a1 1 0 00.4-.6.8.8 0 00-.2-.6.8.8 0 00-.5-.3zM146.4 38a1 1 0 00.2-1.3 1.9 1.9 0 00-1.9-.3 1.1 1.1 0 000 1.7c.5.5 1 .5 1.7-.1zM46.7 40a1.1 1.1 0 00-1.3 1c-.2.7 0 1 1 1.2s1.2 0 1.3-.6a2 2 0 00-1-1.7zM48 38.9c-.2 0-.4.3-.3.5a.4.4 0 00.4.3.6.6 0 00.5-.5c-.1-.2-.5-.3-.6-.3zM44.9 37.1a1 1 0 00-1 .8c-.1.9.2 1.5.7 1.6a1.5 1.5 0 001.4-1.2 1.5 1.5 0 00-1.1-1.2zM42.8 50.8a1.6 1.6 0 00.4 1.6.4.4 0 000 .2c.2.7.7.7 1.4.6l.2-.6a1.6 1.6 0 001-1.1 1.8 1.8 0 00-1.3-2 1.4 1.4 0 00-1.7 1.3zM61 37.6a1.6 1.6 0 00-1 1.8 1.6 1.6 0 002.2.7 1.6 1.6 0 00.8-1.8c0-.6-1-.9-2-.7zM55.6 41.9a.5.5 0 00-.2-.7c-.3-.1-.5.3-.6.5s.1.3.2.4h.2a.6.6 0 00.4-.2zM42 41a.7.7 0 00-.6.7c0 .7.3 1.2.6 1.2a1.5 1.5 0 001.1-1c0-.4-.6-.9-1-1zM56.8 36.6c-.3 0-.6 0-.7.4s0 .8.5 1a1 1 0 001-.5c0-.3-.3-.7-.8-.9zM55.4 31.8c-.6 0-.8.6-.7 1.2.4.3.8.6 1.3.3a.8.8 0 00.2-1.1 1 1 0 00-.8-.4zM57.9 41.8a2.5 2.5 0 00-.2-.3c-.3-.3-.4-.7-.9-.7s-1 .6-1 1.2h4.8a1.4 1.4 0 00-1-.8 1.8 1.8 0 00-1.7.5zM36.8 86.2c.5.3.9 0 1.2-.3 0-.7-.4-1-1.1-1-.4.4-.6.9-.1 1.3zM39.8 75a1.7 1.7 0 00-1.4-1.8 1.4 1.4 0 00-.6 0 1.3 1.3 0 00-.3-.7 1.2 1.2 0 00-1.2-.3 1.4 1.4 0 00-1 .9c-.1.5-.4 1-.2 1.3a.9.9 0 00.6.4 1.6 1.6 0 00.7.2 1.6 1.6 0 001.2 1.4 2.5 2.5 0 002.2-1.4zM41.8 97.4a5 5 0 00.4 1.2l-.3.2a1.1 1.1 0 00-.6-.1c-.3 0-.4.8-.1 1a.8.8 0 00.3.2.9.9 0 001 .6.6.6 0 00.5-.3 10.8 10.8 0 00.3-1.3 4.2 4.2 0 00.4-.3.6.6 0 00.4-.1.8.8 0 00.3-.8.8.8 0 000-.6 1.8 1.8 0 00-2-.6.9.9 0 00-.2.1 2.4 2.4 0 000-.4c0-1.2-1.3-1-1-1.7 0-.5.3-.5.5-.6a1.6 1.6 0 00.5.6 1.3 1.3 0 001.3.2 1.4 1.4 0 00.3 1 1.1 1.1 0 001.7.2 2 2 0 00.3-.3 1 1 0 00.8.2c.6-.2.5-.7.4-1.1a1 1 0 00-1 0 .6.6 0 000-.3 1.9 1.9 0 00-1.4-.6 1.4 1.4 0 00-.1-1.6.8.8 0 00.3-.1c.4-.3.4-1 0-1.6a1.1 1.1 0 00-1.4-.5 1.4 1.4 0 00-.6 1.6 1.8 1.8 0 00-.7.3 1 1 0 00-1.3-.6c-.8.2-.8 1-1 1s-1.1-.2-1.3.4c-.3 1.4 1 1.4 1 1.8s-.4 1.2-.4 1.8c0 1 .5 1.7 1.4 1.7a1.7 1.7 0 001.3-.6zM36.7 79a1.5 1.5 0 00.2-1.9 1.5 1.5 0 00-1.6-.1 1 1 0 00-.2 1.2c.5.8 1.1 1 1.6.7zM143 38.4a1 1 0 000 1.2.9.9 0 001.2 0 1.7 1.7 0 01.1-.2h.1a.6.6 0 00.6 0l-.1-.7c-.1 0-.3 0-.4.2a.8.8 0 00-.3-.5 1 1 0 00-1.2 0zM45 117.2c.4-.5.2-1-.5-1.6s-1.1-.4-1.4 0a2.2 2.2 0 00.1 2 1.2 1.2 0 001.8-.4zM34.7 85.5a1.3 1.3 0 00.4-1.3.7.7 0 00-.9-.4c-.7.3-1 .7-.9 1a1.5 1.5 0 001.4.7zM46 54.7l.6 1.2a2.8 2.8 0 000 .3 2.6 2.6 0 000 .7c-.8.5-.7.7 0 1.4a1 1 0 00.5-.2 1.2 1.2 0 00.5.2v-5a.8.8 0 00-.9-.2c-.9.4-1 .8-.6 1.6zM37.1 70.7c0 .5-.2 1.1.5 1.3a.8.8 0 001-.4 1 1 0 000-.8c-.2-.5-.6-.5-1.5 0zM46.8 123.8a2.1 2.1 0 00.4 2 1 1 0 00.4.2v-3.8a2.3 2.3 0 00-.2.4 2.3 2.3 0 00-.6 1.2zM152 42h1.4a1 1 0 00-.2 0 1.1 1.1 0 00-1.1 0zM151.6 40.3c-.4.6-.7 1-.2 1.6a.8.8 0 00.8 0 1.3 1.3 0 00.6-.8c0-.7-.7-.7-1.2-.8zM155.5 42h.2a.5.5 0 00-.2 0zM150 42h1.4a1.6 1.6 0 00-1.4 0zM47.3 120.3a1.2 1.2 0 00-.2-1.3 2.3 2.3 0 00-.4-.3.2.2 0 000-.1.6.6 0 00-.5-.3.6.6 0 00-.4.4.8.8 0 00-.5.3 1.5 1.5 0 000 2c.5.2 1.7-.2 2-.7zM171 42h.5a1.6 1.6 0 00-.4 0zM47.4 127.8a1 1 0 00.3-.1v-1.5a2.6 2.6 0 00-.4-.2c-.4.2-1 .4-.8 1a.8.8 0 00.9.8zM172.8 41.2a1.2 1.2 0 00-1 .9h2.3a1.5 1.5 0 00-1.3-1zM198.7 39.1a.8.8 0 10.8 1.5 1.1 1.1 0 00.3-1.3.8.8 0 00-1-.1zM47.6 137.5v-1.3a.8.8 0 00-.2.8 1 1 0 00.3.5zM47.6 134.4V132a.8.8 0 00-1.2.6 1.3 1.3 0 00.3 1.5 1 1 0 001 .3zM42.9 122.4c.2 0 .7.4 1 .2a.6.6 0 00.1.4c.2.3.7 0 .8-.2a.7.7 0 00-.1-.7.6.6 0 00-.5 0 2.3 2.3 0 00-.5-.8c-.2-.3-.7-.2-1 .1s-.2.8.2 1zM231 42a.7.7 0 000-.5c-.2-.4-1.2-.3-1.6-.1a1 1 0 00-.4.7zM47.5 143.5a.7.7 0 00.1.4v-1.3a1.2 1.2 0 00-.1 1zM40 120.1a1.6 1.6 0 002.3-.6 1.3 1.3 0 00-.3-1.9 1.7 1.7 0 00-2.3.4 1.8 1.8 0 00.4 2.1zM37.4 97.7a1.5 1.5 0 00-.1-1.8 1 1 0 00-1.4 0 1.3 1.3 0 00.2 1.8.9.9 0 001.3 0zM40.4 109.7a2.5 2.5 0 00-.3-1c-.3-.4-1-.2-1.3.3a.8.8 0 00.3 1.1 1 1 0 001.3-.4zM39.9 113.8a.8.8 0 001-.3 1.3 1.3 0 00-.3-1.6 1.3 1.3 0 00-1.3.9.9.9 0 00.6 1zM216.4 42h1.3a1 1 0 000-.7.7.7 0 00-1-.5.8.8 0 00-.4 1.1.8.8 0 00.1.2zM203.5 40.3c.2-.2 0-1 0-1.2s-.8-.4-1-.1-.5.6-.2.9 1 .6 1.2.4zM47.6 115v-2.7a1.2 1.2 0 00-.2.2 1.2 1.2 0 00-.4 1.4 4.4 4.4 0 00.6 1.1zM198.5 36.8a1.3 1.3 0 001-1.2 1 1 0 00-.9-1.1c-.4-.1-1.2-.6-1.7-.2s0 .9 0 1.2c.1.8 1 1.5 1.6 1.3zM206 38.3c.2-.2.1-.6 0-.6a.8.8 0 00-.5-.2l-.2.4s.4.5.6.4zM211 42a1.3 1.3 0 00-.2-1.1c.2-.2.4-.5.3-.6s-.4-.4-.7-.4a1 1 0 00-.4.4 1.1 1.1 0 00-1.1.2 1.3 1.3 0 00-.4 1.6zM224 40.3a.3.3 0 00.1-.4h-.3a.3.3 0 00-.2.2.3.3 0 00.4.2zM220.6 40.8c.2 0 .5-.4.4-.5l-.7-.2c-.2 0-.2.4-.2.4a.7.7 0 00.5.3zM37.1 83.1a1.4 1.4 0 00.1-1.5 1.2 1.2 0 00-1.4 0 .7.7 0 000 1c.6.6 1 .8 1.4.5zM214 42a.5.5 0 00-.6-.1 1.2 1.2 0 00-.3.2zM33.7 106.5c.3.2.7.3.9-.1s.3-1.1 0-1.3-.9.3-1.1.5-.1.7.2 1zM32 62.9c.6.2 1.5-.5 1.4-1s-1.3-.5-1.6-.1a.9.9 0 00.3 1.1zM38.2 56.4a1.1 1.1 0 001 1.4c.7.1 1.3-.2 1.4-.7a1.8 1.8 0 00-1.3-1.8c-.4 0-1 .6-1 1.1zM35 63.2c0 .2.2.5.3.5s.6 0 .7-.2-.3-.5-.5-.5a.5.5 0 00-.5.2zM31 74a1.5 1.5 0 000 1.8c.4.6 1 .6 1.7.1a1.2 1.2 0 00.3-1.4 2 2 0 00-2-.6zM33.4 60a.8.8 0 00-.6-1 .7.7 0 00-.7 1.1.8.8 0 001.3-.2zM39.7 44.8c0 .6.6.7 1 .7a1 1 0 000-1.6c-.6.1-1.1.3-1 1zM40.4 52.9a1.6 1.6 0 001 1.7c.5 0 1-.5 1.2-1.1a1.1 1.1 0 00-.7-1.4 1.4 1.4 0 00-1.5.8zM39.3 54.8c.1.2.6.2.8.1a.6.6 0 00.1-.6c0-.1-.4-.2-.5-.1s-.5.5-.4.6zM37 47.4a1.4 1.4 0 001 1.8 1.9 1.9 0 002.2-1.3 2 2 0 00-1.3-2c-.8-.3-1.6.4-1.9 1.5zM35.4 102.8l.1-.7H35a.6.6 0 000 .6.6.6 0 00.5 0zM41.8 48a.7.7 0 001-.6.9.9 0 00-.6-1 .8.8 0 00-1 .7.8.8 0 00.6.9zM32.7 99a1.1 1.1 0 00.6 1 1.4 1.4 0 001.9-.5 1.4 1.4 0 00-.5-1.9 1.2 1.2 0 00-1.7.5 1.9 1.9 0 00-.2.4h-.1c-.2.1-.1.3-.1.4h.1zM33 96.4a1.5 1.5 0 001.9.4c.4-.2.5-1.2.2-1.7a1 1 0 00-1.5-.5 1.4 1.4 0 00-.6 1.8zM35.5 86.8a1.4 1.4 0 00-2-.5 1.5 1.5 0 00-.7 1.9 1.7 1.7 0 002.3.3 1.1 1.1 0 00.4-1.7zM31.4 78.8c.6-.4.6-1 .2-1.6a.9.9 0 00-1.2-.5 1.9 1.9 0 00-.6 1.9c.4.5 1 .6 1.6.2zM30.3 84.7a1.2 1.2 0 001.4.6 1.4 1.4 0 00.5-1.5c-.3-.4-1-.5-1.7 0a.7.7 0 00-.2 1zM31 55.5l-.6.3c.1.2.2.5.4.6s.7.2.8-.3-.4-.6-.5-.6zM31.4 65.3c.2-.2.1-.6 0-.6s-.2-.4-.5-.3a.3.3 0 000 .5c0 .1.3.5.5.4zM44.8 84.1a.8.8 0 00.1 1.3.9.9 0 001.2-.1.9.9 0 00-.2-1.3.7.7 0 00-1 .1zM73.9 31.7a.5.5 0 10-.2 1 .5.5 0 00.5-.4.5.5 0 00-.3-.6zM77.8 32.6a.9.9 0 001-.8.7.7 0 00-.6-.9 1 1 0 00-1 .7 1 1 0 00.6 1zM82.2 34.7a1.1 1.1 0 00-1.5-.4 1.1 1.1 0 00-.4 1.4 1 1 0 001 .4 1.8 1.8 0 00-.5.3 2.3 2.3 0 00-.4 2.5c.3.4 1 .3 1.2.4a1 1 0 00.1.5A2 2 0 0082 41a1.4 1.4 0 00.9.4.7.7 0 00.2.6h3.7c0-.8-.7-1.2-2-1.1a1.4 1.4 0 00.4-.7 1.6 1.6 0 00-.6-1.7 2.8 2.8 0 00-1.2-.2 1 1 0 00.1-1.2c-.2-.4-.4-1.3-1-1.3a.5.5 0 00-.5.2 1.3 1.3 0 00-.4 0 1.8 1.8 0 00.3-.2.8.8 0 00.3-1.2zM76.6 30l-.2-.4s-.5.1-.6.3a.5.5 0 00.3.6c.3.1.4-.3.5-.5z"/><path class="cls-1" d="M69.4 35.1a1.3 1.3 0 001 1.7 1.7 1.7 0 001.8-1 1.4 1.4 0 000 .3c-.3.8-.1 1.3.3 1.4a1.5 1.5 0 001.4-.6 1 1 0 00.4.2 1.8 1.8 0 001.3-.2 1 1 0 00.5.3 2.4 2.4 0 002.2-1.2 1.6 1.6 0 00-.5-1.5.9.9 0 001-.6.7.7 0 00-.5-1 1 1 0 00-1 .6.7.7 0 00.2.7 1.7 1.7 0 00-.3-.1 1.8 1.8 0 00-2 1L75 35a1.2 1.2 0 00-1.3 1 1.3 1.3 0 00-.7-.5.7.7 0 00-.7.3 1.3 1.3 0 000-.4 1.8 1.8 0 00-1-1.6.9.9 0 00.6-.7.8.8 0 00-.7-1c-.4 0-.9 0-1 .3a1.2 1.2 0 00.3 1.3 1.8 1.8 0 00-1 1.4zM68.2 33.7c0-.5-.1-.8-.6-.8s-1-.1-1.1.4.5.8.8 1 .7-.2.9-.6z"/><path class="cls-1" d="M74.1 31.2a1.1 1.1 0 00.6 1.2c1 .3 1.7 0 1.9-.6a1.6 1.6 0 00-1-1.6 1.5 1.5 0 00-1.5 1zM85.3 38.4a.6.6 0 00.5-.4c0-.2 0-.6-.2-.6a.6.6 0 00-.5.3c-.1.2 0 .7.2.7zM73 30.4a.6.6 0 00-.3-.5c-.2-.1-.7 0-.7.2s.3.4.4.5.6 0 .6-.2zM163.3 41.8a.9.9 0 00-.5 0 2.2 2.2 0 00-.1-.2.9.9 0 00-1.4-.3 1.3 1.3 0 00-.6-.5.7.7 0 000-.7 1 1 0 00-1.4-.3 2.3 2.3 0 01-.9.4 1.3 1.3 0 00-1.3.8 1.4 1.4 0 00.4 1h6.2a.8.8 0 00-.4-.2zM67.7 39a.8.8 0 00.4 0 1.3 1.3 0 00.8.5v.1a1.8 1.8 0 00.4 1.8 2.7 2.7 0 00.6.3.8.8 0 00-.1.4h1.7a.9.9 0 00-.6-.8 2.6 2.6 0 011.3-.2.7.7 0 00.7-.8c0-.5-.5-1-1-.9a1.5 1.5 0 01-1.6-.2.9.9 0 00.1-.2 2.3 2.3 0 00-1-1.7 1.1 1.1 0 00-.6 0 1.6 1.6 0 00-.7-.6.8.8 0 00-1 .7c-.2 1 0 1.5.6 1.6zM128.8 40.8a1.6 1.6 0 00.6 1.3h1.5a1.3 1.3 0 00.2-.3 1.8 1.8 0 000 .3h3-.2a.8.8 0 00-.3-.3 1.8 1.8 0 01-.4-.7 1.4 1.4 0 00-1.6-.4 1.3 1.3 0 00-.4.7 1.2 1.2 0 00-1-1.4c-.7 0-1.4.3-1.4.8zM137.6 41a1.3 1.3 0 00-.1-1.6.7.7 0 00-1.1.1c-.6.6-.8 1-.5 1.4a1.4 1.4 0 001.7.1zM123 41.6c0-.5-.3-.8-.8-.8-.7-.1-1.1 0-1.3.4a1.2 1.2 0 00-.6 0 .8.8 0 00-.6.9h3a1.1 1.1 0 00.3-.5zM118.3 37.9a1.9 1.9 0 00-1.7.7c-.2.4-.5.9 0 1.2a2 2 0 01.7 1.6.7.7 0 00.9.7c.5-.1 1-.7.7-1.1a1.5 1.5 0 010-1.6 1.4 1.4 0 00-.6-1.5zM100.5 37.4a1 1 0 00-.6-1 .9.9 0 00-1 .6 1 1 0 00.1.9 1.1 1.1 0 001 1.1 1 1 0 00-.3 1.3.9.9 0 001.5-.1 1.2 1.2 0 000-1 .8.8 0 00-.6-.3 1 1 0 00.3-.4 1 1 0 00-.4-1.1zM96.2 29a.8.8 0 00-.9.7 1 1 0 00.6 1 .8.8 0 00.7.7c.4 0 .5-.2.6-.5a.6.6 0 00-.3-.8 1 1 0 00-.7-1.1zM109.2 41.4c0-.3-.6-1-1.3-.7a1 1 0 00-.5.6.8.8 0 00.3.8h1a1.4 1.4 0 00.5-.7zM97.3 40.4a1.5 1.5 0 010-.4h.2a1 1 0 001-.9 1 1 0 00-1-.9.8.8 0 00-.3 0 1.6 1.6 0 00-.6-.3.7.7 0 00.1-.2c.1-.4-.3-.9-.8-1a1 1 0 00-1.3.6.9.9 0 00.7 1 1.7 1.7 0 00-.3.8 2.8 2.8 0 010 .8.7.7 0 00-.7-.5 2.5 2.5 0 00-1.4.7 1 1 0 00-1.1.7 1 1 0 00.7 1.2 1 1 0 00.8-.2 2.1 2.1 0 00.6.1.8.8 0 00.5 0v.2h2.9a3 3 0 000-1.7zM132.7 39.6a1.6 1.6 0 00-.1-1.8.8.8 0 00-1.2 0c-.7.7-.8 1.3-.3 1.8a1.4 1.4 0 001.6 0zM32.8 91.7a1.2 1.2 0 00.5-1.5 1.8 1.8 0 00-2.2-.5 1.3 1.3 0 001.7 2zM38.7 115.6a1.5 1.5 0 00-2 0 1.4 1.4 0 00.5 1.6 1.2 1.2 0 001.6-.4.8.8 0 00-.1-1.2zM37.5 120.5a.5.5 0 00-.1-.7.5.5 0 00-.7.2.5.5 0 000 .6.5.5 0 00.8 0zM31.4 103.5a.8.8 0 000 .5h.5s.3-.4 0-.6-.5 0-.5 0zM28.7 69.6a12.7 12.7 0 001.3 1 .6.6 0 001-.6 3.1 3.1 0 00-.8-1.6 1 1 0 00.4-.4.4.4 0 00-.2-.4.6.6 0 00-.5.2.7.7 0 000 .5l-.7.1c-.5-.6-1.3-.8-1.6-.5a.8.8 0 00-.3 1c.3.7.5.8 1.4.7zM37.8 123a.6.6 0 00-.2-.6c-.2-.1-.5-.3-.6 0a.6.6 0 000 .5c.1.1.6.2.8.1zM43.8 132.6a.6.6 0 00-.4.8 2.5 2.5 0 00.6.5.9.9 0 00.5-1.1c-.1-.4-.4-.3-.7-.2zM45 130.4a1.2 1.2 0 00.5-.4 1.8 1.8 0 001.4-.5 1 1 0 00-.2-1.6 1.8 1.8 0 00-1.4-.3 1.7 1.7 0 00-1.5-.3 1.7 1.7 0 00-1.1 2 2.4 2.4 0 002.3 1zM42.3 131.9c-.2 0 0 .4 0 .6s.6.2.8 0-.1-.6-.2-.6a.7.7 0 00-.6 0zM51.7 38c.1-.2 0-.4-.2-.5s-.4 0-.5.3a.3.3 0 00.2.4.3.3 0 00.5-.2zM53.4 40.5a1.5 1.5 0 002.2-.7 1.7 1.7 0 00-.7-2.2 2 2 0 00-1.5.2.9.9 0 00-.7.3.6.6 0 000 .3.6.6 0 000 .1 1.6 1.6 0 00.7 2zM63.8 40.6a1 1 0 00-.7-.3 1 1 0 00-.7 0c-.3 0-.2.5 0 .7a1.4 1.4 0 001 .2.8.8 0 000 .2 1.6 1.6 0 00.1.7h1a3.3 3.3 0 00.2-.3.6.6 0 00-.4-.8 1 1 0 00-.5 0 .4.4 0 000-.4zM54.2 35.8c.1-.3-.1-.6-.5-.7s-.7 0-.8.3a1 1 0 00.7 1.1 2.6 2.6 0 00.6-.7zM51.8 41.5a1.7 1.7 0 00-.8-2.1 6.5 6.5 0 00-1 .5 1.3 1.3 0 00-.5 1.5 1.7 1.7 0 00.7.7h1.1a1.1 1.1 0 00.5-.6zM35 58a1.4 1.4 0 00-.6-.9c-.3-.2-.9.2-.9.7a1.8 1.8 0 00.3.6c.7.1 1.2 0 1.1-.4zM29 64.4a.5.5 0 00-.4-.8c-.3 0-1 .3-1 .6s.5.6.7.6a.8.8 0 00.7-.4zM33 65.3c.2.3 1 0 1.5-.3a.8.8 0 001.1-.4.8.8 0 00-.6-.8c-.3 0-.4 0-.6.4a1.4 1.4 0 00-1-.2c-.6.2-.5 1-.3 1.3zM35.9 62.4a2 2 0 001.8.7 1 1 0 00.7-.5 7.9 7.9 0 001-.6 1.7 1.7 0 00.4-2c-.1-.3-.4-.5-.8-.4a6.7 6.7 0 00-1.4.5l.6-.9a.8.8 0 00-.1-1.3 1.4 1.4 0 00-.8-.3.5.5 0 00-.5-.2 2.3 2.3 0 00-.7.3 1.2 1.2 0 000 .5 1.7 1.7 0 00-.1.7 7.1 7.1 0 00.2 1.1l-.3.4a1.8 1.8 0 000 2zM26.2 78.9a.7.7 0 00-.2 1 .6.6 0 00.9.2.7.7 0 00.3-.9.8.8 0 00-1-.3zM39.3 104.8c-.2-.1-.6 0-.8.2a.4.4 0 00.2.8c.2 0 1 .3 1.1 0s-.3-.9-.5-1zM192.8 36.7a.9.9 0 00.2-1.1.7.7 0 00-1-.3 1 1 0 00-.3 1.1.8.8 0 001 .3zM47.6 86.2v-1a.8.8 0 000 .9zM47.2 66.7a1.8 1.8 0 00.4 1.3 1 1 0 01-.2.4.6.6 0 00.3.8v-4.3a1.6 1.6 0 00-.5 1.8zM46.5 71.5a1.1 1.1 0 000 1.6 1.5 1.5 0 00.9.3 1 1 0 00.3.8v-2.8h-.1c-.4 0-.8-.3-1.1 0zM39.4 76.7a.6.6 0 000-.7c-.2-.1-.6 0-.7.2a.5.5 0 00.1.6.5.5 0 00.6-.1zM47 81.8a1.6 1.6 0 00.6.5v-4 1.3a1 1 0 00-.4.2 1.1 1.1 0 00-.4.6.8.8 0 000-.1 1.8 1.8 0 00-1.6-1.7 2 2 0 00-2 2c0 .7 1 .7 1.4.4s.3-.2.8 0h.1a.8.8 0 000 .8 1 1 0 001.4.2zM38.3 79.4c.3.7.8.7 1.5.3s.9-1 .6-1.4a2 2 0 00-1.9-.5 1.1 1.1 0 00-.2 1.6z"/><path class="cls-1" d="M45.6 75.5c-1 .8-1 1.2-.4 2.3a1.4 1.4 0 002 .4 1 1 0 00.4-.6v-1.2a2.2 2.2 0 000-.4.8.8 0 000-.2V75a.8.8 0 00-.6-.5.9.9 0 00-1 .8 1.2 1.2 0 00-.4.2zM47.6 52.7V51a.5.5 0 00-.6-.1c-.2.2-.4.7-.3.9s.6.3.8.4l.1-.1a.6.6 0 000 .5zM40.3 69.5c-.3.1-.6.4-.4.8a1 1 0 001.3.3 2.9 2.9 0 000-1 .5.5 0 00-.9-.1zM43 88a2.4 2.4 0 00.1.4 1.5 1.5 0 002.2.6 1.7 1.7 0 00.6-2.2 1.8 1.8 0 00-2.4-.6 1.5 1.5 0 00-.4.4.5.5 0 00-.7.1c-.2.4-.3.8 0 1a.8.8 0 00.5.2zM47.1 90.4a.8.8 0 000-1c-.3-.2-1.2 0-1.3.3a1 1 0 00.2.8.7.7 0 001.1 0zM47.6 93.8v-2.9a1.8 1.8 0 00-.3.1 1.5 1.5 0 00-.5 2 2.3 2.3 0 00.9.8zM42.9 70.4a1.3 1.3 0 00-.5.4 1.4 1.4 0 00-.6.8.8.8 0 000 .5 1.3 1.3 0 000 .6 1.4 1.4 0 001.4 1 1.4 1.4 0 00-.1.1c-.1.5.1.8.6.8a2.6 2.6 0 00.7-.3.9.9 0 00-.3-.8 1.4 1.4 0 00.8-1.9c-.5-1-1.4-1.4-2-1.2zM46.4 97.4a5 5 0 00-1 2.7 1.4 1.4 0 00.2.5 1.1 1.1 0 002 0v-3.2a1.2 1.2 0 00-.3-.2.7.7 0 00-.9.2zM40.9 73a.3.3 0 00-.5-.3c-.3.1-.3.3-.2.5a.3.3 0 00.4.2c.3 0 .4-.2.3-.5zM43.5 84a1.7 1.7 0 00.6-2.3 1.3 1.3 0 00-1.6-.6v-.2a1.7 1.7 0 00-2.2-.3 1.6 1.6 0 001.2 3 1.7 1.7 0 002 .5zM40.9 75.5a1.4 1.4 0 00.3 1.2.8.8 0 00-.2.4c0 .5.2.9.6.8a2.6 2.6 0 00.7-.3 1 1 0 00-.1-.6 1.3 1.3 0 001.1-.6 1.2 1.2 0 000-1 1.7 1.7 0 00-2-1 6 6 0 00-.4 1zM39.5 90.6a.5.5 0 000 .5.7.7 0 00.6 0 .5.5 0 000-.7c-.2-.3-.5 0-.6.2zM46 110c.2-.1.1-.5 0-.7a.4.4 0 00-.5-.1.6.6 0 00-.2.4 1.2 1.2 0 00-.1-.2 1 1 0 00-1.2-.2 1 1 0 00-.3 1.5 1.1 1.1 0 001.6-.3.7.7 0 00.1-.6l.6.2zM38.5 90.5a1.9 1.9 0 00.8-2.4 2 2 0 00-2.4-.6c-.7.4-.9 1.4-.3 2.4a1.4 1.4 0 002 .6zM36 93a.3.3 0 000 .2.3.3 0 00.4 0 .3.3 0 00-.1-.3H36zM33 82.3a1 1 0 00.9-.2.8.8 0 00.1-.7 7.3 7.3 0 00-.6-1.2c-.2-.3-.5-.3-.9 0v.3a1.9 1.9 0 010 1.2c0 .2.3.6.6.6z"/><path class="cls-1" d="M40.8 86a.9.9 0 00-1.2-.4.8.8 0 00-.4.8.7.7 0 00-.3.1c-.2.1-.3.8-.2 1s.8 0 .9-.2a.8.8 0 000-.2.8.8 0 00.9 0 .7.7 0 00.3-1.1zM46.2 102.2c-.2.1-.3.4-.2.6s.4.2.5.1.5-.3.3-.6-.5-.1-.6 0zM179 41.1a.8.8 0 00-1 .4 1 1 0 00-.1.6h1.6a.8.8 0 00-.4-1zM41.2 108.6c.2.2.8 0 1 0a.9.9 0 00.2-.5 1.2 1.2 0 00.3-.3c.5-.7.5-1.2 0-1.6a1.5 1.5 0 00-1.9.1 1.6 1.6 0 00.3 2h.1a.4.4 0 000 .3zM33.6 69.1a1.3 1.3 0 001.7.9c.7-.2.7-.6 1.2-.7s.6-.4.6-.9 0-1.3-.6-1.3a1.5 1.5 0 00-1-.5 1.3 1.3 0 00-1.7.9 1.6 1.6 0 000 .7.9.9 0 00-.2.9zM39.5 100.1a1.5 1.5 0 00-.9-.2c-.2-.3-.6-.2-.8 0a.5.5 0 00-.1.3 1.1 1.1 0 00-.4.2 1.6 1.6 0 00.2 2.2 2 2 0 001.1.5c-.3.2-.4.5-.2.8.2.6.7.5 1.2.3a1.2 1.2 0 00-.2-1.3 1 1 0 00.3-.2 2.1 2.1 0 00-.2-2.6zM32.5 71a.7.7 0 00-.3.7.7.7 0 00.7.4c.3 0 .3-.7.2-.8a.6.6 0 00-.6-.2zM40 64.7a.9.9 0 00-1.5.3 1.2 1.2 0 00.1 1 .9.9 0 00.5.2 1.1 1.1 0 00.4 1 1 1 0 00-.2.3 1 1 0 00.7 1.2.9.9 0 001-.7 1 1 0 00-.4-1 .7.7 0 00.2-.4.8.8 0 00-.7-1 1 1 0 00-.2-.9zM169 41.6a1.4 1.4 0 00-.5-1.7 1.7 1.7 0 00-1.8.8 1.2 1.2 0 00.3 1.4h1.7a1.4 1.4 0 00.3-.5zM44 104.2a1.1 1.1 0 00.7 0 .7.7 0 00.4-.5c0-.6-.5-.8-1-.8l-.1.1c-.3-.3-1.4.4-1.3 1a.9.9 0 001 .5.6.6 0 00.3-.3zM47.6 102.6a1.2 1.2 0 00-1 1 1.8 1.8 0 000 .2 1.2 1.2 0 00-1.2.6c-.4.5.3 1.1.6 1.2s.5-.4.7-.8l.1 1c-.6.4-1.3 1-1.1 2a2 2 0 002 1.5zM45 113.1a1 1 0 00-.3-1.2 1 1 0 00-1.2.3.9.9 0 00.2 1.2 1 1 0 001.3-.3zM76.4 41.3c.3-1 0-1.6-1-2a1.4 1.4 0 00-.7 0 1 1 0 00-.6 0 .8.8 0 00-.9.7 1 1 0 00.3.8A1.5 1.5 0 0074 42h2a2.2 2.2 0 00.4-.8zM41.3 57.5a1.6 1.6 0 00-.5 2 1 1 0 00.8.5.5.5 0 00-.1.2 1.6 1.6 0 001 1.7.7.7 0 00.2 0 1.5 1.5 0 00-.4.6 2.7 2.7 0 000 1.9 1.3 1.3 0 010 .7 1.1 1.1 0 001 1.7.6.6 0 00-.2.3c0 .4.4.8 1 .9a1 1 0 001.2-.8.8.8 0 00-.6-.9 2 2 0 001.3-.7c.4-.5 1-.5 1.2-1.1V64a1 1 0 00.4-.2v-1a1.1 1.1 0 00-.5-.4 2 2 0 00-.2-.3 2 2 0 00.7 0v-2a.7.7 0 00-.2 0c-.4-.2-1.2.5-1.4 1.1a.5.5 0 000 .1 2 2 0 00-1.8-.2 1 1 0 00-.5.5H43.4a1.5 1.5 0 00.6-1c0-.5-.4-1-1.2-1.1a2 2 0 00.3-.8 1.1 1.1 0 00.2 0 2 2 0 002-1.3 1.8 1.8 0 00-1.3-2 1.4 1.4 0 00-1.7 1 2.3 2.3 0 000 1 1.4 1.4 0 00-1 0zM46 43.2a1.6 1.6 0 00-1.1 3A1.7 1.7 0 0046 48a1.8 1.8 0 001.6-.4v-2.3a1.7 1.7 0 00-.3-.2 1.2 1.2 0 000-.2 1.7 1.7 0 00-1.3-1.7zM105.7 35.5c.5-.3.5-.8.2-1.3-.5 0-1-.1-1.2.5a1 1 0 00.3.7.7.7 0 00.7 0zM64.7 27.8c.1 0 .6 0 .6-.2a.6.6 0 00-.4-.6.6.6 0 00-.5.3.6.6 0 00.3.5zM61.8 29.5a1.4 1.4 0 00.6 0 1.1 1.1 0 00-.1.4c-.2.5 0 1 .4 1a1.4 1.4 0 001.3-.7.9.9 0 00-.7-1 .8.8 0 00.3-.4 1.5 1.5 0 00-1-1.8 1.4 1.4 0 00-1.3.5l-.3.2a.5.5 0 000 .2 1.7 1.7 0 00-.1.4 1 1 0 00.9 1.2zM63.5 24.3a.6.6 0 00.5-.3l-.3-.5c-.1 0-.7 0-.7.3s.4.5.5.5zM66.3 25.2c.5.2.9-.4 1-.7s0-1.3-.5-1.4-1 .8-1 1.1a1 1 0 00.5 1zM73.4 21.6a.6.6 0 00.5-.2s0-.5-.2-.6-.5.3-.5.4a.4.4 0 00.2.4zM71.7 27c0-.3 0-.8-.5-.8s-.7.2-.8.5.2.6.3.8c.7.2.9-.1 1-.5zM67.7 26a2.4 2.4 0 00-.2.3.5.5 0 00.4.8c.4.1.8 0 1-.4a1 1 0 00-.3-.8.7.7 0 00.4-.7.8.8 0 00-.8-.7 1 1 0 00-.7.3.8.8 0 00.2 1.2zM72.1 24.9a.8.8 0 001-.6.9.9 0 10-1.6-.5 1 1 0 00.6 1zM68 28.3l-.7 2c-1.3-.3-1.4-.2-1.4 1a1.1 1.1 0 00.3.1.8.8 0 001 1 1.4 1.4 0 00.5-1 .6.6 0 00-.2-.4c1.2.6 1.9 0 1.9-1.4a1.2 1.2 0 00.2 0 1 1 0 001-.6 1 1 0 00-.5-1 1 1 0 00-.5-.4c-.9-.4-1.3-.2-1.6.7zM64.7 40.7c.6.3 1 .1 1.3-.8a14.3 14.3 0 00-.3-1.9.9.9 0 000-.3 1.1 1.1 0 001.2-.8 1.7 1.7 0 00-.4-1.3.9.9 0 00.3-.4 1.2 1.2 0 00-.7-1.4 1.6 1.6 0 00-1.7.8c0 .3.3.8.7 1a1.8 1.8 0 00-.5 1 1 1 0 00.3.8.8.8 0 00-.2 0 .8.8 0 00-.6 1 2.6 2.6 0 010 .7 1.3 1.3 0 00.6 1.6zM46.5 35.1a.8.8 0 00.2.8c.1.2.1.4.5.6a1.9 1.9 0 001.6 0 1.4 1.4 0 00.7-1.1 1.2 1.2 0 00-.6-1 1.4 1.4 0 00-1.3-.1c-.4.3-1 .4-1 .8zM50.1 26c.3 0 .5-.3.5-.5s0-.4-.3-.5a.3.3 0 00-.4.3c0 .1 0 .6.2.6zM58.4 33.3a.7.7 0 00-1 .5.8.8 0 00.5 1 .8.8 0 00.5 0 1.8 1.8 0 00.6 1 1.9 1.9 0 001.5.4c.6 0 1.1.4 1.7 0a4.4 4.4 0 00.4-.3 1 1 0 00.7 1c.4.1.5-.2.6-.5s-.1-.8-.5-.8a1.6 1.6 0 00-.5 0 2.5 2.5 0 00.6-2.3 2 2 0 00-1.3-1.6c-.7-.2-1.3.5-2 .5a1.7 1.7 0 00-1.8 1zM45.2 27.2a13 13 0 00.2 1.7.6.6 0 001 .1c.4-.5.8-1 .7-1.8l-.7-.4c0-.9-.4-1.6-.9-1.6a.8.8 0 00-.9.5c-.2.7-.1 1 .6 1.5zM49.7 32c.6.4 1 0 1.3.3s.7.2 1.1-.2 1-.9.4-1.4-.9-.2-1 0-.6.1-.5 0 0-.6-.6-.8a.9.9 0 00-1.3.3 1.3 1.3 0 00.6 1.8zM56.2 28.7a1 1 0 00.8 0 1.6 1.6 0 001.2-1.8v-.6h1c.6-.2.8-.5.8-1A1.3 1.3 0 0059 24a1.2 1.2 0 00-1.3.5 5.8 5.8 0 00-.6 1 3.8 3.8 0 00-.5 0 1.7 1.7 0 00-1.4 1.4 2 2 0 001 1.8zM59.8 30.8c0-.2 0-.7-.2-.7s-.4.3-.5.4a.6.6 0 00.2.5.7.7 0 00.5-.3zM53.6 28.4a.8.8 0 00.2-1c-.3-.4-.6-.3-1.3.2a.8.8 0 001.1.8zM55.2 23.4a.8.8 0 00.2-1 .7.7 0 00-1.3.3.8.8 0 001.1.7zM80.5 21a.7.7 0 00.6-.2 1 1 0 00.1-.8.8.8 0 00-1.2 0 .8.8 0 00.5 1zM89.1 20.2a.6.6 0 00.5-.2c.1-.1 0-.6-.2-.7s-.4.3-.5.5a.4.4 0 00.2.4zM88 26c.3 0 1 0 1.1-.4s-.4-.8-.6-.9a.6.6 0 00-.9.3c-.2.3 0 1 .4 1zM84.4 33.5a1.7 1.7 0 00.1 2.4 2 2 0 001.7 0 .8.8 0 00.6 1h.2a.5.5 0 00.3.1.5.5 0 00.6-.5.4.4 0 00-.1-.2.3.3 0 000-.1.9.9 0 00-.5-1.1h-.2a1.6 1.6 0 00-.4-1.7 1.5 1.5 0 001-1.3 2 2 0 00.1-.7.8.8 0 00.3 0 .6.6 0 00-.3.5.9.9 0 00.7 1 .8.8 0 001-.6.9.9 0 00-.7-1A1.2 1.2 0 0089 30a1.5 1.5 0 00-1.4-.8 1.2 1.2 0 00-.9 1 1.6 1.6 0 00-1.8 1 1.7 1.7 0 00.4 1.8 1.3 1.3 0 00-.9.6zM86 23.1a1.1 1.1 0 001.5-1 1.1 1.1 0 00-.6-1.4 1.7 1.7 0 00-1.9 1.1c-.1.5.4 1.2 1 1.3z"/><path class="cls-1" d="M90.7 34a1.5 1.5 0 00-.6 1 1.2 1.2 0 001 1.2 6.6 6.6 0 00-1.2.7 1.8 1.8 0 00-.5 1.2 1.7 1.7 0 00-.2.2 1.8 1.8 0 00-.8-.3c-1.2-.2-1.6 0-2 1a1.6 1.6 0 001.4 2 .8.8 0 00.3 0 1.9 1.9 0 00-1 1h2.5a1 1 0 00-.6-1h-.2a1.8 1.8 0 00.7-.8 2.4 2.4 0 001 .3 1.3 1.3 0 001.5-1v-.1a1.7 1.7 0 00.5-2c-.2-.4-.5-.8 0-1.4.2-.3 0-.6-.3-.9a1.6 1.6 0 00-.6-1.1 1.2 1.2 0 00.6-.9c.2-.7 0-1.4-.6-1.5a1.8 1.8 0 00-1.7 1.2 1 1 0 00.8 1.2zM99 24c.2 0 .5.1.7-.1s-.3-.5-.4-.5a.7.7 0 00-.5.3l.2.4zM98.3 27.6a.8.8 0 00.6.7c.4.1.6-.2.7-.5a.7.7 0 00-.2-.6.2.2 0 000-.1c0-.4-.6-.7-1-.9s-.7.3-.7.7.2.7.6.7zM95.5 26.1a2 2 0 002.1-1.8c0-.8-1-.8-1.3-.6s-.4.2-.9 0-1.2-.3-1.4.6a1.8 1.8 0 001.5 1.8zM91.2 26.9c-.3.1-.6.4-.6.7 0 .7.6.6.8.8a1.6 1.6 0 001.4.3 1.3 1.3 0 000 .1 1 1 0 00.5 1.2.9.9 0 001-.7.8.8 0 00-.5-1 1.3 1.3 0 00-.3 0 1.3 1.3 0 00-.3-1.6 1 1 0 00-.3-.2.8.8 0 00.1-.3l.2-1.6a.7.7 0 00-.4-1 1 1 0 00-1.2.4 2.2 2.2 0 01-.6.8 1.3 1.3 0 00-.6 1.4c0 .2.4.5.8.7zM75 26.2a.9.9 0 001.1-.5.7.7 0 00-.4-1 .8.8 0 00-1.2.4.8.8 0 00.5 1zM78.5 30.5c.6.1 1-.2 1.3-1a1 1 0 00-.5-1.3 1.9 1.9 0 00-1.8.8c-.2.7.2 1.2 1 1.5zM76.4 22.1a.9.9 0 001.2-.6 1 1 0 00-.7-1.1.9.9 0 00-1.2.7 1 1 0 00.7 1zM72.4 28.2c-.2.6.1 1.3.6 1.4a1.7 1.7 0 001.8-1c.1-.5-.3-1-.9-1.3a1.2 1.2 0 00-1.5.9zM84.1 19a.3.3 0 00-.2-.2s-.2 0-.2.2 0 .2.1.2a.3.3 0 00.3-.1zM79.8 26.5a.9.9 0 00.6-.5c.1-.2 0-.8-.2-1s-.7.4-.8.6a.6.6 0 00.4.9zM82.6 26.6a1.2 1.2 0 00.3.3 1.1 1.1 0 001.8-.9 7 7 0 00-.2-1.8 1.8 1.8 0 00-1.8-1c-.4 0-1.1.5-.8 1.2 1 .8.1 1.3.7 2.2zM43.7 34.5a1.2 1.2 0 001.2-.8c.1-.6-.5-1.7-1-1.8s-1.2.6-1.3 1.4.3 1.1 1.1 1.2zM82.4 31a1.2 1.2 0 001.5-1 1.4 1.4 0 00-.7-1.6 1.7 1.7 0 00-1.7 1 1.2 1.2 0 001 1.5zM80.7 31.6a1.2 1.2 0 00.6 1.5 1 1 0 001.3-.6 1.4 1.4 0 00-.9-1.4.8.8 0 00-1 .5zM38.3 128.7a.8.8 0 00.4 1 1 1 0 00.9 0c.5-.4.4-.9 0-1.5-.5 0-1-.1-1.3.5zM31.4 110.4a1 1 0 00-.9 1.1c0 .4-.2 1.3.4 1.6s.8-.2 1-.3c.8-.3 1.3-1.3.9-1.9a1.3 1.3 0 00-1.4-.5zM192.3 41a1.5 1.5 0 00.6-1.8 1.3 1.3 0 00-1.7 0 1.2 1.2 0 00-.1 1.6.8.8 0 001.2.3zM31.7 99.9c-.4-.3-.7-1-1.2-.7s-.3 1-.4 1.3l.2.2 1.3-.5zM33.6 121v.5a.7.7 0 00.6 0 .5.5 0 000-.7c-.2-.3-.5 0-.6.2zM26.9 91.3c-.2 0-.4.4-.3.6s.5.2.7 0 .2-.4.2-.5a.6.6 0 00-.6-.1zM42.1 29.3c.2 0 .6-.1.7-.3s-.4-.5-.5-.5a.8.8 0 00-.4.4l.2.4zM28.4 89.7l-.2.4a1.6 1.6 0 00.6.1c.1 0 .4-.3.3-.5s-.6-.1-.7 0zM33.2 116.5a.7.7 0 000 1.2.9.9 0 001.2-.1.8.8 0 000-1.2.9.9 0 00-1.2.1zM27.5 72.5a.9.9 0 000 .6h.4s.3-.4.2-.6-.5 0-.6 0zM43 145.2c-.2 0-.6.3-.5.5s.5.2.7.2.3-.2.2-.4a.6.6 0 00-.5-.3zM44.6 136.8a2.1 2.1 0 00-2.7-.6c-.6.4-.1 1.2.4 1.4s.3.2.4.7.5 1.2 1.3.8a1.8 1.8 0 00.6-2.3zM34.8 108.9a.9.9 0 00.2 1.1 1 1 0 001.3 0 1 1 0 00-.2-1.2 1 1 0 00-1.3 0zM46 141.3a1.3 1.3 0 001.6-.2.5.5 0 000-.2v-1a1.4 1.4 0 00-.3-.6c-.3-.3-.7-.7-1.2-.4l-1.4.8a.7.7 0 00-.7.9 1 1 0 001.1.7 2.6 2.6 0 011 0zM45.9 145.7c-.7.2-1 .9-.8 1.4a1.7 1.7 0 002 .8 1.2 1.2 0 00.4-1.5 1.2 1.2 0 00-1.6-.7zM45.3 150.3c-.2 0-.2.2-.2.3l.3.1.2-.3a.3.3 0 00-.3-.1zM101 35.4c.8.1 1.3-.1 1.4-.7l.6-.2c0-.5.2-1-.5-1.3a.9.9 0 00-.7 0 .9.9 0 00-.4-.2 1.6 1.6 0 00-1.5 1.2c-.1.5.5 1.1 1.1 1.2zM36.7 125.8c-.2.3-.3.7 0 1a1 1 0 001-.1v-.9c-.4-.4-.8-.2-1 0zM26 72.8c.4-.3 0-1.7-.4-1.9s-1.1 1-.9 1.4 1 .8 1.4.5zM43.8 124.6c-.3-.6-.8-.7-1.4-.4-1-1.3-2-1.1-2.6.5a1.8 1.8 0 01-.3 0c-.5-.1-.7.2-.9.6a.8.8 0 00.2 1c.7.6 1.1.6 1.8 0l1.5-1.6c1 1 1.1 1 1.7 0zM26 84.7c-.3 0-.7.4-1 .7l-.1.5c.4 0 1 .4 1.4 0s.2-1-.4-1.2zM26.3 51.5l.3-.2c-.1-.4.1-1.1-.4-1.3s-.9.5-1.2.7v.2zM36.6 33.6a.7.7 0 001-.4.8.8 0 00-.6-1 .7.7 0 00-.9.6.6.6 0 00.5.8zM37 36a.9.9 0 00.8 1 1 1 0 001-.6c.2-.5-.3-1.2-.6-1.2a1.2 1.2 0 00-1.2.8zM37 45.4a1.1 1.1 0 001.4-1 1.4 1.4 0 00-1.2-1.8 1.5 1.5 0 00-1.8 1c-.1.7.6 1.6 1.5 1.8zM36.6 40.7A1.4 1.4 0 0038 40c.1-.5-.5-1.1-1.2-1.3a.7.7 0 00-.8.6c-.2.6.1 1.4.6 1.4zM41 27.8c.5 0 1.2-1.3 1-1.7s-1.4-.2-1.6.4.2 1.2.7 1.3zM38 41.5a1.4 1.4 0 00.6 1.4c.4.1 1-.2 1.3-.6a.7.7 0 00-.5-1c-.6-.2-1.2-.1-1.3.2zM40.9 35.8c.6 0 1-.3 1.2-1a.9.9 0 00-.6-1.1 1.9 1.9 0 00-1.7.9c0 .6.3 1 1 1.1zM40.4 39.9l.5-.5a7.1 7.1 0 00.3-1.3c.1-.4 0-.6-.5-.6l-.3.2a1.8 1.8 0 01-.8 1 .9.9 0 000 .8 1 1 0 00.8.4zM34.4 56a1.6 1.6 0 002.3-.2c.8-1-.3-1.6.4-2s.8.4 1.8-.2 1-1.9.3-2.2-1.4 0-1.5 0-.6-1-1.2-.6c-1.2.8-.2 1.7-.5 2s-1.1.6-1.6 1a1.4 1.4 0 000 2.2zM28.7 58.8c-.2.6.2.9.7 1a1.2 1.2 0 00.7-1.3c-.8-.2-1.3-.1-1.4.3zM28.8 42.5c.1 0 .5 0 .5-.3a.6.6 0 00-.3-.5c-.2 0-.6 0-.7.3s.3.5.5.5zM28 51.4a1.5 1.5 0 00.4-.1c0-.1 0-.3-.2-.3s-.2.1-.3.2.1.2.2.2zM27.3 56l.5-.4c-.2-.2-.3-.4-.5-.4s-.4.2-.4.3l.4.5zM31 51.3c.5 0 1.2-.5 1.4-1.2a1 1 0 00-.8-1.3c-.7-.2-1.6.3-1.6.9a1.5 1.5 0 001 1.6zM32.2 37.5a.8.8 0 00.6-1.2c-.1-.2-.8-.1-1.1-.1-.2 0-.3.1-.5.3.3.3.5 1 1 1zM32 44.5a1.3 1.3 0 001 1.6c.7.2 1.4-.2 1.4-.8a1.8 1.8 0 00-1.3-1.8c-.4 0-1.1.5-1.2 1zM31.7 42l-.5-.4c-.1-.1-.3.2-.4.3l.3.4c.1.1.5 0 .6-.2zM30.3 80.5c-.2-.3-1-.6-1.3-.4a1.3 1.3 0 00-.3 1.5.9.9 0 001.2.2 1 1 0 00.4-1.3zM148.7 38.2a.8.8 0 00-1.1.6 1.1 1.1 0 000 .7 1 1 0 00.2 1.2 1.1 1.1 0 001.7 0 1.4 1.4 0 00.3-1.8 1.2 1.2 0 00-.7-.3 1 1 0 00-.4-.4zM150.3 37a1.6 1.6 0 00.1.5 1.1 1.1 0 002 .2 7 7 0 00.7-1.4.5.5 0 00.4.4c.4.1.8.2 1-.3s-.3-1.1-.6-1.1-.5.2-.6.5a1.8 1.8 0 00-.6-1.2 2 2 0 00.6-.6c.2-.2.1-1.2-.3-1.4s-1.1.6-1.2 1a.9.9 0 000 .5.8.8 0 00-1 .7 1.3 1.3 0 01-.3 1.5.6.6 0 00-.5.2.5.5 0 00.2.5zM148 34.5a.6.6 0 000 1 .9.9 0 00.8 0c.2-.2.5-.7.3-1s-.8 0-1 0zM152.2 31.5c.2-.1.5-.4.5-.6 0-.6-.7-.8-1-.7a.8.8 0 00-.2 1.1.7.7 0 00.7.2zM156.8 36.1a1.1 1.1 0 00.3-1.6 1.7 1.7 0 00-2.2 0 1.2 1.2 0 00.2 1.6 1.1 1.1 0 001.7 0zM155.7 31.6a.3.3 0 000-.3c0-.1-.3 0-.4 0s0 .2 0 .3a.3.3 0 00.3 0zM158 35a.8.8 0 001-.4.9.9 0 10-1.5-.8 1 1 0 00.5 1.2zM154.8 39.6a1 1 0 00.5 0c.3.1.8.4 1 .1s0-.8 0-1a.8.8 0 00-.3-.3 1 1 0 00-.6-.6.8.8 0 00-1 .5.9.9 0 00.4 1.3zM148.8 30.1a1 1 0 000-1.3.9.9 0 00-1.3 0 1 1 0 000 1.2.9.9 0 001.3.1zM146 40.4a1.2 1.2 0 00-.3 1.5 1.2 1.2 0 00.2.2h1.2a1.4 1.4 0 000-1.7.8.8 0 00-1.1 0zM142.4 38.3a1.6 1.6 0 000-1.9 1.5 1.5 0 00-1.7 0 1.1 1.1 0 00-.2 1.4c.6.7 1.5 1 1.9.5zM142.7 34.5a1 1 0 00-.1-1.4 1.2 1.2 0 00-1.8-.2 1.2 1.2 0 00-.2 1.6 1.7 1.7 0 002.1 0zM138.8 42h3.2a1.7 1.7 0 00-.3-1.5 1.8 1.8 0 00-2.3-.2 2 2 0 00-.6 1.8zM137.8 31.4a.9.9 0 00-.1 1.4 1 1 0 001.2 0 1 1 0 000-1.3.8.8 0 00-1.1 0zM143.6 30.1a.9.9 0 10-1.1-1.4 1 1 0 000 1.3.8.8 0 001 .1zM138.7 29.8c.3-.2.2-1.1 0-1.3s-.6 0-1 .3a.5.5 0 000 .8c.3.3.6.5 1 .2zM145.8 28.1s.3-.5.1-.7-.5 0-.7.1a.4.4 0 000 .5.6.6 0 00.6.1zM101.3 31.9a.2.2 0 00.2 0 1.2 1.2 0 00.4.2 1.9 1.9 0 002-1.2 1.7 1.7 0 000-.6 2.1 2.1 0 002.2-1.4 1.7 1.7 0 00-1.3-1.8 1.6 1.6 0 00-1.8 1.2 2.5 2.5 0 000 .6 2.4 2.4 0 00-2.4 1.2 1.4 1.4 0 00.4 1.3c0 .2.2.5.3.5zM159.8 35.4s.3-.5.2-.7-.6 0-.7.1a.3.3 0 000 .5.6.6 0 00.5 0zM147 36.6a.3.3 0 00-.2-.3l-.2.2v.3a.3.3 0 00.4-.2zM175.4 32.5a.6.6 0 00.5-.1v-.7c-.2 0-.6.2-.7.4s0 .4.2.4zM175.5 40.3a.7.7 0 00.2-.6c0-.2-.5-.2-.6-.1s-.4.5-.3.6.6.2.7 0zM173.3 37c-.2.4-.1 1 .2 1.1s1 .1 1.2-.3-.3-.7-.5-.9a.6.6 0 00-1 .2zM177.4 39.6c.5 0 1 0 1.2-.7a7.3 7.3 0 01.1-.8 1.2 1.2 0 001.2.2 2.1 2.1 0 001.1 1 .7.7 0 00.3 0 2 2 0 00.2.4l1 2a4.2 4.2 0 00-.6.4h1.1a2.7 2.7 0 00.8-.5.7.7 0 00.4.2c.4.2.5 0 .6-.4a.6.6 0 00-.4-.8.9.9 0 00-.2 0 2.7 2.7 0 00-.9-1.1 1.9 1.9 0 010-.4.7.7 0 00-.2-.9 1.3 1.3 0 00.3-.6.6.6 0 00-.4-.6.6.6 0 000-.8c-.1-.3-.5-.6-.8-.3a1 1 0 00-.2 1v.1c-.5.2-.3.1-.8-.2a1 1 0 00-1.3.1.8.8 0 00-.9 0 .8.8 0 00-.3-.5 1 1 0 00-1.3.3 2.3 2.3 0 01-.7.7 1.3 1.3 0 00-.8 1.3c.1.3 1 1 1.5 1zM159.6 32a.6.6 0 00.6-.1c0-.1 0-.6-.2-.7s-.5.2-.6.4a.4.4 0 00.2.4zM186.2 38c.1-.1.4-.4.2-.6a.6.6 0 00-.6 0c-.1 0-.4.4-.2.6a.6.6 0 00.6 0zM172 35a1.2 1.2 0 001.6-.7 1.1 1.1 0 00-.5-1.6 1.7 1.7 0 00-2 1c-.1.4.3 1.1.9 1.3zM188.7 38.5a.5.5 0 000-.6.5.5 0 00-.7-.2.5.5 0 00-.1.8.5.5 0 00.8 0zM190 42a1.6 1.6 0 00-.3-.7 1.8 1.8 0 00-2.1-.2 1.2 1.2 0 00-.5 1zM188.6 35.3c.4-.1.1-.5 0-.7s-.4-.2-.4 0a.7.7 0 00-.2.4.5.5 0 00.6.3zM162.8 39.8c-.3.7 0 1.3.8 1.6.6.2 1.1 0 1.4-.8a1 1 0 00-.3-1.3 1.9 1.9 0 00-1.9.5zM170.6 30.8c0-.2-.1-.3-.2-.3l-.2.1v.3a.3.3 0 00.4-.1zM160.7 36.7a.9.9 0 001.1-.4.7.7 0 00-.3-1 .8.8 0 00-1.2.4.8.8 0 00.3 1zM159.4 37.7a1.2 1.2 0 00-1.6.7c-.2.6 0 1.3.4 1.5a1.7 1.7 0 002-.9 1 1 0 00-.8-1.3zM162.6 32.8a.9.9 0 001.2-.4 1 1 0 00-.6-1.2.9.9 0 00-1.2.5 1 1 0 00.6 1.1zM168.1 38a1.6 1.6 0 00.3.4 1.1 1.1 0 002-.7 7 7 0 000-1.8 1.8 1.8 0 00-1.7-1.3c-.4 0-1.2.3-1 1.1 1 1 0 1.4.4 2.3zM166.7 32.3a.8.8 0 00.7-.1 1 1 0 00.2-.8.8.8 0 00-1.2-.2.8.8 0 00.3 1.1zM165.4 37.6a.9.9 0 00.7-.4c0-.2.1-.8-.1-1s-.8.3-1 .4 0 1 .4 1zM145.3 32.9a.7.7 0 00.2-1.1.8.8 0 00-1.2-.2.9.9 0 00-.2 1 .9.9 0 001.2.3zM116.7 33a1 1 0 00.3-.7v-.7c0-.2-.6-.2-.8.2a1.3 1.3 0 000 1 .4.4 0 00.5.2zM117.5 22.7c.2 0 .7-.1.7-.3s-.2-.6-.4-.6-.8 0-.9.3.4.6.6.6zM113.3 37.1a1.6 1.6 0 002 .5c.5-.3.5-1.3.2-2.1a1.6 1.6 0 00-2-.6 1.6 1.6 0 00-.2 2.2zM114.5 32.8c0-.6-.2-1-.8-1a.8.8 0 00-.5.4 1 1 0 00.1.8c.5.4.8 0 1.2-.2zM118.8 36.7a1.4 1.4 0 001 1.3.7.7 0 00.4 0 1.9 1.9 0 00.3 1.2 1.4 1.4 0 001.7.3 1 1 0 000 .3.9.9 0 001 .6 1 1 0 001-.8c0-.6-.4-.9-.9-1.1a1.4 1.4 0 00-.2-1.5 1.8 1.8 0 00-2-.4.8.8 0 00-.8-.7c-1-.1-1.4.2-1.5.8zM114.4 25a.5.5 0 00.6-.3c.1-.3-.3-.4-.5-.4s-.4.1-.4.2a.7.7 0 00.3.5zM119 33a2.5 2.5 0 01-.8.1 1.3 1.3 0 00-1.4.8c-.3.7 0 1.1 1 1.3l1-.3v.4a.6.6 0 00.5.1.5.5 0 00.2-.6l.1-.1a.8.8 0 00.5-1 .8.8 0 00-1.1-.7zM117.8 30a.7.7 0 00.5 1 .8.8 0 00.5-.2c-.1.2-.3.7-.2.8s.8.1.9 0 .3-.6.2-.8-.5-.2-.7 0a1 1 0 00.2-.4c.1-.4-.5-1.1-.8-1a1 1 0 00-.6.6zM119 26.5c.4 0 .7-.4.8-.9s-.1-.6-.5-.6-.8 0-.9.5a1 1 0 00.6 1zM104.7 24.8a1.5 1.5 0 001.4-1.3c0-.7-.5-1.2-1.3-1.3a1.2 1.2 0 00-1.4 1.1 1.4 1.4 0 001.3 1.5zM104.9 35.7a1.5 1.5 0 00-1.7 1 1.7 1.7 0 000 1 1.4 1.4 0 00-.8.4 2.2 2.2 0 00.3 3.2.8.8 0 01.3.8h1.7a1.4 1.4 0 01.2-.7 2.6 2.6 0 01.1-.2 1.4 1.4 0 001.1.3c.7 0 .7-1 .5-1.3s-.6 0-1 0l.5-.6c1.7.3 2.2 0 2.1-1.6a1.2 1.2 0 00-1.6-1.1 3.2 3.2 0 00-.6.3 1.8 1.8 0 00-1.1-1.5zM107.3 25.9a1.5 1.5 0 001.5-1 1 1 0 00-.7-1.1 1.3 1.3 0 00-1.4 1 .9.9 0 00.6 1zM107.3 33.5c-.3 0-.4.6-.3.8a.7.7 0 00.6.2.7.7 0 00.3-.6.8.8 0 00-.6-.4zM121 32.6c.4 0 .7-.2.7-.6s-.1-.6-.4-.7-1 .3-1 .8.3.5.6.5zM107.4 30.5a1 1 0 00-.1 1.1c.1.2.3.3.5.3l1.3-.3c.9.5 1.7.6 2 0a1.8 1.8 0 00-.4-2c-.6-.4-1-.3-1.9 1-.5-.4-1-.8-1.4-.1zM109.8 37a.8.8 0 000 .3c-.2 0-.5.3-.5.4s0 .4.2.4a.6.6 0 00.5-.2 1.4 1.4 0 00.8.6 1.1 1.1 0 001.2-.7c.2-.9-.1-1.6-.7-1.8a1.5 1.5 0 00-1.5 1zM110.5 41.9l-.1.2h4.5a.9.9 0 00-.2-.6.7.7 0 00.6 0 1.5 1.5 0 00.3-1.9 1 1 0 00-1.4-.2 1.2 1.2 0 00-.2 1.6 2.5 2.5 0 00-1.6-.4 1.2 1.2 0 00-1.5.4 1.4 1.4 0 00-.5.9zM110.8 22.9l.2-.3-.2-.2s-.2 0-.3.2a.3.3 0 00.3.3zM113.9 30.2a1.4 1.4 0 001.7-1.2 1.8 1.8 0 00-1.4-2 1.9 1.9 0 00-1.9 1.5c-.1.8.5 1.5 1.6 1.7zM121.6 34.3a1 1 0 00.9 1 1.2 1.2 0 001.3-.9 1.6 1.6 0 00-1-1.5.7.7 0 00.5-.1c.3-.2.2-.8-.2-1.1a.5.5 0 00-.7 0c-.3.2-.5.6-.2 1a.9.9 0 00.5.2c-.4 0-1 .7-1.1 1.4zM132.7 30.1a.9.9 0 000-1.2.8.8 0 00-1.2 0c-.5.4-.6.9-.3 1.1a1.4 1.4 0 001.5.1zM130.7 35.4c0 .4 0 .8.5.9a.7.7 0 00.5-.2 1 1 0 00.6-.3 1.2 1.2 0 00.2-1.6 1.6 1.6 0 00-1.8-.2c-.3.3-.2.9 0 1.4zM131.9 26.7a.3.3 0 000-.3h-.4a.2.2 0 10.4.3zM129.4 32.4a.4.4 0 00.1.1c0 .2.1.4.3.4a.6.6 0 00.5-.4.6.6 0 00-.2-.5s-.5-.3-.6-.2a.6.6 0 000 .6zM132.3 33.6c0 .4.5.8 1 1s1.1-.3 1.2-.7a.4.4 0 000-.2 1.1 1.1 0 00.6-.5c.3-.6-.3-.8-.7-1.2-.5.3-.9.6-.9 1a1.4 1.4 0 00-.2 0 1 1 0 00-1 .6zM137.8 36.9a.8.8 0 000-1.2c-.4-.3-.8-.6-1-.3-.6.5-.7 1-.4 1.4a1 1 0 001.4 0zM135.7 38.9a.9.9 0 001-.3 1 1 0 000-1.3c-.5-.4-1-.2-1.6 0-.1 1 0 1.4.6 1.6zM135.2 28.7a.6.6 0 000-.7.6.6 0 00-.5 0 .5.5 0 00-.1.5c0 .1.4.4.6.2zM129 28.8a.3.3 0 00.1.3c.2 0 .3-.1.3-.2l-.2-.2-.3.1zM129.3 35.3a.6.6 0 000-1c-.3-.2-.6-.3-.8-.2s-.4 1 0 1.2.5.2.8 0z"/><path class="cls-1" d="M124.8 40a.7.7 0 00-.8.2.7.7 0 000 .7 1 1 0 00.6.5c.7-.1.6-.6.6-1a2 2 0 00-.2-.2 1.4 1.4 0 00.2 0 .8.8 0 00.9-.8V39a.7.7 0 00.2.2.4.4 0 00.6-.4 1 1 0 00-.4-.6c-.2-.2-.3-.4-.6-.5s-.5.4-.3.7c-.7 0-1.2.3-1.3.7a1 1 0 00.5 1zM125.2 34.7a.7.7 0 000 .4 1 1 0 000 .9.7.7 0 001.1.1.7.7 0 00.3-.5c.4-.3.2-.7.2-1.2-.7-.2-1.3-.3-1.6.3zM128.9 28.3c.1 0 .3-.5.2-.6s-.6 0-.7 0a.5.5 0 000 .5.7.7 0 00.5.1zM138.6 27.1c.3-.1.6-1 .4-1.4s-1.3.1-1.6.3a1 1 0 000 1.2c.2.3 1 .1 1.2 0zM123.2 30.9c0 .1 0 .6.3.6s.4-.3.5-.4 0-.6-.3-.6a.6.6 0 00-.5.4zM122.4 27.5a.9.9 0 001-.8.7.7 0 00-.7-.9.9.9 0 00-1 .7.9.9 0 00.7 1zM126 27.9l.6-.3-.5-.5c-.2-.1-.4.2-.4.3a.7.7 0 00.3.5zM126.2 30.9a1.5 1.5 0 00.9 1 .9.9 0 001-.8.8.8 0 00-1-1 1.2 1.2 0 00-.6.1 1 1 0 00-.2-.6.7.7 0 00-1-.1.8.8 0 00-.2 1.2.9.9 0 001.1.2z"/><path class="cls-2" d="M196.8 33c7.4 1.1 15 1 22.5 1.1 6.1 0 15 1.7 20.7-.8a1 1 0 000-1.8c-5.8-2.5-14.6-.8-20.7-.7-7.5 0-15 0-22.5 1.3a.5.5 0 000 .9zM94.9 34.5q21.3.4 42.5.2l25.9-.3c7.6 0 16 1 23.4-.8a.9.9 0 000-1.7c-7.4-1.6-15.8-.4-23.4-.3l-25.9.4c-14.2.3-28.3.7-42.5 1.8a.4.4 0 000 .7zM112.1 48c17.4.6 34.8.8 52.2.8l27.9.1c10.4 0 21.6 1.3 31.9-.6a.9.9 0 000-1.6c-10-1.8-21-.6-31-.6l-28.8.1c-17.4 0-34.8.3-52.2 1a.4.4 0 000 .8zM3.4 182.8a187.6 187.6 0 0019.8.5c4.2 0 8.4 0 12.7-.2 1.3 0 3.7.1 4.6-1a.9.9 0 000-1.2c-1-1.1-3.3-.8-4.6-.8-4.4 0-8.8.3-13.2.5A182.3 182.3 0 003.3 182c-.5 0-.3.7 0 .7zM14.7 194.1a176.2 176.2 0 0019.3 1l12 .2c1.4 0 3.9.3 4.9-.8a.9.9 0 000-1.3c-1-1-3.6-.8-4.9-.8H34a176.2 176.2 0 00-19.3 1 .4.4 0 000 .7z"/><circle class="cls-3" cx="29.8" cy="65.5" r="6.6"/><path class="cls-4" d="M100.5 61.5h3.2v134.1h-3.2zM133.8 61.5h3.2v134.1h-3.2zM167.1 61.5h3.2v134.1h-3.2zM200.8 61.5h3.2v134.1h-3.2z"/><path class="cls-1" d="M54.9 139.6h12.9v7.6H54.9zM54.9 107.2h12.9v7.6H54.9zM54.9 74.9h12.9v7.6H54.9z"/><path class="cls-4" d="M223.4 59.9H67.7v118.7a18.9 18.9 0 013.2 1.5v-117h154.9a17.7 17.7 0 01-2.4-3.2zM231.7 67.3v126.8h-152v1.3a17.7 17.7 0 01-4.7 12h159.9v-139a17.5 17.5 0 01-3.2-1z"/><g id="Generic-BlueBG-3"><path class="cls-5" d="M58.2 201.3a9.8 9.8 0 1114 0 9.8 9.8 0 01-14 0zm-5.3 5.3a17.3 17.3 0 100-24.5 17.3 17.3 0 000 24.5z"/><path class="cls-6" d="M72.1 201.3a9.8 9.8 0 00.2-13.7l-.2-.2 5.3-5.3a17.3 17.3 0 01.2 24.3l-.2.2z"/></g><path class="cls-7" d="M233.3 154c-20.9 0-23.3-63.1-41.5-63.1s-17.3 51.3-37 51.3-25.3-75-47.8-75-25.4 49.1-37.5 49.1v56c12 0 15-17.2 37.5-17.2s28 31.2 47.7 31.2 18.9-39.4 37-39.4 20.7 42.4 41.6 42.4z"/><path class="cls-8" d="M99.3 147.1a1 1 0 001.2 0 1 1 0 000-1.4.8.8 0 00-.8-.1 1.2 1.2 0 00.5-1.6 1.5 1.5 0 00-1.8-.6c-.4.2-.5 1.5-.2 2a1.2 1.2 0 001.2.3.8.8 0 00-.2.2.9.9 0 000 1.2zM98 156a1 1 0 00-.5-1 1.3 1.3 0 000-.7 5.2 5.2 0 002 0 .4.4 0 000 .2 1.5 1.5 0 001.6.1 1.3 1.3 0 000-1.2.9.9 0 00-.2-.3 1 1 0 00-1-1.1 6.7 6.7 0 00-1.9-.1 1.7 1.7 0 00-1.3 1.6.9.9 0 000 .1h-.3c-.3 0-.7-.2-1 .1a1.1 1.1 0 000 1.7 1 1 0 00.3.1.9.9 0 00-1 .4 1.8 1.8 0 000 1.3 31.5 31.5 0 013.3-1 .9.9 0 000-.3zm-1.7-.2a2.3 2.3 0 00-.3-.2 1.5 1.5 0 00.4 0 .6.6 0 000 .2zM104 143.1a2.3 2.3 0 00-1.8-.6 1.2 1.2 0 00-.2 1.8.8.8 0 00.7.4c.2.3.5.4 1.2.4.2-.4.6-.8.2-1.3a.7.7 0 000-.7zM91.1 155.7a1.5 1.5 0 001.6.2 1.4 1.4 0 001.1-2c-.4-1.1-1.3-1.5-2-1.3a1.4 1.4 0 00-.3.3 1.5 1.5 0 00-.9.5 1.8 1.8 0 00.5 2.3zM91.7 149.7a.7.7 0 00-.1-1.1c-.7-.6-1.5-.6-1.8-.1a.7.7 0 00-.7-.6 1 1 0 00-.8.2c-.4.6-.1 1 .3 1.5a1.3 1.3 0 001-.5 1.4 1.4 0 00.3 1 1.6 1.6 0 001.8-.4zM75 146a1.3 1.3 0 00-.5 1.5 1.3 1.3 0 001.6 0 1 1 0 00-1-1.5zM131.4 156.7a.9.9 0 001.2.2.7.7 0 00.4-1 .8.8 0 00-1.2-.3.9.9 0 00-.4 1zM101 148.7a.7.7 0 00-.4 1 1.6 1.6 0 00.8.5.8.8 0 00-.3 1 .9.9 0 001.5 0c.4-.4.8-.2 1.3-.2v.4a1 1 0 00-.5.2c-.3.3.2 1 .8 1.1a.6.6 0 00.6 0 1.8 1.8 0 00.8-.1l.3-.1a.9.9 0 00.5-1.5c-.3-.6-.6-1.1-1.7-.9l.2-.3a1 1 0 00.5-.4 2 2 0 00-.2-2.5 1.5 1.5 0 00-2 .3 2 2 0 00-.2.4c-.7.2-1 .8-1 2a.8.8 0 000 .1 2.3 2.3 0 00-.2-.7.6.6 0 00-.8-.3zM132.6 150.2c.2 0 .3-.5.3-.7s-.7-.6-.9-.5-.2.8-.1.9.5.4.7.3zM126.6 159a.6.6 0 001 .1 1.4 1.4 0 002-.8 1.7 1.7 0 00-.6-2.3 2 2 0 00-2.3 1 1.5 1.5 0 000 1c-.4.4-.3.7-.1 1zM112.3 155.7a.5.5 0 00.2-.4.8.8 0 00.4-.5c0-.4-.3-1.2-.7-1.2a1.3 1.3 0 00-1.1.8.8.8 0 00-.2 1c.5 0 1 .2 1.3.3zM125.3 156.7a.3.3 0 00.5-.2c0-.3 0-.4-.2-.5s-.4 0-.5.2a.3.3 0 00.2.5zM124.4 157.2a1.3 1.3 0 00-1.5-.6.7.7 0 00-.6.8.6.6 0 00-.3 0c-.1 0-.4.3-.3.5a.5.5 0 00.5.3.6.6 0 00.3-.2 1.6 1.6 0 000 .1l1.2.8a1.2 1.2 0 00-.1 1 1.4 1.4 0 001.6.8 1.3 1.3 0 00.7-.6 1.6 1.6 0 00-.6-2 .8.8 0 00-.3-.3 3.2 3.2 0 01-.6-.6zM70.3 142.3c.3-1.4.1-2-.8-2.5v3.3a1 1 0 00.8-.8zM130.4 152.4a1 1 0 00-.4 1.1c.2.3.8.3 1.2 0a.5.5 0 00.1-.7c-.2-.4-.5-.6-1-.4zM74.6 139a1.5 1.5 0 001-1.6c-.2-.5-1.4-.8-2-.6a1.2 1.2 0 00-.5 1.3v.2a1.5 1.5 0 01-1.2-.8 1.4 1.4 0 00-1.6-.2 1.8 1.8 0 00-.2 1.9c.2.3.5.8 1 .6a2 2 0 011.7.1.7.7 0 001-.4 1 1 0 000-.5 1 1 0 00.8 0zM71.5 124.8a.6.6 0 00-.2-.7.4.4 0 00-.5.6c.1.1.5.3.7.1zM75.9 128.2a1 1 0 00-.3-1.3.8.8 0 00-1 .1.9.9 0 000 1.4 1 1 0 001.3-.2z"/><path class="cls-8" d="M73.7 148c.3-.2.7-.5.7-.8a.7.7 0 00-.3-.7 2.5 2.5 0 00.8-1.7 1.8 1.8 0 00-.2-1.2 1.5 1.5 0 00-.6-.6.8.8 0 00.4 0 1.8 1.8 0 00.7-.7 1.3 1.3 0 001.3-.3 1.6 1.6 0 00.5.7 1.6 1.6 0 00.7 1.2 1.4 1.4 0 002-.4c.7-.9.7-1.8 0-2.3a.6.6 0 00-.2-.1.3.3 0 000-.1c-.3-.8-1.2-1.1-2.1-.8a2.4 2.4 0 00-.3.2 1.4 1.4 0 00-.5-.9 1.6 1.6 0 00-2.3.5 1.2 1.2 0 00-.3.6h-.2c-.6.2-.8.8-.5 1.6a1.3 1.3 0 00.5.6 3.2 3.2 0 00-.5-.1c-.6-.1-1-.7-1.6-.5a2.6 2.6 0 00-2.1 2.3 2.4 2.4 0 00.3 1.5h-.2a1.2 1.2 0 00-.2 0v1.5a.9.9 0 00.5.2 1 1 0 001.1-1 1 1 0 000-.1 3.3 3.3 0 011.3 0h.4a.8.8 0 000 1c.2.4.5.6 1 .4zM70.8 129.7a.8.8 0 00.7.3 1.3 1.3 0 00.7-.7c.2-.7-.4-.8-1-1-.4.4-.8.8-.4 1.4zM84.3 159.2a1 1 0 00-.3 1.3c.6.7 1.2 1 1.7.6a1.2 1.2 0 10-1.4-1.9zM77 159.4c0 .3.4.3.4.2a.8.8 0 00.4-.4l-.4-.3c-.1 0-.5.2-.5.5zM69.8 138.7a.8.8 0 00-.3-.4v1a.5.5 0 00.3-.6zM72.8 155.6a2.3 2.3 0 00-.2-1.3.4.4 0 000-.6c0-.2-.5-.8-.8-.7s-.3.5-.3.8a.9.9 0 00-.7.6 1.4 1.4 0 000 1.2c.6.7 1.3.4 2 0zM69.5 134v2.5a1.6 1.6 0 002-.1c.5-.5.2-1.5-.4-2.1a1.6 1.6 0 00-1.6-.3zM69.5 130.6v2.1a1 1 0 00.5-.3 1.2 1.2 0 00-.1-1.6 1.4 1.4 0 00-.4-.2zM75.8 135a.8.8 0 00-1.1.2c-.5.7-.6 1.2-.2 1.5a1.4 1.4 0 001.7-.3 1.3 1.3 0 00-.4-1.5zM139.7 171.2c.5.3 1 .1 1.3-.8a16.2 16.2 0 00-.3-1.9.8.8 0 00-1-.5.8.8 0 00-.7.9 2.9 2.9 0 010 .8 1.3 1.3 0 00.7 1.5zM72.1 130.5a1.8 1.8 0 00-.1 2.6c.4.5.3 1.1.8 1.4a2.6 2.6 0 003.2-.3 2.1 2.1 0 00.7-2c0-.6-1-.8-1.4-1.4-1-1.6-2.3-1.1-3.2-.3zM138.4 166c-.3 0-.7 0-.8.3s.2 1 .7 1.1.5-.2.6-.5-.1-.8-.5-.8zM137.8 163.7c-.2 0-.6 0-.7.2a.6.6 0 00.3.5c.2 0 .7 0 .7-.2s-.2-.5-.3-.5zM98.3 156h.5a.8.8 0 00-.5 0zM146.5 184.2a1 1 0 00.2-.6c.2-1 0-1.4-.7-1.5a1.4 1.4 0 00-1.3 1 23 23 0 002.4 1.4.8.8 0 00-.6-.3zM136.6 168.5a1 1 0 00-.2-.2c-.4-.2-1.2.3-1.1.7a1 1 0 00.5.7.7.7 0 001-.5 1 1 0 000-.1.8.8 0 00.4.2.8.8 0 00.9-.7.6.6 0 00-.6-.7c-.4 0-.9.3-.9.6zM145.8 181.4a.8.8 0 001-.6c.2-.6-.4-1-.7-1.1s-1 .5-1 1.1a1 1 0 00.7.6zM144.2 179.8c-.3-.2-.8-.5-1.2-.1a2 2 0 01-1.6.6.8.8 0 00-.4.1 30.2 30.2 0 003.4 2.6l-.5-.4.1-.5a1.2 1.2 0 00.9-.6 1.8 1.8 0 00-.7-1.7zM138 170.1a1.4 1.4 0 00-.8.6.7.7 0 000 .4c0 .5.5.6 1 1 .5-.4 1-.8.7-1.5a.7.7 0 00-.9-.5zM134.4 163.9c.3 0 .8-.5.9-1a1 1 0 00-.8-1 1 1 0 00-1.1.8c0 .4.6 1.1 1 1.2zM132.3 164.2a.9.9 0 00.6 1.1.9.9 0 001-.5.9.9 0 00-.6-1 .7.7 0 00-1 .4zM133.7 159.2a.7.7 0 00-.2.5c0 .1.5.4.6.3v-.7c0-.2-.3-.2-.4-.1zM137.2 156.8c-.2-.7-1.2-.9-2-.7a1.6 1.6 0 00-1 1.8 1.6 1.6 0 002.1.7 1.6 1.6 0 00.8-1.8zM136.3 165.3c-.8-.4-1.3.2-1.7.8.3.7.5 1.3 1.3 1.3a1 1 0 001-1 1.4 1.4 0 00-.6-1zM140.3 173.3c-.5.2-.9.6-1.4.7l-.4.1a1.3 1.3 0 00-.3-.8h-.2a.6.6 0 00-1 .1 1.3 1.3 0 00-.2 1 .7.7 0 00.6.5 2.5 2.5 0 000 2 1.3 1.3 0 000 .2l.9.8a2 2 0 001.4.1h1.4a1.5 1.5 0 00.7.6 1.3 1.3 0 001.5-.8 1.1 1.1 0 00-.5-1.3 2 2 0 00-.5 0 2.5 2.5 0 000-1.5 1.6 1.6 0 00.7-1.8c-.2-.6-1.2-.8-2-.5a1.3 1.3 0 00-.7.6zM134 161c0 .2.2.5.3.5a.7.7 0 00.5-.2c0-.2 0-.7-.2-.7s-.5.3-.5.5zM150.5 160.7a.8.8 0 00-.6.1 1.6 1.6 0 00-.8.9 1.1 1.1 0 00.6 1.2c.9.3 1.7 0 1.8-.5a1.4 1.4 0 00-.3-1.2.8.8 0 00-.7-.5zM149.2 169.3c0-.5.2-1-.4-1.2a1 1 0 00-.8.3.8.8 0 000 .7c.2.5.7.5 1.2.2zM147.5 168a1.4 1.4 0 001.5-.8c0-.4-.4-1.1-1-1.2s-.8.1-.9.6c-.2.8-.1 1.3.4 1.5zM148.9 157.9a.8.8 0 00-.2 0 1 1 0 00-.5-.1.8.8 0 00-.9 1c0 .6.2 1.3.6 1.4a1.7 1.7 0 001.9-1.2c0-.4-.4-1-1-1.1zM153.8 162.3a.7.7 0 00-.6-.9 1 1 0 00-1 .7 1 1 0 00.6 1 .9.9 0 001-.8zM141.8 172.2c.4.1 1-.5.8-1.2a1 1 0 00-.6-.5.8.8 0 00-1 .6c-.1.6.5 1 .8 1.1zM150.6 165a1.6 1.6 0 00-1.1-1.7c-.5 0-1.2.5-1.3 1.1-.1.9 0 1.3.7 1.5a1.5 1.5 0 001.2-.3 1.8 1.8 0 001 2.2 2.4 2.4 0 002.2-1.3 1.4 1.4 0 00-.2-1.2 1 1 0 00.2-.2.4.4 0 00-.5-.6 3.1 3.1 0 00-.6.1 1.9 1.9 0 00-1.6.4z"/><path class="cls-8" d="M132 170.3a1.4 1.4 0 01.1.7l3 3.4a2.4 2.4 0 00.5-.8 1.4 1.4 0 00-.3-1.4 3.1 3.1 0 000-3.1 1 1 0 00-.9-.3 1.5 1.5 0 000-.3 1 1 0 00-1-.3 2.5 2.5 0 00-.5-1.7 2.5 2.5 0 00-3 0 3.5 3.5 0 00-.8 1l2.4 2.7h.6zM132.8 166a.6.6 0 00.1-.5.6.6 0 00-.5-.2c-.1 0-.5.4-.3.6a.6.6 0 00.7.1zM103.6 154.4a1 1 0 00-.8.9l2.2-.2a.8.8 0 000-.8c-.3-.3-1-.2-1.4.1zM122 160a1 1 0 00-.2.4l1.7 1.4a.8.8 0 00.2-1.2c-.6-.8-1-1-1.6-.6zM147 174.1a1.6 1.6 0 00-1-1 1.3 1.3 0 00-1.3.8 1.1 1.1 0 00.6 1.3 2.3 2.3 0 00.6 0 2.4 2.4 0 00-.2 1.6 1.6 1.6 0 00-.4 1.7c.2.6 1.2.6 2 .3a.9.9 0 00.3 0c.5-.2 1-.7 1.5-.7a2.3 2.3 0 00.4 0 .8.8 0 00.3.7.7.7 0 001 0 1.4 1.4 0 00.4-1 1 1 0 00-.1-.3.8.8 0 000-.3.8.8 0 00-.2-.5 3.1 3.1 0 00-.1-1.3 1.9 1.9 0 00-.7-1 2 2 0 00-1.6-.3c-.4.1-1-.2-1.4 0zM102.6 152.8c.1-.2 0-.5-.1-.6s-.5-.3-.7 0 0 .6.2.6.4.2.6 0zM132 161a1 1 0 00-.2-1c-.3-.4-.4-.7-1-.8a1 1 0 00-.8.6.2.2 0 000-.1.6.6 0 00-.6-.2c-.1.1-.4.5-.3.7a.6.6 0 00.6 0 1.9 1.9 0 00.2-.2 1.1 1.1 0 000 .5 1.6 1.6 0 00.3.8 1 1 0 000 1.3 1 1 0 00.8.2.6.6 0 00.1.4.9.9 0 001.3.1.8.8 0 00.1-1.2c-.3-.5-.7-.6-1-.4a1.3 1.3 0 00.6-.6zM150.1 149c.4.1.5-.3.6-.5s-.2-.4-.3-.4a.7.7 0 00-.5.3.5.5 0 00.2.6zM119.5 137c.3 0 .2-.5.1-.5a.8.8 0 00-.5-.2l-.2.4c0 .1.3.5.6.4zM110.6 142.7a2.9 2.9 0 001 0c.4-.1.5-.8.2-1.3a.8.8 0 00-1.2-.1 1 1 0 000 1.4zM118.3 142.5a1.7 1.7 0 00-.9 2 2.2 2.2 0 001.5.8 4 4 0 00.4.4c0 .5 0 1 .2 1.5a.9.9 0 00-1 .7.7.7 0 00.1.5 9.4 9.4 0 001.2.7c0 1.1.6 1.8 1.2 1.7a1.8 1.8 0 001.3-1.7c0-.7-.4-.9-2-.8v-.6a.5.5 0 00.3-.2c.2-.5.7-1 .5-1.8l-.7-.5a2.8 2.8 0 000-.5 1.6 1.6 0 00-2.1-2.2zM107.6 153c.3.3.7.2 1 0a2.3 2.3 0 01.9-.6 12 12 0 011.3-.3.8.8 0 00.5 0h.4c.7 1.4 1.3 1.7 2.2 1-.1.6.3 1 1 1.1a1 1 0 00.5 0 1.3 1.3 0 00.1.8 1.1 1.1 0 001.3.4c.8-.4 1.2-1.1 1-1.6a1.4 1.4 0 00-1.7-.5.9.9 0 00-.6-1.2 1.7 1.7 0 00-1 .3 1.2 1.2 0 00-.5-1.7 10.2 10.2 0 00-2-.6c-.3-.7-.6-1.6-1.6-1.8a2.2 2.2 0 00-2.3 2.3c0 .6-.2.7-.5 1a1 1 0 000 1.3zM108.2 147.1a.7.7 0 001 .3 1 1 0 00.6-1 1 1 0 00-1.3-.8.5.5 0 00-.2.1c-.3 0-.5.5-.5.7s0 .2.2.3a1.3 1.3 0 00.2.4zM112.2 137.5a1 1 0 00-.4 1.2 1 1 0 001.2.3 1.1 1.1 0 00.4-1.2.8.8 0 00-1.2-.3zM111.8 143.9a1.3 1.3 0 00-.2 1.6c.4.8 1 1 1.5.6a1.5 1.5 0 00.5-1.8 1.6 1.6 0 00-1.8-.4zM112.4 132.8c-.4-.1-1.2-.6-1.6-.2s0 .8 0 1.1c0 .8.8 1.6 1.4 1.4a1.3 1.3 0 001-1.1 1 1 0 00-.8-1.2zM143.5 153.6a1.3 1.3 0 001 1.7 1.7 1.7 0 002-1.4 1.8 1.8 0 00-1.3-1.7c-.8-.2-1.5.4-1.7 1.4zM142 144.7c.6-.3 1-.4 1-1a.8.8 0 00-.8-.8 1 1 0 00-.7.4c-.3.6 0 1 .6 1.4zM145.7 145.5c.1-.3 0-.7-.4-.7s-.7.2-.8.4.2.6.3.8c.6.2.9-.1 1-.5zM127.8 144.9v-.3s-.2-.2-.3-.1a.3.3 0 000 .3c0 .2.2.1.3 0zM140 149.7c.5.4 1 .3 1.4-.2 1.4.7 2.2.1 2-1.6a2 2 0 01.4-.2c.4-.1.5-.4.5-.9a.8.8 0 00-.7-.7c-.8-.4-1.2-.2-1.5.7l-.7 2c-1.3-.3-1.4-.2-1.5.9zM126.6 146a.8.8 0 001 .8.8.8 0 00.2-1c-.2-.4-.5-.3-1.2.3zM92 126.7c-.4.4-.1 1.2.4 1.6a1.1 1.1 0 001.7-.4 1.1 1.1 0 000-1.6 1.7 1.7 0 00-2.2.4zM72.4 121.1a1 1 0 00-1-1 1.4 1.4 0 00-1.3 1.5c0 .7.5.8.4 1.3s.2.7.7.8 1.3.4 1.5-.3-.3-.9-.5-1-.4-.3-.2-.4.4-.3.4-.9zM73.4 169.9c.3.2.6.4 1 0a1 1 0 00-.3-1.3 2.6 2.6 0 00-.8.4.5.5 0 00.1.9zM78.6 123.5a1 1 0 00-.1.4 1.4 1.4 0 00-1.1 0 2 2 0 00-1 1.6 1 1 0 00.2.8 1.6 1.6 0 002.3.1l.5-.3a9.7 9.7 0 00.6.8.8.8 0 001.2.2.9.9 0 001-.1.7.7 0 000-1.1 1 1 0 00-.2-.2 1.2 1.2 0 00-1.1-1 5 5 0 00-1 0 .8.8 0 00.2 0 .9.9 0 10-1.4-1.2zM80.5 120.7a.8.8 0 00-.1 1.4.8.8 0 00.6-.1.2.2 0 00.1.2.6.6 0 00.6 0s.2-.5 0-.6h-.4a.7.7 0 00-.8-.9zM70.7 116.3a.6.6 0 00.4 1c.6 0 1.3.1 1.9-.4v-.8c.7-.5 1.1-1.1 1-1.5a.8.8 0 00-.3-.4 6.9 6.9 0 01-2.7 1.9 2.4 2.4 0 00-.3.2zM81.4 160a1 1 0 00.5.8.9.9 0 001.2-.2 1 1 0 00-.3-1.3.6.6 0 00-.2 0 1.6 1.6 0 00-.3-2.1 2.2 2.2 0 00-.3-.1.7.7 0 000-.4c-.4-.4-1.7-.8-2-.5a1.5 1.5 0 000 1.9 2.8 2.8 0 000 .9.7.7 0 00-.7 0 2 2 0 00-.6 1.2 2 2 0 00-2 .8 1.2 1.2 0 00.4 1.8 4.3 4.3 0 00.5.2 1 1 0 000 .8.9.9 0 001.3.2 1 1 0 00.3-1.2.6.6 0 00-.1-.1l.3-.4a1.2 1.2 0 00.3-1 1.4 1.4 0 00.6-.3.9.9 0 00.4-1 1.4 1.4 0 00.7 0zM75.2 168.2a.9.9 0 00.2-.7 1.2 1.2 0 00.5-.3 1.6 1.6 0 00.1-2 1.4 1.4 0 00-2.2-.4 1.7 1.7 0 00-.4 2.4 1.4 1.4 0 00.7.3l-.1.1-.1.5c.4 0 1 .5 1.3.1zM94.4 139.8c.5-.5.5-1.3 0-1.6a1.8 1.8 0 00-2 .5 1 1 0 00.3 1.4 1.1 1.1 0 001.7-.3zM102.4 132.3l-.4-.1a.8.8 0 00-.2.4h-.2c-.5.1-.3 0-.7-.4a.9.9 0 00-1.5.1 1.8 1.8 0 00.7 2.3 2 2 0 002.6-1 .6.6 0 00-.2-.8v-.5zM147.5 153.6a1 1 0 00-1 .7 1 1 0 00.6 1 .9.9 0 011.4.3 1.8 1.8 0 001-.1.6.6 0 000 .2.9.9 0 00.4 1 .9.9 0 001.2-.6.7.7 0 00-.5-1 1 1 0 00-.6 0 .8.8 0 00.2-.4 1.4 1.4 0 00-1-1.2 1.1 1.1 0 00-1.2.5.8.8 0 00-.5-.4z"/><path class="cls-8" d="M90.4 135a1.6 1.6 0 00-2 .4 1.7 1.7 0 00-.3 1.7 1.3 1.3 0 00-1 .2 1.7 1.7 0 00-.8 2.2 1.5 1.5 0 00.4.4 1.3 1.3 0 00-1 0 1.2 1.2 0 00-.7 1.2 3.8 3.8 0 00.2.8c-.4-.3-1.1-.5-1.2-.7s.7-1 .5-1.8a1.2 1.2 0 00-1-.8 1.7 1.7 0 00.3 0 .8.8 0 00.8-1 1.1 1.1 0 00-.6-.8 1.5 1.5 0 000-.2c0-1-.4-1.2-1.4-1l-1.9.3a2 2 0 00-.4-.6c-.1-.4-.3-.5-.7-.4a1.7 1.7 0 00-1.7.5 2 2 0 00-.4 1.3c-.4.2-.3.9-.3 1.2s.4.6.9.5a.6.6 0 00.5-.5 2.8 2.8 0 001.8-.4c.4.5 1 .4 2-.2l.1.1a1 1 0 000 .5 1 1 0 00.8.7 1.8 1.8 0 00-.6 0 2.3 2.3 0 00-1.3 2.2.8.8 0 00.3.4.8.8 0 00-.6 1.1.6.6 0 00.6.3.5.5 0 00.3.4 1.1 1.1 0 000 .5 2 2 0 002 1.1 3 3 0 00.7-.2 1 1 0 00.2.3 2 2 0 001.8.7 1.2 1.2 0 00.3-.1 2.5 2.5 0 00.5.5l.2.1a1.8 1.8 0 00-1.3.6 1.2 1.2 0 00.4 1.5 1.3 1.3 0 001.8-1.8l-.2-.1a1.7 1.7 0 001.3-.8 1.5 1.5 0 00.3-.5 2.4 2.4 0 001.6 1 1.4 1.4 0 00-.2 1 .7.7 0 00-.2.2 1 1 0 00.3 1.3 1 1 0 001 0 1.8 1.8 0 00.8.3l-.1.4a1.6 1.6 0 00.9 1.5h.2a1.5 1.5 0 00-1 .6c-.4.5-.1 1.1.5 1.6a1.2 1.2 0 001.5 0 1.6 1.6 0 000-2 1.3 1.3 0 00-.3 0 1.6 1.6 0 00.6-.4 2.4 2.4 0 00.6-.8 1.4 1.4 0 00.6 1 1.6 1.6 0 002-1 1 1 0 001.4.1 1.2 1.2 0 00.3-1 1 1 0 00-.8-.6 1 1 0 00-.8.5 1.5 1.5 0 00-.7-1c-.4-.3-1.2 0-1.7.6a1 1 0 01.2-.3 1.1 1.1 0 000-2 .5.5 0 00.2-.1 1 1 0 00-.4-1.2 1.3 1.3 0 00-.7-.3 2.7 2.7 0 00-.7-.6 2.1 2.1 0 00-2-.3 1 1 0 01.5-.7c.4-.2.3-.7 0-1-.6-.2-1 .1-1 .7a8.9 8.9 0 00-1.6.2 2 2 0 00-1 1.3 1.8 1.8 0 00-.8-.8c-.8-.5-1.3-.6-1.8-.1a2 2 0 00-.3-.4l-.5-.3.7-.9a.8.8 0 00-.1-1.3H87a2.6 2.6 0 001 .2.8.8 0 00.1 1 1 1 0 001.3-.3.9.9 0 00-.1-1.2H89a1.6 1.6 0 00.2-1.8 1.5 1.5 0 001.5-.8 2 2 0 00.4-.6.8.8 0 00.5.2 1.2 1.2 0 001-1.2 1 1 0 000-.3 1.5 1.5 0 001 0c.1-.4.4-1 0-1.3a.8.8 0 00-1.1 0 1.2 1.2 0 00-.3.7 1.1 1.1 0 00-.6-.4 1.2 1.2 0 00-1.3.9zm-8 6.9a1 1 0 00-.2-.3l.2.1a.3.3 0 010 .2zM91.7 123.5a.3.3 0 000 .3.3.3 0 00.4 0 .3.3 0 00-.1-.3h-.3zM93.1 130.5c-.3.3-.3 1 0 1.1s1 .4 1.3 0-.2-.8-.4-1a.6.6 0 00-.9 0z"/><path class="cls-8" d="M90.2 139.7a1.6 1.6 0 00-.4 2.1 1 1 0 001.5.3c.6-.3 1-1.3.8-1.7a1.6 1.6 0 00-1.9-.7zM220.4 174.1a1.2 1.2 0 00-.3 1.6 1 1 0 001.4.2 1.3 1.3 0 00.3-1.1.3.3 0 00.1.1c.1.1.7.2.7 0a.5.5 0 000-.2 1.1 1.1 0 001.4-.2 1.4 1.4 0 00.3-1.8 1.7 1.7 0 00-2 0 1.2 1.2 0 00-.2 1.6l-.4.1a.3.3 0 000 .1 1 1 0 00-.1-.3.8.8 0 00-1.2 0zM226.6 165.3c.2-.1.5-.4.5-.6 0-.6-.7-.8-1-.7a.8.8 0 00-.2 1.1.7.7 0 00.7.2z"/><path class="cls-8" d="M226.8 166.8c.4.2 1-.3 1.2-.6s0-1.2-.4-1.4-1 .6-1.2 1a1 1 0 00.4 1zM225.5 175.3a1.6 1.6 0 00-1.7.6.7.7 0 000 .5 1.6 1.6 0 00-.2 1.3 1.1 1.1 0 00-.6 0c.2-.5 0-1-.4-1s-.6 0-.8.2 0 .7.4 1a1.6 1.6 0 00-.9 1.8 2 2 0 001.4 1 .8.8 0 000 1 .8.8 0 00.7.3c.5.2 1 0 1.3-.8a13.8 13.8 0 000-1.8.8.8 0 00-.2-.4v-.4a1.5 1.5 0 001.7-.3 2 2 0 00.4-.6.8.8 0 00.5.4 1.2 1.2 0 001.3-1 1.5 1.5 0 00-.7-1.4 1.2 1.2 0 00-1.4.4 1.3 1.3 0 00-.2-.2 1 1 0 00-.6-.6zM226.9 174.1a1.3 1.3 0 00.5-.9c0-.7-.6-.6-1.2-.7-.4.5-.6 1-.1 1.5a.8.8 0 00.8.1zM222.5 168.3a.6.6 0 000 1 .9.9 0 00.7 0c.2-.2.5-.7.3-1s-.8 0-1 0zM222 162.6a1 1 0 000 1.2.9.9 0 001.3.1 1 1 0 000-1.3.9.9 0 00-1.3 0zM221.7 168.8c0-.2-.1-.3-.2-.3l-.3.1.1.3a.3.3 0 00.4-.1zM148.8 152c.1-.1 0-.6-.1-.7s-.5.3-.6.5a.4.4 0 00.2.4.6.6 0 00.5-.2zM90.1 152c-.1-.5-.5-.5-.8-.3H89a1.4 1.4 0 00-.7-.3.9.9 0 00.3-.7 1 1 0 00-.7-.9c-.7-.2-1 .4-1.3.9a2 2 0 00.7.9 1.3 1.3 0 00-.6.4 1.9 1.9 0 00.4 2.3 1.4 1.4 0 001.9-.3 2.2 2.2 0 00.5-1.1 1 1 0 00.6-.1 2.6 2.6 0 000-.9zM89.3 155c-.2 0-.3.3-.1.5a.3.3 0 00.4.2c.2-.1.3-.3.2-.5s-.2-.3-.5-.2zM151.2 180.5c.3-.2.2-.6-.1-.8a1.4 1.4 0 00-1-.1.4.4 0 00-.3.5 5.7 5.7 0 00-.5.4 1.5 1.5 0 00-.4-.3c-.6-.3-1 0-1.3 1a13.7 13.7 0 00.4 1.7.8.8 0 001 .5.8.8 0 00.6-1v-.3h.1a1.4 1.4 0 001-.6c.2-.5-.2-.8-.6-1.1a1.5 1.5 0 00.4 0c.3.1.5.2.7 0zM230 165.4a.3.3 0 000-.4h-.2a.3.3 0 000 .3.3.3 0 00.3.1zM228.6 167.5c-.3 0-.6.3-.7.6a.5.5 0 00.3.8c.3.1.7.2 1-.3a1.4 1.4 0 00.3 1.3 1.4 1.4 0 00.2.1.8.8 0 00-.6.5.9.9 0 00.4 1.3 1 1 0 001.2-.5 1 1 0 00-.2-1 1.3 1.3 0 00.8-.4 1.1 1.1 0 00.2-1.6 1.7 1.7 0 00-2.1 0 .6.6 0 00-.2.3c0-.4-.4-1.1-.6-1.1zM154.6 186a1.5 1.5 0 00.2.2 13.7 13.7 0 003.5-.5h-.2a1.9 1.9 0 00.5-.9 2 2 0 00-.9-2.1.6.6 0 00-.5-.4 1 1 0 00-.7.2l-.8-.1c-.1-.1.3-1.5-.4-2.3a1.8 1.8 0 00-2.5 0 2.3 2.3 0 00-.6 1.4.8.8 0 000 1.2 1.5 1.5 0 00.2.6c.5.7 1.5.3 1.7.5s-.2 1.4.5 2.2zM222.2 171c-.2.5 0 1 .3 1a1.4 1.4 0 001.4-.5.9.9 0 00-.6-1 .8.8 0 00-1 .5z"/><path class="cls-8" d="M86.4 154.8a1.1 1.1 0 00-1-.4 1 1 0 00-.8-.4.7.7 0 01-.4-.2c-.5-.7-.8-1-1.3-.8a1.4 1.4 0 00.4-.8 1.4 1.4 0 001 0c.6-.1.6-.6 1.1-.6s.6-.4.6-1 .1-1.2-.6-1.3-.8.4-.8.7a.4.4 0 00-.3 0 .5.5 0 00-.1.2c-.2-.1-.4-.2-1 0a1 1 0 00-.6 1.1 1.7 1.7 0 000 .3 1.5 1.5 0 01-.5 0 1.6 1.6 0 00-.4 0 1.2 1.2 0 00.1-.6c0-.6-.5-1.2-.4-1.6s.3.6 1.1-.5a1.6 1.6 0 00.4-1.2.9.9 0 00.3 0 .8.8 0 00.5-.3.8.8 0 00.1 1.2 1 1 0 001.3-.3.8.8 0 00-.2-1.2.7.7 0 00-.4-.1.5.5 0 000-.1.8.8 0 00-.5-.9c-.3 0-.5 0-.6.3a.8.8 0 00-.6 0 .7.7 0 00-.5.3 1.2 1.2 0 00-1.3-.1l-.7-.7a1.4 1.4 0 000-.8 1.2 1.2 0 00-1.5-.6c-.6.2-.9.6-.7 1.1a1.4 1.4 0 00.3.5 1.5 1.5 0 00-.3 2 3 3 0 01.2 1.5 1 1 0 000 1 .4.4 0 010 .1h-.1a1.8 1.8 0 00-1.4-.6 2 2 0 00-1.8-.2 1.4 1.4 0 00-.2 0 1 1 0 00-1.4-.4 2.8 2.8 0 00-.2 1 .7.7 0 00.7.5 2.7 2.7 0 00-.4 1.8 1.1 1.1 0 00.6.6 1.2 1.2 0 00-.4 1.3 1.2 1.2 0 00.8.5 1.8 1.8 0 000 1 2.5 2.5 0 004.2.3 2 2 0 000-2.3c-.5-.6-1.7-.8-1.8-1.1a1 1 0 00.7.2.8.8 0 00.6-1 7.3 7.3 0 00.8.7.6.6 0 001-.5 2 2 0 00.5 0 .8.8 0 000 .3 1.3 1.3 0 00.9 1.2 1 1 0 00.5 0 .6.6 0 00.1.6 2.2 2.2 0 01.5 1.3 1.7 1.7 0 002.1 1.4 3.1 3.1 0 01.5 0 .9.9 0 001.3 0 .7.7 0 00.2-.6 1.6 1.6 0 00.1-.4 1.4 1.4 0 00-.3-1.4zM161 153.6a1.1 1.1 0 001.5-1c.1-.6-.2-1.3-.7-1.4a1.7 1.7 0 00-1.8 1.1c-.2.5.4 1.2 1 1.3zM157.4 161.4a1.2 1.2 0 001.4-.9 1.4 1.4 0 00-.7-1.6 1.7 1.7 0 00-1.6 1 1.2 1.2 0 00.9 1.5zM129.5 150.3c-.7 0-.8.6-.7 1.2.3.3.8.6 1.3.3a.8.8 0 00.2-1.1 1 1 0 00-.8-.4zM161.5 169.6a.4.4 0 00-.1.2.6.6 0 000 .3 1.7 1.7 0 001.4 1.6h.3a1.8 1.8 0 00-1 1 1.1 1.1 0 00.9 1.3 1.1 1.1 0 001.1-.2 2.2 2.2 0 001 .3 1.4 1.4 0 001-.2 1.6 1.6 0 00.7 1 .9.9 0 00.6-.1 1.4 1.4 0 001 .6c.6 0 1-.4 1.1-1.2s-.2-1.2-.7-1.2a1.4 1.4 0 00-.7.1.7.7 0 00-.4-.3 2 2 0 00-1.1 0 1.8 1.8 0 00-1.5-1.7 1.5 1.5 0 00-1.2.5 1.8 1.8 0 00.8-1.1 1.6 1.6 0 000-.6 2.3 2.3 0 002.2.2 1.6 1.6 0 00.5-2c-.2-.5-.4-.9 0-1.4.3-.4 0-.8-.4-1-.7.1-.9.5-.7 1a9 9 0 00-1.4.9 2 2 0 00-.5 1.6 1.9 1.9 0 00-1-.5c-1.1-.3-1.6 0-1.9.9zM155.7 167a1.5 1.5 0 00-.5-.2 1.7 1.7 0 00-2 .9 2.1 2.1 0 001.3 2.2 1.6 1.6 0 001.1-.3c.4.3 1 .1 1 .2s-.2 1.2.3 1.8a1.2 1.2 0 00.6.4 1.3 1.3 0 00.8.7 1 1 0 001.1-.7.9.9 0 000-.4 1.6 1.6 0 00.2 0l.2.2.5-.4c0-.1 0-.6-.2-.6a1.8 1.8 0 000-.8 1.4 1.4 0 000-2.7 2.1 2.1 0 00-.2 0 2.6 2.6 0 00-.4 0s-.4 0-.3.2v.1a1.5 1.5 0 00-.6 1 .9.9 0 000 .4c-.4 0-.7 0-.8-.2s.3-1.1-.2-1.8a1.3 1.3 0 00-1.2-.3 1.3 1.3 0 00.4-.2.8.8 0 00.2-1.2 1 1 0 10-1.8 1 1 1 0 001 .4 1.8 1.8 0 00-.5.3zM155.7 162.1a1.2 1.2 0 00.6 1.5 1 1 0 001.2-.6.9.9 0 000-.5v-.2c.2-.3-.2-.7-.6-.7a1.2 1.2 0 00-.2 0 .8.8 0 00-1 .5zM159.4 164a1.7 1.7 0 000 2.4 2 2 0 001.7 0 .8.8 0 00.6 1 1 1 0 001-.7 1 1 0 000-.5h.3a.8.8 0 00.9-.5.9.9 0 00-.7-1 .7.7 0 00-.9.6 1 1 0 000 .3H162a1.6 1.6 0 00-.4-1.7h-.1a1.5 1.5 0 001.1-1.3 2 2 0 00.1-.7.8.8 0 00.7 0 1.1 1.1 0 00.5-1.5 1.4 1.4 0 00-1.4-.8 1.2 1.2 0 00-1 1 1.6 1.6 0 00-1.7 1 1.8 1.8 0 000 1.2l-.3.1c0 .1 0 .5.2.7a1.6 1.6 0 00-.3.4zm.9-.6zM175.6 160.6a1.5 1.5 0 00.4 1.4l1.3-2.6a2.5 2.5 0 00-1.7 1.2zM164.6 150.5c0-.1 0-.6-.2-.7s-.5.3-.6.5a.4.4 0 00.2.4.6.6 0 00.6-.2zM209.6 162.4a.6.6 0 000-.6.6.6 0 00-.5 0 .5.5 0 00-.1.5s.5.3.6.1zM179.3 155.6a1.2 1.2 0 00-1.4 1.1 1.3 1.3 0 00.3 1l1.2-2zM174.2 157.3c.1-.3-.3-.5-.3-.5a.8.8 0 00-.6.3l.2.4s.6 0 .7-.2zM173.9 158.8c.4.1.5-.2.6-.5s0-.8-.5-.8a2.6 2.6 0 00-.8.3.9.9 0 00.7 1zM71 152.7c.3.3.8.2 1-.1a.8.8 0 00-.3-1 1.7 1.7 0 00.4-1 .8.8 0 00.4-.2c.5-.5 0-1-.3-1.6-.7.1-1.2.2-1.3 1a1.5 1.5 0 00-.5 0c-.5.2-.8.5-.9.8v.3a1.4 1.4 0 000 .2 1.6 1.6 0 001.1 1 .7.7 0 00.3.6zM99.1 140c.4.1.6 0 .8-.3a.6.6 0 00-.2-1 3 3 0 00-.8 0 .9.9 0 00.2 1.2zM97.9 140.6c-.3.2-.9.6-.6 1 .2.4.5.3.9.3a1 1 0 00.2.6 1.2 1.2 0 001.7-.3c.4-.4.2-1-.4-1.5a1 1 0 00-1.1-.2.5.5 0 00-.7 0zM99.2 135.5a.6.6 0 00.6 0c.1 0 .4-.3.3-.4a.6.6 0 00-.6-.2c-.2.1-.5.4-.3.6zM96.9 135.8a1.6 1.6 0 00-.3-.3.8.8 0 00-1-.1c-.8.3-1 .7-.6 1.6l.9 2c-1.2.6-1.2.7-.5 1.6.7 0 1-.5 1-1.1 1.2-.4 1.5-1.1 1-2a1 1 0 00.4-.4.8.8 0 00-.1-1.1.8.8 0 00-.8-.2zM103.3 140.2a1.6 1.6 0 00-.2-1.1 1.8 1.8 0 00-2.1-.4 1.5 1.5 0 00-.2 2.3 1.3 1.3 0 001.8.4 1.5 1.5 0 00.5-.5 1.8 1.8 0 00.7 1.5 1.9 1.9 0 002.3-.3 1.7 1.7 0 00-.1-2.3 2.4 2.4 0 00-2.6.3zM103 136.7a2.6 2.6 0 00-.8 0 .9.9 0 00.2 1.2c.4.2.6 0 .8-.3a.6.6 0 00-.2-1zM102.2 136.3a.6.6 0 000-.7.5.5 0 00-.6-.2.5.5 0 00-.2.8.5.5 0 00.8 0zM85.9 132.4a1.5 1.5 0 00-.3 1 .6.6 0 00-.3-.1c-.6 0-.8.3-.9.8a1.3 1.3 0 00-.1.1 1.2 1.2 0 000 1.6 1 1 0 001.4 0 1.2 1.2 0 000-1 .8.8 0 00.4-.7 1.1 1.1 0 001.7-.3 1.4 1.4 0 000-1.8 1.7 1.7 0 00-1.9.4zM88 123.1a.8.8 0 000 1.2.7.7 0 00.7 0 1 1 0 00.4-.7c-.2-.5-.9-.6-1.1-.5zM106.4 134.7a.9.9 0 00.3-1.1.7.7 0 00-1-.4.9.9 0 00-.3 1.1.8.8 0 001 .4zM85.2 128.1a.6.6 0 00.2 1 .8.8 0 00.7-.2c.2-.2.3-.8.1-1s-.8.1-1 .2zM89.3 127c-.4-.1-1.3 0-1.3.8.7 1.2-.3 1.4-.1 2.4a1.4 1.4 0 00.2.4 1.1 1.1 0 002-.2 7.3 7.3 0 00.5-1.8 1.7 1.7 0 00-1.3-1.6zM82.5 133.7a.7.7 0 00-.3-1 1 1 0 00-1.2.1 1 1 0 00.3 1.2.9.9 0 001.2-.3zM79.6 127.7a1.2 1.2 0 00-1.8.2 1.2 1.2 0 000 1.6 1.4 1.4 0 00.8.2 1.3 1.3 0 00-.2 1 1.1 1.1 0 00.2.5 1 1 0 00-.3.2 1.1 1.1 0 00.1 1.3c.7.6 1.6.7 2 .2a1.5 1.5 0 000-1.2 1.5 1.5 0 00.5-1.4 1.4 1.4 0 00-1.2-1 1.6 1.6 0 00.2-.2 1 1 0 00-.3-1.4zM85.5 138c.3 0 .7-.3.4-.7s-.5-.5-.7-.4l-.6.6c.2.7.6.7.9.6zM116.4 147a.8.8 0 00-.5.3l.3.4c.1 0 .6 0 .6-.3s-.3-.4-.4-.4zM127 154a.8.8 0 00.2.7 1.2 1.2 0 00-.6 0 .7.7 0 00-.4 1 .8.8 0 001 .3c.3 0 .5-.8.3-1.1a.8.8 0 00.2 0 2.6 2.6 0 00.6-.7c.1-.3-.1-.6-.5-.7s-.7 0-.9.4zM125.6 149.1c-.2.2-.6.2-.5 0s0-.5-.6-.7a1 1 0 00-1.3.4 1.3 1.3 0 00.4 1.6 2 2 0 00.2 1.6 1.4 1.4 0 002.1.5 1.8 1.8 0 00.6-2.2c.3-.3.5-.7.1-1-.5-.6-.9-.3-1-.2zM123.4 143a.9.9 0 00-.5 1.1 1.4 1.4 0 001.7.6 1 1 0 00.4-1.3 1.3 1.3 0 00-1.6-.4zM128.1 149a.5.5 0 00.7.3c.3-.1 0-.5 0-.7s-.4-.2-.5-.1a.7.7 0 00-.2.5zM104.5 138.6c.3.6.8.7 1.2.4.7-.4 1-1.3.7-1.8a1.3 1.3 0 00-1.7-.2 1.2 1.2 0 00-.2 1.6zM133.2 142.4a1.2 1.2 0 00-1.3.5 5.8 5.8 0 00-.6 1 3.5 3.5 0 00-.6 0 1.7 1.7 0 00-1.3 1.5 2 2 0 00.9 1.7 1 1 0 00.7.2 1.6 1.6 0 001.3-2v-.5l1-.1c.6-.1.8-.4.7-1a1.3 1.3 0 00-.8-1.3zM128.2 141.2a.8.8 0 001.1.7.8.8 0 00.2-1 .7.7 0 00-1.3.3zM122.3 139.5a1.4 1.4 0 00-.3 2 1.5 1.5 0 001.9.2 1.4 1.4 0 00-1.6-2.2zM114.2 148.6a.7.7 0 00.4.6c.5.1.8-.2 1-.7-.3-.4-.5-.9-1.1-.6a1 1 0 00-.3.7zM116.6 151.8c0 .7.3 1.1 1.2 1.2a1.2 1.2 0 001.2-.8c0-.6-.6-1.7-1-1.8s-1.3.6-1.4 1.4zM106 144.5a1 1 0 00-.2 1.3 1 1 0 001.2.2 1 1 0 00.2-1.2.9.9 0 00-1.2-.3zM109.6 155.2c.2-.3-.2-.8-.3-1a.9.9 0 00-.8.1.5.5 0 000 .8l1 .1a.3.3 0 00.1 0zM114.5 145c-.2.5.2 1.3.6 1.3s1.2-1.3 1-1.7-1.5-.2-1.6.4zM83.6 122.5a1 1 0 00.2 1.3.9.9 0 001.3-.2 1 1 0 00-.2-1.3.9.9 0 00-1.3.3zM72.9 163.3a.9.9 0 00.2.1 1.2 1.2 0 001.5-.7 1.5 1.5 0 000-.8 1 1 0 00.2-.2 1 1 0 00.1.4.6.6 0 001 .3.7.7 0 00.3-1 .8.8 0 00-1-.3.7.7 0 000-.4.9.9 0 00-1-.5 1 1 0 00-.6.8 1.5 1.5 0 00-1.5-.2 1.4 1.4 0 00-.7 1.8 1.1 1.1 0 001.5.7zM155.4 151.6a.7.7 0 00.7-.2 1 1 0 000-.8.8.8 0 00-1.1-.1.8.8 0 00.4 1zM158.6 149.5s0 .2.2.2a.2.2 0 00.3-.1c0-.2-.2-.3-.2-.3l-.3.2zM125.5 161.8a1.6 1.6 0 00.5.4 5.1 5.1 0 00-.4.8 1.1 1.1 0 00.2 1l.5.5a1.7 1.7 0 00.6.2 1.2 1.2 0 00.5 0 1 1 0 00.3.3c.5.4.8-.1 1.2-.5a2 2 0 00-.5-.9 2 2 0 00.2-.5 1.2 1.2 0 00-1-1.5 1.3 1.3 0 000-1c-.3-.5-1.3-.5-1.9 0a1 1 0 00-.2 1.2zM154.3 156.1c-.2.3.1 1 .5.9a.9.9 0 00.6-.4 1 1 0 00.4.6 1.3 1.3 0 001.5-.1 2 2 0 00.1-.2 1 1 0 00.1.2 1.6 1.6 0 00.4.3 1.1 1.1 0 001.7-1 7 7 0 00-.2-1.8 1.7 1.7 0 00-1.7-1 1 1 0 00-1 .9.8.8 0 00-.2 0c-.6 0-.5.5-.8.8a1.5 1.5 0 00-.3.7.6.6 0 00-.3-.4c-.2-.1-.7.3-.8.5zM162.5 155.5c-.1.4 0 1 .4 1s1 0 1.2-.5-.5-.7-.7-.8a.6.6 0 00-.9.3zM232.1 166a1 1 0 00.5 1.1.8.8 0 00.7 0v-1.6a1 1 0 00-1.2.5zM224.8 169.2a.8.8 0 00.6 0c0 .7-.7.8-.7 1.7a1.3 1.3 0 00.1.4 1.1 1.1 0 002 .2 6.7 6.7 0 00.8-1.7 1.7 1.7 0 00-.9-1.8c-.3-.2-1.2-.2-1.4.5a.3.3 0 00-.1 0 .6.6 0 00-.5.1.6.6 0 00.2.6zM81.2 166a1.1 1.1 0 00-1.3-.2 1.3 1.3 0 00-1-1.2 1.2 1.2 0 00-1 .3 1.7 1.7 0 00-.1 2.3 5.8 5.8 0 001 0 1.4 1.4 0 00.5-.1 1.4 1.4 0 00.7.5l1.3-1.2a.6.6 0 00-.1-.3zM70.3 161.8a.9.9 0 00-.8-.7v2.3a1 1 0 000-.1 1.3 1.3 0 00.8-1.5zM151.6 185a1.3 1.3 0 00-.4 0l.1-.1c.1-.1-.1-.7-.4-.9a.5.5 0 000-.2.8.8 0 00-.5-1 .8.8 0 00-.9.7.7.7 0 00.5.7v.2c0 .5.2.8.6.8a1.9 1.9 0 00.4 0 1 1 0 00-.3.5 16.8 16.8 0 002.1.4c-.2-.6-.5-1.1-1.2-1.2zM95.8 133.6a.7.7 0 00-.1.5c.1.3.6.3.8.4a1 1 0 00.4-.4.8.8 0 00.9-.4l.7-1.4a.7.7 0 000-1.2 1 1 0 00-1.3 0 2.4 2.4 0 01-.8.5 1.3 1.3 0 00-1 1 1.3 1.3 0 00.4 1zM96.3 126.2v.5a.6.6 0 00.5 0c.1-.1.3-.6.1-.7s-.5.1-.6.2zM117 139c.2-.2 0-1 0-1.3s-.8-.3-1 0-.5.5-.2.8.9.6 1.1.5zM115 142.5c-.3.2-.7.7-.5 1s1 0 1.1-.1.2-.6 0-.8a.4.4 0 00-.7-.1zM106.9 142a1.3 1.3 0 001.5.1 1.2 1.2 0 00-.3-1.6 1 1 0 00-1.2 1.4zM69.5 126.6v.6a.6.6 0 000-.6zM90.5 159.1h.1l2.5-1.2-.1-.2a.8.8 0 00-.7 0 1.7 1.7 0 00-2-1 5.9 5.9 0 00-.5 1 1.4 1.4 0 000 .6 1.8 1.8 0 00-1.8-.1.6.6 0 00-.3.2v.1a1.9 1.9 0 00-.3 1.6 1 1 0 00-.2 1.3 35.6 35.6 0 013.3-2.2.9.9 0 000-.1zM71.8 126.4c-.1.5-.1 1 .4 1.3a.8.8 0 001-.4 1 1 0 000-1c-.4-.4-1-.2-1.4.1zM74.8 124c-.3 0-.6.2-.8.4a.5.5 0 000 .9c.4.2.8.3 1 0a1 1 0 00-.2-1.3zM84 129c-.2 0-.3.5-.2.7a.7.7 0 00.5.3c.1 0 .3-.4.2-.5s-.3-.6-.5-.5zM82.3 130.6a1.1 1.1 0 00.4 1.7c.5.4 1 .2 1.5-.4a1 1 0 000-1.4 1.9 1.9 0 00-1.9.1zM75.3 123.1a.8.8 0 001-.3c.2-.4 0-.7-.9-1a.8.8 0 00-.1 1.3zM76.1 118.4c-.1 0-.5.2-.5.5s.5.2.6.2.4-.2.3-.5a.3.3 0 00-.4-.2zM73.1 121.8a1 1 0 00.2 1.2c.3.2 1-.1 1.2-.4s.4-1.1 0-1.4-1.1.3-1.4.6zM77 168.7a.3.3 0 000-.5.3.3 0 00-.5 0 .3.3 0 000 .5.3.3 0 00.5 0zM81.5 164c0 .2.3.5.5.6a1 1 0 00.9-.2.8.8 0 000-.7 7.6 7.6 0 00-.6-1.2c-.2-.3-.5-.3-.8-.1 0 .1-.2.3-.1.4a1.9 1.9 0 010 1.2zM83.4 162a1.3 1.3 0 000 1.7.9.9 0 000 .2 1.3 1.3 0 00-.3.8l3.1-2.5a1.2 1.2 0 00-.3-.5 1.7 1.7 0 00-2.5.3zM69.9 171.4a1 1 0 00.5.7c.7.2 1-.2 1.2-.8-.2-.5-.4-.9-1-.8a.8.8 0 00-.7 1zM132.4 153.3a1.8 1.8 0 002.2 1.4c.6 0 1.1.3 1.7 0a2.6 2.6 0 001.3-3 2.1 2.1 0 00-1.3-1.5c-.7-.3-1.3.5-2 .5-1.9 0-2.1 1.4-1.9 2.6zM71 159.4a1.1 1.1 0 001.4-.2 1.5 1.5 0 00-.4-1.4.4.4 0 00-.1 0 1.4 1.4 0 000-.8 1.7 1.7 0 00-1.8-1.3 1.6 1.6 0 00-.6.4v2.6a1.7 1.7 0 001 .2.8.8 0 00.5.5zM147.3 150.6a.5.5 0 00.5.6c.3 0 .5-.3.5-.4a.5.5 0 00-.3-.6.5.5 0 00-.7.4zM230.8 174.3c-.4 0-.8-.2-1 .2-.2.7 0 1.2.3 1.4a1 1 0 001.3-.5.8.8 0 00-.6-1zM229.8 172.2c-.4.3-.5.9-.2 1.1s.9.6 1.2.2 0-.8-.1-1a.6.6 0 00-1-.3zM229.2 176.9c.3 1 .6 1.3 1.2 1.2a.9.9 0 00.7-.7 1 1 0 00-.5-1.1c-.6-.3-1 .2-1.4.6zM224 186a3 3 0 00.3.2l.2.1.8.6a1.2 1.2 0 00.4 0 1.7 1.7 0 001.5-1.3c0-.5 0-1 .7-1.2a.5.5 0 00.4-.7.5.5 0 00.6 0 2.1 2.1 0 011.8-.3.7.7 0 00.8-.7c0-.5-.4-1.2-.8-1a1.4 1.4 0 01-1.3-.2c.5-.4.6-1.1.2-1.4a1.7 1.7 0 00-1.6-.3 1.7 1.7 0 00-.8-1.2.8.8 0 00-1.1.5c-.4 1-.2 1.4.4 1.7a1 1 0 00.7 0 1.1 1.1 0 00.3.8 1.9 1.9 0 00.2 1.6.7.7 0 00-.8.6l-1.3-.1a3 3 0 00-1.1 0 1.2 1.2 0 00-.8.5 1.7 1.7 0 00-.2-.3c-.9-.8-1.4-.9-2.1-.3a22.7 22.7 0 002.6 2.4zM228.3 188.3a14.3 14.3 0 005 1v-2.9a2 2 0 00-1.5-.4c-.6 0-1.1-.4-1.7-.1a2.6 2.6 0 00-.5.3.8.8 0 00-.6.3.8.8 0 00-.2.8 2.7 2.7 0 00-.2.7 2 2 0 00-.3.3zM216.9 162.5a1 1 0 000 1.3.8.8 0 001.1.1 1 1 0 00.1-1.3 1 1 0 00-1.2 0zM160.8 180.8a1.2 1.2 0 000 .2c-.3 0-.8.3-.8.5s.1.7.3.8.6-.2.7-.4a2.2 2.2 0 011 1 1.9 1.9 0 00.6.6.9.9 0 000 .2 19.2 19.2 0 003.2-3 2.5 2.5 0 00-2.3-.6 2.7 2.7 0 00-.6.3h-.1c-1-.7-1.4-.6-2 .4zM232 183a1.5 1.5 0 00.6 1.7.6.6 0 000 .3 1 1 0 00.7.3V182a1.7 1.7 0 00-1.3 1.1zM135 146.7a1 1 0 00.9 1.3c.7.2 1.6-.2 1.8-.7a1.6 1.6 0 00-1-1.8 1.6 1.6 0 00-1.7 1.2zM217.5 172.2a1 1 0 000 1.2.9.9 0 001.2-.1.7.7 0 000-1.1 1 1 0 00-1.2 0zM219.7 161.3a.4.4 0 000 .5.6.6 0 00.5 0c.2 0 .4-.4.2-.6s-.6 0-.7.1zM232.5 170.5c-.3.6 0 1.4.4 1.5a1.2 1.2 0 00.4.1v-2.3a1 1 0 00-.8.7zM160.4 185a14.5 14.5 0 001.4-.8 1.7 1.7 0 00-1.4.7zM219.2 170.2a1.1 1.1 0 000 1.8c.4.4 1 .4 1.6-.2a1 1 0 00.2-1.3 1.8 1.8 0 00-1.8-.3zM231.5 174.8c-.1.4.4 1.4 1 1.5a1.6 1.6 0 00.8.2v-2.7a1.5 1.5 0 01-.5.2 1.3 1.3 0 00-1.3.8zM232.6 178a1 1 0 00-.4-.2c-.4-.1-.8 0-1 .6-.3.7-.2 1.2.2 1.4a1 1 0 00.8 0 1 1 0 001-.2.9.9 0 000-.2v-.9a.8.8 0 00-.6-.4zM121.8 160a2 2 0 00-1-1.6 1 1 0 00-1.1.5l2 1.4a1 1 0 000-.2zM114.8 156l-.3.2a1 1 0 010 .1l.9.4c0-.5-.2-.7-.6-.7zM105.7 154.6l-.4.4.1.1h1.5a.7.7 0 000-.3c-.2-.2-.8-.1-1.2-.2zM124.2 154.7a1.4 1.4 0 00-1 .7.4.4 0 00.4.5 1 1 0 00.7-.2l.5-.5c0-.2-.3-.5-.6-.5zM148.2 185l.7.2a1.9 1.9 0 00-.6-.2zM123 152.9a1.4 1.4 0 00-1.3-.1c-.4.3-1 .4-1 .8a.8.8 0 00.1.7c.2.2.2.5.5.7a1.9 1.9 0 001.6 0 1.4 1.4 0 00.8-1.1 1.2 1.2 0 00-.7-1zM222 182.4a.4.4 0 00.3-.6c0-.2-.3-.3-.6-.4s-.4-.3-.7-.2-.3.6 0 .8a1.4 1.4 0 001 .4zM120.1 154.8a1.6 1.6 0 00-1.8 1 .8.8 0 00-.3.6c-.2.9.1 1.5.7 1.6a1 1 0 00.5-.2c.6.2 1.3-.4 1.7-1.2a1.6 1.6 0 00-.8-1.8zM218.4 175a.9.9 0 00-.5-1.1.7.7 0 00-1 .3.9.9 0 00.4 1.2 1 1 0 001-.4zM219.4 179.8l.3.2a.7.7 0 001-.3.8.8 0 00-.4-1c-.2-.1-.7 0-1 .3a1.3 1.3 0 00-.7-.7 2.3 2.3 0 00.4 0 .8.8 0 001-.8 1.1 1.1 0 00-1-1.2 1 1 0 00-1.2 1 1 1 0 00.7 1 1.8 1.8 0 00-.7-.1 1.1 1.1 0 00-.5.2l1.5 2.2a2.5 2.5 0 00.6-.8zM165.8 175.9a1 1 0 00-1-.6.8.8 0 00-.6.5.8.8 0 00-.5-.4c-.5 0-.8.1-.8.6s0 1 .4 1.2c.4 0 .6-.3.8-.6a2 2 0 00.9.5 1.3 1.3 0 00-.4.6 1.8 1.8 0 001.1 2 1.3 1.3 0 00.9 0l1.3-1.8a1.2 1.2 0 00-1-1.4 1.6 1.6 0 00-.6 0 1.5 1.5 0 00-.4 0 .8.8 0 000-.6zM157.4 173.2c0-.7-.2-.9-.6-1s-.7.1-.7.6.3.7.5.7l.8-.3zM153.6 174.3a.8.8 0 00.2-.7 1.5 1.5 0 001-1.1c.3-1.1 0-2-.9-2.2a1.5 1.5 0 00-1.5.4.8.8 0 00-.8.2.7.7 0 00-.2.2 1.3 1.3 0 00-1-1.2 1.6 1.6 0 00-2 1.3 1.6 1.6 0 001.1 1.8c.9.2 1.6-.2 1.8-1.2v-.2l.3 1c-.6.9-.7 1.7-.2 2.1a1.8 1.8 0 002.2-.3z"/><path class="cls-8" d="M155 174.6a2 2 0 00-.7 1.4 1.7 1.7 0 00-1.5 1.5 1.4 1.4 0 001.1 1.8 1.8 1.8 0 001.8-.8.9.9 0 00.4 1 1.8 1.8 0 001.6 1.2 1.3 1.3 0 00-.4.6 1.6 1.6 0 001.3 1.7 1 1 0 001.2-1c.1-.7-.3-1.6-.8-1.7a1.4 1.4 0 00.6-1.6c-.2-.6-1-1-1-1.4s.5.4.9-.9a1.2 1.2 0 000-.2l.8.3c-.3 1.2-.2 1.4 1 1.3a1.1 1.1 0 00.2-.4 1 1 0 00.7.6c.3 0 .6-.5.6-.9s-1-.7-1.3-.3a.9.9 0 000 .2 1.2 1.2 0 00-.5-.6 2.5 2.5 0 00.3-1 1 1 0 00.4-.5.8.8 0 00-.6-1 .8.8 0 00-1 .5 3.4 3.4 0 00-.8 0 1.7 1.7 0 01-.1-.3c-.2-.5-.6-.5-1-.5s-.6.3-.7.7a1.7 1.7 0 000 .2 1.4 1.4 0 00-.3.2c-.2.2-1.2-1-2.2 0zM218.7 165.3a.8.8 0 00-.2 1.2.9.9 0 001.3.1.7.7 0 00.1-1 .8.8 0 00-1.2-.3zM152.4 151.4a1 1 0 00-.6-.5.9.9 0 00-1.1.7 1 1 0 00.7 1h.1a.7.7 0 00.4.4.9.9 0 001-.6.7.7 0 00-.5-1zM144.6 161.6a1 1 0 001-.8 1 1 0 00-.2-.8.8.8 0 00.2-.4 1 1 0 00-.7-1.1.8.8 0 00-1 .6 1 1 0 00.2 1 .8.8 0 00-.3.5 1 1 0 00.8 1zM144.5 157.5a2.3 2.3 0 00-1-1.7 1.3 1.3 0 00-1.5 1.1c0 .6.3 1 1.1 1.2.8.1 1.3-.1 1.4-.6zM165.6 164.6a1.1 1.1 0 001.6-1c.1-.7-.1-1.4-.6-1.5a1.8 1.8 0 00-1.8 1.2 1 1 0 00.8 1.3z"/><path class="cls-8" d="M166 161.8a1.4 1.4 0 002-.2 1.3 1.3 0 00-.2-1.5 1 1 0 00-1.4-.2c-.4.3-1.3.5-1.3 1.1s.6.6.9.8zM154.2 158.7a1.8 1.8 0 00-1.7.8c-.2.7.2 1.3 1 1.5.5.1 1-.2 1.2-.7a.8.8 0 00.2-.4.7.7 0 000-.5.8.8 0 00-.7-.7zM167.8 154a1 1 0 00-1.2.5 2.5 2.5 0 01-.6.8 1.3 1.3 0 00-.7 1.3c.1.5 1.2 1 1.7.9s1-.2 1-.9l.1-1.5a.7.7 0 00-.3-1.1zM145.2 164a.5.5 0 00.2 0 .7.7 0 00.3.3 1 1 0 001.2-.7.8.8 0 00-.5-.9.9.9 0 00-.4-.4 1.1 1.1 0 00-1.3.9.7.7 0 00.5.9zM139.4 157.8a.5.5 0 00.2.5c.2 0 .6 0 .7-.2a.6.6 0 00-.4-.5.6.6 0 00-.5.2z"/><path class="cls-8" d="M138.4 159.4a.7.7 0 00-1 .5v.1a1.2 1.2 0 00-.2.4 1.6 1.6 0 000 .4.7.7 0 00-.4.5.9.9 0 001 1.1c.6 0 .8.3 1.1.7-.9 1-.8 1.8.2 2.3a1.9 1.9 0 00.3.2h.1a2 2 0 001 .8 1.1 1.1 0 00-.2.6c0 .6.3.7.8.7a2.2 2.2 0 011 .2c-.2 1 0 1.5.6 1.6a1.3 1.3 0 001.1-.4 3.5 3.5 0 000 1.6 1.9 1.9 0 00.5 1.2c.4.3.8.6 1.2.3a2 2 0 011.6-.6.7.7 0 00.8-.8c0-.5-.5-1-1-.9a1.1 1.1 0 01-.3.1 1.6 1.6 0 000-.2 10.5 10.5 0 00-1.2-1.8 3.3 3.3 0 00.5-1.4.8.8 0 00.3 0 .9.9 0 00.7-.8 1 1 0 00-.7-1.1c-.5-.1-.9.2-1.1.6a2.3 2.3 0 00-2.8.5.8.8 0 01-.7.3.8.8 0 00.1-.3 1.2 1.2 0 00-.7-1.5h-.1a1.2 1.2 0 00-.8-1.2 3.8 3.8 0 011-.2 1 1 0 00.2 0l.1.1a.8.8 0 00.8 0 1.4 1.4 0 00.5-1 .6.6 0 00-.6-.5 1 1 0 00-.4-.7c-1.2-1-1.7-1.1-2.7-.4a.9.9 0 00-.2-.3.5.5 0 00-.4-.7zM137.8 142c-.2 0-.7 0-.7.2s.3.6.5.6a.7.7 0 00.5-.3l-.3-.5zM138.6 155.1a1.2 1.2 0 002.4.4.6.6 0 00.3.2c.4.2.9-.4 1-.7s0-1.3-.5-1.4-.8.4-1 .8a1.1 1.1 0 00-.8-.7c-.4 0-1.3.8-1.4 1.4zM140.5 151.8c0 .5.6.7.9 1s.7-.2.8-.6 0-.9-.5-.8-1-.2-1.2.4zM146.8 148.3c-.2 0-.7 0-.7.3s.2.4.4.5.5 0 .6-.2a.6.6 0 00-.3-.6zM212.4 169.7zM211.8 159.8a1 1 0 000 1.2c.3.3 1 0 1.3-.1s.6-1 .3-1.4-1.3 0-1.6.3zM171.5 168.5a.6.6 0 00.2-.3c0-.4-.3-.8-.9-1a1 1 0 00-1.3.6.9.9 0 000 .4.9.9 0 00-.6 1 .9.9 0 00.8.8h.3a1.4 1.4 0 01-.4.8 1.8 1.8 0 00-.2 1.8 1.4 1.4 0 001 1c.8-1.3 1.4-2.6 2-4 0-.5-.3-.9-.9-1zM213.1 163.6a1 1 0 000-1.3 1 1 0 00-.9.2.5.5 0 000 1c.2.2.5.4.9 0zM215.3 166.7a1.2 1.2 0 00-.3 1.6 1.7 1.7 0 002.1 0 1 1 0 000-1.5 1.2 1.2 0 00-1.8 0zM167.8 170.8a1 1 0 00-1.1.6 1 1 0 00.8 1.1.9.9 0 001-.6 1 1 0 00-.7-1.1zM212.2 165.2a.9.9 0 00-.1 1.3 1 1 0 001.2.1 1 1 0 000-1.3.8.8 0 00-1 0zM214.6 173.8l1.5 2.6a1.6 1.6 0 000-2.1 1.9 1.9 0 00-1.5-.5zM215 171.5c.6.8 1.4 1 1.9.6a1.6 1.6 0 000-2 1.5 1.5 0 00-1.7 0 1.1 1.1 0 00-.2 1.4zM171.2 154.3c-.4.3-.3.1-.8-.1s-1.3-.3-1.4.6a1.8 1.8 0 001.5 1.9 2.1 2.1 0 002-2c0-.6-.9-.7-1.3-.4zM169.8 163.1a1 1 0 00.7 1 1 1 0 00.8-.3 1.4 1.4 0 00.5.8 1.2 1.2 0 001.5-.8c.2-.6-.2-1.1-1-1.3a.9.9 0 00-1 .3 1 1 0 00-.6-.4.9.9 0 00-.9.7zM172.3 160.3c0 .4.1.8.5.7s1.2-.2 1.2-.5-.7-.7-1-.9-.7.3-.7.7zM167.7 159.3a1 1 0 00.6 1.2.9.9 0 001-.7.8.8 0 00-.5-1 .8.8 0 00-1.1.5zM172.2 161.5c0-.4-.1-.9-.5-.8a2.6 2.6 0 00-.8.2.9.9 0 00.6 1c.4.2.6-.1.7-.4zM172.5 166a.8.8 0 00-.8.8 1 1 0 001 1l.7-.8c.2-.3-.3-1-.9-1z"/><path d="M233.3 179.2c-11.6 0-18-5.7-23.8-10.8-5.2-4.7-9.7-8.7-17.7-8.7s-11.8 3.9-16.1 8.4c-4.7 4.8-10 10.3-21 10.3-11.5 0-19.6-14.3-27.4-28.2-6.5-11.5-13.2-23.4-20.3-23.4-8.2 0-14.7 9.7-20.4 18.2-5.4 8-10.5 15.6-17.1 15.6v-4.2c4.4 0 8.8-6.7 13.6-13.7 6.3-9.4 13.4-20 24-20 9.5 0 16.5 12.4 24 25.5 7.2 12.8 14.7 26 23.7 26 9.2 0 13.4-4.4 18-9s9.3-9.7 19-9.7c9.6 0 15.2 5 20.6 9.8 5.7 5 11 9.7 21 9.7z" fill="#006abb"/><path class="cls-7" d="M134.6 194.4h35v13.1h-35z"/><path d="M187 173.8h-5.2v-3.7h5.2V165h3.8v5.1h5.1v3.8h-5.2v5H187z" fill="#343741"/><path class="cls-11" d="M249.2 92.7H244v-3.8h5.2v-5h3.8v5h5.2v3.8H253v5h-3.8zM27.6 161.7h-5.2v-3.8h5.2v-5.1h3.7v5.1h5.2v3.7h-5.2v5h-3.7z"/><path class="cls-3" d="M239.8 198h7v7h-7zM239.8 214.1h7v7h-7zM255.3 198h7v7h-7zM255.3 214.1h7v7h-7zM223.7 214.1h7v7h-7zM207.8 214.1h7v7h-7z"/><g id="Generic-BlueBG-3-2" data-name="Generic-BlueBG-3"><path class="cls-5" d="M231.3 60.9a12.5 12.5 0 1117.6 0 12.5 12.5 0 01-17.6 0zm-6.7 6.7a22 22 0 100-31 22 22 0 000 31z"/><path class="cls-6" d="M249 60.9a12.5 12.5 0 00.1-17.5l-.2-.2 6.7-6.7a22 22 0 01.3 30.8l-.3.3z"/></g></g></svg>