<svg width="268" height="151" viewBox="0 0 268 151" fill="none" xmlns="http://www.w3.org/2000/svg">
<rect width="268" height="151" fill="#F5F7FA"/>
<rect width="228" height="111" transform="translate(20 20)" fill="#CCE1F0"/>
<path fill-rule="evenodd" clip-rule="evenodd" d="M89.4788 131H82.4354C82.4251 130.989 82.4148 130.978 82.4043 130.967C81.5722 130.086 81.4184 129.765 81.3811 128.837C81.357 128.236 81.2162 127.592 81.0682 127.407C80.8818 127.173 80.8437 126.335 80.9444 124.678C81.0535 122.882 80.99 121.774 80.6893 120.229C80.2429 117.935 80.0148 113.661 80.1308 109.761C80.1556 108.929 80.0518 107.787 79.9003 107.223C79.5312 105.849 77.8332 104.115 75.7345 102.969C74.2335 102.149 74.0224 101.939 73.4356 100.68C73.0803 99.917 72.4011 98.7772 71.9264 98.1468C71.4518 97.5164 70.9356 96.5906 70.7796 96.0895C70.2841 94.499 69.4107 92.9009 68.8154 92.4954C68.4985 92.2797 68.1372 91.7186 68.0123 91.2486C67.8103 90.4881 67.8636 90.2758 68.4959 89.3205C69.1816 88.2847 69.1897 88.2424 68.7263 88.1165C67.5877 87.807 68.0666 86.2253 70.1103 83.5447C71.4686 81.7632 71.8665 80.406 71.4902 78.838C71.3469 78.2405 71.2185 77.6155 71.2049 77.4491C71.1914 77.2827 71.0893 77.1465 70.9781 77.1465C70.8668 77.1465 70.8882 76.9282 71.0256 76.6614C71.2373 76.2503 71.1838 76.1329 70.6751 75.892C69.9337 75.5409 68.8142 75.888 68.8099 76.4703C68.8047 77.1687 68.5092 77.2201 67.5349 76.6923C67.0132 76.4096 66.4712 76.1784 66.3306 76.1784C66.1899 76.1784 65.643 75.7917 65.1152 75.3191C64.5873 74.8465 64.0245 74.3521 63.8644 74.2204C63.7043 74.0887 63.5733 73.7298 63.5733 73.4229C63.5733 73.116 63.3677 72.6714 63.1164 72.435C62.865 72.1986 62.5393 71.6271 62.3926 71.165C62.1998 70.5577 62.0554 70.3981 61.8715 70.5892C61.4879 70.9879 60.9199 70.9122 59.5413 70.2785C58.8205 69.9472 58.0697 69.3814 57.7698 68.9436C57.4835 68.5257 56.9365 68.0157 56.5542 67.8102C55.9234 67.4712 55.7657 67.4738 54.8468 67.8385L53.8344 68.2404L50.7282 66.676C48.8175 65.7136 47.3346 64.7956 46.8753 64.2908C46.1631 63.508 46.1401 63.423 46.3771 62.4527C46.5941 61.5638 46.5573 61.2888 46.0851 60.275C45.7879 59.6368 45.1386 58.6566 44.6421 58.0967C44.1456 57.5369 43.7958 56.984 43.8647 56.8681C43.9336 56.7522 43.5839 55.9709 43.0876 55.132C42.5237 54.179 42.1257 53.1581 42.0269 52.411C41.9001 51.4533 41.7525 51.1602 41.285 50.9389C40.7895 50.7042 40.6509 50.7341 40.3672 51.137C39.9676 51.7044 40.0812 52.3034 40.9648 54.288C41.3238 55.0944 41.6949 56.29 41.7893 56.9447C41.8838 57.5994 42.1628 58.5461 42.4094 59.0485C42.9934 60.2383 42.6163 60.2173 41.6954 59.0087C41.1522 58.2959 41.0055 57.905 41.1134 57.4579C41.2287 56.9807 41.1152 56.7508 40.5507 56.3169C39.6945 55.6589 39.5133 55.2345 39.8278 54.6237C40.0112 54.2675 39.9271 53.8769 39.4613 52.9215C38.9883 51.9513 38.8894 51.4813 39.0065 50.7608C39.1979 49.5831 38.6895 48.5171 37.7418 48.1091C37.1946 47.8735 37.006 47.61 36.8945 46.9253C36.8156 46.4409 36.6645 45.6915 36.5588 45.2599C36.4488 44.8109 36.4568 44.4172 36.5775 44.3396C36.6935 44.2651 36.6176 43.933 36.4088 43.6017C36.1011 43.1137 36.0801 42.8828 36.2979 42.386C36.4457 42.0486 36.5016 41.663 36.4219 41.5291C36.3422 41.3951 36.5407 40.9948 36.863 40.6396C37.1853 40.2843 37.6143 39.5758 37.8164 39.0651C38.0186 38.5543 38.6414 37.6076 39.2006 36.9611C39.7598 36.3147 40.4687 35.1824 40.7759 34.4448C41.2024 33.4211 41.4524 33.1028 41.8326 33.0997C42.1066 33.0975 42.3162 33.2317 42.2984 33.3981C42.2242 34.0915 42.7518 33.8779 43.3443 32.9745C43.6936 32.442 43.882 31.9701 43.7631 31.9257C43.6441 31.8813 43.5468 31.681 43.5468 31.4805C43.5468 31.2801 43.0647 30.6291 42.4755 30.0339C41.4983 29.0467 41.4355 28.9158 41.7605 28.5426C42.0237 28.2402 42.0547 28.0183 41.8791 27.6922C41.5706 27.1192 42.0574 25.8359 42.5854 25.8307C42.8034 25.8285 42.8656 25.7514 42.7318 25.6492C42.4314 25.4198 42.2953 24.8989 42.3375 24.1401C42.4049 22.9282 42.1498 22.4212 41.2829 22.0448C40.8153 21.8417 40.1018 21.4132 39.6973 21.0925C39.2929 20.7719 38.7797 20.5096 38.557 20.5096C38.3343 20.5096 37.3219 20.2892 36.3072 20.02C36.2817 20.0132 36.2566 20.0066 36.2318 20H75.6184C74.4531 20.9155 73.839 21.7982 74.3483 22.1313C74.5111 22.2377 74.7695 22.6214 74.9226 22.9838C75.0988 23.4011 75.4385 23.6922 75.8491 23.7776C76.2057 23.8518 77.1262 24.2343 77.8946 24.6276C78.6631 25.021 79.6062 25.414 79.9904 25.501C81.0482 25.7407 81.0575 25.7659 80.5648 27.065C80.1434 28.1765 80.1348 28.3351 80.4615 28.9916C80.6572 29.3851 80.9457 29.7032 81.1025 29.6984C81.8656 29.6755 82.581 28.9436 83.0256 27.7312C83.4493 26.5756 83.6424 26.36 84.8585 25.6849C86.6533 24.6884 87.3997 23.7071 87.2008 22.6051C87.0713 21.8873 87.1386 21.7189 87.7297 21.2814C88.0599 21.037 88.485 20.4907 88.7376 20H94.4163C94.4251 20.0201 94.4326 20.0399 94.4385 20.0594C94.511 20.2969 94.4508 20.7235 94.3047 21.0073C94.0833 21.4372 94.1251 21.6187 94.5551 22.0944L95.0712 22.6655L95.914 22.2114C96.3776 21.9616 97.1205 21.4744 97.565 21.1287L98.3732 20.5001L98.5631 21.0336C98.6676 21.3271 98.6972 21.7183 98.629 21.903C98.5608 22.0877 98.6138 22.4503 98.7469 22.7086C98.8965 22.9993 98.9082 23.328 98.7774 23.5709C98.63 23.8448 98.7285 24.2607 99.1033 24.9465C99.6402 25.929 99.6402 25.9298 99.1687 26.2731C98.5483 26.7247 98.9464 27.2038 99.6273 26.825C100.304 26.4488 101.078 26.4977 101.555 26.9468C102.261 27.6107 101.674 28.4049 99.8008 29.321C97.7631 30.3174 96.8549 30.5148 94.1953 30.5393C92.2314 30.5573 91.9713 30.6224 90.0619 31.5738C88.9412 32.1322 88.0243 32.6848 88.0243 32.8019C88.0243 33.3014 88.3775 33.2579 89.7322 32.5917C90.5305 32.1992 91.5594 31.8857 92.0495 31.8856C92.8865 31.8854 92.917 31.9123 92.6557 32.4199C92.5043 32.7139 92.1777 33.1251 91.93 33.3336C91.5405 33.6614 91.5177 33.7998 91.7615 34.3559C92.1271 35.19 93.082 35.5913 94.2241 35.391L95.1268 35.2327L94.4327 35.7304C94.051 36.0041 93.4222 36.2991 93.0355 36.3859C92.6488 36.4727 91.854 36.7942 91.2693 37.1004C90.6757 37.4112 90.0795 37.5757 89.9193 37.4728C89.5507 37.2361 89.9397 36.8809 91.1371 36.3609C92.202 35.8984 92.0317 35.4072 90.8841 35.6309C90.4371 35.7181 88.9876 36.2856 87.663 36.892C85.5955 37.8386 85.2348 38.0885 85.1144 38.6581C84.9664 39.3583 84.4617 39.6895 82.687 40.2507C82.1208 40.4297 81.3873 40.8623 81.0569 41.2121C80.7265 41.5618 80.0938 42.0855 79.651 42.3758C79.2082 42.666 78.7842 43.1746 78.7088 43.5059C78.5846 44.0519 78.5557 44.0649 78.4002 43.6443C78.1088 42.8561 77.6698 43.6266 77.6445 44.9705C77.6186 46.3473 76.9471 47.2865 75.4745 48.0057C73.9646 48.7431 71.8161 50.4855 71.3808 51.3257C70.9964 52.0674 70.9803 52.3564 71.2171 54.2629C71.438 56.0415 71.4248 56.4878 71.1341 57.0721C70.917 57.5085 70.6638 57.717 70.453 57.633C69.9534 57.4337 69.3422 55.2966 69.5135 54.3476C69.6325 53.6885 69.5536 53.4387 69.0811 52.9772C68.7002 52.6053 68.3486 52.4639 68.0497 52.5625C67.8002 52.6448 67.095 52.4887 66.4816 52.2154C65.5418 51.7967 65.2419 51.7616 64.571 51.9918C64.1161 52.1478 63.6641 52.5179 63.5161 52.8555C63.2959 53.3578 63.1501 53.4223 62.542 53.2863C62.1487 53.1984 61.5439 52.9762 61.198 52.7925C60.3462 52.3402 59.8692 52.3717 58.9124 52.9435C58.4661 53.2103 57.5554 53.7207 56.8887 54.0779C56.1224 54.4884 55.596 54.9556 55.458 55.3478C55.3379 55.689 54.9085 57.0191 54.5038 58.3036L53.768 60.639L54.1438 62.1465C54.8343 64.9162 55.7951 65.7454 57.7968 65.2992C59.3058 64.9628 60.2121 64.2812 60.5452 63.2321C60.7568 62.5658 60.985 62.3455 61.6681 62.1483C62.6962 61.8515 63.1256 61.8406 63.5204 62.101C63.8463 62.316 63.7317 62.6697 62.2727 65.9529C61.2716 68.2057 61.3437 68.4072 63.0588 68.1501C64.6214 67.9158 66.0498 68.0956 66.2166 68.5476C66.2817 68.7237 66.1759 69.9126 65.9815 71.1894C65.6338 73.4736 65.6363 73.5247 66.1369 74.3664C66.4166 74.837 66.9412 75.3809 67.3026 75.5751C67.8794 75.8851 68.0604 75.8844 68.7862 75.5692C69.9396 75.0683 70.5659 75.1213 71.367 75.7875C72.0075 76.3201 72.0981 76.3352 72.6014 75.9924C72.9002 75.7889 73.3078 75.2846 73.5072 74.8717C73.9568 73.9408 74.7144 73.2864 75.3507 73.2793C75.6166 73.2763 76.0802 73.0016 76.381 72.6688C76.9919 71.9929 78.0675 71.7728 77.5418 72.4312C77.1006 72.9838 76.8483 74.761 77.1327 75.3133C77.3695 75.7732 77.3885 75.7705 77.8194 75.2175C78.1261 74.8237 78.188 74.5712 78.0204 74.3969C77.6204 73.9812 77.7408 73.6357 78.485 73.0638C79.2577 72.47 79.8555 72.531 80.5223 73.2715C81.0111 73.8145 83.6215 74.5484 84.3696 74.3533C85.5088 74.0561 88.5871 76.0015 89.7437 77.7496C90.2945 78.582 92.0539 79.4196 92.8275 79.2178C94.4189 78.8027 96.6007 80.4599 97.1109 82.4714C97.2629 83.0704 97.492 83.6284 97.62 83.7113C97.9597 83.9313 97.4508 84.8005 96.3383 85.9005C95.6275 86.6033 95.4578 86.9059 95.6578 87.1137C95.8577 87.3216 96.1864 87.1394 96.9757 86.3832C98.1236 85.2835 98.5067 85.1718 99.0817 85.7695C99.4316 86.1331 99.4208 86.2072 98.9413 86.7377C98.6558 87.0536 98.257 87.319 98.0552 87.3275C97.8425 87.3364 97.9285 87.4425 98.2597 87.5799C98.7146 87.7687 98.9519 87.7156 99.424 87.3191C100.653 86.2866 100.943 86.237 102.035 86.8712C102.745 87.2835 103.029 87.5974 102.993 87.9293C102.894 88.8523 103.103 89.0567 103.719 88.6374C104.208 88.3042 104.544 88.2884 106.181 88.5213C107.922 88.7692 108.151 88.868 108.986 89.7364C109.606 90.3811 110.304 90.8051 111.18 91.0699C112.357 91.4255 112.485 91.5339 112.699 92.3577C113.008 93.5522 112.645 94.8777 111.665 96.1368C111.246 96.6746 110.733 97.4642 110.524 97.8914C110.315 98.3186 109.872 98.9518 109.538 99.2986C108.973 99.8857 108.942 100.033 109.082 101.426C109.358 104.149 108.076 109.23 106.84 110.316C106.438 110.67 106.093 110.753 105.455 110.65C104.93 110.566 104.542 110.62 104.44 110.793C104.348 110.946 103.84 111.27 103.31 111.513C102.779 111.755 101.99 112.269 101.555 112.655C100.803 113.322 100.778 113.396 101.031 114.193C101.323 115.113 101.127 116.201 100.501 117.129C100.299 117.429 100.133 117.94 100.133 118.264C100.133 118.587 99.8904 119.189 99.5935 119.601C99.2965 120.013 98.7237 120.956 98.3205 121.697C97.3286 123.519 96.7322 123.834 95.294 123.299C94.0458 122.834 93.3803 122.778 93.3803 123.139C93.3803 123.275 93.6291 123.504 93.9332 123.648C94.2373 123.792 94.7111 124.378 94.9862 124.951C95.3959 125.803 95.4392 126.099 95.2257 126.587C94.895 127.341 93.6302 127.975 92.4546 127.975C91.4134 127.975 91.1551 128.239 91.5147 128.938C91.7367 129.369 91.5874 130.062 91.1581 130.594C91.1233 130.637 90.7587 130.492 90.3479 130.271C89.3925 129.758 89.0383 130.063 89.4788 131ZM74.4361 35.758C73.5036 35.758 72.3458 36.7644 71.7237 38.1158C71.4035 38.8113 70.9189 39.5421 70.6469 39.7398C70.204 40.0618 70.1148 40.0559 69.7919 39.6834C69.4628 39.3038 69.5102 39.1305 70.3358 37.6943C71.3243 35.9748 72.0324 35.3849 73.3952 35.1456C73.8966 35.0576 74.2246 34.8838 74.1443 34.7488C74.0658 34.6167 73.756 34.5726 73.456 34.6509C73.1542 34.7296 72.5582 34.6185 72.1216 34.4021C71.3968 34.0429 71.2739 34.0427 70.6098 34.3996C70.0447 34.7033 69.7448 34.732 69.2361 34.531L68.5854 34.2738L69.1648 33.8111C69.4835 33.5566 69.8291 33.3459 69.9327 33.343C70.0363 33.34 70.0602 33.2353 69.9859 33.1102C69.9115 32.9851 70.0363 32.8903 70.2632 32.8994C70.4901 32.9085 71.1473 32.7799 71.7237 32.6136C73.3263 32.1512 74.0586 32.2207 74.5399 32.881C74.7734 33.2014 74.9083 33.6789 74.8427 33.9533C74.6659 34.6935 75.4945 35.3954 76.1287 35.0426C77.0152 34.5496 78.2193 35.6734 77.7461 36.5522C77.5899 36.8423 77.3523 36.927 76.9728 36.828C76.5628 36.7211 76.3889 36.8028 76.282 37.153C76.2035 37.4103 75.8849 37.7412 75.574 37.8884C75.1187 38.1041 74.9126 38.075 74.5132 37.7388L74.0174 37.3216L74.5006 36.6831C75.1151 35.8712 75.1072 35.758 74.4361 35.758ZM76.571 38.7562C76.8631 39.0598 76.7834 39.1702 75.9544 39.6098C75.4308 39.8875 74.7886 40.1147 74.5273 40.1147C73.6739 40.1147 74.028 39.4224 75.1439 38.9093C76.0943 38.4724 76.2789 38.4526 76.571 38.7562ZM80.2444 37.1595C80.5864 37.3585 80.5685 37.4278 80.0834 37.7809C79.4015 38.2774 78.2439 38.3108 78.2439 37.8341C78.2439 37.3713 79.7408 36.8666 80.2444 37.1595Z" fill="white"/>
<path d="M248 87.9699V91.7202C247.807 91.744 247.605 91.7046 247.405 91.5866C246.55 91.08 245.007 89.12 244.504 87.9018C244.233 87.2447 243.612 86.1624 243.124 85.4968C242.636 84.8312 242.076 83.9599 241.879 83.5605C241.683 83.1612 241.085 82.3987 240.552 81.8663C239.427 80.7436 238.736 79.5638 239.207 79.5722C239.818 79.5832 241.391 80.4922 242.066 81.2242C243.927 83.2436 244.308 83.603 245.187 84.1656C246.035 84.7086 246.436 85.2737 246.476 85.9809C246.484 86.114 246.725 86.4952 247.012 86.828C247.248 87.101 247.654 87.5712 248 87.9699Z" fill="white"/>
<path fill-rule="evenodd" clip-rule="evenodd" d="M248 65.5038V75.765C247.949 75.7559 247.909 75.7316 247.884 75.6895C247.805 75.5566 247.802 75.2464 247.877 75.0001C247.953 74.7538 247.949 74.3756 247.869 74.1596C247.754 73.8488 247.627 73.8208 247.26 74.0254C246.877 74.2384 246.729 74.1844 246.42 73.7184C245.66 72.5731 243.457 70.7325 242.846 70.7325C242.631 70.7325 242.548 71.0014 242.585 71.5797C242.615 72.0456 242.523 72.954 242.382 73.5983C242.152 74.6481 242.176 74.8405 242.609 75.4498C242.875 75.8238 243.159 76.4036 243.24 76.7382C243.322 77.078 243.995 77.854 244.766 78.4961C246.049 79.5662 246.184 79.7775 246.725 81.5551C247.044 82.6053 247.305 83.5678 247.305 83.6941C247.305 84.1046 246.819 83.9382 245.803 83.1804C244.754 82.3971 244.084 81.1577 243.525 78.9672C243.282 78.016 243.016 77.6083 242.261 77.0308C241.335 76.3227 241.307 76.2609 241.381 75.0892C241.424 74.4236 241.529 73.4802 241.614 72.9927C241.735 72.3064 241.635 71.8147 241.171 70.8143C240.842 70.1037 240.452 69.0124 240.306 68.3891C239.978 66.9967 239.515 66.7635 238.697 67.5785C238.358 67.9155 238.016 68.1911 237.936 68.1911C237.565 68.1911 237.056 67.3711 237.178 66.971C237.4 66.2445 236.036 63.712 235.238 63.3683C234.801 63.1802 234.401 62.7241 234.134 62.1081C233.67 61.0378 233.149 60.6282 232.628 60.9243C232.44 61.0317 231.684 61.2477 230.949 61.4044C229.601 61.6916 229.118 62.1157 229.302 62.8488C229.37 63.1188 229.135 63.3795 228.569 63.6598C228.111 63.8869 227.617 64.3438 227.472 64.6751C227.327 65.0063 227.007 65.3436 226.761 65.4246C226.516 65.5056 226.137 65.8761 225.919 66.2478C225.702 66.6195 225.054 67.2989 224.48 67.7575C223.694 68.3852 223.449 68.7363 223.488 69.1779C223.716 71.7589 223.366 73.9184 222.511 75.2008C221.677 76.4517 221.618 76.4866 220.913 76.1524C220.524 75.9685 220.285 75.6092 220.186 75.0608C220.105 74.6112 219.636 73.3445 219.144 72.2459C216.167 65.5988 215.726 64.3304 215.98 63.1301C216.151 62.319 215.74 61.0951 215.343 61.2337C215.183 61.2892 215.05 61.4887 215.047 61.6769C215.027 62.7817 213.833 62.9513 212.9 61.9819L212.282 61.3395L212.814 61.135C213.412 60.905 213.357 60.2846 212.749 60.3983C212.532 60.4387 212.037 60.1937 211.649 59.8538C211.26 59.5138 210.852 59.2357 210.743 59.2357C210.633 59.2357 210.477 59.0167 210.395 58.749C210.18 58.0461 208.945 57.4346 208.326 57.7247C207.769 57.9859 202.714 57.9313 201.868 57.6551C201.563 57.5556 201 57.1002 200.615 56.6431C199.921 55.8172 199.91 55.8139 198.869 56.1057C197.882 56.3822 197.739 56.3561 196.409 55.6587C195.261 55.056 194.917 54.7309 194.562 53.9137C194.11 52.8709 193.105 52.1159 192.494 52.3596C192.302 52.4363 192.077 52.8175 191.995 53.2068C191.876 53.7658 191.997 54.129 192.568 54.936C192.965 55.4979 193.399 56.374 193.53 56.883C193.814 57.9762 194.373 58.3014 194.837 57.6425C195.116 57.2447 195.192 57.2309 195.381 57.5426C195.502 57.7416 195.567 58.0134 195.526 58.1465C195.397 58.5649 196.74 59.2534 197.367 59.0899C197.684 59.0072 198.361 58.4463 198.872 57.8434C199.676 56.8934 199.957 56.8293 199.82 57.627C199.727 58.1639 200.134 58.7932 200.806 59.1547C201.846 59.7131 203.293 60.9569 203.293 61.2913C203.293 61.4455 203.021 61.8358 202.688 62.1585C202.356 62.4812 201.877 63.1641 201.625 63.6759C201.011 64.9197 199.233 66.7389 198.631 66.7389C197.935 66.7389 196.899 67.3497 196.487 68.0035C196.292 68.3132 195.779 68.7501 195.346 68.9744C193.133 70.1228 190.468 71.2871 189.718 71.4334C188.916 71.5897 188.852 71.5519 188.427 70.6812C188.181 70.1769 187.902 69.1653 187.807 68.4332C187.683 67.4809 187.443 66.8756 186.964 66.3069C186.595 65.8696 186.294 65.4069 186.294 65.2785C186.294 65.1502 185.874 64.5951 185.36 64.045C184.721 63.3599 184.307 62.6165 184.048 61.6849C183.84 60.9369 183.417 59.9981 183.107 59.5988C180.97 56.8403 180.337 55.8676 180.019 54.8519C179.596 53.5057 179.239 53.2883 179.075 54.2771L178.958 54.979L178.17 53.9452C176.956 52.3522 176.803 53.0763 177.943 55.0211C178.482 55.9414 179.341 57.5656 179.853 58.6306C180.364 59.6956 181.027 60.9039 181.326 61.3159C181.634 61.74 181.87 62.403 181.87 62.8445C181.87 63.7566 182.131 64.3258 183.16 65.6497C183.573 66.1822 183.982 66.9596 184.068 67.3773C184.178 67.913 184.627 68.4732 185.594 69.2788C187.062 70.5031 188.014 71.781 188.25 72.846C188.339 73.246 188.675 73.6567 189.101 73.8858C189.75 74.2348 189.979 74.2252 192.031 73.7631C193.255 73.4874 194.552 73.1031 194.913 72.9092L195.569 72.5566L195.725 73.5147C195.866 74.3853 195.714 74.8046 194.056 78.1093C192.274 81.6626 192.191 81.7801 190.418 83.2343C189.421 84.053 188.377 85.0552 188.098 85.4615C187.82 85.8678 186.929 86.9651 186.119 87.9C183.755 90.6283 183.434 93.0278 185.002 96.244C185.4 97.0609 185.556 97.6793 185.461 98.0703C185.383 98.3954 185.433 99.2166 185.573 99.8952C185.794 100.964 185.769 101.249 185.387 102.026C184.836 103.148 184.398 103.551 182.859 104.352C182.187 104.703 181.637 105.093 181.637 105.219C181.637 105.345 181.165 106.001 180.589 106.675C180.012 107.35 179.541 108.011 179.541 108.145C179.541 108.279 179.757 108.829 180.021 109.367C180.813 110.98 180.281 112.148 178.383 112.965C177.583 113.31 177.321 114.013 177.518 115.28C177.622 115.944 177.556 116.165 177.194 116.367C176.944 116.506 176.492 117.023 176.19 117.517C175.235 119.075 172.491 121.832 171.245 122.486C170.205 123.031 169.939 123.079 169.174 122.86C168.501 122.666 167.957 122.697 166.827 122.992C165.723 123.28 165.356 123.402 165.083 123.291C164.903 123.218 164.764 123.045 164.483 122.753C163.99 122.24 163.907 121.978 164.017 121.272C164.121 120.608 164.022 120.217 163.579 119.54C163.265 119.058 163.007 118.546 163.007 118.402C163.007 118.257 162.596 117.565 162.092 116.864C161.314 115.78 161.155 115.347 161.026 113.976C160.8 111.557 160.057 108.938 159.058 107.04C158.567 106.107 158.095 104.896 158.01 104.348C157.828 103.183 158.283 101.449 159.322 99.3475L160.014 97.9496L159.625 96.7339C159.408 96.0538 159.302 95.249 159.384 94.9073C159.481 94.5073 159.377 94.0308 159.083 93.5272C158.837 93.1041 158.471 92.1589 158.27 91.4268C158.002 90.4488 157.628 89.8129 156.86 89.0305C155.385 87.5255 155.193 86.933 155.651 85.2953C156.583 81.9615 155.576 80.0171 153.115 80.4007C152.157 80.55 152.12 80.5314 151.985 79.8278C151.881 79.288 151.599 78.9705 150.893 78.5957C149.974 78.1087 149.581 78.1068 148.453 78.5843C148.197 78.6927 147.149 79.0685 146.125 79.4194C144.584 79.947 144.121 80.015 143.451 79.8129C142.815 79.6214 142.28 79.6709 140.98 80.0417C139.637 80.4247 139.15 80.4659 138.424 80.2575C136.909 79.8229 134.307 77.385 133.937 76.054C133.651 75.024 131.869 72.6235 131.263 72.4506C130.878 72.3407 130.83 72.2556 131.066 72.0973C131.303 71.9381 131.262 71.8576 130.891 71.7569C130.303 71.5969 130.244 71.097 130.814 71.0919C131.162 71.0887 131.17 71.0541 130.872 70.8535C130.652 70.7058 130.627 70.6175 130.806 70.6152C130.991 70.6128 130.92 70.3143 130.603 69.7553C130.156 68.9684 130.147 68.8645 130.488 68.4725C131.53 67.276 131.758 64.6997 130.966 63.0766C130.588 62.3017 130.831 61.2313 131.638 60.1185C131.942 59.6995 132.535 58.68 132.956 57.853C133.693 56.4063 135.335 54.3949 135.779 54.3949C136.271 54.3949 137.858 52.6218 137.858 52.0723C137.858 50.8316 138.571 49.5945 139.735 48.8185C140.36 48.4015 141.093 47.6884 141.363 47.234C141.916 46.3044 141.994 46.2741 142.638 46.7404C142.891 46.9234 143.518 47.1465 144.033 47.2362C144.818 47.3731 145.193 47.2746 146.362 46.625C148.372 45.5073 149.615 45.2282 151.916 45.3774C153.433 45.4758 154.116 45.4129 154.852 45.107C155.935 44.6565 156.871 44.9231 156.618 45.6098C156.541 45.8161 156.588 46.1213 156.721 46.2879C156.888 46.4976 156.887 46.798 156.717 47.2637C156.503 47.8487 156.55 48.0229 157.08 48.5981C157.416 48.962 158.016 49.3275 158.415 49.4103C160.286 49.7994 160.819 50.0513 161.205 50.7313C161.488 51.2295 161.859 51.4852 162.473 51.6048C162.95 51.6979 163.643 51.9366 164.013 52.1353C164.641 52.4727 164.722 52.4605 165.246 51.9492C165.597 51.6055 165.757 51.2416 165.675 50.9712C165.602 50.7344 165.657 50.3186 165.797 50.0474C166.157 49.3477 167.18 49.4163 168.777 50.2474C170.518 51.1529 173.817 51.799 174.987 51.4632C175.55 51.3017 176.091 51.2996 176.584 51.4569C178.193 51.971 179.017 51.5686 179.236 50.1617C179.309 49.6944 179.434 49.3121 179.513 49.3121C179.664 49.3121 179.742 48.6095 179.764 47.0733C179.771 46.5741 179.885 46.1656 180.016 46.1656C180.173 46.1656 180.166 45.9903 179.994 45.6572C179.708 45.101 179.127 45.1137 177.737 45.7066C177.078 45.9877 176.894 45.9758 176.304 45.6132C175.538 45.1431 174.752 45.0726 174.526 45.4537C174.357 45.737 173.167 45.5384 172.521 45.1192C172.057 44.8181 171.623 43.9217 171.623 43.2635C171.623 43.0111 171.388 42.6319 171.099 42.4209C170.653 42.0944 170.628 42.002 170.925 41.7997C171.117 41.669 171.512 41.6203 171.803 41.6914C172.174 41.7821 172.515 41.6302 172.946 41.1826C173.351 40.7613 173.844 40.5288 174.396 40.4983C174.856 40.4729 175.523 40.2535 175.877 40.0108C176.647 39.4837 178.394 39.6302 179.749 40.3353C181.577 41.2863 183.2 41.2304 183.854 40.1939C184.194 39.6547 184.196 39.5415 183.873 39.0298C183.676 38.718 182.732 37.9997 181.775 37.4336L180.034 36.4042L180.361 35.7487C180.54 35.3882 180.628 35.0322 180.556 34.9576C180.484 34.8831 180.512 34.6786 180.617 34.5034C180.722 34.3281 180.829 34.0441 180.854 33.8722C180.908 33.5056 180.532 33.6068 178.68 34.458C177.605 34.9522 177.445 35.1036 177.684 35.4023C177.84 35.5979 178.191 35.7628 178.463 35.7687C178.845 35.7769 178.755 35.8911 178.067 36.2682C177.232 36.7261 177.139 36.7321 176.596 36.3623C176.132 36.0462 176.071 35.8991 176.291 35.6236C176.51 35.3501 176.477 35.2449 176.132 35.1102C175.894 35.0171 175.586 34.7851 175.449 34.5949C174.782 33.6708 172.666 36.1017 172.05 38.4989C171.761 39.6241 171.771 39.6826 172.315 40.109L172.879 40.5515L171.844 40.7734C171.274 40.8955 170.507 40.9097 170.138 40.8051C169.458 40.6119 168.596 40.903 168.596 41.3258C168.596 41.45 168.438 41.4885 168.244 41.4112C168.05 41.3339 167.743 41.3993 167.56 41.5565C167.278 41.8002 167.31 41.9999 167.778 42.9153C168.285 43.907 168.301 44.0426 167.985 44.7019C167.588 45.528 167.219 45.4665 166.659 44.481C166.269 43.794 166.271 43.7782 166.788 43.702C167.44 43.6058 167.482 43.1745 166.85 43.0694C165.407 42.8296 164.637 42.0394 164.637 40.7974C164.637 39.8283 163.773 38.76 162.725 38.4336C162.18 38.2639 161.588 37.9078 161.409 37.6421C161.23 37.3764 160.706 36.9951 160.245 36.7947C159.783 36.5943 159.267 36.2242 159.097 35.9723C158.853 35.6107 158.693 35.5672 158.336 35.7656C158.088 35.9039 157.884 36.1728 157.884 36.3632C157.884 36.9916 160.852 39.8346 162.303 40.5958C163.842 41.403 164.082 41.6912 163.013 41.4472C162.06 41.2296 161.801 41.4474 162.127 42.1909C162.355 42.7131 162.318 42.872 161.857 43.3319L161.322 43.8663L161.444 43.1452C161.637 42.0007 160.186 40.3567 158.982 40.3567C158.54 40.3567 156.845 38.6471 156.401 37.7543C155.926 36.8003 155.398 36.616 154.65 37.1433C153.522 37.9376 152.677 38.2062 151.793 38.051C150.619 37.8447 149.88 38.2704 150.067 39.0454C150.165 39.45 150.111 39.6306 149.891 39.6306C149.716 39.6306 149.269 39.9027 148.897 40.2354C148.525 40.568 148.14 40.8403 148.042 40.8405C147.754 40.8409 146.941 42.3701 146.94 42.9133C146.939 43.4329 146.029 44.4566 145.15 44.9259C144.87 45.0752 144.219 45.1975 143.703 45.1975C142.993 45.1975 142.702 45.3191 142.507 45.6975C142.252 46.193 142.244 46.1919 141.647 45.5716C141.087 44.9896 140.765 44.844 139.635 44.6623C139.041 44.5669 138.941 43.1701 139.385 41.1801C139.575 40.3294 139.668 39.3761 139.592 39.0617C139.372 38.1479 140.062 37.609 141.218 37.7935C143.886 38.2195 145.447 38.2431 145.813 37.8628C146.315 37.3403 146.542 35.6172 146.235 34.651C146.035 34.0209 145.76 33.7632 144.939 33.4373C143.731 32.9579 143.706 32.4942 144.886 32.4819C145.336 32.4772 145.985 32.2821 146.329 32.0483C146.672 31.8145 147.051 31.6866 147.172 31.7642C147.501 31.9756 148.748 31.2289 149.162 30.5722C149.362 30.2548 149.756 29.9341 150.037 29.8596C150.319 29.785 151.073 29.2167 151.713 28.5967C152.621 27.7177 153.098 27.4421 153.876 27.3455C154.84 27.2259 155.81 26.4015 155.355 26.0884C155.072 25.8938 154.836 24.7218 154.993 24.2949C155.068 24.0926 155.398 23.7442 155.726 23.5207L156.323 23.1142L156.169 24.1102C156.036 24.9745 156.07 25.0967 156.426 25.0348C156.652 24.9957 157.074 24.8281 157.364 24.6625C157.805 24.4102 157.914 24.4225 158.03 24.7379C158.23 25.2784 157.675 25.914 157.292 25.5836C157.08 25.4011 156.946 25.4077 156.828 25.6064C156.706 25.8115 156.611 25.8003 156.471 25.5647C156.366 25.3879 156.226 25.2989 156.161 25.3668C156.095 25.4347 156.282 25.8026 156.574 26.1844C157.068 26.8279 157.162 26.8584 157.866 26.6035C158.468 26.3851 158.758 26.4 159.271 26.6758C159.85 26.9871 160.046 26.9723 161.159 26.5326C162.134 26.1474 162.518 26.098 162.95 26.3025C163.347 26.4905 163.641 26.4866 164.01 26.2885C165.058 25.726 165.348 25.3018 165.218 24.5232C165.025 23.3691 165.378 22.991 166.308 23.3558C166.941 23.604 167.125 23.5942 167.411 23.297C167.714 22.9823 167.688 22.866 167.192 22.3171C166.715 21.789 166.681 21.6577 166.972 21.4536C167.161 21.3212 167.868 21.2738 168.544 21.3482C169.781 21.4844 171.322 20.9822 171.054 20.5305C170.819 20.135 169.399 20.0207 168.196 20.3005C167.13 20.5486 166.85 20.5285 166.032 20.1453C165.93 20.0976 165.836 20.0493 165.748 20H248V62.7626C247.735 63.056 247.544 63.3961 247.432 63.7776C247.305 64.2117 247.529 64.8461 248 65.5038ZM195.842 44.1317C195.842 45.0533 195.756 45.2312 195.155 45.5543C194.777 45.7574 194.436 45.9182 194.398 45.9117C194.359 45.9051 193.608 45.5158 192.728 45.0465L191.128 44.1933L191.244 42.9406C191.389 41.3846 191.175 40.7839 190.009 39.4691C189.503 38.8983 189.088 38.2692 189.088 38.0712C189.088 37.8733 188.879 37.5947 188.623 37.4522C187.934 37.0693 188.04 36.7607 189.257 35.5993C191.143 33.7996 192.664 33.6946 193.756 35.2889C194.206 35.9463 194.046 36.4632 193.5 36.1125C193.095 35.8524 192.147 36.2136 191.881 36.729C191.531 37.41 191.931 38.0704 193.055 38.6665C193.563 38.9359 193.979 39.2669 193.979 39.402C193.979 39.5665 194.127 39.565 194.429 39.3973C194.801 39.1899 194.961 39.2675 195.36 39.8497C195.625 40.2362 195.842 40.6601 195.842 40.7917C195.842 41.1247 195.218 41.3396 194.77 41.161C194.431 41.0257 194.43 41.077 194.755 41.7308C194.951 42.1259 195.276 42.5908 195.477 42.7638C195.706 42.9611 195.842 43.471 195.842 44.1317Z" fill="white"/>
<path d="M113.379 20H114.862C114.599 20.173 114.354 20.2512 114.105 20.2533C113.994 20.2542 113.717 20.1548 113.379 20Z" fill="white"/>
<path d="M152.724 20H161.98C162.162 20.1822 162.371 20.3324 162.535 20.3865C163.25 20.6222 163.108 21.0645 162.087 21.7911C161.772 22.0146 161.353 22.6469 161.155 23.1962C160.907 23.8844 160.53 24.3541 159.941 24.7073C159.112 25.2051 159.074 25.2071 158.615 24.7758C158.356 24.5317 158.081 24.0338 158.004 23.6694C157.927 23.305 157.577 22.6499 157.226 22.2136L156.589 21.4203L155.781 21.9322C155.337 22.2137 154.764 22.4421 154.508 22.4396C153.769 22.4325 152.913 21.6028 152.856 20.8377C152.836 20.5718 152.784 20.2483 152.724 20Z" fill="white"/>
<path d="M33.5731 20H23.4034C23.2977 20.3588 23.0108 20.6458 22.5167 20.9114L21.8024 21.2953L22.459 21.6529C22.9696 21.931 23.2423 21.9506 23.6847 21.7411C24.2857 21.4565 24.786 21.5955 24.5555 21.9831C24.3684 22.2978 22.3454 23.3546 20.3766 24.1661C20.2389 24.2228 20.1135 24.2756 20 24.3246V24.7481C21.0322 24.4879 22.8328 23.7803 24.1754 23.0771C24.7757 22.7627 25.6335 22.4233 26.0818 22.3228C26.5301 22.2223 27.6941 21.7067 28.6685 21.1769C30.1123 20.392 30.5263 20.2616 30.9057 20.4727C31.3756 20.7341 32.4798 20.5323 33.5731 20Z" fill="white"/>
<path d="M187.816 111.142C187.988 112.571 188.082 112.775 188.739 113.163C188.976 113.303 189.1 113.385 189.234 113.412C189.428 113.45 189.645 113.371 190.262 113.179C191.243 112.873 191.583 112.257 192.182 109.701C192.369 108.902 193.014 106.834 193.615 105.105C194.739 101.874 194.805 101.227 194.159 99.7535L193.902 99.168L193.533 99.998C193.05 101.084 191.033 102.935 190.101 103.147C189.111 103.373 188.749 104.303 188.962 106.072C189.109 107.297 189.061 107.514 188.394 108.643C187.736 109.752 187.679 110.001 187.816 111.142Z" fill="white"/>
<path d="M199.8 108.369C199.672 108.369 199.567 108.478 199.567 108.611C199.567 108.745 199.672 108.854 199.8 108.854C199.928 108.854 200.033 108.745 200.033 108.611C200.033 108.478 199.928 108.369 199.8 108.369Z" fill="white"/>
<path d="M201.43 107.522C201.302 107.605 201.197 107.72 201.197 107.779C201.197 107.837 201.302 107.885 201.43 107.885C201.558 107.885 201.663 107.77 201.663 107.629C201.663 107.488 201.558 107.44 201.43 107.522Z" fill="white"/>
<path d="M189.075 99.414C188.939 99.414 188.893 99.5229 188.972 99.6561C189.051 99.7892 189.162 99.8981 189.219 99.8981C189.275 99.8981 189.321 99.7892 189.321 99.6561C189.321 99.5229 189.21 99.414 189.075 99.414Z" fill="white"/>
<path d="M200.732 91.1847C200.604 91.1847 200.499 91.2936 200.499 91.4268C200.499 91.5599 200.604 91.6688 200.732 91.6688C200.86 91.6688 200.965 91.5599 200.965 91.4268C200.965 91.2936 200.86 91.1847 200.732 91.1847Z" fill="white"/>
<path d="M153.46 84.5287C153.332 84.611 153.227 84.7263 153.227 84.785C153.227 84.8437 153.332 84.8918 153.46 84.8918C153.588 84.8918 153.693 84.7764 153.693 84.6354C153.693 84.4944 153.588 84.4464 153.46 84.5287Z" fill="white"/>
<path d="M154.857 81.6242C154.729 81.7065 154.624 81.8218 154.624 81.8805C154.624 81.9392 154.729 81.9873 154.857 81.9873C154.985 81.9873 155.09 81.8719 155.09 81.731C155.09 81.59 154.985 81.5419 154.857 81.6242Z" fill="white"/>
<path d="M223.957 75.7339C223.769 76.2572 223.917 78.2296 224.177 78.6691C224.321 78.9115 225.244 78.6216 225.469 78.2636C225.703 77.8896 225.476 77.1891 224.765 76.0969C224.171 75.1856 224.156 75.1788 223.957 75.7339Z" fill="white"/>
<path d="M86.7027 73.9172C86.787 74.0048 86.7392 74.2227 86.5966 74.4013C86.3943 74.6547 86.44 74.7261 86.8043 74.7261C87.0756 74.7261 87.3225 74.5232 87.3932 74.2421C87.4861 73.8729 87.4003 73.758 87.0322 73.758C86.7667 73.758 86.6184 73.8296 86.7027 73.9172Z" fill="white"/>
<path d="M80.1068 71.4909C80.1068 71.6284 80.1767 71.8136 80.2621 71.9023C80.3475 71.9911 80.4715 72.0074 80.5377 71.9387C80.6038 71.8699 80.534 71.6847 80.3824 71.5272C80.2153 71.3535 80.1068 71.3392 80.1068 71.4909Z" fill="white"/>
<path d="M79.0452 71.3376C78.9887 71.3376 78.9425 71.4465 78.9425 71.5796C78.9425 71.7127 79.0535 71.8217 79.1891 71.8217C79.3248 71.8217 79.371 71.7127 79.2918 71.5796C79.2127 71.4465 79.1017 71.3376 79.0452 71.3376Z" fill="white"/>
<path d="M89.9899 70.8535C89.9335 70.8535 89.8872 70.9624 89.8872 71.0956C89.8872 71.2287 89.9982 71.3376 90.1339 71.3376C90.2695 71.3376 90.3157 71.2287 90.2365 71.0956C90.1574 70.9624 90.0464 70.8535 89.9899 70.8535Z" fill="white"/>
<path d="M88.7229 69.2803C88.5948 69.3625 88.4901 69.4779 88.4901 69.5366C88.4901 69.5953 88.5948 69.6433 88.7229 69.6433C88.851 69.6433 88.9558 69.528 88.9558 69.387C88.9558 69.246 88.851 69.198 88.7229 69.2803Z" fill="white"/>
<path d="M125.283 68.4331C125.155 68.4331 125.05 68.542 125.05 68.6752C125.05 68.8083 125.155 68.9172 125.283 68.9172C125.411 68.9172 125.516 68.8083 125.516 68.6752C125.516 68.542 125.411 68.4331 125.283 68.4331Z" fill="white"/>
<path d="M88.0243 67.344C87.8962 67.4262 87.7915 67.6025 87.7915 67.7356C87.7915 67.8687 87.8962 67.9103 88.0243 67.828C88.1524 67.7458 88.2572 67.5695 88.2572 67.4364C88.2572 67.3033 88.1524 67.2617 88.0243 67.344Z" fill="white"/>
<path d="M86.0329 66.6465C85.8256 66.5639 85.7322 66.6044 85.8137 66.7416C85.892 66.8732 86.0546 66.9809 86.1751 66.9809C86.5101 66.9809 86.4363 66.8074 86.0329 66.6465Z" fill="white"/>
<path d="M122.941 66.4968C122.805 66.4968 122.759 66.6058 122.838 66.7389C122.917 66.872 123.028 66.9809 123.084 66.9809C123.141 66.9809 123.187 66.872 123.187 66.7389C123.187 66.6058 123.076 66.4968 122.941 66.4968Z" fill="white"/>
<path d="M86.8462 66.0128C86.7106 66.0128 86.6644 66.1217 86.7436 66.2548C86.8227 66.3879 86.9337 66.4968 86.9902 66.4968C87.0466 66.4968 87.0928 66.3879 87.0928 66.2548C87.0928 66.1217 86.9819 66.0128 86.8462 66.0128Z" fill="white"/>
<path d="M87.8941 66.0128C87.8377 66.0128 87.7915 66.1217 87.7915 66.2548C87.7915 66.3879 87.9024 66.4968 88.0381 66.4968C88.1737 66.4968 88.2199 66.3879 88.1407 66.2548C88.0616 66.1217 87.9506 66.0128 87.8941 66.0128Z" fill="white"/>
<path d="M71.4908 65.2665C71.4908 65.3885 71.6218 65.5433 71.7819 65.6104C71.942 65.6776 72.3873 65.7376 72.7716 65.7439C73.4352 65.7547 73.4476 65.7376 73.0181 65.4C72.5187 65.0073 71.4908 64.9175 71.4908 65.2665Z" fill="white"/>
<path d="M76.6491 65.3996C77.0041 65.3186 77.4655 65.3516 77.6744 65.4731C78.0914 65.7157 81.0883 65.0824 80.9136 64.7886C80.6508 64.3467 79.1005 63.8344 78.0259 63.8344C76.915 63.8344 76.8474 63.8676 77.072 64.3038C77.3884 64.9183 77.0579 65.1279 75.8199 65.0978C74.9775 65.0773 74.9331 65.102 75.4354 65.3108C75.7478 65.4407 76.294 65.4807 76.6491 65.3996Z" fill="white"/>
<path d="M82.818 65.0446C82.2082 65.0446 81.8652 65.3393 82.1412 65.6261C82.3862 65.8809 83.2026 65.686 83.3099 65.3471C83.3696 65.1587 83.1841 65.0446 82.818 65.0446Z" fill="white"/>
<path d="M84.4149 64.9571C84.2228 65.0337 84.0656 65.1392 84.0656 65.1915C84.0656 65.2438 84.2228 65.2866 84.4149 65.2866C84.607 65.2866 84.7642 65.1811 84.7642 65.0522C84.7642 64.9232 84.607 64.8804 84.4149 64.9571Z" fill="white"/>
<path d="M72.9069 63.3069C73.4358 63.3145 73.9274 63.3818 73.9993 63.4565C74.1628 63.6265 74.6946 63.5953 75.4495 63.3716C76.1144 63.1746 76.1121 63.1724 74.0523 62.027C71.5464 60.6336 70.8318 60.3513 69.5555 60.2504C68.221 60.145 66.3677 60.7021 66.3677 61.2087C66.3677 61.4857 66.4487 61.4733 67.5061 61.0335C68.6338 60.5645 69.571 60.7855 71.2496 61.9159C72.1057 62.4925 72.3541 62.781 72.1811 62.9977C72.0021 63.2218 72.1772 63.2964 72.9069 63.3069Z" fill="white"/>
<path d="M76.381 61.414C76.381 61.1108 76.1339 61.1108 75.6824 61.414C75.3999 61.6038 75.4333 61.6494 75.857 61.6524C76.1452 61.6544 76.381 61.5471 76.381 61.414Z" fill="white"/>
<path d="M78.2438 60.6274C78.244 60.3712 77.3668 60.4007 77.2113 60.6622C77.1405 60.7812 77.3439 60.8629 77.6631 60.8437C77.9824 60.8246 78.2437 60.7272 78.2438 60.6274Z" fill="white"/>
<path d="M72.7017 57.2994C72.2882 57.2994 72.2341 57.8853 72.6065 58.3295C72.8024 58.5633 73.0245 58.6845 73.1 58.5989C73.1755 58.5133 73.1174 58.3985 72.9709 58.3438C72.8244 58.2891 72.7581 58.0317 72.8234 57.7718C72.8888 57.512 72.834 57.2994 72.7017 57.2994Z" fill="white"/>
<path d="M73.9249 55.8989C73.8609 55.9654 73.8763 56.2036 73.9592 56.428C74.042 56.6525 74.1623 56.7817 74.2263 56.7152C74.2903 56.6486 74.2749 56.4105 74.192 56.186C74.1092 55.9615 73.989 55.8323 73.9249 55.8989Z" fill="white"/>
<path d="M72.9434 55.8471C72.6995 55.8471 72.4999 56.0105 72.4999 56.2102C72.4999 56.4099 72.5423 56.5733 72.5941 56.5733C72.646 56.5733 72.8456 56.4099 73.0377 56.2102C73.3482 55.8875 73.3377 55.8471 72.9434 55.8471Z" fill="white"/>
<path d="M87.3257 49.1911C87.1976 49.2734 87.0928 49.3887 87.0928 49.4474C87.0928 49.5061 87.1976 49.5542 87.3257 49.5542C87.4538 49.5542 87.5586 49.4388 87.5586 49.2978C87.5586 49.1569 87.4538 49.1088 87.3257 49.1911Z" fill="white"/>
<path d="M177.198 46.8917C176.756 46.8917 176.608 47.1514 176.886 47.4403C177.088 47.6501 178.096 47.1271 178.24 46.7379C178.38 46.3587 178.011 46.2856 177.794 46.6497C177.715 46.7828 177.447 46.8917 177.198 46.8917Z" fill="white"/>
<path d="M168.247 46.689L168.945 47.0215C169.747 47.403 170.838 47.4764 171.025 47.1613C171.193 46.8784 170.338 46.6523 169.178 46.6727L168.247 46.689Z" fill="white"/>
<path d="M159.049 43.917C158.563 44.0492 158.606 44.1111 159.538 44.6071C160.464 45.0996 160.577 45.1134 160.721 44.7511C160.808 44.5307 160.886 44.2823 160.895 44.1991C160.922 43.9557 159.632 43.7586 159.049 43.917Z" fill="white"/>
<path d="M154.947 40.8854C154.685 41.1576 154.669 41.3876 154.871 41.9885C155.204 42.982 155.788 42.7832 155.788 41.6763C155.788 40.7391 155.421 40.3933 154.947 40.8854Z" fill="white"/>
<path d="M150.142 42.1115C150.284 41.6664 149.576 41.7421 149.41 42.1896C149.312 42.455 149.387 42.5466 149.657 42.4921C149.87 42.4492 150.088 42.2779 150.142 42.1115Z" fill="white"/>
<path d="M155.439 38.8169C155.077 38.9615 154.975 39.4305 155.245 39.7113C155.561 40.0391 155.788 39.8561 155.788 39.2751C155.788 38.8434 155.692 38.7163 155.439 38.8169Z" fill="white"/>
<path d="M99.4275 33.8217C99.3034 33.8217 99.2019 33.985 99.2019 34.1847C99.2019 34.3844 99.2431 34.5478 99.2934 34.5478C99.3438 34.5478 99.4453 34.3844 99.519 34.1847C99.5927 33.985 99.5515 33.8217 99.4275 33.8217Z" fill="white"/>
<path d="M97.1176 33.3091L97.9851 33.4037C99.7231 33.5932 100.734 33.5717 101.58 33.3274C102.387 33.0945 102.427 33.0389 102.188 32.4935C102.039 32.1537 101.654 31.8456 101.267 31.7573C100.381 31.5551 100.05 30.9296 100.535 30.3728C100.749 30.1269 100.795 29.949 100.643 29.949C100.5 29.949 99.6479 30.7051 98.75 31.6291L97.1176 33.3091Z" fill="white"/>
<path d="M40.881 30.3407C40.3461 30.5541 40.4361 30.884 41.2428 31.6672C41.6405 32.0534 42.1645 32.3694 42.4071 32.3694C42.9249 32.3694 42.9311 32.3393 42.5794 31.5371C42.2443 30.7725 41.36 30.1497 40.881 30.3407Z" fill="white"/>
<path d="M144.916 29.9533C144.556 30.0883 144.052 30.3062 143.796 30.4375C143.44 30.6202 143.522 30.6394 144.145 30.5194C144.593 30.4331 145.776 30.2402 146.772 30.0907C148.127 29.8875 148.517 29.7494 148.319 29.5435C148.121 29.3375 148.207 29.164 148.659 28.8559C149.327 28.4013 149.242 27.9 148.531 28.0934C148.184 28.1877 147.989 28.0095 147.691 27.3279C147.071 25.9052 146.462 25.0917 145.83 24.842L145.242 24.6094L146.286 23.4538L145.74 23.3677C145.439 23.3203 145.219 23.1479 145.251 22.9847C145.283 22.8215 145.231 22.6898 145.135 22.6916C144.495 22.7052 143.806 23.9579 144.106 24.5637C144.221 24.7967 144.268 25.1234 144.211 25.2898C144.11 25.5804 144.399 25.6943 145.02 25.61C145.29 25.5735 145.775 26.5139 145.775 27.0729C145.775 27.2043 145.461 27.4257 145.077 27.5648C144.685 27.707 144.445 27.9297 144.53 28.073C144.614 28.2134 144.49 28.4739 144.256 28.652C143.862 28.9513 143.887 28.9876 144.575 29.1307C145.578 29.3392 145.709 29.6559 144.916 29.9533Z" fill="white"/>
<path d="M140.071 28.0111C139.88 28.3945 139.789 28.8847 139.869 29.1005C139.962 29.3535 140.148 29.4326 140.391 29.3232C140.599 29.2299 141.214 28.9929 141.758 28.7965C142.588 28.497 142.748 28.3356 142.748 27.7959C142.748 27.4419 142.911 26.91 143.111 26.6139C143.31 26.3179 143.409 25.9669 143.33 25.834C143.114 25.4717 141.68 25.5431 141.37 25.9317C141.221 26.1183 140.841 26.3382 140.526 26.4204C139.933 26.575 139.782 26.9058 140.186 27.1651C140.332 27.2591 140.29 27.5713 140.071 28.0111Z" fill="white"/>
<path d="M144.378 26.4395C144.25 26.5218 144.145 26.6371 144.145 26.6958C144.145 26.7545 144.25 26.8026 144.378 26.8026C144.506 26.8026 144.611 26.6872 144.611 26.5462C144.611 26.4053 144.506 26.3572 144.378 26.4395Z" fill="white"/>
<path d="M40.8716 24.8639C40.5853 25.1108 40.5708 25.2439 40.7989 25.5296C41.0451 25.8379 41.1142 25.8166 41.3041 25.3742C41.5796 24.7326 41.3448 24.4556 40.8716 24.8639Z" fill="white"/>
<path d="M40.6385 23.1698C40.4478 23.3343 40.3561 23.5771 40.4348 23.7093C40.5216 23.8554 40.6563 23.8209 40.7779 23.6214C41.0962 23.0993 41.0171 22.8432 40.6385 23.1698Z" fill="white"/>
<path d="M27.091 22.8347C26.0893 23.0869 25.3832 23.3847 25.3832 23.5549C25.3832 23.639 25.5666 23.6341 25.7907 23.544C26.0149 23.4539 26.4886 23.3192 26.8435 23.2448C27.1983 23.1704 27.5477 23.0102 27.6198 22.889C27.6952 22.7621 27.4707 22.739 27.091 22.8347Z" fill="white"/>
<path d="M163.9 20.3371C163.411 20.3754 163.335 20.6532 163.764 20.8333C164.246 21.0355 164.327 21.009 164.327 20.6487C164.327 20.4589 164.135 20.3187 163.9 20.3371Z" fill="white"/>
<circle opacity="0.1" cx="75" cy="47" r="4" fill="#6092C0"/>
<circle opacity="0.1" cx="85" cy="97" r="4" fill="#6092C0"/>
<circle opacity="0.1" cx="142" cy="74" r="3.5" fill="#1BA9F5" stroke="#6092C0"/>
<circle opacity="0.1" cx="178" cy="76" r="4" fill="#6092C0"/>
<circle opacity="0.1" cx="147" cy="33" r="4" fill="#6092C0"/>
<circle opacity="0.1" cx="40" cy="50" r="7.5" fill="#6092C0" stroke="#6092C0"/>
<circle opacity="0.1" cx="170" cy="117" r="7.5" fill="#6092C0" stroke="#6092C0"/>
<circle opacity="0.1" cx="221" cy="69" r="7.5" fill="#6092C0" stroke="#6092C0"/>
<circle cx="75" cy="47" r="3.5" stroke="#6092C0"/>
<circle cx="85" cy="97" r="3.5" stroke="#6092C0"/>
<circle cx="142" cy="74" r="3.5" stroke="#6092C0"/>
<circle cx="178" cy="76" r="3.5" stroke="#6092C0"/>
<circle cx="147" cy="33" r="3.5" stroke="#6092C0"/>
<circle cx="40" cy="50" r="7.5" stroke="#6092C0"/>
<circle cx="170" cy="117" r="7.5" stroke="#6092C0"/>
<circle cx="221" cy="69" r="7.5" stroke="#6092C0"/>
<circle opacity="0.1" cx="67" cy="75" r="8" fill="#D36086"/>
<circle opacity="0.1" cx="187" cy="61" r="8" fill="#D36086"/>
<circle opacity="0.1" cx="192" cy="34" r="4" fill="#D36086"/>
<circle opacity="0.1" cx="111" cy="95" r="4" fill="#D36086"/>
<circle cx="67" cy="75" r="7.5" stroke="#D36086"/>
<circle cx="187" cy="61" r="7.5" stroke="#D36086"/>
<circle cx="192" cy="34" r="3.5" stroke="#D36086"/>
<circle cx="111" cy="95" r="3.5" stroke="#D36086"/>
<g filter="url(#filter0_d)">
<rect x="204" y="12" width="52" height="46" rx="2" fill="white"/>
</g>
<rect x="208" y="16" width="26" height="2" rx="1" fill="#6A717D"/>
<rect x="212" y="22" width="29" height="2" rx="1" fill="#98A2B3"/>
<rect x="212" y="28" width="23" height="2" rx="1" fill="#98A2B3"/>
<rect x="212" y="34" width="26" height="2" rx="1" fill="#98A2B3"/>
<rect x="212" y="40" width="33" height="2" rx="1" fill="#98A2B3"/>
<rect x="208" y="46" width="44" height="8" rx="1" fill="#54B399"/>
<circle cx="209" cy="23" r="0.5" fill="#1BA9F5" stroke="#6092C0"/>
<circle cx="209" cy="29" r="1" fill="#D36086"/>
<circle cx="209" cy="35" r="1" fill="#535966"/>
<circle cx="209" cy="41" r="1" fill="#535966"/>
<defs>
<filter id="filter0_d" x="196" y="6" width="68" height="62" filterUnits="userSpaceOnUse" color-interpolation-filters="sRGB">
<feFlood flood-opacity="0" result="BackgroundImageFix"/>
<feColorMatrix in="SourceAlpha" type="matrix" values="0 0 0 0 0 0 0 0 0 0 0 0 0 0 0 0 0 0 127 0"/>
<feOffset dy="2"/>
<feGaussianBlur stdDeviation="4"/>
<feColorMatrix type="matrix" values="0 0 0 0 0 0 0 0 0 0 0 0 0 0 0 0 0 0 0.05 0"/>
<feBlend mode="normal" in2="BackgroundImageFix" result="effect1_dropShadow"/>
<feBlend mode="normal" in="SourceGraphic" in2="effect1_dropShadow" result="shape"/>
</filter>
</defs>
</svg>
