<svg width="268" height="151" fill="none" xmlns="http://www.w3.org/2000/svg">
  <path fill="#F5F7FA" d="M0 0h268v151H0z"/>
  <g filter="url(#kibana_canvas_light__filter0_d)">
    <rect x="12" y="12" width="176" height="127" rx="2" fill="#fff"/>
  </g>
  <rect x="89" y="132" width="22" height="2" rx="1" fill="#AFB0B3"/>
  <path d="M115.5 131.5l1.5 1.5-1.5 1.5m-30.5-3l-1.5 1.5 1.5 1.5" stroke="#AFB0B3" stroke-linecap="round" stroke-linejoin="round"/>
  <rect x="60" y="21" width="82" height="16" rx="1" fill="#fff" stroke="#D3DAE6" stroke-linecap="round" stroke-linejoin="round" stroke-dasharray="1 2"/>
  <rect x="81" y="28" width="40" height="2" rx="1" fill="#54B399"/>
  <rect x="104" y="45" width="76" height="76" rx="1" fill="#fff" stroke="#D3DAE6" stroke-linecap="round" stroke-linejoin="round" stroke-dasharray="1 2"/>
  <rect x="116" y="81" width="22" height="2" rx="1" fill="#98A2B3"/>
  <rect x="112" y="81" width="2" height="2" rx="1" fill="#D36086"/>
  <rect x="146" y="81" width="2" height="2" rx="1" fill="#D36086"/>
  <rect x="150" y="81" width="22" height="2" rx="1" fill="#98A2B3"/>
  <rect x="112" y="65" width="60" height="8" rx="2" fill="#D36086"/>
  <rect x="116" y="87" width="22" height="2" rx="1" fill="#98A2B3"/>
  <rect x="112" y="87" width="2" height="2" rx="1" fill="#D36086"/>
  <rect x="146" y="87" width="2" height="2" rx="1" fill="#D36086"/>
  <rect x="150" y="87" width="22" height="2" rx="1" fill="#98A2B3"/>
  <rect x="116" y="93" width="22" height="2" rx="1" fill="#98A2B3"/>
  <rect x="112" y="93" width="2" height="2" rx="1" fill="#D36086"/>
  <rect x="146" y="93" width="2" height="2" rx="1" fill="#D36086"/>
  <rect x="150" y="93" width="22" height="2" rx="1" fill="#98A2B3"/>
  <rect x="116" y="99" width="22" height="2" rx="1" fill="#98A2B3"/>
  <rect x="112" y="99" width="2" height="2" rx="1" fill="#D36086"/>
  <rect x="146" y="99" width="2" height="2" rx="1" fill="#D36086"/>
  <rect x="150" y="99" width="22" height="2" rx="1" fill="#98A2B3"/>
  <rect x="20" y="45" width="76" height="76" rx="1" fill="#fff" stroke="#AFB0B3" stroke-linecap="round" stroke-linejoin="round" stroke-dasharray="1 2"/>
  <path fill="#fff" stroke="#AFB0B3" stroke-linecap="round" stroke-linejoin="round" d="M18.5 43.5h3v3h-3zm0 76h3v3h-3zm76 0h3v3h-3zm0-76h3v3h-3zm-38 0h3v3h-3zm-38 38h3v3h-3zm38 38h3v3h-3zm38-38h3v3h-3z"/>
  <rect x="47" y="104" width="22" height="2" rx="1" fill="#98A2B3"/>
  <path d="M41.03 99.97a24 24 0 1133.94 0l-5.668-5.668a15.984 15.984 0 10-22.604 0l-5.669 5.669z" fill="#D3DAE6"/>
  <path d="M41.03 99.97a24.002 24.002 0 019.488-39.774 24 24 0 0126.378 8.007l-6.311 4.942a15.986 15.986 0 00-23.183-2.11 15.983 15.983 0 00-.704 23.267l-5.669 5.669z" fill="#6092C0"/>
  <g filter="url(#kibana_canvas_light__filter1_d)">
    <rect x="200" y="12" width="56" height="127" rx="2" fill="#fff"/>
  </g>
  <rect x="204" y="56" width="22" height="2" rx="1" fill="#98A2B3"/>
  <rect x="204" y="98" width="22" height="2" rx="1" fill="#98A2B3"/>
  <rect x="204" y="120" width="22" height="2" rx="1" fill="#98A2B3"/>
  <rect x="204" y="104" width="9" height="4" rx="2" fill="#D3DAE6"/>
  <rect x="217" y="104" width="9" height="4" rx="2" fill="#D3DAE6"/>
  <rect x="230" y="104" width="9" height="4" rx="2" fill="#D3DAE6"/>
  <rect x="243" y="104" width="9" height="4" rx="2" fill="#D3DAE6"/>
  <rect x="204.5" y="24.5" width="47" height="7" rx=".5" fill="#fff" stroke="#D3DAE6"/>
  <rect x="204.5" y="62.5" width="47" height="23" rx=".5" fill="#fff" stroke="#D3DAE6"/>
  <rect x="204.5" y="36.5" width="21" height="7" rx=".5" fill="#fff" stroke="#D3DAE6"/>
  <rect x="204.5" y="126.5" width="7" height="7" rx=".5" fill="#54B399" stroke="#D3DAE6"/>
  <rect x="230.5" y="36.5" width="21" height="7" rx=".5" fill="#fff" stroke="#D3DAE6"/>
  <rect x="204" y="16" width="27" height="2" rx="1" fill="#6A717D"/>
  <defs>
    <filter id="kibana_canvas_light__filter0_d" x="4" y="6" width="192" height="143" filterUnits="userSpaceOnUse" color-interpolation-filters="sRGB">
      <feFlood flood-opacity="0" result="BackgroundImageFix"/>
      <feColorMatrix in="SourceAlpha" values="0 0 0 0 0 0 0 0 0 0 0 0 0 0 0 0 0 0 127 0"/>
      <feOffset dy="2"/>
      <feGaussianBlur stdDeviation="4"/>
      <feColorMatrix values="0 0 0 0 0 0 0 0 0 0 0 0 0 0 0 0 0 0 0.05 0"/>
      <feBlend in2="BackgroundImageFix" result="effect1_dropShadow"/>
      <feBlend in="SourceGraphic" in2="effect1_dropShadow" result="shape"/>
    </filter>
    <filter id="kibana_canvas_light__filter1_d" x="192" y="6" width="72" height="143" filterUnits="userSpaceOnUse" color-interpolation-filters="sRGB">
      <feFlood flood-opacity="0" result="BackgroundImageFix"/>
      <feColorMatrix in="SourceAlpha" values="0 0 0 0 0 0 0 0 0 0 0 0 0 0 0 0 0 0 127 0"/>
      <feOffset dy="2"/>
      <feGaussianBlur stdDeviation="4"/>
      <feColorMatrix values="0 0 0 0 0 0 0 0 0 0 0 0 0 0 0 0 0 0 0.05 0"/>
      <feBlend in2="BackgroundImageFix" result="effect1_dropShadow"/>
      <feBlend in="SourceGraphic" in2="effect1_dropShadow" result="shape"/>
    </filter>
  </defs>
</svg>
