<svg width="580" height="339" fill="none" xmlns="http://www.w3.org/2000/svg">
  <g filter="url(#kibana_montage_light__filter0_ddd)">
    <rect x="24" y="111" width="520" height="124" rx="4" fill="#fff"/>
  </g>
  <rect x="32" y="119" width="101" height="4" rx="2" fill="#6A717D"/>
  <rect x="38" y="139" width="18" height="4" rx="2" fill="#98A2B3"/>
  <rect x="32" y="160" width="24" height="4" rx="2" fill="#98A2B3"/>
  <rect x="40" y="181" width="16" height="4" rx="2" fill="#98A2B3"/>
  <rect x="36" y="202" width="20" height="4" rx="2" fill="#98A2B3"/>
  <rect x="72" y="223" width="24" height="4" rx="2" fill="#98A2B3"/>
  <rect x="216" y="223" width="24" height="4" rx="2" fill="#98A2B3"/>
  <rect x="360" y="223" width="24" height="4" rx="2" fill="#98A2B3"/>
  <rect x="504" y="223" width="24" height="4" rx="2" fill="#98A2B3"/>
  <path opacity=".1" d="M80.177 205L65 197v17h470.5v-36.5l-15.177 12.692-15.178 1.346-15.177-8.846-15.178 17.885-15.177.961-15.178-5.384-15.177-.769-15.177 5.384-15.178-5.846-15.177-40.615-15.178 18.077-15.177-38.462L338.194 191l-15.178-16.308-15.177 12.923-15.178-9.538-15.177 5.615-15.178-24.384L247.129 158l-15.177-15.615-15.178 49.077-15.177 4.615-15.178-22.154-15.177-5.385L156.065 137l-15.178 37.923-15.177 6.923-15.178 19.692-15.177-4.692L80.177 205z" fill="#54B399"/>
  <path d="M65 197l15.177 8 15.178-8.154 15.177 4.692 15.178-19.692 15.177-6.923L156.065 137l15.177 31.538 15.177 5.385 15.178 22.154 15.177-4.615 15.178-49.077L247.129 158l15.177 1.308 15.178 24.384 15.177-5.615 15.178 9.538 15.177-12.923L338.194 191l15.177-57.077 15.177 38.462 15.178-18.077 15.177 40.615 15.178 5.846 15.177-5.384 15.177.769 15.178 5.384 15.177-.961 15.178-17.885 15.177 8.846 15.178-1.346L535.5 177.5" stroke="#54B399" stroke-linecap="round" stroke-linejoin="round"/>
  <circle opacity=".1" cx="100" cy="150" r="8" fill="#6092C0"/>
  <circle opacity=".1" cx="232" cy="142" r="8" fill="#6092C0"/>
  <circle opacity=".1" cx="323" cy="175" r="8" fill="#6092C0"/>
  <circle opacity=".1" cx="353" cy="134" r="8" fill="#6092C0"/>
  <circle opacity=".1" cx="523" cy="134" r="8" fill="#6092C0"/>
  <circle opacity=".1" cx="106" cy="155" r="4" fill="#6092C0"/>
  <circle opacity=".1" cx="156" cy="137" r="4" fill="#6092C0"/>
  <circle opacity=".1" cx="240" cy="142" r="4" fill="#6092C0"/>
  <circle opacity=".1" cx="262" cy="159" r="4" fill="#6092C0"/>
  <circle opacity=".1" cx="345" cy="135" r="4" fill="#6092C0"/>
  <circle opacity=".1" cx="484" cy="179" r="4" fill="#017D73"/>
  <circle opacity=".1" cx="490" cy="183" r="4" fill="#017D73"/>
  <circle cx="100" cy="150" r="7.5" stroke="#6092C0"/>
  <circle cx="232" cy="142" r="7.5" stroke="#6092C0"/>
  <circle cx="323" cy="175" r="7.5" stroke="#6092C0"/>
  <circle cx="353" cy="134" r="7.5" stroke="#6092C0"/>
  <circle cx="523" cy="134" r="7.5" stroke="#6092C0"/>
  <circle cx="106" cy="155" r="3.5" stroke="#6092C0"/>
  <circle cx="156" cy="137" r="3.5" stroke="#6092C0"/>
  <circle cx="240" cy="142" r="3.5" stroke="#6092C0"/>
  <circle cx="262" cy="159" r="3.5" stroke="#6092C0"/>
  <circle cx="345" cy="135" r="3.5" stroke="#6092C0"/>
  <circle cx="484" cy="179" r="3.5" stroke="#017D73"/>
  <circle cx="490" cy="183" r="3.5" stroke="#017D73"/>
  <path d="M64.5 131.5v9.5m471 73.5H516M64.5 141h-4m4 0v21m0 0h-4m4 0v21m0 0h-4m4 0v21m0 0v10.5H84M64.5 204h-4M84 218.5v-4m0 0h144m0 0v4m0-4h144m0 0v4m0-4h144m0 0v4" stroke="#D3DAE6" stroke-linecap="round" stroke-linejoin="round"/>
  <g filter="url(#kibana_montage_light__filter1_ddd)">
    <rect x="160" y="6" width="248" height="124" rx="4" fill="#fff"/>
  </g>
  <rect x="168" y="14" width="80" height="4" rx="2" fill="#6A717D"/>
  <path d="M312.284 102.284a39.996 39.996 0 00-10.054-63.888 40 40 0 00-24.383-3.92l2.461 15.81a23.999 23.999 0 0120.663 40.685l11.313 11.313z" fill="#54B399"/>
  <mask id="a" maskUnits="userSpaceOnUse" x="249" y="84" width="72" height="31" fill="#000">
    <path fill="#fff" d="M249 84h72v31h-72z"/>
    <path d="M250.416 95.728a39.995 39.995 0 0034.591 18.259 39.994 39.994 0 0033.628-19.976l-13.854-8.005a24.003 24.003 0 01-31.985 9.218 24.008 24.008 0 01-8.947-8.187l-13.433 8.69z"/>
  </mask>
  <path d="M250.416 95.728a39.995 39.995 0 0034.591 18.259 39.994 39.994 0 0033.628-19.976l-13.854-8.005a24.003 24.003 0 01-31.985 9.218 24.008 24.008 0 01-8.947-8.187l-13.433 8.69z" fill="#6092C0"/>
  <path d="M250.416 95.728a39.995 39.995 0 0034.591 18.259 39.994 39.994 0 0033.628-19.976l-13.854-8.005a24.003 24.003 0 01-31.985 9.218 24.008 24.008 0 01-8.947-8.187l-13.433 8.69z" stroke="#fff" stroke-width="2" mask="url(#a)"/>
  <mask id="b" maskUnits="userSpaceOnUse" x="243" y="47" width="24" height="54" fill="#000">
    <path fill="#fff" d="M243 47h24v54h-24z"/>
    <path d="M252.645 49.163a40.002 40.002 0 00.54 50.34l12.326-10.2a23.999 23.999 0 01-.324-30.205l-12.542-9.935z"/>
  </mask>
  <path d="M252.645 49.163a40.002 40.002 0 00.54 50.34l12.326-10.2a23.999 23.999 0 01-.324-30.205l-12.542-9.935z" fill="#D36086"/>
  <path d="M252.645 49.163a40.002 40.002 0 00.54 50.34l12.326-10.2a23.999 23.999 0 01-.324-30.205l-12.542-9.935z" stroke="#fff" stroke-width="2" mask="url(#b)"/>
  <mask id="c" maskUnits="userSpaceOnUse" x="248" y="33" width="37" height="30" fill="#000">
    <path fill="#fff" d="M248 33h37v30h-37z"/>
    <path d="M284 34a40.001 40.001 0 00-33.929 18.814l13.572 8.474A24.002 24.002 0 01284 50V34z"/>
  </mask>
  <path d="M284 34a40.001 40.001 0 00-33.929 18.814l13.572 8.474A24.002 24.002 0 01284 50V34z" fill="#9170B8"/>
  <path d="M284 34a40.001 40.001 0 00-33.929 18.814l13.572 8.474A24.002 24.002 0 01284 50V34z" stroke="#fff" stroke-width="2" mask="url(#c)"/>
  <rect x="231" y="26" width="22" height="4" rx="2" fill="#98A2B3"/>
  <rect x="209" y="84" width="16" height="4" rx="2" fill="#98A2B3"/>
  <rect x="305" y="118" width="24" height="4" rx="2" fill="#98A2B3"/>
  <rect x="335" y="44" width="24" height="4" rx="2" fill="#98A2B3"/>
  <path d="M257.5 28h4l4 8.5m65 9.5h-4l-7 4.5m-26.5 64l3.5 5.5h4m-58-41l-9 7h-4" stroke="#D3DAE6" stroke-linecap="round" stroke-linejoin="round"/>
  <g filter="url(#kibana_montage_light__filter2_ddd)">
    <rect x="48" y="210" width="228" height="111" rx="4" fill="#fff"/>
    <rect x="52" y="214" width="12" height="4" rx="1" fill="#54B399"/>
    <rect x="68" y="214" width="12" height="4" rx="1" fill="#6092C0"/>
    <rect x="84" y="214" width="12" height="4" rx="1" fill="#D36086"/>
    <rect x="100" y="214" width="12" height="4" rx="1" fill="#9170B8"/>
    <path d="M167 277l24 12m0 0l-24 12m24-12l24 12m-24-12h34m-34 0l24-12m-98-32l16 20m0 0l-34-12m34 12h-24m24 0l-34 12m34-12l-16 20m16-20l16 20m-16-20h24m-24 0l16-20m-16 20l34-12m-34 12l34 12m0-48l24 12m0 0l-24 12m24-12l24-12m-24 12l24 12" stroke="#D3DAE6"/>
    <circle cx="133" cy="265" r="4.5" fill="#9170B8" stroke="#fff"/>
    <circle cx="191" cy="289" r="4.5" fill="#6092C0" stroke="#fff"/>
    <circle cx="191" cy="241" r="4.5" fill="#D36086" stroke="#fff"/>
    <circle cx="149" cy="245" r="4.5" fill="#54B399" stroke="#fff"/>
    <circle cx="167" cy="229" r="4.5" fill="#54B399" stroke="#fff"/>
    <circle cx="215" cy="229" r="4.5" fill="#54B399" stroke="#fff"/>
    <circle cx="215" cy="253" r="4.5" fill="#54B399" stroke="#fff"/>
    <circle cx="215" cy="301" r="4.5" fill="#54B399" stroke="#fff"/>
    <circle cx="225" cy="289" r="4.5" fill="#54B399" stroke="#fff"/>
    <circle cx="215" cy="277" r="4.5" fill="#54B399" stroke="#fff"/>
    <circle cx="167" cy="253" r="4.5" fill="#54B399" stroke="#fff"/>
    <circle cx="167" cy="277" r="4.5" fill="#54B399" stroke="#fff"/>
    <circle cx="167" cy="301" r="4.5" fill="#54B399" stroke="#fff"/>
    <circle cx="157" cy="265" r="4.5" fill="#54B399" stroke="#fff"/>
    <circle cx="149" cy="285" r="4.5" fill="#54B399" stroke="#fff"/>
    <circle cx="117" cy="245" r="4.5" fill="#54B399" stroke="#fff"/>
    <circle cx="109" cy="265" r="4.5" fill="#54B399" stroke="#fff"/>
    <circle cx="117" cy="285" r="4.5" fill="#54B399" stroke="#fff"/>
    <circle cx="99" cy="277" r="4.5" fill="#54B399" stroke="#fff"/>
    <circle cx="99" cy="253" r="4.5" fill="#54B399" stroke="#fff"/>
    <rect x="125.5" y="270.5" width="15" height="3" rx="1.5" fill="#98A2B3" stroke="#fff"/>
    <rect x="186.5" y="294.5" width="9" height="3" rx="1.5" fill="#98A2B3" stroke="#fff"/>
    <rect x="185.5" y="246.5" width="11" height="3" rx="1.5" fill="#98A2B3" stroke="#fff"/>
  </g>
  <g filter="url(#kibana_montage_light__filter3_d)">
    <rect x="232" y="202" width="52" height="56" rx="4" fill="#fff"/>
  </g>
  <rect x="236.5" y="246.5" width="43" height="7" rx=".5" fill="#fff" stroke="#D3DAE6"/>
  <rect x="236" y="206" width="26" height="2" rx="1" fill="#6A717D"/>
  <rect x="236" y="240" width="26" height="2" rx="1" fill="#6A717D"/>
  <rect x="240" y="212" width="29" height="2" rx="1" fill="#98A2B3"/>
  <rect x="240" y="218" width="23" height="2" rx="1" fill="#98A2B3"/>
  <rect x="240" y="224" width="26" height="2" rx="1" fill="#98A2B3"/>
  <rect x="240" y="230" width="33" height="2" rx="1" fill="#98A2B3"/>
  <circle cx="237" cy="213" r="1" fill="#54B399"/>
  <circle cx="237" cy="219" r="1" fill="#6092C0"/>
  <circle cx="237" cy="225" r="1" fill="#D36086"/>
  <circle cx="237" cy="231" r="1" fill="#9170B8"/>
  <g filter="url(#kibana_montage_light__filter4_ddd)">
    <rect x="320" y="163" width="248" height="124" rx="4" fill="#fff"/>
  </g>
  <rect x="328" y="171" width="120" height="4" rx="2" fill="#6A717D"/>
  <rect x="336" y="191" width="16" height="4" rx="2" fill="#98A2B3"/>
  <rect x="368" y="275" width="24" height="4" rx="2" fill="#98A2B3"/>
  <rect x="421" y="275" width="24" height="4" rx="2" fill="#98A2B3"/>
  <rect x="474" y="275" width="24" height="4" rx="2" fill="#98A2B3"/>
  <rect x="527" y="275" width="24" height="4" rx="2" fill="#98A2B3"/>
  <rect x="328" y="212" width="24" height="4" rx="2" fill="#98A2B3"/>
  <rect x="332" y="233" width="20" height="4" rx="2" fill="#98A2B3"/>
  <rect x="336" y="254" width="16" height="4" rx="2" transform="rotate(-.17 336 254)" fill="#98A2B3"/>
  <path d="M360.5 183.5v9.5m199 73.5H539M360.5 193h-4m4 0v21m0 0h-4m4 0v21m0 0h-4m4 0v21m0 0v10.5H380M360.5 256h-4m23.5 14.5v-4m0 0h53m0 0v4m0-4h53m0 0v4m0-4h53m0 0v4" stroke="#D3DAE6" stroke-linecap="round" stroke-linejoin="round"/>
  <rect x="363" y="185" width="181" height="16" rx="1" fill="#54B399"/>
  <rect x="363" y="227" width="59" height="16" rx="1" fill="#D36086"/>
  <rect x="363" y="206" width="120" height="16" rx="1" fill="#6092C0"/>
  <rect x="363" y="248" width="30" height="16" rx="1" fill="#9170B8"/>
  <defs>
    <filter id="kibana_montage_light__filter0_ddd" x="12" y="105" width="544" height="148" filterUnits="userSpaceOnUse" color-interpolation-filters="sRGB">
      <feFlood flood-opacity="0" result="BackgroundImageFix"/>
      <feColorMatrix in="SourceAlpha" values="0 0 0 0 0 0 0 0 0 0 0 0 0 0 0 0 0 0 127 0"/>
      <feOffset dy="2"/>
      <feGaussianBlur stdDeviation="1"/>
      <feColorMatrix values="0 0 0 0 0.596078 0 0 0 0 0.635294 0 0 0 0 0.701961 0 0 0 0.15 0"/>
      <feBlend in2="BackgroundImageFix" result="effect1_dropShadow"/>
      <feColorMatrix in="SourceAlpha" values="0 0 0 0 0 0 0 0 0 0 0 0 0 0 0 0 0 0 127 0"/>
      <feOffset dy="4"/>
      <feGaussianBlur stdDeviation="2"/>
      <feColorMatrix values="0 0 0 0 0.596078 0 0 0 0 0.635294 0 0 0 0 0.701961 0 0 0 0.15 0"/>
      <feBlend in2="effect1_dropShadow" result="effect2_dropShadow"/>
      <feColorMatrix in="SourceAlpha" values="0 0 0 0 0 0 0 0 0 0 0 0 0 0 0 0 0 0 127 0"/>
      <feOffset dy="6"/>
      <feGaussianBlur stdDeviation="6"/>
      <feColorMatrix values="0 0 0 0 0.596078 0 0 0 0 0.635294 0 0 0 0 0.701961 0 0 0 0.15 0"/>
      <feBlend in2="effect2_dropShadow" result="effect3_dropShadow"/>
      <feBlend in="SourceGraphic" in2="effect3_dropShadow" result="shape"/>
    </filter>
    <filter id="kibana_montage_light__filter1_ddd" x="148" y="0" width="272" height="148" filterUnits="userSpaceOnUse" color-interpolation-filters="sRGB">
      <feFlood flood-opacity="0" result="BackgroundImageFix"/>
      <feColorMatrix in="SourceAlpha" values="0 0 0 0 0 0 0 0 0 0 0 0 0 0 0 0 0 0 127 0"/>
      <feOffset dy="2"/>
      <feGaussianBlur stdDeviation="1"/>
      <feColorMatrix values="0 0 0 0 0.596078 0 0 0 0 0.635294 0 0 0 0 0.701961 0 0 0 0.15 0"/>
      <feBlend in2="BackgroundImageFix" result="effect1_dropShadow"/>
      <feColorMatrix in="SourceAlpha" values="0 0 0 0 0 0 0 0 0 0 0 0 0 0 0 0 0 0 127 0"/>
      <feOffset dy="4"/>
      <feGaussianBlur stdDeviation="2"/>
      <feColorMatrix values="0 0 0 0 0.596078 0 0 0 0 0.635294 0 0 0 0 0.701961 0 0 0 0.15 0"/>
      <feBlend in2="effect1_dropShadow" result="effect2_dropShadow"/>
      <feColorMatrix in="SourceAlpha" values="0 0 0 0 0 0 0 0 0 0 0 0 0 0 0 0 0 0 127 0"/>
      <feOffset dy="6"/>
      <feGaussianBlur stdDeviation="6"/>
      <feColorMatrix values="0 0 0 0 0.596078 0 0 0 0 0.635294 0 0 0 0 0.701961 0 0 0 0.15 0"/>
      <feBlend in2="effect2_dropShadow" result="effect3_dropShadow"/>
      <feBlend in="SourceGraphic" in2="effect3_dropShadow" result="shape"/>
    </filter>
    <filter id="kibana_montage_light__filter2_ddd" x="36" y="204" width="252" height="135" filterUnits="userSpaceOnUse" color-interpolation-filters="sRGB">
      <feFlood flood-opacity="0" result="BackgroundImageFix"/>
      <feColorMatrix in="SourceAlpha" values="0 0 0 0 0 0 0 0 0 0 0 0 0 0 0 0 0 0 127 0"/>
      <feOffset dy="2"/>
      <feGaussianBlur stdDeviation="1"/>
      <feColorMatrix values="0 0 0 0 0.596078 0 0 0 0 0.635294 0 0 0 0 0.701961 0 0 0 0.15 0"/>
      <feBlend in2="BackgroundImageFix" result="effect1_dropShadow"/>
      <feColorMatrix in="SourceAlpha" values="0 0 0 0 0 0 0 0 0 0 0 0 0 0 0 0 0 0 127 0"/>
      <feOffset dy="4"/>
      <feGaussianBlur stdDeviation="2"/>
      <feColorMatrix values="0 0 0 0 0.596078 0 0 0 0 0.635294 0 0 0 0 0.701961 0 0 0 0.15 0"/>
      <feBlend in2="effect1_dropShadow" result="effect2_dropShadow"/>
      <feColorMatrix in="SourceAlpha" values="0 0 0 0 0 0 0 0 0 0 0 0 0 0 0 0 0 0 127 0"/>
      <feOffset dy="6"/>
      <feGaussianBlur stdDeviation="6"/>
      <feColorMatrix values="0 0 0 0 0.596078 0 0 0 0 0.635294 0 0 0 0 0.701961 0 0 0 0.15 0"/>
      <feBlend in2="effect2_dropShadow" result="effect3_dropShadow"/>
      <feBlend in="SourceGraphic" in2="effect3_dropShadow" result="shape"/>
    </filter>
    <filter id="kibana_montage_light__filter3_d" x="216" y="190" width="84" height="88" filterUnits="userSpaceOnUse" color-interpolation-filters="sRGB">
      <feFlood flood-opacity="0" result="BackgroundImageFix"/>
      <feColorMatrix in="SourceAlpha" values="0 0 0 0 0 0 0 0 0 0 0 0 0 0 0 0 0 0 127 0"/>
      <feOffset dy="4"/>
      <feGaussianBlur stdDeviation="8"/>
      <feColorMatrix values="0 0 0 0 0 0 0 0 0 0 0 0 0 0 0 0 0 0 0.05 0"/>
      <feBlend in2="BackgroundImageFix" result="effect1_dropShadow"/>
      <feBlend in="SourceGraphic" in2="effect1_dropShadow" result="shape"/>
    </filter>
    <filter id="kibana_montage_light__filter4_ddd" x="308" y="157" width="272" height="148" filterUnits="userSpaceOnUse" color-interpolation-filters="sRGB">
      <feFlood flood-opacity="0" result="BackgroundImageFix"/>
      <feColorMatrix in="SourceAlpha" values="0 0 0 0 0 0 0 0 0 0 0 0 0 0 0 0 0 0 127 0"/>
      <feOffset dy="2"/>
      <feGaussianBlur stdDeviation="1"/>
      <feColorMatrix values="0 0 0 0 0.596078 0 0 0 0 0.635294 0 0 0 0 0.701961 0 0 0 0.15 0"/>
      <feBlend in2="BackgroundImageFix" result="effect1_dropShadow"/>
      <feColorMatrix in="SourceAlpha" values="0 0 0 0 0 0 0 0 0 0 0 0 0 0 0 0 0 0 127 0"/>
      <feOffset dy="4"/>
      <feGaussianBlur stdDeviation="2"/>
      <feColorMatrix values="0 0 0 0 0.596078 0 0 0 0 0.635294 0 0 0 0 0.701961 0 0 0 0.15 0"/>
      <feBlend in2="effect1_dropShadow" result="effect2_dropShadow"/>
      <feColorMatrix in="SourceAlpha" values="0 0 0 0 0 0 0 0 0 0 0 0 0 0 0 0 0 0 127 0"/>
      <feOffset dy="6"/>
      <feGaussianBlur stdDeviation="6"/>
      <feColorMatrix values="0 0 0 0 0.596078 0 0 0 0 0.635294 0 0 0 0 0.701961 0 0 0 0.15 0"/>
      <feBlend in2="effect2_dropShadow" result="effect3_dropShadow"/>
      <feBlend in="SourceGraphic" in2="effect3_dropShadow" result="shape"/>
    </filter>
  </defs>
</svg>
