<svg width="268" height="151" fill="none" xmlns="http://www.w3.org/2000/svg">
  <path fill="#F5F7FA" d="M0 0h268v151H0z"/>
  <path fill="#CCE1F0" d="M20 20h228v111H20z"/>
  <path fill-rule="evenodd" clip-rule="evenodd" d="M89.479 131h-7.044a4.71 4.71 0 00-.03-.033c-.833-.881-.987-1.202-1.024-2.13-.024-.601-.165-1.245-.313-1.43-.186-.234-.224-1.072-.124-2.729.11-1.796.046-2.904-.255-4.449-.446-2.294-.674-6.568-.558-10.468.025-.832-.08-1.974-.23-2.538-.37-1.374-2.068-3.108-4.166-4.254-1.501-.82-1.713-1.03-2.3-2.289-.355-.763-1.034-1.903-1.509-2.533-.474-.63-.99-1.556-1.146-2.058-.496-1.59-1.37-3.188-1.965-3.594-.316-.215-.678-.776-.803-1.246-.202-.76-.148-.973.484-1.928.686-1.036.694-1.079.23-1.204-1.138-.31-.66-1.892 1.384-4.572 1.359-1.782 1.757-3.139 1.38-4.707-.143-.597-.271-1.222-.285-1.389-.014-.166-.116-.302-.227-.302s-.09-.219.048-.486c.211-.41.158-.528-.35-.769-.742-.351-1.862-.004-1.866.578-.005.699-.3.75-1.275.222-.522-.282-1.064-.514-1.204-.514-.141 0-.688-.386-1.216-.859a65.47 65.47 0 00-1.25-1.099c-.16-.131-.292-.49-.292-.797 0-.307-.205-.752-.457-.988-.251-.236-.577-.808-.723-1.27-.193-.607-.338-.767-.522-.576-.383.399-.951.323-2.33-.31-.72-.332-1.471-.898-1.771-1.335-.287-.418-.834-.928-1.216-1.134-.63-.339-.788-.336-1.707.028l-1.013.402-3.106-1.564c-1.91-.962-3.393-1.88-3.853-2.385-.712-.783-.735-.868-.498-1.838.217-.89.18-1.164-.292-2.178-.297-.638-.946-1.618-1.443-2.178-.496-.56-.846-1.113-.777-1.229.069-.116-.281-.897-.777-1.736-.564-.953-.962-1.974-1.061-2.721-.127-.958-.275-1.25-.742-1.472-.495-.235-.634-.205-.918.198-.4.567-.286 1.166.598 3.151.359.806.73 2.002.824 2.657.095.654.374 1.601.62 2.103.584 1.19.207 1.17-.714-.04-.543-.712-.69-1.103-.582-1.55.116-.477.002-.707-.562-1.141-.857-.658-1.038-1.083-.723-1.693.183-.357.1-.747-.367-1.703-.473-.97-.572-1.44-.454-2.16.19-1.178-.317-2.244-1.265-2.652-.547-.236-.736-.499-.847-1.184a26.207 26.207 0 00-.336-1.665c-.11-.45-.102-.843.019-.92.115-.075.04-.407-.17-.738-.307-.488-.328-.72-.11-1.216.148-.337.204-.723.124-.857-.08-.134.119-.534.441-.89.322-.355.751-1.063.953-1.574.203-.51.825-1.457 1.385-2.104.559-.646 1.268-1.779 1.575-2.516.426-1.024.676-1.342 1.057-1.345.274-.003.483.132.465.298-.074.694.454.48 1.046-.424.35-.532.538-1.004.42-1.048-.12-.045-.217-.245-.217-.445s-.482-.852-1.072-1.447c-.977-.987-1.04-1.118-.715-1.491.264-.303.295-.525.12-.85-.31-.574.177-1.857.705-1.862.218-.003.28-.08.147-.182-.3-.23-.437-.75-.395-1.509.068-1.212-.187-1.719-1.054-2.095a8.58 8.58 0 01-1.586-.953c-.404-.32-.917-.582-1.14-.582-.223 0-1.235-.22-2.25-.49l-.075-.02h39.386c-1.165.916-1.779 1.798-1.27 2.131.163.107.421.49.575.853.176.417.516.708.926.794.357.074 1.277.456 2.046.85.768.393 1.711.786 2.095.873 1.058.24 1.068.265.575 1.564-.422 1.111-.43 1.27-.103 1.927.195.393.484.711.64.706.764-.023 1.479-.754 1.924-1.967.423-1.155.616-1.371 1.833-2.046 1.794-.997 2.54-1.978 2.342-3.08-.13-.718-.062-.886.529-1.324.33-.244.755-.79 1.008-1.281h5.678c.01.02.017.04.023.06.072.237.012.664-.134.947-.222.43-.18.612.25 1.087l.516.572.843-.455c.464-.25 1.207-.737 1.651-1.082l.808-.629.19.534c.105.293.134.684.066.869-.068.185-.015.547.118.806.15.29.161.619.03.862-.147.274-.049.69.326 1.375.537.983.537.984.066 1.327-.62.452-.223.93.458.552.677-.376 1.451-.327 1.928.122.706.664.119 1.458-1.754 2.374-2.038.996-2.946 1.194-5.606 1.218-1.964.018-2.224.083-4.133 1.035-1.12.558-2.038 1.11-2.038 1.228 0 .5.353.456 1.708-.21.799-.393 1.827-.706 2.317-.706.837 0 .868.026.607.534a3.553 3.553 0 01-.726.914c-.39.327-.412.466-.169 1.022.366.834 1.321 1.235 2.463 1.035l.903-.158-.694.497c-.382.274-1.01.57-1.398.656-.386.087-1.181.408-1.766.714-.593.311-1.19.476-1.35.373-.368-.237.02-.592 1.218-1.112 1.065-.463.895-.954-.253-.73-.447.087-1.896.655-3.221 1.261-2.067.947-2.428 1.197-2.549 1.766-.148.7-.652 1.032-2.427 1.593-.566.179-1.3.611-1.63.961a9.47 9.47 0 01-1.406 1.164c-.443.29-.867.799-.942 1.13-.124.546-.153.559-.309.138-.291-.788-.73-.017-.756 1.327-.025 1.376-.697 2.316-2.17 3.035-1.51.737-3.658 2.48-4.093 3.32-.385.741-.4 1.03-.164 2.937.221 1.779.208 2.225-.083 2.81-.217.435-.47.644-.681.56-.5-.2-1.11-2.336-.94-3.285.12-.66.04-.91-.432-1.37-.38-.373-.732-.514-1.031-.416-.25.083-.955-.073-1.568-.347-.94-.418-1.24-.453-1.911-.223-.455.156-.907.526-1.055.864-.22.502-.366.566-.974.43a6.45 6.45 0 01-1.344-.494c-.852-.452-1.329-.42-2.286.151-.446.267-1.357.778-2.023 1.135-.767.41-1.293.878-1.431 1.27-.12.341-.55 1.671-.954 2.956l-.736 2.335.376 1.508c.69 2.77 1.651 3.598 3.653 3.152 1.509-.336 2.415-1.018 2.748-2.067.212-.666.44-.886 1.123-1.084 1.028-.297 1.458-.307 1.852-.047.326.215.212.569-1.247 3.852-1.001 2.253-.93 2.454.786 2.197 1.562-.234 2.99-.054 3.158.398.065.176-.041 1.365-.236 2.641-.347 2.285-.345 2.336.156 3.177.28.471.804 1.015 1.166 1.21.576.31.757.308 1.483-.007 1.154-.5 1.78-.448 2.581.218.64.533.731.548 1.234.205.3-.203.707-.707.906-1.12.45-.931 1.207-1.586 1.844-1.593.266-.003.73-.277 1.03-.61.61-.676 1.686-.896 1.16-.238-.44.553-.693 2.33-.408 2.882.237.46.255.457.686-.096.307-.393.369-.646.201-.82-.4-.416-.28-.761.465-1.333.773-.594 1.37-.533 2.037.208.49.542 3.1 1.276 3.848 1.081 1.139-.297 4.217 1.648 5.374 3.397.55.832 2.31 1.67 3.084 1.468 1.59-.415 3.773 1.242 4.283 3.253.152.6.381 1.157.509 1.24.34.22-.17 1.09-1.282 2.19-.71.702-.88 1.005-.68 1.213.2.208.528.025 1.318-.73 1.148-1.1 1.53-1.212 2.106-.615.35.364.339.438-.14.969-.286.316-.685.581-.887.59-.213.008-.127.114.205.252.455.189.692.136 1.164-.26 1.229-1.033 1.519-1.083 2.611-.449.71.413.994.726.958 1.058-.099.923.11 1.128.726.708.489-.333.825-.349 2.462-.116 1.741.248 1.97.347 2.805 1.215a4.887 4.887 0 002.194 1.334c1.177.356 1.305.464 1.519 1.288.309 1.194-.054 2.52-1.034 3.779-.419.538-.932 1.327-1.141 1.754a6.655 6.655 0 01-.986 1.408c-.565.587-.596.734-.456 2.127.276 2.723-1.006 7.804-2.242 8.89-.402.354-.747.437-1.385.334-.525-.084-.913-.03-1.015.143-.092.153-.6.477-1.13.72a8.477 8.477 0 00-1.755 1.142c-.752.667-.777.741-.524 1.538.292.92.096 2.008-.53 2.936-.202.3-.368.811-.368 1.135 0 .323-.243.925-.54 1.337-.297.412-.87 1.355-1.273 2.096-.991 1.822-1.588 2.137-3.026 1.602-1.248-.465-1.914-.521-1.914-.16 0 .136.25.365.553.509.304.144.778.73 1.053 1.303.41.852.453 1.148.24 1.636-.331.754-1.596 1.388-2.771 1.388-1.042 0-1.3.264-.94.963.222.431.072 1.124-.357 1.656-.035.043-.4-.102-.81-.323-.956-.513-1.31-.208-.87.729zM74.436 35.758c-.932 0-2.09 1.006-2.712 2.358-.32.695-.805 1.426-1.077 1.624-.443.322-.532.316-.855-.057-.33-.38-.282-.553.544-1.989.988-1.72 1.696-2.31 3.06-2.548.5-.088.829-.262.748-.397-.078-.132-.388-.176-.688-.098-.302.079-.898-.033-1.334-.249-.725-.36-.848-.36-1.512-.002-.565.303-.865.332-1.374.131l-.65-.257.579-.463c.319-.254.664-.465.768-.468.103-.003.127-.108.053-.233-.075-.125.05-.22.277-.21.227.008.884-.12 1.46-.286 1.603-.463 2.336-.393 2.817.267.233.32.368.798.303 1.072-.177.74.651 1.442 1.286 1.09.886-.493 2.09.63 1.617 1.51-.156.29-.394.374-.773.275-.41-.107-.584-.025-.691.325-.078.257-.397.588-.708.735-.455.216-.661.187-1.06-.15l-.497-.416.484-.639c.614-.812.606-.925-.065-.925zm2.135 2.998c.292.304.212.414-.617.854-.523.278-1.165.505-1.427.505-.853 0-.499-.693.617-1.206.95-.437 1.135-.456 1.427-.153zm3.673-1.596c.342.199.325.268-.16.62-.683.497-1.84.53-1.84.054 0-.463 1.497-.967 2-.675z" fill="#fff"/>
  <path d="M248 87.97v3.75a.93.93 0 01-.595-.133c-.855-.507-2.398-2.467-2.901-3.685-.271-.657-.892-1.74-1.38-2.405-.488-.666-1.048-1.537-1.245-1.936-.196-.4-.794-1.162-1.327-1.695-1.125-1.122-1.816-2.302-1.345-2.294.611.011 2.184.92 2.859 1.652 1.861 2.02 2.242 2.379 3.121 2.942.848.543 1.249 1.108 1.289 1.815.008.133.249.514.536.847L248 87.97z" fill="#fff"/>
  <path fill-rule="evenodd" clip-rule="evenodd" d="M248 65.504v10.261a.16.16 0 01-.116-.076c-.079-.132-.082-.443-.007-.689.076-.246.072-.624-.008-.84-.115-.311-.242-.34-.609-.135-.383.213-.531.16-.84-.307-.76-1.145-2.963-2.986-3.574-2.986-.215 0-.298.27-.261.848.03.466-.062 1.374-.203 2.018-.23 1.05-.206 1.243.227 1.852.266.374.55.954.631 1.288.082.34.755 1.116 1.526 1.758 1.283 1.07 1.418 1.282 1.959 3.06.319 1.05.58 2.012.58 2.138 0 .41-.486.244-1.502-.514-1.049-.783-1.719-2.022-2.278-4.213-.243-.951-.509-1.359-1.264-1.936-.926-.708-.954-.77-.88-1.942.043-.665.148-1.609.233-2.096.121-.687.021-1.178-.443-2.179-.329-.71-.719-1.802-.865-2.425-.328-1.392-.791-1.626-1.609-.81-.339.337-.681.612-.761.612-.371 0-.88-.82-.758-1.22.222-.727-1.142-3.259-1.94-3.603-.437-.188-.837-.644-1.104-1.26-.464-1.07-.985-1.48-1.506-1.184-.188.108-.944.324-1.679.48-1.348.288-1.831.712-1.647 1.445.068.27-.167.53-.733.81-.458.228-.952.685-1.097 1.016-.145.331-.465.669-.711.75-.245.08-.624.451-.842.823-.217.371-.865 1.05-1.439 1.51-.786.627-1.031.978-.992 1.42.228 2.58-.122 4.74-.977 6.023-.834 1.25-.893 1.286-1.598.951-.389-.183-.628-.543-.727-1.091-.081-.45-.55-1.717-1.042-2.815-2.977-6.647-3.418-7.916-3.164-9.116.171-.811-.24-2.035-.637-1.896-.16.055-.293.255-.296.443-.02 1.105-1.214 1.274-2.147.305l-.618-.642.532-.205c.598-.23.543-.85-.065-.737-.217.04-.712-.204-1.1-.544-.389-.34-.797-.618-.906-.618-.11 0-.266-.22-.348-.487-.215-.703-1.45-1.314-2.069-1.024-.557.26-5.612.206-6.458-.07-.305-.1-.868-.555-1.253-1.012-.694-.826-.705-.83-1.746-.537-.987.276-1.13.25-2.46-.447-1.148-.603-1.492-.928-1.847-1.745-.452-1.043-1.457-1.798-2.068-1.554-.192.076-.417.458-.499.847-.119.559.002.922.573 1.729.397.562.831 1.438.962 1.947.284 1.093.843 1.418 1.307.76.279-.398.355-.412.544-.1.121.199.186.47.145.604-.129.418 1.214 1.106 1.841.943.317-.083.994-.644 1.505-1.247.804-.95 1.085-1.014.948-.216-.093.537.314 1.166.986 1.528 1.04.558 2.487 1.802 2.487 2.136 0 .155-.272.545-.605.867-.332.323-.811 1.006-1.063 1.518-.614 1.244-2.392 3.063-2.994 3.063-.696 0-1.732.61-2.144 1.264-.195.31-.708.747-1.141.971-2.213 1.149-4.878 2.313-5.628 2.46-.802.156-.866.118-1.291-.753-.246-.504-.525-1.516-.62-2.248-.124-.952-.364-1.557-.843-2.126-.369-.437-.67-.9-.67-1.029 0-.128-.42-.683-.934-1.233a5.463 5.463 0 01-1.312-2.36c-.208-.748-.631-1.687-.941-2.086-2.137-2.759-2.77-3.731-3.088-4.747-.423-1.346-.78-1.564-.944-.575l-.117.702-.788-1.034c-1.214-1.593-1.367-.869-.227 1.076.539.92 1.398 2.545 1.91 3.61.511 1.065 1.174 2.273 1.473 2.685.308.424.544 1.087.544 1.528 0 .913.261 1.482 1.29 2.806.413.532.822 1.31.908 1.727.11.536.559 1.096 1.526 1.902 1.468 1.224 2.42 2.502 2.656 3.567.089.4.425.81.851 1.04.649.349.878.34 2.93-.123 1.224-.276 2.521-.66 2.882-.854l.656-.352.156.958c.141.87-.011 1.29-1.669 4.594-1.782 3.554-1.865 3.671-3.638 5.125-.997.819-2.041 1.821-2.32 2.228-.278.406-1.169 1.503-1.979 2.438-2.364 2.728-2.685 5.128-1.117 8.344.398.817.554 1.435.459 1.826-.078.325-.028 1.147.112 1.825.221 1.069.196 1.354-.186 2.131-.551 1.122-.989 1.525-2.528 2.326-.672.351-1.222.741-1.222.867s-.472.782-1.048 1.456c-.577.675-1.048 1.336-1.048 1.47 0 .134.216.684.48 1.222.792 1.613.26 2.781-1.638 3.598-.8.345-1.062 1.048-.865 2.315.104.664.038.885-.324 1.087-.25.139-.702.656-1.004 1.15-.955 1.558-3.699 4.315-4.945 4.969-1.04.545-1.306.593-2.071.374-.673-.194-1.217-.163-2.347.132-1.104.288-1.471.41-1.744.299-.18-.073-.319-.246-.6-.538-.493-.513-.576-.775-.466-1.481.104-.664.005-1.055-.438-1.732-.314-.482-.572-.994-.572-1.138 0-.145-.411-.837-.915-1.538-.778-1.084-.937-1.517-1.066-2.888-.226-2.419-.969-5.038-1.968-6.936-.491-.933-.963-2.144-1.048-2.692-.182-1.165.273-2.899 1.312-5l.692-1.398-.389-1.216c-.217-.68-.323-1.485-.241-1.827.097-.4-.007-.876-.301-1.38-.246-.423-.612-1.368-.813-2.1-.268-.978-.642-1.614-1.41-2.397-1.475-1.505-1.667-2.097-1.209-3.735.932-3.334-.075-5.278-2.536-4.894-.958.149-.995.13-1.13-.573-.104-.54-.386-.858-1.092-1.232-.919-.487-1.312-.49-2.44-.012-.256.109-1.304.484-2.328.835-1.541.528-2.004.596-2.674.394-.636-.192-1.171-.142-2.471.229-1.343.383-1.83.424-2.556.215-1.515-.434-4.117-2.872-4.487-4.203-.286-1.03-2.068-3.43-2.674-3.603-.385-.11-.433-.195-.197-.354.237-.159.196-.24-.175-.34-.588-.16-.647-.66-.077-.665.348-.003.356-.038.058-.239-.22-.147-.245-.235-.066-.238.185-.002.114-.3-.203-.86-.447-.787-.456-.89-.115-1.282 1.042-1.197 1.27-3.773.478-5.396-.378-.775-.135-1.846.672-2.959.304-.419.897-1.438 1.318-2.265.737-1.447 2.379-3.458 2.823-3.458.492 0 2.079-1.773 2.079-2.323 0-1.24.713-2.478 1.877-3.254.625-.416 1.358-1.13 1.628-1.584.553-.93.631-.96 1.275-.494.253.183.88.407 1.395.496.785.137 1.16.039 2.329-.611 2.01-1.118 3.253-1.397 5.554-1.248 1.517.099 2.2.036 2.936-.27 1.083-.45 2.019-.184 1.766.503a.774.774 0 00.103.678c.167.21.166.51-.004.976-.214.585-.167.759.363 1.334.336.364.936.73 1.335.812 1.871.39 2.404.641 2.79 1.321.283.498.654.754 1.268.874.477.093 1.17.332 1.54.53.628.338.709.326 1.233-.186.351-.343.511-.707.429-.978-.073-.237-.018-.652.122-.924.36-.7 1.383-.63 2.98.2 1.741.906 5.04 1.552 6.21 1.216.563-.161 1.104-.163 1.597-.006 1.609.514 2.433.112 2.652-1.295.073-.468.198-.85.277-.85.151 0 .229-.703.251-2.239.007-.499.121-.907.252-.907.157 0 .15-.176-.022-.509-.286-.556-.867-.543-2.257.05-.659.28-.843.269-1.433-.094-.766-.47-1.552-.54-1.778-.16-.169.284-1.359.085-2.005-.334-.464-.3-.898-1.197-.898-1.855 0-.253-.235-.632-.524-.843-.446-.327-.471-.419-.174-.621.192-.131.587-.18.878-.109.371.091.712-.06 1.143-.508a2.137 2.137 0 011.45-.685c.46-.025 1.127-.244 1.481-.487.77-.527 2.517-.38 3.872.324 1.828.951 3.451.895 4.105-.141.34-.54.342-.653.019-1.164-.197-.312-1.141-1.03-2.098-1.596l-1.741-1.03.327-.655c.179-.36.267-.717.195-.791-.072-.075-.044-.28.061-.455s.212-.459.237-.63c.054-.367-.322-.266-2.174.585-1.075.494-1.235.646-.996.944.156.196.507.36.779.367.382.008.292.122-.396.5-.835.457-.928.463-1.471.093-.464-.316-.525-.463-.305-.738.219-.274.186-.38-.159-.514a1.79 1.79 0 01-.683-.515c-.667-.924-2.783 1.507-3.399 3.904-.289 1.125-.279 1.184.265 1.61l.564.442-1.035.222c-.57.122-1.337.137-1.706.032-.68-.193-1.542.098-1.542.52 0 .125-.158.163-.352.086-.194-.077-.501-.012-.684.145-.282.244-.25.444.218 1.36.507.991.523 1.127.207 1.786-.397.826-.766.765-1.326-.221-.39-.687-.388-.703.129-.779.652-.096.694-.527.062-.633-1.443-.24-2.213-1.03-2.213-2.272 0-.969-.864-2.037-1.912-2.363-.545-.17-1.137-.526-1.316-.792-.179-.266-.703-.647-1.164-.847-.462-.2-.978-.57-1.148-.823-.244-.361-.404-.405-.761-.206-.248.138-.452.407-.452.597 0 .629 2.968 3.472 4.419 4.233 1.539.807 1.779 1.095.71.851-.953-.217-1.212 0-.886.744.228.522.191.681-.27 1.14l-.535.535.122-.72c.193-1.145-1.258-2.79-2.462-2.79-.442 0-2.137-1.709-2.581-2.602-.475-.954-1.003-1.138-1.751-.61-1.128.794-1.973 1.062-2.857.907-1.174-.206-1.913.22-1.726.994.098.405.044.586-.176.586-.175 0-.622.272-.994.604-.372.333-.757.605-.855.605-.288 0-1.101 1.53-1.102 2.073-.001.52-.911 1.544-1.79 2.013-.28.15-.931.271-1.447.271-.71 0-1.001.122-1.196.5-.255.496-.263.495-.86-.125-.56-.582-.882-.728-2.012-.91-.594-.095-.694-1.492-.25-3.482.19-.85.283-1.804.207-2.118-.22-.914.47-1.453 1.626-1.268 2.668.425 4.229.45 4.595.069.502-.523.729-2.246.422-3.212-.2-.63-.475-.888-1.296-1.214-1.208-.48-1.233-.943-.053-.955.45-.005 1.099-.2 1.443-.434.343-.234.722-.361.843-.284.329.212 1.576-.535 1.99-1.192.2-.317.594-.638.875-.712.282-.075 1.036-.643 1.676-1.263.908-.88 1.385-1.155 2.163-1.252.964-.12 1.934-.944 1.479-1.257-.283-.194-.519-1.366-.362-1.793.075-.202.405-.55.733-.774l.597-.407-.154.996c-.133.864-.099.987.257.925.226-.04.648-.207.938-.372.441-.253.55-.24.666.075.2.54-.355 1.176-.738.846-.212-.183-.346-.176-.464.022-.122.205-.217.194-.357-.041-.105-.177-.245-.266-.31-.198-.066.068.121.436.413.817.494.644.588.674 1.292.42.602-.219.892-.204 1.405.072.579.311.775.296 1.888-.143.975-.386 1.359-.435 1.791-.23.397.188.691.184 1.06-.015 1.048-.562 1.338-.986 1.208-1.765-.193-1.154.16-1.532 1.09-1.167.633.248.817.238 1.103-.059.303-.315.277-.431-.219-.98-.477-.528-.511-.66-.22-.863.189-.133.896-.18 1.572-.106 1.237.136 2.778-.366 2.51-.817-.235-.396-1.655-.51-2.858-.23-1.066.248-1.346.228-2.164-.156a4.347 4.347 0 01-.284-.145H248v42.763a2.587 2.587 0 00-.568 1.015c-.127.434.097 1.068.568 1.726zm-52.158-21.372c0 .921-.086 1.1-.687 1.422-.378.203-.719.364-.757.358-.039-.007-.79-.396-1.67-.865l-1.6-.854.116-1.252c.145-1.556-.069-2.157-1.235-3.472-.506-.57-.921-1.2-.921-1.398 0-.198-.209-.476-.465-.619-.689-.383-.583-.691.634-1.853 1.886-1.8 3.407-1.904 4.499-.31.45.657.29 1.174-.256.823-.405-.26-1.353.102-1.619.617-.35.681.05 1.341 1.174 1.938.508.269.924.6.924.735 0 .164.148.163.45-.005.372-.207.532-.13.931.453.265.386.482.81.482.942 0 .333-.624.548-1.072.369-.339-.135-.34-.084-.015.57.196.395.521.86.722 1.033.229.197.365.707.365 1.368z" fill="#fff"/>
  <path d="M113.379 20h1.483c-.263.173-.508.251-.757.253-.111.001-.388-.098-.726-.253zm39.345 0h9.256c.182.182.391.332.555.387.715.235.573.677-.448 1.404-.315.224-.734.856-.932 1.405-.248.688-.625 1.158-1.214 1.511-.829.498-.867.5-1.326.069-.259-.244-.534-.742-.611-1.107-.077-.364-.427-1.02-.778-1.455l-.637-.794-.808.512c-.444.282-1.017.51-1.273.508-.739-.008-1.595-.837-1.652-1.602a5.681 5.681 0 00-.132-.838zM33.573 20h-10.17c-.105.359-.392.646-.886.911l-.715.384.657.358c.51.278.783.298 1.226.088.6-.285 1.101-.145.87.242-.187.315-2.21 1.372-4.178 2.183-.138.057-.264.11-.377.159v.423c1.032-.26 2.833-.968 4.175-1.67.6-.315 1.459-.655 1.907-.755.448-.1 1.612-.616 2.587-1.146 1.443-.785 1.857-.915 2.237-.704.47.261 1.574.06 2.667-.473zm154.243 91.142c.172 1.429.266 1.633.923 2.021.237.14.361.222.495.249.194.038.411-.041 1.028-.233.981-.306 1.321-.922 1.92-3.478.187-.799.832-2.867 1.433-4.596 1.124-3.231 1.19-3.878.544-5.352l-.257-.585-.369.83c-.483 1.086-2.5 2.937-3.432 3.149-.99.226-1.352 1.156-1.139 2.925.147 1.225.099 1.442-.568 2.571-.658 1.109-.715 1.358-.578 2.499zm11.984-2.773a.238.238 0 00-.233.242c0 .134.105.243.233.243a.239.239 0 00.233-.243.238.238 0 00-.233-.242zm1.63-.847c-.128.083-.233.198-.233.257 0 .058.105.106.233.106s.233-.115.233-.256c0-.141-.105-.189-.233-.107zm-12.355-8.108c-.136 0-.182.109-.103.242s.19.242.247.242c.056 0 .102-.109.102-.242a.245.245 0 00-.246-.242zm11.657-8.229a.238.238 0 00-.233.242c0 .133.105.242.233.242a.238.238 0 00.233-.242.238.238 0 00-.233-.242zm-47.272-6.656c-.128.082-.233.197-.233.256s.105.107.233.107.233-.116.233-.257c0-.14-.105-.189-.233-.106zm1.397-2.905c-.128.083-.233.198-.233.257 0 .058.105.106.233.106s.233-.115.233-.256c0-.141-.105-.19-.233-.107zm69.1-5.89c-.188.523-.04 2.496.22 2.935.144.243 1.067-.047 1.292-.405.234-.374.007-1.075-.704-2.167-.594-.911-.609-.918-.808-.363zM86.703 73.917c.084.088.036.306-.106.484-.203.254-.157.325.207.325a.627.627 0 00.59-.484c.092-.37.006-.484-.362-.484-.265 0-.414.072-.33.16zm-6.596-2.427c0 .138.07.324.155.412.085.09.21.105.276.037.066-.07-.004-.254-.156-.412-.167-.174-.275-.188-.275-.036zm-1.062-.152c-.056 0-.103.109-.103.242s.112.242.247.242c.136 0 .182-.11.103-.242-.08-.133-.19-.242-.247-.242zm10.945-.485c-.056 0-.103.11-.103.243s.111.242.247.242c.135 0 .182-.11.103-.242-.08-.134-.19-.243-.247-.243zm-1.267-1.573c-.128.082-.233.198-.233.257 0 .058.105.106.233.106s.233-.115.233-.256c0-.141-.105-.189-.233-.107zm36.56-.847a.238.238 0 00-.233.242c0 .133.105.242.233.242a.238.238 0 00.233-.242.238.238 0 00-.233-.242zm-37.259-1.089c-.128.082-.233.259-.233.392s.105.174.233.092c.128-.082.233-.258.233-.392 0-.133-.105-.174-.233-.092zm-1.991-.697c-.207-.083-.3-.043-.22.095.079.131.242.239.362.239.335 0 .261-.174-.142-.334zm36.908-.15c-.136 0-.182.109-.103.242s.19.242.246.242c.057 0 .103-.109.103-.242a.245.245 0 00-.246-.242zm-36.095-.484c-.135 0-.182.109-.102.242.079.133.19.242.246.242.057 0 .103-.11.103-.242a.245.245 0 00-.247-.242zm1.048 0c-.056 0-.103.109-.103.242s.111.242.247.242.182-.11.103-.242c-.08-.133-.19-.242-.247-.242zm-16.404-.747c0 .122.132.277.292.344.16.068.605.128.99.134.663.01.676-.006.246-.344-.5-.393-1.527-.483-1.527-.134zm5.16.134c.354-.081.816-.048 1.024.073.417.243 3.414-.39 3.24-.684-.263-.442-1.814-.955-2.888-.955-1.111 0-1.179.034-.954.47.316.614-.014.824-1.252.794-.842-.02-.887.004-.385.213.313.13.859.17 1.214.089zm6.168-.355c-.61 0-.953.294-.677.581.245.255 1.062.06 1.169-.279.06-.188-.126-.302-.492-.302zm1.597-.088c-.192.077-.35.182-.35.235 0 .052.158.095.35.095.192 0 .35-.106.35-.235s-.158-.172-.35-.095zm-11.508-1.65c.529.008 1.02.075 1.092.15.164.17.696.138 1.45-.085.665-.197.663-.2-1.397-1.345-2.506-1.393-3.22-1.676-4.497-1.777-1.334-.105-3.187.452-3.187.959 0 .277.08.264 1.138-.176 1.128-.468 2.065-.248 3.744.883.856.577 1.104.865.931 1.082-.179.224-.004.298.726.309zm3.474-1.893c0-.303-.247-.303-.699 0-.282.19-.249.235.175.238.288.002.524-.105.524-.238zm1.863-.787c0-.256-.877-.226-1.033.035-.07.12.133.2.452.182.32-.02.58-.117.58-.217zM72.702 57.3c-.414 0-.468.585-.096 1.03.196.233.419.355.494.269.076-.086.017-.2-.13-.255-.146-.055-.212-.312-.147-.572.066-.26.011-.473-.121-.473zm1.223-1.401c-.064.066-.049.305.034.529.083.225.203.354.267.287.064-.066.049-.305-.034-.529-.083-.224-.203-.354-.267-.287zm-.982-.052c-.243 0-.443.163-.443.363 0 .2.042.363.094.363s.252-.163.444-.363c.31-.322.3-.363-.095-.363zm14.383-6.656c-.128.082-.233.198-.233.256 0 .06.105.107.233.107s.233-.115.233-.256c0-.141-.105-.19-.233-.107zm89.872-2.299c-.442 0-.59.26-.312.548.202.21 1.21-.313 1.354-.702.14-.38-.229-.452-.446-.088-.079.133-.347.242-.596.242zm-8.951-.203l.698.333c.802.381 1.893.454 2.08.14.168-.284-.687-.51-1.847-.49l-.931.017zm-9.198-2.772c-.486.132-.443.194.489.69.926.493 1.039.506 1.183.144a3.24 3.24 0 00.174-.552c.027-.243-1.263-.44-1.846-.282zm-4.102-3.032c-.262.273-.278.503-.076 1.104.333.993.917.794.917-.313 0-.937-.367-1.283-.841-.79zm-4.805 1.226c.142-.445-.566-.369-.732.079-.098.265-.023.357.247.302.213-.043.431-.214.485-.38zm5.297-3.294a.553.553 0 00-.194.894c.316.328.543.145.543-.436 0-.432-.096-.559-.349-.458zm-56.012-4.995c-.124 0-.225.163-.225.363 0 .2.041.363.091.363.05 0 .152-.164.226-.363.074-.2.032-.363-.092-.363zm-2.309-.512l.867.094c1.738.19 2.749.168 3.595-.077.807-.233.847-.288.608-.834-.149-.34-.534-.647-.921-.736-.886-.202-1.217-.827-.732-1.384.214-.246.26-.424.108-.424-.143 0-.995.756-1.893 1.68l-1.632 1.68zm-56.237-2.97c-.535.214-.445.544.362 1.327.398.386.921.702 1.164.702.518 0 .524-.03.172-.832-.335-.764-1.219-1.387-1.698-1.196zm104.035-.387c-.36.135-.864.353-1.12.485-.356.182-.274.201.349.081a89.04 89.04 0 012.627-.428c1.355-.204 1.745-.342 1.547-.547-.198-.207-.112-.38.34-.688.668-.455.583-.956-.128-.763-.347.095-.542-.084-.84-.765-.62-1.423-1.229-2.236-1.861-2.486l-.588-.233 1.044-1.155-.546-.086c-.301-.048-.521-.22-.489-.383.032-.163-.02-.295-.116-.293-.64.013-1.329 1.266-1.029 1.872.115.233.162.56.105.726-.101.29.188.404.809.32.27-.037.755.904.755 1.463 0 .131-.314.353-.698.492-.392.142-.632.365-.547.508.084.14-.04.4-.274.579-.394.3-.369.336.319.479 1.003.208 1.134.525.341.822zm-4.845-1.942c-.191.384-.282.874-.202 1.09.093.253.279.332.522.222.208-.093.823-.33 1.367-.526.83-.3.99-.461.99-1.001 0-.354.163-.886.363-1.182.199-.296.298-.647.219-.78-.216-.362-1.65-.29-1.96.098-.149.186-.529.406-.844.488-.593.155-.744.486-.34.745.146.094.104.406-.115.846z" fill="#fff"/>
  <path d="M144.378 26.44c-.128.082-.233.197-.233.256 0 .058.105.107.233.107s.233-.116.233-.257c0-.14-.105-.189-.233-.107zM40.872 24.864c-.287.247-.301.38-.073.666.246.308.315.287.505-.156.276-.641.04-.918-.432-.51zm-.233-1.694c-.191.164-.283.407-.204.54.087.145.221.11.343-.089.318-.522.24-.778-.14-.451zm-13.548-.335c-1.002.252-1.708.55-1.708.72 0 .084.184.08.408-.011a7.81 7.81 0 011.052-.3c.355-.074.705-.234.777-.355.075-.127-.15-.15-.529-.054zM163.9 20.337c-.489.038-.565.316-.136.496.482.203.563.176.563-.184 0-.19-.192-.33-.427-.312z" fill="#fff"/>
  <circle opacity=".1" cx="75" cy="47" r="4" fill="#6092C0"/>
  <circle opacity=".1" cx="85" cy="97" r="4" fill="#6092C0"/>
  <circle opacity=".1" cx="142" cy="74" r="3.5" fill="#1BA9F5" stroke="#6092C0"/>
  <circle opacity=".1" cx="178" cy="76" r="4" fill="#6092C0"/>
  <circle opacity=".1" cx="147" cy="33" r="4" fill="#6092C0"/>
  <circle opacity=".1" cx="40" cy="50" r="7.5" fill="#6092C0" stroke="#6092C0"/>
  <circle opacity=".1" cx="170" cy="117" r="7.5" fill="#6092C0" stroke="#6092C0"/>
  <circle opacity=".1" cx="221" cy="69" r="7.5" fill="#6092C0" stroke="#6092C0"/>
  <circle cx="75" cy="47" r="3.5" stroke="#6092C0"/>
  <circle cx="85" cy="97" r="3.5" stroke="#6092C0"/>
  <circle cx="142" cy="74" r="3.5" stroke="#6092C0"/>
  <circle cx="178" cy="76" r="3.5" stroke="#6092C0"/>
  <circle cx="147" cy="33" r="3.5" stroke="#6092C0"/>
  <circle cx="40" cy="50" r="7.5" stroke="#6092C0"/>
  <circle cx="170" cy="117" r="7.5" stroke="#6092C0"/>
  <circle cx="221" cy="69" r="7.5" stroke="#6092C0"/>
  <circle opacity=".1" cx="67" cy="75" r="8" fill="#D36086"/>
  <circle opacity=".1" cx="187" cy="61" r="8" fill="#D36086"/>
  <circle opacity=".1" cx="192" cy="34" r="4" fill="#D36086"/>
  <circle opacity=".1" cx="111" cy="95" r="4" fill="#D36086"/>
  <circle cx="67" cy="75" r="7.5" stroke="#D36086"/>
  <circle cx="187" cy="61" r="7.5" stroke="#D36086"/>
  <circle cx="192" cy="34" r="3.5" stroke="#D36086"/>
  <circle cx="111" cy="95" r="3.5" stroke="#D36086"/>
  <g filter="url(#kibana_maps_light__filter0_d)">
    <rect x="204" y="12" width="52" height="46" rx="2" fill="#fff"/>
  </g>
  <rect x="208" y="16" width="26" height="2" rx="1" fill="#6A717D"/>
  <rect x="212" y="22" width="29" height="2" rx="1" fill="#98A2B3"/>
  <rect x="212" y="28" width="23" height="2" rx="1" fill="#98A2B3"/>
  <rect x="212" y="34" width="26" height="2" rx="1" fill="#98A2B3"/>
  <rect x="212" y="40" width="33" height="2" rx="1" fill="#98A2B3"/>
  <rect x="208" y="46" width="44" height="8" rx="1" fill="#54B399"/>
  <circle cx="209" cy="23" r=".5" fill="#1BA9F5" stroke="#6092C0"/>
  <circle cx="209" cy="29" r="1" fill="#D36086"/>
  <circle cx="209" cy="35" r="1" fill="#535966"/>
  <circle cx="209" cy="41" r="1" fill="#535966"/>
  <defs>
    <filter id="kibana_maps_light__filter0_d" x="196" y="6" width="68" height="62" filterUnits="userSpaceOnUse" color-interpolation-filters="sRGB">
      <feFlood flood-opacity="0" result="BackgroundImageFix"/>
      <feColorMatrix in="SourceAlpha" values="0 0 0 0 0 0 0 0 0 0 0 0 0 0 0 0 0 0 127 0"/>
      <feOffset dy="2"/>
      <feGaussianBlur stdDeviation="4"/>
      <feColorMatrix values="0 0 0 0 0 0 0 0 0 0 0 0 0 0 0 0 0 0 0.05 0"/>
      <feBlend in2="BackgroundImageFix" result="effect1_dropShadow"/>
      <feBlend in="SourceGraphic" in2="effect1_dropShadow" result="shape"/>
    </filter>
  </defs>
</svg>
