<svg width="584" height="347" fill="none" xmlns="http://www.w3.org/2000/svg">
  <g filter="url(#kibana_montage_dark__filter0_d)">
    <rect x="24" y="117" width="520" height="124" rx="4" fill="#25262E"/>
  </g>
  <rect x="32" y="125" width="101" height="4" rx="2" fill="#A7AFBE"/>
  <rect x="38" y="145" width="18" height="4" rx="2" fill="#535966"/>
  <rect x="32" y="166" width="24" height="4" rx="2" fill="#535966"/>
  <rect x="40" y="187" width="16" height="4" rx="2" fill="#535966"/>
  <rect x="36" y="208" width="20" height="4" rx="2" fill="#535966"/>
  <rect x="72" y="229" width="24" height="4" rx="2" fill="#535966"/>
  <rect x="216" y="229" width="24" height="4" rx="2" fill="#535966"/>
  <rect x="360" y="229" width="24" height="4" rx="2" fill="#535966"/>
  <rect x="504" y="229" width="24" height="4" rx="2" fill="#535966"/>
  <path opacity=".1" d="M80.177 211L65 203v17h470.5v-36.5l-15.177 12.692-15.178 1.346-15.177-8.846-15.178 17.885-15.177.961-15.178-5.384-15.177-.769-15.177 5.384-15.178-5.846-15.177-40.615-15.178 18.077-15.177-38.462L338.194 197l-15.178-16.308-15.177 12.923-15.178-9.538-15.177 5.615-15.178-24.384L247.129 164l-15.177-15.615-15.178 49.077-15.177 4.615-15.178-22.154-15.177-5.385L156.065 143l-15.178 37.923-15.177 6.923-15.178 19.692-15.177-4.692L80.177 211z" fill="#54B399"/>
  <path d="M65 203l15.177 8 15.178-8.154 15.177 4.692 15.178-19.692 15.177-6.923L156.065 143l15.177 31.538 15.177 5.385 15.178 22.154 15.177-4.615 15.178-49.077L247.129 164l15.177 1.308 15.178 24.384 15.177-5.615 15.178 9.538 15.177-12.923L338.194 197l15.177-57.077 15.177 38.462 15.178-18.077 15.177 40.615 15.178 5.846 15.177-5.384 15.177.769 15.178 5.384 15.177-.961 15.178-17.885 15.177 8.846 15.178-1.346L535.5 183.5" stroke="#54B399" stroke-linecap="round" stroke-linejoin="round"/>
  <circle opacity=".1" cx="100" cy="156" r="8" fill="#6092C0"/>
  <circle opacity=".1" cx="232" cy="148" r="8" fill="#6092C0"/>
  <circle opacity=".1" cx="323" cy="181" r="8" fill="#6092C0"/>
  <circle opacity=".1" cx="353" cy="140" r="8" fill="#6092C0"/>
  <circle opacity=".1" cx="523" cy="140" r="8" fill="#6092C0"/>
  <circle opacity=".1" cx="106" cy="161" r="4" fill="#6092C0"/>
  <circle opacity=".1" cx="156" cy="143" r="4" fill="#6092C0"/>
  <circle opacity=".1" cx="240" cy="148" r="4" fill="#6092C0"/>
  <circle opacity=".1" cx="262" cy="165" r="4" fill="#6092C0"/>
  <circle opacity=".1" cx="345" cy="141" r="4" fill="#6092C0"/>
  <circle opacity=".1" cx="484" cy="185" r="4" fill="#7DE2D1"/>
  <circle opacity=".1" cx="490" cy="189" r="4" fill="#7DE2D1"/>
  <circle cx="100" cy="156" r="7.5" stroke="#6092C0"/>
  <circle cx="232" cy="148" r="7.5" stroke="#6092C0"/>
  <circle cx="323" cy="181" r="7.5" stroke="#6092C0"/>
  <circle cx="353" cy="140" r="7.5" stroke="#6092C0"/>
  <circle cx="523" cy="140" r="7.5" stroke="#6092C0"/>
  <circle cx="106" cy="161" r="3.5" stroke="#6092C0"/>
  <circle cx="156" cy="143" r="3.5" stroke="#6092C0"/>
  <circle cx="240" cy="148" r="3.5" stroke="#6092C0"/>
  <circle cx="262" cy="165" r="3.5" stroke="#6092C0"/>
  <circle cx="345" cy="141" r="3.5" stroke="#6092C0"/>
  <circle cx="484" cy="185" r="3.5" stroke="#7DE2D1"/>
  <circle cx="490" cy="189" r="3.5" stroke="#7DE2D1"/>
  <path d="M64.5 137.5v9.5m471 73.5H516M64.5 147h-4m4 0v21m0 0h-4m4 0v21m0 0h-4m4 0v21m0 0v10.5H84M64.5 210h-4M84 224.5v-4m0 0h144m0 0v4m0-4h144m0 0v4m0-4h144m0 0v4" stroke="#343741" stroke-linecap="round" stroke-linejoin="round"/>
  <g filter="url(#kibana_montage_dark__filter1_d)">
    <rect x="160" y="12" width="248" height="124" rx="4" fill="#25262E"/>
  </g>
  <rect x="168" y="20" width="80" height="4" rx="2" fill="#A7AFBE"/>
  <path d="M312.284 108.284a39.996 39.996 0 00-10.054-63.888 40 40 0 00-24.383-3.92l2.461 15.81a23.999 23.999 0 0120.663 40.685l11.313 11.313z" fill="#54B399"/>
  <mask id="a" maskUnits="userSpaceOnUse" x="249" y="90" width="72" height="31" fill="#000">
    <path fill="#fff" d="M249 90h72v31h-72z"/>
    <path d="M250.416 101.728a39.996 39.996 0 0034.591 18.259 39.994 39.994 0 0033.628-19.976l-13.854-8.005a24.004 24.004 0 01-20.177 11.986 24.003 24.003 0 01-20.755-10.955l-13.433 8.691z"/>
  </mask>
  <path d="M250.416 101.728a39.996 39.996 0 0034.591 18.259 39.994 39.994 0 0033.628-19.976l-13.854-8.005a24.004 24.004 0 01-20.177 11.986 24.003 24.003 0 01-20.755-10.955l-13.433 8.691z" fill="#6092C0"/>
  <path d="M250.416 101.728a39.996 39.996 0 0034.591 18.259 39.994 39.994 0 0033.628-19.976l-13.854-8.005a24.004 24.004 0 01-20.177 11.986 24.003 24.003 0 01-20.755-10.955l-13.433 8.691z" stroke="#1D1E24" stroke-width="2" mask="url(#a)"/>
  <mask id="b" maskUnits="userSpaceOnUse" x="243" y="53" width="24" height="54" fill="#000">
    <path fill="#fff" d="M243 53h24v54h-24z"/>
    <path d="M252.645 55.163a40.002 40.002 0 00.54 50.341l12.326-10.202a23.999 23.999 0 01-.324-30.204l-12.542-9.935z"/>
  </mask>
  <path d="M252.645 55.163a40.002 40.002 0 00.54 50.341l12.326-10.202a23.999 23.999 0 01-.324-30.204l-12.542-9.935z" fill="#D36086"/>
  <path d="M252.645 55.163a40.002 40.002 0 00.54 50.341l12.326-10.202a23.999 23.999 0 01-.324-30.204l-12.542-9.935z" stroke="#1D1E24" stroke-width="2" mask="url(#b)"/>
  <mask id="c" maskUnits="userSpaceOnUse" x="248" y="39" width="37" height="30" fill="#000">
    <path fill="#fff" d="M248 39h37v30h-37z"/>
    <path d="M284 40a40.001 40.001 0 00-33.929 18.814l13.572 8.474A24.002 24.002 0 01284 56V40z"/>
  </mask>
  <path d="M284 40a40.001 40.001 0 00-33.929 18.814l13.572 8.474A24.002 24.002 0 01284 56V40z" fill="#9170B8"/>
  <path d="M284 40a40.001 40.001 0 00-33.929 18.814l13.572 8.474A24.002 24.002 0 01284 56V40z" stroke="#1D1E24" stroke-width="2" mask="url(#c)"/>
  <rect x="231" y="32" width="22" height="4" rx="2" fill="#535966"/>
  <rect x="209" y="90" width="16" height="4" rx="2" fill="#535966"/>
  <rect x="305" y="124" width="24" height="4" rx="2" fill="#535966"/>
  <rect x="335" y="50" width="24" height="4" rx="2" fill="#535966"/>
  <path d="M257.5 34h4l4 8.5m65 9.5h-4l-7 4.5m-26.5 64l3.5 5.5h4m-58-41l-9 7h-4" stroke="#343741" stroke-linecap="round" stroke-linejoin="round"/>
  <g filter="url(#kibana_montage_dark__filter2_d)">
    <rect x="48" y="216" width="228" height="111" rx="4" fill="#25262E"/>
    <rect x="52" y="220" width="12" height="4" rx="1" fill="#54B399"/>
    <rect x="68" y="220" width="12" height="4" rx="1" fill="#6092C0"/>
    <rect x="84" y="220" width="12" height="4" rx="1" fill="#D36086"/>
    <rect x="100" y="220" width="12" height="4" rx="1" fill="#9170B8"/>
    <path d="M167 283l24 12m0 0l-24 12m24-12l24 12m-24-12h34m-34 0l24-12m-98-32l16 20m0 0l-34-12m34 12h-24m24 0l-34 12m34-12l-16 20m16-20l16 20m-16-20h24m-24 0l16-20m-16 20l34-12m-34 12l34 12m0-48l24 12m0 0l-24 12m24-12l24-12m-24 12l24 12" stroke="#343741"/>
    <circle cx="133" cy="271" r="4.5" fill="#9170B8" stroke="#1D1E24"/>
    <circle cx="191" cy="295" r="4.5" fill="#6092C0" stroke="#1D1E24"/>
    <circle cx="191" cy="247" r="4.5" fill="#D36086" stroke="#1D1E24"/>
    <circle cx="149" cy="251" r="4.5" fill="#54B399" stroke="#1D1E24"/>
    <circle cx="167" cy="235" r="4.5" fill="#54B399" stroke="#1D1E24"/>
    <circle cx="215" cy="235" r="4.5" fill="#54B399" stroke="#1D1E24"/>
    <circle cx="215" cy="259" r="4.5" fill="#54B399" stroke="#1D1E24"/>
    <circle cx="215" cy="307" r="4.5" fill="#54B399" stroke="#1D1E24"/>
    <circle cx="225" cy="295" r="4.5" fill="#54B399" stroke="#1D1E24"/>
    <circle cx="215" cy="283" r="4.5" fill="#54B399" stroke="#1D1E24"/>
    <circle cx="167" cy="259" r="4.5" fill="#54B399" stroke="#1D1E24"/>
    <circle cx="167" cy="283" r="4.5" fill="#54B399" stroke="#1D1E24"/>
    <circle cx="167" cy="307" r="4.5" fill="#54B399" stroke="#1D1E24"/>
    <circle cx="157" cy="271" r="4.5" fill="#54B399" stroke="#1D1E24"/>
    <circle cx="149" cy="291" r="4.5" fill="#54B399" stroke="#1D1E24"/>
    <circle cx="117" cy="251" r="4.5" fill="#54B399" stroke="#1D1E24"/>
    <circle cx="109" cy="271" r="4.5" fill="#54B399" stroke="#1D1E24"/>
    <circle cx="117" cy="291" r="4.5" fill="#54B399" stroke="#1D1E24"/>
    <circle cx="99" cy="283" r="4.5" fill="#54B399" stroke="#1D1E24"/>
    <circle cx="99" cy="259" r="4.5" fill="#54B399" stroke="#1D1E24"/>
    <rect x="125.5" y="276.5" width="15" height="3" rx="1.5" fill="#535966" stroke="#1D1E24"/>
    <rect x="186.5" y="300.5" width="9" height="3" rx="1.5" fill="#535966" stroke="#1D1E24"/>
    <rect x="185.5" y="252.5" width="11" height="3" rx="1.5" fill="#535966" stroke="#1D1E24"/>
  </g>
  <g filter="url(#kibana_montage_dark__filter3_d)">
    <rect x="232" y="208" width="52" height="56" rx="4" fill="#25262E"/>
  </g>
  <rect x="236.5" y="252.5" width="43" height="7" rx=".5" fill="#1D1E24" stroke="#343741"/>
  <rect x="236" y="212" width="26" height="2" rx="1" fill="#A7AFBE"/>
  <rect x="236" y="246" width="26" height="2" rx="1" fill="#A7AFBE"/>
  <rect x="240" y="218" width="29" height="2" rx="1" fill="#535966"/>
  <rect x="240" y="224" width="23" height="2" rx="1" fill="#535966"/>
  <rect x="240" y="230" width="26" height="2" rx="1" fill="#535966"/>
  <rect x="240" y="236" width="33" height="2" rx="1" fill="#535966"/>
  <circle cx="237" cy="219" r="1" fill="#54B399"/>
  <circle cx="237" cy="225" r="1" fill="#6092C0"/>
  <circle cx="237" cy="231" r="1" fill="#D36086"/>
  <circle cx="237" cy="237" r="1" fill="#9170B8"/>
  <g filter="url(#kibana_montage_dark__filter4_d)">
    <rect x="320" y="169" width="248" height="124" rx="4" fill="#25262E"/>
  </g>
  <rect x="328" y="177" width="120" height="4" rx="2" fill="#A7AFBE"/>
  <rect x="336" y="197" width="16" height="4" rx="2" fill="#535966"/>
  <rect x="368" y="281" width="24" height="4" rx="2" fill="#535966"/>
  <rect x="421" y="281" width="24" height="4" rx="2" fill="#535966"/>
  <rect x="474" y="281" width="24" height="4" rx="2" fill="#535966"/>
  <rect x="527" y="281" width="24" height="4" rx="2" fill="#535966"/>
  <rect x="328" y="218" width="24" height="4" rx="2" fill="#535966"/>
  <rect x="332" y="239" width="20" height="4" rx="2" fill="#535966"/>
  <rect x="336" y="260" width="16" height="4" rx="2" transform="rotate(-.17 336 260)" fill="#535966"/>
  <path d="M360.5 189.5v9.5m199 73.5H539M360.5 199h-4m4 0v21m0 0h-4m4 0v21m0 0h-4m4 0v21m0 0v10.5H380M360.5 262h-4m23.5 14.5v-4m0 0h53m0 0v4m0-4h53m0 0v4m0-4h53m0 0v4" stroke="#343741" stroke-linecap="round" stroke-linejoin="round"/>
  <rect x="363" y="191" width="181" height="16" rx="1" fill="#54B399"/>
  <rect x="363" y="233" width="59" height="16" rx="1" fill="#D36086"/>
  <rect x="363" y="212" width="120" height="16" rx="1" fill="#6092C0"/>
  <rect x="363" y="254" width="30" height="16" rx="1" fill="#9170B8"/>
  <defs>
    <filter id="kibana_montage_dark__filter0_d" x="8" y="105" width="552" height="156" filterUnits="userSpaceOnUse" color-interpolation-filters="sRGB">
      <feFlood flood-opacity="0" result="BackgroundImageFix"/>
      <feColorMatrix in="SourceAlpha" values="0 0 0 0 0 0 0 0 0 0 0 0 0 0 0 0 0 0 127 0"/>
      <feOffset dy="4"/>
      <feGaussianBlur stdDeviation="8"/>
      <feColorMatrix values="0 0 0 0 0 0 0 0 0 0 0 0 0 0 0 0 0 0 0.3 0"/>
      <feBlend in2="BackgroundImageFix" result="effect1_dropShadow"/>
      <feBlend in="SourceGraphic" in2="effect1_dropShadow" result="shape"/>
    </filter>
    <filter id="kibana_montage_dark__filter1_d" x="144" y="0" width="280" height="156" filterUnits="userSpaceOnUse" color-interpolation-filters="sRGB">
      <feFlood flood-opacity="0" result="BackgroundImageFix"/>
      <feColorMatrix in="SourceAlpha" values="0 0 0 0 0 0 0 0 0 0 0 0 0 0 0 0 0 0 127 0"/>
      <feOffset dy="4"/>
      <feGaussianBlur stdDeviation="8"/>
      <feColorMatrix values="0 0 0 0 0 0 0 0 0 0 0 0 0 0 0 0 0 0 0.3 0"/>
      <feBlend in2="BackgroundImageFix" result="effect1_dropShadow"/>
      <feBlend in="SourceGraphic" in2="effect1_dropShadow" result="shape"/>
    </filter>
    <filter id="kibana_montage_dark__filter2_d" x="32" y="204" width="260" height="143" filterUnits="userSpaceOnUse" color-interpolation-filters="sRGB">
      <feFlood flood-opacity="0" result="BackgroundImageFix"/>
      <feColorMatrix in="SourceAlpha" values="0 0 0 0 0 0 0 0 0 0 0 0 0 0 0 0 0 0 127 0"/>
      <feOffset dy="4"/>
      <feGaussianBlur stdDeviation="8"/>
      <feColorMatrix values="0 0 0 0 0 0 0 0 0 0 0 0 0 0 0 0 0 0 0.3 0"/>
      <feBlend in2="BackgroundImageFix" result="effect1_dropShadow"/>
      <feBlend in="SourceGraphic" in2="effect1_dropShadow" result="shape"/>
    </filter>
    <filter id="kibana_montage_dark__filter3_d" x="216" y="196" width="84" height="88" filterUnits="userSpaceOnUse" color-interpolation-filters="sRGB">
      <feFlood flood-opacity="0" result="BackgroundImageFix"/>
      <feColorMatrix in="SourceAlpha" values="0 0 0 0 0 0 0 0 0 0 0 0 0 0 0 0 0 0 127 0"/>
      <feOffset dy="4"/>
      <feGaussianBlur stdDeviation="8"/>
      <feColorMatrix values="0 0 0 0 0 0 0 0 0 0 0 0 0 0 0 0 0 0 0.2 0"/>
      <feBlend in2="BackgroundImageFix" result="effect1_dropShadow"/>
      <feBlend in="SourceGraphic" in2="effect1_dropShadow" result="shape"/>
    </filter>
    <filter id="kibana_montage_dark__filter4_d" x="304" y="157" width="280" height="156" filterUnits="userSpaceOnUse" color-interpolation-filters="sRGB">
      <feFlood flood-opacity="0" result="BackgroundImageFix"/>
      <feColorMatrix in="SourceAlpha" values="0 0 0 0 0 0 0 0 0 0 0 0 0 0 0 0 0 0 127 0"/>
      <feOffset dy="4"/>
      <feGaussianBlur stdDeviation="8"/>
      <feColorMatrix values="0 0 0 0 0 0 0 0 0 0 0 0 0 0 0 0 0 0 0.3 0"/>
      <feBlend in2="BackgroundImageFix" result="effect1_dropShadow"/>
      <feBlend in="SourceGraphic" in2="effect1_dropShadow" result="shape"/>
    </filter>
  </defs>
</svg>
