<svg width="584" height="347" viewBox="0 0 584 347" fill="none" xmlns="http://www.w3.org/2000/svg">
<g filter="url(#filter0_d)">
<rect x="24" y="117" width="520" height="124" rx="4" fill="#25262E"/>
</g>
<rect x="32" y="125" width="101" height="4" rx="2" fill="#A7AFBE"/>
<rect x="38" y="145" width="18" height="4" rx="2" fill="#535966"/>
<rect x="32" y="166" width="24" height="4" rx="2" fill="#535966"/>
<rect x="40" y="187" width="16" height="4" rx="2" fill="#535966"/>
<rect x="36" y="208" width="20" height="4" rx="2" fill="#535966"/>
<rect x="72" y="229" width="24" height="4" rx="2" fill="#535966"/>
<rect x="216" y="229" width="24" height="4" rx="2" fill="#535966"/>
<rect x="360" y="229" width="24" height="4" rx="2" fill="#535966"/>
<rect x="504" y="229" width="24" height="4" rx="2" fill="#535966"/>
<path opacity="0.1" d="M80.1774 211L65 203V220H535.5V183.5L520.323 196.192L505.145 197.538L489.968 188.692L474.79 206.577L459.613 207.538L444.435 202.154L429.258 201.385L414.081 206.769L398.903 200.923L383.726 160.308L368.548 178.385L353.371 139.923L338.194 197L323.016 180.692L307.839 193.615L292.661 184.077L277.484 189.692L262.306 165.308L247.129 164L231.952 148.385L216.774 197.462L201.597 202.077L186.419 179.923L171.242 174.538L156.065 143L140.887 180.923L125.71 187.846L110.532 207.538L95.3548 202.846L80.1774 211Z" fill="#54B399"/>
<path d="M65 203L80.1774 211L95.3548 202.846L110.532 207.538L125.71 187.846L140.887 180.923L156.065 143L171.242 174.538L186.419 179.923L201.597 202.077L216.774 197.462L231.952 148.385L247.129 164L262.306 165.308L277.484 189.692L292.661 184.077L307.839 193.615L323.016 180.692L338.194 197L353.371 139.923L368.548 178.385L383.726 160.308L398.903 200.923L414.081 206.769L429.258 201.385L444.435 202.154L459.613 207.538L474.79 206.577L489.968 188.692L505.145 197.538L520.323 196.192L535.5 183.5" stroke="#54B399" stroke-linecap="round" stroke-linejoin="round"/>
<circle opacity="0.1" cx="100" cy="156" r="8" fill="#6092C0"/>
<circle opacity="0.1" cx="232" cy="148" r="8" fill="#6092C0"/>
<circle opacity="0.1" cx="323" cy="181" r="8" fill="#6092C0"/>
<circle opacity="0.1" cx="353" cy="140" r="8" fill="#6092C0"/>
<circle opacity="0.1" cx="523" cy="140" r="8" fill="#6092C0"/>
<circle opacity="0.1" cx="106" cy="161" r="4" fill="#6092C0"/>
<circle opacity="0.1" cx="156" cy="143" r="4" fill="#6092C0"/>
<circle opacity="0.1" cx="240" cy="148" r="4" fill="#6092C0"/>
<circle opacity="0.1" cx="262" cy="165" r="4" fill="#6092C0"/>
<circle opacity="0.1" cx="345" cy="141" r="4" fill="#6092C0"/>
<circle opacity="0.1" cx="484" cy="185" r="4" fill="#7DE2D1"/>
<circle opacity="0.1" cx="490" cy="189" r="4" fill="#7DE2D1"/>
<circle cx="100" cy="156" r="7.5" stroke="#6092C0"/>
<circle cx="232" cy="148" r="7.5" stroke="#6092C0"/>
<circle cx="323" cy="181" r="7.5" stroke="#6092C0"/>
<circle cx="353" cy="140" r="7.5" stroke="#6092C0"/>
<circle cx="523" cy="140" r="7.5" stroke="#6092C0"/>
<circle cx="106" cy="161" r="3.5" stroke="#6092C0"/>
<circle cx="156" cy="143" r="3.5" stroke="#6092C0"/>
<circle cx="240" cy="148" r="3.5" stroke="#6092C0"/>
<circle cx="262" cy="165" r="3.5" stroke="#6092C0"/>
<circle cx="345" cy="141" r="3.5" stroke="#6092C0"/>
<circle cx="484" cy="185" r="3.5" stroke="#7DE2D1"/>
<circle cx="490" cy="189" r="3.5" stroke="#7DE2D1"/>
<path d="M64.5 137.5V147M535.5 220.5H516M64.5 147H60.5M64.5 147V168M64.5 168H60.5M64.5 168V189M64.5 189H60.5M64.5 189V210M64.5 210V220.5H84M64.5 210H60.5M84 224.5V220.5M84 220.5H228M228 220.5V224.5M228 220.5H372M372 220.5V224.5M372 220.5H516M516 220.5V224.5" stroke="#343741" stroke-linecap="round" stroke-linejoin="round"/>
<g filter="url(#filter1_d)">
<rect x="160" y="12" width="248" height="124" rx="4" fill="#25262E"/>
</g>
<rect x="168" y="20" width="80" height="4" rx="2" fill="#A7AFBE"/>
<path d="M312.284 108.284C318.251 102.318 322.178 94.6168 323.503 86.2835C324.829 77.9501 323.485 69.4109 319.664 61.8875C315.843 54.364 309.741 48.2415 302.23 44.3958C294.719 40.5501 286.185 39.1781 277.847 40.4761L280.308 56.2856C285.311 55.5068 290.432 56.33 294.938 58.6375C299.445 60.9449 303.106 64.6184 305.399 69.1325C307.691 73.6466 308.497 78.77 307.702 83.7701C306.907 88.7701 304.551 93.3906 300.971 96.9706L312.284 108.284Z" fill="#54B399"/>
<mask id="path-41-outside-1" maskUnits="userSpaceOnUse" x="249" y="90" width="72" height="31" fill="black">
<rect fill="white" x="249" y="90" width="72" height="31"/>
<path d="M250.416 101.728C254.136 107.478 259.27 112.177 265.327 115.374C271.384 118.571 278.16 120.16 285.007 119.987C291.853 119.815 298.541 117.888 304.429 114.39C310.317 110.892 315.209 105.941 318.635 100.011L304.781 92.0064C302.725 95.5645 299.79 98.5352 296.257 100.634C292.724 102.733 288.712 103.889 284.604 103.992C280.496 104.096 276.43 103.143 272.796 101.224C269.162 99.3061 266.082 96.4869 263.849 93.0368L250.416 101.728Z"/>
</mask>
<path d="M250.416 101.728C254.136 107.478 259.27 112.177 265.327 115.374C271.384 118.571 278.16 120.16 285.007 119.987C291.853 119.815 298.541 117.888 304.429 114.39C310.317 110.892 315.209 105.941 318.635 100.011L304.781 92.0064C302.725 95.5645 299.79 98.5352 296.257 100.634C292.724 102.733 288.712 103.889 284.604 103.992C280.496 104.096 276.43 103.143 272.796 101.224C269.162 99.3061 266.082 96.4869 263.849 93.0368L250.416 101.728Z" fill="#6092C0"/>
<path d="M250.416 101.728C254.136 107.478 259.27 112.177 265.327 115.374C271.384 118.571 278.16 120.16 285.007 119.987C291.853 119.815 298.541 117.888 304.429 114.39C310.317 110.892 315.209 105.941 318.635 100.011L304.781 92.0064C302.725 95.5645 299.79 98.5352 296.257 100.634C292.724 102.733 288.712 103.889 284.604 103.992C280.496 104.096 276.43 103.143 272.796 101.224C269.162 99.3061 266.082 96.4869 263.849 93.0368L250.416 101.728Z" stroke="#1D1E24" stroke-width="2" mask="url(#path-41-outside-1)"/>
<mask id="path-42-outside-2" maskUnits="userSpaceOnUse" x="243" y="53" width="24" height="54" fill="black">
<rect fill="white" x="243" y="53" width="24" height="54"/>
<path d="M252.645 55.1629C246.955 62.3461 243.904 71.2654 244.002 80.4287C244.101 89.5921 247.342 98.4439 253.185 105.504L265.511 95.3021C262.005 91.0663 260.06 85.7553 260.001 80.2572C259.942 74.7592 261.773 69.4077 265.187 65.0977L252.645 55.1629Z"/>
</mask>
<path d="M252.645 55.1629C246.955 62.3461 243.904 71.2654 244.002 80.4287C244.101 89.5921 247.342 98.4439 253.185 105.504L265.511 95.3021C262.005 91.0663 260.06 85.7553 260.001 80.2572C259.942 74.7592 261.773 69.4077 265.187 65.0977L252.645 55.1629Z" fill="#D36086"/>
<path d="M252.645 55.1629C246.955 62.3461 243.904 71.2654 244.002 80.4287C244.101 89.5921 247.342 98.4439 253.185 105.504L265.511 95.3021C262.005 91.0663 260.06 85.7553 260.001 80.2572C259.942 74.7592 261.773 69.4077 265.187 65.0977L252.645 55.1629Z" stroke="#1D1E24" stroke-width="2" mask="url(#path-42-outside-2)"/>
<mask id="path-43-outside-3" maskUnits="userSpaceOnUse" x="248" y="39" width="37" height="30" fill="black">
<rect fill="white" x="248" y="39" width="37" height="30"/>
<path d="M284 40C277.213 40 270.538 41.7269 264.602 45.0183C258.667 48.3097 253.666 53.0572 250.071 58.8141L263.643 67.2884C265.8 63.8343 268.8 60.9858 272.361 59.011C275.923 57.0362 279.928 56 284 56L284 40Z"/>
</mask>
<path d="M284 40C277.213 40 270.538 41.7269 264.602 45.0183C258.667 48.3097 253.666 53.0572 250.071 58.8141L263.643 67.2884C265.8 63.8343 268.8 60.9858 272.361 59.011C275.923 57.0362 279.928 56 284 56L284 40Z" fill="#9170B8"/>
<path d="M284 40C277.213 40 270.538 41.7269 264.602 45.0183C258.667 48.3097 253.666 53.0572 250.071 58.8141L263.643 67.2884C265.8 63.8343 268.8 60.9858 272.361 59.011C275.923 57.0362 279.928 56 284 56L284 40Z" stroke="#1D1E24" stroke-width="2" mask="url(#path-43-outside-3)"/>
<rect x="231" y="32" width="22" height="4" rx="2" fill="#535966"/>
<rect x="209" y="90" width="16" height="4" rx="2" fill="#535966"/>
<rect x="305" y="124" width="24" height="4" rx="2" fill="#535966"/>
<rect x="335" y="50" width="24" height="4" rx="2" fill="#535966"/>
<path d="M257.5 34H261.5L265.5 42.5" stroke="#343741" stroke-linecap="round" stroke-linejoin="round"/>
<path d="M330.5 52H326.5L319.5 56.5" stroke="#343741" stroke-linecap="round" stroke-linejoin="round"/>
<path d="M293 120.5L296.5 126H300.5" stroke="#343741" stroke-linecap="round" stroke-linejoin="round"/>
<path d="M242.5 85L233.5 92H229.5" stroke="#343741" stroke-linecap="round" stroke-linejoin="round"/>
<g filter="url(#filter2_d)">
<rect x="48" y="216" width="228" height="111" rx="4" fill="#25262E"/>
<rect x="52" y="220" width="12" height="4" rx="1" fill="#54B399"/>
<rect x="68" y="220" width="12" height="4" rx="1" fill="#6092C0"/>
<rect x="84" y="220" width="12" height="4" rx="1" fill="#D36086"/>
<rect x="100" y="220" width="12" height="4" rx="1" fill="#9170B8"/>
<path d="M167 283L191 295M191 295L167 307M191 295L215 307M191 295H225M191 295L215 283" stroke="#343741"/>
<path d="M117 251L133 271M133 271L99 259M133 271H109M133 271L99 283M133 271L117 291M133 271L149 291M133 271H157M133 271L149 251M133 271L167 259M133 271L167 283" stroke="#343741"/>
<path d="M167 235L191 247M191 247L167 259M191 247L215 235M191 247L215 259" stroke="#343741"/>
<circle cx="133" cy="271" r="4.5" fill="#9170B8" stroke="#1D1E24"/>
<circle cx="191" cy="295" r="4.5" fill="#6092C0" stroke="#1D1E24"/>
<circle cx="191" cy="247" r="4.5" fill="#D36086" stroke="#1D1E24"/>
<circle cx="149" cy="251" r="4.5" fill="#54B399" stroke="#1D1E24"/>
<circle cx="167" cy="235" r="4.5" fill="#54B399" stroke="#1D1E24"/>
<circle cx="215" cy="235" r="4.5" fill="#54B399" stroke="#1D1E24"/>
<circle cx="215" cy="259" r="4.5" fill="#54B399" stroke="#1D1E24"/>
<circle cx="215" cy="307" r="4.5" fill="#54B399" stroke="#1D1E24"/>
<circle cx="225" cy="295" r="4.5" fill="#54B399" stroke="#1D1E24"/>
<circle cx="215" cy="283" r="4.5" fill="#54B399" stroke="#1D1E24"/>
<circle cx="167" cy="259" r="4.5" fill="#54B399" stroke="#1D1E24"/>
<circle cx="167" cy="283" r="4.5" fill="#54B399" stroke="#1D1E24"/>
<circle cx="167" cy="307" r="4.5" fill="#54B399" stroke="#1D1E24"/>
<circle cx="157" cy="271" r="4.5" fill="#54B399" stroke="#1D1E24"/>
<circle cx="149" cy="291" r="4.5" fill="#54B399" stroke="#1D1E24"/>
<circle cx="117" cy="251" r="4.5" fill="#54B399" stroke="#1D1E24"/>
<circle cx="109" cy="271" r="4.5" fill="#54B399" stroke="#1D1E24"/>
<circle cx="117" cy="291" r="4.5" fill="#54B399" stroke="#1D1E24"/>
<circle cx="99" cy="283" r="4.5" fill="#54B399" stroke="#1D1E24"/>
<circle cx="99" cy="259" r="4.5" fill="#54B399" stroke="#1D1E24"/>
<rect x="125.5" y="276.5" width="15" height="3" rx="1.5" fill="#535966" stroke="#1D1E24"/>
<rect x="186.5" y="300.5" width="9" height="3" rx="1.5" fill="#535966" stroke="#1D1E24"/>
<rect x="185.5" y="252.5" width="11" height="3" rx="1.5" fill="#535966" stroke="#1D1E24"/>
</g>
<g filter="url(#filter3_d)">
<rect x="232" y="208" width="52" height="56" rx="4" fill="#25262E"/>
</g>
<rect x="236.5" y="252.5" width="43" height="7" rx="0.5" fill="#1D1E24" stroke="#343741"/>
<rect x="236" y="212" width="26" height="2" rx="1" fill="#A7AFBE"/>
<rect x="236" y="246" width="26" height="2" rx="1" fill="#A7AFBE"/>
<rect x="240" y="218" width="29" height="2" rx="1" fill="#535966"/>
<rect x="240" y="224" width="23" height="2" rx="1" fill="#535966"/>
<rect x="240" y="230" width="26" height="2" rx="1" fill="#535966"/>
<rect x="240" y="236" width="33" height="2" rx="1" fill="#535966"/>
<circle cx="237" cy="219" r="1" fill="#54B399"/>
<circle cx="237" cy="225" r="1" fill="#6092C0"/>
<circle cx="237" cy="231" r="1" fill="#D36086"/>
<circle cx="237" cy="237" r="1" fill="#9170B8"/>
<g filter="url(#filter4_d)">
<rect x="320" y="169" width="248" height="124" rx="4" fill="#25262E"/>
</g>
<rect x="328" y="177" width="120" height="4" rx="2" fill="#A7AFBE"/>
<rect x="336" y="197" width="16" height="4" rx="2" fill="#535966"/>
<rect x="368" y="281" width="24" height="4" rx="2" fill="#535966"/>
<rect x="421" y="281" width="24" height="4" rx="2" fill="#535966"/>
<rect x="474" y="281" width="24" height="4" rx="2" fill="#535966"/>
<rect x="527" y="281" width="24" height="4" rx="2" fill="#535966"/>
<rect x="328" y="218" width="24" height="4" rx="2" fill="#535966"/>
<rect x="332" y="239" width="20" height="4" rx="2" fill="#535966"/>
<rect x="336" y="260" width="16" height="4" rx="2" transform="rotate(-0.170459 336 260)" fill="#535966"/>
<path d="M360.5 189.5V199M559.5 272.5H539M360.5 199H356.5M360.5 199V220M360.5 220H356.5M360.5 220V241M360.5 241H356.5M360.5 241V262M360.5 262V272.5H380M360.5 262H356.5M380 276.5V272.5M380 272.5H433M433 272.5V276.5M433 272.5H486M486 272.5V276.5M486 272.5H539M539 272.5V276.5" stroke="#343741" stroke-linecap="round" stroke-linejoin="round"/>
<rect x="363" y="191" width="181" height="16" rx="1" fill="#54B399"/>
<rect x="363" y="233" width="59" height="16" rx="1" fill="#D36086"/>
<rect x="363" y="212" width="120" height="16" rx="1" fill="#6092C0"/>
<rect x="363" y="254" width="30" height="16" rx="1" fill="#9170B8"/>
<defs>
<filter id="filter0_d" x="8" y="105" width="552" height="156" filterUnits="userSpaceOnUse" color-interpolation-filters="sRGB">
<feFlood flood-opacity="0" result="BackgroundImageFix"/>
<feColorMatrix in="SourceAlpha" type="matrix" values="0 0 0 0 0 0 0 0 0 0 0 0 0 0 0 0 0 0 127 0"/>
<feOffset dy="4"/>
<feGaussianBlur stdDeviation="8"/>
<feColorMatrix type="matrix" values="0 0 0 0 0 0 0 0 0 0 0 0 0 0 0 0 0 0 0.3 0"/>
<feBlend mode="normal" in2="BackgroundImageFix" result="effect1_dropShadow"/>
<feBlend mode="normal" in="SourceGraphic" in2="effect1_dropShadow" result="shape"/>
</filter>
<filter id="filter1_d" x="144" y="0" width="280" height="156" filterUnits="userSpaceOnUse" color-interpolation-filters="sRGB">
<feFlood flood-opacity="0" result="BackgroundImageFix"/>
<feColorMatrix in="SourceAlpha" type="matrix" values="0 0 0 0 0 0 0 0 0 0 0 0 0 0 0 0 0 0 127 0"/>
<feOffset dy="4"/>
<feGaussianBlur stdDeviation="8"/>
<feColorMatrix type="matrix" values="0 0 0 0 0 0 0 0 0 0 0 0 0 0 0 0 0 0 0.3 0"/>
<feBlend mode="normal" in2="BackgroundImageFix" result="effect1_dropShadow"/>
<feBlend mode="normal" in="SourceGraphic" in2="effect1_dropShadow" result="shape"/>
</filter>
<filter id="filter2_d" x="32" y="204" width="260" height="143" filterUnits="userSpaceOnUse" color-interpolation-filters="sRGB">
<feFlood flood-opacity="0" result="BackgroundImageFix"/>
<feColorMatrix in="SourceAlpha" type="matrix" values="0 0 0 0 0 0 0 0 0 0 0 0 0 0 0 0 0 0 127 0"/>
<feOffset dy="4"/>
<feGaussianBlur stdDeviation="8"/>
<feColorMatrix type="matrix" values="0 0 0 0 0 0 0 0 0 0 0 0 0 0 0 0 0 0 0.3 0"/>
<feBlend mode="normal" in2="BackgroundImageFix" result="effect1_dropShadow"/>
<feBlend mode="normal" in="SourceGraphic" in2="effect1_dropShadow" result="shape"/>
</filter>
<filter id="filter3_d" x="216" y="196" width="84" height="88" filterUnits="userSpaceOnUse" color-interpolation-filters="sRGB">
<feFlood flood-opacity="0" result="BackgroundImageFix"/>
<feColorMatrix in="SourceAlpha" type="matrix" values="0 0 0 0 0 0 0 0 0 0 0 0 0 0 0 0 0 0 127 0"/>
<feOffset dy="4"/>
<feGaussianBlur stdDeviation="8"/>
<feColorMatrix type="matrix" values="0 0 0 0 0 0 0 0 0 0 0 0 0 0 0 0 0 0 0.2 0"/>
<feBlend mode="normal" in2="BackgroundImageFix" result="effect1_dropShadow"/>
<feBlend mode="normal" in="SourceGraphic" in2="effect1_dropShadow" result="shape"/>
</filter>
<filter id="filter4_d" x="304" y="157" width="280" height="156" filterUnits="userSpaceOnUse" color-interpolation-filters="sRGB">
<feFlood flood-opacity="0" result="BackgroundImageFix"/>
<feColorMatrix in="SourceAlpha" type="matrix" values="0 0 0 0 0 0 0 0 0 0 0 0 0 0 0 0 0 0 127 0"/>
<feOffset dy="4"/>
<feGaussianBlur stdDeviation="8"/>
<feColorMatrix type="matrix" values="0 0 0 0 0 0 0 0 0 0 0 0 0 0 0 0 0 0 0.3 0"/>
<feBlend mode="normal" in2="BackgroundImageFix" result="effect1_dropShadow"/>
<feBlend mode="normal" in="SourceGraphic" in2="effect1_dropShadow" result="shape"/>
</filter>
</defs>
</svg>
