<svg width="568" height="320" fill="none" xmlns="http://www.w3.org/2000/svg">
  <path fill="#25262E" d="M0 0h568v320H0z"/>
  <g filter="url(#kibana_discover_dark__filter0_d)">
    <rect x="160" y="24" width="384" height="124" rx="4" fill="#1D1E24"/>
  </g>
  <rect x="292" y="32" width="120" height="4" rx="2" fill="#A7AFBE"/>
  <rect x="176" y="56" width="16" height="4" rx="2" fill="#535966"/>
  <rect x="237" y="136" width="24" height="4" rx="2" fill="#535966"/>
  <rect x="317" y="136" width="24" height="4" rx="2" fill="#535966"/>
  <rect x="397" y="136" width="24" height="4" rx="2" fill="#535966"/>
  <rect x="477" y="136" width="24" height="4" rx="2" fill="#535966"/>
  <rect x="168" y="76" width="24" height="4" rx="2" fill="#535966"/>
  <rect x="172" y="96" width="20" height="4" rx="2" fill="#535966"/>
  <rect x="176" y="116" width="16" height="4" rx="2" transform="rotate(-.17 176 116)" fill="#535966"/>
  <path d="M200.5 48.5V58m335 69.5H489M200.5 58h-4m4 0v20m0 0h-4m4 0v20m0 0h-4m4 0v20m0 0v9.5H249m-48.5-9.5h-4m52.5 13.5v-4m0 0h80m0 0v4m0-4h80m0 0v4m0-4h80m0 0v4" stroke="#343741" stroke-linecap="round" stroke-linejoin="round"/>
  <rect x="210" y="101" width="16" height="24" rx="1" fill="#54B399"/>
  <rect x="230" y="97" width="16" height="28" rx="1" fill="#54B399"/>
  <rect x="250" y="99" width="16" height="26" rx="1" fill="#54B399"/>
  <rect x="270" y="92" width="16" height="33" rx="1" fill="#54B399"/>
  <rect x="290" y="53" width="16" height="72" rx="1" fill="#54B399"/>
  <rect x="310" y="59" width="16" height="66" rx="1" fill="#54B399"/>
  <rect x="330" y="101" width="16" height="24" rx="1" fill="#54B399"/>
  <rect x="350" y="105" width="16" height="20" rx="1" fill="#54B399"/>
  <rect x="370" y="103" width="16" height="22" rx="1" fill="#54B399"/>
  <rect x="390" y="89" width="16" height="36" rx="1" fill="#54B399"/>
  <rect x="410" y="53" width="16" height="72" rx="1" fill="#54B399"/>
  <rect x="430" y="63" width="16" height="62" rx="1" fill="#54B399"/>
  <rect x="450" y="109" width="16" height="16" rx="1" fill="#54B399"/>
  <rect x="470" y="112" width="16" height="13" rx="1" fill="#54B399"/>
  <rect x="490" y="101" width="16" height="24" rx="1" fill="#54B399"/>
  <rect x="510" y="105" width="16" height="20" rx="1" fill="#54B399"/>
  <g filter="url(#kibana_discover_dark__filter1_d)">
    <rect x="24" y="24" width="112" height="272" rx="4" fill="#1D1E24"/>
  </g>
  <rect x="32" y="32" width="58" height="4" rx="2" fill="#A7AFBE"/>
  <rect x="32" y="88" width="51" height="4" rx="2" fill="#535966"/>
  <rect x="40" y="100" width="63" height="4" rx="2" fill="#343741"/>
  <rect x="40" y="112" width="54" height="4" rx="2" fill="#343741"/>
  <rect x="40" y="124" width="72" height="4" rx="2" fill="#343741"/>
  <rect x="40" y="136" width="68" height="4" rx="2" fill="#343741"/>
  <rect x="32" y="164" width="43" height="4" rx="2" fill="#535966"/>
  <rect x="40" y="176" width="68" height="4" rx="2" fill="#343741"/>
  <rect x="40" y="188" width="63" height="4" rx="2" fill="#343741"/>
  <rect x="40" y="200" width="78" height="4" rx="2" fill="#343741"/>
  <rect x="40" y="212" width="50" height="4" rx="2" fill="#343741"/>
  <rect x="40" y="224" width="78" height="4" rx="2" fill="#343741"/>
  <rect x="40" y="236" width="68" height="4" rx="2" fill="#343741"/>
  <rect x="40" y="248" width="61" height="4" rx="2" fill="#343741"/>
  <rect x="40" y="260" width="66" height="4" rx="2" fill="#343741"/>
  <rect x="40" y="272" width="63" height="4" rx="2" fill="#343741"/>
  <rect x="40" y="284" width="70" height="4" rx="2" fill="#343741"/>
  <rect x="32.5" y="48.5" width="95" height="15" rx=".5" fill="#1D1E24" stroke="#343741"/>
  <path fill-rule="evenodd" clip-rule="evenodd" d="M44 55a3 3 0 11-6 0 3 3 0 016 0zm1 0a4 4 0 01-6.453 3.16l-2.693 2.694a.5.5 0 01-.708-.708l2.694-2.693A4 4 0 1145 55z" fill="#535966"/>
  <rect x="32" y="100" width="4" height="4" rx="1" fill="#535966"/>
  <rect x="32" y="112" width="4" height="4" rx="1" fill="#535966"/>
  <rect x="32" y="124" width="4" height="4" rx="1" fill="#535966"/>
  <rect x="32" y="136" width="4" height="4" rx="1" fill="#535966"/>
  <rect x="32" y="176" width="4" height="4" rx="1" fill="#535966"/>
  <rect x="32" y="188" width="4" height="4" rx="1" fill="#535966"/>
  <rect x="32" y="200" width="4" height="4" rx="1" fill="#535966"/>
  <rect x="32" y="212" width="4" height="4" rx="1" fill="#535966"/>
  <rect x="32" y="224" width="4" height="4" rx="1" fill="#535966"/>
  <rect x="32" y="236" width="4" height="4" rx="1" fill="#535966"/>
  <rect x="32" y="248" width="4" height="4" rx="1" fill="#535966"/>
  <rect x="32" y="260" width="4" height="4" rx="1" fill="#535966"/>
  <rect x="32" y="272" width="4" height="4" rx="1" fill="#535966"/>
  <rect x="32" y="284" width="4" height="4" rx="1" fill="#535966"/>
  <g filter="url(#kibana_discover_dark__filter2_d)">
    <rect x="160" y="172" width="384" height="124" rx="4" fill="#1D1E24"/>
  </g>
  <rect x="178" y="180" width="54" height="4" rx="2" fill="#535966"/>
  <rect x="270" y="180" width="32" height="4" rx="2" fill="#535966"/>
  <rect x="362" y="180" width="50" height="4" rx="2" fill="#535966"/>
  <rect x="454" y="180" width="55" height="4" rx="2" fill="#535966"/>
  <rect x="178" y="200" width="59" height="4" rx="2" fill="#343741"/>
  <rect x="270" y="200" width="39" height="4" rx="2" fill="#343741"/>
  <rect x="362" y="200" width="57" height="4" rx="2" fill="#343741"/>
  <rect x="454" y="200" width="45" height="4" rx="2" fill="#343741"/>
  <path d="M168.5 200.5l1.5 1.5-1.5 1.5" stroke="#434548" stroke-linecap="round" stroke-linejoin="round"/>
  <rect x="178" y="212" width="52" height="4" rx="2" fill="#343741"/>
  <rect x="270" y="212" width="44" height="4" rx="2" fill="#343741"/>
  <rect x="362" y="212" width="50" height="4" rx="2" fill="#343741"/>
  <rect x="454" y="212" width="39" height="4" rx="2" fill="#343741"/>
  <path d="M168.5 212.5l1.5 1.5-1.5 1.5" stroke="#434548" stroke-linecap="round" stroke-linejoin="round"/>
  <rect x="178" y="224" width="54" height="4" rx="2" fill="#343741"/>
  <rect x="270" y="224" width="34" height="4" rx="2" fill="#343741"/>
  <rect x="362" y="224" width="55" height="4" rx="2" fill="#343741"/>
  <rect x="454" y="224" width="59" height="4" rx="2" fill="#343741"/>
  <path d="M168.5 224.5l1.5 1.5-1.5 1.5" stroke="#434548" stroke-linecap="round" stroke-linejoin="round"/>
  <rect x="178" y="236" width="57" height="4" rx="2" fill="#343741"/>
  <rect x="270" y="236" width="51" height="4" rx="2" fill="#343741"/>
  <rect x="362" y="236" width="48" height="4" rx="2" fill="#343741"/>
  <rect x="454" y="236" width="51" height="4" rx="2" fill="#343741"/>
  <path d="M168.5 236.5l1.5 1.5-1.5 1.5" stroke="#434548" stroke-linecap="round" stroke-linejoin="round"/>
  <rect x="178" y="248" width="47" height="4" rx="2" fill="#343741"/>
  <rect x="270" y="248" width="48" height="4" rx="2" fill="#343741"/>
  <rect x="362" y="248" width="50" height="4" rx="2" fill="#343741"/>
  <rect x="454" y="248" width="54" height="4" rx="2" fill="#343741"/>
  <path d="M168.5 248.5l1.5 1.5-1.5 1.5" stroke="#434548" stroke-linecap="round" stroke-linejoin="round"/>
  <rect x="178" y="260" width="63" height="4" rx="2" fill="#343741"/>
  <rect x="270" y="260" width="44" height="4" rx="2" fill="#343741"/>
  <rect x="362" y="260" width="46" height="4" rx="2" fill="#343741"/>
  <rect x="454" y="260" width="47" height="4" rx="2" fill="#343741"/>
  <path d="M168.5 260.5l1.5 1.5-1.5 1.5" stroke="#434548" stroke-linecap="round" stroke-linejoin="round"/>
  <rect x="178" y="272" width="54" height="4" rx="2" fill="#343741"/>
  <rect x="270" y="272" width="56" height="4" rx="2" fill="#343741"/>
  <rect x="362" y="272" width="57" height="4" rx="2" fill="#343741"/>
  <rect x="454" y="272" width="53" height="4" rx="2" fill="#343741"/>
  <path d="M168.5 272.5l1.5 1.5-1.5 1.5" stroke="#434548" stroke-linecap="round" stroke-linejoin="round"/>
  <rect x="178" y="284" width="60" height="4" rx="2" fill="#343741"/>
  <rect x="270" y="284" width="51" height="4" rx="2" fill="#343741"/>
  <rect x="362" y="284" width="50" height="4" rx="2" fill="#343741"/>
  <rect x="454" y="284" width="62" height="4" rx="2" fill="#343741"/>
  <path d="M168.5 284.5l1.5 1.5-1.5 1.5" stroke="#434548" stroke-linecap="round" stroke-linejoin="round"/>
  <path d="M168.5 192h367" stroke="#343741" stroke-linecap="round" stroke-linejoin="round"/>
  <defs>
    <filter id="kibana_discover_dark__filter0_d" x="144" y="12" width="416" height="156" filterUnits="userSpaceOnUse" color-interpolation-filters="sRGB">
      <feFlood flood-opacity="0" result="BackgroundImageFix"/>
      <feColorMatrix in="SourceAlpha" values="0 0 0 0 0 0 0 0 0 0 0 0 0 0 0 0 0 0 127 0"/>
      <feOffset dy="4"/>
      <feGaussianBlur stdDeviation="8"/>
      <feColorMatrix values="0 0 0 0 0 0 0 0 0 0 0 0 0 0 0 0 0 0 0.05 0"/>
      <feBlend in2="BackgroundImageFix" result="effect1_dropShadow"/>
      <feBlend in="SourceGraphic" in2="effect1_dropShadow" result="shape"/>
    </filter>
    <filter id="kibana_discover_dark__filter1_d" x="8" y="12" width="144" height="304" filterUnits="userSpaceOnUse" color-interpolation-filters="sRGB">
      <feFlood flood-opacity="0" result="BackgroundImageFix"/>
      <feColorMatrix in="SourceAlpha" values="0 0 0 0 0 0 0 0 0 0 0 0 0 0 0 0 0 0 127 0"/>
      <feOffset dy="4"/>
      <feGaussianBlur stdDeviation="8"/>
      <feColorMatrix values="0 0 0 0 0 0 0 0 0 0 0 0 0 0 0 0 0 0 0.05 0"/>
      <feBlend in2="BackgroundImageFix" result="effect1_dropShadow"/>
      <feBlend in="SourceGraphic" in2="effect1_dropShadow" result="shape"/>
    </filter>
    <filter id="kibana_discover_dark__filter2_d" x="144" y="160" width="416" height="156" filterUnits="userSpaceOnUse" color-interpolation-filters="sRGB">
      <feFlood flood-opacity="0" result="BackgroundImageFix"/>
      <feColorMatrix in="SourceAlpha" values="0 0 0 0 0 0 0 0 0 0 0 0 0 0 0 0 0 0 127 0"/>
      <feOffset dy="4"/>
      <feGaussianBlur stdDeviation="8"/>
      <feColorMatrix values="0 0 0 0 0 0 0 0 0 0 0 0 0 0 0 0 0 0 0.05 0"/>
      <feBlend in2="BackgroundImageFix" result="effect1_dropShadow"/>
      <feBlend in="SourceGraphic" in2="effect1_dropShadow" result="shape"/>
    </filter>
  </defs>
</svg>
