<svg width="32" height="32" viewBox="0 0 32 32" fill="none" xmlns="http://www.w3.org/2000/svg">
<g clip-path="url(#clip0_4733_152641)">
<path fill-rule="evenodd" clip-rule="evenodd" d="M25.9545 24.9549V23.0469C28.1845 23.0469 29.9995 21.2309 29.9995 19.0009C29.9995 17.3329 28.9915 15.8579 27.4315 15.2449L26.7035 14.9579L26.8415 14.1879C26.9485 13.5909 26.9995 13.0379 26.9995 12.5009C26.9995 7.23688 22.7175 2.95487 17.4545 2.95487C13.0335 2.95487 9.22251 5.95888 8.18451 10.2599L8.02651 10.9189L7.35051 10.9859C4.24851 11.2929 1.90951 13.8789 1.90951 17.0009C1.90951 20.3339 4.62151 23.0469 7.95451 23.0469V24.9549C3.56851 24.9549 -0.000488281 21.3869 -0.000488281 17.0009C-0.000488281 13.1179 2.75151 9.86488 6.50051 9.17988C7.95451 4.35888 12.3685 1.04688 17.4545 1.04688C23.7705 1.04688 28.9095 6.18388 28.9095 12.5009C28.9095 12.9249 28.8825 13.3519 28.8295 13.7959C30.7225 14.8339 31.9095 16.8029 31.9095 19.0009C31.9095 22.2839 29.2375 24.9549 25.9545 24.9549Z" fill="#0B64DD"/>
<path fill-rule="evenodd" clip-rule="evenodd" d="M12.875 31H15.248L23.121 19.008H13.571L19.801 9H17.465L10 20.992H19.446L12.875 31Z" fill="#0B64DD"/>
</g>
<defs>
<clipPath id="clip0_4733_152641">
<rect width="32" height="32" fill="white"/>
</clipPath>
</defs>
</svg>
