<svg width="32" height="32" viewBox="0 0 32 32" fill="none" xmlns="http://www.w3.org/2000/svg">
<g clip-path="url(#clip0_4831_30429)">
<path fill-rule="evenodd" clip-rule="evenodd" d="M25.9546 24.9549V23.0469C28.1846 23.0469 29.9996 21.2309 29.9996 19.0009C29.9996 17.3329 28.9916 15.8579 27.4316 15.2449L26.7036 14.9579L26.8416 14.1879C26.9486 13.5909 26.9996 13.0379 26.9996 12.5009C26.9996 7.23688 22.7176 2.95487 17.4546 2.95487C13.0336 2.95487 9.22257 5.95888 8.18457 10.2599L8.02657 10.9189L7.35057 10.9859C4.24857 11.2929 1.90957 13.8789 1.90957 17.0009C1.90957 20.3339 4.62157 23.0469 7.95457 23.0469V24.9549C3.56857 24.9549 -0.000427246 21.3869 -0.000427246 17.0009C-0.000427246 13.1179 2.75157 9.86488 6.50057 9.17988C7.95457 4.35888 12.3686 1.04688 17.4546 1.04688C23.7706 1.04688 28.9096 6.18388 28.9096 12.5009C28.9096 12.9249 28.8826 13.3519 28.8296 13.7959C30.7226 14.8339 31.9096 16.8029 31.9096 19.0009C31.9096 22.2839 29.2376 24.9549 25.9546 24.9549Z" fill="#98A2B3"/>
<path fill-rule="evenodd" clip-rule="evenodd" d="M12.875 31H15.248L23.121 19.008H13.571L19.801 9H17.465L10 20.992H19.446L12.875 31Z" fill="#00BFB3"/>
</g>
<defs>
<clipPath id="clip0_4831_30429">
<rect width="32" height="32" fill="white"/>
</clipPath>
</defs>
</svg>
