<svg width="43" height="43" viewBox="0 0 43 43" fill="none" xmlns="http://www.w3.org/2000/svg">
<path fill-rule="evenodd" clip-rule="evenodd" d="M8.51682 0.301656C8.00214 -0.100552 7.26953 -0.100552 6.75485 0.301656L0.526587 5.16812C-0.175529 5.7165 -0.175529 6.75708 0.526587 7.30569L6.97536 12.3444C7.00351 12.3663 7.04386 12.3663 7.07201 12.3444L15.4256 5.81722C15.4643 5.78707 15.4643 5.72997 15.4256 5.69982L8.51682 0.301656Z" transform="translate(13.584 12.1055)" fill="#19CCC0"/>
<path fill-rule="evenodd" clip-rule="evenodd" d="M1.44505 24.9483L16.0886 13.5067C16.2988 13.3425 16.421 13.0945 16.421 12.8318V0L0.332643 12.5708C0.122454 12.7347 0 12.983 0 13.2454V24.2736C0 24.9999 0.863511 25.4028 1.44505 24.9483Z" transform="translate(12.668 17.8594)" fill="#00FFF4"/>
<path fill-rule="evenodd" clip-rule="evenodd" d="M10.8067 0L2.32475 6.63037L0 4.8137L10.8067 0Z" transform="translate(18.2812 17.8574)" fill="#27AFA2"/>
<path fill-rule="evenodd" clip-rule="evenodd" d="M6.93782 12.0591C7.45251 12.4613 8.18512 12.4613 8.6998 12.0591L14.9281 7.19263C15.6302 6.64425 15.6302 5.60367 14.9281 5.05529L8.47929 0.0166159C8.45114 -0.00553863 8.41079 -0.00553863 8.38264 0.0166159L0.02903 6.54375C-0.00967668 6.57367 -0.00967668 6.63077 0.02903 6.66092L6.93782 12.0591Z" transform="translate(0.0507812 18.5352)" fill="#028ACF"/>
<path fill-rule="evenodd" clip-rule="evenodd" d="M14.976 0.192083L0.332408 11.6336C0.122219 11.7979 0 12.0461 0 12.3086V25.1404L16.0884 12.5698C16.2986 12.4056 16.421 12.1574 16.421 11.8949V0.866997C16.421 0.140693 15.5575 -0.262428 14.976 0.192083Z" fill="#02AAFF"/>
<path fill-rule="evenodd" clip-rule="evenodd" d="M0 6.63014L8.48193 0L10.8067 1.81644L0 6.63014Z" transform="translate(0 18.5137)" fill="#0578A5"/>
</svg>
