<svg width="128" height="128" viewBox="0 0 128 128" fill="none" xmlns="http://www.w3.org/2000/svg">
<path d="M116.07 67.67C116.07 72.78 115.23 77.7 113.68 82.29C107.59 100.33 90.52 113.32 70.41 113.32C45.2 113.32 24.75 92.88 24.75 67.67C24.75 42.46 45.2 22.01 70.41 22.01C95.62 22.01 116.07 42.45 116.07 67.67Z" fill="#0C1C41" stroke="#0C1C41" stroke-linecap="round" stroke-linejoin="round"/>
<path d="M122.01 67.67C122.01 72.78 121.17 77.69 119.62 82.29C113.53 100.33 96.4604 113.33 76.3504 113.33C51.1404 113.33 30.6904 92.89 30.6904 67.68C30.6904 66.69 30.7204 65.7 30.7904 64.72C32.0004 45.76 44.7804 29.95 62.1404 24.28C63.7004 23.77 65.2904 23.34 66.9104 23C69.9604 22.36 73.1104 22.03 76.3504 22.03C101.57 22.03 122.01 42.47 122.01 67.69V67.67Z" fill="white" stroke="#0C1C41" stroke-linecap="round" stroke-linejoin="round"/>
<path d="M95.2 70.5702C95.2 80.9802 86.76 89.4202 76.35 89.4202C72.45 89.4202 68.82 88.2302 65.81 86.2002C60.8 82.8102 57.5 77.0802 57.5 70.5702C57.5 60.1602 65.94 51.7202 76.35 51.7202C86.76 51.7202 95.2 60.1602 95.2 70.5702Z" fill="white" stroke="#0C1C41" stroke-linecap="round" stroke-linejoin="round"/>
<path d="M102.91 41.23L77.9102 64.86L74.7602 68.99L37.6802 82.43C37.6802 82.43 37.8702 34.65 51.8502 31.42C65.8302 28.19 99.3102 28.86 102.91 41.24V41.23Z" fill="white"/>
<path d="M121.73 70.5701H30.4204" stroke="#0C1C41" stroke-linecap="round" stroke-linejoin="round"/>
<path d="M76.3501 22.01V113.32" stroke="#0C1C41" stroke-linecap="round" stroke-linejoin="round"/>
<path d="M76.3502 74.0102C78.9183 74.0102 81.0002 71.9283 81.0002 69.3602C81.0002 66.7921 78.9183 64.7102 76.3502 64.7102C73.7821 64.7102 71.7002 66.7921 71.7002 69.3602C71.7002 71.9283 73.7821 74.0102 76.3502 74.0102Z" fill="#0C1C41" stroke="#0C1C41" stroke-linecap="round" stroke-linejoin="round"/>
<path d="M111.12 67.6701C111.12 86.8701 95.5501 102.44 76.3501 102.44C69.1501 102.44 62.4601 100.25 56.9101 96.5001C47.6601 90.2501 41.5801 79.6701 41.5801 67.6701C41.5801 48.4701 57.1501 32.9001 76.3501 32.9001C95.5501 32.9001 111.12 48.4701 111.12 67.6701Z" stroke="#0C1C41" stroke-linecap="round" stroke-linejoin="round"/>
<path d="M105.212 45.1781C106.461 43.9284 106.463 41.9039 105.215 40.6562C103.968 39.4085 101.943 39.41 100.693 40.6597L74.3465 67.0065C73.0968 68.2562 73.0953 70.2807 74.343 71.5285C75.5907 72.7762 77.6152 72.7746 78.8649 71.5249L105.212 45.1781Z" fill="#48EFCF" stroke="#0C1C41" stroke-linecap="round" stroke-linejoin="round"/>
<path d="M60.8002 15.6201H9.74023C7.66917 15.6201 5.99023 17.2991 5.99023 19.3701V56.7201C5.99023 58.7912 7.66917 60.4701 9.74023 60.4701H60.8002C62.8713 60.4701 64.5502 58.7912 64.5502 56.7201V19.3701C64.5502 17.2991 62.8713 15.6201 60.8002 15.6201Z" fill="#0C1C41"/>
<path d="M69.3801 19.3701V56.7301C69.3801 58.8001 67.7001 60.4701 65.6301 60.4701H14.5601C12.4901 60.4701 10.8101 58.8001 10.8101 56.7301V19.3701C10.8101 17.3001 12.4901 15.6201 14.5601 15.6201H65.6301C67.7001 15.6201 69.3801 17.3001 69.3801 19.3701Z" fill="#F4F6F9" stroke="#0C1C41" stroke-linecap="round" stroke-linejoin="round"/>
<path d="M69.3801 19.3701V22.0101H10.8101V19.3701C10.8101 17.3001 12.4901 15.6201 14.5601 15.6201H65.6301C67.7001 15.6201 69.3801 17.3001 69.3801 19.3701Z" fill="#F4F6F9" stroke="#0C1C41" stroke-linecap="round" stroke-linejoin="round"/>
<path d="M15.8304 19.79H24.4604C25.0017 19.79 25.4404 19.3535 25.4404 18.815C25.4404 18.2766 25.0017 17.84 24.4604 17.84H15.8304C15.2892 17.84 14.8504 18.2766 14.8504 18.815C14.8504 19.3535 15.2892 19.79 15.8304 19.79Z" fill="#131C3D"/>
<path d="M26.44 55.2602C24.92 55.2602 23.53 54.3602 22.81 52.8902C22.09 51.4202 22.17 49.6602 23.01 48.2802L36.15 26.7102C36.91 25.4602 38.18 24.7102 39.57 24.7102C40.97 24.7102 42.26 25.4702 43.01 26.7402L55.91 48.3102C56.74 49.7002 56.81 51.4602 56.08 52.9102C55.36 54.3602 53.97 55.2602 52.46 55.2602H26.43H26.44Z" fill="#131C3D" stroke="#131C3D" stroke-miterlimit="10"/>
<path d="M28.0601 55.2602C26.5401 55.2602 25.1501 54.3602 24.4301 52.8902C23.7101 51.4202 23.7901 49.6602 24.6301 48.2802L37.7701 26.7102C38.5301 25.4602 39.8001 24.7102 41.1901 24.7102C42.5801 24.7102 43.8801 25.4702 44.6301 26.7402L57.5301 48.3102C58.3601 49.7002 58.4301 51.4602 57.7001 52.9102C56.9801 54.3602 55.5901 55.2602 54.0801 55.2602H28.0501H28.0601Z" fill="#2C62D4" stroke="#131C3D" stroke-miterlimit="10"/>
<path d="M42.8403 28.0301C42.0703 26.7501 40.3503 26.7301 39.5703 28.0101L26.4303 49.5801C25.5703 51.0001 26.5003 52.9001 28.0603 52.9001H54.0903C55.6503 52.9001 56.5803 51.0101 55.7303 49.5901L42.8303 28.0201L42.8403 28.0301Z" fill="white" stroke="#131C3D" stroke-miterlimit="10"/>
<path d="M39.4199 36.3601H43.1699L42.5399 45.7701H40.0299L39.4199 36.3601ZM39.6199 50.6201V47.1401H42.9799V50.6201H39.6199Z" fill="#131C3D"/>
</svg>
