<svg xmlns="http://www.w3.org/2000/svg" width="232" height="159" viewBox="0 0 232 159" fill="none">
  <g clip-path="url(#clip0_10236_34571)">
    <path d="M73.6565 64.473C77.5143 62.6646 81.9354 62.4847 85.9242 63.9646L86.1139 64.0363L86.114 64.0364L96.1631 67.9125C97.2677 68.3386 97.8179 69.5795 97.3919 70.6842C96.9658 71.7889 95.7247 72.3391 94.62 71.913L84.5713 68.0367V68.0369C81.6303 66.9029 78.3541 67.0139 75.4995 68.3443L72.765 69.7229C71.7078 70.2559 70.4187 69.8308 69.8857 68.7736C69.3527 67.7163 69.7778 66.4273 70.835 65.8943L73.6012 64.4996L73.6288 64.4858L73.6565 64.473Z" fill="#DCE2EA"/>
    <path d="M85.2817 71.5581V89.411L117.204 104.746V85.6523L85.2817 71.5581Z" fill="#DCE2EA"/>
    <path d="M85.1826 71.4068C85.2338 71.3734 85.2984 71.3682 85.3543 71.3928L117.276 85.4872C117.342 85.5161 117.384 85.5808 117.384 85.6523V104.746C117.384 104.808 117.352 104.866 117.3 104.899C117.247 104.932 117.181 104.936 117.125 104.909L85.2031 89.5739C85.1405 89.5439 85.1006 89.4805 85.1006 89.4111V71.5582C85.1006 71.4971 85.1315 71.4401 85.1826 71.4068ZM85.462 89.2974L117.023 104.459V85.77L85.462 71.8354V89.2974Z" fill="#101C3F"/>
    <path d="M117.204 85.6523L150.063 71.5581V88.1521L117.204 104.746V85.6523Z" fill="#ABB4C4"/>
    <path d="M149.992 71.3921C150.047 71.3681 150.112 71.3738 150.162 71.4072C150.213 71.4407 150.244 71.4974 150.244 71.5581V88.152C150.244 88.2202 150.205 88.2826 150.144 88.3133L117.285 104.907C117.229 104.936 117.162 104.933 117.109 104.9C117.055 104.867 117.023 104.809 117.023 104.746V85.6523C117.023 85.5801 117.066 85.5147 117.132 85.4862L149.992 71.3921ZM117.384 85.7716V104.452L149.882 88.0407V71.8321L117.384 85.7716Z" fill="#101C3F"/>
    <path d="M133.936 87.638C134.429 86.5613 135.701 86.0876 136.778 86.58L178.514 105.669C179.591 106.162 180.064 107.434 179.572 108.51C179.08 109.587 177.807 110.061 176.731 109.568L134.994 90.4792C133.918 89.9867 133.444 88.7147 133.936 87.638Z" fill="#DCE2EA"/>
    <path d="M150.063 71.5585L117.204 56.3003L85.2817 71.5585L117.204 85.6527L150.063 71.5585Z" fill="#F5F7FA"/>
    <path d="M117.144 56.1297C117.188 56.1143 117.237 56.1165 117.28 56.1364L150.139 71.3946C150.204 71.4246 150.244 71.4899 150.243 71.5612C150.242 71.6325 150.199 71.6965 150.134 71.7246L117.275 85.8187C117.229 85.8385 117.176 85.8383 117.13 85.818L85.2082 71.7239C85.1437 71.6953 85.1017 71.6317 85.1006 71.5612C85.0996 71.4907 85.1397 71.4259 85.2033 71.3955L117.125 56.1373L117.144 56.1297ZM85.7139 71.552L117.204 85.4556L149.62 71.552L117.204 56.5001L85.7139 71.552Z" fill="#101C3F"/>
    <path d="M66.0844 123.81L4.79643 56.3384C4.79643 56.3384 -1.2443 129.813 59.9737 151.741C59.9737 151.741 105.271 172.376 164.793 144.084C169.558 141.819 173.691 137.663 173.691 130.921V130.489L130.306 135.168L82.8991 140.434L66.0844 123.808V123.81Z" fill="#101C3F"/>
    <path d="M181.068 108.446L231.634 86.421L185.282 65.978L135.886 88.5297L181.068 108.446Z" fill="#F5F7FA"/>
    <path d="M185.225 65.8067C185.267 65.7925 185.314 65.7945 185.355 65.8127L231.707 86.2557C231.773 86.2847 231.815 86.3497 231.815 86.4214C231.815 86.4931 231.772 86.5579 231.706 86.5865L181.14 108.612C181.094 108.632 181.041 108.632 180.995 108.611L135.813 88.695C135.748 88.6662 135.706 88.602 135.705 88.5309C135.705 88.4597 135.746 88.3949 135.811 88.3653L185.207 65.8136L185.225 65.8067ZM136.327 88.5266L181.069 108.249L231.184 86.42L185.283 66.176L136.327 88.5266Z" fill="#101C3F"/>
    <path d="M166.914 83.3383V88.5299C166.914 88.5299 171.532 94.6842 184.713 94.0921C198.824 93.4593 202.512 87.9762 202.512 87.9762V82.1812L166.916 83.3361L166.914 83.3383Z" fill="#101C3F"/>
    <path d="M167.094 83.511V88.4668C167.099 88.472 167.103 88.4778 167.108 88.4839C167.143 88.5266 167.197 88.5902 167.271 88.6715C167.419 88.8341 167.647 89.0677 167.961 89.3471C168.59 89.9058 169.567 90.648 170.954 91.3729C173.727 92.8221 178.145 94.2062 184.705 93.9115L185.033 93.8958C191.875 93.5485 196.202 92.0505 198.819 90.6378C200.148 89.9202 201.037 89.2238 201.593 88.7101C201.87 88.4532 202.065 88.2417 202.188 88.0959C202.25 88.023 202.295 87.9666 202.323 87.929C202.326 87.925 202.329 87.9212 202.331 87.9177V82.3676L167.094 83.511ZM202.512 87.9761L202.662 88.0772C202.662 88.0773 202.662 88.0776 202.662 88.0777C202.661 88.078 202.661 88.0785 202.661 88.079C202.66 88.08 202.659 88.0814 202.658 88.083C202.656 88.0863 202.652 88.0909 202.648 88.0968C202.64 88.1085 202.628 88.1253 202.611 88.1467C202.579 88.1897 202.53 88.2516 202.464 88.3299C202.331 88.4864 202.127 88.7083 201.838 88.9753C201.261 89.5094 200.347 90.2236 198.99 90.9558C196.277 92.4205 191.8 93.9551 184.721 94.2725C178.1 94.57 173.618 93.1732 170.787 91.6932C169.371 90.9535 168.37 90.194 167.721 89.6172C167.397 89.3289 167.16 89.0862 167.004 88.9146C166.926 88.8289 166.868 88.7609 166.829 88.7138C166.81 88.6903 166.795 88.6718 166.785 88.6591C166.78 88.6528 166.776 88.6478 166.774 88.6443C166.772 88.6426 166.771 88.6412 166.77 88.6402C166.77 88.6398 166.77 88.6393 166.77 88.639C166.769 88.6388 166.769 88.6386 166.769 88.6385C166.77 88.638 166.778 88.6317 166.914 88.5298L166.769 88.6383C166.746 88.607 166.733 88.5689 166.733 88.5298V83.3383C166.733 83.2904 166.752 83.2444 166.786 83.2105L166.788 83.2084L166.801 83.1967C166.831 83.1713 166.87 83.1568 166.91 83.1555L202.506 82.0006C202.555 81.999 202.603 82.0172 202.638 82.0512C202.673 82.0853 202.693 82.1322 202.693 82.1811V87.9761C202.693 88.012 202.682 88.0472 202.662 88.077L202.512 87.9761Z" fill="#231F20"/>
    <path d="M184.713 89.504C194.543 89.504 202.512 86.2264 202.512 82.1834C202.512 78.1403 194.543 74.8628 184.713 74.8628C174.883 74.8628 166.914 78.1403 166.914 82.1834C166.914 86.2264 174.883 89.504 184.713 89.504Z" fill="#128D91"/>
    <path d="M202.331 82.1834C202.331 81.2364 201.866 80.3173 200.987 79.4634C200.109 78.6089 198.828 77.8312 197.23 77.1741C194.036 75.8604 189.61 75.0435 184.713 75.0435C179.815 75.0435 175.39 75.8604 172.196 77.1741C170.598 77.8312 169.317 78.6089 168.438 79.4634C167.56 80.3173 167.094 81.2364 167.094 82.1834C167.094 83.1304 167.56 84.0495 168.438 84.9034C169.317 85.7579 170.598 86.5358 172.196 87.1928C175.39 88.5066 179.815 89.3233 184.713 89.3233C189.61 89.3233 194.036 88.5066 197.23 87.1928C198.828 86.5358 200.109 85.7579 200.987 84.9034C201.866 84.0495 202.331 83.1303 202.331 82.1834ZM202.693 82.1834C202.693 83.2579 202.163 84.2647 201.239 85.1624C200.317 86.0596 198.991 86.8593 197.368 87.527C194.12 88.8628 189.646 89.6847 184.713 89.6847C179.78 89.6847 175.306 88.8628 172.058 87.527C170.435 86.8593 169.109 86.0596 168.186 85.1624C167.263 84.2647 166.733 83.2579 166.733 82.1834C166.733 81.1088 167.263 80.1021 168.186 79.2044C169.109 78.3072 170.435 77.5076 172.058 76.8399C175.306 75.5042 179.78 74.6821 184.713 74.6821C189.646 74.6821 194.12 75.5042 197.368 76.8399C198.991 77.5076 200.317 78.3072 201.239 79.2044C202.163 80.1021 202.693 81.1088 202.693 82.1834Z" fill="#231F20"/>
    <path d="M231.774 86.498V122.999L181.208 145.752V108.523L231.774 86.498Z" fill="#ABB4C4"/>
    <path d="M231.702 86.3319C231.758 86.3076 231.822 86.313 231.873 86.3464C231.924 86.3798 231.955 86.4367 231.955 86.4976V122.999C231.955 123.07 231.913 123.135 231.848 123.164L181.282 145.916C181.226 145.942 181.161 145.937 181.11 145.903C181.058 145.87 181.027 145.813 181.027 145.752V108.523C181.027 108.451 181.07 108.386 181.136 108.357L231.702 86.3319ZM181.389 108.641V145.472L231.593 122.882V86.7734L181.389 108.641Z" fill="#101C3F"/>
    <path d="M183.76 78.23C198.178 78.23 209.865 66.5325 209.865 52.1028C209.865 37.6731 198.178 25.9756 183.76 25.9756C169.343 25.9756 157.655 37.6731 157.655 52.1028C157.655 66.5325 169.343 78.23 183.76 78.23Z" fill="#F5F7FA"/>
    <path d="M209.685 52.1028C209.685 37.7728 198.078 26.1563 183.76 26.1563C169.443 26.1563 157.836 37.7728 157.836 52.1028C157.836 66.4328 169.443 78.0493 183.76 78.0493C198.078 78.0493 209.685 66.4328 209.685 52.1028ZM210.046 52.1028C210.046 66.6321 198.278 78.4107 183.76 78.4107C169.243 78.4107 157.475 66.6321 157.475 52.1028C157.475 37.5735 169.243 25.7949 183.76 25.7949C198.278 25.7949 210.046 37.5735 210.046 52.1028Z" fill="#101C3F"/>
    <path d="M169.039 35.1677C170.321 34.1123 172.46 32.4601 174.416 31.4363C174.955 31.1537 175.619 31.2984 175.999 31.7753C176.464 32.3561 176.337 33.2105 175.723 33.6309C174.386 34.5417 172.182 36.0854 170.791 37.2697C170.256 37.7262 169.466 37.6991 168.96 37.2109C168.37 36.6436 168.406 35.6876 169.039 35.1677Z" fill="white"/>
    <path d="M167.732 42.0011C168.059 40.758 167.478 39.5267 166.434 39.2509C165.39 38.9751 164.278 39.7594 163.95 41.0025C163.622 42.2457 164.203 43.477 165.247 43.7527C166.292 44.0285 167.404 43.2443 167.732 42.0011Z" fill="white"/>
    <path d="M176.281 77.1386V83.9258C176.281 83.9258 177.746 85.7633 183.76 85.7633C189.774 85.7633 192.908 83.9258 192.908 83.9258V76.5781C192.908 76.5781 186.28 80.5514 176.281 77.1409V77.1386Z" fill="#02BCB7"/>
    <path d="M192.686 76.9033C192.481 77.0073 192.178 77.1513 191.785 77.3128C190.998 77.636 189.845 78.0297 188.379 78.3158C185.491 78.879 181.388 79.0238 176.461 77.3921V83.8548C176.467 83.8608 176.474 83.8678 176.481 83.875C176.527 83.9198 176.602 83.9866 176.712 84.0681C176.93 84.2309 177.288 84.4532 177.834 84.6774C178.926 85.1259 180.771 85.5826 183.76 85.5826C186.748 85.5826 189.018 85.1262 190.537 84.6715C191.297 84.4442 191.87 84.2171 192.251 84.0478C192.442 83.9631 192.584 83.8929 192.679 83.8442C192.697 83.8349 192.713 83.8259 192.727 83.8182V76.8814C192.714 76.8884 192.7 76.8959 192.686 76.9033ZM192.908 83.9259L192.999 84.0818H192.999C192.999 84.0819 192.999 84.0822 192.998 84.0824C192.998 84.0827 192.997 84.0831 192.996 84.0836C192.994 84.0847 192.992 84.0863 192.988 84.0882C192.981 84.0921 192.971 84.0977 192.959 84.1048C192.933 84.119 192.895 84.1394 192.844 84.1653C192.744 84.2171 192.595 84.2905 192.398 84.3781C192.003 84.5533 191.416 84.7857 190.641 85.0177C189.09 85.4818 186.785 85.9439 183.76 85.9439C180.735 85.9439 178.841 85.482 177.697 85.0117C177.124 84.7766 176.74 84.5395 176.496 84.3578C176.374 84.267 176.287 84.1901 176.23 84.1344C176.201 84.1066 176.18 84.0842 176.165 84.0679C176.157 84.0598 176.152 84.0531 176.148 84.0481C176.145 84.0457 176.144 84.0436 176.142 84.042C176.142 84.0412 176.141 84.0404 176.141 84.0398C176.14 84.0396 176.14 84.0394 176.14 84.0391L176.14 84.0388C176.14 84.0386 176.14 84.0385 176.281 83.9259L176.139 84.0384C176.114 84.0065 176.1 83.9668 176.1 83.9259V77.1387L176.101 77.1202C176.11 77.029 176.187 76.958 176.281 76.958C176.31 76.958 176.338 76.9651 176.363 76.9778C181.319 78.6631 185.434 78.5219 188.31 77.9611C189.75 77.6802 190.879 77.2938 191.648 76.9785C192.031 76.8208 192.325 76.681 192.522 76.5811C192.62 76.5311 192.694 76.4912 192.744 76.4639C192.768 76.4503 192.786 76.4398 192.798 76.4329C192.804 76.4294 192.809 76.4269 192.812 76.4253C192.813 76.4245 192.814 76.4239 192.815 76.4235C192.815 76.4234 192.815 76.4232 192.815 76.4232C192.871 76.3897 192.94 76.3888 192.997 76.4209C193.054 76.453 193.089 76.513 193.089 76.5781V83.9259C193.089 83.9899 193.055 84.0492 192.999 84.0817L192.908 83.9259Z" fill="#231F20"/>
    <path d="M26.9678 46.4663V96.3612L43.8547 103.978V53.7756L26.9678 46.4663Z" fill="#DCE2EA"/>
    <path d="M26.8686 46.3153C26.9195 46.2819 26.9838 46.2763 27.0396 46.3005L43.9265 53.6098C43.9926 53.6384 44.0353 53.7036 44.0353 53.7756V103.978C44.0353 104.039 44.0043 104.096 43.9527 104.13C43.9012 104.163 43.8363 104.168 43.7804 104.143L26.8935 96.5259C26.8288 96.4967 26.7871 96.4323 26.7871 96.3613V46.4664C26.7871 46.4055 26.8178 46.3487 26.8686 46.3153ZM27.1485 96.2443L43.674 103.698V53.8942L27.1485 46.7414V96.2443Z" fill="#101C3F"/>
    <path d="M26.9678 46.466L61.8843 30.2495L78.0892 37.3305L43.8547 53.7753L26.9678 46.466Z" fill="#F5F7FA"/>
    <path d="M61.8261 30.079C61.8686 30.0645 61.9152 30.0663 61.9567 30.0844L78.1616 37.1654C78.2263 37.1937 78.2687 37.2571 78.2699 37.3277C78.2712 37.3983 78.2312 37.4632 78.1676 37.4938L43.933 53.9386C43.8858 53.9613 43.8311 53.9624 43.783 53.9416L26.896 46.6323C26.8307 46.604 26.7881 46.5399 26.7871 46.4688C26.7862 46.3976 26.8272 46.3325 26.8918 46.3025L61.8081 30.086L61.8261 30.079ZM27.4093 46.4605L43.8508 53.5771L77.6555 37.3387L61.8867 30.4479L27.4093 46.4605Z" fill="#101C3F"/>
    <path d="M78.089 37.3306V87.1147L43.8545 103.978V53.7753L78.089 37.3306Z" fill="white"/>
    <path d="M78.0107 37.1677C78.0667 37.1408 78.1327 37.1446 78.1853 37.1776C78.2378 37.2107 78.2698 37.2685 78.2698 37.3306V87.1147C78.2698 87.1835 78.2306 87.2465 78.1688 87.2769L43.9343 104.14C43.8783 104.167 43.812 104.164 43.7591 104.131C43.706 104.098 43.6738 104.04 43.6738 103.978V53.7754C43.6738 53.706 43.7137 53.6427 43.7763 53.6126L78.0107 37.1677ZM44.0352 53.8889V103.687L77.9084 87.0021V37.6177L44.0352 53.8889Z" fill="#101C3F"/>
    <path d="M25.1929 24.719V35.8841C25.1929 38.4449 27.8463 40.14 30.1677 39.0641L76.6328 17.525C77.8703 16.9509 78.6629 15.7101 78.6629 14.345V3.73589C78.6629 1.19097 76.0389 -0.506396 73.7197 0.540049L27.2546 21.5254C25.9991 22.0927 25.1929 23.3426 25.1929 24.7213V24.719Z" fill="#101C3F"/>
    <path d="M78.4822 14.3452V3.73606C78.4822 1.32214 75.9934 -0.28734 73.7941 0.704994L27.329 21.6903C26.1382 22.2283 25.3736 23.4137 25.3736 24.7215V35.8843C25.3736 38.3131 27.8901 39.9206 30.0917 38.9004L76.5568 17.3612L76.6655 17.3085C77.7767 16.7432 78.4822 15.5995 78.4822 14.3452ZM78.8436 14.3452C78.8436 15.7806 78.0101 17.0854 76.7089 17.6891H76.7087L30.2438 39.2282C27.8025 40.3596 25.0122 38.5769 25.0122 35.8843V24.7192C25.0131 23.2705 25.8606 21.9573 27.1803 21.361L73.6453 0.375561L73.7598 0.326155C76.1698 -0.668936 78.8435 1.10198 78.8436 3.73606V14.3452Z" fill="#101C3F"/>
    <path d="M51.6045 30.2497V40.6102C51.6045 41.3854 52.2323 42.0137 53.0068 42.0137C53.7814 42.0137 54.4092 41.3854 54.4092 40.6102V27.8291L51.6045 30.252V30.2497Z" fill="#101C3F"/>
    <path d="M54.2285 28.224L51.7852 30.3345V40.6101C51.7852 41.2857 52.3323 41.8331 53.0069 41.8331C53.6815 41.8331 54.2285 41.2857 54.2285 40.6101V28.224ZM54.5899 40.6101C54.5899 41.485 53.8814 42.1944 53.0069 42.1945C52.1324 42.1945 51.4238 41.485 51.4238 40.6101V30.2496C51.4238 30.1861 51.4567 30.1303 51.5062 30.0981L54.2911 27.6923C54.3446 27.6462 54.4201 27.6354 54.4844 27.6648C54.5486 27.6942 54.5899 27.7584 54.5899 27.8291V40.6101Z" fill="#231F20"/>
    <path d="M53.1477 44.4227C55.9684 44.093 58.1408 42.8469 57.9999 41.6393C57.859 40.4317 55.4582 39.72 52.6375 40.0496C49.8169 40.3793 47.6445 41.6254 47.7854 42.833C47.9262 44.0406 50.3271 44.7523 53.1477 44.4227Z" fill="#101C3F"/>
    <path d="M57.8202 41.6606C57.792 41.4195 57.65 41.1878 57.3859 40.9764C57.1211 40.7643 56.7431 40.5812 56.2719 40.4415C55.3301 40.1623 54.0501 40.0667 52.6581 40.2294C51.2661 40.3921 50.0426 40.7802 49.1904 41.269C48.764 41.5136 48.4385 41.779 48.2296 42.0465C48.0213 42.3131 47.9364 42.5712 47.9646 42.8124C47.9927 43.0535 48.1347 43.285 48.3988 43.4964C48.6637 43.7085 49.0415 43.8916 49.5127 44.0313C50.4545 44.3105 51.7344 44.4061 53.1264 44.2434C54.5184 44.0807 55.7419 43.6926 56.5941 43.2038C57.0205 42.9592 57.3462 42.6938 57.5551 42.4263C57.7634 42.1597 57.8483 41.9017 57.8202 41.6606ZM58.1791 41.6186C58.2214 41.9813 58.0875 42.3319 57.8399 42.6489C57.593 42.9649 57.2255 43.2582 56.7739 43.5173C55.87 44.0358 54.5969 44.4354 53.1683 44.6024C51.7397 44.7693 50.4089 44.674 49.4099 44.3779C48.9108 44.2299 48.4859 44.0292 48.1729 43.7786C47.859 43.5273 47.6479 43.2169 47.6056 42.8543C47.5633 42.4917 47.6973 42.141 47.9448 41.8241C48.1917 41.508 48.559 41.2148 49.0107 40.9557C49.9146 40.4372 51.1876 40.0374 52.6162 39.8705C54.0449 39.7035 55.3757 39.799 56.3746 40.0951C56.8738 40.2431 57.2989 40.4437 57.6119 40.6944C57.9257 40.9457 58.1368 41.256 58.1791 41.6186Z" fill="#231F20"/>
    <path d="M117.127 56.8066C107.999 56.8066 100.601 60.068 100.601 64.0911V71.3755C100.601 75.3986 107.999 78.6599 117.127 78.6599C126.254 78.6599 133.652 75.3986 133.652 71.3755V64.0911C133.652 60.068 126.254 56.8066 117.127 56.8066Z" fill="#101C3F"/>
    <path d="M133.472 64.0911C133.472 63.1446 133.037 62.229 132.223 61.3808C131.409 60.5316 130.221 59.7587 128.739 59.1056C125.777 57.7997 121.672 56.9874 117.127 56.9873C112.582 56.9873 108.476 57.7997 105.514 59.1056C104.032 59.7587 102.845 60.5316 102.03 61.3808C101.216 62.229 100.782 63.1446 100.782 64.0911V71.3755C100.782 72.3219 101.216 73.2377 102.03 74.0859C102.845 74.9351 104.032 75.708 105.514 76.3611C108.476 77.667 112.582 78.4792 117.127 78.4792C121.672 78.4792 125.777 77.667 128.739 76.3611C130.221 75.708 131.409 74.9351 132.223 74.0859C133.037 73.2377 133.472 72.3219 133.472 71.3755V64.0911ZM133.833 71.3755C133.833 72.4405 133.343 73.4412 132.484 74.336C131.627 75.2298 130.394 76.0266 128.885 76.6918C125.867 78.0223 121.71 78.8406 117.127 78.8406C112.544 78.8406 108.386 78.0223 105.368 76.6918C103.859 76.0266 102.627 75.2298 101.769 74.336C100.911 73.4413 100.42 72.4405 100.42 71.3755V64.0911C100.42 63.026 100.911 62.0253 101.769 61.1306C102.627 60.2368 103.859 59.4401 105.368 58.775C108.386 57.4444 112.544 56.626 117.127 56.626C121.71 56.626 125.867 57.4444 128.885 58.775C130.394 59.4401 131.627 60.2368 132.484 61.1306C133.343 62.0253 133.833 63.026 133.833 64.0911V71.3755Z" fill="black"/>
    <path d="M117.127 71.3755C126.254 71.3755 133.652 68.1142 133.652 64.0911C133.652 60.068 126.254 56.8066 117.127 56.8066C108 56.8066 100.601 60.068 100.601 64.0911C100.601 68.1142 108 71.3755 117.127 71.3755Z" fill="#1BA9F5"/>
    <path d="M133.472 64.0911C133.472 63.1446 133.037 62.229 132.223 61.3808C131.409 60.5316 130.221 59.7587 128.739 59.1056C125.777 57.7997 121.671 56.9874 117.127 56.9873C112.582 56.9873 108.477 57.7997 105.514 59.1056C104.033 59.7587 102.845 60.5316 102.03 61.3808C101.216 62.2291 100.782 63.1446 100.782 64.0911C100.782 65.0375 101.216 65.9531 102.03 66.8013C102.845 67.6505 104.033 68.4236 105.514 69.0767C108.477 70.3826 112.582 71.1948 117.127 71.1948C121.671 71.1948 125.777 70.3826 128.739 69.0767C130.221 68.4236 131.409 67.6505 132.223 66.8013C133.037 65.9531 133.472 65.0375 133.472 64.0911ZM133.833 64.0911C133.833 65.1561 133.343 66.1569 132.484 67.0516C131.626 67.9454 130.394 68.7422 128.885 69.4073C125.866 70.7378 121.709 71.5562 117.127 71.5562C112.544 71.5562 108.387 70.7379 105.368 69.4073C103.859 68.7422 102.627 67.9454 101.769 67.0516C100.911 66.1568 100.42 65.1561 100.42 64.0911C100.42 63.026 100.911 62.0253 101.769 61.1306C102.627 60.2368 103.859 59.4401 105.368 58.775C108.387 57.4444 112.544 56.626 117.127 56.626C121.709 56.626 125.866 57.4445 128.885 58.775C130.394 59.4401 131.626 60.2368 132.484 61.1306C133.343 62.0253 133.833 63.026 133.833 64.0911Z" fill="black"/>
    <path d="M117.127 44.665C107.999 44.665 100.601 47.9264 100.601 51.9495V59.2339C100.601 63.2569 107.999 66.5183 117.127 66.5183C126.254 66.5183 133.652 63.2569 133.652 59.2339V51.9495C133.652 47.9264 126.254 44.665 117.127 44.665Z" fill="#101C3F"/>
    <path d="M133.472 51.9495C133.472 51.003 133.037 50.0874 132.223 49.2392C131.409 48.39 130.221 47.6171 128.739 46.964C125.777 45.6581 121.672 44.8457 117.127 44.8457C112.582 44.8457 108.476 45.6581 105.514 46.964C104.032 47.6171 102.845 48.39 102.03 49.2392C101.216 50.0874 100.782 51.003 100.782 51.9495V59.2339C100.782 60.1803 101.216 61.0961 102.03 61.9443C102.845 62.7935 104.032 63.5664 105.514 64.2195C108.476 65.5254 112.582 66.3376 117.127 66.3376C121.672 66.3376 125.777 65.5254 128.739 64.2195C130.221 63.5664 131.409 62.7935 132.223 61.9443C133.037 61.0961 133.472 60.1803 133.472 59.2339V51.9495ZM133.833 59.2339C133.833 60.2989 133.343 61.2996 132.484 62.1944C131.627 63.0882 130.394 63.885 128.885 64.5502C125.867 65.8807 121.71 66.699 117.127 66.699C112.544 66.699 108.386 65.8807 105.368 64.5502C103.859 63.885 102.627 63.0882 101.769 62.1944C100.911 61.2997 100.42 60.2989 100.42 59.2339V51.9495C100.42 50.8844 100.911 49.8837 101.769 48.989C102.627 48.0952 103.859 47.2985 105.368 46.6334C108.386 45.3028 112.544 44.4844 117.127 44.4844C121.71 44.4844 125.867 45.3028 128.885 46.6334C130.394 47.2985 131.627 48.0952 132.484 48.989C133.343 49.8837 133.833 50.8844 133.833 51.9495V59.2339Z" fill="black"/>
    <path d="M117.127 59.2339C126.254 59.2339 133.652 55.9726 133.652 51.9495C133.652 47.9264 126.254 44.665 117.127 44.665C108 44.665 100.601 47.9264 100.601 51.9495C100.601 55.9726 108 59.2339 117.127 59.2339Z" fill="#1BA9F5"/>
    <path d="M133.472 51.9495C133.472 51.003 133.037 50.0874 132.223 49.2392C131.409 48.39 130.221 47.6171 128.739 46.964C125.777 45.6581 121.671 44.8457 117.127 44.8457C112.582 44.8457 108.477 45.6581 105.514 46.964C104.033 47.6171 102.845 48.39 102.03 49.2392C101.216 50.0875 100.782 51.003 100.782 51.9495C100.782 52.8959 101.216 53.8115 102.03 54.6597C102.845 55.5089 104.033 56.282 105.514 56.9351C108.477 58.241 112.582 59.0532 117.127 59.0532C121.671 59.0532 125.777 58.241 128.739 56.9351C130.221 56.282 131.409 55.5089 132.223 54.6597C133.037 53.8115 133.472 52.8959 133.472 51.9495ZM133.833 51.9495C133.833 53.0145 133.343 54.0153 132.484 54.91C131.626 55.8038 130.394 56.6006 128.885 57.2657C125.866 58.5962 121.709 59.4146 117.127 59.4146C112.544 59.4146 108.387 58.5963 105.368 57.2657C103.859 56.6006 102.627 55.8038 101.769 54.91C100.911 54.0152 100.42 53.0145 100.42 51.9495C100.42 50.8844 100.911 49.8837 101.769 48.989C102.627 48.0952 103.859 47.2985 105.368 46.6334C108.387 45.3028 112.544 44.4844 117.127 44.4844C121.709 44.4844 125.866 45.3029 128.885 46.6334C130.394 47.2985 131.626 48.0952 132.484 48.989C133.343 49.8837 133.833 50.8844 133.833 51.9495Z" fill="black"/>
    <path d="M117.127 32.5259C107.999 32.5259 100.601 35.7873 100.601 39.8103V47.0947C100.601 51.1178 107.999 54.3792 117.127 54.3792C126.254 54.3792 133.652 51.1178 133.652 47.0947V39.8103C133.652 35.7873 126.254 32.5259 117.127 32.5259Z" fill="#101C3F"/>
    <path d="M133.472 39.8103C133.472 38.8639 133.037 37.9483 132.223 37.1C131.409 36.2509 130.221 35.4779 128.739 34.8249C125.777 33.519 121.672 32.7066 117.127 32.7066C112.582 32.7066 108.476 33.519 105.514 34.8249C104.032 35.4779 102.845 36.2509 102.03 37.1C101.216 37.9483 100.782 38.8639 100.782 39.8103V47.0947C100.782 48.0412 101.216 48.9569 102.03 49.8052C102.845 50.6543 104.032 51.4273 105.514 52.0803C108.476 53.3862 112.582 54.1984 117.127 54.1984C121.672 54.1984 125.777 53.3862 128.739 52.0803C130.221 51.4273 131.409 50.6543 132.223 49.8052C133.037 48.9569 133.472 48.0412 133.472 47.0947V39.8103ZM133.833 47.0947C133.833 48.1598 133.343 49.1605 132.484 50.0552C131.627 50.949 130.394 51.7458 128.885 52.411C125.867 53.7415 121.71 54.5598 117.127 54.5598C112.544 54.5598 108.386 53.7415 105.368 52.411C103.859 51.7458 102.627 50.949 101.769 50.0552C100.911 49.1605 100.42 48.1598 100.42 47.0947V39.8103C100.42 38.7453 100.911 37.7445 101.769 36.8498C102.627 35.956 103.859 35.1594 105.368 34.4942C108.386 33.1637 112.544 32.3452 117.127 32.3452C121.71 32.3452 125.867 33.1637 128.885 34.4942C130.394 35.1594 131.627 35.956 132.484 36.8498C133.343 37.7445 133.833 38.7453 133.833 39.8103V47.0947Z" fill="black"/>
    <path d="M117.127 47.0947C126.254 47.0947 133.652 43.8334 133.652 39.8103C133.652 35.7872 126.254 32.5259 117.127 32.5259C108 32.5259 100.601 35.7872 100.601 39.8103C100.601 43.8334 108 47.0947 117.127 47.0947Z" fill="#48EFCF"/>
    <path d="M133.472 39.8103C133.472 38.8639 133.037 37.9483 132.223 37.1C131.409 36.2509 130.221 35.4779 128.739 34.8249C125.777 33.519 121.671 32.7066 117.127 32.7066C112.582 32.7066 108.477 33.519 105.514 34.8249C104.033 35.4779 102.845 36.2509 102.03 37.1C101.216 37.9483 100.782 38.8639 100.782 39.8103C100.782 40.7568 101.216 41.6723 102.03 42.5206C102.845 43.3698 104.033 44.1429 105.514 44.7959C108.477 46.1018 112.582 46.914 117.127 46.914C121.671 46.914 125.777 46.1018 128.739 44.7959C130.221 44.1428 131.409 43.3698 132.223 42.5206C133.037 41.6723 133.472 40.7567 133.472 39.8103ZM133.833 39.8103C133.833 40.8754 133.343 41.8761 132.484 42.7708C131.626 43.6646 130.394 44.4614 128.885 45.1266C125.866 46.4571 121.709 47.2754 117.127 47.2754C112.544 47.2754 108.387 46.4571 105.368 45.1266C103.859 44.4614 102.627 43.6646 101.769 42.7708C100.911 41.8761 100.42 40.8754 100.42 39.8103C100.42 38.7452 100.911 37.7445 101.769 36.8498C102.627 35.956 103.859 35.1594 105.368 34.4942C108.387 33.1637 112.544 32.3452 117.127 32.3452C121.709 32.3452 125.866 33.1637 128.885 34.4942C130.394 35.1594 131.626 35.956 132.484 36.8498C133.343 37.7445 133.833 38.7453 133.833 39.8103Z" fill="black"/>
    <path d="M186.662 116.435V116.618C186.662 118.449 188.547 119.674 190.216 118.928L224.821 103.478C225.731 103.071 226.318 102.167 226.318 101.168C226.318 99.342 224.444 98.117 222.773 98.8538L188.168 114.121C187.251 114.526 186.662 115.432 186.662 116.435Z" fill="#101C3F"/>
    <path d="M226.138 101.168C226.137 99.4989 224.451 98.3711 222.919 98.9887L222.846 99.0194L188.241 114.287C187.39 114.662 186.842 115.504 186.842 116.436V116.619C186.842 118.319 188.593 119.456 190.142 118.764H190.142L224.747 103.313L224.826 103.277C225.626 102.883 226.138 102.067 226.138 101.168ZM226.499 101.168C226.499 102.239 225.87 103.207 224.895 103.643H224.895L190.29 119.094C188.501 119.893 186.481 118.58 186.481 116.619V116.436C186.481 115.361 187.112 114.389 188.095 113.956L222.7 98.6887C224.491 97.8991 226.499 99.212 226.499 101.168Z" fill="#101C3F"/>
    <path d="M217.283 108.225C219.568 108.225 221.42 106.26 221.42 103.838C221.42 101.415 219.568 99.4507 217.283 99.4507C214.998 99.4507 213.146 101.415 213.146 103.838C213.146 106.26 214.998 108.225 217.283 108.225Z" fill="black"/>
    <path d="M221.239 103.838C221.239 101.504 219.458 99.6314 217.283 99.6314C215.108 99.6314 213.327 101.504 213.327 103.838C213.327 106.171 215.108 108.044 217.283 108.044C219.458 108.044 221.239 106.171 221.239 103.838ZM221.601 103.838C221.601 106.35 219.678 108.405 217.283 108.405C214.889 108.405 212.965 106.35 212.965 103.838C212.965 101.325 214.889 99.27 217.283 99.27C219.678 99.27 221.601 101.325 221.601 103.838Z" fill="#231F20"/>
    <path d="M218.008 108.225C219.892 108.225 221.42 106.26 221.42 103.838C221.42 101.415 219.892 99.4507 218.008 99.4507C216.123 99.4507 214.596 101.415 214.596 103.838C214.596 106.26 216.123 108.225 218.008 108.225Z" fill="#0B64DD"/>
    <path d="M221.239 103.838C221.239 101.47 219.753 99.6314 218.008 99.6314C216.263 99.6314 214.776 101.47 214.776 103.838C214.776 106.206 216.263 108.044 218.008 108.044C219.753 108.044 221.239 106.206 221.239 103.838ZM221.601 103.838C221.601 106.315 220.032 108.405 218.008 108.405C215.984 108.405 214.415 106.315 214.415 103.838C214.415 101.36 215.984 99.27 218.008 99.27C220.032 99.27 221.601 101.36 221.601 103.838Z" fill="black"/>
    <path d="M188.875 127.474V127.657C188.875 129.488 190.761 130.713 192.429 129.967L227.034 114.517C227.944 114.11 228.532 113.206 228.532 112.207C228.532 110.381 226.657 109.156 224.986 109.892L190.381 125.16C189.464 125.564 188.875 126.471 188.875 127.474Z" fill="#101C3F"/>
    <path d="M228.351 112.207C228.351 110.537 226.664 109.41 225.132 110.027L225.059 110.058L190.454 125.325C189.603 125.701 189.056 126.542 189.056 127.474V127.657C189.056 129.358 190.807 130.494 192.356 129.802H192.356L226.961 114.352L227.039 114.315C227.839 113.922 228.351 113.106 228.351 112.207ZM228.712 112.207C228.712 113.277 228.083 114.246 227.108 114.682H227.108L192.503 130.132C190.714 130.932 188.694 129.618 188.694 127.657V127.474C188.694 126.399 189.326 125.428 190.308 124.994L224.913 109.727C226.704 108.938 228.712 110.251 228.712 112.207Z" fill="#101C3F"/>
    <path d="M202.354 127.757C204.639 127.757 206.491 125.793 206.491 123.37C206.491 120.947 204.639 118.983 202.354 118.983C200.07 118.983 198.217 120.947 198.217 123.37C198.217 125.793 200.07 127.757 202.354 127.757Z" fill="black"/>
    <path d="M206.311 123.37C206.311 121.037 204.53 119.164 202.354 119.164C200.179 119.164 198.398 121.037 198.398 123.37C198.398 125.703 200.179 127.576 202.354 127.576C204.53 127.576 206.311 125.703 206.311 123.37ZM206.672 123.37C206.672 125.882 204.749 127.937 202.354 127.937C199.96 127.937 198.037 125.882 198.037 123.37C198.037 120.857 199.96 118.802 202.354 118.802C204.749 118.802 206.672 120.857 206.672 123.37Z" fill="#231F20"/>
    <path d="M203.079 127.399C204.964 127.399 206.491 125.435 206.491 123.012C206.491 120.59 204.964 118.625 203.079 118.625C201.195 118.625 199.667 120.59 199.667 123.012C199.667 125.435 201.195 127.399 203.079 127.399Z" fill="#0B64DD"/>
    <path d="M206.311 123.012C206.311 120.645 204.824 118.806 203.079 118.806C201.334 118.806 199.848 120.645 199.848 123.012C199.848 125.38 201.334 127.219 203.079 127.219C204.824 127.219 206.311 125.38 206.311 123.012ZM206.672 123.012C206.672 125.49 205.103 127.58 203.079 127.58C201.055 127.58 199.486 125.49 199.486 123.012C199.486 120.535 201.055 118.445 203.079 118.445C205.103 118.445 206.672 120.535 206.672 123.012Z" fill="black"/>
    <path d="M105.855 95.6424V86.1407C105.855 85.8249 106.112 85.5688 106.427 85.5688C106.743 85.5688 106.999 85.8249 106.999 86.1407V95.6424C106.999 95.9582 106.743 96.2143 106.427 96.2143C106.112 96.2143 105.855 95.9582 105.855 95.6424Z" fill="black"/>
    <path d="M109.562 96.9603V87.4586C109.562 87.1428 109.818 86.8867 110.133 86.8867C110.449 86.8867 110.705 87.1428 110.705 87.4586V96.9603C110.705 97.2761 110.449 97.5322 110.133 97.5322C109.818 97.5322 109.562 97.2761 109.562 96.9603Z" fill="black"/>
    <path d="M34.3088 57.4346C34.3088 57.4346 46.1712 88.3601 52.5304 102.212C58.8895 116.065 88.5805 133.886 112.714 130.566C139.219 126.918 145.711 119.516 145.711 119.516L171.523 130.747C171.523 130.747 151.393 147.659 109.496 151.404C87.334 153.384 67.5814 146.251 53.8876 139.093C53.2982 138.784 52.702 138.461 52.1013 138.122C35.4018 128.67 23.7088 112.336 19.723 93.5539L13.8065 65.6637C13.8065 65.6637 1.39761 57.2515 7.32994 52.842C23.09 41.1254 34.3066 57.4368 34.3066 57.4368L34.3088 57.4346Z" fill="#0A52B3"/>
    <mask id="mask0_10236_34571" style="mask-type:luminance" maskUnits="userSpaceOnUse" x="5" y="48" width="167" height="104">
      <path d="M34.3088 57.4346C34.3088 57.4346 46.1712 88.3601 52.5304 102.212C58.8895 116.065 88.5805 133.886 112.714 130.566C139.219 126.918 145.711 119.516 145.711 119.516L171.523 130.747C171.523 130.747 151.393 147.659 109.496 151.404C87.334 153.384 67.5814 146.251 53.8876 139.093C53.2982 138.784 52.702 138.461 52.1013 138.122C35.4018 128.67 23.7088 112.336 19.723 93.5539L13.8065 65.6637C13.8065 65.6637 1.39761 57.2515 7.32994 52.842C23.09 41.1254 34.3066 57.4368 34.3066 57.4368L34.3088 57.4346Z" fill="white"/>
    </mask>
    <g mask="url(#mask0_10236_34571)">
      <path d="M28.5818 63.883C28.5818 63.883 39.1254 94.1327 46.8033 108.661C53.9235 122.136 82.666 138.413 106.987 137.014C135.533 135.373 153.199 123.011 153.199 123.011L175.133 130.629C175.133 130.629 145.666 154.11 103.769 157.855C81.6069 159.835 61.8543 152.702 48.1605 145.544C47.5711 145.234 46.975 144.911 46.3743 144.572C29.6748 135.12 17.9817 118.786 13.996 100.005L8.07945 72.1144C8.07945 72.1144 -4.32944 63.7022 1.60289 59.2927C17.363 47.5761 28.5795 63.8875 28.5795 63.8875L28.5818 63.883Z" fill="#0B64DD"/>
      <path d="M54.7162 147.366C62.7019 147.366 69.1755 140.887 69.1755 132.894C69.1755 124.902 62.7019 118.422 54.7162 118.422C46.7305 118.422 40.2568 124.902 40.2568 132.894C40.2568 140.887 46.7305 147.366 54.7162 147.366Z" fill="#0A52B3"/>
    </g>
    <path d="M9.53637 63.0894H4.63379V150.771H9.53637V63.0894Z" fill="#101C3F"/>
    <path d="M198.901 55.6491L199.301 55.8773C195.311 53.8071 190.507 51.5356 188.222 47.4199C186.278 43.9167 186.355 39.4846 186.395 35.5903L189.232 37.0843C189.143 45.6728 191.214 51.2463 198.901 55.6491Z" fill="#0B64DD"/>
    <path d="M186.303 35.4352C186.357 35.403 186.424 35.4011 186.48 35.4305L189.316 36.9245C189.376 36.956 189.413 37.0184 189.412 37.0861C189.368 41.3675 189.863 44.876 191.313 47.8573C192.761 50.8349 195.171 53.3045 198.991 55.4922H198.991L199.391 55.7205C199.476 55.7693 199.507 55.8774 199.46 55.9638C199.413 56.0501 199.305 56.083 199.218 56.0378C197.228 55.0052 195.017 53.9139 193.021 52.5654C191.024 51.216 189.226 49.5999 188.064 47.5076C186.092 43.9546 186.174 39.4696 186.215 35.5884L186.216 35.5651C186.224 35.5114 186.255 35.4634 186.303 35.4352ZM186.573 35.888C186.533 39.7192 186.512 43.9657 188.38 47.3322C189.504 49.3555 191.25 50.9332 193.223 52.266C194.093 52.8534 195.004 53.3913 195.922 53.8983C193.657 52.1601 192.065 50.2291 190.988 48.0154C189.516 44.9883 189.016 41.4506 189.05 37.1928L186.573 35.888Z" fill="#101C3F"/>
    <path d="M199.301 55.8775C190.043 56.8832 185.115 60.9537 180.682 68.9592L177.83 67.5149C182.27 59.4982 187.204 55.4187 196.474 54.4106L199.301 55.8775Z" fill="#0B64DD"/>
    <path d="M196.481 54.23C196.507 54.231 196.533 54.2378 196.557 54.2501L199.384 55.7169C199.455 55.7536 199.494 55.8324 199.479 55.9107C199.464 55.9889 199.4 56.0483 199.321 56.0569C194.715 56.5572 191.201 57.818 188.289 59.9394C185.374 62.0621 183.05 65.0564 180.84 69.0465C180.793 69.1316 180.687 69.1642 180.601 69.1203L177.748 67.676C177.705 67.6539 177.672 67.6148 177.657 67.5679C177.643 67.521 177.648 67.4702 177.672 67.4272C179.899 63.4063 182.258 60.3575 185.234 58.1883C188.212 56.0177 191.796 54.7375 196.454 54.2309L196.481 54.23ZM196.44 54.5961C191.855 55.1015 188.352 56.3633 185.447 58.4803C182.569 60.5778 180.265 63.5245 178.08 67.4385L180.609 68.7194C182.808 64.7793 185.141 61.785 188.076 59.6472C190.924 57.5724 194.326 56.3136 198.696 55.7667L196.44 54.5961Z" fill="#101C3F"/>
    <path d="M196.474 54.4083C187.204 55.4185 182.27 59.4958 177.83 67.5126C177.871 63.8828 177.95 59.81 176.403 56.4401C174.729 52.7945 171.182 50.5954 167.819 48.6901C177.06 47.673 181.972 43.5799 186.395 35.5903C186.357 39.2585 186.28 43.3856 187.893 46.7758C189.595 50.3581 193.143 52.5278 196.474 54.4105V54.4083Z" fill="url(#paint0_linear_10236_34571)"/>
    <path d="M186.237 35.5028C186.277 35.4305 186.362 35.3946 186.442 35.4157C186.522 35.4368 186.577 35.5096 186.576 35.5923C186.538 39.2719 186.465 43.3531 188.056 46.6983C189.727 50.2144 193.211 52.3579 196.541 54.2406C196.56 54.2484 196.579 54.2595 196.595 54.2738C196.633 54.3081 196.655 54.357 196.655 54.4083V54.4106C196.655 54.4748 196.62 54.5342 196.565 54.5666C196.535 54.584 196.501 54.5918 196.468 54.5907C191.869 55.0951 188.358 56.3578 185.447 58.479C182.529 60.6054 180.201 63.6043 177.988 67.6001C177.948 67.6725 177.864 67.7084 177.784 67.6872C177.704 67.6661 177.649 67.5933 177.649 67.5106C177.69 63.8698 177.765 59.8413 176.239 56.5154C174.593 52.9296 171.097 50.7552 167.73 48.8473C167.662 48.8086 167.627 48.7304 167.642 48.6537C167.658 48.5769 167.722 48.5192 167.8 48.5106C172.396 48.0047 175.902 46.7355 178.807 44.6091C181.714 42.4813 184.032 39.4852 186.237 35.5028ZM186.207 36.2923C184.089 39.9978 181.832 42.8428 179.02 44.9008C176.171 46.9867 172.765 48.2549 168.385 48.8049C171.601 50.6491 174.947 52.8342 176.567 56.3648C178.033 59.5588 178.055 63.3686 178.019 66.8098C180.144 63.0917 182.411 60.2439 185.234 58.187C188.094 56.1031 191.511 54.8402 195.903 54.2934C192.77 52.5029 189.486 50.3894 187.812 47.0229L187.73 46.8534C186.2 43.6366 186.173 39.7732 186.207 36.2923Z" fill="#101C3F"/>
    <path d="M49.2065 67.8044L59.4453 62.8638V79.4758L49.2065 84.6538V67.8044Z" fill="#101C3F"/>
    <path d="M52.858 82.816L50.9995 83.7201V76.6413L52.858 75.7915V82.816Z" fill="#48EFCF"/>
    <path d="M58.5125 79.9389L56.6562 80.8429V78.0562L58.5125 77.0278V79.9389Z" fill="#48EFCF"/>
    <path d="M55.6471 81.3922L53.7886 82.294V69.7502L55.6471 68.9004V81.3922Z" fill="#48EFCF"/>
    <path d="M61.5859 62.3438V65.3521L74.5616 58.7864V55.7329L61.5859 62.3438Z" fill="#101C3F"/>
    <path d="M61.5859 67.1399V70.1481L74.5616 63.5847V60.5312L61.5859 67.1399Z" fill="#101C3F"/>
    <path d="M61.5859 72.2408V75.249L74.5616 68.6833V65.6299L61.5859 72.2408Z" fill="#101C3F"/>
    <path d="M136.026 88.5298L181.208 108.446V145.752L136.026 126.206V88.5298Z" fill="#DCE2EA"/>
    <path d="M135.927 88.3784C135.978 88.3451 136.043 88.3399 136.099 88.3645L181.281 108.281C181.347 108.31 181.389 108.375 181.389 108.446V145.752C181.389 145.813 181.358 145.87 181.308 145.903C181.257 145.936 181.192 145.942 181.137 145.918L135.954 126.372C135.888 126.343 135.845 126.278 135.845 126.206V88.5298C135.845 88.4687 135.876 88.4118 135.927 88.3784ZM136.207 126.087L181.028 145.477V108.564L136.207 88.8068V126.087Z" fill="#101C3F"/>
    <path d="M138.93 127.463V96.3564L177.234 112.67V144.084L138.93 127.463Z" fill="#101C3F"/>
    <path d="M137.688 131.267L140.608 122.52L147.105 118.174L172.708 129.314L165.347 135.751L151.944 140.92L137.688 131.267Z" fill="#0B64DD"/>
    <path d="M26.9678 25.3609V36.526C26.9678 39.0868 29.6212 40.7819 31.9426 39.706L78.4077 18.1669C79.6452 17.5928 80.4378 16.352 80.4378 14.9869V4.37554C80.4378 1.83062 77.8138 0.133252 75.4946 1.1797L29.0295 22.1651C27.774 22.7324 26.9678 23.9822 26.9678 25.3609Z" fill="#48EFCF"/>
    <path d="M80.2571 14.9871V4.37571C80.2571 1.96179 77.7683 0.352309 75.569 1.34464L29.1039 22.3299C27.9131 22.8679 27.1485 24.0534 27.1485 25.3611V36.5262C27.1485 38.9551 29.665 40.5625 31.8666 39.5423L78.3317 18.0032L78.4404 17.9504C79.5516 17.3852 80.2571 16.2414 80.2571 14.9871ZM80.6185 14.9871C80.6185 16.4226 79.785 17.7273 78.4838 18.331H78.4836L32.0187 39.8701C29.5774 41.0015 26.7871 39.2188 26.7871 36.5262V25.3611C26.7871 23.9115 27.6348 22.5972 28.9552 22.0006L75.4202 1.01521L75.5347 0.965803C77.9448 -0.0292875 80.6184 1.74163 80.6185 4.37571V14.9871Z" fill="#101C3F"/>
    <path d="M44.3828 21.0914L57.9592 14.7969V20.5693L44.3828 27.2186V21.0914Z" fill="#101C3F"/>
    <path d="M57.8832 14.633C57.9392 14.607 58.0045 14.6114 58.0565 14.6446C58.1085 14.6778 58.14 14.7352 58.14 14.7969V20.5693C58.14 20.6383 58.1006 20.7013 58.0387 20.7316L44.4622 27.3808C44.4062 27.4082 44.3401 27.405 44.2872 27.372C44.2343 27.339 44.2022 27.281 44.2021 27.2187V21.0914C44.2021 21.0211 44.243 20.9571 44.3068 20.9275L57.8832 14.633ZM44.5635 21.2068V26.9289L57.7786 20.4564V15.0797L44.5635 21.2068Z" fill="#101C3F"/>
    <path d="M44.3828 27.2185L45.2522 27.9327L45.7897 26.832L44.3828 27.2185Z" fill="#101C3F"/>
    <path d="M45.7419 26.6578C45.8104 26.639 45.8835 26.662 45.9288 26.7166C45.9741 26.7713 45.9832 26.8474 45.9521 26.9112L45.4146 28.0119C45.3904 28.0616 45.3448 28.0974 45.2907 28.1091C45.2367 28.1209 45.1803 28.1074 45.1376 28.0723L44.2682 27.3582C44.2161 27.3153 44.192 27.2469 44.2061 27.1808C44.2202 27.1148 44.27 27.0621 44.3351 27.0443L45.7419 26.6578ZM44.767 27.3003L45.1902 27.6479L45.4518 27.112L44.767 27.3003Z" fill="#101C3F"/>
    <path d="M58.8287 15.5133L57.9593 14.7969L57.4219 15.8998L58.8287 15.5133Z" fill="#101C3F"/>
    <path d="M57.921 14.6203C57.975 14.6086 58.0316 14.6224 58.0743 14.6576L58.9437 15.3739C58.9957 15.4168 59.0197 15.4852 59.0056 15.5511C58.9915 15.6171 58.9417 15.6698 58.8766 15.6877L57.4698 16.0741C57.4013 16.0929 57.3282 16.0699 57.2829 16.0153C57.2376 15.9607 57.2284 15.8845 57.2594 15.8207L57.7969 14.7177L57.807 14.6997C57.8327 14.6594 57.8737 14.6306 57.921 14.6203ZM57.7593 15.6197L58.4452 15.4313L58.0214 15.0821L57.7593 15.6197Z" fill="#101C3F"/>
    <path d="M45.2524 21.8077L58.8288 15.5132V21.6427L45.2524 27.9327V21.8077Z" fill="#0B64DD"/>
    <path d="M58.7529 15.3493C58.8088 15.3233 58.8742 15.3277 58.9261 15.3609C58.9781 15.3941 59.0096 15.4515 59.0096 15.5132V21.6427C59.0096 21.7131 58.9686 21.7771 58.9048 21.8067L45.3283 28.0966C45.2724 28.1225 45.2072 28.1181 45.1552 28.0849C45.1033 28.0517 45.0718 27.9943 45.0718 27.9327V21.8077C45.0718 21.7374 45.1126 21.6734 45.1764 21.6438L58.7529 15.3493ZM45.4331 21.9231V27.6498L58.6482 21.5272V15.796L45.4331 21.9231Z" fill="#101C3F"/>
    <path d="M61.5859 13.2919L70.4133 9.04053V15.17L61.5859 19.4168V13.2919Z" fill="#101C3F"/>
    <path d="M70.3349 8.87771C70.3909 8.85076 70.4568 8.85455 70.5094 8.8876C70.562 8.92066 70.5939 8.97843 70.5939 9.04058V15.1701C70.5939 15.2395 70.5542 15.3029 70.4916 15.333L61.6643 19.5796C61.6083 19.6065 61.5424 19.603 61.4898 19.5699C61.4372 19.5369 61.4053 19.479 61.4053 19.4169V13.292C61.4053 13.2226 61.4451 13.1592 61.5076 13.1291L70.3349 8.87771ZM61.7666 13.4053V19.1293L70.2326 15.0565V9.32819L61.7666 13.4053Z" fill="#101C3F"/>
    <path d="M61.5859 19.4168L62.4554 20.1332L62.9928 19.0303L61.5859 19.4168Z" fill="#101C3F"/>
    <path d="M62.9449 18.8561C63.0134 18.8373 63.0864 18.8602 63.1318 18.9148C63.1771 18.9695 63.1863 19.0457 63.1553 19.1095L62.6178 20.2123C62.5935 20.262 62.5478 20.2979 62.4937 20.3097C62.4397 20.3214 62.3831 20.3078 62.3404 20.2726L61.471 19.5562C61.419 19.5133 61.3952 19.4449 61.4093 19.3789C61.4234 19.313 61.4731 19.2604 61.5381 19.2425L62.9449 18.8561ZM61.9693 19.4987L62.3932 19.8479L62.6552 19.3101L61.9693 19.4987Z" fill="#101C3F"/>
    <path d="M71.2848 9.75699L70.4131 9.04053L69.8779 10.1435L71.2848 9.75699Z" fill="#101C3F"/>
    <path d="M70.3744 8.86405C70.4285 8.85221 70.485 8.86579 70.5278 8.90093L71.3994 9.61732C71.4516 9.66018 71.4756 9.72863 71.4615 9.79465C71.4475 9.86066 71.3976 9.91334 71.3325 9.93122L69.9257 10.3176C69.8573 10.3364 69.7844 10.3134 69.739 10.2589C69.6937 10.2044 69.6844 10.1284 69.7154 10.0646L70.2506 8.96162L70.2606 8.94363C70.2863 8.90322 70.3271 8.87441 70.3744 8.86405ZM70.2144 9.86346L70.9006 9.67501L70.4753 9.32547L70.2144 9.86346Z" fill="#101C3F"/>
    <path d="M62.4556 14.0059L71.2852 9.75684V15.8863L62.4556 20.1331V14.0059Z" fill="#F04E98"/>
    <path d="M71.2068 9.59402C71.2628 9.56708 71.3287 9.57085 71.3813 9.6039C71.4339 9.63697 71.4659 9.69475 71.4659 9.75688V15.8864C71.4658 15.9558 71.4261 16.0192 71.3635 16.0493L62.5339 20.2961C62.478 20.323 62.412 20.3193 62.3594 20.2862C62.3068 20.2532 62.2749 20.1953 62.2749 20.1332V14.006C62.2749 13.9366 62.3147 13.8732 62.3772 13.8431L71.2068 9.59402ZM62.6363 14.1193V19.8456L71.1045 15.7726V10.0443L62.6363 14.1193Z" fill="#101C3F"/>
    <path d="M171.367 128.731L167.946 131.143C161.481 135.514 142.082 146.699 109.336 149.626C87.1333 151.608 67.3807 144.132 54.7144 137.509C51.6861 135.925 48.4253 133.629 45.0244 130.682C33.2884 120.511 25.1882 106.932 21.5977 91.4161L15.3785 64.5408L14.753 64.1476C12.4858 62.7237 7.85416 58.8905 8.00998 56.1286C8.07773 54.951 9.1278 53.8662 11.1331 52.9034C14.0643 51.4975 16.7312 50.9438 19.1159 50.9438C27.0106 50.9438 31.7935 57.0055 32.681 58.2305C33.7198 61.5755 42.9468 90.8624 51.0312 103.194C62.1665 120.176 88.3753 135.722 112.951 132.338C134.635 129.355 143.347 123.811 146.048 121.616L148.796 118.913L146.418 117.878L145.237 117.342L144.377 118.323C144.314 118.393 137.674 125.327 112.464 128.797C110.303 129.093 108.132 129.235 105.958 129.235C84.7983 129.235 63.5643 115.789 54.0189 101.232C45.8983 88.8464 36.1089 57.2247 36.0118 56.9083L35.9351 56.6597L35.7905 56.4427C35.6912 56.2936 33.2907 52.7316 28.8872 50.1166C24.7682 47.6689 18.0748 45.6054 9.58847 49.6781C6.32083 51.2467 4.58878 53.3486 4.442 55.9252C4.16424 60.8274 10.1304 65.3364 12.2238 66.7625L18.1155 92.2207C21.8777 108.48 30.3731 122.715 42.6826 133.385C46.2935 136.513 49.7824 138.967 53.0569 140.678C64.6776 146.753 82.0952 153.525 101.997 153.525C104.51 153.525 107.064 153.416 109.65 153.186C131.543 151.228 147.462 145.641 156.957 141.3C167.327 136.558 172.453 132.298 172.665 132.119L174.876 130.261L171.363 128.731H171.367Z" fill="#1893FF"/>
    <path d="M9.51033 49.5148C18.0633 45.4101 24.8213 47.4898 28.9795 49.9609C33.4165 52.5957 35.8349 56.1831 35.9409 56.3422L36.0854 56.5592L36.0983 56.5818C36.102 56.5897 36.1052 56.5977 36.1078 56.606L36.1845 56.8546V56.855C36.2326 57.0116 38.7032 64.9927 42.1763 74.4817C45.6515 83.9767 50.1226 94.9595 54.1698 101.132C63.685 115.644 84.8647 129.054 105.958 129.054C108.125 129.054 110.286 128.912 112.439 128.617C125.031 126.884 132.976 124.288 137.776 122.12C140.176 121.036 141.79 120.06 142.806 119.353C143.313 118.999 143.672 118.713 143.904 118.514C144.02 118.414 144.105 118.336 144.16 118.283C144.216 118.23 144.242 118.202 144.243 118.202L145.101 117.223L145.122 117.202C145.175 117.159 145.248 117.148 145.312 117.177L146.493 117.713H146.493L148.868 118.747C148.923 118.771 148.963 118.821 148.974 118.88C148.985 118.939 148.966 118.999 148.923 119.041L146.175 121.745C146.171 121.749 146.166 121.752 146.162 121.756C143.428 123.977 134.682 129.53 112.976 132.517C100.643 134.215 87.9097 131.163 76.8693 125.564C65.8295 119.966 56.4677 111.814 50.8802 103.293H50.88C46.8253 97.1078 42.4915 86.6852 39.0446 77.4048C35.6153 68.1714 33.0572 60.0497 32.5174 58.3126C31.5925 57.0432 26.8677 51.1242 19.1159 51.1242C16.7603 51.1242 14.1199 51.6709 11.2113 53.0659C9.21359 54.0251 8.25185 55.0688 8.1903 56.1386C8.15425 56.7787 8.39583 57.4996 8.83523 58.2553C9.27324 59.0086 9.89813 59.7796 10.6033 60.5144C12.0137 61.984 13.7265 63.2892 14.849 63.9942H14.8492L15.4747 64.3875L15.4894 64.3977C15.522 64.4231 15.5452 64.459 15.5546 64.4997L21.7736 91.3751L21.8585 91.7375C25.4824 107.066 33.5279 120.479 45.1428 130.545C48.5361 133.485 51.7853 135.773 54.798 137.349C67.4486 143.963 87.1654 151.424 109.32 149.446L110.084 149.376C142.328 146.348 161.445 135.319 167.842 130.995L171.238 128.6C171.271 128.569 171.315 128.55 171.362 128.55H171.367C171.4 128.55 171.431 128.559 171.458 128.575L174.948 130.095C175.006 130.12 175.046 130.173 175.055 130.235C175.064 130.297 175.04 130.359 174.993 130.399L172.782 132.257L172.782 132.257C172.557 132.445 167.418 136.715 157.033 141.464C147.521 145.813 131.582 151.406 109.666 153.365H109.666C107.075 153.597 104.515 153.705 101.997 153.705C82.0556 153.705 64.6085 146.921 52.9731 140.838C49.6833 139.119 46.1828 136.656 42.5643 133.521V133.521C30.2251 122.825 21.7099 108.557 17.9394 92.2612L12.0634 66.8712C10.996 66.1398 9.00988 64.6661 7.30911 62.7677C5.58166 60.8394 4.11856 58.4396 4.26163 55.9145C4.41362 53.247 6.21043 51.0988 9.51033 49.5148ZM28.7948 50.2716C24.7151 47.8472 18.0864 45.7999 9.66667 49.8407C6.43131 51.3938 4.76408 53.4496 4.62247 55.9351C4.48783 58.3122 5.86884 60.6182 7.57837 62.5264C9.17635 64.3102 11.0352 65.7175 12.1193 66.471L12.3256 66.6129L12.339 66.6231C12.3694 66.6482 12.3909 66.6827 12.3999 66.7214L18.2916 92.1797C22.0454 108.403 30.521 122.603 42.8009 133.248C46.2915 136.272 49.6642 138.661 52.8344 140.356L53.1406 140.518V140.518C64.7467 146.585 82.1349 153.344 101.997 153.344C104.505 153.344 107.054 153.236 109.634 153.006L110.145 152.959C131.752 150.963 147.477 145.435 156.882 141.135C167.235 136.401 172.348 132.15 172.549 131.98L174.537 130.31L171.386 128.938L168.05 131.29C168.049 131.291 168.048 131.291 168.047 131.292C161.561 135.677 142.134 146.876 109.352 149.806C87.1013 151.792 67.3126 144.3 54.6307 137.669C51.5869 136.077 48.3145 133.771 44.9061 130.818C33.1405 120.621 25.0206 107.009 21.4216 91.4566L15.2192 64.6536L14.6569 64.3001C13.5122 63.5812 11.7756 62.2579 10.3425 60.7646C9.62579 60.0178 8.98018 59.2237 8.52274 58.437C8.06675 57.6528 7.78787 56.8589 7.82964 56.1181V56.1178C7.90363 54.8325 9.04216 53.7066 11.055 52.7401C14.0087 51.3235 16.7022 50.7628 19.1159 50.7628C26.8548 50.7629 31.6296 56.5149 32.7321 57.9947L32.8272 58.1242L32.8426 58.1492C32.847 58.158 32.8506 58.1672 32.8535 58.1766C33.3724 59.8476 35.9379 68.0021 39.3834 77.2789C42.8309 86.5611 47.1526 96.9478 51.1823 103.094C56.7301 111.555 66.0403 119.668 77.0327 125.242C88.0245 130.816 100.684 133.844 112.927 132.159C134.572 129.181 143.253 123.652 145.928 121.48L148.479 118.971L146.346 118.043C146.345 118.043 146.344 118.042 146.344 118.042L145.284 117.562L144.513 118.442L144.511 118.444H144.511C144.409 118.557 137.826 125.395 113.076 128.893L112.488 128.975C110.319 129.272 108.14 129.415 105.958 129.415C84.732 129.415 63.4435 115.934 53.8677 101.331C49.7944 95.1179 45.3108 84.0971 41.837 74.6059C38.3611 65.1092 35.8884 57.1218 35.839 56.961V56.9608L35.7701 56.7376L35.6402 56.5425C35.5468 56.4023 33.1644 52.8664 28.795 50.2716H28.7948Z" fill="#101C3F"/>
    <mask id="mask1_10236_34571" style="mask-type:luminance" maskUnits="userSpaceOnUse" x="117" y="118" width="34" height="30">
      <path d="M124.301 147.241C124.301 147.241 138.426 144.742 147.279 141.132L150.092 126.197L139.946 119.331L128.014 118.549L117.152 123.623V141.788L124.301 147.241Z" fill="white"/>
    </mask>
    <g mask="url(#mask1_10236_34571)">
      <path d="M133.282 150.119C141.268 150.119 147.741 143.639 147.741 135.647C147.741 127.654 141.268 121.175 133.282 121.175C125.296 121.175 118.823 127.654 118.823 135.647C118.823 143.639 125.296 150.119 133.282 150.119Z" fill="#F04E98"/>
    </g>
    <mask id="mask2_10236_34571" style="mask-type:luminance" maskUnits="userSpaceOnUse" x="38" y="97" width="40" height="45">
      <path d="M38.9883 124.247C38.9883 124.247 48.4322 136.379 65.0188 141.738C76.3505 145.399 77.6896 102.703 77.6896 102.703L50.2862 97.1567L38.4351 115.498L38.9883 124.247Z" fill="white"/>
    </mask>
    <g mask="url(#mask2_10236_34571)">
      <path d="M55.5409 140.658C63.5266 140.658 70.0003 134.179 70.0003 126.186C70.0003 118.194 63.5266 111.714 55.5409 111.714C47.5552 111.714 41.0815 118.194 41.0815 126.186C41.0815 134.179 47.5552 140.658 55.5409 140.658Z" fill="#FF957D"/>
    </g>
    <path d="M35.0923 24.4249C35.8848 24.0452 36.6962 24.0826 37.3313 24.5257C37.9552 24.961 38.3446 25.7426 38.4151 26.7295C38.4153 26.7321 38.4158 26.7347 38.4159 26.7373C38.4879 27.7764 38.2105 28.8712 37.7153 29.7931C37.2217 30.7119 36.4907 31.4969 35.6203 31.8741H35.6201C34.7516 32.2498 33.9185 32.1351 33.3091 31.5992C32.7169 31.0784 32.394 30.2117 32.394 29.1875C32.394 27.1615 33.5592 25.1596 35.0923 24.4249ZM33.1168 29.1875C33.1168 30.0754 33.3969 30.7139 33.7864 31.0565C34.1588 31.3839 34.6864 31.4906 35.3332 31.2109C36.0117 30.9167 36.6368 30.2734 37.0786 29.4509C37.5182 28.6327 37.7553 27.6747 37.6951 26.7917C37.6951 26.791 37.695 26.7902 37.695 26.7895C37.637 25.9506 37.3169 25.3969 36.9177 25.1184C36.5275 24.8462 35.9987 24.792 35.4046 25.0767C34.1647 25.671 33.1168 27.3894 33.1168 29.1875Z" fill="#101C3F"/>
    <path d="M37.252 29.6722C37.3961 29.5341 37.6249 29.539 37.763 29.6831L39.9647 31.9818C40.1028 32.1259 40.0979 32.3547 39.9538 32.4928C39.8097 32.6308 39.5808 32.6258 39.4428 32.4816L37.241 30.1832C37.103 30.0391 37.1079 29.8103 37.252 29.6722Z" fill="#101C3F"/>
    <path d="M125.37 37.0657C125.602 36.975 125.864 37.0899 125.955 37.3223C126.045 37.5546 125.931 37.8166 125.698 37.9074L113.802 42.5519C113.61 42.6268 113.392 42.5625 113.271 42.3956L110.081 37.9746C109.935 37.7723 109.98 37.49 110.183 37.344C110.385 37.198 110.667 37.2437 110.813 37.446L113.799 41.5832L125.37 37.0657Z" fill="#101C3F"/>
    <path d="M130.048 135.389L130.33 136.736L124.166 135.735L123.913 134.526L129.111 130.898L129.393 132.245L125.712 134.709L125.726 134.772C127.167 134.978 128.61 135.181 130.05 135.387L130.048 135.389Z" fill="#F990C6"/>
    <path d="M138.15 134.928L137.87 133.581L141.545 131.122L141.531 131.059L137.216 130.442L136.936 129.095L143.085 130.1L143.335 131.307L138.15 134.928Z" fill="#F990C6"/>
    <path d="M135.488 128.188L133.28 137.444L131.963 137.749L134.174 128.494C134.612 128.392 135.053 128.29 135.491 128.191L135.488 128.188Z" fill="#F990C6"/>
    <path d="M53.2712 118.607L52.6299 119.769L48.1767 119.383L48.1473 119.437L51.1372 122.479L50.4959 123.643L46.3159 119.211L46.8918 118.169C49.019 118.314 51.144 118.461 53.2712 118.605V118.607Z" fill="#E55940"/>
    <path d="M64.7589 126.403L64.1853 127.447L57.79 127.006L58.4291 125.842L62.8913 126.231L62.9207 126.177L59.9218 123.128L60.5609 121.964L64.7589 126.403Z" fill="#E55940"/>
    <path d="M60.0029 120.427L52.3566 125.937L51.1304 125.37L58.7767 119.862L60.0029 120.427Z" fill="#E55940"/>
  </g>
  <defs>
    <linearGradient id="paint0_linear_10236_34571" x1="167.819" y1="51.5514" x2="196.474" y2="51.5514" gradientUnits="userSpaceOnUse">
      <stop offset="0.03" stop-color="#0B64DD"/>
      <stop offset="1" stop-color="#48EFCF"/>
    </linearGradient>
    <clipPath id="clip0_10236_34571">
      <rect width="232" height="159.003" fill="white"/>
    </clipPath>
  </defs>
</svg>

