<svg xmlns="http://www.w3.org/2000/svg" width="200" height="148" fill="none"><path fill="#E6EBF2" d="M66.493 121.253a.664.664 0 0 0 .373-.78.945.945 0 0 0-1.1-.386.686.686 0 0 0 .208 1.253c.178.041.364.01.519-.087M46.666 68.12c.12-.113.373-.44.287-.6s-.514-.046-.667 0c-.153.047-.22.267-.073.454.146.186.3.293.453.146m-1.26 13.006a.427.427 0 0 0-.58-.153c-.246.107-.46.254-.46.573 0 .947.173 1.16 1.1 1.334h.067a1.2 1.2 0 0 0-.367 0 .286.286 0 0 0-.2.427.34.34 0 0 0 .487.22.9.9 0 0 0 .273-.36.4.4 0 0 0 .54.146.474.474 0 0 0 .074-.767c-.227-.22-.147-.426-.12-.666.706.047 1-.267.88-.867a2 2 0 0 0-.054-.173c-.146-.394-.38-.487-.753-.3-.373.186-.6.326-.487.873-.2-.133-.333-.186-.4-.287M45.42 80a.386.386 0 0 0 .166-.52.486.486 0 0 0-.507-.347.55.55 0 0 0-.46.667.58.58 0 0 0 .8.2Zm59.546 54.133a.7.7 0 0 0 .2.914.71.71 0 0 0 .887-1.107 1.03 1.03 0 0 0-1.087.193M47.08 69.04a.45.45 0 0 0-.22.666.5.5 0 0 0 .626.18.54.54 0 0 0 .167-.666.427.427 0 0 0-.573-.18M46.987 64c.12-.087.346-.4.28-.507-.067-.106-.427-.126-.58-.1-.154.027-.247.26-.14.487a.266.266 0 0 0 .44.12m4.486 44a.77.77 0 0 0-.107 1.033.89.89 0 0 0 1.2-.087.6.6 0 0 0 .203-.453.6.6 0 0 0-.203-.453.73.73 0 0 0-1.093-.04m1.54-7.846a.2.2 0 0 0 .063-.048.17.17 0 0 0 .03-.15.2.2 0 0 0-.04-.069.16.16 0 0 0-.266-.053.166.166 0 0 0-.047.273.16.16 0 0 0 .118.087.16.16 0 0 0 .142-.04m-3.28-8.374q.107.286.267.546-.075.126-.133.26a.92.92 0 0 0 .173 1 1.02 1.02 0 0 0 .9.174 1.2 1.2 0 0 0 0 .5l.313.146a58 58 0 0 1-1.106-3.42.8.8 0 0 0-.18.094.61.61 0 0 0-.234.7m2.807 10.347a.234.234 0 0 0 .28-.114.32.32 0 0 0-.113-.34c-.093-.06-.24.06-.287.154-.047.093.007.266.12.3m.193 4.286a.66.66 0 0 0 .106-.713.4.4 0 0 0-.102-.104.34.34 0 0 0-.282-.043.4.4 0 0 0-.129.067c-.313.213-.453.447-.36.613a.78.78 0 0 0 .767.18m.32-2.286a.795.795 0 0 0-.073-.947.8.8 0 0 0-.84.1.53.53 0 0 0 0 .667c.353.32.713.393.913.18M44.5 73.374a.86.86 0 0 0-.394 1.08.87.87 0 0 0 1.033.5 1.12 1.12 0 0 0 .467-1.247.87.87 0 0 0-1.107-.333Zm9.886 28.086c-.173-.326-.34-.666-.507-.986-.253.16-.353.393-.253.593a1.04 1.04 0 0 0 .76.393m.794 4.713c-.12.26-.22.527.087.667.306.14.473-.034.6-.274a.51.51 0 0 0-.464-.427.5.5 0 0 0-.223.034m-4.14-10.84c-.12.047-.167.12-.114.247s.127.16.253.113a.174.174 0 0 0 .114-.24c-.047-.12-.12-.173-.254-.12Zm4.147 12.867a.36.36 0 0 0-.052.42.4.4 0 0 0 .098.113.44.44 0 0 0 .516.11.4.4 0 0 0 .151-.11.4.4 0 0 0-.04-.587.46.46 0 0 0-.528-.065.5.5 0 0 0-.145.119m.499 2.707a.48.48 0 0 0 .667 0 .44.44 0 0 0 0-.6.4.4 0 0 0-.445-.144.4.4 0 0 0-.142.084.43.43 0 0 0-.19.312.44.44 0 0 0 .11.348m-1.353-6.241a.35.35 0 0 0-.058.282.34.34 0 0 0 .178.225c.313.213.586.253.666.107a.77.77 0 0 0-.12-.774.67.67 0 0 0-.666.16M37.22 85.493c-.16-.3-.353-.293-.513-.207-.16.087-.3.26-.16.434.14.173.34.22.446.166.107-.053.174-.286.227-.393m1.087 7.047a.666.666 0 0 0-.347.747.74.74 0 0 0 .813.38c.26-.107.334-.527.16-.907a.52.52 0 0 0-.626-.22m-.387-3.367c-.274-.106-.514-.273-.747 0a.4.4 0 0 0 0 .554.53.53 0 0 0 .406.18c.334-.087.38-.367.34-.734ZM45 100.606c-.26 0-.48.56-.3.794s.6.293.74.106c.14-.186-.174-.84-.44-.9m-1.786-5.046-.207.22a4 4 0 0 0-.407-.373.434.434 0 0 0-.666 0 .67.67 0 0 0-.174.78.6.6 0 0 0 .667.366q.302-.028.593-.12.1.108.22.194a.91.91 0 0 0 1.014.073 1.06 1.06 0 0 0 .386-.96.53.53 0 0 0-.2-.347.833.833 0 0 0-1.226.167m2.959 9.774a.35.35 0 0 0-.118.266.36.36 0 0 0 .118.267.3.3 0 0 0 .104.083.32.32 0 0 0 .261.018.3.3 0 0 0 .115-.068.35.35 0 0 0 .1-.513.4.4 0 0 0-.58-.053m-5.84-19.148c0-.353-.213-.493-.567-.5-.193-.826-.666-.926-1.333-.313a1 1 0 0 1-.167-.06.4.4 0 0 0-.533.113.43.43 0 0 0-.087.5c.154.467.36.567.82.38l1.04-.4c.287.62.367.64.827.28m1 2.614a.787.787 0 1 0-1.334.747.874.874 0 0 0 1.187.147.614.614 0 0 0 .147-.894m.614 3.2a.8.8 0 0 0-.94-.333.73.73 0 0 0-.26.9c.146.307.426.367.82.173.266-.133.473-.533.38-.74m.893 5.94a.426.426 0 0 0-.467.273.387.387 0 0 0 .533.42.4.4 0 0 0-.067-.693Zm1.5-31.093c.1-.047.093-.3.053-.367s-.187-.167-.287-.113a.26.26 0 0 0-.107.3c.047.073.247.233.34.18Zm-1.294 8.893c.107.107.394.354.54.26s.04-.486 0-.6-.286-.086-.406-.04a.22.22 0 0 0-.134.38m-.292-3.78a.76.76 0 0 0 .173-.98.713.713 0 0 0-1.18.78.726.726 0 0 0 1.007.2M41.22 84.873c-.227.114-.307.3-.147.48s.313.46.56.327.113-.487.087-.667-.294-.246-.5-.14m-.72-3.066a.926.926 0 0 0-.247 1.086.81.81 0 0 0 1.167.18.667.667 0 0 0 .293-.96.907.907 0 0 0-1.213-.306m4.586-9.714a.76.76 0 0 0 .34-.88.52.52 0 0 0-.667-.246.67.67 0 0 0-.26.84.45.45 0 0 0 .587.286m.5-2.367a.14.14 0 0 0 .034-.18c0-.04-.14-.046-.167 0a.123.123 0 0 0 .04.224.12.12 0 0 0 .093-.017zm-1.88 7.7a.67.67 0 0 0 .86.134c.387-.22.5-.467.34-.767a.774.774 0 0 0-.926-.333.85.85 0 0 0-.273.966ZM40.8 74.787c.12-.113.386-.447.293-.587s-.494-.086-.667-.046-.213.346-.093.52c.12.173.333.26.466.113Zm-2.447-1.86c0 .04.18.133.22.106.04-.026.247-.14.2-.286-.046-.147-.266-.12-.3-.087a.4.4 0 0 0-.12.267m.247 3.553a.436.436 0 0 0 .8-.347.57.57 0 0 0-.627-.233.453.453 0 0 0-.173.58m2.327-10.587c.073-.04.073-.207.053-.3s-.173-.193-.287-.133-.053.273 0 .36a.24.24 0 0 0 .234.073M38 71.1a.466.466 0 0 0 .513-.333.346.346 0 0 0-.14-.467c-.293-.193-.52-.046-.767.16.06.3.047.607.394.64m2.76 8.3a.7.7 0 0 0 .146-.827.67.67 0 0 0-.82.127.5.5 0 0 0 .667.666zm-2.387 1.266q.432-.238.234-.666a.78.78 0 0 0-.954-.407.67.67 0 0 0-.126.873.627.627 0 0 0 .846.2m7.233 27.268c-.133 0-.287.266-.413.433a.2.2 0 0 0-.047.061.18.18 0 0 0 0 .151.2.2 0 0 0 .047.061.56.56 0 0 0 .666-.1.404.404 0 0 0-.253-.606m33.627 20.193c-.126-.254-.466-.32-.846-.154-.28.134-.487.507-.394.72a.85.85 0 0 0 .914.42.6.6 0 0 0 .12-.066.76.76 0 0 0 0 .386c.1.329.31.614.593.807.1.077.177.181.22.3a.584.584 0 0 0 .887.433.3.3 0 0 0 .033.167.52.52 0 0 0 .667.113.53.53 0 0 0 .313-.666.46.46 0 0 0-.277-.219.47.47 0 0 0-.35.045.86.86 0 0 0-.173-.42.83.83 0 0 1-.227-.586c0-.36-.253-.58-.5-.78a.83.83 0 0 0-.88.04l-.066.06a.79.79 0 0 0-.034-.6m9.973 5.979c.1.2.414.14.554.114a.3.3 0 0 0 .225-.134.3.3 0 0 0 .035-.26c-.06-.213-.34-.4-.5-.28s-.414.36-.314.56m4.247-1.332a.605.605 0 0 0-.287.866c.173.354.513.52.773.374a.89.89 0 0 0 .367-1.054.67.67 0 0 0-.853-.186m.16 2.966c-.12.193.093.427.193.533a.29.29 0 0 0 .364.085.3.3 0 0 0 .103-.085c.147-.166.16-.5 0-.573s-.54-.147-.66.04m-3.42-4.167a.45.45 0 0 0-.477-.299.5.5 0 0 0-.19.066.472.472 0 0 0 0 .833.27.27 0 0 0 .18.28q.213.03.427 0a.47.47 0 0 0 .033-.426.49.49 0 0 0 .027-.454M76 127.926c.34-.167.486-.467.353-.72a.91.91 0 0 0-1.053-.373.67.67 0 0 0-.154.82.575.575 0 0 0 .853.273Zm-9.22-3.706a.76.76 0 0 0 .32.14c.28-.146.373-.406.233-.546a.54.54 0 0 0-.406-.147c-.194.033-.26.4-.147.553m4.733-.807c.3-.106.553-.446.48-.666-.147-.46-.667-.454-.92-.44-.254.013-.38.613-.14.96a.44.44 0 0 0 .58.146m42.58 9.307c-.3.113-.22.366-.167.606.26.12.494.14.667-.126a.38.38 0 0 0-.053-.36.5.5 0 0 0-.447-.12m-.533 1.873c.113.073.206.167.353.147s.2-.234.087-.4a.72.72 0 0 0-.474-.28.2.2 0 0 0-.096.012.21.21 0 0 0-.137.234.46.46 0 0 0 .267.287m2.513-4.133c.353.047.493-.187.626-.487-.093-.113-.173-.233-.26-.32l-.666.147a.6.6 0 0 0-.054.3.355.355 0 0 0 .354.36m5.14-1.587c.033 0 .14 0 .16-.053.02-.054 0-.127 0-.16a.14.14 0 0 0-.194 0 .16.16 0 0 0-.027.113c.006.04.028.076.061.1m-6.633 3.247a.815.815 0 0 0 .754-.786.84.84 0 0 0-.898-.657.84.84 0 0 0-.762.81c-.034.347.44.6.906.633m2.98 2.966a.256.256 0 0 0 0 .354c.133.126.28-.06.347-.127s0-.227-.034-.24a.34.34 0 0 0-.313.013m.473-4.626c0-.147 0-.433-.114-.473a.48.48 0 0 0-.407.146c-.06.087-.053.44.054.507.106.067.433-.113.467-.18m-10.32 3.86a.42.42 0 0 0-.031.346.44.44 0 0 0 .237.254c.194.093.407.2.534 0 .206-.334.186-.62 0-.76a.48.48 0 0 0-.408-.093.5.5 0 0 0-.332.253m-.38-2.113a.66.66 0 0 0-.007.433.66.66 0 0 0 .26.347.4.4 0 0 0 .318.035.4.4 0 0 0 .236-.215c.233-.354.253-.627.073-.767a.76.76 0 0 0-.88.167m-3.44 4.06a.38.38 0 0 0 .14.56.52.52 0 0 0 .667-.134.5.5 0 0 0-.167-.633.45.45 0 0 0-.364-.036.46.46 0 0 0-.276.243M112 131.2a.724.724 0 0 0 .967-.187.95.95 0 0 0 .046-.666l-1.4.213a.89.89 0 0 0 .387.64m-1.747 1.993a.424.424 0 0 0 .506-.035.4.4 0 0 0 .107-.145c.267-.413.254-.7-.046-.893a.75.75 0 0 0-.854.213.86.86 0 0 0 .287.86M50.88 97.454a.2.2 0 0 1 0 .113 1 1 0 0 0-.16.08c-.074-.1-.227-.12-.487.04a.466.466 0 0 0-.233.666.67.67 0 0 0 .666.367c.05.056.115.097.187.12.247.073.487.254.667.153a.45.45 0 0 0 .246-.313.67.67 0 0 0 .087-.427 1.1 1.1 0 0 0-.173-.38 1 1 0 0 0 0-.213c-.034-.266-.094-.666-.46-.613-.367.053-.367.287-.34.407m-4.054-24.248c-.3 0-.614 0-.614.434a.48.48 0 0 0 .347.5.35.35 0 0 0 .287 0c.147-.167.267-.36.413-.56.234-.005.464-.07.667-.187v-.887a.92.92 0 0 0-.6-.26c-.4-.02-.5.18-.5.96m1.08 11.214a.56.56 0 0 0 .667.174l.04-.047a35 35 0 0 1-.154-.84.67.67 0 0 0-.426 0 .49.49 0 0 0-.127.713m-.866-7.933a.4.4 0 0 0 .306-.2c.094-.28-.066-.454-.346-.56-.2.126-.447.246-.334.546a.5.5 0 0 0 .374.214m2.206 17.407c.087.153.207.3.427.213a.493.493 0 0 0 .186-.667 1.5 1.5 0 0 0-.486 0c-.2.074-.227.274-.127.454m-.179-7.061a.59.59 0 0 0 .147.667c-.047-.24-.107-.454-.147-.667m-.401 3.38a.83.83 0 0 0 1.047-.226.7.7 0 0 0 .053-.314c-.04-.14-.087-.273-.12-.413a.72.72 0 0 0-.4-.354.85.85 0 0 0-.993.267c-.22.267.026.747.413 1.04m-1.14-12.593c-.406.093-.873.247-.973.74a1.14 1.14 0 0 0 1.14 1.267.39.39 0 0 1 .353.166 57 57 0 0 1-.166-3.213 6 6 0 0 0-.354 1.04m3.407 24.806a.15.15 0 0 0 .055-.043.16.16 0 0 0 .034-.132.2.2 0 0 0-.029-.065c-.06-.073-.187-.213-.333-.153s-.06.287 0 .32.153.147.273.073m-.267-7.093a.42.42 0 0 0-.38-.38c-.233 0-.3.14-.28.62a.407.407 0 0 0 .66-.24m-1.066 5.82a.24.24 0 0 0 .046.093.44.44 0 0 0 .36.174c.127 0 .254.066.434 0a.96.96 0 0 0 .52-.667.72.72 0 0 0-.287-.667.61.61 0 0 0-.62-.033.73.73 0 0 0-.427.533.28.28 0 0 0-.193 0c-.307.074-.667.067-.907.38l.04.454c-.313.28-.466.666-.326.86a.42.42 0 0 0 .5.16c.366-.12.446-.26.413-.72.18-.24.313-.387.447-.567m-.76 3.514c.246-.24.22-.527-.08-.82a.45.45 0 0 0-.312-.195.46.46 0 0 0-.355.095.97.97 0 0 0-.12.987c.273.28.567.253.867-.067m13.9 14.6c0-.134-.247-.174-.32-.154a.31.31 0 0 0-.2.24c0 .107.18.174.266.174s.267-.134.254-.26M48.287 95.7a.16.16 0 0 0-.043.191.2.2 0 0 0 .043.055c.06.067.233.22.333.134.1-.087 0-.28 0-.314s-.213-.16-.333-.066"/><path fill="#E6EBF2" d="M48.147 96.866c.113 0 .28.167.16.207s-.187.187-.093.493a.476.476 0 0 0 .586.387.7.7 0 0 0 .52-.833c-.08-.38-.306-.4-.333-.667s-.18-.313-.447-.353-.666-.074-.706.3c-.04.373.2.466.313.466m.173-10.7c.266-.153.273-.553 0-.966a.61.61 0 0 0-.707-.14.87.87 0 0 0-.273.806.85.85 0 0 0 .98.3m-1.327 2.187a1.33 1.33 0 0 0-1.333-.42.854.854 0 0 0-.267 1.12.99.99 0 0 0 1.167.373.833.833 0 0 0 .433-1.073M42.96 78.92a1.5 1.5 0 0 0 0-.527c-.073-.246-.433-.293-.667-.14a.413.413 0 0 0-.093.587.553.553 0 0 0 .76.08m2.62 17.88c-.06.227.066.327.533.42a.4.4 0 0 0-.067-.666.42.42 0 0 0-.467.246Zm-3.513-16.387a.5.5 0 0 0 .666.14.48.48 0 0 0 .134-.626.507.507 0 0 0-.667-.134.46.46 0 0 0-.133.62m3.966 12.541a.41.41 0 0 0-.52.3.53.53 0 0 0 .113.466c.26.207.52.074.747-.146-.007-.24-.04-.54-.34-.62m-.7-1.887c.24-.207.12-.467 0-.747-.293 0-.6-.1-.726.247a.3.3 0 0 0 0 .1 1.07 1.07 0 0 0-.827.046.444.444 0 0 0-.113.627.667.667 0 0 0 .846.333.74.74 0 0 0 .36-.513.43.43 0 0 0 .46-.093m2.141 2.306c.666.72 1.253.347 1.653-.16a.97.97 0 0 0 .213-.593 1 1 0 0 0-.38-.74c-.246-.227-.253-.567-.566-.667a1.37 1.37 0 0 0-1.594.467 1.1 1.1 0 0 0-.213 1.04c.127.36.62.347.886.653Zm-3.947-10.6c.28-.16.32-.466.106-.846-.213-.38-.46-.434-.666-.294a1.17 1.17 0 0 0-.36.947.667.667 0 0 0 .92.193m1.926 4.22a.67.67 0 0 0 .206-.666.46.46 0 0 0-.666-.2.51.51 0 0 0-.227.62.73.73 0 0 0 .687.246m-1.62 5.674a.81.81 0 0 0-.38.98.82.82 0 0 0 1.067.273.567.567 0 0 0 .193-.78c-.153-.32-.633-.573-.88-.473m-.693-6.634c.113.213.78.287 1.047.113a.67.67 0 0 0 .16-.706.667.667 0 0 0-.847-.327.76.76 0 0 0-.36.92m1.026 3.014a.806.806 0 0 0 .373-1.22.9.9 0 0 0-1.213-.3 1.07 1.07 0 0 0-.207 1.273.73.73 0 0 0 1.047.247m49.127 45.106c.033-.234-.38-.667-.667-.707s-.527-.08-.667.253c-.14.334-.226.474-.346.714a.4.4 0 0 0-.156.31.39.39 0 0 0 .156.31.497.497 0 0 0 .666-.047q.182-.178.414-.28a.67.67 0 0 0 .6-.553m5.013.147v.033c-.067.267.18.353.373.433.267-.113.414-.293.294-.56-.04-.093-.227-.206-.307-.18l-.153.08a.4.4 0 0 0 .04-.133.404.404 0 0 0-.374-.321.4.4 0 0 0-.173.028.39.39 0 0 0-.187.306.47.47 0 0 0 .22.36.31.31 0 0 0 .267-.046m-2.026 2.88a.45.45 0 0 0 .042-.529.44.44 0 0 0-.129-.137.55.55 0 0 0-.666.073.456.456 0 0 0 .113.667.43.43 0 0 0 .337.109.43.43 0 0 0 .303-.183m1.393-5.314a.41.41 0 0 0-.468-.029.4.4 0 0 0-.119.116.44.44 0 0 0 .04.667.47.47 0 0 0 .35.098.48.48 0 0 0 .317-.178.51.51 0 0 0-.12-.674m-.713 6.801a.674.674 0 0 0-.94.126.67.67 0 0 0 .127.94.91.91 0 0 0 1.1-.24c.16-.206.007-.64-.287-.826m-1.287-3.22a.45.45 0 0 0 .344.045.45.45 0 0 0 .27-.218.46.46 0 0 0 .086-.362.46.46 0 0 0-.214-.305.55.55 0 0 0-.666.213.493.493 0 0 0 .18.627m-1.806 4.46c-.06.173-.14.606 0 .713s.493-.187.5-.253c0-.2.08-.46-.1-.607s-.367.06-.4.147"/><path fill="#E6EBF2" d="M95.72 132.54a.7.7 0 0 0 .48-.286.92.92 0 0 0 .153-.74q2.067.24 4.146.353c-.033.113-.053.227-.08.347-.284.05-.549.177-.766.366l-.187-.1a.846.846 0 0 0-.947.5.853.853 0 0 0 .747.914.89.89 0 0 0 .667-.207l.093.08c.38.3.713.14 1.033-.127.194.18.32.474.667.287a.43.43 0 0 0 .22-.513c-.1-.367-.407-.3-.667-.267-.06-.16-.113-.307-.173-.453l.58-.254q.047-.244.047-.493l1.62.04h.066a.7.7 0 0 0 .2 0h1.467a.67.67 0 0 0 .32.627.823.823 0 0 0 1.2-.287.66.66 0 0 0 .093-.387l1.147-.053a.505.505 0 0 0 .507-.507.507.507 0 0 0-.507-.506c-12.3.12-24.54-2.667-34.913-9.414a57.2 57.2 0 0 1-15.814-15.646 30 30 0 0 1-2.213-3.62.2.2 0 0 0-.074-.153.2.2 0 0 0-.079-.039.2.2 0 0 0-.087-.002l-.18-.313a.82.82 0 0 0-.6.087.59.59 0 0 0-.136.659.6.6 0 0 0 .136.194.44.44 0 0 0 .667.107l.06.14a.383.383 0 0 0 .086.587q.092.049.194.039a30 30 0 0 0 1.58 2.967.49.49 0 0 0 .127.413.4.4 0 0 0 .213.12c.133.22.273.447.413.667-.166.267-.133.507.154.787a.8.8 0 0 0 .54.233c.12.167.233.347.36.513a.87.87 0 0 0-.534.207c-.413.327-.353 1.013 0 1.127.353.113.533-.074.6.053s.08.447.334.5c.253.053.46-.28.613-.513q.5.666 1.02 1.333a.6.6 0 0 0 .073.5.72.72 0 0 0 .527.227c.067.073.127.153.193.233.42.5.86 1 1.334 1.487a.58.58 0 0 0-.34.153.67.67 0 0 0 .12.827.58.58 0 0 0 .9 0 .6.6 0 0 0 .093-.134c.8.84 1.633 1.647 2.486 2.434a.48.48 0 0 0 0 .413.66.66 0 0 0 .487.247.3.3 0 0 0 .14-.06c.514.453 1.04.893 1.567 1.333a1.1 1.1 0 0 0 0 .947.763.763 0 0 0 .98.44.96.96 0 0 0 .4-.314c.36.28.733.554 1.1.82.055.07.13.123.213.154a42 42 0 0 0 3.74 2.446.5.5 0 0 0 0 .28.8.8 0 0 0 .967.407.2.2 0 0 0 .08-.073q.738.421 1.486.813a.5.5 0 0 0 .047.267c.213.473.753.78 1.113.626a.7.7 0 0 0 .234-.173 34 34 0 0 0 2.073.96.49.49 0 0 0 .567.247q1.09.471 2.2.893c0 .253.273.3.52.26v-.053l.98.353a.6.6 0 0 0 0 .213.445.445 0 0 0 .587.254l.08-.04a.85.85 0 0 0 .727.52h.06a.785.785 0 0 0-.06.873q.079.18.213.327a.38.38 0 0 0-.267.186.6.6 0 0 0 .313.8.76.76 0 0 0 .814-.16.604.604 0 0 0 0-.726.86.86 0 0 0 .38-1.014.95.95 0 0 0-.394-.44c1.273.374 2.56.667 3.853.974a.28.28 0 0 0 0 .227.28.28 0 0 0 .167.153q.213.03.427 0a.6.6 0 0 0 .067-.247q.84.173 1.68.32a.4.4 0 0 0 .093.1.394.394 0 0 0 .546 0c.314.053.627.107.94.147a1.3 1.3 0 0 0-.16.34.37.37 0 0 0-.293-.134.59.59 0 0 0-.4.225.6.6 0 0 0-.12.442.75.75 0 0 0 .553.613.61.61 0 0 0 .634-.366.95.95 0 0 0 .433.086.145.145 0 0 0 .2.054.14.14 0 0 0 .053-.054Zm7.167 5.613a.45.45 0 0 0-.387.127c-.073.093-.153.407-.04.507s.413-.047.513-.127a.32.32 0 0 0-.086-.507m-2.22 4.093a.494.494 0 0 0 .153.667.46.46 0 0 0 .541-.002.488.488 0 0 0-.014-.778.467.467 0 0 0-.68.113m1.08-7.066a.61.61 0 0 0-.88.22.72.72 0 0 0 .073.927.89.89 0 0 0 .98-.214.6.6 0 0 0 .134-.507.62.62 0 0 0-.307-.426m-3.467 5.134a.15.15 0 0 0 .053.18c.034 0 .14 0 .16-.054.02-.053 0-.126 0-.16a.14.14 0 0 0-.213.034m-51.867-38.808c.054-.073.16-.226.06-.353s-.293 0-.313.053a.255.255 0 0 0 0 .307.2.2 0 0 0 .058.042.17.17 0 0 0 .195-.049m54.254 36.094a.7.7 0 0 0-.114-.22.58.58 0 0 0-.57-.252.58.58 0 0 0-.47.412 3.7 3.7 0 0 0-.206.94.91.91 0 0 0 .666.813c.207.04.667-.033.667-.46-.347-.62.153-.707.027-1.233m-2.487 5.426a.5.5 0 0 0-.187.38c.067.294.44.314.58.24a.4.4 0 0 0 .127-.314.4.4 0 0 0-.16-.299.37.37 0 0 0-.36-.007m1.313-7.313c-.114-.16-.667-.126-.72.12a.424.424 0 0 0 .273.473c.24.047.567-.433.447-.593M84 135.147c-.187.106-.147.26-.08.406s.313.3.473.16q.144-.163.233-.36a.45.45 0 0 0-.626-.206m1.333 3.726a.24.24 0 0 0-.1.24c.04.08.207.1.3.087.094-.013.2-.153.154-.273s-.254-.08-.354-.054m2.347-5.319a.9.9 0 0 0-.933.186c-.167.2-.347.407-.127.667s.286.44.433.667a.38.38 0 0 0 .338.355.498.498 0 0 0 .501-.635 1.2 1.2 0 0 1 0-.5.67.67 0 0 0-.212-.74m4.24 4.692c-.053.047-.114.287 0 .36.113.074.28-.066.346-.126.067-.06.054-.194 0-.24a.33.33 0 0 0-.346.006"/><path fill="#E6EBF2" d="M85.466 131.287a.194.194 0 0 1-.271-.217.2.2 0 0 1 .078-.117.865.865 0 0 0-.286-1.166.96.96 0 0 0-.773-.06v-.04a.52.52 0 0 0-.545-.306.5.5 0 0 0-.21.072.58.58 0 0 0-.378.357.57.57 0 0 0 .066.517.77.77 0 0 0 .54.446c.03.169.122.319.26.42.208.096.442.122.666.074a.55.55 0 0 0 0 .353.43.43 0 0 0 .547.24.405.405 0 0 0 .306-.573M103.767 134a.61.61 0 0 0-.054-.813.5.5 0 0 0-.666.053.71.71 0 0 0 .173.873.4.4 0 0 0 .547-.113m-21.101 2.334c-.08 0-.26.2-.22.3s.294.12.367.086a.27.27 0 0 0 .14-.28.26.26 0 0 0-.287-.106m1.427-3.001a.45.45 0 0 0-.446-.259.4.4 0 0 0-.175.053c-.186.106-.146.26-.08.406a.3.3 0 0 0 .474.16q.143-.16.227-.36m6.013 1.934a1.085 1.085 0 0 0-1.333.567c-.113.36.333.566.593.493s.187 0 .387.187a.477.477 0 0 0 .66.097.47.47 0 0 0 .153-.191.933.933 0 0 0-.46-1.153m.507 1.326a.31.31 0 0 0-.14.26c0 .067.18.247.293.2s.087-.267.067-.36a.2.2 0 0 0-.092-.09.18.18 0 0 0-.128-.01m1.207-4.019a.45.45 0 0 0-.413-.291.5.5 0 0 0-.174.031.54.54 0 0 0-.28.6.44.44 0 0 0 .421.274.5.5 0 0 0 .172-.041.426.426 0 0 0 .273-.573Zm-3.874-1.28c-.067.093.047.313.113.353a.2.2 0 0 0 .073.037.2.2 0 0 0 .159-.018.21.21 0 0 0 .106-.206.2.2 0 0 0-.078-.14c-.06-.053-.32-.113-.373-.026m-.973 5.559a1.1 1.1 0 0 0-.214 1.453c.247.28.667 0 .727-.253s.087-.167.36-.233a.47.47 0 0 0 .392-.268.47.47 0 0 0-.045-.472.95.95 0 0 0-1.22-.227m26.62 4.327a.14.14 0 0 0-.009.098.14.14 0 0 0 .055.082c.04 0 .147 0 .16-.054.014-.053.034-.126 0-.16a.14.14 0 0 0-.052-.029.13.13 0 0 0-.114.018.1.1 0 0 0-.04.045m3.773-1.747a.46.46 0 0 0 .114.667.356.356 0 0 0 .456.049.36.36 0 0 0 .11-.122.44.44 0 0 0 .041-.503.47.47 0 0 0-.428-.218.47.47 0 0 0-.293.127m-2.1-5.807a.76.76 0 0 0-.048.872.74.74 0 0 0 .214.222.947.947 0 0 0 1.24-.2.994.994 0 0 0-.22-1.2.82.82 0 0 0-.661-.11.83.83 0 0 0-.525.416m-.453 7.487c-.053.04-.08.307 0 .353.08.047.28-.06.347-.126.067-.067 0-.227 0-.24a.35.35 0 0 0-.347.013m.98-4.193c-.093.133 0 .4.247.54a.247.247 0 0 0 .4-.08c.107-.18.153-.373-.047-.533a.48.48 0 0 0-.6.073m-1.88-1.353a.386.386 0 0 0 .06.533c.133.14.62 0 .667-.153a.53.53 0 0 0-.147-.44.35.35 0 0 0-.305-.118.35.35 0 0 0-.159.056.35.35 0 0 0-.116.122m-.24 3.513a.3.3 0 0 0 .093.306c.087.047.267.134.32 0a.3.3 0 0 0-.04-.313c-.046-.02-.32-.093-.373.007m9.874-8.354c-.067.094.046.314.113.354a.21.21 0 0 0 .154.044.21.21 0 0 0 .177-.15.22.22 0 0 0-.018-.159.2.2 0 0 0-.053-.062c-.06-.053-.307-.087-.373-.027m-10.121 9.161a.74.74 0 0 0-.76.113.47.47 0 0 0 .18.62.44.44 0 0 0 .51-.037.4.4 0 0 0 .11-.143c.147-.22.14-.44-.04-.553m-9.06-2.414c-.266-.186-.573-.086-.813.267a.5.5 0 0 0 .04.707.96.96 0 0 0 1-.1.584.584 0 0 0-.025-.717.6.6 0 0 0-.202-.157m22.927-7.433a.23.23 0 0 0-.26.04c-.047.067 0 .22.087.293.086.074.233.094.313 0 .08-.093-.1-.28-.14-.333m-4.867 4.4c-.066.134-.14.514 0 .58.14.067.447-.073.567-.166s.107-.34-.087-.5a.26.26 0 0 0-.268-.113.27.27 0 0 0-.212.199m-2.393-5.153a.51.51 0 0 0-.666.12.53.53 0 0 0 .16.666.42.42 0 0 0 .58-.12.467.467 0 0 0-.074-.666m1.3 1.246c-.18-.087-.38-.113-.46.087s-.133.56 0 .666c.134.107.474-.18.58-.306.107-.127.114-.314-.12-.447m-1.093 8.607c-.054.107-.094.34 0 .413a.42.42 0 0 0 .413-.04c.073-.066.147-.413.047-.486s-.42.04-.46.113m-1.234-8.313a.8.8 0 0 0-.926.366c-.194.307-.08.607.306.84a.624.624 0 0 0 .754-.153 1.08 1.08 0 0 0-.134-1.053m-11.6 5.733c-.4-.287-.84-.307-1.02-.047a.86.86 0 0 0 .234.967.78.78 0 0 0 .86-.213.57.57 0 0 0-.074-.707m.947 3.326a.45.45 0 0 0 .098-.353.45.45 0 0 0-.191-.313.504.504 0 0 0-.667.113.53.53 0 0 0 .153.667q.071.05.157.07a.435.435 0 0 0 .45-.184m-.507 4.248c-.093.093-.173.626 0 .766.174.14.627-.213.74-.373a.515.515 0 0 0-.106-.593c-.167-.134-.48.066-.634.2m-2.9-3.754a.45.45 0 0 0-.348-.111.45.45 0 0 0-.319.177.35.35 0 0 0-.116.297.36.36 0 0 0 .17.27.43.43 0 0 0 .525.087.4.4 0 0 0 .141-.127.44.44 0 0 0-.053-.593m3.647.76c-.18-.1-.373-.167-.533 0a.554.554 0 0 0 .187.666c.146 0 .3-.106.413-.226a.3.3 0 0 0 .069-.109.28.28 0 0 0-.136-.331m-3.113-2.234a.57.57 0 0 0 .24.727.61.61 0 0 0 .9-.147.62.62 0 0 0-.054-.82.9.9 0 0 0-1.086.24m-.62 4a.505.505 0 0 0 .087.667.49.49 0 0 0 .666-.14.53.53 0 0 0-.146-.667.41.41 0 0 0-.495.005.4.4 0 0 0-.112.135m5.98-5.36a.544.544 0 0 0-.667.18.665.665 0 0 0 .107.82.81.81 0 0 0 .946-.12c.107-.193-.086-.673-.386-.88m.533 5.454a.31.31 0 0 0 .1.347q.072.03.149.019a.3.3 0 0 0 .137-.059.29.29 0 0 0 0-.287c-.086-.053-.32-.14-.386-.02m1.293-10.333a.67.67 0 0 0-.053-.873c-.227-.26-.507-.24-.787.18a8 8 0 0 0-.187.96.41.41 0 0 0 .387.46.43.43 0 0 0 .487-.354q.051-.196.153-.373m.361 4.206c.113-.093.053-.527-.147-.667s-.293 0-.393.147a.3.3 0 0 0 .113.487c.147.073.314.126.427.033m-2.788-2.433c-.046-.533-.153-.72-.446-.747a.44.44 0 0 0-.48.274.515.515 0 0 0 .133.666c.313.16.553-.033.793-.193m-.68-2.853a.72.72 0 0 0 .833.047.99.99 0 0 0 .074-.927c-.667.073-1.334.147-2 .2.046.167.16.313.313.3a.78.78 0 0 1 .78.38m.741 4.013a.45.45 0 0 0-.393-.147.7.7 0 0 0-.367.407c-.067.353.26.38.527.5.246-.24.426-.474.233-.76m-17.32.033c-.214.073-.14.347-.08.42s.446.433.606.373.1-.526.04-.566-.347-.3-.567-.227ZM56.666 111.58c-.24.1-.153.667.18.947a.46.46 0 0 0 .607 0c.246-.2.38-.614.233-.807-.28-.387-.76-.247-1.02-.14m-.086 4.04a.75.75 0 0 0-.134.98.806.806 0 0 0 1 .047c.2-.167.153-.667-.073-.933a.55.55 0 0 0-.598-.197.6.6 0 0 0-.196.103Zm-.734-1.133c-.166-.12-.526 0-.666.1a.36.36 0 0 0 .046.54.29.29 0 0 0 .467-.06c.113-.12.307-.454.153-.58m2.627 5.113c-.12-.167-.38 0-.454.053-.073.053-.173.24-.053.367a.3.3 0 0 0 .183.066.3.3 0 0 0 .184-.066c.08-.02.26-.247.14-.42m-2.567 2.4a.27.27 0 0 0 0 .274.3.3 0 0 0 .3 0c.053-.054.166-.234 0-.36-.167-.127-.207.046-.3.086m-.219-4.747a.3.3 0 0 0 0 .174c.04.015.086.015.126 0 0-.054.087-.127.047-.18-.04-.054-.113.006-.173.006m4.866-.433a.57.57 0 0 0-.093.447c.053.12.466.26.613.12a.42.42 0 0 0 0-.593.32.32 0 0 0-.52.026m1.34-.946a.404.404 0 0 0 .072-.536.4.4 0 0 0-.145-.131c-.127-.047-.36.16-.534.273a.18.18 0 0 0-.1.116.18.18 0 0 0 .02.151.55.55 0 0 0 .687.127m-3.133 4.792c-.2.047-.447.507-.3.667.146.16.433.36.666 0s-.166-.74-.366-.667m2.873 2.754c-.087.093-.267.38-.067.573.2.194.427-.033.494-.113a.44.44 0 0 0 0-.407.29.29 0 0 0-.201-.126.3.3 0 0 0-.121.011.3.3 0 0 0-.105.062m.167-1.807c.073 0 .18-.173.133-.28s-.207-.133-.287-.107-.253.2-.213.3.293.12.366.087Zm.74-1.113a.1.1 0 0 0-.053.054c-.207 0-.667.366-.534.6a.45.45 0 0 0 .554.22c.147-.074.187-.34.153-.547h.074c.053 0 .206-.16.16-.28-.047-.12-.267-.073-.354-.047m-7.873-3.233c-.2.146-.054.513-.08.726l.126.074a.43.43 0 0 0 .474-.2.6.6 0 0 0 .16-.367c-.22-.067-.494-.373-.68-.233m5.473.733c-.167.06-.16.44 0 .56.12.054.25.079.38.073.253-.22.3-.486.133-.573a.66.66 0 0 0-.513-.06m-.047-2.667c-.16-.667-.786-.367-.733-.8s.427-.2.46-.82-.48-1.013-.86-.8-.353.607-.453.627-.567 0-.58.353c0 .733.666.587.666.807s-.1.666-.04.98c.087.466.42.84.9.666a.8.8 0 0 0 .546-.364.8.8 0 0 0 .094-.649m-11.227-8a.34.34 0 0 0-.092.409.34.34 0 0 0 .092.118.62.62 0 0 0 .8.167.72.72 0 0 0 .107-.82c-.194-.2-.614-.134-.907.126m6.52 5.827a.74.74 0 0 0-.06-.886.59.59 0 0 0-.667-.04c-.333.306-.433.733-.22.946a.81.81 0 0 0 .947-.02m-7.646-7.513a.67.67 0 0 0 0 .773.453.453 0 0 0 .666 0 .52.52 0 0 0 .067-.666.66.66 0 0 0-.733-.107m3.513-2.387a1.04 1.04 0 0 0-.593-.186c-.247-.087-.8.046-.887.26-.086.213.147.373.374.46a.9.9 0 0 0 .213.353c.26.253.573.213.887-.113a.67.67 0 0 0 .006-.774m-3.22 9.44a.22.22 0 0 0 0 .254c.06.066.22 0 .307 0s.14-.214.06-.314-.293.027-.367.06m-.393-13.113c-.154-.28-.234-.634-.594-.78l-.426.146a1.2 1.2 0 0 0-.354-.166.1.1 0 0 0 0-.047c-.053-.127-.266-.093-.306-.06l-.087.073a.3.3 0 0 0-.16.094.42.42 0 0 0 0 .526c.207.327.36.367.793.227q.38.215.78.387a.3.3 0 0 0 .354-.4m33.287 33.246a.63.63 0 0 0-.343.358.62.62 0 0 0 .03.495c.1.274.446.36.826.207a.44.44 0 0 0 .298-.23.45.45 0 0 0 .015-.377.97.97 0 0 0-.826-.453M49.96 105.247c-.133-.147-.28-.12-.434.04 0 .06-.033.166 0 .213a.97.97 0 0 1 .167.607c0 .1.22.246.347.26a.57.57 0 0 0 .407-.194.46.46 0 0 0-.04-.38 4.4 4.4 0 0 0-.447-.546m3.113 7.966c-.126-.166-.32-.073-.46.06-.14.134-.166.434 0 .514.167.08.427.253.574.04.146-.214-.014-.494-.114-.614m.574 1.033a.56.56 0 0 0-.427 0c-.167.094-.14.467.047.567a.8.8 0 0 0 .346.033c.214-.233.214-.513.034-.6m.679-4.579a1.026 1.026 0 0 0-1.273-.067c-.353.28-.32.833.067 1.287a.76.76 0 0 0 .513.272.76.76 0 0 0 .553-.179.994.994 0 0 0 .14-1.313m-3.313 7.82a.42.42 0 0 0-.164.333.42.42 0 0 0 .164.333.39.39 0 0 0 .281.149.4.4 0 0 0 .3-.109c.206-.206.28-.62.132-.766a.66.66 0 0 0-.713.06M51.16 114a.56.56 0 0 0-.067.713c.153.167.54.127.854-.153 0-.087 0-.274-.04-.387a.555.555 0 0 0-.747-.173m-.213-2.754a.7.7 0 0 0-.148.504.686.686 0 0 0 1.214.356.624.624 0 0 0 .094-.853.92.92 0 0 0-1.16-.007m-3.514 2.427c-.066.047-.18.28-.106.36.073.08.32 0 .373-.04a.21.21 0 0 0 .065-.222.2.2 0 0 0-.102-.122.2.2 0 0 0-.078-.023.2.2 0 0 0-.152.047M74 131.293a.3.3 0 0 0-.267.16c-.04.1.107.227.194.253.086.027.293-.04.326-.166.034-.127-.166-.247-.253-.247m2.113 1.127c-.066-.194-.513-.16-.753.1s.067.62.233.666c.167.047.587-.58.52-.766m.04-2.8c-.1-.18-.246-.293-.44-.227a2.67 2.67 0 0 0-1.286.814.8.8 0 0 0-.087.226.573.573 0 0 0 .793.667q.464-.158.867-.433a.92.92 0 0 0 .153-1.047m-3.253 3.447a.47.47 0 0 0 .446.393c.273-.04.433-.667.273-.773-.16-.107-.746.113-.72.38Zm-1.053 2.033c-.107.06-.374.273-.247.52s.413.107.507.053a.43.43 0 0 0 .16-.373.285.285 0 0 0-.29-.235.3.3 0 0 0-.13.035m1.486-5.88a.43.43 0 0 0 .193-.56.326.326 0 0 0-.5-.154.57.57 0 0 0-.226.394c-.02.133.32.433.533.32m-1.106.266c-.18 0-.3.367-.174.54.127.174.26.154.334.194.313-.127.447-.36.32-.5a.73.73 0 0 0-.48-.234m3.513 8.887a.36.36 0 0 0 .066.34.41.41 0 0 0 .42 0c.087-.106-.073-.386-.153-.426a.36.36 0 0 0-.333.086m3.766-3.746a.43.43 0 0 0 .32-.507.57.57 0 0 0-.267-.34c-.24-.113-.413 0-.666.447.146.213.246.513.613.4m-7.359-6.907a.8.8 0 0 0 .337-.023.81.81 0 0 0 .583-.757c.06-.667-.627-.607-.434-1 .194-.393.474-.047.707-.62s-.12-1.113-.553-1.04-.527.453-.627.447-.54-.187-.667.14c-.266.666.407.76.394.986-.014.227-.314.587-.367.92-.073.467.127.927.627.947m7.493 10.66a.97.97 0 0 0-.434 1.126.88.88 0 0 0 1.087.507 1.33 1.33 0 0 0 .493-1.273.88.88 0 0 0-1.147-.36Zm-.307-5.906a.49.49 0 0 0 .21-.609.486.486 0 0 0-.577-.285.48.48 0 0 0-.273.587.525.525 0 0 0 .64.307m-1.253-1.681a.46.46 0 0 0-.42.135.46.46 0 0 0-.12.425.62.62 0 0 0 .38.387.53.53 0 0 0 .453-.18.54.54 0 0 0 .033-.453.53.53 0 0 0-.327-.314Zm-2.04 4.187a.68.68 0 0 0-.394.353.67.67 0 0 0-.013.527 1.06 1.06 0 0 0 1.2.56.773.773 0 0 0 .347-.986.835.835 0 0 0-.809-.533.8.8 0 0 0-.331.079M63.773 126a.43.43 0 0 0-.236.255.42.42 0 0 0 .036.345.38.38 0 0 0 .216.234.4.4 0 0 0 .318-.007c.266-.12.473-.493.38-.667a.7.7 0 0 0-.714-.16m3.127 5.9a.3.3 0 0 0-.067.267.32.32 0 0 0 .287.107c.066 0 .233-.167.14-.334-.094-.166-.28-.08-.36-.04m.38-4.907c-.234.073-.22.46-.314.667q.05.054.093.113a.43.43 0 0 0 .514 0 .58.58 0 0 0 .266-.3c-.16-.14-.32-.553-.56-.48Zm-.333-1.627c.046-.126-.194-.333-.287-.346a.34.34 0 0 0-.28.206.37.37 0 0 0 .18.3.41.41 0 0 0 .386-.16Zm-2.174-5.886c-.126-.153-.54 0-.666.347-.127.347.266.567.446.573s.347-.76.22-.92m1.827 3.654c.12.113.28.246.44.133s.14-.467.086-.62a.2.2 0 0 0-.153-.14.78.78 0 0 0-.2-.527.85.85 0 0 0-.94-.238.85.85 0 0 0-.287.185.667.667 0 0 0-.14.887.42.42 0 0 0-.347-.047.56.56 0 0 0-.3.667c.094.2.467.293.86.133 0-.087.12-.253.087-.38a.5.5 0 0 0-.067-.14 1.15 1.15 0 0 0 .96.087Zm-2.52-5.254a.91.91 0 0 0-.187-1.053.36.36 0 0 0-.493-.067c-.43.293-.76.709-.947 1.194a.7.7 0 0 0 0 .24.582.582 0 0 0 .69.536.57.57 0 0 0 .29-.15q.367-.309.647-.7m5.566 8.187a.766.766 0 0 0-.447.886.8.8 0 0 0 .927.374c.24-.094.367-.58.24-.907a.56.56 0 0 0-.5-.385.6.6 0 0 0-.22.032m.407 5.459c-.207 0-.587.334-.513.56s.293.487.666.254c.373-.234.053-.787-.153-.814m-1.86-4.052s.107.08.12.066c.014-.013.12-.093.1-.153s-.093-.047-.146-.067a.5.5 0 0 0-.074.154m1.654 3.346c.093 0 .333-.167.28-.367-.054-.2-.36-.14-.447-.1s-.24.167-.173.327a.28.28 0 0 0 .34.14m1.419-6.907a.88.88 0 0 0-1.2.04.974.974 0 0 0-.04 1.207.88.88 0 0 0 .573.295.88.88 0 0 0 .62-.175 1.28 1.28 0 0 0 .047-1.367m-1.933-.58a.74.74 0 0 0 .233-.86.575.575 0 0 0-.62-.26c-.413.18-.666.547-.513.827a.81.81 0 0 0 .9.293m0 1.427c-.114-.173-.494-.167-.634-.113a.345.345 0 0 0-.192.38q.015.076.059.14.028.064.081.11a.29.29 0 0 0 .379-.01c.113-.087.413-.334.307-.507m105.246-49.873h-8.253v8.253h8.253zm19.087 19.087h-8.253v8.253h8.253zm-19.087 0h-8.253v8.253h8.253zm-19.08-19.087h-8.253v8.253h8.253zm0 19.087h-8.253v8.253h8.253zm-21.106-19.087h-8.253v8.253h8.253z"/><path fill="#1BA9F5" d="M105.439 32.813a42.666 42.666 0 1 0 0 85.333 42.666 42.666 0 0 0 0-85.332Zm0 69.394A26.75 26.75 0 0 1 79.2 70.232a26.753 26.753 0 1 1 50.956 15.465 26.74 26.74 0 0 1-24.717 16.51"/><path fill="#0A89DB" d="M133.935 93.105 123.47 103.57l27.143 27.144 10.465-10.465z"/><path fill="#0D90E0" d="M73.086 74.833a.48.48 0 0 0 .574-.393.58.58 0 0 0-.4-.6.75.75 0 0 0-.614.493c-.026.16.24.46.44.5m10.287-15.347c.147.054.234-.18.227-.226s-.033-.22-.173-.247a.15.15 0 0 0-.182.073.2.2 0 0 0-.018.067c-.007.093-.007.28.146.334Zm1-.493c.154-.2.307-.407.474-.6a.4.4 0 0 0-.147-.107c-.28-.086-.667.087-.667.32-.033.12.147.274.34.387M69.126 76.967a.465.465 0 0 0 .514-.427c.053-.28-.14-.666-.38-.666a.58.58 0 0 0-.667.433.55.55 0 0 0 .533.66m.327-7.981.22-.226h-.707c.143.11.31.188.487.226m-4.119 1.401a.43.43 0 0 0 .373-.053.9.9 0 0 0 .293-1 .433.433 0 0 0-.5-.327.74.74 0 0 0-.666.62q-.006.09 0 .18v.04q.225.293.5.54m1.852-1.627h-.407.054a.6.6 0 0 0 .353 0m-3.633 8.44a1.11 1.11 0 0 0 .473.847c.28.08.613-.2.707-.6s-.06-.574-.5-.667a.56.56 0 0 0-.68.42m5.294-3.427A.92.92 0 0 0 69 73.16c-.08-.207-.333-.34-.533-.533.106-.187.233-.42 0-.667-.62 0-.667.127-.387.667-.12.224-.2.468-.233.72.043.233.157.447.326.613.174.213.494.12.674-.187m-4.474-1.347a1.27 1.27 0 0 0 1.294.44c.326-.146.253-.586.34-.666.086-.08.593.233.986 0a1.07 1.07 0 0 0 .38-1.187 1.04 1.04 0 0 0-.5-.6.87.87 0 0 0-.953.167c-.207.26-.213.766-.333.82s-.6-.287-.98-.054a.76.76 0 0 0-.234 1.08m5.673 3.134a.6.6 0 0 0 .44-.213c.193-.34-.047-.553-.32-.753-.26.106-.553.206-.547.546a.406.406 0 0 0 .427.42m7.2-19.266c.273.073.593-.22.667-.614a.347.347 0 0 0-.287-.44c-.32-.093-.707.073-.76.313a.73.73 0 0 0 .38.74ZM75.24 58.62c-.08.16.1.547.306.667a.34.34 0 0 0 .473-.22c.14-.347.127-.62-.04-.707a.77.77 0 0 0-.74.26Zm1.366 2.713h.52a.78.78 0 0 0 .36-.447.54.54 0 0 0-.386-.54c-.46-.073-.8.067-.847.354a.77.77 0 0 0 .353.633m4.187-5.18a.407.407 0 0 0 .513-.28.367.367 0 0 0-.3-.44.334.334 0 0 0-.42.24.354.354 0 0 0 .207.48m-.713 1.18c-.334-.073-.567.107-.667.52s.12.567.526.667a.473.473 0 0 0 .587-.273.97.97 0 0 0-.447-.914Zm.22-3.953c.113-.074.086-.387.1-.594a.187.187 0 0 0-.167-.22.55.55 0 0 0-.52.467.406.406 0 0 0 .587.347m-1.134 3.42a.67.67 0 0 0 .667-.34.666.666 0 0 0-.447-.666.46.46 0 0 0-.513.393.52.52 0 0 0 .293.613m-1.673.36a.57.57 0 0 0-.226.38c0 .094.14.247.246.294q.325.13.667.2c.2.046.307-.054.34-.274-.033-.046-.06-.153-.12-.173a.97.97 0 0 1-.48-.413.47.47 0 0 0-.427-.014m-4.16 3.02c-.047-.28-.114-.553-.454-.513s-.373.3-.34.567a.508.508 0 0 0 .794-.054m3.613 14.947a.51.51 0 0 0 .58-.307.71.71 0 0 0-.326-.666.63.63 0 0 0-.614.373.467.467 0 0 0 .36.6m.454 1.74a.77.77 0 0 0 .88-.447c.06-.233-.388-.733-.668-.787a.627.627 0 0 0-.18 1.234zm-2.8-7.713v.12c-.073.186-.187.26-.36.12-.06-.054-.1-.134-.167-.18a.81.81 0 0 0-.906 0 .666.666 0 0 0-.307.826 1.16 1.16 0 0 0 .78.827q-.083.271-.113.553c0 .547.36.76.84.487a.613.613 0 0 0 .18-1.013 4 4 0 0 0-.42-.367c.186-.113.306-.253.426-.253a.58.58 0 0 0 .627-.594 1 1 0 0 1 .12-.273c.14-.307.107-.54-.093-.667h-.32a.6.6 0 0 0-.287.414m-2.32 3.286c-.34 0-.714-.106-.987.26a.77.77 0 0 1-.594.347.726.726 0 0 0-.606.666 1.78 1.78 0 0 0 .986.987c.34-.153.794-.34 1.24-.547.054 0 .08-.186.067-.273a.86.86 0 0 1 .173-.666c.2-.294.027-.76-.28-.774Zm2.233.42c-.293-.067-.573.227-.666.667a.59.59 0 0 0 .426.573.85.85 0 0 0 .74-.413.83.83 0 0 0-.5-.827M78 71.593a.84.84 0 0 0-1.027.527 1.33 1.33 0 0 0 .667 1.186.853.853 0 0 0 .946-.666.99.99 0 0 0-.586-1.047m-2.18 6.994c-.32-.067-.547.133-.667.56-.12.426.053.626.313.666a1.16 1.16 0 0 0 .9-.466.667.667 0 0 0-.546-.76m2.886-3.64q0-.668.06-1.334a.93.93 0 0 0-.327.54.84.84 0 0 0 .267.794m.167 3.587c0-.214-.047-.434-.067-.667-.06.087-.106.187-.147.247s.007.34.214.42M68.18 76a.67.67 0 0 0-.32-.44c-.374-.147-.487.207-.7.453.193.32.366.567.733.447a.374.374 0 0 0 .286-.46Zm8.793-6.366a.81.81 0 0 0-.927-.534.847.847 0 0 0 .547 1.58c.326-.066.453-.586.38-1.046m-11.94 6.626c-.06.22.093.58.293.593.314.071.643.026.927-.126.4-.287.426-.327.193-.84-.24 0-.433-.06-.627-.1a.73.73 0 0 0-.786.473M79.16 59.893c.04-.3-.293-.667-.666-.727s-.594.147-.667.594a.67.67 0 0 0 .42.666c.266.034.88-.3.913-.533M74.453 57.2a.74.74 0 0 0 .953-.594.786.786 0 0 0-.493-.92c-.354-.113-.827.26-.947.747a.606.606 0 0 0 .487.767m.447 3.767a.347.347 0 0 0-.387-.353c-.373 0-.626.12-.666.306a.62.62 0 0 0 .246.407h.594a.67.67 0 0 0 .213-.36"/><path fill="#0D90E0" d="M72.466 69.22a.62.62 0 0 0 .153-.46h-2.58c.094.373 0 .52-.42.393a.77.77 0 0 0-.933.373.78.78 0 0 0 0 .954.63.63 0 0 0 .9.213c.23-.135.425-.32.573-.54.127-.173.234-.3.454-.287.32 0 .426-.173.426-.466a.94.94 0 0 0 1.427-.18m-1.92 2.614a.54.54 0 0 0 .6.293.47.47 0 0 0 .454-.407c.04-.34-.454-.873-.667-.84a.99.99 0 0 0-.387.954m-.952-.048a.55.55 0 0 0-.614.354.71.71 0 0 0 .327.766.786.786 0 0 0 .9-.42c.06-.266-.207-.56-.613-.7m2.619-13.272c0-.254-.12-.374-.34-.42a.447.447 0 0 0-.554.34.394.394 0 0 0 .36.46.473.473 0 0 0 .534-.38m-4.46 18.399c-.32-.086-.54.227-.6.407s.287.533.667.433a.5.5 0 0 0 .287-.32.433.433 0 0 0-.354-.52m-.42-2.539c-.446-1.147-1.12-1.247-1.88-.334a1.6 1.6 0 0 1-.233-.073.494.494 0 0 0-.667.2.61.61 0 0 0 0 .707c.314.666.614.766 1.187.466.433-.22.88-.427 1.333-.666.534.84.667.866 1.187.32a.74.74 0 0 0-.927-.62m3.887-13.661a.38.38 0 0 0 .28.507.46.46 0 0 0 .58-.287.446.446 0 0 0-.36-.526.406.406 0 0 0-.5.306m8.893.621h.76a.33.33 0 0 0-.186-.154.44.44 0 0 0-.394.067c-.053.026-.12.047-.18.087m-12.587 24.16a.75.75 0 0 0-.847.426.52.52 0 0 0 .34.627.666.666 0 0 0 .747-.447.453.453 0 0 0-.24-.606m3.734-2.514a.83.83 0 0 0 .846-.533c.067-.26-.213-.607-.546-.667-.434-.093-.667 0-.767.347a.78.78 0 0 0 .466.853Zm.214 1.16c0-.147-.054-.527-.227-.554-.174-.026-.353.334-.38.467s.16.26.28.307.346-.014.326-.22Zm1.039 2.214c-.166 0-.586.073-.613.24s.313.393.46.473.393-.113.42-.327c.027-.213-.053-.393-.267-.386m-.98 4.52a.354.354 0 0 0-.207.44c.087.34.354.38.667.393.147-.266.36-.48.133-.74a.474.474 0 0 0-.593-.093m-2.14-7.541a1.11 1.11 0 0 0-1.18.62.89.89 0 0 0 .6.987.86.86 0 0 0 .58-1.607m1.219-5.186a.47.47 0 0 1-.133-.507.546.546 0 0 0-.513-.553c-.293 0-.373.153-.393.393.005.174-.03.348-.1.507-.2.32-.454.607-.667.927-.907-.254-1.18-.094-1.194.74a.62.62 0 0 0 .814.666 5.6 5.6 0 0 0 1-.546 1.1 1.1 0 0 0 1.22.1 1.147 1.147 0 0 0-.034-1.727M67.56 82.82q-.338.05-.667.14c-.447-.347-.887-.407-1.093-.147a.92.92 0 0 0 .166 1.1c.3.247.507.173 1.02-.413.247.18.48.393.754.093a.48.48 0 0 0 .073-.607c-.067-.08-.18-.173-.253-.166m1.606 4.327a.753.753 0 0 0-.78.62c-.073.386.16.666.607.74a.625.625 0 0 0 .793-.534.734.734 0 0 0-.62-.826M73 89.14c-.087 0-.28-.053-.34.087s.113.26.16.26a.37.37 0 0 0 .267-.12s-.04-.214-.087-.227m-3.86-7.806a.53.53 0 0 0-.14-.414.4.4 0 0 0-.354-.053c-.26.146-.253.38-.12.666.234.014.5.087.614-.2Zm3.867-1.26a.587.587 0 0 0-.447-.667.386.386 0 0 0-.467.273.49.49 0 0 0 .147.6.547.547 0 0 0 .767-.206m5.759 4.213a.666.666 0 0 0-.52-.667c-.32-.073-.533.04-.6.32a.79.79 0 0 0 .44.94.706.706 0 0 0 .68-.593m-.433-3.62c.1-.414-.213-.794-.746-.914a.667.667 0 0 0-.86.52.9.9 0 0 0 .666 1.04.92.92 0 0 0 .94-.646m-4.667 1.166c-.093.093-.293.207-.373.373-.08.167.126.514.406.554a.407.407 0 0 0 .46-.374.547.547 0 0 0-.493-.553m-.613-27.573a.93.93 0 0 0 .967-.667.67.67 0 0 0-1.333-.113.626.626 0 0 0 .367.78ZM76.82 88.7a.73.73 0 0 0-1.06 0 .67.67 0 0 0 .053.787.527.527 0 0 0 .707.16c.207-.1.666-.187.707-.527s-.287-.306-.407-.42m.96-19.94a.48.48 0 0 0 .046.3 1.39 1.39 0 0 0 1.48.72q.112-.514.24-1.02h-1.767Zm-2.994 12.906a.46.46 0 0 0 .547-.333.475.475 0 1 0-.934-.18.534.534 0 0 0 .387.513M76 83.42a.44.44 0 0 0-.38-.473c-.367-.047-.667.373-.667.52a.67.67 0 0 0 .667.453.446.446 0 0 0 .38-.5m-1.573-6.187-.04-.06q.126.14.293.227a.288.288 0 0 0 .433-.187.345.345 0 0 0-.22-.486.83.83 0 0 0-.44.086.413.413 0 0 0-.306-.473.473.473 0 0 0-.567.52c0 .32-.18.413-.373.593-.494-.506-.92-.473-1.227.06a1 1 0 0 0-.08.16c-.153.394-.047.62.353.734s.667.153.954-.327q.083.236.106.487a.434.434 0 0 0 .327.506.67.67 0 0 0 .727-.12c.64-.713.653-.993.06-1.72M74.98 86a.494.494 0 0 0-.528.306.57.57 0 0 0 .314.594.44.44 0 0 0 .513-.314.51.51 0 0 0-.3-.586Zm3.84 1.06a.41.41 0 0 0-.52.273.46.46 0 0 0 .3.527.388.388 0 0 0 .52-.266.48.48 0 0 0-.3-.534m-9.007-31.853a.56.56 0 0 0 .58-.34c.106-.44-.047-.847-.347-.907a.81.81 0 0 0-.78.547c-.06.24.26.653.547.7m-3.2 37.873a.27.27 0 0 0-.073-.16zM66 60.3c.146 0 .413 0 .466-.173s-.127-.38-.253-.493c-.127-.114-.287 0-.387.12l-.067.18a.28.28 0 0 0 .122.327.3.3 0 0 0 .118.04Zm1.166 1.033h.414q.14-.106.306-.167a.59.59 0 0 0 .467-.62c0-.333-.227-.666-.18-.793s.153-.333.393-.24.627-.047.794-.547c.166-.5-.274-1.04-.667-.926s-.4.353-.533.293c-.134-.06-.314-.327-.554-.227s-.253.874-.193.987.347.347.153.533-.526.234-.586.507-.227.913.126 1.187zm1.007-4.313c.46.16.76-.254.906-.474s-.266-.666-.666-.666a.447.447 0 0 0-.487.36c-.107.286.013.7.247.78m3.307-1.373a1 1 0 0 0 .62 1.167 1.03 1.03 0 0 0 1.1-.667c.127-.426-.2-.866-.78-1.026a.75.75 0 0 0-.94.526m-1.2.9a.48.48 0 0 0-.554.346.446.446 0 0 0 .347.494.393.393 0 0 0 .52-.287.426.426 0 0 0-.313-.553m.873-3.38c.207.073.313-.12.347-.307.033-.186-.1-.446-.294-.42s-.486 0-.493.287.293.393.44.44m-1.74 6.746a1 1 0 0 0 .727.973c.266.047.553-.226.613-.593s-.093-.667-.553-.753c-.36-.067-.734.106-.787.373m.687-7.247a.54.54 0 0 0 .36-.233c.086-.173-.147-.467-.354-.447a.74.74 0 0 0-.306.167c-.047.28.106.513.3.513M66.413 80.38q.2-.072.387-.174c.413-.2.553-.46.44-.806a.72.72 0 0 0-.907-.467 7.7 7.7 0 0 1-1.333.26c-.367 0-.78.307-.754.56a.55.55 0 0 0 .534.367c.32-.107.413.12.606.233.194.09.407.13.62.12a1 1 0 0 0 .407-.093m-2.16 5.16a.43.43 0 0 0-.24 0l.22.874a.43.43 0 0 0 .366-.347.514.514 0 0 0-.346-.527m.34-3.107a1 1 0 0 0-.534-.727c-.253-.066-.44.094-.513.447s0 .613.287.667c.386.093.706-.074.76-.387m2.467-1.98a.58.58 0 0 0-.667.3c-.133.447 0 .86.28.94a.77.77 0 0 0 .82-.48.67.67 0 0 0-.433-.76m-1.487 6.467a.14.14 0 0 0-.146.114c0 .04.073.126.106.126a.134.134 0 0 0 .14-.08.13.13 0 0 0-.052-.138.1.1 0 0 0-.048-.022m-2.106-11.1a.75.75 0 0 0-.214-.847.46.46 0 0 0-.446.054v1.293h.046a.8.8 0 0 0 .547-.107.294.294 0 0 0 .067-.393m-.134-3.554a.726.726 0 0 0-.174-.973.8.8 0 0 0 .214-.227.53.53 0 0 0 0-.546q.104.009.206 0a1 1 0 0 0 .767-1.12.34.34 0 0 0 .2 0 .393.393 0 0 0 .127-.567h-.54a.45.45 0 0 0-.107.293.67.67 0 0 0-.727-.106 42 42 0 0 0-.4 3.806c.14-.1.294-.233.434-.56"/><path fill="#294492" d="M33.566 123.433a1.64 1.64 0 0 1-1.433-.846 33 33 0 0 1-1.673-3.58 1.633 1.633 0 0 1 .92-2.114 1.63 1.63 0 0 1 1.77.385c.148.154.265.336.343.535a28 28 0 0 0 1.5 3.214 1.617 1.617 0 0 1-.619 2.196 1.6 1.6 0 0 1-.808.21m-3.44-10.826a1.624 1.624 0 0 1-1.613-1.454 29 29 0 0 1-.18-3.233v-.733A1.633 1.633 0 0 1 30 105.6a1.63 1.63 0 0 1 1.136.509 1.62 1.62 0 0 1 .444 1.164v.667q0 1.445.16 2.88a1.63 1.63 0 0 1-1.44 1.793zm1.127-11.274a1.62 1.62 0 0 1-1.623-1.503 1.6 1.6 0 0 1 .076-.63c.41-1.264.911-2.496 1.5-3.687a1.63 1.63 0 0 1 2.92 1.447 23.4 23.4 0 0 0-1.333 3.246 1.63 1.63 0 0 1-1.54 1.127m5.8-9.733a1.627 1.627 0 0 1-1.173-2.753 29 29 0 0 1 2.933-2.667 1.626 1.626 0 1 1 2 2.546 26 26 0 0 0-2.6 2.374 1.6 1.6 0 0 1-1.16.48zm9.333-6.433a1.626 1.626 0 0 1-.666-3.12 35 35 0 0 1 3.686-1.334 1.628 1.628 0 1 1 .96 3.114 31 31 0 0 0-3.333 1.233 1.7 1.7 0 0 1-.627.087zm33.88-2.667a1.627 1.627 0 1 1-.033-3.254c1.233 0 2.48-.066 3.707-.12a1.629 1.629 0 0 1 .153 3.254c-1.26.053-2.533.1-3.793.12zm-7.68 0h-.046q-1.86-.047-3.78-.14a1.628 1.628 0 1 1 .153-3.254q1.881.092 3.713.134a1.634 1.634 0 0 1-.04 3.26m-15.173-.107a1.627 1.627 0 0 1-.173-3.246 48 48 0 0 1 3.866-.267 1.6 1.6 0 0 1 1.68 1.58 1.626 1.626 0 0 1-1.58 1.673c-1.226.04-2.446.12-3.613.247zm34.26-.553a1.627 1.627 0 0 1-.16-3.247c1.233-.127 2.473-.273 3.673-.433a1.628 1.628 0 0 1 .427 3.227c-1.233.166-2.5.313-3.773.446zm11.333-1.707a1.63 1.63 0 0 1-1.617-1.462 1.627 1.627 0 0 1 1.291-1.758 95 95 0 0 0 3.6-.813 1.63 1.63 0 0 1 .773 3.166c-1.213.294-2.467.574-3.72.834a2 2 0 0 1-.34-.027zM114 77.107a1.628 1.628 0 0 1-1.399-2.462c.198-.331.507-.581.872-.705a72 72 0 0 0 3.44-1.273 1.63 1.63 0 0 1 1.207 3.026c-1.167.46-2.38.907-3.594 1.334a1.7 1.7 0 0 1-.526.08m10.473-4.547a1.634 1.634 0 0 1-.78-3.06 52 52 0 0 0 3.14-1.84 1.627 1.627 0 0 1 1.747 2.746 57 57 0 0 1-3.334 1.954 1.57 1.57 0 0 1-.746.2zm9.333-6.52a1.628 1.628 0 0 1-1.577-2.005 1.6 1.6 0 0 1 .491-.828c.9-.82 1.76-1.667 2.553-2.527a1.628 1.628 0 0 1 2.4 2.2c-.86.933-1.793 1.86-2.78 2.746a1.62 1.62 0 0 1-1.033.414zm7.167-8.834a1.628 1.628 0 0 1-1.427-2.413c.347-.666.667-1.28.967-1.92.193-.44.393-.88.593-1.333a1.64 1.64 0 0 1 1.536-.965 1.64 1.64 0 0 1 1.479 1.05 1.62 1.62 0 0 1-.035 1.248l-.606 1.334c-.334.726-.667 1.446-1.087 2.153a1.62 1.62 0 0 1-1.367.846zm-9.133-8.086a1.6 1.6 0 0 1-.607-.12 34 34 0 0 1-3.507-1.667 1.63 1.63 0 0 1-.895-1.61 1.63 1.63 0 0 1 1.182-1.413 1.63 1.63 0 0 1 1.26.163q1.573.856 3.233 1.527a1.628 1.628 0 0 1 .432 2.774 1.63 1.63 0 0 1-1.045.366zm13.586-2.453a1.62 1.62 0 0 1-1.619-1.509 1.6 1.6 0 0 1 .079-.632 53 53 0 0 0 1.027-3.493 1.629 1.629 0 0 1 2.977-.426c.22.371.283.815.176 1.233a52 52 0 0 1-1.093 3.713 1.63 1.63 0 0 1-1.547 1.114m-23.086-3.694a1.61 1.61 0 0 1-1.167-.493 19.5 19.5 0 0 1-2.533-3.2 1.627 1.627 0 1 1 2.753-1.74 16 16 0 0 0 2.113 2.666 1.625 1.625 0 0 1-1.166 2.76zm25.333-7.486h-.04a1.63 1.63 0 0 1-1.478-1.042 1.6 1.6 0 0 1-.109-.625v-.627a19 19 0 0 0-.2-2.833 1.63 1.63 0 0 1 .772-1.636 1.64 1.64 0 0 1 1.233-.183 1.63 1.63 0 0 1 1.215 1.339c.165 1.103.245 2.218.24 3.333v.713a1.626 1.626 0 0 1-1.66 1.56zm-30-2.667A1.63 1.63 0 0 1 116 31.333c0-.42-.04-.853-.04-1.28v-.107c.006-.91.077-1.82.213-2.72a1.62 1.62 0 0 1 .651-1.064 1.63 1.63 0 0 1 2.569 1.571 15 15 0 0 0-.18 2.233V30c0 .36 0 .706.04 1.053a1.633 1.633 0 0 1-1.513 1.74zm26.893-8.093a1.62 1.62 0 0 1-1.286-.627 13.3 13.3 0 0 0-2.367-2.34 1.64 1.64 0 0 1-.29-2.29 1.63 1.63 0 0 1 2.29-.29 16.6 16.6 0 0 1 2.953 2.92 1.63 1.63 0 0 1 .18 1.712 1.63 1.63 0 0 1-1.46.915zm-23.533-2.5a1.628 1.628 0 0 1-1.2-2.727 13.7 13.7 0 0 1 3.333-2.667 1.629 1.629 0 0 1 1.614 2.827 10.4 10.4 0 0 0-2.527 2 1.6 1.6 0 0 1-1.24.567zm14-3.467q-.214 0-.42-.06a15.2 15.2 0 0 0-3.333-.514 1.627 1.627 0 0 1-1.56-1.693 1.653 1.653 0 0 1 1.693-1.56c1.37.057 2.73.267 4.053.627a1.627 1.627 0 0 1-.42 3.2z"/><path fill="#1BA9F5" d="M139.447 49.727c-.62.433-8.36 5.033-15.687 6.246a26.738 26.738 0 0 1-9.68 44.8c.42 5.374.98 10.74 1.58 16.1a42.667 42.667 0 0 0 23.787-67.146"/><path fill="#0066B1" d="M133.333 107.814a.7.7 0 0 0 .047-.147c-.207.18-.4.36-.607.527a.605.605 0 0 0 .56-.38m4.574-1.901a1.09 1.09 0 0 0 1-.353.67.67 0 0 0-.294-.667c0-.226-.18-.366-.52-.44a.574.574 0 0 0-.666.42.96.96 0 0 0 .166.52.67.67 0 0 0 .314.52m1.28-1.393c.313.073.642.03.926-.12l.047-.04a.39.39 0 0 0 .38-.214.97.97 0 0 0-.307-.946.48.48 0 0 0-.39-.016.5.5 0 0 0-.167.109.5.5 0 0 0-.109.167.725.725 0 0 0-.667.473c-.073.213.087.573.287.587m-.521-1.187c0-.053-.04-.167-.093-.187a.83.83 0 0 1-.353-.393c-.154.18-.3.367-.46.547q.255.139.526.246c.154.1.274.014.38-.213m-1.293.38q-.099.118-.207.227a.6.6 0 0 0 .107-.04.3.3 0 0 0 .07-.083.3.3 0 0 0 .03-.104M137 107.7q.018.095.084.167a.33.33 0 0 0 .163.093c.106 0 .193-.154.186-.26-.006-.107-.113-.234-.226-.214a.22.22 0 0 0-.143.069.23.23 0 0 0-.064.145m.653 4.34c.066-.167.106-.354-.1-.467a.48.48 0 0 0-.362.006.48.48 0 0 0-.258.254c.08.107.153.293.293.38s.353.02.427-.173m-1.96-1.307c.16.105.35.154.54.14q.167.048.34.053c.06-.1.12-.193.167-.286q.085-.058.16-.127a2.8 2.8 0 0 0-.153-.56.666.666 0 0 0-.734-.387.74.74 0 0 0-.573.747.6.6 0 0 0 .083.236.6.6 0 0 0 .17.184m5.093-10.786-.26-.254-.193.28a.87.87 0 0 0 .453-.026m-10.653 10.28.106.113a.4.4 0 0 0 .074-.12 1 1 0 0 0 0-.133zm11.506-4.801a.5.5 0 0 0 .294-.326.42.42 0 0 0-.168-.445.4.4 0 0 0-.152-.069c-.32-.093-.54.22-.6.4s.28.534.626.44m-11.285 4.994.32.32a.395.395 0 0 0-.32-.32m8.099-.32a1.03 1.03 0 0 0-.54-.726.4.4 0 0 0-.194 0h-.04a.56.56 0 0 0-.273.426c-.087.394 0 .607.287.667.386.113.706-.053.76-.367m-1.827 2.247c.147-.033.407-.16.393-.287a.47.47 0 0 0-.28-.32c-.106 0-.433.114-.453.24-.02.127.273.38.34.367m7.034-1.014h-.08a.58.58 0 0 0-.327-.293 1.11 1.11 0 0 0-1.18.613.873.873 0 0 0 .6.987.86.86 0 0 0 1.013-.54 1 1 0 0 0 0-.447.14.14 0 0 0 .054-.053.17.17 0 0 0-.01-.225.2.2 0 0 0-.07-.042m-.667-2.34a.48.48 0 0 0-.134-.407.39.39 0 0 0-.36-.06c-.253.147-.253.38-.113.667.233.02.493.093.607-.2m-1.28 3.9a.416.416 0 0 0 .506.194c.207-.1.214-.254 0-.667a.4.4 0 0 0-.207-.007.4.4 0 0 0-.183.097.4.4 0 0 0-.11.176.4.4 0 0 0-.006.207m2.953-8.007a.6.6 0 0 0-.5 0 .57.57 0 0 0-.313-.133c-.287 0-.367.153-.387.393a2 2 0 0 1-.06.374.16.16 0 0 0-.038-.082.2.2 0 0 0-.075-.052.17.17 0 0 0-.187.047.2.2 0 0 0-.033.06c0 .093-.053.28.087.353h.06c-.167.24-.36.48-.554.727-.9-.253-1.173-.093-1.186.747a.62.62 0 0 0 .222.558.62.62 0 0 0 .591.108q.242-.08.46-.213c.247.187.473.48.86.467l.327-.314c.42.067.806-.046.873-.28a.4.4 0 0 0-.067-.386 1.21 1.21 0 0 0-.24-1.427.6.6 0 0 1-.126-.18.48.48 0 0 0 .346.1c.22-.1.174-.733-.06-.867m2.841 1.84h.08l-.4-.4a.4.4 0 0 0 .32.4m-.661-.726-.94-.934-.066.094a1 1 0 0 0-.074.166c-.153.387-.046.614.354.727a.78.78 0 0 0 .726-.053m.02 1.747a.59.59 0 0 0-.447-.7.37.37 0 0 0-.403.137.4.4 0 0 0-.063.136.48.48 0 0 0 .146.593q.093.062.202.082a.545.545 0 0 0 .565-.248m-6.319 1.586a.766.766 0 0 0 .813-.48.67.67 0 0 0-.446-.76.55.55 0 0 0-.48.107q.072-.139.1-.294l.12-.053c.42-.207.56-.467.446-.813a.72.72 0 0 0-.358-.419.72.72 0 0 0-.548-.048 8.4 8.4 0 0 1-1.334.267c-.36 0-.773.3-.746.553.026.253.42.407.533.367.287-.1.393.08.56.2a.5.5 0 0 0 0 .093.7.7 0 0 0 .553.507.6.6 0 0 0 .5-.147c-.126.467 0 .867.287.92m1.173-6.08c-.374-.147-.494.213-.7.453.193.32.366.567.733.447a.36.36 0 0 0 .242-.169.38.38 0 0 0 .045-.291.72.72 0 0 0-.32-.44m-.027-2.233c.043.233.157.447.327.613a.35.35 0 0 0 .48 0l-.794-.793a.4.4 0 0 0-.013.18m1.42 2.547a.57.57 0 0 0-.626.433.56.56 0 0 0 .275.6.6.6 0 0 0 .225.067.48.48 0 0 0 .513-.434c.053-.306-.167-.66-.387-.666m.786-.34a.6.6 0 0 0 .14 0l-.533-.534a.5.5 0 0 0 0 .14.405.405 0 0 0 .393.394"/><path fill="#0066B1" d="M134.973 107.933c-.16.367-.086.667.18.78a.9.9 0 0 0 .514-.053.98.98 0 0 0 .4.6c.4.207.92.153.973-.247a1.56 1.56 0 0 0-.293-1.013c-.14-.26-.507-.167-.374-.487.114-.255.144-.54.087-.813a.83.83 0 0 0 .633-.44.54.54 0 0 0-.293-.593c-.44-.154-.8-.074-.893.206a.66.66 0 0 0 .08.467.79.79 0 0 0-.754.453.9.9 0 0 0-.446-.42q-.52.5-1.06.98a.66.66 0 0 0 .506.5 1.14 1.14 0 0 0 .967-.526q.029.109.1.2a.66.66 0 0 0-.327.406m3.42-5.393c.313.666.613.766 1.186.466.434-.22.874-.426 1.334-.633.533.84.666.867 1.18.327a.67.67 0 0 0-.494-.614.3.3 0 0 0 .107-.14.35.35 0 0 0-.005-.291.35.35 0 0 0-.222-.189.3.3 0 0 0-.128-.033.33.33 0 0 0-.318.2c-.44-.747-1.034-.72-1.687.067a1.4 1.4 0 0 1-.22-.067q-.351.448-.713.887zm5.767 13.907a.61.61 0 0 0-.107-.727 2.7 2.7 0 0 0-.42-.353.5.5 0 0 0-.04-.094v-.233a.91.91 0 0 0-.58-.833 1.06 1.06 0 0 0-.534.019 1.06 1.06 0 0 0-.459.274.56.56 0 0 0-.14.38.81.81 0 0 0 .353.667c0 .326.2.573.607.633q.07.005.14 0v.107c0 .346.127.473.46.513a.666.666 0 0 0 .72-.353m2.213-2.447c-.167 0-.587.073-.614.24-.026.167.314.393.46.473s.394-.113.414-.326-.047-.387-.26-.387m1.147-4.5c-.094.093-.294.207-.367.373-.073.167.127.514.407.554a.4.4 0 0 0 .308-.09.42.42 0 0 0 .152-.284.557.557 0 0 0-.5-.553m-2.127 9.04a.35.35 0 0 0-.193.178.34.34 0 0 0-.013.262c.086.34.353.38.666.394.147-.26.36-.48.127-.74a.47.47 0 0 0-.587-.094m1.467-1.733c-.087 0-.28-.053-.347.087s.12.26.167.26a.36.36 0 0 0 .267-.12s-.04-.214-.087-.227M145.006 112c.153.06.347 0 .327-.22s-.06-.52-.227-.553-.36.333-.38.466c-.02.134.16.307.28.307m.327 2.707a.386.386 0 0 0 0-.667c-.353-.12-.573.287-.5.487a.42.42 0 0 0 .5.18m3.5-1.061a.485.485 0 0 0-.52.3.56.56 0 0 0 .307.594.436.436 0 0 0 .513-.314.486.486 0 0 0-.3-.58m3.793-1.693a.5.5 0 0 0 0-.174l-.513-.52c-.32-.066-.527.04-.593.32-.1.4.119.88.433.94a.7.7 0 0 0 .673-.566m.04 2.773a.413.413 0 0 0-.52.273.464.464 0 0 0 .456.555.4.4 0 0 0 .159-.042.39.39 0 0 0 .199-.253.476.476 0 0 0-.294-.533m-1.999 1.641a.75.75 0 0 0-.53-.226.73.73 0 0 0-.53.226.67.67 0 0 0-.103.402c.01.142.065.276.156.385a.52.52 0 0 0 .7.16c.213-.1.667-.187.707-.527s-.274-.307-.4-.42m-.801-5.28a.445.445 0 0 0-.387-.474.67.67 0 0 0-.667.52.67.67 0 0 0 .7.454.45.45 0 0 0 .274-.182.45.45 0 0 0 .08-.318m-4.746-.42a.83.83 0 0 0 .847-.534c.066-.26-.214-.606-.547-.666-.433-.094-.667 0-.767.346a.78.78 0 0 0 .467.854m3.546-1.334a.46.46 0 0 0 .54-.347.5.5 0 0 0-.413-.56.483.483 0 0 0-.52.38.52.52 0 0 0 .393.527m-9.78 7.8a.75.75 0 0 0-.627.04.43.43 0 0 0-.353-.3c-.314-.06-.447.2-.594.453.06.087.121.187.181.267l.093.087a.36.36 0 0 0 .373.06l.087-.054a.8.8 0 0 0 .113.227.21.21 0 0 0 .107.147.73.73 0 0 0 .326.246.4.4 0 0 0 .177.019.4.4 0 0 0 .169-.052.43.43 0 0 0 .214-.273.665.665 0 0 0-.266-.867m-1.093-1.679a.7.7 0 0 0 0-.167 1 1 0 0 0 .606-.433c.174-.267 0-.567-.04-.88a.6.6 0 0 0 .107-.207.48.48 0 0 0-.087-.353c-.033-.667-.613-.86-1.173-.86a.98.98 0 0 0-.593.206 1.3 1.3 0 0 0-.16.167.9.9 0 0 0-.487-.26c-.353-.067-.593.147-.667.593a.67.67 0 0 0 .427.667.9.9 0 0 0 .473-.107.79.79 0 0 0-.1.594 1.44 1.44 0 0 0 .874.886v.04c-.04.174.346.374.506.427s.3-.08.314-.313"/><path fill="#0066B1" d="M135.86 112.5a1.065 1.065 0 0 0-.294-1.26.81.81 0 0 0-1.06.194.758.758 0 0 0 .12 1.173.894.894 0 0 0 1.234-.107m-1.067-2.347a.84.84 0 0 0 .277-1.102.845.845 0 0 0-1.07-.384c-.313.113-.367.666-.227 1.093a.826.826 0 0 0 1.02.393m-.467 3.98a.6.6 0 0 0-.2.093l.973.974q.052-.194.054-.394a.82.82 0 0 0-.827-.673m-1.306-4.993a.75.75 0 0 0-.582.024.74.74 0 0 0-.385.436c-.14.36.187.88.667 1.06a.66.66 0 0 0 .52-.038.66.66 0 0 0 .333-.402c.173-.64.013-.78-.553-1.08M144 120.36c-.247-.14-.627.067-.813.44a.516.516 0 0 0 .22.627.67.67 0 0 0 .8-.2.75.75 0 0 0-.207-.867m-11.334-9.4a.75.75 0 0 0-.833.277.8.8 0 0 0-.127.283 1 1 0 0 0 0 .266l1.054 1.047c.226-.033.32-.207.413-.387q.1-.16.153-.34a.7.7 0 0 0 .08-.166c.1-.427-.2-.84-.74-.98m8.427 5.746a.83.83 0 0 0-.453-1 .58.58 0 0 0-.438.016.56.56 0 0 0-.295.324.85.85 0 0 0 .18.98.81.81 0 0 0 1.006-.32m-9.807-7.326a.5.5 0 0 0-.166.354c0 .133-.074.253 0 .386.073.134.293.094.406-.073a.74.74 0 0 0 .087-.54.22.22 0 0 0-.13-.149.22.22 0 0 0-.197.022m10.267 9.373a.7.7 0 0 0-.813.173.8.8 0 0 0 .326.94.724.724 0 0 0 .86-.36c.154-.306.027-.56-.373-.753m-.173-5.593a.75.75 0 0 0-.84.433.51.51 0 0 0 .333.62.67.67 0 0 0 .754-.447.45.45 0 0 0 .006-.356.45.45 0 0 0-.253-.25m-1.02-1.54a.4.4 0 0 0 .153-.054.43.43 0 0 0 .213-.286l.1-.114c.247.18.48.394.747.094a.475.475 0 0 0 .08-.607c-.053-.073-.16-.173-.233-.167l-.24.04a.48.48 0 0 0 .104-.348.5.5 0 0 0-.057-.177.44.44 0 0 0-.121-.141.7.7 0 0 0-.24-.135.67.67 0 0 0-.74.248.84.84 0 0 0-.173.373.44.44 0 0 0-.32.14.94.94 0 0 0 .167 1.1.4.4 0 0 0 .56.034m-1.167 2.86c-.193.174-.393.367-.26.667a.405.405 0 0 0 .392.262.4.4 0 0 0 .161-.042.55.55 0 0 0 .294-.38c0-.32-.267-.467-.587-.507"/><path fill="#294492" d="M175.172 25.74c1.935-2.095 2.189-5.01.566-6.509-1.623-1.498-4.508-1.014-6.444 1.082s-2.189 5.011-.566 6.51 4.508 1.014 6.444-1.082Z"/><path fill="#7DE2D1" d="M155.779 18.4c.8 2.207 6.88 2.633 9.067 2.72a1.41 1.41 0 0 0 1.213-.607l.267-.387a1.4 1.4 0 0 0 .133-1.333c-.853-2-3.426-7.54-5.766-7.5-2.134.04-3.827 2.62-3.827 2.62s-1.813 2.487-1.087 4.487"/><path fill="#7DE2D1" d="M159.213 12.053c-.246 2.327 5.034 5.38 6.96 6.407a1.43 1.43 0 0 0 1.334 0l.406-.233a1.4 1.4 0 0 0 .754-1.167c.106-2.187.22-8.28-1.907-9.273-1.933-.9-4.587.666-4.587.666s-2.74 1.48-2.96 3.6"/><path fill="#42D4C6" d="M160.666 11.274a3.2 3.2 0 0 0-1.406.38 3 3 0 0 0-.074.4c-.26 2.413 5.42 5.593 7.154 6.513-.907-2.167-3.38-7.333-5.674-7.293"/><path fill="#7DE2D1" d="M188.206 27.78c-.8-2.2-6.88-2.667-9.066-2.713a1.4 1.4 0 0 0-1.213.606l-.261.387a1.4 1.4 0 0 0-.14 1.333c.86 2 3.427 7.547 5.774 7.507 2.133-.04 3.826-2.62 3.826-2.62s1.807-2.493 1.08-4.5"/><path fill="#7DE2D1" d="M184.78 34.133c.247-2.333-5.04-5.38-6.967-6.413a1.4 1.4 0 0 0-1.333 0l-.407.226a1.4 1.4 0 0 0-.74 1.174c-.113 2.186-.22 8.286 1.907 9.273 1.933.9 4.587-.667 4.587-.667s2.726-1.473 2.953-3.593"/><path fill="#42D4C6" d="M177.619 27.62c.933 2.16 3.413 7.333 5.68 7.293.492-.02.974-.151 1.407-.386q.047-.195.073-.394c.253-2.413-5.447-5.6-7.16-6.513"/><path fill="#00BFB3" d="M57.106 44.174H.333v7.433h56.773z"/><path fill="#FF957D" d="M85.16 61.326H25.147v7.434H85.16z"/><path fill="#FA744E" d="M63.333 68.76h21.833v-7.427h-19.96a42 42 0 0 0-1.873 7.427"/><path fill="#294492" d="M153.753 43.7a1.624 1.624 0 0 1-1.59-2.016 1.6 1.6 0 0 1 .503-.831c.9-.787 1.833-1.627 2.767-2.487a1.632 1.632 0 0 1 2.206 2.4c-.96.88-1.906 1.734-2.826 2.534-.293.257-.67.4-1.06.4m8.353-7.82a1.62 1.62 0 0 1-1.503-1.007 1.62 1.62 0 0 1 .356-1.773c1.6-1.594 2.594-2.667 2.6-2.667a1.628 1.628 0 0 1 2.36 2.233c-.04.04-1.033 1.087-2.666 2.714a1.64 1.64 0 0 1-1.147.5"/><path fill="#F04E98" d="M54.22 21.241 41.506 33.955a3.807 3.807 0 0 0 0 5.383L54.22 52.052a3.807 3.807 0 0 0 5.383 0l12.714-12.714a3.807 3.807 0 0 0 0-5.383L59.603 21.24a3.807 3.807 0 0 0-5.383 0Z"/><path fill="#01ADA1" d="M31.247 47.473a.62.62 0 0 0-.367-.807c-.26-.126-.573.054-.74.42a.455.455 0 0 0 .193.667.97.97 0 0 0 .914-.28m-10.027 3.76c-.053.107.12.254.2.307a.18.18 0 0 0 .227-.08.29.29 0 0 0-.074-.287c-.053-.04-.3-.046-.353.06m2.36-4.853c.12.053.247-.133.293-.213a.23.23 0 0 0-.093-.24.45.45 0 0 0-.273.146c-.06.074-.04.254.073.307m2.453 3.88c-.26-.04-.52-.12-.773-.18a.38.38 0 0 0-.607.113.5.5 0 0 0 .194.667q.216.135.36.347a.73.73 0 0 0 .446.393h.287a.97.97 0 0 0 .473-.767c-.02-.246-.026-.52-.38-.573m1.18-2.694a.3.3 0 0 0-.453.214q.01.216.086.42a.46.46 0 0 0 .594-.28c.06-.207-.074-.294-.227-.354m5.713-.366a.46.46 0 0 0 .62-.193 1 1 0 0 0 0-.12.42.42 0 0 0 .267-.273.4.4 0 0 0-.14-.34.5.5 0 0 0-.414 0 .4.4 0 0 0-.093.113.52.52 0 0 0-.527.26.46.46 0 0 0 .287.553m-3.54 3.734a.426.426 0 0 0-.553.2.41.41 0 0 0 .04.473h.746a.4.4 0 0 0 .074-.107.45.45 0 0 0-.307-.566M29.2 49.02c.06-.207-.074-.287-.227-.354-.153-.066-.433 0-.453.214q.007.218.086.42a.447.447 0 0 0 .593-.28ZM27.186 46a.26.26 0 0 0 .094.3c.1.046.24-.054.28-.12.04-.067.046-.327-.054-.367s-.293.093-.32.187m-3.939 1.56c-.374-.04-.48.447-.354.667.127.22.054.173-.093.413s-.22.667.26.773a.934.934 0 0 0 1.033-.666 1.086 1.086 0 0 0-.846-1.187m20.326-.86c-.287-.667-.827-.273-.973-.447-.147-.173-.18-.633-.373-.913a.733.733 0 0 0-1.107-.253.807.807 0 0 0-.133 1.18.4.4 0 0 0-.04.073.88.88 0 0 0 .566.82.8.8 0 0 0 .4 0 .52.52 0 0 0 0 .507c.227.573.86.726 1.114.366.253-.36.073-.666.153-.753s.52-.26.393-.58m1.527.78a.6.6 0 0 0-.18 0 .48.48 0 0 0-.314-.374.72.72 0 0 0-.746.487.394.394 0 0 0 .32.493c.1.03.206.03.306 0a.53.53 0 0 0 .2.507c.427.233.787-.127.967-.32s-.146-.707-.553-.793m.607-2.86a.67.67 0 0 0-.754-.353c-.12 0-.233.04-.36.06l-.12-.153h-1.7c0 .04.06.08.094.113a.8.8 0 0 0 .14.247c-.134.46.133.706.5.907-.094.24-.32.466 0 .706a.42.42 0 0 0 .553 0c.3-.227.127-.486 0-.74l.353-.326.447.44q.248-.045.48-.14a.63.63 0 0 0 .22-.234.7.7 0 0 0 .207-.233.3.3 0 0 0-.06-.294m-10.994 2.353a.46.46 0 0 0 0-.773.63.63 0 0 0-.546 0 .52.52 0 0 0-.194.446.534.534 0 0 0 .74.327m6.267-2.206c.087-.14-.053-.486-.24-.593h-.22a.42.42 0 0 0-.253.393c.04.247.606.367.713.2m-2.76 2.813c-.127.36 0 .666.246.766a.91.91 0 0 0 1.014-.453.67.67 0 0 0-.454-.667.574.574 0 0 0-.806.354m-2.82-3.406h-.553c.046.133.1.24.16.267.06.026.326-.067.393-.267m3.12 2.833c.44-.567.707-.133 1.153-.433a.9.9 0 0 0 .16-.187.58.58 0 0 0-.533-.907c-.323.008-.644.06-.953.154a.9.9 0 0 0-.494.94c.034.206.274.606.667.433m.98-1.674a.32.32 0 0 0 .46-.233.6.6 0 0 0-.107-.447c-.093-.087-.533-.047-.607.14a.426.426 0 0 0 .254.54m-7.927.507c.26-.08.293-.294.18-.787-.253-.047-.54-.193-.727.14a.433.433 0 0 0 .12.587.5.5 0 0 0 .427.06m16.58 4.413a.447.447 0 0 0-.6.247.4.4 0 0 0 .287.513.46.46 0 0 0 .58-.293.36.36 0 0 0-.13-.405.4.4 0 0 0-.137-.062m-3.1-.573a.3.3 0 0 0-.1 0 .87.87 0 0 0-.467-.453.707.707 0 0 0-.773.533.4.4 0 0 0 0 .16 1.4 1.4 0 0 0-.094.56c.047.127.287.4.067.554-.22.153-.56.14-.667.406l-.04.094a.4.4 0 0 0-.173-.1.67.67 0 0 0-.487.146h1.914a.6.6 0 0 1 0-.326c.073-.154.213-.3.433-.167s.62.053.867-.42c.246-.473-.094-1.04-.48-.987m2.1 1.047c-.227-.06-.58.233-.627.52a.33.33 0 0 0 .16.36h.873a.27.27 0 0 0 .074-.127.74.74 0 0 0-.48-.753m-1.693.879h1.133a.95.95 0 0 0-.326-.2.666.666 0 0 0-.807.2m2.253-2.213c.12-.453-.114-.787-.667-.913a1.2 1.2 0 0 0-.36 0 .48.48 0 0 0-.447.227 1 1 0 0 0-.173.34.82.82 0 0 0 .74.953.834.834 0 0 0 .907-.607m3.9.321a.27.27 0 0 0 .227-.054l-1.073-1.073a1.1 1.1 0 0 0-.274.373.6.6 0 0 0 .354.834.71.71 0 0 0 .766-.08m-2.533 1.48a.474.474 0 0 0-.454.413h.893a.367.367 0 0 0-.44-.413Zm3.493-.794c-.4-.053-.893.033-1.04.267a.2.2 0 0 0-.04.113c.113.38-.187.52-.393.727a.5.5 0 0 0-.074.1h1.247a.43.43 0 0 1 .28-.2c.067.06.133.146.2.2h.58a1 1 0 0 0 .113-.04.25.25 0 0 0 .1-.22z"/><path fill="#01ADA1" d="M49.18 47.413a.8.8 0 0 0-.247-.08.7.7 0 0 0 .22 0 .6.6 0 0 0 .226-.113l-1.533-1.533c-.087.186-.16.346-.233.36-.074.013-.667-.487-1.187-.28a.94.94 0 0 0-.507 1.193 1.58 1.58 0 0 0 1.48.826c.427-.113.44-.666.56-.713s.474.254.887.287a.75.75 0 0 0-.667.426.9.9 0 0 0-.073.547.7.7 0 0 0-.113.24.975.975 0 0 0 .813 1.154.94.94 0 0 0 1.147-.714.75.75 0 0 0-.107-.666.99.99 0 0 0-.667-.934ZM42.14 50a.1.1 0 0 1 0-.04.5.5 0 0 0 .38-.38.46.46 0 0 0-.42-.493.43.43 0 0 0-.247 0 .83.83 0 0 0-.927.34.8.8 0 0 0-.32-.134.494.494 0 0 0-.667.294.95.95 0 0 0 .467.893.566.566 0 0 0 .667-.453q.1.088.22.146a.59.59 0 0 0 .846-.173Zm-6.06 1.606h.7a.8.8 0 0 0-.2-.147.374.374 0 0 0-.5.147m.36-2.379c.113-.293 0-.707-.213-.793a.86.86 0 0 0-.6.04.43.43 0 0 0-.26-.167.47.47 0 0 0-.514.26 1.57 1.57 0 0 0-.853-.12.67.67 0 0 1-.367-.067.586.586 0 0 0-.967.287.34.34 0 0 0-.14-.1.526.526 0 0 0-.553.38.54.54 0 0 0 .247.72.454.454 0 0 0 .573-.307.9.9 0 0 0 .413.187.88.88 0 0 1 .58.26.93.93 0 0 0 .894.22.81.81 0 0 0 .62-.667v-.086a.76.76 0 0 0 .407.406c.293.114.573-.073.733-.453m1.227-4.56a.58.58 0 0 0-1.054.053q-.176.36-.26.753a.11.11 0 0 0-.093-.093.14.14 0 0 0-.147.113c0 .04.074.12.107.127a.14.14 0 0 0 .1-.033.92.92 0 0 0 .607.927.36.36 0 0 0 .473-.147c.27-.443.397-.957.367-1.474a1 1 0 0 0-.1-.226m-2.054 6.539a.507.507 0 0 0-.666.287.3.3 0 0 0 0 .113h.94a.45.45 0 0 0-.274-.4m3.433-1.346A.813.813 0 0 0 38 51.074a.4.4 0 0 0-.093.18.53.53 0 0 0 0 .353h.76v-.04a.5.5 0 0 0 0-.193.95.95 0 0 0 .667-.534.76.76 0 0 0-.287-.98Zm3.407 1.513c.08-.187-.06-.4-.167-.533-.107-.134-.387 0-.473.16-.087.16 0 .42.153.466s.407.087.487-.093m-11.067-.566c-.353-.133-.746 0-.84.22a.79.79 0 0 0 .107.58h1.127a.574.574 0 0 0-.394-.8m8.527.8h.533a.6.6 0 0 0-.2-.094.4.4 0 0 0-.333.094m.087-2.78a.45.45 0 0 0-.267-.313c-.113 0-.433 0-.486.146-.054.147.2.367.313.434.113.066.44-.08.44-.267"/><path fill="#fff" d="M58.54 39.7h-3.66l-1.22-11.393h6.1zm.406 5.083a2.237 2.237 0 1 0-4.473 0 2.237 2.237 0 0 0 4.473 0"/></svg>