<svg width="250" height="161" viewBox="0 0 250 161" fill="none" xmlns="http://www.w3.org/2000/svg">
<rect x="21.1885" y="50.2542" width="60.4918" height="60.4918" rx="9.07377" fill="#F1F4FA"/>
<path d="M50.6128 95.2759V96.5H52.2559V95.2759C51.7301 95.4977 51.1386 95.4977 50.6128 95.2759Z" fill="white"/>
<path d="M52.2559 78.4255H50.6128V80.0687H52.2559V78.4255Z" fill="white"/>
<path d="M43.6788 66.9236C41.7317 68.156 37.4678 68.5668 37.4678 68.5668V77.604C37.4678 77.604 37.4678 77.8998 37.5089 78.4256H50.6128V64.5C47.8524 64.689 45.4452 65.8063 43.6788 66.9236Z" fill="#1E88E5"/>
<path d="M65.3599 78.4256C65.401 77.8998 65.401 77.604 65.401 77.604V68.5668C65.401 68.5668 61.1371 68.156 59.1982 66.9236C57.4318 65.7981 55.0164 64.689 52.2642 64.5V78.4256H65.3682H65.3599Z" fill="#1E88E5"/>
<path d="M37.7471 80.0686C38.47 83.7081 41.0744 90.5847 50.4814 95.2265C50.5224 95.2512 50.5717 95.2594 50.6128 95.2758V80.0686H37.7471Z" fill="#1E88E5"/>
<path d="M52.3873 95.2265C61.7943 90.5847 64.3986 83.7081 65.1216 80.0686H52.2559V95.2758C52.2969 95.2594 52.3462 95.2512 52.3873 95.2265Z" fill="#1E88E5"/>
<rect x="85.6802" y="41.1804" width="78.6393" height="78.6393" rx="11.7959" fill="#F1F4FA"/>
<path d="M126.889 83.7488C126.96 83.8931 127.175 83.8931 127.175 83.7488L132.174 70.62C132.388 69.9707 133.031 69.6101 133.673 69.6101H138.315C139.172 69.6101 139.958 70.3314 139.958 71.1971C139.958 71.4135 139.958 71.5577 139.886 71.7741L128.603 102.432C128.603 102.504 128.246 102.793 127.96 103.009C127.889 103.081 127.746 103.081 127.603 103.081C127.175 102.937 126.746 102.576 126.603 102.144L120.604 87.4999C120.39 87.0671 119.89 86.8506 119.462 87.0671C119.319 87.1392 119.105 87.2835 119.033 87.4999L111.463 102.721C111.392 102.793 111.32 102.865 111.249 102.793C111.178 102.793 111.178 102.721 111.178 102.721L99.3942 71.702C99.1086 70.8364 99.4656 69.8986 100.323 69.6101C100.537 69.5379 100.68 69.4658 100.894 69.4658H105.964C106.607 69.4658 107.25 69.8986 107.464 70.4757L112.463 83.6766C112.535 83.8209 112.749 83.8209 112.749 83.6766L119.033 69.8986C119.247 69.4658 119.747 69.2494 120.176 69.4658C120.39 69.5379 120.533 69.6822 120.604 69.8986L126.889 83.7488ZM147.005 57.0593C146.934 56.8429 146.577 56.8429 146.505 57.0593C146.22 58.502 145.577 60.6661 144.434 61.8203C143.292 62.9745 141.149 63.6237 139.721 63.9122C139.507 63.9844 139.507 64.345 139.721 64.4172C141.149 64.7057 143.292 65.355 144.434 66.5091C145.934 68.024 146.434 70.116 146.648 71.3423C146.648 71.4144 146.934 71.4144 146.934 71.3423C147.219 70.0438 147.791 67.7355 149.005 66.5091C150.147 65.355 152.29 64.7057 153.718 64.4172C153.932 64.345 153.932 63.9844 153.718 63.9122C152.29 63.6237 150.147 62.9745 149.005 61.8203C147.934 60.6661 147.291 58.502 147.005 57.0593Z" fill="#325FE8"/>
<rect x="168.32" y="50.2542" width="60.4918" height="60.4918" rx="9.07377" fill="#F1F4FA"/>
<path d="M214.5 63H182.5V95H214.5V63Z" fill="url(#paint0_linear_2745_18769)"/>
<path fill-rule="evenodd" clip-rule="evenodd" d="M200.168 79.498C200.168 79.5668 200.149 81.0336 198.968 81.3084V76.9144L200.168 77.4344V79.498ZM196.968 79.4916V77.4344L198.168 76.9144V81.3096C197.018 81.0456 196.97 79.6636 196.968 79.4916ZM200.727 76.8048L198.727 75.938C198.626 75.894 198.511 75.894 198.41 75.938L196.41 76.8048C196.263 76.868 196.168 77.0124 196.168 77.172V79.4916C196.168 80.4136 196.67 82.1568 198.568 82.1568C200.467 82.1568 200.968 80.4176 200.968 79.498V77.172C200.968 77.0124 200.874 76.868 200.727 76.8048ZM206.096 84.6696C205.386 84.6696 204.808 84.0916 204.808 83.3808C204.808 82.67 205.386 82.0916 206.096 82.0916C206.808 82.0916 207.386 82.67 207.386 83.3808C207.386 84.0916 206.808 84.6696 206.096 84.6696ZM198.607 82.9808C196.396 82.9808 194.598 81.1824 194.598 78.972C194.598 76.7612 196.396 74.9628 198.607 74.9628C200.818 74.9628 202.616 76.7612 202.616 78.972C202.616 81.1824 200.818 82.9808 198.607 82.9808ZM199.904 87.7236C199.904 88.4344 199.326 89.0128 198.614 89.0128C197.904 89.0128 197.326 88.4344 197.326 87.7236C197.326 87.0132 197.904 86.4349 198.614 86.4349C199.326 86.4349 199.904 87.0132 199.904 87.7236ZM197.35 69.8888C197.35 69.178 197.928 68.6 198.64 68.6C199.35 68.6 199.928 69.178 199.928 69.8888C199.928 70.5996 199.35 71.178 198.64 71.178C197.928 71.178 197.35 70.5996 197.35 69.8888ZM190.99 84.1824C190.278 84.1824 189.7 83.6044 189.7 82.8936C189.7 82.1828 190.278 81.6048 190.99 81.6048C191.7 81.6048 192.278 82.1828 192.278 82.8936C192.278 83.6044 191.7 84.1824 190.99 84.1824ZM191.428 75.748C190.718 75.748 190.14 75.17 190.14 74.4592C190.14 73.7484 190.718 73.17 191.428 73.17C192.139 73.17 192.717 73.7484 192.717 74.4592C192.717 75.17 192.139 75.748 191.428 75.748ZM206.147 72.8532C206.858 72.8532 207.436 73.4312 207.436 74.142C207.436 74.8528 206.858 75.4312 206.147 75.4312C205.437 75.4312 204.859 74.8528 204.859 74.142C204.859 73.4312 205.437 72.8532 206.147 72.8532ZM206.096 81.2916C205.518 81.2916 204.994 81.5284 204.616 81.9092L203.03 80.858C203.278 80.2784 203.416 79.6412 203.416 78.972C203.416 78.0964 203.177 77.2776 202.767 76.57L204.582 75.5104C204.965 75.9484 205.521 76.2312 206.147 76.2312C207.299 76.2312 208.236 75.294 208.236 74.142C208.236 72.99 207.299 72.0532 206.147 72.0532C204.996 72.0532 204.059 72.99 204.059 74.142C204.059 74.38 204.107 74.6052 204.181 74.8184L202.312 75.9092C201.509 74.94 200.333 74.2932 199.007 74.1832V71.9408C199.983 71.766 200.728 70.9148 200.728 69.8888C200.728 68.7372 199.791 67.8 198.64 67.8C197.488 67.8 196.55 68.7372 196.55 69.8888C196.55 70.8924 197.262 71.7316 198.207 71.9316V74.1832C196.787 74.3008 195.544 75.038 194.742 76.1228L193.367 75.2264C193.461 74.9884 193.517 74.7308 193.517 74.4592C193.517 73.3072 192.58 72.37 191.428 72.37C190.277 72.37 189.34 73.3072 189.34 74.4592C189.34 75.6112 190.277 76.548 191.428 76.548C192.021 76.548 192.554 76.2976 192.934 75.8996L194.321 76.8036C193.989 77.456 193.798 78.1912 193.798 78.972C193.798 79.5664 193.912 80.1336 194.11 80.66L192.566 81.5384C192.182 81.0932 191.622 80.8048 190.99 80.8048C189.838 80.8048 188.9 81.7416 188.9 82.8936C188.9 84.0457 189.838 84.9825 190.99 84.9825C192.141 84.9825 193.078 84.0457 193.078 82.8936C193.078 82.6616 193.031 82.4424 192.961 82.2336L194.454 81.3844C195.226 82.708 196.608 83.6304 198.214 83.7608V85.6752C197.254 85.8624 196.526 86.7088 196.526 87.7236C196.526 88.8756 197.462 89.8128 198.614 89.8128C199.766 89.8128 200.704 88.8756 200.704 87.7236C200.704 86.7088 199.976 85.8624 199.014 85.6752V83.76C200.54 83.6312 201.863 82.7884 202.65 81.566L204.17 82.5736C204.066 82.822 204.008 83.0948 204.008 83.3808C204.008 84.5324 204.944 85.4696 206.096 85.4696C207.248 85.4696 208.186 84.5324 208.186 83.3808C208.186 82.2288 207.248 81.2916 206.096 81.2916Z" fill="white"/>
<defs>
<linearGradient id="paint0_linear_2745_18769" x1="182.5" y1="3263" x2="3382.5" y2="63" gradientUnits="userSpaceOnUse">
<stop stop-color="#BD0816"/>
<stop offset="1" stop-color="#FF5252"/>
</linearGradient>
</defs>
</svg>
