<svg width="324" height="208" viewBox="0 0 324 208" fill="none" xmlns="http://www.w3.org/2000/svg">
<rect x="27.8813" y="65" width="78" height="78" rx="11.5153" fill="#343741"/>
<path d="M55.2477 84.5536C52.3271 86.4022 45.9312 87.0183 45.9312 87.0183V100.574C45.9312 100.574 45.9312 101.018 45.9928 101.807H65.6488V80.9182C61.5081 81.2017 57.8973 82.8776 55.2477 84.5536Z" fill="#1E88E5"/>
<path d="M87.7697 101.807C87.8313 101.018 87.8313 100.574 87.8313 100.574V87.0183C87.8313 87.0183 81.4354 86.4022 78.527 84.5536C75.8775 82.8653 72.2544 81.2017 68.126 80.9182V101.807H87.782H87.7697Z" fill="#1E88E5"/>
<path d="M46.3501 104.271C47.4346 109.73 51.3411 120.045 65.4516 127.008C65.5132 127.045 65.5871 127.057 65.6487 127.082V104.271H46.3501Z" fill="#1E88E5"/>
<path d="M68.3105 127.008C82.4209 120.045 86.3274 109.73 87.4119 104.271H68.1133V127.082C68.1749 127.057 68.2488 127.045 68.3105 127.008Z" fill="#1E88E5"/>
<rect x="110.958" y="52.9578" width="102.085" height="102.085" rx="15.3127" fill="#343741"/>
<g clip-path="url(#clip0_2947_30694)">
<path d="M163.836 107.652C163.916 107.811 164.155 107.811 164.155 107.652L169.742 93.1539C169.982 92.437 170.7 92.0387 171.418 92.0387H176.606C177.564 92.0387 178.442 92.8353 178.442 93.7912C178.442 94.0301 178.442 94.1894 178.362 94.4284L165.752 128.283C165.752 128.363 165.353 128.681 165.033 128.92C164.954 129 164.794 129 164.634 129C164.155 128.841 163.676 128.442 163.517 127.964L156.813 111.794C156.573 111.316 156.014 111.077 155.536 111.316C155.376 111.396 155.137 111.555 155.057 111.794L146.597 128.602C146.517 128.681 146.437 128.761 146.357 128.681C146.277 128.681 146.277 128.602 146.277 128.602L133.108 94.3488C132.789 93.3929 133.188 92.3573 134.146 92.0387C134.385 91.959 134.545 91.8794 134.784 91.8794H140.451C141.169 91.8794 141.888 92.3573 142.127 92.9946L147.714 107.572C147.794 107.731 148.033 107.731 148.033 107.572L155.057 92.3573C155.296 91.8794 155.855 91.6404 156.334 91.8794C156.573 91.959 156.733 92.1183 156.813 92.3573L163.836 107.652ZM186.318 78.1792C186.238 77.9403 185.839 77.9403 185.759 78.1792C185.44 79.7724 184.722 82.1621 183.445 83.4367C182.168 84.7112 179.773 85.4281 178.177 85.7467C177.938 85.8264 177.938 86.2247 178.177 86.3043C179.773 86.623 182.168 87.3399 183.445 88.6144C185.121 90.2872 185.68 92.5973 185.919 93.9515C185.919 94.0312 186.238 94.0312 186.238 93.9515C186.557 92.5177 187.196 89.9686 188.553 88.6144C189.83 87.3399 192.224 86.623 193.82 86.3043C194.06 86.2247 194.06 85.8264 193.82 85.7467C192.224 85.4281 189.83 84.7112 188.553 83.4367C187.356 82.1621 186.637 79.7724 186.318 78.1792Z" fill="#325FE8"/>
</g>
<rect x="218.119" y="65" width="78" height="78" rx="11.5153" fill="#343741"/>
<g clip-path="url(#clip1_2947_30694)">
<path d="M277.37 84H238.494V122.876H277.37V84Z" fill="url(#paint0_linear_2947_30694)"/>
<path fill-rule="evenodd" clip-rule="evenodd" d="M259.958 104.043C259.958 104.127 259.935 105.909 258.5 106.242V100.904L259.958 101.536V104.043ZM256.071 104.035V101.536L257.529 100.904V106.244C256.131 105.923 256.072 104.244 256.071 104.035ZM260.637 100.771L258.207 99.718C258.084 99.6645 257.945 99.6645 257.822 99.718L255.392 100.771C255.213 100.848 255.099 101.023 255.099 101.217V104.035C255.099 105.155 255.708 107.273 258.014 107.273C260.321 107.273 260.93 105.16 260.93 104.043V101.217C260.93 101.023 260.816 100.848 260.637 100.771ZM267.16 110.326C266.297 110.326 265.594 109.624 265.594 108.76C265.594 107.897 266.297 107.194 267.16 107.194C268.024 107.194 268.726 107.897 268.726 108.76C268.726 109.624 268.024 110.326 267.16 110.326ZM258.062 108.274C255.376 108.274 253.191 106.089 253.191 103.404C253.191 100.718 255.376 98.5332 258.062 98.5332C260.747 98.5332 262.932 100.718 262.932 103.404C262.932 106.089 260.747 108.274 258.062 108.274ZM259.637 114.036C259.637 114.9 258.934 115.602 258.07 115.602C257.207 115.602 256.505 114.9 256.505 114.036C256.505 113.173 257.207 112.47 258.07 112.47C258.934 112.47 259.637 113.173 259.637 114.036ZM256.535 92.3689C256.535 91.5054 257.237 90.8032 258.101 90.8032C258.964 90.8032 259.666 91.5054 259.666 92.3689C259.666 93.2325 258.964 93.9352 258.101 93.9352C257.237 93.9352 256.535 93.2325 256.535 92.3689ZM248.807 109.734C247.943 109.734 247.241 109.032 247.241 108.168C247.241 107.305 247.943 106.602 248.807 106.602C249.67 106.602 250.372 107.305 250.372 108.168C250.372 109.032 249.67 109.734 248.807 109.734ZM249.34 99.4872C248.477 99.4872 247.775 98.785 247.775 97.9214C247.775 97.0579 248.477 96.3552 249.34 96.3552C250.204 96.3552 250.906 97.0579 250.906 97.9214C250.906 98.785 250.204 99.4872 249.34 99.4872ZM267.222 95.9703C268.086 95.9703 268.788 96.6725 268.788 97.5361C268.788 98.3996 268.086 99.1023 267.222 99.1023C266.359 99.1023 265.657 98.3996 265.657 97.5361C265.657 96.6725 266.359 95.9703 267.222 95.9703ZM267.16 106.222C266.458 106.222 265.821 106.51 265.362 106.972L263.434 105.695C263.736 104.991 263.904 104.217 263.904 103.404C263.904 102.34 263.613 101.345 263.115 100.486L265.32 99.1985C265.786 99.7306 266.461 100.074 267.222 100.074C268.621 100.074 269.76 98.9356 269.76 97.5361C269.76 96.1365 268.621 94.9984 267.222 94.9984C265.823 94.9984 264.685 96.1365 264.685 97.5361C264.685 97.8252 264.743 98.0988 264.833 98.3578L262.562 99.683C261.587 98.5055 260.159 97.7198 258.548 97.5861V94.8619C259.733 94.6495 260.638 93.6154 260.638 92.3689C260.638 90.9699 259.5 89.8313 258.101 89.8313C256.701 89.8313 255.563 90.9699 255.563 92.3689C255.563 93.5882 256.427 94.6077 257.576 94.8507V97.5861C255.851 97.729 254.34 98.6246 253.366 99.9425L251.695 98.8535C251.81 98.5643 251.878 98.2514 251.878 97.9214C251.878 96.5219 250.739 95.3833 249.34 95.3833C247.941 95.3833 246.803 96.5219 246.803 97.9214C246.803 99.321 247.941 100.459 249.34 100.459C250.06 100.459 250.708 100.155 251.17 99.6713L252.854 100.77C252.451 101.562 252.219 102.455 252.219 103.404C252.219 104.126 252.357 104.815 252.598 105.455L250.722 106.522C250.256 105.981 249.575 105.631 248.807 105.631C247.408 105.631 246.269 106.769 246.269 108.168C246.269 109.568 247.408 110.706 248.807 110.706C250.206 110.706 251.344 109.568 251.344 108.168C251.344 107.886 251.287 107.62 251.202 107.366L253.016 106.335C253.953 107.943 255.633 109.063 257.584 109.222V111.548C256.417 111.775 255.533 112.803 255.533 114.036C255.533 115.436 256.671 116.574 258.07 116.574C259.47 116.574 260.608 115.436 260.608 114.036C260.608 112.803 259.724 111.775 258.556 111.548V109.221C260.41 109.064 262.017 108.04 262.973 106.555L264.82 107.779C264.693 108.081 264.622 108.413 264.622 108.76C264.622 110.159 265.761 111.298 267.16 111.298C268.56 111.298 269.698 110.159 269.698 108.76C269.698 107.361 268.56 106.222 267.16 106.222Z" fill="white"/>
</g>
<defs>
<linearGradient id="paint0_linear_2947_30694" x1="238.494" y1="3971.61" x2="4126.11" y2="84" gradientUnits="userSpaceOnUse">
<stop stop-color="#BD0816"/>
<stop offset="1" stop-color="#FF5252"/>
</linearGradient>
<clipPath id="clip0_2947_30694">
<rect width="63.9999" height="63.9999" fill="white" transform="translate(130 72)"/>
</clipPath>
<clipPath id="clip1_2947_30694">
<rect width="40" height="48" fill="white" transform="matrix(-1 0 0 1 277.119 80)"/>
</clipPath>
</defs>
</svg>
