<svg xmlns="http://www.w3.org/2000/svg" width="376" height="209" fill="none" viewBox="0 0 324 209"><rect width="78" height="78" x="27.765" y="65" fill="#F1F4FA" rx="11.779"/><g clip-path="url(#a)"><mask id="b" width="67" height="66" x="32" y="81" maskUnits="userSpaceOnUse" style="mask-type:luminance"><path fill="#fff" d="M32.442 81.285h65.88v65.426h-65.88z"/></mask><g fill="#98A2B3" mask="url(#b)"><path d="M71.523 112.444V90.805l11.506 21.639zM71.517 90.804l-11.505 21.639h11.505v15.574l-23.782-23.366 23.782-23.367z"/></g></g><rect width="102.085" height="102.085" x="110.958" y="52.958" fill="#F1F4FA" rx="15.313"/><path fill="#325FE8" d="M164.146 107.69c.081.164.324.164.324 0l5.678-14.912c.244-.738.974-1.147 1.704-1.147h5.272c.974 0 1.866.82 1.866 1.802 0 .246 0 .41-.081.656l-12.817 34.823c0 .082-.405.41-.73.656-.081.082-.243.082-.405.082-.487-.164-.974-.574-1.136-1.065l-6.814-16.634c-.243-.491-.811-.737-1.298-.491-.162.082-.405.245-.486.491l-8.599 17.289c-.081.082-.162.164-.243.082-.081 0-.081-.082-.081-.082l-13.385-35.233c-.324-.983.081-2.049 1.055-2.376.243-.082.405-.164.649-.164h5.759c.73 0 1.46.491 1.704 1.147l5.678 14.995c.081.163.324.163.324 0l7.139-15.65c.243-.492.811-.738 1.297-.492a.73.73 0 0 1 .487.491zm22.849-30.315c-.081-.246-.487-.246-.568 0-.324 1.638-1.054 4.097-2.352 5.407-1.298 1.312-3.732 2.049-5.354 2.377-.243.082-.243.491 0 .573 1.622.328 4.056 1.066 5.354 2.377 1.703 1.72 2.271 4.096 2.515 5.49 0 .081.324.081.324 0 .324-1.476.973-4.098 2.352-5.49 1.298-1.311 3.732-2.049 5.354-2.377.244-.082.244-.491 0-.573-1.622-.328-4.056-1.065-5.354-2.377-1.216-1.31-1.946-3.769-2.271-5.407"/><rect width="78" height="78" x="218.235" y="65" fill="#F1F4FA" rx="11.779"/><g fill="#98A2B3" clip-path="url(#c)"><path d="M260.18 80.442h-6.341v37.913h6.341z"/><path fill-rule="evenodd" d="m261.716 127.498 6.336-3.926V90.748a15.8 15.8 0 0 0-6.336-2.808zM245.947 123.592l6.341 3.926V87.96a15.8 15.8 0 0 0-6.341 2.788zM269.588 82.5v40.643l2.945-1.826a7.508 7.508 0 0 0 3.382-6.38V95.742c.014-5.536-6.327-13.241-6.327-13.241M238.094 114.665a7.5 7.5 0 0 0 3.382 6.38l2.944 1.826V82.243s-6.326 7.706-6.326 13.242z" clip-rule="evenodd"/></g><defs><clipPath id="a"><path fill="#fff" d="M46.56 81.283h37.645v46.733H46.56z"/></clipPath><clipPath id="c"><path fill="#fff" d="M233.677 80.442h47.116v47.116h-47.116z"/></clipPath></defs></svg>