<svg xmlns="http://www.w3.org/2000/svg" width="376" height="209" fill="none" viewBox="0 0 324 209"><rect width="78" height="78" x="27.881" y="65" fill="#F1F4FA" rx="11.515"/><path fill="#98A2B3" d="M86.542 86.04c.156.547.663 2.538 1.17 4.413l3.984 14.877c.507 1.874 1.054 3.865 1.171 4.412a2.41 2.41 0 0 1-.625 2.265l-3.24 3.241-10.856 10.855c-1.366 1.445-2.772 2.889-3.24 3.241-.625.546-1.484.781-2.265.625l-4.413-1.172-14.877-3.983-4.412-1.171a2.44 2.44 0 0 1-1.054-.625c-.313-.273-.508-.664-.625-1.054-.156-.547-.664-2.538-1.172-4.412l-3.982-14.878-1.172-4.412.586-.195.586-.156c.156.546.663 2.538 1.171 4.412l3.983 14.916c.508 1.874 1.054 3.866 1.171 4.412.078.196.196.352.313.508.156.156.312.273.507.312l4.413 1.172 14.877 3.983 4.412 1.171c.39.078.82-.039 1.132-.312l3.241-3.241 10.895-10.894 3.24-3.241c.274-.313.352-.742.313-1.133-.156-.546-.664-2.538-1.172-4.412l-4.021-14.799c-.508-1.874-1.055-3.866-1.172-4.412-.078-.196-.195-.352-.312-.508-.156-.156-.313-.273-.508-.312l-4.412-1.21-14.838-3.984-4.452-1.171c-.39-.078-.82.039-1.132.312l-3.24 3.241L45.62 93.615l-3.241 3.241c-.273.313-.39.742-.312 1.133l-.586.117-.586.156a2.41 2.41 0 0 1 .625-2.265l3.24-3.24L55.656 81.9l3.241-3.24c.625-.586 1.484-.782 2.265-.625l4.412 1.171L80.45 83.19l4.412 1.171c.391.117.742.352 1.055.625.312.312.507.664.624 1.054"/><path fill="#98A2B3" d="m67.877 82.097 3.24 1.874 11.012 6.364 3.28 1.875c.586.351.937.976.976 1.679v20.226c-.039.703-.39 1.328-.976 1.679l-3.24 1.875-11.051 6.364-3.241 1.875a2.1 2.1 0 0 1-.976.234c-.352 0-.664-.078-.977-.234l-3.24-1.875-11.05-6.364-3.242-1.875.234-.429.235-.43 3.24 1.875 11.012 6.364 3.28 1.875q.234.117.469.117c.156 0 .351-.039.507-.117l3.241-1.875 11.011-6.364 3.242-1.875c.273-.195.468-.507.546-.859V93.85c-.039-.352-.234-.664-.508-.82l-3.24-1.874-11.012-6.365-3.24-1.874a1.1 1.1 0 0 0-.508-.118c-.156 0-.352.04-.469.117l-3.28 1.875-11.011 6.365L48.9 93.03a1.23 1.23 0 0 0-.508.859v20.226c.04.352.195.625.508.859l-.234.43-.235.429c-.585-.351-.937-.976-.976-1.679V93.928c.04-.703.39-1.328.976-1.68l3.241-1.874 11.05-6.364 3.241-1.875c.313-.156.625-.234.977-.234.312-.039.663.04.937.196"/><path fill="#98A2B3" d="m53.742 89.477 3.24-.86 10.934-2.928 3.241-.86a1.92 1.92 0 0 1 1.68.47l2.38 2.381 8.006 8.005 2.382 2.382c.43.43.585 1.093.43 1.679-.118.39-.508 1.874-.86 3.241l-2.928 10.933a85 85 0 0 0-.86 3.241 1.8 1.8 0 0 1-.468.781 1.46 1.46 0 0 1-.781.469l-3.241.859-10.933 2.928-3.241.859-.117-.39-.117-.43 3.24-.859 10.934-2.928 3.24-.859a.8.8 0 0 0 .391-.235.8.8 0 0 0 .234-.39l.86-3.241 2.928-10.933c.39-1.367.78-2.85.859-3.241a1.03 1.03 0 0 0-.234-.82l-2.343-2.382-8.005-8.005-2.382-2.382a1.07 1.07 0 0 0-.82-.234l-3.24.859-10.934 2.968-3.24.859a.8.8 0 0 0-.391.234.8.8 0 0 0-.235.39c-.117.39-.507 1.875-.859 3.241l-2.928 10.895c-.352 1.366-.742 2.85-.86 3.241q-.057.468.235.82l2.382 2.381 8.005 8.005 2.382 2.382c.234.195.546.273.82.234l.117.43.117.429a1.92 1.92 0 0 1-1.68-.468l-2.381-2.382-8.044-8.122-2.382-2.382c-.43-.429-.585-1.054-.468-1.679.117-.39.507-1.874.859-3.241l2.928-10.933.86-3.241c.077-.273.234-.547.468-.781.273-.156.547-.312.82-.39"/><path fill="#98A2B3" d="M50.852 120.09c-8.864-8.864-8.864-23.234 0-32.136s23.233-8.864 32.136 0c8.903 8.863 8.864 23.233 0 32.136-8.864 8.863-23.233 8.863-32.136 0m31.394-.742c8.434-8.474 8.395-22.18-.078-30.574-8.473-8.435-22.179-8.396-30.574.078-8.395 8.434-8.395 22.101.039 30.535 8.434 8.473 22.14 8.434 30.613-.039q0 .058 0 0"/><path fill="#98A2B3" d="m67.643 87.563 2.42 1.406 8.161 4.686 2.421 1.405c.43.274.703.742.703 1.25v14.994c-.039.508-.273.976-.703 1.249l-2.42 1.367-8.161 4.725-2.421 1.406c-.235.117-.469.195-.703.195-.235 0-.508-.078-.703-.195l-2.421-1.406-8.161-4.725-2.42-1.406.194-.312.196-.312 2.382 1.405 8.16 4.725 2.421 1.406c.117.078.235.078.352.078s.234 0 .351-.078l2.421-1.406 8.161-4.725 2.42-1.405c.196-.157.352-.352.352-.625V96.271a1.01 1.01 0 0 0-.351-.625l-2.421-1.406-8.122-4.685-2.42-1.406a1.1 1.1 0 0 0-.352-.078 1.1 1.1 0 0 0-.352.078l-2.42 1.406-8.161 4.685-2.421 1.406c-.196.156-.352.39-.352.625v14.994c.04.234.156.468.352.625l-.196.312-.195.312a1.49 1.49 0 0 1-.703-1.249V96.232c0-.508.274-.977.703-1.25l2.421-1.406 8.16-4.685 2.422-1.406c.234-.117.468-.195.703-.195.234.117.468.156.703.273"/><path fill="#98A2B3" d="M55.03 115.677c-6.56-6.56-6.56-17.22 0-23.78s17.22-6.56 23.78 0 6.56 17.22 0 23.78c-6.56 6.599-17.22 6.599-23.78 0m23.233-.507c6.248-6.248 6.209-16.4-.038-22.648-6.248-6.247-16.4-6.208-22.648.04-6.209 6.247-6.209 16.36 0 22.608 6.248 6.247 16.4 6.286 22.686 0"/><rect width="102.085" height="102.085" x="110.958" y="52.958" fill="#F1F4FA" rx="15.313"/><path fill="#325FE8" d="M164.146 107.69c.081.164.324.164.324 0l5.678-14.912c.244-.738.974-1.147 1.704-1.147h5.272c.974 0 1.866.82 1.866 1.802 0 .246 0 .41-.081.656l-12.817 34.823c0 .082-.405.41-.73.656-.081.082-.243.082-.405.082-.487-.164-.974-.574-1.136-1.065l-6.814-16.634c-.243-.491-.811-.737-1.298-.491-.162.082-.405.245-.486.491l-8.599 17.289c-.081.082-.162.164-.243.082-.081 0-.081-.082-.081-.082l-13.385-35.233c-.324-.983.081-2.049 1.055-2.376.243-.082.405-.164.649-.164h5.759c.73 0 1.46.491 1.704 1.147l5.678 14.995c.081.163.324.163.324 0l7.139-15.65c.243-.492.811-.738 1.297-.492a.73.73 0 0 1 .487.491zm22.849-30.315c-.081-.246-.487-.246-.568 0-.324 1.638-1.054 4.097-2.352 5.407-1.298 1.312-3.732 2.049-5.354 2.377-.243.082-.243.491 0 .573 1.622.328 4.056 1.065 5.354 2.376 1.703 1.721 2.271 4.097 2.515 5.49 0 .082.324.082.324 0 .324-1.475.973-4.097 2.352-5.49 1.298-1.31 3.732-2.048 5.354-2.376.244-.082.244-.491 0-.573-1.622-.328-4.056-1.065-5.354-2.377-1.216-1.31-1.946-3.769-2.271-5.407"/><rect width="78" height="78" x="218.119" y="65" fill="#F1F4FA" rx="11.515"/><g style="mix-blend-mode:luminosity"><path fill="#98A2B3" d="M257.113 77.84c14.001 0 21.04 7.608 21.04 7.608s.806 5.633.291 16.972c-.775 17.132-21.327 27.419-21.329 27.419 0 0-20.551-10.29-21.328-27.419-.513-11.339.292-16.972.292-16.972s7.033-7.609 21.034-7.609"/><path fill="#F1F4FA" d="M246.749 100.406c0-6.17 4.65-11.19 10.367-11.19 5.716 0 10.375 4.88 10.375 10.88 0 4.791-3.926 8.731-6.953 10.757 1.174.702 3.766 1.441 6.247 1.678 3.623-2.941 5.831-7.483 5.831-12.435 0-8.963-6.953-16.257-15.502-16.257-8.55 0-15.498 7.296-15.498 16.26 0 5.412 2.149 10.223 6.216 13.907 3.802 3.445 9.363 5.745 15.696 6.833 1.372-.795 3.718-3.142 4.597-4.515-5.288-.714-10.294-2.067-13.648-3.912-5.126-2.822-7.726-6.861-7.726-12.008"/></g></svg>