<svg width="32" height="33" viewBox="0 0 32 33" fill="none" xmlns="http://www.w3.org/2000/svg">
<path fill-rule="evenodd" clip-rule="evenodd" d="M7.74499 3.71573L15.1476 16.8619L14.8713 17.3526L7.7449 30.0076C5.89634 33.2891 1 31.9372 1 28.1715V5.55224C1 1.78675 5.89616 0.434532 7.74499 3.71573ZM3 28.169C3 29.8959 5.17293 30.4958 6.0023 29.0236L12.8524 16.8593L6.00242 4.69472C5.17299 3.2227 3 3.82284 3 5.54968V28.169Z" fill="#535766"/>
<path fill-rule="evenodd" clip-rule="evenodd" d="M10.0122 31.8593L17.6866 17.8593H30.4824L29.5893 19.3685L23.903 28.9769C22.7586 30.7721 20.7657 31.8593 18.6236 31.8593H10.0122ZM22.1992 27.9301L26.975 19.8593H18.8711L13.3893 29.8593H18.6236C20.0841 29.8593 21.4404 29.1194 22.1992 27.9301Z" fill="#535766"/>
<path fill-rule="evenodd" clip-rule="evenodd" d="M17.1369 14.8593L10.0123 1.85925H18.6235C20.7656 1.85925 22.7586 2.9464 23.903 4.74157L30.324 14.8593H27.9553L22.2154 5.81495C21.4403 4.59907 20.0841 3.85925 18.6235 3.85925H13.3891L19.4176 14.8593H17.1369Z" fill="#00BFB3"/>
</svg>
