<svg width="398" height="552" viewBox="0 0 398 552" fill="none" xmlns="http://www.w3.org/2000/svg">
<rect width="398" height="552" fill="#22272D"/>
<mask id="mask0" mask-type="alpha" maskUnits="userSpaceOnUse" x="0" y="0" width="398" height="552">
<path d="M0 4C0 1.79086 1.79086 0 4 0H398V552H3.99999C1.79086 552 0 550.209 0 548V4Z" fill="#22272D"/>
</mask>
<g mask="url(#mask0)">
<path d="M197 471.611L286.25 519.957L197 568.303L107.75 519.957L197 471.611Z" fill="#171A1F"/>
<path d="M197 471.611L286.25 519.957L197 568.303L197 471.611Z" fill="#2E353D"/>
<path d="M245.75 445.904L335 494.25L286.25 520.096L197 471.75L245.75 445.904Z" fill="#3D434B"/>
<path d="M148.25 445.904L59 494.25L107.75 520.096L197 471.75L148.25 445.904Z" fill="#3D434B"/>
<g filter="url(#filter0_d)">
<path d="M131 409H236C249.807 409 261 420.193 261 434V454H156C142.193 454 131 442.807 131 429V409Z" fill="#696F76"/>
</g>
<g filter="url(#filter1_d)">
<path d="M131 462H236C249.807 462 261 473.193 261 487V507H156C142.193 507 131 495.807 131 482V462Z" fill="#696F76"/>
</g>
<g filter="url(#filter2_d)">
<path d="M131 515H236C249.807 515 261 526.193 261 540V560H156C142.193 560 131 548.807 131 535V515Z" fill="#696F76"/>
</g>
<g filter="url(#filter3_d)">
<path d="M167.835 428.192H170.34C170.304 425.989 168.493 424.467 165.74 424.467C163.029 424.467 161.043 425.965 161.055 428.21C161.049 430.033 162.335 431.078 164.424 431.579L165.77 431.917C167.116 432.243 167.865 432.629 167.871 433.462C167.865 434.368 167.008 434.984 165.679 434.984C164.321 434.984 163.343 434.356 163.259 433.118H160.729C160.796 435.793 162.709 437.175 165.71 437.175C168.728 437.175 170.503 435.732 170.509 433.468C170.503 431.41 168.951 430.317 166.802 429.834L165.691 429.569C164.617 429.321 163.717 428.923 163.736 428.035C163.736 427.238 164.442 426.653 165.722 426.653C166.971 426.653 167.738 427.22 167.835 428.192Z" fill="white"/>
<path d="M176.329 437.181C179.142 437.181 180.892 435.255 180.892 432.4C180.892 429.526 179.142 427.607 176.329 427.607C173.515 427.607 171.765 429.526 171.765 432.4C171.765 435.255 173.515 437.181 176.329 437.181ZM176.341 435.189C175.043 435.189 174.379 434 174.379 432.382C174.379 430.764 175.043 429.569 176.341 429.569C177.614 429.569 178.278 430.764 178.278 432.382C178.278 434 177.614 435.189 176.341 435.189Z" fill="white"/>
<path d="M188.431 433.052C188.437 434.295 187.586 434.947 186.662 434.947C185.69 434.947 185.062 434.265 185.056 433.173V427.727H182.485V433.631C182.491 435.799 183.758 437.121 185.624 437.121C187.018 437.121 188.021 436.402 188.437 435.316H188.534V437H191.003V427.727H188.431V433.052Z" fill="white"/>
<path d="M192.98 437H195.552V431.754C195.552 430.613 196.385 429.828 197.52 429.828C197.876 429.828 198.365 429.889 198.606 429.967V427.685C198.377 427.631 198.057 427.594 197.797 427.594C196.759 427.594 195.908 428.198 195.57 429.345H195.473V427.727H192.98V437Z" fill="white"/>
<path d="M203.614 437.181C206.083 437.181 207.635 435.732 207.755 433.601H205.328C205.178 434.591 204.526 435.147 203.644 435.147C202.443 435.147 201.664 434.139 201.664 432.364C201.664 430.613 202.449 429.611 203.644 429.611C204.586 429.611 205.19 430.233 205.328 431.156H207.755C207.647 429.013 206.023 427.607 203.602 427.607C200.789 427.607 199.05 429.556 199.05 432.4C199.05 435.219 200.758 437.181 203.614 437.181Z" fill="white"/>
<path d="M213.548 437.181C215.842 437.181 217.387 436.064 217.749 434.344L215.371 434.187C215.111 434.893 214.447 435.261 213.59 435.261C212.304 435.261 211.489 434.41 211.489 433.028V433.022H217.804V432.315C217.804 429.164 215.896 427.607 213.445 427.607C210.716 427.607 208.948 429.544 208.948 432.406C208.948 435.346 210.692 437.181 213.548 437.181ZM211.489 431.428C211.543 430.371 212.346 429.526 213.487 429.526C214.604 429.526 215.377 430.323 215.383 431.428H211.489Z" fill="white"/>
<path d="M225.436 437L226.354 434.181H230.815L231.732 437H234.534L230.271 424.636H226.903L222.635 437H225.436ZM227.018 432.14L228.539 427.462H228.635L230.157 432.14H227.018Z" fill="white"/>
<path d="M168.573 481.192H171.079C171.042 478.989 169.231 477.467 166.479 477.467C163.768 477.467 161.782 478.965 161.794 481.21C161.788 483.033 163.074 484.078 165.162 484.579L166.509 484.917C167.855 485.243 168.604 485.629 168.61 486.462C168.604 487.368 167.746 487.984 166.418 487.984C165.06 487.984 164.082 487.356 163.997 486.118H161.468C161.534 488.793 163.448 490.175 166.448 490.175C169.467 490.175 171.242 488.732 171.248 486.468C171.242 484.41 169.69 483.317 167.541 482.834L166.43 482.569C165.356 482.321 164.456 481.923 164.474 481.035C164.474 480.238 165.181 479.653 166.46 479.653C167.71 479.653 168.477 480.22 168.573 481.192Z" fill="white"/>
<path d="M177.067 490.181C179.881 490.181 181.631 488.255 181.631 485.4C181.631 482.526 179.881 480.607 177.067 480.607C174.254 480.607 172.503 482.526 172.503 485.4C172.503 488.255 174.254 490.181 177.067 490.181ZM177.079 488.189C175.781 488.189 175.117 487 175.117 485.382C175.117 483.764 175.781 482.569 177.079 482.569C178.353 482.569 179.017 483.764 179.017 485.382C179.017 487 178.353 488.189 177.079 488.189Z" fill="white"/>
<path d="M189.17 486.052C189.176 487.295 188.325 487.947 187.401 487.947C186.429 487.947 185.801 487.265 185.795 486.173V480.727H183.223V486.631C183.23 488.799 184.497 490.121 186.363 490.121C187.757 490.121 188.759 489.402 189.176 488.316H189.272V490H191.742V480.727H189.17V486.052Z" fill="white"/>
<path d="M193.719 490H196.29V484.754C196.29 483.613 197.123 482.828 198.258 482.828C198.615 482.828 199.104 482.889 199.345 482.967V480.685C199.116 480.631 198.796 480.594 198.536 480.594C197.498 480.594 196.647 481.198 196.309 482.345H196.212V480.727H193.719V490Z" fill="white"/>
<path d="M204.353 490.181C206.822 490.181 208.373 488.732 208.494 486.601H206.067C205.916 487.591 205.264 488.147 204.383 488.147C203.182 488.147 202.403 487.139 202.403 485.364C202.403 483.613 203.188 482.611 204.383 482.611C205.325 482.611 205.928 483.233 206.067 484.156H208.494C208.385 482.013 206.761 480.607 204.341 480.607C201.527 480.607 199.789 482.556 199.789 485.4C199.789 488.219 201.497 490.181 204.353 490.181Z" fill="white"/>
<path d="M214.286 490.181C216.581 490.181 218.126 489.064 218.488 487.344L216.11 487.187C215.85 487.893 215.186 488.261 214.329 488.261C213.043 488.261 212.228 487.41 212.228 486.028V486.022H218.543V485.315C218.543 482.164 216.635 480.607 214.184 480.607C211.455 480.607 209.686 482.544 209.686 485.406C209.686 488.346 211.431 490.181 214.286 490.181ZM212.228 484.428C212.282 483.371 213.085 482.526 214.226 482.526C215.343 482.526 216.116 483.323 216.122 484.428H212.228Z" fill="white"/>
<path d="M224.044 490H229.326C232.103 490 233.582 488.551 233.582 486.583C233.582 484.754 232.272 483.649 230.865 483.583V483.462C232.151 483.172 233.099 482.261 233.099 480.806C233.099 478.952 231.723 477.636 228.994 477.636H224.044V490ZM226.658 487.863V484.579H228.849C230.105 484.579 230.883 485.303 230.883 486.324C230.883 487.253 230.25 487.863 228.789 487.863H226.658ZM226.658 482.81V479.749H228.644C229.803 479.749 230.461 480.347 230.461 481.24C230.461 482.218 229.664 482.81 228.595 482.81H226.658Z" fill="white"/>
<path d="M167.801 533.192H170.307C170.27 530.989 168.459 529.467 165.707 529.467C162.996 529.467 161.01 530.965 161.022 533.21C161.016 535.033 162.302 536.078 164.391 536.579L165.737 536.917C167.083 537.243 167.832 537.629 167.838 538.462C167.832 539.368 166.974 539.984 165.646 539.984C164.288 539.984 163.31 539.356 163.225 538.118H160.696C160.762 540.793 162.676 542.175 165.676 542.175C168.695 542.175 170.47 540.732 170.476 538.468C170.47 536.41 168.918 535.317 166.769 534.834L165.658 534.569C164.584 534.321 163.684 533.923 163.702 533.035C163.702 532.238 164.409 531.653 165.688 531.653C166.938 531.653 167.705 532.22 167.801 533.192Z" fill="white"/>
<path d="M176.295 542.181C179.109 542.181 180.859 540.255 180.859 537.4C180.859 534.526 179.109 532.607 176.295 532.607C173.482 532.607 171.731 534.526 171.731 537.4C171.731 540.255 173.482 542.181 176.295 542.181ZM176.307 540.189C175.009 540.189 174.345 539 174.345 537.382C174.345 535.764 175.009 534.569 176.307 534.569C177.581 534.569 178.245 535.764 178.245 537.382C178.245 539 177.581 540.189 176.307 540.189Z" fill="white"/>
<path d="M188.398 538.052C188.404 539.295 187.553 539.947 186.629 539.947C185.657 539.947 185.029 539.265 185.023 538.173V532.727H182.451V538.631C182.458 540.799 183.725 542.121 185.591 542.121C186.985 542.121 187.987 541.402 188.404 540.316H188.5V542H190.97V532.727H188.398V538.052Z" fill="white"/>
<path d="M192.947 542H195.518V536.754C195.518 535.613 196.352 534.828 197.486 534.828C197.843 534.828 198.332 534.889 198.573 534.967V532.685C198.344 532.631 198.024 532.594 197.764 532.594C196.726 532.594 195.875 533.198 195.537 534.345H195.44V532.727H192.947V542Z" fill="white"/>
<path d="M203.581 542.181C206.05 542.181 207.601 540.732 207.722 538.601H205.295C205.144 539.591 204.492 540.147 203.611 540.147C202.41 540.147 201.631 539.139 201.631 537.364C201.631 535.613 202.416 534.611 203.611 534.611C204.553 534.611 205.156 535.233 205.295 536.156H207.722C207.613 534.013 205.989 532.607 203.569 532.607C200.755 532.607 199.017 534.556 199.017 537.4C199.017 540.219 200.725 542.181 203.581 542.181Z" fill="white"/>
<path d="M213.514 542.181C215.809 542.181 217.354 541.064 217.716 539.344L215.338 539.187C215.078 539.893 214.414 540.261 213.557 540.261C212.271 540.261 211.456 539.41 211.456 538.028V538.022H217.771V537.315C217.771 534.164 215.863 532.607 213.412 532.607C210.683 532.607 208.914 534.544 208.914 537.406C208.914 540.346 210.659 542.181 213.514 542.181ZM211.456 536.428C211.51 535.371 212.313 534.526 213.454 534.526C214.571 534.526 215.344 535.323 215.35 536.428H211.456Z" fill="white"/>
<path d="M234.18 533.965C233.836 531.109 231.675 529.467 228.814 529.467C225.548 529.467 223.054 531.773 223.054 535.818C223.054 539.851 225.505 542.169 228.814 542.169C231.983 542.169 233.897 540.062 234.18 537.786L231.536 537.774C231.289 539.096 230.25 539.857 228.856 539.857C226.978 539.857 225.705 538.462 225.705 535.818C225.705 533.246 226.96 531.779 228.874 531.779C230.305 531.779 231.337 532.607 231.536 533.965H234.18Z" fill="white"/>
</g>
<path d="M197 568.172L286.25 616.517L197 664.863L107.75 616.517L197 568.172Z" fill="#171A1F"/>
<path d="M197 568.171L286.25 616.517L197 664.863L197 568.171Z" fill="#22272D"/>
<path d="M286.25 519.898L197 568.244L245.75 594.09L335 545.744L286.25 519.898Z" fill="#3D434B"/>
<path d="M107.75 519.898L197 568.244L148.25 594.09L59.0001 545.744L107.75 519.898Z" fill="#3D434B"/>
<g filter="url(#filter4_d)">
<rect x="185.037" y="259.776" width="26.9252" height="30.0561" fill="#DBE4EE"/>
</g>
<g filter="url(#filter5_d)">
<path d="M241.13 289.409L198.721 331.818L156.312 289.409H241.13Z" fill="white"/>
</g>
<path opacity="0.14" d="M210.207 320.332L183.039 347.5L155.87 320.332H210.207Z" fill="white"/>
<g filter="url(#filter6_d)">
<path d="M233.841 311.276L218.71 326.406L203.58 311.276H233.841Z" fill="#696F76"/>
</g>
<path d="M328 75C328 143.483 272.483 199 204 199C135.517 199 80 143.483 80 75C80 6.51669 135.517 -49 204 -49C272.483 -49 328 6.51669 328 75Z" fill="url(#paint0_linear)"/>
<g filter="url(#filter7_d)">
<path d="M186 219C117.517 219 62 163.483 62 95L186 95L186 219Z" fill="#00C8AC"/>
</g>
<g filter="url(#filter8_d)">
<path d="M294 75C294 123.601 254.601 163 206 163V75L294 75Z" fill="#FFB92F"/>
</g>
<g filter="url(#filter9_dd)">
<rect x="38" y="163" width="134" height="33" fill="white"/>
</g>
<g filter="url(#filter10_dd)">
<rect x="225" y="97" width="134" height="33" fill="white"/>
</g>
<path d="M293.567 117.636H295.293L295.136 114.76L297.551 116.344L298.418 114.838L295.832 113.545L298.418 112.253L297.551 110.747L295.136 112.331L295.293 109.455H293.567L293.73 112.331L291.315 110.747L290.449 112.253L293.027 113.545L290.449 114.838L291.315 116.344L293.73 114.76L293.567 117.636Z" fill="#FFB92F"/>
<path d="M304.926 117.636H306.652L306.496 114.76L308.911 116.344L309.777 114.838L307.192 113.545L309.777 112.253L308.911 110.747L306.496 112.331L306.652 109.455H304.926L305.09 112.331L302.675 110.747L301.808 112.253L304.386 113.545L301.808 114.838L302.675 116.344L305.09 114.76L304.926 117.636Z" fill="#FFB92F"/>
<path d="M316.286 117.636H318.011L317.855 114.76L320.27 116.344L321.136 114.838L318.551 113.545L321.136 112.253L320.27 110.747L317.855 112.331L318.011 109.455H316.286L316.449 112.331L314.034 110.747L313.168 112.253L315.746 113.545L313.168 114.838L314.034 116.344L316.449 114.76L316.286 117.636Z" fill="#FFB92F"/>
<path d="M327.645 117.636H329.371L329.215 114.76L331.629 116.344L332.496 114.838L329.911 113.545L332.496 112.253L331.629 110.747L329.215 112.331L329.371 109.455H327.645L327.808 112.331L325.394 110.747L324.527 112.253L327.105 113.545L324.527 114.838L325.394 116.344L327.808 114.76L327.645 117.636Z" fill="#FFB92F"/>
<path d="M339.004 117.636H340.73L340.574 114.76L342.989 116.344L343.855 114.838L341.27 113.545L343.855 112.253L342.989 110.747L340.574 112.331L340.73 109.455H339.004L339.168 112.331L336.753 110.747L335.886 112.253L338.465 113.545L335.886 114.838L336.753 116.344L339.168 114.76L339.004 117.636Z" fill="#FFB92F"/>
<path d="M242.408 111.746H244.472C244.442 109.932 242.95 108.679 240.683 108.679C238.451 108.679 236.815 109.912 236.825 111.761C236.82 113.263 237.879 114.123 239.599 114.536L240.708 114.814C241.817 115.082 242.433 115.401 242.438 116.087C242.433 116.832 241.727 117.339 240.634 117.339C239.515 117.339 238.71 116.822 238.64 115.803H236.557C236.612 118.006 238.188 119.144 240.658 119.144C243.144 119.144 244.606 117.956 244.611 116.092C244.606 114.396 243.328 113.496 241.558 113.099L240.644 112.88C239.759 112.676 239.018 112.348 239.033 111.617C239.033 110.961 239.614 110.479 240.668 110.479C241.698 110.479 242.329 110.946 242.408 111.746Z" fill="#343741"/>
<path d="M249.419 119.149C251.308 119.149 252.581 118.229 252.879 116.812L250.921 116.683C250.707 117.265 250.16 117.568 249.454 117.568C248.395 117.568 247.724 116.867 247.724 115.729V115.724H252.924V115.142C252.924 112.547 251.353 111.264 249.335 111.264C247.088 111.264 245.631 112.86 245.631 115.217C245.631 117.638 247.068 119.149 249.419 119.149ZM247.724 114.411C247.769 113.541 248.43 112.845 249.369 112.845C250.289 112.845 250.926 113.501 250.931 114.411H247.724Z" fill="#343741"/>
<path d="M257.677 119.149C259.71 119.149 260.988 117.956 261.087 116.201H259.088C258.964 117.016 258.427 117.474 257.701 117.474C256.712 117.474 256.071 116.643 256.071 115.182C256.071 113.74 256.717 112.915 257.701 112.915C258.477 112.915 258.974 113.427 259.088 114.187H261.087C260.998 112.423 259.66 111.264 257.667 111.264C255.35 111.264 253.918 112.87 253.918 115.212C253.918 117.533 255.325 119.149 257.677 119.149Z" fill="#343741"/>
<path d="M262.363 119H264.481V114.68C264.481 113.74 265.167 113.094 266.102 113.094C266.395 113.094 266.798 113.143 266.997 113.208V111.329C266.808 111.284 266.544 111.254 266.33 111.254C265.475 111.254 264.774 111.751 264.496 112.696H264.416V111.364H262.363V119Z" fill="#343741"/>
<path d="M271.136 119.149C273.025 119.149 274.298 118.229 274.596 116.812L272.638 116.683C272.424 117.265 271.877 117.568 271.171 117.568C270.112 117.568 269.441 116.867 269.441 115.729V115.724H274.641V115.142C274.641 112.547 273.07 111.264 271.052 111.264C268.805 111.264 267.348 112.86 267.348 115.217C267.348 117.638 268.785 119.149 271.136 119.149ZM269.441 114.411C269.486 113.541 270.147 112.845 271.086 112.845C272.006 112.845 272.643 113.501 272.648 114.411H269.441Z" fill="#343741"/>
<path d="M280.005 111.364H278.568V109.534H276.45V111.364H275.406V112.955H276.45V116.932C276.44 118.428 277.46 119.169 278.996 119.104C279.543 119.085 279.93 118.975 280.144 118.906L279.811 117.33C279.707 117.349 279.483 117.399 279.284 117.399C278.862 117.399 278.568 117.24 278.568 116.653V112.955H280.005V111.364Z" fill="#343741"/>
<path d="M282.543 113.785C283.179 113.785 283.731 113.253 283.736 112.592C283.731 111.94 283.179 111.408 282.543 111.408C281.886 111.408 281.344 111.94 281.349 112.592C281.344 113.253 281.886 113.785 282.543 113.785ZM282.543 119.129C283.179 119.129 283.731 118.597 283.736 117.936C283.731 117.285 283.179 116.753 282.543 116.753C281.886 116.753 281.344 117.285 281.349 117.936C281.344 118.597 281.886 119.129 282.543 119.129Z" fill="#343741"/>
<path d="M85.0568 184H86.1136V180.591H88.0227C88.0994 180.591 88.1718 180.591 88.2443 180.587L90.0852 184H91.3124L89.3394 180.395C90.4516 180.016 90.9715 179.108 90.9715 177.949C90.9715 176.406 90.0511 175.273 88.0056 175.273H85.0568V184ZM86.1136 179.636V176.21H87.9715C89.3863 176.21 89.9318 176.901 89.9318 177.949C89.9318 178.997 89.3863 179.636 87.9886 179.636H86.1136Z" fill="#00B8AA"/>
<path d="M93.2325 184H96.386C98.4485 184 99.3007 182.994 99.3007 181.682C99.3007 180.301 98.3462 179.551 97.545 179.5V179.415C98.295 179.21 98.9598 178.716 98.9598 177.591C98.9598 176.312 98.1075 175.273 96.2837 175.273H93.2325V184ZM94.2894 183.062V180.028H96.4371C97.5791 180.028 98.295 180.795 98.295 181.682C98.295 182.449 97.7666 183.062 96.386 183.062H94.2894ZM94.2894 179.108V176.21H96.2837C97.4428 176.21 97.9541 176.824 97.9541 177.591C97.9541 178.511 97.2041 179.108 96.2496 179.108H94.2894Z" fill="#00B8AA"/>
<path d="M104.282 184.119C106.046 184.141 107.196 182.811 107.196 181.187C107.196 179.5 105.948 178.29 104.452 178.29C103.553 178.29 102.782 178.729 102.304 179.449H102.236C102.24 177.305 103.067 176.074 104.418 176.074C105.338 176.074 105.892 176.653 106.088 177.455H107.128C106.915 176.082 105.884 175.136 104.418 175.136C102.453 175.136 101.247 176.875 101.247 179.977C101.247 183.203 102.85 184.102 104.282 184.119ZM104.282 183.182C103.186 183.182 102.385 182.249 102.39 181.205C102.394 180.161 103.233 179.227 104.316 179.227C105.385 179.227 106.174 180.105 106.174 181.187C106.174 182.295 105.351 183.182 104.282 183.182Z" fill="#00B8AA"/>
<path d="M112.151 175.136C110.378 175.119 109.236 176.449 109.236 178.068C109.236 179.756 110.48 180.966 111.98 180.966C112.883 180.966 113.651 180.523 114.128 179.807H114.196C114.196 181.955 113.361 183.182 112.014 183.182C111.094 183.182 110.531 182.602 110.344 181.801H109.304C109.508 183.182 110.548 184.119 112.014 184.119C113.974 184.119 115.185 182.381 115.185 179.278C115.185 176.057 113.582 175.153 112.151 175.136ZM112.151 176.074C113.241 176.074 114.043 177.011 114.043 178.051C114.043 179.091 113.19 180.028 112.116 180.028C111.043 180.028 110.258 179.159 110.258 178.068C110.258 176.96 111.077 176.074 112.151 176.074Z" fill="#00B8AA"/>
<path d="M117.514 184H120.667C122.73 184 123.582 182.994 123.582 181.682C123.582 180.301 122.627 179.551 121.826 179.5V179.415C122.576 179.21 123.241 178.716 123.241 177.591C123.241 176.312 122.389 175.273 120.565 175.273H117.514V184ZM118.571 183.062V180.028H120.718C121.86 180.028 122.576 180.795 122.576 181.682C122.576 182.449 122.048 183.062 120.667 183.062H118.571ZM118.571 179.108V176.21H120.565C121.724 176.21 122.235 176.824 122.235 177.591C122.235 178.511 121.485 179.108 120.531 179.108H118.571Z" fill="#00B8AA"/>
<path d="M128.392 184.119C130.054 184.119 131.273 182.892 131.273 181.222C131.273 179.53 130.097 178.29 128.495 178.29C127.907 178.29 127.336 178.499 126.978 178.784H126.926L127.233 176.21H130.881V175.273H126.347L125.818 179.568L126.807 179.687C127.169 179.428 127.787 179.24 128.324 179.244C129.436 179.253 130.25 180.097 130.25 181.239C130.25 182.359 129.466 183.182 128.392 183.182C127.497 183.182 126.786 182.607 126.705 181.818H125.682C125.746 183.148 126.892 184.119 128.392 184.119Z" fill="#00B8AA"/>
<path d="M133.977 175.273H132.869L136.074 184H137.165L140.369 175.273H139.261L136.67 182.619H136.568L133.977 175.273Z" fill="#00B8AA"/>
<path d="M147.784 178H148.875C148.551 176.312 147.137 175.153 145.296 175.153C143.059 175.153 141.478 176.875 141.478 179.636C141.478 182.398 143.046 184.119 145.364 184.119C147.443 184.119 148.926 182.734 148.926 180.574V179.636H145.603V180.574H147.904C147.874 182.142 146.843 183.131 145.364 183.131C143.745 183.131 142.5 181.903 142.5 179.636C142.5 177.369 143.745 176.142 145.296 176.142C146.557 176.142 147.414 176.854 147.784 178Z" fill="#00B8AA"/>
<path d="M63.0376 174.818H60.8849V185H63.0376V174.818Z" fill="#343741"/>
<path d="M68.3381 185C71.4404 185 73.3196 183.081 73.3196 179.899C73.3196 176.727 71.4404 174.818 68.3679 174.818H64.7287V185H68.3381ZM66.8814 183.156V176.663H68.2536C70.1627 176.663 71.1719 177.637 71.1719 179.899C71.1719 182.171 70.1627 183.156 68.2486 183.156H66.8814Z" fill="#343741"/>
<path d="M76.0324 178.825C76.6688 178.825 77.2206 178.293 77.2256 177.632C77.2206 176.981 76.6688 176.449 76.0324 176.449C75.3762 176.449 74.8343 176.981 74.8392 177.632C74.8343 178.293 75.3762 178.825 76.0324 178.825ZM76.0324 183.817C76.6688 183.817 77.2206 183.285 77.2256 182.624C77.2206 181.972 76.6688 181.44 76.0324 181.44C75.3762 181.44 74.8343 181.972 74.8392 182.624C74.8343 183.285 75.3762 183.817 76.0324 183.817Z" fill="#343741"/>
<g filter="url(#filter11_d)">
<path d="M96.4551 118.492C96.0908 115.469 93.8024 113.73 90.7726 113.73C87.3145 113.73 84.6746 116.172 84.6746 120.455C84.6746 124.724 87.2697 127.179 90.7726 127.179C94.1284 127.179 96.1547 124.948 96.4551 122.538L93.6554 122.526C93.3933 123.925 92.2939 124.731 90.8173 124.731C88.8294 124.731 87.4807 123.254 87.4807 120.455C87.4807 117.732 88.8102 116.178 90.8365 116.178C92.3514 116.178 93.4444 117.054 93.6554 118.492H96.4551Z" fill="white"/>
<path d="M102.745 127.192C105.723 127.192 107.577 125.153 107.577 122.129C107.577 119.087 105.723 117.054 102.745 117.054C99.7661 117.054 97.9124 119.087 97.9124 122.129C97.9124 125.153 99.7661 127.192 102.745 127.192ZM102.758 125.082C101.383 125.082 100.68 123.823 100.68 122.11C100.68 120.397 101.383 119.131 102.758 119.131C104.106 119.131 104.809 120.397 104.809 122.11C104.809 123.823 104.106 125.082 102.758 125.082Z" fill="white"/>
<path d="M111.991 121.324C111.997 120.058 112.751 119.317 113.851 119.317C114.944 119.317 115.602 120.033 115.596 121.234V127H118.319V120.749C118.319 118.46 116.977 117.054 114.931 117.054C113.474 117.054 112.419 117.77 111.978 118.914H111.863V117.182H109.268V127H111.991V121.324Z" fill="white"/>
<path d="M125.665 117.182H123.715V116.523C123.715 115.859 123.984 115.469 124.783 115.469C125.109 115.469 125.441 115.539 125.658 115.609L126.138 113.564C125.799 113.462 125.051 113.295 124.214 113.295C122.367 113.295 120.992 114.337 120.992 116.472V117.182H119.605V119.227H120.992V127H123.715V119.227H125.665V117.182Z" fill="white"/>
<path d="M127.248 127H129.971V117.182H127.248V127ZM128.616 115.916C129.428 115.916 130.093 115.296 130.093 114.536C130.093 113.781 129.428 113.161 128.616 113.161C127.811 113.161 127.146 113.781 127.146 114.536C127.146 115.296 127.811 115.916 128.616 115.916Z" fill="white"/>
<path d="M136.496 130.822C139.302 130.822 141.296 129.544 141.296 127.096V117.182H138.593V118.831H138.49C138.126 118.032 137.327 117.054 135.684 117.054C133.53 117.054 131.708 118.729 131.708 122.072C131.708 125.338 133.479 126.859 135.691 126.859C137.257 126.859 138.132 126.073 138.49 125.261H138.605V127.058C138.605 128.342 137.742 128.866 136.56 128.866C135.358 128.866 134.751 128.342 134.527 127.812L132.009 128.151C132.335 129.634 133.85 130.822 136.496 130.822ZM136.554 124.814C135.218 124.814 134.489 123.753 134.489 122.059C134.489 120.391 135.205 119.221 136.554 119.221C137.877 119.221 138.618 120.339 138.618 122.059C138.618 123.791 137.864 124.814 136.554 124.814Z" fill="white"/>
<path d="M149.679 122.82C149.686 124.136 148.785 124.827 147.807 124.827C146.777 124.827 146.113 124.104 146.106 122.947V117.182H143.383V123.433C143.39 125.728 144.732 127.128 146.707 127.128C148.184 127.128 149.245 126.367 149.686 125.217H149.788V127H152.402V117.182H149.679V122.82Z" fill="white"/>
<path d="M154.501 127H157.224V121.445C157.224 120.237 158.106 119.406 159.307 119.406C159.685 119.406 160.202 119.47 160.458 119.553V117.137C160.215 117.08 159.876 117.041 159.601 117.041C158.502 117.041 157.601 117.68 157.243 118.895H157.14V117.182H154.501V127Z" fill="white"/>
<path d="M165.803 127.192C168.232 127.192 169.869 126.009 170.252 124.188L167.734 124.021C167.459 124.769 166.756 125.159 165.848 125.159C164.486 125.159 163.624 124.258 163.624 122.794V122.788H170.31V122.04C170.31 118.703 168.29 117.054 165.695 117.054C162.805 117.054 160.932 119.106 160.932 122.136C160.932 125.249 162.78 127.192 165.803 127.192ZM163.624 121.1C163.681 119.982 164.531 119.087 165.739 119.087C166.922 119.087 167.74 119.93 167.746 121.1H163.624Z" fill="white"/>
<path d="M131.793 139.492C131.429 136.469 129.141 134.73 126.111 134.73C122.653 134.73 120.013 137.172 120.013 141.455C120.013 145.724 122.608 148.179 126.111 148.179C129.467 148.179 131.493 145.948 131.793 143.538L128.994 143.526C128.731 144.925 127.632 145.731 126.155 145.731C124.168 145.731 122.819 144.254 122.819 141.455C122.819 138.732 124.148 137.178 126.175 137.178C127.69 137.178 128.783 138.054 128.994 139.492H131.793Z" fill="white"/>
<path d="M136.37 134.909H133.647V148H136.37V134.909Z" fill="white"/>
<path d="M138.471 148H141.194V138.182H138.471V148ZM139.839 136.916C140.651 136.916 141.316 136.296 141.316 135.536C141.316 134.781 140.651 134.161 139.839 134.161C139.034 134.161 138.369 134.781 138.369 135.536C138.369 136.296 139.034 136.916 139.839 136.916Z" fill="white"/>
<path d="M147.77 148.192C150.199 148.192 151.835 147.009 152.219 145.188L149.7 145.021C149.425 145.769 148.722 146.159 147.815 146.159C146.453 146.159 145.59 145.258 145.59 143.794V143.788H152.276V143.04C152.276 139.703 150.256 138.054 147.661 138.054C144.772 138.054 142.899 140.106 142.899 143.136C142.899 146.249 144.746 148.192 147.77 148.192ZM145.59 142.1C145.648 140.982 146.498 140.087 147.706 140.087C148.888 140.087 149.707 140.93 149.713 142.1H145.59Z" fill="white"/>
<path d="M156.696 142.324C156.703 141.058 157.457 140.317 158.556 140.317C159.649 140.317 160.308 141.033 160.301 142.234V148H163.024V141.749C163.024 139.46 161.682 138.054 159.637 138.054C158.179 138.054 157.125 138.77 156.683 139.914H156.568V138.182H153.973V148H156.696V142.324Z" fill="white"/>
<path d="M170.313 138.182H168.465V135.83H165.742V138.182H164.4V140.227H165.742V145.341C165.73 147.265 167.04 148.217 169.015 148.134C169.718 148.109 170.217 147.968 170.492 147.879L170.064 145.852C169.929 145.878 169.642 145.942 169.386 145.942C168.843 145.942 168.465 145.737 168.465 144.983V140.227H170.313V138.182Z" fill="white"/>
</g>
<g filter="url(#filter12_d)">
<path d="M133.837 372.492C133.473 369.469 131.184 367.73 128.155 367.73C124.696 367.73 122.057 370.172 122.057 374.455C122.057 378.724 124.652 381.179 128.155 381.179C131.51 381.179 133.537 378.948 133.837 376.538L131.037 376.526C130.775 377.925 129.676 378.731 128.199 378.731C126.211 378.731 124.863 377.254 124.863 374.455C124.863 371.732 126.192 370.178 128.218 370.178C129.733 370.178 130.826 371.054 131.037 372.492H133.837Z" fill="white"/>
<path d="M140.127 381.192C143.105 381.192 144.959 379.153 144.959 376.129C144.959 373.087 143.105 371.054 140.127 371.054C137.148 371.054 135.294 373.087 135.294 376.129C135.294 379.153 137.148 381.192 140.127 381.192ZM140.14 379.082C138.765 379.082 138.062 377.823 138.062 376.11C138.062 374.397 138.765 373.131 140.14 373.131C141.488 373.131 142.191 374.397 142.191 376.11C142.191 377.823 141.488 379.082 140.14 379.082Z" fill="white"/>
<path d="M149.373 375.324C149.379 374.058 150.133 373.317 151.233 373.317C152.326 373.317 152.984 374.033 152.978 375.234V381H155.701V374.749C155.701 372.46 154.359 371.054 152.313 371.054C150.856 371.054 149.801 371.77 149.36 372.914H149.245V371.182H146.65V381H149.373V375.324Z" fill="white"/>
<path d="M160.49 375.324C160.496 374.058 161.251 373.317 162.35 373.317C163.443 373.317 164.101 374.033 164.095 375.234V381H166.818V374.749C166.818 372.46 165.476 371.054 163.43 371.054C161.973 371.054 160.918 371.77 160.477 372.914H160.362V371.182H157.767V381H160.49V375.324Z" fill="white"/>
<path d="M173.359 381.192C175.788 381.192 177.424 380.009 177.808 378.187L175.289 378.021C175.014 378.769 174.311 379.159 173.403 379.159C172.042 379.159 171.179 378.258 171.179 376.794V376.788H177.865V376.04C177.865 372.703 175.845 371.054 173.25 371.054C170.361 371.054 168.488 373.106 168.488 376.136C168.488 379.249 170.335 381.192 173.359 381.192ZM171.179 375.1C171.237 373.982 172.087 373.087 173.295 373.087C174.477 373.087 175.295 373.93 175.302 375.1H171.179Z" fill="white"/>
<path d="M183.998 381.192C186.612 381.192 188.255 379.658 188.383 377.401H185.813C185.654 378.45 184.963 379.038 184.03 379.038C182.758 379.038 181.934 377.97 181.934 376.091C181.934 374.237 182.764 373.176 184.03 373.176C185.027 373.176 185.666 373.835 185.813 374.812H188.383C188.268 372.543 186.549 371.054 183.985 371.054C181.007 371.054 179.166 373.119 179.166 376.129C179.166 379.114 180.975 381.192 183.998 381.192Z" fill="white"/>
<path d="M195.269 371.182H193.422V368.83H190.698V371.182H189.356V373.227H190.698V378.341C190.686 380.265 191.996 381.217 193.971 381.134C194.674 381.109 195.173 380.968 195.448 380.879L195.02 378.852C194.885 378.878 194.598 378.942 194.342 378.942C193.799 378.942 193.422 378.737 193.422 377.983V373.227H195.269V371.182Z" fill="white"/>
<path d="M208.201 371.674H210.854C210.816 369.341 208.898 367.73 205.983 367.73C203.113 367.73 201.01 369.315 201.023 371.693C201.017 373.624 202.378 374.729 204.59 375.26L206.015 375.618C207.441 375.963 208.233 376.372 208.24 377.254C208.233 378.213 207.326 378.865 205.919 378.865C204.481 378.865 203.446 378.2 203.356 376.89H200.678C200.748 379.722 202.774 381.185 205.951 381.185C209.147 381.185 211.027 379.658 211.033 377.261C211.027 375.081 209.384 373.924 207.108 373.413L205.932 373.131C204.794 372.869 203.842 372.447 203.861 371.508C203.861 370.664 204.609 370.044 205.964 370.044C207.287 370.044 208.099 370.645 208.201 371.674Z" fill="white"/>
<path d="M217.2 381.192C220.178 381.192 222.032 379.153 222.032 376.129C222.032 373.087 220.178 371.054 217.2 371.054C214.221 371.054 212.367 373.087 212.367 376.129C212.367 379.153 214.221 381.192 217.2 381.192ZM217.212 379.082C215.838 379.082 215.135 377.823 215.135 376.11C215.135 374.397 215.838 373.131 217.212 373.131C218.561 373.131 219.264 374.397 219.264 376.11C219.264 377.823 218.561 379.082 217.212 379.082Z" fill="white"/>
<path d="M230.019 376.82C230.025 378.136 229.124 378.827 228.146 378.827C227.117 378.827 226.452 378.104 226.446 376.947V371.182H223.723V377.433C223.729 379.728 225.071 381.128 227.046 381.128C228.523 381.128 229.584 380.367 230.025 379.217H230.127V381H232.742V371.182H230.019V376.82Z" fill="white"/>
<path d="M234.84 381H237.563V375.445C237.563 374.237 238.445 373.406 239.647 373.406C240.024 373.406 240.542 373.47 240.797 373.553V371.137C240.554 371.08 240.216 371.041 239.941 371.041C238.841 371.041 237.94 371.68 237.582 372.895H237.48V371.182H234.84V381Z" fill="white"/>
<path d="M246.104 381.192C248.719 381.192 250.361 379.658 250.489 377.401H247.919C247.76 378.45 247.069 379.038 246.136 379.038C244.864 379.038 244.04 377.97 244.04 376.091C244.04 374.237 244.87 373.176 246.136 373.176C247.133 373.176 247.772 373.835 247.919 374.812H250.489C250.374 372.543 248.655 371.054 246.091 371.054C243.113 371.054 241.272 373.119 241.272 376.129C241.272 379.114 243.081 381.192 246.104 381.192Z" fill="white"/>
<path d="M256.627 381.192C259.056 381.192 260.692 380.009 261.076 378.187L258.557 378.021C258.283 378.769 257.579 379.159 256.672 379.159C255.31 379.159 254.447 378.258 254.447 376.794V376.788H261.133V376.04C261.133 372.703 259.113 371.054 256.518 371.054C253.629 371.054 251.756 373.106 251.756 376.136C251.756 379.249 253.604 381.192 256.627 381.192ZM254.447 375.1C254.505 373.982 255.355 373.087 256.563 373.087C257.746 373.087 258.564 373.93 258.57 375.1H254.447Z" fill="white"/>
<path d="M270.999 373.982C270.756 372.173 269.299 371.054 266.819 371.054C264.307 371.054 262.651 372.217 262.658 374.109C262.651 375.58 263.578 376.532 265.496 376.915L267.196 377.254C268.053 377.427 268.443 377.74 268.455 378.232C268.443 378.814 267.81 379.229 266.857 379.229C265.886 379.229 265.24 378.814 265.074 378.015L262.396 378.156C262.651 380.035 264.249 381.192 266.851 381.192C269.395 381.192 271.217 379.894 271.223 377.957C271.217 376.538 270.29 375.688 268.385 375.298L266.608 374.94C265.694 374.742 265.355 374.429 265.362 373.956C265.355 373.368 266.02 372.984 266.864 372.984C267.81 372.984 268.372 373.502 268.506 374.135L270.999 373.982Z" fill="white"/>
</g>
<rect opacity="0.85" y="288" width="398" height="264" fill="url(#paint1_linear)"/>
</g>
<defs>
<filter id="filter0_d" x="101" y="389" width="190" height="105" filterUnits="userSpaceOnUse" color-interpolation-filters="sRGB">
<feFlood flood-opacity="0" result="BackgroundImageFix"/>
<feColorMatrix in="SourceAlpha" type="matrix" values="0 0 0 0 0 0 0 0 0 0 0 0 0 0 0 0 0 0 127 0"/>
<feOffset dy="10"/>
<feGaussianBlur stdDeviation="15"/>
<feColorMatrix type="matrix" values="0 0 0 0 0 0 0 0 0 0 0 0 0 0 0 0 0 0 0.45 0"/>
<feBlend mode="normal" in2="BackgroundImageFix" result="effect1_dropShadow"/>
<feBlend mode="normal" in="SourceGraphic" in2="effect1_dropShadow" result="shape"/>
</filter>
<filter id="filter1_d" x="101" y="442" width="190" height="105" filterUnits="userSpaceOnUse" color-interpolation-filters="sRGB">
<feFlood flood-opacity="0" result="BackgroundImageFix"/>
<feColorMatrix in="SourceAlpha" type="matrix" values="0 0 0 0 0 0 0 0 0 0 0 0 0 0 0 0 0 0 127 0"/>
<feOffset dy="10"/>
<feGaussianBlur stdDeviation="15"/>
<feColorMatrix type="matrix" values="0 0 0 0 0 0 0 0 0 0 0 0 0 0 0 0 0 0 0.45 0"/>
<feBlend mode="normal" in2="BackgroundImageFix" result="effect1_dropShadow"/>
<feBlend mode="normal" in="SourceGraphic" in2="effect1_dropShadow" result="shape"/>
</filter>
<filter id="filter2_d" x="101" y="495" width="190" height="105" filterUnits="userSpaceOnUse" color-interpolation-filters="sRGB">
<feFlood flood-opacity="0" result="BackgroundImageFix"/>
<feColorMatrix in="SourceAlpha" type="matrix" values="0 0 0 0 0 0 0 0 0 0 0 0 0 0 0 0 0 0 127 0"/>
<feOffset dy="10"/>
<feGaussianBlur stdDeviation="15"/>
<feColorMatrix type="matrix" values="0 0 0 0 0 0 0 0 0 0 0 0 0 0 0 0 0 0 0.45 0"/>
<feBlend mode="normal" in2="BackgroundImageFix" result="effect1_dropShadow"/>
<feBlend mode="normal" in="SourceGraphic" in2="effect1_dropShadow" result="shape"/>
</filter>
<filter id="filter3_d" x="156.696" y="421.467" width="81.8376" height="125.714" filterUnits="userSpaceOnUse" color-interpolation-filters="sRGB">
<feFlood flood-opacity="0" result="BackgroundImageFix"/>
<feColorMatrix in="SourceAlpha" type="matrix" values="0 0 0 0 0 0 0 0 0 0 0 0 0 0 0 0 0 0 127 0"/>
<feOffset dy="1"/>
<feGaussianBlur stdDeviation="2"/>
<feColorMatrix type="matrix" values="0 0 0 0 0 0 0 0 0 0 0 0 0 0 0 0 0 0 0.27 0"/>
<feBlend mode="normal" in2="BackgroundImageFix" result="effect1_dropShadow"/>
<feBlend mode="normal" in="SourceGraphic" in2="effect1_dropShadow" result="shape"/>
</filter>
<filter id="filter4_d" x="155.037" y="239.776" width="86.9252" height="90.0561" filterUnits="userSpaceOnUse" color-interpolation-filters="sRGB">
<feFlood flood-opacity="0" result="BackgroundImageFix"/>
<feColorMatrix in="SourceAlpha" type="matrix" values="0 0 0 0 0 0 0 0 0 0 0 0 0 0 0 0 0 0 127 0"/>
<feOffset dy="10"/>
<feGaussianBlur stdDeviation="15"/>
<feColorMatrix type="matrix" values="0 0 0 0 0 0 0 0 0 0 0 0 0 0 0 0 0 0 0.45 0"/>
<feBlend mode="normal" in2="BackgroundImageFix" result="effect1_dropShadow"/>
<feBlend mode="normal" in="SourceGraphic" in2="effect1_dropShadow" result="shape"/>
</filter>
<filter id="filter5_d" x="126.312" y="227" width="144.818" height="144.818" filterUnits="userSpaceOnUse" color-interpolation-filters="sRGB">
<feFlood flood-opacity="0" result="BackgroundImageFix"/>
<feColorMatrix in="SourceAlpha" type="matrix" values="0 0 0 0 0 0 0 0 0 0 0 0 0 0 0 0 0 0 127 0"/>
<feOffset dy="10"/>
<feGaussianBlur stdDeviation="15"/>
<feColorMatrix type="matrix" values="0 0 0 0 0 0 0 0 0 0 0 0 0 0 0 0 0 0 0.45 0"/>
<feBlend mode="normal" in2="BackgroundImageFix" result="effect1_dropShadow"/>
<feBlend mode="normal" in="SourceGraphic" in2="effect1_dropShadow" result="shape"/>
</filter>
<filter id="filter6_d" x="173.58" y="276.146" width="90.2604" height="90.2604" filterUnits="userSpaceOnUse" color-interpolation-filters="sRGB">
<feFlood flood-opacity="0" result="BackgroundImageFix"/>
<feColorMatrix in="SourceAlpha" type="matrix" values="0 0 0 0 0 0 0 0 0 0 0 0 0 0 0 0 0 0 127 0"/>
<feOffset dy="10"/>
<feGaussianBlur stdDeviation="15"/>
<feColorMatrix type="matrix" values="0 0 0 0 0 0 0 0 0 0 0 0 0 0 0 0 0 0 0.45 0"/>
<feBlend mode="normal" in2="BackgroundImageFix" result="effect1_dropShadow"/>
<feBlend mode="normal" in="SourceGraphic" in2="effect1_dropShadow" result="shape"/>
</filter>
<filter id="filter7_d" x="32" y="75" width="184" height="184" filterUnits="userSpaceOnUse" color-interpolation-filters="sRGB">
<feFlood flood-opacity="0" result="BackgroundImageFix"/>
<feColorMatrix in="SourceAlpha" type="matrix" values="0 0 0 0 0 0 0 0 0 0 0 0 0 0 0 0 0 0 127 0"/>
<feOffset dy="10"/>
<feGaussianBlur stdDeviation="15"/>
<feColorMatrix type="matrix" values="0 0 0 0 0 0 0 0 0 0 0 0 0 0 0 0 0 0 0.45 0"/>
<feBlend mode="normal" in2="BackgroundImageFix" result="effect1_dropShadow"/>
<feBlend mode="normal" in="SourceGraphic" in2="effect1_dropShadow" result="shape"/>
</filter>
<filter id="filter8_d" x="176" y="55" width="148" height="148" filterUnits="userSpaceOnUse" color-interpolation-filters="sRGB">
<feFlood flood-opacity="0" result="BackgroundImageFix"/>
<feColorMatrix in="SourceAlpha" type="matrix" values="0 0 0 0 0 0 0 0 0 0 0 0 0 0 0 0 0 0 127 0"/>
<feOffset dy="10"/>
<feGaussianBlur stdDeviation="15"/>
<feColorMatrix type="matrix" values="0 0 0 0 0 0 0 0 0 0 0 0 0 0 0 0 0 0 0.45 0"/>
<feBlend mode="normal" in2="BackgroundImageFix" result="effect1_dropShadow"/>
<feBlend mode="normal" in="SourceGraphic" in2="effect1_dropShadow" result="shape"/>
</filter>
<filter id="filter9_dd" x="8" y="143" width="194" height="93" filterUnits="userSpaceOnUse" color-interpolation-filters="sRGB">
<feFlood flood-opacity="0" result="BackgroundImageFix"/>
<feColorMatrix in="SourceAlpha" type="matrix" values="0 0 0 0 0 0 0 0 0 0 0 0 0 0 0 0 0 0 127 0"/>
<feOffset dy="10"/>
<feGaussianBlur stdDeviation="15"/>
<feColorMatrix type="matrix" values="0 0 0 0 0 0 0 0 0 0 0 0 0 0 0 0 0 0 0.45 0"/>
<feBlend mode="normal" in2="BackgroundImageFix" result="effect1_dropShadow"/>
<feColorMatrix in="SourceAlpha" type="matrix" values="0 0 0 0 0 0 0 0 0 0 0 0 0 0 0 0 0 0 127 0"/>
<feOffset dy="3"/>
<feColorMatrix type="matrix" values="0 0 0 0 0 0 0 0 0 0.631373 0 0 0 0 0.937255 0 0 0 1 0"/>
<feBlend mode="normal" in2="effect1_dropShadow" result="effect2_dropShadow"/>
<feBlend mode="normal" in="SourceGraphic" in2="effect2_dropShadow" result="shape"/>
</filter>
<filter id="filter10_dd" x="195" y="77" width="194" height="93" filterUnits="userSpaceOnUse" color-interpolation-filters="sRGB">
<feFlood flood-opacity="0" result="BackgroundImageFix"/>
<feColorMatrix in="SourceAlpha" type="matrix" values="0 0 0 0 0 0 0 0 0 0 0 0 0 0 0 0 0 0 127 0"/>
<feOffset dy="10"/>
<feGaussianBlur stdDeviation="15"/>
<feColorMatrix type="matrix" values="0 0 0 0 0 0 0 0 0 0 0 0 0 0 0 0 0 0 0.45 0"/>
<feBlend mode="normal" in2="BackgroundImageFix" result="effect1_dropShadow"/>
<feColorMatrix in="SourceAlpha" type="matrix" values="0 0 0 0 0 0 0 0 0 0 0 0 0 0 0 0 0 0 127 0"/>
<feOffset dy="3"/>
<feColorMatrix type="matrix" values="0 0 0 0 0 0 0 0 0 0.631373 0 0 0 0 0.937255 0 0 0 1 0"/>
<feBlend mode="normal" in2="effect1_dropShadow" result="effect2_dropShadow"/>
<feBlend mode="normal" in="SourceGraphic" in2="effect2_dropShadow" result="shape"/>
</filter>
<filter id="filter11_d" x="80.6746" y="110.161" width="93.8172" height="43.0305" filterUnits="userSpaceOnUse" color-interpolation-filters="sRGB">
<feFlood flood-opacity="0" result="BackgroundImageFix"/>
<feColorMatrix in="SourceAlpha" type="matrix" values="0 0 0 0 0 0 0 0 0 0 0 0 0 0 0 0 0 0 127 0"/>
<feOffset dy="1"/>
<feGaussianBlur stdDeviation="2"/>
<feColorMatrix type="matrix" values="0 0 0 0 0 0 0 0 0 0 0 0 0 0 0 0 0 0 0.27 0"/>
<feBlend mode="normal" in2="BackgroundImageFix" result="effect1_dropShadow"/>
<feBlend mode="normal" in="SourceGraphic" in2="effect1_dropShadow" result="shape"/>
</filter>
<filter id="filter12_d" x="118.057" y="364.73" width="157.167" height="21.4616" filterUnits="userSpaceOnUse" color-interpolation-filters="sRGB">
<feFlood flood-opacity="0" result="BackgroundImageFix"/>
<feColorMatrix in="SourceAlpha" type="matrix" values="0 0 0 0 0 0 0 0 0 0 0 0 0 0 0 0 0 0 127 0"/>
<feOffset dy="1"/>
<feGaussianBlur stdDeviation="2"/>
<feColorMatrix type="matrix" values="0 0 0 0 0 0 0 0 0 0 0 0 0 0 0 0 0 0 0.27 0"/>
<feBlend mode="normal" in2="BackgroundImageFix" result="effect1_dropShadow"/>
<feBlend mode="normal" in="SourceGraphic" in2="effect1_dropShadow" result="shape"/>
</filter>
<linearGradient id="paint0_linear" x1="204" y1="28" x2="204" y2="145" gradientUnits="userSpaceOnUse">
<stop stop-color="#3E444B" stop-opacity="0"/>
<stop offset="1" stop-color="#3E444B"/>
</linearGradient>
<linearGradient id="paint1_linear" x1="199" y1="288" x2="199" y2="504" gradientUnits="userSpaceOnUse">
<stop stop-color="#13171C" stop-opacity="0"/>
<stop offset="1" stop-color="#13171C"/>
</linearGradient>
</defs>
</svg>
