<svg width="32" height="32" viewBox="0 0 32 32" fill="none" xmlns="http://www.w3.org/2000/svg">
  <path d="M21.1882 8.03747L18.8672 5.09605C18.9491 5.00964 19.0388 4.91586 19.1365 4.81452C19.6347 4.29902 20.4324 3.57073 21.3224 2.9792C22.242 2.368 23.1165 2 23.801 2H29V30H23.8C22.2799 30 20.5224 28.8398 19.2054 27.2777L18.9076 26.8678L21.1873 23.9854C21.1873 23.9854 21.1873 23.9854 21.1873 23.9853C24.9367 19.2461 24.9381 12.7767 21.1886 8.03797C21.1885 8.0378 21.1883 8.03763 21.1882 8.03747Z" stroke="#017D73" stroke-width="2"/>
  <path d="M17.267 11.1395L17.2678 11.1406C19.5779 14.0598 19.5782 17.9609 17.2659 20.8824L17.2657 20.8827L11.4107 28.2856C11.4107 28.2856 11.4107 28.2857 11.4107 28.2857C10.5677 29.3513 9.22146 30 7.815 30H3V2H7.81C9.22095 2 10.5689 2.65129 11.412 3.71946C11.412 3.71947 11.412 3.71949 11.412 3.71951L17.267 11.1395Z" stroke="#343741" stroke-width="2"/>
  <path d="M17.2105 21.1254L15.31 23.4123L12.8814 21.0168C10.3527 18.0627 10.3903 13.7569 12.884 11.0593C13.898 9.97667 14.6939 9.15785 15.2809 8.58921L17.2714 11.0032C19.6073 14.0114 19.5622 18.094 17.2105 21.1254Z" stroke="#343741" stroke-width="2"/>
</svg>
