<svg xmlns="http://www.w3.org/2000/svg" width="24" height="24" fill="none" viewBox="0 0 24 24">
  <g clip-path="url(#a)">
    <path fill="#343741" d="m10.059 19.244-5.303-5.303 1.673-.448 4.078 4.078 5.572-1.493 1.492-5.57-4.078-4.08.448-1.672 5.303 5.303-1.716 6.408 3.712 3.712-.224.836-.837.225-3.712-3.713-6.408 1.717Z"/>
    <path fill="#007871" fill-rule="evenodd" d="m14.652 14.652-3.623.97-2.651-2.651.746-2.786L2.76 3.821l.224-.837.837-.224 6.364 6.364 2.785-.746 2.652 2.652-.97 3.622Zm-.703-3.174-.522 1.95-1.95.521-1.426-1.427.522-1.949 1.95-.522 1.426 1.427Z" clip-rule="evenodd"/>
  </g>
  <defs>
    <clipPath id="a">
      <path fill="#fff" d="M0 0h24v24H0z"/>
    </clipPath>
  </defs>
</svg>
