<svg xmlns="http://www.w3.org/2000/svg" width="40" height="40" fill="none" viewBox="0 0 40 40">
  <rect width="40" height="40" fill="#79AAD9" rx="20"/>
  <g clip-path="url(#a)">
    <path fill="#343741" fill-rule="evenodd" d="m15.713 24.611-2.867.823a3.798 3.798 0 1 1-2.094-7.302l2.92-.837a3.798 3.798 0 0 1 3.833 1.068L19.8 10.36c.208-.728.9-1.346 1.738-1.856.406-.247.781-.417 1.17-.48 1.22-.2 2.254.836 1.891 2.132l-2.239 7.807 7.483-2.145c1.296-.363 2.331.671 2.133 1.891-.064.389-.233.764-.48 1.17-.511.838-1.13 1.53-1.857 1.738l-7.355 2.11a3.795 3.795 0 0 1 .84 3.6l-.838 2.92a3.798 3.798 0 0 1-7.302-2.094l.73-2.543Zm.494-1.722.72-2.51a2.279 2.279 0 0 0-2.835-1.625l-2.921.838a2.279 2.279 0 0 0 1.256 4.381l3.78-1.084Zm5.66-3.203-.494 1.722 7.847-2.25c.487-.14 1.773-2.084 1.042-1.88l-8.395 2.408Zm-5.422 7.887a2.279 2.279 0 0 0 4.38 1.256l.838-2.92a2.279 2.279 0 0 0-2.328-2.904l3.804-13.267c.205-.731-1.74.555-1.88 1.042l-4.814 16.793Zm1.46.419.837-2.92a.76.76 0 1 1 1.46.418l-.837 2.92a.76.76 0 1 1-1.46-.418Zm-5.897-5.479a.76.76 0 0 1-.418-1.46l2.92-.838a.76.76 0 1 1 .419 1.46l-2.92.838Z" clip-rule="evenodd"/>
  </g>
  <defs>
    <clipPath id="a">
      <path fill="#fff" d="M8 8h24v24H8z"/>
    </clipPath>
  </defs>
</svg>
