<svg xmlns="http://www.w3.org/2000/svg" width="40" height="40" fill="none"><rect width="40" height="40" fill="#79AAD9" rx="20"/><path fill="#343741" d="M19.871 9.5c-5.4 0-8.845 1.666-8.845 2.814s3.445 2.816 8.845 2.816 8.846-1.667 8.846-2.816S25.271 9.5 19.871 9.5m5.97 11.982c-1.781.497-3.902.753-5.97.753-2.074 0-4.202-.258-5.987-.758l4.295 4.863v3.773c.203.12.772.321 1.692.321.915 0 1.483-.2 1.689-.319v-3.774l4.28-4.86Zm3.59-1.81-6.371 7.235v3.37h.006c0 1.144-1.604 1.657-3.195 1.657s-3.195-.513-3.195-1.657h.003v-3.369l-6.697-7.584.013-.012c-.319-.423-.495-.89-.495-1.401v-5.742h.03C9.71 9.459 14.942 8 19.871 8s10.16 1.46 10.34 4.169h.031v5.742c0 .514-.18.985-.503 1.412l-.004.005a3.4 3.4 0 0 1-.303.344Zm-.866-1.283a.84.84 0 0 0 .177-.478v-3.295c-1.931 1.319-5.473 2.014-8.871 2.014s-6.94-.695-8.871-2.014v3.295c0 1.152 3.456 2.824 8.871 2.824 4.318 0 7.39-1.063 8.458-2.078z"/></svg>