<svg xmlns="http://www.w3.org/2000/svg" width="128" height="128" fill="none"><path fill="url(#a)" d="M44.457 48.908c4.614 14.107 6.36 39.271 19.85 39.271 1.026 0 2.065-.1 3.106-.299-12.26-2.858-13.715-27.749-21.198-40.64q-.894.818-1.758 1.668"/><path fill="url(#b)" d="M46.215 47.24c7.483 12.89 8.937 37.78 21.198 40.64a19.5 19.5 0 0 0 2.897-.782C59.303 81.705 56.26 57.535 47.763 45.9q-.771.643-1.548 1.341"/><path fill="#14559A" d="M56.997 39.575c-1.024 0-2.065.1-3.11.299-2.728.515-5.502 1.69-8.297 3.468.763.755 1.49 1.616 2.173 2.557 2.844-2.36 5.669-4.102 8.482-5.15a19 19 0 0 1 3.163-.88 9.8 9.8 0 0 0-2.412-.294"/><path fill="url(#c)" d="M78.902 82.128a49 49 0 0 0 3.384-2.966c-4.687-14.04-6.366-39.566-19.95-39.566-.97 0-1.95.091-2.928.272 12.373 3.078 13.959 29.997 19.494 42.26"/><path fill="#3092C4" d="M59.408 39.869a9.8 9.8 0 0 0-2.413-.295l5.342.02c-.97 0-1.951.09-2.929.275"/><path fill="#1969BC" d="M78.664 85.11a20 20 0 0 1-1.531-1.655C74.848 85.073 72.57 86.3 70.31 87.1c.805.393 1.648.685 2.544.866q1.038.214 2.167.215c2.539 0 4.546-.3 6.253-1.12-.94-.51-1.803-1.167-2.61-1.95"/><path fill="url(#d)" d="M56.244 40.75c11.082 5.797 12.046 32.047 20.889 42.705a37 37 0 0 0 1.766-1.327c-5.535-12.263-7.118-39.186-19.489-42.26a19 19 0 0 0-3.166.882"/><path fill="url(#e)" d="M47.763 45.9c8.498 11.635 11.54 35.806 22.547 41.2 2.262-.8 4.539-2.026 6.823-3.645-8.843-10.658-9.807-36.907-20.89-42.705-2.812 1.047-5.636 2.79-8.48 5.15"/><path fill="url(#f)" d="M39.021 48.569c-1.331 3.01-2.692 6.97-4.336 12.137 3.27-4.61 6.53-8.58 9.772-11.798a35 35 0 0 0-1.443-3.765 48 48 0 0 0-3.993 3.426"/><path fill="#2B74B1" d="M44.195 44.273c-.39.28-.784.566-1.18.869a35 35 0 0 1 1.441 3.767 69 69 0 0 1 1.76-1.669 23.3 23.3 0 0 0-2.02-2.967"/><path fill="#125A9E" d="M45.59 43.341q-.694.443-1.396.931c.726.893 1.392 1.89 2.022 2.97a46 46 0 0 1 1.548-1.344 20.7 20.7 0 0 0-2.173-2.557"/><path fill="url(#g)" d="M121.183 38.5c-6.267 24.172-19.359 43.588-30.334 48.482h-.022l-.592.254-.072.028-.168.065-.075.031-.275.097-.113.04-.137.045-.131.046-.117.04-.234.07-.1.027-.266.072-.172.045-.21.046a4.5 4.5 0 0 0 1.57.275c10.407 0 20.902-18.65 38.265-49.668h-6.818z"/><path fill="url(#h)" d="m32.424 40.557.02-.017.024-.015h.013l.168-.065.034-.017.044-.018.18-.064h.01l.4-.14.06-.016.17-.051.079-.025.172-.051.066-.018.572-.148.079-.018.167-.032.081-.026.168-.03h.04l.348-.066h.069l.16-.028.091-.016.154-.023.085-.016.373-.034a12 12 0 0 0-1.108-.056c-11.721 0-27.87 21.747-35.143 49.91h1.403a408 408 0 0 0 6.33-11.766c5.097-19.948 15.473-33.553 24.69-37.157"/><path fill="#0D82CA" d="M39.021 48.569a49 49 0 0 1 3.993-3.427q-.424-.945-.952-1.84c-1.071 1.302-2.05 3.02-3.04 5.267"/><path fill="#0D82CA" d="M39.984 40.721c.765.641 1.452 1.525 2.078 2.583q.296-.362.606-.678a11.8 11.8 0 0 0-2.832-1.981l.125.06z"/><path fill="url(#i)" d="M7.735 77.712c10.687-20.595 15.75-33.629 24.69-37.157-9.217 3.607-19.596 17.21-24.69 37.157"/><path fill="#127BCA" d="M42.668 42.626c-.208.213-.406.436-.606.678.337.562.648 1.174.953 1.838.395-.303.79-.589 1.18-.87q-.706-.876-1.527-1.646"/><path fill="url(#j)" d="m12.587 89.385-.194.023h-.037l-.165.017h-.027l-.393.026h-.04c10.816-.303 15.761-5.718 18.214-13.574 1.865-5.954 3.397-10.972 4.739-15.18-4.53 6.377-9.082 13.978-13.658 22.495-2.206 4.105-5.562 5.82-8.439 6.185"/><path fill="url(#k)" d="M12.587 89.381c2.877-.366 6.233-2.08 8.439-6.186 4.575-8.513 9.13-16.116 13.656-22.494 1.647-5.17 3.005-9.125 4.338-12.138-9.023 8.589-18.08 22.869-26.434 40.813"/><path fill="#05A1E6" d="M7.735 77.713A405 405 0 0 1 1.402 89.48H5.48a100 100 0 0 1 2.254-11.764"/><path fill="url(#l)" d="m35.877 39.665-.086.017-.153.022-.25.044-.07.016-.347.06h-.04l-.169.034-.085.023-.164.033-.077.018-.573.149-.066.018-.173.052-.079.022-.17.05-.063.017-.398.14-.18.063-.075.032-.169.062-.056.027C23.496 44.091 18.433 57.126 7.745 77.72a99 99 0 0 0-2.254 11.765h.572l3.921-.017h1.8l.392-.026h.025l.165-.017h.038l.194-.023c8.356-17.945 17.413-32.224 26.435-40.812.992-2.248 1.97-3.965 3.04-5.264-.627-1.058-1.312-1.944-2.076-2.586l-.022-.017-.128-.062-.126-.063-.122-.06-.145-.06-.113-.05-.237-.099-.102-.037-.176-.071-.095-.032-.246-.084h-.02l-.284-.08-.063-.02-.24-.067-.055-.016a8 8 0 0 0-.594-.13l-.062-.017-.258-.042-.05-.016-.306-.04H36.5l-.236-.027-.374.035"/><path fill="url(#m)" d="M96.702 51.883c-2.058 6.587-3.721 12.02-5.172 16.492 5.643-7.765 11.201-17.533 16.493-28.804-6.175 1.94-9.467 6.378-11.321 12.312"/><path fill="url(#n)" d="M91.709 86.572q-.434.22-.86.411c10.975-4.895 24.068-24.31 30.334-48.482h-1.27c-14.4 25.725-19.031 42.946-28.204 48.07"/><path fill="#079AE1" d="M84.542 84.41c2.388-2.914 4.332-7.869 6.988-16.035-3.063 4.208-6.147 7.825-9.233 10.774l-.015.026c.673 2.017 1.412 3.798 2.253 5.235"/><path fill="#1969BC" d="M84.542 84.41c-.813.993-1.674 1.748-2.631 2.308a9 9 0 0 1-.637.341 9.2 9.2 0 0 0 3.348 1.056l.548.048h.032l.263.017h.893l.101-.017.198-.016h.096l.214-.023h.018l.066-.016.228-.035h.067l.257-.043h.042l.513-.109c-1.418-.518-2.603-1.74-3.623-3.482"/><path fill="#1E5CB3" d="M64.308 88.18c1.026 0 2.064-.1 3.105-.3a19 19 0 0 0 2.897-.78 10.6 10.6 0 0 0 2.543.867q1.038.213 2.169.214H64.308m10.713 0c2.537 0 4.547-.3 6.253-1.12a9.2 9.2 0 0 0 3.348 1.056l.548.047h.032l.263.017h.315z"/><path fill="#1D60B5" d="M85.78 88.18h.586l.102-.017.2-.016h.095l.213-.023h.018l.065-.017.229-.034.07-.016.257-.042h.041l.513-.109a4.5 4.5 0 0 0 1.57.276l-3.956.017z"/><path fill="#175FAB" d="M82.29 79.176v-.016a49 49 0 0 1-3.385 2.966 38 38 0 0 1-1.768 1.327 20 20 0 0 0 1.533 1.656c.806.782 1.668 1.44 2.61 1.95q.321-.159.635-.342c.959-.56 1.819-1.316 2.632-2.307-.842-1.437-1.58-3.219-2.253-5.235"/><path fill="url(#o)" d="M115.892 38.5h-6.393l-1.013.05-.471 1.009c-5.293 11.272-10.85 21.04-16.492 28.805-2.653 8.165-4.6 13.12-6.987 16.034 1.02 1.742 2.207 2.966 3.62 3.486l.11-.025h.023l.079-.016.177-.044.106-.03.157-.041.098-.028.236-.071.118-.04.131-.048.136-.043.11-.042.276-.097.077-.028.169-.066.07-.026.594-.254h.02c.284-.124.572-.265.858-.411 9.176-5.126 13.807-22.346 28.208-48.07h-4.022z"/><path fill="#7DCBEC" d="m36.254 39.632.065.017.167.017h.057l.305.04.051.017.257.042.065.016.592.132.054.016.238.067.066.02.283.08.022.017.248.085.094.03.177.072.1.036.236.098.115.049.142.062.126.06.124.064c1.022.501 1.962 1.17 2.833 1.982q.482-.505 1.005-.913c-1.904-1.35-4.063-2.12-6.55-2.12-.288 0-.576.017-.868.039"/><path fill="#5EC5ED" d="M42.668 42.626c.534.496 1.044 1.05 1.526 1.647.468-.325.932-.638 1.396-.93a15 15 0 0 0-1.92-1.63q-.52.408-1.002.913"/><path fill="url(#p)" d="m35.977 39.7.87-.038c2.487 0 4.644.77 6.547 2.12 2.01-1.587 4.44-2.14 7.814-2.14H34.869z"/><path fill="url(#q)" d="M51.208 39.641c-3.375 0-5.8.554-7.813 2.14.664.47 1.307 1.019 1.919 1.63 2.8-1.777 5.567-2.958 8.298-3.47a17 17 0 0 1 3.105-.294h-5.51z"/><path fill="url(#r)" d="M91.53 68.38c1.453-4.475 3.112-9.907 5.174-16.496 1.856-5.937 5.144-10.375 11.316-12.312l.476-1.009c-10.064.603-14.768 5.723-17.133 13.304-4.14 13.236-6.648 21.816-9.062 27.283 3.083-2.948 6.166-6.567 9.229-10.77"/><defs><linearGradient id="a" x1="65.276" x2="65.276" y1="28.534" y2="104.691" gradientUnits="userSpaceOnUse"><stop stop-color="#0994DC"/><stop offset=".35" stop-color="#66CEF5"/><stop offset=".846" stop-color="#127BCA"/><stop offset="1" stop-color="#127BCA"/></linearGradient><linearGradient id="b" x1="65.084" x2="65.084" y1="28.623" y2="104.588" gradientUnits="userSpaceOnUse"><stop stop-color="#0E76BC"/><stop offset=".36" stop-color="#36AEE8"/><stop offset=".846" stop-color="#00ADEF"/><stop offset="1" stop-color="#00ADEF"/></linearGradient><linearGradient id="c" x1="63.978" x2="63.978" y1="94.959" y2="35.298" gradientUnits="userSpaceOnUse"><stop stop-color="#1C63B7"/><stop offset=".5" stop-color="#33BDF2"/><stop offset="1" stop-color="#33BDF2" stop-opacity=".42"/></linearGradient><linearGradient id="d" x1="63.483" x2="63.483" y1="28.399" y2="104.558" gradientUnits="userSpaceOnUse"><stop stop-color="#166AB8"/><stop offset=".4" stop-color="#36AEE8"/><stop offset=".846" stop-color="#0798DD"/><stop offset="1" stop-color="#0798DD"/></linearGradient><linearGradient id="e" x1="65.025" x2="65.025" y1="28.589" y2="104.749" gradientUnits="userSpaceOnUse"><stop stop-color="#124379"/><stop offset=".39" stop-color="#1487CB"/><stop offset=".78" stop-color="#165197"/><stop offset="1" stop-color="#165197"/></linearGradient><linearGradient id="f" x1="-6.877" x2="121.11" y1="61.566" y2="61.566" gradientUnits="userSpaceOnUse"><stop stop-color="#33BDF2" stop-opacity=".698"/><stop offset="1" stop-color="#1DACD8"/></linearGradient><linearGradient id="g" x1="64.241" x2="64.241" y1="86.648" y2="36.88" gradientUnits="userSpaceOnUse"><stop stop-color="#136AB4"/><stop offset=".6" stop-color="#59CAF5" stop-opacity=".549"/><stop offset="1" stop-color="#59CAF5" stop-opacity=".235"/></linearGradient><linearGradient id="h" x1="-1.834" x2="126.154" y1="63.23" y2="63.23" gradientUnits="userSpaceOnUse"><stop stop-color="#05A1E6" stop-opacity=".247"/><stop offset="1" stop-color="#05A1E6"/></linearGradient><linearGradient id="i" x1="65.004" x2="65.004" y1="101.752" y2="33.635" gradientUnits="userSpaceOnUse"><stop stop-color="#318ED5"/><stop offset="1" stop-color="#38A7E4"/></linearGradient><linearGradient id="j" x1="62.561" x2="62.561" y1="84.988" y2="-.792" gradientUnits="userSpaceOnUse"><stop stop-color="#05A1E6"/><stop offset="1" stop-color="#05A1E6" stop-opacity=".549"/></linearGradient><linearGradient id="k" x1="64.867" x2="64.867" y1="89.564" y2="38.5" gradientUnits="userSpaceOnUse"><stop stop-color="#1959A6"/><stop offset=".5" stop-color="#05A1E6"/><stop offset=".918" stop-color="#7EC5EA"/><stop offset="1" stop-color="#7EC5EA"/></linearGradient><linearGradient id="l" x1="75.99" x2="73.591" y1="86.675" y2="40.158" gradientUnits="userSpaceOnUse"><stop stop-color="#165096"/><stop offset="1" stop-color="#0D82CA"/></linearGradient><linearGradient id="m" x1="62.039" x2="62.039" y1="77.599" y2="36.7" gradientUnits="userSpaceOnUse"><stop stop-color="#05A1E6"/><stop offset=".874" stop-color="#0495D6"/><stop offset="1" stop-color="#0495D6"/></linearGradient><linearGradient id="n" x1="84.126" x2="81.591" y1="36.404" y2="94.065" gradientUnits="userSpaceOnUse"><stop stop-color="#38A7E4" stop-opacity=".329"/><stop offset=".962" stop-color="#0E88D3"/><stop offset="1" stop-color="#0E88D3"/></linearGradient><linearGradient id="o" x1="62.903" x2="62.903" y1="38.405" y2="90.448" gradientUnits="userSpaceOnUse"><stop stop-color="#168CD4"/><stop offset=".5" stop-color="#1C87CC"/><stop offset="1" stop-color="#154B8D"/></linearGradient><linearGradient id="p" x1="-8.757" x2="519.529" y1="235.902" y2="163.839" gradientUnits="userSpaceOnUse"><stop stop-color="#97D6EE"/><stop offset=".703" stop-color="#55C1EA"/><stop offset="1" stop-color="#55C1EA"/></linearGradient><linearGradient id="q" x1="60.425" x2="546.169" y1="-13.47" y2="142.927" gradientUnits="userSpaceOnUse"><stop stop-color="#7ACCEC"/><stop offset="1" stop-color="#3FB7ED"/></linearGradient><linearGradient id="r" x1="95.042" x2="95.042" y1="41.154" y2="90.453" gradientUnits="userSpaceOnUse"><stop stop-color="#1DA7E7"/><stop offset="1" stop-color="#37ABE7" stop-opacity="0"/></linearGradient></defs></svg>