<svg width="128" height="128" viewBox="0 0 128 128" fill="none" xmlns="http://www.w3.org/2000/svg">
<path d="M44.4574 48.9082C49.0705 63.0151 50.8178 88.1791 64.3075 88.1791C65.3331 88.1791 66.3723 88.0789 67.4135 87.8804C55.1521 85.0219 53.6983 60.1314 46.2151 47.2403C45.6188 47.7852 45.0328 48.3412 44.4574 48.9082Z" fill="url(#paint0_linear_693_142173)"/>
<path d="M46.2151 47.2403C53.6983 60.1304 55.1521 85.0208 67.4135 87.8804C68.3976 87.6946 69.366 87.433 70.3098 87.0981C59.3027 81.7048 56.2614 57.535 47.763 45.8992C47.2492 46.3274 46.7321 46.7755 46.2151 47.2403Z" fill="url(#paint1_linear_693_142173)"/>
<path d="M56.9965 39.5753C55.973 39.5753 54.9317 39.6755 53.8873 39.874C51.1593 40.3889 48.3854 41.5638 45.5905 43.3425C46.3529 44.0965 47.08 44.9582 47.763 45.8992C50.607 43.5399 53.432 41.7967 56.2446 40.7481C57.2717 40.3642 58.3302 40.07 59.4081 39.8687C58.6195 39.6714 57.8094 39.5728 56.9965 39.5753Z" fill="#14559A"/>
<path d="M78.902 82.1277C80.0746 81.1911 81.2037 80.2013 82.2859 79.1616C77.5986 65.1215 75.9202 39.5961 62.3366 39.5961C61.3653 39.5961 60.3856 39.687 59.4081 39.8677C71.7812 42.9456 73.3666 69.8653 78.902 82.1277Z" fill="url(#paint2_linear_693_142173)"/>
<path d="M59.4081 39.8687C58.6189 39.6704 57.8091 39.5715 56.9954 39.5743L62.3365 39.5941C61.3663 39.5941 60.3857 39.6839 59.4081 39.8687Z" fill="#3092C4"/>
<path d="M78.6639 85.1095C78.1233 84.5869 77.6121 84.0346 77.1328 83.4552C74.8476 85.073 72.5708 86.3002 70.3096 87.0991C71.1149 87.4918 71.9577 87.7843 72.8538 87.9649C73.5473 88.107 74.2669 88.1801 75.021 88.1801C77.5599 88.1801 79.5673 87.8793 81.2739 87.0605C80.3339 86.5508 79.4712 85.8928 78.6639 85.1095Z" fill="#1969BC"/>
<path d="M56.2437 40.7502C67.326 46.5467 68.2897 72.797 77.1328 83.4552C77.726 83.0374 78.3132 82.5946 78.8991 82.1277C73.3637 69.8653 71.7814 42.9424 59.4104 39.8677C58.3545 40.0651 57.3007 40.3575 56.2437 40.7502Z" fill="url(#paint3_linear_693_142173)"/>
<path d="M47.763 45.8992C56.2614 57.535 59.3026 81.7058 70.3096 87.0991C72.5718 86.3002 74.8486 85.074 77.1328 83.4552C68.2897 72.797 67.326 46.5477 56.2437 40.7502C53.4311 41.7967 50.607 43.5399 47.763 45.8992Z" fill="url(#paint4_linear_693_142173)"/>
<path d="M39.0213 48.5687C37.6896 51.5797 36.3288 55.5391 34.6849 60.7058C37.9549 56.0968 41.2155 52.126 44.4574 48.9082C44.0483 47.6264 43.5664 46.3699 43.0141 45.143C41.6217 46.2113 40.2888 47.3549 39.0213 48.5687Z" fill="url(#paint5_linear_693_142173)"/>
<path d="M44.1954 44.273C43.8048 44.5529 43.411 44.8391 43.0152 45.142C43.5322 46.2699 44.0105 47.5358 44.4565 48.9092C45.033 48.343 45.6192 47.786 46.2151 47.2403C45.619 46.2005 44.9439 45.2091 44.1954 44.273Z" fill="#2B74B1"/>
<path d="M45.5906 43.3414C45.1258 43.636 44.6632 43.9472 44.1942 44.272C44.9201 45.165 45.5864 46.1624 46.2162 47.2423C46.7332 46.7744 47.2491 46.3243 47.764 45.8982C47.081 44.9582 46.3541 44.0955 45.5906 43.3414Z" fill="#125A9E"/>
<path d="M121.183 38.5006C114.916 62.6724 101.824 82.0881 90.8492 86.9822H90.8273L90.2351 87.236L90.163 87.2642L89.9949 87.3289L89.9197 87.3603L89.645 87.4574L89.5322 87.4971L89.3954 87.542L89.2638 87.5879L89.1468 87.6276L88.9129 87.6986L88.8126 87.7248L88.5473 87.7968L88.375 87.8417L88.1651 87.8877C88.6612 88.0705 89.1782 88.1634 89.7348 88.1634C100.142 88.1634 110.637 69.5123 128 38.4954H121.182L121.183 38.5006Z" fill="url(#paint6_linear_693_142173)"/>
<path d="M32.4238 40.557L32.4436 40.5403L32.4676 40.5247H32.4812L32.6494 40.4599L32.6828 40.4432L32.7266 40.4254L32.9073 40.3607H32.9167L33.3167 40.2207L33.3763 40.2051L33.5476 40.1539L33.6259 40.1288L33.7982 40.0776L33.864 40.0599L34.4363 39.9116L34.5147 39.8938L34.6818 39.8615L34.7632 39.8364L34.9314 39.8051H34.9711L35.3189 39.7403H35.3878L35.5486 39.7121L35.6395 39.6964L35.793 39.6735L35.8776 39.6567L36.2515 39.6233C35.8832 39.5874 35.5135 39.5686 35.1434 39.5669C23.422 39.5669 7.27328 61.3137 0 89.4773H1.40265C3.57719 85.59 5.68789 81.6674 7.73387 77.7109C12.8296 57.7627 23.2058 44.1582 32.4238 40.5539" fill="url(#paint7_linear_693_142173)"/>
<path d="M39.0213 48.5687C40.2893 47.3551 41.622 46.2113 43.0139 45.142C42.7309 44.5119 42.4132 43.8979 42.0625 43.3028C40.9909 44.6042 40.0114 46.3211 39.0213 48.5687Z" fill="#0D82CA"/>
<path d="M39.9838 40.721C40.7494 41.3623 41.4356 42.2458 42.0622 43.3038C42.2596 43.0615 42.4602 42.837 42.668 42.626C41.8265 41.8297 40.8721 41.1621 39.8355 40.6447L39.9609 40.7043L39.9838 40.721Z" fill="#0D82CA"/>
<path d="M7.73467 77.712C18.4221 57.1173 23.4854 44.083 32.4246 40.555C23.2076 44.1624 12.8293 57.7659 7.73467 77.712Z" fill="url(#paint8_linear_693_142173)"/>
<path d="M42.668 42.626C42.4602 42.8391 42.2617 43.0615 42.0622 43.3038C42.3985 43.8657 42.7102 44.4777 43.0152 45.142C43.41 44.8391 43.8047 44.553 44.1942 44.272C43.7244 43.688 43.2148 43.1386 42.668 42.626Z" fill="#127BCA"/>
<path d="M12.5872 89.3853L12.3929 89.4083H12.3564L12.1913 89.425H12.1642L11.7715 89.4511H11.7308C22.5467 89.1482 27.492 83.733 29.9453 75.8769C31.8096 69.9227 33.3417 64.9054 34.6838 60.6964C30.1531 67.0736 25.6016 74.6748 21.026 83.192C18.8202 87.2965 15.4645 89.0114 12.5872 89.377" fill="url(#paint9_linear_693_142173)"/>
<path d="M12.587 89.3812C15.4644 89.0146 18.8201 87.3018 21.0259 83.1952C25.6014 74.6822 30.1551 67.0788 34.6816 60.7006C36.3286 55.5318 37.6874 51.5756 39.02 48.5635C29.9974 57.1517 20.9402 71.4319 12.586 89.376" fill="url(#paint10_linear_693_142173)"/>
<path d="M7.73468 77.7131C5.68873 81.6697 3.57769 85.5924 1.40241 89.4794H5.47979C5.99472 85.5164 6.74736 81.5879 7.73363 77.7152" fill="#05A1E6"/>
<path d="M35.8774 39.6651L35.7908 39.6818L35.6383 39.7037L35.3876 39.7476L35.3187 39.7643L34.9709 39.8249H34.9312L34.762 39.8583L34.6774 39.8813L34.5134 39.9136L34.4361 39.9324L33.8628 40.0807L33.797 40.0995L33.6236 40.1507L33.5453 40.1726L33.375 40.2238L33.3124 40.2405L32.9144 40.3805L32.7338 40.4431L32.6586 40.4745L32.4904 40.5371L32.434 40.5643C23.4959 44.0913 18.4326 57.1255 7.74516 77.7203C6.75678 81.5926 6.00412 85.5212 5.49132 89.4846H6.06261L9.98438 89.4678H11.7839L12.1756 89.4417H12.2006L12.3656 89.425H12.4043L12.5985 89.402C20.9538 71.457 30.011 57.1778 39.0326 48.5896C40.0248 46.342 41.0034 44.625 42.0729 43.3257C41.4462 42.2677 40.7611 41.3821 39.9966 40.7398L39.9747 40.723L39.8472 40.6614L39.7209 40.5977L39.5987 40.5382L39.4535 40.4776L39.3407 40.4285L39.1036 40.3293L39.0023 40.2917L38.8258 40.2207L38.7308 40.1894L38.4853 40.1048H38.4655L38.1814 40.0243L38.1177 40.0045L37.8785 39.9377L37.8232 39.922C37.6268 39.8711 37.4285 39.8276 37.2289 39.7914L37.1673 39.7747L36.9093 39.7329L36.8581 39.7173L36.5532 39.6765H36.4999L36.2639 39.6504L35.89 39.6849" fill="url(#paint11_linear_693_142173)"/>
<path d="M96.7018 51.8827C94.6443 58.4698 92.9805 63.9038 91.5298 68.375C97.1728 60.6098 102.731 50.8424 108.023 39.5711C101.848 41.5106 98.5556 45.9494 96.7018 51.8827Z" fill="url(#paint12_linear_693_142173)"/>
<path d="M91.7086 86.5717C91.4214 86.7179 91.1321 86.8569 90.849 86.9832C101.824 82.0881 114.917 62.6724 121.183 38.5006L119.913 38.5006C105.513 64.2255 100.882 81.4468 91.7086 86.5717Z" fill="url(#paint13_linear_693_142173)"/>
<path d="M84.5417 84.4109C86.9303 81.4959 88.8739 76.5412 91.5298 68.375C88.4666 72.5829 85.3835 76.1997 82.2973 79.1491L82.2816 79.1752C82.9552 81.192 83.6936 82.9727 84.5354 84.4098" fill="#079AE1"/>
<path d="M84.5417 84.4109C83.7292 85.403 82.8677 86.1582 81.911 86.718C81.7021 86.8402 81.4891 86.955 81.2739 87.0595C82.3122 87.6224 83.4489 87.9809 84.6223 88.1154L85.1696 88.1634H85.2019L85.4651 88.1801H86.3581L86.4594 88.1634L86.6568 88.1467H86.7529L86.967 88.1237H86.9848L87.0506 88.1081L87.2793 88.0726H87.3461L87.603 88.0297H87.6448L88.1576 87.9211C86.7404 87.4031 85.555 86.1801 84.5346 84.4391" fill="#1969BC"/>
<path d="M64.3083 88.1802C65.3339 88.1802 66.3721 88.0799 67.4134 87.8794C68.3977 87.6955 69.3662 87.4346 70.3096 87.0991C71.1149 87.4918 71.9586 87.7843 72.8527 87.9671C73.5462 88.1081 74.2668 88.1812 75.0219 88.1812H64.3083V88.1802ZM75.021 88.1801C77.5578 88.1801 79.5683 87.8803 81.2739 87.0605C82.3121 87.6237 83.4487 87.9816 84.6222 88.1164L85.1696 88.1634H85.2019L85.4651 88.1801L85.7804 88.1802L75.021 88.1801Z" fill="#1E5CB3"/>
<path d="M85.7804 88.1802L86.3664 88.1802L86.4677 88.1635L86.6672 88.1468H86.7633L86.9763 88.1238H86.9941L87.0589 88.1071L87.2876 88.0726L87.3576 88.0569L87.6155 88.0152H87.6563L88.1691 87.9065C88.6652 88.0893 89.1821 88.1823 89.7388 88.1823L85.7826 88.199L85.7804 88.1802Z" fill="#1D60B5"/>
<path d="M82.2891 79.1763V79.1596C81.2069 80.1993 80.0778 81.1891 78.9052 82.1257C78.3287 82.5851 77.7391 83.0277 77.1371 83.4532C77.6342 84.0464 78.1386 84.602 78.6702 85.1086C79.4765 85.8908 80.3382 86.5499 81.2792 87.0585C81.4933 86.953 81.7074 86.8381 81.9152 86.717C82.874 86.1572 83.7336 85.401 84.5471 84.4099C83.7054 82.9727 82.967 81.191 82.2944 79.1753" fill="#175FAB"/>
<path d="M115.892 38.5006H109.499L108.486 38.5497L108.015 39.5586C102.722 50.8309 97.1657 60.5983 91.5228 68.3635C88.87 76.5287 86.9232 81.4844 84.5357 84.3983C85.556 86.1404 86.7435 87.3644 88.1556 87.8835L88.2663 87.8595H88.2893L88.3676 87.8428L88.5451 87.7989L88.6506 87.7686L88.8083 87.7279L88.9065 87.6997L89.1425 87.6287L89.2595 87.589L89.3911 87.541L89.5269 87.4981L89.6376 87.4564L89.9133 87.3592L89.9896 87.331L90.1588 87.2652L90.2298 87.2391L90.823 86.9853H90.8439C91.1269 86.861 91.4152 86.72 91.7014 86.5738C100.877 81.4478 105.508 64.2276 119.909 38.5037H115.887L115.892 38.5006Z" fill="url(#paint14_linear_693_142173)"/>
<path d="M36.2535 39.6318L36.3193 39.6485L36.4864 39.6662H36.5428L36.8478 39.7059L36.899 39.7226L37.1559 39.7654L37.2207 39.7811L37.8128 39.9127L37.8672 39.9294L38.1053 39.9963L38.1711 40.0161L38.4541 40.0965L38.476 40.1132L38.7236 40.1978L38.8176 40.2281L38.9951 40.3002L39.0954 40.3357L39.3314 40.4339L39.4463 40.483L39.5883 40.5446L39.7137 40.6041L39.838 40.6689C40.8604 41.1702 41.8004 41.8396 42.6714 42.6512C42.9931 42.3138 43.3273 42.0109 43.6762 41.7383C41.7722 40.3879 39.6134 39.6182 37.1267 39.6182C36.8384 39.6182 36.5502 39.6349 36.2577 39.6568" fill="#7DCBEC"/>
<path d="M42.668 42.626C43.2017 43.1221 43.7118 43.6757 44.1943 44.2731C44.6622 43.9483 45.1258 43.6349 45.5905 43.3425C44.9979 42.7456 44.3555 42.2006 43.67 41.7133C43.3222 41.9848 42.9897 42.2897 42.668 42.626Z" fill="#5EC5ED"/>
<path d="M35.9766 39.6993L36.8461 39.6624C39.3345 39.6624 41.4912 40.432 43.3945 41.7817C45.4032 40.1948 47.8333 39.6413 51.2075 39.6413H34.869L35.9766 39.6993Z" fill="url(#paint15_linear_693_142173)"/>
<path d="M51.2075 39.6413C47.8333 39.6413 45.4084 40.1948 43.3945 41.7817C44.0588 42.2509 44.7022 42.7995 45.3138 43.4111C48.1133 41.6343 50.8811 40.4533 53.612 39.9419C54.6559 39.7468 55.6945 39.6466 56.7173 39.6466H51.2076L51.2075 39.6413Z" fill="url(#paint16_linear_693_142173)"/>
<path d="M91.5299 68.3792C92.9827 63.9049 94.6423 58.4729 96.7039 51.8837C98.5599 45.9473 101.848 41.5086 108.02 39.5722L108.496 38.5633C98.4324 39.1659 93.7284 44.2856 91.3628 51.867C87.2228 65.1029 84.7151 73.6827 82.3005 79.1502C85.3836 76.2018 88.4667 72.5829 91.5299 68.3792Z" fill="url(#paint17_linear_693_142173)"/>
<defs>
<linearGradient id="paint0_linear_693_142173" x1="65.2756" y1="28.5335" x2="65.2756" y2="104.691" gradientUnits="userSpaceOnUse">
<stop stop-color="#0994DC"/>
<stop offset="0.35" stop-color="#66CEF5"/>
<stop offset="0.846" stop-color="#127BCA"/>
<stop offset="1" stop-color="#127BCA"/>
</linearGradient>
<linearGradient id="paint1_linear_693_142173" x1="65.0838" y1="28.6231" x2="65.0838" y2="104.588" gradientUnits="userSpaceOnUse">
<stop stop-color="#0E76BC"/>
<stop offset="0.36" stop-color="#36AEE8"/>
<stop offset="0.846" stop-color="#00ADEF"/>
<stop offset="1" stop-color="#00ADEF"/>
</linearGradient>
<linearGradient id="paint2_linear_693_142173" x1="63.9776" y1="94.9593" x2="63.9776" y2="35.2976" gradientUnits="userSpaceOnUse">
<stop stop-color="#1C63B7"/>
<stop offset="0.5" stop-color="#33BDF2"/>
<stop offset="1" stop-color="#33BDF2" stop-opacity="0.42"/>
</linearGradient>
<linearGradient id="paint3_linear_693_142173" x1="63.4832" y1="28.3988" x2="63.4832" y2="104.558" gradientUnits="userSpaceOnUse">
<stop stop-color="#166AB8"/>
<stop offset="0.4" stop-color="#36AEE8"/>
<stop offset="0.846" stop-color="#0798DD"/>
<stop offset="1" stop-color="#0798DD"/>
</linearGradient>
<linearGradient id="paint4_linear_693_142173" x1="65.0254" y1="28.5887" x2="65.0254" y2="104.749" gradientUnits="userSpaceOnUse">
<stop stop-color="#124379"/>
<stop offset="0.39" stop-color="#1487CB"/>
<stop offset="0.78" stop-color="#165197"/>
<stop offset="1" stop-color="#165197"/>
</linearGradient>
<linearGradient id="paint5_linear_693_142173" x1="-6.87739" y1="61.5657" x2="121.11" y2="61.5657" gradientUnits="userSpaceOnUse">
<stop stop-color="#33BDF2" stop-opacity="0.698"/>
<stop offset="1" stop-color="#1DACD8"/>
</linearGradient>
<linearGradient id="paint6_linear_693_142173" x1="64.2412" y1="86.6484" x2="64.2412" y2="36.8805" gradientUnits="userSpaceOnUse">
<stop stop-color="#136AB4"/>
<stop offset="0.6" stop-color="#59CAF5" stop-opacity="0.549"/>
<stop offset="1" stop-color="#59CAF5" stop-opacity="0.235"/>
</linearGradient>
<linearGradient id="paint7_linear_693_142173" x1="-1.8336" y1="63.2297" x2="126.154" y2="63.2297" gradientUnits="userSpaceOnUse">
<stop stop-color="#05A1E6" stop-opacity="0.247"/>
<stop offset="1" stop-color="#05A1E6"/>
</linearGradient>
<linearGradient id="paint8_linear_693_142173" x1="65.0042" y1="101.752" x2="65.0042" y2="33.6353" gradientUnits="userSpaceOnUse">
<stop stop-color="#318ED5"/>
<stop offset="1" stop-color="#38A7E4"/>
</linearGradient>
<linearGradient id="paint9_linear_693_142173" x1="62.5608" y1="84.9883" x2="62.5608" y2="-0.792246" gradientUnits="userSpaceOnUse">
<stop stop-color="#05A1E6"/>
<stop offset="1" stop-color="#05A1E6" stop-opacity="0.549"/>
</linearGradient>
<linearGradient id="paint10_linear_693_142173" x1="64.8673" y1="89.564" x2="64.8673" y2="38.5003" gradientUnits="userSpaceOnUse">
<stop stop-color="#1959A6"/>
<stop offset="0.5" stop-color="#05A1E6"/>
<stop offset="0.918" stop-color="#7EC5EA"/>
<stop offset="1" stop-color="#7EC5EA"/>
</linearGradient>
<linearGradient id="paint11_linear_693_142173" x1="75.9897" y1="86.675" x2="73.5912" y2="40.1584" gradientUnits="userSpaceOnUse">
<stop stop-color="#165096"/>
<stop offset="1" stop-color="#0D82CA"/>
</linearGradient>
<linearGradient id="paint12_linear_693_142173" x1="62.0391" y1="77.5989" x2="62.0391" y2="36.7004" gradientUnits="userSpaceOnUse">
<stop stop-color="#05A1E6"/>
<stop offset="0.874" stop-color="#0495D6"/>
<stop offset="1" stop-color="#0495D6"/>
</linearGradient>
<linearGradient id="paint13_linear_693_142173" x1="84.1255" y1="36.404" x2="81.5915" y2="94.0646" gradientUnits="userSpaceOnUse">
<stop stop-color="#38A7E4" stop-opacity="0.329"/>
<stop offset="0.962" stop-color="#0E88D3"/>
<stop offset="1" stop-color="#0E88D3"/>
</linearGradient>
<linearGradient id="paint14_linear_693_142173" x1="62.9031" y1="38.4054" x2="62.9031" y2="90.4475" gradientUnits="userSpaceOnUse">
<stop stop-color="#168CD4"/>
<stop offset="0.5" stop-color="#1C87CC"/>
<stop offset="1" stop-color="#154B8D"/>
</linearGradient>
<linearGradient id="paint15_linear_693_142173" x1="-8.75728" y1="235.902" x2="519.529" y2="163.839" gradientUnits="userSpaceOnUse">
<stop stop-color="#97D6EE"/>
<stop offset="0.703" stop-color="#55C1EA"/>
<stop offset="1" stop-color="#55C1EA"/>
</linearGradient>
<linearGradient id="paint16_linear_693_142173" x1="60.4254" y1="-13.4703" x2="546.169" y2="142.927" gradientUnits="userSpaceOnUse">
<stop stop-color="#7ACCEC"/>
<stop offset="1" stop-color="#3FB7ED"/>
</linearGradient>
<linearGradient id="paint17_linear_693_142173" x1="95.0417" y1="41.1541" x2="95.0417" y2="90.4529" gradientUnits="userSpaceOnUse">
<stop stop-color="#1DA7E7"/>
<stop offset="1" stop-color="#37ABE7" stop-opacity="0"/>
</linearGradient>
</defs>
</svg>
