<svg xmlns="http://www.w3.org/2000/svg" width="16" height="16" fill="none"><path fill="#fff" d="M8 0C3.582 0 0 3.672 0 8.2c0 3.624 2.292 6.697 5.471 7.781.4.075.546-.178.546-.394 0-.196-.007-.842-.011-1.527-2.225.495-2.695-.967-2.695-.967-.364-.947-.888-1.2-.888-1.2-.727-.508.055-.498.055-.498.803.057 1.226.845 1.226.845.714 1.253 1.873.891 2.328.68.073-.528.28-.89.508-1.094-1.776-.207-3.644-.911-3.644-4.053 0-.896.312-1.627.823-2.2-.082-.21-.357-1.043.079-2.172 0 0 .67-.22 2.2.84A7.4 7.4 0 0 1 8 3.967c.68.003 1.364.094 2.003.277 1.526-1.062 2.198-.841 2.198-.841.438 1.13.162 1.963.08 2.17.513.574.822 1.305.822 2.2 0 3.15-1.87 3.845-3.653 4.048.288.254.543.753.543 1.517 0 1.096-.01 1.98-.01 2.25 0 .219.145.474.55.394C13.71 14.895 16 11.821 16 8.201 16 3.67 12.418 0 8 0"/></svg>