<svg xmlns="http://www.w3.org/2000/svg" width="128" height="128" fill="none"><g clip-path="url(#a)"><path fill="#F0DB4F" d="M0 0h128v128.001H0z"/><path fill="#323330" d="M117.525 97.473c-.938-5.84-4.745-10.745-16.025-15.318-3.918-1.8-8.286-3.09-9.588-6.06-.462-1.727-.523-2.7-.23-3.747.839-3.395 4.891-4.453 8.103-3.48 2.068.694 4.026 2.288 5.207 4.83 5.524-3.576 5.513-3.552 9.369-6.01-1.412-2.19-2.165-3.2-3.09-4.137-3.322-3.71-7.848-5.621-15.088-5.475l-3.77.488c-3.614.913-7.058 2.81-9.077 5.353-6.06 6.875-4.332 18.908 3.042 23.86 7.263 5.451 17.934 6.692 19.297 11.79 1.326 6.241-4.587 8.262-10.464 7.544-4.331-.901-6.74-3.102-9.344-7.105-4.794 2.774-4.794 2.774-9.722 5.608 1.168 2.555 2.396 3.712 4.356 5.925 9.271 9.405 32.474 8.943 36.635-5.292.169-.489 1.29-3.749.389-8.774M69.585 58.83H57.613l-.05 30.953c0 6.582.341 12.617-.73 14.467-1.75 3.638-6.29 3.187-8.358 2.481-2.105-1.034-3.176-2.506-4.416-4.585-.34-.598-.596-1.06-.682-1.095l-9.734 5.961c1.618 3.322 4.003 6.205 7.057 8.078 4.562 2.739 10.694 3.578 17.107 2.106 4.174-1.216 7.775-3.734 9.66-7.568 2.727-5.025 2.142-11.108 2.117-17.836.062-10.977.001-21.951.001-32.962"/></g><defs><clipPath id="a"><path fill="#fff" d="M0 0h128v128H0z"/></clipPath></defs></svg>