<svg xmlns="http://www.w3.org/2000/svg" width="128" height="128" fill="none"><g clip-path="url(#a)"><path fill="#fff" d="M121.173 62.879C121.173 28.83 94.7 1.23 62.037 1.23 29.38 1.23 2.9 28.83 2.9 62.879s26.479 61.651 59.137 61.651c32.662 0 59.137-27.603 59.137-61.651"/><path fill="#212178" d="M53.34 127.517c-13.91-2.461-25.842-8.812-35.703-19.006C9.25 99.843 3.477 88.929.853 76.764c-1.137-5.256-1.137-20.287 0-25.54C2.629 43 6.075 34.836 10.776 27.714c3.114-4.713 12.228-13.825 16.94-16.94C34.84 6.074 43.01 2.624 51.23.853c5.253-1.137 20.287-1.137 25.544 0C89.58 3.618 100.226 9.4 109.41 18.586c9.187 9.186 14.97 19.828 17.739 32.639 1.133 5.252 1.133 20.283 0 25.54-2.769 12.806-8.552 23.448-17.739 32.634-9.038 9.041-19.55 14.812-32.147 17.65-4.467 1.009-19.239 1.297-23.924.468m11.567-12.772c0-4.194-.061-4.497-.906-4.497-.839 0-.905.288-.87 3.897.044 4.264.343 5.572 1.212 5.284.4-.132.564-1.491.564-4.684m-6.757 1.445c1.192-1.196 1.543-1.92 1.543-3.209 0-1.316-.16-1.635-.764-1.519-.417.078-.919.76-1.114 1.507-.194.748-1 1.904-1.783 2.57-1.418 1.196-1.472 2.192-.125 2.192.386 0 1.394-.697 2.243-1.541m14.944 1.047c.167-.269-.34-1.036-1.122-1.698-.786-.666-1.59-1.822-1.783-2.57-.2-.747-.701-1.429-1.118-1.507-.6-.116-.76.203-.76 1.519 0 2.609 3.743 5.942 4.783 4.256m-20.66-8.146c0-.261-.635-.822-1.41-1.246-5.055-2.769-10.986-7.176-14.28-10.61-6.434-6.71-9.33-13.388-9.4-21.678-.049-5.54.664-8.43 3.363-13.605 2.61-5.004 5.631-8.78 13.95-17.421 9.287-9.653 11.425-12.2 13.038-15.533 1.148-2.367 1.3-3.231 1.46-8.235.2-6.215-.18-10.506-.927-10.506-.339 0-.4 1.612-.21 5.234.623 11.592-1.53 15.19-14.892 24.88-9.202 6.675-13.424 10.3-16.613 14.265-4.518 5.61-6.52 10.466-7.018 17.05-1.207 15.868 8.848 29.629 26.59 36.385 3.914 1.487 6.348 1.881 6.348 1.02m30.7-1.285c6.098-2.543 10.736-5.615 15.11-10.007 6.667-6.701 9.439-12.967 9.856-22.242.362-8.134-1.402-13.515-6.437-19.61-3.45-4.173-7.162-7.16-17.174-13.81-13.47-8.953-16.633-12.516-16.633-18.746 0-1.658.3-4.006.662-5.217.623-2.068.608-3.493-.02-1.862-.592 1.546-1.948.837-2.675-1.41l-.7-2.152.263 2.04c.943 7.242 1.06 10.276.642 16.615-.564 8.57-1.616 14.427-4.51 25.076-2.87 10.572-3.387 14.404-3.029 22.476.3 6.825 1.255 11.93 3.475 18.593 2.06 6.183 2.445 6.654 6.234 7.624 2.084.533 4.059 1.433 5.628 2.566 1.476 1.067 2.952 1.76 3.78 1.775.749.012 3.239-.755 5.528-1.709m-1.371-3.076c-.565-.565-.3-1.048 1.912-3.493 6.97-7.694 10.094-15.641 10.183-25.906.063-6.993-1.483-11.627-6.2-18.593-2.13-3.15-9.634-11.008-13.263-13.893-2.66-2.114-5.398-5.72-5.885-7.76-.494-2.068.892-1.523 2.496.98.787 1.227 2.493 3.03 3.79 4.004 1.296.977 5.132 3.835 8.524 6.355 11.664 8.67 16.859 16.066 18.023 25.672.678 5.556-.397 11.3-3.107 16.634-2.812 5.525-7.937 11.545-12.326 14.477-2.703 1.803-3.556 2.115-4.147 1.523m-22.838.584c.133-.343-1.036-2.535-2.593-4.875-4.128-6.191-5.924-9.606-7.598-14.454-1.414-4.085-1.492-4.641-1.504-10.883-.015-9.431 1.005-12.422 8.49-24.85 7.058-11.718 8.016-16.258 7.22-34.286-.287-6.46-.61-11.838-.72-11.95-.743-.744-.904 1.172-.626 7.67.544 12.94-.293 20.147-3.019 26.062-1.858 4.026-3.938 7.075-9.53 14.002-7.788 9.637-9.985 14.75-9.946 23.126.031 5.743.806 9.275 3.127 14.185 2.512 5.32 7.135 10.689 12.93 15.011 2.667 1.994 3.39 2.231 3.77 1.242"/></g><defs><clipPath id="a"><path fill="#fff" d="M0 0h128v128.001H0z"/></clipPath></defs></svg>