<svg xmlns="http://www.w3.org/2000/svg" width="128" height="128" fill="none"><path fill="#6181B6" d="M64 31.434c-35.345 0-64 14.521-64 32.433C0 81.78 28.655 96.301 64 96.301s64-14.521 64-32.434-28.655-32.433-64-32.433M47.347 70.186c-1.528 1.43-3.224 2.019-5.091 2.627-1.868.608-4.245.483-7.135.483h-6.55L26.754 83.77h-7.648l6.824-35.617H40.64c4.425 0 7.653 1.273 9.682 3.595s2.639 5.62 1.83 9.781c-.334 1.715-.897 3.31-1.69 4.73a15.8 15.8 0 0 1-3.114 3.926m22.324 3.11L72.69 58.19c.343-1.769.217-3.082-.379-3.724-.597-.644-1.866-1.074-3.808-1.074h-6.065L58.53 73.296H50.94l6.825-34.57h7.589l-1.815 9.428h6.76c4.254 0 7.187.854 8.802 2.337s2.098 3.516 1.453 6.839l-3.176 15.966zm42.174-11.71q-.5 2.572-1.689 4.701-1.19 2.133-3.113 3.9c-1.527 1.428-3.224 2.018-5.091 2.626s-4.245.483-7.136.483h-6.55L86.45 83.77h-7.648l6.824-35.617h14.709c4.425 0 7.652 1.273 9.68 3.595s2.638 5.676 1.829 9.837m-14.408-8.194h-5.239l-2.856 14.666h4.653c3.082 0 5.38-.304 6.889-1.467 1.51-1.16 2.528-2.962 3.057-5.679.507-2.61.276-4.645-.692-5.717-.969-1.073-2.906-1.803-5.812-1.803m-59.695 0h-5.24l-2.857 14.666h4.652c3.083 0 5.38-.304 6.89-1.467 1.51-1.16 2.528-2.962 3.056-5.679.507-2.61.276-4.645-.692-5.717-.967-1.073-2.903-1.803-5.81-1.803"/></svg>