<svg xmlns="http://www.w3.org/2000/svg" width="128" height="128" fill="none"><g clip-path="url(#a)"><path fill="url(#b)" d="M62.85.001C57.627.026 52.643.47 48.256 1.246 35.334 3.53 32.989 8.307 32.989 17.121v11.638h30.537v3.88H21.528c-8.874 0-16.645 5.333-19.076 15.483-2.805 11.63-2.928 18.89 0 31.035 2.17 9.04 7.354 15.481 16.23 15.481h10.5V80.686c0-10.08 8.72-18.97 19.076-18.97H78.76c8.49 0 15.267-6.991 15.267-15.517V17.122c0-8.277-6.982-14.493-15.267-15.874C73.51.374 68.069-.022 62.85 0m-16.515 9.36c3.154 0 5.73 2.618 5.73 5.838 0 3.207-2.575 5.8-5.73 5.8-3.166 0-5.73-2.593-5.73-5.8 0-3.22 2.564-5.838 5.73-5.838"/><path fill="url(#c)" d="M97.835 46.2c0 10.51-8.914 19.359-19.077 19.359H48.257c-8.355 0-15.268 7.151-15.268 15.518v29.08c0 8.274 7.195 13.143 15.268 15.516 9.665 2.84 18.935 3.355 30.501 0 7.687-2.227 15.268-6.707 15.268-15.516v-11.64h-30.5v-3.88h45.77c8.874 0 12.183-6.19 15.27-15.482 3.188-9.565 3.05-18.764 0-31.034-2.194-8.836-6.383-15.484-15.27-15.484H97.835zm-17.156 60.076c3.167 0 5.73 2.593 5.73 5.802 0 3.218-2.565 5.836-5.73 5.836-3.154 0-5.73-2.618-5.73-5.836 0-3.209 2.576-5.802 5.73-5.802"/></g><defs><linearGradient id="b" x1="-3.833" x2="91.407" y1="4.923" y2="86.04" gradientUnits="userSpaceOnUse"><stop stop-color="#5A9FD4"/><stop offset="1" stop-color="#306998"/></linearGradient><linearGradient id="c" x1="94.17" x2="68.913" y1="101.039" y2="65.62" gradientUnits="userSpaceOnUse"><stop stop-color="#FFD43B"/><stop offset="1" stop-color="#FFE873"/></linearGradient><clipPath id="a"><path fill="#fff" d="M0 0h128v128H0z"/></clipPath></defs></svg>