<svg xmlns="http://www.w3.org/2000/svg" width="128" height="128" fill="none"><path fill="#000" fill-rule="evenodd" d="M62.958 1.685c-.231.131-1.203 1.491-2.16 3.022-2.403 3.843-2.43 3.846-5.657.535-2.1-2.153-2.607-2.547-3.284-2.543-.44.003-.995.148-1.235.324s-.917 1.574-1.505 3.107c-1.347 3.511-1.412 3.625-2.159 3.764-.46.085-1.344-.395-3.466-1.88-1.566-1.098-3.103-1.996-3.414-1.996-1.292 0-1.656.689-2.272 4.293-.782 4.584-.755 4.568-4.993 2.691-1.711-.756-3.334-1.376-3.607-1.376s-.792.286-1.151.636c-.652.637-.653.64-.476 4.144l.18 3.508-.68.355c-.604.314-1.02.276-3.689-.34-3.484-.801-4.22-.78-4.926.146l-.516.677.693 2.892c.38 1.59.746 3.122.815 3.403.067.28-.05.727-.26.994-.348.438-.718.478-3.943.43-5.458-.084-5.768.373-3.513 5.171.717 1.523 1.304 2.907 1.304 3.073 0 .877-.717 1.196-3.797 1.686-1.723.274-3.22.498-3.329.498s-.431.23-.718.51c-.938.913-.672 1.771 1.455 4.697 2.649 3.644 2.644 3.657-1.732 5.29-4.976 1.855-5.077 2.313-1.288 5.816 3.529 3.261 3.532 3.214-.462 5.662C.147 62.727.1 62.77.023 63.776c-.093 1.222-.071 1.244 3.542 3.396 3.573 2.126 3.573 2.19.066 5.425-3.771 3.477-3.655 3.985 1.325 5.816 4.351 1.6 4.357 1.62 1.704 5.264-1.504 2.065-1.983 2.925-1.983 3.563 0 1.194.637 1.499 4.445 2.123 3.208.526 3.922.836 3.922 1.698 0 .177-.588 1.573-1.308 3.1-2.238 4.751-1.983 5.147 3.315 5.147 4.933 0 4.802-.147 3.74 4.19-.802 3.269-.815 3.895-.089 4.601.555.543 1.602.482 4.876-.282 2.5-.582 2.939-.622 3.518-.32l.662.345-.179 3.507c-.177 3.506-.176 3.508.476 4.145.36.35.885.637 1.167.637s1.904-.617 3.607-1.371c4.225-1.87 4.198-1.885 4.977 2.684.618 3.621.978 4.294 2.297 4.294.328 0 1.831-.86 3.344-1.912 2.656-1.847 3.345-2.136 4.052-1.698.182.113.891 1.63 1.574 3.372 1.004 2.562 1.371 3.228 1.93 3.489 1.064.497 1.722.098 4.222-2.557 3.02-3.206 3.143-3.19 5.608.704 2.722 4.299 3.427 4.289 6.218-.087 2.404-3.771 2.376-3.769 5.627-.459 2.158 2.196 2.618 2.546 3.346 2.546.464 0 1.02-.17 1.231-.378.214-.208.92-1.743 1.57-3.411.649-1.669 1.322-3.122 1.496-3.229.688-.427 1.4-.127 4.052 1.708 1.561 1.081 3.031 1.912 3.38 1.912 1.297 0 1.765-.897 2.305-4.425.46-3.007.554-3.295 1.16-3.595.597-.295.955-.196 3.754 1.043 1.703.753 3.326 1.37 3.608 1.37s.816-.295 1.185-.656l.673-.655-.185-3.363c-.177-3.212-.161-3.384.365-3.848.54-.476.596-.474 3.618.199 3.66.815 4.343.836 5.03.166.672-.655.664-.798-.255-4.577-1.031-4.24-1.169-4.09 3.785-4.09 3.377 0 3.753-.046 4.183-.508.718-.774.548-1.66-.897-4.663-.729-1.513-1.321-2.89-1.316-3.059.024-.892.744-1.197 4.069-1.724 2.034-.322 3.557-.694 3.833-.937.924-.813.584-1.872-1.525-4.755-2.644-3.613-2.633-3.648 1.601-5.169 5.069-1.82 5.213-2.428 1.42-5.942-3.514-3.254-3.515-3.236.333-5.54 4.653-2.784 4.66-3.41.083-6.18-3.937-2.382-3.935-2.348-.406-5.615 3.785-3.505 3.682-3.964-1.296-5.82-4.392-1.638-4.406-1.678-1.736-5.25 1.589-2.126 1.983-2.832 1.983-3.561 0-1.274-.586-1.56-4.44-2.166-3.219-.507-3.928-.815-3.928-1.708 0-.17.588-1.535 1.308-3.037 1.408-2.94 1.605-4.117.809-4.82-.428-.378-1.002-.432-4.071-.383-3.211.052-3.621.008-4.066-.428-.487-.477-.482-.544.278-3.635.931-3.787.935-3.879.169-4.58-.777-.712-1.262-.7-4.83.118-2.6.597-3.03.637-3.621.328l-.67-.35.371-6.99-.67-.654c-.37-.36-.893-.653-1.165-.653-.27 0-1.885.625-3.586 1.387-2.841 1.275-3.146 1.36-3.76 1.046-.613-.313-.715-.62-1.238-3.736-.605-3.603-.978-4.305-2.291-4.305-.311 0-1.855.903-3.43 2.005-2.586 1.812-2.932 1.983-3.577 1.764-.533-.182-.843-.577-1.222-1.56L78.3 5.125c-.763-1.979-1.188-2.422-2.33-2.422-.638 0-1.215.447-3.284 2.541-3.251 3.293-3.264 3.292-5.655-.531-.956-1.528-1.955-2.893-2.22-3.031-.599-.313-1.303-.312-1.853.002m2.964 11.512c2.832 1.965 1.326 6.586-2.147 6.586-3.371 0-5.069-3.959-2.661-6.206 1.358-1.27 3.305-1.423 4.808-.38M62.36 25.4c1.857.689 2.62.275 6.859-3.708l3.185-2.994 1.349.174c4.228.547 12.639 4.148 17.471 7.48 4.441 3.064 10.343 9.303 12.858 13.594l.538.919-2.383 5.233c-1.311 2.878-2.384 5.535-2.384 5.907 0 .856.576 2.211 1.131 2.66.234.19 2.459 1.234 4.943 2.32l4.516 1.976.177 1.12c.23 1.458.26 5.041.052 6.06l-.163.795h-2.578c-2.989 0-2.759-.26-2.92 3.315-.118 2.591-.76 4.024-2.221 4.95-2.381 1.515-6.311 1.24-7.978-.556-.256-.276-.754-1.663-1.107-3.084-1.03-4.15-2.416-6.48-5.198-8.746-.879-.715-1.597-1.383-1.597-1.485 0-.1.966-.893 2.147-1.76 4.302-3.161 6.776-6.841 7.048-10.486.518-6.953-5.164-13.434-13.616-15.534-2.004-.498-2.86-.514-27.65-.514-14.071 0-25.584-.09-25.584-.198 0-.257 3.127-3.215 4.969-4.7 5.058-4.076 11.629-7.284 18.434-8.997l2.353-.594 3.344 3.305c1.84 1.817 3.642 3.413 4.005 3.548M20.257 46.664c1.541.983 2.172 3.454 1.263 4.94-1.407 2.298-4.971 2.395-6.38.173-2.048-3.229 1.896-7.17 5.117-5.113m90.761.126c4.03 2.395.907 8.288-3.408 6.428-2.88-1.243-2.972-5.08-.155-6.481 1.175-.584 2.526-.564 3.563.053M32.132 76.112H18.84l-.528-2.23c-1.037-4.39-1.473-8.933-1.212-12.653l.183-2.614 4.57-1.998c2.866-1.252 4.71-2.207 4.947-2.562 1.04-1.545.94-2.649-.518-5.789L25.6 46.8h6.53zm38.265-28.674c2.846.722 4.35 2.19 4.353 4.25.003 1.51-.766 2.46-2.672 3.298-1.35.595-1.564.61-10.073.69l-8.694.082v-8.703h7.79c6.083 0 8.12.084 9.296.383M67.46 68.47c1.41.383 3.079 1.577 3.934 2.819.899 1.304 1.425 3.001 2.67 8.621 1.052 4.75 1.728 6.304 3.623 8.326 2.347 2.503 1.803 2.406 13.528 2.406 5.614 0 10.207.087 10.207.195 0 .192-3.867 4.649-4.034 4.649-.048 0-2.068-.413-4.488-.917-6.836-1.423-7.082-1.255-8.65 5.886l-1.01 4.588-.91.437c-1.52.731-6.46 2.237-9.02 2.75-4.23.849-8.836 1.136-12.883.802-6.9-.57-16.035-3.179-16.392-4.683-.076-.319-.535-2.384-1.02-4.59s-1.075-4.297-1.31-4.649c-1.131-1.682-2.321-1.786-7.555-.657-1.982.428-3.711.777-3.843.777-.25 0-3.927-4.146-3.927-4.426 0-.087 8.736-.188 19.414-.224l19.415-.065.07-6.723c.048-4.747-.019-6.827-.23-7.073-.235-.277-1.488-.35-6.018-.35h-5.72V68.21l6.603.001c3.63.001 7.026.117 7.546.257M37.544 99.043c3.088 1.834 1.607 6.639-2.044 6.636-3.745-.003-5.132-4.764-1.942-6.661 1.056-.628 2.91-.616 3.986.025m56.535.2c1.514 1.082 2.017 3.332 1.08 4.83-2.463 3.937-8.62.807-6.564-3.335 1.011-2.035 3.7-2.768 5.484-1.495" clip-rule="evenodd"/></svg>