<svg xmlns="http://www.w3.org/2000/svg" width="24" height="24" fill="none" viewBox="0 0 24 24">
  <path fill="#343741" fill-rule="evenodd" d="M11.25 1.933v-.75L12 .75l.75.433v.75l7.593 4.384.65-.375.75.433v.866l-.65.375v8.768l.65.375v.866l-.75.433-.65-.375-7.593 4.384v.75l-.75.433-.75-.433v-.75l-7.593-4.384-.65.375-.75-.433v-.866l.65-.375V7.616l-.65-.375v-.866l.75-.433.65.375 7.593-4.384Zm1.5 6 2.397 1.384 1.098-.634-3.495-2.018v1.268Zm3.147 2.683v2.768l1.098.634V9.982l-1.098.634Zm-.75 4.067-2.397 1.384v1.268l3.495-2.018-1.098-.634Zm-3.897 1.384-2.397-1.384-1.098.634 3.495 2.018v-1.268Zm-3.147-2.683v-2.768l-1.098-.634v4.036l1.098-.634Zm.75-4.067 2.397-1.384V6.665L7.755 8.683l1.098.634Zm8.892-1.5L12.75 4.933V3.665l6.093 3.518-1.098.634Zm.75 7.067V9.116l1.098-.634v7.036l-1.098-.634Zm-5.745 4.183 4.995-2.884 1.098.634-6.093 3.518v-1.268Zm-6.495-2.884 4.995 2.884v1.268l-6.093-3.518 1.098-.634Zm-.75-7.067v5.768l-1.098.634V8.482l1.098.634Zm5.745-4.183L6.255 7.817l-1.098-.634 6.093-3.518v1.268Zm-1.647 5.683L12 9.232l2.397 1.384v2.768L12 14.768l-2.397-1.384v-2.768Z" clip-rule="evenodd"/>
  <path fill="#007871" d="m12 10.5 1.299.75v1.5L12 13.5l-1.299-.75v-1.5L12 10.5Z"/>
</svg>
