<svg width="345" height="345" viewBox="0 0 345 345" fill="none" xmlns="http://www.w3.org/2000/svg">
<path d="M258.714 213.188L246.771 113.203H155.712C152.396 113.203 149.207 111.769 146.793 109.189L139.934 101.848C139.438 101.32 138.784 101.018 138.099 101.018H109.837C107.919 101.018 106.626 103.244 107.385 105.236L109.754 207.801C111.003 211.068 113.853 213.188 117.004 213.188H258.706H258.714Z" fill="#0C1C41"/>
<path d="M258.714 213.188C263.482 212.931 267.144 208.85 266.889 204.059L261.76 120.899C261.497 116.568 257.917 113.195 253.592 113.195H236.724L254.69 189.255L258.706 213.18L258.714 213.188Z" fill="#0C1C41"/>
<path d="M117.012 212.622C114.094 212.622 111.454 210.653 110.288 207.597L78.7473 121.351C78.4239 120.506 78.5292 119.541 79.0256 118.816C79.4241 118.228 80.0258 117.896 80.6726 117.896H104.723C104.783 117.896 104.874 117.896 104.994 117.888C105.174 117.888 105.423 117.873 105.723 117.873C107.656 117.873 110.356 118.311 112.221 120.408L117.245 125.026C118.907 126.595 121.088 127.455 123.374 127.455H222.059L257.864 212.622H117.012Z" fill="#DAE1EA"/>
<path d="M105.723 118.447C107.543 118.447 110.078 118.854 111.8 120.793L111.838 120.838L111.883 120.876L116.854 125.441C118.629 127.108 120.945 128.029 123.374 128.029H221.683L257.014 212.064H117.012C114.327 212.064 111.898 210.238 110.822 207.424L79.2737 121.155C79.018 120.491 79.1007 119.722 79.4918 119.156C79.6648 118.907 80.0483 118.477 80.6725 118.477H104.723C104.791 118.477 104.889 118.477 105.017 118.469C105.189 118.469 105.43 118.454 105.723 118.454M105.723 117.315C105.235 117.315 104.881 117.338 104.723 117.338H80.6725C78.7548 117.338 77.4612 119.563 78.2208 121.555L109.762 207.808C111.01 211.075 113.861 213.195 117.012 213.195H258.714L222.435 126.897H123.382C121.246 126.897 119.185 126.082 117.628 124.611L112.642 120.039C110.469 117.594 107.355 117.315 105.723 117.315Z" fill="#0C1C41"/>
<path d="M222.585 164.802V230.903C222.585 234.382 221.277 237.543 219.118 239.935C216.659 242.688 213.087 244.416 209.116 244.416H145.672C138.242 244.416 132.211 238.365 132.211 230.903V164.802C132.211 157.348 138.242 151.297 145.672 151.297H209.116C216.554 151.297 222.585 157.348 222.585 164.802Z" fill="url(#paint0_linear_3131_7007)"/>
<path d="M222.021 164.803C222.021 157.661 216.242 151.863 209.116 151.863H145.673C138.554 151.863 132.775 157.661 132.775 164.803V230.903C132.775 238.053 138.554 243.85 145.673 243.85H209.116C212.92 243.85 216.341 242.196 218.698 239.557L218.7 239.555C220.768 237.263 222.021 234.236 222.021 230.903V164.803ZM223.149 230.903C223.149 234.527 221.785 237.822 219.536 240.314L219.536 240.314C216.974 243.181 213.252 244.982 209.116 244.982H145.673C137.931 244.982 131.647 238.677 131.647 230.903V164.803C131.647 157.036 137.931 150.731 145.673 150.731H209.116C216.865 150.731 223.149 157.036 223.149 164.803V230.903Z" fill="#101C3F"/>
<path d="M222.578 164.802V170.265H210.883C207.409 170.265 204.573 167.436 204.573 163.935V151.297H209.116C216.554 151.297 222.585 157.341 222.585 164.795L222.578 164.802Z" fill="#00BEB7"/>
<path d="M223.149 165.03L223.142 165.036V170.831H210.883C207.098 170.83 204.009 167.749 204.009 163.935V150.731H209.116C216.864 150.731 223.149 157.027 223.149 164.795V165.03ZM205.137 163.935C205.137 167.122 207.719 169.699 210.883 169.699H222.014V164.568L222.017 164.563C221.894 157.529 216.165 151.863 209.116 151.863H205.137V163.935Z" fill="#0C1C41"/>
<path d="M222.976 169.865L222.179 170.665L203.723 152.15L204.521 151.35L222.976 169.865Z" fill="#0C1C41"/>
<path d="M222.585 220.665V230.903C222.585 234.381 221.277 237.543 219.118 239.935L216.96 237.769L212.688 242.055C210.379 244.371 206.423 242.734 206.423 239.452L203.521 221.789C203.521 219.752 205.168 218.1 207.183 218.1L222.578 220.657L222.585 220.665Z" fill="#0C1C41"/>
<path d="M227.707 214.991L210.101 212.071C208.078 212.071 206.431 213.716 206.439 215.746L209.349 233.416C209.349 236.69 213.297 238.335 215.606 236.019L219.87 231.741L226.195 238.086C227.91 239.806 230.685 239.806 232.399 238.086C234.114 236.366 234.114 233.582 232.399 231.862L226.075 225.516L230.301 221.276C232.61 218.96 230.978 214.999 227.707 214.999V214.991Z" fill="#0066E4"/>
<path d="M210.147 211.505L210.193 211.513L227.799 214.433L227.812 214.434C231.515 214.518 233.339 219.028 230.7 221.676L226.873 225.516L232.799 231.461C234.734 233.402 234.734 236.545 232.799 238.486C230.864 240.428 227.731 240.428 225.796 238.486L219.87 232.541L216.005 236.419C213.353 239.08 208.828 237.211 208.786 233.468L205.882 215.838L205.875 215.793V215.748C205.866 213.402 207.769 211.505 210.101 211.505H210.147ZM210.059 212.638C208.378 212.66 207.018 214.022 207.003 215.704L209.906 233.324L209.913 233.369V233.416C209.913 236.187 213.255 237.578 215.208 235.619L219.871 230.941L226.594 237.686C228.089 239.185 230.506 239.185 232 237.686C233.495 236.186 233.495 233.761 232 232.262L225.277 225.516L229.903 220.876C231.856 218.916 230.476 215.565 227.707 215.564H227.143V215.471L210.059 212.638Z" fill="#0C1C41"/>
<path d="M222.585 164.803L233.001 213.188H222.585V164.803Z" fill="#0C1C41"/>
<defs>
<linearGradient id="paint0_linear_3131_7007" x1="126.066" y1="160.177" x2="259.42" y2="257.435" gradientUnits="userSpaceOnUse">
<stop stop-color="#48EFCF"/>
<stop offset="1" stop-color="#0B64DD"/>
</linearGradient>
</defs>
</svg>