<svg width="345" height="345" viewBox="0 0 345 345" fill="none" xmlns="http://www.w3.org/2000/svg">
<path d="M217.661 147.137L217.621 227.068C217.621 229.461 215.677 231.418 213.271 231.418H108.313C105.921 231.418 103.963 229.475 103.963 227.068L103.99 148.293H103.95L103.909 140.367C103.909 137.961 105.853 136.004 108.259 136.004H139.824C141.863 136.004 143.63 137.418 144.065 139.402C144.5 141.387 146.267 142.801 148.306 142.801H213.311C215.704 142.801 217.661 144.745 217.661 147.151V147.137Z" fill="#1D3280"/>
<path d="M221.78 131.097L195.871 105.092H120.466V212.537H221.78V131.097Z" fill="white" stroke="#1D3280" stroke-width="1.35938" stroke-linecap="round" stroke-linejoin="round"/>
<path d="M195.83 105.092V131.532L221.78 131.097L195.83 105.092Z" fill="#7DEBCF" stroke="#1D3280" stroke-width="1.35938" stroke-linejoin="round"/>
<path d="M195.83 132.008L221.78 139.661V131.532L195.83 132.008Z" fill="#1D3280"/>
<path d="M104.833 230.182L126.475 174.284C128.065 170.192 131.994 167.487 136.384 167.487H231.69C236.394 167.487 239.602 172.232 237.875 176.595L216.085 231.405H105.445C104.806 231.405 104.453 230.685 104.82 230.168H104.833V230.182Z" fill="#F5F7FA" stroke="#1D3280" stroke-width="1.35938" stroke-linecap="round" stroke-linejoin="round"/>
<path d="M233.444 211.231L235.931 209.763L242.062 206.283L241.355 203.252L232.479 206.256L195.531 195.503L205.4 233.647L204.516 240.159L207.113 241.912L211.3 233.634L216.193 224.309L231.649 241.912L243.041 229.882L225.6 215.445L233.444 211.231Z" fill="#1D3280"/>
<path d="M204.856 239.507L207.439 241.26L211.3 233.634L216.193 224.309L229.284 238.147L239.411 228.02L225.6 215.446L233.444 211.232L235.931 209.764L242.062 206.284L240.771 203.456" stroke="#1D3280" stroke-width="1.35938" stroke-miterlimit="10"/>
<path d="M239.411 203.415L192.295 191.031L204.679 238.147L212.237 221.101L229.284 238.147L239.411 228.02L222.365 210.973L239.411 203.415Z" fill="#2C62D4" stroke="#1D3280" stroke-width="1.35938" stroke-miterlimit="10"/>
</svg>
