<svg width="345" height="345" viewBox="0 0 345 345" fill="none" xmlns="http://www.w3.org/2000/svg">
<path d="M266.352 204.231L261.238 121.384C260.975 117.069 257.406 113.71 253.094 113.71H155.496C152.189 113.71 149.01 112.281 146.602 109.711L139.763 102.397C139.269 101.871 138.616 101.57 137.934 101.57H109.753C107.841 101.57 106.551 103.788 107.308 105.772L109.67 207.952C110.915 211.207 113.757 213.319 116.899 213.319H258.193C262.948 213.063 266.599 208.997 266.345 204.224L266.352 204.231Z" fill="#0066E4"/>
<path d="M137.934 101.007C138.732 101.007 139.482 101.337 140.06 101.896L140.173 102.011L140.174 102.011L147.012 109.325C149.321 111.79 152.355 113.146 155.496 113.146H253.094C257.702 113.146 261.518 116.737 261.799 121.349L267.005 205.683L266.879 205.556C266.461 210.03 262.828 213.634 258.224 213.882L258.208 213.882H116.9C113.493 213.882 110.462 211.596 109.145 208.154L109.111 208.062L109.108 207.965L106.748 105.873C106.352 104.744 106.511 103.559 107.043 102.643C107.593 101.699 108.563 101.007 109.753 101.007H137.934ZM109.753 102.134C109.031 102.134 108.4 102.55 108.015 103.211C107.654 103.831 107.534 104.637 107.779 105.415L107.834 105.571L107.868 105.662L110.23 207.837C111.42 210.854 114.049 212.755 116.9 212.755H258.173C262.613 212.511 266.021 208.712 265.783 204.254L265.741 203.466L260.677 121.419C260.432 117.402 257.109 114.274 253.094 114.274H155.496C152.023 114.274 148.698 112.773 146.192 110.097L139.353 102.783C138.954 102.36 138.446 102.134 137.934 102.134H109.753Z" fill="#0C1C41"/>
<path d="M116.899 212.755C113.99 212.755 111.358 210.793 110.195 207.749L78.7451 121.827C78.4226 120.985 78.5276 120.023 79.0225 119.302C79.4199 118.715 80.0199 118.385 80.6648 118.385H104.646C104.706 118.385 104.796 118.385 104.916 118.377C105.096 118.377 105.344 118.362 105.644 118.362C107.571 118.362 110.263 118.798 112.123 120.888L117.132 125.488C118.789 127.051 120.964 127.908 123.251 127.908H221.644L257.346 212.755H116.899Z" fill="#DAE1EA"/>
<path d="M105.644 118.934C107.458 118.934 109.985 119.339 111.703 121.271L111.74 121.316L111.785 121.354L116.742 125.901C118.512 127.563 120.821 128.48 123.243 128.48H221.269L256.498 212.199H116.899C114.222 212.199 111.8 210.38 110.728 207.576L79.27 121.632C79.0151 120.971 79.0975 120.204 79.4875 119.64C79.66 119.392 80.0424 118.964 80.6648 118.964H104.646C104.714 118.964 104.811 118.964 104.939 118.956C105.111 118.956 105.351 118.941 105.644 118.941M105.644 117.806C105.156 117.806 104.804 117.829 104.646 117.829H80.6648C78.7526 117.829 77.4628 120.046 78.2202 122.03L109.67 207.959C110.915 211.214 113.757 213.326 116.899 213.326H258.193L222.019 127.352H123.251C121.121 127.352 119.067 126.54 117.514 125.075L112.543 120.52C110.375 118.084 107.271 117.806 105.644 117.806Z" fill="#0C1C41"/>
<path d="M222.169 165.115V230.967C222.169 234.433 220.864 237.582 218.712 239.965C216.26 242.708 212.698 244.43 208.738 244.43H145.478C138.069 244.43 132.055 238.401 132.055 230.967V165.115C132.055 157.689 138.069 151.66 145.478 151.66H208.738C216.155 151.66 222.169 157.689 222.169 165.115Z" fill="url(#paint0_linear_3131_7029)"/>
<path d="M221.606 165.116C221.606 158.001 215.844 152.224 208.738 152.224H145.478C138.38 152.224 132.617 158.001 132.617 165.116V230.967C132.617 238.09 138.38 243.866 145.478 243.866H208.738C212.531 243.866 215.943 242.218 218.292 239.589L218.295 239.586C220.357 237.303 221.606 234.288 221.606 230.967V165.116ZM222.731 230.967C222.731 234.578 221.371 237.861 219.129 240.343L219.128 240.343C216.573 243.199 212.862 244.993 208.738 244.993H145.478C137.758 244.993 131.492 238.712 131.492 230.967V165.116C131.492 157.378 137.758 151.097 145.478 151.097H208.738C216.465 151.097 222.731 157.378 222.731 165.116V230.967Z" fill="#101C3F"/>
<path d="M222.161 165.115V170.557H210.5C207.036 170.557 204.209 167.738 204.209 164.251V151.66H208.738C216.154 151.66 222.169 157.681 222.169 165.107L222.161 165.115Z" fill="#00BEB7"/>
<path d="M222.731 165.342L222.724 165.348V171.121H210.5C206.726 171.121 203.646 168.051 203.646 164.251V151.097H208.738C216.465 151.097 222.731 157.369 222.731 165.107V165.342ZM204.771 164.251C204.771 167.426 207.346 169.993 210.5 169.993H221.599V164.881L221.603 164.877C221.48 157.869 215.768 152.224 208.738 152.224H204.771V164.251Z" fill="#0C1C41"/>
<path d="M222.559 170.159L221.764 170.956L203.361 152.51L204.157 151.713L222.559 170.159Z" fill="#0C1C41"/>
<path d="M222.169 220.768V230.968C222.169 234.433 220.864 237.582 218.712 239.965L216.559 237.808L212.3 242.077C209.998 244.385 206.054 242.754 206.054 239.484L203.159 221.888C203.159 219.858 204.801 218.212 206.811 218.212L222.161 220.76L222.169 220.768Z" fill="#0C1C41"/>
<path d="M227.275 215.115L209.721 212.206C207.703 212.206 206.061 213.845 206.069 215.867L208.971 233.471C208.971 236.733 212.908 238.371 215.21 236.064L219.462 231.802L225.768 238.123C227.478 239.837 230.245 239.837 231.955 238.123C233.665 236.41 233.665 233.636 231.955 231.922L225.648 225.601L229.863 221.377C232.165 219.069 230.537 215.123 227.275 215.123V215.115Z" fill="#0066E4"/>
<path d="M209.767 211.643L209.812 211.65L227.367 214.559L227.38 214.56C231.073 214.644 232.892 219.137 230.26 221.775L226.444 225.6L232.353 231.523C234.282 233.457 234.282 236.588 232.353 238.522C230.423 240.456 227.299 240.456 225.37 238.522L219.461 232.599L215.608 236.463C212.963 239.114 208.451 237.251 208.409 233.523L205.513 215.959L205.506 215.914V215.869C205.497 213.532 207.395 211.643 209.721 211.643H209.767ZM209.679 212.771C208.003 212.793 206.647 214.15 206.632 215.825L209.526 233.379L209.533 233.424V233.471C209.533 236.232 212.865 237.617 214.812 235.665L219.462 231.005L226.166 237.724C227.656 239.218 230.067 239.218 231.557 237.724C233.047 236.231 233.047 233.815 231.557 232.321L224.853 225.601L229.465 220.978C231.413 219.026 230.036 215.687 227.276 215.686H226.713V215.593L209.679 212.771Z" fill="#0C1C41"/>
<path d="M222.168 165.115L232.554 213.319H222.168V165.115Z" fill="#0C1C41"/>
<defs>
<linearGradient id="paint0_linear_3131_7029" x1="125.928" y1="160.507" x2="258.816" y2="257.511" gradientUnits="userSpaceOnUse">
<stop stop-color="#48EFCF"/>
<stop offset="1" stop-color="#0B64DD"/>
</linearGradient>
</defs>
</svg>