<svg width="31" height="23" viewBox="0 0 31 23" fill="none" xmlns="http://www.w3.org/2000/svg">
<path d="M5.5 7.5C6.05228 7.5 6.5 7.94772 6.5 8.5V21.5C6.5 22.0523 6.05228 22.5 5.5 22.5H1.5C0.94772 22.5 0.5 22.0523 0.5 21.5V8.5C0.5 7.94772 0.94772 7.5 1.5 7.5H5.5ZM21.5 0.5C22.0523 0.5 22.5 0.94772 22.5 1.5V21.5C22.5 22.0523 22.0523 22.5 21.5 22.5H17.5C16.9477 22.5 16.5 22.0523 16.5 21.5V1.5C16.5 0.94772 16.9477 0.5 17.5 0.5H21.5Z" fill="#16C5C0"/>
<path d="M13.5 11.5C14.0523 11.5 14.5 11.9477 14.5 12.5V21.5C14.5 22.0523 14.0523 22.5 13.5 22.5H9.5C8.9477 22.5 8.5 22.0523 8.5 21.5V12.5C8.5 11.9477 8.9477 11.5 9.5 11.5H13.5ZM29.5 4.5C30.0523 4.5 30.5 4.94772 30.5 5.5V21.5C30.5 22.0523 30.0523 22.5 29.5 22.5H25.5C24.9477 22.5 24.5 22.0523 24.5 21.5V5.5C24.5 4.94772 24.9477 4.5 25.5 4.5H29.5Z" fill="#5A6D8C"/>
</svg>
