<svg width="345" height="345" viewBox="0 0 345 345" fill="none" xmlns="http://www.w3.org/2000/svg">
<path d="M272.693 201.885V246.924C272.693 258.625 238.423 268.124 196.128 268.124C153.832 268.124 119.562 258.625 119.562 246.924V201.885H272.682H272.693Z" fill="#00F2CD"/>
<path d="M271.869 202.707H120.386V246.925C120.386 249.421 122.223 251.994 126.029 254.486C129.802 256.956 135.316 259.212 142.204 261.12C155.968 264.932 175.033 267.302 196.128 267.302C217.223 267.302 236.287 264.932 250.051 261.12C256.939 259.212 262.453 256.956 266.226 254.486C270.032 251.994 271.869 249.421 271.869 246.925V202.707ZM273.516 246.925C273.516 250.278 271.069 253.281 267.128 255.86C263.154 258.462 257.457 260.774 250.491 262.704C236.547 266.566 217.328 268.945 196.128 268.945C174.928 268.945 155.709 266.566 141.764 262.704C134.798 260.774 129.101 258.462 125.127 255.86C121.186 253.281 118.739 250.278 118.739 246.925V201.063H273.516V246.925Z" fill="#0C1C41"/>
<path d="M196.139 223.095C238.424 223.095 272.704 213.604 272.704 201.896C272.704 190.188 238.424 180.697 196.139 180.697C153.853 180.697 119.573 190.188 119.573 201.896C119.573 213.604 153.853 223.095 196.139 223.095Z" fill="url(#paint0_linear_919_16511)"/>
<path d="M271.88 201.896C271.88 199.397 270.042 196.823 266.235 194.331C262.462 191.861 256.946 189.605 250.058 187.698C236.292 183.887 217.229 181.518 196.139 181.518C175.049 181.518 155.984 183.887 142.219 187.698C135.331 189.605 129.816 191.861 126.042 194.331C122.235 196.824 120.397 199.397 120.397 201.896C120.397 204.394 122.235 206.969 126.042 209.461C129.816 211.931 135.331 214.187 142.219 216.094C155.984 219.906 175.049 222.274 196.139 222.274C217.229 222.274 236.292 219.906 250.058 216.094C256.946 214.187 262.462 211.931 266.235 209.461C270.042 206.969 271.88 204.394 271.88 201.896ZM273.527 201.896C273.527 205.251 271.08 208.254 267.138 210.835C263.163 213.437 257.465 215.749 250.498 217.678C236.553 221.539 217.334 223.917 196.139 223.917C174.944 223.917 155.724 221.539 141.778 217.678C134.811 215.749 129.114 213.437 125.139 210.835C121.197 208.254 118.75 205.251 118.75 201.896C118.75 198.54 121.197 195.538 125.139 192.958C129.114 190.355 134.811 188.043 141.778 186.113C155.724 182.252 174.944 179.875 196.139 179.875C217.334 179.875 236.553 182.252 250.498 186.113C257.465 188.043 263.163 190.355 267.138 192.958C271.079 195.538 273.527 198.54 273.527 201.896Z" fill="#101C3F"/>
<path d="M258.188 242.772C260.328 242.772 262.064 239.005 262.064 234.358C262.064 229.711 260.328 225.944 258.188 225.944C256.047 225.944 254.312 229.711 254.312 234.358C254.312 239.005 256.047 242.772 258.188 242.772Z" fill="#FF3A99"/>
<path d="M261.24 234.358C261.24 232.125 260.822 230.144 260.18 228.751C259.506 227.288 258.742 226.766 258.188 226.766C257.634 226.766 256.87 227.288 256.196 228.751C255.554 230.144 255.135 232.125 255.135 234.358C255.135 236.59 255.554 238.572 256.196 239.964C256.87 241.427 257.634 241.951 258.188 241.951C258.742 241.951 259.506 241.427 260.18 239.964C260.822 238.572 261.24 236.59 261.24 234.358ZM262.887 234.358C262.887 236.772 262.439 238.998 261.677 240.651C260.949 242.233 259.775 243.594 258.188 243.594C256.601 243.594 255.427 242.233 254.699 240.651C253.937 238.998 253.488 236.772 253.488 234.358C253.488 231.944 253.937 229.718 254.699 228.066C255.427 226.484 256.601 225.122 258.188 225.122C259.775 225.123 260.949 226.484 261.677 228.066C262.438 229.718 262.887 231.944 262.887 234.358Z" fill="#0C1C41"/>
<path d="M272.693 151.05V196.089C272.693 207.79 238.423 217.289 196.128 217.289C153.832 217.289 119.562 207.79 119.562 196.089V151.05H272.682H272.693Z" fill="#00F2CD"/>
<path d="M271.869 151.872H120.386V196.09C120.386 198.586 122.223 201.159 126.029 203.651C129.802 206.12 135.316 208.377 142.204 210.285C155.968 214.097 175.033 216.467 196.128 216.467C217.223 216.467 236.287 214.097 250.051 210.285C256.939 208.377 262.453 206.12 266.226 203.651C270.032 201.159 271.869 198.586 271.869 196.09V151.872ZM273.516 196.09C273.516 199.443 271.069 202.446 267.128 205.025C263.154 207.627 257.457 209.939 250.491 211.869C236.547 215.731 217.328 218.11 196.128 218.11C174.928 218.11 155.709 215.731 141.764 211.869C134.798 209.939 129.101 207.627 125.127 205.025C121.186 202.446 118.739 199.443 118.739 196.09V150.228H273.516V196.09Z" fill="#0C1C41"/>
<path d="M237.446 188.124V198.226C225.192 200.537 210.391 201.885 194.448 201.885C183.292 201.885 172.685 201.216 163.121 200.033V189.932C172.685 191.115 183.292 191.784 194.448 191.784C210.391 191.784 225.192 190.436 237.446 188.124Z" fill="url(#paint1_linear_919_16511)"/>
<path d="M238.27 198.907L237.599 199.033C225.287 201.356 210.434 202.706 194.448 202.706C183.26 202.706 172.618 202.036 163.019 200.849L162.297 200.76V189.002L163.223 189.116C172.751 190.295 183.324 190.962 194.448 190.962C210.347 190.962 225.097 189.617 237.293 187.317L238.27 187.133V198.907ZM236.623 189.112C224.506 191.323 210.014 192.605 194.448 192.605C183.618 192.605 173.3 191.975 163.944 190.858V199.304C173.284 200.428 183.604 201.063 194.448 201.063C210.058 201.063 224.558 199.764 236.623 197.539V189.112Z" fill="#101C3F"/>
<path d="M196.139 172.26C238.424 172.26 272.704 162.769 272.704 151.061C272.704 139.353 238.424 129.862 196.139 129.862C153.853 129.862 119.573 139.353 119.573 151.061C119.573 162.769 153.853 172.26 196.139 172.26Z" fill="url(#paint2_linear_919_16511)"/>
<path d="M271.88 151.061C271.88 148.562 270.042 145.988 266.235 143.496C262.462 141.026 256.946 138.77 250.058 136.863C236.292 133.052 217.229 130.683 196.139 130.683C175.049 130.683 155.984 133.052 142.219 136.863C135.331 138.77 129.816 141.026 126.042 143.496C122.235 145.989 120.397 148.562 120.397 151.061C120.397 153.559 122.235 156.133 126.042 158.626C129.816 161.096 135.331 163.352 142.219 165.259C155.984 169.071 175.049 171.439 196.139 171.439C217.229 171.439 236.292 169.071 250.058 165.259C256.946 163.352 262.462 161.096 266.235 158.626C270.042 156.134 271.88 153.559 271.88 151.061ZM273.527 151.061C273.527 154.416 271.08 157.419 267.138 160C263.163 162.602 257.465 164.914 250.498 166.843C236.553 170.704 217.334 173.082 196.139 173.082C174.944 173.082 155.724 170.704 141.778 166.843C134.811 164.914 129.114 162.602 125.139 160C121.197 157.419 118.75 154.416 118.75 151.061C118.75 147.705 121.197 144.703 125.139 142.123C129.114 139.52 134.811 137.207 141.778 135.278C155.724 131.417 174.944 129.04 196.139 129.04C217.334 129.04 236.553 131.417 250.498 135.278C257.465 137.207 263.163 139.52 267.138 142.123C271.079 144.703 273.527 147.705 273.527 151.061Z" fill="#101C3F"/>
<path d="M258.188 191.937C260.328 191.937 262.064 188.17 262.064 183.523C262.064 178.876 260.328 175.109 258.188 175.109C256.047 175.109 254.312 178.876 254.312 183.523C254.312 188.17 256.047 191.937 258.188 191.937Z" fill="#FF3A99"/>
<path d="M261.24 183.523C261.24 181.29 260.822 179.309 260.18 177.916C259.506 176.453 258.742 175.931 258.188 175.931C257.634 175.931 256.87 176.453 256.196 177.916C255.554 179.309 255.135 181.29 255.135 183.523C255.135 185.755 255.554 187.737 256.196 189.129C256.87 190.592 257.634 191.116 258.188 191.116C258.742 191.116 259.506 190.592 260.18 189.129C260.822 187.737 261.24 185.755 261.24 183.523ZM262.887 183.523C262.887 185.937 262.439 188.163 261.677 189.816C260.949 191.398 259.775 192.759 258.188 192.759C256.601 192.759 255.427 191.398 254.699 189.816C253.937 188.163 253.488 185.937 253.488 183.523C253.488 181.109 253.937 178.883 254.699 177.231C255.427 175.649 256.601 174.287 258.188 174.287C259.775 174.287 260.949 175.649 261.677 177.231C262.438 178.883 262.887 181.109 262.887 183.523Z" fill="#0C1C41"/>
<path d="M272.693 100.314V145.353C272.693 157.054 238.423 166.553 196.128 166.553C153.832 166.553 119.562 157.054 119.562 145.353V100.314H272.682H272.693Z" fill="#00F2CD"/>
<path d="M271.869 101.136H120.386V145.353C120.386 147.85 122.223 150.423 126.029 152.914C129.802 155.384 135.316 157.641 142.204 159.549C155.968 163.361 175.033 165.731 196.128 165.731C217.223 165.731 236.287 163.361 250.051 159.549C256.939 157.641 262.453 155.384 266.226 152.914C270.032 150.423 271.869 147.85 271.869 145.353V101.136ZM273.516 145.353C273.516 148.707 271.069 151.71 267.128 154.289C263.154 156.891 257.457 159.203 250.491 161.132C236.547 164.995 217.328 167.374 196.128 167.374C174.928 167.374 155.709 164.995 141.764 161.132C134.798 159.203 129.101 156.891 125.127 154.289C121.186 151.71 118.739 148.707 118.739 145.353V99.4922H273.516V145.353Z" fill="#0C1C41"/>
<path d="M196.139 121.513C238.424 121.513 272.704 112.022 272.704 100.314C272.704 88.6057 238.424 79.1144 196.139 79.1144C153.853 79.1144 119.573 88.6057 119.573 100.314C119.573 112.022 153.853 121.513 196.139 121.513Z" fill="url(#paint3_linear_919_16511)"/>
<path d="M271.88 100.313C271.88 97.815 270.042 95.2414 266.235 92.7493C262.462 90.279 256.946 88.0232 250.058 86.1159C236.292 82.3045 217.229 79.9362 196.139 79.9361C175.049 79.9361 155.984 82.3045 142.219 86.1159C135.331 88.0231 129.816 90.2791 126.042 92.7493C122.235 95.2415 120.397 97.8149 120.397 100.313C120.397 102.812 122.235 105.386 126.042 107.879C129.816 110.349 135.331 112.605 142.219 114.512C155.984 118.324 175.049 120.692 196.139 120.692C217.229 120.692 236.292 118.323 250.058 114.512C256.946 112.605 262.462 110.349 266.235 107.879C270.042 105.386 271.88 102.812 271.88 100.313ZM273.527 100.313C273.527 103.669 271.08 106.672 267.138 109.252C263.163 111.855 257.465 114.167 250.498 116.096C236.553 119.957 217.334 122.335 196.139 122.335C174.944 122.335 155.724 119.957 141.778 116.096C134.811 114.167 129.114 111.855 125.139 109.252C121.197 106.672 118.75 103.669 118.75 100.313C118.75 96.9583 121.197 93.9556 125.139 91.3755C129.114 88.7733 134.811 86.4604 141.778 84.5313C155.724 80.67 174.944 78.2928 196.139 78.2928C217.334 78.2928 236.553 80.6701 250.498 84.5313C257.465 86.4604 263.163 88.7733 267.138 91.3755C271.079 93.9556 273.527 96.9583 273.527 100.313Z" fill="#101C3F"/>
<path d="M258.188 141.19C260.328 141.19 262.064 137.423 262.064 132.776C262.064 128.129 260.328 124.362 258.188 124.362C256.047 124.362 254.312 128.129 254.312 132.776C254.312 137.423 256.047 141.19 258.188 141.19Z" fill="#FF3A99"/>
<path d="M261.24 132.776C261.24 130.543 260.822 128.562 260.18 127.169C259.506 125.706 258.742 125.184 258.188 125.184C257.634 125.184 256.87 125.706 256.196 127.169C255.554 128.562 255.135 130.543 255.135 132.776C255.135 135.008 255.554 136.989 256.196 138.382C256.87 139.845 257.634 140.369 258.188 140.369C258.742 140.368 259.506 139.845 260.18 138.382C260.822 136.989 261.24 135.008 261.24 132.776ZM262.887 132.776C262.887 135.19 262.439 137.416 261.677 139.069C260.949 140.651 259.775 142.012 258.188 142.012C256.601 142.012 255.427 140.651 254.699 139.069C253.937 137.416 253.488 135.19 253.488 132.776C253.488 130.362 253.937 128.136 254.699 126.483C255.427 124.902 256.601 123.54 258.188 123.54C259.775 123.54 260.949 124.902 261.677 126.483C262.438 128.136 262.887 130.362 262.887 132.776Z" fill="#0C1C41"/>
<path d="M227.333 191.006V200.768C227.333 207.801 221.624 213.509 214.574 213.509C207.525 213.509 201.804 207.801 201.804 200.768V193.405L227.333 191.006Z" fill="#F4F6F9"/>
<path d="M227.333 191.006V193.526C220.328 195.29 208.403 195.805 201.804 195.958V193.405L227.333 191.006Z" fill="#A8B3C5"/>
<path d="M214.805 213.509H182.04C177.099 213.509 173.091 209.51 173.091 204.58V175.372H180.492V164.504C180.492 156.813 186.739 150.579 194.447 150.579C202.156 150.579 208.414 156.813 208.414 164.504V192.178H208.315V202.816C208.315 206.815 210.325 210.551 213.663 212.764L214.805 213.509Z" fill="url(#paint4_linear_919_16511)"/>
<path d="M111.843 270.03V168.437C111.843 167.44 111.931 166.465 112.096 165.534C113.512 157.339 120.584 151.39 128.929 151.39H191.713C184.796 155.969 180.656 163.66 180.656 171.954V255.788C180.656 263.643 174.244 270.03 166.371 270.03H111.843Z" fill="#F4F6F9"/>
<path d="M189.21 152.211C183.303 157.032 179.833 164.241 179.833 171.954V255.788C179.833 263.183 173.794 269.208 166.371 269.208H112.667V168.437C112.667 167.495 112.744 166.564 112.908 165.665C114.248 157.865 120.99 152.211 128.929 152.211H189.21ZM194.448 150.568H128.929C120.079 150.568 112.733 156.977 111.283 165.391C111.108 166.377 111.02 167.396 111.02 168.437V270.852H166.371C174.716 270.852 181.48 264.114 181.48 255.788V171.954C181.48 163.956 185.499 156.484 192.175 152.069L194.448 150.568Z" fill="#0C1C41"/>
<path d="M160.156 253.706H94.0664V257.267C94.0664 264.771 100.16 270.852 107.682 270.852H167.557L160.156 253.706Z" fill="url(#paint5_linear_919_16511)"/>
<path d="M180.656 250.386L180.327 256.949C180.327 263.982 174.606 269.69 167.557 269.69C160.508 269.69 154.787 263.982 154.787 256.949V253.706" fill="#F4F6F9"/>
<path d="M181.478 250.427L181.149 256.974C181.136 264.45 175.053 270.512 167.557 270.512C160.053 270.512 153.964 264.436 153.964 256.949V253.706H155.611V256.949C155.611 263.529 160.963 268.869 167.557 268.869C174.151 268.869 179.503 263.529 179.503 256.949V256.929L179.833 250.346L181.478 250.427Z" fill="#0C1C41"/>
<path d="M143.444 246.607V230.414C143.444 230.103 143.62 229.818 143.899 229.679L150.751 226.251C150.544 226.187 150.325 226.118 150.093 226.047C148.525 225.559 146.424 224.91 144.29 224.26C142.155 223.61 139.99 222.96 138.295 222.474C137.447 222.231 136.721 222.03 136.177 221.891C135.905 221.821 135.684 221.768 135.521 221.734C135.328 221.693 135.285 221.693 135.319 221.693C135.309 221.693 135.194 221.696 135.069 221.662C135.03 221.652 134.953 221.627 134.866 221.576C134.787 221.53 134.612 221.411 134.516 221.173C134.405 220.898 134.466 220.642 134.552 220.48C134.625 220.341 134.72 220.258 134.762 220.224C134.848 220.154 134.929 220.118 134.952 220.108C134.986 220.092 135.018 220.08 135.037 220.073C135.078 220.059 135.117 220.048 135.149 220.039C135.272 220.006 135.464 219.964 135.696 219.917C136.172 219.82 136.904 219.683 137.804 219.52C139.607 219.194 142.109 218.759 144.641 218.325C146.969 217.926 149.325 217.527 151.191 217.212L131.195 211.826C130.819 211.725 130.565 211.373 130.588 210.984C130.612 210.596 130.905 210.277 131.291 210.221L131.292 210.219C131.293 210.219 131.295 210.22 131.296 210.219C131.3 210.219 131.307 210.217 131.314 210.216C131.33 210.214 131.352 210.211 131.382 210.207C131.442 210.198 131.531 210.185 131.647 210.168C131.879 210.134 132.219 210.085 132.653 210.022C133.52 209.895 134.759 209.714 136.247 209.497C139.223 209.064 143.197 208.486 147.185 207.908C151.174 207.331 155.178 206.752 158.216 206.319C158.646 206.257 159.057 206.199 159.446 206.144C158.988 206.024 158.499 205.893 157.98 205.758C154.659 204.89 150.183 203.733 145.693 202.576C141.202 201.419 136.696 200.262 133.313 199.394C131.622 198.96 130.21 198.599 129.222 198.346C128.729 198.219 128.341 198.119 128.076 198.051C127.944 198.018 127.842 197.992 127.774 197.974C127.74 197.966 127.714 197.96 127.697 197.955C127.688 197.953 127.681 197.951 127.676 197.95C127.674 197.949 127.673 197.949 127.672 197.949L127.671 197.948C127.287 197.849 127.027 197.493 127.053 197.098C127.079 196.704 127.383 196.383 127.777 196.336L157.793 192.764L133.434 185.791C133.068 185.687 132.821 185.345 132.838 184.964C132.856 184.584 133.133 184.266 133.507 184.195L149.842 181.089L138.753 177.981C138.434 177.892 138.2 177.621 138.159 177.293C138.118 176.965 138.277 176.644 138.564 176.479L146.187 172.092C146.138 161.21 149.986 155.856 154.076 153.285C156.122 151.998 158.175 151.444 159.711 151.21C160.48 151.093 161.125 151.056 161.582 151.049C161.81 151.045 161.992 151.048 162.12 151.053C162.184 151.055 162.234 151.057 162.27 151.059C162.288 151.06 162.303 151.062 162.313 151.063C162.318 151.063 162.323 151.063 162.326 151.064H162.332C162.333 151.064 162.331 151.083 162.277 151.735L162.332 151.064C162.786 151.102 163.123 151.499 163.085 151.952C163.05 152.376 162.697 152.698 162.28 152.705L162.196 152.702H162.194C162.19 152.701 162.181 152.7 162.169 152.699C162.146 152.698 162.109 152.697 162.059 152.695C161.959 152.691 161.806 152.688 161.61 152.691C161.216 152.698 160.646 152.731 159.959 152.835C158.584 153.044 156.762 153.538 154.954 154.674C151.397 156.91 147.675 161.777 147.836 172.555C147.841 172.853 147.683 173.13 147.424 173.279L141.08 176.927L153.659 180.454C154.027 180.557 154.276 180.899 154.259 181.28C154.243 181.661 153.965 181.98 153.59 182.051L137.212 185.163L162.173 192.308C162.549 192.416 162.798 192.774 162.767 193.164C162.735 193.554 162.433 193.868 162.044 193.914L132.34 197.448C132.775 197.56 133.238 197.679 133.724 197.803C137.107 198.671 141.613 199.828 146.104 200.985C150.596 202.142 155.073 203.3 158.397 204.168C160.059 204.602 161.434 204.965 162.38 205.219C162.851 205.345 163.22 205.446 163.465 205.515C163.585 205.549 163.685 205.579 163.754 205.602C163.779 205.61 163.835 205.628 163.889 205.652C163.904 205.659 163.939 205.673 163.979 205.697C164 205.709 164.048 205.742 164.076 205.763C164.118 205.799 164.22 205.911 164.273 205.99C164.345 206.147 164.375 206.557 164.296 206.787C164.186 206.948 163.948 207.136 163.847 207.181C163.697 207.235 163.566 207.231 163.56 207.231C163.606 207.231 163.622 207.227 163.523 207.239C163.454 207.247 163.355 207.259 163.227 207.276C162.971 207.31 162.609 207.36 162.153 207.423C161.243 207.549 159.968 207.729 158.45 207.946C155.414 208.379 151.411 208.957 147.422 209.535C143.434 210.113 139.461 210.69 136.485 211.124C136.129 211.175 135.786 211.225 135.46 211.272L155.254 216.605C155.628 216.705 155.881 217.052 155.862 217.438C155.843 217.824 155.558 218.144 155.176 218.208C155.175 218.209 155.173 218.209 155.172 218.209C155.169 218.21 155.166 218.211 155.161 218.212L154.942 218.248C154.79 218.273 154.568 218.311 154.285 218.358C153.719 218.453 152.911 218.588 151.945 218.751C150.014 219.076 147.45 219.511 144.92 219.945C142.796 220.309 140.698 220.673 139.018 220.973C140.683 221.453 142.743 222.07 144.771 222.687C146.909 223.338 149.014 223.99 150.583 224.478C151.368 224.722 152.02 224.925 152.475 225.068C152.703 225.139 152.882 225.195 153.004 225.233C153.064 225.252 153.111 225.266 153.142 225.276L153.187 225.291H153.189C153.509 225.392 153.736 225.677 153.763 226.01C153.789 226.344 153.611 226.66 153.311 226.81L145.091 230.921V246.607C145.091 247.06 144.722 247.429 144.268 247.429C143.813 247.428 143.444 247.06 143.444 246.607ZM135.366 220.052C135.363 220.052 135.361 220.051 135.359 220.051L135.319 220.05C135.334 220.05 135.35 220.051 135.366 220.052ZM163.56 205.588C163.559 205.588 163.512 205.587 163.443 205.598C163.483 205.594 163.525 205.588 163.56 205.588Z" fill="#0C1C41"/>
<g style="mix-blend-mode:multiply">
<path d="M181.875 150.568V156.134C181.875 161.25 177.725 165.391 172.597 165.391H111.283C112.733 156.977 120.078 150.568 128.929 150.568H181.875Z" fill="#A8B3C5"/>
</g>
<path d="M165.174 74.2939H69.7781C63.2591 74.2939 57.9744 79.5668 57.9744 86.0714V148.377C57.9744 154.881 63.2591 160.154 69.7781 160.154H165.174C171.693 160.154 176.978 154.881 176.978 148.377V86.0714C176.978 79.5668 171.693 74.2939 165.174 74.2939Z" fill="url(#paint6_linear_919_16511)"/>
<path d="M159.552 75.269H64.1563C58.0921 75.269 53.1761 80.1741 53.1761 86.2248V148.53C53.1761 154.581 58.0921 159.486 64.1563 159.486H159.552C165.617 159.486 170.533 154.581 170.533 148.53V86.2248C170.533 80.1741 165.617 75.269 159.552 75.269Z" fill="#F4F6F9"/>
<path d="M159.552 76.0906C165.152 76.0906 169.709 80.6373 169.709 86.2247V148.53C169.709 154.118 165.152 158.664 159.552 158.664H64.1563C58.5564 158.664 53.9996 154.118 53.9996 148.53V86.2247C53.9996 80.6373 58.5564 76.0906 64.1563 76.0906H159.552ZM159.552 74.4473H64.1563C57.634 74.4473 52.3525 79.717 52.3525 86.2247V148.53C52.3525 155.038 57.634 160.308 64.1563 160.308H159.552C166.075 160.308 171.356 155.038 171.356 148.53V86.2247C171.356 79.717 166.075 74.4473 159.552 74.4473Z" fill="#0C1C41"/>
<path d="M87.2366 124.263H74.9608V146.964H87.2366V124.263Z" fill="url(#paint7_linear_919_16511)"/>
<path d="M147.617 98.331H132.936V146.964H147.617V98.331Z" fill="#A8B3C5"/>
<path d="M106.946 131.472H94.6703V146.964H106.946V131.472Z" fill="url(#paint8_linear_919_16511)"/>
<path d="M140.687 89.6182L120.008 101.69L101.398 120.793L101.064 121.138L80.4395 115.724L80.8577 114.134L100.552 119.304L118.906 100.464L118.984 100.385L119.08 100.328L139.855 88.1996L140.687 89.6182Z" fill="#00BEB7"/>
<path d="M119.54 103.896C121.202 103.896 122.549 102.553 122.549 100.895C122.549 99.2367 121.202 97.8927 119.54 97.8927C117.879 97.8927 116.532 99.2367 116.532 100.895C116.532 102.553 117.879 103.896 119.54 103.896Z" fill="#0C1C41"/>
<path d="M140.271 91.122C141.933 91.122 143.28 89.778 143.28 88.1201C143.28 86.4622 141.933 85.1182 140.271 85.1182C138.61 85.1182 137.263 86.4622 137.263 88.1201C137.263 89.778 138.61 91.122 140.271 91.122Z" fill="#0C1C41"/>
<path d="M126.7 110.349H114.424V146.964H126.7V110.349Z" fill="#A8B3C5"/>
<path d="M81.0987 117.931C82.7603 117.931 84.1073 116.587 84.1073 114.929C84.1073 113.271 82.7603 111.927 81.0987 111.927C79.4371 111.927 78.0901 113.271 78.0901 114.929C78.0901 116.587 79.4371 117.931 81.0987 117.931Z" fill="#0C1C41"/>
<path d="M100.808 123.223C102.47 123.223 103.817 121.879 103.817 120.221C103.817 118.563 102.47 117.219 100.808 117.219C99.1466 117.219 97.7997 118.563 97.7997 120.221C97.7997 121.879 99.1466 123.223 100.808 123.223Z" fill="#0C1C41"/>
<defs>
<linearGradient id="paint0_linear_919_16511" x1="119.573" y1="201.896" x2="272.693" y2="201.896" gradientUnits="userSpaceOnUse">
<stop stop-color="#48EFCF"/>
<stop offset="1" stop-color="#0B64DD"/>
</linearGradient>
<linearGradient id="paint1_linear_919_16511" x1="163.121" y1="195.005" x2="237.446" y2="195.005" gradientUnits="userSpaceOnUse">
<stop stop-color="#48EFCF"/>
<stop offset="1" stop-color="#0B64DD"/>
</linearGradient>
<linearGradient id="paint2_linear_919_16511" x1="119.573" y1="151.061" x2="272.693" y2="151.061" gradientUnits="userSpaceOnUse">
<stop stop-color="#48EFCF"/>
<stop offset="1" stop-color="#0B64DD"/>
</linearGradient>
<linearGradient id="paint3_linear_919_16511" x1="119.573" y1="100.314" x2="272.693" y2="100.314" gradientUnits="userSpaceOnUse">
<stop stop-color="#48EFCF"/>
<stop offset="1" stop-color="#0B64DD"/>
</linearGradient>
<linearGradient id="paint4_linear_919_16511" x1="173.091" y1="182.044" x2="214.805" y2="182.044" gradientUnits="userSpaceOnUse">
<stop stop-color="#101C3F"/>
<stop offset="1" stop-color="#0B64DD"/>
</linearGradient>
<linearGradient id="paint5_linear_919_16511" x1="94.0664" y1="262.284" x2="167.557" y2="262.284" gradientUnits="userSpaceOnUse">
<stop stop-color="#104DB3"/>
<stop offset="1" stop-color="#0B64DD"/>
</linearGradient>
<linearGradient id="paint6_linear_919_16511" x1="57.9744" y1="117.219" x2="176.989" y2="117.219" gradientUnits="userSpaceOnUse">
<stop stop-color="#48EFCF"/>
<stop offset="1" stop-color="#0B64DD"/>
</linearGradient>
<linearGradient id="paint7_linear_919_16511" x1="81.0987" y1="145.934" x2="81.0987" y2="115.06" gradientUnits="userSpaceOnUse">
<stop stop-color="#FF957D"/>
<stop offset="0.96" stop-color="#F04E98"/>
<stop offset="1" stop-color="#0B64DD"/>
</linearGradient>
<linearGradient id="paint8_linear_919_16511" x1="100.808" y1="145.934" x2="100.808" y2="115.06" gradientUnits="userSpaceOnUse">
<stop stop-color="#FF957D"/>
<stop offset="0.96" stop-color="#F04E98"/>
<stop offset="1" stop-color="#0B64DD"/>
</linearGradient>
</defs>
</svg>
