<svg width="345" height="345" viewBox="0 0 345 345" fill="none" xmlns="http://www.w3.org/2000/svg">
<path d="M296.504 145.245H241.974V199.775H296.504V145.245Z" fill="#48EFCF" stroke="#1D3280" stroke-width="2.39062" stroke-linecap="round" stroke-linejoin="round"/>
<path d="M296.504 145.245L311.876 160.641H257.345L241.974 145.245H296.504Z" fill="#DCE2EA" stroke="#1D3280" stroke-width="2.39062" stroke-linecap="round" stroke-linejoin="round"/>
<path d="M257.345 215.171L241.974 199.799V145.245L257.345 160.641V215.171Z" fill="#1D3280" stroke="#1D3280" stroke-width="2.39062" stroke-linecap="round" stroke-linejoin="round"/>
<path d="M311.875 160.641H257.345V215.171H311.875V160.641Z" fill="white" stroke="#1D3280" stroke-width="2.39062" stroke-linecap="round" stroke-linejoin="round"/>
<path d="M210.919 139.962H119.024V231.858H210.919V139.962Z" fill="#48EFCF" stroke="#1D3280" stroke-width="2.39062" stroke-linecap="round" stroke-linejoin="round"/>
<path d="M210.895 139.962L236.834 165.9H144.938L119.024 139.962H210.895Z" fill="#DCE2EA" stroke="#1D3280" stroke-width="2.39062" stroke-linecap="round" stroke-linejoin="round"/>
<path d="M144.938 257.796L119.024 231.858V139.962L144.938 165.9V257.796Z" fill="#1D3280" stroke="#1D3280" stroke-width="2.39062" stroke-linecap="round" stroke-linejoin="round"/>
<path d="M236.834 165.9H144.938V257.796H236.834V165.9Z" fill="white" stroke="#1D3280" stroke-width="2.39062" stroke-linecap="round" stroke-linejoin="round"/>
<path d="M95.0458 145.245H40.5156V199.775H95.0458V145.245Z" fill="#48EFCF" stroke="#1D3280" stroke-width="2.39062" stroke-linecap="round" stroke-linejoin="round"/>
<path d="M95.0458 145.245L110.441 160.641H55.9112L40.5156 145.269L95.0458 145.245Z" fill="#DCE2EA" stroke="#1D3280" stroke-width="2.39062" stroke-linecap="round" stroke-linejoin="round"/>
<path d="M55.9112 215.17L40.5156 199.799V145.269L55.9112 160.64V215.17Z" fill="#1D3280" stroke="#1D3280" stroke-width="2.39062" stroke-linecap="round" stroke-linejoin="round"/>
<path d="M110.441 160.641H55.9113V215.171H110.441V160.641Z" fill="white" stroke="#1D3280" stroke-width="2.39062" stroke-linecap="round" stroke-linejoin="round"/>
<path d="M196.145 151.149V94.6829L212.354 78.0202V51.9863" stroke="#00F2CD" stroke-width="2.39062" stroke-linecap="round" stroke-linejoin="round"/>
<path d="M162.892 151.795V117.537L146.683 100.898L146.181 88.2998" stroke="#00F2CD" stroke-width="2.39062" stroke-linecap="round" stroke-linejoin="round"/>
<path d="M177.403 144.169V79.3594" stroke="#00F2CD" stroke-width="2.39062" stroke-linecap="round" stroke-linejoin="round"/>
<path d="M212.354 36.7344C216.824 36.7344 220.458 40.3681 220.458 44.8386C220.458 49.3091 216.824 52.9428 212.354 52.9428C207.883 52.9428 204.25 49.3091 204.25 44.8386C204.25 40.3681 207.883 36.7344 212.354 36.7344Z" fill="#7DEBCF" stroke="#1D3280" stroke-width="2.39062" stroke-linecap="round" stroke-linejoin="round"/>
<path d="M146.181 73.0479C150.652 73.0479 154.285 76.6816 154.285 81.1521C154.285 85.6225 150.652 89.2563 146.181 89.2563C141.711 89.2563 138.077 85.6225 138.077 81.1521C138.077 76.6816 141.711 73.0479 146.181 73.0479Z" fill="#7DEBCF" stroke="#1D3280" stroke-width="2.39062" stroke-linecap="round" stroke-linejoin="round"/>
<path d="M177.403 64.1787C181.873 64.1787 185.507 67.8125 185.507 72.2829C185.507 76.7534 181.873 80.3871 177.403 80.3871C172.932 80.3871 169.299 76.7534 169.299 72.2829C169.299 67.8125 172.932 64.1787 177.403 64.1787Z" fill="#7DEBCF" stroke="#1D3280" stroke-width="2.39062" stroke-linecap="round" stroke-linejoin="round"/>
<path d="M215.629 223.418L208.314 243.714H222.753L215.629 223.418Z" fill="#A8B3C5"/>
<path d="M269.705 254.138L274.08 251.556L284.861 245.436L283.618 240.105L268.007 245.388L203.03 226.479L220.386 293.559L218.832 305.011L223.398 308.094L230.762 293.536L239.368 277.136L266.549 308.094L286.583 286.937L255.911 261.549L269.705 254.138Z" fill="#1D3280"/>
<path d="M219.43 303.863L223.972 306.947L230.761 293.536L239.368 277.136L262.389 301.473L280.2 283.662L255.911 261.549L269.705 254.138L274.08 251.556L284.861 245.436L282.59 240.464" stroke="#1D3280" stroke-width="2.39062" stroke-miterlimit="10"/>
<path d="M280.2 240.392L197.341 218.613L219.119 301.472L232.411 271.494L262.389 301.472L280.2 283.662L250.221 253.684L280.2 240.392Z" fill="#2C62D4" stroke="#1D3280" stroke-width="2.39062" stroke-miterlimit="10"/>
</svg>
