<svg width="120" height="105" viewBox="0 0 120 105" fill="none" xmlns="http://www.w3.org/2000/svg">
<path d="M48.8072 28.8879L48.2981 29.398L27.6295 8.69163L28.1386 8.18152L48.8072 28.8879Z" fill="#A8B3C5"/>
<path d="M81.5146 98.0346L34.5562 104.913L14.4298 92.1184V37.7622H81.5146L101.991 44.1978L81.5146 98.0346Z" fill="#0C1C41"/>
<path d="M76.0281 43.2021C76.0281 44.1641 75.9513 45.102 75.8025 46.0207C74.4585 54.3466 67.2441 60.7052 58.5561 60.7052C48.9081 60.7052 41.0889 52.8699 41.0889 43.2021C41.0889 36.1653 45.2313 30.0952 51.2073 27.3151C53.4393 26.2762 55.9305 25.6942 58.5561 25.6942C68.2041 25.6942 76.0281 33.5343 76.0281 43.2021Z" fill="#A8B3C5"/>
<path d="M75.6681 43.2023C75.6681 33.7337 68.0051 26.055 58.5559 26.055C55.9839 26.055 53.5442 26.6248 51.3587 27.6421C45.5052 30.3653 41.4489 36.311 41.4489 43.2023C41.449 52.6708 49.1068 60.3444 58.5559 60.3445C67.0646 60.3445 74.131 54.117 75.4473 45.9633V45.9628C75.593 45.0633 75.6681 44.1448 75.6681 43.2023ZM76.3881 43.2023C76.3881 44.061 76.3281 44.9012 76.2113 45.7261L76.1579 46.0784C74.7861 54.5763 67.4231 61.066 58.5559 61.066C48.7092 61.0659 40.729 53.0692 40.7289 43.2023C40.7289 36.0201 44.957 29.8249 51.0554 26.9878C53.3338 25.9273 55.8768 25.3335 58.5559 25.3335C68.4027 25.3335 76.3881 33.3353 76.3881 43.2023Z" fill="#0C1C41"/>
<g style="mix-blend-mode:multiply">
<path d="M76.0281 43.2021C76.0281 44.1641 75.9513 45.102 75.8025 46.0207C73.5657 47.0596 71.0745 47.6416 68.4489 47.6416C58.8009 47.6416 50.9817 39.8063 50.9817 30.1385C50.9817 29.1766 51.0585 28.2338 51.2073 27.3151C53.4393 26.2762 55.9305 25.6942 58.5561 25.6942C68.2041 25.6942 76.0281 33.5343 76.0281 43.2021Z" fill="#A8B3C5"/>
</g>
<path d="M101.996 44.1978H34.9113V104.475H101.996V44.1978Z" fill="#F4F6F9"/>
<path d="M102.356 43.837V104.836H34.5513V43.837H102.356ZM35.2713 104.114H101.636V44.5585H35.2713V104.114Z" fill="#0C1C41"/>
<path d="M35.4729 44.1978L21.2121 64.2886L0.581726 54.0676L14.9961 37.7622L35.4729 44.1978Z" fill="#F4F6F9"/>
<path d="M36.0534 44.0023L21.3277 64.7481L0 54.1819L14.8814 37.3479L36.0534 44.0023ZM1.16344 53.9532L21.0966 63.8284L34.8923 44.3931L15.1106 38.176L1.16344 53.9532Z" fill="#0C1C41"/>
<path d="M76.0089 44.8135H63.6825V57.1652H76.0089V44.8135Z" fill="#A8B3C5"/>
<path d="M76.0089 91.6327H63.6825V103.984H76.0089V91.6327Z" fill="#A8B3C5"/>
<path d="M34.9113 44.8135L51.9369 64.9043H114.39L101.991 44.8135H34.9113Z" fill="#F4F6F9"/>
<path d="M102.192 44.4528L115.036 65.2648H51.7704L51.6626 65.138L34.1332 44.4528H102.192ZM52.1037 64.5433H113.744L101.791 45.1742H35.689L52.1037 64.5433Z" fill="#0C1C41"/>
<path d="M53.8569 96.2502H40.8441V98.2992H53.8569V96.2502Z" fill="#A8B3C5"/>
<path d="M48.668 91.094H40.8441V93.143H48.668V91.094Z" fill="#A8B3C5"/>
<path d="M114.644 2.8043L93.9803 23.5107L93.4712 23.0005L114.135 2.29419L114.644 2.8043Z" fill="#A8B3C5"/>
<path d="M31.3881 5.88245H25.657V11.6254H31.3881V5.88245Z" fill="#A8B3C5"/>
<path d="M110.886 5.74292L116.617 5.74292V-5.43594e-05L110.886 -5.43594e-05V5.74292Z" fill="#A8B3C5"/>
<path d="M93.7651 48.597L98.4047 43.0799L112.188 54.7183C113.707 56.0014 113.901 58.2787 112.621 59.8014C111.34 61.3241 109.068 61.5186 107.548 60.2354L93.7651 48.597Z" fill="#0C1C41"/>
<path d="M95.7551 39.4901L90.2587 46.026L95.5333 50.4799L101.03 43.9439L95.7551 39.4901Z" fill="#0C1C41"/>
<path d="M76.9739 51.7348C89.1153 51.7348 98.9579 41.872 98.9579 29.7057C98.9579 17.5393 89.1153 7.67651 76.9739 7.67651C64.8324 7.67651 54.9899 17.5393 54.9899 29.7057C54.9899 41.872 64.8324 51.7348 76.9739 51.7348Z" fill="#0C1C41"/>
<path d="M76.974 43.2022C84.4127 43.2022 90.4428 37.1596 90.4428 29.7057C90.4428 22.2518 84.4127 16.2092 76.974 16.2092C69.5354 16.2092 63.5052 22.2518 63.5052 29.7057C63.5052 37.1596 69.5354 43.2022 76.974 43.2022Z" fill="#0C1C41"/>
<path d="M97.3337 45.0168L101.973 39.4997L115.756 51.1381C117.276 52.4212 117.47 54.6985 116.189 56.2212C114.909 57.7439 112.636 57.9384 111.117 56.6552L97.3337 45.0168Z" fill="#00F2CD"/>
<path d="M102.017 40.008L97.8409 44.9734L111.348 56.3792C112.716 57.534 114.761 57.359 115.914 55.9886C117.066 54.6183 116.892 52.5686 115.524 51.4138L102.017 40.008ZM115.988 50.8621C117.66 52.2736 117.873 54.7785 116.464 56.4535C115.056 58.1286 112.556 58.3425 110.884 56.9309L96.8264 45.0602L101.93 38.9913L115.988 50.8621Z" fill="#0C1C41"/>
<path d="M99.3237 35.9098L93.8273 42.4458L99.1019 46.8997L104.598 40.3637L99.3237 35.9098Z" fill="#00F2CD"/>
<path d="M99.2805 35.4013L105.106 40.3201L99.1452 47.408L93.32 42.4891L99.2805 35.4013ZM99.0586 46.3913L104.091 40.4069L99.3671 36.4179L94.3345 42.4023L99.0586 46.3913Z" fill="#0C1C41"/>
<path d="M80.545 48.1611C92.6864 48.1611 102.529 38.2983 102.529 26.1319C102.529 13.9656 92.6864 4.10278 80.545 4.10278C68.4036 4.10278 58.561 13.9656 58.561 26.1319C58.561 38.2983 68.4036 48.1611 80.545 48.1611Z" fill="#00F2CD"/>
<path d="M102.169 26.1319C102.169 14.1648 92.4875 4.46354 80.5449 4.46354C68.6024 4.4636 58.9211 14.1648 58.921 26.1319C58.921 38.099 68.6024 47.8001 80.5449 47.8002C92.4875 47.8002 102.169 38.099 102.169 26.1319ZM102.889 26.1319C102.889 38.4975 92.8852 48.5217 80.5449 48.5217C68.2047 48.5216 58.201 38.4974 58.201 26.1319C58.2011 13.7663 68.2047 3.74212 80.5449 3.74207C92.8851 3.74207 102.889 13.7663 102.889 26.1319Z" fill="#0C1C41"/>
<path d="M92.1995 35.9729C90.4139 38.094 88.1675 39.6139 85.7291 40.4893C80.7755 42.2834 75.0347 41.4513 70.7195 37.8054C64.2827 32.3751 63.4619 22.7409 68.8907 16.2909C69.3131 15.7907 69.7595 15.3241 70.2251 14.896C75.7835 9.74469 84.4235 9.44167 90.3611 14.4487C96.7979 19.8839 97.6187 29.518 92.1947 35.968L92.1995 35.9729Z" fill="#0C1C41"/>
<path d="M90.1114 33.3131C89.545 35.3766 88.537 37.3486 87.0682 39.0946C86.6458 39.5948 86.1994 40.0614 85.7338 40.4894C80.7802 42.2835 75.0394 41.4514 70.7242 37.8055C69.1978 36.5165 67.9834 34.987 67.1002 33.3131C64.249 27.9742 64.753 21.2019 68.8906 16.2862C69.313 15.786 69.7594 15.3194 70.225 14.8914C75.1786 13.0973 80.9194 13.9294 85.2346 17.5753C89.9338 21.5386 91.6378 27.7433 90.1066 33.3131H90.1114Z" fill="url(#paint0_linear_6296_1019)"/>
<g style="mix-blend-mode:multiply">
<path d="M80.1281 28.5452L86.8097 28.5546L86.819 21.8592L80.1374 21.8499L80.1281 28.5452Z" fill="#0066E4"/>
</g>
<g style="mix-blend-mode:multiply">
<path d="M80.2795 28.8463L70.9772 38.0621L70.4709 37.5491L79.7733 28.3334L80.2795 28.8463Z" fill="#0066E4"/>
</g>
<defs>
<linearGradient id="paint0_linear_6296_1019" x1="65.305" y1="27.6904" x2="90.6586" y2="27.6904" gradientUnits="userSpaceOnUse">
<stop stop-color="#153385"/>
<stop offset="1" stop-color="#0B64DD"/>
</linearGradient>
</defs>
</svg>
