<svg width="345" height="345" viewBox="0 0 345 345" fill="none" xmlns="http://www.w3.org/2000/svg">
<path d="M259.331 122.848H85.9022C78.9793 122.848 73.3672 128.46 73.3672 135.383V168.849C73.3672 175.772 78.9793 181.384 85.9022 181.384H259.331C266.254 181.384 271.866 175.772 271.866 168.849V135.383C271.866 128.46 266.254 122.848 259.331 122.848Z" fill="#153385" stroke="#101C3F" stroke-width="1.70312" stroke-miterlimit="10"/>
<path d="M259.331 116.665H85.9022C78.9793 116.665 73.3672 122.278 73.3672 129.2V162.667C73.3672 169.59 78.9793 175.202 85.9022 175.202H259.331C266.254 175.202 271.866 169.59 271.866 162.667V129.2C271.866 122.278 266.254 116.665 259.331 116.665Z" fill="white" stroke="#101C3F" stroke-width="1.70312" stroke-miterlimit="10"/>
<path d="M184.36 175.202H210.656V77.4766H184.36V175.202Z" fill="#101C3F" stroke="#101C3F" stroke-width="1.70312" stroke-miterlimit="10"/>
<path d="M179.608 175.202H205.904V77.4766H179.608V175.202Z" fill="#0B64DD" stroke="#101C3F" stroke-width="1.70312" stroke-miterlimit="10"/>
<path d="M221.471 175.219H247.767V103.432H221.471V175.219Z" fill="#101C3F" stroke="#101C3F" stroke-width="1.70312" stroke-miterlimit="10"/>
<path d="M216.736 175.219H243.032V103.432H216.736V175.219Z" fill="#0B64DD" stroke="#101C3F" stroke-width="1.70312" stroke-miterlimit="10"/>
<path d="M147.215 175.219H173.511V126.356H147.215V175.219Z" fill="#101C3F" stroke="#101C3F" stroke-width="1.70312" stroke-miterlimit="10"/>
<path d="M142.497 175.219H168.793V126.356H142.497V175.219Z" fill="#0B64DD" stroke="#101C3F" stroke-width="1.70312" stroke-miterlimit="10"/>
<path d="M121.719 147.782C136.893 142.195 150.978 148.156 158.625 158.801C135.735 140.152 100.055 162.156 103.58 190.751C104.159 195.418 105.794 199.693 108.213 203.406C102.933 198.926 99.2033 192.386 98.3688 183.735C96.853 168.1 107.157 153.146 121.702 147.782H121.719Z" fill="#101C3F" stroke="#101C3F" stroke-width="1.70312" stroke-miterlimit="10"/>
<path d="M87.6392 186.579C90.5345 209.912 113.033 225.103 135.735 221.493C173.187 215.549 192.569 162.463 156.207 140.748C124.733 121.945 83.2962 150.949 87.6392 186.579ZM154.453 153.215C178.143 173.839 157.621 211.785 128.77 211.274C113.561 211.002 100.345 199.829 98.4711 184.569C94.8945 155.582 131.563 133.288 154.453 153.215Z" fill="#48EFCF" stroke="#101C3F" stroke-width="1.70312" stroke-miterlimit="10"/>
<path d="M135.735 221.493C164.842 216.86 183.014 183.786 172.608 159.073C181.464 171.234 183.934 188.043 174.583 204.223C157.927 233.108 113.186 235.629 97.7214 208.379C107.003 218.495 121.31 223.775 135.718 221.493H135.735Z" fill="#153385" stroke="#101C3F" stroke-width="1.70312" stroke-miterlimit="10"/>
<path d="M183.219 263.266C186.021 266.89 191.23 267.557 194.854 264.756C198.479 261.955 199.146 256.746 196.345 253.121L167.943 216.374C165.141 212.749 159.932 212.082 156.308 214.883C152.684 217.684 152.016 222.893 154.818 226.518L183.219 263.266Z" fill="#153385" stroke="#101C3F" stroke-width="1.70312" stroke-miterlimit="10"/>
<path d="M185.511 261.481C188.313 265.106 193.522 265.773 197.146 262.972C200.771 260.17 201.438 254.961 198.637 251.337L170.235 214.589C167.433 210.965 162.224 210.297 158.6 213.099C154.976 215.9 154.308 221.109 157.11 224.733L185.511 261.481Z" fill="#48EFCF" stroke="#101C3F" stroke-width="1.70312" stroke-miterlimit="10"/>
</svg>
