<svg width="345" height="345" viewBox="0 0 345 345" fill="none" xmlns="http://www.w3.org/2000/svg">
<g clip-path="url(#clip0_3602_15010)">
<path d="M227.116 145.297L227.063 249.116C227.063 252.224 224.539 254.766 221.413 254.766H85.0895C81.982 254.766 79.4395 252.241 79.4395 249.116L79.4748 146.798H79.4219L79.3689 136.505C79.3689 133.379 81.8937 130.837 85.0189 130.837H126.017C128.665 130.837 130.96 132.673 131.525 135.251C132.09 137.829 134.386 139.665 137.034 139.665H221.466C224.574 139.665 227.116 142.19 227.116 145.315V145.297Z" fill="#1D3280" stroke="#1D3280" stroke-width="1.76562" stroke-miterlimit="10"/>
<path d="M232.466 124.463L198.813 90.6865H100.874V230.242H232.466V124.463Z" fill="white" stroke="#1D3280" stroke-width="1.76562" stroke-linecap="round" stroke-linejoin="round"/>
<path d="M198.76 90.6865V125.028L232.466 124.463L198.76 90.6865Z" fill="#DCE2EA" stroke="#1D3280" stroke-width="1.76562" stroke-linejoin="round"/>
<path d="M198.76 125.646L232.466 135.586V125.028L198.76 125.646Z" fill="#1D3280"/>
<path d="M80.5697 253.159L108.678 180.557C110.744 175.242 115.847 171.729 121.55 171.729H245.338C251.447 171.729 255.614 177.891 253.371 183.558L225.068 254.748H81.3642C80.5344 254.748 80.0753 253.812 80.552 253.141H80.5697V253.159Z" fill="#F5F7FA" stroke="#1D3280" stroke-width="1.76562" stroke-linecap="round" stroke-linejoin="round"/>
<path d="M158.698 144.556L156.88 110.073H168.109L166.22 144.556H158.716H158.698ZM157.392 150.329H167.456V161.117H157.392V150.329Z" fill="#1D3280"/>
<path d="M243.643 206.053L222.596 216.17C213.857 220.372 203.369 218.147 197.083 210.767L187.549 199.537L198.637 167.121H243.625V206.053H243.643Z" fill="white" stroke="#1D3280" stroke-width="1.76562" stroke-miterlimit="10"/>
<path d="M207.447 156.915C220.23 152.201 232.095 157.233 238.54 166.202C219.259 150.488 189.208 169.027 192.175 193.128C192.669 197.065 194.046 200.667 196.077 203.792C191.627 200.014 188.485 194.505 187.778 187.213C186.507 174.042 195.176 161.435 207.447 156.915Z" fill="#1D3280" stroke="#1D3280" stroke-width="1.76562" stroke-miterlimit="10"/>
<path d="M178.738 189.615C181.175 209.284 200.12 222.067 219.259 219.03C250.811 214.016 267.143 169.292 236.492 151C209.972 135.163 175.066 159.599 178.738 189.615ZM235.026 161.488C254.978 178.862 237.71 210.82 213.38 210.414C200.561 210.184 189.42 200.773 187.849 187.902C184.847 163.483 215.728 144.715 235.009 161.488H235.026Z" fill="#48EFCF" stroke="#1D3280" stroke-width="1.76562" stroke-miterlimit="10"/>
<path d="M219.259 219.03C243.784 215.128 259.092 187.267 250.334 166.432C257.803 176.673 259.869 190.833 252.012 204.464C237.975 228.794 200.279 230.93 187.266 207.977C195.088 216.505 207.147 220.955 219.295 219.03H219.259Z" fill="#1D3280" stroke="#1D3280" stroke-width="1.76562" stroke-miterlimit="10"/>
<path d="M268.008 256.267L270.109 254.643C272.581 252.736 273.04 249.187 271.134 246.697L245.585 213.627C243.678 211.155 240.129 210.696 237.657 212.603L235.556 214.228C233.084 216.134 232.625 219.683 234.532 222.173L260.081 255.243C261.988 257.715 265.536 258.174 268.008 256.267Z" fill="#1D3280" stroke="#1D3280" stroke-width="1.76562" stroke-miterlimit="10"/>
<path d="M269.95 254.784L272.052 253.159C274.523 251.252 274.982 247.703 273.076 245.232L247.527 212.161C245.62 209.69 242.071 209.23 239.582 211.137L237.481 212.762C235.009 214.669 234.55 218.217 236.457 220.707L262.005 253.777C263.912 256.249 267.461 256.708 269.933 254.801L269.95 254.784Z" fill="#48EFCF" stroke="#1D3280" stroke-width="1.76562" stroke-miterlimit="10"/>
</g>
<defs>
<clipPath id="clip0_3602_15010">
<rect width="225" height="225" fill="white" transform="translate(60 60)"/>
</clipPath>
</defs>
</svg>
