<svg width="345" height="345" viewBox="0 0 345 345" fill="none" xmlns="http://www.w3.org/2000/svg">
<path d="M201.393 98.9151C201.429 98.8411 201.43 98.7967 201.419 98.8584C201.412 98.8974 201.403 98.9604 201.393 99.0524C201.373 99.2354 201.354 99.4955 201.336 99.8334C201.298 100.507 201.266 101.457 201.238 102.645C201.184 105.021 201.15 108.329 201.132 112.259C201.094 120.117 201.119 130.444 201.169 140.721C201.219 150.998 201.293 161.225 201.356 168.882C201.387 172.71 201.415 175.896 201.435 178.125C201.446 179.239 201.453 180.115 201.459 180.712C201.461 181.01 201.464 181.239 201.465 181.393C201.466 181.469 201.467 181.527 201.467 181.566C201.467 181.586 201.467 181.601 201.467 181.611C201.467 181.616 201.468 181.62 201.468 181.622V181.625C201.468 181.625 201.448 181.626 200.73 181.633C200.049 181.639 199.996 181.64 199.992 181.639V181.625C199.992 181.615 199.991 181.6 199.991 181.581C199.99 181.542 199.99 181.483 199.989 181.406C199.987 181.252 199.986 181.023 199.983 180.725C199.977 180.128 199.969 179.253 199.959 178.138C199.939 175.909 199.91 172.722 199.879 168.893C199.817 161.235 199.743 151.007 199.693 140.728C199.643 130.449 199.618 120.118 199.655 112.252C199.674 108.32 199.708 105.001 199.763 102.612C199.79 101.418 199.822 100.451 199.861 99.7527C199.88 99.4049 199.901 99.1147 199.925 98.8939C199.937 98.7843 199.951 98.6819 199.968 98.5932C199.98 98.5272 200.005 98.3926 200.066 98.2676L201.393 98.9151Z" fill="#00F2CD"/>
<g clip-path="url(#clip0_3602_15124)">
<path d="M198.252 97.082C197.21 98.6812 198.252 177.905 198.252 177.905" stroke="#0066E4" stroke-width="1.79688" stroke-linecap="round" stroke-linejoin="round"/>
<path d="M179.978 97.082C178.936 98.6812 179.978 177.905 179.978 177.905" stroke="#0066E4" stroke-width="1.79688" stroke-linecap="round" stroke-linejoin="round"/>
<path d="M161.704 97.082C160.662 98.6812 161.704 177.905 161.704 177.905" stroke="#0066E4" stroke-width="1.79688" stroke-linecap="round" stroke-linejoin="round"/>
<path d="M143.412 97.082C142.369 98.6812 143.412 177.905 143.412 177.905" stroke="#0066E4" stroke-width="1.79688" stroke-linecap="round" stroke-linejoin="round"/>
<path d="M233.22 220.509V257.92C233.22 267.641 205.44 275.53 171.173 275.53C136.907 275.53 109.127 267.641 109.127 257.92V220.509H233.237H233.22Z" fill="#F4F6F9" stroke="#1D3280" stroke-width="1.79688" stroke-linecap="round" stroke-linejoin="round"/>
<path d="M171.173 238.119C205.441 238.119 233.22 230.235 233.22 220.509C233.22 210.784 205.441 202.9 171.173 202.9C136.906 202.9 109.127 210.784 109.127 220.509C109.127 230.235 136.906 238.119 171.173 238.119Z" fill="#1D3280" stroke="#1D3280" stroke-width="1.79688" stroke-linecap="round" stroke-linejoin="round"/>
<path d="M234.118 89.7686V127.179C234.118 136.901 206.338 144.789 172.072 144.789C137.805 144.789 110.026 136.901 110.026 127.179V89.7686H234.136H234.118Z" fill="#F4F6F9" stroke="#1D3280" stroke-width="1.79688" stroke-linecap="round" stroke-linejoin="round"/>
<path d="M172.072 107.378C206.339 107.378 234.118 99.4939 234.118 89.7686C234.118 80.0432 206.339 72.1592 172.072 72.1592C137.805 72.1592 110.026 80.0432 110.026 89.7686C110.026 99.4939 137.805 107.378 172.072 107.378Z" fill="#0066E4" stroke="#1D3280" stroke-width="1.79688" stroke-linecap="round" stroke-linejoin="round"/>
<path d="M137.482 184.015L121.903 174.438" stroke="white" stroke-width="1.79688" stroke-linecap="round" stroke-linejoin="round"/>
<path d="M138.147 192.334L121.238 199.288" stroke="white" stroke-width="1.79688" stroke-linecap="round" stroke-linejoin="round"/>
<path d="M198.252 199.288C198.252 199.288 198.162 208.812 198.055 222.342" stroke="#0066E4" stroke-width="1.79688" stroke-linecap="round" stroke-linejoin="round"/>
<path d="M179.978 199.288C179.978 199.288 179.888 209.171 179.78 223.079" stroke="#0066E4" stroke-width="1.79688" stroke-linecap="round" stroke-linejoin="round"/>
<path d="M161.686 199.288C161.686 199.288 161.596 208.776 161.506 222.288" stroke="#0066E4" stroke-width="1.79688" stroke-linecap="round" stroke-linejoin="round"/>
<path d="M143.412 199.288C143.412 199.288 143.34 207.59 143.232 219.719" stroke="#0066E4" stroke-width="1.79688" stroke-linecap="round" stroke-linejoin="round"/>
<path d="M254.926 188.183C254.926 169.745 239.982 154.797 221.549 154.797C203.115 154.797 188.172 169.745 188.172 188.183V189.711C188.172 208.149 203.115 223.097 221.549 223.097C239.982 223.097 254.926 208.149 254.926 189.711V188.183Z" fill="#1D3280"/>
<path d="M247.217 188.938C247.217 171.045 232.712 156.541 214.82 156.541C196.927 156.541 182.422 171.045 182.422 188.938C182.422 206.831 196.927 221.336 214.82 221.336C232.712 221.336 247.217 206.831 247.217 188.938Z" fill="#48EFCF" stroke="#1D3280" stroke-width="1.79688" stroke-linecap="round" stroke-linejoin="round"/>
<path d="M231.387 172.371L198.252 205.505" stroke="#1D3280" stroke-width="1.79688" stroke-linecap="round" stroke-linejoin="round"/>
<path d="M198.252 172.389L231.387 205.523" stroke="#1D3280" stroke-width="1.79688" stroke-linecap="round" stroke-linejoin="round"/>
<path d="M226.427 117.925C226.427 116.003 224.882 114.458 222.959 114.458C221.037 114.458 219.491 116.003 219.491 117.925C219.491 119.848 221.037 121.393 222.959 121.393C224.882 121.393 226.427 119.848 226.427 117.925Z" fill="#2C62D4"/>
<path d="M212.645 120.603C212.645 118.68 211.1 117.135 209.177 117.135C207.255 117.135 205.709 118.68 205.709 120.603C205.709 122.525 207.255 124.071 209.177 124.071C211.1 124.071 212.645 122.525 212.645 120.603Z" fill="#2C62D4"/>
<path d="M226.427 246.672C226.427 244.749 224.882 243.204 222.959 243.204C221.037 243.204 219.491 244.749 219.491 246.672C219.491 248.594 221.037 250.14 222.959 250.14C224.882 250.14 226.427 248.594 226.427 246.672Z" fill="#2C62D4"/>
<path d="M212.645 249.349C212.645 247.426 211.1 245.881 209.177 245.881C207.255 245.881 205.709 247.426 205.709 249.349C205.709 251.271 207.255 252.817 209.177 252.817C211.1 252.817 212.645 251.271 212.645 249.349Z" fill="#2C62D4"/>
</g>
<defs>
<clipPath id="clip0_3602_15124">
<rect width="230" height="230" fill="white" transform="translate(57 58)"/>
</clipPath>
</defs>
</svg>
