<svg width="345" height="345" viewBox="0 0 345 345" fill="none" xmlns="http://www.w3.org/2000/svg">
<path d="M201.394 98.9151C201.43 98.8412 201.431 98.7968 201.419 98.8584C201.412 98.8975 201.404 98.9604 201.394 99.0525C201.374 99.2354 201.355 99.4956 201.336 99.8335C201.299 100.507 201.266 101.457 201.239 102.645C201.184 105.021 201.151 108.329 201.132 112.259C201.095 120.117 201.12 130.444 201.17 140.721C201.219 150.998 201.294 161.224 201.356 168.882C201.387 172.71 201.416 175.896 201.436 178.125C201.446 179.239 201.453 180.115 201.459 180.711C201.462 181.01 201.464 181.239 201.466 181.393C201.466 181.469 201.467 181.527 201.468 181.566C201.468 181.586 201.467 181.601 201.468 181.611C201.468 181.616 201.468 181.62 201.469 181.622C201.469 181.623 201.469 181.624 201.469 181.625C201.468 181.626 201.449 181.626 200.73 181.633C200.049 181.639 199.996 181.64 199.992 181.639V181.625C199.992 181.615 199.991 181.6 199.991 181.581C199.991 181.542 199.99 181.483 199.989 181.406C199.988 181.252 199.986 181.023 199.983 180.725C199.978 180.128 199.969 179.253 199.959 178.138C199.939 175.909 199.911 172.722 199.88 168.893C199.817 161.235 199.743 151.007 199.693 140.728C199.643 130.449 199.618 120.118 199.656 112.252C199.674 108.32 199.709 105.001 199.763 102.612C199.791 101.418 199.823 100.451 199.861 99.7528C199.881 99.4049 199.902 99.1148 199.926 98.894C199.938 98.7843 199.952 98.6819 199.968 98.5933C199.98 98.5273 200.005 98.3927 200.066 98.2677L201.394 98.9151Z" fill="#00F2CD"/>
<path d="M187.347 98.9151C187.383 98.8412 187.385 98.7968 187.373 98.8584C187.366 98.8975 187.357 98.9604 187.347 99.0525C187.328 99.2354 187.308 99.4956 187.29 99.8335C187.252 100.507 187.22 101.457 187.193 102.645C187.138 105.021 187.105 108.329 187.086 112.259C187.048 120.117 187.074 130.444 187.123 140.721C187.173 150.998 187.248 161.224 187.31 168.882C187.341 172.71 187.369 175.896 187.39 178.125C187.4 179.239 187.407 180.115 187.413 180.711C187.416 181.01 187.418 181.239 187.419 181.393C187.42 181.469 187.421 181.527 187.421 181.566C187.422 181.586 187.421 181.601 187.421 181.611C187.421 181.616 187.422 181.62 187.422 181.622C187.422 181.623 187.422 181.624 187.422 181.625C187.422 181.626 187.403 181.626 186.684 181.633C186.003 181.639 185.95 181.64 185.946 181.639V181.625C185.946 181.615 185.945 181.6 185.945 181.581C185.944 181.542 185.944 181.483 185.943 181.406C185.941 181.252 185.94 181.023 185.937 180.725C185.932 180.128 185.923 179.253 185.913 178.138C185.893 175.909 185.864 172.722 185.833 168.893C185.771 161.235 185.697 151.007 185.647 140.728C185.597 130.449 185.572 120.118 185.609 112.252C185.628 108.32 185.662 105.001 185.717 102.612C185.744 101.418 185.776 100.451 185.815 99.7528C185.834 99.4049 185.856 99.1148 185.879 98.894C185.891 98.7843 185.906 98.6819 185.922 98.5933C185.934 98.5273 185.959 98.3927 186.02 98.2677L187.347 98.9151Z" fill="#00BEB7"/>
<path d="M173.311 98.9151C173.347 98.8412 173.348 98.7968 173.337 98.8584C173.33 98.8975 173.321 98.9604 173.311 99.0525C173.291 99.2354 173.272 99.4956 173.253 99.8335C173.216 100.507 173.183 101.457 173.156 102.645C173.102 105.021 173.068 108.329 173.049 112.259C173.012 120.117 173.037 130.444 173.087 140.721C173.137 150.998 173.211 161.224 173.273 168.882C173.304 172.71 173.333 175.896 173.353 178.125C173.363 179.239 173.37 180.115 173.376 180.711C173.379 181.01 173.381 181.239 173.383 181.393C173.384 181.469 173.384 181.527 173.385 181.566C173.385 181.586 173.385 181.601 173.385 181.611C173.385 181.616 173.386 181.62 173.386 181.622C173.386 181.623 173.386 181.624 173.386 181.625C173.385 181.626 173.366 181.626 172.647 181.633C171.967 181.639 171.913 181.64 171.909 181.639V181.625C171.909 181.615 171.908 181.6 171.908 181.581C171.908 181.542 171.907 181.483 171.906 181.406C171.905 181.252 171.903 181.023 171.901 180.725C171.895 180.128 171.887 179.253 171.876 178.138C171.856 175.909 171.828 172.722 171.797 168.893C171.734 161.235 171.66 151.007 171.61 140.728C171.56 130.449 171.535 120.118 171.573 112.252C171.591 108.32 171.626 105.001 171.68 102.612C171.708 101.418 171.74 100.451 171.778 99.7528C171.798 99.4049 171.819 99.1148 171.843 98.894C171.855 98.7843 171.869 98.6819 171.885 98.5933C171.897 98.5273 171.922 98.3927 171.983 98.2677L173.311 98.9151Z" fill="#0066E4"/>
<path d="M159.274 98.9151C159.31 98.8412 159.311 98.7968 159.3 98.8584C159.293 98.8975 159.284 98.9604 159.274 99.0525C159.254 99.2354 159.235 99.4956 159.216 99.8335C159.179 100.507 159.146 101.457 159.119 102.645C159.065 105.021 159.031 108.329 159.013 112.259C158.975 120.117 159 130.444 159.05 140.721C159.1 150.998 159.174 161.224 159.237 168.882C159.268 172.71 159.296 175.896 159.316 178.125C159.326 179.239 159.334 180.115 159.339 180.711C159.342 181.01 159.345 181.239 159.346 181.393C159.347 181.469 159.348 181.527 159.348 181.566C159.348 181.586 159.348 181.601 159.348 181.611C159.348 181.616 159.349 181.62 159.349 181.622C159.349 181.623 159.349 181.624 159.349 181.625C159.349 181.626 159.329 181.626 158.611 181.633C157.93 181.639 157.877 181.64 157.873 181.639V181.625C157.872 181.615 157.872 181.6 157.872 181.581C157.871 181.542 157.87 181.483 157.87 181.406C157.868 181.252 157.867 181.023 157.864 180.725C157.858 180.128 157.85 179.253 157.84 178.138C157.82 175.909 157.791 172.722 157.76 168.893C157.698 161.235 157.623 151.007 157.574 140.728C157.524 130.449 157.499 120.118 157.536 112.252C157.555 108.32 157.589 105.001 157.644 102.612C157.671 101.418 157.703 100.451 157.742 99.7528C157.761 99.4049 157.782 99.1148 157.806 98.894C157.818 98.7843 157.832 98.6819 157.849 98.5933C157.861 98.5273 157.886 98.3927 157.947 98.2677L159.274 98.9151Z" fill="#0066E4"/>
<path d="M145.237 98.9152C145.274 98.8412 145.275 98.7968 145.263 98.8585C145.256 98.8975 145.247 98.9605 145.237 99.0525C145.218 99.2355 145.198 99.4956 145.18 99.8335C145.142 100.507 145.11 101.457 145.083 102.645C145.028 105.021 144.995 108.329 144.976 112.259C144.939 120.117 144.964 130.444 145.013 140.721C145.063 150.998 145.138 161.225 145.2 168.882C145.231 172.71 145.259 175.896 145.28 178.125C145.29 179.239 145.297 180.115 145.303 180.712C145.306 181.01 145.308 181.239 145.31 181.393C145.31 181.469 145.311 181.527 145.311 181.566C145.312 181.586 145.311 181.601 145.311 181.611C145.312 181.616 145.312 181.62 145.312 181.622C145.312 181.623 145.312 181.625 145.312 181.625C145.312 181.626 145.293 181.626 144.574 181.633C143.893 181.639 143.84 181.64 143.836 181.639V181.625C143.836 181.615 143.835 181.6 143.835 181.581C143.835 181.542 143.834 181.483 143.833 181.406C143.832 181.252 143.83 181.023 143.827 180.725C143.822 180.128 143.813 179.253 143.803 178.138C143.783 175.909 143.755 172.722 143.723 168.893C143.661 161.235 143.587 151.007 143.537 140.728C143.487 130.449 143.462 120.118 143.499 112.252C143.518 108.32 143.552 105.001 143.607 102.612C143.634 101.418 143.667 100.451 143.705 99.7528C143.724 99.405 143.746 99.1148 143.77 98.894C143.781 98.7844 143.796 98.682 143.812 98.5933C143.824 98.5273 143.849 98.3927 143.91 98.2677L145.237 98.9152Z" fill="#0066E4"/>
<path d="M231.825 218.294V254.582C231.825 264.015 204.864 271.668 171.594 271.668C138.323 271.668 111.362 264.015 111.362 254.582V218.294H231.815H231.825Z" fill="#00F2CD"/>
<path d="M231.087 219.032H112.101V254.582C112.101 256.563 113.523 258.618 116.506 260.619C119.463 262.602 123.79 264.417 129.203 265.953C140.02 269.022 155.007 270.93 171.594 270.93C188.181 270.93 203.167 269.022 213.984 265.953C219.397 264.417 223.725 262.602 226.681 260.619C229.664 258.618 231.087 256.563 231.087 254.582V219.032ZM232.563 254.582C232.563 257.316 230.615 259.757 227.504 261.844C224.366 263.949 219.873 265.816 214.388 267.372C203.406 270.488 188.277 272.406 171.594 272.406C154.911 272.406 139.781 270.488 128.8 267.372C123.314 265.816 118.821 263.949 115.683 261.844C112.572 259.757 110.624 257.316 110.624 254.582V217.557H232.563V254.582Z" fill="#0C1C41"/>
<path d="M171.594 235.381C204.858 235.381 231.825 227.735 231.825 218.304C231.825 208.873 204.858 201.228 171.594 201.228C138.329 201.228 111.362 208.873 111.362 218.304C111.362 227.735 138.329 235.381 171.594 235.381Z" fill="url(#paint0_linear_919_16423)"/>
<path d="M231.087 218.304C231.087 216.323 229.664 214.27 226.68 212.27C223.723 210.288 219.395 208.473 213.982 206.938C203.165 203.872 188.178 201.965 171.594 201.965C155.01 201.965 140.023 203.872 129.205 206.938C123.791 208.473 119.464 210.288 116.507 212.27C113.523 214.27 112.1 216.323 112.1 218.304C112.101 220.285 113.523 222.338 116.507 224.338C119.464 226.32 123.791 228.135 129.205 229.669C140.023 232.736 155.01 234.643 171.594 234.643C188.178 234.643 203.165 232.736 213.982 229.669C219.396 228.135 223.723 226.32 226.68 224.338C229.664 222.338 231.086 220.285 231.087 218.304ZM232.563 218.304C232.563 221.039 230.615 223.478 227.503 225.564C224.364 227.668 219.871 229.533 214.385 231.088C203.403 234.202 188.274 236.118 171.594 236.118C154.913 236.118 139.784 234.202 128.802 231.088C123.316 229.533 118.823 227.668 115.684 225.564C112.572 223.478 110.624 221.039 110.624 218.304C110.624 215.57 112.572 213.13 115.684 211.044C118.823 208.94 123.316 207.075 128.802 205.52C139.784 202.406 154.913 200.49 171.594 200.49C188.274 200.49 203.403 202.406 214.385 205.52C219.87 207.075 224.364 208.94 227.503 211.044C230.615 213.13 232.563 215.57 232.563 218.304Z" fill="#101C3F"/>
<path d="M171.594 227.128C196.873 227.128 217.365 221.962 217.365 215.589C217.365 209.217 196.873 204.051 171.594 204.051C146.315 204.051 125.822 209.217 125.822 215.589C125.822 221.962 146.315 227.128 171.594 227.128Z" fill="#0C1C41"/>
<path d="M220.407 251.237C222.087 251.237 223.448 248.203 223.448 244.46C223.448 240.717 222.087 237.682 220.407 237.682C218.727 237.682 217.365 240.717 217.365 244.46C217.365 248.203 218.727 251.237 220.407 251.237Z" fill="#FF3A99"/>
<path d="M222.71 244.46C222.71 242.668 222.383 241.081 221.884 239.97C221.634 239.413 221.356 239.008 221.084 238.752C220.817 238.499 220.589 238.42 220.407 238.42C220.225 238.42 219.997 238.499 219.729 238.752C219.457 239.008 219.18 239.413 218.93 239.97C218.431 241.081 218.103 242.667 218.103 244.46C218.103 246.252 218.431 247.839 218.93 248.95C219.18 249.507 219.457 249.912 219.729 250.168C219.997 250.421 220.225 250.5 220.407 250.5C220.589 250.5 220.817 250.421 221.084 250.168C221.356 249.912 221.634 249.507 221.884 248.95C222.383 247.839 222.71 246.252 222.71 244.46ZM224.186 244.46C224.186 246.41 223.833 248.213 223.231 249.555C222.93 250.224 222.553 250.812 222.097 251.241C221.638 251.675 221.065 251.975 220.407 251.975C219.749 251.975 219.177 251.675 218.717 251.241C218.261 250.812 217.883 250.224 217.582 249.555C216.98 248.213 216.627 246.41 216.627 244.46C216.627 242.509 216.98 240.707 217.582 239.365C217.883 238.695 218.261 238.108 218.717 237.679C219.177 237.245 219.749 236.945 220.407 236.945C221.065 236.945 221.638 237.245 222.097 237.679C222.553 238.108 222.93 238.696 223.231 239.365C223.833 240.707 224.186 242.509 224.186 244.46Z" fill="#0C1C41"/>
<path d="M232.691 91.4992V127.787C232.691 137.22 205.73 144.873 172.46 144.873C139.189 144.873 112.228 137.22 112.228 127.787V91.4992H232.681H232.691Z" fill="#00F2CD"/>
<path d="M231.953 92.237H112.967V127.786C112.967 129.768 114.389 131.823 117.372 133.824C120.329 135.807 124.656 137.622 130.069 139.158C140.886 142.227 155.873 144.135 172.46 144.135C189.047 144.135 204.033 142.227 214.85 139.158C220.263 137.622 224.591 135.807 227.547 133.824C230.531 131.823 231.953 129.768 231.953 127.786V92.237ZM233.429 127.786C233.429 130.521 231.481 132.962 228.37 135.049C225.232 137.154 220.739 139.021 215.254 140.577C204.272 143.693 189.143 145.611 172.46 145.611C155.777 145.611 140.647 143.693 129.666 140.577C124.18 139.021 119.687 137.154 116.549 135.049C113.438 132.962 111.49 130.521 111.49 127.786V90.7615H233.429V127.786Z" fill="#0C1C41"/>
<path d="M172.47 108.576C205.734 108.576 232.701 100.93 232.701 91.4993C232.701 82.0682 205.734 74.4228 172.47 74.4228C139.205 74.4228 112.238 82.0682 112.238 91.4993C112.238 100.93 139.205 108.576 172.47 108.576Z" fill="url(#paint1_linear_919_16423)"/>
<path d="M231.962 91.4996C231.962 89.5187 230.54 87.4651 227.556 85.465C224.599 83.4829 220.271 81.6684 214.858 80.1336C204.04 77.0668 189.054 75.1605 172.47 75.1605C155.886 75.1605 140.899 77.0667 130.081 80.1336C124.667 81.6684 120.34 83.4829 117.383 85.465C114.399 87.4651 112.976 89.5187 112.976 91.4996C112.977 93.4804 114.399 95.5332 117.383 97.5332C120.34 99.5153 124.667 101.33 130.081 102.865C140.899 105.931 155.886 107.838 172.47 107.838C189.054 107.838 204.04 105.931 214.858 102.865C220.272 101.33 224.599 99.5153 227.556 97.5332C230.54 95.5332 231.962 93.4804 231.962 91.4996ZM233.439 91.4996C233.439 94.2341 231.491 96.6731 228.379 98.7589C225.24 100.863 220.746 102.728 215.261 104.283C204.279 107.397 189.15 109.313 172.47 109.313C155.789 109.313 140.66 107.397 129.678 104.283C124.192 102.728 119.699 100.863 116.56 98.7589C113.448 96.6731 111.5 94.234 111.5 91.4996C111.5 88.7649 113.448 86.3252 116.56 84.2392C119.699 82.1354 124.192 80.2701 129.678 78.7147C140.66 75.6012 155.789 73.685 172.47 73.685C189.15 73.685 204.279 75.6013 215.261 78.7147C220.746 80.2701 225.24 82.1354 228.379 84.2392C231.491 86.3252 233.439 88.7649 233.439 91.4996Z" fill="#101C3F"/>
<path d="M221.283 124.433C222.962 124.433 224.324 121.398 224.324 117.655C224.324 113.912 222.962 110.878 221.283 110.878C219.603 110.878 218.241 113.912 218.241 117.655C218.241 121.398 219.603 124.433 221.283 124.433Z" fill="#FF3A99"/>
<path d="M223.586 117.655C223.586 115.863 223.259 114.276 222.76 113.165C222.51 112.608 222.232 112.203 221.96 111.947C221.692 111.694 221.465 111.615 221.283 111.615C221.101 111.615 220.873 111.694 220.605 111.947C220.333 112.203 220.056 112.608 219.806 113.165C219.307 114.276 218.979 115.863 218.979 117.655C218.979 119.447 219.307 121.034 219.806 122.146C220.056 122.702 220.333 123.108 220.605 123.364C220.873 123.616 221.101 123.695 221.283 123.695C221.465 123.695 221.692 123.616 221.96 123.364C222.232 123.108 222.51 122.702 222.76 122.146C223.259 121.034 223.586 119.447 223.586 117.655ZM225.062 117.655C225.062 119.606 224.709 121.408 224.107 122.75C223.806 123.42 223.429 124.007 222.973 124.437C222.513 124.87 221.94 125.171 221.283 125.171C220.625 125.171 220.053 124.87 219.593 124.437C219.137 124.007 218.759 123.42 218.458 122.75C217.856 121.408 217.503 119.606 217.503 117.655C217.503 115.704 217.856 113.902 218.458 112.561C218.759 111.891 219.137 111.304 219.593 110.874C220.053 110.44 220.625 110.14 221.283 110.14C221.94 110.14 222.513 110.44 222.973 110.874C223.429 111.303 223.806 111.891 224.107 112.561C224.709 113.902 225.062 115.704 225.062 117.655Z" fill="#0C1C41"/>
<path d="M123.156 176.594C123.369 176.247 123.824 176.138 124.171 176.352L139.3 185.648L139.363 185.69C139.66 185.917 139.743 186.337 139.542 186.662C139.342 186.987 138.931 187.103 138.594 186.941L138.527 186.904L123.398 177.608C123.051 177.395 122.942 176.941 123.156 176.594Z" fill="#0B64DD"/>
<path d="M139.283 193.67C139.66 193.515 140.091 193.694 140.246 194.071C140.401 194.448 140.221 194.879 139.844 195.034L123.415 201.782L123.344 201.807C122.986 201.914 122.598 201.734 122.452 201.381C122.297 201.004 122.477 200.572 122.854 200.417L139.283 193.67Z" fill="#0B64DD"/>
<mask id="mask0_919_16423" style="mask-type:luminance" maskUnits="userSpaceOnUse" x="126" y="162" width="93" height="59">
<path d="M218.418 209.264C218.418 215.638 197.924 220.803 172.647 220.803C147.369 220.803 126.875 215.638 126.875 209.264C126.875 202.89 146.316 162.914 171.584 162.914C196.852 162.914 218.408 202.89 218.408 209.264H218.418Z" fill="white"/>
</mask>
<g mask="url(#mask0_919_16423)">
<path d="M200.73 203.461C201.447 203.468 201.468 203.468 201.469 203.468C201.469 203.469 201.469 203.47 201.469 203.471C201.469 203.474 201.468 203.478 201.468 203.483C201.468 203.493 201.468 203.507 201.468 203.527C201.467 203.566 201.467 203.625 201.466 203.702C201.464 203.856 201.462 204.084 201.459 204.382C201.453 204.978 201.446 205.854 201.436 206.969C201.416 209.198 201.387 212.384 201.356 216.212C201.294 223.869 201.22 234.095 201.17 244.372C201.12 254.65 201.095 264.976 201.132 272.834C201.151 276.764 201.185 280.073 201.239 282.448C201.266 283.637 201.299 284.586 201.336 285.26C201.355 285.598 201.374 285.858 201.394 286.041C201.404 286.133 201.413 286.196 201.42 286.235C201.431 286.297 201.43 286.252 201.394 286.178L200.066 286.826C200.005 286.701 199.98 286.566 199.968 286.5C199.952 286.411 199.938 286.309 199.926 286.199C199.902 285.979 199.881 285.689 199.862 285.342C199.823 284.644 199.791 283.675 199.763 282.482C199.709 280.093 199.674 276.773 199.656 272.841C199.618 264.976 199.643 254.644 199.693 244.366C199.743 234.086 199.817 223.858 199.88 216.2C199.911 212.371 199.939 209.185 199.96 206.955C199.97 205.841 199.978 204.965 199.984 204.368C199.986 204.07 199.988 203.842 199.989 203.687C199.99 203.61 199.991 203.552 199.991 203.513C199.991 203.493 199.992 203.478 199.992 203.468V203.454C199.996 203.453 200.05 203.454 200.73 203.461Z" fill="#00F2CD"/>
<path d="M186.684 203.461C187.401 203.468 187.422 203.468 187.422 203.468C187.422 203.469 187.422 203.47 187.422 203.471C187.422 203.474 187.421 203.478 187.421 203.483C187.421 203.493 187.422 203.507 187.421 203.527C187.421 203.566 187.42 203.625 187.419 203.702C187.418 203.856 187.416 204.084 187.413 204.382C187.407 204.978 187.4 205.854 187.39 206.969C187.369 209.198 187.341 212.384 187.31 216.212C187.248 223.869 187.173 234.095 187.123 244.372C187.074 254.65 187.049 264.976 187.086 272.834C187.105 276.764 187.138 280.073 187.193 282.448C187.22 283.637 187.252 284.586 187.29 285.26C187.308 285.598 187.327 285.858 187.347 286.041C187.357 286.133 187.366 286.196 187.373 286.235C187.385 286.297 187.383 286.252 187.347 286.178L186.02 286.826C185.959 286.701 185.934 286.566 185.922 286.5C185.906 286.411 185.891 286.309 185.879 286.199C185.856 285.979 185.834 285.689 185.815 285.342C185.776 284.644 185.744 283.675 185.717 282.482C185.662 280.093 185.628 276.773 185.609 272.841C185.572 264.976 185.597 254.644 185.647 244.366C185.697 234.086 185.771 223.858 185.833 216.2C185.864 212.371 185.893 209.185 185.913 206.955C185.923 205.841 185.932 204.965 185.937 204.368C185.94 204.07 185.941 203.842 185.943 203.687C185.944 203.61 185.944 203.552 185.945 203.513C185.945 203.493 185.946 203.478 185.946 203.468V203.454C185.95 203.453 186.004 203.454 186.684 203.461Z" fill="#00BEB7"/>
<path d="M172.647 203.461C173.364 203.468 173.385 203.468 173.386 203.468C173.386 203.469 173.386 203.47 173.386 203.471C173.386 203.474 173.385 203.478 173.385 203.483C173.385 203.493 173.385 203.507 173.385 203.527C173.384 203.566 173.384 203.625 173.383 203.702C173.381 203.856 173.379 204.084 173.376 204.382C173.37 204.978 173.363 205.854 173.353 206.969C173.333 209.198 173.304 212.384 173.273 216.212C173.211 223.869 173.137 234.095 173.087 244.372C173.037 254.65 173.012 264.976 173.049 272.834C173.068 276.764 173.102 280.073 173.156 282.448C173.183 283.637 173.216 284.586 173.253 285.26C173.272 285.598 173.291 285.858 173.311 286.041C173.321 286.133 173.33 286.196 173.337 286.235C173.348 286.297 173.347 286.252 173.311 286.178L171.983 286.826C171.922 286.701 171.897 286.566 171.885 286.5C171.869 286.411 171.855 286.309 171.843 286.199C171.819 285.979 171.798 285.689 171.778 285.342C171.74 284.644 171.708 283.675 171.68 282.482C171.626 280.093 171.591 276.773 171.573 272.841C171.535 264.976 171.56 254.644 171.61 244.366C171.66 234.086 171.734 223.858 171.797 216.2C171.828 212.371 171.856 209.185 171.876 206.955C171.887 205.841 171.895 204.965 171.901 204.368C171.903 204.07 171.905 203.842 171.906 203.687C171.907 203.61 171.908 203.552 171.908 203.513C171.908 203.493 171.909 203.478 171.909 203.468V203.454C171.913 203.453 171.967 203.454 172.647 203.461Z" fill="#0066E4"/>
<path d="M158.611 203.461C159.327 203.468 159.348 203.468 159.349 203.468C159.349 203.469 159.349 203.47 159.349 203.471C159.349 203.474 159.348 203.478 159.348 203.483C159.348 203.493 159.348 203.507 159.348 203.527C159.348 203.566 159.347 203.625 159.346 203.702C159.345 203.856 159.342 204.084 159.339 204.382C159.334 204.978 159.326 205.854 159.316 206.969C159.296 209.198 159.268 212.384 159.237 216.212C159.174 223.869 159.1 234.095 159.05 244.372C159 254.65 158.975 264.976 159.013 272.834C159.031 276.764 159.065 280.073 159.119 282.448C159.146 283.637 159.179 284.586 159.216 285.26C159.235 285.598 159.254 285.858 159.274 286.041C159.284 286.133 159.293 286.196 159.3 286.235C159.311 286.297 159.31 286.252 159.274 286.178L157.947 286.826C157.886 286.701 157.861 286.566 157.849 286.5C157.832 286.411 157.818 286.309 157.806 286.199C157.782 285.979 157.761 285.689 157.742 285.342C157.703 284.644 157.671 283.675 157.644 282.482C157.589 280.093 157.555 276.773 157.536 272.841C157.499 264.976 157.524 254.644 157.574 244.366C157.623 234.086 157.698 223.858 157.76 216.2C157.791 212.371 157.82 209.185 157.84 206.955C157.85 205.841 157.858 204.965 157.864 204.368C157.867 204.07 157.868 203.842 157.87 203.687C157.87 203.61 157.871 203.552 157.872 203.513C157.872 203.493 157.872 203.478 157.873 203.468V203.454C157.877 203.453 157.93 203.454 158.611 203.461Z" fill="#0066E4"/>
<path d="M144.574 203.461C145.291 203.468 145.312 203.468 145.312 203.468C145.312 203.469 145.312 203.47 145.312 203.471C145.312 203.474 145.311 203.478 145.311 203.483C145.311 203.493 145.312 203.507 145.311 203.527C145.311 203.566 145.31 203.625 145.309 203.702C145.308 203.856 145.306 204.084 145.303 204.382C145.297 204.979 145.29 205.854 145.28 206.969C145.259 209.198 145.231 212.384 145.2 216.212C145.138 223.869 145.063 234.095 145.013 244.372C144.964 254.65 144.939 264.976 144.976 272.834C144.995 276.764 145.028 280.073 145.083 282.448C145.11 283.637 145.142 284.586 145.18 285.26C145.198 285.598 145.218 285.858 145.237 286.041C145.247 286.133 145.256 286.196 145.263 286.235C145.275 286.297 145.273 286.252 145.237 286.178L143.91 286.826C143.849 286.701 143.824 286.566 143.812 286.5C143.796 286.412 143.781 286.309 143.77 286.199C143.746 285.979 143.724 285.689 143.705 285.342C143.666 284.644 143.634 283.675 143.607 282.482C143.552 280.093 143.518 276.773 143.499 272.841C143.462 264.976 143.487 254.644 143.537 244.366C143.587 234.086 143.661 223.858 143.723 216.2C143.755 212.371 143.783 209.185 143.803 206.955C143.813 205.841 143.822 204.965 143.827 204.368C143.83 204.07 143.831 203.842 143.833 203.687C143.834 203.61 143.835 203.552 143.835 203.513C143.835 203.493 143.836 203.478 143.836 203.468V203.454C143.84 203.454 143.894 203.454 144.574 203.461Z" fill="#0066E4"/>
</g>
<path d="M223.685 160.425H172.578V213.238H223.685V160.425Z" fill="#0066E4"/>
<path d="M217.365 161.182H166.042V212.471H217.365V161.182Z" fill="#FF3A99"/>
<path d="M218.103 160.445V213.208H165.304V160.445H218.103ZM166.78 211.733H216.627V161.92H166.78V211.733Z" fill="#0C1C41"/>
<path d="M208.437 197.883L202.275 204.041L191.704 193.486L181.142 204.041L174.98 197.883L185.551 187.328L174.98 176.773L181.142 170.616L191.713 181.17L202.275 170.616L208.437 176.764L197.865 187.328L208.437 197.883Z" fill="white"/>
<defs>
<linearGradient id="paint0_linear_919_16423" x1="111.205" y1="218.304" x2="265.676" y2="218.304" gradientUnits="userSpaceOnUse">
<stop stop-color="#48EFCF"/>
<stop offset="1" stop-color="#0B64DD"/>
</linearGradient>
<linearGradient id="paint1_linear_919_16423" x1="-14.9082" y1="91.4993" x2="-13.9238" y2="91.4993" gradientUnits="userSpaceOnUse">
<stop stop-color="#48EFCF"/>
<stop offset="1" stop-color="#0B64DD"/>
</linearGradient>
</defs>
</svg>
