<svg width="80" height="80" viewBox="0 0 80 80" fill="none" xmlns="http://www.w3.org/2000/svg">
<rect width="80" height="80" fill="white"/>
<path d="M51.9938 11.0499C43.8001 8.03117 36.2001 11.2499 32.0688 16.9999C44.4251 6.93116 63.6876 18.8187 61.7876 34.2562C61.4751 36.7749 60.5938 39.0874 59.2813 41.0874C62.1313 38.6687 64.1438 35.1374 64.5938 30.4624C65.4126 22.0187 59.8501 13.9437 51.9938 11.0499Z" fill="#101C3F" stroke="#101C3F" stroke-miterlimit="10"/>
<path d="M33.3746 7.25618C13.7434 18.9874 24.2059 47.6437 44.4246 50.8562C56.6871 52.8062 68.8309 44.6062 70.3934 32.0062C72.7371 12.7624 50.3746 -2.89382 33.3746 7.26243V7.25618ZM64.5434 30.9124C63.5309 39.1562 56.3996 45.1874 48.1809 45.3312C32.6059 45.5999 21.5246 25.1124 34.3184 13.9812C46.6746 3.22494 66.4746 15.2562 64.5434 30.9124Z" fill="#0B64DD" stroke="#101C3F" stroke-miterlimit="10"/>
<path d="M44.4248 50.8499C28.7123 48.3562 18.8936 30.4874 24.5123 17.1437C19.7311 23.7062 18.3998 32.7812 23.4436 41.5249C32.4373 57.1187 56.5998 58.4812 64.9373 43.7749C59.9248 49.2374 52.1998 52.0937 44.4186 50.8562L44.4248 50.8499Z" fill="#153385" stroke="#101C3F" stroke-miterlimit="10"/>
<path d="M34.2285 47.9918L32.4038 46.5814C30.9508 45.4584 28.8626 45.726 27.7396 47.1789L10.9953 68.8436C9.87228 70.2966 10.1398 72.3848 11.5927 73.5077L13.4175 74.9181C14.8705 76.0411 16.9587 75.7735 18.0816 74.3206L34.826 52.6559C35.949 51.2029 35.6815 49.1147 34.2285 47.9918Z" fill="#153385" stroke="#101C3F" stroke-miterlimit="10"/>
<path d="M32.9902 47.0347L31.1655 45.6244C29.7125 44.5014 27.6243 44.7689 26.5013 46.2219L9.75697 67.8866C8.63399 69.3395 8.9015 71.4277 10.3545 72.5507L12.1792 73.9611C13.6322 75.084 15.7204 74.8165 16.8434 73.3636L33.5877 51.6989C34.7107 50.2459 34.4432 48.1577 32.9902 47.0347Z" fill="#0B64DD" stroke="#101C3F" stroke-miterlimit="10"/>
<path d="M31.4312 35.3187L41.6062 24.5125L50.5062 33.925L61.9687 19.5125" stroke="#101C3F" stroke-miterlimit="10"/>
<path d="M41.6063 27.05C42.6108 27.05 43.4251 26.2357 43.4251 25.2312C43.4251 24.2268 42.6108 23.4125 41.6063 23.4125C40.6019 23.4125 39.7876 24.2268 39.7876 25.2312C39.7876 26.2357 40.6019 27.05 41.6063 27.05Z" fill="#48EFCF" stroke="#101C3F" stroke-miterlimit="10"/>
<path d="M50.8187 35.6C51.8232 35.6 52.6375 34.7857 52.6375 33.7813C52.6375 32.7768 51.8232 31.9625 50.8187 31.9625C49.8143 31.9625 49 32.7768 49 33.7813C49 34.7857 49.8143 35.6 50.8187 35.6Z" fill="#48EFCF" stroke="#101C3F" stroke-miterlimit="10"/>
</svg>
