<svg width="128" height="128" viewBox="0 0 128 128" fill="none" xmlns="http://www.w3.org/2000/svg">
<path d="M63.52 58.86C91.6976 58.86 114.54 53.4919 114.54 46.87C114.54 40.2481 91.6976 34.88 63.52 34.88C35.3424 34.88 12.5 40.2481 12.5 46.87C12.5 53.4919 35.3424 58.86 63.52 58.86Z" fill="#153385" stroke="#101C3F" stroke-width="0.99" stroke-miterlimit="10"/>
<path d="M70.1299 64.4H83.6399V14.18H70.1299V64.4Z" fill="#101C3F" stroke="#101C3F" stroke-miterlimit="10"/>
<path d="M67.69 64.4H81.2V14.18H67.69V64.4Z" fill="white" stroke="#101C3F" stroke-miterlimit="10"/>
<path d="M89.2 64.4H102.71V27.51H89.2V64.4Z" fill="#101C3F" stroke="#101C3F" stroke-miterlimit="10"/>
<path d="M86.77 64.4H100.28V27.51H86.77V64.4Z" fill="#48EFCF" stroke="#101C3F" stroke-miterlimit="10"/>
<path d="M51.0399 64.4H64.5499V39.29H51.0399V64.4Z" fill="#101C3F" stroke="#101C3F" stroke-miterlimit="10"/>
<path d="M48.61 64.4H62.12V39.29H48.61V64.4Z" fill="#48EFCF" stroke="#101C3F" stroke-miterlimit="10"/>
<path d="M63.48 58.85C37.57 58.85 16.13 54.4 12.5 48.61V58.52C12.5 61.88 13.93 65.07 16.42 67.32L49.21 96.8C50.98 98.39 51.98 100.66 51.96 103.03L51.84 118.44H74.98L74.87 103.04C74.85 100.66 75.86 98.39 77.63 96.8L110.57 67.32C113.08 65.08 114.51 61.87 114.51 58.5V48.47C111.12 54.32 89.56 58.84 63.46 58.84L63.48 58.85Z" fill="#0B64DD" stroke="#101C3F" stroke-miterlimit="10"/>
<path d="M12.5 58.53C12.5 58.53 61.38 79.04 114.53 58.53" stroke="#101C3F" stroke-miterlimit="10"/>
<path d="M75.0099 119.15C75.0099 120.52 69.7199 121.63 63.2099 121.63C56.6999 121.63 51.8199 120.52 51.8199 119.15C51.8199 117.78 56.6899 116.67 63.2099 116.67C69.7299 116.67 75.0099 117.78 75.0099 119.15Z" fill="#153385" stroke="#101C3F" stroke-width="0.99" stroke-miterlimit="10"/>
<path d="M22.6501 32.67C22.7101 31.22 24.0201 30.98 24.0201 30.98L34.8101 34.27L50.3301 41.32L48.5801 43.93L53.1801 48.65L60.4201 43.63L57.2001 47.42L50.2201 51.76L45.4301 47.02C42.8101 47.18 36.1401 47.04 30.1001 42.58L29.7701 44.27L39.4301 48.62L36.6501 52.1L27.1801 47.27L28.4901 41.55L28.6201 41.39C28.1401 40.97 27.6601 40.52 27.1901 40.03C25.8101 38.58 24.8201 37.37 24.1301 36.34L18.0901 35.86L15.5601 26.69L18.3501 22.92L20.5401 32.43L22.6401 32.64L22.6501 32.67Z" fill="#153385" stroke="#101C3F" stroke-linejoin="round"/>
<path d="M64.61 32.02L61.25 35.72L57.16 36.02L57.96 32.51L64.61 32.02Z" fill="#153385" stroke="#101C3F" stroke-linejoin="round"/>
<path d="M22.6201 11.63L28.3701 18.44L25.9201 22.75L25.6601 22.42L25.3501 23.77L23.0101 23.23L22.8501 22.46C22.8501 22.46 23.1101 21.48 23.9201 20.22L19.7301 14.93L22.6201 11.62V11.63Z" fill="#153385" stroke="#101C3F" stroke-linejoin="round"/>
<path d="M41.4801 25.0799C35.0701 21.6599 31.8201 25.2499 31.8201 25.2499L33.2001 15.0599L52.0701 23.0099L49.8301 35.1799L45.6501 35.2499C45.6501 35.2499 47.8901 28.4999 41.4801 25.0799Z" fill="#101C3F" stroke="#101C3F" stroke-linejoin="round"/>
<path d="M35.2401 11.72L29.8401 6.58L22.6201 11.63L26.8401 17.24C25.7301 18.73 24.8701 20.44 24.3001 22.3L18.3501 22.94L20.5401 32.45L25.9401 33C27.1801 35.05 28.8801 36.96 30.8901 38.59L29.7701 44.28L39.4301 48.63L42.2801 43.54C44.2601 43.75 46.1301 43.62 47.8501 43.19L53.1801 48.66L60.4201 43.64L56.1201 37.62C57.2301 36.12 58.0801 34.4 58.6301 32.54L64.6101 32.02L62.3901 22.43L57.0201 22.21C55.7001 19.99 53.8401 17.92 51.6501 16.18L52.8401 10.99L43.3801 6.5L40.9101 11.46C38.8901 11.2 37.0001 11.32 35.2501 11.72H35.2401ZM44.9801 21.95C48.6201 24.66 49.7701 29.27 47.5501 32.25C45.3301 35.23 40.5801 35.44 36.9401 32.73C33.3001 30.02 32.1501 25.41 34.3701 22.43C36.5901 19.45 41.3401 19.24 44.9801 21.95Z" fill="#0B64DD" stroke="#101C3F" stroke-linejoin="round"/>
</svg>
