<svg width="345" height="345" viewBox="0 0 345 345" fill="none" xmlns="http://www.w3.org/2000/svg">
<path d="M150.768 128.248L149.808 129.21L110.83 90.1606L111.79 89.1986L150.768 128.248Z" fill="#A8B3C5"/>
<path d="M212.449 258.648L123.893 271.619L85.9374 247.491V144.983H212.449L251.065 157.12L212.449 258.648Z" fill="#0C1C41"/>
<path d="M202.103 155.242C202.103 157.057 201.958 158.825 201.677 160.558C199.143 176.259 185.537 188.251 169.153 188.251C150.958 188.251 136.213 173.474 136.213 155.242C136.213 141.972 144.024 130.525 155.294 125.282C159.504 123.323 164.202 122.225 169.153 122.225C187.348 122.225 202.103 137.01 202.103 155.242Z" fill="#A8B3C5"/>
<path d="M201.424 155.243C201.424 137.386 186.972 122.905 169.153 122.905C164.302 122.906 159.701 123.98 155.58 125.899C144.541 131.034 136.891 142.247 136.891 155.243C136.892 173.099 151.333 187.57 169.153 187.57C185.199 187.57 198.525 175.826 201.007 160.45V160.449C201.282 158.752 201.424 157.02 201.424 155.243ZM202.781 155.243C202.781 156.862 202.668 158.447 202.448 160.002L202.347 160.667C199.76 176.692 185.875 188.931 169.153 188.931C150.583 188.931 135.534 173.85 135.534 155.243C135.534 141.698 143.507 130.015 155.008 124.665C159.305 122.665 164.1 121.545 169.153 121.545C187.722 121.545 202.781 136.635 202.781 155.243Z" fill="#0C1C41"/>
<g style="mix-blend-mode:multiply">
<path d="M202.103 155.242C202.103 157.057 201.958 158.825 201.677 160.558C197.459 162.517 192.761 163.615 187.809 163.615C169.615 163.615 154.869 148.838 154.869 130.606C154.869 128.792 155.014 127.014 155.294 125.282C159.504 123.323 164.202 122.225 169.153 122.225C187.348 122.225 202.103 137.01 202.103 155.242Z" fill="#A8B3C5"/>
</g>
<path d="M251.074 157.12H124.562V270.794H251.074V157.12Z" fill="#F4F6F9"/>
<path d="M251.753 156.44V271.474H123.884V156.44H251.753ZM125.241 270.114H250.395V157.8H125.241V270.114Z" fill="#0C1C41"/>
<path d="M125.622 157.12L98.7279 195.008L59.822 175.733L87.0054 144.983L125.622 157.12Z" fill="#F4F6F9"/>
<path d="M126.716 156.751L98.9457 195.875L58.725 175.949L86.7891 144.202L126.716 156.751ZM60.919 175.517L98.5099 194.141L124.527 157.488L87.2213 145.764L60.919 175.517Z" fill="#0C1C41"/>
<path d="M202.066 158.281H178.821V181.575H202.066V158.281Z" fill="#A8B3C5"/>
<path d="M202.066 246.575H178.821V269.869H202.066V246.575Z" fill="#A8B3C5"/>
<path d="M124.562 158.281L156.67 196.169H274.447L251.065 158.281H124.562Z" fill="#F4F6F9"/>
<path d="M251.444 157.601L275.665 196.849H156.356L156.153 196.61L123.095 157.601H251.444ZM156.985 195.489H273.229L250.687 158.961H126.029L156.985 195.489Z" fill="#0C1C41"/>
<path d="M160.291 255.283H135.751V259.147H160.291V255.283Z" fill="#A8B3C5"/>
<path d="M150.506 245.559H135.751V249.423H150.506V245.559Z" fill="#A8B3C5"/>
<path d="M274.927 79.0581L235.958 118.107L234.998 117.145L273.967 78.0961L274.927 79.0581Z" fill="#A8B3C5"/>
<path d="M117.918 84.8631H107.11V95.6935H117.918V84.8631Z" fill="#A8B3C5"/>
<path d="M267.839 84.6H278.647V73.7696H267.839V84.6Z" fill="#A8B3C5"/>
<path d="M235.552 165.416L244.301 155.012L270.294 176.96C273.16 179.38 273.525 183.674 271.111 186.546C268.696 189.418 264.41 189.784 261.544 187.365L235.552 165.416Z" fill="#0C1C41"/>
<path d="M239.305 148.242L228.939 160.568L238.886 168.967L249.252 156.641L239.305 148.242Z" fill="#0C1C41"/>
<path d="M203.886 171.334C226.783 171.334 245.345 152.734 245.345 129.79C245.345 106.846 226.783 88.2464 203.886 88.2464C180.989 88.2464 162.428 106.846 162.428 129.79C162.428 152.734 180.989 171.334 203.886 171.334Z" fill="#0C1C41"/>
<path d="M203.886 155.242C217.915 155.242 229.287 143.847 229.287 129.79C229.287 115.733 217.915 104.338 203.886 104.338C189.858 104.338 178.486 115.733 178.486 129.79C178.486 143.847 189.858 155.242 203.886 155.242Z" fill="#0C1C41"/>
<path d="M242.282 158.665L251.031 148.26L277.024 170.208C279.89 172.628 280.255 176.923 277.841 179.794C275.426 182.666 271.14 183.033 268.274 180.613L242.282 158.665Z" fill="#00F2CD"/>
<path d="M251.113 149.219L243.238 158.583L268.712 180.092C271.291 182.27 275.148 181.94 277.321 179.356C279.495 176.772 279.165 172.906 276.586 170.728L251.113 149.219ZM277.461 169.688C280.614 172.35 281.016 177.074 278.36 180.233C275.703 183.392 270.989 183.795 267.837 181.133L241.325 158.746L250.95 147.302L277.461 169.688Z" fill="#0C1C41"/>
<path d="M246.035 141.49L235.669 153.816L245.616 162.215L255.982 149.89L246.035 141.49Z" fill="#00F2CD"/>
<path d="M245.953 140.531L256.939 149.807L245.698 163.174L234.713 153.898L245.953 140.531ZM245.535 161.257L255.025 149.971L246.117 142.448L236.626 153.734L245.535 161.257Z" fill="#0C1C41"/>
<path d="M210.621 164.594C233.518 164.594 252.079 145.995 252.079 123.051C252.079 100.107 233.518 81.5069 210.621 81.5069C187.724 81.5069 169.162 100.107 169.162 123.051C169.162 145.995 187.724 164.594 210.621 164.594Z" fill="#00F2CD"/>
<path d="M251.4 123.05C251.4 100.482 233.143 82.1872 210.621 82.1872C188.099 82.1873 169.841 100.482 169.841 123.05C169.841 145.619 188.099 163.914 210.621 163.914C233.143 163.914 251.4 145.619 251.4 123.05ZM252.758 123.05C252.758 146.37 233.892 165.274 210.621 165.274C187.349 165.274 168.483 146.37 168.483 123.05C168.483 99.7309 187.349 80.8267 210.621 80.8266C233.892 80.8266 252.758 99.7308 252.758 123.05Z" fill="#0C1C41"/>
<path d="M232.599 141.609C229.232 145.609 224.996 148.476 220.397 150.127C211.055 153.51 200.229 151.941 192.091 145.065C179.952 134.824 178.405 116.656 188.642 104.492C189.439 103.549 190.281 102.669 191.159 101.861C201.641 92.1468 217.935 91.5753 229.132 101.018C241.271 111.268 242.819 129.436 232.59 141.6L232.599 141.609Z" fill="#0C1C41"/>
<path d="M228.662 136.593C227.593 140.484 225.693 144.203 222.923 147.496C222.126 148.439 221.284 149.319 220.406 150.127C211.064 153.51 200.238 151.941 192.1 145.065C189.222 142.634 186.932 139.75 185.266 136.593C179.889 126.525 180.84 113.753 188.642 104.483C189.439 103.54 190.281 102.66 191.159 101.852C200.501 98.4691 211.327 100.038 219.465 106.914C228.327 114.388 231.54 126.089 228.653 136.593H228.662Z" fill="url(#paint0_linear_919_17047)"/>
<g style="mix-blend-mode:multiply">
<path d="M209.835 127.602L222.435 127.619L222.453 114.993L209.852 114.975L209.835 127.602Z" fill="#0066E4"/>
</g>
<g style="mix-blend-mode:multiply">
<path d="M210.12 128.169L192.577 145.549L191.623 144.582L209.165 127.202L210.12 128.169Z" fill="#0066E4"/>
</g>
<defs>
<linearGradient id="paint0_linear_919_17047" x1="181.881" y1="125.989" x2="229.694" y2="125.989" gradientUnits="userSpaceOnUse">
<stop stop-color="#153385"/>
<stop offset="1" stop-color="#0B64DD"/>
</linearGradient>
</defs>
</svg>
