<svg width="345" height="345" viewBox="0 0 345 345" fill="none" xmlns="http://www.w3.org/2000/svg">
<path d="M153.426 130.434L152.204 131.128L113.85 91.6371L114.825 90.6947L153.426 130.434Z" fill="#A8B3C5"/>
<path d="M212.102 258.689L123.749 271.609L85.8812 247.576V145.47H212.102L250.629 157.559L212.102 258.689Z" fill="#0B64DD"/>
<path d="M202.103 155.847C202.103 157.653 201.958 159.414 201.677 161.139C199.143 176.772 185.537 188.711 169.153 188.711C150.958 188.711 136.213 173.999 136.213 155.847C136.213 142.635 144.024 131.238 155.294 126.018C159.504 124.067 164.202 122.974 169.153 122.974C187.348 122.974 202.103 137.695 202.103 155.847Z" fill="#A8B3C5"/>
<path d="M201.424 155.847C201.424 138.069 186.972 123.652 169.153 123.652C164.302 123.652 159.701 124.722 155.58 126.632C144.541 131.745 136.891 142.908 136.891 155.847C136.892 173.625 151.333 188.033 169.153 188.033C185.199 188.033 198.525 176.341 201.007 161.031C201.282 159.343 201.424 157.617 201.424 155.847ZM202.781 155.847C202.781 157.46 202.668 159.037 202.448 160.586L202.347 161.247C199.76 177.203 185.875 189.388 169.153 189.388C150.583 189.388 135.534 174.373 135.534 155.847C135.534 142.362 143.507 130.73 155.008 125.403C159.305 123.412 164.1 122.297 169.153 122.297C187.722 122.297 202.781 137.321 202.781 155.847Z" fill="#0C1C41"/>
<g style="mix-blend-mode:multiply">
<path d="M202.103 155.847C202.103 157.653 201.958 159.414 201.677 161.139C197.459 163.09 192.761 164.183 187.809 164.183C169.615 164.183 154.869 149.471 154.869 131.319C154.869 129.513 155.014 127.743 155.294 126.018C159.504 124.067 164.202 122.974 169.153 122.974C187.348 122.974 202.103 137.695 202.103 155.847Z" fill="#A8B3C5"/>
</g>
<path d="M251.074 157.717H124.562V270.893H251.074V157.717Z" fill="#F4F6F9"/>
<path d="M251.753 157.039V271.57H123.884V157.039H251.753ZM125.241 270.216H250.395V158.394H125.241V270.216Z" fill="#0C1C41"/>
<path d="M125.622 157.717L98.7279 195.439L59.822 176.248L87.0054 145.633L125.622 157.717Z" fill="#F4F6F9"/>
<path d="M126.716 157.35L98.9457 196.302L58.725 176.463L86.7891 144.855L126.716 157.35ZM60.919 176.033L98.5099 194.575L124.527 158.083L87.2213 146.41L60.919 176.033Z" fill="#0C1C41"/>
<path d="M202.066 158.872H178.821V182.064H202.066V158.872Z" fill="#A8B3C5"/>
<path d="M202.066 246.78H178.821V269.972H202.066V246.78Z" fill="#A8B3C5"/>
<path d="M124.562 158.872L156.67 196.595H274.447L251.065 158.872H124.562Z" fill="#F4F6F9"/>
<path d="M251.444 158.195L275.665 197.272H156.356L156.153 197.034L123.095 158.195H251.444ZM156.985 195.917H273.229L250.687 159.55H126.029L156.985 195.917Z" fill="#0C1C41"/>
<path d="M160.291 255.45H135.751V259.297H160.291V255.45Z" fill="#A8B3C5"/>
<path d="M150.506 245.768H135.751V249.616H150.506V245.768Z" fill="#A8B3C5"/>
<path d="M272.211 79.9962L233.242 118.874L232.282 117.917L271.251 79.0385L272.211 79.9962Z" fill="#A8B3C5"/>
<path d="M235.552 165.973L244.302 155.614L270.294 177.466C273.16 179.875 273.526 184.151 271.111 187.01C268.696 189.869 264.41 190.234 261.544 187.825L235.552 165.973Z" fill="#0C1C41"/>
<path d="M239.305 148.883L228.939 161.155L238.886 169.517L249.252 157.245L239.305 148.883Z" fill="#0C1C41"/>
<path d="M203.886 171.868C226.783 171.868 245.345 153.35 245.345 130.506C245.345 107.663 226.783 89.1443 203.886 89.1443C180.989 89.1443 162.428 107.663 162.428 130.506C162.428 153.35 180.989 171.868 203.886 171.868Z" fill="#0C1C41"/>
<path d="M203.886 155.847C217.915 155.847 229.287 144.502 229.287 130.506C229.287 116.511 217.915 105.165 203.886 105.165C189.858 105.165 178.486 116.511 178.486 130.506C178.486 144.502 189.858 155.847 203.886 155.847Z" fill="#0C1C41"/>
<path d="M242.282 159.25L251.031 148.892L277.024 170.744C279.89 173.153 280.256 177.429 277.841 180.288C275.426 183.147 271.14 183.512 268.274 181.103L242.282 159.25Z" fill="#00F2CD"/>
<path d="M251.113 149.846L243.239 159.169L268.712 180.585C271.291 182.753 275.148 182.424 277.322 179.851C279.495 177.278 279.165 173.43 276.586 171.262L251.113 149.846ZM277.461 170.226C280.614 172.876 281.016 177.579 278.36 180.724C275.703 183.869 270.989 184.271 267.837 181.62L241.325 159.332L250.95 147.937L277.461 170.226Z" fill="#0C1C41"/>
<path d="M246.035 142.16L235.669 154.432L245.616 162.795L255.982 150.523L246.035 142.16Z" fill="#00F2CD"/>
<path d="M245.953 141.206L256.938 150.442L245.698 163.749L234.713 154.514L245.953 141.206ZM245.535 161.84L255.025 150.605L246.116 143.115L236.626 154.351L245.535 161.84Z" fill="#0C1C41"/>
<path d="M210.621 165.158C233.518 165.158 252.079 146.64 252.079 123.796C252.079 100.953 233.518 82.4343 210.621 82.4343C187.724 82.4343 169.162 100.953 169.162 123.796C169.162 146.64 187.724 165.158 210.621 165.158Z" fill="#00F2CD"/>
<path d="M251.4 123.796C251.4 101.327 233.143 83.1117 210.621 83.1117C188.099 83.1118 169.841 101.327 169.841 123.796C169.841 146.265 188.099 164.48 210.621 164.48C233.143 164.48 251.4 146.265 251.4 123.796ZM252.758 123.796C252.758 147.014 233.892 165.835 210.621 165.835C187.349 165.835 168.483 147.014 168.483 123.796C168.483 100.579 187.349 81.7571 210.621 81.757C233.892 81.757 252.758 100.579 252.758 123.796Z" fill="#0C1C41"/>
<path d="M232.599 142.274C229.232 146.256 224.995 149.11 220.397 150.754C211.055 154.122 200.229 152.56 192.091 145.714C179.952 135.518 178.404 117.429 188.642 105.319C189.439 104.38 190.281 103.504 191.159 102.7C201.641 93.0277 217.935 92.4587 229.132 101.86C241.271 112.065 242.819 130.154 232.59 142.265L232.599 142.274Z" fill="#0C1C41"/>
<path d="M228.662 137.279C227.594 141.154 225.693 144.856 222.923 148.135C222.126 149.074 221.284 149.95 220.406 150.754C211.064 154.122 200.238 152.56 192.1 145.714C189.222 143.294 186.932 140.422 185.266 137.279C179.889 127.255 180.84 114.539 188.642 105.31C189.439 104.371 190.281 103.495 191.159 102.691C200.501 99.3223 211.327 100.885 219.465 107.73C228.327 115.172 231.54 126.822 228.653 137.279H228.662Z" fill="url(#paint0_linear_919_17571)"/>
<g style="mix-blend-mode:multiply">
<path d="M209.835 128.323L222.435 128.341L222.453 115.77L209.852 115.752L209.835 128.323Z" fill="#0066E4"/>
</g>
<g style="mix-blend-mode:multiply">
<path d="M210.12 128.893L192.577 146.196L191.623 145.233L209.165 127.93L210.12 128.893Z" fill="#0066E4"/>
</g>
<path d="M117.728 83.6084H106.92V94.3914H117.728V83.6084Z" fill="#A8B3C5"/>
<path d="M267.142 84.4574H277.95V73.6744H267.142V84.4574Z" fill="#A8B3C5"/>
<defs>
<linearGradient id="paint0_linear_919_17571" x1="181.881" y1="126.722" x2="229.694" y2="126.722" gradientUnits="userSpaceOnUse">
<stop stop-color="#153385"/>
<stop offset="1" stop-color="#0B64DD"/>
</linearGradient>
</defs>
</svg>
