<svg width="155" height="165" viewBox="0 0 155 165" fill="none" xmlns="http://www.w3.org/2000/svg">
<path d="M113.709 0.557251H22.2109C16.6707 0.557251 12.1795 5.03207 12.1795 10.552V142.454C12.1795 147.974 16.6707 152.448 22.2109 152.448H113.709C119.249 152.448 123.741 147.974 123.741 142.454V10.552C123.741 5.03207 119.249 0.557251 113.709 0.557251Z" fill="#F4F6F9"/>
<path d="M113.709 1.11466C118.93 1.11466 123.181 5.35037 123.181 10.5521V142.454C123.181 147.655 118.93 151.891 113.709 151.891H22.2109C16.9901 151.891 12.7388 147.655 12.7388 142.454V10.5521C12.7388 5.35037 16.9901 1.11466 22.2109 1.11466H113.709ZM113.709 0H22.2109C16.3636 0 11.6201 4.71873 11.6201 10.5521V142.454C11.6201 148.28 16.3636 153.006 22.2109 153.006H113.709C119.564 153.006 124.3 148.28 124.3 142.454V10.5521C124.3 4.71873 119.564 0 113.709 0Z" fill="#0C1C41"/>
<path d="M102.44 28.2975C98.6957 28.2975 95.6527 25.2656 95.6527 21.5352V0.557251H113.709C119.243 0.557251 123.741 5.03819 123.741 10.552V28.2975H102.44Z" fill="white"/>
<path d="M113.709 1.11466C118.93 1.11466 123.181 5.35037 123.181 10.5521V27.7402H102.44C99.0089 27.7402 96.212 24.9536 96.212 21.5353V1.11466H113.709ZM113.709 0H95.0933V21.5353C95.0933 25.5778 98.3824 28.8549 102.44 28.8549H124.3V10.5521C124.3 4.71873 119.564 0 113.709 0Z" fill="#0C1C41"/>
<path d="M85.226 31.6713H15.0508C9.20995 31.6713 4.47498 36.3873 4.47498 42.2048C4.47498 48.0223 9.20995 52.7384 15.0508 52.7384H85.226C91.0668 52.7384 95.8018 48.0223 95.8018 42.2048C95.8018 36.3873 91.0668 31.6713 85.226 31.6713Z" fill="#0C1C41"/>
<path d="M85.226 60.3776H15.0508C9.20995 60.3776 4.47498 65.0936 4.47498 70.9111C4.47498 76.7286 9.20995 81.4447 15.0508 81.4447H85.226C91.0668 81.4447 95.8018 76.7286 95.8018 70.9111C95.8018 65.0936 91.0668 60.3776 85.226 60.3776Z" fill="#0C1C41"/>
<path d="M85.226 89.0912H15.0508C9.20995 89.0912 4.47498 93.8072 4.47498 99.6247C4.47498 105.442 9.20995 110.158 15.0508 110.158H85.226C91.0668 110.158 95.8018 105.442 95.8018 99.6247C95.8018 93.8072 91.0668 89.0912 85.226 89.0912Z" fill="#0C1C41"/>
<path d="M10.5758 52.1811C5.05671 52.1811 0.559357 47.7076 0.559357 42.2011C0.559357 36.6947 5.04925 32.2212 10.5758 32.2212H80.7584C86.2776 32.2212 90.7749 36.6947 90.7749 42.2011C90.7749 47.7076 86.285 52.1811 80.7584 52.1811H10.5758Z" fill="white"/>
<path d="M80.7584 32.7859C85.9718 32.7859 90.2156 37.0142 90.2156 42.2085C90.2156 47.4029 85.9718 51.6311 80.7584 51.6311H10.5759C5.36252 51.6311 1.11874 47.4029 1.11874 42.2085C1.11874 37.0142 5.36252 32.7859 10.5759 32.7859H80.7584ZM80.7584 31.6713H10.5759C4.73602 31.6713 0 36.39 0 42.2085C0 48.0271 4.73602 52.7458 10.5759 52.7458H80.7584C86.5983 52.7458 91.3343 48.0271 91.3343 42.2085C91.3343 36.39 86.5983 31.6713 80.7584 31.6713Z" fill="#0C1C41"/>
<path d="M10.5758 80.8948C5.05671 80.8948 0.559357 76.4213 0.559357 70.9149C0.559357 65.4084 5.04925 60.9349 10.5758 60.9349H80.7584C86.2776 60.9349 90.7749 65.4084 90.7749 70.9149C90.7749 76.4213 86.285 80.8948 80.7584 80.8948H10.5758Z" fill="white"/>
<path d="M80.7584 61.4922C85.9718 61.4922 90.2156 65.7205 90.2156 70.9148C90.2156 76.1091 85.9718 80.3374 80.7584 80.3374H10.5759C5.36252 80.3374 1.11874 76.1091 1.11874 70.9148C1.11874 65.7205 5.36252 61.4922 10.5759 61.4922H80.7584ZM80.7584 60.3776H10.5759C4.73602 60.3776 0 65.0963 0 70.9148C0 76.7334 4.73602 81.4521 10.5759 81.4521H80.7584C86.5983 81.4521 91.3343 76.7334 91.3343 70.9148C91.3343 65.0963 86.5983 60.3776 80.7584 60.3776Z" fill="#0C1C41"/>
<path d="M10.5758 109.608C5.05671 109.608 0.559357 105.135 0.559357 99.6286C0.559357 94.1221 5.04925 89.6486 10.5758 89.6486H80.7584C86.2776 89.6486 90.7749 94.1221 90.7749 99.6286C90.7749 105.135 86.285 109.608 80.7584 109.608H10.5758Z" fill="white"/>
<path d="M80.7584 90.2058C85.9718 90.2058 90.2156 94.4341 90.2156 99.6284C90.2156 104.823 85.9718 109.051 80.7584 109.051H10.5759C5.36252 109.051 1.11874 104.823 1.11874 99.6284C1.11874 94.4341 5.36252 90.2058 10.5759 90.2058H80.7584ZM80.7584 89.0912H10.5759C4.73602 89.0912 0 93.8099 0 99.6284C0 105.447 4.73602 110.166 10.5759 110.166H80.7584C86.5983 110.166 91.3343 105.447 91.3343 99.6284C91.3343 93.8099 86.5983 89.0912 80.7584 89.0912Z" fill="#0C1C41"/>
<path d="M42.9375 39.0875H14.3498C12.8422 39.0875 11.6201 40.3035 11.6201 41.8035C11.6201 43.3036 12.8422 44.5196 14.3498 44.5196H42.9375C44.4451 44.5196 45.6672 43.3036 45.6672 41.8035C45.6672 40.3035 44.4451 39.0875 42.9375 39.0875Z" fill="#0066E4"/>
<path d="M69.377 39.0875H51.5069C49.9993 39.0875 48.7772 40.3035 48.7772 41.8035C48.7772 43.3036 49.9993 44.5196 51.5069 44.5196H69.377C70.8846 44.5196 72.1067 43.3036 72.1067 41.8035C72.1067 40.3035 70.8846 39.0875 69.377 39.0875Z" fill="#0066E4"/>
<path d="M80.5944 39.0875H78.0884C76.5808 39.0875 75.3587 40.3035 75.3587 41.8035C75.3587 43.3036 76.5808 44.5196 78.0884 44.5196H80.5944C82.102 44.5196 83.3241 43.3036 83.3241 41.8035C83.3241 40.3035 82.102 39.0875 80.5944 39.0875Z" fill="#0066E4"/>
<path d="M34.338 68.195H16.4679C14.9603 68.195 13.7381 69.411 13.7381 70.9111C13.7381 72.4111 14.9603 73.6271 16.4679 73.6271H34.338C35.8455 73.6271 37.0677 72.4111 37.0677 70.9111C37.0677 69.411 35.8455 68.195 34.338 68.195Z" fill="#0066E4"/>
<path d="M79.9159 68.195H45.4809C43.9733 68.195 42.7512 69.411 42.7512 70.9111C42.7512 72.4111 43.9733 73.6271 45.4809 73.6271H79.9159C81.4235 73.6271 82.6456 72.4111 82.6456 70.9111C82.6456 69.411 81.4235 68.195 79.9159 68.195Z" fill="#0066E4"/>
<path d="M83.2944 125.622H52.6333C49.5811 125.622 47.1067 128.088 47.1067 131.129C47.1067 134.17 49.5811 136.635 52.6333 136.635H83.2944C86.3466 136.635 88.821 134.17 88.821 131.129C88.821 128.088 86.3466 125.622 83.2944 125.622Z" fill="#FF3A99"/>
<path d="M88.2614 131.129C88.2614 128.396 86.0373 126.18 83.294 126.18H52.6334C49.8901 126.18 47.6661 128.396 47.6661 131.129C47.6662 133.862 49.8902 136.078 52.6334 136.078H83.294C86.0373 136.078 88.2613 133.862 88.2614 131.129ZM89.3801 131.129C89.38 134.478 86.6552 137.193 83.294 137.193H52.6334C49.2723 137.193 46.5474 134.478 46.5473 131.129C46.5473 127.78 49.2722 125.065 52.6334 125.065H83.294C86.6552 125.065 89.3801 127.78 89.3801 131.129Z" fill="#0C1C41"/>
<path d="M146.57 115.375H96.4507C92.2368 115.375 88.8208 118.778 88.8208 122.977V156.729C88.8208 160.927 92.2368 164.331 96.4507 164.331H146.57C150.784 164.331 154.2 160.927 154.2 156.729V122.977C154.2 118.778 150.784 115.375 146.57 115.375Z" fill="#0C1C41"/>
<path d="M140.857 115.984H92.0354C87.9327 115.984 84.6069 119.298 84.6069 123.386V156.261C84.6069 160.348 87.9327 163.662 92.0354 163.662H140.857C144.96 163.662 148.286 160.348 148.286 156.261V123.386C148.286 119.298 144.96 115.984 140.857 115.984Z" fill="#DAE1EA"/>
<path d="M147.726 123.386C147.726 119.606 144.651 116.542 140.857 116.542H92.0353C88.2417 116.542 85.1663 119.606 85.1663 123.386V156.261C85.1664 160.041 88.2417 163.105 92.0353 163.105H140.857C144.651 163.105 147.726 160.041 147.726 156.261V123.386ZM148.845 156.261C148.845 160.656 145.269 164.22 140.857 164.22H92.0353C87.6238 164.22 84.0476 160.656 84.0475 156.261V123.386C84.0475 118.99 87.6238 115.427 92.0353 115.427H140.857C145.269 115.427 148.845 118.99 148.845 123.386V156.261Z" fill="#0C1C41"/>
<path d="M116.581 151.386C108.541 151.386 100.65 147.737 93.1168 140.537C94.7726 138.396 103.506 127.934 116.014 127.934C124.046 127.934 132.109 132.192 139.962 140.596C138.135 142.521 129.029 151.386 116.581 151.386Z" fill="#F4F6F9"/>
<path d="M116.014 128.483C123.763 128.483 131.557 132.556 139.187 140.589C136.763 143.033 128.119 150.829 116.581 150.829C108.817 150.829 101.179 147.351 93.8701 140.477C96.0778 137.735 104.401 128.483 116.014 128.483ZM116.014 127.369C101.686 127.369 92.3784 140.589 92.3784 140.589C101.134 149.105 109.421 151.936 116.588 151.936C130.915 151.936 140.731 140.589 140.731 140.589C131.594 130.668 123.181 127.369 116.021 127.369H116.014Z" fill="#0C1C41"/>
<path d="M116.551 150.531C122.499 150.531 127.321 145.727 127.321 139.801C127.321 133.875 122.499 129.07 116.551 129.07C110.603 129.07 105.781 133.875 105.781 139.801C105.781 145.727 110.603 150.531 116.551 150.531Z" fill="url(#paint0_linear_600_10149)"/>
<path d="M116.551 145.478C119.698 145.478 122.249 142.936 122.249 139.801C122.249 136.665 119.698 134.124 116.551 134.124C113.404 134.124 110.853 136.665 110.853 139.801C110.853 142.936 113.404 145.478 116.551 145.478Z" fill="#0C1C41"/>
<path d="M124.695 28.4605L123.904 29.2486L96.9801 2.42274L97.7711 1.63464L124.695 28.4605Z" fill="#0C1C41"/>
<path d="M18.5487 93.4458H15.7742V105.804H18.5487V93.4458Z" fill="#0C1C41"/>
<defs>
<linearGradient id="paint0_linear_600_10149" x1="96.928" y1="129.947" x2="123.515" y2="143.394" gradientUnits="userSpaceOnUse">
<stop stop-color="#48EFCF"/>
<stop offset="1" stop-color="#0B64DD"/>
</linearGradient>
</defs>
</svg>
