<svg width="345" height="345" viewBox="0 0 345 345" fill="none" xmlns="http://www.w3.org/2000/svg">
<g clip-path="url(#clip0_3605_16769)">
<path d="M237.599 86.0293H68.4859C59.1117 86.0293 51.5125 93.6286 51.5125 103.003V230.399C51.5125 239.773 59.1117 247.373 68.4859 247.373H237.599C246.973 247.373 254.572 239.773 254.572 230.399V103.003C254.572 93.6286 246.973 86.0293 237.599 86.0293Z" fill="#1D3280"/>
<path d="M248.141 86.0293H79.0286C69.6544 86.0293 62.0552 93.6286 62.0552 103.003V230.399C62.0552 239.773 69.6544 247.373 79.0286 247.373H248.141C257.516 247.373 265.115 239.773 265.115 230.399V103.003C265.115 93.6286 257.516 86.0293 248.141 86.0293Z" fill="#F4F6F9" stroke="#1D3280" stroke-width="2.39062" stroke-linecap="round" stroke-linejoin="round"/>
<path d="M62.0552 112.278H265.115" stroke="#1D3280" stroke-width="2.39062" stroke-linecap="round" stroke-linejoin="round"/>
<path d="M101.716 98.1494H81.4192C80.1253 98.1494 79.0764 99.1983 79.0764 100.492V100.707C79.0764 102.001 80.1253 103.05 81.4192 103.05H101.716C103.01 103.05 104.058 102.001 104.058 100.707V100.492C104.058 99.1983 103.01 98.1494 101.716 98.1494Z" fill="#1D3280" stroke="#1D3280" stroke-width="2.39062" stroke-linecap="round" stroke-linejoin="round"/>
<path d="M141.998 146.513H84.6704" stroke="#1D3280" stroke-width="2.39062" stroke-linecap="round" stroke-linejoin="round"/>
<path d="M222.203 146.513H126.172" stroke="#1D3280" stroke-width="2.39062" stroke-linecap="round" stroke-linejoin="round"/>
<path d="M174.199 174.746H126.172" stroke="#1D3280" stroke-width="2.39062" stroke-linecap="round" stroke-linejoin="round"/>
<path d="M111.087 174.746H84.6704" stroke="#1D3280" stroke-width="2.39062" stroke-linecap="round" stroke-linejoin="round"/>
<path d="M220.099 202.907H126.172" stroke="#1D3280" stroke-width="2.39062" stroke-linecap="round" stroke-linejoin="round"/>
<path d="M111.087 202.907H84.6704" stroke="#1D3280" stroke-width="2.39062" stroke-linecap="round" stroke-linejoin="round"/>
<path d="M300.233 160.617V255.763C300.233 258.656 297.89 261.023 294.974 261.023H203.269C200.377 261.023 198.01 258.68 198.01 255.763V143.595C198.01 140.703 200.353 138.336 203.269 138.336H278.287L300.209 160.617H300.233Z" fill="#48EFCF" stroke="#1D3280" stroke-width="2.39062" stroke-miterlimit="10"/>
<path d="M284.909 201.09C284.909 201.09 268.318 223.849 247.854 223.849C227.391 223.849 210.8 201.09 210.8 201.09C210.8 201.09 227.391 178.283 247.854 178.283C268.318 178.283 284.909 201.09 284.909 201.09Z" fill="#1D3280" stroke="#1D3280" stroke-width="2.39062" stroke-miterlimit="10"/>
<path d="M287.467 198.341C287.467 198.341 270.876 221.1 250.412 221.1C229.949 221.1 213.358 198.341 213.358 198.341C213.358 198.341 229.949 175.534 250.412 175.534C270.876 175.534 287.467 198.341 287.467 198.341Z" fill="white" stroke="#1D3280" stroke-width="2.39062" stroke-miterlimit="10"/>
<path d="M250.412 214.501C259.353 214.501 266.597 207.257 266.597 198.316C266.597 189.375 259.353 182.132 250.412 182.132C241.472 182.132 234.228 189.375 234.228 198.316C234.228 207.257 241.472 214.501 250.412 214.501Z" fill="#0B64DD"/>
<path d="M250.413 207.258C255.361 207.258 259.353 203.266 259.353 198.317C259.353 193.368 255.361 189.376 250.413 189.376C245.464 189.376 241.472 193.368 241.472 198.317C241.472 203.266 245.464 207.258 250.413 207.258Z" fill="#1D3280" stroke="#1D3280" stroke-width="2.39062" stroke-linecap="round" stroke-linejoin="round"/>
<path d="M279.028 139.245L300.233 160.426H279.028V139.245Z" fill="white" stroke="#1D3280" stroke-width="2.39062" stroke-linecap="round" stroke-linejoin="round"/>
<path d="M198.01 194.97H84.6704V219.545H198.01V194.97Z" fill="white" stroke="#1D3280" stroke-width="2.39062" stroke-miterlimit="10"/>
<path d="M162.342 236.423L165.521 234.535L173.387 230.064L172.478 226.168L161.099 230.017L113.74 216.223L126.387 265.111L125.263 273.454L128.586 275.701L133.965 265.087L140.229 253.134L160.047 275.701L174.654 260.282L152.301 241.778L162.366 236.376L162.342 236.423Z" fill="#1D3280"/>
<path d="M125.694 272.665L128.993 274.913L133.941 265.135L140.205 253.182L156.987 270.92L169.968 257.939L152.253 241.826L162.318 236.423L165.498 234.535L173.363 230.064L171.713 226.431" stroke="#1D3280" stroke-width="2.39062" stroke-miterlimit="10"/>
<path d="M169.992 226.407L109.605 210.533L125.478 270.92L135.161 249.07L157.011 270.92L169.992 257.939L148.142 236.089L169.992 226.407Z" fill="#2C62D4" stroke="#1D3280" stroke-width="2.39062" stroke-miterlimit="10"/>
</g>
<defs>
<clipPath id="clip0_3605_16769">
<rect width="306" height="306" fill="white" transform="translate(19 20)"/>
</clipPath>
</defs>
</svg>
