<svg width="12" height="12" viewBox="0 0 12 12" fill="none" xmlns="http://www.w3.org/2000/svg">
<path d="M7.5 4.125H4.5C4.29289 4.125 4.125 4.29289 4.125 4.5V7.5C4.125 7.70711 4.29289 7.875 4.5 7.875H7.5C7.70711 7.875 7.875 7.70711 7.875 7.5V4.5C7.875 4.29289 7.70711 4.125 7.5 4.125Z" stroke="currentColor" />
<path d="M9 3L10.125 1.875" stroke="currentColor"/>
<path d="M3 3L1.875 1.875" stroke="currentColor"/>
<path d="M3 9L1.875 10.125" stroke="currentColor"/>
<path d="M9 9L10.125 10.125" stroke="currentColor"/>
<path d="M6 3V0.75" stroke="currentColor"/>
<path d="M6 11.25V9" stroke="currentColor"/>
<path d="M9.00391 6H11.2539" stroke="currentColor"/>
<path d="M0.753906 6H3.00391" stroke="currentColor"/>
</svg>
