<svg width="345" height="345" viewBox="0 0 345 345" fill="none" xmlns="http://www.w3.org/2000/svg">
<g clip-path="url(#clip0_3602_15223)">
<path d="M261.495 179.308C261.495 188.091 260.052 196.547 257.388 204.436C246.92 235.442 217.581 257.769 183.017 257.769C139.688 257.769 104.539 222.637 104.539 179.308C104.539 135.978 139.688 100.83 183.017 100.83C226.347 100.83 261.495 135.961 261.495 179.308Z" fill="#0C1C41" stroke="#0C1C41" stroke-width="1.71875" stroke-linecap="round" stroke-linejoin="round"/>
<path d="M271.705 179.308C271.705 188.09 270.261 196.529 267.597 204.436C257.13 235.442 227.791 257.786 193.227 257.786C149.897 257.786 114.748 222.654 114.748 179.325C114.748 177.623 114.8 175.922 114.92 174.237C117 141.65 138.966 114.476 168.803 104.731C171.484 103.854 174.217 103.115 177.002 102.531C182.244 101.431 187.658 100.864 193.227 100.864C236.573 100.864 271.705 135.995 271.705 179.342V179.308Z" fill="white" stroke="#0C1C41" stroke-width="1.71875" stroke-linecap="round" stroke-linejoin="round"/>
<path d="M225.625 184.292C225.625 202.184 211.119 216.69 193.227 216.69C186.523 216.69 180.284 214.645 175.111 211.156C166.5 205.329 160.828 195.481 160.828 184.292C160.828 166.4 175.334 151.894 193.227 151.894C211.119 151.894 225.625 166.4 225.625 184.292Z" fill="white" stroke="#0C1C41" stroke-width="1.71875" stroke-linecap="round" stroke-linejoin="round"/>
<path d="M238.877 133.864L195.908 174.478L190.494 181.576L126.762 204.676C126.762 204.676 127.089 122.554 151.117 117.003C175.145 111.451 232.689 112.603 238.877 133.881V133.864Z" fill="white"/>
<path d="M271.223 184.292H114.284" stroke="#0C1C41" stroke-width="1.71875" stroke-linecap="round" stroke-linejoin="round"/>
<path d="M193.227 100.83V257.769" stroke="#0C1C41" stroke-width="1.71875" stroke-linecap="round" stroke-linejoin="round"/>
<path d="M193.227 190.205C197.641 190.205 201.219 186.626 201.219 182.212C201.219 177.798 197.641 174.22 193.227 174.22C188.813 174.22 185.234 177.798 185.234 182.212C185.234 186.626 188.813 190.205 193.227 190.205Z" fill="#0C1C41" stroke="#0C1C41" stroke-width="1.71875" stroke-linecap="round" stroke-linejoin="round"/>
<path d="M252.987 179.308C252.987 212.308 226.227 239.069 193.227 239.069C180.852 239.069 169.353 235.305 159.814 228.859C143.916 218.117 133.466 199.933 133.466 179.308C133.466 146.308 160.227 119.547 193.227 119.547C226.227 119.547 252.987 146.308 252.987 179.308Z" stroke="#0C1C41" stroke-width="1.71875" stroke-linecap="round" stroke-linejoin="round"/>
<path d="M242.832 140.649C244.98 138.501 244.983 135.022 242.838 132.877C240.694 130.733 237.214 130.735 235.066 132.883L189.783 178.167C187.635 180.315 187.632 183.794 189.777 185.939C191.921 188.083 195.401 188.081 197.549 185.933L242.832 140.649Z" fill="#48EFCF" stroke="#0C1C41" stroke-width="1.71875" stroke-linecap="round" stroke-linejoin="round"/>
<path d="M166.5 89.8467H78.7406C75.181 89.8467 72.2953 92.7323 72.2953 96.292V160.487C72.2953 164.047 75.181 166.933 78.7406 166.933H166.5C170.06 166.933 172.945 164.047 172.945 160.487V96.292C172.945 92.7323 170.06 89.8467 166.5 89.8467Z" fill="#0C1C41"/>
<path d="M181.247 96.292V160.504C181.247 164.062 178.359 166.933 174.802 166.933H87.025C83.4672 166.933 80.5797 164.062 80.5797 160.504V96.292C80.5797 92.7342 83.4672 89.8467 87.025 89.8467H174.802C178.359 89.8467 181.247 92.7342 181.247 96.292Z" fill="#F4F6F9" stroke="#0C1C41" stroke-width="1.71875" stroke-linecap="round" stroke-linejoin="round"/>
<path d="M181.247 96.292V100.829H80.5797V96.292C80.5797 92.7342 83.4672 89.8467 87.025 89.8467H174.802C178.359 89.8467 181.247 92.7342 181.247 96.292Z" fill="#F4F6F9" stroke="#0C1C41" stroke-width="1.71875" stroke-linecap="round" stroke-linejoin="round"/>
<path d="M89.2078 97.0137H104.041C104.971 97.0137 105.725 96.2634 105.725 95.3379C105.725 94.4124 104.971 93.6621 104.041 93.6621H89.2078C88.2775 93.6621 87.5234 94.4124 87.5234 95.3379C87.5234 96.2634 88.2775 97.0137 89.2078 97.0137Z" fill="#131C3D"/>
<path d="M107.444 157.978C104.831 157.978 102.442 156.431 101.205 153.905C99.9672 151.378 100.105 148.353 101.548 145.981L124.133 108.908C125.439 106.759 127.622 105.47 130.011 105.47C132.417 105.47 134.634 106.776 135.923 108.959L158.095 146.033C159.522 148.422 159.642 151.447 158.388 153.939C157.15 156.431 154.761 157.978 152.166 157.978H107.427H107.444Z" fill="#131C3D" stroke="#131C3D" stroke-width="1.71875" stroke-miterlimit="10"/>
<path d="M110.228 157.978C107.616 157.978 105.227 156.431 103.989 153.905C102.752 151.378 102.889 148.353 104.333 145.981L126.917 108.908C128.224 106.759 130.406 105.47 132.795 105.47C135.184 105.47 137.419 106.776 138.708 108.959L160.88 146.033C162.306 148.422 162.427 151.447 161.172 153.939C159.934 156.431 157.545 157.978 154.95 157.978H110.211H110.228Z" fill="#2C62D4" stroke="#131C3D" stroke-width="1.71875" stroke-miterlimit="10"/>
<path d="M135.631 111.177C134.308 108.977 131.352 108.942 130.011 111.142L107.427 148.216C105.949 150.656 107.547 153.922 110.228 153.922H154.967C157.649 153.922 159.247 150.673 157.786 148.233L135.614 111.159L135.631 111.177Z" fill="white" stroke="#131C3D" stroke-width="1.71875" stroke-miterlimit="10"/>
<path d="M129.753 125.494H136.198L135.116 141.667H130.802L129.753 125.494ZM130.097 150.003V144.022H135.872V150.003H130.097Z" fill="#131C3D"/>
</g>
<defs>
<clipPath id="clip0_3602_15223">
<rect width="220" height="220" fill="white" transform="translate(62 63)"/>
</clipPath>
</defs>
</svg>
