<svg width="345" height="345" viewBox="0 0 345 345" fill="none" xmlns="http://www.w3.org/2000/svg">
<g clip-path="url(#clip0_919_16875)">
<path d="M178.57 215.618C206.132 215.618 228.476 193.274 228.476 165.711C228.476 138.148 206.132 115.804 178.57 115.804C151.007 115.804 128.663 138.148 128.663 165.711C128.663 193.274 151.007 215.618 178.57 215.618Z" fill="#48EFCF" stroke="#101C3F" stroke-width="1.71442" stroke-linejoin="round"/>
<path d="M232.111 190.039C222.905 178.089 210.869 165.66 196.691 153.95C193.657 151.447 190.605 149.047 187.553 146.75C190.176 148.738 192.782 150.813 195.388 152.956C209.978 164.991 222.527 177.712 232.128 190.039H232.111Z" fill="#101C3F" stroke="#101C3F" stroke-width="1.71442" stroke-linejoin="round"/>
<path d="M232.111 190.039C250.027 213.286 257.227 234.683 248.552 245.192C235.42 261.102 190.913 246.049 149.133 211.572C107.352 177.095 84.139 136.24 97.2715 120.33C109.444 105.569 148.601 117.45 187.536 146.733C146.39 115.496 103.786 103.752 89.7966 120.708C74.9154 138.743 98.0601 182.41 141.487 218.241C184.913 254.073 231.768 268.165 247.061 250.49C258.479 237.306 251.073 214.418 232.111 190.039Z" fill="#153385" stroke="#101C3F" stroke-width="1.71442" stroke-linejoin="round"/>
<path d="M247.061 250.49C231.768 268.165 184.913 254.09 141.487 218.241C98.0601 182.41 74.9154 138.726 89.7966 120.708C104.678 102.672 151.945 117.107 195.371 152.956C238.797 188.805 264.239 230.637 247.061 250.49Z" stroke="#101C3F" stroke-width="1.71442" stroke-linejoin="round"/>
<path d="M203.72 144.452C156.848 105.758 105.089 91.0651 88.1335 111.621C77.4183 124.599 83.1445 148.533 100.615 174.146C85.7162 151.893 80.7958 131.611 89.7965 120.708C104.678 102.672 151.944 117.107 195.371 152.956C238.797 188.787 264.239 230.636 247.061 250.49C231.819 268.114 185.204 254.176 141.898 218.584C142.035 218.687 142.155 218.807 142.292 218.91C189.165 257.604 240.923 272.297 257.896 251.724C274.869 231.168 250.61 183.13 203.737 144.452H203.72Z" fill="#0B64DD" stroke="#101C3F" stroke-width="1.71442" stroke-linejoin="round"/>
<mask id="mask0_919_16875" style="mask-type:luminance" maskUnits="userSpaceOnUse" x="93" y="57" width="162" height="238">
<path d="M220.316 138.383C220.316 138.383 228.648 150.95 228.459 165.711L248.261 156.968L254.93 57.8567L191.856 64.5087L114.159 139.326L101.369 196.554L93.9283 277.989L124.874 294.825L197.737 220.007L196.554 212.172C196.554 212.172 190.708 215.584 173.838 215.584C159.299 215.584 136.618 213.338 136.618 213.338L160.157 142.961L197.72 120.502L220.299 138.349L220.316 138.383Z" fill="white"/>
</mask>
<g mask="url(#mask0_919_16875)">
<path d="M236.106 85.9733C220.35 75.5325 182.41 104.969 150.847 151.893C180.524 107.987 214.864 79.8185 228.236 88.6821C241.866 97.7171 228.562 141.795 198.508 187.142C168.454 232.488 133.052 261.925 119.422 252.89C116.233 250.781 114.519 246.752 114.142 241.232C114.021 250.027 116.216 256.49 120.999 259.662C136.961 270.24 175.655 239.929 207.441 191.976C239.226 144.024 252.05 96.5685 236.089 85.9905L236.106 85.9733Z" fill="#101C3F" stroke="#101C3F" stroke-width="1.71442" stroke-linejoin="round"/>
<path d="M150.864 151.893C150.299 152.733 149.733 153.573 149.167 154.413C126.142 189.147 112.959 223.144 114.176 241.214C114.45 220.624 127.411 187.262 149.682 153.659C150.076 153.059 150.47 152.476 150.864 151.893Z" fill="#0B64DD" stroke="#101C3F" stroke-width="1.71442" stroke-linejoin="round"/>
<path d="M233.877 78.9613C215.961 66.5489 173.906 96.2427 139.961 145.275C105.998 194.308 92.334 248.055 114.244 264.256C131.766 277.217 170.906 239.226 204.852 190.21C238.815 141.178 251.81 91.3737 233.894 78.9613H233.877ZM198.526 187.142C168.472 232.488 133.069 261.925 119.439 252.89C105.809 243.855 119.113 199.777 149.167 154.43C179.221 109.084 214.624 79.6471 228.254 88.6821C241.883 97.7171 228.579 141.795 198.526 187.142Z" fill="#0B64DD" stroke="#101C3F" stroke-width="1.71442" stroke-linejoin="round"/>
</g>
<path d="M151.482 164.305L150.539 163.86L155.219 161.717C173.461 170.152 183.679 181.827 190.948 200.48L186.233 202.571C179.135 184.347 169.312 172.655 151.482 164.305Z" fill="#101C3F" stroke="#101C3F" stroke-width="1.71442" stroke-linecap="round" stroke-linejoin="round"/>
<path d="M218.31 166.877L219.253 167.323L224.002 165.197C205.812 156.762 195.645 145.104 188.393 126.502L183.679 128.68C190.759 146.853 200.549 158.545 218.31 166.877Z" fill="#101C3F" stroke="#101C3F" stroke-width="1.71442" stroke-linejoin="round"/>
<path d="M219.253 167.323C201.389 173.992 192.199 184.604 186.216 202.571L190.931 200.48C196.914 182.495 206.103 171.866 223.985 165.197L219.236 167.323H219.253Z" stroke="black" stroke-width="1.71442" stroke-linecap="round" stroke-linejoin="round"/>
<path d="M224.002 165.197C206.12 171.866 196.931 182.495 190.948 200.48C183.679 181.81 173.461 170.152 155.219 161.717C173.135 155.065 182.393 144.504 188.41 126.502C195.662 145.104 205.829 156.762 224.019 165.197H224.002Z" fill="white" stroke="#101C3F" stroke-width="1.71442" stroke-linejoin="round"/>
<path d="M183.353 129.657L183.696 128.68L188.41 126.502C181.261 147.898 170.22 154.825 150.539 163.86C168.009 157.379 177.404 147.247 183.353 129.657Z" fill="#101C3F" stroke="#101C3F" stroke-width="1.71442" stroke-linejoin="round"/>
<path d="M199.657 128.731L199.28 128.559L201.131 127.719C208.315 131.045 212.344 135.64 215.207 142.995L213.355 143.818C210.561 136.634 206.686 132.023 199.657 128.731Z" fill="#101C3F" stroke="#101C3F" stroke-width="1.71442" stroke-linecap="round" stroke-linejoin="round"/>
<path d="M226.007 129.742L226.385 129.914L228.253 129.074C221.087 125.748 217.075 121.153 214.229 113.815L212.378 114.673C215.172 121.839 219.03 126.434 226.025 129.725L226.007 129.742Z" fill="#101C3F" stroke="#101C3F" stroke-width="1.71442" stroke-linejoin="round"/>
<path d="M226.368 129.914C219.321 132.537 215.704 136.72 213.355 143.801L215.207 142.978C217.573 135.897 221.19 131.697 228.236 129.074L226.368 129.914Z" stroke="black" stroke-width="1.71442" stroke-linecap="round" stroke-linejoin="round"/>
<path d="M228.237 129.074C221.19 131.697 217.573 135.897 215.207 142.978C212.344 135.623 208.315 131.028 201.131 127.702C208.195 125.079 211.847 120.913 214.213 113.815C217.076 121.153 221.07 125.748 228.237 129.074Z" fill="white" stroke="#101C3F" stroke-width="1.71442" stroke-linejoin="round"/>
<path d="M212.224 115.067L212.361 114.69L214.212 113.833C211.401 122.267 207.046 124.993 199.297 128.559C206.172 126.005 209.892 122.01 212.224 115.084V115.067Z" fill="#101C3F" stroke="#101C3F" stroke-width="1.71442" stroke-linejoin="round"/>
</g>
<defs>
<clipPath id="clip0_919_16875">
<rect width="219.446" height="219.446" fill="white" transform="translate(63 63)"/>
</clipPath>
</defs>
</svg>
