<svg width="345" height="345" viewBox="0 0 345 345" fill="none" xmlns="http://www.w3.org/2000/svg">
<g clip-path="url(#clip0_3602_15196)">
<path d="M288.344 181.2C288.344 192.618 286.467 203.611 283.004 213.867C269.396 254.175 231.256 283.199 186.322 283.199C129.994 283.199 84.3008 237.529 84.3008 181.2C84.3008 124.872 129.994 79.1787 186.322 79.1787C242.651 79.1787 288.344 124.849 288.344 181.2Z" fill="#1D3280" stroke="#1D3280" stroke-width="2.23437" stroke-linecap="round" stroke-linejoin="round"/>
<path d="M301.616 181.2C301.616 192.618 299.739 203.588 296.276 213.867C282.669 254.175 244.528 283.222 199.595 283.222C143.266 283.222 97.573 237.551 97.573 181.222C97.573 179.01 97.64 176.798 97.7964 174.609C100.5 132.245 129.055 96.9194 167.844 84.2505C171.33 83.111 174.882 82.1502 178.502 81.3905C185.317 79.9605 192.355 79.2231 199.595 79.2231C255.945 79.2231 301.616 124.894 301.616 181.245V181.2Z" fill="white" stroke="#1D3280" stroke-width="2.23437" stroke-linecap="round" stroke-linejoin="round"/>
<path d="M241.712 187.68C241.712 210.94 222.854 229.798 199.595 229.798C190.88 229.798 182.77 227.139 176.044 222.603C164.85 215.029 157.477 202.226 157.477 187.68C157.477 164.42 176.335 145.562 199.595 145.562C222.854 145.562 241.712 164.42 241.712 187.68Z" fill="white" stroke="#1D3280" stroke-width="2.23437" stroke-linecap="round" stroke-linejoin="round"/>
<path d="M258.94 122.123L203.08 174.922L196.042 184.15L113.191 214.18C113.191 214.18 113.616 107.421 144.852 100.204C176.089 92.9871 250.896 94.4841 258.94 122.146V122.123Z" fill="white"/>
<path d="M300.99 187.68H96.9697" stroke="#1D3280" stroke-width="2.23437" stroke-linecap="round" stroke-linejoin="round"/>
<path d="M199.594 79.1787V283.199" stroke="#1D3280" stroke-width="2.23437" stroke-linecap="round" stroke-linejoin="round"/>
<path d="M199.595 195.366C205.333 195.366 209.984 190.714 209.984 184.976C209.984 179.238 205.333 174.586 199.595 174.586C193.856 174.586 189.205 179.238 189.205 184.976C189.205 190.714 193.856 195.366 199.595 195.366Z" fill="#1D3280" stroke="#1D3280" stroke-width="2.23437" stroke-linecap="round" stroke-linejoin="round"/>
<path d="M277.284 181.2C277.284 224.1 242.494 258.889 199.594 258.889C183.507 258.889 168.559 253.996 156.158 245.617C135.49 231.652 121.905 208.012 121.905 181.2C121.905 138.3 156.694 103.511 199.594 103.511C242.494 103.511 277.284 138.3 277.284 181.2Z" stroke="#1D3280" stroke-width="2.23437" stroke-linecap="round" stroke-linejoin="round"/>
<path d="M264.082 130.945C266.874 128.152 266.878 123.629 264.09 120.841C261.302 118.053 256.778 118.057 253.986 120.849L195.117 179.717C192.325 182.51 192.322 187.033 195.11 189.821C197.897 192.609 202.421 192.605 205.213 189.813L264.082 130.945Z" fill="#48EFCF" stroke="#1D3280" stroke-width="2.23437" stroke-linecap="round" stroke-linejoin="round"/>
<path d="M164.85 64.9009H50.7628C46.1353 64.9009 42.3839 68.6522 42.3839 73.2798V156.734C42.3839 161.361 46.1353 165.113 50.7628 165.113H164.85C169.478 165.113 173.229 161.361 173.229 156.734V73.2798C173.229 68.6522 169.478 64.9009 164.85 64.9009Z" fill="#1D3280"/>
<path d="M184.021 73.2798V156.756C184.021 161.381 180.267 165.113 175.642 165.113H61.5325C56.9073 165.113 53.1536 161.381 53.1536 156.756V73.2798C53.1536 68.6546 56.9073 64.9009 61.5325 64.9009H175.642C180.267 64.9009 184.021 68.6546 184.021 73.2798Z" fill="#F4F6F9" stroke="#1D3280" stroke-width="2.23437" stroke-linecap="round" stroke-linejoin="round"/>
<path d="M184.021 73.2798V79.1785H53.1536V73.2798C53.1536 68.6546 56.9073 64.9009 61.5325 64.9009H175.642C180.267 64.9009 184.021 68.6546 184.021 73.2798Z" fill="#F4F6F9" stroke="#1D3280" stroke-width="2.23437" stroke-linecap="round" stroke-linejoin="round"/>
<path d="M64.3702 74.2183H83.6528C84.8622 74.2183 85.8425 73.2429 85.8425 72.0397C85.8425 70.8366 84.8622 69.8612 83.6528 69.8612H64.3702C63.1609 69.8612 62.1805 70.8366 62.1805 72.0397C62.1805 73.2429 63.1609 74.2183 64.3702 74.2183Z" fill="#1D3280"/>
<path d="M88.0769 153.472C84.6807 153.472 81.5749 151.461 79.9661 148.176C78.3574 144.892 78.5361 140.959 80.413 137.876L109.773 89.6802C111.471 86.8872 114.308 85.2114 117.414 85.2114C120.542 85.2114 123.425 86.9096 125.101 89.7472L153.924 137.943C155.778 141.048 155.935 144.981 154.304 148.221C152.695 151.461 149.589 153.472 146.215 153.472H88.0546H88.0769Z" fill="#1D3280" stroke="#1D3280" stroke-width="2.23437" stroke-miterlimit="10"/>
<path d="M91.6965 153.472C88.3003 153.472 85.1945 151.461 83.5858 148.176C81.977 144.892 82.1558 140.959 84.0326 137.876L113.392 89.6802C115.09 86.8872 117.928 85.2114 121.034 85.2114C124.14 85.2114 127.044 86.9096 128.72 89.7472L157.544 137.943C159.398 141.048 159.555 144.981 157.923 148.221C156.315 151.461 153.209 153.472 149.835 153.472H91.6742H91.6965Z" fill="#2C62D4" stroke="#1D3280" stroke-width="2.23437" stroke-miterlimit="10"/>
<path d="M124.721 92.6294C123 89.7694 119.157 89.7247 117.414 92.5847L88.0546 140.78C86.1331 143.953 88.211 148.198 91.6967 148.198H149.857C153.343 148.198 155.421 143.975 153.522 140.803L124.698 92.607L124.721 92.6294Z" fill="white" stroke="#1D3280" stroke-width="2.23437" stroke-miterlimit="10"/>
<path d="M117.079 111.242H125.458L124.05 132.267H118.442L117.079 111.242ZM117.526 143.104V135.328H125.033V143.104H117.526Z" fill="#1D3280"/>
</g>
<defs>
<clipPath id="clip0_3602_15196">
<rect width="286" height="286" fill="white" transform="translate(29 30)"/>
</clipPath>
</defs>
</svg>
