<svg width="384" height="292" viewBox="0 0 384 292" fill="none" xmlns="http://www.w3.org/2000/svg">
<path d="M87.3275 258.518L74.1221 245.88L304.415 31.8145L313.3 40.245L87.3275 258.518Z" fill="#101C3F" stroke="#101C3F" stroke-width="0.641211" stroke-linecap="round" stroke-linejoin="round"/>
<path d="M87.1005 110.036C41.4337 180.118 54.434 253.927 116.137 274.891C177.837 295.856 264.877 256.038 310.54 185.952C356.203 115.871 343.203 42.0622 281.503 21.0977C219.804 0.133174 132.764 39.9508 87.1005 110.036Z" fill="#101C3F" stroke="#101C3F" stroke-width="0.641211" stroke-linecap="round" stroke-linejoin="round"/>
<path d="M79.2031 102.536C33.5363 172.618 46.5366 246.427 108.24 267.391C169.94 288.356 256.98 248.538 302.643 178.452C348.31 108.371 335.309 34.5622 273.61 13.5977C211.91 -7.36683 124.87 32.4508 79.2068 102.536H79.2031Z" fill="#F5F7FA" stroke="#101C3F" stroke-width="0.641211" stroke-linecap="round" stroke-linejoin="round"/>
<path d="M175.091 29.2235C206.519 15.895 239.305 12.3549 266.731 21.6733C324.35 41.2501 336.492 110.176 293.847 175.624L189.517 140.175L175.091 29.2235Z" fill="url(#paint0_linear_310_86792)"/>
<path d="M107.308 222.41C113.329 227.831 120.677 232.147 129.298 235.075C159.514 245.341 197.88 236.052 230.297 213.655" stroke="#101C3F" stroke-width="0.641211" stroke-linecap="round" stroke-linejoin="round" stroke-dasharray="1.41 1.41"/>
<path d="M111.205 107.025C103.749 116.4 97.3472 130.038 94.0534 138.871" stroke="#101C3F" stroke-width="0.641211" stroke-linecap="round" stroke-linejoin="round"/>
<path d="M289.983 135.684C302.505 95.0528 288.815 58.2381 252.549 45.9168C214.298 32.9203 162.98 51.2661 127.209 87.8682" stroke="#101C3F" stroke-width="0.641211" stroke-linecap="round" stroke-linejoin="round" stroke-dasharray="1.41 1.41"/>
<path d="M165.974 205.465C193.982 206.286 226.976 187.906 245.736 159.112C268.141 124.726 261.762 88.5153 231.49 78.2308C201.219 67.9462 158.514 87.482 136.109 121.865C113.705 156.247 120.084 192.461 150.355 202.746" stroke="#101C3F" stroke-width="0.641211" stroke-linecap="round" stroke-linejoin="round"/>
<path d="M210.432 110.555C195.877 105.609 175.341 115.006 164.564 131.538C153.791 148.075 156.857 165.488 171.413 170.435C185.969 175.381 206.504 165.984 217.281 149.452C219.975 145.318 221.802 141.129 222.802 137.093" stroke="#101C3F" stroke-width="0.641211" stroke-linecap="round" stroke-linejoin="round" stroke-dasharray="1.41 1.41"/>
<path d="M260.755 164.226L231.099 154.15" stroke="#101C3F" stroke-width="0.641211" stroke-linecap="round" stroke-linejoin="round"/>
<path d="M150.747 126.838L67.5196 98.5625" stroke="#101C3F" stroke-width="0.641211" stroke-linecap="round" stroke-linejoin="round"/>
<path d="M99.5932 280.655L161.189 186.125" stroke="#101C3F" stroke-width="0.641211" stroke-linecap="round" stroke-linejoin="round"/>
<path d="M220.657 94.8545L282.256 0.320312" stroke="#101C3F" stroke-width="0.641211" stroke-linecap="round" stroke-linejoin="round"/>
<path d="M188.968 140.756L192.881 140.248L176.837 16.8525L173.073 18.5237L188.968 140.756Z" fill="#101C3F"/>
<path d="M186.413 138.954C184.57 141.782 185.092 144.762 187.584 145.609C190.076 146.456 193.59 144.848 195.433 142.017C197.275 139.189 196.753 136.208 194.261 135.362C191.769 134.515 188.255 136.123 186.413 138.954Z" fill="#101C3F" stroke="#101C3F" stroke-width="0.641211" stroke-linecap="round" stroke-linejoin="round"/>
<path d="M309.16 235.518C289.59 235.518 273.725 219.654 273.725 200.084C273.725 180.514 289.59 164.649 309.16 164.649C328.73 164.649 344.594 180.514 344.594 200.084C344.594 219.654 328.73 235.518 309.16 235.518Z" fill="#FA744E" stroke="#101C3F" stroke-width="0.641211" stroke-linecap="round" stroke-linejoin="round"/>
<path d="M284.57 175.444C287.666 172.341 291.202 169.946 294.974 168.256C294.597 168.599 294.227 168.953 293.866 169.315C281.182 182.036 281.182 202.661 293.866 215.381C306.549 228.102 327.118 228.102 339.801 215.381C340.163 215.016 340.517 214.646 340.857 214.27C339.174 218.052 336.787 221.6 333.691 224.703C320.127 238.308 298.133 238.308 284.57 224.703C271.006 211.099 271.006 189.045 284.57 175.444Z" fill="#E55940"/>
<path d="M332.191 186.143C331.919 185.979 331.68 185.748 331.494 185.464C330.509 183.92 329.364 182.476 328.084 181.171C327.256 180.324 327.271 178.966 328.118 178.142C328.965 177.314 330.322 177.328 331.147 178.175C332.631 179.694 333.963 181.368 335.105 183.159C335.743 184.159 335.448 185.483 334.452 186.117C333.739 186.572 332.863 186.554 332.188 186.143H332.191Z" fill="#FF957D"/>
<path d="M308.507 172.782C307.869 172.398 307.452 171.693 307.474 170.894C307.504 169.712 308.485 168.776 309.667 168.805C312.316 168.869 314.95 169.275 317.49 170.007C320.109 170.764 322.63 171.868 324.984 173.289C325.995 173.901 326.32 175.218 325.708 176.232C325.096 177.243 323.779 177.568 322.765 176.956C320.732 175.729 318.557 174.774 316.3 174.121C314.11 173.491 311.842 173.14 309.559 173.084C309.171 173.073 308.813 172.965 308.504 172.778L308.507 172.782Z" fill="#FF957D"/>
<path d="M280.254 203.134C283.872 210.58 290.105 212.065 297.995 209.771C298.726 209.558 298.76 208.528 298.047 208.263L281.246 202.041C280.574 201.791 279.944 202.489 280.257 203.134H280.254Z" fill="white"/>
<path d="M337.622 203.134C334.004 210.58 327.77 212.065 319.881 209.771C319.15 209.558 319.116 208.528 319.829 208.263L336.63 202.041C337.301 201.791 337.932 202.489 337.619 203.134H337.622Z" fill="white"/>
<path d="M254.451 182.001C230.979 218.025 237.66 255.963 269.376 266.736C301.091 277.513 345.825 257.045 369.3 221.021C392.771 184.997 386.09 147.059 354.375 136.286C322.66 125.509 277.926 145.978 254.451 182.001Z" stroke="#101C3F" stroke-width="0.641211" stroke-linecap="round" stroke-linejoin="round"/>
<path d="M375.302 223.06L347.593 213.645" stroke="#101C3F" stroke-width="0.641211" stroke-linecap="round" stroke-linejoin="round"/>
<path d="M271.069 187.646L248.445 179.958" stroke="#101C3F" stroke-width="0.641211" stroke-linecap="round" stroke-linejoin="round"/>
<path d="M264.929 273.555L282.141 247.145" stroke="#101C3F" stroke-width="0.641211" stroke-linecap="round" stroke-linejoin="round"/>
<path d="M345.232 150.315L358.818 129.462" stroke="#101C3F" stroke-width="0.641211" stroke-linecap="round" stroke-linejoin="round"/>
<path d="M47.6364 213.33C34.1647 213.33 23.2437 202.409 23.2437 188.938C23.2437 175.466 34.1647 164.545 47.6364 164.545C61.1081 164.545 72.0291 175.466 72.0291 188.938C72.0291 202.409 61.1081 213.33 47.6364 213.33Z" fill="#F04E98" stroke="#101C3F" stroke-width="0.641211" stroke-linecap="round" stroke-linejoin="round"/>
<path d="M30.7868 172.058C32.9094 169.932 35.3303 168.29 37.9155 167.134C37.6581 167.369 37.4044 167.611 37.1582 167.861C28.4665 176.575 28.4665 190.706 37.1582 199.42C45.8499 208.134 59.9394 208.134 68.631 199.42C68.881 199.17 69.1197 198.916 69.3547 198.659C68.2021 201.251 66.5645 203.68 64.4456 205.806C55.1534 215.125 40.0865 215.125 30.7905 205.806C21.4982 196.488 21.4982 181.376 30.7905 172.058H30.7868Z" fill="#DD0A73"/>
<path d="M63.4906 179.342C63.3041 179.23 63.1362 179.07 63.0131 178.872C62.3342 177.809 61.5471 176.816 60.6667 175.914C60.096 175.332 60.1072 174.395 60.6891 173.828C61.271 173.258 62.2074 173.269 62.7744 173.851C63.7965 174.895 64.7104 176.052 65.4975 177.283C65.934 177.969 65.7325 178.883 65.0461 179.319C64.5575 179.633 63.9532 179.618 63.4869 179.338L63.4906 179.342Z" fill="#F990C6"/>
<path d="M47.189 170.144C46.7525 169.879 46.4616 169.394 46.4765 168.846C46.4952 168.032 47.1741 167.387 47.9873 167.406C49.8114 167.45 51.6244 167.73 53.3739 168.234C55.1757 168.752 56.914 169.513 58.533 170.494C59.2305 170.916 59.4543 171.822 59.0328 172.52C58.6113 173.218 57.7048 173.441 57.0072 173.02C55.6084 172.173 54.1125 171.516 52.557 171.069C51.0499 170.632 49.4906 170.394 47.9164 170.356C47.6516 170.349 47.4016 170.274 47.189 170.144Z" fill="#F990C6"/>
<path d="M27.7391 191.036C30.2309 196.162 34.5208 197.184 39.9522 195.606C40.4558 195.461 40.4782 194.752 39.9858 194.569L28.418 190.287C27.9554 190.115 27.5227 190.596 27.7353 191.036H27.7391Z" fill="white"/>
<path d="M67.232 191.036C64.7401 196.162 60.4502 197.184 55.0188 195.606C54.5152 195.461 54.4929 194.752 54.9853 194.569L66.5531 190.287C67.0156 190.115 67.4483 190.596 67.2357 191.036H67.232Z" fill="white"/>
<path d="M9.97413 176.485C-6.18569 201.284 -1.58617 227.401 20.2475 234.82C42.0812 242.24 72.8788 228.15 89.0349 203.351C105.195 178.552 100.595 152.436 78.7616 145.016C56.9279 137.596 26.1302 151.686 9.97413 176.485Z" stroke="#101C3F" stroke-width="0.641211" stroke-linecap="round" stroke-linejoin="round"/>
<path d="M93.1727 204.754L74.0958 198.274" stroke="#101C3F" stroke-width="0.641211" stroke-linecap="round" stroke-linejoin="round"/>
<path d="M21.4155 180.368L5.84137 175.074" stroke="#101C3F" stroke-width="0.641211" stroke-linecap="round" stroke-linejoin="round"/>
<path d="M17.1893 239.517L29.0369 221.335" stroke="#101C3F" stroke-width="0.641211" stroke-linecap="round" stroke-linejoin="round"/>
<path d="M72.4691 154.668L81.821 140.313" stroke="#101C3F" stroke-width="0.641211" stroke-linecap="round" stroke-linejoin="round"/>
<path d="M96.0495 53.2022C89.0448 53.2022 83.3664 47.5238 83.3664 40.5191C83.3664 33.5144 89.0448 27.8359 96.0495 27.8359C103.054 27.8359 108.733 33.5144 108.733 40.5191C108.733 47.5238 103.054 53.2022 96.0495 53.2022Z" fill="#FEC514" stroke="#101C3F" stroke-width="0.641211" stroke-linecap="round" stroke-linejoin="round"/>
<path d="M87.5104 31.9948C88.5847 30.9205 89.8083 30.0886 91.1176 29.5029C90.9871 29.6223 90.8602 29.7454 90.7334 29.8685C86.3353 34.2778 86.3353 41.4288 90.7334 45.8381C95.1315 50.2473 102.26 50.2473 106.658 45.8381C106.785 45.7112 106.904 45.5844 107.024 45.4539C106.442 46.7669 105.614 47.9942 104.539 49.0723C99.8392 53.7874 92.2144 53.7874 87.5104 49.0723C82.8102 44.3571 82.8102 36.7137 87.5104 31.9948Z" fill="#FFAD18"/>
<path d="M103.659 36.5128C103.562 36.4532 103.476 36.3711 103.409 36.2704C103.058 35.7183 102.648 35.1998 102.189 34.7335C101.895 34.4313 101.898 33.9464 102.2 33.6479C102.503 33.3533 102.988 33.357 103.286 33.6591C103.816 34.2038 104.293 34.8044 104.704 35.4422C104.931 35.8004 104.827 36.2741 104.469 36.5017C104.215 36.6658 103.902 36.6583 103.659 36.5128Z" fill="#FFDF56"/>
<path d="M95.1837 31.7269C94.9561 31.5888 94.8069 31.3352 94.8143 31.0517C94.8255 30.6264 95.1762 30.2944 95.6015 30.3019C96.549 30.3243 97.4927 30.4697 98.4029 30.7309C99.3392 31.0032 100.242 31.3986 101.085 31.9059C101.447 32.126 101.563 32.596 101.346 32.9579C101.126 33.3197 100.656 33.4354 100.294 33.219C99.5668 32.7788 98.7872 32.4394 97.9814 32.2044C97.198 31.9768 96.3848 31.8537 95.5679 31.8351C95.4298 31.8351 95.2993 31.7903 95.1911 31.7269H95.1837Z" fill="#FFDF56"/>
<path d="M60.958 291.335C51.5284 291.335 43.8842 283.691 43.8842 274.261C43.8842 264.832 51.5284 257.188 60.958 257.188C70.3876 257.188 78.0317 264.832 78.0317 274.261C78.0317 283.691 70.3876 291.335 60.958 291.335Z" fill="#FA744E" stroke="#101C3F" stroke-width="0.641211" stroke-linecap="round" stroke-linejoin="round"/>
<path d="M49.286 262.589C50.7558 261.116 52.4307 259.982 54.2213 259.18C54.0422 259.344 53.8669 259.508 53.6953 259.683C47.682 265.715 47.682 275.492 53.6953 281.524C59.7086 287.556 69.4634 287.556 75.4767 281.524C75.6483 281.353 75.8162 281.177 75.9766 280.998C75.1783 282.793 74.0443 284.475 72.5782 285.945C66.1471 292.395 55.7171 292.395 49.286 285.945C42.8549 279.495 42.8549 269.039 49.286 262.585V262.589Z" fill="#E55940"/>
<path d="M71.202 268.855C71.0714 268.777 70.9558 268.665 70.8662 268.527C70.3925 267.784 69.8404 267.087 69.2249 266.456C68.8257 266.05 68.8332 265.393 69.2398 264.998C69.6464 264.599 70.303 264.606 70.6984 265.013C71.4146 265.744 72.0562 266.553 72.6046 267.415C72.9105 267.896 72.7687 268.534 72.2912 268.84C71.948 269.06 71.5265 269.049 71.202 268.851V268.855Z" fill="#FF957D"/>
<path d="M59.7908 262.427C59.485 262.24 59.2835 261.901 59.291 261.516C59.3059 260.946 59.7796 260.494 60.3467 260.509C61.6224 260.539 62.8907 260.737 64.118 261.087C65.3789 261.453 66.595 261.983 67.729 262.669C68.2177 262.964 68.3743 263.598 68.0796 264.087C67.7849 264.575 67.1508 264.732 66.6621 264.437C65.6848 263.844 64.6366 263.385 63.5473 263.072C62.4916 262.766 61.3986 262.598 60.2982 262.572C60.1116 262.568 59.9401 262.512 59.7908 262.423V262.427Z" fill="#FF957D"/>
<path d="M362.41 51.4544C351.701 51.4544 343.02 42.7731 343.02 32.0641C343.02 21.3552 351.701 12.6738 362.41 12.6738C373.119 12.6738 381.8 21.3552 381.8 32.0641C381.8 42.7731 373.119 51.4544 362.41 51.4544Z" fill="#F04E98" stroke="#101C3F" stroke-width="0.641211" stroke-linecap="round" stroke-linejoin="round"/>
<path d="M349.152 18.8057C350.82 17.1345 352.722 15.8438 354.755 14.9336C354.554 15.1201 354.353 15.3066 354.159 15.5043C347.328 22.3532 347.328 33.4622 354.159 40.3111C360.989 47.16 372.064 47.16 378.894 40.3111C379.088 40.1134 379.279 39.9157 379.465 39.7142C378.559 41.751 377.272 43.6609 375.604 45.3321C368.3 52.6585 356.456 52.6585 349.152 45.3321C341.848 38.0057 341.848 26.1283 349.152 18.8057Z" fill="#DD0A73"/>
<path d="M374.042 25.9373C373.892 25.8478 373.762 25.721 373.661 25.5643C373.124 24.7212 372.493 23.9304 371.796 23.2142C371.345 22.7516 371.352 22.0093 371.815 21.5542C372.277 21.1028 373.019 21.1103 373.475 21.5728C374.288 22.4047 375.015 23.3224 375.642 24.2997C375.989 24.8443 375.828 25.5717 375.284 25.9187C374.896 26.1686 374.415 26.1574 374.045 25.9336L374.042 25.9373Z" fill="#F990C6"/>
<path d="M361.082 18.6349C360.735 18.426 360.503 18.038 360.515 17.6016C360.529 16.9525 361.067 16.4415 361.716 16.4564C363.167 16.4899 364.607 16.7138 365.998 17.1129C367.431 17.527 368.811 18.1313 370.098 18.9109C370.654 19.2467 370.829 19.9666 370.493 20.5224C370.157 21.0783 369.438 21.2536 368.882 20.9179C367.77 20.2464 366.58 19.7241 365.345 19.366C364.148 19.0191 362.906 18.8289 361.656 18.799C361.443 18.7953 361.246 18.7319 361.078 18.6312L361.082 18.6349Z" fill="#F990C6"/>
<path d="M79.1213 20.8545C80.2404 23.462 82.1205 26.3679 84.8436 29.5424" stroke="#101C3F" stroke-width="0.641211" stroke-linecap="round" stroke-linejoin="round" stroke-dasharray="1.32 1.32"/>
<path d="M138.763 23.1272C102.362 0.137141 73.8025 2.36415 78.3237 18.6172" stroke="#101C3F" stroke-width="0.641211" stroke-linecap="round" stroke-linejoin="round"/>
<path d="M123.087 17.5078C123.087 17.5078 124.005 17.9181 125.695 18.8806L123.087 17.5078Z" fill="#F04E98"/>
<path d="M123.087 17.5078C123.087 17.5078 124.005 17.9181 125.695 18.8806" stroke="#101C3F" stroke-width="0.641211" stroke-linecap="round" stroke-linejoin="round"/>
<defs>
<linearGradient id="paint0_linear_310_86792" x1="277.601" y1="166.384" x2="233.471" y2="58.9654" gradientUnits="userSpaceOnUse">
<stop stop-color="white" stop-opacity="0"/>
<stop offset="0.09" stop-color="#E0FBF6" stop-opacity="0.18"/>
<stop offset="0.22" stop-color="#BBF7EC" stop-opacity="0.39"/>
<stop offset="0.35" stop-color="#9CF4E3" stop-opacity="0.58"/>
<stop offset="0.48" stop-color="#82F1DB" stop-opacity="0.73"/>
<stop offset="0.61" stop-color="#6EEFD6" stop-opacity="0.85"/>
<stop offset="0.74" stop-color="#60EED2" stop-opacity="0.93"/>
<stop offset="0.87" stop-color="#57EDCF" stop-opacity="0.98"/>
<stop offset="1" stop-color="#55EDCF"/>
</linearGradient>
</defs>
</svg>
