<svg width="345" height="345" viewBox="0 0 345 345" fill="none" xmlns="http://www.w3.org/2000/svg">
<path d="M286.75 185.503V251.962C286.75 269.247 238.466 283.256 178.88 283.256C119.293 283.256 71.0099 269.247 71.0099 251.962V185.503H286.75Z" fill="#F4F6F9" stroke="#1D3280" stroke-width="2.39062" stroke-linecap="round" stroke-linejoin="round"/>
<path d="M178.88 216.797C238.455 216.797 286.75 202.786 286.75 185.503C286.75 168.22 238.455 154.21 178.88 154.21C119.305 154.21 71.0099 168.22 71.0099 185.503C71.0099 202.786 119.305 216.797 178.88 216.797Z" fill="#2C62D4" stroke="#1D3280" stroke-width="2.39062" stroke-miterlimit="10"/>
<path d="M56.4911 301.927C65.7782 273.239 82.9127 245.125 85.6724 240.679L195.846 249.165C182.575 261.405 167.697 303.313 165.321 310.174L56.4911 301.927Z" fill="white"/>
<path d="M86.2965 241.922L193.183 250.169C180.656 264.035 167.457 300.349 164.457 308.931L58.0751 300.851C67.0503 273.908 82.6728 247.779 86.2965 241.922ZM85.0246 239.412C85.0246 239.412 64.9624 270.872 54.8594 302.978L166.113 311.417C166.113 311.417 184.471 257.317 198.966 248.185L85.0006 239.388L85.0246 239.412Z" fill="#1D3280"/>
<path d="M85.0248 239.412C85.0248 239.412 150.395 253.589 205.134 247.612Z" fill="#F4F6F9"/>
<path d="M85.0248 239.412C85.0248 239.412 150.395 253.589 205.134 247.612" stroke="#1D3280" stroke-width="2.39062" stroke-linecap="round" stroke-linejoin="round"/>
<path d="M114.614 256.361L86.4886 253.994" stroke="#1D3280" stroke-width="2.39062" stroke-linecap="round" stroke-linejoin="round"/>
<path d="M158.122 259.994L106.023 255.644" stroke="#1D3280" stroke-width="2.39062" stroke-linecap="round" stroke-linejoin="round"/>
<path d="M130.789 273.072L104.751 270.896" stroke="#1D3280" stroke-width="2.39062" stroke-linecap="round" stroke-linejoin="round"/>
<path d="M92.2005 270.203L77.8738 269.008" stroke="#1D3280" stroke-width="2.39062" stroke-linecap="round" stroke-linejoin="round"/>
<path d="M148.331 289.471L97.3837 285.216" stroke="#1D3280" stroke-width="2.39062" stroke-linecap="round" stroke-linejoin="round"/>
<path d="M87.1364 284.044L72.8337 282.849" stroke="#1D3280" stroke-width="2.39062" stroke-linecap="round" stroke-linejoin="round"/>
<path d="M137.052 50.9346V175.199H220.732V50.9346H137.052Z" stroke="#1D3280" stroke-width="2.39062" stroke-miterlimit="10"/>
<path d="M137.028 50.9346L178.88 126.431" stroke="#1D3280" stroke-width="2.39062" stroke-miterlimit="10"/>
<path d="M220.732 175.224L178.88 126.455L137.028 175.224" stroke="#1D3280" stroke-width="2.39062" stroke-miterlimit="10"/>
<path d="M220.732 50.9346L178.88 126.431" stroke="#1D3280" stroke-width="2.39062" stroke-miterlimit="10"/>
<path d="M220.732 189.424C228.603 189.424 234.987 183.065 234.987 175.224C234.987 167.382 228.603 161.023 220.732 161.023C212.861 161.023 206.477 167.382 206.477 175.224C206.477 183.065 212.861 189.424 220.732 189.424Z" fill="#1D3280" stroke="#1D3280" stroke-width="2.39062" stroke-miterlimit="10"/>
<path d="M220.732 65.135C228.603 65.135 234.987 58.7759 234.987 50.9347C234.987 43.0934 228.603 36.7344 220.732 36.7344C212.861 36.7344 206.477 43.0934 206.477 50.9347C206.477 58.7759 212.861 65.135 220.732 65.135Z" fill="#0B64DD" stroke="#1D3280" stroke-width="2.39062" stroke-miterlimit="10"/>
<path d="M137.028 189.424C144.899 189.424 151.283 183.065 151.283 175.224C151.283 167.382 144.899 161.023 137.028 161.023C129.157 161.023 122.773 167.382 122.773 175.224C122.773 183.065 129.157 189.424 137.028 189.424Z" fill="#1D3280" stroke="#1D3280" stroke-width="2.39062" stroke-miterlimit="10"/>
<path d="M137.028 65.135C144.899 65.135 151.283 58.7759 151.283 50.9347C151.283 43.0934 144.899 36.7344 137.028 36.7344C129.157 36.7344 122.773 43.0934 122.773 50.9347C122.773 58.7759 129.157 65.135 137.028 65.135Z" fill="#2C62D4" stroke="#1D3280" stroke-width="2.39062" stroke-miterlimit="10"/>
<path d="M178.88 140.656C186.751 140.656 193.135 134.296 193.135 126.455C193.135 118.614 186.751 112.255 178.88 112.255C171.009 112.255 164.625 118.614 164.625 126.455C164.625 134.296 171.009 140.656 178.88 140.656Z" fill="#7DEBCF" stroke="#1D3280" stroke-width="2.39062" stroke-miterlimit="10"/>
<path d="M275.423 237.189C275.423 233.985 272.831 231.403 269.615 231.403C266.4 231.403 263.808 233.985 263.808 237.189C263.808 240.392 266.4 242.974 269.615 242.974C272.831 242.974 275.423 240.392 275.423 237.189Z" fill="#2C62D4"/>
<path d="M252.337 241.659C252.337 238.456 249.745 235.874 246.53 235.874C243.314 235.874 240.722 238.456 240.722 241.659C240.722 244.863 243.314 247.445 246.53 247.445C249.745 247.445 252.337 244.863 252.337 241.659Z" fill="#2C62D4"/>
</svg>
