<svg width="345" height="345" viewBox="0 0 345 345" fill="none" xmlns="http://www.w3.org/2000/svg">
<path d="M285.865 185.503V251.962C285.865 269.247 237.766 283.256 178.407 283.256C119.048 283.256 70.9482 269.247 70.9482 251.962V185.503H285.865Z" fill="#F4F6F9" stroke="#0C1C41" stroke-width="2.39062" stroke-linecap="round" stroke-linejoin="round"/>
<path d="M178.407 216.797C237.755 216.797 285.865 202.786 285.865 185.503C285.865 168.22 237.755 154.21 178.407 154.21C119.059 154.21 70.9482 168.22 70.9482 185.503C70.9482 202.786 119.059 216.797 178.407 216.797Z" fill="#2C62D4" stroke="#131C3D" stroke-width="2.39062" stroke-miterlimit="10"/>
<path d="M56.485 301.927C65.7367 273.239 82.8058 245.125 85.555 240.679L195.309 249.165C182.088 261.405 167.267 303.313 164.9 310.174L56.485 301.927Z" fill="white"/>
<path d="M86.1766 241.922L192.655 250.169C180.176 264.035 167.027 300.349 164.039 308.931L58.0628 300.851C67.0037 273.908 82.5667 247.779 86.1766 241.922ZM84.9095 239.412C84.9095 239.412 64.9239 270.872 54.8594 302.978L165.689 311.417C165.689 311.417 183.977 257.317 198.416 248.185L84.8856 239.388L84.9095 239.412Z" fill="#0C1C41"/>
<path d="M84.9095 239.412C84.9095 239.412 150.03 253.589 204.56 247.612Z" fill="#F4F6F9"/>
<path d="M84.9095 239.412C84.9095 239.412 150.03 253.589 204.56 247.612" stroke="#0C1C41" stroke-width="2.39062" stroke-linecap="round" stroke-linejoin="round"/>
<path d="M114.386 256.361L86.3678 253.994" stroke="#0C1C41" stroke-width="2.39062" stroke-linecap="round" stroke-linejoin="round"/>
<path d="M157.728 259.994L105.828 255.644" stroke="#0C1C41" stroke-width="2.39062" stroke-linecap="round" stroke-linejoin="round"/>
<path d="M130.499 273.071L104.56 270.896" stroke="#0C1C41" stroke-width="2.39062" stroke-linecap="round" stroke-linejoin="round"/>
<path d="M92.0574 270.202L77.7854 269.007" stroke="#0C1C41" stroke-width="2.39062" stroke-linecap="round" stroke-linejoin="round"/>
<path d="M147.974 289.471L97.2212 285.216" stroke="#0C1C41" stroke-width="2.39062" stroke-linecap="round" stroke-linejoin="round"/>
<path d="M87.0133 284.044L72.7651 282.849" stroke="#0C1C41" stroke-width="2.39062" stroke-linecap="round" stroke-linejoin="round"/>
<path d="M136.738 50.9346V175.199H220.099V50.9346H136.738Z" stroke="#131C3D" stroke-width="2.39062" stroke-miterlimit="10"/>
<path d="M136.714 50.9346L178.407 126.431" stroke="#131C3D" stroke-width="2.39062" stroke-miterlimit="10"/>
<path d="M220.099 175.223L178.407 126.454L136.714 175.223" stroke="#131C3D" stroke-width="2.39062" stroke-miterlimit="10"/>
<path d="M220.099 50.9346L178.407 126.431" stroke="#131C3D" stroke-width="2.39062" stroke-miterlimit="10"/>
<path d="M220.099 189.424C227.941 189.424 234.3 183.065 234.3 175.224C234.3 167.382 227.941 161.023 220.099 161.023C212.258 161.023 205.899 167.382 205.899 175.224C205.899 183.065 212.258 189.424 220.099 189.424Z" fill="#131C3D" stroke="#131C3D" stroke-width="2.39062" stroke-miterlimit="10"/>
<path d="M220.099 65.135C227.941 65.135 234.3 58.7759 234.3 50.9347C234.3 43.0934 227.941 36.7344 220.099 36.7344C212.258 36.7344 205.899 43.0934 205.899 50.9347C205.899 58.7759 212.258 65.135 220.099 65.135Z" fill="#131C3D" stroke="#131C3D" stroke-width="2.39062" stroke-miterlimit="10"/>
<path d="M136.714 189.424C144.556 189.424 150.915 183.065 150.915 175.224C150.915 167.382 144.556 161.023 136.714 161.023C128.873 161.023 122.514 167.382 122.514 175.224C122.514 183.065 128.873 189.424 136.714 189.424Z" fill="#131C3D" stroke="#131C3D" stroke-width="2.39062" stroke-miterlimit="10"/>
<path d="M136.714 65.135C144.556 65.135 150.915 58.7759 150.915 50.9347C150.915 43.0934 144.556 36.7344 136.714 36.7344C128.873 36.7344 122.514 43.0934 122.514 50.9347C122.514 58.7759 128.873 65.135 136.714 65.135Z" fill="#2C62D4" stroke="#131C3D" stroke-width="2.39062" stroke-miterlimit="10"/>
<path d="M178.407 140.655C186.248 140.655 192.607 134.295 192.607 126.454C192.607 118.613 186.248 112.254 178.407 112.254C170.566 112.254 164.207 118.613 164.207 126.454C164.207 134.295 170.566 140.655 178.407 140.655Z" fill="#7DEBCF" stroke="#1D3280" stroke-width="2.39062" stroke-miterlimit="10"/>
<path d="M274.582 237.189C274.582 233.985 272 231.403 268.796 231.403C265.593 231.403 263.011 233.985 263.011 237.189C263.011 240.392 265.593 242.974 268.796 242.974C272 242.974 274.582 240.392 274.582 237.189Z" fill="#2C62D4"/>
<path d="M251.584 241.659C251.584 238.456 249.002 235.874 245.798 235.874C242.595 235.874 240.013 238.456 240.013 241.659C240.013 244.863 242.595 247.445 245.798 247.445C249.002 247.445 251.584 244.863 251.584 241.659Z" fill="#2C62D4"/>
</svg>
