<svg width="57" height="49" viewBox="0 0 57 49" fill="none" xmlns="http://www.w3.org/2000/svg">
<path d="M34.7495 0.992188H5.54965C1.7625 0.992188 -0.652287 4.08333 0.15583 7.89912L6.39124 37.3011C7.19936 41.1145 10.9267 44.208 14.7139 44.208H43.9137C47.7008 44.208 50.1156 41.1169 49.3075 37.3011L43.0721 7.89912C42.264 4.08574 38.5366 0.992188 34.7495 0.992188Z" fill="#0C1C41"/>
<path d="M36.557 0.180664H7.35722C3.57007 0.180664 1.15528 3.27181 1.9634 7.08759L8.19881 36.4896C9.00693 40.303 12.7343 43.3965 16.5215 43.3965H45.7213C49.5084 43.3965 51.9232 40.3054 51.1151 36.4896L44.8797 7.08759C44.0716 3.27422 40.3442 0.180664 36.557 0.180664Z" fill="#F4F6F9"/>
<path d="M36.557 0C40.4315 3.96209e-06 44.2296 3.15584 45.0549 7.04974L51.2903 36.4517V36.4519C51.7042 38.4064 51.2948 40.1892 50.2823 41.4855C49.2695 42.7822 47.6652 43.5769 45.7212 43.5769H16.5215C12.7075 43.5769 8.96725 40.519 8.06419 36.7091L8.02333 36.5272L1.7879 7.12521C1.37396 5.17064 1.78364 3.38778 2.79609 2.09146C3.8089 0.794675 5.41323 0 7.3572 0H36.557ZM7.3572 0.361115C5.51403 0.361115 4.01724 1.11208 3.0779 2.3148C2.13826 3.51798 1.74469 5.18859 2.13883 7.04974H2.13859L8.37402 36.4517C9.16507 40.1845 12.8217 43.2158 16.5215 43.2158H45.7212C47.5643 43.2158 49.061 42.465 50.0003 41.2623C50.9106 40.0968 51.3087 38.4924 50.9744 36.7011L50.9396 36.5272L44.7042 7.12521C43.9131 3.3924 40.2567 0.361119 36.557 0.361115H7.3572Z" fill="#0C1C41"/>
<path d="M30.3067 17.7468L30.3081 17.7465L30.7982 20.0675L30.4475 20.1427L29.2019 14.2588L29.5526 14.1836L30.3067 17.7468Z" fill="#0C1C41"/>
<path d="M26.8644 15.6387L35.0771 15.6387V7.36913L26.8644 7.36913V15.6387Z" fill="#0066E4"/>
<path d="M26.6852 15.8193V7.18878L35.2564 7.18878V15.8193L26.6852 15.8193ZM34.8977 7.54989L27.0438 7.54989V15.4582L34.8977 15.4582V7.54989Z" fill="#0C1C41"/>
<path d="M46.264 19.9243V20.2854H30.8445L33.3516 32.1018L33.1763 32.1397L33.0009 32.1773L30.4013 19.9243H46.264Z" fill="#0C1C41"/>
<path d="M46.5144 20.0908L42.9736 24.8048L42.8307 24.6957L42.6876 24.5869L46.0182 20.1524L40.6693 15.8256L40.8939 15.5439L46.5144 20.0908Z" fill="#0C1C41"/>
<path d="M32.6838 29.6406V30.0017H17.3631V29.6406H32.6838Z" fill="#0C1C41"/>
<path d="M29.4537 33.957H37.6688L35.9139 25.6851H27.7012L29.4537 33.957Z" fill="#0066E4"/>
<path d="M36.059 25.5049L36.0891 25.6478L37.8904 34.138H29.3085L29.2784 33.9951L27.4796 25.5049H36.059ZM29.5989 33.7769H37.4473L35.7688 25.866H27.9228L29.5989 33.7769Z" fill="#0C1C41"/>
<path d="M13.179 33.957H21.394L19.6391 25.6851H11.4265L13.179 33.957Z" fill="#00F2CD"/>
<path d="M19.7843 25.5049L19.8145 25.6478L21.6158 34.138H13.0338L13.0037 33.9951L11.205 25.5049H19.7843ZM13.3243 33.7769H21.1726L19.4941 25.866H11.6481L13.3243 33.7769Z" fill="#0C1C41"/>
<path d="M56.0999 38.2657L56.3419 38.3808L55.1409 38.9346C50.4599 36.755 47.8379 33.7383 45.9726 28.9185L47.1824 28.3781C49.0037 33.0871 51.5246 36.1083 56.0999 38.2657Z" fill="#101C3F" stroke="#101C3F" stroke-width="1.0311" stroke-linecap="round" stroke-linejoin="round"/>
<path d="M38.9512 37.6012L38.7092 37.4861L37.4906 38.0354C42.1583 40.2149 44.7672 43.2272 46.6281 48.0337L47.8379 47.4711C46.021 42.7754 43.5089 39.7542 38.9512 37.6012Z" fill="#101C3F" stroke="#101C3F" stroke-width="1.0311" stroke-linejoin="round"/>
<path d="M38.7092 37.4858C43.2933 35.7626 45.6514 33.0205 47.1868 28.3779L45.9769 28.9184C44.4415 33.5654 42.0835 36.3119 37.4949 38.0352L38.7136 37.4858L38.7092 37.4858Z" stroke="black" stroke-width="1.0311" stroke-linecap="round" stroke-linejoin="round"/>
<path d="M37.4906 38.0354C42.0792 36.3121 44.4372 33.5656 45.9726 28.9186C47.8379 33.7428 50.46 36.7551 55.1409 38.9346C50.5436 40.6534 48.1679 43.3823 46.6237 48.0337C44.7628 43.2272 42.154 40.2149 37.4862 38.0354L37.4906 38.0354Z" fill="url(#paint0_linear_9891_30974)"/>
<path d="M47.9215 47.2186L47.8335 47.4711L46.6237 48.0337C48.4582 42.5052 51.2914 40.7155 56.3419 38.3809C51.859 40.0554 49.4481 42.6735 47.9215 47.2186Z" fill="#101C3F" stroke="#101C3F" stroke-width="1.0311" stroke-linejoin="round"/>
<defs>
<linearGradient id="paint0_linear_9891_30974" x1="55.1422" y1="38.4751" x2="37.4862" y2="38.4751" gradientUnits="userSpaceOnUse">
<stop offset="0.14" stop-color="#F69381"/>
<stop offset="1" stop-color="#FEC514"/>
</linearGradient>
</defs>
</svg>
