<svg width="225" height="180" viewBox="0 0 225 180" fill="none" xmlns="http://www.w3.org/2000/svg">
<path d="M133.592 16.3282H42.3427C30.5078 16.3282 22.9616 25.9215 25.487 37.7635L44.9726 129.011C47.498 140.846 59.1461 150.446 70.9809 150.446H162.23C174.065 150.446 181.611 140.853 179.086 129.011L159.6 37.7635C157.075 25.9289 145.427 16.3282 133.592 16.3282Z" fill="#0B64DD"/>
<path d="M139.24 13.8104H47.9911C36.1563 13.8104 28.61 23.4036 31.1354 35.2457L50.6211 126.493C53.1464 138.328 64.7945 147.929 76.6294 147.929H167.879C179.714 147.929 187.26 138.335 184.734 126.493L165.249 35.2457C162.723 23.4111 151.075 13.8104 139.24 13.8104Z" fill="#F4F6F9"/>
<path d="M139.241 13.2501C151.348 13.2501 163.218 23.044 165.797 35.1286L185.282 126.376V126.377C186.576 132.442 185.296 137.975 182.132 141.998C178.967 146.023 173.954 148.489 167.879 148.489H76.6296C64.7109 148.489 53.0227 138.999 50.2007 127.175L50.073 126.61L30.5873 35.3628C29.2937 29.2969 30.574 23.7639 33.7379 19.7408C36.9029 15.7163 41.9164 13.2501 47.9913 13.2501H139.241ZM47.9913 14.3708C42.2314 14.3708 37.554 16.7014 34.6185 20.4339C31.6821 24.1679 30.4522 29.3526 31.6839 35.1286H31.6832L51.1689 126.376C53.6409 137.961 65.0679 147.368 76.6296 147.368H167.879C173.639 147.368 178.316 145.038 181.251 141.306C184.096 137.688 185.34 132.709 184.295 127.15L184.186 126.61L164.701 35.3628C162.229 23.7782 150.802 14.3708 139.241 14.3708H47.9913Z" fill="#0C1C41"/>
<path d="M119.708 68.3248L119.713 68.324L121.244 75.5269L120.148 75.7604L116.256 57.5001L117.352 57.2666L119.708 68.3248Z" fill="#0C1C41"/>
<path d="M108.951 61.784H134.616V36.1199H108.951V61.784Z" fill="#0066E4"/>
<path d="M108.391 62.3443V35.5598H135.176V62.3443H108.391ZM134.056 36.6805H109.512V61.2236H134.056V36.6805Z" fill="#0C1C41"/>
<path d="M169.575 75.0829V76.2036H121.389L129.224 112.875L128.676 112.993L128.128 113.109L120.004 75.0829H169.575Z" fill="#0C1C41"/>
<path d="M170.358 75.5998L159.293 90.2294L158.846 89.8909L158.399 89.5531L168.807 75.7909L152.092 62.3629L152.794 61.4888L170.358 75.5998Z" fill="#0C1C41"/>
<path d="M127.137 105.237V106.358H79.2593V105.237H127.137Z" fill="#0C1C41"/>
<path d="M117.043 118.633H142.715L137.231 92.9619H111.566L117.043 118.633Z" fill="#0066E4"/>
<path d="M137.684 92.4015L137.778 92.8451L143.407 119.194H116.589L116.495 118.75L110.874 92.4015H137.684ZM117.496 118.073H142.023L136.777 93.5222H112.258L117.496 118.073Z" fill="#0C1C41"/>
<path d="M66.1844 118.633H91.8564L86.3723 92.9619H60.7078L66.1844 118.633Z" fill="#00F2CD"/>
<path d="M86.8257 92.4015L86.9198 92.8451L92.549 119.194H65.7304L65.6363 118.75L60.0151 92.4015H86.8257ZM66.6381 118.073H91.1641L85.9188 93.5222H61.4L66.6381 118.073Z" fill="#0C1C41"/>
<path d="M200.592 136.534L201.348 136.892L197.595 138.61C182.967 131.846 174.773 122.484 168.944 107.526L172.725 105.849C178.417 120.463 186.294 129.839 200.592 136.534Z" fill="#101C3F" stroke="#101C3F" stroke-width="1.3748" stroke-linecap="round" stroke-linejoin="round"/>
<path d="M147.002 134.472L146.246 134.115L142.438 135.82C157.025 142.584 165.177 151.932 170.993 166.849L174.773 165.103C169.096 150.53 161.245 141.154 147.002 134.472Z" fill="#101C3F" stroke="#101C3F" stroke-width="1.3748" stroke-linejoin="round"/>
<path d="M146.246 134.115C160.572 128.767 167.94 120.257 172.739 105.849L168.958 107.526C164.16 121.948 156.791 130.472 142.452 135.82L146.26 134.115L146.246 134.115Z" stroke="black" stroke-width="1.3748" stroke-linecap="round" stroke-linejoin="round"/>
<path d="M142.438 135.82C156.777 130.472 164.146 121.948 168.944 107.526C174.773 122.498 182.967 131.846 197.595 138.61C183.229 143.945 175.805 152.413 170.979 166.849C165.164 151.932 157.011 142.584 142.424 135.82L142.438 135.82Z" fill="url(#paint0_linear_3037_19043)"/>
<path d="M175.035 164.319L174.76 165.103L170.979 166.849C176.712 149.691 185.566 144.137 201.348 136.892C187.339 142.089 179.805 150.214 175.035 164.319Z" fill="#101C3F" stroke="#101C3F" stroke-width="1.3748" stroke-linejoin="round"/>
<defs>
<linearGradient id="paint0_linear_3037_19043" x1="197.599" y1="137.184" x2="142.424" y2="137.184" gradientUnits="userSpaceOnUse">
<stop offset="0.14" stop-color="#F69381"/>
<stop offset="1" stop-color="#FEC514"/>
</linearGradient>
</defs>
</svg>
