<svg width="345" height="345" viewBox="0 0 345 345" fill="none" xmlns="http://www.w3.org/2000/svg">
<g clip-path="url(#clip0_3602_15250)">
<path d="M174.326 90.1616C225.715 90.1616 267.441 99.58 267.441 111.114V265.169C267.441 276.725 225.737 286.144 174.326 286.144C122.914 286.144 81.2555 276.725 81.2555 265.169V111.114C81.2555 99.58 122.959 90.1616 174.326 90.1616Z" fill="#131C3D" stroke="#131C3D" stroke-width="2.22656" stroke-miterlimit="10"/>
<path d="M174.326 83.4819C225.693 83.4819 267.396 92.8112 267.396 104.389C267.396 115.99 225.737 125.364 174.326 125.364C122.914 125.364 81.2555 115.99 81.2555 104.389C81.2555 92.789 122.981 83.4819 174.326 83.4819Z" fill="#2C62D4" stroke="#131C3D" stroke-width="2.22656" stroke-miterlimit="10"/>
<path d="M174.326 125.363C225.693 125.363 267.396 115.99 267.396 104.389V155.979C267.396 167.579 225.737 176.953 174.326 176.953C122.914 176.953 81.2555 167.579 81.2555 155.979V104.389C81.2555 115.99 122.981 125.363 174.326 125.363Z" fill="white" stroke="#131C3D" stroke-width="2.22656" stroke-miterlimit="10"/>
<path d="M174.326 176.953C225.693 176.953 267.396 167.579 267.396 155.979V207.568C267.396 219.169 225.737 228.543 174.326 228.543C122.914 228.543 81.2555 219.169 81.2555 207.568V155.979C81.2555 167.579 122.981 176.953 174.326 176.953Z" fill="white" stroke="#131C3D" stroke-width="2.22656" stroke-miterlimit="10"/>
<path d="M174.326 227.807C225.693 227.807 267.396 218.433 267.396 206.833V258.422C267.396 270.023 225.737 279.397 174.326 279.397C122.914 279.397 81.2555 270.023 81.2555 258.422V206.833C81.2555 218.433 122.981 227.807 174.326 227.807Z" fill="white" stroke="#131C3D" stroke-width="2.22656" stroke-miterlimit="10"/>
<path d="M254.415 141.373C254.415 138.389 252.011 135.984 249.027 135.984C246.043 135.984 243.639 138.389 243.639 141.373C243.639 144.356 246.043 146.761 249.027 146.761C252.011 146.761 254.415 144.356 254.415 141.373Z" fill="#DCE2EA"/>
<path d="M232.996 145.536C232.996 142.553 230.591 140.148 227.607 140.148C224.624 140.148 222.219 142.553 222.219 145.536C222.219 148.52 224.624 150.925 227.607 150.925C230.591 150.925 232.996 148.52 232.996 145.536Z" fill="#DCE2EA"/>
<path d="M254.415 193.408C254.415 190.424 252.011 188.02 249.027 188.02C246.043 188.02 243.639 190.424 243.639 193.408C243.639 196.391 246.043 198.796 249.027 198.796C252.011 198.796 254.415 196.391 254.415 193.408Z" fill="#DCE2EA"/>
<path d="M232.996 197.593C232.996 194.61 230.591 192.205 227.607 192.205C224.624 192.205 222.219 194.61 222.219 197.593C222.219 200.577 224.624 202.982 227.607 202.982C230.591 202.982 232.996 200.577 232.996 197.593Z" fill="#DCE2EA"/>
<path d="M254.415 244.285C254.415 241.301 252.011 238.896 249.027 238.896C246.043 238.896 243.639 241.301 243.639 244.285C243.639 247.268 246.043 249.673 249.027 249.673C252.011 249.673 254.415 247.268 254.415 244.285Z" fill="#DCE2EA"/>
<path d="M232.996 248.493C232.996 245.509 230.591 243.104 227.607 243.104C224.624 243.104 222.219 245.509 222.219 248.493C222.219 251.476 224.624 253.881 227.607 253.881C230.591 253.881 232.996 251.476 232.996 248.493Z" fill="#DCE2EA"/>
<path d="M161.167 92.0317H78.1605C73.5492 92.0317 69.8109 95.77 69.8109 100.381V234.821C69.8109 239.433 73.5492 243.171 78.1605 243.171H161.167C165.778 243.171 169.516 239.433 169.516 234.821V100.381C169.516 95.77 165.778 92.0317 161.167 92.0317Z" fill="#0C1C41"/>
<path d="M152.817 92.0317H69.8109C65.1995 92.0317 61.4613 95.77 61.4613 100.381V234.821C61.4613 239.433 65.1995 243.171 69.8109 243.171H152.817C157.429 243.171 161.167 239.433 161.167 234.821V100.381C161.167 95.77 157.429 92.0317 152.817 92.0317Z" fill="#F5F7FA" stroke="#131C3D" stroke-width="2.22656" stroke-miterlimit="10"/>
<path d="M112.628 180.604C115.641 180.604 118.083 178.162 118.083 175.149C118.083 172.137 115.641 169.694 112.628 169.694C109.615 169.694 107.173 172.137 107.173 175.149C107.173 178.162 109.615 180.604 112.628 180.604Z" fill="#48EFCF"/>
<path d="M126.9 187.596C129.913 187.596 132.355 185.153 132.355 182.141C132.355 179.128 129.913 176.686 126.9 176.686C123.887 176.686 121.445 179.128 121.445 182.141C121.445 185.153 123.887 187.596 126.9 187.596Z" fill="#48EFCF"/>
<path d="M132.043 202.625C135.056 202.625 137.498 200.183 137.498 197.17C137.498 194.157 135.056 191.715 132.043 191.715C129.031 191.715 126.588 194.157 126.588 197.17C126.588 200.183 129.031 202.625 132.043 202.625Z" fill="#48EFCF"/>
<path d="M125.052 216.897C128.065 216.897 130.507 214.455 130.507 211.442C130.507 208.43 128.065 205.987 125.052 205.987C122.039 205.987 119.597 208.43 119.597 211.442C119.597 214.455 122.039 216.897 125.052 216.897Z" fill="#101C3F"/>
<path d="M110.023 222.041C113.035 222.041 115.478 219.599 115.478 216.586C115.478 213.573 113.035 211.131 110.023 211.131C107.01 211.131 104.568 213.573 104.568 216.586C104.568 219.599 107.01 222.041 110.023 222.041Z" fill="#101C3F"/>
<path d="M95.7504 215.05C98.7631 215.05 101.205 212.607 101.205 209.595C101.205 206.582 98.7631 204.14 95.7504 204.14C92.7376 204.14 90.2953 206.582 90.2953 209.595C90.2953 212.607 92.7376 215.05 95.7504 215.05Z" fill="#101C3F"/>
<path d="M90.6071 200.021C93.6198 200.021 96.0621 197.578 96.0621 194.565C96.0621 191.553 93.6198 189.11 90.6071 189.11C87.5943 189.11 85.152 191.553 85.152 194.565C85.152 197.578 87.5943 200.021 90.6071 200.021Z" fill="#101C3F"/>
<path d="M97.5985 185.748C100.611 185.748 103.054 183.306 103.054 180.293C103.054 177.28 100.611 174.838 97.5985 174.838C94.5858 174.838 92.1434 177.28 92.1434 180.293C92.1434 183.306 94.5858 185.748 97.5985 185.748Z" fill="#101C3F"/>
<path d="M104.056 114.387H76.2903" stroke="#131C3D" stroke-width="2.22656" stroke-miterlimit="10"/>
<path d="M142.909 114.387H96.3961" stroke="#131C3D" stroke-width="2.22656" stroke-miterlimit="10"/>
<path d="M119.641 128.058H96.3961" stroke="#131C3D" stroke-width="2.22656" stroke-miterlimit="10"/>
<path d="M89.0708 128.058H76.2903" stroke="#131C3D" stroke-width="2.22656" stroke-miterlimit="10"/>
<path d="M141.885 141.707H96.3961" stroke="#131C3D" stroke-width="2.22656" stroke-miterlimit="10"/>
<path d="M89.0708 141.707H76.2903" stroke="#131C3D" stroke-width="2.22656" stroke-miterlimit="10"/>
</g>
<defs>
<clipPath id="clip0_3602_15250">
<rect width="285" height="285" fill="white" transform="translate(30 30)"/>
</clipPath>
</defs>
</svg>
