<svg width="345" height="345" viewBox="0 0 345 345" fill="none" xmlns="http://www.w3.org/2000/svg">
<path d="M164.077 129.552C164.078 129.554 164.078 129.587 164.085 130.369C164.093 131.16 164.094 131.185 164.093 131.185H164.074C164.06 131.186 164.04 131.186 164.014 131.186C163.96 131.187 163.88 131.188 163.775 131.189C163.565 131.191 163.253 131.193 162.846 131.197C162.032 131.205 160.838 131.216 159.317 131.23C156.275 131.258 151.928 131.296 146.704 131.339C136.256 131.424 122.302 131.526 108.278 131.594C94.2544 131.662 80.1578 131.696 69.4279 131.645C64.0638 131.619 59.5367 131.573 56.2789 131.498C54.6511 131.461 53.3328 131.417 52.3834 131.364C51.9103 131.338 51.5187 131.309 51.2221 131.277C51.0746 131.261 50.9395 131.243 50.8246 131.222C50.735 131.205 50.5734 131.173 50.4271 131.101L51.1535 129.636C51.077 129.599 51.0391 129.6 51.1235 129.615C51.1827 129.626 51.2735 129.64 51.401 129.653C51.6552 129.681 52.0135 129.708 52.4756 129.733C53.3978 129.784 54.6944 129.828 56.3164 129.865C59.5589 129.939 64.0748 129.986 69.4364 130.012C80.1582 130.063 94.2472 130.029 108.269 129.961C122.291 129.893 136.243 129.791 146.69 129.705C151.913 129.663 156.261 129.625 159.302 129.597C160.822 129.583 162.016 129.572 162.83 129.564C163.237 129.56 163.55 129.558 163.76 129.556C163.865 129.555 163.944 129.554 163.998 129.553C164.024 129.553 164.044 129.553 164.058 129.552H164.077Z" fill="#00F2CD"/>
<path d="M164.077 148.539C164.078 148.54 164.078 148.573 164.085 149.355C164.093 150.146 164.094 150.171 164.093 150.172H164.074C164.06 150.172 164.04 150.173 164.014 150.173C163.96 150.174 163.88 150.174 163.775 150.175C163.565 150.177 163.253 150.18 162.846 150.184C162.032 150.191 160.838 150.203 159.317 150.217C156.275 150.244 151.928 150.283 146.704 150.325C136.256 150.41 122.302 150.512 108.278 150.58C94.2544 150.648 80.1578 150.682 69.4279 150.631C64.0638 150.606 59.5367 150.559 56.2789 150.485C54.6511 150.447 53.3328 150.403 52.3834 150.351C51.9103 150.324 51.5187 150.296 51.2221 150.263C51.0746 150.247 50.9395 150.229 50.8246 150.208C50.735 150.192 50.5734 150.159 50.4271 150.088L51.1535 148.623C51.077 148.586 51.0391 148.586 51.1235 148.602C51.1827 148.612 51.2735 148.626 51.401 148.64C51.6552 148.667 52.0135 148.694 52.4756 148.72C53.3978 148.771 54.6944 148.814 56.3164 148.852C59.5589 148.926 64.0748 148.973 69.4364 148.998C80.1582 149.049 94.2472 149.015 108.269 148.947C122.291 148.879 136.243 148.777 146.69 148.692C151.913 148.65 156.261 148.611 159.302 148.584C160.822 148.57 162.016 148.558 162.83 148.551C163.237 148.547 163.55 148.544 163.76 148.542C163.865 148.541 163.944 148.541 163.998 148.54C164.024 148.54 164.044 148.539 164.058 148.539H164.077Z" fill="#00BEB7"/>
<path d="M164.077 167.536C164.078 167.538 164.078 167.57 164.085 168.353C164.093 169.144 164.094 169.169 164.093 169.169H164.074C164.06 169.169 164.04 169.17 164.014 169.17C163.96 169.171 163.88 169.172 163.775 169.173C163.565 169.175 163.253 169.177 162.846 169.181C162.032 169.189 160.838 169.2 159.317 169.214C156.275 169.242 151.928 169.28 146.704 169.322C136.256 169.407 122.302 169.51 108.278 169.578C94.2544 169.646 80.1578 169.68 69.4279 169.629C64.0638 169.603 59.5367 169.556 56.2789 169.482C54.6511 169.445 53.3328 169.401 52.3834 169.348C51.9103 169.322 51.5187 169.293 51.2221 169.261C51.0746 169.245 50.9395 169.227 50.8246 169.205C50.735 169.189 50.5734 169.157 50.4271 169.085L51.1535 167.62C51.077 167.583 51.0391 167.584 51.1235 167.599C51.1827 167.61 51.2735 167.623 51.401 167.637C51.6552 167.665 52.0135 167.691 52.4756 167.717C53.3978 167.768 54.6944 167.812 56.3164 167.849C59.5589 167.923 64.0748 167.97 69.4364 167.996C80.1582 168.047 94.2472 168.013 108.269 167.945C122.291 167.877 136.243 167.774 146.69 167.689C151.913 167.647 156.261 167.609 159.302 167.581C160.822 167.567 162.016 167.556 162.83 167.548C163.237 167.544 163.55 167.542 163.76 167.54C163.865 167.538 163.944 167.538 163.998 167.537C164.024 167.537 164.044 167.536 164.058 167.536H164.077Z" fill="#0066E4"/>
<path d="M164.077 186.523C164.078 186.524 164.078 186.557 164.085 187.339C164.093 188.13 164.094 188.155 164.093 188.156H164.074C164.06 188.156 164.04 188.157 164.014 188.157C163.96 188.157 163.88 188.158 163.775 188.159C163.565 188.161 163.253 188.164 162.846 188.168C162.032 188.175 160.838 188.187 159.317 188.2C156.275 188.228 151.928 188.266 146.704 188.309C136.256 188.394 122.302 188.496 108.278 188.564C94.2544 188.632 80.1578 188.666 69.4279 188.615C64.0638 188.59 59.5367 188.543 56.2789 188.468C54.6511 188.431 53.3328 188.387 52.3834 188.334C51.9103 188.308 51.5187 188.279 51.2221 188.247C51.0746 188.231 50.9395 188.213 50.8246 188.192C50.735 188.176 50.5734 188.143 50.4271 188.072L51.1535 186.607C51.077 186.569 51.0391 186.57 51.1235 186.586C51.1827 186.596 51.2735 186.61 51.401 186.624C51.6552 186.651 52.0135 186.678 52.4756 186.704C53.3978 186.755 54.6944 186.798 56.3164 186.835C59.5589 186.91 64.0748 186.957 69.4364 186.982C80.1582 187.033 94.2472 186.999 108.269 186.931C122.291 186.863 136.243 186.761 146.69 186.676C151.913 186.633 156.261 186.595 159.302 186.567C160.822 186.554 162.016 186.542 162.83 186.534C163.237 186.531 163.55 186.528 163.76 186.526C163.865 186.525 163.944 186.524 163.998 186.524C164.024 186.524 164.044 186.523 164.058 186.523H164.077Z" fill="#0066E4"/>
<path d="M164.077 205.52C164.078 205.521 164.078 205.554 164.085 206.337C164.093 207.127 164.094 207.152 164.093 207.153H164.074C164.06 207.153 164.04 207.154 164.014 207.154C163.96 207.155 163.88 207.155 163.775 207.156C163.565 207.158 163.253 207.161 162.846 207.165C162.032 207.172 160.838 207.184 159.317 207.198C156.275 207.225 151.928 207.264 146.704 207.306C136.256 207.391 122.302 207.493 108.278 207.561C94.2544 207.629 80.1578 207.663 69.4279 207.612C64.0638 207.587 59.5367 207.54 56.2789 207.466C54.6511 207.428 53.3328 207.384 52.3834 207.332C51.9103 207.305 51.5187 207.277 51.2221 207.244C51.0746 207.228 50.9395 207.21 50.8246 207.189C50.735 207.173 50.5734 207.14 50.4271 207.069L51.1535 205.604C51.077 205.567 51.0391 205.567 51.1235 205.583C51.1827 205.594 51.2735 205.607 51.401 205.621C51.6552 205.649 52.0135 205.675 52.4756 205.701C53.3978 205.752 54.6944 205.795 56.3164 205.833C59.5589 205.907 64.0748 205.954 69.4364 205.979C80.1582 206.03 94.2472 205.996 108.269 205.928C122.291 205.86 136.243 205.758 146.69 205.673C151.913 205.631 156.261 205.592 159.302 205.565C160.822 205.551 162.016 205.539 162.83 205.532C163.237 205.528 163.55 205.525 163.76 205.523C163.865 205.522 163.944 205.522 163.998 205.521C164.024 205.521 164.044 205.52 164.058 205.52H164.077Z" fill="#0066E4"/>
<path d="M258.808 203.985V250.145C258.808 262.142 223.482 271.875 179.906 271.875C136.33 271.875 101.004 262.142 101.004 250.145V203.985H258.797H258.808Z" fill="#00F2CD"/>
<path d="M257.985 204.801H101.827V250.145C101.827 252.719 103.73 255.363 107.656 257.919C111.548 260.453 117.234 262.766 124.334 264.722C138.522 268.63 158.17 271.058 179.906 271.058C201.641 271.058 221.289 268.63 235.478 264.722C242.578 262.767 248.264 260.453 252.156 257.919C256.081 255.363 257.985 252.719 257.985 250.145V204.801ZM259.631 250.145C259.63 253.57 257.118 256.641 253.059 259.284C248.966 261.949 243.097 264.318 235.918 266.296C221.549 270.253 201.746 272.691 179.906 272.691C158.065 272.691 138.262 270.253 123.894 266.296C116.715 264.318 110.846 261.949 106.753 259.284C102.693 256.641 100.181 253.57 100.181 250.145V203.168H259.631V250.145Z" fill="#0C1C41"/>
<path d="M179.916 225.726C223.493 225.726 258.819 215.997 258.819 203.996C258.819 191.995 223.493 182.266 179.916 182.266C136.34 182.266 101.014 191.995 101.014 203.996C101.014 215.997 136.34 225.726 179.916 225.726Z" fill="url(#paint0_linear_919_17567)"/>
<path d="M257.996 203.996C257.996 201.421 256.092 198.776 252.166 196.22C248.274 193.686 242.588 191.372 235.488 189.417C221.3 185.509 201.652 183.082 179.916 183.082C158.181 183.082 138.533 185.509 124.344 189.417C117.245 191.372 111.558 193.686 107.666 196.22C103.741 198.776 101.837 201.421 101.837 203.996C101.837 206.571 103.741 209.216 107.666 211.772C111.558 214.306 117.245 216.62 124.344 218.575C138.533 222.482 158.181 224.909 179.916 224.909C201.652 224.909 221.3 222.482 235.488 218.575C242.588 216.62 248.274 214.306 252.166 211.772C256.092 209.216 257.996 206.571 257.996 203.996ZM259.641 203.996C259.641 207.422 257.129 210.493 253.069 213.137C248.976 215.802 243.107 218.171 235.929 220.148C221.56 224.105 201.757 226.542 179.916 226.542C158.076 226.542 138.273 224.106 123.904 220.148C116.726 218.171 110.857 215.802 106.763 213.137C102.703 210.493 100.191 207.422 100.191 203.996C100.191 200.57 102.703 197.498 106.763 194.855C110.857 192.189 116.726 189.82 123.904 187.843C138.273 183.886 158.076 181.449 179.916 181.449C201.757 181.449 221.56 183.886 235.929 187.843C243.107 189.82 248.976 192.189 253.069 194.855C257.129 197.498 259.641 200.57 259.641 203.996Z" fill="#101C3F"/>
<path d="M243.866 245.888C246.071 245.888 247.859 242.028 247.859 237.266C247.859 232.504 246.071 228.643 243.866 228.643C241.66 228.643 239.872 232.504 239.872 237.266C239.872 242.028 241.66 245.888 243.866 245.888Z" fill="#FF3A99"/>
<path d="M247.037 237.266C247.037 234.975 246.604 232.941 245.942 231.51C245.246 230.008 244.452 229.46 243.865 229.46C243.279 229.46 242.485 230.009 241.79 231.51C241.127 232.941 240.695 234.975 240.695 237.266C240.695 239.556 241.127 241.591 241.79 243.022C242.485 244.523 243.279 245.071 243.865 245.071C244.452 245.071 245.246 244.523 245.942 243.022C246.604 241.591 247.037 239.556 247.037 237.266ZM248.682 237.266C248.682 239.737 248.22 242.013 247.437 243.703C246.687 245.322 245.484 246.704 243.865 246.704C242.247 246.704 241.044 245.322 240.294 243.703C239.512 242.013 239.05 239.737 239.05 237.266C239.05 234.795 239.512 232.518 240.294 230.828C241.044 229.209 242.247 227.827 243.865 227.827C245.484 227.827 246.687 229.209 247.437 230.828C248.22 232.518 248.682 234.795 248.682 237.266Z" fill="#0C1C41"/>
<path d="M258.808 151.892V198.052C258.808 210.049 223.482 219.782 179.906 219.782C136.33 219.782 101.004 210.049 101.004 198.052V151.892H258.797H258.808Z" fill="#00F2CD"/>
<path d="M257.985 152.709H101.827V198.052C101.827 200.626 103.73 203.27 107.656 205.826C111.548 208.36 117.234 210.674 124.334 212.629C138.522 216.537 158.17 218.966 179.906 218.966C201.641 218.966 221.289 216.537 235.478 212.629C242.578 210.674 248.264 208.36 252.156 205.826C256.081 203.27 257.985 200.626 257.985 198.052V152.709ZM259.631 198.052C259.63 201.477 257.118 204.548 253.059 207.191C248.966 209.856 243.097 212.225 235.918 214.203C221.549 218.16 201.746 220.599 179.906 220.599C158.065 220.599 138.262 218.16 123.894 214.203C116.715 212.225 110.846 209.856 106.753 207.191C102.693 204.548 100.181 201.477 100.181 198.052V151.076H259.631V198.052Z" fill="#0C1C41"/>
<path d="M179.916 173.622C223.493 173.622 258.819 163.893 258.819 151.892C258.819 139.891 223.493 130.162 179.916 130.162C136.34 130.162 101.014 139.891 101.014 151.892C101.014 163.893 136.34 173.622 179.916 173.622Z" fill="url(#paint1_linear_919_17567)"/>
<path d="M257.996 151.892C257.996 149.317 256.092 146.672 252.166 144.116C248.274 141.582 242.588 139.268 235.488 137.313C221.3 133.405 201.652 130.979 179.916 130.979C158.181 130.979 138.533 133.405 124.344 137.313C117.245 139.268 111.558 141.582 107.666 144.116C103.741 146.672 101.837 149.317 101.837 151.892C101.837 154.467 103.741 157.112 107.666 159.668C111.558 162.202 117.245 164.516 124.344 166.471C138.533 170.379 158.181 172.805 179.916 172.805C201.652 172.805 221.3 170.379 235.488 166.471C242.588 164.516 248.274 162.202 252.166 159.668C256.092 157.112 257.996 154.467 257.996 151.892ZM259.641 151.892C259.641 155.318 257.129 158.39 253.069 161.033C248.976 163.698 243.107 166.068 235.929 168.045C221.56 172.002 201.757 174.438 179.916 174.438C158.076 174.438 138.273 172.002 123.904 168.045C116.726 166.068 110.857 163.698 106.763 161.033C102.703 158.39 100.191 155.318 100.191 151.892C100.191 148.466 102.703 145.394 106.763 142.751C110.857 140.086 116.726 137.716 123.904 135.739C138.273 131.782 158.076 129.346 179.916 129.346C201.757 129.346 221.56 131.782 235.929 135.739C243.107 137.716 248.976 140.086 253.069 142.751C257.129 145.394 259.641 148.466 259.641 151.892Z" fill="#101C3F"/>
<path d="M243.866 193.784C246.071 193.784 247.859 189.924 247.859 185.162C247.859 180.4 246.071 176.539 243.866 176.539C241.66 176.539 239.872 180.4 239.872 185.162C239.872 189.924 241.66 193.784 243.866 193.784Z" fill="#FF3A99"/>
<path d="M247.037 185.162C247.037 182.871 246.604 180.837 245.942 179.406C245.246 177.904 244.452 177.356 243.865 177.356C243.279 177.356 242.485 177.905 241.79 179.406C241.127 180.837 240.695 182.871 240.695 185.162C240.695 187.453 241.127 189.487 241.79 190.918C242.485 192.419 243.279 192.967 243.865 192.968C244.452 192.968 245.246 192.419 245.942 190.918C246.604 189.487 247.037 187.453 247.037 185.162ZM248.682 185.162C248.682 187.633 248.22 189.91 247.437 191.599C246.687 193.218 245.484 194.601 243.865 194.601C242.247 194.6 241.044 193.218 240.294 191.599C239.512 189.91 239.05 187.633 239.05 185.162C239.05 182.691 239.512 180.414 240.294 178.724C241.044 177.105 242.247 175.723 243.865 175.723C245.484 175.723 246.687 177.105 247.437 178.724C248.22 180.414 248.682 182.691 248.682 185.162Z" fill="#0C1C41"/>
<path d="M258.807 99.8751V146.035C258.807 158.032 223.481 167.765 179.905 167.765C136.329 167.765 101.003 158.032 101.003 146.035V99.8751H258.796H258.807Z" fill="#00F2CD"/>
<path d="M257.985 100.692H101.826V146.035C101.826 148.609 103.73 151.253 107.655 153.809C111.547 156.343 117.233 158.657 124.333 160.612C138.522 164.52 158.17 166.949 179.905 166.949C201.641 166.949 221.289 164.52 235.477 160.612C242.577 158.657 248.263 156.343 252.155 153.809C256.081 151.253 257.984 148.609 257.985 146.035V100.692ZM259.63 146.035C259.63 149.46 257.118 152.531 253.058 155.174C248.965 157.839 243.096 160.209 235.918 162.186C221.549 166.143 201.746 168.582 179.905 168.582C158.065 168.582 138.262 166.143 123.893 162.186C116.715 160.209 110.846 157.839 106.752 155.174C102.693 152.531 100.181 149.46 100.18 146.035V99.0587H259.63V146.035Z" fill="#0C1C41"/>
<path d="M179.916 121.616C223.492 121.616 258.818 111.887 258.818 99.8861C258.818 87.8849 223.492 78.1561 179.916 78.1561C136.339 78.1561 101.014 87.8849 101.014 99.8861C101.014 111.887 136.339 121.616 179.916 121.616Z" fill="url(#paint2_linear_919_17567)"/>
<path d="M257.995 99.886C257.995 97.3113 256.091 94.6661 252.166 92.1101C248.274 89.576 242.587 87.2622 235.488 85.3069C221.299 81.3994 201.651 78.9726 179.916 78.9726C158.18 78.9726 138.532 81.3994 124.344 85.3069C117.244 87.2622 111.558 89.576 107.666 92.1101C103.74 94.6661 101.837 97.3113 101.837 99.886C101.837 102.461 103.74 105.106 107.666 107.662C111.558 110.196 117.244 112.51 124.344 114.465C138.532 118.373 158.18 120.799 179.916 120.799C201.651 120.799 221.299 118.373 235.488 114.465C242.587 112.51 248.274 110.196 252.166 107.662C256.091 105.106 257.995 102.461 257.995 99.886ZM259.641 99.886C259.641 103.312 257.129 106.384 253.069 109.027C248.976 111.692 243.107 114.062 235.928 116.039C221.56 119.996 201.756 122.432 179.916 122.432C158.075 122.432 138.272 119.996 123.904 116.039C116.725 114.062 110.856 111.692 106.763 109.027C102.703 106.384 100.191 103.312 100.191 99.886C100.191 96.4601 102.703 93.3883 106.763 90.745C110.856 88.0796 116.725 85.7104 123.904 83.7334C138.272 79.7763 158.075 77.3396 179.916 77.3396C201.756 77.3396 221.56 79.7763 235.928 83.7334C243.107 85.7104 248.976 88.0797 253.069 90.745C257.129 93.3884 259.641 96.4601 259.641 99.886Z" fill="#101C3F"/>
<path d="M243.865 141.778C246.07 141.778 247.858 137.918 247.858 133.156C247.858 128.394 246.07 124.534 243.865 124.534C241.659 124.534 239.872 128.394 239.872 133.156C239.872 137.918 241.659 141.778 243.865 141.778Z" fill="#FF3A99"/>
<path d="M247.036 133.156C247.036 130.865 246.604 128.831 245.941 127.4C245.246 125.899 244.451 125.35 243.865 125.35C243.278 125.35 242.485 125.899 241.79 127.4C241.127 128.831 240.695 130.865 240.695 133.156C240.695 135.447 241.127 137.481 241.79 138.912C242.485 140.413 243.278 140.961 243.865 140.962C244.451 140.962 245.246 140.413 245.941 138.912C246.604 137.481 247.036 135.447 247.036 133.156ZM248.682 133.156C248.682 135.627 248.219 137.904 247.437 139.593C246.687 141.212 245.484 142.595 243.865 142.595C242.246 142.594 241.044 141.212 240.294 139.593C239.512 137.904 239.049 135.627 239.049 133.156C239.049 130.685 239.511 128.408 240.294 126.718C241.044 125.099 242.246 123.717 243.865 123.717C245.484 123.717 246.687 125.099 247.437 126.718C248.219 128.408 248.682 130.685 248.682 133.156Z" fill="#0C1C41"/>
<path d="M174.782 104.262H101.245C97.1551 104.262 93.8397 107.553 93.8397 111.611V229.819C93.8397 233.878 97.1551 237.168 101.245 237.168H174.782C178.872 237.168 182.188 233.878 182.188 229.819V111.611C182.188 107.553 178.872 104.262 174.782 104.262Z" fill="#0C1C41"/>
<path d="M167.388 104.262H93.8505C89.7607 104.262 86.4452 107.553 86.4452 111.611V229.819C86.4452 233.878 89.7607 237.168 93.8505 237.168H167.388C171.478 237.168 174.793 233.878 174.793 229.819V111.611C174.793 107.553 171.478 104.262 167.388 104.262Z" fill="#0066E4"/>
<path d="M173.971 111.611C173.971 108.004 171.024 105.079 167.388 105.079H93.8507C90.2153 105.079 87.2682 108.003 87.2682 111.611V229.819C87.2682 233.427 90.2153 236.351 93.8507 236.351H167.388C171.024 236.351 173.971 233.427 173.971 229.819V111.611ZM175.617 229.819C175.616 234.329 171.932 237.984 167.388 237.984H93.8507C89.3064 237.984 85.6226 234.329 85.6226 229.819V111.611C85.6226 107.102 89.3064 103.446 93.8507 103.446H167.388C171.933 103.446 175.617 107.102 175.617 111.611V229.819Z" fill="#0C1C41"/>
<path d="M107.905 122.65H99.6325C99.2993 122.65 99.0291 122.918 99.0291 123.249V125.013C99.0291 125.343 99.2993 125.611 99.6325 125.611H107.905C108.238 125.611 108.508 125.343 108.508 125.013V123.249C108.508 122.918 108.238 122.65 107.905 122.65Z" fill="#00F2CD"/>
<path d="M134.135 122.65H112.128C111.601 122.65 111.173 123.074 111.173 123.597V124.664C111.173 125.187 111.601 125.611 112.128 125.611H134.135C134.662 125.611 135.09 125.187 135.09 124.664V123.597C135.09 123.074 134.662 122.65 134.135 122.65Z" fill="#F4F6F9"/>
<path d="M160.97 122.65H138.962C138.435 122.65 138.008 123.074 138.008 123.597V124.664C138.008 125.187 138.435 125.611 138.962 125.611H160.97C161.497 125.611 161.924 125.187 161.924 124.664V123.597C161.924 123.074 161.497 122.65 160.97 122.65Z" fill="#F4F6F9"/>
<path d="M107.905 131.828H99.6325C99.2993 131.828 99.0291 132.096 99.0291 132.427V134.19C99.0291 134.521 99.2993 134.789 99.6325 134.789H107.905C108.238 134.789 108.508 134.521 108.508 134.19V132.427C108.508 132.096 108.238 131.828 107.905 131.828Z" fill="#00F2CD"/>
<path d="M122.451 131.828H111.854C111.478 131.828 111.173 132.13 111.173 132.503V134.114C111.173 134.487 111.478 134.789 111.854 134.789H122.451C122.827 134.789 123.132 134.487 123.132 134.114V132.503C123.132 132.13 122.827 131.828 122.451 131.828Z" fill="#F4F6F9"/>
<path d="M142.122 131.828H125.841C125.387 131.828 125.019 132.193 125.019 132.644V133.973C125.019 134.423 125.387 134.789 125.841 134.789H142.122C142.577 134.789 142.945 134.423 142.945 133.973V132.644C142.945 132.193 142.577 131.828 142.122 131.828Z" fill="#F4F6F9"/>
<path d="M161.113 131.828H145.304C144.855 131.828 144.492 132.189 144.492 132.633V133.983C144.492 134.428 144.855 134.789 145.304 134.789H161.113C161.561 134.789 161.925 134.428 161.925 133.983V132.633C161.925 132.189 161.561 131.828 161.113 131.828Z" fill="#FF3A99"/>
<path d="M107.905 140.994H99.6325C99.2993 140.994 99.0291 141.262 99.0291 141.593V143.357C99.0291 143.687 99.2993 143.955 99.6325 143.955H107.905C108.238 143.955 108.508 143.687 108.508 143.357V141.593C108.508 141.262 108.238 140.994 107.905 140.994Z" fill="#00F2CD"/>
<path d="M134.135 140.994H112.128C111.601 140.994 111.173 141.418 111.173 141.941V143.008C111.173 143.531 111.601 143.955 112.128 143.955H134.135C134.662 143.955 135.09 143.531 135.09 143.008V141.941C135.09 141.418 134.662 140.994 134.135 140.994Z" fill="#F4F6F9"/>
<path d="M160.97 140.994H138.962C138.435 140.994 138.008 141.418 138.008 141.941V143.008C138.008 143.531 138.435 143.955 138.962 143.955H160.97C161.497 143.955 161.924 143.531 161.924 143.008V141.941C161.924 141.418 161.497 140.994 160.97 140.994Z" fill="#F4F6F9"/>
<path d="M107.905 150.172H99.6325C99.2993 150.172 99.0291 150.44 99.0291 150.771V152.534C99.0291 152.865 99.2993 153.133 99.6325 153.133H107.905C108.238 153.133 108.508 152.865 108.508 152.534V150.771C108.508 150.44 108.238 150.172 107.905 150.172Z" fill="#00F2CD"/>
<path d="M125.973 150.172H111.941C111.517 150.172 111.173 150.513 111.173 150.934V152.371C111.173 152.792 111.517 153.133 111.941 153.133H125.973C126.397 153.133 126.741 152.792 126.741 152.371V150.934C126.741 150.513 126.397 150.172 125.973 150.172Z" fill="#FF3A99"/>
<path d="M161.365 150.172H154.366C154.057 150.172 153.806 150.421 153.806 150.727V152.578C153.806 152.885 154.057 153.133 154.366 153.133H161.365C161.674 153.133 161.925 152.885 161.925 152.578V150.727C161.925 150.421 161.674 150.172 161.365 150.172Z" fill="#F4F6F9"/>
<path d="M150.932 150.172H129.462C128.941 150.172 128.518 150.591 128.518 151.108V152.197C128.518 152.714 128.941 153.133 129.462 153.133H150.932C151.453 153.133 151.875 152.714 151.875 152.197V151.108C151.875 150.591 151.453 150.172 150.932 150.172Z" fill="#F4F6F9"/>
<path d="M131.777 182.135C134.443 182.135 136.604 179.991 136.604 177.345C136.604 174.7 134.443 172.555 131.777 172.555C129.111 172.555 126.95 174.7 126.95 177.345C126.95 179.991 129.111 182.135 131.777 182.135Z" fill="white"/>
<path d="M144.415 188.286C147.081 188.286 149.242 186.142 149.242 183.496C149.242 180.851 147.081 178.706 144.415 178.706C141.749 178.706 139.588 180.851 139.588 183.496C139.588 186.142 141.749 188.286 144.415 188.286Z" fill="white"/>
<path d="M148.979 201.503C151.645 201.503 153.806 199.358 153.806 196.713C153.806 194.067 151.645 191.922 148.979 191.922C146.313 191.922 144.152 194.067 144.152 196.713C144.152 199.358 146.313 201.503 148.979 201.503Z" fill="#DAE1EA"/>
<path d="M142.78 214.044C145.446 214.044 147.607 211.9 147.607 209.254C147.607 206.609 145.446 204.464 142.78 204.464C140.114 204.464 137.953 206.609 137.953 209.254C137.953 211.9 140.114 214.044 142.78 214.044Z" fill="#063489"/>
<path d="M129.462 218.573C132.128 218.573 134.289 216.429 134.289 213.783C134.289 211.138 132.128 208.993 129.462 208.993C126.796 208.993 124.635 211.138 124.635 213.783C124.635 216.429 126.796 218.573 129.462 218.573Z" fill="#063489"/>
<path d="M116.824 212.422C119.49 212.422 121.651 210.278 121.651 207.632C121.651 204.986 119.49 202.842 116.824 202.842C114.158 202.842 111.997 204.986 111.997 207.632C111.997 210.278 114.158 212.422 116.824 212.422Z" fill="#063489"/>
<path d="M112.26 199.206C114.926 199.206 117.087 197.061 117.087 194.415C117.087 191.77 114.926 189.625 112.26 189.625C109.594 189.625 107.432 191.77 107.432 194.415C107.432 197.061 109.594 199.206 112.26 199.206Z" fill="#063489"/>
<path d="M118.458 186.664C121.124 186.664 123.285 184.52 123.285 181.874C123.285 179.228 121.124 177.084 118.458 177.084C115.792 177.084 113.631 179.228 113.631 181.874C113.631 184.52 115.792 186.664 118.458 186.664Z" fill="#063489"/>
<defs>
<linearGradient id="paint0_linear_919_17567" x1="101.014" y1="203.996" x2="258.819" y2="203.996" gradientUnits="userSpaceOnUse">
<stop stop-color="#48EFCF"/>
<stop offset="1" stop-color="#0B64DD"/>
</linearGradient>
<linearGradient id="paint1_linear_919_17567" x1="101.014" y1="151.892" x2="258.819" y2="151.892" gradientUnits="userSpaceOnUse">
<stop stop-color="#48EFCF"/>
<stop offset="1" stop-color="#0B64DD"/>
</linearGradient>
<linearGradient id="paint2_linear_919_17567" x1="101.014" y1="99.8861" x2="258.818" y2="99.8861" gradientUnits="userSpaceOnUse">
<stop stop-color="#48EFCF"/>
<stop offset="1" stop-color="#0B64DD"/>
</linearGradient>
</defs>
</svg>
