<svg width="345" height="345" viewBox="0 0 345 345" fill="none" xmlns="http://www.w3.org/2000/svg">
<path d="M164.077 130.014C164.078 130.016 164.078 130.049 164.085 130.836C164.093 131.631 164.094 131.656 164.093 131.657H164.074C164.06 131.657 164.04 131.658 164.014 131.658C163.96 131.659 163.88 131.659 163.775 131.66C163.565 131.662 163.253 131.665 162.846 131.669C162.032 131.677 160.838 131.688 159.317 131.702C156.275 131.73 151.928 131.768 146.704 131.811C136.256 131.897 122.302 131.999 108.278 132.068C94.2544 132.136 80.1578 132.17 69.4279 132.119C64.0638 132.093 59.5367 132.047 56.2789 131.972C54.6511 131.934 53.3328 131.89 52.3834 131.837C51.9103 131.81 51.5187 131.781 51.2221 131.749C51.0746 131.733 50.9395 131.715 50.8246 131.693C50.735 131.677 50.5734 131.644 50.4271 131.573L51.1535 130.099C51.077 130.061 51.0391 130.062 51.1235 130.078C51.1827 130.088 51.2735 130.102 51.401 130.116C51.6552 130.144 52.0135 130.171 52.4756 130.196C53.3978 130.248 54.6944 130.292 56.3164 130.329C59.5589 130.404 64.0748 130.451 69.4364 130.476C80.1582 130.528 94.2472 130.494 108.269 130.425C122.291 130.357 136.243 130.254 146.69 130.168C151.913 130.126 156.261 130.087 159.302 130.059C160.822 130.045 162.016 130.034 162.83 130.026C163.237 130.022 163.55 130.02 163.76 130.018C163.865 130.017 163.944 130.016 163.998 130.016C164.024 130.015 164.044 130.015 164.058 130.014H164.077Z" fill="#00F2CD"/>
<path d="M164.077 149.113C164.078 149.114 164.078 149.147 164.085 149.934C164.093 150.73 164.094 150.755 164.093 150.755H164.074C164.06 150.755 164.04 150.756 164.014 150.756C163.96 150.757 163.88 150.758 163.775 150.759C163.565 150.761 163.253 150.763 162.846 150.767C162.032 150.775 160.838 150.786 159.317 150.8C156.275 150.828 151.928 150.867 146.704 150.909C136.256 150.995 122.302 151.098 108.278 151.166C94.2544 151.234 80.1578 151.269 69.4279 151.217C64.0638 151.192 59.5367 151.145 56.2789 151.07C54.6511 151.032 53.3328 150.988 52.3834 150.935C51.9103 150.909 51.5187 150.88 51.2221 150.847C51.0746 150.831 50.9395 150.813 50.8246 150.792C50.735 150.775 50.5734 150.743 50.4271 150.671L51.1535 149.197C51.077 149.16 51.0391 149.16 51.1235 149.176C51.1827 149.187 51.2735 149.2 51.401 149.214C51.6552 149.242 52.0135 149.269 52.4756 149.295C53.3978 149.346 54.6944 149.39 56.3164 149.427C59.5589 149.502 64.0748 149.549 69.4364 149.575C80.1582 149.626 94.2472 149.592 108.269 149.523C122.291 149.455 136.243 149.352 146.69 149.267C151.913 149.224 156.261 149.185 159.302 149.158C160.822 149.144 162.016 149.132 162.83 149.124C163.237 149.121 163.55 149.118 163.76 149.116C163.865 149.115 163.944 149.114 163.998 149.114C164.024 149.114 164.044 149.113 164.058 149.113H164.077Z" fill="#00BEB7"/>
<path d="M164.077 168.222C164.078 168.223 164.078 168.256 164.085 169.043C164.093 169.839 164.094 169.864 164.093 169.864H164.074C164.06 169.865 164.04 169.865 164.014 169.866C163.96 169.866 163.88 169.867 163.775 169.868C163.565 169.87 163.253 169.872 162.846 169.876C162.032 169.884 160.838 169.895 159.317 169.909C156.275 169.937 151.928 169.976 146.704 170.018C136.256 170.104 122.302 170.207 108.278 170.275C94.2544 170.344 80.1578 170.378 69.4279 170.326C64.0638 170.301 59.5367 170.254 56.2789 170.179C54.6511 170.141 53.3328 170.097 52.3834 170.044C51.9103 170.018 51.5187 169.989 51.2221 169.956C51.0746 169.94 50.9395 169.922 50.8246 169.901C50.735 169.884 50.5734 169.852 50.4271 169.78L51.1535 168.306C51.077 168.269 51.0391 168.269 51.1235 168.285C51.1827 168.296 51.2735 168.31 51.401 168.323C51.6552 168.351 52.0135 168.378 52.4756 168.404C53.3978 168.455 54.6944 168.499 56.3164 168.536C59.5589 168.611 64.0748 168.658 69.4364 168.684C80.1582 168.735 94.2472 168.701 108.269 168.632C122.291 168.564 136.243 168.461 146.69 168.376C151.913 168.333 156.261 168.295 159.302 168.267C160.822 168.253 162.016 168.241 162.83 168.234C163.237 168.23 163.55 168.227 163.76 168.225C163.865 168.224 163.944 168.223 163.998 168.223C164.024 168.223 164.044 168.222 164.058 168.222H164.077Z" fill="#0066E4"/>
<path d="M164.077 187.32C164.078 187.321 164.078 187.354 164.085 188.141C164.093 188.937 164.094 188.962 164.093 188.962H164.074C164.06 188.963 164.04 188.963 164.014 188.964C163.96 188.964 163.88 188.965 163.775 188.966C163.565 188.968 163.253 188.97 162.846 188.974C162.032 188.982 160.838 188.993 159.317 189.007C156.275 189.035 151.928 189.074 146.704 189.116C136.256 189.202 122.302 189.305 108.278 189.373C94.2544 189.442 80.1578 189.476 69.4279 189.424C64.0638 189.399 59.5367 189.352 56.2789 189.277C54.6511 189.239 53.3328 189.195 52.3834 189.142C51.9103 189.116 51.5187 189.087 51.2221 189.054C51.0746 189.038 50.9395 189.02 50.8246 188.999C50.735 188.982 50.5734 188.95 50.4271 188.878L51.1535 187.404C51.077 187.367 51.0391 187.367 51.1235 187.383C51.1827 187.394 51.2735 187.408 51.401 187.421C51.6552 187.449 52.0135 187.476 52.4756 187.502C53.3978 187.553 54.6944 187.597 56.3164 187.634C59.5589 187.709 64.0748 187.756 69.4364 187.782C80.1582 187.833 94.2472 187.799 108.269 187.731C122.291 187.662 136.243 187.559 146.69 187.474C151.913 187.431 156.261 187.393 159.302 187.365C160.822 187.351 162.016 187.339 162.83 187.332C163.237 187.328 163.55 187.325 163.76 187.323C163.865 187.322 163.944 187.321 163.998 187.321C164.024 187.321 164.044 187.32 164.058 187.32H164.077Z" fill="#0066E4"/>
<path d="M164.077 206.429C164.078 206.43 164.078 206.463 164.085 207.25C164.093 208.046 164.094 208.071 164.093 208.072H164.074C164.06 208.072 164.04 208.072 164.014 208.073C163.96 208.073 163.88 208.074 163.775 208.075C163.565 208.077 163.253 208.079 162.846 208.083C162.032 208.091 160.838 208.103 159.317 208.117C156.275 208.144 151.928 208.183 146.704 208.226C136.256 208.311 122.302 208.414 108.278 208.482C94.2544 208.551 80.1578 208.585 69.4279 208.534C64.0638 208.508 59.5367 208.461 56.2789 208.386C54.6511 208.349 53.3328 208.304 52.3834 208.251C51.9103 208.225 51.5187 208.196 51.2221 208.164C51.0746 208.147 50.9395 208.129 50.8246 208.108C50.735 208.091 50.5734 208.059 50.4271 207.987L51.1535 206.513C51.077 206.476 51.0391 206.477 51.1235 206.492C51.1827 206.503 51.2735 206.517 51.401 206.531C51.6552 206.558 52.0135 206.585 52.4756 206.611C53.3978 206.662 54.6944 206.706 56.3164 206.743C59.5589 206.818 64.0748 206.865 69.4364 206.891C80.1582 206.942 94.2472 206.908 108.269 206.84C122.291 206.771 136.243 206.669 146.69 206.583C151.913 206.54 156.261 206.502 159.302 206.474C160.822 206.46 162.016 206.449 162.83 206.441C163.237 206.437 163.55 206.434 163.76 206.432C163.865 206.431 163.944 206.431 163.998 206.43C164.024 206.43 164.044 206.429 164.058 206.429H164.077Z" fill="#0066E4"/>
<path d="M258.808 204.885V251.316C258.808 263.384 223.482 273.174 179.906 273.174C136.33 273.174 101.004 263.384 101.004 251.316V204.885H258.797H258.808Z" fill="#00F2CD"/>
<path d="M257.985 205.706H101.827V251.317C101.827 253.905 103.73 256.565 107.656 259.136C111.548 261.685 117.234 264.012 124.334 265.979C138.522 269.91 158.17 272.353 179.906 272.353C201.641 272.353 221.289 269.91 235.478 265.979C242.578 264.012 248.264 261.685 252.156 259.136C256.081 256.565 257.985 253.905 257.985 251.317V205.706ZM259.631 251.317C259.63 254.761 257.118 257.851 253.059 260.509C248.966 263.19 243.097 265.573 235.918 267.562C221.549 271.543 201.746 273.996 179.906 273.996C158.065 273.996 138.262 271.543 123.894 267.562C116.715 265.573 110.846 263.19 106.753 260.509C102.693 257.851 100.181 254.761 100.181 251.317V204.063H259.631V251.317Z" fill="#0C1C41"/>
<path d="M179.916 226.753C223.493 226.753 258.819 216.967 258.819 204.896C258.819 192.824 223.493 183.038 179.916 183.038C136.34 183.038 101.014 192.824 101.014 204.896C101.014 216.967 136.34 226.753 179.916 226.753Z" fill="url(#paint0_linear_919_16741)"/>
<path d="M257.996 204.896C257.996 202.306 256.092 199.645 252.166 197.074C248.274 194.525 242.588 192.198 235.488 190.231C221.3 186.3 201.652 183.859 179.916 183.859C158.181 183.859 138.533 186.3 124.344 190.231C117.245 192.198 111.558 194.525 107.666 197.074C103.741 199.645 101.837 202.306 101.837 204.896C101.837 207.486 103.741 210.146 107.666 212.717C111.558 215.266 117.245 217.594 124.344 219.561C138.533 223.491 158.181 225.932 179.916 225.932C201.652 225.932 221.3 223.491 235.488 219.561C242.588 217.594 248.274 215.266 252.166 212.717C256.092 210.146 257.996 207.486 257.996 204.896ZM259.641 204.896C259.641 208.342 257.129 211.432 253.069 214.091C248.976 216.772 243.107 219.155 235.929 221.143C221.56 225.124 201.757 227.575 179.916 227.575C158.076 227.575 138.273 225.124 123.904 221.143C116.726 219.155 110.857 216.772 106.763 214.091C102.703 211.432 100.191 208.342 100.191 204.896C100.191 201.45 102.703 198.36 106.763 195.701C110.857 193.02 116.726 190.637 123.904 188.648C138.273 184.668 158.076 182.217 179.916 182.217C201.757 182.217 221.56 184.668 235.929 188.648C243.107 190.637 248.976 193.02 253.069 195.701C257.129 198.36 259.641 201.45 259.641 204.896Z" fill="#101C3F"/>
<path d="M243.866 247.034C246.071 247.034 247.859 243.151 247.859 238.361C247.859 233.571 246.071 229.688 243.866 229.688C241.66 229.688 239.872 233.571 239.872 238.361C239.872 243.151 241.66 247.034 243.866 247.034Z" fill="#FF3A99"/>
<path d="M247.037 238.361C247.037 236.057 246.604 234.011 245.942 232.572C245.246 231.061 244.452 230.51 243.865 230.51C243.279 230.51 242.485 231.062 241.79 232.572C241.127 234.011 240.695 236.057 240.695 238.361C240.695 240.666 241.127 242.712 241.79 244.151C242.485 245.661 243.279 246.213 243.865 246.213C244.452 246.213 245.246 245.661 245.942 244.151C246.604 242.712 247.037 240.666 247.037 238.361ZM248.682 238.361C248.682 240.847 248.22 243.137 247.437 244.837C246.687 246.465 245.484 247.856 243.865 247.856C242.247 247.855 241.044 246.465 240.294 244.837C239.512 243.137 239.05 240.847 239.05 238.361C239.05 235.876 239.512 233.586 240.294 231.886C241.044 230.257 242.247 228.867 243.865 228.867C245.484 228.867 246.687 230.257 247.437 231.886C248.22 233.586 248.682 235.876 248.682 238.361Z" fill="#0C1C41"/>
<path d="M258.808 152.485V198.917C258.808 210.984 223.482 220.774 179.906 220.774C136.33 220.774 101.004 210.984 101.004 198.917V152.485H258.797H258.808Z" fill="#00F2CD"/>
<path d="M257.985 153.307H101.827V198.917C101.827 201.506 103.73 204.166 107.656 206.737C111.548 209.286 117.234 211.613 124.334 213.58C138.522 217.511 158.17 219.954 179.906 219.954C201.641 219.954 221.289 217.511 235.478 213.58C242.578 211.613 248.264 209.286 252.156 206.737C256.081 204.166 257.985 201.506 257.985 198.917V153.307ZM259.631 198.917C259.63 202.362 257.118 205.451 253.059 208.11C248.966 210.791 243.097 213.174 235.918 215.163C221.549 219.144 201.746 221.596 179.906 221.596C158.065 221.596 138.262 219.144 123.894 215.163C116.715 213.174 110.846 210.791 106.753 208.11C102.693 205.451 100.181 202.362 100.181 198.917V151.664H259.631V198.917Z" fill="#0C1C41"/>
<path d="M179.916 174.343C223.493 174.343 258.819 164.557 258.819 152.485C258.819 140.414 223.493 130.628 179.916 130.628C136.34 130.628 101.014 140.414 101.014 152.485C101.014 164.557 136.34 174.343 179.916 174.343Z" fill="url(#paint1_linear_919_16741)"/>
<path d="M257.996 152.485C257.996 149.896 256.092 147.235 252.166 144.664C248.274 142.115 242.588 139.787 235.488 137.821C221.3 133.89 201.652 131.449 179.916 131.449C158.181 131.449 138.533 133.89 124.344 137.821C117.245 139.787 111.558 142.115 107.666 144.664C103.741 147.235 101.837 149.896 101.837 152.485C101.837 155.075 103.741 157.736 107.666 160.307C111.558 162.856 117.245 165.184 124.344 167.15C138.533 171.081 158.181 173.522 179.916 173.522C201.652 173.522 221.3 171.081 235.488 167.15C242.588 165.184 248.274 162.856 252.166 160.307C256.092 157.736 257.996 155.075 257.996 152.485ZM259.641 152.485C259.641 155.932 257.129 159.021 253.069 161.68C248.976 164.361 243.107 166.744 235.929 168.733C221.56 172.713 201.757 175.164 179.916 175.164C158.076 175.164 138.273 172.713 123.904 168.733C116.726 166.744 110.857 164.361 106.763 161.68C102.703 159.021 100.191 155.931 100.191 152.485C100.191 149.039 102.703 145.95 106.763 143.291C110.857 140.61 116.726 138.227 123.904 136.238C138.273 132.257 158.076 129.806 179.916 129.806C201.757 129.806 221.56 132.258 235.929 136.238C243.107 138.226 248.976 140.61 253.069 143.291C257.129 145.95 259.641 149.039 259.641 152.485Z" fill="#101C3F"/>
<path d="M243.866 194.624C246.071 194.624 247.859 190.741 247.859 185.951C247.859 181.161 246.071 177.278 243.866 177.278C241.66 177.278 239.872 181.161 239.872 185.951C239.872 190.741 241.66 194.624 243.866 194.624Z" fill="#FF3A99"/>
<path d="M247.037 185.951C247.037 183.647 246.604 181.601 245.942 180.161C245.246 178.651 244.452 178.099 243.865 178.099C243.279 178.1 242.485 178.651 241.79 180.161C241.127 181.601 240.695 183.647 240.695 185.951C240.695 188.255 241.127 190.301 241.79 191.741C242.485 193.251 243.279 193.802 243.865 193.803C244.452 193.803 245.246 193.251 245.942 191.741C246.604 190.301 247.037 188.255 247.037 185.951ZM248.682 185.951C248.682 188.437 248.22 190.727 247.437 192.426C246.687 194.055 245.484 195.445 243.865 195.445C242.247 195.445 241.044 194.055 240.294 192.426C239.512 190.727 239.05 188.437 239.05 185.951C239.05 183.465 239.512 181.175 240.294 179.476C241.044 177.847 242.247 176.457 243.865 176.457C245.484 176.457 246.687 177.847 247.437 179.476C248.22 181.175 248.682 183.465 248.682 185.951Z" fill="#0C1C41"/>
<path d="M258.807 100.163V146.594C258.807 158.662 223.481 168.452 179.905 168.452C136.329 168.452 101.003 158.662 101.003 146.594V100.163H258.796H258.807Z" fill="#00F2CD"/>
<path d="M257.985 100.984H101.826V146.594C101.826 149.183 103.73 151.843 107.655 154.414C111.547 156.963 117.233 159.29 124.333 161.257C138.522 165.188 158.17 167.631 179.905 167.631C201.641 167.631 221.289 165.188 235.477 161.257C242.577 159.29 248.263 156.963 252.155 154.414C256.081 151.843 257.984 149.183 257.985 146.594V100.984ZM259.63 146.594C259.63 150.039 257.118 153.128 253.058 155.787C248.965 158.468 243.096 160.851 235.918 162.84C221.549 166.821 201.746 169.273 179.905 169.273C158.065 169.273 138.262 166.821 123.893 162.84C116.715 160.851 110.846 158.468 106.752 155.787C102.693 153.128 100.181 150.039 100.18 146.594V99.3414H259.63V146.594Z" fill="#0C1C41"/>
<path d="M179.916 122.031C223.492 122.031 258.818 112.245 258.818 100.174C258.818 88.1019 223.492 78.3159 179.916 78.3159C136.339 78.3159 101.014 88.1019 101.014 100.174C101.014 112.245 136.339 122.031 179.916 122.031Z" fill="url(#paint2_linear_919_16741)"/>
<path d="M257.995 100.174C257.995 97.5837 256.091 94.923 252.166 92.3519C248.274 89.8029 242.587 87.4755 235.488 85.5087C221.299 81.5783 201.651 79.1372 179.916 79.1372C158.18 79.1372 138.532 81.5782 124.344 85.5087C117.244 87.4755 111.558 89.8029 107.666 92.3519C103.74 94.923 101.837 97.5837 101.837 100.174C101.837 102.763 103.74 105.424 107.666 107.995C111.558 110.544 117.244 112.872 124.344 114.838C138.532 118.769 158.18 121.21 179.916 121.21C201.651 121.21 221.299 118.769 235.488 114.838C242.587 112.872 248.274 110.544 252.166 107.995C256.091 105.424 257.995 102.763 257.995 100.174ZM259.641 100.174C259.641 103.62 257.129 106.709 253.069 109.368C248.976 112.049 243.107 114.433 235.928 116.421C221.56 120.402 201.756 122.853 179.916 122.853C158.075 122.853 138.272 120.402 123.904 116.421C116.725 114.433 110.856 112.049 106.763 109.368C102.703 106.709 100.191 103.62 100.191 100.174C100.191 96.7276 102.703 93.6377 106.763 90.9788C110.856 88.2978 116.725 85.9146 123.904 83.926C138.272 79.9456 158.075 77.4945 179.916 77.4945C201.756 77.4945 221.56 79.9456 235.928 83.926C243.107 85.9146 248.976 88.2978 253.069 90.9788C257.129 93.6377 259.641 96.7275 259.641 100.174Z" fill="#101C3F"/>
<path d="M243.865 142.312C246.07 142.312 247.858 138.429 247.858 133.639C247.858 128.849 246.07 124.966 243.865 124.966C241.659 124.966 239.872 128.849 239.872 133.639C239.872 138.429 241.659 142.312 243.865 142.312Z" fill="#FF3A99"/>
<path d="M247.036 133.639C247.036 131.335 246.604 129.289 245.941 127.849C245.246 126.339 244.451 125.787 243.865 125.787C243.278 125.788 242.485 126.339 241.79 127.849C241.127 129.289 240.695 131.335 240.695 133.639C240.695 135.943 241.127 137.989 241.79 139.429C242.485 140.939 243.278 141.49 243.865 141.491C244.451 141.491 245.246 140.939 245.941 139.429C246.604 137.989 247.036 135.943 247.036 133.639ZM248.682 133.639C248.682 136.125 248.219 138.415 247.437 140.114C246.687 141.743 245.484 143.133 243.865 143.133C242.246 143.133 241.044 141.743 240.294 140.114C239.512 138.415 239.049 136.125 239.049 133.639C239.049 131.153 239.511 128.863 240.294 127.164C241.044 125.535 242.246 124.145 243.865 124.145C245.484 124.145 246.687 125.535 247.437 127.164C248.219 128.863 248.682 131.154 248.682 133.639Z" fill="#0C1C41"/>
<path d="M174.782 104.576H101.245C97.1551 104.576 93.8397 107.885 93.8397 111.968V230.871C93.8397 234.953 97.1551 238.263 101.245 238.263H174.782C178.872 238.263 182.188 234.953 182.188 230.871V111.968C182.188 107.885 178.872 104.576 174.782 104.576Z" fill="#0C1C41"/>
<path d="M167.388 104.576H93.8505C89.7607 104.576 86.4452 107.885 86.4452 111.968V230.871C86.4452 234.953 89.7607 238.263 93.8505 238.263H167.388C171.478 238.263 174.793 234.953 174.793 230.871V111.968C174.793 107.885 171.478 104.576 167.388 104.576Z" fill="#0066E4"/>
<path d="M173.971 111.968C173.971 108.339 171.024 105.397 167.388 105.397H93.8507C90.2153 105.397 87.2682 108.339 87.2682 111.968V230.871C87.2682 234.5 90.2153 237.442 93.8507 237.442H167.388C171.024 237.441 173.971 234.5 173.971 230.871V111.968ZM175.617 230.871C175.616 235.407 171.932 239.084 167.388 239.084H93.8507C89.3064 239.084 85.6226 235.407 85.6226 230.871V111.968C85.6226 107.432 89.3064 103.754 93.8507 103.754H167.388C171.933 103.755 175.617 107.432 175.617 111.968V230.871Z" fill="#0C1C41"/>
<path d="M107.905 123.072H99.6325C99.2993 123.072 99.0291 123.341 99.0291 123.674V125.448C99.0291 125.781 99.2993 126.05 99.6325 126.05H107.905C108.238 126.05 108.508 125.781 108.508 125.448V123.674C108.508 123.341 108.238 123.072 107.905 123.072Z" fill="#00F2CD"/>
<path d="M134.135 123.072H112.128C111.601 123.072 111.173 123.498 111.173 124.024V125.098C111.173 125.624 111.601 126.05 112.128 126.05H134.135C134.662 126.05 135.09 125.624 135.09 125.098V124.024C135.09 123.498 134.662 123.072 134.135 123.072Z" fill="#F4F6F9"/>
<path d="M160.97 123.072H138.962C138.435 123.072 138.008 123.498 138.008 124.024V125.098C138.008 125.624 138.435 126.05 138.962 126.05H160.97C161.497 126.05 161.924 125.624 161.924 125.098V124.024C161.924 123.498 161.497 123.072 160.97 123.072Z" fill="#F4F6F9"/>
<path d="M107.905 132.303H99.6325C99.2993 132.303 99.0291 132.573 99.0291 132.905V134.68C99.0291 135.012 99.2993 135.282 99.6325 135.282H107.905C108.238 135.282 108.508 135.012 108.508 134.68V132.905C108.508 132.573 108.238 132.303 107.905 132.303Z" fill="#00F2CD"/>
<path d="M122.451 132.303H111.854C111.478 132.303 111.173 132.607 111.173 132.982V134.603C111.173 134.978 111.478 135.282 111.854 135.282H122.451C122.827 135.282 123.132 134.978 123.132 134.603V132.982C123.132 132.607 122.827 132.303 122.451 132.303Z" fill="#F4F6F9"/>
<path d="M142.122 132.303H125.841C125.387 132.303 125.019 132.671 125.019 133.125V134.461C125.019 134.914 125.387 135.282 125.841 135.282H142.122C142.577 135.282 142.945 134.914 142.945 134.461V133.125C142.945 132.671 142.577 132.303 142.122 132.303Z" fill="#F4F6F9"/>
<path d="M161.113 132.303H145.304C144.855 132.303 144.492 132.666 144.492 133.114V134.472C144.492 134.919 144.855 135.282 145.304 135.282H161.113C161.561 135.282 161.925 134.919 161.925 134.472V133.114C161.925 132.666 161.561 132.303 161.113 132.303Z" fill="#FF3A99"/>
<path d="M107.905 141.524H99.6325C99.2993 141.524 99.0291 141.793 99.0291 142.126V143.9C99.0291 144.233 99.2993 144.502 99.6325 144.502H107.905C108.238 144.502 108.508 144.233 108.508 143.9V142.126C108.508 141.793 108.238 141.524 107.905 141.524Z" fill="#00F2CD"/>
<path d="M134.135 141.524H112.128C111.601 141.524 111.173 141.95 111.173 142.476V143.549C111.173 144.076 111.601 144.502 112.128 144.502H134.135C134.662 144.502 135.09 144.076 135.09 143.549V142.476C135.09 141.95 134.662 141.524 134.135 141.524Z" fill="#F4F6F9"/>
<path d="M160.97 141.524H138.962C138.435 141.524 138.008 141.95 138.008 142.476V143.549C138.008 144.076 138.435 144.502 138.962 144.502H160.97C161.497 144.502 161.924 144.076 161.924 143.549V142.476C161.924 141.95 161.497 141.524 160.97 141.524Z" fill="#F4F6F9"/>
<path d="M107.905 150.755H99.6325C99.2993 150.755 99.0291 151.025 99.0291 151.358V153.132C99.0291 153.464 99.2993 153.734 99.6325 153.734H107.905C108.238 153.734 108.508 153.464 108.508 153.132V151.358C108.508 151.025 108.238 150.755 107.905 150.755Z" fill="#00F2CD"/>
<path d="M125.973 150.755H111.941C111.517 150.755 111.173 151.099 111.173 151.522V152.967C111.173 153.391 111.517 153.734 111.941 153.734H125.973C126.397 153.734 126.741 153.391 126.741 152.967V151.522C126.741 151.099 126.397 150.755 125.973 150.755Z" fill="#FF3A99"/>
<path d="M161.365 150.755H154.366C154.057 150.755 153.806 151.005 153.806 151.314V153.175C153.806 153.484 154.057 153.734 154.366 153.734H161.365C161.674 153.734 161.925 153.484 161.925 153.175V151.314C161.925 151.005 161.674 150.755 161.365 150.755Z" fill="#F4F6F9"/>
<path d="M150.932 150.755H129.462C128.941 150.755 128.518 151.177 128.518 151.697V152.792C128.518 153.312 128.941 153.734 129.462 153.734H150.932C151.453 153.734 151.875 153.312 151.875 152.792V151.697C151.875 151.177 151.453 150.755 150.932 150.755Z" fill="#F4F6F9"/>
<path d="M131.777 182.907C134.443 182.907 136.604 180.749 136.604 178.088C136.604 175.427 134.443 173.27 131.777 173.27C129.111 173.27 126.95 175.427 126.95 178.088C126.95 180.749 129.111 182.907 131.777 182.907Z" fill="white"/>
<path d="M144.415 189.094C147.081 189.094 149.242 186.937 149.242 184.275C149.242 181.614 147.081 179.457 144.415 179.457C141.749 179.457 139.588 181.614 139.588 184.275C139.588 186.937 141.749 189.094 144.415 189.094Z" fill="white"/>
<path d="M148.979 202.388C151.645 202.388 153.806 200.231 153.806 197.57C153.806 194.909 151.645 192.751 148.979 192.751C146.313 192.751 144.152 194.909 144.152 197.57C144.152 200.231 146.313 202.388 148.979 202.388Z" fill="#DAE1EA"/>
<path d="M142.78 215.003C145.446 215.003 147.607 212.846 147.607 210.185C147.607 207.524 145.446 205.367 142.78 205.367C140.114 205.367 137.953 207.524 137.953 210.185C137.953 212.846 140.114 215.003 142.78 215.003Z" fill="#063489"/>
<path d="M129.462 219.559C132.128 219.559 134.289 217.402 134.289 214.741C134.289 212.08 132.128 209.922 129.462 209.922C126.796 209.922 124.635 212.08 124.635 214.741C124.635 217.402 126.796 219.559 129.462 219.559Z" fill="#063489"/>
<path d="M116.824 213.372C119.49 213.372 121.651 211.214 121.651 208.553C121.651 205.892 119.49 203.735 116.824 203.735C114.158 203.735 111.997 205.892 111.997 208.553C111.997 211.214 114.158 213.372 116.824 213.372Z" fill="#063489"/>
<path d="M112.26 200.078C114.926 200.078 117.087 197.92 117.087 195.259C117.087 192.598 114.926 190.441 112.26 190.441C109.594 190.441 107.432 192.598 107.432 195.259C107.432 197.92 109.594 200.078 112.26 200.078Z" fill="#063489"/>
<path d="M118.458 187.462C121.124 187.462 123.285 185.305 123.285 182.644C123.285 179.983 121.124 177.825 118.458 177.825C115.792 177.825 113.631 179.983 113.631 182.644C113.631 185.305 115.792 187.462 118.458 187.462Z" fill="#063489"/>
<defs>
<linearGradient id="paint0_linear_919_16741" x1="101.014" y1="204.896" x2="258.819" y2="204.896" gradientUnits="userSpaceOnUse">
<stop stop-color="#48EFCF"/>
<stop offset="1" stop-color="#0B64DD"/>
</linearGradient>
<linearGradient id="paint1_linear_919_16741" x1="101.014" y1="152.485" x2="258.819" y2="152.485" gradientUnits="userSpaceOnUse">
<stop stop-color="#48EFCF"/>
<stop offset="1" stop-color="#0B64DD"/>
</linearGradient>
<linearGradient id="paint2_linear_919_16741" x1="101.014" y1="100.174" x2="258.818" y2="100.174" gradientUnits="userSpaceOnUse">
<stop stop-color="#48EFCF"/>
<stop offset="1" stop-color="#0B64DD"/>
</linearGradient>
</defs>
</svg>
