<svg width="345" height="345" viewBox="0 0 345 345" fill="none" xmlns="http://www.w3.org/2000/svg">
<path d="M167.983 128.092C167.983 128.094 167.983 128.127 167.991 128.903C167.999 129.688 167.999 129.713 167.998 129.714H167.979C167.966 129.714 167.946 129.715 167.92 129.715C167.867 129.716 167.787 129.716 167.683 129.717C167.474 129.719 167.165 129.722 166.761 129.726C165.953 129.733 164.768 129.745 163.26 129.758C160.242 129.786 155.928 129.824 150.745 129.866C140.379 129.95 126.534 130.052 112.62 130.119C98.706 130.187 84.7196 130.221 74.0736 130.17C68.7515 130.145 64.2598 130.098 61.0275 130.024C59.4124 129.987 58.1044 129.944 57.1625 129.891C56.693 129.865 56.3045 129.837 56.0102 129.805C55.8639 129.789 55.7298 129.771 55.6158 129.75C55.5269 129.734 55.3665 129.701 55.2214 129.631L55.9421 128.176C55.8662 128.139 55.8287 128.139 55.9124 128.155C55.9711 128.165 56.0612 128.179 56.1877 128.193C56.4399 128.22 56.7954 128.246 57.2539 128.272C58.1689 128.323 59.4553 128.366 61.0647 128.403C64.2818 128.476 68.7624 128.523 74.0821 128.548C84.72 128.599 98.6989 128.565 112.611 128.498C126.523 128.43 140.366 128.329 150.731 128.244C155.914 128.202 160.227 128.164 163.245 128.137C164.753 128.123 165.938 128.112 166.745 128.104C167.149 128.1 167.459 128.098 167.668 128.096C167.772 128.095 167.851 128.094 167.904 128.093C167.93 128.093 167.95 128.093 167.963 128.092H167.983Z" fill="#00F2CD"/>
<path d="M167.983 146.946C167.983 146.947 167.983 146.98 167.991 147.757C167.999 148.541 167.999 148.567 167.998 148.568H167.979C167.966 148.568 167.946 148.568 167.92 148.569C167.867 148.569 167.787 148.57 167.683 148.571C167.474 148.573 167.165 148.575 166.761 148.579C165.953 148.587 164.768 148.598 163.26 148.612C160.242 148.639 155.928 148.677 150.745 148.72C140.379 148.804 126.534 148.905 112.62 148.973C98.706 149.041 84.7196 149.074 74.0736 149.024C68.7515 148.998 64.2598 148.952 61.0275 148.878C59.4124 148.841 58.1044 148.797 57.1625 148.745C56.693 148.719 56.3045 148.69 56.0102 148.658C55.8639 148.643 55.7298 148.624 55.6158 148.603C55.5269 148.587 55.3665 148.555 55.2214 148.484L55.9421 147.029C55.8662 146.992 55.8287 146.993 55.9124 147.008C55.9711 147.019 56.0612 147.033 56.1877 147.046C56.4399 147.074 56.7954 147.1 57.2539 147.125C58.1689 147.176 59.4553 147.22 61.0647 147.256C64.2818 147.33 68.7624 147.377 74.0821 147.402C84.72 147.453 98.6989 147.419 112.611 147.351C126.523 147.284 140.366 147.182 150.731 147.098C155.914 147.056 160.227 147.018 163.245 146.99C164.753 146.977 165.938 146.965 166.745 146.958C167.149 146.954 167.459 146.951 167.668 146.949C167.772 146.948 167.851 146.948 167.904 146.947C167.93 146.947 167.95 146.946 167.963 146.946H167.983Z" fill="#00BEB7"/>
<path d="M167.983 165.81C167.983 165.812 167.983 165.845 167.991 166.621C167.999 167.406 167.999 167.431 167.998 167.432H167.979C167.966 167.432 167.946 167.433 167.92 167.433C167.867 167.434 167.787 167.434 167.683 167.435C167.474 167.437 167.165 167.44 166.761 167.444C165.953 167.451 164.768 167.463 163.26 167.476C160.242 167.504 155.928 167.542 150.745 167.584C140.379 167.668 126.534 167.77 112.62 167.837C98.706 167.905 84.7196 167.939 74.0736 167.888C68.7515 167.863 64.2598 167.816 61.0275 167.742C59.4124 167.705 58.1044 167.662 57.1625 167.609C56.693 167.583 56.3045 167.555 56.0102 167.523C55.8639 167.507 55.7298 167.489 55.6158 167.468C55.5269 167.452 55.3665 167.419 55.2214 167.349L55.9421 165.894C55.8662 165.857 55.8287 165.857 55.9124 165.873C55.9711 165.883 56.0612 165.897 56.1877 165.911C56.4399 165.938 56.7954 165.964 57.2539 165.99C58.1689 166.041 59.4553 166.084 61.0647 166.121C64.2818 166.195 68.7624 166.241 74.0821 166.266C84.72 166.317 98.6989 166.283 112.611 166.216C126.523 166.148 140.366 166.047 150.731 165.962C155.914 165.92 160.227 165.882 163.245 165.855C164.753 165.841 165.938 165.83 166.745 165.822C167.149 165.818 167.459 165.816 167.668 165.814C167.772 165.813 167.851 165.812 167.904 165.811C167.93 165.811 167.95 165.811 167.963 165.81H167.983Z" fill="#0066E4"/>
<path d="M167.983 184.664C167.983 184.665 167.983 184.698 167.991 185.475C167.999 186.259 167.999 186.285 167.998 186.286H167.979C167.966 186.286 167.946 186.286 167.92 186.287C167.867 186.287 167.787 186.288 167.683 186.289C167.474 186.291 167.165 186.293 166.761 186.297C165.953 186.305 164.768 186.316 163.26 186.33C160.242 186.357 155.928 186.395 150.745 186.438C140.379 186.522 126.534 186.623 112.62 186.691C98.706 186.759 84.7196 186.792 74.0736 186.742C68.7515 186.716 64.2598 186.67 61.0275 186.596C59.4124 186.559 58.1044 186.515 57.1625 186.463C56.693 186.437 56.3045 186.408 56.0102 186.376C55.8639 186.36 55.7298 186.342 55.6158 186.321C55.5269 186.305 55.3665 186.273 55.2214 186.202L55.9421 184.747C55.8662 184.71 55.8287 184.711 55.9124 184.726C55.9711 184.737 56.0612 184.751 56.1877 184.764C56.4399 184.792 56.7954 184.818 57.2539 184.843C58.1689 184.894 59.4553 184.937 61.0647 184.974C64.2818 185.048 68.7624 185.095 74.0821 185.12C84.72 185.171 98.6989 185.137 112.611 185.069C126.523 185.002 140.366 184.9 150.731 184.816C155.914 184.774 160.227 184.736 163.245 184.708C164.753 184.695 165.938 184.683 166.745 184.676C167.149 184.672 167.459 184.669 167.668 184.667C167.772 184.666 167.851 184.666 167.904 184.665C167.93 184.665 167.95 184.664 167.963 184.664H167.983Z" fill="#0066E4"/>
<path d="M167.983 203.528C167.983 203.53 167.983 203.563 167.991 204.339C167.999 205.124 167.999 205.149 167.998 205.15H167.979C167.966 205.15 167.946 205.151 167.92 205.151C167.867 205.152 167.787 205.152 167.683 205.153C167.474 205.155 167.165 205.158 166.761 205.162C165.953 205.169 164.768 205.181 163.26 205.194C160.242 205.222 155.928 205.26 150.745 205.302C140.379 205.386 126.534 205.488 112.62 205.555C98.706 205.623 84.7196 205.657 74.0736 205.606C68.7515 205.581 64.2598 205.534 61.0275 205.46C59.4124 205.423 58.1044 205.38 57.1625 205.327C56.693 205.301 56.3045 205.273 56.0102 205.241C55.8639 205.225 55.7298 205.207 55.6158 205.186C55.5269 205.17 55.3665 205.137 55.2214 205.067L55.9421 203.612C55.8662 203.575 55.8287 203.575 55.9124 203.591C55.9711 203.601 56.0612 203.615 56.1877 203.629C56.4399 203.656 56.7954 203.682 57.2539 203.708C58.1689 203.759 59.4553 203.802 61.0647 203.839C64.2818 203.912 68.7624 203.959 74.0821 203.984C84.72 204.035 98.6989 204.001 112.611 203.934C126.523 203.866 140.366 203.765 150.731 203.68C155.914 203.638 160.227 203.6 163.245 203.573C164.753 203.559 165.938 203.548 166.745 203.54C167.149 203.536 167.459 203.534 167.668 203.532C167.772 203.531 167.851 203.53 167.904 203.529C167.93 203.529 167.95 203.529 167.963 203.528H167.983Z" fill="#0066E4"/>
<path d="M261.984 202.004V247.841C261.984 259.754 226.934 269.418 183.698 269.418C140.463 269.418 105.413 259.754 105.413 247.841V202.004H261.973H261.984Z" fill="#DAE1EA"/>
<path d="M261.167 202.815H106.23V247.841C106.23 250.397 108.119 253.023 112.014 255.561C115.875 258.077 121.517 260.374 128.561 262.316C142.639 266.197 162.133 268.608 183.699 268.608C205.264 268.608 224.759 266.197 238.836 262.316C245.88 260.374 251.522 258.077 255.384 255.561C259.278 253.023 261.167 250.397 261.167 247.841V202.815ZM262.8 247.841C262.8 251.242 260.307 254.292 256.28 256.916C252.218 259.563 246.395 261.915 239.273 263.879C225.017 267.808 205.368 270.23 183.699 270.23C162.029 270.23 142.381 267.808 128.124 263.879C121.002 261.915 115.179 259.563 111.118 256.916C107.09 254.292 104.597 251.242 104.597 247.841V201.193H262.8V247.841Z" fill="#333742"/>
<path d="M183.709 223.593C226.945 223.593 261.994 213.932 261.994 202.015C261.994 190.098 226.945 180.437 183.709 180.437C140.474 180.437 105.424 190.098 105.424 202.015C105.424 213.932 140.474 223.593 183.709 223.593Z" fill="#A8B3C5"/>
<path d="M261.178 202.015C261.178 199.458 259.289 196.831 255.394 194.293C251.533 191.777 245.891 189.479 238.847 187.538C224.769 183.658 205.275 181.248 183.709 181.248C162.144 181.248 142.649 183.658 128.572 187.538C121.527 189.479 115.886 191.777 112.024 194.293C108.129 196.831 106.24 199.458 106.24 202.015C106.24 204.571 108.129 207.198 112.024 209.736C115.886 212.253 121.527 214.55 128.572 216.492C142.649 220.372 162.144 222.782 183.709 222.782C205.275 222.782 224.769 220.372 238.847 216.492C245.891 214.55 251.533 212.253 255.394 209.736C259.289 207.198 261.178 204.571 261.178 202.015ZM262.811 202.015C262.811 205.417 260.318 208.467 256.29 211.092C252.229 213.738 246.406 216.091 239.283 218.054C225.027 221.984 205.379 224.403 183.709 224.403C162.039 224.403 142.391 221.984 128.135 218.054C121.013 216.091 115.189 213.738 111.128 211.092C107.1 208.467 104.608 205.417 104.608 202.015C104.608 198.613 107.1 195.563 111.128 192.938C115.189 190.291 121.013 187.938 128.135 185.975C142.391 182.046 162.039 179.626 183.709 179.626C205.379 179.626 225.027 182.046 239.283 185.975C246.406 187.938 252.229 190.291 256.29 192.938C260.318 195.563 262.811 198.613 262.811 202.015Z" fill="#333742"/>
<path d="M247.147 243.614C249.336 243.614 251.11 239.78 251.11 235.052C251.11 230.323 249.336 226.49 247.147 226.49C244.959 226.49 243.185 230.323 243.185 235.052C243.185 239.78 244.959 243.614 247.147 243.614Z" fill="#DAE1EA"/>
<path d="M250.293 235.052C250.293 232.777 249.865 230.757 249.207 229.336C248.517 227.845 247.729 227.301 247.147 227.301C246.565 227.301 245.778 227.846 245.088 229.336C244.43 230.757 244.002 232.777 244.002 235.052C244.002 237.327 244.43 239.347 245.088 240.767C245.778 242.258 246.565 242.803 247.147 242.803C247.729 242.803 248.517 242.258 249.207 240.767C249.865 239.347 250.293 237.327 250.293 235.052ZM251.926 235.052C251.926 237.505 251.467 239.766 250.691 241.444C249.947 243.052 248.753 244.424 247.147 244.424C245.541 244.424 244.348 243.052 243.604 241.444C242.828 239.766 242.369 237.506 242.369 235.052C242.369 232.598 242.828 230.337 243.604 228.659C244.348 227.052 245.541 225.679 247.147 225.679C248.753 225.679 249.947 227.052 250.691 228.659C251.467 230.337 251.926 232.598 251.926 235.052Z" fill="#333742"/>
<path d="M261.984 150.276V196.112C261.984 208.026 226.934 217.69 183.698 217.69C140.463 217.69 105.413 208.026 105.413 196.112V150.276H261.973H261.984Z" fill="#DAE1EA"/>
<path d="M261.167 151.086H106.23V196.113C106.23 198.668 108.119 201.294 112.014 203.832C115.875 206.348 121.517 208.646 128.561 210.588C142.639 214.468 162.133 216.88 183.699 216.88C205.264 216.88 224.759 214.468 238.836 210.588C245.88 208.646 251.522 206.348 255.384 203.832C259.278 201.294 261.167 198.668 261.167 196.113V151.086ZM262.8 196.113C262.8 199.514 260.307 202.563 256.28 205.188C252.218 207.834 246.395 210.187 239.273 212.15C225.017 216.08 205.368 218.501 183.699 218.501C162.029 218.501 142.381 216.08 128.124 212.15C121.002 210.187 115.179 207.834 111.118 205.188C107.09 202.563 104.597 199.514 104.597 196.113V149.465H262.8V196.113Z" fill="#333742"/>
<path d="M183.709 171.854C226.945 171.854 261.994 162.193 261.994 150.276C261.994 138.359 226.945 128.698 183.709 128.698C140.474 128.698 105.424 138.359 105.424 150.276C105.424 162.193 140.474 171.854 183.709 171.854Z" fill="#A8B3C5"/>
<path d="M261.178 150.276C261.178 147.719 259.289 145.092 255.394 142.554C251.533 140.038 245.891 137.74 238.847 135.799C224.769 131.918 205.275 129.509 183.709 129.509C162.144 129.509 142.649 131.918 128.572 135.799C121.527 137.74 115.886 140.038 112.024 142.554C108.129 145.092 106.24 147.719 106.24 150.276C106.24 152.832 108.129 155.459 112.024 157.997C115.886 160.513 121.527 162.811 128.572 164.753C142.649 168.633 162.144 171.043 183.709 171.043C205.275 171.043 224.769 168.633 238.847 164.753C245.891 162.811 251.533 160.513 255.394 157.997C259.289 155.459 261.178 152.832 261.178 150.276ZM262.811 150.276C262.811 153.677 260.318 156.728 256.29 159.353C252.229 161.999 246.406 164.352 239.283 166.315C225.027 170.244 205.379 172.664 183.709 172.664C162.039 172.664 142.391 170.245 128.135 166.315C121.013 164.352 115.189 161.999 111.128 159.353C107.1 156.728 104.608 153.677 104.608 150.276C104.608 146.874 107.1 143.823 111.128 141.199C115.189 138.552 121.013 136.199 128.135 134.236C142.391 130.307 162.039 127.887 183.709 127.887C205.379 127.887 225.027 130.307 239.283 134.236C246.406 136.199 252.229 138.552 256.29 141.199C260.318 143.823 262.811 146.874 262.811 150.276Z" fill="#333742"/>
<path d="M247.147 191.875C249.336 191.875 251.11 188.041 251.11 183.313C251.11 178.584 249.336 174.751 247.147 174.751C244.959 174.751 243.185 178.584 243.185 183.313C243.185 188.041 244.959 191.875 247.147 191.875Z" fill="#DAE1EA"/>
<path d="M250.293 183.313C250.293 181.038 249.865 179.018 249.207 177.597C248.517 176.106 247.729 175.562 247.147 175.562C246.565 175.562 245.778 176.107 245.088 177.597C244.43 179.018 244.002 181.038 244.002 183.313C244.002 185.587 244.43 187.607 245.088 189.028C245.778 190.519 246.565 191.063 247.147 191.064C247.729 191.064 248.517 190.519 249.207 189.028C249.865 187.607 250.293 185.587 250.293 183.313ZM251.926 183.313C251.926 185.766 251.467 188.027 250.691 189.705C249.947 191.313 248.753 192.685 247.147 192.685C245.541 192.685 244.348 191.313 243.604 189.705C242.828 188.027 242.369 185.766 242.369 183.313C242.369 180.859 242.828 178.598 243.604 176.92C244.348 175.313 245.541 173.94 247.147 173.94C248.753 173.94 249.947 175.312 250.691 176.92C251.467 178.598 251.926 180.859 251.926 183.313Z" fill="#333742"/>
<path d="M261.984 98.6229V144.46C261.984 156.373 226.934 166.037 183.698 166.037C140.463 166.037 105.413 156.373 105.413 144.46V98.6229H261.973H261.984Z" fill="#DAE1EA"/>
<path d="M261.167 99.4337H106.23V144.46C106.23 147.015 108.119 149.641 112.014 152.179C115.875 154.696 121.517 156.993 128.561 158.935C142.639 162.816 162.133 165.227 183.699 165.227C205.264 165.227 224.759 162.816 238.836 158.935C245.88 156.993 251.522 154.696 255.384 152.179C259.278 149.641 261.167 147.015 261.167 144.46V99.4337ZM262.8 144.46C262.8 147.861 260.307 150.91 256.28 153.535C252.218 156.181 246.395 158.534 239.273 160.497C225.017 164.427 205.368 166.849 183.699 166.849C162.029 166.849 142.381 164.427 128.124 160.497C121.002 158.534 115.179 156.181 111.118 153.535C107.09 150.91 104.597 147.861 104.597 144.46V97.8121H262.8V144.46Z" fill="#333742"/>
<path d="M183.709 120.211C226.945 120.211 261.994 110.551 261.994 98.6336C261.994 86.7165 226.945 77.0557 183.709 77.0557C140.474 77.0557 105.424 86.7165 105.424 98.6336C105.424 110.551 140.474 120.211 183.709 120.211Z" fill="#A8B3C5"/>
<path d="M261.178 98.6336C261.178 96.077 259.289 93.4503 255.394 90.9121C251.533 88.3958 245.891 86.0982 238.847 84.1566C224.769 80.2765 205.275 77.8666 183.709 77.8666C162.144 77.8666 142.649 80.2764 128.572 84.1566C121.527 86.0982 115.886 88.3958 112.024 90.9121C108.129 93.4503 106.24 96.077 106.24 98.6336C106.24 101.19 108.129 103.817 112.024 106.355C115.886 108.871 121.527 111.169 128.572 113.111C142.649 116.991 162.144 119.401 183.709 119.401C205.275 119.401 224.769 116.991 238.847 113.111C245.891 111.169 251.533 108.871 255.394 106.355C259.289 103.817 261.178 101.19 261.178 98.6336ZM262.811 98.6336C262.811 102.036 260.318 105.086 256.29 107.711C252.229 110.357 246.406 112.71 239.283 114.673C225.027 118.603 205.379 121.022 183.709 121.022C162.039 121.022 142.391 118.603 128.135 114.673C121.013 112.71 115.189 110.357 111.128 107.711C107.1 105.086 104.608 102.035 104.608 98.6336C104.608 95.2317 107.1 92.1814 111.128 89.5566C115.189 86.9099 121.013 84.5572 128.135 82.5941C142.391 78.6647 162.039 76.245 183.709 76.245C205.379 76.245 225.027 78.6647 239.283 82.5941C246.406 84.5572 252.229 86.9099 256.29 89.5566C260.318 92.1815 262.811 95.2317 262.811 98.6336Z" fill="#333742"/>
<path d="M247.147 140.233C249.336 140.233 251.11 136.399 251.11 131.671C251.11 126.942 249.336 123.109 247.147 123.109C244.959 123.109 243.185 126.942 243.185 131.671C243.185 136.399 244.959 140.233 247.147 140.233Z" fill="#DAE1EA"/>
<path d="M250.293 131.671C250.293 129.396 249.865 127.376 249.207 125.955C248.517 124.464 247.729 123.919 247.147 123.919C246.565 123.92 245.778 124.464 245.088 125.955C244.43 127.376 244.002 129.396 244.002 131.671C244.002 133.945 244.43 135.965 245.088 137.386C245.778 138.877 246.565 139.421 247.147 139.422C247.729 139.422 248.517 138.877 249.207 137.386C249.865 135.965 250.293 133.945 250.293 131.671ZM251.926 131.671C251.926 134.124 251.467 136.385 250.691 138.063C249.947 139.671 248.753 141.043 247.147 141.043C245.541 141.043 244.348 139.671 243.604 138.063C242.828 136.385 242.369 134.124 242.369 131.671C242.369 129.217 242.828 126.956 243.604 125.278C244.348 123.67 245.541 122.298 247.147 122.298C248.753 122.298 249.947 123.67 250.691 125.278C251.467 126.956 251.926 129.217 251.926 131.671Z" fill="#333742"/>
<path d="M178.604 102.979H105.642C101.584 102.979 98.2947 106.246 98.2947 110.277V227.657C98.2947 231.687 101.584 234.955 105.642 234.955H178.604C182.662 234.955 185.952 231.687 185.952 227.657V110.277C185.952 106.246 182.662 102.979 178.604 102.979Z" fill="#0C1C41"/>
<path d="M171.279 102.979H98.3164C94.2585 102.979 90.969 106.246 90.969 110.277V227.657C90.969 231.687 94.2585 234.955 98.3164 234.955H171.279C175.337 234.955 178.626 231.687 178.626 227.657V110.277C178.626 106.246 175.337 102.979 171.279 102.979Z" fill="#0066E4"/>
<path d="M177.81 110.277C177.81 106.694 174.886 103.79 171.279 103.79H98.3164C94.7094 103.79 91.7853 106.694 91.7853 110.277V227.657C91.7854 231.24 94.7094 234.144 98.3164 234.144H171.279C174.886 234.144 177.81 231.24 177.81 227.657V110.277ZM179.443 227.657C179.443 232.135 175.788 235.765 171.279 235.765H98.3164C93.8077 235.765 90.1526 232.135 90.1526 227.657V110.277C90.1526 105.799 93.8076 102.169 98.3164 102.169H171.279C175.788 102.169 179.443 105.799 179.443 110.277V227.657Z" fill="#0C1C41"/>
<path d="M112.26 121.238H104.053C103.722 121.238 103.454 121.505 103.454 121.833V123.584C103.454 123.913 103.722 124.179 104.053 124.179H112.26C112.591 124.179 112.859 123.913 112.859 123.584V121.833C112.859 121.505 112.591 121.238 112.26 121.238Z" fill="#00F2CD"/>
<path d="M138.276 121.238H116.44C115.917 121.238 115.493 121.66 115.493 122.179V123.238C115.493 123.758 115.917 124.179 116.44 124.179H138.276C138.799 124.179 139.223 123.758 139.223 123.238V122.179C139.223 121.66 138.799 121.238 138.276 121.238Z" fill="#F4F6F9"/>
<path d="M164.911 121.238H143.075C142.552 121.238 142.128 121.66 142.128 122.179V123.238C142.128 123.758 142.552 124.179 143.075 124.179H164.911C165.434 124.179 165.858 123.758 165.858 123.238V122.179C165.858 121.66 165.434 121.238 164.911 121.238Z" fill="#F4F6F9"/>
<path d="M112.26 130.352H104.053C103.722 130.352 103.454 130.618 103.454 130.946V132.698C103.454 133.026 103.722 133.292 104.053 133.292H112.26C112.591 133.292 112.859 133.026 112.859 132.698V130.946C112.859 130.618 112.591 130.352 112.26 130.352Z" fill="#00F2CD"/>
<path d="M126.683 130.352H116.168C115.796 130.352 115.493 130.652 115.493 131.022V132.622C115.493 132.992 115.796 133.292 116.168 133.292H126.683C127.056 133.292 127.358 132.992 127.358 132.622V131.022C127.358 130.652 127.056 130.352 126.683 130.352Z" fill="#F4F6F9"/>
<path d="M146.2 130.352H130.047C129.596 130.352 129.23 130.715 129.23 131.163V132.482C129.23 132.929 129.596 133.292 130.047 133.292H146.2C146.651 133.292 147.017 132.929 147.017 132.482V131.163C147.017 130.715 146.651 130.352 146.2 130.352Z" fill="#F4F6F9"/>
<path d="M165.042 130.352H149.357C148.912 130.352 148.551 130.71 148.551 131.152V132.492C148.551 132.934 148.912 133.292 149.357 133.292H165.042C165.487 133.292 165.848 132.934 165.848 132.492V131.152C165.848 130.71 165.487 130.352 165.042 130.352Z" fill="#FF3A99"/>
<path d="M112.26 139.454H104.053C103.722 139.454 103.454 139.72 103.454 140.049V141.8C103.454 142.129 103.722 142.395 104.053 142.395H112.26C112.591 142.395 112.859 142.129 112.859 141.8V140.049C112.859 139.72 112.591 139.454 112.26 139.454Z" fill="#00F2CD"/>
<path d="M138.276 139.454H116.44C115.917 139.454 115.493 139.875 115.493 140.395V141.454C115.493 141.974 115.917 142.395 116.44 142.395H138.276C138.799 142.395 139.223 141.974 139.223 141.454V140.395C139.223 139.875 138.799 139.454 138.276 139.454Z" fill="#F4F6F9"/>
<path d="M164.911 139.454H143.075C142.552 139.454 142.128 139.875 142.128 140.395V141.454C142.128 141.974 142.552 142.395 143.075 142.395H164.911C165.434 142.395 165.858 141.974 165.858 141.454V140.395C165.858 139.875 165.434 139.454 164.911 139.454Z" fill="#F4F6F9"/>
<path d="M112.26 148.568H104.053C103.722 148.568 103.454 148.834 103.454 149.162V150.913C103.454 151.242 103.722 151.508 104.053 151.508H112.26C112.591 151.508 112.859 151.242 112.859 150.913V149.162C112.859 148.834 112.591 148.568 112.26 148.568Z" fill="#00F2CD"/>
<path d="M130.177 148.568H116.255C115.835 148.568 115.493 148.906 115.493 149.324V150.751C115.493 151.169 115.835 151.508 116.255 151.508H130.177C130.598 151.508 130.939 151.169 130.939 150.751V149.324C130.939 148.906 130.598 148.568 130.177 148.568Z" fill="#FF3A99"/>
<path d="M165.303 148.568H158.359C158.052 148.568 157.804 148.814 157.804 149.119V150.957C157.804 151.261 158.052 151.508 158.359 151.508H165.303C165.61 151.508 165.859 151.261 165.859 150.957V149.119C165.859 148.814 165.61 148.568 165.303 148.568Z" fill="#F4F6F9"/>
<path d="M154.941 148.568H133.639C133.122 148.568 132.703 148.984 132.703 149.497V150.578C132.703 151.092 133.122 151.508 133.639 151.508H154.941C155.458 151.508 155.877 151.092 155.877 150.578V149.497C155.877 148.984 155.458 148.568 154.941 148.568Z" fill="#F4F6F9"/>
<path d="M135.947 180.307C138.592 180.307 140.736 178.178 140.736 175.551C140.736 172.924 138.592 170.794 135.947 170.794C133.302 170.794 131.157 172.924 131.157 175.551C131.157 178.178 133.302 180.307 135.947 180.307Z" fill="white"/>
<path d="M148.486 186.415C151.131 186.415 153.276 184.286 153.276 181.659C153.276 179.032 151.131 176.902 148.486 176.902C145.841 176.902 143.697 179.032 143.697 181.659C143.697 184.286 145.841 186.415 148.486 186.415Z" fill="white"/>
<path d="M153.003 199.539C155.648 199.539 157.793 197.41 157.793 194.783C157.793 192.155 155.648 190.026 153.003 190.026C150.358 190.026 148.214 192.155 148.214 194.783C148.214 197.41 150.358 199.539 153.003 199.539Z" fill="#DAE1EA"/>
<path d="M146.864 211.993C149.509 211.993 151.654 209.863 151.654 207.236C151.654 204.609 149.509 202.48 146.864 202.48C144.219 202.48 142.075 204.609 142.075 207.236C142.075 209.863 144.219 211.993 146.864 211.993Z" fill="#063489"/>
<path d="M133.65 216.49C136.295 216.49 138.44 214.36 138.44 211.733C138.44 209.106 136.295 206.977 133.65 206.977C131.005 206.977 128.861 209.106 128.861 211.733C128.861 214.36 131.005 216.49 133.65 216.49Z" fill="#063489"/>
<path d="M121.099 210.382C123.745 210.382 125.889 208.252 125.889 205.625C125.889 202.998 123.745 200.869 121.099 200.869C118.454 200.869 116.31 202.998 116.31 205.625C116.31 208.252 118.454 210.382 121.099 210.382Z" fill="#063489"/>
<path d="M116.582 197.258C119.227 197.258 121.371 195.129 121.371 192.502C121.371 189.875 119.227 187.745 116.582 187.745C113.937 187.745 111.792 189.875 111.792 192.502C111.792 195.129 113.937 197.258 116.582 197.258Z" fill="#063489"/>
<path d="M122.732 184.804C125.377 184.804 127.522 182.675 127.522 180.048C127.522 177.421 125.377 175.291 122.732 175.291C120.087 175.291 117.943 177.421 117.943 180.048C117.943 182.675 120.087 184.804 122.732 184.804Z" fill="#063489"/>
</svg>
