<svg width="345" height="345" viewBox="0 0 345 345" fill="none" xmlns="http://www.w3.org/2000/svg">
<g clip-path="url(#clip0_3602_15509)">
<path d="M179.469 84.8846C230.858 84.8846 272.584 94.3029 272.584 105.837V259.892C272.584 271.448 230.88 280.867 179.469 280.867C128.058 280.867 86.3988 271.448 86.3988 259.892V105.814C86.3988 94.2807 128.102 84.8623 179.469 84.8623V84.8846Z" fill="#1D3280" stroke="#1D3280" stroke-width="2.22656" stroke-miterlimit="10"/>
<path d="M179.469 78.1826C230.836 78.1826 272.539 87.5119 272.539 99.09C272.539 110.69 230.88 120.064 179.469 120.064C128.058 120.064 86.3988 110.69 86.3988 99.09C86.3988 87.5564 128.125 78.1826 179.469 78.1826Z" fill="#2C62D4" stroke="#1D3280" stroke-width="2.22656" stroke-miterlimit="10"/>
<path d="M179.469 120.087C230.836 120.087 272.539 110.713 272.539 99.1123V150.702C272.539 162.302 230.88 171.676 179.469 171.676C128.058 171.676 86.3988 162.302 86.3988 150.702V99.1123C86.3988 110.713 128.125 120.087 179.469 120.087Z" fill="white" stroke="#1D3280" stroke-width="2.22656" stroke-miterlimit="10"/>
<path d="M179.469 171.676C230.836 171.676 272.539 162.303 272.539 150.702V202.292C272.539 213.892 230.88 223.266 179.469 223.266C128.058 223.266 86.3988 213.892 86.3988 202.292V150.702C86.3988 162.303 128.125 171.676 179.469 171.676Z" fill="white" stroke="#1D3280" stroke-width="2.22656" stroke-miterlimit="10"/>
<path d="M179.469 222.508C230.836 222.508 272.539 213.135 272.539 201.534V253.124C272.539 264.724 230.88 274.098 179.469 274.098C128.058 274.098 86.3988 264.724 86.3988 253.124V201.534C86.3988 213.135 128.125 222.508 179.469 222.508Z" fill="white" stroke="#1D3280" stroke-width="2.22656" stroke-miterlimit="10"/>
<path d="M259.559 136.095C259.559 133.112 257.154 130.707 254.17 130.707C251.187 130.707 248.782 133.112 248.782 136.095C248.782 139.079 251.187 141.484 254.17 141.484C257.154 141.484 259.559 139.079 259.559 136.095Z" fill="#2C62D4"/>
<path d="M238.139 140.259C238.139 137.276 235.734 134.871 232.751 134.871C229.767 134.871 227.362 137.276 227.362 140.259C227.362 143.243 229.767 145.648 232.751 145.648C235.734 145.648 238.139 143.243 238.139 140.259Z" fill="#2C62D4"/>
<path d="M259.559 239.007C259.559 236.024 257.154 233.619 254.17 233.619C251.187 233.619 248.782 236.024 248.782 239.007C248.782 241.991 251.187 244.396 254.17 244.396C257.154 244.396 259.559 241.991 259.559 239.007Z" fill="#2C62D4"/>
<path d="M238.139 243.215C238.139 240.232 235.734 237.827 232.751 237.827C229.767 237.827 227.362 240.232 227.362 243.215C227.362 246.199 229.767 248.604 232.751 248.604C235.734 248.604 238.139 246.199 238.139 243.215Z" fill="#2C62D4"/>
<path d="M157.114 188.22C167.624 189.534 179.291 190.268 191.559 190.268C209.082 190.268 225.359 188.777 238.829 186.238" stroke="#1D3280" stroke-width="2.22656" stroke-linecap="round" stroke-linejoin="round"/>
<path d="M213.335 214.203C206.21 214.203 200.399 208.414 200.399 201.267V194.164L226.249 191.737V201.267C226.249 208.392 220.46 214.203 213.335 214.203Z" fill="white"/>
<path d="M225.136 192.962V201.267C225.136 207.791 219.837 213.09 213.335 213.09C206.834 213.09 201.512 207.791 201.512 201.267V195.188L225.136 192.962ZM227.363 190.513L199.286 193.162V201.267C199.286 209.015 205.565 215.317 213.335 215.317C221.106 215.317 227.363 209.038 227.363 201.267V190.513Z" fill="#1D3280"/>
<path d="M227.363 188.353V191.136C219.659 193.073 206.544 193.652 199.286 193.808V191.002L227.363 188.353Z" fill="#1D3280"/>
<path d="M213.936 214.181H177.911C172.478 214.181 168.069 209.772 168.069 204.339V172.143H176.196V160.164C176.196 151.681 183.076 144.823 191.537 144.823C199.998 144.823 206.9 151.703 206.9 160.164V190.668H206.789V202.38C206.789 206.788 208.993 210.908 212.667 213.335L213.914 214.158L213.936 214.181Z" fill="#F4F6F9" stroke="#1D3280" stroke-width="2.22656" stroke-linecap="round" stroke-linejoin="round"/>
<path d="M100.938 276.257V164.506C100.938 163.437 101.027 162.369 101.206 161.344C102.742 152.416 110.446 145.937 119.508 145.937H187.863C180.538 151.058 176.174 159.407 176.174 168.38V260.76C176.174 269.288 169.227 276.257 160.677 276.257H100.938Z" fill="white"/>
<path d="M184.657 147.05C178.601 152.416 175.061 160.142 175.061 168.38V260.76C175.061 268.687 168.604 275.144 160.677 275.144H102.052V164.506C102.052 163.482 102.141 162.502 102.319 161.522C103.766 153.128 111.002 147.028 119.53 147.028H184.679M191.559 144.823H119.53C109.8 144.823 101.718 151.881 100.137 161.166C99.9364 162.257 99.8473 163.371 99.8473 164.528V277.393H160.699C169.873 277.393 177.309 269.978 177.309 260.783V168.403C177.309 159.585 181.718 151.347 189.066 146.493L191.559 144.846V144.823Z" fill="#1D3280"/>
<path d="M143.867 152.84C143.867 162.815 121.133 159.809 121.133 169.762C121.133 179.714 156.692 179.714 156.692 189.689C156.692 199.664 121.133 199.664 121.133 209.617C121.133 219.57 143.867 219.592 143.867 229.545C143.867 239.498 121.133 239.52 121.133 249.473C121.133 259.425 143.51 255.707 143.51 265.682" stroke="#0B64DD" stroke-width="2.22656" stroke-miterlimit="10"/>
<path d="M161.968 277.393H96.1511C87.8683 277.393 81.1664 270.691 81.1664 262.43V258.489H147.941V262.074C147.941 265.948 149.522 269.444 152.06 271.982C154.465 274.387 157.76 275.945 161.412 276.079L161.968 277.393Z" fill="#F4F6F9" stroke="#1D3280" stroke-width="2.22656" stroke-linecap="round" stroke-linejoin="round"/>
<path d="M163.683 64.623H59.9917C56.2734 64.623 53.2452 67.6512 53.2452 71.3695V145.403C53.2452 149.121 56.2734 152.149 59.9917 152.149H163.683C167.401 152.149 170.429 149.121 170.429 145.403V71.3695C170.429 67.6512 167.401 64.623 163.683 64.623Z" fill="#1D3280" stroke="#1D3280" stroke-width="2.22656" stroke-miterlimit="10"/>
<path d="M169.271 64.623H65.5805C61.8621 64.623 58.834 67.6512 58.834 71.3695V145.403C58.834 149.121 61.8621 152.149 65.5805 152.149H169.271C172.99 152.149 176.018 149.121 176.018 145.403V71.3695C176.018 67.6512 172.99 64.623 169.271 64.623Z" fill="white" stroke="#1D3280" stroke-width="2.22656" stroke-miterlimit="10"/>
<path d="M100.604 139.725H114.119V118.906H100.604V139.725Z" fill="#48EFCF" stroke="#1D3280" stroke-width="2.22656" stroke-miterlimit="10"/>
<path d="M79.8751 139.748H93.3904V87.3789H79.8751V139.748Z" fill="#48EFCF" stroke="#1D3280" stroke-width="2.22656" stroke-miterlimit="10"/>
<path d="M121.356 139.747H134.871V102.63H121.356V139.747Z" fill="#48EFCF" stroke="#1D3280" stroke-width="2.22656" stroke-miterlimit="10"/>
<path d="M142.107 139.747H155.623V91.0078H142.107V139.747Z" fill="#48EFCF" stroke="#1D3280" stroke-width="2.22656" stroke-miterlimit="10"/>
<path d="M74.3533 139.747H160.477" stroke="#1D3280" stroke-width="2.22656" stroke-miterlimit="10"/>
</g>
<defs>
<clipPath id="clip0_3602_15509">
<rect width="285" height="285" fill="white" transform="translate(30 30)"/>
</clipPath>
</defs>
</svg>
