<svg width="345" height="345" viewBox="0 0 345 345" fill="none" xmlns="http://www.w3.org/2000/svg">
<g clip-path="url(#clip0_3602_15453)">
<path d="M189.397 137.6C191.764 138.751 302.486 137.6 302.486 137.6Z" fill="#F4F6F9"/>
<path d="M189.397 137.6C191.764 138.751 302.486 137.6 302.486 137.6" stroke="#0C1C41" stroke-width="2.17188" stroke-linecap="round" stroke-linejoin="round"/>
<path d="M189.397 185.272C191.764 186.424 302.486 185.272 302.486 185.272Z" fill="#F4F6F9"/>
<path d="M189.397 185.272C191.764 186.424 302.486 185.272 302.486 185.272" stroke="#0C1C41" stroke-width="2.17188" stroke-linecap="round" stroke-linejoin="round"/>
<path d="M189.397 232.424C191.764 233.575 302.486 232.424 302.486 232.424Z" fill="#F4F6F9"/>
<path d="M189.397 232.424C191.764 233.575 302.486 232.424 302.486 232.424" stroke="#0C1C41" stroke-width="2.17188" stroke-linecap="round" stroke-linejoin="round"/>
<path d="M256.073 137.393C256.073 133.824 253.18 130.932 249.612 130.932C246.043 130.932 243.151 133.824 243.151 137.393C243.151 140.961 246.043 143.854 249.612 143.854C253.18 143.854 256.073 140.961 256.073 137.393Z" fill="#48EFCF" stroke="#0C1C41" stroke-width="2.17188" stroke-linecap="round" stroke-linejoin="round"/>
<path d="M256.073 232.673C256.073 229.105 253.18 226.212 249.612 226.212C246.043 226.212 243.151 229.105 243.151 232.673C243.151 236.242 246.043 239.135 249.612 239.135C253.18 239.135 256.073 236.242 256.073 232.673Z" fill="#48EFCF" stroke="#0C1C41" stroke-width="2.17188" stroke-linecap="round" stroke-linejoin="round"/>
<path d="M281.093 184.653C281.093 181.084 278.2 178.191 274.632 178.191C271.063 178.191 268.171 181.084 268.171 184.653C268.171 188.221 271.063 191.114 274.632 191.114C278.2 191.114 281.093 188.221 281.093 184.653Z" fill="#48EFCF" stroke="#0C1C41" stroke-width="2.17188" stroke-linecap="round" stroke-linejoin="round"/>
<path d="M139.813 92.6846C189.94 92.6846 230.641 101.872 230.641 113.122V263.394C230.641 274.666 189.961 283.853 139.813 283.853C89.6642 283.853 49.0284 274.666 49.0284 263.394V113.122C49.0284 101.872 89.7077 92.6846 139.813 92.6846Z" fill="#131C3D" stroke="#131C3D" stroke-width="2.17188" stroke-miterlimit="10"/>
<path d="M139.813 86.1689C189.918 86.1689 230.597 95.2691 230.597 106.563C230.597 117.878 189.961 127.022 139.813 127.022C89.6642 127.022 49.0284 117.878 49.0284 106.563C49.0284 95.3125 89.7294 86.1689 139.813 86.1689Z" fill="#2C62D4" stroke="#131C3D" stroke-width="2.17188" stroke-miterlimit="10"/>
<path d="M139.813 127.022C189.918 127.022 230.597 117.878 230.597 106.562V156.885C230.597 168.2 189.961 177.344 139.813 177.344C89.6642 177.344 49.0284 168.2 49.0284 156.885V106.562C49.0284 117.878 89.7294 127.022 139.813 127.022Z" fill="white" stroke="#131C3D" stroke-width="2.17188" stroke-miterlimit="10"/>
<path d="M139.813 177.344C189.918 177.344 230.597 168.2 230.597 156.885V207.207C230.597 218.523 189.961 227.666 139.813 227.666C89.6642 227.666 49.0284 218.523 49.0284 207.207V156.885C49.0284 168.2 89.7294 177.344 139.813 177.344Z" fill="white" stroke="#131C3D" stroke-width="2.17188" stroke-miterlimit="10"/>
<path d="M139.813 226.95C189.918 226.95 230.597 217.807 230.597 206.491V256.814C230.597 268.129 189.961 277.273 139.813 277.273C89.6642 277.273 49.0284 268.129 49.0284 256.814V206.491C49.0284 217.807 89.7294 226.95 139.813 226.95Z" fill="white" stroke="#131C3D" stroke-width="2.17188" stroke-miterlimit="10"/>
<path d="M217.935 142.638C217.935 139.727 215.59 137.382 212.679 137.382C209.769 137.382 207.423 139.727 207.423 142.638C207.423 145.548 209.769 147.894 212.679 147.894C215.59 147.894 217.935 145.548 217.935 142.638Z" fill="#2C62D4"/>
<path d="M197.042 146.699C197.042 143.789 194.696 141.443 191.786 141.443C188.875 141.443 186.53 143.789 186.53 146.699C186.53 149.61 188.875 151.955 191.786 151.955C194.696 151.955 197.042 149.61 197.042 146.699Z" fill="#2C62D4"/>
<path d="M217.935 193.395C217.935 190.484 215.59 188.139 212.679 188.139C209.769 188.139 207.423 190.484 207.423 193.395C207.423 196.305 209.769 198.651 212.679 198.651C215.59 198.651 217.935 196.305 217.935 193.395Z" fill="#2C62D4"/>
<path d="M197.042 197.478C197.042 194.567 194.696 192.222 191.786 192.222C188.875 192.222 186.53 194.567 186.53 197.478C186.53 200.388 188.875 202.734 191.786 202.734C194.696 202.734 197.042 200.388 197.042 197.478Z" fill="#2C62D4"/>
<path d="M217.935 243.022C217.935 240.111 215.59 237.766 212.679 237.766C209.769 237.766 207.423 240.111 207.423 243.022C207.423 245.932 209.769 248.278 212.679 248.278C215.59 248.278 217.935 245.932 217.935 243.022Z" fill="#2C62D4"/>
<path d="M197.042 247.127C197.042 244.217 194.696 241.871 191.786 241.871C188.875 241.871 186.53 244.217 186.53 247.127C186.53 250.037 188.875 252.383 191.786 252.383C194.696 252.383 197.042 250.037 197.042 247.127Z" fill="#2C62D4"/>
<path d="M139.335 94.0098H58.3676C53.8695 94.0098 50.223 97.6562 50.223 102.154V233.292C50.223 237.79 53.8695 241.437 58.3676 241.437H139.335C143.833 241.437 147.48 237.79 147.48 233.292V102.154C147.48 97.6562 143.833 94.0098 139.335 94.0098Z" fill="#0C1C41"/>
<path d="M131.191 94.0098H50.223C45.7249 94.0098 42.0785 97.6562 42.0785 102.154V233.292C42.0785 237.79 45.7249 241.437 50.223 241.437H131.191C135.689 241.437 139.335 237.79 139.335 233.292V102.154C139.335 97.6562 135.689 94.0098 131.191 94.0098Z" fill="#F5F7FA" stroke="#131C3D" stroke-width="2.17188" stroke-miterlimit="10"/>
<path d="M91.923 163.661H91.9013C75.5882 163.661 62.3638 176.886 62.3638 193.199V194.567C62.3638 210.88 75.5882 224.104 91.9013 224.104H91.923C108.236 224.104 121.46 210.88 121.46 194.567V193.199C121.46 176.886 108.236 163.661 91.923 163.661Z" fill="#0C1C41"/>
<path d="M85.9721 165.203H85.9504C70.1171 165.203 57.2816 178.039 57.2816 193.872V193.894C57.2816 209.727 70.1171 222.562 85.9504 222.562H85.9721C101.805 222.562 114.641 209.727 114.641 193.894V193.872C114.641 178.039 101.805 165.203 85.9721 165.203Z" fill="#48EFCF" stroke="#0C1C41" stroke-width="2.17188" stroke-linecap="round" stroke-linejoin="round"/>
<path d="M71.7029 195.675L82.1062 203.233L99.2205 181.102" stroke="#0C1C41" stroke-width="2.17188" stroke-linecap="round" stroke-linejoin="round"/>
<path d="M86.2976 116.314H59.2144" stroke="#131C3D" stroke-width="2.17188" stroke-miterlimit="10"/>
<path d="M124.197 116.314H78.8264" stroke="#131C3D" stroke-width="2.17188" stroke-miterlimit="10"/>
<path d="M101.501 129.649H78.8264" stroke="#131C3D" stroke-width="2.17188" stroke-miterlimit="10"/>
<path d="M71.7026 129.649H59.2144" stroke="#131C3D" stroke-width="2.17188" stroke-miterlimit="10"/>
<path d="M123.198 142.963H78.8264" stroke="#131C3D" stroke-width="2.17188" stroke-miterlimit="10"/>
<path d="M71.7026 142.963H59.2144" stroke="#131C3D" stroke-width="2.17188" stroke-miterlimit="10"/>
</g>
<defs>
<clipPath id="clip0_3602_15453">
<rect width="278" height="278" fill="white" transform="translate(33 34)"/>
</clipPath>
</defs>
</svg>
