<svg width="345" height="345" viewBox="0 0 345 345" fill="none" xmlns="http://www.w3.org/2000/svg">
<path d="M142.719 128.78C142.72 128.78 142.721 128.78 142.729 129.601C142.737 130.38 142.737 130.42 142.736 130.422H142.717C142.704 130.422 142.685 130.423 142.659 130.423C142.608 130.424 142.531 130.424 142.43 130.425C142.227 130.427 141.927 130.43 141.535 130.434C140.751 130.441 139.601 130.451 138.137 130.465C135.208 130.491 131.02 130.528 125.99 130.57C115.929 130.652 102.491 130.751 88.9858 130.816C75.4815 130.882 61.9071 130.915 51.5735 130.866C46.4075 130.841 42.0472 130.795 38.9091 130.723C37.3412 130.687 36.071 130.645 35.156 130.594C34.6999 130.569 34.3216 130.541 34.035 130.51C33.8926 130.494 33.7619 130.477 33.6503 130.456C33.5636 130.44 33.4048 130.409 33.2602 130.339L33.9846 128.863C33.9072 128.826 33.8669 128.826 33.9482 128.841C34.0044 128.851 34.0912 128.864 34.214 128.877C34.4582 128.904 34.8031 128.93 35.2482 128.954C36.1361 129.004 37.3846 129.046 38.9467 129.082C42.0694 129.153 46.4187 129.199 51.5821 129.224C61.9075 129.273 75.4753 129.24 88.9783 129.175C102.481 129.109 115.917 129.01 125.977 128.928C131.007 128.887 135.193 128.85 138.122 128.823C139.585 128.809 140.735 128.799 141.519 128.792C141.911 128.788 142.211 128.785 142.414 128.783C142.515 128.782 142.592 128.782 142.643 128.781C142.669 128.781 142.688 128.78 142.701 128.78H142.719Z" fill="#00F2CD"/>
<path d="M142.719 147.159C142.72 147.159 142.721 147.159 142.729 147.98C142.737 148.758 142.737 148.798 142.736 148.801H142.717C142.704 148.801 142.685 148.801 142.659 148.802C142.608 148.802 142.531 148.803 142.43 148.804C142.227 148.806 141.927 148.809 141.535 148.812C140.751 148.82 139.601 148.83 138.137 148.843C135.208 148.87 131.02 148.907 125.99 148.948C115.929 149.03 102.491 149.129 88.9858 149.195C75.4815 149.261 61.9071 149.293 51.5735 149.244C46.4075 149.22 42.0472 149.174 38.9091 149.102C37.3412 149.066 36.071 149.023 35.156 148.973C34.6999 148.947 34.3216 148.919 34.035 148.888C33.8926 148.873 33.7619 148.855 33.6503 148.835C33.5636 148.819 33.4048 148.788 33.2602 148.717L33.9846 147.242C33.9072 147.204 33.8669 147.205 33.9482 147.22C34.0044 147.23 34.0912 147.243 34.214 147.256C34.4582 147.282 34.8031 147.308 35.2482 147.333C36.1361 147.382 37.3846 147.424 38.9467 147.46C42.0694 147.532 46.4187 147.578 51.5821 147.602C61.9075 147.651 75.4753 147.619 88.9783 147.553C102.481 147.487 115.917 147.388 125.977 147.306C131.007 147.265 135.193 147.228 138.122 147.201C139.585 147.188 140.735 147.178 141.519 147.17C141.911 147.167 142.211 147.164 142.414 147.162C142.515 147.161 142.592 147.16 142.643 147.16C142.669 147.159 142.688 147.159 142.701 147.159H142.719Z" fill="#00BEB7"/>
<path d="M142.719 165.548C142.72 165.548 142.721 165.548 142.729 166.369C142.737 167.148 142.737 167.188 142.736 167.19H142.717C142.704 167.19 142.685 167.191 142.659 167.191C142.608 167.191 142.531 167.192 142.43 167.193C142.227 167.195 141.927 167.198 141.535 167.202C140.751 167.209 139.601 167.219 138.137 167.233C135.208 167.259 131.02 167.296 125.99 167.337C115.929 167.42 102.491 167.519 88.9858 167.584C75.4815 167.65 61.9071 167.683 51.5735 167.634C46.4075 167.609 42.0472 167.563 38.9091 167.491C37.3412 167.455 36.071 167.413 35.156 167.362C34.6999 167.337 34.3216 167.309 34.035 167.278C33.8926 167.262 33.7619 167.245 33.6503 167.224C33.5636 167.208 33.4048 167.177 33.2602 167.107L33.9846 165.631C33.9072 165.594 33.8669 165.594 33.9482 165.609C34.0044 165.619 34.0912 165.632 34.214 165.645C34.4582 165.672 34.8031 165.698 35.2482 165.722C36.1361 165.772 37.3846 165.814 38.9467 165.849C42.0694 165.921 46.4187 165.967 51.5821 165.992C61.9075 166.041 75.4753 166.008 88.9783 165.942C102.481 165.877 115.917 165.778 125.977 165.696C131.007 165.654 135.193 165.617 138.122 165.591C139.585 165.577 140.735 165.567 141.519 165.56C141.911 165.556 142.211 165.553 142.414 165.551C142.515 165.55 142.592 165.55 142.643 165.549C142.669 165.549 142.688 165.548 142.701 165.548H142.719Z" fill="#0066E4"/>
<path d="M142.719 183.927C142.72 183.927 142.721 183.927 142.729 184.748C142.737 185.526 142.737 185.567 142.736 185.569H142.717C142.704 185.569 142.685 185.569 142.659 185.57C142.608 185.57 142.531 185.571 142.43 185.572C142.227 185.574 141.927 185.577 141.535 185.58C140.751 185.588 139.601 185.598 138.137 185.611C135.208 185.638 131.02 185.675 125.99 185.716C115.929 185.798 102.491 185.897 88.9858 185.963C75.4815 186.029 61.9071 186.062 51.5735 186.012C46.4075 185.988 42.0472 185.942 38.9091 185.87C37.3412 185.834 36.071 185.792 35.156 185.741C34.6999 185.715 34.3216 185.687 34.035 185.656C33.8926 185.641 33.7619 185.623 33.6503 185.603C33.5636 185.587 33.4048 185.556 33.2602 185.485L33.9846 184.01C33.9072 183.972 33.8669 183.973 33.9482 183.988C34.0044 183.998 34.0912 184.011 34.214 184.024C34.4582 184.051 34.8031 184.076 35.2482 184.101C36.1361 184.15 37.3846 184.192 38.9467 184.228C42.0694 184.3 46.4187 184.346 51.5821 184.37C61.9075 184.42 75.4753 184.387 88.9783 184.321C102.481 184.255 115.917 184.156 125.977 184.074C131.007 184.033 135.193 183.996 138.122 183.969C139.585 183.956 140.735 183.946 141.519 183.938C141.911 183.935 142.211 183.932 142.414 183.93C142.515 183.929 142.592 183.928 142.643 183.928C142.669 183.928 142.688 183.927 142.701 183.927H142.719Z" fill="#0066E4"/>
<path d="M142.719 202.316C142.72 202.316 142.721 202.316 142.729 203.137C142.737 203.916 142.737 203.956 142.736 203.958H142.717C142.704 203.958 142.685 203.959 142.659 203.959C142.608 203.96 142.531 203.96 142.43 203.961C142.227 203.963 141.927 203.966 141.535 203.97C140.751 203.977 139.601 203.987 138.137 204.001C135.208 204.027 131.02 204.064 125.99 204.106C115.929 204.188 102.491 204.287 88.9858 204.352C75.4815 204.418 61.9071 204.451 51.5735 204.402C46.4075 204.377 42.0472 204.331 38.9091 204.259C37.3412 204.223 36.071 204.181 35.156 204.13C34.6999 204.105 34.3216 204.077 34.035 204.046C33.8926 204.03 33.7619 204.013 33.6503 203.992C33.5636 203.976 33.4048 203.945 33.2602 203.875L33.9846 202.399C33.9072 202.362 33.8669 202.362 33.9482 202.377C34.0044 202.387 34.0912 202.4 34.214 202.413C34.4582 202.44 34.8031 202.466 35.2482 202.49C36.1361 202.54 37.3846 202.582 38.9467 202.618C42.0694 202.689 46.4187 202.735 51.5821 202.76C61.9075 202.809 75.4753 202.776 88.9783 202.711C102.481 202.645 115.917 202.546 125.977 202.464C131.007 202.423 135.193 202.386 138.122 202.359C139.585 202.346 140.735 202.335 141.519 202.328C141.911 202.324 142.211 202.321 142.414 202.319C142.515 202.318 142.592 202.318 142.643 202.317C142.669 202.317 142.688 202.316 142.701 202.316H142.719Z" fill="#0066E4"/>
<path d="M311.164 128.78C311.165 128.78 311.165 128.78 311.173 129.601C311.182 130.422 311.181 130.422 311.18 130.422H311.162C311.149 130.422 311.129 130.423 311.104 130.423C311.052 130.424 310.976 130.424 310.874 130.425C310.672 130.427 310.371 130.43 309.98 130.434C309.196 130.441 308.046 130.451 306.581 130.465C303.652 130.491 299.465 130.528 294.434 130.57C284.373 130.652 270.935 130.751 257.43 130.816C243.926 130.882 230.352 130.915 220.018 130.866C214.852 130.841 210.492 130.795 207.354 130.723C205.786 130.687 204.516 130.645 203.601 130.594C203.145 130.569 202.766 130.541 202.48 130.51C202.337 130.494 202.207 130.477 202.095 130.456C202.008 130.44 201.849 130.409 201.705 130.339L202.429 128.863C202.352 128.826 202.311 128.826 202.393 128.841C202.449 128.851 202.536 128.864 202.659 128.877C202.903 128.904 203.248 128.93 203.693 128.954C204.581 129.004 205.829 129.046 207.391 129.082C210.514 129.153 214.863 129.199 220.027 129.224C230.352 129.273 243.92 129.24 257.423 129.175C270.926 129.109 284.361 129.01 294.422 128.928C299.452 128.887 303.638 128.85 306.566 128.823C308.03 128.809 309.18 128.799 309.964 128.792C310.355 128.788 310.656 128.785 310.858 128.783C310.959 128.782 311.036 128.782 311.088 128.781C311.113 128.781 311.133 128.78 311.146 128.78H311.164Z" fill="#00F2CD"/>
<path d="M311.164 147.159C311.165 147.159 311.166 147.159 311.174 147.98C311.182 148.801 311.181 148.801 311.18 148.801H311.162C311.149 148.801 311.129 148.801 311.104 148.802C311.053 148.802 310.976 148.803 310.875 148.804C310.672 148.806 310.372 148.809 309.98 148.812C309.196 148.82 308.046 148.83 306.581 148.843C303.652 148.87 299.465 148.907 294.435 148.948C284.373 149.03 270.936 149.129 257.431 149.195C243.926 149.261 230.352 149.293 220.018 149.244C214.852 149.22 210.492 149.174 207.354 149.102C205.786 149.066 204.516 149.023 203.601 148.973C203.145 148.947 202.766 148.919 202.48 148.888C202.337 148.873 202.207 148.855 202.095 148.835C202.008 148.819 201.85 148.788 201.705 148.717L202.429 147.242C202.352 147.204 202.312 147.205 202.393 147.22C202.449 147.23 202.536 147.243 202.659 147.256C202.903 147.282 203.248 147.308 203.693 147.333C204.581 147.382 205.829 147.424 207.391 147.46C210.514 147.532 214.863 147.578 220.027 147.602C230.352 147.651 243.92 147.619 257.423 147.553C270.926 147.487 284.362 147.388 294.422 147.306C299.452 147.265 303.638 147.228 306.566 147.201C308.03 147.188 309.18 147.178 309.964 147.17C310.355 147.167 310.656 147.164 310.859 147.162C310.96 147.161 311.037 147.16 311.088 147.16C311.113 147.159 311.133 147.159 311.146 147.159H311.164Z" fill="#00BEB7"/>
<path d="M311.164 165.548C311.165 165.548 311.166 165.548 311.174 166.369C311.182 167.19 311.181 167.19 311.18 167.19H311.162C311.149 167.19 311.129 167.191 311.104 167.191C311.053 167.191 310.976 167.192 310.875 167.193C310.672 167.195 310.372 167.198 309.98 167.202C309.196 167.209 308.046 167.219 306.581 167.233C303.652 167.259 299.465 167.296 294.435 167.337C284.373 167.42 270.936 167.519 257.431 167.584C243.926 167.65 230.352 167.683 220.018 167.634C214.852 167.609 210.492 167.563 207.354 167.491C205.786 167.455 204.516 167.413 203.601 167.362C203.145 167.337 202.766 167.309 202.48 167.278C202.337 167.262 202.207 167.245 202.095 167.224C202.008 167.208 201.85 167.177 201.705 167.107L202.429 165.631C202.352 165.594 202.312 165.594 202.393 165.609C202.449 165.619 202.536 165.632 202.659 165.645C202.903 165.672 203.248 165.698 203.693 165.722C204.581 165.772 205.829 165.814 207.391 165.849C210.514 165.921 214.863 165.967 220.027 165.992C230.352 166.041 243.92 166.008 257.423 165.942C270.926 165.877 284.362 165.778 294.422 165.696C299.452 165.654 303.638 165.617 306.566 165.591C308.03 165.577 309.18 165.567 309.964 165.56C310.355 165.556 310.656 165.553 310.859 165.551C310.96 165.55 311.037 165.55 311.088 165.549C311.113 165.549 311.133 165.548 311.146 165.548H311.164Z" fill="#0066E4"/>
<path d="M311.164 183.927C311.165 183.927 311.166 183.927 311.174 184.748C311.182 185.569 311.181 185.569 311.18 185.569H311.162C311.149 185.569 311.129 185.569 311.104 185.57C311.053 185.57 310.976 185.571 310.875 185.572C310.672 185.574 310.372 185.577 309.98 185.58C309.196 185.588 308.046 185.598 306.581 185.611C303.652 185.638 299.465 185.675 294.435 185.716C284.373 185.798 270.936 185.897 257.431 185.963C243.926 186.029 230.352 186.062 220.018 186.012C214.852 185.988 210.492 185.942 207.354 185.87C205.786 185.834 204.516 185.792 203.601 185.741C203.145 185.715 202.766 185.687 202.48 185.656C202.337 185.641 202.207 185.623 202.095 185.603C202.008 185.587 201.85 185.556 201.705 185.485L202.429 184.01C202.352 183.972 202.312 183.973 202.393 183.988C202.449 183.998 202.536 184.011 202.659 184.024C202.903 184.051 203.248 184.076 203.693 184.101C204.581 184.15 205.829 184.192 207.391 184.228C210.514 184.3 214.863 184.346 220.027 184.37C230.352 184.42 243.92 184.387 257.423 184.321C270.926 184.255 284.362 184.156 294.422 184.074C299.452 184.033 303.638 183.996 306.566 183.969C308.03 183.956 309.18 183.946 309.964 183.938C310.355 183.935 310.656 183.932 310.859 183.93C310.96 183.929 311.037 183.928 311.088 183.928C311.113 183.928 311.133 183.927 311.146 183.927H311.164Z" fill="#0066E4"/>
<path d="M311.164 202.316C311.165 202.316 311.166 202.316 311.174 203.137C311.182 203.958 311.181 203.958 311.18 203.958H311.162C311.149 203.958 311.129 203.959 311.104 203.959C311.053 203.96 310.976 203.96 310.875 203.961C310.672 203.963 310.372 203.966 309.98 203.97C309.196 203.977 308.046 203.987 306.581 204.001C303.652 204.027 299.465 204.064 294.435 204.106C284.373 204.188 270.936 204.287 257.431 204.352C243.926 204.418 230.352 204.451 220.018 204.402C214.852 204.377 210.492 204.331 207.354 204.259C205.786 204.223 204.516 204.181 203.601 204.13C203.145 204.105 202.766 204.077 202.48 204.046C202.337 204.03 202.207 204.013 202.095 203.992C202.008 203.976 201.85 203.945 201.705 203.875L202.429 202.399C202.352 202.362 202.312 202.362 202.393 202.377C202.449 202.387 202.536 202.4 202.659 202.413C202.903 202.44 203.248 202.466 203.693 202.49C204.581 202.54 205.829 202.582 207.391 202.618C210.514 202.689 214.863 202.735 220.027 202.76C230.352 202.809 243.92 202.776 257.423 202.711C270.926 202.645 284.362 202.546 294.422 202.464C299.452 202.423 303.638 202.386 306.566 202.359C308.03 202.346 309.18 202.335 309.964 202.328C310.355 202.324 310.656 202.321 310.859 202.319C310.96 202.318 311.037 202.318 311.088 202.317C311.113 202.317 311.133 202.316 311.146 202.316H311.164Z" fill="#0066E4"/>
<path d="M233.97 200.86V245.542C233.97 257.156 199.95 266.581 157.984 266.581C116.019 266.581 81.9983 257.156 81.9983 245.542V200.86H233.97Z" fill="#00F2CD"/>
<path d="M233.148 201.681H82.8211V245.543C82.8213 248.018 84.6431 250.57 88.4208 253.043C92.1652 255.493 97.6378 257.733 104.474 259.626C118.135 263.409 137.054 265.76 157.984 265.76C178.914 265.76 197.833 263.409 211.494 259.626C218.33 257.733 223.803 255.493 227.547 253.043C231.325 250.57 233.148 248.018 233.148 245.543V201.681ZM234.794 245.543C234.794 248.874 232.362 251.856 228.45 254.416C224.505 256.999 218.849 259.294 211.934 261.208C198.093 265.041 179.02 267.402 157.984 267.402C136.949 267.402 117.874 265.041 104.033 261.208C97.1189 259.294 91.4632 256.999 87.5174 254.416C83.6054 251.856 81.1752 248.874 81.175 245.543V200.039H234.794V245.543Z" fill="#0C1C41"/>
<path d="M157.984 221.899C199.95 221.899 233.97 212.484 233.97 200.871C233.97 189.258 199.95 179.844 157.984 179.844C116.018 179.844 81.9983 189.258 81.9983 200.871C81.9983 212.484 116.018 221.899 157.984 221.899Z" fill="url(#paint0_linear_919_16612)"/>
<path d="M233.147 200.871C233.147 198.396 231.325 195.844 227.547 193.372C223.803 190.923 218.33 188.686 211.495 186.794C197.834 183.014 178.915 180.665 157.984 180.665C137.054 180.665 118.134 183.014 104.474 186.794C97.6377 188.686 92.165 190.923 88.4206 193.372C84.6426 195.844 82.821 198.396 82.821 200.871C82.821 203.346 84.6426 205.898 88.4206 208.37C92.165 210.82 97.6377 213.058 104.474 214.949C118.134 218.73 137.054 221.078 157.984 221.078C178.915 221.078 197.834 218.73 211.495 214.949C218.33 213.058 223.802 210.82 227.547 208.37C231.325 205.898 233.147 203.346 233.147 200.871ZM234.794 200.871C234.794 204.203 232.362 207.183 228.45 209.743C224.504 212.324 218.849 214.618 211.934 216.531C198.093 220.362 179.019 222.72 157.984 222.72C136.949 222.72 117.874 220.362 104.033 216.531C97.1189 214.618 91.4641 212.324 87.5183 209.743C83.6061 207.183 81.1748 204.203 81.1748 200.871C81.1748 197.54 83.6061 194.559 87.5183 192C91.4641 189.418 97.1189 187.124 104.033 185.211C117.874 181.381 136.949 179.023 157.984 179.023C179.019 179.023 198.093 181.381 211.934 185.211C218.849 187.124 224.504 189.418 228.45 192C232.362 194.559 234.794 197.54 234.794 200.871Z" fill="#101C3F"/>
<path d="M219.572 241.427C221.694 241.427 223.413 237.687 223.413 233.075C223.413 228.462 221.694 224.723 219.572 224.723C217.451 224.723 215.731 228.462 215.731 233.075C215.731 237.687 217.451 241.427 219.572 241.427Z" fill="#FF3A99"/>
<path d="M222.59 233.075C222.59 230.859 222.175 228.893 221.54 227.512C220.871 226.059 220.115 225.544 219.572 225.544C219.028 225.544 218.272 226.059 217.604 227.512C216.969 228.893 216.554 230.859 216.554 233.075C216.554 235.29 216.969 237.257 217.604 238.639C218.272 240.091 219.029 240.605 219.572 240.605C220.115 240.605 220.871 240.091 221.54 238.639C222.175 237.257 222.59 235.29 222.59 233.075ZM224.236 233.075C224.236 235.471 223.791 237.681 223.036 239.323C222.314 240.893 221.15 242.247 219.572 242.247C217.994 242.247 216.83 240.893 216.108 239.323C215.353 237.681 214.908 235.471 214.908 233.075C214.908 230.678 215.353 228.468 216.108 226.827C216.83 225.257 217.994 223.902 219.572 223.902C221.15 223.902 222.314 225.257 223.036 226.827C223.791 228.468 224.236 230.678 224.236 233.075Z" fill="#0C1C41"/>
<path d="M233.97 150.432V195.114C233.97 206.727 199.95 216.152 157.984 216.152C116.019 216.152 81.9983 206.727 81.9983 195.114V150.432H233.97Z" fill="#00F2CD"/>
<path d="M233.148 151.253H82.8211V195.114C82.8213 197.589 84.6431 200.141 88.4208 202.614C92.1652 205.065 97.6378 207.305 104.474 209.198C118.135 212.981 137.054 215.331 157.984 215.331C178.914 215.331 197.833 212.98 211.494 209.198C218.33 207.305 223.803 205.065 227.547 202.614C231.325 200.141 233.148 197.589 233.148 195.114V151.253ZM234.794 195.114C234.794 198.445 232.362 201.426 228.45 203.986C224.505 206.569 218.849 208.865 211.934 210.78C198.093 214.612 179.02 216.973 157.984 216.973C136.949 216.973 117.874 214.612 104.033 210.78C97.1189 208.865 91.4632 206.569 87.5174 203.986C83.6057 201.426 81.1752 198.445 81.175 195.114V149.611H234.794V195.114Z" fill="#0C1C41"/>
<path d="M157.984 171.459C199.95 171.459 233.97 162.045 233.97 150.432C233.97 138.818 199.95 129.404 157.984 129.404C116.018 129.404 81.9983 138.818 81.9983 150.432C81.9983 162.045 116.018 171.459 157.984 171.459Z" fill="url(#paint1_linear_919_16612)"/>
<path d="M233.147 150.431C233.147 147.956 231.325 145.405 227.547 142.933C223.803 140.483 218.33 138.246 211.495 136.354C197.834 132.574 178.915 130.225 157.984 130.225C137.054 130.225 118.134 132.574 104.474 136.354C97.6377 138.246 92.165 140.483 88.4206 142.933C84.6426 145.405 82.821 147.956 82.821 150.431C82.821 152.907 84.6426 155.458 88.4206 157.93C92.165 160.38 97.6377 162.618 104.474 164.51C118.134 168.29 137.054 170.638 157.984 170.638C178.915 170.638 197.834 168.29 211.495 164.51C218.33 162.618 223.802 160.38 227.547 157.93C231.325 155.458 233.147 152.907 233.147 150.431ZM234.794 150.431C234.794 153.763 232.362 156.743 228.45 159.303C224.504 161.884 218.849 164.178 211.934 166.092C198.093 169.922 179.019 172.28 157.984 172.28C136.949 172.28 117.874 169.922 104.033 166.092C97.1189 164.178 91.4641 161.884 87.5183 159.303C83.6061 156.743 81.1748 153.763 81.1748 150.431C81.1748 147.1 83.6061 144.12 87.5183 141.56C91.4641 138.979 97.1189 136.685 104.033 134.771C117.874 130.941 136.949 128.583 157.984 128.583C179.019 128.583 198.093 130.941 211.934 134.771C218.849 136.685 224.504 138.979 228.45 141.56C232.362 144.12 234.794 147.1 234.794 150.431Z" fill="#101C3F"/>
<path d="M219.572 190.998C221.694 190.998 223.413 187.259 223.413 182.646C223.413 178.033 221.694 174.294 219.572 174.294C217.451 174.294 215.731 178.033 215.731 182.646C215.731 187.259 217.451 190.998 219.572 190.998Z" fill="#FF3A99"/>
<path d="M222.59 182.646C222.59 180.43 222.175 178.465 221.54 177.083C220.871 175.63 220.115 175.115 219.572 175.115C219.028 175.115 218.272 175.63 217.604 177.083C216.969 178.465 216.554 180.43 216.554 182.646C216.554 184.862 216.969 186.828 217.604 188.21C218.272 189.663 219.029 190.177 219.572 190.177C220.115 190.177 220.871 189.663 221.54 188.21C222.175 186.828 222.59 184.862 222.59 182.646ZM224.236 182.646C224.236 185.043 223.791 187.253 223.036 188.894C222.314 190.464 221.15 191.819 219.572 191.819C217.994 191.819 216.83 190.464 216.108 188.894C215.353 187.253 214.908 185.043 214.908 182.646C214.908 180.249 215.353 178.039 216.108 176.398C216.83 174.828 217.994 173.473 219.572 173.473C221.15 173.473 222.314 174.828 223.036 176.398C223.791 178.039 224.236 180.249 224.236 182.646Z" fill="#0C1C41"/>
<path d="M233.97 100.079V144.761C233.97 156.375 199.95 165.8 157.984 165.8C116.019 165.8 81.9983 156.375 81.9983 144.761V100.079H233.97Z" fill="#00F2CD"/>
<path d="M233.148 100.9H82.8211V144.762C82.8213 147.237 84.6431 149.789 88.4208 152.262C92.1652 154.712 97.6378 156.952 104.474 158.845C118.135 162.628 137.054 164.979 157.984 164.979C178.914 164.979 197.833 162.628 211.494 158.845C218.33 156.952 223.803 154.712 227.547 152.262C231.325 149.789 233.148 147.237 233.148 144.762V100.9ZM234.794 144.762C234.794 148.093 232.362 151.074 228.45 153.634C224.505 156.217 218.849 158.513 211.934 160.427C198.093 164.26 179.02 166.621 157.984 166.621C136.949 166.621 117.874 164.26 104.033 160.427C97.1189 158.513 91.4632 156.217 87.5174 153.634C83.6057 151.074 81.1752 148.093 81.175 144.762V99.2584H234.794V144.762Z" fill="#0C1C41"/>
<path d="M157.984 121.118C199.95 121.118 233.97 111.704 233.97 100.09C233.97 88.4772 199.95 79.0629 157.984 79.0629C116.018 79.0629 81.9983 88.4772 81.9983 100.09C81.9983 111.704 116.018 121.118 157.984 121.118Z" fill="url(#paint2_linear_919_16612)"/>
<path d="M233.147 100.09C233.147 97.6151 231.325 95.0634 227.547 92.5916C223.803 90.142 218.33 87.9048 211.495 86.0132C197.834 82.2329 178.915 79.8838 157.984 79.8838C137.054 79.8838 118.134 82.2329 104.474 86.0132C97.6377 87.9049 92.165 90.1418 88.4206 92.5916C84.6426 95.0634 82.821 97.6151 82.821 100.09C82.821 102.566 84.6426 105.117 88.4206 107.589C92.165 110.039 97.6377 112.277 104.474 114.168C118.134 117.949 137.054 120.297 157.984 120.297C178.915 120.297 197.834 117.949 211.495 114.168C218.33 112.277 223.802 110.039 227.547 107.589C231.325 105.117 233.147 102.566 233.147 100.09ZM234.794 100.09C234.794 103.422 232.362 106.402 228.45 108.962C224.504 111.543 218.849 113.837 211.934 115.751C198.093 119.581 179.019 121.939 157.984 121.939C136.949 121.939 117.874 119.581 104.033 115.751C97.1189 113.837 91.4641 111.543 87.5183 108.962C83.6061 106.402 81.1748 103.422 81.1748 100.09C81.1748 96.759 83.6061 93.7786 87.5183 91.219C91.4641 88.6375 97.1189 86.3435 104.033 84.4301C117.874 80.5999 136.949 78.2419 157.984 78.2419C179.019 78.2419 198.093 80.6 211.934 84.4301C218.849 86.3436 224.504 88.6374 228.45 91.219C232.362 93.7786 234.794 96.759 234.794 100.09Z" fill="#101C3F"/>
<path d="M219.572 140.646C221.694 140.646 223.413 136.906 223.413 132.294C223.413 127.681 221.694 123.942 219.572 123.942C217.451 123.942 215.731 127.681 215.731 132.294C215.731 136.906 217.451 140.646 219.572 140.646Z" fill="#FF3A99"/>
<path d="M222.59 132.294C222.59 130.078 222.175 128.112 221.54 126.731C220.871 125.278 220.115 124.763 219.572 124.763C219.028 124.763 218.272 125.278 217.604 126.731C216.969 128.112 216.554 130.078 216.554 132.294C216.554 134.51 216.969 136.476 217.604 137.858C218.272 139.31 219.029 139.825 219.572 139.825C220.115 139.825 220.871 139.31 221.54 137.858C222.175 136.476 222.59 134.51 222.59 132.294ZM224.236 132.294C224.236 134.691 223.791 136.901 223.036 138.542C222.314 140.112 221.15 141.467 219.572 141.467C217.994 141.467 216.83 140.112 216.108 138.542C215.353 136.901 214.908 134.691 214.908 132.294C214.908 129.897 215.353 127.687 216.108 126.046C216.83 124.476 217.994 123.121 219.572 123.121C221.15 123.121 222.314 124.476 223.036 126.046C223.791 127.687 224.236 129.897 224.236 132.294Z" fill="#0C1C41"/>
<path d="M153.034 104.326H82.217C78.2774 104.326 75.0837 107.512 75.0837 111.441V225.861C75.0837 229.791 78.2774 232.976 82.217 232.976H153.034C156.974 232.976 160.167 229.791 160.167 225.861V111.441C160.167 107.512 156.974 104.326 153.034 104.326Z" fill="#0C1C41"/>
<path d="M145.923 104.326H75.1059C71.1663 104.326 67.9726 107.512 67.9726 111.441V225.861C67.9726 229.791 71.1663 232.976 75.1059 232.976H145.923C149.863 232.976 153.056 229.791 153.056 225.861V111.441C153.056 107.512 149.863 104.326 145.923 104.326Z" fill="#0066E4"/>
<path d="M152.233 111.441C152.233 107.965 149.408 105.148 145.923 105.147H75.1057C71.6206 105.147 68.7954 107.965 68.7954 111.441V225.862C68.7956 229.338 71.6207 232.156 75.1057 232.156H145.923C149.408 232.155 152.233 229.337 152.233 225.862V111.441ZM153.88 225.862C153.879 230.244 150.317 233.797 145.923 233.798H75.1057C70.7116 233.798 67.1495 230.244 67.1493 225.862V111.441C67.1493 107.059 70.7115 103.505 75.1057 103.505H145.923C150.317 103.506 153.88 107.059 153.88 111.441V225.862Z" fill="#0C1C41"/>
<path d="M88.6371 122.136H80.6698C80.3485 122.136 80.0881 122.396 80.0881 122.716V124.413C80.0881 124.733 80.3485 124.993 80.6698 124.993H88.6371C88.9583 124.993 89.2187 124.733 89.2187 124.413V122.716C89.2187 122.396 88.9583 122.136 88.6371 122.136Z" fill="#00F2CD"/>
<path d="M113.889 122.136H92.6974C92.1883 122.136 91.7756 122.547 91.7756 123.055V124.073C91.7756 124.581 92.1883 124.993 92.6974 124.993H113.889C114.398 124.993 114.811 124.581 114.811 124.073V123.055C114.811 122.547 114.398 122.136 113.889 122.136Z" fill="#F4F6F9"/>
<path d="M139.745 122.136H118.553C118.044 122.136 117.631 122.547 117.631 123.055V124.073C117.631 124.581 118.044 124.993 118.553 124.993H139.745C140.254 124.993 140.666 124.581 140.666 124.073V123.055C140.666 122.547 140.254 122.136 139.745 122.136Z" fill="#F4F6F9"/>
<path d="M88.6371 131.013H80.6698C80.3485 131.013 80.0881 131.273 80.0881 131.593V133.29C80.0881 133.61 80.3485 133.87 80.6698 133.87H88.6371C88.9583 133.87 89.2187 133.61 89.2187 133.29V131.593C89.2187 131.273 88.9583 131.013 88.6371 131.013Z" fill="#00F2CD"/>
<path d="M102.64 131.013H92.4231C92.0655 131.013 91.7756 131.302 91.7756 131.659V133.224C91.7756 133.581 92.0655 133.87 92.4231 133.87H102.64C102.998 133.87 103.288 133.581 103.288 133.224V131.659C103.288 131.302 102.998 131.013 102.64 131.013Z" fill="#F4F6F9"/>
<path d="M121.571 131.013H105.911C105.468 131.013 105.11 131.371 105.11 131.812V133.071C105.11 133.512 105.468 133.87 105.911 133.87H121.571C122.014 133.87 122.372 133.512 122.372 133.071V131.812C122.372 131.371 122.014 131.013 121.571 131.013Z" fill="#F4F6F9"/>
<path d="M139.865 131.013H124.655C124.218 131.013 123.865 131.366 123.865 131.801V133.082C123.865 133.517 124.218 133.87 124.655 133.87H139.865C140.301 133.87 140.655 133.517 140.655 133.082V131.801C140.655 131.366 140.301 131.013 139.865 131.013Z" fill="#FF3A99"/>
<path d="M88.6371 139.891H80.6698C80.3485 139.891 80.0881 140.15 80.0881 140.471V142.167C80.0881 142.488 80.3485 142.747 80.6698 142.747H88.6371C88.9583 142.747 89.2187 142.488 89.2187 142.167V140.471C89.2187 140.15 88.9583 139.891 88.6371 139.891Z" fill="#00F2CD"/>
<path d="M113.889 139.89H92.6974C92.1883 139.89 91.7756 140.302 91.7756 140.81V141.828C91.7756 142.336 92.1883 142.747 92.6974 142.747H113.889C114.398 142.747 114.811 142.336 114.811 141.828V140.81C114.811 140.302 114.398 139.89 113.889 139.89Z" fill="#F4F6F9"/>
<path d="M139.745 139.89H118.553C118.044 139.89 117.631 140.302 117.631 140.81V141.828C117.631 142.336 118.044 142.747 118.553 142.747H139.745C140.254 142.747 140.666 142.336 140.666 141.828V140.81C140.666 140.302 140.254 139.89 139.745 139.89Z" fill="#F4F6F9"/>
<path d="M88.6371 148.768H80.6698C80.3485 148.768 80.0881 149.028 80.0881 149.348V151.045C80.0881 151.365 80.3485 151.625 80.6698 151.625H88.6371C88.9583 151.625 89.2187 151.365 89.2187 151.045V149.348C89.2187 149.028 88.9583 148.768 88.6371 148.768Z" fill="#00F2CD"/>
<path d="M106.02 148.768H92.5218C92.1097 148.768 91.7756 149.101 91.7756 149.512V150.88C91.7756 151.292 92.1097 151.625 92.5218 151.625H106.02C106.432 151.625 106.766 151.292 106.766 150.88V149.512C106.766 149.101 106.432 148.768 106.02 148.768Z" fill="#FF3A99"/>
<path d="M140.118 148.768H133.38C133.083 148.768 132.842 149.008 132.842 149.304V151.088C132.842 151.385 133.083 151.625 133.38 151.625H140.118C140.415 151.625 140.656 151.385 140.656 151.088V149.304C140.656 149.008 140.415 148.768 140.118 148.768Z" fill="#F4F6F9"/>
<path d="M130.065 148.768H109.39C108.887 148.768 108.479 149.175 108.479 149.676V150.716C108.479 151.218 108.887 151.625 109.39 151.625H130.065C130.568 151.625 130.976 151.218 130.976 150.716V149.676C130.976 149.175 130.568 148.768 130.065 148.768Z" fill="#F4F6F9"/>
<path d="M256.631 198.463H246.03V209.037H256.631V198.463Z" fill="#0066E4"/>
<path d="M257.455 197.642V209.858H245.207V197.642H257.455ZM246.853 208.216H255.809V199.284H246.853V208.216Z" fill="#0C1C41"/>
<path d="M286.076 160.524H275.474V171.098H286.076V160.524Z" fill="#0066E4"/>
<path d="M286.899 159.703V171.919H274.651V159.703H286.899ZM276.297 170.277H285.253V161.345H276.297V170.277Z" fill="#0C1C41"/>
<path d="M261.932 124.117H251.331V134.691H261.932V124.117Z" fill="#00F2CD"/>
<path d="M262.755 123.296V135.512H250.508V123.296H262.755ZM252.154 133.87H261.109V124.938H252.154V133.87Z" fill="#0C1C41"/>
<path d="M134.619 169.248H91.9837V212.748H134.619V169.248Z" fill="#0C1C41"/>
<path d="M129.691 170.354H88.3074V211.631H129.691V170.354Z" fill="#00BEB7"/>
<path d="M130.514 169.533V212.452H87.4841V169.533H130.514ZM89.1303 210.81H128.868V171.174H89.1303V210.81Z" fill="#0C1C41"/>
<path d="M122.973 183.659L106.592 201.361L95.3225 193.213L98.5441 188.782L105.865 194.076L118.94 179.947L122.973 183.659Z" fill="white"/>
<defs>
<linearGradient id="paint0_linear_919_16612" x1="82.0093" y1="200.871" x2="233.97" y2="200.871" gradientUnits="userSpaceOnUse">
<stop stop-color="#48EFCF"/>
<stop offset="1" stop-color="#0B64DD"/>
</linearGradient>
<linearGradient id="paint1_linear_919_16612" x1="81.9983" y1="150.432" x2="233.97" y2="150.432" gradientUnits="userSpaceOnUse">
<stop stop-color="#48EFCF"/>
<stop offset="1" stop-color="#0B64DD"/>
</linearGradient>
<linearGradient id="paint2_linear_919_16612" x1="81.9983" y1="100.09" x2="233.97" y2="100.09" gradientUnits="userSpaceOnUse">
<stop stop-color="#48EFCF"/>
<stop offset="1" stop-color="#0B64DD"/>
</linearGradient>
</defs>
</svg>
