<svg width="1792" height="1792" viewBox="0 0 1792 1792" xmlns="http://www.w3.org/2000/svg"><path d="M1025 1369v167h-248l-159-252-24-42q-8-9-11-21h-3l-9 21q-10 20-25 44l-155 250h-258v-167h128l197-291-185-272h-137v-168h276l139 228q2 4 23 42 8 9 11 21h3q3-9 11-21l25-42 140-228h257v168h-125l-184 267 204 296h109zm637-679v206h-514l-3-27q-4-28-4-46 0-64 26-117t65-86.5 84-65 84-54.5 65-54 26-64q0-38-29.5-62.5t-70.5-24.5q-51 0-97 39-14 11-36 38l-105-92q26-37 63-66 83-65 188-65 110 0 178 59.5t68 158.5q0 56-24.5 103t-62 76.5-81.5 58.5-82 50.5-65.5 51.5-30.5 63h232v-80h126z"/></svg>