<?xml version="1.0" encoding="UTF-8"?>
<svg width="256px" height="230px" viewBox="0 0 256 230" version="1.1" xmlns="http://www.w3.org/2000/svg" xmlns:xlink="http://www.w3.org/1999/xlink">
    <!-- Generator: Sketch 43.2 (39069) - http://www.bohemiancoding.com/sketch -->
    <title>react-logo</title>
    <desc>Created with Sketch.</desc>
    <defs></defs>
    <g id="Page-1" stroke="none" stroke-width="1" fill="none" fill-rule="evenodd">
        <g id="react-logo" fill-rule="nonzero">
            <path d="M0.754,114.75 C0.754,133.965 19.517,151.902 49.097,162.013 C43.19,191.75 48.039,215.719 64.233,225.058 C80.878,234.658 105.676,228.013 129.213,207.438 C152.156,227.182 175.343,234.952 191.523,225.586 C208.153,215.959 213.21,190.365 207.14,159.699 C237.95,149.513 255.184,134.218 255.184,114.75 C255.184,95.981 236.387,79.744 207.205,69.698 C213.74,37.765 208.203,14.378 191.338,4.653 C175.079,-4.723 151.622,3.449 128.342,23.709 C104.122,2.205 80.897,-4.36 64.05,5.392 C47.806,14.795 43.171,39.2 49.097,69.487 C20.515,79.452 0.754,96.057 0.754,114.75 Z" id="Shape" fill="#FFFFFF"></path>
            <path d="M201.025,79.674 C198.619969,78.8490275 196.194532,78.084785 193.751,77.382 C194.156225,75.7354057 194.530956,74.0814561 194.875,72.421 C200.381,45.693 196.781,24.161 184.487,17.073 C172.7,10.275 153.422,17.363 133.952,34.306 C132.033483,35.9793431 130.157551,37.7008924 128.326,39.469 C127.09946,38.2933132 125.851246,37.1404488 124.582,36.011 C104.177,17.893 83.724,10.259 71.443,17.368 C59.667,24.185 56.179,44.428 61.136,69.758 C61.6291869,72.266409 62.1860333,74.761881 62.806,77.242 C59.912,78.064 57.117,78.94 54.443,79.872 C30.521,88.212 15.243,101.284 15.243,114.842 C15.243,128.846 31.643,142.892 56.561,151.408 C58.5814818,152.09533 60.6187811,152.732195 62.671,153.318 C62.0043019,155.98994 61.4124042,158.67999 60.896,161.385 C56.17,186.275 59.861,206.038 71.606,212.813 C83.737,219.808 104.097,212.618 123.923,195.288 C125.49,193.918 127.063,192.465 128.638,190.942 C130.621822,192.856059 132.658613,194.714448 134.746,196.515 C153.95,213.04 172.916,219.713 184.651,212.92 C196.771,205.904 200.709,184.673 195.595,158.842 C195.205,156.869 194.75,154.854 194.24,152.802 C195.67,152.38 197.073,151.944 198.442,151.49 C224.346,142.908 241.199,129.033 241.199,114.842 C241.199,101.235 225.429,88.075 201.025,79.674 Z" id="Shape" fill="#00C0B4"></path>
            <path d="M195.406,142.328 C194.171,142.737 192.903,143.132 191.611,143.515 C188.751,134.462 184.891,124.835 180.169,114.89 C184.676,105.18 188.386,95.677 191.166,86.682 C193.477,87.352 195.721,88.057 197.883,88.802 C218.793,95.999 231.547,106.642 231.547,114.842 C231.547,123.577 217.772,134.917 195.407,142.328 L195.406,142.328 Z M186.126,160.717 C188.387,172.139 188.71,182.466 187.212,190.539 C185.866,197.793 183.16,202.629 179.814,204.566 C172.693,208.688 157.464,203.33 141.042,189.198 C139.159,187.578 137.262,185.848 135.36,184.018 C141.727,177.054 148.09,168.958 154.3,159.968 C165.224,158.999 175.544,157.414 184.903,155.251 C185.363,157.111 185.773,158.934 186.126,160.717 L186.126,160.717 Z M92.276,203.854 C85.319,206.311 79.778,206.381 76.429,204.45 C69.301,200.34 66.339,184.47 70.38,163.185 C70.86054,160.66956 71.4107516,158.167932 72.03,155.683 C81.285,157.73 91.53,159.203 102.48,160.091 C108.731,168.888 115.278,176.974 121.876,184.055 C120.473749,185.411463 119.038314,186.733197 117.571,188.019 C108.804,195.683 100.019,201.119 92.277,203.854 L92.276,203.854 Z M59.683,142.274 C48.665,138.508 39.566,133.614 33.329,128.274 C27.725,123.474 24.895,118.709 24.895,114.842 C24.895,106.615 37.162,96.12 57.621,88.987 C60.1888992,88.0956173 62.7823434,87.2796011 65.398,86.54 C68.226,95.737 71.935,105.353 76.411,115.077 C71.877,124.946 68.115,134.715 65.261,144.02 C63.3876414,143.483792 61.5277463,142.901616 59.683,142.274 L59.683,142.274 Z M70.609,67.904 C66.362,46.201 69.182,29.83 76.279,25.722 C83.839,21.346 100.554,27.586 118.172,43.229 C119.298,44.229 120.429,45.276 121.562,46.359 C114.998,53.408 108.511,61.433 102.314,70.179 C91.687,71.164 81.514,72.746 72.162,74.865 C71.5859234,72.5577496 71.0680923,70.2363458 70.609,67.903 L70.609,67.904 Z M168.076,91.971 C165.867077,88.15543 163.576212,84.3878893 161.205,80.671 C168.415,81.581 175.322,82.791 181.808,84.272 C179.861,90.513 177.434,97.039 174.576,103.729 C172.487817,99.7667898 170.320718,95.846675 168.076,91.971 L168.076,91.971 Z M128.329,53.257 C132.781,58.08 137.24,63.466 141.626,69.309 C132.729011,68.8885802 123.817177,68.8865779 114.92,69.303 C119.31,63.514 123.807,58.136 128.329,53.257 L128.329,53.257 Z M88.327,92.037 C86.1103861,95.881852 83.9838071,99.7779128 81.949,103.722 C79.138,97.055 76.733,90.5 74.769,84.17 C81.216,82.727 88.091,81.548 95.254,80.653 C92.8562133,84.3929245 90.5465767,88.1886373 88.327,92.037 L88.327,92.037 Z M95.46,149.72 C88.06,148.894 81.081,147.775 74.636,146.372 C76.631,139.93 79.089,133.234 81.96,126.424 C84.0033853,130.371011 86.1393091,134.269422 88.366,138.116 C90.6381114,142.039828 93.0034501,145.908927 95.46,149.72 L95.46,149.72 Z M128.596,177.109 C124.021,172.172 119.458,166.712 115.001,160.839 C119.327,161.009 123.738,161.095 128.221,161.095 C132.827,161.095 137.38,160.992 141.861,160.792 C137.461,166.772 133.018,172.24 128.596,177.109 Z M174.668,126.077 C177.688,132.961 180.234,139.621 182.256,145.954 C175.704,147.449 168.631,148.653 161.178,149.547 C163.566351,145.760714 165.879142,141.927289 168.115,138.049 C170.387885,134.107446 172.57276,130.11579 174.668,126.077 L174.668,126.077 Z M159.753,133.227 C156.3302,139.172956 152.714956,145.006038 148.913,150.717 C142.209,151.196 135.281,151.443 128.221,151.443 C121.19,151.443 114.35,151.224 107.763,150.797 C103.862436,145.099336 100.178803,139.256158 96.72,133.28 C93.2773643,127.335549 90.0617139,121.262507 87.08,115.074 C90.05413,108.883639 93.2600631,102.807343 96.691,96.858 L96.691,96.86 C100.12086,90.9093895 103.775495,85.091196 107.647,79.418 C114.367,78.91 121.257,78.644 128.222,78.644 C135.218,78.644 142.117,78.912 148.835,79.424 C152.667346,85.088466 156.298605,90.8864072 159.722,96.807 C163.164735,102.743107 166.413453,108.789638 169.463,114.937 C166.444822,121.146994 163.206436,127.247527 159.754,133.227 L159.753,133.227 Z M179.666,25.435 C187.232,29.799 190.175,47.396 185.421,70.473 C185.109401,71.9763271 184.770679,73.4739046 184.405,74.965 C175.031,72.802 164.851,71.192 154.193,70.192 C147.984,61.351 141.551,53.312 135.093,46.354 C136.785263,44.7225479 138.517798,43.133391 140.289,41.588 C156.971,27.07 172.562,21.338 179.666,25.435 L179.666,25.435 Z" id="Shape" fill="#FFFFFF"></path>
            <path d="M128.221,94.665 C139.365,94.665 148.398,103.699 148.398,114.842 C148.398,125.986 139.365,135.02 128.221,135.02 C117.078,135.02 108.044,125.986 108.044,114.842 C108.044,103.699 117.078,94.665 128.221,94.665" id="Shape" fill="#00C0B4"></path>
        </g>
    </g>
</svg>