<?xml version="1.0" encoding="UTF-8"?>
<svg width="19px" height="24px" viewBox="0 0 19 24" version="1.1" xmlns="http://www.w3.org/2000/svg" xmlns:xlink="http://www.w3.org/1999/xlink">
    <!-- Generator: Sketch 42 (36781) - http://www.bohemiancoding.com/sketch -->
    <title>icon-beats</title>
    <desc>Created with Sketch.</desc>
    <defs></defs>
    <g id="UI-KIT" stroke="none" stroke-width="1" fill="none" fill-rule="evenodd">
        <g id="QuickSummary" transform="translate(-247.000000, -3553.000000)" fill="#5A5A5A">
            <g id="Basic-Panel" transform="translate(150.000000, 3540.000000)">
                <g id="Header-bar">
                    <g id="icon-beats" transform="translate(97.000000, 13.000000)">
                        <path d="M11.3627647,8.86083529 C11.4044118,8.86083529 11.445,8.86295294 11.4859412,8.86577647 C11.6842941,8.86824706 11.8992353,8.87918824 12.1053529,8.89789412 L12.2617059,8.91307059 C12.3044118,8.91801176 12.3481765,8.92471765 12.3912353,8.93212941 C12.5952353,8.95895294 12.7819412,8.98436471 12.9644118,9.02107059 L13.0537059,9.04083529 C13.1115882,9.05354118 13.143,9.06165882 13.1744118,9.07048235 C13.3448824,9.10930588 13.5284118,9.15483529 13.7084118,9.20918824 L13.8414706,9.24907059 L13.9018235,9.27201176 C14.0892353,9.33236471 14.2840588,9.40436471 14.4707647,9.48201176 L14.5844118,9.53107059 C14.8057059,9.62777647 15.0033529,9.72342353 15.1879412,9.82295294 C15.5560588,8.96848235 15.7646471,8.02965882 15.7646471,7.04001176 C15.7646471,3.15201176 12.6125294,-0.000105882353 8.72417647,-0.000105882353 L0.000176470588,-0.000105882353 L0.000176470588,8.86083529 L11.3627647,8.86083529 Z" id="Fill-1"></path>
                        <path d="M15.5825294,11.3350588 C14.0881765,13.7170588 11.5258235,15.1390588 8.72488235,15.1394118 L0.000176470588,15.1394118 L0.000176470588,24 L11.3627647,24 C15.2511176,24 18.4028824,20.8482353 18.4028824,16.9598824 C18.4028824,14.6572941 17.2918235,12.6194118 15.5825294,11.3350588" id="Fill-4"></path>
                        <path d="M8.72498824,14.0805176 C11.2456941,14.0801647 13.4508706,12.7506353 14.6939294,10.7593412 C14.5259294,10.6686353 14.3529882,10.5856941 14.1768706,10.5087529 C14.1391059,10.4921647 14.1009882,10.4752235 14.0628706,10.4593412 C13.8938118,10.3887529 13.7208706,10.3259294 13.5451059,10.2687529 C13.5267529,10.2627529 13.5098118,10.2549882 13.4914588,10.2489882 C13.4618118,10.2398118 13.4314588,10.2320471 13.4014588,10.2228706 C13.2458118,10.1755765 13.0862824,10.1364 12.9260471,10.1000471 C12.9013412,10.0944 12.8773412,10.0862824 12.8522824,10.0809882 C12.8201647,10.0739294 12.7887529,10.0658118 12.7562824,10.0591059 C12.5974588,10.0273412 12.4351059,10.0061647 12.2724,9.98498824 C12.2289882,9.97934118 12.1869882,9.97016471 12.1435765,9.96522353 C12.0987529,9.96028235 12.0539294,9.9564 12.0087529,9.95251765 C11.8255765,9.93557647 11.6402824,9.92675294 11.4532235,9.92428235 C11.4228706,9.92392941 11.3935765,9.91969412 11.3628706,9.91969412 L-7.05882353e-05,9.91969412 L-7.05882353e-05,14.0805176 L8.72498824,14.0805176 Z" id="Fill-6"></path>
                    </g>
                </g>
            </g>
        </g>
    </g>
</svg>