<svg id="Layer_1" data-name="Layer 1" xmlns="http://www.w3.org/2000/svg" viewBox="0 0 19.17 25"><defs><style>.cls-1,.cls-3,.cls-4{fill:#fff;}.cls-1{opacity:0.61;}.cls-2{fill:#f3bd19;}.cls-3{opacity:0.3;}</style></defs><title>Icon-Beats</title><path class="cls-1" d="M14.75,10.33h0.09l0.58,0h0.12l0.25,0h0l0.4,0.06,0.1,0h0l0.29,0.07h0l0.27,0.07,0.09,0,0.06,0h0l0.29,0.1h0l0.22,0.08,0.12,0.05,0.06,0h0L18,11.11h0l0.18,0.09h0a7.29,7.29,0,0,0,1.12-3.88h0A7.33,7.33,0,0,0,12,0H2.92V10.33H14.75Z" transform="translate(-2.92)"/><path class="cls-1" d="M20.32,12.9c0.16,0.26-2.54,4.22-6.43,4.22h-11V25H14.75a7.33,7.33,0,0,0,7.33-7.33h0A7.3,7.3,0,0,0,20.32,12.9Z" transform="translate(-2.92)"/><path class="cls-2" d="M20.32,12.89l-0.12-.13,0.12,0.14h0Z" transform="translate(-2.92)"/><path class="cls-3" d="M20.32,12.9l-0.12-.14c-0.11-.13-0.23-0.25-0.35-0.37l-0.2-.18-0.36-.31-0.23-.17-0.38-.26-0.25-.15-0.2-.11a7.35,7.35,0,0,1-.8,1.05l0,0.05a7.36,7.36,0,0,1-.91.83l-0.17.13-0.29.2-0.42.25-0.24.13L15,14l-0.2.09-0.54.2-0.19.06-0.52.13-0.1,0c-0.21,0-.42.07-0.63,0.1l-0.16,0c-0.22,0-.44,0-0.67,0H2.92V10.33h0v6.78h11C17.77,17.12,20.48,13.16,20.32,12.9Z" transform="translate(-2.92)"/><path class="cls-1" d="M12.83,14.62l-0.16,0Z" transform="translate(-2.92)"/><path class="cls-3" d="M12.83,14.62l-0.16,0Z" transform="translate(-2.92)"/><polygon class="cls-1" points="11.84 10.33 11.84 10.33 11.84 10.33 11.84 10.33"/><polygon class="cls-3" points="11.84 10.33 11.84 10.33 11.84 10.33 11.84 10.33"/><path class="cls-1" d="M13.56,14.5l-0.1,0Z" transform="translate(-2.92)"/><path class="cls-3" d="M13.56,14.5l-0.1,0Z" transform="translate(-2.92)"/><path class="cls-1" d="M15,14l-0.2.09Z" transform="translate(-2.92)"/><path class="cls-3" d="M15,14l-0.2.09Z" transform="translate(-2.92)"/><path class="cls-1" d="M17.33,10.81L17,10.7h0l0.31,0.11h0Z" transform="translate(-2.92)"/><path class="cls-3" d="M17.33,10.81L17,10.7h0l0.31,0.11h0Z" transform="translate(-2.92)"/><path class="cls-1" d="M16.29,13.27l-0.29.2Z" transform="translate(-2.92)"/><path class="cls-3" d="M16.29,13.27l-0.29.2Z" transform="translate(-2.92)"/><path class="cls-1" d="M14.26,14.31l-0.19.06Z" transform="translate(-2.92)"/><path class="cls-3" d="M14.26,14.31l-0.19.06Z" transform="translate(-2.92)"/><path class="cls-1" d="M16.61,10.58h0L16.3,10.5h0l0.08,0Z" transform="translate(-2.92)"/><path class="cls-3" d="M16.61,10.58h0L16.3,10.5h0l0.08,0Z" transform="translate(-2.92)"/><path class="cls-1" d="M15.59,13.73l-0.24.13Z" transform="translate(-2.92)"/><path class="cls-3" d="M15.59,13.73l-0.24.13Z" transform="translate(-2.92)"/><path class="cls-1" d="M15.7,10.4l0.1,0h0l-0.25,0h0Z" transform="translate(-2.92)"/><path class="cls-3" d="M15.7,10.4l0.1,0h0l-0.25,0h0Z" transform="translate(-2.92)"/><path class="cls-1" d="M16.46,13.15a7.36,7.36,0,0,0,.91-0.83A7.39,7.39,0,0,1,16.46,13.15Z" transform="translate(-2.92)"/><path class="cls-3" d="M16.46,13.15a7.36,7.36,0,0,0,.91-0.83A7.39,7.39,0,0,1,16.46,13.15Z" transform="translate(-2.92)"/><polygon class="cls-1" points="11.84 10.33 11.84 10.33 11.84 10.33 11.84 10.33 0 10.33 0 10.33 11.84 10.33"/><polygon class="cls-3" points="11.84 10.33 11.84 10.33 11.84 10.33 11.84 10.33 0 10.33 0 10.33 11.84 10.33"/><path class="cls-1" d="M17.42,12.27a7.35,7.35,0,0,0,.8-1.05h0A7.4,7.4,0,0,1,17.42,12.27Z" transform="translate(-2.92)"/><path class="cls-3" d="M17.42,12.27a7.35,7.35,0,0,0,.8-1.05h0A7.4,7.4,0,0,1,17.42,12.27Z" transform="translate(-2.92)"/><path class="cls-1" d="M18,11.11L17.75,11h0L18,11.12h0Z" transform="translate(-2.92)"/><path class="cls-3" d="M18,11.11L17.75,11h0L18,11.12h0Z" transform="translate(-2.92)"/><polygon class="cls-2" points="11.84 10.33 11.84 10.33 11.84 10.33 11.84 10.33"/><polygon class="cls-3" points="11.84 10.33 11.84 10.33 11.84 10.33 11.84 10.33"/><path class="cls-4" d="M15.42,10.37l-0.58,0H14.76a7.35,7.35,0,0,1,.75,0H15.42Z" transform="translate(-2.92)"/><path class="cls-4" d="M17,10.7l-0.06,0-0.09,0-0.27-.07L17,10.7h0Z" transform="translate(-2.92)"/><path class="cls-4" d="M18.22,11.21L18,11.12l0.17,0.09h0Z" transform="translate(-2.92)"/><path class="cls-4" d="M16.3,10.5l-0.1,0-0.4-.06,0.5,0.08h0Z" transform="translate(-2.92)"/><path class="cls-4" d="M17.68,10.95l-0.12-.05-0.22-.08L17.75,11Z" transform="translate(-2.92)"/><path class="cls-4" d="M16,13.47l-0.42.25Z" transform="translate(-2.92)"/><path class="cls-4" d="M16.46,13.15l-0.17.13Z" transform="translate(-2.92)"/><path class="cls-4" d="M17.42,12.27l0,0.05Z" transform="translate(-2.92)"/><path class="cls-4" d="M14.08,14.37l-0.52.13Z" transform="translate(-2.92)"/><path class="cls-4" d="M15.34,13.86L15,14Z" transform="translate(-2.92)"/><path class="cls-4" d="M13.46,14.52c-0.21,0-.42.07-0.63,0.1C13,14.59,13.25,14.56,13.46,14.52Z" transform="translate(-2.92)"/><path class="cls-4" d="M2.92,14.67H12c0.22,0,.45,0,0.67,0-0.22,0-.44,0-0.67,0H2.92Z" transform="translate(-2.92)"/><path class="cls-4" d="M14.8,14.11l-0.54.2Z" transform="translate(-2.92)"/><path class="cls-4" d="M18,11.12L17.75,11l-0.4-.16L17,10.7l-0.44-.12-0.23-.06-0.08,0-0.5-.08-0.1,0-0.13,0H15.5a7.35,7.35,0,0,0-.75,0H2.92v4.33H12c0.22,0,.45,0,0.67,0l0.16,0c0.21,0,.42-0.05.63-0.1l0.1,0,0.52-.13,0.19-.06,0.54-.2L15,14l0.34-.16,0.24-.13L16,13.47l0.29-.2,0.17-.13a7.39,7.39,0,0,0,.91-0.83l0-.05a7.4,7.4,0,0,0,.8-1.05Z" transform="translate(-2.92)"/></svg>