<svg xmlns="http://www.w3.org/2000/svg" fill="none" viewBox="0 0 200 148">
  <g fill="#e6ebf2">
    <path d="M66.493 121.253a.664.664 0 0 0 .373-.78.945.945 0 0 0-1.1-.386.686.686 0 0 0 .208 1.253c.178.041.364.01.519-.087zM46.666 68.12c.12-.113.373-.44.287-.6-.087-.16-.514-.046-.667 0-.153.047-.22.267-.073.454.146.186.3.293.453.146zm-1.26 13.006a.427.427 0 0 0-.58-.153c-.247.107-.46.253-.46.573 0 .947.173 1.16 1.1 1.334h.067a1.205 1.205 0 0 0-.367 0 .286.286 0 0 0-.2.426.34.34 0 0 0 .487.22.907.907 0 0 0 .273-.36.4.4 0 0 0 .54.147.474.474 0 0 0 .073-.767c-.226-.22-.146-.426-.12-.666.707.046 1-.267.88-.867a1.716 1.716 0 0 0-.053-.173c-.147-.394-.38-.487-.753-.3-.374.186-.6.326-.487.873-.2-.133-.333-.186-.4-.286zM45.42 80a.386.386 0 0 0 .166-.52.486.486 0 0 0-.507-.346.552.552 0 0 0-.46.666.58.58 0 0 0 .8.2zm59.546 54.133a.7.7 0 0 0 .2.914.71.71 0 0 0 .887-1.107 1.035 1.035 0 0 0-1.087.193zM47.08 69.04a.449.449 0 0 0-.22.666.5.5 0 0 0 .626.18.54.54 0 0 0 .167-.666.427.427 0 0 0-.574-.18zM46.987 64c.12-.086.346-.4.28-.507-.067-.106-.427-.126-.58-.1-.154.027-.247.26-.14.487a.266.266 0 0 0 .44.12zm4.486 44a.772.772 0 0 0-.107 1.033.892.892 0 0 0 1.2-.087.6.6 0 0 0 .203-.453.602.602 0 0 0-.203-.453.73.73 0 0 0-1.093-.04zm1.54-7.846a.177.177 0 0 0 .063-.048.17.17 0 0 0 .03-.15.168.168 0 0 0-.04-.069.16.16 0 0 0-.266-.053.166.166 0 0 0-.047.273.16.16 0 0 0 .119.087.16.16 0 0 0 .141-.04zm-3.28-8.374c.072.19.16.373.267.546-.05.084-.094.171-.133.26a.92.92 0 0 0 .173 1 1.02 1.02 0 0 0 .9.174 1.22 1.22 0 0 0 0 .5l.313.146a58.42 58.42 0 0 1-1.106-3.42.775.775 0 0 0-.18.094.607.607 0 0 0-.234.7zm2.807 10.347a.234.234 0 0 0 .28-.114.319.319 0 0 0-.113-.34c-.094-.06-.24.06-.287.154-.047.093.007.266.12.3zm.193 4.286a.664.664 0 0 0 .106-.713.354.354 0 0 0-.102-.104.34.34 0 0 0-.282-.043.35.35 0 0 0-.129.067c-.313.213-.453.447-.36.613a.776.776 0 0 0 .767.18zm.32-2.286a.795.795 0 0 0-.073-.947.801.801 0 0 0-.84.1.533.533 0 0 0 0 .667c.353.32.713.393.913.18zM44.5 73.374a.86.86 0 0 0-.394 1.08.873.873 0 0 0 1.033.5 1.12 1.12 0 0 0 .467-1.247.872.872 0 0 0-1.107-.333zm9.886 28.086c-.173-.326-.34-.666-.507-.986-.253.16-.353.393-.253.593a1.04 1.04 0 0 0 .76.393zm.794 4.713c-.12.26-.22.527.087.667.306.14.473-.034.6-.274a.51.51 0 0 0-.464-.427.512.512 0 0 0-.223.034zm-4.14-10.84c-.12.047-.167.12-.114.247.053.127.127.16.253.113a.174.174 0 0 0 .114-.24c-.047-.12-.12-.173-.254-.12zm4.147 12.867a.357.357 0 0 0-.052.42.357.357 0 0 0 .098.113.442.442 0 0 0 .516.11.435.435 0 0 0 .151-.11.4.4 0 0 0-.04-.587.463.463 0 0 0-.528-.065.462.462 0 0 0-.145.119zm.499 2.707a.482.482 0 0 0 .667 0 .442.442 0 0 0 0-.6.397.397 0 0 0-.444-.144.382.382 0 0 0-.143.084.434.434 0 0 0-.19.312.44.44 0 0 0 .11.348zm-1.353-6.241a.345.345 0 0 0-.058.282.34.34 0 0 0 .178.225c.313.213.586.253.666.107a.77.77 0 0 0-.12-.774.67.67 0 0 0-.666.16zM37.22 85.493c-.16-.3-.353-.293-.513-.207s-.3.26-.16.434c.14.173.34.22.446.166.107-.053.174-.286.227-.393zm1.087 7.047a.666.666 0 0 0-.347.747.74.74 0 0 0 .813.38c.26-.107.334-.527.16-.907a.52.52 0 0 0-.626-.22zm-.387-3.367c-.274-.106-.514-.273-.747 0a.4.4 0 0 0 0 .554.534.534 0 0 0 .406.18c.334-.087.38-.367.34-.734zM45 100.606c-.26 0-.48.56-.3.794.18.233.6.293.74.106.14-.186-.174-.84-.44-.9zm-1.786-5.046-.207.22a4.215 4.215 0 0 0-.407-.373.434.434 0 0 0-.666 0 .667.667 0 0 0-.174.78.6.6 0 0 0 .667.366c.201-.018.4-.059.593-.12.067.072.14.136.22.194a.913.913 0 0 0 1.013.073 1.061 1.061 0 0 0 .387-.96.534.534 0 0 0-.2-.347.833.833 0 0 0-1.227.167zm2.959 9.774a.352.352 0 0 0-.118.266.358.358 0 0 0 .118.267.32.32 0 0 0 .104.083.323.323 0 0 0 .261.018.311.311 0 0 0 .115-.068.35.35 0 0 0 .1-.513.398.398 0 0 0-.58-.053zm-5.84-19.148c0-.353-.213-.493-.567-.5-.193-.826-.666-.926-1.333-.313a.838.838 0 0 1-.167-.06.4.4 0 0 0-.533.113.433.433 0 0 0-.087.5c.154.467.36.567.82.38l1.04-.4c.287.62.367.64.827.28zm1 2.614a.787.787 0 1 0-1.334.747.874.874 0 0 0 1.187.147.614.614 0 0 0 .147-.894zm.614 3.2a.8.8 0 0 0-.94-.333.727.727 0 0 0-.26.9c.146.307.426.367.82.173.266-.133.473-.533.38-.74zm.893 5.94a.426.426 0 0 0-.467.273.387.387 0 0 0 .533.42.4.4 0 0 0-.067-.693zm1.5-31.093c.1-.047.093-.3.053-.367s-.187-.167-.287-.113a.26.26 0 0 0-.107.3c.047.073.247.233.34.18zm-1.294 8.893c.107.107.394.354.54.26.147-.093.04-.486 0-.6-.04-.113-.286-.086-.406-.04a.22.22 0 0 0-.134.38zm-.292-3.78a.76.76 0 0 0 .173-.98.713.713 0 0 0-1.18.78.726.726 0 0 0 1.007.2zM41.22 84.873c-.227.114-.307.3-.147.48s.313.46.56.327c.247-.133.113-.487.087-.667-.027-.18-.294-.246-.5-.14zm-.72-3.066a.926.926 0 0 0-.247 1.086.808.808 0 0 0 1.167.18.667.667 0 0 0 .293-.96.907.907 0 0 0-1.213-.306zm4.586-9.714a.76.76 0 0 0 .34-.88.52.52 0 0 0-.667-.246.667.667 0 0 0-.26.84.448.448 0 0 0 .587.286zm.5-2.367a.14.14 0 0 0 .033-.18c0-.04-.14-.046-.166 0a.123.123 0 0 0 .04.224.123.123 0 0 0 .093-.017zm-1.88 7.7a.667.667 0 0 0 .86.134c.387-.22.5-.467.34-.767a.774.774 0 0 0-.926-.333.847.847 0 0 0-.273.966zM40.8 74.787c.12-.113.386-.447.293-.587-.094-.14-.494-.086-.667-.046-.173.04-.213.346-.093.52.12.173.333.26.466.113zm-2.447-1.86c0 .04.18.133.22.106s.247-.14.2-.286c-.046-.147-.266-.12-.3-.087a.4.4 0 0 0-.12.267zm.247 3.553a.436.436 0 0 0 .8-.347.573.573 0 0 0-.627-.233.453.453 0 0 0-.173.58zm2.327-10.587c.073-.04.073-.207.053-.3s-.173-.193-.287-.133-.053.273 0 .36a.24.24 0 0 0 .234.073zM38 71.1a.466.466 0 0 0 .513-.333.346.346 0 0 0-.14-.467c-.293-.193-.52-.046-.767.16.06.3.047.607.394.64zm2.76 8.3a.7.7 0 0 0 .146-.827.667.667 0 0 0-.82.127.5.5 0 0 0 .667.666zm-2.387 1.266c.287-.16.367-.38.234-.666a.78.78 0 0 0-.954-.407.667.667 0 0 0-.126.873.627.627 0 0 0 .846.2zm7.233 27.268c-.133 0-.287.266-.413.433a.184.184 0 0 0-.047.061.184.184 0 0 0 0 .151.185.185 0 0 0 .047.061.56.56 0 0 0 .666-.1.404.404 0 0 0-.253-.606zm33.627 20.193c-.126-.254-.466-.32-.846-.154-.28.134-.487.507-.394.72a.847.847 0 0 0 .914.42.548.548 0 0 0 .12-.066.763.763 0 0 0 0 .386c.1.329.31.614.593.807.1.077.177.181.22.3a.584.584 0 0 0 .887.433.28.28 0 0 0 .033.167.523.523 0 0 0 .667.113.531.531 0 0 0 .313-.666.46.46 0 0 0-.277-.219.468.468 0 0 0-.35.045.86.86 0 0 0-.173-.42.832.832 0 0 1-.227-.586c0-.36-.253-.58-.5-.78a.827.827 0 0 0-.88.04l-.066.06a.786.786 0 0 0-.034-.6zm9.973 5.979c.1.2.414.14.554.114a.305.305 0 0 0 .225-.134.3.3 0 0 0 .035-.26c-.06-.213-.34-.4-.5-.28s-.414.36-.314.56zm4.247-1.332a.605.605 0 0 0-.287.866c.173.354.513.52.773.374a.893.893 0 0 0 .367-1.054.667.667 0 0 0-.853-.186zm.16 2.966c-.12.193.093.427.193.533a.292.292 0 0 0 .364.085.292.292 0 0 0 .103-.085c.146-.166.16-.5 0-.573s-.54-.147-.66.04zm-3.42-4.167a.447.447 0 0 0-.477-.299.459.459 0 0 0-.19.066.472.472 0 0 0 0 .833.269.269 0 0 0 .18.28c.142.02.285.02.427 0a.465.465 0 0 0 .033-.426.49.49 0 0 0 .027-.454zM76 127.926c.34-.167.486-.467.353-.72a.91.91 0 0 0-1.053-.373.668.668 0 0 0-.154.82.575.575 0 0 0 .853.273zm-9.22-3.706a.757.757 0 0 0 .32.14c.28-.146.373-.406.233-.546a.544.544 0 0 0-.406-.147c-.194.033-.26.4-.147.553zm4.733-.807c.3-.106.553-.446.48-.666-.147-.46-.667-.454-.92-.44-.254.013-.38.613-.14.96a.439.439 0 0 0 .58.146zm42.58 9.307c-.3.113-.22.366-.167.606.26.12.494.14.667-.126a.384.384 0 0 0-.053-.36.504.504 0 0 0-.447-.12zm-.533 1.873c.113.073.206.167.353.147s.2-.234.087-.4a.723.723 0 0 0-.474-.28.197.197 0 0 0-.096.012.211.211 0 0 0-.137.234.459.459 0 0 0 .267.287zm2.513-4.133c.353.047.493-.187.626-.487-.093-.113-.173-.233-.26-.32l-.666.147a.62.62 0 0 0-.054.3.355.355 0 0 0 .354.36zm5.14-1.587c.033 0 .14 0 .16-.053.02-.054 0-.127 0-.16a.14.14 0 0 0-.194 0c-.023.033-.033.073-.027.113s.028.076.061.1zm-6.633 3.247a.815.815 0 0 0 .754-.786.843.843 0 0 0-.898-.657.84.84 0 0 0-.762.81c-.034.347.44.6.906.633zm2.98 2.966a.256.256 0 0 0 0 .354c.133.126.28-.06.347-.127.066-.067 0-.227-.034-.24a.342.342 0 0 0-.313.013zm.473-4.626c0-.147 0-.433-.114-.473a.475.475 0 0 0-.407.146c-.06.087-.053.44.054.507.106.067.433-.113.467-.18zm-10.32 3.86a.421.421 0 0 0-.031.346.44.44 0 0 0 .237.254c.194.093.407.2.534 0 .206-.334.186-.62 0-.76a.483.483 0 0 0-.408-.093.498.498 0 0 0-.332.253zm-.38-2.113a.663.663 0 0 0-.007.433.66.66 0 0 0 .26.347.396.396 0 0 0 .318.035.393.393 0 0 0 .236-.215c.233-.354.253-.627.073-.767a.759.759 0 0 0-.88.167zm-3.44 4.06a.38.38 0 0 0 .14.56.517.517 0 0 0 .667-.134.502.502 0 0 0-.167-.633.452.452 0 0 0-.364-.036.464.464 0 0 0-.276.243zM112 131.2a.724.724 0 0 0 .967-.187.945.945 0 0 0 .046-.666l-1.4.213a.888.888 0 0 0 .387.64zm-1.747 1.993a.424.424 0 0 0 .506-.035.403.403 0 0 0 .107-.145c.267-.413.254-.7-.046-.893a.75.75 0 0 0-.854.213.857.857 0 0 0 .287.86zM50.88 97.454a.18.18 0 0 1 0 .113.899.899 0 0 0-.16.08c-.074-.1-.227-.12-.487.04a.466.466 0 0 0-.233.666.667.667 0 0 0 .666.367c.05.056.115.097.187.12.247.074.487.254.667.154a.447.447 0 0 0 .246-.314.666.666 0 0 0 .087-.426 1.094 1.094 0 0 0-.173-.38 1.134 1.134 0 0 0 0-.214c-.034-.266-.094-.666-.46-.613-.367.053-.367.287-.34.407zm-4.054-24.248c-.3 0-.613 0-.613.434a.48.48 0 0 0 .346.5.348.348 0 0 0 .287 0c.147-.167.267-.36.413-.56.235-.005.464-.07.667-.187v-.887a.92.92 0 0 0-.6-.26c-.4-.02-.5.18-.5.96zm1.08 11.214a.56.56 0 0 0 .667.174l.04-.047a35.31 35.31 0 0 1-.154-.84.667.667 0 0 0-.426 0 .489.489 0 0 0-.127.713zm-.866-7.933a.394.394 0 0 0 .306-.2c.094-.28-.066-.454-.346-.56-.2.126-.447.246-.334.546a.507.507 0 0 0 .374.214zm2.206 17.407c.087.153.207.3.427.213a.493.493 0 0 0 .186-.667 1.467 1.467 0 0 0-.486 0c-.2.074-.227.274-.127.454zm-.179-7.061a.587.587 0 0 0 .147.667c-.047-.24-.107-.454-.147-.667zm-.401 3.38a.833.833 0 0 0 1.047-.227.667.667 0 0 0 .053-.313c-.04-.14-.087-.273-.12-.413a.72.72 0 0 0-.4-.354.847.847 0 0 0-.993.267c-.22.267.026.747.413 1.04zm-1.14-12.593c-.406.093-.873.247-.973.74a1.14 1.14 0 0 0 1.14 1.267.386.386 0 0 1 .353.166 56.95 56.95 0 0 1-.166-3.213 6.074 6.074 0 0 0-.354 1.04zm3.407 24.806a.15.15 0 0 0 .055-.043.156.156 0 0 0 .034-.132.159.159 0 0 0-.029-.065c-.06-.073-.187-.213-.333-.153-.147.06-.06.287 0 .32s.153.147.273.073zm-.267-7.093a.42.42 0 0 0-.38-.38c-.233 0-.3.14-.28.62a.407.407 0 0 0 .66-.24zm-1.066 5.82a.242.242 0 0 0 .046.093.443.443 0 0 0 .36.174c.127 0 .254.066.434 0a.955.955 0 0 0 .52-.667.719.719 0 0 0-.287-.667.614.614 0 0 0-.62-.033.725.725 0 0 0-.427.533.28.28 0 0 0-.193 0c-.307.074-.667.067-.907.38l.04.454c-.313.28-.466.666-.326.86a.42.42 0 0 0 .5.16c.366-.12.446-.26.413-.72.18-.24.313-.387.447-.567zm-.76 3.514c.246-.24.22-.527-.08-.82a.454.454 0 0 0-.312-.195.456.456 0 0 0-.355.095.971.971 0 0 0-.12.987c.273.28.567.253.867-.067zm13.9 14.6c0-.134-.247-.174-.32-.154a.308.308 0 0 0-.2.24c0 .107.18.174.266.174s.267-.134.254-.26zM48.287 95.7a.16.16 0 0 0-.043.191.16.16 0 0 0 .043.055c.06.067.233.22.333.134s0-.28 0-.314c0-.033-.213-.16-.333-.066z"/>
    <path d="M48.147 96.866c.113 0 .28.167.16.207s-.187.187-.094.493a.476.476 0 0 0 .587.387.7.7 0 0 0 .52-.833c-.08-.38-.306-.4-.333-.667s-.18-.313-.447-.353-.667-.074-.707.3c-.04.373.2.466.314.466zm.173-10.7c.266-.153.273-.553 0-.966a.606.606 0 0 0-.707-.14.872.872 0 0 0-.273.806.847.847 0 0 0 .98.3zm-1.327 2.187a1.333 1.333 0 0 0-1.333-.42.854.854 0 0 0-.267 1.12.993.993 0 0 0 1.167.373.833.833 0 0 0 .433-1.073zM42.96 78.92a1.494 1.494 0 0 0 0-.527c-.073-.247-.433-.293-.667-.14a.413.413 0 0 0-.093.587.553.553 0 0 0 .76.08zm2.62 17.88c-.06.227.066.327.533.42a.4.4 0 0 0-.067-.666.42.42 0 0 0-.467.246zm-3.513-16.387a.5.5 0 0 0 .666.14.48.48 0 0 0 .134-.626.507.507 0 0 0-.667-.134.46.46 0 0 0-.133.62zm3.966 12.541a.408.408 0 0 0-.52.3.533.533 0 0 0 .113.466c.26.207.52.074.747-.146-.007-.24-.04-.54-.34-.62zm-.7-1.887c.24-.207.12-.467 0-.747-.293 0-.6-.1-.726.247a.259.259 0 0 0 0 .1 1.067 1.067 0 0 0-.827.046.444.444 0 0 0-.113.627.667.667 0 0 0 .846.333.74.74 0 0 0 .36-.513.427.427 0 0 0 .46-.093zm2.141 2.306c.666.72 1.253.347 1.653-.16a.966.966 0 0 0 .213-.593 1 1 0 0 0-.38-.74c-.247-.227-.253-.567-.567-.667a1.373 1.373 0 0 0-1.593.467 1.106 1.106 0 0 0-.213 1.04c.127.36.62.347.887.653zm-3.947-10.6c.28-.16.32-.466.106-.846-.213-.38-.46-.434-.666-.294a1.172 1.172 0 0 0-.36.947.667.667 0 0 0 .92.193zm1.926 4.22a.666.666 0 0 0 .206-.666.46.46 0 0 0-.666-.2.512.512 0 0 0-.227.62.726.726 0 0 0 .687.246zm-1.62 5.674a.807.807 0 0 0-.38.98.82.82 0 0 0 1.067.273.567.567 0 0 0 .193-.78c-.153-.32-.633-.573-.88-.473zm-.693-6.634c.113.213.78.287 1.047.113a.667.667 0 0 0 .16-.706.667.667 0 0 0-.847-.327.76.76 0 0 0-.36.92zm1.026 3.014a.806.806 0 0 0 .373-1.22.9.9 0 0 0-1.213-.3 1.073 1.073 0 0 0-.207 1.273.732.732 0 0 0 1.047.247zm49.127 45.106c.033-.234-.38-.667-.667-.707-.287-.04-.527-.08-.667.253-.14.334-.226.474-.346.714a.392.392 0 0 0-.156.31.386.386 0 0 0 .156.31.497.497 0 0 0 .666-.047c.12-.118.26-.213.414-.28a.67.67 0 0 0 .6-.553zm5.013.147v.033c-.067.267.18.353.373.433.267-.113.414-.293.294-.56-.04-.093-.227-.206-.307-.18l-.153.08a.368.368 0 0 0 .04-.133.404.404 0 0 0-.374-.321.408.408 0 0 0-.173.028.387.387 0 0 0-.187.306.472.472 0 0 0 .22.36.31.31 0 0 0 .267-.046zm-2.026 2.88a.449.449 0 0 0 .042-.529.444.444 0 0 0-.129-.137.552.552 0 0 0-.666.073.456.456 0 0 0 .113.667.432.432 0 0 0 .337.109.427.427 0 0 0 .303-.183zm1.393-5.314a.406.406 0 0 0-.468-.029.407.407 0 0 0-.119.116.441.441 0 0 0 .04.667.468.468 0 0 0 .35.098.476.476 0 0 0 .317-.178.508.508 0 0 0-.12-.674zm-.713 6.801a.674.674 0 0 0-.94.126.672.672 0 0 0 .127.94.91.91 0 0 0 1.1-.24c.16-.206.006-.64-.287-.826zm-1.287-3.22a.452.452 0 0 0 .344.045.446.446 0 0 0 .27-.218.46.46 0 0 0 .086-.362.46.46 0 0 0-.214-.305.55.55 0 0 0-.666.213.493.493 0 0 0 .18.627zm-1.806 4.46c-.06.173-.14.606 0 .713s.493-.187.5-.253c0-.2.08-.46-.1-.607s-.367.06-.4.147z"/>
    <path d="M95.72 132.54a.7.7 0 0 0 .48-.286.919.919 0 0 0 .153-.74c1.378.16 2.76.278 4.146.353-.033.113-.053.227-.08.347-.284.05-.549.177-.766.366l-.187-.1a.846.846 0 0 0-.947.5.853.853 0 0 0 .747.914.886.886 0 0 0 .667-.207l.093.08c.38.3.713.14 1.033-.127.194.18.32.474.667.287a.433.433 0 0 0 .22-.513c-.1-.367-.407-.3-.667-.267-.06-.16-.113-.307-.173-.453l.58-.254c.031-.162.047-.327.047-.493l1.62.04h.066a.67.67 0 0 0 .2 0h1.467a.667.667 0 0 0 .32.627.823.823 0 0 0 1.2-.287.663.663 0 0 0 .093-.387l1.147-.053a.505.505 0 0 0 .507-.507.507.507 0 0 0-.507-.506c-12.3.12-24.54-2.667-34.913-9.414a57.165 57.165 0 0 1-15.814-15.646 30.06 30.06 0 0 1-2.213-3.62.197.197 0 0 0-.074-.153c-.023-.019-.05-.032-.079-.039s-.058-.007-.087-.002l-.18-.313a.816.816 0 0 0-.6.087.59.59 0 0 0-.136.659.59.59 0 0 0 .136.194.441.441 0 0 0 .667.107l.06.14a.383.383 0 0 0 .086.587c.06.032.127.046.194.039a30.134 30.134 0 0 0 1.58 2.967.491.491 0 0 0 .126.413.406.406 0 0 0 .214.12c.133.22.273.447.413.667-.167.267-.133.507.153.787a.806.806 0 0 0 .54.233c.12.167.234.347.36.513a.872.872 0 0 0-.533.207c-.413.327-.353 1.013 0 1.127.353.113.533-.074.6.053.067.127.08.447.333.5s.46-.28.614-.513c.333.444.673.889 1.02 1.333a.6.6 0 0 0 .073.5.717.717 0 0 0 .527.227c.067.073.127.153.193.233.42.5.86 1 1.333 1.487a.579.579 0 0 0-.34.153.667.667 0 0 0 .12.827.58.58 0 0 0 .9 0 .592.592 0 0 0 .094-.134c.8.84 1.633 1.647 2.486 2.434a.477.477 0 0 0 0 .413.66.66 0 0 0 .487.247.327.327 0 0 0 .14-.06c.514.453 1.04.893 1.567 1.333a1.101 1.101 0 0 0 0 .947.763.763 0 0 0 .98.44.958.958 0 0 0 .4-.314c.36.28.733.554 1.1.82.055.07.13.123.213.154a41.756 41.756 0 0 0 3.74 2.446.5.5 0 0 0 0 .28.797.797 0 0 0 .967.407.21.21 0 0 0 .08-.073c.493.28.986.553 1.486.813a.513.513 0 0 0 .047.267c.213.473.753.78 1.113.626a.71.71 0 0 0 .234-.173 34.4 34.4 0 0 0 2.073.96.491.491 0 0 0 .567.247c.726.313 1.46.613 2.2.893 0 .253.273.3.52.26v-.053l.98.353a.62.62 0 0 0 0 .213.445.445 0 0 0 .587.254l.08-.04a.853.853 0 0 0 .727.52h.06a.785.785 0 0 0-.06.873c.052.12.124.23.213.327a.377.377 0 0 0-.267.186.602.602 0 0 0 .313.8.763.763 0 0 0 .814-.16.604.604 0 0 0 0-.726.86.86 0 0 0 .38-1.014.95.95 0 0 0-.394-.44c1.273.374 2.56.667 3.853.974a.277.277 0 0 0 0 .227.283.283 0 0 0 .167.153c.142.02.285.02.427 0a.598.598 0 0 0 .066-.247c.56.116 1.12.222 1.68.32a.435.435 0 0 0 .094.1.394.394 0 0 0 .546 0c.314.053.627.107.94.147a1.32 1.32 0 0 0-.16.34.369.369 0 0 0-.293-.134.586.586 0 0 0-.4.225.59.59 0 0 0-.12.442.754.754 0 0 0 .553.613.613.613 0 0 0 .634-.366.951.951 0 0 0 .433.086.145.145 0 0 0 .2.054.144.144 0 0 0 .054-.054zm7.167 5.613a.448.448 0 0 0-.387.127c-.073.093-.153.407-.04.507s.413-.047.513-.127a.319.319 0 0 0-.086-.507zm-2.22 4.093a.494.494 0 0 0 .153.667.46.46 0 0 0 .541-.002.488.488 0 0 0-.014-.778.467.467 0 0 0-.68.113zm1.08-7.066a.61.61 0 0 0-.88.22.718.718 0 0 0 .073.927.891.891 0 0 0 .98-.214.604.604 0 0 0 .134-.507.624.624 0 0 0-.307-.426zm-3.467 5.134a.153.153 0 0 0 .053.18c.034 0 .14 0 .16-.054.02-.053 0-.126 0-.16a.14.14 0 0 0-.213.034zm-51.867-38.808c.054-.073.16-.226.06-.353s-.293 0-.313.053a.255.255 0 0 0 0 .307.173.173 0 0 0 .058.042.169.169 0 0 0 .195-.049zm54.254 36.094a.669.669 0 0 0-.114-.22.582.582 0 0 0-.57-.252.58.58 0 0 0-.47.412 3.65 3.65 0 0 0-.206.94.907.907 0 0 0 .666.813c.207.04.667-.033.667-.46-.347-.62.153-.707.027-1.233zm-2.487 5.426a.5.5 0 0 0-.187.38c.067.294.44.314.58.24a.395.395 0 0 0 .127-.314.396.396 0 0 0-.16-.299.368.368 0 0 0-.36-.007zm1.313-7.313c-.113-.16-.667-.126-.72.12a.424.424 0 0 0 .273.473c.24.047.567-.433.447-.593zM84 135.147c-.187.106-.147.26-.08.406.066.147.313.3.473.16.095-.108.173-.229.233-.36a.452.452 0 0 0-.626-.206zm1.333 3.726a.24.24 0 0 0-.1.24c.04.08.207.1.3.087.094-.013.2-.153.154-.273s-.254-.08-.354-.054zm2.347-5.319a.9.9 0 0 0-.933.186c-.167.2-.347.407-.127.667s.286.44.433.667a.377.377 0 0 0 .338.355.498.498 0 0 0 .502-.635 1.158 1.158 0 0 1 0-.5.668.668 0 0 0-.213-.74zm4.24 4.692c-.054.047-.114.287 0 .36.113.074.28-.066.346-.126.067-.06.054-.194 0-.24a.333.333 0 0 0-.346.006z"/>
    <path d="M85.466 131.287a.194.194 0 0 1-.271-.217.196.196 0 0 1 .078-.117.865.865 0 0 0-.287-1.166.955.955 0 0 0-.773-.06v-.04a.523.523 0 0 0-.544-.306.535.535 0 0 0-.21.072.582.582 0 0 0-.378.357.572.572 0 0 0 .065.517.772.772 0 0 0 .54.446c.03.169.123.319.26.42.209.096.443.122.667.074a.546.546 0 0 0 0 .353.43.43 0 0 0 .547.24.405.405 0 0 0 .306-.573zM103.767 134a.61.61 0 0 0-.054-.813.498.498 0 0 0-.666.053.713.713 0 0 0 .173.873.398.398 0 0 0 .547-.113zm-21.101 2.334c-.08 0-.26.2-.22.3s.294.12.367.086a.266.266 0 0 0 .14-.28.262.262 0 0 0-.287-.106zm1.427-3.001a.453.453 0 0 0-.446-.259.43.43 0 0 0-.175.053c-.186.106-.146.26-.08.406a.3.3 0 0 0 .474.16 1.25 1.25 0 0 0 .226-.36zm6.013 1.934a1.085 1.085 0 0 0-1.333.567c-.113.36.333.566.593.493s.187 0 .387.187a.477.477 0 0 0 .66.097.47.47 0 0 0 .153-.191.933.933 0 0 0-.46-1.153zm.507 1.326a.31.31 0 0 0-.14.26c0 .067.18.247.293.2s.087-.267.067-.36a.185.185 0 0 0-.092-.09.183.183 0 0 0-.128-.01zm1.207-4.019a.449.449 0 0 0-.413-.291.453.453 0 0 0-.174.031.541.541 0 0 0-.28.6.443.443 0 0 0 .421.274.446.446 0 0 0 .172-.041.426.426 0 0 0 .273-.573zm-3.874-1.28c-.067.093.047.313.113.353a.2.2 0 0 0 .073.037.203.203 0 0 0 .159-.018.209.209 0 0 0 .106-.206.207.207 0 0 0-.078-.14c-.06-.053-.32-.113-.373-.026zm-.973 5.559a1.1 1.1 0 0 0-.214 1.453c.247.28.667 0 .727-.253s.087-.167.36-.233a.473.473 0 0 0 .392-.268.467.467 0 0 0-.045-.472.947.947 0 0 0-1.22-.227zm26.62 4.327a.139.139 0 0 0-.009.098.145.145 0 0 0 .055.082c.04 0 .147 0 .16-.054.014-.053.034-.126 0-.16a.14.14 0 0 0-.052-.029.13.13 0 0 0-.114.018.123.123 0 0 0-.04.045zm3.773-1.747a.459.459 0 0 0 .114.667.356.356 0 0 0 .456.049.357.357 0 0 0 .11-.122.437.437 0 0 0 .041-.503.467.467 0 0 0-.428-.218.474.474 0 0 0-.293.127zm-2.1-5.807a.757.757 0 0 0-.048.872.743.743 0 0 0 .214.222.947.947 0 0 0 1.24-.2.994.994 0 0 0-.22-1.2.816.816 0 0 0-.661-.11.829.829 0 0 0-.525.416zm-.453 7.487c-.053.04-.08.307 0 .353.08.047.28-.06.347-.126.067-.067 0-.227 0-.24a.35.35 0 0 0-.347.013zm.98-4.193c-.093.133 0 .4.247.54a.247.247 0 0 0 .4-.08c.107-.18.153-.373-.047-.533a.477.477 0 0 0-.6.073zm-1.88-1.353a.386.386 0 0 0 .06.533c.133.14.62 0 .667-.153a.529.529 0 0 0-.147-.44.353.353 0 0 0-.305-.118c-.057.005-.111.025-.159.056s-.088.072-.116.122zm-.24 3.513a.302.302 0 0 0 .093.306c.087.047.267.134.32 0a.301.301 0 0 0-.04-.313c-.046-.02-.32-.093-.373.007zm9.874-8.354c-.067.094.046.314.113.354a.214.214 0 0 0 .154.044.211.211 0 0 0 .177-.15.22.22 0 0 0-.018-.159.227.227 0 0 0-.053-.062c-.06-.053-.307-.087-.373-.027zm-10.121 9.161a.735.735 0 0 0-.76.113.468.468 0 0 0 .18.62.442.442 0 0 0 .51-.037.428.428 0 0 0 .11-.143c.147-.22.14-.44-.04-.553zm-9.06-2.414c-.266-.186-.573-.086-.813.267a.5.5 0 0 0 .04.707.96.96 0 0 0 1-.1.584.584 0 0 0-.025-.717.584.584 0 0 0-.202-.157zm22.927-7.433a.226.226 0 0 0-.26.04c-.047.067 0 .22.087.293.086.074.233.094.313 0 .08-.093-.1-.28-.14-.333zm-4.867 4.4c-.066.134-.14.514 0 .58.14.067.447-.073.567-.166.12-.094.107-.34-.087-.5a.26.26 0 0 0-.268-.113.27.27 0 0 0-.212.199zm-2.393-5.153a.51.51 0 0 0-.666.12.533.533 0 0 0 .16.666.419.419 0 0 0 .58-.12.467.467 0 0 0-.074-.666zm1.3 1.246c-.18-.087-.38-.113-.46.087s-.133.56 0 .666c.134.107.474-.18.58-.306.107-.127.114-.314-.12-.447zm-1.093 8.607c-.054.107-.094.34 0 .413a.416.416 0 0 0 .413-.04c.073-.066.147-.413.047-.486-.1-.074-.42.04-.46.113zm-1.234-8.313a.8.8 0 0 0-.926.366c-.194.307-.08.607.306.84a.624.624 0 0 0 .754-.153 1.076 1.076 0 0 0-.134-1.053zm-11.6 5.733c-.4-.287-.84-.307-1.02-.047a.86.86 0 0 0 .234.967.782.782 0 0 0 .86-.213.57.57 0 0 0-.074-.707zm.947 3.326a.454.454 0 0 0 .098-.353.448.448 0 0 0-.191-.313.504.504 0 0 0-.667.113.53.53 0 0 0 .153.667c.047.033.1.057.157.07a.435.435 0 0 0 .45-.184zm-.507 4.248c-.093.093-.173.626 0 .766.174.14.627-.213.74-.373a.515.515 0 0 0-.106-.593c-.167-.134-.48.066-.634.2zm-2.9-3.754a.451.451 0 0 0-.348-.111.452.452 0 0 0-.319.177.352.352 0 0 0-.116.297.357.357 0 0 0 .17.27.43.43 0 0 0 .525.087.43.43 0 0 0 .141-.127.44.44 0 0 0-.053-.593zm3.647.76c-.18-.1-.373-.167-.533 0a.554.554 0 0 0 .187.666c.146 0 .3-.106.413-.226a.285.285 0 0 0 .069-.109.277.277 0 0 0-.136-.331zm-3.113-2.234a.57.57 0 0 0 .24.727.61.61 0 0 0 .9-.147.621.621 0 0 0-.054-.82.901.901 0 0 0-1.086.24zm-.62 4a.505.505 0 0 0 .087.667.49.49 0 0 0 .666-.14.532.532 0 0 0-.146-.667.413.413 0 0 0-.495.005.396.396 0 0 0-.112.135zm5.98-5.36a.544.544 0 0 0-.667.18.665.665 0 0 0 .107.82.81.81 0 0 0 .946-.12c.107-.193-.086-.673-.386-.88zm.533 5.454a.313.313 0 0 0 .1.347c.047.02.098.027.149.019a.277.277 0 0 0 .137-.059.292.292 0 0 0 0-.287c-.086-.053-.32-.14-.386-.02zm1.293-10.333a.67.67 0 0 0-.053-.873c-.227-.26-.507-.24-.787.18a7.979 7.979 0 0 0-.187.96.41.41 0 0 0 .387.46.429.429 0 0 0 .487-.354c.034-.13.085-.256.153-.373zm.361 4.206c.113-.093.053-.527-.147-.667s-.293 0-.393.147a.3.3 0 0 0 .113.487c.147.073.314.126.427.033zm-2.788-2.433c-.046-.533-.153-.72-.446-.747a.443.443 0 0 0-.48.274.515.515 0 0 0 .133.666c.313.16.553-.033.793-.193zm-.68-2.853a.716.716 0 0 0 .833.047.988.988 0 0 0 .074-.927c-.667.073-1.334.147-2 .2.046.167.16.313.313.3a.778.778 0 0 1 .78.38zm.741 4.013a.45.45 0 0 0-.393-.147.697.697 0 0 0-.367.407c-.067.353.26.38.527.5.246-.24.426-.474.233-.76zm-17.32.033c-.214.073-.14.347-.08.42s.446.433.606.373.1-.526.04-.566-.347-.3-.567-.227zM56.666 111.58c-.24.1-.153.667.18.947a.458.458 0 0 0 .607 0c.246-.2.38-.614.233-.807-.28-.387-.76-.247-1.02-.14zm-.086 4.04a.749.749 0 0 0-.134.98.806.806 0 0 0 1 .047c.2-.167.153-.667-.073-.933a.547.547 0 0 0-.598-.197.558.558 0 0 0-.196.103zm-.734-1.133c-.166-.12-.526 0-.666.1a.36.36 0 0 0 .046.54c.031.034.07.06.114.076a.282.282 0 0 0 .263-.034.28.28 0 0 0 .09-.102c.113-.12.307-.454.153-.58zm2.627 5.113c-.12-.167-.38 0-.454.053s-.173.24-.053.367a.29.29 0 0 0 .367 0c.08-.02.26-.247.14-.42zm-2.567 2.4a.27.27 0 0 0 0 .274.304.304 0 0 0 .3 0c.053-.054.166-.234 0-.36-.167-.127-.207.046-.3.086zm-.219-4.747a.321.321 0 0 0 0 .174c.04.015.086.015.126 0 0-.054.087-.127.047-.18-.04-.054-.113.006-.173.006zm4.866-.433a.569.569 0 0 0-.093.447c.053.12.466.26.613.12a.42.42 0 0 0 0-.593.32.32 0 0 0-.52.026zm1.34-.946a.404.404 0 0 0 .071-.536.403.403 0 0 0-.144-.131c-.127-.047-.36.16-.534.273a.184.184 0 0 0-.1.116.182.182 0 0 0 .02.151.551.551 0 0 0 .687.127zm-3.133 4.792c-.2.047-.447.507-.3.667.146.16.433.36.666 0 .234-.36-.166-.74-.366-.667zm2.873 2.754c-.087.093-.267.38-.067.573.2.194.427-.033.494-.113a.439.439 0 0 0 0-.407.286.286 0 0 0-.201-.126.291.291 0 0 0-.121.011.286.286 0 0 0-.105.062zm.167-1.807c.073 0 .18-.173.133-.28-.047-.107-.207-.133-.287-.107-.08.027-.253.2-.213.3s.293.12.366.087zm.74-1.113a.104.104 0 0 0-.053.054c-.207 0-.667.366-.534.6a.452.452 0 0 0 .554.22c.147-.074.187-.34.153-.547h.074c.053 0 .206-.16.16-.28-.047-.12-.267-.073-.354-.047zm-7.873-3.233c-.2.146-.054.513-.08.726l.126.074a.432.432 0 0 0 .474-.2.6.6 0 0 0 .16-.367c-.22-.067-.494-.373-.68-.233zm5.473.733c-.167.06-.16.44 0 .56.12.054.25.079.38.073.253-.22.3-.486.133-.573a.655.655 0 0 0-.513-.06zm-.047-2.667c-.16-.667-.786-.367-.733-.8s.427-.2.46-.82-.48-1.013-.86-.8-.353.607-.453.627-.567 0-.58.353c0 .733.666.587.666.807s-.1.666-.04.98c.087.466.42.84.9.666a.8.8 0 0 0 .546-.364.807.807 0 0 0 .094-.649zm-11.227-8a.339.339 0 0 0-.092.409.339.339 0 0 0 .092.118.622.622 0 0 0 .8.167.724.724 0 0 0 .107-.82c-.193-.2-.613-.134-.907.126zm6.52 5.827a.744.744 0 0 0-.06-.886.588.588 0 0 0-.667-.04c-.333.306-.433.733-.22.946a.81.81 0 0 0 .947-.02zm-7.646-7.513a.667.667 0 0 0 0 .773.453.453 0 0 0 .667 0 .518.518 0 0 0 .066-.666.662.662 0 0 0-.733-.107zm3.513-2.387a1.04 1.04 0 0 0-.593-.186c-.247-.087-.8.046-.887.26-.086.213.147.373.374.46a.867.867 0 0 0 .213.353c.26.253.573.213.887-.113a.669.669 0 0 0 .006-.774zm-3.22 9.44a.222.222 0 0 0 0 .254c.06.066.22 0 .307 0s.14-.214.06-.314-.293.027-.367.06zm-.393-13.113c-.154-.28-.234-.634-.594-.78l-.426.146a1.213 1.213 0 0 0-.354-.167.115.115 0 0 0 0-.046c-.053-.127-.266-.094-.306-.06l-.087.073a.32.32 0 0 0-.16.093.42.42 0 0 0 0 .527c.207.327.36.367.793.227.253.143.513.273.78.387a.3.3 0 0 0 .354-.4zm33.287 33.246a.63.63 0 0 0-.343.358.622.622 0 0 0 .03.495c.1.274.446.36.826.207a.437.437 0 0 0 .298-.23.45.45 0 0 0 .015-.377.967.967 0 0 0-.826-.453zM49.96 105.247c-.134-.147-.28-.12-.434.04 0 .06-.033.166 0 .213a.97.97 0 0 1 .167.607c0 .1.22.246.347.26a.575.575 0 0 0 .407-.194.456.456 0 0 0-.04-.38 4.377 4.377 0 0 0-.447-.546zm3.113 7.966c-.126-.166-.32-.073-.46.06-.14.134-.166.434 0 .514.167.08.427.253.574.04.146-.214-.014-.494-.114-.614zm.574 1.033a.563.563 0 0 0-.427 0c-.167.094-.14.467.047.567a.81.81 0 0 0 .346.033c.214-.233.214-.513.034-.6zm.679-4.579a1.026 1.026 0 0 0-1.273-.067c-.353.28-.32.833.067 1.287a.757.757 0 0 0 .513.272.755.755 0 0 0 .553-.179.994.994 0 0 0 .14-1.313zm-3.313 7.82a.415.415 0 0 0-.164.333.42.42 0 0 0 .164.333.387.387 0 0 0 .281.149.4.4 0 0 0 .3-.109c.206-.206.28-.62.132-.766a.662.662 0 0 0-.713.06zM51.16 114a.559.559 0 0 0-.067.713c.153.167.54.127.854-.153 0-.087 0-.274-.04-.387a.555.555 0 0 0-.747-.173zm-.213-2.754a.698.698 0 0 0-.148.504.686.686 0 0 0 1.214.356.624.624 0 0 0 .094-.853.92.92 0 0 0-1.16-.007zm-3.514 2.427c-.066.047-.18.28-.107.36.074.08.32 0 .374-.04a.206.206 0 0 0 .065-.222.206.206 0 0 0-.102-.122.195.195 0 0 0-.078-.023.2.2 0 0 0-.152.047zM74 131.293a.304.304 0 0 0-.267.16c-.04.1.107.227.194.253.086.027.293-.04.326-.166.034-.127-.166-.247-.253-.247zm2.113 1.127c-.066-.194-.513-.16-.753.1s.067.62.233.666c.167.047.587-.58.52-.766zm.04-2.8c-.1-.18-.246-.293-.44-.227a2.668 2.668 0 0 0-1.286.814.836.836 0 0 0-.087.226.573.573 0 0 0 .793.667c.308-.105.599-.25.867-.433a.916.916 0 0 0 .153-1.047zm-3.253 3.447a.468.468 0 0 0 .446.393c.273-.04.433-.667.273-.773-.16-.107-.746.113-.72.38zm-1.053 2.033c-.107.06-.374.273-.247.52s.413.107.507.053a.431.431 0 0 0 .16-.373.285.285 0 0 0-.29-.235.28.28 0 0 0-.13.035zm1.486-5.88a.43.43 0 0 0 .193-.56.326.326 0 0 0-.5-.154.57.57 0 0 0-.226.394c-.02.133.32.433.533.32zm-1.106.266c-.18 0-.3.367-.174.54.127.174.26.154.334.194.313-.127.446-.36.32-.5a.732.732 0 0 0-.48-.234zm3.513 8.887a.363.363 0 0 0 .066.34.41.41 0 0 0 .42 0c.087-.106-.073-.386-.153-.426a.358.358 0 0 0-.333.086zm3.766-3.746a.429.429 0 0 0 .32-.507.568.568 0 0 0-.267-.34c-.24-.113-.413 0-.666.447.146.213.246.513.613.4zm-7.359-6.907a.817.817 0 0 0 .337-.023.808.808 0 0 0 .583-.757c.06-.667-.627-.607-.434-1s.474-.047.707-.62c.233-.573-.12-1.113-.554-1.04-.433.073-.526.453-.626.447-.1-.007-.54-.187-.667.14-.266.666.407.76.394.986-.014.227-.314.587-.367.92-.074.467.126.927.626.947zm7.493 10.66a.968.968 0 0 0-.434 1.126.88.88 0 0 0 1.087.507 1.334 1.334 0 0 0 .493-1.273.879.879 0 0 0-1.147-.36zm-.307-5.906a.49.49 0 0 0 .21-.609.486.486 0 0 0-.577-.285.48.48 0 0 0-.273.587.525.525 0 0 0 .64.307zm-1.253-1.681a.461.461 0 0 0-.42.135.463.463 0 0 0-.12.425.622.622 0 0 0 .38.387.529.529 0 0 0 .453-.18.54.54 0 0 0 .033-.453.53.53 0 0 0-.327-.314zm-2.04 4.187a.678.678 0 0 0-.394.353.665.665 0 0 0-.013.527 1.06 1.06 0 0 0 1.2.56.773.773 0 0 0 .347-.986.835.835 0 0 0-.808-.533.83.83 0 0 0-.332.079zM63.773 126a.433.433 0 0 0-.236.255.421.421 0 0 0 .036.345.384.384 0 0 0 .216.234.393.393 0 0 0 .318-.007c.266-.12.473-.493.38-.667a.704.704 0 0 0-.714-.16zm3.127 5.9a.297.297 0 0 0-.067.267.316.316 0 0 0 .287.107c.066 0 .233-.167.14-.334-.094-.166-.28-.08-.36-.04zm.38-4.907c-.234.073-.22.46-.314.667.033.036.064.074.093.113a.431.431 0 0 0 .514 0 .578.578 0 0 0 .266-.3c-.16-.14-.32-.553-.56-.48zm-.333-1.627c.046-.126-.194-.333-.287-.346a.341.341 0 0 0-.28.206.366.366 0 0 0 .18.3.407.407 0 0 0 .386-.16zm-2.174-5.886c-.126-.153-.54 0-.666.347s.266.567.446.573c.18.007.347-.76.22-.92zm1.827 3.654c.12.113.28.246.44.133s.14-.467.086-.62a.195.195 0 0 0-.153-.14.777.777 0 0 0-.2-.527.848.848 0 0 0-.94-.238.847.847 0 0 0-.287.185.667.667 0 0 0-.14.887.424.424 0 0 0-.347-.047.559.559 0 0 0-.3.667c.094.2.467.293.86.133 0-.087.12-.253.087-.38a.46.46 0 0 0-.067-.14 1.153 1.153 0 0 0 .96.087zm-2.52-5.254a.912.912 0 0 0-.187-1.053.36.36 0 0 0-.493-.067c-.43.293-.76.709-.947 1.194a.743.743 0 0 0 0 .24.582.582 0 0 0 .69.536.574.574 0 0 0 .29-.15c.244-.205.461-.44.647-.7zm5.566 8.187a.766.766 0 0 0-.447.886.797.797 0 0 0 .927.374c.24-.094.367-.58.24-.907a.556.556 0 0 0-.5-.385.567.567 0 0 0-.22.032zm.407 5.459c-.207 0-.587.334-.514.56.074.227.294.487.667.254.373-.234.053-.787-.153-.814zm-1.86-4.052s.107.08.12.066c.014-.013.12-.093.1-.153-.02-.06-.093-.047-.146-.067a.445.445 0 0 0-.074.154zm1.654 3.346c.093 0 .333-.167.28-.367-.054-.2-.36-.14-.447-.1s-.24.167-.173.327a.282.282 0 0 0 .34.14zm1.419-6.907a.88.88 0 0 0-1.2.04.974.974 0 0 0-.04 1.207.884.884 0 0 0 .573.295.884.884 0 0 0 .62-.175 1.28 1.28 0 0 0 .047-1.367zm-1.933-.58a.739.739 0 0 0 .233-.86.575.575 0 0 0-.62-.26c-.413.18-.666.547-.513.827a.813.813 0 0 0 .9.293zm0 1.427c-.114-.173-.494-.167-.634-.113a.345.345 0 0 0-.192.38c.01.05.03.098.059.14.018.042.046.08.081.11a.287.287 0 0 0 .379-.01c.113-.087.413-.334.307-.507zm105.246-49.873h-8.253v8.253h8.253zm19.087 19.087h-8.253v8.253h8.253zm-19.087 0h-8.253v8.253h8.253zm-19.08-19.087h-8.253v8.253h8.253zm0 19.087h-8.253v8.253h8.253zm-21.106-19.087h-8.253v8.253h8.253z"/>
  </g>
  <path fill="#1ba9f5" d="M105.439 32.813a42.666 42.666 0 1 0 0 85.333 42.666 42.666 0 0 0 0-85.332zm0 69.394A26.751 26.751 0 0 1 79.2 70.232a26.753 26.753 0 1 1 50.956 15.465 26.744 26.744 0 0 1-24.717 16.51z"/>
  <path fill="#0a89db" d="M133.935 93.105 123.47 103.57l27.143 27.144 10.465-10.465z"/>
  <path fill="#0d90e0" d="M73.086 74.833a.48.48 0 0 0 .574-.393.58.58 0 0 0-.4-.6.754.754 0 0 0-.614.493c-.026.16.24.46.44.5zm10.287-15.347c.147.054.234-.18.227-.226-.007-.047-.033-.22-.173-.247a.153.153 0 0 0-.182.073.154.154 0 0 0-.018.067c-.007.094-.007.28.146.334zm1-.493c.154-.2.307-.407.474-.6a.433.433 0 0 0-.147-.107c-.28-.086-.667.087-.667.32-.033.12.147.274.34.387zM69.126 76.967a.465.465 0 0 0 .514-.427c.053-.28-.14-.666-.38-.666a.58.58 0 0 0-.667.433.549.549 0 0 0 .533.66zm.327-7.981.22-.226h-.707c.143.11.31.188.487.226zm-4.119 1.401a.426.426 0 0 0 .373-.053.9.9 0 0 0 .293-1 .433.433 0 0 0-.5-.327.74.74 0 0 0-.666.62c-.004.06-.004.12 0 .18v.04c.15.195.317.376.5.54zm1.852-1.627h-.407.054a.587.587 0 0 0 .353 0zm-3.633 8.44a1.114 1.114 0 0 0 .473.847c.28.08.613-.2.707-.6.093-.4-.06-.574-.5-.667a.559.559 0 0 0-.68.42zm5.294-3.427A.92.92 0 0 0 69 73.16c-.08-.207-.333-.34-.533-.533.106-.187.233-.42 0-.667-.62 0-.667.127-.387.667-.12.224-.2.468-.233.72.043.233.157.447.326.613.174.213.494.12.674-.187zm-4.474-1.347a1.273 1.273 0 0 0 1.294.44c.326-.146.253-.586.34-.666.086-.08.593.233.986 0a1.072 1.072 0 0 0 .38-1.187 1.04 1.04 0 0 0-.5-.6.866.866 0 0 0-.953.167c-.207.26-.213.766-.333.82-.12.053-.6-.287-.98-.054a.761.761 0 0 0-.234 1.08zm5.673 3.134a.592.592 0 0 0 .44-.213c.193-.34-.047-.553-.32-.753-.26.106-.553.206-.547.546a.406.406 0 0 0 .427.42zm7.2-19.266c.273.073.593-.22.667-.614a.347.347 0 0 0-.287-.44c-.32-.093-.707.073-.76.313a.728.728 0 0 0 .38.74zM75.24 58.62c-.08.16.1.547.306.667a.341.341 0 0 0 .473-.22c.14-.347.127-.62-.04-.707a.773.773 0 0 0-.74.26zm1.366 2.713h.52a.78.78 0 0 0 .36-.447.54.54 0 0 0-.386-.54c-.46-.073-.8.067-.847.354a.767.767 0 0 0 .353.633zm4.187-5.18a.407.407 0 0 0 .513-.28.367.367 0 0 0-.3-.44.334.334 0 0 0-.42.24.354.354 0 0 0 .207.48zm-.713 1.18c-.334-.073-.567.107-.667.52-.1.414.12.567.526.667a.473.473 0 0 0 .587-.273.974.974 0 0 0-.447-.914zm.22-3.953c.113-.074.086-.387.1-.594a.187.187 0 0 0-.167-.22.547.547 0 0 0-.52.467.406.406 0 0 0 .587.347zm-1.134 3.42a.666.666 0 0 0 .667-.34.666.666 0 0 0-.447-.666.46.46 0 0 0-.513.393.52.52 0 0 0 .293.613zm-1.673.36a.567.567 0 0 0-.226.38c0 .094.14.247.246.294.216.086.44.153.667.2.2.046.307-.054.34-.274-.033-.046-.06-.153-.12-.173a.974.974 0 0 1-.48-.413.466.466 0 0 0-.427-.014zm-4.16 3.02c-.047-.28-.114-.553-.454-.513s-.373.3-.34.567a.508.508 0 0 0 .794-.054zm3.613 14.947a.513.513 0 0 0 .58-.307.706.706 0 0 0-.326-.666.627.627 0 0 0-.614.373.467.467 0 0 0 .36.6zm.454 1.74a.767.767 0 0 0 .88-.447c.06-.233-.387-.733-.667-.787a.627.627 0 0 0-.18 1.234zm-2.8-7.713v.12c-.073.186-.187.26-.36.12-.06-.054-.1-.134-.167-.18a.806.806 0 0 0-.906 0 .666.666 0 0 0-.307.826 1.16 1.16 0 0 0 .78.827c-.055.18-.093.366-.113.553 0 .547.36.76.84.487a.613.613 0 0 0 .18-1.013 4.33 4.33 0 0 0-.42-.367c.186-.113.306-.253.426-.253a.58.58 0 0 0 .627-.594 1.09 1.09 0 0 1 .12-.273c.14-.307.107-.54-.093-.667h-.32a.606.606 0 0 0-.287.414zm-2.32 3.286c-.34 0-.714-.106-.987.26a.765.765 0 0 1-.594.347.726.726 0 0 0-.606.667 1.779 1.779 0 0 0 .986.986c.34-.153.794-.34 1.24-.546.054 0 .08-.187.067-.274a.86.86 0 0 1 .173-.666c.2-.294.027-.76-.28-.774zm2.233.42c-.293-.067-.573.227-.666.667a.593.593 0 0 0 .426.573.853.853 0 0 0 .74-.413.834.834 0 0 0-.5-.827zM78 71.593a.84.84 0 0 0-1.027.527 1.333 1.333 0 0 0 .667 1.186.853.853 0 0 0 .946-.666.987.987 0 0 0-.586-1.047zm-2.18 6.994c-.32-.067-.547.133-.667.56s.053.626.313.666a1.16 1.16 0 0 0 .9-.466.667.667 0 0 0-.546-.76zm2.886-3.64c0-.445.02-.89.06-1.334a.927.927 0 0 0-.327.54.84.84 0 0 0 .267.794zm.167 3.587c0-.214-.047-.434-.067-.667-.06.087-.106.187-.146.247-.04.06.006.34.213.42zM68.18 76a.667.667 0 0 0-.32-.44c-.374-.147-.488.207-.7.453.192.32.366.567.732.447a.374.374 0 0 0 .287-.46zm8.793-6.366a.813.813 0 0 0-.927-.534.847.847 0 0 0 .547 1.58c.326-.066.453-.586.38-1.046zm-11.94 6.626c-.06.22.093.58.293.593.314.071.643.026.927-.126.4-.287.426-.327.193-.84-.24 0-.433-.06-.627-.1a.727.727 0 0 0-.786.473zM79.16 59.893c.04-.3-.293-.667-.666-.727s-.594.147-.667.594a.667.667 0 0 0 .42.666c.266.034.88-.3.913-.533zM74.453 57.2a.74.74 0 0 0 .953-.594.786.786 0 0 0-.493-.92c-.354-.113-.827.26-.947.747a.606.606 0 0 0 .487.767zm.447 3.767a.347.347 0 0 0-.387-.353c-.373 0-.626.12-.666.306a.619.619 0 0 0 .246.407h.594a.666.666 0 0 0 .213-.36z"/>
  <path fill="#0d90e0" d="M72.466 69.22a.62.62 0 0 0 .153-.46h-2.58c.094.373 0 .52-.42.393a.767.767 0 0 0-.933.373.78.78 0 0 0 0 .954.628.628 0 0 0 .9.213c.23-.135.425-.32.573-.54.127-.173.234-.3.454-.287.32 0 .426-.173.426-.466a.94.94 0 0 0 1.427-.18zm-1.92 2.614a.54.54 0 0 0 .6.293.467.467 0 0 0 .454-.407c.04-.34-.454-.873-.667-.84a.988.988 0 0 0-.387.954zm-.952-.048a.547.547 0 0 0-.614.354.706.706 0 0 0 .327.766.786.786 0 0 0 .9-.42c.06-.266-.207-.56-.613-.7zm2.619-13.272c0-.254-.12-.374-.34-.42a.447.447 0 0 0-.554.34.394.394 0 0 0 .36.46.473.473 0 0 0 .534-.38zm-4.46 18.399c-.32-.086-.54.227-.6.407s.287.533.667.433a.492.492 0 0 0 .287-.32.433.433 0 0 0-.354-.52zm-.42-2.539c-.446-1.147-1.12-1.247-1.88-.334a1.57 1.57 0 0 1-.233-.073.494.494 0 0 0-.667.2.613.613 0 0 0 0 .707c.314.666.614.766 1.187.466.433-.22.88-.426 1.333-.666.534.84.667.866 1.187.32a.74.74 0 0 0-.927-.62zm3.887-13.661a.38.38 0 0 0 .28.507.46.46 0 0 0 .58-.287.446.446 0 0 0-.36-.526.406.406 0 0 0-.5.306zm8.893.621h.76a.327.327 0 0 0-.186-.154.442.442 0 0 0-.394.067c-.053.027-.12.047-.18.087zm-12.587 24.16a.753.753 0 0 0-.847.426.52.52 0 0 0 .34.627.666.666 0 0 0 .747-.447.453.453 0 0 0-.24-.606zm3.734-2.514a.827.827 0 0 0 .846-.533c.067-.26-.213-.607-.546-.667-.434-.093-.667 0-.767.347a.78.78 0 0 0 .466.853zm.214 1.16c0-.147-.054-.527-.227-.554-.173-.026-.353.334-.38.467-.027.133.16.26.28.307s.347-.014.327-.22zm1.039 2.214c-.166 0-.586.073-.613.24-.027.166.313.393.46.473.147.08.393-.113.42-.327.027-.213-.053-.393-.267-.386zm-.98 4.52a.354.354 0 0 0-.207.44c.087.34.354.38.667.393.147-.266.36-.48.134-.74a.474.474 0 0 0-.594-.093zm-2.14-7.541a1.113 1.113 0 0 0-1.18.62.887.887 0 0 0 .6.987.86.86 0 0 0 .58-1.607zm1.219-5.186a.467.467 0 0 1-.133-.507.546.546 0 0 0-.513-.553c-.293 0-.373.153-.393.393.005.174-.03.348-.1.507-.2.32-.454.607-.667.927-.907-.254-1.18-.094-1.193.74a.62.62 0 0 0 .813.666 5.64 5.64 0 0 0 1-.546 1.1 1.1 0 0 0 1.22.1 1.147 1.147 0 0 0-.033-1.727zM67.56 82.82c-.225.033-.448.08-.667.14-.447-.347-.887-.407-1.093-.147a.92.92 0 0 0 .166 1.1c.3.247.507.173 1.02-.413.247.18.48.393.754.093a.48.48 0 0 0 .073-.607c-.067-.08-.18-.173-.253-.166zm1.606 4.327a.753.753 0 0 0-.78.62c-.073.386.16.666.607.74a.625.625 0 0 0 .793-.534.734.734 0 0 0-.62-.826zM73 89.14c-.087 0-.28-.054-.34.086s.113.26.16.26a.366.366 0 0 0 .267-.12s-.04-.213-.087-.226zm-3.86-7.806a.527.527 0 0 0-.14-.414.393.393 0 0 0-.354-.053c-.26.146-.253.38-.12.666.233.014.5.087.613-.2zm3.867-1.26a.587.587 0 0 0-.447-.667.386.386 0 0 0-.467.273.493.493 0 0 0 .147.6.547.547 0 0 0 .767-.206zm5.759 4.213a.666.666 0 0 0-.52-.667c-.32-.073-.533.04-.6.32a.787.787 0 0 0 .44.94.706.706 0 0 0 .68-.593zm-.433-3.62c.1-.414-.213-.794-.746-.914a.667.667 0 0 0-.86.52.9.9 0 0 0 .666 1.04.92.92 0 0 0 .94-.646zm-4.667 1.166c-.093.093-.293.207-.373.373-.08.167.126.514.406.554a.407.407 0 0 0 .46-.374.547.547 0 0 0-.493-.553zm-.613-27.573a.933.933 0 0 0 .967-.667.67.67 0 0 0-1.333-.113.626.626 0 0 0 .367.78zM76.82 88.7a.729.729 0 0 0-1.06 0 .667.667 0 0 0 .053.787.527.527 0 0 0 .707.16c.207-.1.667-.187.707-.527s-.287-.306-.407-.42zm.96-19.94a.48.48 0 0 0 .046.3 1.387 1.387 0 0 0 1.48.72c.075-.343.155-.683.24-1.02zm-2.994 12.906a.46.46 0 0 0 .547-.333.475.475 0 1 0-.934-.18.534.534 0 0 0 .387.513zM76 83.42a.44.44 0 0 0-.38-.473c-.367-.047-.667.373-.667.52a.667.667 0 0 0 .667.453.446.446 0 0 0 .38-.5zm-1.573-6.187-.04-.06c.083.093.183.17.293.227a.288.288 0 0 0 .433-.187.345.345 0 0 0-.22-.486.827.827 0 0 0-.44.086.413.413 0 0 0-.306-.473.473.473 0 0 0-.567.52c0 .32-.18.413-.373.593-.494-.506-.92-.473-1.227.06a.886.886 0 0 0-.08.16c-.153.394-.047.62.353.734.4.113.667.153.954-.327.055.157.091.32.106.487a.434.434 0 0 0 .327.506.667.667 0 0 0 .727-.12c.64-.713.653-.993.06-1.72zM74.98 86a.494.494 0 0 0-.528.306.566.566 0 0 0 .314.594.44.44 0 0 0 .513-.314.507.507 0 0 0-.3-.586zm3.84 1.06a.408.408 0 0 0-.52.273.46.46 0 0 0 .3.527.388.388 0 0 0 .52-.266.48.48 0 0 0-.3-.534zm-9.007-31.853a.56.56 0 0 0 .58-.34c.106-.44-.047-.847-.347-.907a.813.813 0 0 0-.78.547c-.06.24.26.653.547.7zm-3.2 37.873a.267.267 0 0 0-.073-.16zM66 60.3c.146 0 .413 0 .466-.173.053-.173-.127-.38-.253-.493s-.287 0-.387.12l-.067.18a.278.278 0 0 0 .122.327.28.28 0 0 0 .118.04zm1.166 1.033h.414c.093-.07.196-.127.306-.167a.587.587 0 0 0 .467-.62c0-.333-.227-.666-.18-.793.047-.127.153-.333.393-.24.24.093.627-.047.794-.547s-.274-1.04-.667-.926c-.393.113-.4.353-.533.293s-.314-.327-.554-.227-.253.874-.193.987c.06.113.347.347.153.533-.193.187-.526.234-.586.507-.06.273-.227.913.126 1.187zm1.007-4.313c.46.16.76-.254.906-.474.147-.22-.266-.667-.666-.667a.447.447 0 0 0-.487.36c-.107.287.013.7.247.78zm3.307-1.373a1 1 0 0 0 .62 1.167 1.033 1.033 0 0 0 1.1-.667c.127-.426-.2-.866-.78-1.026a.751.751 0 0 0-.94.526zm-1.2.9a.48.48 0 0 0-.554.346.446.446 0 0 0 .347.494.393.393 0 0 0 .52-.287.426.426 0 0 0-.313-.553zm.873-3.38c.207.073.313-.12.347-.307.033-.186-.1-.446-.294-.42-.193.027-.486 0-.493.287-.007.287.293.393.44.44zm-1.74 6.746a1 1 0 0 0 .727.973c.267.047.553-.226.613-.593.06-.367-.093-.667-.553-.753-.36-.067-.733.106-.787.373zm.687-7.247a.538.538 0 0 0 .36-.233c.086-.173-.147-.467-.354-.447a.74.74 0 0 0-.306.167c-.047.28.106.513.3.513zM66.413 80.38c.133-.048.262-.106.387-.174.413-.2.553-.46.44-.806a.72.72 0 0 0-.907-.467 7.66 7.66 0 0 1-1.333.26c-.367 0-.78.307-.754.56a.547.547 0 0 0 .534.367c.32-.107.413.12.606.233.194.09.407.13.62.12a.974.974 0 0 0 .407-.093zm-2.16 5.16a.433.433 0 0 0-.24 0l.22.874a.433.433 0 0 0 .366-.347.514.514 0 0 0-.346-.527zm.34-3.107a.993.993 0 0 0-.534-.727c-.253-.066-.44.094-.513.447-.073.353 0 .613.287.667.386.093.706-.074.76-.387zm2.467-1.98a.58.58 0 0 0-.667.3c-.134.447 0 .86.28.94a.773.773 0 0 0 .82-.48.667.667 0 0 0-.433-.76zm-1.487 6.467a.14.14 0 0 0-.146.114c0 .04.073.126.106.126a.134.134 0 0 0 .14-.08.132.132 0 0 0-.052-.138.134.134 0 0 0-.048-.022zm-2.106-11.1a.746.746 0 0 0-.214-.847.46.46 0 0 0-.446.054v1.293h.046a.8.8 0 0 0 .547-.107.294.294 0 0 0 .067-.393zm-.134-3.554a.726.726 0 0 0-.174-.973.771.771 0 0 0 .214-.227.532.532 0 0 0 0-.546c.068.006.138.006.206 0a1 1 0 0 0 .767-1.12.34.34 0 0 0 .2 0 .393.393 0 0 0 .127-.567h-.54a.447.447 0 0 0-.107.293.668.668 0 0 0-.727-.106 41.81 41.81 0 0 0-.4 3.806c.14-.1.294-.233.434-.56z"/>
  <path fill="#294492" d="M33.566 123.433a1.635 1.635 0 0 1-1.433-.846 33.005 33.005 0 0 1-1.673-3.58 1.633 1.633 0 0 1 .92-2.114 1.633 1.633 0 0 1 1.77.385c.148.154.265.336.343.535a28.107 28.107 0 0 0 1.5 3.214 1.617 1.617 0 0 1-.619 2.196 1.61 1.61 0 0 1-.808.21zm-3.44-10.826a1.624 1.624 0 0 1-1.613-1.454 29.025 29.025 0 0 1-.18-3.233v-.733A1.633 1.633 0 0 1 30 105.6a1.632 1.632 0 0 1 1.136.509 1.62 1.62 0 0 1 .444 1.164v.667c0 .962.053 1.924.16 2.88a1.628 1.628 0 0 1-1.44 1.793zm1.127-11.274a1.622 1.622 0 0 1-1.623-1.503 1.64 1.64 0 0 1 .076-.63c.41-1.264.911-2.496 1.5-3.687a1.63 1.63 0 0 1 2.92 1.447 23.352 23.352 0 0 0-1.333 3.246 1.631 1.631 0 0 1-1.54 1.127zm5.8-9.733a1.627 1.627 0 0 1-1.173-2.753 28.727 28.727 0 0 1 2.933-2.667 1.626 1.626 0 1 1 2 2.547 25.898 25.898 0 0 0-2.6 2.373 1.605 1.605 0 0 1-1.16.48zm9.333-6.433a1.626 1.626 0 0 1-.666-3.12 34.99 34.99 0 0 1 3.686-1.334 1.628 1.628 0 1 1 .96 3.114 30.74 30.74 0 0 0-3.333 1.233 1.673 1.673 0 0 1-.627.086zm33.88-2.667a1.627 1.627 0 1 1-.033-3.254c1.233 0 2.48-.066 3.707-.12a1.629 1.629 0 0 1 .153 3.254c-1.26.053-2.533.1-3.793.12zm-7.68 0h-.046c-1.24-.031-2.5-.078-3.78-.14a1.628 1.628 0 1 1 .153-3.253c1.253.06 2.493.106 3.713.133a1.634 1.634 0 0 1-.04 3.26zm-15.173-.107a1.627 1.627 0 0 1-.173-3.247 48.211 48.211 0 0 1 3.866-.266 1.602 1.602 0 0 1 1.68 1.58 1.626 1.626 0 0 1-1.58 1.673c-1.226.04-2.446.12-3.613.247zm34.26-.553a1.627 1.627 0 0 1-.16-3.247c1.233-.127 2.473-.273 3.673-.433a1.628 1.628 0 0 1 .427 3.226c-1.233.167-2.5.314-3.773.447zm11.333-1.707a1.63 1.63 0 0 1-1.617-1.462 1.627 1.627 0 0 1 1.291-1.758 95.372 95.372 0 0 0 3.6-.813 1.63 1.63 0 0 1 .773 3.166c-1.213.294-2.467.574-3.72.834a1.816 1.816 0 0 1-.34-.027zM114 77.107a1.628 1.628 0 0 1-1.399-2.462c.198-.331.507-.581.872-.705a71.72 71.72 0 0 0 3.44-1.273 1.63 1.63 0 0 1 1.207 3.026c-1.167.46-2.38.907-3.594 1.333-.17.056-.348.083-.526.08zm10.473-4.547a1.634 1.634 0 0 1-.78-3.06 52.344 52.344 0 0 0 3.14-1.84 1.627 1.627 0 0 1 1.747 2.746 56.688 56.688 0 0 1-3.334 1.954 1.565 1.565 0 0 1-.746.2zm9.333-6.52a1.628 1.628 0 0 1-1.577-2.005 1.62 1.62 0 0 1 .491-.828c.9-.82 1.76-1.667 2.553-2.527a1.628 1.628 0 0 1 2.4 2.2c-.86.933-1.793 1.86-2.78 2.747a1.62 1.62 0 0 1-1.033.413zm7.167-8.834a1.628 1.628 0 0 1-1.427-2.413c.347-.667.667-1.28.967-1.92.193-.44.393-.88.593-1.333a1.638 1.638 0 0 1 1.536-.965 1.636 1.636 0 0 1 1.479 1.05 1.622 1.622 0 0 1-.035 1.248l-.606 1.333c-.334.727-.667 1.447-1.087 2.154a1.619 1.619 0 0 1-1.367.846zm-9.133-8.086a1.641 1.641 0 0 1-.607-.12 34.34 34.34 0 0 1-3.507-1.667 1.631 1.631 0 0 1-.895-1.61 1.632 1.632 0 0 1 1.182-1.413 1.627 1.627 0 0 1 1.26.163c1.048.57 2.127 1.08 3.233 1.527a1.628 1.628 0 0 1 .432 2.774 1.63 1.63 0 0 1-1.045.366zm13.586-2.453a1.621 1.621 0 0 1-1.619-1.509 1.628 1.628 0 0 1 .079-.632 53.13 53.13 0 0 0 1.027-3.493 1.629 1.629 0 0 1 2.977-.426c.22.371.283.815.176 1.233a52.294 52.294 0 0 1-1.093 3.713 1.63 1.63 0 0 1-1.547 1.114zm-23.086-3.694a1.612 1.612 0 0 1-1.167-.493 19.48 19.48 0 0 1-2.533-3.2 1.627 1.627 0 1 1 2.753-1.74 16.037 16.037 0 0 0 2.113 2.666 1.625 1.625 0 0 1-1.166 2.76zm25.333-7.487h-.04a1.63 1.63 0 0 1-1.478-1.04 1.63 1.63 0 0 1-.109-.626v-.627a19.053 19.053 0 0 0-.2-2.833 1.634 1.634 0 0 1 .772-1.636 1.638 1.638 0 0 1 1.233-.184 1.632 1.632 0 0 1 1.215 1.34c.165 1.103.245 2.218.24 3.333v.713a1.626 1.626 0 0 1-1.66 1.56zm-30-2.666A1.632 1.632 0 0 1 116 31.333c0-.42-.04-.853-.04-1.28v-.107c.006-.91.077-1.82.213-2.72a1.62 1.62 0 0 1 .651-1.064 1.63 1.63 0 0 1 2.569 1.571 15.184 15.184 0 0 0-.18 2.233V30c0 .36 0 .707.04 1.053a1.633 1.633 0 0 1-1.513 1.74zm26.893-8.093a1.62 1.62 0 0 1-1.286-.627 13.32 13.32 0 0 0-2.367-2.34 1.638 1.638 0 0 1-.29-2.29 1.63 1.63 0 0 1 2.29-.29 16.563 16.563 0 0 1 2.953 2.92 1.63 1.63 0 0 1 .18 1.712 1.631 1.631 0 0 1-1.46.915zm-23.533-2.5a1.628 1.628 0 0 1-1.2-2.727 13.671 13.671 0 0 1 3.333-2.667 1.629 1.629 0 0 1 1.614 2.827 10.443 10.443 0 0 0-2.527 2 1.605 1.605 0 0 1-1.24.567zm14-3.467c-.142 0-.283-.02-.42-.06a15.16 15.16 0 0 0-3.333-.513 1.627 1.627 0 0 1-1.56-1.694 1.653 1.653 0 0 1 1.693-1.56c1.37.057 2.73.267 4.053.627a1.627 1.627 0 0 1-.42 3.2z"/>
  <path fill="#1ba9f5" d="M139.447 49.727c-.62.433-8.36 5.033-15.687 6.246a26.738 26.738 0 0 1-9.68 44.8c.42 5.374.98 10.74 1.58 16.1a42.667 42.667 0 0 0 23.787-67.146z"/>
  <path fill="#0066b1" d="M133.333 107.814a.7.7 0 0 0 .047-.147c-.207.18-.4.36-.607.527a.605.605 0 0 0 .56-.38zm4.574-1.901a1.085 1.085 0 0 0 1-.353.667.667 0 0 0-.294-.667c0-.226-.18-.366-.52-.44a.574.574 0 0 0-.666.42.963.963 0 0 0 .166.52.667.667 0 0 0 .314.52zm1.28-1.393c.313.073.642.03.926-.12l.047-.04a.391.391 0 0 0 .38-.214.969.969 0 0 0-.307-.946.48.48 0 0 0-.39-.016.465.465 0 0 0-.167.109.465.465 0 0 0-.109.167.725.725 0 0 0-.667.473c-.073.213.087.573.287.587zm-.521-1.187c0-.053-.04-.167-.093-.187a.833.833 0 0 1-.353-.393c-.154.18-.3.367-.46.547.17.092.346.175.526.246.154.1.274.014.38-.213zm-1.293.38c-.067.08-.134.153-.207.227a.573.573 0 0 0 .107-.04.28.28 0 0 0 .07-.083.271.271 0 0 0 .03-.104zM137 107.7c.011.062.041.12.084.167a.334.334 0 0 0 .163.093c.106 0 .193-.154.186-.26-.006-.107-.113-.234-.226-.214a.221.221 0 0 0-.143.069.225.225 0 0 0-.064.145zm.653 4.34c.066-.167.106-.354-.1-.467a.482.482 0 0 0-.362.006.482.482 0 0 0-.258.254c.08.107.153.293.293.38s.353.02.427-.173zm-1.96-1.307c.16.105.35.154.54.14.111.032.225.05.34.053.06-.1.12-.193.167-.286.057-.039.11-.081.16-.127a2.78 2.78 0 0 0-.153-.56.666.666 0 0 0-.734-.387.738.738 0 0 0-.573.747.64.64 0 0 0 .083.236.636.636 0 0 0 .17.184zm5.093-10.786-.26-.254-.193.28a.868.868 0 0 0 .453-.026zm-10.653 10.28.106.113a.382.382 0 0 0 .074-.12.984.984 0 0 0 0-.133zm11.506-4.801a.497.497 0 0 0 .294-.326.421.421 0 0 0-.168-.445.428.428 0 0 0-.152-.069c-.32-.093-.54.22-.6.4s.28.534.626.44zm-11.285 4.994.32.32a.395.395 0 0 0-.32-.32zm8.099-.32a1.03 1.03 0 0 0-.54-.726.375.375 0 0 0-.194 0h-.04a.558.558 0 0 0-.273.426c-.087.394 0 .607.287.667.386.113.706-.053.76-.367zm-1.827 2.247c.147-.033.407-.16.393-.287a.47.47 0 0 0-.28-.32c-.106 0-.433.114-.453.24-.02.127.273.38.34.367zm7.034-1.014h-.08a.581.581 0 0 0-.327-.293 1.107 1.107 0 0 0-1.18.613.873.873 0 0 0 .6.987.858.858 0 0 0 1.013-.54.992.992 0 0 0 0-.447.138.138 0 0 0 .054-.053.169.169 0 0 0-.01-.225.169.169 0 0 0-.07-.042zm-.667-2.34a.477.477 0 0 0-.134-.407.386.386 0 0 0-.36-.06c-.253.147-.253.38-.113.667.233.02.493.093.607-.2zm-1.28 3.9a.416.416 0 0 0 .506.194c.207-.1.214-.254 0-.667a.393.393 0 0 0-.207-.007c-.068.015-.132.049-.183.097s-.089.109-.11.176a.404.404 0 0 0-.006.207zm2.953-8.007a.596.596 0 0 0-.5 0 .572.572 0 0 0-.313-.133c-.287 0-.367.153-.387.393a2.159 2.159 0 0 1-.06.374.164.164 0 0 0-.038-.082.17.17 0 0 0-.075-.052.169.169 0 0 0-.187.047.177.177 0 0 0-.033.06c0 .093-.053.28.087.353h.06c-.167.24-.36.48-.554.727-.9-.253-1.173-.093-1.186.747a.616.616 0 0 0 .222.558.617.617 0 0 0 .591.108c.161-.053.315-.124.46-.213.247.187.473.48.86.467l.327-.314c.42.067.806-.046.873-.28a.396.396 0 0 0-.067-.386 1.207 1.207 0 0 0-.24-1.427.568.568 0 0 1-.126-.18.48.48 0 0 0 .346.1c.22-.1.174-.733-.06-.867zm2.841 1.84h.08l-.4-.4a.4.4 0 0 0 .32.4zm-.661-.726-.94-.934-.066.094a1.234 1.234 0 0 0-.074.166c-.153.387-.046.614.354.727a.777.777 0 0 0 .726-.053zm.02 1.747a.589.589 0 0 0-.447-.7.374.374 0 0 0-.403.137.367.367 0 0 0-.063.136.48.48 0 0 0 .146.593c.061.041.13.069.202.082a.545.545 0 0 0 .565-.248zm-6.319 1.586a.766.766 0 0 0 .813-.48.667.667 0 0 0-.446-.76.554.554 0 0 0-.48.107c.048-.092.081-.191.1-.294l.12-.053c.42-.207.56-.467.446-.813a.72.72 0 0 0-.358-.419.72.72 0 0 0-.548-.048 8.425 8.425 0 0 1-1.334.267c-.36 0-.773.3-.746.553.026.253.42.407.533.367.287-.1.393.08.56.2a.482.482 0 0 0 0 .093.705.705 0 0 0 .553.507.593.593 0 0 0 .5-.147c-.126.467 0 .867.287.92zm1.173-6.08c-.374-.147-.494.213-.7.453.193.32.366.567.733.447a.361.361 0 0 0 .242-.169.38.38 0 0 0 .045-.291.72.72 0 0 0-.32-.44zm-.027-2.233c.043.233.157.447.327.613a.35.35 0 0 0 .48 0l-.794-.793a.421.421 0 0 0-.013.18zm1.42 2.547a.57.57 0 0 0-.626.433.558.558 0 0 0 .275.6.554.554 0 0 0 .225.067.482.482 0 0 0 .513-.434c.053-.306-.167-.66-.387-.666zm.786-.34a.547.547 0 0 0 .14 0l-.533-.534a.47.47 0 0 0 0 .14.405.405 0 0 0 .393.394z"/>
  <path fill="#0066b1" d="M134.973 107.933c-.16.367-.086.667.18.78a.913.913 0 0 0 .514-.053.977.977 0 0 0 .4.6c.4.207.92.153.973-.247a1.561 1.561 0 0 0-.293-1.013c-.14-.26-.507-.167-.374-.487.114-.255.144-.54.087-.813a.828.828 0 0 0 .633-.44.541.541 0 0 0-.293-.593c-.44-.154-.8-.074-.893.206a.664.664 0 0 0 .08.467.793.793 0 0 0-.754.453.89.89 0 0 0-.446-.42c-.347.334-.7.66-1.06.98a.663.663 0 0 0 .506.5 1.139 1.139 0 0 0 .967-.526c.019.072.053.14.1.2a.66.66 0 0 0-.327.406zm3.42-5.393c.313.666.613.766 1.186.466.434-.22.874-.426 1.334-.633.533.84.666.867 1.18.327a.671.671 0 0 0-.494-.614.316.316 0 0 0 .107-.14.35.35 0 0 0-.005-.291.347.347 0 0 0-.222-.189.315.315 0 0 0-.128-.033.329.329 0 0 0-.318.2c-.44-.747-1.034-.72-1.687.067a1.397 1.397 0 0 1-.22-.067c-.233.3-.473.593-.713.887zm5.767 13.907a.61.61 0 0 0-.107-.727 2.728 2.728 0 0 0-.42-.353.52.52 0 0 0-.04-.094v-.233a.914.914 0 0 0-.58-.833 1.062 1.062 0 0 0-.534.019 1.063 1.063 0 0 0-.459.274.564.564 0 0 0-.14.38.814.814 0 0 0 .353.667c0 .326.2.573.607.633.047.003.093.003.14 0v.107c0 .346.127.473.46.513a.666.666 0 0 0 .72-.353zm2.213-2.447c-.167 0-.587.073-.614.24-.026.167.314.393.46.473.147.08.394-.113.414-.326.02-.214-.047-.387-.26-.387zm1.147-4.5c-.094.093-.294.207-.367.373-.073.167.127.514.407.554a.41.41 0 0 0 .308-.09.419.419 0 0 0 .152-.284.557.557 0 0 0-.5-.553zm-2.127 9.04c-.085.032-.154.096-.193.178s-.044.176-.013.262c.086.34.353.38.666.394.147-.26.36-.48.127-.74a.471.471 0 0 0-.587-.094zm1.467-1.733c-.087 0-.28-.053-.347.087-.066.14.12.26.167.26a.36.36 0 0 0 .267-.12s-.04-.214-.087-.227zM145.006 112c.153.06.347 0 .327-.22s-.06-.52-.227-.553c-.167-.034-.36.333-.38.466-.02.134.16.307.28.307zm.327 2.707a.386.386 0 0 0 0-.667c-.353-.12-.573.287-.5.487a.422.422 0 0 0 .5.18zm3.5-1.061a.485.485 0 0 0-.52.3.56.56 0 0 0 .307.594.436.436 0 0 0 .513-.314.486.486 0 0 0-.3-.58zm3.793-1.693a.508.508 0 0 0 0-.174l-.513-.52c-.32-.066-.527.04-.593.32-.1.4.119.88.433.94a.7.7 0 0 0 .673-.566zm.04 2.773a.413.413 0 0 0-.52.273.464.464 0 0 0 .456.555.404.404 0 0 0 .159-.042.385.385 0 0 0 .199-.253.476.476 0 0 0-.294-.533zm-1.999 1.641a.75.75 0 0 0-.53-.226.732.732 0 0 0-.53.226.672.672 0 0 0-.103.402c.01.142.065.276.156.385a.522.522 0 0 0 .7.16c.213-.1.667-.187.707-.527s-.274-.307-.4-.42zm-.801-5.28a.445.445 0 0 0-.387-.474.668.668 0 0 0-.667.52.67.67 0 0 0 .7.454.45.45 0 0 0 .274-.182.45.45 0 0 0 .08-.318zm-4.746-.42a.828.828 0 0 0 .847-.534c.066-.26-.214-.606-.547-.666-.433-.094-.667 0-.767.346a.783.783 0 0 0 .467.854zm3.546-1.334a.46.46 0 0 0 .54-.347.501.501 0 0 0-.413-.56.483.483 0 0 0-.52.38.52.52 0 0 0 .393.527zm-9.78 7.8a.75.75 0 0 0-.627.04.43.43 0 0 0-.353-.3c-.314-.06-.447.2-.594.453.06.087.121.187.181.267l.093.087a.359.359 0 0 0 .373.06l.087-.054a.804.804 0 0 0 .113.227.213.213 0 0 0 .107.147.73.73 0 0 0 .326.246.424.424 0 0 0 .177.019.422.422 0 0 0 .169-.052.427.427 0 0 0 .214-.273.665.665 0 0 0-.266-.867zm-1.093-1.679a.667.667 0 0 0 0-.167.999.999 0 0 0 .606-.433c.174-.267 0-.567-.04-.88a.56.56 0 0 0 .107-.207.478.478 0 0 0-.087-.353c-.033-.667-.613-.86-1.173-.86a.978.978 0 0 0-.593.206 1.261 1.261 0 0 0-.16.167.912.912 0 0 0-.487-.26c-.353-.067-.593.147-.667.593a.67.67 0 0 0 .427.667.916.916 0 0 0 .473-.107.785.785 0 0 0-.1.594 1.439 1.439 0 0 0 .874.886v.04c-.04.174.346.374.506.427s.3-.08.314-.313z"/>
  <path fill="#0066b1" d="M135.86 112.5a1.065 1.065 0 0 0-.294-1.26.81.81 0 0 0-1.06.194.758.758 0 0 0 .12 1.173.894.894 0 0 0 1.234-.107zm-1.067-2.347a.842.842 0 0 0 .277-1.102.845.845 0 0 0-1.07-.384c-.313.113-.367.666-.227 1.093a.826.826 0 0 0 1.02.393zm-.467 3.98a.554.554 0 0 0-.2.093l.973.974c.035-.129.053-.261.054-.394a.822.822 0 0 0-.827-.673zm-1.306-4.993a.752.752 0 0 0-.582.024.735.735 0 0 0-.385.436c-.14.36.187.88.667 1.06a.657.657 0 0 0 .52-.038.658.658 0 0 0 .333-.402c.173-.64.013-.78-.553-1.08zM144 120.36c-.247-.14-.627.067-.813.44a.516.516 0 0 0 .22.627.668.668 0 0 0 .8-.2.748.748 0 0 0-.207-.867zm-11.334-9.4a.75.75 0 0 0-.833.277.755.755 0 0 0-.127.283.912.912 0 0 0 0 .266l1.054 1.047c.226-.033.32-.207.413-.387.066-.106.118-.22.153-.34a.705.705 0 0 0 .08-.166c.1-.427-.2-.84-.74-.98zm8.427 5.746a.832.832 0 0 0-.453-1 .58.58 0 0 0-.438.016.562.562 0 0 0-.295.324.847.847 0 0 0 .18.98.811.811 0 0 0 1.006-.32zm-9.807-7.326a.493.493 0 0 0-.166.354c0 .133-.074.253 0 .386.073.134.293.094.406-.073a.74.74 0 0 0 .087-.54.222.222 0 0 0-.13-.149.217.217 0 0 0-.197.022zm10.267 9.373a.7.7 0 0 0-.813.173.797.797 0 0 0 .326.94.724.724 0 0 0 .86-.36c.154-.306.027-.56-.373-.753zm-.173-5.593a.753.753 0 0 0-.84.433.512.512 0 0 0 .333.62.67.67 0 0 0 .754-.447.447.447 0 0 0 .006-.356.45.45 0 0 0-.253-.25zm-1.02-1.54a.418.418 0 0 0 .153-.054.426.426 0 0 0 .213-.286l.1-.114c.247.18.48.394.747.094a.475.475 0 0 0 .08-.607c-.053-.073-.16-.173-.233-.167l-.24.04a.475.475 0 0 0 .104-.348.455.455 0 0 0-.057-.177.443.443 0 0 0-.121-.141.68.68 0 0 0-.24-.135.674.674 0 0 0-.74.248.836.836 0 0 0-.173.373.44.44 0 0 0-.32.14.942.942 0 0 0 .167 1.1.398.398 0 0 0 .56.034zm-1.167 2.86c-.193.174-.393.367-.26.667a.405.405 0 0 0 .392.262.409.409 0 0 0 .161-.042.553.553 0 0 0 .294-.38c0-.32-.267-.467-.587-.507z"/>
  <path fill="#294492" d="M175.172 25.74c1.935-2.095 2.189-5.01.566-6.509s-4.508-1.014-6.444 1.082c-1.936 2.097-2.189 5.011-.566 6.51 1.623 1.499 4.508 1.014 6.444-1.082z"/>
  <path fill="#7de2d1" d="M155.779 18.4c.8 2.207 6.88 2.633 9.067 2.72a1.41 1.41 0 0 0 1.213-.607l.267-.387a1.395 1.395 0 0 0 .133-1.333c-.853-2-3.426-7.54-5.766-7.5-2.134.04-3.827 2.62-3.827 2.62s-1.813 2.487-1.087 4.487z"/>
  <path fill="#7de2d1" d="M159.213 12.053c-.246 2.327 5.034 5.38 6.96 6.407a1.43 1.43 0 0 0 1.334 0l.406-.233a1.405 1.405 0 0 0 .754-1.167c.106-2.187.22-8.28-1.907-9.273-1.933-.9-4.587.666-4.587.666s-2.74 1.48-2.96 3.6z"/>
  <path fill="#42d4c6" d="M160.666 11.274a3.212 3.212 0 0 0-1.406.38 2.713 2.713 0 0 0-.074.4c-.26 2.413 5.42 5.593 7.154 6.513-.907-2.167-3.38-7.333-5.674-7.293z"/>
  <path fill="#7de2d1" d="M188.206 27.78c-.8-2.2-6.88-2.667-9.066-2.713a1.4 1.4 0 0 0-1.213.606l-.261.387a1.393 1.393 0 0 0-.14 1.333c.86 2 3.427 7.547 5.774 7.507 2.133-.04 3.826-2.62 3.826-2.62s1.807-2.493 1.08-4.5z"/>
  <path fill="#7de2d1" d="M184.78 34.133c.247-2.333-5.04-5.38-6.967-6.413a1.406 1.406 0 0 0-1.333 0l-.407.226a1.394 1.394 0 0 0-.74 1.174c-.113 2.186-.22 8.286 1.907 9.273 1.933.9 4.587-.667 4.587-.667s2.726-1.473 2.953-3.593z"/>
  <path fill="#42d4c6" d="M177.619 27.62c.933 2.16 3.413 7.333 5.68 7.293.492-.02.974-.151 1.407-.386.031-.13.056-.261.073-.394.253-2.413-5.447-5.6-7.16-6.513z"/>
  <path fill="#00bfb3" d="M57.106 44.174H.333v7.433h56.773z"/>
  <path fill="#ff957d" d="M85.16 61.326H25.147v7.433H85.16z"/>
  <path fill="#fa744e" d="M63.333 68.76h21.833v-7.427h-19.96a42.007 42.007 0 0 0-1.873 7.427z"/>
  <path fill="#294492" d="M153.753 43.7a1.624 1.624 0 0 1-1.59-2.016 1.62 1.62 0 0 1 .503-.831c.9-.787 1.833-1.627 2.767-2.487a1.632 1.632 0 0 1 2.206 2.4c-.96.88-1.906 1.734-2.826 2.534-.293.257-.67.4-1.06.4zm8.353-7.82a1.624 1.624 0 0 1-1.503-1.007 1.62 1.62 0 0 1 .356-1.773c1.6-1.594 2.594-2.667 2.6-2.667a1.628 1.628 0 0 1 2.36 2.233c-.04.04-1.033 1.087-2.666 2.714a1.64 1.64 0 0 1-1.147.5z"/>
  <path fill="#f04e98" d="M54.22 21.241 41.506 33.955a3.807 3.807 0 0 0 0 5.383L54.22 52.052a3.807 3.807 0 0 0 5.383 0l12.714-12.714a3.807 3.807 0 0 0 0-5.383L59.603 21.24a3.807 3.807 0 0 0-5.383 0z"/>
  <path fill="#01ada1" d="M31.247 47.473a.621.621 0 0 0-.367-.807c-.26-.126-.573.054-.74.42a.455.455 0 0 0 .193.667.974.974 0 0 0 .914-.28zm-10.027 3.76c-.053.107.12.254.2.307a.18.18 0 0 0 .227-.08.293.293 0 0 0-.074-.287c-.053-.04-.3-.046-.353.06zm2.36-4.853c.12.053.247-.133.293-.213a.234.234 0 0 0-.093-.24.446.446 0 0 0-.273.146c-.06.074-.04.254.073.307zm2.453 3.88c-.26-.04-.52-.12-.773-.18a.38.38 0 0 0-.607.113.5.5 0 0 0 .194.667c.143.089.266.207.36.347a.732.732 0 0 0 .446.393h.287a.968.968 0 0 0 .473-.767c-.02-.246-.026-.52-.38-.573zm1.18-2.694a.301.301 0 0 0-.453.214c.006.144.035.285.086.42a.46.46 0 0 0 .594-.28c.06-.207-.074-.294-.227-.354zm5.713-.366a.46.46 0 0 0 .62-.193.775.775 0 0 0 0-.12.42.42 0 0 0 .267-.273.407.407 0 0 0-.14-.34.506.506 0 0 0-.414 0 .366.366 0 0 0-.093.113.52.52 0 0 0-.527.26.46.46 0 0 0 .287.553zm-3.54 3.734a.426.426 0 0 0-.553.2.414.414 0 0 0 .04.473h.746a.377.377 0 0 0 .074-.107.452.452 0 0 0-.307-.566zM29.2 49.02c.06-.207-.074-.287-.227-.354-.153-.066-.433 0-.453.214.004.144.034.286.086.42a.447.447 0 0 0 .594-.28zM27.186 46a.26.26 0 0 0 .094.3c.1.046.24-.054.28-.12.04-.067.046-.327-.054-.367s-.293.093-.32.187zm-3.939 1.56c-.374-.04-.48.447-.354.667s.054.173-.093.413-.22.667.26.773a.934.934 0 0 0 1.033-.666 1.086 1.086 0 0 0-.846-1.187zm20.326-.86c-.287-.667-.827-.273-.973-.447-.147-.173-.18-.633-.374-.913a.733.733 0 0 0-1.106-.253.807.807 0 0 0-.134 1.18.398.398 0 0 0-.04.073.88.88 0 0 0 .567.82.786.786 0 0 0 .4 0 .52.52 0 0 0 0 .507c.227.573.86.726 1.113.366.254-.36.074-.666.154-.753.08-.087.52-.26.393-.58zm1.527.78a.555.555 0 0 0-.18 0 .48.48 0 0 0-.313-.374.72.72 0 0 0-.747.487.394.394 0 0 0 .32.493c.1.03.207.03.307 0a.533.533 0 0 0 .2.507c.426.233.786-.127.966-.32s-.146-.707-.553-.793zm.607-2.86a.667.667 0 0 0-.754-.353c-.12 0-.233.04-.36.06l-.12-.153h-1.7c0 .04.06.08.094.113a.84.84 0 0 0 .14.247c-.134.46.133.707.5.907-.094.24-.32.466 0 .706a.42.42 0 0 0 .553 0c.3-.226.127-.486 0-.74l.353-.326.447.44c.165-.03.325-.077.48-.14a.628.628 0 0 0 .22-.234.667.667 0 0 0 .207-.233.301.301 0 0 0-.06-.294zm-10.994 2.353a.46.46 0 0 0 0-.773.627.627 0 0 0-.546 0 .52.52 0 0 0-.194.446.534.534 0 0 0 .74.327zm6.267-2.206c.087-.14-.053-.487-.24-.593h-.22a.42.42 0 0 0-.253.393c.04.247.606.367.713.2zm-2.76 2.813c-.127.36 0 .666.246.766a.913.913 0 0 0 1.014-.453.667.667 0 0 0-.454-.667.574.574 0 0 0-.806.354zm-2.82-3.406h-.553c.046.133.1.24.16.267s.326-.067.393-.267zm3.12 2.833c.44-.567.707-.133 1.153-.433a.852.852 0 0 0 .16-.187.58.58 0 0 0-.533-.907c-.323.008-.644.06-.953.154a.9.9 0 0 0-.494.94c.034.206.274.606.667.433zm.98-1.674a.32.32 0 0 0 .46-.233.6.6 0 0 0-.107-.447c-.093-.087-.533-.047-.607.14a.426.426 0 0 0 .254.54zm-7.927.507c.26-.08.293-.294.18-.787-.253-.047-.54-.193-.727.14a.433.433 0 0 0 .12.587.506.506 0 0 0 .427.06zm16.58 4.413a.447.447 0 0 0-.6.247.4.4 0 0 0 .287.513.46.46 0 0 0 .58-.293.362.362 0 0 0-.13-.405.36.36 0 0 0-.137-.062zm-3.1-.573a.248.248 0 0 0-.1 0 .867.867 0 0 0-.467-.453.707.707 0 0 0-.773.533.43.43 0 0 0 0 .16 1.44 1.44 0 0 0-.094.56c.047.127.287.4.067.554-.22.153-.56.14-.667.406l-.04.094a.38.38 0 0 0-.173-.1.667.667 0 0 0-.487.146h1.914a.606.606 0 0 1 0-.326c.073-.154.213-.3.433-.167.22.133.62.053.867-.42.246-.473-.094-1.04-.48-.987zm2.1 1.047c-.227-.06-.58.233-.627.52a.333.333 0 0 0 .16.36h.873a.266.266 0 0 0 .074-.127.74.74 0 0 0-.48-.753zm-1.693.879h1.133a.947.947 0 0 0-.326-.2.666.666 0 0 0-.807.2zm2.253-2.213c.12-.453-.114-.787-.667-.913a1.168 1.168 0 0 0-.36 0 .48.48 0 0 0-.447.227.96.96 0 0 0-.173.34.818.818 0 0 0 .74.953.834.834 0 0 0 .907-.607zm3.9.321a.267.267 0 0 0 .227-.054l-1.073-1.073a1.08 1.08 0 0 0-.274.373.6.6 0 0 0 .354.834.714.714 0 0 0 .766-.08zm-2.533 1.48a.474.474 0 0 0-.454.413h.893a.367.367 0 0 0-.44-.413zm3.493-.794c-.4-.053-.893.033-1.04.267a.194.194 0 0 0-.04.113c.113.38-.187.52-.393.727a.48.48 0 0 0-.074.1h1.247a.43.43 0 0 1 .28-.2c.067.06.133.146.2.2h.58a.76.76 0 0 0 .113-.04.254.254 0 0 0 .1-.22z"/>
  <path fill="#01ada1" d="M49.18 47.413a.83.83 0 0 0-.247-.08.666.666 0 0 0 .22 0 .56.56 0 0 0 .226-.113l-1.533-1.533c-.087.186-.16.346-.233.36-.074.013-.667-.487-1.187-.28a.94.94 0 0 0-.507 1.193 1.58 1.58 0 0 0 1.48.826c.427-.113.44-.666.56-.713s.474.253.887.287a.746.746 0 0 0-.667.427.907.907 0 0 0-.073.546.726.726 0 0 0-.113.24.975.975 0 0 0 .813 1.154.94.94 0 0 0 1.147-.714.748.748 0 0 0-.107-.666.986.986 0 0 0-.667-.934zM42.14 50a.087.087 0 0 1 0-.04.5.5 0 0 0 .38-.38.46.46 0 0 0-.42-.493.433.433 0 0 0-.247 0 .833.833 0 0 0-.927.34.827.827 0 0 0-.32-.134.494.494 0 0 0-.667.294.954.954 0 0 0 .467.893.566.566 0 0 0 .667-.453c.066.058.14.108.22.146a.591.591 0 0 0 .846-.173zm-6.06 1.606h.7a.808.808 0 0 0-.2-.147.374.374 0 0 0-.5.147zm.36-2.379c.113-.293 0-.707-.213-.793a.86.86 0 0 0-.6.04.433.433 0 0 0-.26-.167.473.473 0 0 0-.514.26 1.566 1.566 0 0 0-.853-.12.668.668 0 0 1-.367-.067.586.586 0 0 0-.966.287.339.339 0 0 0-.14-.1.526.526 0 0 0-.554.38.54.54 0 0 0 .247.72.454.454 0 0 0 .573-.307c.12.096.262.16.414.187a.88.88 0 0 1 .58.26.934.934 0 0 0 .893.22.813.813 0 0 0 .62-.667v-.086a.76.76 0 0 0 .407.406c.293.114.573-.073.733-.453zm1.227-4.56a.58.58 0 0 0-1.054.053c-.117.24-.204.492-.26.753a.114.114 0 0 0-.093-.093.14.14 0 0 0-.147.113c0 .04.074.12.107.127a.14.14 0 0 0 .1-.033.92.92 0 0 0 .607.927.36.36 0 0 0 .473-.147c.27-.443.397-.957.367-1.474a1.003 1.003 0 0 0-.1-.226zm-2.054 6.539a.507.507 0 0 0-.666.287.313.313 0 0 0 0 .113h.94a.453.453 0 0 0-.274-.4zm3.433-1.346A.813.813 0 0 0 38 51.074a.42.42 0 0 0-.094.18.526.526 0 0 0 0 .353h.76v-.04a.473.473 0 0 0 0-.193.948.948 0 0 0 .667-.534.76.76 0 0 0-.287-.98zm3.407 1.513c.08-.187-.06-.4-.167-.533-.107-.134-.387 0-.473.16s0 .42.153.466c.153.047.407.087.487-.093zm-11.067-.566c-.353-.133-.746 0-.84.22a.787.787 0 0 0 .107.58h1.127a.574.574 0 0 0-.394-.8zm8.527.8h.533a.554.554 0 0 0-.2-.094.406.406 0 0 0-.333.094zm.087-2.78a.454.454 0 0 0-.267-.313c-.113 0-.433 0-.487.146-.053.147.2.367.314.434.113.066.44-.08.44-.267z"/>
  <path fill="#fff" d="M58.54 39.7h-3.66l-1.22-11.393h6.1zm.406 5.083a2.237 2.237 0 1 0-4.473 0 2.237 2.237 0 0 0 4.473 0z"/>
</svg>
