<svg xmlns="http://www.w3.org/2000/svg" width="32" height="32" viewBox="0 0 32 32">
  <g fill="none" transform="translate(0 4)">
    <rect width="22" height="6" x="5" y="15" fill="#0078A0" rx="1"/>
    <rect width="4" height="6" x="14" y="8" fill="#0078A0"/>
    <circle cx="16" cy="5" r="2" fill="#0078A0"/>
    <path fill="#30A9E5" d="M0,11 L4,11 L4,11 C5.1045695,11 6,11.8954305 6,13 L6,23 L6,23 C6,24.1045695 5.1045695,25 4,25 L0,25 L0,11 Z M28,11 L32,11 L32,25 L28,25 L28,25 C26.8954305,25 26,24.1045695 26,23 L26,13 L26,13 C26,11.8954305 26.8954305,11 28,11 Z"/>
    <path fill="#00BFB3" d="M23,0 L26.5,0 L26.5,0 C27.3284271,0 28,0.67157288 28,1.5 L28,1.5 L28,1.5 C28,2.32842712 27.3284271,3 26.5,3 L23,3 L23,0 Z"/>
    <circle cx="16" cy="18" r="6" fill="#00C1B3"/>
    <circle cx="16" cy="18" r="3" fill="#00BFB3"/>
    <path fill="#00BFB3" d="M13.5,5 L20,5 L20,8 L13.5,8 L13.5,8 C12.6715729,8 12,7.32842712 12,6.5 L12,6.5 L12,6.5 C12,5.67157288 12.6715729,5 13.5,5 Z M22,0 L23,0 L23,6 L23,6 C23,7.1045695 22.1045695,8 21,8 L20,8 L20,2 L20,2 C20,0.8954305 20.8954305,0 22,0 Z"/>
  </g>
</svg>
