<svg xmlns="http://www.w3.org/2000/svg" width="58" height="58" fill="none" viewBox="0 0 58 58"><path fill="#0b64dd" stroke="#101c3f" stroke-miterlimit="10" stroke-width=".453" d="M42.739 6.344h-32.72a2.8 2.8 0 0 0-2.8 2.8V35.2a2.8 2.8 0 0 0 2.8 2.8h32.72a2.8 2.8 0 0 0 2.8-2.8V9.144a2.8 2.8 0 0 0-2.8-2.8Z"/><path fill="#0b64dd" d="M41.638 6.344H7.667a2.175 2.175 0 0 0-2.175 2.175v27.305c0 1.201.973 2.175 2.175 2.175h33.97a2.175 2.175 0 0 0 2.175-2.175V8.52a2.175 2.175 0 0 0-2.174-2.175"/><mask id="a" width="39" height="32" x="5" y="6" maskUnits="userSpaceOnUse" style="mask-type:luminance"><path fill="#fff" d="M41.638 6.344H7.667a2.175 2.175 0 0 0-2.175 2.175v27.305c0 1.201.973 2.175 2.175 2.175h33.97a2.175 2.175 0 0 0 2.175-2.175V8.52a2.175 2.175 0 0 0-2.174-2.175"/></mask><g mask="url(#a)"><path stroke="#101c3f" stroke-miterlimit="10" stroke-width=".453" d="M44.175 6.117H5.211v5.546h38.964z"/></g><path stroke="#101c3f" stroke-miterlimit="10" stroke-width=".453" d="M41.638 6.344H7.667a2.175 2.175 0 0 0-2.175 2.175v27.305c0 1.201.973 2.175 2.175 2.175h33.97a2.175 2.175 0 0 0 2.175-2.175V8.52a2.175 2.175 0 0 0-2.174-2.175Z"/><path fill="#101c3f" stroke="#101c3f" stroke-miterlimit="10" stroke-width=".453" d="M27.645 16.934h1.07v9.746h-1.618z"/><path stroke="#101c3f" stroke-miterlimit="10" stroke-width=".453" d="M14.455 11.65v26.349"/><path fill="#48efcf" stroke="#101c3f" stroke-miterlimit="10" stroke-width=".453" d="M27.908 16.934a8.33 8.33 0 0 0-8.333 8.333 8.33 8.33 0 0 0 8.333 8.333 8.33 8.33 0 0 0 8.333-8.333h-8.333z"/><path fill="#fff" stroke="#101c3f" stroke-miterlimit="10" stroke-width=".453" d="M29.988 14.722a8.33 8.33 0 0 1 8.333 8.333h-8.333z"/><path stroke="#101c3f" stroke-miterlimit="10" stroke-width=".453" d="M7.16 14.722h5.101M7.16 16.934h5.101M7.16 19.145h5.101M7.16 21.356h3.411M7.16 23.567h3.411M7.16 25.778h3.411"/><path fill="#0b64dd" stroke="#101c3f" stroke-miterlimit="10" stroke-width=".453" d="M50.782 30.917H26.435c-1.073 0-1.944.87-1.944 1.944v17.2c0 1.074.87 1.944 1.944 1.944h24.347c1.073 0 1.943-.87 1.943-1.944v-17.2c0-1.074-.87-1.944-1.944-1.944Z"/><path fill="#fff" stroke="#101c3f" stroke-miterlimit="10" stroke-width=".453" d="M49.023 30.917H24.677c-1.074 0-1.944.87-1.944 1.944v17.2c0 1.074.87 1.944 1.944 1.944h24.346c1.074 0 1.944-.87 1.944-1.944v-17.2c0-1.074-.87-1.944-1.944-1.944Z"/><path fill="#48efcf" stroke="#101c3f" stroke-miterlimit="10" stroke-width=".453" d="M32.801 49.01h3.254V44H32.8zM27.808 49.01h3.253V36.4h-3.253zM37.8 49.01h3.253v-8.944h-3.254zM42.797 49.01h3.254V37.27h-3.254z"/><path stroke="#101c3f" stroke-miterlimit="10" stroke-width=".453" d="M26.476 49.01h20.748"/><path fill="#fff" d="M8.863 10.06a1.07 1.07 0 1 0 0-2.14 1.07 1.07 0 0 0 0 2.14"/><path stroke="#fff" stroke-miterlimit="10" stroke-width=".453" d="M34.293 8.99h4.2M39.563 8.99h1.744"/></svg>