<svg xmlns="http://www.w3.org/2000/svg" width="58" height="58" fill="none" viewBox="0 0 58 58"><path fill="#153385" stroke="#101c3f" stroke-miterlimit="10" stroke-width=".453" d="M45.466 5.89H9.108a3.113 3.113 0 0 0-3.113 3.114v28.95a3.113 3.113 0 0 0 3.113 3.113h36.358a3.113 3.113 0 0 0 3.113-3.113V9.004a3.113 3.113 0 0 0-3.113-3.113Z"/><path fill="#0b64dd" d="M44.248 5.89H6.493a2.415 2.415 0 0 0-2.415 2.416v30.346a2.415 2.415 0 0 0 2.415 2.415h37.755a2.415 2.415 0 0 0 2.415-2.415V8.306a2.415 2.415 0 0 0-2.415-2.415"/><mask id="a" width="43" height="37" x="4" y="5" maskUnits="userSpaceOnUse" style="mask-type:luminance"><path fill="#fff" d="M44.248 5.89H6.493a2.415 2.415 0 0 0-2.415 2.416v30.346a2.415 2.415 0 0 0 2.415 2.415h37.755a2.415 2.415 0 0 0 2.415-2.415V8.306a2.415 2.415 0 0 0-2.415-2.415"/></mask><g mask="url(#a)"><path stroke="#101c3f" stroke-miterlimit="10" stroke-width=".453" d="M47.062 5.642H3.766v6.162h43.296z"/></g><path stroke="#101c3f" stroke-miterlimit="10" stroke-width=".453" d="M44.248 5.89H6.493a2.415 2.415 0 0 0-2.415 2.416v30.346a2.415 2.415 0 0 0 2.415 2.415h37.755a2.415 2.415 0 0 0 2.415-2.415V8.306a2.415 2.415 0 0 0-2.415-2.415ZM14.038 11.79v29.276M5.927 15.202H11.6M5.927 17.658H11.6M5.927 20.114H11.6M5.927 22.57h3.792M5.927 25.03h3.792M5.927 27.486h3.792"/><path fill="#fff" d="M7.826 10.023a1.192 1.192 0 1 0 0-2.383 1.192 1.192 0 0 0 0 2.383"/><path stroke="#fff" stroke-miterlimit="10" stroke-width=".453" d="M36.078 8.831h4.671M41.937 8.831h1.939"/><path fill="#48efcf" stroke="#101c3f" stroke-miterlimit="10" stroke-width=".453" d="M24.478 34.858h4.5v-6.932h-4.5zM17.572 34.858h4.5V17.422h-4.5zM31.388 34.855h4.5V22.489h-4.5zM38.303 34.855h4.5V18.624h-4.5z"/><path stroke="#101c3f" stroke-miterlimit="10" stroke-width=".453" d="M15.737 34.858h28.688"/><path fill="#153385" stroke="#101c3f" stroke-miterlimit="10" stroke-width=".453" d="M41.361 53.342c-6.77 0-12.261-5.496-12.261-12.275s5.492-12.275 12.261-12.275c6.77 0 12.262 5.496 12.262 12.275S48.13 53.342 41.36 53.342Z"/><path fill="#fff" stroke="#101c3f" stroke-linecap="round" stroke-linejoin="round" stroke-width=".453" d="M42.508 53.342c-6.77 0-12.262-5.496-12.262-12.275s5.492-12.275 12.262-12.275 12.261 5.496 12.261 12.275-5.492 12.275-12.261 12.275"/><path fill="#0b64dd" d="m49.404 40.247-10.09-6.036c-.667-.398-1.546.041-1.546.766v12.18c0 .73.888 1.17 1.554.761l10.091-6.144c.599-.363.594-1.17-.009-1.527"/></svg>