<svg width="54" height="54" viewBox="0 0 54 54" fill="none" xmlns="http://www.w3.org/2000/svg">
<path d="M26.7975 24.8315C38.6849 24.8315 48.3216 22.5669 48.3216 19.7732C48.3216 16.9796 38.6849 14.715 26.7975 14.715C14.9101 14.715 5.27344 16.9796 5.27344 19.7732C5.27344 22.5669 14.9101 24.8315 26.7975 24.8315Z" fill="#153385" stroke="#101C3F" stroke-width="0.99" stroke-miterlimit="10"/>
<path d="M29.5856 27.1688H35.2852V5.98226H29.5856L29.5856 27.1688Z" fill="#101C3F" stroke="#101C3F" stroke-width="0.5" stroke-miterlimit="10"/>
<path d="M28.5563 27.1688H34.2559V5.98226H28.5563L28.5563 27.1688Z" fill="white" stroke="#101C3F" stroke-width="0.5" stroke-miterlimit="10"/>
<path d="M37.6315 27.1688H43.3311V11.6059H37.6315V27.1688Z" fill="#101C3F" stroke="#101C3F" stroke-width="0.5" stroke-miterlimit="10"/>
<path d="M36.6061 27.1688H42.3057V11.6059H36.6061V27.1688Z" fill="#48EFCF" stroke="#101C3F" stroke-width="0.5" stroke-miterlimit="10"/>
<path d="M21.5324 27.1687H27.2319V16.5754H21.5324V27.1687Z" fill="#101C3F" stroke="#101C3F" stroke-width="0.5" stroke-miterlimit="10"/>
<path d="M20.507 27.1687H26.2065V16.5754H20.507V27.1687Z" fill="#48EFCF" stroke="#101C3F" stroke-width="0.5" stroke-miterlimit="10"/>
<path d="M26.7806 24.8273C15.8498 24.8273 6.80484 22.95 5.27344 20.5073V24.6881C5.27344 26.1056 5.87672 27.4514 6.92719 28.4006L20.7605 40.8375C21.5072 41.5082 21.9291 42.4659 21.9206 43.4657L21.87 49.9668H31.6322L31.5858 43.47C31.5773 42.4659 32.0034 41.5082 32.7502 40.8375L46.6467 28.4006C47.7056 27.4556 48.3089 26.1014 48.3089 24.6796V20.4482C46.8787 22.9162 37.7831 24.8231 26.7722 24.8231L26.7806 24.8273Z" fill="#0B64DD" stroke="#101C3F" stroke-width="0.5" stroke-miterlimit="10"/>
<path d="M5.27344 24.6923C5.27344 24.6923 25.8947 33.3449 48.3173 24.6923" stroke="#101C3F" stroke-width="0.5" stroke-miterlimit="10"/>
<path d="M31.6446 50.2663C31.6446 50.8443 29.4129 51.3126 26.6665 51.3126C23.9201 51.3126 21.8613 50.8443 21.8613 50.2663C21.8613 49.6884 23.9159 49.2201 26.6665 49.2201C29.4171 49.2201 31.6446 49.6884 31.6446 50.2663Z" fill="#153385" stroke="#101C3F" stroke-width="0.5" stroke-miterlimit="10"/>
<path d="M9.55555 13.7827C9.58086 13.171 10.1335 13.0697 10.1335 13.0697L14.6855 14.4577L21.233 17.4319L20.4948 18.533L22.4354 20.5243L25.4898 18.4065L24.1313 20.0054L21.1866 21.8363L19.1659 19.8366C18.0605 19.9041 15.2466 19.8451 12.6985 17.9635L12.5593 18.6765L16.6346 20.5116L15.4618 21.9797L11.4666 19.9421L12.0193 17.529L12.0741 17.4615C11.8716 17.2843 11.6691 17.0944 11.4709 16.8877C10.8887 16.276 10.471 15.7655 10.1799 15.331L7.6318 15.1285L6.56445 11.2599L7.74148 9.66943L8.66539 13.6815L9.55133 13.7701L9.55555 13.7827Z" fill="#153385" stroke="#101C3F" stroke-width="0.5" stroke-linejoin="round"/>
<path d="M27.2572 13.5084L25.8397 15.0694L24.1143 15.1959L24.4518 13.7151L27.2572 13.5084Z" fill="#153385" stroke="#101C3F" stroke-width="0.5" stroke-linejoin="round"/>
<path d="M9.54295 4.90644L11.9687 7.77941L10.9351 9.59769L10.8254 9.45847L10.6947 10.028L9.70748 9.80019L9.63998 9.47535C9.63998 9.47535 9.74967 9.06191 10.0914 8.53035L8.32373 6.29863L9.54295 4.90222V4.90644Z" fill="#153385" stroke="#101C3F" stroke-width="0.5" stroke-linejoin="round"/>
<path d="M17.4996 10.5807C14.7954 9.13789 13.4243 10.6524 13.4243 10.6524L14.0065 6.35352L21.9673 9.70742L21.0223 14.8416L19.2588 14.8712C19.2588 14.8712 20.2038 12.0235 17.4996 10.5807Z" fill="#101C3F" stroke="#101C3F" stroke-width="0.5" stroke-linejoin="round"/>
<path d="M14.8672 4.94437L12.589 2.77594L9.54311 4.90641L11.3234 7.27312C10.8551 7.90172 10.4923 8.62312 10.2519 9.40781L7.7417 9.67781L8.66561 13.6898L10.9437 13.9219C11.4669 14.7867 12.184 15.5925 13.032 16.2802L12.5595 18.6806L16.6348 20.5158L17.8372 18.3684C18.6725 18.457 19.4614 18.4022 20.187 18.2208L22.4356 20.5284L25.49 18.4106L23.6759 15.8709C24.1442 15.2381 24.5028 14.5125 24.7348 13.7278L27.2576 13.5084L26.3211 9.46266L24.0556 9.36984C23.4987 8.43328 22.714 7.56 21.7901 6.82594L22.2922 4.63641L18.3012 2.74219L17.2592 4.83469C16.407 4.725 15.6097 4.77562 14.8714 4.94437H14.8672ZM18.9762 9.26016C20.5119 10.4034 20.997 12.3483 20.0604 13.6055C19.1239 14.8627 17.12 14.9512 15.5844 13.808C14.0487 12.6647 13.5636 10.7198 14.5001 9.46266C15.4367 8.20547 17.4406 8.11687 18.9762 9.26016Z" fill="#0B64DD" stroke="#101C3F" stroke-width="0.5" stroke-linejoin="round"/>
</svg>
