<svg width="55" height="55" viewBox="0 0 55 55" fill="none" xmlns="http://www.w3.org/2000/svg">
<path d="M49.2809 15.0992H5.52578C3.77918 15.0992 2.36328 16.5151 2.36328 18.2617V26.7051C2.36328 28.4517 3.77918 29.8676 5.52578 29.8676H49.2809C51.0275 29.8676 52.4434 28.4517 52.4434 26.7051V18.2617C52.4434 16.5151 51.0275 15.0992 49.2809 15.0992Z" fill="#153385" stroke="#101C3F" stroke-width="0.5" stroke-miterlimit="10"/>
<path d="M49.2809 13.5394H5.52578C3.77918 13.5394 2.36328 14.9553 2.36328 16.7019V25.1453C2.36328 26.8919 3.77918 28.3078 5.52578 28.3078H49.2809C51.0275 28.3078 52.4434 26.8919 52.4434 25.1453V16.7019C52.4434 14.9553 51.0275 13.5394 49.2809 13.5394Z" fill="white" stroke="#101C3F" stroke-width="0.5" stroke-miterlimit="10"/>
<path d="M30.3661 28.3079H37.0005V3.65239H30.3661L30.3661 28.3079Z" fill="#101C3F" stroke="#101C3F" stroke-width="0.5" stroke-miterlimit="10"/>
<path d="M29.1674 28.3079H35.8018V3.65239H29.1674L29.1674 28.3079Z" fill="#0B64DD" stroke="#101C3F" stroke-width="0.5" stroke-miterlimit="10"/>
<path d="M39.7289 28.3121H46.3633V10.2008H39.7289V28.3121Z" fill="#101C3F" stroke="#101C3F" stroke-width="0.5" stroke-miterlimit="10"/>
<path d="M38.5346 28.3121H45.1689V10.2008H38.5346V28.3121Z" fill="#0B64DD" stroke="#101C3F" stroke-width="0.5" stroke-miterlimit="10"/>
<path d="M20.9945 28.3121H27.6289V15.9844H20.9945V28.3121Z" fill="#101C3F" stroke="#101C3F" stroke-width="0.5" stroke-miterlimit="10"/>
<path d="M19.8041 28.3121H26.4385V15.9844H19.8041V28.3121Z" fill="#0B64DD" stroke="#101C3F" stroke-width="0.5" stroke-miterlimit="10"/>
<path d="M14.5621 21.3898C18.3906 19.9804 21.9441 21.4843 23.8734 24.1699C18.0984 19.4648 9.09648 25.0164 9.98593 32.2308C10.132 33.4082 10.5445 34.4867 11.1547 35.4234C9.82265 34.2933 8.88164 32.6433 8.67109 30.4605C8.28867 26.516 10.8883 22.7433 14.5578 21.3898H14.5621Z" fill="#101C3F" stroke="#101C3F" stroke-width="0.5" stroke-miterlimit="10"/>
<path d="M5.96429 31.1781C6.69476 37.0648 12.3709 40.8977 18.0987 39.9867C27.5475 38.4871 32.4373 25.0938 23.2635 19.6152C15.3229 14.8715 4.86859 22.1891 5.96429 31.1781ZM22.8209 22.7605C28.7979 27.9641 23.6202 37.5375 16.3412 37.4086C12.5041 37.3398 9.16976 34.5211 8.69711 30.6711C7.79476 23.3578 17.0459 17.7332 22.8209 22.7605Z" fill="#48EFCF" stroke="#101C3F" stroke-width="0.5" stroke-miterlimit="10"/>
<path d="M18.0984 39.9867C25.4418 38.8179 30.0266 30.4734 27.4012 24.2386C29.6355 27.3066 30.2586 31.5476 27.8996 35.6297C23.6973 42.9172 12.4094 43.5531 8.50781 36.6781C10.8496 39.2304 14.459 40.5625 18.0941 39.9867H18.0984Z" fill="#153385" stroke="#101C3F" stroke-width="0.5" stroke-miterlimit="10"/>
<path d="M30.0784 50.5257C30.7851 51.4401 32.0993 51.6085 33.0137 50.9017C33.9282 50.195 34.0965 48.8808 33.3898 47.9664L26.2242 38.6951C25.5174 37.7807 24.2032 37.6124 23.2888 38.3191C22.3744 39.0259 22.206 40.3401 22.9128 41.2545L30.0784 50.5257Z" fill="#153385" stroke="#101C3F" stroke-width="0.5" stroke-miterlimit="10"/>
<path d="M30.657 50.0755C31.3637 50.9899 32.6779 51.1583 33.5924 50.4515C34.5068 49.7448 34.6751 48.4306 33.9684 47.5162L26.8028 38.245C26.096 37.3305 24.7818 37.1622 23.8674 37.8689C22.953 38.5757 22.7846 39.8899 23.4914 40.8043L30.657 50.0755Z" fill="#48EFCF" stroke="#101C3F" stroke-width="0.5" stroke-miterlimit="10"/>
</svg>
