<svg width="128" height="128" viewBox="0 0 128 128" fill="none" xmlns="http://www.w3.org/2000/svg">
<rect width="128" height="128" />
<mask id="mask0_567_68898" style="mask-type:luminance" maskUnits="userSpaceOnUse" x="4" y="23" width="117" height="91">
<path d="M120.2 23H4V113.2H120.2V23Z" fill="white"/>
</mask>
<g mask="url(#mask0_567_68898)">
<path d="M51.8499 94.29L46.6299 112.7H84.9099L78.8099 94.29H51.8499Z" fill="#101C3F" stroke="#101C3F" stroke-miterlimit="10"/>
<path d="M106.97 23.5H27.19C21.26 23.5 16.46 28.3 16.46 34.23V83.56C16.46 89.49 21.26 94.29 27.19 94.29H106.97C112.9 94.29 117.7 89.49 117.7 83.56V34.23C117.7 28.3 112.9 23.5 106.97 23.5Z" fill="#153385" stroke="#101C3F" stroke-miterlimit="10"/>
<path d="M101.5 23.5H21.7202C15.7902 23.5 10.9902 28.3 10.9902 34.23V83.56C10.9902 89.49 15.7902 94.29 21.7202 94.29H101.5C107.43 94.29 112.23 89.49 112.23 83.56V34.23C112.23 28.3 107.43 23.5 101.5 23.5Z" fill="white"/>
<path d="M112.23 81.2998H10.9902H112.23Z" fill="white"/>
<path d="M112.23 81.2998H10.9902" stroke="#101C3F" stroke-miterlimit="10"/>
<path d="M101.5 23.5H21.7202C15.7902 23.5 10.9902 28.3 10.9902 34.23V83.56C10.9902 89.49 15.7902 94.29 21.7202 94.29H101.5C107.43 94.29 112.23 89.49 112.23 83.56V34.23C112.23 28.3 107.43 23.5 101.5 23.5Z" stroke="#101C3F" stroke-miterlimit="10"/>
<path d="M47.6907 94.29L42.4707 112.7H80.7507L74.6507 94.29H47.6907Z" fill="white" stroke="#101C3F" stroke-miterlimit="10"/>
<path d="M23.39 27.9004H99.7C104.19 27.9004 107.84 31.5504 107.84 36.0404V79.0904H15.25V36.0404C15.25 31.5504 18.9 27.9004 23.39 27.9004Z" fill="#0B64DD"/>
<path d="M15 46.7097C23.17 46.7097 20.71 65.3397 28.87 65.3397C37.03 65.3397 37.03 36.1797 45.2 36.1797C53.37 36.1797 53.37 65.3397 61.53 65.3397C69.69 65.3397 69.7 46.7097 77.87 46.7097C86.04 46.7097 86.04 65.3397 94.21 65.3397C102.38 65.3397 99.33 46.9996 107.5 46.9996" stroke="white" stroke-miterlimit="10"/>
<path d="M60.0407 91.7904C62.1507 91.7904 63.8607 90.0804 63.8607 87.9704C63.8607 85.8604 62.1507 84.1504 60.0407 84.1504C57.9307 84.1504 56.2207 85.8604 56.2207 87.9704C56.2207 90.0804 57.9307 91.7904 60.0407 91.7904Z" fill="#101C3F"/>
<path d="M71.7599 37.8303C80.9299 34.4503 89.4498 38.0603 94.0798 44.4903C80.2398 33.2103 58.6698 46.5203 60.7998 63.8103C61.1498 66.6303 62.1398 69.2203 63.5998 71.4603C60.4098 68.7503 58.1499 64.8003 57.6499 59.5603C56.7399 50.1103 62.9599 41.0603 71.7599 37.8203V37.8303Z" fill="#101C3F" stroke="#101C3F" stroke-miterlimit="10"/>
<path d="M51.1599 61.2902C52.9099 75.4002 66.5099 84.5802 80.2399 82.4002C102.88 78.8002 114.6 46.7102 92.6099 33.5802C73.5799 22.2102 48.5299 39.7502 51.1599 61.2902ZM91.5499 41.1102C105.87 53.5802 93.4699 76.5202 76.0199 76.2202C66.8199 76.0602 58.8299 69.3002 57.6999 60.0702C55.5399 42.5402 77.7099 29.0702 91.5499 41.1102Z" fill="#48EFCF" stroke="#101C3F" stroke-miterlimit="10"/>
<path d="M80.2405 82.4004C97.8405 79.6004 108.831 59.6004 102.541 44.6504C107.901 52.0004 109.381 62.1604 103.741 71.9504C93.6705 89.4104 66.6105 90.9404 57.2705 74.4704C62.8805 80.5904 71.5405 83.7804 80.2505 82.4004H80.2405Z" fill="#153385" stroke="#101C3F" stroke-miterlimit="10"/>
<path d="M115.221 109.13L116.731 107.96C118.501 106.59 118.831 104.04 117.461 102.26L99.1206 78.53C97.7506 76.76 95.2006 76.43 93.4306 77.8L91.9206 78.97C90.1506 80.34 89.8206 82.89 91.1906 84.67L109.531 108.4C110.901 110.17 113.451 110.5 115.221 109.13Z" fill="#153385" stroke="#101C3F" stroke-miterlimit="10"/>
<path d="M116.611 108.06L118.121 106.89C119.891 105.52 120.221 102.97 118.851 101.2L100.511 77.4704C99.1405 75.7004 96.5905 75.3704 94.8105 76.7404L93.3005 77.9104C91.5305 79.2804 91.2005 81.8304 92.5705 83.6104L110.911 107.34C112.281 109.11 114.83 109.44 116.601 108.07L116.611 108.06Z" fill="#48EFCF" stroke="#101C3F" stroke-miterlimit="10"/>
</g>
</svg>
