<svg width="128" height="128" viewBox="0 0 128 128" fill="none" xmlns="http://www.w3.org/2000/svg">
<rect width="128" height="128" />
<path d="M43.4102 57.46V84.67L51.2202 92.7V105.25" stroke="#153385" stroke-miterlimit="10"/>
<path d="M51.2203 112.6C53.3803 112.6 55.1203 110.85 55.1203 108.7C55.1203 106.55 53.3703 104.8 51.2203 104.8C49.0703 104.8 47.3203 106.55 47.3203 108.7C47.3203 110.85 49.0703 112.6 51.2203 112.6Z" fill="#48EFCF" stroke="#101C3F" stroke-miterlimit="10"/>
<path d="M21.2102 53.7998V73.3498L13.4002 81.3698L13.1602 87.4398" stroke="#153385" stroke-miterlimit="10"/>
<path d="M13.15 94.7902C15.31 94.7902 17.05 93.0402 17.05 90.8902C17.05 88.7402 15.3 86.9902 13.15 86.9902C11 86.9902 9.25 88.7402 9.25 90.8902C9.25 93.0402 11 94.7902 13.15 94.7902Z" fill="#48EFCF" stroke="#101C3F" stroke-miterlimit="10"/>
<path d="M32.1002 99.0598C34.2602 99.0598 36.0002 97.3098 36.0002 95.1598C36.0002 93.0098 34.2502 91.2598 32.1002 91.2598C29.9502 91.2598 28.2002 93.0098 28.2002 95.1598C28.2002 97.3098 29.9502 99.0598 32.1002 99.0598Z" fill="#48EFCF" stroke="#101C3F" stroke-miterlimit="10"/>
<path d="M32.0996 60.5098V91.7398" stroke="#153385" stroke-miterlimit="10"/>
<path d="M84.18 25.44C82.71 25.44 81.27 25.55 79.86 25.75C75.29 18.96 67.54 14.5 58.75 14.5C47.64 14.5 38.19 21.63 34.73 31.56C33.13 31.18 31.46 30.97 29.74 30.97C18.01 30.97 8.5 40.48 8.5 52.22C8.5 54.61 8.9 56.91 9.63 59.05H114.39C114.5 57.99 114.56 56.91 114.56 55.81C114.56 39.03 100.96 25.43 84.18 25.43V25.44Z" fill="#153385" stroke="#101C3F" stroke-miterlimit="10"/>
<path d="M84.18 30.2603C82.71 30.2603 81.27 30.3703 79.86 30.5703C75.29 23.7903 67.54 19.3203 58.75 19.3203C47.64 19.3203 38.19 26.4503 34.73 36.3803C33.13 36.0003 31.46 35.7903 29.74 35.7903C18.01 35.7903 8.5 45.3003 8.5 57.0403C8.5 59.4303 8.9 61.7303 9.63 63.8703H114.39C114.5 62.8103 114.56 61.7303 114.56 60.6303C114.56 43.8503 100.96 30.2503 84.18 30.2503V30.2603Z" fill="white" stroke="#101C3F" stroke-miterlimit="10"/>
<path d="M85.0196 97.9793C83.2996 97.3393 83.5296 95.6693 83.5296 95.6693L91.6897 83.9693L106.22 68.0293L108.68 71.1493L116.15 67.4493L112.92 56.7793L116.23 62.1293L118.73 72.2193L111.16 76.1393C110.33 79.3593 107.56 87.3293 99.8496 92.8593L101.76 93.9193L110.76 83.9793L113.87 88.6793L104.37 98.1893L97.9996 94.3893L97.8596 94.1793C97.1596 94.5993 96.4396 94.9993 95.6696 95.3693C93.3896 96.4693 91.5497 97.1793 90.0396 97.6193L87.1096 104.699L75.0896 104.179L71.6396 99.3593L83.9397 100.419L85.0097 97.9793H85.0196Z" fill="#153385" stroke="#101C3F" stroke-linejoin="round"/>
<path d="M100.57 47.2295L103.71 52.7095L102.48 57.7495L98.5801 55.4195L100.57 47.2295Z" fill="#153385" stroke="#101C3F" stroke-linejoin="round"/>
<path d="M59.6799 89.8296L70.1099 85.5596L74.3499 90.1896L73.8499 90.3796L75.3499 91.2796L73.7899 93.8896L72.7999 93.7796C72.7999 93.7796 71.7099 93.0896 70.5199 91.6196L62.5299 94.5996L59.6699 89.8296H59.6799Z" fill="#153385" stroke="#101C3F" stroke-linejoin="round"/>
<path d="M83.2099 72.3593C76.5999 78.7393 79.6499 84.0493 79.6499 84.0493L67.9199 78.4293L84.8399 58.8193L98.6199 66.2493L97.0699 71.3093C97.0699 71.3093 89.8199 65.9893 83.2099 72.3593Z" fill="#153385" stroke="#101C3F" stroke-linejoin="round"/>
<path d="M64.7102 74.6699L56.4102 79.1699L59.6702 89.8299L68.0702 86.9299C69.4302 88.8499 71.1502 90.5499 73.1802 91.9499L71.6402 99.3599L83.9402 100.42L86.7002 94.1399C89.6602 93.4499 92.6202 92.1399 95.3502 90.3599L101.76 93.9199L110.76 83.9799L105.74 78.5699C106.77 76.2699 107.33 73.9699 107.49 71.7299L116.14 67.4499L112.91 56.7799L103.99 59.6099C102.61 57.6999 100.88 56.0099 98.8502 54.6199L100.55 47.2299L88.1402 46.1699L85.7802 52.5399C82.5902 53.2599 79.3702 54.6899 76.4302 56.6599L70.6502 53.2099L61.5702 62.8399L66.5802 67.7499C65.4802 70.0799 64.8902 72.3999 64.6902 74.6699H64.7102ZM80.8102 66.9299C85.4902 63.6099 91.4902 64.0199 94.2102 67.8499C96.9302 71.6799 95.3402 77.4799 90.6602 80.7999C85.9802 84.1199 79.9802 83.7099 77.2602 79.8799C74.5402 76.0499 76.1302 70.2499 80.8102 66.9299Z" fill="#0B64DD" stroke="#101C3F" stroke-linejoin="round"/>
</svg>
