<svg width="128" height="128" viewBox="0 0 128 128" fill="none" xmlns="http://www.w3.org/2000/svg">
<rect width="128" height="128" />
<g clip-path="url(#clip0_567_69283)">
<path d="M75.7591 18.9297C76.2391 18.9297 76.6991 19.0897 77.0691 19.3997C77.4391 19.7097 77.6791 20.1297 77.7491 20.6097L79.5891 32.6797L79.7691 32.7397L80.3491 32.9597L80.6291 33.0597L81.1091 33.2497L81.4891 33.3997L81.8591 33.5597L82.3291 33.7697L82.5991 33.8897L83.1691 34.1497L83.3291 34.2297L94.7791 24.7097C95.1591 24.4297 95.6291 24.2997 96.0991 24.3297C96.5691 24.3597 97.0091 24.5697 97.3491 24.8997L108.629 34.9097C108.959 35.2397 109.159 35.6797 109.199 36.1497C109.239 36.6197 109.109 37.0797 108.829 37.4697L99.6091 50.5397C99.6291 50.5997 99.6591 50.6597 99.6891 50.7097C99.7691 50.8997 99.8591 51.0897 99.9491 51.2697L100.069 51.5397L100.279 52.0197L100.429 52.3897C100.489 52.5197 100.539 52.6397 100.589 52.7697C100.639 52.8997 100.709 53.0897 100.779 53.2497C100.849 53.4097 100.849 53.4297 100.879 53.5297L101.089 54.1097L101.149 54.2897L113.229 56.0797C113.699 56.1597 114.129 56.3997 114.439 56.7597C114.749 57.1197 114.909 57.5897 114.909 58.0697V73.4797C114.909 73.9597 114.749 74.4197 114.439 74.7897C114.129 75.1597 113.709 75.3997 113.229 75.4697L101.149 77.3097L101.089 77.4897L100.879 78.0797L100.779 78.3497C100.709 78.5097 100.649 78.6697 100.589 78.8297C100.529 78.9897 100.489 79.0797 100.429 79.2097L100.279 79.5797L99.0091 78.9597L98.6291 79.7897C99.3891 80.3964 99.7424 80.763 99.6891 80.8897C99.6591 80.9397 101.739 78.8597 101.719 78.9197L108.949 88.7597C109.219 89.1397 109.349 89.6097 109.319 90.0797C109.289 90.5497 109.079 90.9897 108.749 91.3197L95.7591 104.41C95.4191 104.74 94.9791 104.94 94.5091 104.98C94.0391 105.01 93.5691 104.88 93.1891 104.6L83.3491 97.3697L83.1891 97.4497L82.6191 97.7097L82.3491 97.8297L81.8791 98.0397L81.5091 98.1997L81.1291 98.3497L80.6491 98.5397L80.3691 98.6397L79.7891 98.8597L79.6091 98.9197L77.7691 110.99C77.6891 111.46 77.4491 111.89 77.0891 112.2C76.7191 112.51 76.2591 112.67 75.7791 112.67H68.0791V18.9297H75.7791H75.7591Z" fill="#153385" stroke="#101C3F" stroke-miterlimit="10"/>
<path d="M75.7596 13.9199C76.2396 13.9199 76.6996 14.0799 77.0696 14.3899C77.4396 14.6999 77.6796 15.1199 77.7496 15.5999L79.5896 27.6699L79.7696 27.7299L80.3496 27.9499L80.6296 28.0499L81.1096 28.2399L81.4896 28.3899L81.8596 28.5499L82.3296 28.7599L82.5996 28.8799L83.1696 29.1399L83.3296 29.2199L93.1696 21.9899C93.5496 21.7099 94.0196 21.5799 94.4896 21.6099C94.9596 21.6399 95.3996 21.8499 95.7396 22.1799L106.63 33.1299C106.96 33.4599 107.16 33.8999 107.2 34.3699C107.24 34.8399 107.11 35.2999 106.83 35.6899L99.5996 45.5299C99.6196 45.5899 99.6496 45.6499 99.6796 45.6999C99.7596 45.8899 99.8496 46.0799 99.9396 46.2599L100.06 46.5299L100.27 47.0099L100.42 47.3799C100.48 47.5099 100.53 47.6299 100.58 47.7599C100.63 47.8899 100.7 48.0799 100.77 48.2399C100.84 48.3999 100.84 48.4199 100.87 48.5199L101.08 49.0999L101.14 49.2799L113.22 51.0699C113.69 51.1499 114.12 51.3899 114.43 51.7499C114.74 52.1099 114.9 52.5799 114.9 53.0599V68.4699C114.9 68.9499 114.74 69.4099 114.43 69.7799C114.12 70.1499 113.7 70.3899 113.22 70.4599L101.14 72.2999L101.08 72.4799L100.87 73.0699L100.77 73.3399C100.7 73.4999 100.64 73.6599 100.58 73.8199C100.52 73.9799 100.48 74.0699 100.42 74.1999L100.27 74.5699L100.06 75.0499L99.9396 75.3199C99.8496 75.4999 99.7596 75.6899 99.6796 75.8799C99.6496 75.9299 99.6196 75.9899 99.5996 76.0499L106.83 85.8899C107.1 86.2699 107.23 86.7399 107.2 87.2099C107.17 87.6799 106.96 88.1199 106.63 88.4499L95.7396 99.3999C95.3996 99.7299 94.9596 99.9299 94.4896 99.9699C94.0196 99.9999 93.5496 99.8699 93.1696 99.5899L83.3296 92.3599L83.1696 92.4399L82.5996 92.6999L82.3296 92.8199L81.8596 93.0299L81.4896 93.1899L81.1096 93.3399L80.6296 93.5299L80.3496 93.6299L79.7696 93.8499L79.5896 93.9099L77.7496 105.98C77.6696 106.45 77.4296 106.88 77.0696 107.19C76.6996 107.5 76.2396 107.66 75.7596 107.66H68.0596V13.9199H75.7596Z" fill="white" stroke="#101C3F" stroke-miterlimit="10"/>
<path d="M94.4697 99.9102V104.27" stroke="#101C3F" stroke-miterlimit="10"/>
<path d="M83.1494 92.3901V97.6601" stroke="#101C3F" stroke-miterlimit="10"/>
<path d="M76.6396 39.25L93.0296 49.53V73.03L76.6396 84.67" stroke="#101C3F" stroke-miterlimit="10"/>
<path d="M93.0296 73.0299L76.6396 66.7199V59.3999" stroke="#101C3F" stroke-miterlimit="10"/>
<path d="M76.6395 60.3298C74.7795 60.3298 73.2695 58.8198 73.2695 56.9598C73.2695 55.0998 74.7795 53.5898 76.6395 53.5898C78.4995 53.5898 80.0095 55.0998 80.0095 56.9598C80.0095 58.8198 78.4995 60.3298 76.6395 60.3298Z" fill="#0B64DD" stroke="#101C3F" stroke-miterlimit="10"/>
<path d="M76.6395 88.0398C74.7795 88.0398 73.2695 86.5298 73.2695 84.6698C73.2695 82.8098 74.7795 81.2998 76.6395 81.2998C78.4995 81.2998 80.0095 82.8098 80.0095 84.6698C80.0095 86.5298 78.4995 88.0398 76.6395 88.0398Z" fill="#0B64DD" stroke="#101C3F" stroke-miterlimit="10"/>
<path d="M76.6395 42.6199C74.7795 42.6199 73.2695 41.1099 73.2695 39.2499C73.2695 37.3899 74.7795 35.8799 76.6395 35.8799C78.4995 35.8799 80.0095 37.3899 80.0095 39.2499C80.0095 41.1099 78.4995 42.6199 76.6395 42.6199Z" fill="#0B64DD" stroke="#101C3F" stroke-miterlimit="10"/>
<path d="M63.5797 24.12C63.5797 24.12 64.7897 13.51 53.6997 14.32C41.6197 15.2 40.9097 26.9 40.9097 26.9C40.9097 26.9 24.4897 27.82 25.4197 46.32C25.4197 46.32 4.72967 57.3 19.1797 82.72C19.1797 82.72 17.1797 101.64 41.0097 106.83C41.0097 106.83 52.7297 121.9 63.5797 108.61V24.12Z" fill="#101C3F"/>
<path d="M63.5797 24.12C63.5797 24.12 64.7897 13.51 53.6997 14.32C41.6197 15.2 40.9097 26.9 40.9097 26.9C40.9097 26.9 24.4897 27.82 25.4197 46.32C25.4197 46.32 4.72967 57.3 19.1797 82.72C19.1797 82.72 17.1797 101.64 41.0097 106.83C41.0097 106.83 52.7297 121.9 63.5797 108.61V24.12Z" stroke="#101C3F" stroke-miterlimit="10"/>
<path d="M62.0299 23.3501C62.0299 23.3501 63.2299 12.7401 52.1499 13.5401C40.0699 14.4201 39.3599 26.1201 39.3599 26.1201C39.3599 26.1201 22.9399 27.0401 23.8699 45.5401C23.8699 45.5401 3.17987 56.5201 17.6299 81.9401C17.6299 81.9401 15.6299 100.86 39.4599 106.05C39.4599 106.05 51.1799 121.12 62.0299 107.83V23.3501Z" fill="#48EFCF"/>
<path d="M62.0299 23.3501C62.0299 23.3501 63.2299 12.7401 52.1499 13.5401C40.0699 14.4201 39.3599 26.1201 39.3599 26.1201C39.3599 26.1201 22.9399 27.0401 23.8699 45.5401C23.8699 45.5401 3.17987 56.5201 17.6299 81.9401C17.6299 81.9401 15.6299 100.86 39.4599 106.05C39.4599 106.05 51.1799 121.12 62.0299 107.83V23.3501Z" stroke="#101C3F" stroke-miterlimit="10"/>
<path d="M39.4601 106.05C39.4601 106.05 28.2201 94.06 39.2101 83.26C39.2101 83.26 40.2201 73.37 47.5701 73.59" stroke="#101C3F" stroke-miterlimit="10"/>
<path d="M39.3603 26.1201C39.3603 26.1201 37.9903 43.3001 56.2403 41.9701" stroke="#101C3F" stroke-miterlimit="10"/>
<path d="M34.98 92.3903C34.98 92.3903 23.87 90.6003 28.1 80.5103C28.1 80.5103 18.55 75.9903 22.62 66.2803" stroke="#101C3F" stroke-miterlimit="10"/>
<path d="M62.21 64.3001C62.21 64.3001 51.85 53.5701 38.79 64.9401" stroke="#101C3F" stroke-miterlimit="10"/>
<path d="M23.8701 45.5504C23.8701 45.5504 36.3501 40.6704 43.8101 46.4704" stroke="#101C3F" stroke-miterlimit="10"/>
<path d="M62.2098 88.7503C62.2098 88.7503 49.7198 87.5103 49.0498 102.42" stroke="#101C3F" stroke-miterlimit="10"/>
<path d="M61.9196 34.0199C61.9196 34.0199 53.6796 34.0799 52.8496 24.9399" stroke="#101C3F" stroke-miterlimit="10"/>
<path d="M44.83 60.6102C44.83 60.6102 42.51 50.5702 28 54.5102" stroke="#101C3F" stroke-miterlimit="10"/>
<path d="M58.7296 61.7703C58.7296 61.7703 60.2996 54.3203 54.3896 51.3003" stroke="#101C3F" stroke-miterlimit="10"/>
<path d="M49.0498 81.66C49.0498 81.66 56.4998 80.6 58.3198 89.55" stroke="#101C3F" stroke-miterlimit="10"/>
</g>
<defs>
<clipPath id="clip0_567_69283">
<rect width="103.37" height="101.58" fill="white" transform="translate(12 13)"/>
</clipPath>
</defs>
</svg>
