<svg width="128" height="128" viewBox="0 0 128 128" fill="none" xmlns="http://www.w3.org/2000/svg">
<rect width="128" height="128" />
<path d="M83.1905 17.6799C70.0805 12.8499 57.9205 17.9999 51.3105 27.1999C71.0805 11.0899 101.901 30.1099 98.8605 54.8099C98.3605 58.8399 96.9505 62.5399 94.8505 65.7399C99.4105 61.8699 102.631 56.2199 103.351 48.7399C104.661 35.2299 95.7605 22.3099 83.1905 17.6799Z" fill="#101C3F" stroke="#101C3F" stroke-miterlimit="10"/>
<path d="M53.4004 11.61C21.9904 30.38 38.7304 76.23 71.0804 81.37C90.7004 84.49 110.13 71.37 112.63 51.21C116.38 20.42 80.6004 -4.63001 53.4004 11.62V11.61ZM103.27 49.46C101.65 62.65 90.2404 72.3 77.0904 72.53C52.1704 72.96 34.4404 40.18 54.9104 22.37C74.6804 5.16 106.36 24.41 103.27 49.46Z" fill="#0B64DD" stroke="#101C3F" stroke-miterlimit="10"/>
<path d="M71.0807 81.3602C45.9407 77.3702 30.2307 48.7802 39.2207 27.4302C31.5707 37.9302 29.4407 52.4502 37.5107 66.4402C51.9007 91.3902 90.5607 93.5702 103.901 70.0402C95.8807 78.7802 83.5207 83.3502 71.0707 81.3702L71.0807 81.3602Z" fill="#153385" stroke="#101C3F" stroke-miterlimit="10"/>
<path d="M54.7656 76.7872L51.846 74.5307C49.5213 72.7339 46.1802 73.1619 44.3834 75.4867L17.5924 110.15C15.7956 112.475 16.2236 115.816 18.5484 117.613L21.468 119.869C23.7927 121.666 27.1339 121.238 28.9306 118.913L55.7216 84.2498C57.5184 81.9251 57.0904 78.584 54.7656 76.7872Z" fill="#153385" stroke="#101C3F" stroke-miterlimit="10"/>
<path d="M52.7852 75.2555L49.8656 72.9989C47.5408 71.2022 44.1997 71.6302 42.4029 73.9549L15.6119 108.618C13.8152 110.943 14.2432 114.284 16.5679 116.081L19.4875 118.338C21.8123 120.134 25.1534 119.706 26.9502 117.382L53.7412 82.7181C55.5379 80.3934 55.1099 77.0522 52.7852 75.2555Z" fill="#0B64DD" stroke="#101C3F" stroke-miterlimit="10"/>
<path d="M50.29 56.5097L66.57 39.2197L80.81 54.2797L99.15 31.2197" stroke="#101C3F" stroke-miterlimit="10"/>
<path d="M66.5702 43.28C68.1773 43.28 69.4802 41.9771 69.4802 40.37C69.4802 38.7628 68.1773 37.46 66.5702 37.46C64.963 37.46 63.6602 38.7628 63.6602 40.37C63.6602 41.9771 64.963 43.28 66.5702 43.28Z" fill="#48EFCF" stroke="#101C3F" stroke-miterlimit="10"/>
<path d="M81.3104 56.9601C82.9175 56.9601 84.2204 55.6573 84.2204 54.0501C84.2204 52.443 82.9175 51.1401 81.3104 51.1401C79.7032 51.1401 78.4004 52.443 78.4004 54.0501C78.4004 55.6573 79.7032 56.9601 81.3104 56.9601Z" fill="#48EFCF" stroke="#101C3F" stroke-miterlimit="10"/>
</svg>
