<svg width="128" height="128" viewBox="0 0 128 128" fill="none" xmlns="http://www.w3.org/2000/svg">
<rect width="128" height="128" />
<path d="M110.14 57.0997L96.6301 112.21C96.2901 113.57 95.0801 114.53 93.6701 114.53H21.3301C19.3401 114.53 17.8801 112.65 18.3801 110.72L32.6401 56.1097H32.6101L32.5901 50.5297C32.5901 48.8397 33.9501 47.4697 35.6301 47.4697H57.4101C58.8401 47.4697 60.0701 48.4697 60.3801 49.8597C60.6901 51.2497 61.9301 52.2497 63.3501 52.2497H107.44C109.41 52.2497 110.87 54.0997 110.4 56.0197L110.15 57.0897L110.14 57.0997Z" fill="#153385" stroke="#101C3F" stroke-miterlimit="10"/>
<path d="M103.17 32.05L84.6796 13.5H30.8896V99.57H103.17V32.05Z" fill="white" stroke="#101C3F" stroke-linecap="round" stroke-linejoin="round"/>
<path d="M84.6592 13.5V32.36L103.169 32.05L84.6592 13.5Z" fill="#48EFCF" stroke="#101C3F" stroke-linejoin="round"/>
<path d="M84.6592 32.7004L103.169 38.1604V32.3604L84.6592 32.7004Z" fill="#101C3F"/>
<path d="M54.0595 23.9805H38.2695V39.7705H54.0595V23.9805Z" fill="#48EFCF" stroke="#101C3F" stroke-miterlimit="10"/>
<path d="M45.9099 37.9197L39.6299 30.9397L42.1399 28.6897L46.0999 33.0997L56.8299 22.9297L59.1399 25.3697L45.9099 37.9197Z" fill="#0B64DD"/>
<path d="M62.3496 33.4805H77.2896" stroke="#101C3F" stroke-miterlimit="10"/>
<path d="M62.3496 25.8701H72.3096" stroke="#101C3F" stroke-miterlimit="10"/>
<path d="M62.3496 41.0898H93.1696" stroke="#101C3F" stroke-miterlimit="10"/>
<path d="M62.3496 48.7002H93.1696" stroke="#101C3F" stroke-miterlimit="10"/>
<path d="M66.0801 56.3096H93.1701" stroke="#101C3F" stroke-miterlimit="10"/>
<path d="M69.8701 63.9199H93.1701" stroke="#101C3F" stroke-miterlimit="10"/>
<path d="M76.8193 71.5303H93.1693" stroke="#101C3F" stroke-miterlimit="10"/>
<path d="M77.7598 79.1504H93.1698" stroke="#101C3F" stroke-miterlimit="10"/>
<path d="M77.7598 86.7598H93.1698" stroke="#101C3F" stroke-miterlimit="10"/>
<path d="M96.3098 55.35L96.2898 111.43C96.2898 113.11 94.9198 114.48 93.2398 114.48H19.5898C17.9098 114.48 16.5398 113.11 16.5398 111.43L16.5598 56.16H16.5298L16.5098 50.6C16.5098 48.91 17.8698 47.54 19.5598 47.54H41.7098C43.1398 47.54 44.3798 48.53 44.6898 49.93C44.9998 51.32 46.2398 52.32 47.6698 52.32H93.2798C94.9598 52.32 96.3298 53.69 96.3298 55.37L96.3098 55.35Z" fill="#0B64DD" stroke="#101C3F" stroke-miterlimit="10"/>
</svg>
