<svg width="128" height="128" viewBox="0 0 128 128" fill="none" xmlns="http://www.w3.org/2000/svg">
<g clip-path="url(#clip0_567_68952)">
<rect width="128" height="128" />
<mask id="mask0_567_68952" style="mask-type:luminance" maskUnits="userSpaceOnUse" x="-3" y="16" width="112" height="100">
<path d="M108.1 16H-3V115.14H108.1V16Z" fill="white"/>
</mask>
<g mask="url(#mask0_567_68952)">
<path d="M107.6 36.23L87.9302 16.5H30.7002V114.64H107.6V36.23Z" fill="white" stroke="#101C3F" stroke-linecap="round" stroke-linejoin="round"/>
<path d="M87.9004 16.5V36.56L107.6 36.23L87.9004 16.5Z" fill="#48EFCF" stroke="#101C3F" stroke-linejoin="round"/>
<path d="M87.9004 36.9296L107.6 42.7396V36.5596L87.9004 36.9296Z" fill="#101C3F"/>
<path d="M20.8204 102.22H84.0504C87.6204 102.22 90.5104 99.3304 90.5104 95.7604V51.5704C90.5104 48.0004 87.6204 45.1104 84.0504 45.1104H20.8204C17.2504 45.1104 14.3604 48.0004 14.3604 51.5704V95.7604C14.3604 99.3304 17.2504 102.22 20.8204 102.22Z" fill="#153385"/>
<path d="M20.8204 102.22H84.0504C87.6204 102.22 90.5104 99.3304 90.5104 95.7604V51.5704C90.5104 48.0004 87.6204 45.1104 84.0504 45.1104H20.8204C17.2504 45.1104 14.3604 48.0004 14.3604 51.5704V95.7604C14.3604 99.3304 17.2504 102.22 20.8204 102.22Z" stroke="#101C3F" stroke-miterlimit="10"/>
<path d="M20.6401 100.02H83.0001C86.4601 100.02 89.2701 97.2101 89.2701 93.7501V51.6001C89.2701 48.1401 86.4601 45.3301 83.0001 45.3301H20.6401C17.1801 45.3301 14.3701 48.1401 14.3701 51.6001V93.7501C14.3701 97.2101 17.1801 100.02 20.6401 100.02Z" fill="white"/>
<path d="M106.12 63.1699H106.13H106.12Z" fill="#0B64DD" stroke="#101C3F" stroke-miterlimit="10"/>
<path d="M33.7201 63.1701C42.7801 63.1701 42.7801 83.8201 51.8301 83.8201C60.8801 83.8201 60.8801 51.5001 69.9301 51.5001C78.9801 51.5001 78.9801 83.8201 88.0301 83.8201C88.4701 83.8201 88.8701 83.7601 89.2701 83.6701V51.6001C89.2701 48.1401 86.4601 45.3301 83.0001 45.3301H20.6401C17.1801 45.3301 14.3701 48.1401 14.3701 51.6001V83.6701C14.7701 83.7601 15.1701 83.8201 15.6101 83.8201C24.6701 83.8201 24.6701 63.1701 33.7201 63.1701Z" stroke="#101C3F" stroke-miterlimit="10"/>
<path d="M20.6401 100.02H83.0001C86.4601 100.02 89.2701 97.21 89.2701 93.75V83.67C88.8701 83.76 88.4701 83.82 88.0301 83.82C78.9801 83.82 78.9801 51.5 69.9301 51.5C60.8801 51.5 60.8801 83.82 51.8301 83.82C42.7801 83.82 42.7801 63.17 33.7201 63.17C24.6601 63.17 24.6701 83.82 15.6101 83.82C15.1701 83.82 14.7701 83.76 14.3701 83.67V93.75C14.3701 97.21 17.1801 100.02 20.6401 100.02Z" fill="#0B64DD" stroke="#101C3F" stroke-miterlimit="10"/>
<path d="M40.6699 26.54H62.5299" stroke="#101C3F" stroke-miterlimit="10"/>
<path d="M40.6699 35.8301H75.9699" stroke="#101C3F" stroke-miterlimit="10"/>
</g>
</g>
<defs>
<clipPath id="clip0_567_68952">
<rect width="128" height="128" fill="white"/>
</clipPath>
</defs>
</svg>
