<svg width="128" height="128" viewBox="0 0 128 128" fill="none" xmlns="http://www.w3.org/2000/svg">
<rect width="128" height="128" />
<mask id="mask0_567_68348" style="mask-type:luminance" maskUnits="userSpaceOnUse" x="6" y="11" width="117" height="104">
<path d="M122.2 11.0996H6V114.4H122.2V11.0996Z" fill="white"/>
</mask>
<g mask="url(#mask0_567_68348)">
<path d="M52.9996 96.7002L48.0996 113.9H83.7996L78.0996 96.7002H52.9996Z" fill="#153385" stroke="#101C3F" stroke-miterlimit="10"/>
<path d="M103.7 30.7002H30.7C24.8 30.7002 20 35.5002 20 41.4002V86.0002C20 91.9002 24.8 96.7002 30.7 96.7002H103.7C109.6 96.7002 114.4 91.9002 114.4 86.0002V41.4002C114.4 35.5002 109.6 30.7002 103.7 30.7002Z" fill="#153385" stroke="#101C3F" stroke-miterlimit="10"/>
<path d="M98.6004 30.7002H25.6004C19.7004 30.7002 14.9004 35.5002 14.9004 41.4002V86.0002C14.9004 91.9002 19.7004 96.7002 25.6004 96.7002H98.6004C104.5 96.7002 109.3 91.9002 109.3 86.0002V41.4002C109.3 35.5002 104.5 30.7002 98.6004 30.7002Z" fill="white"/>
<path d="M109.3 84.5996H14.9004H109.3Z" fill="white"/>
<path d="M109.3 84.5996H14.9004" stroke="#101C3F" stroke-miterlimit="10"/>
<path d="M98.6004 30.7002H25.6004C19.7004 30.7002 14.9004 35.5002 14.9004 41.4002V86.0002C14.9004 91.9002 19.7004 96.7002 25.6004 96.7002H98.6004C104.5 96.7002 109.3 91.9002 109.3 86.0002V41.4002C109.3 35.5002 104.5 30.7002 98.6004 30.7002Z" stroke="#101C3F" stroke-miterlimit="10"/>
<path d="M49.1002 96.7002L44.2002 113.9H79.9002L74.2002 96.7002H49.0002H49.1002Z" fill="white" stroke="#101C3F" stroke-miterlimit="10"/>
<path d="M27.0004 34.7998H97.1004C101.6 34.7998 105.2 38.3998 105.2 42.8998V82.4998H18.9004V42.8998C18.9004 38.3998 22.5004 34.7998 27.0004 34.7998Z" fill="#0B64DD"/>
<path d="M60.6 94.4002C62.6 94.4002 64.2 92.8002 64.2 90.8002C64.2 88.8002 62.6 87.2002 60.6 87.2002C58.6 87.2002 57 88.8002 57 90.8002C57 92.8002 58.6 94.4002 60.6 94.4002Z" fill="#101C3F"/>
<path d="M50.9998 57.5996H43.2998V75.6996H50.9998V57.5996Z" fill="white"/>
<path d="M65.9002 51.7998H58.2002V75.6998H65.9002V51.7998Z" fill="white"/>
<path d="M80.9002 44.2002H73.2002V75.8002H80.9002V44.2002Z" fill="white"/>
<path d="M25.8 50.8002C27.2 50.7002 27.3 49.4002 27.3 49.4002L23.7 39.5002L16.3 25.4002L14 27.2002L9.3 23.2002L13.6 16.2002L10.2 19.4002L6.5 26.1002L11.2 30.3002C11.2 32.8002 11.7 39.0002 16.2 44.4002L14.6 44.8002L10 36.0002L6.9 38.8002L11.9 47.4002L17.2 45.9002H17.3C17.7 46.2002 18.2 46.6002 18.7 47.0002C20.1 48.2002 21.3 49.1002 22.3 49.7002L23.1 55.3002L31.8 57.2002L35.2 54.4002L26.2 52.9002L25.9 51.0002L25.8 50.8002Z" fill="#153385" stroke="#101C3F" stroke-linejoin="round"/>
<path d="M24.2004 11.5996L20.9004 14.8996V18.6996L24.1004 17.7996V11.5996H24.2004Z" fill="#153385" stroke="#101C3F" stroke-linejoin="round"/>
<path d="M45.5 49.7002L38.8 44.7002L34.9 47.2002L35.2 47.4002L34 47.8002L34.6 50.0002H35.3C35.3 50.1002 36.2 49.8002 37.3 49.0002L42.5 52.6002L45.4 49.7002H45.5Z" fill="#153385" stroke="#101C3F" stroke-linejoin="round"/>
<path d="M31.8996 32.7998C35.3996 38.5998 32.2996 41.7998 32.2996 41.7998L41.7996 39.9998L33.2996 22.7998L22.0996 25.5998L22.2996 29.4998C22.2996 29.4998 28.4996 26.9998 31.9996 32.7998H31.8996Z" fill="#101C3F" stroke="#101C3F" stroke-linejoin="round"/>
<path d="M44.6998 32.6L49.1998 30L44.4998 21.4L39.6998 22.8C37.9998 20.8 35.8998 19.2 33.7998 18.1L33.2998 13.1L24.1998 11.5L23.9998 17.1C22.2998 17.7 20.6998 18.6 19.3998 19.7L13.5998 16L9.2998 23L14.6998 27.7C14.3998 29.3 14.3998 31.1 14.6998 32.9L10.0998 35.8L14.6998 44.6L19.8998 43.2C21.4998 45 23.3998 46.5 25.3998 47.5L26.1998 52.5L35.1998 54L35.4998 48.4C37.1998 47.8 38.7998 46.9 40.0998 45.8L45.5998 49.4L49.8998 42.4L44.7998 37.6C45.0998 35.9 45.0998 34.2 44.7998 32.3L44.6998 32.6ZM34.7998 39.3C32.0998 41.5 27.7998 40.7 24.9998 37.5C22.2998 34.3 22.1998 29.8 24.8998 27.6C27.5998 25.4 31.8998 26.2 34.6998 29.5C37.3998 32.7 37.4998 37.2 34.7998 39.4V39.3Z" fill="#48EFCF" stroke="#101C3F" stroke-linejoin="round"/>
<path d="M98.7002 101.7C98.1002 101 98.6002 100.3 98.6002 100.3L105.2 96.9L115.7 93.1L116.1 95.1H120.4C120.4 95.2 121.5 89.5 121.5 89.5L121.7 92.8L120.4 98H116C114.8 99.2 111.6 102.2 106.8 102.9L107.4 103.9L113.9 101.5L114.2 104.4L107.5 106.5L105.5 103.2C105.1 103.1 104.6 103.2 104.2 103.1C102.9 103.1 101.9 102.9 101.1 102.8L98.0002 105.3L92.6002 102.1L92.2002 99L97.6002 102.5L98.7002 101.6V101.7Z" fill="#153385" stroke="#101C3F" stroke-linejoin="round"/>
<path d="M118.2 82.2002V85.5002C118.3 85.5002 116.5 87.5002 116.5 87.5002L115.3 85.5002L118.2 82.2002Z" fill="#153385" stroke="#101C3F" stroke-linejoin="round"/>
<path d="M89.1 91.7998L94.9 92.3998L95.7 95.5998H95.4L95.9 96.2998L94.5 97.0998L94.1 96.7998C94.1 96.7998 93.8 96.1998 93.6 95.2998L89.2 94.6998L89 91.7998H89.1Z" fill="#153385" stroke="#101C3F" stroke-linejoin="round"/>
<path d="M104.1 89.5002C99.4996 90.8002 99.5996 94.0002 99.5996 94.0002L95.5996 88.6002L108.1 83.7002L112.6 90.5002L110.7 92.4002C110.7 92.4002 108.7 88.2002 104.1 89.5002Z" fill="#101C3F" stroke="#101C3F" stroke-linejoin="round"/>
<path d="M95.0996 86.1002H90.1996L89.0996 91.8002L93.6996 92.5002C93.8996 93.7002 94.1996 94.9002 94.7996 96.0002L92.2996 99.0002L97.6996 102.5L100.5 100.3C102 100.7 103.7 100.8 105.4 100.7L107.5 103.9L114 101.5L113 97.8002C114 97.0002 114.8 96.1002 115.5 95.1002H120.5C120.5 95.2002 121.6 89.6002 121.6 89.6002L116.8 88.7002C116.6 87.5002 116.2 86.3002 115.7 85.2002L118.3 82.2002L112.9 78.7002L110.3 81.1002C108.7 80.7002 106.8 80.5002 105 80.7002L103.2 77.7002L96.6996 79.9002L97.7996 83.4002C96.6996 84.2002 95.8996 85.1002 95.1996 86.1002H95.0996ZM104.3 86.4002C107.3 86.0002 109.9 87.7002 110.2 90.1002C110.5 92.5002 108.4 94.8002 105.4 95.2002C102.4 95.6002 99.7996 93.9002 99.4996 91.5002C99.1996 89.1002 101.3 86.8002 104.3 86.4002Z" fill="#48EFCF" stroke="#101C3F" stroke-linejoin="round"/>
</g>
</svg>
