<svg width="128" height="128" viewBox="0 0 128 128" fill="none" xmlns="http://www.w3.org/2000/svg">
<rect width="128" height="128" />
<path d="M100.06 16.27C99.0198 16.27 97.9898 16.35 96.9898 16.49C93.7498 11.67 88.2398 8.5 81.9898 8.5C74.0998 8.5 67.3898 13.57 64.9298 20.62C63.7898 20.35 62.6098 20.2 61.3898 20.2C53.0498 20.2 46.2998 26.96 46.2998 35.29C46.2998 36.99 46.5798 38.62 47.0998 40.14H121.51C121.59 39.38 121.63 38.62 121.63 37.84C121.63 25.92 111.97 16.26 100.05 16.26L100.06 16.27Z" fill="#153385" stroke="#101C3F" stroke-miterlimit="10"/>
<path d="M100.06 19.6899C99.0198 19.6899 97.9898 19.7699 96.9898 19.9099C93.7498 15.0899 88.2398 11.9199 81.9898 11.9199C74.0998 11.9199 67.3898 16.9899 64.9298 24.0399C63.7898 23.7699 62.6098 23.6199 61.3898 23.6199C53.0498 23.6199 46.2998 30.3799 46.2998 38.7099C46.2998 40.4099 46.5798 42.0399 47.0998 43.5599H121.51C121.59 42.7999 121.63 42.0399 121.63 41.2599C121.63 29.3399 111.97 19.6799 100.05 19.6799L100.06 19.6899Z" fill="white" stroke="#101C3F" stroke-miterlimit="10"/>
<path d="M53.64 34.8299C52.71 34.8299 51.79 34.8999 50.89 35.0299C47.99 30.7199 43.06 27.8799 37.46 27.8799C30.39 27.8799 24.39 32.4199 22.18 38.7299C21.16 38.4899 20.1 38.3499 19.01 38.3499C11.55 38.3499 5.5 44.3999 5.5 51.8599C5.5 53.3799 5.75 54.8399 6.22 56.2099H72.85C72.92 55.5299 72.96 54.8499 72.96 54.1499C72.96 43.4799 64.31 34.8299 53.64 34.8299Z" fill="#153385" stroke="#101C3F" stroke-miterlimit="10"/>
<path d="M53.64 37.8895C52.71 37.8895 51.79 37.9595 50.89 38.0895C47.99 33.7795 43.06 30.9395 37.46 30.9395C30.39 30.9395 24.39 35.4795 22.18 41.7895C21.16 41.5495 20.1 41.4095 19.01 41.4095C11.55 41.4095 5.5 47.4594 5.5 54.9195C5.5 56.4395 5.75 57.8995 6.22 59.2695H72.85C72.92 58.5895 72.96 57.9095 72.96 57.2095C72.96 46.5395 64.31 37.8895 53.64 37.8895Z" fill="white" stroke="#101C3F" stroke-miterlimit="10"/>
<path d="M81.3203 81.0092C81.3203 81.0092 86.0703 77.4192 89.8903 81.0092V63.9492H81.3203V81.0092Z" fill="#153385" stroke="#101C3F" stroke-miterlimit="10"/>
<path d="M93.2503 90.2794C93.2503 90.2794 98.0503 73.9394 93.3903 56.4494C93.0403 55.1394 91.1803 55.1294 90.8303 56.4394C89.3403 61.9894 87.4403 73.3094 89.9603 90.2794H93.2503Z" fill="#0B64DD" stroke="#101C3F" stroke-miterlimit="10"/>
<path d="M91.5902 91.5694C92.612 91.5694 93.4402 91.1306 93.4402 90.5894C93.4402 90.0481 92.612 89.6094 91.5902 89.6094C90.5685 89.6094 89.7402 90.0481 89.7402 90.5894C89.7402 91.1306 90.5685 91.5694 91.5902 91.5694Z" fill="#101C3F"/>
<path d="M91.5799 90.3799C92.1099 90.3799 92.5399 90.8099 92.5399 91.3399V91.4899C92.5399 91.5999 92.5199 91.7099 92.4799 91.8199L91.5099 94.4899L90.6699 91.7999C90.6399 91.7099 90.6299 91.6099 90.6299 91.5199V91.3399C90.6299 90.8099 91.0599 90.3799 91.5899 90.3799H91.5799Z" fill="#48EFCF"/>
<path d="M67.0097 11.7598C65.1397 14.4998 48.2697 44.9098 54.1397 91.0798L67.0097 89.5598H67.1597L80.4897 91.0798C86.3597 44.9098 69.0297 14.4998 67.1597 11.7598H67.0097Z" fill="#0B64DD"/>
<path d="M67.0097 11.7598C65.1397 14.4998 48.2697 44.9098 54.1397 91.0798L67.0097 89.5598H67.1597L80.4897 91.0798C86.3597 44.9098 69.0297 14.4998 67.1597 11.7598H67.0097Z" stroke="#101C3F" stroke-miterlimit="10"/>
<path d="M67.3099 96.4797C74.589 96.4797 80.4899 94.062 80.4899 91.0797C80.4899 88.0974 74.589 85.6797 67.3099 85.6797C60.0308 85.6797 54.1299 88.0974 54.1299 91.0797C54.1299 94.062 60.0308 96.4797 67.3099 96.4797Z" fill="white" stroke="#101C3F" stroke-miterlimit="10"/>
<path d="M67.31 95.61C73.0261 95.61 77.66 94.0743 77.66 92.18C77.66 90.2857 73.0261 88.75 67.31 88.75C61.5938 88.75 56.96 90.2857 56.96 92.18C56.96 94.0743 61.5938 95.61 67.31 95.61Z" fill="#0B64DD"/>
<mask id="mask0_567_68190" style="mask-type:luminance" maskUnits="userSpaceOnUse" x="56" y="88" width="22" height="8">
<path d="M67.31 95.61C73.0261 95.61 77.66 94.0743 77.66 92.18C77.66 90.2857 73.0261 88.75 67.31 88.75C61.5938 88.75 56.96 90.2857 56.96 92.18C56.96 94.0743 61.5938 95.61 67.31 95.61Z" fill="white"/>
</mask>
<g mask="url(#mask0_567_68190)">
<path d="M67.31 93.8102C73.0261 93.8102 77.66 92.2745 77.66 90.3802C77.66 88.4859 73.0261 86.9502 67.31 86.9502C61.5938 86.9502 56.96 88.4859 56.96 90.3802C56.96 92.2745 61.5938 93.8102 67.31 93.8102Z" fill="#101C3F" stroke="#101C3F" stroke-miterlimit="10"/>
</g>
<path d="M67.31 95.61C73.0261 95.61 77.66 94.0743 77.66 92.18C77.66 90.2857 73.0261 88.75 67.31 88.75C61.5938 88.75 56.96 90.2857 56.96 92.18C56.96 94.0743 61.5938 95.61 67.31 95.61Z" stroke="#101C3F" stroke-miterlimit="10"/>
<path d="M67.0797 48.0593C70.04 48.0593 72.4397 44.8716 72.4397 40.9393C72.4397 37.0071 70.04 33.8193 67.0797 33.8193C64.1195 33.8193 61.7197 37.0071 61.7197 40.9393C61.7197 44.8716 64.1195 48.0593 67.0797 48.0593Z" fill="white"/>
<path d="M67.0503 90.8301C62.7803 90.8301 59.3203 94.2901 59.3203 98.5601V99.8001C59.3203 100.7 59.4803 101.6 59.7903 102.45L67.6703 124.06L74.4403 102.29C74.6703 101.55 74.7903 100.77 74.7903 99.9901V98.5601C74.7903 94.2901 71.3303 90.8301 67.0603 90.8301H67.0503Z" fill="#48EFCF" stroke="#101C3F" stroke-miterlimit="10"/>
<path d="M52.8796 81.0795C52.8796 81.0795 48.1296 77.4895 44.3096 81.0795V64.0195H52.8796V81.0795Z" fill="#153385" stroke="#101C3F" stroke-miterlimit="10"/>
<path d="M40.9498 90.3595C40.9498 90.3595 36.1498 74.0195 40.8098 56.5295C41.1598 55.2195 43.0198 55.2095 43.3698 56.5195C44.8598 62.0695 46.7598 73.3895 44.2398 90.3595H40.9498Z" fill="#0B64DD" stroke="#101C3F" stroke-miterlimit="10"/>
<path d="M42.6202 91.6397C43.6585 91.6397 44.5002 91.2009 44.5002 90.6597C44.5002 90.1185 43.6585 89.6797 42.6202 89.6797C41.5819 89.6797 40.7402 90.1185 40.7402 90.6597C40.7402 91.2009 41.5819 91.6397 42.6202 91.6397Z" fill="#101C3F"/>
<path d="M42.6202 90.4492C42.0902 90.4492 41.6602 90.8792 41.6602 91.4092V91.5592C41.6602 91.6692 41.6802 91.7792 41.7202 91.8892L42.6902 94.5592L43.5302 91.8692C43.5602 91.7792 43.5702 91.6792 43.5702 91.5892V91.4092C43.5702 90.8792 43.1402 90.4492 42.6102 90.4492H42.6202Z" fill="#48EFCF"/>
</svg>
