<svg width="128" height="128" viewBox="0 0 128 128" fill="none" xmlns="http://www.w3.org/2000/svg">
<rect width="128" height="128" />
<path d="M108.03 21.9404H36.9605C34.2101 21.9404 31.9805 24.1701 31.9805 26.9204V66.6304C31.9805 69.3808 34.2101 71.6104 36.9605 71.6104H108.03C110.781 71.6104 113.01 69.3808 113.01 66.6304V26.9204C113.01 24.1701 110.781 21.9404 108.03 21.9404Z" fill="#153385" stroke="#101C3F" stroke-miterlimit="10"/>
<path d="M105.33 21.5H36.9605C34.2101 21.5 31.9805 23.7296 31.9805 26.48V64.54C31.9805 67.2904 34.2101 69.52 36.9605 69.52H105.33C108.081 69.52 110.31 67.2904 110.31 64.54V26.48C110.31 23.7296 108.081 21.5 105.33 21.5Z" fill="#48EFCF" stroke="#101C3F" stroke-miterlimit="10"/>
<path d="M95.77 32.2695H13.48C10.7296 32.2695 8.5 34.4992 8.5 37.2495V86.1495C8.5 88.8999 10.7296 91.1295 13.48 91.1295H95.77C98.5204 91.1295 100.75 88.8999 100.75 86.1495V37.2495C100.75 34.4992 98.5204 32.2695 95.77 32.2695Z" fill="#153385" stroke="#101C3F" stroke-miterlimit="10"/>
<path d="M92.8 32.2695H13.48C10.7296 32.2695 8.5 34.4992 8.5 37.2495V83.6195C8.5 86.3699 10.7296 88.5995 13.48 88.5995H92.8C95.5504 88.5995 97.78 86.3699 97.78 83.6195V37.2495C97.78 34.4992 95.5504 32.2695 92.8 32.2695Z" fill="#0B64DD" stroke="#101C3F" stroke-miterlimit="10"/>
<path d="M17.7002 42.6895H68.1302" stroke="white" stroke-miterlimit="10"/>
<path d="M18.04 54.7295H51.05" stroke="white" stroke-miterlimit="10"/>
<path d="M59.4805 54.7295H85.3405" stroke="white" stroke-miterlimit="10"/>
<path d="M17.8301 79.7793H68.2701" stroke="white" stroke-miterlimit="10"/>
<path d="M79.1104 46.3595C81.1373 46.3595 82.7804 44.7164 82.7804 42.6895C82.7804 40.6626 81.1373 39.0195 79.1104 39.0195C77.0835 39.0195 75.4404 40.6626 75.4404 42.6895C75.4404 44.7164 77.0835 46.3595 79.1104 46.3595Z" fill="white"/>
<path d="M82.7806 68.1191H32.3506" stroke="white" stroke-miterlimit="10"/>
<path d="M21.3702 71.7892C23.3971 71.7892 25.0402 70.1461 25.0402 68.1192C25.0402 66.0923 23.3971 64.4492 21.3702 64.4492C19.3433 64.4492 17.7002 66.0923 17.7002 68.1192C17.7002 70.1461 19.3433 71.7892 21.3702 71.7892Z" fill="white"/>
<path d="M117.83 94.3003C117.83 94.3003 102.2 115.74 82.9198 115.74C63.6398 115.74 48.0098 94.3003 48.0098 94.3003C48.0098 94.3003 63.6398 72.8203 82.9198 72.8203C102.2 72.8203 117.83 94.3003 117.83 94.3003Z" fill="#153385" stroke="#101C3F" stroke-miterlimit="10"/>
<path d="M120.25 91.7202C120.25 91.7202 104.62 113.16 85.3397 113.16C66.0597 113.16 50.4297 91.7202 50.4297 91.7202C50.4297 91.7202 66.0597 70.2402 85.3397 70.2402C104.62 70.2402 120.25 91.7202 120.25 91.7202Z" fill="white" stroke="#101C3F" stroke-miterlimit="10"/>
<path d="M85.3398 106.95C93.7622 106.95 100.59 100.123 100.59 91.7002C100.59 83.2778 93.7622 76.4502 85.3398 76.4502C76.9175 76.4502 70.0898 83.2778 70.0898 91.7002C70.0898 100.123 76.9175 106.95 85.3398 106.95Z" fill="#48EFCF" stroke="#101C3F" stroke-miterlimit="10"/>
<path d="M85.3399 100.12C89.9902 100.12 93.7599 96.3505 93.7599 91.7003C93.7599 87.05 89.9902 83.2803 85.3399 83.2803C80.6897 83.2803 76.9199 87.05 76.9199 91.7003C76.9199 96.3505 80.6897 100.12 85.3399 100.12Z" fill="#0B64DD"/>
</svg>
