<svg width="128" height="128" viewBox="0 0 128 128" fill="none" xmlns="http://www.w3.org/2000/svg">
<rect width="128" height="128" />
<mask id="mask0_567_69882" style="mask-type:luminance" maskUnits="userSpaceOnUse" x="9" y="14" width="110" height="100">
<path d="M118.59 14H9V113.67H118.59V14Z" fill="white"/>
</mask>
<g mask="url(#mask0_567_69882)">
<path d="M83.8701 64.9096C85.0201 61.8596 87.3701 59.2696 90.6101 57.8996C95.9501 55.6396 101.98 57.4296 105.31 61.8696C110.62 61.2596 115.91 64.1596 118.1 69.3296" stroke="#153385" stroke-width="1.04" stroke-miterlimit="10"/>
<path d="M92.58 34.2495L81.41 79.8095C81.12 81.0095 80.05 81.8495 78.81 81.8495H15.31C13.56 81.8495 12.28 80.1995 12.72 78.4995L25.23 30.5595H25.2L25.18 25.6595C25.18 24.1795 26.37 22.9795 27.85 22.9795H46.9701C48.23 22.9795 49.3101 23.8495 49.5801 25.0795C49.8501 26.2995 50.94 27.1795 52.19 27.1795H90.89C92.62 27.1795 93.93 28.2995 93.52 29.9795L92.58 34.2495Z" fill="#153385" stroke="#101C3F" stroke-width="1.04" stroke-miterlimit="10"/>
<path d="M82.1004 14.5195H24.1004C21.3904 14.5195 19.1904 16.7195 19.1904 19.4295V64.9495C19.1904 67.6595 21.3904 69.8595 24.1004 69.8595H82.1004C84.8104 69.8595 87.0104 67.6595 87.0104 64.9495V19.4295C87.0104 16.7195 84.8104 14.5195 82.1004 14.5195Z" fill="white" stroke="#101C3F" stroke-width="1.04" stroke-miterlimit="10"/>
<path d="M77.3602 18.4893H19.3602C16.6502 18.4893 14.4502 20.6893 14.4502 23.3993V68.9193C14.4502 71.6293 16.6502 73.8293 19.3602 73.8293H77.3602C80.0702 73.8293 82.2702 71.6293 82.2702 68.9193V23.3993C82.2702 20.6893 80.0702 18.4893 77.3602 18.4893Z" fill="#48EFCF" stroke="#101C3F" stroke-width="1.04" stroke-miterlimit="10"/>
<path d="M78.7103 30.5793L78.6903 79.2093C78.6903 80.6693 77.5003 81.8493 76.0503 81.8493H12.2003C10.7403 81.8493 9.56027 80.6593 9.56027 79.2093L9.58027 31.2893H9.55027L9.53027 26.4693C9.53027 25.0093 10.7103 23.8193 12.1703 23.8193H31.3703C32.6103 23.8193 33.6803 24.6793 33.9503 25.8893C34.2203 27.0993 35.2903 27.9593 36.5303 27.9593H76.0803C77.5403 27.9593 78.7203 29.1493 78.7203 30.5993V30.5793H78.7103Z" fill="#0B64DD" stroke="#101C3F" stroke-width="1.04" stroke-miterlimit="10"/>
<path d="M109.77 83.3697L54.0904 83.1396C52.4204 100.83 30.9004 113.37 30.9004 113.37L47.4004 113.44C53.1704 108.89 65.0404 98.8496 67.5604 91.2396C67.5604 91.2396 67.5604 104.41 60.4404 113.49L99.5504 113.66C107.4 104.84 111.02 94.0996 109.76 83.3596L109.77 83.3697Z" fill="#153385"/>
<path d="M114.19 76.4194H94.9004C94.9904 76.2394 95.0404 76.0394 95.0404 75.8194V71.2894C95.0404 70.4994 94.4004 69.8594 93.6104 69.8594H69.1804C68.3904 69.8594 67.7504 70.4994 67.7504 71.2894V75.8194C67.7504 76.0294 67.8004 76.2394 67.8904 76.4194H48.8304C48.0404 76.4194 47.4004 77.0594 47.4004 77.8494V81.3594C47.4004 82.1494 48.0404 82.7894 48.8304 82.7894H114.19C114.98 82.7894 115.62 82.1494 115.62 81.3594V77.8494C115.62 77.0594 114.98 76.4194 114.19 76.4194Z" fill="#153385" stroke="#101C3F" stroke-width="1.04" stroke-miterlimit="10"/>
<path d="M114.191 78.4291H95.0306V73.2991C95.0306 72.5091 94.3906 71.8691 93.6006 71.8691H69.1706C68.3806 71.8691 67.7406 72.5091 67.7406 73.2991V78.4291H48.8206C48.0306 78.4291 47.3906 79.0691 47.3906 79.8591V83.3691C47.3906 84.1591 48.0306 84.7991 48.8206 84.7991H114.181C114.971 84.7991 115.611 84.1591 115.611 83.3691V79.8591C115.611 79.0691 114.971 78.4291 114.181 78.4291H114.191Z" fill="#48EFCF" stroke="#101C3F" stroke-width="1.04" stroke-miterlimit="10"/>
<path d="M81.1199 37.4492H81.6699C84.6799 37.4492 87.1199 39.8892 87.1199 42.8992V70.3992H75.6699V42.8992C75.6699 39.8892 78.1099 37.4492 81.1199 37.4492Z" fill="#48EFCF" stroke="#101C3F" stroke-width="1.04" stroke-miterlimit="10"/>
<path d="M56.3598 42.1895H31.8798C30.7298 42.1895 29.7998 43.1195 29.7998 44.2695V44.4795C29.7998 45.6295 30.7298 46.5595 31.8798 46.5595H56.3598C57.5098 46.5595 58.4398 45.6295 58.4398 44.4795V44.2695C58.4398 43.1195 57.5098 42.1895 56.3598 42.1895Z" fill="white"/>
<path d="M46.3906 93.9491C43.8406 91.2791 40.2406 89.6191 36.2606 89.6191C29.6906 89.6191 24.1906 94.1491 22.6806 100.249C16.8806 101.959 12.6406 107.319 12.6406 113.679" stroke="#153385" stroke-width="1.04" stroke-miterlimit="10"/>
</g>
</svg>
