<svg width="128" height="128" viewBox="0 0 128 128" fill="none" xmlns="http://www.w3.org/2000/svg">
<rect width="128" height="128" />
<path d="M25 60.9202C25.7 60.9202 26.39 60.9702 27.06 61.0702C29.24 57.8302 32.94 55.7002 37.14 55.7002C42.44 55.7002 46.95 59.1002 48.6 63.8502C49.36 63.6702 50.16 63.5702 50.98 63.5702C56.58 63.5702 61.12 68.1102 61.12 73.7102C61.12 74.8502 60.93 75.9502 60.58 76.9702H45.13H41.37H39.41H29.13H10.58C10.53 76.4602 10.5 75.9502 10.5 75.4302C10.5 67.4202 16.99 60.9302 25 60.9302V60.9202Z" fill="#153385" stroke="#101C3F" stroke-miterlimit="10"/>
<path d="M25 63.22C25.7 63.22 26.39 63.27 27.06 63.37C29.24 60.13 32.94 58 37.14 58C42.44 58 46.95 61.4 48.6 66.15C49.36 65.97 50.16 65.87 50.98 65.87C56.58 65.87 61.12 70.41 61.12 76.01C61.12 77.15 60.93 78.25 60.58 79.27H45.13H41.37H39.41H29.13H10.58C10.53 78.76 10.5 78.25 10.5 77.73C10.5 69.72 16.99 63.23 25 63.23V63.22Z" fill="white" stroke="#101C3F" stroke-miterlimit="10"/>
<path d="M71.9196 17.3798C72.7096 17.3798 73.4796 17.4398 74.2396 17.5498C76.6896 13.9098 80.8596 11.5098 85.5796 11.5098C91.5496 11.5098 96.6196 15.3398 98.4796 20.6798C99.3396 20.4698 100.24 20.3598 101.16 20.3598C107.46 20.3598 112.57 25.4698 112.57 31.7698C112.57 33.0498 112.35 34.2898 111.96 35.4398H94.5796H90.3496H88.1396H76.5696H55.6896C55.6296 34.8698 55.5996 34.2898 55.5996 33.6998C55.5996 24.6898 62.8996 17.3798 71.9196 17.3798Z" fill="#153385" stroke="#101C3F" stroke-miterlimit="10"/>
<path d="M71.9196 19.9598C72.7096 19.9598 73.4796 20.0198 74.2396 20.1298C76.6896 16.4898 80.8596 14.0898 85.5796 14.0898C91.5496 14.0898 96.6196 17.9198 98.4796 23.2598C99.3396 23.0498 100.24 22.9398 101.16 22.9398C107.46 22.9398 112.57 28.0498 112.57 34.3498C112.57 35.6298 112.35 36.8698 111.96 38.0198H94.5796H90.3496H88.1396H76.5696H55.6896C55.6296 37.4498 55.5996 36.8698 55.5996 36.2798C55.5996 27.2698 62.8996 19.9598 71.9196 19.9598Z" fill="white" stroke="#101C3F" stroke-miterlimit="10"/>
<path d="M63.0001 99.7298C83.0401 91.5998 97.5801 74.3898 97.5801 58.1898V36.9998L63.0001 24.7598H62.9001L31.3301 36.2198V58.1898C31.3301 74.3898 42.8601 91.5998 62.9001 99.7298H63.0001Z" fill="#153385" stroke="#101C3F" stroke-miterlimit="10"/>
<path d="M62.9901 99.7298C82.1201 91.5998 94.5601 74.3898 94.5601 58.1898V36.2198L62.9901 24.7598H62.9001L31.3301 36.2198V58.1898C31.3301 74.3898 43.7701 91.5998 62.9001 99.7298H62.9901Z" fill="#0B64DD" stroke="#101C3F" stroke-miterlimit="10"/>
<path d="M59.7702 76.9496L48.2402 64.1196L52.8402 59.9796L60.1202 68.0896L79.8302 49.3896L84.0802 53.8797L59.7702 76.9496Z" fill="#101C3F" stroke="#101C3F" stroke-miterlimit="10"/>
<path d="M57.9802 75.3798L46.4502 62.5498L51.0402 58.4098L58.3302 66.5198L78.0402 47.8198L82.2902 52.3098L57.9802 75.3798Z" fill="#48EFCF" stroke="#101C3F" stroke-miterlimit="10"/>
<path d="M57.9905 89.28C59.0605 89.28 60.1105 89.36 61.1405 89.5C64.4705 84.55 70.1306 81.29 76.5506 81.29C84.6606 81.29 91.5606 86.5 94.0806 93.75C95.2505 93.47 96.4706 93.32 97.7206 93.32C106.291 93.32 113.231 100.26 113.231 108.83C113.231 110.58 112.941 112.25 112.411 113.82H88.7906H83.0406H80.0406H64.3205H35.9405C35.8605 113.04 35.8105 112.26 35.8105 111.46C35.8105 99.21 45.7405 89.28 57.9905 89.28Z" fill="#153385" stroke="#101C3F" stroke-miterlimit="10"/>
<path d="M57.9905 92.8001C59.0605 92.8001 60.1105 92.8801 61.1405 93.0201C64.4705 88.0701 70.1306 84.8101 76.5506 84.8101C84.6606 84.8101 91.5606 90.0201 94.0806 97.2701C95.2505 96.9901 96.4706 96.8401 97.7206 96.8401C106.291 96.8401 113.231 103.78 113.231 112.35C113.231 114.1 112.941 115.77 112.411 117.34H88.7906H83.0406H80.0406H64.3205H35.9405C35.8605 116.56 35.8105 115.78 35.8105 114.98C35.8105 102.73 45.7405 92.8001 57.9905 92.8001Z" fill="white" stroke="#101C3F" stroke-miterlimit="10"/>
</svg>
