<svg width="128" height="128" viewBox="0 0 128 128" fill="none" xmlns="http://www.w3.org/2000/svg">
<rect width="128" height="128"/>
<path d="M105.21 59.7299L63.6902 42.1499L22.1602 59.7299L63.6902 78.3799L105.21 59.7299Z" fill="#153385" stroke="#101C3F" stroke-linejoin="round"/>
<path d="M63.6905 42.1501L49.4205 31.3701L7.81055 48.7701L22.1605 59.7301L63.6905 42.1501Z" fill="white" stroke="#101C3F" stroke-linejoin="round"/>
<path d="M7.81055 49.7V48.77L22.1605 59.73V60.76L7.81055 49.7Z" fill="#101C3F" stroke="#101C3F" stroke-linejoin="round"/>
<path d="M63.6895 42.1501L77.9495 31.3701L119.559 48.7701L105.209 59.7301L63.6895 42.1501Z" fill="white" stroke="#101C3F" stroke-linejoin="round"/>
<path d="M42.031 66.4996C40.671 66.0896 40.771 64.7896 40.771 64.7896L46.501 55.3696L56.941 42.3797L58.991 44.6696L64.571 41.4596L61.571 33.3896L64.381 37.3496L66.801 45.0096L61.151 48.3997C60.661 50.9197 58.921 57.1996 53.241 61.8396L54.761 62.5696L61.221 54.4697L63.841 57.9396L56.971 65.7296L51.871 63.1096L51.751 62.9496C51.231 63.2997 50.691 63.6497 50.121 63.9697C48.421 64.9296 47.031 65.5696 45.891 65.9796L43.971 71.5797L34.681 71.7596L31.791 68.2096L41.331 68.4396L42.041 66.4996H42.031Z" fill="#101C3F" stroke="#101C3F" stroke-linejoin="round"/>
<path d="M51.5707 26.6099L54.2607 30.6799L53.5507 34.6299L50.4307 33.0199L51.5707 26.6099Z" fill="#101C3F" stroke="#101C3F" stroke-linejoin="round"/>
<path d="M22.0908 61.4296L29.9308 57.6396L33.4208 60.9996L33.0508 61.1696L34.2508 61.7896L33.1808 63.8797L32.4108 63.8396C32.4108 63.8396 31.5408 63.3596 30.5508 62.2796L24.5308 64.9697L22.1008 61.4296H22.0908Z" fill="#101C3F" stroke="#101C3F" stroke-linejoin="round"/>
<path d="M39.4011 46.8301C34.6111 52.0701 37.2211 56.0201 37.2211 56.0201L27.9111 52.2501L40.0111 36.3101L50.9911 41.3801L50.0411 45.3501C50.0411 45.3501 44.1911 41.6001 39.4011 46.8301Z" fill="#101C3F" stroke="#101C3F" stroke-linejoin="round"/>
<path d="M25.2405 49.4999L19.0605 53.3699L22.0905 61.4299L28.4305 58.7899C29.5705 60.2099 30.9805 61.4299 32.6105 62.4199L31.7805 68.2099L41.3205 68.4399L43.1505 63.4599C45.4005 62.7799 47.6205 61.6299 49.6405 60.1299L54.7505 62.5699L61.2105 54.4699L57.0805 50.5399C57.7605 48.7099 58.0905 46.9099 58.1005 45.1799L64.5705 41.4599L61.5705 33.3899L54.8305 35.9999C53.6805 34.5899 52.2605 33.3699 50.6305 32.3999L51.5805 26.6199L41.9605 26.3999L40.4505 31.4299C38.0305 32.1399 35.6105 33.3999 33.4405 35.0599L28.8105 32.6799L22.2705 40.5499L26.3705 44.0899C25.6405 45.9399 25.2905 47.7599 25.2505 49.5099L25.2405 49.4999ZM37.2805 42.7599C40.7305 39.9699 45.3805 39.9999 47.6605 42.8199C49.9405 45.6399 48.9905 50.1899 45.5405 52.9799C42.0905 55.7699 37.4405 55.7399 35.1605 52.9199C32.8805 50.0999 33.8305 45.5499 37.2805 42.7599Z" fill="#48EFCF" stroke="#101C3F" stroke-linejoin="round"/>
<path d="M119.56 49.7V48.77L105.21 59.73V60.76L119.56 49.7Z" fill="#101C3F" stroke="#101C3F" stroke-linejoin="round"/>
<path d="M80.5799 47.0351L78.8958 45.9564C77.6169 45.1372 75.916 45.5099 75.0968 46.7889L62.6916 66.1566C61.8724 67.4355 62.2451 69.1364 63.5241 69.9555L65.2082 71.0343C66.4871 71.8534 68.188 71.4807 69.0072 70.2018L81.4124 50.834C82.2316 49.5551 81.8589 47.8543 80.5799 47.0351Z" fill="#101C3F" stroke="#101C3F" stroke-linejoin="round"/>
<path d="M92.64 14.88C85.58 12.97 79.48 16.22 76.46 21.32C86.02 12 102.97 20.5 102.53 33.52C102.46 35.64 101.89 37.64 100.95 39.4C103.15 37.17 104.57 34.08 104.6 30.14C104.66 23.04 99.42 16.71 92.65 14.88H92.64Z" fill="#101C3F" stroke="#101C3F" stroke-linejoin="round"/>
<path d="M76.8296 13.0901C61.3196 24.3301 72.1696 47.4601 89.2696 48.6401C99.6396 49.3601 109.16 41.6201 109.54 30.9901C110.07 14.7701 90.2596 3.36008 76.8296 13.0801V13.0901ZM104.58 30.5201C104.34 37.4701 98.8396 43.0301 91.9996 43.7601C79.0296 45.1401 68.2696 28.8701 78.1196 18.6401C87.6296 8.76008 105.04 17.3301 104.59 30.5301L104.58 30.5201Z" fill="#48EFCF" stroke="#101C3F" stroke-linejoin="round"/>
<path d="M89.2699 48.64C75.9799 47.72 66.4699 33.54 70.1699 22C66.6599 27.83 66.2299 35.5 71.0799 42.41C79.7399 54.75 99.9899 54.1 105.86 41.22C102.08 46.15 95.8499 49.1 89.2699 48.64Z" fill="#101C3F" stroke="#101C3F" stroke-linejoin="round"/>
<path d="M79.4872 46.3237L77.803 45.245C76.5241 44.4258 74.8232 44.7985 74.0041 46.0774L61.5988 65.4452C60.7796 66.7241 61.1524 68.425 62.4313 69.2441L64.1154 70.3228C65.3944 71.142 67.0952 70.7693 67.9144 69.4904L80.3196 50.1226C81.1388 48.8437 80.7661 47.1428 79.4872 46.3237Z" fill="#48EFCF" stroke="#101C3F" stroke-linejoin="round"/>
<path d="M63.6895 78.38V118.36L105.209 99.93V59.73L63.6895 78.38Z" fill="#0B64DD" stroke="#101C3F" stroke-linejoin="round"/>
<path d="M63.6895 78.38L79.8495 79.97L119.869 62.02L105.209 59.73L63.6895 78.38Z" fill="white" stroke="#101C3F" stroke-linejoin="round"/>
<path d="M63.6895 79.15V78.38L79.8495 79.97L119.869 62.02V62.81L80.0295 80.8L63.6895 79.15Z" fill="#153385" stroke="#101C3F" stroke-linejoin="round"/>
<path d="M63.6902 78.38V118.36L22.1602 99.93V59.73L63.6902 78.38Z" fill="#0B64DD" stroke="#101C3F" stroke-linejoin="round"/>
<path d="M63.69 78.38L47.52 79.97L7.5 62.02L22.16 59.73L63.69 78.38Z" fill="white" stroke="#101C3F" stroke-linejoin="round"/>
<path d="M63.69 79.15V78.38L47.52 79.97L7.5 62.02V62.81L47.34 80.8L63.69 79.15Z" fill="#101C3F" stroke="#101C3F" stroke-linejoin="round"/>
</svg>
