<svg width="128" height="128" viewBox="0 0 128 128" fill="none" xmlns="http://www.w3.org/2000/svg">
<rect width="128" height="128" />
<path d="M32.1699 96.9401L53.4399 117.93C55.5899 120.05 58.9399 120.36 61.4499 118.66C64.7399 116.43 65.1899 111.75 62.3699 108.94L43.0199 89.5801L28.4199 91.4101L32.1699 96.9401Z" fill="#48EFCF"/>
<mask id="mask0_567_69726" style="mask-type:luminance" maskUnits="userSpaceOnUse" x="28" y="89" width="37" height="31">
<path d="M32.1699 96.9401L53.4399 117.93C55.5899 120.05 58.9399 120.36 61.4499 118.66C64.7399 116.43 65.1899 111.75 62.3699 108.94L43.0199 89.5801L28.4199 91.4101L32.1699 96.9401Z" fill="white"/>
</mask>
<g mask="url(#mask0_567_69726)">
<path d="M26.42 101.25L58.75 98.5103L47.06 84.0703L25 91.5003L26.42 101.25Z" fill="#101C3F" stroke="#101C3F" stroke-miterlimit="10"/>
</g>
<path d="M32.1699 96.9401L53.4399 117.93C55.5899 120.05 58.9399 120.36 61.4499 118.66C64.7399 116.43 65.1899 111.75 62.3699 108.94L43.0199 89.5801L28.4199 91.4101L32.1699 96.9401Z" stroke="#101C3F" stroke-miterlimit="10"/>
<path d="M66.0302 15.4004L11.5702 87.2304C9.3902 90.1104 9.2802 94.0604 11.3102 97.0504C13.3802 100.1 17.1902 101.45 20.7102 100.39L106.22 74.6504L66.0302 15.4004Z" fill="#0B64DD"/>
<mask id="mask1_567_69726" style="mask-type:luminance" maskUnits="userSpaceOnUse" x="9" y="15" width="98" height="86">
<path d="M66.0302 15.4004L11.5702 87.2304C9.3902 90.1104 9.2802 94.0604 11.3102 97.0504C13.3802 100.1 17.1902 101.45 20.7102 100.39L106.22 74.6504L66.0302 15.4004Z" fill="white"/>
</mask>
<g mask="url(#mask1_567_69726)">
<path d="M53.1904 16.0908C53.1904 16.0908 54.1304 65.5908 101.23 83.5808L53.1904 16.0908Z" fill="#0B64DD"/>
<path d="M53.1904 16.0908C53.1904 16.0908 54.1304 65.5908 101.23 83.5808" stroke="#101C3F" stroke-miterlimit="10"/>
<path d="M9.59021 77.3105L29.0302 105.971L1.03021 100.601C1.03021 100.601 -2.10979 78.8105 -1.38979 78.3205C-0.669793 77.8305 9.60021 77.3105 9.60021 77.3105H9.59021Z" fill="#0B64DD" stroke="#101C3F" stroke-miterlimit="10"/>
</g>
<path d="M66.0302 15.4004L11.5702 87.2304C9.3902 90.1104 9.2802 94.0604 11.3102 97.0504C13.3802 100.1 17.1902 101.45 20.7102 100.39L106.22 74.6504L66.0302 15.4004Z" stroke="#101C3F" stroke-miterlimit="10"/>
<path d="M108.515 73.8476C114.211 69.8594 109.494 53.2951 97.9787 36.8501C86.4638 20.4052 72.5118 10.307 66.8161 14.2953C61.1203 18.2835 65.8376 34.8479 77.3524 51.2928C88.8673 67.7377 102.819 77.8359 108.515 73.8476Z" fill="#153385"/>
<mask id="mask2_567_69726" style="mask-type:luminance" maskUnits="userSpaceOnUse" x="64" y="13" width="47" height="62">
<path d="M108.515 73.8476C114.211 69.8594 109.494 53.2951 97.9787 36.8501C86.4638 20.4052 72.5118 10.307 66.8161 14.2953C61.1203 18.2835 65.8376 34.8479 77.3524 51.2928C88.8673 67.7377 102.819 77.8359 108.515 73.8476Z" fill="white"/>
</mask>
<g mask="url(#mask2_567_69726)">
<path d="M73.1107 64.38C79.2852 64.38 84.2907 59.1372 84.2907 52.67C84.2907 46.2027 79.2852 40.96 73.1107 40.96C66.9361 40.96 61.9307 46.2027 61.9307 52.67C61.9307 59.1372 66.9361 64.38 73.1107 64.38Z" fill="#48EFCF"/>
</g>
<path d="M108.515 73.8476C114.211 69.8594 109.494 53.2951 97.9787 36.8501C86.4638 20.4052 72.5118 10.307 66.8161 14.2953C61.1203 18.2835 65.8376 34.8479 77.3524 51.2928C88.8673 67.7377 102.819 77.8359 108.515 73.8476Z" stroke="#101C3F" stroke-width="0.99" stroke-miterlimit="10"/>
<path d="M79.0801 30.7502L89.6101 6.2002" stroke="#48EFCF" stroke-miterlimit="10"/>
<path d="M86.2998 39.8197L102.72 21.6797" stroke="#48EFCF" stroke-miterlimit="10"/>
<path d="M92.0195 49.3503L113.4 45.6104" stroke="#48EFCF" stroke-miterlimit="10"/>
<path d="M92.0195 58.0703L118.79 64.7603" stroke="#48EFCF" stroke-miterlimit="10"/>
</svg>
