<svg width="128" height="128" viewBox="0 0 128 128" fill="none" xmlns="http://www.w3.org/2000/svg">
<rect width="128" height="128" />
<path d="M91.74 31.7598H21.5V115.61H91.74V31.7598Z" fill="#153385" stroke="#101C3F" stroke-miterlimit="10"/>
<path d="M105.62 37.82L86.3598 18.5H30.3398V108.12H105.62V37.82Z" fill="white" stroke="#101C3F" stroke-linecap="round" stroke-linejoin="round"/>
<path d="M86.3301 18.5V38.14L105.62 37.82L86.3301 18.5Z" fill="#48EFCF" stroke="#101C3F" stroke-linejoin="round"/>
<path d="M86.3301 38.5001L105.62 44.1801V38.1401L86.3301 38.5001Z" fill="#101C3F"/>
<path d="M53.0794 33.02H38.6094V47.49H53.0794V33.02Z" stroke="#101C3F" stroke-miterlimit="10"/>
<path d="M45.8995 45.0998L40.0195 38.5498L42.3695 36.4498L46.0795 40.5798L56.1295 31.0498L58.2995 33.3298L45.8995 45.0998Z" fill="#0B64DD"/>
<path d="M61.9092 41.23H82.8192" stroke="#101C3F" stroke-miterlimit="10"/>
<path d="M61.9092 47.54H93.8692" stroke="#101C3F" stroke-miterlimit="10"/>
<path d="M38.6094 53.8496H93.8694" stroke="#101C3F" stroke-miterlimit="10"/>
<path d="M38.6094 60.3398H93.8694" stroke="#101C3F" stroke-miterlimit="10"/>
<path d="M53.0794 68.2603H38.6094V82.7303H53.0794V68.2603Z" stroke="#101C3F" stroke-miterlimit="10"/>
<path d="M45.8995 80.34L40.0195 73.8L42.3695 71.69L46.0795 75.82L56.1295 66.29L58.2995 68.57L45.8995 80.34Z" fill="#0B64DD"/>
<path d="M61.9092 76.4702H82.8192" stroke="#101C3F" stroke-miterlimit="10"/>
<path d="M61.9092 82.7803H93.8692" stroke="#101C3F" stroke-miterlimit="10"/>
<path d="M38.6094 89.0898H93.8694" stroke="#101C3F" stroke-miterlimit="10"/>
<path d="M38.6094 95.5801H93.8694" stroke="#101C3F" stroke-miterlimit="10"/>
<path d="M88.39 63.9502L79 57.6602L79.51 68.9502L86.87 71.6302L88.39 63.9502Z" fill="#101C3F"/>
<mask id="mask0_1057_23683" style="mask-type:luminance" maskUnits="userSpaceOnUse" x="79" y="57" width="10" height="15">
<path d="M88.39 63.9502L79 57.6602L79.51 68.9502L86.87 71.6302L88.39 63.9502Z" fill="white"/>
</mask>
<g mask="url(#mask0_1057_23683)">
<path d="M77.9304 62.1292L82.8789 59.3408L81.2246 56.4048L76.2761 59.1932L77.9304 62.1292Z" fill="#101C3F" stroke="#101C3F" stroke-miterlimit="10"/>
</g>
<path d="M88.39 63.9502L79 57.6602L79.51 68.9502L86.87 71.6302L88.39 63.9502Z" stroke="#101C3F" stroke-miterlimit="10"/>
<path d="M79.5098 68.9502L85.7098 69.5702L88.3898 63.9502L115.21 111.54C115.7 112.41 115.39 113.52 114.52 114.01L108.8 117.23C107.93 117.72 106.82 117.41 106.33 116.54L79.5098 68.9502Z" fill="#101C3F"/>
<path d="M79.5098 68.9502L85.7098 69.5702L88.3898 63.9502L115.21 111.54C115.7 112.41 115.39 113.52 114.52 114.01L108.8 117.23C107.93 117.72 106.82 117.41 106.33 116.54L79.5098 68.9502Z" stroke="#101C3F" stroke-linecap="round" stroke-linejoin="round"/>
<path d="M91.0795 61.74L81.6895 55.46L82.2095 66.75L89.5595 69.42L91.0795 61.74Z" fill="white"/>
<mask id="mask1_1057_23683" style="mask-type:luminance" maskUnits="userSpaceOnUse" x="81" y="55" width="11" height="15">
<path d="M91.0795 61.74L81.6895 55.46L82.2095 66.75L89.5595 69.42L91.0795 61.74Z" fill="white"/>
</mask>
<g mask="url(#mask1_1057_23683)">
<path d="M80.6257 59.9158L85.5742 57.1274L83.9199 54.1915L78.9714 56.9798L80.6257 59.9158Z" fill="#101C3F" stroke="#101C3F" stroke-miterlimit="10"/>
</g>
<path d="M91.0795 61.74L81.6895 55.46L82.2095 66.75L89.5595 69.42L91.0795 61.74Z" stroke="#101C3F" stroke-miterlimit="10"/>
<path d="M82.209 66.75L88.409 67.37L91.089 61.75L117.909 109.34C118.399 110.21 118.089 111.32 117.219 111.81L111.499 115.03C110.629 115.52 109.519 115.21 109.029 114.34L82.209 66.75Z" fill="#0B64DD"/>
<mask id="mask2_1057_23683" style="mask-type:luminance" maskUnits="userSpaceOnUse" x="82" y="61" width="37" height="55">
<path d="M82.209 66.75L88.409 67.37L91.089 61.75L117.909 109.34C118.399 110.21 118.089 111.32 117.219 111.81L111.499 115.03C110.629 115.52 109.519 115.21 109.029 114.34L82.209 66.75Z" fill="white"/>
</mask>
<g mask="url(#mask2_1057_23683)">
<path d="M107.17 111.042L116.048 106.04L114.541 103.365L105.663 108.367L107.17 111.042Z" fill="white" stroke="#101C3F" stroke-linecap="round" stroke-linejoin="round"/>
<path d="M105.199 110.17L117.599 103.3L121.919 109.17L116.879 118.6L105.489 115.47L105.199 110.17Z" fill="#48EFCF"/>
</g>
<path d="M82.209 66.75L88.409 67.37L91.089 61.75L117.909 109.34C118.399 110.21 118.089 111.32 117.219 111.81L111.499 115.03C110.629 115.52 109.519 115.21 109.029 114.34L82.209 66.75Z" stroke="#101C3F" stroke-linecap="round" stroke-linejoin="round"/>
<path d="M88.3994 67.3701L110.099 105.87" stroke="#101C3F" stroke-miterlimit="10"/>
</svg>
