<svg width="128" height="128" viewBox="0 0 128 128" fill="none" xmlns="http://www.w3.org/2000/svg">
<rect width="128" height="128"/>
<path d="M88.0997 63C88.0997 63 89.1597 55.35 95.9497 55.15L80.3197 39.52L72.4697 47.37L88.0997 63Z" fill="#153385" stroke="#101C3F" stroke-miterlimit="10"/>
<path d="M107.5 61.0001C107.5 61.0001 96.9495 41.2101 76.6595 29.4501C75.1395 28.5701 73.4295 30.2601 74.3095 31.7801C77.9752 38.1359 86.8746 50.3954 104.223 63.4205C104.653 63.7435 105.266 63.6675 105.602 63.2474L107 61.5001L107.5 61.0001Z" fill="#0B64DD" stroke="#101C3F" stroke-miterlimit="10"/>
<path d="M107.185 63.2789C108.118 62.3455 108.47 61.1837 107.97 60.6838C107.47 60.1839 106.308 60.5354 105.375 61.4687C104.441 62.4021 104.09 63.5639 104.59 64.0638C105.09 64.5637 106.251 64.2123 107.185 63.2789Z" fill="#101C3F"/>
<path d="M106.08 62.1901C106.56 61.7101 107.35 61.7101 107.83 62.1901L107.97 62.3301C108.07 62.4301 108.16 62.5501 108.22 62.6801L109.78 66.0201L106.54 64.3201C106.43 64.2601 106.33 64.1901 106.24 64.1001L106.08 63.9401C105.6 63.4601 105.6 62.6701 106.08 62.1901Z" fill="#48EFCF"/>
<path d="M11.54 12.68C12.33 16.9 24.74 60.22 72.41 97.14L82.81 83.95L82.95 83.81L96.56 72.99C59.64 25.32 15.9 13.33 11.68 12.54L11.54 12.68Z" fill="#0B64DD"/>
<path d="M11.54 12.68C12.33 16.9 24.74 60.22 72.41 97.14L82.81 83.95L82.95 83.81L96.56 72.99C59.64 25.32 15.9 13.33 11.68 12.54L11.54 12.68Z" stroke="#101C3F" stroke-miterlimit="10"/>
<path d="M89.4361 90.0055C96.1024 83.3392 99.2935 75.7222 96.5638 72.9925C93.834 70.2627 86.217 73.4539 79.5508 80.1201C72.8845 86.7864 69.6934 94.4033 72.4231 97.1331C75.1529 99.8629 82.7699 96.6717 89.4361 90.0055Z" fill="white" stroke="#101C3F" stroke-miterlimit="10"/>
<path d="M88.6342 89.2194C93.875 83.9786 96.7148 78.3212 94.9769 76.5834C93.2391 74.8456 87.5818 77.6853 82.3409 82.9262C77.1001 88.167 74.2604 93.8243 75.9982 95.5622C77.736 97.3 83.3933 94.4602 88.6342 89.2194Z" fill="#0B64DD"/>
<mask id="mask0_567_68028" style="mask-type:luminance" maskUnits="userSpaceOnUse" x="75" y="76" width="21" height="21">
<path d="M88.6342 89.2194C93.875 83.9786 96.7148 78.3212 94.9769 76.5834C93.2391 74.8456 87.5818 77.6853 82.3409 82.9262C77.1001 88.167 74.2604 93.8243 75.9982 95.5622C77.736 97.3 83.3933 94.4602 88.6342 89.2194Z" fill="white"/>
</mask>
<g mask="url(#mask0_567_68028)">
<path d="M86.9945 87.5793C92.2354 82.3384 95.0751 76.6811 93.3373 74.9433C91.5994 73.2054 85.9421 76.0452 80.7013 81.286C75.4604 86.5269 72.6207 92.1842 74.3585 93.922C76.0964 95.6598 81.7537 92.8201 86.9945 87.5793Z" fill="#101C3F" stroke="#101C3F" stroke-miterlimit="10"/>
</g>
<path d="M88.6342 89.2194C93.875 83.9786 96.7148 78.3212 94.9769 76.5834C93.2391 74.8456 87.5818 77.6853 82.3409 82.9262C77.1001 88.167 74.2604 93.8243 75.9982 95.5622C77.736 97.3 83.3933 94.4602 88.6342 89.2194Z" stroke="#101C3F" stroke-miterlimit="10"/>
<path d="M44.8758 45.8766C47.5899 43.1624 46.8681 38.0401 43.2636 34.4356C39.659 30.8311 34.5367 30.1093 31.8226 32.8234C29.1085 35.5375 29.8303 40.6598 33.4348 44.2644C37.0393 47.8689 42.1616 48.5907 44.8758 45.8766Z" fill="white"/>
<path d="M84.0204 85.07C80.1104 88.98 80.1104 95.33 84.0204 99.24L85.1604 100.38C85.9904 101.21 86.9504 101.88 88.0104 102.38L115.02 114.96L101.28 88.81C100.81 87.92 100.21 87.1 99.5004 86.39L98.1904 85.08C94.2804 81.17 87.9304 81.17 84.0204 85.08V85.07Z" fill="#48EFCF" stroke="#101C3F" stroke-miterlimit="10"/>
<path d="M62.1109 89.13C62.1109 89.13 54.4609 90.19 54.2609 96.98L38.6309 81.35L46.4809 73.5L62.1109 89.13Z" fill="#153385" stroke="#101C3F" stroke-miterlimit="10"/>
<path d="M59.5004 108.5C59.5004 108.5 40.3204 97.9798 28.5604 77.6898C27.6804 76.1698 29.3704 74.4598 30.8904 75.3398C37.3404 79.0598 49.2604 87.6398 62.5004 105.5L60.0004 108.5H59.5004Z" fill="#0B64DD" stroke="#101C3F" stroke-miterlimit="10"/>
<path d="M62.3878 108.208C63.3368 107.259 63.7009 106.084 63.201 105.584C62.7011 105.084 61.5266 105.448 60.5776 106.397C59.6287 107.346 59.2646 108.521 59.7645 109.021C60.2643 109.521 61.4389 109.157 62.3878 108.208Z" fill="#101C3F"/>
<path d="M61.2907 107.11C60.8107 107.59 60.8107 108.38 61.2907 108.86L61.4307 109C61.5307 109.1 61.6507 109.19 61.7807 109.25L65.1207 110.81L63.4207 107.57C63.3607 107.46 63.2907 107.36 63.2007 107.27L63.0407 107.11C62.5607 106.63 61.7707 106.63 61.2907 107.11Z" fill="#48EFCF"/>
</svg>
