<svg width="128" height="128" viewBox="0 0 128 128" fill="none" xmlns="http://www.w3.org/2000/svg">
<rect width="128" height="128" />
<path d="M35.4805 106.04L107.7 121.6L82.6105 106.04H35.4805Z" fill="#153385"/>
<path d="M82.6105 22.04H35.4805V106.04H82.6105V22.04Z" fill="#48EFCF" stroke="#101C3F" stroke-miterlimit="10"/>
<path d="M22.38 63.3995L15.96 71.5295L92.33 71.4395L85.69 63.5295C84.78 62.4495 83 61.7695 81.07 61.7695H26.89C25.04 61.7695 23.32 62.3895 22.38 63.3995Z" fill="#153385" stroke="#101C3F" stroke-linejoin="round"/>
<path d="M88.47 69.3096H19.97C17.5013 69.3096 15.5 71.3109 15.5 73.7796V90.8596C15.5 93.3283 17.5013 95.3296 19.97 95.3296H88.47C90.9387 95.3296 92.94 93.3283 92.94 90.8596V73.7796C92.94 71.3109 90.9387 69.3096 88.47 69.3096Z" fill="white" stroke="#101C3F" stroke-miterlimit="10"/>
<path d="M28.7598 88.5098C31.5212 88.5098 33.7598 86.2712 33.7598 83.5098C33.7598 80.7483 31.5212 78.5098 28.7598 78.5098C25.9983 78.5098 23.7598 80.7483 23.7598 83.5098C23.7598 86.2712 25.9983 88.5098 28.7598 88.5098Z" fill="#0B64DD"/>
<path d="M77.6203 77.1699H74.1104V90.2499H77.6203V77.1699Z" fill="#0B64DD"/>
<path d="M70.8596 77.1699H67.3496V90.2499H70.8596V77.1699Z" fill="#0B64DD"/>
<path d="M22.3802 34.67L15.9502 42.8L92.3202 42.71L85.6802 34.8C84.7702 33.72 82.9902 33.04 81.0602 33.04H26.8902C25.0402 33.04 23.3202 33.66 22.3802 34.67Z" fill="#153385" stroke="#101C3F" stroke-linejoin="round"/>
<path d="M88.47 40.5898H19.97C17.5013 40.5898 15.5 42.5911 15.5 45.0598V62.1398C15.5 64.6086 17.5013 66.6098 19.97 66.6098H88.47C90.9387 66.6098 92.94 64.6086 92.94 62.1398V45.0598C92.94 42.5911 90.9387 40.5898 88.47 40.5898Z" fill="white" stroke="#101C3F" stroke-miterlimit="10"/>
<path d="M28.7598 59.7803C31.5212 59.7803 33.7598 57.5417 33.7598 54.7803C33.7598 52.0188 31.5212 49.7803 28.7598 49.7803C25.9983 49.7803 23.7598 52.0188 23.7598 54.7803C23.7598 57.5417 25.9983 59.7803 28.7598 59.7803Z" fill="#0B64DD"/>
<path d="M77.6203 48.4404H74.1104V61.5204H77.6203V48.4404Z" fill="#0B64DD"/>
<path d="M70.8596 48.4404H67.3496V61.5204H70.8596V48.4404Z" fill="#0B64DD"/>
<path d="M82.6104 22.04L107.2 6.5V120.74L82.6104 106.04V22.04Z" fill="#0B64DD" stroke="#101C3F" stroke-linejoin="round"/>
<path d="M112.21 121.6H107.7L107.71 6.11035L112.21 8.10035V121.6Z" fill="#153385"/>
<path d="M107.2 6.5L112.21 8.1V121.6L107.04 121" stroke="#101C3F" stroke-linejoin="round"/>
<path d="M100.991 66.2203C102.333 66.2203 103.421 64.6757 103.421 62.7703C103.421 60.8649 102.333 59.3203 100.991 59.3203C99.6485 59.3203 98.5605 60.8649 98.5605 62.7703C98.5605 64.6757 99.6485 66.2203 100.991 66.2203Z" fill="#101C3F"/>
<path d="M100.99 59.3203L103.9 60.8003C104.55 61.1303 104.97 61.8003 104.97 62.5403C104.97 63.1903 104.64 63.8003 104.1 64.1603L100.99 66.2303V59.3203Z" fill="#101C3F"/>
</svg>
