<svg width="128" height="128" viewBox="0 0 128 128" fill="none" xmlns="http://www.w3.org/2000/svg">
<g clip-path="url(#clip0_567_69657)">
<rect width="128" height="128" />
<path d="M16.25 45.5596H43.49" stroke="#153385" stroke-width="0.96" stroke-miterlimit="10"/>
<path d="M14 71.5801H37.25" stroke="#153385" stroke-width="0.96" stroke-miterlimit="10"/>
<path d="M19.9502 84.5996H39.7902" stroke="#153385" stroke-width="0.96" stroke-miterlimit="10"/>
<path d="M19.9502 107.05H39.7902" stroke="#153385" stroke-width="0.96" stroke-miterlimit="10"/>
<path d="M17.9004 58.5703H45.2704" stroke="#153385" stroke-width="0.96" stroke-miterlimit="10"/>
<path d="M17.9004 24.5498H45.2704" stroke="#153385" stroke-width="0.96" stroke-miterlimit="10"/>
<path d="M67.08 116.32H37V17.9199H67.08L116.28 66.0099L67.08 116.33V116.32Z" fill="#153385" stroke="#101C3F" stroke-width="0.96" stroke-miterlimit="10"/>
<path d="M67.0302 111.88H36.9502V13.4805H67.0302L116.23 61.5705L67.0302 111.89V111.88Z" fill="#48EFCF" stroke="#101C3F" stroke-width="0.96" stroke-miterlimit="10"/>
<path d="M58.8202 101.69C58.8202 101.56 58.7702 101.44 58.6802 101.35C58.5902 101.26 58.4702 101.21 58.3402 101.21H21.6602V93.3895H58.7102C58.9702 93.3895 59.1902 93.1795 59.1902 92.9095V86.5195L67.4102 95.3695C67.5002 95.4695 67.6302 95.5195 67.7602 95.5195H68.9902V96.7795L58.7902 108.58L58.8202 101.69Z" fill="#153385"/>
<path d="M59.6697 87.7298L67.0597 95.6898C67.2397 95.8898 67.4997 95.9998 67.7597 95.9998H68.5097V96.5998L59.2797 107.28L59.2997 101.69C59.2997 101.44 59.1997 101.19 59.0197 101.01C58.8397 100.83 58.5997 100.73 58.3397 100.73H22.1397V93.8698H58.7097C59.2397 93.8698 59.6697 93.4398 59.6697 92.9098V87.7298ZM58.7097 85.2998V92.9098H21.1797V101.69H58.3397L58.3197 108.6C58.3197 108.89 58.5497 109.07 58.7897 109.07C58.9197 109.07 59.0397 109.02 59.1397 108.91L69.4597 96.9598V95.0398H67.7497L58.6997 85.2998H58.7097Z" fill="#101C3F"/>
<path d="M58.7101 99.7699H21.5801V90.9899H58.7101V83.3799L68.9601 95.0399L58.7101 107.05V99.7699Z" fill="#0B64DD" stroke="#101C3F" stroke-width="0.96" stroke-linecap="round" stroke-linejoin="round"/>
<path d="M58.7099 47.8403C58.7099 47.8403 58.6199 47.8103 58.6099 47.8003L58.7099 40.9303C58.7099 40.8003 58.6599 40.6803 58.5699 40.5903C58.4799 40.5003 58.3599 40.4503 58.2299 40.4503L21.6699 40.4703V32.6503H58.7199C58.9799 32.6503 59.1999 32.4403 59.1999 32.1703V25.7803L67.4199 34.6303C67.5099 34.7303 67.6399 34.7803 67.7699 34.7803H68.9999V36.0403L58.7299 47.8503L58.7099 47.8403Z" fill="#153385"/>
<path d="M59.6697 26.9898L67.0597 34.9498C67.2397 35.1498 67.4997 35.2598 67.7597 35.2598H68.5097V35.8598L59.1097 46.6698L59.1897 40.9398C59.1897 40.6798 59.0897 40.4398 58.9097 40.2498C58.7297 40.0698 58.4797 39.9698 58.2297 39.9698L22.1497 39.9898V33.1298H58.7197C59.2497 33.1298 59.6797 32.6998 59.6797 32.1698V26.9898M58.7097 24.5498V32.1598H21.1797V40.9398L58.2197 40.9198L58.1297 47.8298C58.1297 48.1198 58.4197 48.3198 58.6997 48.3198C58.8397 48.3198 58.9797 48.2698 59.0697 48.1598L69.4597 36.2098V34.2898H67.7497L58.6997 24.5498H58.7097Z" fill="#101C3F"/>
<path d="M58.7101 39.0199H21.5801V30.2399H58.7101V22.6299L68.9601 34.2999L58.7101 46.2999V39.0199Z" fill="#0B64DD" stroke="#101C3F" stroke-width="0.96" stroke-linecap="round" stroke-linejoin="round"/>
<mask id="mask0_567_69657" style="mask-type:luminance" maskUnits="userSpaceOnUse" x="36" y="13" width="101" height="99">
<path d="M92.9902 111.88H36.9502V13.4805H96.2702L136.86 60.1005L92.9902 111.88Z" fill="white"/>
</mask>
<g mask="url(#mask0_567_69657)">
<path d="M94.7503 78.5203H35.7803V58.8903H95.6103V41.7803L116.15 63.8903H119.87V67.7303L94.7003 96.8803L94.7503 78.5203Z" fill="#153385"/>
<path d="M96.0905 43.0005L115.651 64.0605L115.931 64.3705H119.391V67.5505L95.1705 95.5905L95.2206 79.0005V78.0406H94.2606H36.2605V59.3705H96.0905V43.0005ZM95.1305 40.5605V58.4105H35.3105V78.9905H94.2805L94.2206 98.1606L120.001 67.9005V63.4105H116.361L95.1405 40.5605H95.1305Z" fill="#101C3F"/>
<path d="M95.1305 74.5003H36.2305V53.9203H95.1305V36.0703L119.5 63.5003L95.1305 91.5603V74.5003Z" fill="#0B64DD" stroke="#101C3F" stroke-width="0.96" stroke-miterlimit="10"/>
</g>
</g>
<defs>
<clipPath id="clip0_567_69657">
<rect width="128" height="128" fill="white"/>
</clipPath>
</defs>
</svg>
