<svg width="128" height="128" viewBox="0 0 128 128" fill="none" xmlns="http://www.w3.org/2000/svg">
<rect width="128" height="128" />
<path d="M89.47 20.9199H15.5V113.69H89.47V20.9199Z" fill="#153385" stroke="#101C3F" stroke-miterlimit="10"/>
<path d="M98.8198 28.23L80.1498 9.5H25.8398V102.64H98.8198V28.23Z" fill="white" stroke="#101C3F" stroke-linecap="round" stroke-linejoin="round"/>
<path d="M59.5999 38.9805H37.9199V63.4605H59.5999V38.9805Z" fill="#0B64DD"/>
<path d="M65.3604 52.25H86.1003" stroke="#101C3F" stroke-miterlimit="10" stroke-linecap="round"/>
<path d="M65.3604 42.7305H86.1003" stroke="#101C3F" stroke-miterlimit="10" stroke-linecap="round"/>
<path d="M65.3604 61.7705H86.1003" stroke="#101C3F" stroke-miterlimit="10" stroke-linecap="round"/>
<path d="M37.9199 71.29H86.0999" stroke="#101C3F" stroke-miterlimit="10" stroke-linecap="round"/>
<path d="M37.9199 80.8105H86.0999" stroke="#101C3F" stroke-miterlimit="10" stroke-linecap="round"/>
<path d="M80.1201 9.5V28.54L98.8201 28.23L80.1201 9.5Z" fill="#48EFCF" stroke="#101C3F" stroke-linejoin="round"/>
<path d="M79.7305 28.89L98.4205 34.4V28.54L79.7305 28.89Z" fill="#101C3F"/>
<path d="M89.2304 118.08C102.55 118.08 113.35 107.27 113.35 93.9303C113.35 80.5903 102.55 69.7803 89.2304 69.7803C75.9104 69.7803 65.1104 80.5903 65.1104 93.9303C65.1104 107.27 75.9104 118.08 89.2304 118.08Z" fill="#153385" stroke="#101C3F" stroke-miterlimit="10"/>
<path d="M86.1298 118.08C99.4498 118.08 110.25 107.27 110.25 93.9303C110.25 80.5903 99.4498 69.7803 86.1298 69.7803C72.8098 69.7803 62.0098 80.5903 62.0098 93.9303C62.0098 107.27 72.8098 118.08 86.1298 118.08Z" fill="#48EFCF" stroke="#101C3F" stroke-linecap="round" stroke-linejoin="round"/>
<path d="M73.96 96.8296L82.6 103.62L96.72 84.5996" stroke="#101C3F" stroke-width="5" stroke-miterlimit="10"/>
</svg>
