<svg width="15" height="16" viewBox="0 0 15 16" fill="none" xmlns="http://www.w3.org/2000/svg">
<path fill-rule="evenodd" clip-rule="evenodd" d="M7.56108 1.14412L12.9756 2.28524C13.112 2.31384 13.2095 2.43411 13.2095 2.57419V8.13605C13.2095 9.62186 12.6052 11.1488 11.5081 12.4344C10.4454 13.6789 9.00661 14.5649 7.55969 14.864C7.53988 14.8676 7.52008 14.8698 7.50028 14.8698C7.48048 14.8698 7.45995 14.8676 7.44015 14.864C5.99395 14.5648 4.55436 13.6789 3.49249 12.4344C2.39537 11.1488 1.79108 9.6226 1.79108 8.13605V2.57419C1.79108 2.43485 1.88862 2.31458 2.02503 2.28524L7.43951 1.14412C7.47911 1.13606 7.52074 1.13606 7.56108 1.14412ZM12.619 2.814L7.50006 1.73521L2.38108 2.814V8.13611C2.38108 10.8694 4.71904 13.6649 7.50006 14.273C10.2809 13.6651 12.619 10.8694 12.619 8.13611V2.814ZM10.248 4.86226L6.51441 8.59589L4.75213 6.83361C4.637 6.71847 4.44998 6.71847 4.33484 6.83361C4.2197 6.94875 4.2197 7.13576 4.33484 7.25091L6.30613 9.2222C6.36114 9.2772 6.43667 9.30874 6.51515 9.30874C6.59362 9.30874 6.66842 9.27793 6.72416 9.2222L10.666 5.28036C10.7811 5.16523 10.7811 4.97821 10.666 4.86307C10.5501 4.7472 10.3632 4.74712 10.248 4.86226ZM14.316 8.13611V1.43672L7.50006 6.10352e-05L0.684082 1.43672V8.13611C0.684082 11.8052 3.80098 15.395 7.50006 16.0001C11.1991 15.395 14.316 11.8052 14.316 8.13611Z" fill="currentColor"/>
<path d="M10.248 4.86226L6.51441 8.59589L4.75213 6.83361C4.637 6.71847 4.44998 6.71847 4.33484 6.83361C4.2197 6.94875 4.2197 7.13576 4.33484 7.25091L6.30613 9.2222C6.36114 9.2772 6.43667 9.30874 6.51515 9.30874C6.59362 9.30874 6.66842 9.27793 6.72416 9.2222L10.666 5.28036C10.7811 5.16523 10.7811 4.97821 10.666 4.86307C10.5501 4.7472 10.3632 4.74712 10.248 4.86226Z" fill="white"/>
<path fill-rule="evenodd" clip-rule="evenodd" d="M7.56108 1.14412L12.9756 2.28524C13.112 2.31384 13.2095 2.43411 13.2095 2.57419V8.13605C13.2095 9.62186 12.6052 11.1488 11.5081 12.4344C10.4454 13.6789 9.00661 14.5649 7.55969 14.864C7.53988 14.8676 7.52008 14.8698 7.50028 14.8698C7.48048 14.8698 7.45995 14.8676 7.44015 14.864C5.99395 14.5648 4.55436 13.6789 3.49249 12.4344C2.39537 11.1488 1.79108 9.6226 1.79108 8.13605V2.57419C1.79108 2.43485 1.88862 2.31458 2.02503 2.28524L7.43951 1.14412C7.47911 1.13606 7.52074 1.13606 7.56108 1.14412ZM7.50006 1.73521L12.619 2.814V8.13611C12.619 10.8694 10.2809 13.6651 7.50006 14.273C4.71904 13.6649 2.38108 10.8694 2.38108 8.13611V2.814L7.50006 1.73521Z" fill="white"/>
</svg>
