<svg width="15" height="16" viewBox="0 0 15 16" fill="none" xmlns="http://www.w3.org/2000/svg">
<path fill-rule="evenodd" clip-rule="evenodd" d="M7.56101 1.14412L12.9755 2.28524C13.1119 2.31384 13.2094 2.43411 13.2094 2.57419V8.13605C13.2094 9.62186 12.6051 11.1487 11.508 12.4344C10.4454 13.6789 9.00655 14.5649 7.55962 14.864C7.53982 14.8676 7.52002 14.8698 7.50022 14.8698C7.48042 14.8698 7.45989 14.8676 7.44009 14.864C5.99389 14.5648 4.5543 13.6789 3.49243 12.4344C2.39531 11.1488 1.79102 9.62259 1.79102 8.13605V2.57419C1.79102 2.43485 1.88856 2.31458 2.02497 2.28524L7.43945 1.14412C7.47905 1.13606 7.52068 1.13606 7.56101 1.14412ZM12.619 2.814L7.5 1.73521L2.38102 2.814V8.13611C2.38102 10.8694 4.71897 13.6649 7.5 14.273C10.2808 13.6651 12.619 10.8694 12.619 8.13611V2.814ZM10.248 4.86226L6.51435 8.59589L4.75207 6.83361C4.63693 6.71847 4.44992 6.71847 4.33478 6.83361C4.21964 6.94875 4.21964 7.13576 4.33478 7.2509L6.30607 9.2222C6.36107 9.2772 6.43661 9.30873 6.51508 9.30873C6.59356 9.30873 6.66836 9.27793 6.7241 9.2222L10.6659 5.28036C10.7811 5.16523 10.7811 4.97821 10.6659 4.86307C10.5501 4.7472 10.3631 4.74712 10.248 4.86226ZM14.316 8.13611V1.43672L7.5 6.10352e-05L0.684021 1.43672V8.13611C0.684021 11.8052 3.80092 15.395 7.5 16.0001C11.1991 15.395 14.316 11.8052 14.316 8.13611Z" fill="currentColor"/>
</svg>
