<svg width="55" height="55" viewBox="0 0 55 55" fill="none" xmlns="http://www.w3.org/2000/svg">
<path d="M43.6132 4.97144H13.3374C11.6762 4.97144 10.3296 6.31808 10.3296 7.97925V46.8187C10.3296 48.4799 11.6762 49.8265 13.3374 49.8265H43.6132C45.2744 49.8265 46.621 48.4799 46.621 46.8187V7.97925C46.621 6.31808 45.2744 4.97144 43.6132 4.97144Z" fill="#153385" stroke="#101C3F" stroke-width="0.5" stroke-miterlimit="10"/>
<path d="M41.6625 4.94141H11.3867C9.72555 4.94141 8.37891 6.28805 8.37891 7.94922V46.7887C8.37891 48.4498 9.72555 49.7965 11.3867 49.7965H41.6625C43.3237 49.7965 44.6703 48.4498 44.6703 46.7887V7.94922C44.6703 6.28805 43.3237 4.94141 41.6625 4.94141Z" fill="white" stroke="#101C3F" stroke-width="0.5" stroke-miterlimit="10"/>
<path d="M29.3306 46.5309H23.6458C23.2247 46.5309 22.8853 46.8703 22.8853 47.2914C22.8853 47.7125 23.2247 48.0563 23.6458 48.0563H29.3306C29.7517 48.0563 30.0911 47.7168 30.0911 47.2957C30.0911 46.8746 29.7517 46.5309 29.3306 46.5309Z" fill="#153385" stroke="#101C3F" stroke-miterlimit="10"/>
<path d="M38.6804 8.29297H14.3687C12.9448 8.29297 11.7905 9.44723 11.7905 10.8711V42.2727C11.7905 43.6965 12.9448 44.8508 14.3687 44.8508H38.6804C40.1042 44.8508 41.2585 43.6965 41.2585 42.2727V10.8711C41.2585 9.44723 40.1042 8.29297 38.6804 8.29297Z" fill="#0B64DD" stroke="#101C3F" stroke-width="0.5" stroke-miterlimit="10"/>
<path d="M28.0068 21.8496H28.849L33.3092 18.6098L31.324 17.0801L28.0068 21.8496Z" fill="#101C3F"/>
<path d="M35.9347 5.07458L35.5737 17.759L37.6448 21.7379H38.4183V5.07458H35.9347Z" fill="#101C3F"/>
<path d="M28.2646 5.07458V21.3383L32.901 17.991L37.3826 21.2265V5.07458H28.2646Z" fill="#48EFCF" stroke="#101C3F" stroke-width="0.5" stroke-miterlimit="10"/>
<path d="M16.1562 29.8461H36.893" stroke="white" stroke-miterlimit="10" stroke-linecap="round"/>
<path d="M16.1562 25.8672H36.893" stroke="white" stroke-miterlimit="10" stroke-linecap="round"/>
<path d="M16.1562 33.8207H36.893" stroke="white" stroke-miterlimit="10" stroke-linecap="round"/>
<path d="M16.1562 37.7996H36.893" stroke="white" stroke-miterlimit="10" stroke-linecap="round"/>
</svg>
