<svg width="55" height="55" viewBox="0 0 55 55" fill="none" xmlns="http://www.w3.org/2000/svg">
<path d="M12.2461 47.4804C12.2461 49.5344 19.1254 51.1972 27.6074 51.1972C36.0895 51.1972 42.9688 49.5344 42.9688 47.4804V45.1859H12.2461V47.4804Z" fill="#0B64DD" stroke="#101C3F" stroke-width="0.5" stroke-miterlimit="10"/>
<path d="M27.6074 48.907C36.0912 48.907 42.9688 47.2429 42.9688 45.1902C42.9688 43.1375 36.0912 41.4734 27.6074 41.4734C19.1236 41.4734 12.2461 43.1375 12.2461 45.1902C12.2461 47.2429 19.1236 48.907 27.6074 48.907Z" fill="#153385" stroke="#101C3F" stroke-width="0.5" stroke-miterlimit="10"/>
<path d="M34.0873 34.302C31.0924 31.8614 28.7377 31.0192 28.7377 28.5227C28.7377 26.0262 30.1599 25.2012 31.2385 24.7716C39.8193 21.377 39.4412 11.8895 39.4412 11.8895L27.6162 12.663L15.7912 11.8895C15.7912 11.8895 15.4131 21.377 23.9939 24.7716C25.0724 25.1969 26.4947 26.0219 26.4947 28.5227C26.4947 31.0235 24.14 31.8657 21.1451 34.302C19.233 35.8575 15.3271 41.4091 15.7955 45.3923C15.7955 45.3923 19.7443 47.7255 27.5947 47.7341C27.5947 47.7341 27.6119 47.7341 27.6205 47.7341C27.6291 47.7341 27.6377 47.7341 27.6463 47.7341C35.4967 47.7212 39.4455 45.3923 39.4455 45.3923C39.9138 41.4091 36.008 35.8575 34.0959 34.302H34.0873Z" fill="white"/>
<mask id="mask0_907_23405" style="mask-type:luminance" maskUnits="userSpaceOnUse" x="15" y="11" width="25" height="37">
<path d="M34.0873 34.302C31.0924 31.8614 28.7377 31.0192 28.7377 28.5227C28.7377 26.0262 30.1599 25.2012 31.2385 24.7716C39.8193 21.377 39.4412 11.8895 39.4412 11.8895L27.6162 12.663L15.7912 11.8895C15.7912 11.8895 15.4131 21.377 23.9939 24.7716C25.0724 25.1969 26.4947 26.0219 26.4947 28.5227C26.4947 31.0235 24.14 31.8657 21.1451 34.302C19.233 35.8575 15.3271 41.4091 15.7955 45.3923C15.7955 45.3923 19.7443 47.7255 27.5947 47.7341C27.5947 47.7341 27.6119 47.7341 27.6205 47.7341C27.6291 47.7341 27.6377 47.7341 27.6463 47.7341C35.4967 47.7212 39.4455 45.3923 39.4455 45.3923C39.9138 41.4091 36.008 35.8575 34.0959 34.302H34.0873Z" fill="white"/>
</mask>
<g mask="url(#mask0_907_23405)">
<path d="M19.2158 22.8208H34.6416L28.7334 28.5228H26.4861L19.2158 22.8208Z" fill="#48EFCF"/>
<path d="M15.7439 41.1125H39.4756L40.8807 50.0372L13.415 49.1434L15.7439 41.1125Z" fill="#48EFCF"/>
<path d="M27.6074 27.6118V34.0614" stroke="#48EFCF" stroke-width="0.5" stroke-miterlimit="10"/>
<path d="M27.6074 34.8134V36.7856" stroke="#48EFCF" stroke-width="0.5" stroke-miterlimit="10"/>
<path d="M27.6074 38.0403V42.9387" stroke="#48EFCF" stroke-width="0.5" stroke-miterlimit="10"/>
</g>
<path d="M34.0873 34.302C31.0924 31.8614 28.7377 31.0192 28.7377 28.5227C28.7377 26.0262 30.1599 25.2012 31.2385 24.7716C39.8193 21.377 39.4412 11.8895 39.4412 11.8895L27.6162 12.663L15.7912 11.8895C15.7912 11.8895 15.4131 21.377 23.9939 24.7716C25.0724 25.1969 26.4947 26.0219 26.4947 28.5227C26.4947 31.0235 24.14 31.8657 21.1451 34.302C19.233 35.8575 15.3271 41.4091 15.7955 45.3923C15.7955 45.3923 19.7443 47.7255 27.5947 47.7341C27.5947 47.7341 27.6119 47.7341 27.6205 47.7341C27.6291 47.7341 27.6377 47.7341 27.6463 47.7341C35.4967 47.7212 39.4455 45.3923 39.4455 45.3923C39.9138 41.4091 36.008 35.8575 34.0959 34.302H34.0873Z" stroke="#101C3F" stroke-width="0.5" stroke-miterlimit="10"/>
<path d="M12.2461 10.0934C12.2461 12.1473 19.1254 13.8102 27.6074 13.8102C36.0895 13.8102 42.9688 12.1473 42.9688 10.0934V7.79883H12.2461V10.0934Z" fill="#153385" stroke="#101C3F" stroke-width="0.5" stroke-miterlimit="10"/>
<path d="M27.6074 11.5156C36.0912 11.5156 42.9688 9.85156 42.9688 7.79883C42.9688 5.7461 36.0912 4.08203 27.6074 4.08203C19.1236 4.08203 12.2461 5.7461 12.2461 7.79883C12.2461 9.85156 19.1236 11.5156 27.6074 11.5156Z" fill="#0B64DD" stroke="#101C3F" stroke-width="0.5" stroke-miterlimit="10"/>
</svg>
