<svg viewBox="0 0 512 512" xmlns="http://www.w3.org/2000/svg" fill-rule="evenodd" clip-rule="evenodd" stroke-linejoin="round" stroke-miterlimit="2"><path d="M506 256C506 118.013 394.066 6.147 256 6.147 117.93 6.147 6 118.013 6 256c0 137.995 111.93 249.852 250 249.852 138.067 0 250-111.857 250-249.852zM210.496 117.193c-1.966 3.854-1.966 8.9-1.966 18.996v57.204c0 2.521 0 3.782.32 4.948a8.977 8.977 0 001.37 2.876c.703.981 1.681 1.776 3.639 3.368l14.48 11.753c2.36 1.917 3.54 2.876 3.969 4.027a4.525 4.525 0 010 3.138c-.43 1.151-1.61 2.11-3.97 4.027l-14.476 11.754c-1.96 1.591-2.94 2.386-3.642 3.368a8.977 8.977 0 00-1.37 2.875c-.32 1.166-.32 2.427-.32 4.949V375.81c0 10.092 0 15.138 1.966 18.993a18.007 18.007 0 007.88 7.876c3.857 1.966 8.909 1.966 19.007 1.966h37.232c10.098 0 15.147 0 19.005-1.966a18.014 18.014 0 007.881-7.876c1.966-3.855 1.966-8.9 1.966-18.993v-57.207c0-2.522 0-3.783-.32-4.946a8.991 8.991 0 00-1.37-2.878c-.705-.982-1.683-1.776-3.64-3.365l-14.48-11.757c-2.358-1.914-3.538-2.872-3.967-4.027a4.485 4.485 0 010-3.135c.429-1.154 1.606-2.112 3.967-4.027l14.48-11.756c1.957-1.59 2.935-2.384 3.64-3.365a8.991 8.991 0 001.37-2.879c.32-1.166.32-2.424.32-4.945V136.189c0-10.096 0-15.142-1.966-18.996a18.029 18.029 0 00-7.881-7.876c-3.858-1.964-8.907-1.964-19.005-1.964h-37.232c-10.098 0-15.15 0-19.008 1.964a18.022 18.022 0 00-7.879 7.876z" fill="#1a285f"/></svg>