<svg width="32" height="32" viewBox="0 0 32 32" fill="none" xmlns="http://www.w3.org/2000/svg">
<path d="M5.45384 12.3281C5.49636 12.7537 5.4751 12.9405 5.36879 13.0235C5.27311 13.1066 5.24121 13.2934 5.28374 13.6774C5.3369 14.1964 5.35816 14.2275 5.6452 14.2275C5.80467 14.2275 5.96414 14.1964 5.9854 14.1445C6.01729 14.103 6.07045 13.5425 6.11298 12.899L6.18739 11.7365H5.79404H5.39005L5.45384 12.3281Z" fill="black"/>
<path d="M4.09304 11.9755C3.92294 12.0274 3.76347 12.0896 3.74221 12.1C3.72095 12.1104 3.82726 12.3803 3.9761 12.702C4.1462 13.0757 4.19935 13.304 4.12494 13.3767C4.06115 13.4389 4.1143 13.6569 4.29504 14.0098C4.56082 14.508 4.58208 14.5288 4.83723 14.4146C4.98606 14.3523 5.10301 14.2589 5.10301 14.2174C5.10301 14.1032 4.47577 11.9236 4.44387 11.8924C4.42261 11.8821 4.27377 11.9132 4.09304 11.9755Z" fill="black"/>
<path d="M6.97409 12.5669C6.84651 12.9925 6.75083 13.1585 6.65515 13.1274C6.55947 13.0859 6.46379 13.2623 6.35748 13.6983L6.18738 14.321L6.50631 14.3833C6.67641 14.4248 6.83588 14.4352 6.84651 14.4144C6.89967 14.3625 7.86711 12.2659 7.86711 12.214C7.86711 12.1829 7.26113 11.9442 7.17608 11.9442C7.16545 11.9442 7.06977 12.2244 6.97409 12.5669Z" fill="black"/>
<path d="M2.55154 12.8271L2.29639 13.0865L2.7429 13.5328C3.04057 13.8338 3.15752 14.0103 3.0831 14.0829C3.00868 14.1556 3.12562 14.332 3.43393 14.6227L3.89107 15.0586L4.11433 14.8303L4.33758 14.5915L3.64655 13.6574C3.27446 13.1384 2.92363 12.6921 2.8811 12.6402C2.83858 12.5987 2.68974 12.6817 2.55154 12.8271Z" fill="black"/>
<path d="M8.30293 13.2416C8.11157 13.5011 7.90958 13.6776 7.82453 13.6464C7.73948 13.6153 7.54811 13.7917 7.35675 14.0927C7.04845 14.5494 7.03781 14.6013 7.19728 14.7778C7.29296 14.8816 7.43117 14.9438 7.49496 14.9334C7.55874 14.9127 7.98399 14.5183 8.44114 14.0408C9.25974 13.2105 9.27037 13.1794 9.08964 12.9821C8.81323 12.6812 8.68565 12.7227 8.30293 13.2416Z" fill="black"/>
<path d="M19.2426 15.8882V19.002H19.721H20.1994V18.0159C20.1994 16.7185 20.3163 16.7289 21.3582 18.0159L22.1449 19.002H22.7296C23.1761 19.002 23.2824 18.9708 23.208 18.867C23.1548 18.8047 22.6871 18.2339 22.1768 17.6111C21.5814 16.8846 21.2944 16.4487 21.3475 16.3656C21.5602 16.1165 22.6127 14.6842 22.6764 14.5804C22.7296 14.4974 22.5914 14.4455 22.2725 14.4143L21.7834 14.3832L21.1349 15.2862C20.7735 15.7948 20.412 16.1996 20.3376 16.1996C20.2313 16.1996 20.1994 15.8259 20.1994 14.487V12.7744H19.721H19.2426V15.8882Z" fill="black"/>
<path d="M23.6226 15.6294C23.6545 18.4318 23.6545 18.4837 23.899 18.7121C24.0904 18.9093 24.2817 18.9508 24.9302 18.9819L25.7276 19.0234V18.6083V18.1827L25.1748 18.1516L24.6113 18.1204L24.5794 16.6362L24.5475 15.1624H25.1429H25.7276V14.7472V14.332H25.1429H24.5581V13.5536V12.7751H24.0797H23.5907L23.6226 15.6294Z" fill="black"/>
<path d="M1.40328 14.0719C1.21192 14.4663 1.23318 14.4974 1.8179 14.7362C2.18999 14.8815 2.34946 14.9956 2.30694 15.0994C2.26441 15.2032 2.41325 15.3174 2.76408 15.4627C3.05112 15.5873 3.3169 15.6807 3.35943 15.6807C3.44448 15.6807 3.71026 15.3589 3.72089 15.2551C3.72089 15.1825 1.91358 13.9473 1.67969 13.8643C1.58401 13.8228 1.4777 13.9058 1.40328 14.0719Z" fill="black"/>
<path d="M9.25983 14.352C8.95152 14.57 8.78142 14.6323 8.72827 14.5492C8.67511 14.4766 8.53691 14.5181 8.28176 14.7049C8.07976 14.8502 7.85651 15.0059 7.77146 15.0474C7.65451 15.1201 7.65451 15.172 7.76083 15.3796C7.83524 15.5145 7.90966 15.6494 7.93093 15.6598C7.94156 15.6806 8.48375 15.4522 9.13225 15.1616L10.3017 14.6115L10.1422 14.3209C9.95086 13.9472 9.84455 13.9472 9.25983 14.352Z" fill="black"/>
<path d="M15.2027 14.4455C13.7356 15.0163 13.2253 17.0714 14.2672 18.2339C15.1921 19.2511 16.8187 19.3445 17.7861 18.4311C18.307 17.9433 18.509 17.4347 18.509 16.6459C18.509 15.6495 17.9881 14.8606 17.0951 14.4974C16.6592 14.3105 15.6173 14.2898 15.2027 14.4455ZM16.9569 15.4107C17.5097 15.7636 17.7436 16.7497 17.4246 17.3932C16.9143 18.4207 15.3409 18.4207 14.8412 17.3932C14.4585 16.6044 14.8094 15.5872 15.5748 15.2551C15.8725 15.1201 16.6379 15.2135 16.9569 15.4107Z" fill="black"/>
<path d="M27.301 14.5391C25.9083 15.276 25.6 17.2273 26.7163 18.3587C26.9076 18.5559 27.1734 18.7634 27.3223 18.8465C28.0558 19.2097 29.1083 19.0956 29.6505 18.587L29.9588 18.3068L30.0757 18.5559C30.1927 18.8153 30.5754 19.0022 30.99 19.0022C31.192 19.0022 31.2345 18.9399 31.2771 18.587C31.309 18.2445 31.2771 18.1718 31.0963 18.1511C30.8944 18.1199 30.8837 18.0265 30.8306 16.2517C30.7987 15.2241 30.7455 14.3938 30.703 14.4042C30.6498 14.4249 30.4478 14.4353 30.2458 14.4353C29.9163 14.4353 29.8738 14.4664 29.8738 14.7052V14.9646L29.491 14.674C28.9701 14.29 27.8963 14.2173 27.301 14.5391ZM29.1189 15.3487C30.0757 15.8469 30.1289 17.4141 29.2146 17.9642C28.194 18.5662 27.0033 17.8812 27.0033 16.6772C27.0033 15.5147 28.109 14.8193 29.1189 15.3487Z" fill="black"/>
<path d="M0.807938 15.5357C0.637838 15.9716 0.722888 16.065 1.38202 16.1377C1.83917 16.1896 2.0199 16.2518 2.0199 16.3556C2.0199 16.4698 2.1581 16.5113 2.55146 16.5113C2.84913 16.5113 3.11491 16.5217 3.16807 16.5321C3.2106 16.5528 3.25312 16.4179 3.27438 16.2518L3.30628 15.9404L2.19 15.6498C0.892987 15.3177 0.892987 15.3177 0.807938 15.5357Z" fill="black"/>
<path d="M9.9083 15.6596C9.46179 15.7842 9.32359 15.7946 9.2598 15.6908C9.12159 15.4832 8.14352 15.7946 8.10099 16.054C8.04784 16.4692 8.17541 16.5004 9.46179 16.3862C10.1316 16.3239 10.695 16.2616 10.7163 16.2409C10.7801 16.1994 10.61 15.4728 10.5355 15.4832C10.5037 15.4936 10.2166 15.5662 9.9083 15.6596Z" fill="black"/>
<path d="M8.12223 16.978C8.07971 17.1233 8.07971 17.2686 8.1116 17.2998C8.17539 17.3724 10.5355 17.9848 10.5674 17.9433C10.5887 17.9225 10.6312 17.7668 10.6631 17.58C10.7375 17.2167 10.6844 17.196 9.74881 17.113C9.58934 17.0922 9.4724 17.0403 9.48303 16.978C9.51492 16.8639 9.06841 16.7497 8.53685 16.7289C8.24981 16.7185 8.17539 16.7601 8.12223 16.978Z" fill="black"/>
<path d="M1.91361 16.8952C0.659125 17.0094 0.680388 16.999 0.722912 17.3934C0.765437 17.7774 0.87175 17.819 1.297 17.6633C1.86045 17.4661 2.12623 17.4349 2.12623 17.5906C2.12623 17.7152 2.22192 17.7152 2.74285 17.5699C3.32756 17.4246 3.35946 17.3934 3.31693 17.1132C3.27441 16.8433 3.24251 16.8226 2.77474 16.8433C2.50896 16.8433 2.1156 16.8745 1.91361 16.8952Z" fill="black"/>
<path d="M7.82452 17.8089L7.65442 18.058L8.7388 18.7949L9.81256 19.5215L10.0146 19.1997C10.1315 19.0233 10.2059 18.8676 10.1847 18.8468C10.1634 18.8365 9.89761 18.6911 9.5893 18.5458C9.281 18.3901 9.05774 18.2241 9.08964 18.1722C9.14279 18.0995 8.21787 17.5494 8.03714 17.5494C8.01588 17.5494 7.9202 17.6636 7.82452 17.8089Z" fill="black"/>
<path d="M2.28567 18.1302C1.75411 18.3793 1.28634 18.5973 1.23318 18.6181C1.10561 18.6596 1.36076 19.3135 1.49896 19.3135C1.55212 19.3135 1.79664 19.1682 2.04116 19.0021C2.28567 18.8257 2.55145 18.7115 2.6365 18.7426C2.72155 18.7738 3.01923 18.6492 3.30627 18.4728C3.80594 18.1614 3.81657 18.151 3.6571 17.9019C3.56142 17.767 3.43385 17.6528 3.35943 17.6632C3.29564 17.6632 2.81724 17.8708 2.28567 18.1302Z" fill="black"/>
<path d="M2.99798 19.2103L2.12622 20.1029L2.37074 20.3312C2.50894 20.4558 2.64715 20.5596 2.68968 20.5596C2.72157 20.5596 2.9023 20.3416 3.08303 20.0821C3.27439 19.8123 3.47639 19.6358 3.56144 19.667C3.73154 19.7292 4.4013 18.8366 4.31625 18.6394C4.29499 18.5668 4.17805 18.4526 4.07174 18.4111C3.91227 18.3384 3.71027 18.4941 2.99798 19.2103Z" fill="black"/>
<path d="M7.293 18.4731C7.17606 18.5976 7.13353 18.7325 7.18669 18.8156C7.47373 19.2723 8.53686 20.6631 8.60064 20.6631C8.64317 20.6631 8.78137 20.5593 8.90895 20.4244L9.14284 20.1856L8.71759 19.7809C8.46244 19.5317 8.3136 19.3138 8.34549 19.2204C8.39865 19.0854 7.71825 18.2759 7.54815 18.2759C7.50563 18.2759 7.38868 18.3693 7.293 18.4731Z" fill="black"/>
<path d="M4.06111 19.9366L3.51892 21.0783L3.85912 21.2236C4.05048 21.2963 4.23121 21.3482 4.26311 21.3274C4.295 21.3067 4.38005 21.0368 4.45447 20.7254C4.53952 20.3518 4.64583 20.1546 4.76277 20.1234C4.89035 20.0923 4.99666 19.8951 5.07108 19.5629C5.19865 19.0232 5.17739 18.961 4.82656 18.8572C4.6352 18.7949 4.53952 18.9194 4.06111 19.9366Z" fill="black"/>
<path d="M6.46382 18.867C6.35751 18.8877 6.27246 18.9293 6.27246 18.95C6.27246 19.033 6.94223 21.3372 6.97412 21.3788C7.03791 21.441 7.65452 21.1608 7.65452 21.0674C7.65452 21.0155 7.54821 20.7664 7.42063 20.5069C7.25053 20.154 7.21864 20.0087 7.30369 19.9257C7.39937 19.8323 7.36748 19.6766 7.16548 19.3029C6.91033 18.8047 6.84655 18.7632 6.46382 18.867Z" fill="black"/>
<path d="M5.37935 19.5939C5.34746 19.926 5.2943 20.5176 5.26241 20.9016L5.18799 21.6074L5.59198 21.5763L5.99596 21.5451L5.96407 20.8913C5.95344 20.4865 5.98533 20.2477 6.04912 20.2477C6.17669 20.2477 6.19796 19.8222 6.10227 19.324C6.04912 19.0541 5.98533 19.0022 5.74081 19.0022C5.45377 19.0022 5.44314 19.0334 5.37935 19.5939Z" fill="black"/>
</svg>
