<svg xmlns="http://www.w3.org/2000/svg" width="41" height="40" fill="none"><path fill="#fff" d="M21.488 1.453c-.1.175-.066.293.115.403a.29.29 0 0 0 .388-.035.44.44 0 0 0-.147-.518h-.16a.35.35 0 0 0-.196.15M20.678 1.434a.4.4 0 0 0-.037-.084.3.3 0 0 0 .059-.094l-.2-.006h-.131v.031a.1.1 0 0 0-.025.022 2 2 0 0 0-.113.294c-.24.081-.372.231-.312.378a.42.42 0 0 0 .447.212c.168-.053.19-.15.093-.487.128-.056.266-.09.22-.266M22.766 2.216c.1-.025.215-.02.275-.11.059-.09.237-.347.13-.519-.105-.171-.227-.037-.34-.053a.27.27 0 0 0-.26.116.38.38 0 0 0-.2.103.335.335 0 0 0 .004.406.13.13 0 0 1-.103-.034c-.084-.078-.269-.078-.416.11-.147.187-.05.477.125.487s.222-.085.266-.04c.044.043.084.187.2.184s.24-.332.24-.388-.065-.156-.018-.219a.4.4 0 0 0 .097-.043M26.14 2.188a.37.37 0 0 0-.393.072.38.38 0 0 0 .134.406.175.175 0 0 0 .244-.056c.131-.185.134-.353.016-.422M23.281 2.188c-.05.075 0 .178.032.247.03.068.168.043.221-.028.053-.072.044-.185-.03-.22-.076-.034-.17-.065-.223 0M26.288 2.847a.22.22 0 1 0 .234-.372.24.24 0 0 0-.313.09.21.21 0 0 0 .079.282M19.525 2.584a.27.27 0 0 0-.078-.396.33.33 0 0 0-.494.1.353.353 0 0 0 .063.465.3.3 0 0 0 .272.019.16.16 0 0 0 .156-.053.34.34 0 0 0 .081-.135M18.363 1.375a.5.5 0 0 0-.05.157.23.23 0 0 0-.053-.094l-.05-.044-.313.044a.6.6 0 0 1 .1.212.21.21 0 0 0 .181.072.23.23 0 0 0 .135-.11.22.22 0 0 0 .08.195.25.25 0 0 0 .27-.113c.037-.147.143-.125.234-.172a.3.3 0 0 0 .088-.072.35.35 0 0 0 .353 0 .2.2 0 0 0 .037-.146c.119.096.256.121.338.046a.2.2 0 0 0 .059-.09c-.475.028-.947.062-1.41.115M21.634 2.025a.205.205 0 0 0-.213-.089.2.2 0 0 0-.074.033.344.344 0 0 0-.044.425.234.234 0 0 0 .313.025.293.293 0 0 0 .018-.394M21.494 3.125a.06.06 0 0 0 0-.072.063.063 0 0 0-.088 0 .06.06 0 0 0 0 .084c.032.016.075.004.088-.012M21.103 3.107a.216.216 0 0 0 .288-.063.197.197 0 0 0-.072-.26.18.18 0 0 0-.263.038.197.197 0 0 0 .047.285M20.675 2.206a.2.2 0 0 0 .284-.056.18.18 0 0 0-.08-.253.21.21 0 0 0-.282.081.16.16 0 0 0 .078.228M17.688 1.475l-.279.046a.4.4 0 0 0 .279-.046M21.438 1.347a.5.5 0 0 0 .05-.068c-.204 0-.41 0-.625-.02q.015.042.043.076a.397.397 0 0 0 .532.012M17.44 1.906a.23.23 0 0 0-.043-.29c-.084-.054-.284-.029-.312.04a.29.29 0 0 0 .087.338.206.206 0 0 0 .269-.088M26.75 2.556c0 .022 0 .056.04.06a.056.056 0 0 0 .07-.05c0-.041-.038-.06-.057-.063s-.053.038-.053.053M27.231 2.5l-.25-.1c.07.06.158.095.25.1M14.394 2.585a.44.44 0 0 0 .625-.025.41.41 0 0 0 .069-.516q-.406.122-.8.262a.33.33 0 0 0 .106.279M23.666 2.813a.26.26 0 0 0-.354.031.33.33 0 0 0 .038.403.36.36 0 0 0 .462-.081c.047-.09-.021-.26-.146-.353M25.54 1.994a.2.2 0 0 0 .17.053.24.24 0 0 0 .096-.031 16 16 0 0 0-.956-.253.31.31 0 0 0 .094.425c.105.07.234.097.36.075a.1.1 0 0 0 .043.025c.034 0 .144 0 .153-.063a.08.08 0 0 0-.031-.062l.031-.016a.35.35 0 0 0 .04-.153M24.25 3.203c0-.04-.056-.087-.094-.103-.037-.015-.115 0-.125.066s.085.094.122.103a.11.11 0 0 0 .097-.066M24.66 3.15a.444.444 0 0 0 .571-.025.46.46 0 0 0-.119-.563.43.43 0 0 0-.524.138.335.335 0 0 0 .071.45M24.425 2.056a.3.3 0 0 0 .04-.106c.15.05.232-.041.313-.163l-.022-.047a17 17 0 0 0-.91-.187.3.3 0 0 0-.074.072.34.34 0 0 0 .128.506.344.344 0 0 0 .525-.075M13.953 2.613a.22.22 0 0 0 0-.181c-.312.115-.625.24-.912.372a.55.55 0 0 0 .253.168.71.71 0 0 0 .659-.36M16.856 2.478l.219-.21a2 2 0 0 0-.097-.168.22.22 0 0 0-.2-.081.28.28 0 0 0-.081-.2l-.028-.029a.14.14 0 0 0-.035-.146l-.559.128a.04.04 0 0 0 .022.018c.169.05.15.197.178.313a.205.205 0 0 0 .213.19.2.2 0 0 0 .1-.03l.04-.02a.2.2 0 0 0 .044.091 1 1 0 0 0 .184.144"/><path fill="#ECF0F6" d="M20.5 38.75c10.355 0 18.75-8.395 18.75-18.75S30.855 1.25 20.5 1.25 1.75 9.645 1.75 20s8.395 18.75 18.75 18.75"/><path fill="#fff" d="M36.49 15.481c.05-.084-.024-.15-.103-.181s-.206 0-.212.087c-.006.088-.034.22.078.244.113.025.2-.09.238-.15M36.156 15.882a.25.25 0 0 0-.072-.182c-.068-.053-.218.022-.228.116q.007.079.044.15c.134.06.25.016.256-.084M36.797 14.856a.276.276 0 0 0 .35-.106.42.42 0 0 0-.19-.488.28.28 0 0 0-.291.104.42.42 0 0 0-.331-.057.4.4 0 0 0-.204.479.39.39 0 0 0 .463.224.46.46 0 0 0 .203-.156M33.669 6.707l.028-.022Q33.55 6.54 33.4 6.4a.2.2 0 0 0 0 .179.203.203 0 0 0 .269.128M35.531 14.907c-.044.09.038.243.206.33.035-.018.122-.034.157-.084a.221.221 0 0 0-.22-.365.22.22 0 0 0-.143.119M36.334 14.035a.21.21 0 0 0 .241-.132.16.16 0 0 0 0-.128 2 2 0 0 0-.231-.212c0-.253-.081-.432-.235-.44a.38.38 0 0 0-.278.168.1.1 0 0 0-.078.04.08.08 0 0 0 .016.07.2.2 0 0 0-.016.071c0 .175.069.231.419.266-.003.137-.022.268.162.297M35.756 12.131c-.166.072-.219.163-.169.281.05.12.216.238.344.172a.45.45 0 0 0 .125-.384c-.037-.103-.147-.128-.3-.069M34.878 9.794a.2.2 0 0 0 .1 0q.066.063.106.144a.29.29 0 0 0 .341.187c.153-.025.213-.134.122-.344-.069-.065-.169-.178-.287-.275v-.018a.26.26 0 0 0-.135-.253.3.3 0 0 0-.097-.029.38.38 0 0 0-.406.188.36.36 0 0 0 .256.4M35.756 9.378a.26.26 0 0 0 .11-.14c-.14-.2-.288-.4-.435-.597a.2.2 0 0 0-.093.04.18.18 0 0 0-.032.266.3.3 0 0 0 .085.062.23.23 0 0 0 0 .172c.093.2.203.263.365.197M37.078 11.435a.25.25 0 0 0 .16.275q.037.009.074 0a4 4 0 0 0-.165-.313c-.022-.019-.05-.006-.069.038M38.135 13.622q-.137-.37-.288-.737a1 1 0 0 0-.116.069.28.28 0 0 0-.018.465q.198.127.422.203M37.022 12.594q.058.076.14.122.08.054.163.097c.181.097.313.078.41-.053a.2.2 0 0 0 .034-.072c-.069-.16-.144-.313-.216-.478a2.3 2.3 0 0 1-.331-.313c-.1-.128-.313-.203-.397-.128a.25.25 0 0 0 0 .294c.125.084.066.178.075.278q.032.141.122.253M34.997 8.6c.215.109.312.115.394 0l-.272-.344c-.135.084-.122.219-.122.344M34.547 8.343c.053 0 .144-.068.147-.115a.31.31 0 0 0-.066-.235c-.115-.109-.206 0-.312.079.028.153.075.278.23.271M14.647 5.669a.26.26 0 0 0 .025-.313c-.15-.162-.344-.21-.444-.11a.39.39 0 0 0 .019.45.36.36 0 0 0 .4-.027M21.485 1.453c-.097.172-.063.294.118.403a.294.294 0 0 0 .403-.037.45.45 0 0 0-.146-.52h-.16a.36.36 0 0 0-.215.154M36.513 16.706c.08-.046.13-.122.071-.2s-.18-.193-.246-.159-.063.175-.054.26c-.084-.044-.175 0-.215.109a.13.13 0 0 0 .046.163.13.13 0 0 0 .057.021c.062.016.237.044.262-.047a.18.18 0 0 0-.034-.125.2.2 0 0 0 .113-.022M19.678 3.381c-.035.034-.063.19-.019.228s.21 0 .219-.037c.01-.038.037-.194 0-.219a.2.2 0 0 0-.2.028M20.675 1.431a.2.2 0 0 0-.038-.081.3.3 0 0 0 .063-.097h-.331a.1.1 0 0 0 0 .028.06.06 0 0 0-.025.022c-.047.09-.075.19-.116.294-.238.084-.369.234-.312.378a.42.42 0 0 0 .456.206c.165-.053.187-.15.093-.487.12-.05.26-.085.21-.263M22.762 2.212c.104-.025.216 0 .275-.106s.241-.35.132-.519c-.11-.169-.225-.037-.338-.053a.28.28 0 0 0-.26.112.35.35 0 0 0-.2.107.33.33 0 0 0 0 .403.1.1 0 0 1-.1-.035c-.084-.075-.271-.078-.418.11-.147.187-.047.481.125.49s.225-.087.269-.04.081.187.197.181c.115-.006.243-.328.237-.387-.006-.06-.065-.157-.019-.22a.3.3 0 0 0 .1-.043M26.14 2.175a.37.37 0 0 0-.393.075.38.38 0 0 0 .134.403.17.17 0 0 0 .254-.044c.121-.184.121-.353.006-.434M23.281 2.193a.26.26 0 0 0 .028.25c.041.072.17.041.225-.03a.13.13 0 0 0-.03-.22c-.06-.028-.173-.062-.223 0M19.9 4.29a.284.284 0 0 0 .344 0 .48.48 0 0 0 .034-.475.35.35 0 0 0-.44.082c-.113.11-.088.256.062.393M14.297 4.078a.46.46 0 0 0-.494 0 .31.31 0 0 0 0 .422.318.318 0 1 0 .481-.416zM26.288 2.847a.22.22 0 1 0 .23-.375.244.244 0 0 0-.312.093.207.207 0 0 0 .082.282M37.144 13.332a.31.31 0 0 0 .16-.363.254.254 0 0 0-.282-.156c-.197.069-.313.218-.266.347a.34.34 0 0 0 .388.172M19.525 2.584a.27.27 0 0 0-.081-.4.328.328 0 0 0-.494.103.35.35 0 0 0 .063.466.3.3 0 0 0 .268.019.18.18 0 0 0 .16-.053.4.4 0 0 0 .084-.135M19.084 3.01a.21.21 0 0 0-.184.203.16.16 0 0 0 .116.187c.15.05.23-.04.312-.162-.062-.119-.09-.253-.244-.228M18.363 1.371a.4.4 0 0 0-.047.147.25.25 0 0 0-.056-.097l-.05-.04-.313.04a.6.6 0 0 1 .103.213c0 .044.122.084.178.075a.25.25 0 0 0 .147-.11.2.2 0 0 0 .078.191.25.25 0 0 0 .272-.112c.034-.144.144-.125.231-.169a.4.4 0 0 0 .091-.075.34.34 0 0 0 .353 0 .2.2 0 0 0 .034-.147c.122.094.257.119.341.047a.3.3 0 0 0 .06-.094c-.491.044-.96.081-1.422.131M14.64 2.887a.375.375 0 0 0-.537.52.366.366 0 0 0 .553-.026.37.37 0 0 0-.015-.494M37.006 15.306c-.034 0-.05.122-.037.181a.103.103 0 0 0 .169.06c.05-.041.175-.157.14-.229-.034-.071-.231-.04-.272-.012M29.681 5.166c.088.056.194.037.219-.056a.6.6 0 0 0 0-.191.2.2 0 0 0-.284.072c-.047.087.006.134.065.175M29.506 3.944a.23.23 0 0 0 .181-.078.18.18 0 0 0 0-.162c-.075-.11-.178-.097-.293-.025 0 .106-.022.225.112.265M28.838 7.1a.197.197 0 0 0 .194-.19c0-.166-.191-.275-.257-.275a.294.294 0 0 0-.175.328.2.2 0 0 0 .238.137M21.634 2.022a.2.2 0 0 0-.213-.086.2.2 0 0 0-.074.033.34.34 0 0 0-.044.421.23.23 0 0 0 .313.025.294.294 0 0 0 .018-.393M28.163 4.369a.39.39 0 0 0 .459-.235.5.5 0 0 0-.312-.503.394.394 0 0 0-.42.313.38.38 0 0 0 .273.425M28.022 2.975a.256.256 0 0 0 .094.406.33.33 0 0 0 .337.022.2.2 0 0 0 .26 0c.034-.025.071-.078.065-.112a1 1 0 0 0-.037-.138q-.3-.145-.607-.28a.3.3 0 0 0-.112.102M30.216 5.628a.262.262 0 0 0 .295-.295.17.17 0 0 0-.14-.13.21.21 0 0 0-.258.088.247.247 0 0 0 .103.337M29.01 3.497a.194.194 0 0 0 .262-.043v-.022l-.369-.188a.21.21 0 0 0 .106.253M32.678 6.068a.24.24 0 0 0-.015.213.125.125 0 0 0 .19.084c.081-.044.15-.1.113-.212-.038-.113-.241-.135-.288-.085M32.744 7.443a.33.33 0 0 0 .284-.168.28.28 0 0 0-.194-.263.21.21 0 0 0-.25.184.23.23 0 0 0 .16.247M33.14 6.284q.061.015.123 0l-.335-.312a.39.39 0 0 0 .213.312M21.49 3.125a.06.06 0 0 0 0-.072.06.06 0 0 0-.087 0 .07.07 0 0 0 0 .084.07.07 0 0 0 .088-.012M31.003 4.466c-.268-.182-.547-.36-.825-.529l.044.063a.5.5 0 0 0 0 .55.512.512 0 0 0 .762-.069s.016-.01.02-.015M30.669 7.113a.287.287 0 0 0 .312-.285c.019-.144-.081-.24-.275-.265s-.278.046-.29.165a.54.54 0 0 0 .253.385M29.216 4.475a.7.7 0 0 0 0-.194.206.206 0 0 0-.288.075c-.044.085 0 .132.069.175a.138.138 0 0 0 .219-.056M21.1 3.106a.22.22 0 0 0 .288-.062.194.194 0 0 0-.07-.26.174.174 0 0 0-.209-.015.2.2 0 0 0-.053.053.197.197 0 0 0 .044.284M37.525 17.19c.125.069.313.053.375-.04.116-.188-.04-.357-.122-.441s-.312.053-.365.234a.203.203 0 0 0 .112.247M38.462 16.068a.25.25 0 0 0 .072-.312.6.6 0 0 0-.231-.038c-.116.022-.153.182-.097.294a.187.187 0 0 0 .256.056M37.943 14.066c-.08.146.041.39.241.484a.25.25 0 0 0 .253 0 12 12 0 0 0-.21-.625.34.34 0 0 0-.284.14M36.9 16.434a.33.33 0 0 0 .36-.175.25.25 0 0 0-.097-.284c-.182-.09-.375-.06-.432.066a.37.37 0 0 0 .17.393M37.531 13.957c.05 0 .1-.097.113-.157a.16.16 0 0 0-.072-.143c-.122-.057-.206 0-.269.125.05.097.09.225.228.175M37.234 17.569a.22.22 0 0 0 .135-.263.215.215 0 0 0-.247-.11.25.25 0 0 0-.135.27.197.197 0 0 0 .247.103M38.178 15.41a.47.47 0 0 0-.184-.548l-.05-.018a.206.206 0 0 0-.263-.079.37.37 0 0 0-.203.313.335.335 0 0 0 .14.46.44.44 0 0 0 .56-.129M20.672 2.206a.2.2 0 0 0 .284-.06.18.18 0 0 0-.081-.25.21.21 0 0 0-.281.079.166.166 0 0 0 .078.231M38.79 15.881l-.062-.269a.2.2 0 0 0 .063.27M17.681 1.475l-.281.046a.4.4 0 0 0 .281-.046M21.45 1.344a.4.4 0 0 0 .047-.069h-.625a.2.2 0 0 0 .044.072.39.39 0 0 0 .534-.003M17.438 1.906a.23.23 0 0 0-.044-.294.31.31 0 0 0-.313.044.29.29 0 0 0 .088.334.206.206 0 0 0 .268-.084M39.219 18.95a.33.33 0 0 0 0 .185zM30.66 11.162c-.044 0-.091.116-.082.163.01.047.12.156.172.137.053-.018.081-.162.063-.193-.019-.032-.107-.12-.153-.107M25.366 5.518q.08-.125.137-.262a.4.4 0 0 0-.19-.438.16.16 0 0 0-.222.022 1.15 1.15 0 0 0-.288.625q0 .053.016.103a.26.26 0 0 0 .27.18.3.3 0 0 0 .111-.036.16.16 0 0 0 .103-.056.2.2 0 0 0 .063-.138M25.19 6.95c.094-.08 0-.35-.087-.359s-.253.225-.178.313a.206.206 0 0 0 .266.046M25.263 8.087a.2.2 0 0 0-.029-.178.13.13 0 0 0-.209.025c-.025.05-.072.197.031.257.103.059.185-.06.206-.104M25.069 6.003c-.02-.056-.128-.047-.157-.031a.13.13 0 0 0-.062.125c0 .047.097.06.134.05s.103-.088.085-.144M27.975 10.172c0 .022.044.093.06.09a.16.16 0 0 0 .118-.065.113.113 0 0 0-.065-.147c-.079-.022-.097.084-.113.122M28.497 9.613a.11.11 0 0 0 .084.125.12.12 0 0 0 .106-.194.12.12 0 0 0-.08-.044c-.07 0-.107.078-.11.113M28.844 8.11q.026-.226-.166-.26c-.181-.028-.39.09-.403.234s.131.266.278.281a.285.285 0 0 0 .29-.256M26.756 2.556c0 .019.016.056.041.06a.06.06 0 0 0 .072-.054c0-.037-.04-.056-.06-.059-.018-.003-.05.034-.053.053M19.275 5.568c-.025 0-.087.088-.037.153.05.066.128 0 .162-.025a.13.13 0 0 0 0-.109.15.15 0 0 0-.125-.019M19.625 4.006a.28.28 0 0 0-.05-.381.416.416 0 0 0-.506.118.313.313 0 0 0 .556.263M18.938 4.69a.37.37 0 0 0-.55.035.337.337 0 0 0-.02.497.425.425 0 0 0 .567 0 .45.45 0 0 0 .003-.532M23.494 4.56c-.141-.263-.385-.075-.407-.272s.166-.131.113-.403-.313-.394-.46-.26c-.146.135-.09.313-.13.313s-.248.062-.216.212c-.038-.015-.085-.025-.107 0s0 .144.022.166.1.05.138 0a.04.04 0 0 0 0-.025c.106.125.281.06.312.131.032.072.025.294.088.434.087.194.272.313.468.204a.363.363 0 0 0 .179-.5M23.05 6.675c-.022.038-.05.122 0 .166a.13.13 0 0 0 .166-.031c.028-.031.084-.144 0-.206-.085-.063-.144.034-.166.071M22.047 3.61c.087-.113.1-.313.015-.376-.168-.14-.359 0-.456.06s0 .312.178.393a.203.203 0 0 0 .263-.078M21.775 5.881v.075c0 .016.056 0 .06 0 .002 0 .021-.066 0-.084-.023-.02-.032.01-.06.01M28.35 5.14a.2.2 0 0 0 .022-.05c.075 0 .2-.046.206-.115s-.165-.147-.225-.15a.05.05 0 0 0-.034 0 .43.43 0 0 0-.425.031.28.28 0 0 0 .094.397c.103.088.268.034.362-.112M36.469 26.575c.028-.054-.053-.116-.088-.135a.1.1 0 0 0-.109.038c-.016.034.025.096.06.125s.112.021.137-.029M30.05 9.944c0 .081 0 .181.113.175.112-.006.171-.063.18-.116.01-.053-.055-.14-.08-.187-.15-.016-.197.056-.213.128M36.797 20.594a.16.16 0 0 0-.053-.216 1.16 1.16 0 0 0-.656-.193.4.4 0 0 0-.104.034.263.263 0 0 0 0 .475q.192.103.404.153a.405.405 0 0 0 .409-.253M36.5 24.916c.025-.047 0-.11-.047-.131s-.144-.029-.165.015.043.138.078.15c.034.013.112.01.134-.034M38.225 22.066a.43.43 0 0 0 .02-.586.37.37 0 0 0-.186-.105h-.04a.36.36 0 0 0 .193-.175c.05-.118-.03-.25-.2-.312a.29.29 0 0 0-.356.078.38.38 0 0 0 .125.434q.029.014.06.02a.3.3 0 0 0-.129.118.65.65 0 0 0-.1.434.28.28 0 0 1-.037.166.266.266 0 0 0 .115.428.13.13 0 0 0-.046.063.234.234 0 0 0 .159.253.24.24 0 0 0 .313-.097.2.2 0 0 0-.058-.223.2.2 0 0 0-.07-.04.4.4 0 0 0 .09-.18.4.4 0 0 1 .147-.276M39.156 21.17a.21.21 0 0 0-.269.108.23.23 0 0 0 .116.291.22.22 0 0 0 .175 0l.016-.375a.2.2 0 0 0-.038-.025M38.634 24.066a.19.19 0 0 0 .078.253h.029l.093-.403a.22.22 0 0 0-.2.15M36.381 22.978c-.031-.12-.125-.138-.347-.097-.028.112-.1.237.047.312a.197.197 0 0 0 .266-.04.23.23 0 0 0 .034-.175M33.047 8.603a.312.312 0 0 0 .369-.312.5.5 0 0 0 0-.191c.089.018.18.01.265-.022a.24.24 0 0 0 .116-.234.45.45 0 0 0 .416-.313.38.38 0 0 0-.275-.437.58.58 0 0 0-.51.35.28.28 0 0 0 .025.172h-.019a.4.4 0 0 0-.184.262.6.6 0 0 0-.169-.056.406.406 0 0 0-.437.356c-.013.175.19.388.403.425M31.028 9.12c.313.062.313.04.313-.223-.129-.094-.235-.06-.332.066-.35-.153-.515 0-.475.4a1 1 0 0 1-.065.04c-.107.044-.119.125-.103.225.015.1.068.135.156.163.21.072.312.025.356-.19q.084-.244.15-.482M30.531 7.666a.31.31 0 0 0-.265-.366.406.406 0 0 0-.438.353.41.41 0 0 0 .313.382c.2.034.359-.125.39-.37M32.725 10.112c-.028-.069-.16-.084-.266-.037a.11.11 0 0 0-.077.069.11.11 0 0 0 .012.103c.043.084.106.15.212.109a.215.215 0 0 0 .119-.244M32.487 15.984c-.021 0-.09.066-.071.122.018.056.118.038.159.025a.12.12 0 0 0 .047-.106c-.016-.038-.09-.047-.135-.04M32.566 9.237a.353.353 0 1 0-.107.697c.175.022.347-.156.375-.387a.28.28 0 0 0-.269-.31M18.34 6.222c-.052.053-.021.178.063.26a.113.113 0 0 0 .144.035.1.1 0 0 0 .04-.036c.063-.071.1-.153.026-.237a.22.22 0 0 0-.272-.022M37.006 18.316c.191-.05.154.146.42.056.265-.09.34-.372.187-.494s-.313-.044-.338-.081-.097-.238-.244-.185c-.312.113-.137.363-.218.425-.082.063-.288.066-.416.147-.181.116-.278.313-.137.494a.6.6 0 0 0 .106.1.5.5 0 0 0 .075.053c.09.05.247.2.375.119s.037-.184.05-.256c.118-.163-.032-.332.14-.378M11.006 4.525c.103.041.288-.143.247-.222-.04-.078-.281-.112-.312 0a.19.19 0 0 0 .065.222M35.466 20.322c-.047.015-.044.103-.032.137.013.034.104.09.154.063.05-.029.03-.132 0-.157a.13.13 0 0 0-.122-.043M35.756 19.456a.31.31 0 0 0-.062-.231c-.053-.06-.213 0-.232.103a.35.35 0 0 0 .032.169c.122.068.24.043.262-.041M8.416 5.672c-.041.072-.113.256-.063.312.05.057.234-.04.244-.072.022-.084.072-.193 0-.275-.072-.08-.16 0-.181.035M38.922 18.49a.13.13 0 0 0 .179-.005.13.13 0 0 0 .033-.057c.022-.062.05-.178-.031-.219a.14.14 0 0 0-.063 0 .3.3 0 0 0 .066-.284l.028.025a34 34 0 0 0-.072-.553.11.11 0 0 1-.056-.078.11.11 0 0 1 .025-.094v-.019c0-.09-.028-.178-.044-.265a.4.4 0 0 0-.131-.113.3.3 0 0 0-.21-.04.1.1 0 0 0 0-.029.31.31 0 0 0-.362-.106.31.31 0 0 0 .019.375q.047.04.11.047c.027.122.1.163.065.206-.035.044-.172.107-.15.222.022.116.36.194.415.178.057-.015.185-.118.247-.018a.5.5 0 0 1 .053.134.18.18 0 0 0-.218-.047c-.172.069-.288.278-.225.406a.28.28 0 0 0 .272.125c-.078.044-.029.166.05.21M37.662 19.944a.41.41 0 0 0-.184-.465.31.31 0 0 0-.312.187.256.256 0 0 0 .159.372c.147.06.306.019.337-.094M37.24 24.875c-.09-.032-.13.028-.162.093a.134.134 0 0 0 .084.21q.099 0 .191-.031a.204.204 0 0 0-.113-.272M27.088 3.197a.313.313 0 0 0 .312.323.21.21 0 0 0 .181-.145.34.34 0 0 0-.225-.359.234.234 0 0 0-.268.181M29.044 6.04a.184.184 0 0 0 .18.194.25.25 0 0 0 .232-.244.6.6 0 0 0-.181-.153c-.11-.04-.225.075-.231.204M27.231 2.5l-.253-.1c.072.06.16.095.253.1M29.219 4.716a.35.35 0 0 0-.369.244.37.37 0 0 0 .272.356c.119.022.262-.119.281-.269.025-.2-.034-.306-.184-.331M31.825 7.47a.34.34 0 0 0 .231.377c.106.016.313-.203.313-.344a.29.29 0 0 0-.21-.25.28.28 0 0 0-.334.216M32.275 8.75c-.04.022-.116.072-.09.115a.14.14 0 0 0 .128.06c.037 0 .125-.09.1-.138a.14.14 0 0 0-.138-.037M13.231 7.09a.194.194 0 0 0-.037-.322.2.2 0 0 0-.225.025.156.156 0 0 0-.025.253.194.194 0 0 0 .287.044M14.997 4.387a.194.194 0 0 0 .04.282c.078.059.163.125.235.053.122-.128.134-.26.056-.338a.22.22 0 0 0-.331.003M13.281 8.24a.24.24 0 0 0 0-.296.18.18 0 0 0-.262 0 .22.22 0 0 0-.022.312.22.22 0 0 0 .284-.015M14.394 2.581a.435.435 0 0 0 .625-.025.41.41 0 0 0 .072-.512c-.272.078-.538.169-.803.26a.34.34 0 0 0 .106.277M11.222 7.284a.225.225 0 0 0 0 .313.206.206 0 0 0 .312 0 .216.216 0 0 0 0-.29.21.21 0 0 0-.312-.023M17.222 6.997a.13.13 0 0 0 0 .144c.034.028.106.078.137.04a.13.13 0 0 0 0-.14c.004-.031-.106-.084-.137-.044M16.103 6.078a.24.24 0 0 0-.312.022.29.29 0 0 0-.025.368.37.37 0 0 0 .431.028c.069-.075.022-.303-.094-.418M15.872 8.528a.15.15 0 0 0 0 .163.14.14 0 0 0 .134 0 .13.13 0 0 0 0-.128c0-.022-.097-.082-.134-.035M15.41 3.425a.34.34 0 0 0-.404 0c-.078.07-.05.275.047.363a.175.175 0 0 0 .26-.031c.13-.135.165-.253.096-.332M12.294 4.26a.273.273 0 0 0-.407.021.313.313 0 0 0-.046.416.4.4 0 0 0 .45 0 .275.275 0 0 0 .003-.437M11.656 3.478c.144.166.313.125.466.034.072.094.1.235.262.182a.2.2 0 0 0 .141-.21c0-.169-.156-.165-.281-.175 0-.047-.016-.09-.025-.134q-.29.14-.572.294zM17.366 3.694c-.078-.135-.2-.15-.363 0a3 3 0 0 0-.162.406.19.19 0 0 0 .063.204q.03.024.068.033a.194.194 0 0 0 .247-.115.7.7 0 0 1 .097-.153.29.29 0 0 0 .05-.375M11.587 5.128a.263.263 0 0 0-.475-.018 1.7 1.7 0 0 0-.171.396.41.41 0 0 0 .234.42c.087.034.312.04.312-.148-.106-.312.122-.312.12-.543a.4.4 0 0 0-.02-.107M12.538 5.897a.143.143 0 0 0 0-.231.22.22 0 0 0-.185.025c-.037.034-.1.165-.06.218.041.054.191.016.245-.012M13.256 5.494c-.103-.106-.247-.087-.38.05a.225.225 0 0 0-.045.313.43.43 0 0 0 .454.043.268.268 0 0 0-.029-.406M10.328 6.228a.07.07 0 0 0 0 .084.07.07 0 0 0 .075 0 .06.06 0 0 0 0-.071.06.06 0 0 0-.075-.013M27.225 7.215a.347.347 0 0 0-.106-.456.38.38 0 0 0-.544.11.31.31 0 0 0 .066.427.466.466 0 0 0 .584-.08M27.088 8.653a.216.216 0 0 0 .228-.156.18.18 0 0 0-.144-.222.203.203 0 0 0-.222.153.176.176 0 0 0 .137.225M27.653 6.737a.22.22 0 0 0-.16-.222.25.25 0 0 0-.252.16.203.203 0 0 0 .16.218.225.225 0 0 0 .252-.156M27.4 8.331c.034 0 .144-.05.153-.11.01-.059-.122-.127-.163-.124a.16.16 0 0 0-.1.122.17.17 0 0 0 .11.112M26.322 4.79a.206.206 0 0 0-.063.341.28.28 0 0 0 .238.057.24.24 0 0 0 .125-.182.24.24 0 0 0-.3-.215M26.331 7.862c.15 0 .128-.14.175-.193a.33.33 0 0 0 .044-.376.3.3 0 0 0-.085-.103.31.31 0 0 0-.353.057.24.24 0 0 0-.043.312c.053.097.109.31.262.303M25.975 6.31c.06 0 .072-.213.047-.335q.016.027.04.047s.094-.028.097-.047.016-.128-.05-.15-.112.062-.112.081a.1.1 0 0 0-.02-.028c-.071-.053-.23.069-.259.225s.179.219.257.206"/><path fill="#fff" d="M31.3 8.85c.034-.025.075-.08.069-.115s-.097-.106-.131-.094c-.035.013-.044.122-.035.163.01.04.085.056.097.046M27.131 4.844a.21.21 0 0 0-.29.03.22.22 0 0 0 .04.291.24.24 0 0 0 .313-.04.21.21 0 0 0-.063-.281M29.75 6.713a.22.22 0 0 0 .235-.203.216.216 0 0 0-.188-.219.23.23 0 0 0-.222.194.207.207 0 0 0 .175.228M31.275 10.35a.21.21 0 0 0 .116-.243.203.203 0 0 0-.27-.11.16.16 0 0 0-.109.232.2.2 0 0 0 .263.121M29.544 5.728c-.04-.031-.11 0-.135.028s-.046.14 0 .166c.047.025.141-.025.157-.054a.11.11 0 0 0-.022-.14M29.41 7.725a.57.57 0 0 0-.126-.597.394.394 0 0 0-.521.14.444.444 0 0 0 .112.535.394.394 0 0 0 .534-.078M27.797 5.88a.19.19 0 0 0 0-.268.25.25 0 0 0-.185-.062c-.118 0-.153.106-.146.33.109.05.221.138.33 0M29.372 9.632c.037 0 .156 0 .156-.063 0-.062-.072-.103-.1-.106s-.134 0-.134.053a.13.13 0 0 0 .078.116M24.075 5.103a.14.14 0 0 0-.222.066.25.25 0 0 0 0 .203c.031.047.228.066.278 0a.2.2 0 0 0 .03-.146.2.2 0 0 0-.086-.123M23.666 2.816a.266.266 0 0 0-.363.025.334.334 0 0 0 .034.403.366.366 0 0 0 .466-.081c.056-.094-.012-.26-.137-.347M23.881 5.972a.4.4 0 0 0 .172 0c.088-.125.081-.247 0-.269a.31.31 0 0 0-.234.032c-.088.037-.044.203.062.237M31.522 8.294c.022-.125-.144-.175-.213-.21-.068-.034-.168.035-.187.138s.025.19.134.184.247.01.266-.112M23.725 7.3c.075-.175-.166-.313-.25-.272-.085.04-.138.265-.053.334.084.069.225.11.303-.062M22.481 5.425c.066-.097 0-.312-.134-.4a.25.25 0 0 0-.357.04.346.346 0 0 0 .047.445.37.37 0 0 0 .444-.085M22.419 8.068a.13.13 0 0 0 .131-.031c.019-.028.05-.119-.028-.16-.078-.04-.125.038-.144.073a.12.12 0 0 0 .04.118M24.034 4.319c.04-.041 0-.125-.037-.157a.1.1 0 0 0-.116 0c-.028.028 0 .1 0 .138 0 .037.11.062.153.019M24.437 4.319a.256.256 0 0 0 .382-.094c.087-.147.068-.313-.044-.356a.41.41 0 0 0-.488.112.31.31 0 0 0 .15.338M25.537 1.99a.2.2 0 0 0 .17.054.2.2 0 0 0 .096-.028 15 15 0 0 0-.953-.253.313.313 0 0 0 .09.431.47.47 0 0 0 .36.075.14.14 0 0 0 .044.028c.034 0 .146-.016.153-.066a.08.08 0 0 0-.028-.059s.018-.016.025-.028a.3.3 0 0 0 .043-.153M26.228 3.956a.3.3 0 0 0 .025-.056.5.5 0 0 0 .072.113.5.5 0 0 0-.037.143.282.282 0 0 0 .271.335.31.31 0 0 0 .313-.25.2.2 0 0 1 .044.022.266.266 0 0 0 .44-.054q.017.038.053.057a.23.23 0 0 0 .276-.12.24.24 0 0 0 .016-.267.2.2 0 0 0-.063-.07.206.206 0 0 0-.282.085.4.4 0 0 0-.165-.116.38.38 0 0 1-.232-.165.43.43 0 0 0-.578-.104.36.36 0 0 0-.128.17.2.2 0 0 0 0 .037.37.37 0 0 0-.143-.216c-.113-.066-.257 0-.357.15a.29.29 0 0 0 .028.366.38.38 0 0 0 .447-.06M27.225 5.782c.09 0 .175-.038.162-.135s-.056-.26-.13-.262c-.076-.003-.163.153-.195.225-.03.072.07.169.163.172M24.231 3.2c0-.038-.053-.085-.09-.103-.038-.02-.116 0-.129.068-.012.07.085.094.125.104a.11.11 0 0 0 .094-.07M24.656 3.15a.45.45 0 0 0 .572-.037.46.46 0 0 0-.115-.563.43.43 0 0 0-.529.14.344.344 0 0 0 .072.46M24.425 2.053a.4.4 0 0 0 .037-.103c.15.047.232-.044.313-.163 0 0 0-.034-.025-.05q-.45-.102-.91-.187a.4.4 0 0 0-.074.075.34.34 0 0 0 .13.503.343.343 0 0 0 .529-.075M36.763 22.503a.21.21 0 0 0 .223-.04.2.2 0 0 0 .045-.066.206.206 0 0 0-.072-.281.216.216 0 0 0-.28.08.237.237 0 0 0 .084.307M21.694 5.694a.122.122 0 0 0-.207 0c-.04.05-.106.212-.062.25.044.037.2 0 .262-.022.063-.022.066-.14.007-.228M36.797 21.918a.244.244 0 0 0 .172-.312.21.21 0 0 0-.347 0 .27.27 0 0 0-.019.243.23.23 0 0 0 .194.07M36.913 23.647a.202.202 0 0 0 .312-.075.43.43 0 0 0-.094-.413.28.28 0 0 0-.318.052.3.3 0 0 0-.063.095c-.056.113 0 .257.163.34M35.269 17.316c.015-.025-.016-.044-.025-.072s-.06 0-.072.025c-.013.025 0 .056 0 .056s.081.016.097-.009M35.838 21.407c.046-.078-.097-.222-.257-.225s-.19.206-.165.284.378.022.422-.06M37.294 26.922c.11-.053.081-.022.181.053a.215.215 0 0 0 .302-.007.2.2 0 0 0 .054-.096.42.42 0 0 0-.284-.478.496.496 0 0 0-.556.353c-.022.169.19.225.303.175M35.415 15.497a.34.34 0 0 0-.428-.122.317.317 0 0 0 .294.563.315.315 0 0 0 .176-.319.3.3 0 0 0-.042-.122M31.382 7.107c.034 0 .124-.082.093-.135a.14.14 0 0 0-.156-.044.094.094 0 0 0-.058.12.1.1 0 0 0 .048.055.1.1 0 0 0 .072.004M34.947 22.131a.313.313 0 0 0-.416.125.47.47 0 0 0 .166.57.35.35 0 0 0 .437-.173.38.38 0 0 0-.187-.522M38.622 23.165c-.069.153-.031.335.078.378a.3.3 0 0 0 .213 0q.046-.26.09-.518a.253.253 0 0 0-.381.14M33.847 23.122a.15.15 0 0 0-.132-.081.16.16 0 0 0-.096.125c0 .034.068.134.13.131.063-.003.107-.137.098-.175M38.256 25.569c-.025.116-.065.228-.096.344a.17.17 0 0 0-.021.218q.023.033.058.053.136-.383.253-.771a.18.18 0 0 0-.194.156M38.472 20.256a.46.46 0 0 0 .54-.197.43.43 0 0 0-.212-.5.34.34 0 0 0-.444.134.45.45 0 0 0 .116.563M20.566 4.782a.23.23 0 0 0-.185.043c-.065.06 0 .22.078.244a.4.4 0 0 0 .154-.025c.068-.125.04-.244-.047-.262M37.772 24.11c-.09-.032-.131.024-.163.093-.031.069 0 .194.085.206a.6.6 0 0 0 .19-.028.2.2 0 0 0-.112-.272M32.006 13.419a.122.122 0 0 0 .075-.194c-.034-.056-.162-.175-.212-.15s-.078.184-.075.253.097.125.212.09M34.506 25.065a.57.57 0 0 0 .575-.21.39.39 0 0 0-.216-.493.44.44 0 0 0-.509.185.397.397 0 0 0 .15.518M32.944 11.338a.17.17 0 0 0 .069-.116c0-.028-.05-.112-.132-.09-.081.021-.044.118-.034.162s.069.056.097.044M31.76 10.988a.26.26 0 0 0 .174-.1c.069-.144-.019-.235-.162-.313-.11.069-.238.11-.207.263a.18.18 0 0 0 .194.15M31.794 6.347a.4.4 0 0 0-.053-.197c.115 0 .18-.056.197-.156a.21.21 0 0 0-.254-.231c-.14.018-.193-.063-.278-.144a.6.6 0 0 0 .075-.11.1.1 0 0 0 .066-.018 1 1 0 0 0 .019.062.23.23 0 0 0 .25.103c.093-.037.097-.203.078-.293a.36.36 0 0 0-.26-.182c0-.056.02-.05.088-.125a.2.2 0 0 0 .037-.046c-.13-.104-.268-.197-.406-.294a.5.5 0 0 0-.194.19.22.22 0 0 0-.028.116c-.103 0-.162.072-.187.206-.025.135-.047.313.181.413a1 1 0 0 1-.216.069.194.194 0 0 0-.212.165.275.275 0 0 0 .081.313c.338.26.463.253.766-.04a.1.1 0 0 1 .025-.02.5.5 0 0 0-.09.141.13.13 0 0 0 .042.165q.026.018.057.022a.157.157 0 0 0 .216-.109M33.113 14.678c.034 0 .118-.087.1-.134-.02-.047-.132-.057-.163-.04-.031.015-.084.074-.066.121a.12.12 0 0 0 .128.053M31.603 8.334a.066.066 0 0 0 .034-.08.07.07 0 0 0-.08-.026c-.02 0-.026.06-.02.075.007.016.041.04.066.031M32.165 8.503a.34.34 0 0 0 .138-.331.213.213 0 0 0-.345-.032.2.2 0 0 0-.018.228c.066.122.147.179.225.135M34.263 12.794a.35.35 0 0 0 .084-.438c-.069-.147-.21-.178-.39-.087a.28.28 0 0 0-.123.312c.047.128.335.263.429.213M34.113 19.378c.184.05.287-.21.234-.285s-.284-.1-.337 0-.078.225.103.285M33.231 18.318c.032 0 .125.032.154-.05.028-.08-.057-.118-.091-.13a.12.12 0 0 0-.113.055.14.14 0 0 0 .05.125M33.881 13.563c-.044-.06-.178-.188-.253-.157s-.047.225-.022.294.106.113.197.056c.09-.056.144-.115.078-.194M33.616 11.478c.034-.122-.097-.262-.282-.312a.23.23 0 0 0-.247.165.29.29 0 0 0 .175.313.31.31 0 0 0 .354-.166M33.569 21.013a.2.2 0 0 0 .175-.053.13.13 0 0 0-.009-.17.13.13 0 0 0-.05-.034c-.054-.018-.2-.043-.247.07-.047.112.068.171.13.187M34.888 12.397c-.02-.044-.154-.128-.207-.103a.25.25 0 0 0-.043.221c.05.044.165.104.206.07a.2.2 0 0 0 .044-.188M36.338 19.413a.144.144 0 0 0-.097-.213.25.25 0 0 0-.2.038c-.04.04-.034.237.05.275a.19.19 0 0 0 .247-.1M37.869 19.24a.21.21 0 0 0 .115-.25.184.184 0 0 0-.237-.118.213.213 0 0 0-.08.314.174.174 0 0 0 .202.055M38.256 16.35a.18.18 0 0 0-.075-.254.2.2 0 0 0-.275.085.216.216 0 0 0 .103.275.194.194 0 0 0 .247-.106M36.169 17.691a.25.25 0 0 0-.018-.282.3.3 0 0 0-.076-.065.36.36 0 0 0-.384.056c-.022-.037-.053-.096-.113-.087s-.065.112-.053.131a.18.18 0 0 0 .113.066.35.35 0 0 0 .156.368c.103.054.303-.046.375-.187M35.444 11.975a.206.206 0 0 0-.125-.24.156.156 0 0 0-.216.037c-.1.122-.043.228.038.353.137-.018.272.007.303-.15M35.353 13.206c-.031-.018-.144-.028-.166 0-.021.028.044.135.079.15a.12.12 0 0 0 .134-.037c.025-.028-.016-.094-.047-.113M35.444 14.709a.197.197 0 0 0 .153-.247.34.34 0 0 0-.375-.194.23.23 0 0 0-.14.288.294.294 0 0 0 .362.153M38.219 18.866c.096.04.256-.05.312-.188a.265.265 0 0 0-.078-.356.34.34 0 0 0-.394.094.37.37 0 0 0 .16.45M13.285 3.903a.275.275 0 0 0 .046-.366.225.225 0 0 0-.312-.034.31.31 0 0 0 0 .4.184.184 0 0 0 .265 0M9.713 4.675v-.019l-.085.06a.2.2 0 0 0 .085-.041M34.957 11.272a.394.394 0 0 0 .446-.163.29.29 0 0 0 .235-.134q.07-.116.119-.244l.128-.028a.4.4 0 0 0 .072-.034.4.4 0 0 0 .13 0 .2.2 0 0 0-.056.15c0 .122-.265.065-.259.23.006.167-.184.242-.156.438.028.197.184.379.344.294a.68.68 0 0 0 .287-.362.17.17 0 0 0 .269-.097.17.17 0 0 0-.178-.181c.15-.041.444-.16.337-.425a.35.35 0 0 0-.378-.179.39.39 0 0 0 0-.353.37.37 0 0 0-.269-.172 1 1 0 0 0-.087-.068.23.23 0 0 0-.184 0 .375.375 0 0 0-.272.456c0 .044.018.087.025.131-.085.016-.166.025-.244.044h-.025c-.122-.038-.313.075-.413.225a.37.37 0 0 0 .128.472M13.434 4.884a.2.2 0 0 0-.287.038.173.173 0 0 0 0 .26.225.225 0 0 0 .29 0 .21.21 0 0 0-.003-.298M10.172 7.725a.185.185 0 0 0 .037-.278.18.18 0 0 0-.159-.031c-.05.028-.116.1-.112.15.003.137.168.19.234.16M39.103 21.094a.5.5 0 0 0 .11.037c0-.15 0-.312.018-.456a.4.4 0 0 0-.21.175.166.166 0 0 0 .082.244M9.938 5.781a.294.294 0 0 0-.053-.39.272.272 0 0 0-.41.018.266.266 0 0 0-.037.385.4.4 0 0 0 .5-.013M35.012 20.64c0-.09-.259-.215-.343-.128a.2.2 0 0 0 0 .266c.097.081.347-.044.343-.138M34.45 8.884a.34.34 0 0 0-.09-.268.19.19 0 0 0 .093-.188c0-.144-.137-.172-.262-.21-.088.1-.2.188-.11.329a.1.1 0 0 0 .031.031.5.5 0 0 0-.209.313.203.203 0 0 0 .197.209c.181.016.338-.078.35-.216M34.581 10.603a.23.23 0 0 0 .147-.128c.028-.14-.088-.172-.19-.21-.11.07-.173.157-.107.272a.17.17 0 0 0 .15.066M34.353 9.944a.097.097 0 0 0-.034-.147.22.22 0 0 0-.175.031c-.053.029-.113.041-.141.1s.04.132.131.128a.31.31 0 0 0 .219-.112M33.513 8.912c-.054.044-.116.097-.107.16.01.062.188.15.278.1s.066-.116.041-.185-.14-.137-.212-.075M33.934 11.229a.374.374 0 0 0 .166-.525.34.34 0 0 0-.456-.2.43.43 0 0 0-.219.521.45.45 0 0 0 .51.204M34.319 13.426a.206.206 0 0 0 .281.13.23.23 0 0 0 .112-.274.24.24 0 0 0-.312-.103.187.187 0 0 0-.081.246M33.569 9.944a.162.162 0 0 0 .115-.228.18.18 0 0 0-.218-.107c-.085.02-.16.229-.097.285a.24.24 0 0 0 .2.05"/><path fill="#fff" d="M21.428 6.334a.194.194 0 0 0 .188-.134.28.28 0 0 0 .028-.178c-.094 0-.247-.116-.313-.028-.065.087.028.228.04.312zM34.528 18.816c.035.025.153.062.203 0 .05-.063-.053-.163-.093-.178-.041-.016-.129-.035-.163.037a.13.13 0 0 0 .053.14M13.953 2.613a.25.25 0 0 0 0-.181 14 14 0 0 0-.912.368c.066.08.154.14.253.172a.71.71 0 0 0 .659-.36M35.081 17.13c0-.093.078-.262-.015-.312-.094-.05-.222.063-.313.088v.066a.19.19 0 0 0 .16.162.28.28 0 0 0 .168-.003M34.1 15.444a.18.18 0 0 0-.013.142.18.18 0 0 0 .094.108c.122.053.313 0 .344-.072s-.066-.24-.16-.288a.19.19 0 0 0-.223.041.2.2 0 0 0-.042.069M34.819 17.58a.215.215 0 0 0-.125-.243.16.16 0 0 0-.216.038c-.1.121-.044.23.034.353.125-.016.26.006.307-.147M33.5 10.134a.33.33 0 0 0 .256.337c.15.032.244-.053.282-.246.025-.135-.063-.313-.163-.338a.36.36 0 0 0-.375.247M34.475 14.104c-.016 0-.025.056-.016.072a.06.06 0 0 0 .066.03.06.06 0 0 0 .031-.08.063.063 0 0 0-.081-.022M19.072 7.775a.2.2 0 0 0 .019-.288.21.21 0 0 0-.27-.021.2.2 0 0 0-.045.224q.016.037.046.066a.163.163 0 0 0 .25.019M18.606 3.725a.384.384 0 0 0-.387-.363.375.375 0 0 0-.36.288c-.037.147.153.312.356.353a.37.37 0 0 0 .391-.278M19.86 5.1c0-.037 0-.125-.06-.165a.25.25 0 0 0-.344 0 .25.25 0 0 0 .044.312c.084.069.25.01.36-.147M18.103 4.775c.019-.016.04-.11 0-.144s-.119.038-.147.069a.11.11 0 0 0 .022.116c.025.021.094-.013.125-.041M17.944 5.163a.12.12 0 0 0-.135.028c-.025.028-.05.14 0 .169s.141-.028.16-.057a.125.125 0 0 0-.025-.14M14.075 6.575c.106-.109.131-.29.047-.365a.4.4 0 0 0-.5 0 .253.253 0 0 0 .044.337.272.272 0 0 0 .409.028M18.122 4.319a.23.23 0 0 0-.172-.088c-.144.025-.131.144-.128.254.106.078.206.103.29 0a.17.17 0 0 0 .01-.166M19.819 6.75a.18.18 0 0 0 .26-.044c.068-.112.058-.312-.023-.35s-.247.029-.312.116a.19.19 0 0 0 .075.278M21.138 4.19a.5.5 0 0 0 .218-.106c.07-.053.066-.14-.018-.203a.17.17 0 0 0-.163-.044.3.3 0 0 0-.087-.097.26.26 0 0 0-.313.053c-.112.17-.11.366 0 .438a.37.37 0 0 0 .363-.04M20.844 3.529a.206.206 0 0 0 .018-.313.23.23 0 0 0-.312 0 .244.244 0 0 0 0 .313.192.192 0 0 0 .294 0M21.36 4.99a.13.13 0 0 0 .2-.071c.024-.063.075-.228 0-.266-.075-.037-.229.056-.266.11a.16.16 0 0 0-.02.129.16.16 0 0 0 .085.099M20.206 4.39c-.075-.062-.15 0-.194.076-.043.075-.028.206.057.225.084.019.212.062.253-.044.04-.106-.06-.21-.116-.256M20.253 7.781c.038-.025.1-.172.063-.212s-.182 0-.204 0-.068.144-.043.181a.2.2 0 0 0 .184.031M20.378 2.71a.46.46 0 0 0-.566.103c-.125.162-.053.4.166.556a.34.34 0 0 0 .478-.072.45.45 0 0 0-.078-.587M17.91 5.694a.23.23 0 0 0-.029-.206.164.164 0 0 0-.195-.064.2.2 0 0 0-.061.042.175.175 0 0 0-.019.24c.05.072.272.066.303-.012M15.734 4.37a.225.225 0 0 0 0 .293c.122.11.247.044.366 0 .025-.238 0-.331-.135-.366a.2.2 0 0 0-.23.072M16.5 4.081c.153-.16.172-.288.056-.397a.335.335 0 0 0-.394.019.38.38 0 0 0 .054.403.187.187 0 0 0 .284-.025M15.863 5.488c.13-.085.228-.172.168-.313a.2.2 0 0 0-.162-.097.31.31 0 0 0-.197.147c-.06.147.084.188.19.263M15.757 3.106a.35.35 0 0 1 .312.234.31.31 0 0 0 .363.091.37.37 0 0 0 .118-.25.14.14 0 0 0 .053-.069.19.19 0 0 0-.137-.228.125.125 0 0 0-.14-.056.5.5 0 0 1-.4-.09.163.163 0 0 0-.25.074c-.085.11-.044.282.08.294M14.819 6.588a.22.22 0 0 0-.294 0 .24.24 0 0 0 0 .312.19.19 0 0 0 .266 0 .207.207 0 0 0 .028-.312M17.675 8.116a.11.11 0 0 0 0-.107.16.16 0 0 0-.134-.022c-.025 0-.063.132-.038.157s.128-.004.172-.028M14.797 7.678a.125.125 0 0 0 0-.206c-.072-.06-.15-.103-.24-.031-.091.072-.038.275.027.312.066.038.15-.031.213-.075M14.506 8.965a.23.23 0 0 0 0-.272c-.068-.075-.225 0-.312.035-.088.034-.131.262-.06.337s.322-.037.372-.1M17.116 5.675c-.075-.062-.135-.022-.188.028a.137.137 0 0 0 0 .225c.063.032.131.072.19.041a.24.24 0 0 0-.002-.294M17.631 2.884a.2.2 0 0 0 .163 0c.106-.053.156.222.312.156.157-.065.288.085.463 0 .175-.084.284-.312.147-.425a.7.7 0 0 0-.457-.137.17.17 0 0 0-.1.025.31.31 0 0 0-.043-.36c-.1-.071-.272 0-.372.144a.24.24 0 0 0-.278.05.35.35 0 0 0-.032.419.362.362 0 0 0-.182.693.31.31 0 0 0 .342-.068.52.52 0 0 0 .037-.497M16.856 2.475l.216-.206a1 1 0 0 0-.097-.169.21.21 0 0 0-.197-.081.3.3 0 0 0-.084-.2l-.028-.031a.14.14 0 0 0-.035-.147q-.282.06-.56.13h.02c.171.054.15.2.178.313a.205.205 0 0 0 .213.19.2.2 0 0 0 .1-.03l.04-.019a.2.2 0 0 0 .044.09.7.7 0 0 0 .19.16M17.697 5.103c.078 0 .106-.087.072-.169a.31.31 0 0 0-.184-.165.097.097 0 0 0-.126.087.22.22 0 0 0 .094.15c.044.041.078.091.144.097M17.087 7.988c0-.016.025-.054 0-.072a.06.06 0 0 0-.043-.02.06.06 0 0 0-.044.02.06.06 0 0 0 0 .081s.078.003.087-.01M17.006 7.59c.094-.097.113-.203.041-.262a.34.34 0 0 0-.356 0 .21.21 0 0 0 .178.34.2.2 0 0 0 .137-.078"/><path fill="#7DE2D1" d="M34.994 8.09H7.056v23.816h27.938z"/><path fill="#7DE2D1" d="M7.984 18.916a.18.18 0 0 0-.165.2c0 .084.075.094.14.09.066-.003.157-.074.128-.152a.6.6 0 0 0-.103-.138M9.644 28.604a.244.244 0 0 0-.135-.26c-.2-.094-.312-.119-.428-.062a.3.3 0 0 0-.044-.063.29.29 0 0 0-.409 0 .294.294 0 0 0 0 .366.144.144 0 0 0-.081.15.188.188 0 0 0 .265.15c.116-.044.179.018.27.068-.132.25-.066.41.171.46h.072c.166 0 .24-.06.231-.225-.01-.166-.022-.275-.237-.313a1 1 0 0 1 .172-.1.175.175 0 0 0 .153-.171M8.681 26.82c.075.021.138-.063.132-.157-.007-.093-.06-.16-.15-.131-.091.028-.22.038-.21.15.01.113.16.116.228.138M8.153 19.897c.044 0 .088-.093.085-.125-.004-.031-.038-.09-.085-.09s-.078.059-.081.09c-.003.032.037.125.081.125M8.644 30.606a.16.16 0 0 0 .12-.146.2.2 0 0 0-.01-.066c-.023-.056-.082-.131-.138-.14-.15-.032-.204.084-.244.212.072.103.147.184.272.14M7.653 31.679a.3.3 0 0 0-.072.2 1 1 0 0 0-.122.028h.353c.078-.031.075-.125.016-.203a.1.1 0 0 0-.08-.06.1.1 0 0 0-.095.035M7.772 26.579a.33.33 0 0 0 .025-.397.26.26 0 0 0-.347.018q-.196.18-.069.313a.31.31 0 0 0 .39.065M9.316 31.722c0 .069.018.128.028.184h.44a.36.36 0 0 0-.128-.215c-.15-.116-.178-.122-.34.031M8.044 31.82a.16.16 0 0 0-.132.093h.26a.16.16 0 0 0-.128-.094M7.756 21.553a.32.32 0 0 0 .336.093.315.315 0 0 0 .2-.396.3.3 0 0 0-.06-.106.35.35 0 0 0-.476.05.25.25 0 0 0 0 .36M12.828 30.144a.23.23 0 0 0 .047.128c-.037.053-.069.116-.022.169s.2 0 .266-.022a.21.21 0 0 0 .156-.194.263.263 0 0 0-.263-.231c-.106-.013-.184.053-.184.15M7.106 30.272a.2.2 0 0 0-.053.022v.4a.3.3 0 0 0 .222-.038.21.21 0 0 0 .04-.262.185.185 0 0 0-.209-.122M12.081 30.304a.19.19 0 0 0-.237.044.13.13 0 0 0-.035.109q.061.126.138.244c-.078.21-.05.384.078.434a.37.37 0 0 0 .394-.197c.059-.143 0-.215-.282-.34.038-.116.094-.229-.056-.294M10.312 29.656a.42.42 0 0 0-.484.025.24.24 0 0 0-.25 0 .31.31 0 0 0-.094.313.216.216 0 0 0-.143.259c.028.11.103.122.196.1a.5.5 0 0 1 .207-.025c.143.038.284.1.434.153q.003.09.019.178a.3.3 0 0 0-.097.047q-.165.128 0 .335a.28.28 0 0 0 .312.08.31.31 0 0 0 .091-.255l.094-.022a.246.246 0 0 0 .16-.4 2 2 0 0 0-.313-.313.44.44 0 0 0-.132-.475M9.847 26.357a.175.175 0 0 0 .019-.238.17.17 0 0 0-.18-.068.17.17 0 0 0-.131.14.17.17 0 0 0 .03.128.22.22 0 0 0 .262.038M12.89 31.476a.25.25 0 0 0 .291 0 .3.3 0 0 0 .066-.085.216.216 0 0 0 .222.16.17.17 0 0 0 .143-.185.18.18 0 0 0-.2-.187.2.2 0 0 0-.128.078.2.2 0 0 0-.05-.14.31.31 0 0 0-.387-.06c-.072.066-.044.331.043.419M15.069 30.722c0-.044-.063-.075-.094-.078s-.122.044-.119.087c.003.044.094.081.125.078s.09-.04.088-.087M14.484 30.882c.107-.094.132-.216.057-.291a.47.47 0 0 0-.4-.056.256.256 0 0 0 0 .381c.093.106.215.094.343-.034M13.281 28.363c.025-.029.075-.091.04-.12a.12.12 0 0 0-.124 0c-.025.02-.078.113-.044.145a.12.12 0 0 0 .128-.025M15.6 31.447a.194.194 0 0 0 .09-.228.216.216 0 0 0-.287-.122.23.23 0 0 0-.019.328.15.15 0 0 0 .163.05.2.2 0 0 0 .053-.028M14.675 31.907h.625a.3.3 0 0 0-.056-.09.28.28 0 0 0-.381-.116.8.8 0 0 1 .078-.185.17.17 0 0 0 0-.237.25.25 0 0 0-.263-.131c-.369.08-.434.168-.412.54v.031a.5.5 0 0 0-.044-.14l-.022-.025a.4.4 0 0 0 .069-.225c0-.075-.06-.122-.15-.1s-.147.062-.122.144q.03.078.084.143a.2.2 0 0 0-.043.022.14.14 0 0 0-.07.155q.007.03.026.055a.36.36 0 0 0 .162.075.2.2 0 0 0-.04.084zM9.434 27.022a.268.268 0 0 0 .313.266.33.33 0 1 0-.044-.66c-.197.013-.29.19-.269.394M7.416 24.082c-.094.087-.085.21.03.34a.3.3 0 0 0 .142.091c-.032.137.062.2.2.244.08-.082.184-.14.128-.269a.17.17 0 0 0-.128-.103c.037-.106.05-.263 0-.313a.26.26 0 0 0-.29-.052.3.3 0 0 0-.082.062M7.84 22.503a.14.14 0 0 0 0 .138.13.13 0 0 0 .138.025c.028 0 .078-.11.05-.156-.028-.047-.16-.029-.188-.007M7.25 25.466a.2.2 0 0 0 0-.128.21.21 0 0 0-.187-.075v.369a.2.2 0 0 0 .056 0 .44.44 0 0 0-.038.222.247.247 0 0 0 .294.216.313.313 0 1 0-.047-.625.2.2 0 0 0-.078.021M8.153 22.87c-.053-.041-.16-.15-.244-.079-.084.072 0 .2.022.266s.135.072.206 0c.072-.072.094-.128.016-.187M7.962 25.535a.5.5 0 0 0 .035.21c.05.087.193.078.275 0a.17.17 0 0 0 0-.238.22.22 0 0 0-.31.028M7.906 24.878a.2.2 0 0 0 0 .26.206.206 0 0 0 .26 0 .184.184 0 0 0 0-.257.2.2 0 0 0-.26-.003"/><path fill="#7DE2D1" d="M9.853 30.435c-.025.022 0 .088 0 .122s.085.06.125.028c.04-.031 0-.113-.025-.14a.09.09 0 0 0-.1-.01M7.053 22.756v.472a.2.2 0 0 0 .178-.05.31.31 0 0 0 .063-.387.31.31 0 0 0-.241-.035M9.703 30.916a.17.17 0 0 0-.16.184c0 .132.154.179.226.179s.168-.172.09-.294a.2.2 0 0 0-.156-.069M9.906 31.842a.2.2 0 0 0-.05.065h.466a.31.31 0 0 0-.416-.066M7.072 21.71v.575a.37.37 0 0 0 .21-.312.31.31 0 0 0-.21-.263M8.219 31.066a.35.35 0 0 0-.25 0c-.07.056-.091.169-.138.269-.084-.02-.187-.038-.244.084.079.231.132.24.294.066.103.02.21.02.313 0a.5.5 0 0 0 .193-.197c.047-.094-.028-.194-.168-.222M8.19 26.938a.09.09 0 0 0 .048-.08.09.09 0 0 0-.048-.08c-.05-.028-.184-.1-.23-.053-.048.047.024.194.062.232.037.037.125.01.168-.02M8.044 30.6a.7.7 0 0 0 .256-.493c-.097-.113-.225-.26-.36-.403 0-.02-.078 0-.109 0a.34.34 0 0 1-.278 0c-.131-.041-.287.084-.256.2q.022.122.081.23c-.025.057-.037.123 0 .154.038.031.122 0 .188-.025a.29.29 0 0 1 .162.169.29.29 0 0 0 .316.169M7.053 27.731v.313a.13.13 0 0 0 .098-.12.14.14 0 0 0-.007-.055.2.2 0 0 0-.091-.138M7.838 30.998a.31.31 0 0 0-.272-.291c-.11 0-.188.14-.191.313a.225.225 0 0 0 .21.19c.115 0 .253-.119.253-.212M7.712 28.382a.31.31 0 0 0-.059.372.203.203 0 0 0 .281.037.26.26 0 0 0 .028-.346.18.18 0 0 0-.25-.063M7.887 29.16a.24.24 0 0 0-.172.174.056.056 0 0 0 0 .075.31.31 0 0 0 .247.147c.066 0 .147-.147.138-.228a.194.194 0 0 0-.213-.169M7.053 29.403v.366a.17.17 0 0 0 .14-.037.19.19 0 0 0 .07-.208.2.2 0 0 0-.038-.068.21.21 0 0 0-.172-.053M8.078 27.166c-.062 0-.14.106-.184.21a.35.35 0 0 0-.444-.11.45.45 0 0 0-.078.525.1.1 0 0 0-.019.062.24.24 0 0 0 .216.185.18.18 0 0 0 .178-.166.4.4 0 0 0 .084-.044.4.4 0 0 0 .11-.19.24.24 0 0 0 .255.048.25.25 0 0 0 .16-.236c-.019-.156-.153-.297-.278-.284M9.081 31.397a.4.4 0 0 0-.103-.044c0-.075-.06-.122-.203-.197a.29.29 0 0 0-.144.41.63.63 0 0 0-.25.34h.76l-.097-.056q.06-.093.109-.19a.172.172 0 0 0-.072-.263M7.45 28.729a.34.34 0 0 0-.266.312c0 .122.157.19.347.169a.24.24 0 0 0 .166-.235.34.34 0 0 0-.247-.247M7.194 24.631a.63.63 0 0 0-.141-.334v.603a.25.25 0 0 0 .14-.269"/><path fill="#7DE2D1" d="M7.053 26.713v.656a.5.5 0 0 0 .144 0 .35.35 0 0 0 .312-.394.43.43 0 0 0-.428-.28zM17.022 29.007c-.053.059-.075.137 0 .187s.206.11.253.063 0-.2-.04-.26c-.041-.06-.157-.072-.213.01M17.944 31.194a.194.194 0 0 0-.166.18.15.15 0 0 0 .038.107q.124.063.256.113c.062.215.19.337.312.312a.37.37 0 0 0 .2-.397c-.04-.15-.125-.172-.428-.103-.04-.134-.066-.26-.212-.212M16.947 31.588a.2.2 0 0 0-.05.165.15.15 0 0 0 .103.1c.116 0 .169-.065.187-.184-.068-.066-.134-.163-.24-.081M18.547 29.84a.14.14 0 0 0-.135-.043c-.028 0-.09.1-.068.15s.146.047.175.028a.13.13 0 0 0 .028-.134M18.81 30.666a.203.203 0 0 0 .034-.279.256.256 0 0 0-.347-.028.18.18 0 0 0-.063.25.31.31 0 0 0 .375.057M20.653 31.819a.23.23 0 0 0-.165.028.22.22 0 0 0-.047-.156.43.43 0 0 0-.42-.05.27.27 0 0 0-.018.272h.753a.18.18 0 0 0-.103-.094M16.84 30.135c-.03.05-.102.18-.052.23s.193-.024.23-.062c.038-.037 0-.122-.021-.165a.09.09 0 0 0-.123-.038.1.1 0 0 0-.033.034M20.61 28.453c.018 0 .059-.084.024-.122s-.11 0-.14.022c-.032.022-.032.078 0 .103.03.025.08.013.115-.003M20.3 28.919c-.106 0-.116.122-.116.166a.18.18 0 0 0 .1.128.11.11 0 0 0 .103-.015.11.11 0 0 0 .047-.092c.01-.053-.025-.184-.134-.187M18.569 27.844c.05-.131-.028-.206-.131-.287-.11.053-.229.075-.213.212a.185.185 0 0 0 .172.169.144.144 0 0 0 .172-.094M20.41 29.87c.027.034.124 0 .15 0a.11.11 0 0 0 .018-.123.1.1 0 0 0-.122 0c-.012-.003-.075.088-.047.122M12.712 28.35c.066 0 .113-.165.125-.231.013-.066-.09-.134-.175-.119s-.14.069-.115.15c.025.082.1.213.165.2M18.287 29.695a.31.31 0 0 0 .394-.02.284.284 0 0 0-.406-.39.29.29 0 0 0 .012.41M12.219 25.49a.19.19 0 0 0-.166.179.16.16 0 0 0 .166.165.19.19 0 0 0 .162-.178c.003-.087-.081-.184-.162-.165M11.781 29.7a.45.45 0 0 0 .375.373.35.35 0 0 0 .272-.21.5.5 0 0 0 .116.119c.137-.034.175-.125.143-.262.313-.147.313-.344 0-.55a1 1 0 0 1 0-.07.16.16 0 0 0-.09-.2.17.17 0 0 0-.2 0c-.169.1-.19.188-.078.35.112.163.165.248.243.37a1 1 0 0 0-.121.109v-.019a.34.34 0 0 0-.679-.022zM20.131 30.881c.053.038.203.107.256.06a.05.05 0 0 0 0-.041c.038.09.116.197.166.206.05.01.153-.15.106-.284s-.228-.094-.284-.05a.03.03 0 0 0 0 .022.5.5 0 0 0-.06-.107c-.043-.062-.121-.062-.18 0-.06.063-.088.147-.004.194M12.397 28.466a.21.21 0 0 0-.025.19c.034.044.128.041.172.054.103-.088.084-.16.037-.216s-.128-.097-.184-.028M9.378 16.794c-.019 0-.072.031-.069.066a.13.13 0 0 0 .075.093c.028 0 .119-.034.119-.08 0-.048-.088-.073-.125-.08"/><path fill="#7DE2D1" d="M17.319 30.86a.31.31 0 0 0-.22.256.51.51 0 0 0 .35.416.331.331 0 0 0 .279-.529.26.26 0 0 0 .122-.05.35.35 0 0 0 .034-.459.337.337 0 0 0-.586.133.34.34 0 0 0 .02.233M17.631 28.213c.053-.031.022-.112 0-.122a.14.14 0 0 0-.115-.025s-.035.081-.022.094c.012.012.087.084.137.053M13.531 26.956a.14.14 0 0 0-.022.116.1.1 0 0 0 .059.05.1.1 0 0 0 .076-.01c.062-.04 0-.112 0-.146 0-.035-.103-.025-.113-.01M13.569 27.788a.104.104 0 0 0 .12.027.1.1 0 0 0 .036-.027.12.12 0 0 0 0-.14h-.019a.17.17 0 0 0-.065-.066s-.079.044-.075.063c.003.018 0 0 0 .024a.1.1 0 0 0 .003.12M13.256 29.32a.31.31 0 0 0 .313.221.25.25 0 0 0 .209-.312.248.248 0 0 0-.312-.235.29.29 0 0 0-.21.325M12.29 27.076a.196.196 0 0 0-.184.184.194.194 0 0 0 .178.16.22.22 0 0 0 .188-.188.17.17 0 0 0-.181-.156M7.194 12.207a.2.2 0 0 0 .25.122.2.2 0 0 0 .093-.244.22.22 0 0 0-.246-.094.16.16 0 0 0-.109.152q0 .032.012.064M7.566 10.841a.22.22 0 0 0 0-.187.11.11 0 0 0-.166-.078c-.072.037-.134.087-.103.187s.225.119.269.078M28.344 31.225c0 .038.065.088.112.1q.137.035.278.041c.082 0 .116-.038.12-.125 0-.019-.035-.06-.057-.062a.38.38 0 0 1-.213-.135.18.18 0 0 0-.172 0 .22.22 0 0 0-.068.181M27.944 31.887c.037-.143.015-.253-.053-.275a.31.31 0 0 0-.275.15.2.2 0 0 0 .043.144h.285a.04.04 0 0 0 0-.019M28.36 30.294c-.129-.016-.273.069-.279.165a.29.29 0 0 0 .184.276c.113 0 .222-.122.235-.282a.14.14 0 0 0-.14-.16M9.4 19.148c0 .021.04.071.075.068s.066-.06.075-.097c.01-.037-.028-.096-.081-.096s-.066.087-.07.125M7.053 14.65a.24.24 0 0 0 .263.072q.183-.06.346-.162a.37.37 0 0 0 .091-.416c-.037-.075-.172-.203-.312-.094-.107.266-.257.128-.397.294zM27.213 31.247a.294.294 0 0 0 .343-.288.313.313 0 0 0-.244-.337c-.146-.022-.312.153-.33.35a.237.237 0 0 0 .23.275M8.694 20.822a.344.344 0 0 0-.313.372.384.384 0 0 0 .356.312.35.35 0 0 0 .36-.312.3.3 0 0 0-.019-.069c.106.022.206.056.272-.056a.156.156 0 0 0-.04-.219.22.22 0 0 0-.173-.034c-.112.047-.121.14-.093.25a.5.5 0 0 0-.35-.244M8.538 14.382c0-.02-.041-.041-.057-.038-.015.003-.043.022-.043.047a.05.05 0 0 0 .056.05c.034-.003.043-.04.043-.06M8.297 15.256a.24.24 0 0 0 .281.232c.156 0 .266-.116.253-.235a.36.36 0 0 0-.34-.287c-.11.003-.21.156-.194.29M22.669 31.885a.27.27 0 0 0-.257-.213.228.228 0 0 0-.259.235h.506a.1.1 0 0 0 .01-.022M22.21 30.74a.17.17 0 0 0 .159.176.13.13 0 0 0 .14-.085.13.13 0 0 0 .007-.06.22.22 0 0 0-.094-.155c-.047-.022-.206.043-.213.125M22.419 28.107c.075 0 .08-.081.08-.116 0-.034-.055-.078-.08-.075a.12.12 0 0 0-.091.078c-.01.032.012.113.09.113M22.169 30.15c-.057 0-.104.06-.132.079 0 .134.041.224.113.206a.3.3 0 0 0 .172-.122c.034-.056-.069-.175-.153-.163M27.166 28.657c0 .019.015.1.065.106s.081-.078.088-.112a.1.1 0 0 0-.066-.081c-.034-.004-.072.053-.087.087M22.388 29.392c.08.018.118-.094.118-.135 0-.04 0-.116-.081-.122s-.103.053-.113.09c-.009.038.007.148.075.166M21.35 30.591a.11.11 0 0 0 0-.125c-.028-.03-.097 0-.125.02a.14.14 0 0 0 0 .146c.028.034.11-.016.125-.04M27.169 28.07c-.044 0-.097.078-.097.109s.025.097.069.103c.043.006.087-.047.093-.078.006-.032-.022-.135-.065-.135M21.19 31.397a.36.36 0 0 0 .335.263c.081 0 .15-.032.163-.113.048-.2.035-.41-.038-.603a.3.3 0 0 0-.062-.075.231.231 0 0 0-.394.147 1.6 1.6 0 0 0-.003.381M21.928 28.878c-.131-.025-.225 0-.21.175s.26.175.313.11c.053-.066-.01-.269-.103-.285M21.74 30.654c.048.037.188.1.223.065.034-.034 0-.178 0-.234s-.125-.075-.204 0a.11.11 0 0 0-.05.08.1.1 0 0 0 .032.089M12.262 31.907v-.037a.3.3 0 0 0-.025-.094l.028-.016a.36.36 0 0 0 0-.5.43.43 0 0 0-.512.031.29.29 0 0 0 0 .429q.043.044.094.078a.3.3 0 0 0-.04.11zM10.713 24.847a.104.104 0 0 0-.105.076.1.1 0 0 0-.002.046.1.1 0 0 0 .044.075.1.1 0 0 0 .088.012.11.11 0 0 0 .071-.119.097.097 0 0 0-.096-.09M9.6 24.466c-.097.087-.113.18-.038.268a.313.313 0 0 0 .407.078.28.28 0 0 0-.022-.35.256.256 0 0 0-.347.004M10.853 25.091a.16.16 0 0 0-.034.231.19.19 0 0 0 .24.029.155.155 0 0 0 .068-.173.2.2 0 0 0-.03-.059.19.19 0 0 0-.244-.028M10.56 23.516a.1.1 0 0 0-.027.119.1.1 0 0 0 .026.034.11.11 0 0 0 .141 0 .097.097 0 0 0 0-.131.1.1 0 0 0-.105-.04.1.1 0 0 0-.036.018M10.847 26.141a.275.275 0 0 0-.178.313.265.265 0 0 0 .268.165.207.207 0 0 0 .21-.181.27.27 0 0 0 .156-.231.285.285 0 0 0-.312-.191.22.22 0 0 0-.144.125M9.978 23.1a.12.12 0 0 0 0 .129c.031.028.09.078.122.044a.12.12 0 0 0 0-.125c.003-.029-.09-.078-.122-.047M10.05 25.106c-.031 0-.128.041-.119.088a.12.12 0 0 0 .107.069c.037 0 .115-.028.106-.072a.12.12 0 0 0-.094-.085M10.384 28.332a.14.14 0 0 0 .094.172c.128.05.206-.025.287-.129-.018-.034-.03-.065-.046-.1q.072.06.162.082c.1 0 .178-.113.16-.222a.166.166 0 0 0-.197-.131.215.215 0 0 0-.15.221.14.14 0 0 0-.141-.065.19.19 0 0 0-.169.172M11.275 23.466a.1.1 0 0 0-.05.058.1.1 0 0 0 .01.076c.04.062.112 0 .146 0 .035 0 .025-.088 0-.097a.13.13 0 0 0-.106-.037M10.169 27.444c-.029.025-.085.075-.057.129.028.053.113.024.125 0a.16.16 0 0 0 .025-.116s-.08-.013-.093-.013M10.297 27.69a.2.2 0 0 0-.163.226.194.194 0 0 0 .207.15.206.206 0 0 0 .153-.213.184.184 0 0 0-.197-.162M15.566 30.078a.22.22 0 0 0 .03.297q.107 0 .207-.034a.178.178 0 0 0 0-.275.17.17 0 0 0-.185-.028.2.2 0 0 0-.052.04M14.506 28.397a.253.253 0 0 0 0 .344q.133.15.266.038a.31.31 0 0 0 .078-.407.28.28 0 0 0-.344.025M14.937 30.157a.19.19 0 0 0 .004.259.19.19 0 0 0 .259.016.21.21 0 0 0 0-.263.18.18 0 0 0-.263-.012M15.444 29.238a.18.18 0 0 0-.232.082.175.175 0 0 0 .02.24.28.28 0 0 0 .334 0 .26.26 0 0 0-.122-.322M11.24 27.25a.18.18 0 0 0-.23-.071.18.18 0 0 0-.132.203.275.275 0 0 0 .278.187.26.26 0 0 0 .085-.319M15.166 27.244a.19.19 0 0 0-.029.24.16.16 0 0 0 .232.035.184.184 0 0 0 .025-.24.15.15 0 0 0-.228-.035M14.344 27.731a.19.19 0 0 0 .037.238.143.143 0 0 0 .194.028c.119-.075.1-.181.066-.313-.12-.018-.225-.072-.297.047M11.206 30.129s0 .028-.025.04c0-.068-.04-.125-.131-.13-.044 0-.113.055-.138.102a.15.15 0 0 0 .022.144.147.147 0 0 0 .203 0 .4.4 0 0 0 .116.313.243.243 0 0 0 .363 0 .314.314 0 0 0 .038-.448.31.31 0 0 0-.448-.024zM11.112 28.775c-.093 0-.178.125-.184.247l-.028.028a.23.23 0 0 0-.034.175c.05.113.143.122.259.088h.022a.31.31 0 0 0 .275-.284.34.34 0 0 0-.31-.254M13.028 26.025c-.131.034-.084.147-.113.203-.078.15 0 .372.129.403a.27.27 0 0 0 .293-.119.21.21 0 0 0-.025-.284c-.056-.066-.156-.237-.284-.203M13.816 29.666a.312.312 0 0 0 .03.469.27.27 0 0 0 .4.031.36.36 0 0 0 0-.5.365.365 0 0 0-.43 0M11.834 28.81c-.056.022-.19.087-.18.156.008.069.168.094.22.084.054-.01.08-.09.082-.14s-.047-.132-.122-.1M11.15 24.35c0-.018-.053-.072-.069-.065-.015.006-.084.047-.09.078-.007.031 0 .11.084.115.084.007.072-.09.075-.128M29.216 31.231c0 .138.075.216.243.222.116 0 .203-.05.213-.14S29.537 31 29.444 31a.23.23 0 0 0-.228.231M28.91 31.8a.18.18 0 0 0-.188.106h.428a.37.37 0 0 0-.24-.106M7.053 9.088v.231a.24.24 0 0 0 .025-.19s-.016-.032-.025-.041M7.319 10.16a.21.21 0 0 0-.16.177c0 .091.141.144.22.154.077.009.24-.097.237-.188-.003-.09-.22-.147-.297-.144"/><path fill="#7DE2D1" d="M7.053 12.163v.34h.022a.14.14 0 0 0 .123-.036.14.14 0 0 0 .042-.12.175.175 0 0 0-.168-.194zM31.319 31.103c-.116-.019-.257.072-.247.163.01.09.281.212.369.153.087-.06-.007-.297-.122-.316M29.656 30.481a.165.165 0 0 0 .188-.14.144.144 0 0 0-.144-.157.13.13 0 0 0-.136.068.1.1 0 0 0-.014.051.14.14 0 0 0 .106.178M7.547 11.572a.165.165 0 0 0 .169.163.2.2 0 0 0 .2-.197.2.2 0 0 0-.2-.169.215.215 0 0 0-.17.203M30.937 31.55c0-.038-.025-.088-.08-.09a.07.07 0 0 0-.068.04.1.1 0 0 0-.005.028c0 .034 0 .11.075.122s.085-.081.078-.1M29.237 29.098a.216.216 0 0 0-.18.212.162.162 0 0 0 .25.103c.04-.034 0-.156 0-.237a.07.07 0 0 0-.017-.055.069.069 0 0 0-.052-.023M28.881 30.613a.21.21 0 0 0 .16.212c.087 0 .23-.1.234-.168a.26.26 0 0 0-.212-.225.184.184 0 0 0-.182.18M8.64 10.053c.026.047.11.053.138.044a.12.12 0 0 0 .047-.11.11.11 0 0 0-.1-.043c-.031 0-.11.063-.084.11M9.697 22.32c-.044.034-.04.128-.053.171.087.107.16.085.215.038.057-.047.097-.128.029-.181a.2.2 0 0 0-.191-.029M8.819 8.382a.13.13 0 0 0-.06.103c0 .025.085.094.113.084s.04-.109.034-.143c-.006-.035-.075-.044-.087-.044M7.922 8.313c-.032 0-.113.078-.09.119a.12.12 0 0 0 .124.034c.034-.019.1-.06.081-.1a.13.13 0 0 0-.115-.053M9.475 13.538c-.056-.025-.188.044-.188.163a.17.17 0 0 0 .088.115.19.19 0 0 0 .165-.034.17.17 0 0 0-.065-.244M9.46 15.666c-.066.044-.163.088-.166.178-.003.091.11.1.144.091s.225-.103.225-.172-.179-.112-.204-.097M9.14 17.832a.37.37 0 0 0-.259.419.437.437 0 0 0 .506.29c.141-.053.097-.244 0-.312-.096-.069-.05-.053-.034-.166.016-.112-.019-.269-.212-.231M8.325 11.216c-.084.032-.087.182-.072.26.016.078.172.193.256.162s.07-.256.038-.312a.21.21 0 0 0-.222-.11M8.047 8.694a.29.29 0 0 0-.122.29.184.184 0 0 0 .247.079.175.175 0 0 0 .075-.247c-.047-.122-.128-.165-.2-.122M8.488 12.822a.19.19 0 0 0-.163.2.181.181 0 0 0 .268.17.19.19 0 0 0 .104-.192.184.184 0 0 0-.21-.178M8.544 8.844a.053.053 0 0 0-.028.072.056.056 0 0 0 .071.021s.022-.053 0-.065a.05.05 0 0 0-.043-.028M9.175 30.429c-.116 0-.225.131-.197.225a.23.23 0 0 0 .24.184.212.212 0 0 0 .179-.265.19.19 0 0 0-.222-.144M9.09 22.278a10 10 0 0 1-.371.244c-.166-.216-.197-.216-.347-.037.031.137.125.175.262.146.144.313.34.313.55 0a.3.3 0 0 1 .07 0c.093.035.15-.015.2-.087a.175.175 0 0 0 0-.2c-.113-.153-.2-.175-.363-.066M10.106 28.723a.234.234 0 0 0-.212.253.153.153 0 0 0 .162.147.194.194 0 0 0 .206-.129.22.22 0 0 0-.156-.271M10.55 30.994a.28.28 0 0 0-.066.4q.144.221.253.462a.3.3 0 0 0 0 .05h.441a.4.4 0 0 0-.075-.187c0-.047.034-.09.044-.14a.53.53 0 0 0-.028-.25.4.4 0 0 0-.085-.142 1 1 0 0 0-.112-.125c-.138-.134-.257-.156-.372-.068M11.206 30.672a.27.27 0 0 0-.234.262.23.23 0 0 0 .194.21c.184 0 .312-.1.312-.219a.31.31 0 0 0-.272-.253M12.656 31.907h.369a.2.2 0 0 0-.044-.12.204.204 0 0 0-.26-.033.27.27 0 0 0-.065.153M26.606 29.632a.26.26 0 0 0-.287.144.3.3 0 0 0-.025.112c0 .144.09.278.2.278a.37.37 0 0 0 .347-.312c.012-.097-.116-.222-.235-.222M13.656 30.653a.05.05 0 0 0-.038.02.05.05 0 0 0-.012.04.06.06 0 0 0 .06.043c.018 0 .04-.043.037-.059s-.022-.044-.047-.044M8.197 16.685c-.088 0-.197.068-.175.143s.072.207.162.197.11-.131.122-.187a.122.122 0 0 0-.11-.153M26.247 31.745a.18.18 0 0 0-.18.093.2.2 0 0 0-.02.07h.353v-.02c0-.097-.062-.137-.153-.143M7.987 15.835a.18.18 0 0 0-.178.181.216.216 0 0 0 .182.19.18.18 0 0 0 .175-.187.175.175 0 0 0-.179-.184M7.694 17.888c.05.09.1.187.237.147.138-.041.207-.044.313-.066a.15.15 0 0 0 .18-.075.15.15 0 0 0 .017-.069.194.194 0 0 0-.182-.21.5.5 0 0 1-.187-.062.265.265 0 0 0-.313-.04.37.37 0 0 0-.065.375M8.212 23.788a.27.27 0 0 0-.034.4.36.36 0 0 0 .5 0 .37.37 0 0 0 0-.444.313.313 0 0 0-.466.044M9.71 27.813c0-.097-.207-.29-.288-.284a.256.256 0 0 0-.222.312c0 .128.119.19.29.175.172-.016.232-.097.22-.203M9.269 24.82c-.057.015-.138.09-.135.133s.078.113.107.15c.134 0 .162-.08.159-.153-.003-.072-.047-.153-.131-.13M9.347 27.179c.066-.034.056-.156 0-.212-.056-.057-.14-.075-.188 0-.046.075-.112.206-.065.253s.194-.013.253-.041M9.156 31.044a.3.3 0 0 0-.131.175c0 .162.14.162.26.212.096-.112.171-.209.077-.334a.147.147 0 0 0-.206-.053M9.022 25.148a.18.18 0 0 0-.244 0 .25.25 0 0 0-.034.24c0 .15-.019.313-.028.444-.272 0-.291.031-.235.256.128.057.213 0 .272-.122.331.063.447-.096.335-.437a.4.4 0 0 1 .046-.05c.085-.06.079-.131.047-.216a.15.15 0 0 0-.103-.097.3.3 0 0 0-.056-.018M7.384 16.298a.182.182 0 0 0-.181.203.22.22 0 0 0 .234.159.2.2 0 0 0 .153-.212.177.177 0 0 0-.206-.15M7.053 17.595a.3.3 0 0 0 0-.075zM7.053 18.873v.221a.2.2 0 0 0 .084 0c.091 0 .157-.075.128-.153a.5.5 0 0 0-.103-.137.2.2 0 0 0-.109.069M8.625 19.841a.26.26 0 0 0 .072-.312.31.31 0 0 0-.347-.081c-.094.065-.088.234 0 .368a.206.206 0 0 0 .275.025M25.956 30.8a.394.394 0 0 0 .313.426.414.414 0 0 0 .397-.313c.028-.178-.125-.334-.363-.366a.31.31 0 0 0-.347.254M7.337 20.038a.28.28 0 0 0-.084.313.31.31 0 0 0 .394.05.29.29 0 0 0 .025-.372c-.081-.084-.197-.084-.335.01M25.294 30.213a.31.31 0 0 0-.275.262c0 .097.14.241.256.244a.23.23 0 0 0 .21-.166c.015-.18-.07-.33-.191-.34M19.522 31.095a.2.2 0 0 0 0 .259.21.21 0 0 0 .281 0 .166.166 0 0 0 0-.234.18.18 0 0 0-.281-.025M20.944 29.863a.18.18 0 0 0-.222.081c-.038.104.144.275.215.244s.104-.281.007-.325M19.444 30.285c-.19 0-.422.153-.425.313a.31.31 0 0 0 .278.312.334.334 0 0 0 .378-.312.267.267 0 0 0-.231-.313M23.478 29.995c0 .1.134.237.272.256a.224.224 0 0 0 .262-.184c0-.154-.103-.313-.225-.313a.31.31 0 0 0-.309.24M22.944 30.622a.312.312 0 0 0 .097.472c.218.146.328-.104.43.04.104.144-.074.172.082.366s.413.172.469 0-.056-.272-.034-.313.168-.153.078-.259c-.188-.222-.344 0-.422-.053s-.144-.219-.25-.313a.29.29 0 0 0-.45.06M23.538 31.82c-.02-.038-.147-.097-.185-.066-.037.031-.028.1 0 .147h.21a.16.16 0 0 0-.025-.081M15.81 31.907h.624a.35.35 0 0 0-.297-.184.39.39 0 0 0-.328.184M16.481 27.181c-.09 0-.266-.1-.35 0s.022.166.035.231c.028.166.215.313.343.247a.275.275 0 0 0 .166-.272.21.21 0 0 0-.194-.206M19.39 31.731c-.103 0-.228 0-.259.141v.034h.338a.7.7 0 0 0-.079-.175M16.381 28.75a.23.23 0 0 0 .038-.266.18.18 0 0 0-.24 0 .18.18 0 0 0-.089.115.175.175 0 0 0 .291.166zM16.244 30.538a.26.26 0 0 0 .018.344c.122.134.229.153.332.069a.31.31 0 0 0 .047-.39.31.31 0 0 0-.397-.023M24.14 29.063c.022-.097-.118-.166-.168-.235h-.056a.16.16 0 0 0-.088.181c0 .055.018.109.05.154.078-.022.244-.004.263-.1M25.206 29.42c-.05 0-.087.065-.112.084 0 .125.072.206.15.184a.2.2 0 0 0 .125-.112c.025-.072-.081-.175-.163-.157M24.987 27.841a.16.16 0 0 0-.18.144c0 .116.08.26.162.263.08.003.18-.125.19-.22a.17.17 0 0 0-.172-.187M15.828 29.566c-.022 0-.072.044-.069.079.003.034.063.062.1.071.038.01.097-.034.097-.084s-.093-.066-.128-.066M25.49 29.69c0 .104.135.138.198.15.062.013.115-.065.121-.14.007-.075-.065-.172-.14-.15s-.19.037-.178.14M25.334 31.39a.17.17 0 0 0 .163.172.156.156 0 0 0 .19-.137.175.175 0 0 0-.156-.203.19.19 0 0 0-.197.169M25 31.894h-.019.166a.17.17 0 0 0-.147 0M24.581 31.225c-.022.125.05.281.147.313.19.037.284-.14.331-.238s-.143-.25-.312-.231a.175.175 0 0 0-.166.156M23.797 29.291s-.047.022-.044.028 0 .06.035.066c.034.006.03-.025.053-.04.021-.017-.029-.048-.044-.054M25.872 28.866c-.088 0-.19.11-.213.275.029.025.066.09.12.103a.196.196 0 0 0 .265-.134.197.197 0 0 0-.172-.244M24.534 29.86a.112.112 0 0 0-.121.14c0 .06.034.21.115.204s.156-.14.163-.2c.006-.06-.06-.14-.157-.144"/><path fill="#00BFB3" d="M14.194 14.794h4.246a4.247 4.247 0 1 1-4.246-4.247z"/><path fill="#20377D" d="M14.194 14.81V9.861a4.97 4.97 0 0 1 4.943 4.947zM32.606 10.365H21.35v8.356h11.256z"/><path fill="#7DE2D1" d="M24.863 12.597h-1.675v4.712h1.675zM28.019 11.903h-1.675v5.407h1.675z"/><path fill="#20377D" d="M32.606 20.15H9.75v9.67h22.856z"/><path fill="#7DE2D1" d="M31.175 13.997H29.5v3.313h1.675zM20.222 28.597c-1.778 0-2.675-1.294-3.394-2.335-.572-.825-1.065-1.537-1.843-1.54-.847.043-1.229.625-1.71 1.39-.625.978-1.403 2.188-3.528 2.188v-.794c1.684 0 2.25-.887 2.853-1.825.506-.794 1.081-1.694 2.366-1.762 1.219 0 1.875.959 2.522 1.875.706 1.021 1.375 1.987 2.734 1.987 1.469 0 2.188-1.312 2.963-2.697.712-1.284 1.45-2.612 2.856-2.612s2.034 1.065 2.634 2.097c.753 1.296 1.531 2.634 3.931 2.634v.803c-2.862 0-3.84-1.681-4.625-3.031-.625-1.088-1.03-1.7-1.94-1.7s-1.497 1.019-2.153 2.187c-.81 1.482-1.725 3.135-3.666 3.135"/><path fill="#00BFB3" d="M14.919 25.65a1.422 1.422 0 1 0 0-2.843 1.422 1.422 0 0 0 0 2.843M26.256 24.334a1.422 1.422 0 1 0 0-2.844 1.422 1.422 0 0 0 0 2.844"/></svg>