<svg xmlns="http://www.w3.org/2000/svg" width="41" height="40" fill="none"><path fill="#fff" d="M27.306 4.51a.284.284 0 0 0 .169-.356.9.9 0 0 0-.279-.05c-.125.018-.159.134-.118.246.04.113.094.194.228.16M18.572 4.535c.072 0 .134-.09.169-.116 0-.184-.091-.312-.204-.284a.31.31 0 0 0-.197.16c-.028.105.113.262.232.24M21.146 3.803c.025-.15-.178-.36-.38-.394a.313.313 0 0 0-.395.253.44.44 0 0 0 .313.491.47.47 0 0 0 .462-.35M12.631 4.747a.31.31 0 0 0 .278-.313.24.24 0 0 0-.362-.165c-.062.046-.028.228-.025.35a.103.103 0 0 0 .11.128M13.994 3.041c.19.038.406-.081.425-.225a.43.43 0 0 0-.256-.412c-.163-.025-.335.162-.363.396a.2.2 0 0 0 .109.221.2.2 0 0 0 .085.02M24.98 3.634a.3.3 0 0 0 0 .057.1.1 0 0 0-.074 0c-.11.037-.169.406-.025.475a.266.266 0 0 0 .306-.104.14.14 0 0 0 0-.053.5.5 0 0 0 .244-.103c0-.153.025-.312-.144-.387a.23.23 0 0 0-.306.115"/><path fill="#fff" d="M25.65 3.437c.037.222.312.26.453.46.297.478.69.312.972.065a.57.57 0 0 0 .172-.312.72.72 0 0 0 .44-.281.3.3 0 0 0 0 .068.625.625 0 0 0 .625.432.48.48 0 0 0 .385-.504.52.52 0 0 0-.122-.312l-.313-.14a.4.4 0 0 0-.087 0 .63.63 0 0 0-.438.274.45.45 0 0 0-.384-.45.53.53 0 0 0-.397.107.27.27 0 0 0-.119-.125.8.8 0 0 0-.962.121.65.65 0 0 0-.225.597M24.34 3.935a.335.335 0 0 0 .185-.435.53.53 0 0 0-.153-.231q.07-.001.128-.04a.2.2 0 0 0 0-.216c-.053-.057-.178 0-.2.05a.2.2 0 0 0-.022.147.31.31 0 0 0-.235-.066.48.48 0 0 0-.312.534.485.485 0 0 0 .61.257M23.982 2.64a.347.347 0 0 0 .493 0 .443.443 0 0 0 .319-.284.26.26 0 0 0 .275 0c.156-.097.113-.26.078-.428-.165-.04-.337-.115-.444.075a.2.2 0 0 0-.018.056.3.3 0 0 0-.081-.034v-.131a.37.37 0 0 0-.11-.219 6 6 0 0 0-.556-.113.17.17 0 0 0-.04.082c-.086.291-.08.602.015.89a.5.5 0 0 0 .069.107M25.756 2.853c.084-.059-.125-.475-.24-.5-.116-.025-.235.21-.179.41.057.2.332.153.42.09M31.347 4.688c-.179-.129-.36-.257-.544-.375v.059a.56.56 0 0 0 .543.316M30.04 3.825c-.146-.088-.293-.166-.443-.247.128.231.237.278.444.247M18.238 2.85c-.038.263.078.494.256.51a.48.48 0 0 0 .422-.363c.021-.147-.188-.365-.36-.378a.34.34 0 0 0-.319.231M17.9 4.31c.085-.019.285-.044.272-.194s-.19-.212-.28-.234-.176.087-.185.2c-.01.112.084.256.194.228M18.21 1.875a.284.284 0 0 0 .312-.237.25.25 0 0 0-.188-.25l-.24.028a.24.24 0 0 0-.094.147.26.26 0 0 0 .113.273q.045.03.096.04M15.556 2.628c.216.044.47-.2.51-.49a.34.34 0 0 0-.119-.313q-.349.089-.697.19a.6.6 0 0 0-.031.116.46.46 0 0 0 .337.497M16.531 4.135a.384.384 0 0 0 .466-.36c.019-.212-.113-.412-.275-.419a.55.55 0 0 0-.528.429c-.019.146.162.33.337.35M17.044 2.813a.444.444 0 0 0 .519-.356.58.58 0 0 0-.428-.644.606.606 0 0 0-.604.444c-.053.243.166.496.513.556M19.369 3.706c-.019.122.078.216.218.225s.197-.096.191-.2c-.006-.103-.04-.312-.16-.312-.118 0-.237.203-.25.287M20.328 2.37c.263.343.507.03.625.105q.047.04.082.091a.3.3 0 0 0-.15 0 .38.38 0 0 0-.27.4.44.44 0 0 0 .435.312.34.34 0 0 0 .197-.375 1 1 0 0 0 .053.06.43.43 0 0 0 .666-.022.473.473 0 0 0-.11-.7c-.312-.231-.493.131-.624-.088-.132-.218.103-.278-.107-.568s-.597-.278-.687-.04c-.09.237.065.402.028.45-.038.046-.263.215-.138.374M22.743 2.972h.02c.083 0 .284-.068.312-.175a.24.24 0 0 0-.032-.134.15.15 0 0 0 0-.075.47.47 0 0 0-.512-.281.42.42 0 0 0-.231.497c.04.184.197.243.443.168M22.912 1.397l-.203-.025a.4.4 0 0 0 .116.031q.043.002.087-.006M22.869 3.41c-.053.09.09.259.215.25a.5.5 0 0 0 .197-.107c.032-.197-.043-.334-.153-.312a.42.42 0 0 0-.26.168M19.347 2.16a.266.266 0 0 0 .262-.238c.038-.185-.059-.419-.196-.453-.279-.066-.432.19-.5.312-.07.122.19.406.434.378"/><g clip-path="url(#a)"><path fill="#ECF0F6" d="M20.5 38.75c10.355 0 18.75-8.395 18.75-18.75S30.855 1.25 20.5 1.25 1.75 9.645 1.75 20s8.395 18.75 18.75 18.75"/><path fill="#fff" d="M27.516 6.672h.365a.4.4 0 0 0-.365 0M33.212 6.232l-.312-.285a.25.25 0 0 0 0 .19.21.21 0 0 0 .312.095M33.61 8.097a.37.37 0 0 0 .093-.197.8.8 0 0 0 .182-.031.43.43 0 0 0 .312-.397 1 1 0 0 0 .097-.05c.025-.016.044-.034.066-.05-.197-.212-.394-.425-.6-.625l-.181-.172a.33.33 0 0 0-.166.416.63.63 0 0 0-.225.334q-.137.064-.25.163a.43.43 0 0 0-.031.665.475.475 0 0 0 .703-.056"/><path fill="#fff" d="M32.225 7.49a.432.432 0 0 0-.282.594.46.46 0 0 0 .535.313c.212-.06.312-.394.228-.669a.35.35 0 0 0-.481-.237M32.081 7.272c.147.037.375-.15.425-.35a.313.313 0 0 0-.222-.413.43.43 0 0 0-.512.266.466.466 0 0 0 .31.497M32.103 5.835a.2.2 0 0 0 .16.078c.084 0 .312-.016.312-.135 0-.118-.175-.253-.263-.272a.1.1 0 0 0-.05 0 .5.5 0 0 0-.068-.112.313.313 0 0 0-.378.278c.093.094.168.197.287.163M34.925 15.125a.24.24 0 0 0 .078-.338.294.294 0 0 0-.4-.1.29.29 0 0 0-.06.378.31.31 0 0 0 .382.06M34.882 16.09c.046 0 .143-.018.159-.084s-.053-.134-.097-.15-.19 0-.206.069.097.16.144.165M35.334 8.806c.028-.028.082-.066.122-.113l-.219-.28-.109.015c-.122.031-.115.16-.072.262s.19.19.278.116M31.225 7.35a.46.46 0 0 0 .159-.313c0-.06-.075-.128-.16-.172zM35.163 17.203c.094-.075.169-.165.097-.297a.31.31 0 0 0-.39-.04.31.31 0 0 0 .03.275.16.16 0 0 0 .263.062M35.11 9.644a.313.313 0 0 0 .368.2c.125-.044.19-.26.115-.494-.05-.018-.14-.084-.221-.068a.313.313 0 0 0-.263.362M35.55 14.094a.56.56 0 0 0-.238-.5.36.36 0 0 0-.44.296c-.044.166.09.313.312.385a.26.26 0 0 0 .366-.181M34.669 12.865a.27.27 0 0 0 .312-.212.27.27 0 0 0-.178-.338.29.29 0 0 0-.334.188.31.31 0 0 0 .2.362M26.103 6.384a.283.283 0 0 0 .313.281.41.41 0 0 0 .378-.434c0-.228-.14-.26-.131-.406s-.076-.2-.226-.244-.38-.106-.437.106c-.056.213.075.275.14.288s.148.121.072.134c-.075.012-.134.09-.109.275M25.89 5.356a.26.26 0 0 0-.137-.194.166.166 0 0 0-.225.15c0 .075.022.27.181.282.16.012.182-.172.182-.238M27.269 4.519a.287.287 0 0 0 .169-.357.8.8 0 0 0-.279-.05c-.125.016-.159.132-.118.244.04.113.093.194.228.163M15.515 5.372c-.075 0-.122.113-.134.163a.13.13 0 0 0 .09.121c.05 0 .11-.071.132-.121s-.016-.15-.088-.163M24.947 5.585a.247.247 0 0 0-.312.115c-.054.125 0 .194.271.294a.237.237 0 0 0 .041-.41M27.95 5.356c-.078 0-.109.056-.09.131.018.075.06.107.134.088s.1-.053.088-.125-.053-.113-.132-.094M31.247 6.71c0-.038-.028-.054-.047-.085a.3.3 0 0 0-.078.047h.103v.053s.019-.006.022-.016M18.547 4.54c.072-.015.134-.09.169-.115 0-.185-.094-.313-.203-.282a.31.31 0 0 0-.197.157c-.053.106.1.265.231.24M18.806 6.278c-.1 0-.275.175-.294.313a.4.4 0 0 0 0 .084h.513c.022-.181-.1-.387-.22-.397M22.937 6.513a.237.237 0 0 0 .022-.41.25.25 0 0 0-.294.116.228.228 0 0 0 .272.294M15.475 6.2c0 .046.021.19.087.2.066.009.147-.11.153-.154.007-.043-.031-.143-.097-.156-.065-.012-.13.066-.143.11M21.11 3.81c.024-.147-.179-.36-.382-.394a.33.33 0 0 0-.397.253c-.028.225.132.478.313.49a.466.466 0 0 0 .466-.35M20.662 4.785c0-.034 0-.09-.047-.1s-.047.034-.078.056c.022.035.035.072.06.081s.068-.028.065-.037M34.647 9.562c.219.038.39-.056.413-.222a.53.53 0 0 0-.37-.537c-.146-.016-.312.153-.352.334a.338.338 0 0 0 .31.425M38.631 15.243a17 17 0 0 0-.197-.703.22.22 0 0 0-.124 0 .356.356 0 0 0-.126.488.46.46 0 0 0 .447.215M38.494 15.644a.31.31 0 0 0-.063.378.28.28 0 0 0 .378.044v-.022q-.044-.215-.093-.431a.22.22 0 0 0-.222.031M39.031 17.288h.025c-.019-.128-.044-.26-.066-.388-.087.02-.171.06-.184.138-.019.137.15.215.225.25M37.959 13.16q.005.072.05.13zM38.547 18.994c.07.018.138-.097.16-.147s-.016-.116-.07-.125a.19.19 0 0 0-.158.075c-.035.019-.013.162.068.197M38 14.422a.287.287 0 0 0-.2-.357.27.27 0 0 0-.312.238.247.247 0 0 0 .175.297h.034a.4.4 0 0 0 0 .069.19.19 0 0 0 .294.062.26.26 0 0 0 0-.24.2.2 0 0 0-.041-.05s.05-.01.05-.02M37.706 15.056a.57.57 0 0 0-.162.569.347.347 0 0 0 .528.063c.156-.107.169-.294.028-.5a.294.294 0 0 0-.394-.132M37.438 13.622a.55.55 0 0 0 .512-.397.3.3 0 0 0 0-.088l-.056-.156a.4.4 0 0 0-.222-.125.34.34 0 0 0-.45.313c-.04.2.075.428.215.453M37.837 18.853c-.178-.11-.265.063-.387.178.081.191.169.338.369.294.065-.015.165-.125.16-.184a.42.42 0 0 0-.142-.288M38.962 19.46a.256.256 0 0 0-.047-.313.31.31 0 0 0-.378-.065c-.165.13-.112.312-.078.468.3.07.428.07.503-.09M38.7 18.172c-.094.087-.197.178-.125.287.138.188.313.234.419.156a.288.288 0 0 0 .075-.425.247.247 0 0 0-.369-.018M37.662 21.318c-.062.044-.134.078-.156.16-.022.081.084.16.2.134.108-.03.2-.102.256-.2a.12.12 0 0 0 .003-.11.12.12 0 0 0-.087-.068.27.27 0 0 0-.216.084M38.159 16.997a.36.36 0 0 0-.194-.12.6.6 0 0 1 .138-.196.39.39 0 0 0 .172-.425c-.035-.134-.357-.275-.513-.231s-.312.072-.294.284c0 .153 0 .313-.025.463a.22.22 0 0 0 .047.287.5.5 0 0 0 .022.372.344.344 0 0 0 .403.113c.24-.157.35-.394.244-.547M38.416 22.213a.31.31 0 0 0 .153-.2c0-.188-.153-.2-.294-.222-.122.113-.181.24-.069.372a.23.23 0 0 0 .21.05M35.791 15.906c-.031.135.047.253.169.24a.8.8 0 0 0 .234-.093.265.265 0 0 0-.225-.312c-.125-.013-.156.071-.178.165M32.609 10.694c.06-.05 0-.181-.034-.206a.18.18 0 0 0-.185 0c-.05.037-.025.143 0 .187s.147.066.219.019M32.48 9.307a.4.4 0 0 0-.146-.275c-.088-.063-.266.068-.266.193a.5.5 0 0 0 .088.207c.194.034.337-.028.325-.125M33.69 16.153c-.031-.072-.312-.228-.418-.156-.107.072-.02.387.043.481a.31.31 0 0 0 .347.072c.113-.056.072-.287.028-.397M32.94 9.262a.25.25 0 0 0 .285-.203.19.19 0 0 0-.187-.24.33.33 0 0 0-.244.109c-.04.065.028.31.147.334M33.784 20.766a.21.21 0 0 0 .056-.166c0-.037-.15-.112-.187-.087s-.029.165 0 .215a.16.16 0 0 0 .13.038M36.203 18.194c.019.221.313.23.431.13.12-.1.097-.05.25.016.154.066.4.054.42-.234a.55.55 0 0 0-.5-.525.625.625 0 0 0-.6.613M33.172 11.744c.034-.116-.191-.253-.391-.21s-.181.313-.128.407.487-.084.519-.197M34.153 10.432c0-.122-.02-.225-.132-.26a1.5 1.5 0 0 0-.89-.056.4.4 0 0 0-.119.075.338.338 0 0 0 .14.6q.263.075.535.078a.3.3 0 0 0 0 .156.13.13 0 0 0 .134.066c.047 0 .066-.112.063-.169a.2.2 0 0 0-.06-.075.58.58 0 0 0 .329-.415M36.241 14.778a.3.3 0 0 0 0 .103.3.3 0 0 0-.097.038.26.26 0 0 0-.115.359.26.26 0 0 0 .334.1.27.27 0 0 0 .103-.366 1.3 1.3 0 0 0 .184-.08.264.264 0 0 0-.221-.313c-.132-.022-.166.065-.188.159M36.488 16.494c.115.162.34.237.46.15A.53.53 0 0 0 37.05 16a.33.33 0 0 0-.447-.028.36.36 0 0 0-.115.522M34.034 9.275a.38.38 0 0 0 .25-.531c-.08-.197-.29-.313-.437-.247a.54.54 0 0 0-.272.625.384.384 0 0 0 .46.153M34.263 12.044a.31.31 0 0 0 .278.068.314.314 0 0 0 .122-.465.265.265 0 0 0-.363-.025.2.2 0 0 0 0-.119c-.019-.044-.09-.113-.156-.09-.066.021-.088.115-.075.162s.09.137.153.134v.019a.37.37 0 0 0 .04.316M35.347 10.622a.5.5 0 0 0 .287.515.3.3 0 0 0 .078 0 .5.5 0 0 0-.128.188.87.87 0 0 0 0 .584.37.37 0 0 1 0 .22.338.338 0 0 0 .234.493.269.269 0 0 0 .149.463c.07.01.14-.005.198-.044a.2.2 0 0 0 .032-.032.29.29 0 0 0 .28-.218.265.265 0 0 0-.237-.313.5.5 0 0 0 .063-.256.5.5 0 0 1 .09-.36.56.56 0 0 0 .035-.54.3.3 0 0 0-.072-.119.15.15 0 0 0 0-.1c-.022-.075-.097-.175-.163-.184a.21.21 0 0 0-.215.115h-.06a.46.46 0 0 0 .191-.278c.031-.165-.11-.312-.347-.362a.384.384 0 0 0-.416.228M22.475 6.672h.134a.12.12 0 0 0-.066-.022.1.1 0 0 0-.068.022M33.86 13.557c0 .15-.057.33.153.403a.253.253 0 0 0 .328-.132.31.31 0 0 0 0-.253c-.078-.137-.2-.137-.482-.018M34.044 20.028a.075.075 0 0 0 .022-.11.08.08 0 0 0-.107 0c-.022 0-.018.082 0 .097.02.016.057.035.085.013M33.834 22.278a.208.208 0 0 0-.084.312.263.263 0 0 0 .365.09.27.27 0 0 0 .091-.34.26.26 0 0 0-.372-.062M34.9 19.653a.278.278 0 0 0-.45.043.26.26 0 0 0 .034.297c.1.144.232.191.313.116a.44.44 0 0 0 .103-.456M35.338 17.982a.14.14 0 0 0-.132.078c0 .05.066.115.113.143.047.029.15 0 .169-.078.018-.078-.1-.128-.15-.143M33.529 23.884c-.057.025-.091.169-.07.231.023.063.194.17.257.132s.066-.228.034-.263c-.03-.034-.168-.125-.221-.1M35.006 20.4c-.047.037-.131.119-.087.169a.18.18 0 0 0 .178.043c.043-.018.14-.146.096-.196a.18.18 0 0 0-.187-.016M31.553 9.075a.45.45 0 0 0-.313-.25v.653h.053c.172-.065.31-.268.26-.403M35.531 26.044c-.06.043-.056.256-.034.343s.166.132.312.06a.157.157 0 0 0 .047-.263c-.075-.065-.265-.184-.325-.14M12.59 4.753a.313.313 0 0 0 .278-.313.237.237 0 0 0-.359-.165c-.062.046-.031.23-.025.35a.104.104 0 0 0 .106.128M31.897 11.013c-.031-.113-.39-.2-.472-.066a.27.27 0 0 0 .078.34c.144.076.425-.159.394-.274"/><path fill="#fff" d="M32.797 15.785a.57.57 0 0 0-.594.387.52.52 0 0 0 .344.625.75.75 0 0 0 .669-.434.51.51 0 0 0-.42-.578M30.88 5.362a.375.375 0 0 0-.071.413.2.2 0 0 0 .312.053c.185-.119.27-.256.22-.353a.45.45 0 0 0-.46-.113M33.547 18.319a.18.18 0 0 0-.21-.022.17.17 0 0 0-.037.169.16.16 0 0 0 .16.043c.043-.021.143-.14.087-.19M32.644 13.54a.49.49 0 0 0-.387-.606.394.394 0 0 0-.494.279.625.625 0 0 0 .375.675.453.453 0 0 0 .506-.347M38.02 24.497a.375.375 0 0 0-.079.444.63.63 0 0 0 .603.156q.049-.166.09-.331a.56.56 0 0 0-.09-.25c-.125-.172-.31-.178-.525-.02M37.887 26.031c-.087.06 0 .313.044.385a.144.144 0 0 0 .16.078q.066-.173.127-.35c-.084-.066-.25-.163-.331-.113M38.794 22.406a.494.494 0 0 0 .218.55c.05-.312.09-.609.125-.912a.75.75 0 0 0-.343.362M39.137 19.818a.247.247 0 0 0-.034.372q.06.085.14.15v-.569a.4.4 0 0 0-.106.047M37.825 22.456a.44.44 0 0 0-.625-.143.553.553 0 0 0-.156.718.58.58 0 0 0 .703.138.49.49 0 0 0 .078-.713M38.635 20.728a.25.25 0 0 0 .087.34.7.7 0 0 1 .172.166.41.41 0 0 0 .313.182c0-.213.03-.428.04-.644a3 3 0 0 0-.265-.156.238.238 0 0 0-.347.112M36.29 17.431a.31.31 0 0 0 .079-.378.31.31 0 0 0-.413-.06.247.247 0 0 0-.056.341.265.265 0 0 0 .39.097M36.36 23.303c-.097.047-.025.165 0 .218.025.054.122.054.137.035a.2.2 0 0 0 .056-.166.15.15 0 0 0-.135-.097q-.03 0-.058.01M36.638 19.203a.313.313 0 0 0 .05-.416.37.37 0 0 0-.469-.118.48.48 0 0 0-.14.543c.08.113.384.11.559-.01M35.569 22.053a.146.146 0 0 0-.044.237c.075.097.172.163.313.088a.28.28 0 0 0 .09-.34c-.066-.082-.234-.073-.36.015M36.913 20.594c.1-.078.059-.162 0-.244a.178.178 0 0 0-.291-.043c-.056.069-.125.15-.097.231a.31.31 0 0 0 .388.056M37.404 27.578c-.038.032-.088.12-.054.175a.16.16 0 0 0 .178.038.3.3 0 0 0 .057-.06q.021-.05.044-.096a.1.1 0 0 0 0-.041c-.041-.056-.188-.04-.225-.016M37.06 21.3a.234.234 0 0 0-.313-.081c-.103.043-.147.331-.056.39a.31.31 0 0 0 .271 0 .215.215 0 0 0 .097-.309M13.956 3.056c.19.034.406-.081.425-.225a.42.42 0 0 0-.256-.413c-.166-.025-.334.16-.363.397-.018.14.063.21.194.24M24.944 3.64a.3.3 0 0 0-.016.06.1.1 0 0 0-.075 0c-.11.04-.169.406-.025.478a.27.27 0 0 0 .331-.11.2.2 0 0 0 0-.052.5.5 0 0 0 .244-.103c0-.153.025-.313-.144-.388a.234.234 0 0 0-.315.116M22.656 4.575a.4.4 0 0 0-.175.431c0 .022.016.038.022.057a.38.38 0 0 0 .313.215q.172.008.343-.015c0 .121.063.265.157.284a.36.36 0 0 0 .218 0c.1.04.213.04.313 0a.62.62 0 0 0 .312-.519.3.3 0 0 0-.084-.219.487.487 0 0 0-.69-.03l-.138.109c-.072-.091-.128-.179-.2-.257a.255.255 0 0 0-.39-.056M25.613 3.428c.037.225.328.26.453.462.297.475.69.313.972.063a.57.57 0 0 0 .171-.313.7.7 0 0 0 .432-.262.3.3 0 0 0 0 .075.625.625 0 0 0 .625.431.475.475 0 0 0 .384-.503.52.52 0 0 0-.122-.312l-.312-.138a.4.4 0 0 0-.088 0 .63.63 0 0 0-.437.272.45.45 0 0 0-.385-.447.5.5 0 0 0-.397.103.27.27 0 0 0-.118-.125.8.8 0 0 0-.963.122c-.08.07-.14.16-.178.26-.037.099-.05.206-.037.312M24.304 3.94a.33.33 0 0 0 .184-.434.56.56 0 0 0-.153-.231.2.2 0 0 0 .128-.04.2.2 0 0 0 .015-.217c-.053-.053-.178.016-.2.054a.2.2 0 0 0-.021.143.31.31 0 0 0-.235-.062.47.47 0 0 0-.312.531.484.484 0 0 0 .593.256M28.425 4.15h-.018a.51.51 0 0 0-.435.571q.133.105.285.182a.39.39 0 0 0 .471-.122.434.434 0 0 0-.046-.55l-.028-.019c-.02-.066-.16-.078-.229-.062M23.944 2.647a.34.34 0 0 0 .49 0 .2.2 0 0 0 .066-.016.44.44 0 0 0 .256-.268.25.25 0 0 0 .275 0c.157-.1.113-.263.078-.432-.165-.037-.337-.115-.443.075a.2.2 0 0 0-.02.057 1 1 0 0 0-.08-.035v-.131a.38.38 0 0 0-.11-.219c-.19-.04-.381-.081-.572-.115a.17.17 0 0 0-.04.08c-.086.292-.08.603.015.891q.034.063.085.113M25.734 2.862c.084-.062-.125-.478-.24-.503-.116-.025-.235.21-.179.41s.316.153.419.093M30.734 6.584a.34.34 0 0 0 .228-.047c-.034-.118.022-.356-.116-.403-.137-.047-.262.144-.371.203v.085a.25.25 0 0 0 .259.162M29.703 6.18a.46.46 0 0 0-.14.476l.025.031h.521a.28.28 0 0 0 .116-.328.46.46 0 0 0-.522-.178M31.31 4.682q-.27-.19-.544-.375v.062a.56.56 0 0 0 .543.313M28.86 6.154a.15.15 0 0 0 .184 0 .14.14 0 0 0 0-.175.19.19 0 0 0-.213-.02c-.056.041-.028.148.028.195M29.172 5.34a.344.344 0 0 0 .465.182c.222-.072.275-.19.188-.44a.46.46 0 0 0-.11-.185.2.2 0 0 0 .097-.122c.016-.1-.153-.288-.287-.313a.25.25 0 0 0-.313.216.24.24 0 0 0 .09.26.56.56 0 0 0-.13.403M30.003 3.83c-.147-.087-.294-.165-.444-.246.128.231.238.281.444.247M18.2 2.856c-.037.263.079.494.257.513a.485.485 0 0 0 .421-.366c.022-.144-.187-.365-.359-.378a.34.34 0 0 0-.319.231M17.863 4.306c.084-.022.284-.044.271-.197s-.19-.21-.28-.231-.176.087-.185.197.084.268.194.23M17.297 4.962a.31.31 0 0 0 .234.347c.132.019.291-.144.332-.387-.038-.038-.091-.138-.166-.163a.313.313 0 0 0-.4.203M18.172 1.872a.284.284 0 0 0 .313-.234.25.25 0 0 0-.188-.253l-.24.031a.22.22 0 0 0-.09.15.26.26 0 0 0 .205.306M15.518 2.634c.216.044.47-.2.51-.488a.34.34 0 0 0-.12-.312c-.23.056-.465.119-.696.187a.6.6 0 0 0-.031.116.46.46 0 0 0 .337.497M16.494 4.14a.384.384 0 0 0 .466-.356c.018-.215-.113-.415-.275-.422a.55.55 0 0 0-.528.432c-.02.143.162.328.337.346M17.006 2.822a.44.44 0 0 0 .516-.36.58.58 0 0 0-.425-.643.6.6 0 0 0-.603.443c-.053.26.178.497.512.56M19.331 3.715c-.021.122.079.213.22.225a.172.172 0 0 0 .19-.2c0-.087-.04-.312-.16-.312-.118 0-.237.2-.25.287M20.29 2.378c.263.34.507.028.625.106a.4.4 0 0 1 .082.088.3.3 0 0 0-.15 0 .38.38 0 0 0-.27.4.43.43 0 0 0 .435.297.34.34 0 0 0 .197-.372c.019.019.034.044.053.06a.43.43 0 0 0 .666-.026.472.472 0 0 0-.11-.697c-.312-.234-.493.128-.625-.09-.13-.22.12-.247-.097-.541-.215-.294-.596-.278-.687-.037-.09.24.066.4.028.45-.037.05-.272.2-.147.362M22.706 2.978h.019c.084 0 .284-.065.312-.175a.24.24 0 0 0-.031-.13.2.2 0 0 0 0-.079.475.475 0 0 0-.513-.281.43.43 0 0 0-.234.497c.038.184.2.247.447.168M22.875 1.403l-.203-.022a.4.4 0 0 0 .116.031 1 1 0 0 0 .087-.01M20.31 5.49h.084a.25.25 0 0 0 .14-.265A.33.33 0 0 0 20.47 5c-.116.044-.357 0-.394.147s.166.24.234.344M22.832 3.415c-.057.09.09.263.215.25a.5.5 0 0 0 .197-.106c.031-.197-.043-.334-.153-.313a.42.42 0 0 0-.26.17M19.309 2.166a.266.266 0 0 0 .262-.238c.038-.184-.059-.415-.197-.45-.278-.069-.43.19-.5.313-.068.122.191.39.435.375"/><path fill="#7DE2D1" d="M31.225 6.672H9.995v26.722h13.702l7.528-7.875z"/><path fill="#42D4C6" d="M22.879 24.143c.065-.043.03-.175-.041-.225a.2.2 0 0 0-.034-.015h-.048a.1.1 0 0 0-.04 0 .08.08 0 0 0-.056.053c-.028.05-.094.16-.028.225.065.066.19 0 .247-.038M22.238 25.634a.3.3 0 0 0 0-.222c-.032-.075-.11-.112-.153-.059a.2.2 0 0 0-.029.15.2.2 0 0 0 .038.156.09.09 0 0 0 .144-.025M22.863 25.572a.16.16 0 0 0-.11-.097c-.118 0-.165.072-.18.184.065.072.137.153.24.078a.2.2 0 0 0 .05-.165M23.128 24.812a.39.39 0 0 0-.353-.337.37.37 0 0 0-.312.215.4.4 0 0 0-.107-.022.45.45 0 0 1-.184-.075.206.206 0 0 0-.278.044.153.153 0 0 0 .06.24c.065.082.133.163.193.25.06.088.181.079.278.045a.3.3 0 0 0 .11-.097c.061.05.14.074.218.068.24-.012.394-.15.375-.33M19.269 29.344c0-.16-.097-.26-.275-.263a.35.35 0 0 0-.288.281c0 .116.147.228.297.228a.24.24 0 0 0 .247-.146.24.24 0 0 0 .019-.1M17.59 30.91a.184.184 0 0 0-.197-.17.18.18 0 0 0-.162.2.18.18 0 0 0 .187.176.22.22 0 0 0 .172-.206M18.732 30.469c0 .087-.041.188.062.225a.25.25 0 0 0 .184-.056.15.15 0 0 0 0-.14c-.059-.1-.15-.091-.247-.029M20.754 26.578a.3.3 0 0 0 .218-.034.18.18 0 0 0 .038-.166.16.16 0 0 0-.075-.08.062.062 0 0 0-.019-.047c-.038-.032-.1 0-.125 0l-.081.015c-.025.14-.088.256.043.312M17.25 31.612a.12.12 0 0 0-.104.107.1.1 0 0 0 .007.053c0 .056.047.18.138.184.09.003.134-.147.147-.212.012-.066-.1-.147-.188-.132M21.047 24.215c-.06.094-.025.113-.135.107-.109-.007-.265.112-.19.243a.44.44 0 0 0 .578.107.37.37 0 0 0 .075-.488c-.138-.156-.278-.062-.328.031M21.544 25.772a.6.6 0 0 0-.169.037.125.125 0 0 0 0 .203c.047.044.1.078.166.022a.18.18 0 0 0 .044-.202.2.2 0 0 0-.04-.06M21.938 28.162a.215.215 0 0 0 .03.282.19.19 0 0 0 .26-.025.19.19 0 0 0-.031-.26.184.184 0 0 0-.26.003M22.784 26.438a.26.26 0 0 0-.278-.21.6.6 0 0 1-.163-.034.17.17 0 0 0-.2.053.2.2 0 0 0-.068.022c-.075.04-.072.138 0 .203a.13.13 0 0 0 .125.044q.171.084.353.147c.2-.003.268-.09.231-.225M21.65 25.035a.153.153 0 0 0 .166.137.144.144 0 0 0 .143-.178.2.2 0 0 0-.115-.144c-.066-.028-.213.11-.194.185M21.93 24.056c0-.103-.084-.128-.168-.134s-.116.04-.116.118.063.203.129.203a.2.2 0 0 0 .156-.187M22.297 26.968c0-.143-.094-.21-.29-.212a.17.17 0 0 0-.137.04.17.17 0 0 0-.058.128.3.3 0 0 0 .063.16.2.2 0 0 0-.19.078c-.11.125-.123.269-.032.344a.25.25 0 0 0 .366 0 .37.37 0 0 0-.022-.313l.04.019a.31.31 0 0 0 .26-.244M18.394 28.41a.18.18 0 0 0 .128-.103c.022-.07-.078-.163-.153-.138s-.163.085-.154.144c.01.06.132.103.179.097M19.862 23.947s-.053.025-.053.04c0 .017 0 .057.05.057a.1.1 0 0 0 .021-.004.052.052 0 0 0 .032-.052c0-.025-.03-.04-.05-.04M18.063 27.329a.184.184 0 0 0 .171-.21.18.18 0 0 0-.187-.15.175.175 0 0 0-.156.206.143.143 0 0 0 .172.153M21.384 26.653c-.103.044-.221.085-.23.232a.2.2 0 0 0 .187.184.18.18 0 0 0 .197-.1c.056-.103.018-.181-.154-.316M18.975 26.257a.21.21 0 0 0 .193.206.206.206 0 0 0 .185-.19.185.185 0 0 0-.213-.182.166.166 0 0 0-.165.166M18.662 24.282a.13.13 0 0 0 .097.109c.053 0 .075-.094.072-.128-.003-.035-.063-.075-.09-.069a.12.12 0 0 0-.079.088M19.172 28.51a.17.17 0 0 0-.063.155.14.14 0 0 0 .122.07.14.14 0 0 0 .085-.11c-.007-.038-.091-.134-.144-.116M17.331 26.231a.2.2 0 0 0-.187.185.197.197 0 0 0 .212.181.163.163 0 0 0 .16-.175.22.22 0 0 0-.185-.19M18.772 25.734a.11.11 0 0 0-.138-.122c-.065 0-.143.032-.165.091-.022.06.093.21.175.2s.122-.087.128-.169M18.806 28.175c.172 0 .272-.084.269-.216-.003-.13-.1-.275-.244-.268-.143.006-.26.203-.253.312.006.11.097.172.228.172M16.672 27.743a.19.19 0 0 0-.197.194.2.2 0 0 0 .197.2.19.19 0 0 0 .18-.206.194.194 0 0 0-.18-.188M20.066 24.25a.175.175 0 0 0-.197.17.185.185 0 0 0 .172.196c.084 0 .21-.134.218-.231.01-.097-.075-.135-.193-.135M17.812 25.153a.21.21 0 0 0-.178-.166c-.078 0-.29.072-.284.166s.2.184.25.172.215-.081.212-.172M16.731 29.322a.06.06 0 0 0 .05.06.06.06 0 0 0 .053-.06c0-.025-.03-.04-.05-.04-.018 0-.053.024-.053.04M20.21 24.906c-.02.034-.032.1 0 .125a.09.09 0 0 0 .103 0c.021-.028.065-.106.028-.14s-.122-.004-.132.015M20.26 25.45a.34.34 0 0 0-.25.294.256.256 0 0 0 .253.216.22.22 0 0 0 .212-.191c-.003-.147-.122-.319-.215-.319M20.066 28.225a.285.285 0 0 0 .262.269.41.41 0 0 0 .313-.312.31.31 0 0 0-.313-.247.31.31 0 0 0-.262.29M21.743 27.866c0-.094-.103-.144-.272-.144a.2.2 0 0 0-.1.022.17.17 0 0 0-.225.056c-.09.125 0 .203.072.287a1 1 0 0 0 .14-.03.19.19 0 0 0 .135.077.31.31 0 0 0 .25-.268M29.125 19.8a.11.11 0 0 0 0-.113.12.12 0 0 0-.119 0 .14.14 0 0 0 0 .147c.013.047.097-.006.119-.034M29.238 22.025c.1-.103.137-.312.068-.375a.31.31 0 0 0-.38.031.256.256 0 0 0 .027.332.216.216 0 0 0 .285.012M29.335 24.147a.31.31 0 0 0 .353 0c.1-.103.081-.215-.056-.356a.17.17 0 0 0-.257-.019.34.34 0 0 0-.04.375M30.056 20.89c.06-.053.044-.146-.044-.23a.174.174 0 0 0-.26-.02.187.187 0 0 0-.015.26.31.31 0 0 0 .319-.01M28.938 23.297a.2.2 0 0 0 0 .262.18.18 0 0 0 .212.069c.113-.034.14-.119.113-.331-.09-.044-.219-.097-.325 0M28.578 23.554c.066-.072.05-.188-.06-.313-.065-.062-.14 0-.209.05a.17.17 0 0 0-.028.253.197.197 0 0 0 .297.01"/><path fill="#42D4C6" d="M28.622 23.172c.112-.084.047-.187 0-.312-.128-.019-.238-.025-.313.103a.137.137 0 0 0 .05.187.18.18 0 0 0 .263.022M26.522 24.028a.29.29 0 0 0 0 .356.203.203 0 0 0 .281-.034.254.254 0 0 0-.05-.329.166.166 0 0 0-.231.007M29.047 22.925a.17.17 0 0 0 .14-.087c.053-.131-.037-.206-.156-.281-.094.068-.219.109-.162.24a.28.28 0 0 0 .178.128M30.681 22.869c-.06 0-.09.05-.128.087-.037.038-.081.079-.081.135a.087.087 0 0 0 .112.078.28.28 0 0 0 .163-.15c.031-.075.003-.16-.066-.15M30.61 22.547a.146.146 0 0 0 .182.019.15.15 0 0 0 .046-.047.21.21 0 0 0 .021-.184c-.03-.069-.228-.069-.271 0a.16.16 0 0 0 .021.212M30.922 23.647a.2.2 0 0 0 .153-.081.16.16 0 0 0 0-.147c-.078-.094-.169-.066-.262 0-.01.1-.02.209.109.228M30.088 20.365a.06.06 0 0 0 0-.065s-.053-.022-.066 0a.06.06 0 0 0 0 .075.06.06 0 0 0 .066-.01M29.98 22.346c.05.044.104.078.17.022.065-.056.053-.237 0-.262s-.116 0-.17.037a.124.124 0 0 0-.038.159q.015.027.039.044M30.613 20.271v-.097c0-.009-.129-.043-.15-.021-.022.021 0 .125.04.137a.15.15 0 0 0 .11-.019M30.363 21.141a.12.12 0 0 0 0-.125c-.029-.034-.091 0-.122.04a.12.12 0 0 0 0 .129c.009.034.103-.003.122-.044M22.163 28.638a.1.1 0 0 0-.047.021.3.3 0 0 0-.053 0 .39.39 0 0 0-.41.391c0 .216.184.34.456.313.272-.029.36-.141.35-.341a.4.4 0 0 0-.047-.166.215.215 0 0 0-.25-.219M22.297 30.922a.37.37 0 0 0-.337-.313c-.1 0-.185.141-.178.278a.23.23 0 0 0 .115.194.3.3 0 0 0 .028.15c.05.072.203.075.229 0a.3.3 0 0 0 0-.144.22.22 0 0 0 .143-.165M22.184 29.66c-.025.015-.047.037-.069.052a.3.3 0 0 0-.1-.09c-.194-.103-.45.037-.49 0a.1.1 0 0 1-.025-.06c.059-.071.08-.156.037-.19a.17.17 0 0 0-.106-.016.2.2 0 0 0-.072-.05.64.64 0 0 0-.65.206.38.38 0 0 0 .11.513c.187.122.428-.047.487-.019.06.028.056.178.103.313a.16.16 0 0 0-.084.14.216.216 0 0 0 .197.182.17.17 0 0 0 .15-.103c.09.015.183.007.268-.026.088-.04.16-.11.203-.196.195-.075.361-.207.479-.378a.147.147 0 0 0-.026-.2.37.37 0 0 0-.412-.079"/><path fill="#42D4C6" d="M20.778 30.29a.185.185 0 0 0 .09.222c.098.044.266-.143.241-.222-.025-.078-.278-.096-.33 0M22.38 30.869c-.055.06 0 .225.05.244a.23.23 0 0 0 .179-.035.13.13 0 0 0 .038-.16.13.13 0 0 0-.038-.046.17.17 0 0 0-.228-.003M19.578 28.225a.19.19 0 0 0-.172-.194.2.2 0 0 0-.187.185.154.154 0 0 0 .156.168.18.18 0 0 0 .203-.159M21.288 28.994c.215 0 .334-.119.312-.312a.33.33 0 0 0-.312-.313.31.31 0 0 0-.34.198.3.3 0 0 0-.02.14c.022.203.14.303.36.287M25.925 23.647h-.469a.3.3 0 0 0 .047.065.24.24 0 0 0 .363 0 .3.3 0 0 0 .059-.066M20.825 27.147c-.087 0-.1.096-.112.18a.17.17 0 0 0 .09.183.2.2 0 0 0 .07.018.196.196 0 0 0 .205-.21c-.003-.097-.093-.168-.253-.172M22.878 31.04a.14.14 0 0 0 .134-.074c.019-.05.025-.247-.06-.285s-.25.128-.227.225a.18.18 0 0 0 .153.135M23.984 24.447c0 .181.072.285.216.285s.313-.11.328-.229c.016-.118-.21-.274-.312-.274a.26.26 0 0 0-.232.218M24.934 23.66h-.293a.14.14 0 0 0 0 .071c.022.047.087.06.153.053 0 .069.153.128.215.144.063.016.12-.056.132-.138a.116.116 0 0 0-.06-.13h-.14700000000000002M25.669 24.191c0 .019 0 .056.05.056a.053.053 0 0 0 .053-.056c0-.025-.031-.04-.047-.04s-.056.024-.056.04M22.572 30.244c-.103 0-.293.156-.297.238a.263.263 0 0 0 .272.243c.122 0 .206-.106.203-.272-.003-.165-.072-.209-.178-.209M23.456 24.13a.2.2 0 0 0-.018.266.23.23 0 0 0 .284.028.184.184 0 0 0 0-.274.18.18 0 0 0-.203-.059.2.2 0 0 0-.063.04M21.228 25.472c.065 0 .128-.016.134-.1.006-.085-.125-.207-.181-.19-.056.015-.075.087-.09.146-.016.06.046.147.137.144M23.307 23.681a.22.22 0 0 0 .265-.028h-.312a.2.2 0 0 0 .047.028M27.219 23.862a.42.42 0 0 0 .44-.015.24.24 0 0 0 .05-.2h-.556a.25.25 0 0 0 .066.215M19.844 27.494c.125 0 .216-.157.206-.357a.23.23 0 0 0-.212-.178.27.27 0 0 0-.082-.184.51.51 0 0 0-.546.018.22.22 0 0 0-.063.122.27.27 0 0 0-.253-.156.244.244 0 0 0-.247.272c0 .125.094.244.19.238a.36.36 0 0 0 .313-.241.42.42 0 0 0 .119.244.37.37 0 0 0 .356.053.31.31 0 0 0 .219.169M23.234 30.725a.38.38 0 0 0 .122.394.26.26 0 0 0 .313.053v-.585a.267.267 0 0 0-.375.026.3.3 0 0 0-.06.112M23.606 26.65a.43.43 0 0 0-.25-.056.36.36 0 0 0-.216-.11.294.294 0 0 0-.275.285.353.353 0 0 0 .313.35.34.34 0 0 0 .19-.054.2.2 0 0 0 .129 0c.043.07.11.122.187.147v-.85c-.137.063-.025.232-.078.288M23.428 31.494c-.034-.075-.05-.19-.212-.231a.33.33 0 0 0-.297.059.225.225 0 0 0-.225-.162.34.34 0 0 0-.338.237.7.7 0 0 0-.312-.05.28.28 0 0 0-.275.313.46.46 0 0 0 .362.346.5.5 0 0 0 .36-.312.34.34 0 0 0 .312.025s.019 0 .028-.016a.37.37 0 0 0 .269.178.7.7 0 0 0 .212 0c0 .029.016.05 0 .057-.259.156-.059.5.197.49.257-.01.154-.103.188-.11v-.837a.31.31 0 0 0-.269.013M24.572 25.053c0-.047-.078-.119-.134-.144s-.16.07-.163.12a.12.12 0 0 0 .04.065.2.2 0 0 0-.043.034.17.17 0 0 0-.013.204q.02.032.05.052a.155.155 0 0 0 .185.027.2.2 0 0 0 .05-.042.194.194 0 0 0 0-.263.2.2 0 0 0 .028-.053M24.05 25.513a.44.44 0 0 0-.106-.163.34.34 0 0 0-.435 0 .25.25 0 0 0-.28-.09.31.31 0 0 0-.166.287q.012.08.065.14a.6.6 0 0 0-.072.235.17.17 0 0 0-.1.066.17.17 0 0 0 .016.234.184.184 0 0 0 .26.019.2.2 0 0 0 .04-.066.34.34 0 0 0 .335-.186.3.3 0 0 0 .024-.11l.05.015v-.19h.656c.047-.073 0-.16-.024-.257a.28.28 0 0 0-.263.066M19.484 31.444a.196.196 0 0 0-.194-.178.19.19 0 0 0-.168.2.175.175 0 0 0 .206.156.156.156 0 0 0 .156-.178M23.425 32.744c-.134.103-.172.172-.128.275a.112.112 0 0 0 0 .172.18.18 0 0 0 .125.056v.028a.2.2 0 0 0 0 .106h.25v-.61l-.016-.015c-.056-.075-.15-.062-.23-.012M22.185 32.616c0-.134-.11-.253-.21-.247a.37.37 0 0 0-.253.15.3.3 0 0 0 0-.047.35.35 0 0 0-.262-.372c.028-.028.087-.13.022-.18-.066-.05-.154.024-.175.055a.13.13 0 0 0 0 .128c-.16.026-.225.11-.244.338-.009.08.009.16.05.228a.43.43 0 0 0-.347 0 1.5 1.5 0 0 0-.206.213.07.07 0 0 0 0-.078c-.053-.06-.125 0-.147 0s0 .046 0 .078a.22.22 0 0 0-.122.112c.028.097.09.184.188.144.096-.04.203 0 .296.081a.35.35 0 0 0 .428 0 .49.49 0 0 0 .063-.45.35.35 0 0 0 .276-.013.4.4 0 0 0 .127-.1.2.2 0 0 0 0 .044c0 .1.138.194.266.185.16-.01.26-.11.25-.269M20.353 31.737c.057.066.136.11.222.125q.09.012.181 0l.04.04c.054.041.157 0 .223-.046.02.024.05.04.081.044a.28.28 0 0 0 .2-.091c.069-.062.044-.147-.019-.213a.17.17 0 0 0-.172-.05.4.4 0 0 0 0-.084c0-.162.157-.287.097-.431a.44.44 0 0 0-.337-.263.56.56 0 0 0-.607.279c-.065.115.02.221 0 .353a.4.4 0 0 0 .091.337"/><path fill="#42D4C6" d="M22.678 32.322a.31.31 0 0 0 .022.4.31.31 0 0 0 .394-.05.23.23 0 0 0-.038-.312.31.31 0 0 0-.378-.038M20.444 30.415a.38.38 0 0 0-.094-.334 1.4 1.4 0 0 0-.178-.094l-.212.14-.113-.158c.075-.088.163-.175.063-.291a.175.175 0 0 0-.222-.04c-.135.071-.063.177-.047.28-.16.05-.284.126-.269.313v.05a.36.36 0 0 0-.212.175.34.34 0 0 0 .14.45.334.334 0 0 0 .378-.206 1 1 0 0 0 0-.088q.005.031.025.057c.079.078.191 0 .229-.029a.11.11 0 0 0 .03-.133.1.1 0 0 0-.03-.038l.034-.029.134.05a.27.27 0 0 0 .344-.075M22.39 33.269a.5.5 0 0 1-.053-.094.24.24 0 0 0-.146.062.17.17 0 0 0-.082.125.03.03 0 0 0 0 .016h.356a1 1 0 0 0-.05-.125zM22.463 32.044a.18.18 0 0 0-.179.1.2.2 0 0 0-.018.069.18.18 0 0 0 .165.175.23.23 0 0 0 .216-.191.17.17 0 0 0-.184-.153M22.437 33.031c0-.028.016-.05 0-.066-.016-.015-.05 0-.072.016s0 .05 0 .053.044 0 .072-.003M24.853 24.34c.025-.115-.046-.172-.159-.194-.072.047-.16.104-.112.2a.22.22 0 0 0 .168.091c.047.006.097-.056.103-.097M28.775 23.807c-.015 0-.097.03-.084.09s.094.06.131.06.06-.066.05-.082a.16.16 0 0 0-.097-.068M31.09 24.706c-.137-.056-.174.191-.271.144a.2.2 0 0 0-.144 0 .47.47 0 0 0-.044-.444.24.24 0 0 0-.169-.068.1.1 0 0 0 .02-.044.17.17 0 0 0-.082-.156v-.016a.266.266 0 0 0-.053-.347.4.4 0 0 1-.09-.134.175.175 0 0 0-.223-.097.17.17 0 0 0-.123.146.2.2 0 0 0 .008.066q.041.121.096.238a.2.2 0 0 0-.071.047.27.27 0 0 0-.085.312.274.274 0 0 0 .313.12.312.312 0 0 0 .312.512.31.31 0 0 0 .035.371c.178.163.359-.018.443-.134a.18.18 0 0 0 .091-.066c.044 0 .087.057.156.06v-.51a.25.25 0 0 1-.119 0M29.513 25.153a.175.175 0 0 0-.176-.163.22.22 0 0 0-.168.21.194.194 0 0 0 .181.159.2.2 0 0 0 .162-.206"/><path fill="#42D4C6" d="M29.484 24.931c.107.028.147-.084.185-.162a.39.39 0 0 0-.103-.378.29.29 0 0 0-.313.09.31.31 0 0 1-.265.213c-.1 0-.132.168-.075.265a.147.147 0 0 0 .225.063.45.45 0 0 1 .346-.09M29.978 25.244a.6.6 0 0 0-.178.11.15.15 0 0 0-.038.084l-.037-.02a.188.188 0 0 0-.272.15 1 1 0 0 1-.025.166h.465a.2.2 0 0 0 0-.087.2.2 0 0 0 .178-.075q.046-.074.082-.153l-.197-.185zM30.853 24.163a.34.34 0 0 0 .356.25v-.576a.14.14 0 0 0-.062 0c-.162.057-.328.197-.294.326M31.225 21.834v-.115a.14.14 0 0 0 0 .115M31.225 23.087v-.253a.29.29 0 0 0 0 .253M28.34 24.094a.26.26 0 0 0-.034.313.31.31 0 0 0 .36 0c.062-.07.027-.175-.091-.294a.16.16 0 0 0-.113-.063.16.16 0 0 0-.122.044M27.27 25.51c0-.047.171-.179.112-.344a.64.64 0 0 0-.61-.313.38.38 0 0 0-.281.44c.014.06.047.115.094.154a.3.3 0 0 0-.06.175.2.2 0 0 0 .032.097h.993c-.106-.116-.271-.163-.28-.21M25.603 25.006q.025.068.06.132c.068.13.193.206.287.175a.38.38 0 0 0 .166-.313 1 1 0 0 0-.06-.19l-.247-.05.028-.191c.116 0 .241 0 .25-.166a.17.17 0 0 0-.128-.181c-.146-.047-.171.081-.23.166-.15-.079-.291-.113-.416.037l-.032.038h-.015a.187.187 0 0 0-.203-.154.17.17 0 0 0-.17.17v.021a.36.36 0 0 0-.105.363.33.33 0 0 0 .412.115 1 1 0 0 0 .069-.053.6.6 0 0 0 .334.081M26 25.703c-.156-.268-.234-.312-.372-.244a.35.35 0 0 0-.134.17 1 1 0 0 0-.122.018.2.2 0 0 0-.106.075H26.3c-.084-.131-.19-.066-.3-.019"/><path fill="#42D4C6" d="M26.52 24.743a.263.263 0 0 0-.26-.237.21.21 0 0 0-.182.222.31.31 0 0 0 .297.234.177.177 0 0 0 .144-.219M28.406 24.725c-.065.018-.215.081-.218.15s.156.128.218.143c.063.016.128-.053.138-.134s-.069-.181-.138-.16M27.65 25.722h.157a.1.1 0 0 0-.094-.025.2.2 0 0 0-.063.025M27.775 25.182c-.143.159-.106.365.091.54h.503a.375.375 0 0 0-.028-.528.39.39 0 0 0-.566-.012M27.465 21.947a.25.25 0 0 0-.05-.313.243.243 0 0 0-.365.019.22.22 0 0 0-.032.312.36.36 0 0 0 .447-.018M27.838 20.834c.081.066.15.025.212-.028a.11.11 0 0 0 .05-.092.11.11 0 0 0-.05-.093c-.053-.037-.125-.078-.18-.053a.22.22 0 0 0-.032.266M27.775 19.716a.2.2 0 0 0 0-.241c-.056-.053-.256-.153-.313-.085-.056.07 0 .272.06.313s.194.081.253.012M28.063 21.318a.17.17 0 0 0-.238 0 .216.216 0 0 0 0 .285.2.2 0 0 0 .262 0 .18.18 0 0 0-.024-.285M26.047 22.256c-.047-.022-.179-.053-.213 0zM26.672 20.412a.215.215 0 0 0 0-.265.2.2 0 0 0-.262 0 .203.203 0 0 0 .079.316.17.17 0 0 0 .183-.05M27.99 24.903a.335.335 0 0 0-.49-.453.288.288 0 0 0 .044.447.285.285 0 0 0 .447.006M26.672 21.413a.175.175 0 0 0-.097-.289.175.175 0 0 0-.187.089.14.14 0 0 0 .028.228.18.18 0 0 0 .202.018.2.2 0 0 0 .054-.046M19.943 32.372a.41.41 0 0 0 .069-.36.353.353 0 0 0-.478-.134.28.28 0 0 0-.163.15.345.345 0 0 0-.541-.076.34.34 0 0 0-.1.214.244.244 0 0 0-.262.131.31.31 0 0 0 .085.313.244.244 0 0 0 .343-.026.16.16 0 0 0 .022-.128q.076.025.157.02a.31.31 0 0 0 .312-.173v.019a.33.33 0 0 0 .313.175.188.188 0 0 0 .197.206.2.2 0 0 0 .187-.181.17.17 0 0 0-.14-.15M20.56 24.266c-.044 0-.057.075-.06.112s.037.097.081.1.078-.097.072-.131a.12.12 0 0 0-.094-.081M20.207 29.35a.2.2 0 0 0 .168-.184.335.335 0 0 0 .16-.587.31.31 0 0 0-.419 0 .36.36 0 0 0-.04.359.154.154 0 0 0-.126.16.29.29 0 0 0 .257.252M27.153 24.44a.294.294 0 0 0 .312-.274.246.246 0 0 0-.272-.272c-.18 0-.293.084-.312.244a.31.31 0 0 0 .272.303M24.84 22.256h.182a.26.26 0 0 0-.181 0M26.728 22.256v-.019a.38.38 0 0 0-.353.02zM26.616 21.893c0-.037-.026-.125-.079-.121-.053.003-.078.084-.072.106s.047.094.082.09c.034-.003.072-.053.069-.075M25.128 21.019a.19.19 0 0 0-.279-.26.203.203 0 0 0 0 .282.19.19 0 0 0 .22.029.2.2 0 0 0 .059-.051M18.037 31.159a.18.18 0 0 0-.193.169.193.193 0 0 0 .168.2.22.22 0 0 0 .222-.178.19.19 0 0 0-.12-.18.2.2 0 0 0-.077-.011M16.825 29.906a.36.36 0 0 0-.312.313c0 .119.112.216.268.216a.24.24 0 0 0 .25-.151.24.24 0 0 0 .016-.103c0-.134-.113-.28-.222-.275M18.234 29.172c-.153-.156-.293 0-.418-.266-.141-.096-.27.041-.313.12a.37.37 0 0 0 .122.409q.172.09.363.137a.246.246 0 0 0 .234-.4zM17.756 32.413a.265.265 0 0 0-.312.062.5.5 0 0 1-.184.078.2.2 0 0 0-.147.293.15.15 0 0 0 .19.06c.103.016.21.022.313.044s.184-.072.228-.165a.36.36 0 0 0-.088-.372M18.594 29.984c-.029-.075-.26-.072-.297.022a.17.17 0 0 0 .1.194c.094.044.225-.14.197-.216M19.759 33.006a.37.37 0 0 0-.331.313.13.13 0 0 0 .034.09h.475a.3.3 0 0 0 .034-.156.21.21 0 0 0-.212-.247M18.96 32.822a.165.165 0 0 0-.163.197.17.17 0 0 0 .178.156.18.18 0 0 0 .178-.102.2.2 0 0 0 .019-.07.197.197 0 0 0-.213-.181M16.084 30.85c0-.09-.112-.128-.18-.166-.07-.037-.204.044-.198.113.007.069.169.137.24.156.073.019.148-.012.138-.103M21.985 22.256h.034c.04 0 .122-.075.119-.119s-.135-.103-.175-.09-.11.087-.103.128c.006.04.078.069.125.081M22.44 22.256c-.05-.021-.106-.03-.128 0zM23.804 20.943a.15.15 0 0 0 .14-.03.165.165 0 0 0-.037-.248c-.063-.015-.207.025-.21.147 0 .056.06.106.107.131M16.144 31.875c0-.038-.053-.069-.072-.063s-.125.04-.119.088.097.078.122.072a.13.13 0 0 0 .069-.097M16.388 32.838c-.197-.026-.235.143-.21.253.025.109.06.096-.022.168a.23.23 0 0 0-.062.135h.515a.26.26 0 0 0 .07-.157.37.37 0 0 0-.291-.4M15.847 28.815a.15.15 0 0 0 .078-.122.162.162 0 0 0-.2-.146.17.17 0 0 0-.077.185.2.2 0 0 0 .03.065.18.18 0 0 0 .169.018M24.15 21.997a.05.05 0 0 0 0-.062s-.056-.022-.065 0a.056.056 0 0 0 0 .075.06.06 0 0 0 .065-.013"/><path fill="#00BFB3" d="M23.675 33.394v-7.672h7.55z"/><path fill="#20377D" d="M28.084 14.497H21.5v1.39h6.584zM28.084 10.62H21.5v1.39h6.584zM28.084 18.375H12.778v1.39h15.306zM28.084 22.256H12.778v1.39h15.306zM19.381 8.521h-6.603v7.926h6.603z"/></g><defs><clipPath id="a"><path fill="#fff" d="M1.75 1.25h37.5v37.5H1.75z"/></clipPath></defs></svg>