<svg width="1624" height="477" viewBox="0 0 1624 477" fill="none" xmlns="http://www.w3.org/2000/svg">
<g clip-path="url(#clip0_2978_38656)">
<rect width="1624" height="477" rx="6" fill="#F6F9FC"/>
<g clip-path="url(#clip1_2978_38656)">
<mask id="mask0_2978_38656" style="mask-type:alpha" maskUnits="userSpaceOnUse" x="1458" y="385" width="166" height="130">
<rect x="1458.8" y="385" width="165.203" height="130" fill="#C4C4C4"/>
</mask>
<g mask="url(#mask0_2978_38656)">
<path d="M1486.13 464.8C1486.23 464.6 1486.33 464.5 1486.33 464.3C1486.33 464.2 1486.33 464.1 1486.23 464.1C1486.13 464 1485.83 463.7 1485.63 463.9C1485.53 464 1485.43 464.4 1485.53 464.5C1485.73 464.6 1486.03 464.8 1486.13 464.8Z" fill="#E6EBF2"/>
<path d="M1484.83 460.4C1484.93 460.5 1485.23 460.6 1485.33 460.5C1485.43 460.4 1485.63 460 1485.53 459.9C1485.43 459.8 1485.03 459.9 1484.83 459.9C1484.83 460 1484.73 460.3 1484.83 460.4Z" fill="#E6EBF2"/>
<path d="M1484.43 454.2C1484.63 454.1 1484.83 454 1484.83 453.8C1484.83 453.7 1484.63 453.2 1484.43 453.3C1484.33 453.3 1484.13 453.7 1484.03 453.9C1484.03 454 1484.33 454.3 1484.43 454.2Z" fill="#E6EBF2"/>
<path d="M1483.03 470.8C1483.23 470.5 1483.43 470.1 1483.63 469.7C1483.33 469.7 1483.13 469.7 1483.03 469.9C1482.83 470.2 1482.93 470.5 1483.03 470.8Z" fill="#E6EBF2"/>
<path d="M1488.33 454.1C1488.73 454 1489.34 453.4 1489.34 453C1489.34 452.6 1488.83 452.2 1488.33 452.3C1487.83 452.4 1487.53 452.7 1487.63 453.3C1487.63 453.8 1487.93 454.2 1488.33 454.1Z" fill="#E6EBF2"/>
<path d="M1486.33 452.6C1486.43 452.6 1486.63 452.5 1486.53 452.3C1486.43 452.1 1486.33 452.1 1486.23 452.1C1486.13 452.1 1486.03 452.3 1486.03 452.4C1486.13 452.5 1486.23 452.7 1486.33 452.6Z" fill="#E6EBF2"/>
<path d="M1487.13 447.5C1487.33 447.5 1487.73 447.4 1487.73 447.1C1487.73 446.8 1487.33 446.7 1487.23 446.7C1487.13 446.7 1486.83 446.9 1486.83 447.1C1486.83 447.2 1487.03 447.5 1487.13 447.5Z" fill="#E6EBF2"/>
<path d="M1482.23 460.1C1482.63 460.1 1483.03 459.7 1483.03 459.3C1483.03 458.8 1482.63 458.5 1482.13 458.5C1481.63 458.5 1481.33 458.8 1481.33 459.3C1481.33 459.8 1481.73 460.1 1482.23 460.1Z" fill="#E6EBF2"/>
<path d="M1474.22 476.6C1474.72 476.2 1474.72 475.6 1474.12 474.9C1473.82 474.5 1473.01 474.5 1472.71 474.8C1472.31 475.2 1472.11 476.4 1472.41 476.8C1472.71 477.2 1473.62 477.1 1474.22 476.6Z" fill="#E6EBF2"/>
<path d="M1480.62 473.7C1480.93 473.5 1481.03 473.3 1481.13 473C1481.33 472.9 1481.33 472.7 1481.33 472.5C1481.33 472.4 1481.23 472.2 1481.13 472C1481.03 471.9 1481.03 471.8 1480.93 471.7C1480.42 471 1479.22 470.9 1478.62 471.4C1478.02 471.9 1477.92 473 1478.42 473.7C1478.72 474.4 1479.72 474.4 1480.62 473.7Z" fill="#E6EBF2"/>
<path d="M1474.52 461.2C1474.72 461 1474.92 460.6 1474.82 460.5C1474.72 460.3 1474.22 460.3 1474.02 460.4C1473.82 460.5 1473.52 461.1 1473.72 461.3C1473.82 461.3 1474.42 461.3 1474.52 461.2Z" fill="#E6EBF2"/>
<path d="M1480.22 467.4C1480.42 467.7 1481.02 467.8 1481.32 467.6C1481.53 467.4 1481.53 466.9 1481.22 466.5C1481.02 466.2 1480.72 466.2 1480.42 466.4C1480.22 466.6 1480.02 467 1480.22 467.4Z" fill="#E6EBF2"/>
<path d="M1477.22 469.9C1477.32 469.8 1477.62 469.6 1477.42 469.3C1477.22 469 1476.92 469.3 1476.72 469.3C1476.62 469.3 1476.62 469.7 1476.62 469.7C1476.82 469.9 1477.12 470 1477.22 469.9Z" fill="#E6EBF2"/>
<path d="M1479.92 462.2C1480.32 461.9 1480.32 461.4 1480.02 461C1479.72 460.6 1479.32 460.5 1478.92 460.8C1478.52 461.1 1478.42 461.6 1478.72 462C1479.02 462.3 1479.62 462.4 1479.92 462.2Z" fill="#E6EBF2"/>
<path d="M1478.52 463.7C1478.72 463.7 1479.02 463.2 1479.02 463C1479.02 462.8 1478.72 462.4 1478.52 462.4C1478.32 462.4 1478.02 462.7 1477.92 462.9C1478.02 463.1 1478.32 463.7 1478.52 463.7Z" fill="#E6EBF2"/>
<path d="M1490.94 442.4C1491.34 442.4 1491.64 441.7 1491.64 441.4C1491.64 441.2 1491.14 440.3 1490.74 440.3C1490.34 440.3 1490.04 441.3 1490.04 441.7C1490.14 441.9 1490.44 442.4 1490.94 442.4Z" fill="#E6EBF2"/>
<path d="M1487.43 462C1487.63 462 1487.73 461.9 1487.93 461.8C1488.03 461.6 1488.13 461.4 1488.23 461.3C1488.23 461.1 1487.93 460.9 1487.63 460.8C1487.63 460.7 1487.43 460.8 1487.33 460.8H1487.23C1486.83 460.8 1486.63 461 1486.73 461.4C1486.73 461.7 1486.93 462 1487.43 462Z" fill="#E6EBF2"/>
<path d="M1496.54 447.4C1496.14 447.4 1495.84 447.8 1495.84 448.2C1495.84 448.7 1496.14 449 1496.54 449.1C1496.84 448.7 1497.14 448.3 1497.44 447.9C1497.24 447.6 1496.84 447.4 1496.54 447.4Z" fill="#E6EBF2"/>
<path d="M1493.34 453.4C1493.54 453.2 1493.64 452.9 1493.84 452.7C1493.54 453 1493.34 453.2 1493.34 453.4Z" fill="#E6EBF2"/>
<path d="M1487.13 463.2C1487.33 462.9 1487.43 462.7 1487.63 462.4C1487.63 462.4 1487.63 462.4 1487.53 462.4C1487.23 462.7 1487.03 462.9 1487.13 463.2Z" fill="#E6EBF2"/>
<path d="M1488.33 455.2C1488.13 455.2 1487.83 455.3 1487.83 455.5C1487.83 455.7 1488.13 455.9 1488.23 455.9C1488.43 455.9 1488.83 455.7 1488.83 455.5C1488.83 455.4 1488.43 455.2 1488.33 455.2Z" fill="#E6EBF2"/>
<path d="M1479.22 477.8C1479.22 478.1 1479.32 478.4 1479.52 478.7C1479.82 478.1 1480.02 477.4 1480.32 476.8C1479.82 477 1479.32 477.4 1479.22 477.8Z" fill="#E6EBF2"/>
<path d="M1503.55 436.8C1504.15 436.8 1504.45 436.4 1504.45 435.9C1504.45 435.4 1503.95 435 1503.45 435.1C1502.95 435.1 1502.55 435.5 1502.65 436.1C1502.65 436.5 1503.05 436.9 1503.55 436.8Z" fill="#E6EBF2"/>
<path d="M1493.94 446.7C1494.34 446.6 1494.64 446.5 1494.64 446C1494.64 445.6 1493.84 445.1 1493.64 445.3C1493.34 445.4 1493.34 445.8 1493.24 446.1C1493.34 446.4 1493.54 446.7 1493.94 446.7Z" fill="#E6EBF2"/>
<path d="M1496.74 440.5C1497.14 440.5 1497.54 440.1 1497.54 439.7C1497.54 439.2 1497.04 438.7 1496.64 438.8C1496.24 438.8 1495.84 439.3 1495.84 439.7C1495.84 440.2 1496.24 440.6 1496.74 440.5Z" fill="#E6EBF2"/>
<path d="M1506.66 432.3C1506.86 432.3 1507.16 432.1 1507.16 431.9C1507.26 431.7 1507.16 431.3 1506.96 431.1C1506.56 430.7 1505.96 431.1 1505.86 431.4C1505.76 431.7 1506.16 432.3 1506.66 432.3Z" fill="#E6EBF2"/>
<path d="M1500.25 443.6C1500.75 443.6 1501.15 443.2 1501.15 442.8C1501.15 442.3 1500.95 442 1500.45 442C1499.95 442 1499.55 442.3 1499.55 442.8C1499.55 443.2 1499.85 443.6 1500.25 443.6Z" fill="#E6EBF2"/>
<path d="M1468.11 468.5C1468.31 468.3 1468.61 467.7 1468.51 467.5C1468.31 467.3 1467.71 467.4 1467.41 467.5C1467.01 467.6 1467.01 468.1 1467.31 468.5C1467.51 468.8 1467.91 468.7 1468.11 468.5Z" fill="#E6EBF2"/>
<path d="M1468.01 476.1C1468.31 476.4 1468.61 476.5 1468.91 476.2C1469.11 476 1469.41 475.3 1469.21 475C1469.01 474.7 1468.21 475.1 1468.01 475.2C1467.71 475.4 1467.61 475.8 1468.01 476.1Z" fill="#E6EBF2"/>
<path d="M1464.1 474.5C1464.3 474.4 1464.2 473.9 1464.1 473.8C1464 473.7 1463.7 473.6 1463.5 473.7C1463.3 473.8 1463.4 474.1 1463.4 474.3C1463.5 474.4 1464 474.7 1464.1 474.5Z" fill="#E6EBF2"/>
<path d="M1593.66 625.9C1649.85 625.9 1695.39 580.412 1695.39 524.3C1695.39 468.188 1649.85 422.7 1593.66 422.7C1537.48 422.7 1491.94 468.188 1491.94 524.3C1491.94 580.412 1537.48 625.9 1593.66 625.9Z" fill="#7DE2D1"/>
<path d="M1520.77 474C1520.67 474.1 1520.67 474.5 1520.77 474.7C1520.87 474.8 1521.27 474.9 1521.48 474.8C1521.58 474.7 1521.78 474.3 1521.68 474.1C1521.48 473.7 1520.87 473.9 1520.77 474Z" fill="#42D4C6"/>
<path d="M1522.28 477C1522.38 476.9 1522.38 476.6 1522.28 476.5C1522.08 476.4 1521.88 476.3 1521.67 476.4C1521.57 476.5 1521.27 476.8 1521.47 477C1521.77 477.4 1522.08 477 1522.28 477Z" fill="#42D4C6"/>
<path d="M1526.38 451.8C1525.48 452 1525.08 453 1525.18 453.8C1525.28 454.6 1526.68 455.5 1527.58 455.1C1528.28 454.8 1527.98 454 1527.58 453.7C1527.18 453.4 1527.38 453.4 1527.38 452.9C1527.58 452.4 1527.28 451.6 1526.38 451.8Z" fill="#42D4C6"/>
<path d="M1510.46 465.8C1510.16 466.2 1509.96 466.6 1509.66 466.9C1509.96 466.9 1510.26 466.7 1510.36 466.5C1510.56 466.4 1510.56 466.1 1510.46 465.8Z" fill="#42D4C6"/>
<path d="M1515.57 463C1516.07 463 1516.47 462.4 1516.47 461.7C1516.47 461.1 1516.07 460.7 1515.57 460.8C1515.07 460.8 1514.27 461.6 1514.27 462C1514.27 462.6 1514.77 463 1515.57 463Z" fill="#42D4C6"/>
<path d="M1516.47 470.2C1515.67 470.3 1514.97 470.9 1514.97 471.6C1514.97 471.6 1514.97 471.6 1514.87 471.5C1514.67 471.3 1514.17 471.3 1513.97 471.4C1513.77 471.6 1513.77 472 1513.77 472.2C1514.17 472.7 1514.57 472.5 1514.77 472.3C1514.87 472.2 1514.87 472.1 1514.97 472C1515.17 472.6 1515.57 473.1 1516.17 473C1517.07 472.9 1517.97 472 1517.87 471.2C1517.87 470.7 1517.17 470.2 1516.47 470.2Z" fill="#42D4C6"/>
<path d="M1515.87 464.7C1515.67 464.7 1515.27 464.8 1515.07 465C1514.67 465.4 1514.87 465.7 1515.47 466.5C1515.97 466.4 1516.57 466.4 1516.57 465.7C1516.57 465.1 1516.27 464.8 1515.87 464.7Z" fill="#42D4C6"/>
<path d="M1518.37 476.9C1518.17 477.2 1518.17 477.5 1518.47 477.6C1518.67 477.8 1519.07 477.6 1519.17 477.5C1519.27 477.4 1519.47 477.1 1519.17 476.9C1518.87 476.6 1518.57 476.6 1518.37 476.9Z" fill="#42D4C6"/>
<path d="M1510.66 466C1511.16 466 1511.76 466.2 1512.06 465.7C1512.16 465.6 1512.16 465.5 1512.16 465.4C1512.46 465.2 1512.66 464.9 1512.66 464.6C1512.66 464.2 1512.36 463.9 1511.96 463.9C1511.46 464.5 1511.06 465.2 1510.56 465.8C1510.56 465.8 1510.56 465.9 1510.66 466Z" fill="#42D4C6"/>
<path d="M1523.18 467.8C1523.28 468.6 1524.18 469.4 1524.88 469.3C1525.78 469.2 1526.58 468.4 1526.48 467.7C1526.38 467 1525.28 466 1524.58 466C1523.78 466 1523.18 466.9 1523.18 467.8Z" fill="#42D4C6"/>
<path d="M1528.08 457.4C1527.88 457.4 1527.78 457.8 1527.78 458C1527.78 458.1 1527.98 458.3 1528.18 458.3C1528.38 458.3 1528.48 458 1528.48 457.8C1528.48 457.8 1528.28 457.4 1528.08 457.4Z" fill="#42D4C6"/>
<path d="M1521.07 457.1C1520.47 457.2 1520.27 457.6 1520.27 458.1C1520.37 458.5 1520.67 458.5 1520.97 458.5C1521.37 458.5 1521.68 458.1 1521.58 457.8C1521.47 457.4 1521.17 457.2 1521.07 457.1Z" fill="#42D4C6"/>
<path d="M1527.48 447.7C1527.58 447.7 1527.98 447.5 1527.98 447.3C1527.98 447.2 1527.78 447.1 1527.58 447C1527.38 447.1 1527.28 447.3 1527.08 447.4C1527.18 447.5 1527.38 447.7 1527.48 447.7Z" fill="#42D4C6"/>
<path d="M1517.07 458C1517.47 458 1517.77 457.6 1517.67 457.3C1517.67 457.2 1517.57 457.1 1517.47 457C1517.17 457.3 1516.87 457.6 1516.57 458C1516.77 458 1516.87 458.1 1517.07 458Z" fill="#42D4C6"/>
<path d="M1521.38 452.7C1521.58 452.6 1521.88 452.6 1522.08 452.5C1522.68 452.6 1522.98 452.3 1522.98 451.8C1522.98 451.6 1522.88 451.4 1522.78 451.2C1522.38 451.8 1521.88 452.3 1521.38 452.7Z" fill="#42D4C6"/>
<path d="M1521.87 460.7C1521.67 460.7 1521.47 461 1521.47 461.1C1521.47 461.2 1521.67 461.7 1521.87 461.7C1522.07 461.7 1522.27 461.3 1522.27 461.1C1522.27 460.9 1522.17 460.6 1521.87 460.7Z" fill="#42D4C6"/>
<path d="M1506.86 474.5C1506.56 474.3 1506.06 473.8 1505.66 474.2C1505.26 474.6 1505.66 475.1 1505.86 475.4C1506.06 475.7 1506.46 475.7 1506.86 475.4C1507.16 475.2 1507.26 474.8 1506.86 474.5Z" fill="#42D4C6"/>
<path d="M1509.36 474.7C1509.06 474.9 1509.06 476.1 1509.56 476.2C1509.96 476.3 1510.46 476 1510.56 475.7C1510.56 475.2 1509.66 474.5 1509.36 474.7Z" fill="#42D4C6"/>
<path d="M1507.16 473.1C1507.06 473.3 1507.16 473.6 1507.26 473.7C1507.46 473.8 1507.76 473.6 1507.86 473.5C1507.96 473.4 1507.96 473 1507.76 472.8C1507.56 472.6 1507.16 473 1507.16 473.1Z" fill="#42D4C6"/>
<path d="M1515.47 475.1C1515.37 475.3 1515.47 475.6 1515.57 475.7C1515.67 475.8 1515.97 476 1516.17 475.9C1516.27 475.7 1516.27 475.4 1516.17 475.3C1516.07 475.1 1515.67 474.9 1515.47 475.1Z" fill="#42D4C6"/>
<path d="M1507.56 471.1C1507.56 470.9 1507.56 470.6 1507.46 470.4C1507.06 471 1506.66 471.6 1506.26 472.3C1506.96 472.3 1507.56 471.8 1507.56 471.1Z" fill="#42D4C6"/>
<path d="M1511.46 471.2C1511.26 470.8 1510.66 470.1 1510.46 470.1C1510.06 470.1 1509.86 470.9 1510.16 471.5C1510.26 471.7 1510.46 471.8 1510.66 471.8C1510.26 472.1 1509.86 472.4 1509.46 472.7C1508.66 471.7 1508.46 471.7 1507.86 472.6C1508.06 473.2 1508.46 473.4 1509.16 473.2C1509.96 474.6 1510.86 474.5 1511.76 473.1C1511.86 473.1 1511.96 473.1 1512.06 473.1C1512.56 473.2 1512.76 473 1512.96 472.6C1513.16 472.3 1513.06 472 1512.86 471.7C1512.36 471.1 1511.96 471 1511.46 471.2Z" fill="#42D4C6"/>
<path d="M1551.71 457.6C1566.26 457.6 1578.04 445.825 1578.04 431.3C1578.04 416.775 1566.26 405 1551.71 405C1537.17 405 1525.38 416.775 1525.38 431.3C1525.38 445.825 1537.17 457.6 1551.71 457.6Z" fill="#1BA9F5"/>
<path d="M1529.08 436C1528.88 436 1528.58 436 1528.48 436.1C1527.88 436.5 1527.58 437.1 1527.78 437.7C1527.88 438 1528.18 438.3 1528.48 438.3C1529.38 438.6 1529.99 438.3 1530.59 437.3C1530.49 437.1 1530.29 436.8 1530.19 436.6L1530.29 436.5C1530.39 436.3 1530.39 435.6 1529.89 435.5C1529.38 435.4 1529.18 435.8 1529.08 436Z" fill="#0D90E0"/>
<path d="M1528.78 444.1C1528.88 444.4 1529.08 444.6 1529.28 444.9C1529.28 444.8 1529.28 444.7 1529.28 444.7C1529.18 444.4 1528.98 444.2 1528.78 444.1Z" fill="#0D90E0"/>
<path d="M1529.89 432.6C1530.09 432.6 1530.19 432.2 1530.09 432C1530.09 431.8 1529.79 431.6 1529.59 431.7C1529.39 431.8 1529.29 432 1529.29 432.2C1529.39 432.4 1529.69 432.6 1529.89 432.6Z" fill="#0D90E0"/>
<path d="M1567.03 443.3C1567.13 443.2 1567.23 442.9 1567.03 442.8C1566.83 442.7 1566.63 442.7 1566.43 442.8C1566.33 442.8 1566.13 443.2 1566.33 443.4C1566.53 443.6 1566.83 443.4 1567.03 443.3Z" fill="#0D90E0"/>
<path d="M1567.13 451.9C1566.73 451.6 1566.33 451.3 1566.03 450.9C1565.73 450.4 1565.33 450.3 1564.93 450.6C1564.83 450.7 1564.83 450.7 1564.73 450.8C1564.23 450.8 1563.73 451 1563.63 451.3C1563.43 451.8 1563.73 452.6 1564.13 452.8C1564.43 452.9 1564.73 452.8 1564.93 452.6C1564.93 452.7 1564.93 452.7 1564.93 452.8C1564.93 453.2 1565.03 453.5 1565.23 453.7C1565.93 453.2 1566.73 452.8 1567.43 452.2C1567.43 452.2 1567.33 452 1567.13 451.9Z" fill="#0D90E0"/>
<path d="M1561.72 440.3C1561.92 440.4 1562.12 440.2 1562.22 440C1562.32 439.9 1562.32 439.4 1562.12 439.3C1561.92 439.2 1561.62 439.5 1561.52 439.7C1561.52 439.9 1561.52 440.3 1561.72 440.3Z" fill="#0D90E0"/>
<path d="M1565.23 447.8C1565.83 447.2 1565.63 445.6 1564.83 445.1C1564.23 444.7 1563.63 445.4 1563.63 446C1563.63 446.5 1563.53 446.3 1563.13 446.6C1562.63 446.9 1562.22 447.5 1562.93 448.1C1563.63 448.6 1564.63 448.3 1565.23 447.8Z" fill="#0D90E0"/>
<path d="M1561.42 454.9C1561.62 455.2 1562.22 455.4 1562.43 455.1C1562.63 454.9 1563.03 454.2 1562.73 453.9C1562.43 453.6 1561.92 453.9 1561.62 454C1561.32 454.2 1561.12 454.5 1561.42 454.9Z" fill="#0D90E0"/>
<path d="M1537.9 444.1C1537.8 443.8 1537.6 443.6 1537.3 443.5C1537.19 443.4 1537.09 443.3 1536.89 443.3C1536.59 443.3 1536.39 443.5 1536.19 443.5C1535.99 443.9 1536.09 444.3 1536.19 444.4C1536.19 444.5 1536.29 444.6 1536.39 444.8C1536.69 445.2 1537.19 445.2 1537.5 444.9C1537.7 444.7 1538 444.3 1537.9 444.1Z" fill="#0D90E0"/>
<path d="M1529.59 441.5C1529.79 440.8 1529.18 439.6 1528.48 439.4C1527.78 439.2 1527.18 439.5 1526.88 439.9C1527.18 440.8 1527.48 441.6 1527.88 442.4C1528.78 442.5 1529.38 442.1 1529.59 441.5Z" fill="#0D90E0"/>
<path d="M1540.6 433.3C1540.4 433.3 1540.1 433.4 1540.1 433.6C1540.1 433.7 1540 434.1 1540.4 434.2C1540.8 434.3 1540.9 433.9 1540.9 433.8C1540.9 433.7 1540.7 433.4 1540.6 433.3Z" fill="#0D90E0"/>
<path d="M1540.4 439.4C1540.6 439.7 1541.1 439.7 1541.4 439.5C1541.7 439.2 1541.7 438.9 1541.1 438.3C1540.3 438.2 1540.1 439.1 1540.4 439.4Z" fill="#0D90E0"/>
<path d="M1536.39 446C1536.29 446.4 1536.49 446.8 1536.89 447C1537.29 447.1 1537.7 446.9 1537.7 446.5C1537.7 446.2 1537.6 445.8 1537.39 445.7C1537.19 445.6 1536.59 445.7 1536.39 446Z" fill="#0D90E0"/>
<path d="M1542.6 452.3C1543 452.4 1543.5 452.1 1543.8 451.7C1543.9 451.6 1543.9 451.6 1544 451.5C1544.4 450.8 1544 450.2 1544.2 450.1C1544.3 450 1545.1 449.6 1544.9 449C1544.3 447.8 1543.3 448.6 1543 448.3C1542.7 448 1542.6 447.1 1542.2 446.6C1541.9 446.2 1541.5 446 1541.1 445.9C1540.9 445.4 1540.4 445 1539.9 444.9C1539.4 444.8 1538.9 445.2 1538.7 445.9C1538.6 446.6 1539 447.5 1539.5 447.6C1539.5 447.9 1539.7 448.2 1539.9 448.5C1540.7 449.4 1541.5 448.4 1541.8 449.2C1542 449.8 1541.5 449.9 1541.6 450.5C1541.5 450.6 1541.5 450.6 1541.5 450.7C1541.4 451.4 1542 452.2 1542.6 452.3Z" fill="#0D90E0"/>
<path d="M1535.39 448.4C1534.79 448.4 1534.69 449 1534.49 449.5C1534.89 449.9 1535.29 450.3 1535.89 449.9L1535.99 449.8C1536.29 450.2 1536.79 450.6 1537.29 450.7C1537.8 450.7 1538.1 450.4 1538.2 449.9C1538.3 449.1 1537.9 448.5 1537.29 448.5C1536.79 448.5 1536.39 448.6 1536.19 448.9C1535.99 448.5 1535.69 448.4 1535.39 448.4Z" fill="#0D90E0"/>
<path d="M1573.44 445.7C1573.34 445.5 1572.84 445.6 1572.74 445.7C1572.64 445.8 1572.54 446.1 1572.64 446.3C1572.74 446.5 1573.04 446.4 1573.24 446.3L1573.34 446.2C1573.34 446.2 1573.34 446.2 1573.34 446.1C1573.44 446 1573.54 445.8 1573.44 445.7Z" fill="#0D90E0"/>
<path d="M1535.39 421.1C1535.49 421.1 1535.69 420.8 1535.59 420.7C1535.49 420.5 1535.29 420.4 1535.19 420.4C1535.09 420.4 1534.69 420.5 1534.69 420.9C1534.79 421.2 1535.29 421.1 1535.39 421.1Z" fill="#0D90E0"/>
<path d="M1534.39 418.8C1533.99 418.7 1533.79 418.9 1533.69 419.3C1533.59 419.7 1533.79 420.1 1534.19 420.2C1534.59 420.3 1535.09 420 1535.09 419.6C1535.09 419.1 1534.79 418.9 1534.39 418.8Z" fill="#0D90E0"/>
<path d="M1530.49 416.2C1530.29 416.3 1530.19 416.6 1530.29 416.8C1530.39 417 1530.49 417.3 1530.69 417.2C1530.89 417.1 1530.99 416.9 1530.99 416.7C1530.99 416.5 1530.69 416.1 1530.49 416.2Z" fill="#0D90E0"/>
<path d="M1561.62 442.7C1561.82 442.8 1562.02 442.4 1562.12 442.3C1562.12 442.2 1562.02 441.9 1561.92 441.9C1561.72 441.8 1561.52 442.1 1561.42 442.2C1561.42 442.2 1561.42 442.6 1561.62 442.7Z" fill="#0D90E0"/>
<path d="M1526.88 423.4C1527.38 423.3 1527.68 422.5 1527.48 421.9C1527.48 421.8 1527.38 421.6 1527.28 421.5C1526.98 422.1 1526.78 422.8 1526.58 423.4C1526.68 423.4 1526.78 423.4 1526.88 423.4Z" fill="#0D90E0"/>
<path d="M1532.39 420C1532.59 419.9 1532.79 419.8 1532.69 419.5C1532.59 419.2 1532.39 419 1531.99 419.1C1531.69 419.2 1531.59 419.5 1531.69 419.8C1531.89 420 1532.29 420.1 1532.39 420Z" fill="#0D90E0"/>
<path d="M1530.49 420.7C1530.49 421.2 1530.79 421.7 1531.19 421.7C1531.59 421.7 1532.29 421.3 1532.29 421C1532.29 420.5 1531.79 419.9 1531.39 419.9C1530.99 419.8 1530.59 420.2 1530.49 420.7Z" fill="#0D90E0"/>
<path d="M1529.18 427.5C1529.18 428 1529.59 428.6 1530.09 428.6C1530.59 428.7 1531.69 427.9 1531.69 427.5C1531.69 426.9 1530.99 426.3 1530.29 426.3C1529.69 426.2 1529.28 426.6 1529.18 427.5Z" fill="#0D90E0"/>
<path d="M1544.8 442.4C1544.6 441.7 1543.9 441.2 1543.3 441.2C1542.6 441.2 1542 441.6 1541.6 442.2C1541.5 442.4 1541.5 442.7 1541.5 442.9C1541.7 443.6 1542.3 444 1542.9 444C1542.7 444.5 1543.2 445.2 1543.9 445.5C1544.1 445.6 1544.4 445.6 1544.6 445.5C1544.8 445.6 1545 445.6 1545.3 445.6C1545.91 445.5 1546.31 445.2 1546.41 444.6C1546.61 444.1 1546.31 443.6 1545.91 443.3C1545.61 443.1 1545.2 443 1544.9 442.8C1544.9 442.7 1544.9 442.5 1544.8 442.4Z" fill="#0D90E0"/>
<path d="M1533.49 430.3C1533.29 430.6 1533.19 431.4 1533.49 431.9C1533.79 432.4 1534.29 432.6 1534.69 432.6C1535.19 432.6 1535.49 432.2 1535.59 431.9C1535.69 431.6 1535.89 431 1535.59 430.6C1535.29 430.2 1535.19 429.7 1534.69 429.6C1534.29 429.5 1534.19 429.6 1533.99 429.8C1533.89 429.9 1533.69 430 1533.49 430.3Z" fill="#0D90E0"/>
<path d="M1547.71 450.3C1547.21 450.2 1546.91 450.5 1546.71 450.9C1546.51 451.5 1546.61 452.2 1547.01 452.4C1547.01 452.4 1547.01 452.4 1547.11 452.4C1547.01 452.6 1546.91 452.7 1546.91 452.9C1546.81 453.3 1547.21 453.8 1547.61 453.9C1548.21 454 1548.91 453.6 1549.01 453.2C1549.11 452.8 1548.91 452.3 1548.61 452C1548.71 451.9 1548.81 451.8 1548.91 451.7C1549.11 451.4 1548.51 450.4 1547.71 450.3Z" fill="#0D90E0"/>
<path d="M1545.5 441.5C1545.4 441.4 1545.4 441.3 1545.4 441.2C1545.4 441.2 1545.2 441.2 1545.2 441.3C1545.2 441.4 1545.2 441.6 1545.3 441.6C1545.3 441.7 1545.4 441.5 1545.5 441.5Z" fill="#0D90E0"/>
<path d="M1536.19 437.2C1536.19 437.3 1536.19 437.3 1536.19 437.2C1536.19 437.4 1536.19 437.5 1536.09 437.7C1535.99 438.5 1537.09 438.8 1537.39 438.5C1537.59 438.3 1537.69 437.9 1537.59 437.5C1538.1 437 1537.8 436.6 1537.59 436.5C1537.39 436.4 1537.39 435.9 1537.59 436C1537.8 436.1 1538.1 435.9 1538.3 435.4C1538.5 434.8 1538.4 434.4 1537.8 434.2C1537.19 433.9 1536.39 434.2 1536.09 434.9C1535.79 435.6 1536.09 435.8 1535.89 436.2C1535.59 436.6 1535.79 436.9 1536.19 437.2Z" fill="#0D90E0"/>
<path d="M1542.3 425C1542.7 424.7 1542.3 423.6 1541.8 423.5C1541.3 423.4 1540.6 423.8 1540.6 424.2C1540.6 424.6 1541.9 425.2 1542.3 425Z" fill="#0D90E0"/>
<path d="M1539.7 429.6C1540.2 429.8 1540.8 430.2 1541.5 430C1541.6 429.8 1541.8 429.5 1541.9 429.3C1542.7 429.2 1543.3 428.8 1543.3 428.4C1543.3 428 1543.1 427.7 1542.7 427.6C1542 427.4 1541.7 427.5 1541.3 428.2C1540.7 428.3 1540.2 428.4 1539.7 428.6C1539.3 428.7 1539.3 429.4 1539.7 429.6Z" fill="#0D90E0"/>
<path d="M1532.19 439C1531.79 438.9 1531.29 439.2 1531.19 439.8C1531.39 440 1531.59 440.3 1531.89 440.4C1532.29 440.5 1532.49 440.3 1532.59 439.9C1532.69 439.5 1532.59 439.1 1532.19 439Z" fill="#0D90E0"/>
<path d="M1529.89 423.3C1529.48 423.2 1529.18 422.9 1528.88 422.6C1528.78 422.5 1528.28 422.5 1528.08 422.6C1527.88 422.7 1527.68 423.1 1527.68 423.4C1527.68 423.6 1527.98 423.8 1528.18 423.9C1528.58 424 1529.08 424.1 1529.48 424.2C1529.89 424.3 1530.09 424 1530.09 423.6C1530.09 423.5 1530.09 423.3 1529.89 423.3Z" fill="#0D90E0"/>
<path d="M1531.69 434.9C1531.49 434.8 1531.29 434.9 1531.29 435.1C1531.19 435.3 1531.29 435.5 1531.49 435.6C1531.69 435.7 1531.89 435.6 1531.99 435.4C1531.99 435.1 1531.89 435 1531.69 434.9Z" fill="#0D90E0"/>
<path d="M1537.19 451.8C1537.3 451.3 1536.79 450.7 1536.29 450.5C1535.59 450.3 1534.99 450.6 1534.79 451.3C1534.79 451.3 1534.79 451.3 1534.79 451.4C1535.29 451.8 1535.79 452.2 1536.39 452.6C1536.79 452.4 1537.19 452.1 1537.19 451.8Z" fill="#0D90E0"/>
<path d="M1531.99 441C1531.89 441 1531.79 441.1 1531.79 441.1C1531.79 440.9 1531.79 440.7 1531.59 440.6C1531.29 440.4 1530.69 440.4 1530.49 440.7C1530.29 441 1530.59 441.6 1530.89 441.9C1530.69 442.3 1530.69 442.7 1530.79 443.2C1530.89 443.8 1530.59 444.3 1530.89 444.8C1531.09 445.1 1531.39 445.4 1531.79 445.6C1531.69 445.7 1531.49 445.9 1531.49 446.1C1531.29 446.5 1531.19 447 1531.09 447.5C1531.59 448.2 1532.19 448.8 1532.79 449.4C1532.99 449.4 1533.09 449.3 1533.19 449.1C1533.59 448.2 1533.89 447.3 1533.69 446.3C1533.69 446.1 1533.59 446 1533.49 445.9C1533.59 445.9 1533.69 445.9 1533.89 445.8C1534.69 445.5 1535.19 445.1 1535.39 444.5C1535.59 443.8 1534.89 443.3 1534.79 442.5C1534.59 440.8 1533.19 440.6 1531.99 441Z" fill="#0D90E0"/>
<path d="M1542.5 455.3C1542.7 454.7 1542.4 453.9 1541.9 453.7C1541.3 453.4 1540.3 453.9 1540.1 454.5C1540.1 454.6 1540.1 454.7 1540.1 454.8C1540.8 455.1 1541.4 455.4 1542.1 455.7C1542.3 455.6 1542.4 455.5 1542.5 455.3Z" fill="#0D90E0"/>
<path d="M1539.6 425C1539.3 425 1539.2 425.2 1539.2 425.3C1539.2 425.5 1539.2 425.8 1539.5 425.9C1539.8 426 1539.9 425.5 1539.9 425.4C1539.9 425.3 1539.8 425.1 1539.6 425Z" fill="#0D90E0"/>
<path d="M1538.6 439.2C1538.5 439.4 1538.4 439.9 1538.8 440C1539.2 440.1 1539.4 439.7 1539.5 439.5C1539.6 439.3 1539.6 439 1539.3 438.8C1538.9 438.8 1538.7 439.1 1538.6 439.2Z" fill="#0D90E0"/>
<path d="M1527.48 421.1C1527.98 421.2 1528.58 420.6 1528.68 419.8C1528.68 419.5 1528.58 419.3 1528.38 419.1C1528.08 419.8 1527.78 420.4 1527.48 421.1Z" fill="#0D90E0"/>
<path d="M1531.89 423.6C1531.79 424.2 1532.19 424.6 1532.99 424.7C1533.59 424.7 1533.99 424.5 1533.99 424.1C1534.09 423.6 1533.39 422.6 1532.99 422.5C1532.39 422.5 1531.99 422.8 1531.89 423.6Z" fill="#0D90E0"/>
<path d="M1532.69 415.1C1532.89 414.9 1532.79 414.4 1532.79 414C1532.79 413.9 1532.79 413.6 1532.49 413.6C1532.39 413.6 1532.29 413.6 1532.29 413.7C1532.09 413.9 1531.89 414.2 1531.69 414.4C1531.69 414.5 1531.69 414.5 1531.69 414.6C1531.59 415 1532.29 415.4 1532.69 415.1Z" fill="#0D90E0"/>
<path d="M1543.2 435.6C1543 435.6 1542.6 435.6 1542.6 435.8C1542.6 436 1542.9 436.2 1543 436.2C1543.2 436.2 1543.4 436.2 1543.5 435.9C1543.5 435.7 1543.3 435.6 1543.2 435.6Z" fill="#0D90E0"/>
<path d="M1569.33 447.2C1569.33 447.7 1569.83 448.2 1570.34 447.9C1570.54 447.8 1570.54 447.2 1570.64 446.8C1570.64 446.7 1570.74 446.5 1570.34 446.4C1570.13 446.3 1569.43 446.7 1569.33 447.2Z" fill="#0D90E0"/>
<path d="M1528.18 430.8C1527.38 430.6 1526.48 431.1 1526.38 431.7C1526.38 432.1 1526.48 432.4 1526.68 432.6C1526.08 432.6 1525.78 432.8 1525.68 433.6C1525.58 434.3 1525.88 434.9 1526.38 434.9C1526.88 435 1527.88 434.2 1527.88 433.8C1527.88 433.5 1527.78 433.2 1527.68 433C1527.98 433 1528.18 432.8 1528.38 432.5C1528.68 432.2 1529.38 431.6 1529.08 431C1528.78 430.4 1528.48 430.9 1528.18 430.8Z" fill="#0D90E0"/>
<path d="M1551.41 436.4C1551.21 436.9 1551.51 437.7 1551.91 437.8C1552.21 437.9 1552.91 437.4 1553.01 437C1553.21 436.5 1552.91 436.1 1552.41 436C1551.91 435.8 1551.51 435.9 1551.41 436.4Z" fill="#0D90E0"/>
<path d="M1526.48 429.5C1526.48 430 1527.18 430.8 1527.68 430.8C1528.08 430.8 1528.78 430.1 1528.78 429.7C1528.78 429.3 1528.38 428.8 1527.98 428.8C1527.08 428.6 1526.48 428.9 1526.48 429.5Z" fill="#0D90E0"/>
<path d="M1575.44 438.4C1574.94 438.9 1574.84 440.4 1575.24 440.9C1575.44 441.1 1575.64 441.2 1575.94 441.3C1576.34 440.3 1576.74 439.3 1577.04 438.2C1576.44 438 1575.84 438.1 1575.44 438.4Z" fill="#0D90E0"/>
<path d="M1553.51 450.5C1553.31 451 1553.41 451.7 1553.71 452.1C1553.51 452.3 1553.81 453.1 1554.01 453.1C1554.42 453.2 1554.82 453.5 1555.12 453.2C1555.32 453.1 1555.32 452.9 1555.22 452.8C1555.82 452.7 1556.42 452.3 1556.62 451.8C1556.92 451 1556.42 450.1 1555.32 449.7C1554.62 449.4 1553.81 449.8 1553.51 450.5Z" fill="#0D90E0"/>
<path d="M1552.71 455.7C1552.61 456.1 1552.91 456.5 1553.31 456.6C1553.82 456.7 1554.32 456.4 1554.42 456C1554.52 455.5 1554.32 455.3 1553.82 455.2C1553.31 455 1552.81 455.2 1552.71 455.7Z" fill="#0D90E0"/>
<path d="M1547.51 439.7C1547.31 439.7 1547.21 439.7 1547.01 439.8C1546.91 439.6 1546.71 439.4 1546.61 439.2C1546.51 439.2 1546.41 439.2 1546.31 439.2C1545.8 439.4 1545.8 439.6 1545.7 439.9C1545.6 440.3 1545.7 440.5 1545.8 440.6C1546 440.6 1546.41 440.7 1546.71 440.6C1546.71 440.6 1546.71 440.6 1546.71 440.7C1546.91 441 1547.41 441 1547.71 440.8C1548.11 440.7 1548.11 439.9 1547.51 439.7Z" fill="#0D90E0"/>
<path d="M1557.82 445.9C1557.02 445.7 1556.32 446 1556.12 446.7C1555.92 447.4 1556.22 448.1 1556.72 448.2C1557.42 448.4 1558.42 447.9 1558.62 447.2C1558.82 446.8 1558.32 446.1 1557.82 445.9Z" fill="#0D90E0"/>
<path d="M1570.54 448.4C1570.33 448.6 1570.33 449 1570.33 449.2C1570.44 449.3 1570.64 449.4 1570.74 449.4C1571.04 449.1 1571.24 448.8 1571.54 448.5L1571.44 448.4C1571.14 448.1 1570.74 448 1570.54 448.4Z" fill="#0D90E0"/>
<path d="M1558.32 449.5C1558.12 449.6 1558.32 450 1558.42 450.2C1558.42 450.3 1558.72 450.4 1558.82 450.3C1558.92 450.2 1559.02 449.9 1558.92 449.8C1558.92 449.6 1558.42 449.4 1558.32 449.5Z" fill="#0D90E0"/>
<path d="M1559.92 451.2C1559.32 450.9 1558.32 451.5 1558.02 452.4C1557.82 453.1 1558.12 453.7 1558.82 453.9C1559.72 454.2 1560.42 453.9 1560.72 453C1560.92 452.4 1560.52 451.5 1559.92 451.2Z" fill="#0D90E0"/>
<path d="M1555.32 441.6C1554.92 441.5 1554.32 441.9 1554.02 442.6C1554.12 442.7 1554.22 443.1 1554.42 443.2C1554.92 443.5 1555.62 443.2 1555.82 442.8C1556.02 442.4 1555.72 441.7 1555.32 441.6Z" fill="#0D90E0"/>
<path d="M1547.91 454.4C1547.21 454.5 1547.11 455 1546.91 454.8C1546.71 454.6 1546.41 454.1 1545.91 454.3C1545.41 454.4 1545.3 455.9 1545.41 456.1C1545.51 456.2 1545.71 456.5 1545.71 456.7C1546.21 456.8 1546.61 456.9 1547.11 457C1547.11 457 1547.21 457 1547.31 457C1547.51 457 1547.71 457.1 1548.01 457.1C1548.41 457 1548.81 456.8 1549.11 456.2C1549.31 455.4 1548.61 454.3 1547.91 454.4Z" fill="#0D90E0"/>
<path d="M1551.11 452C1550.71 451.9 1550.11 452.1 1550.01 452.6C1549.91 453 1550.11 453.4 1550.61 453.6C1551.11 453.8 1551.51 453.6 1551.61 453.2C1551.71 452.6 1551.51 452.1 1551.11 452Z" fill="#0D90E0"/>
<path d="M1548.11 444.6C1547.61 444.5 1547.41 444.8 1547.41 445.1C1547.41 445.4 1547.31 446.1 1547.71 446.2C1548.11 446.3 1548.61 445.7 1548.71 445.5C1548.71 445.1 1548.51 444.7 1548.11 444.6Z" fill="#0D90E0"/>
<path d="M1553.61 444.5C1553.31 444.5 1552.71 444.5 1552.61 444.9C1552.51 445.3 1553.11 445.7 1553.31 445.8C1553.72 446 1553.92 445.6 1554.02 445.3C1554.22 444.9 1553.92 444.5 1553.61 444.5Z" fill="#0D90E0"/>
<path d="M1555.82 456.9C1555.32 456.4 1554.62 456.3 1554.22 456.6C1554.02 456.8 1553.92 457.1 1553.92 457.3C1554.62 457.2 1555.32 457.2 1556.02 457C1555.92 457.1 1555.92 457 1555.82 456.9Z" fill="#0D90E0"/>
<path d="M1551.61 443.4C1551.41 443.4 1551.11 443.6 1551.01 443.7C1550.91 444.3 1551.11 444.7 1551.51 444.7C1551.71 444.7 1552.11 444.5 1552.21 444.3C1552.41 444 1552.01 443.4 1551.61 443.4Z" fill="#0D90E0"/>
<path d="M1549.61 448C1549.41 448.4 1550.01 449.3 1550.51 449.4C1550.91 449.5 1551.51 449.2 1551.61 448.9C1551.91 448.1 1551.71 447.3 1551.11 447.1C1550.61 446.9 1549.81 447.4 1549.61 448Z" fill="#0D90E0"/>
</g>
</g>
<g clip-path="url(#clip2_2978_38656)">
<mask id="mask1_2978_38656" style="mask-type:alpha" maskUnits="userSpaceOnUse" x="-42" y="-1" width="166" height="131">
<rect x="-41.6445" y="-0.276001" width="165" height="130" fill="#C4C4C4"/>
</mask>
<g mask="url(#mask1_2978_38656)">
<path d="M-53.1445 129.724C6.77837 129.724 55.3555 81.1469 55.3555 21.224C55.3555 -38.6989 6.77837 -87.276 -53.1445 -87.276C-113.067 -87.276 -161.645 -38.6989 -161.645 21.224C-161.645 81.1469 -113.067 129.724 -53.1445 129.724Z" fill="#E6EBF2"/>
<path d="M8.85625 109.624C8.55625 109.424 8.35625 109.224 8.65625 108.824C8.95625 108.424 8.85624 107.624 8.05624 107.124C7.25624 106.624 6.05624 107.124 6.05624 107.824C6.05624 108.524 6.45625 108.724 6.35625 108.924C6.15625 109.124 5.65625 109.324 5.65625 109.824C5.75625 110.324 7.15625 110.724 7.35625 110.624C7.55625 110.524 8.15625 110.224 8.35625 110.624C8.75625 110.324 9.25625 110.024 9.65625 109.724C9.25625 109.724 8.95625 109.724 8.85625 109.624Z" fill="#D3DAE0"/>
<path d="M8.95469 102.924C9.15469 102.424 8.95468 101.924 8.55468 101.824C8.15468 101.624 7.85469 101.824 7.65469 102.224C7.45469 102.724 7.55469 103.224 7.95469 103.424C8.35469 103.524 8.85469 103.324 8.95469 102.924Z" fill="#D3DAE0"/>
<path d="M4.35569 105.424C4.45569 105.424 4.45569 105.424 4.55569 105.524C4.65569 105.824 4.8557 106.124 5.1557 106.324C5.7557 106.724 6.35569 106.624 6.85569 106.024C7.25569 105.424 7.25569 104.724 6.75569 104.424C6.35569 104.224 5.8557 104.124 5.4557 104.324C5.3557 104.224 5.2557 104.124 5.1557 104.024C4.7557 103.824 4.1557 103.924 3.9557 104.324C3.8557 104.724 4.05569 105.324 4.35569 105.424Z" fill="#D3DAE0"/>
<path d="M12.1562 100.524C11.6562 100.524 11.0562 100.424 10.9562 101.124C10.8562 101.724 11.3562 101.924 11.8562 102.024C12.3562 101.524 12.4562 101.124 12.1562 100.524Z" fill="#D3DAE0"/>
<path d="M1.85443 107.324C1.75443 107.824 1.85442 108.124 2.25442 108.424C2.75442 108.724 3.55443 108.724 3.85443 108.324C4.35443 107.524 3.75443 106.824 3.45443 106.424C3.15443 106.124 2.15443 106.624 1.85443 107.324Z" fill="#D3DAE0"/>
<path d="M2.85459 103.124C2.95459 103.024 2.85459 102.824 2.75459 102.824C2.65459 102.724 2.4546 102.824 2.4546 102.924C2.4546 103.024 2.3546 103.124 2.4546 103.224C2.5546 103.224 2.75459 103.324 2.85459 103.124Z" fill="#D3DAE0"/>
<path d="M2.25521 114.324C2.35521 113.824 1.95522 113.624 1.55522 113.524C1.05522 113.724 0.755225 114.024 0.955225 114.524C1.05523 114.724 1.35522 114.924 1.55522 114.924C1.75522 114.824 1.95522 114.724 2.15522 114.524C2.25522 114.424 2.25521 114.424 2.25521 114.324Z" fill="#D3DAE0"/>
<path d="M10.1552 103.424C10.1552 103.824 9.95515 104.224 10.2551 104.524C10.5551 104.824 10.9551 104.424 11.0551 104.324C11.1551 104.024 11.3552 103.224 11.1552 103.024C10.9552 102.824 10.1552 103.224 10.1552 103.424Z" fill="#D3DAE0"/>
<path d="M33.4548 82.824C33.2548 82.824 33.0548 82.724 32.9548 82.724C32.2548 82.724 31.4548 83.124 31.2548 83.624C31.0548 84.324 31.1548 84.924 31.6548 85.524C31.7548 85.724 32.0548 85.824 32.3548 85.824C33.2548 85.824 33.8548 85.324 34.0548 84.424C34.0548 84.224 34.1548 84.024 34.1548 83.824C34.5548 83.924 34.8548 83.924 35.1548 84.024H35.2548C35.5548 83.524 35.8548 83.124 36.2548 82.624C36.1548 82.324 36.0548 82.024 35.7548 81.824C35.2548 81.524 34.7548 81.624 34.3548 81.924C33.9548 82.224 33.7548 82.524 33.4548 82.824Z" fill="#D3DAE0"/>
<path d="M30.0562 74.724C29.6562 75.224 29.7562 75.724 30.4562 76.224C30.8562 76.624 31.7562 76.624 32.0562 76.324C32.4562 75.824 32.3562 74.824 31.8562 74.424C31.2562 74.124 30.4562 74.224 30.0562 74.724Z" fill="#D3DAE0"/>
<path d="M15.0552 99.224C15.1552 98.924 14.7552 98.224 14.3552 98.124C13.9552 98.024 13.6552 98.224 13.5552 98.624C13.3552 99.324 13.4552 99.824 13.7552 99.924C14.0552 100.024 14.8552 99.624 15.0552 99.224Z" fill="#D3DAE0"/>
<path d="M19.9546 100.124C20.1546 99.724 19.3546 98.624 18.8546 98.624C18.3546 98.624 18.1546 99.824 18.5546 100.224C19.0546 100.524 19.7546 100.524 19.9546 100.124Z" fill="#D3DAE0"/>
<path d="M21.7559 99.124C21.5559 98.924 21.2559 99.224 21.1559 99.324C21.1559 99.524 21.0559 99.724 21.2559 99.924C21.3559 99.924 21.3559 100.024 21.4559 100.024C21.5559 99.924 21.6559 99.824 21.8559 99.624C21.8559 99.424 21.9559 99.224 21.7559 99.124Z" fill="#D3DAE0"/>
<path d="M30.6554 82.224C31.0554 82.524 31.7554 82.424 32.1554 81.924C32.5554 81.524 32.6554 80.624 32.3554 80.224C32.5554 80.024 32.6554 79.724 32.5554 79.424C32.4554 79.024 31.6554 78.724 31.2554 79.324C31.1554 79.424 31.1554 79.624 31.1554 79.724C30.7554 79.724 30.4554 79.924 30.1554 80.124C29.8554 80.724 30.0554 81.724 30.6554 82.224Z" fill="#D3DAE0"/>
<path d="M18.5547 93.324C18.5547 93.124 18.2547 92.924 18.0547 92.924C17.8547 92.924 17.5547 93.124 17.5547 93.324C17.5547 93.524 17.7547 93.724 17.9547 93.724C18.2547 93.824 18.5547 93.524 18.5547 93.324Z" fill="#D3DAE0"/>
<path d="M9.45586 105.924C9.15586 106.524 9.25585 107.324 9.75585 107.524C10.3559 107.824 11.5559 107.324 11.8559 106.724C12.0559 106.224 11.7559 105.624 11.0559 105.324C10.2559 104.924 9.85586 105.124 9.45586 105.924Z" fill="#D3DAE0"/>
<path d="M10.0554 94.824C9.8554 95.124 9.85541 96.024 10.1554 96.324C10.4554 96.524 11.1554 96.4239 11.4554 96.1239C11.7554 95.8239 11.6554 95.4239 11.2554 95.1239C10.7554 94.7239 10.2554 94.524 10.0554 94.824Z" fill="#D3DAE0"/>
<path d="M18.1543 97.624C18.8543 98.024 19.3543 97.924 19.6543 97.424C19.8543 97.024 19.5543 95.824 19.1543 95.624C18.5543 95.324 18.0543 95.524 17.6543 96.224C17.2543 96.824 17.3543 97.224 18.1543 97.624Z" fill="#D3DAE0"/>
<path d="M34.1562 85.624C34.4563 85.224 34.7562 84.824 35.0562 84.324C34.8562 84.424 34.5563 84.524 34.4563 84.724C34.1563 85.024 34.1562 85.324 34.1562 85.624Z" fill="#D3DAE0"/>
<path d="M20.3555 101.024C20.5555 100.824 20.7555 100.724 20.9555 100.524C20.6555 100.624 20.5555 100.724 20.3555 101.024Z" fill="#D3DAE0"/>
<path d="M15.2554 101.924C14.9554 102.524 15.0554 103.324 15.3554 103.724C15.1554 104.224 15.2554 104.724 15.4554 105.124C16.3554 104.324 17.2554 103.624 18.1554 102.824C18.1554 102.224 17.8554 101.624 17.2554 101.324C16.7554 101.024 15.6554 101.324 15.2554 101.924Z" fill="#D3DAE0"/>
<path d="M25.3544 93.424C25.1544 93.724 25.2544 94.324 25.7544 94.624C25.9544 94.524 26.3544 94.424 26.5544 94.124C26.8544 93.824 26.6544 93.424 26.2544 93.324C25.9544 93.124 25.6544 93.024 25.3544 93.424Z" fill="#D3DAE0"/>
<path d="M27.4559 86.924C27.4559 86.624 26.9559 86.324 26.6559 86.324C26.2559 86.424 26.1559 86.724 26.3559 87.524C26.9559 87.924 27.5559 87.324 27.4559 86.924Z" fill="#D3DAE0"/>
<path d="M35.2546 73.124C35.8546 73.524 36.4546 73.324 36.9546 72.724C37.4546 72.024 37.2546 71.024 36.5546 70.524C35.9546 70.124 35.0546 70.324 34.6546 70.924C34.1546 71.624 34.4546 72.624 35.2546 73.124Z" fill="#D3DAE0"/>
<path d="M34.5557 80.424C34.9557 80.624 35.3557 80.724 35.7557 80.624C35.7557 80.924 35.9557 81.224 36.2557 81.324C36.7557 81.524 37.1557 81.124 37.5557 80.724C37.3557 80.224 37.2557 79.624 36.5557 79.724C36.4557 79.724 36.4557 79.724 36.3557 79.824C36.3557 79.324 36.0557 78.724 35.6557 78.424C35.2557 78.224 34.7557 78.324 34.4557 78.724C33.9557 79.324 34.0557 80.124 34.5557 80.424Z" fill="#D3DAE0"/>
<path d="M30.1561 90.724C29.9561 90.224 29.7561 89.624 29.1561 89.824C28.4561 90.024 28.5561 90.524 28.6561 90.724C28.7561 90.924 28.5561 91.3239 28.4561 91.1239C28.3561 90.9239 27.9561 90.924 27.5561 91.324C27.1561 91.724 27.0561 92.1239 27.3561 92.6239C27.4561 92.7239 27.5561 92.824 27.6561 92.924C27.4561 93.224 27.3561 93.624 27.2561 94.024C28.1561 93.024 29.1561 91.924 30.1561 90.724Z" fill="#D3DAE0"/>
<path d="M25.6547 83.9239C26.2547 84.2239 26.9547 84.224 27.5547 83.824C27.7547 83.724 27.9547 83.4239 27.9547 83.2239C28.1547 82.3239 27.6547 81.624 26.7547 81.324C26.5547 81.224 26.3547 81.2239 26.2547 81.1239C26.3547 80.8239 26.4547 80.4239 26.5547 80.1239C26.6547 79.5239 26.5547 79.2239 25.9547 79.0239C25.4547 78.8239 24.8547 78.924 24.4547 79.324C24.0547 79.724 24.1547 80.2239 24.3547 80.7239C24.5547 81.0239 24.7547 81.3239 25.0547 81.6239C24.9547 81.8239 24.9547 81.9239 24.8547 82.1239C24.8547 82.8239 25.1547 83.6239 25.6547 83.9239Z" fill="#D3DAE0"/>
<path d="M28.5543 85.924C28.8543 85.824 29.1543 85.324 29.0543 85.024C28.9543 84.624 28.6543 84.624 27.7543 84.924C27.4543 85.524 28.1543 86.024 28.5543 85.924Z" fill="#D3DAE0"/>
<path d="M26.5559 70.624C26.1559 71.124 26.1559 71.924 26.5559 72.324C26.9559 72.724 27.7559 72.524 28.2559 71.924C28.5559 71.624 28.4559 70.924 28.1559 70.724C27.7559 70.224 26.8559 70.224 26.5559 70.624Z" fill="#D3DAE0"/>
<path d="M19.5554 95.1239C19.3554 95.4239 19.3554 95.8239 19.6554 96.1239C20.1554 96.6239 20.4554 96.624 21.1554 96.224C21.2554 96.224 21.3554 96.324 21.4554 96.324C21.6554 96.824 22.0554 97.1239 22.6554 97.1239C22.9554 97.1239 23.3554 96.924 23.4554 96.724C23.9554 96.024 23.9554 95.224 23.2554 94.424C22.9554 94.524 22.5554 94.5239 22.1554 94.6239C22.0554 94.6239 22.0554 94.524 21.9554 94.524C21.7554 94.624 21.4554 94.824 21.2554 94.924C20.5554 94.724 19.7554 94.7239 19.5554 95.1239Z" fill="#D3DAE0"/>
<path d="M40.6559 75.124C40.0559 74.724 38.8559 75.024 38.3559 75.824C37.8559 76.424 38.0559 77.324 38.7559 77.824C38.9559 77.924 39.1559 78.024 39.2559 78.124C39.8559 77.224 40.3559 76.324 40.8559 75.424C40.7559 75.324 40.7559 75.224 40.6559 75.124Z" fill="#D3DAE0"/>
<path d="M-0.344961 98.524C0.255039 98.824 1.05503 98.6239 1.25503 98.1239C1.55503 97.4239 1.25503 96.424 0.555033 96.024C0.155033 95.824 -0.644961 96.1239 -0.844961 96.6239C-1.24496 97.5239 -1.04496 98.224 -0.344961 98.524Z" fill="#D3DAE0"/>
<path d="M-1.74528 105.724C-1.14528 106.924 -2.04528 107.024 -1.94528 108.024C-1.94528 108.224 -1.74528 108.324 -1.74528 108.424C-1.14528 109.224 -0.145282 109.124 0.254718 108.224C0.454718 107.724 0.654718 107.124 0.754718 106.524C0.854718 106.124 0.454721 105.524 0.0547211 105.224C0.554721 105.224 1.15472 104.924 1.35472 104.524C1.55472 104.124 1.35472 103.524 1.05472 103.324C0.354721 102.924 -0.545282 103.024 -0.745282 103.524C-0.945282 103.924 -0.745273 104.624 -0.345273 105.024H-0.445279C-0.845279 104.824 -1.74528 104.924 -1.74528 105.724Z" fill="#D3DAE0"/>
<path d="M22.556 82.524C22.556 82.224 22.056 81.924 21.756 81.924C21.356 82.024 20.956 82.7239 21.456 83.1239C22.056 83.6239 22.556 82.924 22.556 82.524Z" fill="#D3DAE0"/>
<path d="M17.3558 88.424C17.4558 88.624 17.3558 88.924 17.6558 89.224C17.9558 89.524 18.5558 89.824 19.1558 89.724C19.7558 89.624 20.0558 89.224 20.2558 88.824C20.3558 88.324 20.1559 87.924 19.9559 87.724C19.7559 87.524 19.1558 87.124 18.7558 87.324C18.2558 87.424 17.7558 87.424 17.5558 87.824C17.2558 88.024 17.3558 88.224 17.3558 88.424Z" fill="#D3DAE0"/>
<path d="M19.3561 79.224C18.9561 79.124 18.6561 79.124 18.3561 79.524C17.8561 80.124 17.9561 80.424 18.4561 81.024C18.3561 81.624 18.2561 82.1239 18.2561 82.6239C18.2561 83.1239 18.8561 83.424 19.1561 83.024C19.5561 82.624 20.1561 82.224 20.1561 81.524C19.9561 81.324 19.8561 81.124 19.6561 80.824C19.8561 80.124 19.7561 79.424 19.3561 79.224Z" fill="#D3DAE0"/>
<path d="M21.3547 92.524C21.2547 92.724 21.2548 92.824 21.4548 93.024C21.6548 93.124 21.8548 93.124 21.9548 92.924C22.1548 92.724 22.0547 92.524 21.8547 92.424C21.6547 92.224 21.5547 92.324 21.3547 92.524Z" fill="#D3DAE0"/>
<path d="M5.65467 97.524C6.25467 97.824 6.95466 97.624 7.25466 97.024C7.65466 96.224 7.45467 95.524 6.65467 95.024C6.05467 94.624 5.15466 94.824 4.75466 95.424C4.35466 96.024 4.75467 97.124 5.65467 97.524Z" fill="#D3DAE0"/>
<path d="M6.95452 91.5239C7.25452 91.0239 6.85452 90.3239 6.15452 90.0239C5.75452 89.8239 5.45451 89.924 5.25451 90.324C4.95451 90.824 5.05452 91.624 5.45452 91.824C5.85452 92.124 6.75452 91.9239 6.95452 91.5239Z" fill="#D3DAE0"/>
<path d="M7.55478 88.624C7.95478 88.824 8.55478 88.724 8.75478 88.324C8.95478 87.924 8.75479 87.124 8.45479 87.024C8.05479 86.824 7.25478 87.124 7.05478 87.524C6.95478 87.924 7.15478 88.424 7.55478 88.624Z" fill="#D3DAE0"/>
<path d="M8.45445 85.024C8.65445 84.624 8.55445 84.124 8.15445 83.924C7.75445 83.724 7.45444 83.924 7.25444 84.224C7.05444 84.524 7.15445 84.8239 7.45445 85.1239C7.75445 85.4239 8.25445 85.424 8.45445 85.024Z" fill="#D3DAE0"/>
<path d="M22.7559 86.524C22.2559 86.924 22.2559 87.824 22.7559 88.324C22.8559 88.424 22.9559 88.524 23.0559 88.524C23.0559 88.724 23.1559 88.824 23.1559 88.824C23.2559 88.924 23.6559 89.124 23.8559 88.924V88.824L23.9559 88.924C24.2559 89.324 24.5559 89.224 25.0559 89.024C25.5559 88.824 26.1559 88.424 25.8559 87.824C25.5559 87.224 25.0559 87.324 24.8559 87.424C24.6559 87.524 24.2559 87.424 24.3559 87.224C24.4559 87.024 24.4559 86.724 23.9559 86.324C23.6559 86.124 23.2559 86.124 22.7559 86.524Z" fill="#D3DAE0"/>
<path d="M15.355 93.324C14.955 93.124 14.355 93.424 14.155 93.724C13.755 94.524 13.855 95.224 14.355 95.424C14.855 95.624 15.755 95.224 15.955 94.724C16.255 94.424 15.755 93.524 15.355 93.324Z" fill="#D3DAE0"/>
<path d="M2.55484 96.824C2.25484 96.924 2.15484 97.624 2.55484 98.024C2.65484 98.124 3.05484 98.124 3.25484 98.024C3.45484 97.924 3.65485 97.524 3.65485 97.324C3.55485 96.824 2.85484 96.724 2.55484 96.824Z" fill="#D3DAE0"/>
<path d="M2.45582 99.724C2.05582 100.424 2.25582 101.224 2.95582 101.624C3.65582 102.124 4.95581 101.824 5.35581 101.024C5.75581 100.424 5.35582 99.124 4.65582 98.724C4.05582 98.324 3.05582 98.724 2.45582 99.724Z" fill="#D3DAE0"/>
<path d="M8.85446 90.724C8.65446 90.824 8.55447 91.224 8.65447 91.524C8.75447 91.724 8.95446 92.024 9.25446 92.124C9.45446 92.224 9.75446 92.024 9.85446 91.824C10.1545 91.524 10.3545 91.124 10.5545 90.724C10.7545 90.424 10.5545 90.124 10.2545 90.024C10.1545 90.024 9.95446 90.024 9.85446 90.124C9.65446 90.424 9.25446 90.524 8.85446 90.724Z" fill="#D3DAE0"/>
<path d="M15.6554 82.024C15.8554 81.824 15.4554 81.524 15.3554 81.524C15.1554 81.524 14.9554 81.524 14.8554 81.724C14.7554 81.924 14.9554 82.124 15.0554 82.124C15.1554 82.124 15.5554 82.224 15.6554 82.024Z" fill="#D3DAE0"/>
<path d="M14.1551 79.024C13.8551 79.524 13.9551 80.224 14.4551 80.424C14.8551 80.524 15.8551 79.624 15.7551 79.124C15.6551 78.624 14.4551 78.524 14.1551 79.024Z" fill="#D3DAE0"/>
<path d="M12.7547 90.7239C12.4547 91.3239 12.7547 91.8239 13.5547 92.2239C13.9547 92.4239 14.7548 92.2239 14.9548 91.7239C15.1548 91.2239 14.8548 89.9239 14.4548 89.8239C13.8548 89.6239 13.0547 90.0239 12.7547 90.7239Z" fill="#D3DAE0"/>
<path d="M12.0561 86.524C11.6561 86.224 10.4561 86.524 10.2561 86.924C9.95609 87.524 10.1561 88.024 10.8561 88.324C11.4561 88.624 11.9561 88.424 12.2561 87.724C12.4561 87.224 12.4561 86.724 12.0561 86.524Z" fill="#D3DAE0"/>
<path d="M2.15586 84.124C2.05586 84.124 1.85586 84.024 1.65586 84.324C1.55586 84.624 1.75585 85.424 2.25585 85.524C2.75585 85.624 3.35586 85.124 3.15586 84.624C3.05586 84.324 2.45586 84.224 2.15586 84.124Z" fill="#D3DAE0"/>
<path d="M1.05602 110.624C0.856019 110.324 0.556025 110.024 0.156025 110.124C-1.14398 110.524 -0.543975 111.624 -0.843975 111.824C-1.24398 112.024 -2.04398 112.024 -2.64398 112.324C-2.54398 112.224 -2.54398 112.224 -2.44398 112.124C-2.04398 111.524 -2.04397 110.724 -2.54397 110.324C-2.74397 110.124 -3.14397 110.124 -3.54397 110.224C-3.24397 109.724 -3.34398 109.024 -3.84397 108.724C-4.44397 108.424 -5.44398 108.624 -5.64398 109.124C-5.94398 109.724 -5.64398 110.624 -5.14398 110.924C-4.94398 111.024 -4.74397 111.024 -4.54397 110.924C-4.84397 111.524 -4.74398 112.024 -4.14398 112.424C-3.74398 112.724 -3.34397 112.724 -3.04397 112.524C-3.54397 113.024 -3.84398 113.624 -3.34398 114.324C-3.04398 114.724 -2.74398 114.924 -2.34398 115.024C-2.54398 115.124 -2.74398 115.224 -2.94398 115.424C-3.24398 115.024 -3.54398 114.524 -4.14398 114.824C-4.54398 115.024 -4.64398 115.324 -4.64398 115.724C-4.44398 116.424 -3.94398 116.324 -3.34398 116.324C-3.34398 116.424 -3.24398 116.524 -3.24398 116.624C-3.34398 116.524 -3.44397 116.524 -3.54397 116.524C-3.84397 116.424 -4.24397 116.524 -4.34397 116.624C-4.54397 116.824 -4.54398 117.624 -4.14398 117.824C-4.14398 117.924 -4.14398 118.024 -4.14398 118.024C-2.44398 117.124 -0.743972 116.224 0.956028 115.224C0.756028 115.124 0.656028 115.124 0.456028 115.024C-0.043972 115.024 -0.443984 115.124 -0.743984 115.324C-0.843984 115.224 -0.843981 115.224 -0.943981 115.124C-1.14398 115.024 -1.24398 114.924 -1.44398 114.824C-1.34398 114.724 -1.14397 114.724 -1.04397 114.624C-0.043972 113.924 -0.843972 113.024 -0.043972 112.824C0.756028 112.624 0.556025 113.424 1.65602 113.124C2.75603 112.824 3.15602 111.624 2.55602 111.124C2.15602 110.824 1.75603 110.724 1.45603 110.724C1.35603 110.724 1.25602 110.624 1.05602 110.624Z" fill="#D3DAE0"/>
<path d="M11.7562 103.524C11.5562 103.924 11.6563 104.324 12.0563 104.624C12.4563 104.824 12.8563 104.724 13.1563 104.324C13.4563 103.924 13.2563 103.324 12.9563 103.124C12.4563 102.924 11.9562 103.124 11.7562 103.524Z" fill="#D3DAE0"/>
<path d="M58.0559 76.224C94.1201 76.224 123.356 46.9882 123.356 10.924C123.356 -25.1402 94.1201 -54.376 58.0559 -54.376C21.9917 -54.376 -7.24414 -25.1402 -7.24414 10.924C-7.24414 46.9882 21.9917 76.224 58.0559 76.224Z" fill="#F04E98"/>
<path d="M109.956 33.424C110.056 33.324 110.056 32.824 109.956 32.724C109.856 32.624 109.456 32.924 109.356 33.024C109.256 33.124 109.356 33.424 109.456 33.424C109.656 33.524 109.856 33.524 109.956 33.424Z" fill="#E32682"/>
<path d="M50.4566 74.524C50.3566 74.224 49.9565 74.324 49.7565 74.324C49.6565 74.324 49.4566 74.624 49.5566 74.724C49.6566 74.924 49.8566 75.024 50.0566 75.024C50.0566 75.024 50.4566 74.824 50.4566 74.524Z" fill="#E32682"/>
<path d="M101.755 46.224C101.855 46.124 101.855 46.024 101.855 45.924C101.855 45.824 101.655 45.824 101.555 45.824C101.455 45.824 101.355 46.024 101.455 46.124C101.455 46.124 101.655 46.224 101.755 46.224Z" fill="#E32682"/>
<path d="M107.856 46.124C107.556 46.824 107.856 47.924 108.556 48.324C109.256 48.724 110.156 48.424 110.656 47.524C111.056 46.824 110.856 45.924 110.156 45.524C109.456 45.024 108.256 45.424 107.856 46.124Z" fill="#E32682"/>
<path d="M111.856 37.024C111.956 37.124 112.456 37.224 112.556 37.024C112.656 36.824 112.456 36.524 112.356 36.424C112.156 36.324 111.856 36.224 111.756 36.424C111.656 36.624 111.756 36.924 111.856 37.024Z" fill="#E32682"/>
<path d="M117.257 37.724C117.157 37.924 117.157 38.124 117.257 38.324C117.457 38.024 117.557 37.624 117.757 37.324C117.557 37.424 117.357 37.524 117.257 37.724Z" fill="#E32682"/>
<path d="M112.255 33.024C112.355 32.924 112.155 32.724 112.155 32.724C112.055 32.724 111.855 32.824 111.855 32.824C111.855 32.924 111.855 33.024 111.955 33.124C112.055 33.224 112.155 33.224 112.255 33.024Z" fill="#E32682"/>
<path d="M99.1558 60.024C98.6558 60.924 98.5558 61.324 98.9558 61.624C98.9558 61.624 99.0558 61.624 99.0558 61.724C99.5558 61.324 99.9558 60.924 100.456 60.524C100.156 60.124 99.5558 60.124 99.1558 60.024Z" fill="#E32682"/>
<path d="M88.4551 50.424C88.5551 50.624 88.7551 50.724 88.9551 50.724C89.0551 50.724 89.4551 50.524 89.3551 50.224C89.2551 49.924 88.8551 50.024 88.6551 50.024C88.5551 50.124 88.4551 50.424 88.4551 50.424Z" fill="#E32682"/>
<path d="M89.3553 40.724C89.1553 40.724 88.6553 41.124 88.7553 41.424C88.8553 41.724 89.3553 41.824 89.5553 41.724C89.7553 41.624 90.0553 41.324 90.0553 41.124C89.9553 40.924 89.5553 40.724 89.3553 40.724Z" fill="#E32682"/>
<path d="M88.6568 56.024C88.5568 56.224 88.8568 56.524 88.9568 56.624C89.0568 56.724 89.3568 56.624 89.4568 56.524C89.5568 56.424 89.3568 56.124 89.2568 56.024C89.2568 55.924 88.8568 55.824 88.6568 56.024Z" fill="#E32682"/>
<path d="M85.4551 62.924C85.7551 63.624 86.2551 63.924 86.9551 64.324C87.4551 64.624 87.9551 64.124 88.0551 64.724C88.1551 65.324 88.4551 66.324 89.2551 66.324C89.0551 66.524 88.9551 66.824 88.8551 67.124C89.2551 67.524 89.5551 68.024 90.1551 67.724C90.5551 67.524 90.7551 67.124 90.6551 66.724C90.5551 66.324 90.3551 66.124 90.0551 66.124C90.4551 65.824 90.6551 65.224 90.5551 64.824C90.9551 65.124 91.5551 65.224 92.0551 65.024C92.7551 64.724 93.1551 63.724 92.8551 63.024C92.5551 62.324 91.7551 61.924 91.1551 62.224C90.5551 62.424 90.1551 63.324 90.0551 64.024C89.8551 63.824 89.6551 63.724 89.4551 63.724C88.9551 63.724 89.2551 62.624 88.5551 62.524C87.8551 62.524 87.6551 61.724 86.7551 61.724C85.9551 61.624 85.1551 62.224 85.4551 62.924Z" fill="#E32682"/>
<path d="M54.4559 75.924C54.2559 75.624 53.8559 75.624 53.4559 75.724C53.4559 75.624 53.4559 75.524 53.4559 75.424C53.3559 75.124 52.9559 75.124 52.8559 75.224C52.6559 75.324 52.4559 75.424 52.5559 75.724C52.5559 75.824 52.6559 75.824 52.6559 75.924C53.3559 76.024 53.9559 76.024 54.6559 76.124C54.5559 76.024 54.5559 75.924 54.4559 75.924Z" fill="#E32682"/>
<path d="M94.2551 52.824C93.9551 53.024 93.9551 53.324 93.9551 53.624C93.9551 54.024 94.4551 54.324 94.8551 54.224H94.9551C94.9551 54.424 95.0551 54.624 95.1551 54.624C95.2551 54.724 95.7551 54.824 95.8551 54.624C95.9551 54.424 95.6551 54.024 95.5551 54.024C95.4551 54.024 95.3551 54.024 95.2551 54.024C95.3551 53.824 95.3551 53.724 95.3551 53.424C95.3551 53.024 94.5551 52.624 94.2551 52.824Z" fill="#E32682"/>
<path d="M100.557 48.324C100.757 48.724 101.457 49.124 101.857 49.024C102.257 48.924 102.457 48.324 102.257 47.924C102.057 47.524 101.657 47.324 101.157 47.524C100.657 47.624 100.357 47.924 100.557 48.324Z" fill="#E32682"/>
<path d="M88.0558 58.924C87.7558 59.424 87.9558 60.624 88.8558 61.024C89.6558 61.324 90.3558 61.124 90.7558 60.624C91.1558 60.124 90.7558 59.224 90.0558 58.624C89.5558 58.224 88.3558 58.424 88.0558 58.924Z" fill="#E32682"/>
<path d="M114.256 40.924C114.056 41.124 114.256 41.924 114.656 42.124C115.056 42.324 115.256 42.024 115.356 41.824C115.556 41.424 115.456 41.024 115.056 40.924C114.756 40.824 114.356 40.724 114.256 40.924Z" fill="#E32682"/>
<path d="M113.755 33.924C113.355 33.724 112.855 33.924 112.655 34.424C112.355 34.924 112.455 35.324 112.855 35.524C113.255 35.724 114.055 35.424 114.255 35.124C114.455 34.624 114.255 34.124 113.755 33.924Z" fill="#E32682"/>
<path d="M63.2555 75.024C63.0555 74.824 62.8555 74.724 62.5555 74.624C62.3555 74.524 62.0555 74.424 61.8555 74.324C61.0555 74.124 60.4555 74.224 60.2555 74.924C60.0555 75.324 60.1555 75.724 60.3555 76.124C61.5555 76.124 62.8555 76.024 64.0555 75.924C63.7555 75.624 63.4555 75.324 63.2555 75.024Z" fill="#E32682"/>
<path d="M70.3556 67.024C70.6556 66.924 70.5556 66.124 70.5556 65.924C70.4556 65.724 70.0556 65.624 69.8556 65.724C69.7556 65.724 69.7556 65.724 69.6556 65.824C69.6556 65.624 69.6556 65.524 69.5556 65.324C69.2556 64.824 68.4556 64.724 67.9556 65.024C67.4556 65.324 67.3556 65.724 67.5556 66.124C67.8556 66.624 68.7556 66.924 69.2556 66.624C69.3556 66.524 69.4556 66.524 69.5556 66.424C69.6556 66.624 70.0556 67.224 70.3556 67.024Z" fill="#E32682"/>
<path d="M87.3555 69.024C87.1555 69.124 86.9555 69.224 86.8555 69.524C87.1555 69.424 87.4555 69.224 87.7555 69.124C87.5555 69.024 87.4555 69.024 87.3555 69.024Z" fill="#E32682"/>
<path d="M108.456 40.524C108.156 40.324 107.856 40.424 107.756 40.724C107.556 41.124 107.556 41.424 107.956 41.724C108.256 41.924 108.856 41.724 109.056 41.424C109.156 41.224 108.956 40.724 108.456 40.524Z" fill="#E32682"/>
<path d="M111.455 43.024C111.455 43.324 111.555 43.624 111.855 43.824C112.155 44.124 112.655 44.0239 112.855 43.6239C113.055 43.2239 112.955 42.9239 112.655 42.6239C112.355 42.3239 111.455 42.724 111.455 43.024Z" fill="#E32682"/>
<path d="M112.956 45.1239C112.656 45.2239 112.656 45.6239 112.856 45.9239C112.856 46.0239 112.956 46.0239 113.056 46.1239C113.256 45.8239 113.356 45.624 113.556 45.324C113.356 45.124 113.256 45.0239 112.956 45.1239Z" fill="#E32682"/>
<path d="M109.156 51.524C109.256 51.424 109.356 51.324 109.356 51.224C109.256 51.324 109.156 51.424 109.156 51.524Z" fill="#E32682"/>
<path d="M72.7559 74.224C72.8559 74.224 72.9559 74.224 72.9559 74.224C73.1559 74.024 73.0559 73.324 72.9559 73.324C72.7559 73.224 72.1559 73.024 72.0559 73.224C72.0559 73.324 71.9559 73.324 71.9559 73.424C71.9559 73.424 71.9559 73.424 71.8559 73.424C71.1559 73.324 70.7559 74.024 70.7559 74.424C70.7559 74.524 70.8559 74.724 71.0559 74.824C71.5559 74.724 72.1559 74.624 72.6559 74.524C72.7559 74.424 72.7559 74.324 72.7559 74.224Z" fill="#E32682"/>
<path d="M78.8566 72.224C80.5566 71.724 80.8566 71.2239 80.0566 69.9239C79.6566 69.2239 78.7566 69.0239 78.1566 69.6239C77.7566 70.1239 77.4566 70.7239 77.0566 71.4239C76.5566 71.4239 75.9566 71.524 75.5566 71.824C75.0566 71.724 74.5566 71.624 74.3566 71.824C73.9566 72.224 73.9566 73.124 74.3566 73.724C74.4566 73.924 74.6566 74.024 74.7566 74.024C76.0566 73.624 77.4566 73.324 78.7566 72.824C78.7566 72.624 78.7566 72.424 78.8566 72.224Z" fill="#E32682"/>
<path d="M69.2554 74.524C68.8554 73.924 68.1554 73.724 67.7554 74.124C67.7554 74.124 67.7554 74.124 67.7554 74.024C67.5554 73.624 67.0555 73.424 66.6555 73.524C66.2555 73.724 65.9555 74.224 66.1555 74.624C66.3555 75.124 66.9555 75.324 67.3555 75.124C67.4555 75.124 67.4555 75.024 67.5555 75.024C67.5555 75.224 67.5555 75.424 67.5555 75.524C68.1555 75.424 68.8555 75.324 69.4555 75.224C69.3555 74.924 69.3554 74.724 69.2554 74.524Z" fill="#E32682"/>
<path d="M62.0566 72.124C61.5566 72.324 61.4566 73.224 61.7566 73.724C61.9566 74.124 62.6566 74.324 63.0566 74.124C63.7566 73.724 64.1566 72.924 63.8566 72.424L63.7566 72.324C63.8566 72.324 63.8567 72.324 63.9567 72.224C64.5567 71.924 64.6566 71.024 64.5566 70.724C64.4566 70.424 63.4567 70.224 62.9567 70.624C62.6567 70.924 62.5566 71.324 62.8566 71.724C62.8566 71.724 62.8567 71.724 62.9567 71.824C62.6567 71.924 62.3566 71.924 62.0566 72.124Z" fill="#E32682"/>
<path d="M80.1554 68.124C80.5554 68.024 81.0555 67.424 80.9555 67.024C80.7555 66.224 80.1554 65.624 79.5554 65.824C79.0554 65.924 78.5554 66.724 78.6554 67.424C78.7554 67.824 79.5554 68.224 80.1554 68.124Z" fill="#E32682"/>
<path d="M94.6562 64.924C95.0563 64.624 95.4563 64.424 95.8563 64.124C95.7563 64.124 95.7563 64.124 95.6562 64.124C95.3562 64.124 94.9563 64.524 94.6562 64.924Z" fill="#E32682"/>
<path d="M100.756 58.924C101.056 59.024 101.556 58.924 101.756 58.724C102.256 58.324 101.756 57.824 101.556 57.424C101.256 57.424 100.956 57.5239 100.656 57.6239L100.556 57.524C100.456 57.524 100.256 57.6239 100.256 57.6239C100.256 57.7239 100.256 57.824 100.356 57.924C100.356 58.024 100.256 58.124 100.256 58.224C100.356 58.524 100.556 58.924 100.756 58.924Z" fill="#E32682"/>
<path d="M91.1563 67.224H91.2562C91.1562 67.124 91.1563 67.124 91.1563 67.224Z" fill="#E32682"/>
<path d="M115.756 28.524C115.656 28.424 115.356 28.524 115.256 28.624C115.156 28.724 115.256 29.024 115.356 29.124C115.456 29.224 115.956 29.324 116.056 29.124C116.156 28.924 115.856 28.624 115.756 28.524Z" fill="#E32682"/>
<path d="M90.9563 57.624C90.9563 57.824 91.2563 58.224 91.4563 58.224C92.0563 58.424 92.2563 57.924 92.3563 57.524C92.1563 57.024 91.7563 56.724 91.2563 57.024C91.0563 57.124 90.8563 57.424 90.9563 57.624Z" fill="#E32682"/>
<path d="M75.0551 50.524C75.2551 50.424 75.3551 50.024 75.2551 49.824C75.1551 49.724 74.9551 49.424 74.7551 49.524C74.5551 49.624 74.4551 49.924 74.4551 50.024C74.5551 50.224 74.8551 50.524 75.0551 50.524Z" fill="#E32682"/>
<path d="M82.155 62.524C82.255 62.924 83.255 63.324 83.755 63.224C84.255 63.124 84.355 62.624 84.155 62.024C83.955 61.324 83.555 61.024 83.055 61.224C82.355 61.424 81.955 61.924 82.155 62.524Z" fill="#E32682"/>
<path d="M69.0566 47.524C69.2566 47.524 69.2566 47.124 69.2566 47.024C69.2566 46.924 69.0566 46.624 68.7566 46.724C68.5566 46.824 68.5566 47.224 68.5566 47.424C68.6566 47.424 68.9566 47.524 69.0566 47.524Z" fill="#E32682"/>
<path d="M89.5562 52.624C88.8562 52.824 88.3562 53.924 88.5562 54.624C88.7562 55.424 89.6562 55.824 90.6562 55.524C91.4562 55.324 91.8562 54.524 91.6562 53.724C91.4562 52.924 90.3562 52.424 89.5562 52.624Z" fill="#E32682"/>
<path d="M68.0566 52.724C68.0566 53.124 68.3566 53.5239 68.7566 53.6239C69.1566 53.7239 69.4566 53.624 69.5566 53.324C69.8566 52.724 69.5566 52.324 69.1566 51.924C68.5566 52.024 68.0566 52.124 68.0566 52.724Z" fill="#E32682"/>
<path d="M84.2549 54.424C84.0549 54.024 83.3549 53.624 82.9549 53.824C82.4549 54.024 81.7549 55.124 81.9549 55.524C82.1549 56.024 83.0549 56.324 83.7549 56.024C84.3549 55.724 84.5549 55.224 84.2549 54.424Z" fill="#E32682"/>
<path d="M81.2565 67.624C81.0565 67.824 80.9565 68.024 80.7565 68.224C80.2565 68.924 80.3565 69.524 80.8565 69.924C81.4565 70.424 82.1565 70.324 82.7565 69.824C83.3565 69.224 83.9565 68.624 84.6565 68.124C85.2565 67.724 85.6565 66.924 85.3565 66.524C85.0565 66.124 84.2565 66.224 84.1565 66.424C83.7565 66.924 83.3565 66.624 82.9565 66.624C82.5565 66.624 82.1565 66.824 81.8565 67.024C81.5565 67.124 81.3565 67.424 81.2565 67.624Z" fill="#E32682"/>
<path d="M83.355 58.224C83.555 58.124 83.955 57.624 83.855 57.424C83.755 57.224 83.055 57.024 82.955 57.124C82.755 57.324 82.455 57.724 82.555 57.924C82.655 58.124 83.155 58.324 83.355 58.224Z" fill="#E32682"/>
<path d="M46.4566 74.724C46.6566 74.724 46.7566 74.624 46.8566 74.524C47.1566 74.124 47.0566 73.824 46.7566 73.524C46.4566 73.324 46.1566 73.324 45.8566 73.524C45.5566 73.424 45.2566 73.424 44.9566 73.624C44.6566 73.924 44.5566 74.424 44.6566 74.724C45.1566 74.824 45.6566 74.924 46.2566 75.024C46.3566 75.024 46.3566 74.924 46.4566 74.724Z" fill="#E32682"/>
<path d="M62.7563 54.724C62.2563 54.224 61.8563 54.424 61.2563 54.724C61.2563 55.324 61.1562 55.824 61.7563 56.024C62.1562 56.124 62.5563 56.024 62.8563 55.624C63.0563 55.324 63.0563 55.024 62.7563 54.724Z" fill="#E32682"/>
<path d="M61.0558 66.124C61.1558 66.524 61.7558 66.924 62.0558 66.824C62.0558 66.824 62.1559 66.824 62.1559 66.724C62.5559 67.424 63.9558 67.824 64.5558 67.324C65.1558 66.824 65.3559 65.824 64.9559 65.224C64.4559 64.524 63.5559 64.324 62.8559 64.724C62.5559 64.924 62.3558 65.124 62.2558 65.324C62.0558 65.124 61.7558 65.024 61.5558 65.124C61.1558 65.224 60.8558 65.724 61.0558 66.124Z" fill="#E32682"/>
<path d="M46.2559 61.324C46.7559 62.024 47.4559 62.124 48.0559 61.724C48.7559 61.224 48.9559 60.124 48.3559 59.424C47.9559 58.924 46.8559 58.724 46.2559 59.124C45.7559 59.624 45.7559 60.524 46.2559 61.324Z" fill="#E32682"/>
<path d="M62.7557 59.1239C62.9557 58.9239 62.8557 58.224 62.7557 57.924C62.6557 57.624 62.0557 57.624 61.7557 57.824C61.4557 58.124 61.3558 58.424 61.6558 58.724C61.7558 58.824 62.1557 59.0239 62.3557 59.1239C62.2557 59.1239 62.1558 59.1239 62.1558 59.1239C61.9558 59.2239 61.8557 59.4239 61.8557 59.6239C61.8557 59.7239 62.1557 59.924 62.2557 59.924C62.4557 59.824 62.7557 59.724 62.7557 59.424C62.7557 59.324 62.6557 59.224 62.5557 59.224C62.5557 59.124 62.7557 59.1239 62.7557 59.1239Z" fill="#E32682"/>
<path d="M73.5559 59.724C73.6559 60.224 74.0559 60.524 74.5559 60.424C75.1559 60.324 75.6559 59.524 75.4559 58.924C75.3559 58.424 74.7559 58.124 74.3559 58.224C73.7559 58.324 73.3559 59.124 73.5559 59.724Z" fill="#E32682"/>
<path d="M42.6559 72.824C42.4559 72.824 42.3559 72.824 42.2559 72.924C41.9559 73.124 41.7559 73.624 41.7559 74.024C42.4559 74.224 43.0559 74.324 43.7559 74.524C43.8559 74.424 43.8559 74.324 43.9559 74.224C44.2559 73.824 44.1559 73.024 43.7559 72.824C43.3559 72.524 42.9559 72.624 42.6559 72.824Z" fill="#E32682"/>
<path d="M58.0558 54.824C57.6558 55.124 57.4558 55.724 57.7558 56.024C57.9558 56.324 58.5558 56.424 58.8558 56.224C59.1558 56.024 59.3558 55.324 59.1558 55.024C59.0558 54.724 58.4558 54.624 58.0558 54.824Z" fill="#E32682"/>
<path d="M51.3566 62.024C50.9566 62.324 50.8566 62.924 51.2566 63.324C51.5566 63.624 52.1566 63.7239 52.4566 63.4239C52.7566 63.1239 52.8566 62.5239 52.5566 62.2239C52.2566 61.8239 51.7566 61.824 51.3566 62.024Z" fill="#E32682"/>
<path d="M54.0563 48.5239C53.7563 48.8239 53.5563 49.2239 53.7563 49.6239C53.9563 50.0239 54.4563 50.1239 54.8563 49.9239C55.1563 49.7239 55.3563 49.224 55.1563 48.824C54.9563 48.424 54.3563 48.3239 54.0563 48.5239Z" fill="#E32682"/>
<path d="M52.7553 68.224C53.0553 68.624 53.3553 68.624 53.7553 68.424C53.8553 68.424 53.8553 68.324 53.9553 68.324C54.1553 68.624 54.4553 68.824 54.8553 68.724C55.2553 68.624 55.5553 68.224 55.4553 67.824C55.3553 67.424 54.8553 67.224 54.4553 67.224C54.3553 67.224 54.3553 67.224 54.2553 67.324C54.0553 66.724 53.3553 66.524 53.0553 66.724C52.6553 66.824 52.3553 67.624 52.7553 68.224Z" fill="#E32682"/>
<path d="M53.0556 59.424C53.4556 59.924 54.4556 59.724 54.6556 59.524C54.8556 59.324 54.8556 58.324 54.2556 58.024C53.8556 57.824 53.4556 57.924 53.1556 58.224C52.7556 58.624 52.7556 59.024 53.0556 59.424Z" fill="#E32682"/>
<path d="M56.0556 62.424C55.9556 62.524 55.8556 62.724 55.6556 62.924C55.6556 62.724 55.5556 62.424 55.4556 62.224C55.1556 61.924 54.6556 61.824 54.3556 62.124C54.0556 62.424 53.9556 63.024 54.3556 63.524C54.5556 63.524 55.0556 63.624 55.3556 63.524C55.3556 63.524 55.3556 63.524 55.4556 63.424C55.3556 63.624 55.3556 63.824 55.4556 64.024C55.7556 64.624 56.2556 64.224 56.5556 64.324C57.3556 64.524 58.2556 63.924 58.2556 63.324C58.2556 62.724 57.9556 62.324 57.3556 62.124C56.7556 61.724 56.3556 61.924 56.0556 62.424Z" fill="#E32682"/>
<path d="M50.3559 53.624C49.8559 53.924 49.8559 54.724 50.1559 55.224C50.5559 55.724 50.9559 55.824 51.3559 55.524C51.9559 55.124 52.2559 54.124 51.9559 53.624C51.7559 53.224 50.8559 53.224 50.3559 53.624Z" fill="#E32682"/>
<path d="M47.5566 68.024C47.4566 68.024 47.2566 68.024 47.0566 68.124C46.8566 68.024 46.6566 67.924 46.4566 68.124C46.0566 68.324 45.9566 68.724 46.1566 69.124C46.2566 69.224 46.5566 69.524 46.8566 69.524C46.5566 69.824 46.4566 70.224 46.6566 70.524C46.9566 71.024 47.6566 71.024 48.0566 70.524C48.4566 70.024 48.8566 70.224 49.3566 70.224C49.3566 71.524 50.0566 72.024 51.1566 71.724C51.2566 71.724 51.3566 71.624 51.4566 71.624C52.1566 71.324 52.2566 70.824 51.8566 70.124C51.5566 69.524 51.1566 69.024 50.1566 69.324C50.3566 68.924 50.4566 68.624 50.6566 68.524C51.0566 68.224 51.0566 67.824 50.8566 67.424C50.5566 67.024 50.2566 66.624 49.6566 66.724C48.2566 66.724 47.7566 66.924 47.5566 68.024Z" fill="#E32682"/>
<path d="M47.4553 63.424C46.8553 63.824 46.8553 64.524 47.2553 65.224C47.6553 65.724 48.1553 65.724 48.8553 65.224C49.3553 64.824 49.5553 64.324 49.2553 63.924C48.9553 63.524 47.7553 63.224 47.4553 63.424Z" fill="#E32682"/>
<path d="M120.856 25.824C120.756 26.024 120.756 26.724 121.156 26.924C121.256 26.924 121.256 26.924 121.356 27.024C121.556 26.324 121.656 25.724 121.756 25.024C121.456 25.124 121.056 25.524 120.856 25.824Z" fill="#E32682"/>
<path d="M104.157 36.124C103.957 36.524 104.057 37.024 104.457 37.324C104.757 37.524 105.357 37.424 105.557 37.024C105.757 36.624 105.657 36.124 105.257 35.824C104.857 35.624 104.457 35.724 104.157 36.124Z" fill="#E32682"/>
<path d="M58.6563 49.924C58.6563 50.724 59.4563 51.424 60.1563 51.224C60.7563 51.024 61.0563 50.624 61.0563 50.024C61.1563 49.424 60.7563 49.024 60.2563 48.924C59.8563 48.824 59.0563 48.324 58.6563 48.724C58.2563 49.124 58.6563 49.624 58.6563 49.924Z" fill="#E32682"/>
<path d="M58.1562 71.624C58.0562 71.624 57.9563 71.724 57.9563 71.824C57.8563 71.824 57.7562 71.824 57.6562 71.724C57.3562 71.024 57.0562 70.124 56.0562 70.024C54.8562 69.924 53.8562 71.024 53.8562 72.424C53.8562 72.924 53.6562 73.024 53.4563 73.324C53.0563 73.624 53.0563 74.424 53.4563 74.724C53.8563 75.124 54.1562 75.024 54.4562 74.624C54.6562 74.424 54.9562 74.124 55.2562 74.024C55.9562 73.824 56.6562 73.724 57.3562 73.624C58.2562 75.124 58.8563 75.224 59.9563 74.124C60.5563 73.524 60.4562 72.624 59.6562 72.224C59.5562 72.224 59.4562 72.124 59.3562 72.124C59.0562 71.724 58.5562 71.424 58.1562 71.624Z" fill="#E32682"/>
<path d="M93.7559 42.924C93.2559 43.024 93.0559 43.524 93.1559 43.924C93.2559 44.324 93.7559 44.624 94.1559 44.524C94.5559 44.424 94.8559 43.924 94.7559 43.424C94.5559 42.924 94.2559 42.724 93.7559 42.924Z" fill="#E32682"/>
<path d="M95.6559 62.824C95.7559 63.024 95.9559 63.224 96.1559 63.324C96.0559 63.524 96.0559 63.824 96.0559 64.024C96.6559 63.524 97.3559 63.124 97.9559 62.624L97.8559 62.524H97.7559C97.7559 62.324 97.7559 62.124 97.7559 61.924C97.5559 61.424 97.1559 61.324 96.6559 61.524C95.6559 61.824 95.3559 62.224 95.6559 62.824Z" fill="#E32682"/>
<path d="M93.9555 55.424C93.6555 55.224 93.3555 55.524 93.3555 55.924C93.3555 56.224 93.5555 56.724 93.7555 56.924C94.0555 57.124 94.3555 56.924 94.3555 56.824C94.4555 56.624 94.3555 56.324 94.2555 56.124C94.2555 55.824 94.2555 55.624 93.9555 55.424Z" fill="#E32682"/>
<path d="M97.1562 46.324C96.9562 46.224 96.3562 46.524 96.1562 46.724C95.8562 47.024 96.0562 47.424 96.4562 47.624C96.8562 47.924 97.1562 47.624 97.2562 47.324C97.2562 47.224 97.3562 46.424 97.1562 46.324Z" fill="#E32682"/>
<path d="M84.3559 59.424C84.3559 60.024 84.2559 60.524 84.8559 60.724C85.2559 60.824 85.6559 60.724 85.9559 60.324C86.1559 60.024 86.1559 59.724 85.8559 59.424C85.4559 58.924 84.9559 59.124 84.3559 59.424Z" fill="#E32682"/>
<path d="M97.755 53.224C97.455 53.224 97.055 53.924 97.255 54.324C97.455 54.724 97.755 54.624 97.955 54.524C98.355 54.424 98.555 54.024 98.355 53.624C98.155 53.524 97.955 53.224 97.755 53.224Z" fill="#E32682"/>
<path d="M92.6561 49.524C92.7561 49.924 93.2561 50.224 93.6561 50.124C93.9561 50.024 94.0561 49.524 93.9561 49.024C93.8561 48.624 93.5561 48.524 93.2561 48.724C92.8561 48.824 92.5561 49.024 92.6561 49.524Z" fill="#E32682"/>
<path d="M93.9559 61.924C94.2559 61.624 94.8559 61.224 95.3559 60.724C95.6559 60.424 95.6559 59.924 95.2559 59.624C94.9559 59.324 94.5559 59.224 94.1559 59.624C93.9559 59.824 93.7559 59.924 93.4559 60.024C92.7559 60.324 92.4559 60.724 92.5559 61.424C92.6559 61.924 93.0559 62.224 93.9559 61.924Z" fill="#E32682"/>
<path d="M100.255 44.424C100.255 44.324 99.7554 44.224 99.5554 44.224C99.4554 44.224 99.2554 44.524 99.3554 44.624C99.4554 44.824 99.6554 44.924 99.8554 44.924C99.9554 44.924 100.355 44.524 100.255 44.424Z" fill="#E32682"/>
<path d="M105.455 44.824C105.355 44.924 105.455 45.224 105.555 45.224C105.755 45.224 105.955 45.224 106.155 45.124C106.255 45.024 106.355 44.624 106.155 44.424C105.855 44.324 105.555 44.724 105.455 44.824Z" fill="#E32682"/>
<path d="M103.857 51.524C103.657 52.024 103.957 53.324 104.357 53.424C104.857 53.624 105.657 53.224 105.957 52.524C106.257 51.924 105.957 51.424 105.257 51.024C104.757 50.924 104.057 51.124 103.857 51.524Z" fill="#E32682"/>
<path d="M102.155 53.024C101.755 53.124 101.455 54.124 101.655 54.724C101.755 55.024 102.055 55.224 102.355 55.224C102.055 55.724 102.255 56.224 102.655 56.524C103.055 56.724 103.655 56.524 103.855 56.124C104.055 55.724 103.855 55.124 103.455 54.824C103.755 54.524 103.855 54.124 103.755 53.824C103.555 53.324 102.655 52.824 102.155 53.024Z" fill="#E32682"/>
<path d="M106.156 53.924C106.156 54.124 106.256 54.624 106.356 54.724C106.656 54.424 106.856 54.124 107.156 53.824C107.156 53.624 107.056 53.524 106.956 53.524C106.856 53.424 106.256 53.824 106.156 53.924Z" fill="#E32682"/>
<path d="M99.0559 48.224C98.8559 48.324 98.7559 48.624 98.7559 48.724C98.7559 48.924 99.0559 49.324 99.2559 49.224C99.4559 49.124 99.5559 48.724 99.4559 48.624C99.3559 48.524 99.2559 48.124 99.0559 48.224Z" fill="#E32682"/>
<path d="M99.6566 53.724C99.4566 54.024 99.5567 54.324 99.9567 54.524C100.357 54.624 100.657 54.624 100.757 54.224C100.857 53.924 100.857 53.124 100.557 53.024C100.257 52.924 99.8566 53.424 99.6566 53.724Z" fill="#E32682"/>
<path d="M99.4553 37.624C99.3553 37.724 99.2553 38.424 99.4553 38.524C99.6553 38.624 100.155 38.324 100.255 38.224C100.355 38.024 100.355 37.524 100.155 37.424C100.055 37.324 99.6553 37.424 99.4553 37.624Z" fill="#E32682"/>
<path d="M80.5552 45.024C80.1552 45.024 80.0552 45.424 80.1552 45.924C80.2552 46.424 80.6552 46.424 80.9552 46.324C81.2552 46.224 81.7552 45.724 81.6552 45.524C81.5552 45.224 80.8552 45.024 80.5552 45.024Z" fill="#E32682"/>
<path d="M78.3551 52.524C77.9551 52.624 77.8551 52.924 78.0551 53.324C78.2551 53.624 78.4551 53.924 78.8551 53.724C79.1551 53.524 79.6551 53.024 79.5551 52.724C79.5551 52.324 78.6551 52.424 78.3551 52.524Z" fill="#E32682"/>
<path d="M65.2561 62.524C64.9561 62.524 64.7561 63.124 64.8561 63.424C65.0561 63.724 65.3561 64.024 65.6561 63.824C65.9561 63.624 66.5561 63.124 66.3561 62.824C66.2561 62.524 65.5561 62.524 65.2561 62.524Z" fill="#E32682"/>
<path d="M69.2549 57.024C68.4549 57.324 68.255 57.924 68.455 58.624C68.755 59.324 69.4549 59.624 70.2549 59.324C70.8549 59.124 71.155 58.224 70.955 57.624C70.655 56.924 70.0549 56.624 69.2549 57.024Z" fill="#E32682"/>
<path d="M67.2553 61.724C67.6553 62.224 68.5553 62.324 69.1553 61.824C69.7553 61.424 69.7553 60.724 69.2553 60.024C68.7553 59.424 68.0553 59.324 67.4553 59.724C66.8553 60.324 66.8553 61.124 67.2553 61.724Z" fill="#E32682"/>
<path d="M79.2563 55.524C78.7563 55.724 78.4563 56.124 78.6563 56.624C78.5563 56.624 78.4563 56.724 78.3563 56.724C78.2563 56.824 78.1563 57.024 78.2563 57.224C78.3563 57.324 78.6563 57.324 78.8563 57.324C78.8563 57.324 78.9563 57.224 79.0563 57.124C79.2563 57.224 79.5563 57.324 79.7563 57.224C80.1563 57.024 80.4563 56.424 80.2563 56.024C80.1563 55.624 79.7563 55.424 79.2563 55.524Z" fill="#E32682"/>
<path d="M65.7551 69.624C65.6551 69.024 65.5551 68.424 64.8551 68.524C64.3551 68.524 64.0551 68.824 63.9551 69.224C63.9551 69.424 63.9551 69.624 64.0551 69.724C64.3551 70.024 64.7551 70.124 65.1551 70.424C65.3551 71.424 65.8551 72.124 66.4551 72.024C66.5551 72.024 66.7551 71.924 66.8551 71.824C67.0551 72.124 67.5551 72.324 68.1551 72.124C68.2551 71.924 68.4551 71.524 68.3551 71.124C68.3551 70.824 67.9551 70.624 67.6551 70.524C67.6551 70.424 67.6551 70.324 67.6551 70.124C67.5551 69.624 67.1551 69.424 65.7551 69.624Z" fill="#E32682"/>
<path d="M106.857 45.124C106.757 45.124 106.557 45.424 106.557 45.624C106.557 45.824 106.857 46.124 107.057 46.024C107.257 45.924 107.357 45.524 107.257 45.424C107.357 45.224 107.057 45.124 106.857 45.124Z" fill="#E32682"/>
<path d="M59.6562 70.624C59.6562 70.824 59.8562 71.124 60.0562 71.124C60.5562 71.224 60.8562 70.924 61.0562 70.424C60.7562 70.024 60.5563 69.624 59.9563 69.924C59.7563 69.924 59.6562 70.324 59.6562 70.624Z" fill="#E32682"/>
<path d="M60.2553 63.024C60.0553 63.224 59.6553 63.824 59.8553 64.124C60.0553 64.424 60.7553 64.124 60.9553 63.924C61.0553 63.824 61.0553 63.324 60.9553 63.124C60.8553 62.824 60.5553 62.724 60.2553 63.024Z" fill="#E32682"/>
<path d="M64.6551 53.724C64.5551 53.724 64.4551 54.124 64.4551 54.124C64.5551 54.224 64.7551 54.524 65.0551 54.424C65.3551 54.324 65.2551 53.924 65.1551 53.824C65.0551 53.824 64.8551 53.724 64.6551 53.724Z" fill="#E32682"/>
<path d="M77.3563 63.124C76.7563 63.124 76.2563 62.924 76.0563 63.724C75.9563 64.224 76.0563 64.524 76.5563 64.724C76.7563 64.824 76.9563 64.824 77.0563 64.724C77.3563 64.524 77.6563 64.124 78.0563 63.824C79.0563 63.924 79.8563 63.624 79.9563 63.024C80.0563 62.424 79.3563 61.524 78.6563 61.424C77.8563 61.324 77.5563 61.624 77.3563 63.124Z" fill="#E32682"/>
<path d="M76.1551 55.824C76.0551 55.824 75.9551 56.024 76.0551 56.124C76.0551 56.224 76.2551 56.324 76.3551 56.324C76.4551 56.324 76.4551 56.124 76.4551 56.024C76.4551 55.924 76.1551 55.824 76.1551 55.824Z" fill="#E32682"/>
<path d="M58.6554 66.724C59.1554 66.324 59.4554 65.424 59.0554 64.924C58.7554 64.424 57.7554 64.224 57.1554 64.624C56.7554 64.924 56.6554 65.724 57.0554 66.224C57.6554 66.824 58.1554 67.024 58.6554 66.724Z" fill="#E32682"/>
<path d="M75.3562 67.524C75.0562 67.824 74.8562 68.1239 75.1562 68.4239C75.3562 68.5239 75.6562 68.824 75.9562 68.824C76.0562 69.024 76.3562 69.1239 76.5562 69.2239C76.7562 69.3239 77.0562 69.1239 77.1562 68.9239C77.4562 68.4239 77.1562 68.0239 76.7562 67.7239C76.6562 67.8239 76.4562 67.8239 76.3562 67.9239C76.2562 67.7239 76.2562 67.624 76.1562 67.524C76.0562 67.224 75.6562 67.224 75.3562 67.524Z" fill="#E32682"/>
<path d="M72.0555 66.324C71.9555 66.424 71.8555 66.524 71.9555 66.724C72.0555 66.824 72.2555 66.824 72.2555 66.724C72.3555 66.724 72.3555 66.424 72.2555 66.424C72.2555 66.324 72.1555 66.224 72.0555 66.324Z" fill="#E32682"/>
<path d="M72.9566 62.524C72.1566 62.724 71.6566 63.624 71.8566 64.324C72.0566 65.224 72.9566 65.824 73.5566 65.624C74.3566 65.424 75.0566 64.224 74.8566 63.524C74.6566 62.824 73.7566 62.324 72.9566 62.524Z" fill="#E32682"/>
<path d="M70.9555 68.024C70.3555 68.224 69.9555 69.124 70.1555 69.724C70.2555 70.224 71.0555 70.524 71.6555 70.324C71.8555 70.224 71.9555 70.224 72.0555 70.124V70.224C72.3555 70.624 72.9555 70.724 73.3555 70.424C73.6555 70.124 73.7555 69.724 73.5555 69.324C73.2555 68.924 72.8555 68.824 72.4555 68.924C72.2555 68.324 71.4555 67.924 70.9555 68.024Z" fill="#E32682"/>
<path d="M30.2562 -48.176C23.7562 -45.076 17.6562 -40.976 12.2563 -35.576C-13.4438 -10.276 -13.6437 31.024 11.6563 56.724C20.2563 65.424 30.6563 71.224 41.6563 74.024C63.0563 35.624 59.3562 -13.176 30.2562 -48.176Z" fill="#FF957D"/>
<path fill-rule="evenodd" clip-rule="evenodd" d="M2.75493 119.023C2.66443 119.204 2.39294 119.566 2.66444 119.747C2.93593 119.928 3.29792 119.747 3.29792 119.656C3.38842 119.475 3.38842 119.204 3.29792 119.023C3.20742 118.932 2.75493 118.932 2.75493 119.023Z" fill="#42D4C6"/>
<path fill-rule="evenodd" clip-rule="evenodd" d="M3.84248 118.751C4.38546 118.842 4.83795 118.48 4.83795 118.027C4.92845 117.484 4.56645 116.941 4.02347 116.941C3.48048 116.941 2.9375 117.394 2.9375 117.846C3.028 118.299 3.38999 118.661 3.84248 118.751Z" fill="#42D4C6"/>
<path fill-rule="evenodd" clip-rule="evenodd" d="M9.18127 125.719C9.27177 125.267 8.81928 124.724 8.2763 124.724C7.73331 124.633 7.37132 124.995 7.28082 125.538C7.19032 126.081 7.46182 126.443 8.00481 126.534C8.54779 126.534 9.09078 126.262 9.18127 125.719Z" fill="#42D4C6"/>
<path fill-rule="evenodd" clip-rule="evenodd" d="M5.92199 130.878C6.01249 130.606 6.10299 130.425 6.10299 130.154C6.19349 129.701 6.10299 129.249 5.741 128.977C5.28851 128.615 4.74552 128.796 4.20253 129.068C3.93104 129.249 3.75005 129.43 3.65955 129.701C3.47855 129.339 3.02607 128.977 2.57358 128.977C2.48308 128.977 2.48308 128.977 2.39258 128.977C3.93104 129.882 5.56 130.787 7.18896 131.692C7.18896 131.692 7.18897 131.692 7.09847 131.602C6.73648 131.33 6.28399 131.149 5.92199 130.878Z" fill="#42D4C6"/>
<path fill-rule="evenodd" clip-rule="evenodd" d="M7.9141 119.747C7.37111 119.747 6.82812 120.109 6.82812 120.652C6.82812 121.195 7.19011 121.557 7.7331 121.557C8.27608 121.557 8.72857 121.104 8.72857 120.561C8.72857 119.928 8.36658 119.747 7.9141 119.747Z" fill="#42D4C6"/>
<path fill-rule="evenodd" clip-rule="evenodd" d="M26.1037 124.633C25.9227 124.995 25.8322 125.9 26.1942 126.443C26.5562 126.986 27.0992 127.167 27.6422 127.167C28.1851 127.077 28.5471 126.715 28.6376 126.353C28.8186 125.991 28.9091 125.267 28.5471 124.905C28.1851 124.452 28.0041 123.909 27.5516 123.819C27.0992 123.819 26.9182 123.909 26.7372 124.09C26.5562 124.181 26.2847 124.271 26.1037 124.633Z" fill="#42D4C6"/>
<path fill-rule="evenodd" clip-rule="evenodd" d="M13.0723 99.9276C12.8008 99.9276 12.5293 100.38 12.5293 100.561C12.5293 100.742 12.6198 101.104 12.8913 101.104C13.1628 101.104 13.3438 100.833 13.4343 100.652C13.4343 100.471 13.2533 99.9276 13.0723 99.9276Z" fill="#42D4C6"/>
<path fill-rule="evenodd" clip-rule="evenodd" d="M12.9824 103.095C12.9824 103.185 13.0729 103.638 13.3444 103.638C13.6159 103.638 13.7969 103.185 13.7969 103.004C13.7969 102.914 13.6159 102.552 13.4349 102.552C13.2539 102.642 13.0729 102.914 12.9824 103.095Z" fill="#42D4C6"/>
<path fill-rule="evenodd" clip-rule="evenodd" d="M26.6465 111.421C26.194 111.33 25.9225 111.602 25.832 112.054C25.7415 112.507 26.013 112.959 26.375 113.05C26.8274 113.14 27.3704 112.778 27.3704 112.326C27.3704 111.783 27.0989 111.511 26.6465 111.421Z" fill="#42D4C6"/>
<path fill-rule="evenodd" clip-rule="evenodd" d="M21.0352 121.557C21.0352 122.1 21.5781 122.733 22.1211 122.824C22.7546 122.824 23.9311 122.009 23.9311 121.466C23.9311 120.833 23.1166 120.199 22.3021 120.109C21.4876 120.109 21.0352 120.561 21.0352 121.557Z" fill="#42D4C6"/>
<path fill-rule="evenodd" clip-rule="evenodd" d="M22.2129 113.683C22.2129 114.226 22.5749 114.769 23.0274 114.86C23.4799 114.86 24.2943 114.317 24.2943 113.955C24.2943 113.412 23.6608 112.778 23.2084 112.688C22.6654 112.688 22.3034 113.14 22.2129 113.683Z" fill="#42D4C6"/>
<path fill-rule="evenodd" clip-rule="evenodd" d="M24.1126 105.538C23.7506 105.538 23.0266 106.172 23.1171 106.715C23.2076 107.258 23.9316 107.71 24.4746 107.258C24.6556 107.077 24.5651 106.443 24.5651 105.991C24.5651 105.9 24.5651 105.538 24.1126 105.538Z" fill="#42D4C6"/>
<path fill-rule="evenodd" clip-rule="evenodd" d="M13.1631 117.032C14.1585 117.122 14.8825 116.579 15.0635 115.493C15.154 114.679 14.5205 113.774 13.7965 113.683C12.9821 113.593 12.0771 114.498 11.9866 115.584C11.8056 116.398 12.2581 116.941 13.1631 117.032Z" fill="#42D4C6"/>
<path fill-rule="evenodd" clip-rule="evenodd" d="M3.84247 97.1221C3.93297 97.0316 3.84247 96.6697 3.75197 96.5792C3.57098 96.4887 3.20899 96.4887 3.11849 96.5792C3.02799 96.6697 2.7565 97.0316 3.11849 97.3031C3.38998 97.6651 3.66148 97.3031 3.84247 97.1221Z" fill="#42D4C6"/>
<path fill-rule="evenodd" clip-rule="evenodd" d="M37.3252 122.009C37.3252 121.557 37.0537 121.285 36.6012 121.104C35.7868 120.833 35.5153 121.014 34.9723 121.919C34.3388 122.1 33.7053 122.19 33.1623 122.371C32.6193 122.552 32.5289 123.367 33.0718 123.548C33.7053 123.819 34.3388 124.272 35.1533 124C35.3343 123.729 35.4248 123.457 35.6058 123.186C36.6012 123.005 37.3252 122.552 37.3252 122.009Z" fill="#42D4C6"/>
<path fill-rule="evenodd" clip-rule="evenodd" d="M3.20766 106.986C3.56965 107.258 4.20314 107.167 4.47463 106.805C4.83663 106.443 4.74613 105.81 4.38414 105.538C3.93165 105.267 3.47916 105.267 3.11716 105.719C2.75517 106.081 2.84567 106.715 3.20766 106.986Z" fill="#42D4C6"/>
<path fill-rule="evenodd" clip-rule="evenodd" d="M6.01359 110.516C5.38011 110.244 5.19912 110.878 4.83712 110.968C4.20364 111.24 3.84165 111.873 3.84165 112.507C3.75115 111.873 3.38916 111.421 2.84617 111.421C2.21269 111.421 1.39821 112.145 1.30771 112.778C1.21721 113.321 2.03169 114.136 2.66518 114.136C3.11767 114.136 3.75115 113.683 3.84165 113.231C3.84165 113.14 3.84165 112.959 3.84165 112.869C3.84165 112.959 3.93215 113.05 3.93215 113.14C4.38464 113.683 4.92762 113.774 5.5611 113.683C6.19459 113.502 6.46608 112.959 6.46608 112.416C6.46608 111.873 6.64708 110.878 6.01359 110.516Z" fill="#42D4C6"/>
<path fill-rule="evenodd" clip-rule="evenodd" d="M23.9313 117.032C23.8408 117.756 24.2933 118.208 25.1982 118.208C25.8317 118.208 26.2842 117.937 26.3747 117.484C26.4652 116.941 25.6507 115.765 25.1078 115.765C24.4743 115.674 24.0218 116.217 23.9313 117.032Z" fill="#42D4C6"/>
<path fill-rule="evenodd" clip-rule="evenodd" d="M2.39325 107.167C2.12175 107.258 1.94076 107.529 1.75977 107.62C1.75977 108.344 2.12176 108.706 2.57425 108.615C2.84574 108.525 3.20773 108.253 3.29823 107.982C3.38872 107.62 2.84574 107.077 2.39325 107.167Z" fill="#42D4C6"/>
<path fill-rule="evenodd" clip-rule="evenodd" d="M1.30819 98.6606C0.765202 98.6606 0.312712 98.9321 0.312712 99.3846C0.222214 100.018 0.765203 100.833 1.21769 100.833C1.57969 100.833 2.21317 100.109 2.21317 99.6561C2.21317 99.1131 1.85118 98.6606 1.30819 98.6606Z" fill="#42D4C6"/>
<path fill-rule="evenodd" clip-rule="evenodd" d="M3.93158 108.615C4.02208 109.158 4.65556 109.339 5.01755 109.43C5.47004 109.52 5.65104 109.068 5.65104 108.706C5.65104 108.253 5.28905 107.801 4.92706 107.891C4.56507 107.982 3.84109 108.072 3.93158 108.615Z" fill="#42D4C6"/>
<path fill-rule="evenodd" clip-rule="evenodd" d="M6.37494 114.588C6.19394 115.584 7.00843 116.76 8.00391 116.941C8.81839 117.032 9.99486 116.127 10.1759 115.222C10.3569 114.226 9.54237 113.412 8.1849 113.231C7.27992 113.14 6.55594 113.683 6.37494 114.588Z" fill="#42D4C6"/>
<path fill-rule="evenodd" clip-rule="evenodd" d="M9.90436 108.344C8.90888 108.253 8.27539 108.796 8.27539 109.701C8.27539 110.516 8.72788 111.24 9.36137 111.24C10.2663 111.24 11.1713 110.425 11.2618 109.611C11.2618 109.068 10.5378 108.344 9.90436 108.344Z" fill="#42D4C6"/>
<path fill-rule="evenodd" clip-rule="evenodd" d="M6.01435 104.181C5.56187 104.09 5.01889 104.724 4.83789 105.629C5.01889 105.719 5.19988 106.081 5.47137 106.172C6.10485 106.353 6.82883 105.9 6.91933 105.357C7.00983 104.905 6.46684 104.271 6.01435 104.181Z" fill="#42D4C6"/>
<path fill-rule="evenodd" clip-rule="evenodd" d="M-0.593095 97.9366C-0.774091 98.2986 -0.683597 98.5701 -0.321604 98.7511C0.0403879 98.9321 0.311885 98.6606 0.402383 98.4796C0.492881 98.2986 0.583381 98.0271 0.311886 97.7556C-0.050106 97.4841 -0.412098 97.5746 -0.593095 97.9366Z" fill="#42D4C6"/>
<path fill-rule="evenodd" clip-rule="evenodd" d="M5.65243 122.19C5.19994 122.371 4.92844 122.733 5.01894 123.276C4.92844 123.276 4.83795 123.276 4.74745 123.276C3.93297 123.185 3.20898 123.728 3.20898 124.271C3.20898 125.086 4.20446 126.081 5.01894 126.172C5.65243 126.172 6.10492 125.538 6.19542 124.724C6.19542 124.452 6.19542 124.271 6.10492 124.09C6.64791 124 6.8289 123.547 7.1004 123.004C6.64791 122.552 6.37641 121.918 5.65243 122.19Z" fill="#42D4C6"/>
<path fill-rule="evenodd" clip-rule="evenodd" d="M19.4065 111.964C18.6826 111.873 17.9586 112.326 17.8681 112.869C17.7776 113.502 18.4111 114.317 18.8636 114.317C19.497 114.407 20.04 113.683 20.1305 112.778C20.1305 112.326 19.859 112.054 19.4065 111.964Z" fill="#42D4C6"/>
<path fill-rule="evenodd" clip-rule="evenodd" d="M17.3263 128.796C17.2358 129.611 17.5978 130.244 18.2312 130.244C18.7742 130.244 19.9507 129.43 19.9507 128.887C20.0412 128.163 19.4982 127.71 18.6837 127.529C17.8692 127.529 17.5073 127.891 17.3263 128.796Z" fill="#42D4C6"/>
<path fill-rule="evenodd" clip-rule="evenodd" d="M19.6784 123.005C18.683 123.005 17.959 123.366 17.959 124C17.959 124.633 18.7735 125.448 19.4069 125.448C19.8594 125.448 20.5834 124.633 20.5834 124.09C20.6739 123.548 20.1309 123.005 19.6784 123.005Z" fill="#42D4C6"/>
<path fill-rule="evenodd" clip-rule="evenodd" d="M22.0307 127.439C22.3022 127.439 22.3022 126.986 22.3022 126.805C22.2117 126.624 21.9402 126.353 21.6687 126.534C21.3972 126.624 21.3067 126.896 21.3972 127.077C21.4877 127.258 21.8497 127.529 22.0307 127.439Z" fill="#42D4C6"/>
<path fill-rule="evenodd" clip-rule="evenodd" d="M9.63398 128.706C8.729 128.706 7.91452 129.43 7.82403 130.244C7.73353 131.421 8.45751 132.326 9.54348 132.416C10.358 132.416 10.9009 132.054 11.1724 131.33C11.2629 131.33 11.3534 131.33 11.3534 131.33C12.1679 131.33 12.9824 130.516 13.0729 129.611C13.1634 128.796 12.3489 127.71 11.5344 127.71C10.72 127.71 9.99597 128.072 9.63398 128.706Z" fill="#42D4C6"/>
<path fill-rule="evenodd" clip-rule="evenodd" d="M10.5374 122.733C9.90396 122.914 9.81346 123.457 9.99446 124C10.6279 124.452 11.1709 124.362 11.7139 123.638C11.4424 123.185 11.2614 122.552 10.5374 122.733Z" fill="#42D4C6"/>
<path fill-rule="evenodd" clip-rule="evenodd" d="M14.2494 124.362C13.4349 124.452 12.9824 124.814 12.9824 125.176C12.9824 125.629 13.7969 126.262 14.2494 126.262C14.6114 126.262 15.1544 125.538 15.1544 124.995C15.1544 124.543 14.7924 124.271 14.2494 124.362Z" fill="#42D4C6"/>
<path fill-rule="evenodd" clip-rule="evenodd" d="M16.692 119.113C16.33 118.932 15.3346 119.475 15.2441 119.928C15.1536 120.29 15.6061 121.104 16.0585 121.195C16.511 121.376 16.873 121.104 16.9635 120.561C17.235 119.747 17.1445 119.204 16.692 119.113Z" fill="#42D4C6"/>
<path fill-rule="evenodd" clip-rule="evenodd" d="M33.2539 118.842C33.1634 118.661 33.1634 118.389 32.8015 118.389C32.4395 118.389 32.4395 118.661 32.4395 118.751C32.4395 118.932 32.53 119.385 32.8015 119.385C33.1634 119.475 33.2539 118.932 33.2539 118.842Z" fill="#42D4C6"/>
<path fill-rule="evenodd" clip-rule="evenodd" d="M29.4523 132.507C29.9048 132.869 30.5383 133.412 31.0813 132.869C31.6243 132.235 31.2623 131.873 31.0813 131.692C30.9003 131.511 30.8098 131.059 31.0813 131.149C31.3528 131.24 31.6243 131.059 31.8053 130.425C31.9863 129.792 31.8958 129.339 31.2623 128.977C30.5383 128.615 29.6333 129.068 29.3618 129.792C28.9999 130.606 29.4523 130.878 29.1808 131.33C28.8189 131.783 28.9999 132.054 29.4523 132.507Z" fill="#42D4C6"/>
<path fill-rule="evenodd" clip-rule="evenodd" d="M35.9675 118.208C36.42 117.846 35.9675 116.579 35.334 116.489C34.7005 116.398 33.9766 116.851 33.9766 117.394C33.9766 117.937 35.515 118.48 35.9675 118.208Z" fill="#42D4C6"/>
<path fill-rule="evenodd" clip-rule="evenodd" d="M21.67 116.76C21.127 116.67 20.8555 116.308 20.4935 116.036C20.3125 115.855 19.7695 115.946 19.5885 116.127C19.3171 116.308 19.2266 116.67 19.2266 117.032C19.2266 117.213 19.5886 117.484 19.86 117.575C20.3125 117.756 20.8555 117.756 21.3985 117.846C21.851 117.846 22.032 117.665 22.032 117.122C21.9415 117.032 21.851 116.76 21.67 116.76Z" fill="#42D4C6"/>
<path fill-rule="evenodd" clip-rule="evenodd" d="M-1.04473 116.851C-1.13523 117.484 -0.773242 118.389 -0.230258 118.48C0.765212 118.661 1.3082 117.756 1.57969 117.213C1.85118 116.67 0.855707 115.855 -0.0492661 115.946C-0.682747 116.036 -0.954237 116.308 -1.04473 116.851Z" fill="#42D4C6"/>
<path fill-rule="evenodd" clip-rule="evenodd" d="M-4.39453 124.814C-2.94657 125.81 -1.4986 126.715 -0.0506377 127.62C0.0398602 127.529 0.130359 127.439 0.311355 127.439C0.854341 127.258 1.30683 126.715 1.12584 125.991C0.94484 125.267 0.492347 124.724 0.492347 124.362C0.492347 124 0.763842 123.638 1.30683 123.728C1.84981 123.819 2.66429 123.457 2.84529 122.371C3.02628 121.285 1.94031 120.199 1.21633 120.561C0.49235 120.923 0.492346 121.466 0.130355 121.376C-0.141138 121.285 -0.593621 120.742 -1.13661 121.014C-1.5891 121.285 -1.40811 122.914 -1.22711 123.185C-1.04612 123.457 -0.412631 123.819 -0.774622 124.271C-1.04612 124.543 -1.40811 124.724 -1.6796 125.086C-1.7701 124.905 -1.95109 124.724 -2.13209 124.633C-2.67507 124.362 -3.30855 124.362 -3.76104 124.724C-4.03254 124.543 -4.21354 124.633 -4.39453 124.814Z" fill="#42D4C6"/>
</g>
</g>
</g>
<defs>
<clipPath id="clip0_2978_38656">
<rect width="1624" height="477" rx="6" fill="white"/>
</clipPath>
<clipPath id="clip1_2978_38656">
<rect width="165" height="92" fill="white" transform="translate(1459 385)"/>
</clipPath>
<clipPath id="clip2_2978_38656">
<rect width="123" height="130" fill="white"/>
</clipPath>
</defs>
</svg>
