<svg xmlns="http://www.w3.org/2000/svg" width="32" height="32" viewBox="0 0 32 32">
  <g fill="none" fill-rule="evenodd">
    <path fill="#00BFB3" d="M25.625,6 L6.375,6 C5.615,6 5,6.24722222 5,6.93796296 L5,29.437037 C5,30.1277778 5.615,31 6.375,31 L25.625,31 C26.385,31 27,30.1277778 27,29.437037 L27,6.93796296 C27,6.24722222 26.385,6 25.625,6"/>
    <path fill="#14A7DF" d="M21.5996,3.7998 L20.2006,3.7998 C19.8136,3.7998 19.4996,3.4868 19.4996,3.0998 L19.4996,2.4008 C19.4996,1.6268 18.8726,0.9998 18.0996,0.9998 L13.9006,0.9998 C13.1266,0.9998 12.4996,1.6268 12.4996,2.4008 L12.4996,3.0998 C12.4996,3.4868 12.1866,3.7998 11.7996,3.7998 L10.4006,3.7998 C9.6266,3.7998 8.9996,4.4268 8.9996,5.1998 L8.9996,6.5998 C8.9996,7.3728 9.6266,7.9998 10.4006,7.9998 L21.5996,7.9998 C22.3726,7.9998 22.9996,7.3728 22.9996,6.5998 L22.9996,5.1998 C22.9996,4.4268 22.3726,3.7998 21.5996,3.7998" style="mix-blend-mode:multiply"/>
    <path fill="#0078A0" d="M27,29.3125 L27,18.8075 C26.925,18.8515 20.939,16.7805 20.872,16.8515 L15.544,22.4945 L14.315,23.7955 C13.951,24.1805 13.367,24.1805 13.003,23.7955 L10.256,20.8885 C9.909,20.5225 9.358,20.5015 8.99,20.8435 L5,24.5345 L5,29.3125 C5,30.0575 5.615,30.9995 6.375,30.9995 L25.625,30.9995 C26.385,30.9995 27,30.0575 27,29.3125"/>
    <path fill="#14A7DF" d="M25.4092,10.5908 L19.4972,16.8518 L15.3562,21.2368 L14.0122,22.6608 L12.9402,23.7958 L6.1672,30.9688 C6.2352,30.9848 6.3042,30.9998 6.3752,30.9998 L25.6252,30.9998 C26.3852,30.9998 27.0002,30.0578 27.0002,29.3128 L27.0002,11.3068 C27.0002,10.4148 26.0002,9.9658 25.4092,10.5908"/>
  </g>
</svg>
