<svg xmlns="http://www.w3.org/2000/svg" width="32" height="32" viewBox="0 0 32 32" fill="none"><path fill="#29B5E8" d="M20.372 14.09l4.39-2.535a.982.982 0 00.36-1.341.982.982 0 00-1.341-.36l-4.39 2.535V7.32a.982.982 0 00-.982-.98.982.982 0 00-.98.98v5.07l-4.39-2.535a.982.982 0 00-1.341.36.982.982 0 00.36 1.341l4.39 2.535-4.39 2.535a.982.982 0 00-.36 1.341.982.982 0 001.341.36l4.39-2.535v5.07a.982.982 0 00.98.98.982.982 0 00.982-.98v-5.07l4.39 2.535a.982.982 0 001.341-.36.982.982 0 00-.36-1.341l-4.39-2.535z"/><path fill="#29B5E8" d="M16 0C7.163 0 0 7.163 0 16s7.163 16 16 16 16-7.163 16-16S24.837 0 16 0zm2.429 25.76a.982.982 0 01-.982.98.982.982 0 01-.98-.98v-2.572l-4.39 2.535a.982.982 0 01-1.341-.36.982.982 0 01.36-1.341l4.39-2.535-4.39-2.535a.982.982 0 01-.36-1.341.982.982 0 011.341-.36l4.39 2.535v-5.07l-4.39-2.535a.982.982 0 01-.36-1.341.982.982 0 011.341-.36l4.39 2.535V7.32a.982.982 0 01.98-.98.982.982 0 01.982.98v5.07l4.39-2.535a.982.982 0 011.341.36.982.982 0 01-.36 1.341l-4.39 2.535 4.39 2.535a.982.982 0 01.36 1.341.982.982 0 01-1.341.36l-4.39-2.535v5.07l4.39-2.535a.982.982 0 011.341.36.982.982 0 01-.36 1.341l-4.39 2.535v2.572z"/></svg>
