<svg width="16" height="16" viewBox="0 0 16 16" fill="none" xmlns="http://www.w3.org/2000/svg">
  <path fill-rule="evenodd" clip-rule="evenodd" d="M7.5 11C8.88071 11 10 9.88071 10 8.5C10 7.11929 8.88071 6 7.5 6C6.11929 6 5 7.11929 5 8.5C5 9.88071 6.11929 11 7.5 11ZM4.03544 9C4.27806 10.6961 5.73676 12 7.5 12C9.26324 12 10.7219 10.6961 10.9646 9H14.5C14.7761 9 15 8.77614 15 8.5C15 8.22386 14.7761 8 14.5 8H10.9646C10.7219 6.30385 9.26324 5 7.5 5C5.73676 5 4.27806 6.30385 4.03544 8L0.5 8C0.223858 8 0 8.22386 0 8.5C0 8.77614 0.223858 9 0.5 9L4.03544 9Z" fill="#000" />
</svg>
