<svg width="117" height="91" viewBox="0 0 117 91" fill="none" xmlns="http://www.w3.org/2000/svg">
<g clip-path="url(#clip0_1_1752)">
<mask id="mask0_1_1752" style="mask-type:luminance" maskUnits="userSpaceOnUse" x="0" y="0" width="117" height="91">
<path d="M117 0H0V90.821H117V0Z" fill="white"/>
</mask>
<g mask="url(#mask0_1_1752)">
<path d="M48.1794 71.7809L42.9235 90.3176H81.467L75.325 71.7809H48.1794Z" fill="#101C3F" stroke="#101C3F" stroke-miterlimit="10"/>
<path d="M103.679 0.503442H23.3497C17.3788 0.503442 12.5458 5.33649 12.5458 11.3073V60.9769C12.5458 66.9478 17.3788 71.7808 23.3497 71.7808H103.679C109.65 71.7808 114.483 66.9478 114.483 60.9769V11.3073C114.483 5.33649 109.65 0.503442 103.679 0.503442Z" fill="#153385" stroke="#101C3F" stroke-miterlimit="10"/>
<path d="M98.1713 0.503442H17.842C11.8712 0.503442 7.03812 5.33649 7.03812 11.3073V60.9769C7.03812 66.9478 11.8712 71.7808 17.842 71.7808H98.1713C104.142 71.7808 108.975 66.9478 108.975 60.9769V11.3073C108.975 5.33649 104.142 0.503442 98.1713 0.503442Z" fill="white"/>
<path d="M108.975 58.7014H7.03812H108.975Z" fill="white"/>
<path d="M108.975 58.7014H7.03812" stroke="#101C3F" stroke-miterlimit="10"/>
<path d="M98.1713 0.503442H17.842C11.8712 0.503442 7.03812 5.33649 7.03812 11.3073V60.9769C7.03812 66.9478 11.8712 71.7808 17.842 71.7808H98.1713C104.142 71.7808 108.975 66.9478 108.975 60.9769V11.3073C108.975 5.33649 104.142 0.503442 98.1713 0.503442Z" stroke="#101C3F" stroke-miterlimit="10"/>
<path d="M43.9908 71.7809L38.7349 90.3176H77.2784L71.1364 71.7809H43.9908Z" fill="white" stroke="#101C3F" stroke-miterlimit="10"/>
<path d="M19.5235 4.93376H96.3589C100.88 4.93376 104.555 8.60889 104.555 13.1298V56.4762H11.3275V13.1298C11.3275 8.60889 15.0026 4.93376 19.5235 4.93376Z" fill="#0B64DD"/>
<path d="M11.0757 23.8733C19.302 23.8733 16.825 42.6316 25.0412 42.6316C33.2574 42.6316 33.2574 13.2708 41.4837 13.2708C49.7099 13.2708 49.7099 42.6316 57.9261 42.6316C66.1423 42.6316 66.1523 23.8733 74.3786 23.8733C82.6048 23.8733 82.6048 42.6316 90.8311 42.6316C99.0573 42.6316 95.9863 24.1652 104.213 24.1652" stroke="white" stroke-miterlimit="10"/>
<path d="M56.4258 69.2636C58.5503 69.2636 60.2721 67.5419 60.2721 65.4173C60.2721 63.2928 58.5503 61.571 56.4258 61.571C54.3013 61.571 52.5795 63.2928 52.5795 65.4173C52.5795 67.5419 54.3013 69.2636 56.4258 69.2636Z" fill="#101C3F"/>
<path d="M68.2265 14.9322C77.4596 11.5289 86.0383 15.1637 90.7002 21.638C76.7649 10.2803 55.0464 23.682 57.1911 41.091C57.5435 43.9304 58.5403 46.5383 60.0103 48.7937C56.7984 46.065 54.5228 42.0878 54.0194 36.8118C53.1031 27.2967 59.3659 18.1844 68.2265 14.9221V14.9322Z" fill="#101C3F" stroke="#101C3F" stroke-miterlimit="10"/>
<path d="M47.4847 38.5536C49.2467 52.7607 62.9404 62.0039 76.7649 59.8089C99.5608 56.1841 111.361 23.8732 89.2201 10.6528C70.059 -0.795491 44.8366 16.8653 47.4847 38.5536ZM88.1528 18.2346C102.571 30.7905 90.086 53.8884 72.5158 53.5864C63.2525 53.4253 55.2075 46.6187 54.0697 37.3252C51.8948 19.6745 74.2175 6.11174 88.1528 18.2346Z" fill="#48EFCF" stroke="#101C3F" stroke-miterlimit="10"/>
<path d="M76.7649 59.809C94.4861 56.9897 105.552 36.852 99.2184 21.7991C104.615 29.1997 106.106 39.4296 100.427 49.287C90.2873 66.8672 63.041 68.4078 53.6367 51.8244C59.2854 57.9865 68.005 61.1985 76.775 59.809H76.7649Z" fill="#153385" stroke="#101C3F" stroke-miterlimit="10"/>
<path d="M111.986 86.723L113.506 85.5449C115.288 84.1655 115.621 81.5979 114.241 79.8057L95.7749 55.9123C94.3954 54.1301 91.8279 53.7978 90.0457 55.1773L88.5253 56.3553C86.7431 57.7348 86.4108 60.3023 87.7903 62.0946L106.257 85.9879C107.636 87.7701 110.204 88.1024 111.986 86.723Z" fill="#153385" stroke="#101C3F" stroke-miterlimit="10"/>
<path d="M113.385 85.6457L114.906 84.4676C116.688 83.0882 117.02 80.5206 115.641 78.7384L97.1744 54.8451C95.795 53.0629 93.2274 52.7306 91.4352 54.11L89.9148 55.2881C88.1326 56.6675 87.8003 59.2351 89.1798 61.0273L107.646 84.9207C109.025 86.7029 111.593 87.0352 113.375 85.6557L113.385 85.6457Z" fill="#48EFCF" stroke="#101C3F" stroke-miterlimit="10"/>
</g>
</g>
<defs>
<clipPath id="clip0_1_1752">
<rect width="116.2" height="90.2" fill="white" transform="scale(1.00688)"/>
</clipPath>
</defs>
</svg>
