<svg width="32" height="28" viewBox="0 0 32 28" fill="none" xmlns="http://www.w3.org/2000/svg">
<path d="M20 14V12H26V14H20Z" fill="#00BFB3"/>
<path d="M12 14V12H18V14H12Z" fill="#00BFB3"/>
<path d="M1 7V5H31V7H1Z" fill="#535766"/>
<path d="M10.7275 15.3139L9.27247 16.6861L5.79651 13L9.27247 9.31393L10.7275 10.6861L8.54551 13L10.7275 15.3139Z" fill="#535766"/>
<path d="M12 19V21H6V19H12Z" fill="#00BFB3"/>
<path d="M20 19V21H14V19H20Z" fill="#00BFB3"/>
<path d="M21.2929 17.7071L22.7071 16.2929L26.4142 20L22.7071 23.7071L21.2929 22.2929L23.5858 20L21.2929 17.7071Z" fill="#535766"/>
<path fill-rule="evenodd" clip-rule="evenodd" d="M29 0H3C1.34315 0 0 1.34315 0 3V25C0 26.6569 1.34315 28 3 28H29C30.6569 28 32 26.6569 32 25V3C32 1.34315 30.6569 0 29 0ZM2 3C2 2.44772 2.44772 2 3 2H29C29.5523 2 30 2.44772 30 3V25C30 25.5523 29.5523 26 29 26H3C2.44772 26 2 25.5523 2 25V3Z" fill="#535766"/>
</svg>
