<svg width="40" height="40" viewBox="0 0 40 40" fill="none" xmlns="http://www.w3.org/2000/svg">
<path d="M6.6272 8.39478L14.8712 16.4368L16.6169 14.6472L8.3729 6.60522L6.6272 8.39478Z" fill="#00BFB3"/>
<path d="M32.3512 7.7684L23.3247 14.8851L24.8725 16.8483L33.899 9.73161L32.3512 7.7684Z" fill="#00BFB3"/>
<path d="M27.8989 30.5331L23.5239 24.2831L21.4758 25.7168L25.8508 31.9668L27.8989 30.5331Z" fill="#00BFB3"/>
<path d="M7.91303 25.5548L14.4074 23.2818L13.5815 20.9222L7.08716 23.1952L7.91303 25.5548Z" fill="#00BFB3"/>
<path d="M20 27.5C24.1421 27.5 27.5 24.1421 27.5 20C27.5 15.8579 24.1421 12.5 20 12.5C15.8579 12.5 12.5 15.8579 12.5 20C12.5 24.1421 15.8579 27.5 20 27.5ZM20 25C17.2386 25 15 22.7614 15 20C15 17.2386 17.2386 15 20 15C22.7614 15 25 17.2386 25 20C25 22.7614 22.7614 25 20 25Z" fill="#545966"/>
<path d="M5 10C7.76142 10 10 7.76142 10 5C10 2.23858 7.76142 0 5 0C2.23858 0 0 2.23858 0 5C0 7.76142 2.23858 10 5 10ZM5 7.5C3.61929 7.5 2.5 6.38071 2.5 5C2.5 3.61929 3.61929 2.5 5 2.5C6.38071 2.5 7.5 3.61929 7.5 5C7.5 6.38071 6.38071 7.5 5 7.5Z" fill="#545966"/>
<path d="M28.75 40C31.5114 40 33.75 37.7614 33.75 35C33.75 32.2386 31.5114 30 28.75 30C25.9886 30 23.75 32.2386 23.75 35C23.75 37.7614 25.9886 40 28.75 40ZM28.75 37.5C27.3693 37.5 26.25 36.3807 26.25 35C26.25 33.6193 27.3693 32.5 28.75 32.5C30.1307 32.5 31.25 33.6193 31.25 35C31.25 36.3807 30.1307 37.5 28.75 37.5Z" fill="#545966"/>
<path d="M40 6.875C40 4.45875 38.0412 2.5 35.625 2.5C33.2088 2.5 31.25 4.45875 31.25 6.875C31.25 9.29125 33.2088 11.25 35.625 11.25C38.0412 11.25 40 9.29125 40 6.875ZM33.75 6.875C33.75 5.83947 34.5895 5 35.625 5C36.6605 5 37.5 5.83947 37.5 6.875C37.5 7.91053 36.6605 8.75 35.625 8.75C34.5895 8.75 33.75 7.91053 33.75 6.875Z" fill="#545966"/>
<path d="M8.75 25.625C8.75 23.2088 6.79125 21.25 4.375 21.25C1.95875 21.25 0 23.2088 0 25.625C0 28.0412 1.95875 30 4.375 30C6.79125 30 8.75 28.0412 8.75 25.625ZM2.5 25.625C2.5 24.5895 3.33947 23.75 4.375 23.75C5.41053 23.75 6.25 24.5895 6.25 25.625C6.25 26.6605 5.41053 27.5 4.375 27.5C3.33947 27.5 2.5 26.6605 2.5 25.625Z" fill="#545966"/>
</svg>
