<svg width="128" height="128" viewBox="0 0 128 128" fill="none" xmlns="http://www.w3.org/2000/svg">
<path d="M108.03 21.9404H36.9605C34.2101 21.9404 31.9805 24.1701 31.9805 26.9204V66.6304C31.9805 69.3808 34.2101 71.6104 36.9605 71.6104H108.03C110.781 71.6104 113.01 69.3808 113.01 66.6304V26.9204C113.01 24.1701 110.781 21.9404 108.03 21.9404Z" fill="#153385" stroke="#101C3F" stroke-miterlimit="10"/>
<path d="M105.33 21.5H36.9605C34.2101 21.5 31.9805 23.7296 31.9805 26.48V64.54C31.9805 67.2904 34.2101 69.52 36.9605 69.52H105.33C108.081 69.52 110.31 67.2904 110.31 64.54V26.48C110.31 23.7296 108.081 21.5 105.33 21.5Z" fill="#48EFCF" stroke="#101C3F" stroke-miterlimit="10"/>
<path d="M95.77 32.2695H13.48C10.7296 32.2695 8.5 34.4992 8.5 37.2495V86.1495C8.5 88.8999 10.7296 91.1295 13.48 91.1295H95.77C98.5204 91.1295 100.75 88.8999 100.75 86.1495V37.2495C100.75 34.4992 98.5204 32.2695 95.77 32.2695Z" fill="#153385" stroke="#101C3F" stroke-miterlimit="10"/>
<path d="M92.8 32.2695H13.48C10.7296 32.2695 8.5 34.4992 8.5 37.2495V83.6195C8.5 86.3699 10.7296 88.5995 13.48 88.5995H92.8C95.5504 88.5995 97.78 86.3699 97.78 83.6195V37.2495C97.78 34.4992 95.5504 32.2695 92.8 32.2695Z" fill="#0B64DD" stroke="#101C3F" stroke-miterlimit="10"/>
<path d="M17.7002 42.6895H68.1302" stroke="white" stroke-miterlimit="10"/>
<path d="M18.04 54.7295H51.05" stroke="white" stroke-miterlimit="10"/>
<path d="M59.4805 54.7295H85.3405" stroke="white" stroke-miterlimit="10"/>
<path d="M17.8301 79.7793H68.2701" stroke="white" stroke-miterlimit="10"/>
<path d="M79.1104 46.3595C81.1373 46.3595 82.7804 44.7164 82.7804 42.6895C82.7804 40.6626 81.1373 39.0195 79.1104 39.0195C77.0835 39.0195 75.4404 40.6626 75.4404 42.6895C75.4404 44.7164 77.0835 46.3595 79.1104 46.3595Z" fill="white"/>
<path d="M82.7806 68.1191H32.3506" stroke="white" stroke-miterlimit="10"/>
<path d="M21.3702 71.7892C23.3971 71.7892 25.0402 70.1461 25.0402 68.1192C25.0402 66.0923 23.3971 64.4492 21.3702 64.4492C19.3433 64.4492 17.7002 66.0923 17.7002 68.1192C17.7002 70.1461 19.3433 71.7892 21.3702 71.7892Z" fill="white"/>
<path d="M84.1295 122.68C100.207 122.68 113.24 109.647 113.24 93.57C113.24 77.493 100.207 64.46 84.1295 64.46C68.0525 64.46 55.0195 77.493 55.0195 93.57C55.0195 109.647 68.0525 122.68 84.1295 122.68Z" fill="#48EFCF" stroke="#101C3F" stroke-linejoin="round"/>
<path d="M68.3303 92.7502L67.7803 92.4902L70.5103 91.2402C81.1503 96.1602 87.1103 102.97 91.3503 113.85L88.6003 115.07C84.4603 104.44 78.7303 97.6202 68.3303 92.7502Z" fill="#101C3F" stroke="#101C3F" stroke-linecap="round" stroke-linejoin="round"/>
<path d="M107.31 94.2502L107.86 94.5102L110.63 93.2702C100.02 88.3502 94.0904 81.5502 89.8604 70.7002L87.1104 71.9702C91.2404 82.5702 96.9503 89.3902 107.31 94.2502Z" fill="#101C3F" stroke="#101C3F" stroke-linejoin="round"/>
<path d="M107.86 94.5105C97.4398 98.4005 92.0798 104.591 88.5898 115.071L91.3398 113.851C94.8298 103.361 100.19 97.1605 110.62 93.2705L107.85 94.5105H107.86Z" stroke="black" stroke-linecap="round" stroke-linejoin="round"/>
<path d="M110.631 93.2702C100.201 97.1602 94.8407 103.36 91.3507 113.85C87.1107 102.96 81.1507 96.1602 70.5107 91.2402C80.9607 87.3602 86.3607 81.2002 89.8707 70.7002C94.1007 81.5502 100.031 88.3502 110.641 93.2702H110.631Z" fill="white" stroke="#101C3F" stroke-linejoin="round"/>
<path d="M86.9203 72.5402L87.1203 71.9702L89.8703 70.7002C85.7003 83.1802 79.2603 87.2202 67.7803 92.4902C77.9703 88.7102 83.4503 82.8002 86.9203 72.5402Z" fill="#101C3F" stroke="#101C3F" stroke-linejoin="round"/>
<path d="M96.43 72.0002L96.21 71.9002L97.29 71.4102C101.48 73.3502 103.83 76.0302 105.5 80.3202L104.42 80.8002C102.79 76.6102 100.53 73.9202 96.43 72.0002Z" fill="#101C3F" stroke="#101C3F" stroke-linecap="round" stroke-linejoin="round"/>
<path d="M111.8 72.5898L112.02 72.6898L113.11 72.1998C108.93 70.2598 106.59 67.5798 104.93 63.2998L103.85 63.7998C105.48 67.9798 107.73 70.6598 111.81 72.5798L111.8 72.5898Z" fill="#101C3F" stroke="#101C3F" stroke-linejoin="round"/>
<path d="M112.01 72.6902C107.9 74.2202 105.79 76.6602 104.42 80.7902L105.5 80.3102C106.88 76.1802 108.99 73.7302 113.1 72.2002L112.01 72.6902Z" stroke="black" stroke-linecap="round" stroke-linejoin="round"/>
<path d="M113.1 72.1998C108.99 73.7298 106.88 76.1798 105.5 80.3098C103.83 76.0198 101.48 73.3398 97.29 71.3998C101.41 69.8698 103.54 67.4398 104.92 63.2998C106.59 67.5798 108.92 70.2598 113.1 72.1998Z" fill="white" stroke="#101C3F" stroke-linejoin="round"/>
<path d="M103.76 64.0296L103.84 63.8096L104.92 63.3096C103.28 68.2296 100.74 69.8196 96.2197 71.8996C100.23 70.4096 102.4 68.0796 103.76 64.0396V64.0296Z" fill="#101C3F" stroke="#101C3F" stroke-linejoin="round"/>
</svg>
