<svg xmlns="http://www.w3.org/2000/svg" width="176" height="175" fill="none"><path fill="#ECF0F6" d="M88 169.531c45.305 0 82.031-36.726 82.031-82.031S133.305 5.469 88 5.469 5.969 42.195 5.969 87.5 42.695 169.531 88 169.531"/><path fill="#fff" d="M157.959 67.73c.219-.355-.096-.642-.451-.793-.356-.15-.902 0-.916.397s-.151.943.342 1.066c.492.123.861-.396 1.025-.67M156.496 69.535a1 1 0 0 0-.301-.78c-.3-.245-.957.083-.998.493.007.231.073.457.192.656.574.219 1.08.014 1.107-.369M159.312 65.01a1.19 1.19 0 0 0 1.518-.479 1.81 1.81 0 0 0-.834-2.119 1.19 1.19 0 0 0-1.258.451 1.8 1.8 0 0 0-1.463-.26 1.724 1.724 0 0 0-.875 2.092 1.684 1.684 0 0 0 2.024.998c.355-.14.663-.376.888-.683M145.613 29.34s.082 0 .137-.096c-.424-.424-.875-.82-1.299-1.23a.83.83 0 0 0-.068.765.88.88 0 0 0 .486.564.89.89 0 0 0 .744-.003M153.762 65.229c-.192.396.177 1.066.902 1.367.164 0 .533-.137.684-.356a1 1 0 0 0 .211-.357q.066-.201.044-.413a.97.97 0 0 0-.419-.694.97.97 0 0 0-1.168.056 1 1 0 0 0-.254.328zM157.275 61.414a.944.944 0 0 0 1.053-.588.66.66 0 0 0 0-.56c-.301-.328-.656-.602-1.012-.93 0-1.108-.369-1.887-1.025-1.914a1.65 1.65 0 0 0-1.23.725.43.43 0 0 0-.329.177.36.36 0 0 0 0 .315q-.062.151-.082.314c0 .766.315.998 1.846 1.149.068.601-.014 1.216.779 1.312M154.773 53.102c-.724.314-.97.724-.738 1.244a1.13 1.13 0 0 0 .577.708 1.12 1.12 0 0 0 .913.044 1.92 1.92 0 0 0 .547-1.696c-.164-.478-.642-.588-1.299-.3M150.891 42.861a.95.95 0 0 0 .437 0q.262.289.451.63a1.37 1.37 0 0 0 1.504.833c.67-.11.93-.588.533-1.504-.3-.287-.752-.779-1.271-1.203a.3.3 0 0 0 0-.095 1.11 1.11 0 0 0-.582-1.093 1.1 1.1 0 0 0-.416-.124c-.697-.15-1.668.3-1.778.82a1.57 1.57 0 0 0 1.122 1.736M154.678 41.016c.23-.132.402-.348.478-.602a61 61 0 0 0-1.9-2.611.7.7 0 0 0-.397.164.793.793 0 0 0-.15 1.162c.102.117.228.21.369.273a.978.978 0 0 0 .069.752c.478.862.902 1.162 1.531.862M160.543 50.04a1.07 1.07 0 0 0 .684 1.188c.111.034.23.034.341 0a21 21 0 0 0-.724-1.367.33.33 0 0 0-.301.178M165.164 59.61a82 82 0 0 0-1.258-3.227 5 5 0 0 0-.506.287 1.25 1.25 0 0 0-.588 1 1.24 1.24 0 0 0 .493 1.05 9.5 9.5 0 0 0 1.859.89M160.283 55.111c.169.212.378.388.615.52a6 6 0 0 0 .711.424c.807.423 1.368.355 1.805-.22a1.6 1.6 0 0 0 .15-.313c-.3-.712-.628-1.368-.957-2.106a11.5 11.5 0 0 1-1.367-1.367c-.451-.56-1.367-.902-1.75-.56a1.07 1.07 0 0 0 0 1.27c.533.384.274.794.328 1.231.069.404.228.787.465 1.121M151.437 37.625c.93.492 1.368.506 1.709 0a41 41 0 0 0-1.189-1.518c-.588.383-.533.971-.52 1.518M149.523 36.518a.9.9 0 0 0 .657-.506c.037-.37-.065-.741-.287-1.04-.52-.478-.916 0-1.368.342.055.684.246 1.217.998 1.204M62.393 24.8a1.16 1.16 0 0 0 .123-1.366c-.67-.698-1.518-.903-1.956-.465a1.7 1.7 0 0 0 .096 1.927 1.56 1.56 0 0 0 1.737-.095M92.32 6.357c-.437.766-.287 1.286.506 1.764a1.27 1.27 0 0 0 1.696-.15 1.93 1.93 0 0 0-.643-2.27h-.697c-.357.108-.663.34-.862.656M158.068 73.09c.342-.192.561-.533.315-.875s-.793-.834-1.094-.684-.26.752-.232 1.135a.69.69 0 0 0-.813.198.7.7 0 0 0-.131.267.58.58 0 0 0 .01.522q.064.121.178.2t.25.098c.287 0 1.039.178 1.148-.205a.8.8 0 0 0-.137-.56.72.72 0 0 0 .506-.096M84.404 14.78c-.15.136-.273.833-.082.997.192.164.916 0 .97-.177.056-.178.165-.834 0-.944a.93.93 0 0 0-.888.123M88.78 6.275a1.5 1.5 0 0 0-.165-.369c.116-.116.205-.256.26-.41L88 5.47h-.574v.136a.4.4 0 0 0-.11.096q-.293.624-.492 1.285c-1.052.356-1.627 1.012-1.367 1.655a1.82 1.82 0 0 0 1.955.93c.738-.233.834-.657.41-2.133.56-.247 1.162-.397.957-1.163M97.912 9.693c.438-.109.944-.082 1.203-.478.26-.397 1.039-1.518.575-2.27-.465-.752-.998-.164-1.49-.232a1.19 1.19 0 0 0-1.135.506 1.64 1.64 0 0 0-.875.45 1.46 1.46 0 0 0 .013 1.778.57.57 0 0 1-.45-.15c-.37-.342-1.177-.342-1.82.478-.642.82-.218 2.092.548 2.133.765.041.97-.369 1.162-.178.191.192.369.82.875.807.506-.014 1.052-1.45 1.052-1.695s-.287-.684-.082-.957q.226-.068.424-.192M112.678 9.57a1.63 1.63 0 0 0-1.723.315 1.68 1.68 0 0 0 .588 1.777.77.77 0 0 0 1.066-.246c.575-.807.588-1.545.069-1.846M100.168 9.57c-.219.328 0 .78.137 1.08.136.301.738.192.97-.123.233-.314.192-.806-.136-.957s-.739-.287-.971 0M85.375 18.772a1.244 1.244 0 0 0 1.518 0 2.08 2.08 0 0 0 .136-2.079 1.53 1.53 0 0 0-1.914.37c-.492.492-.396 1.12.26 1.709M60.861 17.856a2.02 2.02 0 0 0-2.16 0 1.367 1.367 0 0 0 0 1.845 1.52 1.52 0 0 0 1.928.11 1.477 1.477 0 0 0 .232-1.956M113.32 12.455a.964.964 0 0 0 1.461-.651.97.97 0 0 0-.435-.976 1.053 1.053 0 0 0-1.367.397.927.927 0 0 0 .341 1.23M160.83 58.324a1.366 1.366 0 0 0 .697-1.572 1.144 1.144 0 0 0-1.23-.697c-.861.3-1.367.97-1.176 1.53a1.51 1.51 0 0 0 1.709.74M83.734 11.307a1.176 1.176 0 0 0-.341-1.737 1.45 1.45 0 0 0-2.16.438 1.544 1.544 0 0 0 .273 2.037 1.29 1.29 0 0 0 1.19.082.69.69 0 0 0 .683-.232 1.5 1.5 0 0 0 .355-.588M81.807 13.166a.93.93 0 0 0-.793.902.683.683 0 0 0 .492.807c.67.219 1.011-.178 1.367-.697-.26-.506-.342-1.121-1.067-1.012M78.648 6.016a2 2 0 0 0-.218.683 1 1 0 0 0-.233-.41l-.219-.191-1.367.191c.21.275.36.592.438.93a.93.93 0 0 0 .793.314.99.99 0 0 0 .588-.478.94.94 0 0 0 .355.847 1.08 1.08 0 0 0 1.176-.492c.164-.642.629-.547 1.025-.752q.22-.122.383-.314a1.53 1.53 0 0 0 1.545 0 .9.9 0 0 0 .164-.643c.52.424 1.121.533 1.477.205a.9.9 0 0 0 .26-.396c-2.079.123-4.143.273-6.167.506M62.379 12.647a1.367 1.367 0 0 0-2.187.082 1.368 1.368 0 0 0-.165 2.173 1.6 1.6 0 0 0 2.42-.095 1.64 1.64 0 0 0-.068-2.16M160.16 66.992c-.164.082-.232.547-.164.793a.44.44 0 0 0 .28.356.44.44 0 0 0 .445-.082c.218-.192.765-.698.615-.998s-.875-.22-1.176-.069M128.182 22.6a.57.57 0 0 0 .535.144.58.58 0 0 0 .408-.377 3 3 0 0 0 0-.848.873.873 0 0 0-1.244.329c-.233.369.027.574.301.752M127.416 17.254a.99.99 0 0 0 .779-.328.7.7 0 0 0 0-.711c-.314-.479-.779-.438-1.285-.123.014.465-.096.998.506 1.162M124.477 31.063a.88.88 0 0 0 .861-.834c0-.725-.834-1.204-1.121-1.204a1.285 1.285 0 0 0-.779 1.436.886.886 0 0 0 1.039.602M92.963 8.86a.89.89 0 0 0-1.258-.247 1.504 1.504 0 0 0-.191 1.86 1.026 1.026 0 0 0 1.367.109 1.285 1.285 0 0 0 .082-1.723M121.523 19.14a1.71 1.71 0 0 0 2.024-1.038 2.2 2.2 0 0 0-1.367-2.215 1.74 1.74 0 0 0-1.819 1.367 1.685 1.685 0 0 0 1.162 1.887M120.908 13.016a1.13 1.13 0 0 0-.246.998 1.12 1.12 0 0 0 .67.779 1.37 1.37 0 0 0 1.463.096.904.904 0 0 0 1.148 0 .75.75 0 0 0 .287-.479 5 5 0 0 0-.164-.615q-1.367-.643-2.666-1.23c-.196.11-.365.264-.492.45M130.52 24.61a1.145 1.145 0 0 0 1.215-.54c.081-.137.132-.288.152-.445a.748.748 0 0 0-.616-.875.956.956 0 0 0-1.283.793 1.07 1.07 0 0 0 .532 1.066M125.229 15.299a.83.83 0 0 0 1.148-.178v-.096a60 60 0 0 0-1.627-.834.93.93 0 0 0 .479 1.108M141.32 26.564a1.04 1.04 0 0 0 0 .93.534.534 0 0 0 .821.37c.355-.206.656-.452.505-.93-.15-.479-1.148-.588-1.326-.37M141.58 32.58a1.37 1.37 0 0 0 1.23-.738 1.215 1.215 0 0 0-.847-1.135.903.903 0 0 0-1.094.793 1 1 0 0 0 .711 1.08"/><path fill="#fff" d="M143.303 27.494c.18.024.364 0 .533-.068l-1.463-1.367a1.63 1.63 0 0 0 .93 1.435M92.348 13.672a.26.26 0 0 0 0-.315.273.273 0 0 0-.383 0 .273.273 0 0 0 0 .37c.136.068.328.013.383-.055M133.965 19.55a78 78 0 0 0-3.623-2.31q.112.13.205.274a2.14 2.14 0 0 0 0 2.392 2.26 2.26 0 0 0 2.642.32c.277-.154.518-.366.707-.62zM132.502 31.13a1.29 1.29 0 0 0 1.254-.754c.071-.158.11-.33.113-.503.082-.629-.355-1.039-1.203-1.162s-1.23.205-1.271.725a2.3 2.3 0 0 0 1.107 1.695M126.145 19.578a2.4 2.4 0 0 0 0-.834.88.88 0 0 0-1.245.315c-.191.382 0 .587.301.765a.603.603 0 0 0 .944-.246M90.639 13.59a.944.944 0 0 0 1.258-.274.86.86 0 0 0-.315-1.134.78.78 0 0 0-1.148.164.86.86 0 0 0 .205 1.244M162.484 75.195a1.37 1.37 0 0 0 1.655-.164c.492-.82-.178-1.572-.547-1.941-.369-.37-1.367.232-1.6 1.025a.892.892 0 0 0 .492 1.08M166.6 70.3c.223-.155.38-.389.439-.655a1.08 1.08 0 0 0-.125-.78 3 3 0 0 0-1.025-.164c-.493.096-.67.793-.411 1.367a.82.82 0 0 0 .513.35.8.8 0 0 0 .609-.117M164.344 61.523c-.356.643.164 1.71 1.039 2.133a1.2 1.2 0 0 0 1.121 0 67 67 0 0 0-.93-2.803 1.5 1.5 0 0 0-1.23.67M159.75 71.914a1.46 1.46 0 0 0 1.572-.766 1.13 1.13 0 0 0-.41-1.257c-.807-.383-1.654-.247-1.887.3a1.62 1.62 0 0 0 .725 1.723M162.512 61.072a1 1 0 0 0 .506-.697.75.75 0 0 0-.329-.629c-.519-.246-.888 0-1.162.56.205.41.397.917.985.766M161.227 76.877a.99.99 0 0 0 .587-1.148.97.97 0 0 0-1.093-.493 1.14 1.14 0 0 0-.588 1.176.89.89 0 0 0 1.094.465M165.356 67.416a2.041 2.041 0 0 0-.807-2.379l-.233-.096a.874.874 0 0 0-1.148-.328 1.6 1.6 0 0 0-.889 1.368v.068a1.507 1.507 0 0 0 .616 2.023 1.97 1.97 0 0 0 2.461-.656M88.766 9.652a.875.875 0 0 0 1.244-.246.79.79 0 0 0-.356-1.107.916.916 0 0 0-1.23.355.698.698 0 0 0 .342.998M168.022 69.508a36 36 0 0 0-.274-1.19v.069a.89.89 0 0 0 .274 1.12M75.695 6.453l-1.216.205c.417.077.847.004 1.216-.205M92.102 5.893a2 2 0 0 0 .218-.301c-.888 0-1.79 0-2.734-.082q.067.18.191.328a1.736 1.736 0 0 0 2.325.055M74.615 8.34a1.01 1.01 0 0 0-.191-1.272c-.37-.232-1.244-.123-1.367.178a1.26 1.26 0 0 0 .382 1.477.9.9 0 0 0 1.176-.383M169.894 82.92a1.6 1.6 0 0 0 0 .807zM132.461 48.836a.81.81 0 0 0-.369.724c0 .192.533.67.766.588s.341-.71.273-.847-.479-.506-.67-.465M109.301 24.158q.35-.556.601-1.162a1.785 1.785 0 0 0-.834-1.914.724.724 0 0 0-.984.096 5.14 5.14 0 0 0-1.244 2.734q.008.239.082.465a1.13 1.13 0 0 0 1.195.794c.173-.017.339-.074.487-.165a.67.67 0 0 0 .437-.233.84.84 0 0 0 .26-.615M108.508 30.406c.41-.355 0-1.517-.369-1.558-.37-.041-1.108.984-.78 1.367a.89.89 0 0 0 1.149.191M108.836 35.397a.83.83 0 0 0-.123-.794.56.56 0 0 0-.902.124c-.124.218-.329.847.136 1.12s.793-.3.889-.45M107.988 26.277c-.068-.246-.56-.218-.67-.15a.603.603 0 0 0-.273.56c0 .206.41.247.588.206s.437-.383.355-.616M120.717 44.516c0 .095.178.396.26.396s.451-.137.505-.287a.504.504 0 0 0-.273-.643c-.396-.109-.397.356-.492.534M123 42.068a.465.465 0 0 0 .369.534.493.493 0 0 0 .629-.479.5.5 0 0 0-.017-.198.5.5 0 0 0-.244-.304.5.5 0 0 0-.19-.059.563.563 0 0 0-.547.506M124.504 35.547c.096-.643-.164-1.04-.725-1.121-.793-.123-1.695.396-1.763 1.011-.069.616.588 1.176 1.23 1.245a1.244 1.244 0 0 0 1.258-1.135M115.344 11.184c0 .095 0 .246.177.26a.25.25 0 0 0 .201-.041.25.25 0 0 0 .1-.178c0-.178-.164-.26-.246-.274s-.232.164-.232.233M82.64 24.35a.52.52 0 0 0-.163.683c.205.301.56 0 .71-.123a.48.48 0 0 0 0-.465.7.7 0 0 0-.546-.095M84.186 17.582a1.23 1.23 0 0 0-.22-1.668 1.83 1.83 0 0 0-2.228.533 1.367 1.367 0 0 0 2.448 1.135M81.164 20.508a1.625 1.625 0 0 0-2.392.15 1.475 1.475 0 0 0-.083 2.188 1.86 1.86 0 0 0 2.462.068 1.955 1.955 0 0 0 .013-2.406M101.098 19.961c-.602-1.162-1.668-.328-1.778-1.19-.11-.86.725-.574.506-1.777s-1.367-1.709-2.023-1.12c-.657.587-.383 1.366-.56 1.366-.179 0-1.08.274-.958.944-.164-.082-.355-.123-.451 0s0 .615.082.724a.53.53 0 0 0 .615.069.4.4 0 0 0 0-.11c.465.533 1.23.26 1.367.56.137.302.11 1.3.383 1.901.37.848 1.19 1.367 2.037.902a1.584 1.584 0 0 0 .78-2.269M99.17 29.203c-.11.164-.233.533 0 .725a.55.55 0 0 0 .71-.137c.124-.137.37-.615 0-.889-.368-.273-.614.137-.71.301M94.836 15.805a1.37 1.37 0 0 0 0-1.655c-.738-.601-1.572 0-1.982.26s0 1.367.779 1.723a.86.86 0 0 0 1.203-.328M93.578 25.703v.342a.33.33 0 0 0 .26 0c0-.123.11-.287 0-.37-.11-.081-.137.014-.26.028M122.344 22.49q.062-.098.109-.205c.328-.068.861-.219.889-.52.027-.3-.711-.628-.985-.656a.2.2 0 0 0-.136 0 1.89 1.89 0 0 0-1.846.137 1.21 1.21 0 0 0 .036 1.462c.109.137.246.25.401.33.411.327 1.067.108 1.532-.548M157.877 116.211c.109-.219-.232-.492-.383-.588a.49.49 0 0 0-.492.164c0 .151.123.424.26.547.136.123.465.164.615-.123M129.795 43.545c0 .355 0 .793.492.78s.738-.288.779-.507c.041-.218-.246-.615-.341-.834-.67-.095-.875.22-.93.56M159.313 90.111c.136-.383.109-.752-.247-.943a5.06 5.06 0 0 0-2.857-.861q-.242.036-.451.164a1.13 1.13 0 0 0-.664 1.032 1.13 1.13 0 0 0 .664 1.032c.56.304 1.158.534 1.777.684a1.805 1.805 0 0 0 1.778-1.108M158.014 109.006a.527.527 0 0 0-.205-.561c-.137-.095-.643-.123-.739.069-.095.191.205.588.342.642a.52.52 0 0 0 .602-.15M165.547 96.537a1.89 1.89 0 0 0 .519-1.736 1.59 1.59 0 0 0-1.244-1.272h-.164c.364-.135.662-.404.834-.752.219-.52-.123-1.107-.861-1.449a1.286 1.286 0 0 0-1.572.342 1.67 1.67 0 0 0 .56 1.9q.116.063.246.082a1.64 1.64 0 0 0-.56.52 2.8 2.8 0 0 0-.424 1.914 1.27 1.27 0 0 1-.164.71 1.16 1.16 0 0 0-.252 1.074 1.16 1.16 0 0 0 .758.8.55.55 0 0 0-.205.273c-.137.383.191.903.683 1.121a1.065 1.065 0 0 0 1.367-.423.9.9 0 0 0-.506-1.204 1.73 1.73 0 0 0 .397-.793 1.68 1.68 0 0 1 .588-1.107M169.635 92.613a.945.945 0 0 0-1.19.479.986.986 0 0 0 .506 1.271.97.97 0 0 0 .779 0c0-.533.082-1.052.11-1.586zM167.297 105.273a.831.831 0 0 0 .355 1.108h.11c.15-.574.287-1.162.41-1.75a.94.94 0 0 0-.875.642M157.549 100.529c-.151-.506-.547-.601-1.531-.424-.11.506-.424 1.04.205 1.368a.81.81 0 0 0 .924.044.8.8 0 0 0 .238-.222c.15-.225.208-.499.164-.766M142.893 37.639a1.37 1.37 0 0 0 1.613-1.367 2.4 2.4 0 0 0 0-.834c.382.09.783.061 1.148-.083a1.04 1.04 0 0 0 .506-1.039 1.96 1.96 0 0 0 1.819-1.367 1.613 1.613 0 0 0-1.19-1.914 2.58 2.58 0 0 0-2.201 1.545 1.13 1.13 0 0 0 .123.752h-.082a1.74 1.74 0 0 0-.807 1.148 2.2 2.2 0 0 0-.752-.232 1.75 1.75 0 0 0-1.9 1.559c-.096.752.793 1.681 1.723 1.832M134.074 39.908c1.367.26 1.367.164 1.367-.984-.574-.41-1.039-.246-1.449.3-1.531-.67-2.256 0-2.092 1.737a1.5 1.5 0 0 1-.287.191c-.451.178-.506.547-.451.971s.301.588.684.725c.916.3 1.367.095 1.558-.848.246-.697.465-1.408.67-2.092M131.887 33.537a1.37 1.37 0 0 0-.234-1.044 1.38 1.38 0 0 0-.915-.556 1.807 1.807 0 0 0-1.927 1.56 1.82 1.82 0 0 0 1.367 1.667c.888.11 1.572-.56 1.709-1.627M141.484 44.256c-.123-.3-.683-.383-1.148-.178a.52.52 0 0 0-.373.542q.01.12.072.224c.192.369.465.642.943.478a.94.94 0 0 0 .506-1.066M140.459 69.932c-.109 0-.41.3-.328.533.082.232.533.164.697.11a.435.435 0 0 0 .205-.466c-.068-.15-.396-.191-.574-.177M140.787 40.428a1.557 1.557 0 0 0-1.791 1.476 1.573 1.573 0 0 0 1.367 1.573c.766.095 1.518-.698 1.627-1.696a1.2 1.2 0 0 0-.294-.95 1.2 1.2 0 0 0-.909-.403M78.566 27.234c-.232.22-.109.78.26 1.135a.492.492 0 0 0 .807 0c.273-.314.437-.67.11-1.053a.93.93 0 0 0-1.177-.082M160.201 80.145c.834-.22.684.628 1.832.232s1.504-1.613.82-2.146c-.683-.534-1.367-.206-1.462-.37-.096-.164-.424-1.039-1.067-.806-1.367.492-.601 1.6-.971 1.86-.369.259-1.257.3-1.818.655-.779.493-1.217 1.368-.601 2.147q.203.257.478.437a.9.9 0 0 0 .314.233c.411.219 1.094.888 1.655.533.56-.356.164-.82.205-1.121.547-.711-.11-1.463.615-1.655M46.465 19.797c.451.191 1.258-.615 1.094-.97-.164-.356-1.23-.493-1.436 0a.834.834 0 0 0 .342.97M153.475 88.867c-.192.082-.192.451-.123.615.068.165.437.383.67.274.232-.11.123-.588 0-.697a.59.59 0 0 0-.547-.192M154.705 85.135a1.45 1.45 0 0 0-.287-1.012c-.233-.26-.916 0-1.012.438-.003.252.043.503.137.738.601.3 1.121.205 1.162-.164M35.13 24.828c-.177.3-.491 1.108-.273 1.367.22.26 1.04-.177 1.067-.3.11-.383.328-.862 0-1.204s-.697-.082-.793.137M168.664 80.897a.58.58 0 0 0 .536.123.58.58 0 0 0 .394-.383c.082-.274.205-.793-.151-.957a.48.48 0 0 0-.273-.069 1.22 1.22 0 0 0 .287-1.244l.123.11a67 67 0 0 0-.301-2.407.493.493 0 0 1-.136-.752v-.095c0-.383-.137-.766-.192-1.162a2.3 2.3 0 0 0-.574-.493 1.6 1.6 0 0 0-.93-.177.4.4 0 0 0 0-.123 1.366 1.366 0 0 0-1.586-.452 1.37 1.37 0 0 0 .082 1.627c.134.118.302.19.479.205.137.547.451.711.301.903-.151.191-.766.478-.67.97.095.493 1.572.848 1.818.78.246-.069.82-.52 1.094 0q.154.271.232.574a.81.81 0 0 0-.957-.205c-.752.314-1.258 1.217-.998 1.777a1.25 1.25 0 0 0 1.19.56c-.383.165-.178.657.232.89M163.086 87.227a1.79 1.79 0 0 0-.793-2.038 1.37 1.37 0 0 0-1.367.834 1.14 1.14 0 0 0-.035.978 1.15 1.15 0 0 0 .732.65c.629.273 1.271.109 1.463-.424M161.24 108.842c-.396-.137-.574.109-.711.41a.6.6 0 0 0-.051.554.592.592 0 0 0 .434.348c.282-.001.563-.042.834-.123a.893.893 0 0 0-.201-.999.9.9 0 0 0-.305-.19M116.834 13.986a1.27 1.27 0 0 0 1.012 1.367.86.86 0 0 0 1.134-.574 1.476 1.476 0 0 0-.984-1.586 1.025 1.025 0 0 0-1.162.793M125.379 26.441a.8.8 0 0 0 .226.588.82.82 0 0 0 .581.246 1.07 1.07 0 0 0 .998-1.066c-.192-.164-.452-.547-.793-.67-.342-.123-.971.342-1.012.902M117.449 10.938l-1.094-.438c.309.26.692.413 1.094.438M126.158 20.63a1.544 1.544 0 0 0-1.627 1.067 1.64 1.64 0 0 0 1.203 1.545c.506.082 1.135-.52 1.231-1.19s-.151-1.312-.807-1.421M137.547 32.676a1.53 1.53 0 0 0 1.012 1.668c.478.068 1.367-.903 1.367-1.504a1.235 1.235 0 0 0-1.145-1.147 1.23 1.23 0 0 0-1.289.983zM139.516 38.281c-.178.096-.506.301-.397.492a.6.6 0 0 0 .574.26c.151 0 .547-.396.438-.588a.59.59 0 0 0-.615-.164M56.213 31.035a.89.89 0 0 0 .123-1.176.916.916 0 0 0-1.271-.109.697.697 0 0 0-.11 1.121.86.86 0 0 0 1.258.164M63.938 19.209a.833.833 0 0 0 .164 1.23c.341.247.71.534 1.025.233.533-.574.588-1.135.26-1.477a.957.957 0 0 0-1.45.014M56.418 36.053a1.05 1.05 0 0 0 0-1.3.81.81 0 0 0-1.162 0 1 1 0 0 0-.096 1.368.97.97 0 0 0 1.258-.068M61.285 11.307a1.927 1.927 0 0 0 2.735-.11 1.804 1.804 0 0 0 .3-2.256 75 75 0 0 0-3.5 1.149 1.45 1.45 0 0 0 .465 1.217M47.422 31.87a.97.97 0 0 0 0 1.366.903.903 0 0 0 1.367 0 .957.957 0 0 0 0-1.271.918.918 0 0 0-1.367-.096M73.658 30.611a.59.59 0 0 0 .069.63c.15.122.464.355.615.19a.62.62 0 0 0 0-.628c-.014-.123-.533-.37-.684-.192M68.777 26.592a1.07 1.07 0 0 0-1.367.096 1.26 1.26 0 0 0-.11 1.627 1.64 1.64 0 0 0 1.874.122c.3-.341.095-1.34-.397-1.845M67.752 37.324a.66.66 0 0 0 .068.711.62.62 0 0 0 .575 0 .55.55 0 0 0 0-.56c-.055-.11-.465-.37-.643-.15M65.729 15.04a1.45 1.45 0 0 0-1.75 0 1.285 1.285 0 0 0 .191 1.599.78.78 0 0 0 1.148-.15c.575-.643.725-1.163.41-1.45M52.111 18.648a1.202 1.202 0 0 0-1.79.082 1.436 1.436 0 0 0-.206 1.778 1.74 1.74 0 0 0 1.969 0 1.19 1.19 0 0 0 .027-1.86M49.322 15.23c.63.711 1.367.534 2.037.137.301.424.438 1.04 1.149.793a.82.82 0 0 0 .601-.902c0-.738-.67-.738-1.23-.78 0-.205 0-.396-.11-.587l-2.501 1.285s.027.04.054.054M74.328 16.201c-.355-.574-.889-.642-1.6 0a18 18 0 0 0-.71 1.791.806.806 0 0 0 .574 1.026.85.85 0 0 0 1.08-.493 2.5 2.5 0 0 1 .437-.67 1.37 1.37 0 0 0 .22-1.654M49.008 22.45a1.134 1.134 0 0 0-2.024-.083 6.6 6.6 0 0 0-.752 1.736 1.76 1.76 0 0 0 .971 1.874c.383.164 1.367.191 1.436-.643-.479-1.367.533-1.367.505-2.379a1.4 1.4 0 0 0-.136-.506M53.164 25.813a.642.642 0 0 0 0-1.012.89.89 0 0 0-.807.096c-.177.15-.437.738-.26.957.178.218.848.123 1.067-.041M56.295 24.035c-.437-.451-1.066-.369-1.654.219a.97.97 0 0 0-.192 1.367 1.91 1.91 0 0 0 1.97.178 1.162 1.162 0 0 0-.124-1.764M43.498 27.262a.26.26 0 0 0 0 .355c0 .069.274 0 .328 0a.246.246 0 1 0-.369-.314zM117.436 31.582a1.55 1.55 0 0 0-.479-2.01 1.655 1.655 0 0 0-2.365.479 1.37 1.37 0 0 0 .273 1.887 2.05 2.05 0 0 0 2.571-.356M116.82 37.857a.93.93 0 0 0 .998-.67.8.8 0 0 0-.099-.617.8.8 0 0 0-.516-.353.92.92 0 0 0-.984.67c-.11.45.191.97.601.97M119.295 29.477a.96.96 0 0 0-.684-.971 1.12 1.12 0 0 0-1.107.71.847.847 0 0 0 .697.944.97.97 0 0 0 1.094-.683M118.201 36.463a.81.81 0 0 0 .656-.492c0-.26-.519-.547-.697-.533a.66.66 0 0 0-.437.519.68.68 0 0 0 .478.506M113.484 20.959a.917.917 0 0 0-.287 1.504 1.28 1.28 0 0 0 1.053.232 1.03 1.03 0 0 0 .533-.779 1.052 1.052 0 0 0-1.299-.957M113.512 34.412c.67 0 .56-.615.765-.861a1.44 1.44 0 0 0 .367-1.091 1.45 1.45 0 0 0-.544-1.015 1.29 1.29 0 0 0-1.491.274 1.01 1.01 0 0 0-.177 1.367c.177.41.424 1.34 1.08 1.326M111.967 27.604c.26 0 .314-.916.191-1.463a1 1 0 0 0 .178.218s.424-.123.424-.218c0-.096 0-.547-.219-.657s-.492.274-.492.356l-.082-.11c-.315-.246-1.025.288-1.135.971-.109.684.793.97 1.135.902"/><path fill="#fff" d="M135.264 38.719a.66.66 0 0 0 .287-.506c0-.123-.424-.465-.561-.41-.137.054-.191.533-.15.71.041.178.355.26.424.206M117.012 21.191a.89.89 0 0 0-.993-.079.9.9 0 0 0-.265.23.93.93 0 0 0 .178 1.271 1.023 1.023 0 0 0 1.367-.191.89.89 0 0 0-.287-1.23M128.483 29.38a.934.934 0 0 0 .191-1.858 1.03 1.03 0 0 0-.971.86.905.905 0 0 0 .78.998M135.141 45.281a.9.9 0 0 0 .519-1.053.887.887 0 0 0-1.176-.478.73.73 0 0 0-.566.71q.002.166.074.315a.86.86 0 0 0 .806.575.9.9 0 0 0 .343-.069M127.649 25.074a.49.49 0 0 0-.588.123c-.11.11-.219.602 0 .725.218.123.615-.11.697-.246.082-.137 0-.479-.109-.602M126.978 33.81a2.53 2.53 0 0 0-.546-2.625 1.71 1.71 0 0 0-2.27.63 1.905 1.905 0 0 0 .492 2.324 1.724 1.724 0 0 0 2.324-.329M119.938 25.772a.85.85 0 0 0 0-1.19 1.14 1.14 0 0 0-.807-.273c-.52 0-.67.464-.629 1.449.465.219.943.588 1.436.014M126.828 42.082c.151 0 .67 0 .67-.287s-.314-.451-.437-.451-.575 0-.588.218a.64.64 0 0 0 .355.52M103.654 22.326a.64.64 0 0 0-.563-.101.64.64 0 0 0-.421.388 1.13 1.13 0 0 0 0 .903c.15.205.998.287 1.217 0a.83.83 0 0 0 .01-.956.8.8 0 0 0-.243-.234M101.85 12.305a1.15 1.15 0 0 0-1.545.136 1.444 1.444 0 0 0 .164 1.764 1.585 1.585 0 0 0 2.023-.355c.205-.397-.096-1.135-.642-1.545M102.725 26.127c.247.057.504.057.751 0 .383-.547.356-1.08 0-1.176a1.37 1.37 0 0 0-1.039.137c-.3.164-.109.889.288 1.039M136.234 36.285c.082-.547-.642-.752-.943-.916s-.738.15-.82.615.123.834.588.793 1.093.055 1.175-.492M102.109 31.938c.328-.752-.724-1.368-1.08-1.19-.355.178-.615 1.176-.246 1.463s.998.492 1.326-.273M96.668 23.734c.3-.41 0-1.367-.574-1.75a1.094 1.094 0 0 0-1.572.192 1.476 1.476 0 0 0 .218 1.928 1.56 1.56 0 0 0 1.928-.37M96.408 35.232a.6.6 0 0 0 .574-.123.49.49 0 0 0-.123-.697c-.341-.191-.547.164-.629.3a.52.52 0 0 0 .178.52M103.463 18.922c.191-.164 0-.547-.151-.684a.45.45 0 0 0-.505 0c-.123.11 0 .438 0 .602s.464.3.656.082M105.24 18.95a1.15 1.15 0 0 0 1.405-.055c.129-.108.233-.244.304-.397.369-.643.301-1.299-.191-1.572a1.805 1.805 0 0 0-2.133.506 1.37 1.37 0 0 0 .615 1.517M110.053 8.723a.88.88 0 0 0 .738.232c.15-.014.294-.061.424-.137a72 72 0 0 0-4.184-1.107 1.37 1.37 0 0 0-.172 1.013c.077.347.286.65.582.846.462.31 1.026.428 1.573.328a.4.4 0 0 0 .191.11c.151 0 .629 0 .67-.274a.358.358 0 0 0-.137-.273 1 1 0 0 0 .137-.068c.11-.207.171-.436.178-.67M113.061 17.309a.8.8 0 0 0 .123-.233c.065.179.168.342.3.479a1.8 1.8 0 0 0-.15.629 1.22 1.22 0 0 0 .659 1.34c.161.078.337.12.517.122a1.364 1.364 0 0 0 1.367-1.093q.094.045.178.11a1.16 1.16 0 0 0 1.649.253c.166-.126.295-.294.374-.486a.7.7 0 0 0 .246.246 1.05 1.05 0 0 0 1.203-.52 1.082 1.082 0 0 0-.218-1.49.88.88 0 0 0-.692-.072.87.87 0 0 0-.525.455 1.7 1.7 0 0 0-.738-.506 1.73 1.73 0 0 1-1.012-.725 1.86 1.86 0 0 0-1.641-.752 1.63 1.63 0 0 0-1.449 1.04v.163a1.48 1.48 0 0 0-.629-.93c-.478-.3-1.107 0-1.545.643a1.27 1.27 0 0 0 .11 1.6 1.65 1.65 0 0 0 1.873-.273M117.422 25.307c.396 0 .765-.178.724-.588s-.246-1.135-.574-1.162c-.328-.028-.724.683-.847.984s.287.752.697.766M104.406 14.014c0-.178-.246-.383-.41-.451-.164-.069-.506 0-.547.287s.369.41.533.45a.46.46 0 0 0 .424-.286M106.197 13.781a1.94 1.94 0 0 0 2.502-.11 2.01 2.01 0 0 0-.519-2.461 1.874 1.874 0 0 0-2.297.602 1.46 1.46 0 0 0 .314 1.97M105.172 8.996q.131-.216.178-.465c.656.219 1.011-.177 1.367-.71l-.096-.206a74 74 0 0 0-3.978-.82q-.195.126-.329.314a1.5 1.5 0 0 0-.236 1.239 1.48 1.48 0 0 0 .797.976 1.506 1.506 0 0 0 2.297-.328M159.162 98.438a.957.957 0 0 0 .848-1.696.93.93 0 0 0-1.231.356 1.04 1.04 0 0 0 .383 1.34M93.182 24.91a.533.533 0 0 0-.903 0c-.177.233-.45.93-.273 1.108.178.177.875 0 1.162-.11s.3-.615.014-.998M159.299 95.895a1.05 1.05 0 0 0 .817-.932 1 1 0 0 0-.052-.436.916.916 0 0 0-1.531 0 1.2 1.2 0 0 0-.082 1.067.98.98 0 0 0 .848.3M159.818 103.455a.87.87 0 0 0 1.127-.003.9.9 0 0 0 .241-.325 1.923 1.923 0 0 0-.397-1.805 1.211 1.211 0 0 0-.974-.043 1.2 1.2 0 0 0-.694.686c-.342.574-.027 1.121.697 1.49M152.613 75.756c0-.11 0-.192-.095-.315-.096-.123-.26 0-.329.11a.4.4 0 0 0 0 .26c.178.013.356.054.424-.055M155.115 93.666c.192-.355-.437-.97-1.134-.984-.698-.014-.821.902-.711 1.23s1.722.096 1.845-.246M161.473 117.783c.492-.219.355-.082.806.233a.915.915 0 0 0 1.545-.452 1.816 1.816 0 0 0-1.244-2.078 2.11 2.11 0 0 0-1.511.301c-.449.286-.773.73-.909 1.244-.109.739.834.985 1.313.752M153.269 67.799a1.5 1.5 0 0 0-1.886-.533 1.38 1.38 0 0 0-.74 1.353 1.39 1.39 0 0 0 .967 1.201 1.39 1.39 0 0 0 1.058-.093 1.437 1.437 0 0 0 .601-1.928M135.619 31.09c.15 0 .547-.342.41-.574a.66.66 0 0 0-.683-.205.56.56 0 0 0-.181.237.57.57 0 0 0-.038.296.54.54 0 0 0 .492.246M151.219 96.865a1.37 1.37 0 0 0-1.819.547 2.05 2.05 0 0 0 .711 2.488 1.53 1.53 0 0 0 1.914-.765 1.64 1.64 0 0 0-.256-1.885 1.6 1.6 0 0 0-.55-.385M167.297 101.35c-.301.683-.137 1.462.355 1.668.297.105.62.105.916 0 .151-.752.288-1.504.411-2.27a1.126 1.126 0 0 0-1.421.161 1.1 1.1 0 0 0-.261.441M146.406 101.172a.72.72 0 0 0-.588-.356.737.737 0 0 0-.423.547c0 .151.314.588.574.588s.478-.615.437-.779M165.711 111.822c-.109.506-.274.998-.424 1.49a.744.744 0 0 0-.218.641.74.74 0 0 0 .396.549 81 81 0 0 0 1.094-3.377.82.82 0 0 0-.848.697M166.641 88.676a1.98 1.98 0 0 0 2.351-.848 1.87 1.87 0 0 0-.929-2.201 1.477 1.477 0 0 0-1.942.602 1.93 1.93 0 0 0 .52 2.447M88.3 20.918a1.07 1.07 0 0 0-.82.191c-.287.26 0 .971.342 1.067.232.022.467-.01.684-.096.3-.547.177-1.08-.205-1.162M163.564 105.479c-.396-.137-.574.123-.711.41a.6.6 0 0 0-.05.559.6.6 0 0 0 .433.357c.284.001.566-.045.834-.137a.89.89 0 0 0-.201-.999.9.9 0 0 0-.305-.19M138.312 58.707a.52.52 0 0 0 .394-.328.51.51 0 0 0-.079-.506c-.15-.26-.697-.766-.93-.67-.232.096-.342.82-.314 1.121.027.301.451.533.929.383M149.277 109.662a2.51 2.51 0 0 0 2.516-.916c.134-.4.116-.836-.051-1.224a1.72 1.72 0 0 0-.851-.881 1.93 1.93 0 0 0-2.243.82 1.72 1.72 0 0 0 .629 2.201M142.387 49.615a.67.67 0 0 0 .287-.506.49.49 0 0 0-.561-.41c-.355.082-.191.533-.164.711a.58.58 0 0 0 .438.205M137.219 48.07a1.05 1.05 0 0 0 .752-.423c.314-.63 0-1.04-.697-1.368-.479.301-1.039.479-.916 1.149a.778.778 0 0 0 .861.643M137.424 27.768a1.66 1.66 0 0 0-.246-.848.81.81 0 0 0 .875-.684.924.924 0 0 0-.681-1.015.9.9 0 0 0-.44-.01c-.616.096-.834-.273-1.217-.629q.186-.221.342-.465a.64.64 0 0 0 .287-.082.7.7 0 0 0 .082.274.995.995 0 0 0 1.08.45c.424-.163.424-.902.342-1.284a1.6 1.6 0 0 0-1.135-.807c0-.232.082-.219.396-.533l.11-.26c-.588-.437-1.19-.861-1.791-1.285a2.6 2.6 0 0 0-.848.834c-.079.162-.121.34-.123.52-.451 0-.711.3-.82.902a1.37 1.37 0 0 0 .847 1.845 4 4 0 0 1-.943.288.86.86 0 0 0-.93.724 1.26 1.26 0 0 0 .356 1.367c1.49 1.121 2.037 1.094 3.349-.191l.124-.082c-.163.181-.292.39-.383.615a.57.57 0 0 0 .005.517.57.57 0 0 0 .419.303.694.694 0 0 0 .808-.201.7.7 0 0 0 .135-.263M143.18 64.258c.15 0 .519-.383.437-.588s-.574-.246-.711-.178a.535.535 0 0 0-.287.547c.068.219.41.219.561.219M136.59 36.463a.26.26 0 0 0 .136-.356.284.284 0 0 0-.355-.095c-.082 0-.109.26 0 .314.109.055.096.192.219.137M139.051 37.201a1.47 1.47 0 0 0 .588-1.435.93.93 0 0 0-1.231-.37.863.863 0 0 0-.355 1.217c.246.547.642.78.998.588M148.225 56.055a1.546 1.546 0 0 0 .355-1.928c-.301-.629-.916-.766-1.709-.37a1.21 1.21 0 0 0-.533 1.368c.232.492 1.476 1.08 1.887.93M147.568 84.766c.793.218 1.258-.903 1.026-1.245-.233-.341-1.244-.437-1.491 0-.246.438-.314 1.04.465 1.245M143.699 80.158a.494.494 0 0 0 .684-.219c.123-.369-.246-.52-.41-.587a.53.53 0 0 0-.479.26.6.6 0 0 0 .205.546M146.584 59.336c-.191-.26-.779-.807-1.107-.67s-.192.984-.096 1.285.465.479.861.246c.397-.232.547-.52.342-.861M145.422 50.23c.137-.546-.438-1.162-1.244-1.367a1.026 1.026 0 0 0-1.08.725 1.266 1.266 0 0 0 .765 1.435 1.49 1.49 0 0 0 1.559-.793M145.108 91.943a.89.89 0 0 0 .765-.246.57.57 0 0 0 .101-.5.56.56 0 0 0-.347-.375c-.232-.095-.889-.205-1.094.287-.205.493.369.766.575.834M150.959 54.236c-.096-.191-.684-.56-.902-.437-.219.123-.301.875-.205.957.095.082.724.465.902.314a.93.93 0 0 0 .205-.834M157.303 84.93a.65.65 0 0 0-.161-.802.65.65 0 0 0-.263-.128 1.14 1.14 0 0 0-.875.178 1.01 1.01 0 0 0 .219 1.203.833.833 0 0 0 1.08-.451M163.988 84.178a.926.926 0 0 0 .506-1.08.77.77 0 0 0-.398-.486.78.78 0 0 0-.627-.034.9.9 0 0 0-.506 1.08.762.762 0 0 0 1.025.52M165.615 71.545a.8.8 0 0 0 .089-.635.78.78 0 0 0-.417-.486.86.86 0 0 0-1.203.383.94.94 0 0 0 .451 1.203.86.86 0 0 0 1.08-.465M156.564 77.397a1.08 1.08 0 0 0 .117-.846 1.1 1.1 0 0 0-.527-.672 1.57 1.57 0 0 0-1.695.26c-.082-.178-.232-.438-.492-.383s-.287.492-.233.56a.77.77 0 0 0 .493.287 1.57 1.57 0 0 0 .683 1.628c.451.232 1.34-.22 1.654-.834M153.393 52.404a.93.93 0 0 0-.534-1.066.68.68 0 0 0-.943.164c-.437.533-.205 1.012.151 1.545.587-.069 1.189.027 1.326-.643M152.982 57.777c-.123-.082-.629-.123-.724.082-.096.205.205.588.342.643a.51.51 0 0 0 .587-.15c.11-.205-.068-.479-.205-.575M153.338 64.367c.561-.205.82-.629.684-1.08a1.49 1.49 0 0 0-1.655-.861 1.023 1.023 0 0 0-.615 1.258 1.285 1.285 0 0 0 1.586.683M165.533 82.537c.41.178 1.108-.219 1.367-.806a1.148 1.148 0 0 0-.341-1.559 1.45 1.45 0 0 0-1.723.41 1.6 1.6 0 0 0 .697 1.955M56.445 17.076a1.216 1.216 0 0 0 .205-1.6 1.01 1.01 0 0 0-1.367-.15 1.37 1.37 0 0 0 0 1.75.78.78 0 0 0 1.162 0M40.805 20.508a.14.14 0 0 0 0-.069l-.356.26a.8.8 0 0 0 .356-.191M151.246 49.314a1.71 1.71 0 0 0 1.955-.697 1.37 1.37 0 0 0 1.039-.588q.298-.518.506-1.08c.178 0 .383 0 .561-.11l.314-.15q.288.039.574 0a.99.99 0 0 0-.246.657c0 .52-1.148.287-1.135 1.011.014.725-.793 1.04-.67 1.915s.807 1.64 1.504 1.271a3 3 0 0 0 1.258-1.572.76.76 0 0 0 .701.102.75.75 0 0 0 .475-.526.77.77 0 0 0-.219-.578.76.76 0 0 0-.574-.229c.67-.164 1.941-.683 1.49-1.846a1.56 1.56 0 0 0-1.668-.792 1.72 1.72 0 0 0 0-1.532 1.53 1.53 0 0 0-1.162-.752 2.2 2.2 0 0 0-.396-.3 1.03 1.03 0 0 0-.78-.096 1.63 1.63 0 0 0-1.175 1.996c0 .191.068.383.109.588q-.538.07-1.066.191h-.11c-.547-.164-1.367.315-1.805.971a1.6 1.6 0 0 0 .52 2.146M57.088 21.37a.9.9 0 0 0-1.258.163.752.752 0 0 0 .069 1.135.97.97 0 0 0 1.285 0 .93.93 0 0 0-.096-1.299M42.883 33.797a.805.805 0 0 0 .164-1.203.72.72 0 0 0-.697-.137.93.93 0 0 0-.506.656c-.028.588.683.78 1.039.684M169.389 92.285q.23.107.478.164c0-.656.068-1.367.096-1.982a1.78 1.78 0 0 0-.93.752.74.74 0 0 0-.068.615.73.73 0 0 0 .424.451M41.803 25.293a1.27 1.27 0 0 0-.287-1.695 1.19 1.19 0 0 0-1.791 0 1.175 1.175 0 0 0-.164 1.681 1.75 1.75 0 0 0 2.242.014M151.492 90.316c0-.396-1.135-.957-1.49-.574a.916.916 0 0 0 0 1.176c.41.342 1.504-.205 1.49-.602M149.031 38.87a1.5 1.5 0 0 0-.383-1.177.82.82 0 0 0 .397-.82c0-.615-.588-.738-1.149-.902-.369.424-.875.82-.464 1.367a.6.6 0 0 0 .123.15 2.07 2.07 0 0 0-.903 1.367.9.9 0 0 0 .52.85.9.9 0 0 0 .342.08c.793.11 1.476-.314 1.517-.916M149.619 46.402a1 1 0 0 0 .629-.56c.137-.615-.383-.766-.834-.916-.479.3-.752.67-.465 1.176a.78.78 0 0 0 .67.3M148.621 43.49a.424.424 0 0 0-.164-.656.98.98 0 0 0-.766.15c-.232.11-.492.178-.615.424s.178.588.574.574a1.37 1.37 0 0 0 .971-.492M144.93 38.992c-.233.205-.492.424-.465.711s.82.643 1.217.424c.396-.219.3-.506.177-.793a.602.602 0 0 0-.929-.342M146.789 49.123c.834-.287 1.135-1.244.738-2.283a1.465 1.465 0 0 0-1.996-.875 1.86 1.86 0 0 0-.971 2.27 1.96 1.96 0 0 0 2.229.888M148.471 58.79a.88.88 0 0 0 .486.563.89.89 0 0 0 .744-.003.985.985 0 0 0 .479-1.19 1.043 1.043 0 0 0-1.368-.465.84.84 0 0 0-.341 1.094M145.217 43.545a.71.71 0 0 0 .506-.998.795.795 0 0 0-.971-.465c-.355.082-.684.998-.424 1.258a1.01 1.01 0 0 0 .889.205"/><path fill="#fff" d="M92.102 27.727a.85.85 0 0 0 .806-.602c.13-.233.177-.502.137-.766-.424 0-1.094-.506-1.367-.136-.274.369.136.998.191 1.367zM149.387 82.318c.15.11.67.288.888 0 .219-.287-.246-.71-.423-.793-.178-.082-.561-.136-.711.164a.547.547 0 0 0 .246.629M59.357 11.43a.98.98 0 0 0 0-.793 59 59 0 0 0-3.992 1.627c.293.345.676.6 1.108.738a3.09 3.09 0 0 0 2.884-1.572M151.793 74.977c0-.41.342-1.135 0-1.368-.342-.232-.971.26-1.367.37v.287c.136.52.314.587.697.724.22.064.453.06.67-.013M147.514 67.58a.74.74 0 0 0-.069.621.75.75 0 0 0 .424.46c.52.232 1.367.067 1.49-.302s-.273-1.066-.697-1.257a.832.832 0 0 0-1.148.478M150.59 76.932a.915.915 0 0 0-.533-1.067.686.686 0 0 0-.944.164c-.451.534-.205 1.012.151 1.545.588-.068 1.189.014 1.326-.642M144.889 44.352a1.37 1.37 0 0 0 1.107 1.463c.656.136 1.08-.233 1.244-1.08.109-.575-.273-1.368-.711-1.463a1.575 1.575 0 0 0-1.64 1.08M149.154 61.701c-.082 0-.109.26-.082.328.028.069.178.178.287.123a.3.3 0 0 0 .088-.054.252.252 0 0 0 .082-.186.3.3 0 0 0-.019-.102.302.302 0 0 0-.356-.11M81.766 34.016a.86.86 0 0 0 .068-1.258.9.9 0 0 0-1.176-.082.89.89 0 0 0 0 1.271.697.697 0 0 0 1.108.069M79.715 16.297a1.654 1.654 0 0 0-3.268-.315c-.15.63.67 1.368 1.559 1.532a1.61 1.61 0 0 0 1.709-1.217M85.266 22.326c0-.164-.069-.547-.26-.738a.97.97 0 1 0-1.299 1.367c.3.287 1.012.041 1.559-.629M77.527 20.89a.49.49 0 0 0 0-.615c-.205-.15-.52.165-.629.301a.44.44 0 0 0 .096.492c.069.096.397-.054.533-.177M76.748 22.6c-.178-.137-.479 0-.588.123-.11.123-.205.601 0 .724s.615-.11.684-.246c.068-.137.095-.478-.096-.601M59.89 28.71c.465-.478.575-1.27.22-1.599a1.764 1.764 0 0 0-2.188 0 1.11 1.11 0 0 0 .178 1.6 1.203 1.203 0 0 0 1.79 0M77.596 18.88a.97.97 0 0 0-.752-.382c-.616.096-.56.629-.547 1.107.45.329.902.452 1.271 0a.77.77 0 0 0 .028-.724M85.074 29.531a.78.78 0 0 0 1.135-.191c.3-.479.246-1.367-.096-1.518-.341-.15-1.093.123-1.367.506a.834.834 0 0 0 .328 1.203M90.734 18.334c.355-.071.688-.226.971-.451.3-.246.273-.615-.096-.889a.78.78 0 0 0-.71-.205 1 1 0 0 0-.37-.41 1.08 1.08 0 0 0-1.367.232c-.506.739-.492 1.6 0 1.914a1.57 1.57 0 0 0 1.572-.191M89.518 15.45a.9.9 0 0 0 0-1.368.97.97 0 0 0-1.286 0 1.026 1.026 0 0 0 0 1.367.834.834 0 0 0 1.285 0M91.774 21.875a.56.56 0 0 0 .86-.328c.11-.274.343-.998 0-1.162-.341-.164-.997.246-1.175.492s-.096.725.314.998M86.729 19.223c-.329-.274-.657 0-.862.328s-.11.888.26.97.916.288 1.107-.19c.192-.48-.273-.917-.505-1.108M86.92 34.043c.178-.096.451-.738.287-.916s-.793-.082-.889 0-.314.629-.191.793.615.26.793.123M87.467 11.854a2.05 2.05 0 0 0-2.475.45c-.533.698-.219 1.737.739 2.434a1.465 1.465 0 0 0 2.078-.328 1.955 1.955 0 0 0-.342-2.556M76.666 24.924a1 1 0 0 0-.123-.902.697.697 0 0 0-1.107-.11.78.78 0 0 0-.083 1.067c.206.314 1.176.273 1.313-.055M67.15 19.14a.984.984 0 0 0 0 1.286c.533.465 1.067.191 1.586 0 .11-1.053 0-1.45-.574-1.613a.89.89 0 0 0-1.012.328M70.514 17.87c.656-.712.738-1.259.246-1.75a1.48 1.48 0 0 0-1.737.095 1.65 1.65 0 0 0 .233 1.764.85.85 0 0 0 1.258-.11M67.71 24.022c.575-.383 1.013-.752.74-1.368a.87.87 0 0 0-.712-.41 1.37 1.37 0 0 0-.861.643c-.246.629.37.806.834 1.134M67.205 13.672a1.52 1.52 0 0 1 1.367 1.012 1.37 1.37 0 0 0 1.586.41c.31-.29.5-.685.533-1.108a.74.74 0 0 0 .22-.287.794.794 0 0 0-.684-1.066.534.534 0 0 0-.616-.246 2.13 2.13 0 0 1-1.75-.397.725.725 0 0 0-1.107.315c-.219.478-.055 1.244.451 1.367M63.172 28.82a1 1 0 0 0-1.285 0 1.05 1.05 0 0 0 0 1.367.834.834 0 0 0 1.162 0 .904.904 0 0 0 .123-1.367M75.695 35.547a.55.55 0 0 0 0-.479.68.68 0 0 0-.574-.082c-.123.069-.273.56-.178.67s.547-.04.752-.11M63.049 33.592a.533.533 0 0 0 0-.903c-.315-.26-.657-.45-1.04-.123a1.08 1.08 0 0 0 .11 1.3 1.03 1.03 0 0 0 .93-.274M61.832 39.225a1 1 0 0 0 0-1.176c-.3-.328-.984 0-1.367.15s-.56 1.135-.26 1.477 1.367-.178 1.627-.451M73.193 24.828c-.328-.273-.574-.096-.806.123a.588.588 0 0 0 0 .985c.26.15.574.314.82.177a1.05 1.05 0 0 0-.014-1.285M75.518 12.62c.224.088.473.088.697 0 .465-.233.684.97 1.367.683.684-.287 1.258.369 2.037-.069.78-.437 1.23-1.367.63-1.859a3.04 3.04 0 0 0-1.997-.602.8.8 0 0 0-.437.11 1.37 1.37 0 0 0-.178-1.586c-.451-.3-1.203 0-1.64.642a1.05 1.05 0 0 0-1.218.206 1.56 1.56 0 0 0-.123 1.845 1.71 1.71 0 0 0-1.449.52 1.736 1.736 0 0 0 .192 2.256 1.46 1.46 0 0 0 1.955 0 2.37 2.37 0 0 0 .164-2.147M72.059 10.842l.957-.916a7 7 0 0 0-.424-.739.97.97 0 0 0-.875-.355 1.23 1.23 0 0 0-.356-.875l-.123-.123a.63.63 0 0 0-.15-.643l-2.447.561q.032.058.095.082c.739.219.657.861.78 1.367a.903.903 0 0 0 1.367.697l.178-.082a.8.8 0 0 0 .191.397q.361.368.807.629M75.695 22.326c.342 0 .479-.369.315-.738a1.37 1.37 0 0 0-.807-.725.436.436 0 0 0-.547.397c0 .273.205.45.424.656.219.205.37.396.615.41M73.084 34.945a.26.26 0 0 0 0-.314.273.273 0 0 0-.383 0 .29.29 0 0 0 0 .369s.328.014.383-.055M72.701 33.209c.424-.424.492-.889.192-1.135a1.49 1.49 0 0 0-1.559 0 .9.9 0 0 0 .11 1.272.85.85 0 0 0 1.257-.137"/><path fill="#07C" d="M103.955 37.447H22.197v63.151h81.758z"/><path fill="#0269B3" d="M26.627 65.365a1 1 0 0 0 0-.177 1.84 1.84 0 0 0 1.367-.438.78.78 0 0 0-.11-1.094 1.09 1.09 0 0 0-1.544-.164 1.29 1.29 0 0 0-.356 1.012.72.72 0 0 0-.71.355c-.301.452 0 .82.3 1.23.451-.095.998-.095 1.053-.724M24.781 78.422a1.19 1.19 0 0 0-1.558.383 2.7 2.7 0 0 0-.834-.438 1 1 0 0 1 0-.3.62.62 0 0 0-.137-.465v5.879c.424-.165.656-.506.725-1.19 0-.219 0-.437.068-.656a.73.73 0 0 0 .096-.711v-.438c.202-.183.357-.413.45-.67q.343.026.684 0a.8.8 0 0 0-.26.274 1.094 1.094 0 0 0 .41 1.367.766.766 0 0 0 1.163-.15 1.37 1.37 0 0 0-.15-1.778.85.85 0 0 0-.643 0c.137-.232.096-.56-.014-1.107M28.377 77.3c-.164.21-.264.461-.287.725a.7.7 0 0 0-.97 0 .807.807 0 0 0 .232 1.368c.464.26.423.629.492 1.08-1.176.232-1.518.888-1.04 1.818q.064.137.151.26c.328.465.67.574 1.067.383a1 1 0 0 0-.11.218.766.766 0 0 0 .342.985 1.2 1.2 0 0 0 1.367-.438 1.135 1.135 0 0 0-.848-1.148.9.9 0 0 0-.273 0 1.107 1.107 0 0 0 .246-1.504q.421.092.807.287a.725.725 0 0 0 1.025 0 1.07 1.07 0 0 0 .506-1.148c-.424-1.573-.807-1.833-2.406-1.655h-.137q.309-.067.588-.219a.493.493 0 0 0 .15-.793.6.6 0 0 0-.902-.218M29.375 73.719c.11.15.3.273.37.41.3.67 1.23 1.012 1.694.642a1.16 1.16 0 0 0 .383-1.367.85.85 0 0 0-.52-.588 1 1 0 0 0-.218-.697c-.287-.287-1.367-.11-1.777.287a1.07 1.07 0 0 0 0 1.23zM35.186 77.998a1.418 1.418 0 0 0 2.064-1.941 1 1 0 0 0-.533-.288c.191-.19 0-.492-.11-.519a.66.66 0 0 0-.505 0 .48.48 0 0 0 0 .41h.109a1.9 1.9 0 0 0-.984.533 1.162 1.162 0 0 0-.041 1.805M26.955 61.523a1.37 1.37 0 0 0 .178-1.79 1.367 1.367 0 0 0-1.873 0 .984.984 0 0 0 0 1.367 1.48 1.48 0 0 0 1.695.423M56.678 96.838c.232 0 .355-.26.478-.479a.94.94 0 0 0 .246-.615c0-.287-.41-.328-.697-.123a1.22 1.22 0 0 0-.451.82.382.382 0 0 0 .424.397M46.807 98.123c.003.108.047.21.123.287a.93.93 0 0 0 .355.424 1.37 1.37 0 0 0 1.572-.232 1.367 1.367 0 0 0 2.598.546 1.26 1.26 0 0 0-.37-1.64 1.97 1.97 0 0 0-1.872.273.8.8 0 0 0-.137-.601c-.287-.356.697-.766.328-1.272s.069-1.148-.45-1.722c-.52-.575-1.368-.793-1.696-.178-.155.294-.23.624-.219.957-.164-.3-.328-.547-.752-.479a.79.79 0 0 0-.684.78.6.6 0 0 0 .424.71.93.93 0 0 0 1.067-.423 2 2 0 0 0 0 .26c.082.492.71.56.314.998-.343.356-.555.82-.601 1.312M64.443 97.877c-.246 0-.587.396-.683.588s.205.78.52.71a.8.8 0 0 0 .492-.491c-.014-.246-.014-.739-.329-.807M49.377 92.832a.59.59 0 0 0 .602-.574c.068-.602-.342-.82-.862-1.04-.383.343-.861.561-.642 1.108a.794.794 0 0 0 .902.506M65.346 95.772c0-.15.205-.465 0-.547a.55.55 0 0 0-.533.082c-.096.109-.206.56 0 .642a.53.53 0 0 0 .533-.177M26.477 84.766a.81.81 0 0 1-.848-.274.916.916 0 0 0-1.272.219c-.287.396-.123.683.206.93.257.15.473.361.628.615q.396.912.698 1.86c-.41.284-.721.69-.889 1.161l-.082.069a1.08 1.08 0 0 0 .37 1.476h-.124a1.23 1.23 0 0 0-1.518.875c-.205.56-.396 1.135-.642 1.682a.78.78 0 0 0-.697-.192h-.082v1.49l.369-.095a2 2 0 0 0 0 .287q-.21.136-.383.315v2.297c.02.106.067.205.137.287 0 0 .136.095.205.15h-.178a.6.6 0 0 0-.232 0v2.105c.437 0 .888.301 1.367 0 .022.199.087.39.191.561h2.639c-.164-.342-.328-.656-.766-.602a1.07 1.07 0 0 0-.396-1.011 1.37 1.37 0 0 0-.78-.069.67.67 0 0 0-.232-.492 1.9 1.9 0 0 0-.848-.41l.575-.547a.3.3 0 0 1 0-.096c.296-.13.547-.344.724-.615a1.53 1.53 0 0 0-.52-2.078c.192-.219.48-.219.739-.342.303-.203.56-.469.752-.779.122-.206.2-.433.232-.67q.084-.352.123-.71A1.23 1.23 0 0 0 25.602 91a.83.83 0 0 0 .916-.287 1.01 1.01 0 0 0 1.039-.766c.114-.64.16-1.291.136-1.941l.287-.164a1 1 0 0 0 .165.136.835.835 0 0 0 1.052-.3.86.86 0 0 0-.273-1.04 2 2 0 0 0 0-.286 1.97 1.97 0 0 0-2.447-1.586M39.506 73.828a.63.63 0 0 0 .602-.588c0-.601-.356-.82-.862-1.039-.396.342-.875.56-.656 1.121a.82.82 0 0 0 .916.506M38.262 92.586a9 9 0 0 0-1.928.287 2.19 2.19 0 0 0-1.504-.902.8.8 0 0 0-.137-.26 1.477 1.477 0 0 0-1.927-.37 1.9 1.9 0 0 0-.206 2.27c.194.172.43.29.684.342.012.27.077.535.191.78a.79.79 0 0 1-.082.888.916.916 0 0 0 .438 1.148.5.5 0 0 0 0 .137.96.96 0 0 0-.738.096c-.479.41-.26.875 0 1.367a.89.89 0 0 0-.766.11 1.9 1.9 0 0 0-.601-.766c-.643 0-1.477 0-2.311.15-.11 0-.246.246-.273.383a1.44 1.44 0 0 1-.684.985c-.479.328-.479 1.189 0 1.367h2.16c.27-.099.565-.099.834 0a1.27 1.27 0 0 0 1.367-.684.8.8 0 0 0 .602-.205.78.78 0 0 0 .068-1.176.5.5 0 0 0-.191-.11c.247.005.492-.037.724-.122a.81.81 0 0 0 .37.861.984.984 0 0 0 1.257-.328.875.875 0 0 0-.273-1.176 1.134 1.134 0 0 0 0-1.367 1.1 1.1 0 0 0-.328-.26.9.9 0 0 1 .26-.328 20 20 0 0 1 1.667-1.08c.348.305.766.516 1.217.615a1.37 1.37 0 0 0 .164 1.696 1.067 1.067 0 0 0 1.627-.192 1.18 1.18 0 0 0 .342-.916c.18.107.38.177.588.205.77.06 1.534.183 2.283.37.602.19 1.436 0 1.532-.452a.916.916 0 0 0-.643-.902.62.62 0 0 1-.52-.246.944.944 0 0 0 1.217-.315 1.86 1.86 0 0 0-.26-1.64c-.396-.301-1.093 0-1.49.547a.93.93 0 0 0-.177.615 4 4 0 0 0-.506-.26 1.75 1.75 0 0 0-.711-.082 6 6 0 0 0-.711 0c-.793.082-1.176.424-1.19 1.04a.55.55 0 0 0 0 .259 1.15 1.15 0 0 0-.806-.164 3.8 3.8 0 0 0 .369-.711 1.066 1.066 0 0 0-.998-1.504M39.998 89.674c-.15.232-.437.902-.219 1.094.219.191.848-.082 1.108-.22.26-.136.191-.67-.082-.901-.274-.233-.657-.288-.807.027M37.988 82.031a1.19 1.19 0 0 0 .137 1.436 1.15 1.15 0 0 0 1.299-.588.793.793 0 0 0-.397-.97.78.78 0 0 0-1.039.122M40.832 88.648c0 .15.15.37.273.397q.583.125 1.176.178c.506.82 1.176 1.19 1.668.888a1.585 1.585 0 0 0 .397-1.859c-.342-.574-.711-.574-1.887 0-.3-.424-.533-.916-1.148-.588a.793.793 0 0 0-.479.984M42.883 86.926a.79.79 0 0 0 0-1.04.746.746 0 0 0-1.233.107.75.75 0 0 0 .07.823 1 1 0 0 0 1.163.11"/><path fill="#0269B3" d="M40.23 91.602a1.19 1.19 0 0 0 .274 1.49.984.984 0 0 0 1.217-.11c.478-.629.533-1.367.109-1.668a1.37 1.37 0 0 0-1.6.288M71.594 99.025c-.41.11-.533 1.094-.233 1.258s1.108-.314 1.012-.738a1 1 0 0 0-.11-.219.314.314 0 0 0-.519-.3.6.6 0 0 0-.15 0M47.805 82.332a.67.67 0 0 0 .095-.998.81.81 0 0 0-1.039-.068.68.68 0 0 0-.095.998.806.806 0 0 0 1.039.068M46.656 83.398a.234.234 0 0 0 .069.329c.123.068.26 0 .3-.096.041-.096 0-.246-.109-.274-.11-.027-.205-.109-.26.041M42.022 70.52c.232-.206.382-.575.068-.793a.86.86 0 0 0-.807 0c-.178.164-.15.546-.205.751.438.356.711.247.944.041M50.676 79.297a.44.44 0 0 0 0-.533.45.45 0 0 0-.52.11c-.082.108-.178.532 0 .628s.451-.123.52-.205M40.586 79.475a1.244 1.244 0 0 0 .506 1.681 1.37 1.37 0 0 0 1.613-.492 1 1 0 0 0 .096-.246.6.6 0 0 0 .205-.11 1.2 1.2 0 0 0-.178-1.503 1.094 1.094 0 0 0-1.477.11 1.04 1.04 0 0 0-.765.56M46.369 87.186a1.15 1.15 0 0 0 1.19.642.874.874 0 0 0 .875-.861 2 2 0 0 1 0-.233.92.92 0 0 0 .697-.396.71.71 0 0 0-.233-.984.79.79 0 0 0-.998 0c-.232 0-.41.246-.588.287-.67.164-1.203.998-.943 1.545M50.02 84.014c.26.095.956.218 1.134 0 .178-.22-.342-.807-.56-.985-.22-.177-.575-.123-.739.246-.164.37-.136.616.164.739M39.52 64.354a.697.697 0 0 0-.233-.93 1 1 0 0 0-.752-.11c-.547.274-.492.752-.26 1.368.506.027.971.191 1.245-.329M22.197 66.992a2.2 2.2 0 0 0 1.778-1.367 1.93 1.93 0 0 0-.123-1.818c-.342-.52-1.094-.342-1.655-.643zM24.316 56.766a.85.85 0 0 0 .493.478 1.366 1.366 0 0 0 1.873-.738c.082-.15.15-.3.232-.465q.403.246.834.438a.75.75 0 0 0 1.121-.37 1.18 1.18 0 0 0 0-1.367 1.04 1.04 0 0 0-1.217-.328 6 6 0 0 0-.916.465c-.15 0-.3-.164-.45-.219a1.59 1.59 0 0 0-1.71.342 1.78 1.78 0 0 0-.26 1.764M23.92 61.346a.94.94 0 0 0-.397-.725c-.52-.219-.888.11-1.162.588.137.424.301.861.834.861a.696.696 0 0 0 .725-.724M35.637 70.67c.178.574.574.71 1.162.56.683 1.272 1.531 1.217 2.351-.082q.15-.02.301 0c.41.124.643-.095.834-.423a.75.75 0 0 0-.095-.862c-.465-.697-.848-.765-1.518-.246l-1.531 1.121c-.766-.875-.903-.875-1.504-.068M26.23 52.418a.74.74 0 0 0 .643-.67.67.67 0 0 0-1.08-.451.696.696 0 0 0 .437 1.121M31.59 93.994a.79.79 0 0 0-.67-.642 1.174 1.174 0 0 0-1.696 0q.01-.43.11-.848a.74.74 0 0 0-.219-.998 1.07 1.07 0 0 0-1.23-.233c-.337.156-.65.358-.93.602a1 1 0 0 0-.479.205.97.97 0 0 0-.177 1.203q.17.2.383.356l.109.328a.3.3 0 0 1 0 .123 2.6 2.6 0 0 0-.342-.533.505.505 0 0 0-.807 0 .6.6 0 0 0 0 .916c.241.105.505.148.766.123a.67.67 0 0 0 .205.93.807.807 0 0 0 1.217-.493c.164-.52.533-.56.943-.724q.154.342.397.629c-.465.314-.698.724-.56 1.107a1.59 1.59 0 0 0 1.736.78c.628-.192.71-.561.355-1.833h.082c.52-.219.984-.369.807-.998M69.639 92.326a.26.26 0 0 0-.22-.232c-.081 0-.204.137-.204.205s0 .205.15.219a.23.23 0 0 0 .274-.192M55.42 93.488c.25.18.555.262.861.233a.85.85 0 0 0 .506.314.7.7 0 0 0 .807-.588.92.92 0 0 0-.164-.683 1.6 1.6 0 0 0-.547-1.723 1.695 1.695 0 0 0-2.037.438c-.465.615-.22 1.49.574 2.01M68.86 93.926c0-.11-.124-.479-.247-.588-.123-.11-.382 0-.396 0a.57.57 0 0 0 0 .506c.096.15.547.191.642.082M57.635 100.598h1.818c.143-.164.242-.362.287-.575 0-.41-.396-.875-.916-.916a1.054 1.054 0 0 0-1.271.916c-.008.195.02.39.082.575M57.47 81.238c.11-.177-.15-.752-.314-.957s-.587-.164-.861.178a.466.466 0 0 0 .178.766c.232.109.888.205.998.013M66.207 96.332a1.27 1.27 0 0 0 .274 1.367.78.78 0 0 0 1.052-.342.63.63 0 0 0 .082-.464c.315.478 0 .916.451 1.463q.147.156.342.246a.985.985 0 0 0 1.463-1.04 6.5 6.5 0 0 0-.396-1.6 1.59 1.59 0 0 0-1.682-.71c-.314.082-.848.465-.71.998-.397-.232-.74-.191-.876.082M67.697 88.102a.8.8 0 0 0 0-.711.74.74 0 0 0-1.08.082c-.164.218 0 .82.52.916a.66.66 0 0 0 .56-.287M58.414 89.523c.219-.232-.123-.478-.233-.587-.109-.11-.382 0-.41 0a.62.62 0 0 0 0 .52.437.437 0 0 0 .643.067M49.09 89.127a.78.78 0 0 0 .26.684c.15.109.752.082.86-.11.11-.191-.204-.78-.327-.793s-.739.028-.793.219M48.72 73.117a.41.41 0 0 0 .083.438c.123.082.383 0 .506-.15.123-.151.136-.424 0-.548-.137-.123-.493.137-.588.26M50.47 87.227a1.37 1.37 0 0 0 .616 1.64c.533.315 1.039.11 1.367-.56a1.08 1.08 0 0 0-.3-1.272 1.82 1.82 0 0 0-1.682.192M48.352 74.21a.44.44 0 0 0-.15.589c.19.26.491 0 .628-.11.137-.109.096-.369 0-.41a.61.61 0 0 0-.478-.068M45.617 91.424a1.65 1.65 0 0 0 .438 1.545c.355.273.752.11 1.093-.41.342-.52.342-.985 0-1.245a.97.97 0 0 0-1.53.11M52.084 93.639c0-.328-.287-.862-.602-.916-.314-.055-.793.806-.834 1.134a.7.7 0 0 0 0 .26 1.37 1.37 0 0 0-.205 1.121 1.37 1.37 0 0 0 1.367 1.108c.575 0 .985-.82 1.012-1.614a1.37 1.37 0 0 0-.738-1.093M60.26 98.11a.52.52 0 0 0 .834-.22c0-.246.15-.546 0-.724s-.903 0-1.08.273c-.178.274.013.506.246.67M59.836 95.936a.752.752 0 1 0-.41 1.367.793.793 0 0 0 .93-.602.615.615 0 0 0-.52-.765M45.248 74.58a.435.435 0 0 0 0 .67.52.52 0 0 0 .602-.082.41.41 0 0 0 0-.574.425.425 0 0 0-.602-.014M61.777 91.3c-.314-.163-.642-.245-.902.11a.85.85 0 0 0 .15 1.026c.233.15.684 0 .916-.452a.438.438 0 0 0-.164-.683"/><path fill="#0269B3" d="M59.412 94.473a.89.89 0 0 0-.738.273.63.63 0 0 0 .123.97.684.684 0 0 0 .916-.136c.232-.232.014-1.053-.3-1.107M54.121 94.828a.86.86 0 0 0-.191.711c.205.506.642.355 1.052.26.192-.451.206-.862-.246-1.08a.62.62 0 0 0-.615.11M53.287 97.713a.4.4 0 0 0-.123 0 1.24 1.24 0 0 0-.697.342c-.424.41-.383.875.342 1.367q.82.177 1.654.26a.682.682 0 0 0 .765-.684.74.74 0 0 0-.629-.82 2.3 2.3 0 0 1-.642-.233 2 2 0 0 0-.315-.136c-.136-.041-.273-.123-.355-.096M34.68 100.434s.095-.192 0-.274a.24.24 0 0 0-.164-.068.23.23 0 0 0-.164.068.246.246 0 0 0 0 .315s.328.013.328-.041M44.975 97.836a3 3 0 0 0-.657-.602l-.957.588q.067.369.22.711a.82.82 0 0 0 .669.465c-.054.277-.005.563.137.807.157.188.26.414.3.656a.29.29 0 0 0-.232.109h2.229a.3.3 0 0 0-.082-.177.5.5 0 0 0 .41-.247 1.28 1.28 0 0 0-.301-1.367.62.62 0 0 0-.52 0 .75.75 0 0 0-.957-.533h-.164a.86.86 0 0 0-.095-.41M32.71 65.256a1.05 1.05 0 0 0 .083 1.558 1.367 1.367 0 1 0 1.887-1.859 1.504 1.504 0 0 0-1.97.3M31.7 78.176a.79.79 0 0 0-.753.3.834.834 0 0 0 .137 1.108.81.81 0 0 0 1.012-.178.5.5 0 0 0 .082-.191c.41.383.902.451 1.203.137a2.08 2.08 0 0 0 .164-1.737 1.107 1.107 0 0 0-1.64.11.75.75 0 0 0-.206.45M23.742 70.096a2.26 2.26 0 0 0 2.338.095 1.435 1.435 0 0 0-.068-1.968 1.67 1.67 0 0 0-2.078-.082 1.37 1.37 0 0 0-.192 1.955M61.518 100.187a1 1 0 0 0 0 .411h2.556a.77.77 0 0 0-.287-.411.45.45 0 0 0-.246 0 .79.79 0 0 0-.588-.874 1.66 1.66 0 0 0-1.435.874M30.66 60.416a1.19 1.19 0 0 0-.287 1.367 1.37 1.37 0 0 0 1.695.123 1.244 1.244 0 0 0 0-1.6c-.355-.423-.847-.396-1.408.11M44.455 91.602c-.11.123-.342.355-.191.574.15.218.478.082.52 0a.66.66 0 0 0 .081-.506s-.355-.178-.41-.068M42.705 83.672a.766.766 0 0 0 0 1.107 1.285 1.285 0 0 0 1.6-.177.9.9 0 0 0-.055-1.204 1.12 1.12 0 0 0-1.545.274M34.857 57.627c-.383.287-.328 1.025.137 1.572a.9.9 0 0 0 1.135.082 1.11 1.11 0 0 0 .232-1.367 1.26 1.26 0 0 0-1.504-.287M38.399 85.176a1.49 1.49 0 0 0 .068 1.968 1.9 1.9 0 0 0 2.256-.287 1.504 1.504 0 0 0-.383-1.941 1.463 1.463 0 0 0-1.942.26M42.664 72.94a.51.51 0 0 0 0 .546c.137.11.41.315.533.164a.53.53 0 0 0 0-.547c0-.109-.41-.314-.533-.163M28.035 67.676a1.367 1.367 0 0 0-.068 2.174 1.517 1.517 0 0 0 2.133 0 1.82 1.82 0 0 0-.233-2.188 1.244 1.244 0 0 0-1.832.014M36.375 80.418c.137-.246-.26-.807-.451-1.025-.192-.22-.697 0-.862.273-.164.273-.15.67.192.78s.984.218 1.12-.028M42.664 98.137c.233-.315.191-.985-.123-1.121a2.2 2.2 0 0 0-1.559-.356c-.82.219-.875.274-.806 1.23.355.206.656.356.943.534a1.26 1.26 0 0 0 1.545-.287M35.65 85.627c.247.15.766-.314.875-.52.11-.205-.095-.505-.26-.656a.6.6 0 0 0-.218-.095.75.75 0 0 0-.246-.725.93.93 0 0 0-1.258.191c.003.306.068.609.191.889a.63.63 0 0 0 .766.178c-.014.273-.041.642.15.738M33.723 72.078c-.342.328 0 .861.164 1.135.164.273.588.287.888 0s.37-.629 0-.861c-.369-.233-.697-.602-1.052-.274M37.688 90.508c-.137.136-.11.52 0 .738a.66.66 0 0 0 .546.3c.493-.081.63-.464.575-.97-.383-.205-.766-.478-1.121-.068M34.857 88.867c-.205.219.15.82.315.985.164.164.52 0 .697-.124a.382.382 0 0 0 0-.683c-.232-.055-.82-.342-1.012-.178M34.188 81.033a.85.85 0 0 0 .068 1.094.875.875 0 0 0 1.121 0 .78.78 0 0 0 0-1.094.86.86 0 0 0-1.19 0"/><path fill="#0269B3" d="M42.568 100.201c-.109-1.217-.52-1.586-1.613-1.449-.834.11-1.668.164-2.474.246-.069-.287-.123-.52-.178-.71l.191-.179c.192-.246-.136-1.025-.752-1.08a.88.88 0 0 0-.656.342.8.8 0 0 0-.11.328l-.204.082a1.245 1.245 0 0 0 1.011 1.559c-.002.43.077.857.233 1.258h4.566c0-.123 0-.246-.014-.397M28.938 89.674a.64.64 0 0 0-.41.465c0 .505.314.71.82.765.273-.3.629-.615.314-1.039a.86.86 0 0 0-.724-.191"/><path fill="#0269B3" d="M37.715 100.146c-.11-.628-.246-1.12-.916-1.148a.657.657 0 0 0-.725.574c-.035.317.053.635.246.889a.8.8 0 0 0 .219.137h.437q.385-.2.739-.452M26.64 98.697a1.37 1.37 0 0 0 1.286-.424 1.15 1.15 0 0 0-.424-1.08.9.9 0 0 0-.314-.109.86.86 0 0 0-.15-1.04 1.68 1.68 0 0 0-1.546.097c-.328.287-.273.71.164 1.148.171.195.394.337.643.41a.99.99 0 0 0 .342.998M23.537 85.518a.92.92 0 0 0-.287-.82 1.04 1.04 0 0 0-1.053-.206v1.64a.8.8 0 0 0 .328.096 1.23 1.23 0 0 0 .233 1.368.74.74 0 0 0-.56.082v1.367a.89.89 0 0 0 1.08-.547.8.8 0 0 0-.11-.547 1.147 1.147 0 0 0 1.682-.314 1.56 1.56 0 0 0-.506-2.092c-.26-.09-.541-.1-.807-.027M55.393 100.119a.714.714 0 0 0-.739.479h1.367a.9.9 0 0 0-.628-.479M63.719 90.316a.778.778 0 0 0-.903.739.82.82 0 0 0 .698.861.805.805 0 0 0 .97-.684.86.86 0 0 0-.765-.916M22.375 70.629h-.219v2.447a1.37 1.37 0 0 0 1.367-.875c.22-.574-.382-1.258-1.148-1.572M68.135 100.598h.847a.73.73 0 0 0-.328-.151 1 1 0 0 0-.52.151M22.484 74.293c-.369.37-.205 1.025.383 1.6a1.01 1.01 0 0 0 1.23-.096 1.37 1.37 0 0 0 .083-1.367 1.37 1.37 0 0 0-1.696-.137M24.002 78.176a.82.82 0 0 0 0-1.19.97.97 0 0 0-1.217 0 1.37 1.37 0 0 0 .137 1.367 1.11 1.11 0 0 0 1.08-.177M66.125 88.43a.75.75 0 0 0-1.08.177.79.79 0 0 0 .15 1.012.78.78 0 0 0 1.08-.219.616.616 0 0 0-.15-.97M64.389 83.986c-.123.164.095.684.218.739s.588.15.711 0a.72.72 0 0 0-.095-.698c-.11-.109-.711-.218-.834-.04M25.41 74.54a.806.806 0 0 0 .164 1.038.683.683 0 0 0 .984-.137.765.765 0 0 0-.164-1.011.655.655 0 0 0-.984.11M31.22 85.504a.697.697 0 0 0-.956.314.943.943 0 0 0 .465 1.19c.297-.067.577-.197.82-.383.314-.3.096-.889-.328-1.121M30.742 90.234a.985.985 0 0 0 .301 1.368.656.656 0 0 0 .916-.165.82.82 0 0 0 .11-1.039.93.93 0 0 0-1.327-.164M26.832 71.64a1.09 1.09 0 0 0 0 1.231.792.792 0 0 0 1.19 0 .875.875 0 0 0 .082-1.121 1.22 1.22 0 0 0-1.272-.11M30.031 83.139a.643.643 0 0 0 0 .916.81.81 0 0 0 .985.341.915.915 0 0 0 .464-1.257.985.985 0 0 0-1.449 0M32.533 86.79c-.533.532-.615.997-.218 1.366a1.37 1.37 0 0 0 1.681.123c.643.41 1.108.383 1.436-.095a1.37 1.37 0 0 0-.233-1.668 1.37 1.37 0 0 0-1.258 0 1.15 1.15 0 0 0-1.408.273"/><path fill="#1BA9F5" d="M27.844 92.969V87.5c3.035 0 4.334-4.648 5.838-11.238 1.572-6.836 3.35-14.615 10.295-14.615s8.968 7.71 10.937 14.505c1.271 4.512 2.858 10.131 5.223 10.131s4.156-9.72 5.222-15.517c2.051-11.075 4.17-22.532 12.62-22.532 8.203 0 9.734 9.98 11.197 19.633 1.558 10.063 2.926 17.172 7.71 17.172v5.469c-9.788 0-11.552-11.594-13.11-21.875-1.067-7.027-2.284-15.04-5.797-15.04-3.91 0-5.838 10.446-7.233 18.061-1.887 10.377-3.691 20.07-10.678 20.07-6.507 0-8.627-7.492-10.486-14.109-1.367-4.935-2.98-10.527-5.633-10.527-2.406 0-3.568 4.307-4.963 10.377-1.572 6.89-3.54 15.504-11.142 15.504"/><path fill="#343741" d="M78.02 55.453a6.385 6.385 0 1 0 0-12.77 6.385 6.385 0 0 0 0 12.77M43.95 70.205a6.385 6.385 0 1 0 0-12.77 6.385 6.385 0 0 0 0 12.77"/><path fill="#1BA9F5" d="M153.242 82.62H71.484v63.15h81.758z"/><path fill="#07C" d="M92.184 109.648h-7.862v26.633h7.862zM108.426 101.883h-7.862v34.398h7.862zM124.668 105.711h-7.861v30.584h7.861zM140.896 92.969h-7.861v43.326h7.861z"/><path fill="#CED5E1" d="M155.074 64.64c-.342-2.242-3.896-4.224-5.469-5.468-4.648-3.527-9.57-6.152-14.109-9.775s-9.666-7.493-14.547-11.116A31 31 0 0 0 116.123 35c-.67-.342-3.705-2.023-2.064-.834-2.079-1.504-4.102 1.941-2.01 3.418-2.324-1.668.301.615 1.025 1.367a27.4 27.4 0 0 0 4.348 3.377c5.072 3.486 10.226 6.89 15.408 10.322s9.502 7.383 14.643 10.938c1.804 1.23 4.224 3.377 6.548 2.98a1.543 1.543 0 0 0 1.053-1.859zM133.117 70.219a10.66 10.66 0 0 0-3.855-3.623 30 30 0 0 1-2.926-1.368c-1.053-.765-1.941-1.831-2.967-2.638-1.873-1.463-7.738-8.203-10.363-4.799s5.469 6.836 7.355 8.203c1.19.82 2.543 1.367 3.733 2.188 1.189.82 1.367 1.462 2.256 2.337a10.4 10.4 0 0 0 4.634 2.543 1.917 1.917 0 0 0 2.333-1.682 1.9 1.9 0 0 0-.2-1.052zM64.758 142.611c-.342-2.242-3.897-4.224-5.469-5.468-4.648-3.514-9.502-6.153-14.11-9.776s-9.679-7.478-14.6-11.156a32 32 0 0 0-4.827-3.281c-.643-.328-3.664-2.01-2.01-.821-2.078-1.49-4.101 1.942-2.01 3.432-2.324-1.682.301.602 1.026 1.367a27.4 27.4 0 0 0 4.334 3.404c5.072 3.528 10.24 6.973 15.408 10.364 5.168 3.39 9.57 7.396 14.643 10.937 1.804 1.217 4.224 3.377 6.548 2.967a1.547 1.547 0 0 0 1.053-1.859zM67.629 124.414a16.2 16.2 0 0 0-4.936-4.402 24 24 0 0 1-4.511-2.639c-1.245-1.066-2.489-2.133-3.801-3.144-2.01-1.532-8.969-9.325-11.99-6.249-3.391 3.446 6.576 7.999 8.312 9.133a59.4 59.4 0 0 1 8.928 6.645 15.8 15.8 0 0 0 5.865 3.39c1.49.452 3.104-1.367 2.133-2.734"/></svg>