<svg xmlns="http://www.w3.org/2000/svg" width="48" height="48" fill="none"><path fill="#ECF0F6" d="M24 47.625c13.255 0 24-10.661 24-23.812S37.255 0 24 0 0 10.661 0 23.813c0 13.15 10.745 23.812 24 23.812"/><path fill="#fff" d="M42.952 8.948a.05.05 0 0 0 .037-.027c-.116-.116-.24-.225-.356-.337a.22.22 0 0 0-.019.21.244.244 0 0 0 .3.169zM44.4 12.657q.06.01.12 0a.8.8 0 0 1 .123.172.375.375 0 0 0 .413.229c.183-.03.255-.161.146-.413-.083-.078-.206-.213-.349-.33v-.026a.304.304 0 0 0-.27-.334c-.191-.04-.457.083-.487.225a.43.43 0 0 0 .303.477M45.438 12.15a.3.3 0 0 0 .131-.164 17 17 0 0 0-.52-.716.2.2 0 0 0-.11.045.22.22 0 0 0-.052.303.3.3 0 0 0 .101.075.26.26 0 0 0 .019.207c.142.25.259.333.431.25M44.55 11.22c.254.136.374.14.468 0a11 11 0 0 0-.326-.415c-.161.105-.146.266-.143.416M44.024 10.917a.25.25 0 0 0 .18-.14.4.4 0 0 0-.079-.284c-.142-.131-.25 0-.375.094.015.187.068.333.274.33M20.126 7.702a.32.32 0 0 0 .033-.375c-.183-.191-.416-.247-.536-.127a.47.47 0 0 0 .026.528.42.42 0 0 0 .477-.026M28.334 2.643c-.12.21-.079.352.139.484a.345.345 0 0 0 .465-.042.525.525 0 0 0-.176-.622h-.192a.44.44 0 0 0-.236.18M26.163 4.954c-.041.038-.075.23-.023.274.053.045.252 0 .267-.049.015-.048.045-.228 0-.258a.26.26 0 0 0-.244.033M27.363 2.622a.5.5 0 0 0-.045-.102.3.3 0 0 0 .071-.112l-.24-.008h-.157v.038a.1.1 0 0 0-.03.026 3 3 0 0 0-.135.353c-.289.097-.447.277-.375.453a.5.5 0 0 0 .536.255c.203-.063.229-.18.113-.585.153-.067.318-.108.262-.318M29.868 3.56c.12-.03.259-.023.33-.132s.285-.416.157-.623c-.127-.206-.273-.045-.408-.063a.33.33 0 0 0-.312.138.45.45 0 0 0-.24.124.4.4 0 0 0 0 .488.17.17 0 0 1-.123-.042c-.102-.093-.323-.093-.5.132-.175.225-.06.573.15.585.21.01.267-.102.32-.05.052.053.1.226.24.222.138-.004.292-.397.292-.465 0-.067-.079-.187-.022-.262a.5.5 0 0 0 .116-.053M33.918 3.525a.44.44 0 0 0-.472.086.47.47 0 0 0 .16.487.205.205 0 0 0 .293-.063c.158-.225.162-.428.02-.51M30.487 3.525c-.06.09 0 .213.037.296.038.082.203.052.267-.034a.175.175 0 0 0-.038-.262c-.09-.042-.203-.08-.266 0M26.43 6.049a.345.345 0 0 0 .416 0 .57.57 0 0 0 .037-.57.42.42 0 0 0-.525.101c-.135.135-.109.308.071.469M19.706 5.797a.56.56 0 0 0-.593 0 .375.375 0 0 0 0 .506.42.42 0 0 0 .529.03.405.405 0 0 0 .064-.536M34.094 4.316a.264.264 0 1 0 .282-.446.29.29 0 0 0-.375.109.255.255 0 0 0 .093.337M25.98 4a.323.323 0 0 0-.06-.453l-.035-.023a.4.4 0 0 0-.558.068l-.034.052a.424.424 0 0 0 .075.56.38.38 0 0 0 .326.022.19.19 0 0 0 .188-.064.4.4 0 0 0 .097-.161M25.45 4.511a.255.255 0 0 0-.217.248.187.187 0 0 0 .135.221c.184.06.277-.049.375-.191-.071-.139-.094-.308-.293-.278M24.584 2.55a.6.6 0 0 0-.06.188.3.3 0 0 0-.064-.113l-.06-.052-.375.052a.7.7 0 0 1 .12.255.25.25 0 0 0 .218.087.27.27 0 0 0 .161-.132.26.26 0 0 0 .098.233.3.3 0 0 0 .322-.135c.045-.176.173-.15.281-.206a.4.4 0 0 0 .105-.087.43.43 0 0 0 .424 0 .25.25 0 0 0 .045-.176c.143.116.308.146.405.056a.26.26 0 0 0 .071-.12c-.57.045-1.136.087-1.69.15M20.122 4.369a.375.375 0 0 0-.6.022.375.375 0 0 0-.045.596.438.438 0 0 0 .663-.026.45.45 0 0 0-.018-.592M38.17 7.098a.154.154 0 0 0 .222 0 .15.15 0 0 0 .037-.06.8.8 0 0 0 0-.232.236.236 0 0 0-.33.075c-.075.112-.004.168.071.217M37.96 5.632a.27.27 0 0 0 .214-.09.18.18 0 0 0 0-.195c-.086-.132-.213-.12-.352-.034.004.127-.026.274.139.319M37.154 9.42a.24.24 0 0 0 .236-.229.375.375 0 0 0-.307-.33.35.35 0 0 0-.214.394.244.244 0 0 0 .285.165M28.51 3.33a.24.24 0 0 0-.248-.107.24.24 0 0 0-.089.035.41.41 0 0 0-.052.51.28.28 0 0 0 .375.03.35.35 0 0 0 .015-.468M36.344 6.15a.47.47 0 0 0 .555-.285.6.6 0 0 0-.375-.608.476.476 0 0 0-.498.375.46.46 0 0 0 .318.518M36.175 4.47a.307.307 0 0 0 .117.487.38.38 0 0 0 .4.026.25.25 0 0 0 .316 0 .2.2 0 0 0 .079-.131 1.4 1.4 0 0 0-.045-.169l-.732-.337a.4.4 0 0 0-.135.123M38.812 7.65a.315.315 0 0 0 .375-.248v-.023a.206.206 0 0 0-.165-.24.26.26 0 0 0-.315.11.293.293 0 0 0 .1.4zM37.36 5.097a.23.23 0 0 0 .315-.049v-.022c-.146-.08-.296-.154-.446-.23a.255.255 0 0 0 .131.3M41.774 8.186a.28.28 0 0 0 0 .255.146.146 0 0 0 .225.101c.098-.056.18-.124.14-.255-.042-.131-.316-.161-.365-.101M41.845 9.836a.38.38 0 0 0 .338-.202.34.34 0 0 0-.233-.311.247.247 0 0 0-.296.187v.03a.27.27 0 0 0 .191.296"/><path fill="#fff" d="M42.318 8.44q.076.011.146-.018l-.401-.375a.44.44 0 0 0 .255.394M28.342 4.65a.068.068 0 1 0-.105-.086.075.075 0 0 0 0 .101.1.1 0 0 0 .105-.015M39.757 6.263a21 21 0 0 0-.994-.634l.056.075a.58.58 0 0 0 0 .656.62.62 0 0 0 .874-.03l.045-.052zM39.355 9.44a.353.353 0 0 0 .375-.33c.023-.173-.097-.286-.33-.32-.232-.033-.337.057-.348.2a.63.63 0 0 0 .303.449M37.612 6.27a.6.6 0 0 0 0-.228.244.244 0 0 0-.334.071c-.052.105 0 .161.083.21a.165.165 0 0 0 .25-.052M27.873 4.627a.255.255 0 0 0 .345-.075.24.24 0 0 0-.086-.311.214.214 0 0 0-.3.026.236.236 0 0 0 .041.33zM27.36 3.546a.24.24 0 0 0 .333-.056.217.217 0 0 0-.082-.296.25.25 0 0 0-.338.097.195.195 0 0 0 .068.263zM23.774 2.67l-.333.056a.5.5 0 0 0 .333-.056M28.274 2.517a1 1 0 0 0 .06-.082c-.243 0-.49 0-.75-.023q.018.05.053.09a.476.476 0 0 0 .637.015M23.478 3.188a.28.28 0 0 0-.053-.349c-.1-.064-.34-.034-.375.049a.345.345 0 0 0 .105.405.244.244 0 0 0 .323-.105M39.344 14.296a.23.23 0 0 0-.101.199c0 .052.146.183.21.16s.094-.194.075-.232c-.019-.037-.131-.139-.184-.127M32.992 7.525q.097-.15.165-.318a.49.49 0 0 0-.229-.525.2.2 0 0 0-.27.026c-.186.21-.305.471-.341.75q0 .066.022.127a.315.315 0 0 0 .375.207.3.3 0 0 0 .072-.034.17.17 0 0 0 .12-.064.24.24 0 0 0 .086-.169M32.774 9.24c.113-.097 0-.416-.101-.427s-.304.27-.214.375a.244.244 0 0 0 .315.052M32.864 10.609a.23.23 0 0 0-.034-.218.16.16 0 0 0-.217 0 .2.2 0 0 0-.03.041c-.034.06-.09.233.037.308.128.075.218-.09.244-.131M32.632 8.107c-.019-.067-.154-.06-.184-.041a.17.17 0 0 0-.075.154c0 .056.113.067.161.056a.16.16 0 0 0 .098-.169M36.123 13.11c0 .026.049.109.071.109.023 0 .124-.038.139-.08a.14.14 0 0 0-.075-.175c-.109-.03-.109.097-.135.146M36.749 12.44a.13.13 0 0 0 .101.146.135.135 0 0 0 .169-.094.1.1 0 0 0 0-.038.14.14 0 0 0-.12-.153.15.15 0 0 0-.15.139M37.162 10.65c.026-.176-.045-.285-.2-.307-.217-.034-.464.109-.483.277-.019.17.161.323.338.342a.34.34 0 0 0 .345-.312M34.65 3.967c0 .027 0 .068.048.072a.07.07 0 0 0 .083-.05.08.08 0 0 0-.068-.074c-.023-.015-.064.034-.064.052M25.68 7.58a.143.143 0 0 0-.046.187c.057.083.154 0 .195-.034a.13.13 0 0 0 0-.127.2.2 0 0 0-.15-.026M26.103 5.723a.333.333 0 0 0-.06-.457.5.5 0 0 0-.611.146.375.375 0 0 0 .671.311M25.274 6.525a.447.447 0 0 0-.63 0l-.026.03a.4.4 0 0 0-.049.57.51.51 0 0 0 .701.049.536.536 0 0 0 .004-.65M30.742 6.376c-.165-.319-.458-.09-.488-.326s.199-.158.139-.488-.375-.468-.555-.307-.105.375-.154.375-.296.075-.262.259c-.045-.023-.098-.034-.124 0a.28.28 0 0 0 .022.198.15.15 0 0 0 .17.019v-.03c.127.146.337.071.374.154q.038.263.105.521a.4.4 0 0 0 .559.248.435.435 0 0 0 .214-.623M30.213 8.91c-.03.045-.064.147 0 .2a.15.15 0 0 0 .195-.038c.034-.038.101-.17 0-.244-.101-.075-.169.037-.195.082M29.024 5.236a.375.375 0 0 0 0-.454c-.203-.165-.431 0-.544.071-.112.071 0 .375.214.473a.236.236 0 0 0 .323-.08zM28.68 7.95v.094a.08.08 0 0 0 .07 0c0-.034.03-.079 0-.101s-.037.003-.07.007M36.57 7.068a.4.4 0 0 0 .03-.056c.09-.019.236-.06.243-.142.008-.083-.195-.173-.27-.18h-.049a.52.52 0 0 0-.506.037.33.33 0 0 0 .079.465q.018.017.041.026c.124.09.304.03.431-.15M38.613 12.844c0 .098 0 .218.135.214a.2.2 0 0 0 .214-.139c0-.06-.068-.169-.094-.229-.184-.026-.24.06-.255.154M42.206 11.223a.375.375 0 0 0 .435-.3.3.3 0 0 0 0-.075.6.6 0 0 0 0-.228.5.5 0 0 0 .315-.023.285.285 0 0 0 .138-.285.535.535 0 0 0 .5-.375.443.443 0 0 0-.327-.525.71.71 0 0 0-.604.424c-.011.07 0 .143.034.206h-.023a.47.47 0 0 0-.22.315.6.6 0 0 0-.207-.064.48.48 0 0 0-.521.428c-.02.206.225.461.48.502M39.787 11.847c.375.07.375.045.375-.27-.158-.113-.285-.068-.398.082-.42-.184-.619 0-.574.476a.4.4 0 0 1-.078.053c-.124.049-.139.15-.124.266s.083.161.188.199c.25.082.374.026.427-.233.067-.19.127-.386.184-.573M39.187 10.099a.375.375 0 0 0-.3-.435.495.495 0 0 0-.53.427.5.5 0 0 0 .376.458c.229.026.416-.158.454-.45M41.82 13.039c-.035-.083-.188-.105-.316-.049a.143.143 0 0 0-.097.176.1.1 0 0 0 0 .034c.052.101.127.176.259.131a.26.26 0 0 0 .153-.292M41.628 11.989a.43.43 0 0 0-.487.374v.046a.43.43 0 0 0 .375.43c.21.027.416-.19.446-.464a.33.33 0 0 0-.285-.375zM24.562 8.37c-.064.06-.03.213.07.31a.135.135 0 0 0 .188.034l.034-.033c.075-.087.12-.184.03-.29a.255.255 0 0 0-.322-.022M15.757 6.33c.123.053.345-.168.3-.266-.045-.097-.338-.135-.394 0a.225.225 0 0 0 .094.267M12.648 7.71c-.049.083-.135.305-.075.376s.285-.049.292-.083c.03-.105.09-.236 0-.33a.13.13 0 0 0-.217.038M35.058 4.737a.35.35 0 0 0 .277.375.236.236 0 0 0 .304-.139.405.405 0 0 0-.27-.435.28.28 0 0 0-.311.199M37.402 8.153a.22.22 0 0 0 .213.23.296.296 0 0 0 .274-.293c-.052-.045-.124-.15-.217-.184-.094-.034-.26.094-.27.247M35.227 3.9l-.3-.12c.085.07.19.112.3.12M37.615 6.559a.424.424 0 0 0-.446.292.45.45 0 0 0 .33.424c.139.023.311-.142.338-.326.026-.184-.042-.36-.222-.39M40.74 9.862a.42.42 0 0 0 .277.458c.131.018.375-.248.375-.413a.337.337 0 0 0-.668-.045zM41.28 11.4c-.05.026-.14.082-.11.135a.17.17 0 0 0 .158.071c.041 0 .15-.109.12-.161a.17.17 0 0 0-.169-.045M18.43 9.413a.25.25 0 0 0 .034-.322.25.25 0 0 0-.348-.03.195.195 0 0 0-.068.262l.038.045a.24.24 0 0 0 .33.056zM20.55 6.168a.23.23 0 0 0 .026.323h.018c.094.067.195.146.282.063.146-.157.16-.31.07-.405a.26.26 0 0 0-.374-.022zM18.487 10.788a.29.29 0 0 0 0-.356.225.225 0 0 0-.312 0 .274.274 0 0 0-.026.375.266.266 0 0 0 .338-.02M19.822 4a.53.53 0 0 0 .75-.026.495.495 0 0 0 .082-.619c-.322.098-.645.203-.96.315a.4.4 0 0 0 .128.33M16.02 9.642a.27.27 0 0 0 0 .375.244.244 0 0 0 .374 0 .26.26 0 0 0 0-.35.25.25 0 0 0-.352-.044zM23.216 9.296a.17.17 0 0 0 .018.173c.041.034.128.097.169.052a.18.18 0 0 0 0-.172c-.004-.034-.146-.101-.187-.053M21.877 8.193a.296.296 0 0 0-.375.027.345.345 0 0 0-.03.446.45.45 0 0 0 .514.034c.082-.094.026-.368-.11-.507M21.596 11.137a.18.18 0 0 0 .018.195.17.17 0 0 0 .158 0 .14.14 0 0 0 0-.154c-.015-.03-.128-.101-.176-.041M21.04 5.025a.394.394 0 0 0-.48 0 .35.35 0 0 0 .053.439.214.214 0 0 0 .3-.023c.172-.195.214-.337.128-.416M17.306 6.015a.327.327 0 0 0-.465 0 .1.1 0 0 0-.027.027.375.375 0 0 0-.056.487.47.47 0 0 0 .54 0 .33.33 0 0 0 .117-.343.3.3 0 0 0-.057-.114zM16.54 5.078a.4.4 0 0 0 .56.038c.082.116.12.285.314.217a.225.225 0 0 0 .165-.247c0-.203-.184-.203-.337-.214a.3.3 0 0 0-.03-.161l-.687.352a.1.1 0 0 0 .015.015M23.4 5.344c-.098-.158-.245-.176-.44 0a5 5 0 0 0-.195.491.22.22 0 0 0 .147.278.23.23 0 0 0 .296-.135q.045-.103.12-.184a.374.374 0 0 0 .071-.45M16.454 7.057a.31.31 0 0 0-.555-.023 1.8 1.8 0 0 0-.206.477.49.49 0 0 0 .266.513c.105.045.375.053.394-.176-.131-.375.146-.375.139-.652a.4.4 0 0 0-.038-.14M17.594 7.98a.177.177 0 0 0 .03-.247l-.03-.03a.24.24 0 0 0-.22.026c-.05.041-.12.203-.072.263.049.06.232.033.292-.012M18.453 7.493c-.12-.124-.292-.101-.454.06a.263.263 0 0 0-.052.375.52.52 0 0 0 .54.049.317.317 0 0 0 0-.45zM14.943 8.378a.07.07 0 0 0 0 .098c0 .019.075 0 .09 0a.06.06 0 0 0 .015-.073.068.068 0 0 0-.109-.021zM35.223 9.563a.42.42 0 0 0-.131-.551.454.454 0 0 0-.634.108v.023a.375.375 0 0 0 .075.517.566.566 0 0 0 .69-.097M35.054 11.284a.255.255 0 0 0 .274-.184.214.214 0 0 0-.157-.262.25.25 0 0 0-.27.183c-.042.12.04.263.153.263M35.733 8.985a.26.26 0 0 0-.187-.266.31.31 0 0 0-.304.195.23.23 0 0 0 .191.259.266.266 0 0 0 .3-.188M35.433 10.9a.22.22 0 0 0 .18-.135c0-.07-.143-.15-.191-.146a.18.18 0 0 0-.12.143.18.18 0 0 0 .13.138M34.14 6.648a.252.252 0 0 0-.08.413.35.35 0 0 0 .29.063.255.255 0 0 0-.162-.483zM34.147 10.338c.183 0 .153-.168.21-.236a.4.4 0 0 0-.03-.562.35.35 0 0 0-.41.075.274.274 0 0 0-.048.375c.03.097.098.352.278.348M33.723 8.471c.071 0 .086-.25.053-.4q.021.03.048.06s.117-.035.117-.06c0-.027 0-.15-.06-.18s-.135.074-.135.097l-.023-.03c-.086-.068-.281.078-.311.266-.03.187.217.266.311.247"/><path fill="#fff" d="M40.113 11.52a.18.18 0 0 0 .079-.138c0-.034-.117-.128-.154-.113-.038.015-.053.146-.041.195a.1.1 0 0 0 .116.056M35.107 6.713a.244.244 0 0 0-.342.038.26.26 0 0 0 .05.348.28.28 0 0 0 .374-.052.25.25 0 0 0-.075-.338zM38.253 8.96a.256.256 0 1 0 .052-.51.28.28 0 0 0-.266.235.25.25 0 0 0 .214.274M40.08 13.32a.228.228 0 1 0-.18-.42.19.19 0 0 0-.154.159.2.2 0 0 0 .003.077.2.2 0 0 0 0 .045.233.233 0 0 0 .3.143zM38.024 7.778a.14.14 0 0 0-.16.034c-.03.03-.06.165 0 .199.06.033.168-.03.19-.068a.19.19 0 0 0-.03-.165M37.84 10.174a.7.7 0 0 0-.15-.72.47.47 0 0 0-.622.172.525.525 0 0 0 .135.638.473.473 0 0 0 .638-.09M35.91 7.968a.233.233 0 0 0 0-.326.3.3 0 0 0-.222-.075c-.143 0-.184.127-.173.397.128.06.26.162.394.004M37.799 12.443c.041 0 .184 0 .184-.079a.14.14 0 0 0-.12-.124c-.034 0-.158 0-.161.06a.17.17 0 0 0 .097.143M31.443 7.023a.177.177 0 0 0-.248.038l-.022.04a.32.32 0 0 0 0 .248.3.3 0 0 0 .334 0 .23.23 0 0 0-.053-.318zM30.948 4.274a.32.32 0 0 0-.424.038.394.394 0 0 0 .045.484.43.43 0 0 0 .555-.098c.057-.109-.026-.311-.176-.424M31.188 8.066a.5.5 0 0 0 .206 0c.105-.15.098-.296 0-.323a.38.38 0 0 0-.285.038c-.082.045-.03.244.079.285M40.38 10.853c.022-.15-.177-.206-.26-.251-.082-.045-.202.041-.224.169-.023.127.033.228.16.217.128-.011.3.015.323-.135M31.02 9.659c.09-.206-.2-.375-.297-.326-.098.048-.169.322-.067.4.1.08.273.136.363-.074M29.527 7.41c.082-.112 0-.374-.158-.48a.304.304 0 0 0-.424.042.4.4 0 0 0 .06.529.43.43 0 0 0 .522-.09M29.456 10.565a.16.16 0 0 0 .157-.034.13.13 0 0 0-.03-.188c-.094-.052-.15.045-.172.083a.15.15 0 0 0 .045.139M31.39 6.09c.053-.045 0-.15-.04-.187a.12.12 0 0 0-.14 0c-.033.03 0 .12 0 .165s.128.082.18.022M31.878 6.097a.315.315 0 0 0 .439-.075.2.2 0 0 0 .03-.049c.101-.176.082-.356-.053-.43a.5.5 0 0 0-.585.138.375.375 0 0 0 .169.416M33.198 3.293a.24.24 0 0 0 .203.064.25.25 0 0 0 .116-.038c-.375-.112-.75-.21-1.148-.303a.375.375 0 0 0 .113.51.59.59 0 0 0 .431.09.1.1 0 0 0 .053.03c.04 0 .172 0 .183-.075a.1.1 0 0 0-.037-.075h.037a.45.45 0 0 0 .049-.203M34.023 5.648a.2.2 0 0 0 .034-.064.4.4 0 0 0 .082.132.6.6 0 0 0-.041.172.334.334 0 0 0 .259.375h.063a.375.375 0 0 0 .375-.3.2.2 0 0 1 .05.03.323.323 0 0 0 .445.075.3.3 0 0 0 .11-.139q.024.042.067.068a.29.29 0 0 0 .33-.143.296.296 0 0 0-.06-.408.244.244 0 0 0-.327.09.45.45 0 0 0-.202-.14.48.48 0 0 1-.278-.198.506.506 0 0 0-.69-.122.45.45 0 0 0-.157.2v.046a.4.4 0 0 0-.173-.255c-.13-.083-.303 0-.423.176a.35.35 0 0 0 .037.48.45.45 0 0 0 .499-.075M35.22 7.842c.108 0 .21-.05.198-.162s-.068-.311-.158-.318-.198.187-.232.27c-.034.082.079.206.191.21M31.65 4.745c0-.05-.068-.105-.113-.124a.112.112 0 0 0-.15.079c0 .078.101.112.146.123a.12.12 0 0 0 .116-.078M32.14 4.68a.53.53 0 0 0 .687-.03.555.555 0 0 0-.143-.675.514.514 0 0 0-.63.165.405.405 0 0 0 .087.54M31.86 3.367a.4.4 0 0 0 .048-.127c.18.06.277-.049.375-.195l-.026-.056a20 20 0 0 0-1.092-.225.3.3 0 0 0-.09.086.41.41 0 0 0 .094.57l.06.037a.416.416 0 0 0 .63-.09M28.57 7.732a.146.146 0 0 0-.202-.045.13.13 0 0 0-.045.045c-.049.064-.124.255-.075.304s.24 0 .319-.03c.078-.03.082-.169.003-.274M40.21 9.427c.042 0 .15-.093.113-.157a.18.18 0 0 0-.188-.056.16.16 0 0 0-.06.146.15.15 0 0 0 .135.067M27.232 6.638a.28.28 0 0 0-.225.052c-.079.072 0 .267.094.293a.4.4 0 0 0 .187-.026c.083-.15.049-.297-.056-.32M42.067 14.51a.18.18 0 0 0 .078-.14.13.13 0 0 0-.153-.112c-.098.023-.053.146-.045.195a.16.16 0 0 0 .12.056M40.65 14.085a.28.28 0 0 0 .205-.116c.087-.173 0-.285-.19-.375-.132.082-.286.131-.252.315a.214.214 0 0 0 .236.176M40.706 8.516a.43.43 0 0 0-.068-.233.22.22 0 0 0 .233-.287.25.25 0 0 0-.214-.185.2.2 0 0 0-.086 0c-.17.026-.23-.075-.334-.173q.05-.06.094-.127a.15.15 0 0 0 .078-.023.3.3 0 0 0 .023.075.27.27 0 0 0 .296.124c.116-.045.116-.248.094-.353a.44.44 0 0 0-.311-.22c0-.065.022-.06.108-.147l.03-.068c-.16-.12-.326-.236-.49-.352a.7.7 0 0 0-.233.229.3.3 0 0 0-.034.142c-.124 0-.195.083-.225.248a.376.376 0 0 0 .195.483h.037a1 1 0 0 1-.258.08.237.237 0 0 0-.255.198.345.345 0 0 0 .097.375c.409.307.559.3.919-.053l.034-.022a.6.6 0 0 0-.105.169.157.157 0 0 0 .07.21h.046a.19.19 0 0 0 .251-.102zM40.477 10.902a.075.075 0 0 0 .041-.094.08.08 0 0 0-.098-.026c-.022 0-.03.071 0 .086s.023.049.057.034M41.152 11.104a.4.4 0 0 0 .16-.394.25.25 0 0 0-.337-.1.237.237 0 0 0-.108.314v.019c.078.15.187.214.285.161M18.494 5.583a.333.333 0 0 0 .056-.438.277.277 0 0 0-.375-.042.375.375 0 0 0 0 .48.22.22 0 0 0 .3 0zM14.204 6.525l-.097.072a.2.2 0 0 0 .097-.072M18.67 6.76a.244.244 0 0 0-.344.046.207.207 0 0 0 0 .292h.022a.26.26 0 0 0 .353 0 .256.256 0 0 0-.03-.337M14.774 10.171a.225.225 0 0 0 .064-.308l-.019-.022a.2.2 0 0 0-.191-.038.25.25 0 0 0-.139.18c-.007.162.188.214.285.188M14.478 7.838a.35.35 0 0 0-.079-.465.327.327 0 0 0-.491 0 .326.326 0 0 0-.053.454.48.48 0 0 0 .623.011M43.89 11.56a.4.4 0 0 0-.106-.322.23.23 0 0 0 .109-.225c0-.169-.161-.202-.315-.247-.101.116-.24.225-.128.375q.013.024.034.04a.56.56 0 0 0-.247.376.243.243 0 0 0 .232.255.337.337 0 0 0 .42-.251M44.05 13.628a.27.27 0 0 0 .173-.154c.038-.169-.105-.21-.229-.251-.13.082-.206.183-.127.322a.22.22 0 0 0 .184.083M43.777 12.829a.12.12 0 0 0 .025-.127.1.1 0 0 0-.025-.038h-.026a.28.28 0 0 0-.21.041c-.064.03-.135.049-.17.116-.033.068.05.162.158.158a.37.37 0 0 0 .248-.15M42.764 11.594c-.063.056-.135.117-.127.195.007.079.225.177.334.117.108-.06.082-.14.048-.218a.165.165 0 0 0-.202-.12zM43.274 14.373c.229-.079.311-.341.203-.626a.396.396 0 0 0-.507-.255h-.04a.51.51 0 0 0-.267.622.54.54 0 0 0 .611.259M42.843 12.845a.2.2 0 0 0 .154-.23.2.2 0 0 0 0-.044.217.217 0 0 0-.267-.128c-.097.023-.187.274-.116.345a.27.27 0 0 0 .229.056"/><path fill="#fff" d="M28.274 8.504a.23.23 0 0 0 .221-.165.34.34 0 0 0 .038-.21c-.116 0-.3-.139-.375-.037-.075.1.037.273.052.375zM19.293 4.036a.28.28 0 0 0 0-.218c-.375.14-.75.29-1.095.447.08.095.185.165.304.202a.84.84 0 0 0 .791-.431M42.753 13.066a.375.375 0 0 0 .304.4c.18.038.296-.063.341-.295.03-.158-.075-.375-.195-.402a.43.43 0 0 0-.45.297M25.439 10.23a.235.235 0 0 0 .03-.334.25.25 0 0 0-.323-.023.245.245 0 0 0 0 .346.19.19 0 0 0 .267.052.2.2 0 0 0 .026-.041M24.877 5.37a.454.454 0 0 0-.897-.086c-.04.172.184.375.428.42a.44.44 0 0 0 .469-.334M26.4 7.024a.33.33 0 0 0-.072-.203.266.266 0 0 0-.446.289.3.3 0 0 0 .09.086c.082.079.277.011.427-.172M24.277 6.63a.13.13 0 0 0 0-.168c-.057-.041-.143.045-.173.083a.12.12 0 0 0 .026.135c.02.026.11-.015.147-.05M24.063 7.1c-.049-.038-.131 0-.161.033-.03.034-.056.165 0 .2.056.033.169-.03.187-.068.02-.038.027-.132-.026-.165M19.44 8.775c.127-.13.157-.348.06-.438a.484.484 0 0 0-.6 0 .303.303 0 0 0 .033.438.33.33 0 0 0 .465.027.2.2 0 0 0 .041-.027M24.295 6.08a.26.26 0 0 0-.206-.105c-.169.026-.154.172-.15.303.124.09.248.124.349 0a.2.2 0 0 0 .007-.198M26.347 9a.213.213 0 0 0 .3-.037c.082-.131.067-.375-.026-.416a.4.4 0 0 0-.375.139.23.23 0 0 0 .067.315zM27.9 5.93a.64.64 0 0 0 .265-.125c.083-.067.075-.168-.026-.243a.22.22 0 0 0-.195-.057.27.27 0 0 0-.101-.112.3.3 0 0 0-.375.064c-.139.202-.135.438 0 .525a.44.44 0 0 0 .431-.053M27.565 5.138a.243.243 0 0 0 .027-.348l-.027-.027a.26.26 0 0 0-.352 0 .285.285 0 0 0 .07.432.23.23 0 0 0 .282-.057M28.184 6.9a.153.153 0 0 0 .214-.042.1.1 0 0 0 .023-.048c.03-.075.093-.274 0-.32-.094-.044-.274.068-.323.136a.206.206 0 0 0 .086.274M26.8 6.173c-.09-.075-.18 0-.236.09s-.03.244.072.267c.1.022.25.078.303-.053s-.075-.251-.139-.304M26.853 10.238c.049-.026.124-.203.079-.251-.045-.05-.218-.023-.244 0-.026.022-.086.172-.053.217a.21.21 0 0 0 .218.034M27.003 4.151a.56.56 0 0 0-.679.124c-.146.191-.06.476.203.668a.4.4 0 0 0 .562-.08.536.536 0 0 0-.086-.712M24.04 7.736a.28.28 0 0 0-.034-.248.19.19 0 0 0-.262-.064l-.041.034a.214.214 0 0 0-.023.293c.056.086.323.075.36-.015M21.43 6.15a.274.274 0 0 0 0 .352c.147.128.293.053.435 0 .03-.288 0-.397-.157-.442a.244.244 0 0 0-.278.09M22.353 5.8c.18-.194.202-.344.067-.48a.405.405 0 0 0-.476.027.45.45 0 0 0 .064.484.236.236 0 0 0 .33 0zM21.584 7.49c.158-.106.278-.207.203-.376a.24.24 0 0 0-.195-.112.38.38 0 0 0-.236.176c-.068.173.1.221.228.311M21.445 4.65a.42.42 0 0 1 .375.278.375.375 0 0 0 .454.097.45.45 0 0 0 .146-.304.221.221 0 0 0-.086-.353h-.06a.146.146 0 0 0-.169-.067.58.58 0 0 1-.48-.108.195.195 0 0 0-.277.041.3.3 0 0 0-.026.045c-.06.127-.015.337.123.371M20.34 8.805a.274.274 0 0 0-.353 0 .285.285 0 0 0 0 .375.23.23 0 0 0 .319 0 .247.247 0 0 0 .06-.345zM23.774 10.65a.16.16 0 0 0 0-.132.2.2 0 0 0-.157-.022c-.034.018-.075.153-.049.184.026.03.15-.012.206-.03M20.306 10.114a.15.15 0 0 0 .066-.15.15.15 0 0 0-.066-.097c-.087-.072-.18-.124-.285-.034a.29.29 0 0 0 .03.356.28.28 0 0 0 .255-.075M19.972 11.658a.27.27 0 0 0 0-.322c-.083-.09-.27 0-.375.04a.33.33 0 0 0-.072.398c.083.102.376-.041.447-.116M23.088 7.71c-.09-.075-.158-.026-.221.034a.16.16 0 0 0-.07.166.16.16 0 0 0 .07.104c.071.041.157.086.225.049a.29.29 0 0 0-.004-.353M23.726 4.361a.24.24 0 0 0 .19 0c.128-.063.188.267.376.188.187-.079.345.101.558-.019s.338-.375.173-.51a.84.84 0 0 0-.547-.165.23.23 0 0 0-.12.03.38.38 0 0 0-.05-.435c-.123-.082-.33 0-.45.176a.285.285 0 0 0-.333.057.43.43 0 0 0-.034.506.47.47 0 0 0-.397.142.47.47 0 0 0 .052.62.4.4 0 0 0 .537 0 .65.65 0 0 0 .044-.59M22.777 3.874l.262-.251a2 2 0 0 0-.116-.202.27.27 0 0 0-.24-.098.34.34 0 0 0-.098-.24l-.033-.034a.17.17 0 0 0-.042-.176l-.67.154q.008.015.025.022c.203.06.18.237.214.375a.248.248 0 0 0 .375.192l.049-.023q.011.061.052.109.099.1.222.172M23.774 7.024c.094 0 .132-.101.087-.202a.37.37 0 0 0-.222-.199.12.12 0 0 0-.146.086.1.1 0 0 0 0 .023c0 .075.056.123.116.18s.098.108.165.112M23.058 10.486a.1.1 0 0 0 .012-.023q.005-.013.003-.027a.07.07 0 0 0-.048-.058q-.012-.005-.026-.003a.07.07 0 0 0-.046.025.075.075 0 0 0 0 .101s.09.004.105-.015M22.953 10.009c.116-.116.135-.244.053-.311a.42.42 0 0 0-.428 0 .25.25 0 0 0 .03.348.236.236 0 0 0 .33 0z"/><path fill="#0066B1" d="M36.708 12.7c.06.03.24.064.27 0 .03-.063-.038-.206-.079-.266s-.161-.045-.236.045a.127.127 0 0 0-.013.186q.024.026.058.036M30.524 14.52c.173.12.304.112.375 0a.375.375 0 0 0-.052-.461.4.4 0 0 0-.465.09.31.31 0 0 0 .142.37M34.788 10.51s.041-.112 0-.145c-.041-.034-.124.033-.15.067a.105.105 0 0 0 0 .12c.045.023.116-.011.15-.041M34.098 13.276c0-.02 0-.068-.022-.075-.023-.008-.06 0-.075 0a.064.064 0 0 0 0 .09c.048.04.086.01.097-.015M39.108 13.72a.2.2 0 0 0 0-.19c-.034-.038-.195-.072-.229-.023s0 .187.053.206c.052.019.142.041.176.007M31.214 13.65v-.105l-.255.052c0 .075 0 .165.027.195.026.03.195-.093.228-.142M32.35 14.148a.41.41 0 0 0-.09-.532.406.406 0 0 0-.536.06.41.41 0 0 0 0 .54.52.52 0 0 0 .626-.068M34.92 13.429c.07.026.262.064.31 0 .05-.064-.09-.221-.146-.27s-.157-.038-.206.064c-.049.1-.053.168.041.206M32.864 12.082a8 8 0 0 0-.21.536.38.38 0 0 0 .281-.165.27.27 0 0 0-.07-.371M35.13 12.15c0-.033.03-.112 0-.146s-.113 0-.14.027c-.026.026-.056.142 0 .172.057.03.12-.052.14-.052M34.676 14.062a.2.2 0 0 0-.057-.273.217.217 0 0 0-.322.045.24.24 0 0 0 .056.303.25.25 0 0 0 .323-.075M32.92 13.594a.35.35 0 0 0 .44-.041.24.24 0 0 0-.038-.33.304.304 0 0 0-.405.067.21.21 0 0 0-.047.236q.019.04.05.068"/><g clip-path="url(#a)"><path fill="#fff" d="M46.402 19.477c.06-.097-.026-.176-.124-.217-.097-.041-.247 0-.251.109-.004.108-.041.258.093.292.136.034.237-.101.282-.184M46 19.973a.28.28 0 0 0-.082-.213c-.083-.068-.263.022-.274.135 0 .063.019.126.053.18.157.06.296.003.303-.102M46.773 18.731a.32.32 0 0 0 .416-.131.5.5 0 0 0-.228-.581.32.32 0 0 0-.345.123.5.5 0 0 0-.402-.07.47.47 0 0 0-.24.573.457.457 0 0 0 .555.274.54.54 0 0 0 .244-.188M43.015 8.948a.05.05 0 0 0 .038-.027c-.116-.116-.24-.225-.356-.337a.22.22 0 0 0-.02.21.24.24 0 0 0 .3.169zM45.25 18.81c-.052.108.05.292.248.375a.28.28 0 0 0 .187-.098.266.266 0 0 0-.375-.375.4.4 0 0 0-.045.068zM46.214 17.745a.263.263 0 0 0 .306-.238.2.2 0 0 0-.017-.077c-.083-.09-.18-.165-.278-.255 0-.303-.1-.517-.28-.525a.45.45 0 0 0-.338.2.13.13 0 0 0-.09.048.09.09 0 0 0 0 .086.4.4 0 0 0-.023.086c0 .21.086.274.506.315.02.165-.003.334.214.36M45.528 15.464q-.298.129-.202.341a.305.305 0 0 0 .375.218h.033a.54.54 0 0 0 .15-.465c-.045-.124-.176-.173-.356-.094M44.448 12.657q.06.015.12 0 .068.082.124.172a.375.375 0 0 0 .412.229c.184-.03.255-.161.147-.413-.083-.078-.207-.213-.35-.33v-.026a.307.307 0 0 0-.273-.334c-.191-.04-.458.083-.487.225a.427.427 0 0 0 .307.477M47.11 14.625a.29.29 0 0 0 .188.326c.03.011.064.011.094 0a6 6 0 0 0-.199-.375.09.09 0 0 0-.082.049M48.378 17.25c-.109-.3-.225-.592-.345-.885l-.139.079a.345.345 0 0 0-.112.473.3.3 0 0 0 .086.09q.24.153.51.243M47.04 16.016q.067.091.168.142.093.067.195.116c.221.117.375.098.495-.06a1 1 0 0 0 .041-.086c-.082-.195-.172-.375-.262-.577a3 3 0 0 1-.375-.375c-.124-.154-.375-.248-.48-.154a.29.29 0 0 0 0 .349c.146.105.075.217.09.337.017.111.06.217.127.308M44.613 11.22c.255.136.375.14.469 0a11 11 0 0 0-.326-.415c-.162.105-.147.266-.143.416M44.073 10.934a.25.25 0 0 0 .18-.139.43.43 0 0 0-.079-.285c-.142-.13-.251 0-.375.094.03.169.083.33.274.33M20.19 7.702a.32.32 0 0 0 .033-.375c-.184-.191-.416-.247-.536-.127a.46.46 0 0 0 .026.528.42.42 0 0 0 .476-.026M28.398 2.643c-.12.21-.079.352.139.484a.35.35 0 0 0 .465-.042.53.53 0 0 0-.177-.622h-.19a.42.42 0 0 0-.237.18M46.432 20.947c.093-.053.154-.146.086-.24s-.218-.229-.3-.188c-.083.042-.071.207-.064.312a.184.184 0 0 0-.247.097.04.04 0 0 0 0 .03.155.155 0 0 0 .022.173q.02.024.049.037a.1.1 0 0 0 .049 0c.078 0 .285.049.315-.056a.25.25 0 0 0-.038-.154.2.2 0 0 0 .128-.011M26.227 4.953c-.041.037-.075.229-.023.274.053.045.252 0 .267-.049.014-.049.044-.229 0-.259a.26.26 0 0 0-.244.034M27.427 2.622a.6.6 0 0 0-.045-.101.3.3 0 0 0 .07-.113h-.397v.038a.1.1 0 0 0-.03.026q-.083.17-.135.352c-.288.098-.446.278-.375.454a.49.49 0 0 0 .537.255c.202-.064.228-.18.112-.585.154-.075.319-.116.263-.326M29.932 3.56c.12-.03.258-.023.33-.132.07-.109.285-.416.157-.623-.128-.206-.274-.045-.409-.063a.32.32 0 0 0-.311.138.44.44 0 0 0-.24.124.4.4 0 0 0 0 .488.14.14 0 0 1-.124-.042c-.101-.093-.322-.093-.498.132-.177.225-.06.573.15.585.21.01.266-.102.318-.05.053.053.102.226.24.222.139-.004.289-.397.289-.465 0-.067-.079-.187-.023-.262a.5.5 0 0 0 .12-.053M33.982 3.525a.331.331 0 0 0-.528.242.33.33 0 0 0 .216.332.206.206 0 0 0 .29-.064c.16-.225.164-.427.022-.51M30.55 3.525c-.06.09 0 .214.038.297.037.082.203.052.266-.034a.175.175 0 0 0 .015-.21.2.2 0 0 0-.052-.053c-.09-.04-.203-.09-.267 0M26.493 6.06a.345.345 0 0 0 .416 0 .57.57 0 0 0 .038-.57.424.424 0 0 0-.525.101c-.135.124-.11.296.07.469M19.77 5.797a.56.56 0 0 0-.593 0 .375.375 0 0 0 0 .506.41.41 0 0 0 .529.03.41.41 0 0 0 .063-.536M34.158 4.317a.26.26 0 0 0 .375-.083.27.27 0 0 0-.083-.375.29.29 0 0 0-.375.109.255.255 0 0 0 .083.349M47.19 16.897a.375.375 0 0 0 .19-.432.32.32 0 0 0-.337-.19c-.236.082-.375.265-.323.42a.41.41 0 0 0 .47.202M26.043 4a.32.32 0 0 0-.06-.45l-.034-.026a.398.398 0 0 0-.592.12.416.416 0 0 0 .075.56.35.35 0 0 0 .326.022.18.18 0 0 0 .188-.064.44.44 0 0 0 .097-.161M25.514 4.511a.256.256 0 0 0-.217.248.19.19 0 0 0 .135.221c.184.06.277-.049.375-.191-.071-.139-.109-.308-.293-.278M24.648 2.55a.5.5 0 0 0-.06.188.3.3 0 0 0-.064-.112l-.06-.053-.375.053a.7.7 0 0 1 .12.255.25.25 0 0 0 .218.086.27.27 0 0 0 .16-.131.25.25 0 0 0 .098.232.3.3 0 0 0 .323-.135c.045-.176.172-.15.281-.206a.4.4 0 0 0 .105-.086.41.41 0 0 0 .424 0 .24.24 0 0 0 .045-.176c.142.116.307.146.405.056a.25.25 0 0 0 .071-.109c-.57.034-1.136.075-1.691.139M20.186 4.369a.374.374 0 0 0-.6.022.376.376 0 0 0-.113.521.4.4 0 0 0 .068.075.434.434 0 0 0 .618.023l.045-.049a.45.45 0 0 0-.018-.592M47.005 19.275c-.045.023-.063.15-.045.218a.117.117 0 0 0 .132.105.1.1 0 0 0 .067-.03c.06-.053.21-.191.169-.274-.041-.082-.255-.06-.323-.019M38.234 7.099a.153.153 0 0 0 .221 0 .2.2 0 0 0 .038-.06.8.8 0 0 0 0-.233.244.244 0 0 0-.334.075c-.086.113 0 .17.075.218M38.024 5.632a.28.28 0 0 0 .214-.09.2.2 0 0 0 0-.195c-.086-.132-.214-.12-.352-.034.003.127-.027.274.138.319M37.218 9.436a.24.24 0 0 0 .236-.229.375.375 0 0 0-.307-.33.35.35 0 0 0-.214.394.24.24 0 0 0 .285.165M28.574 3.33a.245.245 0 0 0-.337-.072.41.41 0 0 0-.053.51.28.28 0 0 0 .375.03.375.375 0 0 0 .015-.468M36.408 6.15a.47.47 0 0 0 .555-.286.61.61 0 0 0-.375-.607.48.48 0 0 0-.499.375.457.457 0 0 0 .32.517M36.24 4.47a.307.307 0 0 0 .025.434.3.3 0 0 0 .09.053.38.38 0 0 0 .402.026.25.25 0 0 0 .315 0 .22.22 0 0 0 .078-.131 1.4 1.4 0 0 0-.045-.169l-.73-.337a.4.4 0 0 0-.136.123M38.875 7.65a.32.32 0 0 0 .375-.243.1.1 0 0 1 0-.026.21.21 0 0 0-.168-.24.266.266 0 0 0-.353.216.29.29 0 0 0 .143.294zM37.424 5.097a.226.226 0 0 0 .315-.049v-.026a17 17 0 0 0-.446-.229.25.25 0 0 0 .131.304M41.823 8.186a.28.28 0 0 0 0 .255.14.14 0 0 0 .108.121.14.14 0 0 0 .057.003.2.2 0 0 0 .06-.023c.097-.056.18-.124.139-.255-.042-.131-.3-.161-.364-.101M41.91 9.836a.38.38 0 0 0 .337-.202.34.34 0 0 0-.233-.311.247.247 0 0 0-.296.187.1.1 0 0 0 0 .03.266.266 0 0 0 .191.296"/><path fill="#fff" d="M42.382 8.441a.3.3 0 0 0 .146 0l-.401-.375a.44.44 0 0 0 .255.375M28.406 4.65a.075.075 0 0 0 0-.087.08.08 0 0 0-.105 0 .075.075 0 0 0 0 .101.1.1 0 0 0 .105-.015M39.82 6.263a21 21 0 0 0-.993-.634l.056.075a.58.58 0 0 0 0 .656.614.614 0 0 0 .874-.03l.045-.052zM39.42 9.435a.35.35 0 0 0 .374-.326c.023-.172-.097-.285-.33-.319-.232-.033-.337.057-.348.2a.62.62 0 0 0 .303.445M37.676 6.27a.8.8 0 0 0 0-.229.24.24 0 0 0-.334.072c-.053.105 0 .16.082.21a.16.16 0 0 0 .183.019.16.16 0 0 0 .069-.072M27.948 4.627a.255.255 0 0 0 .345-.075.24.24 0 0 0-.086-.31.217.217 0 0 0-.304.025v.02a.236.236 0 0 0 .041.333zM47.643 21.526a.375.375 0 0 0 .454-.045c.135-.225-.049-.431-.15-.533-.101-.1-.375.064-.439.282a.24.24 0 0 0 .135.296M46.893 20.624a.4.4 0 0 0 .431-.21.32.32 0 0 0-.112-.345c-.221-.105-.454-.067-.518.083a.44.44 0 0 0 .2.472M47.65 17.652a.28.28 0 0 0 .14-.192.21.21 0 0 0-.09-.172c-.143-.068-.245 0-.32.154.068.112.11.243.27.21M47.298 21.987a.27.27 0 0 0 .161-.315.27.27 0 0 0-.3-.136.3.3 0 0 0-.161.323.244.244 0 0 0 .3.127M48.43 19.39a.566.566 0 0 0-.22-.652l-.065-.026a.24.24 0 0 0-.315-.09.43.43 0 0 0-.243.375v.019a.413.413 0 0 0 .168.555.544.544 0 0 0 .675-.18M23.823 2.686l-.334.056a.48.48 0 0 0 .334-.056M28.323 2.517a1 1 0 0 0 .06-.082c-.244 0-.491 0-.75-.023a.3.3 0 0 0 .052.09.473.473 0 0 0 .638.015M23.542 3.188a.28.28 0 0 0-.053-.349c-.101-.064-.341-.034-.375.049a.34.34 0 0 0 .105.405.247.247 0 0 0 .323-.105M39.408 14.31a.22.22 0 0 0-.101.2c0 .052.146.183.21.16.063-.022.093-.194.075-.232s-.131-.154-.184-.128M33.056 7.525q.095-.152.165-.318a.5.5 0 0 0-.23-.525.2.2 0 0 0-.27.026 1.4 1.4 0 0 0-.34.75q0 .066.022.127a.31.31 0 0 0 .375.207.3.3 0 0 0 .075-.034.17.17 0 0 0 .12-.064.23.23 0 0 0 .083-.169M32.823 9.24c.112-.097 0-.416-.101-.427s-.304.27-.214.375a.244.244 0 0 0 .315.052M32.928 10.608a.24.24 0 0 0-.034-.217.153.153 0 0 0-.217 0 .1.1 0 0 0-.03.037c-.034.06-.09.233.037.308.128.075.218-.087.244-.128M32.696 8.107c-.02-.067-.154-.06-.184-.041a.16.16 0 0 0-.075.153c0 .057.112.068.161.057a.16.16 0 0 0 .098-.169M36.198 13.11c0 .026.049.109.071.109.023 0 .124-.038.14-.08a.14.14 0 0 0-.076-.175c-.135-.03-.135.097-.135.146M36.813 12.436a.13.13 0 0 0 .101.146q.026.008.052.005a.13.13 0 0 0 .113-.095.2.2 0 0 0 0-.041.14.14 0 0 0-.123-.154.16.16 0 0 0-.143.139M37.226 10.65c.026-.176-.045-.285-.2-.307-.217-.034-.464.109-.483.277-.019.17.161.323.338.342a.34.34 0 0 0 .345-.312M34.698 3.967c0 .027 0 .068.049.072a.064.064 0 0 0 .079-.05.08.08 0 0 0-.068-.074c-.004-.015-.06.034-.06.052M25.743 7.578a.14.14 0 0 0-.045.188c.056.082.154 0 .195-.034a.15.15 0 0 0 0-.128.21.21 0 0 0-.15-.026M26.167 5.722a.34.34 0 0 0-.06-.457.51.51 0 0 0-.611.146.375.375 0 0 0 .67.311M25.323 6.525a.45.45 0 0 0-.634 0l-.022.026a.405.405 0 0 0-.023.6.51.51 0 0 0 .675.019.54.54 0 0 0 .004-.645M30.805 6.376c-.165-.319-.457-.09-.487-.326s.198-.158.138-.488-.375-.468-.555-.307-.104.375-.153.375-.297.075-.263.259c-.045-.023-.097-.034-.123 0a.28.28 0 0 0 .022.198.15.15 0 0 0 .169.019v-.045c.127.146.337.071.375.154q.037.263.105.521a.396.396 0 0 0 .558.248.435.435 0 0 0 .24-.567zM30.277 8.91c-.03.045-.064.147 0 .2a.146.146 0 0 0 .195-.038c.034-.038.101-.17 0-.244-.101-.075-.169.037-.195.082M29.073 5.236a.375.375 0 0 0 0-.454c-.203-.165-.431 0-.544.071-.112.071 0 .375.214.473a.233.233 0 0 0 .322-.08zM28.743 7.936v.094a.08.08 0 0 0 .071 0c0-.034.03-.08 0-.102s-.037.008-.071.008M36.633 7.069s.018-.038.03-.056c.09 0 .236-.06.244-.143.007-.083-.195-.173-.27-.18a.06.06 0 0 0-.038 0 .53.53 0 0 0-.506.037.33.33 0 0 0 .075.465l.045.027c.112.09.292.03.42-.15M46.379 32.774c.03-.06-.064-.135-.105-.161a.14.14 0 0 0-.135.045c.006.057.031.11.071.15a.11.11 0 0 0 .169-.034M38.677 12.844c0 .098 0 .218.135.214a.2.2 0 0 0 .213-.139c0-.06-.067-.169-.093-.229-.184-.026-.24.06-.255.154M46.773 25.616c.037-.105.03-.206-.068-.259a1.43 1.43 0 0 0-.783-.236.4.4 0 0 0-.124.045.312.312 0 0 0 0 .566q.23.128.487.188a.49.49 0 0 0 .488-.304M46.417 30.81a.15.15 0 0 0-.057-.153c-.037-.026-.176-.034-.202.019-.026.052.056.161.093.176a.14.14 0 0 0 .166-.041M48.483 27.379a.53.53 0 0 0 .143-.477.45.45 0 0 0-.342-.348h-.045a.42.42 0 0 0 .229-.207c.06-.142-.034-.303-.236-.397a.375.375 0 0 0-.431.094.45.45 0 0 0 .153.52.2.2 0 0 0 .068.023.5.5 0 0 0-.154.143.75.75 0 0 0-.116.525.35.35 0 0 1-.045.195.32.32 0 0 0 .139.514.14.14 0 0 0-.057.075c-.037.105.053.247.188.307a.293.293 0 0 0 .375-.116.25.25 0 0 0-.131-.326.5.5 0 0 0 .108-.218.45.45 0 0 1 .154-.307M46.29 28.475c-.042-.139-.15-.165-.42-.116-.03.138-.117.284.056.374a.225.225 0 0 0 .315-.04.3.3 0 0 0 .048-.218M42.27 11.223a.375.375 0 0 0 .434-.3 1 1 0 0 0 0-.075.8.8 0 0 0 0-.228.5.5 0 0 0 .315-.023.285.285 0 0 0 .139-.285.53.53 0 0 0 .499-.375.446.446 0 0 0-.326-.525.71.71 0 0 0-.604.424.28.28 0 0 0 .034.206h-.023a.48.48 0 0 0-.221.315.7.7 0 0 0-.207-.064.48.48 0 0 0-.52.428c-.02.214.224.461.48.502M39.85 11.847c.375.07.375.045.375-.27-.157-.113-.285-.068-.397.082-.42-.184-.619 0-.574.476a.5.5 0 0 1-.079.053c-.123.049-.138.15-.123.266s.082.161.187.199c.251.082.375.026.428-.233.067-.19.127-.386.183-.573M39.25 10.1a.374.374 0 0 0-.303-.435.45.45 0 1 0-.154.885c.232.01.405-.158.457-.45M41.883 13.039c-.034-.083-.187-.105-.315-.049a.14.14 0 0 0-.097.176.1.1 0 0 0 0 .034c.052.101.127.176.258.131a.26.26 0 0 0 .154-.292M41.602 20.08c-.03 0-.113.083-.09.147.022.064.146.045.19.03a.13.13 0 0 0 .057-.128c-.019-.04-.109-.052-.157-.048M41.692 11.989a.43.43 0 0 0-.488.375.2.2 0 0 0 0 .045.43.43 0 0 0 .375.431c.21.027.416-.191.446-.465a.33.33 0 0 0-.288-.375zM24.625 8.37c-.063.06-.03.214.072.311a.13.13 0 0 0 .187.034.1.1 0 0 0 .034-.034c.075-.086.12-.183.03-.288a.26.26 0 0 0-.323-.023M47.017 22.882c.228-.06.187.172.502.063s.413-.442.225-.588c-.187-.147-.375-.057-.401-.102s-.116-.285-.293-.22c-.375.134-.165.438-.266.51-.101.07-.345.082-.499.18-.213.134-.333.374-.165.588q.053.075.132.12.034.043.086.064c.112.06.3.243.454.146.153-.098.045-.225.056-.308.15-.195-.03-.4.169-.453M15.82 6.33c.124.053.346-.168.3-.266-.044-.097-.337-.135-.374 0a.224.224 0 0 0 .075.267M45.172 25.275c-.053.022-.053.124-.034.169a.17.17 0 0 0 .184.075c.063-.03.033-.162 0-.192a.18.18 0 0 0-.15-.052M45.51 24.251a.4.4 0 0 0-.08-.277c-.063-.072-.25 0-.277.12q-.004.105.038.202c.165.083.307.056.318-.045M12.712 7.71c-.049.083-.135.305-.075.376s.285-.049.292-.083c.03-.105.09-.236 0-.33a.132.132 0 0 0-.217.038M47.823 24.81a.495.495 0 0 0-.218-.559.375.375 0 0 0-.375.229.31.31 0 0 0 .192.446.28.28 0 0 0 .4-.116M47.302 30.753c-.11-.038-.158.03-.195.112a.16.16 0 0 0 .105.248.8.8 0 0 0 .228-.034.244.244 0 0 0-.127-.319zM35.122 4.736a.345.345 0 0 0 .277.375.233.233 0 0 0 .304-.135v-.023a.41.41 0 0 0-.27-.435.28.28 0 0 0-.311.218M37.466 8.153a.22.22 0 0 0 .213.23.293.293 0 0 0 .274-.293c-.053-.045-.124-.15-.218-.184-.093-.034-.258.094-.27.247M35.29 3.9l-.3-.12c.084.073.19.115.3.12M37.698 6.56a.42.42 0 0 0-.446.292.45.45 0 0 0 .33.423c.138.023.31-.142.337-.326.026-.184-.06-.36-.221-.39M40.803 9.863a.416.416 0 0 0 .278.458c.13 0 .375-.248.375-.413a.346.346 0 0 0-.683-.045zM41.343 11.4c-.049.026-.139.082-.109.134a.16.16 0 0 0 .158.072c.04 0 .15-.11.12-.162a.17.17 0 0 0-.17-.045M18.494 9.412a.25.25 0 0 0 .034-.322.25.25 0 0 0-.33-.03.19.19 0 0 0-.067.262.1.1 0 0 0 .037.045.23.23 0 0 0 .326.06zM20.613 6.168a.23.23 0 0 0 .023.323h.022c.094.067.195.146.281.063.146-.157.162-.31.072-.405a.26.26 0 0 0-.375-.022zM18.55 10.789a.3.3 0 0 0 0-.375.225.225 0 0 0-.315 0 .27.27 0 0 0-.026.375.266.266 0 0 0 .341 0M19.885 4a.53.53 0 0 0 .75-.026.5.5 0 0 0 .083-.619q-.486.147-.96.315a.37.37 0 0 0 .127.33M16.083 9.642a.26.26 0 0 0 0 .375.244.244 0 0 0 .349.026l.026-.026a.266.266 0 0 0 0-.35.25.25 0 0 0-.352-.044zM23.28 9.296a.15.15 0 0 0 .018.173c.041.034.127.097.169.052a.18.18 0 0 0 0-.172c-.02-.034-.147-.101-.188-.053M21.948 8.193a.296.296 0 0 0-.375.027.34.34 0 0 0-.03.446.45.45 0 0 0 .514.034c.075-.094.018-.368-.11-.507M21.66 11.137a.18.18 0 0 0 0 .195.17.17 0 0 0 .157 0 .16.16 0 0 0 0-.154c.003-.03-.11-.101-.158-.041M21.104 5.024a.405.405 0 0 0-.48 0 .35.35 0 0 0 .053.439.21.21 0 0 0 .3-.023c.172-.195.22-.337.127-.416M17.37 6.014a.334.334 0 0 0-.47 0l-.022.026a.375.375 0 0 0-.056.488.47.47 0 0 0 .54 0 .334.334 0 0 0 0-.51zM16.604 5.078a.4.4 0 0 0 .559.038c.082.116.12.285.315.217a.225.225 0 0 0 .165-.247c0-.203-.184-.203-.338-.214a.3.3 0 0 0-.03-.161l-.686.352zM23.448 5.344c-.098-.158-.244-.176-.439 0q-.111.24-.195.491a.22.22 0 0 0 .143.278.23.23 0 0 0 .296-.135q.045-.102.12-.184a.375.375 0 0 0 .075-.45M16.518 7.058a.315.315 0 0 0-.412-.154.32.32 0 0 0-.143.131 1.8 1.8 0 0 0-.206.476.476.476 0 0 0 .266.514c.105.045.375.053.394-.176-.131-.375.146-.375.139-.653a.5.5 0 0 0-.038-.138M17.658 7.98a.177.177 0 0 0 .03-.248l-.03-.03a.26.26 0 0 0-.221.026c-.049.041-.12.202-.071.262.048.06.232.034.292-.01M18.517 7.493c-.12-.124-.293-.101-.454.06a.27.27 0 0 0-.056.375.52.52 0 0 0 .54.049.32.32 0 0 0 0-.45zM15.007 8.378a.07.07 0 0 0 0 .098c0 .018.075 0 .09 0a.068.068 0 0 0-.047-.115.06.06 0 0 0-.047.02zM35.287 9.563a.43.43 0 0 0-.131-.551.457.457 0 0 0-.634.109v.022a.375.375 0 0 0 .075.518.56.56 0 0 0 .69-.098M35.118 11.284a.255.255 0 0 0 .274-.184.217.217 0 0 0-.162-.262.25.25 0 0 0-.27.183c-.037.12.045.263.158.263M35.797 8.985a.27.27 0 0 0-.188-.266.31.31 0 0 0-.303.195.23.23 0 0 0 .19.259.266.266 0 0 0 .3-.188M35.497 10.9a.23.23 0 0 0 .18-.135c0-.07-.143-.15-.191-.146a.18.18 0 0 0-.12.143.18.18 0 0 0 .13.138M34.203 6.648a.25.25 0 0 0-.139.33q.022.048.06.083a.34.34 0 0 0 .289.064.28.28 0 0 0 .146-.214.296.296 0 0 0-.307-.27zM34.21 10.34c.184 0 .154-.17.21-.237a.397.397 0 0 0-.03-.559h-.018a.38.38 0 0 0-.41.075.277.277 0 0 0-.048.375c.034.094.116.349.296.345M33.787 8.471c.071 0 .086-.25.052-.4a.2.2 0 0 0 .049.06s.116-.035.116-.06c0-.027 0-.15-.06-.18s-.135.074-.135.097l-.022-.03c-.087-.068-.282.078-.312.266-.03.187.218.266.312.247"/><path fill="#fff" d="M40.177 11.52a.18.18 0 0 0 .078-.138c0-.034-.116-.128-.154-.113s-.052.146-.04.195a.1.1 0 0 0 .115.056M35.17 6.713a.25.25 0 0 0-.345.038.25.25 0 0 0 .05.349.28.28 0 0 0 .374-.053.24.24 0 0 0-.078-.334M38.317 8.96a.255.255 0 0 0 .223-.416.26.26 0 0 0-.17-.095.28.28 0 0 0-.267.236.244.244 0 0 0 .214.274M40.143 13.32a.23.23 0 0 0 .143-.307.23.23 0 0 0-.32-.113.2.2 0 0 0-.124.089.2.2 0 0 0-.025.151.1.1 0 0 0 0 .041.237.237 0 0 0 .3.147zM38.073 7.777a.135.135 0 0 0-.161.034c-.03.03-.06.165 0 .199.06.033.168-.03.19-.068a.19.19 0 0 0-.03-.165M37.904 10.185a.7.7 0 0 0-.15-.72.47.47 0 0 0-.622.173.51.51 0 0 0 .135.637.47.47 0 0 0 .637-.09M35.973 7.968a.236.236 0 0 0 0-.326.32.32 0 0 0-.221-.075c-.143 0-.184.127-.173.397.128.06.244.161.394.004M37.863 12.435c.041 0 .184 0 .184-.079a.14.14 0 0 0-.12-.124c-.034 0-.158 0-.161.06a.16.16 0 0 0 .097.143M31.507 7.024a.18.18 0 0 0-.248.037.1.1 0 0 0-.022.041.28.28 0 0 0 0 .248.3.3 0 0 0 .334 0 .23.23 0 0 0-.057-.319zM31.012 4.274a.32.32 0 0 0-.424.038.39.39 0 0 0 .045.484.435.435 0 0 0 .555-.098c.056-.109-.026-.311-.176-.424M31.252 8.066a.5.5 0 0 0 .206 0c.105-.15.097-.296 0-.323a.38.38 0 0 0-.285.038c-.083.045-.03.244.079.285M40.443 10.853c.022-.15-.176-.206-.259-.251-.082-.045-.202.041-.225.169-.022.127.034.228.161.217.128-.011.3.015.323-.135M31.083 9.659c.09-.206-.199-.375-.296-.326-.098.048-.17.322-.068.4.101.08.274.136.364-.074M29.59 7.41c.083-.112 0-.374-.157-.48a.304.304 0 0 0-.424.042.4.4 0 0 0 .06.529.43.43 0 0 0 .521-.09M29.52 10.56a.17.17 0 0 0 .157-.033.135.135 0 0 0-.03-.188c-.094-.052-.15.045-.173.083a.13.13 0 0 0 .045.139M31.454 6.09c.053-.045 0-.15-.04-.187a.13.13 0 0 0-.14 0c-.033.03 0 .12 0 .165s.128.082.18.022M31.942 6.098a.315.315 0 0 0 .438-.071l.03-.053c.102-.176.083-.375-.052-.431a.495.495 0 0 0-.585.139.375.375 0 0 0 .169.416M33.262 3.293a.24.24 0 0 0 .202.064.3.3 0 0 0 .116-.038c-.375-.112-.75-.21-1.147-.303a.375.375 0 0 0 .112.51.57.57 0 0 0 .432.09.08.08 0 0 0 .052.03c.041 0 .173 0 .184-.075a.11.11 0 0 0-.038-.075h.038a.45.45 0 0 0 .049-.203M34.087 5.647a.2.2 0 0 0 .034-.064q.024.076.082.131a.4.4 0 0 0-.041.173.33.33 0 0 0 .259.393.2.2 0 0 0 .063 0 .375.375 0 0 0 .375-.3l.05.03a.31.31 0 0 0 .442.075.34.34 0 0 0 .112-.138q.022.045.068.067a.285.285 0 0 0 .33-.142.296.296 0 0 0-.06-.409.244.244 0 0 0-.33.094.5.5 0 0 0-.203-.14.47.47 0 0 1-.277-.198.52.52 0 0 0-.45-.206.44.44 0 0 0-.398.285v.045a.42.42 0 0 0-.172-.255c-.132-.083-.304 0-.424.176a.345.345 0 0 0 .03.439.45.45 0 0 0 .51-.056M35.283 7.842c.109 0 .21-.05.199-.162-.012-.112-.068-.311-.158-.318s-.199.187-.232.27c-.034.082.078.206.19.21M31.698 4.745c0-.05-.067-.105-.112-.124a.113.113 0 0 0-.15.079c0 .078.1.112.146.123a.13.13 0 0 0 .116-.078M32.204 4.68a.53.53 0 0 0 .687-.03.555.555 0 0 0-.143-.675.514.514 0 0 0-.63.165.394.394 0 0 0 .086.54M31.923 3.367a.5.5 0 0 0 .049-.127c.18.06.277-.049.374-.195l-.026-.056a20 20 0 0 0-1.091-.225.3.3 0 0 0-.09.086.406.406 0 0 0 .154.607.416.416 0 0 0 .63-.09M46.732 27.9a.26.26 0 0 0 .33-.164.27.27 0 0 0-.098-.3.26.26 0 0 0-.337.097.28.28 0 0 0 .105.368M28.634 7.733a.15.15 0 0 0-.203-.045.13.13 0 0 0-.044.045c-.05.063-.124.255-.076.303.05.05.24 0 .32-.03.078-.03.067-.168.003-.273M46.77 27.202a.29.29 0 0 0 .217-.345v-.03a.255.255 0 0 0-.42 0 .32.32 0 0 0-.023.292.27.27 0 0 0 .225.082M46.912 29.276a.24.24 0 0 0 .374-.09.54.54 0 0 0-.108-.495.34.34 0 0 0-.45.154.1.1 0 0 0 0 .022c-.102.158-.03.308.183.409M44.935 21.678a.12.12 0 0 0-.026-.086c-.026-.034-.071 0-.09.03a.08.08 0 0 0 0 .072c.049.003.098.014.116-.016M45.622 26.59c.052-.097-.12-.266-.312-.27-.19-.003-.225.248-.195.338s.458.026.507-.068M47.366 33.206c.135-.06.097-.023.22.063a.247.247 0 0 0 .353 0 .26.26 0 0 0 .072-.127.503.503 0 0 0-.342-.57.58.58 0 0 0-.663.424c-.03.206.228.273.36.21M45.115 19.497a.41.41 0 0 0-.517-.146.382.382 0 0 0 .352.675.397.397 0 0 0 .165-.529M40.274 9.435c.042 0 .15-.094.113-.158a.19.19 0 0 0-.188-.056.16.16 0 0 0-.06.146.14.14 0 0 0 .135.068M44.553 27.47a.375.375 0 0 0-.499.15.56.56 0 0 0 .195.682.42.42 0 0 0 .525-.21.453.453 0 0 0-.221-.623M43.233 28.65a.2.2 0 0 0-.161-.097.2.2 0 0 0-.117.15c0 .041.087.161.158.161s.131-.169.12-.214M27.296 6.638a.32.32 0 0 0-.226.053c-.078.07 0 .266.094.292a.4.4 0 0 0 .188-.026c.082-.146.049-.296-.056-.319M47.94 29.83c-.11-.037-.158.034-.196.113a.16.16 0 0 0-.025.125.16.16 0 0 0 .13.126.7.7 0 0 0 .229-.037.244.244 0 0 0-.127-.319zM41.013 17.002a.14.14 0 0 0 .113-.165.2.2 0 0 0-.027-.064c-.04-.071-.19-.21-.255-.184-.063.026-.093.225-.086.308s.124.146.255.105M44.02 30.98a.69.69 0 0 0 .69-.252.476.476 0 0 0-.247-.577.53.53 0 0 0-.615.225.47.47 0 0 0 .172.603M42.13 14.508a.19.19 0 0 0 .08-.139.14.14 0 0 0-.154-.112c-.098.022-.053.146-.045.195a.14.14 0 0 0 .12.056M40.698 14.085a.28.28 0 0 0 .206-.116c.086-.173 0-.285-.191-.375-.131.082-.285.131-.251.315a.21.21 0 0 0 .236.176M40.769 8.515a.5.5 0 0 0-.067-.232.22.22 0 0 0 .24-.188.26.26 0 0 0-.222-.285.3.3 0 0 0-.086 0c-.169.027-.229-.075-.334-.172q.052-.06.094-.128a.16.16 0 0 0 .079-.022q0 .041.022.075a.266.266 0 0 0 .297.124c.116-.045.116-.248.093-.353a.45.45 0 0 0-.311-.221c0-.064.023-.06.109-.146l.03-.072q-.244-.179-.492-.352a.7.7 0 0 0-.232.229.3.3 0 0 0-.034.142c-.123 0-.195.083-.225.248a.374.374 0 0 0 .195.495h.038q-.125.056-.259.078a.236.236 0 0 0-.255.2.34.34 0 0 0 .098.374c.408.308.558.3.918-.052l.034-.023a.6.6 0 0 0-.105.169.157.157 0 0 0 .071.214q.023.003.045 0a.187.187 0 0 0 .248-.102zM42.348 18.525c.041 0 .142-.105.12-.161-.023-.056-.158-.068-.195-.049a.14.14 0 0 0-.079.15c.004.06.113.06.154.06M40.54 10.902a.071.071 0 0 0 .038-.09.082.082 0 0 0-.097-.026c-.023 0-.03.07 0 .086s.026.064.06.03M41.215 11.104a.4.4 0 0 0 .162-.375.26.26 0 0 0-.338-.1.24.24 0 0 0-.109.318c.08.146.188.21.285.157M43.732 16.275a.424.424 0 0 0 .097-.528c-.082-.173-.251-.21-.469-.102a.334.334 0 0 0-.146.375.65.65 0 0 0 .518.255M43.552 24.15c.217.06.345-.247.28-.341-.063-.094-.34-.12-.408 0s-.101.285.128.341M42.49 22.886a.13.13 0 0 0 .184-.053c.034-.101-.067-.142-.112-.161a.15.15 0 0 0-.131.071.15.15 0 0 0 .06.143M43.282 17.174c-.053-.071-.214-.221-.304-.184s-.053.27-.026.353a.155.155 0 0 0 .171.096.2.2 0 0 0 .065-.029c.109-.063.135-.142.094-.236M42.948 14.685c.037-.15-.12-.319-.341-.375a.28.28 0 0 0-.297.199.35.35 0 0 0 .21.393.41.41 0 0 0 .428-.217M42.877 26.12a.23.23 0 0 0 .21-.068.15.15 0 0 0-.026-.214.2.2 0 0 0-.042-.026c-.063-.027-.243-.057-.3.078s.102.21.158.23M44.482 15.775c-.026-.052-.188-.154-.248-.12a.3.3 0 0 0-.056.263c.026.022.199.127.248.086a.26.26 0 0 0 .056-.229M46.222 24.196a.176.176 0 0 0-.075-.237h-.041a.32.32 0 0 0-.24.05.27.27 0 0 0 .06.33.225.225 0 0 0 .296-.143M46.02 22.13a.3.3 0 0 0-.106-.41.44.44 0 0 0-.465.072c-.022-.049-.063-.12-.135-.105-.07.015-.078.135-.063.154a.19.19 0 0 0 .135.078.42.42 0 0 0 .187.447c.116.056.375-.068.446-.237M45.15 15.273a.26.26 0 0 0-.147-.293.19.19 0 0 0-.259.045c-.12.147-.056.278.042.424.16-.015.326.008.363-.176M45.037 16.747c-.034-.023-.173-.034-.2.022-.025.057.057.162.095.177a.135.135 0 0 0 .16-.042c.03-.056-.018-.13-.055-.157M45.134 18.556c.154-.057.225-.173.188-.297a.41.41 0 0 0-.454-.236.28.28 0 0 0-.169.345.353.353 0 0 0 .435.188M18.573 5.583a.34.34 0 0 0 .056-.438.277.277 0 0 0-.375-.042.375.375 0 0 0 0 .48.21.21 0 0 0 .3.02zM14.268 6.525v-.02l-.098.072a.2.2 0 0 0 .098-.052M44.56 14.427a.465.465 0 0 0 .537-.191.38.38 0 0 0 .285-.162q.08-.143.139-.296a.3.3 0 0 0 .153-.03l.087-.041a.6.6 0 0 0 .157 0 .28.28 0 0 0-.068.18c0 .143-.315.079-.31.277.003.2-.218.286-.184.526.033.24.22.45.412.348a.82.82 0 0 0 .345-.431.21.21 0 0 0 .289-.041.3.3 0 0 0 .033-.075.214.214 0 0 0-.198-.221c.183-.045.532-.188.408-.507a.43.43 0 0 0-.457-.217.49.49 0 0 0 0-.42.43.43 0 0 0-.319-.207 1 1 0 0 0-.108-.082.28.28 0 0 0-.214-.026.45.45 0 0 0-.326.543 1 1 0 0 0 .03.162c-.102 0-.2.03-.293.052h-.03a.53.53 0 0 0-.495.267.435.435 0 0 0 .127.592M18.734 6.761a.25.25 0 0 0-.345.045.2.2 0 0 0-.046.226q.017.038.046.067h.023a.263.263 0 0 0 .352 0 .26.26 0 0 0-.03-.338M14.823 10.184a.22.22 0 0 0 .06-.304v-.026a.2.2 0 0 0-.191-.037.25.25 0 0 0-.14.18c-.007.146.188.187.27.187M14.542 7.838a.35.35 0 0 0-.079-.465.325.325 0 0 0-.491 0 .32.32 0 0 0-.053.454.476.476 0 0 0 .623.011M44.628 25.673c0-.109-.311-.262-.409-.157a.25.25 0 0 0 0 .322c.113.098.413-.056.409-.165M43.953 11.56a.43.43 0 0 0-.105-.322.23.23 0 0 0 .109-.225c0-.169-.162-.202-.315-.247-.102.116-.24.225-.128.375q.013.024.034.04a.56.56 0 0 0-.248.376.24.24 0 0 0 .14.233q.044.02.093.022a.337.337 0 0 0 .42-.251M44.114 13.628a.28.28 0 0 0 .173-.154c.037-.169-.105-.21-.229-.251-.131.082-.206.183-.127.322a.2.2 0 0 0 .183.083M43.84 12.829a.117.117 0 0 0 0-.162l-.026-.018a.27.27 0 0 0-.21.04c-.064.03-.135.05-.169.117-.033.068.05.161.158.158a.38.38 0 0 0 .247-.136M42.828 11.595c-.064.056-.135.116-.127.195.007.078.224.176.333.116s.083-.139.049-.218a.16.16 0 0 0-.138-.12.2.2 0 0 0-.064.004.13.13 0 0 0-.053.023M43.323 14.373c.229-.079.311-.341.203-.626a.405.405 0 0 0-.507-.255h-.041a.506.506 0 0 0-.266.622.53.53 0 0 0 .611.259M43.8 17.026a.24.24 0 0 0 .3.169h.037a.274.274 0 0 0 .131-.327.29.29 0 0 0-.375-.127.225.225 0 0 0-.094.285M42.907 12.845a.19.19 0 0 0 .15-.23.2.2 0 0 0 0-.044.22.22 0 0 0-.267-.128c-.097.023-.187.274-.116.345a.27.27 0 0 0 .233.056"/><path fill="#fff" d="M28.323 8.504a.23.23 0 0 0 .221-.165.34.34 0 0 0 .038-.21c-.116 0-.3-.139-.375-.037-.075.1.037.273.052.375zM44.05 23.48c.042.03.184.078.244 0 .06-.08-.067-.196-.116-.218-.049-.023-.154-.038-.195.045a.146.146 0 0 0 .067.172M19.357 4.036a.27.27 0 0 0 0-.218c-.375.14-.75.29-1.095.447a.62.62 0 0 0 .303.202.84.84 0 0 0 .792-.431M44.71 21.464c0-.112.094-.311 0-.375-.093-.064-.266.071-.374.101v.08c.037.142.086.16.19.198.06.02.125.018.185-.004M43.537 19.437a.206.206 0 0 0 .071.285h.026c.143.063.375 0 .41-.083a.38.38 0 0 0-.192-.345.236.236 0 0 0-.308.109.05.05 0 0 0-.007.034M44.38 22.001a.255.255 0 0 0-.146-.292.187.187 0 0 0-.259.045c-.123.146-.056.277.041.424.162-.02.327.007.364-.177M42.817 13.064a.374.374 0 0 0 .303.401c.18.038.297-.063.342-.296.03-.158-.075-.375-.195-.401a.43.43 0 0 0-.45.296M43.987 17.824c-.023 0-.03.071-.023.09.008.018.049.048.079.034a.07.07 0 0 0 .041-.09.09.09 0 0 0-.097-.034M25.503 10.23a.237.237 0 0 0 .03-.33.25.25 0 0 0-.322-.022.24.24 0 0 0-.054.266q.018.045.054.08a.183.183 0 0 0 .262.052.1.1 0 0 0 .03-.045M24.948 5.37a.453.453 0 0 0-.896-.086c-.041.172.183.375.427.42a.44.44 0 0 0 .469-.334M26.448 7.025a.33.33 0 0 0-.071-.203.267.267 0 1 0-.45.289.23.23 0 0 0 .093.086c.098.079.293.011.428-.172M24.34 6.63a.14.14 0 0 0 0-.168c-.056-.041-.142.045-.172.083a.11.11 0 0 0 .026.135c.004.026.109-.015.146-.05M24.127 7.1c-.049-.038-.131 0-.162.033-.03.034-.056.165 0 .2.057.033.17-.03.188-.068.019-.038.045-.132-.026-.165M19.503 8.775c.128-.13.157-.348.06-.438a.484.484 0 0 0-.6 0 .303.303 0 0 0 .034.427.33.33 0 0 0 .465.026zM24.36 6.08a.28.28 0 0 0-.207-.105c-.169.026-.154.172-.15.303.124.09.247.124.349 0a.22.22 0 0 0 .007-.198M26.41 9a.21.21 0 0 0 .3-.037c.083-.131.068-.375-.026-.416a.4.4 0 0 0-.375.139.23.23 0 0 0 .064.318zM27.948 5.928a.6.6 0 0 0 .266-.123c.083-.068.075-.17-.026-.244a.22.22 0 0 0-.195-.056.3.3 0 0 0-.101-.113.296.296 0 0 0-.375.064c-.139.202-.135.439 0 .525a.43.43 0 0 0 .431-.053M27.63 5.139a.25.25 0 0 0 .026-.35.2.2 0 0 1-.027-.026.27.27 0 0 0-.352 0 .28.28 0 0 0 0 .375.22.22 0 0 0 .319.03zM28.248 6.9a.154.154 0 0 0 .214-.038l.022-.052c.03-.075.094-.274 0-.32-.094-.044-.274.068-.322.136a.206.206 0 0 0 .086.274M26.864 6.173c-.09-.075-.18 0-.236.09s-.03.244.071.267c.101.022.251.078.304-.053s-.075-.251-.139-.304M26.917 10.238c.048-.026.123-.203.078-.251-.045-.05-.217-.023-.243 0-.027.022-.087.172-.053.217a.21.21 0 0 0 .218.034M27.067 4.15a.566.566 0 0 0-.679.124c-.146.192-.06.477.203.668a.397.397 0 0 0 .558-.079.54.54 0 0 0-.082-.712M24.104 7.736a.29.29 0 0 0-.034-.247.2.2 0 0 0-.266-.064l-.037.034a.21.21 0 0 0-.023.292c.056.087.323.075.36-.015M21.494 6.15a.263.263 0 0 0 0 .352c.146.128.293.053.435 0 .03-.288 0-.397-.157-.442a.244.244 0 0 0-.278.09M22.417 5.801c.18-.195.202-.345.067-.48a.41.41 0 0 0-.476.026.45.45 0 0 0 .064.484.23.23 0 0 0 .326 0s.011-.022.019-.03M21.648 7.49c.158-.106.278-.207.203-.376a.25.25 0 0 0-.195-.112.38.38 0 0 0-.237.176c-.067.173.102.221.23.311M21.51 4.65a.42.42 0 0 1 .374.278.375.375 0 0 0 .435.112.5.5 0 0 0 .146-.304.2.2 0 0 0 .06-.078.22.22 0 0 0-.13-.278h-.057a.15.15 0 0 0-.169-.067.58.58 0 0 1-.48-.11.206.206 0 0 0-.281.042.3.3 0 0 0-.023.045c-.06.116-.015.326.124.36M20.403 8.805a.274.274 0 0 0-.352 0 .285.285 0 0 0 0 .375.23.23 0 0 0 .318 0 .25.25 0 0 0 .056-.345zM23.823 10.65a.16.16 0 0 0 0-.132.2.2 0 0 0-.157-.022c-.034 0-.075.153-.05.184.027.03.166-.012.207-.03M20.37 10.114a.146.146 0 0 0 .044-.199.14.14 0 0 0-.045-.048c-.086-.072-.18-.124-.285-.034a.29.29 0 0 0 .03.356.28.28 0 0 0 .255-.075M20.035 11.658a.28.28 0 0 0 0-.322c-.082-.09-.27 0-.375.04a.326.326 0 0 0-.07.406c.082.094.374-.049.445-.124M23.152 7.71c-.09-.075-.158-.026-.222.034a.165.165 0 0 0-.048.225q.019.028.048.045c.072.041.158.086.226.049a.29.29 0 0 0-.004-.353M23.789 4.361a.24.24 0 0 0 .191 0c.128-.063.188.267.375.188.188-.079.345.101.559-.019s.337-.375.172-.51a.84.84 0 0 0-.547-.165.25.25 0 0 0-.12.03.37.37 0 0 0-.049-.435c-.123-.082-.33 0-.45.176a.3.3 0 0 0-.334.057.424.424 0 0 0-.033.506.431.431 0 0 0-.345.75.397.397 0 0 0 .536 0 .65.65 0 0 0 .045-.578M22.84 3.874l.263-.251q-.055-.101-.116-.202a.27.27 0 0 0-.24-.098.35.35 0 0 0-.098-.24l-.033-.034a.18.18 0 0 0-.042-.176l-.67.154a.04.04 0 0 0 .025.022c.203.06.18.237.214.375a.245.245 0 0 0 .375.192l.049-.023c.006.04.024.079.052.109a.9.9 0 0 0 .222.172M23.823 7.024c.093 0 .131-.101.086-.202a.37.37 0 0 0-.221-.199.12.12 0 0 0-.146.086.1.1 0 0 0 0 .023c0 .075.056.123.116.18s.112.108.165.112M23.122 10.485a.075.075 0 0 0 0-.086.08.08 0 0 0-.105 0 .075.075 0 0 0 0 .101s.09.004.105-.015M23.017 10.009c.116-.116.135-.244.052-.311a.42.42 0 0 0-.427 0 .24.24 0 0 0 .03.348.233.233 0 0 0 .326 0z"/><path fill="#20377D" d="M35.767 11.608a3.8 3.8 0 0 0-1.924-.138 6.48 6.48 0 0 0-12.52-.893q-.146.43-.23.878a3.855 3.855 0 0 0-4.248 5.02c.167.5.433.961.783 1.355a3.86 3.86 0 0 0 2.787 1.282h14.25a3.851 3.851 0 0 0 1.125-7.5z"/><path fill="#7DE2D1" d="M35.373 19.533a6.6 6.6 0 0 0-3.315-.236 11.183 11.183 0 0 0-21.6-1.534q-.248.736-.394 1.5a6.62 6.62 0 0 0-5.115 1.335 6.65 6.65 0 0 0-2.524 4.646 6.653 6.653 0 0 0 6.47 7.23h24.547a6.648 6.648 0 0 0 1.93-12.949z"/><path fill="#42D4C6" d="M14.264 19.863c-.034-.075-.082-.15-.191-.116a.233.233 0 0 0-.113.296q.112.031.225.022c.098-.022.12-.112.08-.202M15.693 22.788a.4.4 0 0 0 .169-.514.46.46 0 0 0-.53-.217.375.375 0 0 0-.232.484.6.6 0 0 0 .593.247M13.95 15.858c-.034-.034-.076-.075-.136-.045a.075.075 0 0 0-.048.078q.003.016.01.03c.027.035.08.106.15.083.072-.022.038-.13.023-.146M14.392 15.436c.056-.113-.176-.3-.308-.255-.13.045-.22.22-.157.31.064.09.409.057.465-.055M14.4 21.608a.3.3 0 0 0-.196-.056q.202.232.375.487a.5.5 0 0 0-.18-.431M15.73 20.43a.19.19 0 0 0 .252-.12.26.26 0 0 0-.03-.222c-.117-.105-.244-.056-.375.041-.004.12.015.252.153.3M14.894 18.192c-.034-.146-.109-.218-.259-.207a.33.33 0 0 0-.277.375c.022.184.127.2.131.32s.071.153.195.18.308.06.341-.113-.078-.214-.13-.218c-.053-.003-.125-.093-.065-.105s.094-.086.064-.232M15.865 18.762a.2.2 0 0 0 .23-.113c.033-.101-.02-.154-.237-.213a.188.188 0 0 0 .007.326M16.6 24.195a.375.375 0 0 0 .207-.417c-.045-.105-.353-.165-.484-.097a.296.296 0 0 0 .277.514M14.294 20.186a.454.454 0 0 0 .026.641c.106.116.094.274.237.338a.65.65 0 0 0 .75-.154.53.53 0 0 0 .142-.48c-.045-.176-.277-.188-.375-.341-.25-.375-.573-.225-.78-.004M15.993 17.76c.034-.026.097-.056.075-.12a.08.08 0 0 0-.109-.049c-.037 0-.131.072-.109.128s.12.052.143.041M16.072 23.393c-.041-.09-.233-.187-.308-.154a.285.285 0 0 0-.123.311.22.22 0 0 0 .3.124.24.24 0 0 0 .13-.281M16.927 22.484a.34.34 0 0 0-.48-.154.375.375 0 0 0-.225.552.424.424 0 0 0 .558.187.5.5 0 0 0 .147-.585M15.99 21.338c-.12.09-.076.217-.038.349.135.022.277.071.348-.087a.1.1 0 0 0 0-.045c.12.05.255.05.375 0a.21.21 0 0 0 .08-.288.303.303 0 0 0-.376-.191.35.35 0 0 0-.187.228.21.21 0 0 0-.203.034M16.747 20.645a.375.375 0 0 0 .214-.443.375.375 0 0 0-.488-.169.266.266 0 0 0-.12.375c.06.143.274.278.394.237M16.724 25.841a.56.56 0 0 0 .203-.431.303.303 0 0 0-.432-.128c-.135.068-.165.207-.082.394.082.188.199.221.311.165M12.127 19.087c-.173.071-.206.169-.124.375.083.206.199.247.323.191a.48.48 0 0 0 .183-.438.275.275 0 0 0-.382-.128M12.262 17.801c.123-.06.255-.356.202-.453a.374.374 0 0 0-.461-.075c-.15.075-.18.22-.079.408a.294.294 0 0 0 .338.12M17.493 25.227a.32.32 0 0 0-.176.439.387.387 0 0 0 .712-.308c-.079-.172-.304-.236-.536-.131M19.372 24.06c-.057-.226-.147-.282-.375-.21-.23.07-.338.097-.503.142-.112-.3-.146-.311-.375-.161 0 .165.079.24.244.255.06.394.281.457.615.199q.039.014.075.033a.184.184 0 0 0 .255-.03.2.2 0 0 0 .064-.229M17.448 29.122c-.06.05-.199.195-.161.263.037.067.229.06.307.049.079-.012.113-.158.064-.24-.049-.083-.124-.132-.21-.072M17.658 26.97a.33.33 0 0 0-.102.374.31.31 0 0 0 .375-.03.21.21 0 0 0 0-.285.21.21 0 0 0-.273-.06M15.018 31.297a.07.07 0 0 0-.023.083.09.09 0 0 0 .08.018.07.07 0 0 0 .03-.07.06.06 0 0 0-.037-.036.06.06 0 0 0-.05.005M14.564 29.727q-.12.173-.251.34c.161-.007.221-.063.251-.34M14.647 29.62c.116 0 .221-.018.236-.175a.27.27 0 0 0-.034-.158c-.067.113-.13.225-.202.334M14.425 31.264a.236.236 0 0 0-.288-.109.247.247 0 0 0-.102.315.195.195 0 0 0 .259.09.21.21 0 0 0 .152-.207.2.2 0 0 0-.02-.09M14.448 32.006c-.06.045-.191.191-.157.266.033.075.236.041.307 0s.116-.112.056-.206-.127-.131-.206-.06M15.847 24.963a.18.18 0 0 0-.143-.131c0 .105.034.21.045.315a.13.13 0 0 0 .11-.125q0-.03-.012-.059M16.057 25.826c.034-.375-.019-.51-.296-.607q.029.326.03.652v.21a.1.1 0 0 0 .04 0c.117-.049.21-.108.226-.255M6.16 19.856l.057-.026zM4.124 21.382q.134-.151.274-.296c-.075.09-.18.195-.274.296M18.446 28.683a.213.213 0 0 0 .105-.262.233.233 0 0 0-.278-.135.23.23 0 0 0-.112.262.27.27 0 0 0 .285.135M18.618 30.957a.22.22 0 0 0-.251.134.165.165 0 0 0 .045.222c.131.105.244.045.375-.045-.026-.139-.008-.282-.169-.312M10.128 18.994q-.03.129-.06.259l.221.033a.26.26 0 0 0 .083-.187c-.075-.071-.158-.135-.244-.105M18.82 26.47c-.138.065-.187.166-.134.29s.296.292.43.228a.334.334 0 0 0 .095-.405.3.3 0 0 0-.39-.112M18.457 30.21a.2.2 0 0 0 .067-.124c0-.019-.078-.067-.097-.06s-.12.06-.105.131.116.064.135.053M3.198 22.669c-.045.078-.082.165-.12.247.064-.131.131-.259.203-.375-.02.037-.053.079-.083.128M2.68 23.926c.038-.12.083-.236.124-.375-.037.135-.086.251-.124.375M2.467 24.949c0-.068.019-.135.03-.203-.015.064-.023.139-.03.203M12.573 18.548a.11.11 0 0 0 0 .139.16.16 0 0 0 .169 0c.037-.034 0-.116-.026-.15a.116.116 0 0 0-.143.011M14.448 16.758c.146-.022.315 0 .438-.142v-.21c.158-.12.244-.293.184-.375a.19.19 0 0 0-.229-.094c-.172.038-.213.105-.22.315q-.154.136-.29.289a.14.14 0 0 0-.008.144.14.14 0 0 0 .125.073M16.383 28.763a.105.105 0 0 0 .06-.176c-.045-.049-.169-.176-.244-.139-.075.038-.037.225 0 .282.038.056.124.048.184.033M15.348 30.21a.375.375 0 0 0-.195.401.247.247 0 0 0 .304.139.315.315 0 0 0 .153-.375.213.213 0 0 0-.262-.165M16.2 27.776a.31.31 0 0 0-.395-.101c-.19.09-.25.202-.19.349a.376.376 0 0 0 .42.19.375.375 0 0 0 .164-.438M15.866 26.636a.2.2 0 0 0-.105-.12c0 .127-.038.25-.057.375a.255.255 0 0 0 .162-.255M15.434 28.875a.52.52 0 0 0-.266.562.41.41 0 0 0 .503.2.4.4 0 0 0 .225-.488.4.4 0 0 0-.462-.274M16.428 30.367a.376.376 0 0 0-.105.442.334.334 0 0 0 .581-.318.34.34 0 0 0-.476-.124M16.773 26.35a.23.23 0 0 0-.086.29.244.244 0 0 0 .296.086.214.214 0 0 0 .101-.282.23.23 0 0 0-.311-.093M17.752 19.428a.32.32 0 0 0 .112-.352.28.28 0 0 0-.28-.2q-.144.002-.282.035a1 1 0 0 0-.098-.102.42.42 0 0 0-.468-.07.5.5 0 0 0-.222.43.25.25 0 0 0 .083.17.376.376 0 0 0 .555 0l.101-.095q.083.101.176.192a.206.206 0 0 0 .323-.008M16.612 27.11a.6.6 0 0 0-.038.244c.026.116.195.153.311.09a.19.19 0 0 0 .068-.27.255.255 0 0 0-.341-.064M13.18 31.561c-.153.075-.183.225-.082.413a.296.296 0 0 0 .338.12c.123-.06.255-.376.202-.454a.375.375 0 0 0-.457-.079M17.418 18.228a.2.2 0 0 0 .229-.113.183.183 0 0 0-.237-.217.19.19 0 0 0-.063.262.2.2 0 0 0 .07.068M13.323 31.248c.045-.052.105-.172.067-.214l-.022-.018q-.13.103-.263.202c.06.041.218.056.218.03M3.573 22.102q.036-.05.071-.094c-.045.026-.07.064-.07.094M3.397 22.362q.049-.086.105-.172a4 4 0 0 0-.11.168zM21.176 25.987a.2.2 0 0 0-.124-.067c-.03 0-.116.056-.094.139.023.082.128.04.169.033s.071-.09.049-.105M11.95 31.936a8 8 0 0 1-.712.292q.003.061.026.116.044.092.128.15h.502a.48.48 0 0 0 .116-.468.4.4 0 0 0-.06-.09M13.698 17.495c-.113-.046-.214-.14-.311-.098a.2.2 0 0 0-.128.135c-.022.056-.071.101-.06.195a.46.46 0 0 0 .214.33.34.34 0 0 0 .349-.022.29.29 0 0 0 .108-.27.33.33 0 0 0-.172-.27M17.602 21.037a.375.375 0 0 0 .424.192.34.34 0 0 0 .157-.41c-.056-.15-.184-.187-.375-.112-.131.05-.244.23-.206.33M10.672 32.377q-.164.04-.327.071a.1.1 0 0 0 0 .034h.353v-.064a.1.1 0 0 0-.026-.041M19.672 24.09c-.06.023-.094.128-.124.173.064.15.154.15.233.12.078-.03.153-.113.093-.199s-.153-.124-.202-.094M17.88 22.148a.284.284 0 0 0-.125.409.374.374 0 0 0 .525.173.376.376 0 0 0 .147-.47.41.41 0 0 0-.548-.112M20.23 25.73a.125.125 0 0 0-.067.13q.003.027.019.05a.13.13 0 0 0 .161.033.113.113 0 0 0 .064-.142.12.12 0 0 0-.177-.072M17.497 24c-.12.053-.071.226-.068.308.004.083.128.128.23.086.1-.041.153-.127.085-.217s-.127-.225-.247-.177M19.717 25.065a.14.14 0 0 0-.034.146c.023.042.075.117.12.09a.14.14 0 0 0 .056-.134c-.007-.038-.097-.128-.142-.102M20.017 27.608a.187.187 0 0 0-.12.247.22.22 0 0 0 .259.113.18.18 0 0 0 .12-.248.214.214 0 0 0-.26-.112M19.732 28.782c-.199-.026-.416.139-.398.3a.31.31 0 0 0 .244.281.243.243 0 0 0 .308-.138c.048-.098.202-.267.116-.398s-.195-.034-.27-.045M19.323 20.929a.3.3 0 0 0 .187-.337.345.345 0 0 0-.375-.21c-.127.04-.18.236-.112.42a.24.24 0 0 0 .3.127M19.368 22.514c.124.06.229.15.349.038a.18.18 0 0 0 .06-.193.255.255 0 0 0-.213-.164c-.166.02-.2.15-.196.32M11.579 16.935c.086-.037.098-.105.049-.199-.027 0-.068-.041-.094-.03a.45.45 0 0 1-.296-.018c-.045 0-.143.06-.169.116a.25.25 0 0 0 .026.206c.023.037.116.052.173.041a2 2 0 0 0 .311-.116M10.934 18.93c-.142.108-.202.221-.154.296a.35.35 0 0 0 .375.064.3.3 0 0 0 .03-.334.16.16 0 0 0-.19-.067.2.2 0 0 0-.06.04M12.022 15.488a.187.187 0 0 0 .109-.248.164.164 0 0 0-.237-.078.154.154 0 0 0-.086.206.165.165 0 0 0 .214.12M11.823 18.097c-.195.102-.281.252-.218.375a.293.293 0 1 0 .514-.277.25.25 0 0 0-.296-.098M10.938 18.134a.16.16 0 0 0 .116-.213c-.049-.173-.131-.27-.217-.255a.37.37 0 0 0-.195.31c.015.083.187.177.296.158M12.089 16.136c-.146.067-.18.202-.094.375.087.172.199.176.375.09.177-.087.18-.17.143-.267a.45.45 0 0 0-.424-.198M11.594 16.186c.094-.046.184-.237.146-.308a.31.31 0 0 0-.348-.113.22.22 0 0 0-.08.293.24.24 0 0 0 .282.128M13.503 19.627a1.3 1.3 0 0 0-.24-.127.32.32 0 0 0-.375.123.35.35 0 0 0 .067.44.3.3 0 0 0 .225.044.41.41 0 0 0 .323-.48M13.544 19.008c0-.06-.052-.078-.112-.06a.07.07 0 0 0-.057.038.08.08 0 0 0-.003.067c0 .06.049.087.112.068a.075.075 0 0 0 .07-.076.1.1 0 0 0-.01-.037M13.323 20.31a.34.34 0 0 0-.232.187q.305.225.58.484a.35.35 0 0 0 .173-.375.49.49 0 0 0-.52-.297"/></g><defs><clipPath id="a"><path fill="#fff" d="M.375 1.5h47.381v45H.375z"/></clipPath></defs></svg>