<svg xmlns="http://www.w3.org/2000/svg" width="56" height="56" fill="none"><rect width="56" height="56" fill="#79AAD9" rx="28"/><path fill="#4A7194" fill-rule="evenodd" d="M19.25 10.5a8.75 8.75 0 0 1 8.661 7.5h7.802A3.752 3.752 0 0 1 43 19.25a3.75 3.75 0 0 1-7.287 1.25h-7.802a8.7 8.7 0 0 1-1.653 3.99l5.252 5.252A8.75 8.75 0 1 1 28.09 38h-7.803A3.752 3.752 0 0 1 13 36.75a3.75 3.75 0 0 1 7.287-1.25h7.802a8.7 8.7 0 0 1 1.653-3.99l-5.252-5.252A8.75 8.75 0 1 1 19.25 10.5m0 15a6.25 6.25 0 1 0 0-12.5 6.25 6.25 0 0 0 0 12.5M38 19.25a1.25 1.25 0 1 0 2.5 0 1.25 1.25 0 0 0-2.5 0M36.75 43a6.25 6.25 0 1 1 0-12.5 6.25 6.25 0 0 1 0 12.5M18 36.75a1.25 1.25 0 1 1-2.5 0 1.25 1.25 0 0 1 2.5 0" clip-rule="evenodd"/></svg>