<svg xmlns="http://www.w3.org/2000/svg" width="16" height="16" fill="none"><path fill="#000" fill-rule="evenodd" d="M2.208 2H1V1h13a1 1 0 0 1 1 1v13h-1v-1.207a11.44 11.44 0 0 0-5.214-1.395l-.603 1.043-.866-.5.602-1.043A11.56 11.56 0 0 0 4.102 8.08l-1.043.602-.5-.866 1.043-.603A11.44 11.44 0 0 0 2.208 2m1.125 0a12.4 12.4 0 0 1 1.245 4.651L6.2 5.715A8.45 8.45 0 0 0 5.206 2zm2.99 0c.453.974.746 2.037.844 3.156l1.629-.94A5.5 5.5 0 0 0 8.203 2zm2.981 0a6.5 6.5 0 0 1 .446 1.665L12.634 2zm3.83.866-2.886 1.666c.459.35.87.761 1.22 1.22zm-2.216 3.839a5.5 5.5 0 0 0-1.623-1.623l-1.629.94a9.6 9.6 0 0 1 2.311 2.312l.94-1.63ZM9.419 9.3a8.55 8.55 0 0 0-2.72-2.72l-1.623.937a12.6 12.6 0 0 1 3.406 3.406zm-.07 2.121c1.66.112 3.23.547 4.651 1.244v-1.872a8.45 8.45 0 0 0-3.715-.994zm1.495-2.59A9.4 9.4 0 0 1 14 9.678v-1.88a5.5 5.5 0 0 0-2.216-.593l-.94 1.629Zm1.49-2.582A6.5 6.5 0 0 1 14 6.696v-3.33L12.335 6.25Z" clip-rule="evenodd"/></svg>