<svg xmlns="http://www.w3.org/2000/svg" width="56" height="56" fill="none"><rect width="56" height="56" fill="#6DCCB1" rx="28"/><g clip-path="url(#a)"><path fill="#007E77" fill-rule="evenodd" d="m20.856 35.686-4.78 1.37a6.33 6.33 0 0 1-3.49-12.169l4.868-1.396a6.33 6.33 0 0 1 6.388 1.78l3.824-13.336c.348-1.213 1.5-2.243 2.898-3.094.677-.412 1.301-.695 1.948-.8 2.034-.331 3.758 1.395 3.153 3.554l-3.73 13.012 12.47-3.576c2.16-.604 3.885 1.12 3.554 3.153-.105.647-.388 1.272-.8 1.948-.852 1.399-1.881 2.55-3.094 2.898l-12.258 3.515a6.33 6.33 0 0 1 1.398 6l-1.396 4.868a6.33 6.33 0 1 1-12.169-3.49zm.823-2.87 1.199-4.183-.028-.104a3.8 3.8 0 0 0-4.698-2.604l-4.868 1.396a3.798 3.798 0 0 0 2.094 7.301zm9.432-5.34-.823 2.87 13.08-3.75c.81-.232 2.954-3.472 1.735-3.131zm-9.037 13.146a3.798 3.798 0 1 0 7.302 2.093l1.395-4.867a3.798 3.798 0 0 0-3.88-4.839l6.34-22.112c.342-1.22-2.899.925-3.131 1.736zm2.434.698 1.396-4.868a1.266 1.266 0 1 1 2.434.698l-1.396 4.868a1.266 1.266 0 1 1-2.434-.698m-9.828-9.132a1.266 1.266 0 1 1-.698-2.433l4.868-1.396a1.266 1.266 0 1 1 .698 2.434z" clip-rule="evenodd"/></g><defs><clipPath id="a"><path fill="#fff" d="M8 8h40v40H8z"/></clipPath></defs></svg>