<svg xmlns="http://www.w3.org/2000/svg" width="40" height="44" fill="none"><path fill="#00BFB3" fill-rule="evenodd" d="M12 24.648v.745a1.33 1.33 0 0 1-.912 1.264l-8.421 2.807V13.98c0-.417.198-.816.533-1.067l4.267-3.2-1.6-2.133-4.268 3.2A4.02 4.02 0 0 0 0 13.981v16c0 1.252.597 2.448 1.6 3.2l4.267 3.2 1.6-2.133-3.298-2.474 7.763-2.587a3.995 3.995 0 0 0 2.734-3.794v-.745zM38.401 10.781l-4.267-3.2-1.6 2.134 4.266 3.2c.334.25.534.649.534 1.066v15.483l-8.42-2.807A1.33 1.33 0 0 1 28 25.392v-.744h-2.667v.744a4 4 0 0 0 2.735 3.796l7.763 2.586-3.298 2.474 1.6 2.133 4.267-3.2a4.02 4.02 0 0 0 1.6-3.2v-16a4.02 4.02 0 0 0-1.6-3.2" clip-rule="evenodd"/><path fill="#535966" fill-rule="evenodd" d="M13.334 3.314c-.357 0-.691.14-.943.391-.252.252-.39.587-.39.943s.138.69.39.942c.504.504 1.383.504 1.885 0 .252-.252.39-.586.39-.942s-.138-.69-.39-.943a1.32 1.32 0 0 0-.942-.39m0 5.334a3.98 3.98 0 0 1-2.83-1.172 3.98 3.98 0 0 1-1.17-2.828c0-1.068.415-2.074 1.172-2.83 1.51-1.509 4.145-1.51 5.657.002a3.98 3.98 0 0 1 1.17 2.828 3.98 3.98 0 0 1-1.17 2.828l-.002.001a3.98 3.98 0 0 1-2.828 1.17M13.334 37.98c-.357 0-.691.14-.943.391-.252.252-.39.587-.39.943s.138.69.39.943c.504.504 1.383.504 1.885 0 .252-.252.39-.587.39-.943s-.138-.69-.39-.943a1.32 1.32 0 0 0-.942-.39m0 5.334a3.98 3.98 0 0 1-2.83-1.172 3.97 3.97 0 0 1-1.17-2.828c0-1.068.415-2.073 1.172-2.83 1.51-1.509 4.145-1.51 5.657.002a3.98 3.98 0 0 1 1.17 2.828 3.98 3.98 0 0 1-1.17 2.828l-.002.001a3.98 3.98 0 0 1-2.828 1.171M13.334 16.648c-.357 0-.691.138-.943.39s-.39.587-.39.943.138.69.39.943c.504.504 1.383.504 1.885 0 .252-.252.39-.587.39-.943s-.138-.69-.39-.943a1.32 1.32 0 0 0-.942-.39m0 5.333a3.98 3.98 0 0 1-2.83-1.172 3.97 3.97 0 0 1-1.17-2.828c0-1.068.415-2.073 1.172-2.83 1.51-1.509 4.145-1.51 5.657.002a3.98 3.98 0 0 1 1.17 2.828 3.98 3.98 0 0 1-1.17 2.828l-.002.001a3.98 3.98 0 0 1-2.828 1.17M26.666 3.314c-.356 0-.69.14-.943.391-.252.252-.39.587-.39.943s.138.69.39.942c.503.504 1.383.504 1.886 0 .252-.252.39-.586.39-.942s-.138-.69-.39-.943a1.32 1.32 0 0 0-.943-.39m0 5.334a3.98 3.98 0 0 1-2.828-1.17l-.001-.002a3.98 3.98 0 0 1-1.171-2.828c0-1.068.416-2.074 1.172-2.83 1.51-1.509 4.145-1.51 5.657.002a3.98 3.98 0 0 1 1.17 2.828 3.98 3.98 0 0 1-1.171 2.83 3.97 3.97 0 0 1-2.828 1.17M26.666 37.98c-.356 0-.69.14-.943.391-.252.252-.39.587-.39.943s.138.69.39.943c.503.504 1.383.504 1.886 0 .252-.252.39-.587.39-.943s-.138-.69-.39-.943a1.32 1.32 0 0 0-.943-.39m0 5.334a3.98 3.98 0 0 1-2.828-1.17l-.001-.002a3.97 3.97 0 0 1-1.171-2.828c0-1.068.416-2.073 1.172-2.83 1.51-1.509 4.145-1.51 5.657.002a3.98 3.98 0 0 1 1.17 2.828 3.98 3.98 0 0 1-1.171 2.83 3.98 3.98 0 0 1-2.828 1.17M26.666 16.648c-.356 0-.69.138-.943.39-.252.252-.39.587-.39.943s.138.69.39.943c.503.504 1.383.504 1.886 0 .252-.252.39-.587.39-.943s-.138-.69-.39-.943a1.32 1.32 0 0 0-.943-.39m0 5.333a3.98 3.98 0 0 1-2.828-1.17l-.001-.002a3.97 3.97 0 0 1-1.171-2.828c0-1.068.416-2.073 1.172-2.83 1.51-1.509 4.145-1.51 5.657.002a3.98 3.98 0 0 1 1.17 2.828 3.98 3.98 0 0 1-1.171 2.83 3.98 3.98 0 0 1-2.828 1.17" clip-rule="evenodd"/></svg>