<svg xmlns="http://www.w3.org/2000/svg" width="44" height="49" fill="none"><g clip-path="url(#a)"><path fill="#ECF0F6" d="M21.716 48.787c11.994 0 21.716-9.722 21.716-21.716 0-11.993-9.722-21.716-21.716-21.716C9.723 5.355 0 15.078 0 27.071s9.723 21.716 21.716 21.716"/><path fill="#fff" d="M31.792 14.877c-.083.073.019.2.051.214.033.014.141.054.206 0a.11.11 0 0 0 .03-.132.1.1 0 0 0-.03-.038c-.065-.065-.177-.13-.257-.044M31.333 7.74a.224.224 0 0 0 .26.167h.026c.077.02.16.011.231-.026a23 23 0 0 0-.666-.34q.046.121.149.2M32.343 13.307c.126-.048.235-.13.173-.265-.061-.133-.206-.333-.325-.31-.12.02-.134.321-.123.43.01.108.123.199.275.145M32.194 10.711a.16.16 0 0 0-.087-.184.23.23 0 0 0-.224.09c-.033.065.05.163.12.185.068.021.177-.011.191-.09M43.429 26.865l-.044.025a.36.36 0 0 0 .022.442h.018v-.275c0-.09.004-.123.004-.192M29.288 7.226a.3.3 0 0 0 .362.257.31.31 0 0 0 .246-.322.306.306 0 0 0-.362-.246.243.243 0 0 0-.246.31M28.52 6.448q.056.071.127.126a.7.7 0 0 1 .12.163c.13.185.278.246.398.16a.25.25 0 0 0 .112-.189q-.376-.135-.756-.26M30.656 10.447c-.072.058-.083.116-.022.185a.11.11 0 0 0 .087.06.11.11 0 0 0 .098-.038.11.11 0 0 0 .052-.134.1.1 0 0 0-.027-.044.12.12 0 0 0-.188-.029M31.166 9.448a.51.51 0 0 0-.336-.546.43.43 0 0 0-.326.061.59.59 0 0 0-.152.818q.191.04.387.04a.46.46 0 0 0 .427-.373M33.504 13.632a.66.66 0 0 0 .677.04c.16-.174.13-.362-.08-.565a.33.33 0 0 0-.289-.086.24.24 0 0 0 0-.142.36.36 0 0 0-.412-.246.29.29 0 0 0-.214.34.32.32 0 0 0 .311.28.29.29 0 0 0 .007.38M34.351 11.62c0-.073-.188-.235-.271-.214-.083.022-.163.275-.134.312s.21.206.282.166a.3.3 0 0 0 .123-.264M39.295 18.583h.026a.3.3 0 0 0 .166 0 .34.34 0 0 0 .232-.409.32.32 0 0 0-.156-.18.5.5 0 0 0-.029-.127.38.38 0 0 0-.503-.113.415.415 0 0 0-.231.576c.112.203.358.33.495.253M42.618 25.989c.228-.062.673-.254.503-.655a.53.53 0 0 0-.583-.254.6.6 0 0 0 0-.532.605.605 0 0 0-.756-.203.504.504 0 0 0-.232.634.8.8 0 0 0 .688.308.32.32 0 0 0-.083.228c.021.18-.395.108-.38.361.014.254-.264.362-.214.67s.293.557.529.424c.207-.137.36-.342.43-.58.073-.177-.126-.34.098-.401M38.572 18.967a.36.36 0 0 0-.457-.145.28.28 0 0 0-.155.275.44.44 0 0 0 .025.406.34.34 0 0 0 .587-.283.31.31 0 0 0 0-.253M38.774 24.168c-.126 0-.101.163-.101.228s.105.113.13.098.13-.094.134-.148c.004-.055-.036-.185-.163-.178M38.716 17.693a.9.9 0 0 0-.333-.13c-.173 0-.282.22-.228.409a.275.275 0 0 0 .362.18.36.36 0 0 0 .2-.459M29.197 9.886c.09.084.2.156.323.051a.33.33 0 0 0 0-.456.9.9 0 0 0-.315.09.19.19 0 0 0-.008.315M34.876 19.818a.143.143 0 0 0 .098.267c.054-.021.188-.126.137-.206a.21.21 0 0 0-.235-.061M35.984 14.49a.32.32 0 0 0 .438-.211.24.24 0 0 0 0-.1 4 4 0 0 0-.279-.384c.09-.362 0-.662-.214-.724a.63.63 0 0 0-.608.362.5.5 0 0 0-.065-.083.36.36 0 0 0-.449 0 .45.45 0 0 0-.021.492.44.44 0 0 0 .528-.05v-.03c.143.132.32.221.51.257-.029.185-.1.388.16.47M32.455 9.188c-.196-.189-.405-.221-.536-.076a.3.3 0 0 0-.047.076.13.13 0 0 0-.12-.058c-.126 0-.1.163-.1.228s.104.112.13.098l.047-.03a.52.52 0 0 0 .083.362.393.393 0 0 0 .575-.054c.196-.184.185-.333-.032-.546M41.279 21.23a.333.333 0 0 0 .166-.471.286.286 0 0 0-.42-.09c-.123.08-.256.17-.195.307.123.235.3.322.449.253M41.105 22.188a.31.31 0 0 0 0-.362.36.36 0 0 0-.42-.145c-.213.12-.184.33-.177.522.319.144.463.144.597-.015M40.06 19.8a1 1 0 0 0 0 .086.63.63 0 0 0 .65.384c.287-.054.435-.362.363-.724a.444.444 0 0 0-.496-.39.61.61 0 0 0-.605-.142.55.55 0 0 0-.173.58.4.4 0 0 0 .26.205M40.381 22.912c.055 0 .214-.094.188-.17a.2.2 0 0 0-.191-.098c-.066 0-.192.069-.17.141a.22.22 0 0 0 .173.127M41.565 18.261q-.12-.27-.243-.543a.3.3 0 0 0-.061.022.32.32 0 0 0-.134.16.6.6 0 0 0-.326 0c-.239.046-.362.206-.333.38.03.173.402.455.54.43a.4.4 0 0 0 .325-.39c.07.017.146.008.21-.026zM21.948 8.55c.049.115.132.211.239.276a.6.6 0 0 0 .115.163.597.597 0 0 0 .8-.152.42.42 0 0 0-.061-.62.54.54 0 0 0-.391-.144.36.36 0 0 0-.481-.094.41.41 0 0 0-.221.572M42.191 19.944a.4.4 0 0 0 0 .127.23.23 0 0 0 .134.202 21 21 0 0 0-.445-1.23.478.478 0 0 0 .311.901M24.76 5.988c0 .067.024.131.069.181a.49.49 0 0 0 .496.036s.018-.032.029-.047a.54.54 0 0 0 .22-.456c-.257-.047-.51-.09-.77-.126a.34.34 0 0 0-.091.336.3.3 0 0 0 .047.076M22.158 6.05c.098.061.293.231.427.094.134-.138-.03-.34-.083-.446-.055-.105-.236-.1-.362 0-.127.102-.123.268.018.352M35.723 11.508c-.268.058-.362.173-.337.362.055.264.247.416.453.362a.67.67 0 0 0 .304-.533c-.025-.17-.177-.242-.42-.191M39.657 16.115a.326.326 0 0 0-.326.405.36.36 0 0 0 .312.279.393.393 0 0 0 .311-.47.256.256 0 0 0-.297-.214M22.838 5.782a.485.485 0 0 0 .587.242.4.4 0 0 0 .133-.083q.023.068.073.12c.12.115.564.025.698-.138a.42.42 0 0 0 0-.405 21 21 0 0 0-1.447-.13.58.58 0 0 0-.044.394M25.517 8.692a.2.2 0 0 0 0 .069.72.72 0 0 0-.525.199.3.3 0 0 0 .058.427.434.434 0 0 0 .615.043.52.52 0 0 0 .127-.409.29.29 0 0 0 .278-.152c.112-.18-.021-.33-.145-.485-.184.047-.383.058-.409.308M26.114 10.342a.57.57 0 0 0-.666-.126.55.55 0 0 0-.04.724.4.4 0 0 0 .304.115.29.29 0 0 0-.025.272.333.333 0 0 0 .434.177.31.31 0 0 0 .18-.43.3.3 0 0 0-.176-.16h.025a.384.384 0 0 0-.036-.572M42.756 21.67c-.062-.238-.13-.474-.2-.723a.4.4 0 0 0-.1.145.36.36 0 0 0-.185.04s-.019 0-.026.021c-.427.025-.528.308-.304.804a1 1 0 0 1-.072.094.275.275 0 0 0-.04.362.29.29 0 0 0 .304.155c.337 0 .442-.112.416-.449v-.296a.15.15 0 0 0 .069 0 .34.34 0 0 0 .138-.152M40.559 16.488a.17.17 0 0 0 .068.101.286.286 0 0 0-.195.326v.029a.66.66 0 0 0-.257.597.403.403 0 0 0 .59.17.315.315 0 0 0 .184-.311.9.9 0 0 0 .221.029q-.284-.574-.6-1.126a.7.7 0 0 0-.011.185M34.811 11.298c.206 0 .402.09.496-.123a.32.32 0 0 0-.109-.398.3.3 0 0 0-.09-.055.48.48 0 0 0 0-.322.44.44 0 0 0-.485-.043.227.227 0 0 0-.036.362q.081.11.195.184a.53.53 0 0 0 .029.395M35.89 12.98a.23.23 0 0 0 .361 0 .42.42 0 0 0 .077-.55.495.495 0 0 0-.562-.04c-.137.12-.09.403.124.59M26.75 6.32a.36.36 0 0 0 .446.178.29.29 0 0 0 .16-.362.2.2 0 0 1-.023-.04l-.477-.119a.36.36 0 0 0-.105.344M26.573 12.061a.36.36 0 0 0-.202-.18.564.564 0 0 0-.724.325c-.03.062-.054.123-.083.188a4 4 0 0 0-.34-.159.295.295 0 0 0-.37.048.3.3 0 0 0-.069.115.47.47 0 0 0 .044.54.36.36 0 0 0 .336.137.3.3 0 0 0 .123.188c.192.076.362-.123.362-.228a.18.18 0 0 0-.061-.138l.083-.05c.058.025.12.058.181.08a.62.62 0 0 0 .67-.164.72.72 0 0 0 .05-.702M24.702 8.221a.66.66 0 0 0 .337-.59.517.517 0 0 0-.13-.695.605.605 0 0 0-.775 0 .326.326 0 0 0-.402-.134.304.304 0 0 0-.123.42.26.26 0 0 0 .362.141.83.83 0 0 0 .217.507q.045.042.098.072a.2.2 0 0 0 0 .04.34.34 0 0 0 .416.24M24.264 8.497a.32.32 0 0 0-.08.267c.022.076.167.243.265.218.098-.026.137-.247.13-.333a.22.22 0 0 0-.218-.176.2.2 0 0 0-.097.023M24.094 10.172a.43.43 0 0 0-.264-.12.3.3 0 0 0-.047-.043c-.489-.036-.34-.362-.677-.492a.5.5 0 0 0-.163-.022.395.395 0 0 0-.318.641q.188.27.441.481a.45.45 0 0 0 .319.084q.021.046.054.086c.156.17.362.149.565-.058a.48.48 0 0 0 .09-.557M26.559 7.544a.564.564 0 0 0 .043-.778.9.9 0 0 0-.933 0 .58.58 0 0 0 .061.782.67.67 0 0 0 .829-.004M25.643 14.096a.263.263 0 0 0 .434.162.276.276 0 0 0-.188-.434.286.286 0 0 0-.246.272M23.732 11.783a.09.09 0 0 0-.06.084.1.1 0 0 0 .006.035.1.1 0 0 0 .12.04c.028 0 .043-.087.032-.109a.09.09 0 0 0-.098-.05M27.428 12.525c0 .155.108.195.43.159a.271.271 0 0 0-.188-.434.28.28 0 0 0-.243.275M16.91 10.65a.337.337 0 0 0-.42-.224.31.31 0 0 0-.141.416.286.286 0 0 0 .362.184.28.28 0 0 0 .199-.376M16.494 15.786a.15.15 0 0 0-.08.155c.022.055.134.076.195.073.062-.004.149-.098.12-.181-.03-.083-.17-.065-.235-.047M17.478 11.142a.52.52 0 0 0 .557-.069.41.41 0 0 0 .04-.496.58.58 0 0 0 .3-.67.59.59 0 0 0-.48-.408.44.44 0 0 0 .133-.344c0-.42-.25-.659-.51-.67a.7.7 0 0 0-.521.333.28.28 0 0 0-.344-.137.33.33 0 0 0-.16.405.306.306 0 0 0 .388.2l.054-.026a.57.57 0 0 0 .47.384h.04a.54.54 0 0 0-.08.59q.046.127.13.231a.28.28 0 0 0-.187.116.41.41 0 0 0 .17.561M34.547 24.816a.3.3 0 0 0 .402.17.315.315 0 0 0 .166-.362.31.31 0 0 0-.413-.155.243.243 0 0 0-.155.347M33.001 12.257a.53.53 0 0 0 .66-.156c.148-.17.115-.362-.08-.554a.7.7 0 0 0 0-.148c-.058-.239-.258-.33-.554-.25a.43.43 0 0 0-.279.438.56.56 0 0 0 .188.257.54.54 0 0 0 .065.413M7.521 12.648c-.08.033-.268.166-.195.337.072.17.278.094.343.061a.3.3 0 0 0 .127-.246.192.192 0 0 0-.275-.152M34.923 22.72a.23.23 0 0 0 .098-.177c0-.043-.152-.156-.199-.134s-.062.185-.047.246c.014.062.13.083.148.065M17.666 6.419a1 1 0 0 0-.127.061.28.28 0 0 0-.188-.239c-.14-.058-.29-.04-.362.109a.5.5 0 0 0 0 .362.24.24 0 0 0 .246.116.87.87 0 0 0 .163.676.63.63 0 0 0 .898.189c.195-.105.416-.037.554-.214a.93.93 0 0 0 .054-1.122.74.74 0 0 0-.619-.362c-.264-.003-.344.319-.619.424M35.256 21.87c0 .022.062.058.098.04a.09.09 0 0 0 .052-.05.09.09 0 0 0-.005-.073.08.08 0 0 0-.087-.036c.018-.08 0-.163.018-.225.102-.268-.058-.63-.293-.659a.46.46 0 0 0-.478.254.36.36 0 0 0 .098.478c.12.101.304.362.521.293a.3.3 0 0 0 .076-.022M29.7 16.19c-.036 0-.159.073-.144.16.014.087.163.09.224.083a.16.16 0 0 0 .101-.14c.004-.059-.119-.095-.18-.102M31.025 14.45c.055 0 .2-.094.188-.166-.01-.073-.177-.123-.228-.113a.1.1 0 0 0-.047.022.19.19 0 0 0-.253-.054c-.185.112-.42.18-.507.434q.061.138.12.282c-.145.247-.167.522-.033.623a.28.28 0 0 0 .362 0c.214-.152.232-.26.12-.546.08-.178.159-.333.213-.496q.031.015.065.014M28.984 9.473a.635.635 0 0 0-.33-.789c-.036-.08-.119-.188-.184-.184a.1.1 0 0 0-.054.022.5.5 0 0 0-.333-.192.94.94 0 0 0-.934.63.75.75 0 0 0 .08.723c.152.214.47.098.705.243.569.326.894-.04 1.05-.453M29.947 12.069a.2.2 0 0 0 0-.087c-.033-.094-.185-.308-.268-.286h-.018a.2.2 0 0 1-.084-.101c-.072-.156-.18-.167-.362-.134-.18.032-.448.09-.394.336s.22.246.297.225c.076-.022.213.05.145.101-.07.05-.087.16.036.337a.327.327 0 0 0 .463.13.456.456 0 0 0 .185-.521M28.076 13.661c-.037.05-.105.127-.037.203a.11.11 0 0 0 .133.03.1.1 0 0 0 .037-.03c.044-.044.138-.167.076-.232-.061-.065-.21-.003-.21.03M13.026 16.325a.88.88 0 0 0 .387-.84.59.59 0 0 0-.76-.293.66.66 0 0 0-.344.746.6.6 0 0 0 .717.387M10.138 11.526c.108.054.423-.384.387-.514s-.344-.13-.518.036c-.173.166.022.423.13.477M12.324 12.344c.094.148.152.362.402.297a.29.29 0 0 0 .239-.33.36.36 0 0 0-.167-.239c-.16-.09-.286.004-.474.272M12.476 10.567a.32.32 0 0 0-.214.387.36.36 0 0 0 .42.232.31.31 0 0 0 .174-.402.315.315 0 0 0-.38-.217M19.027 5.952a.21.21 0 0 0-.033-.213c-.054-.044-.166-.116-.213-.058a.21.21 0 0 0 0 .217c.033.043.199.116.246.054M8.317 11.312a.32.32 0 0 0 .29.286c.184-.018.318-.42.217-.514s-.51.047-.507.228M8.962 10.259c-.03.065.065.155.119.177s.2 0 .228-.098c.029-.097-.112-.173-.16-.177a.2.2 0 0 0-.187.098M10.836 13.752a.524.524 0 0 0 .28-.652.57.57 0 0 0-.754-.362.45.45 0 0 0-.311.576.72.72 0 0 0 .785.438M10.34 15.265c.062-.065-.032-.26-.086-.293a.24.24 0 0 0-.228.054.26.26 0 0 0 .029.239.29.29 0 0 0 .286 0M10.674 9.119c-.062-.127-.156-.206-.29-.17-.345.067-.66.24-.905.492a.5.5 0 0 0-.072.148.395.395 0 0 0 .51.503q.315-.094.594-.267a.615.615 0 0 0 .163-.706M18.937 9.543a.32.32 0 0 0 .206-.395.336.336 0 0 0-.402-.192.268.268 0 0 0-.18.362.296.296 0 0 0 .375.225M17.985 15.319c.061-.174.065-.109.253-.142s.423-.191.264-.488a.633.633 0 0 0-.814-.203.74.74 0 0 0-.21.97c.155.207.463.036.507-.137M15.408 6.354a1 1 0 0 0 .061-.033.63.63 0 0 0-.029.532q.041.094.109.17a.82.82 0 0 0-.67.384.6.6 0 0 0 .26.673c.16.105.316.17.316.416 0 .178.173.218.344.203.152-.185.133-.362-.03-.46q.145-.255.243-.532a.72.72 0 0 0-.206-.546.66.66 0 0 0 .39-.069c.399-.192.471-.362.362-.724a.56.56 0 0 0-.325-.326q-.5.13-.988.283c.049.029.107.04.163.029M18.303 12.279a.63.63 0 0 0-.644.09c-.12.127-.25.257-.116.46.101.148.177.311.264.467a.26.26 0 0 0 .337.25.337.337 0 0 0 .246-.406.9.9 0 0 1 0-.337.45.45 0 0 0-.087-.524M15.719 12.217a.9.9 0 0 0 .17-.235.31.31 0 0 0-.413-.17c-.13.065-.108.17-.072.274s.203.218.315.13M15.976 13.603a.9.9 0 0 0 .17-.235.307.307 0 0 0-.413-.17c-.13.065-.108.17-.072.275s.203.217.315.13M13.764 11.5a.417.417 0 0 0-.246.565c.055.188.286.264.55.178a.304.304 0 0 0 .236-.399.65.65 0 0 0-.54-.343M14.416 9.999A.307.307 0 0 0 14 9.85a.6.6 0 0 0-.098-.293.57.57 0 0 1-.134-.405.65.65 0 0 0-.3-.55.56.56 0 0 0-.616 0l-.05.032a.52.52 0 0 0 .018-.387c-.073-.181-.3-.24-.565-.141-.199.076-.362.318-.297.47a.58.58 0 0 0 .601.322.2.2 0 0 0 .08-.04.6.6 0 0 0 0 .261.98.98 0 0 0 .362.572q.097.088.134.214a.402.402 0 0 0 .582.333.24.24 0 0 0 0 .115.36.36 0 0 0 .442.102.363.363 0 0 0 .257-.456M15.864 10.215a.63.63 0 0 0 .253-.723.363.363 0 0 0-.5-.192.394.394 0 0 0-.25.582c.095.254.33.406.497.333M40.432 28.214a.33.33 0 0 0 .058-.285c-.033-.07-.239-.189-.315-.145-.076.043-.094.304-.058.333s.264.152.315.097M37.91 16.897a.45.45 0 0 0 .267-.525c-.061-.297-.199-.423-.423-.384a.54.54 0 0 0-.312.207.2.2 0 0 0-.018-.08.337.337 0 0 0-.434-.192.34.34 0 0 0-.141.424.36.36 0 0 0 .427.137.3.3 0 0 0 .065-.043.2.2 0 0 0 0 .08.57.57 0 0 0 .568.376M36.168 29.59a.18.18 0 0 0 .14-.21.2.2 0 0 0-.038-.083c-.055-.084-.25-.257-.326-.217s-.109.282-.102.387.167.18.326.123M35.897 19.767a.3.3 0 0 0 .337.232.296.296 0 1 0-.055-.59.38.38 0 0 0-.282.358M36.686 16.973c.087-.047.307-.181.279-.297-.03-.116-.308-.127-.395-.105s-.116.17-.112.257c.003.087.101.22.228.145M36.96 24.943a.33.33 0 0 0 .167-.362c-.047-.101-.242-.123-.401-.047a.174.174 0 0 0-.094.264c.068.112.166.214.329.145M37.327 18.584c-.047-.13-.362-.196-.438-.116a.36.36 0 0 0 0 .318.185.185 0 0 0 .29.12c.104-.069.21-.16.148-.322M36.454 22.79a.28.28 0 0 0 .134-.124.2.2 0 0 0 .065 0 .32.32 0 0 0 .246-.33.27.27 0 0 0-.2-.243.3.3 0 0 0-.11-.006.31.31 0 0 0-.243.33.3.3 0 0 0 .04.119c-.058.036-.167.112-.127.174a.2.2 0 0 0 .195.08M37.486 26.412c.05-.04.108-.123.097-.177s-.08-.17-.199-.134-.061.181-.047.246c.015.065.127.083.149.065M36.07 16.021c.32-.05.572-.315.54-.564a.4.4 0 0 0-.05-.142c.057.037.122.073.173.109a.123.123 0 0 0 .184-.022.36.36 0 0 0-.094-.467.278.278 0 0 0-.398.196.66.66 0 0 0-.52-.232.59.59 0 0 0-.446.645.58.58 0 0 0 .612.477M36.219 22.16a.51.51 0 0 0 .188-.503.318.318 0 0 0-.52-.034.3.3 0 0 0-.016.345c.087.184.228.26.348.192M32.893 10.371a.53.53 0 0 0 .105.565.36.36 0 0 0 .449-.036c.202-.247.235-.493.083-.62a.54.54 0 0 0-.637.091M33.841 16.984a.496.496 0 0 0 .34-.612.52.52 0 0 0-.597-.315.482.482 0 0 0 .257.927M33.258 14.19a.094.094 0 0 0 .073-.11c0-.057-.084-.064-.112-.06-.03.003-.058.079-.047.104a.09.09 0 0 0 .086.065M33.302 9.6a.474.474 0 0 0 .401-.405c.025.076.07.144.13.195a.23.23 0 0 0 .341-.1 21 21 0 0 0-1.212-.8.65.65 0 0 0-.362.654.67.67 0 0 0 .702.456M35.6 18.225c-.047-.101-.21-.34-.318-.311s-.16.3-.167.416.181.21.315.167c.134-.044.246-.141.17-.272M35.676 17.432c-.018-.09-.304-.318-.449-.257-.144.062-.094.438-.036.558a.36.36 0 0 0 .38.145c.138-.062.134-.315.105-.446M34.446 15.214a.31.31 0 0 0 .3-.26.26.26 0 0 0 .228-.087.23.23 0 0 0 .052-.252.2.2 0 0 0-.052-.074.24.24 0 0 0-.362-.043.25.25 0 0 0-.069.097.45.45 0 0 0-.304-.101.36.36 0 0 0-.293.362.44.44 0 0 0 .5.358M33.888 19.416c.026 0 .123-.087.116-.116s-.04-.188-.145-.192c-.105-.003-.13.145-.12.174.031.062.084.11.15.134M34.203 26.687c.076-.029.116-.246.087-.293s-.167-.173-.235-.155c-.07.018-.134.18-.12.253.015.072.188.228.268.195M38.405 24.288a.246.246 0 0 0 .167-.362.275.275 0 0 0-.337-.149c-.127.03-.228.362-.134.435a.36.36 0 0 0 .304.076M41.228 33.26a.496.496 0 0 0 .192-.673.52.52 0 0 0-.655-.167.482.482 0 0 0 .463.84M42.079 28.178a.68.68 0 0 0 .17-.59c-.062-.162-.228-.195-.453-.09-.224.105-.325.257-.242.434a.387.387 0 0 0 .525.246M41.634 31.02a.514.514 0 0 0-.58-.279.36.36 0 0 0-.199.438.45.45 0 0 0 .554.22.3.3 0 0 0 .225-.38M43.342 28.993c0-.083 0-.163.018-.242a.28.28 0 0 0-.018.242M42.48 29.898c0 .206 0 .42.261.441a.32.32 0 0 0 .362-.206.24.24 0 0 0 0-.196 4 4 0 0 0-.362-.31c0-.385-.145-.649-.362-.652a.63.63 0 0 0-.525.542c-.025.265.098.344.626.38M42.752 30.756a.59.59 0 0 0-.282.723.6.6 0 0 0 .434.362c.08-.362.148-.724.21-1.06a.52.52 0 0 0-.362-.025M37.902 31.447c.054 0 .177-.138.145-.206-.033-.07-.2-.084-.246-.058a.18.18 0 0 0-.09.191c.028.073.137.087.191.073M37.218 33.5c-.025-.052-.138-.066-.203-.055-.065.01-.137.105-.105.188s.185.05.243.029a.16.16 0 0 0 .065-.163M22.129 14.476c.116-.033.09-.362.054-.362-.105-.084-.224-.217-.362-.178s-.112.228-.076.28c.036.05.272.3.384.26M41.735 35.323c-.101.026-.094.174-.076.2l.05.039c.033-.076.062-.156.095-.232a.14.14 0 0 0-.07-.007M32.636 19.268a.32.32 0 0 0-.109-.399.243.243 0 0 0-.333 0c-.184.149-.137.33-.054.532.203.008.398.08.496-.133M38.264 22.724c-.076.069-.167.149-.152.246.014.098.29.218.423.138.134-.08.098-.178.055-.279s-.218-.203-.326-.105M38.325 21.508a.53.53 0 0 0 .28.026.43.43 0 0 0 .285-.514c-.043-.221-.17-.319-.362-.286a.6.6 0 0 0-.152.054.32.32 0 0 0-.279 0 .55.55 0 0 0-.26.593c.054.105.286.16.488.127M38.999 26.202a.56.56 0 0 0 .231-.796.507.507 0 0 0-.695-.286.64.64 0 0 0-.31.796.67.67 0 0 0 .774.286M39.563 28.555a.535.535 0 0 0 .094-.648c-.112-.217-.325-.26-.597-.116a.43.43 0 0 0-.17.493c.101.159.532.347.673.271M38.933 30.028c.116-.076.203-.181.113-.3-.09-.12-.279-.272-.391-.221-.112.05-.055.34-.018.445a.18.18 0 0 0 .296.076M28.054 7.638a.56.56 0 0 0 .63-.361.6.6 0 0 0-.243-.5.7.7 0 0 0-.018-.145.185.185 0 0 0-.279-.137c-.097.047-.18.105-.195.21a.54.54 0 0 0-.362.362c-.09.21.17.448.467.571M40.106 29.691a.36.36 0 0 0 .156-.42.36.36 0 0 0-.46-.144.29.29 0 0 0-.127.362.31.31 0 0 0 .431.202M40.58 35.761a.31.31 0 0 0-.195-.362.24.24 0 0 0-.326.065c-.145.189-.058.362.069.532.203-.029.409-.003.452-.235M40.02 30.676a.094.094 0 0 0 .046-.123.1.1 0 0 0-.123-.033c-.029 0-.036.09-.025.112s.058.062.101.044M40.02 21.642a.5.5 0 0 0-.11-.362c-.18-.16-.314.022-.473.134.054.232.126.416.362.402a.3.3 0 0 0 .22-.174M43.255 24.335l-.044.04.077.173c-.011-.083-.011-.148-.033-.213M39.252 24.418a.49.49 0 0 0 .33-.181.144.144 0 0 0-.009-.183.14.14 0 0 0-.053-.038.32.32 0 0 0-.26.058c-.084.04-.17.061-.21.152-.04.09.068.199.202.192M41.254 25.862a.57.57 0 0 0-.225-.662c-.188-.123-.5.069-.68.33a.554.554 0 0 0 .195.694.576.576 0 0 0 .71-.362M39.241 23.122a.196.196 0 0 0-.101.217.16.16 0 0 0 .18.134.184.184 0 0 0 .142-.22.19.19 0 0 0-.149-.143.2.2 0 0 0-.072.001zM41.648 23.332a.3.3 0 0 0 .09-.076.1.1 0 0 0 .037 0c.09-.036.21-.177.199-.253s-.069-.116-.127-.16a.2.2 0 0 0-.025-.076.57.57 0 0 0-.601-.133.29.29 0 0 0-.109.42c.152.296.322.383.536.278M41.315 27.27a.32.32 0 0 0-.195-.362.24.24 0 0 0-.326.065c-.145.188-.058.362.069.532.202-.029.409-.003.452-.235M42.886 22.478a.52.52 0 0 1-.485.307.49.49 0 0 0-.319.471.64.64 0 0 0 .55.362c.145 0 .344 0 .363-.206a.55.55 0 0 1 .083-.25c-.047-.243-.094-.489-.145-.724-.018.007-.04.015-.047.04M41.377 23.951a5 5 0 0 0-.496-.438.272.272 0 0 0-.402.065.287.287 0 0 0 .036.406q.1.099.167.22a.445.445 0 0 0 .524.272c.232-.043.315-.214.17-.525M39.954 25.232a.33.33 0 0 0 .21-.199c.04-.213-.138-.257-.293-.307-.163.108-.253.242-.149.412a.25.25 0 0 0 .232.094M34.608 12.608a.66.66 0 0 1 .406-.141c.068 0 .155-.16.159-.246a.36.36 0 0 0-.148-.265.29.29 0 0 0-.254.044 2.5 2.5 0 0 0-.362.326c-.094.101-.072.195.044.293.05 0 .137.018.155-.011M32.035 16.05c.148-.134.174-.416.043-.503-.13-.087-.582.156-.593.337-.011.18.402.3.55.166M35.191 10.045l-.54-.42a.47.47 0 0 0 .146.362.52.52 0 0 0 .394.058M30.366 7.165h.026l-.264-.116a.3.3 0 0 0 .238.116M38.344 13.107q-.463-.543-.963-1.085a.6.6 0 0 0-.03.119c0 .144.033.286.095.416q.063.129.17.225.102.1.214.191a.45.45 0 0 0 .514.134M38.872 17.049a.31.31 0 0 0 .184-.398.242.242 0 0 0-.361-.17.3.3 0 0 0-.2.39.31.31 0 0 0 .377.178M37.403 13.7a.464.464 0 0 0 .361-.484.39.39 0 0 0-.361-.318c-.312.036-.533.228-.504.43a.52.52 0 0 0 .504.373M38.832 14.476a.72.72 0 0 0 .272.781.72.72 0 0 0 .77-.094 21 21 0 0 0-1.378-1.878l-.109.036a.427.427 0 0 0-.174.684q.285.268.62.47M37.783 14.747c.076 0 .177-.112.217-.2a.26.26 0 0 0-.065-.235c-.163-.119-.308-.054-.435.105.04.156.069.34.283.33M36.664 11.323q-.46-.436-.948-.85v.05c-.018.3.155.605.409.54q.045.067.101.126a.54.54 0 0 0 .438.134M22.379 11.899c.148-.123.108-.41-.084-.623a.36.36 0 0 0-.449 0 .44.44 0 0 0-.068.554.495.495 0 0 0 .6.069M21.742 9.919c.123-.116-.018-.485-.152-.481-.134.003-.33.318-.218.445a.29.29 0 0 0 .37.036M22.527 12.865a.605.605 0 0 0 .293-.702.44.44 0 0 0-.572-.163.414.414 0 0 0-.228.575c.102.246.326.373.507.29M21.445 7.505a.29.29 0 0 0-.203-.322c-.239-.083-.326.108-.416.278l-.319-.076c0-.032 0-.057.018-.086a1 1 0 0 0 .138-.098c.192-.163.395-.315.59-.47.315.34.362.336.593 0 .09.03.189.03.28 0a.275.275 0 0 0 .162-.363.416.416 0 0 0-.478-.29.34.34 0 0 0-.239.41.5.5 0 0 0-.191.025c-.294-.496-.626-.46-.934.073a1 1 0 0 1-.116 0 .235.235 0 0 0-.271.1.47.47 0 0 0-.308.102.455.455 0 0 0 .08.561l.166.181a1 1 0 0 0-.094.565q-.065.03-.127.069a.56.56 0 0 0-.09.723.58.58 0 0 0 .796-.057.63.63 0 0 0 .141-.446l.08-.021c.315-.098.362-.34.33-.623.166-.025.386.022.412-.235M20.945 12.174a.295.295 0 0 0 .21-.362.307.307 0 0 0-.387-.2.36.36 0 0 0-.217.395.304.304 0 0 0 .394.167"/><path fill="#fff" d="M26.653 8.424a.3.3 0 0 0-.362-.206.32.32 0 0 0-.213.387.243.243 0 0 0 .34.192.293.293 0 0 0 .235-.373M31.724 12.706a.3.3 0 0 0 .101-.253.5.5 0 0 0-.032-.294.66.66 0 0 0-.464-.322.47.47 0 0 0-.456.225.41.41 0 0 0 0 .42.49.49 0 0 0 .38.267c.178 0 .37.07.47-.043M30.348 8.04a.61.61 0 0 0-.361-.296.34.34 0 0 0-.33-.116c-.09.032-.127.141-.141.253a.583.583 0 0 0-.174.757.724.724 0 0 0 .869.123.55.55 0 0 0 .137-.72M26.823 10.534c.21.08.362-.058.453-.25-.062-.166-.134-.336-.363-.325a.27.27 0 0 0-.27.296.36.36 0 0 0 .18.279M11.788 10.632a.36.36 0 0 0 .315-.105.362.362 0 0 0-.17-.532.315.315 0 0 0-.384.362.42.42 0 0 0 .24.275M14.883 14.215c.054-.022.13-.108.108-.18a.174.174 0 0 0-.191-.088c-.051 0-.185.123-.16.196.026.072.196.094.243.072M13.66 7.179c.267-.098.416-.26.409-.434-.25.094-.496.188-.743.293a.254.254 0 0 0 .333.14M20.113 5.977a.64.64 0 0 0 .869-.155.68.68 0 0 0 .13-.453c-.413 0-.825.033-1.23.065a.7.7 0 0 0 .23.543M20.475 9.637a.3.3 0 0 0 .04.032.36.36 0 0 0 .296.033c.214-.116.189-.308.084-.532a1.1 1.1 0 0 0-.323 0h-.036c-.069 0-.206.047-.22.101a.4.4 0 0 0 .032.322q.055.045.127.044M14.061 7.79a.36.36 0 0 0 .188-.43.36.36 0 0 0-.452-.16.32.32 0 0 0-.17.406.34.34 0 0 0 .434.184M20.113 11.048a.308.308 0 0 0-.424-.188.36.36 0 0 0-.14.46.34.34 0 0 0 .423.14.3.3 0 0 0 .14-.412M20.247 14.787c.076-.025.072-.181.061-.243-.01-.061-.087-.104-.145-.08a.23.23 0 0 0-.108.171c.004.047.112.174.192.152M19.628 7.233c.069-.065.05-.22.065-.304-.167-.159-.286-.112-.362-.025s-.145.232-.018.315a.36.36 0 0 0 .315.014M19.69 12.822a.2.2 0 0 0 .194-.163.2.2 0 0 0-.003-.09c-.032-.149-.217-.287-.326-.214-.108.072-.296.224-.235.362.062.137.272.116.37.105"/><path fill="#20377D" d="M31.137 20.09h-19.23v14.774h19.23z"/><path fill="#00BFB3" d="M34.196 22.597H8.853v15.136h25.343z"/><path fill="#7DE2D1" d="m15.516 27.632-.362-1.028a1.545 1.545 0 0 0-1.516-1.256H8.382a1.55 1.55 0 0 0-1.523 1.245l-.362 1.032h.018v17.774h30.04V29.264a1.63 1.63 0 0 0-1.635-1.632z"/><path fill="#42D4C6" d="M25.43 40.314q-.191.181-.326.41a.5.5 0 0 0 .141.56.2.2 0 0 0 .271 0c.221-.175.383-.414.464-.684a.5.5 0 0 0 0-.13.315.315 0 0 0-.55-.156M8.784 37.73a.23.23 0 0 0 0 .326.3.3 0 0 0 .225.072c.144-.022.18-.13.17-.405-.127-.044-.264-.152-.395.007M25.042 44.024a.514.514 0 0 0 .655-.062.41.41 0 0 0 0-.56.54.54 0 0 0-.69-.07.55.55 0 0 0 .035.692M25.947 37.39a.24.24 0 0 0 0 .22.15.15 0 0 0 .195.048.15.15 0 0 0 .055-.047c.043-.055.127-.218 0-.312s-.217.044-.25.09M25.81 38.765c-.127.08-.073.413.032.442s.344-.217.275-.362a.25.25 0 0 0-.307-.08M25.766 44.752a.49.49 0 0 0 0 .648h.666a.474.474 0 0 0-.691-.637zM29.234 43.322a.24.24 0 0 0-.326.04.36.36 0 0 0-.094.445c.174.2.427.083.553.018s.058-.387-.133-.503M25.708 42.084c-.133.16-.14.34 0 .434a.5.5 0 0 0 .605-.04.36.36 0 0 0-.101-.441.31.31 0 0 0-.504.047M25.904 39.764c-.037 0-.138.083-.127.152.01.069.141.083.177.069a.16.16 0 0 0 .102-.138c-.011-.058-.113-.087-.152-.083M20.93 37.014a.69.69 0 0 0 .033.723.474.474 0 0 0 .648-.068.53.53 0 0 0-.029-.655.48.48 0 0 0-.651 0M20.725 38.421a.14.14 0 0 0 .162-.036c.03-.032.058-.166 0-.199-.058-.032-.17.033-.192.069a.145.145 0 0 0 .03.166M20.518 38.895c-.022 0-.043.13 0 .17.044.04.141-.043.174-.083a.13.13 0 0 0-.03-.138c-.024-.025-.104.019-.144.051M20.377 39.37a.14.14 0 0 0 .167 0c.032-.03.083-.156.04-.2-.044-.043-.17 0-.2.037a.15.15 0 0 0-.007.163M20.25 42.479a.27.27 0 0 0 .293.058.3.3 0 0 0 .087-.058.253.253 0 0 0-.05-.362.24.24 0 0 0-.322 0 .225.225 0 0 0-.008.362M24.423 44.61a.24.24 0 0 0-.188-.097.3.3 0 0 0-.177.04.2.2 0 0 0-.058-.091c-.127-.094-.362-.073-.402.047s.21.43.362.412a.06.06 0 0 0 .04 0q.082.093.177.17a.6.6 0 0 0 .265-.18.4.4 0 0 0 .1.173.524.524 0 0 0 .66-.032.384.384 0 0 0 0-.55.47.47 0 0 0-.67-.047.4.4 0 0 0-.109.155M21.687 40.307a.242.242 0 0 0-.021.362.51.51 0 0 0 .51.043.334.334 0 0 0-.03-.488c-.111-.109-.303-.076-.459.083"/><path fill="#42D4C6" d="M20.93 41.628a.333.333 0 0 0-.455.032.39.39 0 0 0 .054.45c.127.083.34 0 .456-.193a.185.185 0 0 0-.054-.29M20.732 42.67c0-.05-.149-.097-.221-.086a.32.32 0 0 0-.185.155.25.25 0 0 0 .073.196q.145.126.311.224c.094.062.166.025.224-.08 0-.029 0-.09-.032-.108a.54.54 0 0 1-.17-.3M20.837 41.129c.068-.094 0-.163-.051-.225a.17.17 0 0 0-.217-.032.2.2 0 0 0-.054.058.8.8 0 0 0-.033.228.25.25 0 0 0 .278.033.3.3 0 0 0 .077-.062M16.66 43.271a.205.205 0 0 0-.014.25.2.2 0 0 0 .065.062.25.25 0 0 0 .286.027.225.225 0 0 0 .076-.328.2.2 0 0 0 .112-.061.29.29 0 0 0 0-.362.24.24 0 0 0-.362 0 .23.23 0 0 0-.04.304.24.24 0 0 0-.123.108M22.075 43.47a.15.15 0 0 0-.163-.08.38.38 0 0 0-.109-.25c-.16-.1-.311-.046-.427.15-.116.195-.044.307.152.423a.29.29 0 0 0 .3 0 .26.26 0 0 0 .116.047q-.009.234.026.467a.55.55 0 0 0 .343.31.5.5 0 0 0-.253.193c-.21.282-.199.43 0 .633l.036.018h.55a.7.7 0 0 0 .17-.163.6.6 0 0 0 0 .163h.63a.36.36 0 0 0-.12-.362.333.333 0 0 0-.437-.047l-.033.047a.495.495 0 0 0-.315-.47.65.65 0 0 0 .337-.518.47.47 0 0 0-.43-.383c-.164-.004-.283.007-.373-.178M22.697 42.616a.196.196 0 0 0-.076-.278.18.18 0 0 0-.257.047.19.19 0 0 0-.046.218.2.2 0 0 0 .046.064.225.225 0 0 0 .333-.05M23.323 43.47a.275.275 0 0 0 .026.362.296.296 0 0 0 .38-.05.257.257 0 0 0-.03-.362.275.275 0 0 0-.376.05M15.444 42.963a.485.485 0 0 0 .047.605.36.36 0 0 0 .467-.09.33.33 0 0 0 .058-.363.2.2 0 0 0 .058.044.36.36 0 0 0 .423-.196c.116-.21.069-.362-.152-.485a.36.36 0 0 0-.467.051.51.51 0 0 0 .033.449.325.325 0 0 0-.467-.015M14.38 45.385c0-.065.405-.134.52-.41a.72.72 0 0 0-.314-.774 1.3 1.3 0 0 0-.282-.101v-.04c-.098-.156-.225-.047-.312-.061-.228-.037-.485.144-.47.336a.36.36 0 0 0 .137.257c0 .224.221.489.185.568 0 0-.032.033-.061.047a.27.27 0 0 0-.362.033.23.23 0 0 0-.058.145h1.05s-.037.003-.033 0M23.732 44.274a.334.334 0 1 0 .402-.522.202.202 0 0 0-.311 0c-.17.2-.203.402-.09.522M16.537 40.959a.17.17 0 0 0 0-.163c-.018-.03-.141-.08-.188-.036-.047.043 0 .155.043.195.044.04.102.043.145.004M15.183 43.514a.195.195 0 0 0-.282.083.36.36 0 0 0-.022.297.267.267 0 0 0 .413.061.8.8 0 0 1-.123.254.29.29 0 0 0 0 .242q.077.163.126.337a.3.3 0 0 0 .16.18.5.5 0 0 0-.058.102.36.36 0 0 0 .036.293.5.5 0 0 0-.217.037h1.277a.3.3 0 0 0 .055-.247.36.36 0 0 0 .3-.108l.047.032a.42.42 0 0 0 .38-.025.1.1 0 0 0 .08 0 .17.17 0 0 0 .065-.112l.05-.05a.51.51 0 0 0-.13-.62.5.5 0 0 0-.528 0 .484.484 0 0 0-.586.141.53.53 0 0 0-.055.442 3 3 0 0 0-.275-.09.4.4 0 0 0 0-.134 1.7 1.7 0 0 0-.163-.312l.13-.14a.25.25 0 0 0 .04-.301.36.36 0 0 0-.362-.16.24.24 0 0 0-.199.08.33.33 0 0 0-.159-.282M19.75 44.144a1 1 0 0 0-.133-.058.3.3 0 0 0-.036-.051.235.235 0 0 0-.362-.025.254.254 0 0 0 0 .362h.018a.42.42 0 0 0 .177.282.43.43 0 0 0 .427-.167.286.286 0 0 0-.09-.343"/><path fill="#42D4C6" d="M14.98 44.068a.08.08 0 0 0-.1 0c-.019 0 0 .08 0 .09a.07.07 0 0 0 .086 0 .08.08 0 0 0 .015-.09M23.218 44.603a.09.09 0 0 0-.13.036c-.018.048-.054.145 0 .2.054.054.152-.047.155-.076.004-.03.04-.12-.025-.16M18.216 44.878c.055 0 .13-.108.12-.152a.33.33 0 0 0-.138-.217c-.14-.054-.203.072-.26.17.04.152.126.24.278.2M18.918 44.74a.46.46 0 0 0-.546.334.5.5 0 0 0 .047.326h.724a.3.3 0 0 0 0-.145.456.456 0 0 0-.225-.514M18.365 43.832c-.196-.069-.344-.05-.384.04a.4.4 0 0 0 .17.391c.09.043.293-.065.344-.181a.19.19 0 0 0-.058-.216.2.2 0 0 0-.072-.034M19.78 45.153a.13.13 0 0 0-.13.098.19.19 0 0 0 .083.149h.08a.18.18 0 0 0 .072-.11.134.134 0 0 0-.105-.137M21.713 42.24q-.276.093-.558.163a.51.51 0 0 0 .076.597.287.287 0 0 0 .424-.047.34.34 0 0 0 .112-.26.16.16 0 0 0 .058-.048.36.36 0 0 0-.112-.405M20.717 44.824a.54.54 0 0 0-.362.26c-.09.134-.242.178-.297.316h1.662a.2.2 0 0 0-.076-.095.18.18 0 0 0-.156-.021.14.14 0 0 0-.054-.066.2.2 0 0 0-.055-.029.85.85 0 0 0-.318-.3.53.53 0 0 0-.344-.065M24.746 39.377c-.098 0-.16.427-.087.506.072.08.293-.032.362-.217.068-.184-.178-.293-.275-.29M29.921 45.316a.2.2 0 0 0-.043.083h.463a.3.3 0 0 0-.069-.094.24.24 0 0 0-.35.011M30.721 44.762a.564.564 0 0 0 .695 0c.177-.166.138-.463-.09-.695a.41.41 0 0 0-.583 0 .54.54 0 0 0-.022.695M31.13 42.24a.203.203 0 0 0-.047-.308.5.5 0 0 0-.188 0c-.105.137-.094.286 0 .325a.3.3 0 0 0 .235-.018M7.546 28.794a.087.087 0 0 0-.043.126c.025.04.087.123.166.098s.051-.148.033-.17-.083-.087-.156-.054M7.724 33.358a.264.264 0 0 0-.141.337q.127.041.26.036c.112-.022.141-.13.098-.232-.043-.101-.094-.163-.217-.141M31.474 42.46c-.076-.028-.239-.119-.311 0-.073.12.032.261.09.326s.178.026.246-.05c.07-.076.073-.24-.025-.275M9.468 33.846c0 .145 0 .293.149.362a.22.22 0 0 0 .25-.053.2.2 0 0 0 .046-.077.31.31 0 0 0-.029-.257c-.13-.123-.267-.08-.416.025M10.142 35.24a.24.24 0 0 0-.254.021c-.141.098-.094.246-.054.402.155.03.318.09.405-.09a.2.2 0 0 0 0-.051.6.6 0 0 0 .449.025.243.243 0 0 0 .098-.333.36.36 0 0 0-.435-.231.4.4 0 0 0-.21.257M9.103 36.072a.45.45 0 0 0-.286.554.72.72 0 0 0 .68.304.36.36 0 0 0 .206-.22.44.44 0 0 0 .388-.037.493.493 0 0 0 .289.63c.119.044.25.04.366-.01a.58.58 0 0 0 .188-.674.4.4 0 0 0-.55-.196.7.7 0 0 0-.134.08.36.36 0 0 0-.09-.5.58.58 0 0 0-.703.102.46.46 0 0 0-.354-.033M32.353 44.987a.485.485 0 0 0-.647.097.32.32 0 0 0-.084.315h.797a.4.4 0 0 0-.066-.412M33.407 45.4h.14a.3.3 0 0 0-.14 0M10.34 34.176c.062.184.308.362.446.308a.39.39 0 0 0 .232-.516.39.39 0 0 0-.627-.138.305.305 0 0 0-.05.346M35.513 45.342c.073 0 .145-.16.206-.254a.1.1 0 0 0 .026-.078.1.1 0 0 0-.044-.07.3.3 0 0 0-.361.083.22.22 0 0 0 .173.319M6.685 33.745a.47.47 0 0 0 .362-.546 1.6 1.6 0 0 0-.268-.156.4.4 0 0 0-.282 0v.666a.3.3 0 0 0 .188.036M14.22 38.613a.24.24 0 0 0-.159-.05c-.072.025-.108.148-.145.198a.3.3 0 0 0 .058.102.45.45 0 0 0 .037.39c.173.32.466.084.496.323.028.239-.196.163-.13.492.064.33.394.467.56.3.167-.166.105-.361.152-.387.047-.025.3-.08.26-.264-.086-.39-.415-.224-.477-.33-.062-.104-.036-.361-.112-.524s-.319-.366-.54-.25M7.883 28.07c-.152.05-.264.246-.195.362.068.115.474.076.542-.051.07-.127-.195-.358-.347-.311M15.386 38.675a.304.304 0 0 0 .43-.062.41.41 0 0 0-.065-.532.44.44 0 0 0-.532.112c-.08.116.011.373.167.482M13.435 34.74a.285.285 0 0 0 .322.156.36.36 0 0 0 .232-.384.4.4 0 0 0-.413-.257c-.145.044-.213.268-.14.485M8.245 29.909c.17-.022.362 0 .51-.152v-.243c.185-.134.29-.33.225-.445a.23.23 0 0 0-.261-.12c-.203.044-.253.116-.264.362q-.19.152-.362.323a.163.163 0 0 0 .152.275M17.12 42.12a.216.216 0 0 0 .105.304.25.25 0 0 0 .336-.1v-.04a.16.16 0 0 0 .17-.048c.04-.08.127-.268.033-.362s-.235.022-.3.065a.2.2 0 0 0-.066.076.23.23 0 0 0-.278.105M19.834 40.04a.7.7 0 0 0-.036.227.242.242 0 0 0 .362-.032c.069-.094.018-.16-.047-.221a.163.163 0 0 0-.279.025M17.67 38.584a.5.5 0 0 0-.188.033c-.08.152-.044.297.061.315a.28.28 0 0 0 .224-.055c.076-.072.011-.264-.097-.293M16.78 39.742a.41.41 0 0 0 .151.456.304.304 0 0 0 .362-.069c.134-.206.13-.445 0-.528a.45.45 0 0 0-.514.141M18.397 36.54a.213.213 0 0 0-.311.06c-.08.135-.065.363.033.42.097.058.3-.04.361-.148a.23.23 0 0 0-.083-.333M19.118 41.353a.21.21 0 0 0-.123-.188c-.124-.069-.24-.156-.363-.235a.23.23 0 0 0-.166-.113.7.7 0 0 0-.188-.188.407.407 0 0 0-.576.094.543.543 0 0 0 .105.724.55.55 0 0 0 .554-.025.3.3 0 0 1 .033.09.36.36 0 0 0 .26.337.2.2 0 0 0 .123-.018.36.36 0 0 0 .167.239.395.395 0 0 0 .593-.13.43.43 0 0 0-.083-.562.36.36 0 0 0-.337-.025M16.584 41.049a.23.23 0 0 0 .09.311.21.21 0 0 0 .315-.05.234.234 0 0 0-.058-.34.265.265 0 0 0-.347.079M18.394 38.534c0 .047.021.151.076.199a.27.27 0 0 0 .295.044.27.27 0 0 0 .154-.256.27.27 0 0 0-.088-.187c-.112-.065-.307.011-.437.2M19.295 42.59a.3.3 0 0 0 .058.276.4.4 0 0 0-.257.062.36.36 0 0 0 .04.387.174.174 0 0 0 .235 0c.01.085.049.163.108.224a.49.49 0 0 0 .493.112.36.36 0 0 0 .032.294.65.65 0 0 0 .178.21.3.3 0 0 0 .123.217.58.58 0 0 0 .564-.094.34.34 0 0 0-.047-.319 1 1 0 0 0 .036-.152.23.23 0 0 0 .297-.029.264.264 0 0 0-.029-.362.246.246 0 0 0-.362 0l-.029.036a.46.46 0 0 0-.477-.097h-.03a.42.42 0 0 0-.159-.45.6.6 0 0 0-.177-.115.23.23 0 0 0 .094-.152c.025-.166-.155-.326-.33-.33a.42.42 0 0 0-.361.283M19.226 39.72a.36.36 0 0 0-.532.116.36.36 0 0 0 .069.464.51.51 0 0 0 .611-.156.36.36 0 0 0-.148-.424M15.487 40.886c.026.098.145.054.196.043.05-.01.069-.097.058-.115s-.098-.09-.142-.084a.134.134 0 0 0-.112.156M12.27 37.575a.17.17 0 0 0 .072-.153c0-.057-.116-.068-.163-.057-.047.01-.12.108-.098.173.022.066.156.058.189.037M13.681 35.95c-.087.21.207.361.304.325.098-.036.163-.33.062-.405s-.275-.134-.366.08M13.765 36.735c.137.072.256.18.398.054a.25.25 0 0 0 .076-.123.12.12 0 0 0 .04.112c.083.076.202-.04.228-.087s.061-.148-.019-.199a.16.16 0 0 0-.199.04.3.3 0 0 0-.043.094.2.2 0 0 0-.04-.134.29.29 0 0 0-.21-.12c-.192.015-.235.163-.232.362M12.049 36.257a.34.34 0 0 0-.16.47.43.43 0 0 0 .605.217.434.434 0 0 0 .188-.535.477.477 0 0 0-.633-.152M16.58 38.693a.16.16 0 0 0-.239.094c-.029.076-.087.278 0 .322s.275-.073.322-.141c.048-.07.03-.203-.083-.276M16.472 37.071a.23.23 0 0 0-.221.167.36.36 0 0 0-.033.217c.116 0 .3.134.388.029.086-.105-.04-.275-.058-.391zM14.003 41.849c-.09.119-.05.22.04.264.09.043.206.087.268 0s0-.217-.04-.3c-.04-.084-.206-.051-.268.036M12.013 34.588c-.152.055-.29.257-.25.362a.3.3 0 0 0 .043.066.24.24 0 0 0 .04.21.152.152 0 0 0 .246-.033.3.3 0 0 0 .16 0 .39.39 0 0 0 .191-.467q-.093-.256-.43-.138M15.122 35.247c.094.047.152-.05.173-.09a.14.14 0 0 0-.05-.141.16.16 0 0 0-.16.036.14.14 0 0 0-.023.105.14.14 0 0 0 .06.09M22.885 39.587c-.12-.073-.239-.203-.394-.066a.235.235 0 0 0-.05.322c.05.062.125.101.205.11.149.003.207-.102.24-.367M22.646 41.154c.07 0 .113-.181.156-.283a.097.097 0 0 0-.043-.144.3.3 0 0 0-.362.148.22.22 0 0 0 .25.279M17.648 39.746a.257.257 0 0 0 0 .445.51.51 0 0 0 .655-.156.6.6 0 0 0-.105-.687.3.3 0 0 0 .033-.044c.061-.105.029-.25-.073-.268s-.257-.076-.307.055a.22.22 0 0 0 .047.202.31.31 0 0 0-.113.257c.011.149-.014.102-.137.196M22.263 42.022a.25.25 0 0 0 .287.023.3.3 0 0 0 .075-.07.45.45 0 0 0 .177.17.48.48 0 0 1 .242.243c.07.184.25.235.417.279a.44.44 0 0 0 .46-.261c.006.108.053.21.13.286.12.098.304.054.452-.109a.36.36 0 0 0 .04-.441.46.46 0 0 0-.547 0 .2.2 0 0 0-.04.058.44.44 0 0 0-.09-.192.8.8 0 0 0-.467-.272.34.34 0 0 1-.177-.101.318.318 0 0 0-.536-.022.16.16 0 0 0-.054-.08.283.283 0 0 0-.362.091.29.29 0 0 0-.007.398M14.347 42.649a.21.21 0 0 0-.158.194q-.002.046.013.088a.246.246 0 0 0 .297.137.23.23 0 0 0 .145-.13q.11-.033.224-.04a.32.32 0 0 0 .362-.231c.04-.178 0-.362.047-.442s.142-.141.247-.047.329.087.503-.141c.173-.228.05-.58-.16-.59s-.268.108-.322.058-.105-.228-.242-.217c-.138.01-.29.401-.279.47s.112.239-.018.3c-.13.062-.311.022-.391.156a1.1 1.1 0 0 0-.188.427.3.3 0 0 0-.08.008M14.782 40.73a.134.134 0 0 0 .075-.162.14.14 0 0 0-.08-.076.146.146 0 0 0-.187.084.15.15 0 0 0 .003.111.15.15 0 0 0 .188.044M24.148 38.067a.57.57 0 0 0-.724-.018.42.42 0 0 0 .044.564.45.45 0 0 0 .666-.021.36.36 0 0 0 .014-.525M15.77 40.376a.36.36 0 0 0 0 .456c.206.166.434 0 .55-.08s0-.39-.225-.474a.246.246 0 0 0-.325.098M16.066 37.632c0-.036 0-.072-.018-.09s-.072 0-.072 0-.03.076 0 .101.054-.004.09-.01M23.084 40.897a.25.25 0 0 0 .362.018.26.26 0 0 0 0-.362.29.29 0 0 0-.383 0 .246.246 0 0 0 .021.344M23.732 40.803a.292.292 0 0 0 .315.315.255.255 0 0 0 .19-.281.25.25 0 0 0-.045-.114.33.33 0 0 0-.275-.112.29.29 0 0 0-.185.192M27.352 41.946c.115.34.441.163.43.402-.01.239-.224.127-.213.463.01.337.304.529.5.395.195-.134.162-.34.216-.362.055-.022.308-.026.3-.214 0-.401-.361-.293-.408-.409s.025-.362-.018-.535c-.07-.246-.264-.435-.518-.337a.438.438 0 0 0-.29.597M28.307 39.51c.036-.04.083-.137.018-.199a.156.156 0 0 0-.203 0c-.04.033-.126.156-.057.243.068.087.21-.004.242-.044M26.82 43.992a.32.32 0 0 0 .437.04.405.405 0 0 0 .037-.49.44.44 0 0 0-.569 0c-.097.102-.036.32.095.45M27.87 39.008c.104-.033.216-.294.13-.388-.087-.094-.247-.18-.363 0-.115.181.124.42.232.388"/><path fill="#42D4C6" d="M14.174 39.974a.16.16 0 0 0 .072-.156c0-.043-.109-.152-.163-.123a.17.17 0 0 0-.047.17c.025.047.083.138.138.109M23.443 36.684a.22.22 0 0 0-.203.101c-.022.073.12.174.17.181a.2.2 0 0 0 .141-.127.2.2 0 0 0-.108-.155M26.9 44.498a.163.163 0 0 0 0 .268c.064.047.187.12.263.043a.3.3 0 0 0 0-.304c-.025-.094-.173-.083-.264-.007M26.75 40.864a.23.23 0 0 0 .026.319.178.178 0 0 0 .282-.033.32.32 0 0 0 .03-.246c-.033-.062-.261-.123-.337-.04M27.229 40.495c.09-.04.072-.246-.03-.304a.43.43 0 0 0-.206-.025c-.13.13-.145.275-.05.318.09.04.192.044.285.011M31.807 42.023c0 .047 0 .152.04.21a.3.3 0 0 0 .409.061.3.3 0 0 0 0-.39c-.08-.095-.29-.055-.449.119M32.487 43.767a.372.372 0 1 0-.615-.42.34.34 0 0 0 0 .467.51.51 0 0 0 .615-.047M6.83 33.991a.41.41 0 0 0-.319.33v.239a.394.394 0 0 0 .482.318c.322-.083.47-.311.43-.514a.57.57 0 0 0-.593-.373M6.953 37.107q.047.148.123.283c.166.246.398.22.525-.047a.333.333 0 0 0-.236-.507 3 3 0 0 0-.304-.029c.047-.109.055-.206.109-.25a.31.31 0 0 0 .145-.268.5.5 0 0 0 .235-.166.4.4 0 0 0 .098.065.45.45 0 0 0 .55-.083c.127-.13.018-.402-.16-.583a.46.46 0 0 0-.506 0 .4.4 0 0 0-.083-.08.48.48 0 0 0-.645.105.72.72 0 0 0 .084.637c0 .066-.04.102-.13.098-.091-.003-.088-.025-.131-.025a.4.4 0 0 0-.116.018v.822a.68.68 0 0 0 .442.01M7.007 32.41c-.065 0-.094.054-.076.123.018.068.054.097.127.08q.108-.027.076-.127c-.022-.07-.05-.095-.127-.076M31.847 40.054c-.105.115-.127.361-.044.42a.39.39 0 0 0 .391-.08.236.236 0 0 0-.029-.362.213.213 0 0 0-.318.022M34.13 42.146c-.028.032-.054.123 0 .166.055.043.13.022.167 0 .036-.022.083-.16.04-.2-.044-.039-.178 0-.207.033M7.022 31.378a.4.4 0 0 0 .409 0 .34.34 0 0 0 .133-.308.4.4 0 0 0-.191-.322c-.127-.054-.247-.166-.362-.12a.23.23 0 0 0-.156.153.36.36 0 0 0-.072.224.53.53 0 0 0 .239.373M33.834 42.747c-.022 0-.065.123-.018.17s.152-.018.188-.05a.13.13 0 0 0 0-.142c-.036-.036-.138-.007-.17.022M12.404 38.132c0-.03-.019-.055-.022-.07a.311.311 0 0 0-.565-.072 1.8 1.8 0 0 0-.217.391h-.054c-.141.058-.09.257-.083.362s.108.134.213.116q.054.07.13.116a.2.2 0 0 0 .268-.033c.128-.153.226-.328.29-.517.054.041.12.066.188.072.054.46.311.543.706.254q.046.013.087.04a.213.213 0 0 0 .296-.03.23.23 0 0 0 .073-.264c-.047-.224-.138-.297-.322-.268a.3.3 0 0 0-.113.022l-.568.145c-.098-.286-.145-.355-.308-.264M11.38 32.373a.5.5 0 0 0-.544-.1.57.57 0 0 0-.268.495.29.29 0 0 0 .087.199.45.45 0 0 0 .641 0l.123-.109c.069.08.127.16.195.229a.238.238 0 0 0 .362.021.36.36 0 0 0 .145-.409.33.33 0 0 0-.318-.239q-.166 0-.33.033a1 1 0 0 0-.094-.12M11.94 41.034a.554.554 0 0 0 .152.677.514.514 0 0 0 .634-.177.405.405 0 0 0-.095-.554.54.54 0 0 0-.69.054M11.911 31.584a.21.21 0 0 0-.264-.257.216.216 0 0 0-.071.284.2.2 0 0 0 .071.078.235.235 0 0 0 .264-.105M13.62 37.85c.083-.055.025-.254-.084-.294a.5.5 0 0 0-.206 0c-.105.152-.094.3 0 .322.097.029.2.018.29-.029M8.723 31.58a.26.26 0 0 0-.297-.245.38.38 0 0 0-.33.42c.019.21.142.231.142.361s.076.181.217.214c.141.032.362.083.402-.116s-.084-.253-.145-.26c-.062-.008-.138-.11-.073-.123.066-.015.116-.08.084-.25M7.807 34.18a.53.53 0 0 0 .16.423c.115.137.1.318.263.398a.77.77 0 0 0 .808-.083c0 .069.144.137.191.134a.19.19 0 0 0 .116-.149c0-.047-.08-.123-.134-.134a.1.1 0 0 0-.043 0 .58.58 0 0 0 .127-.481c-.044-.206-.315-.224-.438-.405-.297-.431-.652-.268-.902 0a.5.5 0 0 0-.148.296M10.008 31.118c.04-.03.115-.058.09-.138a.087.087 0 0 0-.123-.058c-.044 0-.156.076-.13.145s.134.065.162.05M9.827 32.272a.225.225 0 0 0 .267-.12c.044-.119 0-.18-.264-.26a.22.22 0 0 0-.003.38M13.837 41.364a.32.32 0 0 0 .438-.036.41.41 0 0 0-.05-.49.445.445 0 0 0-.562.11c-.065.108.022.314.174.416M10.634 41.089a.27.27 0 0 0-.127.26.26.26 0 0 0-.206.12.275.275 0 0 0 .09.361.296.296 0 0 0 .362-.119.25.25 0 0 0 .022-.166.3.3 0 0 0 .083-.019.246.246 0 0 0 .13-.322.275.275 0 0 0-.354-.115M11.332 44.32c-.072.055-.231.218-.192.298s.261.076.362.065c.102-.011.138-.174.084-.275s-.16-.156-.254-.087M11.727 44.046c.04-.076-.076-.207-.185-.221-.108-.015-.275.195-.184.311a.23.23 0 0 0 .369-.09"/><path fill="#42D4C6" d="M10.855 41.66a.6.6 0 0 0-.106.312.32.32 0 0 0-.329 0 .7.7 0 0 0-.047.282c.025.134.217.185.362.116a.21.21 0 0 0 .112-.192l.018.018a.45.45 0 0 0 .474-.097.46.46 0 0 0-.17-.485.21.21 0 0 0-.252-.019.2.2 0 0 0-.062.066M10.84 43.94a.246.246 0 0 0-.315.091.243.243 0 0 0 .112.333.23.23 0 0 0 .319-.05.31.31 0 0 0-.116-.373M7.5 43.626a.36.36 0 0 0-.435-.195.315.315 0 0 0-.195.336c.083.243.264.384.42.33a.27.27 0 0 0 .119-.095.78.78 0 0 0 .268.601c-.25 0-.427.112-.435.275a.51.51 0 0 0 .42.434c.21 0 .279-.083.322-.506.1.016.201 0 .29-.047a.5.5 0 0 0 .22-.094c.167-.127.073-.362.185-.569a1 1 0 0 0 .05-.1q.057.054.135.064a.58.58 0 0 0-.188.55.474.474 0 0 0 .575.246.47.47 0 0 0 .232-.21.4.4 0 0 0 .17.232 1 1 0 0 0 .409.167.46.46 0 0 0 .069.362h.64a.36.36 0 0 0 0-.424.44.44 0 0 0-.362-.174.68.68 0 0 0-.202-.615.61.61 0 0 0-.66.156.3.3 0 0 0 0-.055.52.52 0 0 0-.415-.343.15.15 0 0 0 .018-.138c-.026-.094-.09-.217-.17-.242a.19.19 0 0 0-.21.043.73.73 0 0 0-.435-.362h-.058a.2.2 0 0 0 0-.098c0-.061-.119-.123-.191-.14a.2.2 0 0 0-.174.09.19.19 0 0 0 0 .188.6.6 0 0 0-.232.286 1 1 0 0 1-.152.195.4.4 0 0 0-.029-.148M8.755 41.737q.002.288.243.278.033.233.105.456c.054.09.137.16.235.196a.25.25 0 0 0-.101.322s.018.018.021.029c-.115.268-.076.405.152.554a.43.43 0 0 0 .446 0c-.011.08-.001.163.028.239.022.043.149.065.218.047a.12.12 0 0 0 .105-.141.1.1 0 0 0-.03-.058.6.6 0 0 0-.213-.174.7.7 0 0 0 .112-.138l.03-.058a.49.49 0 0 0 .188.362.33.33 0 0 0 .416-.137.34.34 0 0 0-.123-.503.333.333 0 0 0-.442.029l-.022.05a.53.53 0 0 0-.191-.315.2.2 0 0 0 0-.05.23.23 0 0 0-.124-.116.63.63 0 0 0 .167-.492.47.47 0 0 0-.492-.304c-.152 0-.283.047-.402-.109s-.224-.043-.326.033"/><path fill="#42D4C6" d="M9.29 41.704a.297.297 0 0 0 .287-.315.32.32 0 0 0-.42-.17.21.21 0 0 0-.12.268.26.26 0 0 0 .254.217M11.383 42.334a.26.26 0 0 0-.246.228c-.03.184.137.242.278.336a.6.6 0 0 0 .228-.224.36.36 0 0 0 .13.152.53.53 0 0 0 .645-.148.387.387 0 0 0-.112-.54.7.7 0 0 0-.293-.09.27.27 0 0 0-.058-.127.24.24 0 0 0-.319-.087.36.36 0 0 0-.13.438.2.2 0 0 0 .09.055v.068a.25.25 0 0 0-.213-.061M6.826 45.182a.5.5 0 0 0 .34-.319c0-.137-.126-.27-.322-.318-.065 0-.126-.022-.195-.032a1.3 1.3 0 0 0-.138-.33V45.4a.29.29 0 0 0 .094-.224.8.8 0 0 0 .221.007M13 41.299c-.166.069-.224.184-.166.33.084.209.333.361.489.278a.38.38 0 0 0 .127-.463.36.36 0 0 0-.45-.145M6.8 42.902a.22.22 0 0 0-.097-.214.26.26 0 0 0-.192-.054v1.198l.098-.058a.6.6 0 0 0 .148-.17 2 2 0 0 0 .116-.196c.12-.22.098-.38-.061-.499zM12.632 44.784c-.152 0-.29.16-.391.134s.126-.08-.163-.268-.764.073-.565.435c.022.04-.188.137-.224.315h1.68a.5.5 0 0 0 .035-.113.402.402 0 0 0-.372-.503M28.075 45.095c.066-.065.163-.115.25 0 .087.116.308.145.521-.047s.152-.564-.054-.608c-.206-.043-.286.058-.33 0-.043-.058-.06-.239-.198-.257s-.362.344-.362.416.069.258-.07.29c-.137.033-.31-.029-.412.083-.128.12-.223.27-.275.438h.836c.044-.13.051-.268.094-.315M13.558 42.196a.416.416 0 0 0-.626.105.485.485 0 0 0 .127.637.496.496 0 0 0 .666-.134.412.412 0 0 0-.167-.608M6.844 40.325a.33.33 0 0 0 .127-.235c-.022-.21-.196-.228-.362-.228a1 1 0 0 0-.083.145v.239a.1.1 0 0 0 0 .028.22.22 0 0 0 .238.09.2.2 0 0 0 .08-.039M8.57 45.349a.29.29 0 0 0-.325.05h.362a.2.2 0 0 0-.036-.05M9.548 45.179a.36.36 0 0 0-.514.069.4.4 0 0 0-.058.152h.702a.36.36 0 0 0-.13-.221M12.874 39.55a.314.314 0 0 0-.47.134c-.102.178-.076.362.061.431a.49.49 0 0 0 .583-.148.36.36 0 0 0-.174-.417M6.84 37.918c.026-.032.055-.166 0-.203-.054-.036-.166.037-.188.073s-.032.13.022.166a.14.14 0 0 0 .167-.036M29.614 44.49a.217.217 0 0 0 .322 0 .24.24 0 0 0 0-.361.264.264 0 0 0-.362 0 .24.24 0 0 0 .04.362M29.744 41.896c-.043.069-.138.257-.043.319.094.061.282-.022.34-.08a.19.19 0 0 0 .013-.23.2.2 0 0 0-.06-.056.16.16 0 0 0-.137-.041.16.16 0 0 0-.113.088M6.511 38.61v.991a.9.9 0 0 0 .518.019l.065-.11v.186a.24.24 0 0 0 .344-.091c.05-.105 0-.163-.087-.21a.2.2 0 0 0-.181-.022c.072-.12.152-.25.228-.387a.27.27 0 0 0-.054-.141.48.48 0 0 1-.138-.362c0-.188-.224-.34-.362-.253s-.3.173-.333.38M29.603 40.61c0 .033-.044.077-.018.102s.054 0 .09 0 0-.072 0-.094-.072-.015-.072-.007M29.357 38.139a.16.16 0 0 0-.026-.149.17.17 0 0 0-.166 0 .14.14 0 0 0 0 .196c.087.076.159-.01.192-.047M28.745 41.114c-.101.098-.058.362.08.503a.303.303 0 0 0 .434 0 .41.41 0 0 0 .029-.535.434.434 0 0 0-.543.032M30.175 40.231a.23.23 0 0 0-.247.127.33.33 0 0 0-.072.206c.112.03.275.185.362.098s0-.279 0-.395zM30.073 43.39a.31.31 0 0 0 .362 0c.17-.18.207-.415.08-.524a.45.45 0 0 0-.514.05.41.41 0 0 0 .072.475M9.566 37.451a.36.36 0 0 0-.152.362.25.25 0 0 0 .344.149.28.28 0 0 0 .16-.319c-.048-.108-.265-.228-.352-.192"/><path fill="#42D4C6" d="M9.186 39.49a.22.22 0 0 0-.286-.11.257.257 0 0 0-.087.41c.109.133.054.239.022.361-.362-.068-.554.084-.525.413a1 1 0 0 0 .018.098c0 .025 0 .036.022.058a.32.32 0 0 0-.362.076.51.51 0 0 0 .18.575.29.29 0 0 0 .414-.123.31.31 0 0 0 .021-.362q.064-.001.123-.025c.178-.065.362-.141.319-.442.101.09.166.123.202.181a.23.23 0 0 0 .3.12c.142-.044.265-.112.283-.279a.52.52 0 0 0 .456.2.4.4 0 0 0 .333-.182.4.4 0 0 0 .098-.108.42.42 0 0 0 .156.206c.137.08.307 0 .427-.185a.2.2 0 0 0 0-.036.45.45 0 0 0 .81-.362c-.086-.213-.343-.282-.618-.166a.42.42 0 0 0-.207.184s-.022-.036-.04-.043a.47.47 0 0 0-.445 0 .34.34 0 0 0-.402-.13 1 1 0 0 0-.361-.084.36.36 0 0 1-.192-.069.36.36 0 0 0-.265-.104.214.214 0 0 0-.25-.268.47.47 0 0 0-.144.195m.188.224-.069-.018H9.27q.068.005.134 0zM9.526 38.642a.25.25 0 0 0 .083.34.254.254 0 0 0 .362-.047.264.264 0 0 0-.054-.362.293.293 0 0 0-.39.069M10.757 38.11c-.05-.12-.406-.203-.558-.127a.36.36 0 0 0-.13.362.4.4 0 0 0 .246.236.3.3 0 0 0-.094.18.294.294 0 0 0 .362.257.246.246 0 0 0-.04-.47.41.41 0 0 0 .214-.438M11.292 37.43c.03-.193-.217-.261-.315-.243-.097.018-.083.449 0 .517.084.07.286-.086.315-.275M8.267 38.36a.45.45 0 0 0 .195-.417.46.46 0 0 0-.492-.22c-.152.065-.185.282-.073.52a.32.32 0 0 0 .37.117M7.724 38.555a.41.41 0 0 0-.12.41.36.36 0 0 0 .362.082.27.27 0 0 0 .13-.137q.024.067.084.105a.52.52 0 0 0 .51-.047.336.336 0 0 0-.116-.478c-.13-.094-.311-.029-.438.156a.4.4 0 0 0-.036.076v-.03a.31.31 0 0 0-.376-.137"/><path fill="#42D4C6" d="M7.365 40.644a.23.23 0 0 0-.314.054.22.22 0 0 0 .054.34.3.3 0 0 0 .12.044c-.059.072-.037.152 0 .239a.65.65 0 0 1 .115.257q.009.153 0 .307l-.076.03h-.029A.42.42 0 0 0 7 41.501a.6.6 0 0 0-.196-.084.22.22 0 0 0 .066-.166v-.026a.26.26 0 0 0 .094-.361c-.066-.142-.26-.236-.362-.16a.5.5 0 0 0-.09.084v1.396h.017a.48.48 0 0 0 .507.022.3.3 0 0 0 0 .105c-.192.13-.18.29 0 .561a.34.34 0 0 0 .565.03q.07-.1.115-.21l.04-.023a.5.5 0 0 0 .163-.336.56.56 0 0 0 .518-.33.623.623 0 0 0-.54-.752c-.144-.026-.166-.087-.217-.181a.26.26 0 0 0-.224-.123.246.246 0 0 0-.09-.304"/><path fill="#20377D" d="M26.324 32.51h-9.975v1.872h9.975z"/><path fill="#CED5E1" d="M22.11 11.63H20.8v5.585h1.31zM21.959 10.94a.3.3 0 0 1 .069.061.14.14 0 0 0 .065 0v-.213zM20.804 7.726V8a.24.24 0 0 0 0-.275M21.043 9.477a.34.34 0 0 0 .145.22.105.105 0 0 0 .152-.057.24.24 0 0 0-.058-.177c-.033-.055-.055-.113-.12-.134a.3.3 0 0 1-.076 0 .14.14 0 0 0-.043.148M21.56 10.61c-.046.054-.083.098-.083.127s.04.061.09.097l.073-.098zM21.789 10.368a.3.3 0 0 0-.047-.062.4.4 0 0 1-.044.123.4.4 0 0 1 .09-.061M21.3 8.754a.25.25 0 0 1 0-.105c-.076-.022-.16-.026-.188 0a.2.2 0 0 0-.036.083.3.3 0 0 1 .076.065.2.2 0 0 1 .028.058q.061.052.098.123.031.008.062 0a.2.2 0 0 0 .083-.094.34.34 0 0 1-.123-.13M20.804 10.103a.5.5 0 0 0 .062-.174.4.4 0 0 0-.062-.065zM21.922 8.753c.07 0 .123.04.181.087v-.199a.17.17 0 0 0-.137-.05.1.1 0 0 0-.047.043q.013.06.003.12M22.038 7.277a.14.14 0 0 0-.047.141c.026.046.07.08.12.094v-.217c-.022-.018-.051-.018-.073-.018"/><path fill="#CED5E1" d="M20.804 11.472v.31h.272a.2.2 0 0 1 0-.064.66.66 0 0 1-.272-.246M21.9 8.196h-.021a.52.52 0 0 1-.362-.203.27.27 0 0 0 .181.2.29.29 0 0 0 .39-.175l-.039.044a1 1 0 0 1-.148.134M20.942 6.607a.5.5 0 0 1 .144.098s0 .018.022.025c0-.058 0-.123-.043-.144a.13.13 0 0 0-.123.021M21.923 8.76a.2.2 0 0 1-.174.196.2.2 0 0 0 .021.101c.076.156.21.109.333.07V8.84c-.058-.047-.112-.097-.18-.087zM21.991 6.73a.4.4 0 0 0 0 .192.3.3 0 0 1 .134-.044v-.29q.003.015 0 .03a.2.2 0 0 1-.134.112M21.966 6.212a.25.25 0 0 1 .145.16v-.228a.3.3 0 0 0-.149.068zM21.17 8.87a.43.43 0 0 1-.044.4.3.3 0 0 1-.076.073h.036q.039.006.076 0a.2.2 0 0 0 .123-.101.3.3 0 0 0-.018-.235.4.4 0 0 0-.097-.138M21.742 10.205a.456.456 0 0 0-.51-.362.68.68 0 0 0-.428.34v.05a.39.39 0 0 1 .594-.04.36.36 0 0 1 .083.468c-.094.174-.036.246.155.235h.051l-.101-.076c-.05-.036-.087-.069-.09-.098s.036-.072.083-.126a.7.7 0 0 1 .12-.174.4.4 0 0 0 .042-.123.5.5 0 0 0 0-.094M20.804 10.65l.036.033a1 1 0 0 1-.036-.08zM21.977 10.954q.032.063.076.062a.3.3 0 0 0-.076-.062"/><path fill="#CED5E1" d="M21.065 11.718a.53.53 0 0 1 .166-.395c-.134-.029-.217-.098-.177-.246.04-.149-.022-.16-.09-.232q-.09.118-.16.25v.362c.06.11.15.2.26.26M21.944 1.996a.29.29 0 0 0 .16.42v-.568a.33.33 0 0 0-.16.148M21.876 7.042c0 .09.148.162.235.184v-.362a.3.3 0 0 0-.134.044c-.055.043-.102.087-.102.134M21.231.896a.156.156 0 0 0 .023.195.2.2 0 0 0 .06.036.21.21 0 0 0 .17-.094c.026-.047.037-.203-.025-.239-.061-.036-.188.058-.228.102M21.923 9.409a.36.36 0 0 0 .177.456v-.637a.34.34 0 0 0-.178.18"/><path fill="#CED5E1" d="M21.698 10.43a.7.7 0 0 0-.12.173l.084.12.112.166h-.133c-.193 0-.25-.062-.156-.235a.36.36 0 0 0-.084-.467.39.39 0 0 0-.593.04v.361q.015.041.036.08a1 1 0 0 0 .123.16c.069.072.12.133.09.231-.028.098.044.217.178.246a.52.52 0 0 0-.167.395.2.2 0 0 0 0 .065h1.035v-.782a.14.14 0 0 1-.065 0q-.043.002-.076-.062l.152-.151v-.428a.5.5 0 0 0-.322 0 .4.4 0 0 0-.094.087M20.804 4.964v.586-.032a.47.47 0 0 0 0-.554M21.43 7.747c.01.093.043.183.094.26a.52.52 0 0 0 .362.203h.022a.9.9 0 0 0 .195-.163v-.445a.4.4 0 0 0-.322-.22.32.32 0 0 0-.35.365M20.804 4.464a.36.36 0 0 0 0-.361zM21.29 8.648a.3.3 0 0 0 0 .105.34.34 0 0 0 .111.127.48.48 0 0 0 .319.083h.025a.2.2 0 0 0 .174-.195.3.3 0 0 0 0-.12.36.36 0 0 0-.217-.257 1 1 0 0 0-.084-.021h-.021q-.153.093-.293.206a.1.1 0 0 0-.015.072M20.804 1.587a.3.3 0 0 0 .235-.21.236.236 0 0 0-.08-.326.26.26 0 0 0-.155-.018zM21.966 6.212c-.09-.036-.344.102-.395.21-.05.109 0 .228.149.29a.36.36 0 0 0 .275 0 .2.2 0 0 0 .116-.112.1.1 0 0 0 0-.03v-.216a.25.25 0 0 0-.145-.142M21.264 3.147a.293.293 0 0 0 .094.38.24.24 0 0 0 .322-.09.36.36 0 0 0-.152-.391.196.196 0 0 0-.264.101M20.804 8.529c.04-.087.163-.24.101-.402a.3.3 0 0 0-.094-.134zM21.126 9.27a.43.43 0 0 0 .015-.459.3.3 0 0 0-.076-.065c-.094-.065-.221-.109-.26-.148v.85a.6.6 0 0 0 .245-.101.3.3 0 0 0 .076-.076M21.383 5.004c0 .058-.257.271-.235.532a.64.64 0 0 0 .565.467.65.65 0 0 0 .398-.116v-.753c-.105-.083-.218-.148-.218-.195s.152-.174.218-.333v-.254a.45.45 0 0 0-.482-.29.76.76 0 0 0-.524.612c.01.21.267.272.278.33M20.942 6.607a.5.5 0 0 0-.138-.044v.981a.33.33 0 0 0 .344-.116.51.51 0 0 0-.04-.698l-.022-.025a.5.5 0 0 0-.144-.098M20.895 1.848a.2.2 0 0 0-.09 0v.416a.22.22 0 0 0 .202-.156.182.182 0 0 0-.112-.26"/><path stroke="#CED5E1" stroke-miterlimit="10" stroke-width="3.31" d="m18.785 14.877 2.57 2.972 2.457-2.972"/><path fill="#CED5E1" d="M28.083 10.751h-1.31v5.585h1.31z"/><path fill="#CED5E1" d="M27.818 10.83a.26.26 0 0 1 .265-.1v-.24a.2.2 0 0 0-.073 0 .46.46 0 0 0-.22.41.3.3 0 0 1 .028-.07M28.076 10.291v-.48c-.134.086-.192.17-.196.26a.3.3 0 0 1 .062 0 .26.26 0 0 1 .134.22M26.776 7.12c.058-.043.061-.173 0-.274zM27.015 8.598a.34.34 0 0 0 .145.22.104.104 0 0 0 .152-.058.24.24 0 0 0-.058-.177c-.033-.054-.055-.112-.12-.134h-.076a.14.14 0 0 0-.043.149M27.558 9.948q.103-.13.192-.272a.195.195 0 0 0-.037-.25c-.032.207-.25.363-.246.424.004.062.04.062.09.098M27.24 8.112q.03.006.06 0a.19.19 0 0 0 .084-.246c-.029-.083-.26-.134-.311-.065a.2.2 0 0 0-.036.156.2.2 0 0 1 .065 0q.092.057.137.155M26.776 9.224a.5.5 0 0 0 .061-.174.4.4 0 0 0-.061-.065zM27.945 7.711c-.04 0-.076.094-.087.174.09-.04.156.022.225.076v-.2a.16.16 0 0 0-.138-.05M28.01 6.404a.14.14 0 0 0-.047.141c.026.046.07.08.12.095v-.221c-.008-.018-.051-.033-.073-.015M26.776 10.592v.304h.35800000000000004a.7.7 0 0 1-.358-.304M27.518 6.915a.3.3 0 1 0 .55.242.2.2 0 0 0 0-.068V6.9a.25.25 0 0 0-.127-.173.42.42 0 0 0-.423.188M27.062 5.945c.025-.047.032-.203-.025-.24-.058-.035-.189.059-.232.102-.043.044 0 .225.083.232a.23.23 0 0 0 .174-.094M28.076 8.978v-.453l-.116.08q-.001.119.021.235.031.08.095.138"/><path fill="#CED5E1" d="m27.858 7.885-.05.032a.21.21 0 0 0-.058.261c.076.156.21.109.333.069V7.96c-.07-.054-.134-.116-.225-.076M27.873 5.528c.224.257 0 .34.094.58a.4.4 0 0 0 .072.09l.044.029v-.909h-.134a.195.195 0 0 0-.076.21M27.819 10.83a.3.3 0 0 0 0 .073h.257v-.174a.26.26 0 0 0-.258.102M26.935 8.439q.058.029.123.025h.076a.22.22 0 0 0 .123-.101.3.3 0 0 0-.018-.236.36.36 0 0 0-.137-.155.2.2 0 0 0-.065 0 .2.2 0 0 0-.196.12.29.29 0 0 0 .094.347M26.776 9.314v.456c.076.073.174.109.181.145s-.112.152-.181.297v.362c.084.136.211.24.362.293h.253a.49.49 0 0 0 .482-.413.2.2 0 0 0 .184-.12.2.2 0 0 0 0-.079.27.27 0 0 0-.123-.217.3.3 0 0 0-.061 0 .2.2 0 0 0-.13.036 2 2 0 0 0-.2-.155c-.05-.037-.087-.07-.09-.098-.004-.03.213-.217.246-.424a.5.5 0 0 0 0-.101.456.456 0 0 0-.51-.362.68.68 0 0 0-.413.38M15.777 12.923h-1.31v5.585h1.31z"/><path fill="#CED5E1" d="M15.513 13.003a.26.26 0 0 1 .264-.102v-.239a.2.2 0 0 0-.072 0 .46.46 0 0 0-.221.41.3.3 0 0 1 .029-.07M15.77 12.463v-.481c-.134.087-.192.17-.196.26a.3.3 0 0 1 .062 0 .26.26 0 0 1 .134.221M14.47 9.293c.058-.044.062-.174 0-.275zM14.71 10.77a.34.34 0 0 0 .144.22.1.1 0 0 0 .09.007.1.1 0 0 0 .062-.065.24.24 0 0 0-.058-.177c-.033-.054-.054-.112-.12-.134h-.075a.14.14 0 0 0-.044.149M15.252 12.12q.104-.13.192-.272a.196.196 0 0 0-.036-.25c-.033.206-.25.362-.246.424.003.061.04.061.09.097M14.934 10.284q.03.006.061 0a.19.19 0 0 0 .083-.246c-.029-.083-.26-.134-.311-.065a.2.2 0 0 0-.036.156.2.2 0 0 1 .065 0q.091.057.138.155M14.47 11.396a.5.5 0 0 0 .062-.174.4.4 0 0 0-.062-.065zM15.64 9.883c-.04 0-.077.094-.088.173.09-.04.156.022.225.076v-.199a.16.16 0 0 0-.138-.05M15.704 8.576a.14.14 0 0 0-.047.141c.026.046.07.08.12.094v-.22c-.007-.018-.05-.033-.073-.015M14.47 12.764v.304h.35800000000000004a.7.7 0 0 1-.358-.304M15.212 9.086a.301.301 0 0 0 .55.243.2.2 0 0 0 0-.069v-.188a.25.25 0 0 0-.126-.174.42.42 0 0 0-.424.188M14.756 8.116c.025-.047.033-.203-.025-.239s-.188.058-.232.102c-.043.043 0 .224.083.231a.23.23 0 0 0 .174-.094M15.77 11.15v-.453l-.116.08q0 .117.021.235.031.08.095.137"/><path fill="#CED5E1" d="m15.552 10.056-.05.033a.206.206 0 0 0-.058.26c.076.156.21.109.333.07v-.287c-.069-.054-.134-.116-.225-.076M15.567 7.7c.224.257 0 .34.094.58q.03.05.072.09l.044.029V7.49h-.134a.195.195 0 0 0-.076.21M15.513 13.003a.3.3 0 0 0 0 .072h.257v-.174a.26.26 0 0 0-.257.102M14.63 10.61q.057.03.122.025h.076a.22.22 0 0 0 .124-.101.3.3 0 0 0-.018-.235.36.36 0 0 0-.138-.156.2.2 0 0 0-.065 0 .2.2 0 0 0-.196.12.29.29 0 0 0 .094.347M14.47 11.486v.456c.076.072.174.109.181.145s-.112.152-.18.297v.361c.083.137.21.24.361.294h.253a.49.49 0 0 0 .482-.413.2.2 0 0 0 .184-.12.2.2 0 0 0 0-.079.27.27 0 0 0-.123-.217.3.3 0 0 0-.061 0 .2.2 0 0 0-.13.036 2 2 0 0 0-.2-.156c-.05-.036-.086-.068-.09-.097-.004-.03.214-.218.246-.424a.5.5 0 0 0 0-.101.456.456 0 0 0-.51-.362.68.68 0 0 0-.413.38"/></g><defs><clipPath id="a"><path fill="#fff" d="M0 .787h43.432v48H0z"/></clipPath></defs></svg>