<svg xmlns="http://www.w3.org/2000/svg" width="40" height="40" fill="none"><path fill="#535766" fill-rule="evenodd" d="M15 2.5c-.689 0-1.25.56-1.25 1.25v10c0 .69.561 1.25 1.25 1.25h10c.689 0 1.25-.56 1.25-1.25v-10c0-.69-.561-1.25-1.25-1.25zm10 15H15a3.755 3.755 0 0 1-3.75-3.75v-10A3.755 3.755 0 0 1 15 0h10a3.755 3.755 0 0 1 3.75 3.75v10A3.755 3.755 0 0 1 25 17.5M21.25 22.5V20h-2.5v2.5h-15V30h2.5v-5h12.5v5h2.5v-5h12.5v5h2.5v-7.5z" clip-rule="evenodd"/><path fill="#00BFB3" fill-rule="evenodd" d="M5 35c-.689 0-1.25.56-1.25 1.25S4.311 37.5 5 37.5s1.25-.56 1.25-1.25S5.689 35 5 35m0 5a3.755 3.755 0 0 1-3.75-3.75A3.755 3.755 0 0 1 5 32.5a3.755 3.755 0 0 1 3.75 3.75A3.755 3.755 0 0 1 5 40M20 35a1.251 1.251 0 0 0 0 2.5c.689 0 1.25-.56 1.25-1.25S20.689 35 20 35m0 5a3.755 3.755 0 0 1-3.75-3.75A3.755 3.755 0 0 1 20 32.5a3.755 3.755 0 0 1 3.75 3.75A3.755 3.755 0 0 1 20 40M35 35a1.251 1.251 0 0 0 0 2.5c.689 0 1.25-.56 1.25-1.25S35.689 35 35 35m0 5a3.755 3.755 0 0 1-3.75-3.75A3.755 3.755 0 0 1 35 32.5a3.755 3.755 0 0 1 3.75 3.75A3.755 3.755 0 0 1 35 40M16.25 7.5h7.5V5h-7.5zM16.25 12.5h7.5V10h-7.5z" clip-rule="evenodd"/></svg>