<svg xmlns="http://www.w3.org/2000/svg" width="40" height="40" fill="none"><path fill="#535766" d="M17.5 25h13.75v-2.5H17.5zM17.5 31.25h13.75v-2.5H17.5zM13.75 25h-5v-2.5h5zM13.75 31.25h-5v-2.5h5z"/><path fill="#00BFB3" fill-rule="evenodd" d="M17.5 9.375a8.125 8.125 0 1 1-16.25 0 8.125 8.125 0 0 1 16.25 0m-13.75 0a5.625 5.625 0 1 0 11.25 0 5.625 5.625 0 0 0-11.25 0" clip-rule="evenodd"/><path fill="#00BFB3" d="m13.814 15.071 5.035 5.035 1.768-1.767-5.035-5.035z"/><path fill="#535766" d="M20 3.75h13.75a2.5 2.5 0 0 1 2.5 2.5v27.656a2.5 2.5 0 0 1-2.5 2.5h-.013l-27.5-.137a2.5 2.5 0 0 1-2.487-2.5V20h-2.5v13.769a5 5 0 0 0 4.975 5l27.5.137h.025a5 5 0 0 0 5-5V6.25a5 5 0 0 0-5-5H20z"/></svg>