<svg xmlns="http://www.w3.org/2000/svg" width="16" height="17" fill="none"><path fill="#000" fill-rule="evenodd" d="M3.001 9.278h6V5.22l1 .577v3.48h1.249a1 1 0 0 1 .8.4l2.7 3.6H16v1h-1.25a1 1 0 0 1-.8-.4l-2.7-3.6H10v4H9v-4H8v5H7v-1H5v1H4v-5H3v4H2l.001-8.482 1-.577v4.059Zm1.999 4h2v-1H5v1Zm0-2h2v-1H5v1Z" clip-rule="evenodd"/><path fill="#000" fill-rule="evenodd" d="M6 4.278a2 2 0 1 1 0 4 2 2 0 0 1 0-4Zm0 1a1 1 0 1 0 0 2 1 1 0 0 0 0-2Z" clip-rule="evenodd"/><path fill="#000" d="m9.748 3.343.002.002 2 1.155-.5.865-1.249-.722-.749-.432-3.251-1.857-3.253 1.858L.748 5.364.25 4.5l2.001-1.155.002-.002L6 1.202l3.748 2.141Z"/></svg>