<svg xmlns="http://www.w3.org/2000/svg" width="56" height="56" fill="none"><rect width="56" height="56" fill="#E4A6C7" rx="28"/><g clip-path="url(#a)"><path fill="#C4407C" fill-rule="evenodd" d="m27.21 10.238-4.025-1.343a2.5 2.5 0 0 0-3.24 1.883L18.5 18h-4.25a1.25 1.25 0 1 0 0 2.5h4.065a10 10 0 0 0 .275 5.898l-5.18-.863A2.5 2.5 0 0 0 10.5 28v2.5c.91 0 1.765.242 2.5.67V28l2.5.418 4.648.774 5.407.9 1.195.2v15L13 43v-3.17c-.76.44-1.622.671-2.5.67V43a2.5 2.5 0 0 0 2.09 2.465l15 2.5c.27.045.55.045.82 0l15-2.5A2.5 2.5 0 0 0 45.5 43v-2.5a5 5 0 0 1-2.5-.67V43l-13.75 2.292v-15l1.195-.2 5.407-.9 4.648-.777L43 28v3.17a5 5 0 0 1 2.5-.67V28a2.5 2.5 0 0 0-2.91-2.465l-5.183.863a9.98 9.98 0 0 0 .278-5.898h4.065a1.25 1.25 0 1 0 0-2.5H37.5l-1.445-7.225a2.5 2.5 0 0 0-3.242-1.877l-4.023 1.34c-.513.17-1.067.17-1.58 0m7.2 16.66a7.53 7.53 0 0 0 .665-6.398h-14.15a7.53 7.53 0 0 0 .665 6.398L28 27.965zM35 18h-4l-.5-2.5 3.75-1.25zM10.5 38a2.5 2.5 0 1 0 0-5 2.5 2.5 0 0 0 0 5m35 0a2.5 2.5 0 1 0 0-5 2.5 2.5 0 0 0 0 5" clip-rule="evenodd"/></g><defs><clipPath id="a"><path fill="#fff" d="M8 8h40v40H8z"/></clipPath></defs></svg>