<svg xmlns="http://www.w3.org/2000/svg" width="40" height="40" fill="none"><path fill="#00BFB3" fill-rule="evenodd" d="M20 12.5a7.5 7.5 0 0 1 2.605.476l1.895-1.895A9.9 9.9 0 0 0 20 10c-5.514 0-10 4.486-10 10a9.94 9.94 0 0 0 1.794 5.716l2.051-1.43A7.46 7.46 0 0 1 12.5 20c0-4.136 3.364-7.5 7.5-7.5M27.024 17.395a7.45 7.45 0 0 1-.804 6.797l2.072 1.4a9.96 9.96 0 0 0 .627-10.092z" clip-rule="evenodd"/><path fill="#535766" d="M0 18.75v2.5a5 5 0 0 1 5 5v5A8.75 8.75 0 0 0 13.75 40v-2.5c-3.45 0-6.25-2.8-6.25-6.25v-5A7.5 7.5 0 0 0 4.147 20 7.5 7.5 0 0 0 7.5 13.75v-5c0-3.45 2.8-6.25 6.25-6.25V0A8.75 8.75 0 0 0 5 8.75v5a5 5 0 0 1-5 5v2.5c1.533 0 2.96-.46 4.147-1.25A7.47 7.47 0 0 0 0 18.75M40 21.25v-2.5a5 5 0 0 1-5-5v-5A8.75 8.75 0 0 0 26.25 0v2.5c3.45 0 6.25 2.8 6.25 6.25v5A7.5 7.5 0 0 0 35.853 20a7.5 7.5 0 0 0-3.353 6.25v5c0 3.45-2.8 6.25-6.25 6.25V40A8.75 8.75 0 0 0 35 31.25v-5a5 5 0 0 1 5-5v-2.5c-1.533 0-2.96.46-4.147 1.25A7.47 7.47 0 0 0 40 21.25"/><path fill="#535766" fill-rule="evenodd" d="M20 23.75a3.75 3.75 0 1 0-.002-7.502A3.75 3.75 0 0 0 20 23.75m0-5a1.251 1.251 0 0 1 0 2.5 1.251 1.251 0 0 1 0-2.5" clip-rule="evenodd"/><path fill="#535766" d="m22.652 19.117 6.357-6.358-1.768-1.768-6.357 6.358z"/></svg>