<svg xmlns="http://www.w3.org/2000/svg" width="46" height="46" fill="none"><g clip-path="url(#a)"><path fill="#ECF0F6" d="M23 45.287c12.426 0 22.5-10.073 22.5-22.5S35.426.287 23 .287.5 10.361.5 22.787s10.074 22.5 22.5 22.5"/><path fill="#fff" d="M42.193 17.365c.06-.098-.03-.177-.124-.218s-.248 0-.255.105-.041.263.093.296c.136.034.24-.108.286-.183M41.791 17.86a.3.3 0 0 0-.086-.214c-.082-.068-.262.022-.274.135a.45.45 0 0 0 .053.18c.161.06.3.004.307-.101M42.56 16.619a.334.334 0 0 0 .42-.132.51.51 0 0 0-.232-.585.33.33 0 0 0-.345.128.49.49 0 0 0-.398-.071.47.47 0 0 0-.244.573.457.457 0 0 0 .555.27.55.55 0 0 0 .244-.183M38.806 6.834s.023 0 .034-.026a5 5 0 0 0-.375-.337.23.23 0 0 0 0 .21.25.25 0 0 0 .239.175q.053 0 .102-.022M41.038 16.674c-.05.11.048.297.25.398.042-.023.147-.038.188-.098a.3.3 0 0 0-.067-.408.304.304 0 0 0-.371.108M42.001 15.628a.25.25 0 0 0 .289-.157.18.18 0 0 0 0-.154 3 3 0 0 0-.277-.255c0-.304-.098-.517-.282-.525a.45.45 0 0 0-.337.199.12.12 0 0 0-.09.049.1.1 0 0 0 0 .086.2.2 0 0 0 0 .082c0 .21.082.278.502.32 0 .164-.022.333.195.355M41.293 10.04a.32.32 0 0 0 .13-.164 25 25 0 0 0-.524-.72.25.25 0 0 0-.17.115.22.22 0 0 0 .023.252.3.3 0 0 0 .102.075.27.27 0 0 0 0 .207c.131.24.262.315.438.236M42.898 12.508a.296.296 0 0 0 .187.33q.046.015.094 0a6 6 0 0 0-.199-.375.1.1 0 0 0-.082.045M44.158 15.133a23 23 0 0 0-.346-.881c-.04.022-.086.045-.138.079a.337.337 0 0 0-.023.562q.24.15.507.24M42.826 13.903a.6.6 0 0 0 .169.143q.096.063.199.116c.217.116.375.097.491-.06a.4.4 0 0 0 .041-.086c-.082-.195-.172-.375-.258-.578a2.8 2.8 0 0 1-.398-.375c-.124-.154-.375-.244-.48-.15a.29.29 0 0 0 0 .349c.146.105.079.217.09.337.027.11.077.214.146.304"/><path fill="#fff" d="M40.408 9.107c.258.135.374.14.472 0l-.326-.412c-.169.086-.147.262-.147.412M39.86 8.8a.23.23 0 0 0 .176-.135.38.38 0 0 0-.078-.285c-.143-.132-.248 0-.375.093.033.188.075.334.277.327M15.976 5.59a.31.31 0 0 0 .034-.376c-.18-.19-.416-.247-.536-.127a.465.465 0 0 0 .022.536.43.43 0 0 0 .48-.034M24.185.531c-.116.21-.075.353.143.484a.353.353 0 0 0 .465-.041.54.54 0 0 0-.177-.623h-.191a.43.43 0 0 0-.24.18M42.219 18.835c.094-.053.157-.147.086-.24-.071-.094-.217-.23-.296-.188-.079.041-.075.206-.064.308a.19.19 0 0 0-.259.13.154.154 0 0 0 .124.222c.075.019.281.052.311-.052a.2.2 0 0 0-.037-.154.2.2 0 0 0 .135-.026M22.033 2.837c-.042.042-.076.229-.027.274s.255 0 .267-.045c.01-.045.044-.229 0-.259a.25.25 0 0 0-.24.03M23.214.509a.4.4 0 0 0-.045-.102.23.23 0 0 0 .071-.116h-.375a.1.1 0 0 0 0 .034s-.026 0-.03.03q-.08.17-.139.349c-.285.1-.442.28-.375.453a.5.5 0 0 0 .548.248c.199-.064.225-.18.112-.585.124-.06.29-.101.233-.311M25.719 1.446c.12-.03.258-.023.33-.132.071-.108.285-.42.157-.622-.127-.203-.27-.045-.409-.064a.32.32 0 0 0-.307.139.44.44 0 0 0-.24.124.375.375 0 0 0 0 .483.13.13 0 0 1-.12-.037c-.105-.094-.326-.094-.502.127-.177.222-.06.578.15.59.21.01.27-.106.322-.05.052.057.098.225.236.218.139-.008.293-.375.282-.461s-.075-.188 0-.263a.5.5 0 0 0 .1-.052M29.769 1.397a.45.45 0 0 0-.469.09c-.075.109 0 .375.161.484a.203.203 0 0 0 .304-.053c.142-.22.142-.423.004-.52M26.341 1.423c-.064.087 0 .214.034.297s.203.052.27-.038a.16.16 0 0 0-.038-.262c-.075-.034-.206-.087-.266.003M22.284 3.936a.34.34 0 0 0 .412 0 .57.57 0 0 0 .038-.57.424.424 0 0 0-.525.097c-.135.14-.109.308.075.473M15.56 3.685a.56.56 0 0 0-.596 0 .375.375 0 0 0 0 .506.416.416 0 0 0 .529.03.4.4 0 0 0 .067-.536M29.945 2.204a.274.274 0 0 0 .375-.087.277.277 0 0 0-.086-.375.3.3 0 0 0-.375.113.255.255 0 0 0 .086.349M42.976 14.78a.375.375 0 0 0 .191-.434.315.315 0 0 0-.337-.188c-.236.083-.375.267-.322.42a.416.416 0 0 0 .468.203M21.834 1.888a.318.318 0 0 0-.101-.476.397.397 0 0 0-.593.12.43.43 0 0 0 .075.559.35.35 0 0 0 .326.022.2.2 0 0 0 .188-.063.5.5 0 0 0 .105-.162M21.301 2.406a.26.26 0 0 0-.217.244.187.187 0 0 0 .139.225c.18.06.277-.05.375-.195-.075-.15-.11-.312-.297-.274M15.973 2.256a.45.45 0 0 0-.645.619.438.438 0 0 0 .663-.027.446.446 0 0 0-.018-.592M42.793 17.155c-.042 0-.06.15-.045.217a.12.12 0 0 0 .198.075c.064-.052.21-.191.173-.277s-.263-.05-.326-.015M34.033 4.986a.16.16 0 0 0 .262-.068.7.7 0 0 0 0-.228.24.24 0 0 0-.341.086c-.068.105-.008.161.078.21M33.811 3.53a.27.27 0 0 0 .214-.09.2.2 0 0 0 0-.194c-.09-.132-.218-.12-.352-.034.003.116-.016.262.138.319M33.009 7.307a.236.236 0 0 0 .232-.228c0-.2-.228-.33-.307-.33a.35.35 0 0 0-.21.375.24.24 0 0 0 .285.183M24.365 1.217a.24.24 0 0 0-.345-.068.41.41 0 0 0-.052.51.285.285 0 0 0 .375.03.35.35 0 0 0 .022-.472M32.199 4.033a.47.47 0 0 0 .551-.281.61.61 0 0 0-.375-.608.476.476 0 0 0-.502.375.46.46 0 0 0 .326.514M32.03 2.357a.308.308 0 0 0 .112.488.38.38 0 0 0 .402.026.25.25 0 0 0 .315 0c.037-.03.086-.094.078-.131a1.4 1.4 0 0 0-.044-.17q-.361-.173-.728-.337a.34.34 0 0 0-.135.124M34.663 5.54a.315.315 0 0 0 .373-.35.205.205 0 0 0-.167-.16.266.266 0 0 0-.315.106.296.296 0 0 0 .109.405M33.215 2.983a.23.23 0 0 0 .315-.052v-.023l-.443-.228a.25.25 0 0 0 .128.303M37.618 6.074a.28.28 0 0 0 0 .25.146.146 0 0 0 .224.102c.098-.053.184-.12.14-.251a.29.29 0 0 0-.364-.101M37.696 7.723c.113 0 .327-.109.338-.202a.33.33 0 0 0-.229-.312.25.25 0 0 0-.304.218.28.28 0 0 0 .195.296"/><path fill="#fff" d="M38.158 6.328q.075.01.146-.018l-.401-.375a.45.45 0 0 0 .255.393M24.193 2.54c0-.018.03-.063 0-.085a.067.067 0 0 0-.102 0 .08.08 0 0 0 0 .1c.026.016.086 0 .101-.014M35.608 4.15a28 28 0 0 0-.99-.638q.024.039.052.075a.59.59 0 0 0 0 .66.615.615 0 0 0 .915-.082zM35.206 7.322a.345.345 0 0 0 .375-.341c.023-.173-.097-.289-.33-.319-.232-.03-.334.056-.348.199-.015.142.194.446.303.461M33.463 4.157a.8.8 0 0 0 0-.228.244.244 0 0 0-.346.086c-.052.101 0 .161.083.21a.164.164 0 0 0 .262-.068M23.724 2.515a.26.26 0 0 0 .345-.075.236.236 0 0 0-.087-.311.213.213 0 0 0-.314.045.236.236 0 0 0 .056.34M43.434 19.416c.15.086.375.067.45-.045.135-.225-.049-.432-.15-.533-.102-.101-.375.064-.435.281a.236.236 0 0 0 .135.297M44.559 18.07a.3.3 0 0 0 .086-.375.8.8 0 0 0-.281-.045c-.135.026-.184.217-.113.352a.225.225 0 0 0 .308.068M43.94 15.666c-.097.176.045.468.289.585a.32.32 0 0 0 .303 0 15 15 0 0 0-.25-.75.4.4 0 0 0-.342.165M42.684 18.508a.405.405 0 0 0 .431-.206.3.3 0 0 0-.116-.345c-.218-.105-.454-.071-.518.083a.435.435 0 0 0 .203.468M43.441 15.531a.28.28 0 0 0 .135-.191.2.2 0 0 0-.086-.173c-.146-.067-.248 0-.323.15.057.124.11.263.274.214M43.085 19.873a.27.27 0 0 0 .161-.319.26.26 0 0 0-.296-.13.31.31 0 0 0-.165.322.25.25 0 0 0 .3.127M44.218 17.278a.56.56 0 0 0-.222-.652l-.06-.027a.247.247 0 0 0-.318-.09.43.43 0 0 0-.24.375v.02a.413.413 0 0 0 .168.554.54.54 0 0 0 .672-.18M23.21 1.435a.24.24 0 0 0 .341-.068.213.213 0 0 0-.097-.304.255.255 0 0 0-.338.098.195.195 0 0 0 .094.274M44.953 17.852q-.039-.163-.076-.326a.24.24 0 0 0 .075.326M19.621.557V.54c-.112 0-.22.037-.333.056.112.027.23.014.333-.038M24.144.403A1 1 0 0 0 24.2.317h-.75a.3.3 0 0 0 .056.086.473.473 0 0 0 .638 0M19.329 1.075a.28.28 0 0 0-.053-.353.38.38 0 0 0-.375.053.35.35 0 0 0 .105.405.247.247 0 0 0 .323-.105M45.466 21.53a.45.45 0 0 0 0 .226 2 2 0 0 0 0-.225M28.843 5.406q.095-.153.165-.319a.49.49 0 0 0-.23-.525c-.1-.052-.198-.06-.265.026-.189.21-.31.471-.346.75q0 .068.027.132a.312.312 0 0 0 .457.172.2.2 0 0 0 .124-.064.26.26 0 0 0 .068-.172M28.633 7.127c.108-.097 0-.416-.105-.427s-.304.27-.214.375a.25.25 0 0 0 .319.052M28.719 8.496a.24.24 0 0 0-.038-.218.154.154 0 0 0-.247.034c-.034.06-.09.233.037.308.128.075.221-.072.248-.124M28.486 5.99c-.022-.063-.153-.056-.187-.037a.17.17 0 0 0-.075.154c0 .052.116.067.161.056s.12-.105.101-.172M33.016 8.519c.023-.177-.045-.285-.198-.308-.222-.034-.47.109-.484.278-.015.168.157.322.334.34a.345.345 0 0 0 .348-.31M30.511 1.855c0 .022 0 .067.049.07a.07.07 0 0 0 .082-.063c0-.045-.044-.068-.067-.071-.023-.004-.064.045-.064.064M21.534 5.466a.14.14 0 0 0-.049.188c.06.078.154 0 .199-.034a.14.14 0 0 0 0-.128.18.18 0 0 0-.15-.026M21.954 3.61a.334.334 0 0 0-.06-.458.5.5 0 0 0-.608.143.375.375 0 0 0 .668.315M21.129 4.416a.45.45 0 0 0-.66.041.41.41 0 0 0-.023.6.51.51 0 0 0 .675 0 .54.54 0 0 0 .008-.641M26.596 4.28c-.168-.318-.461-.093-.487-.325-.027-.233.198-.162.135-.488-.064-.326-.375-.472-.552-.307-.176.165-.108.356-.157.375-.049.018-.296.075-.259.258-.048-.022-.1-.033-.127 0-.026.034 0 .173.026.203a.14.14 0 0 0 .165 0V3.97c.128.146.337.07.375.153s.03.375.105.522c.105.232.326.375.559.247a.44.44 0 0 0 .217-.611M26.064 6.797c-.03.045-.06.146 0 .199a.15.15 0 0 0 .195-.038c.037-.037.101-.172 0-.244-.102-.07-.17.038-.195.083M24.86 3.122a.375.375 0 0 0 0-.454c-.206-.168-.435 0-.547.072-.113.07 0 .375.213.472a.247.247 0 0 0 .334-.09M24.53 5.837v.094c0 .019.067 0 .071 0s.027-.075 0-.101c-.026-.027-.034.003-.071.007M32.42 4.956a.2.2 0 0 0 .03-.056c.09 0 .24-.06.247-.143s-.198-.176-.27-.18a.1.1 0 0 0-.04 0 .52.52 0 0 0-.507.038.335.335 0 0 0 .109.476c.124.105.303.045.431-.135M42.166 30.677c.034-.06-.063-.135-.105-.161a.12.12 0 0 0-.13.045c-.023.041.03.116.067.15s.138.026.168-.034M42.56 23.503c.037-.108.03-.206-.064-.262a1.4 1.4 0 0 0-.787-.233.3.3 0 0 0-.124.045.311.311 0 0 0 0 .567q.23.125.484.183a.49.49 0 0 0 .491-.3M42.204 28.686c.03-.056 0-.131-.056-.158-.057-.026-.173-.034-.2.023-.026.056.053.161.094.176a.135.135 0 0 0 .162-.041M44.274 25.281a.52.52 0 0 0 .139-.476.45.45 0 0 0-.342-.353h-.045c.1-.037.182-.11.229-.206.06-.142-.034-.304-.236-.397a.35.35 0 0 0-.431.093.46.46 0 0 0 .153.521l.068.023a.4.4 0 0 0-.15.142.8.8 0 0 0-.12.526.35.35 0 0 1-.045.195.318.318 0 0 0 .139.513.2.2 0 0 0-.057.075c-.037.105.053.248.188.308a.29.29 0 0 0 .375-.12.24.24 0 0 0-.15-.315.5.5 0 0 0 .108-.218.45.45 0 0 1 .177-.311M45.391 24.19a.25.25 0 0 0-.322.131.27.27 0 0 0 .135.349.28.28 0 0 0 .213 0l.034-.435a.2.2 0 0 0-.06-.045M44.761 27.666a.23.23 0 0 0 .098.304h.033c.038-.162.075-.319.11-.48a.26.26 0 0 0-.24.176M42.076 26.361c-.037-.139-.15-.165-.416-.116-.034.135-.12.285.053.375a.236.236 0 0 0 .322-.049.3.3 0 0 0 .041-.21M38.056 9.111a.394.394 0 0 0 .447-.375.7.7 0 0 0 0-.229.54.54 0 0 0 .318-.022.28.28 0 0 0 .135-.285.54.54 0 0 0 .499-.375.446.446 0 0 0-.33-.525.72.72 0 0 0-.604.427.4.4 0 0 0 .034.207h-.023a.47.47 0 0 0-.22.315.484.484 0 0 0-.728.36c-.027.202.217.46.472.502M35.041 7.986a.38.38 0 0 0-.176-.39.4.4 0 0 0-.143-.049.487.487 0 0 0-.525.428.495.495 0 0 0 .375.457c.24.03.428-.154.47-.446M37.408 17.968c-.027 0-.113.083-.087.146.027.064.143.045.192.03a.13.13 0 0 0 .052-.127c-.034-.041-.124-.056-.157-.049M20.413 6.253c-.064.064-.027.218.07.315a.14.14 0 0 0 .226 0 .2.2 0 0 0 .075-.137.2.2 0 0 0-.049-.148.26.26 0 0 0-.322-.03M42.808 20.781c.228-.064.183.173.498.064s.413-.446.229-.593-.375-.052-.405-.097-.116-.285-.293-.221c-.375.135-.165.434-.262.51-.098.075-.349.082-.503.176a.397.397 0 0 0-.16.592q.055.069.127.12a.6.6 0 0 0 .09.064c.108.06.296.244.45.146.154-.097.045-.225.06-.31.146-.207-.034-.41.168-.45M11.611 4.217c.12.053.341-.168.297-.266-.045-.097-.338-.135-.375 0a.23.23 0 0 0 .078.266M40.959 23.173c-.053.023-.053.124-.034.17.019.044.12.104.184.074.063-.03.037-.161 0-.191a.16.16 0 0 0-.15-.053M41.296 22.139a.38.38 0 0 0-.075-.278c-.067-.075-.255 0-.281.12q0 .105.038.203c.18.097.307.052.318-.045M8.503 5.597c-.05.083-.14.304-.075.375.063.071.28-.049.292-.086.026-.101.086-.233 0-.326-.086-.094-.187-.008-.217.037M45.11 20.976c.128.075.225.022.255-.072.03-.093.06-.217-.038-.266a.2.2 0 0 0-.074 0 .35.35 0 0 0 .075-.341q.018.014.033.03a19 19 0 0 0-.082-.66.14.14 0 0 1-.066-.157.14.14 0 0 1 .028-.053v-.023c0-.108-.033-.213-.052-.318a.5.5 0 0 0-.158-.135.38.38 0 0 0-.25-.05v-.033a.38.38 0 0 0-.436-.124.35.35 0 0 0 .023.447.22.22 0 0 0 .13.056c.035.146.12.195.08.247-.042.053-.207.132-.184.267s.435.232.502.213c.068-.018.222-.142.297 0q.042.075.063.158a.214.214 0 0 0-.262-.056c-.206.082-.345.333-.274.487a.38.38 0 0 0 .33.154c-.094.034-.034.176.06.229M43.595 22.712a.49.49 0 0 0-.217-.558.375.375 0 0 0-.375.228.307.307 0 0 0 .187.443c.18.079.352.034.405-.113M43.093 28.656c-.113-.038-.158.03-.196.108a.16.16 0 0 0 .102.252.8.8 0 0 0 .228-.034.24.24 0 0 0-.134-.326M30.909 2.623a.375.375 0 0 0 .374.388.25.25 0 0 0 .218-.17.41.41 0 0 0-.27-.435.28.28 0 0 0-.322.217M33.253 6.04a.22.22 0 0 0 .22.228.29.29 0 0 0 .275-.292c-.053-.049-.12-.15-.214-.184s-.251.094-.281.248M31.081 1.787l-.303-.12a.5.5 0 0 0 .303.12M33.466 4.446a.43.43 0 0 0-.446.292.46.46 0 0 0 .33.431c.142.023.315-.142.337-.326s-.03-.367-.22-.397M36.59 7.75a.41.41 0 0 0 .281.453c.128 0 .375-.243.375-.412a.34.34 0 0 0-.255-.296.34.34 0 0 0-.401.255M14.281 7.281a.23.23 0 0 0 .034-.319.244.244 0 0 0-.345-.03.19.19 0 0 0-.034.308.237.237 0 0 0 .345.041M16.408 4.052a.228.228 0 0 0 .048.341c.09.068.195.147.282.06.142-.153.16-.311.067-.405a.27.27 0 0 0-.398.004M14.341 8.676a.29.29 0 0 0 0-.375.22.22 0 0 0-.318 0 .25.25 0 0 0-.023.352.25.25 0 0 0 .352.023zM15.676 1.888a.52.52 0 0 0 .75-.033.495.495 0 0 0 .087-.615 21 21 0 0 0-.964.315.42.42 0 0 0 .127.333M11.87 7.528a.27.27 0 0 0 0 .375.248.248 0 0 0 .375 0 .26.26 0 0 0 0-.348.25.25 0 0 0-.375-.027M19.07 7.183a.16.16 0 0 0 .019.173c.041.033.127.097.165.048a.16.16 0 0 0 0-.168c-.015-.038-.146-.102-.184-.053M17.728 6.08a.29.29 0 0 0-.376.027.345.345 0 0 0-.03.446.44.44 0 0 0 .514.03c.072-.09.027-.364-.108-.502M17.45 9.021a.17.17 0 0 0 0 .195.17.17 0 0 0 .161 0 .16.16 0 0 0 0-.154c0-.026-.116-.097-.161-.04M16.895 2.897a.41.41 0 0 0-.484 0 .35.35 0 0 0 .056.439c.09.082.207.067.312-.041.105-.11.198-.304.116-.398M13.156 3.906a.326.326 0 0 0-.487.026.375.375 0 0 0-.06.5.48.48 0 0 0 .54 0 .326.326 0 0 0 .007-.526M12.391 2.965c.173.195.375.146.559.037.083.116.12.285.315.218a.23.23 0 0 0 .169-.248c0-.202-.188-.202-.338-.214 0-.056-.022-.108-.03-.16q-.348.172-.686.352zM19.243 3.23c-.094-.16-.244-.176-.435 0a3.5 3.5 0 0 0-.195.488.22.22 0 0 0 .157.285.23.23 0 0 0 .293-.135.8.8 0 0 1 .12-.187.35.35 0 0 0 .06-.45M12.305 4.945a.312.312 0 0 0-.566-.023q-.136.228-.207.484a.49.49 0 0 0 .282.503c.105.045.375.052.375-.177-.132-.375.146-.375.139-.652a.4.4 0 0 0-.023-.135M13.449 5.863c.09-.045.097-.232 0-.273a.24.24 0 0 0-.222.026c-.045.041-.12.199-.07.262.048.064.228.019.292-.015M14.308 5.38c-.124-.124-.297-.102-.458.06a.266.266 0 0 0-.053.374.52.52 0 0 0 .54.053.32.32 0 0 0-.03-.488M10.783 6.26a.075.075 0 0 0 0 .102c0 .019.075 0 .09 0s.03-.064 0-.086a.067.067 0 0 0-.09-.015M31.074 7.446a.416.416 0 0 0-.131-.548.45.45 0 0 0-.65.132.375.375 0 0 0 .076.513.56.56 0 0 0 .705-.097M30.909 9.156a.255.255 0 0 0 .27-.184.217.217 0 0 0-.169-.27.25.25 0 0 0-.266.188.206.206 0 0 0 .165.266M31.584 6.872a.255.255 0 0 0-.188-.266.3.3 0 0 0-.303.191.24.24 0 0 0 .19.262.263.263 0 0 0 .3-.187M31.284 8.78c.041 0 .172-.06.18-.13.007-.072-.143-.154-.191-.147a.2.2 0 0 0-.12.143.2.2 0 0 0 .13.135M29.99 4.536a.25.25 0 0 0-.079.412.35.35 0 0 0 .29.064.28.28 0 0 0 .15-.214.29.29 0 0 0-.36-.262M30.001 8.222c.18 0 .15-.165.206-.233a.4.4 0 0 0-.048-.573.375.375 0 0 0-.42.067.285.285 0 0 0-.053.375c.064.116.131.371.315.364M29.574 6.359c.071 0 .086-.252.052-.402a.2.2 0 0 0 .05.057s.115-.03.12-.057c.003-.026 0-.153-.06-.18s-.14.075-.136.098c0 0 0-.026-.022-.03-.087-.068-.282.079-.312.266-.03.188.214.263.308.248M30.961 4.6a.247.247 0 0 0-.348.04.25.25 0 0 0 .048.346.28.28 0 0 0 .375-.049.25.25 0 0 0-.075-.337M34.104 6.846a.27.27 0 0 0 .281-.248.26.26 0 0 0-.229-.262.28.28 0 0 0-.262.236.25.25 0 0 0 .21.274M33.856 5.66c-.048-.033-.131.001-.161.035-.03.033-.056.168 0 .202s.165-.03.188-.067a.14.14 0 0 0-.027-.17M33.695 8.061a.7.7 0 0 0-.15-.72.47.47 0 0 0-.626.173.53.53 0 0 0 .135.637.48.48 0 0 0 .641-.09M31.76 5.856a.233.233 0 0 0 0-.326.3.3 0 0 0-.221-.075c-.147 0-.184.127-.177.397.132.053.267.158.398.004M27.283 4.91a.176.176 0 0 0-.27.08.32.32 0 0 0 0 .243c.04.057.277.083.337 0a.23.23 0 0 0-.067-.322M26.803 2.17a.315.315 0 0 0-.44.03.41.41 0 0 0 .046.483.44.44 0 0 0 .559-.1c.063-.106-.015-.308-.165-.413M27.039 5.953a.5.5 0 0 0 .21 0c.101-.15.094-.296 0-.322a.4.4 0 0 0-.285.037c-.083.045-.03.244.075.285M36.23 8.74c.023-.15-.172-.21-.259-.252-.086-.041-.198.042-.221.169s.03.229.161.218c.132-.012.297.015.32-.135M26.87 7.547c.094-.206-.195-.375-.296-.326-.102.049-.165.322-.068.401.098.079.274.135.364-.075M25.378 5.297c.082-.112 0-.375-.158-.48a.295.295 0 0 0-.427.053.4.4 0 0 0 .056.528.43.43 0 0 0 .529-.1M25.306 8.451a.17.17 0 0 0 .158-.034.13.13 0 0 0 .005-.156.14.14 0 0 0-.039-.039c-.094-.049-.15.045-.172.086a.15.15 0 0 0 .048.143M27.241 3.977c.053-.045 0-.15-.041-.187a.12.12 0 0 0-.139 0c-.034.03 0 .12 0 .165s.131.067.18.022M27.729 3.985a.31.31 0 0 0 .469-.128c.104-.176.082-.352-.053-.427a.49.49 0 0 0-.585.138.38.38 0 0 0 .169.417M29.049 1.176a.23.23 0 0 0 .202.068.3.3 0 0 0 .116-.038q-.563-.169-1.125-.304a.375.375 0 0 0 .11.522.59.59 0 0 0 .43.09.2.2 0 0 0 .053.03c.041 0 .176-.02.184-.08a.1.1 0 0 0-.034-.07l.03-.03a.4.4 0 0 0 .034-.188M29.878 3.53a.3.3 0 0 0 .03-.067q.028.077.086.135a.5.5 0 0 0-.045.173.338.338 0 0 0 .326.401.375.375 0 0 0 .375-.3.2.2 0 0 1 .053.03.318.318 0 0 0 .528-.064.15.15 0 0 0 .064.064.28.28 0 0 0 .33-.142.285.285 0 0 0-.06-.405.24.24 0 0 0-.334.105.5.5 0 0 0-.198-.14.45.45 0 0 1-.278-.198.52.52 0 0 0-.454-.206.44.44 0 0 0-.375.285.2.2 0 0 0 0 .045.44.44 0 0 0-.172-.255c-.135-.083-.308 0-.428.176a.35.35 0 0 0 .03.439.465.465 0 0 0 .522-.075M31.074 5.725c.108 0 .206-.045.195-.162-.011-.116-.068-.307-.158-.315-.09-.007-.195.184-.232.27s.078.207.195.207M27.481 2.627c0-.045-.064-.101-.112-.12a.14.14 0 0 0-.15.079c0 .067.101.112.15.123a.12.12 0 0 0 .112-.082M27.991 2.567a.53.53 0 0 0 .686-.045.55.55 0 0 0-.138-.675.52.52 0 0 0-.634.169.41.41 0 0 0 .086.551M27.714 1.254a.5.5 0 0 0 .045-.127c.18.06.277-.049.375-.195a.3.3 0 0 1-.03-.06q-.54-.125-1.091-.225a.407.407 0 0 0 .067.694.412.412 0 0 0 .634-.087M42.519 25.79a.243.243 0 0 0 .322-.123.25.25 0 0 0-.09-.341.26.26 0 0 0-.337.101.285.285 0 0 0 .105.364M24.421 5.62a.146.146 0 0 0-.247 0c-.05.063-.124.255-.075.303.049.05.244 0 .319-.03s.09-.168.003-.273M42.56 25.09a.29.29 0 0 0 .22-.257q.005-.06-.014-.118a.254.254 0 0 0-.42 0 .35.35 0 0 0-.022.292.3.3 0 0 0 .236.083M42.699 27.156a.24.24 0 0 0 .375-.09.5.5 0 0 0-.109-.495.333.333 0 0 0-.458.176c-.093.146-.003.315.192.409M40.723 19.566c.018-.03 0-.053-.027-.087-.026-.033-.07 0-.086.03s0 .068 0 .072.094.015.112-.015M41.409 24.475c.052-.094-.117-.263-.308-.267-.191-.003-.228.248-.198.338s.453.026.506-.071M43.152 31.093c.135-.06.098-.022.222.064.123.086.348.131.423-.124a.5.5 0 0 0-.337-.574.596.596 0 0 0-.668.428c-.026.199.24.27.36.206M40.903 17.384a.405.405 0 0 0-.514-.147.38.38 0 0 0 .348.675.376.376 0 0 0 .166-.528M36.061 7.315c.045 0 .15-.094.117-.158a.17.17 0 0 0-.188-.056.16.16 0 0 0-.064.146.15.15 0 0 0 .135.068M40.34 25.356a.376.376 0 0 0-.499.146.566.566 0 0 0 .199.686.43.43 0 0 0 .525-.21.45.45 0 0 0-.225-.622M44.746 26.586a.35.35 0 0 0 .098.457.38.38 0 0 0 .255-.018q.057-.312.109-.623a.308.308 0 0 0-.462.184M39.02 26.534a.19.19 0 0 0-.161-.098.2.2 0 0 0-.116.15c0 .041.086.161.157.161s.131-.165.12-.213M44.315 29.455q-.047.21-.116.412a.21.21 0 0 0-.022.264.2.2 0 0 0 .07.063q.16-.457.3-.927a.225.225 0 0 0-.232.188M44.57 23.11a.55.55 0 0 0 .649-.233.526.526 0 0 0-.255-.604.41.41 0 0 0-.536.165.53.53 0 0 0 .142.672M23.083 4.525a.3.3 0 0 0-.226.052c-.075.071 0 .263.098.293a.5.5 0 0 0 .184-.027c.082-.15.049-.296-.056-.318M43.73 27.718c-.109-.037-.157.034-.195.113a.16.16 0 0 0 .03.217q.031.026.071.034a.8.8 0 0 0 .23-.038.243.243 0 0 0-.136-.326M39.808 28.866a.69.69 0 0 0 .69-.251.47.47 0 0 0-.26-.593.53.53 0 0 0-.614.225.47.47 0 0 0 .183.619M36.556 6.403a.45.45 0 0 0-.067-.232c.142 0 .221-.071.24-.188a.255.255 0 0 0-.308-.281c-.169.026-.228-.075-.334-.172a.7.7 0 0 0 .094-.128.2.2 0 0 0 .079-.026q.008.037.023.075a.27.27 0 0 0 .3.124c.112-.045.116-.244.093-.353a.44.44 0 0 0-.315-.217c0-.064.027-.06.109-.147a.2.2 0 0 0 .045-.06c-.157-.12-.326-.236-.487-.352a.6.6 0 0 0-.233.229.3.3 0 0 0-.034.142q-.184 0-.229.248c-.03.165-.052.375.218.49a1 1 0 0 1-.255.083.23.23 0 0 0-.255.2.33.33 0 0 0 .097.374c.405.311.555.304.92-.049l.03-.022a.8.8 0 0 0-.106.169.16.16 0 0 0 .052.198q.031.021.068.027a.187.187 0 0 0 .255-.132M38.158 16.401c.04 0 .138-.105.116-.161s-.154-.068-.191-.049-.102.09-.08.146a.14.14 0 0 0 .154.064M36.328 8.78a.075.075 0 0 0 .037-.097.07.07 0 0 0-.094-.026c-.022 0-.033.071-.022.086a.07.07 0 0 0 .078.038M39.339 22.04c.221.06.345-.247.281-.34s-.341-.12-.405 0-.094.28.124.34M38.278 20.78c.037 0 .15.038.187-.063s-.068-.142-.109-.157a.15.15 0 0 0-.135.067.17.17 0 0 0 .057.154M38.668 24.002a.23.23 0 0 0 .206-.064.15.15 0 0 0-.068-.24c-.063-.026-.243-.056-.296.08-.052.134.101.205.157.224M42.009 22.082a.172.172 0 0 0-.117-.255.3.3 0 0 0-.24.045c-.052.049-.04.285.06.33a.225.225 0 0 0 .297-.12M43.843 21.876a.25.25 0 0 0 .138-.296.214.214 0 0 0-.281-.143.25.25 0 0 0-.097.375.21.21 0 0 0 .24.064M44.293 18.407a.213.213 0 0 0-.09-.304.235.235 0 0 0-.33.101.26.26 0 0 0 .12.334.24.24 0 0 0 .3-.131M41.806 20.03a.3.3 0 0 0-.112-.416.43.43 0 0 0-.465.072c-.023-.049-.06-.12-.135-.105s-.075.131-.064.154c.034.042.082.07.135.078a.43.43 0 0 0 .188.443c.123.049.367-.072.453-.225M40.925 16.442c.15-.056.225-.172.184-.296a.41.41 0 0 0-.454-.236.28.28 0 0 0-.165.345.353.353 0 0 0 .435.187M44.266 21.426c.113.049.304-.06.375-.225a.307.307 0 0 0-.09-.424.4.4 0 0 0-.472.109.44.44 0 0 0 .187.54M14.345 3.471a.333.333 0 0 0 .056-.439.274.274 0 0 0-.375-.041.375.375 0 0 0 0 .48.214.214 0 0 0 .32 0M10.059 4.397l-.101.071a.23.23 0 0 0 .1-.071M42.414 11.665a.42.42 0 0 0-.458-.218.47.47 0 0 0 0-.424.43.43 0 0 0-.322-.202 1 1 0 0 0-.105-.086.3.3 0 0 0-.218-.023.5.5 0 0 0-.18.101c.11.269.171.554.184.844q.072-.01.143-.03a.4.4 0 0 0 .082-.038 1 1 0 0 0 .161 0 .24.24 0 0 0-.07.18c0 .143-.316.075-.308.278a.3.3 0 0 1-.03.12q.07.371.07.75a.2.2 0 0 0 .185 0 .8.8 0 0 0 .345-.435.2.2 0 0 0 .275-.023.2.2 0 0 0 .047-.09.206.206 0 0 0-.214-.22c.188-.027.537-.17.413-.484M14.533 4.656a.244.244 0 0 0-.345.045.207.207 0 0 0 0 .311.266.266 0 0 0 .352 0 .26.26 0 0 0-.007-.356M10.61 8.057a.218.218 0 0 0 .045-.33.2.2 0 0 0-.191-.037.26.26 0 0 0-.139.176c.008.165.203.214.285.191M45.324 24.1a1 1 0 0 0 .131.045c0-.18 0-.375.026-.544a.5.5 0 0 0-.255.206.2.2 0 0 0 .026.244q.03.032.072.049M10.329 5.725a.35.35 0 0 0-.064-.465.327.327 0 0 0-.495 0 .323.323 0 0 0-.045.461.48.48 0 0 0 .604.004M40.408 23.56c0-.109-.308-.263-.41-.158a.25.25 0 0 0 0 .323c.12.093.41-.056.41-.165"/><path fill="#fff" d="M24.118 6.388a.225.225 0 0 0 .22-.161.32.32 0 0 0 .038-.214c-.112 0-.296-.135-.375-.033-.079.1.034.273.049.375zM39.838 21.366c.04.03.183.075.243 0s-.067-.195-.112-.217c-.045-.023-.158-.038-.199.045a.16.16 0 0 0 .067.172M15.148 1.922a.3.3 0 0 0-.02-.217c-.374.138-.73.288-1.09.442.078.098.184.17.303.206a.86.86 0 0 0 .807-.43M40.501 19.352c0-.112.094-.315-.022-.375-.117-.06-.267.075-.375.105v.079c.037.142.086.161.191.199.068.018.14.016.206-.008M39.324 17.323a.21.21 0 0 0 .097.296c.143.064.375 0 .413-.086s-.079-.289-.192-.341a.234.234 0 0 0-.318.131M40.168 19.885a.25.25 0 0 0-.147-.293.19.19 0 0 0-.258.049c-.12.146-.057.274.04.424.162-.034.327.003.364-.18M39.774 15.71c-.023 0-.03.072 0 .09.03.02.045.05.075.034a.07.07 0 0 0 .042-.04.07.07 0 0 0-.001-.057.08.08 0 0 0-.116-.026M21.283 8.117a.237.237 0 0 0 0-.345.233.233 0 1 0-.327.326.19.19 0 0 0 .327.019M20.728 3.257a.457.457 0 0 0-.462-.435.45.45 0 0 0-.431.345c-.045.177.184.375.428.424a.44.44 0 0 0 .464-.334M22.231 4.91c0-.048 0-.15-.071-.202a.266.266 0 1 0-.356.375c.101.083.3.012.427-.172M20.128 4.517c.022 0 .048-.128 0-.169-.05-.041-.147.041-.177.083a.12.12 0 0 0 .026.135c.03.026.113-.015.15-.05M19.918 4.986a.15.15 0 0 0-.165.03c-.027.034-.057.169 0 .203.056.033.168-.03.19-.068.023-.037.023-.12-.026-.165M15.283 6.677a.34.34 0 0 0 .056-.438.484.484 0 0 0-.6 0 .304.304 0 0 0 .052.408.33.33 0 0 0 .492.03M20.158 3.966a.26.26 0 0 0-.207-.105c-.169.026-.154.172-.15.304.124.09.248.123.349 0a.2.2 0 0 0 .008-.2M22.198 6.906a.214.214 0 0 0 .31-.053c.083-.135.068-.375-.025-.42a.38.38 0 0 0-.375.143.224.224 0 0 0 .013.271q.032.038.077.059M23.765 3.816a.6.6 0 0 0 .266-.124c.083-.068.08-.169-.022-.248a.21.21 0 0 0-.195-.052.35.35 0 0 0-.105-.116.31.31 0 0 0-.375.063c-.135.207-.135.443 0 .526a.42.42 0 0 0 .431-.05M23.416 3.025a.247.247 0 0 0 .023-.375.28.28 0 0 0-.375 0 .29.29 0 0 0 0 .375.23.23 0 0 0 .352 0M24.035 4.78a.16.16 0 0 0 .24-.09c.026-.076.09-.274 0-.32-.09-.044-.274.068-.319.136a.193.193 0 0 0 .079.273M22.651 4.056c-.09-.071-.18 0-.232.09s-.034.247.067.27c.101.022.255.079.304-.053.049-.13-.071-.25-.139-.307M22.708 8.124c.045-.03.12-.202.075-.255-.046-.052-.218-.018-.244 0-.027.02-.083.173-.053.218a.23.23 0 0 0 .221.037M22.854 2.031a.56.56 0 0 0-.679.128c-.146.19-.06.476.203.667a.41.41 0 0 0 .57-.09.533.533 0 0 0-.094-.705M19.895 5.62a.28.28 0 0 0-.034-.244.194.194 0 0 0-.307-.03.214.214 0 0 0-.023.292c.056.083.327.075.364-.018M17.281 4.033a.28.28 0 0 0 0 .353c.146.127.297.048.439 0 .03-.29 0-.402-.161-.443a.244.244 0 0 0-.278.09M18.204 3.685c.183-.192.202-.345.067-.477a.405.405 0 0 0-.472.023.45.45 0 0 0 .064.484.225.225 0 0 0 .34-.03M17.435 5.376c.158-.105.277-.21.203-.375a.22.22 0 0 0-.192-.113.35.35 0 0 0-.236.176c-.053.17.098.222.225.312M17.296 2.515a.41.41 0 0 1 .375.281.375.375 0 0 0 .44.109.46.46 0 0 0 .142-.3.2.2 0 0 0 .06-.079.226.226 0 0 0-.162-.277.16.16 0 0 0-.168-.068.57.57 0 0 1-.48-.105.19.19 0 0 0-.3.086c-.09.132-.046.342.093.353M16.194 6.692a.28.28 0 0 0-.375 0 .29.29 0 0 0 0 .375.23.23 0 0 0 .318 0 .246.246 0 0 0 .109-.281.25.25 0 0 0-.052-.094M19.614 8.53c.022 0 .03-.12 0-.132a.2.2 0 0 0-.162-.022c-.03 0-.075.154-.045.184s.166-.004.207-.03M16.156 8a.15.15 0 0 0 0-.247c-.086-.071-.18-.123-.288-.033-.11.09-.046.326.033.375s.184-.042.255-.094M15.826 9.531a.27.27 0 0 0 0-.322c-.082-.09-.27 0-.375.04-.105.042-.154.312-.067.402.086.09.367-.03.442-.12M18.939 5.597c-.086-.075-.158-.026-.221.034a.16.16 0 0 0-.054.212.2.2 0 0 0 .054.058c.075.041.157.086.225.049.067-.038.09-.274-.004-.353M19.576 2.249c.062.024.13.024.191 0 .132-.068.188.266.375.187.188-.079.35.098.56-.019.21-.116.337-.375.172-.513a.82.82 0 0 0-.544-.162.24.24 0 0 0-.12.027.375.375 0 0 0-.053-.432c-.12-.082-.33 0-.45.177a.28.28 0 0 0-.333.056.42.42 0 0 0-.034.502.46.46 0 0 0-.375.143.47.47 0 0 0 .052.619.374.374 0 0 0 .533 0 .62.62 0 0 0 .026-.585M18.631 1.761l.26-.251a1.4 1.4 0 0 0-.117-.203.25.25 0 0 0-.24-.097.33.33 0 0 0-.094-.24l-.034-.034a.18.18 0 0 0-.04-.176c-.226.045-.45.101-.672.154q.008.014.022.022c.203.06.18.236.214.375a.248.248 0 0 0 .375.191l.049-.026a.2.2 0 0 0 .052.109 1 1 0 0 0 .225.176M19.64 4.91c.09 0 .127-.104.086-.202a.37.37 0 0 0-.221-.199.116.116 0 0 0-.15.105c0 .08.056.128.113.18.056.053.093.11.172.117M18.909 8.372a.07.07 0 0 0 0-.086.07.07 0 0 0-.05-.021.07.07 0 0 0-.052.02.08.08 0 0 0 0 .102s.09.019.102-.015M18.808 7.896c.112-.116.13-.244.048-.311a.4.4 0 0 0-.427 0 .255.255 0 0 0 .115.397.24.24 0 0 0 .264-.086"/><path fill="#7DE2D1" d="M41.923 8.455H16.73v7.87h25.193z"/><path fill="#42D4C6" d="M28.033 9.97a.195.195 0 0 0-.248.16.23.23 0 0 0 .099.241.2.2 0 0 0 .085.034.21.21 0 0 0 .202-.125.2.2 0 0 0 .019-.082.203.203 0 0 0-.158-.228M27.901 11.084a.24.24 0 0 0 .034.153.21.21 0 0 0 .094.18.236.236 0 0 0 .319-.082.29.29 0 0 0 .138-.24c0-.173-.075-.342-.198-.353a.44.44 0 0 0-.387.341M27.474 12.53a.4.4 0 0 0-.109-.056h.023s0-.067-.027-.075c-.026-.007-.06 0-.075 0a.07.07 0 0 0 0 .068.3.3 0 0 0-.079 0c-.303 0-.405.067-.442.319a.4.4 0 0 0 .03.195.35.35 0 0 0-.244.165.27.27 0 0 0 0 .318h-.045a.323.323 0 0 0-.375.278v.026a.214.214 0 0 0-.262.064.27.27 0 0 0 .045.311q.05.032.108.034a.37.37 0 0 0-.194.311.285.285 0 0 0 .22.311.323.323 0 0 0 .406-.142.38.38 0 0 0 0-.349.59.59 0 0 0 .409-.375.46.46 0 0 0-.147-.326.28.28 0 0 0 .304-.034.3.3 0 0 0 .255.233.293.293 0 0 0 .349-.274c.03-.15-.064-.323-.18-.334h-.049a.43.43 0 0 0 .191-.311.4.4 0 0 0 0-.143.55.55 0 0 0 .533 0 .4.4 0 0 0 .064-.49c-.064-.12-.14-.207-.057-.357s-.034-.191-.142-.236c-.154.063-.195.165-.135.288q-.17.108-.319.244a.5.5 0 0 0-.056.338m-.375.796a.4.4 0 0 0 0-.143q.045.02.093.026h.057a.5.5 0 0 0-.15.098zM28.426 12.411a.18.18 0 0 0 0 .169.22.22 0 0 0 .18.082c.135-.034.143-.21.105-.277a.19.19 0 0 0-.285.026M28.539 9.103a.26.26 0 0 0-.304.075.195.195 0 0 0 .053.274.215.215 0 1 0 .25-.349M28.228 13.495a.38.38 0 0 0 .243.337c.113 0 .296-.157.323-.307a.18.18 0 0 0-.085-.196.2.2 0 0 0-.073-.022c-.229-.026-.386.042-.409.188M25.138 15.576q.06-.075.112-.158a.315.315 0 0 0 0-.393.7.7 0 0 0-.218-.169v.75h.094zM26.004 11.192a.29.29 0 0 0 .322-.277c0-.173-.093-.375-.229-.375a.42.42 0 0 0-.375.3.29.29 0 0 0 .156.325q.06.028.126.027M25.565 14.717a.14.14 0 0 0 0-.217.2.2 0 0 0-.109-.045.21.21 0 0 0-.139-.195c-.108-.038-.318.131-.288.236s.15.105.244.109c-.02.079-.027.18.04.217.068.038.207-.041.252-.105M25.884 9.37c-.083.127-.03.27.139.374q.068.047.15.053a.18.18 0 0 0-.09.135.23.23 0 0 0 .16.24q.016.037.046.064c.041.03.191.063.236 0 .045-.064 0-.143-.041-.207-.041-.063 0 0 0-.018a.205.205 0 0 0-.154-.263h-.034a.2.2 0 0 0 .05-.041.46.46 0 0 0-.06-.469.282.282 0 0 0-.402.131M25.269 13.855c.146 0 .232-.105.285-.244.191.023.326-.056.341-.199a.4.4 0 0 0 0-.13.2.2 0 0 0 .034-.038.205.205 0 0 0-.09-.285.22.22 0 0 0-.206-.023.27.27 0 0 0-.203-.146c-.157-.023-.322.06-.345.176s.008.881.184.889M26.66 8.672a.315.315 0 0 0-.356 0 .2.2 0 0 0-.098-.034.203.203 0 0 0-.22.203.21.21 0 0 0 .107.23.2.2 0 0 0 .087.025.2.2 0 0 0 .109-.038.35.35 0 0 0 .116.146.26.26 0 0 0 .334-.12.284.284 0 0 0-.079-.412"/><path fill="#42D4C6" d="M26.953 14.305a.27.27 0 0 0 .25-.226.2.2 0 0 0-.18-.213.226.226 0 0 0-.07.439M25.246 12.313c.041.085.106.156.188.203.161.086.326-.075.514-.056h.097a.2.2 0 0 0 .041.206.16.16 0 0 0 .244.049.34.34 0 0 0 .131-.222.165.165 0 0 0-.112-.15.5.5 0 0 0 .12-.307.48.48 0 0 0 .187-.266c0-.098-.022-.312-.225-.3a.4.4 0 0 1-.169.067.53.53 0 0 0-.277-.067c-.154 0-.266-.113-.409-.05a.64.64 0 0 0-.397.665v.026a.28.28 0 0 0-.158-.068v.338h.023a.21.21 0 0 0 .202-.068M32.6 15.808a.26.26 0 0 0 .106.275q.045.03.096.04c.177.026.376-.097.376-.24a.375.375 0 0 0-.278-.375c-.097-.026-.27.139-.3.3M32.229 15.381a.34.34 0 0 0 0-.533.37.37 0 0 0-.447-.03.4.4 0 0 0-.112.113c-.187.251.097.398-.075.506-.172.109-.199-.097-.435.072s-.229.476-.038.55c.192.076.323-.048.375-.022.053.027.17.21.3.113.274-.206.027-.405.09-.491.064-.087.237-.158.342-.278M33.418 9.718a.17.17 0 0 0 .06-.153c0-.034-.113-.113-.173-.09-.06.022-.068.168-.045.206a.16.16 0 0 0 .157.037M29.533 16.183c.093 0 .176-.07.22-.135.046-.063-.033-.18-.123-.198-.09-.02-.195.04-.195.123s-.011.195.098.21M33.155 12.268c-.12-.052-.33.15-.3.24s.326.14.375.027a.214.214 0 0 0-.075-.267M27.47 8.683a.44.44 0 0 0 .424.158c.112-.041.236-.075.217-.244v-.142h-.615a.28.28 0 0 0-.026.228M25.078 10.045h-.053v1.267h.06a.2.2 0 0 0 .098-.093.32.32 0 0 0 .352-.08.41.41 0 0 0-.116-.453.3.3 0 0 0-.102-.041.4.4 0 0 0 .105-.18h.098a.375.375 0 0 0 .293-.409.405.405 0 0 0-.507-.225.43.43 0 0 0-.229.214M25.43 9.486a.18.18 0 0 0 .262-.075.236.236 0 0 0-.074-.296.13.13 0 0 0-.064 0 .27.27 0 0 0-.218-.038.19.19 0 0 0-.022.27.23.23 0 0 0 .116.139M26.656 10.104a.41.41 0 0 0 .162.405.32.32 0 0 0-.196.17.413.413 0 0 0 .09.57.49.49 0 0 0 .428-.03.195.195 0 0 0 .165.194.23.23 0 0 0 .236-.191.217.217 0 0 0-.172-.251h-.041a.37.37 0 0 0-.162-.375h-.022a.38.38 0 0 0 .24-.334.5.5 0 0 0 0-.184.17.17 0 0 0 .154 0 .28.28 0 0 0 .07-.394.34.34 0 0 0-.153-.12.2.2 0 0 0-.075-.112.206.206 0 0 0-.277.03.21.21 0 0 0 0 .225.3.3 0 0 0-.023.127.4.4 0 0 0-.424.27M28.591 12.801a.24.24 0 0 0-.255.203.255.255 0 0 0 .222.243.217.217 0 0 0 .236-.191.23.23 0 0 0-.203-.255M29.697 15.23c0-.104-.052-.198-.15-.18a.6.6 0 0 0-.18.087.2.2 0 0 0 .045.162.2.2 0 0 0 .15.074c.102.004.124-.067.135-.142M26.098 16.093a.375.375 0 0 0 .45.192.346.346 0 0 0 .266-.47c-.068-.115-.229-.172-.244-.258s.109.068.15-.229c.041-.296-.326-.57-.54-.288-.034.045-.289-.2-.476.033a.353.353 0 0 0 .078.585q.122.095.188.233a.19.19 0 0 0 .128.202M29.806 14.462a.47.47 0 0 0-.288-.525.48.48 0 0 0-.48.375.44.44 0 0 0 .375.435.375.375 0 0 0 .393-.285M31.089 13.101a.165.165 0 0 0 .12.199c.232.071.48.071.712 0a.6.6 0 0 0 .094-.068.274.274 0 0 0-.15-.472q-.223-.046-.45-.03a.42.42 0 0 0-.326.371M25.269 8.818a.4.4 0 0 0 .45-.12.29.29 0 0 0 0-.243h-.495c-.068.153-.056.3.045.363M31.783 11.999c-.023.09.165.19.326.146s.123-.266.075-.334c-.049-.068-.368.094-.401.188M32.259 14.222c.026-.052-.041-.243-.135-.258a.2.2 0 0 0-.218.176.153.153 0 0 0 .162.184.27.27 0 0 0 .19-.102M25.678 16.097h-.023a.1.1 0 0 0 0-.075.11.11 0 0 0-.079-.06.34.34 0 0 0-.319-.304 1 1 0 0 0-.082 0q-.058.072-.12.139v.375a.4.4 0 0 0 .18.067 1 1 0 0 0-.064.087h.672a.2.2 0 0 0-.034-.15.2.2 0 0 0-.132-.08M32.502 12.966c.038-.03 0-.116 0-.146s-.127-.06-.172 0 0 .142.041.161a.14.14 0 0 0 .131-.015M32.502 10.229a.375.375 0 0 0-.372.464.395.395 0 0 0 .339.304.32.32 0 0 0 .375-.25c.026-.222-.162-.507-.342-.518M32.821 13.956c0-.067-.063-.127-.082-.161-.158-.027-.27.034-.252.12.016.084.063.16.132.21.075.045.21-.072.202-.169M33.991 13.85c.075.06.315 0 .342-.093.026-.094 0-.266-.195-.259s-.225.293-.147.353M34.246 16.09a.195.195 0 0 0-.21-.113.27.27 0 0 0-.18.049c.03.086 0 .247.094.3h.112c.072-.041.136-.128.196-.165zM35.341 14.282c-.034 0-.131 0-.139.098-.007.097.094.101.132.105.037.004.097-.06.093-.094a.13.13 0 0 0-.086-.109M31.869 8.75a.46.46 0 0 0 .435-.295h-.791a.44.44 0 0 0 .356.296M33.616 15.906c0 .03.026.04.045.063s.056-.026.064-.045c.008-.018-.023-.056-.03-.056-.008 0-.071.008-.079.038M33.695 14.26c-.026.093.105.146.15.15.045.003.139 0 .154-.087a.135.135 0 0 0-.105-.139c-.041-.015-.169-.018-.199.075M34.408 11.841c0-.127-.14-.146-.192-.146a.21.21 0 0 0-.157.105.135.135 0 0 0 .12.184c.041.003.195-.015.228-.143M28.76 15.97a.352.352 0 0 0 .416-.349c.03-.255-.082-.427-.3-.454a.424.424 0 0 0-.461.327.43.43 0 0 0 .345.476M28.846 9.655a.21.21 0 0 0 .199.236c.097 0 .12-.068.131-.143s-.048-.198-.15-.18a.8.8 0 0 0-.18.087M30.125 13.015a.4.4 0 0 0-.259-.375h-.064a.4.4 0 0 0 .094-.158.68.68 0 0 0-.037-.465.3.3 0 0 1 0-.176.278.278 0 0 0-.248-.394.12.12 0 0 0 .03-.075c0-.097-.108-.195-.236-.206a.25.25 0 0 0-.296.195.21.21 0 0 0 .122.208.2.2 0 0 0 .084.017.4.4 0 0 0-.034.21c.02.101 0 .206-.056.292a.444.444 0 0 0 .155.594.38.38 0 0 0 .22.044h.041a.38.38 0 0 0-.138.232c0 .135.105.244.296.27s.311-.105.326-.213M29.341 8.965c.098 0 .12-.068.131-.143s-.048-.199-.15-.184a.8.8 0 0 0-.18.09.214.214 0 0 0 .2.237M27.073 14.841c.06 0 .108-.09.112-.172.075 0 .146 0 .173-.034s-.094-.233-.128-.233-.214-.03-.281.053a.08.08 0 0 0 0 .075.12.12 0 0 0-.064.052c-.071.113.022.255.188.259M27.283 15.86a.415.415 0 0 0 .55.29.5.5 0 0 1 .136-.023c.15.071.236.03.296-.049.06-.078.03-.176-.026-.258s-.124-.184-.192-.27c-.067-.087-.142-.203-.296-.18a.17.17 0 0 1-.112-.053c-.221-.21-.308-.214-.503 0a.176.176 0 0 0 0 .274.54.54 0 0 1 .146.27M28.783 14.616c.033-.259-.098-.48-.297-.499a.33.33 0 0 0-.165.026.2.2 0 0 0-.022-.183.225.225 0 0 0-.267-.113c-.157.045-.142.195-.164.341a.53.53 0 0 0 .258.098.3.3 0 0 0-.075.158.454.454 0 0 0 .345.453.333.333 0 0 0 .386-.281M30.778 15.017a.31.31 0 0 0 .262-.285.266.266 0 0 0-.27-.322c-.176 0-.311.067-.319.199a.43.43 0 0 0 .326.408M29.743 9.68a.44.44 0 0 0 .217.376.3.3 0 0 0 .334-.263c.026-.135-.09-.255-.278-.289-.187-.033-.258.053-.273.177M30.118 15.876a.35.35 0 0 0 .375-.214.375.375 0 0 0-.285-.401c-.105 0-.237.127-.263.285a.27.27 0 0 0 .173.33M30.189 8.624c-.038 0-.113.022-.124.075a.12.12 0 0 0 .086.116c.038 0 .154 0 .162-.068.007-.067-.087-.12-.124-.123M30.613 12.156a.218.218 0 0 0 .352-.094.29.29 0 0 0-.056-.247.25.25 0 0 0-.225-.038.255.255 0 0 0-.072.379M31.141 10.592c0-.124.027-.27-.146-.315a.203.203 0 0 0-.255.124.25.25 0 0 0 .023.199c.067.108.168.097.378-.008M30.541 11.185a.213.213 0 0 0-.236.187.22.22 0 0 0 .158.259.23.23 0 0 0 .258-.165.255.255 0 0 0-.18-.281"/><path fill="#20377D" d="M25.265 8.455H16.73v7.87h8.535z"/><path fill="#7DE2D1" d="M20.998 14.496a2.104 2.104 0 1 0 0-4.207 2.104 2.104 0 0 0 0 4.207M29.274 19.39H4.08v7.87h25.193z"/><path fill="#42D4C6" d="M15.658 20.904a.187.187 0 0 0-.244.162.23.23 0 0 0 .18.273.214.214 0 0 0 .221-.206.2.2 0 0 0-.157-.229M15.508 22.019a.24.24 0 0 0 .033.153.2.2 0 0 0 .098.18.23.23 0 0 0 .315-.082.3.3 0 0 0 .135-.24c.022-.177-.072-.341-.199-.353a.44.44 0 0 0-.383.341M15.08 23.447a.3.3 0 0 0-.105-.056l.023-.019s0-.067-.03-.075a.06.06 0 0 0-.072 0 .06.06 0 0 0 0 .064 1 1 0 0 0-.079 0c-.303 0-.4.067-.438.319a.4.4 0 0 0 .03.195.35.35 0 0 0-.248.165.27.27 0 0 0 0 .318h-.045a.32.32 0 0 0-.375.278v.026a.206.206 0 0 0-.258.064.255.255 0 0 0 .04.307q.049.037.11.034a.42.42 0 0 0-.195.315.277.277 0 0 0 .224.308.32.32 0 0 0 .402-.14.38.38 0 0 0 0-.352.57.57 0 0 0 .409-.375.43.43 0 0 0-.143-.326.27.27 0 0 0 .3-.034.307.307 0 0 0 .607-.04c.027-.15-.067-.323-.18-.338h-.052a.42.42 0 0 0 .191-.315.35.35 0 0 0 0-.14.57.57 0 0 0 .537 0 .41.41 0 0 0 .06-.494c-.064-.116-.135-.206-.057-.375s-.034-.188-.142-.233c-.15.06-.195.165-.135.29q-.17.107-.319.243a.5.5 0 0 0-.06.386m-.375.795a.5.5 0 0 0-.023-.142q.048.017.098.026h.053a.5.5 0 0 0-.124.116zM16.033 23.346a.2.2 0 0 0 0 .169c.04.045.127.097.18.082a.2.2 0 0 0 .127-.197.2.2 0 0 0-.022-.08.19.19 0 0 0-.285.026M16.145 20.03a.25.25 0 0 0-.3.076.196.196 0 0 0 .049.274.24.24 0 0 0 .326-.053.23.23 0 0 0-.075-.296M15.834 24.43a.38.38 0 0 0 .244.337c.112 0 .296-.158.322-.308a.172.172 0 0 0-.157-.217c-.21-.034-.387.041-.41.187M12.744 26.511q.063-.076.116-.157a.32.32 0 0 0 0-.394.7.7 0 0 0-.217-.169v.75h.09zM13.61 22.127a.286.286 0 0 0 .322-.277.34.34 0 0 0-.228-.375.41.41 0 0 0-.375.3.285.285 0 0 0 .281.352M13.175 25.656a.134.134 0 0 0 .04-.17.13.13 0 0 0-.04-.048.2.2 0 0 0-.105-.045.21.21 0 0 0-.135-.195c-.112-.037-.322.128-.293.233s.154.109.244.112c0 .08-.026.18.042.218.067.037.198-.06.247-.105M13.494 20.305c-.083.127-.034.27.135.375q.068.045.15.052a.19.19 0 0 0-.09.135.236.236 0 0 0 .161.24q.016.036.045.06c.045.034.191.068.236 0 .045-.067 0-.142-.04-.206a.206.206 0 0 0-.155-.262h-.03a.2.2 0 0 0 .045-.042.46.46 0 0 0-.06-.468.277.277 0 0 0-.397.116M12.879 24.79c.146 0 .229-.106.281-.244.191.022.33-.06.341-.2a.4.4 0 0 0 0-.13.2.2 0 0 0 .03-.038.21.21 0 0 0-.024-.234.2.2 0 0 0-.066-.05.21.21 0 0 0-.202-.023.27.27 0 0 0-.207-.147c-.157-.022-.322.06-.34.177-.02.116.007.88.187.888M14.266 19.607a.31.31 0 0 0-.375 0 .2.2 0 0 0-.097-.037.23.23 0 0 0-.011.461q.06 0 .108-.037.04.088.117.15a.263.263 0 0 0 .333-.12.282.282 0 0 0-.075-.417"/><path fill="#42D4C6" d="M14.563 25.24a.27.27 0 0 0 .247-.225.207.207 0 0 0-.18-.218.214.214 0 0 0-.225.206.206.206 0 0 0 .158.237M12.853 23.245c.04.087.107.16.19.206.158.086.323-.079.515-.056h.097a.19.19 0 0 0 .038.206.16.16 0 0 0 .243.049.32.32 0 0 0 .132-.222.16.16 0 0 0-.113-.15.5.5 0 0 0 .12-.307.47.47 0 0 0 .188-.266c0-.098-.023-.312-.225-.3a.5.5 0 0 1-.165.067.55.55 0 0 0-.278-.067c-.157 0-.266-.113-.409-.053a.65.65 0 0 0-.4.668v.026a.26.26 0 0 0-.155-.068v.338h.023a.21.21 0 0 0 .199-.071M20.21 26.743a.25.25 0 0 0 .103.275q.044.03.096.04c.176.026.375-.097.375-.24a.375.375 0 0 0-.274-.375c-.101-.037-.274.135-.3.3M19.835 26.316a.342.342 0 0 0 0-.532.376.376 0 0 0-.559.082c-.187.247.102.394-.075.506-.176.113-.198-.101-.435.072-.236.172-.228.476-.037.55.191.076.322-.052.375-.022s.169.206.3.109c.277-.206.026-.405.09-.491.064-.087.24-.154.341-.274M21.028 20.654a.17.17 0 0 0 .056-.154.19.19 0 0 0-.173-.094c-.06 0-.063.172-.045.206a.17.17 0 0 0 .162.042M17.124 27.118c.094 0 .172-.071.221-.139.049-.067-.034-.176-.127-.195-.094-.018-.192.038-.195.124s.007.195.1.21M20.761 23.203c-.116-.052-.33.15-.296.24s.323.14.375.027a.21.21 0 0 0-.079-.267M15.08 19.618a.42.42 0 0 0 .42.154c.113-.037.236-.075.221-.24v-.142h-.615a.27.27 0 0 0-.026.228M12.684 20.98h-.049v1.267h.06a.23.23 0 0 0 .094-.093.31.31 0 0 0 .352-.08.41.41 0 0 0-.116-.453.3.3 0 0 0-.101-.041.4.4 0 0 0 .105-.18h.101a.375.375 0 0 0 .289-.409.4.4 0 0 0-.503-.225.43.43 0 0 0-.232.214M13.033 20.406a.18.18 0 0 0 .258-.075.23.23 0 0 0-.071-.297.2.2 0 0 0-.068-.022c-.048-.053-.138-.041-.213-.034-.079.09-.101.188-.027.27a.23.23 0 0 0 .12.158M14.263 21.04a.42.42 0 0 0 .16.405.31.31 0 0 0-.194.168.41.41 0 0 0 .093.57.49.49 0 0 0 .424-.03.2.2 0 0 0 .169.195.226.226 0 0 0 .233-.195.21.21 0 0 0-.17-.247h-.04a.4.4 0 0 0-.165-.375h-.023a.38.38 0 0 0 .244-.334.6.6 0 0 0 0-.184.18.18 0 0 0 .15 0 .28.28 0 0 0 .075-.375.34.34 0 0 0-.158-.12.2.2 0 0 0-.071-.116.203.203 0 0 0-.3.259.3.3 0 0 0-.019.124.41.41 0 0 0-.409.255M16.198 23.736a.233.233 0 0 0-.252.202.255.255 0 0 0 .222.244.22.22 0 0 0 .236-.191.24.24 0 0 0-.206-.255M17.304 26.166c0-.109-.053-.199-.15-.18a.6.6 0 0 0-.18.086.214.214 0 0 0 .195.236c.101.004.124-.067.135-.142M13.704 27.028a.375.375 0 0 0 .454.192.345.345 0 0 0 .262-.47c-.067-.115-.229-.172-.244-.262s.11.072.154-.225c.045-.296-.33-.57-.544-.288-.03.04-.285-.203-.472.033-.188.237-.154.44.079.582a.7.7 0 0 1 .187.236.194.194 0 0 0 .124.202M17.413 25.397c.033-.243-.11-.498-.29-.525a.48.48 0 0 0-.48.375.446.446 0 0 0 .376.435.35.35 0 0 0 .394-.285M18.695 24.036c0 .097.026.176.12.198.232.072.48.072.713 0a.3.3 0 0 0 .093-.067.27.27 0 0 0-.146-.469q-.223-.045-.45-.034a.42.42 0 0 0-.33.372M12.875 19.753a.41.41 0 0 0 .454-.12.3.3 0 0 0 0-.243h-.495c-.072.153-.056.3.041.363M19.408 22.934c0 .09.165.187.326.142s.127-.262.078-.33c-.048-.067-.386.094-.405.188M19.865 25.157c.03-.052-.037-.244-.135-.259a.203.203 0 0 0-.214.177.15.15 0 0 0 .034.133.15.15 0 0 0 .127.05.27.27 0 0 0 .188-.1M13.284 27.028h-.023a.12.12 0 0 0 0-.07.11.11 0 0 0-.082-.06.34.34 0 0 0-.315-.3h-.087l-.12.138v.375a.4.4 0 0 0 .18.067.3.3 0 0 0-.063.083h.634a.195.195 0 0 0-.124-.233M20.109 23.9c.041-.03 0-.115 0-.145a.15.15 0 0 0-.169 0c-.045.044 0 .142.038.16a.13.13 0 0 0 .13-.014M20.109 21.156a.375.375 0 0 0-.375.307.376.376 0 0 0 .345.462.31.31 0 0 0 .375-.248.49.49 0 0 0-.345-.521M20.428 24.906c0-.064-.064-.124-.083-.158-.157-.026-.266.034-.251.12s.064.16.135.21c.071.027.206-.09.198-.172M21.598 24.786c.075.06.315 0 .34-.098.027-.097 0-.262-.194-.258-.195.003-.221.296-.146.356M21.856 27.025a.195.195 0 0 0-.21-.113.3.3 0 0 0-.184.05c.034.085 0 .247.094.3h.116c.072-.042.132-.128.192-.17zM22.948 25.217a.11.11 0 0 0-.09.02.11.11 0 0 0-.046.078c0 .09.09.101.132.105a.14.14 0 0 0 .094-.094c-.004-.045-.053-.105-.09-.109M19.475 19.686a.46.46 0 0 0 .435-.296h-.787a.43.43 0 0 0 .352.296M21.223 26.84c0 .03.026.038.044.064.02.027.057-.026.068-.044.011-.02-.026-.057-.03-.057s-.075.008-.082.038M21.305 25.195c-.03.094.105.146.15.15s.139 0 .15-.086a.14.14 0 0 0-.101-.143c-.045-.011-.173-.015-.199.079M21.995 22.776c0-.128-.139-.146-.187-.15a.2.2 0 0 0-.158.109.13.13 0 0 0 .055.166q.029.016.061.018c.06.003.218-.015.23-.143M16.366 26.905a.375.375 0 0 0 .42-.35c.03-.254-.086-.427-.303-.453a.416.416 0 0 0-.458.326.43.43 0 0 0 .341.477M16.456 20.59a.21.21 0 0 0 .195.236c.102 0 .124-.068.135-.143s-.052-.198-.15-.18a.6.6 0 0 0-.18.087M17.735 23.95a.4.4 0 0 0-.259-.394h-.063a.4.4 0 0 0 .09-.158.68.68 0 0 0-.034-.465.27.27 0 0 1 0-.172.277.277 0 0 0-.244-.375.14.14 0 0 0 .026-.075c0-.098-.105-.195-.232-.206a.25.25 0 0 0-.262.103.3.3 0 0 0-.038.091.214.214 0 0 0 .206.226.4.4 0 0 0-.034.21c.02.1.002.205-.052.292a.45.45 0 0 0 0 .431.38.38 0 0 0 .375.207h.041a.38.38 0 0 0-.139.232c0 .135.109.244.3.27a.27.27 0 0 0 .319-.218M16.948 19.9c.1 0 .123-.068.135-.143.01-.075-.053-.199-.15-.184a.6.6 0 0 0-.18.087.21.21 0 0 0 .195.24M14.679 25.776c.064 0 .112-.09.112-.173.075 0 .15 0 .177-.037.026-.038-.098-.229-.128-.229-.094 0-.217-.034-.281.053a.09.09 0 0 0 0 .075.1.1 0 0 0-.06.052c-.079.113.034.251.18.259M14.908 26.78a.416.416 0 0 0 .55.286q.07-.015.14-.023c.146.072.232.034.292-.045s.034-.176-.026-.259c-.06-.082-.124-.183-.192-.27-.067-.086-.142-.202-.292-.18a.17.17 0 0 1-.116-.052c-.221-.21-.304-.214-.503 0-.082.086-.108.195 0 .274a.55.55 0 0 1 .147.27M16.385 25.55c.034-.258-.094-.48-.293-.498a.3.3 0 0 0-.164.026.2.2 0 0 0-.027-.183.22.22 0 0 0-.262-.113c-.158.045-.146.195-.169.338a.5.5 0 0 0 .259.1.34.34 0 0 0-.075.158.46.46 0 0 0 .349.454.33.33 0 0 0 .382-.281M18.384 25.952c.12 0 .251-.142.266-.288a.27.27 0 0 0-.274-.32c-.176 0-.307.068-.315.2a.43.43 0 0 0 .323.408M17.349 20.616c0 .127.116.375.217.375a.29.29 0 0 0 .334-.263c.026-.131-.09-.251-.277-.285s-.26.049-.274.173M17.724 26.81a.35.35 0 0 0 .375-.213.375.375 0 0 0-.285-.401c-.109 0-.24.127-.267.285a.274.274 0 0 0 .177.33M17.799 19.559c-.041 0-.116.022-.124.075-.008.052.049.105.086.116.038.011.15 0 .158-.068.007-.067-.083-.12-.12-.123M18.219 23.095A.22.22 0 0 0 18.57 23a.28.28 0 0 0-.052-.247.23.23 0 0 0-.225-.038.25.25 0 0 0-.075.379M18.748 21.53c0-.12.026-.266-.147-.31a.203.203 0 0 0-.255.12.27.27 0 0 0 .023.202c.071.097.169.09.378-.011M18.148 22.12a.214.214 0 0 0-.237.187.22.22 0 0 0 .161.259.226.226 0 0 0 .256-.169.25.25 0 0 0-.18-.277"/><path fill="#20377D" d="M12.616 19.39H4.081v7.87h8.535z"/><path fill="#7DE2D1" d="M42.406 30.325H17.214v7.871h25.192z"/><path fill="#42D4C6" d="M28.625 31.84a.19.19 0 0 0-.247.16.23.23 0 0 0 .18.274.22.22 0 0 0 .224-.206.2.2 0 0 0-.157-.229M28.486 32.954a.23.23 0 0 0 .034.15.18.18 0 0 0 .094.18.233.233 0 0 0 .319-.08.3.3 0 0 0 .134-.24c.023-.175-.07-.344-.195-.374a.44.44 0 0 0-.386.364M28.055 34.379a.4.4 0 0 0-.105-.057.1.1 0 0 0 .023-.018s0-.064-.027-.072c-.026-.007-.06 0-.075 0a.06.06 0 0 0 0 .064 1 1 0 0 0-.078 0c-.304 0-.405.068-.443.315a.4.4 0 0 0 .03.199.35.35 0 0 0-.247.165.28.28 0 0 0 0 .319l-.045-.02a.323.323 0 0 0-.375.282v.026a.203.203 0 0 0-.263.064.25.25 0 0 0 .045.308q.047.035.105.033a.41.41 0 0 0-.191.315.273.273 0 0 0 .221.308.32.32 0 0 0 .405-.139.38.38 0 0 0 0-.352.59.59 0 0 0 .413-.375.46.46 0 0 0-.147-.327.27.27 0 0 0 .304-.037.307.307 0 0 0 .604-.041.28.28 0 0 0-.18-.334h-.049a.44.44 0 0 0 .191-.315.4.4 0 0 0 0-.139.57.57 0 0 0 .533 0 .41.41 0 0 0 .063-.495c-.063-.116-.138-.206-.056-.375s-.033-.187-.146-.236c-.15.064-.195.169-.131.292q-.17.107-.319.244a.49.49 0 0 0-.06.398m-.375.798a.5.5 0 0 0-.022-.142q.047.016.097.026h.056a.6.6 0 0 0-.127.116zM29.011 34.28a.18.18 0 0 0 0 .173.24.24 0 0 0 .177.083.2.2 0 0 0 .108-.278.192.192 0 0 0-.285.023M29.12 30.973a.25.25 0 0 0-.3.075.19.19 0 0 0 .049.27.23.23 0 0 0 .326-.049.23.23 0 0 0-.075-.296M28.809 35.365a.39.39 0 0 0 .247.337c.113 0 .293-.157.319-.307a.177.177 0 0 0-.154-.222c-.229-.03-.386.041-.412.191M25.723 37.446q.06-.075.112-.158a.315.315 0 0 0 0-.375.6.6 0 0 0-.217-.168v.75h.093zM26.585 33.058a.28.28 0 0 0 .322-.273.34.34 0 0 0-.224-.375.42.42 0 0 0-.375.296.29.29 0 0 0 .152.324.3.3 0 0 0 .125.028M26.158 36.587a.14.14 0 0 0 0-.218.2.2 0 0 0-.11-.044.22.22 0 0 0-.138-.196c-.109-.037-.319.128-.289.233s.15.105.24.109c0 .082-.022.184.045.221.068.038.195-.06.252-.105M26.469 31.24c-.083.127-.03.27.135.375q.07.044.154.048a.2.2 0 0 0-.09.135.23.23 0 0 0 .16.244.13.13 0 0 0 .046.06c.041.034.191.068.236 0 .045-.067 0-.142-.045-.202v-.023a.207.207 0 0 0-.154-.259h-.004a.1.1 0 0 0 .046-.041.45.45 0 0 0-.057-.469.282.282 0 0 0-.427.131M25.854 35.725c.146 0 .232-.11.285-.244.187.022.326-.06.341-.203a.4.4 0 0 0 0-.131.1.1 0 0 0 .03-.034.2.2 0 0 0-.02-.237.2.2 0 0 0-.066-.051.24.24 0 0 0-.206-.023.27.27 0 0 0-.203-.142c-.161-.023-.323.06-.345.172-.045.172.004.881.184.892M27.245 30.531a.31.31 0 0 0-.375 0 .24.24 0 0 0-.101-.037.21.21 0 0 0-.221.202.215.215 0 0 0 .111.23.2.2 0 0 0 .087.025.2.2 0 0 0 .109-.037q.036.091.116.15a.263.263 0 0 0 .334-.12.286.286 0 0 0-.06-.413"/><path fill="#42D4C6" d="M27.538 36.156a.266.266 0 0 0 .25-.222.202.202 0 1 0-.404 0 .2.2 0 0 0 .154.222M25.828 34.18a.5.5 0 0 0 .19.206c.162.086.327-.079.514-.056h.098a.19.19 0 0 0 .038.206.173.173 0 0 0 .247.049c.06-.057.135-.15.128-.222a.16.16 0 0 0-.11-.15.5.5 0 0 0 .117-.31.45.45 0 0 0 .191-.263c0-.098-.026-.315-.225-.3a.4.4 0 0 1-.168.063.53.53 0 0 0-.278-.063c-.154 0-.266-.117-.409-.053a.65.65 0 0 0-.401.668v.022a.27.27 0 0 0-.158-.064v.338h.023a.22.22 0 0 0 .203-.071M33.185 37.675a.263.263 0 0 0 .199.318.35.35 0 0 0 .397-.24.375.375 0 0 0-.277-.375c-.12-.026-.289.135-.319.297M32.81 37.251c.146-.169.184-.401 0-.532a.376.376 0 0 0-.559.082c-.191.248.098.375-.078.503-.177.127-.2-.098-.432.075-.232.172-.229.472-.037.547.191.075.322-.049.375-.019s.169.207.3.11c.274-.207.026-.406.09-.492.063-.086.24-.154.341-.274M34.003 31.588a.18.18 0 0 0 .06-.154c0-.033-.113-.112-.173-.093-.06.018-.068.168-.045.206a.16.16 0 0 0 .158.041M30.099 38.053c.093 0 .176-.075.221-.138s-.034-.18-.128-.2c-.093-.018-.19.042-.19.128 0 .087.003.188.097.21M33.74 34.134c-.12-.048-.33.154-.3.244s.326.139.375.023a.214.214 0 0 0-.075-.267M28.055 30.554a.44.44 0 0 0 .42.153c.116-.037.24-.075.221-.244v-.138h-.619a.3.3 0 0 0-.022.229M25.663 31.915h-.053v1.241q.03.006.06 0a.2.2 0 0 0 .097-.09.32.32 0 0 0 .353-.079.42.42 0 0 0-.116-.453.5.5 0 0 0-.105-.045.33.33 0 0 0 .105-.177h.101a.376.376 0 0 0 .289-.408.394.394 0 0 0-.503-.225.4.4 0 0 0-.228.236M26.015 31.356a.18.18 0 0 0 .216-.014.2.2 0 0 0 .046-.061.24.24 0 0 0-.075-.296.13.13 0 0 0-.063-.023c-.053-.052-.139-.041-.218-.038-.078.094-.097.188-.022.27a.23.23 0 0 0 .116.162M27.241 31.975a.41.41 0 0 0 .161.405.31.31 0 0 0-.195.165.416.416 0 0 0 .09.573.49.49 0 0 0 .428-.033.2.2 0 0 0 .165.198.23.23 0 0 0 .236-.194.22.22 0 0 0-.172-.248h-.041a.4.4 0 0 0-.162-.375h-.022a.38.38 0 0 0 .24-.334.5.5 0 0 0 0-.183c.049.02.104.02.153 0a.284.284 0 0 0 .072-.398.4.4 0 0 0-.158-.12.18.18 0 0 0-.071-.113.202.202 0 0 0-.296.26.3.3 0 0 0-.023.123.4.4 0 0 0-.405.274M29.176 34.656a.236.236 0 0 0-.255.202.255.255 0 0 0 .221.244.22.22 0 0 0 .237-.191.236.236 0 0 0-.203-.255M30.283 37.1c0-.108-.05-.198-.147-.183a.6.6 0 0 0-.183.09.214.214 0 0 0 .198.236c.098.004.131-.067.131-.142M26.679 37.963a.375.375 0 0 0 .454.191.345.345 0 0 0 .262-.472c-.064-.113-.225-.169-.24-.259s.105.071.15-.225-.326-.574-.54-.289c-.034.042-.289-.202-.476.034a.352.352 0 0 0 .078.581q.122.096.188.237a.19.19 0 0 0 .124.202M30.388 36.328a.46.46 0 0 0-.29-.521.47.47 0 0 0-.475.375.446.446 0 0 0 .375.435.353.353 0 0 0 .39-.289M31.674 34.967c0 .102.026.18.12.203.232.071.48.071.712 0a.3.3 0 0 0 .09-.068.27.27 0 0 0-.146-.472 1.8 1.8 0 0 0-.45-.03.42.42 0 0 0-.326.367M25.854 30.688a.4.4 0 0 0 .45-.12.3.3 0 0 0 0-.243h-.499c-.064.154-.052.3.049.363M32.383 33.865c-.023.094.165.191.322.146.158-.045.128-.262.079-.33-.049-.067-.383.094-.401.184M32.84 36.092c.03-.052-.038-.247-.131-.258a.2.2 0 0 0-.218.176.153.153 0 0 0 .162.184.27.27 0 0 0 .187-.102M26.263 37.963h-.023a.2.2 0 0 0 0-.07.11.11 0 0 0-.079-.06.34.34 0 0 0-.319-.3.3.3 0 0 0-.082 0h-.019q-.056.07-.12.142v.356q.081.06.18.067-.034.044-.063.087h.67a.2.2 0 0 0-.146-.222M33.088 34.836c.037-.034 0-.117 0-.15 0-.034-.128-.057-.173 0-.045.056 0 .142.041.16a.15.15 0 0 0 .131-.01M33.084 32.095a.374.374 0 0 0-.375.307.376.376 0 0 0 .345.462.315.315 0 0 0 .375-.252.495.495 0 0 0-.345-.517M33.406 35.822a.4.4 0 0 0-.082-.158c-.158-.03-.27.03-.255.12.02.084.067.158.135.21.079.042.21-.07.202-.172M34.576 35.721c.075.06.315 0 .338-.097.022-.098 0-.263-.192-.26-.19.005-.224.297-.146.357M34.831 37.96a.19.19 0 0 0-.21-.113.27.27 0 0 0-.18.05c.03.085 0 .247.094.3h.113c.07-.042.135-.132.195-.17zM35.926 36.156c-.033 0-.135 0-.138.101s.09.101.13.101c.042 0 .098-.06.095-.09a.14.14 0 0 0-.087-.112M32.454 30.62a.47.47 0 0 0 .435-.295h-.792a.44.44 0 0 0 .357.296M34.201 37.776c0 .03.027.037.042.063s.06-.026.067-.048-.022-.053-.03-.053c-.007 0-.071.008-.079.038M34.28 36.13c-.026.093.105.142.15.15.045.007.139 0 .154-.087a.14.14 0 0 0-.105-.142c-.041-.012-.173-.015-.199.078M34.97 33.711c0-.127-.135-.15-.187-.15a.22.22 0 0 0-.158.109.13.13 0 0 0 .013.122.14.14 0 0 0 .107.061c.056.004.214-.018.225-.142M29.345 37.84a.375.375 0 0 0 .416-.35c.03-.258-.082-.43-.303-.453a.424.424 0 0 0-.458.326.43.43 0 0 0 .345.477M29.431 31.524a.213.213 0 0 0 .195.237c.101 0 .124-.068.135-.143s-.052-.199-.15-.184a.6.6 0 0 0-.18.09M30.71 34.881a.4.4 0 0 0-.259-.394h-.064a.4.4 0 0 0 .094-.157.68.68 0 0 0-.037-.465.3.3 0 0 1 0-.173.278.278 0 0 0-.248-.375.16.16 0 0 0 .03-.075c0-.097-.108-.195-.236-.21a.25.25 0 0 0-.259.108.3.3 0 0 0-.037.091.21.21 0 0 0 .206.225.4.4 0 0 0-.037.21.38.38 0 0 1-.053.289.45.45 0 0 0 0 .435.38.38 0 0 0 .375.202h.041a.38.38 0 0 0-.139.233c0 .135.105.243.297.27.191.026.311-.102.326-.214M29.908 30.83c.1 0 .123-.063.134-.142s-.052-.195-.15-.18a.6.6 0 0 0-.18.086.21.21 0 0 0 .195.237M27.658 36.71c.06 0 .108-.09.108-.172.075 0 .15 0 .177-.037.026-.038-.094-.229-.128-.233-.094 0-.214-.03-.281.056a.1.1 0 0 0-.019.076.12.12 0 0 0-.06.052c-.056.113.053.251.203.259M27.864 37.73a.415.415 0 0 0 .551.286c.06 0 .124-.019.139-.023a.213.213 0 0 0 .296-.045c.067-.086.03-.176-.03-.258s-.124-.184-.187-.27c-.064-.087-.147-.203-.297-.184a.15.15 0 0 1-.112-.049c-.221-.21-.308-.217-.503 0-.086.086-.108.195-.018.274.08.071.136.166.16.27M29.364 36.486a.41.41 0 0 0-.297-.502.4.4 0 0 0-.165.03.2.2 0 0 0-.022-.184.23.23 0 0 0-.266-.116c-.158.045-.143.198-.165.34a.5.5 0 0 0 .258.102.3.3 0 0 0-.075.158.454.454 0 0 0 .345.453.34.34 0 0 0 .387-.28M31.363 36.906a.315.315 0 0 0 .262-.289.27.27 0 0 0-.27-.322c-.176 0-.311.067-.319.202a.43.43 0 0 0 .326.409M30.324 31.55a.45.45 0 0 0 .217.376.29.29 0 0 0 .338-.263c.026-.13-.09-.251-.278-.288a.214.214 0 0 0-.277.176M30.703 37.746a.35.35 0 0 0 .375-.214.375.375 0 0 0-.285-.401c-.11 0-.237.127-.267.281a.28.28 0 0 0 .177.334M30.774 30.493c-.038 0-.113.023-.124.075-.011.053.049.105.086.116.038.012.154 0 .162-.067.007-.068-.087-.124-.124-.124M31.198 34.026a.218.218 0 0 0 .352-.09.28.28 0 0 0-.056-.248.24.24 0 0 0-.225-.04.255.255 0 0 0-.071.378M31.726 32.458c0-.12.023-.266-.15-.311a.2.2 0 0 0-.251.12.25.25 0 0 0 .023.202c.06.105.165.098.378-.01M31.123 33.055a.213.213 0 0 0-.237.187.22.22 0 0 0 .162.259.225.225 0 0 0 .255-.169.25.25 0 0 0-.18-.277"/><path fill="#20377D" d="M25.749 30.325h-8.535v7.871h8.535z"/><path fill="#7DE2D1" d="m8.18 21.107-2.509 3.765h5.022zM23.484 32.544h-3.619v3.62h3.619z"/><path fill="#20377D" d="M39.793 10.375H26.945v1.402h12.848zM35.18 13.202h-8.235v1.403h8.235zM27.136 21.122H14.29v1.403h12.847zM22.524 23.946h-8.235v1.402h8.235zM40.318 32.121H27.47v1.403h12.848zM35.705 34.945H27.47v1.402h8.235z"/><path stroke="#CED5E1" stroke-miterlimit="10" stroke-width="1.137" d="M44.401 19.588H33.2V26.8h11.201M7.97 37.675h5.681v-7.212H2.825M7.97 8.713h5.681v7.212H2.825"/></g><defs><clipPath id="a"><path fill="#fff" d="M.5.287h45v45H.5z"/></clipPath></defs></svg>