<svg xmlns="http://www.w3.org/2000/svg" width="175" height="175" fill="none"><path fill="#ECF0F6" d="M87.5 169.531c45.305 0 82.031-36.726 82.031-82.031S132.805 5.469 87.5 5.469 5.469 42.195 5.469 87.5s36.726 82.031 82.031 82.031"/><path fill="#fff" d="M145.113 29.34s.082 0 .137-.096c-.424-.424-.875-.82-1.299-1.23a.83.83 0 0 0-.068.765.88.88 0 0 0 .486.564.89.89 0 0 0 .744-.003M154.273 53.102c-.724.314-.97.724-.738 1.244a1.13 1.13 0 0 0 .577.708 1.12 1.12 0 0 0 .913.044 1.92 1.92 0 0 0 .547-1.696c-.164-.478-.642-.588-1.299-.3M150.391 42.861a.95.95 0 0 0 .437 0q.262.289.451.63a1.37 1.37 0 0 0 1.504.833c.67-.11.93-.588.533-1.504-.3-.287-.752-.779-1.271-1.203a.3.3 0 0 0 0-.095 1.11 1.11 0 0 0-.582-1.093 1.1 1.1 0 0 0-.416-.124c-.697-.15-1.668.3-1.778.82a1.57 1.57 0 0 0 1.122 1.736M154.178 41.016c.23-.132.402-.348.478-.602a61 61 0 0 0-1.9-2.611.7.7 0 0 0-.397.164.793.793 0 0 0-.15 1.162c.102.117.228.21.369.273a.978.978 0 0 0 .069.752c.478.862.902 1.162 1.531.862M160.043 50.04a1.07 1.07 0 0 0 .684 1.188c.111.034.23.034.341 0a21 21 0 0 0-.724-1.367.33.33 0 0 0-.301.178M164.664 59.61a82 82 0 0 0-1.258-3.227 5 5 0 0 0-.506.287 1.25 1.25 0 0 0-.588 1 1.24 1.24 0 0 0 .493 1.05 9.5 9.5 0 0 0 1.859.89M159.783 55.111c.169.212.378.388.615.52a6 6 0 0 0 .711.424c.807.423 1.368.355 1.805-.22a1.6 1.6 0 0 0 .15-.313c-.3-.712-.628-1.368-.957-2.106a11.5 11.5 0 0 1-1.367-1.367c-.451-.56-1.367-.902-1.75-.56a1.07 1.07 0 0 0 0 1.27c.533.384.274.794.328 1.231.069.404.228.787.465 1.121M150.937 37.625c.93.492 1.368.506 1.709 0a41 41 0 0 0-1.189-1.518c-.588.383-.533.971-.52 1.518M149.023 36.518a.9.9 0 0 0 .657-.506c.037-.37-.065-.741-.287-1.04-.52-.478-.916 0-1.368.342.055.684.246 1.217.998 1.204M61.893 24.8a1.16 1.16 0 0 0 .123-1.366c-.67-.698-1.518-.903-1.956-.465a1.7 1.7 0 0 0 .096 1.927 1.56 1.56 0 0 0 1.737-.095M91.82 6.357c-.437.766-.287 1.286.506 1.764a1.27 1.27 0 0 0 1.696-.15 1.93 1.93 0 0 0-.643-2.27h-.697c-.357.108-.663.34-.862.656M83.904 14.78c-.15.136-.273.833-.082.997.192.164.916 0 .97-.177.056-.178.165-.834 0-.944a.93.93 0 0 0-.888.123M88.28 6.275a1.5 1.5 0 0 0-.165-.369c.116-.116.205-.256.26-.41L87.5 5.47h-.574v.136a.4.4 0 0 0-.11.096q-.293.624-.492 1.285c-1.052.356-1.627 1.012-1.367 1.655a1.82 1.82 0 0 0 1.955.93c.738-.233.834-.657.41-2.133.56-.247 1.162-.397.957-1.163M97.412 9.693c.438-.109.944-.082 1.203-.478.26-.397 1.04-1.518.575-2.27s-.998-.164-1.49-.232a1.19 1.19 0 0 0-1.135.506 1.64 1.64 0 0 0-.875.45 1.46 1.46 0 0 0 .013 1.778.57.57 0 0 1-.45-.15c-.37-.342-1.177-.342-1.82.478-.642.82-.218 2.092.548 2.133.765.041.97-.369 1.162-.178.191.192.369.82.875.807.506-.014 1.052-1.45 1.052-1.695s-.287-.684-.082-.957q.226-.068.424-.192M112.178 9.57a1.63 1.63 0 0 0-1.723.315 1.68 1.68 0 0 0 .588 1.777.77.77 0 0 0 1.066-.246c.575-.807.588-1.545.069-1.846M99.668 9.57c-.219.328 0 .78.137 1.08.136.301.738.192.97-.123.233-.314.192-.806-.136-.957s-.739-.287-.971 0M84.875 18.772a1.244 1.244 0 0 0 1.518 0 2.08 2.08 0 0 0 .136-2.079 1.53 1.53 0 0 0-1.914.37c-.492.492-.396 1.12.26 1.709M60.361 17.856a2.02 2.02 0 0 0-2.16 0 1.367 1.367 0 0 0 0 1.845 1.52 1.52 0 0 0 1.928.11 1.477 1.477 0 0 0 .232-1.956M112.82 12.455a.964.964 0 0 0 1.461-.651.97.97 0 0 0-.435-.976 1.053 1.053 0 0 0-1.367.397.927.927 0 0 0 .341 1.23M160.33 58.324a1.366 1.366 0 0 0 .697-1.572 1.144 1.144 0 0 0-1.23-.697c-.861.3-1.367.97-1.176 1.53a1.51 1.51 0 0 0 1.709.74M83.234 11.307a1.176 1.176 0 0 0-.341-1.737 1.45 1.45 0 0 0-2.16.438 1.544 1.544 0 0 0 .273 2.037 1.29 1.29 0 0 0 1.19.082.69.69 0 0 0 .683-.232 1.5 1.5 0 0 0 .355-.588M81.307 13.166a.93.93 0 0 0-.793.902.683.683 0 0 0 .492.807c.67.219 1.011-.178 1.367-.697-.26-.506-.342-1.121-1.067-1.012M78.148 6.016a2 2 0 0 0-.218.683 1 1 0 0 0-.233-.41l-.219-.191-1.367.191c.21.275.36.592.438.93a.93.93 0 0 0 .793.314.99.99 0 0 0 .588-.478.94.94 0 0 0 .355.847 1.08 1.08 0 0 0 1.176-.492c.164-.642.629-.547 1.025-.752q.22-.122.383-.314a1.53 1.53 0 0 0 1.545 0 .9.9 0 0 0 .164-.643c.52.424 1.121.533 1.477.205a.9.9 0 0 0 .26-.396c-2.079.123-4.143.273-6.167.506M61.879 12.647a1.367 1.367 0 0 0-2.187.082 1.368 1.368 0 0 0-.165 2.173 1.6 1.6 0 0 0 2.42-.095 1.64 1.64 0 0 0-.068-2.16M127.682 22.6a.57.57 0 0 0 .535.144.58.58 0 0 0 .408-.377 3 3 0 0 0 0-.848.873.873 0 0 0-1.244.329c-.233.369.027.574.301.752M126.916 17.254a.99.99 0 0 0 .779-.328.7.7 0 0 0 0-.711c-.314-.479-.779-.438-1.285-.123.014.465-.096.998.506 1.162M123.977 31.063a.88.88 0 0 0 .861-.834c0-.725-.834-1.204-1.121-1.204a1.285 1.285 0 0 0-.779 1.436.886.886 0 0 0 1.039.602M92.463 8.86a.89.89 0 0 0-1.258-.247 1.504 1.504 0 0 0-.191 1.86 1.026 1.026 0 0 0 1.367.109 1.285 1.285 0 0 0 .082-1.723M121.023 19.14a1.71 1.71 0 0 0 2.024-1.038 2.2 2.2 0 0 0-1.367-2.215 1.74 1.74 0 0 0-1.819 1.367 1.685 1.685 0 0 0 1.162 1.887M120.408 13.016a1.13 1.13 0 0 0-.246.998 1.12 1.12 0 0 0 .67.779 1.37 1.37 0 0 0 1.463.096.904.904 0 0 0 1.148 0 .75.75 0 0 0 .287-.479 5 5 0 0 0-.164-.615q-1.367-.643-2.666-1.23c-.196.11-.365.264-.492.45M130.02 24.61a1.145 1.145 0 0 0 1.215-.54c.081-.137.132-.288.152-.445a.748.748 0 0 0-.616-.875.956.956 0 0 0-1.283.793 1.07 1.07 0 0 0 .532 1.066M124.729 15.299a.83.83 0 0 0 1.148-.178v-.096a60 60 0 0 0-1.627-.834.93.93 0 0 0 .479 1.108M140.82 26.564a1.04 1.04 0 0 0 0 .93.534.534 0 0 0 .821.37c.355-.206.656-.452.505-.93-.15-.479-1.148-.588-1.326-.37M141.08 32.58a1.37 1.37 0 0 0 1.23-.738 1.215 1.215 0 0 0-.847-1.135.903.903 0 0 0-1.094.793 1 1 0 0 0 .711 1.08"/><path fill="#fff" d="M142.803 27.494c.18.024.364 0 .533-.068l-1.463-1.367a1.63 1.63 0 0 0 .93 1.435M91.848 13.672a.26.26 0 0 0 0-.315.273.273 0 0 0-.383 0 .273.273 0 0 0 0 .37c.136.068.328.013.383-.055M133.465 19.55a78 78 0 0 0-3.623-2.31q.112.13.205.274a2.14 2.14 0 0 0 0 2.392 2.26 2.26 0 0 0 2.642.32c.277-.154.518-.366.707-.62zM132.002 31.13a1.29 1.29 0 0 0 1.254-.754c.071-.158.11-.33.113-.503.082-.629-.355-1.039-1.203-1.162s-1.23.205-1.271.725a2.3 2.3 0 0 0 1.107 1.695M125.645 19.578a2.4 2.4 0 0 0 0-.834.88.88 0 0 0-1.245.315c-.191.382 0 .587.301.765a.603.603 0 0 0 .944-.246M90.139 13.59a.944.944 0 0 0 1.258-.274.86.86 0 0 0-.315-1.134.78.78 0 0 0-1.148.164.86.86 0 0 0 .205 1.244M161.984 75.195a1.37 1.37 0 0 0 1.655-.164c.492-.82-.178-1.572-.547-1.941-.369-.37-1.367.232-1.6 1.025a.892.892 0 0 0 .492 1.08M166.1 70.3c.223-.155.38-.389.439-.655a1.08 1.08 0 0 0-.125-.78 3 3 0 0 0-1.025-.164c-.493.096-.67.793-.411 1.367a.82.82 0 0 0 .513.35.8.8 0 0 0 .609-.117M163.844 61.523c-.356.643.164 1.71 1.039 2.133a1.2 1.2 0 0 0 1.121 0 67 67 0 0 0-.93-2.803 1.5 1.5 0 0 0-1.23.67M162.012 61.072a1 1 0 0 0 .506-.697.75.75 0 0 0-.329-.629c-.519-.246-.888 0-1.162.56.205.41.397.917.985.766M164.856 67.416a2.041 2.041 0 0 0-.807-2.379l-.233-.096a.874.874 0 0 0-1.148-.328 1.6 1.6 0 0 0-.889 1.368v.068a1.507 1.507 0 0 0 .616 2.023 1.97 1.97 0 0 0 2.461-.656M88.266 9.652a.875.875 0 0 0 1.244-.246.79.79 0 0 0-.356-1.107.916.916 0 0 0-1.23.355.698.698 0 0 0 .342.998M167.522 69.508a36 36 0 0 0-.274-1.19v.069a.89.89 0 0 0 .274 1.12M75.195 6.453l-1.216.205c.417.077.847.004 1.216-.205M91.602 5.893a2 2 0 0 0 .218-.301c-.888 0-1.79 0-2.734-.082q.067.18.191.328a1.736 1.736 0 0 0 2.325.055M74.115 8.34a1.01 1.01 0 0 0-.191-1.272c-.37-.232-1.244-.123-1.367.178a1.26 1.26 0 0 0 .382 1.477.9.9 0 0 0 1.176-.383M169.394 82.92a1.6 1.6 0 0 0 0 .807zM131.961 48.836a.81.81 0 0 0-.369.724c0 .192.533.67.766.588s.341-.71.273-.847-.479-.506-.67-.465M108.801 24.158q.35-.556.601-1.162a1.785 1.785 0 0 0-.834-1.914.724.724 0 0 0-.984.096 5.14 5.14 0 0 0-1.244 2.734q.008.239.082.465a1.13 1.13 0 0 0 1.195.794c.173-.017.339-.074.487-.165a.67.67 0 0 0 .437-.233.84.84 0 0 0 .26-.615M108.008 30.406c.41-.355 0-1.517-.369-1.558-.37-.041-1.108.984-.78 1.367a.89.89 0 0 0 1.149.191M108.336 35.397a.83.83 0 0 0-.123-.794.56.56 0 0 0-.902.124c-.124.218-.329.847.136 1.12s.793-.3.889-.45M107.488 26.277c-.068-.246-.56-.218-.67-.15a.603.603 0 0 0-.273.56c0 .206.41.247.588.206s.437-.383.355-.616M120.217 44.516c0 .095.178.396.26.396s.451-.137.505-.287a.504.504 0 0 0-.273-.643c-.396-.109-.397.356-.492.534M122.5 42.068a.465.465 0 0 0 .369.534.493.493 0 0 0 .629-.479.5.5 0 0 0-.017-.198.5.5 0 0 0-.244-.304.5.5 0 0 0-.19-.059.563.563 0 0 0-.547.506M124.004 35.547c.096-.643-.164-1.04-.725-1.121-.793-.123-1.695.396-1.763 1.011-.069.616.588 1.176 1.23 1.245a1.244 1.244 0 0 0 1.258-1.135M114.844 11.184c0 .095 0 .246.177.26a.25.25 0 0 0 .201-.041.25.25 0 0 0 .1-.178c0-.178-.164-.26-.246-.274s-.232.164-.232.233M82.14 24.35a.52.52 0 0 0-.163.683c.205.301.56 0 .71-.123a.48.48 0 0 0 0-.465.7.7 0 0 0-.546-.095M83.686 17.582a1.23 1.23 0 0 0-.22-1.668 1.83 1.83 0 0 0-2.228.533 1.367 1.367 0 0 0 2.448 1.135M80.664 20.508a1.625 1.625 0 0 0-2.392.15 1.475 1.475 0 0 0-.083 2.188 1.86 1.86 0 0 0 2.462.068 1.955 1.955 0 0 0 .013-2.406M100.598 19.961c-.602-1.162-1.668-.328-1.778-1.19-.11-.86.725-.574.506-1.777s-1.367-1.709-2.023-1.12c-.657.587-.383 1.366-.56 1.366-.179 0-1.08.274-.958.944-.164-.082-.355-.123-.451 0s0 .615.082.724a.53.53 0 0 0 .615.069.4.4 0 0 0 0-.11c.465.533 1.23.26 1.367.56.137.302.11 1.3.383 1.901.37.848 1.19 1.367 2.037.902a1.585 1.585 0 0 0 .78-2.269M98.67 29.203c-.11.164-.233.533 0 .725a.55.55 0 0 0 .71-.137c.124-.137.37-.615 0-.889-.368-.273-.614.137-.71.301M94.336 15.805a1.37 1.37 0 0 0 0-1.655c-.738-.601-1.572 0-1.982.26s0 1.367.779 1.723a.86.86 0 0 0 1.203-.328M93.078 25.703v.342a.33.33 0 0 0 .26 0c0-.123.11-.287 0-.37-.11-.081-.137.014-.26.028M121.844 22.49q.062-.098.109-.205c.328-.068.861-.219.889-.52.027-.3-.711-.628-.985-.656a.2.2 0 0 0-.136 0 1.89 1.89 0 0 0-1.846.137 1.21 1.21 0 0 0 .036 1.462c.109.137.246.25.401.33.411.327 1.067.108 1.532-.548M157.377 116.211c.109-.219-.232-.492-.383-.588a.49.49 0 0 0-.492.164c0 .151.123.424.26.547.136.123.465.164.615-.123M129.295 43.545c0 .355 0 .793.492.78s.738-.288.779-.507c.041-.218-.246-.615-.341-.834-.67-.095-.875.22-.93.56M165.047 96.537a1.89 1.89 0 0 0 .519-1.736 1.59 1.59 0 0 0-1.244-1.272h-.164c.364-.135.662-.404.834-.752.219-.52-.123-1.107-.861-1.449a1.286 1.286 0 0 0-1.572.342 1.67 1.67 0 0 0 .56 1.9q.116.063.246.082a1.64 1.64 0 0 0-.56.52 2.8 2.8 0 0 0-.424 1.914 1.27 1.27 0 0 1-.164.71 1.16 1.16 0 0 0-.252 1.074 1.16 1.16 0 0 0 .758.8.55.55 0 0 0-.205.273c-.137.383.191.903.683 1.121a1.065 1.065 0 0 0 1.367-.423.9.9 0 0 0-.506-1.204 1.73 1.73 0 0 0 .397-.793 1.68 1.68 0 0 1 .588-1.107M169.135 92.613a.945.945 0 0 0-1.19.479.986.986 0 0 0 .506 1.271.97.97 0 0 0 .779 0c0-.533.082-1.052.11-1.586zM166.797 105.273a.831.831 0 0 0 .355 1.108h.11c.15-.574.287-1.162.41-1.75a.94.94 0 0 0-.875.642M142.393 37.639a1.37 1.37 0 0 0 1.613-1.367 2.4 2.4 0 0 0 0-.834c.382.09.783.061 1.148-.083a1.04 1.04 0 0 0 .506-1.039 1.96 1.96 0 0 0 1.819-1.367 1.613 1.613 0 0 0-1.19-1.914 2.58 2.58 0 0 0-2.201 1.545 1.13 1.13 0 0 0 .123.752h-.082a1.74 1.74 0 0 0-.807 1.148 2.2 2.2 0 0 0-.752-.232 1.75 1.75 0 0 0-1.9 1.559c-.096.752.793 1.681 1.723 1.832M133.574 39.908c1.367.26 1.367.164 1.367-.984-.574-.41-1.039-.246-1.449.3-1.531-.67-2.256 0-2.092 1.737a1.5 1.5 0 0 1-.287.191c-.451.178-.506.547-.451.971s.301.588.684.725c.916.3 1.367.095 1.558-.848.246-.697.465-1.408.67-2.092M131.387 33.537a1.37 1.37 0 0 0-.234-1.044 1.38 1.38 0 0 0-.915-.556 1.807 1.807 0 0 0-1.927 1.56 1.82 1.82 0 0 0 1.367 1.667c.888.11 1.572-.56 1.709-1.627M140.984 44.256c-.123-.3-.683-.383-1.148-.178a.52.52 0 0 0-.373.542q.01.12.072.224c.192.369.465.642.943.478a.94.94 0 0 0 .506-1.066M140.287 40.428a1.557 1.557 0 0 0-1.791 1.476 1.573 1.573 0 0 0 1.367 1.573c.766.095 1.518-.698 1.627-1.696a1.2 1.2 0 0 0-.294-.95 1.2 1.2 0 0 0-.909-.403M78.066 27.234c-.232.22-.109.78.26 1.135a.492.492 0 0 0 .807 0c.273-.314.437-.67.11-1.053a.93.93 0 0 0-1.177-.082M45.965 19.797c.451.191 1.258-.615 1.094-.97-.164-.356-1.23-.493-1.436 0a.834.834 0 0 0 .342.97M34.63 24.828c-.177.3-.491 1.108-.273 1.367.22.26 1.04-.177 1.067-.3.11-.383.328-.862 0-1.204s-.697-.082-.793.137M168.164 80.897a.58.58 0 0 0 .536.123.58.58 0 0 0 .394-.383c.082-.274.205-.793-.151-.957a.48.48 0 0 0-.273-.069 1.22 1.22 0 0 0 .287-1.244l.123.11a67 67 0 0 0-.301-2.407.493.493 0 0 1-.136-.752v-.095c0-.383-.137-.766-.192-1.162a2.3 2.3 0 0 0-.574-.493 1.6 1.6 0 0 0-.93-.177.4.4 0 0 0 0-.123 1.366 1.366 0 0 0-1.586-.452 1.37 1.37 0 0 0 .082 1.627c.134.118.302.19.479.205.137.547.451.711.301.903-.151.191-.766.478-.67.97.095.493 1.572.848 1.818.78.246-.069.82-.52 1.094 0q.154.271.232.574a.81.81 0 0 0-.957-.205c-.752.314-1.258 1.217-.998 1.777a1.25 1.25 0 0 0 1.19.56c-.383.165-.178.657.232.89M160.74 108.842c-.396-.137-.574.109-.711.41a.6.6 0 0 0-.051.554.592.592 0 0 0 .434.348c.282-.001.563-.042.834-.123a.893.893 0 0 0-.201-.999.9.9 0 0 0-.305-.19M116.334 13.986a1.27 1.27 0 0 0 1.012 1.367.86.86 0 0 0 1.134-.574 1.476 1.476 0 0 0-.984-1.586 1.025 1.025 0 0 0-1.162.793M124.879 26.441a.8.8 0 0 0 .226.588.82.82 0 0 0 .581.246 1.07 1.07 0 0 0 .998-1.066c-.192-.164-.452-.547-.793-.67-.342-.123-.971.342-1.012.902M116.949 10.938l-1.094-.438c.309.26.692.413 1.094.438M125.658 20.63a1.544 1.544 0 0 0-1.627 1.067 1.64 1.64 0 0 0 1.203 1.545c.506.082 1.135-.52 1.231-1.19s-.151-1.312-.807-1.421M137.047 32.676a1.53 1.53 0 0 0 1.012 1.668c.478.068 1.367-.903 1.367-1.504a1.235 1.235 0 0 0-1.145-1.147 1.23 1.23 0 0 0-1.289.983zM139.016 38.281c-.178.096-.506.301-.397.492a.6.6 0 0 0 .574.26c.151 0 .547-.396.438-.588a.59.59 0 0 0-.615-.164M55.713 31.035a.89.89 0 0 0 .123-1.176.916.916 0 0 0-1.271-.109.697.697 0 0 0-.11 1.121.86.86 0 0 0 1.258.164M63.438 19.209a.833.833 0 0 0 .164 1.23c.342.247.71.534 1.025.233.533-.574.588-1.135.26-1.477a.957.957 0 0 0-1.45.014M55.918 36.053a1.05 1.05 0 0 0 0-1.3.81.81 0 0 0-1.162 0 1 1 0 0 0-.096 1.368.97.97 0 0 0 1.258-.068M60.785 11.307a1.927 1.927 0 0 0 2.735-.11 1.804 1.804 0 0 0 .3-2.256 75 75 0 0 0-3.5 1.149 1.45 1.45 0 0 0 .465 1.217M46.922 31.87a.97.97 0 0 0 0 1.366.903.903 0 0 0 1.367 0 .957.957 0 0 0 0-1.271.918.918 0 0 0-1.367-.096M73.158 30.611a.59.59 0 0 0 .069.63c.15.122.464.355.615.19a.62.62 0 0 0 0-.628c-.014-.123-.533-.37-.684-.192M68.277 26.592a1.07 1.07 0 0 0-1.367.096 1.26 1.26 0 0 0-.11 1.627 1.64 1.64 0 0 0 1.874.122c.3-.341.095-1.34-.397-1.845M67.252 37.324a.66.66 0 0 0 .068.711.62.62 0 0 0 .575 0 .55.55 0 0 0 0-.56c-.055-.11-.465-.37-.643-.15M65.229 15.04a1.45 1.45 0 0 0-1.75 0 1.285 1.285 0 0 0 .191 1.599.78.78 0 0 0 1.148-.15c.575-.643.725-1.163.41-1.45M51.611 18.648a1.202 1.202 0 0 0-1.79.082 1.436 1.436 0 0 0-.206 1.778 1.74 1.74 0 0 0 1.969 0 1.19 1.19 0 0 0 .027-1.86M48.822 15.23c.63.711 1.367.534 2.037.137.301.424.438 1.04 1.149.793a.82.82 0 0 0 .601-.902c0-.738-.67-.738-1.23-.78 0-.205 0-.396-.11-.587l-2.501 1.285s.027.04.054.054M73.828 16.201c-.355-.574-.889-.642-1.6 0a18 18 0 0 0-.71 1.791.806.806 0 0 0 .574 1.026.85.85 0 0 0 1.08-.493 2.5 2.5 0 0 1 .437-.67 1.37 1.37 0 0 0 .22-1.654M48.508 22.45a1.134 1.134 0 0 0-2.024-.083 6.6 6.6 0 0 0-.752 1.736 1.76 1.76 0 0 0 .971 1.874c.383.164 1.367.191 1.436-.643-.479-1.367.533-1.367.505-2.379a1.4 1.4 0 0 0-.136-.506M52.664 25.813a.642.642 0 0 0 0-1.012.89.89 0 0 0-.807.096c-.177.15-.437.738-.26.957.178.218.848.123 1.067-.041M55.795 24.035c-.437-.451-1.066-.369-1.654.219a.97.97 0 0 0-.192 1.367 1.91 1.91 0 0 0 1.97.178 1.162 1.162 0 0 0-.124-1.764M42.998 27.262a.26.26 0 0 0 0 .355c0 .069.274 0 .328 0a.246.246 0 1 0-.369-.314zM116.936 31.582a1.55 1.55 0 0 0-.479-2.01 1.655 1.655 0 0 0-2.365.479 1.37 1.37 0 0 0 .273 1.887 2.05 2.05 0 0 0 2.571-.356M116.32 37.857a.93.93 0 0 0 .998-.67.8.8 0 0 0-.099-.617.8.8 0 0 0-.516-.353.92.92 0 0 0-.984.67c-.11.45.191.97.601.97M118.795 29.477a.96.96 0 0 0-.684-.971 1.12 1.12 0 0 0-1.107.71.847.847 0 0 0 .697.944.97.97 0 0 0 1.094-.683M117.701 36.463a.81.81 0 0 0 .656-.492c0-.26-.519-.547-.697-.533a.66.66 0 0 0-.437.519.68.68 0 0 0 .478.506M112.984 20.959a.917.917 0 0 0-.287 1.504 1.28 1.28 0 0 0 1.053.232 1.03 1.03 0 0 0 .533-.779 1.052 1.052 0 0 0-1.299-.957M113.012 34.412c.67 0 .56-.615.765-.861a1.44 1.44 0 0 0 .367-1.091 1.45 1.45 0 0 0-.544-1.015 1.29 1.29 0 0 0-1.491.274 1.01 1.01 0 0 0-.177 1.367c.177.41.424 1.34 1.08 1.326M111.467 27.604c.26 0 .314-.916.191-1.463a1 1 0 0 0 .178.218s.424-.123.424-.218c0-.096 0-.547-.219-.657s-.492.274-.492.356l-.082-.11c-.315-.246-1.025.288-1.135.971-.109.684.793.97 1.135.902"/><path fill="#fff" d="M134.764 38.719a.66.66 0 0 0 .287-.506c0-.123-.424-.465-.561-.41-.137.054-.191.533-.15.71.041.178.355.26.424.206M116.512 21.191a.89.89 0 0 0-.993-.079.9.9 0 0 0-.265.23.93.93 0 0 0 .178 1.271 1.023 1.023 0 0 0 1.367-.191.89.89 0 0 0-.287-1.23M127.983 29.38a.934.934 0 0 0 .191-1.858 1.03 1.03 0 0 0-.971.86.905.905 0 0 0 .78.998M134.641 45.281a.9.9 0 0 0 .519-1.053.887.887 0 0 0-1.176-.478.73.73 0 0 0-.566.71q.002.166.074.315a.86.86 0 0 0 .806.575.9.9 0 0 0 .343-.069M127.149 25.074a.49.49 0 0 0-.588.123c-.11.11-.219.602 0 .725.218.123.615-.11.697-.246.082-.137 0-.479-.109-.602M126.478 33.81a2.53 2.53 0 0 0-.546-2.625 1.71 1.71 0 0 0-2.27.63 1.905 1.905 0 0 0 .492 2.324 1.724 1.724 0 0 0 2.324-.329M119.438 25.772a.85.85 0 0 0 0-1.19 1.14 1.14 0 0 0-.807-.273c-.52 0-.67.464-.629 1.449.465.219.943.588 1.436.014M126.328 42.082c.151 0 .67 0 .67-.287s-.314-.451-.437-.451-.575 0-.588.218a.64.64 0 0 0 .355.52M103.154 22.326a.64.64 0 0 0-.563-.101.64.64 0 0 0-.421.388 1.13 1.13 0 0 0 0 .903c.15.205.998.287 1.217 0a.83.83 0 0 0 .01-.956.8.8 0 0 0-.243-.234M101.35 12.305a1.15 1.15 0 0 0-1.545.136 1.45 1.45 0 0 0 .164 1.764 1.586 1.586 0 0 0 2.023-.355c.205-.397-.096-1.135-.642-1.545M102.225 26.127c.247.057.504.057.751 0 .383-.547.356-1.08 0-1.176a1.37 1.37 0 0 0-1.039.137c-.3.164-.109.889.288 1.039M135.734 36.285c.082-.547-.642-.752-.943-.916s-.738.15-.82.615.123.834.588.793 1.093.055 1.175-.492M101.609 31.938c.328-.752-.724-1.368-1.08-1.19-.355.178-.615 1.176-.246 1.463s.998.492 1.326-.273M96.168 23.734c.3-.41 0-1.367-.574-1.75a1.094 1.094 0 0 0-1.572.192 1.476 1.476 0 0 0 .218 1.928 1.56 1.56 0 0 0 1.928-.37M95.908 35.232a.6.6 0 0 0 .574-.123.49.49 0 0 0-.123-.697c-.341-.191-.547.164-.629.3a.52.52 0 0 0 .178.52M102.963 18.922c.191-.164 0-.547-.151-.684a.45.45 0 0 0-.505 0c-.123.11 0 .438 0 .602s.464.3.656.082M104.74 18.95a1.15 1.15 0 0 0 1.405-.055c.129-.108.233-.244.304-.397.369-.643.301-1.299-.191-1.572a1.805 1.805 0 0 0-2.133.506 1.37 1.37 0 0 0 .615 1.517M109.553 8.723a.88.88 0 0 0 .738.232c.15-.014.294-.061.424-.137a72 72 0 0 0-4.184-1.107 1.37 1.37 0 0 0-.172 1.013c.077.347.286.65.582.846.462.31 1.026.428 1.573.328a.4.4 0 0 0 .191.11c.151 0 .629 0 .67-.274a.358.358 0 0 0-.137-.273 1 1 0 0 0 .137-.068c.11-.207.171-.436.178-.67M112.561 17.309a.8.8 0 0 0 .123-.233c.065.179.168.342.3.479a1.8 1.8 0 0 0-.15.629 1.22 1.22 0 0 0 .659 1.34c.161.078.337.12.517.122a1.364 1.364 0 0 0 1.367-1.093q.094.045.178.11a1.16 1.16 0 0 0 1.649.253c.166-.126.295-.294.374-.486a.7.7 0 0 0 .246.246 1.05 1.05 0 0 0 1.203-.52 1.082 1.082 0 0 0-.218-1.49.88.88 0 0 0-.692-.072.87.87 0 0 0-.525.455 1.7 1.7 0 0 0-.738-.506 1.73 1.73 0 0 1-1.012-.725 1.86 1.86 0 0 0-1.641-.752 1.63 1.63 0 0 0-1.449 1.04v.163a1.48 1.48 0 0 0-.629-.93c-.478-.3-1.107 0-1.545.643a1.27 1.27 0 0 0 .11 1.6 1.65 1.65 0 0 0 1.873-.273M116.922 25.307c.396 0 .765-.178.724-.588s-.246-1.135-.574-1.162c-.328-.028-.724.683-.847.984s.287.752.697.766M103.906 14.014c0-.178-.246-.383-.41-.451-.164-.069-.506 0-.547.287s.369.41.533.45a.46.46 0 0 0 .424-.286M105.697 13.781a1.94 1.94 0 0 0 2.502-.11 2.01 2.01 0 0 0-.519-2.461 1.874 1.874 0 0 0-2.297.602 1.46 1.46 0 0 0 .314 1.97M104.672 8.996q.131-.216.178-.465c.656.219 1.011-.177 1.367-.71l-.096-.206a74 74 0 0 0-3.978-.82q-.195.126-.329.314a1.5 1.5 0 0 0-.236 1.239 1.48 1.48 0 0 0 .797.976 1.506 1.506 0 0 0 2.297-.328M92.682 24.91a.533.533 0 0 0-.903 0c-.177.233-.45.93-.273 1.108.178.177.875 0 1.162-.11s.3-.615.014-.998M160.973 117.783c.492-.219.355-.082.806.233a.915.915 0 0 0 1.545-.452 1.816 1.816 0 0 0-1.244-2.078 2.11 2.11 0 0 0-1.511.301c-.449.286-.773.73-.909 1.244-.109.739.834.985 1.313.752M135.119 31.09c.15 0 .547-.342.41-.574a.66.66 0 0 0-.683-.205.56.56 0 0 0-.181.237.57.57 0 0 0-.038.296.54.54 0 0 0 .492.246M166.797 101.35c-.301.683-.137 1.462.355 1.668.297.105.62.105.916 0 .151-.752.288-1.504.411-2.27a1.126 1.126 0 0 0-1.421.161 1.1 1.1 0 0 0-.261.441M165.211 111.822c-.109.506-.274.998-.424 1.49a.744.744 0 0 0-.218.641.74.74 0 0 0 .396.549 81 81 0 0 0 1.094-3.377.82.82 0 0 0-.848.697M166.141 88.676a1.98 1.98 0 0 0 2.351-.848 1.87 1.87 0 0 0-.929-2.201 1.477 1.477 0 0 0-1.942.602 1.93 1.93 0 0 0 .52 2.447M87.8 20.918a1.07 1.07 0 0 0-.82.191c-.287.26 0 .971.342 1.067.232.022.467-.01.684-.096.3-.547.177-1.08-.205-1.162M163.064 105.479c-.396-.137-.574.123-.711.41a.6.6 0 0 0-.05.559.6.6 0 0 0 .433.357c.284.001.566-.045.834-.137a.89.89 0 0 0-.201-.999.9.9 0 0 0-.305-.19M141.887 49.615a.67.67 0 0 0 .287-.506.49.49 0 0 0-.561-.41c-.355.082-.191.533-.164.711a.58.58 0 0 0 .438.205M136.719 48.07a1.05 1.05 0 0 0 .752-.423c.314-.63 0-1.04-.697-1.368-.479.301-1.039.479-.916 1.149a.778.778 0 0 0 .861.643M136.924 27.768a1.66 1.66 0 0 0-.246-.848.81.81 0 0 0 .875-.684.924.924 0 0 0-.681-1.015.9.9 0 0 0-.44-.01c-.616.096-.834-.273-1.217-.629q.186-.221.342-.465a.64.64 0 0 0 .287-.082.7.7 0 0 0 .082.274.995.995 0 0 0 1.08.45c.424-.163.424-.902.342-1.284a1.6 1.6 0 0 0-1.135-.807c0-.232.082-.219.396-.533l.11-.26c-.588-.437-1.19-.861-1.791-1.285a2.6 2.6 0 0 0-.848.834c-.079.162-.121.34-.123.52-.451 0-.711.3-.82.902a1.37 1.37 0 0 0 .847 1.845 4 4 0 0 1-.943.288.86.86 0 0 0-.93.724 1.26 1.26 0 0 0 .356 1.367c1.49 1.121 2.037 1.094 3.349-.191l.124-.082c-.163.181-.292.39-.383.615a.57.57 0 0 0 .005.517.57.57 0 0 0 .419.303.694.694 0 0 0 .808-.201.7.7 0 0 0 .135-.263M136.09 36.463a.26.26 0 0 0 .136-.356.284.284 0 0 0-.355-.095c-.082 0-.109.26 0 .314.109.055.096.192.219.137M138.551 37.201a1.47 1.47 0 0 0 .588-1.435.93.93 0 0 0-1.231-.37.863.863 0 0 0-.355 1.217c.246.547.642.78.998.588M147.725 56.055a1.546 1.546 0 0 0 .355-1.928c-.301-.629-.916-.766-1.709-.37a1.21 1.21 0 0 0-.533 1.368c.232.492 1.476 1.08 1.887.93M144.922 50.23c.137-.546-.438-1.162-1.244-1.367a1.026 1.026 0 0 0-1.08.725 1.266 1.266 0 0 0 .765 1.435 1.49 1.49 0 0 0 1.559-.793M150.459 54.236c-.096-.191-.684-.56-.902-.437-.219.123-.301.875-.205.957.095.082.724.465.902.314a.93.93 0 0 0 .205-.834M163.488 84.178a.926.926 0 0 0 .506-1.08.77.77 0 0 0-.398-.486.78.78 0 0 0-.627-.034.9.9 0 0 0-.506 1.08.762.762 0 0 0 1.025.52M165.115 71.545a.8.8 0 0 0 .089-.635.78.78 0 0 0-.417-.486.86.86 0 0 0-1.203.383.94.94 0 0 0 .451 1.203.86.86 0 0 0 1.08-.465M152.893 52.404a.93.93 0 0 0-.534-1.066.68.68 0 0 0-.943.164c-.437.533-.205 1.012.151 1.545.587-.069 1.189.027 1.326-.643M165.033 82.537c.41.178 1.108-.219 1.367-.806a1.148 1.148 0 0 0-.341-1.559 1.45 1.45 0 0 0-1.723.41 1.6 1.6 0 0 0 .697 1.955M55.945 17.076a1.216 1.216 0 0 0 .205-1.6 1.01 1.01 0 0 0-1.367-.15 1.37 1.37 0 0 0 0 1.75.78.78 0 0 0 1.162 0M40.305 20.508a.14.14 0 0 0 0-.069l-.356.26a.8.8 0 0 0 .356-.191M150.746 49.314a1.71 1.71 0 0 0 1.955-.697 1.37 1.37 0 0 0 1.039-.588q.298-.518.506-1.08c.178 0 .383 0 .561-.11l.314-.15q.288.039.574 0a.99.99 0 0 0-.246.657c0 .52-1.148.287-1.135 1.011.014.725-.793 1.04-.67 1.915s.807 1.64 1.504 1.271a3 3 0 0 0 1.258-1.572.76.76 0 0 0 .701.102.75.75 0 0 0 .475-.526.77.77 0 0 0-.219-.578.76.76 0 0 0-.574-.229c.67-.164 1.941-.683 1.49-1.846a1.56 1.56 0 0 0-1.668-.792 1.72 1.72 0 0 0 0-1.532 1.53 1.53 0 0 0-1.162-.752 2.2 2.2 0 0 0-.396-.3 1.03 1.03 0 0 0-.78-.096 1.63 1.63 0 0 0-1.175 1.996c0 .191.068.383.109.588q-.538.07-1.066.191h-.11c-.547-.164-1.367.315-1.805.971a1.6 1.6 0 0 0 .52 2.146M56.588 21.37a.9.9 0 0 0-1.258.163.752.752 0 0 0 .069 1.135.97.97 0 0 0 1.285 0 .93.93 0 0 0-.096-1.299M42.383 33.797a.805.805 0 0 0 .164-1.203.72.72 0 0 0-.697-.137.93.93 0 0 0-.506.656c-.028.588.683.78 1.039.684M168.889 92.285q.23.107.478.164c0-.656.068-1.367.096-1.982a1.78 1.78 0 0 0-.93.752.74.74 0 0 0-.068.615.73.73 0 0 0 .424.451M41.303 25.293a1.27 1.27 0 0 0-.287-1.695 1.19 1.19 0 0 0-1.791 0 1.175 1.175 0 0 0-.164 1.681 1.75 1.75 0 0 0 2.242.014M148.531 38.87a1.5 1.5 0 0 0-.383-1.177.82.82 0 0 0 .397-.82c0-.615-.588-.738-1.149-.902-.369.424-.875.82-.464 1.367a.6.6 0 0 0 .123.15 2.07 2.07 0 0 0-.903 1.367.9.9 0 0 0 .52.85.9.9 0 0 0 .342.08c.793.11 1.476-.314 1.517-.916M149.119 46.402a1 1 0 0 0 .629-.56c.137-.615-.383-.766-.834-.916-.479.3-.752.67-.465 1.176a.78.78 0 0 0 .67.3M148.121 43.49a.424.424 0 0 0-.164-.656.98.98 0 0 0-.766.15c-.232.11-.492.178-.615.424s.178.588.574.574a1.37 1.37 0 0 0 .971-.492M144.43 38.992c-.233.205-.492.424-.465.711s.82.643 1.217.424c.396-.219.3-.506.177-.793a.602.602 0 0 0-.929-.342M146.289 49.123c.834-.287 1.135-1.244.738-2.283a1.465 1.465 0 0 0-1.996-.875 1.86 1.86 0 0 0-.971 2.27 1.96 1.96 0 0 0 2.229.888M144.717 43.545a.71.71 0 0 0 .506-.998.795.795 0 0 0-.971-.465c-.355.082-.684.998-.424 1.258a1.01 1.01 0 0 0 .889.205"/><path fill="#fff" d="M91.602 27.727a.85.85 0 0 0 .806-.602c.13-.233.177-.502.137-.766-.424 0-1.094-.506-1.367-.136-.274.369.136.998.191 1.367zM58.857 11.43a.98.98 0 0 0 0-.793 59 59 0 0 0-3.992 1.627c.293.345.676.6 1.108.738a3.09 3.09 0 0 0 2.884-1.572M144.389 44.352a1.37 1.37 0 0 0 1.107 1.463c.656.136 1.08-.233 1.244-1.08.109-.575-.273-1.368-.711-1.463a1.575 1.575 0 0 0-1.64 1.08M81.266 34.016a.86.86 0 0 0 .068-1.258.9.9 0 0 0-1.176-.082.89.89 0 0 0 0 1.271.697.697 0 0 0 1.108.069M79.215 16.297a1.654 1.654 0 0 0-3.268-.315c-.15.63.67 1.368 1.559 1.532a1.61 1.61 0 0 0 1.709-1.217M84.766 22.326c0-.164-.069-.547-.26-.738a.97.97 0 1 0-1.299 1.367c.3.287 1.012.041 1.559-.629M77.027 20.89a.49.49 0 0 0 0-.615c-.205-.15-.52.165-.629.301a.44.44 0 0 0 .096.492c.069.096.397-.054.533-.177M76.248 22.6c-.178-.137-.479 0-.588.123-.11.123-.205.601 0 .724s.615-.11.684-.246c.068-.137.095-.478-.096-.601M59.39 28.71c.465-.478.575-1.27.22-1.599a1.764 1.764 0 0 0-2.188 0 1.11 1.11 0 0 0 .178 1.6 1.203 1.203 0 0 0 1.79 0M77.096 18.88a.97.97 0 0 0-.752-.382c-.616.096-.56.629-.547 1.107.45.329.902.452 1.271 0a.77.77 0 0 0 .028-.724M84.574 29.531a.78.78 0 0 0 1.135-.191c.3-.479.246-1.367-.096-1.518-.341-.15-1.093.123-1.367.506a.834.834 0 0 0 .328 1.203M90.234 18.334c.355-.071.688-.226.971-.451.3-.246.273-.615-.096-.889a.78.78 0 0 0-.71-.205 1 1 0 0 0-.37-.41 1.08 1.08 0 0 0-1.367.232c-.506.739-.492 1.6 0 1.914a1.57 1.57 0 0 0 1.572-.191M89.018 15.45a.9.9 0 0 0 0-1.368.97.97 0 0 0-1.286 0 1.026 1.026 0 0 0 0 1.367.834.834 0 0 0 1.285 0M91.274 21.875a.56.56 0 0 0 .86-.328c.11-.274.343-.998 0-1.162-.341-.164-.997.246-1.175.492s-.096.725.314.998M86.229 19.223c-.329-.274-.657 0-.862.328s-.11.888.26.97.916.288 1.107-.19c.192-.48-.273-.917-.505-1.108M86.42 34.043c.178-.096.451-.738.287-.916s-.793-.082-.889 0-.314.629-.191.793.615.26.793.123M86.967 11.854a2.05 2.05 0 0 0-2.475.45c-.533.698-.219 1.737.739 2.434a1.465 1.465 0 0 0 2.078-.328 1.955 1.955 0 0 0-.342-2.556M76.166 24.924a1 1 0 0 0-.123-.902.697.697 0 0 0-1.107-.11.78.78 0 0 0-.083 1.067c.206.314 1.176.273 1.313-.055M66.65 19.14a.984.984 0 0 0 0 1.286c.533.465 1.067.191 1.586 0 .11-1.053 0-1.45-.574-1.613a.89.89 0 0 0-1.012.328M70.014 17.87c.656-.712.738-1.259.246-1.75a1.48 1.48 0 0 0-1.737.095 1.65 1.65 0 0 0 .233 1.764.85.85 0 0 0 1.258-.11M67.21 24.022c.575-.383 1.013-.752.74-1.368a.87.87 0 0 0-.712-.41 1.37 1.37 0 0 0-.861.643c-.246.629.37.806.834 1.134M66.705 13.672a1.52 1.52 0 0 1 1.367 1.012 1.37 1.37 0 0 0 1.586.41c.31-.29.5-.685.533-1.108a.74.74 0 0 0 .22-.287.794.794 0 0 0-.684-1.066.534.534 0 0 0-.616-.246 2.13 2.13 0 0 1-1.75-.397.725.725 0 0 0-1.107.315c-.219.478-.055 1.244.451 1.367M62.672 28.82a1 1 0 0 0-1.285 0 1.05 1.05 0 0 0 0 1.367.834.834 0 0 0 1.162 0 .904.904 0 0 0 .123-1.367M75.195 35.547a.55.55 0 0 0 0-.479.68.68 0 0 0-.574-.082c-.123.069-.273.56-.178.67s.547-.04.752-.11M62.549 33.592a.533.533 0 0 0 0-.903c-.315-.26-.657-.45-1.04-.123a1.08 1.08 0 0 0 .11 1.3 1.03 1.03 0 0 0 .93-.274M61.332 39.225a1 1 0 0 0 0-1.176c-.3-.328-.984 0-1.367.15s-.56 1.135-.26 1.477 1.367-.178 1.627-.451M72.693 24.828c-.328-.273-.574-.096-.806.123a.588.588 0 0 0 0 .985c.26.15.574.314.82.177a1.05 1.05 0 0 0-.014-1.285M75.018 12.62c.224.088.473.088.697 0 .465-.233.684.97 1.367.683.684-.287 1.258.369 2.037-.069.78-.437 1.23-1.367.63-1.859a3.04 3.04 0 0 0-1.997-.602.8.8 0 0 0-.437.11 1.37 1.37 0 0 0-.178-1.586c-.451-.3-1.203 0-1.64.642a1.05 1.05 0 0 0-1.218.206 1.56 1.56 0 0 0-.123 1.845 1.71 1.71 0 0 0-1.449.52 1.736 1.736 0 0 0 .192 2.256 1.46 1.46 0 0 0 1.955 0 2.37 2.37 0 0 0 .164-2.147M71.559 10.842l.957-.916a7 7 0 0 0-.424-.739.97.97 0 0 0-.875-.355 1.23 1.23 0 0 0-.356-.875l-.123-.123a.63.63 0 0 0-.15-.643l-2.447.561q.032.058.095.082c.739.219.657.861.78 1.367a.903.903 0 0 0 1.367.697l.178-.082a.8.8 0 0 0 .191.397q.361.368.807.629M75.195 22.326c.342 0 .479-.369.315-.738a1.37 1.37 0 0 0-.807-.725.436.436 0 0 0-.547.397c0 .273.205.45.424.656.219.205.37.396.615.41M72.584 34.945a.26.26 0 0 0 0-.314.273.273 0 0 0-.383 0 .29.29 0 0 0 0 .369s.328.014.383-.055M72.201 33.209c.424-.424.492-.889.192-1.135a1.49 1.49 0 0 0-1.559 0 .9.9 0 0 0 .11 1.272.85.85 0 0 0 1.257-.137"/><path fill="#CED5E1" d="M65.53 41.918c0 2.037 2.734 2.98 4.265 3.732 4.498 2.256 9.174 3.405 13.672 5.66s9.064 4.54 13.672 6.577c1.9.847 4.484 2.256 6.658 1.64a2.01 2.01 0 0 0 1.442-2.053 2 2 0 0 0-.253-.859c-1.162-2.2-4.58-3.213-6.672-4.033-5.017-1.982-10.076-3.855-15.107-5.797-.889-.328-17.842-9.98-17.773-4.867zM60.908 139.645c1.367 1.367 3.705 0 5.018-.657 4.334-1.968 7.724-4.976 11.99-7.041 4.266-2.064 8.942-4.279 13.18-6.713 1.709-.97 4.101-2.146 4.744-4.183a2.01 2.01 0 0 0-1.367-2.447c-2.365-.547-4.99 1.367-6.836 2.419a336 336 0 0 0-12.797 8.039c-1.45.958-17.2 6.918-13.877 10.583zM.643 65.188a12.57 12.57 0 0 0 4.101 4.347 20 20 0 0 1 2.967 1.737c1.23 1.093 2.256 2.433 3.5 3.54 1.695 1.518 7.861 9.57 10.637 5.948 2.775-3.623-6.125-8.094-8.012-9.57-1.244-.971-2.734-1.737-3.924-2.735-.93-.82-1.367-1.79-2.215-2.734a13.2 13.2 0 0 0-4.963-3.282 1.887 1.887 0 0 0-2.119 2.735zM2.584 110.045a12.5 12.5 0 0 0 4.799-2.953 18.5 18.5 0 0 0 1.463-1.901c.642-.752-.233 0 .875-.765 1.107-.766 2.488-1.504 3.65-2.365 1.928-1.368 11.266-6.002 8.504-9.57-2.762-3.57-9.147 4.306-10.938 5.823-1.216 1.026-2.255 2.188-3.418 3.268-1.162 1.08 0 .26-.875.738-.601.315-1.367.356-1.968.752a12.8 12.8 0 0 0-4.211 4.211 1.901 1.901 0 0 0 2.119 2.735zM74.102 85.08a15.7 15.7 0 0 0-6.508-.97c-4.457-.096-8.764.177-13.316 0-3.87-.165-13.317-2.735-16.53.56a2.023 2.023 0 0 0 0 2.816c3.063 3.309 12.742 1.108 16.53 1.08 4.416 0 8.435.165 12.769.41a15.6 15.6 0 0 0 7.055-.765 1.805 1.805 0 0 0 0-3.104z"/><path fill="#07C" d="M27.453 92.709a6.33 6.33 0 1 0 0-12.66 6.33 6.33 0 0 0 0 12.66"/><path fill="#1BA9F5" d="M76.822 54.688h79.16a7.246 7.246 0 0 1 7.247 7.246v52.746h-93.64V61.934a7.246 7.246 0 0 1 7.233-7.246"/><path fill="#07C" d="M156.023 62.002H76.809v52.664h79.214z"/><path fill="#CED5E1" d="M37.762 2.147c-.985 1.832.738 4.443 1.558 6.015a14.4 14.4 0 0 0 2.393 2.734c1.135 1.45 1.709 4.102 2.543 5.797 1.012 2.01 4.539 13.276 8.586 10.938s-3.527-11.074-4.758-13.125c-.547-.916-1.148-1.805-1.75-2.735-.287-.437-1.86-1.832-1.9-1.955-.041-.123.3-1.517.232-1.873-.2-.683-.51-1.33-.916-1.914-.984-1.654-2.297-4.58-4.484-4.744a1.7 1.7 0 0 0-1.504.862M16.57 36.914a12.44 12.44 0 0 0 6.276.93c4.006-.164 7.642-.233 11.73 0 3.418.15 11.895 2.379 14.342-1.135a1.92 1.92 0 0 0 0-1.996c-2.352-3.541-10.937-1.463-14.342-1.367-3.758.11-7.518.014-11.265-.287a13.15 13.15 0 0 0-6.74.82 1.804 1.804 0 0 0 0 3.103zM13.48 140.52a12.03 12.03 0 0 0 6.522 1.982c3.555.267 7.09.761 10.582 1.477 2.351.437 12.564 4.402 13.672.109 1.217-4.621-9.899-4.102-11.963-4.361a59.6 59.6 0 0 1-10.568-1.832c-1.928-.575-5.47-1.176-7.465-.397-1.135.451-1.955 2.065-.807 3.022zM33.291 173.523a12.3 12.3 0 0 0 3.91-4.224 26 26 0 0 1 1.627-3.24c.889-1.163 2.01-2.161 2.912-3.309 1.49-1.914 8.873-8.381 5.387-11.115s-7.424 6.207-8.723 8.08c-.902 1.367-1.572 2.734-2.474 4.101a18.4 18.4 0 0 1-2.543 2.516 12.2 12.2 0 0 0-2.871 5.059 1.912 1.912 0 0 0 2.734 2.132z"/><path fill="#07C" d="M56.766 42.56a6.33 6.33 0 1 0 0-12.66 6.33 6.33 0 0 0 0 12.66M51.748 150.322a6.33 6.33 0 1 0 0-12.66 6.33 6.33 0 0 0 0 12.66"/><path fill="#0269B3" d="m121.092 114.557.191.123h1.436q.28-.364.437-.793a1.11 1.11 0 0 0 0-1.012.76.76 0 0 0 .369-.629.707.707 0 0 0-.765-.752c-.369 0-.766 0-.821.383a1.8 1.8 0 0 0 0 .492c-.478 0-.97.178-1.599.287-.24-.3-.532-.554-.862-.752.086-.188.115-.397.083-.601a2 2 0 0 0-.096-.151 2.1 2.1 0 0 0-.41-.765c-.903.095-1.217.301-1.244.793a.75.75 0 0 0 .382.711 2.01 2.01 0 0 0-.738 2.625v.164h3.459zM115.199 105.273a.723.723 0 0 0-.798.091.7.7 0 0 0-.172.224.89.89 0 0 0 .191.957c-.369.383-.315.834.383 1.285l.82.15a1.13 1.13 0 0 0-.602.698.76.76 0 0 0 .274.547 1.2 1.2 0 0 0-.246.273.63.63 0 0 0-.082.342.8.8 0 0 0-.246.137.994.994 0 0 0 .287 1.367.654.654 0 0 0 .916-.164q.112-.13.178-.287c.317-.073.599-.258.793-.52a.67.67 0 0 0-.11-.848.89.89 0 0 0 .369-.615 1.23 1.23 0 0 0-.355-.916.68.68 0 0 0 .41-.615.737.737 0 0 0-.629-.807 2.3 2.3 0 0 1-.643-.246l-.328-.137a.807.807 0 0 0-.41-.916M108.924 106.039a1.5 1.5 0 0 0-.547-.67 1.58 1.58 0 0 0-1.846.492 1.37 1.37 0 0 0 .451 1.737l.178.164a1.169 1.169 0 0 0 1.363.035q.203-.14.332-.35c.077-.135.128-.284.151-.437l.123.123-.178.219c.178.587.574.724 1.162.574.615 1.135 1.367 1.203 2.092.287.323-.025.632-.144.889-.342a.78.78 0 0 0 .506-.437.73.73 0 0 0 0-.821 1.021 1.021 0 0 0-.493-.738 1.94 1.94 0 0 0-1.845.26.85.85 0 0 0-.137-.588c-.287-.356.683-.752.314-1.272-.369-.519 0-1.134-.437-1.695-.438-.56-1.367-.793-1.695-.191a2.74 2.74 0 0 0-.124 1.804c0 .479.698.561.315.985a2.8 2.8 0 0 0-.574.861M118.645 105.273h.3a.84.84 0 0 0 .588-.191c0 .137 0 .273.137.328s.766-.328.889-.519c.123-.192-.11-.506-.274-.657a.425.425 0 0 0-.547 0 .9.9 0 0 0-.67-.519.71.71 0 0 0-.779.629.9.9 0 0 0 0 .383v.15a.356.356 0 0 0 .356.396M136.855 114.516a1 1 0 0 0-.15-.493.6.6 0 0 0 .164-.095c.219-.328-.383-1.053-.67-1.231a.85.85 0 0 0-.998.205.54.54 0 0 0 0 .506 1.54 1.54 0 0 0-.765 1.272h2.392a.7.7 0 0 0 .027-.164M144.922 114.68h2.639l-.069-.233c-.232-.41-.506-.738-.205-1.285s-.123-.683-.519-.848c-.547.233-.711.602-.493 1.053q-.616.382-1.148.875a1 1 0 0 0-.205.438M118.029 108.145c.643.41 1.121.369 1.367-.096a1.365 1.365 0 0 0-.232-1.682 1.37 1.37 0 0 0-1.668.369 1.136 1.136 0 0 0 .533 1.409"/><path fill="#0269B3" d="M121.461 111.508c.178.246.478 0 .615-.11a.2.2 0 0 0 0-.082c.506-.082.629-.464.574-.97-.314-.178-.642-.397-.97-.164a.655.655 0 0 0-.793 0 .76.76 0 0 0-.233.67 1.22 1.22 0 0 0 .807.656M84.766 85.887c.218-.178 0-.506-.11-.534a.41.41 0 0 0-.52 0 .29.29 0 0 0 0 .424c.206.096.48.274.63.11M87.76 89.81a1.37 1.37 0 0 0-.137-1.75 1.176 1.176 0 0 0-1.367.493 1.067 1.067 0 0 0 .424 1.367c.41.314.82.314 1.08-.11M82.605 91.998a1.066 1.066 0 0 0 1.586 1.367c.182-.2.305-.445.356-.71a1.6 1.6 0 0 0 1.12.847 1.2 1.2 0 0 0 1.177-.52.96.96 0 0 0 .164-.56q.077.146.136.3c.15.301.588.274.89 0 .3-.273.368-.628 0-.86-.37-.233-.726-.602-1.067-.288a.44.44 0 0 0-.137.315 1.2 1.2 0 0 0-.902-.684c-.438 0-.916-.205-1.19 0a.74.74 0 0 0-.273.629 2 2 0 0 0-.123-.219c-.26-.191-1.381-.013-1.737.383M88.402 105.998c-.219-.26-.355-.588-.806-.602a.87.87 0 0 0-.725.479 1.36 1.36 0 0 0-1.053.342c-.547.533-.615.998-.218 1.367a.8.8 0 0 0 .26.164 1.37 1.37 0 0 0 .382 1.436c.41.273.97 0 1.367-.616a.7.7 0 0 0 .41-.177.95.95 0 0 0 .178-.93q.172-.088.3-.232a.95.95 0 0 0 .233 1.08c-.246-.096-.52-.164-.642 0-.123.164.15.806.314.957s.52 0 .698-.11a.38.38 0 0 0 .144-.529.4.4 0 0 0-.144-.141l-.165-.082a1.36 1.36 0 0 0 1.135-.437 1.08 1.08 0 0 0-.41-1.067.795.795 0 0 0-.998.137.3.3 0 0 0 0-.096c.205-.382-.027-.656-.26-.943M93.46 104.467a1.368 1.368 0 0 0-1.613.847 1.46 1.46 0 0 0 1.245 1.573q.335 0 .656-.096a.8.8 0 0 0 .082.574.65.65 0 0 0 .342.26c-.506.424-.246.902 0 1.367.492 0 1.012 0 1.203-.533a.69.69 0 0 0-.178-.777.7.7 0 0 0-.246-.139h-.137q.195-.095.37-.219c0-.492 0-.998-.575-1.135H94.5q.062-.09.11-.191c.218-.533-.41-1.203-1.15-1.531M96.25 110.742a.13.13 0 0 0 0 .069.77.77 0 0 0-.41.205.44.44 0 0 0-.123.218 1.37 1.37 0 0 0-.506.793c0 .369.328.739.533 1.162-.273.233-.615.534-.355 1.04q.281.104.574.164-.009.15 0 .3h1.367a.79.79 0 0 0-.164-.998 1 1 0 0 0-.78-.218v-.137c.22-.26.452-.465.602-.67h.137a1.035 1.035 0 0 0 1.367-.479q.105-.18.15-.382c.26 1.367 1.217 1.722 2.735.861q.18.111.342.246.108.136.261.217a.83.83 0 0 0 .956-.121 1.01 1.01 0 0 0 .41-1.121c-.11-1.217-.52-1.586-1.6-1.45-.82.11-1.654.164-2.46.247-.356-1.655-.52-1.75-1.696-1.217-.042.212-.042.43 0 .642a1.365 1.365 0 0 0-1.34.629"/><path fill="#0269B3" d="M99.805 108.514c-.123-.629-.246-1.121-.916-1.135a.618.618 0 0 0-.65.317.6.6 0 0 0-.075.243c-.034.319.06.639.26.889.52.451.916-.055 1.38-.314M90.59 108.172h-.41a1.36 1.36 0 0 0-.862 1.285c-.004.172.023.344.082.506a.85.85 0 0 0-.191.492.7.7 0 0 0-.219.164 1 1 0 0 0-.177.465 2.3 2.3 0 0 0-.11-.588c-.273-.738-.752-.902-1.736-.642a6 6 0 0 0-1.094-.725.886.886 0 0 0-1.148.478c-.178.561-.26 1.135-.397 1.737-.738.273-.766.314-.492 1.162.273.205.861-.137.875.465a.78.78 0 0 0-.629-.328c-.164 0-.396 0-.451.191q-.255.533-.438 1.094c-.33.114-.632.295-.888.533a2.4 2.4 0 0 0-.082-.451 1.37 1.37 0 0 0 .615-1.367 1.364 1.364 0 0 0-1.19-1.286.6.6 0 0 0-.341 0 1.165 1.165 0 0 0-1.49 0s-.083.11-.124.151c-.1-.191-.24-.359-.41-.492a.96.96 0 0 0-.752-.875 1.24 1.24 0 0 0-1.504.875l-.082.218v3.35h1.368c.41-.082.751-.191.874-.096a.4.4 0 0 1 0 .164h8.764a.81.81 0 0 1 0-.888.605.605 0 0 0 0-.875c.131-.146.229-.319.287-.506.325-.237.545-.589.615-.985a1.03 1.03 0 0 0 .274.78c.37.314 1.08.095 1.517-.479q.005-.075 0-.15c.225.005.446-.062.63-.192a1.37 1.37 0 0 1 1.148-.191.92.92 0 0 0 .574 0c.697.369 1.258 0 1.367-.848a1.4 1.4 0 0 0 0-.533.71.71 0 0 0-.219-.711.55.55 0 0 0-.697-.082 1.8 1.8 0 0 0-.533-.629h-.602a1 1 0 0 0-.328-1.367q-.216-.151-.382-.355c-.301-.479-.67-.643-.985-.452-.314.192-.424.752 0 1.245 0 0 .15 0 .178.109.164.273.164.465-.205.629M81.389 91.328a1.2 1.2 0 0 0-1.23-.15 1.03 1.03 0 0 0 0 1.216q-.169.093-.302.233a.87.87 0 0 0 0 1.244 1.4 1.4 0 0 0-.246-.11 2 2 0 0 1 0-.286c0-.438-.232-.602-.601-.725a.725.725 0 0 0-.807.273c-.574.602-.56.985.082 1.532l1.367 1.244c-.683.93-.656 1.066.246 1.476a.93.93 0 0 0 .643.178l-.164.123a.792.792 0 0 0 .219 1.285c.465.26.423.63.492 1.067-1.176.246-1.518.888-1.04 1.818q.064.137.151.26c.424.574.848.629 1.367.164a1.195 1.195 0 0 0 .642-1.246 1.2 1.2 0 0 0-.177-.463c.278.06.546.161.793.301a.7.7 0 0 0 .506.211.72.72 0 0 0 .506-.211 1.05 1.05 0 0 0 .506-1.135 7 7 0 0 0-.274-.807.2.2 0 0 1 0-.082 1.26 1.26 0 0 0-1.23-.793.64.64 0 0 0-.246-.328.48.48 0 0 0 0-.656.6.6 0 0 0-.903-.137 1.37 1.37 0 0 0-.287-1.19.9.9 0 0 0-.71-.15.834.834 0 0 0-.096-1.162.99.99 0 0 0 .806-.205 1.76 1.76 0 0 0 .123-1.805h-.095a.82.82 0 0 0-.041-.984m.109 5.742q-.084.198-.11.41a.9.9 0 0 0-.369-.164c.178-.04.343-.124.479-.246M150.295 110.154c-.233 0-.588.397-.684.588-.095.192.205.779.52.711a.77.77 0 0 0 .506-.492c.027-.219-.096-.738-.342-.807M150.158 108.213a.76.76 0 0 0-.585-.145.755.755 0 0 0-.509.323.79.79 0 0 0 .151 1.011.77.77 0 0 0 .589.114.757.757 0 0 0 .491-.346.6.6 0 0 0-.137-.957M146.973 110.141a.9.9 0 0 0 .208.704.88.88 0 0 0 .667.307c.738.123 1.148-.218 1.244-.97s-.26-1.244-.711-1.286a1.59 1.59 0 0 0-1.408 1.245M149.406 114.352a.85.85 0 0 0-.67.328h1.217a.65.65 0 0 0-.547-.328M143.391 114.256a.86.86 0 0 0-.739.273.35.35 0 0 0-.095.151h1.162c-.082-.219-.164-.41-.328-.424M113.477 101.924a1.2 1.2 0 0 0-.657.396h-.123a.78.78 0 0 0-.861.588.763.763 0 0 0 .342.985c.13.07.276.103.424.095a1.362 1.362 0 0 0 1.23.793c.561 0 .957-.806.998-1.599a1.366 1.366 0 0 0-1.353-1.258M112.629 100.133a.94.94 0 0 0-.752-.11 1.8 1.8 0 0 0-.684-.437c-.382.342-.861.56-.642 1.107a.82.82 0 0 0 .361.413c.165.093.356.125.541.093h.164a1 1 0 0 0 0 .178c.492 0 .971.219 1.244-.314a.68.68 0 0 0-.232-.93M97.686 114.68h.546a1.2 1.2 0 0 0-.382 0zM116.348 114.037a1.37 1.37 0 0 0-.985-.273.977.977 0 0 0-.451-.629l-.301-.192v-.164c0-.383-.191-.711-.546-.656a2 2 0 0 0-.383.096c.117-.215.28-.402.478-.547a1.19 1.19 0 0 0 0-1.367 1.6 1.6 0 0 0-1.64 0c-.233.191-.547.41-.534.711h-.218c-1.053.546-1.368.943-1.368 1.695a1.35 1.35 0 0 0-1.016-.253 1.37 1.37 0 0 0-.898.54 1.37 1.37 0 0 0-.41.93.405.405 0 0 0-.287.383 1.2 1.2 0 0 0 0 .382h5.1a.7.7 0 0 0-.424-.341.73.73 0 0 0-.629.273c.178-.301.492-.369.834-.506q.133.31.342.574h3.746a.74.74 0 0 0-.41-.656"/><path fill="#0269B3" d="M94.514 114.119a1 1 0 0 0-.192-.246.7.7 0 0 0 .301-.219 1.2 1.2 0 0 0 0-1.367 1.365 1.365 0 0 0-1.668.137c-.246.355 0 .888.41 1.367 0 0-.11 0-.15.096a1.2 1.2 0 0 0-.656.342 1.2 1.2 0 0 0-.807.123.7.7 0 0 0-.164-.192c.277-.219.459-.538.506-.889a.9.9 0 0 0-.78-.82.78.78 0 0 0-.956.383 1.54 1.54 0 0 0 .123 1.189.96.96 0 0 0-.657.315.63.63 0 0 0 0 .396h5.14a1.46 1.46 0 0 1-.45-.615M110.742 102.143c.137 0 .561 0 .574-.247a.565.565 0 0 0-.423-.451.49.49 0 0 0-.397.287c-.082.11.096.383.246.411M76.809 99.477v1.298a1.36 1.36 0 0 0 0-1.298M79.406 100.611a1.11 1.11 0 0 0-.3-1.19.587.587 0 0 0-.862.233c-.355.534-.41.998-.15 1.19a1.28 1.28 0 0 0 1.312-.233M77.93 105.109l.355.274a1.37 1.37 0 0 0 .287 1.203q.2.194.451.314c0 .219.137.438.22.657.081.218-.165.164-.247.246q-.553.07-1.08.26l-.328-.493a1 1 0 0 0-.37-.314.64.64 0 0 0-.341-.096v2.215q.166.135.3.301a.92.92 0 0 0 .753.15q.493-.11.998-.137.13.126.287.219a1.036 1.036 0 0 0 1.352-.08c.119-.115.208-.256.261-.412h.191a1.37 1.37 0 0 0 .137 1.572 1.45 1.45 0 0 0 1.873.192 1.9 1.9 0 0 0 0-2.284 1.1 1.1 0 0 0-.752-.259.77.77 0 0 0-.164-.602 2.5 2.5 0 0 0-.355-1.176 1.37 1.37 0 0 0 .506-1.107 1.67 1.67 0 0 0-.944-1.367 1.53 1.53 0 0 0-.382-1.367 1.37 1.37 0 0 0-.752-.329 1.88 1.88 0 0 0-1.97.725 1.1 1.1 0 0 0-.15.397 1 1 0 0 0-.355.273c-.328.506-.164.779.219 1.025M76.809 104.439v.698a.78.78 0 0 0 0-.698M76.809 93.584v4.32a.97.97 0 0 0 .52-.246.81.81 0 0 0 .136-.943.67.67 0 0 0-.082-.684 1.8 1.8 0 0 0-.479-.492.86.86 0 0 0 .52-.219 1.37 1.37 0 0 0 .095-1.449c-.2-.168-.45-.268-.71-.287M148.572 104.508c.192.096.588.137.711 0a.5.5 0 0 0 0-.342.79.79 0 0 0 .634-.124.778.778 0 0 0 .323-.56.85.85 0 0 0-1.078-.894.8.8 0 0 0-.59.717.65.65 0 0 0 .069.355h-.37c-.054 0 .178.793.301.848M78.463 92.053c.328-.479.164-.766-.082-.93s-.643-.26-.793.096h-.082c-.197.165-.441.26-.697.273v1.367l.218-.095q.445-.31.82-.698.31.025.616-.013M149.434 112.602a.866.866 0 0 0-.602-1.053 1.66 1.66 0 0 0-1.449.93c-.096.601.301 1.052 1.025 1.148.725.096.93-.314 1.026-1.025M116.908 102.539c.342 0 .684 0 .779-.465v-.109a1.26 1.26 0 0 0 1.586-.451 1.58 1.58 0 0 0 .137-1.368c.315.083.848.151.971 0 .123-.15-.274-.806-.465-1.025s-.697 0-.848.273v.165s-.082-.11-.136-.137a1.68 1.68 0 0 0-2.024.424 1.22 1.22 0 0 0 0 1.435.94.94 0 0 0-.396.615.46.46 0 0 0 .033.423.47.47 0 0 0 .363.22M133.246 92.64c-.178-.122-.465.137-.56.26a.41.41 0 0 0 .082.438c.123.082.382 0 .505-.164s.151-.41-.027-.533M112.027 92.49c.26.096.957.205 1.122 0 .164-.205-.329-.806-.547-.97a.47.47 0 0 0-.625.036.5.5 0 0 0-.114.196c-.136.273-.177.615.164.738M109.06 92.04s0-.247-.109-.274-.205 0-.26 0a.234.234 0 0 0 0 .328c.192.11.315 0 .369-.055M108.336 95.908a.89.89 0 0 0 1.135 0c.143-.133.247-.303.3-.492a.7.7 0 0 0 .766-.26.9.9 0 0 0 .656-.383.726.726 0 0 0-.232-.97.782.782 0 0 0-1.162.178.53.53 0 0 0-.424.355 1.2 1.2 0 0 0-1.176 0c-.383.287-.328 1.012.137 1.572M120.695 95.54c.192-.192 0-.493-.095-.52a.7.7 0 0 0-.506 0 .46.46 0 0 0 0 .423c.137.11.424.26.601.096M119.424 89.742c.109-.191-.151-.752-.301-.957s-.602-.164-.861.178a.46.46 0 0 0-.112.423.46.46 0 0 0 .289.329c.233.11.875.205.985.027M133.984 113.189a1.5 1.5 0 0 0-.587-.587.6.6 0 0 0 .587-.493c0-.601-.355-.834-.861-1.039-.396.328-.875.561-.642 1.108a1 1 0 0 0 .177.287 1.84 1.84 0 0 0-.765.109 1.2 1.2 0 0 0-.492.369.8.8 0 0 0-.151-.15.53.53 0 0 0-.369-.137q.151-.139.26-.314c.369-.588.355-.985-.069-1.258a2 2 0 0 0-.246-.109.81.81 0 0 0 .616-.602 1.23 1.23 0 0 0-.916-1.189.68.68 0 0 0-.713.347.7.7 0 0 0-.08.268 1.041 1.041 0 0 0 .464 1.08.84.84 0 0 0-.574.396 1.7 1.7 0 0 0 .438 1.477.55.55 0 0 0 .492.096v.082c-.164.314-.26.642.082.902a.5.5 0 0 0 .287.068 2.9 2.9 0 0 0-.164.848h3.172a1.8 1.8 0 0 0 .054-1.559M119.67 96.77c.007.222.1.432.26.587-.096 0-.192 0-.205.082a.63.63 0 0 0 0 .506.437.437 0 0 0 .601 0 .23.23 0 0 0 0-.328.685.685 0 0 0 .807-.574.84.84 0 0 0-.363-.872.85.85 0 0 0-.307-.126.86.86 0 0 0-.793.724M112.684 87.773c0-.123.095-.41 0-.52-.096-.109-.424 0-.52.11s-.178.52 0 .63.451-.096.52-.22M96.182 96.797c.642.41 1.107.383 1.435-.082a1.37 1.37 0 0 0-.246-1.668 1.366 1.366 0 0 0-1.654.355 1.11 1.11 0 0 0 .465 1.395M79.543 72.092a.71.71 0 0 0 .643-.656.656.656 0 0 0-1.067-.452.684.684 0 0 0 .424 1.108M91.52 84.246c.478 0 .957.219 1.216-.3a.8.8 0 0 0 0-.548.85.85 0 0 0 .78-.095 1.11 1.11 0 0 0 .369-1.285.875.875 0 0 0-.916-.67c-.383 0-1.19-.11-1.367.424-.178.533.273.656.382.902a.9.9 0 0 0 .178.219.6.6 0 0 0-.287 0c-.642.287-.602.779-.355 1.353M101.582 82.332a.617.617 0 0 0 .602-.574c0-.602-.342-.82-.862-1.04-.382.343-.861.561-.642 1.108a.82.82 0 0 0 .902.506M77.643 76.412a.93.93 0 0 0 .492.479 1.365 1.365 0 0 0 1.859-.739l.232-.45c.301.15.561.314.834.423a.74.74 0 0 0 1.108-.37 1.135 1.135 0 0 0 0-1.366 1.025 1.025 0 0 0-1.203-.328 6 6 0 0 0-.916.464 5 5 0 0 0-.452-.218 1.545 1.545 0 0 0-1.681.341 1.79 1.79 0 0 0-.273 1.764M96.442 93.174a.51.51 0 0 0 0-.533c-.082-.11-.493-.315-.616-.164a.49.49 0 0 0 0 .533c.233.11.506.314.616.164M99.559 89.113a.71.71 0 0 0 .656-.656.66.66 0 0 0-.408-.543.67.67 0 0 0-.672.092.684.684 0 0 0 .424 1.107M97.645 93.42c0 .273 0 .574.109.683.11.11.314 0 .478-.136q.144.015.287 0a.2.2 0 0 0-.082 0 .424.424 0 0 0 0 .656.465.465 0 0 0 .588-.082.41.41 0 0 0 0-.56l-.123-.096a1.53 1.53 0 0 0 1.026-.807l.232-.465c.287.15.561.315.834.438h.096a1.25 1.25 0 0 0-.697.437 1.46 1.46 0 0 0 0 1.942 1.97 1.97 0 0 0 1.927 0 .384.384 0 0 0 .451-.082c.137-.15 0-.301 0-.41a1.47 1.47 0 0 0-.464-1.71 1.6 1.6 0 0 0-.506-.205q.18-.151.301-.355a1.18 1.18 0 0 0 0-1.367 1.04 1.04 0 0 0-1.217-.328 5 5 0 0 0-.916.465 3.4 3.4 0 0 0-.451-.22 1.56 1.56 0 0 0-1.71.343 1.75 1.75 0 0 0-.164 1.859M140.15 93.174c0-.3-.259-1.026-.547-1.08-.287-.055-.601.67-.56.78.041.108.232.751.615.833s.506-.383.492-.533M143.021 98.629a.49.49 0 0 0-.613.126.5.5 0 0 0-.097.202c-.11.37.136.889.464.861.328-.027.916-.15.944-.533s-.465-.574-.698-.656M132.74 95.908a.206.206 0 0 0 .151.232.23.23 0 0 0 .232-.117.2.2 0 0 0 .027-.087c0-.137-.136-.22-.218-.233s-.192.15-.192.205M138.783 111.33h-.219a2.35 2.35 0 0 0-1.449 2.42c.029.314.127.617.287.889h3.979a1.74 1.74 0 0 0 .383-.916.7.7 0 0 0 .259-.438.882.882 0 0 0-.328-.711 1.8 1.8 0 0 0-.232-.424 1.58 1.58 0 0 0-.615-1.367 1.37 1.37 0 0 0-.957-.137c-.082-.341-.534-.751-.752-.683-.219.068-.383.383-.465.656a.489.489 0 0 0 .191.561s-.068.136-.082.15M153.727 107.146a1.6 1.6 0 0 0 0 .342h-.11c-.355.096-.998.575-.642 1.203 1.039.67.328 1.19.916 1.914q.145.144.328.233a1 1 0 0 0 1.068-.051 1 1 0 0 0 .408-.988 6.4 6.4 0 0 0-.382-1.504 1.45 1.45 0 0 0 .382-.697c.096-.493-.328-.93-1.011-1.053a.8.8 0 0 0-.608.095.77.77 0 0 0-.349.506M155.709 101.691c0-.191-.314-.437-.451-.451-.137-.013-.41.082-.438.274-.027.191.178.382.301.423.123.042.561-.068.588-.246M155.08 104.576c0 .069 0 .219.15.233a.232.232 0 0 0 .232-.118.2.2 0 0 0 .028-.087c0-.151-.136-.219-.219-.233s-.191.137-.191.205M143.924 94.445a.53.53 0 0 0 .437-.246c0-.11 0-.52-.232-.56s-.383.314-.438.465c-.054.15.083.328.233.341M138.578 99.162a.755.755 0 0 0 .336.782q.129.081.279.107a.904.904 0 0 0 .944-.615.795.795 0 0 0-.652-.866.79.79 0 0 0-.907.592M142.352 108.678a.8.8 0 0 0 0 .164l-.137-.123h-.41a.57.57 0 0 0 0 .506.53.53 0 0 0 .342.136 1.28 1.28 0 0 0 .56 1.368 1.79 1.79 0 0 0 1.545-.11.715.715 0 0 0 .561.697h-.082a1.06 1.06 0 0 0-.836.175 1.05 1.05 0 0 0-.422.741c-.069.575.287 1.176.711 1.204a1.505 1.505 0 0 0 1.463-1.204.5.5 0 0 0 0-.191.9.9 0 0 0 .341-.342.427.427 0 0 0 .015-.564.4.4 0 0 0-.165-.119.8.8 0 0 0-.232-.096 1.1 1.1 0 0 0 .15-.342.78.78 0 0 0-.615-.902h-.219a1.4 1.4 0 0 0 0-.328.8.8 0 0 0 .355.246.79.79 0 0 0 .93-.602.62.62 0 0 0-.052-.546.61.61 0 0 0-.467-.288.77.77 0 0 0-.594.076.76.76 0 0 0-.35.485 1.9 1.9 0 0 0-.424-.492h-.082a1.37 1.37 0 0 0 .875-1.204 2 2 0 0 0 0-.656.65.65 0 0 0 .547 0 1 1 0 0 0 .26-1.367 1.363 1.363 0 0 0-1.367-.506 1.03 1.03 0 0 0-.67 1.039q-.24 0-.465.082a.769.769 0 0 0-1.531-.123.9.9 0 0 0 .656.848q-.074.15-.109.314a1.47 1.47 0 0 0 .574 1.463 1.16 1.16 0 0 0-.656.561M132.877 108.268a.72.72 0 0 0 0 .943.78.78 0 0 1 .383.383c.15.109.765.082.861-.11.096-.191 0-.218 0-.369l.602.547-.684.834q.122.405.314.779a1.56 1.56 0 0 0 1.368.561 1.147 1.147 0 0 0 .492-1.367c0-.205-.11-.397-.164-.602.401-.283.71-.677.888-1.135h.356a1.365 1.365 0 0 0 1.053-1.476 1.37 1.37 0 0 0-.657-.725 1.6 1.6 0 0 0 .219-.396 1.46 1.46 0 0 0-.287-.862.54.54 0 0 0 0-.287c-.109-.437-.547-.382-.902-.355-.274.328-.356.656-.11.957q-.143.25-.191.533a.7.7 0 0 0 .068.315 1.7 1.7 0 0 0-.396.259 1.84 1.84 0 0 0-1.75.287.86.86 0 0 0 0 .616 2.5 2.5 0 0 0-.356.588l-.341-.137a.5.5 0 0 0 .341-.205.527.527 0 0 0-.082-.492.5.5 0 0 0-.478 0 .59.59 0 0 0-.082.546.495.495 0 0 0-.465.37M140.82 106.75a.78.78 0 0 0-.916.615.836.836 0 0 0 .657.903.69.69 0 0 0 .726-.312.7.7 0 0 0 .094-.263.73.73 0 0 0-.07-.596.74.74 0 0 0-.491-.347M131.318 98.807c-.341.095-.984.56-.629 1.203 1.026.656.329 1.176.903 1.886q.152.145.342.233a.98.98 0 0 0 1.022-.034.99.99 0 0 0 .44-.923 6.3 6.3 0 0 0-.41-1.586 1.54 1.54 0 0 0-1.668-.78M134.654 99.053c.069-.123.096-.424 0-.534a.44.44 0 0 0-.506.11c-.095.096-.191.52 0 .629.192.11.438-.096.506-.205M133.984 103.797a1.8 1.8 0 0 0 .944 0c.355 0 .984-.383.902-.752a.74.74 0 0 0-.779-.52.51.51 0 0 0-.301.356l-.191-.178a.47.47 0 0 0-.445-.087.5.5 0 0 0-.197.127.45.45 0 0 0-.11.206c-.123.383-.164.725.177.848M141.436 101.021c.109-.177-.151-.751-.301-.957-.151-.205-.602-.164-.862.178a.45.45 0 0 0 .178.752c.219.178.875.178.985.027M140.738 102.977a.96.96 0 0 0 .862-.848.865.865 0 0 0-.766-.82.74.74 0 0 0-.558.196.75.75 0 0 0-.235.542.8.8 0 0 0 .141.621.8.8 0 0 0 .245.214.8.8 0 0 0 .311.095M137.594 96.414c0-.656-.274-1.203-.78-1.23a1.49 1.49 0 0 0-1.462 1.189c-.083.451.478.998 1.066 1.04a1.01 1.01 0 0 0 1.082-.574c.062-.133.094-.278.094-.425M130.156 91.123c-.164.205 0 .82.52.902a.64.64 0 0 0 .547-.273.81.81 0 0 0 0-.711.74.74 0 0 0-.552-.194.73.73 0 0 0-.515.276M108.09 101.322a.55.55 0 0 0 .588 0 .67.67 0 0 0 .875-.287 1.366 1.366 0 0 0-.137-1.763 1.09 1.09 0 0 0-1.025.122.85.85 0 0 0-.725.397 1.74 1.74 0 0 0 .424 1.531M106.053 101.965a1.01 1.01 0 0 0-.321.745 1.02 1.02 0 0 0 .321.745h-.096c-.574 0-.588-.424-.82-.725a2.4 2.4 0 0 0-.916-.56 1.7 1.7 0 0 0-.697-.082 6 6 0 0 0-.711 0c-.78.082-1.162.41-1.19 1.025a1.17 1.17 0 0 0 .356.903 1.54 1.54 0 0 0-.643.369s-.068.095-.123.15c0-.26-.287-.383-.561-.478a.73.73 0 0 0-.82.273 1.03 1.03 0 0 0-.396.875 1 1 0 0 0-.178-.273 1.68 1.68 0 0 0-2.078-.096c-.275.26-.449.609-.492.984a.96.96 0 0 0-.56.438.914.914 0 0 0 .231 1.244.97.97 0 0 0 1.258-.315v-.082a2.17 2.17 0 0 0 1.682-.205v-.109a.9.9 0 0 0 .314.109 1.135 1.135 0 0 0 .985.356.87.87 0 0 0 .547-.219l.095.096c-.451.601-.588.875-.382 1.107a1.02 1.02 0 0 0-.78 0 1.1 1.1 0 0 0 0 1.231.797.797 0 0 0 1.19 0l.082-.137.383.232c.208.116.447.163.683.137.016.204.092.399.219.561a1.09 1.09 0 0 0 .738.41 1.09 1.09 0 0 0 .807-.246 1.5 1.5 0 0 0 .383-1.162 1 1 0 0 0-.205-.452 1.17 1.17 0 0 0-.957-.095.55.55 0 0 0-.26-.492 3.3 3.3 0 0 0-1.135-.383c0-.193-.052-.382-.15-.547q.213-.184.382-.41a1.59 1.59 0 0 0 1.135-.451 1.79 1.79 0 0 0-.15-2.051 10 10 0 0 1 1.818.301c.588.191 1.367 0 1.518-.438a.68.68 0 0 0-.205-.602 1.367 1.367 0 0 0 1.736-.259c.204-.259.309-.582.294-.911a1.37 1.37 0 0 0-.376-.88 1.49 1.49 0 0 0-1.955.369M103.359 98.438a.54.54 0 0 0 .315 0 1.366 1.366 0 0 0 1.695.136.82.82 0 0 0 .574 0 1.61 1.61 0 0 0 .383-1.846c-.342-.574-.711-.574-1.873 0-.301-.437-.533-.915-1.148-.587a.78.78 0 0 0-.465.916c0 .15.15.369.273.396q.165.021.328 0a.34.34 0 0 0-.287.164.423.423 0 0 0 .205.82M110.742 81.676a.37.37 0 0 0 .082.424c.11.082.369 0 .492-.15.123-.151.151-.41 0-.534-.15-.123-.478.137-.574.26M98.602 96.482a.97.97 0 0 0 0 1.368 1.37 1.37 0 0 0 1.668.382 1.23 1.23 0 0 0 .502-.889 1.23 1.23 0 0 0-.342-.962 1.23 1.23 0 0 0-1.455-.234 1.2 1.2 0 0 0-.4.335zM111.098 97.563a.78.78 0 0 0 .259.683c.151.11.752.082.862-.11.109-.19-.205-.765-.328-.779-.123-.013-.739.014-.793.206M104.234 87.596a1.054 1.054 0 0 0-1.572.382 1.23 1.23 0 0 0-.099.941 1.21 1.21 0 0 0 .605.728 1.27 1.27 0 0 0 1.599-.52 1.04 1.04 0 0 0 .094-.891 1.06 1.06 0 0 0-.627-.64M98.725 83.781a.68.68 0 0 0-.493 0v.41c0 .041.41.26.602 0 .191-.26-.027-.382-.11-.41M104.768 92.148a.77.77 0 0 0-.237.554q0 .157.061.301a.8.8 0 0 0 .176.253 1.27 1.27 0 0 0 1.586-.192.88.88 0 0 0-.164-1.189 1.11 1.11 0 0 0-1.422.273M102.238 101.008c0 .109 0 .219.082.26q.094.161.233.287a.97.97 0 0 0 1.217-.11c.464-.629.519-1.367.095-1.654a1.37 1.37 0 0 0-1.572.287.996.996 0 0 0-.055.93M123.471 93.557a.59.59 0 0 0 .601-.575c0-.601-.341-.82-.861-1.039-.383.342-.861.56-.643 1.108a.79.79 0 0 0 .903.506M123.047 100.953a.793.793 0 0 0 .93-.601.5.5 0 0 0 0-.137v-.178a.6.6 0 0 0-.534-.451.722.722 0 0 0-.929.547.75.75 0 0 0 .533.82M112.479 95.703a1.366 1.366 0 0 0 .656 1.545c.533.314 1.039.123 1.367-.547a1.08 1.08 0 0 0-.301-1.271 1.79 1.79 0 0 0-1.722.273M122.377 104.959a1.6 1.6 0 0 0-.287.711.5.5 0 0 0-.151.15.5.5 0 0 0-.058.166.418.418 0 0 0 .236.436q.062.161.164.301a1.46 1.46 0 0 0-.724.875 1 1 0 0 0 .642 1.025c.834.123 1.518-.191 1.586-.711a1.1 1.1 0 0 0-.287-.752 1.565 1.565 0 0 0 1.19-.519 1.48 1.48 0 0 0-.37-1.928 1.46 1.46 0 0 0-1.018-.249 1.46 1.46 0 0 0-.923.495M121.475 102.963s0-.082-.11-.096a.88.88 0 0 0-.738.274.6.6 0 0 0-.143.238.619.619 0 0 0 .266.732.62.62 0 0 0 .506.096c.137.314.342.547.601.574a1.516 1.516 0 0 0 1.463-1.203c0-.41-.382-.861-.902-.902a1.12 1.12 0 0 0-.943.287M115.91 103.906c.205.506.643.356 1.039.246.205-.437.219-.834-.232-1.066a.66.66 0 0 0-.615.109.87.87 0 0 0-.192.711M114.762 92.572c-.397 0-1.217-.11-1.368.424-.15.533.274.67.383.916.301.656 1.244 1.012 1.709.629a1.13 1.13 0 0 0 .369-1.367.878.878 0 0 0-.75-.633.9.9 0 0 0-.343.031M115.473 97.959q.17-.218.259-.478c.082-.22-.205-1.08-.601-1.149-.397-.068-.779.807-.82 1.135a.837.837 0 0 0 .601.807.836.836 0 0 0 .137 1.093.846.846 0 0 0 1.025-.178c.1-.179.141-.385.117-.59a1 1 0 0 0-.253-.544.6.6 0 0 0-.465-.096M93.092 86.994a.74.74 0 0 0 .651 1.2.74.74 0 0 0 .497-.27.97.97 0 0 0-.15-1.135.75.75 0 0 0-.998.205M84.342 82.865c-.397.315-.492 1.026-.164 1.258.328.233 1.476-.328 1.531-.78.055-.45-.943-.806-1.367-.478M82.264 86.816a.51.51 0 0 0-.233-.464.426.426 0 1 0-.45.724 1.4 1.4 0 0 0-.233.164 1.368 1.368 0 0 0-.082 2.16 1.53 1.53 0 0 0 2.132 0 1.82 1.82 0 0 0-.232-2.173 1.1 1.1 0 0 0-.902-.41M83.945 80.035a1.19 1.19 0 0 0-.287 1.367 1.37 1.37 0 0 0 1.695.123 1.23 1.23 0 0 0 0-1.586c-.369-.423-.847-.396-1.408.096M85.982 84.834a1.065 1.065 0 0 0 .15 1.559c.249.246.581.388.93.396l-.164.383a.52.52 0 0 0 .698.642c.478-.26 1.08-.41 1.367-1.039a25 25 0 0 0-.274-.724c.397-.602.479-1.285.15-1.559a.7.7 0 0 0-.888 0 1.546 1.546 0 0 0-1.969.342"/><path fill="#0269B3" d="M87.596 83.084a.79.79 0 0 0 .15 1.025.7.7 0 0 0 .998-.123.81.81 0 0 0-.164-1.011.658.658 0 0 0-.984.109M76.822 85.531v.82a.589.589 0 0 0 1.024-.079.68.68 0 0 0-.108-.782.615.615 0 0 0-.916.041M76.809 81.621a.67.67 0 0 0 .45-.67.95.95 0 0 0-.396-.71zM155.668 111.193a.86.86 0 0 0 .342.834v-1.367a.83.83 0 0 0-.342.533M97.18 88.17c-.15.314-.15.656.191.78.342.122.97.218 1.108 0 .136-.22-.26-.807-.452-1.026-.191-.219-.683-.069-.847.246M94.486 91.78a.684.684 0 0 0 .424 1.107.74.74 0 0 0 .657-.656c-.014-.397-.26-.506-1.08-.452M94.2 88.867a.27.27 0 0 0-.33-.074.3.3 0 0 0-.095.074c-.109.11-.355.41-.218.588s.492 0 .546 0 .233-.465.096-.588M92.408 94.336a.93.93 0 0 0 .465 1.176c.294-.07.573-.196.82-.37.301-.314.096-.888-.328-1.12a.696.696 0 0 0-.957.314M88.115 77.26c-.382.3-.314 1.025.137 1.572a.89.89 0 0 0 1.121.068 1.094 1.094 0 0 0 .233-1.367 1.27 1.27 0 0 0-1.49-.273M94.568 98.438a1.07 1.07 0 0 0-.3.492.85.85 0 0 0-.78-.37c-1.052-.382-1.736.397-2.119 1.272v.164a1.37 1.37 0 0 0-.752-.328.9.9 0 0 0 .287-.096.478.478 0 0 0 0-.793c-.218-.218-.478-.41-.793-.15a.82.82 0 0 0 0 1.148c-.514.193-.95.548-1.244 1.012a.9.9 0 0 0-.164-.232.82.82 0 0 0-.684-.178c.13-.243.182-.52.15-.793a1.2 1.2 0 0 0 .698-.738.97.97 0 0 0 .123-1.026 1.53 1.53 0 0 0 1.559-.369c.211-.277.31-.624.273-.97a.73.73 0 0 0 .451-.342.874.874 0 0 0-.314-1.067.75.75 0 0 0-1.026.205 1.56 1.56 0 0 0-1.449.506 1.15 1.15 0 0 0 0 1.71 2 2 0 0 0-1.367.314.95.95 0 0 0-.096.875h-.218a2.1 2.1 0 0 0 .013-1.614 1.11 1.11 0 0 0-1.627.11c-.382.396-.314.902.206 1.367.188.215.453.347.738.369a.9.9 0 0 0-.301.547 1.23 1.23 0 0 0 .78 1.367c.225.08.471.08.697 0a.8.8 0 0 0 .205.697c.085.073.19.12.3.137a1.45 1.45 0 0 0-.082 1.463q.046.118.123.219c0 .256.061.509.178.738.233.369.848.287 1.162-.068a.823.823 0 0 0 .861-.616q.109-.147.178-.314c.218-.166.463-.291.725-.369.492 1.107 1.19 1.367 1.996.629l.219-.205c.116-.123.21-.267.273-.424a2.48 2.48 0 0 0 1.887-.711c-.044.384.022.773.191 1.121a.82.82 0 0 1-.082.889.93.93 0 0 0 .493 1.189c.45.191.67 0 .847-.396a1.9 1.9 0 0 1 .451-.752c.52-.397 1.08-.711 1.655-1.067l.465.301h.109c.875.479 1.367.246 1.75-.848a1.15 1.15 0 0 0 0-.998h.082a.78.78 0 0 0-.109-1.093 1.37 1.37 0 0 0-.862-.41c.465-.096.602-.452.547-.944-.355-.205-.738-.479-1.08-.082a.82.82 0 0 0 0 .738.63.63 0 0 0 .492.287.8.8 0 0 0-.615.233 1.37 1.37 0 0 0-.342.93c-.273 0-.547.123-.861.164-.465-.534-1.067-1.108-1.873-.875-.214.065-.41.177-.575.328.063-.275.063-.56 0-.834a.8.8 0 0 0 .26-.137 1.05 1.05 0 0 0 .096-1.04q.116.015.232 0a.68.68 0 0 0 .725-.71.94.94 0 0 0-.396-.725c-.52-.218-.89.11-1.163.575a1 1 0 0 0 0 .205 1.15 1.15 0 0 0-1.203.382m-3.158 2.994v-.164l.082.109zM88.867 90.234c.164.588.574.725 1.149.56q.116.222.26.425a1 1 0 0 0-.233.369.4.4 0 0 1 0 .123 1.2 1.2 0 0 0-.328.096 1.175 1.175 0 0 0-.479 1.6c.301.587.684.519.848.915.164.397.424.438.889.383s1.134-.178 1.025-.806c-.11-.63-.533-.643-.725-.588-.191.054-.533-.165-.341-.288a.356.356 0 0 0 .109-.423c.28-.076.53-.239.711-.465a.77.77 0 0 0-.137-.588c.306-.223.562-.507.752-.834q.15-.01.301 0c.41.11.629-.096.82-.424a.725.725 0 0 0-.082-.848c-.465-.697-.847-.765-1.517-.26-.67.507-1.012.753-1.518 1.108-.738-.875-.875-.875-1.504-.055M94.5 89.209c-.178.164-.164.547-.205.752.396.424.71.314.93.11.218-.206.382-.575.082-.794a.9.9 0 0 0-.807-.068M124.565 99.258a1.24 1.24 0 0 0 .492 1.681 1.364 1.364 0 0 0 1.627-.533 1.206 1.206 0 0 0-2.119-1.148M128.393 113.107a1.3 1.3 0 0 0-.643 0 .71.71 0 0 0-.602.37v.123a1 1 0 0 0-.191.328 3 3 0 0 0-.793-.465 1.7 1.7 0 0 0-.697-.082 4 4 0 0 0-.725 0c-.779.082-1.162.41-1.189 1.039a1 1 0 0 0 0 .178h5.865c.164-.834-.205-1.368-1.025-1.491M80.664 89.346c-.096.095-.205.547 0 .629a.52.52 0 0 0 .52-.178c.082-.15.205-.451 0-.547a.52.52 0 0 0-.52.096"/><path fill="#0269B3" d="M87.213 97.07a.274.274 0 0 0 .068-.464c-.123-.192-.273-.206-.465 0a.274.274 0 0 0 0 .437.287.287 0 0 0 .397.027M83.399 96.277a.424.424 0 0 0 .19.479.6.6 0 0 0 .589-.205c.082-.164-.11-.41-.287-.479a.41.41 0 0 0-.493.205M78.586 79.393a.97.97 0 0 0 0 1.367 1.37 1.37 0 0 0 1.654.383 1.37 1.37 0 0 0 .178-1.778 1.37 1.37 0 0 0-1.832.028M81.156 83.262a1.08 1.08 0 0 0-1.53-.178 1.37 1.37 0 0 0-.356 1.012.72.72 0 0 0-.711.341c-.301.452 0 .835.3 1.231.493-.096 1.026-.096 1.08-.725a.7.7 0 0 0 0-.164 1.8 1.8 0 0 0 1.368-.437.74.74 0 0 0-.15-1.08M77.219 87.705q-.166.162-.274.37h-.136v1.476h.136q.03.082.082.15a2.26 2.26 0 0 0 1.764.328c.424.424.916.356 1.367-.164a.806.806 0 0 0 .15-1.093 1.37 1.37 0 0 0-.765-.301 1.5 1.5 0 0 0-.356-.698 1.67 1.67 0 0 0-1.968-.068M153.563 95.225c-.082 0-.438 0-.465.26s.314.355.465.382a.4.4 0 0 0 .355-.246c.014-.15-.205-.328-.355-.396M152.469 99.805a.707.707 0 0 0 .055.581.7.7 0 0 0 .478.335.65.65 0 0 0 .547-.274.84.84 0 0 0 0-.724.74.74 0 0 0-.848-.111.7.7 0 0 0-.232.193M154.492 112.738a.9.9 0 0 0-.492.123 1.01 1.01 0 0 0-.902-1.367.47.47 0 0 0 .109-.273c0-.356-.383-.698-.848-.752a.916.916 0 0 0-1.08.711.78.78 0 0 0 .738.82 1.37 1.37 0 0 0-.136.752 1.38 1.38 0 0 1-.192 1.053 1.18 1.18 0 0 0-.15.97h3.541c.119-.17.194-.367.219-.574a1.234 1.234 0 0 0-.807-1.463M105.889 110.414c-.369.109-.383.492-.26.861.123.37.178.561.26.848a2.17 2.17 0 0 0 2.474.834s.123-.109.123-.164c0-.67.616-.711 1.067-.93a.74.74 0 0 0 .424-1.052c.322-.104.595-.323.765-.616.342-.506.301-1.039-.096-1.257a1.75 1.75 0 0 0-1.025-.069l-.109-.082-.151.137a.9.9 0 0 0-.437.219.98.98 0 0 0-.096.902c-.274.064-.514.23-.67.465-.219.314-.342.67-.929.615-.11-.205-.178-.52-.342-.602a1.37 1.37 0 0 0-.998-.109M104.508 107.707c-.356.533-.246.943.396 1.367a.97.97 0 0 0 1.095.013.9.9 0 0 0 .272-.273 1.83 1.83 0 0 0-.259-1.626c-.424-.315-1.121-.055-1.504.519M107.912 114.68a.8.8 0 0 0-.123-.192.46.46 0 0 0-.439-.152.456.456 0 0 0-.34.316.66.66 0 0 0-.11-.328.99.99 0 0 0-.929-.273 1.054 1.054 0 0 0-.178-1.504 1.366 1.366 0 0 0-1.682.178c-.232.341.192 1.367.657 1.681a.8.8 0 0 0 .478 0q-.087.108-.15.233z"/><path fill="#0269B3" d="M103.455 111.549a.7.7 0 0 0-.003.303.7.7 0 0 0 .117.28.746.746 0 0 0 .501.319.775.775 0 0 0 .848-.56.76.76 0 0 0-.139-.579.76.76 0 0 0-.517-.296.6.6 0 0 0-.538.063.6.6 0 0 0-.269.47M151.471 101.609a.77.77 0 0 0 .411.78.8.8 0 0 0 .3.082c.369 0 .451-.246.492-.52.041-.273-.191-.711-.547-.656a2.8 2.8 0 0 0-.656.314M96.059 105.273a.86.86 0 0 0-1.108-.109.82.82 0 0 0 0 1.025.967.967 0 0 0 1.135.11.767.767 0 0 0-.027-1.026M126.301 92.463c-.123.164.082.67.205.738.123.069.588.137.711 0 .123-.136 0-.56-.082-.697s-.711-.219-.834-.041M87.09 96.127a1.545 1.545 0 0 0-.506-2.078 1.6 1.6 0 0 0-1.818.492 1.37 1.37 0 0 0 .656 1.9 1.133 1.133 0 0 0 1.668-.314M102.621 114.16a.6.6 0 0 0-.416-.283.6.6 0 0 0-.486.133l-.082.109a1.74 1.74 0 0 0-.889.137c0-.164-.137-.328-.246-.356a.45.45 0 0 0-.451.192.59.59 0 0 0-.602-.233.806.806 0 0 0-.683.78h3.923a.47.47 0 0 0-.068-.479M84.656 103.496a.88.88 0 0 0 0-.889.73.73 0 0 0-.383-.246 1.01 1.01 0 0 0-.328-1.189 1.368 1.368 0 0 0-1.668.191c-.232.342.178 1.367.643 1.655q.062.018.123 0c.005.168.062.33.164.464a.8.8 0 0 0 .191.192l-.273.232a.6.6 0 0 0-.096.151.616.616 0 0 0-.424.246 1.22 1.22 0 0 0 .123 1.244q.182.089.383.082.034.066.082.123a1.63 1.63 0 0 0 2.106-.328 1.08 1.08 0 0 0-.11-1.518 3 3 0 0 0-.533-.41M127.012 103.168a.69.69 0 0 0-.479-.328 1.63 1.63 0 0 0-1.367.916c-.096.601.301 1.053 1.012 1.148a.8.8 0 0 0 .738-.287 1.26 1.26 0 0 0 1.477-.246.905.905 0 0 0-.165-1.203 1.08 1.08 0 0 0-1.216 0"/><path fill="#0269B3" d="M129.09 104.658c-.424-.26-.834-.246-.985 0a1.24 1.24 0 0 0 .274 1.367.81.81 0 0 0 1.053-.341.77.77 0 0 0 .046-.586.757.757 0 0 0-.388-.44M126.984 107.146a.76.76 0 0 0 .547-.229.76.76 0 0 0 .219-.55.64.64 0 0 0-.372-.682.65.65 0 0 0-.271-.056.844.844 0 0 0-.861.697.835.835 0 0 0 .738.82M124.209 111.439a1.17 1.17 0 0 0-.161.775c.037.27.166.518.366.702a1 1 0 0 0 1.23-.096 1.46 1.46 0 0 0 .315-1.367.6.6 0 0 0 .26.096 1.73 1.73 0 0 0 1.49-1.121.8.8 0 0 0-.082-.465.7.7 0 0 0 .246 0 1.59 1.59 0 0 0 .437-1.955c-.328-.574-.71-.574-1.886 0-.287-.438-.533-.916-1.149-.588a.81.81 0 0 0-.478.916.6.6 0 0 0 .109.246 1.7 1.7 0 0 0-.642.547.916.916 0 0 0 .328 1.162c.248.127.53.175.806.137q.058.307.219.574a1.37 1.37 0 0 0-1.408.437m2.051-2.433c0 .082.109.137.15.205a1.4 1.4 0 0 0-.301.109 1.4 1.4 0 0 0-.095-.341zM107.064 108.787c-.341.328 0 .861.164 1.135.165.273.588.273.889 0 .301-.274.369-.643 0-.861-.369-.219-.697-.602-1.053-.274M127.285 93.94a.778.778 0 0 0-.902.738.82.82 0 0 0 .697.847.782.782 0 0 0 .957-.67.86.86 0 0 0-.752-.916M150.391 104.973a.77.77 0 0 0 .173.58.77.77 0 0 0 .538.281c.355 0 .437-.246.478-.52.041-.273-.178-.724-.533-.656a2.3 2.3 0 0 0-.656.315M128.324 102.252c0-.191-.082-.725-.328-.793s-.588.383-.684.588c-.095.205.206.765.52.697a.8.8 0 0 0 .492-.492M128.078 96.879a.75.75 0 0 0-1.08.164.798.798 0 0 0 .15 1.012.78.78 0 0 0 1.08-.22.6.6 0 0 0 .167-.516.6.6 0 0 0-.317-.44M147.274 98.848a.863.863 0 0 0-1.026.601 2.2 2.2 0 0 1-.41.739 1.15 1.15 0 0 0-.41 1.271 1.577 1.577 0 0 0 1.517.561c.411-.137.862-.274.793-.875-.068-.602 0-.903 0-1.368a.643.643 0 0 0-.464-.93M130.115 102.307c.082.095.533.136.602 0 .068-.137-.123-.479-.233-.588-.109-.11-.383 0-.41 0s-.055.492.041.588M146.59 106.641a.845.845 0 0 0 .656.998.81.81 0 0 0 .807-.752.74.74 0 0 0-.574-.834.696.696 0 0 0-.889.588M149.734 95.143c-.341.3-.273.164-.724 0-.451-.165-1.162-.082-1.162.765a1.6 1.6 0 0 0 1.558 1.367 1.86 1.86 0 0 0 1.614-1.9c-.11-.574-.944-.547-1.286-.232M130.99 103.332s0-.232-.096-.26c-.095-.027-.218 0-.273 0a.247.247 0 0 0 0 .328.244.244 0 0 0 .298.01.24.24 0 0 0 .071-.078M130.225 104.057a.232.232 0 0 0 0 .328c.123.068.259 0 .3-.096s0-.246-.109-.273-.137-.041-.191.041M133.041 110.154a.49.49 0 0 0-.41.287.49.49 0 0 0 .26.411c.136 0 .56 0 .56-.247 0-.246-.273-.437-.41-.451M131.838 106.367h.15000000000000002a.913.913 0 0 0 1.176-.301.72.72 0 0 0-.178-.916c0-.574-.369-1.134-.806-1.189a1.48 1.48 0 0 0-1.367 1.08 1.025 1.025 0 0 0 1.025 1.326"/><path fill="#343741" d="M127.436 70.643H86.734v5.304h40.702zM136.91 83.918h-26.619v5.305h26.619zM127.436 97.193H86.734v5.305h40.702z"/><path fill="#1BA9F5" d="M58.201 114.406h114.912v2.242a7.357 7.357 0 0 1-7.355 7.356H65.625a7.357 7.357 0 0 1-7.355-7.356v-2.242z"/></svg>