<svg xmlns="http://www.w3.org/2000/svg" width="48" height="49" fill="none"><g clip-path="url(#a)"><g clip-path="url(#b)"><path fill="#ECF0F6" d="M24.629 47.014c12.556 0 22.734-10.179 22.734-22.735S37.185 1.545 24.63 1.545 1.895 11.723 1.895 24.279s10.178 22.735 22.734 22.735"/><path fill="#fff" d="M34.708 4.042c.045.114.121.197.273.174.011 0 .019-.007.03-.011a.34.34 0 0 0 .242-.027c-.23-.12-.462-.242-.697-.356.03.084.076.16.156.22zM35.867 5.558c-.2-.197-.424-.228-.56-.08a.2.2 0 0 0-.046.08.15.15 0 0 0-.125-.065c-.133.004-.106.175-.106.239 0 .038.11.117.136.102a.4.4 0 0 0 .05-.03c-.008.159.022.326.087.386.178.16.405.137.602-.06.201-.197.193-.356-.038-.58zM35.598 7.153a.17.17 0 0 0-.09-.193c-.069-.027-.202.026-.24.094-.034.069.054.167.126.194.06.022.185-.016.204-.099zM35.75 9.87c.132-.05.25-.137.185-.277-.049-.106-.216-.345-.34-.322-.126.023-.14.333-.13.45.016.137.133.206.289.149zM32.556 3.504c.03.185.19.303.367.273.152-.027.28-.197.258-.338-.027-.174-.186-.28-.383-.257-.186.022-.276.14-.246.322zM35.174 11.499c-.087.071.023.208.053.22.064.022.148.06.216-.016a.113.113 0 0 0-.015-.174c-.057-.034-.17-.102-.254-.03M34.518 5.83c.02-.261-.113-.507-.348-.572a.45.45 0 0 0-.341.065c-.27.204-.341.477-.16.856.13.015.27.053.406.042.235-.02.432-.209.443-.39M31.752 2.69q.052.068.133.132c.053.042.083.114.125.17.136.194.292.258.42.171a.26.26 0 0 0 .118-.197c-.261-.098-.527-.186-.792-.273zM33.988 6.876c-.076.06-.087.121-.023.193.057.08.121.08.193.02.069-.058.08-.114.023-.186s-.117-.091-.193-.03zM38.406 16.686c-.05.023-.095.14-.08.193.016.046.133.103.182.087.057-.018.193-.128.144-.212s-.197-.09-.25-.064zM42.483 21.24c-.133.004-.106.175-.106.24 0 .037.11.117.136.101.06-.03.137-.098.14-.159 0-.049-.041-.193-.17-.185zM43.044 15.394s.019-.011.026-.019q.085.036.175.015a.36.36 0 0 0 .246-.428.37.37 0 0 0-.163-.193c-.008-.046-.015-.091-.034-.129-.068-.16-.334-.22-.527-.117-.261.136-.356.367-.239.602.107.216.36.349.52.269zM46.51 23.146c.236-.064.702-.265.524-.686-.087-.204-.39-.326-.61-.269h-.008a.63.63 0 0 0 0-.557c-.125-.242-.538-.352-.792-.212-.242.137-.352.447-.239.66.107.2.463.344.717.322-.057.075-.095.159-.084.238.023.19-.413.114-.398.375.016.247-.276.387-.223.698s.307.587.557.443c.246-.14.337-.353.447-.606.083-.19-.125-.357.114-.421zM42.267 15.796c-.076-.16-.318-.235-.478-.152a.295.295 0 0 0-.162.288c-.05.125-.065.3.022.425.095.128.258.17.425.083.159-.084.242-.216.193-.387q.001-.006-.004-.011c.03-.083.038-.174 0-.246zM37.857 8.107c-.016-.075-.197-.246-.285-.223s-.17.288-.14.326c.064.083.224.216.296.174s.144-.197.128-.277M36.962 10.215c.133.136.591.162.709.037.167-.178.136-.39-.084-.587a.34.34 0 0 0-.299-.095c.015-.049.027-.098.015-.144-.037-.17-.257-.303-.432-.257a.3.3 0 0 0-.223.356c.034.186.163.295.322.292-.095.144-.102.299-.004.397zM32.46 6.289c.096.087.206.16.334.05.114-.095.13-.319-.011-.478-.09.023-.231.03-.33.098-.125.088-.098.231.008.33M42.426 14.462c-.087-.034-.216-.133-.348-.133-.182 0-.296.231-.243.425.042.155.209.238.375.193.156-.046.28-.254.216-.485M39.565 11.113c.167.053.315.022.417-.126.038-.053.065-.151.038-.2-.08-.14-.186-.262-.288-.406.095-.39.011-.693-.223-.754-.209-.053-.53.137-.637.364a.5.5 0 0 0-.068-.087c-.137-.118-.368-.125-.47-.015-.106.113-.121.435-.023.515.133.11.44.087.55-.042.007-.007.011-.023.015-.03.072.098.235.174.534.269-.042.212-.117.424.16.511zM44.18 19.926c.057 0 .224-.099.197-.178-.026-.076-.159-.118-.204-.103-.068.02-.2.072-.174.148.022.076.12.136.181.133M44.908 19.168a.32.32 0 0 0 .008-.395c-.099-.143-.3-.23-.44-.151-.224.125-.197.345-.186.546.345.166.497.166.622 0zM45.408 15.057q-.123-.286-.258-.565c-.022.008-.041.012-.064.023a.34.34 0 0 0-.14.167.63.63 0 0 0-.341-.016c-.246.05-.394.216-.349.398.042.17.42.474.565.451.197-.034.326-.197.34-.409a.3.3 0 0 0 .22-.027c.012-.003.016-.015.023-.022zM29.9 2.557c.064.163.299.257.466.19a.3.3 0 0 0 .163-.387c-.004-.016-.016-.027-.023-.042-.167-.046-.33-.083-.497-.125-.102.09-.159.25-.11.364M47.36 24.064s-.03.015-.042.026c-.129.125-.05.413.023.462.007.004.01.012.018.015 0-.094.008-.193.008-.288 0-.072-.004-.143-.004-.215zM24.871 4.89a.62.62 0 0 0 .25.288.5.5 0 0 0 .122.171c.204.186.59.114.837-.16.174-.192.148-.45-.064-.643a.58.58 0 0 0-.41-.156c-.128-.147-.31-.185-.5-.098-.254.117-.337.34-.23.598zM27.816 2.208c0 .076.022.144.072.19.11.105.431.128.519.041.011-.011.019-.034.026-.053.129-.06.235-.288.231-.474q-.398-.074-.803-.132c-.099.11-.14.238-.095.352a.3.3 0 0 0 .05.08zM46.079 16.803a.3.3 0 0 0-.008.133c.015.114.068.186.144.212q-.215-.653-.47-1.288c-.216.106-.352.432-.257.633.106.23.394.375.59.31M43.832 16.667q0 .045.011.091c.065.243.42.455.682.402.3-.057.455-.368.375-.75-.056-.28-.261-.432-.519-.413-.136-.148-.45-.228-.629-.144-.159.072-.261.416-.182.606.042.095.152.17.266.204zM25.087 2.272c.103.061.311.24.448.099.136-.14-.027-.356-.088-.466-.064-.125-.25-.106-.367.011-.129.125-.14.27.007.36zM45.109 18.164c.197-.091.276-.318.174-.493a.303.303 0 0 0-.44-.094c-.128.083-.268.174-.204.322.129.25.314.337.47.265M28.604 5.042c0 .023 0 .046.01.068-.185-.007-.442.076-.549.209-.11.133-.087.322.061.45.216.194.504.213.644.046a.55.55 0 0 0 .133-.428c.117.015.227-.053.292-.159.117-.193-.02-.345-.152-.508-.2.05-.428.06-.44.322M25.804 1.992c.079.216.375.337.613.254a.5.5 0 0 0 .14-.083c.02.049.042.094.076.125.125.117.591.026.732-.148.08-.095.08-.288.015-.42-.5-.061-1.004-.11-1.512-.137-.072.144-.106.307-.064.413zM29.233 6.766c-.175-.189-.554-.261-.698-.128-.197.178-.216.545-.041.746.072.083.193.118.318.121a.3.3 0 0 0-.027.28c.073.175.266.255.459.19.186-.064.265-.257.19-.45a.32.32 0 0 0-.186-.171c.007-.008.019-.012.026-.02.148-.14.133-.382-.038-.568zM46.655 18.626q-.1-.376-.209-.747a.4.4 0 0 0-.106.148.4.4 0 0 0-.193.042q-.016.01-.027.023c-.443.026-.553.325-.318.84-.023.031-.045.073-.076.1-.136.117-.113.246-.041.386.068.136.174.163.318.163.349 0 .462-.122.436-.47a8 8 0 0 1-.016-.31c.023 0 .05 0 .072-.008.065-.027.118-.095.16-.17zM44.355 13.2c.004.042.034.076.068.106-.155.065-.224.175-.2.341q0 .017.003.03c-.174.107-.341.474-.273.626.102.235.341.303.618.178.136-.06.197-.178.193-.326q.129.03.235.03-.297-.6-.633-1.178a.7.7 0 0 0-.015.193zM39.293 7.986c-.28.057-.394.182-.353.383.057.277.258.436.478.375.14-.038.34-.39.314-.557-.026-.182-.185-.254-.44-.2M43.392 12.81c-.182.007-.31.11-.345.269-.056.246.182.447.334.447.151 0 .383-.22.326-.493-.034-.163-.148-.23-.31-.223zM38.338 7.77c.216.02.417.095.519-.132.068-.156.026-.303-.114-.417-.03-.027-.064-.042-.095-.057.03-.125.03-.265-.019-.337-.072-.11-.367-.137-.507-.05-.121.08-.137.235-.034.368a.8.8 0 0 0 .204.193c-.056.125-.015.27.046.428zM39.467 9.528c.133.122.258.095.375-.019.17-.163.208-.454.08-.576-.144-.136-.47-.159-.588-.041-.14.14-.08.44.133.636M20.389 2.659a1 1 0 0 0-.133.064.29.29 0 0 0-.197-.246c-.144-.06-.299-.042-.36.11-.045.117-.075.3-.015.39.068.106.16.133.254.121-.06.228.034.485.174.709.088.14.213.227.349.276.186.069.383.027.587-.08.209-.109.44-.037.584-.223.193-.25.375-.727.057-1.174-.194-.273-.413-.383-.652-.387-.277 0-.379.337-.644.444zM27.296 4.834a.32.32 0 0 0-.083.28c.023.08.174.254.277.227.102-.022.14-.257.136-.348-.008-.137-.227-.243-.33-.16M27.755 4.546c.186-.06.405-.443.352-.614.148-.25.106-.489-.136-.731-.205-.205-.576-.201-.811-.012-.064-.136-.277-.212-.424-.14-.156.076-.213.262-.13.44.077.163.22.216.383.148.012.189.091.397.228.534a.5.5 0 0 0 .102.076c.004.015.004.026.012.037.083.216.253.323.424.266zM28.74 10.7c.011.162.254.336.455.166.17-.205-.046-.459-.197-.455-.125 0-.265.16-.258.288M29.714 8.566a.39.39 0 0 0-.212-.19c-.334-.11-.618.027-.766.341-.03.065-.056.13-.087.194-.125-.06-.235-.125-.356-.167-.227-.083-.345-.038-.459.174a.5.5 0 0 0 .046.565c.095.121.22.155.352.144.023.083.072.174.13.197.2.08.363-.129.378-.239.004-.042-.019-.095-.06-.144.03-.019.056-.038.087-.053.06.027.125.06.19.083.25.084.571.016.7-.17.155-.227.16-.485.057-.735M27.11 6.585a.5.5 0 0 0-.276-.13.3.3 0 0 0-.05-.041c-.51-.038-.355-.368-.708-.515-.064-.027-.14-.02-.17-.023-.383.045-.534.368-.334.67.125.186.292.357.463.505.083.072.208.094.333.087.019.03.03.064.053.09q.25.27.591-.06c.152-.148.205-.462.095-.583zM20.192 7.604c.167.087.455.068.583-.072.182-.197.091-.448.042-.52.258-.132.41-.454.315-.7-.099-.25-.288-.402-.504-.429a.47.47 0 0 0 .14-.363c-.012-.436-.258-.69-.53-.701-.183-.008-.414.151-.546.348-.08-.132-.224-.193-.364-.144-.148.053-.231.254-.174.425.056.17.242.265.405.208.02-.008.042-.015.057-.027.076.258.303.364.493.402.015 0 .026.004.041.008-.144.14-.178.352-.083.617a.8.8 0 0 0 .136.243.28.28 0 0 0-.197.121c-.132.178-.015.474.186.58zM19.593 7.088c-.064-.19-.265-.299-.436-.235-.151.057-.22.25-.151.436.06.16.22.239.375.193.19-.056.273-.212.212-.394M19.165 12.465c-.038.012-.102.106-.08.167.02.057.14.08.205.072.038 0 .152-.102.125-.19-.026-.087-.185-.068-.25-.049M9.764 9.18c-.083.038-.276.174-.2.352.075.178.288.099.356.065.072-.038.14-.17.132-.258-.015-.151-.174-.212-.288-.159M29.699 3.841c.23-.242.25-.625.045-.814-.2-.182-.78-.182-.974 0-.2.189-.166.598.065.818.212.2.678.2.867 0zM30.604 9.051c.012.163.114.205.455.167.17-.205-.046-.459-.197-.455-.125 0-.265.16-.258.288M38.455 19.725c.053-.042.11-.129.102-.186-.007-.05-.159-.163-.208-.14-.05.023-.064.193-.05.258.008.038.133.087.156.068M38.804 18.834s0 .015.003.02c.016.026.065.064.107.045.038-.02.08-.076.049-.13-.02-.037-.06-.045-.091-.04.019-.08-.008-.171.015-.232.11-.284-.06-.66-.307-.69-.227-.026-.386.076-.496.266-.114.197-.05.37.102.5.125.106.318.39.542.307a.2.2 0 0 0 .076-.042zM36.443 8.77c.167.133.5.053.69-.159.155-.182.121-.386-.084-.58 0-.052 0-.106-.015-.159-.06-.25-.265-.34-.576-.261-.174.045-.333.292-.295.458.019.084.098.186.197.27-.015.178.011.367.087.428zM38.061 21.919c.072.174.254.25.42.178.14-.061.228-.254.175-.39-.064-.164-.242-.232-.432-.164-.174.065-.235.201-.163.372zM33.245 8.573q.002-.045-.015-.09c-.034-.099-.193-.323-.28-.304-.008 0-.016.012-.02.016a.3.3 0 0 1-.086-.107c-.072-.162-.19-.174-.376-.14-.185.034-.47.095-.413.353.053.261.235.257.311.23.076-.022.224.058.152.11-.072.054-.087.167.041.353.13.186.277.239.482.136.193-.094.269-.34.208-.56zM32.988 12.89c-.038 0-.167.075-.152.166.015.09.174.095.239.09.038-.003.117-.09.106-.15-.011-.061-.125-.1-.193-.107M32.237 5.857a.7.7 0 0 0 .015-.447c-.049-.167-.174-.288-.348-.383-.038-.083-.125-.193-.193-.193-.02 0-.038.011-.057.022-.102-.098-.193-.197-.349-.2-.318-.008-.807.136-.977.659-.103.318-.061.56.08.754.162.22.496.102.742.25.583.352.92-.03 1.087-.462M31.264 10.24c-.034.057-.107.133-.034.213.072.08.151.034.178.004.041-.046.143-.175.08-.247-.065-.068-.202-.003-.22.027zM34.37 11.067c.057 0 .213-.099.198-.175-.016-.075-.182-.128-.24-.117-.014 0-.033.011-.048.023-.061-.08-.167-.118-.266-.057-.193.117-.44.19-.53.454l.121.296c-.151.258-.174.546-.034.652.114.087.25.09.375 0 .224-.16.243-.273.125-.576.08-.186.167-.349.224-.515a.14.14 0 0 0 .075.015M26.74 8.274c-.042.015-.084.068-.057.125.026.057.094.053.125.042.03-.011.045-.091.034-.114-.015-.026-.06-.068-.102-.053M12.508 8.005c.113.057.443-.401.405-.538-.038-.136-.36-.136-.538.038-.182.174.019.443.133.5M15.531 13.04c.254-.11.493-.62.406-.878-.095-.28-.489-.432-.796-.307-.269.11-.462.527-.36.78.129.322.493.52.75.406M14.796 8.877c.099.155.16.375.42.314.168-.042.274-.174.25-.345a.39.39 0 0 0-.173-.254c-.167-.094-.292-.011-.497.285M13.069 5.485c-.065-.136-.164-.22-.304-.181-.356.098-.697.227-.947.519-.045.053-.06.125-.076.155-.076.379.182.625.535.527.216-.06.428-.163.621-.28.208-.126.277-.512.17-.74M14.956 7.001a.337.337 0 0 0-.22.406c.053.174.276.299.44.242.158-.053.242-.25.181-.42-.068-.182-.242-.285-.398-.232zM10.602 7.782c0 .148.166.307.303.295.193-.015.333-.44.227-.534-.106-.098-.534.046-.526.239zM11.273 6.68c-.03.067.068.162.125.189.045.018.212-.016.238-.103.03-.087-.117-.182-.166-.185-.061-.008-.171.03-.197.102zM13.239 10.336a.553.553 0 0 0 .292-.682c-.122-.338-.47-.5-.788-.372-.28.114-.417.364-.326.607.121.318.568.564.822.45zM12.705 11.92c.068-.069-.034-.273-.087-.307-.053-.035-.201.003-.24.06-.037.053-.014.193.031.246.038.042.227.072.296 0M16.304 7.979c-.234.068-.34.318-.257.591.06.197.303.273.576.186.212-.069.314-.243.246-.417-.072-.186-.417-.402-.568-.356zM20.722 11.976c.065-.182.069-.114.266-.148s.447-.2.276-.511c-.166-.31-.568-.33-.852-.212-.28.117-.447.72-.22 1.019.163.212.462.038.53-.144zM21.81 2.17c.05-.064 0-.197-.034-.227-.057-.042-.174-.121-.22-.057-.046.065-.038.178 0 .224.034.045.212.125.258.056zM18.02 2.59c.024-.007.046-.022.065-.034a.66.66 0 0 0-.03.557q.045.107.114.178c-.254-.007-.607.19-.701.402-.095.212.015.538.272.705.167.11.33.178.33.436 0 .185.182.23.36.212.155-.193.14-.364-.03-.481.106-.228.212-.383.25-.557.038-.167-.072-.417-.216-.573a.7.7 0 0 0 .409-.072c.413-.2.493-.378.36-.742a.58.58 0 0 0-.341-.341q-.522.136-1.038.295a.3.3 0 0 0 .185.015zM21.064 8.793c-.122-.113-.542-.049-.675.095-.125.133-.261.27-.121.481.102.156.185.326.276.49.03.215.178.302.353.26.185-.045.276-.204.257-.424-.011-.117-.03-.25.008-.356.076-.212.057-.398-.098-.55zM21.719 5.929c.17-.053.28-.258.22-.413a.36.36 0 0 0-.425-.2c-.166.052-.238.196-.19.374.054.19.22.292.395.239M16.986 6.406c-.072-.163-.261-.231-.435-.151a.57.57 0 0 0-.103-.304c-.087-.136-.159-.253-.14-.428.03-.254-.148-.424-.314-.576-.156-.14-.459-.125-.644-.007a.2.2 0 0 0-.05.038.57.57 0 0 0 .02-.41c-.08-.189-.315-.246-.592-.147-.208.075-.371.333-.31.492.083.224.424.41.628.341a.4.4 0 0 0 .084-.045.6.6 0 0 0-.008.276c.046.262.197.432.383.595a.5.5 0 0 1 .144.224c.076.333.284.454.61.348a.25.25 0 0 0 .015.122c.064.132.28.182.462.106.216-.091.334-.303.258-.478zM18.62 10.18c.087-.068.132-.182.178-.246-.091-.193-.288-.246-.432-.174-.137.068-.118.178-.076.288.057.155.212.227.33.136zM18.35 8.73c.088-.07.133-.183.178-.247-.09-.193-.287-.246-.431-.174-.137.068-.118.178-.076.288.057.155.212.227.33.136zM18.498 6.634c.216-.091.36-.49.27-.74-.076-.208-.281-.283-.524-.2-.291.102-.378.307-.261.606.098.25.341.406.515.334M41.05 10.283c.198-.016.383-.277.364-.508-.015-.17-.227-.353-.386-.334-.33.042-.557.239-.527.451s.307.406.55.39M39.808 19.141c.148-.087.261-.39.197-.526-.068-.148-.28-.205-.447-.118-.16.084-.205.258-.114.444.091.193.239.272.364.2M39.474 16.633c.016.148.194.27.353.243.174-.03.322-.213.291-.364-.026-.14-.208-.273-.348-.25-.152.023-.315.227-.296.371M39.656 12.711c.33-.049.599-.33.565-.587a.5.5 0 0 0-.053-.151c.06.041.129.08.182.113.034.023.11.08.193-.023.083-.098.057-.397-.099-.488-.147-.087-.394.011-.416.204-.16-.163-.387-.276-.546-.242-.292.06-.515.39-.466.674.057.307.36.542.64.5M39.759 26.916c.17-.06.174-.2.106-.307-.057-.087-.262-.269-.341-.227s-.114.296-.106.406c.011.147.174.189.34.128M40.3 13.708c.092-.05.323-.19.292-.31-.03-.122-.322-.133-.413-.11-.06.014-.121.177-.117.268.007.118.106.22.239.148zM40.058 19.8a.33.33 0 0 0 .14-.132c.023 0 .046.004.068 0 .16-.053.27-.163.262-.349a.286.286 0 0 0-.326-.261c-.148.019-.27.182-.254.345 0 .045.019.087.042.125-.06.038-.175.113-.133.182a.22.22 0 0 0 .209.087zM41.138 23.59c.053-.042.11-.13.102-.186-.007-.05-.083-.178-.208-.14-.13.034-.065.193-.05.257.008.038.133.087.156.069M36.057 16.11c.068-.155.026-.303-.114-.417-.114-.09-.231-.102-.345-.011-.197.155-.144.34-.06.557.216.019.416.095.519-.133zM40.589 22.051c.132-.053.227-.273.174-.39-.05-.106-.254-.129-.42-.05-.126.061-.164.16-.1.277.073.129.175.231.342.163zM37.955 11.866c.186-.026.3-.132.315-.272a.27.27 0 0 0 .238-.091c.099-.099.103-.224 0-.341-.106-.126-.265-.145-.367-.046a.3.3 0 0 0-.069.102.5.5 0 0 0-.318-.11c-.182.02-.33.209-.31.398.022.213.28.39.511.357zM36.709 10.794c.041-.008.094-.057.075-.114-.015-.06-.087-.068-.117-.06-.03.003-.06.083-.05.11.008.03.05.075.092.068zM36.33 6.797c-.095.125-.03.485.11.59.124.1.37.076.47-.041.211-.254.25-.515.09-.648-.151-.129-.538-.072-.667.095zM36.758 5.99c.22-.03.371-.194.42-.425.03.084.08.163.137.205.117.083.269.038.352-.106a20 20 0 0 0-1.27-.834c-.246.121-.42.424-.367.682.057.277.425.52.724.481zM37.322 13.72c.27-.073.417-.342.356-.641-.049-.224-.367-.39-.625-.33-.273.065-.39.3-.307.61.08.303.296.436.576.36M39.16 15.019c-.05-.106-.22-.356-.333-.326s-.167.315-.175.436c-.007.129.19.22.33.174.136-.046.239-.148.174-.284zM39.24 14.189c-.023-.091-.319-.334-.47-.27-.152.065-.099.46-.038.584.045.095.25.216.398.152.147-.064.144-.33.11-.47zM41.581 13.628c.186-.03.33-.31.28-.549-.064-.31-.208-.44-.447-.402a.54.54 0 0 0-.322.216.2.2 0 0 0-.019-.087c-.08-.182-.291-.276-.458-.2-.144.068-.224.303-.148.439.076.14.3.212.447.148q.038-.02.065-.046v.084c.041.216.364.431.595.394zM37.372 16.265c.026.008.128-.09.12-.12-.014-.065-.04-.198-.15-.202-.11 0-.137.152-.126.182a.28.28 0 0 0 .155.14M37.697 23.881c.084-.034.122-.261.091-.307-.045-.075-.174-.182-.246-.163-.072.02-.14.186-.125.262.015.068.197.242.28.208M40.971 15.394c-.05-.137-.386-.201-.458-.121-.072.079-.05.223-.015.333.037.125.151.208.299.125.129-.072.235-.167.17-.337zM47.265 26.303q.009-.127.019-.254a.3.3 0 0 0-.023.25zM46.367 27.239c.007.216-.015.44.273.462.174.015.31-.053.375-.22.022-.06.026-.163-.008-.205-.106-.117-.239-.212-.375-.325 0-.402-.152-.679-.39-.682-.235-.004-.538.307-.55.568-.011.276.122.36.675.398zM45.946 25.439c.129-.068.239-.459.178-.614-.068-.17-.239-.205-.473-.095-.258.122-.341.27-.254.455.117.254.352.364.55.258zM45.48 28.413c-.072-.208-.394-.364-.606-.292-.17.057-.273.28-.209.459.072.2.36.314.58.231.197-.076.292-.235.235-.398M31.264 3.928c.223.087.617-.14.659-.375.026-.159-.08-.39-.254-.523a.7.7 0 0 0-.019-.151c-.026-.125-.136-.22-.292-.148-.102.05-.19.114-.204.22a.56.56 0 0 0-.394.367c-.08.224.193.493.503.61M45.586 32.918c-.106.023-.098.178-.08.205.012.015.035.03.054.042q.049-.121.098-.243-.03-.012-.072-.007zM46.65 28.137c-.268.125-.412.496-.295.765.084.19.266.322.455.36q.123-.553.22-1.11c-.14-.046-.28-.057-.38-.012zM40.857 31.009c-.026-.057-.144-.069-.212-.057-.038.003-.144.11-.11.197.034.083.19.053.254.03.038-.011.095-.114.068-.17M45.056 30.759c.246-.133.33-.428.197-.705-.099-.205-.447-.295-.686-.174-.25.125-.31.379-.155.663.147.276.386.356.644.216M43.877 27.022c.152-.075.231-.295.163-.435-.076-.16-.318-.235-.477-.152-.148.076-.201.243-.137.398.087.197.277.28.451.193zM44.377 33.377c.03-.167-.045-.303-.204-.379-.133-.064-.247-.045-.337.068-.156.197-.061.368.072.557.212-.03.428-.003.473-.246zM42.1 21.37c.163-.024.243-.22.17-.369-.071-.143-.196-.197-.352-.159-.132.035-.238.368-.14.455.099.087.205.084.322.068zM42.722 23.37c.295-.114.398-.462.242-.834a.535.535 0 0 0-.731-.295c-.292.129-.459.546-.326.83.118.253.53.409.815.299M42.017 18.456c.095.034.197.049.292.026.212-.05.348-.292.299-.538-.045-.231-.178-.334-.379-.3a.6.6 0 0 0-.159.057c-.102-.045-.208-.056-.292-.01-.204.101-.352.45-.273.624.057.121.3.178.512.14M41.953 19.728c-.08.072-.179.156-.16.258.016.102.303.224.444.144.132-.076.102-.186.056-.292-.064-.151-.227-.212-.337-.11zM41.574 28.86c.053-.015.181-.144.151-.216s-.208-.083-.258-.06c-.053.026-.128.121-.098.197s.148.095.205.076zM42.638 27.375c.118-.08.209-.19.118-.31-.072-.092-.292-.285-.41-.236-.117.053-.06.36-.022.466.045.133.174.17.314.08M43.786 28.053c.038-.019.08-.076.05-.129s-.099-.045-.13-.034c-.03.011-.037.095-.022.117.015.027.065.065.106.046zM43.313 25.833c.185-.102.239-.443.113-.697-.113-.227-.337-.273-.62-.121-.16.087-.258.36-.179.515.091.186.542.386.69.303zM25.06 11.097c.118-.038.096-.367.058-.398-.11-.087-.235-.23-.39-.19-.156.043-.114.243-.076.293.075.106.295.33.413.291zM44.218 25.477c.065-.057.095-.224.061-.3-.03-.068-.25-.197-.33-.151-.08.045-.098.318-.06.348.08.068.265.16.33.103M45.082 23.014c.084-.334-.038-.561-.235-.694s-.523.068-.712.341c-.136.197-.015.633.205.731.22.095.663-.045.742-.378M43.718 22.358c.091-.026.209-.125.224-.208.041-.224-.144-.27-.31-.322-.171.113-.266.25-.156.432.038.064.174.12.242.098M43.794 18.596c.008-.125-.03-.296-.114-.372-.19-.166-.325.023-.496.14.057.243.133.436.383.421.083-.004.223-.117.227-.19M45.211 21.013c-.121-.11-.307-.307-.519-.462-.133-.095-.318-.083-.42.068-.092.137-.107.292.037.425a1 1 0 0 1 .175.23c.136.243.299.334.553.285.242-.046.33-.22.178-.55zM46.787 19.467c-.12.25-.31.307-.507.322-.22.095-.368.33-.334.493.038.17.372.405.576.383.152-.02.36-.02.379-.216a.6.6 0 0 1 .087-.262 17 17 0 0 0-.151-.769c-.016.015-.038.023-.05.045zM45.495 20.369a.26.26 0 0 0 .091-.08q.017 0 .038-.003c.095-.038.224-.186.212-.266-.007-.064-.072-.12-.132-.166a.3.3 0 0 0-.027-.08c-.087-.148-.45-.227-.629-.136-.163.08-.208.257-.117.44.159.31.337.405.564.295zM42.987 21.502c.117-.008.288-.091.345-.186a.152.152 0 0 0-.065-.23c-.094-.035-.182.01-.273.06-.083.041-.178.068-.22.163-.049.11.073.204.213.197zM45.147 24.488c.03-.167-.046-.303-.205-.379-.133-.064-.246-.046-.337.068-.155.197-.06.368.072.557.212-.03.428-.004.474-.246zM42.976 20.145c-.103.038-.122.17-.106.228.018.06.064.159.189.14.125-.02.197-.114.16-.239-.035-.121-.141-.167-.247-.129zM38.122 9.138c.125-.117.269-.125.424-.148.072-.011.163-.167.167-.257a.4.4 0 0 0-.152-.277c-.057-.038-.197 0-.265.045-.136.095-.25.22-.367.341-.099.103-.076.205.045.307.042 0 .117.02.148-.011M40.278 7.797a22 22 0 0 0-.993-.89c0 .018-.008.033-.011.052-.02.315.159.633.428.561a.561.561 0 0 0 .576.277M38.736 6.46c-.19-.148-.375-.3-.569-.44.008.152.06.3.156.371.094.072.254.099.413.072zM33.685 3.44s.015 0 .026-.004a9 9 0 0 0-.273-.122.3.3 0 0 0 .25.125zM47.178 21.415s-.03.03-.046.041l-.008-.019c.027.057.054.121.08.182q-.014-.102-.026-.204M42.544 11.093c-.023.296-.023.644.288.819.25.144.564.087.807-.095a23 23 0 0 0-1.444-1.97 1 1 0 0 0-.11.041c-.296.125-.398.466-.182.716.163.186.387.3.644.49zM42.589 13.78c.167-.057.25-.246.193-.417-.06-.182-.193-.242-.367-.174-.19.076-.273.239-.209.41a.32.32 0 0 0 .383.185zM41.445 11.378c.083-.004.19-.118.227-.209.027-.064-.011-.205-.068-.246-.167-.125-.318-.053-.455.11.042.163.072.356.292.345zM42.036 9.661a22 22 0 0 0-1.012-1.121c-.011.037-.023.08-.03.12-.015.145.045.3.098.44.034.087.11.163.178.231.069.072.148.137.224.201.205.17.379.209.542.125zM17.475 10.82c.053-.022.137-.113.11-.189-.027-.08-.14-.102-.197-.09-.057.01-.193.128-.167.204.027.076.201.099.254.076M24.656 6.323c.128-.121-.02-.504-.16-.504s-.344.333-.227.466c.09.102.3.121.387.038M25.478 9.407c.25-.113.397-.466.306-.735-.06-.182-.375-.273-.598-.17-.258.117-.345.337-.239.602.106.258.337.39.53.303M23.822 8.684c.19-.065.276-.228.22-.398-.061-.174-.243-.27-.406-.209-.151.053-.265.266-.223.413.045.163.238.254.413.194zM24.34 3.795c.016-.17-.067-.284-.207-.333-.254-.087-.341.114-.436.292l-.334-.084c.008-.03.012-.06.02-.09.045-.027.09-.057.143-.099.205-.17.413-.33.618-.493.33.353.39.353.621.012a.46.46 0 0 0 .292.015c.155-.053.224-.208.17-.383-.064-.216-.299-.356-.496-.303-.182.05-.303.254-.25.428-.06 0-.125 0-.2.027-.311-.52-.656-.481-.978.076-.038 0-.084.003-.125-.004-.137-.03-.22.019-.285.106-.136.007-.269.05-.322.106-.117.133-.083.383.084.587.053.065.113.125.174.19-.064.2-.155.409-.099.595q-.068.032-.132.072c-.205.128-.258.58-.095.754.167.174.63.212.834-.061a.66.66 0 0 0 .148-.466l.083-.023c.33-.102.371-.356.348-.651.182-.038.406.007.429-.262zM25.322 8.396c.152-.13.114-.432-.087-.652-.102-.114-.348-.121-.47-.011-.159.144-.197.45-.072.58.16.162.481.208.63.083M35.106 9.244c.098-.102.106-.174.102-.265 0-.09.038-.182-.034-.307-.068-.125-.265-.33-.485-.337a.5.5 0 0 0-.477.235c-.099.155-.057.33 0 .44.06.11.215.284.397.28s.383.068.49-.046zM33.666 4.357a.64.64 0 0 0-.375-.307c-.072-.084-.22-.167-.345-.122-.095.034-.133.148-.144.266-.288.261-.33.583-.182.792.155.223.674.318.91.128.299-.242.242-.545.14-.754zM29.971 6.952c.224.083.368-.06.478-.261-.065-.175-.144-.353-.368-.341-.174.007-.299.14-.284.31.008.106.087.262.174.292"/><path fill="#fff" d="M29.797 4.758c-.045-.151-.22-.254-.367-.212a.327.327 0 0 0-.224.402c.05.185.174.257.352.2.194-.06.288-.216.24-.39M23.087 11.419c.08-.023.076-.19.068-.254-.004-.038-.091-.106-.152-.08-.06.027-.12.122-.113.179.003.049.117.181.2.155zM22.966 2.197c.322.227.682.094.909-.16.09-.102.133-.28.136-.473a24 24 0 0 0-1.292.068c.015.186.05.428.246.565M16.194 3.455c.28-.103.44-.273.429-.455q-.395.148-.777.307c.064.144.197.205.348.148M35.432 12.742c.155-.14.181-.436.045-.527-.136-.09-.606.16-.621.349-.016.19.42.318.575.178M16.615 4.095c.17-.068.27-.295.197-.45-.072-.156-.318-.243-.474-.168-.166.08-.246.27-.178.425.08.178.285.265.455.197zM22.507 9.362c.125-.016.235-.099.2-.266-.033-.155-.223-.299-.34-.22-.095.065-.31.236-.246.383s.288.118.386.106zM14.224 7.07c.087.033.265-.031.326-.11.155-.201.008-.497-.174-.558-.182-.06-.436.099-.406.376.012.11.144.25.254.291M22.439 3.512c.072-.069.057-.235.068-.319-.174-.166-.3-.12-.39-.03-.091.091-.148.246-.02.33.088.057.281.072.338.015zM22.931 7.505c-.075-.193-.269-.28-.443-.197-.148.068-.227.326-.148.481.076.152.285.22.444.148.163-.072.223-.243.151-.432zM23.337 6.027s.026.027.041.035c.088.049.235.075.311.03.224-.121.193-.322.087-.557-.12-.008-.238-.03-.337-.004-.015-.004-.023-.011-.038-.015-.072-.015-.216.05-.227.106-.03.106-.03.269.03.337a.17.17 0 0 0 .133.068"/><path fill="#20377D" d="M40.107 11.787H8.336v24.379h31.771z"/><path fill="#20377D" d="M14.884 27.182c-.099.011-.311-.023-.368.117a.14.14 0 0 0-.011.084c-.084.041-.133.106-.126.19.016.166.213.348.357.333.08-.008.155-.091.185-.19.053 0 .103-.007.14-.038.107-.09.13-.204.091-.337-.041-.133-.147-.178-.268-.163zM16.02 28.921c-.038.08-.034.17.053.2.068.024.254.054.288-.014.034-.065-.072-.209-.125-.262-.053-.057-.178-.007-.22.076zM14.315 25.465c-.133.083-.106.288-.015.36.09.076.273.034.314-.133.016-.068-.03-.174-.087-.223-.041-.038-.159-.038-.212-.004M15.05 32.001q-.002.001.008.008c.087.053.166.03.23-.046.073-.083.08-.185.024-.269-.072-.106-.213-.106-.296-.068-.087.023-.148.102-.133.193a.21.21 0 0 0 .167.182M15.626 30.47c.11.039.258-.177.224-.36-.023-.117-.099-.162-.205-.17-.14-.011-.303.084-.314.19-.023.212.185.3.291.337zM14.345 29.338c.14 0 .3-.125.307-.247.012-.151-.166-.337-.318-.333-.102 0-.205.151-.208.3 0 .15.098.28.216.28zM15.94 27.633c.069-.02.14-.065.164-.118.018-.053-.069-.223-.16-.22-.098 0-.178.091-.174.194 0 .094.08.174.174.148zM10.303 29.72c.071.03.136.107.204.194v.007c0 .076.072.152.144.163.117.125.254.209.447.114.265-.129.258-.371.178-.47-.075-.098-.235-.129-.257-.208-.027-.08.11.049.11-.228 0-.276-.38-.485-.542-.193-.023.046-.292-.148-.436.095-.14.242-.08.428.152.527M9.681 29.75l.015-.018c.03-.053.065-.106.087-.163.05-.133.057-.262-.06-.364-.125-.102-.258-.182-.432-.117-.19.072-.265.265-.16.443.133.22.289.28.554.216zM8.73 28.371c0 .118.09.19.235.186.182 0 .3-.098.292-.231-.008-.167-.137-.296-.277-.288-.09.008-.25.22-.25.333M9.946 29.876c-.026-.027-.125-.073-.159-.02-.03.05.004.133.034.156.027.023.103.015.13-.011.022-.02.018-.103 0-.126zM15.543 31.175c.08 0 .148-.041.182-.102a.3.3 0 0 0 .087.083q.25.154.367-.034c.084-.129.046-.356-.072-.428s-.348-.015-.428.102c-.008.012-.008.023-.011.034a.2.2 0 0 0-.13-.053.19.19 0 0 0-.173.197c0 .114.064.19.17.194zM10.337 28.546a.35.35 0 0 0-.042-.326c.155-.057.326-.254.33-.405.003-.148-.224-.372-.39-.383-.175-.012-.315.129-.315.31q.001.233.064.353a.37.37 0 0 0-.246.379c.008.151.102.23.25.257.167.027.303-.045.352-.185z"/><path fill="#20377D" d="M15.217 28.584c-.072-.054-.205-.027-.258.056-.06.091-.041.235.042.284.053.035.129.027.193 0-.125.182-.068.406.095.444.186.042.292-.091.33-.068.037.022.185.166.291.06.228-.227-.03-.379.015-.466.046-.087.228-.182.307-.303.11-.174.114-.394-.083-.492-.231-.114-.41-.027-.508.151-.14.258.144.352 0 .477-.14.118-.193-.041-.364.107.027-.084.004-.205-.056-.254zM17.142 29.755c-.008-.11-.091-.137-.167-.122-.064.012-.227.06-.212.152.015.09.17.155.235.155.09 0 .151-.08.144-.185M17.21 24.825c.038-.042-.023-.122-.053-.148-.019-.019-.091-.019-.114.008-.023.026 0 .098.027.132.011.02.102.05.14.008M17.657 26.935c.08.046.296-.03.303-.136.012-.144-.03-.246-.212-.212-.182.03-.167.303-.087.348zM19.639 27.231s.038-.106-.012-.14c-.049-.034-.117.038-.14.068-.015.02-.007.091.023.11s.098-.015.129-.042zM18.987 27.337c.03 0 .08-.068.076-.099-.008-.037-.06-.09-.095-.09-.034 0-.121.026-.114.11.008.083.099.079.137.079zM17.577 29.27c.095.056.24.022.341-.061a.1.1 0 0 0 .061.038c.106.011.17-.148.239-.209-.008-.018-.012-.041-.02-.06-.071-.084-.113-.087-.192-.08a.32.32 0 0 0-.163-.163c-.17-.09-.322-.049-.406.11-.08.152-.023.334.14.428zM17.559 25.181c.056-.004.197-.045.193-.163-.008-.117-.148-.117-.193-.11-.05.008-.118.072-.133.122-.023.09.057.159.133.151M17.441 27.352c-.011.091.117.121.16.117.045 0 .128-.026.128-.102s-.072-.11-.114-.117c-.041-.008-.163.007-.174.098zM31.002 30.876c.042 0 .129-.004.133-.053.004-.05-.046-.102-.084-.114-.034-.007-.151.016-.147.069 0 .049.072.098.102.098zM17.547 30.641c.08.012.174-.11.148-.193-.019-.053-.08-.09-.102-.114-.03 0-.057.012-.084.02a.3.3 0 0 0-.102-.114c-.163-.106-.398-.068-.496.08-.118.17-.103.408.026.503.095.068.261.072.398.03a.35.35 0 0 0-.057.167c-.011.095.084.122.167.118.041 0 .08-.02.11-.046a.2.2 0 0 0 0 .103c.007.037.041.094.072.102.094.023.197.026.303.038q.044.067.095.117a10 10 0 0 1 .189-.492.5.5 0 0 0-.17-.042c-.023.03-.095.08-.103.14-.068-.095-.132-.186-.273-.106a.2.2 0 0 0-.072.06v-.041c-.022-.053-.056-.163-.136-.178a.4.4 0 0 0 .057-.057c.015-.027.023-.06.03-.09zM30.38 30.38c0-.068-.022-.137-.09-.144.03.05.064.095.09.144M9.226 28.773c.042.091.258.08.311.053.053-.023.087-.102.08-.148-.008-.045-.046-.14-.152-.163-.106-.018-.28.163-.235.254z"/><path fill="#20377D" d="M16.475 30.865c.197 0 .356-.106.352-.243-.004-.12-.178-.276-.31-.276-.11 0-.254.178-.247.303.008.098.114.212.205.212zM16.892 28.61c-.114-.004-.25.17-.254.322-.004.148.098.27.227.266.167 0 .341-.144.334-.277-.008-.155-.16-.31-.307-.315zM16.43 30.308c.018-.034-.031-.129-.073-.167-.056-.045-.144-.045-.166.046-.015.06-.05.223.015.261.068.038.197-.087.223-.14M18.02 30.19c.11.084.327.053.41-.056.068-.088.046-.24-.05-.307-.105-.08-.291-.038-.374.08-.076.105-.069.219.015.283M9.385 25.734a.2.2 0 0 0-.22.106c-.052.095-.045.228.039.285.022.015.045.018.064.026a.56.56 0 0 0-.015.349c.007.026.019.045.026.068a.2.2 0 0 0-.075.106c-.038.152.102.174.216.235q.044-.039.08-.076.022.013.052.027c.16.06.292-.114.466-.122a.3.3 0 0 0 .091-.011c-.015.064 0 .125.065.186.072.064.166.087.235.011.053-.057.106-.16.09-.223a.16.16 0 0 0-.12-.126c.083-.12.083-.287.049-.447a.44.44 0 0 0-.145-.235c-.094-.08-.215-.094-.36-.075-.143.019-.26-.069-.386.007-.004 0-.011.008-.015.012a.17.17 0 0 0-.137-.107zM11.53 29.466c.099.061.144.144.19.243.102.223.322.292.549.19.053-.023.11-.035.125-.039.148.046.22 0 .27-.083.052-.09.003-.167-.062-.235q-.106-.114-.212-.223c-.083-.08-.159-.167-.3-.13-.03.008-.079-.007-.109-.03-.235-.166-.315-.159-.466.053-.008.012-.011.023-.019.035.015-.016.011-.099-.004-.107-.038-.018-.102-.026-.132-.003-.023.019-.046.132-.02.155.027.023.126-.019.156-.045-.045.083-.042.166.042.22zM9.878 25.469c.129-.175.129-.3.008-.394-.091-.068-.319-.03-.38.064-.056.087 0 .31.1.387.09.068.2.045.272-.057M9.795 30.797c-.095-.023-.186.019-.216.113-.02.057-.015.152.019.194.098.12.22.08.348-.016-.019-.125 0-.254-.151-.288zM13.508 24.768c-.11-.072-.31-.011-.417.133a.23.23 0 0 0-.045.155h-.012c-.144.008-.257.106-.25.224.008.11.103.19.22.182a.34.34 0 0 0-.004.197c.023.098.038.181-.007.276-.072.14 0 .277.064.402.06.114.239.17.371.14.012 0 .027-.008.038-.011a.35.35 0 0 0-.098.235c.004.125.132.212.31.208.137 0 .285-.114.285-.22 0-.148-.163-.326-.292-.33q-.029-.002-.057.008a.4.4 0 0 0 .064-.159c.027-.163-.022-.292-.094-.424a.27.27 0 0 1-.034-.16q.027-.248-.167-.31c.06-.008.121-.034.152-.076.075-.102.06-.405-.023-.466zM11.155 26.322c.076 0 .095-.1.05-.171-.039-.06-.133-.133-.198-.14a.093.093 0 0 0-.11.098c.008.06.057.099.11.133.046.034.087.08.152.076z"/><path fill="#20377D" d="M10.7 26.992c-.011-.019-.022-.042-.041-.053-.08-.053-.13-.004-.175.05-.064.079-.053.181.034.215.065.023.137.053.186.015.019-.01.027-.045.027-.083.06.144.2.227.405.224.019 0 .034 0 .05-.008a.42.42 0 0 0-.156.28c0 .114.129.22.277.224.174 0 .28-.11.287-.303.004-.14-.102-.288-.212-.284q-.022-.002-.045.007a.4.4 0 0 0 .133-.318.3.3 0 0 0-.03-.129c.143.057.393.02.492-.087.068-.072.09-.2.057-.322.14.023.295-.015.378-.121.11-.137.08-.406-.06-.53-.137-.126-.345-.092-.504.075a.3.3 0 0 0-.152-.09c-.132.079-.159.181-.083.287-.11.11-.205.178-.261.27-.046.071-.046.196-.02.302a.15.15 0 0 0-.132.03c-.03 0-.06-.007-.099 0-.276.03-.36.118-.363.341zM9.935 30.194c-.045-.152-.152-.227-.337-.235-.027 0-.053.008-.08.011l-.015.02c-.057.094-.125.185-.163.287-.015.038.023.121.06.156.11.098.311.09.444.011.102-.06.117-.144.087-.246zM17.377 32.286s.034-.011.053-.015q.027.044.064.08c.072.056.205.045.277-.005.03-.136.056-.269.094-.405a.2.2 0 0 0-.037-.05c-.065-.045-.16-.045-.25-.014-.046-.118-.148-.186-.288-.178-.118.007-.22.071-.262.151a.3.3 0 0 0 .011-.144c-.09-.05-.189-.117-.28-.011-.034.038-.026.136 0 .19.015.037.099.082.14.071q.091-.018.121-.083c-.007.023-.015.045-.015.068.015.178.201.349.372.349zM14.865 30.755q.032.046.087.076c.053-.023.151-.042.208-.103.08-.083.019-.23-.09-.288a.18.18 0 0 0-.141-.007c-.08-.106-.163-.106-.152-.163.012-.06.11-.167.042-.262-.027-.038-.095-.045-.174-.041.026-.061-.069-.27-.224-.288-.098-.012-.185.045-.216.155-.03.106-.004.2.095.25q.01-.001.023.004c-.042.05-.091.095-.156.053-.098-.064-.151-.2-.276-.197-.125 0-.413-.008-.493.174-.076.17.091.205.14.303.05.099.175.186.311.137.136-.05.246-.163.322-.16s.16.035.14.145a.2.2 0 0 0 .057.163c-.072 0-.144.03-.178.09a.2.2 0 0 0-.011.163c-.152.042-.303.232-.296.39 0 .016.008.027.012.038-.107-.041-.38 0-.425.072-.087.133-.034.304.129.402.121.072.246.023.348-.14.046-.076.061-.152.046-.216a.4.4 0 0 0 .212.05c.193-.016.273-.107.265-.315a.4.4 0 0 0-.038-.144.22.22 0 0 0 .13-.091c.03-.06.018-.144-.023-.205q.043.018.098.023a.33.33 0 0 0 .239-.08zM31.802 30.8c.068 0 .106-.08.106-.113 0-.038-.008-.106-.087-.118-.076-.011-.137.03-.14.11s.052.125.12.121"/><path fill="#20377D" d="M13.319 30.505c-.137-.072-.383 0-.47.136-.057.091-.053.194 0 .292a.23.23 0 0 0 .155.243.6.6 0 0 1-.227.026c-.053 0-.133.06-.163.114-.05.087-.114.155-.175.23-.083.103-.072.255.02.33.132.114.238.122.348 0 .06-.064.09-.155.14-.246.05.008.103.02.152.027a.21.21 0 0 0 .223-.102c.06-.107.02-.213-.045-.311a.3.3 0 0 0-.068-.072.29.29 0 0 0 .25-.14.394.394 0 0 0-.144-.53zM12.3 31.433c-.092-.065-.183-.053-.217.045-.026.069-.106.216-.003.284.102.069.212-.06.272-.11.069-.053.034-.162-.053-.223zM12.364 30.406c-.13-.113-.376-.17-.523-.068a.7.7 0 0 0-.17.2 1 1 0 0 0-.16-.071c-.004-.023-.015-.05-.011-.076 0-.11-.065-.155-.16-.182-.09-.026-.147.008-.208.076-.087.095-.114.167-.09.239h-.008a.37.37 0 0 0-.27.261.6.6 0 0 0 .012-.117c-.008-.16-.106-.25-.277-.247a.326.326 0 0 0-.322.319c0 .166.16.322.326.314.121-.007.216-.102.258-.235a.6.6 0 0 0-.008.197c.03.209.41.463.603.436.087-.011.136-.068.178-.125.026.011.045.026.08.038.075-.042.105-.095.113-.155.099.06.254.166.42.136.24-.042.41-.383.387-.553s-.057-.3-.163-.394zM13.864 28.068a.5.5 0 0 0-.045-.193c.045-.076.022-.19-.053-.25a.18.18 0 0 0-.224 0c-.008 0-.011-.004-.019-.004-.185 0-.402.216-.394.398.008.174.212.36.398.352.182-.003.337-.144.337-.307zM11.454 28.569c-.045-.099-.254-.103-.292.01-.037.115.084.228.22.213.069-.008.106-.144.069-.224zM13.83 29.702c.087 0 .152-.091.186-.156.038-.072-.057-.163-.144-.166-.118-.012-.17.064-.163.143.007.065.034.179.121.182zM9.461 28.042c.06 0 .121-.053.16-.118.094 0 .193-.019.234-.075.065-.084-.007-.3-.132-.398-.076-.061-.216-.035-.284.037-.016 0-.03-.007-.046-.01-.148 0-.288.098-.292.208-.007.163.194.356.364.352zM12.72 26.738c.053.06.125-.019.155-.045.02-.015.012-.099-.004-.106-.037-.02-.102-.027-.132-.004-.023.019-.076.095-.02.155M12.515 26.697c-.113.004-.216.114-.208.22s.133.208.239.197c.113-.012.2-.106.193-.209a.22.22 0 0 0-.224-.208M10.439 28.591c-.06.08-.034.213.06.28.091.065.197.043.277-.06.08-.106.083-.208.011-.257-.087-.057-.288-.038-.344.037zM10.95 28.352c.038.023.11.065.137.023.026-.041.015-.113-.008-.14l-.023-.015a.15.15 0 0 0 .012-.08.19.19 0 0 0-.197-.174c-.11.004-.182.095-.178.22 0 .11.08.197.174.197a.2.2 0 0 0 .083-.03M13.788 28.44c-.03.045-.053.148-.022.182.03.034.144.026.181-.004.035-.027.08-.174.038-.212-.041-.038-.178.004-.197.034M13.103 29.607c.117 0 .208-.05.269-.133.094.034.174.011.227-.076.098-.151.072-.382-.046-.45-.053-.03-.128-.027-.2.003a.3.3 0 0 0-.25-.102c-.201.008-.39.19-.38.364.012.22.182.394.383.394zM12.182 27.553c.053-.076.08-.16-.004-.235-.064-.06-.212-.05-.265.011-.046.057 0 .175.09.247.069.053.133.045.179-.023M11.867 28c.053-.06-.034-.121-.064-.148-.015-.015-.099 0-.102.02-.012.041-.012.105.011.128.019.023.102.065.155 0M11.992 28.739c.069.038.133.008.163-.057.027-.06-.026-.129-.057-.144-.034-.019-.098-.038-.144.027-.045.064-.03.136.038.174M12.8 27.341c0-.11-.069-.182-.175-.182-.216 0-.352.091-.356.231 0 .106.167.28.273.28s.254-.185.258-.325zM12.803 28.75a.2.2 0 0 0 .042-.181.3.3 0 0 0 .09-.216c-.003-.247-.155-.432-.34-.425a.3.3 0 0 0-.148.046.19.19 0 0 0-.045-.167c-.072-.09-.17-.11-.262-.068-.14.064-.106.2-.11.337.095.038.178.072.254.057a.3.3 0 0 0-.05.155c0 .133.114.273.243.337q.01.074.072.137c.084.08.175.076.25-.012zM17.566 32.486c-.2.027-.296.114-.3.273 0 .178.118.303.311.322q.034.001.069.008.033-.307.094-.618c-.056 0-.117.008-.174.015M12.417 33.025c-.17.007-.322.223-.315.447a.28.28 0 0 0 .322.269c.288-.034.322-.121.345-.402.015-.174-.167-.322-.352-.314"/><path fill="#20377D" d="M13.675 32.748s.015.023.03.03a.4.4 0 0 0 .197.027q-.064.159.06.239a.18.18 0 0 0 .152.019c-.042.06-.076.132-.068.181.011.08.174.17.277.156.087-.015.136-.099.113-.197-.038-.16-.113-.25-.193-.243.011-.019.023-.03.027-.053.037-.132.132-.148.238-.19.133.281.315.327.52.152l.056-.057c.118-.14.106-.25-.045-.352-.11-.076-.22-.14-.368-.053a.14.14 0 0 0-.064-.076c0-.038.004-.064.015-.09q.07-.159-.065-.255c-.094-.072-.197-.12-.318-.053 0 0-.007 0-.007.004a.17.17 0 0 0-.17-.129c-.114 0-.186.06-.19.17 0 .073.03.137.08.175-.076.114-.061.246.026.477q-.002.014.007.03a.5.5 0 0 0-.09-.132c-.057-.06-.145-.068-.205.015a.1.1 0 0 0-.023.046.4.4 0 0 0-.204-.235c-.023-.178-.19-.341-.353-.337-.227.003-.386.155-.398.356-.004 0-.007-.011-.015-.011a.4.4 0 0 0-.284-.035.17.17 0 0 0 .034-.11c-.008-.106-.133-.204-.242-.193a.1.1 0 0 0-.038.008c-.02-.174-.178-.334-.341-.33-.186.004-.364.156-.368.315-.008.17.246.42.42.409a.3.3 0 0 0 .182-.091.22.22 0 0 0 .194.087q.01.001.015-.004c-.057.091.057.36.178.425.087.045.25 0 .307-.087a.4.4 0 0 0 .05-.118.3.3 0 0 0 .15.08v.045c.012.16.198.31.38.31.159 0 .333-.166.356-.325zM11.758 33.797a.3.3 0 0 0-.103-.261l-.023-.011c.091-.02.167-.084.24-.19.109-.167.037-.428-.145-.53-.083-.05-.212-.03-.326.026a.21.21 0 0 0 .027-.22c-.072-.128-.163-.25-.25-.379.08-.185.075-.197-.13-.299-.067.011-.109.125-.185.11a.3.3 0 0 0-.041-.083c.026-.069.056-.137.072-.209.022-.11-.042-.193-.126-.261-.087-.068-.162 0-.234.03-.13.06-.17.17-.179.315a.4.4 0 0 0-.064.049c-.015-.144-.106-.224-.246-.28a.34.34 0 0 0-.406.105c-.113.145-.125.27 0 .406a.8.8 0 0 0 .288.19c.088.034.156.068.17.162.024.14.118.167.243.137-.09.288-.019.473.216.58.186.083.3.018.425-.209.11-.023.204-.034.284-.06q-.042.032-.072.071a.3.3 0 0 0-.02.28c-.063.035-.117.103-.113.171 0 .08.065.16.14.197a.3.3 0 0 0 .008.186c.053.102.144.11.239.114.045 0 .087.015.129.011a.46.46 0 0 0 .007.352h.633c.038-.166-.03-.435-.144-.515-.087-.06-.212-.05-.318 0zM14.19 33.817a.21.21 0 0 0-.292.083c-.049.102-.007.254.08.303.072.042.284-.034.326-.117.034-.065-.034-.228-.114-.273zM15.005 34.161c-.06.004-.137.011-.209.015-.034-.14-.113-.231-.216-.223-.12.007-.272.197-.257.325 0 .012.011.023.015.035h.803a.5.5 0 0 0-.136-.156zM13.588 33.923h-.034c-.107-.027-.28.007-.326.075-.05.076-.042.209 0 .311h.58a.4.4 0 0 0 .037-.148c.008-.174-.064-.242-.265-.242zM10.837 33.945s-.027.008-.042.015a.5.5 0 0 0-.057-.151.35.35 0 0 0-.102-.315c-.117-.117-.22-.129-.387-.045-.174.087-.246.238-.272.416-.091 0-.17-.011-.247.008-.144.03-.208.114-.208.208a.3.3 0 0 0-.118.084.25.25 0 0 0-.037.151h.632a.3.3 0 0 0 .057-.06c.038-.05.057-.106.114-.22.068.068.14.106.151.16q.023.077.057.12h.648a.3.3 0 0 0 0-.076q.03-.033.057-.068c-.053-.117-.087-.253-.25-.227zM8.707 31.164c.125.148.432.129.542.042s.186-.163.205-.273c.026-.136-.034-.33-.167-.39-.133-.065-.349-.015-.387-.06-.034-.046.065-.285-.075-.425s-.326-.102-.459 0c-.004 0-.007.007-.011.011v.618c.098.064.235.022.261.049.03.03-.041.277.084.424zM15.554 33.597c.02-.084-.102-.266-.193-.288-.08-.02-.224.095-.246.197-.02.087.037.163.14.178.163.026.28-.008.3-.087M8.764 29.38c.083-.232-.076-.508-.333-.588-.027-.007-.05-.007-.072-.011v.826c.2.034.33-.027.405-.228M8.685 32.339c.045.113.151.22.25.22.12 0 .22-.137.238-.334.008-.099-.106-.224-.212-.228a.3.3 0 0 0-.159.05.2.2 0 0 0-.064-.099.2.2 0 0 0-.084-.038q.021-.04.042-.083c.09.026.204.057.276-.072-.068-.261-.125-.277-.318-.099-.121-.01-.216-.041-.295-.03v.67a.2.2 0 0 0 .041.073c.072.057.182.038.28-.034zM9.719 33.23c.076-.107.045-.311-.05-.406.023-.046.035-.087.023-.114-.034-.08-.348-.155-.447-.076-.094.076-.106.182-.064.288a.4.4 0 0 0 .026.053c-.022.091.023.182.148.27.106.075.303.068.364-.012zM8.393 33.786l-.03.012v.519h.166c.008-.034.02-.072.027-.106v-.027c.064-.045.11-.117.106-.185-.004-.084-.178-.224-.273-.213zM8.954 33.043a.32.32 0 0 1-.205-.22c-.046-.14-.235-.223-.345-.193-.011 0-.026.012-.038.023v.875l.076.099c.019.023.087.019.121 0a.37.37 0 0 1 .303.007c.14.057.322-.068.3-.197-.027-.148-.027-.318-.212-.394M8.7 34.313h.447a.4.4 0 0 0-.303-.091c-.05 0-.103.041-.144.09M34.382 34.127s-.09.03-.095.05c0 .037-.007.11.042.136h.064c.035-.02.053-.061.053-.076a.17.17 0 0 0-.064-.11M15.558 33.949c-.065-.019-.17-.015-.216.026-.121.106-.065.224.015.338h.167c.068-.016.125-.05.151-.13.03-.094-.007-.204-.117-.234M32.34 30.043c-.042.007-.099.034-.114.068-.011.026-.011.12.068.14.08.019.095-.084.106-.121.008-.023-.041-.087-.06-.087M31.885 31.907c-.133-.012-.258.106-.277.261-.015.144.042.231.167.246.178.023.379-.098.387-.239.007-.117-.137-.257-.28-.268zM33.31 31.589c-.103 0-.19.045-.216.155-.027.095.045.197.144.212.09.015.193-.057.216-.155.022-.103-.046-.216-.14-.212zM8.563 28.398c.087-.102.076-.231-.019-.303-.049-.038-.12-.042-.185-.027v.39c.072.023.151 0 .204-.06M34.333 32.62c-.053-.084-.114-.292-.262-.281-.148.007-.121.14-.163.197-.117.148-.087.401.053.462.13.057.243.027.341-.064.103-.095.099-.209.035-.315zM31.643 33.15c-.11.018-.182.083-.186.193 0 .162.193.261.257.261.065 0 .213-.178.163-.326-.03-.095-.12-.148-.235-.129M33.052 33.312c-.11-.015-.231.065-.239.16-.011.087.072.2.16.212.094.015.227-.076.242-.163.019-.087-.065-.193-.163-.209M16.138 33.494c-.091-.049-.209-.003-.273.106-.065.11-.034.28.068.319.121.045.242.03.322-.091.072-.106.019-.262-.117-.334M31.347 34.021c0 .099 0 .197-.008.295h.088a.22.22 0 0 0 .045-.125c0-.08-.05-.144-.125-.17M16.024 33.222q.018-.041.038-.088c.05.023.106.042.174.042.17.004.334-.136.345-.303a.26.26 0 0 0-.034-.129c.004 0 .008-.007.015-.007.337.234.474.208.599-.137.068-.186-.042-.375-.247-.383-.151-.007-.299.05-.492.088a2 2 0 0 0-.137-.13c.156-.033.273-.196.285-.42a.334.334 0 0 0-.319-.348c-.204-.016-.424.178-.435.382-.004.103.068.216.162.296q-.021-.001-.049.004c-.261.08-.382.424-.242.708.053.106.023.152-.015.228-.057.113.019.261.132.306.118.046.175-.01.216-.106zM16.024 34.07c-.042.008-.091.084-.099.133-.007.038-.007.076-.01.114h.332c.027-.035 0-.144-.037-.186a.23.23 0 0 0-.186-.057zM17.596 34.044c-.09-.038-.19-.072-.299-.038-.205.06-.224.08-.2.307h.514c-.003-.091-.015-.178-.015-.27M16.895 33.722a.3.3 0 0 0 .11-.087c.05-.065-.041-.262-.197-.273a.24.24 0 0 0-.166.09c-.057.092-.027.202.06.262.011.008.027.008.038.012a.34.34 0 0 0-.16.147c-.098 0-.177.05-.181.148 0 .076.019.186.068.227.137.114.235-.018.356-.087v-.011c.023 0 .046.011.069.008.11 0 .155-.069.159-.167.004-.118-.068-.235-.152-.273zM15.854 24.5c.166-.008.28-.1.303-.232H15.5a.36.36 0 0 0 .353.231M14.338 24.734c-.03.064-.076.239-.015.292.06.05.216-.065.265-.118.06-.06.045-.144-.042-.193-.075-.045-.163-.064-.204.023zM14.577 24.302s-.004-.023-.008-.034h-.387a.2.2 0 0 0 .042.095c.08.09.167.068.349-.06zM15.694 25.605c.14-.064.08-.261.027-.318s-.341.14-.349.227c-.007.088.178.156.322.091M13.091 24.575c.015-.064.015-.19-.034-.208-.05-.02-.152.007-.182.049-.03.038-.038.193.008.223.045.03.204-.034.208-.064M13.512 24.506a.24.24 0 0 0 .204-.098c.016.023.03.042.05.057.083.06.19.045.257-.034a.22.22 0 0 0 .057-.16h-.8c.046.11.156.235.232.24zM13.906 25.14c0 .12.08.215.182.215.11 0 .208-.083.212-.189.007-.114-.099-.231-.205-.235-.102 0-.193.095-.193.205zM13.705 13.428c.09-.095.098-.289.015-.36-.106-.095-.307-.107-.39-.023-.087.087-.05.269.083.398.068.064.22.056.292-.015M14.887 26.712c.023.05.057.083.118.09.227.02.454.016.659-.101.038-.02.064-.061.076-.076.125-.205.026-.402-.201-.417a1.6 1.6 0 0 0-.42.034c-.08.015-.152.091-.198.178a.2.2 0 0 0-.03.038c-.034.057-.076.22-.03.254q.012.004.03.008zM16.426 27.91c.045-.05-.012-.126-.03-.133a.17.17 0 0 0-.13.011c-.015.008-.015.095.004.106.034.019.106.065.156.015M16.426 27.375c.072.03.181-.095.163-.186-.016-.06-.076-.106-.099-.136-.148 0-.242.068-.216.144a.32.32 0 0 0 .151.178M15.672 25.022c.034-.038.011-.106-.016-.133-.022-.026-.128-.06-.163-.023-.03.038.012.14.038.16.03.022.103.038.137 0zM16.782 25.818c.03-.087-.03-.212-.114-.235-.117-.03-.284.186-.242.265s.318.084.356-.026zM8.688 27.962c.152-.08.262-.155.315-.288a.5.5 0 0 0 .015-.292.18.18 0 0 0 .106-.17c0-.099-.114-.209-.205-.205a.17.17 0 0 0-.147.099c-.144-.05-.315-.053-.341-.103-.034-.064.14-.333 0-.534-.02-.026-.046-.045-.069-.064v1.584c.125.022.25.015.326-.023zM17.127 27.386c.09-.011.143-.06.151-.151.012-.156-.095-.209-.227-.262-.099.091-.22.148-.16.288.042.095.126.14.236.125M15.963 26.193c-.034.045.03.129.057.144.034.015.106.015.137-.02.03-.033-.004-.109-.035-.136-.022-.022-.125-.034-.159.008zM9.9 13.086c.077-.007.156-.11.145-.19-.015-.102-.08-.12-.288-.083-.095.137.05.28.144.273M12.773 14.189a.33.33 0 0 0-.064-.368q-.166-.153-.36.065a.35.35 0 0 0-.065.303zM10.537 14.159q-.107-.028-.174.03h.216s-.03-.026-.046-.03zM10.757 13.257c.212.05.379-.046.455-.246.015-.042.03-.08.045-.125.08.03.152.064.228.087.144.041.216.007.272-.13a.305.305 0 0 0-.056-.344c-.091-.098-.209-.09-.319-.045-.08.034-.144.094-.22.147a1 1 0 0 0-.12-.041c-.156-.038-.353.019-.425.14a.47.47 0 0 0 0 .455c.023.049.087.094.14.106zM8.366 25.76c.034.065.06.126.099.175 0 0-.004 0-.008.008-.06.094-.034.208.072.269.084.045.17.098.235.023a.37.37 0 0 0 .076-.19c.095-.053.129-.205.076-.36-.02-.05-.042-.095-.061-.148.08-.102.174-.204.182-.326q.044-.001.095-.015c.144-.03.265-.269.212-.409l.007.011c.114.095.285.11.364.046.011-.008.02-.027.027-.038.03.08.102.144.19.148.109 0 .177-.065.188-.178.008-.122-.068-.216-.178-.22a.2.2 0 0 0-.14.053c0-.072 0-.14-.03-.186-.053-.08-.11-.193-.224-.147a.44.44 0 0 1-.325-.012h-.417c-.015.068 0 .133.076.178.003 0 .015.004.022.008.008.068.042.125.095.144a.3.3 0 0 0-.144.045.38.38 0 0 0-.182.239q-.026.001-.053-.004c-.121-.004-.193.038-.246.106v.44q.073.049.148.098c-.053.084-.095.16-.144.235zM9.583 12.196c.018-.034.06-.087.01-.133a.072.072 0 0 0-.109.004c-.023.03-.08.114-.038.155.042.042.125-.007.137-.026M8.715 13.594c.053.099.125.099.239.068.113-.03.284-.08.238-.238-.045-.156-.155-.148-.2-.13-.046.02-.14-.022-.1-.06.043-.038.046-.106-.04-.212-.088-.106-.183-.133-.304-.06-.133.079-.167.28-.072.424.095.14.19.11.243.208zM10.428 24.954a.5.5 0 0 0-.107.102c-.026.099-.083.254-.11.413-.015.099.042.197.156.212.102.012.19-.023.223-.14 0-.008.008-.015.012-.023a.48.48 0 0 0 .352-.094c.02.094.087.159.182.159.019 0 .038-.008.057-.015q0 .063.011.132c.11.06.212.076.28-.034.023-.038.02-.129-.01-.159a.24.24 0 0 0-.164-.064q.014-.035.015-.069a.205.205 0 0 0-.193-.208h-.038c.012-.167-.098-.273-.2-.337l-.023-.012c.114-.053.178-.166.178-.34a.6.6 0 0 0-.027-.171.18.18 0 0 0 .14-.027c.008-.003.008-.011.016-.015h-.86c-.061.144-.012.356.125.444h.007a.4.4 0 0 0 .118.098.28.28 0 0 0-.133.14zM10.97 11.984c.075-.008.155-.11.143-.19-.015-.102-.17-.197-.288-.083-.094.136.05.28.144.273M12.235 24.514c.152.03.22-.068.288-.193q-.017-.03-.034-.053h-.364c-.008.027-.023.05-.023.08 0 .09.042.151.133.166M11.322 24.272h.007-.117c.034.018.068.026.106 0z"/><path fill="#20377D" d="M11.462 24.571c-.208.046-.3.178-.318.322-.02.144.182.27.386.3.038.003.08 0 .118-.02 0 .008-.008.02-.008.027 0 .137.102.224.261.227q.286 0 .28-.295c0-.167-.113-.307-.23-.303a.2.2 0 0 0-.084.03c-.026-.144-.216-.326-.409-.284z"/><path fill="#20377D" d="M11.432 24.268a.2.2 0 0 0-.016.064c0 .125.091.228.205.228.102 0 .182-.099.178-.22a.2.2 0 0 0-.015-.072zM11.428 13.822c-.11-.11-.349-.076-.478.064-.072.08-.06.197.012.3h.53c.046-.122.023-.277-.064-.364"/><path stroke="#7DE2D1" stroke-miterlimit="10" stroke-width="1.817" d="m19.511 19.365-4.734 4.725 4.589 4.589M28.77 28.679l4.725-4.725-4.588-4.589M27.235 20.919l-6.197 6.197"/></g></g><defs><clipPath id="a"><path fill="#fff" d="M0 .787h48v48H0z"/></clipPath><clipPath id="b"><path fill="#fff" d="M1.895 1.545h45.469v57.21H1.894z"/></clipPath></defs></svg>