<svg xmlns="http://www.w3.org/2000/svg" width="48" height="49" fill="none"><g clip-path="url(#a)"><path fill="#ECF0F6" d="M24 47.81c13.255 0 24-10.702 24-23.905C48 10.703 37.255 0 24 0S0 10.703 0 23.905s10.745 23.906 24 23.906"/><path fill="#fff" d="M44.472 18.148c.064-.107-.032-.191-.132-.235s-.264 0-.272.116c-.008.115-.044.279.1.31.144.032.256-.115.304-.19M44.044 18.674a.33.33 0 0 0-.092-.232c-.088-.067-.28.028-.292.144a.45.45 0 0 0 .056.191c.156.064.32.008.328-.103M44.864 17.35a.35.35 0 0 0 .448-.139.53.53 0 0 0-.24-.63.36.36 0 0 0-.368.132.52.52 0 0 0-.424-.072.5.5 0 0 0-.26.606.495.495 0 0 0 .592.29.6.6 0 0 0 .252-.186M40.86 6.96l.036-.027a5 5 0 0 0-.4-.363.24.24 0 0 0 0 .223.263.263 0 0 0 .364.168M43.244 17.416c-.056.116.048.31.264.422.044-.024.156-.044.2-.107a.313.313 0 0 0-.072-.43.31.31 0 0 0-.392.115M44.272 16.304a.273.273 0 0 0 .326-.251.2.2 0 0 0-.018-.084 3 3 0 0 0-.296-.27c0-.323-.104-.546-.3-.558a.48.48 0 0 0-.356.215.12.12 0 0 0-.1.048.1.1 0 0 0 0 .091.3.3 0 0 0 0 .092c0 .223.088.295.536.338-.004.172-.028.355.208.379M43.536 13.88c-.212.096-.28.212-.216.363.064.152.276.299.44.22a.57.57 0 0 0 .16-.495c-.048-.135-.192-.175-.384-.087M42.408 10.896a.23.23 0 0 0 .128 0 .8.8 0 0 1 .132.187.4.4 0 0 0 .44.24c.196-.032.272-.172.156-.439-.088-.083-.216-.227-.368-.35v-.028a.326.326 0 0 0-.296-.355c-.2-.044-.488.088-.52.24a.464.464 0 0 0 .328.505M43.512 10.366a.37.37 0 0 0 .14-.18c-.184-.258-.368-.51-.56-.76a.26.26 0 0 0-.18.118.23.23 0 0 0 .024.268q.046.053.108.084a.29.29 0 0 0 0 .22c.14.254.28.334.468.25M45.224 12.997a.32.32 0 0 0 .2.351.2.2 0 0 0 .1 0l-.212-.399q-.05-.047-.088.048M46.576 15.786q-.175-.477-.368-.94-.076.039-.148.087a.355.355 0 0 0-.024.594q.254.161.54.259M45.152 14.467a.7.7 0 0 0 .176.155q.103.066.212.12c.232.127.4.103.524-.064a.3.3 0 0 0 .044-.092c-.088-.207-.184-.398-.276-.613a3 3 0 0 1-.424-.399c-.128-.163-.4-.258-.508-.163a.306.306 0 0 0 0 .37c.16.112.084.232.096.36q.04.18.156.326"/><path fill="#fff" d="M42.56 9.376c.276.14.4.143.504 0l-.348-.442c-.172.111-.156.282-.156.442M41.984 9.048c.068 0 .184-.092.188-.147a.4.4 0 0 0-.084-.303c-.152-.14-.264 0-.4.103.036.196.092.351.296.347M16.508 5.634a.32.32 0 0 0 .036-.398c-.192-.208-.44-.267-.568-.14a.48.48 0 0 0 .024.57.45.45 0 0 0 .508-.032M25.264.248c-.124.22-.08.37.152.514a.38.38 0 0 0 .496-.048.58.58 0 0 0-.188-.661h-.204a.48.48 0 0 0-.256.195M44.5 19.706c.104-.056.168-.155.092-.25-.076-.096-.232-.248-.316-.204s-.08.22-.068.33c-.108-.055-.224 0-.276.14a.166.166 0 0 0 .06.208.2.2 0 0 0 .072.027c.08 0 .304.056.332-.06a.2.2 0 0 0-.04-.159q.076.007.144-.032M22.952 2.714c-.044.044-.08.243-.024.29.056.049.268 0 .28-.047.012-.048.048-.247 0-.279a.27.27 0 0 0-.256.036M24.228.247a.4.4 0 0 0-.048-.104.3.3 0 0 0 .076-.123h-.42000000000000004a.1.1 0 0 0 0 .04s-.028 0-.032.027a4 4 0 0 0-.148.375c-.304.107-.472.299-.4.482a.54.54 0 0 0 .584.259c.212-.064.24-.187.12-.618.152-.083.332-.127.268-.338M26.9 1.23c.128-.031.276-.02.352-.139s.304-.442.168-.657-.288-.048-.432-.072a.35.35 0 0 0-.332.147.47.47 0 0 0-.256.132.425.425 0 0 0 0 .518.14.14 0 0 1-.128-.044c-.108-.1-.348-.1-.536.14-.188.238-.064.613.16.625s.288-.112.344-.056.104.24.252.235c.148-.004.312-.398.304-.494s-.084-.2-.024-.279a.4.4 0 0 0 .128-.056M31.224 1.183a.48.48 0 0 0-.504.092.49.49 0 0 0 .172.518.212.212 0 0 0 .324-.06c.156-.231.156-.45.008-.55M27.564 1.207a.32.32 0 0 0 .036.315c.052.095.216.056.288-.036a.17.17 0 0 0-.04-.279c-.076-.04-.22-.096-.284 0M23.236 3.88a.36.36 0 0 0 .44 0 .6.6 0 0 0 .04-.605.45.45 0 0 0-.56.108c-.144.14-.116.323.08.498M16.064 3.61a.59.59 0 0 0-.632 0 .4.4 0 0 0 0 .534.445.445 0 0 0 .564.036.43.43 0 0 0 .068-.57M31.408 2.04a.297.297 0 0 0 .4-.092.287.287 0 0 0-.092-.399.32.32 0 0 0-.4.116.274.274 0 0 0 .092.374M45.308 15.406a.4.4 0 0 0 .204-.462.33.33 0 0 0-.36-.199c-.252.084-.4.279-.344.442a.44.44 0 0 0 .5.22M22.756 1.702a.343.343 0 0 0-.108-.51.424.424 0 0 0-.632.132.445.445 0 0 0 .084.59.36.36 0 0 0 .344.023.21.21 0 0 0 .2-.064.4.4 0 0 0 .112-.17M22.188 2.239a.27.27 0 0 0-.232.259.2.2 0 0 0 .148.239c.192.06.296-.056.4-.208-.08-.143-.116-.314-.316-.29M21.264.16a.5.5 0 0 0-.06.187.3.3 0 0 0-.072-.124l-.064-.052-.4.052q.095.122.132.271c0 .056.156.104.228.096a.3.3 0 0 0 .184-.14.27.27 0 0 0 .104.243.31.31 0 0 0 .344-.143c.048-.183.188-.16.3-.22a.4.4 0 0 0 .116-.09.44.44 0 0 0 .452 0 .25.25 0 0 0 .044-.188c.156.123.328.155.436.06a.3.3 0 0 0 .076-.116c-.624.052-1.212.096-1.82.163M16.504 2.091a.481.481 0 0 0-.793.332c-.008.119.03.237.105.33a.472.472 0 0 0 .708-.032.473.473 0 0 0-.02-.63M45.112 17.922c-.044.024-.064.16-.048.23a.13.13 0 0 0 .085.104.13.13 0 0 0 .131-.023c.064-.052.224-.204.18-.291-.044-.088-.276-.052-.348-.02M35.756 4.996a.177.177 0 0 0 .28-.072.7.7 0 0 0 0-.247.26.26 0 0 0-.364.096c-.06.107.004.171.084.223M35.532 3.433a.3.3 0 0 0 .232-.1.22.22 0 0 0 0-.206c-.096-.14-.232-.124-.376-.036 0 .143-.028.295.144.342M34.672 7.463c.144-.024.244-.104.248-.243 0-.211-.244-.35-.328-.355a.4.4 0 0 0-.224.423.264.264 0 0 0 .304.175M25.472.987a.26.26 0 0 0-.368-.068.425.425 0 0 0-.056.538.296.296 0 0 0 .4.032.375.375 0 0 0 .024-.502M33.812 3.981a.5.5 0 0 0 .588-.299.64.64 0 0 0-.4-.641.505.505 0 0 0-.536.398.485.485 0 0 0 .348.542M33.632 2.2a.33.33 0 0 0 .12.522.4.4 0 0 0 .428.028.28.28 0 0 0 .336 0c.044-.032.092-.1.084-.144a1.4 1.4 0 0 0-.048-.175c-.256-.128-.516-.243-.776-.359a.35.35 0 0 0-.144.128M36.44 5.582a.33.33 0 0 0 .378-.372.21.21 0 0 0-.178-.166.27.27 0 0 0-.332.112.305.305 0 0 0 .132.426M34.896 2.87a.25.25 0 0 0 .336-.056v-.028c-.156-.084-.316-.16-.472-.24a.266.266 0 0 0 .136.324M39.592 6.149a.3.3 0 0 0 0 .27.16.16 0 0 0 .24.108c.108-.056.196-.131.148-.27-.048-.14-.328-.172-.388-.108M39.676 7.905a.4.4 0 0 0 .364-.22.36.36 0 0 0-.248-.33.26.26 0 0 0-.32.23.294.294 0 0 0 .204.32"/><path fill="#fff" d="M40.184 6.422a.4.4 0 0 0 .156 0l-.428-.399a.49.49 0 0 0 .272.399M25.272 2.395s.032-.068 0-.091a.073.073 0 0 0-.108 0 .08.08 0 0 0 0 .103c.028.02.096.004.108-.012M37.448 4.103c-.344-.235-.7-.458-1.056-.673 0 .024.036.051.056.08a.63.63 0 0 0 0 .7.66.66 0 0 0 .976-.087s.02-.012.024-.02M37.02 7.478a.37.37 0 0 0 .4-.362c.024-.187-.104-.307-.352-.343s-.356.06-.372.211a.68.68 0 0 0 .324.494M35.16 4.116a.9.9 0 0 0 0-.247.26.26 0 0 0-.368.092c-.056.112 0 .171.088.223s.248.048.28-.068M24.772 2.366a.277.277 0 0 0 .368-.076.254.254 0 0 0-.088-.335.23.23 0 0 0-.336.048.25.25 0 0 0-.015.29q.028.042.071.073M45.796 20.328c.16.087.4.067.48-.052.148-.24-.052-.454-.156-.562-.104-.107-.4.068-.468.299a.254.254 0 0 0 .144.315M46.996 18.893a.31.31 0 0 0 .092-.398.7.7 0 0 0-.3-.048c-.144.028-.192.227-.12.374a.237.237 0 0 0 .328.072M46.336 16.344c-.104.187.048.494.308.617a.35.35 0 0 0 .324 0q-.128-.411-.268-.816a.44.44 0 0 0-.364.199M44.996 19.372a.43.43 0 0 0 .46-.223.33.33 0 0 0-.124-.367c-.232-.111-.484-.072-.552.088a.47.47 0 0 0 .216.502M45.804 16.203c.064 0 .128-.123.144-.199a.21.21 0 0 0-.092-.187c-.156-.072-.264 0-.344.163.06.124.116.271.292.223M45.424 20.81a.28.28 0 0 0 .172-.335.275.275 0 0 0-.316-.14.315.315 0 0 0-.172.339.247.247 0 0 0 .316.136M46.632 18.053a.59.59 0 0 0-.236-.694.2.2 0 0 0-.064-.023.27.27 0 0 0-.34-.1.48.48 0 0 0-.256.418.425.425 0 0 0 .18.586.574.574 0 0 0 .716-.187M24.224 1.22a.25.25 0 0 0 .364-.072.23.23 0 0 0-.104-.323.273.273 0 0 0-.36.104.202.202 0 0 0 .1.29M47.416 18.663q-.04-.174-.08-.343a.254.254 0 0 0 .08.343M20.396.287v-.02l-.36.064c.121.03.25.014.36-.044M25.22.123a1 1 0 0 0 .06-.087l-.8-.024q.016.055.056.095a.51.51 0 0 0 .684.016M20.084.841a.29.29 0 0 0-.056-.374.4.4 0 0 0-.4.052.37.37 0 0 0 .112.43.27.27 0 0 0 .344-.108M47.964 22.559a.46.46 0 0 0 0 .235c.008-.068.004-.144 0-.235M37.008 12.638c-.056 0-.116.147-.108.21.008.064.156.2.224.172s.104-.207.08-.243-.132-.151-.196-.14M30.54 5.335q.102-.16.176-.335a.52.52 0 0 0-.244-.562.21.21 0 0 0-.284.032c-.202.222-.33.5-.368.797q0 .072.028.14a.326.326 0 0 0 .347.227.3.3 0 0 0 .141-.048.2.2 0 0 0 .132-.068.26.26 0 0 0 .072-.183M30.008 7.271c.12-.108 0-.446-.112-.458s-.324.287-.228.398a.27.27 0 0 0 .34.06M32.012 1.67a.08.08 0 0 0 .052.075.084.084 0 0 0 .092-.067c0-.048-.052-.076-.076-.08s-.068.048-.068.072M22.436 5.505a.14.14 0 0 0-.071.143q.005.029.019.053c.064.087.164 0 .212-.032a.16.16 0 0 0 0-.14.2.2 0 0 0-.16-.024M22.884 3.535a.36.36 0 0 0-.064-.49.54.54 0 0 0-.648.155.4.4 0 0 0 .215.464.4.4 0 0 0 .497-.13M22.004 4.39a.476.476 0 0 0-.704.044.43.43 0 0 0-.024.634.54.54 0 0 0 .72 0 .56.56 0 0 0 .008-.678M25.984 3.012c.112-.143.128-.398 0-.478-.216-.179-.464 0-.584.072s0 .398.228.506a.26.26 0 0 0 .356-.1M25.636 5.9v.096c0 .02.072 0 .076 0s.028-.084 0-.108-.04.004-.076.012M34.052 4.96a.4.4 0 0 0 .028-.06c.096 0 .256-.064.264-.147.008-.084-.212-.188-.288-.196a.1.1 0 0 0-.044 0 .55.55 0 0 0-.544.044.36.36 0 0 0 .116.506c.136.112.332.044.468-.147M44.444 32.291c.036-.067-.068-.147-.112-.171a.124.124 0 0 0-.14.044c0 .047.032.127.076.16.044.031.144.031.176-.033M44.864 24.667c.04-.112.032-.22-.068-.275a1.46 1.46 0 0 0-.84-.247.5.5 0 0 0-.132.044.34.34 0 0 0-.193.302.33.33 0 0 0 .193.303q.245.13.516.195a.525.525 0 0 0 .524-.322M44.484 30.172c.032-.056 0-.14-.06-.163-.06-.024-.184-.036-.212 0s.056.171.1.191a.15.15 0 0 0 .172-.028M46.692 26.542a.55.55 0 0 0 .148-.51.47.47 0 0 0-.36-.37h-.052a.46.46 0 0 0 .244-.223c.068-.152-.036-.323-.252-.419a.4.4 0 0 0-.46.1.49.49 0 0 0 .164.554l.076.02a.5.5 0 0 0-.164.15.84.84 0 0 0-.128.559.37.37 0 0 1-.048.207.337.337 0 0 0 .148.546.2.2 0 0 0-.06.08.3.3 0 0 0 .2.326.305.305 0 0 0 .4-.123.256.256 0 0 0-.16-.335.5.5 0 0 0 .116-.231.47.47 0 0 1 .188-.33M47.872 25.4a.27.27 0 0 0-.344.136.29.29 0 0 0 .144.374c.073.03.155.03.228 0l.036-.462a.2.2 0 0 0-.064-.048M47.216 29.09a.24.24 0 0 0 .1.326h.036l.12-.514a.28.28 0 0 0-.256.188M44.348 27.702c-.04-.147-.16-.17-.444-.123-.036.147-.128.307.06.398a.245.245 0 0 0 .34-.052.32.32 0 0 0 .044-.223M40.064 9.38a.426.426 0 0 0 .472-.399.7.7 0 0 0 0-.247.6.6 0 0 0 .34-.024.31.31 0 0 0 .148-.303.57.57 0 0 0 .532-.398.477.477 0 0 0-.356-.558.76.76 0 0 0-.644.454.37.37 0 0 0 .036.216h-.024a.52.52 0 0 0-.236.338.8.8 0 0 0-.216-.072.517.517 0 0 0-.56.455c-.028.219.236.49.508.538M37.472 10.035c.4.08.4.052.4-.287-.164-.12-.3-.071-.424.088-.448-.195-.66 0-.608.506a.4.4 0 0 1-.084.056c-.136.056-.152.16-.136.287a.25.25 0 0 0 .204.207c.268.092.4.032.456-.243q.114-.31.192-.614M36.844 8.183a.397.397 0 0 0-.34-.47.52.52 0 0 0-.56.454.53.53 0 0 0 .4.486c.256.036.456-.16.5-.47M39.652 11.303c-.036-.088-.204-.108-.34-.048a.143.143 0 0 0-.084.22c.056.107.136.186.272.139a.28.28 0 0 0 .152-.311M39.348 18.786c-.028 0-.12.087-.092.16.028.07.152.043.204.027a.13.13 0 0 0 .056-.135c-.016-.044-.112-.056-.168-.052M39.448 10.207a.453.453 0 0 0-.542.373.45.45 0 0 0 .406.516c.224.028.444-.2.48-.494a.355.355 0 0 0-.344-.395M21.24 6.344c-.068.063-.028.227.08.33a.144.144 0 0 0 .184.045.14.14 0 0 0 .052-.045.21.21 0 0 0 .07-.232.2.2 0 0 0-.042-.075.284.284 0 0 0-.344-.023M45.128 21.762c.244-.064.196.187.532.071.336-.115.44-.474.244-.63-.196-.155-.4-.06-.432-.107-.032-.048-.124-.299-.312-.231-.4.14-.176.462-.28.542s-.372.084-.532.187a.398.398 0 0 0-.176.626q.058.075.136.127.042.043.096.072c.116.06.316.255.48.151.164-.103.048-.235.064-.326.156-.208-.036-.427.18-.482M11.872 4.179c.132.052.364-.183.316-.287s-.36-.143-.4 0a.25.25 0 0 0 .084.287M43.156 24.316c-.056.024-.052.132-.036.18a.19.19 0 0 0 .196.079c.068-.032.04-.171 0-.203a.19.19 0 0 0-.16-.056M43.516 23.216a.43.43 0 0 0-.08-.295c-.068-.076-.272 0-.296.127a.45.45 0 0 0 .04.22c.172.087.324.055.336-.052M8.536 5.641c-.052.088-.148.327-.08.399.068.071.3-.052.312-.092.028-.112.092-.247 0-.35-.092-.104-.204 0-.232.043M47.584 21.984c.136.076.24.02.272-.08s.064-.227-.04-.279a.2.2 0 0 0-.08 0 .38.38 0 0 0 .084-.362q.015.016.036.028c-.028-.235-.06-.466-.092-.701a.144.144 0 0 1-.07-.164.14.14 0 0 1 .03-.056v-.027c0-.112-.036-.224-.056-.34a.6.6 0 0 0-.168-.143.43.43 0 0 0-.268-.047.1.1 0 0 0 0-.036.4.4 0 0 0-.464-.136.374.374 0 0 0 .024.474q.061.053.14.064c.036.156.128.203.084.26-.044.055-.22.139-.192.282s.46.247.532.227.236-.147.316 0a.7.7 0 0 1 .068.168.23.23 0 0 0-.28-.056.45.45 0 0 0-.292.518.38.38 0 0 0 .352.159c-.1.024-.048.191.064.247M45.972 23.83a.524.524 0 0 0-.236-.594.4.4 0 0 0-.4.239.33.33 0 0 0 .204.474c.188.084.372.032.432-.12M45.432 30.128c-.116-.04-.168.036-.208.12a.17.17 0 0 0 .031.228q.034.027.077.035a.8.8 0 0 0 .244-.036.26.26 0 0 0-.056-.29.3.3 0 0 0-.088-.057M32.436 2.481a.4.4 0 0 0 .296.399.265.265 0 0 0 .336-.171.43.43 0 0 0-.288-.459.3.3 0 0 0-.344.231M34.936 6.113a.23.23 0 0 0 .144.224q.044.018.092.019a.317.317 0 0 0 .296-.311c-.056-.048-.132-.156-.232-.191s-.288.095-.3.259M32.62 1.594l-.324-.123a.53.53 0 0 0 .324.123M35.164 4.422a.445.445 0 0 0-.472.311.47.47 0 0 0 .348.454c.152.024.336-.151.36-.342.032-.255-.044-.395-.236-.423M38.496 7.933a.44.44 0 0 0 .3.482c.136 0 .4-.259.4-.438a.36.36 0 0 0-.34-.322.365.365 0 0 0-.376.278zM39.072 9.566c-.048.028-.144.087-.112.143a.17.17 0 0 0 .164.076c.044 0 .16-.116.128-.171a.18.18 0 0 0-.18-.048M14.7 7.45a.255.255 0 0 0 .036-.343.264.264 0 0 0-.368-.032.204.204 0 0 0-.036.327.25.25 0 0 0 .368.048M16.96 4.005a.244.244 0 0 0 .052.358c.1.076.208.156.3.068.152-.167.172-.33.072-.43a.284.284 0 0 0-.424.004M16.188 1.701a.556.556 0 0 0 .8-.032.53.53 0 0 0 .092-.657 22 22 0 0 0-1.028.334.44.44 0 0 0 .136.355M12.128 7.697a.286.286 0 0 0 0 .399.264.264 0 0 0 .4 0 .274.274 0 0 0 0-.37.268.268 0 0 0-.4-.029M17.472 2.778a.44.44 0 0 0-.516 0 .374.374 0 0 0 .06.466.224.224 0 0 0 .332-.04c.184-.167.228-.327.124-.426M13.5 3.833a.35.35 0 0 0-.52.024.4.4 0 0 0-.06.534.51.51 0 0 0 .576 0 .35.35 0 0 0 .004-.558M12.672 2.845c.184.212.4.16.596.044.092.12.128.3.336.227a.244.244 0 0 0 .18-.263c0-.215-.2-.215-.36-.227 0-.055-.024-.111-.032-.167q-.372.18-.732.37zM12.596 4.949a.335.335 0 0 0-.479-.16.34.34 0 0 0-.129.136q-.144.238-.22.506a.52.52 0 0 0 .3.53c.112.048.4.056.4-.187-.14-.399.156-.399.148-.69a.4.4 0 0 0-.02-.135M13.812 5.929a.19.19 0 0 0 .053-.23.2.2 0 0 0-.053-.065.26.26 0 0 0-.236.032c-.048.04-.128.211-.076.279s.244.016.312-.016M14.728 5.427c-.132-.135-.316-.111-.488.06a.287.287 0 0 0-.056.398.56.56 0 0 0 .576.056.338.338 0 0 0-.032-.514M10.984 6.351a.09.09 0 0 0 0 .108h.096a.067.067 0 0 0 .01-.076.07.07 0 0 0-.114-.016zM32.612 7.61a.44.44 0 0 0-.14-.582.48.48 0 0 0-.692.14.397.397 0 0 0 .08.546.6.6 0 0 0 .752-.104M33.16 7.02a.286.286 0 0 0-.204-.287.33.33 0 0 0-.324.207.26.26 0 0 0 .204.279.29.29 0 0 0 .324-.2M31.472 4.517a.264.264 0 0 0-.15.325q.022.064.07.11a.34.34 0 0 0 .304.068.3.3 0 0 0 .16-.228.307.307 0 0 0-.384-.275M31.472 8.434c.192 0 .16-.179.22-.25a.398.398 0 0 0-.052-.606.4.4 0 0 0-.448.071.294.294 0 0 0-.056.399c.064.123.136.39.336.386M31.012 6.451c.076 0 .092-.267.056-.426a.4.4 0 0 0 .052.064.18.18 0 0 0 .128-.06c0-.052 0-.163-.064-.195s-.148.08-.144.107a.1.1 0 0 0-.024-.035c-.092-.072-.296.083-.332.282-.036.2.228.283.328.263"/><path fill="#fff" d="M37.828 9.695c.044-.036.096-.104.088-.148s-.124-.135-.168-.12c-.044.017-.056.152-.044.208s.108.072.124.06M32.492 4.583a.27.27 0 0 0-.372.044.274.274 0 0 0 .052.37.31.31 0 0 0 .4-.056.266.266 0 0 0-.08-.358M35.844 6.968a.285.285 0 0 0 .3-.26.286.286 0 0 0-.244-.282.3.3 0 0 0-.28.25.26.26 0 0 0 .224.292M37.796 11.602a.26.26 0 0 0 .148-.307.257.257 0 0 0-.344-.14.204.204 0 0 0-.14.295.25.25 0 0 0 .336.152M35.58 5.714c-.052-.04-.14 0-.172.036s-.06.175 0 .21c.06.037.18-.031.2-.07a.15.15 0 0 0-.028-.176M35.408 8.26a.73.73 0 0 0-.16-.766.506.506 0 0 0-.668.184.57.57 0 0 0 .144.681.514.514 0 0 0 .684-.1M33.344 5.916a.243.243 0 0 0 0-.343.3.3 0 0 0-.236-.08c-.156.02-.196.132-.188.423.152.052.284.167.424 0M38.112 8.98c.024-.155-.184-.219-.276-.266s-.212.047-.236.179c-.024.131.032.243.172.235s.316.012.34-.147M26.12 5.295c.084-.12 0-.398-.172-.51a.32.32 0 0 0-.456.056.43.43 0 0 0 .064.562.46.46 0 0 0 .564-.108M30.452.95a.26.26 0 0 0 .216.067.3.3 0 0 0 .124-.04q-.6-.173-1.2-.323a.397.397 0 0 0 .116.554c.135.09.3.125.46.096l.056.036c.044 0 .188 0 .196-.084a.11.11 0 0 0-.036-.08s.024 0 .032-.032a.4.4 0 0 0 .036-.195M31.336 3.435a.4.4 0 0 0 .032-.068q.032.079.092.14a.6.6 0 0 0-.048.187.356.356 0 0 0 .196.39q.073.034.152.036a.4.4 0 0 0 .4-.319l.056.028a.34.34 0 0 0 .564-.068q.023.046.068.072a.3.3 0 0 0 .352-.151.307.307 0 0 0-.064-.435.265.265 0 0 0-.356.112.55.55 0 0 0-.212-.147.48.48 0 0 1-.296-.208c-.104-.183-.3-.203-.484-.223a.47.47 0 0 0-.4.307.2.2 0 0 0 0 .048.45.45 0 0 0-.184-.275c-.144-.084-.328 0-.456.187a.4.4 0 0 0 .036.47.485.485 0 0 0 .552-.083M32.612 5.781c.116 0 .224-.047.208-.17s-.072-.332-.168-.336-.208.196-.248.283c-.04.088.088.22.208.223M30.036 2.561a.57.57 0 0 0 .732-.044.584.584 0 0 0-.148-.717.554.554 0 0 0-.676.175.43.43 0 0 0 .092.586M29.028 1.044a.5.5 0 0 0 .048-.136c.192.064.296-.052.4-.203l-.004-.06a17 17 0 0 0-1.164-.239.4.4 0 0 0-.096.092.496.496 0 0 0 .52.729.5.5 0 0 0 .312-.183zM44.82 27.1a.28.28 0 0 0 .34-.14.28.28 0 0 0-.092-.354.28.28 0 0 0-.36.104.31.31 0 0 0 .112.39M25.516 5.669a.15.15 0 0 0-.205-.054.15.15 0 0 0-.055.054c-.056.067-.136.275-.08.322.056.048.256 0 .336-.031.08-.032.096-.18.004-.291M44.864 26.352a.303.303 0 0 0 .22-.399.267.267 0 0 0-.347-.104.3.3 0 0 0-.101.084.37.37 0 0 0-.024.311.3.3 0 0 0 .252.108M45.012 28.558a.26.26 0 0 0 .4-.095.54.54 0 0 0-.116-.53.36.36 0 0 0-.488.187c-.096.148-.004.33.204.438M42.908 20.484c.02-.032 0-.052-.032-.088s-.076 0-.092.028 0 .076 0 .076.1.02.124-.016M43.636 25.703c.06-.1-.124-.283-.328-.287s-.244.263-.212.363.484.023.54-.076M45.5 32.735c.14-.068.1-.028.232.063.132.092.372.144.452-.131a.525.525 0 0 0-.36-.606.633.633 0 0 0-.712.45c-.04.216.244.287.388.224M43.096 18.177a.43.43 0 0 0-.548-.16.406.406 0 1 0 .372.721.4.4 0 0 0 .176-.561M37.932 7.467c.048 0 .16-.1.124-.168a.2.2 0 0 0-.2-.06.18.18 0 0 0-.068.156.15.15 0 0 0 .144.072M42.496 26.634a.4.4 0 0 0-.532.16.6.6 0 0 0 .212.724.45.45 0 0 0 .56-.219.48.48 0 0 0-.24-.665M47.196 27.946c-.088.195-.036.426.104.482.09.025.187.018.272-.02.04-.22.08-.438.116-.662a.333.333 0 0 0-.492.2M41.072 27.889a.19.19 0 0 0-.168-.104.19.19 0 0 0-.124.155c0 .044.088.172.168.172s.152-.175.124-.223M46.74 30.993c-.032.148-.084.291-.124.434a.218.218 0 0 0 .048.351c.112-.327.224-.653.324-.984a.23.23 0 0 0-.248.2M47.008 24.252A.59.59 0 0 0 47.7 24a.544.544 0 0 0-.272-.638.434.434 0 0 0-.572.172.57.57 0 0 0 .152.717M24.088 4.505a.3.3 0 0 0-.24.056c-.08.076 0 .279.104.307a.4.4 0 0 0 .196-.028c.088-.16.052-.31-.06-.335M46.112 29.148c-.116-.04-.168.032-.208.116a.17.17 0 0 0 .031.23q.034.028.077.037a.9.9 0 0 0 .244-.036.253.253 0 0 0-.144-.347M38.72 15.515a.15.15 0 0 0 .127-.172.15.15 0 0 0-.031-.071c-.044-.072-.208-.223-.272-.191-.064.031-.1.235-.096.322s.136.16.272.112M41.928 30.368a.76.76 0 0 0 .736-.267.5.5 0 0 0-.276-.634.56.56 0 0 0-.652.24.51.51 0 0 0 .192.66M39.912 12.864a.2.2 0 0 0 .088-.147.147.147 0 0 0-.168-.12c-.104.028-.056.156-.044.208s.104.075.124.06M38.416 12.415a.3.3 0 0 0 .22-.124c.092-.183-.02-.303-.204-.398-.14.087-.304.139-.264.334a.223.223 0 0 0 .248.188M38.46 6.498a.5.5 0 0 0-.072-.247c.152 0 .236-.072.256-.2a.27.27 0 0 0-.088-.232.28.28 0 0 0-.24-.066c-.18.028-.244-.08-.352-.18a1 1 0 0 0 .096-.14.2.2 0 0 0 .084-.023 1 1 0 0 0 .024.08.29.29 0 0 0 .32.131c.12-.048.124-.263.1-.374a.46.46 0 0 0-.336-.231c0-.072.028-.068.116-.16a.2.2 0 0 0 .048-.064c-.168-.127-.344-.247-.52-.37a.65.65 0 0 0-.248.239.3.3 0 0 0-.036.151c-.132 0-.212.092-.24.263a.395.395 0 0 0 .093.442.4.4 0 0 0 .135.084q-.13.06-.272.088a.25.25 0 0 0-.272.211.35.35 0 0 0 .104.398c.432.331.592.32.98-.055l.032-.024a.7.7 0 0 0-.116.175.16.16 0 0 0 .053.212.2.2 0 0 0 .075.027.2.2 0 0 0 .276-.135M40.148 17.123c.044 0 .148-.115.128-.171s-.168-.076-.208-.056-.108.096-.084.16a.15.15 0 0 0 .164.067M38.216 9.032a.08.08 0 0 0 .05-.07q0-.015-.006-.03a.09.09 0 0 0-.104-.032.1.1 0 0 0-.024.096s.052.052.084.036M38.936 9.25a.42.42 0 0 0 .172-.422.264.264 0 0 0-.356-.103.25.25 0 0 0-.104.354c.068.156.188.224.288.172M41.62 14.723a.45.45 0 0 0 .108-.558c-.088-.188-.268-.227-.5-.112a.36.36 0 0 0-.16.399c.072.163.432.334.552.27M41.428 23.113c.236.067.368-.263.3-.359s-.364-.128-.432 0c-.068.127-.1.295.132.359M40.3 21.763a.14.14 0 0 0 .162-.018.14.14 0 0 0 .034-.046c.04-.104-.072-.152-.116-.172a.17.17 0 0 0-.144.076.18.18 0 0 0 .064.16M41.144 15.702c-.056-.076-.232-.24-.324-.2s-.06.287-.032.375a.156.156 0 0 0 .252.071c.1-.06.176-.163.104-.247M40.792 13.044c.04-.155-.124-.334-.36-.398a.305.305 0 0 0-.32.215.374.374 0 0 0 .224.398.43.43 0 0 0 .456-.215M40.712 25.2a.25.25 0 0 0 .224-.072.16.16 0 0 0 .028-.146.16.16 0 0 0-.104-.108c-.068-.024-.256-.06-.316.087-.06.148.128.22.168.24M42.42 14.216c-.024-.06-.196-.164-.264-.132a.31.31 0 0 0-.056.283c.064.056.212.131.264.088a.27.27 0 0 0 .056-.24M44.272 23.157a.18.18 0 0 0-.124-.267.32.32 0 0 0-.256.047c-.052.052-.044.303.064.351a.245.245 0 0 0 .316-.131M46.232 22.956a.27.27 0 0 0 .152-.319.236.236 0 0 0-.304-.15.268.268 0 0 0-.103.398.23.23 0 0 0 .255.071M46.712 19.256a.23.23 0 0 0-.096-.327.256.256 0 0 0-.352.112.28.28 0 0 0 .128.35.257.257 0 0 0 .32-.135M44.06 20.965a.32.32 0 0 0-.12-.447.48.48 0 0 0-.496.076c-.024-.052-.064-.127-.14-.111s-.084.143-.072.163a.21.21 0 0 0 .148.084.45.45 0 0 0 .196.474c.136.067.392-.06.484-.24M43.136 13.679a.27.27 0 0 0-.16-.311.205.205 0 0 0-.276.047c-.128.16-.056.295.044.45.176-.02.348.009.392-.187M43.016 15.248c-.04-.028-.184-.036-.212.02s.056.171.1.187a.144.144 0 0 0 .172-.043.14.14 0 0 0-.06-.164M43.12 17.163a.25.25 0 0 0 .196-.315.42.42 0 0 0-.48-.247.29.29 0 0 0-.18.363.375.375 0 0 0 .464.2M46.672 22.459c.12.056.324-.064.4-.235a.334.334 0 0 0-.096-.454.426.426 0 0 0-.504.12.46.46 0 0 0 .2.569M14.768 3.387a.354.354 0 0 0 .06-.466.283.283 0 0 0-.4-.044.4.4 0 0 0 0 .51.236.236 0 0 0 .34 0M10.196 4.368v-.02l-.108.075a.25.25 0 0 0 .108-.055M42.508 12.777a.5.5 0 0 0 .572-.203.4.4 0 0 0 .3-.171q.091-.15.148-.315.086-.01.168-.032l.092-.043a.6.6 0 0 0 .168 0 .27.27 0 0 0-.072.19c0 .152-.34.084-.332.296.008.21-.236.302-.2.557s.236.478.44.37a.85.85 0 0 0 .368-.457.217.217 0 0 0 .344-.124.22.22 0 0 0-.137-.22.2.2 0 0 0-.091-.015c.192-.048.568-.2.432-.538a.444.444 0 0 0-.484-.227.49.49 0 0 0 0-.446.45.45 0 0 0-.344-.22 1 1 0 0 0-.112-.087.32.32 0 0 0-.228-.028.484.484 0 0 0-.348.586c0 .052.024.107.032.167-.108 0-.212.028-.312.056h-.032c-.156-.048-.4.096-.528.287a.465.465 0 0 0 .156.617M14.96 4.63a.26.26 0 0 0-.368.052.22.22 0 0 0 0 .33.29.29 0 0 0 .376 0 .27.27 0 0 0-.008-.382M10.784 8.256a.232.232 0 0 0 .048-.351.22.22 0 0 0-.204-.04c-.064.036-.148.128-.144.191.004.16.212.227.3.2M47.812 25.303q.07.03.144.048l.024-.581a.54.54 0 0 0-.272.219.22.22 0 0 0 .029.26.2.2 0 0 0 .075.054M10.484 5.78a.373.373 0 0 0-.068-.497.35.35 0 0 0-.524.024.34.34 0 0 0-.052.486.52.52 0 0 0 .644-.012M42.58 24.726c0-.115-.332-.279-.44-.167a.27.27 0 0 0 0 .342c.132.104.444-.06.44-.175M41.872 9.737a.45.45 0 0 0-.116-.342.25.25 0 0 0 .12-.243c0-.18-.176-.216-.336-.263-.112.127-.256.239-.14.398a.2.2 0 0 0 .04.04.6.6 0 0 0-.268.398.26.26 0 0 0 .153.245.3.3 0 0 0 .099.022c.22.04.42-.08.448-.255M42.028 11.928a.27.27 0 0 0 .184-.163c.04-.18-.108-.22-.24-.267-.14.088-.22.2-.136.347a.22.22 0 0 0 .192.083M41.736 11.08a.12.12 0 0 0-.001-.152.1.1 0 0 0-.043-.035.27.27 0 0 0-.224.04c-.068.032-.144.052-.18.128s.052.167.168.163a.4.4 0 0 0 .28-.143M40.672 9.774c-.068.056-.148.12-.136.203s.24.188.356.128.084-.148.048-.235a.167.167 0 0 0-.191-.13.2.2 0 0 0-.077.034M41.2 12.725a.48.48 0 0 0 .212-.67.43.43 0 0 0-.584-.255.54.54 0 0 0-.28.662.57.57 0 0 0 .652.263M41.692 15.527a.264.264 0 0 0 .36.167.295.295 0 0 0 .144-.35.31.31 0 0 0-.4-.132.24.24 0 0 0-.104.315M40.74 11.096a.21.21 0 0 0 .167-.2.2.2 0 0 0-.019-.091.23.23 0 0 0-.28-.136c-.108.024-.204.295-.124.367a.28.28 0 0 0 .256.06"/><path fill="#fff" d="M25.192 6.485a.24.24 0 0 0 .236-.175.33.33 0 0 0 .04-.223c-.12 0-.316-.147-.4-.04-.084.108.036.291.052.399zM41.96 22.399c.044.031.196.08.26-.02s-.072-.207-.12-.227-.168-.044-.208.043a.163.163 0 0 0 .068.204M15.624 1.74a.32.32 0 0 0 0-.23c-.4.143-.8.303-1.168.47a.7.7 0 0 0 .324.215.92.92 0 0 0 .844-.454M42.672 20.26c0-.123.1-.334 0-.398s-.284.08-.4.111v.084a.24.24 0 0 0 .204.207.35.35 0 0 0 .196-.004M41.412 18.1a.23.23 0 0 0 .104.32c.156.067.4 0 .44-.092s-.084-.307-.204-.366a.25.25 0 0 0-.34.139M42.316 20.827a.27.27 0 0 0-.16-.311.2.2 0 0 0-.276.048c-.128.155-.06.294.044.45.172-.02.348.008.392-.187M40.644 11.332a.42.42 0 0 0 .328.426q.288.061.36-.314c.032-.168-.08-.399-.208-.427a.465.465 0 0 0-.48.315M41.892 16.387c-.024 0-.032.075 0 .095a.08.08 0 0 0 .084.04.08.08 0 0 0 .04-.104.09.09 0 0 0-.124-.031M22.176 8.323a.26.26 0 0 0 .077-.283.3.3 0 0 0-.053-.088.27.27 0 0 0-.344-.024.26.26 0 0 0-.06.286q.023.048.06.085a.207.207 0 0 0 .32.024M21.58 3.155a.49.49 0 0 0-.496-.458c-.276.028-.264.745 0 .817a.48.48 0 0 0 .496-.359M23.184 4.913c0-.048 0-.16-.08-.211a.31.31 0 0 0-.436 0 .31.31 0 0 0 .056.398c.108.084.32.008.46-.187M15.78 6.789a.354.354 0 0 0 .06-.466.51.51 0 0 0-.64 0 .32.32 0 0 0 .056.43.347.347 0 0 0 .524.036M23.144 7.02a.23.23 0 0 0 .332-.06c.088-.14.072-.398-.028-.442s-.316.036-.4.148a.242.242 0 0 0 .096.354M24.816 3.75a.65.65 0 0 0 .284-.132.151.151 0 0 0-.024-.26.22.22 0 0 0-.208-.055.34.34 0 0 0-.112-.124.33.33 0 0 0-.4.068c-.144.215-.144.466 0 .558a.45.45 0 0 0 .46-.056M24.444 2.908a.264.264 0 0 0 .086-.305.3.3 0 0 0-.062-.094.297.297 0 0 0-.4 0 .31.31 0 0 0 0 .399.244.244 0 0 0 .376 0M25.104 4.773a.168.168 0 0 0 .256-.095c.028-.076.096-.291 0-.339s-.292.072-.34.144a.198.198 0 0 0 .084.29M23.628 4.007c-.096-.08-.192 0-.248.096-.056.095-.036.263.072.283s.272.083.324-.056c.052-.14-.076-.267-.148-.323M23.688 8.326c.048-.028.128-.215.08-.267-.048-.051-.232-.02-.26 0s-.088.184-.056.235a.24.24 0 0 0 .236.032M23.844 1.864a.59.59 0 0 0-.72.131c-.16.208-.068.506.212.71a.433.433 0 0 0 .608-.092.564.564 0 0 0-.1-.749M16.74 6.81a.297.297 0 0 0-.4 0 .31.31 0 0 0 0 .398.245.245 0 0 0 .34 0 .263.263 0 0 0 .06-.398M16.704 8.216a.156.156 0 0 0 0-.259c-.092-.08-.192-.135-.308-.04-.116.096-.048.347.036.38.084.031.192-.045.272-.08M20.952 2.283c.184-.08.368.108.592-.02.224-.127.364-.398.188-.541a.9.9 0 0 0-.584-.176c-.052-.004-.392.821-.196.737M19.228.992a.37.37 0 0 0-.104-.251L19.088.7a.19.19 0 0 0-.044-.187q-.361.077-.716.167h.024c.216.064.192.255.228.418.036.164.736-.12.648-.107"/><path fill="#7DE2D1" d="M18.12 40.261H9.96v-1.992h8.16a.85.85 0 0 0 .844-.84V22.136h2v15.291a2.83 2.83 0 0 1-.834 2.002 2.85 2.85 0 0 1-2.01.831M25.136 25.18h-2v20.618h2zM36.952 35.029H30.08a2.86 2.86 0 0 1-2.013-.832 2.84 2.84 0 0 1-.835-2.005V18.697h2v13.495a.843.843 0 0 0 .848.844h6.872z"/><path fill="#20377D" d="M30.02.95h-4.06v9.235h4.06zM21.4.95h-4.06v9.235h4.06z"/><path fill="#7DE2D1" d="M12.444 10.219H35.2v6.215a11.3 11.3 0 0 1-3.334 8.017 11.41 11.41 0 0 1-8.05 3.315 11.4 11.4 0 0 1-8.041-3.318 11.3 11.3 0 0 1-3.331-8.01z"/><path fill="#42D4C6" d="M19.472 26.11a.493.493 0 0 0-.552.354c-.01.068 0 .138.032.2.192.095.4.179.592.258a.56.56 0 0 0 .228-.37.374.374 0 0 0-.3-.442M18.528 23.753a.22.22 0 0 0-.251.004.2.2 0 0 0-.061.064.24.24 0 0 0-.004.272.23.23 0 0 0 .257.093.24.24 0 0 0 .147-.118.26.26 0 0 0-.088-.315"/><path fill="#42D4C6" d="M18.272 25.081c-.424.22-.476.347-.32.797a.1.1 0 0 0 0 .036.6.6 0 0 0-.096-.155.144.144 0 0 0-.236 0 .23.23 0 0 0-.048.1q.352.234.72.441a.2.2 0 0 0-.036-.08.1.1 0 0 0 0-.035c.048-.148.156-.16.276-.211.144.322.352.378.588.187a.5.5 0 0 0 .064-.064.235.235 0 0 0-.04-.398 1 1 0 0 0-.176-.1.1.1 0 0 0 0-.052.238.238 0 0 0-.28-.259.23.23 0 0 0-.092-.151.31.31 0 0 0-.324-.056M15.572 20.39h-.116a.18.18 0 0 0 0 .152.13.13 0 0 0 .18 0c.068-.048-.028-.12-.064-.151M16.096 20.737c-.24-.036-.4.044-.436.2 0 .089.037.175.1.238l-.036.028a.126.126 0 0 0-.002.163.1.1 0 0 0 .046.036.124.124 0 0 0 .184-.06.14.14 0 0 0 0-.055.46.46 0 0 0 .304-.319.187.187 0 0 0-.16-.231M15.272 21.674a.56.56 0 0 0 .276.103.4.4 0 0 0-.08.168.3.3 0 0 0 0 .107c-.028.028-.06.16 0 .183a.1.1 0 0 0 .092 0c.064.1.165.17.28.195a.357.357 0 0 0 .4-.298c.036-.275-.104-.51-.316-.53a.33.33 0 0 0-.172.028.22.22 0 0 0-.028-.195.236.236 0 0 0-.28-.12c-.16.048-.148.203-.172.358M15.872 23.06a.45.45 0 0 0 .364.506.4.4 0 0 0 .448-.366c.032-.275-.092-.458-.324-.486a.45.45 0 0 0-.488.346M17.576 22.191a.4.4 0 0 0-.04-.514.27.27 0 0 0-.228 0 .4.4 0 0 0-.272-.27.51.51 0 0 0-.512.398.47.47 0 0 0 .4.462.4.4 0 0 0 .272-.064 1 1 0 0 0 .052.048c.132.076.248.06.328-.06M20.828 27.34l.176.052a.22.22 0 0 0-.144-.056zM19.048 24.363c-.16-.032-.36.044-.4.163-.06.235.16.367.276.43a.13.13 0 0 0 .108 0 .29.29 0 0 0 .132.244.19.19 0 0 0 .264-.048.234.234 0 0 0 .036-.303.26.26 0 0 0-.256-.108.4.4 0 0 0 .028-.143.23.23 0 0 0-.188-.235M21.136 26.773a.25.25 0 0 0-.196.1.22.22 0 0 0 .064.299.265.265 0 0 0 .348-.088c.06-.072-.04-.299-.216-.31M14.916 21.51a.192.192 0 0 0 .236-.243.205.205 0 0 0-.348 0 .21.21 0 0 0 .112.243M17.38 24.045a.45.45 0 0 0-.148-.605.46.46 0 0 0-.536.143.366.366 0 0 0 .1.478.36.36 0 0 0-.32.132c-.112.18.068.247.108.366a.287.287 0 0 0 .328.207c.164-.031.304-.139.4-.123h.032a.31.31 0 0 0 .1.275.37.37 0 0 0 .312.27c.256.06.504-.178.432-.354-.072-.175-.192-.187-.168-.25.024-.064.152-.172.092-.288s-.448-.087-.504-.051-.156.187-.256.1a1 1 0 0 1-.132-.172.34.34 0 0 0 .16-.128M15.832 24.462l.268.255c.076-.06.04-.183-.056-.25-.096-.069-.172-.06-.212-.005"/><path fill="#42D4C6" d="M20.052 27.022a.3.3 0 0 0-.028.08q.24.084.48.159.046.024.096.04c.124 0 .284-.136.304-.283a.33.33 0 0 0-.304-.399c-.18 0-.352.096-.36.231v.06a.25.25 0 0 0-.188.112M17.272 25.268a.43.43 0 0 0-.332.163q.251.186.508.366a.5.5 0 0 0 .04-.159c.02-.18-.084-.359-.216-.37M17.764 22.815c-.116 0-.256.135-.284.302a.29.29 0 0 0 .196.35.37.37 0 0 0 .4-.226.397.397 0 0 0-.312-.427M12.504 16.623c0 .223 0 .438.028.657a.49.49 0 0 0 .144-.398.4.4 0 0 0-.172-.259M18.512 22.536a.225.225 0 0 0-.252.171.22.22 0 0 0 .1.287.35.35 0 0 0 .4-.128.326.326 0 0 0-.248-.33M18.344 21.283c-.188 0-.328.072-.336.211a.45.45 0 0 0 .344.435.336.336 0 0 0 .284-.303.29.29 0 0 0-.292-.343M19.472 19.347c0 .096.176.203.348.155.172-.047.132-.282.084-.354s-.432.1-.432.2M16.764 15.546a.244.244 0 0 0-.124.346.223.223 0 0 0 .208.231.12.12 0 0 0 .08-.024.49.49 0 0 0 .224-.442c-.056-.16-.2-.2-.388-.111M16.32 16.857a.22.22 0 0 0 .123.229.2.2 0 0 0 .089.022c.108 0 .128-.071.144-.151s-.056-.211-.16-.191a.8.8 0 0 0-.196.091M16.124 13.973c-.1.092-.08.048-.212 0s-.344-.024-.34.223a.46.46 0 0 0 .456.399.545.545 0 0 0 .472-.558c-.028-.164-.272-.155-.376-.064M16.484 14.558a.27.27 0 0 0-.22.02.21.21 0 0 0-.048.183q.044.17.116.331c.04.096.112.108.212.06 0-.028.044-.072.032-.1a.5.5 0 0 1 .028-.315c.012-.047-.06-.147-.12-.179M19.816 21.435a.2.2 0 0 0-.153.046.2.2 0 0 0-.075.14.16.16 0 0 0 .095.184q.035.015.073.012a.3.3 0 0 0 .204-.107c.032-.056-.044-.26-.144-.275M21.676 27.514h-.068q.263.054.532.096a.67.67 0 0 0-.464-.096M19.92 23.838a.397.397 0 0 0 .436.474.08.08 0 0 0-.028.06c0 .1.168.199.24.211s.184-.064.192-.183c.008-.12-.08-.168-.168-.164a1 1 0 0 0-.164.032.3.3 0 0 0 .052-.052.4.4 0 0 0-.072-.486.4.4 0 0 0-.488.108M15.776 20.415a.27.27 0 0 0 .24.259.23.23 0 0 0 .248-.203.246.246 0 0 0-.216-.271.26.26 0 0 0-.272.215M20.56 21.428c0-.072-.068-.136-.088-.171-.168-.028-.288.035-.268.127.016.09.066.17.14.223.08.048.224-.075.216-.18M19.912 22.375a.4.4 0 0 0-.596.087c-.2.267.104.422-.08.538s-.212-.104-.464.076-.244.506-.04.585a.4.4 0 0 0 .208 0 .32.32 0 0 0 .144.176q.099-.036.192-.084a.15.15 0 0 0 .16 0c.292-.219.028-.43.096-.522.068-.091.284-.167.4-.295a.362.362 0 0 0-.02-.561M19.472 21.639a.28.28 0 0 0-.04-.33.224.224 0 0 0-.296.056.25.25 0 0 0 .04.326.245.245 0 0 0 .296-.052M20.024 20.205c-.048.044 0 .151.04.171a.15.15 0 0 0 .156 0c.04-.032 0-.123 0-.155s-.152-.052-.196-.016M12.5 15.207v.462c.104-.107.084-.223 0-.442.012-.008.004-.012 0-.02M26.308 25.746a.38.38 0 0 0 .544-.1.47.47 0 0 0-.116-.613.5.5 0 0 0-.6.127.397.397 0 0 0 .172.586M26.272 24.595c.048-.04 0-.136-.04-.172a.11.11 0 0 0-.128 0c-.032.028 0 .112 0 .152s.132.063.168.02M26.904 22.161c.032-.056-.04-.219-.088-.279s-.176-.048-.252.048a.14.14 0 0 0-.036.126.14.14 0 0 0 .088.097c.056.044.256.076.288.008M24.728 22.981c.076.028.28.06.332 0s-.1-.235-.164-.287-.168-.035-.216.072c-.048.108-.056.192.048.215M24.92 21.598c.02-.036.028-.123 0-.155s-.124 0-.152.032-.052.151 0 .183.132-.028.152-.06M30.164 25.695a.14.14 0 0 0-.12 0v.148h.024l.14-.096a1 1 0 0 0-.044-.052M27.072 27.275q.46-.139.9-.31a.16.16 0 0 0 0-.156c-.032-.036-.136-.028-.22 0a.49.49 0 0 0-.544.12.36.36 0 0 0-.136.346M27.564 26.353c.064-.072 0-.311-.088-.323a.24.24 0 0 0-.258.148.18.18 0 0 0 .078.21.2.2 0 0 0 .268-.035M14.272 10.976c.124 0 .188-.275.092-.45h-.468a.24.24 0 0 0-.08.223c.056.255.328.255.456.227M18.524 11.946a.12.12 0 0 0 .052-.12c0-.04-.1-.048-.148-.044s-.1.076-.08.136.136.04.176.027M13.224 10.846c-.112-.064-.432.155-.46.21-.028.057-.04.24-.172.216a.4.4 0 0 1-.092-.028v.558c.088-.1.144-.215.212-.24.068-.023.18-.031.212.092.032.124.2.24.452.16s.344-.399.188-.53c-.156-.132-.26-.056-.272-.128-.012-.071.04-.243-.068-.31M18.364 17.862c.072.115.18.103.4 0 0-.132.028-.287-.156-.335a.217.217 0 0 0-.272.131.26.26 0 0 0 .028.203M23.872 22.846s0-.068-.032-.076a.064.064 0 0 0-.08 0 .07.07 0 0 0 0 .096.076.076 0 0 0 .112-.02M32.884 23.112a.244.244 0 0 0-.136.295q.127-.164.248-.33a.2.2 0 0 0-.112.035M23.444 25.14a.48.48 0 0 0 .124.43c.104.076.22.033.316-.119.096-.151.104-.287 0-.366s-.364-.084-.44.055M18.976 11.59c.04 0 .132-.095.112-.147s-.144-.064-.18-.048a.13.13 0 0 0-.072.14.124.124 0 0 0 .14.056M18.84 14.59c.06.025.18-.075.268-.13a.1.1 0 0 0 .05-.058.1.1 0 0 0-.01-.074.28.28 0 0 0-.344-.076.21.21 0 0 0-.037.272q.028.042.073.067M14.428 16.292c.032.044.12 0 .16-.024a.13.13 0 0 0 0-.16.116.116 0 0 0-.148 0 .16.16 0 0 0-.012.184"/><path fill="#42D4C6" d="M21.288 25.479q-.287.012-.564.084a.62.62 0 0 0-.464-.263.4.4 0 0 0-.304-.34c-.124 0-.312.16-.324.304a.28.28 0 0 0 .196.27h.064a.62.62 0 0 0 0 .566.23.23 0 0 1-.024.255.27.27 0 0 0 .144.351c.132.056.2 0 .252-.116a.6.6 0 0 1 .132-.223c.152-.111.32-.203.488-.31.292.207.448.243.576.075a.26.26 0 0 0 .168.2.24.24 0 0 0 .128-.02.4.4 0 0 0 .28.159q.34.023.668.107c.176.052.4 0 .448-.131a.266.266 0 0 0-.188-.263c-.168 0-.172-.127-.24-.215a.7.7 0 0 0-.272-.163.5.5 0 0 0-.204-.024 1 1 0 0 0-.208 0 .4.4 0 0 0-.276.115.5.5 0 0 0-.164-.06.298.298 0 0 0-.312-.358M22.512 24.232c-.084-.127-.156-.267-.336-.175a.24.24 0 0 0-.14.27c0 .045.048.108.084.12q.17.037.344.052c.148.24.344.347.488.26a.46.46 0 0 0 .112-.543c-.096-.171-.208-.171-.552.016M22.752 25.052c0 .088.144.235.26.255a.22.22 0 0 0 .225-.116.2.2 0 0 0 .023-.087.2.2 0 0 0-.168-.239c-.144-.016-.332.084-.34.187"/><path fill="#42D4C6" d="M20.928 25.296a.25.25 0 0 0 .132.167c.088.036.224-.091.204-.195a.2.2 0 0 0-.064-.107.2.2 0 0 0 .072 0c.144 0 .184-.132.164-.28-.1-.06-.212-.139-.316-.023a.26.26 0 0 0 0 .219l.032.036c-.152.016-.248.091-.224.183M28.624 26.646a.363.363 0 0 0 0-.558.4.4 0 0 0-.52-.044.445.445 0 0 0 .056.598.3.3 0 0 0 .36.082.3.3 0 0 0 .104-.078M12.784 17.53a.4.4 0 0 0-.248-.235q.05.745.2 1.478a1 1 0 0 1 .044-.048c.4-.275.244-.601 0-.829a1 1 0 0 0-.1-.067.37.37 0 0 0 .104-.299M14.072 15.344c.084 0 .272-.04.284-.156s-.14-.167-.208-.19a.15.15 0 0 0-.212.095c-.032.107.04.259.136.25M20.808 20.423a.2.2 0 0 0-.148 0v.124c0 .012.12.076.176 0s-.008-.116-.028-.124M21.944 25.64a.29.29 0 0 0 .356-.029c.14-.187.156-.398.032-.486a.4.4 0 0 0-.468.084.34.34 0 0 0 .08.43M14.544 22.13c-.036-.12-.272-.156-.332-.037-.06.12.056.271.216.275.08.004.144-.143.116-.239M14.472 13.535c-.06 0-.112.088-.128.132-.016.043.024.1.068.1a.15.15 0 0 0 .132-.072c.012-.032-.016-.152-.072-.16M14.18 14.617a.172.172 0 0 0 .032-.259c-.112-.151-.232-.219-.312-.167a.4.4 0 0 0-.076.398.32.32 0 0 0 .356.028M13.948 17.064c0 .064.052.087.116.068.064-.02.088-.052.068-.12a.079.079 0 0 0-.075-.07.1.1 0 0 0-.037.006c-.064.032-.092.032-.072.116M16.992 18.335a4 4 0 0 0-.296-.319.152.152 0 0 0-.252.124c0 .155 0 .334.14.466v.048a.223.223 0 0 0 .22.235.43.43 0 0 0-.036.223.44.44 0 0 1-.056.31.47.47 0 0 0 0 .459.4.4 0 0 0 .4.219h.044a.4.4 0 0 0-.148.243c0 .143.112.259.316.287a.37.37 0 0 0 .28-.088.2.2 0 0 0 .256-.056.23.23 0 0 0-.048-.298.22.22 0 0 0-.212-.028.33.33 0 0 0-.196-.148h-.064a.45.45 0 0 0 .096-.167.72.72 0 0 0-.04-.494.34.34 0 0 1 0-.187c.048-.18 0-.307-.128-.37a.21.21 0 0 0 .068-.212c-.048-.191-.116-.24-.344-.247"/><path fill="#42D4C6" d="M14.048 18.55a.3.3 0 0 0 .144.036.14.14 0 0 0 .124.124c.136.028.196-.024.22-.08a.2.2 0 0 0 .14.096.24.24 0 0 0 .228-.14.244.244 0 0 0 .228-.27.35.35 0 0 0-.4-.303h-.068a.5.5 0 0 0-.148-.188h-.024a.4.4 0 0 0 .256-.354.5.5 0 0 0 0-.195.18.18 0 0 0 .16 0 .3.3 0 0 0 .08-.419.4.4 0 0 0-.4-.147.29.29 0 0 0-.196.306.425.425 0 0 0-.432.327.43.43 0 0 0 .172.43.35.35 0 0 0-.208.18.437.437 0 0 0 .124.598M19.404 19.905a.26.26 0 0 0-.304-.195c-.112 0-.352-.032-.4.124-.048.155.08.195.112.267a.3.3 0 0 0 .088.111.47.47 0 0 0-.168.307c0 .104.028.187.128.211a1.3 1.3 0 0 0 .76 0 .7.7 0 0 0 .1-.072.29.29 0 0 0-.156-.502c-.048 0-.096 0-.144-.02a.37.37 0 0 0-.016-.23M20.64 23.078a.1.1 0 0 0-.104.031.43.43 0 0 0-.208.287.28.28 0 0 0 .212.339c.188.024.4-.108.4-.26a.4.4 0 0 0-.292-.398zM15.532 23.753a.2.2 0 0 0 .168-.087c.076-.092.036-.188-.028-.275s-.132-.196-.204-.287c-.072-.092-.152-.215-.316-.191a.18.18 0 0 1-.12-.056 1 1 0 0 0-.148-.12.15.15 0 0 0-.072-.175c-.076-.052-.188-.076-.232.028a.3.3 0 0 0 0 .183 1 1 0 0 0-.084.072q.408.585.884 1.12a.6.6 0 0 0 .152-.212M21.348 23.894a.55.55 0 0 0 .4.052h.024c.12.036.216-.135.304-.191v-.104a.44.44 0 0 0-.164-.422.43.43 0 0 0-.568.076.434.434 0 0 0 .004.59M20.352 21.714c-.044.088-.044.191.056.227s.288.064.328 0-.076-.235-.132-.299c-.056-.063-.204-.024-.252.072M23.82 27.739h.184c-.08-.072-.24 0-.34 0zM21.072 16.666c-.064 0-.068.18-.048.22a.17.17 0 0 0 .168.04.17.17 0 0 0 .064-.164c-.004-.036-.116-.12-.184-.096M20.22 17.467a.4.4 0 0 0-.397.493.42.42 0 0 0 .361.324.336.336 0 0 0 .4-.267c.028-.24-.168-.538-.364-.55M19.696 15.037a.64.64 0 0 0-.54.398.43.43 0 0 0 .4.455.49.49 0 0 0 .484-.363.436.436 0 0 0-.344-.49M18.128 18.482a.23.23 0 0 0-.252.2.23.23 0 0 0 .168.274.24.24 0 0 0 .276-.175.266.266 0 0 0-.192-.3M18.204 19.519a.232.232 0 0 0 .376-.1.3.3 0 0 0-.06-.263.27.27 0 0 0-.24-.04.27.27 0 0 0-.076.403M23.248 21.762c-.036 0-.14 0-.148.103-.008.104.1.108.14.112s.104-.064.104-.1-.056-.115-.096-.115M22.588 22.881a.225.225 0 0 0-.051.25q.019.041.051.073a.38.38 0 0 0 .468-.056.263.263 0 0 0-.048-.35.325.325 0 0 0-.42.083M17.992 15.388a.18.18 0 0 0-.142.15.18.18 0 0 0 .046.143.2.2 0 0 0 .224.054.176.176 0 0 0 .088-.247.16.16 0 0 0-.216-.1M22.432 21.543a.314.314 0 0 0-.464.111.365.365 0 0 0 .148.494.4.4 0 0 0 .472-.155.31.31 0 0 0-.156-.45M22.948 27.289c-.116-.088-.324 0-.436.159a.22.22 0 0 0-.04.223q.282.035.564.052a.55.55 0 0 0-.088-.434M21.572 19.527c-.112.1-.252.164-.188.323a.23.23 0 0 0 .268.147.173.173 0 0 0 .172-.167c.02-.175-.1-.239-.252-.303M21.708 21.67c-.048 0-.184 0-.216.08s.116.155.164.159.144 0 .16-.092a.14.14 0 0 0-.108-.147M21.808 21.316c.08.064.336 0 .364-.1.028-.099 0-.282-.208-.274s-.236.31-.156.374M22.028 19.025a.21.21 0 0 0-.164.112.14.14 0 0 0 .01.13.14.14 0 0 0 .114.065c.064 0 .232 0 .244-.151.012-.152-.148-.156-.204-.156M20.916 19.634c-.128-.056-.352.16-.32.255.032.096.348.148.4.028a.23.23 0 0 0-.08-.283M13.632 15.483c-.172.071-.252.19-.216.31a.23.23 0 0 0-.148.208.227.227 0 0 0 .208.27.28.28 0 0 0 .252-.25q.077.026.152 0a.287.287 0 0 0 .132-.399c-.068-.183-.172-.235-.38-.14M14.08 12.714a.236.236 0 0 0 .312.1.18.18 0 0 0 .072-.255.23.23 0 0 0-.3-.127.203.203 0 0 0-.084.282M13.792 13.455a.25.25 0 0 0 .143.285.25.25 0 0 0 .113.022c.096-.1.192-.207.076-.335-.116-.127-.232-.064-.332.028M14.324 11.342a.215.215 0 0 0-.1.283.2.2 0 0 0 .268.128.22.22 0 0 0 .149-.204.2.2 0 0 0-.017-.087.236.236 0 0 0-.3-.12M16.272 10.832c.028.104.136.092.224.052s.152-.171.084-.24a.6.6 0 0 0-.136-.119h-.124c-.124.08-.092.232-.048.307M15.032 10.886a.28.28 0 0 0 .308.135c.208-.083.328-.267.268-.398a.3.3 0 0 0-.08-.088h-.456a.4.4 0 0 0-.04.35M16.964 10.607a.275.275 0 0 0 .32.207.28.28 0 0 0 .164-.267h-.48a.2.2 0 0 0-.004.06M14.672 15.083a.4.4 0 0 0-.128.455.37.37 0 0 0 .288.12.3.3 0 0 0 0 .167c.036.111.32.21.448.167a.6.6 0 0 0 .176-.088c.12.092.304.16.4.12a.4.4 0 0 0 .092-.486c-.076-.16-.228-.196-.424-.1v-.1a.196.196 0 0 0-.132-.278.257.257 0 0 0-.304.175l-.028.072c-.096-.196-.244-.287-.388-.224M17.756 15.762c-.044 0-.124.024-.136.08-.012.055.056.111.092.123s.164 0 .172-.072-.092-.107-.128-.131M17.28 14.013c-.072-.128-.22-.215-.324-.171a.36.36 0 0 0-.192.362c.052.132.26.175.448.096a.16.16 0 0 0 .108-.14.07.07 0 0 0 .036-.048c.004-.035-.036-.075-.076-.1M15.34 11.686a.5.5 0 0 0-.292.59.524.524 0 0 0 .588.255c.212-.072.292-.335.192-.618a.4.4 0 0 0-.488-.227M17.304 17.49a.11.11 0 0 0-.044.12c0 .036.04.048.076.048.044.115.128.23.2.247a.26.26 0 0 0 .212-.048c0 .116.048.227.108.259s.324-.18.276-.319a.3.3 0 0 0-.24-.195c0-.131-.108-.247-.296-.283a.23.23 0 0 0-.292.171M17.264 14.834a.255.255 0 0 0-.144.294.34.34 0 0 0 .324.164.33.33 0 0 0 .128-.367.23.23 0 0 0-.308-.091M15.236 14.072c-.092 0-.196.2-.176.311a.167.167 0 0 0 .228.128c.184-.044.288-.132.272-.224a.4.4 0 0 0-.324-.215M16.556 11.535c-.164.08-.256.263-.192.399a.46.46 0 0 0 .544.203.32.32 0 0 0 .112-.399.326.326 0 0 0-.325-.238.3.3 0 0 0-.139.035M15.748 12.92a.3.3 0 0 0-.168.418.363.363 0 0 0 .516.211.4.4 0 0 0 .232-.466.45.45 0 0 0-.58-.163M30.212 24.332c-.124.12-.108.267.04.398.148.132.268.104.4-.052a.23.23 0 0 0 .044-.314.48.48 0 0 0-.484-.032M31.872 22.65c-.116.091-.144.298-.048.366s.432-.092.448-.227c.016-.136-.3-.231-.4-.14M31.968 23.375a.12.12 0 0 0-.152 0 .08.08 0 0 0 0 .123c.036.024.116.076.176.028s0-.143-.024-.151M30.476 25.598l.312-.239a.5.5 0 0 0-.248.136.3.3 0 0 0-.064.103M12.5 13.682v.908a.46.46 0 0 0 .48.1.47.47 0 0 0 .228-.534.46.46 0 0 0-.4-.28.47.47 0 0 0-.308-.194M29.872 25.096a.47.47 0 0 1-.304.088c-.052 0-.12.115-.124.179a.26.26 0 0 0 .1.195.2.2 0 0 0 .188-.024q.145-.1.268-.227c.072-.072.056-.143-.024-.215-.04 0-.104-.016-.104.004M13.008 12.097a.494.494 0 0 0-.188.574.316.316 0 0 0 .424.075c.2-.1.24-.23.14-.442-.1-.211-.256-.267-.376-.207M29.22 26.247a.145.145 0 0 0-.156.024c-.024.032-.06.16 0 .187h.028l.132-.067c.016-.044.044-.124-.004-.144M15.724 18.008a.47.47 0 0 0-.4.366.266.266 0 0 0 .26.3q.32.047.364-.292c.028-.227-.076-.362-.224-.374M14.272 19.602a.22.22 0 0 0 .112.247c.112.036.168 0 .24-.243a.203.203 0 0 0-.277-.076.2.2 0 0 0-.075.072M13.784 19.224a.47.47 0 0 0-.124-.287.5.5 0 0 0-.4-.148c-.164 0-.284-.12-.432-.051-.032 0-.064.035-.096.051q.114.547.284 1.08a.5.5 0 0 1 .208-.032h.104a.2.2 0 0 0 .04.22.17.17 0 0 0 .193.085.2.2 0 0 0 .067-.034.36.36 0 0 0 .14-.235.17.17 0 0 0-.12-.16.63.63 0 0 0 .136-.49M29.66 23.428a.16.16 0 0 0-.039.184q.015.031.039.055a.17.17 0 0 0 .191.077.2.2 0 0 0 .065-.033.2.2 0 0 0-.043-.337.18.18 0 0 0-.213.054"/><path fill="#42D4C6" d="M13.64 20.368a.4.4 0 0 0-.1.398.43.43 0 0 0-.188-.111h-.048q.236.586.532 1.143a.2.2 0 0 0 .076.032.29.29 0 0 0 .268-.239.24.24 0 0 0-.072-.167q0-.15-.028-.295.057-.047.108-.1a.4.4 0 0 0 .052-.075.2.2 0 0 0-.024.067c-.024.128.112.267.276.295a.314.314 0 0 0 .376-.29c.028-.16-.068-.343-.192-.36h-.052a.47.47 0 0 0 .204-.334.5.5 0 0 0 0-.147.59.59 0 0 0 .568 0 .4.4 0 0 0 .116-.343.08.08 0 0 0 0-.092.3.3 0 0 0-.076-.103c-.068-.116-.136-.211-.056-.363.08-.151-.032-.203-.152-.25-.16.067-.208.175-.14.306a2.3 2.3 0 0 0-.34.259.51.51 0 0 0-.06.426.45.45 0 0 0-.276-.091c-.324 0-.432.071-.472.338v.048a1 1 0 0 0-.132 0 .26.26 0 0 0-.168.048m.088.71a.1.1 0 0 0 0-.037l.02.024zm.584-.367h.128a.6.6 0 0 0-.168.163.4.4 0 0 0 .04-.163M15.648 16.876a.35.35 0 0 0-.208-.067.48.48 0 0 0-.356.215.36.36 0 0 0 0 .374q.041.06.108.088a.23.23 0 0 0 .184.167.23.23 0 0 0 .236-.219.2.2 0 0 0 .052-.072c.048-.115.148-.227.108-.326a.22.22 0 0 0-.124-.16M13.424 16.427a.37.37 0 0 0-.468.064.33.33 0 0 0-.056.235.44.44 0 0 0 .508.347q.08-.12.14-.251a.334.334 0 0 0-.124-.395M13.496 17.38a.233.233 0 0 0-.272.179.2.2 0 0 0 0 .06.26.26 0 0 0-.276-.068.7.7 0 0 0-.032.239c.02.103.12.127.216.087a.18.18 0 0 0 .132-.155.24.24 0 0 0 .152.104.2.2 0 0 0 .24-.172.215.215 0 0 0-.16-.275M13.108 14.989a.22.22 0 0 0-.268.175.223.223 0 0 0 .18.263.28.28 0 0 0 .28-.18.225.225 0 0 0-.108-.229.2.2 0 0 0-.084-.03M13.472 13.168a.2.2 0 0 0-.19-.129.2.2 0 0 0-.078.017.2.2 0 0 0-.056.032c-.084 0-.18.195-.164.227.036.092.068.223.18.247a.11.11 0 0 0 .124-.072q.046.009.092 0a.227.227 0 0 0 .092-.322M26.588 25.897a.33.33 0 0 0 0 .502l.044.027a.3.3 0 0 0-.076.176.11.11 0 0 0 .08.11.1.1 0 0 0 .048.001c.068 0 .104-.075.14-.135s.036-.056.048-.08a.23.23 0 0 0 .144-.064.465.465 0 0 0 0-.577.33.33 0 0 0-.428.04M25.168 25.746a.427.427 0 0 0-.3.506.42.42 0 0 0 .4.323c.1 0 .18-.084.232-.2q.023.004.044 0a.27.27 0 0 0 .076-.37.2.2 0 0 0-.124-.068.4.4 0 0 0-.328-.19M24.86 23.918a.4.4 0 0 0 .196.454c.152.096.304.036.4-.159a.32.32 0 0 0-.088-.375.53.53 0 0 0-.508.08M25.744 26.718c-.028.067-.12.21 0 .282a.28.28 0 0 0-.204.032.188.188 0 0 0-.284.028.4.4 0 0 0 0 .172q.062.057.144.071c.033.082.094.15.172.191.096 0 .24.052.4.072l.248-.052a.18.18 0 0 0 .064-.14.214.214 0 0 0-.184-.238.6.6 0 0 1-.188-.072l-.064-.024a.4.4 0 0 0 .22-.091c.084-.064.032-.164-.036-.228-.068-.063-.248-.091-.288-.003M25.572 24.085c-.044.04 0 .16 0 .183 0 .024.112.056.156 0a.124.124 0 0 0 0-.151c-.024-.032-.116-.072-.156-.032M24.456 24.472a.22.22 0 0 0 .072.199c.048.028.224.024.256-.032a.28.28 0 0 0-.096-.231c-.072-.012-.216.004-.232.064M24.076 23.427a.246.246 0 0 0 .064.318.265.265 0 0 0 .344-.087.21.21 0 0 0-.068-.287.23.23 0 0 0-.34.056M24.464 25.08c-.112.096-.252.163-.188.323a.23.23 0 0 0 .264.147.18.18 0 0 0 .176-.167c.016-.175-.1-.243-.252-.303M24.348 19.806a.11.11 0 0 0 .024.127c.032.02.108 0 .144-.047.036-.048.044-.12 0-.156s-.14.04-.168.076M28.932 22.957c-.036.052.028.199.06.219s.176.04.208 0a.2.2 0 0 0-.024-.203c-.036-.016-.208-.052-.244-.016M28.672 24.785a.31.31 0 0 0-.076.399.37.37 0 0 0 .4.047c.104-.095.068-.306-.072-.45a.173.173 0 0 0-.252.004M29.38 24.22a.22.22 0 0 0-.232.092.23.23 0 0 0 .04.295.225.225 0 0 0 .288-.036.24.24 0 0 0 .264 0 .247.247 0 1 0-.352-.343zM28.38 22.958a.1.1 0 0 0-.068-.03.1.1 0 0 0-.068.03.28.28 0 0 0 .056.346.204.204 0 0 0 .304-.151c0-.052-.14-.128-.224-.195M27.116 24.415a.13.13 0 0 0-.12 0 .17.17 0 0 0 0 .148.124.124 0 0 0 .176 0c.076-.048-.024-.116-.056-.148M23.916 25.89a.3.3 0 0 0-.028.072.21.21 0 0 0-.245-.052.2.2 0 0 0-.071.052.2.2 0 0 0-.048.225.2.2 0 0 0 .048.066.36.36 0 0 0 .316.091 1 1 0 0 0 0 .072c0 .143.208.167.092.295s-.316.418-.052.601a.4.4 0 0 0 .46-.071.45.45 0 0 0 .212.33.446.446 0 0 0 .548-.175.36.36 0 0 0-.104-.478.59.59 0 0 0-.548.076.25.25 0 0 0-.04-.172c-.084-.103.2-.223.096-.374s0-.33-.132-.498-.412-.235-.504-.06M27.904 25.137a.24.24 0 0 0 .04.295c.072.047.2 0 .272-.128a.128.128 0 0 0-.048-.2c-.092-.05-.188-.07-.264.033M25.928 26.144a.24.24 0 0 0-.056.207c.06.152.188.108.304.076.06-.127.064-.247-.068-.315a.2.2 0 0 0-.18.032"/><path fill="#20377D" d="M36.668 8.264H11.052v3.279h25.616zM9.552 42.118c1.56 0 2.824-1.26 2.824-2.813a2.82 2.82 0 0 0-2.824-2.813 2.82 2.82 0 0 0-2.824 2.813 2.82 2.82 0 0 0 2.824 2.813M24.136 48.788c1.56 0 2.824-1.26 2.824-2.813a2.82 2.82 0 0 0-2.824-2.813 2.82 2.82 0 0 0-2.824 2.813 2.82 2.82 0 0 0 2.824 2.813M37.532 36.87c1.56 0 2.824-1.26 2.824-2.813a2.82 2.82 0 0 0-2.824-2.813 2.82 2.82 0 0 0-2.824 2.813 2.82 2.82 0 0 0 2.824 2.813M23.884 11.988l-4.604 8.148h4.604v5.363l4.664-7.726h-4.664z"/></g><defs><clipPath id="a"><path fill="#fff" d="M0 0h48v48.787H0z"/></clipPath></defs></svg>