<svg xmlns="http://www.w3.org/2000/svg" width="48" height="48" fill="none"><path fill="#fff" d="M25.185 1.744c-.12.21-.079.353.139.484a.35.35 0 0 0 .465-.041.53.53 0 0 0-.177-.623h-.19a.42.42 0 0 0-.237.18M23.014 4.055c-.042.037-.075.228-.023.273.053.045.252 0 .267-.048.015-.05.044-.23 0-.26a.26.26 0 0 0-.244.035M24.214 1.721a.4.4 0 0 0-.045-.101.3.3 0 0 0 .071-.113L24 1.5h-.157v.038a.1.1 0 0 0-.03.026 2.5 2.5 0 0 0-.135.352c-.29.098-.447.278-.375.454a.5.5 0 0 0 .536.255c.202-.064.229-.18.112-.585.154-.068.32-.109.263-.319M26.719 2.659c.12-.03.258-.023.33-.132.071-.108.285-.416.157-.622s-.273-.045-.409-.064a.33.33 0 0 0-.31.139.45.45 0 0 0-.24.124.4.4 0 0 0 .003.487.16.16 0 0 1-.124-.041c-.101-.094-.322-.094-.498.131-.177.225-.06.574.15.585s.266-.101.318-.049c.053.053.102.225.24.222.139-.004.289-.398.289-.465 0-.068-.079-.188-.023-.263q.061-.018.117-.052M30.769 2.625a.45.45 0 0 0-.473.086.46.46 0 0 0 .162.488.21.21 0 0 0 .292-.068c.157-.221.161-.424.019-.506M27.338 2.624c-.06.09 0 .214.037.296.038.083.203.053.266-.033.064-.087.053-.222-.037-.263s-.203-.079-.267 0M23.28 5.149a.34.34 0 0 0 .416 0 .57.57 0 0 0 .038-.57.42.42 0 0 0-.525.1c-.135.136-.109.308.071.47M16.556 4.898a.56.56 0 0 0-.592 0 .375.375 0 0 0 0 .506.416.416 0 0 0 .528.03.404.404 0 0 0 .064-.536M30.945 3.416a.264.264 0 1 0 .281-.447.29.29 0 0 0-.375.11.255.255 0 0 0 .094.337M22.83 3.102a.323.323 0 0 0-.094-.476.397.397 0 0 0-.592.12.424.424 0 0 0 .075.558.35.35 0 0 0 .326.023.19.19 0 0 0 .188-.064.4.4 0 0 0 .097-.161M22.301 3.61a.255.255 0 0 0-.217.248.19.19 0 0 0 .135.222c.183.06.277-.05.375-.192-.072-.138-.094-.307-.293-.277M21.435 1.65a.6.6 0 0 0-.06.188.3.3 0 0 0-.064-.113l-.06-.052-.375.052a.7.7 0 0 1 .12.255.26.26 0 0 0 .218.087.27.27 0 0 0 .161-.132.26.26 0 0 0 .098.233.3.3 0 0 0 .322-.135c.045-.176.172-.15.281-.206a.4.4 0 0 0 .105-.087.42.42 0 0 0 .424 0 .24.24 0 0 0 .045-.176c.143.116.308.146.405.056a.24.24 0 0 0 .071-.108 31 31 0 0 0-1.691.138M16.973 3.47a.376.376 0 0 0-.6.022.375.375 0 0 0-.046.596.438.438 0 0 0 .664-.026.45.45 0 0 0-.018-.593M35.021 6.2a.157.157 0 0 0 .259-.065.8.8 0 0 0 0-.232.24.24 0 0 0-.341.09c-.064.101.007.157.082.206M34.811 4.733a.27.27 0 0 0 .214-.09.19.19 0 0 0 0-.195c-.086-.131-.214-.12-.352-.033.003.127-.027.273.138.318M25.361 2.43a.244.244 0 0 0-.345-.067.41.41 0 0 0-.052.51.28.28 0 0 0 .375.03.353.353 0 0 0 .022-.473M33.195 5.25a.47.47 0 0 0 .555-.286.6.6 0 0 0-.375-.607.476.476 0 0 0-.499.375.46.46 0 0 0 .32.517M33.026 3.57a.307.307 0 0 0 .116.487.38.38 0 0 0 .402.026.25.25 0 0 0 .315 0 .2.2 0 0 0 .078-.131 1.4 1.4 0 0 0-.044-.17q-.375-.176-.732-.337a.4.4 0 0 0-.135.124M34.211 4.196a.23.23 0 0 0 .315-.048V4.12q-.22-.116-.446-.228a.255.255 0 0 0 .131.303M25.193 3.75a.07.07 0 0 0 0-.086.075.075 0 0 0-.106 0 .075.075 0 0 0 0 .101c.038.019.09.004.105-.015M36.608 5.362a21 21 0 0 0-.994-.633 1 1 0 0 1 .056.075.59.59 0 0 0 0 .656.62.62 0 0 0 .919-.083zM34.463 5.37a.7.7 0 0 0 0-.228.24.24 0 0 0-.342.086c-.052.105 0 .162.083.21a.165.165 0 0 0 .258-.067M24.724 3.727a.26.26 0 0 0 .345-.075.236.236 0 0 0-.086-.311.214.214 0 0 0-.316.045.236.236 0 0 0 .057.341M24.21 2.647a.24.24 0 0 0 .341-.067.22.22 0 0 0-.097-.304.25.25 0 0 0-.338.098.192.192 0 0 0 .094.273M20.625 1.77l-.334.056a.5.5 0 0 0 .334-.056M25.125 1.617a1 1 0 0 0 .06-.083c-.244 0-.491 0-.75-.022q.018.05.053.09a.476.476 0 0 0 .637.015M20.329 2.287a.28.28 0 0 0-.053-.348c-.101-.064-.341-.034-.375.048a.345.345 0 0 0 .105.405.25.25 0 0 0 .323-.105M31.5 3.068c0 .026 0 .067.049.071a.067.067 0 0 0 .082-.06c0-.049-.045-.071-.067-.075s-.064.045-.064.064M22.954 4.822a.337.337 0 0 0-.06-.458.5.5 0 0 0-.611.147.375.375 0 0 0 .67.31M22.125 5.624a.445.445 0 0 0-.656.042.405.405 0 0 0-.023.6.51.51 0 0 0 .675.018.536.536 0 0 0 .004-.66M27.593 5.476c-.166-.32-.458-.09-.488-.327-.03-.236.199-.157.139-.487s-.375-.469-.555-.308c-.18.162-.105.375-.154.375s-.296.075-.262.26c-.046-.023-.098-.035-.124 0-.027.033 0 .168.022.198a.15.15 0 0 0 .169.019.1.1 0 0 0 0-.03c.128.146.337.07.375.153s.03.357.105.522c.101.232.326.375.559.247a.435.435 0 0 0 .213-.622M25.875 4.335a.376.376 0 0 0 0-.454c-.203-.165-.431 0-.544.072-.112.071 0 .375.214.472a.236.236 0 0 0 .33-.09M33.42 6.168a.4.4 0 0 0 .03-.056c.09-.019.236-.06.244-.143.007-.082-.195-.172-.27-.18a.06.06 0 0 0-.038 0 .52.52 0 0 0-.506.038.334.334 0 0 0 .12.491c.112.09.292.03.42-.15M12.608 5.43c.123.053.345-.169.3-.266-.045-.098-.338-.135-.394 0a.23.23 0 0 0 .094.266M31.909 3.836a.35.35 0 0 0 .277.375.236.236 0 0 0 .311-.157.405.405 0 0 0-.27-.435.28.28 0 0 0-.318.217M32.078 3l-.3-.12c.084.072.19.114.3.12M34.466 5.658a.424.424 0 0 0-.446.293.45.45 0 0 0 .33.424c.139.022.311-.143.337-.327.027-.183-.04-.36-.22-.39M17.4 5.269a.23.23 0 0 0 .045.337c.094.068.195.146.281.064.146-.158.162-.311.072-.405a.262.262 0 0 0-.398.004M16.673 3.102a.53.53 0 0 0 .75-.03.495.495 0 0 0 .082-.619c-.322.098-.645.203-.96.315a.4.4 0 0 0 .127.334M17.891 4.126a.4.4 0 0 0-.48 0 .35.35 0 0 0 .053.438.214.214 0 0 0 .315-.041c.157-.176.198-.319.112-.397M14.156 5.115a.33.33 0 0 0-.491.022.394.394 0 0 0-.056.488.48.48 0 0 0 .54 0 .327.327 0 0 0 .007-.51M13.391 4.178c.173.195.375.146.559.038.083.116.12.285.315.217a.225.225 0 0 0 .165-.247c0-.203-.184-.203-.338-.214 0-.056 0-.109-.03-.161l-.686.352s.008.011.015.015M20.25 4.444c-.098-.158-.244-.177-.439 0a5 5 0 0 0-.195.49q-.014.045-.009.09a.22.22 0 0 0 .167.192.233.233 0 0 0 .296-.135q.045-.102.12-.184a.375.375 0 0 0 .06-.453M30.99 5.748a.25.25 0 0 0-.079.413.35.35 0 0 0 .29.064.28.28 0 0 0 .145-.214.288.288 0 0 0-.356-.263M31.958 5.813a.243.243 0 0 0-.345.041.255.255 0 0 0 .048.35.28.28 0 0 0 .375-.053.244.244 0 0 0-.079-.338M27.799 3.375a.315.315 0 0 0-.424.038.4.4 0 0 0 .045.484.435.435 0 0 0 .555-.098c.056-.109-.026-.311-.176-.424M28.241 5.19c.053-.046 0-.15-.041-.188a.12.12 0 0 0-.139 0c-.034.03 0 .12 0 .165s.128.082.18.022M28.729 5.198a.315.315 0 0 0 .469-.124c.1-.176.082-.356-.053-.431a.495.495 0 0 0-.585.138.38.38 0 0 0 .169.417M30.049 2.393a.24.24 0 0 0 .202.063.3.3 0 0 0 .116-.037c-.375-.113-.75-.21-1.147-.304a.375.375 0 0 0 .113.51.59.59 0 0 0 .43.09.1.1 0 0 0 .053.03c.042 0 .173 0 .184-.075a.1.1 0 0 0-.038-.075L30 2.576a.4.4 0 0 0 .049-.183M30.874 4.747a.2.2 0 0 0 .034-.063.4.4 0 0 0 .082.13.5.5 0 0 0-.041.173.334.334 0 0 0 .322.402.375.375 0 0 0 .375-.3.3.3 0 0 1 .049.03.32.32 0 0 0 .555-.064q.026.042.068.067a.29.29 0 0 0 .33-.142.296.296 0 0 0-.06-.409.24.24 0 0 0-.334.105.46.46 0 0 0-.203-.139.48.48 0 0 1-.277-.198.51.51 0 0 0-.692-.123.45.45 0 0 0-.156.201v.045a.4.4 0 0 0-.172-.255c-.132-.082-.304 0-.424.177a.35.35 0 0 0 .03.438.45.45 0 0 0 .514-.075M28.5 3.843c0-.048-.067-.105-.113-.123-.044-.02-.138 0-.15.078-.01.08.102.113.147.124a.13.13 0 0 0 .116-.079M28.991 3.78a.53.53 0 0 0 .686-.03.55.55 0 0 0-.142-.676.514.514 0 0 0-.63.165.4.4 0 0 0 .086.54M28.71 2.467a.4.4 0 0 0 .049-.127c.18.06.277-.05.375-.195l-.026-.057a20 20 0 0 0-1.092-.225.3.3 0 0 0-.09.087.41.41 0 0 0 .154.607.413.413 0 0 0 .63-.09M24.082 5.737a.3.3 0 0 0-.225.052c-.078.072 0 .267.094.293a.4.4 0 0 0 .188-.026c.082-.15.048-.297-.057-.319M15.345 4.683a.334.334 0 0 0 .056-.439.28.28 0 0 0-.375-.041.375.375 0 0 0 0 .48.213.213 0 0 0 .319 0M11.055 5.624a.04.04 0 0 0 0-.019l-.098.072a.2.2 0 0 0 .098-.053M15.521 5.861a.247.247 0 0 0-.345.045.206.206 0 0 0 .019.311.266.266 0 0 0 .352 0 .255.255 0 0 0-.026-.356M16.144 3.135a.27.27 0 0 0 0-.217c-.375.139-.75.289-1.095.446a.66.66 0 0 0 .303.203.85.85 0 0 0 .792-.432M21.728 4.47a.454.454 0 0 0-.897-.087c-.041.173.184.375.428.42a.44.44 0 0 0 .468-.333M23.25 6.124c0-.045-.019-.15-.071-.203a.266.266 0 1 0-.356.375c.082.079.277.011.427-.172M21.128 5.73a.135.135 0 0 0 0-.168c-.057-.042-.143.045-.173.082a.12.12 0 0 0 .026.135c.019.026.109-.015.146-.049M21.146 5.18a.27.27 0 0 0-.206-.106c-.169.026-.154.173-.15.304.124.09.248.124.349 0a.21.21 0 0 0 .007-.199M24.75 5.028a.6.6 0 0 0 .266-.124c.083-.067.075-.169-.026-.244a.21.21 0 0 0-.195-.056.27.27 0 0 0-.101-.112.296.296 0 0 0-.375.063c-.139.203-.135.44 0 .525a.43.43 0 0 0 .431-.052M24.416 4.237a.246.246 0 0 0 0-.375.266.266 0 0 0-.352 0 .28.28 0 0 0 .079.436.23.23 0 0 0 .273-.061M25.035 6a.154.154 0 0 0 .236-.09c.03-.076.094-.275 0-.32s-.274.068-.322.135c-.049.068-.027.2.086.274M23.651 5.273c-.09-.075-.18 0-.236.09s-.03.244.071.266c.102.023.252.079.304-.052.053-.132-.075-.252-.139-.304M23.854 3.251a.56.56 0 0 0-.679.124c-.146.191-.06.476.203.667a.4.4 0 0 0 .57-.09.54.54 0 0 0-.094-.701M18.281 5.25a.27.27 0 0 0 0 .352c.146.127.293.052.435 0 .03-.289 0-.398-.157-.443a.244.244 0 0 0-.278.09M19.204 4.9c.18-.195.202-.344.067-.48a.405.405 0 0 0-.476.027.45.45 0 0 0 .064.484.232.232 0 0 0 .345-.03M18.296 3.75a.42.42 0 0 1 .375.278.375.375 0 0 0 .435.113.47.47 0 0 0 .146-.304.2.2 0 0 0 .06-.079.218.218 0 0 0-.187-.292.146.146 0 0 0-.169-.068.59.59 0 0 1-.48-.109.2.2 0 0 0-.303.087c-.06.131-.015.341.123.375M20.576 3.461c.062.024.13.024.191 0 .128-.064.188.266.375.187.188-.078.346.102.56-.018.213-.12.337-.375.172-.51a.83.83 0 0 0-.548-.165.2.2 0 0 0-.12.03.375.375 0 0 0-.049-.435c-.123-.083-.33 0-.45.176a.29.29 0 0 0-.333.056.43.43 0 0 0-.034.506.47.47 0 0 0-.398.143.476.476 0 0 0 .053.619.4.4 0 0 0 .536 0 .65.65 0 0 0 .045-.589M19.627 2.974l.263-.251a2 2 0 0 0-.116-.203.27.27 0 0 0-.24-.097.34.34 0 0 0-.098-.24l-.034-.034a.17.17 0 0 0-.04-.176l-.672.153q.01.016.026.023c.203.06.18.236.214.375a.248.248 0 0 0 .375.191l.049-.022q.011.062.052.108.1.1.221.173M20.625 6.124c.094 0 .131-.101.086-.203a.38.38 0 0 0-.221-.198.12.12 0 0 0-.15.108c0 .075.056.124.116.18.06.057.102.11.169.113"/><g clip-path="url(#a)"><path fill="#ECF0F6" d="M24 46.5c12.426 0 22.5-10.074 22.5-22.5S36.426 1.5 24 1.5 1.5 11.574 1.5 24 11.574 46.5 24 46.5"/><path fill="#fff" d="M43.189 18.58c.06-.1-.026-.18-.12-.22-.094-.042-.252 0-.255.108-.004.109-.041.263.093.293.136.03.24-.109.282-.18M42.788 19.065a.28.28 0 0 0-.083-.218c-.082-.063-.262.027-.274.135a.45.45 0 0 0 .053.18c.161.072.296.02.303-.097M43.56 17.83a.326.326 0 0 0 .42-.13.506.506 0 0 0-.232-.582.34.34 0 0 0-.345.124.5.5 0 0 0-.402-.071.47.47 0 0 0-.24.573.465.465 0 0 0 .555.274.56.56 0 0 0 .244-.187M39.803 8.051a.2.2 0 0 0 .037-.03l-.375-.337a.23.23 0 0 0 0 .21.248.248 0 0 0 .337.157M42.038 17.892c-.05.109.048.292.247.397.045-.022.146-.04.191-.1a.265.265 0 0 0 .023-.314.266.266 0 0 0-.462.017M43.001 16.845a.254.254 0 0 0 .289-.157.2.2 0 0 0 0-.158 3 3 0 0 0-.277-.255c0-.304-.102-.514-.282-.525a.47.47 0 0 0-.337.199.13.13 0 0 0-.09.049.1.1 0 0 0 0 .086.2.2 0 0 0 0 .086c0 .21.082.274.502.319 0 .161-.022.326.195.356M42.315 14.566q-.298.129-.202.341c.063.143.258.281.412.206a.53.53 0 0 0 .146-.465c-.045-.127-.176-.157-.356-.082M41.246 11.756q.06.016.12 0a.8.8 0 0 1 .124.173.375.375 0 0 0 .413.228c.183-.03.255-.16.146-.412-.083-.079-.207-.214-.35-.33a.1.1 0 0 0 0-.026.3.3 0 0 0-.159-.3.3.3 0 0 0-.114-.034c-.191-.041-.457.082-.487.225a.435.435 0 0 0 .307.476M42.289 11.258a.33.33 0 0 0 .135-.169c-.173-.244-.345-.48-.525-.716a.24.24 0 0 0-.17.11.22.22 0 0 0 .02.254.3.3 0 0 0 .101.075.3.3 0 0 0 .019.21c.127.24.247.315.42.236M43.898 13.724a.29.29 0 0 0 .187.327q.046.014.094 0l-.199-.375c-.03-.019-.06-.004-.082.048M45.165 16.35q-.164-.448-.345-.885a1 1 0 0 0-.139.082.34.34 0 0 0-.026.56q.24.15.51.243M43.826 15.116a.7.7 0 0 0 .169.146 2 2 0 0 0 .199.112c.217.117.375.098.491-.06a.4.4 0 0 0 .041-.086c-.082-.195-.172-.375-.262-.578a3 3 0 0 1-.375-.375c-.124-.153-.375-.243-.48-.153a.29.29 0 0 0 0 .348c.146.105.079.218.09.338a.8.8 0 0 0 .127.308"/><path fill="#fff" d="M41.4 10.325c.259.13.375.135.469 0q-.158-.21-.326-.417c-.162.105-.147.267-.143.417M40.871 10.016a.25.25 0 0 0 .18-.139.38.38 0 0 0-.079-.285c-.142-.13-.25 0-.375.098.02.184.072.33.274.326M16.976 6.803a.31.31 0 0 0 .034-.375c-.184-.195-.416-.25-.536-.13a.465.465 0 0 0 .022.535.43.43 0 0 0 .48-.03M25.185 1.748c-.12.206-.075.349.143.484a.35.35 0 0 0 .46-.045.536.536 0 0 0-.172-.623h-.191a.42.42 0 0 0-.24.184M43.219 20.048c.093-.052.157-.146.086-.236s-.218-.233-.296-.191c-.079.04-.075.206-.068.31-.101-.052-.21 0-.259.132a.154.154 0 0 0 .124.221c.075.02.282.053.312-.056a.2.2 0 0 0-.038-.15.22.22 0 0 0 .139-.03M23.018 4.064c-.042.042-.076.23-.027.274s.255 0 .267-.045c.01-.045.044-.232 0-.262a.25.25 0 0 0-.24.033M24.214 1.722a.3.3 0 0 0-.045-.098.3.3 0 0 0 .071-.116h-.394v.037a.1.1 0 0 0-.03.027 3 3 0 0 0-.135.352c-.285.101-.446.281-.375.454a.5.5 0 0 0 .548.244c.198-.06.225-.177.108-.585.143-.064.308-.105.252-.315M26.719 2.66c.12-.03.258-.02.33-.132.071-.112.285-.416.157-.619-.127-.202-.27-.045-.409-.067a.32.32 0 0 0-.307.139.42.42 0 0 0-.24.123.394.394 0 0 0 0 .488.14.14 0 0 1-.12-.041c-.105-.094-.326-.094-.502.13-.177.226-.06.578.15.59.21.011.266-.105.322-.053.056.053.098.225.236.221.139-.003.293-.393.282-.465-.012-.07-.075-.187-.023-.262a.3.3 0 0 0 .124-.053M30.769 2.614a.45.45 0 0 0-.469.086c-.075.113 0 .375.161.488a.203.203 0 0 0 .304-.056c.146-.218.146-.424.004-.518M27.341 2.635c-.063.09 0 .218.034.297s.203.052.266-.034a.157.157 0 0 0-.033-.263c-.072-.037-.207-.07-.267 0M23.284 5.149a.334.334 0 0 0 .412 0 .57.57 0 0 0 .038-.57.42.42 0 0 0-.525.1c-.135.136-.11.308.075.47M16.56 4.897a.56.56 0 0 0-.596 0 .375.375 0 0 0 0 .503.416.416 0 0 0 .528.034.405.405 0 0 0 .068-.537M30.945 3.42a.266.266 0 1 0 .281-.45.296.296 0 0 0-.375.108.26.26 0 0 0 .094.341M43.976 16.002a.375.375 0 0 0 .191-.435.31.31 0 0 0-.337-.187c-.236.078-.375.262-.322.416a.42.42 0 0 0 .468.206M22.834 3.1a.326.326 0 0 0-.101-.48.396.396 0 0 0-.593.124.42.42 0 0 0 .075.555.35.35 0 0 0 .326.023.2.2 0 0 0 .188-.06.5.5 0 0 0 .105-.162M22.301 3.615a.25.25 0 0 0-.217.244.19.19 0 0 0 .139.225c.18.056.277-.053.375-.195-.075-.143-.102-.304-.297-.274M16.973 3.47a.45.45 0 0 0-.645.622.443.443 0 0 0 .663-.03.446.446 0 0 0-.018-.593M43.793 18.367c-.042.023-.064.15-.045.217a.12.12 0 0 0 .198.076c.06-.05.21-.192.169-.274s-.244-.049-.323-.019M35.021 6.203a.165.165 0 0 0 .263-.067.8.8 0 0 0 0-.233.244.244 0 0 0-.341.09c-.072.102.003.162.078.21M34.811 4.736a.27.27 0 0 0 .214-.094.2.2 0 0 0 0-.195c-.09-.131-.218-.116-.352-.034.003.131-.027.274.138.323M34.009 8.523a.244.244 0 0 0 .232-.228c0-.2-.228-.33-.307-.334a.35.35 0 0 0-.21.397.25.25 0 0 0 .285.165M25.361 2.43a.24.24 0 0 0-.341-.064.4.4 0 0 0-.052.506.274.274 0 0 0 .375.03.345.345 0 0 0 .018-.473M33.199 5.246a.465.465 0 0 0 .547-.281.6.6 0 0 0-.375-.604.47.47 0 0 0-.498.375.46.46 0 0 0 .326.51M33.03 3.57a.308.308 0 0 0 .112.487.38.38 0 0 0 .402.03.26.26 0 0 0 .315 0c.037-.03.086-.094.078-.135a1 1 0 0 0-.044-.165c-.24-.12-.484-.23-.75-.342a.4.4 0 0 0-.113.124M35.663 6.754a.308.308 0 0 0 .373-.35.2.2 0 0 0-.167-.156.26.26 0 0 0-.315.105.29.29 0 0 0 .108.4M34.211 4.2a.233.233 0 0 0 .315-.052V4.12c-.146-.078-.296-.15-.442-.225a.25.25 0 0 0 .127.304M38.621 7.285a.28.28 0 0 0 0 .255.15.15 0 0 0 .225.102c.098-.053.184-.124.139-.255-.045-.132-.311-.162-.364-.102M38.696 8.94a.38.38 0 0 0 .338-.206.33.33 0 0 0-.229-.311.247.247 0 0 0-.304.217.285.285 0 0 0 .195.3"/><path fill="#fff" d="M39.173 7.544a.3.3 0 0 0 .142-.019q-.197-.184-.401-.375a.45.45 0 0 0 .258.394M25.193 3.754a.07.07 0 0 0 0-.086.07.07 0 0 0-.105 0c-.03.033 0 .082 0 .097s.09.004.104-.011M36.608 5.362a21 21 0 0 0-.994-.633l.056.075a.59.59 0 0 0 0 .66.62.62 0 0 0 .915-.083zM36.206 8.538a.35.35 0 0 0 .375-.345c.023-.172-.097-.285-.33-.319-.232-.033-.337.057-.348.199a.63.63 0 0 0 .303.465M34.463 5.37a.7.7 0 0 0 0-.228.24.24 0 0 0-.342.086c-.052.105 0 .162.083.21.082.05.228.045.258-.067M24.724 3.727a.263.263 0 0 0 .345-.071.24.24 0 0 0-.086-.315.214.214 0 0 0-.316.045.235.235 0 0 0-.011.273q.026.04.068.068M44.434 20.633a.375.375 0 0 0 .45-.048c.135-.225-.049-.428-.15-.53-.102-.1-.375.065-.435.282a.24.24 0 0 0 .135.296M45.559 19.282a.29.29 0 0 0 .086-.375.7.7 0 0 0-.281-.045c-.135.027-.184.214-.113.353a.22.22 0 0 0 .227.1.2.2 0 0 0 .08-.033M44.94 16.883c-.097.172.045.465.289.581a.32.32 0 0 0 .304 0 26 26 0 0 0-.252-.769.41.41 0 0 0-.341.188M43.684 19.726a.405.405 0 0 0 .431-.21.315.315 0 0 0-.116-.345c-.221-.105-.454-.068-.518.082a.44.44 0 0 0 .203.473M44.438 16.751c.063 0 .123-.116.138-.187a.2.2 0 0 0-.09-.177c-.142-.067-.243 0-.319.154.057.116.11.274.27.21M44.085 21.087a.266.266 0 0 0 .161-.316.26.26 0 0 0-.296-.134.31.31 0 0 0-.165.322.24.24 0 0 0 .3.128M45.218 18.491a.56.56 0 0 0-.222-.652.2.2 0 0 0-.063-.023.25.25 0 0 0-.315-.093.43.43 0 0 0-.24.393v.019a.404.404 0 0 0 .168.551.54.54 0 0 0 .672-.195M24.21 2.648a.236.236 0 0 0 .341-.068.217.217 0 0 0-.097-.303.255.255 0 0 0-.338.097.19.19 0 0 0 .027.228.2.2 0 0 0 .067.046M45.953 19.065q-.039-.165-.076-.323a.24.24 0 0 0 .075.323M20.621 1.77l-.333.06c.114.02.233-.001.333-.06M25.14 1.617a.4.4 0 0 0 .06-.083c-.244 0-.488 0-.75-.022a.24.24 0 0 0 .056.09.473.473 0 0 0 .634.015M20.329 2.291a.28.28 0 0 0-.053-.352c-.097-.064-.341-.034-.375.048a.345.345 0 0 0 .105.405.25.25 0 0 0 .323-.1M46.463 22.744a.5.5 0 0 0 0 .221zM29.843 6.627q.095-.15.165-.315a.49.49 0 0 0-.23-.529.195.195 0 0 0-.265.03c-.19.21-.31.47-.346.75q0 .067.027.128a.303.303 0 0 0 .457.172.18.18 0 0 0 .124-.063.24.24 0 0 0 .068-.173M29.621 8.34c.109-.098 0-.416-.105-.428-.105-.01-.304.27-.214.375a.25.25 0 0 0 .32.053M29.719 9.709a.24.24 0 0 0-.038-.218.154.154 0 0 0-.247.034c-.034.06-.09.233.037.308.128.075.221-.072.248-.124M29.486 7.208c-.022-.068-.154-.06-.187-.038a.15.15 0 0 0-.075.15c0 .057.116.068.161.057a.18.18 0 0 0 .101-.17M32.974 12.21c0 .026.049.112.071.108a.2.2 0 0 0 .142-.079.14.14 0 0 0-.078-.176c-.113-.03-.113.098-.135.146M34.016 9.73q.033-.265-.198-.307c-.222-.034-.47.109-.484.277-.015.17.157.323.334.342a.34.34 0 0 0 .348-.312M31.496 3.072a.08.08 0 0 0 .049.07.07.07 0 0 0 .082-.063c0-.045-.044-.071-.067-.075-.022-.004-.064.045-.064.068M22.534 6.69a.14.14 0 0 0-.049.188c.06.082.154 0 .199-.03s.026-.12 0-.132a.2.2 0 0 0-.15-.026M22.954 4.815a.345.345 0 0 0-.06-.461.514.514 0 0 0-.611.146.375.375 0 0 0 .277.484.375.375 0 0 0 .394-.169M22.121 5.632a.446.446 0 0 0-.66.042.405.405 0 0 0-.022.596.506.506 0 0 0 .675.019.53.53 0 0 0 .007-.657M27.593 5.476c-.166-.32-.458-.09-.484-.327-.026-.236.198-.157.135-.487-.064-.33-.375-.469-.552-.308-.176.162-.108.375-.157.375s-.296.072-.262.255c-.046-.022-.098-.033-.124 0-.027.034 0 .17.022.2a.15.15 0 0 0 .169 0v-.03c.128.15.337.07.375.157.038.086.03.352.105.517.105.233.326.375.559.248a.43.43 0 0 0 .213-.6M27.064 8.01c-.03.049-.06.15 0 .202a.154.154 0 0 0 .195-.037c.037-.041.101-.173 0-.248s-.169.038-.195.083M25.871 4.335c.105-.135.12-.375 0-.45-.202-.169-.43 0-.543.068-.113.067 0 .375.213.476a.25.25 0 0 0 .33-.094M25.53 7.066c0 .037 0 .071.019.09.018.019.067 0 .071 0s.026-.079 0-.101-.056.01-.09.01M33.42 6.17a.4.4 0 0 0 .03-.057c.09-.018.24-.06.247-.139.008-.078-.198-.176-.27-.183a.1.1 0 0 0-.04 0 .51.51 0 0 0-.507.041.332.332 0 0 0 .116.484c.116.097.296.034.424-.146M43.166 31.894c.03-.064-.063-.139-.105-.161a.12.12 0 0 0-.131.041c-.023.045.03.12.068.15.037.03.123.03.168-.03M43.56 24.716c.037-.105.03-.206-.064-.259a1.37 1.37 0 0 0-.787-.232.4.4 0 0 0-.124.041.31.31 0 0 0-.133.452q.05.076.133.114a1.8 1.8 0 0 0 .484.188.49.49 0 0 0 .491-.304M43.204 29.9c.03-.053 0-.132-.057-.155-.056-.022-.172-.033-.198.02-.026.052.052.16.093.18a.14.14 0 0 0 .162-.046M45.27 26.483a.514.514 0 0 0 .025-.706.44.44 0 0 0-.224-.123h-.045c.1-.039.181-.114.229-.21.06-.142-.034-.303-.236-.393a.35.35 0 0 0-.431.093.46.46 0 0 0 .153.522h.068a.45.45 0 0 0-.154.142.8.8 0 0 0-.116.525.35.35 0 0 1-.045.195.32.32 0 0 0 .139.514.2.2 0 0 0-.057.075.28.28 0 0 0 .188.307.285.285 0 0 0 .375-.116.24.24 0 0 0-.15-.315.5.5 0 0 0 .108-.217.44.44 0 0 1 .173-.293M46.391 25.405a.255.255 0 0 0-.326.128.28.28 0 0 0 .139.352.28.28 0 0 0 .213 0l.034-.435a.2.2 0 0 0-.06-.045M45.746 28.88a.237.237 0 0 0 .098.307h.033q.057-.242.11-.484a.27.27 0 0 0-.24.176M43.076 27.575c-.037-.139-.15-.162-.42-.116-.03.138-.116.288.056.393a.233.233 0 0 0 .323-.049.3.3 0 0 0 .041-.228M39.056 10.323a.4.4 0 0 0 .447-.375.7.7 0 0 0 0-.229.54.54 0 0 0 .318-.022.28.28 0 0 0 .135-.285.53.53 0 0 0 .499-.375.45.45 0 0 0-.33-.525.71.71 0 0 0-.604.427.35.35 0 0 0 .034.203h-.023a.48.48 0 0 0-.22.318.7.7 0 0 0-.207-.067.48.48 0 0 0-.521.427c-.027.207.217.462.472.503M36.638 10.946c.375.075.375.049.375-.27-.158-.112-.285-.067-.398.083-.42-.184-.619 0-.57.476a.5.5 0 0 1-.079.052c-.127.053-.142.15-.127.27s.086.158.187.195c.252.083.375.03.431-.228q.096-.292.18-.578M36.038 9.202a.375.375 0 0 0-.316-.443.495.495 0 0 0-.528.428.5.5 0 0 0 .375.457c.243.045.427-.153.468-.442M38.674 12.138c-.038-.083-.191-.101-.319-.045a.135.135 0 0 0-.079.206c.049.101.128.176.255.131a.266.266 0 0 0 .143-.292M38.479 11.088a.424.424 0 1 0-.124.836c.21.027.416-.187.446-.465a.33.33 0 0 0-.322-.37M21.413 7.47c-.064.06-.027.215.07.312a.135.135 0 0 0 .222 0c.075-.086.12-.184.03-.289a.255.255 0 0 0-.322-.022M43.808 21.982c.228-.06.183.176.498.067s.413-.446.229-.593-.375-.056-.405-.1c-.03-.046-.116-.282-.293-.218-.375.131-.165.435-.262.51-.098.075-.349.079-.503.176a.376.376 0 0 0-.16.589.5.5 0 0 0 .127.12q.04.04.09.067c.108.056.296.24.45.143.154-.098.045-.221.06-.308.146-.195-.034-.401.168-.453M12.608 5.434c.123.049.345-.173.3-.27s-.338-.135-.375 0a.24.24 0 0 0 .075.27M41.959 24.386c-.053.023-.053.124-.034.169a.175.175 0 0 0 .184.075c.063-.03.037-.161 0-.191a.18.18 0 0 0-.15-.053M42.296 23.35a.4.4 0 0 0-.075-.277c-.067-.07-.255 0-.281.12q-.001.106.038.207c.164.078.307.052.318-.05M9.502 6.81c-.052.082-.138.307-.075.375.064.067.282-.049.293-.087.026-.104.086-.232 0-.33-.086-.097-.195 0-.218.042M46.121 22.192c.128.072.225 0 .255-.075s.056-.213-.037-.262a.2.2 0 0 0-.075 0 .34.34 0 0 0 .075-.341l.034.026q-.036-.33-.083-.66a.135.135 0 0 1-.038-.206v-.027c0-.105-.037-.21-.052-.318a.6.6 0 0 0-.158-.135.4.4 0 0 0-.25-.045.1.1 0 0 1 0-.034.375.375 0 0 0-.436-.128.35.35 0 0 0 0 .447.3.3 0 0 0 .135.06c.034.146.12.19.079.243s-.21.132-.184.267.435.232.499.213c.064-.018.225-.138.3 0q.04.075.064.158a.214.214 0 0 0-.263-.053.424.424 0 0 0-.273.488.35.35 0 0 0 .33.15c-.087.034-.027.18.078.232M44.595 23.94a.49.49 0 0 0-.218-.558.375.375 0 0 0-.375.225.312.312 0 0 0 .188.446c.18.068.352.02.405-.112M44.092 29.854c-.112-.037-.157.034-.198.113a.162.162 0 0 0 .105.247.7.7 0 0 0 .228-.034.244.244 0 0 0-.135-.326M31.909 3.837a.375.375 0 0 0 .374.387.24.24 0 0 0 .215-.173.4.4 0 0 0-.267-.432.28.28 0 0 0-.322.218M34.253 7.253a.22.22 0 0 0 .22.229.293.293 0 0 0 .275-.293c-.053-.045-.12-.146-.218-.18-.098-.033-.266.09-.278.244M32.081 3l-.304-.12a.47.47 0 0 0 .304.12M34.466 5.662a.424.424 0 0 0-.446.29.46.46 0 0 0 .33.43c.139.023.315-.142.337-.326s-.04-.367-.22-.394M37.59 8.966a.416.416 0 0 0 .281.454c.128.019.375-.244.375-.412a.33.33 0 0 0-.251-.3.337.337 0 0 0-.405.258M38.13 10.503c-.045.026-.135.082-.109.135a.17.17 0 0 0 .158.071c.041 0 .15-.109.12-.161a.17.17 0 0 0-.169-.045M15.281 8.513a.24.24 0 0 0 .034-.323.25.25 0 0 0-.349-.03.19.19 0 0 0-.03.308.236.236 0 0 0 .345.045M17.4 5.269a.23.23 0 0 0-.02.27q.028.041.069.067c.09.071.195.146.281.064.142-.158.161-.311.067-.405a.266.266 0 0 0-.397.004M15.341 9.892a.3.3 0 0 0 0-.375.224.224 0 0 0-.318 0 .27.27 0 0 0-.023.375.266.266 0 0 0 .341 0M16.673 3.102a.53.53 0 0 0 .75-.03.5.5 0 0 0 .086-.619q-.487.147-.964.315a.4.4 0 0 0 .127.334M12.87 8.746a.267.267 0 0 0 0 .375.25.25 0 0 0 .375 0 .263.263 0 0 0 0-.35.25.25 0 0 0-.375-.025M20.07 8.396a.15.15 0 0 0 0 .173c.038.034.127.097.165.052a.17.17 0 0 0 0-.172c.011-.034-.127-.098-.165-.053M18.746 7.297a.29.29 0 0 0-.375.022.345.345 0 0 0-.03.447.44.44 0 0 0 .514.033c.064-.09.008-.36-.109-.502M17.895 4.114a.41.41 0 0 0-.484 0 .35.35 0 0 0 .053.44.213.213 0 0 0 .315-.042c.157-.165.217-.308.116-.398M14.156 5.114a.327.327 0 0 0-.487.023.4.4 0 0 0-.06.502.48.48 0 0 0 .54 0 .327.327 0 0 0 .007-.525M13.391 4.178c.173.199.375.15.559.038.083.116.12.285.315.217a.225.225 0 0 0 .165-.247c0-.203-.184-.203-.338-.214 0-.056 0-.105-.026-.158q-.348.17-.686.35zM20.246 4.44c-.093-.158-.243-.177-.435 0q-.115.239-.198.491a.22.22 0 0 0 .078.244q.038.027.083.037a.23.23 0 0 0 .292-.135q.045-.102.12-.184a.375.375 0 0 0 .06-.453M13.305 6.157a.311.311 0 0 0-.566-.023q-.135.226-.207.476a.48.48 0 0 0 .282.5c.101.044.352.052.375-.177-.132-.375.146-.375.139-.649a.4.4 0 0 0-.023-.127M14.449 7.065a.177.177 0 0 0 0-.278.24.24 0 0 0-.222.03c-.045.038-.12.2-.07.263.048.064.228.03.292-.015M15.308 6.596c-.124-.128-.297-.105-.458.056a.27.27 0 0 0-.053.375.53.53 0 0 0 .54.053.318.318 0 0 0-.03-.484M11.794 7.477c-.03.034 0 .083 0 .101 0 .02.075 0 .09 0a.07.07 0 0 0 .018-.08.068.068 0 0 0-.12-.006zM32.074 8.662a.416.416 0 0 0-.131-.547.446.446 0 0 0-.65.13.375.375 0 0 0 .076.515.56.56 0 0 0 .705-.098M32.584 8.085a.27.27 0 0 0-.188-.266.31.31 0 0 0-.303.195.24.24 0 0 0 .19.262.27.27 0 0 0 .3-.19M30.99 5.748a.25.25 0 0 0-.079.413.33.33 0 0 0 .289.064.28.28 0 0 0 .15-.214.29.29 0 0 0-.36-.263M31.001 9.438c.18 0 .15-.168.206-.236a.394.394 0 0 0-.048-.57.375.375 0 0 0-.42.068.28.28 0 0 0-.053.375c.06.116.131.367.315.363M30.574 7.571c.071 0 .086-.251.052-.401q.02.033.049.06s.116-.034.116-.057c0-.022.019-.153-.06-.183s-.135.075-.131.101a.1.1 0 0 0-.023-.034c-.086-.067-.28.079-.31.266-.03.188.213.267.307.248"/><path fill="#fff" d="M36.964 10.623a.2.2 0 0 0 .082-.139c0-.037-.12-.131-.157-.112-.038.018-.053.142-.042.195.012.052.098.067.117.056M31.958 5.812a.25.25 0 0 0-.345.04.256.256 0 0 0 .048.35.29.29 0 0 0 .375-.053.247.247 0 0 0-.079-.337M35.104 8.059a.256.256 0 1 0 .052-.51.28.28 0 0 0-.262.236.24.24 0 0 0 .21.274M36.934 12.42a.25.25 0 0 0 .139-.289.24.24 0 0 0-.323-.131.19.19 0 0 0-.154.192q.002.045.023.085a.236.236 0 0 0 .315.143M34.871 6.877c-.049-.038-.131 0-.161.034-.03.033-.06.165 0 .198.06.034.165-.03.187-.067a.14.14 0 0 0-.026-.165M34.691 9.273a.69.69 0 0 0-.15-.72.47.47 0 0 0-.622.173.53.53 0 0 0 .135.64.476.476 0 0 0 .637-.093M32.76 7.065a.224.224 0 0 0 0-.323.27.27 0 0 0-.218-.075c-.146.02-.183.124-.176.398.128.052.255.161.394 0M28.294 6.128a.177.177 0 0 0-.27.075.33.33 0 0 0 0 .247c.041.056.277.079.337 0a.23.23 0 0 0-.067-.322M27.799 3.382a.32.32 0 0 0-.435.03.405.405 0 0 0 .045.484.44.44 0 0 0 .559-.097c.063-.11-.02-.312-.17-.417M28.039 7.165a.5.5 0 0 0 .206 0c.105-.15.098-.296 0-.318a.4.4 0 0 0-.285.033c-.079.05-.026.244.079.285M37.23 9.952c.022-.146-.173-.206-.259-.25-.086-.046-.199.044-.221.168-.023.124.03.229.157.221.128-.007.3.011.323-.139M27.87 8.763c.094-.21-.195-.375-.296-.33-.102.045-.169.323-.068.401.102.08.274.135.364-.07M26.378 6.51c.082-.113 0-.376-.158-.48a.3.3 0 0 0-.427.052.4.4 0 0 0 .056.529.43.43 0 0 0 .529-.102M26.306 9.668a.18.18 0 0 0 .158-.037.135.135 0 0 0-.034-.192c-.094-.048-.15.045-.172.087a.15.15 0 0 0 .048.142M28.241 5.19c.053-.05 0-.15-.041-.192a.12.12 0 0 0-.139 0c-.034.034 0 .12 0 .165s.131.075.18.026M28.729 5.19a.31.31 0 0 0 .469-.123c.104-.176.082-.356-.053-.427a.495.495 0 0 0-.585.135.38.38 0 0 0 .169.416M30.049 2.393a.24.24 0 0 0 .202.063.3.3 0 0 0 .116-.037 26 26 0 0 0-1.147-.304.373.373 0 0 0 .113.521.59.59 0 0 0 .43.09l.053.034c.042 0 .177-.019.184-.079s0-.048-.034-.075c-.033-.026.023 0 .03-.03a.4.4 0 0 0 .053-.183M30.878 4.747a.3.3 0 0 0 .03-.064q.027.076.086.131a.5.5 0 0 0-.045.177.334.334 0 0 0 .326.397.375.375 0 0 0 .375-.296l.053.026a.316.316 0 0 0 .524-.064q.026.042.068.068a.28.28 0 0 0 .33-.143.29.29 0 0 0-.06-.408.247.247 0 0 0-.334.105.55.55 0 0 0-.199-.14.45.45 0 0 1-.277-.194.53.53 0 0 0-.454-.21.45.45 0 0 0-.397.289v.045a.43.43 0 0 0-.177-.26c-.13-.078-.303 0-.423.177a.375.375 0 0 0 .03.443.46.46 0 0 0 .544-.08M32.074 6.941c.108 0 .206-.045.195-.161s-.068-.311-.158-.315-.195.184-.232.266.078.206.195.21M28.496 3.843c0-.045-.063-.101-.112-.124s-.139 0-.15.083c-.011.082.101.108.15.12a.12.12 0 0 0 .112-.08M28.991 3.78a.53.53 0 0 0 .687-.042.55.55 0 0 0-.14-.675.52.52 0 0 0-.633.165.405.405 0 0 0 .086.551M28.71 2.467a.4.4 0 0 0 .049-.127c.18.06.277-.05.375-.192l-.03-.06q-.54-.13-1.092-.225a.4.4 0 0 0-.09.087.469.469 0 0 0 .777.513zM43.519 27.007a.263.263 0 0 0 .232-.465.26.26 0 0 0-.337.098.29.29 0 0 0 .105.367M25.421 6.836a.145.145 0 0 0-.194-.05.15.15 0 0 0-.053.05c-.049.064-.124.259-.075.304s.244 0 .319-.03.078-.17.003-.274M43.56 26.303a.29.29 0 0 0 .206-.375.252.252 0 0 0-.42 0 .35.35 0 0 0-.022.292.28.28 0 0 0 .236.083M43.699 28.38a.243.243 0 0 0 .375-.09.52.52 0 0 0-.109-.498.335.335 0 0 0-.458.176c-.093.14-.01.312.192.413M41.723 20.778c0-.03 0-.048-.027-.082-.026-.034-.071 0-.086.026s0 .071 0 .071.094.02.112-.015M42.409 25.692c.052-.094-.12-.266-.308-.27-.187-.004-.228.247-.198.341s.468.023.506-.071M44.153 32.31c.135-.064.097-.026.22.06.125.087.35.135.425-.123a.495.495 0 0 0-.338-.57.59.59 0 0 0-.667.423c-.03.203.228.27.36.21M41.903 18.6a.406.406 0 0 0-.514-.15.381.381 0 1 0 .348.679.373.373 0 0 0 .166-.529M37.061 8.527c.041 0 .15-.094.117-.157a.18.18 0 0 0-.188-.057.17.17 0 0 0-.064.147.14.14 0 0 0 .135.067M41.34 26.565a.375.375 0 0 0-.499.15.56.56 0 0 0 .199.683.42.42 0 0 0 .521-.207.454.454 0 0 0-.221-.626M45.746 27.802c-.082.184-.034.401.098.454.08.031.17.031.251 0q.062-.309.113-.623a.307.307 0 0 0-.462.17M40.02 27.75a.19.19 0 0 0-.161-.102.21.21 0 0 0-.116.15c0 .042.086.162.157.162s.131-.165.12-.21M45.315 30.69q-.047.207-.116.409a.206.206 0 0 0 .049.33q.158-.46.3-.926a.22.22 0 0 0-.233.187M45.57 24.316a.55.55 0 0 0 .649-.236.52.52 0 0 0-.255-.6.405.405 0 0 0-.536.16.54.54 0 0 0 .142.676M24.083 5.742a.28.28 0 0 0-.225.052c-.075.071 0 .263.097.289a.4.4 0 0 0 .184-.026c.082-.15.049-.293-.056-.315M44.73 28.935c-.112-.038-.157.03-.195.108a.16.16 0 0 0 .03.218q.031.025.071.034a.8.8 0 0 0 .23-.034.24.24 0 0 0-.136-.326M40.808 30.08a.69.69 0 0 0 .69-.252.47.47 0 0 0-.26-.593.53.53 0 0 0-.614.225.473.473 0 0 0 .183.62M38.917 13.608a.18.18 0 0 0 .08-.139.135.135 0 0 0-.155-.112c-.097.026-.052.146-.04.195.01.049.097.071.115.056M37.515 13.185a.3.3 0 0 0 .206-.117c.087-.172 0-.285-.19-.375-.132.083-.286.132-.248.315a.21.21 0 0 0 .232.177M37.556 7.616a.45.45 0 0 0-.067-.233.22.22 0 0 0 .24-.187.26.26 0 0 0-.308-.282c-.169.027-.228-.075-.334-.168a1 1 0 0 0 .094-.132.2.2 0 0 0 .079-.022q.01.038.023.075a.27.27 0 0 0 .3.124c.112-.045.112-.248.093-.353a.44.44 0 0 0-.315-.217c0-.068.027-.064.109-.15l.045-.06-.487-.353a.65.65 0 0 0-.233.229.3.3 0 0 0-.038.142c-.12 0-.194.087-.224.248a.375.375 0 0 0 .217.495 1.2 1.2 0 0 1-.255.082.233.233 0 0 0-.259.2.34.34 0 0 0 .102.374c.404.308.554.3.914-.052l.034-.023a.7.7 0 0 0-.105.165.154.154 0 0 0 .12.225.187.187 0 0 0 .255-.127M37.328 10.002a.07.07 0 0 0 .044-.067.1.1 0 0 0-.007-.027c-.019-.041-.075-.038-.098-.03a.1.1 0 0 0-.018.09s.048.049.078.034M38.003 10.207a.41.41 0 0 0 .16-.398.251.251 0 0 0-.457.049.24.24 0 0 0 .026.187c.064.147.177.21.27.162M40.519 15.357a.424.424 0 0 0 .101-.525c-.082-.176-.251-.214-.472-.105a.34.34 0 0 0-.147.375c.068.154.405.315.518.255M40.339 23.255c.221.063.345-.248.281-.338s-.341-.12-.405 0-.094.274.124.337M39.278 21.987a.14.14 0 0 0 .154-.016.14.14 0 0 0 .033-.044c.034-.098-.068-.143-.109-.161a.16.16 0 0 0-.135.07.16.16 0 0 0 .057.15M40.069 16.28c-.049-.072-.214-.226-.304-.188-.09.037-.052.27-.026.352a.147.147 0 0 0 .172.1.15.15 0 0 0 .064-.032c.094-.072.165-.139.094-.233M39.746 13.777c.038-.147-.12-.315-.341-.375a.28.28 0 0 0-.296.198.35.35 0 0 0 .21.394.4.4 0 0 0 .427-.217M39.668 25.219a.23.23 0 0 0 .206-.068.15.15 0 0 0-.068-.24c-.063-.022-.243-.056-.3.083s.105.206.161.225M41.269 14.88c-.023-.057-.188-.154-.248-.124s-.082.24-.052.262.195.128.247.086a.26.26 0 0 0 .053-.225M43.009 23.295a.17.17 0 0 0-.117-.251.3.3 0 0 0-.24.045c-.052.048-.04.285.06.33a.23.23 0 0 0 .297-.124M44.843 23.093a.255.255 0 0 0 .138-.3.214.214 0 0 0-.281-.142.243.243 0 0 0-.135.296.21.21 0 0 0 .19.159q.046.002.087-.013M45.289 19.624a.22.22 0 0 0-.086-.308.245.245 0 0 0-.334.105.26.26 0 0 0 .123.33.236.236 0 0 0 .297-.127M42.806 21.229a.303.303 0 0 0-.112-.417.44.44 0 0 0-.465.072c-.023-.05-.06-.12-.135-.105s-.079.135-.064.153a.2.2 0 0 0 .135.08.44.44 0 0 0 .188.445c.123.064.367-.06.453-.228M41.936 14.373a.25.25 0 0 0-.146-.292.19.19 0 0 0-.259.045c-.12.146-.056.277.041.423.162-.018.327.015.364-.176M41.828 15.85c-.038-.025-.177-.033-.203 0-.026.034.056.162.094.177a.14.14 0 0 0 .165-.041.14.14 0 0 0-.056-.135M41.921 17.655a.24.24 0 0 0 .193-.199.24.24 0 0 0-.005-.097.4.4 0 0 0-.454-.233.28.28 0 0 0-.169.342.375.375 0 0 0 .435.187M45.266 22.639c.113.052.304-.06.375-.222a.32.32 0 0 0-.09-.427.405.405 0 0 0-.476.112.44.44 0 0 0 .191.537M15.345 4.687a.333.333 0 0 0 .056-.438.267.267 0 0 0-.375-.042.375.375 0 0 0 0 .48.22.22 0 0 0 .32 0M11.059 5.61v-.018l-.098.071a.23.23 0 0 0 .098-.052M41.348 13.527a.47.47 0 0 0 .54-.191.38.38 0 0 0 .28-.162q.085-.14.14-.296a1 1 0 0 0 .153-.03l.087-.041a.6.6 0 0 0 .16 0 .26.26 0 0 0-.07.18c0 .142-.316.079-.308.277.008.2-.221.285-.187.525.033.24.22.45.412.35a.82.82 0 0 0 .345-.432.207.207 0 0 0 .322-.116.21.21 0 0 0-.217-.222c.184-.045.532-.187.409-.506a.42.42 0 0 0-.458-.214.47.47 0 0 0 0-.42.42.42 0 0 0-.322-.206 1 1 0 0 0-.105-.082.3.3 0 0 0-.218-.027.454.454 0 0 0-.322.552c0 .048 0 .1.03.157-.102 0-.199.026-.293.053h-.03c-.146-.045-.375.09-.495.27a.44.44 0 0 0 .146.58M15.525 5.861a.245.245 0 0 0-.345.049.206.206 0 0 0 0 .311.274.274 0 0 0 .353 0 .26.26 0 0 0-.008-.36M11.621 9.27a.216.216 0 0 0 .092-.25.2.2 0 0 0-.047-.08.2.2 0 0 0-.191-.038.27.27 0 0 0-.139.18c-.004.16.191.232.285.187M46.324 25.317l.131.045c0-.184 0-.375.026-.547a.5.5 0 0 0-.255.206.207.207 0 0 0 .098.296M11.329 6.94a.35.35 0 0 0-.068-.468.327.327 0 0 0-.491.022.314.314 0 0 0-.045.458.484.484 0 0 0 .604-.011M41.415 24.773c0-.11-.307-.263-.409-.158a.25.25 0 0 0 0 .323c.113.097.413-.057.409-.165M40.74 10.666a.4.4 0 0 0-.105-.323.24.24 0 0 0 .113-.228c0-.17-.165-.203-.32-.248-.1.12-.235.225-.127.394l.038.037a.57.57 0 0 0-.252.375.243.243 0 0 0 .237.252c.217.018.405-.11.416-.26M40.901 12.727a.26.26 0 0 0 .173-.154c.037-.168-.105-.206-.229-.25-.127.082-.206.187-.124.325a.2.2 0 0 0 .18.08M40.628 11.94a.113.113 0 0 0-.045-.176.25.25 0 0 0-.207.038c-.067.03-.135.049-.172.12-.038.071.052.157.157.154a.37.37 0 0 0 .267-.135M39.615 10.7c-.06.052-.135.112-.127.19.007.08.228.177.333.12s.083-.138.049-.22a.162.162 0 0 0-.255-.09M40.121 13.474c.229-.079.311-.341.203-.626a.41.41 0 0 0-.548-.24.506.506 0 0 0-.262.622.525.525 0 0 0 .607.244M40.586 16.113a.247.247 0 0 0 .338.157.28.28 0 0 0 .135-.33.293.293 0 0 0-.375-.123.225.225 0 0 0-.098.296M39.694 11.94a.195.195 0 0 0 .139-.274.214.214 0 0 0-.263-.127c-.101.022-.191.277-.12.345a.28.28 0 0 0 .244.056"/><path fill="#fff" d="M25.121 7.606a.225.225 0 0 0 .221-.165.3.3 0 0 0 .038-.21c-.113 0-.296-.139-.375-.038s.037.274.052.375zM40.838 22.583c.04.03.183.075.243 0s-.067-.195-.116-.218-.154-.037-.195.045a.154.154 0 0 0 .067.173M16.148 3.14a.28.28 0 0 0 0-.218c-.375.135-.75.285-1.095.442.079.096.184.167.303.203a.86.86 0 0 0 .792-.428M41.501 20.565c0-.112.09-.31-.022-.375-.113-.063-.267.075-.375.105v.08a.22.22 0 0 0 .191.194.3.3 0 0 0 .206-.004M41.168 21.101a.25.25 0 0 0-.147-.293.19.19 0 0 0-.258.046c-.12.146-.057.277.04.423.162-.018.327.008.364-.176M39.604 12.165a.39.39 0 0 0 .304.401c.18.038.296-.06.34-.296.03-.157-.074-.375-.194-.401a.435.435 0 0 0-.45.296M22.29 9.333a.244.244 0 0 0-.157-.418.25.25 0 0 0-.165.047.243.243 0 0 0 0 .349.194.194 0 0 0 .248.08.2.2 0 0 0 .074-.058M21.746 4.47a.454.454 0 0 0-.892-.086c-.045.173.184.375.424.42a.44.44 0 0 0 .468-.334M23.246 6.124c0-.045 0-.15-.071-.199a.296.296 0 0 0-.413 0 .304.304 0 0 0 .057.375c.086.08.281.015.427-.176M21.127 5.734c.023 0 .05-.131 0-.172-.048-.042-.146.045-.176.082a.13.13 0 0 0 .026.139c.02.022.113-.019.15-.049M20.918 6.199a.14.14 0 0 0-.165.033c-.027.034-.057.165 0 .199.056.034.168-.03.187-.067a.135.135 0 0 0-.023-.165M16.294 7.89a.34.34 0 0 0 .056-.438.48.48 0 0 0-.6.018.3.3 0 0 0 .049.405.33.33 0 0 0 .495.015M21.146 5.19a.27.27 0 0 0-.206-.104c-.169.026-.154.172-.15.304.124.093.248.123.349 0a.21.21 0 0 0 .007-.2M23.197 8.104a.214.214 0 0 0 .312-.057c.082-.13.067-.375-.027-.416a.38.38 0 0 0-.375.139.228.228 0 0 0 .09.334M24.765 5.028a.6.6 0 0 0 .266-.124.14.14 0 0 0 .058-.128.14.14 0 0 0-.08-.116.21.21 0 0 0-.195-.052.3.3 0 0 0-.105-.116.31.31 0 0 0-.375.063c-.139.203-.135.44 0 .525a.42.42 0 0 0 .431-.052M24.416 4.238a.243.243 0 0 0 .019-.375.274.274 0 0 0-.352 0 .28.28 0 0 0 0 .375.23.23 0 0 0 .333 0M25.035 5.993a.153.153 0 0 0 .236-.09c.03-.07.094-.273 0-.318-.093-.045-.273.067-.318.135a.19.19 0 0 0 .017.226q.027.03.065.047M23.651 5.273c-.09-.075-.18 0-.236.09s-.03.247.071.266.255.079.304-.052c.049-.132-.075-.252-.139-.304M23.708 9.337c.045-.026.12-.202.075-.25-.046-.05-.218 0-.244 0-.027 0-.087.172-.053.22a.22.22 0 0 0 .221.03M23.854 3.256a.56.56 0 0 0-.679.124c-.146.195-.06.476.203.667a.405.405 0 0 0 .57-.086.533.533 0 0 0-.094-.705M20.891 6.837a.28.28 0 0 0-.033-.248.195.195 0 0 0-.304-.03.214.214 0 0 0-.023.293c.056.086.327.075.36-.015M18.281 5.247a.27.27 0 0 0 0 .352c.146.128.297.053.435 0 .03-.288 0-.397-.157-.442a.25.25 0 0 0-.278.09M19.204 4.902c.183-.195.202-.345.067-.48a.4.4 0 0 0-.472.026.45.45 0 0 0 .064.484.23.23 0 0 0 .34-.03M18.435 6.589c.158-.101.277-.206.202-.375a.24.24 0 0 0-.195-.116.38.38 0 0 0-.232.176c-.071.176.098.225.225.315M18.296 3.732a.41.41 0 0 1 .375.277.375.375 0 0 0 .439.113.48.48 0 0 0 .143-.304.2.2 0 0 0 .06-.079.22.22 0 0 0-.162-.273.15.15 0 0 0-.168-.068.59.59 0 0 1-.48-.109.2.2 0 0 0-.304.087c-.087.135-.042.341.097.356M17.194 7.908a.28.28 0 0 0-.357 0 .29.29 0 0 0 0 .375.23.23 0 0 0 .32 0A.246.246 0 0 0 17.248 8a.25.25 0 0 0-.055-.09M17.156 9.214a.145.145 0 0 0 .05-.195.14.14 0 0 0-.05-.053c-.082-.071-.18-.124-.285-.034a.296.296 0 0 0 .03.375c.09.008.184-.04.255-.093M19.939 6.81c-.09-.076-.158-.027-.221.037a.16.16 0 0 0-.054.212.16.16 0 0 0 .053.058c.072.037.158.082.226.045.067-.038.09-.274-.004-.353M20.576 3.466c.062.024.13.024.191 0 .132-.064.188.266.375.187.188-.079.35.101.56 0s.337-.375.172-.51a.83.83 0 0 0-.548-.165.2.2 0 0 0-.116.03.375.375 0 0 0-.053-.431c-.123-.086-.33 0-.45.172a.285.285 0 0 0-.333.06.42.42 0 0 0-.034.503.47.47 0 0 0-.398.142.48.48 0 0 0 .057.623.4.4 0 0 0 .532 0 .62.62 0 0 0 .045-.611M19.627 2.974l.26-.248a2 2 0 0 0-.117-.206.27.27 0 0 0-.24-.097.32.32 0 0 0-.094-.237.21.21 0 0 1-.075-.213l-.671.153q.007.015.022.023c.203.06.18.24.214.394a.248.248 0 0 0 .375.19l.049-.022a.2.2 0 0 0 .052.11.9.9 0 0 0 .225.153M20.64 6.127c.09 0 .127-.105.086-.202a.38.38 0 0 0-.225-.2.113.113 0 0 0-.146.106.25.25 0 0 0 .113.18c.052.049.093.109.172.116M19.909 9.59s.03-.064 0-.087a.067.067 0 0 0-.101 0 .08.08 0 0 0 0 .102c.026.015.086 0 .1-.015M19.808 9.108c.112-.116.13-.24.048-.311a.41.41 0 0 0-.427 0 .26.26 0 0 0 .03.352.24.24 0 0 0 .349-.041"/><path fill="#20377D" d="M40.586 24.836H22.88v13.732h17.707z"/><path fill="#00BFB3" d="M38.561 35.568h-13.44v1.287h13.44zM38.561 32.475h-13.44v1.286h13.44zM38.561 29.38h-13.44v1.287h13.44z"/><path fill="#20377D" d="M24.761 9.543H7.054v13.733H24.76z"/><path fill="#7DE2D1" d="M14.989 11.176H8.738v4.11h6.25z"/><path fill="#00BFB3" d="M14.989 11.176H8.738v1.237h6.25z"/><path fill="#7DE2D1" d="M23.085 11.176h-6.251v4.11h6.251z"/><path fill="#00BFB3" d="M23.085 11.176h-6.251v1.237h6.251z"/><path fill="#7DE2D1" d="M14.989 17.502H8.738v4.11h6.25z"/><path fill="#00BFB3" d="M14.989 17.502H8.738v1.238h6.25z"/><path fill="#009A8E" d="M23.085 17.502h-6.251v4.11h6.251z"/><path fill="#343741" d="M23.085 17.502h-6.251v1.238h6.251z"/><path fill="#7DE2D1" d="M33.473 17.404H15.764v13.733h17.707z"/><path fill="#00BFB3" d="m28.136 23.43-4.252 6.386h8.508zM23.093 29.287l2.355-3.529-2.87-4.309-5.568 8.366h5.734zM26.464 22.482a1.601 1.601 0 1 0 0-3.203 1.601 1.601 0 0 0 0 3.203"/><path fill="#CED5E1" d="M8.854 32.508c.292.206.442.225.562.034l-.228-.026a.34.34 0 0 1-.327-.353c.001-.06.022-.118.06-.165l-.187.037-.041.09c.06.124.108.255.16.383M9.214 30.342a.3.3 0 0 1 .116-.112.2.2 0 0 1 .068-.02l-.08-.333a.4.4 0 0 0-.04.037.47.47 0 0 0-.064.428M15.218 39.529l.292.157c-.03-.097-.225-.21-.293-.157M15.233 38.622a.3.3 0 0 1 .1-.057.3.3 0 0 1 .147 0 .33.33 0 0 0-.116-.176.296.296 0 0 0-.315.502 1 1 0 0 0 .082.034.3.3 0 0 1 .102-.303M14.194 38.423a.2.2 0 0 0-.105 0c-.169.052-.135.195-.117.33l.353.24a.7.7 0 0 0-.112-.169c.078-.09.21-.154.127-.3h-.037a.4.4 0 0 1-.11-.101M9.829 32.606a1.3 1.3 0 0 0-.203-.04.34.34 0 0 0 .323.318c.153 0 .307.034.457.064a14 14 0 0 1-.199-.413.42.42 0 0 1-.378.071M10.781 34.814s0 .023-.022.03l.052.165a.6.6 0 0 0 .687.221s.033-.026.033-.04a.22.22 0 0 1 .169-.207 11 11 0 0 1-.296-.394c-.049.083-.09.165-.24.15-.03-.056-.049-.142-.098-.165h-.022c-.12.049-.251.075-.263.24M16.661 38.94c-.274.176-.33-.034-.555 0a.46.46 0 0 1-.225.228.26.26 0 0 0 .195.315q.215.072.443.083a.42.42 0 0 0 .375-.334.3.3 0 0 0-.083-.255l-.093-.041zM9.953 34.617c.037.053.07.109.108.165a.32.32 0 0 0-.108-.165M11.996 36.36a.4.4 0 0 1-.105.105.43.43 0 0 0 .207.314l.048.027a.4.4 0 0 1 .173.078.375.375 0 0 0 .427-.15.4.4 0 0 0 .064-.172.34.34 0 0 1-.424-.023.334.334 0 0 1-.135-.506.4.4 0 0 0-.202.09.38.38 0 0 1-.053.236M12.983 36.408a.333.333 0 0 0 .135.506.33.33 0 0 0 .435 0c-.188-.157-.375-.334-.57-.514zM10.058 34.166a.2.2 0 0 1 .075 0c0-.086 0-.176-.072-.203a.63.63 0 0 0-.427-.093l-.105.033q.14.25.281.488a.4.4 0 0 0 .165-.03c-.019-.086-.004-.165.082-.195M8.145 30.315c.045.195.098.375.15.574a.21.21 0 0 0 .191-.102.375.375 0 0 0-.071-.457.33.33 0 0 0-.27-.015M10.871 34.066a.23.23 0 0 1 .038-.222l-.128-.21a.345.345 0 0 0-.375.173c-.097.146-.064.259.117.375q.061.035.13.037a.3.3 0 0 1 .218-.153M9.889 32.104a.3.3 0 0 0 .146.038 11 11 0 0 1-.191-.488.2.2 0 0 0-.049.038.29.29 0 0 0 0 .303q.027.016.049.038a1 1 0 0 1 .045.071M14.396 37.815a.19.19 0 0 0-.064-.27.29.29 0 0 0-.375.037.236.236 0 0 0 .042.33.345.345 0 0 0 .397-.097M9.157 33.188q.076.148.15.3l.023-.023c.041-.06-.03-.24-.173-.278M8.52 30.045c-.005-.005 0 0 0 0M12.551 37.645q.311.271.615.514a.48.48 0 0 0 .218-.375.4.4 0 0 0-.053-.202.2.2 0 0 1-.09-.03.22.22 0 0 1-.086-.2.54.54 0 0 0-.292-.168.28.28 0 0 0-.244.113.3.3 0 0 1 0 .112.6.6 0 0 1-.068.236M11.246 36.353s-.045-.034-.06-.052zM11.183 35.853a.43.43 0 0 1 .183-.154.1.1 0 0 0-.026-.034.123.123 0 0 0-.214.045.1.1 0 0 0 0 .03.23.23 0 0 0-.296-.078l-.086.045q.225.292.461.562a.34.34 0 0 1-.023-.416"/><path fill="#CED5E1" d="M8.509 31.574c.064.188.127.375.195.544l.041-.09v-.037a.296.296 0 0 0-.236-.417M8.527 29.54a.43.43 0 0 0 0 .49s0 .027.027.035a.53.53 0 0 0 .622-.087.416.416 0 0 0-.109-.528.4.4 0 0 0-.54.09M14.558 39.15l.146.09a.3.3 0 0 0-.147-.09M14.734 38.463a.41.41 0 0 0-.12-.454.3.3 0 0 0-.42.413q.043.055.105.09h.037a.33.33 0 0 0 .398-.049M13.583 38.146a.2.2 0 0 0-.244-.094.16.16 0 0 0-.128.146l.285.218c.08-.075.17-.139.087-.27M9.199 32.509l.228.026.2.03q.102.012.202.041a.42.42 0 0 0 .375-.071 6 6 0 0 1-.132-.304.19.19 0 0 1-.18-.127 1 1 0 0 0-.048-.072.2.2 0 0 0-.049-.037.8.8 0 0 0-.206-.116.5.5 0 0 0-.192-.023 2 2 0 0 0-.198 0 .38.38 0 0 0-.263.12.27.27 0 0 0-.06.165.34.34 0 0 0 .323.368M10.901 33.836a.23.23 0 0 0-.037.221.3.3 0 0 0-.184.128c-.056.086-.094.18-.251.165-.03-.057-.049-.143-.098-.165a.4.4 0 0 0-.183-.042.2.2 0 0 0-.075 0c-.087.03-.102.11-.083.195v.045c.03.08.049.158.075.237a.6.6 0 0 0 .686.22s.023-.018.023-.03c0-.172.142-.198.262-.247h.03a.21.21 0 0 0 .14-.243c-.098-.158-.203-.32-.305-.484M16.121 38.94a.3.3 0 0 0 .034-.083.34.34 0 0 0-.056-.229l-.132-.067h-.04c-.214.138-.297.037-.432 0a.3.3 0 0 0-.146 0 .304.304 0 0 0-.203.356.28.28 0 0 0 .195.184q.215.072.443.082a.25.25 0 0 0 .112-.022.46.46 0 0 0 .225-.222M11.366 35.7a.43.43 0 0 0-.184.155.34.34 0 0 0 0 .416v.022c0 .02.042.034.06.053.02.019.038.041.064.06a.47.47 0 0 0 .544.06.374.374 0 0 0 .165-.345.5.5 0 0 0-.232-.398.42.42 0 0 0-.417-.022M9.214 30.342a.24.24 0 0 0 0 .146c0 .042.045.102.079.11q.114.024.232.037c-.041-.14-.075-.282-.112-.424a.2.2 0 0 0-.068.019.3.3 0 0 0-.131.112M12.371 36.54a.34.34 0 0 0 .518-.078.4.4 0 0 0 .045-.105 12 12 0 0 1-.477-.48.42.42 0 0 0-.277.29.335.335 0 0 0 .191.374M9.784 33.796a.267.267 0 0 0 .375-.075.51.51 0 0 0-.075-.45c-.109-.083-.304 0-.409.154-.105.153-.071.266.109.37M9.457 31.69c.128-.176.14-.375.027-.457a.375.375 0 0 0-.439.082.32.32 0 0 0 .075.405.27.27 0 0 0 .337-.03M13.241 37.545a.2.2 0 0 0 .09.03.38.38 0 0 0 .315-.128.187.187 0 0 0-.064-.27.29.29 0 0 0-.375.038.24.24 0 0 0-.045.131.22.22 0 0 0 .08.199M8.34 31.006l.079.251q.037.01.075 0c.135-.022.172-.127.153-.27-.105-.019-.21-.094-.307.019M7.988 29.565l.022-.03c.019-.03 0-.105-.049-.15q.01.072.027.18M16.631 39.555a.06.06 0 0 0 .019.09.06.06 0 0 0 .083-.026c.01-.026 0-.067-.03-.075a.06.06 0 0 0-.072.011M12.113 36.803a.33.33 0 0 0-.285.157q.361.366.723.687a.6.6 0 0 0 .083-.244.3.3 0 0 0 0-.113.85.85 0 0 0-.319-.405.4.4 0 0 0-.172-.078zM10.41 35.29l.188.252q.034-.017.048-.053a.23.23 0 0 0-.056-.198.12.12 0 0 0-.09-.039.12.12 0 0 0-.09.039"/><path stroke="#CED5E1" stroke-miterlimit="10" stroke-width="3.31" d="m11.58 30.736-3.015-2.734-2.156 3.364"/><path stroke="#CED5E1" stroke-miterlimit="10" stroke-width="3.31" d="M11.711 35.94a13.4 13.4 0 0 1-3.228-7.264"/><path fill="#CED5E1" d="M38.246 15.42a.42.42 0 0 0-.105-.554.427.427 0 0 0-.573.112.35.35 0 0 0-.057.237.15.15 0 0 1 .18.078.28.28 0 0 1 .03.218.352.352 0 0 0 .525-.09M37.331 13.44a.52.52 0 0 1 .263-.243c-.038-.09-.075-.165-.09-.218a10 10 0 0 0-.24-.307.44.44 0 0 1-.06.281.4.4 0 0 1-.495.113.2.2 0 0 1 0 .04.23.23 0 0 1-.15.113q0 .124.049.237l.082-.034a.26.26 0 0 1 .308.18q.037.123.086.247a.5.5 0 0 0 .217 0l.068-.033a.48.48 0 0 1-.038-.375M37.043 12.406l-.09-.105v.022a.3.3 0 0 0-.023.075.5.5 0 0 1 .113.008M39.788 17.498q-.062-.215-.128-.424a.304.304 0 0 0 .03.375.25.25 0 0 0 .098.049M35.921 11.235l-.142-.135a1 1 0 0 1-.042.1.3.3 0 0 1 .083.065.2.2 0 0 1 .101-.03M35.824 11.594a.4.4 0 0 1-.072.079q.045.037.102.045h.487q.035.055.075.105v-.03c0-.011 0-.037.019-.052a9 9 0 0 0-.27-.274.2.2 0 0 1 0 .063.224.224 0 0 1-.254.11.2.2 0 0 1-.087-.046M34.823 10.353a.5.5 0 0 1-.105-.135l-.14-.105c-.07.098-.082.188-.022.248a.18.18 0 0 0 .207.037.2.2 0 0 0 .06-.045M37.68 14.483c.053.098.15.101.248.082.097-.018.22-.033.326-.06a.5.5 0 0 0 .217-.086 7 7 0 0 0-.213-.345.6.6 0 0 1-.21.128.45.45 0 0 1-.282-.019c-.131.116-.13.21-.086.3M30.716 9.254a.27.27 0 0 0 .098-.16 1.2 1.2 0 0 1-.165-.203.4.4 0 0 1-.05-.192.4.4 0 0 0-.097-.04l-.172.58c.03 0 .127.038.274.09a.7.7 0 0 0 .112-.075M39.413 18.757a.43.43 0 0 0-.207-.458.173.173 0 0 0-.232.026 2 2 0 0 0-.176.27c.052.225.097.45.142.683a.28.28 0 0 0 .255-.124q.135-.185.218-.398M35.678 12.69c.048.053.097.11.15.162a.2.2 0 0 0 .104-.094.2.2 0 0 0 0-.041.4.4 0 0 0 .495-.113.405.405 0 0 0-.063-.513.54.54 0 0 0-.615.138.33.33 0 0 0-.023.218.2.2 0 0 0-.06.019c.032.07.036.15.012.225M31.463 8.816a.26.26 0 0 0 .374-.094q.06-.092.072-.202a11 11 0 0 0-.525-.229.1.1 0 0 0-.034.026.375.375 0 0 0 .112.499M38.696 17.685c.09-.154.068-.311-.048-.375a.4.4 0 0 0-.222-.03q.084.253.161.517a.3.3 0 0 0 .11-.112M36.019 13.065q.118.135.232.277c0-.034 0-.068-.03-.098a.26.26 0 0 0-.202-.18M34.845 11.388h.049a.35.35 0 0 0 .169-.139.22.22 0 0 0 .256-.002.2.2 0 0 0 .062-.065.22.22 0 0 0-.063-.274.27.27 0 0 0-.26 0 .3.3 0 0 0-.172-.101c-.123 0-.184.067-.244.15l-.048.056q.075.039.142.094a.3.3 0 0 1 .109.28M31.796 9.23c-.026.153.083.232.229.277.105-.064.21-.139.176-.281a.19.19 0 0 0-.236-.146c-.067.018-.161.09-.169.15M38.895 15.21l-.101-.198a.3.3 0 0 0-.09.082.3.3 0 0 0-.026.068.46.46 0 0 1 .217.048M39.06 15.645h.045l-.037-.075q.002.038-.008.075M33.071 10.52a.54.54 0 0 1 .042-.252c.067-.18-.053-.375.07-.514a.46.46 0 0 1 .207-.123.6.6 0 0 0-.487-.375.53.53 0 0 0-.48.142c-.124.135 0 .334-.072.514a.6.6 0 0 0-.04.176q.351.195.75.435zm-.288-.66c-.143-.046-.255-.124-.226-.278 0-.06.102-.131.17-.15a.19.19 0 0 1 .236.146c.033.143-.072.218-.18.281M34.189 10.065h.052a.32.32 0 0 0 .184-.075 17 17 0 0 0-.499-.345.1.1 0 0 1 0 .037c.13.093.222.228.263.383M33.634 10.915l.375.29a.33.33 0 0 0-.053-.447.35.35 0 0 1-.127.116.5.5 0 0 1-.195.041M38.64 15.927a.4.4 0 0 0-.21.157.35.35 0 0 0 .079.48.465.465 0 0 0 .596-.045.47.47 0 0 0-.127-.585.3.3 0 0 0-.105-.034.33.33 0 0 1-.233.027"/><path fill="#CED5E1" d="M39.015 15.773a.3.3 0 0 0 .045-.198l-.172-.375a.46.46 0 0 0-.218-.05.4.4 0 0 0-.345.17.35.35 0 0 0 .142.524.5.5 0 0 0 .166.072c.078.02.16.01.232-.027a.3.3 0 0 0 .15-.116M38.048 14.19a.6.6 0 0 0 .21-.128 14 14 0 0 0-.608-.9l-.056.026a.52.52 0 0 0-.263.244.48.48 0 0 0 .023.375.6.6 0 0 0 .247.3q.08.042.165.068c.09.034.189.04.282.015M37.699 15.292a.154.154 0 0 0-.18-.079c.067.12.131.24.195.375l.022-.067a.28.28 0 0 0-.037-.23M36.416 11.82a.233.233 0 0 0 .199.248h.131q-.157-.172-.315-.334s0 .034-.018.053c-.02.019.003.022.003.034M35.393 10.762l-.094-.082v.033q.041.035.093.05M38.689 14.918h.052c-.071-.131-.139-.259-.21-.375-.127.105-.127.199-.082.289s.142.108.24.086M30.645 8.872q.071.11.165.202c0 .045-.022.09-.03.135a.5.5 0 0 0 0 .165c.165.064.375.146.6.251a.3.3 0 0 0 .068-.033.27.27 0 0 0 .1-.162.4.4 0 0 0-.318-.457l-.109-.034q.04-.123.064-.251a.205.205 0 0 0-.169-.278.33.33 0 0 0-.375.102.26.26 0 0 0-.06.153c0 .074.023.146.064.207M40.121 18.795a.4.4 0 0 0-.142-.143.173.173 0 0 0-.233.027 1.2 1.2 0 0 0-.292.649.4.4 0 0 0 .022.112.3.3 0 0 0 .045.06l.499-.079q.094-.145.161-.303c-.03-.11-.06-.214-.06-.323M36.694 13.11a.2.2 0 0 0 0-.041.4.4 0 0 0 .495-.113.44.44 0 0 0 .06-.281l-.222-.27a.5.5 0 0 0-.127 0 .5.5 0 0 0-.375.184.3.3 0 0 0-.023.217.25.25 0 0 0-.19.124.214.214 0 0 0 .07.292c.053.02.11.02.162 0a.23.23 0 0 0 .15-.112M35.678 12.69a.3.3 0 0 0 0-.226.54.54 0 0 0-.23-.292.29.29 0 0 0-.292 0c.177.161.349.337.522.518M32.224 9.17a.26.26 0 0 0 .375-.095.4.4 0 0 0 .067-.176l-.514-.262a.2.2 0 0 0-.045.033.375.375 0 0 0 .117.5M39.409 17.667a.435.435 0 0 0-.51.124.315.315 0 0 0 .15.375.27.27 0 0 0 .409-.113c.09-.169.067-.326-.05-.386M36.675 13.44l-.082.034a.21.21 0 0 0-.132.15q.406.542.75 1.125a.14.14 0 0 0 .094-.083.32.32 0 0 0 .023-.258.234.234 0 0 0-.357-.056.6.6 0 0 1 .11-.218.25.25 0 0 0 0-.214l-.02-.041q-.048-.123-.086-.247a.26.26 0 0 0-.3-.192M35.291 11.565a.283.283 0 0 0 .375.17.376.376 0 0 0 .169-.139.225.225 0 0 0 .319-.068.2.2 0 0 0 0-.064l-.24-.229a.2.2 0 0 0-.102.03.4.4 0 0 0-.172-.1c-.124 0-.184.067-.244.15s-.131.127-.105.25M32.963 9.577a.19.19 0 0 0-.16-.151.2.2 0 0 0-.077.005c-.067.019-.161.09-.169.15-.03.154.083.233.225.278.11-.064.214-.14.18-.282M38.246 16.575a.3.3 0 0 0-.082-.038q.091.219.176.45a.3.3 0 0 0 .056-.052c.038-.09-.037-.27-.15-.36M38.055 15.926a.24.24 0 0 0-.191-.03l.146.315a.17.17 0 0 0 .079-.056.14.14 0 0 0 .044-.123.14.14 0 0 0-.078-.106M33.113 10.267a.54.54 0 0 0-.042.25v.023c.184.117.375.24.563.375a.5.5 0 0 0 .202-.045.34.34 0 0 0 .128-.116.6.6 0 0 0 .093-.206c.042-.15.18-.229.154-.375l-.022-.094a.7.7 0 0 0-.27-.375.65.65 0 0 0-.529-.075.46.46 0 0 0-.206.124c-.124.135-.004.334-.072.514M34.823 10.354c.045.044.105.07.168.075l-.273-.21a.5.5 0 0 0 .104.135M34.159 11.059a.35.35 0 0 0-.079.188q.282.212.559.453l.052-.037a.4.4 0 0 0 .154-.274.3.3 0 0 0-.109-.277.8.8 0 0 0-.142-.094.375.375 0 0 0-.435.041M39.634 16.99a17 17 0 0 0-.259-.7.374.374 0 0 0-.24.401c.014.09.063.17.135.224a.57.57 0 0 0 .364.075"/><path stroke="#CED5E1" stroke-miterlimit="10" stroke-width="3.31" d="m36.446 17.536 3.098 2.643 2.055-3.427"/><path stroke="#CED5E1" stroke-miterlimit="10" stroke-width="3.31" d="M36.165 12.315a13.44 13.44 0 0 1 3.443 7.162"/></g><defs><clipPath id="a"><path fill="#fff" d="M1.5 1.5h45v45h-45z"/></clipPath></defs></svg>