<svg width="48" height="49" viewBox="0 0 48 49" fill="none" xmlns="http://www.w3.org/2000/svg">
<g clip-path="url(#clip0_2596_136586)">
<g clip-path="url(#clip1_2596_136586)">
<path d="M24.6289 47.0137C37.1848 47.0137 47.3633 36.8351 47.3633 24.2793C47.3633 11.7234 37.1848 1.54492 24.6289 1.54492C12.0731 1.54492 1.89453 11.7234 1.89453 24.2793C1.89453 36.8351 12.0731 47.0137 24.6289 47.0137Z" fill="#ECF0F6"/>
<path d="M34.7078 4.04203C34.7533 4.1557 34.8291 4.23906 34.9807 4.21633C34.992 4.21633 34.9996 4.20875 35.011 4.20496C35.0981 4.2277 35.1739 4.21633 35.2535 4.17844C35.0223 4.05719 34.7912 3.93594 34.5563 3.82227C34.5866 3.90563 34.6321 3.98141 34.7116 4.04203H34.7078Z" fill="white"/>
<path d="M35.8673 5.55762C35.6664 5.36059 35.4429 5.33027 35.3065 5.47805C35.2875 5.49699 35.2724 5.52731 35.261 5.55762C35.2345 5.51973 35.1928 5.4932 35.136 5.4932C35.0034 5.49699 35.0299 5.6675 35.0299 5.73191C35.0299 5.76981 35.1398 5.84938 35.1663 5.83422C35.1814 5.82664 35.2004 5.81527 35.2155 5.80391C35.208 5.96305 35.2383 6.12977 35.3027 6.19039C35.4808 6.34953 35.7081 6.3268 35.9052 6.12977C36.106 5.93274 36.0984 5.77359 35.8673 5.55004V5.55762Z" fill="white"/>
<path d="M35.5983 7.15284C35.6172 7.06948 35.5755 6.98991 35.5073 6.9596C35.4391 6.93308 35.3065 6.98612 35.2686 7.05433C35.2345 7.12253 35.3217 7.22105 35.3937 7.24757C35.4543 7.2703 35.5793 7.23241 35.5983 7.14905V7.15284Z" fill="white"/>
<path d="M35.7498 9.86972C35.8824 9.82046 35.9999 9.73331 35.9355 9.59312C35.8862 9.48702 35.7195 9.24831 35.5944 9.27105C35.4694 9.29378 35.4542 9.60449 35.4656 9.72195C35.4808 9.85835 35.5982 9.92656 35.7536 9.86972H35.7498Z" fill="white"/>
<path d="M32.5557 3.50383C32.586 3.6895 32.7451 3.80696 32.9232 3.77665C33.0748 3.75012 33.2036 3.57961 33.1809 3.43942C33.1543 3.26512 32.9952 3.15903 32.7982 3.18176C32.6125 3.2045 32.5216 3.32196 32.5519 3.50383H32.5557Z" fill="white"/>
<path d="M35.1738 11.4986C35.0867 11.5705 35.1966 11.707 35.2269 11.7183C35.2913 11.7411 35.3746 11.7789 35.4428 11.7032C35.511 11.6274 35.4618 11.5478 35.4277 11.5289C35.3708 11.4948 35.2572 11.4266 35.1738 11.4986Z" fill="white"/>
<path d="M34.5183 5.83039C34.5373 5.56895 34.4047 5.32266 34.1698 5.25824C34.0675 5.23172 33.9121 5.25824 33.8287 5.32266C33.5597 5.52727 33.4877 5.80008 33.6696 6.17899C33.7984 6.19414 33.9386 6.23203 34.075 6.22067C34.31 6.20172 34.507 6.01227 34.5183 5.83039Z" fill="white"/>
<path d="M31.7523 2.68945C31.7864 2.73492 31.8319 2.78039 31.8849 2.82207C31.938 2.86375 31.9683 2.93574 32.01 2.99258C32.1464 3.18582 32.3017 3.25023 32.4306 3.16309C32.5063 3.11004 32.5404 3.04184 32.548 2.96605C32.2866 2.86754 32.0213 2.78039 31.7561 2.69324L31.7523 2.68945Z" fill="white"/>
<path d="M33.9879 6.876C33.9122 6.93662 33.9008 6.99725 33.9652 7.06924C34.022 7.14881 34.0865 7.14881 34.1584 7.08818C34.2266 7.03135 34.238 6.97451 34.1812 6.90252C34.1243 6.83053 34.0637 6.81158 33.9879 6.87221V6.876Z" fill="white"/>
<path d="M38.4059 16.6861C38.3566 16.7088 38.3112 16.8263 38.3263 16.8793C38.3415 16.9248 38.4589 16.9817 38.5082 16.9665C38.565 16.9475 38.7014 16.8377 38.6522 16.7543C38.6029 16.6709 38.4552 16.6634 38.4021 16.6899L38.4059 16.6861Z" fill="white"/>
<path d="M42.4829 21.2404C42.3503 21.2442 42.3768 21.4147 42.3768 21.4791C42.3768 21.517 42.4867 21.5966 42.5132 21.5814C42.5738 21.5511 42.6496 21.4829 42.6534 21.4223C42.6534 21.373 42.6117 21.229 42.4829 21.2366V21.2404Z" fill="white"/>
<path d="M43.0437 15.394C43.0437 15.394 43.0627 15.3827 43.0703 15.3751C43.1271 15.3978 43.1839 15.4054 43.2445 15.3902C43.4226 15.341 43.5401 15.1364 43.4908 14.9621C43.4643 14.8825 43.4037 14.8143 43.3279 14.7688C43.3203 14.7234 43.3128 14.6779 43.2938 14.64C43.2256 14.4809 42.9604 14.4202 42.7671 14.5226C42.5057 14.659 42.411 14.8901 42.5284 15.125C42.6345 15.341 42.8884 15.4736 43.0475 15.394H43.0437Z" fill="white"/>
<path d="M46.5108 23.1462C46.7457 23.0818 47.2118 22.881 47.0337 22.4604C46.9465 22.2558 46.6434 22.1345 46.4236 22.1914C46.4236 22.1914 46.4198 22.1914 46.4161 22.1914C46.4994 22.0322 46.507 21.8162 46.4161 21.6344C46.291 21.3919 45.878 21.282 45.6241 21.4222C45.3816 21.5586 45.2718 21.8693 45.3854 22.0815C45.4915 22.2823 45.8477 22.4263 46.1016 22.4035C46.0447 22.4793 46.0068 22.5627 46.0182 22.6423C46.0409 22.8317 45.6052 22.7559 45.6204 23.0174C45.6355 23.2637 45.3437 23.4039 45.3968 23.7146C45.4498 24.0253 45.7037 24.3019 45.9538 24.1579C46.2001 24.0177 46.291 23.8055 46.4009 23.5516C46.4843 23.3622 46.2759 23.1955 46.5146 23.131L46.5108 23.1462Z" fill="white"/>
<path d="M42.267 15.7957C42.1912 15.6365 41.9487 15.5608 41.7895 15.6441C41.6759 15.701 41.619 15.8146 41.6266 15.9321C41.5774 16.0571 41.5622 16.2314 41.6494 16.3565C41.7441 16.4853 41.907 16.527 42.0737 16.4398C42.2329 16.3565 42.3162 16.2238 42.267 16.0533C42.267 16.0495 42.267 16.0458 42.2632 16.042C42.2935 15.9586 42.3011 15.8677 42.2632 15.7957H42.267Z" fill="white"/>
<path d="M37.8565 8.10746C37.8414 8.03168 37.6595 7.86117 37.5723 7.8839C37.4852 7.90664 37.4018 8.17187 37.4321 8.20976C37.4965 8.29312 37.6557 8.42574 37.7277 8.38406C37.7997 8.34238 37.8717 8.18703 37.8565 8.10746Z" fill="white"/>
<path d="M36.9623 10.2145C37.0949 10.3509 37.5534 10.3774 37.6709 10.2524C37.8376 10.0743 37.8073 9.86209 37.5875 9.66506C37.4928 9.57791 37.3905 9.55139 37.2882 9.57033C37.3033 9.52107 37.3147 9.47182 37.3033 9.42635C37.2655 9.25584 37.0457 9.12322 36.8714 9.16869C36.7122 9.20658 36.6175 9.35814 36.6478 9.52486C36.6819 9.71053 36.8108 9.82041 36.9699 9.81662C36.8752 9.9606 36.8676 10.116 36.9661 10.2145H36.9623Z" fill="white"/>
<path d="M32.4609 6.289C32.5557 6.37615 32.6655 6.44814 32.7944 6.33826C32.908 6.24353 32.9232 6.01998 32.783 5.86084C32.6921 5.88357 32.5519 5.89115 32.4533 5.95936C32.3283 6.0465 32.3548 6.19049 32.4609 6.289Z" fill="white"/>
<path d="M42.4262 14.4617C42.3391 14.4276 42.2102 14.3291 42.0776 14.3291C41.8957 14.3291 41.7821 14.5602 41.8351 14.7535C41.8768 14.9088 42.0435 14.9922 42.2102 14.9467C42.3656 14.9012 42.4906 14.6929 42.4262 14.4617Z" fill="white"/>
<path d="M39.5654 11.1125C39.7322 11.1655 39.8799 11.1352 39.9822 10.9874C40.0201 10.9344 40.0466 10.8359 40.0201 10.7866C39.9406 10.6464 39.8345 10.5252 39.7322 10.3812C39.8269 9.99091 39.7435 9.68778 39.5086 9.62716C39.3002 9.57411 38.9781 9.76356 38.872 9.99091C38.8531 9.96059 38.8304 9.93028 38.8038 9.90376C38.6674 9.7863 38.4363 9.77872 38.334 9.8886C38.2279 10.0023 38.2127 10.3243 38.3113 10.4039C38.4439 10.5138 38.7508 10.4911 38.8607 10.3622C38.8682 10.3547 38.872 10.3395 38.8758 10.3319C38.9478 10.4304 39.1107 10.5062 39.4101 10.6009C39.3684 10.8131 39.2926 11.0253 39.5692 11.1125H39.5654Z" fill="white"/>
<path d="M44.1804 19.9256C44.2373 19.9256 44.404 19.8271 44.3775 19.7475C44.351 19.6717 44.2183 19.63 44.1729 19.6452C44.1047 19.6641 43.9721 19.7172 43.9986 19.793C44.0213 19.8687 44.1198 19.9294 44.1804 19.9256Z" fill="white"/>
<path d="M44.908 19.1676C44.9989 19.0426 45.0065 18.91 44.9156 18.7735C44.8171 18.6296 44.6162 18.5424 44.476 18.622C44.2525 18.747 44.279 18.9668 44.2904 19.1676C44.6352 19.3343 44.7868 19.3343 44.9118 19.1676H44.908Z" fill="white"/>
<path d="M45.4081 15.0568C45.3247 14.8673 45.2414 14.6779 45.1505 14.4922C45.1277 14.4998 45.1088 14.5036 45.086 14.5149C45.0216 14.549 44.9762 14.6134 44.9458 14.6816C44.8549 14.6475 44.745 14.64 44.6048 14.6665C44.3585 14.7157 44.2108 14.8825 44.2562 15.0643C44.2979 15.2348 44.6768 15.538 44.8208 15.5152C45.0178 15.4811 45.1467 15.3182 45.1618 15.106C45.2376 15.1212 45.3172 15.1174 45.3816 15.0795C45.3929 15.0757 45.3967 15.0643 45.4043 15.0568H45.4081Z" fill="white"/>
<path d="M29.8995 2.55662C29.9639 2.71955 30.1988 2.81428 30.3655 2.74607C30.5171 2.68166 30.5853 2.51873 30.5285 2.35959C30.5247 2.34443 30.5133 2.33307 30.5057 2.31791C30.339 2.27244 30.1761 2.23455 30.0093 2.19287C29.907 2.28381 29.8502 2.44295 29.8995 2.55662Z" fill="white"/>
<path d="M47.3595 24.0635C47.3595 24.0635 47.3292 24.0786 47.3178 24.09C47.189 24.215 47.2686 24.503 47.3406 24.5523C47.3482 24.5561 47.3519 24.5636 47.3595 24.5674C47.3595 24.4727 47.3671 24.3742 47.3671 24.2795C47.3671 24.2075 47.3633 24.1355 47.3633 24.0635H47.3595Z" fill="white"/>
<path d="M24.8714 4.89049C24.9207 5.01174 25.0154 5.11405 25.1215 5.17846C25.1518 5.24288 25.1897 5.3035 25.2427 5.34897C25.4473 5.53464 25.8338 5.46264 26.0801 5.18983C26.2544 4.99659 26.2279 4.73893 26.0157 4.54569C25.8944 4.43581 25.7505 4.38655 25.6065 4.39034C25.4776 4.24257 25.2958 4.20467 25.1063 4.29182C24.8524 4.40928 24.7691 4.63284 24.8752 4.89049H24.8714Z" fill="white"/>
<path d="M27.8156 2.20795C27.8156 2.28373 27.8383 2.35193 27.8875 2.3974C27.9974 2.5035 28.3195 2.52623 28.4066 2.43908C28.418 2.42771 28.4256 2.40498 28.4332 2.38604C28.562 2.32541 28.6681 2.09807 28.6643 1.9124C28.3991 1.86314 28.13 1.81768 27.861 1.77979C27.7625 1.88967 27.7208 2.0185 27.7663 2.13217C27.7777 2.15869 27.7928 2.18521 27.8156 2.21174V2.20795Z" fill="white"/>
<path d="M46.0788 16.8033C46.0675 16.845 46.0637 16.8905 46.0712 16.936C46.0864 17.0496 46.1394 17.1216 46.2152 17.1481C46.0712 16.7124 45.9159 16.2842 45.7454 15.8599C45.5294 15.966 45.393 16.2918 45.4877 16.4926C45.5938 16.7238 45.8818 16.8678 46.0788 16.8033Z" fill="white"/>
<path d="M43.8319 16.6673C43.8319 16.6976 43.8357 16.7279 43.8433 16.7582C43.9077 17.0007 44.2638 17.2129 44.5253 17.1599C44.8246 17.103 44.98 16.7923 44.9004 16.4096C44.8436 16.1292 44.639 15.9777 44.3813 15.9966C44.2449 15.8488 43.9304 15.7693 43.7523 15.8526C43.5932 15.9246 43.4909 16.2694 43.5704 16.4589C43.6121 16.5536 43.722 16.6294 43.8357 16.6635L43.8319 16.6673Z" fill="white"/>
<path d="M25.0874 2.27248C25.1897 2.33311 25.3981 2.51119 25.5345 2.371C25.6709 2.2308 25.508 2.01483 25.4473 1.90494C25.3829 1.7799 25.1973 1.79885 25.0798 1.91631C24.951 2.04135 24.9396 2.18533 25.0874 2.27627V2.27248Z" fill="white"/>
<path d="M45.1088 18.164C45.3059 18.073 45.3854 17.8457 45.2831 17.6714C45.1922 17.5198 45.0027 17.4706 44.8436 17.5767C44.7148 17.66 44.5746 17.751 44.639 17.8988C44.7678 18.1488 44.9535 18.236 45.1088 18.164Z" fill="white"/>
<path d="M28.6036 5.04228C28.6036 5.06502 28.6036 5.08775 28.6149 5.11049C28.4293 5.10291 28.1716 5.18627 28.0655 5.31889C27.9557 5.4515 27.9784 5.64096 28.1262 5.76978C28.3421 5.96303 28.6301 5.98197 28.7703 5.81525C28.8802 5.68264 28.9257 5.5235 28.9029 5.38709C29.0204 5.40225 29.1303 5.33404 29.1947 5.22795C29.3121 5.03471 29.1757 4.88314 29.0431 4.72021C28.8423 4.76947 28.6149 4.78084 28.6036 5.04228Z" fill="white"/>
<path d="M25.8035 1.99223C25.883 2.2082 26.1786 2.32945 26.4173 2.24609C26.4666 2.22715 26.5158 2.19684 26.5575 2.16273C26.5764 2.21199 26.5992 2.25746 26.6333 2.28777C26.7583 2.40523 27.2244 2.3143 27.3646 2.14C27.4441 2.04527 27.4441 1.85203 27.3797 1.71941C26.8796 1.65879 26.3756 1.60953 25.8679 1.58301C25.7959 1.72699 25.7618 1.88992 25.8035 1.99602V1.99223Z" fill="white"/>
<path d="M29.2326 6.76644C29.0583 6.57699 28.6794 6.505 28.5354 6.63761C28.3384 6.8157 28.3194 7.18324 28.4937 7.38406C28.5657 7.46742 28.687 7.50152 28.812 7.50531C28.759 7.58867 28.7438 7.68719 28.7855 7.7857C28.8575 7.96 29.0507 8.03957 29.244 7.97515C29.4296 7.91074 29.5092 7.7175 29.4334 7.52426C29.4031 7.44469 29.3311 7.38785 29.2478 7.35375C29.2553 7.34617 29.2667 7.34238 29.2743 7.3348C29.422 7.19461 29.4069 6.95211 29.2364 6.76644H29.2326Z" fill="white"/>
<path d="M46.6547 18.6258C46.5903 18.3758 46.5183 18.1257 46.4463 17.8794C46.4046 17.9173 46.3667 17.9628 46.3402 18.0272C46.272 18.0272 46.2038 18.0385 46.1469 18.0688C46.1356 18.0764 46.128 18.084 46.1204 18.0916C45.6771 18.1181 45.5672 18.4174 45.8021 18.9328C45.7794 18.9631 45.7567 19.0047 45.7263 19.0313C45.5899 19.1487 45.6127 19.2776 45.6847 19.4178C45.7529 19.5542 45.859 19.5807 46.003 19.5807C46.3515 19.5807 46.4652 19.4594 46.4387 19.1108C46.4311 19.0085 46.4273 18.9062 46.4235 18.8001C46.4463 18.8001 46.4728 18.8001 46.4955 18.7926C46.5599 18.766 46.613 18.6978 46.6547 18.6221V18.6258Z" fill="white"/>
<path d="M44.3548 13.2001C44.3586 13.2418 44.3889 13.2759 44.423 13.3062C44.2676 13.3706 44.1994 13.4805 44.2222 13.6472C44.2222 13.6586 44.2222 13.6661 44.2259 13.6775C44.0516 13.7836 43.8849 14.1511 43.9531 14.3027C44.0554 14.5376 44.2941 14.6058 44.5707 14.4808C44.7072 14.4202 44.7678 14.3027 44.764 14.1549C44.8511 14.1739 44.9269 14.1852 44.9989 14.1852C44.8019 13.7836 44.5897 13.3933 44.3661 13.0068C44.351 13.0788 44.3472 13.1546 44.351 13.2001H44.3548Z" fill="white"/>
<path d="M39.2926 7.98626C39.0122 8.0431 38.8986 8.16814 38.9402 8.36896C38.9971 8.64556 39.1979 8.8047 39.4177 8.74408C39.5579 8.70619 39.7587 8.3538 39.7322 8.18708C39.7056 8.00521 39.5465 7.93322 39.2926 7.98626Z" fill="white"/>
<path d="M43.3923 12.8096C43.2104 12.8172 43.0816 12.9195 43.0475 13.0787C42.9907 13.325 43.2294 13.5258 43.381 13.5258C43.5325 13.5258 43.7636 13.306 43.7068 13.0332C43.6727 12.8703 43.559 12.8021 43.3961 12.8096H43.3923Z" fill="white"/>
<path d="M38.3378 7.77028C38.5538 7.78923 38.7546 7.86501 38.8569 7.63767C38.9251 7.48232 38.8834 7.33454 38.7432 7.22087C38.7129 7.19435 38.6788 7.17919 38.6485 7.16403C38.6788 7.039 38.6788 6.8988 38.6295 6.82681C38.5575 6.71692 38.262 6.6904 38.1218 6.77755C38.0005 6.85712 37.9854 7.01247 38.0877 7.14509C38.1559 7.23224 38.2241 7.29665 38.2923 7.33833C38.2355 7.46337 38.2771 7.60735 38.3378 7.7665V7.77028Z" fill="white"/>
<path d="M39.4669 9.52837C39.5995 9.64962 39.7246 9.62309 39.842 9.50942C40.0126 9.34649 40.0504 9.05473 39.9216 8.93348C39.7776 8.79708 39.4518 8.77434 39.3343 8.8918C39.1941 9.032 39.2547 9.33134 39.4669 9.52837Z" fill="white"/>
<path d="M20.389 2.65877C20.3397 2.67771 20.298 2.70045 20.2564 2.72318C20.2412 2.61709 20.192 2.52994 20.0593 2.47689C19.9154 2.41627 19.76 2.43521 19.6994 2.58678C19.6539 2.70424 19.6236 2.88611 19.6842 2.97705C19.7524 3.08314 19.8434 3.10967 19.9381 3.0983C19.8775 3.32564 19.9722 3.5833 20.1124 3.80686C20.1995 3.94705 20.3246 4.0342 20.461 4.08346C20.6466 4.15166 20.8437 4.10998 21.0483 4.00389C21.2567 3.894 21.4878 3.966 21.6318 3.78033C21.825 3.53025 22.0069 3.05283 21.6886 2.60572C21.4954 2.33291 21.2756 2.22303 21.0369 2.21924C20.7603 2.21924 20.658 2.55646 20.3928 2.66256L20.389 2.65877Z" fill="white"/>
<path d="M27.2964 4.83369C27.232 4.88674 27.1865 5.03072 27.213 5.11408C27.2358 5.19365 27.3873 5.36795 27.4896 5.34143C27.5919 5.31869 27.6298 5.08377 27.626 4.99283C27.6185 4.85643 27.3987 4.75033 27.2964 4.83369Z" fill="white"/>
<path d="M27.7549 4.54589C27.9406 4.48526 28.1603 4.10257 28.1073 3.93206C28.2551 3.68198 28.2134 3.44327 27.9709 3.20077C27.7663 2.99616 27.395 2.99995 27.16 3.1894C27.0956 3.053 26.8834 2.97722 26.7357 3.04921C26.5803 3.12499 26.5235 3.31065 26.6068 3.48874C26.6826 3.65167 26.8266 3.70472 26.9895 3.63651C27.0009 3.82597 27.0805 4.03436 27.2169 4.17077C27.2472 4.20108 27.2813 4.22382 27.3192 4.24655C27.323 4.26171 27.323 4.27308 27.3305 4.28444C27.4139 4.50042 27.5844 4.60651 27.7549 4.54968V4.54589Z" fill="white"/>
<path d="M28.74 10.6991C28.7514 10.8621 28.9939 11.0364 29.1947 10.8659C29.3652 10.6613 29.1493 10.4074 28.9977 10.4112C28.8727 10.4112 28.7325 10.5703 28.74 10.6991Z" fill="white"/>
<path d="M29.7139 8.56588C29.6798 8.48631 29.5851 8.40295 29.5017 8.37643C29.1683 8.26655 28.8841 8.40295 28.7363 8.71745C28.706 8.78186 28.6795 8.84627 28.6492 8.91069C28.5241 8.85006 28.4143 8.78565 28.293 8.74397C28.0657 8.66061 27.9482 8.70608 27.8345 8.91827C27.7322 9.1153 27.7474 9.30854 27.88 9.48284C27.9747 9.60409 28.0998 9.63819 28.2324 9.62682C28.2551 9.71018 28.3044 9.80112 28.3612 9.82385C28.562 9.90342 28.725 9.69502 28.7401 9.58514C28.7439 9.54346 28.7212 9.49041 28.6795 9.44116C28.7098 9.42221 28.7363 9.40327 28.7666 9.38811C28.8273 9.41463 28.8917 9.44873 28.9561 9.47147C29.2062 9.55483 29.5282 9.48662 29.6571 9.30096C29.8124 9.07362 29.8162 8.81596 29.7139 8.56588Z" fill="white"/>
<path d="M27.1107 6.58453C27.0463 6.51633 26.944 6.47465 26.8341 6.4557C26.819 6.44055 26.8038 6.42539 26.7849 6.41402C26.2734 6.37613 26.4287 6.04648 26.0763 5.89871C26.0119 5.87219 25.9361 5.87977 25.9058 5.87598C25.5231 5.92145 25.3716 6.24352 25.5724 6.54664C25.6974 6.7323 25.8641 6.90281 26.0347 7.05059C26.118 7.12258 26.2431 7.14531 26.3681 7.13773C26.387 7.16805 26.3984 7.20215 26.4211 7.22867C26.5879 7.40676 26.7849 7.38781 27.0122 7.16805C27.1638 7.02027 27.2168 6.70578 27.107 6.58453H27.1107Z" fill="white"/>
<path d="M20.1919 7.60358C20.3586 7.69073 20.6466 7.67178 20.7754 7.53159C20.9573 7.33456 20.8664 7.08448 20.8171 7.01249C21.0748 6.87987 21.2263 6.5578 21.1316 6.31151C21.0331 6.06143 20.8436 5.90987 20.6277 5.88335C20.7148 5.79999 20.7716 5.68253 20.7679 5.5196C20.7565 5.08385 20.5102 4.82999 20.2374 4.81862C20.0555 4.81104 19.8244 4.97018 19.6918 5.16721C19.6122 5.0346 19.4682 4.97397 19.328 5.02323C19.1802 5.07628 19.0969 5.2771 19.1537 5.4476C19.2105 5.61811 19.3962 5.71284 19.5591 5.656C19.5781 5.64842 19.6008 5.64085 19.616 5.62948C19.6918 5.88713 19.9191 5.99323 20.1086 6.03112C20.1237 6.03112 20.1351 6.03491 20.1502 6.0387C20.0063 6.17889 19.9722 6.39108 20.0669 6.65631C20.101 6.75483 20.1502 6.8344 20.2033 6.89881C20.1313 6.91018 20.0631 6.94049 20.0063 7.02006C19.8736 7.19815 19.9911 7.4937 20.1919 7.59979V7.60358Z" fill="white"/>
<path d="M19.5933 7.08838C19.5289 6.89893 19.328 6.78905 19.1575 6.85346C19.006 6.9103 18.9378 7.10354 19.006 7.2892C19.0666 7.44835 19.2257 7.52792 19.3811 7.48245C19.5705 7.42561 19.6539 7.27026 19.5933 7.08838Z" fill="white"/>
<path d="M19.1651 12.4652C19.1272 12.4766 19.0628 12.5713 19.0855 12.6319C19.1045 12.6888 19.2257 12.7115 19.2902 12.7039C19.3281 12.7039 19.4417 12.6016 19.4152 12.5145C19.3887 12.4273 19.2295 12.4463 19.1651 12.4652Z" fill="white"/>
<path d="M9.76447 9.18C9.68112 9.21789 9.48787 9.3543 9.56365 9.53238C9.63944 9.71047 9.85162 9.6309 9.91983 9.5968C9.99182 9.55891 10.06 9.42629 10.0524 9.33914C10.0373 9.18758 9.87815 9.12695 9.76447 9.18Z" fill="white"/>
<path d="M29.6986 3.84119C29.9298 3.59869 29.9487 3.216 29.7441 3.02654C29.5433 2.84467 28.9635 2.84467 28.7703 3.02654C28.5695 3.216 28.6036 3.62521 28.8347 3.84498C29.0469 4.0458 29.513 4.0458 29.7024 3.84498L29.6986 3.84119Z" fill="white"/>
<path d="M30.6042 9.05119C30.6155 9.21412 30.7178 9.2558 31.0589 9.21791C31.2294 9.0133 31.0134 8.75944 30.8618 8.76323C30.7368 8.76323 30.5966 8.92237 30.6042 9.05119Z" fill="white"/>
<path d="M38.4552 19.7248C38.5082 19.6831 38.565 19.596 38.5575 19.5392C38.5499 19.4899 38.3983 19.3762 38.3491 19.399C38.2998 19.4217 38.2847 19.5922 38.2998 19.6566C38.3074 19.6945 38.4324 19.7438 38.4552 19.7248Z" fill="white"/>
<path d="M38.8037 18.8342C38.8037 18.8342 38.8037 18.8494 38.8075 18.8531C38.8227 18.8797 38.8719 18.9176 38.9136 18.8986C38.9515 18.8797 38.9932 18.8228 38.9629 18.7698C38.9439 18.7319 38.9022 18.7243 38.8719 18.7281C38.8909 18.6485 38.8644 18.5576 38.8871 18.497C38.997 18.2128 38.8265 17.8377 38.5802 17.8074C38.3528 17.7808 38.1937 17.8831 38.0838 18.0726C37.9701 18.2696 38.0346 18.4439 38.1861 18.5728C38.3112 18.6788 38.5044 18.963 38.7279 18.8797C38.7621 18.8683 38.7848 18.8531 38.8037 18.838V18.8342Z" fill="white"/>
<path d="M36.4433 8.77046C36.61 8.90307 36.9434 8.8235 37.1329 8.61132C37.2882 8.42944 37.2541 8.22483 37.0495 8.03159C37.0495 7.97854 37.0495 7.9255 37.0343 7.87245C36.9737 7.62237 36.7691 7.53143 36.4584 7.611C36.2841 7.65647 36.125 7.90276 36.1629 8.06948C36.1818 8.15284 36.2614 8.25514 36.3599 8.3385C36.3447 8.51659 36.3713 8.70604 36.447 8.76667L36.4433 8.77046Z" fill="white"/>
<path d="M38.0611 21.9185C38.1331 22.0928 38.3149 22.1686 38.4817 22.0966C38.6219 22.0359 38.709 21.8427 38.656 21.7063C38.5915 21.5434 38.4135 21.4752 38.224 21.5434C38.0497 21.6078 37.9891 21.7442 38.0611 21.9147V21.9185Z" fill="white"/>
<path d="M33.2452 8.57344C33.2452 8.54312 33.2415 8.51281 33.2301 8.4825C33.196 8.38398 33.0368 8.16043 32.9497 8.17937C32.9421 8.17937 32.9345 8.19074 32.9308 8.19453C32.8967 8.16801 32.8663 8.13769 32.8436 8.08844C32.7716 7.92551 32.6542 7.91414 32.4685 7.94824C32.2828 7.98234 31.9986 8.04297 32.0555 8.30062C32.1085 8.56207 32.2904 8.55828 32.3662 8.53176C32.442 8.50902 32.5897 8.58859 32.5177 8.64164C32.4458 8.69469 32.4306 8.80836 32.5594 8.99402C32.6883 9.17969 32.836 9.23273 33.0406 9.13043C33.2339 9.0357 33.3097 8.78941 33.249 8.56965L33.2452 8.57344Z" fill="white"/>
<path d="M32.9876 12.8892C32.9497 12.8892 32.8209 12.9649 32.8361 13.0559C32.8512 13.1468 33.0104 13.1506 33.0748 13.1468C33.1127 13.143 33.1922 13.0559 33.1809 12.9953C33.1695 12.9346 33.0558 12.8967 32.9876 12.8892Z" fill="white"/>
<path d="M32.2373 5.85669C32.2941 5.70134 32.2941 5.55356 32.2525 5.40958C32.2032 5.24286 32.0782 5.12161 31.9039 5.02688C31.866 4.94352 31.7788 4.83364 31.7106 4.83364C31.6917 4.83364 31.6727 4.84501 31.6538 4.85637C31.5515 4.75786 31.4606 4.65934 31.3052 4.65555C30.9869 4.64798 30.4981 4.79196 30.3276 5.31485C30.2253 5.63313 30.267 5.87563 30.4072 6.06887C30.5701 6.28864 30.9036 6.17118 31.1499 6.31895C31.7334 6.67134 32.0706 6.28864 32.2373 5.85669Z" fill="white"/>
<path d="M31.2636 10.2407C31.2295 10.2975 31.1575 10.3733 31.2295 10.4529C31.3015 10.5324 31.381 10.487 31.4076 10.4567C31.4492 10.4112 31.5515 10.2824 31.4871 10.2104C31.4227 10.1422 31.2863 10.2066 31.2674 10.2369L31.2636 10.2407Z" fill="white"/>
<path d="M34.3705 11.0667C34.4274 11.0667 34.5827 10.9682 34.5676 10.8924C34.5524 10.8166 34.3857 10.7636 34.3289 10.7749C34.3137 10.7749 34.2948 10.7863 34.2796 10.7977C34.219 10.7181 34.1129 10.6802 34.0144 10.7408C33.8211 10.8583 33.5748 10.9303 33.4839 11.1955C33.5218 11.2903 33.5635 11.3926 33.6052 11.4911C33.4536 11.7487 33.4309 12.0367 33.5711 12.1428C33.6847 12.2299 33.8211 12.2337 33.9462 12.1428C34.1697 11.9837 34.1887 11.87 34.0712 11.5669C34.1508 11.3812 34.2379 11.2183 34.2948 11.0515C34.3213 11.0629 34.3478 11.0705 34.3705 11.0667Z" fill="white"/>
<path d="M26.7395 8.27422C26.6978 8.28938 26.6561 8.34243 26.6826 8.39926C26.7092 8.4561 26.7774 8.45231 26.8077 8.44094C26.838 8.42958 26.8532 8.35001 26.8418 8.32727C26.8266 8.30075 26.7812 8.25907 26.7395 8.27422Z" fill="white"/>
<path d="M12.5076 8.00519C12.6213 8.06203 12.951 7.60355 12.9131 7.46714C12.8752 7.33074 12.5531 7.33074 12.375 7.50503C12.1931 7.67933 12.394 7.94835 12.5076 8.00519Z" fill="white"/>
<path d="M15.5314 13.0408C15.7852 12.9309 16.0239 12.4194 15.9368 12.1617C15.8421 11.8813 15.448 11.7298 15.1411 11.8548C14.8721 11.9647 14.6788 12.3815 14.7811 12.6354C14.9099 12.9574 15.2737 13.1545 15.5314 13.0408Z" fill="white"/>
<path d="M14.7963 8.87653C14.8948 9.03188 14.9554 9.25164 15.2169 9.19102C15.3836 9.14934 15.4897 9.01672 15.4669 8.84621C15.4556 8.75528 15.376 8.63782 15.2926 8.59235C15.1259 8.49762 15.0009 8.58098 14.7963 8.87653Z" fill="white"/>
<path d="M13.0685 5.48547C13.0041 5.34906 12.9055 5.2657 12.7653 5.30359C12.4092 5.40211 12.0682 5.53094 11.8181 5.82269C11.7726 5.87574 11.7575 5.94773 11.7423 5.97805C11.6665 6.35695 11.9242 6.60324 12.2766 6.50473C12.4925 6.4441 12.7047 6.3418 12.898 6.22434C13.1064 6.0993 13.1746 5.71281 13.0685 5.48547Z" fill="white"/>
<path d="M14.9555 7.00118C14.785 7.05801 14.6865 7.24368 14.7357 7.40661C14.7888 7.5809 15.0123 7.70594 15.1752 7.64911C15.3344 7.59606 15.4177 7.39903 15.3571 7.22852C15.2889 7.04664 15.1146 6.94434 14.9593 6.99739L14.9555 7.00118Z" fill="white"/>
<path d="M10.6018 7.78181C10.6018 7.92959 10.7685 8.08873 10.9049 8.07736C11.0982 8.0622 11.2384 7.63783 11.1323 7.5431C11.0262 7.44459 10.598 7.58857 10.6056 7.78181H10.6018Z" fill="white"/>
<path d="M11.2725 6.67906C11.2422 6.74726 11.3407 6.84199 11.3976 6.86851C11.443 6.88746 11.6097 6.85336 11.6363 6.76621C11.6666 6.67906 11.5188 6.58433 11.4695 6.58054C11.4089 6.57297 11.299 6.61086 11.2725 6.68285V6.67906Z" fill="white"/>
<path d="M13.239 10.3357C13.4967 10.2182 13.6255 9.91508 13.5308 9.65363C13.4095 9.3164 13.0609 9.15347 12.7426 9.2823C12.4622 9.39597 12.3258 9.64605 12.4168 9.88855C12.538 10.2068 12.9851 10.4531 13.239 10.3395V10.3357Z" fill="white"/>
<path d="M12.7047 11.9195C12.7729 11.8513 12.6706 11.6466 12.6176 11.6125C12.5645 11.5784 12.4168 11.6163 12.3789 11.6732C12.341 11.7262 12.3637 11.8664 12.4092 11.9195C12.4471 11.9611 12.6365 11.9914 12.7047 11.9195Z" fill="white"/>
<path d="M16.3044 7.97891C16.0695 8.04711 15.9634 8.29719 16.0467 8.57001C16.1074 8.76704 16.3499 8.84282 16.6227 8.75567C16.8349 8.68747 16.9372 8.51317 16.869 8.33887C16.797 8.15321 16.4522 7.93723 16.3006 7.9827L16.3044 7.97891Z" fill="white"/>
<path d="M20.7223 11.9761C20.7867 11.7943 20.7905 11.8625 20.9876 11.8284C21.1846 11.7943 21.4347 11.6276 21.2642 11.3169C21.0975 11.0061 20.6958 10.9872 20.4116 11.1047C20.1312 11.2221 19.9645 11.8246 20.1919 12.1239C20.3548 12.3361 20.6541 12.1618 20.7223 11.9799V11.9761Z" fill="white"/>
<path d="M21.8099 2.17026C21.8591 2.10585 21.8099 1.97323 21.7757 1.94292C21.7189 1.90124 21.6015 1.82167 21.556 1.88608C21.5105 1.9505 21.5181 2.06417 21.556 2.10964C21.5901 2.15511 21.7682 2.23468 21.8136 2.16647L21.8099 2.17026Z" fill="white"/>
<path d="M18.0208 2.59049C18.0435 2.58291 18.0663 2.56775 18.0852 2.55639C17.9981 2.71932 17.9791 2.92771 18.0549 3.11338C18.0852 3.18537 18.1231 3.24221 18.1686 3.29146C17.9147 3.28389 17.5623 3.48092 17.4676 3.69311C17.3729 3.90529 17.4827 4.23115 17.7404 4.39787C17.9071 4.50775 18.0701 4.57596 18.0701 4.83361C18.0701 5.01928 18.2519 5.06475 18.43 5.0458C18.5854 4.85256 18.5702 4.68205 18.3997 4.56459C18.5058 4.33725 18.6119 4.18189 18.6498 4.0076C18.6877 3.84088 18.5778 3.5908 18.4338 3.43545C18.5551 3.45439 18.6952 3.43545 18.843 3.36346C19.256 3.16264 19.3356 2.98455 19.203 2.6208C19.131 2.45029 19.0135 2.33283 18.862 2.27979C18.5134 2.37072 18.1686 2.46924 17.8238 2.57533C17.8882 2.59807 17.9526 2.60943 18.0094 2.59049H18.0208Z" fill="white"/>
<path d="M21.0635 8.79349C20.9422 8.67982 20.5216 8.74423 20.389 8.88822C20.264 9.02083 20.1276 9.15724 20.2678 9.36943C20.3701 9.52478 20.4534 9.69529 20.5444 9.85822C20.5747 10.0742 20.7225 10.1613 20.8967 10.1197C21.0824 10.0742 21.1734 9.91505 21.1544 9.69529C21.143 9.57783 21.1241 9.44521 21.162 9.33912C21.2378 9.12693 21.2188 8.94126 21.0635 8.7897V8.79349Z" fill="white"/>
<path d="M21.7189 5.92893C21.8894 5.87588 21.9993 5.67127 21.9386 5.51592C21.8742 5.35678 21.6772 5.26205 21.5143 5.3151C21.3475 5.36814 21.2756 5.51213 21.3248 5.69021C21.3779 5.87967 21.5446 5.98197 21.7189 5.92893Z" fill="white"/>
<path d="M16.9863 6.40612C16.9143 6.24319 16.7249 6.17499 16.5506 6.25456C16.5506 6.15983 16.5165 6.05753 16.4483 5.95143C16.3611 5.81503 16.2892 5.69757 16.3081 5.52327C16.3384 5.2694 16.1603 5.09889 15.9936 4.94733C15.8383 4.80714 15.5351 4.82229 15.3495 4.93975C15.3305 4.95112 15.3154 4.96249 15.3002 4.97765C15.3533 4.84503 15.3684 4.68968 15.3192 4.56843C15.2396 4.37897 15.0047 4.32214 14.7281 4.42065C14.5197 4.49643 14.3567 4.75409 14.4174 4.91323C14.5007 5.13679 14.8417 5.32245 15.0463 5.25425C15.0767 5.24288 15.1032 5.22772 15.1297 5.20878C15.107 5.28835 15.1032 5.37929 15.1221 5.48538C15.1676 5.74682 15.3192 5.91733 15.5048 6.08026C15.5692 6.1371 15.6299 6.22425 15.6488 6.30382C15.7246 6.63725 15.933 6.7585 16.2588 6.65241C16.2551 6.69788 16.2588 6.73956 16.274 6.77366C16.3384 6.90628 16.5544 6.95554 16.7363 6.87975C16.9522 6.78882 17.0697 6.57663 16.9939 6.40233L16.9863 6.40612Z" fill="white"/>
<path d="M18.6195 10.1803C18.7066 10.1121 18.7521 9.99845 18.7976 9.93404C18.7066 9.74079 18.5096 9.68775 18.3656 9.75974C18.2292 9.82794 18.2481 9.93783 18.2898 10.0477C18.3467 10.2031 18.502 10.2751 18.6195 10.1841V10.1803Z" fill="white"/>
<path d="M18.3504 8.72915C18.4376 8.66095 18.483 8.54728 18.5285 8.48286C18.4376 8.28962 18.2405 8.23657 18.0966 8.30857C17.9602 8.37677 17.9791 8.48665 18.0208 8.59654C18.0776 8.75189 18.233 8.82388 18.3504 8.73294V8.72915Z" fill="white"/>
<path d="M18.4983 6.63357C18.7142 6.54264 18.8582 6.14478 18.7673 5.89471C18.6915 5.68631 18.4869 5.61053 18.2444 5.69389C17.9526 5.79619 17.8655 6.0008 17.9829 6.30014C18.0815 6.55021 18.324 6.70557 18.4983 6.63357Z" fill="white"/>
<path d="M41.0507 10.2825C41.2477 10.2673 41.4334 10.0059 41.4144 9.77474C41.3993 9.60423 41.1871 9.42236 41.0279 9.44131C40.6983 9.48298 40.4709 9.68002 40.5012 9.8922C40.5316 10.1044 40.8082 10.2976 41.0507 10.2825Z" fill="white"/>
<path d="M39.8079 19.1414C39.9557 19.0542 40.0694 18.7511 40.005 18.6147C39.9368 18.4669 39.7246 18.4101 39.5578 18.4972C39.3987 18.5806 39.3532 18.7549 39.4442 18.9405C39.5351 19.1338 39.6829 19.2134 39.8079 19.1414Z" fill="white"/>
<path d="M39.4744 16.6332C39.4896 16.7809 39.6677 16.9022 39.8268 16.8757C40.0011 16.8453 40.1489 16.6635 40.1185 16.5119C40.092 16.3717 39.9102 16.2391 39.77 16.2618C39.6184 16.2846 39.4555 16.4892 39.4744 16.6332Z" fill="white"/>
<path d="M39.6563 12.7114C39.986 12.6622 40.255 12.3818 40.2209 12.1241C40.2133 12.0749 40.1944 12.0256 40.1679 11.9726C40.2285 12.0142 40.2967 12.0521 40.3497 12.0862C40.3838 12.109 40.4596 12.1658 40.543 12.0635C40.6263 11.965 40.5998 11.6657 40.4445 11.5747C40.2967 11.4876 40.0504 11.5861 40.0277 11.7793C39.8685 11.6164 39.6412 11.5027 39.482 11.5368C39.1903 11.5974 38.9667 11.9271 39.016 12.2113C39.0728 12.5182 39.3759 12.7531 39.6563 12.7114Z" fill="white"/>
<path d="M39.7587 26.9163C39.9292 26.8557 39.933 26.7155 39.8648 26.6094C39.8079 26.5223 39.6033 26.3404 39.5237 26.3821C39.4442 26.4238 39.4101 26.6776 39.4177 26.7875C39.429 26.9353 39.592 26.977 39.7587 26.9163Z" fill="white"/>
<path d="M40.3005 13.7079C40.3915 13.6586 40.6226 13.5185 40.5923 13.3972C40.562 13.276 40.2702 13.2646 40.1793 13.2873C40.1186 13.3025 40.058 13.4654 40.0618 13.5563C40.0694 13.6738 40.1679 13.7761 40.3005 13.7041V13.7079Z" fill="white"/>
<path d="M40.0579 19.8006C40.0958 19.7892 40.164 19.7286 40.1981 19.668C40.2209 19.668 40.2436 19.6717 40.2663 19.668C40.4255 19.6149 40.5354 19.505 40.5278 19.3194C40.5202 19.1564 40.3649 19.0352 40.2019 19.0579C40.0541 19.0769 39.9329 19.2398 39.9481 19.4027C39.9481 19.4482 39.967 19.4899 39.9897 19.5278C39.9291 19.5657 39.8154 19.6414 39.8571 19.7096C39.8988 19.7778 40.0087 19.8119 40.0655 19.7968L40.0579 19.8006Z" fill="white"/>
<path d="M41.1379 23.5896C41.1909 23.5479 41.2477 23.4607 41.2402 23.4039C41.2326 23.3546 41.1568 23.2258 41.0318 23.2637C40.9029 23.2978 40.9674 23.457 40.9825 23.5214C40.9901 23.5593 41.1151 23.6085 41.1379 23.5896Z" fill="white"/>
<path d="M36.0567 16.1101C36.1249 15.9547 36.0832 15.807 35.9431 15.6933C35.8294 15.6024 35.7119 15.591 35.5982 15.6819C35.4012 15.8373 35.4543 16.0229 35.5376 16.2389C35.7536 16.2579 35.9544 16.3336 36.0567 16.1063V16.1101Z" fill="white"/>
<path d="M40.5885 22.0511C40.7211 21.998 40.8158 21.7783 40.7628 21.6608C40.7135 21.5547 40.5089 21.532 40.3422 21.6116C40.2172 21.6722 40.1793 21.7707 40.2437 21.8882C40.3157 22.017 40.418 22.1193 40.5847 22.0511H40.5885Z" fill="white"/>
<path d="M37.9551 11.8663C38.1407 11.8398 38.2544 11.7337 38.2696 11.5935C38.3567 11.6048 38.4401 11.5745 38.5083 11.5025C38.6068 11.404 38.6106 11.279 38.5083 11.1615C38.4022 11.0365 38.243 11.0175 38.1407 11.1161C38.1104 11.1464 38.0877 11.1805 38.0725 11.2184C37.9778 11.1464 37.8603 11.1009 37.7542 11.1085C37.5724 11.1274 37.4246 11.3169 37.4435 11.5063C37.4663 11.7185 37.7239 11.8966 37.9551 11.8625V11.8663Z" fill="white"/>
<path d="M36.7085 10.7939C36.7502 10.7863 36.8032 10.7371 36.7843 10.6802C36.7691 10.6196 36.6971 10.612 36.6668 10.6196C36.6365 10.6234 36.6062 10.703 36.6176 10.7295C36.6251 10.7598 36.6668 10.8053 36.7085 10.7977V10.7939Z" fill="white"/>
<path d="M36.3295 6.79656C36.2347 6.9216 36.2991 7.28156 36.4393 7.38765C36.5644 7.48617 36.8107 7.46343 36.9092 7.34597C37.1214 7.09211 37.1593 6.83066 37.0001 6.69804C36.8486 6.56921 36.4621 6.62605 36.3333 6.79277L36.3295 6.79656Z" fill="white"/>
<path d="M36.7577 5.98953C36.9774 5.95922 37.129 5.79629 37.1783 5.56516C37.2086 5.64852 37.2578 5.72809 37.3147 5.76977C37.4321 5.85312 37.5837 5.80766 37.6671 5.66367C37.254 5.37191 36.8335 5.09152 36.3977 4.83008C36.1514 4.95133 35.9771 5.25445 36.0302 5.51211C36.087 5.78871 36.4546 6.03121 36.7539 5.99332L36.7577 5.98953Z" fill="white"/>
<path d="M37.3223 13.7194C37.5913 13.6474 37.7391 13.3784 37.6785 13.079C37.6292 12.8555 37.3109 12.6888 37.0533 12.7494C36.7804 12.8138 36.663 13.0487 36.7463 13.3594C36.8259 13.6625 37.0419 13.7952 37.3223 13.7194Z" fill="white"/>
<path d="M39.1599 15.0188C39.1107 14.9127 38.9402 14.6626 38.8265 14.693C38.7128 14.7233 38.6598 15.0075 38.6522 15.1287C38.6446 15.2575 38.8416 15.3485 38.9818 15.303C39.1182 15.2575 39.2205 15.1552 39.1561 15.0188H39.1599Z" fill="white"/>
<path d="M39.2395 14.1889C39.2167 14.098 38.9212 13.8555 38.7696 13.9199C38.6181 13.9843 38.6711 14.3784 38.7317 14.5034C38.7772 14.5982 38.9818 14.7194 39.1296 14.655C39.2774 14.5906 39.2736 14.3254 39.2395 14.1852V14.1889Z" fill="white"/>
<path d="M41.5812 13.6284C41.7668 13.5981 41.9108 13.3177 41.8616 13.079C41.7972 12.7683 41.6532 12.6395 41.4145 12.6774C41.2932 12.7001 41.172 12.7834 41.0924 12.8933C41.0924 12.863 41.0848 12.8365 41.0734 12.8062C40.9939 12.6243 40.7817 12.5296 40.615 12.6054C40.471 12.6736 40.3914 12.9085 40.4672 13.0449C40.543 13.1851 40.7665 13.2571 40.9143 13.1927C40.9408 13.1813 40.9598 13.1624 40.9787 13.1472C40.9787 13.1737 40.9787 13.204 40.9787 13.2306C41.0204 13.4465 41.3425 13.6625 41.5736 13.6246L41.5812 13.6284Z" fill="white"/>
<path d="M37.3715 16.2654C37.398 16.273 37.5003 16.1745 37.4928 16.1442C37.4776 16.0798 37.4511 15.9471 37.3412 15.9434C37.2313 15.9434 37.2048 16.0949 37.2162 16.1252C37.2427 16.1859 37.3109 16.2465 37.3715 16.2654Z" fill="white"/>
<path d="M37.6974 23.8812C37.7808 23.8471 37.8187 23.6198 37.7884 23.5743C37.7429 23.4986 37.6141 23.3925 37.5421 23.4114C37.4701 23.4304 37.4019 23.5971 37.417 23.6729C37.4322 23.7411 37.6141 23.9154 37.6974 23.8812Z" fill="white"/>
<path d="M40.9711 15.3937C40.9218 15.2573 40.5846 15.1929 40.5126 15.2725C40.4406 15.352 40.4634 15.496 40.4975 15.6059C40.5354 15.731 40.649 15.8143 40.7968 15.731C40.9256 15.659 41.0317 15.5642 40.9673 15.3937H40.9711Z" fill="white"/>
<path d="M47.2648 26.3027C47.2724 26.2193 47.2762 26.1322 47.2838 26.0488C47.2421 26.1322 47.2307 26.2193 47.261 26.2989L47.2648 26.3027Z" fill="white"/>
<path d="M46.3668 27.2386C46.3743 27.4546 46.3516 27.6781 46.6396 27.7009C46.8139 27.716 46.9503 27.6478 47.0147 27.4811C47.0374 27.4205 47.0412 27.3182 47.0071 27.2765C46.901 27.159 46.7684 27.0643 46.632 26.9506C46.632 26.549 46.4804 26.2724 46.2417 26.2686C46.0068 26.2648 45.7037 26.5755 45.6923 26.8369C45.6809 27.1135 45.8136 27.1969 46.3668 27.2348V27.2386Z" fill="white"/>
<path d="M45.9462 25.4389C46.075 25.3707 46.1849 24.9804 46.1242 24.825C46.056 24.6545 45.8855 24.6204 45.6506 24.7303C45.393 24.8516 45.3096 24.9993 45.3967 25.185C45.5142 25.4389 45.7491 25.5488 45.9462 25.4427V25.4389Z" fill="white"/>
<path d="M45.4801 28.4131C45.4081 28.2047 45.086 28.0494 44.8738 28.1214C44.7033 28.1782 44.601 28.4018 44.6654 28.5799C44.7374 28.7807 45.0254 28.8943 45.2452 28.811C45.4422 28.7352 45.5369 28.5761 45.4801 28.4131Z" fill="white"/>
<path d="M31.2635 3.92831C31.4871 4.01546 31.8811 3.78811 31.9228 3.55319C31.9493 3.39405 31.8432 3.16292 31.6689 3.0303C31.6689 2.98104 31.6614 2.928 31.65 2.87874C31.6235 2.7537 31.5136 2.65897 31.3582 2.73097C31.2559 2.78022 31.1688 2.84464 31.1536 2.95073C30.9452 3.00757 30.8202 3.14776 30.7596 3.31827C30.68 3.54183 30.9528 3.81085 31.2635 3.92831Z" fill="white"/>
<path d="M45.5862 32.9184C45.4801 32.9411 45.4877 33.0964 45.5066 33.123C45.518 33.1381 45.5407 33.1533 45.5597 33.1646C45.5938 33.0851 45.6241 33.0017 45.6582 32.9221C45.6392 32.9146 45.6127 32.9108 45.5862 32.9146V32.9184Z" fill="white"/>
<path d="M46.6509 28.1365C46.3819 28.2615 46.2379 28.6328 46.3554 28.9019C46.4387 29.0913 46.6206 29.2239 46.8101 29.2618C46.8934 28.8943 46.9654 28.523 47.0298 28.1516C46.8896 28.1062 46.7494 28.0948 46.6509 28.1403V28.1365Z" fill="white"/>
<path d="M40.8574 31.0086C40.8309 30.9517 40.7134 30.9403 40.6452 30.9517C40.6073 30.9555 40.5012 31.0616 40.5353 31.1487C40.5694 31.2321 40.7248 31.2018 40.7892 31.1791C40.8271 31.1677 40.8839 31.0654 40.8574 31.0086Z" fill="white"/>
<path d="M45.0558 30.7588C45.3021 30.6262 45.3854 30.3306 45.2528 30.054C45.1543 29.8494 44.8057 29.7585 44.567 29.8797C44.3169 30.0048 44.2563 30.2586 44.4116 30.5428C44.5594 30.8194 44.7981 30.899 45.0558 30.7588Z" fill="white"/>
<path d="M43.8773 27.0224C44.0289 26.9467 44.1084 26.7269 44.0402 26.5867C43.9644 26.4276 43.7219 26.3518 43.5628 26.4351C43.415 26.5109 43.362 26.6776 43.4264 26.833C43.5135 27.03 43.703 27.1134 43.8773 27.0262V27.0224Z" fill="white"/>
<path d="M44.3774 33.377C44.4078 33.2103 44.332 33.0739 44.1728 32.9981C44.0402 32.9337 43.9265 32.9527 43.8356 33.0663C43.6803 33.2634 43.775 33.4339 43.9076 33.6233C44.1198 33.593 44.3358 33.6195 44.3812 33.377H44.3774Z" fill="white"/>
<path d="M42.1003 21.3691C42.2632 21.3464 42.3428 21.1493 42.2708 21.0015C42.1988 20.8576 42.0737 20.8045 41.9184 20.8424C41.7858 20.8765 41.6797 21.2099 41.7782 21.2971C41.8767 21.3842 41.9828 21.3805 42.1003 21.3653V21.3691Z" fill="white"/>
<path d="M42.7217 23.37C43.0172 23.2563 43.1195 22.9077 42.9642 22.5364C42.8391 22.2371 42.5322 22.112 42.2329 22.2408C41.9411 22.3697 41.7744 22.7865 41.907 23.0707C42.0245 23.3245 42.4375 23.4799 42.7217 23.37Z" fill="white"/>
<path d="M42.0169 18.4555C42.1117 18.4896 42.214 18.5047 42.3087 18.482C42.5209 18.4327 42.6573 18.1902 42.608 17.9439C42.5626 17.7128 42.43 17.6105 42.2291 17.6446C42.1723 17.656 42.1193 17.6749 42.07 17.7014C41.9677 17.656 41.8616 17.6446 41.7782 17.6901C41.5736 17.7924 41.4259 18.141 41.5054 18.3153C41.5623 18.4365 41.8048 18.4933 42.0169 18.4555Z" fill="white"/>
<path d="M41.9525 19.7284C41.873 19.8004 41.7744 19.8838 41.7934 19.9861C41.8085 20.0884 42.0965 20.2096 42.2367 20.1301C42.3693 20.0543 42.339 19.9444 42.2935 19.8383C42.2291 19.6867 42.0662 19.6261 41.9563 19.7284H41.9525Z" fill="white"/>
<path d="M41.5736 28.8604C41.6266 28.8452 41.7555 28.7164 41.7252 28.6444C41.6949 28.5724 41.5168 28.561 41.4675 28.5838C41.4145 28.6103 41.3387 28.705 41.369 28.7808C41.3993 28.8566 41.5168 28.8755 41.5736 28.8566V28.8604Z" fill="white"/>
<path d="M42.6383 27.3748C42.7558 27.2953 42.8467 27.1854 42.7558 27.0641C42.6838 26.9732 42.464 26.7799 42.3465 26.8292C42.2291 26.8822 42.2859 27.1892 42.3238 27.2953C42.3693 27.4279 42.4981 27.4658 42.6383 27.3748Z" fill="white"/>
<path d="M43.7864 28.053C43.8243 28.034 43.866 27.9772 43.8357 27.9241C43.8053 27.8711 43.7371 27.8787 43.7068 27.89C43.6765 27.9014 43.6689 27.9848 43.6841 28.0075C43.6992 28.034 43.7485 28.0719 43.7902 28.053H43.7864Z" fill="white"/>
<path d="M43.3128 25.833C43.4985 25.7307 43.5516 25.3897 43.4265 25.1358C43.3128 24.9085 43.0893 24.863 42.8051 25.0146C42.646 25.1017 42.5475 25.3746 42.627 25.5299C42.718 25.7156 43.1689 25.9164 43.3166 25.833H43.3128Z" fill="white"/>
<path d="M25.0608 11.0972C25.1783 11.0593 25.1556 10.7296 25.1177 10.6993C25.0078 10.6122 24.8827 10.4682 24.7274 10.5098C24.572 10.5515 24.6137 10.7523 24.6516 10.8016C24.7274 10.9077 24.9472 11.1313 25.0646 11.0934L25.0608 11.0972Z" fill="white"/>
<path d="M44.2183 25.4765C44.2827 25.4197 44.3131 25.253 44.279 25.1772C44.2486 25.109 44.0289 24.9801 43.9493 25.0256C43.8697 25.0711 43.8508 25.3439 43.8887 25.3742C43.9683 25.4424 44.1539 25.5333 44.2183 25.4765Z" fill="white"/>
<path d="M45.0822 23.0136C45.1656 22.6802 45.0443 22.4528 44.8473 22.3202C44.6503 22.1876 44.3244 22.3884 44.1349 22.6612C43.9985 22.8583 44.1198 23.294 44.3395 23.3925C44.5593 23.4873 45.0026 23.3471 45.0822 23.0136Z" fill="white"/>
<path d="M43.7182 22.3581C43.8092 22.3316 43.9266 22.2331 43.9418 22.1497C43.9835 21.9262 43.7978 21.8807 43.6311 21.8276C43.4606 21.9413 43.3658 22.0777 43.4757 22.2596C43.5136 22.324 43.65 22.3808 43.7182 22.3581Z" fill="white"/>
<path d="M43.794 18.5957C43.8016 18.4707 43.7637 18.3001 43.6803 18.2244C43.4909 18.0576 43.3545 18.2471 43.184 18.3646C43.2408 18.6071 43.3166 18.8003 43.5667 18.7851C43.65 18.7814 43.7902 18.6677 43.794 18.5957Z" fill="white"/>
<path d="M45.2111 21.0132C45.0898 20.9033 44.9042 20.7063 44.692 20.5509C44.5594 20.4562 44.3737 20.4676 44.2714 20.6191C44.1804 20.7555 44.1653 20.9109 44.3093 21.0435C44.3775 21.1079 44.4381 21.1913 44.4836 21.2746C44.62 21.5171 44.7829 21.6081 45.0368 21.5588C45.2793 21.5133 45.3664 21.339 45.2149 21.0094L45.2111 21.0132Z" fill="white"/>
<path d="M46.7873 19.4672C46.6661 19.7173 46.4766 19.7741 46.2796 19.7893C46.0598 19.884 45.9121 20.1189 45.9462 20.2819C45.9841 20.4524 46.3175 20.6873 46.5221 20.6646C46.6737 20.6456 46.8821 20.6456 46.901 20.4486C46.9124 20.3463 46.9427 20.2629 46.9882 20.1871C46.9427 19.9295 46.8934 19.6718 46.8366 19.418C46.8214 19.4331 46.7987 19.4407 46.7873 19.4634V19.4672Z" fill="white"/>
<path d="M45.4953 20.369C45.5294 20.3538 45.5597 20.3235 45.5862 20.2894C45.5976 20.2894 45.609 20.2894 45.6241 20.2856C45.7188 20.2478 45.8477 20.1 45.8363 20.0204C45.8287 19.956 45.7643 19.8992 45.7037 19.8537C45.6999 19.8234 45.6885 19.7969 45.6772 19.7741C45.59 19.6263 45.2263 19.5468 45.0482 19.6377C44.8852 19.7173 44.8398 19.8954 44.9307 20.0772C45.0899 20.3879 45.2679 20.4827 45.4953 20.3728V20.369Z" fill="white"/>
<path d="M42.9869 21.5019C43.1044 21.4943 43.2749 21.411 43.3317 21.3162C43.4113 21.1836 43.309 21.1003 43.2673 21.0851C43.1726 21.051 43.0854 21.0965 42.9945 21.1457C42.9111 21.1874 42.8164 21.2139 42.7747 21.3086C42.7255 21.4185 42.8467 21.5133 42.9869 21.5057V21.5019Z" fill="white"/>
<path d="M45.1467 24.4879C45.177 24.3212 45.1013 24.1847 44.9421 24.109C44.8095 24.0446 44.6958 24.0635 44.6049 24.1772C44.4495 24.3742 44.5443 24.5447 44.6769 24.7342C44.8891 24.7038 45.1051 24.7304 45.1505 24.4879H45.1467Z" fill="white"/>
<path d="M42.9756 20.1453C42.8733 20.1832 42.8543 20.3158 42.8695 20.3727C42.8884 20.4333 42.9339 20.5318 43.0589 20.5129C43.184 20.4939 43.256 20.3992 43.2181 20.2742C43.184 20.1529 43.0779 20.1074 42.9718 20.1453H42.9756Z" fill="white"/>
<path d="M38.1217 9.13797C38.2468 9.02051 38.3907 9.01293 38.5461 8.9902C38.6181 8.97883 38.709 8.82348 38.7128 8.73254C38.7128 8.63781 38.6408 8.51278 38.5612 8.45594C38.5044 8.41805 38.3642 8.45594 38.296 8.50141C38.1596 8.59614 38.0459 8.72117 37.9285 8.84242C37.83 8.94473 37.8527 9.04703 37.9739 9.14934C38.0156 9.14934 38.0914 9.16828 38.1217 9.13797Z" fill="white"/>
<path d="M40.2777 7.79668C39.9556 7.48977 39.626 7.19422 39.285 6.90625C39.285 6.9252 39.2774 6.94035 39.2736 6.9593C39.2546 7.27379 39.4327 7.59207 39.7018 7.52008C39.7321 7.56555 39.7624 7.60723 39.8079 7.6527C39.9291 7.77395 40.111 7.81941 40.2777 7.79668Z" fill="white"/>
<path d="M38.7356 6.45955C38.5461 6.31178 38.3605 6.16021 38.1672 6.02002C38.1748 6.17158 38.2279 6.31936 38.3226 6.39135C38.4173 6.46334 38.5765 6.48986 38.7356 6.46334V6.45955Z" fill="white"/>
<path d="M33.6848 3.43949C33.6848 3.43949 33.6999 3.43949 33.7113 3.4357C33.6204 3.39402 33.5294 3.35234 33.4385 3.31445C33.4953 3.38266 33.5635 3.43949 33.6886 3.43949H33.6848Z" fill="white"/>
<path d="M47.1776 21.4146C47.1776 21.4146 47.1472 21.4449 47.1321 21.4562L47.1245 21.4373C47.151 21.4941 47.1776 21.5585 47.2041 21.6192C47.1965 21.551 47.1851 21.4828 47.1776 21.4146Z" fill="white"/>
<path d="M42.5436 11.0933C42.5208 11.3888 42.5208 11.7374 42.8315 11.9117C43.0816 12.0557 43.3961 11.9989 43.6386 11.817C43.1915 11.135 42.7103 10.4757 42.195 9.84668C42.1571 9.85805 42.123 9.86941 42.0851 9.88836C41.7895 10.0134 41.6872 10.3544 41.9032 10.6045C42.0661 10.7902 42.2897 10.9038 42.5473 11.0933H42.5436Z" fill="white"/>
<path d="M42.589 13.7799C42.7557 13.7231 42.8391 13.5336 42.7823 13.3631C42.7216 13.1813 42.589 13.1206 42.4147 13.1888C42.2253 13.2646 42.1419 13.4276 42.2063 13.5981C42.2632 13.7458 42.4412 13.833 42.589 13.7837V13.7799Z" fill="white"/>
<path d="M41.4447 11.3775C41.5281 11.3737 41.6342 11.26 41.6721 11.1691C41.6986 11.1047 41.6607 10.9645 41.6039 10.9228C41.4371 10.7978 41.2856 10.8698 41.1492 11.0327C41.1908 11.1956 41.2212 11.3889 41.4409 11.3775H41.4447Z" fill="white"/>
<path d="M42.0358 9.66111C41.7137 9.27463 41.3727 8.9033 41.0241 8.53955C41.0128 8.57744 41.0014 8.61912 40.9938 8.6608C40.9787 8.80479 41.0393 8.96014 41.0923 9.10033C41.1264 9.18748 41.2022 9.26326 41.2704 9.33146C41.3386 9.40346 41.4182 9.46787 41.494 9.53229C41.6986 9.70279 41.8729 9.74068 42.0358 9.65732V9.66111Z" fill="white"/>
<path d="M17.4751 10.8207C17.5282 10.798 17.6116 10.7071 17.585 10.6313C17.5585 10.5517 17.4448 10.529 17.388 10.5403C17.3312 10.5517 17.1948 10.6692 17.2213 10.745C17.2478 10.8207 17.4221 10.8435 17.4751 10.8207Z" fill="white"/>
<path d="M24.6555 6.32279C24.7843 6.20154 24.6365 5.81885 24.4963 5.81885C24.3561 5.81885 24.1515 6.15229 24.269 6.2849C24.3599 6.38721 24.5683 6.40615 24.6555 6.32279Z" fill="white"/>
<path d="M25.4776 9.40732C25.7277 9.29365 25.8754 8.94127 25.7845 8.67224C25.7239 8.49037 25.4094 8.39943 25.1858 8.50174C24.9282 8.6192 24.841 8.83896 24.9471 9.1042C25.0532 9.36185 25.2843 9.49447 25.4776 9.40732Z" fill="white"/>
<path d="M23.8218 8.68368C24.0113 8.61927 24.0984 8.45634 24.0416 8.28583C23.981 8.11154 23.7991 8.01681 23.6362 8.07743C23.4846 8.13048 23.3709 8.34267 23.4126 8.49044C23.4581 8.65337 23.6513 8.74431 23.8256 8.68368H23.8218Z" fill="white"/>
<path d="M24.3409 3.79548C24.356 3.62498 24.2727 3.5113 24.1325 3.46205C23.8786 3.3749 23.7915 3.57572 23.6968 3.7538C23.5793 3.72349 23.4732 3.69697 23.3633 3.67045C23.3709 3.64013 23.3747 3.60982 23.3823 3.57951C23.4277 3.55298 23.4732 3.52267 23.5262 3.48099C23.7309 3.31048 23.9393 3.15134 24.1439 2.98841C24.4735 3.3408 24.5341 3.3408 24.7653 2.99978C24.8638 3.03388 24.9699 3.04525 25.057 3.01494C25.2124 2.96189 25.2806 2.80654 25.2275 2.63224C25.1631 2.41627 24.9282 2.27607 24.7312 2.32912C24.5493 2.37837 24.428 2.58298 24.4811 2.75728C24.4205 2.75728 24.356 2.75728 24.2803 2.7838C23.9696 2.2647 23.6248 2.30259 23.3027 2.85959C23.2648 2.85959 23.2193 2.86337 23.1776 2.8558C23.0412 2.82548 22.9579 2.87474 22.8935 2.96189C22.7571 2.96947 22.6244 3.01115 22.5714 3.06798C22.4539 3.2006 22.488 3.45068 22.6548 3.65529C22.7078 3.7197 22.7684 3.78033 22.8291 3.84474C22.7646 4.04556 22.6737 4.25396 22.7305 4.43962C22.6851 4.46236 22.6396 4.48509 22.5979 4.51162C22.3933 4.64045 22.3403 5.09134 22.5032 5.26564C22.6699 5.43994 23.1322 5.47783 23.3368 5.20502C23.458 5.04209 23.4997 4.88295 23.4846 4.73896C23.5111 4.73138 23.5414 4.7238 23.5679 4.71623C23.8976 4.61392 23.9393 4.36005 23.9165 4.06451C24.0984 4.02662 24.3219 4.07209 24.3447 3.80306L24.3409 3.79548Z" fill="white"/>
<path d="M25.3223 8.39568C25.4738 8.26685 25.4359 7.96373 25.2351 7.74396C25.1328 7.63029 24.8865 7.62271 24.7653 7.7326C24.6061 7.87658 24.5683 8.1835 24.6933 8.31232C24.8524 8.47525 25.1745 8.52072 25.3223 8.39568Z" fill="white"/>
<path d="M35.1057 9.24431C35.2042 9.14201 35.2118 9.07002 35.208 8.97908C35.208 8.88814 35.2459 8.7972 35.1739 8.67216C35.1057 8.54713 34.9087 8.34252 34.6889 8.33494C34.4691 8.32357 34.31 8.41451 34.2115 8.56986C34.113 8.72521 34.1547 8.89951 34.2115 9.00939C34.2721 9.11927 34.4275 9.29357 34.6093 9.28978C34.7912 9.28599 34.992 9.35799 35.0981 9.24431H35.1057Z" fill="white"/>
<path d="M33.6657 4.35655C33.6089 4.23909 33.4649 4.09889 33.2906 4.04964C33.2186 3.96628 33.0709 3.88292 32.9458 3.92839C32.8511 3.96249 32.8132 4.07616 32.8018 4.19362C32.5139 4.45507 32.4722 4.77714 32.62 4.98553C32.7753 5.20909 33.2944 5.30382 33.5293 5.11436C33.8287 4.87186 33.7718 4.56874 33.6695 4.36034L33.6657 4.35655Z" fill="white"/>
<path d="M29.9714 6.9521C30.195 7.03546 30.339 6.89147 30.4489 6.69065C30.3844 6.51636 30.3049 6.33827 30.0813 6.34964C29.907 6.35722 29.782 6.48983 29.7971 6.66034C29.8047 6.76643 29.8843 6.92179 29.9714 6.9521Z" fill="white"/>
<path d="M29.7972 4.75817C29.7518 4.6066 29.5775 4.5043 29.4297 4.54598C29.2592 4.59145 29.1607 4.77332 29.2061 4.94762C29.2554 5.13328 29.3804 5.20528 29.5585 5.14844C29.7518 5.08782 29.8465 4.93246 29.7972 4.75817Z" fill="white"/>
<path d="M23.0867 11.419C23.1663 11.3963 23.1625 11.2295 23.1549 11.1651C23.1511 11.1272 23.064 11.059 23.0034 11.0856C22.9427 11.1121 22.8821 11.2068 22.8897 11.2636C22.8935 11.3129 23.0071 11.4455 23.0905 11.419H23.0867Z" fill="white"/>
<path d="M22.9655 2.19674C23.2876 2.42408 23.6476 2.29146 23.8749 2.0376C23.9658 1.93529 24.0075 1.75721 24.0113 1.56396C23.5794 1.57533 23.1474 1.59807 22.7192 1.63217C22.7344 1.81783 22.7685 2.06033 22.9655 2.19674Z" fill="white"/>
<path d="M16.1944 3.45469C16.4748 3.35238 16.6339 3.18187 16.6226 3C16.3611 3.09852 16.0997 3.20082 15.8458 3.30691C15.9102 3.4509 16.0429 3.51152 16.1944 3.45469Z" fill="white"/>
<path d="M35.4315 12.7418C35.5869 12.6016 35.6134 12.306 35.477 12.2151C35.3406 12.1241 34.8708 12.3742 34.8556 12.5637C34.8405 12.7531 35.2762 12.8819 35.4315 12.7418Z" fill="white"/>
<path d="M16.6151 4.09509C16.7856 4.02689 16.8841 3.79954 16.8121 3.64419C16.7401 3.48884 16.4938 3.40169 16.3385 3.47747C16.1718 3.55704 16.0922 3.7465 16.1604 3.90185C16.24 4.07993 16.4446 4.16708 16.6151 4.09888V4.09509Z" fill="white"/>
<path d="M22.507 9.36162C22.6321 9.34647 22.742 9.26311 22.7079 9.09639C22.6738 8.94104 22.4843 8.79705 22.3669 8.87662C22.2721 8.94104 22.0561 9.11155 22.1206 9.25932C22.185 9.40709 22.4085 9.37678 22.507 9.36541V9.36162Z" fill="white"/>
<path d="M14.2241 7.06935C14.3113 7.10345 14.4894 7.03904 14.55 6.95947C14.7053 6.75865 14.5576 6.4631 14.3757 6.40247C14.1938 6.34185 13.9399 6.50099 13.9703 6.77759C13.9816 6.88747 14.1142 7.02767 14.2241 7.06935Z" fill="white"/>
<path d="M22.4388 3.51168C22.5108 3.44348 22.4956 3.27676 22.507 3.1934C22.3327 3.02668 22.2076 3.07215 22.1167 3.16309C22.0258 3.25403 21.9689 3.40938 22.0978 3.49274C22.1849 3.54958 22.3782 3.56473 22.435 3.5079L22.4388 3.51168Z" fill="white"/>
<path d="M22.9314 7.50498C22.8556 7.31173 22.6623 7.22459 22.488 7.30795C22.3403 7.37615 22.2607 7.6338 22.3403 7.78916C22.4161 7.94072 22.6245 8.00892 22.7836 7.93693C22.9465 7.86494 23.0072 7.69443 22.9352 7.50498H22.9314Z" fill="white"/>
<path d="M23.3368 6.02744C23.3368 6.02744 23.3633 6.05397 23.3785 6.06154C23.4656 6.1108 23.6134 6.13733 23.6892 6.09186C23.9127 5.97061 23.8824 5.76979 23.7763 5.53486C23.6551 5.52729 23.5376 5.50455 23.4391 5.53108C23.4239 5.52729 23.4163 5.51971 23.4012 5.51592C23.3292 5.50076 23.1852 5.56518 23.1738 5.62201C23.1435 5.72811 23.1435 5.89104 23.2042 5.95924C23.2458 6.0085 23.2913 6.02744 23.3368 6.02744Z" fill="white"/>
<path d="M40.1072 11.7871H8.33594V36.1659H40.1072V11.7871Z" fill="#20377D"/>
<path d="M14.8835 27.1819C14.785 27.1932 14.5728 27.1591 14.516 27.2993C14.5008 27.3334 14.5008 27.36 14.5046 27.3827C14.4212 27.4244 14.372 27.4888 14.3795 27.5721C14.3947 27.7389 14.5917 27.9207 14.7357 27.9056C14.8153 27.898 14.8911 27.8146 14.9214 27.7161C14.9744 27.7161 15.0237 27.7086 15.0616 27.6782C15.1677 27.5873 15.1904 27.4736 15.1525 27.341C15.1108 27.2084 15.0047 27.1629 14.8835 27.1781V27.1819Z" fill="#20377D"/>
<path d="M16.0202 28.921C15.9823 29.0006 15.9861 29.0915 16.0732 29.1219C16.1414 29.1446 16.3271 29.1749 16.3612 29.1067C16.3953 29.0423 16.2892 28.8983 16.2361 28.8453C16.1831 28.7884 16.0581 28.8377 16.0164 28.921H16.0202Z" fill="#20377D"/>
<path d="M14.3151 25.4651C14.1825 25.5484 14.209 25.753 14.2999 25.825C14.3909 25.9008 14.5728 25.8591 14.6144 25.6924C14.6296 25.6242 14.5841 25.5181 14.5273 25.4689C14.4856 25.431 14.3681 25.431 14.3151 25.4651Z" fill="#20377D"/>
<path d="M15.0501 32.0012C15.0501 32.0012 15.0501 32.005 15.0577 32.0088C15.1449 32.0618 15.2244 32.0391 15.2889 31.9633C15.3609 31.8799 15.3684 31.7776 15.3116 31.6943C15.2396 31.5882 15.0994 31.5882 15.016 31.6261C14.9289 31.6488 14.8683 31.7284 14.8834 31.8193C14.8948 31.914 14.9668 31.986 15.0501 32.0012Z" fill="#20377D"/>
<path d="M15.6261 30.4708C15.736 30.5087 15.8838 30.2928 15.8497 30.1109C15.8269 29.9934 15.7512 29.948 15.6451 29.9404C15.5049 29.929 15.3419 30.0237 15.3306 30.1298C15.3078 30.342 15.5162 30.4292 15.6223 30.4671L15.6261 30.4708Z" fill="#20377D"/>
<path d="M14.3454 29.3376C14.4856 29.3376 14.6447 29.2126 14.6523 29.0913C14.6637 28.9397 14.4856 28.7541 14.334 28.7579C14.2317 28.7579 14.1294 28.9094 14.1256 29.0572C14.1256 29.2088 14.2241 29.3376 14.3416 29.3376H14.3454Z" fill="#20377D"/>
<path d="M15.9405 27.6327C16.0087 27.6138 16.0807 27.5683 16.1035 27.5152C16.1224 27.4622 16.0353 27.2917 15.9443 27.2955C15.8458 27.2955 15.7662 27.3864 15.77 27.4887C15.77 27.5834 15.8496 27.663 15.9443 27.6365L15.9405 27.6327Z" fill="#20377D"/>
<path d="M10.3025 29.7205C10.3745 29.7508 10.4389 29.8266 10.5071 29.9138C10.5071 29.9138 10.5071 29.9138 10.5071 29.9214C10.5071 29.9971 10.5791 30.0729 10.6511 30.0843C10.7685 30.2093 10.9049 30.2927 11.0982 30.198C11.3634 30.0691 11.3558 29.8266 11.2763 29.7281C11.2005 29.6296 11.0413 29.5993 11.0186 29.5197C10.9921 29.4401 11.1285 29.569 11.1285 29.2924C11.1285 29.0158 10.7496 28.8074 10.5867 29.0991C10.5639 29.1446 10.2949 28.9514 10.1509 29.1939C10.0107 29.4364 10.0713 29.622 10.3025 29.7205Z" fill="#20377D"/>
<path d="M9.68105 29.7507L9.69621 29.7318C9.72652 29.6788 9.76062 29.6257 9.78336 29.5689C9.83261 29.4363 9.84019 29.3074 9.72273 29.2051C9.59769 29.1028 9.46508 29.0232 9.29078 29.0877C9.10133 29.1597 9.02554 29.3529 9.13164 29.531C9.26426 29.7507 9.41961 29.8114 9.68484 29.747L9.68105 29.7507Z" fill="#20377D"/>
<path d="M8.72998 28.3714C8.72998 28.4888 8.82092 28.5608 8.9649 28.557C9.14678 28.557 9.26424 28.4585 9.25666 28.3259C9.24908 28.1592 9.12025 28.0303 8.98006 28.0379C8.88912 28.0455 8.72998 28.2577 8.72998 28.3714Z" fill="#20377D"/>
<path d="M9.94634 29.8755C9.91982 29.849 9.8213 29.8035 9.7872 29.8566C9.75689 29.9059 9.79099 29.9892 9.8213 30.0119C9.84783 30.0347 9.92361 30.0271 9.95013 30.0006C9.97287 29.9816 9.96908 29.8983 9.95013 29.8755H9.94634Z" fill="#20377D"/>
<path d="M15.5427 31.1752C15.6223 31.1752 15.6905 31.1335 15.7246 31.0729C15.7473 31.107 15.7776 31.1373 15.8117 31.1562C15.9785 31.2585 16.0997 31.2472 16.1793 31.1221C16.2626 30.9933 16.2247 30.766 16.1073 30.694C15.9898 30.622 15.7587 30.6788 15.6791 30.7963C15.6715 30.8076 15.6715 30.819 15.6677 30.8304C15.6299 30.7963 15.5844 30.7773 15.5389 30.7773C15.4404 30.7849 15.3646 30.8683 15.3646 30.9744C15.3646 31.088 15.429 31.1638 15.5351 31.1676L15.5427 31.1752Z" fill="#20377D"/>
<path d="M10.3366 28.5458C10.3821 28.4283 10.3555 28.3071 10.2949 28.2199C10.4503 28.1631 10.6208 27.9661 10.6246 27.8145C10.6284 27.6667 10.401 27.4432 10.2343 27.4318C10.06 27.4204 9.9198 27.5606 9.9198 27.7425C9.9198 27.8979 9.94253 28.0153 9.98421 28.0949C9.84781 28.1366 9.72656 28.2805 9.73792 28.4738C9.7455 28.6254 9.84023 28.7049 9.988 28.7314C10.1547 28.758 10.2911 28.686 10.3404 28.5458H10.3366Z" fill="#20377D"/>
<path d="M15.2169 28.5835C15.1449 28.5304 15.0123 28.5569 14.9592 28.6403C14.8986 28.7312 14.9176 28.8752 15.0009 28.9245C15.054 28.9586 15.1297 28.951 15.1942 28.9245C15.0691 29.1063 15.126 29.3299 15.2889 29.3678C15.4745 29.4095 15.5806 29.2769 15.6185 29.2996C15.6564 29.3223 15.8042 29.4663 15.9103 29.3602C16.1376 29.1329 15.88 28.9813 15.9254 28.8942C15.9709 28.807 16.1528 28.7123 16.2324 28.591C16.3422 28.4167 16.346 28.197 16.149 28.0985C15.9179 27.9848 15.7398 28.0719 15.6413 28.25C15.5011 28.5077 15.7853 28.6024 15.6413 28.7274C15.5011 28.8449 15.448 28.6858 15.2775 28.8335C15.304 28.7502 15.2813 28.6289 15.2207 28.5797L15.2169 28.5835Z" fill="#20377D"/>
<path d="M17.1417 29.7546C17.1342 29.6447 17.0508 29.6182 16.975 29.6333C16.9106 29.6447 16.7477 29.6939 16.7628 29.7849C16.778 29.8758 16.9333 29.9402 16.9978 29.9402C17.0887 29.9402 17.1493 29.8607 17.1417 29.7546Z" fill="#20377D"/>
<path d="M17.21 24.8247C17.2479 24.783 17.1872 24.7035 17.1569 24.677C17.138 24.658 17.066 24.658 17.0433 24.6845C17.0205 24.7111 17.0433 24.783 17.0698 24.8171C17.0812 24.8361 17.1721 24.8664 17.21 24.8247Z" fill="#20377D"/>
<path d="M17.6571 26.9353C17.7366 26.9807 17.9526 26.905 17.9602 26.7989C17.9716 26.6549 17.9299 26.5526 17.748 26.5867C17.5661 26.617 17.5813 26.8898 17.6609 26.9353H17.6571Z" fill="#20377D"/>
<path d="M19.6388 27.2312C19.6388 27.2312 19.6766 27.1251 19.6274 27.091C19.5781 27.0569 19.5099 27.1289 19.4872 27.1592C19.472 27.1781 19.4796 27.2501 19.5099 27.2691C19.5402 27.288 19.6084 27.2539 19.6388 27.2274V27.2312Z" fill="#20377D"/>
<path d="M18.987 27.3369C19.0173 27.3369 19.0665 27.2687 19.0627 27.2384C19.0552 27.2005 19.0021 27.1475 18.968 27.1475C18.9339 27.1475 18.8468 27.174 18.8543 27.2573C18.8619 27.3407 18.9529 27.3369 18.9908 27.3369H18.987Z" fill="#20377D"/>
<path d="M17.5774 29.2696C17.6721 29.3265 17.8161 29.2924 17.9184 29.209C17.9336 29.228 17.9525 29.2431 17.9791 29.2469C18.0851 29.2583 18.1496 29.0991 18.2178 29.0385C18.2102 29.0196 18.2064 28.9968 18.1988 28.9779C18.1268 28.8945 18.0851 28.8907 18.0056 28.8983C17.9791 28.8339 17.926 28.7771 17.8426 28.7354C17.6721 28.6444 17.5206 28.6861 17.4372 28.8453C17.3576 28.9968 17.4145 29.1787 17.5774 29.2734V29.2696Z" fill="#20377D"/>
<path d="M17.5586 25.1813C17.6154 25.1775 17.7556 25.1359 17.7518 25.0184C17.7442 24.9009 17.604 24.9009 17.5586 24.9085C17.5093 24.9161 17.4411 24.9805 17.4259 25.0298C17.4032 25.1207 17.4828 25.1889 17.5586 25.1813Z" fill="#20377D"/>
<path d="M17.441 27.3521C17.4296 27.443 17.5585 27.4733 17.6002 27.4695C17.6456 27.4695 17.729 27.443 17.729 27.3672C17.729 27.2914 17.657 27.2573 17.6153 27.2497C17.5736 27.2422 17.4524 27.2573 17.441 27.3483V27.3521Z" fill="#20377D"/>
<path d="M31.0022 30.8761C31.0439 30.8761 31.131 30.8724 31.1348 30.8231C31.1386 30.7738 31.0893 30.7208 31.0514 30.7094C31.0173 30.7019 30.8999 30.7246 30.9037 30.7776C30.9037 30.8269 30.9756 30.8761 31.006 30.8761H31.0022Z" fill="#20377D"/>
<path d="M17.5471 30.6413C17.6267 30.6527 17.7214 30.5314 17.6949 30.4481C17.676 30.395 17.6153 30.3571 17.5926 30.3344C17.5623 30.3344 17.5358 30.3457 17.5092 30.3533C17.4827 30.3079 17.4524 30.2662 17.4069 30.2397C17.244 30.1336 17.0091 30.1715 16.9106 30.3192C16.7931 30.4897 16.8083 30.7284 16.9371 30.8232C17.0318 30.8914 17.1985 30.8952 17.3349 30.8535C17.2971 30.9065 17.2819 30.9747 17.2781 31.0202C17.2667 31.1149 17.3615 31.1415 17.4448 31.1377C17.4865 31.1377 17.5244 31.1187 17.5547 31.0922C17.5471 31.1225 17.5433 31.1566 17.5547 31.1945C17.5623 31.2324 17.5964 31.2892 17.6267 31.2968C17.7214 31.3195 17.8237 31.3233 17.9298 31.3347C17.9601 31.3802 17.9904 31.4181 18.0246 31.4522C18.0814 31.2892 18.1458 31.1263 18.214 30.9596C18.1647 30.9368 18.1117 30.9217 18.0435 30.9179C18.0208 30.9482 17.9488 30.9975 17.9412 31.0581C17.873 30.9634 17.8086 30.8724 17.6684 30.952C17.6381 30.9672 17.6153 30.9899 17.5964 31.0126C17.5964 30.9975 17.5964 30.9861 17.5964 30.9709C17.5737 30.9179 17.5396 30.808 17.46 30.7929C17.4827 30.7739 17.5017 30.755 17.5168 30.736C17.532 30.7095 17.5396 30.6754 17.5471 30.6451V30.6413Z" fill="#20377D"/>
<path d="M30.3807 30.3798C30.3807 30.3116 30.358 30.2434 30.2898 30.2358C30.3201 30.2851 30.3542 30.3306 30.3807 30.3798Z" fill="#20377D"/>
<path d="M9.2264 28.7732C9.26808 28.8641 9.48406 28.8528 9.5371 28.8262C9.59015 28.8035 9.62425 28.7239 9.61667 28.6785C9.6091 28.633 9.57121 28.5383 9.46511 28.5155C9.35902 28.4966 9.18472 28.6785 9.23019 28.7694L9.2264 28.7732Z" fill="#20377D"/>
<path d="M16.4748 30.8648C16.6718 30.8648 16.831 30.7587 16.8272 30.6223C16.8234 30.5011 16.6491 30.3457 16.5165 30.3457C16.4066 30.3457 16.2626 30.5238 16.2702 30.6488C16.2778 30.7473 16.3839 30.861 16.4748 30.861V30.8648Z" fill="#20377D"/>
<path d="M16.8917 28.6102C16.778 28.6064 16.6416 28.7807 16.6378 28.9323C16.634 29.0801 16.7363 29.2013 16.8651 29.1975C17.0319 29.1975 17.2062 29.0536 17.1986 28.9209C17.191 28.7656 17.0394 28.6102 16.8917 28.6064V28.6102Z" fill="#20377D"/>
<path d="M16.4293 30.3079C16.4483 30.2738 16.399 30.1791 16.3573 30.1412C16.3005 30.0957 16.2134 30.0957 16.1906 30.1867C16.1755 30.2473 16.1414 30.4102 16.2058 30.4481C16.274 30.486 16.4028 30.361 16.4293 30.3079Z" fill="#20377D"/>
<path d="M18.0208 30.1903C18.1307 30.2737 18.3467 30.2434 18.43 30.1335C18.4982 30.0463 18.4755 29.8948 18.3808 29.8266C18.2747 29.747 18.089 29.7887 18.0057 29.9062C17.9299 30.0122 17.9374 30.1259 18.0208 30.1903Z" fill="#20377D"/>
<path d="M9.38548 25.7343C9.29076 25.7191 9.21497 25.7532 9.16572 25.8404C9.11267 25.9351 9.12025 26.0677 9.20361 26.1245C9.22634 26.1397 9.24908 26.1435 9.26802 26.1511C9.23013 26.2496 9.21876 26.367 9.25287 26.4996C9.26044 26.5262 9.27181 26.5451 9.27939 26.5679C9.2415 26.5982 9.21119 26.6361 9.20361 26.6739C9.16572 26.8255 9.30591 26.8482 9.41958 26.9089C9.4499 26.8823 9.47642 26.8596 9.49915 26.8331C9.51431 26.8407 9.53326 26.852 9.5522 26.8596C9.71134 26.9202 9.84396 26.7459 10.0183 26.7384C10.0524 26.7384 10.0827 26.7346 10.1092 26.727C10.094 26.7914 10.1092 26.852 10.1736 26.9127C10.2456 26.9771 10.3403 26.9998 10.4085 26.924C10.4616 26.8672 10.5146 26.7649 10.4995 26.7005C10.4805 26.6247 10.4351 26.5906 10.3782 26.5754C10.4616 26.4542 10.4616 26.2875 10.4275 26.1283C10.4047 26.0298 10.3517 25.954 10.2835 25.8934C10.1888 25.8138 10.0675 25.7987 9.92353 25.8176C9.77954 25.8366 9.66208 25.7494 9.53704 25.8252C9.53326 25.8252 9.52568 25.8328 9.52189 25.8366C9.49536 25.7759 9.45369 25.7418 9.38548 25.7305V25.7343Z" fill="#20377D"/>
<path d="M11.5301 29.4664C11.6286 29.527 11.6741 29.6103 11.7196 29.7089C11.8219 29.9324 12.0417 30.0006 12.269 29.8983C12.322 29.8756 12.3789 29.8642 12.394 29.8604C12.5418 29.9059 12.6138 29.8604 12.6631 29.7771C12.7161 29.6861 12.6669 29.6103 12.6024 29.5421C12.5304 29.4664 12.4622 29.3906 12.3903 29.3186C12.3069 29.239 12.2311 29.1519 12.0909 29.1898C12.0606 29.1973 12.0113 29.1822 11.981 29.1594C11.7461 28.9927 11.6665 29.0003 11.515 29.2125C11.5074 29.2239 11.5036 29.2352 11.496 29.2466C11.5112 29.2314 11.5074 29.1481 11.4922 29.1405C11.4544 29.1216 11.3899 29.114 11.3596 29.1367C11.3369 29.1557 11.3142 29.2693 11.3407 29.2921C11.3672 29.3148 11.4657 29.2731 11.496 29.2466C11.4506 29.33 11.4544 29.4133 11.5377 29.4664H11.5301Z" fill="#20377D"/>
<path d="M9.87806 25.4688C10.0069 25.2945 10.0069 25.1695 9.88564 25.0748C9.7947 25.0066 9.56735 25.0445 9.50673 25.1392C9.44989 25.2263 9.50673 25.4499 9.60524 25.5257C9.69618 25.5939 9.80606 25.5711 9.87806 25.4688Z" fill="#20377D"/>
<path d="M9.7947 30.7966C9.69998 30.7739 9.60904 30.8156 9.57873 30.9103C9.55978 30.9671 9.56357 31.0618 9.59767 31.1035C9.69619 31.2248 9.81744 31.1831 9.94626 31.0884C9.92732 30.9633 9.94626 30.8345 9.7947 30.8004V30.7966Z" fill="#20377D"/>
<path d="M13.508 24.7682C13.3981 24.6962 13.1973 24.7568 13.0912 24.9008C13.0533 24.9538 13.042 25.0069 13.0457 25.0561C13.042 25.0561 13.0382 25.0561 13.0344 25.0561C12.8904 25.0637 12.7767 25.1622 12.7843 25.2797C12.7919 25.3896 12.8866 25.4691 13.0041 25.4616C12.9851 25.5184 12.9813 25.5828 13.0003 25.6586C13.023 25.7571 13.0382 25.8405 12.9927 25.9352C12.9207 26.0754 12.9927 26.2118 13.0571 26.3368C13.1177 26.4505 13.2958 26.5074 13.4284 26.477C13.4398 26.477 13.455 26.4695 13.4663 26.4657C13.4057 26.5301 13.3678 26.6172 13.3678 26.7006C13.3716 26.8256 13.5004 26.9128 13.6785 26.909C13.8149 26.909 13.9627 26.7953 13.9627 26.6892C13.9627 26.5415 13.7998 26.3634 13.6709 26.3596C13.652 26.3596 13.633 26.3596 13.6141 26.3672C13.6444 26.3255 13.6671 26.2724 13.6785 26.208C13.705 26.0451 13.6558 25.9163 13.5838 25.7836C13.5573 25.7382 13.5421 25.6738 13.5497 25.6245C13.5686 25.4578 13.5118 25.3555 13.383 25.3138C13.4436 25.3062 13.5042 25.2797 13.5345 25.238C13.6103 25.1357 13.5952 24.8326 13.5118 24.772L13.508 24.7682Z" fill="#20377D"/>
<path d="M11.155 26.3215C11.2307 26.3215 11.2497 26.2229 11.2042 26.151C11.1663 26.0903 11.0716 26.0183 11.0072 26.0108C10.9125 26.0032 10.8935 26.0828 10.8973 26.1093C10.9049 26.1699 10.9541 26.2078 11.0072 26.2419C11.0526 26.276 11.0943 26.3215 11.1587 26.3177L11.155 26.3215Z" fill="#20377D"/>
<path d="M10.7003 26.9921C10.6889 26.9732 10.6775 26.9504 10.6586 26.9391C10.579 26.886 10.5298 26.9353 10.4843 26.9883C10.4199 27.0679 10.4313 27.1702 10.5184 27.2043C10.5828 27.227 10.6548 27.2574 10.7041 27.2195C10.723 27.2081 10.7306 27.174 10.7306 27.1361C10.7912 27.2801 10.9314 27.3634 11.136 27.3597C11.155 27.3597 11.1701 27.3597 11.1853 27.3521C11.0981 27.4241 11.0337 27.534 11.0299 27.6325C11.0299 27.7461 11.1588 27.8522 11.3065 27.856C11.4808 27.856 11.5869 27.7461 11.5945 27.5529C11.5983 27.4127 11.4922 27.2649 11.3823 27.2687C11.3672 27.2687 11.352 27.2687 11.3368 27.2763C11.4202 27.2005 11.477 27.0831 11.4695 26.958C11.4695 26.9125 11.4581 26.8671 11.4391 26.8292C11.5831 26.886 11.8332 26.8481 11.9317 26.742C11.9999 26.67 12.0227 26.5412 11.9886 26.42C12.1288 26.4427 12.2841 26.4048 12.3675 26.2987C12.4773 26.1623 12.447 25.8933 12.3068 25.7682C12.1704 25.6432 11.962 25.6773 11.8029 25.844C11.7726 25.8023 11.7157 25.772 11.6513 25.7531C11.5187 25.8327 11.4922 25.935 11.568 26.0411C11.4581 26.1509 11.3634 26.2191 11.3065 26.3101C11.2611 26.3821 11.2611 26.5071 11.2876 26.6132C11.2421 26.6018 11.1929 26.6132 11.155 26.6435C11.1247 26.6435 11.0943 26.6359 11.0564 26.6435C10.7798 26.6738 10.6965 26.761 10.6927 26.9845L10.7003 26.9921Z" fill="#20377D"/>
<path d="M9.93497 30.1939C9.88951 30.0423 9.78341 29.9666 9.59775 29.959C9.57122 29.959 9.5447 29.9666 9.51818 29.9704L9.50302 29.9893C9.44619 30.084 9.37798 30.175 9.34009 30.2773C9.32494 30.3152 9.36283 30.3985 9.40072 30.4326C9.5106 30.5311 9.71142 30.5236 9.84404 30.444C9.94634 30.3834 9.9615 30.3 9.93119 30.1977L9.93497 30.1939Z" fill="#20377D"/>
<path d="M17.3766 32.2858C17.3766 32.2858 17.4107 32.2745 17.4297 32.2707C17.4486 32.301 17.4676 32.3275 17.4941 32.3502C17.5661 32.4071 17.6987 32.3957 17.7707 32.3465C17.801 32.21 17.8275 32.0774 17.8654 31.941C17.8541 31.9221 17.8427 31.9031 17.8275 31.8918C17.7631 31.8463 17.6684 31.8463 17.5775 31.8766C17.532 31.7591 17.4297 31.6909 17.2895 31.6985C17.172 31.7061 17.0697 31.7705 17.0281 31.8501C17.0432 31.8084 17.047 31.7629 17.0394 31.7061C16.9485 31.6568 16.85 31.5886 16.759 31.6947C16.7249 31.7326 16.7325 31.8311 16.759 31.8842C16.7742 31.9221 16.8575 31.9675 16.8992 31.9562C16.9598 31.9448 17.0015 31.9145 17.0205 31.8728C17.0129 31.8956 17.0053 31.9183 17.0053 31.941C17.0205 32.1191 17.2061 32.2896 17.3766 32.2896V32.2858Z" fill="#20377D"/>
<path d="M14.8645 30.7548C14.8872 30.7851 14.9137 30.8116 14.9516 30.8306C15.0047 30.8078 15.1032 30.7889 15.16 30.7282C15.2396 30.6449 15.179 30.4971 15.0691 30.4403C15.0236 30.4175 14.9744 30.4175 14.9289 30.4327C14.8493 30.3266 14.766 30.3266 14.7773 30.2698C14.7887 30.2091 14.8872 30.1031 14.819 30.0083C14.7925 29.9704 14.7243 29.9629 14.6447 29.9666C14.6712 29.906 14.5765 29.6976 14.4212 29.6787C14.3226 29.6673 14.2355 29.7241 14.2052 29.834C14.1749 29.9401 14.2014 30.0348 14.2999 30.0841C14.3075 30.0841 14.3151 30.0841 14.3226 30.0879C14.281 30.1372 14.2317 30.1826 14.1673 30.1409C14.0688 30.0765 14.0157 29.9401 13.8907 29.9439C13.7657 29.9439 13.4777 29.9363 13.3981 30.1182C13.3223 30.2887 13.489 30.3228 13.5383 30.4213C13.5876 30.5198 13.7126 30.607 13.849 30.5577C13.9854 30.5085 14.0953 30.3948 14.1711 30.3986C14.2469 30.4024 14.3302 30.4327 14.3113 30.5426C14.3037 30.5956 14.3226 30.6525 14.3681 30.7055C14.2961 30.7055 14.2241 30.7358 14.19 30.7964C14.1635 30.8457 14.1597 30.9063 14.1787 30.9594C14.0271 31.0011 13.8755 31.1905 13.8831 31.3497C13.8831 31.3648 13.8907 31.3762 13.8945 31.3875C13.7884 31.3459 13.5156 31.3875 13.4701 31.4595C13.383 31.5922 13.436 31.7627 13.5989 31.8612C13.7202 31.9332 13.8452 31.8839 13.9475 31.721C13.993 31.6452 14.0082 31.5694 13.993 31.505C14.0498 31.5391 14.1256 31.558 14.2052 31.5543C14.3984 31.5391 14.478 31.4482 14.4704 31.2398C14.4704 31.1867 14.4515 31.1413 14.4325 31.0958C14.4856 31.0806 14.5348 31.0503 14.5614 31.0048C14.5917 30.9442 14.5803 30.8609 14.5386 30.8002C14.5689 30.8116 14.5992 30.8192 14.6371 30.823C14.7281 30.8305 14.8114 30.7964 14.8758 30.7434L14.8645 30.7548Z" fill="#20377D"/>
<path d="M31.8016 30.8004C31.8698 30.8004 31.9077 30.7208 31.9077 30.6867C31.9077 30.6488 31.9001 30.5806 31.8206 30.5692C31.7448 30.5579 31.6841 30.5995 31.6804 30.6791C31.6766 30.7587 31.7334 30.8042 31.8016 30.8004Z" fill="#20377D"/>
<path d="M13.3185 30.505C13.1821 30.433 12.9358 30.505 12.8487 30.6414C12.7918 30.7323 12.7956 30.8346 12.8487 30.9331C12.8335 31.0468 12.9093 31.1453 13.004 31.1756C12.932 31.1984 12.86 31.2097 12.7767 31.2021C12.7236 31.2021 12.644 31.2628 12.6137 31.3158C12.5645 31.403 12.5001 31.4712 12.4394 31.5469C12.3561 31.6492 12.3674 31.8008 12.4584 31.8766C12.591 31.9903 12.6971 31.9978 12.807 31.8766C12.8676 31.8122 12.8979 31.7212 12.9472 31.6303C12.9964 31.6379 13.0495 31.6493 13.0987 31.6568C13.1973 31.6758 13.2768 31.6303 13.3223 31.5545C13.3829 31.4484 13.3412 31.3423 13.2768 31.2438C13.2579 31.2135 13.2351 31.1908 13.2086 31.1718C13.3071 31.1718 13.3981 31.1264 13.4587 31.0316C13.5648 30.8611 13.4966 30.5959 13.3147 30.5012L13.3185 30.505Z" fill="#20377D"/>
<path d="M12.2993 31.4328C12.2084 31.3684 12.1175 31.3798 12.0834 31.4783C12.0568 31.5465 11.9773 31.6943 12.0796 31.7625C12.1819 31.8307 12.2918 31.7018 12.3524 31.6526C12.4206 31.5995 12.3865 31.4896 12.2993 31.429V31.4328Z" fill="#20377D"/>
<path d="M12.3637 30.4062C12.2348 30.2926 11.9885 30.2357 11.8408 30.338C11.7726 30.3835 11.7195 30.4631 11.6703 30.5388C11.6248 30.5123 11.5717 30.4896 11.5111 30.4669C11.5073 30.4441 11.496 30.4176 11.4998 30.3911C11.4998 30.2812 11.4353 30.2357 11.3406 30.2092C11.2497 30.1827 11.1928 30.2168 11.1322 30.285C11.0451 30.3797 11.0185 30.4517 11.0413 30.5237C11.0413 30.5237 11.0375 30.5237 11.0337 30.5237C10.8859 30.5616 10.8026 30.6639 10.7647 30.7851C10.7723 30.7472 10.776 30.7094 10.776 30.6677C10.7685 30.5085 10.6699 30.4176 10.4994 30.4214C10.3214 30.4252 10.1774 30.5692 10.1774 30.7397C10.1774 30.9064 10.3365 31.0617 10.5032 31.0542C10.6245 31.0466 10.7192 30.9519 10.7609 30.8192C10.7457 30.8837 10.7457 30.9481 10.7533 31.0163C10.7836 31.2247 11.1625 31.4785 11.3558 31.452C11.4429 31.4406 11.4922 31.3838 11.5339 31.327C11.5604 31.3383 11.5793 31.3535 11.6134 31.3649C11.6892 31.3232 11.7195 31.2701 11.7271 31.2095C11.8256 31.2701 11.981 31.3762 12.1477 31.3459C12.3864 31.3042 12.5569 30.9632 12.5342 30.7927C12.5114 30.6222 12.4773 30.4934 12.3712 30.3987L12.3637 30.4062Z" fill="#20377D"/>
<path d="M13.8642 28.0681C13.8642 27.9999 13.8452 27.9355 13.8187 27.8749C13.8642 27.7991 13.8414 27.6854 13.7657 27.6248C13.6975 27.5718 13.5989 27.5755 13.5421 27.6248C13.5345 27.6248 13.5307 27.621 13.5232 27.621C13.3375 27.621 13.1215 27.837 13.1291 28.0189C13.1367 28.1932 13.3413 28.3788 13.527 28.3712C13.7088 28.3675 13.8642 28.2273 13.8642 28.0643V28.0681Z" fill="#20377D"/>
<path d="M11.4543 28.5685C11.4088 28.47 11.2004 28.4662 11.1625 28.5799C11.1247 28.6936 11.2459 28.8073 11.3823 28.7921C11.4505 28.7845 11.4884 28.6481 11.4505 28.5685H11.4543Z" fill="#20377D"/>
<path d="M13.8301 29.7016C13.9172 29.7016 13.9817 29.6107 14.0158 29.5463C14.0536 29.4743 13.9589 29.3833 13.8718 29.3796C13.7543 29.3682 13.7013 29.444 13.7088 29.5235C13.7164 29.588 13.7429 29.7016 13.8301 29.7054V29.7016Z" fill="#20377D"/>
<path d="M9.46124 28.0417C9.52187 28.0417 9.58249 27.9887 9.62038 27.9243C9.71511 27.9243 9.81363 27.9053 9.85531 27.8485C9.91972 27.7651 9.84773 27.5492 9.72269 27.4506C9.64691 27.39 9.50671 27.4165 9.43851 27.4885C9.42335 27.4885 9.4082 27.481 9.39304 27.4772C9.24527 27.4772 9.10507 27.5757 9.10128 27.6856C9.0937 27.8485 9.29452 28.0417 9.46503 28.0379L9.46124 28.0417Z" fill="#20377D"/>
<path d="M12.7199 26.7382C12.7729 26.7988 12.8449 26.7193 12.8752 26.6928C12.8942 26.6776 12.8866 26.5942 12.8714 26.5867C12.8335 26.5677 12.7691 26.5601 12.7388 26.5829C12.7161 26.6018 12.663 26.6776 12.7199 26.7382Z" fill="#20377D"/>
<path d="M12.5153 26.6969C12.4016 26.7007 12.2993 26.8106 12.3069 26.9167C12.3145 27.0228 12.4395 27.1251 12.5456 27.1137C12.6593 27.1023 12.7464 27.0076 12.7389 26.9053C12.7313 26.784 12.629 26.6931 12.5153 26.6969Z" fill="#20377D"/>
<path d="M10.4388 28.5914C10.3782 28.671 10.4047 28.8036 10.4995 28.8718C10.5904 28.9363 10.6965 28.9135 10.7761 28.8112C10.8556 28.7051 10.8594 28.6028 10.7874 28.5536C10.7003 28.4967 10.4995 28.5157 10.4426 28.5914H10.4388Z" fill="#20377D"/>
<path d="M10.9504 28.3524C10.9883 28.3752 11.0603 28.4169 11.0868 28.3752C11.1134 28.3335 11.102 28.2615 11.0793 28.235C11.0755 28.2312 11.0641 28.2236 11.0565 28.2198C11.0679 28.1933 11.0717 28.1668 11.0679 28.1403C11.0603 28.0379 10.9694 27.9622 10.8709 27.966C10.761 27.9697 10.689 28.0607 10.6928 28.1857C10.6928 28.2956 10.7723 28.3828 10.8671 28.3828C10.8936 28.3828 10.9239 28.3676 10.9504 28.3524Z" fill="#20377D"/>
<path d="M13.7884 28.4398C13.7581 28.4853 13.7353 28.5876 13.7657 28.6217C13.796 28.6558 13.9096 28.6482 13.9475 28.6179C13.9816 28.5914 14.0271 28.4436 13.9854 28.4057C13.9437 28.3678 13.8073 28.4095 13.7884 28.4398Z" fill="#20377D"/>
<path d="M13.1025 29.6067C13.22 29.6067 13.3109 29.5574 13.3716 29.4741C13.4663 29.5082 13.5459 29.4855 13.5989 29.3983C13.6974 29.2467 13.6709 29.0156 13.5534 28.9474C13.5004 28.9171 13.4246 28.9209 13.3526 28.9512C13.292 28.883 13.2086 28.8451 13.1025 28.8489C12.9017 28.8565 12.7123 29.0383 12.7236 29.2126C12.735 29.4324 12.9055 29.6067 13.1063 29.6067H13.1025Z" fill="#20377D"/>
<path d="M12.1819 27.5529C12.2349 27.4772 12.2615 27.3938 12.1781 27.318C12.1137 27.2574 11.9659 27.2688 11.9129 27.3294C11.8674 27.3862 11.9129 27.5037 12.0038 27.5757C12.072 27.6287 12.1364 27.6211 12.1819 27.5529Z" fill="#20377D"/>
<path d="M11.8674 28.0002C11.9205 27.9395 11.8333 27.8789 11.803 27.8524C11.7879 27.8372 11.7045 27.8524 11.7007 27.8713C11.6893 27.913 11.6893 27.9774 11.7121 28.0002C11.731 28.0229 11.8144 28.0646 11.8674 28.0002Z" fill="#20377D"/>
<path d="M11.9923 28.7389C12.0606 28.7768 12.125 28.7465 12.1553 28.6821C12.1818 28.6214 12.1288 28.5532 12.0984 28.5381C12.0643 28.5191 11.9999 28.5002 11.9545 28.5646C11.909 28.629 11.9241 28.701 11.9923 28.7389Z" fill="#20377D"/>
<path d="M12.7995 27.3411C12.7995 27.2312 12.7313 27.1592 12.6252 27.1592C12.4092 27.1592 12.2728 27.2501 12.269 27.3903C12.269 27.4964 12.4358 27.6707 12.5419 27.6707C12.6479 27.6707 12.7957 27.485 12.7995 27.3448V27.3411Z" fill="#20377D"/>
<path d="M12.8032 28.7505C12.8487 28.6975 12.8601 28.6293 12.8449 28.5686C12.9018 28.5118 12.9359 28.436 12.9359 28.3527C12.9321 28.1064 12.7805 27.9207 12.5948 27.9283C12.5456 27.9283 12.4925 27.9472 12.4471 27.9737C12.4584 27.9169 12.4471 27.8639 12.4016 27.807C12.3296 27.7161 12.2311 27.6971 12.1401 27.7388C12 27.8032 12.0341 27.9396 12.0303 28.0761C12.125 28.1139 12.2084 28.148 12.2841 28.1329C12.2538 28.1821 12.2349 28.239 12.2349 28.2882C12.2349 28.4209 12.3485 28.5611 12.4774 28.6255C12.485 28.6747 12.5077 28.7202 12.5494 28.7619C12.6327 28.8414 12.7237 28.8377 12.7994 28.7505H12.8032Z" fill="#20377D"/>
<path d="M17.5661 32.4863C17.3652 32.5129 17.2705 32.6 17.2667 32.7592C17.2667 32.9372 17.3842 33.0623 17.5774 33.0812C17.6002 33.0812 17.6229 33.085 17.6456 33.0888C17.6684 32.8842 17.6987 32.6796 17.7404 32.4712C17.6835 32.4712 17.6229 32.4788 17.5661 32.4863Z" fill="#20377D"/>
<path d="M12.4168 33.0247C12.2463 33.0323 12.0947 33.2482 12.1023 33.4718C12.1061 33.6347 12.2501 33.7636 12.4244 33.7408C12.7124 33.7067 12.7465 33.6196 12.7692 33.3392C12.7844 33.1649 12.6025 33.0171 12.4168 33.0247Z" fill="#20377D"/>
<path d="M13.6747 32.748C13.6747 32.748 13.6898 32.7707 13.705 32.7783C13.7391 32.801 13.83 32.8124 13.902 32.8048C13.8603 32.9109 13.8793 32.9905 13.9626 33.0435C14.0081 33.0739 14.0649 33.0776 14.1142 33.0625C14.0725 33.1231 14.0384 33.1951 14.046 33.2444C14.0573 33.3239 14.2203 33.4149 14.3226 33.3997C14.4097 33.3846 14.459 33.3012 14.4363 33.2027C14.3984 33.0435 14.3226 32.9526 14.243 32.9602C14.2544 32.9412 14.2657 32.9299 14.2695 32.9071C14.3074 32.7745 14.4022 32.7594 14.5082 32.7177C14.6409 32.9981 14.8227 33.0435 15.0273 32.8692C15.0463 32.8503 15.0652 32.8314 15.0842 32.8124C15.2016 32.6722 15.1903 32.5623 15.0387 32.46C14.9288 32.3842 14.819 32.3198 14.6712 32.407C14.656 32.3691 14.6333 32.3464 14.6068 32.3312C14.6068 32.2933 14.6106 32.2668 14.6219 32.2403C14.6674 32.1342 14.6484 32.0508 14.5575 31.9864C14.4628 31.9144 14.3605 31.8651 14.2392 31.9333C14.2392 31.9333 14.2316 31.9333 14.2316 31.9371C14.2089 31.8614 14.1483 31.8083 14.0611 31.8083C13.9475 31.8083 13.8755 31.8689 13.8717 31.9788C13.8717 32.0508 13.902 32.1152 13.9513 32.1531C13.8755 32.2668 13.8906 32.3994 13.9778 32.6305C13.9778 32.6381 13.9778 32.6495 13.9854 32.6608C13.9626 32.6078 13.9209 32.5548 13.8944 32.5282C13.8376 32.4676 13.7504 32.46 13.6898 32.5434C13.6784 32.5585 13.6709 32.5737 13.6671 32.5889C13.6292 32.4828 13.5534 32.3918 13.4625 32.3539C13.4397 32.1758 13.273 32.0129 13.1101 32.0167C12.8827 32.0205 12.7236 32.1721 12.7122 32.3729C12.7084 32.3729 12.7047 32.3615 12.6971 32.3615C12.6099 32.3123 12.5038 32.3047 12.4129 32.3274C12.4356 32.2933 12.4508 32.2592 12.447 32.2175C12.4394 32.1114 12.3144 32.0129 12.2045 32.0243C12.1931 32.0243 12.178 32.0281 12.1666 32.0319C12.1477 31.8576 11.9885 31.6984 11.8256 31.7022C11.6399 31.706 11.4618 31.8576 11.4581 32.0167C11.4505 32.1872 11.7043 32.4373 11.8786 32.4259C11.9468 32.4221 12.0113 32.3842 12.0605 32.335C12.1022 32.3918 12.1704 32.4259 12.2538 32.4221C12.2613 32.4221 12.2651 32.4221 12.2689 32.4184C12.2121 32.5093 12.3257 32.7783 12.447 32.8427C12.5341 32.8882 12.6971 32.8427 12.7539 32.7556C12.7766 32.7177 12.7956 32.676 12.8032 32.6381C12.8411 32.676 12.8903 32.7063 12.9547 32.7177C12.9547 32.7328 12.9547 32.748 12.9547 32.7632C12.9661 32.9223 13.1518 33.0739 13.3336 33.0739C13.4928 33.0739 13.6671 32.9071 13.6898 32.748H13.6747Z" fill="#20377D"/>
<path d="M11.7575 33.7973C11.7688 33.7026 11.7309 33.5965 11.6552 33.5358C11.6476 33.5321 11.64 33.5283 11.6324 33.5245C11.7234 33.5055 11.7991 33.4411 11.8711 33.335C11.981 33.1683 11.909 32.9069 11.7271 32.8046C11.6438 32.7553 11.515 32.7742 11.4013 32.8311C11.4505 32.7629 11.4619 32.6795 11.4278 32.6113C11.3558 32.4825 11.2649 32.3612 11.1777 32.2324C11.2573 32.0467 11.2535 32.0354 11.0489 31.9331C10.9807 31.9444 10.939 32.0581 10.8632 32.0429C10.8557 32.0126 10.8405 31.9861 10.8216 31.9596C10.8481 31.8914 10.8784 31.8232 10.8936 31.7512C10.9163 31.6413 10.8519 31.5579 10.7685 31.4897C10.6814 31.4215 10.6056 31.4897 10.5336 31.5201C10.4048 31.5807 10.3631 31.6906 10.3555 31.8346C10.3328 31.8497 10.31 31.8649 10.2911 31.8838C10.2759 31.7398 10.185 31.6603 10.0448 31.6034C9.89703 31.5428 9.73789 31.5845 9.63937 31.7095C9.5257 31.8535 9.51433 31.9785 9.63937 32.1149C9.71515 32.1983 9.82125 32.2627 9.92734 32.3044C10.0145 32.3385 10.0827 32.3726 10.0978 32.4673C10.1206 32.6075 10.2153 32.634 10.3403 32.6037C10.2494 32.8917 10.3214 33.0774 10.5563 33.1835C10.742 33.2668 10.8557 33.2024 10.9807 32.9751C11.0906 32.9523 11.1853 32.941 11.2649 32.9144C11.2384 32.9372 11.2118 32.9599 11.1929 32.9864C11.1361 33.0736 11.1361 33.1759 11.1739 33.2668C11.1095 33.3009 11.0565 33.3691 11.0603 33.4373C11.0603 33.5169 11.1247 33.5965 11.2005 33.6344C11.1777 33.7139 11.1929 33.7897 11.208 33.82C11.2611 33.9223 11.352 33.9299 11.4468 33.9337C11.4922 33.9337 11.5339 33.9488 11.5756 33.9451C11.5263 34.0474 11.5377 34.1876 11.5832 34.2974H12.2159C12.2538 34.1307 12.1856 33.8617 12.072 33.7821C11.9848 33.7215 11.8598 33.7329 11.7537 33.7821L11.7575 33.7973Z" fill="#20377D"/>
<path d="M14.19 33.8165C14.0877 33.7559 13.9513 33.7938 13.8982 33.8999C13.849 34.0022 13.8906 34.1538 13.9778 34.203C14.0498 34.2447 14.262 34.1689 14.3036 34.0856C14.3377 34.0211 14.2695 33.8582 14.19 33.8127V33.8165Z" fill="#20377D"/>
<path d="M15.0047 34.161C14.9441 34.1648 14.8683 34.1724 14.7963 34.1761C14.7622 34.0359 14.6827 33.945 14.5804 33.9526C14.4591 33.9602 14.3076 34.1496 14.3227 34.2784C14.3227 34.2898 14.3341 34.3012 14.3379 34.3126H15.1411C15.0995 34.2443 15.0502 34.1875 15.0047 34.1572V34.161Z" fill="#20377D"/>
<path d="M13.5876 33.9226C13.5876 33.9226 13.5649 33.9226 13.5535 33.9226C13.4474 33.8961 13.2731 33.9302 13.2276 33.9984C13.1784 34.0741 13.186 34.2068 13.2276 34.3091H13.8074C13.8263 34.2674 13.8453 34.2181 13.8453 34.1613C13.8528 33.987 13.7808 33.9188 13.58 33.9188L13.5876 33.9226Z" fill="#20377D"/>
<path d="M10.8367 33.945C10.8367 33.945 10.8102 33.9526 10.7951 33.9601C10.7875 33.9109 10.7647 33.8578 10.7382 33.8086C10.7572 33.6949 10.7231 33.5774 10.6359 33.4941C10.5185 33.3766 10.4161 33.3653 10.2494 33.4486C10.0751 33.5358 10.0031 33.6873 9.97662 33.8654C9.88568 33.8654 9.80611 33.854 9.73033 33.873C9.58634 33.9033 9.52193 33.9867 9.52193 34.0814C9.47646 34.1003 9.43478 34.1269 9.40447 34.1647C9.37416 34.2064 9.36658 34.2595 9.36658 34.3163H9.99935C10.0183 34.3012 10.041 34.2784 10.0562 34.2557C10.0941 34.2064 10.113 34.1496 10.1699 34.0359C10.2381 34.1041 10.3101 34.142 10.3214 34.1951C10.3366 34.2481 10.3555 34.286 10.3783 34.3163H11.0262C11.03 34.2898 11.03 34.2633 11.0262 34.2405C11.0451 34.2178 11.0641 34.1951 11.083 34.1723C11.03 34.0549 10.9959 33.9185 10.8329 33.945H10.8367Z" fill="#20377D"/>
<path d="M8.70724 31.1642C8.83228 31.312 9.13919 31.293 9.24908 31.2059C9.35896 31.1187 9.43474 31.0429 9.45369 30.9331C9.48021 30.7967 9.41959 30.6034 9.28697 30.5428C9.15435 30.4784 8.93837 30.5276 8.90048 30.4822C8.86638 30.4367 8.9649 30.198 8.8247 30.0578C8.68451 29.9176 8.49884 29.9555 8.36623 30.0578C8.36244 30.0578 8.35865 30.0654 8.35486 30.0692V30.6868C8.45337 30.7512 8.58978 30.7095 8.6163 30.736C8.64662 30.7663 8.57462 31.0126 8.69966 31.1604L8.70724 31.1642Z" fill="#20377D"/>
<path d="M15.5541 33.5967C15.5731 33.5133 15.4518 33.3315 15.3609 33.3087C15.2813 33.2898 15.1373 33.4035 15.1146 33.5058C15.0956 33.5929 15.1525 33.6687 15.2548 33.6838C15.4177 33.7104 15.5352 33.6763 15.5541 33.5967Z" fill="#20377D"/>
<path d="M8.76407 29.3794C8.84743 29.1483 8.68829 28.8717 8.43063 28.7921C8.40411 28.7846 8.38138 28.7846 8.35864 28.7808V29.6068C8.55946 29.6409 8.68829 29.5803 8.76407 29.3794Z" fill="#20377D"/>
<path d="M8.6845 32.3385C8.72997 32.4521 8.83606 32.5582 8.93458 32.5582C9.05583 32.5582 9.15435 32.4218 9.17329 32.2248C9.18087 32.1263 9.0672 32.0012 8.9611 31.9974C8.90806 31.9974 8.85501 32.0164 8.80196 32.0467C8.78681 32.0088 8.76786 31.9709 8.73755 31.9482C8.71481 31.9292 8.6845 31.9179 8.65419 31.9103C8.66935 31.8838 8.68071 31.8535 8.69587 31.8269C8.78681 31.8535 8.90048 31.8838 8.97247 31.7549C8.90427 31.4935 8.84743 31.4783 8.65419 31.6564C8.53294 31.6451 8.43821 31.6147 8.35864 31.6261V32.2968C8.37001 32.3233 8.38138 32.3498 8.40032 32.3688C8.47231 32.4256 8.5822 32.4067 8.68071 32.3347L8.6845 32.3385Z" fill="#20377D"/>
<path d="M9.71898 33.2292C9.79476 33.1231 9.76445 32.9185 9.66973 32.8238C9.69246 32.7783 9.70383 32.7367 9.69246 32.7101C9.65836 32.6306 9.34387 32.5548 9.24535 32.6343C9.15062 32.7101 9.13926 32.8162 9.18094 32.9223C9.18851 32.9413 9.19609 32.9564 9.20746 32.9754C9.18473 33.0663 9.23019 33.1572 9.35523 33.2444C9.46133 33.3202 9.65836 33.3126 9.71898 33.233V33.2292Z" fill="#20377D"/>
<path d="M8.39274 33.7863C8.39274 33.7863 8.37379 33.7939 8.36243 33.7977V34.3168H8.52915C8.53672 34.2827 8.54809 34.2448 8.55567 34.2107C8.55567 34.1993 8.55567 34.1917 8.55567 34.1841C8.62008 34.1387 8.66555 34.0667 8.66176 33.9985C8.65797 33.9151 8.48368 33.7749 8.38895 33.7863H8.39274Z" fill="#20377D"/>
<path d="M8.95352 33.0432C8.86258 33.0053 8.78301 32.9447 8.74891 32.8235C8.70344 32.6833 8.51398 32.5999 8.4041 32.6302C8.39273 32.6302 8.37758 32.6416 8.36621 32.653V33.5282C8.39273 33.5623 8.41547 33.5926 8.44199 33.6268C8.46094 33.6495 8.52914 33.6457 8.56324 33.6268C8.66934 33.5851 8.76027 33.5889 8.86637 33.6343C9.00656 33.6912 9.18844 33.5661 9.1657 33.4373C9.13918 33.2895 9.13918 33.119 8.95352 33.0432Z" fill="#20377D"/>
<path d="M8.69971 34.3126H9.14682C9.0824 34.252 8.97631 34.2141 8.84369 34.2217C8.79443 34.2217 8.74139 34.2633 8.69971 34.3126Z" fill="#20377D"/>
<path d="M34.382 34.127C34.382 34.127 34.2911 34.1573 34.2873 34.1762C34.2873 34.2141 34.2797 34.2861 34.329 34.3126H34.3934C34.4275 34.2937 34.4464 34.252 34.4464 34.2368C34.4426 34.1952 34.4123 34.1497 34.382 34.127Z" fill="#20377D"/>
<path d="M15.5579 33.9489C15.4935 33.93 15.3874 33.9338 15.3419 33.9754C15.2206 34.0815 15.2775 34.199 15.3571 34.3127H15.5238C15.592 34.2975 15.6488 34.2634 15.6753 34.1838C15.7056 34.0891 15.6678 33.9792 15.5579 33.9489Z" fill="#20377D"/>
<path d="M32.3396 30.0425C32.298 30.0501 32.2411 30.0766 32.226 30.1107C32.2146 30.1372 32.2146 30.2319 32.2942 30.2509C32.3737 30.2698 32.3889 30.1675 32.4003 30.1296C32.4078 30.1069 32.3586 30.0425 32.3396 30.0425Z" fill="#20377D"/>
<path d="M31.885 31.9065C31.7523 31.8952 31.6273 32.0126 31.6084 32.168C31.5932 32.312 31.65 32.3991 31.7751 32.4143C31.9532 32.437 32.154 32.3157 32.1616 32.1755C32.1691 32.0581 32.0252 31.9179 31.8812 31.9065H31.885Z" fill="#20377D"/>
<path d="M33.3097 31.5885C33.2074 31.5885 33.1202 31.6339 33.0937 31.7438C33.0672 31.8385 33.1392 31.9409 33.2377 31.956C33.3286 31.9712 33.4309 31.8992 33.4536 31.8007C33.4764 31.6984 33.4082 31.5847 33.3134 31.5885H33.3097Z" fill="#20377D"/>
<path d="M8.56325 28.398C8.6504 28.2957 8.63903 28.1669 8.54431 28.0949C8.49505 28.057 8.42306 28.0532 8.35864 28.0684V28.4586C8.43063 28.4814 8.51021 28.4586 8.56325 28.398Z" fill="#20377D"/>
<path d="M34.3327 32.6192C34.2796 32.5359 34.219 32.3275 34.0712 32.3388C33.9235 32.3464 33.95 32.479 33.9083 32.5359C33.7908 32.6836 33.8212 32.9375 33.9613 32.9981C34.0902 33.055 34.2038 33.0246 34.3024 32.9337C34.4047 32.839 34.4009 32.7253 34.3365 32.6192H34.3327Z" fill="#20377D"/>
<path d="M31.6425 33.1493C31.5326 33.1683 31.4606 33.2327 31.4568 33.3426C31.4568 33.5055 31.65 33.604 31.7144 33.604C31.7789 33.604 31.9266 33.4259 31.8774 33.2781C31.8471 33.1834 31.7561 33.1304 31.6425 33.1493Z" fill="#20377D"/>
<path d="M33.052 33.3124C32.9421 33.2973 32.8209 33.3768 32.8133 33.4716C32.8019 33.5587 32.8853 33.6724 32.9724 33.6837C33.0672 33.6989 33.1998 33.608 33.2149 33.5208C33.2339 33.4337 33.1505 33.3276 33.052 33.3124Z" fill="#20377D"/>
<path d="M16.1375 33.4944C16.0466 33.4451 15.9292 33.4906 15.8647 33.6005C15.8003 33.7104 15.8306 33.8809 15.9329 33.9188C16.0542 33.9642 16.1754 33.9491 16.255 33.8278C16.327 33.7217 16.274 33.5664 16.1375 33.4944Z" fill="#20377D"/>
<path d="M31.3469 34.021C31.3469 34.1195 31.3469 34.218 31.3394 34.3165H31.4265C31.453 34.2787 31.472 34.237 31.472 34.1915C31.472 34.1119 31.4227 34.0475 31.3469 34.021Z" fill="#20377D"/>
<path d="M16.024 33.2216C16.0354 33.195 16.0505 33.1647 16.0619 33.1344C16.1112 33.1571 16.168 33.1761 16.2362 33.1761C16.4067 33.1799 16.5696 33.0397 16.581 32.873C16.581 32.8275 16.5696 32.7858 16.5469 32.7441C16.5507 32.7441 16.5545 32.7366 16.562 32.7366C16.8993 32.9715 17.0357 32.945 17.1607 32.6002C17.2289 32.4145 17.119 32.225 16.9144 32.2175C16.7629 32.2099 16.6151 32.2667 16.4219 32.3046C16.3802 32.2591 16.3347 32.2175 16.2854 32.1758C16.4408 32.1417 16.5583 31.9787 16.5696 31.7552C16.5772 31.5695 16.4408 31.4218 16.2513 31.4066C16.0467 31.3914 15.827 31.5847 15.8156 31.7893C15.8118 31.8916 15.8838 32.0053 15.9785 32.0848C15.9634 32.0848 15.9482 32.0848 15.9293 32.0886C15.6678 32.1682 15.5466 32.513 15.6868 32.7972C15.7398 32.9033 15.7095 32.9487 15.6716 33.0245C15.6148 33.1382 15.6906 33.286 15.8042 33.3314C15.9217 33.3769 15.9785 33.3201 16.0202 33.2253L16.024 33.2216Z" fill="#20377D"/>
<path d="M16.0239 34.0703C15.9823 34.0779 15.933 34.1537 15.9254 34.2029C15.9179 34.2408 15.9179 34.2787 15.9141 34.3166H16.2475C16.274 34.2825 16.2475 34.1726 16.2096 34.1309C16.1717 34.0893 16.0846 34.0627 16.0239 34.0741V34.0703Z" fill="#20377D"/>
<path d="M17.5964 34.0436C17.5055 34.0057 17.4069 33.9716 17.2971 34.0057C17.0924 34.0664 17.0735 34.0853 17.0962 34.3126H17.6115C17.6078 34.2217 17.5964 34.1346 17.5964 34.0436Z" fill="#20377D"/>
<path d="M16.8954 33.7218C16.9447 33.699 16.9826 33.6649 17.0053 33.6346C17.0546 33.5702 16.9636 33.3732 16.8083 33.3618C16.7514 33.3618 16.6719 33.4073 16.6415 33.4528C16.5847 33.5437 16.615 33.6536 16.7022 33.7142C16.7135 33.7218 16.7287 33.7218 16.7401 33.7256C16.6719 33.7559 16.6112 33.8127 16.5809 33.8733C16.4824 33.8733 16.4028 33.9226 16.399 34.0211C16.399 34.0969 16.418 34.2068 16.4673 34.2485C16.6037 34.3621 16.7022 34.2295 16.8234 34.1613C16.8234 34.1613 16.8234 34.1537 16.8234 34.1499C16.8462 34.1499 16.8689 34.1613 16.8916 34.1575C17.0015 34.1575 17.047 34.0893 17.0508 33.9908C17.0546 33.8733 16.9826 33.7559 16.8992 33.718L16.8954 33.7218Z" fill="#20377D"/>
<path d="M15.8535 24.4992C16.0202 24.4916 16.1339 24.4007 16.1566 24.2681H15.5011C15.5579 24.4121 15.6906 24.503 15.8535 24.4992Z" fill="#20377D"/>
<path d="M14.3379 24.7341C14.3076 24.7985 14.2621 24.9728 14.3227 25.0258C14.3834 25.0751 14.5387 24.9614 14.588 24.9084C14.6486 24.8477 14.6334 24.7644 14.5463 24.7151C14.4705 24.6697 14.3834 24.6507 14.3417 24.7379L14.3379 24.7341Z" fill="#20377D"/>
<path d="M14.5766 24.3022C14.5766 24.3022 14.5728 24.2794 14.569 24.2681H14.1825C14.1901 24.306 14.2052 24.3401 14.2242 24.3628C14.3037 24.4537 14.3909 24.431 14.5728 24.3022H14.5766Z" fill="#20377D"/>
<path d="M15.6944 25.6053C15.8346 25.5408 15.7739 25.3438 15.7209 25.287C15.6678 25.2301 15.3799 25.4272 15.3723 25.5143C15.3647 25.6015 15.5504 25.6697 15.6944 25.6053Z" fill="#20377D"/>
<path d="M13.0912 24.575C13.1063 24.5106 13.1063 24.3855 13.0571 24.3666C13.0078 24.3476 12.9055 24.3742 12.8752 24.4158C12.8449 24.4537 12.8373 24.6091 12.8828 24.6394C12.9283 24.6697 13.0874 24.6053 13.0912 24.575Z" fill="#20377D"/>
<path d="M13.5118 24.5064C13.5951 24.5102 13.6671 24.4723 13.7164 24.4079C13.7315 24.4306 13.7467 24.4496 13.7656 24.4647C13.849 24.5254 13.9551 24.5102 14.0233 24.4306C14.065 24.3814 14.0839 24.3245 14.0801 24.2715H13.2806C13.3261 24.3814 13.436 24.5064 13.5118 24.5102V24.5064Z" fill="#20377D"/>
<path d="M13.9059 25.1396C13.9059 25.2608 13.9855 25.3555 14.0878 25.3555C14.1976 25.3555 14.2962 25.2722 14.3 25.1661C14.3075 25.0524 14.2014 24.9349 14.0953 24.9312C13.993 24.9312 13.9021 25.0259 13.9021 25.1358L13.9059 25.1396Z" fill="#20377D"/>
<path d="M13.705 13.4275C13.7959 13.3328 13.8035 13.1395 13.7202 13.0675C13.6141 12.9728 13.4132 12.9614 13.3299 13.0448C13.2427 13.1319 13.2806 13.3138 13.4132 13.4426C13.4814 13.5071 13.633 13.4995 13.705 13.4275Z" fill="#20377D"/>
<path d="M14.8872 26.7119C14.9099 26.7612 14.944 26.7953 15.0047 26.8028C15.232 26.8218 15.4594 26.818 15.664 26.7005C15.7019 26.6816 15.7284 26.6399 15.7397 26.6248C15.8648 26.4201 15.7663 26.2231 15.5389 26.208C15.3987 26.1966 15.2547 26.2155 15.1183 26.2421C15.0388 26.2572 14.9668 26.333 14.9213 26.4201C14.9099 26.4315 14.8986 26.4429 14.891 26.458C14.8569 26.5149 14.8152 26.6778 14.8607 26.7119C14.8683 26.7157 14.8796 26.7157 14.891 26.7195L14.8872 26.7119Z" fill="#20377D"/>
<path d="M16.4256 27.9092C16.471 27.86 16.4142 27.7842 16.3953 27.7766C16.3574 27.7615 16.3005 27.769 16.2664 27.788C16.2513 27.7956 16.2513 27.8827 16.2702 27.8941C16.3043 27.913 16.3763 27.9585 16.4256 27.9092Z" fill="#20377D"/>
<path d="M16.4255 27.3748C16.4975 27.4051 16.6074 27.2801 16.5885 27.1891C16.5733 27.1285 16.5127 27.083 16.49 27.0527C16.3422 27.0527 16.2475 27.1209 16.274 27.1967C16.2967 27.2687 16.3611 27.3445 16.4255 27.3748Z" fill="#20377D"/>
<path d="M15.6716 25.0218C15.7057 24.9839 15.683 24.9157 15.6564 24.8892C15.6337 24.8627 15.5276 24.8286 15.4935 24.8665C15.4632 24.9044 15.5049 25.0067 15.5314 25.0256C15.5617 25.0484 15.6337 25.0635 15.6678 25.0256L15.6716 25.0218Z" fill="#20377D"/>
<path d="M16.7818 25.8179C16.8121 25.7307 16.7515 25.6057 16.6681 25.583C16.5506 25.5527 16.3839 25.7686 16.4256 25.8482C16.4673 25.9278 16.7439 25.9316 16.7818 25.8217V25.8179Z" fill="#20377D"/>
<path d="M8.68829 27.9621C8.83985 27.8825 8.94973 27.8067 9.00278 27.6741C9.03688 27.5908 9.04067 27.4809 9.01793 27.3824C9.08235 27.3521 9.12782 27.2876 9.12403 27.2119C9.12403 27.1133 9.01036 27.0035 8.91942 27.0072C8.85501 27.0072 8.79817 27.0489 8.77165 27.1058C8.62766 27.0565 8.45715 27.0527 8.43063 27.0035C8.39653 26.939 8.57083 26.67 8.43063 26.4692C8.41168 26.4427 8.38516 26.4237 8.36243 26.4048V27.9886C8.48747 28.0113 8.61251 28.0038 8.68829 27.9659V27.9621Z" fill="#20377D"/>
<path d="M17.1266 27.3862C17.2175 27.3748 17.2705 27.3255 17.2781 27.2346C17.2895 27.0792 17.1834 27.0262 17.0508 26.9731C16.9523 27.0641 16.831 27.1209 16.8916 27.2611C16.9333 27.3558 17.0167 27.4013 17.1266 27.3862Z" fill="#20377D"/>
<path d="M15.9633 26.1929C15.9292 26.2384 15.9937 26.3217 16.0202 26.3369C16.0543 26.352 16.1263 26.352 16.1566 26.3179C16.1869 26.2838 16.1528 26.208 16.1225 26.1815C16.0997 26.1588 15.9974 26.1474 15.9633 26.1891V26.1929Z" fill="#20377D"/>
<path d="M9.9008 13.0863C9.97658 13.0787 10.0561 12.9764 10.0448 12.8968C10.0296 12.7945 9.96521 12.7756 9.75681 12.8135C9.66209 12.9499 9.80607 13.0939 9.9008 13.0863Z" fill="#20377D"/>
<path d="M12.7729 14.1889C12.8297 14.079 12.807 13.9123 12.7085 13.8213C12.5986 13.719 12.4773 13.7418 12.3485 13.8858C12.2803 13.9615 12.2576 14.0979 12.2841 14.1889H12.7729Z" fill="#20377D"/>
<path d="M10.5373 14.1589C10.4653 14.14 10.4085 14.1513 10.363 14.1892H10.579C10.579 14.1892 10.5487 14.1627 10.5335 14.1589H10.5373Z" fill="#20377D"/>
<path d="M10.7571 13.2569C10.9693 13.3061 11.136 13.2114 11.2118 13.0106C11.227 12.9689 11.2421 12.931 11.2573 12.8856C11.3368 12.9159 11.4088 12.95 11.4846 12.9727C11.6286 13.0144 11.7006 12.9803 11.7574 12.8439C11.8105 12.7188 11.7915 12.5976 11.7006 12.4991C11.6097 12.4006 11.4922 12.4081 11.3823 12.4536C11.3027 12.4877 11.2383 12.5483 11.1626 12.6014C11.1247 12.5862 11.083 12.5711 11.0413 12.5597C10.886 12.5218 10.6889 12.5786 10.6169 12.6999C10.5336 12.8477 10.5449 13.0068 10.6169 13.1546C10.6397 13.2038 10.7041 13.2493 10.7571 13.2607V13.2569Z" fill="#20377D"/>
<path d="M8.36621 25.7608C8.40031 25.8253 8.42684 25.8859 8.46473 25.9351C8.46473 25.9351 8.46094 25.9351 8.45715 25.9427C8.39652 26.0374 8.42305 26.1511 8.52914 26.2117C8.6125 26.2572 8.69965 26.3103 8.76406 26.2345C8.81332 26.1663 8.83605 26.1019 8.83984 26.045C8.93457 25.992 8.96867 25.8404 8.91563 25.6851C8.89668 25.6358 8.87395 25.5903 8.855 25.5373C8.93457 25.435 9.0293 25.3327 9.03688 25.2114C9.06719 25.2114 9.0975 25.2038 9.1316 25.1963C9.27559 25.166 9.39684 24.9272 9.34379 24.7871C9.34379 24.7871 9.34758 24.7946 9.35137 24.7984C9.46504 24.8931 9.63555 24.9083 9.71512 24.8439C9.72648 24.8363 9.73406 24.8174 9.74164 24.806C9.77195 24.8856 9.84395 24.95 9.93109 24.9538C10.041 24.9538 10.1092 24.8894 10.1205 24.7757C10.1281 24.6544 10.0523 24.5597 9.94246 24.5559C9.88941 24.5559 9.84016 24.5749 9.80227 24.609C9.80227 24.537 9.80227 24.4688 9.77195 24.4233C9.71891 24.3437 9.66207 24.2301 9.5484 24.2755C9.42715 24.321 9.32484 24.3021 9.22254 24.2642H8.80574C8.79059 24.3324 8.80574 24.3968 8.88152 24.4422C8.88531 24.4422 8.89668 24.446 8.90426 24.4498C8.91184 24.518 8.94594 24.5749 8.99898 24.5938C8.94973 24.5938 8.90047 24.6128 8.855 24.6393C8.74891 24.7075 8.69207 24.7908 8.67312 24.878C8.65418 24.878 8.63902 24.878 8.62008 24.8742C8.49883 24.8704 8.42684 24.9121 8.37379 24.9803V25.4198C8.42305 25.4539 8.4723 25.4842 8.52156 25.5183C8.46852 25.6017 8.42684 25.6775 8.37758 25.7533L8.36621 25.7608Z" fill="#20377D"/>
<path d="M9.58255 12.196C9.60149 12.1619 9.64317 12.1088 9.59391 12.0633C9.54466 12.0179 9.49919 12.0482 9.48403 12.0671C9.4613 12.0974 9.40446 12.1808 9.44614 12.2225C9.48782 12.2642 9.57118 12.2149 9.58255 12.196Z" fill="#20377D"/>
<path d="M8.7148 13.5941C8.76785 13.6926 8.83984 13.6926 8.95351 13.6623C9.06719 13.632 9.2377 13.5827 9.19223 13.4236C9.14676 13.2682 9.03687 13.2758 8.99141 13.2948C8.94594 13.3137 8.85121 13.272 8.89289 13.2341C8.93457 13.1963 8.93836 13.1281 8.85121 13.022C8.76406 12.9159 8.66934 12.8893 8.54809 12.9613C8.41547 13.0409 8.38137 13.2417 8.47609 13.3857C8.57082 13.5259 8.66555 13.4956 8.71859 13.5941H8.7148Z" fill="#20377D"/>
<path d="M10.4275 24.9538C10.3934 24.9765 10.3593 25.0106 10.3214 25.0561C10.2949 25.1546 10.238 25.3099 10.2115 25.4691C10.1964 25.5676 10.2532 25.6661 10.3669 25.6813C10.4692 25.6926 10.5563 25.6585 10.5904 25.5411C10.5904 25.5335 10.598 25.5259 10.6018 25.5183C10.7079 25.5411 10.8519 25.4994 10.9542 25.4236C10.9731 25.5183 11.0413 25.5828 11.136 25.5828C11.155 25.5828 11.1739 25.5752 11.1929 25.5676C11.1929 25.6093 11.1967 25.6547 11.2043 25.7002C11.3141 25.7608 11.4164 25.776 11.4846 25.6661C11.5074 25.6282 11.5036 25.5373 11.4733 25.507C11.4354 25.4691 11.3634 25.4388 11.3103 25.4426C11.3179 25.4198 11.3255 25.3971 11.3255 25.3744C11.3255 25.2645 11.2421 25.1697 11.1323 25.166C11.1171 25.166 11.1057 25.166 11.0944 25.166C11.1057 24.9992 10.9959 24.8931 10.8935 24.8287C10.886 24.8249 10.8784 24.8212 10.8708 24.8174C10.9845 24.7643 11.0489 24.6506 11.0489 24.4763C11.0489 24.4119 11.0375 24.3551 11.0224 24.3058C11.0678 24.3134 11.1095 24.3134 11.1626 24.2793C11.1701 24.2755 11.1701 24.2679 11.1777 24.2642H10.3176C10.257 24.4081 10.3062 24.6203 10.4426 24.7075C10.4426 24.7075 10.4464 24.7075 10.4502 24.7075C10.4843 24.7492 10.5222 24.7833 10.5677 24.806C10.5109 24.8325 10.4692 24.878 10.4351 24.9462L10.4275 24.9538Z" fill="#20377D"/>
<path d="M10.9694 11.9837C11.0452 11.9761 11.1248 11.8738 11.1134 11.7942C11.0982 11.6919 10.9429 11.5972 10.8254 11.7109C10.7307 11.8473 10.8747 11.9913 10.9694 11.9837Z" fill="#20377D"/>
<path d="M12.2349 24.5144C12.3865 24.5447 12.4547 24.4462 12.5229 24.3211C12.5115 24.3022 12.5001 24.2832 12.4888 24.2681H12.125C12.1175 24.2946 12.1023 24.3173 12.1023 24.3476C12.1023 24.4386 12.144 24.4992 12.2349 24.5144Z" fill="#20377D"/>
<path d="M11.3217 24.2715H11.3293H11.2118C11.2459 24.2904 11.28 24.298 11.3179 24.2715H11.3217Z" fill="#20377D"/>
<path d="M11.462 24.5711C11.2536 24.6166 11.1626 24.7492 11.1437 24.8932C11.1248 25.0372 11.3256 25.1622 11.5302 25.1925C11.5681 25.1963 11.6098 25.1925 11.6476 25.1736C11.6476 25.1812 11.6401 25.1925 11.6401 25.2001C11.6401 25.3365 11.7424 25.4237 11.9015 25.4274C12.091 25.4274 12.1857 25.3289 12.1819 25.1319C12.1819 24.9652 12.0682 24.825 11.9508 24.8288C11.9242 24.8288 11.8939 24.8439 11.8674 24.8591C11.8409 24.7151 11.6514 24.5332 11.4582 24.5749L11.462 24.5711Z" fill="#20377D"/>
<path d="M11.4317 24.2681C11.4241 24.287 11.4165 24.3097 11.4165 24.3325C11.4165 24.4575 11.5074 24.5598 11.6211 24.5598C11.7234 24.5598 11.803 24.4613 11.7992 24.3401C11.7992 24.3135 11.7916 24.2908 11.784 24.2681H11.4317Z" fill="#20377D"/>
<path d="M11.4278 13.8215C11.3179 13.7116 11.0792 13.7457 10.9504 13.8859C10.8784 13.9655 10.8898 14.083 10.9617 14.1853H11.4922C11.5377 14.064 11.5149 13.9087 11.4278 13.8215Z" fill="#20377D"/>
<path d="M19.5114 19.3652L14.7773 24.0902L19.366 28.6788" stroke="#7DE2D1" stroke-width="1.81728" stroke-miterlimit="10"/>
<path d="M28.7704 28.6788L33.4953 23.9539L28.9067 19.3652" stroke="#7DE2D1" stroke-width="1.81728" stroke-miterlimit="10"/>
<path d="M27.2348 20.9189L21.0378 27.1159" stroke="#7DE2D1" stroke-width="1.81728" stroke-miterlimit="10"/>
</g>
</g>
<defs>
<clipPath id="clip0_2596_136586">
<rect width="48" height="48" fill="white" transform="translate(0 0.787109)"/>
</clipPath>
<clipPath id="clip1_2596_136586">
<rect width="45.4688" height="57.2111" fill="white" transform="translate(1.89453 1.54492)"/>
</clipPath>
</defs>
</svg>
