<svg xmlns="http://www.w3.org/2000/svg" width="175" height="175" fill="none"><path fill="#ECF0F6" d="M87.855 169.531c45.305 0 82.032-36.726 82.032-82.031S133.16 5.469 87.855 5.469 5.824 42.195 5.824 87.5s36.727 82.031 82.031 82.031"/><path fill="#fff" d="M149.434 34.522c.218.068.56-.288.697-.506-.205-.233-.41-.479-.629-.711a.77.77 0 0 0-.342.383c-.054.191.028.752.274.834M143.254 28.137a1.37 1.37 0 0 0-.191 1.504.985.985 0 0 0 1.175.328 1.37 1.37 0 0 0 .766-1.367c-.164-.15-.328-.301-.479-.465a1.51 1.51 0 0 0-1.271 0M145.4 31.637a1.5 1.5 0 0 0 1.368-.985 2 2 0 0 0 0-.287c-.342-.355-.67-.724-1.026-1.066a1.025 1.025 0 0 0-1.121.916 1.242 1.242 0 0 0 .779 1.422M156.516 94.486a.86.86 0 0 0 .806-.15c.123-.205 0-.574 0-.78-.492-.3-.765-.109-.929.151s-.233.629.123.78M163.434 63.629c.169.047.35.047.519 0a1.1 1.1 0 0 0-.076.741c.058.249.202.47.404.626a.86.86 0 0 0 1.034-.196.86.86 0 0 0 .214-.511.86.86 0 0 0-.14-.537 1.03 1.03 0 0 0-.998-.287c.22-.07.414-.204.56-.383.246-.37 0-.752-.478-1.066-.479-.315-1.012-.288-1.258.15-.09.107-.157.232-.196.367a1 1 0 0 0 .121.802 1 1 0 0 0 .294.294M158.184 53.607c.246.329.492.739.97.506a.864.864 0 0 0 .315-.684.6.6 0 0 0-.121-.288.6.6 0 0 0-.248-.19c-.506-.123-.766.164-.916.656M154.793 40.852a.8.8 0 0 0 .342-.356l-.739-1.066a.52.52 0 0 0-.314.082c-.235.19-.439.416-.602.67l.629.957q.358-.105.684-.287M163.16 61.277a.72.72 0 0 0 .767.22.7.7 0 0 0 .245-.138.84.84 0 0 0 .217-.367.84.84 0 0 0 .015-.426.787.787 0 0 0 .219-.78.6.6 0 0 0-.049-.223.6.6 0 0 0-.327-.31.6.6 0 0 0-.226-.04c-.615 0-.806.396-.998.93q.06.045.096.109a.851.851 0 0 0 .041 1.025M159.127 59.404c-.178-.232-.848 0-1.025.15-.178.15-.11.506 0 .698a.382.382 0 0 0 .67.123c.15-.219.533-.725.355-.97M157.227 52.035a1.148 1.148 0 0 0 .328-1.463.972.972 0 0 0-1.162-.396c-.698.396-1.026 1.052-.752 1.504a1.36 1.36 0 0 0 1.586.355M155.641 48.467c.14.343.355.651.628.902.181.154.39.27.616.342q.33.153.683.246c.752.232 1.244.082 1.504-.479a1.23 1.23 0 0 0-.574-1.654 12.7 12.7 0 0 1-1.969-1.244c-.478-.41-1.367-.533-1.586-.191a.906.906 0 0 0 .219 1.08c.533.246.369.642.479.998M155.613 45.008c.082-.192.11-.602 0-.711a.7.7 0 0 0-.683.123c-.123.137-.192.725 0 .848.191.123.628-.15.683-.26M134.545 21.615a.846.846 0 0 0-.192 1.108.96.96 0 0 0 1.135.177.69.69 0 0 0 .325-.725.7.7 0 0 0-.106-.259.84.84 0 0 0-.85-.41.85.85 0 0 0-.312.11M160.672 59.514c0 .246 0 .738.26.779a.75.75 0 0 0 .67-.3c.095-.151 0-.766-.164-.849-.165-.081-.766.247-.766.37M161.656 57.518c-.424-.63-.875-.793-1.367-.479l-.082.082a1.5 1.5 0 0 0-.383-.246 1.066 1.066 0 0 0-1.258.37 1.8 1.8 0 0 0-.057.938c.064.313.212.602.427.839a1.06 1.06 0 0 0 1.025-.233 1.45 1.45 0 0 0 1.559.219 1.15 1.15 0 0 0 .136-1.49M165.731 61.66l-.192-.574a.7.7 0 0 0 .027.31q.05.151.165.264M165.061 92.723a1.364 1.364 0 0 0 1.654-.438c.396-.478.273-1.011-.342-1.49a1.07 1.07 0 0 0-1.367.11 1.86 1.86 0 0 0 .055 1.818M156.393 63.93c-.233.178-.082.861 0 1.135.082.273.629.314.902.082.273-.233.396-.547.123-.807s-.793-.588-1.025-.41M167.904 85.313a.5.5 0 0 0 0 .424.7.7 0 0 0 .52 0 .44.44 0 0 0 .096-.602c-.192-.205-.479.082-.616.178"/><path fill="#fff" d="M158.512 61.524a.9.9 0 0 0 .03-.648.9.9 0 0 0-.413-.5.74.74 0 0 0-.971.286.82.82 0 0 0-.127.638q.038.167.138.303a.8.8 0 0 0 .249.221.87.87 0 0 0 1.094-.3M166.141 69.057a.8.8 0 0 0 .205.136.93.93 0 0 0 .752.301c.262-.02.514-.114.724-.273a80 80 0 0 0-.902-3.582c-.137.123-.315.205-.465.342-.235.28-.411.606-.519.957a2.3 2.3 0 0 0 0 .697q.026.365.095.724v.178c-.02.18.018.363.11.52M162.928 54.36a82 82 0 0 0-2.256-4.731c-.424-.246-.861 0-1.477.574a1.06 1.06 0 0 0-.292.432 1.067 1.067 0 0 0 .552 1.331q.921.336 1.887.493a2.03 2.03 0 0 0 1.203 1.49c.094.165.226.305.383.41M157.637 44.31a21 21 0 0 0-.875-1.367 1.66 1.66 0 0 0-.096 1.094.92.92 0 0 0 .971.273M165.279 67.443c-.656-.437-1.367-.45-1.668 0-.114.27-.139.57-.071.857.07.285.229.541.454.73a1.15 1.15 0 0 0 1.463-.356.97.97 0 0 0-.178-1.23M163.488 72.46a.794.794 0 0 0-.078 1.236.672.672 0 0 0 .789.064.82.82 0 0 0 .26-1.026.7.7 0 0 0-.971-.273M151.758 38.527c.355-.095.847-.191.82-.656a1.5 1.5 0 0 1 .123-.724c-.314-.397-.615-.82-.943-1.217a1.38 1.38 0 0 1-.916.601 1.232 1.232 0 0 0-.602 1.367 1.62 1.62 0 0 0 1.518.63M155.764 59.664a2.3 2.3 0 0 0 0-.78c.21.008.419-.044.601-.15.322-.167.57-.445.7-.782.132-.337.136-.71.011-1.05a1.91 1.91 0 0 0-2.201-.615 1.494 1.494 0 0 0-.41 1.928c.153.218.361.392.601.506a2.3 2.3 0 0 0-.41.424c-.191.273-.082.587.287.724.37.137.711.15.821-.205M154.328 91.028a.516.516 0 0 0 .164.574c.11.082.574.164.643 0 .068-.165-.11-.465-.205-.506-.096-.041-.533-.246-.602-.069M155.271 63.082a.23.23 0 0 0 .18.023.2.2 0 0 0 .08-.044.21.21 0 0 0 .059-.24.22.22 0 0 0-.113-.122s-.247 0-.274.11a.234.234 0 0 0 .068.273M154.602 68.783s.205-.314.15-.383c-.055-.068-.273-.396-.52-.3-.246.096-.164.465-.109.52a.67.67 0 0 0 .479.163M154.725 55.262a.817.817 0 0 0 .806-.67c0-.15 0-.41-.095-.479a8 8 0 0 0-1.026-.642c-.137-.957-.615-1.545-1.189-1.477a1.2 1.2 0 0 0-.643.438v-.069c-.191-.095-.738.192-.943.37-.205.177-.123.601.219.847.098.071.22.105.341.096.11.56.493.697 1.737.588.068.506.095 1.052.793.998M152.127 63.15a1.233 1.233 0 0 0 .205-1.75 1.37 1.37 0 0 0-1.695-.164 1.217 1.217 0 0 0 1.49 1.914M151.758 69.385a1.26 1.26 0 0 0 1.654-.602 1.37 1.37 0 0 0-.615-1.6 1.22 1.22 0 0 0-1.62.582 1.213 1.213 0 0 0 .581 1.62M156.119 81.867a.753.753 0 0 0 .971-.396 1.184 1.184 0 0 0-.52-1.367 1.12 1.12 0 0 0-1.093.916.75.75 0 0 0 .642.848M156.652 91.3a.43.43 0 0 0 0 .52c.082.11.493.274.616.124s0-.534-.123-.63a.48.48 0 0 0-.493-.013M156.953 66.91a1.286 1.286 0 0 0-.287-1.6.874.874 0 0 0-1.19.247 1.11 1.11 0 0 0 .383 1.435.77.77 0 0 0 1.094-.082M168.164 81.17c-.533-.123-.588-.492-.779-.902 1.08-.56 1.23-1.272.506-2.051l-.219-.205a.8.8 0 0 0-.745-.278.8.8 0 0 0-.378.166.8.8 0 0 0-.244.33 1.204 1.204 0 0 0-.264 1.328 1.2 1.2 0 0 0 .264.395 3.2 3.2 0 0 1-.848 0 .75.75 0 0 0-.998.287 1.1 1.1 0 0 0-.282.596c-.028.223.013.45.118.648.834 1.368 1.285 1.56 2.734.944h.123c-.19.09-.361.216-.505.369a.467.467 0 0 0-.171.419.48.48 0 0 0 .253.374.58.58 0 0 0 .477.159.6.6 0 0 0 .425-.268 1.45 1.45 0 0 0 .082-.766.7.7 0 0 0 .93-.273.8.8 0 0 0 .153-.37.808.808 0 0 0-.632-.902M156.064 106.805c.137-.26.37-.944.137-1.121s-.848.15-1.094.301c-.246.15-.15.683.151.888s.601.26.806-.068M136.172 28.985c.273-.233.505-.493.287-.875-.219-.383-.998-.342-1.149-.11a.877.877 0 0 0 .096.793.46.46 0 0 0 .33.308.47.47 0 0 0 .436-.116"/><path fill="#fff" d="M136.883 28.273a.82.82 0 0 0 .984-.56.871.871 0 0 0-.615-.957.68.68 0 0 0-.548.065.67.67 0 0 0-.313.454.75.75 0 0 0 .492.998M152.195 50.121a1.69 1.69 0 0 0 .192-1.531c-.233-.383-.657-.397-1.176 0-.52.396-.711.765-.424 1.175s.971.698 1.408.356M163.721 71.627a.66.66 0 0 0 .341-.533c-.109-.506-.492-.616-.998-.52-.191.37-.437.752 0 1.094a.88.88 0 0 0 .657-.041M169.75 88.73a2 2 0 0 0 .109.151v-1.996a1 1 0 0 0-.136.26.8.8 0 0 0-.411.355.88.88 0 0 0 .219 1.107q.1.082.219.124M164.254 78.463a.7.7 0 0 0 .437-.15c.123-.178.233-.561.124-.698a.45.45 0 0 0-.37-.096.8.8 0 0 0-.191-.191.835.835 0 0 0-1.053 0 .81.81 0 0 0-.353.917.808.808 0 0 0 1.406.272zM169.381 78.559c0-.493-.11-.985-.178-1.477a.61.61 0 0 0-.601.219.75.75 0 0 0-.237.553q0 .157.062.302a.8.8 0 0 0 .175.252.85.85 0 0 0 .779.15M168.82 94.65c.219.342.356.711.684.807 0-.506 0-1.012.109-1.517-.355.054-.574.396-.793.71M151.826 58.434a.77.77 0 0 0 .431-.431.76.76 0 0 0-.021-.608 1.37 1.37 0 0 0-1.558-.465.905.905 0 0 0-.315 1.175 1.12 1.12 0 0 0 1.463.329M150.391 59.377c-.11.164 0 .424.136.506.137.082.547.15.643 0s-.137-.52-.246-.588a.47.47 0 0 0-.533.082M139.453 23.762h.137a78 78 0 0 0-3.213-2.488 3.3 3.3 0 0 0 0 .642c.005.367.13.722.355 1.012a1.74 1.74 0 0 0 1.368.601c.464-.013.847.424 1.353.233M149.16 38.281a1.26 1.26 0 0 0 .205-1.49 1.36 1.36 0 0 0-1.545-.082.695.695 0 0 0-.274.82.7.7 0 0 0 .165.26c.492.615.957.78 1.449.492M147.656 31.87a.734.734 0 0 0-1.093 0c-.26.259-.575.532-.356.847.397.547.875.683 1.231.451a.85.85 0 0 0 .418-.597.8.8 0 0 0-.021-.374.8.8 0 0 0-.179-.328M164.664 74.799a1.967 1.967 0 0 0 2.735.848.79.79 0 0 1 .888 0 .85.85 0 0 0 .684 0c-.082-.493-.178-.999-.26-1.49a1.15 1.15 0 0 1-.478-.301 19 19 0 0 1-1.176-1.6c.861-1.367.738-1.887-.629-2.324a1.065 1.065 0 0 0-1.463 1.011 9 9 0 0 0 .41 1.914c-.451.506-.998 1.135-.711 1.942M96.031 17.773a.284.284 0 0 0 .193-.28.3.3 0 0 0-.029-.116c-.082-.137-.26-.396-.52-.342-.26.055-.177.479-.123.533.055.055.26.287.479.205M94.87 19.988c.492-.137.874-.738.67-1.08-.206-.342-1.491-.314-1.723.068-.233.383.52 1.149 1.052 1.012M91.383 5.578a.48.48 0 0 0-.67.438c0 .205.069.779.533.82.465.04.534-.506.534-.697a.77.77 0 0 0-.397-.56M92.737 8.791a.82.82 0 0 0 .888.82 1.203 1.203 0 0 0 1.108-1.271c0-.67-.41-.752-.383-1.19s-.219-.587-.67-.71-1.107-.315-1.272.314c-.163.629.22.807.41.834.192.027.425.356.206.397-.219.04-.37.218-.287.806M110.414 27.96a.67.67 0 0 0-.246.546.659.659 0 0 0 .602.383c.218 0 .287-.602.218-.739a.63.63 0 0 0-.574-.19M92.326 17.09c.656-.096.82-.328.902-1.108q.582-.437 1.108-.943a.52.52 0 0 0-.37-.889c-.533 0-1.148-.068-1.626.41v.766c-.616.396-.971.984-.794 1.367a.74.74 0 0 0 .78.397M160.371 99.887a.76.76 0 0 0 .834.282.8.8 0 0 0 .273-.146 1 1 0 0 0 .206-.314c.451-.397.273-.862-.124-1.367h-.109a.89.89 0 0 0-1.162 0c-.185.22-.279.502-.263.788s.139.557.345.757M89.346 6.44a.725.725 0 0 0-.861.341c-.15.37 0 .575.793.862a.698.698 0 0 0 .068-1.203M112.109 12.687a1.026 1.026 0 0 0-1.367-.656 1.258 1.258 0 0 0-.82 1.737 1.365 1.365 0 0 0 1.558.875 1.53 1.53 0 0 0 .629-1.956M168.328 99.258a1.27 1.27 0 0 0 .424 1.558c.123-.67.232-1.367.328-2.023a1.2 1.2 0 0 0-.752.465M81.949 10.746a.5.5 0 0 0 .397-.314c0-.137 0-.492-.356-.506-.355-.014-.37.342-.383.478-.013.137.233.356.342.342M88.608 10.062c-.137.083-.37.178-.301.424a.287.287 0 0 0 .383.205c.136 0 .492-.218.423-.45-.068-.233-.424-.22-.505-.179M142.734 59.363c-.109.082-.259.328-.15.506s.383.164.519.11c.137-.055.37-.424.274-.588s-.533-.11-.643-.028M141.654 39.115a.76.76 0 0 0-.205-.642 1 1 0 0 0-.123-.274.534.534 0 0 0-.766-.205 1.02 1.02 0 0 0-1.044.533 1 1 0 0 0-.118.397c-.123.656.178 1.23.684 1.367a1.53 1.53 0 0 0 1.572-1.176M141.695 65.31c-.082 0-.3.329-.191.52.109.192.478 0 .615 0a.382.382 0 0 0 .096-.424c-.028-.15-.369-.136-.52-.095M122.883 38.568c0 .137.177.329.328.41.15.082.437 0 .492-.218.055-.219-.301-.383-.451-.424a.37.37 0 0 0-.369.232M160.959 95.908a.26.26 0 0 0 0-.314h-.287a.25.25 0 0 0 0 .273.24.24 0 0 0 .287.041M155.449 117.701a.74.74 0 0 0 .275-.581.76.76 0 0 0-.275-.581 1.37 1.37 0 0 0-.865-.391 1.37 1.37 0 0 0-.912.268 1.18 1.18 0 0 0-.124.797c.051.272.198.517.411.693a1.065 1.065 0 0 0 1.49-.205M153.918 123.047a.48.48 0 0 0 0 .533c.082.109.519.287.629.137a.536.536 0 0 0-.096-.547c-.123-.123-.424-.26-.533-.123M143.965 44.365a1.28 1.28 0 0 0-.829-.624 1.27 1.27 0 0 0-1.017.2 1.613 1.613 0 0 0-.465 2.106 1.71 1.71 0 0 0 2.065.396 1.374 1.374 0 0 0 .548-1.57 1.4 1.4 0 0 0-.302-.508M124.592 32.266a.517.517 0 0 0 .492.697q.36-.088.683-.273a.78.78 0 0 0-.132-.599.78.78 0 0 0-.524-.317c-.369-.041-.465.205-.519.492M123.881 26.947a1.62 1.62 0 0 0-.698-1.463 1.053 1.053 0 0 0-1.285.875c-.137.479.26.944.944 1.121a.76.76 0 0 0 .896-.236.8.8 0 0 0 .143-.297M126.615 23.147a.79.79 0 0 0-.697-.875c.122-.232.184-.49.178-.752a1.45 1.45 0 0 1 .273-1.053 1.686 1.686 0 0 0 .096-1.572 1.37 1.37 0 0 0-1.367-.848h-.151a1.28 1.28 0 0 0 .561-.82c.095-.479-.315-.916-1.012-1.053s-1.189.205-1.271.601a1.462 1.462 0 0 0 .847 1.504.6.6 0 0 0 .233 0c-.163.152-.289.34-.37.547a2.45 2.45 0 0 0 0 1.71c.062.209.062.432 0 .642a1.03 1.03 0 0 0 .001.968 1.02 1.02 0 0 0 .806.536.45.45 0 0 0-.123.273c0 .342.328.725.793.807a.93.93 0 0 0 1.203-.616M134.189 37.146c.301.424.684.56.944.342a1.27 1.27 0 0 0 .273-1.367.72.72 0 0 0-.561-.274c0-.341-.136-.751-.437-.751s-.93.082-.998.464c-.068.383.437.602.67.711a.82.82 0 0 0 .109.875M139.631 46.84c-.287.137 0 .478 0 .629 0 .15.355.164.41.11a.6.6 0 0 0 .133-.223.7.7 0 0 0 .031-.256.44.44 0 0 0-.574-.26M149.926 48.166a.809.809 0 0 0-.643-.82.613.613 0 0 0-.779.3c-.287.52 0 .889.383 1.3.492-.165 1.025-.179 1.039-.78M135.475 26.223a1.53 1.53 0 0 0-.123-2.12 1.78 1.78 0 0 0-1.559 0 .74.74 0 0 0-.561-.765.833.833 0 0 0-.902.642.8.8 0 0 0-.019.306.77.77 0 0 0 .303.519.8.8 0 0 0 .277.132h.15a1.466 1.466 0 0 0 .492 1.463v.069a1.37 1.37 0 0 0-.957 1.148 2 2 0 0 0 0 .67.7.7 0 0 0-.56 0 1.04 1.04 0 0 0-.356 1.367 1.29 1.29 0 0 0 1.285.602 1.05 1.05 0 0 0 .752-.998 1.46 1.46 0 0 0 1.545-1.026 1.5 1.5 0 0 0-.478-1.517c.289-.072.542-.247.711-.492M143.746 27.344a71 71 0 0 0-2.42-2.16 1.1 1.1 0 0 0-.929.15 1.041 1.041 0 0 0-.411 1.367 1.366 1.366 0 0 0-.629 1.217 1.45 1.45 0 0 0 1.778.943c.385-.127.708-.396.902-.752h.192c.779.26 1.189-.164 1.517-.765M132.904 37.256a.25.25 0 0 0 .099-.15.25.25 0 0 0-.031-.178.274.274 0 0 0-.355-.014.3.3 0 0 0 0 .287.25.25 0 0 0 .287.055M141.641 32.293a.75.75 0 0 0 .738.574c.424-.082.615-1.066.328-1.23s-1.135.232-1.066.656M140.246 29.518a1.07 1.07 0 0 0-.369.724c.082.465.519.438.889.438.341-.356.451-.739.095-1.08a.65.65 0 0 0-.615-.083M131.756 38.664c-.109.082-.082.492 0 .643.082.15.355.15.396.095a.57.57 0 0 0 .165-.478c-.041-.11-.452-.328-.561-.26M132.617 41.248c.191 0 .397-.287.465-.437s0-.329-.205-.356a.52.52 0 0 0-.465.219c-.055.11 0 .52.205.574"/><path fill="#fff" d="M131.783 27.057c.328-.205.219-.834.082-1.149-.136-.314-.888-.67-1.217-.465-.328.205.001 1.135.124 1.367a.856.856 0 0 0 1.011.247M128.16 16.967a.85.85 0 0 0 .687.893.847.847 0 0 0 .967-.579.84.84 0 0 0-.178-.574l-.642-.3a.79.79 0 0 0-.834.56M127.722 15.627l-1.107-.588c.096.424.766.438 1.08.615zM131.319 22.244c.574-.191.752-.56.56-1.025q.654-.354 1.231-.82a1.68 1.68 0 0 0 .314-1.272 83 83 0 0 0-1.641-1.066 1.43 1.43 0 0 0-.683.177 1.5 1.5 0 0 0-.356 1.791c.205.438.452.793.11 1.367-.342.575.082.643.465.848M160.248 107.078c.219.11.834.342 1.012.11.177-.233-.205-.807-.383-.957-.178-.151-.52 0-.697.177a.38.38 0 0 0-.092.545.37.37 0 0 0 .16.125M130.471 26.865a.793.793 0 0 0-.875.698.74.74 0 0 0 .519.875.712.712 0 0 0 .944-.534.85.85 0 0 0-.588-1.039M125.905 28.943c-.082.397.136.739.505.711q.362-.088.684-.273a.789.789 0 0 0-.362-.81.8.8 0 0 0-.294-.106c-.369-.041-.465.246-.533.478M150.227 46.266c.246.724.957 1.285 1.49.847.454-.427.748-.996.834-1.613.123-.492-.424-.806.109-1.053s1.572-.902.985-1.832a1.37 1.37 0 0 0-1.559-.41 1.494 1.494 0 0 0-.219-1.367 1.49 1.49 0 0 0-1.791-.273.24.24 0 0 0-.123 0 .79.79 0 0 0-1.012.601.84.84 0 0 0 .506.903q.048.16.137.3a2 2 0 0 0 1.832.492.8.8 0 0 0-.109.602c.123.438-.944.424-.807 1.053s-.519 1.025-.273 1.75M163.187 104.617a1.92 1.92 0 0 0 0-2.283 1.505 1.505 0 0 0-1.968.096 1.37 1.37 0 0 0-.412.977c0 .182.037.363.107.531.071.167.175.32.305.447a1.46 1.46 0 0 0 1.968.232M161.889 112.273a2.2 2.2 0 0 0-.246-.861c-.26-.355-.875-.232-1.176.151a.7.7 0 0 0-.12.536.721.721 0 0 0 .298.462.95.95 0 0 0 .678.099.95.95 0 0 0 .566-.387M144.252 39.771c0-.082 0-.218-.137-.232a.22.22 0 0 0-.176.028.2.2 0 0 0-.064.064.2.2 0 0 0-.033.086.248.248 0 0 0 .205.246s.205-.123.205-.192M148.695 91.601s0 .397.082.41a.57.57 0 0 0 .506 0 .43.43 0 0 0 .125-.3.43.43 0 0 0-.125-.301c-.26-.342-.478 0-.588.191M143.035 41.494c-.082.287.246.465.588.397.319-.09.588-.301.752-.588a.367.367 0 0 0-.1-.447.4.4 0 0 0-.146-.073.77.77 0 0 0-.574.233c-.246.15-.451.232-.52.478M149.201 44.68a1.46 1.46 0 0 0-.834-1.559c-.519-.232-1.217.37-1.558 1.094a1.364 1.364 0 0 0 .765 1.654 1.45 1.45 0 0 0 1.627-1.19M145.086 43.504a.64.64 0 0 0 .615.137.83.83 0 0 0 .451-.588c0-.547-.451-.588-.861-.643-.369.328-.533.697-.205 1.094M147.287 49.916c-.178.137-.109.793 0 .848.11.054.697.287.82.123a.78.78 0 0 0 0-.738c-.082-.15-.656-.37-.82-.233M81.936 5.373a.29.29 0 0 0 .205.137.42.42 0 0 0 .396-.164c.174.11.37.18.575.205.244.033.493.033.738 0-.164.328 0 1.093.383 1.175.382.083.806 0 .902-.41a1.27 1.27 0 0 0 1.025 0 1.67 1.67 0 0 0 .848-1.12c-1.695-.014-3.39.068-5.072.177M146.057 43.832a.67.67 0 0 0-.575.246.79.79 0 0 0 0 .71.74.74 0 0 0 1.08 0 .696.696 0 0 0-.505-.956M149.023 111.33c.698-.191 1.176-1.066.875-1.586a1.14 1.14 0 0 0-1.23-.574.9.9 0 0 0-.82.93c0 .383-.287 1.176.205 1.49s.642-.178.97-.26M147.656 84.889a.806.806 0 0 0 1.026-.233.666.666 0 0 0 .015-.794.7.7 0 0 0-.207-.19.792.792 0 0 0-1.135.484.66.66 0 0 0 .098.54.7.7 0 0 0 .203.193M147.807 56.834v.287c0 .041.177.137.259 0a.2.2 0 0 0 .055-.074.2.2 0 0 0 .019-.09.2.2 0 0 0-.019-.09.2.2 0 0 0-.055-.074.24.24 0 0 0-.259.041"/><path fill="#fff" d="M147.096 40.783a1.134 1.134 0 0 0 1.367.451c.56-.191.711-.642.219-1.367a13 13 0 0 0-1.368-.902.69.69 0 0 0-.803.096.7.7 0 0 0-.167.232.734.734 0 0 0 .246 1.012c.197.126.369.289.506.478M147.889 54.688a.87.87 0 0 0 .311-.514.87.87 0 0 0-.093-.594.926.926 0 0 0-1.203-.178.73.73 0 0 0-.178.998.805.805 0 0 0 1.163.287M148.231 74.074c0-.137.232-.424 0-.602-.233-.177-.493 0-.52.137a.634.634 0 0 0 .068.492s.411.041.452-.027M148.818 122.869a.437.437 0 0 0 .11-.601c-.205-.247-.492 0-.615.136-.124.137 0 .383 0 .424s.396.123.505.041M151.525 69.726a.81.81 0 0 0-.642-.834.617.617 0 0 0-.78.301c-.287.533 0 .903.383 1.299.506-.219 1.026-.246 1.039-.766M151.238 92.326c.096-.11 0-.382-.082-.52-.082-.136-.382-.204-.533 0-.15.206 0 .48.178.589a.37.37 0 0 0 .437-.069M149.598 100.912c-.588-.15-.875.219-1.162.697.273.438.423.944.998.807a.81.81 0 0 0 .642-.82.606.606 0 0 0-.478-.684M149.775 115.691a.68.68 0 0 0 .166-.782.7.7 0 0 0-.166-.229.79.79 0 0 0-1.025 0 .64.64 0 0 0-.23.499.66.66 0 0 0 .23.499.81.81 0 0 0 1.025.013M145.66 71.75a.835.835 0 0 0 .465-.943.614.614 0 0 0-.615-.574c-.602 0-.807.396-.998.93.41.368.615.833 1.148.587M139.453 29.668a.86.86 0 0 0 .219-1.094.9.9 0 0 0-1.203-.177.73.73 0 0 0-.286.465.73.73 0 0 0 .122.533.79.79 0 0 0 .511.4.78.78 0 0 0 .637-.127M138.592 36.08a.78.78 0 0 0-.081-.59.77.77 0 0 0-.48-.353.9.9 0 0 0-.984.547.7.7 0 0 0-.011.304.75.75 0 0 0 .318.505q.128.089.281.12a.73.73 0 0 0 .827-.255.7.7 0 0 0 .13-.278M146.07 50.381c-.369-.506-.916-.52-1.531 0a1.09 1.09 0 0 0-.232 1.285 1.84 1.84 0 0 0 1.763.465 1.37 1.37 0 0 0 0-1.75M137.252 54.852c-.178.136-.164.752-.096 1.011.069.26.479.383.862.178a.46.46 0 0 0 .19-.134.47.47 0 0 0 .097-.21.446.446 0 0 0-.151-.422c-.164-.191-.724-.587-.902-.423M137.061 43.135c.287.082.656-.63.628-.738-.109-.329-.191-.78-.56-.89s-.547.343-.533.493.123 1.053.465 1.135M137.334 33.059a.776.776 0 0 0-.656-.971.94.94 0 0 0-.916.793.85.85 0 0 0 .711.861.76.76 0 0 0 .775-.39.7.7 0 0 0 .086-.293M138.387 43.135c-.164-.246-.656-.219-1.026 0a.43.43 0 0 0-.239.317.44.44 0 0 0 .116.38c.219.273.506.478.875.26a.85.85 0 0 0 .274-.957M151.457 105.273c.109-.123.328-.369.164-.588s-.492 0-.533 0a.7.7 0 0 0 0 .506s.328.082.369.082M140.492 34.836a.913.913 0 0 0 .151-1.217 1.11 1.11 0 0 0-1.368-.355 1.365 1.365 0 0 0-.396 1.6c.205.328 1.107.314 1.613-.028M144.621 61.072c-.123.178.164.451.287.533a.41.41 0 0 0 .438-.095c0-.137 0-.383-.192-.506-.191-.123-.41-.123-.533.068M145.059 56.055c.259-.233.437-.533.164-.78-.274-.246-.807-.574-1.067-.41s0 .889.123 1.121a.47.47 0 0 0 .371.247.46.46 0 0 0 .409-.178M141.463 41.918a.626.626 0 0 0 .368-.687.65.65 0 0 0-.108-.256.684.684 0 0 0-.889-.246c-.301.136-.437.984-.164 1.148a.9.9 0 0 0 .793.041M160.549 125.043c-.78-1.23-1.614-1.121-2.352.246q-.15.021-.301 0c-.423-.082-.642.151-.806.492a.75.75 0 0 0-.062.448.75.75 0 0 0 .212.4c.52.67.902.711 1.545.15s.971-.82 1.449-1.23l.233.232c.15-.259.273-.533.41-.806a1.6 1.6 0 0 0-.328.068M167.139 106.025a.6.6 0 0 0 .248-.198.6.6 0 0 0 .121-.294c0-.506-.356-.684-.875-.711-.246.328-.574.656-.233 1.067a.84.84 0 0 0 .739.136M151.854 122.281a.44.44 0 0 0-.096-.601.48.48 0 0 0-.588.136.397.397 0 0 0 0 .561.43.43 0 0 0 .366.128.4.4 0 0 0 .186-.073.44.44 0 0 0 .132-.151M163.857 107.735a1.36 1.36 0 0 0-1.695 0 1.37 1.37 0 0 0 .109 1.709c.236.139.512.19.781.142.268-.047.511-.19.682-.402.506-.588.547-1.053.123-1.449M166.797 104.18c.287-.383 0-1.067-.574-1.477a.876.876 0 0 0-1.108.232 1.1 1.1 0 0 0-.167.711c.028.248.14.48.318.657a1.264 1.264 0 0 0 1.531-.123M165.02 102.539c.164 0 .396-.096.451-.219q.212-.557.355-1.135c.889-.382 1.367-.998 1.121-1.53a1.61 1.61 0 0 0-1.791-.657c-.615.246-.67.615-.218 1.873-.479.232-.998.396-.766 1.053a.806.806 0 0 0 .848.615M70.875 10.582a.68.68 0 0 0 .82-.588c0-.492-.314-1.135-.656-1.162s-.807.52-.862.916a.726.726 0 0 0 .698.834M75.441 6.535h.246c.287-.191.37-.328.397-.533l-1.026.164q.206.17.383.369M83.535 7.97a.71.71 0 0 0-.861.342.67.67 0 0 0 .793.848.683.683 0 0 0 .068-1.19M165.43 111.453a.927.927 0 0 0-.383 1.285.85.85 0 0 0 .766.233c.15-.465.314-.944.451-1.367a.776.776 0 0 0-.834-.151M163.406 116.676a2.02 2.02 0 0 0 0 1.75c.123.104.268.179.424.218.26-.656.506-1.367.752-1.968-.52-.301-.916-.315-1.176 0M146.152 81.006c.547.205.657-.315.889-.438a1.27 1.27 0 0 0 .644-.76c.049-.164.066-.336.047-.506a1.3 1.3 0 0 0-.158-.484 1.144 1.144 0 0 0-1.367-.3.904.904 0 0 0-.601 1.08c.109.382 0 1.216.546 1.408M135.981 38.965c.137-.068.41-.437.287-.588a.56.56 0 0 0-.561 0c-.123.11-.369.342-.246.492a.52.52 0 0 0 .52.096M167.877 101.91a1.37 1.37 0 0 0 0 1.627c.093.099.21.17.342.205.123-.67.246-1.367.355-2.01a.849.849 0 0 0-.697.178M153.125 74.662c0-.273.164-.998-.096-1.12-.259-.124-.806.314-1.011.519s0 .71.328.847.601.11.779-.246M153.316 85.955a1.097 1.097 0 0 0 1.368-.506c.273-.492.205-.889-.219-1.135a1.37 1.37 0 0 0-1.764.246c-.076.268-.057.554.055.81.113.254.312.461.56.585M152.141 90.672a.45.45 0 0 0 .017-.364.44.44 0 0 0-.263-.251.466.466 0 0 0-.547.232.4.4 0 0 0-.06.147.39.39 0 0 0 .183.414.438.438 0 0 0 .67-.178M154.588 110.824a.85.85 0 0 0 0-1.039.97.97 0 0 0-1.148 0 .76.76 0 0 0-.197.513c0 .189.069.372.197.512a.856.856 0 0 0 1.148.014M161.219 114.105a.78.78 0 0 0 .082 1.094q.124.103.277.152a.815.815 0 0 0 1.016-.532.81.81 0 0 0-.254-.864.873.873 0 0 0-1.121.15M152.195 77.93a.97.97 0 0 0-1.121.205.77.77 0 0 0 .246 1.011.88.88 0 0 0 1.121-.205.86.86 0 0 0-.246-1.011M159.838 93.652c.301-.41.629-.806.929-1.19q.084.173.247.274c.287.178.615.274.793 0v-.11c.273 0 .41-.204.628-.765-.328-.506-.751-.533-1.271-.219-1.025-1.039-1.818-.765-2.256.725a1 1 0 0 1-.287 0c-.437 0-.602.273-.697.643a.72.72 0 0 0 .328.793c.697.533 1.08.533 1.586-.15M161.752 119.875a1.17 1.17 0 0 0 .381-.861 1.172 1.172 0 0 0-.381-.862 1.573 1.573 0 0 0-2.147.192 1.6 1.6 0 0 0 .219 1.9c.479.492 1.299.342 1.928-.369M157.637 101.172a1.37 1.37 0 0 0-.287-1.682 1.22 1.22 0 0 0-1.526.316 1.214 1.214 0 0 0 .035 1.557 1.25 1.25 0 0 0 1.402.131q.22-.124.376-.322M156.16 126.93c.178-.164.123-.561.151-.766-.424-.396-.725-.273-.944 0-.219.274-.342.602 0 .793a.8.8 0 0 0 .401.091.8.8 0 0 0 .392-.118M157.568 114.488a.764.764 0 0 0 1.026-.191c.112-.223.149-.476.106-.722a1.17 1.17 0 0 0-.339-.645 1.105 1.105 0 0 0-1.244.67.76.76 0 0 0 .451.888M97.877 6.166c0 .233.178.3.397.26.218-.041.3-.164.246-.383a.5.5 0 0 0 0-.15h-.451a.26.26 0 0 0-.192.273M119.109 18.32a.97.97 0 0 0 1.08.602c.37-.137.561-.766.342-1.45-.15 0-.41-.245-.642-.204a.957.957 0 0 0-.78 1.053M102.853 20.658a.54.54 0 0 0 .347-.28.56.56 0 0 0 .023-.445.603.603 0 0 0-.739-.505.71.71 0 0 0-.478.888.6.6 0 0 0 .348.36.61.61 0 0 0 .499-.018M158.225 73.965c.136-.26-.369-.752-.588-.848s-.492.137-.629.301a.382.382 0 0 0 .191.656c.246.055.889.164 1.026-.11M118.672 11.621c.259.738.875 1.176 1.367.984a.8.8 0 0 0 .342-.3v.164a.993.993 0 0 0 .902 1.244c.643.11 1.162-.164 1.217-.656v-.137a101 101 0 0 0-3.746-1.64.84.84 0 0 0-.082.341M96.865 11.662c.396.178.752.56 1.107.438a.75.75 0 0 0 .465-.465c.162-.198.258-.442.274-.697a1.64 1.64 0 0 0-.684-1.258 1.25 1.25 0 0 0-1.285 0 1.04 1.04 0 0 0-.465.957 1.24 1.24 0 0 0 .588 1.025M169.176 98.232l.205-1.709a.66.66 0 0 0-.848.165.99.99 0 0 0 0 1.462c.201.094.425.122.643.082M121.174 14.56a.93.93 0 0 0-.288.684c0 .328.643.534.917.315.137-.147.235-.325.287-.52-.233-.506-.657-.697-.916-.478M116.389 11.54a1.697 1.697 0 0 0-1.969-1.108 1.76 1.76 0 0 0-.943 1.941c.061.188.17.357.314.492 0 .164.164.301.205.397.237.093.501.093.738 0 .282.02.565-.012.834-.096.233-.075.438-.217.588-.41 0 0 .082.082.123.082a.724.724 0 0 0 .834-.588.54.54 0 0 0-.095-.488.54.54 0 0 0-.452-.21zM101.309 8.121a.4.4 0 0 0 0-.52.59.59 0 0 0-.616 0c-.15.11 0 .41 0 .547a.44.44 0 0 0 .616-.027M102.402 17.049c.561-.205.725-.684.465-1.367-.26-.684-.697-.711-1.367-.438-.67.274-.711.574-.588.944a1.67 1.67 0 0 0 1.49.86M106.641 10.814c.123.643.396 1.026.711.985a1.37 1.37 0 0 0 .806-1.08c0-.315-.642-.698-1.039-.657a.57.57 0 0 0-.418.263.56.56 0 0 0-.06.49M104.275 10.39a.53.53 0 0 0 .301.425c.123 0 .479 0 .52-.315.041-.314-.301-.396-.451-.424s-.37.205-.37.315M168.902 93.174c.225.138.494.187.752.137 0-.971.137-1.942.164-2.912a1.53 1.53 0 0 0-1.75.738 1.817 1.817 0 0 0 .834 2.037M168.164 88.334a1.078 1.078 0 0 0-1.928-.916 1.368 1.368 0 0 0 .288 1.682c.273.205 1.339-.233 1.64-.766M158.73 79.297a.943.943 0 0 0 1.162-.534 2.7 2.7 0 0 0-.423-.806c-.328-.287-.903 0-1.121.396a.693.693 0 0 0-.007.552.7.7 0 0 0 .389.392M162.217 65.379a1.61 1.61 0 0 0-1.887-.273c-.451.3-.492.642-.109 1.367a.54.54 0 0 0-.274.082 1 1 0 0 0-.328 1.107.75.75 0 0 0 .246.205.9.9 0 0 0 .11.315.82.82 0 0 0 .957.424c.15 0 .369-.178.396-.301 0-.383 0-.766.11-1.203.779-.547 1.107-1.245.779-1.723M133.109 45.117a.78.78 0 0 0 .26-.998.78.78 0 0 0-1.08-.218.62.62 0 0 0-.364.416.6.6 0 0 0 .118.54.75.75 0 0 0 .477.361.75.75 0 0 0 .589-.1M160.043 73.35c.424-.397 0-.725 0-.999a1.45 1.45 0 0 0-.67-1.12.6.6 0 0 0 .191-.178 1.894 1.894 0 0 0-.423-2.243 1.52 1.52 0 0 0-1.914.493 1.467 1.467 0 0 0 .382 1.928c.164.104.345.183.534.232a1.25 1.25 0 0 0-.288.683.89.89 0 0 0 .684 1.026c.383.123 1.08.574 1.504.178M160.863 73.965a1.37 1.37 0 0 0-1.654.328c-.112.29-.128.608-.046.908.08.3.254.566.497.76a1.15 1.15 0 0 0 1.367-.56c.397-.67.301-1.135-.164-1.436M160.672 80.363a.89.89 0 0 0-1.066.383.78.78 0 0 0 .3 1.053.82.82 0 0 0 .766-1.367zM164.938 97.07a1.477 1.477 0 0 0 1.859-.847 1 1 0 0 0 .127-.418 1.04 1.04 0 0 0-.276-.808 1.1 1.1 0 0 0-.357-.251 1.365 1.365 0 0 0-1.594.17 1.4 1.4 0 0 0-.334.459 1.365 1.365 0 0 0 .575 1.695M167.481 93.351c-.178-.136-.807.082-.834.192-.028.11-.096.752.095.834a.85.85 0 0 0 .725-.15c.123-.151.178-.752.014-.876M164.063 93.858a.727.727 0 0 0-1.012.082.773.773 0 0 0-.204.922.8.8 0 0 0 .204.267.86.86 0 0 0 1.121 0 .916.916 0 0 0-.109-1.271M164.145 83.973c.273-.492 0-.97-.602-1.367s-1.053-.233-1.258.177a1.99 1.99 0 0 0 .315 1.71 1.11 1.11 0 0 0 1.545-.52M162.832 89.934c.273.095.861.396 1.107 0 .246-.397-.259-.82-.464-1.053s-.643-.11-.862.232-.178.698.219.82M159.441 87.049a1.38 1.38 0 0 0 1.106.031 1.37 1.37 0 0 0 .767-.797 1.133 1.133 0 0 0 .17-.926 1.1 1.1 0 0 0-.211-.433 1.1 1.1 0 0 0-.369-.309 1.557 1.557 0 0 0-2.064.629 1.59 1.59 0 0 0 .601 1.805M119.41 26.55a.74.74 0 0 0 .957-.382.92.92 0 0 0 0-.738c-.219-.41-.588-.397-1.367 0-.055.382-.205.916.41 1.12M119.793 16.229a1 1 0 0 0 0-.37c.205-.164.67-.492.438-.861-.233-.37-.78-.287-1.039-.219-.26.069-.328.301-.287.547a3.97 3.97 0 0 0-2.079 0q-.14.06-.259.15a.98.98 0 0 0-1.121-.478 1.6 1.6 0 0 0-.848 1.367.5.5 0 0 0 0 .492q.061.07.15.096a1.18 1.18 0 0 0 1.19.274q.228-.095.424-.247c.137.133.306.228.492.274.53.146 1.077.224 1.627.232a1.54 1.54 0 0 0 1.312-1.258M120.927 21.15a.9.9 0 0 0 .5-.6.91.91 0 0 0-.144-.767.806.806 0 0 0-1.367.246 1.05 1.05 0 0 0 .15.916.87.87 0 0 0 .861.205M115.09 34.822a2.21 2.21 0 0 0 1.969-1.271 1.507 1.507 0 0 0-1.231-1.654 1.68 1.68 0 0 0-1.75 1.134 1.52 1.52 0 0 0 1.012 1.791M116.293 23.502c-.192 0-.246.342-.219.478.027.137.314.465.492.41.178-.054.246-.492.192-.615a.46.46 0 0 0-.465-.273M121.311 23.352a.835.835 0 0 0 .369-1.6.794.794 0 0 0-.971.533.906.906 0 0 0 .602 1.067M114.94 22.367a.42.42 0 0 0 .396.205c.137 0 .192-.341.178-.492s-.246-.369-.451-.314-.219.45-.123.601M121.925 32.813a.44.44 0 0 0 .465-.247c0-.19-.15-.396-.287-.437s-.56 0-.601.192c-.041.19.287.492.423.492M129.883 35.78a.876.876 0 0 0 1.066-.534 2.2 2.2 0 0 1 .479-.724 1.16 1.16 0 0 0 .506-1.244 1.1 1.1 0 0 0-.684-.465c.137-.11.328-.356.192-.52a.55.55 0 0 0-.616 0 .458.458 0 0 0-.123.41 1.5 1.5 0 0 0-.355 0c-.424.123-.875.219-.862.834.014.616 0 .903 0 1.367a.682.682 0 0 0 .17.737q.1.092.227.138M131.934 49.602c.191-.11.191-.67.109-.78s-.492-.355-.656-.287c-.164.069-.26.506-.191.67.068.164.56.506.738.397M129.404 25.567a1.6 1.6 0 0 0 1.504-1.163.91.91 0 0 0-.445-.97.9.9 0 0 0-.362-.11.98.98 0 0 0-1.248.439 1 1 0 0 0-.119.464c-.082.629.219 1.271.67 1.34M127.066 39.334c.37-.287.274-.137.725 0a.808.808 0 0 0 1.23-.684 1.6 1.6 0 0 0-1.462-1.531 1.87 1.87 0 0 0-1.778 1.832c.069.697.916.697 1.285.383M108.076 20.508a.8.8 0 0 0 .602-.356.49.49 0 0 0-.383-.697c-.219 0-.793 0-.861.465s.451.588.642.588M106.641 24.09a.945.945 0 0 0 .314-1.162.694.694 0 0 0-.91-.23.7.7 0 0 0-.252.23c-.095.205.233.642.41.943a.3.3 0 0 0 .055.13.3.3 0 0 0 .246.124.3.3 0 0 0 .137-.035M107.884 17.773c.547-.164.957-.751.807-1.148a1.25 1.25 0 0 0-1.217-.738c-.465.164-.656.875-.41 1.517a.585.585 0 0 0 .573.427.6.6 0 0 0 .247-.058M106.312 14.916a.92.92 0 0 0 0-.766.77.77 0 0 0-.629-.191q-.595.12-1.162.342c-.328.109-.383.355-.232.71.096 0 .232.165.328.137a1.64 1.64 0 0 1 1.08.15c.137.055.506-.19.615-.382M104.85 18.58a.81.81 0 0 0 .382-1.053.9.9 0 0 0-.998-.533c-.355.137-.738.807-.615 1.08a1.12 1.12 0 0 0 1.231.506M103.906 9.967c.739-.328 1.094-.834.903-1.368a1.37 1.37 0 0 0-1.532-.396 1.37 1.37 0 0 0-.41 1.367.92.92 0 0 0 1.039.397M103.442 11.457a1.08 1.08 0 0 0-1.203-.52c-.465.178-1.039 1.231-.862 1.6a1.37 1.37 0 0 0 1.655.397c.574-.246.724-.766.41-1.477M113.9 26.346a1.37 1.37 0 0 0 1.477-1.012 1.38 1.38 0 0 0-.149-1.156 1.36 1.36 0 0 0-.986-.622 1.15 1.15 0 0 0-1.449.82 1.79 1.79 0 0 0 1.107 1.97M116.922 20.07c.095-.342-.561-.738-1.149-.615s-.533.93-.369 1.19 1.422-.247 1.518-.575M112.109 18.73c.411.22 1.245-.464 1.149-.806s-1.149-.588-1.367-.192a.794.794 0 0 0 .218.999M109.826 11.553c.15 0 .629.096.752-.233.123-.328-.356-.56-.52-.587-.164-.028-.505 0-.574.273a.506.506 0 0 0 .342.547M109.375 12.729c-.26-.233-1.148-.123-1.258.273-.109.396-.095.957.629.984.725.028.902-1.011.629-1.258"/><path fill="#CED5E1" d="M13.672 53.813c.533.314.178.396-.219-.37a1.89 1.89 0 0 0 1.614.93c1.148 0 2.283.315 3.431.342 1.942 0 3.897.095 5.852.11a39.3 39.3 0 0 0 7.82-.138c.588-.122 1.477-.546 1.805-.615.732-.114 1.474-.16 2.215-.137 1.476 0 2.953.11 4.43.165 6.179.232 12.304.328 18.538.246 5.182 0 10.364.314 15.545.342q1.614.091 3.227 0l1.818-.206.656-.082a6.55 6.55 0 0 0 3.72-1.08l-1.368.575a1.983 1.983 0 0 0 0-3.965l1.367.574a5.6 5.6 0 0 0-3.213-.957 35 35 0 0 0-4.607-.328c-4.963.11-9.885.328-14.834.601-6.125.342-12.305.15-18.457.492-2.83.15-6.18.835-8.983.274-.246 0-1.148-.424-1.654-.533-.8-.126-1.612-.162-2.42-.11h-3.76c-2.337 0-4.675.137-7.027.22-.943 0-1.86.136-2.734.259l-.944.137c-.232 0-1.066.082-.3 0a1.85 1.85 0 0 0-1.614.93c.37-.766.752-.698.219-.37a1.532 1.532 0 0 0 0 2.625zM11.594 105.642c.79.391 1.65.623 2.529.684l.943.109.588.069h3.719c2.639.068 5.264.095 7.902.095 1.664.113 3.334.026 4.977-.259a8 8 0 0 0 1.107-.328c.82-.329-.205-.164.615-.123s1.696-.11 2.544-.096c7.177.109 14.341.601 21.533.56 6.261 0 12.523.342 18.785.424 2.343.092 4.69.046 7.027-.137l2.01-.232c1.545-.178-.67.342.848-.123l.26-.096c.43-.118.827-.333 1.162-.629l-1.368.575a1.982 1.982 0 0 0 0-3.965l1.367.588a3.7 3.7 0 0 0-2.01-.821c1.012.178-.368 0-.71-.082l-.93-.095a47 47 0 0 0-5.728-.301c-6.002.096-12.004.533-18.006.519-7.192 0-14.383.219-21.574.534-1.668.082-3.323 0-4.99 0h-.616c.533 0 .342.095.082 0a14 14 0 0 0-1.367-.438 11.7 11.7 0 0 0-2.735-.232c-2.816 0-5.632 0-8.435.082l-3.733.095c-.656 0-1.367 0-1.955.123h-.847a8.2 8.2 0 0 0-3.008.752 1.54 1.54 0 0 0-.743 1.313 1.53 1.53 0 0 0 .743 1.312zM44.789 81.334c1.4.282 2.823.442 4.252.478 2.037.082 6.22.698 7.246-1.558l-1.518.875a62 62 0 0 1 8.586.246c2.735.082 5.469 0 8.203.232 2.233.287 4.494.287 6.727 0a5.09 5.09 0 0 0 3.432-1.64l-1.71.984c2.557 0 2.557-4.02 0-3.965l1.368.574c-.698-.86-2.201-.998-3.227-1.162a25 25 0 0 0-6.836.192c-2.734.341-5.386.314-8.093.492a60.5 60.5 0 0 1-8.586.547l1.517.875c-1.107-2.27-5.181-1.518-7.246-1.367a25 25 0 0 0-4.252.615 1.9 1.9 0 0 0 0 3.623zM.998 80.008a1.87 1.87 0 0 0 1.367 1.367c1.305.303 2.64.464 3.979.479 2.351.095 4.894.383 6.836-1.217l-1.245.52a52 52 0 0 1 7.985.26c2.611.095 5.181 0 7.793.232s8.025.93 9.57-1.682l-1.723.984c2.543 0 2.557-4.02 0-3.964l1.627.943a4.41 4.41 0 0 0-3.24-1.531 23.3 23.3 0 0 0-6.754.191c-2.488.328-4.894.287-7.396.465a50.6 50.6 0 0 1-7.985.56l1.245.52a5.16 5.16 0 0 0-3.815-1.148c-.984 0-1.969 0-2.953.123a18.6 18.6 0 0 0-3.979.615 1.9 1.9 0 0 0-1.367 1.367c-.061.325-.061.659 0 .984zM6.152 128.516c.916 1.367 3.104 1.367 4.635 1.49 3.035.109 7.328.902 9.803-1.121l-1.258.519a84 84 0 0 1 9.94.301c3.322.109 6.63 0 9.939.274 2.662.293 5.349.293 8.011 0 1.149-.178 3.09-.26 3.883-1.258l-1.367.574a1.982 1.982 0 0 0 0-3.965l1.367.588c-.806-.998-2.638-1.039-3.787-1.189a35 35 0 0 0-8.107.177c-3.254.328-6.494.274-9.762.438-3.36.364-6.738.524-10.117.478l1.258.52c-2.53-1.983-6.754-1.135-9.803-.957-1.518.082-3.746.109-4.635 1.545a1.5 1.5 0 0 0 0 1.586"/><path fill="#07C" d="M127.9 135.024v-90.85l45.432 45.432z"/><path fill="#1BA9F5" d="M70.752 149.98H33.838V29.23h36.914l60.375 60.375z"/><path fill="#07C" d="M143.65 105.533V73.678h-84.3v31.855z"/><path fill="#1BA9F5" d="M108.965 78.053a1.02 1.02 0 0 0 .56-.561c0-.219-.424-.82-.765-.752a.737.737 0 0 0-.561.861.54.54 0 0 0 .267.422.55.55 0 0 0 .499.03M109.375 87.227c-.547 0-1.121.52-1.094.943 0 .848.903 1.053 1.367 1.135.465.082.889-.862.643-1.545a.776.776 0 0 0-.916-.533M110.742 75.455c-.574.082-.902.41-.752.697a1.2 1.2 0 0 0 .711.588c.301.082.656-.478.506-.82s-.369-.37-.465-.465M106.176 87.322c0 .191.301.451.438.465a.358.358 0 0 0 .164-.697c-.137-.041-.561.04-.602.232M111.494 84.137c.082 0 .438 0 .492-.26.055-.26-.314-.356-.465-.397a.38.38 0 0 0-.369.246c-.027.15.192.329.342.41M102.074 87.5c.356 0 .534-.451.629-.725.096-.273-.314-.601-.67-.56-.355.04-.628.355-.533.656.096.3.233.629.574.629M101.172 81.074c-.164-.875-.943-1.613-1.6-1.504a1.75 1.75 0 0 0-1.285 1.791c.096.337.31.628.602.82a.66.66 0 0 0-.602.507 1.285 1.285 0 0 0 .82 1.367.916.916 0 0 0 1.053-.643 1.06 1.06 0 0 0-.382-.984q.143.03.287 0a1.37 1.37 0 0 0 1.107-1.354M104.412 88.389c-.137.164-.328.779-.752.588s-.711-.684-1.19-.588c-.478.095-1.613.232-1.804.984s.478.725.738 1.094a1.01 1.01 0 0 0 1.367.342c.506-.287.862-.793 1.149-.82.287-.028.629 0 .642.464.014.465.492.97 1.367.903.875-.069 1.491-1.122 1.067-1.641-.424-.52-.834-.397-.82-.643.013-.246.3-.724 0-1.039-.301-.314-1.614.178-1.764.356M80.664 73.486h-3.937a.57.57 0 0 0-.315.41.74.74 0 0 0 .356.89c.478.273.765 0 1.025-.315.16.254.408.439.697.52h.082c-.096.232-.178.45-.273.67q.241.359.547.67a1.63 1.63 0 0 0 1.49.122 1.16 1.16 0 0 0 0-1.367c-.096-.192-.219-.355-.328-.533a7 7 0 0 0 .437-.903zM97.07 84.766a.736.736 0 0 0 .602-.916 1.3 1.3 0 0 0-.11-.301 1.15 1.15 0 0 0 .151-.793 1.66 1.66 0 0 0-1.135-1.368c.302-.198.514-.507.588-.86a1.54 1.54 0 0 0-.629-1.505v-.082a.67.67 0 0 0-.793-.601c-.765.136-1.216.52-1.216.998a.9.9 0 0 0-.206.355c-.045.385.037.774.233 1.108a.8.8 0 0 0-.342.123c-.506.328-.287.847-.205 1.367h.232a.9.9 0 0 0-.341.15c-.124.082-.287.287-.26.41q.117.6.314 1.176c-.56.793-.629 1.559-.15 1.9a1.61 1.61 0 0 0 1.9-.355c.397-.547.246-.889-.82-1.722.096-.15.191-.301.26-.438.204.294.489.521.82.656v.164c.055.301.725.63 1.108.534m-2.078-2.229a.8.8 0 0 0-.273-.15q.178.03.355 0a2 2 0 0 0-.068.177zM107.051 83.262c-.629.86-.274 1.927.478 1.968s1.08-.533 1.244-.465c.164.069.834.534 1.176 0 .738-1.025-.355-1.449-.232-1.818s.765-.847.998-1.367a1.258 1.258 0 0 0-.643-1.846 1.365 1.365 0 0 0-1.873.916c-.383 1.08.793 1.272.301 1.86-.492.587-.82-.11-1.449.752M88.744 74.184a.8.8 0 0 0-.383-.41 1.01 1.01 0 0 0-1.162.833.67.67 0 0 0 .52.78.83.83 0 0 0 1.025-.315 1 1 0 0 0 0-.095q.13.028.26 0c.164 0 .478-.178.437-.479a.49.49 0 0 0-.52-.37zM69.33 73.486a1.45 1.45 0 0 0 .246 1.121 1.12 1.12 0 0 0 1.463.438 1.82 1.82 0 0 0 1.053-.834 1.4 1.4 0 0 0 0 .465c.096.478.643.738 1.367.615.725-.123 1.026-.629.957-1.039a1.37 1.37 0 0 0-.41-.67l.11-.096zM59.2 105.082h-.247v.656h1.08a1 1 0 0 0-.834-.656M96.92 74.854a1.37 1.37 0 0 0 1.518.341h.136c-.192.285-.27.632-.218.971.095.492.642.738 1.367.615.724-.123 1.039-.629.97-1.039a1.37 1.37 0 0 0-.601-.834q.252-.287.424-.629c.123-.287-.246-.67-.602-.683-.355-.014-.683.123-.656.492q.04.294.137.574h-.233c.104-.203.156-.428.15-.656q.033-.232 0-.465h-2.734a1.75 1.75 0 0 0 .342 1.313M104.891 84.547a1.37 1.37 0 0 0-1.449-1.094c-.397.069-.698.711-.616 1.367a1.026 1.026 0 0 0 1.026.957 1.37 1.37 0 0 0 1.039-1.23M81.649 74.143a.81.81 0 0 0 .574-.657h-1.45q.013.181.096.342a.615.615 0 0 0 .78.315M98.287 98.123a.45.45 0 0 0-.096-.178 1.75 1.75 0 0 0-1.203-1.367 1.12 1.12 0 0 0-.67 0 1.15 1.15 0 0 0-.779-.164 1.49 1.49 0 0 0-1.23 1.45 2.04 2.04 0 0 0 1.544 1.367c.173.132.375.22.588.26a1.61 1.61 0 0 0 1.504-.643.78.78 0 0 0 .342-.725M117.92 83.03c.424 0 .561-.684.807-.971l-.123-.233a.74.74 0 0 0-.862-.164 1.03 1.03 0 0 0-.574.383c.219.287.328.998.752.984M116.416 81.676c-.082 0-.246.096-.232.219s.136.109.218.177c.082.069.178-.164.192-.246.013-.082-.151-.164-.178-.15M116.485 88.334a.9.9 0 0 0 .615.41c.342 0 .643-.533.478-.861-.164-.328-.369-.287-.464-.37-.534.137-.807.534-.629.821M116.744 89.373c-.41.164-.423.724-.41.998.014.273.397.424.725.355.328-.068.642-.464.465-.751-.178-.288-.37-.766-.78-.602M104.152 74.854c.096.355.301.601.643.574a4.84 4.84 0 0 0 2.229-.643q.024.227.136.424a.615.615 0 0 0 .78.314c.574-.191.615-.656.615-1.216-.342-.164-.629-.37-.916-.329.035-.162.035-.33 0-.492h-3.145a1.7 1.7 0 0 0-.342 1.367M116.58 104.686a.89.89 0 0 0-.711.902v.137h1.531a.9.9 0 0 0 .178-.452.804.804 0 0 0-.998-.587M110.223 105.383a.95.95 0 0 0-.479.342h1.736a1.05 1.05 0 0 0-1.257-.342M115.855 94.131a1.61 1.61 0 0 0 1.668 1.121 1.164 1.164 0 0 0 .698-1.258 1.153 1.153 0 0 0-1.368-1.011c-.642.136-1.121.683-.998 1.148M103.701 96.277a.807.807 0 0 0 .848.739.74.74 0 0 0 .505-.333.75.75 0 0 0 .097-.597.737.737 0 0 0-1.264-.29.74.74 0 0 0-.186.481M95.183 102.799c.301.109.985-.424.903-.725a.88.88 0 0 0-.56-.574.63.63 0 0 0-.849.506.68.68 0 0 0 .506.793M105.519 93.078c-.123-.615-.656-1.094-1.107-.998a1.71 1.71 0 0 0-1.08 1.805 1.097 1.097 0 0 0 1.367.588c.738-.137.984-.588.82-1.395M114.844 98.055c0-.643-.971-1.162-1.819-1.026a1.03 1.03 0 0 0-.744.437 1.03 1.03 0 0 0-.158.849 1.25 1.25 0 0 0 .524.928 1.25 1.25 0 0 0 1.048.193 1.37 1.37 0 0 0 1.149-1.381M115.227 75.524c-.164 0-.616.136-.602.492.014.355.52.396.684.355.164-.04.492-.177.437-.478a.495.495 0 0 0-.519-.37M113.476 103.045c-.15 0-.287.369-.3.574q.016.614.136 1.217c0 .356.287.451.657.369 0-.095.205-.219.205-.314a1.7 1.7 0 0 1 .259-.985c.082-.15-.082-.56-.259-.697a.9.9 0 0 0-.698-.164M115.391 102.184c0 .478.738.793 1.367.67a.58.58 0 0 0 .43-.257.6.6 0 0 0 .076-.495c0-.575-.575-1.081-.998-.998s-.93.683-.875 1.08M101.172 86.133c.068 0 .205-.137.205-.205a.25.25 0 0 0-.151-.233.245.245 0 0 0-.273.206c-.027.15.123.232.219.232M81.198 105.273a1.55 1.55 0 0 0-.916.315.2.2 0 0 0 0-.082.408.408 0 0 0-.506-.096.46.46 0 0 0-.178.315h2.228a.965.965 0 0 0-.629-.452M89.059 104.727a.75.75 0 0 0-.725.068 1.5 1.5 0 0 0-.246.519.84.84 0 0 0-.601.397h1.927a.78.78 0 0 0-.355-.984M84.684 99.518a1.14 1.14 0 0 0-.616-.383c-.314 0-.806.52-.834.929a.546.546 0 0 0 .383.561 1.37 1.37 0 0 0 1.244 1.08c.479-.082.766-.684.711-1.449a.97.97 0 0 0-.889-.738"/><path fill="#1BA9F5" d="M66.815 105.123s-.123.082-.178.082a.43.43 0 0 1-.397-.137.9.9 0 0 0 .26-.246q.315.091.643.096c.574 0 .97.451 1.504.232.519-.217.958-.59 1.257-1.066a.74.74 0 0 0 .315-.246.88.88 0 0 0 0-.957v-.151a2.3 2.3 0 0 0-.164-.656 1.06 1.06 0 0 0-.574-.752.9.9 0 0 0 .246-.424q.246.268.533.492a1.2 1.2 0 0 0 1.203.397c.038.158.107.307.205.437a1.09 1.09 0 0 0-.714.736 1.08 1.08 0 0 0 .222 1.001c.291.319.622.599.984.834a1.02 1.02 0 0 0-.656-.11.82.82 0 0 0-.41.588 1.15 1.15 0 0 0-.451.397h5.824a1.5 1.5 0 0 1 .397-.164.84.84 0 0 0 .533-.533.6.6 0 0 0 .46-.038.59.59 0 0 0 .292-.359.97.97 0 0 0 .629-1.121q.163.08.341.109c.274.047.555.008.807-.109a1 1 0 0 0 .615.547.75.75 0 0 0 .493-.11c.266.202.596.299.93.274a1.4 1.4 0 0 0 0 .342l1.216 1.162h2.926a.74.74 0 0 0 .273-.738c-.205-.561-.314-1.217-1.08-1.368a1.27 1.27 0 0 1-.943-.724 1.22 1.22 0 0 0-.807-.547q.093-.167.123-.356c.096-.711 0-1.162-.451-1.23a1.36 1.36 0 0 0-1.258.902c0 .328.287.752.684.93l-.192.287c-.205-.492-.547-.766-.916-.711a.68.68 0 0 0 .342-.301c0-.164-.068-.752-.287-.793s-.602.356-.602.493c0 .136.11.601.274.669h.123a1 1 0 0 0-.424.383.6.6 0 0 0-.3-.027v-.191a1.45 1.45 0 0 0-1.177-1.504 1.18 1.18 0 0 0-.94.174 1.19 1.19 0 0 0-.509.81.9.9 0 0 0-.437 0 .9.9 0 0 0-.578.408.9.9 0 0 0-.106.699.74.74 0 0 0-.41.78.8.8 0 0 0 .164.314 1 1 0 0 0-.26 0 2.3 2.3 0 0 1-.888.178h-.137a2.74 2.74 0 0 0 1.271-2.639 1.04 1.04 0 0 0-.629-.615v-.15a.74.74 0 0 0-.533-.602c0-.178.15-.396.22-.629q.06.01.122 0a1.55 1.55 0 0 0 .985-.806c-.02.239.003.48.068.71-.3.438-.465.821-.082 1.258a.63.63 0 0 0 .695.271.6.6 0 0 0 .234-.12q.216-.172.356-.411c.375.04.75-.063 1.053-.287l.191.082.082-.068c.175.048.359.048.533 0a.57.57 0 0 0 .348-.346.57.57 0 0 0-.047-.488 2.1 2.1 0 0 0-.314-.533 2 2 0 0 0-.082-.246 1 1 0 0 0 0-.205 2.27 2.27 0 0 0 .902-1.805.6.6 0 0 0-.068-.437.67.67 0 0 0-.37-.315 3.6 3.6 0 0 0-1.23-.615 2 2 0 0 1 0-.41v-.123a.85.85 0 0 0 .506-.465.453.453 0 0 0-.465-.656h-.11a.9.9 0 0 0 0-.835c.157-.294.191-.637.096-.956-.123-.616-.656-1.094-1.12-.999a1.72 1.72 0 0 0-1.08 1.791c-.192 0-.356 0-.288-.218.069-.219 0-.711-.875-1.026h-.219c-.191-.67-.656-1.367-1.107-1.449a.33.33 0 0 0-.205 0 .82.82 0 0 1-.984 0 .9.9 0 0 0-.493-.355.8.8 0 0 0-.342 0 .73.73 0 0 0-.67.423 2 2 0 0 0-.86-.164.4.4 0 0 0 .081-.191c-.082-.246-.328-.684-.533-.643a.78.78 0 0 0-.533.52v.082a1.76 1.76 0 0 0-1.367.191 1.8 1.8 0 0 0-.287-.26 2.6 2.6 0 0 1-.67-.888.6.6 0 0 0 0-.273.7.7 0 0 0 .15-.356 1 1 0 0 0 0-.287 1.37 1.37 0 0 0 1.217.478c.159.169.363.287.588.342.238.055.486.055.724 0 .226.291.553.487.916.547h.301q.463-.468.834-1.012a.72.72 0 0 0-.137-.642c-.1-.122-.226-.22-.369-.287a.63.63 0 0 0 .164-.862.9.9 0 0 0-.205-.246c.15.1.317.174.492.219.017.183.073.36.164.52a.7.7 0 0 0-.109.273.916.916 0 0 0 .752.97.74.74 0 0 0 .793-.573c.15 0 .26 0 .287.136.027.137-.437 1.053 0 1.695a1.285 1.285 0 0 0 1.627.356q.171.03.342 0a.48.48 0 0 0 .52.11h.109a.876.876 0 0 0 .533.997c.916.424 1.367-.123 1.367-.41a.7.7 0 0 1 .178-.219q.26.034.52 0c0 .329.314.616 1.148.643a1.287 1.287 0 0 0 1.517-1.162 1.79 1.79 0 0 0-.915-1.805 2 2 0 0 0-.315-.806l-.096-.602a.34.34 0 0 0 .137-.191c0-.192-.178-.383-.314-.424h-.178c-.205-.356-.41-.711-.602-1.067l.534-.396c.258-.031.505-.12.724-.26l.191-.15h.192c.178.15.396.26.588.396a1.93 1.93 0 0 0-.547 1.368.66.66 0 0 0 .37.505v.547a1.26 1.26 0 0 0 .901 1.367 1 1 0 0 0 .465 0h.205c.329 0 .657-.437.711-.97.287.023.574-.029.834-.15a.61.61 0 0 0 .205-.63.78.78 0 0 0-.697-.533.88.88 0 0 0-.602.424.74.74 0 0 0-.382-.3v-.151a.72.72 0 0 0 0-.67 1.11 1.11 0 0 0-1.162-.93c.22-.148.389-.364.478-.615.171.085.357.136.547.15q.172.08.355.123c.155.185.359.323.588.397.315.082.889-.547.698-1.135a.7.7 0 0 0-.247-.3 1.1 1.1 0 0 0-.766-1.024 1.1 1.1 0 0 0-.45-.043c.123-.37.765-.848.984-1.367a2 2 0 0 0 0-.246c.216-.01.432.032.629.123q.586.333 1.135.724a1.5 1.5 0 0 0 0 .246 1.16 1.16 0 0 0-.63 1.217 1.1 1.1 0 0 0-.368-.191.42.42 0 0 0-.37.26c0 .136.206.328.342.396a.48.48 0 0 0 .451-.164c.061.39.206.764.424 1.094a1.435 1.435 0 0 0-.724 1.627 1.025 1.025 0 0 0 1.135.834c.266.014.53-.058.752-.205.123.396.218.793.314 1.19a1.37 1.37 0 0 0-.902-.247 1.37 1.37 0 0 0-.752 1.367q.038.075.068.15a.7.7 0 0 0-.205-.19 1.68 1.68 0 0 0-1.764-.179 1.18 1.18 0 0 0-.601 1.204.5.5 0 0 0-.246 0 .74.74 0 0 0-.547.875.683.683 0 0 0 .793.642.79.79 0 0 0 .615-.451.8.8 0 0 0 .355.123 1.83 1.83 0 0 0 1.573-.082q.135-.336.232-.684a1.56 1.56 0 0 0-.082-.943.9.9 0 0 0 .67.3q.263-.04.506-.15a1.204 1.204 0 0 0 1.039 1.026c.348.14.66.355.916.629a.71.71 0 0 0 .656.547l.123.082-.246.164c-.424.26-.232.875-.793.697a2.2 2.2 0 0 0-1.367 0 1.27 1.27 0 0 0-1.299-.684 1.6 1.6 0 0 0-.506 0 3 3 0 0 0-.3.096v.082l-.165.383a1.6 1.6 0 0 0-.423 1.19.7.7 0 0 0 0 .163.82.82 0 0 0-.711.206 1.04 1.04 0 0 0-.698-.438h-.205a1.15 1.15 0 0 0-.424-.78h-.109a.6.6 0 0 0 .205-.341c.034-.33-.054-.66-.246-.93-.26-.3-.629-.164-.916.11-.287.273-.451.396-.683.588-.22.375-.306.813-.247 1.244a2.23 2.23 0 0 0 .41 1.681c.452.424 1.108 0 1.258.123s0 1.094.602 1.6a1.86 1.86 0 0 0 2.133-.178c.351-.309.576-.738.629-1.203-.001-.334-.106-.659-.301-.93v-.191c.307.217.677.327 1.053.314a1.16 1.16 0 0 0 .86-.56c.116.12.256.213.411.273a1.49 1.49 0 0 0-.752 1.121c-.017.203.021.406.11.588a1.7 1.7 0 0 0-.588 0 1.052 1.052 0 0 0-.903 1.285.7.7 0 0 0 .069.178 1 1 0 0 0-.233-.205c-.328-.178-.752-.451-1.052-.082a1.92 1.92 0 0 1-1.45.629.63.63 0 0 0-.615.807.5.5 0 0 0 0 .123 1.43 1.43 0 0 0-.67.109c-.338.228-.6.552-.752.93-.205.437.15.902.766.97.368.072.75.014 1.08-.164.239-.366.406-.774.492-1.203a.97.97 0 0 0 .889-.232c.202.033.396.102.574.205a1.26 1.26 0 0 0 1.367-.533c.078-.24.078-.499 0-.739.222.21.515.327.82.328a1.15 1.15 0 0 0-.123.93 1.29 1.29 0 0 0-.779.862c0 .41.602 1.066 1.08 1.134a.73.73 0 0 0 .766-.422.7.7 0 0 0 .068-.302q.01-.157 0-.315.253.108.52.164c.237.026.46.132.629.301a.63.63 0 0 0-.082.369c0 .438.628.725 1.244.684a1.52 1.52 0 0 0 1.23 1.668c.766.205 1.176-.11 1.518-1.08.427-.118.84-.283 1.23-.492a.906.906 0 0 0 .26-1.245c-.37-.45-.793-.86-1.217-1.367a1.5 1.5 0 0 0 .082-.574.6.6 0 0 0 .492-.602.67.67 0 0 0-.355-.533.82.82 0 0 0-.725.123.49.49 0 0 0-.164.52c-.328.11-.383.82-.916.451a7.4 7.4 0 0 0 .192-1.053 1.03 1.03 0 0 0-.643-.93c-.383-.218-.642.083-.902.26a1.1 1.1 0 0 0-.424.547.5.5 0 0 0-.137-.082.63.63 0 0 0-.916.3 3 3 0 0 0-.369-.122h-.191a1.1 1.1 0 0 0 .136-.629v-.082a1.27 1.27 0 0 0 1.367-1.012 1.6 1.6 0 0 0-.177-.697q.143.021.287 0a1.135 1.135 0 0 0 .834-1.025c-.013.244.015.489.082.724.058.156.152.297.273.41-.07.287-.047.59.069.862.218.533 1.162.574 1.914.287a1 1 0 0 0 .3-.233h.069c.738-.232.71-1.175.916-1.271.205-.096 1.19.67 2.092.355a2.3 2.3 0 0 0 1.148-2.392c-.1-.44-.306-.849-.601-1.19.15-.164.26-.341.246-.41s-.315-.67-.52-.642a.75.75 0 0 0-.533.52v.081a1.71 1.71 0 0 0-1.49.233c-.438-.22-.82-.506-1.203-.096a.79.79 0 0 0-.11 1.039.62.62 0 0 0 .547.355c-.096.22-.178.37-.273.397s-1.012-.629-1.805-.465c0 0 0-.082.096-.137a1.45 1.45 0 0 0 0-1.367 1.37 1.37 0 0 0 .369-1.162c.153.083.32.139.492.164.629.096.984 0 1.094-.465q.114-.109.191-.246a1.53 1.53 0 0 0 1.914 0 3 3 0 0 1 .451-.232c.602.082.862-.15.985-.493.123-.341-.082-.656-.383-.888-.3-.233-.643-.506-.97-.738-.329-.233-.725-.547-1.245-.301a.6.6 0 0 1-.451 0c-1.012-.492-1.367-.41-1.791.52-.192.396-.15.806.26.984 0 0 .082 0 .136.082a.4.4 0 0 0-.123 0 1.75 1.75 0 0 0-.806.875v.095a4.5 4.5 0 0 0-.82-.396.7.7 0 0 0 0-.164l-.124-.205c.123 0 .274-.178.178-.793q-.045-.222-.15-.424a.615.615 0 0 0 .136-.67c-.095-.191-.355-.3-.464-.369a.98.98 0 0 0-.588.383 1.1 1.1 0 0 0-.52 0q.03-.362 0-.725a1.8 1.8 0 0 0-.205-.683c-.096-.22-.219-.438-.328-.643-.397-.697-.861-.916-1.45-.684a1.1 1.1 0 0 0-.355.233v-.069c.302-.2.555-.466.739-.779h.082a1.08 1.08 0 0 0 1.025-1.476 8.5 8.5 0 0 0-1.053-1.668q.13-.251.219-.52a1.59 1.59 0 0 0 1.709.588h.191a1.3 1.3 0 0 0-.191.26c-.082 0-.205.096-.205.191a.2.2 0 0 0 0 .096 1.4 1.4 0 0 0-.096.642c0 .438.643.766 1.217.684.238-.034.459-.144.629-.314.355-.096.506-.67.724-.93l-.109-.232a.9.9 0 0 0-.424-.22.93.93 0 0 0-.902-.642h-.164a1.57 1.57 0 0 0 .123-1.805 2.12 2.12 0 0 0 1.709-.505 1.24 1.24 0 0 0 .889-.848 1.37 1.37 0 0 0-1.012-1.367.6.6 0 0 0-.342 0 .92.92 0 0 1-.328-.916c.096-.451-.328-.63-.766-.67-.45.383-.492.806-.136 1.162a7.7 7.7 0 0 0-.848 1.217 1.77 1.77 0 0 0 .26 1.463 2.15 2.15 0 0 0-2.106.642.2.2 0 0 0 0-.096 1.71 1.71 0 0 0-1.531-.546 2.46 2.46 0 0 0-.137-1.614 1.63 1.63 0 0 0-.71-.82 1 1 0 0 0-.247-.11 1.09 1.09 0 0 0-.724-1.203l.41-.136h-1.791l.191.191a1.56 1.56 0 0 0-.533 1.285.8.8 0 0 0-.356.178q-.132.12-.246.26a.33.33 0 0 0-.191 0 .74.74 0 0 0-.56.861.66.66 0 0 0 .122.451c-.097.462-.04.942.165 1.368q.117.283.314.52c-.31.192-.542.487-.656.833a1.02 1.02 0 0 0 0 .82 1 1 0 0 0-.178.15.67.67 0 0 0-.506-.136.66.66 0 0 0-.52.465c-.6-.096-1.27 0-1.367-.178-.095-.178 0-.451 0-.847a.86.86 0 0 0 .848.574.696.696 0 0 0 .67-.78 1.04 1.04 0 0 0-.41-.751c-.52-.247-.848 0-1.135.45a1.18 1.18 0 0 0-.328-.724c.169-.195.295-.423.37-.67-.302-.574-.67-1.367-1.081-2.092 0-.082-.314-.123-.465-.095a1.55 1.55 0 0 1-1.19-.274.86.86 0 0 0-1.284.52 1.23 1.23 0 0 0-.903-.328.7.7 0 0 0-.574.847 1.04 1.04 0 0 0 1.053.944.85.85 0 0 0 .547-.274q.06.127.136.246a1.23 1.23 0 0 0-.683.63.79.79 0 0 0-.752-.725c-.588 0-1.463.86-1.367 1.189q.022.08.082.137a1.78 1.78 0 0 0-.793 1.586 4 4 0 0 0-.493-.37.96.96 0 0 1-.519-.546 1.77 1.77 0 0 0 1.107-1.545 1.23 1.23 0 0 0-1.367-.889q-.18.047-.342.137a1.67 1.67 0 0 0-.683-.875.82.82 0 0 0-.274-.424.9.9 0 0 0 .274-.26.37.37 0 0 0-.41-.533c-.246 0-.889.15-.93.451-.041.3.068.192.164.274a.87.87 0 0 0-.397.779l-.19.205h-.425a1.2 1.2 0 0 0-.574-.67c.185-.14.32-.337.383-.56a.79.79 0 0 0 .602-.602.93.93 0 0 0-.41-.861.4.4 0 0 0 0-.123h-6.563a.57.57 0 0 0 .246.41.7.7 0 0 0-.219.656.78.78 0 0 0 .608.723.8.8 0 0 0 .335.002.7.7 0 0 0 .274-.124h.15c.657.096 1.367-.642 1.532-1.517V73.5c.09.136.212.249.355.328a3 3 0 0 0-.437.67 1.82 1.82 0 0 0 .26 1.463 1.7 1.7 0 0 0-1.012 0 1.64 1.64 0 0 0-1.08.629l-.055-.028a1.67 1.67 0 0 0-1.518-.546 2.43 2.43 0 0 0-.15-1.628 1.68 1.68 0 0 0-.711-.82h-.602v5.291l.52.315a1 1 0 0 0-.26.738.58.58 0 0 0 .219.3.5.5 0 0 1-.096.138l-.383-.137v19.865a1.53 1.53 0 0 0 .342-1.203.74.74 0 0 0-.205-.397 1.37 1.37 0 0 0 .438-.97.92.92 0 0 0 .464-.438 1.48 1.48 0 0 0-.26-1.12h.124c.588-.151.547-.712.656-1.245a1.9 1.9 0 0 0-.957-.383c.147-.168.25-.37.3-.588a1.57 1.57 0 0 0-.532-1.271v-.096c.208-.106.383-.266.505-.465.343-.025.669-.16.93-.383a1.37 1.37 0 0 0 .848 1.053 1.5 1.5 0 0 0-.752 1.121 1.53 1.53 0 0 0 1.367 1.504 1.26 1.26 0 0 0 1.367-1.012 1.1 1.1 0 0 0 0-.45 1.37 1.37 0 0 0 1.121-.548c.057.154.145.294.26.41a1.37 1.37 0 0 0 0 .725 1.03 1.03 0 0 0-.67.78l-.137.109a.96.96 0 0 0-.369.41.3.3 0 0 0 0-.096.615.615 0 0 0-.847 0 .78.78 0 0 0-.301.451l-.26-.082a1.37 1.37 0 0 0-1.518.684c-.163.25-.24.549-.218.848a.8.8 0 0 0-.082.232 1.23 1.23 0 0 0-.643.793c0 .41.602 1.066 1.08 1.135a.726.726 0 0 0 .834-.725q.009-.158 0-.314l.424.136a1.6 1.6 0 0 0-.273.684 1.4 1.4 0 0 0 0 .52 2.09 2.09 0 0 0-1.97 0c-.14.116-.248.267-.314.437a.87.87 0 0 0-.629-.137h-.082v1.504a.8.8 0 0 0 .452 0 1 1 0 0 0 .273-.123c.219.438.478.78.164 1.367a1.26 1.26 0 0 0-.902-.902v2.352c.125.024.255.02.378-.012a.87.87 0 0 0 .574-.467.9.9 0 0 0 .087-.369q.155.133.342.219c.574-.219.738-.602.52-1.053a7.7 7.7 0 0 0 1.202-.875 1.8 1.8 0 0 0 .246-1.463c.27.211.601.33.944.342.298.028.6 0 .888-.082.117.324.35.593.657.752a1.62 1.62 0 0 0-1.04.943.67.67 0 0 0 .124.766 2.2 2.2 0 0 0-.438 1.463 6 6 0 0 0-.957.177l-.164.096a.8.8 0 0 0-.33.046.8.8 0 0 0-.285.173 1.12 1.12 0 0 0-.602-.192.9.9 0 0 0-.752.725h4.156l-.082-.082a1 1 0 0 0-.205-.082c0-.082 0-.178.096-.287q.335.197.629.451h2.857c-.04-.301-.41-.519-1.011-.451m6.316-7.78v.137c-.486.121-.91.419-1.19.834-.187.343-.277.73-.26 1.121-.19-.246-.368-.505-.546-.765a.78.78 0 0 0 .424-.492.97.97 0 0 0 0-.547.6.6 0 0 0 .096-.096.74.74 0 0 0 .341-.752q.156.083.329.11c.246 0 .656-.288.93-.63h.095a1.37 1.37 0 0 0-.219 1.08m.465-3.199h.615a.7.7 0 0 0 .356-.082q.179.15.383.26c.943.479 1.367 0 1.94.397-.396.656-.273 1.134.425 1.709l.615.642a1.37 1.37 0 0 0-.834.82 1.5 1.5 0 0 0-.397-.82.5.5 0 0 0 0-.136 1.23 1.23 0 0 0-1.066-.917 1.37 1.37 0 0 0-1.148-.437q-.225.066-.438.164c.058-.224.058-.46 0-.684a1.04 1.04 0 0 0-.492-.697.7.7 0 0 0 .041-.219m-4.02-.506c.229.06.47.06.698 0 .44-.198.783-.561.957-1.011.207.049.422.049.629 0a1.18 1.18 0 0 0 .93-.82.92.92 0 0 0 .697.533c-.266.145-.56.233-.862.26-.205 0-.465.314-.56.533q-.136.345-.315.67a1.36 1.36 0 0 0-1.094-.315.6.6 0 0 0-.396.52.78.78 0 0 0 .478.724.77.77 0 0 0 .684-.177.9.9 0 0 0 .178.656.7.7 0 0 0-.178.396v.096a1.53 1.53 0 0 0-.738-.492 1.16 1.16 0 0 0-.684.082 1.2 1.2 0 0 0-.465-.15q.093-.22.137-.452a1.01 1.01 0 0 0-.287-.847q.105-.094.191-.206m21.014 4.8.533.218-.383.3h-.109q-.03-.287 0-.573zM77.287 84.354q.144.03.287 0c.325-.073.612-.263.807-.533.19.18.42.31.67.383-1.627.78-1.9 1.75-.861 2.734-.15.178-.328.78-.752.602s-.547-.424-.834-.547c-.342-.356-.93-.26-1.026-.383q-.045-.287 0-.574.28.04.56 0a1.37 1.37 0 0 0 1.15-1.695zm-1.093-4.785a3 3 0 0 0 0 .328 1.2 1.2 0 0 0-.246-.314q.124.001.246-.028zm-1.477-1.025a1.37 1.37 0 0 0 .629.875.85.85 0 0 0-.479.246 2.16 2.16 0 0 0-.396-.861.74.74 0 0 0 .246-.274zm-5.988 3.732q.129-.031.246-.096c.217.267.507.467.834.575q-.03.15 0 .3c.137.711.437 1.067.834 1.012a1.27 1.27 0 0 0 .888-1.258.5.5 0 0 0-.15-.273c.298-.019.58-.134.807-.328.14.237.357.42.615.52a.74.74 0 0 0 .451 0c.24.107.504.15.766.122a1.133 1.133 0 0 0 1.053-1.257 1.27 1.27 0 0 0 1.216-.534c0 .082 0 .15.11.22q.133.152.314.245a5.3 5.3 0 0 0-.752.903c-.342-.165-.752-.356-1.12.095q-.016.24 0 .479a1.67 1.67 0 0 0-.657 1.367h-.342a1.284 1.284 0 0 0-1.38-1.148 1.56 1.56 0 0 0-1.245 1.667c.08.374.287.708.588.944a.615.615 0 0 0-.807 0q-.12.14-.273.246c-.246-.191-.492-.397-.752-.574a2.7 2.7 0 0 0-.424-.26 1.28 1.28 0 0 0-.41-.752q.198-.11.342-.287c.41-.547.246-.902-.82-1.723zm-7.697 8.408v-.191a1 1 0 0 0-.11-.15h.178a.56.56 0 0 1 .3.123.9.9 0 0 0-.368.205zm3.418 6.836h-.11a2.5 2.5 0 0 1-.082-.45l.52.204zm3.609 2.625a.9.9 0 0 0 .26-1.244c-.178-.205-.356-.41-.547-.601a1.26 1.26 0 0 0 .724-.916v-.069q.232.208.506.356c-.023.14.001.285.069.41.382.437.082.738 0 1.121-.017.3.034.599.15.875a.61.61 0 0 0-.55.04.62.62 0 0 0-.298.466.67.67 0 0 0 0 .437 2.9 2.9 0 0 1-1.08.192 1.6 1.6 0 0 0-.3-.041.73.73 0 0 0 0-.602 5.2 5.2 0 0 0 1.066-.383zm-.738-15.353q.072-.207.095-.424.036.089.11.15a2 2 0 0 0-.192.274zm-2.489-4.266a1.094 1.094 0 0 0 .903-1.367c-.082-.56-.588-1.053-1.012-.97h-.082a1.57 1.57 0 0 0 .26-1.245 1.1 1.1 0 0 0-.192-.478c.19.034.385.034.574 0a1.1 1.1 0 0 0 0 .287 1.04 1.04 0 0 0 .698.752c.205.547.465 1.066.71 1.627-.437.656-.423.724.301 1.244.26 0 .479-.356.725-.328v.11h-.11c-.355.108-.738.245-.67.628a1.17 1.17 0 0 0 .507.82q.034.175.123.328c0 .233.136.479.205.725a2.7 2.7 0 0 0-.383.848q-.152-.301-.383-.547a.98.98 0 0 0-.615-.574 1.9 1.9 0 0 0-.875-.383.9.9 0 0 0-.342 0 1.26 1.26 0 0 0-.492-.315.5.5 0 0 0-.15 0c.097-.26.097-.546 0-.806a.57.57 0 0 0-.233-.22q.278-.023.533-.136m-2.215 1.367a1.4 1.4 0 0 0-.328 0c-.24.003-.476.069-.683.192q.128-.137.218-.301h.083a1.08 1.08 0 0 0 .984-1.463 5 5 0 0 0-.684-1.135.8.8 0 0 0 .246 0h.15a1.46 1.46 0 0 0 1.067 1.504c-.191 0-.383.164-.588.246v.246a.71.71 0 0 0-.465.752zm.944 7.89a.5.5 0 0 0-.15-.22 1.56 1.56 0 0 1-.424-.656.71.71 0 0 0 .656.547q.064.048.136.082zm2.27 7.286a.44.44 0 0 1-.329-.095l.123-.643q.151.032.301 0-.085.135-.137.287a.93.93 0 0 0 .041.451m-.206-9.98h-.177v-.082a.67.67 0 0 0-.329-.22 1.15 1.15 0 0 0 0-.655 1.37 1.37 0 0 0-1.23-1.094c.164-.178.314-.314.41-.314s.875 1.134 1.832 1.052h.15a.6.6 0 0 0 0 .274c.047.282.16.549.329.779a2 2 0 0 0-.274.205 1.2 1.2 0 0 0-.71.055"/><path fill="#1BA9F5" d="M89.455 82.605a.767.767 0 0 0-.547.971.75.75 0 0 0 .711.643.97.97 0 0 0 .602.875c.27.06.55.06.82 0a.81.81 0 0 0 .944.369c.273-.069.328-.615.136-.916a.52.52 0 0 0-.328-.178 1.37 1.37 0 0 0-.902-1.23.87.87 0 0 0-.547.082v-.082a.765.765 0 0 0-.889-.534M62.973 104.713c.219-.574.328-1.067-.192-1.367a.75.75 0 0 0-.724 0 1.2 1.2 0 0 0-.274.902c.15.67.684.465 1.19.465M87.897 101.76h-.069a1.83 1.83 0 0 0-1.695.082.93.93 0 0 0 0 1.148 1 1 0 0 0 .37.383.71.71 0 0 0 .56.465h.164c.15.057.315.057.465 0 0-.082.205-.205.191-.301v-.096q.163-.217.3-.451c0-.082-.081-.123-.122-.191q.075-.155.164-.301c.014-.191-.164-.588-.328-.738M92.08 104.248a1.1 1.1 0 0 0-.385-.206 1.1 1.1 0 0 0-.435-.04.5.5 0 0 0 0-.137.793.793 0 0 0-.957-.56.9.9 0 0 0-.725.888c.092.265.27.492.506.643-.16.271-.258.575-.287.889h2.857a1.37 1.37 0 0 0-.574-1.477M70.602 105.383a.69.69 0 0 0-.15-.615c-.397-.301-.766-.151-1.108.246.033.257.132.502.287.711h.711q.157-.15.26-.342M105.013 104.809c-.095-.684-.41-.889-1.175-.78-.766.11-1.067.493-.985.985q.062.172.178.314a.5.5 0 0 0-.082.164.7.7 0 0 0 0 .233h1.846a1.182 1.182 0 0 0 .218-.916M122.076 105.109c.192.137.67-.109 1.012-.232a.3.3 0 0 0 .266-.275.3.3 0 0 0-.02-.135.97.97 0 0 0-1.094-.52.695.695 0 0 0-.164 1.162M122.924 95.293c-.096 0-.41.178-.383.396.028.22.424.247.574.233a.43.43 0 0 0 .274-.356c-.027-.15-.342-.26-.465-.273M115.199 74.252c.328.123 1.121-.314 1.08-.725h-1.435a.84.84 0 0 0 .355.725M124.838 94.336c-.15 0-.383.219-.356.41.028.192.288.315.438.315s.519-.233.478-.424c-.041-.192-.437-.301-.56-.301M119.246 89.496c0 .137-.314.37-.314.602a.868.868 0 0 0 .483.933.856.856 0 0 0 1.025-.228.86.86 0 0 0 .187-.705c-.068-.397-.656-.698-1.381-.602M123.976 85.258a.68.68 0 0 0-.806-.615c-.493.095-.998.629-.93.97.068.342.738.63 1.135.561a.735.735 0 0 0 .615-.61.7.7 0 0 0-.014-.306M120.627 74.963a.5.5 0 0 0 .232-.424.54.54 0 0 0-.437-.3c-.123 0-.451.177-.369.505s.437.26.574.219M110.181 102.047c.657 0 1.081-.219 1.094-.533s-.56-.957-.929-.985c-.37-.027-.807.506-.834.916-.028.41.259.602.669.602M98.438 94.5q-.226.534-.534 1.025a.96.96 0 0 0 .288 1.272c.574.356.998.328 1.367-.219q.262-.503.396-1.053h.615a.81.81 0 0 0 .793-.546 1.15 1.15 0 0 0-.369-1.176.8.8 0 0 0-.615-.287 1.063 1.063 0 0 0 .301-1.012.66.66 0 0 0-.533-.52c-.15-.505-.602-1.134-.93-1.162-.328-.027-1.08.575-1.176 1.258a.835.835 0 0 0 .397.889c-.137 0-.301.219-.287.383.013.164.3.314.437.3.137-.013.52-.218.492-.41a.5.5 0 0 0 0-.109.88.88 0 0 0 .698.533 2.3 2.3 0 0 1-.862.26c-.177.055-.478.41-.478.574M99.19 104.07c1.093-.328 1.161-.683 1.079-1.791a1.27 1.27 0 0 0-1.044-1.019 1.3 1.3 0 0 0-.514.021 1.64 1.64 0 0 0-.944 1.942 1.11 1.11 0 0 0 .96.891c.156.018.313.003.462-.044M106.367 101.541a.61.61 0 0 0 .349-.353.6.6 0 0 0-.034-.495c-.26-.601-.616-.93-.916-.82a1.37 1.37 0 0 0-.493 1.299 1.12 1.12 0 0 0 1.094.369M100.584 99.928a1.543 1.543 0 0 0 1.668.97 1.627 1.627 0 0 0 1.19-1.626 1.574 1.574 0 0 0-1.121-1.258 1.55 1.55 0 0 0-1.573-1.094 1.53 1.53 0 0 0-1.367 1.805 1.19 1.19 0 0 0 1.149 1.025q.017.091.054.178M98.698 88.334a.93.93 0 0 0 .765.957.724.724 0 0 0 .807-.615.8.8 0 0 0 .021-.335.814.814 0 0 0-.664-.677.89.89 0 0 0-.93.67M94.336 77.602a.944.944 0 0 0 1.052.615.82.82 0 0 0 .616-.944.9.9 0 0 0-.274-.437 1 1 0 0 0 .178-.287c.082-.287 0-.602-.41-.547s-.903.15-.93.451a.32.32 0 0 0 .164.274.85.85 0 0 0-.396.875M94.336 73.582l.11-.096h-.616a.5.5 0 0 0 .506.096M99.19 87.5a1.37 1.37 0 0 0 1.079-1.695c-.191-.93-.779-1.368-1.586-1.258a1.573 1.573 0 0 0-1.244 1.668 1.6 1.6 0 0 0 1.75 1.285M107.119 97.467c-.273-.479-.724-.397-1.134-.164a.87.87 0 0 0 .615 1.23c.41-.26.806-.546.519-1.066M103.756 77.78c-.588.122-.93.505-.903.929a1.2 1.2 0 0 0-.533-.191 1.27 1.27 0 0 0-1.367 1.162 1.37 1.37 0 0 0 1.148 1.285c.67.082 1.135-.356 1.217-1.121a1.5 1.5 0 0 0 0-.356 1.37 1.37 0 0 0 1.135.424 1.19 1.19 0 0 0 .615-1.367.99.99 0 0 0-.479-.686 1 1 0 0 0-.833-.08M114.994 85.545a.49.49 0 0 0-.725-.37c-.232.097-.847.384-.724.725.123.342.752.493 1.011.465.26-.027.534-.41.438-.82M113.121 90.234c.766-.123 1.367-.642 1.217-1.162a1.37 1.37 0 0 0-1.367-.875 1.27 1.27 0 0 0-.752 1.367.97.97 0 0 0 .902.67M113.559 83.576c.656-.11 1.23-.78 1.121-1.367a1.37 1.37 0 0 0-1.367-1.026c-.438 0-.862.82-.78 1.368a.96.96 0 0 0 1.026 1.025M112.916 95.621c.78 0 1.258-.902 1.135-1.928a1.37 1.37 0 0 0-1.449-1.148 1.724 1.724 0 0 0-1.463 1.79 1.806 1.806 0 0 0 1.777 1.286M108.227 105.601a.917.917 0 0 0 .615-.97c-.178-.752-.602-1.176-1.08-1.121a.7.7 0 0 0 .342-.301c.068-.151 0-.752-.274-.793-.273-.041-.601.355-.615.492s.109.615.287.67a.17.17 0 0 0 .109 0 1.37 1.37 0 0 0-.697 1.367 1.36 1.36 0 0 0 1.313.656M108.951 94.787a.81.81 0 0 0-.615-.656c.082-.287-.15-.547-.533-.643a.48.48 0 0 0-.643.465c0 .246.164.848.369.916a.5.5 0 0 0 0 .15.794.794 0 0 0 .957.588c.438-.123.534-.424.465-.82M109.676 92.094a.75.75 0 0 0 .671-.566.7.7 0 0 0 .012-.31.82.82 0 0 0-.929-.642.764.764 0 0 0-.547.875q.007.145.073.277a.67.67 0 0 0 .434.352q.142.037.286.014"/><path fill="#343741" d="M90.658 102.457V78.682l11.881 11.88z"/><path fill="#343741" d="M92.49 94.842v-8.559H33.824v8.559zM63.205 69.645V45.869L75.1 57.75z"/><path fill="#343741" d="M65.051 62.043v-8.559H33.838v8.56zM63.205 133.465v-23.776L75.1 121.584z"/><path fill="#343741" d="M65.051 125.863v-8.558H33.838v8.558z"/></svg>