<svg xmlns="http://www.w3.org/2000/svg" width="40" height="40" fill="none"><path fill="#00BFB3" d="m6.627 8.395 8.244 8.042 1.746-1.79-8.244-8.042zM32.351 7.768l-9.026 7.117 1.547 1.963L33.9 9.732zM27.899 30.533l-4.375-6.25-2.048 1.434 4.375 6.25zM7.913 25.555l6.494-2.273-.825-2.36-6.495 2.273z"/><path fill="#545966" d="M20 27.5a7.5 7.5 0 1 0 0-15 7.5 7.5 0 0 0 0 15m0-2.5a5 5 0 1 1 0-10 5 5 0 0 1 0 10M5 10A5 5 0 1 0 5 0a5 5 0 0 0 0 10m0-2.5a2.5 2.5 0 1 1 0-5 2.5 2.5 0 0 1 0 5M28.75 40a5 5 0 1 0 0-10 5 5 0 0 0 0 10m0-2.5a2.5 2.5 0 1 1 0-5 2.5 2.5 0 0 1 0 5M40 6.875a4.375 4.375 0 1 0-8.75 0 4.375 4.375 0 0 0 8.75 0m-6.25 0a1.875 1.875 0 1 1 3.75 0 1.875 1.875 0 0 1-3.75 0M8.75 25.625a4.375 4.375 0 1 0-8.75 0 4.375 4.375 0 0 0 8.75 0m-6.25 0a1.875 1.875 0 1 1 3.75 0 1.875 1.875 0 0 1-3.75 0"/></svg>