<svg width="32" height="32" viewBox="0 0 32 32" fill="none" xmlns="http://www.w3.org/2000/svg">
<path d="M30 31H23.8008C21.8282 31 19.8053 29.5514 18.417 27.8936L17.6523 26.8418L20.4033 23.3643C23.8649 18.9884 23.8654 13.0332 20.4043 8.6582L17.5615 5.05566C17.7065 4.88028 17.9621 4.59103 18.417 4.12012C19.4827 3.01703 21.8283 1 23.8008 1H30V31Z" fill="#FEC514"/>
<path fill-rule="evenodd" clip-rule="evenodd" d="M2 31V1H7.81071C9.52048 1 11.1605 1.78551 12.1972 3.09966L18.0516 10.5194C20.6497 13.8034 20.6497 18.2178 18.0504 21.5035L12.1954 28.9061C11.1581 30.2173 9.52048 31 7.81426 31H2Z" fill="#F04E98"/>
<path fill-rule="evenodd" clip-rule="evenodd" d="M15.3836 24.889L12.1515 21.7002C9.28262 18.3821 9.28262 13.4805 12.1528 10.3774C14.4549 7.92002 15.3836 7.14014 15.3836 7.14014L18.0534 10.3774C20.6896 13.7627 20.6283 18.3645 17.9908 21.7515L15.3836 24.889Z" fill="black"/>
</svg>
