<svg xmlns="http://www.w3.org/2000/svg" width="32" height="32" fill="none" data-type="logoElastic" viewBox="0 0 32 32" class="euiIcon eui-alignMiddle css-1vwi8fy-euiIcon-xl-isLoaded" role="img" data-icon-type="logoElastic" data-is-loaded="true" aria-hidden="true">
<!-- <path fill="#fff" fill-rule="evenodd" d="M30.86 13.129A6.333 6.333 0 0 1 32 16.77a6.419 6.419 0 0 1-1.162 3.652 6.382 6.382 0 0 1-3.032 2.331 4.833 4.833 0 0 1-1.672 5.542 4.789 4.789 0 0 1-5.77-.074 9.016 9.016 0 0 1-4.5 3.322 8.982 8.982 0 0 1-5.587.023 9.014 9.014 0 0 1-4.526-3.287 9.067 9.067 0 0 1-1.727-5.333c0-.579.053-1.156.16-1.725A6.305 6.305 0 0 1 1.145 18.9 6.341 6.341 0 0 1 0 15.242a6.42 6.42 0 0 1 1.163-3.652 6.384 6.384 0 0 1 3.035-2.33 4.833 4.833 0 0 1 1.658-5.557 4.789 4.789 0 0 1 5.78.07 9.037 9.037 0 0 1 4.93-3.446 9.007 9.007 0 0 1 5.994.419 9.05 9.05 0 0 1 4.407 4.098 9.097 9.097 0 0 1 .873 5.965 6.298 6.298 0 0 1 3.02 2.32Zm-18.28.658 7.002 3.211 7.066-6.213a7.85 7.85 0 0 0 .152-1.557c0-1.692-.539-3.34-1.54-4.704a7.897 7.897 0 0 0-4.02-2.869 7.87 7.87 0 0 0-4.932.086 7.9 7.9 0 0 0-3.92 3.007l-1.174 6.118 1.367 2.92-.001.001Zm-7.247 7.441A7.964 7.964 0 0 0 6.72 27.53a7.918 7.918 0 0 0 4.04 2.874 7.89 7.89 0 0 0 4.95-.097 7.92 7.92 0 0 0 3.926-3.03l1.166-6.102-1.555-2.985-7.03-3.211-6.885 6.248.001.001Zm4.755-11.024-4.8-1.137.002-.002a3.82 3.82 0 0 1 1.312-4.358 3.785 3.785 0 0 1 4.538.023l-1.052 5.474Zm-5.216.01a5.294 5.294 0 0 0-2.595 1.882 5.324 5.324 0 0 0-.142 6.124 5.287 5.287 0 0 0 2.505 2l6.733-6.101-1.235-2.65-5.266-1.255Zm18.286 17.848a3.737 3.737 0 0 1-2.285-.785l1.037-5.454 4.8 1.125a3.812 3.812 0 0 1-1.801 4.68c-.54.283-1.14.432-1.751.434Zm-1.31-7.499 5.28 1.238a5.34 5.34 0 0 0 2.622-1.938 5.37 5.37 0 0 0 1.013-3.106 5.311 5.311 0 0 0-.936-3.01 5.282 5.282 0 0 0-2.475-1.944l-6.904 6.07 1.4 2.69Z" class="outline" clip-rule="evenodd"></path> -->
<path fill="#FEC514" d="m12.58 13.787 7.002 3.211 7.066-6.213a7.849 7.849 0 0 0 .152-1.557c0-1.692-.539-3.34-1.54-4.704a7.897 7.897 0 0 0-4.02-2.869 7.87 7.87 0 0 0-4.932.086 7.9 7.9 0 0 0-3.92 3.007l-1.174 6.118 1.367 2.92-.001.001Z"></path>
<path fill="#00BFB3" d="M5.333 21.228A7.964 7.964 0 0 0 6.72 27.53a7.918 7.918 0 0 0 4.04 2.874 7.89 7.89 0 0 0 4.95-.097 7.92 7.92 0 0 0 3.926-3.03l1.166-6.102-1.555-2.985-7.03-3.211-6.885 6.248.001.001Z"></path>
<path fill="#F04E98" d="m5.288 9.067 4.8 1.137L11.14 4.73a3.785 3.785 0 0 0-5.914 1.94 3.82 3.82 0 0 0 .064 2.395"></path>
<path fill="#1BA9F5" d="M4.872 10.214a5.294 5.294 0 0 0-2.595 1.882 5.324 5.324 0 0 0-.142 6.124 5.287 5.287 0 0 0 2.505 2l6.733-6.101-1.235-2.65-5.266-1.255Z"></path>
<path fill="#93C90E" d="M20.873 27.277a3.736 3.736 0 0 0 2.285.785 3.783 3.783 0 0 0 3.101-1.63 3.812 3.812 0 0 0 .451-3.484l-4.8-1.125-1.037 5.454Z"></path>
<path fill="#07C" d="m21.848 20.563 5.28 1.238a5.34 5.34 0 0 0 2.622-1.938 5.37 5.37 0 0 0 1.013-3.106 5.312 5.312 0 0 0-.936-3.01 5.283 5.283 0 0 0-2.475-1.944l-6.904 6.07 1.4 2.69Z"></path>
</svg>