<svg width="128" height="128" viewBox="0 0 128 128" fill="none" xmlns="http://www.w3.org/2000/svg">
<path d="M102.28 17.5601H25.07C21.9938 17.5601 19.5 20.0538 19.5 23.1301V94.5001C19.5 97.5763 21.9938 100.07 25.07 100.07H102.28C105.356 100.07 107.85 97.5763 107.85 94.5001V23.1301C107.85 20.0538 105.356 17.5601 102.28 17.5601Z" fill="#153385" stroke="#101C3F" stroke-miterlimit="10"/>
<path d="M104.85 17.5H27.64C24.5638 17.5 22.07 19.9938 22.07 23.07V94.44C22.07 97.5162 24.5638 100.01 27.64 100.01H104.85C107.926 100.01 110.42 97.5162 110.42 94.44V23.07C110.42 19.9938 107.926 17.5 104.85 17.5Z" fill="#0B64DD"/>
<path d="M104.85 17.5H27.64C24.5638 17.5 22.07 19.9938 22.07 23.07V94.44C22.07 97.5162 24.5638 100.01 27.64 100.01H104.85C107.926 100.01 110.42 97.5162 110.42 94.44V23.07C110.42 19.9938 107.926 17.5 104.85 17.5Z" stroke="#101C3F" stroke-miterlimit="10"/>
<path d="M60.04 121.41V58.0701L50.25 58.1001L65.88 44.5901H67.69V46.5301L79.6 57.5901H70.46V121.41H60.04Z" fill="#153385"/>
<path d="M67.19 45.0901V46.7501L67.51 47.0501L78.32 57.1001H69.96V120.92H60.54V57.5801H59.54L51.6 57.6101L66.07 45.1101H67.19M68.19 44.0901H65.7L48.9 58.6001L59.54 58.5701V121.91H70.96V58.0901H80.87L68.19 46.3101V44.0901Z" fill="#101C3F"/>
<path d="M62.04 58.09V121.39H73.46V58.09H83.37L68.18 44.75L52.57 58.09H62.04Z" fill="#48EFCF" stroke="#101C3F" stroke-miterlimit="10"/>
<path d="M38.35 110.53V72.96L30.93 72.99L42.81 62.72H44.07V64.16L53.14 72.59H46.22V110.53H38.35Z" fill="#153385"/>
<path d="M43.57 63.22V64.38L43.89 64.68L51.87 72.1H45.72V110.03H38.85V72.47H37.85L32.28 72.49L43 63.23H43.57M44.57 62.22H42.63L29.58 73.49L37.85 73.46V111.02H46.72V73.09H54.42L44.57 63.94V62.22Z" fill="#101C3F"/>
<path d="M39.79 73.09V110.63H48.66V73.09H56.35L44.56 62.73L32.43 73.09H39.79Z" fill="#48EFCF" stroke="#101C3F" stroke-miterlimit="10"/>
<path d="M84.91 110.53V72.96L77.49 72.99L89.38 62.72H90.63V64.16L99.71 72.59H92.78V110.53H84.91Z" fill="#153385"/>
<path d="M90.13 63.22V64.38L90.45 64.68L98.43 72.1H92.28V110.03H85.41V72.47H84.41L78.84 72.49L89.56 63.23H90.13M91.13 62.22H89.19L76.14 73.49L84.41 73.46V111.02H93.28V73.09H100.98L91.13 63.94V62.22Z" fill="#101C3F"/>
<path d="M86.35 73.09V110.63H95.22V73.09H102.92L91.13 62.73L78.99 73.09H86.35Z" fill="#48EFCF" stroke="#101C3F" stroke-miterlimit="10"/>
<path d="M36.85 25.6599L29.63 32.8599L36.63 39.8599" stroke="white" stroke-width="2" stroke-miterlimit="10"/>
<path d="M50.97 39.8599L58.17 32.6599L51.17 25.6599" stroke="white" stroke-width="2" stroke-miterlimit="10"/>
<path d="M48.63 28.03L39.18 37.48" stroke="white" stroke-width="2" stroke-miterlimit="10"/>
</svg>
