<svg xmlns="http://www.w3.org/2000/svg" width="226" height="206" fill="none"><path fill="#1BA9F5" d="M136.167 130.535H15.677c-5.667 0-10.26 4.594-10.26 10.26v25.26c0 5.667 4.593 10.26 10.26 10.26h120.49c5.666 0 10.26-4.593 10.26-10.26v-25.26c0-5.666-4.594-10.26-10.26-10.26"/><g fill="#0D90E0"><path d="m6.017 147.855.08-.07a1.1 1.1 0 0 0-.5-1.48l-.18-.05v2.23a2.6 2.6 0 0 0 .6-.63M15.247 173.515a1.8 1.8 0 0 0-2.12-.92c-.334.22-.575.555-.68.94a.64.64 0 0 0-.42-.25c.12-.227.175-.483.16-.74a1.15 1.15 0 0 0-.18-.53 1.46 1.46 0 0 0 1-.21c.5-.28.8-1 .58-1.37a1.53 1.53 0 0 0-1.73-.59 1 1 0 0 0-.19.15q.008-.135 0-.27a.46.46 0 0 0 .22-.6c-.09-.29-.19-1-.69-.94a.48.48 0 0 0-.32.15 5 5 0 0 0-.52-.38 1.24 1.24 0 0 1-.46-.51 1.07 1.07 0 0 0-1.68-.61.56.56 0 0 0-.1-.3.94.94 0 0 0-1.21-.08 1 1 0 0 0-.44 1.31.75.75 0 0 0 .44.31.8.8 0 0 0-.06.36 1.14 1.14 0 0 0 1.16 1.17 1.6 1.6 0 0 0 .5-.16q.035.128.05.26c0 .66.55 1 1 1.31.266.124.563.166.853.121.29-.044.56-.173.777-.371l.11-.11a1.4 1.4 0 0 0 .09.91 2.06 2.06 0 0 0-1.1-.16 1.23 1.23 0 0 0-1.1.78.7.7 0 0 0-.59.07 2.1 2.1 0 0 0-.66.57q.673.752 1.47 1.37a1 1 0 0 0 .25-.41 1.59 1.59 0 0 0 1.25.39q.175-.033.33-.12a.59.59 0 0 0 .49.55.73.73 0 0 0 .62-.11.9.9 0 0 0 .13.34 1.72 1.72 0 0 0 2.15.46 1.36 1.36 0 0 0 .62-1.78M13.287 175.915a.65.65 0 0 0-.27 0l.58.15a.48.48 0 0 0-.31-.15M5.417 162.055v2c.13.037.27.037.4 0a1.13 1.13 0 0 0 .551-.712 1.12 1.12 0 0 0-.151-.888.775.775 0 0 0-.8-.4"/><path d="M8.527 171.115a.916.916 0 0 0-1.23-.3q-.105.083-.19.19a1 1 0 0 0-.15 0 1.5 1.5 0 0 0-.23.07c.338.602.736 1.169 1.19 1.69a2.1 2.1 0 0 0 .42-.57.83.83 0 0 0 .19-1.08M6.827 162.085a1.83 1.83 0 0 0 .09 1.51c.24.55 0 1.13.46 1.53a2.6 2.6 0 0 0 2.32.64.59.59 0 0 0 0 .86c.23.23.62.38.84 0a.94.94 0 0 0 0-.86.83.83 0 0 0-.56-.16q.162-.054.31-.14a2 2 0 0 0 1.11-1.58c.06-.7-.78-1-1-1.74a1.86 1.86 0 0 0-.82-1.13c.18-.21.28-.36.27-.51a3 3 0 0 0 .2-.36c-.32-.35-.56-.88-1.2-.61a.787.787 0 0 0-.48 1c.044.13.12.247.22.34a3.5 3.5 0 0 0-1.06.35 1.8 1.8 0 0 0-.7.86M11.877 166.235a.83.83 0 0 0 .9-.8.684.684 0 0 0 .8-.33 1 1 0 0 0 .08-.79c-.31-.57-.82-.5-1.43-.22v.47l-.21-.08a.94.94 0 0 0-.77.42 1 1 0 0 0 .63 1.33M5.787 164.465a.9.9 0 0 0-.37-.34v2.47a1.7 1.7 0 0 0 .28-.11c.55-.29.48-1.27.09-2.02M15.637 173.315a.55.55 0 0 0 .38-.43c0-.15-.19-.59-.4-.55a.55.55 0 0 0-.31.49c.03.17.13.53.33.49M6.387 165.995a.53.53 0 0 0 .57 0c.12-.09.32-.54.15-.66a.55.55 0 0 0-.58.09c-.11.18-.3.48-.14.57M13.227 138.575a1.45 1.45 0 0 0 .24 1.71 1.46 1.46 0 0 0 1.52-.28 1 1 0 0 0-.11-1.2c-.65-.54-1.31-.63-1.65-.23M15.117 142.065a1.3 1.3 0 0 0-.78.09 1.72 1.72 0 0 0-.86 1.24 1.27 1.27 0 0 0 .6 1.22 1.1 1.1 0 0 0 1.12 0 1.34 1.34 0 0 0 .72-1c0-.46.16-1-.12-1.25a.82.82 0 0 0-.68-.3M16.737 146.405c-.62.34-.52.75-.93.93s-.45.49-.36 1 .24 1.2.9 1.05.66-.59.6-.79.14-.58.28-.39.42.23.89-.11a.86.86 0 0 0 .454-.536.85.85 0 0 0-.104-.694 1.26 1.26 0 0 0-1.73-.46M18.867 150.895a.738.738 0 0 0-1.16.51.776.776 0 0 0 .74.66c.42-.07.52-.3.42-1.17M19.237 139.995c-.5-.42-1.06-.31-1.59.33a1.15 1.15 0 0 0 .08 1.39 1.9 1.9 0 0 0 1.92 0 1.42 1.42 0 0 0-.41-1.72M16.127 164.725c.13-.09.31-.33.22-.53s-.4-.2-.56-.15-.44.35-.29.59.53.16.63.09M12.147 155.155a.76.76 0 0 0 1-.12c.26-.34.13-.59-.59-1.09a.73.73 0 0 0-.41 1.21M13.307 151.585a.7.7 0 0 0 .23-.05.55.55 0 0 0 .32.1c.16 0 .43-.08.42-.35a.27.27 0 0 0-.2-.29c.1-.48-.23-.82-.7-1.07-.44.16-.9.37-.87.94a.73.73 0 0 0 .501.686.7.7 0 0 0 .299.034M16.737 170.215h.06c.16 0 .52-.1.58-.31s-.09-.23-.21-.3 0-.1 0-.16c.07-.8-.14-1.13-.85-1.2.222-.466.345-.974.36-1.49a1.3 1.3 0 0 0-.12-.43 1.05 1.05 0 0 0-.872-.594 1.06 1.06 0 0 0-.948.464 6.6 6.6 0 0 0-.63 1.31c-.09-.62-.33-.65-1.14-.44-.25.6 0 1 .58 1.24-.28 1.52.45 2 2 1.5q.103.087.19.19c.26.4.6.37 1 .22M39.377 170.995c.52.38 1 .24 1.34-.26 1.41.64 2.08.06 2-1.58q.119-.102.26-.17c.43-.17.48-.5.44-.9a.79.79 0 0 0-.63-.67c-.84-.3-1.21-.11-1.45.76-.18.65-.39 1.29-.59 1.93-1.26-.23-1.37-.11-1.37.89M39.737 174.855c-.44-.07-1.28.81-1.33 1.37v.09h2.23a1.38 1.38 0 0 0-.9-1.46M42.047 165.145a.72.72 0 0 0-.257-.482.7.7 0 0 0-.245-.131.7.7 0 0 0-.278-.027 1 1 0 0 0-.7.39c-.29.57.06 1 .63 1.3.45-.28.97-.43.85-1.05M51.597 174.475a.99.99 0 0 0 .865-.755q.049-.201.015-.405a1.6 1.6 0 0 0-.8-1 .55.55 0 0 0-.4-.23.86.86 0 0 0-.93.61v.06a1.32 1.32 0 0 0-.29 1c.09.44.91.84 1.54.72M30.187 175.625a1.19 1.19 0 0 0-1.275-.671c-.17.028-.332.094-.475.191a.8.8 0 0 0-.17.15.8.8 0 0 0-.24-.07c-.32 0-.67 0-.78.38a.78.78 0 0 0 .26.71h2.82a1.13 1.13 0 0 0-.14-.69M20.737 145.325c.31.49.49 1.12 1.17 1.35l.75-.31c.66.38 1.4.43 1.67.08a.77.77 0 0 0 0-1c-.41-.56-.7-.62-1.47-.31a12 12 0 0 0-1.46-.62.54.54 0 0 0-.623.166.55.55 0 0 0-.037.644M27.637 168.845a.77.77 0 0 0 .12-1c-.26-.32-.54-.26-1.2.31a.73.73 0 0 0 1.08.69M22.627 142.365c.14.16.53-.06.56-.15a.8.8 0 0 0 0-.55.56.56 0 0 0-.45 0c-.13.18-.26.53-.11.7M57.527 168.335c0-.15-.27-.49-.46-.49s-.32.48-.28.62.29.38.45.34a.54.54 0 0 0 .29-.47M26.387 164.575c-.12.07-.12.35-.19.63.28 0 .52.1.65 0a.5.5 0 0 0 .07-.5.56.56 0 0 0-.53-.13M56.247 171.995a1.204 1.204 0 0 0-1.04 1.023 1.2 1.2 0 0 0 .04.517c.18.64.78 1.08 1.25.93a1.69 1.69 0 0 0 1.08-1.82 1.18 1.18 0 0 0-1.33-.65M20.867 155.185a.76.76 0 0 0 .73.65.7.7 0 0 0 .564-.451.7.7 0 0 0-.134-.709.73.73 0 0 0-1.024.156.73.73 0 0 0-.136.354M22.017 150.455a.3.3 0 0 0 .107-.23.3.3 0 0 0-.107-.23c-.12-.11-.45-.36-.63-.2s0 .52.07.57.36.27.56.09M57.447 176.315h2.55a2 2 0 0 0 0-.55 1.41 1.41 0 0 0-1.52-1.12c-.63.09-1.07.88-1.03 1.67M76.157 173.505c.3-.38-.44-1.27-1-1.19s-1 .66-.84 1.05 1.54.53 1.84.14M66.077 174.755c.39-.09.88-.75.79-1a1.19 1.19 0 0 0-1.23-.7.84.84 0 0 0-.53 1.05.93.93 0 0 0 .97.65M58.297 170.785c.21 0 .24-.45.21-.61s-.25-.18-.39-.26c-.09.16-.24.32-.25.49s.23.42.43.38M69.447 175.995c-.08-.48-1-1.19-1.44-1.09-.61.14-.85.63-.66 1.37h2.09a.6.6 0 0 0 .01-.28M74.147 174.775a.76.76 0 0 0-.47-.28c-.06 0-.26.31-.23.4s.29.45.51.42.24-.47.19-.54M68.237 172.425a.744.744 0 0 0 .61-.86.65.65 0 0 0-.57-.51.65.65 0 0 0-.27.03.6.6 0 0 0-.493.478.6.6 0 0 0 .003.242.64.64 0 0 0 .72.62M5.557 151.105a.7.7 0 0 0-.14 0v3a2.19 2.19 0 0 0 1.1-1.28 1.5 1.5 0 0 0-.96-1.72M47.057 175.235c-.09.6.14 1 .66 1 .73.12 1.57-.35 1.64-.92a1.28 1.28 0 0 0-1.11-1.16 1.16 1.16 0 0 0-1.19 1.08M47.017 171.155a.46.46 0 0 0-.408.073.46.46 0 0 0-.192.367.46.46 0 0 0 .282.487.5.5 0 0 0 .198.033.51.51 0 0 0 .45-.45.44.44 0 0 0-.33-.51M45.737 169.445c-.14 0-.62 0-.63.25a.54.54 0 0 0 .4.42c.18 0 .54 0 .55-.2a.54.54 0 0 0-.32-.47M48.807 171.275q.109.132.24.24c.06-.08.19-.12.18-.25s-.18-.17-.26-.17-.17.16-.16.18M45.927 174.995c-.13.19-.38.39-.37.57s.13.7.55.61.38-.58.34-.75-.34-.25-.52-.43M60.847 176.315h.79a.47.47 0 0 0-.34-.21.77.77 0 0 0-.45.21M61.347 174.515c.12.49.78 1 1.19.93s.79-.82.63-1.54a.62.62 0 0 0-.552-.523.6.6 0 0 0-.268.033c-.61.1-1.1.67-1 1.1M44.857 171.895a.57.57 0 0 0-.29.47c0 .13.3.21.55.36.09-.26.24-.47.2-.62a.52.52 0 0 0-.46-.21M54.607 175.535a1.4 1.4 0 0 0-.33.78h2.22a1.4 1.4 0 0 0-.14-.36c-.21-.36-.43-1.21-1-1.2s-.56.56-.75.78M41.657 173.265c.09-.45-.1-.77-.53-.74s-1-.06-1.09.44.57.71.86.86.67-.14.76-.56M49.487 169.425c0-.07-.08-.25-.17-.33-.08-.48-.74-.53-1-.75l-.24.13v1.32l.3.18a2 2 0 0 1 .46-.25.42.42 0 0 0 .22.19c.29.08.37-.33.43-.49M62.977 168.245c-.16.38-.73.8-.49 1.18a.77.77 0 0 0 .59.365.76.76 0 0 0 .64-.265c.13-.2-.16-.7-.3-1.05-.04-.09-.23-.12-.44-.23M27.887 163.435a.73.73 0 0 0 .345.65.73.73 0 0 0 .735.02.76.76 0 0 0 .12-1 .71.71 0 0 0-.698-.19.72.72 0 0 0-.502.52M24.457 141.595c-.23.35.42 1.55.9 1.58s.81-1.08.45-1.48-1.07-.46-1.35-.1M77.477 175.695c-.55 0-.8.16-1 .62h1.75v-.09a.76.76 0 0 0-.75-.53M44.257 166.095c-.27 0-.7.26-.74.46s.22.57.31.77c.62.1.81-.18.87-.5s-.04-.74-.44-.73M32.657 164.435a1.106 1.106 0 0 0-1.24.5 5.4 5.4 0 0 0-.48 1 5 5 0 0 0-.52.1 1.65 1.65 0 0 0-1.23 1.38 1.89 1.89 0 0 0 .95 1.58.93.93 0 0 0 .72.09 1.5 1.5 0 0 0 .935-.684 1.5 1.5 0 0 0 .175-1.146l-.09-.54c.34-.05.67-.08 1-.16.6-.16.78-.43.71-1a1.26 1.26 0 0 0-.93-1.12M42.947 174.595a.7.7 0 0 0 0 .14.5.5 0 0 0-.28 0c-.6.08-.71.53-.67 1.06a1.154 1.154 0 0 0 1.41.08c.172.133.375.219.59.25a1.64 1.64 0 0 0 1.79-1.41 1.695 1.695 0 0 0-1.29-1.56c-.76-.16-1.41.46-1.55 1.44M37.567 175.815c-.15.05-.24.28-.27.5h1c-.14-.24-.56-.58-.73-.5M37.337 164.305c0-.14-.19-.41-.33-.45s-.6.06-.63.25.33.47.47.49a.68.68 0 0 0 .49-.29M34.537 168.435a1 1 0 0 0 .91 1.14c.63.15 1.54-.26 1.65-.74a1.47 1.47 0 0 0-1-1.63 1.49 1.49 0 0 0-1.56 1.23M32.437 174.745a1.7 1.7 0 0 0 .61.95 1.85 1.85 0 0 0 1.49.29c.6-.1 1.1.26 1.6-.07a2.51 2.51 0 0 0 1.1-2.8 2 2 0 0 0-1.26-1.47c-.67-.23-1.2.51-1.93.55-1.74.1-1.89 1.4-1.61 2.55M28.667 168.315a1.4 1.4 0 0 0-.16.3c.09 0 .17.15.29.09s.11-.22.09-.3-.15-.11-.22-.09M8.737 156.915a2.06 2.06 0 0 0 1.93-.21c.56-.42.25-1.27.63-1.9.9-1.49-.08-2.36-1.18-2.77a2 2 0 0 0-.4-.1.92.92 0 0 0-.55-.34 1.26 1.26 0 0 0-1.47 1 1.34 1.34 0 0 0 0 .71c-.28.37-.67.61-.68 1.11a2.51 2.51 0 0 0 1.72 2.5M5.417 141.485v2.76c.183-.085.344-.212.47-.37.72-1 .55-1.32-.22-2.19a1.2 1.2 0 0 0-.25-.2M6.237 156.435q-.16.122-.28.28a.34.34 0 0 0-.09-.12 1.24 1.24 0 0 0-.32-.5 1 1 0 0 0-.13-.06v2.17h.06c-.019.216.02.433.11.63.164.278.43.482.74.57l-.22.13c-.32.17-.27.64 0 .95s.69.36.91 0 .53-.7.33-1a1.6 1.6 0 0 0 .35-.16c.23-.15.412-.366.52-.62l.05.06a.745.745 0 0 0 1.08-.12 1 1 0 0 0 .15-.86.87.87 0 0 0-1.13-.36 1.5 1.5 0 0 0-.1-.22 1.613 1.613 0 0 0-2.03-.77M7.737 142.505a1.14 1.14 0 0 0 .17.88 1.5 1.5 0 0 0 1.83.61c.45.18 1.11.24 1.33 0s-.27-1.31-.8-1.31a1.22 1.22 0 0 0-1-1 1.36 1.36 0 0 0-1.53.82M7.477 147.235a1.74 1.74 0 0 0 1.84.77.51.51 0 0 0 .24.88c.57.1 1.17.37 1.78 0 .07-.19.14-.41.21-.61a.564.564 0 0 0 .68-.17.78.78 0 0 0 .25-.51.8.8 0 0 0 .29-.68.76.76 0 0 0-.72-.63c-.69-.07-.92.11-1.21.89l-1 .48a1.94 1.94 0 0 0 .14-2.15 1.36 1.36 0 0 0-1.09-.55.78.78 0 0 0-.44-.33s-.29.27-.27.36l.05.1-.18.08a1.37 1.37 0 0 0-.812 1.508c.037.203.12.395.242.562M11.377 131.995c-.54-.23-.86.13-1.06.57a.918.918 0 0 0 1.3.65c.18-.53.33-1.02-.24-1.22M10.947 144.585a.31.31 0 0 0-.08.5.3.3 0 0 0 .235.158.31.31 0 0 0 .265-.098.35.35 0 1 0-.42-.56M12.377 131.095a1.45 1.45 0 0 0 2.33-.51 10.5 10.5 0 0 0-2.33.5zM16.227 131.475a1.31 1.31 0 0 0-.11 1.5c.37.36 1.13.2 1.63-.34a.62.62 0 0 0 .222-.512.63.63 0 0 0-.272-.488 1.12 1.12 0 0 0-1.47-.16M18.347 138.925a.84.84 0 0 0 1.17.1 1.75 1.75 0 0 0 .09-1.8c-.46-.43-1-.35-1.5.22s-.37.98.24 1.48M7.337 137.995q.054.077.13.13a1.58 1.58 0 0 0 2-.24 1.69 1.69 0 0 0 0-2.12 1.65 1.65 0 0 0-1.73-.33 1.6 1.6 0 0 0-.61-.25 10 10 0 0 0-1.3 2.81 1.22 1.22 0 0 0 1.51 0M30.127 173.445a.727.727 0 0 0 .14-1.07 1 1 0 0 0-.79-.37c-.59.15-.69.67-.62 1.25.39.27.82.53 1.27.19M8.937 133.195a.6.6 0 0 0 .17-.28c-.17.14-.32.29-.48.44a.8.8 0 0 0 .31-.16M20.097 158.895a.8.8 0 0 0-.22.7.516.516 0 0 0 .572.37.5.5 0 0 0 .228-.09c.19-.13.51-.77.35-1s-.77-.1-.93.02M21.927 135.065a.64.64 0 0 0-.268.445.63.63 0 0 0 .398.66.735.735 0 0 0 .968-.401.65.65 0 0 0-.228-.764.59.59 0 0 0-.87.06M21.737 130.635a.3.3 0 0 0 .19-.1h-.59a.52.52 0 0 0 .4.1M11.737 134.815a1.39 1.39 0 0 0 .31 1.39 1.18 1.18 0 0 0 1.25-.38.64.64 0 0 0 .068-.519.63.63 0 0 0-.348-.391c-.56-.34-1.06-.38-1.28-.1M12.027 141.575c.05-.15 0-.48-.26-.52a.43.43 0 0 0-.49.23.64.64 0 0 0 .25.61c.21.1.43-.14.5-.32M9.987 140.045a1.86 1.86 0 0 0 1.83 0 1.05 1.05 0 0 0-.15-1.54c-.51-.51-.91-.49-1.48.1s-.58 1.08-.2 1.44M15.007 134.995a.83.83 0 0 0 .12.68q.397.506.88.93c.27.26.52.19.78-.11 0-.11.05-.31 0-.39a1.75 1.75 0 0 1-.38-1.08c0-.18-.42-.42-.66-.42a1 1 0 0 0-.74.39M18.737 134.325a.94.94 0 0 0 0 1.2 1.21 1.21 0 0 0 1.31.06 1.19 1.19 0 0 0-.11-1.41.86.86 0 0 0-1.2.15M13.467 132.075a1.18 1.18 0 0 0-.11 1.3.61.61 0 0 0 .45.262.6.6 0 0 0 .49-.172c.54-.42.77-.87.58-1.15a1.41 1.41 0 0 0-1.41-.24M19.487 163.255a.74.74 0 0 0-.23-.36c-.05-.18-.22-.44-.37-.43s-.15.08-.21.18h-.08a1 1 0 0 0-.494.649 1 1 0 0 0 .154.801c.32.24 1.32-.36 1.23-.84M18.887 170.585c-.07-.25-.42-.61-.63-.6s-.49.36-.66.49a.4.4 0 0 0 0 .1 1.08 1.08 0 0 0-1 .17c-.58.37-.79.94-.5 1.37a1.68 1.68 0 0 0 2 .48 1.21 1.21 0 0 0 .17-1.4c.36-.02.73-.2.62-.61M17.997 168.345a.76.76 0 0 0-.363.769q.023.151.103.281a.59.59 0 0 0 .414.324.57.57 0 0 0 .506-.144c.161-.225.277-.48.34-.75-.26-.54-.68-.67-1-.48M18.797 156.735a6.6 6.6 0 0 0-.54-1c.07-.16.15-.32.21-.49a1.66 1.66 0 0 0-.44-1.79 1.91 1.91 0 0 0-1.88-.14 1 1 0 0 0-.48.54 1.52 1.52 0 0 0 .88 2l.5.22c-.15.32-.32.61-.43.91q-.075.199-.09.41a.33.33 0 0 0-.12.33l-.61-.1a4 4 0 0 0-.22-.48 1.65 1.65 0 0 0-1.64-.85 1.8 1.8 0 0 0-.74.39.48.48 0 0 0-.16-.26.68.68 0 0 0-.75.12c-.2.23.2.68.36.74h.09l-.09.2c-.44.47-.59 1.38-.27 1.72.187.187.428.31.69.35a1.2 1.2 0 0 0-.85.13 1.41 1.41 0 0 0-.44 1.84 1.54 1.54 0 0 0 1.71.78c-.083.182-.124.38-.12.58 0 .66.63 1.44 1.12 1.43a1.5 1.5 0 0 0 1.31-1.14 1.19 1.19 0 0 0 1.13-.48.75.75 0 0 0-.24-1c0-.15.07-.32 0-.4s-.58 0-.67.12a.66.66 0 0 0-.07.45 3.3 3.3 0 0 0-.29.59 1.66 1.66 0 0 0-1.29-.71 1.11 1.11 0 0 0 .12-1.27 2.1 2.1 0 0 0-1.34-.89 1.38 1.38 0 0 0 1.13-.26.8.8 0 0 0 .18-.28q.143-.01.28-.05l.5-.22c.14.32.25.63.4.92a.81.81 0 0 0 1.18.44 1.255 1.255 0 0 0 .85-1.17.9.9 0 0 0-.19-.63 1.24 1.24 0 0 0 1.05-.26 1.12 1.12 0 0 0 .27-1.34M25.737 171.115c-.13.16-.56.21-.48 0s-.05-.47-.6-.68a.86.86 0 0 0-1.006.125.9.9 0 0 0-.204.295 1.28 1.28 0 0 0 .62 1.67c.63.31.91 0 1.3.24s.65.09 1-.25c.09-.09.19-.19.28-.3a1 1 0 0 0 1.14.21 1.36 1.36 0 0 0 .63-1.68 1.44 1.44 0 0 0-1.74-.5.89.89 0 0 0-.39.67.56.56 0 0 0-.55.2M23.147 167.185c.21.38.67.19.82.1s.17-.37.24-.59c.24 0 .43-.28.43-.38s0-.43-.24-.5a.3.3 0 0 0-.128-.008.3.3 0 0 0-.252.258.84.84 0 0 0 .06.53c-.19-.08-.38-.18-.51-.13s-.62.34-.42.72M23.437 174.755a1.35 1.35 0 0 0-1.24 0c-.38.28-.9.42-1 .81a.79.79 0 0 0 .17.71h3a1.3 1.3 0 0 0-.42-.24c.042-.129.059-.265.05-.4a1.12 1.12 0 0 0-.56-.88"/><path d="M21.327 168.995a1.38 1.38 0 0 0 .06-.88l-.47-.3a.67.67 0 0 0-.12-.54.6.6 0 0 0-.2-.13c-.14-.51-.44-.88-.78-.9a.77.77 0 0 0-.76.49c-.56-.07-.83.33-1 .93.37.37.65.83 1.23.57a2 2 0 0 0 .22-.14l.11.08q.105.784.31 1.55a1.6 1.6 0 0 0-.18.83c0 1.2 1.24 1 1 1.72s-.84.17-1.15 1.25q-.007.105 0 .21c-.2-.49-.63-1-.93-1.05-.54 0-1.14.62-1.22 1.34q-.015.135 0 .27a.8.8 0 0 0-.26.1.7.7 0 0 0-.25.39.69.69 0 0 0-.48-.43 1.78 1.78 0 0 0-1.55.95.86.86 0 0 0 .59 1h1.71a.5.5 0 0 0 .08-.12 1 1 0 0 0 .15.12h1.1a1.36 1.36 0 0 0 .45-1.26c.251-.116.456-.313.58-.56a1 1 0 0 0 .793.803q.198.037.397-.003c.76-.22.87-.91 1.06-.91s1 .23 1.17-.38c.35-1.29-.88-1.3-.89-1.72s.45-1.11.48-1.72c.04-.83-.38-1.56-1.25-1.56m-4.44 6.79v-.12a1 1 0 0 0 .05.15s-.02-.05-.05-.05zM22.387 163.115a1.17 1.17 0 0 0 .39 1.43c.72-.37 1-.71.81-1.1-.25-.55-.7-.52-1.2-.33"/></g><g fill="#343741"><path d="M121.737 136.495h-6v31h6zM109.737 136.495h-6v31h6z"/></g><path fill="#F990C6" d="M31.027 162.955a8.91 8.91 0 0 0 8.91-8.91 8.91 8.91 0 1 0-8.91 8.91"/><g fill="#ECF0F6"><path d="M63.807 81.175a9.6 9.6 0 0 0-.79 1.91c-.75.13-1.61.36-1.85 1.23a1.83 1.83 0 0 0 .57 1.76c.77-1.79 1.6-3.54 2.49-5.27a1.2 1.2 0 0 0-.42.37M59.677 89.995a4.3 4.3 0 0 0 .06 1.22c.26-.74.51-1.49.8-2.22a1.12 1.12 0 0 0-.86 1M61.217 80.415c.06.2.41.39.66.43a.69.69 0 0 0 .57-.33c.2-.49-.07-.82-.57-1-.38.16-.83.35-.66.9M56.137 79.495c.18.2.68.68 1 .53s.13-.88 0-1.1c0 0-.07-.06-.14-.09h-.64a.4.4 0 0 0-.22.66M55.937 83.615c.103-.323.14-.663.11-1-.11-.45-.76-.58-1.21-.32a.73.73 0 0 0-.23 1 1 1 0 0 0 1.33.32M57.737 80.895a1.53 1.53 0 0 0-.59 1.73 1.21 1.21 0 0 0 1.59.37c.73-.36 1-.8.7-1.36a1.43 1.43 0 0 0-1.7-.74M47.437 82.525c.77.09 1.6-.57 1.51-1.2a1.2 1.2 0 0 0-1-1.06 1 1 0 0 0-1.18.57c-.18.38-.76 1-.41 1.54s.79.12 1.08.15M55.127 85.555a1.19 1.19 0 0 0-1.5.14.81.81 0 0 0 .11 1.11.8.8 0 0 0 1 .19 1.26 1.26 0 0 0 .39-1.44M51.937 87.795c-.31-.68-1.17-1.11-1.68-.84a1.27 1.27 0 0 0-.33 1.57 1.15 1.15 0 0 0 1.52.4c.54-.26.71-.65.49-1.13M52.447 78.275c.24-.2.75-.77.6-1s-.89-.21-1.19-.15-.43.61-.22.93.51.46.81.22M51.737 90.295a1.69 1.69 0 0 0-.62 1.79h2.78a1.2 1.2 0 0 0 0-1.11 1.64 1.64 0 0 0-2.16-.68M57.497 86.995a.83.83 0 0 0-.38 1.1.86.86 0 1 0 1.53-.79.94.94 0 0 0-1.15-.31M56.827 90.385c-.28-.58-.79-.84-1.21-.61a2.18 2.18 0 0 0-.76 1.69 1.18 1.18 0 0 0 1.69.44c.52-.26.62-.8.28-1.52M45.277 90.195c-.09 0-.22.35-.17.4a.62.62 0 0 0 .48.25c.12 0 .45-.22.35-.54s-.49-.15-.66-.11M51.127 75.115c.15-.07.46-.23.4-.5s-.47-.24-.53-.19a.67.67 0 0 0-.25.47c-.01.1.3.26.38.22M51.547 80.485a.79.79 0 0 0-.37 1 .79.79 0 1 0 1.49-.49 1 1 0 0 0-1.12-.51M46.897 86.265a.69.69 0 0 0-.44 1 .85.85 0 0 0 1 .42.73.73 0 0 0 .44-1 .83.83 0 0 0-1-.42M60.167 85.415a.87.87 0 0 0-.88-.68 1 1 0 0 0-.9 1.11 1.07 1.07 0 0 0 1.43.49.69.69 0 0 0 .35-.92M57.147 91.625a.8.8 0 0 0-.41.37.23.23 0 0 0 0 .14h.75v-.06c.12-.32-.26-.47-.34-.45M48.327 90.695a.45.45 0 0 0-.22.57.481.481 0 0 0 .85-.45.52.52 0 0 0-.63-.12"/></g><g fill="#ECF0F6"><path d="M76.787 187.575a.27.27 0 0 0-.22.25c0 .08.16.2.23.2s.22-.07.23-.18a.26.26 0 0 0-.066-.183.26.26 0 0 0-.174-.087M78.497 184.765a.843.843 0 0 0-.8.87.79.79 0 0 0 .536.751.8.8 0 0 0 .324.039c.54 0 .91-.22.89-.58a1.36 1.36 0 0 0-.95-1.08M75.847 183.995a.59.59 0 0 0-.44.48.53.53 0 0 0 .34.41c.12 0 .39-.18.41-.3s-.06-.59-.31-.59M99.737 189.875a1.49 1.49 0 0 0-.68 1.16c0 .71.49 1.15 1.31 1.15a1.13 1.13 0 0 0 1.26-1.2q.015-.12 0-.24c-.65-.29-1.27-.56-1.89-.87M79.847 188.525c-.11 0-.56.16-.57.3s.36.38.53.42.36-.2.34-.27-.16-.41-.3-.45M79.627 176.795a.772.772 0 0 0-.74.88c0 .39.07.82.48.84.72 0 1.14-.3 1.17-.74a.9.9 0 0 0-.543-.908.9.9 0 0 0-.367-.072M72.507 182.775c-.23-.07-1.13.32-1.17.74s.92.77 1.27.79a.94.94 0 0 0 .83-.72c.03-.41-.57-.72-.93-.81M71.937 178.275a.75.75 0 0 0-.69-.82.83.83 0 0 0-.672.137.844.844 0 0 0-.135 1.245.84.84 0 0 0 .627.278 1 1 0 0 0 .87-.84M75.987 180.455a.84.84 0 0 0 .912-.441.8.8 0 0 0 .088-.349.9.9 0 0 0-.78-.89 1 1 0 0 0-.93.89.79.79 0 0 0 .71.79M68.417 177.325c-.12 0-.55.1-.57.31s.36.37.52.42.35-.11.35-.27a.59.59 0 0 0-.3-.46M76.197 176.535a.8.8 0 0 0 0-.22h-2.28a1.07 1.07 0 0 0 1 1.07c.66.02 1.27-.39 1.28-.85M74.297 180.995c-.37-.05-.92.63-.82.89s.44.37.74.43a.48.48 0 0 0 .467-.088.49.49 0 0 0 .173-.442c-.01-.41-.12-.79-.56-.79M82.487 183.495c.43 0 1-.74 1-1.4a1 1 0 0 0-.93-.89 1.16 1.16 0 0 0-1.18.93 1.49 1.49 0 0 0 1.11 1.36M82.167 177.905c-.43-.38-.87-.75-1.29-1.14a.7.7 0 0 0-.21.47c0 .66.54.85 1 1.07q.267-.178.5-.4M91.157 185.325a1.4 1.4 0 0 0-1.3.58h-.06c-.23 0-.89.26-.9.52s.51.59.71.6a1.74 1.74 0 0 0 1.46 1.36 1.79 1.79 0 0 0 1.67-1.51c.11-.8-.56-1.45-1.58-1.55M93.737 192.825a.65.65 0 0 0-.24.59.71.71 0 0 0 .65.38c.3-.05.28-.65.2-.8a.61.61 0 0 0-.61-.17M91.667 189.585a.58.58 0 0 0-.49.25c0 .11 0 .55.24.6s.42-.32.48-.48-.07-.35-.23-.37M94.657 191.995a.27.27 0 0 0-.23.25c0 .08.17.2.24.2s.22-.07.22-.18a.25.25 0 0 0-.136-.243.3.3 0 0 0-.094-.027M91.047 190.265a.46.46 0 0 0-.348.03.44.44 0 0 0-.222.27c-.08.33.36.38.52.42s.36-.2.35-.27-.16-.41-.3-.45M99.377 194.615a1.78 1.78 0 0 0-1.8 1.27 1.61 1.61 0 0 0 1.14 1.86 2.33 2.33 0 0 0 2-1.43 1.58 1.58 0 0 0-1.34-1.7M98.357 189.915c.06-.54-.18-.93-.62-1a1 1 0 0 0-.39 0 1.5 1.5 0 0 0-.91-.49 1.23 1.23 0 0 0-.943.148 1.23 1.23 0 0 0-.547.782 1.91 1.91 0 0 0 1.25 2.05 1.42 1.42 0 0 0 1.18-.5 1.21 1.21 0 0 0 .98-.99M84.267 183.615c-.42 0-.75.25-.66.63s.14.58.39.67.87-.42.86-.83-.3-.45-.59-.47M81.927 184.845c-.21 0-.39.32-.39.43s0 .54.25.53a.55.55 0 0 0 .45-.36c.03-.14-.1-.62-.31-.6M86.807 182.935a1.3 1.3 0 0 0 1-.41c-.56-.41-1.11-.82-1.66-1.25-.24.09-.5.19-.75.31a.75.75 0 0 0-.386.426.74.74 0 0 0 .036.574.773.773 0 0 0 1 .43c.247-.069.504-.096.76-.08M88.317 192.685c-.23 0-.63.18-.67.36s.26.54.45.6.78-.16.8-.38-.44-.59-.58-.58M83.337 188.605a.81.81 0 0 0-.88.78.64.64 0 0 0 .64.81.81.81 0 0 0 .82-.418.8.8 0 0 0 .09-.312.85.85 0 0 0-.67-.86M86.867 185.055a.72.72 0 0 0-.78.6c-.08.34.55 1 .86.87a1 1 0 0 0 .54-.65.65.65 0 0 0-.62-.82M86.537 189.255c-.3 0-.59.41-.61.88a.46.46 0 0 0 .5.56c.38 0 .73-.12.79-.58a.89.89 0 0 0-.68-.86M80.077 181.995a.78.78 0 0 0-.15-.75 1.3 1.3 0 0 0-.48-.199 1.3 1.3 0 0 0-.52.009c-.61.23-.35.77-.28 1.29.64.18 1.17.24 1.43-.35M88.847 183.995a1.5 1.5 0 0 0 .08-.71l-.63-.46h-.06a.9.9 0 0 0-.2.69c0 .24-.06.48.11.69s.59.16.7-.21M98.647 193.605a.8.8 0 0 0 1-.44 1 1 0 0 0-.07-.79c-.25-.42-.63-.4-1.46 0 .02.47-.13 1.03.53 1.23M94.997 187.265l-1-.58a1.17 1.17 0 0 0 .13.69c.11.14.5.05.87-.11M186.557 181.565a.4.4 0 0 0 .308-.286.4.4 0 0 0-.118-.404 2 2 0 0 0-.29-.26c-.24.2-.5.39-.75.59q.035.143.11.27c.08.13.51.17.74.09M109.117 193.995a.9.9 0 0 0 .4 0l-.93-.33a.77.77 0 0 0 .53.33M195.737 173.815a.68.68 0 0 0 .446-.401.69.69 0 0 0-.036-.599.86.86 0 0 0-1-.4l-.41.58a.75.75 0 0 0 0 .49.84.84 0 0 0 1 .33M191.307 179.745a.808.808 0 0 0-.08-1.435.8.8 0 0 0-.605-.01.78.78 0 0 0-.435.421.8.8 0 0 0-.01.604 1 1 0 0 0 1.13.42M127.137 198.445a.52.52 0 0 0-.1-.51h-.22a.9.9 0 0 0-.34.37c0 .09.11.28.17.43.17-.1.39-.15.49-.29M168.827 193.515c.1.15.32.44.49.33a.54.54 0 0 0 .19-.54c0-.14-.4-.48-.57-.36a.54.54 0 0 0-.11.57M84.627 180.465q.25.016.5 0c-.43-.35-.87-.68-1.29-1a1 1 0 0 0-.06.29.77.77 0 0 0 .544.681.8.8 0 0 0 .306.029M165.937 197.935a.26.26 0 0 0-.06.33c0 .07.24.09.3 0s.15-.17.1-.27a.25.25 0 0 0-.34-.06M165.957 194.645a.842.842 0 0 0-.028 1.39.8.8 0 0 0 .628.131.8.8 0 0 0 .3-.131c.48-.26.67-.65.47-1a1.36 1.36 0 0 0-1.37-.39M164.867 193.625c.51 0 .73-.43.72-.86-.48.19-1 .36-1.47.54.212.179.474.291.75.32M169.047 197.175c-.12 0-.39.42-.33.55s.5.14.67.09.2-.36.15-.41-.34-.27-.49-.23M170.537 190.595l-.32.15a.517.517 0 0 0-.15.82c.19.2.42.43.68.38s.53-.81.31-1.15a.42.42 0 0 0-.52-.2M172.077 195.445a.82.82 0 0 0-.36 1.12.66.66 0 0 0 1 .37.81.81 0 0 0 .4-1.1.84.84 0 0 0-1.04-.39M163.307 195.385a.59.59 0 0 0-.13.64.54.54 0 0 0 .51.18.54.54 0 0 0 .19-.48c-.06-.14-.36-.48-.57-.34M168.857 191.375l-.45.2q.166-.009.32-.07a.5.5 0 0 0 .13-.13M154.507 201.475a.65.65 0 0 0-.29.56.63.63 0 0 0 .52.36.69.69 0 0 0 .51-.56c.01-.3-.58-.4-.74-.36M152.537 197.625a1.51 1.51 0 0 0-1.726.339 1.5 1.5 0 0 0-.324.531 1.22 1.22 0 0 0 .6 1.65 1.91 1.91 0 0 0 2.26-.8 1.403 1.403 0 0 0-.81-1.72M151.027 203.245c-.08-.05-.36 0-.41.15a.59.59 0 0 0 .15.53c.09.07.54.08.63-.12s-.22-.46-.37-.56M155.737 196.325a1 1 0 0 0-.78-.1c-.46.16-.52.54-.31 1.43.47.08 1 .34 1.32-.27a.777.777 0 0 0-.23-1.06M159.797 195.995a.75.75 0 0 0-.29.25 1.16 1.16 0 0 0-.44-.37 1.58 1.58 0 0 0-1.94 1 1.77 1.77 0 0 0 .87 2 1.603 1.603 0 0 0 2.05-.74 1.44 1.44 0 0 0 0-.72c.212-.02.418-.078.61-.17a.94.94 0 0 0 .34-1c-.17-.38-.85-.33-1.2-.25M148.627 198.825c-.33-.16-.86.45-.84 1.09s.88.72 1.18.6-.01-1.52-.34-1.69M184.627 183.095a2.004 2.004 0 0 0-.91 2.25 1.6 1.6 0 0 0 2 .65 1.55 1.55 0 0 0 .77-1.93 1.59 1.59 0 0 0-1.86-.97M187.177 187.655a1.38 1.38 0 0 0-.36 1.77 1.12 1.12 0 0 0 .787.562 1.13 1.13 0 0 0 .933-.252 1.11 1.11 0 0 0 .625-.726 1.12 1.12 0 0 0-.165-.944 1.323 1.323 0 0 0-1.82-.41M183.557 192.565a.25.25 0 0 0-.07.33c0 .07.24.08.3 0a.23.23 0 0 0 .121-.136.2.2 0 0 0 .008-.094.22.22 0 0 0-.096-.155.2.2 0 0 0-.087-.034.2.2 0 0 0-.093.006.2.2 0 0 0-.083.043zM173.277 190.585a.717.717 0 0 0-.36.91c.11.33 1 .57 1.19.3a.9.9 0 0 0 .13-.82.658.658 0 0 0-.96-.39M196.397 177.685c-.37-.49-.75-.09-1-.12-.77-.06-1.58.62-1.47 1.25a1.21 1.21 0 0 0 1 1 .94.94 0 0 0 1.15-.61c.13-.35.66-1.03.32-1.52M190.477 181.995c-.23.2-.72.79-.56 1s.89.18 1.19.11.41-.62.19-.94-.56-.44-.82-.17M191.897 185.085c-.14.08-.45.25-.38.52s.47.23.54.18a.75.75 0 0 0 .23-.49c0-.07-.31-.25-.39-.21M184.587 188.295a1.37 1.37 0 0 0-.67 1.58.943.943 0 0 0 1.2.47 1.177 1.177 0 0 0 .51-1.51.8.8 0 0 0-.15-.29.81.81 0 0 0-.89-.25M179.257 189.115a1.5 1.5 0 0 0-.97-.727 1.5 1.5 0 0 0-1.19.227 1.38 1.38 0 0 0-.75.804 1.36 1.36 0 0 0 .09 1.096 1.72 1.72 0 0 0 2.16.72 1.806 1.806 0 0 0 .66-2.12M175.157 194.345c-.27.14-.29.67-.07 1.08a.466.466 0 0 0 .521.304.5.5 0 0 0 .199-.084c.32-.21.56-.48.37-.9a.9.9 0 0 0-.441-.375.9.9 0 0 0-.579-.025M173.737 188.995a.56.56 0 0 0 .28.25c.29.11.51-.21.47-.57a.2.2 0 0 0 0-.08zM178.417 186.295a1.81 1.81 0 0 0 1.46 1c.7 0 .9-.36.93-1.78.55-.05 1.12 0 1.14-.75a1 1 0 0 0-.22-.68c-1.08.79-2.18 1.51-3.31 2.21M178.447 196.385c-.19.12-.44.47-.38.65s.49.33.69.28.58-.54.49-.74-.68-.28-.8-.19M179.547 192.895c-.12 0-.45.24-.34.56s.5.13.67.09.2-.36.15-.41a.65.65 0 0 0-.48-.24M147.737 197.525l-.34.06a.55.55 0 0 0-.22.26c0 .16 0 .45.16.55s.44-.09.53-.23.09-.52-.13-.64M117.737 204.935a.25.25 0 0 0-.29.2c0 .16.14.24.22.26s.22-.14.22-.21-.08-.19-.15-.25M115.167 201.495a1.1 1.1 0 0 0-.874.209 1.11 1.11 0 0 0-.426.791c-.1.7.25 1.29.79 1.34a1.61 1.61 0 0 0 1.61-1.23c.1-.45-.47-1.05-1.1-1.11M113.107 198.995c-.3 0-1 .12-1 .53s.48.63.72.73a.548.548 0 0 0 .79-.33c.12-.41-.16-.93-.51-.93M111.737 195.415a1.39 1.39 0 0 0 1.38.58 1 1 0 0 0 .67-.64c-.74-.21-1.47-.44-2.2-.68-.033.256.02.516.15.74M120.737 197.715a.85.85 0 0 0-.54.52c0 .2.06.78.32.86s.64-.4.75-.61a.59.59 0 0 0-.53-.77M120.657 202.885a.7.7 0 0 0-.6.27.87.87 0 0 0 0 .77.8.8 0 0 0 .269.176.78.78 0 0 0 .881-.226.74.74 0 0 0-.55-.99M118.127 197.885a1.1 1.1 0 0 0-.35-.27 1 1 0 0 0-1.186-.056 1 1 0 0 0-.404 1.116c.053.581.18 1.152.38 1.7a1.64 1.64 0 0 0 1.75.81c.37-.09 1.08-.56.72-1.25-1.08-.74-.3-1.28-.91-2.05M112.597 204.535a.55.55 0 0 0-.48.25c0 .11 0 .55.24.6s.41-.32.47-.48-.09-.35-.23-.37M105.167 195.565a.82.82 0 0 0-.414-.842.8.8 0 0 0-.316-.098c-.39 0-.48.24-.54.54s.18.77.56.72c.252-.068.492-.176.71-.32M121.737 197.345l.25-.11-.37-.08c0 .06.05.12.12.19M105.937 199.555a2 2 0 0 0-1.79 2c.08.68 1 .67 1.36.35s.29-.16.77 0 1.24.12 1.27-.78a1.7 1.7 0 0 0-1.61-1.57M104.737 193.655a1.74 1.74 0 0 0-.8-1.52 1.13 1.13 0 0 0-1.19.557 1.1 1.1 0 0 0-.14.443c-.11.51.32 1 1 1.15a.83.83 0 0 0 .719-.039.81.81 0 0 0 .411-.591M107.647 195.685a.82.82 0 0 0-.605.2.83.83 0 0 0-.285.57.77.77 0 0 0 .58.9.74.74 0 0 0 1-.6.897.897 0 0 0-.69-1.07M109.177 198.415c-.44.13-.92.26-.88.91v1.44a.68.68 0 0 0-.032.611.69.69 0 0 0 .472.389.92.92 0 0 0 1.12-.6c.098-.288.255-.554.46-.78a1.22 1.22 0 0 0 .48-1.34c-.13-.39-1.14-.78-1.62-.63M133.467 204.325c-.25.46.3.88.42 1.25h.27l.74-1.09c0-.11-.1-.21-.14-.32-.38.06-1.02-.3-1.29.16M140.117 200.295c-.39-.17-.64.26-.7.43s.12.43.19.65c.22-.08.53-.1.62-.26s.29-.65-.11-.82M124.407 201.505a.83.83 0 0 0-.648.131.83.83 0 0 0-.352.559.896.896 0 0 0 .77 1 .84.84 0 0 0 .9-.423.8.8 0 0 0 .1-.337.883.883 0 0 0-.77-.93M138.457 204.135a.5.5 0 0 0 .26.44.56.56 0 0 0 .5-.23c.05-.12-.13-.34-.25-.61-.23.17-.46.26-.51.4M146.617 204.475c-.07.22.07.92.33 1s.68-.38.73-.57a.81.81 0 0 0-.27-.69.51.51 0 0 0-.667.053.5.5 0 0 0-.123.207M142.057 202.125c-.34.74-.34 1.18.05 1.37s.88 0 1.15-.49a1.17 1.17 0 0 0-1.2-.88M145.887 199.665c-.42 0-.82 1.1-.45 1.42a.835.835 0 0 0 1.08-.07c.3-.4-.22-1.35-.63-1.35M142.587 198.605a1.3 1.3 0 0 0 .12-.48l-1.29.11a.72.72 0 0 0 .5.54c.233-.006.462-.064.67-.17M126.927 200.665c.05-.14 0-.48-.17-.53a.54.54 0 0 0-.51.22c-.07.12-.06.56.1.66s.54-.21.58-.35M134.737 202.625c-.06.11 0 .24.12.29s.23 0 .23-.06a1.4 1.4 0 0 0-.07-.34c-.06.03-.2-.01-.28.11M127.307 201.645a.55.55 0 0 0-.48.25c-.05.11 0 .55.24.6s.41-.32.47-.48a.33.33 0 0 0-.23-.37M124.677 197.645a.84.84 0 0 0-.36.48.64.64 0 0 0 .038.583.65.65 0 0 0 .492.317.79.79 0 0 0 .886-.296.79.79 0 0 0-.016-.934c-.35-.04-.7-.1-1.04-.15M128.157 198.495a.74.74 0 0 0-.571.113.75.75 0 0 0-.319.487.83.83 0 0 0 .626 1.01.82.82 0 0 0 .634-.116.84.84 0 0 0 .36-.534 1 1 0 0 0-.73-.96M102.517 197.815c-.39 0-.48.24-.54.53s.18.77.56.72q.378-.102.71-.31a.81.81 0 0 0-.73-.94"/></g><g fill="#ECF0F6"><path d="M147.567 14.355a1 1 0 0 0 .52.608 1 1 0 0 0 .8.032c.64-.15 1.28-.91 1.17-1.39a1.46 1.46 0 0 0-1.61-1 1.48 1.48 0 0 0-.88 1.75M147.987 9.895a.62.62 0 0 0 .31-.47c0-.15-.35-.29-.5-.26s-.5.32-.45.49.5.34.64.24M208.817 56.285c-.17.5-.35 1-.54 1.46.17 0 .35-.18.53-.56a.9.9 0 0 0 .01-.9M140.677 12.885a.78.78 0 0 0 .008-.522.78.78 0 0 0-.328-.408.71.71 0 0 0-1 .8.75.75 0 0 0 .62.475.74.74 0 0 0 .7-.345M153.737 12.095q.9-.57 1.83-1.08a.87.87 0 0 0-.557-1.082.87.87 0 0 0-.443-.028c-.89.1-1.14.42-1 1.31.03.29.07.58.17.88M141.537 17.735a.76.76 0 0 0-.31-.93c-.38-.19-.61 0-1 .79a.73.73 0 0 0 .611.483.73.73 0 0 0 .699-.343M143.867 16.805a.94.94 0 0 0 .69-.23 1.513 1.513 0 0 0 .2-2.13l-.32-.45q.426-.263.82-.57a.8.8 0 0 0 .2-1.24 1.27 1.27 0 0 0-1.31-.61 1.1 1.1 0 0 0-.9 1 6 6 0 0 0 0 1.1c-.14.1-.29.2-.43.32a1.66 1.66 0 0 0-.5 1.77 1.89 1.89 0 0 0 1.55 1.04M152.597 9.445c.28-.44.68-.81.31-1.32a.73.73 0 0 0-.452-.324.72.72 0 0 0-.548.094 1 1 0 0 0-.46.65c0 .65.48.84 1.15.9M183.147 87.265a.77.77 0 0 0 1 .2c.35-.24.3-.52-.21-1.22a.74.74 0 0 0-.842.636.74.74 0 0 0 .052.384M191.827 76.645l-.29.17q.148-.065.28-.16zM146.137 73.835a1.5 1.5 0 0 0-1.1-1.66 1 1 0 0 0-1.17.73.7.7 0 0 0-.25-.06 1 1 0 0 0-.9.91.77.77 0 0 0 .75.77 1 1 0 0 0 .59-.15.8.8 0 0 0 .38.33 1.47 1.47 0 0 0 1.7-.87M206.187 68.885c-.16 0-.57-.09-.64.14s.25.45.35.45.43.07.51-.19a.29.29 0 0 0-.22-.4M139.927 22.575c.71 0 .82-.39 1.28-.34s.62-.2.79-.66.38-1.17-.27-1.37-.86.19-.91.39-.4.43-.43.2-.25-.4-.83-.35a.85.85 0 0 0-.91.9 1.24 1.24 0 0 0 .384.882 1.25 1.25 0 0 0 .896.348M155.457 9.315c.6-.17.65-.51.56-.83s-.35-.64-.71-.45-.52.53-.46.73.45.42.61.55M128.797 38.925c-.1 0-.15.26-.23.41.18.08.35.22.52.21s.39-.25.34-.46-.46-.19-.63-.16M127.737 34.995a.75.75 0 0 0 .236-.962.75.75 0 0 0-.236-.268c-.21-.12-.69.21-1 .37-.09.05-.11.24-.2.46.4.15.86.69 1.2.4M127.037 39.995c-.14 0-.47.31-.45.5s.5.29.63.24.36-.32.32-.47a.56.56 0 0 0-.5-.27M128.447 48.155c-.51.1-.5.79-.71 1.12l.15.22 1.32-.11.16-.31c-.27-.27-.41-1.01-.92-.92M129.417 28.515a.66.66 0 0 0-.465.605.7.7 0 0 0 .045.265.595.595 0 0 0 .509.459q.123.014.241-.019a.64.64 0 0 0 .57-.76.72.72 0 0 0-.9-.55M131.427 57.755a.56.56 0 0 0-.31-.45c-.11 0-.54.1-.56.31s.36.37.53.41.34-.11.34-.27M130.847 48.255c-.08 0-.13-.18-.26-.15s-.15.19-.16.27.18.16.2.14q.13-.113.22-.26M135.067 25.125a1.4 1.4 0 0 0-.51 1.73c.21.62.76.8 1.53.51a1.15 1.15 0 0 0 .63-1.25c-.17-.5-1.25-1.12-1.65-.99M134.007 20.605q.458.664 1 1.26a.538.538 0 0 0 .92.012.54.54 0 0 0 .08-.352c0-.58.13-1.22-.34-1.75l-.81-.1c-.38-.66-1-1.08-1.4-.9a.76.76 0 0 0-.48.83c-.02.69.21.88 1.03 1M137.737 30.075c.11.308.292.586.53.81q.34-.95.75-1.86a1.22 1.22 0 0 0-.77 0 1 1 0 0 0-.51 1.05M137.527 17.285c.24-.05.26-.44.22-.52s-.16-.41-.43-.35a.3.3 0 0 0-.204.143.3.3 0 0 0-.026.247c.05.19.2.54.44.48M131.097 31.605a.84.84 0 0 0 1.09.45.94.94 0 0 0 .62-1c-.12-.38-.81-.82-1.11-.7a1.17 1.17 0 0 0-.6 1.25M130.797 22.895c.38-.19.41-1.55 0-1.82s-1.23.54-1.12 1.06.75.96 1.12.76M132.387 23.675c.15-.08.43-.32.39-.53s-.49-.22-.56-.16a.8.8 0 0 0-.24.5c0 .05.33.23.41.19M134.257 29.655c.59-.2.78-.69.52-1.41-.18-.5-.56-.77-1-.67a1.81 1.81 0 0 0-1 1.53c.25.6.75.79 1.48.55M188.817 83.785c0-.18 0-.36-.06-.53a1.66 1.66 0 0 0-1.28-1.33 1.74 1.74 0 0 0-1 .21.42.42 0 0 0-.24-.12 13 13 0 0 0-1.25.25c-.8-.63-1.6-.75-2-.27a1.69 1.69 0 0 0 .3 2c.54.45.92.32 1.86-.75q.248.197.52.36a1.503 1.503 0 0 0 1.69 1.1h.54c0 .35 0 .68.09 1 .11.61.36.81 1 .79a1.25 1.25 0 0 0 1.18-.83 1.104 1.104 0 0 0-.4-1.27 5 5 0 0 0-.95-.61M167.037 81.215a.805.805 0 0 0 .406.835.8.8 0 0 0 .314.095c.53.11.93-.06 1-.42a1 1 0 0 0-.11-.54c-.61-.08-1.22-.17-1.83-.28q.143.1.3.18s-.07.08-.08.13M146.187 76.395c.62.15 1.14.2 1.4-.38a.8.8 0 0 0-.17-.74 1.22 1.22 0 0 0-1-.17c-.58.24-.3.77-.23 1.29M176.017 83.635a.92.92 0 0 0 .64-.54.66.66 0 0 0-.48-.92.72.72 0 0 0-.87.46c-.13.36.43 1.06.71 1M180.597 81.685a.71.71 0 0 0 .58-.33 1 1 0 0 0 0-.67l-1.19.22c0 .42.15.73.61.78M135.607 36.615c.34 0 .78-.65.75-1.07a.63.63 0 0 0-.77-.55c-.68.1-1.1.37-1.08.71a1.38 1.38 0 0 0 1.1.91M189.337 79.665a.91.91 0 0 0-.24-.75.7.7 0 0 0-.65-.1c-.47.26-.46.69-.22 1.17.43.08.91.21 1.11-.32M134.187 52.305a1.4 1.4 0 0 0 1.15-.91c.22-.07.51-.23.42-.56a.4.4 0 0 0-.23-.26v-.06a2 2 0 0 0-2.18-1.52c-.66.17-.54 1.06-.18 1.4s.2.27.09.76.03 1.24.93 1.15M134.897 33.345a1 1 0 0 0 .81 0 .8.8 0 0 0 .23-.65 6 6 0 0 0-.3-1.25c-.1-.36-.36-.43-.73-.29 0 .1-.19.25-.17.35a1.7 1.7 0 0 1-.21 1.13c-.06.18.21.59.37.71M140.337 24.885a1.3 1.3 0 0 0-1.13.53c-.22.41-.63.76-.52 1.15a.8.8 0 0 0 .165.333q.12.148.295.227c.174.145.379.247.6.3.39-.79.81-1.57 1.26-2.33a1.2 1.2 0 0 0-.67-.21M208.077 58.255c-.15.37-.31.73-.48 1.09a.6.6 0 0 0 .32-.15c.46-.42.31-.77.16-.94M206.857 61.865a.75.75 0 0 0-.26-.46c-.23.45-.48.9-.73 1.34a.76.76 0 0 0 .57-.12 1 1 0 0 0 .42-.76M131.437 62.595c-.16 0-.22.18-.23.26s.17.19.24.19.22-.08.22-.19a.24.24 0 0 0-.23-.26M202.247 77.085a1.22 1.22 0 0 0-1.57.93 1.64 1.64 0 0 0 1.26 1.9 1.68 1.68 0 0 0 1.66-1.17c.14-.75-.39-1.44-1.35-1.66M173.297 81.495l.08.07a.55.55 0 0 0 .44-.08h-.52zM201.617 72.635a1.39 1.39 0 0 0 1.61-.79c.1-.43-.7-1.34-1.26-1.43a1.14 1.14 0 0 0-1.112.962 1.14 1.14 0 0 0 .762 1.258M194.937 77.195a1 1 0 0 0-.113-.816 1 1 0 0 0-.687-.454.69.69 0 0 0-.85.49.89.89 0 0 0 .26 1.09 1 1 0 0 0 1.39-.31M196.387 76.835a.83.83 0 0 0 1-.63.86.86 0 0 0-.369-.882.86.86 0 0 0-.957.003.87.87 0 0 0-.364.55 1 1 0 0 0 .69.96zM136.897 59.605a.8.8 0 0 0 .37-.64.51.51 0 0 0-.241-.406.52.52 0 0 0-.469-.044c-.22.08-.68.63-.57.88s.75.29.91.21M139.217 64.995a.84.84 0 0 0-.58-.47c-.21 0-.77.16-.81.43s.47.58.69.66.8-.31.7-.62M135.587 47.085c.095.241.23.464.4.66h.09c0-.41-.07-.83-.1-1.25a.5.5 0 0 0-.39.59M139.267 68.575a.65.65 0 0 0-.83.63.79.79 0 0 0 .115.659.8.8 0 0 0 .575.341.81.81 0 0 0 .709-1.3.82.82 0 0 0-.569-.33M144.287 20.355c.18-.23.37-.45.56-.67a.5.5 0 0 0-.27.09.76.76 0 0 0-.29.58M155.577 77.455c0 .24-.06.48.11.69s.55.08.7-.26q.075-.208.08-.43c-.29-.14-.57-.28-.85-.44a1.3 1.3 0 0 0-.04.44M142.057 66.535a1 1 0 0 0 1-.56c-.39-.53-.75-1.07-1.11-1.62-.54 0-.93.3-1 .74a1.77 1.77 0 0 0 1.11 1.44M140.737 62.335c-.26-.45-.5-.91-.73-1.36h-.06a.55.55 0 0 0-.32.44c0 .12.28.47.48.42s.15-.13.18-.24c.075.285.231.542.45.74M133.267 38.655c.15.66 1.17 1.07 2 .81a1.092 1.092 0 0 0 .77-1.45 1.34 1.34 0 0 0-.663-.927 1.33 1.33 0 0 0-1.137-.073 1.42 1.42 0 0 0-.97 1.64M132.177 33.995a.634.634 0 0 0-.481.593.64.64 0 0 0 .051.267c.14.58.75 1 1.17.9a1.3 1.3 0 0 0 .84-1.25c-.14-.51-.88-.72-1.58-.51M136.147 58.135c.39.08.92-.23.86-.58s-.25-1-.66-1-.56.56-.63.81a.53.53 0 0 0 .016.496.54.54 0 0 0 .414.274M134.407 54.595l.21.07a.72.72 0 0 0 .66.33 1.21 1.21 0 0 0 1.35.28 1.67 1.67 0 0 0 .44-1.68c-.19-.43-.37-.89-1-.76-.47.09-1 .11-1.43.16a.692.692 0 0 0-1 .57.89.89 0 0 0 .168.677.9.9 0 0 0 .602.353M132.987 47.085c.45-.12.78-1 .62-1.59a1.005 1.005 0 0 0-.818-.795 1 1 0 0 0-.402.015c-.67.2-1.18 1-1 1.49a1.44 1.44 0 0 0 1.6.88M131.307 39.655a1.25 1.25 0 0 0-.486 1.604 1.247 1.247 0 0 0 1.546.646c.62-.22 1-.85.83-1.31a1.694 1.694 0 0 0-1.89-.94M161.097 8.525l-.11.08.2-.07s-.08-.02-.09-.01M192.897 79.255c-.79-.17-1.24 0-1.4.62a1.43 1.43 0 0 0 .85 1.58 1.52 1.52 0 0 0 1.54-1c.12-.46-.38-1.06-.99-1.2M165.667 84.865a2 2 0 0 0-2.15 1.13 1.6 1.6 0 0 0 1.09 1.79 1.57 1.57 0 0 0 1.84-1 1.58 1.58 0 0 0-.78-1.92M155.637 80.995a1.39 1.39 0 0 0-1.42 1.12c-.13.7.29 1.22 1.1 1.35a1.12 1.12 0 0 0 1.44-1 1.32 1.32 0 0 0-1.12-1.47M192.317 82.555c-.31-.06-.65.61-.69.85s.28.47.5.55.63 0 .6-.4-.1-.94-.41-1M195.457 80.475c-.17.16-.53.36-.67.67s.22.93.74 1a.74.74 0 0 0 .83-.67 1 1 0 0 0-.9-1M194.837 86.825c-.3 0-1.06.13-1.11.43s.56.72.83.86.72-.2.76-.58-.09-.72-.48-.71M190.897 88.115c-.16 0-.5-.11-.62.14s.21.48.29.48a.7.7 0 0 0 .49-.21c.05-.06-.08-.4-.16-.41M175.157 86.265c-.29-.07-.66.31-.75.77a.46.46 0 0 0 .194.567.46.46 0 0 0 .206.063c.38.06.74 0 .87-.44a.88.88 0 0 0-.52-.96M177.567 81.625c.14.28.53.18.73-.12q.101-.169.15-.36c-.31 0-.62.09-.94.12a.6.6 0 0 0 .06.36M176.337 89.995c-.23 0-.64.07-.72.24s.16.58.34.67.8 0 .86-.25-.34-.66-.48-.66M197.317 83.995a.89.89 0 0 0-1 .56 1 1 0 0 0 .55 1.08.83.83 0 0 0 .94-.57.92.92 0 0 0-.49-1.07M173.297 83.485c-.16 0-.52 0-.59.26s.3.43.38.42a.72.72 0 0 0 .44-.3c.04-.06-.14-.38-.23-.38M186.257 87.785a1.38 1.38 0 0 0-1.54.77 1 1 0 0 0 .61 1.14 1.19 1.19 0 0 0 1.37-.81.814.814 0 0 0-.44-1.1M180.357 83.165a1.35 1.35 0 0 0-1.73 1 1.72 1.72 0 0 0 1.17 2 1.8 1.8 0 0 0 1.88-1.17c.23-.82-.32-1.57-1.32-1.83M179.427 87.995a.47.47 0 0 0-.61.21c-.13.31.29.43.45.5s.39-.14.38-.21a.61.61 0 0 0-.22-.5M163.887 81.995c.09 0 .39-.14.39-.21a.65.65 0 0 0-.22-.5.45.45 0 0 0-.61.21c-.13.33.29.44.44.5M206.957 74.665a.53.53 0 0 0-.45.36c0 .18-.05.54.15.57a.58.58 0 0 0 .51-.29c.05-.13 0-.62-.21-.64M149.617 74.045a1.01 1.01 0 0 0-.4-.77c-.25-.07-.59.18-.79.26-.15.6.12.81.43.9s.74.01.76-.39M162.427 83.195a1 1 0 0 0-.33-.73c-.55-.34-1 0-1.34.53.23.47.35 1 1 .93a.71.71 0 0 0 .67-.73M194.737 86.155a.7.7 0 0 0 .252-.672.72.72 0 0 0-.462-.548.73.73 0 0 0-.657.288.72.72 0 0 0-.093.712.77.77 0 0 0 .96.22M208.207 64.345c-.18 0-.5.29-.52.44a.63.63 0 0 0 .25.5c.13.07.42-.15.47-.29s-.02-.6-.2-.65M139.287 66.145c-.59-.14-1 .06-1.09.57a1.43 1.43 0 0 0 .78 1.71 1.27 1.27 0 0 0 1.24-1 1.136 1.136 0 0 0-.93-1.28M198.603 78.538c-.66-.09-1.17.67-1.2.94a1.185 1.185 0 0 0 1.26.82.91.91 0 0 0-.06-1.76M201.207 74.995a1.16 1.16 0 0 0-.544-1.247 1.2 1.2 0 0 0-.456-.153c-.57-.12-1 .24-1.17 1s.09 1.15.56 1.23a2.1 2.1 0 0 0 1.61-.83M131.737 51.935a.51.51 0 0 0-.18.48.59.59 0 0 0 .49.25c.13 0 .19-.32.32-.57-.29-.1-.5-.21-.63-.16M169.577 87.625a.73.73 0 0 0-.857.202.7.7 0 0 0-.143.278.84.84 0 0 0 .54 1 .71.71 0 0 0 .815-.213.7.7 0 0 0 .135-.267.85.85 0 0 0-.49-1M205.087 72.315c-.49-.12-.75.52-.92.79s.08.68.5.8.77 0 .78-.47.13-1-.36-1.12M204.967 75.785a.47.47 0 0 0-.508.246.5.5 0 0 0-.052.194.52.52 0 0 0 .42.48.44.44 0 0 0 .53-.3.46.46 0 0 0-.39-.62M141.787 75.055c-.37 0-.91.65-.81.9s.45.37.75.43a.5.5 0 0 0 .63-.54c-.02-.38-.11-.73-.57-.79M143.607 70.605a1.646 1.646 0 0 0-1.43-1.44c-.44 0-.88.51-.88 1.07a1.1 1.1 0 0 0 .265.866 1.1 1.1 0 0 0 .825.374c.62.01 1.22-.42 1.22-.87M143.397 78.115a.59.59 0 0 0-.44.49.51.51 0 0 0 .35.4c.12 0 .39-.18.4-.31s-.07-.6-.31-.58M146.047 78.795a.83.83 0 0 0-.78.88.8.8 0 0 0 .263.582.79.79 0 0 0 .607.198c.55 0 .9-.23.88-.6a1.34 1.34 0 0 0-.97-1.06M144.397 81.635c-.16 0-.22.18-.23.26s.17.19.24.19.22-.07.22-.19a.24.24 0 0 0-.23-.26M172.107 85.085a.82.82 0 0 0-1 .62.65.65 0 0 0 .023.58.64.64 0 0 0 .477.33.79.79 0 0 0 1-.57.85.85 0 0 0-.5-.96M134.737 59.915a1.1 1.1 0 0 0-.327-.847 1.1 1.1 0 0 0-.853-.313c-.71 0-1.26.41-1.24 1a1.61 1.61 0 0 0 1.42 1.4c.53.04 1.05-.61 1-1.24M133.737 64.995a.87.87 0 0 0-.75.07.77.77 0 0 0-.039.906q.091.136.229.224c.24.15.87-.11.91-.65a.67.67 0 0 0-.35-.55M135.917 69.085a.85.85 0 0 0-.81-1 .91.91 0 0 0-.9.89.83.83 0 0 0 .237.648.84.84 0 0 0 .643.252.88.88 0 0 0 .83-.79M147.467 82.535c-.12 0-.56.17-.56.31s.36.37.53.41.35-.21.34-.28-.17-.4-.31-.44M139.377 72.425a.757.757 0 0 0-.71-.81.842.842 0 0 0-1.016.745.836.836 0 0 0 .866.915 1 1 0 0 0 .86-.85M135.837 71.535c-.11 0-.54.1-.56.32s.36.36.53.4.34-.1.34-.27a.56.56 0 0 0-.31-.45M140.027 76.905c-.23-.06-1.13.34-1.15.76s.93.76 1.28.77a.93.93 0 0 0 .81-.73c.03-.41-.58-.71-.94-.8M138.947 61.995a1.05 1.05 0 0 0-.173-1.078 1.05 1.05 0 0 0-1.037-.342 6.5 6.5 0 0 0-1.65.59 1.65 1.65 0 0 0-.58 1.84c.13.36.69 1 1.34.56.59-1.17 1.22-.47 1.92-1.16q.122-.19.18-.41M143.607 68.095c0 .45.64 1.08 1.17 1.12a1 1 0 0 0 .66-.24c-.5-.55-1-1.12-1.43-1.7-.223.22-.364.51-.4.82M158.737 79.135a1.37 1.37 0 0 0-1.52 1.32 1.706 1.706 0 0 0 1.52 1.71 1.8 1.8 0 0 0 1.63-1.5c.05-.81-.63-1.45-1.63-1.53M147.207 70.835a1 1 0 0 0-.17 0 .78.78 0 0 0-.72.9c0 .38.09.81.5.83.71 0 1.13-.32 1.15-.76a1 1 0 0 0 0-.26zM158.737 84.075a.447.447 0 0 0-.56.31c-.07.34.37.37.53.41s.36-.2.34-.27-.21-.41-.31-.45M171.547 81.795a.7.7 0 0 0 0-.35h-.61a.2.2 0 0 0 0 .11c0 .18 0 .54.16.56a.56.56 0 0 0 .45-.32M156.007 86.545c-.23 0-.62.19-.66.37s.26.54.45.59.78-.17.8-.39-.45-.58-.59-.57M164.797 84.655a1.19 1.19 0 0 0 1.2-1q.015-.145 0-.29a.25.25 0 0 0-.09-.23.7.7 0 0 0-.56-.45 1.36 1.36 0 0 0-1.36 1 .94.94 0 0 0 .81.97M169.297 84.615a1.306 1.306 0 0 0-1.37-1.26 1.38 1.38 0 0 0-1.2 1.35c0 .71.51 1.15 1.33 1.13a1.13 1.13 0 0 0 1.24-1.22M162.337 85.785c-.16 0-.22.18-.23.26s.17.19.24.19.22-.08.23-.19a.3.3 0 0 0-.015-.096.25.25 0 0 0-.225-.163zM151.017 76.045a1 1 0 0 0-.94-.88 1.15 1.15 0 0 0-1.16 1c0 .58.61 1.33 1.1 1.34s.98-.81 1-1.46M149.477 78.815c-.2 0-.38.33-.38.44s.06.54.26.53a.57.57 0 0 0 .44-.37c.03-.15-.06-.62-.32-.6M150.957 82.555a.81.81 0 0 0-.87.79.65.65 0 0 0 .66.8.8.8 0 0 0 .89-.75.83.83 0 0 0-.68-.84M152.167 80.145c-.3 0-.59.42-.6.9s.17.55.52.54.72-.13.77-.59a.866.866 0 0 0-.69-.85M154.527 80.405a.89.89 0 0 0 .53-.65.67.67 0 0 0-.117-.562.66.66 0 0 0-.513-.258.73.73 0 0 0-.77.62c-.08.34.56.97.87.85M151.557 78.845c.25.09.86-.43.84-.84s-.31-.45-.6-.46-.75.27-.65.64.15.58.41.66M154.987 76.665c-.67-.38-1.34-.78-2-1.2h-.09a.753.753 0 0 0-.33 1 .79.79 0 0 0 1 .4 2.5 2.5 0 0 1 .72-.13c.236.024.474 0 .7-.07M182.737 90.355c-.15 0-.25.14-.27.21s.13.23.2.24a.26.26 0 0 0 .26-.15.3.3 0 0 0 .003-.098.25.25 0 0 0-.193-.202"/></g><g fill="#00BFB3"><path d="M176.907 25.395h-7.29v36.46h7.29z"/><path d="M191.487 47.265v-7.29h-36.46v7.29z"/></g><path fill="#DAE0EB" d="M144.467 20.225c13-15 39.55-15.93 53.23-1.19 6.52 7 10.22 17 10.53 26.51.19 4.85-.61 9.688-2.35 14.22-2.3 5.83-6.34 9.82-10.37 14.43a.759.759 0 0 0 .92 1.19c9.84-5.32 14.4-18 14.33-28.61s-4.12-21.65-11.4-29.41c-14.57-15.53-42.56-14.37-55.4 2.46-.23.3.27.68.51.4"/><g fill="#DAE0EB"><path d="M173.067 190.155a80.5 80.5 0 0 0 38.84-42.56 83.9 83.9 0 0 0 6-29.68c.17-9.9-.86-22-6-30.7a.779.779 0 0 0-1.42.6c1.79 10.21 4.93 19.54 4.8 30.1a81.5 81.5 0 0 1-5.48 28.38 86.5 86.5 0 0 1-37.07 43.28c-.38.22 0 .77.34.58z"/><path d="M225.047 92.925c-.34-1.93-4-3.06-5.45-3.76-2.45-1.18-4.91-2.63-7.47-3.57-1.76-.65-2.74-.46-3.42 1.4a89 89 0 0 0-4.07 13.61.47.47 0 0 0 .86.36 40.6 40.6 0 0 0 4.59-8.12c.48-1.08.78-2.56 1.23-3.81.32.15.67.27.9.4l4.91 2.56c1.74.9 4.61 2.54 7.33 2.42.61-.06.69-.95.59-1.49"/></g><g fill="#DAE0EB"><path d="M63.117 87.115c5-11.49 12.33-21.91 22.24-29.7a81.4 81.4 0 0 1 17.09-10.13c6.69-3 14.15-4.33 20.68-7.54a.78.78 0 0 0-.39-1.45c-7.32.29-15 3.76-21.58 6.77a83.5 83.5 0 0 0-17 10.26 65.1 65.1 0 0 0-21.66 31.53c-.12.35.46.61.62.26"/><path d="M114.597 31.305a21.1 21.1 0 0 0 6.14 7.33c.87.63 1.19.46 1.11.89s-1.18 1.22-1.42 1.46c-1.69 1.74-5.7 5.51-6.17 7.66-.16.7.61 1.4 1.36 1.37 1.72-.07 3.1-2 4.15-3.14 1.48-1.63 3.14-3.2 4.49-5 1-1.31 1.55-2.61.55-4.14-.9-1.35-3-2.31-4.2-3.28a42 42 0 0 0-5.38-3.84.469.469 0 0 0-.64.64z"/></g><path fill="#F9B110" d="M175.737 199.325h-23.87v-17.82l11.69-11.69h12.18z"/><path fill="#FEC514" d="M163.557 169.815v11.69h-11.69z"/><path fill="#F9B110" d="M86.517 78.835h-32.67v-24.37l16-16h16.67z"/><path fill="#FEC514" d="M81.857 68.465h-22.67v3.33h22.67zM81.857 61.125h-22.67v3.33h22.67zM69.847 38.465v16h-16z"/><path fill="#07C" d="M159.707 92.085H39.217c-5.666 0-10.26 4.594-10.26 10.26v25.26c0 5.666 4.593 10.26 10.26 10.26h120.49c5.666 0 10.26-4.594 10.26-10.26v-25.26c0-5.666-4.594-10.26-10.26-10.26"/><path fill="#F04E98" d="M61.007 123.085a8.91 8.91 0 0 0 8.91-8.91 8.91 8.91 0 1 0-8.91 8.91"/><g fill="#343741"><path d="M145.737 100.495h-6v29h6zM133.737 100.495h-6v29h6z"/></g><g fill="#006ABB"><path d="M29.557 109.405s.06 0 .08-.08a1.09 1.09 0 0 0-.5-1.47 1 1 0 0 0-.18 0v2.14c.231-.162.434-.361.6-.59M38.797 135.065a1.8 1.8 0 0 0-2.13-.92 1.68 1.68 0 0 0-.68.94.62.62 0 0 0-.41-.26h-.06a1.43 1.43 0 0 0 .17-.74 1.25 1.25 0 0 0-.19-.54c.366.074.746.002 1.06-.2.49-.29.79-1 .57-1.37a1.525 1.525 0 0 0-1.73-.59.9.9 0 0 0-.19.15q.015-.135 0-.27a.46.46 0 0 0 .23-.6c-.1-.29-.2-1-.7-.94a.48.48 0 0 0-.32.15 5 5 0 0 0-.52-.38 1.16 1.16 0 0 1-.45-.51 1.073 1.073 0 0 0-1.204-.816 1.1 1.1 0 0 0-.486.206.56.56 0 0 0-.09-.3.936.936 0 0 0-1.21-.08 1 1 0 0 0-.44 1.31.7.7 0 0 0 .43.31 1 1 0 0 0-.06.36 1.13 1.13 0 0 0 1.17 1.16q.263-.032.5-.15a1 1 0 0 1 0 .26c0 .66.56 1 1 1.31a1.5 1.5 0 0 0 1.63-.25l.11-.12a1.43 1.43 0 0 0 .09.92 2 2 0 0 0-1.1-.16 1.23 1.23 0 0 0-1.1.78.69.69 0 0 0-.59.07c-.256.14-.478.335-.65.57q.662.753 1.46 1.36a.9.9 0 0 0 .25-.4 1.62 1.62 0 0 0 1.25.39q.175-.034.33-.12a.6.6 0 0 0 .49.55.73.73 0 0 0 .62-.11q.04.179.13.34a1.72 1.72 0 0 0 2.15.46 1.37 1.37 0 0 0 .67-1.77M36.837 137.455a.7.7 0 0 0-.28 0l.59.15a.55.55 0 0 0-.31-.15M28.957 123.605v2a.7.7 0 0 0 .41 0 1.12 1.12 0 0 0 .544-1.184 1.1 1.1 0 0 0-.174-.426.8.8 0 0 0-.78-.39"/><path d="M32.077 132.665a.92.92 0 0 0-1.23-.3.7.7 0 0 0-.19.19 1 1 0 0 0-.16 0 .8.8 0 0 0-.22.07c.34.599.735 1.165 1.18 1.69a2.3 2.3 0 0 0 .43-.58.84.84 0 0 0 .19-1.07M30.377 123.635a1.76 1.76 0 0 0 .09 1.51c.24.55 0 1.12.45 1.53a2.63 2.63 0 0 0 2.33.64.59.59 0 0 0 0 .86c.23.23.63.38.84 0a.9.9 0 0 0 0-.87.87.87 0 0 0-.55-.15 2.23 2.23 0 0 0 1.41-1.73c.06-.7-.78-1-1-1.73a1.86 1.86 0 0 0-.82-1.13.84.84 0 0 0 .28-.51c.06-.11.12-.21.19-.36-.32-.35-.56-.88-1.19-.61a.8.8 0 0 0-.455.397.78.78 0 0 0-.035.603q.078.191.22.34c-.372.05-.732.168-1.06.35a1.73 1.73 0 0 0-.7.86M35.427 127.785a.82.82 0 0 0 .615-.211.82.82 0 0 0 .275-.589.684.684 0 0 0 .8-.33 1 1 0 0 0 .08-.8c-.31-.57-.82-.49-1.43-.21v.47a.8.8 0 0 0-.22-.08.91.91 0 0 0-.77.42 1 1 0 0 0 .285 1.135q.162.135.365.195M29.327 125.995a.94.94 0 0 0-.37-.33v2.47a2 2 0 0 0 .28-.11c.56-.29.5-1.26.09-2.03M39.177 134.865a.53.53 0 0 0 .38-.43c0-.15-.19-.59-.39-.55a.54.54 0 0 0-.32.49c.04.18.13.53.33.49M29.927 127.575a.56.56 0 0 0 .57 0c.12-.09.32-.54.15-.66a.52.52 0 0 0-.58.09c-.1.15-.33.45-.14.57M43.027 124.805a.76.76 0 0 0-.22-.36c-.06-.18-.23-.45-.38-.43s-.14.08-.21.17 0 0-.08 0c-.48.13-.67 1.2-.34 1.45s1.32-.35 1.23-.83M42.427 132.135c-.07-.25-.42-.61-.62-.6s-.5.36-.67.49a.2.2 0 0 0 0 .09 1.14 1.14 0 0 0-1 .18c-.58.37-.79.94-.49 1.37a1.66 1.66 0 0 0 2 .48 1.21 1.21 0 0 0 .17-1.4c.35-.02.72-.22.61-.61M36.737 100.125a1.45 1.45 0 0 0 .24 1.71 1.47 1.47 0 0 0 1.52-.28 1 1 0 0 0-.11-1.2c-.65-.55-1.28-.64-1.65-.23M38.657 103.615a1.3 1.3 0 0 0-.78.09 1.72 1.72 0 0 0-.86 1.24 1.29 1.29 0 0 0 .6 1.22 1.13 1.13 0 0 0 1.13 0 1.36 1.36 0 0 0 .71-1c0-.47.17-1-.12-1.26a.82.82 0 0 0-.68-.29M40.237 107.995c-.61.34-.52.74-.93.93s-.45.49-.36 1 .24 1.2.91 1.06.65-.6.59-.79.14-.58.28-.39.42.22.89-.11a.86.86 0 0 0 .449-.537.86.86 0 0 0-.1-.693 1.26 1.26 0 0 0-1.26-.63 1.3 1.3 0 0 0-.47.16zM42.417 112.445a.74.74 0 0 0-1.17.51.77.77 0 0 0 .74.65c.42-.03.52-.29.43-1.16M42.737 101.565c-.49-.42-1.06-.31-1.59.32a1.17 1.17 0 0 0 .08 1.4 1.92 1.92 0 0 0 1.93 0 1.44 1.44 0 0 0-.42-1.72M39.677 126.275c.13-.1.3-.33.21-.53s-.4-.21-.55-.16-.45.35-.3.6.53.16.64.09M41.537 129.895a.78.78 0 0 0-.24 1 .6.6 0 0 0 .42.324.6.6 0 0 0 .51-.144c.155-.232.27-.489.34-.76-.31-.48-.71-.61-1.03-.42M42.337 118.285a6 6 0 0 0-.54-1 3.5 3.5 0 0 0 .21-.48 1.65 1.65 0 0 0-.44-1.79 1.9 1.9 0 0 0-1.88-.14 1 1 0 0 0-.48.54 1.52 1.52 0 0 0 .88 2l.5.22c-.15.32-.32.61-.43.91q-.068.2-.09.41c-.1.05-.12.19-.12.33l-.61-.1a5 5 0 0 0-.22-.49 1.69 1.69 0 0 0-1.64-.85 1.8 1.8 0 0 0-.73.4.56.56 0 0 0-.17-.26.665.665 0 0 0-.74.12c-.2.23.2.68.35.74s.06 0 .09 0l-.09.2a1.51 1.51 0 0 0-.27 1.72c.19.182.43.304.69.35a1.16 1.16 0 0 0-.84.13 1.41 1.41 0 0 0-.45 1.84 1.55 1.55 0 0 0 1.72.78 1.2 1.2 0 0 0-.13.58c0 .66.63 1.44 1.12 1.43a1.49 1.49 0 0 0 1.31-1.14 1.2 1.2 0 0 0 1.13-.48.74.74 0 0 0-.24-1c.05-.16.08-.32 0-.4s-.57 0-.67.12a.65.65 0 0 0-.07.45 3 3 0 0 0-.28.59 1.7 1.7 0 0 0-1.3-.71 1.11 1.11 0 0 0 .12-1.27 2.08 2.08 0 0 0-1.34-.89 1.43 1.43 0 0 0 1.14-.27.8.8 0 0 0 .17-.27c.1 0 .18 0 .28-.08l.49-.22c.14.32.25.63.41.92a.8.8 0 0 0 .48.501.8.8 0 0 0 .69-.071 1.24 1.24 0 0 0 .86-1.16 1 1 0 0 0-.19-.63 1.2 1.2 0 0 0 1-.27 1.11 1.11 0 0 0 .32-1.31M35.737 116.705a.77.77 0 0 0 1-.13c.25-.33.12-.58-.59-1.08a.731.731 0 0 0-.41 1.21M36.857 113.135a.6.6 0 0 0 .22 0 .47.47 0 0 0 .32.09c.16 0 .43-.07.42-.34a.27.27 0 0 0-.2-.29c.1-.49-.23-.83-.69-1.07-.45.16-.91.37-.88.94a.73.73 0 0 0 .81.67M40.257 131.765c.17 0 .53-.1.58-.31s-.09-.23-.21-.3a1 1 0 0 0 0-.16c.08-.8-.14-1.13-.85-1.2.226-.465.349-.973.36-1.49a1.5 1.5 0 0 0-.11-.43 1.048 1.048 0 0 0-1.91-.13 6 6 0 0 0-.64 1.31c-.09-.63-.33-.65-1.14-.44-.25.6 0 1 .58 1.24-.28 1.52.46 2 2 1.5q.13.088.23.21a.74.74 0 0 0 .508.362.73.73 0 0 0 .602-.162M62.917 132.575c.52.38.95.24 1.34-.26 1.41.64 2.08.05 2-1.58q.119-.102.26-.17c.43-.17.49-.5.44-.9a.79.79 0 0 0-.63-.67c-.84-.3-1.21-.11-1.45.75-.18.66-.39 1.3-.58 1.94-1.27-.27-1.38-.18-1.38.89M63.247 136.405c-.43-.07-1.28.81-1.33 1.37v.09h2.24a1.38 1.38 0 0 0-.91-1.46M49.287 132.665c-.13.16-.55.21-.48 0s0-.48-.59-.68a.87.87 0 0 0-1.01.118.9.9 0 0 0-.21.292 1.27 1.27 0 0 0 .62 1.67c.64.31.91 0 1.3.24s.66.1 1-.24c.09-.09.19-.19.28-.3a1 1 0 0 0 1.14.21 1.37 1.37 0 0 0 .64-1.68 1.48 1.48 0 0 0-1.75-.51 1 1 0 0 0-.39.68.58.58 0 0 0-.55.2M65.597 126.685a.72.72 0 0 0-.78-.63 1 1 0 0 0-.71.38c-.29.58.06 1 .63 1.3.45-.27 1-.42.86-1.05M75.137 135.995a1 1 0 0 0 .69-.39 1 1 0 0 0 .19-.77 1.56 1.56 0 0 0-.8-1 .52.52 0 0 0-.4-.23.846.846 0 0 0-.92.61v.06a1.27 1.27 0 0 0-.28 1c.12.47.89.86 1.52.72M53.737 137.175a1.18 1.18 0 0 0-.768-.651 1.2 1.2 0 0 0-.992.171 1.3 1.3 0 0 0-.17.15.6.6 0 0 0-.24-.07c-.32-.05-.66 0-.78.38a.76.76 0 0 0 .27.71h2.82a1.2 1.2 0 0 0-.14-.69M44.247 106.875c.3.49.49 1.12 1.16 1.35l.75-.32c.67.39 1.4.44 1.67.09a.77.77 0 0 0 0-1c-.41-.57-.7-.62-1.47-.31q-.709-.359-1.46-.62a.54.54 0 0 0-.65.81M51.177 130.395a.77.77 0 0 0 .12-1c-.26-.33-.54-.26-1.2.31a.74.74 0 0 0 1.08.69M45.477 96.605a.65.65 0 0 0-.12 1 .74.74 0 0 0 1.06 0 .65.65 0 0 0-.07-1 .6.6 0 0 0-.87 0M46.167 103.905c.14.17.53 0 .56-.14a.8.8 0 0 0 0-.55.56.56 0 0 0-.45 0c-.13.18-.25.53-.11.69M81.077 129.885c0-.15-.27-.5-.47-.49s-.32.48-.28.61.29.39.45.35a.55.55 0 0 0 .3-.47M49.927 126.125c-.12.07-.12.35-.19.63.28 0 .52.1.65 0a.5.5 0 0 0 .07-.5.58.58 0 0 0-.53-.13M79.787 133.515a1.176 1.176 0 0 0-1.048 1.021 1.2 1.2 0 0 0 .048.519c.17.63.77 1.08 1.25.93a1.696 1.696 0 0 0 1.07-1.82 1.18 1.18 0 0 0-1.32-.65M44.407 116.725a.78.78 0 0 0 .74.66.709.709 0 0 0 .42-1.17.737.737 0 0 0-1.019.162.74.74 0 0 0-.141.348M45.567 111.995a.3.3 0 0 0 .102-.23.31.31 0 0 0-.102-.23c-.12-.11-.45-.36-.63-.2s0 .52.08.57.34.28.55.09M46.737 128.735c.2.38.66.19.81.1s.18-.37.25-.59c.24.05.43-.29.43-.38s0-.44-.23-.5a.3.3 0 0 0-.13-.008.3.3 0 0 0-.121.046.31.31 0 0 0-.139.212.9.9 0 0 0 .06.53c-.18-.08-.37-.18-.51-.13s-.67.34-.42.72M80.987 137.865h2.55a2 2 0 0 0 0-.55 1.43 1.43 0 0 0-1.53-1.12c-.61.09-1.06.87-1.02 1.67M46.987 136.305a1.34 1.34 0 0 0-1.25 0c-.37.27-.9.42-1 .81a.82.82 0 0 0 .16.71v.05h3a1.5 1.5 0 0 0-.41-.25q.03-.195 0-.39a1.13 1.13 0 0 0-.5-.93M99.737 135.055c.3-.38-.44-1.27-1-1.2s-1 .67-.84 1.06 1.51.52 1.84.14M89.617 136.305c.39-.09.88-.75.79-1.06a1.2 1.2 0 0 0-1.23-.69.84.84 0 0 0-.53 1.05.93.93 0 0 0 .97.7M81.847 132.335c.2 0 .23-.45.21-.61s-.26-.18-.39-.26a1.2 1.2 0 0 0-.26.49c0 .1.23.42.44.38M92.997 137.575c-.09-.48-1-1.19-1.45-1.09-.61.14-.85.63-.66 1.37h2.09a.7.7 0 0 0 .02-.28M97.737 136.325a.77.77 0 0 0-.48-.28c-.06 0-.26.31-.22.39s.28.46.5.43.2-.47.2-.54M91.737 133.995a.72.72 0 0 0 .489-.3.73.73 0 0 0 .12-.56.63.63 0 0 0-.306-.427.64.64 0 0 0-.523-.053.6.6 0 0 0-.402.248.6.6 0 0 0-.098.462.64.64 0 0 0 .453.607.6.6 0 0 0 .267.023M29.097 112.655h-.14v3a2.19 2.19 0 0 0 1.1-1.28 1.5 1.5 0 0 0-.96-1.72M70.597 136.785c-.09.59.14 1 .66 1.05.74.12 1.58-.35 1.64-.92s-.52-1.09-1.11-1.16a1.15 1.15 0 0 0-1.19 1.03M70.557 132.705a.5.5 0 0 0-.5.253.5.5 0 0 0-.045.383.5.5 0 0 0 .238.303.5.5 0 0 0 .187.061.51.51 0 0 0 .45-.45.44.44 0 0 0-.33-.55M69.317 130.995c-.14 0-.62 0-.63.26a.54.54 0 0 0 .4.42c.18 0 .55 0 .55-.2a.55.55 0 0 0-.32-.48M72.347 132.825q.11.135.25.24c0-.08.19-.12.17-.25s-.18-.17-.26-.17-.17.16-.16.18M69.467 136.585c-.13.19-.38.39-.37.57s.13.7.56.61.38-.58.33-.75-.33-.29-.52-.43M84.897 136.065a1.3 1.3 0 0 0 1.18.93c.5-.1.8-.82.63-1.54a.632.632 0 0 0-.82-.5c-.59.11-1.09.68-.99 1.11M68.397 133.445a.53.53 0 0 0-.28.47c0 .13.3.21.54.36.1-.26.24-.47.2-.62a.51.51 0 0 0-.46-.21M78.147 137.085a1.37 1.37 0 0 0-.33.78h2.22a1.4 1.4 0 0 0-.14-.36c-.21-.36-.43-1.22-1-1.21s-.56.56-.75.79M65.197 134.815c.09-.45-.09-.77-.53-.74s-1-.06-1.09.44.58.71.86.86.68-.14.76-.56M73.027 130.995a.67.67 0 0 0-.16-.33c-.08-.49-.75-.53-1-.76l-.23.14v1.32l.3.18a1.8 1.8 0 0 1 .47-.25.36.36 0 0 0 .21.19c.27.08.35-.35.41-.49M86.517 129.795c-.16.38-.73.8-.49 1.18s.94.56 1.23.1c.13-.21-.16-.7-.3-1.05-.04-.09-.22-.12-.44-.23M51.427 124.995a.733.733 0 0 0 .71.76.74.74 0 0 0 .37-.09.77.77 0 0 0 .12-1 .71.71 0 0 0-.698-.19.72.72 0 0 0-.502.52M47.997 103.135c-.23.36.42 1.56.9 1.59s.81-1.08.45-1.48-1.11-.46-1.35-.11M45.227 92.185a.3.3 0 0 0 .19-.1h-.54a.7.7 0 0 0 .35.1M101.017 137.245c-.55 0-.79.16-1 .62h1.75a.3.3 0 0 0 0-.09.74.74 0 0 0-.75-.53M67.797 127.645c-.27 0-.7.26-.74.46s.23.57.32.77c.61.1.8-.19.86-.51s-.04-.73-.44-.72M56.197 125.995a1.1 1.1 0 0 0-1.23.5 4.8 4.8 0 0 0-.49 1 5 5 0 0 0-.52.1 1.66 1.66 0 0 0-1.22 1.4 1.9 1.9 0 0 0 .95 1.63.93.93 0 0 0 .72.09 1.5 1.5 0 0 0 .935-.684 1.5 1.5 0 0 0 .175-1.146c0-.18-.06-.35-.09-.54.35-.06.67-.08 1-.16.6-.16.78-.43.71-1a1.25 1.25 0 0 0-.94-1.19M66.487 136.145a.7.7 0 0 0 0 .14.5.5 0 0 0-.28 0c-.6.08-.71.52-.67 1.06a1.16 1.16 0 0 0 1.42.08c.17.13.369.216.58.25a1.65 1.65 0 0 0 1.79-1.41 1.69 1.69 0 0 0-1.29-1.56c-.76-.16-1.41.46-1.55 1.44M61.107 137.355c-.15.06-.23.29-.27.51h1c-.1-.25-.52-.58-.73-.51M60.877 125.845c.06-.13-.19-.4-.33-.45s-.59.07-.63.26.33.47.47.48a.63.63 0 0 0 .49-.29M58.077 129.995a.997.997 0 0 0 .91 1.15c.64.14 1.54-.26 1.65-.74a1.46 1.46 0 0 0-1-1.63 1.49 1.49 0 0 0-1.56 1.22M55.977 136.285c.08.397.3.752.62 1a1.82 1.82 0 0 0 1.49.29c.59-.1 1.09.26 1.59-.07a2.51 2.51 0 0 0 1.1-2.8 2 2 0 0 0-1.26-1.47c-.67-.23-1.19.5-1.93.55-1.73.06-1.85 1.36-1.61 2.5"/><path d="M44.867 130.515a1.37 1.37 0 0 0 .06-.88l-.46-.29a.7.7 0 0 0-.13-.54.5.5 0 0 0-.19-.13c-.15-.51-.45-.89-.78-.9a.76.76 0 0 0-.77.49c-.56-.08-.83.33-1 .93.38.37.65.83 1.23.57a.9.9 0 0 0 .22-.15 1 1 0 0 0 .11.09q.11.786.32 1.55a1.8 1.8 0 0 0-.18.82c0 1.21 1.24 1 1 1.73s-.83.17-1.15 1.25v.21c-.2-.5-.63-1-.93-1-.54 0-1.14.61-1.22 1.34a.8.8 0 0 0 0 .27.7.7 0 0 0-.26.1.6.6 0 0 0-.25.38.68.68 0 0 0-.49-.42 1.74 1.74 0 0 0-1.54.94.84.84 0 0 0 .58 1h1.7a1 1 0 0 0 .07-.12l.15.12h1.16a1.37 1.37 0 0 0 .44-1.27c.257-.106.465-.306.58-.56a1 1 0 0 0 .79.812 1 1 0 0 0 .4-.002c.76-.22.87-.92 1.06-.92s1 .24 1.17-.37c.35-1.29-.88-1.31-.89-1.72s.45-1.11.48-1.72c.01-.85-.41-1.62-1.28-1.61m-4.44 6.8v-.13a.8.8 0 0 0 .06.16zM52.207 129.855a1.5 1.5 0 0 0-.16.31c.09 0 .17.14.29.09s.11-.22.09-.3-.2-.12-.22-.1M32.307 118.465a2 2 0 0 0 1.92-.22c.56-.41.26-1.26.64-1.89.9-1.49-.09-2.36-1.19-2.78a2 2 0 0 0-.39-.09 1 1 0 0 0-.56-.35 1.264 1.264 0 0 0-1.46 1 1.24 1.24 0 0 0 0 .71c-.29.37-.68.61-.68 1.1a2.49 2.49 0 0 0 1.72 2.52M28.957 102.995v2.75a1.15 1.15 0 0 0 .48-.37c.71-1 .54-1.31-.23-2.18a1 1 0 0 0-.25-.2M29.737 117.995q-.166.114-.28.28a.4.4 0 0 0-.08-.12 1.3 1.3 0 0 0-.33-.5.5.5 0 0 0-.13-.06v2.17h.06a1.36 1.36 0 0 0 .11.63c.17.278.437.482.75.57l-.23.13c-.32.17-.27.64 0 .94s.69.36.92 0 .52-.7.32-1.05a1.2 1.2 0 0 0 .35-.15 1.37 1.37 0 0 0 .52-.63l.06.07a.725.725 0 0 0 .848.074.7.7 0 0 0 .222-.204 1 1 0 0 0 .16-.85.883.883 0 0 0-1.14-.36 1.5 1.5 0 0 0-.1-.22 1.58 1.58 0 0 0-2.03-.72M31.327 104.055a1.14 1.14 0 0 0 .16.87 1.47 1.47 0 0 0 1.74.57c.45.19 1.11.25 1.34 0s-.28-1.31-.81-1.31a1.22 1.22 0 0 0-1-1 1.35 1.35 0 0 0-1.43.87M31.017 108.785a1.72 1.72 0 0 0 1.84.76.519.519 0 0 0 .25.89 2.43 2.43 0 0 0 1.78 0c.06-.2.13-.41.2-.62a.55.55 0 0 0 .68-.16.87.87 0 0 0 .26-.51.79.79 0 0 0 .28-.68.75.75 0 0 0-.71-.63c-.7-.07-.93.11-1.21.89l-1 .48a2 2 0 0 0 .13-2.15 1.4 1.4 0 0 0-1.09-.56.72.72 0 0 0-.44-.33s-.29.27-.26.36a.2.2 0 0 0 0 .1l-.18.08a1.37 1.37 0 0 0-.762.913 1.38 1.38 0 0 0 .232 1.167M35.307 96.365a1.39 1.39 0 0 0 .31 1.39 1.18 1.18 0 0 0 1.25-.39.62.62 0 0 0-.27-.9c-.6-.34-1.1-.38-1.29-.1M34.917 93.495c-.54-.23-.86.12-1.06.57a.932.932 0 0 0 1.3.65c.18-.48.33-.98-.24-1.22M35.567 103.125c.05-.15 0-.48-.25-.52a.42.42 0 0 0-.49.23.61.61 0 0 0 .24.61c.18.08.43-.14.5-.32M34.487 106.135a.32.32 0 0 0-.164.232.31.31 0 0 0 .094.268.35.35 0 0 0 .366.121.35.35 0 0 0 .256-.289.35.35 0 0 0-.552-.332M33.537 101.585a1.86 1.86 0 0 0 1.83 0 1.07 1.07 0 0 0 .254-.805 1.06 1.06 0 0 0-.414-.735c-.51-.51-.91-.49-1.48.1s-.58 1.09-.19 1.44M35.927 92.635a1.33 1.33 0 0 0 2 0c.127-.128.226-.281.29-.45-.794.074-1.576.242-2.33.5zM38.557 96.505c-.1.14 0 .5.12.68q.389.508.87.93c.27.26.53.19.79-.12v-.38a1.76 1.76 0 0 1-.37-1.08c0-.18-.43-.42-.67-.43a1 1 0 0 0-.74.4M39.737 92.995a1.3 1.3 0 0 0-.1 1.5c.36.36 1.12.2 1.62-.34a.632.632 0 0 0 0-1 1.12 1.12 0 0 0-1.52-.16M41.887 100.475a.847.847 0 0 0 1.17.1 1.76 1.76 0 0 0 .09-1.81c-.46-.42-1-.35-1.5.22s-.33 1.01.24 1.49M30.887 99.555l.12.13a1.6 1.6 0 0 0 2-.25 1.55 1.55 0 0 0-1.76-2.44 1.5 1.5 0 0 0-.61-.25 10.4 10.4 0 0 0-1.27 2.76 1.23 1.23 0 0 0 1.52.05M53.667 134.995a.74.74 0 0 0 .15-1.07 1 1 0 0 0-.8-.36c-.58.15-.68.67-.62 1.25.39.26.82.52 1.27.18M32.477 94.735a.52.52 0 0 0 .17-.27l-.48.44a.7.7 0 0 0 .31-.17M42.247 95.875a1 1 0 0 0 0 1.2 1.24 1.24 0 0 0 1.32.06 1.2 1.2 0 0 0-.12-1.41.85.85 0 0 0-1.2.15M37.017 93.625a1.18 1.18 0 0 0-.12 1.3.62.62 0 0 0 .94.09c.54-.42.77-.87.58-1.15a1.38 1.38 0 0 0-1.4-.24M45.927 124.665a1.17 1.17 0 0 0 .39 1.43c.73-.37 1-.71.82-1.1-.26-.55-.71-.53-1.21-.33M43.647 120.435a.8.8 0 0 0-.23.71.516.516 0 0 0 .572.37.5.5 0 0 0 .228-.09c.19-.13.52-.77.36-1s-.77-.1-.93.01"/></g><path fill="#00BFB3" d="M35.737 82.395c-10.83 0-17.41 5.69-17.41 17.41 0-11.72-4.79-17.41-17.41-17.41 12.62 0 17.43-5.2 17.41-17.41-.02 12.21 6.52 17.41 17.41 17.41"/><path fill="#7DE2D1" d="M97.367 13.075c-7.86 0-12.63 4.13-12.63 12.64 0-8.51-3.48-12.64-12.64-12.64 9.15 0 12.64-3.78 12.64-12.65 0 8.87 4.74 12.65 12.63 12.65M193.597 151.365c-7.86 0-12.64 4.12-12.64 12.64 0-8.52-3.48-12.64-12.64-12.64 9.16 0 12.66-3.78 12.64-12.65 0 8.87 4.78 12.65 12.64 12.65"/></svg>