<svg width="128" height="128" viewBox="0 0 128 128" fill="none" xmlns="http://www.w3.org/2000/svg">
<path d="M123.96 79.79C101.21 79.79 104.81 97.17 82.07 97.17C59.33 97.17 59.33 69.97 36.58 69.97C29.8 69.97 25.04 72.39 21.1 75.78C14.22 81.7 10.52 90.51 10.52 99.58V109.85L123.96 114.91V79.79Z" fill="#153385" stroke="#101C3F" stroke-miterlimit="10"/>
<path d="M122.54 79.79C99.79 79.79 99.79 97.17 77.05 97.17C54.31 97.17 54.31 69.97 31.56 69.97C24.78 69.97 20.02 72.39 16.08 75.78C9.2 81.7 5.5 90.51 5.5 99.58V109.85H122.54V79.79Z" fill="white" stroke="#101C3F" stroke-miterlimit="10"/>
<path d="M103.084 96.8701C104.881 99.1948 108.222 99.6228 110.547 97.8261C112.871 96.0293 113.299 92.6882 111.503 90.3634L93.2853 66.7929C91.4885 64.4682 88.1474 64.0402 85.8226 65.8369C83.4979 67.6337 83.0699 70.9748 84.8667 73.2995L103.084 96.8701Z" fill="#153385" stroke="#101C3F" stroke-miterlimit="10"/>
<path d="M63.64 22.8001C73.37 19.2201 82.41 23.0401 87.31 29.8701C72.63 17.9101 49.74 32.0301 52.01 50.3701C52.38 53.3601 53.43 56.1101 54.98 58.4801C51.59 55.6101 49.2 51.4101 48.67 45.8601C47.7 35.8301 54.3 26.2401 63.64 22.8001Z" fill="#101C3F" stroke="#101C3F" stroke-miterlimit="10"/>
<path d="M41.7799 47.6901C43.6399 62.6601 58.0599 72.4001 72.6299 70.0901C96.6499 66.2701 109.08 32.2301 85.76 18.3001C65.57 6.24008 38.9999 24.8401 41.7799 47.7001V47.6901ZM84.6399 26.2801C99.8299 39.5001 86.6699 63.8401 68.1699 63.5201C58.4099 63.3501 49.94 56.1801 48.73 46.3901C46.44 27.8001 69.9599 13.5101 84.6399 26.2801Z" fill="#48EFCF" stroke="#101C3F" stroke-miterlimit="10"/>
<path d="M72.63 70.09C91.3 67.12 102.96 45.9 96.28 30.05C101.96 37.85 103.54 48.63 97.55 59.01C86.86 77.53 58.16 79.16 48.25 61.68C54.2 68.1701 63.38 71.5601 72.62 70.09H72.63Z" fill="#153385" stroke="#101C3F" stroke-miterlimit="10"/>
<path d="M104.55 95.7373C106.347 98.062 109.688 98.49 112.013 96.6933C114.338 94.8965 114.766 91.5554 112.969 89.2306L94.7515 65.6601C92.9547 63.3353 89.6136 62.9073 87.2888 64.7041C84.9641 66.5009 84.5361 69.842 86.3328 72.1667L104.55 95.7373Z" fill="#48EFCF" stroke="#101C3F" stroke-miterlimit="10"/>
<path d="M53.9599 37.0899C46.8899 34.8999 39.7399 28.9299 37.7899 21.1099C37.6899 20.6899 37.2999 20.5099 36.9499 20.5599H33.6399L33.7199 26.6899C30.5599 31.7899 25.7099 35.8599 20.4599 37.3499C19.7399 37.5499 19.7299 38.5799 20.4499 38.7999C25.6099 40.3699 30.7899 43.9099 34.0099 48.7099L34.0899 55.0999H37.4699C37.7499 55.0699 38.0299 54.8999 38.1299 54.5699C40.2899 47.7499 46.2299 40.6099 53.9299 38.5499C54.6599 38.3499 54.6799 37.3199 53.9599 37.0999V37.0899Z" fill="#153385" stroke="#101C3F" stroke-linecap="round" stroke-linejoin="round"/>
<path d="M53.93 38.5499C54.66 38.3499 54.68 37.3199 53.96 37.0999H49.29V38.5499H53.93Z" fill="#153385" stroke="#101C3F" stroke-miterlimit="10"/>
<path d="M17.12 38.8C24.19 40.95 31.3 46.79 33.35 54.53C33.55 55.26 34.57 55.29 34.8 54.56C36.96 47.74 42.9 40.6 50.6 38.54C51.33 38.34 51.35 37.31 50.63 37.09C43.56 34.9 36.41 28.93 34.46 21.11C34.28 20.38 33.24 20.35 33.01 21.07C30.55 28.66 24.21 35.35 17.13 37.35C16.41 37.55 16.4 38.58 17.12 38.8Z" fill="#0B64DD" stroke="#101C3F" stroke-linecap="round" stroke-linejoin="round"/>
<path d="M122.54 105.73C120.8 103.99 115.76 98.0599 106.29 98.0599C85.15 98.0599 85.15 107.24 64.02 107.24C42.89 107.24 40.71 85.7499 18.28 88.6699C13.04 89.3499 7.33 93.77 5.5 98.91V114.91H122.54V105.73Z" fill="#0B64DD" stroke="#101C3F" stroke-miterlimit="10"/>
</svg>
