<?xml version="1.0"?>
<svg xmlns="http://www.w3.org/2000/svg" xmlns:xlink="http://www.w3.org/1999/xlink" version="1.1" id="Capa_1" x="0px" y="0px" viewBox="0 0 511 511" style="enable-background:new 0 0 511 511;" xml:space="preserve" width="512px" height="512px" class=""><g transform="matrix(0.499837 0 0 0.499837 127.792 127.792)"><path d="M471.5,168c-12.519,0-22.78,9.84-23.462,22.192l-173.16,47.768C268.406,224.959,254.983,216,239.5,216  c-0.606,0-1.208,0.019-1.808,0.046L196.013,43.377C202.608,39.21,207,31.861,207,23.5C207,10.542,196.458,0,183.5,0  S160,10.542,160,23.5c0,12.261,9.441,22.354,21.434,23.404l41.679,172.67c-9.56,4.378-17.087,12.453-20.724,22.393L62.673,219.612  C60.814,208.499,51.133,200,39.5,200C26.542,200,16,210.542,16,223.5S26.542,247,39.5,247c9.016,0,16.858-5.107,20.798-12.577  l139.735,22.357c0.299,9.309,3.83,17.81,9.51,24.421L63.462,465.391C60.974,464.492,58.294,464,55.5,464  C42.542,464,32,474.542,32,487.5S42.542,511,55.5,511S79,500.458,79,487.5c0-4.71-1.398-9.097-3.793-12.778l146.081-184.189  C226.742,293.38,232.934,295,239.5,295c6.117,0,11.913-1.398,17.086-3.891c0.16,0.29,0.333,0.575,0.535,0.849L356.24,426.06  c-2.668,3.812-4.24,8.445-4.24,13.44c0,12.958,10.542,23.5,23.5,23.5s23.5-10.542,23.5-23.5S388.458,416,375.5,416  c-2.513,0-4.933,0.401-7.205,1.134l-99.112-134.092c-0.206-0.279-0.433-0.533-0.669-0.775C275.018,275.224,279,265.82,279,255.5  c0-1.038-0.053-2.062-0.132-3.08l173.165-47.77C456.262,210.891,463.41,215,471.5,215c12.958,0,23.5-10.542,23.5-23.5  S484.458,168,471.5,168z M175,23.5c0-4.687,3.813-8.5,8.5-8.5s8.5,3.813,8.5,8.5s-3.813,8.5-8.5,8.5S175,28.187,175,23.5z   M384,439.5c0,4.687-3.813,8.5-8.5,8.5s-8.5-3.813-8.5-8.5s3.813-8.5,8.5-8.5S384,434.813,384,439.5z M39.5,232  c-4.687,0-8.5-3.813-8.5-8.5s3.813-8.5,8.5-8.5s8.5,3.813,8.5,8.5S44.187,232,39.5,232z M55.5,496c-4.687,0-8.5-3.813-8.5-8.5  s3.813-8.5,8.5-8.5s8.5,3.813,8.5,8.5S60.187,496,55.5,496z M215,255.5c0-13.509,10.991-24.5,24.5-24.5s24.5,10.991,24.5,24.5  S253.009,280,239.5,280S215,269.009,215,255.5z M471.5,200c-4.687,0-8.5-3.813-8.5-8.5s3.813-8.5,8.5-8.5s8.5,3.813,8.5,8.5  S476.187,200,471.5,200z" data-original="#000000" class="active-path" fill="#000000"/></g> </svg>
