<svg version="1.1" viewBox="0.0 0.0 484.2257217847769 307.87139107611546" fill="none" stroke="none" stroke-linecap="square" stroke-miterlimit="10" xmlns:xlink="http://www.w3.org/1999/xlink" xmlns="http://www.w3.org/2000/svg"><clipPath id="p.0"><path d="m0 0l484.2257 0l0 307.8714l-484.2257 0l0 -307.8714z" clip-rule="nonzero"/></clipPath><g clip-path="url(#p.0)"><path fill="#000000" fill-opacity="0.0" d="m0 0l484.2257 0l0 307.8714l-484.2257 0z" fill-rule="evenodd"/><path fill="#ffffff" d="m13.120735 12.889764l451.9685 0l0 282.2677l-451.9685 0z" fill-rule="evenodd"/><path stroke="#999999" stroke-width="1.0" stroke-linejoin="round" stroke-linecap="butt" d="m13.120735 12.889764l451.9685 0l0 282.2677l-451.9685 0z" fill-rule="evenodd"/><path fill="#000000" d="m22.089485 39.80976l5.125 -13.359375l1.90625 0l5.46875 13.359375l-2.015625 0l-1.546875 -4.046875l-5.59375 0l-1.46875 4.046875l-1.875 0zm3.859375 -5.484375l4.53125 0l-1.40625 -3.703125q-0.625 -1.6875 -0.9375 -2.765625q-0.265625 1.28125 -0.71875 2.546875l-1.46875 3.921875zm9.802948 5.484375l0 -13.359375l1.640625 0l0 13.359375l-1.640625 0zm10.816696 -3.109375l1.6875 0.203125q-0.40625 1.484375 -1.484375 2.3125q-1.078125 0.8125 -2.765625 0.8125q-2.125 0 -3.375 -1.296875q-1.234375 -1.3125 -1.234375 -3.671875q0 -2.453125 1.25 -3.796875q1.265625 -1.34375 3.265625 -1.34375q1.9375 0 3.15625 1.328125q1.234375 1.3125 1.234375 3.703125q0 0.15625 0 0.4375l-7.21875 0q0.09375 1.59375 0.90625 2.453125q0.8125 0.84375 2.015625 0.84375q0.90625 0 1.546875 -0.46875q0.640625 -0.484375 1.015625 -1.515625zm-5.390625 -2.65625l5.40625 0q-0.109375 -1.21875 -0.625 -1.828125q-0.78125 -0.953125 -2.03125 -0.953125q-1.125 0 -1.90625 0.765625q-0.765625 0.75 -0.84375 2.015625zm9.125717 5.765625l0 -9.671875l1.46875 0l0 1.46875q0.5625 -1.03125 1.03125 -1.359375q0.484375 -0.328125 1.0625 -0.328125q0.828125 0 1.6875 0.53125l-0.5625 1.515625q-0.609375 -0.359375 -1.203125 -0.359375q-0.546875 0 -0.96875 0.328125q-0.421875 0.328125 -0.609375 0.890625q-0.28125 0.875 -0.28125 1.921875l0 5.0625l-1.625 0zm9.806427 -1.46875l0.234375 1.453125q-0.6875 0.140625 -1.234375 0.140625q-0.890625 0 -1.390625 -0.28125q-0.484375 -0.28125 -0.6875 -0.734375q-0.203125 -0.46875 -0.203125 -1.9375l0 -5.578125l-1.203125 0l0 -1.265625l1.203125 0l0 -2.390625l1.625 -0.984375l0 3.375l1.65625 0l0 1.265625l-1.65625 0l0 5.671875q0 0.6875 0.078125 0.890625q0.09375 0.203125 0.28125 0.328125q0.203125 0.109375 0.578125 0.109375q0.265625 0 0.71875 -0.0625z" fill-rule="nonzero"/><path fill="#f3f3f3" d="m25.343832 57.062992l418.2677 0l0 33.511814l-418.2677 0z" fill-rule="evenodd"/><path stroke="#999999" stroke-width="1.0" stroke-linejoin="round" stroke-linecap="butt" d="m25.343832 57.062992l418.2677 0l0 33.511814l-418.2677 0z" fill-rule="evenodd"/><path fill="#000000" d="m43.750084 77.40737l1.515625 0.375q-0.46875 1.875 -1.71875 2.859375q-1.234375 0.984375 -3.015625 0.984375q-1.859375 0 -3.015625 -0.75q-1.15625 -0.765625 -1.765625 -2.1875q-0.609375 -1.4375 -0.609375 -3.078125q0 -1.796875 0.6875 -3.125q0.6875 -1.328125 1.9375 -2.015625q1.265625 -0.703125 2.78125 -0.703125q1.71875 0 2.890625 0.875q1.171875 0.875 1.640625 2.46875l-1.5 0.34375q-0.390625 -1.25 -1.15625 -1.8125q-0.75 -0.578125 -1.90625 -0.578125q-1.3125 0 -2.203125 0.640625q-0.890625 0.625 -1.25 1.703125q-0.359375 1.0625 -0.359375 2.1875q0 1.46875 0.421875 2.5625q0.4375 1.078125 1.328125 1.625q0.90625 0.53125 1.953125 0.53125q1.265625 0 2.140625 -0.734375q0.890625 -0.734375 1.203125 -2.171875zm2.6796875 -0.140625q0 -2.296875 1.28125 -3.40625q1.078125 -0.921875 2.609375 -0.921875q1.71875 0 2.796875 1.125q1.09375 1.109375 1.09375 3.09375q0 1.59375 -0.484375 2.515625q-0.484375 0.921875 -1.40625 1.4375q-0.90625 0.5 -2.0 0.5q-1.734375 0 -2.8125 -1.109375q-1.078125 -1.125 -1.078125 -3.234375zm1.453125 0q0 1.59375 0.6875 2.390625q0.703125 0.796875 1.75 0.796875q1.046875 0 1.734375 -0.796875q0.703125 -0.796875 0.703125 -2.4375q0 -1.53125 -0.703125 -2.328125q-0.6875 -0.796875 -1.734375 -0.796875q-1.046875 0 -1.75 0.796875q-0.6875 0.78125 -0.6875 2.375zm7.9765625 4.15625l0 -8.296875l1.265625 0l0 1.171875q0.90625 -1.359375 2.640625 -1.359375q0.75 0 1.375 0.265625q0.625 0.265625 0.9375 0.703125q0.3125 0.4375 0.4375 1.046875q0.078125 0.390625 0.078125 1.359375l0 5.109375l-1.40625 0l0 -5.046875q0 -0.859375 -0.171875 -1.28125q-0.15625 -0.4375 -0.578125 -0.6875q-0.40625 -0.25 -0.96875 -0.25q-0.90625 0 -1.5625 0.578125q-0.640625 0.5625 -0.640625 2.15625l0 4.53125l-1.40625 0zm14.2734375 0l0 -1.046875q-0.78125 1.234375 -2.3125 1.234375q-1.0 0 -1.828125 -0.546875q-0.828125 -0.546875 -1.296875 -1.53125q-0.453125 -0.984375 -0.453125 -2.25q0 -1.25 0.40625 -2.25q0.421875 -1.015625 1.25 -1.546875q0.828125 -0.546875 1.859375 -0.546875q0.75 0 1.328125 0.3125q0.59375 0.3125 0.953125 0.828125l0 -4.109375l1.40625 0l0 11.453125l-1.3125 0zm-4.4375 -4.140625q0 1.59375 0.671875 2.390625q0.671875 0.78125 1.578125 0.78125q0.921875 0 1.5625 -0.75q0.65625 -0.765625 0.65625 -2.3125q0 -1.703125 -0.65625 -2.5q-0.65625 -0.796875 -1.625 -0.796875q-0.9375 0 -1.5625 0.765625q-0.625 0.765625 -0.625 2.421875zm7.9609375 -5.703125l0 -1.609375l1.40625 0l0 1.609375l-1.40625 0zm0 9.84375l0 -8.296875l1.40625 0l0 8.296875l-1.40625 0zm6.6171875 -1.265625l0.203125 1.25q-0.59375 0.125 -1.0625 0.125q-0.765625 0 -1.1875 -0.234375q-0.421875 -0.25 -0.59375 -0.640625q-0.171875 -0.40625 -0.171875 -1.671875l0 -4.765625l-1.03125 0l0 -1.09375l1.03125 0l0 -2.0625l1.40625 -0.84375l0 2.90625l1.40625 0l0 1.09375l-1.40625 0l0 4.84375q0 0.609375 0.0625 0.78125q0.078125 0.171875 0.25 0.28125q0.171875 0.09375 0.484375 0.09375q0.234375 0 0.609375 -0.0625zm1.3828125 -8.578125l0 -1.609375l1.40625 0l0 1.609375l-1.40625 0zm0 9.84375l0 -8.296875l1.40625 0l0 8.296875l-1.40625 0zm3.0234375 -4.15625q0 -2.296875 1.28125 -3.40625q1.078125 -0.921875 2.609375 -0.921875q1.71875 0 2.796875 1.125q1.09375 1.109375 1.09375 3.09375q0 1.59375 -0.484375 2.515625q-0.484375 0.921875 -1.40625 1.4375q-0.90625 0.5 -2.0 0.5q-1.734375 0 -2.8125 -1.109375q-1.078125 -1.125 -1.078125 -3.234375zm1.453125 0q0 1.59375 0.6875 2.390625q0.703125 0.796875 1.75 0.796875q1.046875 0 1.734375 -0.796875q0.703125 -0.796875 0.703125 -2.4375q0 -1.53125 -0.703125 -2.328125q-0.6875 -0.796875 -1.734375 -0.796875q-1.046875 0 -1.75 0.796875q-0.6875 0.78125 -0.6875 2.375zm7.9765625 4.15625l0 -8.296875l1.265625 0l0 1.171875q0.90625 -1.359375 2.640625 -1.359375q0.75 0 1.375 0.265625q0.625 0.265625 0.9375 0.703125q0.3125 0.4375 0.4375 1.046875q0.078125 0.390625 0.078125 1.359375l0 5.109375l-1.40625 0l0 -5.046875q0 -0.859375 -0.171875 -1.28125q-0.15625 -0.4375 -0.578125 -0.6875q-0.40625 -0.25 -0.96875 -0.25q-0.90625 0 -1.5625 0.578125q-0.640625 0.5625 -0.640625 2.15625l0 4.53125l-1.40625 0z" fill-rule="nonzero"/><path fill="#000000" d="m131.0157 78.57925l1.40625 -0.078125q0 0.609375 0.1875 1.046875q0.1875 0.421875 0.6875 0.703125q0.515625 0.265625 1.1875 0.265625q0.9375 0 1.40625 -0.375q0.46875 -0.375 0.46875 -0.890625q0 -0.359375 -0.28125 -0.6875q-0.296875 -0.328125 -1.421875 -0.8125q-1.109375 -0.484375 -1.421875 -0.671875q-0.53125 -0.328125 -0.796875 -0.75q-0.265625 -0.4375 -0.265625 -1.0q0 -0.984375 0.78125 -1.6875q0.78125 -0.703125 2.1875 -0.703125q1.5625 0 2.375 0.71875q0.828125 0.71875 0.859375 1.90625l-1.390625 0.09375q-0.03125 -0.75 -0.53125 -1.1875q-0.5 -0.4375 -1.40625 -0.4375q-0.734375 0 -1.140625 0.34375q-0.40625 0.328125 -0.40625 0.71875q0 0.390625 0.34375 0.6875q0.234375 0.203125 1.21875 0.625q1.625 0.703125 2.046875 1.109375q0.671875 0.640625 0.671875 1.578125q0 0.609375 -0.390625 1.203125q-0.375 0.59375 -1.15625 0.953125q-0.765625 0.359375 -1.828125 0.359375q-1.4375 0 -2.4375 -0.71875q-1.015625 -0.703125 -0.953125 -2.3125zm13.953125 0.015625l1.375 0.140625q-0.296875 1.03125 -1.359375 1.953125q-1.0625 0.921875 -2.546875 0.921875q-0.921875 0 -1.6875 -0.421875q-0.765625 -0.4375 -1.171875 -1.25q-0.40625 -0.8125 -0.40625 -1.84375q0 -1.359375 0.625 -2.640625q0.640625 -1.28125 1.640625 -1.890625q1.0 -0.625 2.15625 -0.625q1.484375 0 2.375 0.921875q0.890625 0.921875 0.890625 2.515625q0 0.609375 -0.109375 1.25l-6.109375 0q-0.03125 0.234375 -0.03125 0.4375q0 1.15625 0.53125 1.78125q0.53125 0.609375 1.3125 0.609375q0.71875 0 1.421875 -0.46875q0.703125 -0.484375 1.09375 -1.390625zm-4.109375 -2.046875l4.65625 0q0.015625 -0.21875 0.015625 -0.3125q0 -1.0625 -0.53125 -1.625q-0.53125 -0.578125 -1.375 -0.578125q-0.90625 0 -1.65625 0.625q-0.734375 0.625 -1.109375 1.890625zm6.9140625 4.875l1.734375 -8.296875l1.25 0l-0.34375 1.6875q0.640625 -0.953125 1.25 -1.40625q0.609375 -0.46875 1.25 -0.46875q0.421875 0 1.046875 0.296875l-0.578125 1.3125q-0.375 -0.265625 -0.8125 -0.265625q-0.734375 0 -1.515625 0.828125q-0.78125 0.828125 -1.234375 2.984375l-0.703125 3.328125l-1.34375 0zm7.421875 0l-1.359375 -8.296875l1.375 0l0.71875 4.5625q0.109375 0.75 0.28125 2.453125q0.40625 -0.890625 1.046875 -2.03125l2.765625 -4.984375l1.5 0l-4.75 8.296875l-1.578125 0zm12.0 -2.828125l1.375 0.140625q-0.296875 1.03125 -1.359375 1.953125q-1.0625 0.921875 -2.546875 0.921875q-0.921875 0 -1.6875 -0.421875q-0.765625 -0.4375 -1.171875 -1.25q-0.40625 -0.8125 -0.40625 -1.84375q0 -1.359375 0.625 -2.640625q0.640625 -1.28125 1.640625 -1.890625q1.0 -0.625 2.15625 -0.625q1.484375 0 2.375 0.921875q0.890625 0.921875 0.890625 2.515625q0 0.609375 -0.109375 1.25l-6.109375 0q-0.03125 0.234375 -0.03125 0.4375q0 1.15625 0.53125 1.78125q0.53125 0.609375 1.3125 0.609375q0.71875 0 1.421875 -0.46875q0.703125 -0.484375 1.09375 -1.390625zm-4.109375 -2.046875l4.65625 0q0.015625 -0.21875 0.015625 -0.3125q0 -1.0625 -0.53125 -1.625q-0.53125 -0.578125 -1.375 -0.578125q-0.90625 0 -1.65625 0.625q-0.734375 0.625 -1.109375 1.890625zm6.9140625 4.875l1.734375 -8.296875l1.25 0l-0.34375 1.6875q0.640625 -0.953125 1.25 -1.40625q0.609375 -0.46875 1.25 -0.46875q0.421875 0 1.046875 0.296875l-0.578125 1.3125q-0.375 -0.265625 -0.8125 -0.265625q-0.734375 0 -1.515625 0.828125q-0.78125 0.828125 -1.234375 2.984375l-0.703125 3.328125l-1.34375 0zm15.3671875 -1.03125q-0.734375 0.625 -1.421875 0.921875q-0.671875 0.296875 -1.4375 0.296875q-1.15625 0 -1.859375 -0.671875q-0.703125 -0.6875 -0.703125 -1.734375q0 -0.703125 0.3125 -1.234375q0.328125 -0.53125 0.84375 -0.859375q0.53125 -0.328125 1.28125 -0.46875q0.484375 -0.09375 1.8125 -0.140625q1.328125 -0.0625 1.90625 -0.28125q0.171875 -0.578125 0.171875 -0.96875q0 -0.484375 -0.359375 -0.765625q-0.5 -0.390625 -1.4375 -0.390625q-0.890625 0 -1.46875 0.390625q-0.5625 0.390625 -0.8125 1.125l-1.4375 -0.125q0.4375 -1.234375 1.390625 -1.890625q0.953125 -0.65625 2.390625 -0.65625q1.546875 0 2.4375 0.734375q0.6875 0.546875 0.6875 1.421875q0 0.65625 -0.1875 1.53125l-0.46875 2.0625q-0.21875 0.984375 -0.21875 1.609375q0 0.390625 0.171875 1.125l-1.421875 0q-0.125 -0.40625 -0.171875 -1.03125zm0.53125 -3.171875q-0.296875 0.109375 -0.640625 0.171875q-0.34375 0.0625 -1.140625 0.140625q-1.234375 0.109375 -1.75 0.28125q-0.5 0.15625 -0.765625 0.53125q-0.25 0.359375 -0.25 0.8125q0 0.59375 0.40625 0.984375q0.421875 0.375 1.171875 0.375q0.703125 0 1.34375 -0.375q0.65625 -0.375 1.03125 -1.03125q0.375 -0.671875 0.59375 -1.890625zm4.8671875 4.203125l-1.359375 -8.296875l1.375 0l0.71875 4.5625q0.109375 0.75 0.28125 2.453125q0.40625 -0.890625 1.046875 -2.03125l2.765625 -4.984375l1.5 0l-4.75 8.296875l-1.578125 0zm5.828125 0.75l1.4375 0.140625q-0.015625 0.484375 0.109375 0.71875q0.140625 0.25 0.421875 0.375q0.390625 0.171875 1.0 0.171875q1.28125 0 1.84375 -0.65625q0.359375 -0.453125 0.671875 -1.953125l0.140625 -0.671875q-1.09375 1.125 -2.34375 1.125q-1.25 0 -2.109375 -0.921875q-0.84375 -0.9375 -0.84375 -2.625q0 -1.40625 0.671875 -2.578125q0.671875 -1.171875 1.59375 -1.765625q0.921875 -0.59375 1.890625 -0.59375q1.640625 0 2.515625 1.546875l0.28125 -1.359375l1.296875 0l-1.671875 8.0q-0.265625 1.328125 -0.71875 2.0625q-0.4375 0.75 -1.234375 1.15625q-0.796875 0.40625 -1.828125 0.40625q-1.0 0 -1.734375 -0.265625q-0.71875 -0.25 -1.078125 -0.75q-0.34375 -0.5 -0.34375 -1.140625q0 -0.1875 0.03125 -0.421875zm1.765625 -4.421875q0 0.84375 0.171875 1.28125q0.234375 0.59375 0.65625 0.921875q0.4375 0.3125 0.96875 0.3125q0.703125 0 1.390625 -0.484375q0.6875 -0.5 1.109375 -1.515625q0.421875 -1.03125 0.421875 -1.953125q0 -1.03125 -0.5625 -1.625q-0.5625 -0.609375 -1.40625 -0.609375q-0.515625 0 -1.0 0.28125q-0.484375 0.265625 -0.90625 0.84375q-0.40625 0.5625 -0.625 1.359375q-0.21875 0.78125 -0.21875 1.1875zm20.78125 -0.359375l1.515625 0.203125q-0.71875 1.984375 -2.09375 3.015625q-1.375 1.015625 -3.09375 1.015625q-2.078125 0 -3.3125 -1.28125q-1.21875 -1.28125 -1.21875 -3.65625q0 -3.09375 1.859375 -5.109375q1.65625 -1.8125 4.125 -1.8125q1.8125 0 2.9375 0.984375q1.140625 0.96875 1.3125 2.625l-1.421875 0.125q-0.234375 -1.234375 -0.9375 -1.84375q-0.703125 -0.625 -1.828125 -0.625q-2.09375 0 -3.390625 1.875q-1.125 1.609375 -1.125 3.8125q0 1.765625 0.859375 2.703125q0.875 0.921875 2.265625 0.921875q1.1875 0 2.140625 -0.765625q0.96875 -0.78125 1.40625 -2.1875zm2.5859375 4.03125l2.40625 -11.453125l4.78125 0q1.234375 0 1.859375 0.28125q0.625 0.28125 1.03125 0.984375q0.40625 0.6875 0.40625 1.546875q0 0.703125 -0.296875 1.4375q-0.28125 0.734375 -0.734375 1.21875q-0.4375 0.46875 -0.890625 0.71875q-0.453125 0.234375 -0.96875 0.359375q-1.09375 0.25 -2.21875 0.25l-2.875 0l-0.96875 4.65625l-1.53125 0zm2.78125 -5.953125l2.515625 0q1.46875 0 2.15625 -0.3125q0.6875 -0.3125 1.09375 -0.953125q0.421875 -0.65625 0.421875 -1.390625q0 -0.5625 -0.21875 -0.90625q-0.21875 -0.359375 -0.625 -0.53125q-0.390625 -0.171875 -1.515625 -0.171875l-2.9375 0l-0.890625 4.265625zm10.375 -5.5l1.53125 0l-1.46875 7.03125q-0.171875 0.875 -0.171875 1.296875q0 0.921875 0.71875 1.484375q0.734375 0.5625 1.828125 0.5625q0.875 0 1.625 -0.390625q0.765625 -0.40625 1.203125 -1.1875q0.4375 -0.78125 0.78125 -2.5l1.328125 -6.296875l1.53125 0l-1.40625 6.71875q-0.359375 1.71875 -0.953125 2.71875q-0.578125 1.0 -1.625 1.609375q-1.03125 0.609375 -2.40625 0.609375q-1.296875 0 -2.25 -0.421875q-0.9375 -0.4375 -1.421875 -1.1875q-0.46875 -0.765625 -0.46875 -1.734375q0 -0.59375 0.328125 -2.0625l1.296875 -6.25zm21.85939 6.4375l-7.5937653 3.25l0 -1.40625l6.015625 -2.484375l-6.015625 -2.46875l0 -1.40625l7.5937653 3.203125l0 1.3125zm5.8984375 1.25q0 -1.453125 0.421875 -2.953125q0.4375 -1.5 0.96875 -2.390625q0.53125 -0.90625 1.09375 -1.40625q0.578125 -0.515625 1.125 -0.75q0.5625 -0.234375 1.234375 -0.234375q1.3125 0 2.1875 0.984375q0.875 0.96875 0.875 2.8125q0 1.890625 -0.609375 3.75q-0.71875 2.203125 -2.0 3.3125q-0.984375 0.84375 -2.234375 0.84375q-1.296875 0 -2.1875 -1.015625q-0.875 -1.015625 -0.875 -2.953125zm1.359375 0.359375q0 1.0625 0.359375 1.65625q0.46875 0.8125 1.40625 0.8125q0.828125 0 1.5 -0.734375q0.96875 -1.046875 1.453125 -3.0625q0.484375 -2.03125 0.484375 -3.3125q0 -1.234375 -0.46875 -1.78125q-0.46875 -0.546875 -1.25 -0.546875q-0.5625 0 -1.046875 0.296875q-0.484375 0.28125 -0.9375 0.984375q-0.625 1.0 -1.09375 2.96875q-0.40625 1.6875 -0.40625 2.71875zm7.3203125 3.40625l0.34375 -1.609375l1.59375 0l-0.34375 1.609375l-1.59375 0zm4.6015625 -2.625l1.328125 -0.140625q0.140625 0.96875 0.546875 1.375q0.421875 0.40625 0.984375 0.40625q0.8125 0 1.515625 -0.703125q1.015625 -1.03125 1.5 -2.96875q-0.703125 0.53125 -1.265625 0.765625q-0.546875 0.21875 -1.125 0.21875q-1.046875 0 -1.875 -0.703125q-1.09375 -0.90625 -1.09375 -2.625q0 -1.9375 1.265625 -3.3125q1.09375 -1.1875 2.671875 -1.1875q1.421875 0 2.359375 1.046875q0.9375 1.046875 0.9375 2.96875q0 1.875 -0.625 3.6875q-0.75 2.140625 -2.015625 3.15625q-1.03125 0.84375 -2.3125 0.84375q-1.1875 0 -1.953125 -0.734375q-0.75 -0.75 -0.84375 -2.09375zm1.890625 -4.53125q0 1.078125 0.5625 1.71875q0.578125 0.640625 1.375 0.640625q0.578125 0 1.15625 -0.390625q0.578125 -0.40625 0.984375 -1.203125q0.421875 -0.796875 0.421875 -1.625q0 -0.65625 -0.28125 -1.21875q-0.265625 -0.5625 -0.734375 -0.84375q-0.46875 -0.296875 -0.953125 -0.296875q-0.46875 0 -0.921875 0.25q-0.453125 0.25 -0.84375 0.734375q-0.390625 0.484375 -0.578125 1.125q-0.1875 0.625 -0.1875 1.109375zm11.109375 7.15625l1.5 -7.203125l-1.265625 0l0.234375 -1.09375l1.265625 0l0.234375 -1.1875q0.1875 -0.875 0.390625 -1.265625q0.203125 -0.390625 0.640625 -0.640625q0.453125 -0.265625 1.234375 -0.265625q0.53125 0 1.5625 0.234375l-0.265625 1.234375q-0.71875 -0.1875 -1.203125 -0.1875q-0.40625 0 -0.625 0.203125q-0.21875 0.203125 -0.375 0.984375l-0.1875 0.890625l1.578125 0l-0.21875 1.09375l-1.578125 0l-1.515625 7.203125l-1.40625 0zm4.4921875 -3.15625q0 -2.421875 1.4375 -4.015625q1.171875 -1.3125 3.09375 -1.3125q1.5 0 2.40625 0.9375q0.921875 0.9375 0.921875 2.53125q0 1.421875 -0.578125 2.65625q-0.578125 1.234375 -1.640625 1.890625q-1.0625 0.65625 -2.25 0.65625q-0.96875 0 -1.765625 -0.40625q-0.78125 -0.421875 -1.203125 -1.171875q-0.421875 -0.765625 -0.421875 -1.765625zm1.421875 -0.140625q0 1.171875 0.5625 1.78125q0.5625 0.609375 1.421875 0.609375q0.453125 0 0.890625 -0.1875q0.453125 -0.1875 0.828125 -0.5625q0.390625 -0.375 0.65625 -0.84375q0.28125 -0.484375 0.4375 -1.046875q0.25 -0.765625 0.25 -1.484375q0 -1.125 -0.578125 -1.734375q-0.5625 -0.625 -1.421875 -0.625q-0.65625 0 -1.203125 0.3125q-0.546875 0.3125 -1.0 0.921875q-0.4375 0.609375 -0.640625 1.421875q-0.203125 0.8125 -0.203125 1.4375zm7.2265625 3.296875l1.734375 -8.296875l1.25 0l-0.34375 1.6875q0.640625 -0.953125 1.25 -1.40625q0.609375 -0.46875 1.25 -0.46875q0.421875 0 1.046875 0.296875l-0.578125 1.3125q-0.375 -0.265625 -0.8125 -0.265625q-0.734375 0 -1.515625 0.828125q-0.78125 0.828125 -1.234375 2.984375l-0.703125 3.328125l-1.34375 0zm9.6640625 0l2.390625 -11.453125l1.421875 0l-2.390625 11.453125l-1.421875 0zm9.2578125 -1.03125q-0.734375 0.625 -1.421875 0.921875q-0.671875 0.296875 -1.4375 0.296875q-1.15625 0 -1.859375 -0.671875q-0.703125 -0.6875 -0.703125 -1.734375q0 -0.703125 0.3125 -1.234375q0.328125 -0.53125 0.84375 -0.859375q0.53125 -0.328125 1.28125 -0.46875q0.484375 -0.09375 1.8125 -0.140625q1.328125 -0.0625 1.90625 -0.28125q0.171875 -0.578125 0.171875 -0.96875q0 -0.484375 -0.359375 -0.765625q-0.5 -0.390625 -1.4375 -0.390625q-0.890625 0 -1.46875 0.390625q-0.5625 0.390625 -0.8125 1.125l-1.4375 -0.125q0.4375 -1.234375 1.390625 -1.890625q0.953125 -0.65625 2.390625 -0.65625q1.546875 0 2.4375 0.734375q0.6875 0.546875 0.6875 1.421875q0 0.65625 -0.1875 1.53125l-0.46875 2.0625q-0.21875 0.984375 -0.21875 1.609375q0 0.390625 0.171875 1.125l-1.421875 0q-0.125 -0.40625 -0.171875 -1.03125zm0.53125 -3.171875q-0.296875 0.109375 -0.640625 0.171875q-0.34375 0.0625 -1.140625 0.140625q-1.234375 0.109375 -1.75 0.28125q-0.5 0.15625 -0.765625 0.53125q-0.25 0.359375 -0.25 0.8125q0 0.59375 0.40625 0.984375q0.421875 0.375 1.171875 0.375q0.703125 0 1.34375 -0.375q0.65625 -0.375 1.03125 -1.03125q0.375 -0.671875 0.59375 -1.890625zm2.9140625 1.359375l1.40625 -0.078125q0 0.609375 0.1875 1.046875q0.1875 0.421875 0.6875 0.703125q0.515625 0.265625 1.1875 0.265625q0.9375 0 1.40625 -0.375q0.46875 -0.375 0.46875 -0.890625q0 -0.359375 -0.28125 -0.6875q-0.296875 -0.328125 -1.421875 -0.8125q-1.109375 -0.484375 -1.421875 -0.671875q-0.53125 -0.328125 -0.796875 -0.75q-0.265625 -0.4375 -0.265625 -1.0q0 -0.984375 0.78125 -1.6875q0.78125 -0.703125 2.1875 -0.703125q1.5625 0 2.375 0.71875q0.828125 0.71875 0.859375 1.90625l-1.390625 0.09375q-0.03125 -0.75 -0.53125 -1.1875q-0.5 -0.4375 -1.40625 -0.4375q-0.734375 0 -1.140625 0.34375q-0.40625 0.328125 -0.40625 0.71875q0 0.390625 0.34375 0.6875q0.234375 0.203125 1.21875 0.625q1.625 0.703125 2.046875 1.109375q0.671875 0.640625 0.671875 1.578125q0 0.609375 -0.390625 1.203125q-0.375 0.59375 -1.15625 0.953125q-0.765625 0.359375 -1.828125 0.359375q-1.4375 0 -2.4375 -0.71875q-1.015625 -0.703125 -0.953125 -2.3125zm11.171875 1.6875l-0.234375 1.171875q-0.515625 0.125 -0.984375 0.125q-0.84375 0 -1.34375 -0.421875q-0.375 -0.3125 -0.375 -0.84375q0 -0.28125 0.203125 -1.265625l1.0 -4.8125l-1.109375 0l0.21875 -1.09375l1.125 0l0.421875 -2.046875l1.625 -0.96875l-0.640625 3.015625l1.390625 0l-0.234375 1.09375l-1.375 0l-0.96875 4.578125q-0.171875 0.875 -0.171875 1.046875q0 0.25 0.140625 0.390625q0.140625 0.125 0.46875 0.125q0.46875 0 0.84375 -0.09375zm5.984375 1.15625q0.21875 -1.03125 0.609375 -1.71875q0.390625 -0.6875 1.03125 -1.3125q0.640625 -0.625 2.46875 -2.078125q1.109375 -0.890625 1.515625 -1.3125q0.578125 -0.609375 0.84375 -1.1875q0.1875 -0.40625 0.1875 -0.875q0 -0.78125 -0.5625 -1.328125q-0.5625 -0.5625 -1.375 -0.5625q-0.796875 0 -1.40625 0.5625q-0.59375 0.5625 -0.859375 1.796875l-1.375 -0.203125q0.203125 -1.53125 1.171875 -2.40625q0.984375 -0.875 2.453125 -0.875q0.96875 0 1.765625 0.40625q0.796875 0.40625 1.1875 1.140625q0.40625 0.734375 0.40625 1.515625q0 1.140625 -0.8125 2.1875q-0.5 0.65625 -2.9375 2.59375q-1.046875 0.828125 -1.5625 1.359375q-0.515625 0.53125 -0.765625 1.0l5.125 0l-0.28125 1.296875l-6.828125 0zm12.9375 0l1.734375 -8.296875l1.40625 0l-0.28125 1.359375q0.78125 -0.875 1.40625 -1.203125q0.625 -0.34375 1.34375 -0.34375q0.78125 0 1.296875 0.40625q0.515625 0.40625 0.6875 1.140625q0.625 -0.78125 1.328125 -1.15625q0.703125 -0.390625 1.46875 -0.390625q1.046875 0 1.5625 0.5q0.515625 0.484375 0.515625 1.375q0 0.375 -0.171875 1.265625l-1.125 5.34375l-1.40625 0l1.140625 -5.484375q0.140625 -0.671875 0.140625 -0.96875q0 -0.40625 -0.265625 -0.640625q-0.25 -0.234375 -0.71875 -0.234375q-0.625 0 -1.28125 0.390625q-0.65625 0.375 -1.03125 1.0q-0.359375 0.625 -0.625 1.90625l-0.84375 4.03125l-1.421875 0l1.171875 -5.609375q0.125 -0.5625 0.125 -0.8125q0 -0.40625 -0.25 -0.65625q-0.25 -0.25 -0.65625 -0.25q-0.609375 0 -1.265625 0.390625q-0.65625 0.375 -1.078125 1.0625q-0.40625 0.6875 -0.671875 1.953125l-0.828125 3.921875l-1.40625 0zm15.34375 -9.859375l0.328125 -1.59375l1.40625 0l-0.328125 1.59375l-1.40625 0zm-2.0625 9.859375l1.734375 -8.296875l1.40625 0l-1.734375 8.296875l-1.40625 0zm3.6015625 0l1.734375 -8.296875l1.28125 0l-0.296875 1.4375q0.828125 -0.84375 1.546875 -1.234375q0.734375 -0.390625 1.5 -0.390625q1.0 0 1.578125 0.546875q0.578125 0.546875 0.578125 1.453125q0 0.46875 -0.203125 1.453125l-1.0625 5.03125l-1.40625 0l1.09375 -5.265625q0.171875 -0.765625 0.171875 -1.125q0 -0.421875 -0.296875 -0.671875q-0.28125 -0.265625 -0.8125 -0.265625q-1.09375 0 -1.9375 0.78125q-0.84375 0.78125 -1.25 2.6875l-0.796875 3.859375l-1.421875 0zm14.5703125 -1.5q-1.5 1.6875 -3.0625 1.6875q-0.953125 0 -1.546875 -0.546875q-0.59375 -0.5625 -0.59375 -1.359375q0 -0.515625 0.265625 -1.796875l1.0 -4.78125l1.421875 0l-1.109375 5.296875q-0.140625 0.671875 -0.140625 1.03125q0 0.46875 0.28125 0.734375q0.28125 0.265625 0.84375 0.265625q0.59375 0 1.15625 -0.28125q0.5625 -0.296875 0.96875 -0.78125q0.421875 -0.5 0.671875 -1.171875q0.171875 -0.4375 0.40625 -1.515625l0.75 -3.578125l1.40625 0l-1.734375 8.296875l-1.296875 0l0.3125 -1.5zm6.5390625 0.34375l-0.234375 1.171875q-0.515625 0.125 -0.984375 0.125q-0.84375 0 -1.34375 -0.421875q-0.375 -0.3125 -0.375 -0.84375q0 -0.28125 0.203125 -1.265625l1.0 -4.8125l-1.109375 0l0.21875 -1.09375l1.125 0l0.421875 -2.046875l1.625 -0.96875l-0.640625 3.015625l1.390625 0l-0.234375 1.09375l-1.375 0l-0.96875 4.578125q-0.171875 0.875 -0.171875 1.046875q0 0.25 0.140625 0.390625q0.140625 0.125 0.46875 0.125q0.46875 0 0.84375 -0.09375zm7.2265625 -1.671875l1.375 0.140625q-0.296875 1.03125 -1.359375 1.953125q-1.0625 0.921875 -2.546875 0.921875q-0.921875 0 -1.6875 -0.421875q-0.765625 -0.4375 -1.171875 -1.25q-0.40625 -0.8125 -0.40625 -1.84375q0 -1.359375 0.625 -2.640625q0.640625 -1.28125 1.640625 -1.890625q1.0 -0.625 2.15625 -0.625q1.484375 0 2.375 0.921875q0.890625 0.921875 0.890625 2.515625q0 0.609375 -0.109375 1.25l-6.109375 0q-0.03125 0.234375 -0.03125 0.4375q0 1.15625 0.53125 1.78125q0.53125 0.609375 1.3125 0.609375q0.71875 0 1.421875 -0.46875q0.703125 -0.484375 1.09375 -1.390625zm-4.109375 -2.046875l4.65625 0q0.015625 -0.21875 0.015625 -0.3125q0 -1.0625 -0.53125 -1.625q-0.53125 -0.578125 -1.375 -0.578125q-0.90625 0 -1.65625 0.625q-0.734375 0.625 -1.109375 1.890625zm7.0546875 2.03125l1.40625 -0.078125q0 0.609375 0.1875 1.046875q0.1875 0.421875 0.6875 0.703125q0.515625 0.265625 1.1875 0.265625q0.9375 0 1.40625 -0.375q0.46875 -0.375 0.46875 -0.890625q0 -0.359375 -0.28125 -0.6875q-0.296875 -0.328125 -1.421875 -0.8125q-1.109375 -0.484375 -1.421875 -0.671875q-0.53125 -0.328125 -0.796875 -0.75q-0.265625 -0.4375 -0.265625 -1.0q0 -0.984375 0.78125 -1.6875q0.78125 -0.703125 2.1875 -0.703125q1.5625 0 2.375 0.71875q0.828125 0.71875 0.859375 1.90625l-1.390625 0.09375q-0.03125 -0.75 -0.53125 -1.1875q-0.5 -0.4375 -1.40625 -0.4375q-0.734375 0 -1.140625 0.34375q-0.40625 0.328125 -0.40625 0.71875q0 0.390625 0.34375 0.6875q0.234375 0.203125 1.21875 0.625q1.625 0.703125 2.046875 1.109375q0.671875 0.640625 0.671875 1.578125q0 0.609375 -0.390625 1.203125q-0.375 0.59375 -1.15625 0.953125q-0.765625 0.359375 -1.828125 0.359375q-1.4375 0 -2.4375 -0.71875q-1.015625 -0.703125 -0.953125 -2.3125z" fill-rule="nonzero"/><path fill="#f3f3f3" d="m25.343832 104.07612l418.2677 0l0 39.30709l-418.2677 0z" fill-rule="evenodd"/><path stroke="#999999" stroke-width="1.0" stroke-linejoin="round" stroke-linecap="butt" d="m25.343832 104.07612l418.2677 0l0 39.30709l-418.2677 0z" fill-rule="evenodd"/><path fill="#000000" d="m35.062584 124.74862l1.4375 -0.125q0.09375 0.859375 0.46875 1.421875q0.375 0.546875 1.15625 0.890625q0.78125 0.328125 1.75 0.328125q0.875 0 1.53125 -0.25q0.671875 -0.265625 0.984375 -0.703125q0.328125 -0.453125 0.328125 -0.984375q0 -0.546875 -0.3125 -0.9375q-0.3125 -0.40625 -1.03125 -0.6875q-0.453125 -0.171875 -2.03125 -0.546875q-1.578125 -0.390625 -2.21875 -0.71875q-0.8125 -0.4375 -1.21875 -1.0625q-0.40625 -0.640625 -0.40625 -1.4375q0 -0.859375 0.484375 -1.609375q0.5 -0.765625 1.4375 -1.15625q0.953125 -0.390625 2.109375 -0.390625q1.28125 0 2.25 0.421875q0.96875 0.40625 1.484375 1.203125q0.53125 0.796875 0.578125 1.796875l-1.453125 0.109375q-0.125 -1.078125 -0.796875 -1.625q-0.671875 -0.5625 -2.0 -0.5625q-1.375 0 -2.0 0.5q-0.625 0.5 -0.625 1.21875q0 0.609375 0.4375 1.015625q0.4375 0.390625 2.28125 0.8125q1.859375 0.421875 2.546875 0.734375q1.0 0.453125 1.46875 1.171875q0.484375 0.703125 0.484375 1.625q0 0.90625 -0.53125 1.71875q-0.515625 0.8125 -1.5 1.2656174q-0.984375 0.453125 -2.203125 0.453125q-1.5625 0 -2.609375 -0.453125q-1.046875 -0.46874237 -1.65625 -1.3749924q-0.59375 -0.90625 -0.625 -2.0625zm16.421875 0.640625l1.390625 0.1875q-0.234375 1.421875 -1.171875 2.234375q-0.921875 0.8124924 -2.28125 0.8124924q-1.703125 0 -2.75 -1.1093674q-1.03125 -1.125 -1.03125 -3.203125q0 -1.34375 0.4375 -2.34375q0.453125 -1.015625 1.359375 -1.515625q0.921875 -0.5 1.984375 -0.5q1.359375 0 2.21875 0.6875q0.859375 0.671875 1.09375 1.9375l-1.359375 0.203125q-0.203125 -0.828125 -0.703125 -1.25q-0.484375 -0.421875 -1.1875 -0.421875q-1.0625 0 -1.734375 0.765625q-0.65625 0.75 -0.65625 2.40625q0 1.671875 0.640625 2.4375q0.640625 0.75 1.671875 0.75q0.828125 0 1.375 -0.5q0.5625 -0.515625 0.703125 -1.578125zm2.59375 3.0468674l0 -11.453117l1.40625 0l0 4.109375q0.984375 -1.140625 2.484375 -1.140625q0.921875 0 1.59375 0.359375q0.6875 0.359375 0.96875 1.0q0.296875 0.640625 0.296875 1.859375l0 5.2656174l-1.40625 0l0 -5.2656174q0 -1.046875 -0.453125 -1.53125q-0.453125 -0.484375 -1.296875 -0.484375q-0.625 0 -1.171875 0.328125q-0.546875 0.328125 -0.78125 0.890625q-0.234375 0.546875 -0.234375 1.515625l0 4.5468674l-1.40625 0zm14.5703125 -2.6718674l1.453125 0.171875q-0.34375 1.28125 -1.28125 1.984375q-0.921875 0.7031174 -2.359375 0.7031174q-1.828125 0 -2.890625 -1.1249924q-1.0625 -1.125 -1.0625 -3.140625q0 -2.09375 1.078125 -3.25q1.078125 -1.15625 2.796875 -1.15625q1.65625 0 2.703125 1.140625q1.0625 1.125 1.0625 3.171875q0 0.125 0 0.375l-6.1875 0q0.078125 1.375 0.765625 2.109375q0.703125 0.71875 1.734375 0.71875q0.78125 0 1.328125 -0.40625q0.546875 -0.40625 0.859375 -1.296875zm-4.609375 -2.28125l4.625 0q-0.09375 -1.046875 -0.53125 -1.5625q-0.671875 -0.8125 -1.734375 -0.8125q-0.96875 0 -1.640625 0.65625q-0.65625 0.640625 -0.71875 1.71875zm13.2109375 4.9531174l0 -1.0468674q-0.78125 1.2343674 -2.3125 1.2343674q-1.0 0 -1.828125 -0.546875q-0.828125 -0.5468674 -1.296875 -1.5312424q-0.453125 -0.984375 -0.453125 -2.25q0 -1.25 0.40625 -2.25q0.421875 -1.015625 1.25 -1.546875q0.828125 -0.546875 1.859375 -0.546875q0.75 0 1.328125 0.3125q0.59375 0.3125 0.953125 0.828125l0 -4.109375l1.40625 0l0 11.453117l-1.3125 0zm-4.4375 -4.1406174q0 1.59375 0.671875 2.390625q0.671875 0.78125 1.578125 0.78125q0.921875 0 1.5625 -0.75q0.65625 -0.765625 0.65625 -2.3125q0 -1.703125 -0.65625 -2.5q-0.65625 -0.796875 -1.625 -0.796875q-0.9375 0 -1.5625 0.765625q-0.625 0.765625 -0.625 2.421875zm13.3984375 4.1406174l0 -1.2187424q-0.96875 1.4062424 -2.640625 1.4062424q-0.734375 0 -1.375 -0.28125q-0.625 -0.28125 -0.9375 -0.7031174q-0.3125 -0.4375 -0.4375 -1.046875q-0.078125 -0.421875 -0.078125 -1.3125l0 -5.140625l1.40625 0l0 4.59375q0 1.109375 0.078125 1.484375q0.140625 0.5625 0.5625 0.875q0.4375 0.3125 1.0625 0.3125q0.640625 0 1.1875 -0.3125q0.5625 -0.328125 0.78125 -0.890625q0.234375 -0.5625 0.234375 -1.625l0 -4.4375l1.40625 0l0 8.296867l-1.25 0zm3.4296875 0l0 -11.453117l1.40625 0l0 11.453117l-1.40625 0zm9.2578125 -2.6718674l1.453125 0.171875q-0.34375 1.28125 -1.28125 1.984375q-0.921875 0.7031174 -2.359375 0.7031174q-1.828125 0 -2.890625 -1.1249924q-1.0625 -1.125 -1.0625 -3.140625q0 -2.09375 1.078125 -3.25q1.078125 -1.15625 2.796875 -1.15625q1.65625 0 2.703125 1.140625q1.0625 1.125 1.0625 3.171875q0 0.125 0 0.375l-6.1875 0q0.078125 1.375 0.765625 2.109375q0.703125 0.71875 1.734375 0.71875q0.78125 0 1.328125 -0.40625q0.546875 -0.40625 0.859375 -1.296875zm-4.609375 -2.28125l4.625 0q-0.09375 -1.046875 -0.53125 -1.5625q-0.671875 -0.8125 -1.734375 -0.8125q-0.96875 0 -1.640625 0.65625q-0.65625 0.640625 -0.71875 1.71875z" fill-rule="nonzero"/><path fill="#000000" d="m136.96883 125.607994l1.375 0.140625q-0.296875 1.03125 -1.359375 1.953125q-1.0625 0.9218674 -2.546875 0.9218674q-0.921875 0 -1.6875 -0.421875q-0.765625 -0.43749237 -1.171875 -1.2499924q-0.40625 -0.8125 -0.40625 -1.84375q0 -1.359375 0.625 -2.640625q0.640625 -1.28125 1.640625 -1.890625q1.0 -0.625 2.15625 -0.625q1.484375 0 2.375 0.921875q0.890625 0.921875 0.890625 2.515625q0 0.609375 -0.109375 1.25l-6.109375 0q-0.03125 0.234375 -0.03125 0.4375q0 1.15625 0.53125 1.78125q0.53125 0.609375 1.3125 0.609375q0.71875 0 1.421875 -0.46875q0.703125 -0.484375 1.09375 -1.390625zm-4.109375 -2.046875l4.65625 0q0.015625 -0.21875 0.015625 -0.3125q0 -1.0625 -0.53125 -1.625q-0.53125 -0.578125 -1.375 -0.578125q-0.90625 0 -1.65625 0.625q-0.734375 0.625 -1.109375 1.890625zm9.0078125 4.8749924l-1.359375 -8.296867l1.375 0l0.71875 4.5625q0.109375 0.75 0.28125 2.453125q0.40625 -0.890625 1.046875 -2.03125l2.765625 -4.984375l1.5 0l-4.75 8.296867l-1.578125 0zm12.0 -2.8281174l1.375 0.140625q-0.296875 1.03125 -1.359375 1.953125q-1.0625 0.9218674 -2.546875 0.9218674q-0.921875 0 -1.6875 -0.421875q-0.765625 -0.43749237 -1.171875 -1.2499924q-0.40625 -0.8125 -0.40625 -1.84375q0 -1.359375 0.625 -2.640625q0.640625 -1.28125 1.640625 -1.890625q1.0 -0.625 2.15625 -0.625q1.484375 0 2.375 0.921875q0.890625 0.921875 0.890625 2.515625q0 0.609375 -0.109375 1.25l-6.109375 0q-0.03125 0.234375 -0.03125 0.4375q0 1.15625 0.53125 1.78125q0.53125 0.609375 1.3125 0.609375q0.71875 0 1.421875 -0.46875q0.703125 -0.484375 1.09375 -1.390625zm-4.109375 -2.046875l4.65625 0q0.015625 -0.21875 0.015625 -0.3125q0 -1.0625 -0.53125 -1.625q-0.53125 -0.578125 -1.375 -0.578125q-0.90625 0 -1.65625 0.625q-0.734375 0.625 -1.109375 1.890625zm6.9140625 4.8749924l1.734375 -8.296867l1.25 0l-0.34375 1.6875q0.640625 -0.953125 1.25 -1.40625q0.609375 -0.46875 1.25 -0.46875q0.421875 0 1.046875 0.296875l-0.578125 1.3125q-0.375 -0.265625 -0.8125 -0.265625q-0.734375 0 -1.515625 0.828125q-0.78125 0.828125 -1.234375 2.984375l-0.703125 3.3281174l-1.34375 0zm4.796875 3.203125l0.09375 -1.328125q0.4375 0.125 0.84375 0.125q0.4375 0 0.703125 -0.1875q0.34375 -0.265625 0.75 -0.96875l0.453125 -0.8125l-1.390625 -8.328117l1.390625 0l0.625 4.1875q0.1875 1.25 0.328125 2.484375l3.703125 -6.671875l1.484375 0l-5.296875 9.406242q-0.765625 1.375 -1.359375 1.8125q-0.59375 0.453125 -1.359375 0.453125q-0.5 0 -0.96875 -0.171875zm12.9765625 -3.203125l1.734375 -8.296867l1.40625 0l-0.28125 1.359375q0.78125 -0.875 1.40625 -1.203125q0.625 -0.34375 1.34375 -0.34375q0.78125 0 1.296875 0.40625q0.515625 0.40625 0.6875 1.140625q0.625 -0.78125 1.328125 -1.15625q0.703125 -0.390625 1.46875 -0.390625q1.046875 0 1.5625 0.5q0.515625 0.484375 0.515625 1.375q0 0.375 -0.171875 1.265625l-1.125 5.3437424l-1.40625 0l1.140625 -5.4843674q0.140625 -0.671875 0.140625 -0.96875q0 -0.40625 -0.265625 -0.640625q-0.25 -0.234375 -0.71875 -0.234375q-0.625 0 -1.28125 0.390625q-0.65625 0.375 -1.03125 1.0q-0.359375 0.625 -0.625 1.90625l-0.84375 4.0312424l-1.421875 0l1.171875 -5.6093674q0.125 -0.5625 0.125 -0.8125q0 -0.40625 -0.25 -0.65625q-0.25 -0.25 -0.65625 -0.25q-0.609375 0 -1.265625 0.390625q-0.65625 0.375 -1.078125 1.0625q-0.40625 0.6875 -0.671875 1.953125l-0.828125 3.9218674l-1.40625 0zm15.34375 -9.859367l0.328125 -1.59375l1.40625 0l-0.328125 1.59375l-1.40625 0zm-2.0625 9.859367l1.734375 -8.296867l1.40625 0l-1.734375 8.296867l-1.40625 0zm3.6015625 0l1.734375 -8.296867l1.28125 0l-0.296875 1.4375q0.828125 -0.84375 1.546875 -1.234375q0.734375 -0.390625 1.5 -0.390625q1.0 0 1.578125 0.546875q0.578125 0.546875 0.578125 1.453125q0 0.46875 -0.203125 1.453125l-1.0625 5.0312424l-1.40625 0l1.09375 -5.2656174q0.171875 -0.765625 0.171875 -1.125q0 -0.421875 -0.296875 -0.671875q-0.28125 -0.265625 -0.8125 -0.265625q-1.09375 0 -1.9375 0.78125q-0.84375 0.78125 -1.25 2.6875l-0.796875 3.8593674l-1.421875 0zm14.5703125 -1.4999924q-1.5 1.6874924 -3.0625 1.6874924q-0.953125 0 -1.546875 -0.546875q-0.59375 -0.5624924 -0.59375 -1.3593674q0 -0.515625 0.265625 -1.796875l1.0 -4.78125l1.421875 0l-1.109375 5.296875q-0.140625 0.671875 -0.140625 1.03125q0 0.46875 0.28125 0.734375q0.28125 0.265625 0.84375 0.265625q0.59375 0 1.15625 -0.28125q0.5625 -0.296875 0.96875 -0.78125q0.421875 -0.5 0.671875 -1.171875q0.171875 -0.4375 0.40625 -1.515625l0.75 -3.578125l1.40625 0l-1.734375 8.296867l-1.296875 0l0.3125 -1.4999924zm6.5390625 0.34375l-0.234375 1.1718674q-0.515625 0.125 -0.984375 0.125q-0.84375 0 -1.34375 -0.421875q-0.375 -0.31249237 -0.375 -0.8437424q0 -0.28125 0.203125 -1.265625l1.0 -4.8125l-1.109375 0l0.21875 -1.09375l1.125 0l0.421875 -2.046875l1.625 -0.96875l-0.640625 3.015625l1.390625 0l-0.234375 1.09375l-1.375 0l-0.96875 4.578125q-0.171875 0.875 -0.171875 1.046875q0 0.25 0.140625 0.390625q0.140625 0.125 0.46875 0.125q0.46875 0 0.84375 -0.09375zm7.2265625 -1.671875l1.375 0.140625q-0.296875 1.03125 -1.359375 1.953125q-1.0625 0.9218674 -2.546875 0.9218674q-0.921875 0 -1.6875 -0.421875q-0.765625 -0.43749237 -1.171875 -1.2499924q-0.40625 -0.8125 -0.40625 -1.84375q0 -1.359375 0.625 -2.640625q0.640625 -1.28125 1.640625 -1.890625q1.0 -0.625 2.15625 -0.625q1.484375 0 2.375 0.921875q0.890625 0.921875 0.890625 2.515625q0 0.609375 -0.109375 1.25l-6.109375 0q-0.03125 0.234375 -0.03125 0.4375q0 1.15625 0.53125 1.78125q0.53125 0.609375 1.3125 0.609375q0.71875 0 1.421875 -0.46875q0.703125 -0.484375 1.09375 -1.390625zm-4.109375 -2.046875l4.65625 0q0.015625 -0.21875 0.015625 -0.3125q0 -1.0625 -0.53125 -1.625q-0.53125 -0.578125 -1.375 -0.578125q-0.90625 0 -1.65625 0.625q-0.734375 0.625 -1.109375 1.890625z" fill-rule="nonzero"/><path fill="#f3f3f3" d="m25.343832 152.92389l418.2677 0l0 129.07086l-418.2677 0z" fill-rule="evenodd"/><path stroke="#999999" stroke-width="1.0" stroke-linejoin="round" stroke-linecap="butt" d="m25.343832 152.92389l418.2677 0l0 129.07086l-418.2677 0z" fill-rule="evenodd"/><path fill="#000000" d="m34.312584 177.28389l4.40625 -11.453125l1.640625 0l4.6875 11.453125l-1.734375 0l-1.328125 -3.46875l-4.796875 0l-1.25 3.46875l-1.625 0zm3.3125 -4.703125l3.890625 0l-1.203125 -3.171875q-0.546875 -1.453125 -0.8125 -2.375q-0.21875 1.09375 -0.609375 2.1875l-1.265625 3.359375zm13.859375 1.65625l1.390625 0.1875q-0.234375 1.421875 -1.171875 2.234375q-0.921875 0.8125 -2.28125 0.8125q-1.703125 0 -2.75 -1.109375q-1.03125 -1.125 -1.03125 -3.203125q0 -1.34375 0.4375 -2.34375q0.453125 -1.015625 1.359375 -1.515625q0.921875 -0.5 1.984375 -0.5q1.359375 0 2.21875 0.6875q0.859375 0.671875 1.09375 1.9375l-1.359375 0.203125q-0.203125 -0.828125 -0.703125 -1.25q-0.484375 -0.421875 -1.1875 -0.421875q-1.0625 0 -1.734375 0.765625q-0.65625 0.75 -0.65625 2.40625q0 1.671875 0.640625 2.4375q0.640625 0.75 1.671875 0.75q0.828125 0 1.375 -0.5q0.5625 -0.515625 0.703125 -1.578125zm5.65625 1.78125l0.203125 1.25q-0.59375 0.125 -1.0625 0.125q-0.765625 0 -1.1875 -0.234375q-0.421875 -0.25 -0.59375 -0.640625q-0.171875 -0.40625 -0.171875 -1.671875l0 -4.765625l-1.03125 0l0 -1.09375l1.03125 0l0 -2.0625l1.40625 -0.84375l0 2.90625l1.40625 0l0 1.09375l-1.40625 0l0 4.84375q0 0.609375 0.0625 0.78125q0.078125 0.171875 0.25 0.28125q0.171875 0.09375 0.484375 0.09375q0.234375 0 0.609375 -0.0625zm1.3828125 -8.578125l0 -1.609375l1.40625 0l0 1.609375l-1.40625 0zm0 9.84375l0 -8.296875l1.40625 0l0 8.296875l-1.40625 0zm3.0234375 -4.15625q0 -2.296875 1.28125 -3.40625q1.078125 -0.921875 2.609375 -0.921875q1.71875 0 2.796875 1.125q1.09375 1.109375 1.09375 3.09375q0 1.59375 -0.484375 2.515625q-0.484375 0.921875 -1.40625 1.4375q-0.90625 0.5 -2.0 0.5q-1.734375 0 -2.8125 -1.109375q-1.078125 -1.125 -1.078125 -3.234375zm1.453125 0q0 1.59375 0.6875 2.390625q0.703125 0.796875 1.75 0.796875q1.046875 0 1.734375 -0.796875q0.703125 -0.796875 0.703125 -2.4375q0 -1.53125 -0.703125 -2.328125q-0.6875 -0.796875 -1.734375 -0.796875q-1.046875 0 -1.75 0.796875q-0.6875 0.78125 -0.6875 2.375zm7.9765625 4.15625l0 -8.296875l1.265625 0l0 1.171875q0.90625 -1.359375 2.640625 -1.359375q0.75 0 1.375 0.265625q0.625 0.265625 0.9375 0.703125q0.3125 0.4375 0.4375 1.046875q0.078125 0.390625 0.078125 1.359375l0 5.109375l-1.40625 0l0 -5.046875q0 -0.859375 -0.171875 -1.28125q-0.15625 -0.4375 -0.578125 -0.6875q-0.40625 -0.25 -0.96875 -0.25q-0.90625 0 -1.5625 0.578125q-0.640625 0.5625 -0.640625 2.15625l0 4.53125l-1.40625 0zm8.3359375 -2.484375l1.390625 -0.21875q0.109375 0.84375 0.640625 1.296875q0.546875 0.4375 1.5 0.4375q0.96875 0 1.4375 -0.390625q0.46875 -0.40625 0.46875 -0.9375q0 -0.46875 -0.40625 -0.75q-0.296875 -0.1875 -1.4375 -0.46875q-1.546875 -0.390625 -2.15625 -0.671875q-0.59375 -0.296875 -0.90625 -0.796875q-0.296875 -0.5 -0.296875 -1.109375q0 -0.5625 0.25 -1.03125q0.25 -0.46875 0.6875 -0.78125q0.328125 -0.25 0.890625 -0.40625q0.578125 -0.171875 1.21875 -0.171875q0.984375 0 1.71875 0.28125q0.734375 0.28125 1.078125 0.765625q0.359375 0.46875 0.5 1.28125l-1.375 0.1875q-0.09375 -0.640625 -0.546875 -1.0q-0.453125 -0.359375 -1.265625 -0.359375q-0.96875 0 -1.390625 0.328125q-0.40625 0.3125 -0.40625 0.734375q0 0.28125 0.171875 0.5q0.171875 0.21875 0.53125 0.375q0.21875 0.078125 1.25 0.359375q1.484375 0.390625 2.078125 0.65625q0.59375 0.25 0.921875 0.734375q0.34375 0.484375 0.34375 1.203125q0 0.703125 -0.421875 1.328125q-0.40625 0.609375 -1.1875 0.953125q-0.765625 0.34375 -1.734375 0.34375q-1.625 0 -2.46875 -0.671875q-0.84375 -0.671875 -1.078125 -2.0z" fill-rule="nonzero"/><path fill="#d9d9d9" d="m131.97372 163.3517l296.9449 0l0 106.92915l-296.9449 0z" fill-rule="evenodd"/><path stroke="#999999" stroke-width="1.0" stroke-linejoin="round" stroke-linecap="butt" d="m131.97372 163.3517l296.9449 0l0 106.92915l-296.9449 0z" fill-rule="evenodd"/><path fill="#000000" d="m144.0831 183.8717l0 -7.578125l-2.828125 0l0 -1.015625l6.8125 0l0 1.015625l-2.84375 0l0 7.578125l-1.140625 0zm4.3085938 2.390625l-0.125 -0.984375q0.34375 0.09375 0.609375 0.09375q0.34375 0 0.546875 -0.125q0.21875 -0.109375 0.359375 -0.3125q0.09375 -0.171875 0.328125 -0.796875q0.015625 -0.078125 0.09375 -0.25l-2.375 -6.234375l1.140625 0l1.296875 3.59375q0.25 0.6875 0.453125 1.453125q0.1875 -0.734375 0.4375 -1.421875l1.328125 -3.625l1.046875 0l-2.359375 6.328125q-0.390625 1.015625 -0.59375 1.40625q-0.28125 0.53125 -0.65625 0.765625q-0.359375 0.25 -0.859375 0.25q-0.296875 0 -0.671875 -0.140625zm6.046875 0l0 -8.609375l0.953125 0l0 0.796875q0.34375 -0.46875 0.765625 -0.703125q0.4375 -0.234375 1.046875 -0.234375q0.796875 0 1.40625 0.40625q0.609375 0.40625 0.90625 1.15625q0.3125 0.75 0.3125 1.640625q0 0.953125 -0.34375 1.71875q-0.328125 0.765625 -0.984375 1.171875q-0.65625 0.40625 -1.375 0.40625q-0.53125 0 -0.953125 -0.21875q-0.421875 -0.234375 -0.6875 -0.5625l0 3.03125l-1.046875 0zm0.953125 -5.46875q0 1.203125 0.484375 1.78125q0.484375 0.5625 1.171875 0.5625q0.703125 0 1.203125 -0.59375q0.5 -0.59375 0.5 -1.84375q0 -1.1875 -0.484375 -1.765625q-0.484375 -0.59375 -1.171875 -0.59375q-0.671875 0 -1.1875 0.625q-0.515625 0.625 -0.515625 1.828125zm9.970703 1.078125l1.09375 0.125q-0.25 0.953125 -0.953125 1.484375q-0.703125 0.53125 -1.78125 0.53125q-1.359375 0 -2.171875 -0.84375q-0.796875 -0.84375 -0.796875 -2.359375q0 -1.5625 0.8125 -2.421875q0.8125 -0.875 2.09375 -0.875q1.25 0 2.03125 0.84375q0.796875 0.84375 0.796875 2.390625q0 0.09375 0 0.28125l-4.640625 0q0.0625 1.03125 0.578125 1.578125q0.515625 0.53125 1.296875 0.53125q0.578125 0 0.984375 -0.296875q0.421875 -0.3125 0.65625 -0.96875zm-3.453125 -1.703125l3.46875 0q-0.0625 -0.796875 -0.390625 -1.1875q-0.515625 -0.609375 -1.3125 -0.609375q-0.734375 0 -1.234375 0.484375q-0.484375 0.484375 -0.53125 1.3125zm6.158203 -1.3125l0 -1.203125l1.203125 0l0 1.203125l-1.203125 0zm0 5.015625l0 -1.203125l1.203125 0l0 1.203125l-1.203125 0z" fill-rule="nonzero"/><path fill="#000000" d="m241.94247 181.76233l1.03125 0.09375q-0.21875 0.765625 -1.03125 1.46875q-0.796875 0.6875 -1.890625 0.6875q-0.703125 0 -1.28125 -0.3125q-0.578125 -0.328125 -0.875 -0.9375q-0.296875 -0.609375 -0.296875 -1.390625q0 -1.015625 0.46875 -1.96875q0.46875 -0.96875 1.21875 -1.421875q0.75 -0.46875 1.625 -0.46875q1.109375 0 1.765625 0.6875q0.671875 0.6875 0.671875 1.890625q0 0.453125 -0.078125 0.9375l-4.578125 0q-0.03125 0.171875 -0.03125 0.328125q0 0.875 0.40625 1.328125q0.40625 0.453125 0.984375 0.453125q0.546875 0 1.0625 -0.34375q0.53125 -0.359375 0.828125 -1.03125zm-3.078125 -1.546875l3.484375 0q0.015625 -0.171875 0.015625 -0.234375q0 -0.796875 -0.40625 -1.21875q-0.390625 -0.421875 -1.015625 -0.421875q-0.6875 0 -1.25 0.46875q-0.5625 0.46875 -0.828125 1.40625zm5.173828 3.65625l1.296875 -6.21875l1.0625 0l-0.21875 1.015625q0.59375 -0.65625 1.0625 -0.90625q0.46875 -0.25 1.015625 -0.25q0.578125 0 0.96875 0.3125q0.390625 0.296875 0.515625 0.84375q0.46875 -0.578125 0.984375 -0.859375q0.53125 -0.296875 1.109375 -0.296875q0.78125 0 1.171875 0.375q0.390625 0.359375 0.390625 1.03125q0 0.28125 -0.140625 0.9375l-0.828125 4.015625l-1.0625 0l0.859375 -4.109375q0.109375 -0.515625 0.109375 -0.71875q0 -0.3125 -0.203125 -0.484375q-0.1875 -0.171875 -0.53125 -0.171875q-0.484375 0 -0.984375 0.28125q-0.484375 0.28125 -0.765625 0.75q-0.265625 0.46875 -0.46875 1.4375l-0.625 3.015625l-1.0625 0l0.875 -4.203125q0.09375 -0.421875 0.09375 -0.609375q0 -0.296875 -0.1875 -0.484375q-0.1875 -0.1875 -0.5 -0.1875q-0.453125 0 -0.953125 0.28125q-0.484375 0.28125 -0.796875 0.796875q-0.3125 0.515625 -0.515625 1.46875l-0.609375 2.9375l-1.0625 0zm14.199219 -0.78125q-0.546875 0.484375 -1.0625 0.703125q-0.5 0.21875 -1.09375 0.21875q-0.859375 0 -1.390625 -0.5q-0.515625 -0.515625 -0.515625 -1.3125q0 -0.515625 0.234375 -0.90625q0.234375 -0.40625 0.625 -0.640625q0.390625 -0.25 0.96875 -0.359375q0.359375 -0.078125 1.359375 -0.109375q1.0 -0.046875 1.421875 -0.21875q0.125 -0.4375 0.125 -0.71875q0 -0.375 -0.265625 -0.578125q-0.375 -0.296875 -1.078125 -0.296875q-0.671875 0 -1.09375 0.296875q-0.421875 0.296875 -0.625 0.84375l-1.0625 -0.09375q0.328125 -0.921875 1.03125 -1.40625q0.71875 -0.5 1.796875 -0.5q1.15625 0 1.828125 0.546875q0.515625 0.40625 0.515625 1.0625q0 0.5 -0.140625 1.15625l-0.34375 1.546875q-0.171875 0.734375 -0.171875 1.203125q0 0.296875 0.140625 0.84375l-1.078125 0q-0.09375 -0.3125 -0.125 -0.78125zm0.390625 -2.375q-0.21875 0.09375 -0.484375 0.140625q-0.25 0.046875 -0.84375 0.09375q-0.921875 0.078125 -1.3125 0.21875q-0.375 0.125 -0.578125 0.40625q-0.1875 0.265625 -0.1875 0.59375q0 0.453125 0.3125 0.734375q0.3125 0.28125 0.875 0.28125q0.53125 0 1.015625 -0.265625q0.484375 -0.28125 0.765625 -0.78125q0.28125 -0.5 0.4375 -1.421875zm3.5957031 -4.234375l0.25 -1.203125l1.0625 0l-0.265625 1.203125l-1.046875 0zm-1.546875 7.390625l1.296875 -6.21875l1.0625 0l-1.296875 6.21875l-1.0625 0zm2.6191406 0l1.796875 -8.59375l1.0625 0l-1.796875 8.59375l-1.0625 0z" fill-rule="nonzero"/><path fill="#000000" d="m148.03622 199.85608l1.125 0.296875q-0.359375 1.390625 -1.28125 2.125q-0.921875 0.734375 -2.265625 0.734375q-1.390625 0 -2.265625 -0.5625q-0.875 -0.5625 -1.328125 -1.625q-0.453125 -1.078125 -0.453125 -2.3125q0 -1.34375 0.515625 -2.34375q0.515625 -1.0 1.453125 -1.515625q0.953125 -0.515625 2.09375 -0.515625q1.28125 0 2.15625 0.65625q0.890625 0.65625 1.234375 1.84375l-1.125 0.265625q-0.296875 -0.9375 -0.875 -1.359375q-0.5625 -0.4375 -1.421875 -0.4375q-0.984375 0 -1.65625 0.484375q-0.65625 0.46875 -0.9375 1.265625q-0.265625 0.796875 -0.265625 1.65625q0 1.09375 0.3125 1.90625q0.328125 0.8125 1.0 1.21875q0.671875 0.40625 1.46875 0.40625q0.953125 0 1.609375 -0.546875q0.671875 -0.546875 0.90625 -1.640625zm2.0097656 -0.09375q0 -1.734375 0.953125 -2.5625q0.796875 -0.6875 1.953125 -0.6875q1.28125 0 2.09375 0.84375q0.828125 0.828125 0.828125 2.3125q0 1.203125 -0.359375 1.890625q-0.359375 0.6875 -1.0625 1.078125q-0.6875 0.375 -1.5 0.375q-1.296875 0 -2.109375 -0.828125q-0.796875 -0.84375 -0.796875 -2.421875zm1.078125 0q0 1.1875 0.515625 1.78125q0.53125 0.59375 1.3125 0.59375q0.796875 0 1.3125 -0.59375q0.515625 -0.59375 0.515625 -1.8125q0 -1.15625 -0.53125 -1.75q-0.515625 -0.59375 -1.296875 -0.59375q-0.78125 0 -1.3125 0.59375q-0.515625 0.578125 -0.515625 1.78125zm5.986328 3.109375l0 -6.21875l0.9375 0l0 0.875q0.6875 -1.015625 1.984375 -1.015625q0.5625 0 1.03125 0.203125q0.484375 0.203125 0.71875 0.53125q0.234375 0.328125 0.328125 0.765625q0.046875 0.296875 0.046875 1.03125l0 3.828125l-1.046875 0l0 -3.78125q0 -0.65625 -0.125 -0.96875q-0.125 -0.3125 -0.4375 -0.5q-0.3125 -0.203125 -0.734375 -0.203125q-0.671875 0 -1.171875 0.4375q-0.484375 0.421875 -0.484375 1.609375l0 3.40625l-1.046875 0zm6.673828 0l0 -6.21875l0.9375 0l0 0.875q0.6875 -1.015625 1.984375 -1.015625q0.5625 0 1.03125 0.203125q0.484375 0.203125 0.71875 0.53125q0.234375 0.328125 0.328125 0.765625q0.046875 0.296875 0.046875 1.03125l0 3.828125l-1.046875 0l0 -3.78125q0 -0.65625 -0.125 -0.96875q-0.125 -0.3125 -0.4375 -0.5q-0.3125 -0.203125 -0.734375 -0.203125q-0.671875 0 -1.171875 0.4375q-0.484375 0.421875 -0.484375 1.609375l0 3.40625l-1.046875 0zm10.923828 -2.0l1.09375 0.125q-0.25 0.953125 -0.953125 1.484375q-0.703125 0.53125 -1.78125 0.53125q-1.359375 0 -2.171875 -0.84375q-0.796875 -0.84375 -0.796875 -2.359375q0 -1.5625 0.8125 -2.421875q0.8125 -0.875 2.09375 -0.875q1.25 0 2.03125 0.84375q0.796875 0.84375 0.796875 2.390625q0 0.09375 0 0.28125l-4.640625 0q0.0625 1.03125 0.578125 1.578125q0.515625 0.53125 1.296875 0.53125q0.578125 0 0.984375 -0.296875q0.421875 -0.3125 0.65625 -0.96875zm-3.453125 -1.703125l3.46875 0q-0.0625 -0.796875 -0.390625 -1.1875q-0.515625 -0.609375 -1.3125 -0.609375q-0.734375 0 -1.234375 0.484375q-0.484375 0.484375 -0.53125 1.3125zm9.939453 1.421875l1.03125 0.140625q-0.171875 1.0625 -0.875 1.671875q-0.703125 0.609375 -1.71875 0.609375q-1.28125 0 -2.0625 -0.828125q-0.765625 -0.84375 -0.765625 -2.40625q0 -1.0 0.328125 -1.75q0.34375 -0.765625 1.015625 -1.140625q0.6875 -0.375 1.5 -0.375q1.0 0 1.640625 0.515625q0.65625 0.5 0.84375 1.453125l-1.03125 0.15625q-0.140625 -0.625 -0.515625 -0.9375q-0.375 -0.328125 -0.90625 -0.328125q-0.796875 0 -1.296875 0.578125q-0.5 0.5625 -0.5 1.796875q0 1.265625 0.484375 1.828125q0.484375 0.5625 1.25 0.5625q0.625 0 1.03125 -0.375q0.421875 -0.375 0.546875 -1.171875zm4.234375 1.34375l0.15625 0.921875q-0.453125 0.09375 -0.796875 0.09375q-0.578125 0 -0.890625 -0.171875q-0.3125 -0.1875 -0.453125 -0.484375q-0.125 -0.296875 -0.125 -1.25l0 -3.578125l-0.765625 0l0 -0.8125l0.765625 0l0 -1.546875l1.046875 -0.625l0 2.171875l1.0625 0l0 0.8125l-1.0625 0l0 3.640625q0 0.453125 0.046875 0.578125q0.0625 0.125 0.1875 0.203125q0.125 0.078125 0.359375 0.078125q0.1875 0 0.46875 -0.03125zm1.0371094 -6.4375l0 -1.21875l1.0625 0l0 1.21875l-1.0625 0zm0 7.375l0 -6.21875l1.0625 0l0 6.21875l-1.0625 0zm2.2753906 -3.109375q0 -1.734375 0.953125 -2.5625q0.796875 -0.6875 1.953125 -0.6875q1.28125 0 2.09375 0.84375q0.828125 0.828125 0.828125 2.3125q0 1.203125 -0.359375 1.890625q-0.359375 0.6875 -1.0625 1.078125q-0.6875 0.375 -1.5 0.375q-1.296875 0 -2.109375 -0.828125q-0.796875 -0.84375 -0.796875 -2.421875zm1.078125 0q0 1.1875 0.515625 1.78125q0.53125 0.59375 1.3125 0.59375q0.796875 0 1.3125 -0.59375q0.515625 -0.59375 0.515625 -1.8125q0 -1.15625 -0.53125 -1.75q-0.515625 -0.59375 -1.296875 -0.59375q-0.78125 0 -1.3125 0.59375q-0.515625 0.578125 -0.515625 1.78125zm5.986328 3.109375l0 -6.21875l0.9375 0l0 0.875q0.6875 -1.015625 1.984375 -1.015625q0.5625 0 1.03125 0.203125q0.484375 0.203125 0.71875 0.53125q0.234375 0.328125 0.328125 0.765625q0.046875 0.296875 0.046875 1.03125l0 3.828125l-1.046875 0l0 -3.78125q0 -0.65625 -0.125 -0.96875q-0.125 -0.3125 -0.4375 -0.5q-0.3125 -0.203125 -0.734375 -0.203125q-0.671875 0 -1.171875 0.4375q-0.484375 0.421875 -0.484375 1.609375l0 3.40625l-1.046875 0zm6.955078 -5.015625l0 -1.203125l1.203125 0l0 1.203125l-1.203125 0zm0 5.015625l0 -1.203125l1.203125 0l0 1.203125l-1.203125 0z" fill-rule="nonzero"/><path fill="#000000" d="m237.37997 202.8717l1.78125 -8.59375l1.0625 0l-0.6875 3.296875q0.59375 -0.5625 1.09375 -0.8125q0.515625 -0.25 1.0625 -0.25q0.765625 0 1.1875 0.40625q0.4375 0.40625 0.4375 1.078125q0 0.328125 -0.1875 1.203125l-0.765625 3.671875l-1.0625 0l0.796875 -3.765625q0.171875 -0.828125 0.171875 -1.03125q0 -0.3125 -0.21875 -0.5q-0.203125 -0.1875 -0.609375 -0.1875q-0.578125 0 -1.09375 0.296875q-0.515625 0.296875 -0.8125 0.828125q-0.296875 0.515625 -0.546875 1.6875l-0.5625 2.671875l-1.046875 0zm6.861328 -2.359375q0 -1.828125 1.0625 -3.015625q0.890625 -0.984375 2.328125 -0.984375q1.125 0 1.8125 0.703125q0.6875 0.703125 0.6875 1.890625q0 1.078125 -0.4375 2.0q-0.4375 0.921875 -1.234375 1.421875q-0.796875 0.484375 -1.6875 0.484375q-0.71875 0 -1.3125 -0.3125q-0.59375 -0.3125 -0.90625 -0.875q-0.3125 -0.578125 -0.3125 -1.3125zm1.046875 -0.109375q0 0.875 0.421875 1.328125q0.421875 0.453125 1.078125 0.453125q0.34375 0 0.671875 -0.125q0.34375 -0.140625 0.625 -0.421875q0.28125 -0.28125 0.484375 -0.640625q0.203125 -0.359375 0.328125 -0.78125q0.1875 -0.578125 0.1875 -1.109375q0 -0.84375 -0.4375 -1.3125q-0.421875 -0.46875 -1.0625 -0.46875q-0.5 0 -0.90625 0.25q-0.40625 0.234375 -0.75 0.6875q-0.328125 0.453125 -0.484375 1.0625q-0.15625 0.609375 -0.15625 1.078125zm5.533203 0.34375l1.0625 -0.0625q0 0.453125 0.140625 0.78125q0.140625 0.3125 0.515625 0.515625q0.375 0.203125 0.875 0.203125q0.703125 0 1.046875 -0.28125q0.359375 -0.28125 0.359375 -0.65625q0 -0.28125 -0.203125 -0.515625q-0.21875 -0.25 -1.0625 -0.609375q-0.84375 -0.359375 -1.078125 -0.515625q-0.390625 -0.234375 -0.59375 -0.5625q-0.1875 -0.328125 -0.1875 -0.75q0 -0.734375 0.578125 -1.25q0.59375 -0.53125 1.640625 -0.53125q1.171875 0 1.78125 0.546875q0.625 0.53125 0.640625 1.421875l-1.03125 0.0625q-0.03125 -0.5625 -0.40625 -0.890625q-0.375 -0.328125 -1.0625 -0.328125q-0.546875 0 -0.859375 0.25q-0.296875 0.25 -0.296875 0.546875q0 0.296875 0.265625 0.515625q0.171875 0.15625 0.90625 0.46875q1.21875 0.53125 1.53125 0.828125q0.515625 0.5 0.515625 1.1875q0 0.46875 -0.296875 0.921875q-0.28125 0.4375 -0.859375 0.703125q-0.578125 0.265625 -1.375 0.265625q-1.078125 0 -1.828125 -0.53125q-0.765625 -0.53125 -0.71875 -1.734375zm8.375 1.265625l-0.171875 0.859375q-0.375 0.109375 -0.734375 0.109375q-0.640625 0 -1.015625 -0.3125q-0.28125 -0.234375 -0.28125 -0.640625q0 -0.203125 0.15625 -0.9375l0.75 -3.625l-0.828125 0l0.171875 -0.8125l0.828125 0l0.328125 -1.53125l1.203125 -0.734375l-0.46875 2.265625l1.046875 0l-0.171875 0.8125l-1.046875 0l-0.71875 3.4375q-0.140625 0.65625 -0.140625 0.796875q0 0.1875 0.109375 0.28125q0.109375 0.09375 0.359375 0.09375q0.359375 0 0.625 -0.0625zm10.542969 -4.1875l-5.671875 0l0 -0.984375l5.671875 0l0 0.984375zm0 2.609375l-5.671875 0l0 -0.984375l5.671875 0l0 0.984375zm3.9824219 2.4375l1.296875 -6.21875l1.0625 0l-0.21875 1.015625q0.59375 -0.65625 1.0625 -0.90625q0.46875 -0.25 1.015625 -0.25q0.578125 0 0.96875 0.3125q0.390625 0.296875 0.515625 0.84375q0.46875 -0.578125 0.984375 -0.859375q0.53125 -0.296875 1.109375 -0.296875q0.78125 0 1.171875 0.375q0.390625 0.359375 0.390625 1.03125q0 0.28125 -0.140625 0.9375l-0.828125 4.015625l-1.0625 0l0.859375 -4.109375q0.109375 -0.515625 0.109375 -0.71875q0 -0.3125 -0.203125 -0.484375q-0.1875 -0.171875 -0.53125 -0.171875q-0.484375 0 -0.984375 0.28125q-0.484375 0.28125 -0.765625 0.75q-0.265625 0.46875 -0.46875 1.4375l-0.625 3.015625l-1.0625 0l0.875 -4.203125q0.09375 -0.421875 0.09375 -0.609375q0 -0.296875 -0.1875 -0.484375q-0.1875 -0.1875 -0.5 -0.1875q-0.453125 0 -0.953125 0.28125q-0.484375 0.28125 -0.796875 0.796875q-0.3125 0.515625 -0.515625 1.46875l-0.609375 2.9375l-1.0625 0zm9.605469 2.40625l0.0625 -1.0q0.328125 0.09375 0.640625 0.09375q0.328125 0 0.515625 -0.140625q0.265625 -0.203125 0.5625 -0.734375l0.34375 -0.609375l-1.03125 -6.234375l1.046875 0l0.46875 3.140625q0.140625 0.9375 0.234375 1.859375l2.78125 -5.0l1.109375 0l-3.96875 7.046875q-0.578125 1.03125 -1.03125 1.359375q-0.4375 0.34375 -1.015625 0.34375q-0.359375 0 -0.71875 -0.125zm5.796875 -2.40625l0.25 -1.203125l1.203125 0l-0.25 1.203125l-1.203125 0zm7.3339844 -2.265625l1.0625 0.109375q-0.390625 1.171875 -1.125 1.734375q-0.734375 0.5625 -1.671875 0.5625q-1.015625 0 -1.65625 -0.65625q-0.625 -0.65625 -0.625 -1.828125q0 -1.03125 0.40625 -2.015625q0.40625 -0.984375 1.15625 -1.484375q0.75 -0.515625 1.71875 -0.515625q1.0 0 1.578125 0.5625q0.59375 0.5625 0.59375 1.5l-1.03125 0.0625q-0.015625 -0.59375 -0.359375 -0.921875q-0.328125 -0.328125 -0.875 -0.328125q-0.640625 0 -1.109375 0.40625q-0.46875 0.390625 -0.734375 1.21875q-0.265625 0.828125 -0.265625 1.578125q0 0.796875 0.34375 1.203125q0.359375 0.390625 0.875 0.390625q0.515625 0 0.984375 -0.390625q0.46875 -0.390625 0.734375 -1.1875zm1.90625 -0.09375q0 -1.828125 1.0625 -3.015625q0.890625 -0.984375 2.328125 -0.984375q1.125 0 1.8125 0.703125q0.6875 0.703125 0.6875 1.890625q0 1.078125 -0.4375 2.0q-0.4375 0.921875 -1.234375 1.421875q-0.796875 0.484375 -1.6875 0.484375q-0.71875 0 -1.3125 -0.3125q-0.59375 -0.3125 -0.90625 -0.875q-0.3125 -0.578125 -0.3125 -1.3125zm1.046875 -0.109375q0 0.875 0.421875 1.328125q0.421875 0.453125 1.078125 0.453125q0.34375 0 0.671875 -0.125q0.34375 -0.140625 0.625 -0.421875q0.28125 -0.28125 0.484375 -0.640625q0.203125 -0.359375 0.328125 -0.78125q0.1875 -0.578125 0.1875 -1.109375q0 -0.84375 -0.4375 -1.3125q-0.421875 -0.46875 -1.0625 -0.46875q-0.5 0 -0.90625 0.25q-0.40625 0.234375 -0.75 0.6875q-0.328125 0.453125 -0.484375 1.0625q-0.15625 0.609375 -0.15625 1.078125z" fill-rule="nonzero"/><path fill="#000000" d="m236.84872 219.26233l1.796875 -8.609375l0.984375 0l-0.1875 0.859375q0.546875 -0.5625 0.96875 -0.78125q0.4375 -0.21875 0.921875 -0.21875q0.890625 0 1.46875 0.65625q0.59375 0.640625 0.59375 1.84375q0 0.96875 -0.328125 1.765625q-0.3125 0.796875 -0.78125 1.296875q-0.46875 0.484375 -0.953125 0.71875q-0.484375 0.21875 -0.984375 0.21875q-1.125 0 -1.734375 -1.140625l-0.703125 3.390625l-1.0625 0zm2.09375 -4.9375q0 0.703125 0.109375 0.96875q0.140625 0.375 0.46875 0.609375q0.34375 0.234375 0.78125 0.234375q0.921875 0 1.484375 -1.015625q0.5625 -1.03125 0.5625 -2.109375q0 -0.78125 -0.390625 -1.21875q-0.375 -0.4375 -0.9375 -0.4375q-0.40625 0 -0.75 0.21875q-0.34375 0.21875 -0.640625 0.640625q-0.296875 0.421875 -0.5 1.046875q-0.1875 0.609375 -0.1875 1.0625zm5.298828 0.1875q0 -1.828125 1.0625 -3.015625q0.890625 -0.984375 2.328125 -0.984375q1.125 0 1.8125 0.703125q0.6875 0.703125 0.6875 1.890625q0 1.078125 -0.4375 2.0q-0.4375 0.921875 -1.234375 1.421875q-0.796875 0.484375 -1.6875 0.484375q-0.71875 0 -1.3125 -0.3125q-0.59375 -0.3125 -0.90625 -0.875q-0.3125 -0.578125 -0.3125 -1.3125zm1.046875 -0.109375q0 0.875 0.421875 1.328125q0.421875 0.453125 1.078125 0.453125q0.34375 0 0.671875 -0.125q0.34375 -0.140625 0.625 -0.421875q0.28125 -0.28125 0.484375 -0.640625q0.203125 -0.359375 0.328125 -0.78125q0.1875 -0.578125 0.1875 -1.109375q0 -0.84375 -0.4375 -1.3125q-0.421875 -0.46875 -1.0625 -0.46875q-0.5 0 -0.90625 0.25q-0.40625 0.234375 -0.75 0.6875q-0.328125 0.453125 -0.484375 1.0625q-0.15625 0.609375 -0.15625 1.078125zm5.439453 2.46875l1.296875 -6.21875l0.9375 0l-0.265625 1.265625q0.484375 -0.71875 0.9375 -1.0625q0.46875 -0.34375 0.9375 -0.34375q0.328125 0 0.78125 0.21875l-0.4375 0.984375q-0.265625 -0.1875 -0.59375 -0.1875q-0.5625 0 -1.15625 0.625q-0.578125 0.609375 -0.90625 2.21875l-0.53125 2.5l-1.0 0zm6.4648438 -0.859375l-0.171875 0.859375q-0.375 0.109375 -0.734375 0.109375q-0.640625 0 -1.015625 -0.3125q-0.28125 -0.234375 -0.28125 -0.640625q0 -0.203125 0.15625 -0.9375l0.75 -3.625l-0.828125 0l0.171875 -0.8125l0.828125 0l0.328125 -1.53125l1.203125 -0.734375l-0.46875 2.265625l1.046875 0l-0.171875 0.8125l-1.046875 0l-0.71875 3.4375q-0.140625 0.65625 -0.140625 0.796875q0 0.1875 0.109375 0.28125q0.109375 0.09375 0.359375 0.09375q0.359375 0 0.625 -0.0625zm10.542969 -4.1875l-5.671875 0l0 -0.984375l5.671875 0l0 0.984375zm0 2.609375l-5.671875 0l0 -0.984375l5.671875 0l0 0.984375zm4.435547 -0.015625l1.078125 -0.109375q-0.015625 0.234375 -0.015625 0.28125q0 0.375 0.1875 0.78125q0.203125 0.390625 0.53125 0.59375q0.34375 0.203125 0.71875 0.203125q0.5 0 1.0 -0.328125q0.515625 -0.34375 0.828125 -0.984375q0.3125 -0.65625 0.3125 -1.296875q0 -0.71875 -0.421875 -1.15625q-0.421875 -0.4375 -1.109375 -0.4375q-0.46875 0 -0.890625 0.234375q-0.40625 0.21875 -0.765625 0.65625l-0.921875 -0.0625l1.296875 -4.390625l4.203125 0l-0.21875 0.96875l-3.25 0l-0.65625 2.1875q0.375 -0.265625 0.75 -0.390625q0.390625 -0.140625 0.796875 -0.140625q0.984375 0 1.609375 0.65625q0.640625 0.640625 0.640625 1.78125q0 0.984375 -0.4375 1.828125q-0.4375 0.828125 -1.203125 1.28125q-0.75 0.4375 -1.625 0.4375q-0.75 0 -1.3125 -0.328125q-0.5625 -0.328125 -0.859375 -0.90625q-0.28125 -0.59375 -0.28125 -1.1875q0 -0.0625 0.015625 -0.171875zm8.533203 -2.265625q-0.46875 -0.265625 -0.71875 -0.671875q-0.234375 -0.421875 -0.234375 -0.890625q0 -0.78125 0.5625 -1.453125q0.75 -0.890625 2.03125 -0.890625q1.125 0 1.78125 0.609375q0.65625 0.609375 0.65625 1.484375q0 0.625 -0.359375 1.125q-0.34375 0.5 -1.09375 0.8125q0.515625 0.3125 0.734375 0.671875q0.28125 0.484375 0.28125 1.109375q0 1.15625 -0.8125 2.0625q-0.8125 0.90625 -2.171875 0.90625q-1.09375 0 -1.78125 -0.671875q-0.6875 -0.671875 -0.6875 -1.671875q0 -0.9375 0.484375 -1.609375q0.5 -0.6875 1.328125 -0.921875zm0.09375 -1.515625q0 0.546875 0.34375 0.890625q0.359375 0.328125 0.984375 0.328125q0.71875 0 1.171875 -0.4375q0.453125 -0.453125 0.453125 -1.09375q0 -0.546875 -0.359375 -0.890625q-0.34375 -0.34375 -0.96875 -0.34375q-0.46875 0 -0.859375 0.21875q-0.390625 0.21875 -0.578125 0.59375q-0.1875 0.375 -0.1875 0.734375zm-0.828125 4.140625q0 0.359375 0.171875 0.6875q0.171875 0.328125 0.515625 0.515625q0.359375 0.1875 0.8125 0.1875q0.859375 0 1.390625 -0.796875q0.421875 -0.640625 0.421875 -1.375q0 -0.59375 -0.390625 -0.96875q-0.390625 -0.390625 -1.015625 -0.390625q-0.796875 0 -1.359375 0.59375q-0.546875 0.59375 -0.546875 1.546875zm6.439453 2.09375q0.140625 -0.875 0.609375 -2.09375q0.546875 -1.46875 1.421875 -2.90625q0.890625 -1.453125 1.96875 -2.5l-4.28125 0l0.203125 -0.96875l5.484375 0l-0.203125 0.96875q-1.390625 1.21875 -2.4375 3.15625q-1.203125 2.234375 -1.65625 4.34375l-1.109375 0z" fill-rule="nonzero"/><path fill="#000000" d="m141.8956 236.8717l0 -8.59375l3.25 0q0.84375 0 1.296875 0.078125q0.640625 0.109375 1.0625 0.40625q0.4375 0.296875 0.6875 0.828125q0.265625 0.53125 0.265625 1.171875q0 1.09375 -0.703125 1.859375q-0.6875 0.75 -2.515625 0.75l-2.203125 0l0 3.5l-1.140625 0zm1.140625 -4.5l2.21875 0q1.109375 0 1.5625 -0.40625q0.46875 -0.421875 0.46875 -1.171875q0 -0.53125 -0.28125 -0.90625q-0.265625 -0.390625 -0.703125 -0.515625q-0.296875 -0.078125 -1.0625 -0.078125l-2.203125 0l0 3.078125zm6.7226562 4.5l0 -6.21875l0.953125 0l0 0.9375q0.359375 -0.65625 0.65625 -0.859375q0.3125 -0.21875 0.6875 -0.21875q0.53125 0 1.078125 0.328125l-0.359375 0.984375q-0.390625 -0.234375 -0.765625 -0.234375q-0.359375 0 -0.640625 0.21875q-0.265625 0.203125 -0.375 0.578125q-0.1875 0.5625 -0.1875 1.21875l0 3.265625l-1.046875 0zm3.6210938 -3.109375q0 -1.734375 0.953125 -2.5625q0.796875 -0.6875 1.953125 -0.6875q1.28125 0 2.09375 0.84375q0.828125 0.828125 0.828125 2.3125q0 1.203125 -0.359375 1.890625q-0.359375 0.6875 -1.0625 1.078125q-0.6875 0.375 -1.5 0.375q-1.296875 0 -2.109375 -0.828125q-0.796875 -0.84375 -0.796875 -2.421875zm1.078125 0q0 1.1875 0.515625 1.78125q0.53125 0.59375 1.3125 0.59375q0.796875 0 1.3125 -0.59375q0.515625 -0.59375 0.515625 -1.8125q0 -1.15625 -0.53125 -1.75q-0.515625 -0.59375 -1.296875 -0.59375q-0.78125 0 -1.3125 0.59375q-0.515625 0.578125 -0.515625 1.78125zm5.986328 5.5l0 -8.609375l0.953125 0l0 0.796875q0.34375 -0.46875 0.765625 -0.703125q0.4375 -0.234375 1.046875 -0.234375q0.796875 0 1.40625 0.40625q0.609375 0.40625 0.90625 1.15625q0.3125 0.75 0.3125 1.640625q0 0.953125 -0.34375 1.71875q-0.328125 0.765625 -0.984375 1.171875q-0.65625 0.40625 -1.375 0.40625q-0.53125 0 -0.953125 -0.21875q-0.421875 -0.234375 -0.6875 -0.5625l0 3.03125l-1.046875 0zm0.953125 -5.46875q0 1.203125 0.484375 1.78125q0.484375 0.5625 1.171875 0.5625q0.703125 0 1.203125 -0.59375q0.5 -0.59375 0.5 -1.84375q0 -1.1875 -0.484375 -1.765625q-0.484375 -0.59375 -1.171875 -0.59375q-0.671875 0 -1.1875 0.625q-0.515625 0.625 -0.515625 1.828125zm9.970703 1.078125l1.09375 0.125q-0.25 0.953125 -0.953125 1.484375q-0.703125 0.53125 -1.78125 0.53125q-1.359375 0 -2.171875 -0.84375q-0.796875 -0.84375 -0.796875 -2.359375q0 -1.5625 0.8125 -2.421875q0.8125 -0.875 2.09375 -0.875q1.25 0 2.03125 0.84375q0.796875 0.84375 0.796875 2.390625q0 0.09375 0 0.28125l-4.640625 0q0.0625 1.03125 0.578125 1.578125q0.515625 0.53125 1.296875 0.53125q0.578125 0 0.984375 -0.296875q0.421875 -0.3125 0.65625 -0.96875zm-3.453125 -1.703125l3.46875 0q-0.0625 -0.796875 -0.390625 -1.1875q-0.515625 -0.609375 -1.3125 -0.609375q-0.734375 0 -1.234375 0.484375q-0.484375 0.484375 -0.53125 1.3125zm5.861328 3.703125l0 -6.21875l0.953125 0l0 0.9375q0.359375 -0.65625 0.65625 -0.859375q0.3125 -0.21875 0.6875 -0.21875q0.53125 0 1.078125 0.328125l-0.359375 0.984375q-0.390625 -0.234375 -0.765625 -0.234375q-0.359375 0 -0.640625 0.21875q-0.265625 0.203125 -0.375 0.578125q-0.1875 0.5625 -0.1875 1.21875l0 3.265625l-1.046875 0zm6.3085938 -0.9375l0.15625 0.921875q-0.453125 0.09375 -0.796875 0.09375q-0.578125 0 -0.890625 -0.171875q-0.3125 -0.1875 -0.453125 -0.484375q-0.125 -0.296875 -0.125 -1.25l0 -3.578125l-0.765625 0l0 -0.8125l0.765625 0l0 -1.546875l1.046875 -0.625l0 2.171875l1.0625 0l0 0.8125l-1.0625 0l0 3.640625q0 0.453125 0.046875 0.578125q0.0625 0.125 0.1875 0.203125q0.125 0.078125 0.359375 0.078125q0.1875 0 0.46875 -0.03125zm1.0371094 -6.4375l0 -1.21875l1.0625 0l0 1.21875l-1.0625 0zm0 7.375l0 -6.21875l1.0625 0l0 6.21875l-1.0625 0zm6.9160156 -2.0l1.09375 0.125q-0.25 0.953125 -0.953125 1.484375q-0.703125 0.53125 -1.78125 0.53125q-1.359375 0 -2.171875 -0.84375q-0.796875 -0.84375 -0.796875 -2.359375q0 -1.5625 0.8125 -2.421875q0.8125 -0.875 2.09375 -0.875q1.25 0 2.03125 0.84375q0.796875 0.84375 0.796875 2.390625q0 0.09375 0 0.28125l-4.640625 0q0.0625 1.03125 0.578125 1.578125q0.515625 0.53125 1.296875 0.53125q0.578125 0 0.984375 -0.296875q0.421875 -0.3125 0.65625 -0.96875zm-3.453125 -1.703125l3.46875 0q-0.0625 -0.796875 -0.390625 -1.1875q-0.515625 -0.609375 -1.3125 -0.609375q-0.734375 0 -1.234375 0.484375q-0.484375 0.484375 -0.53125 1.3125zm5.455078 1.84375l1.03125 -0.15625q0.09375 0.625 0.484375 0.953125q0.40625 0.328125 1.140625 0.328125q0.71875 0 1.0625 -0.28125q0.359375 -0.296875 0.359375 -0.703125q0 -0.359375 -0.3125 -0.5625q-0.21875 -0.140625 -1.078125 -0.359375q-1.15625 -0.296875 -1.609375 -0.5q-0.4375 -0.21875 -0.671875 -0.59375q-0.234375 -0.375 -0.234375 -0.84375q0 -0.40625 0.1875 -0.765625q0.1875 -0.359375 0.515625 -0.59375q0.25 -0.171875 0.671875 -0.296875q0.421875 -0.125 0.921875 -0.125q0.71875 0 1.265625 0.21875q0.5625 0.203125 0.828125 0.5625q0.265625 0.359375 0.359375 0.953125l-1.03125 0.140625q-0.0625 -0.46875 -0.40625 -0.734375q-0.328125 -0.28125 -0.953125 -0.28125q-0.71875 0 -1.03125 0.25q-0.3125 0.234375 -0.3125 0.5625q0 0.203125 0.125 0.359375q0.140625 0.171875 0.40625 0.28125q0.15625 0.0625 0.9375 0.265625q1.125 0.3125 1.5625 0.5q0.4375 0.1875 0.6875 0.546875q0.25 0.359375 0.25 0.90625q0 0.53125 -0.3125 1.0q-0.296875 0.453125 -0.875 0.71875q-0.578125 0.25 -1.3125 0.25q-1.21875 0 -1.859375 -0.5q-0.625 -0.515625 -0.796875 -1.5z" fill-rule="nonzero"/><path fill="#000000" d="m237.47372 234.7467l1.0625 -0.0625q0 0.453125 0.140625 0.78125q0.140625 0.3125 0.515625 0.515625q0.375 0.203125 0.875 0.203125q0.703125 0 1.046875 -0.28125q0.359375 -0.28125 0.359375 -0.65625q0 -0.28125 -0.203125 -0.515625q-0.21875 -0.25 -1.0625 -0.609375q-0.84375 -0.359375 -1.078125 -0.515625q-0.390625 -0.234375 -0.59375 -0.5625q-0.1875 -0.328125 -0.1875 -0.75q0 -0.734375 0.578125 -1.25q0.59375 -0.53125 1.640625 -0.53125q1.171875 0 1.78125 0.546875q0.625 0.53125 0.640625 1.421875l-1.03125 0.0625q-0.03125 -0.5625 -0.40625 -0.890625q-0.375 -0.328125 -1.0625 -0.328125q-0.546875 0 -0.859375 0.25q-0.296875 0.25 -0.296875 0.546875q0 0.296875 0.265625 0.515625q0.171875 0.15625 0.90625 0.46875q1.21875 0.53125 1.53125 0.828125q0.515625 0.5 0.515625 1.1875q0 0.46875 -0.296875 0.921875q-0.28125 0.4375 -0.859375 0.703125q-0.578125 0.265625 -1.375 0.265625q-1.078125 0 -1.828125 -0.53125q-0.765625 -0.53125 -0.71875 -1.734375zm10.140625 1.0q-1.109375 1.265625 -2.28125 1.265625q-0.71875 0 -1.171875 -0.40625q-0.4375 -0.421875 -0.4375 -1.015625q0 -0.390625 0.203125 -1.34375l0.75 -3.59375l1.0625 0l-0.84375 3.96875q-0.09375 0.5 -0.09375 0.78125q0 0.34375 0.203125 0.546875q0.21875 0.1875 0.640625 0.1875q0.4375 0 0.859375 -0.203125q0.4375 -0.21875 0.734375 -0.59375q0.3125 -0.375 0.5 -0.875q0.140625 -0.3125 0.296875 -1.125l0.5625 -2.6875l1.0625 0l-1.296875 6.21875l-0.984375 0l0.234375 -1.125zm2.4394531 1.125l1.78125 -8.59375l1.0625 0l-0.640625 3.078125q0.515625 -0.46875 0.921875 -0.65625q0.40625 -0.1875 0.859375 -0.1875q0.859375 0 1.4375 0.65625q0.59375 0.640625 0.59375 1.875q0 0.828125 -0.234375 1.515625q-0.234375 0.6875 -0.578125 1.15625q-0.34375 0.46875 -0.71875 0.75q-0.359375 0.265625 -0.75 0.40625q-0.390625 0.140625 -0.75 0.140625q-0.609375 0 -1.078125 -0.328125q-0.46875 -0.328125 -0.734375 -0.984375l-0.25 1.171875l-0.921875 0zm1.5625 -2.5625l0 0.203125q0 0.796875 0.375 1.21875q0.375 0.40625 0.953125 0.40625q0.546875 0 1.015625 -0.375q0.46875 -0.390625 0.765625 -1.21875q0.296875 -0.828125 0.296875 -1.53125q0 -0.78125 -0.375 -1.21875q-0.375 -0.4375 -0.9375 -0.4375q-0.5625 0 -1.046875 0.453125q-0.484375 0.4375 -0.8125 1.359375q-0.234375 0.6875 -0.234375 1.140625zm6.611328 -4.828125l0.25 -1.203125l1.046875 0l-0.25 1.203125l-1.046875 0zm-3.359375 9.734375l0.1875 -0.90625q0.359375 0.09375 0.640625 0.09375q0.34375 0 0.546875 -0.234375q0.203125 -0.21875 0.421875 -1.234375l1.296875 -6.28125l1.0625 0l-1.34375 6.46875q-0.25 1.21875 -0.578125 1.65625q-0.4375 0.578125 -1.234375 0.578125q-0.40625 0 -1.0 -0.140625zm9.087891 -4.453125l1.03125 0.09375q-0.21875 0.765625 -1.03125 1.46875q-0.796875 0.6875 -1.890625 0.6875q-0.703125 0 -1.28125 -0.3125q-0.578125 -0.328125 -0.875 -0.9375q-0.296875 -0.609375 -0.296875 -1.390625q0 -1.015625 0.46875 -1.96875q0.46875 -0.96875 1.21875 -1.421875q0.75 -0.46875 1.625 -0.46875q1.109375 0 1.765625 0.6875q0.671875 0.6875 0.671875 1.890625q0 0.453125 -0.078125 0.9375l-4.578125 0q-0.03125 0.171875 -0.03125 0.328125q0 0.875 0.40625 1.328125q0.40625 0.453125 0.984375 0.453125q0.546875 0 1.0625 -0.34375q0.53125 -0.359375 0.828125 -1.03125zm-3.078125 -1.546875l3.484375 0q0.015625 -0.171875 0.015625 -0.234375q0 -0.796875 -0.40625 -1.21875q-0.390625 -0.421875 -1.015625 -0.421875q-0.6875 0 -1.25 0.46875q-0.5625 0.46875 -0.828125 1.40625zm9.470703 1.390625l1.0625 0.109375q-0.390625 1.171875 -1.125 1.734375q-0.734375 0.5625 -1.671875 0.5625q-1.015625 0 -1.65625 -0.65625q-0.625 -0.65625 -0.625 -1.828125q0 -1.03125 0.40625 -2.015625q0.40625 -0.984375 1.15625 -1.484375q0.75 -0.515625 1.71875 -0.515625q1.0 0 1.578125 0.5625q0.59375 0.5625 0.59375 1.5l-1.03125 0.0625q-0.015625 -0.59375 -0.359375 -0.921875q-0.328125 -0.328125 -0.875 -0.328125q-0.640625 0 -1.109375 0.40625q-0.46875 0.390625 -0.734375 1.21875q-0.265625 0.828125 -0.265625 1.578125q0 0.796875 0.34375 1.203125q0.359375 0.390625 0.875 0.390625q0.515625 0 0.984375 -0.390625q0.46875 -0.390625 0.734375 -1.1875zm4.1875 1.40625l-0.171875 0.859375q-0.375 0.109375 -0.734375 0.109375q-0.640625 0 -1.015625 -0.3125q-0.28125 -0.234375 -0.28125 -0.640625q0 -0.203125 0.15625 -0.9375l0.75 -3.625l-0.828125 0l0.171875 -0.8125l0.828125 0l0.328125 -1.53125l1.203125 -0.734375l-0.46875 2.265625l1.046875 0l-0.171875 0.8125l-1.046875 0l-0.71875 3.4375q-0.140625 0.65625 -0.140625 0.796875q0 0.1875 0.109375 0.28125q0.109375 0.09375 0.359375 0.09375q0.359375 0 0.625 -0.0625zm10.542969 -4.1875l-5.671875 0l0 -0.984375l5.671875 0l0 0.984375zm0 2.609375l-5.671875 0l0 -0.984375l5.671875 0l0 0.984375zm8.185547 -4.5625l-0.25 1.203125l-1.203125 0l0.21875 -1.046875q0.1875 -0.953125 0.609375 -1.390625q0.421875 -0.4375 0.984375 -0.5l-0.09375 0.453125q-0.6875 0.1875 -0.921875 1.28125l0.65625 0zm-1.875 0l-0.25 1.203125l-1.203125 0l0.21875 -1.046875q0.203125 -0.953125 0.609375 -1.390625q0.421875 -0.4375 1.0 -0.5l-0.09375 0.453125q-0.6875 0.1875 -0.9375 1.28125l0.65625 0zm1.6835938 7.0l1.78125 -8.59375l1.0625 0l-0.6875 3.296875q0.59375 -0.5625 1.09375 -0.8125q0.515625 -0.25 1.0625 -0.25q0.765625 0 1.1875 0.40625q0.4375 0.40625 0.4375 1.078125q0 0.328125 -0.1875 1.203125l-0.765625 3.671875l-1.0625 0l0.796875 -3.765625q0.171875 -0.828125 0.171875 -1.03125q0 -0.3125 -0.21875 -0.5q-0.203125 -0.1875 -0.609375 -0.1875q-0.578125 0 -1.09375 0.296875q-0.515625 0.296875 -0.8125 0.828125q-0.296875 0.515625 -0.546875 1.6875l-0.5625 2.671875l-1.046875 0zm8.173828 -7.390625l0.25 -1.203125l1.0625 0l-0.265625 1.203125l-1.046875 0zm-1.546875 7.390625l1.296875 -6.21875l1.0625 0l-1.296875 6.21875l-1.0625 0zm2.6503906 0.5625l1.0625 0.09375q0 0.375 0.09375 0.546875q0.09375 0.1875 0.3125 0.28125q0.296875 0.140625 0.75 0.140625q0.953125 0 1.375 -0.5q0.28125 -0.34375 0.515625 -1.453125l0.109375 -0.515625q-0.828125 0.84375 -1.765625 0.84375q-0.9375 0 -1.578125 -0.6875q-0.625 -0.703125 -0.625 -1.96875q0 -1.046875 0.5 -1.921875q0.5 -0.890625 1.1875 -1.328125q0.6875 -0.453125 1.421875 -0.453125q1.21875 0 1.890625 1.15625l0.203125 -1.015625l0.984375 0l-1.265625 6.0q-0.203125 1.0 -0.546875 1.546875q-0.328125 0.546875 -0.921875 0.84375q-0.59375 0.3125 -1.375 0.3125q-0.75 0 -1.296875 -0.1875q-0.53125 -0.1875 -0.796875 -0.5625q-0.265625 -0.375 -0.265625 -0.859375q0 -0.140625 0.03125 -0.3125zm1.328125 -3.3125q0 0.640625 0.109375 0.953125q0.1875 0.453125 0.5 0.6875q0.328125 0.234375 0.734375 0.234375q0.515625 0 1.03125 -0.359375q0.515625 -0.359375 0.828125 -1.125q0.328125 -0.78125 0.328125 -1.46875q0 -0.765625 -0.421875 -1.21875q-0.421875 -0.46875 -1.046875 -0.46875q-0.390625 0 -0.765625 0.21875q-0.359375 0.203125 -0.671875 0.625q-0.3125 0.421875 -0.46875 1.015625q-0.15625 0.59375 -0.15625 0.90625zm5.408203 2.75l1.78125 -8.59375l1.0625 0l-0.6875 3.296875q0.59375 -0.5625 1.09375 -0.8125q0.515625 -0.25 1.0625 -0.25q0.765625 0 1.1875 0.40625q0.4375 0.40625 0.4375 1.078125q0 0.328125 -0.1875 1.203125l-0.765625 3.671875l-1.0625 0l0.796875 -3.765625q0.171875 -0.828125 0.171875 -1.03125q0 -0.3125 -0.21875 -0.5q-0.203125 -0.1875 -0.609375 -0.1875q-0.578125 0 -1.09375 0.296875q-0.515625 0.296875 -0.8125 0.828125q-0.296875 0.515625 -0.546875 1.6875l-0.5625 2.671875l-1.046875 0zm16.835938 -3.03125l1.140625 0.171875q-0.546875 1.484375 -1.578125 2.25q-1.03125 0.75 -2.3125 0.75q-1.5625 0 -2.484375 -0.953125q-0.90625 -0.953125 -0.90625 -2.734375q0 -2.3125 1.390625 -3.84375q1.25 -1.34375 3.09375 -1.34375q1.359375 0 2.203125 0.734375q0.84375 0.734375 0.984375 1.96875l-1.078125 0.09375q-0.15625 -0.9375 -0.6875 -1.390625q-0.53125 -0.453125 -1.375 -0.453125q-1.578125 0 -2.546875 1.390625q-0.84375 1.203125 -0.84375 2.875q0 1.3125 0.640625 2.015625q0.65625 0.703125 1.703125 0.703125q0.890625 0 1.609375 -0.578125q0.71875 -0.59375 1.046875 -1.65625zm1.9472656 3.03125l1.796875 -8.59375l3.59375 0q0.921875 0 1.390625 0.21875q0.46875 0.21875 0.765625 0.734375q0.3125 0.515625 0.3125 1.15625q0 0.53125 -0.21875 1.09375q-0.21875 0.546875 -0.546875 0.90625q-0.328125 0.359375 -0.671875 0.546875q-0.34375 0.171875 -0.71875 0.25q-0.828125 0.203125 -1.671875 0.203125l-2.15625 0l-0.71875 3.484375l-1.15625 0zm2.078125 -4.453125l1.890625 0q1.109375 0 1.625 -0.234375q0.515625 -0.25 0.828125 -0.734375q0.3125 -0.484375 0.3125 -1.03125q0 -0.421875 -0.171875 -0.6875q-0.15625 -0.265625 -0.46875 -0.390625q-0.296875 -0.125 -1.140625 -0.125l-2.203125 0l-0.671875 3.203125zm7.7851562 -4.140625l1.15625 0l-1.109375 5.28125q-0.125 0.65625 -0.125 0.96875q0 0.703125 0.53125 1.125q0.546875 0.421875 1.375 0.421875q0.65625 0 1.21875 -0.296875q0.578125 -0.3125 0.90625 -0.890625q0.328125 -0.59375 0.59375 -1.875l0.984375 -4.734375l1.140625 0l-1.046875 5.046875q-0.265625 1.28125 -0.703125 2.046875q-0.4375 0.75 -1.21875 1.203125q-0.78125 0.453125 -1.8125 0.453125q-0.96875 0 -1.6875 -0.328125q-0.703125 -0.328125 -1.0625 -0.890625q-0.359375 -0.5625 -0.359375 -1.28125q0 -0.453125 0.25 -1.5625l0.96875 -4.6875zm7.9160156 1.234375l0.25 -1.203125l1.203125 0l-0.21875 1.0625q-0.203125 0.9375 -0.625 1.375q-0.40625 0.4375 -0.984375 0.515625l0.109375 -0.46875q0.6875 -0.1875 0.921875 -1.28125l-0.65625 0zm1.921875 0l0.25 -1.203125l1.21875 0l-0.234375 1.0625q-0.1875 0.9375 -0.609375 1.375q-0.421875 0.4375 -0.984375 0.515625l0.09375 -0.46875q0.6875 -0.1875 0.921875 -1.28125l-0.65625 0z" fill-rule="nonzero"/><path fill="#000000" d="m237.37997 250.8717l1.78125 -8.59375l1.0625 0l-0.640625 3.078125q0.515625 -0.46875 0.921875 -0.65625q0.40625 -0.1875 0.859375 -0.1875q0.859375 0 1.4375 0.65625q0.59375 0.640625 0.59375 1.875q0 0.828125 -0.234375 1.515625q-0.234375 0.6875 -0.578125 1.15625q-0.34375 0.46875 -0.71875 0.75q-0.359375 0.265625 -0.75 0.40625q-0.390625 0.140625 -0.75 0.140625q-0.609375 0 -1.078125 -0.328125q-0.46875 -0.328125 -0.734375 -0.984375l-0.25 1.171875l-0.921875 0zm1.5625 -2.5625l0 0.203125q0 0.796875 0.375 1.21875q0.375 0.40625 0.953125 0.40625q0.546875 0 1.015625 -0.375q0.46875 -0.390625 0.765625 -1.21875q0.296875 -0.828125 0.296875 -1.53125q0 -0.78125 -0.375 -1.21875q-0.375 -0.4375 -0.9375 -0.4375q-0.5625 0 -1.046875 0.453125q-0.484375 0.4375 -0.8125 1.359375q-0.234375 0.6875 -0.234375 1.140625zm5.298828 0.203125q0 -1.828125 1.0625 -3.015625q0.890625 -0.984375 2.328125 -0.984375q1.125 0 1.8125 0.703125q0.6875 0.703125 0.6875 1.890625q0 1.078125 -0.4375 2.0q-0.4375 0.921875 -1.234375 1.421875q-0.796875 0.484375 -1.6875 0.484375q-0.71875 0 -1.3125 -0.3125q-0.59375 -0.3125 -0.90625 -0.875q-0.3125 -0.578125 -0.3125 -1.3125zm1.046875 -0.109375q0 0.875 0.421875 1.328125q0.421875 0.453125 1.078125 0.453125q0.34375 0 0.671875 -0.125q0.34375 -0.140625 0.625 -0.421875q0.28125 -0.28125 0.484375 -0.640625q0.203125 -0.359375 0.328125 -0.78125q0.1875 -0.578125 0.1875 -1.109375q0 -0.84375 -0.4375 -1.3125q-0.421875 -0.46875 -1.0625 -0.46875q-0.5 0 -0.90625 0.25q-0.40625 0.234375 -0.75 0.6875q-0.328125 0.453125 -0.484375 1.0625q-0.15625 0.609375 -0.15625 1.078125zm9.626953 1.5625q-0.90625 1.046875 -1.890625 1.046875q-0.890625 0 -1.484375 -0.65625q-0.578125 -0.65625 -0.578125 -1.890625q0 -1.140625 0.453125 -2.078125q0.46875 -0.9375 1.171875 -1.40625q0.703125 -0.46875 1.40625 -0.46875q1.15625 0 1.75 1.109375l0.703125 -3.34375l1.046875 0l-1.78125 8.59375l-0.984375 0l0.1875 -0.90625zm-2.90625 -1.703125q0 0.65625 0.125 1.03125q0.140625 0.375 0.4375 0.625q0.3125 0.25 0.75 0.25q0.71875 0 1.3125 -0.75q0.78125 -1.0 0.78125 -2.46875q0 -0.734375 -0.390625 -1.140625q-0.390625 -0.421875 -0.96875 -0.421875q-0.375 0 -0.703125 0.171875q-0.3125 0.15625 -0.625 0.5625q-0.296875 0.40625 -0.515625 1.046875q-0.203125 0.625 -0.203125 1.09375zm4.986328 5.015625l0.0625 -1.0q0.328125 0.09375 0.640625 0.09375q0.328125 0 0.515625 -0.140625q0.265625 -0.203125 0.5625 -0.734375l0.34375 -0.609375l-1.03125 -6.234375l1.046875 0l0.46875 3.140625q0.140625 0.9375 0.234375 1.859375l2.78125 -5.0l1.109375 0l-3.96875 7.046875q-0.578125 1.03125 -1.03125 1.359375q-0.4375 0.34375 -1.015625 0.34375q-0.359375 0 -0.71875 -0.125zm16.083984 -7.453125l-5.671875 0l0 -0.984375l5.671875 0l0 0.984375zm0 2.609375l-5.671875 0l0 -0.984375l5.671875 0l0 0.984375zm8.185547 -4.5625l-0.25 1.203125l-1.203125 0l0.21875 -1.046875q0.1875 -0.953125 0.609375 -1.390625q0.421875 -0.4375 0.984375 -0.5l-0.09375 0.453125q-0.6875 0.1875 -0.921875 1.28125l0.65625 0zm-1.875 0l-0.25 1.203125l-1.203125 0l0.21875 -1.046875q0.203125 -0.953125 0.609375 -1.390625q0.421875 -0.4375 1.0 -0.5l-0.09375 0.453125q-0.6875 0.1875 -0.9375 1.28125l0.65625 0zm8.511719 3.96875l1.140625 0.171875q-0.546875 1.484375 -1.578125 2.25q-1.03125 0.75 -2.3125 0.75q-1.5625 0 -2.484375 -0.953125q-0.90625 -0.953125 -0.90625 -2.734375q0 -2.3125 1.390625 -3.84375q1.25 -1.34375 3.09375 -1.34375q1.359375 0 2.203125 0.734375q0.84375 0.734375 0.984375 1.96875l-1.078125 0.09375q-0.15625 -0.9375 -0.6875 -1.390625q-0.53125 -0.453125 -1.375 -0.453125q-1.578125 0 -2.546875 1.390625q-0.84375 1.203125 -0.84375 2.875q0 1.3125 0.640625 2.015625q0.65625 0.703125 1.703125 0.703125q0.890625 0 1.609375 -0.578125q0.71875 -0.59375 1.046875 -1.65625zm1.9472656 3.03125l1.796875 -8.59375l3.59375 0q0.921875 0 1.390625 0.21875q0.46875 0.21875 0.765625 0.734375q0.3125 0.515625 0.3125 1.15625q0 0.53125 -0.21875 1.09375q-0.21875 0.546875 -0.546875 0.90625q-0.328125 0.359375 -0.671875 0.546875q-0.34375 0.171875 -0.71875 0.25q-0.828125 0.203125 -1.671875 0.203125l-2.15625 0l-0.71875 3.484375l-1.15625 0zm2.078125 -4.453125l1.890625 0q1.109375 0 1.625 -0.234375q0.515625 -0.25 0.828125 -0.734375q0.3125 -0.484375 0.3125 -1.03125q0 -0.421875 -0.171875 -0.6875q-0.15625 -0.265625 -0.46875 -0.390625q-0.296875 -0.125 -1.140625 -0.125l-2.203125 0l-0.671875 3.203125zm7.7851562 -4.140625l1.15625 0l-1.109375 5.28125q-0.125 0.65625 -0.125 0.96875q0 0.703125 0.53125 1.125q0.546875 0.421875 1.375 0.421875q0.65625 0 1.21875 -0.296875q0.578125 -0.3125 0.90625 -0.890625q0.328125 -0.59375 0.59375 -1.875l0.984375 -4.734375l1.140625 0l-1.046875 5.046875q-0.265625 1.28125 -0.703125 2.046875q-0.4375 0.75 -1.21875 1.203125q-0.78125 0.453125 -1.8125 0.453125q-0.96875 0 -1.6875 -0.328125q-0.703125 -0.328125 -1.0625 -0.890625q-0.359375 -0.5625 -0.359375 -1.28125q0 -0.453125 0.25 -1.5625l0.96875 -4.6875zm10.21875 6.234375q0 -1.828125 1.0625 -3.015625q0.890625 -0.984375 2.328125 -0.984375q1.125 0 1.8125 0.703125q0.6875 0.703125 0.6875 1.890625q0 1.078125 -0.4375 2.0q-0.4375 0.921875 -1.234375 1.421875q-0.796875 0.484375 -1.6875 0.484375q-0.71875 0 -1.3125 -0.3125q-0.59375 -0.3125 -0.90625 -0.875q-0.3125 -0.578125 -0.3125 -1.3125zm1.046875 -0.109375q0 0.875 0.421875 1.328125q0.421875 0.453125 1.078125 0.453125q0.34375 0 0.671875 -0.125q0.34375 -0.140625 0.625 -0.421875q0.28125 -0.28125 0.484375 -0.640625q0.203125 -0.359375 0.328125 -0.78125q0.1875 -0.578125 0.1875 -1.109375q0 -0.84375 -0.4375 -1.3125q-0.421875 -0.46875 -1.0625 -0.46875q-0.5 0 -0.90625 0.25q-0.40625 0.234375 -0.75 0.6875q-0.328125 0.453125 -0.484375 1.0625q-0.15625 0.609375 -0.15625 1.078125zm5.439453 2.46875l1.296875 -6.21875l0.953125 0l-0.21875 1.078125q0.625 -0.640625 1.171875 -0.921875q0.546875 -0.296875 1.109375 -0.296875q0.75 0 1.171875 0.40625q0.4375 0.40625 0.4375 1.09375q0 0.34375 -0.140625 1.09375l-0.796875 3.765625l-1.0625 0l0.828125 -3.9375q0.125 -0.578125 0.125 -0.859375q0 -0.3125 -0.21875 -0.5q-0.203125 -0.1875 -0.609375 -0.1875q-0.8125 0 -1.453125 0.59375q-0.640625 0.578125 -0.9375 2.0l-0.609375 2.890625l-1.046875 0zm10.4296875 -3.59375q0.453125 0 0.78125 -0.234375q0.34375 -0.234375 0.546875 -0.703125q0.171875 -0.34375 0.375 -1.3125q0.21875 -0.984375 0.34375 -1.34375q0.15625 -0.484375 0.375 -0.78125q0.21875 -0.3125 0.46875 -0.46875q0.25 -0.171875 0.625 -0.25q0.203125 -0.046875 0.671875 -0.046875l0.328125 0l-0.203125 0.921875l-0.171875 0q-0.5 0 -0.71875 0.125q-0.21875 0.109375 -0.34375 0.375q-0.109375 0.25 -0.3125 1.125q-0.234375 1.171875 -0.453125 1.6875q-0.203125 0.5 -0.53125 0.828125q-0.3125 0.3125 -0.90625 0.5625q0.421875 0.203125 0.625 0.53125q0.203125 0.328125 0.203125 0.875q0 0.453125 -0.265625 1.671875q-0.1875 0.859375 -0.1875 1.078125q0 0.21875 0.09375 0.34375q0.0625 0.109375 0.21875 0.15625q0.171875 0.0625 0.703125 0.0625l-0.1875 0.921875l-0.328125 0q-0.546875 0 -0.765625 -0.078125q-0.34375 -0.125 -0.546875 -0.40625q-0.1875 -0.265625 -0.1875 -0.734375q0 -0.390625 0.265625 -1.671875q0.203125 -0.96875 0.203125 -1.3125q0 -0.46875 -0.234375 -0.703125q-0.234375 -0.25 -0.6875 -0.25l0.203125 -0.96875zm4.0078125 0q0.453125 0 0.78125 -0.234375q0.34375 -0.234375 0.546875 -0.703125q0.171875 -0.34375 0.375 -1.3125q0.21875 -0.984375 0.34375 -1.34375q0.15625 -0.484375 0.375 -0.78125q0.21875 -0.3125 0.46875 -0.46875q0.25 -0.171875 0.625 -0.25q0.203125 -0.046875 0.671875 -0.046875l0.328125 0l-0.203125 0.921875l-0.171875 0q-0.5 0 -0.71875 0.125q-0.21875 0.109375 -0.34375 0.375q-0.109375 0.25 -0.3125 1.125q-0.234375 1.171875 -0.453125 1.6875q-0.203125 0.5 -0.53125 0.828125q-0.3125 0.3125 -0.90625 0.5625q0.421875 0.203125 0.625 0.53125q0.203125 0.328125 0.203125 0.875q0 0.453125 -0.265625 1.671875q-0.1875 0.859375 -0.1875 1.078125q0 0.21875 0.09375 0.34375q0.0625 0.109375 0.21875 0.15625q0.171875 0.0625 0.703125 0.0625l-0.1875 0.921875l-0.328125 0q-0.546875 0 -0.765625 -0.078125q-0.34375 -0.125 -0.546875 -0.40625q-0.1875 -0.265625 -0.1875 -0.734375q0 -0.390625 0.265625 -1.671875q0.203125 -0.96875 0.203125 -1.3125q0 -0.46875 -0.234375 -0.703125q-0.234375 -0.25 -0.6875 -0.25l0.203125 -0.96875zm3.6796875 1.46875l1.0625 -0.0625q0 0.453125 0.140625 0.78125q0.140625 0.3125 0.515625 0.515625q0.375 0.203125 0.875 0.203125q0.703125 0 1.046875 -0.28125q0.359375 -0.28125 0.359375 -0.65625q0 -0.28125 -0.203125 -0.515625q-0.21875 -0.25 -1.0625 -0.609375q-0.84375 -0.359375 -1.078125 -0.515625q-0.390625 -0.234375 -0.59375 -0.5625q-0.1875 -0.328125 -0.1875 -0.75q0 -0.734375 0.578125 -1.25q0.59375 -0.53125 1.640625 -0.53125q1.171875 0 1.78125 0.546875q0.625 0.53125 0.640625 1.421875l-1.03125 0.0625q-0.03125 -0.5625 -0.40625 -0.890625q-0.375 -0.328125 -1.0625 -0.328125q-0.546875 0 -0.859375 0.25q-0.296875 0.25 -0.296875 0.546875q0 0.296875 0.265625 0.515625q0.171875 0.15625 0.90625 0.46875q1.21875 0.53125 1.53125 0.828125q0.515625 0.5 0.515625 1.1875q0 0.46875 -0.296875 0.921875q-0.28125 0.4375 -0.859375 0.703125q-0.578125 0.265625 -1.375 0.265625q-1.078125 0 -1.828125 -0.53125q-0.765625 -0.53125 -0.71875 -1.734375zm10.46875 0.015625l1.03125 0.09375q-0.21875 0.765625 -1.03125 1.46875q-0.796875 0.6875 -1.890625 0.6875q-0.703125 0 -1.28125 -0.3125q-0.578125 -0.328125 -0.875 -0.9375q-0.296875 -0.609375 -0.296875 -1.390625q0 -1.015625 0.46875 -1.96875q0.46875 -0.96875 1.21875 -1.421875q0.75 -0.46875 1.625 -0.46875q1.109375 0 1.765625 0.6875q0.671875 0.6875 0.671875 1.890625q0 0.453125 -0.078125 0.9375l-4.578125 0q-0.03125 0.171875 -0.03125 0.328125q0 0.875 0.40625 1.328125q0.40625 0.453125 0.984375 0.453125q0.546875 0 1.0625 -0.34375q0.53125 -0.359375 0.828125 -1.03125zm-3.078125 -1.546875l3.484375 0q0.015625 -0.171875 0.015625 -0.234375q0 -0.796875 -0.40625 -1.21875q-0.390625 -0.421875 -1.015625 -0.421875q-0.6875 0 -1.25 0.46875q-0.5625 0.46875 -0.828125 1.40625zm5.189453 3.65625l1.296875 -6.21875l0.9375 0l-0.265625 1.265625q0.484375 -0.71875 0.9375 -1.0625q0.46875 -0.34375 0.9375 -0.34375q0.328125 0 0.78125 0.21875l-0.4375 0.984375q-0.265625 -0.1875 -0.59375 -0.1875q-0.5625 0 -1.15625 0.625q-0.578125 0.609375 -0.90625 2.21875l-0.53125 2.5l-1.0 0zm5.5585938 0l-1.015625 -6.21875l1.03125 0l0.53125 3.421875q0.09375 0.5625 0.21875 1.828125q0.296875 -0.65625 0.78125 -1.515625l2.078125 -3.734375l1.109375 0l-3.5625 6.21875l-1.171875 0zm9.0 -2.109375l1.03125 0.09375q-0.21875 0.765625 -1.03125 1.46875q-0.796875 0.6875 -1.890625 0.6875q-0.703125 0 -1.28125 -0.3125q-0.578125 -0.328125 -0.875 -0.9375q-0.296875 -0.609375 -0.296875 -1.390625q0 -1.015625 0.46875 -1.96875q0.46875 -0.96875 1.21875 -1.421875q0.75 -0.46875 1.625 -0.46875q1.109375 0 1.765625 0.6875q0.671875 0.6875 0.671875 1.890625q0 0.453125 -0.078125 0.9375l-4.578125 0q-0.03125 0.171875 -0.03125 0.328125q0 0.875 0.40625 1.328125q0.40625 0.453125 0.984375 0.453125q0.546875 0 1.0625 -0.34375q0.53125 -0.359375 0.828125 -1.03125zm-3.078125 -1.546875l3.484375 0q0.015625 -0.171875 0.015625 -0.234375q0 -0.796875 -0.40625 -1.21875q-0.390625 -0.421875 -1.015625 -0.421875q-0.6875 0 -1.25 0.46875q-0.5625 0.46875 -0.828125 1.40625zm5.189453 3.65625l1.296875 -6.21875l0.9375 0l-0.265625 1.265625q0.484375 -0.71875 0.9375 -1.0625q0.46875 -0.34375 0.9375 -0.34375q0.328125 0 0.78125 0.21875l-0.4375 0.984375q-0.265625 -0.1875 -0.59375 -0.1875q-0.5625 0 -1.15625 0.625q-0.578125 0.609375 -0.90625 2.21875l-0.53125 2.5l-1.0 0zm7.2929688 -3.59375l-0.203125 0.96875q-0.4375 0 -0.78125 0.234375q-0.328125 0.234375 -0.515625 0.640625q-0.1875 0.40625 -0.40625 1.390625q-0.21875 0.984375 -0.3125 1.3125q-0.171875 0.5 -0.390625 0.796875q-0.21875 0.3125 -0.484375 0.46875q-0.25 0.171875 -0.609375 0.265625q-0.203125 0.046875 -0.6875 0.046875l-0.328125 0l0.203125 -0.921875l0.1875 0q0.5 0 0.71875 -0.125q0.21875 -0.125 0.359375 -0.421875q0.09375 -0.21875 0.28125 -1.09375q0.234375 -1.109375 0.40625 -1.546875q0.234375 -0.59375 0.59375 -0.953125q0.359375 -0.359375 0.890625 -0.578125q-0.453125 -0.234375 -0.640625 -0.546875q-0.171875 -0.3125 -0.171875 -0.859375q0 -0.453125 0.25 -1.671875q0.1875 -0.84375 0.1875 -1.078125q0 -0.296875 -0.15625 -0.421875q-0.15625 -0.125 -0.671875 -0.125l-0.1875 0l0.203125 -0.921875l0.328125 0q0.546875 0 0.765625 0.078125q0.34375 0.109375 0.53125 0.390625q0.203125 0.265625 0.203125 0.734375q0 0.390625 -0.203125 1.296875q-0.28125 1.359375 -0.28125 1.6875q0 0.46875 0.234375 0.71875q0.234375 0.234375 0.6875 0.234375zm4.0078125 0l-0.203125 0.96875q-0.4375 0 -0.78125 0.234375q-0.328125 0.234375 -0.515625 0.640625q-0.1875 0.40625 -0.40625 1.390625q-0.21875 0.984375 -0.3125 1.3125q-0.171875 0.5 -0.390625 0.796875q-0.21875 0.3125 -0.484375 0.46875q-0.25 0.171875 -0.609375 0.265625q-0.203125 0.046875 -0.6875 0.046875l-0.328125 0l0.203125 -0.921875l0.1875 0q0.5 0 0.71875 -0.125q0.21875 -0.125 0.359375 -0.421875q0.09375 -0.21875 0.28125 -1.09375q0.234375 -1.109375 0.40625 -1.546875q0.234375 -0.59375 0.59375 -0.953125q0.359375 -0.359375 0.890625 -0.578125q-0.453125 -0.234375 -0.640625 -0.546875q-0.171875 -0.3125 -0.171875 -0.859375q0 -0.453125 0.25 -1.671875q0.1875 -0.84375 0.1875 -1.078125q0 -0.296875 -0.15625 -0.421875q-0.15625 -0.125 -0.671875 -0.125l-0.1875 0l0.203125 -0.921875l0.328125 0q0.546875 0 0.765625 0.078125q0.34375 0.109375 0.53125 0.390625q0.203125 0.265625 0.203125 0.734375q0 0.390625 -0.203125 1.296875q-0.28125 1.359375 -0.28125 1.6875q0 0.46875 0.234375 0.71875q0.234375 0.234375 0.6875 0.234375zm5.544922 -3.796875l0.25 -1.203125l1.0625 0l-0.265625 1.203125l-1.046875 0zm-1.546875 7.390625l1.296875 -6.21875l1.0625 0l-1.296875 6.21875l-1.0625 0zm2.8066406 -2.125l1.0625 -0.0625q0 0.453125 0.140625 0.78125q0.140625 0.3125 0.515625 0.515625q0.375 0.203125 0.875 0.203125q0.703125 0 1.046875 -0.28125q0.359375 -0.28125 0.359375 -0.65625q0 -0.28125 -0.203125 -0.515625q-0.21875 -0.25 -1.0625 -0.609375q-0.84375 -0.359375 -1.078125 -0.515625q-0.390625 -0.234375 -0.59375 -0.5625q-0.1875 -0.328125 -0.1875 -0.75q0 -0.734375 0.578125 -1.25q0.59375 -0.53125 1.640625 -0.53125q1.171875 0 1.78125 0.546875q0.625 0.53125 0.640625 1.421875l-1.03125 0.0625q-0.03125 -0.5625 -0.40625 -0.890625q-0.375 -0.328125 -1.0625 -0.328125q-0.546875 0 -0.859375 0.25q-0.296875 0.25 -0.296875 0.546875q0 0.296875 0.265625 0.515625q0.171875 0.15625 0.90625 0.46875q1.21875 0.53125 1.53125 0.828125q0.515625 0.5 0.515625 1.1875q0 0.46875 -0.296875 0.921875q-0.28125 0.4375 -0.859375 0.703125q-0.578125 0.265625 -1.375 0.265625q-1.078125 0 -1.828125 -0.53125q-0.765625 -0.53125 -0.71875 -1.734375zm9.240234 2.125l1.78125 -8.59375l1.0625 0l-0.6875 3.296875q0.59375 -0.5625 1.09375 -0.8125q0.515625 -0.25 1.0625 -0.25q0.765625 0 1.1875 0.40625q0.4375 0.40625 0.4375 1.078125q0 0.328125 -0.1875 1.203125l-0.765625 3.671875l-1.0625 0l0.796875 -3.765625q0.171875 -0.828125 0.171875 -1.03125q0 -0.3125 -0.21875 -0.5q-0.203125 -0.1875 -0.609375 -0.1875q-0.578125 0 -1.09375 0.296875q-0.515625 0.296875 -0.8125 0.828125q-0.296875 0.515625 -0.546875 1.6875l-0.5625 2.671875l-1.046875 0zm8.173828 -7.390625l0.25 -1.203125l1.0625 0l-0.265625 1.203125l-1.046875 0zm-1.546875 7.390625l1.296875 -6.21875l1.0625 0l-1.296875 6.21875l-1.0625 0zm2.6503906 0.5625l1.0625 0.09375q0 0.375 0.09375 0.546875q0.09375 0.1875 0.3125 0.28125q0.296875 0.140625 0.75 0.140625q0.953125 0 1.375 -0.5q0.28125 -0.34375 0.515625 -1.453125l0.109375 -0.515625q-0.828125 0.84375 -1.765625 0.84375q-0.9375 0 -1.578125 -0.6875q-0.625 -0.703125 -0.625 -1.96875q0 -1.046875 0.5 -1.921875q0.5 -0.890625 1.1875 -1.328125q0.6875 -0.453125 1.421875 -0.453125q1.21875 0 1.890625 1.15625l0.203125 -1.015625l0.984375 0l-1.265625 6.0q-0.203125 1.0 -0.546875 1.546875q-0.328125 0.546875 -0.921875 0.84375q-0.59375 0.3125 -1.375 0.3125q-0.75 0 -1.296875 -0.1875q-0.53125 -0.1875 -0.796875 -0.5625q-0.265625 -0.375 -0.265625 -0.859375q0 -0.140625 0.03125 -0.3125zm1.328125 -3.3125q0 0.640625 0.109375 0.953125q0.1875 0.453125 0.5 0.6875q0.328125 0.234375 0.734375 0.234375q0.515625 0 1.03125 -0.359375q0.515625 -0.359375 0.828125 -1.125q0.328125 -0.78125 0.328125 -1.46875q0 -0.765625 -0.421875 -1.21875q-0.421875 -0.46875 -1.046875 -0.46875q-0.390625 0 -0.765625 0.21875q-0.359375 0.203125 -0.671875 0.625q-0.3125 0.421875 -0.46875 1.015625q-0.15625 0.59375 -0.15625 0.90625zm5.408203 2.75l1.78125 -8.59375l1.0625 0l-0.6875 3.296875q0.59375 -0.5625 1.09375 -0.8125q0.515625 -0.25 1.0625 -0.25q0.765625 0 1.1875 0.40625q0.4375 0.40625 0.4375 1.078125q0 0.328125 -0.1875 1.203125l-0.765625 3.671875l-1.0625 0l0.796875 -3.765625q0.171875 -0.828125 0.171875 -1.03125q0 -0.3125 -0.21875 -0.5q-0.203125 -0.1875 -0.609375 -0.1875q-0.578125 0 -1.09375 0.296875q-0.515625 0.296875 -0.8125 0.828125q-0.296875 0.515625 -0.546875 1.6875l-0.5625 2.671875l-1.046875 0zm7.892578 -7.359375l0.25 -1.203125l1.203125 0l-0.21875 1.0625q-0.203125 0.9375 -0.625 1.375q-0.40625 0.4375 -0.984375 0.515625l0.109375 -0.46875q0.6875 -0.1875 0.921875 -1.28125l-0.65625 0zm1.921875 0l0.25 -1.203125l1.21875 0l-0.234375 1.0625q-0.1875 0.9375 -0.609375 1.375q-0.421875 0.4375 -0.984375 0.515625l0.09375 -0.46875q0.6875 -0.1875 0.921875 -1.28125l-0.65625 0z" fill-rule="nonzero"/></g></svg>