<svg xmlns="http://www.w3.org/2000/svg" width="72" height="71.986" viewBox="0 0 19.05 19.046"><g fill="#29ace3" fill-rule="evenodd"><path d="M9.834 13.13A2.13 2.13 0 0 1 7.7 11.005c0-1.171.955-2.122 2.132-2.122s2.132.95 2.132 2.122a2.127 2.127 0 0 1-2.131 2.123zm-6.28 0a2.13 2.13 0 0 1-2.133-2.123c0-1.172.955-2.123 2.133-2.123s2.13.95 2.13 2.122a2.127 2.127 0 0 1-2.13 2.123zm6.28-5.662c-1.36 0-2.544.762-3.14 1.88a3.55 3.55 0 0 0-3.14-1.88c-.8 0-1.538.263-2.133.708V5.194A.71.71 0 0 0 .71 4.5a.71.71 0 0 0-.71.694v5.871a3.546 3.546 0 0 0 3.553 3.481 3.56 3.56 0 0 0 3.14-1.88 3.56 3.56 0 0 0 3.14 1.88 3.547 3.547 0 0 0 3.554-3.54 3.546 3.546 0 0 0-3.554-3.538z"/><path d="m18.902 13.36-1.932-2.358 1.934-2.365a.67.67 0 0 0-.163-.979.82.82 0 0 0-1.073.13l-1.665 2.03-1.662-2.03a.82.82 0 0 0-1.073-.13.67.67 0 0 0-.162.98l1.93 2.364-1.93 2.36c-.245.312-.175.746.162.979a.82.82 0 0 0 1.073-.13l1.663-2.029 1.661 2.029a.82.82 0 0 0 1.074.13c.338-.233.408-.667.163-.98z"/></g></svg>