<svg xmlns="http://www.w3.org/2000/svg" width="32" height="32" fill="none"><g clip-path="url(#a)"><path fill="#535766" d="M13.412 25.66 6.34 18.587l2.23-.598 5.438 5.439 7.43-1.991 1.99-7.429-5.438-5.438.597-2.23 7.071 7.07-2.289 8.545 4.95 4.95-.299 1.115-1.115.299-4.95-4.95z"/><path fill="#00BFB3" fill-rule="evenodd" d="m19.535 19.536-4.83 1.294-3.535-3.536.995-3.714L3.68 5.095l.3-1.116 1.114-.299 8.486 8.486 3.714-.995 3.535 3.535zm-.936-4.232-.697 2.599-2.599.696-1.902-1.902.696-2.6 2.6-.696z" clip-rule="evenodd"/></g><defs><clipPath id="a"><path fill="#fff" d="M0 0h32v32H0z"/></clipPath></defs></svg>