<svg xmlns="http://www.w3.org/2000/svg" width="32" height="32" fill="none"><path fill="#535766" fill-rule="evenodd" d="M15 2.577v-1L16 1l1 .577v1l10.124 5.846.866-.5 1 .577v1.155l-.866.5v11.69l.866.5V23.5l-1 .577-.866-.5L17 29.423v1L16 31l-1-.577v-1L4.876 23.577l-.866.5-1-.577v-1.155l.866-.5v-11.69l-.866-.5V8.5l1-.577.866.5zm2 8 3.196 1.846 1.464-.846L17 8.887zm4.196 3.578v3.69l1.464.846v-5.382zm-1 5.422L17 21.423v1.69l4.66-2.69zM15 21.422l-3.196-1.845-1.464.846 4.66 2.69zm-4.196-3.577v-3.69l-1.464-.846v5.382zm1-5.422L15 10.578V8.887l-4.66 2.69zm11.856-2L17 6.577v-1.69l8.124 4.69zm1 9.422v-7.69l1.464-.846v9.382zM17 25.423l6.66-3.846 1.464.846L17 27.113zm-8.66-3.846L15 25.423v1.69l-8.124-4.69zm-1-9.422v7.69l-1.464.846v-9.382zM15 6.577l-6.66 3.846-1.464-.846L15 4.887zm-2.196 7.578L16 12.309l3.196 1.846v3.69L16 19.691l-3.196-1.846z" clip-rule="evenodd"/><path fill="#00BFB3" d="m16 14 1.732 1v2L16 18l-1.732-1v-2z"/></svg>