<svg xmlns="http://www.w3.org/2000/svg" width="100" height="100" fill="none"><clipPath id="a"><path d="M0 0h100v100H0z"/></clipPath><g clip-path="url(#a)"><path fill="#0060d5" d="M50.814 23.572h-4.2a58.57 58.57 0 0 1 0 52.857h4.572a26.429 26.429 0 1 0 0-52.857zM50-.014a49.7 49.7 0 0 0-19.271 3.871 59.6 59.6 0 0 1 13.485 15.415h8.072l.071.085a30.686 30.686 0 0 1 0 61.243l-.071.1h-8.072A59.6 59.6 0 0 1 30.73 96.115 50 50 0 0 0 90.12 79.85 50 50 0 0 0 50-.014M39.129 19.272a54.8 54.8 0 0 0-12.73-13.357A50.2 50.2 0 0 0 8.3 22.457a30.7 30.7 0 0 1 13.571-3.185zm0 61.428H21.872A30.5 30.5 0 0 1 8.3 77.5a50.16 50.16 0 0 0 18.128 16.572 55.3 55.3 0 0 0 12.7-13.357zm2.642-4.286a54.36 54.36 0 0 0 0-52.857h-19.9A26.32 26.32 0 0 0 3.93 30.615a3 3 0 0 1-.158.371 49.71 49.71 0 0 0 0 37.986q.092.18.158.371A26.37 26.37 0 0 0 21.872 76.4z"/></g></svg>