<svg xmlns="http://www.w3.org/2000/svg" width="100" height="100" viewBox="0 0 100 100" fill="none">
  <path fill="#E24329" d="M50 92.5l19.1-58.7H30.9L50 92.5z"/>
  <path fill="#FC6D26" d="M50 92.5l-19.1-58.7H8.4L50 92.5z"/>
  <path fill="#FCA326" d="M8.4 33.8l-6.8 21a3.9 3.9 0 001.4 4.4L50 92.5 8.4 33.8z"/>
  <path fill="#E24329" d="M8.4 33.8h22.5L20.7 9.5c-.6-1.8-3.2-1.8-3.8 0L8.4 33.8z"/>
  <path fill="#FC6D26" d="M50 92.5l19.1-58.7h22.5L50 92.5z"/>
  <path fill="#FCA326" d="M91.6 33.8l6.8 21a3.9 3.9 0 01-1.4 4.4L50 92.5l41.6-58.7z"/>
  <path fill="#E24329" d="M91.6 33.8H69.1l10.2-24.3c.6-1.8 3.2-1.8 3.8 0l8.5 24.3z"/>
</svg>
