<svg xmlns="http://www.w3.org/2000/svg" width="100" height="100" fill="none"><g clip-path="url(#a)"><path fill="#4285F4" d="M6.818 87.517h15.91V48.881L0 31.835V80.7a6.816 6.816 0 0 0 6.818 6.818z"/><path fill="#34A853" d="M77.273 87.517h15.909A6.816 6.816 0 0 0 100 80.7V31.835L77.273 48.881z"/><path fill="#FBBC04" d="M77.273 19.335v29.546L100 31.835v-9.09c0-8.427-9.62-13.24-16.364-8.183z"/><path fill="#EA4335" d="M22.727 48.88V19.336L50 39.79l27.273-20.455v29.546L50 69.335z"/><path fill="#C5221F" d="M0 22.744v9.091l22.727 17.046V19.335l-6.363-4.773C9.619 9.506 0 14.319 0 22.745z"/></g><defs><clipPath id="a"><path fill="#fff" d="M0 12.499h100v75.018H0z"/></clipPath></defs></svg>