<svg xmlns="http://www.w3.org/2000/svg" width="64" height="64" fill="none"><path fill="#DB4437" d="m45.151 59.971-11.507-.002a2.86 2.86 0 0 0 2.466-1.399l15.62-26.584-9.865-16.792 11.506.001c.983 0 1.939.503 2.466 1.4l7.4 12.593a5.51 5.51 0 0 1 0 5.597L50.083 57.173a5.71 5.71 0 0 1-4.933 2.798m-1.423-5.597c0 .773.637 1.4 1.423 1.4.787 0 1.424-.627 1.424-1.4s-.637-1.399-1.424-1.399-1.423.627-1.423 1.4m13.865-21.176c.68.386 1.551.157 1.944-.512a1.386 1.386 0 0 0-.52-1.911 1.437 1.437 0 0 0-1.945.512 1.386 1.386 0 0 0 .52 1.911"/><path fill="#4285F4" d="m50.085 6.8 5.752 9.795a2.86 2.86 0 0 0-2.466-1.4l-31.235-.002-9.865 16.792-5.752-9.793a2.76 2.76 0 0 1 0-2.8l7.397-12.594A5.71 5.71 0 0 1 18.85 4h26.304c1.966.002 3.878 1.005 4.932 2.8M20.272 9.596c0-.773-.637-1.4-1.423-1.4-.787 0-1.424.627-1.424 1.4s.637 1.4 1.424 1.4 1.423-.627 1.423-1.4m25.593 1.213c.68-.387.914-1.242.52-1.912a1.437 1.437 0 0 0-1.944-.512 1.386 1.386 0 0 0-.52 1.911 1.44 1.44 0 0 0 1.944.512"/><path fill="#F4B400" d="m.764 29.186 5.755-9.793a2.76 2.76 0 0 0 0 2.799l15.617 26.585h19.728L36.11 58.57a2.86 2.86 0 0 1-2.467 1.4H18.847c-1.966 0-3.878-1.005-4.932-2.798L.763 34.783a5.51 5.51 0 0 1 .001-5.597m5.643 1.587a1.437 1.437 0 0 0-1.944.512c-.393.67-.16 1.525.52 1.911.682.387 1.552.157 1.945-.512s.16-1.525-.52-1.91m11.728 22.389a1.386 1.386 0 0 0-.52 1.91c.392.67 1.263.9 1.944.513.68-.386.914-1.242.52-1.911a1.437 1.437 0 0 0-1.944-.512"/><path fill="#000" fill-rule="evenodd" d="m36.111 58.57 5.754-9.792h-5.942l-2.278 11.191a2.86 2.86 0 0 0 2.466-1.399M53.372 15.196H41.866l2.97 5.056 11.002-3.657a2.86 2.86 0 0 0-2.467-1.4" clip-rule="evenodd" opacity=".1"/><g opacity=".1"><mask id="a" width="10" height="13" x="6" y="19" maskUnits="userSpaceOnUse" style="mask-type:luminance"><path fill="#000" d="M15.244 19.394H6.139v12.592h9.105z"/></mask><g mask="url(#a)"><path fill="#000" fill-rule="evenodd" d="m6.52 22.192 5.752 9.793 2.971-5.057-8.723-7.534a2.76 2.76 0 0 0 0 2.798" clip-rule="evenodd"/></g></g><path fill="#CCC" d="M22.136 48.778 12.27 31.986l9.865-16.792h19.729l9.864 16.792-9.864 16.792zm18.406-16.792c0-4.637-3.824-8.396-8.542-8.396s-8.542 3.759-8.542 8.396c0 4.636 3.824 8.395 8.542 8.395s8.542-3.759 8.542-8.395"/></svg>