<svg xmlns="http://www.w3.org/2000/svg" width="64" height="64" fill="none" viewBox="0 0 64 64">
  <path fill="#E10098" fill-rule="evenodd" d="m32.002 4.5 23.815 13.75v27.5L32.002 59.5 8.186 45.75v-27.5L32.002 4.5ZM10.858 19.793v20.2l17.493-30.3-17.493 10.1ZM32.002 8.715 11.836 43.642h40.33L32.003 8.715Zm17.493 37.6H14.509l17.493 10.1 17.493-10.1Zm3.65-6.323L35.652 9.693l17.493 10.1v20.2Z" clip-rule="evenodd"/>
  <path fill="#E10098" d="M32.002 11.671a5.628 5.628 0 1 0 0-11.256 5.628 5.628 0 0 0 0 11.256ZM54.48 24.65a5.628 5.628 0 1 0 0-11.256 5.628 5.628 0 0 0 0 11.255Zm0 25.956a5.628 5.628 0 1 0 0-11.256 5.628 5.628 0 0 0 0 11.256ZM32.002 63.585a5.628 5.628 0 1 0 0-11.256 5.628 5.628 0 0 0 0 11.256ZM9.519 50.606a5.628 5.628 0 1 0 0-11.256 5.628 5.628 0 0 0 0 11.256Zm0-25.956a5.628 5.628 0 1 0 0-11.256 5.628 5.628 0 0 0 0 11.255Z"/>
</svg>
