<svg xmlns="http://www.w3.org/2000/svg" xmlns:xlink="http://www.w3.org/1999/xlink" width="100" height="100" fill="none"><linearGradient id="a"><stop offset=".18" stop-color="#0052cc"/><stop offset="1" stop-color="#2684ff"/></linearGradient><linearGradient xlink:href="#a" id="c" x1="75.142" x2="54.783" y1="24.078" y2="45.323" gradientUnits="userSpaceOnUse"/><linearGradient xlink:href="#a" id="e" x1="1956.92" x2="1082.22" y1="1849.11" y2="2714.75" gradientUnits="userSpaceOnUse"/><clipPath id="b"><path d="M0 0h100v100H0z"/></clipPath><g clip-path="url(#b)"><path fill="#2684ff" d="M95.822 0H47.668a21.737 21.737 0 0 0 21.738 21.738h8.87v8.564c.008 11.995 9.73 21.716 21.724 21.724V4.178A4.18 4.18 0 0 0 95.822 0"/><path fill="url(#c)" d="M71.995 23.994H23.841c.007 11.995 9.729 21.717 21.724 21.724h8.87v8.592c.015 11.995 9.743 21.71 21.738 21.71V28.172a4.18 4.18 0 0 0-4.178-4.178"/><path fill="url(#e)" d="M48.155 47.972H0C0 59.978 9.732 69.71 21.738 69.71h8.898v8.564c.008 11.984 9.713 21.701 21.696 21.724V52.15a4.18 4.18 0 0 0-4.177-4.178"/></g></svg>