<svg xmlns="http://www.w3.org/2000/svg" width="64" height="64" fill="none"><path fill="url(#a)" d="m39.761 29.82-12.795 4.172-11.124 4.914-3.116.823a78 78 0 0 1-2.522 2.291 83 83 0 0 1-2.606 2.188c-.782.623-1.944 1.776-2.538 2.515-.883 1.1-1.574 2.273-1.871 3.175-.535 1.623-.275 3.267.756 4.784 1.317 1.938 3.939 3.907 6.988 5.247 1.555.684 4.18 1.565 6.148 2.062 3.28.828 9.618 1.728 13.108 1.862.708.027 1.65.024 1.694-.004.077-.05.62-1.08 1.25-2.368 2.146-4.383 3.698-8.491 4.534-12 .505-2.125.9-4.958 1.155-8.317.072-.941.098-4.08.043-5.146-.09-1.736-.243-3.15-.488-4.539-.036-.203-.05-.382-.03-.399.035-.03.156-.069 1.728-.526zm-2.924 1.716c.116 0 .425 2.965.506 4.846.017.4.013.656-.01.656-.077 0-1.639-.917-2.746-1.613-.967-.607-2.803-1.827-3.094-2.056-.092-.072-.083-.076.708-.348 1.345-.463 4.534-1.485 4.636-1.485m-6.518 2.139c.083 0 .308.124.84.457 1.995 1.25 4.698 2.755 5.856 3.26.36.157.4.096-.427.658-1.763 1.197-3.955 2.374-6.645 3.57-.47.208-.867.378-.883.378s.037-.238.116-.53c.652-2.412 1.02-4.846 1.03-6.798.005-.965.005-.97.097-.993zm-1.342.512c.058.058.016 2.221-.054 2.81a24.5 24.5 0 0 1-.889 4.21 8 8 0 0 1-.22.68c-.039.044-1.362-1.245-1.801-1.755q-1.129-1.309-1.779-2.59c-.22-.434-.571-1.29-.538-1.314.148-.108 5.245-2.078 5.281-2.041m-6.32 2.49q.019.003.027.01c.019.022.086.179.15.35.308.838 1 2.081 1.602 2.877.657.868 1.514 1.793 2.23 2.408l.476.408c.061.055.082.046-1.496.644-1.828.693-3.819 1.388-6.105 2.127l-1.637.53c-.087.032-.06-.021.195-.419 1.135-1.773 2.856-5.242 3.818-7.696.167-.425.325-.852.354-.947.042-.14.083-.187.215-.247a.4.4 0 0 1 .172-.044m-1.936.8c.026.023-.465 1.058-.947 2-.936 1.825-1.967 3.621-3.337 5.813-.236.378-.454.724-.484.767-.048.07-.068.047-.218-.25a8.8 8.8 0 0 1-.745-2.24c-.14-.758-.117-2.07.053-2.883.126-.604.12-.59.405-.736 1.23-.63 5.233-2.506 5.273-2.47m16.68.678v.41c-.002 2.158-.232 5.112-.566 7.268-.059.378-.11.69-.113.694-.004.003-.277-.077-.605-.178a25 25 0 0 1-4.446-1.903c-.94-.515-2.3-1.35-2.263-1.388.01-.01.411-.222.89-.471a57 57 0 0 0 5.29-3.103c.592-.395 1.477-1.035 1.674-1.208zm-23.983 2.86c.04-.003.03.072-.033.428-.043.248-.091.716-.109 1.038-.078 1.415.152 2.458.854 3.886.195.397.348.728.34.734-.07.06-6.466 1.93-8.477 2.481-.596.163-1.117.307-1.16.32-.07.021-.075.006-.05-.158.22-1.419 1.303-3.281 2.815-4.844 1.005-1.04 1.81-1.655 3.179-2.437.982-.56 2.508-1.402 2.62-1.445zm15.086 2.7c.006-.007.243.12.526.284 2.066 1.195 4.948 2.316 7.406 2.878l.223.05-.306.17c-1.284.713-5.512 2.472-9.83 4.092-.63.236-1.246.468-1.366.516s-.219.08-.219.07.178-.352.397-.76c1.212-2.267 2.422-5.022 3.043-6.933a7 7 0 0 1 .126-.366m-1.538.505c.006.006-.07.21-.168.449-.843 2.038-1.947 4.261-3.355 6.759-.359.635-.66 1.154-.672 1.153a16 16 0 0 1-.648-.384c-2.05-1.256-3.865-2.801-5.057-4.305l-.17-.212.885-.243c3.154-.864 5.829-1.788 8.489-2.934.376-.162.69-.29.696-.283m9.553 3.335q.007.001.006.008c0 .215-.488 2.204-.894 3.644a114 114 0 0 1-1.158 3.827c-.234.74-.435 1.343-.447 1.34l-.125-.025c-2.874-.52-5.447-1.245-7.858-2.214-.674-.27-1.648-.702-1.7-.752-.017-.017.565-.292 1.293-.61 4.403-1.92 8.965-4.108 10.525-5.046.188-.113.326-.179.358-.172m-22.053.754c.024.023-1.208 1.786-2.928 4.193-.598.837-1.3 1.823-1.56 2.192q-.45.641-.877 1.297l-.406.627-.433-.364c-.508-.426-1.398-1.332-1.801-1.835-.83-1.035-1.393-2.124-1.615-3.125-.103-.462-.106-.697-.008-.726.14-.043 2.723-.65 5.146-1.212 1.345-.312 2.9-.678 3.458-.812a24 24 0 0 1 1.024-.235m1.239.474.311.348c1.393 1.552 2.81 2.71 4.54 3.71.304.176.537.329.517.341-.072.045-5.978 2.145-8.71 3.096-1.54.537-2.805.975-2.812.974a2 2 0 0 1-.193-.128l-.178-.127.28-.403c.906-1.313 2.045-2.756 4.537-5.755zm7.717 5.516c.007-.008.44.145.962.34 1.26.471 2.248.778 3.586 1.113 1.643.411 4.017.823 5.423.941.216.018.326.043.291.065-.065.041-1.489.517-2.535.846-1.662.522-6.74 2.022-10.88 3.213-.767.221-1.424.408-1.458.415-.093.02-.417-.066-.417-.11 0-.02.232-.314.514-.65a59 59 0 0 0 3.928-5.282c.315-.481.58-.882.587-.89m-1.71.049c.013.012-.673 1.11-1.88 3.011q-.643 1.013-1.284 2.03c-.198.314-.488.79-.644 1.062l-.283.494-.144-.039c-.346-.093-2.792-.957-3.438-1.214-.8-.318-1.635-.701-2.25-1.034-.77-.415-1.744-1.032-1.668-1.056.022-.007 1.345-.37 2.938-.804 4.239-1.155 6.584-1.819 8.121-2.298.288-.09.527-.158.532-.152m12.039 2.823q.014-.003.014 0c.04.1-1.529 4.446-2.102 5.824-.129.308-.176.383-.243.38-.163-.007-2.438-.325-3.815-.534-2.41-.366-6.448-1.071-7.467-1.303l-.237-.053 1.445-.326c3.097-.697 4.584-1.072 6.093-1.534a44 44 0 0 0 5.69-2.193c.302-.14.558-.247.622-.261"/><path fill="url(#b)" d="M26.574 0c-.214-.025-3.648 1.213-5.854 2.109-2.99 1.215-5.31 2.378-6.742 3.383-.534.375-1.204 1.048-1.302 1.306a1 1 0 0 0-.054.325L13.92 8.35l3.082.983 7.342 1.312 8.391 1.442.085-.72-.075-.012-1.105-.174-.224-.395c-1.14-2.012-2.401-4.503-3.133-6.188-.566-1.305-1.11-2.809-1.412-3.897-.18-.647-.198-.689-.298-.7m-.161.498h.014c.006.008.046.278.085.6a20.3 20.3 0 0 0 .94 4.073c.357 1.063.362 1-.062.882-.987-.275-5.408-1.034-8.606-1.477a23 23 0 0 1-.951-.142c-.041-.04 2.306-1.27 3.347-1.754 1.334-.621 4.968-2.134 5.233-2.182m-9.32 4.329.375.127c2.054.7 7.2 1.682 10.045 1.919.321.026.591.055.6.062.008.008-.265.153-.606.324-1.372.688-2.883 1.525-3.928 2.18-.306.192-.588.346-.625.344s-.24-.036-.451-.071l-.387-.063-.97-.943a419 419 0 0 0-3.552-3.41zm-.38.303 1.36 1.698c.749.934 1.5 1.86 1.666 2.06s.295.368.287.374c-.039.029-1.97-.348-2.995-.582-1.051-.241-1.486-.357-2.137-.565l-.53-.17.002-.131c.007-.653.829-1.615 2.224-2.599zm11.581 2.313c.041.003.084.086.205.35.33.723 1.356 2.681 1.605 3.06.081.125.211.133-1.152-.087-3.275-.53-4.334-.706-4.334-.726 0-.013.098-.077.218-.144a19 19 0 0 0 2.949-2.042c.217-.184.427-.358.465-.39q.024-.022.044-.02"/><path fill="url(#c)" d="M12.734 6.667s-.212.337-.012.838c.124.31.497.682.907 1.076 0 0 4.298 4.193 4.824 4.8 2.381 2.749 3.416 5.454 3.511 9.19.061 2.397-.4 4.504-1.524 6.953-2.012 4.389-6.252 9.23-12.801 14.612l.961-.318c.618-.462 1.457-.957 3.436-2.04 4.558-2.492 9.677-4.786 15.965-7.149 9.046-3.4 23.926-7.388 32.393-8.685l.883-.136-.136-.212c-.774-1.204-1.303-1.946-1.938-2.732-1.858-2.297-4.106-4.17-6.86-5.713-3.786-2.119-8.696-3.766-14.902-5-1.174-.233-3.743-.674-5.835-1-4.429-.69-7.286-1.156-10.441-1.706-1.132-.196-2.82-.48-3.942-.722-.584-.126-1.695-.389-2.558-.686-.713-.28-1.716-.552-1.93-1.37m2.492 2.418a3 3 0 0 1 .364.112c.362.123.841.267 1.398.423q.636.176 1.275.34c.581.148 1.062.276 1.068.283.065.072 1.041 3.19 1.374 4.385.128.456.224.837.215.846s-.118-.16-.239-.373c-1.13-1.986-2.919-4.007-4.988-5.633a8 8 0 0 1-.467-.383m4.761 1.316c.05-.004.264.032.52.089 1.648.364 4.59.932 6.482 1.25.315.053.574.11.574.128 0 .017-.117.092-.26.164-.318.16-1.603.928-2.032 1.216-1.073.718-2.038 1.487-2.74 2.185-.283.281-.519.51-.526.51s-.057-.163-.11-.364c-.351-1.346-1.077-3.334-1.728-4.733a5 5 0 0 1-.19-.441q0-.004.01-.004m8.376 1.592c.055.019.159.344.344 1.075.353 1.4.518 2.971.463 4.425-.015.405-.04.78-.057.836l-.03.101-.5-.162a126 126 0 0 0-4.156-1.224c-.82-.227-1.492-.43-1.492-.45 0-.059 1.196-1.255 1.71-1.71.982-.867 3.624-2.922 3.718-2.89m.665.095c.03-.027 4.003.66 5.808 1.006 1.346.258 3.293.665 3.41.714.057.024-.145.134-.791.425-2.557 1.153-4.451 2.183-6.334 3.442-.496.332-.908.604-.917.604-.008 0-.016-.277-.016-.616-.001-1.836-.368-3.69-1.04-5.255-.072-.168-.127-.313-.12-.32M39.3 14.12c.031.03-.1.814-.212 1.277-.352 1.44-1.283 3.578-2.432 5.587-.203.354-.384.65-.405.656s-.283-.131-.581-.306a31 31 0 0 0-3.794-1.855c-.39-.161-.722-.304-.739-.32-.064-.06 3.042-2.116 4.689-3.104 1.317-.79 3.437-1.972 3.474-1.935m.735.115c.09 0 1.851.48 2.762.753 2.27.679 4.887 1.635 6.585 2.406l.706.32-.498.115c-4.155.955-7.716 2.056-11.146 3.448a8 8 0 0 1-.55.211c-.018 0 .073-.22.2-.49 1.031-2.19 1.697-4.489 1.87-6.44.016-.179.048-.323.07-.323M22.523 18.26c.028-.027 1.369.287 2.1.492 1.1.309 3.439 1.092 3.44 1.152 0 .011-.258.236-.572.5a73 73 0 0 0-3.947 3.575c-.433.418-.8.759-.819.759s-.026-.061-.016-.136c.22-1.624.172-3.71-.134-5.834-.039-.269-.062-.498-.052-.508m28.237.027c.02.02-.622 1.024-1.022 1.596-.583.836-1.429 1.933-3.355 4.355q-1.27 1.598-2.538 3.2c-.384.486-.707.886-.716.886s-.133-.175-.275-.387a20.2 20.2 0 0 0-3.912-4.326c-.287-.24-.61-.5-.718-.581a1 1 0 0 1-.196-.166c-.002-.027 1.64-.73 2.893-1.24a99 99 0 0 1 7.394-2.635c1.177-.36 2.427-.72 2.445-.702m.74.194c.036-.007.27.106.551.267 2.35 1.346 4.653 3.075 6.463 4.853.515.505 1.776 1.816 1.757 1.827-.005.003-.44.037-.967.077-4.073.306-9.279 1.172-14.291 2.378a16 16 0 0 1-.654.15c-.019 0 .354-.375.828-.83 2.944-2.83 4.286-4.617 5.866-7.81.236-.475.435-.885.444-.91q0-.003.004-.002m-21.522 2.206c.134.03 1.39.614 2.337 1.088.866.434 2.179 1.133 2.244 1.194.008.008-.454.25-1.028.537a66 66 0 0 0-4.998 2.76c-.464.283-.852.516-.864.516-.041 0-.025-.035.234-.51.866-1.585 1.564-3.477 1.965-5.326.036-.165.08-.266.11-.26m-1.265.226c.026.026-.3 1.223-.506 1.862a24 24 0 0 1-1.708 3.926q-.25.447-.514.886l-.239.39-.542-.524c-.63-.61-1.144-.99-1.8-1.327-.257-.132-.466-.255-.467-.273 0-.08 1.65-1.58 2.922-2.657.912-.77 2.83-2.306 2.854-2.283m7.685 3.161.472.306a38 38 0 0 1 3.339 2.46c.547.456 1.61 1.409 1.83 1.64l.117.123-.783.218c-4.43 1.23-7.852 2.323-11.845 3.79-.443.164-.825.298-.852.298-.055 0-.11.05.887-.866 2.554-2.35 4.81-4.94 6.495-7.459zm-2.02.506c.024.023-1.308 1.889-2.1 2.942a126 126 0 0 1-3.794 4.74c-.485.573-.9 1.048-.923 1.056s-.04-.132-.04-.354a8.1 8.1 0 0 0-.822-3.48c-.22-.448-.258-.557-.212-.598.182-.165 3-1.771 4.776-2.723 1.22-.654 3.093-1.606 3.116-1.583m-12.214 2.993c.025 0 .25.113.502.253q.925.512 1.66 1.125c.018.016-.235.223-.563.46-.917.66-2.312 1.714-3.12 2.357-.853.678-.881.699-.785.552.638-.976.96-1.53 1.295-2.236.298-.628.595-1.373.807-2.021.088-.27.18-.49.204-.49m3.254 2.554c.044-.006.107.076.369.467.551.824.973 1.923 1.082 2.817l.023.192-1.322.512c-2.372.92-4.555 1.828-6.03 2.503q-.815.377-1.617.776c-.476.238-.864.425-.864.414 0-.01.299-.234.664-.5 2.894-2.101 5.39-4.402 7.27-6.702.202-.246.384-.459.407-.473a.04.04 0 0 1 .018-.006m-1.501.372c.038.038-1.068 1.29-1.813 2.05-1.865 1.903-3.714 3.396-6.004 4.849a53 53 0 0 1-.583.366c-.063.037.02-.058 1.026-1.154a28 28 0 0 0 1.67-1.979c.362-.47.431-.537.962-.92 1.432-1.033 4.704-3.25 4.742-3.212"/><defs><linearGradient id="a" x1="14.97" x2="40.075" y1="61.679" y2="46.846" gradientUnits="userSpaceOnUse"><stop stop-color="#909CA9"/><stop offset="1" stop-color="#EDEDEE"/></linearGradient><linearGradient id="b" x1="12.622" x2="32.821" y1="6.044" y2="6.044" gradientUnits="userSpaceOnUse"><stop stop-color="#939FAB"/><stop offset="1" stop-color="#DCDEE1"/></linearGradient><radialGradient id="c" cx="0" cy="0" r="1" gradientTransform="rotate(-171.401 16.71 10.397)scale(26.0607 52.049)" gradientUnits="userSpaceOnUse"><stop stop-color="#EE352C"/><stop offset="1" stop-color="#A91D22"/></radialGradient></defs></svg>