<svg xmlns="http://www.w3.org/2000/svg" width="24" height="24" fill="none"><path fill="#2C7493" fill-rule="evenodd" d="M22.128 18.219c-1.291-.033-2.291.096-3.13.452-.242.096-.63.096-.662.403.13.129.145.338.259.517.193.322.531.757.838.984.34.258.678.515 1.034.741.629.39 1.339.614 1.951 1.002.356.225.71.515 1.066.758.177.13.29.34.516.42v-.05c-.114-.145-.145-.354-.258-.517-.16-.16-.323-.306-.484-.467a7.7 7.7 0 0 0-1.678-1.629c-.517-.356-1.647-.84-1.856-1.435l-.033-.033c.355-.033.776-.162 1.114-.26.548-.145 1.048-.112 1.613-.257.259-.065.517-.146.776-.226v-.146c-.292-.29-.5-.677-.807-.951a21.6 21.6 0 0 0-2.663-1.985c-.5-.323-1.146-.532-1.679-.807-.193-.097-.515-.145-.629-.307-.29-.355-.452-.822-.661-1.242-.468-.887-.92-1.87-1.323-2.808-.29-.63-.468-1.258-.823-1.84-1.663-2.743-3.47-4.404-6.245-6.034-.597-.34-1.307-.485-2.065-.662-.404-.017-.807-.048-1.21-.064-.26-.114-.518-.42-.743-.566-.92-.58-3.291-1.839-3.97-.177-.435 1.05.646 2.082 1.017 2.614.274.371.63.791.823 1.21.113.275.145.566.258.856.258.71.5 1.5.84 2.162.176.34.37.695.596 1 .13.178.355.258.404.55-.225.322-.243.806-.372 1.21-.58 1.823-.355 4.082.468 5.421.258.404.872 1.291 1.695.952.726-.29.565-1.21.774-2.016.049-.195.016-.323.113-.452v.032c.225.452.452.886.662 1.34.5.79 1.371 1.612 2.098 2.16.386.292.693.792 1.177.97v-.05h-.032c-.097-.144-.242-.209-.371-.321a8 8 0 0 1-.84-.969c-.677-.903-1.275-1.904-1.806-2.937-.259-.501-.484-1.05-.694-1.55-.097-.192-.097-.483-.258-.58-.243.355-.597.662-.774 1.096-.307.695-.34 1.55-.453 2.438-.064.017-.032 0-.064.032-.516-.129-.694-.661-.888-1.112-.484-1.147-.565-2.986-.145-4.31.112-.338.598-1.403.403-1.726-.097-.307-.42-.483-.597-.726a6.4 6.4 0 0 1-.58-1.033c-.387-.903-.582-1.904-1-2.807-.194-.42-.534-.856-.807-1.243-.307-.436-.646-.742-.888-1.258-.08-.178-.193-.469-.065-.662.032-.129.097-.178.227-.21.208-.178.806.048 1.015.145.598.241 1.098.468 1.598.807.226.161.468.468.758.55h.34c.516.111 1.097.03 1.581.176.855.274 1.63.678 2.324 1.114a14.3 14.3 0 0 1 5.033 5.518c.194.371.276.71.453 1.097.339.792.759 1.599 1.097 2.373.338.758.662 1.532 1.146 2.162.242.339 1.21.516 1.646.694.322.145.823.274 1.114.451.548.338 1.096.726 1.613 1.098.258.194 1.065.596 1.113.92" clip-rule="evenodd"/></svg>