<svg xmlns="http://www.w3.org/2000/svg" width="70" height="70" fill="none"><circle cx="35" cy="35" r="35" fill="#0060D5"/><mask id="a" width="70" height="70" x="0" y="0" maskUnits="userSpaceOnUse" style="mask-type:alpha"><circle cx="35" cy="35" r="35" fill="#0060D5"/></mask><g mask="url(#a)"><path stroke="#fff" stroke-width="3" d="m32.525 17.676 3.89 3.89-14.85 14.848-3.89-3.889a6.5 6.5 0 0 1 0-9.192l5.658-5.657a6.5 6.5 0 0 1 9.192 0ZM48.435 33.586l3.89 3.889a6.5 6.5 0 0 1 0 9.192l-5.658 5.657a6.5 6.5 0 0 1-9.192 0l-3.89-3.89z"/><rect width="20" height="3" x="8.13" y="6.716" fill="#fff" rx="1.5" transform="rotate(45 8.13 6.716)"/><rect width="20" height="3" x="49.142" y="47.728" fill="#fff" rx="1.5" transform="rotate(45 49.142 47.728)"/><rect width="11" height="3" x="25.101" y="30.757" fill="#fff" rx="1.5" transform="rotate(45 25.1 30.757)"/><rect width="11" height="3" x="32.879" y="22.979" fill="#fff" rx="1.5" transform="rotate(45 32.879 22.979)"/></g></svg>