<svg xmlns="http://www.w3.org/2000/svg" width="100" height="100" fill="none"><path fill="#0364b8" d="m60.414 61.235 20.642-19.74C76.768 24.777 59.739 14.7 43.02 18.987a31.25 31.25 0 0 0-18.341 13.09c.32-.007 35.734 29.158 35.734 29.158"/><path fill="#0078d4" d="M38.132 35.793v.004a24.9 24.9 0 0 0-13.133-3.728c-.107 0-.212.007-.32.008C10.88 32.248-.168 43.574.003 57.373a25 25 0 0 0 4.49 13.984l30.923-3.873 23.709-19.117z"/><path fill="#1490df" d="M81.055 41.494a20.239 20.239 0 0 0-9.422 1.61v-.001l-12.509 5.264L72.914 65.4l24.653 5.992c5.32-9.876 1.626-22.195-8.25-27.515a20.3 20.3 0 0 0-8.261-2.383z"/><path fill="#28a8ea" d="M4.492 71.357a24.96 24.96 0 0 0 20.507 10.71h54.685a20.31 20.31 0 0 0 17.883-10.673L59.124 48.367z"/></svg>