<svg xmlns="http://www.w3.org/2000/svg" width="64" height="64" fill="none"><path fill="#C74634" d="M27.69 33.408h4.22l-2.229-3.601-4.099 6.503h-1.864l4.985-7.802a1.19 1.19 0 0 1 1.94-.014l4.999 7.816h-1.864l-.878-1.454h-4.271l-.93-1.448m19.367 1.448V28.08h-1.584v7.445a.76.76 0 0 0 .236.554.8.8 0 0 0 .576.24h7.2l.94-1.454h-7.376m-26.184-1.218a2.784 2.784 0 0 0 0-5.567H13.95v8.231h1.581v-6.774h5.246a1.332 1.332 0 0 1 0 2.664h-4.462l4.725 4.11h2.296l-3.174-2.664zM4.222 36.31h4.784a4.115 4.115 0 0 0 0-8.228H4.222a4.116 4.116 0 1 0 0 8.228m4.676-1.448h-4.57a2.665 2.665 0 0 1 0-5.326h4.57a2.666 2.666 0 1 1 0 5.326m30.048 1.448h4.883l.925-1.448h-5.7a2.665 2.665 0 1 1 0-5.326h4.639l.936-1.454h-5.683a4.116 4.116 0 1 0 0 8.228m19.351-1.448a2.665 2.665 0 0 1-2.564-1.94h6.763l.93-1.45h-7.693a2.66 2.66 0 0 1 2.564-1.94h4.642l.928-1.453H58.19a4.115 4.115 0 0 0 0 8.228h4.883L64 34.86h-5.706"/></svg>