<svg xmlns="http://www.w3.org/2000/svg" width="64" height="64" fill="none"><g clip-path="url(#a)"><path fill="#0A2767" d="M64 33.176c.004-.5-.255-.966-.682-1.228h-.007l-.027-.015-22.177-13.127a2.976 2.976 0 0 0-3.325 0L15.606 31.933l-.027.015a1.445 1.445 0 0 0 .034 2.475L37.79 47.55q.144.097.297.178a2.98 2.98 0 0 0 3.028-.178l22.177-13.127c.443-.258.713-.734.708-1.247"/><path fill="#0364B8" d="M18.19 24.41h14.554v13.341H18.191zm42.833-13.56V4.748a2.765 2.765 0 0 0-2.698-2.828H20.559a2.765 2.765 0 0 0-2.699 2.828v6.102l22.326 5.954z"/><path fill="#0078D4" d="M17.86 10.85h14.884v13.396H17.86z"/><path fill="#28A8EA" d="M47.628 10.85H32.744v13.396L47.628 37.64h13.395V24.246z"/><path fill="#0078D4" d="M32.744 24.246h14.884V37.64H32.744z"/><path fill="#0364B8" d="M32.744 37.64h14.884v13.396H32.744z"/><path fill="#14447D" d="M18.19 37.751h14.554v12.127H18.191z"/><path fill="#0078D4" d="M47.628 37.64h13.395v13.396H47.628z"/><path fill="url(#b)" d="m63.318 34.341-.028.015L41.113 46.83q-.144.09-.297.166c-.377.18-.786.28-1.203.298l-1.212-.709a3 3 0 0 1-.297-.17L15.629 33.586h-.01l-.735-.411v25.249a3.05 3.05 0 0 0 3.07 3.03h43.023c.025 0 .048-.012.075-.012a3.8 3.8 0 0 0 1.041-.217q.218-.093.418-.218A3.005 3.005 0 0 0 64 58.424V33.177c0 .483-.26.928-.68 1.165"/><path fill="#0A2767" d="M62.81 33.076v1.548L39.62 50.59 15.613 33.597a.015.015 0 0 0-.015-.015l-2.203-1.325v-1.116l.908-.015 1.92 1.102.045.015.164.104S38.995 45.22 39.055 45.25l.863.506c.075-.03.149-.06.238-.09.045-.03 22.4-12.606 22.4-12.606z" opacity=".5"/><path fill="#1490DF" d="m63.318 34.341-.028.017L41.113 46.83q-.144.09-.297.167a3.11 3.11 0 0 1-3.028-.167L15.612 34.358l-.027-.017a1.34 1.34 0 0 1-.701-1.165v25.249a3.05 3.05 0 0 0 3.069 3.03H60.93A3.05 3.05 0 0 0 64 58.425v-25.25c0 .484-.261.929-.682 1.166"/><path fill="#000" d="m41.436 46.646-.332.186a3.08 3.08 0 0 1-1.468.478l8.438 9.977 14.719 3.547c.403-.305.724-.705.933-1.165z" opacity=".1"/><path fill="#000" d="m42.94 45.8-1.836 1.032a3.08 3.08 0 0 1-1.468.478l3.954 10.899 19.207 2.62A3.01 3.01 0 0 0 64 58.426v-.326z" opacity=".05"/><path fill="#28A8EA" d="M17.994 61.455h42.933a3.1 3.1 0 0 0 1.838-.596L38.4 46.588a3 3 0 0 1-.298-.17L15.628 33.59h-.01l-.734-.414v25.162a3.114 3.114 0 0 0 3.11 3.117"/><path fill="#000" d="M35.72 16.555v31.747a2.74 2.74 0 0 1-1.71 2.53c-.32.138-.665.209-1.013.209H14.884V15.315h2.976v-1.488h15.137a2.734 2.734 0 0 1 2.724 2.728" opacity=".1"/><path fill="#000" d="M34.233 18.044V49.79c.003.36-.073.716-.224 1.042a2.71 2.71 0 0 1-2.5 1.693H14.884v-37.21h16.625a2.5 2.5 0 0 1 1.235.313 2.71 2.71 0 0 1 1.489 2.416" opacity=".2"/><path fill="#000" d="M34.233 18.044v28.77a2.747 2.747 0 0 1-2.724 2.734H14.884V15.315h16.625c.432-.004.857.104 1.235.313a2.71 2.71 0 0 1 1.489 2.416" opacity=".2"/><path fill="#000" d="M32.744 18.044v28.77a2.737 2.737 0 0 1-2.724 2.734H14.885V15.315H30.02a2.725 2.725 0 0 1 2.724 2.727z" opacity=".2"/><path fill="url(#c)" d="M2.728 15.315h27.288a2.73 2.73 0 0 1 2.728 2.729V45.33a2.73 2.73 0 0 1-2.728 2.728H2.728A2.73 2.73 0 0 1 0 45.332V18.044a2.73 2.73 0 0 1 2.728-2.729"/><path fill="#fff" d="M8.527 26.758a7.94 7.94 0 0 1 3.117-3.443 9.4 9.4 0 0 1 4.951-1.241 8.77 8.77 0 0 1 4.583 1.177 7.87 7.87 0 0 1 3.032 3.29 10.6 10.6 0 0 1 1.063 4.837c.035 1.749-.34 3.482-1.094 5.06a8.05 8.05 0 0 1-3.126 3.404 9.1 9.1 0 0 1-4.754 1.209 8.96 8.96 0 0 1-4.684-1.19 8 8 0 0 1-3.072-3.296 10.36 10.36 0 0 1-1.074-4.78 11.5 11.5 0 0 1 1.058-5.027m3.322 8.082a5.15 5.15 0 0 0 1.753 2.265 4.58 4.58 0 0 0 2.739.825 4.8 4.8 0 0 0 2.923-.852 4.93 4.93 0 0 0 1.703-2.265 8.8 8.8 0 0 0 .543-3.16 9.6 9.6 0 0 0-.512-3.2 5.06 5.06 0 0 0-1.65-2.36 4.53 4.53 0 0 0-2.897-.893 4.73 4.73 0 0 0-2.803.832 5.2 5.2 0 0 0-1.786 2.284 9.08 9.08 0 0 0-.012 6.527z"/><path fill="#50D9FF" d="M47.628 10.85h13.395v13.396H47.628z"/></g><defs><linearGradient id="b" x1="39.442" x2="39.442" y1="33.176" y2="61.455" gradientUnits="userSpaceOnUse"><stop stop-color="#35B8F1"/><stop offset="1" stop-color="#28A8EA"/></linearGradient><linearGradient id="c" x1="5.688" x2="27.056" y1="13.184" y2="50.191" gradientUnits="userSpaceOnUse"><stop stop-color="#1784D9"/><stop offset=".5" stop-color="#107AD5"/><stop offset="1" stop-color="#0A63C9"/></linearGradient><clipPath id="a"><path fill="#fff" d="M0 1.92h64v59.535H0z"/></clipPath></defs></svg>