<svg xmlns="http://www.w3.org/2000/svg" width="64" height="64" fill="none"><g clip-path="url(#a)"><path fill="#000" d="M63.752 38.324c-.384-1.127-1.389-1.912-2.689-2.1-.613-.09-1.315-.051-2.146.115-1.448.29-2.522.4-3.306.421 2.96-4.845 5.366-10.37 6.75-15.57 2.24-8.41 1.044-12.24-.355-13.974C58.304 2.63 52.904.166 46.388.09c-3.476-.041-6.527.624-8.119 1.103a31 31 0 0 0-4.747-.421c-3.134-.049-5.904.614-8.27 1.975a39 39 0 0 0-5.84-1.421C13.7.416 9.099 1.126 5.732 3.43 1.655 6.224-.234 11.075.115 17.851.226 20 1.467 26.547 3.421 32.755c1.123 3.568 2.32 6.53 3.56 8.807 1.756 3.228 3.636 5.129 5.746 5.812 1.183.382 3.332.65 5.592-1.176.287.336.669.67 1.176.981a8 8 0 0 0 2.219.907c2.835.687 5.491.515 7.757-.448.014.39.024.764.034 1.086.015.523.03 1.036.05 1.516.134 3.242.361 5.763 1.035 7.527.037.096.087.244.14.401.335.999.898 2.67 2.328 3.979 1.481 1.356 3.273 1.771 4.914 1.771.823 0 1.608-.104 2.297-.247 2.455-.51 5.244-1.288 7.26-4.073 1.907-2.633 2.834-6.598 3.002-12.846l.061-.506.04-.33.45.038.115.008c2.5.11 5.558-.404 7.436-1.25 1.484-.668 6.238-3.102 5.119-6.388"/><path fill="#336791" d="M59.477 38.963c-7.435 1.487-7.947-.954-7.947-.954 7.85-11.295 11.132-25.633 8.3-29.142-7.726-9.572-21.1-5.045-21.323-4.928l-.072.013c-1.468-.296-3.112-.472-4.96-.501-3.364-.053-5.916.855-7.853 2.28 0 0-23.857-9.531-22.747 11.986.236 4.577 6.766 34.636 14.554 25.557a141 141 0 0 1 5.598-6.128 7.4 7.4 0 0 0 4.716 1.168l.133-.11a5 5 0 0 0 .053 1.293c-2.006 2.174-1.416 2.556-5.427 3.356-4.06.811-1.675 2.255-.118 2.633 1.887.458 6.253 1.106 9.203-2.899l-.117.457c.785.61 1.337 3.972 1.245 7.019-.093 3.047-.154 5.139.465 6.772.62 1.634 1.237 5.31 6.51 4.215 4.406-.915 6.689-3.288 7.007-7.246.225-2.813.735-2.397.767-4.913l.41-1.19c.471-3.815.075-5.045 2.789-4.473l.66.056c1.997.088 4.612-.312 6.147-1.003 3.305-1.487 5.265-3.97 2.007-3.318"/><path fill="#fff" d="M27.019 19.764c-.67-.09-1.277-.007-1.584.218a.56.56 0 0 0-.24.375c-.039.268.155.564.274.717.336.432.828.73 1.314.795q.106.015.21.014c.812 0 1.55-.613 1.615-1.065.081-.566-.767-.944-1.589-1.054m22.196.018c-.064-.444-.879-.57-1.652-.467-.772.105-1.52.443-1.458.887.05.346.695.937 1.457.937q.098 0 .195-.013c.51-.069.883-.382 1.06-.563.27-.275.427-.582.398-.781"/><path fill="#fff" d="M61.95 38.794c-.283-.831-1.196-1.099-2.712-.795-4.5.9-6.113.277-6.642-.101 3.499-5.169 6.377-11.417 7.93-17.246.735-2.76 1.141-5.325 1.175-7.415.036-2.294-.367-3.98-1.197-5.01-3.351-4.152-8.268-6.379-14.221-6.44-4.092-.044-7.55.971-8.22 1.257-1.412-.34-2.95-.55-4.626-.576-3.071-.048-5.727.665-7.925 2.119a36.3 36.3 0 0 0-6.442-1.638c-5.218-.815-9.364-.197-12.323 1.835-3.531 2.426-5.161 6.762-4.845 12.888.106 2.06 1.317 8.4 3.228 14.472 2.515 7.991 5.25 12.515 8.127 13.446.337.108.725.185 1.153.185 1.05 0 2.337-.46 3.675-2.02q2.45-2.85 5.066-5.558a8.36 8.36 0 0 0 3.644.95l.008.097q-.328.38-.642.77c-.88 1.084-1.064 1.31-3.898 1.875-.806.162-2.948.59-2.979 2.045-.034 1.59 2.531 2.258 2.824 2.329 1.018.247 2 .37 2.935.37 2.276 0 4.279-.726 5.879-2.13-.05 5.67.194 11.256.896 12.958.576 1.394 1.98 4.8 6.416 4.799.651 0 1.368-.074 2.156-.237 4.63-.963 6.641-2.947 7.419-7.322.416-2.339 1.13-7.922 1.467-10.917.708.215 1.621.313 2.608.313 2.058 0 4.433-.424 5.922-1.095 1.673-.753 4.692-2.602 4.145-4.208M50.924 18.556c-.015.884-.14 1.687-.274 2.525-.143.901-.291 1.833-.328 2.964-.037 1.1.105 2.244.242 3.351.277 2.235.561 4.536-.54 6.807a9 9 0 0 1-.487-.972c-.136-.321-.434-.838-.845-1.552-1.6-2.782-5.346-9.297-3.428-11.956.571-.791 2.021-1.605 5.66-1.167M46.513 3.578c5.334.114 9.553 2.049 12.54 5.75 2.29 2.839-.232 15.757-7.535 26.902l-.222-.271-.093-.112c1.888-3.023 1.519-6.013 1.19-8.664-.135-1.088-.262-2.116-.23-3.08.034-1.024.173-1.902.308-2.75.166-1.046.335-2.128.288-3.403.035-.134.049-.292.03-.48-.118-1.223-1.558-4.883-4.493-8.196-1.605-1.812-3.947-3.84-7.143-5.208a24.8 24.8 0 0 1 5.36-.488M16.669 42.613c-1.476 1.72-2.494 1.39-2.829 1.282-2.182-.706-4.715-5.18-6.948-12.273-1.932-6.137-3.06-12.31-3.15-14.04C3.46 12.11 4.828 8.294 7.809 6.244c4.85-3.336 12.826-1.339 16.031-.326q-.07.064-.14.13c-5.258 5.15-5.134 13.949-5.12 14.487-.001.207.017.501.041.905.09 1.48.26 4.235-.19 7.354-.419 2.899.503 5.736 2.527 7.784q.312.316.654.598c-.9.936-2.859 3.005-4.943 5.437m5.62-7.271c-1.632-1.651-2.373-3.947-2.034-6.3.475-3.296.3-6.166.206-7.707-.014-.216-.025-.405-.032-.554.768-.661 4.328-2.51 6.867-1.947 1.159.258 1.865 1.023 2.158 2.339 1.52 6.813.201 9.652-.858 11.934-.218.47-.424.914-.6 1.374l-.137.355c-.345.899-.667 1.734-.866 2.527-1.734-.004-3.422-.723-4.705-2.021m.265 9.188a4.1 4.1 0 0 1-1.229-.513c.224-.102.62-.24 1.31-.378 3.334-.665 3.849-1.135 4.973-2.52.258-.317.55-.677.955-1.115.603-.655.88-.544 1.38-.343.404.162.8.655.96 1.197.075.256.16.742-.118 1.12-2.35 3.19-5.772 3.148-8.23 2.552m17.45 15.746c-4.079.847-5.523-1.171-6.475-3.478-.614-1.49-.916-8.206-.702-15.624a.9.9 0 0 0-.04-.283 4 4 0 0 0-.114-.524c-.318-1.08-1.094-1.982-2.026-2.357-.37-.148-1.048-.421-1.864-.219.173-.695.475-1.48.802-2.33l.138-.358c.154-.403.348-.82.553-1.263 1.108-2.387 2.626-5.657.979-13.045-.617-2.767-2.677-4.118-5.801-3.804-1.873.188-3.586.92-4.44 1.34q-.275.135-.509.263c.239-2.788 1.14-7.998 4.51-11.295 2.122-2.075 4.948-3.1 8.392-3.045 6.785.108 11.136 3.484 13.592 6.298 2.115 2.425 3.261 4.867 3.718 6.185-3.438-.34-5.777.319-6.962 1.962-2.58 3.575 1.41 10.515 3.328 13.85.352.61.656 1.139.751 1.364.624 1.467 1.433 2.447 2.023 3.162.181.22.357.432.49.618-1.041.29-2.912.964-2.742 4.326-.137 1.687-1.115 9.587-1.611 12.378-.656 3.687-2.056 5.06-5.99 5.879M57.03 41.382c-1.065.48-2.847.839-4.54.916-1.87.085-2.822-.203-3.046-.38-.105-2.096.7-2.315 1.55-2.546.134-.037.265-.072.39-.115q.118.093.259.183c1.503.962 4.184 1.066 7.968.308l.042-.008c-.51.463-1.384 1.084-2.623 1.642"/></g><defs><clipPath id="a"><path fill="#fff" d="M0 0h64v64H0z"/></clipPath></defs></svg>