<svg xmlns="http://www.w3.org/2000/svg" width="64" height="64" fill="none" viewBox="0 0 16 16"><path fill="#A41E11" d="M15.297 11.896c-.844.437-5.219 2.225-6.15 2.708s-1.449.478-2.185.128c-.735-.35-5.391-2.218-6.23-2.617-.419-.2-.639-.367-.639-.526V10s6.06-1.311 7.039-1.66c.979-.35 1.318-.362 2.15-.059.834.304 5.812 1.197 6.636 1.496l-.001 1.568c0 .157-.19.33-.62.552"/><path fill="#D82C20" d="M15.297 10.305c-.844.438-5.219 2.226-6.15 2.709-.931.482-1.449.478-2.185.128-.735-.35-5.391-2.22-6.23-2.617-.838-.399-.856-.673-.032-.994s5.454-2.126 6.432-2.475 1.318-.361 2.15-.058c.834.303 5.182 2.024 6.005 2.323.823.3.855.547.01.984"/><path fill="#A41E11" d="M15.297 9.303c-.844.438-5.219 2.225-6.15 2.708s-1.449.478-2.185.129c-.735-.35-5.391-2.22-6.23-2.618-.419-.199-.639-.367-.639-.525v-1.59s6.06-1.312 7.039-1.66c.979-.35 1.318-.362 2.15-.06.834.304 5.812 1.197 6.636 1.496l-.001 1.568c0 .157-.19.33-.62.552"/><path fill="#D82C20" d="M15.297 7.713c-.844.437-5.219 2.225-6.15 2.708s-1.449.478-2.185.128C6.227 10.2 1.571 8.33.732 7.932c-.838-.398-.856-.673-.032-.993s5.454-2.127 6.432-2.475c.979-.35 1.318-.362 2.15-.059.834.303 5.182 2.024 6.005 2.323.823.3.855.547.01.985"/><path fill="#A41E11" d="M15.297 6.614c-.844.438-5.219 2.226-6.15 2.709-.931.482-1.449.477-2.185.128-.735-.35-5.391-2.22-6.23-2.617-.418-.2-.638-.368-.638-.526v-1.59s6.06-1.312 7.039-1.66c.978-.35 1.318-.362 2.15-.059.833.303 5.812 1.196 6.635 1.495v1.568c0 .157-.19.33-.62.552z"/><path fill="#D82C20" d="M15.297 5.024c-.844.437-5.219 2.225-6.15 2.708s-1.449.478-2.185.128c-.735-.35-5.391-2.218-6.23-2.617C-.105 4.845-.123 4.57.7 4.25c.824-.32 5.454-2.126 6.432-2.475s1.318-.362 2.15-.059c.834.304 5.182 2.024 6.005 2.324s.855.546.01.984"/><path fill="#fff" d="m10.079 3.492-1.371.142-.307.734-.496-.819-1.583-.142 1.18-.423-.353-.65 1.106.43 1.042-.34-.281.672zm-1.76 3.562-2.56-1.055 3.668-.56zM4.77 5.41c1.083 0 1.96-.337 1.96-.754S5.854 3.9 4.77 3.9s-1.96.338-1.96.755.878.755 1.96.755"/><path fill="#7A0C00" d="m11.7 3.693 2.17.853-2.169.851z"/><path fill="#AD2115" d="m9.298 4.637 2.401-.944.002 1.704-.235.092z"/></svg>