<svg xmlns="http://www.w3.org/2000/svg" width="64" height="64" fill="none"><path fill="#8C3123" d="m32.474 47.426 22.207 5.373V11.104l-22.207 5.377z"/><path fill="#E05243" d="m54.682 11.104 4.267 2.133v37.441l-4.267 2.133zM42.16 18.539l-9.686-2.397V0l9.686 4.843zM32.474 64l9.685-4.84V45.462l-9.685 2.396zM42.16 38.857l-9.686 1.233V23.947l9.686 1.215zM32.474 47.426l-22.208 5.373V11.104l22.208 5.377z"/><path fill="#8C3123" d="M10.266 11.104 6 13.237v37.441l4.266 2.133zM22.79 18.539l9.684-2.397V0L22.79 4.843zM32.474 64l-9.685-4.84V45.462l9.685 2.396zM22.79 38.857l9.684 1.233V23.947l-9.684 1.215z"/><path fill="#5E1F18" d="m42.16 18.539-9.686 1.765-9.684-1.765 9.684-2.397z"/><path fill="#F2B0A9" d="m42.16 45.462-9.686-1.777-9.684 1.777 9.684 2.412z"/></svg>