<svg xmlns="http://www.w3.org/2000/svg" width="64" height="64" fill="none"><path fill="#0072C6" d="M0 8.266 35.207 2c.012 20 0 40 0 60C23.479 59.931 11.752 57.827 0 55.758zm11.728 13.542c-1.44 1.695-1.887 4.04-1.62 6.193.217 1.876 1.269 3.596 2.696 4.787 1.305 1.106 2.974 1.78 4.147 3.079.882.974 1.1 2.597.217 3.644-.701.841-1.91.901-2.901.733-1.669-.24-3.083-1.263-4.184-2.501l.012 5.183c1.62 1.227 3.712 1.66 5.707 1.648 1.415-.036 2.853-.361 4.002-1.215 1.439-1.046 2.273-2.754 2.478-4.486.29-2.02-.048-4.197-1.305-5.857-1.1-1.383-2.576-2.393-4.075-3.283-.81-.493-1.62-1.022-2.164-1.816-.64-1.082-.617-2.622.326-3.512.786-.757 1.983-.818 3.01-.697 1.258.132 2.443.697 3.422 1.467v-5.147c-1.632-.662-3.445-.734-5.174-.602-1.753.229-3.47 1.023-4.594 2.382m26.888-9.754c1.21-1.178 2.89-1.9 4.595-1.744 2.43.133 4.57 2.02 5.174 4.342.242.878.254 1.792.109 2.682 3.917 1.611 7.109 4.895 8.62 8.84 1.717-.325 3.579.168 4.873 1.346 2.043 1.744 2.6 4.907 1.354 7.288-1.113 2.237-3.772 3.572-6.239 3.067-1.511 3.933-4.667 7.216-8.584 8.815.339 1.937-.254 4.017-1.668 5.412-1.463 1.504-3.82 2.057-5.816 1.383-.907-.312-1.753-.818-2.394-1.54v-8.261c1.137-1.179 2.757-1.9 4.401-1.816 1.56.036 3.01.817 4.063 1.912 3.3-1.299 5.948-4.053 7.157-7.372-.98-1.01-1.68-2.31-1.826-3.717-.241-1.864.52-3.752 1.826-5.063-1.209-3.33-3.869-6.11-7.194-7.408a5.8 5.8 0 0 1-3.736 1.936c-1.74.193-3.494-.553-4.715-1.78z"/></svg>