<svg xmlns="http://www.w3.org/2000/svg" width="64" height="64" fill="none"><g clip-path="url(#a)"><path fill="#5059C9" d="M44.64 24.246h16.532A2.83 2.83 0 0 1 64 27.074V42.13c0 5.74-4.653 10.394-10.393 10.394h-.05c-5.74 0-10.393-4.652-10.394-10.392V25.724c0-.817.662-1.478 1.478-1.478M55.814 21.269a6.698 6.698 0 1 0 0-13.395 6.698 6.698 0 0 0 0 13.395"/><path fill="#7B83EB" d="M34.977 21.269c5.343 0 9.674-4.331 9.674-9.675 0-5.343-4.331-9.674-9.674-9.674s-9.675 4.331-9.675 9.674c0 5.344 4.332 9.675 9.675 9.675M47.877 24.246H20.589a2.8 2.8 0 0 0-2.729 2.862v17.174c-.215 9.261 7.112 16.946 16.373 17.173 9.26-.227 16.587-7.912 16.372-17.173V27.108a2.8 2.8 0 0 0-2.728-2.862"/><path fill="#000" d="M35.72 24.246v24.067a2.74 2.74 0 0 1-1.696 2.515 2.6 2.6 0 0 1-1.027.208H19.17a18 18 0 0 1-.52-1.488 18.1 18.1 0 0 1-.79-5.269V27.103a2.794 2.794 0 0 1 2.724-2.857z" opacity=".1"/><path fill="#000" d="M34.233 24.246V49.8c0 .353-.071.702-.209 1.027a2.74 2.74 0 0 1-2.515 1.697h-11.64a19 19 0 0 1-.699-1.489 15 15 0 0 1-.52-1.488 18.1 18.1 0 0 1-.79-5.269V27.103a2.794 2.794 0 0 1 2.724-2.857z" opacity=".2"/><path fill="#000" d="M34.233 24.246v22.578a2.744 2.744 0 0 1-2.724 2.724h-12.86a18.1 18.1 0 0 1-.789-5.269V27.103a2.794 2.794 0 0 1 2.724-2.857z" opacity=".2"/><path fill="#000" d="M32.744 24.246v22.578a2.744 2.744 0 0 1-2.724 2.724H18.65a18.1 18.1 0 0 1-.79-5.269V27.103a2.794 2.794 0 0 1 2.724-2.857z" opacity=".2"/><path fill="#000" d="M35.72 16.55v4.69c-.252.014-.49.029-.743.029s-.491-.015-.744-.03q-.756-.05-1.489-.238a9.67 9.67 0 0 1-6.697-5.686 8.3 8.3 0 0 1-.477-1.488h7.427a2.734 2.734 0 0 1 2.724 2.724" opacity=".1"/><path fill="#000" d="M34.233 18.04v3.2q-.756-.051-1.489-.239a9.68 9.68 0 0 1-6.697-5.686h5.462a2.734 2.734 0 0 1 2.724 2.724" opacity=".2"/><path fill="#000" d="M34.233 18.04v3.2q-.756-.051-1.489-.239a9.68 9.68 0 0 1-6.697-5.686h5.462a2.734 2.734 0 0 1 2.724 2.724" opacity=".2"/><path fill="#000" d="M32.744 18.04V21a9.67 9.67 0 0 1-6.697-5.685h3.973a2.734 2.734 0 0 1 2.724 2.724" opacity=".2"/><path fill="url(#b)" d="M2.728 15.315h27.288a2.73 2.73 0 0 1 2.728 2.729V45.33a2.73 2.73 0 0 1-2.728 2.728H2.728A2.73 2.73 0 0 1 0 45.332V18.044a2.73 2.73 0 0 1 2.728-2.729"/><path fill="#fff" d="M23.552 25.701h-5.455v14.854h-3.475V25.701h-5.43V22.82h14.36z"/></g><defs><linearGradient id="b" x1="5.688" x2="27.056" y1="13.184" y2="50.191" gradientUnits="userSpaceOnUse"><stop stop-color="#5A62C3"/><stop offset=".5" stop-color="#4D55BD"/><stop offset="1" stop-color="#3940AB"/></linearGradient><clipPath id="a"><path fill="#fff" d="M0 1.92h64v59.535H0z"/></clipPath></defs></svg>