<svg fill="none" height="100" viewBox="0 0 100 100" width="100" xmlns="http://www.w3.org/2000/svg"><g fill="#03363d"><path d="m46.1924 32.8712v52.5618h-46.1924z"/><path d="m46.1924 14c0 5.7732-2.4333 11.31-6.7647 15.3924-4.3314 4.0822-10.206 6.3757-16.3315 6.3757-6.1256 0-12.0001-2.2935-16.33147-6.3757-4.33139-4.0824-6.76473-9.6192-6.76473-15.3924z"/><path d="m53.8026 85.425c0-5.7732 2.4334-11.31 6.7648-15.3923 4.3313-4.0823 10.2059-6.3757 16.3314-6.3757 6.1256 0 12.0001 2.2934 16.3315 6.3757 4.3315 4.0823 6.7647 9.6191 6.7647 15.3923z"/><path d="m53.8026 66.5618v-52.5618h46.1974z"/></g></svg>