<svg xmlns="http://www.w3.org/2000/svg" width="64" height="64" fill="none"><g clip-path="url(#a)"><path fill="url(#b)" d="M0 21.12C0 9.456 9.456 0 21.12 0h21.76C54.544 0 64 9.456 64 21.12v21.76C64 54.544 54.544 64 42.88 64H21.12C9.456 64 0 54.544 0 42.88z"/><path fill="#fff" d="M14.208 24.32a2.304 2.304 0 0 1 2.304-2.304h17.216a6.144 6.144 0 0 1 6.144 6.144v11.52a2.304 2.304 0 0 1-2.304 2.304H20.352a6.144 6.144 0 0 1-6.144-6.144zM41.216 29.462a3.87 3.87 0 0 1 1.392-2.969l4.297-3.565c1.632-1.354 2.951-.729 2.951 1.392v15.36c0 2.12-1.319 2.746-2.951 1.392l-4.297-3.565a3.87 3.87 0 0 1-1.392-2.969z"/></g><defs><linearGradient id="b" x1="32" x2="32" y1="-70.462" y2="134.051" gradientUnits="userSpaceOnUse"><stop stop-color="#57A2FF"/><stop offset="1" stop-color="#3C82FB"/></linearGradient><clipPath id="a"><path fill="#fff" d="M0 0h64v64H0z"/></clipPath></defs></svg>