<?xml version="1.0" encoding="UTF-8"?>
<svg width="84px" height="86px" viewBox="0 0 84 86" version="1.1" xmlns="http://www.w3.org/2000/svg" xmlns:xlink="http://www.w3.org/1999/xlink">
    <!-- Generator: Sketch 48.2 (47327) - http://www.bohemiancoding.com/sketch -->
    <title>Combined Shape</title>
    <desc>Created with Sketch.</desc>
    <defs></defs>
    <g id="Icon" stroke="none" stroke-width="1" fill="none" fill-rule="evenodd" transform="translate(-10.000000, -7.000000)">
        <path d="M14,7 L90,7 C92.209139,7 94,8.790861 94,11 L94,27 C94,29.209139 92.209139,31 90,31 L14,31 C11.790861,31 10,29.209139 10,27 L10,11 C10,8.790861 11.790861,7 14,7 Z M83,24 C85.7614237,24 88,21.7614237 88,19 C88,16.2385763 85.7614237,14 83,14 C80.2385763,14 78,16.2385763 78,19 C78,21.7614237 80.2385763,24 83,24 Z M68,24 C70.7614237,24 73,21.7614237 73,19 C73,16.2385763 70.7614237,14 68,14 C65.2385763,14 63,16.2385763 63,19 C63,21.7614237 65.2385763,24 68,24 Z M23,13 C20.790861,13 19,14.790861 19,17 L19,20 C19,22.209139 20.790861,24 23,24 L48,24 C50.209139,24 52,22.209139 52,20 L52,17 C52,14.790861 50.209139,13 48,13 L23,13 Z M14,38 L90,38 C92.209139,38 94,39.790861 94,42 L94,58 C94,60.209139 92.209139,62 90,62 L14,62 C11.790861,62 10,60.209139 10,58 L10,42 C10,39.790861 11.790861,38 14,38 Z M83,55 C85.7614237,55 88,52.7614237 88,50 C88,47.2385763 85.7614237,45 83,45 C80.2385763,45 78,47.2385763 78,50 C78,52.7614237 80.2385763,55 83,55 Z M68,55 C70.7614237,55 73,52.7614237 73,50 C73,47.2385763 70.7614237,45 68,45 C65.2385763,45 63,47.2385763 63,50 C63,52.7614237 65.2385763,55 68,55 Z M23,44 C20.790861,44 19,45.790861 19,48 L19,51 C19,53.209139 20.790861,55 23,55 L48,55 C50.209139,55 52,53.209139 52,51 L52,48 C52,45.790861 50.209139,44 48,44 L23,44 Z M14,69 L90,69 C92.209139,69 94,70.790861 94,73 L94,89 C94,91.209139 92.209139,93 90,93 L14,93 C11.790861,93 10,91.209139 10,89 L10,73 C10,70.790861 11.790861,69 14,69 Z M83,86 C85.7614237,86 88,83.7614237 88,81 C88,78.2385763 85.7614237,76 83,76 C80.2385763,76 78,78.2385763 78,81 C78,83.7614237 80.2385763,86 83,86 Z M68,86 C70.7614237,86 73,83.7614237 73,81 C73,78.2385763 70.7614237,76 68,76 C65.2385763,76 63,78.2385763 63,81 C63,83.7614237 65.2385763,86 68,86 Z M23,75 C20.790861,75 19,76.790861 19,79 L19,82 C19,84.209139 20.790861,86 23,86 L48,86 C50.209139,86 52,84.209139 52,82 L52,79 C52,76.790861 50.209139,75 48,75 L23,75 Z" id="Combined-Shape" fill="#FFFFFF"></path>
    </g>
</svg>