<?xml version="1.0" encoding="UTF-8"?>
<svg width="705px" height="684px" viewBox="0 0 705 684" version="1.1" xmlns="http://www.w3.org/2000/svg" xmlns:xlink="http://www.w3.org/1999/xlink">
    <!-- Generator: Sketch 48.2 (47327) - http://www.bohemiancoding.com/sketch -->
    <title>k8</title>
    <desc>Created with Sketch.</desc>
    <defs></defs>
    <g id="Page-1" stroke="none" stroke-width="1" fill="none" fill-rule="evenodd">
        <g id="k8" transform="translate(1.000000, 1.000000)" fill-rule="nonzero" stroke="#FFFFFF">
            <path d="M348.986406,0.0601 C342.773022,0.373099241 336.685225,1.91364132 331.080156,4.59135 L86.7364058,121.34135 C73.9254617,127.459483 64.6204493,139.030364 61.4551558,152.77885 L1.1739058,415.02885 C-1.63835525,427.236236 0.649916048,440.05281 7.5176558,450.5601 C8.34190884,451.831496 9.22838522,453.062134 10.1739058,454.2476 L179.298906,664.52885 C188.166865,675.551158 201.612381,681.96912 215.830156,681.96635 L487.048906,681.90385 C501.261363,681.914208 514.705931,675.508199 523.580156,664.4976 L692.642656,454.1851 C701.51536,443.157268 704.839681,428.721202 701.673906,414.96635 L641.298906,152.71635 C638.133612,138.967864 628.8286,127.396983 616.017656,121.27885 L371.642656,4.59135 C364.592323,1.22300487 356.801915,-0.335076788 348.986406,0.0601 Z" id="path3055" fill="#0379A5"></path>
            <path d="M351.407566,89.30722 C343.330606,89.30804 336.781606,96.58313 336.782566,105.55722 C336.782576,105.69495 336.810766,105.82656 336.813766,105.96347 C336.801866,107.18283 336.742966,108.65183 336.782566,109.71347 C336.975186,114.88947 338.103466,118.85096 338.782566,123.61972 C340.012846,133.82638 341.043736,142.28708 340.407566,150.15097 C339.788876,153.11637 337.604686,155.82838 335.657566,157.71347 L335.313816,163.90097 C326.536996,164.62814 317.701466,165.95971 308.876316,167.96347 C270.901706,176.58565 238.206236,196.14654 213.313816,222.55722 C211.698596,221.45529 208.872786,219.42808 208.032516,218.80722 C205.421346,219.15984 202.782306,219.96551 199.345016,217.96347 C192.800106,213.55784 186.839146,207.47654 179.626266,200.15097 C176.321286,196.64678 173.927946,193.30996 170.001266,189.93222 C169.109546,189.16515 167.748686,188.12767 166.751266,187.33847 C163.681386,184.8909 160.060566,183.61445 156.563766,183.49472 C152.067876,183.34078 147.739826,185.09857 144.907516,188.65097 C139.872306,194.96635 141.484396,204.61902 148.501266,210.21347 C148.572466,210.27017 148.648286,210.31425 148.720016,210.36972 C149.684236,211.15134 150.864976,212.15285 151.751266,212.80722 C155.918136,215.88377 159.724466,217.45867 163.876266,219.90097 C172.623266,225.30278 179.874636,229.78183 185.626266,235.18222 C187.872286,237.57639 188.264846,241.79514 188.563766,243.61972 L193.251266,247.80722 C168.157846,285.5709 156.544406,332.21668 163.407566,379.74472 L157.282566,381.52597 C155.668266,383.61058 153.387156,386.89071 151.001266,387.86972 C143.476136,390.23993 135.007026,391.11031 124.782516,392.18222 C119.982206,392.58137 115.840336,392.34317 110.751266,393.30722 C109.631186,393.5194 108.070546,393.92599 106.845016,394.21347 C106.802416,394.22247 106.762616,394.23507 106.720016,394.24467 C106.653216,394.26017 106.565456,394.29257 106.501266,394.30717 C97.8811258,396.38996 92.3435258,404.31317 94.1262658,412.11967 C95.9094258,419.928 104.329406,424.67644 113.001266,422.80717 C113.063866,422.79287 113.154766,422.79047 113.220016,422.77597 C113.317916,422.75357 113.404106,422.70607 113.501266,422.68227 C114.710116,422.41691 116.225036,422.12167 117.282516,421.83852 C122.285856,420.49889 125.909456,418.53056 130.407516,416.80727 C140.084456,413.3365 148.099246,410.43705 155.907516,409.30727 C159.168696,409.05185 162.604626,411.31943 164.313766,412.27602 L170.688766,411.18227 C185.358946,456.66509 216.102926,493.42729 255.032516,516.49477 L252.376266,522.86977 C253.333686,525.34519 254.389676,528.69447 253.676486,531.13909 C250.837806,538.50029 245.975516,546.27006 240.438766,554.93227 C237.757916,558.93419 235.014236,562.03988 232.595016,566.61977 C232.016116,567.71566 231.278836,569.39909 230.720016,570.55727 C226.961176,578.59963 229.718376,587.86247 236.938766,591.33852 C244.204516,594.8364 253.223236,591.14718 257.126266,583.08852 C257.132266,583.07712 257.151966,583.06872 257.157466,583.05732 C257.161466,583.04832 257.153466,583.03482 257.157466,583.02612 C257.713396,581.88357 258.500996,580.38175 258.969966,579.30737 C261.042096,574.56035 261.731576,570.49231 263.188716,565.90112 C267.058336,556.18098 269.184386,545.98209 274.511296,539.62701 C275.969976,537.88678 278.348106,537.21751 280.813716,536.55737 L284.126216,530.55737 C318.064456,543.58417 356.052876,547.07983 394.001216,538.46362 C402.658186,536.49805 411.015656,533.95417 419.094966,530.90112 C420.025946,532.55245 421.756096,535.72682 422.219966,536.52612 C424.725556,537.3413 427.460406,537.76226 429.688716,541.05737 C433.674106,547.86635 436.399616,555.92153 439.719966,565.65112 C441.177346,570.24223 441.897586,574.31045 443.969966,579.05737 C444.442306,580.13932 445.225966,581.66223 445.782466,582.80737 C449.677286,590.89221 458.724586,594.59404 466.001216,591.08862 C473.220716,587.61072 475.980956,578.34872 472.219966,570.30737 C471.661076,569.14923 470.892666,567.46573 470.313716,566.36987 C467.894256,561.79011 465.151016,558.71539 462.469966,554.71362 C456.932756,546.0517 452.340286,538.85592 449.501216,531.49487 C448.314106,527.6983 449.701496,525.33713 450.626216,522.86987 C450.072436,522.2351 448.887406,518.64978 448.188716,516.96362 C488.646116,493.07546 518.487276,454.94233 532.501216,410.90112 C534.393616,411.19854 537.682756,411.78048 538.751216,411.99487 C540.950756,410.54417 542.973156,408.65135 546.938716,408.96362 C554.747036,410.09299 562.761596,412.99335 572.438716,416.46362 C576.936866,418.18668 580.560316,420.18675 585.563716,421.52612 C586.621206,421.80921 588.136096,422.07332 589.344966,422.33862 C589.442166,422.36242 589.528266,422.41002 589.626216,422.43232 C589.691516,422.44692 589.782366,422.44922 589.844966,422.46352 C598.517326,424.33047 606.938806,419.58481 608.719966,411.77602 C610.500706,403.96906 604.965666,396.04401 596.344966,393.96352 C595.091036,393.67839 593.312716,393.19414 592.094966,392.96352 C587.005846,391.99974 582.864046,392.23742 578.063716,391.83852 C567.839156,390.76714 559.370216,389.89583 551.844966,387.52602 C548.776706,386.33574 546.593936,382.68478 545.532416,381.18227 L539.626166,379.46352 C542.688426,357.3091 541.862716,334.25218 536.563666,311.18227 C531.215276,287.89756 521.763296,266.60143 509.157416,247.83852 C510.672466,246.46123 513.533606,243.92761 514.344916,243.18227 C514.582076,240.5581 514.378316,237.80674 517.094916,234.90102 C522.846256,229.50033 530.098206,225.02204 538.844916,219.61977 C542.996586,217.17725 546.834456,215.60279 551.001166,212.52602 C551.943416,211.83026 553.230066,210.72843 554.219916,209.93227 C561.235296,204.33594 562.850496,194.68385 557.813666,188.36977 C552.776836,182.05569 543.016546,181.46094 536.001166,187.05727 C535.002606,187.84812 533.647636,188.87979 532.751166,189.65102 C528.824666,193.02898 526.399716,196.36541 523.094916,199.86977 C515.882426,207.19572 509.920846,213.30754 503.376166,217.71352 C500.540156,219.36458 496.386206,218.7933 494.501116,218.68227 L488.938616,222.65102 C457.219816,189.39045 414.033956,168.12556 367.532566,163.99472 C367.402506,162.046 367.232116,158.52355 367.188816,157.46347 C365.285106,155.64182 362.985396,154.08661 362.407566,150.15097 C361.771396,142.28708 362.833536,133.82638 364.063816,123.61972 C364.742916,118.85096 365.871196,114.88947 366.063816,109.71347 C366.107616,108.53684 366.037316,106.82946 366.032616,105.55722 C366.031656,96.58313 359.484576,89.3064 351.407616,89.30722 L351.407566,89.30722 Z M333.095066,202.74472 L328.751316,279.46347 L328.438816,279.61972 C328.147476,286.48307 322.498856,291.96347 315.563816,291.96347 C312.723006,291.96347 310.100876,291.05118 307.970066,289.49472 L307.845066,289.55722 L244.938816,244.96347 C264.272466,225.95232 289.001726,211.90308 317.501316,205.43222 C322.707306,204.25019 327.910976,203.37312 333.095066,202.74472 Z M369.751316,202.74472 C403.024786,206.83704 433.796326,221.90354 457.376316,244.99472 L394.876316,289.30722 L394.657566,289.21352 C389.110116,293.26521 381.294136,292.25991 376.970066,286.83852 C375.198746,284.61756 374.269346,282.00613 374.157566,279.36977 L374.095066,279.33857 L369.751316,202.74472 Z M222.126316,273.61972 L279.563816,324.99472 L279.501316,325.30722 C284.685686,329.81419 285.450196,337.63516 281.126316,343.05722 C279.355116,345.27827 276.984236,346.76796 274.438816,347.46347 L274.376316,347.71347 L200.751316,368.96347 C197.004036,334.6983 205.079866,301.38983 222.126316,273.61972 Z M480.282566,273.65092 C488.816666,287.48348 495.279116,302.93306 499.126316,319.68217 C502.927376,336.23045 503.881306,352.74914 502.313816,368.71342 L428.313816,347.40092 L428.251316,347.08842 C421.624816,345.27738 417.552386,338.5368 419.095066,331.77592 C419.727096,329.0063 421.197286,326.66328 423.188816,324.93217 L423.157616,324.77592 L480.282616,273.65092 L480.282566,273.65092 Z M339.626316,328.96342 L363.157566,328.96342 L377.782566,347.24467 L372.532566,370.05717 L351.407566,380.21342 L330.220066,370.02592 L324.970066,347.21342 L339.626316,328.96342 Z M415.063816,391.52592 C416.063786,391.47542 417.059396,391.56552 418.032566,391.74467 L418.157566,391.58842 L494.313816,404.46342 C483.168316,435.77652 461.841006,462.9036 433.345066,481.05717 L403.782566,409.65092 L403.876266,409.52592 C401.160656,403.21593 403.878266,395.81636 410.126266,392.80717 C411.725916,392.03676 413.397156,391.61016 415.063766,391.52592 L415.063816,391.52592 Z M287.157566,391.83842 C292.969306,391.91992 298.182186,395.95367 299.532566,401.86967 C300.164756,404.63925 299.857066,407.38342 298.813816,409.80717 L299.032566,410.08842 L269.782566,480.77592 C242.435406,463.22732 220.653296,436.95189 209.001316,404.71347 L284.501316,391.90097 L284.626316,392.05722 C285.470826,391.90181 286.327316,391.82682 287.157566,391.83847 L287.157566,391.83842 Z M350.938816,422.80722 C352.963266,422.73282 355.017466,423.1482 356.970066,424.08847 C359.529576,425.321 361.506796,427.26166 362.751316,429.58847 L363.032566,429.58847 L400.251316,496.83847 C395.421026,498.4577 390.455226,499.84155 385.376316,500.99472 C356.911786,507.45762 328.537696,505.49939 302.845066,496.74472 L339.970066,429.61972 L340.032566,429.61972 C342.260236,425.45531 346.485036,422.97085 350.938816,422.80722 Z" id="path3059" stroke-width="0.25" fill="#FFFFFF"></path>
        </g>
    </g>
</svg>