<?xml version="1.0" encoding="UTF-8"?>
<svg width="32px" height="29px" viewBox="0 0 32 29" version="1.1" xmlns="http://www.w3.org/2000/svg" xmlns:xlink="http://www.w3.org/1999/xlink">
    <title>Shape</title>
    <desc>Created with Sketch.</desc>
    <defs></defs>
    <g id="icon/apps/color/services" stroke="none" stroke-width="1" fill="none" fill-rule="evenodd" transform="translate(0.000000, -3.000000)">
        <path d="M0.189473684,21.5263158 L9.47368421,21.5263158 L9.47368421,13 L0,13 L0.189473684,21.5263158 Z M11.1800003,11.5263158 L20.4642108,11.5263158 L20.4642108,3 L11.1800003,3 L11.1800003,11.5263158 Z M22.3578947,31.9894737 L31.8315789,31.9894737 L31.8315789,23.4631579 L22.3578947,23.4631579 L22.3578947,31.9894737 Z M11.1789474,31.9894737 L20.6526316,31.9894737 L20.6526316,23.4631579 L11.1789474,23.4631579 L11.1789474,31.9894737 Z M0,31.9894737 L9.47368421,31.9894737 L9.47368421,23.4631579 L0.189473684,23.4631579 L0,31.9894737 Z M11.1789474,21.7578947 L20.6526316,21.7578947 L20.6526316,13.2315789 L11.1789474,13.2315789 L11.1789474,21.7578947 Z M22.3600006,21.7578947 L31.8336848,21.7578947 L31.8336848,13.2315789 L22.3600006,13.2315789 L22.3600006,21.7578947 Z M22.3600006,11.5263158 L31.6442111,11.5263158 L31.6442111,3 L22.3600006,3 L22.3600006,11.5263158 Z" id="Shape" fill="#0379a5" fill-rule="nonzero"></path>
    </g>
</svg>