<svg xmlns="http://www.w3.org/2000/svg" width="16" height="17" fill="none"><path fill="#000" d="M9.14 11.628a.5.5 0 0 1 .722.692l-.362-.344.361.345v.001l-.003.001-.004.005a.672.672 0 0 1-.04.038 2.341 2.341 0 0 1-.457.315C9.045 12.845 8.591 13 8 13c-.59 0-1.045-.155-1.357-.32a2.341 2.341 0 0 1-.457-.314 1.357 1.357 0 0 1-.04-.038l-.004-.005H6.14l-.002-.003a.5.5 0 0 1 .721-.692l.002.002a1.347 1.347 0 0 0 .246.165c.188.098.484.205.893.205.409 0 .705-.107.893-.205a1.347 1.347 0 0 0 .246-.165l.002-.002ZM6 8.5a1 1 0 1 1 0 2 1 1 0 0 1 0-2ZM10 8.5a1 1 0 1 1 0 2 1 1 0 0 1 0-2Z"/><path fill="#000" fill-rule="evenodd" d="M8 1.5a1.5 1.5 0 0 1 .5 2.912V5.5H10a3 3 0 0 1 3 3h1l.102.005A1 1 0 0 1 15 9.5v3a1 1 0 0 1-1 1h-1v1a1 1 0 0 1-1 1H4a1 1 0 0 1-1-1v-1H2a1 1 0 0 1-1-1v-3a1 1 0 0 1 1-1h1a3 3 0 0 1 3-3h1.5V4.412A1.498 1.498 0 0 1 8 1.5Zm-2 5a2 2 0 0 0-2 2v6h8v-6a2 2 0 0 0-1.796-1.99L10 6.5H6Zm-4 6h1v-3H2v3Zm11 0h1v-3h-1v3Zm-5-10a.5.5 0 1 0 0 1 .5.5 0 0 0 0-1Z" clip-rule="evenodd"/></svg>