<svg class="euiIcon euiIcon--xLarge" xmlns="http://www.w3.org/2000/svg" width="16" height="16" viewBox="0 0 32 32" fill="white">
	<path class="euiIcon__fillSecondary" d="M15 24.24L3.86 2 15 6.91 26.14 2 15 24.24zM8.14 6L15 19.76 21.86 6 15 9.09 8.14 6z">
	</path>
	<path d="M30 25.06V25a2.55 2.55 0 0 0-.1-.37c-.49-1.27-2-2.35-4.41-3.15h-.06l-.69-.21-.18-.05-.68-.22-.31-.08-.57-.12-.44-.1-.48-.09-.51-.09-1-.15-.27 2c.64.09 1.24.19 1.8.3 3.78.75 5.63 1.95 5.86 2.7a.57.57 0 0 1 0 .16c0 1.39-5.18 3.5-13 3.5S2 26.89 2 25.5c0-.82 2.22-2.32 7.14-3.08l-.3-2-.54.09C5.43 21 0 22.37 0 25.5 0 29.11 7.55 31 15 31s15-1.89 15-5.5a2.5 2.5 0 0 0 0-.44z">
	</path>
</svg>
