<svg class="euiIcon euiIcon--xLarge" xmlns="http://www.w3.org/2000/svg" width="16" height="16" viewBox="0 0 16 16" fill="white"><path d="M15.18 11.551L11.278 7.65a.377.377 0 0 0-.546 0 .377.377 0 0 0 0 .546l3.902 3.903a1.837 1.837 0 0 1 0 2.575c-.351.351-.82.547-1.288.547-.468 0-.936-.196-1.287-.547L7.18 9.834c1.366-.585 2.381-1.756 2.81-3.2a4.688 4.688 0 0 0 .156-1.639C9.99 2.575 7.961.546 5.541.39 4.722.351 3.941.507 3.2.82c-.078.078-.156.156-.195.312-.04.117 0 .234.117.312l2.732 2.77c.468.469.468 1.21 0 1.679-.469.429-1.25.429-1.678 0L1.444 3.122c-.117-.078-.234-.117-.351-.078a.485.485 0 0 0-.313.234 4.507 4.507 0 0 0-.429 2.146c.04 2.342 1.834 4.371 4.098 4.722.273.04.546.078.82.078.35 0 .74-.039 1.092-.117l5.151 5.113c.508.507 1.132.78 1.834.78.703 0 1.366-.273 1.834-.78a2.59 2.59 0 0 0 0-3.669zM6.322 9.288a3.801 3.801 0 0 1-1.756.078c-1.912-.312-3.395-1.99-3.434-3.942 0-.429.039-.858.156-1.287l2.341 2.302c.39.39.859.585 1.405.585S6.05 6.83 6.44 6.44c.78-.78.78-2.03 0-2.81L4.098 1.327c.429-.117.936-.156 1.404-.156 2.03.117 3.747 1.795 3.864 3.863.039.468 0 .937-.156 1.366A4.18 4.18 0 0 1 6.36 9.249c0 .039 0 .039-.039.039z"></path><path d="M12.722 13.932a1.15 1.15 0 0 1-1.17-1.171c0-.663.507-1.17 1.17-1.17.663 0 1.17.507 1.17 1.17 0 .624-.507 1.17-1.17 1.17z"></path></svg>
