<svg version="1.1" id="Layer_1" xmlns:x="ns_extend;" xmlns:i="ns_ai;" xmlns:graph="ns_graphs;" xmlns="http://www.w3.org/2000/svg" xmlns:xlink="http://www.w3.org/1999/xlink" x="0px" y="0px" viewBox="0 0 116.4 88.8" style="enable-background:new 0 0 116.4 88.8;" xml:space="preserve">
 <style type="text/css">
  .st0{fill-rule:evenodd;clip-rule:evenodd;fill:#FC0000;}
 </style>
 <metadata>
  <sfw xmlns="ns_sfw;">
   <slices>
   </slices>
   <sliceSourceBounds bottomLeftOrigin="true" height="88.7" width="116.4" x="0" y="0.1">
   </sliceSourceBounds>
  </sfw>
 </metadata>
 <desc>
  Created with Sketch.
 </desc>
 <g id="Page-1">
  <g id="Home-v4.1" transform="translate(-26.000000, -22.000000)">
   <g id="CS-Logo" transform="translate(26.000000, 22.000000)">
    <path id="Fill-110" class="st0" d="M113.3,71.7c-2.6-0.2-7.1-0.8-12.9,1.8c-5.7,2.7-8,2.8-10.8,2.5c0.8,1.4,2.5,3.3,7.7,3.7
				c5.2,0.3,7.8,0.5,5,6.6c0.1-1.8-0.4-5.4-5.6-4.8s-6.4,5-0.8,7.1c-1.8,0.3-5.7,0.5-8.4-6.1c-1.9,0.8-4.8,2.3-10.2-1.5
				c1.9,0.6,4.2,0.7,4.2,0.7c-4.7-2.1-9.3-6-12.1-9.7c2.3,1.6,4.8,3.2,7.4,3.5c-3-3.4-10-10.3-18.6-17.3c5.5,3.3,12.2,8.6,23,7.4
				C92.1,64.4,99.4,62.1,113.3,71.7">
    </path>
    <path id="Fill-112" class="st0" d="M67.4,70.4c-7.3-2.7-8.8-3.3-18.2-5.3c-9.3-2.1-18.5-6.3-24.7-13c4.3,2.8,13.2,8.3,22.3,7.7
				c-1.4-1.8-3.9-3.1-7-4.5C43.2,56,53.6,58.3,67.4,70.4">
    </path>
    <path id="Fill-118" class="st0" d="M104.1,64.3c6.4,0.6,6.1,1.5,6.1,3.1C107.5,65.4,104.1,64.3,104.1,64.3 M65.5,31.2
				C37.9,23.3,26.9,13.4,18.4,3.1c3.9,11.9,13.1,16.2,23,24.2s10.5,12.3,13.4,17.1c6.5,10.6,7.5,12.3,14,16.9
				c7.6,5,16.8,1.6,26.9,3.2s18.4,9.2,20.2,12.1c2.1-3.7-2.9-9.1-4.3-10.5c0.7-4.9-10.9-7.1-15.4-8.7c-0.9-0.3-3-0.8-1.2-5.2
				C97.5,46.1,100.2,40.8,65.5,31.2">
    </path>
    <path id="Fill-114" class="st0" d="M52.1,45.9c-1.8-4.9-4.9-11.1-19.9-20.4C24.8,20.8,14.1,15,0,0c1,4,5.5,14.5,27.9,28.2
				C35.3,33.1,44.9,36.1,52.1,45.9">
    </path>
    <path id="Fill-116" class="st0" d="M52.1,55.1c-1.7-4.1-5.3-9.4-19-16.9c-6.4-3.6-17.2-9.2-27-19.8C7,22.2,11.5,30.6,31,41.1
				C36.4,44.2,45.5,47,52.1,55.1">
    </path>
   </g>
  </g>
 </g>
</svg>