<svg width="80" height="108" fill="none" xmlns="http://www.w3.org/2000/svg"><mask id="a" style="mask-type:alpha" maskUnits="userSpaceOnUse" x="0" y="0" width="80" height="108"><path d="M80 0H0v108h80V0Z" fill="#C4C4C4"/></mask><g mask="url(#a)"><path d="M64.607 22.41c-.166.172-.166.345-.166.518v.173c.331-.288.718-.519 1.049-.807-.331 0-.718-.115-.883.116ZM78.897 13.999c-.055-.115-.165-.173-.22-.23-.607-.346-1.214 0-1.214.69 0 .346.055.692.11 1.037.552-.23 1.104-.46 1.655-.633a2.787 2.787 0 0 0-.33-.864ZM71.944 17.855c-.33.116-.772.116-.772.634v.115c.33-.172.607-.345.938-.518a.793.793 0 0 1-.166-.23ZM42.924 38.363c-.11.173-.055.403-.055.518.331.346.662.346.773.115.11-.23.11-.518.055-.748-.166-.23-.662-.173-.773.115ZM43.696 47.807c-.221.23-.276.749-.055.979.22.23.606.23.827-.058.22-.288.276-.69.055-.864-.165-.288-.552-.288-.827-.057ZM45.518 43.258c.166-.23.22-.46.055-.69-.441-.52-.938-.98-1.655-1.21-.11-.058-.276 0-.331 0-.662.172-.883.864-.441 1.382.276.346.606.576.993.806.386.346 1.103.116 1.38-.288ZM64.441 18.031c.166-.115-.055-.403-.11-.403-.11-.058-.276-.115-.386.058-.11.172-.056.288 0 .345.165.058.33.173.496 0ZM42.372 56.911c.166.116.387.058.552.116.22-.346.166-.692-.055-.922-.22-.173-.386-.058-.552.115-.165.23-.165.576.055.691ZM41.38 49.191c-.166.288-.497.576-.166.98.22.23.497.345.772.115a.696.696 0 0 0 .276-.519c0-.345-.276-.46-.883-.576ZM45.077 46.313c-.055-.346-.552-.691-.938-.346-.165.116-.276.461-.276.692 0 .172.276.403.442.46.441.116.827-.403.772-.806ZM53.186 34.392c-.055.172-.055.287 0 .403.22-.288.386-.576.607-.807-.331 0-.552.173-.607.404ZM43.089 52.243c.276.288.662.345.883.057.22-.288.33-1.037.11-1.267-.331-.346-.828-.288-1.214.058-.276.288-.165.748.22 1.152ZM53.352 32.373a.574.574 0 0 0 0-.807c-.22-.23-.607-.288-.828 0-.22.23-.22.691.056.922.22.115.551.115.772-.115ZM56 30.587c-.276-.23-.497-.116-.718.115-.22.288-.22.69 0 .864.056.057.11.057.221.115.22-.288.442-.518.662-.806 0-.058-.055-.173-.165-.288ZM51.696 34.332c.497-.461.221-1.095.055-1.383-.165-.345-.938-.172-1.213.346-.166.288-.11.576.11.806.22.346.772.461 1.048.23ZM48.498 42.222c.331-.404.276-1.268-.11-1.498-.276-.23-.828-.058-1.048.23-.332.404-.332.864.11 1.21.386.288.827.346 1.048.058ZM58.32 26.035c-.221.173-.332.807-.166 1.037.11.23.662.288.938.058.22-.173.276-.46.055-.691-.331-.404-.662-.576-.828-.404ZM61.075 21.428c.276-.288.276-.634.056-.864-.221-.288-1.104-.288-1.324-.058-.332.346-.276.749.165 1.152.386.288.773.23 1.103-.23ZM63.888 16.709c.056.058.166.058.331 0 0 .115-.055.23-.055.288.055.518.828 1.267 1.324 1.21.331 0 .662-.288.828-.692 0 .116.055.23.11.346-.165.403-.33.749-.441 1.094-.11.346.276.692.552.519.33-.23.827-.346.993-.864-.055-.173-.166-.403-.22-.576.275-.519.33-1.037.054-1.267-.22-.173-.441-.173-.662 0a.44.44 0 0 0-.22.23v-.115c-.056-.576-.718-1.152-1.214-1.095-.11 0-.166.058-.276.058-.11-.288-.773-.46-1.048-.23-.276.345-.332.864-.056 1.094ZM61.13 24.83c.276.23.773.173.994-.058.276-.288.276-1.267.055-1.44-.331-.23-.938-.115-1.27.288-.33.403-.275.807.221 1.21ZM63.338 23.962c-.055-.058-.166-.23-.22-.173-.111 0-.221.23-.221.345 0 .058 0 .116.055.173.11-.115.22-.23.386-.345ZM68.192 12.384c.11-.057.11-.403 0-.46-.055-.116-.331-.116-.441-.058-.11.058-.221.403-.166.518.11.173.552.058.607 0ZM71.227 15.097c.662-.058 1.104-.576 1.049-1.268-.056-.576-.442-.979-.883-.921-.607.057-1.27.749-1.214 1.267.055.576.497.98 1.048.922ZM56 27.072c.442-.46.442-1.037-.055-1.555a.989.989 0 0 0-1.379-.058c-.386.346-.22 1.152.22 1.613.387.403.828.346 1.214 0ZM54.733 17.974c.276.172.772-.058.772-.461 0-.173-.386-.346-.606-.519-.055-.057-.22-.172-.331.058-.166.173-.11.749.165.922ZM73.544 8.874c.276.057.441-.23.441-.461 0-.173-.165-.634-.496-.576-.331.058-.331.46-.276.634 0 .172.165.345.33.403ZM56.826 23.099c.276-.288.166-.864-.276-1.21-.22-.23-.496-.173-.717.058-.33.288-.386.864-.165 1.094.33.23.938.288 1.158.058ZM54.015 29.551c.386-.403.386-1.324 0-1.728-.386-.46-1.103-.345-1.655.23a1.04 1.04 0 0 0 0 1.44c.331.462 1.214.52 1.655.058ZM58.648 21.2c.221-.23.221-.864.055-.98-.22-.23-.827-.172-.993.116-.22.23-.165.633.11.864.221.172.663.23.828 0ZM58.978 18.836c.22-.23.22-.634 0-.806-.22-.23-.497-.173-.717.057a.466.466 0 0 0 0 .634c.22.23.552.288.717.115ZM58.262 22.926c-.11 0-.276.346-.276.518 0 .173.11.404.276.519.11.057.386 0 .497-.116.276-.172.441-.403.662-.69.165-.174.11-.404-.11-.577-.056 0-.221-.057-.276 0-.221.288-.497.288-.773.346ZM76.195 11.809c.22-.116.165-1.037-.166-1.095-.276-.057-.607.115-.662.403-.11.346.607.807.828.692ZM79.17 7.781c.11-.23-.165-.922-.441-.922-.442 0-.717.173-.607.692.11.518.938.46 1.048.23ZM75.422 15.152c.276 0 .441-.576.22-1.037-.22-.404-.772-.173-.938 0-.22.172.442 1.037.718 1.037ZM77.737 12.962c.055-.115.055-.346-.055-.403-.11-.058-.331.057-.387.115-.055.058-.11.403.056.518.11.058.33-.115.386-.23ZM79.945 3.976c.276-.057.22-.345.22-.46 0-.116-.22-.23-.33-.23-.11.057-.276.23-.276.287.055.173.11.461.386.403ZM79.78 11.349c0 .46.22.749.496.634.22-.116.441-.288.496-.519.056-.23-.33-.576-.607-.46-.165.057-.33.287-.386.345ZM48.165 20.967c.11-.115.055-.345 0-.403-.055-.058-.386-.23-.497-.115-.11.115 0 .46.056.518.11 0 .33.116.44 0ZM38.126 33.352c.165-.23-.055-.403-.11-.461-.056-.058-.332 0-.387.058-.055.115-.055.345 0 .403.11.057.331.173.497 0ZM39.172 37.212c.442.346.993-.345.883-.576-.11-.23-.717-.576-.938-.345-.33.288-.441.633.055.921ZM36.139 41.416c.11.115.386.115.551 0 .221-.173.221-.46 0-.633-.11-.116-.496-.346-.772-.058-.22.346.11.634.22.691ZM40.88 44.527c0 .23 1.05.403 1.215.23.22-.173-.056-.749-.497-.864-.441-.23-.717.346-.717.634ZM35.036 47.81c0-.115-.166-.345-.276-.345-.11 0-.331.115-.386.288-.056.115.055.46.22.518.166 0 .442-.345.442-.46ZM41.378 36.115c.22-.173 0-.518-.11-.633-.11-.116-.331-.23-.497-.058-.166.173-.055.403 0 .519.11.172.386.403.607.172ZM40.772 55.53c.11-.115.056-.346 0-.403-.055-.058-.386-.23-.496-.116-.11.116 0 .461.055.519.11.057.33.115.441 0ZM40.496 41.766c.055-.288-.496-.864-.827-.691-.22.115-.386.576-.22.748.165.288.992.173 1.047-.057ZM42.209 41.933c.165 0 .22-.346.165-.46-.055-.116-.166-.289-.331-.231-.166.058-.22.23-.22.403.054.058.22.346.386.288ZM38.73 59.852c-.055.057 0 .288.055.403.055.057.276.173.386.057.11-.115-.055-.403-.11-.46-.055-.058-.276-.115-.331 0ZM37.739 45.966c-.442.461-.442 1.44-.055 1.786.386.345.993.288 1.379-.115.441-.519.441-1.268-.055-1.67-.442-.346-.994-.346-1.27 0ZM35.143 52.42c-.441.518-.441 1.267-.055 1.612.386.346 1.434.288 1.765-.057.386-.404.331-1.21-.165-1.613-.331-.346-1.214-.346-1.545.057ZM45.297 39.398c.165-.23.165-.577-.055-.692-.166-.115-.442-.173-.607-.057-.166.057-.331.633-.11.864.22.172.551.172.772-.115ZM47.834 35.888c-.276.116-.883-.057-1.269.058-.607.173-1.048.634-.828 1.267.276.749.828.922 1.435.749.828-.288.386-1.094.993-1.094s.276.576 1.103.576c.828 0 1.27-.75.993-1.268-.33-.518-.827-.403-.882-.576-.055-.172-.055-.748-.497-.748-.993.057-.772.921-1.048 1.036ZM47.945 28.459c-.166-.23-.607-.173-.717.115-.056.173 0 .403 0 .46.33.289.662.231.772 0 .055-.115 0-.403-.055-.575ZM43.696 26.727c.165-.172.055-.748-.166-.979a.54.54 0 0 0-.827.058c-.221.288-.221.576 0 .806.275.288.827.346.993.115ZM49.545 31.336c.221.23.938.116 1.159-.172.166-.23.166-.75 0-.922-.441-.403-.993-.518-1.269-.23-.22.287-.166 1.036.11 1.324ZM49.599 21.719c.11-.115-.055-.403-.11-.461-.055-.058-.276-.058-.331 0-.056.058 0 .288.055.403 0 .058.276.173.386.058ZM48.495 28.401c.276.173.607-.057.773-.23.22-.173.055-.461-.11-.634-.221-.173-.553-.173-.663.058-.11.23-.33.633 0 .806ZM43.973 32.143c-.055 0-.055.173 0 .173.055.057.166.115.22.057.056-.057 0-.115 0-.23-.054 0-.165-.058-.22 0ZM47.887 26.673c.33-.23.386-.806.165-1.037-.22-.23-.717-.288-.938 0-.22.23-.11.75.276 1.152.11-.057.386 0 .497-.115ZM51.752 26.669c.331-.46.276-1.21-.11-1.613-.22-.23-.828-.115-1.048.173-.387.46-.387.98.055 1.382.33.346.883.346 1.103.058ZM43.09 30.819c0 .403.055.46.276.633.22.173.386.173.496.173.055-.288.442-.691.22-.922-.22-.288-.661-.057-.937-.057 0 .057-.055.115-.055.173ZM47.062 31.964c.166.115.607.346.773.115.165-.23-.055-.69-.166-.864-.22-.23-.496-.115-.717.116-.22.288-.055.518.11.633ZM46.4 34.275c.33-.346.33-.807.054-1.095-.386-.345-1.048-.403-1.269-.057-.275.345-.275 1.037 0 1.382.221.23.883.115 1.214-.23Z" fill="#1BA9F5"/><path d="M230.786 161.34H46.179C20.69 161.34 0 139.74 0 113.129c0-26.611 20.69-48.211 46.18-48.211h184.606c25.49 0 46.18 21.6 46.18 48.211 0 26.611-20.69 48.211-46.18 48.211Z" fill="#E7EBF1"/><path d="M30.843 78.629c-.497 0-.883.23-.828.633 0 .346.607 1.037.883 1.037.441 0 .717-.345.717-.864.055-.633-.165-.806-.772-.806ZM42.372 68.892c-.33.057-.386.518-.441.749-.055.287.22.403.497.345.275 0 .551-.288.44-.518-.054-.173-.165-.634-.496-.576ZM37.793 80.47c0 .287.166.402.441.345.055-.058.166-.115.166-.23 0-.346.22-.52.386-.75.055-.115 0-.46-.11-.575-.055-.058-.166-.116-.221-.173l.276-.288c-.055-.404-.386-.576-.662-.519-.276.058-.276.288-.276.519 0 .172.11.288.22.403-.054.115-.165.23-.165.346-.055.287-.055.633-.055.921ZM53.185 69.065c.331 0 .497-.288.497-.634 0-.46-.386-.806-.717-.806-.331 0-.662.346-.662.691 0 .346.496.749.883.749ZM43.2 67.857c-.056-.172-.221-.288-.276-.345-.442.057-.663.288-.552.576.055.172.22.345.386.403.22 0 .497-.403.441-.634ZM34.15 73.905c-.165-.403-.496-.403-.827-.288-.22.46-.165.749.276 1.037.331-.115.718-.288.552-.749ZM38.233 83.695c.331 0 .994-.576.994-.864 0-.46-.332-.749-.883-.69-.442 0-.662.345-.662.92.055.346.22.577.551.634ZM33.27 71.484c-.332 0-.608.346-.608.634a.491.491 0 0 0-.386-.173c-.33 0-.551.173-.551.519 0 .345.22.69.551.69.331 0 .552-.287.552-.633v-.057c.11.172.331.288.497.288.33 0 .551-.346.496-.692.055-.288-.22-.576-.552-.576ZM32.83 69.352c-.387 0-.773.403-.938.806-.11.115-.221.23-.221.403-.055.23.11.519.33.691.111.116.442.058.608 0h.165c.552-.057.828-.345.773-.979-.055-.46-.386-.921-.717-.921ZM62.014 70.62c.055.346.441.634.717.576a.62.62 0 0 0 .496-.633c-.055-.403-.33-.691-.662-.634-.276 0-.551.346-.551.691ZM32.22 76.496c.055.23.496.519.827.461.276-.057.387-.288.331-.633-.11-.404-.22-.634-.386-.75.166-.057.276-.23.331-.46 0-.173-.055-.403-.165-.576-.276-.23-.497-.173-1.049.288.11.346.11.749.552.806-.22.23-.441.634-.441.864ZM28.69 69.235c-.055.346.166.691.497.749-.221.057-.442.115-.662.057-.166 0-.387.173-.497.346-.165.288-.331.46-.552.749-.276.345-.22.806.056 1.037.386.345.717.403 1.048 0l.055-.058c.22-.058.607-.403.772-.634h.055c.276.058.552-.057.663-.345.165-.346.055-.634-.11-.98-.111-.172-.277-.288-.442-.288.22-.172.386-.46.33-.748 0-.058 0-.116-.054-.116h.11c.441-.115.717-.806.662-1.267v-.057c-.883.345-1.765.69-2.648 1.094.11.288.386.46.717.46ZM40.663 65.434c-.166.058-.276.173-.276.346s.166.288.331.346v.057c-.441-.115-1.159.058-1.434.403-.221.288-.221.75-.056 1.095-.22.173-.386.518-.33.749 0 .288.33.69.606.69.11 0 .221 0 .331-.057 0 .288.276.461.552.519.386-.288.441-.634.166-.922.275-.346.551-.634.717-.922.165-.288.055-.806-.11-1.152.22.116.44.116.772.058.828-.173 1.048-.46.993-1.21 0-.172-.055-.287-.11-.403-.718.058-1.435.115-2.097.23 0 .058-.055.116-.055.173ZM30.895 90.894c-.165 0-.276.288-.276.346 0 .115 0 .346.22.346.222 0 .222-.173.222-.23 0-.116 0-.404-.166-.462ZM20.305 96.54c.055-.402-.387-.748-.938-.806-.276 0-.607.288-.663.634-.055.403.332.864.663.922.441 0 .882-.404.938-.75Z" fill="#CAD0E2"/><path d="M37.351 69.466c0-.346-.33-.634-.607-.634-.11 0-.22.058-.33.116a2.066 2.066 0 0 0-.332-.807c-.22-.346-.717-.46-1.103-.346 0-.057-.055-.057-.055-.115.11-.173.165-.403.11-.576-.055-.23-.166-.403-.386-.518 0-.058 0-.173-.056-.23a30.393 30.393 0 0 0-3.861 1.267c.165.288.496.576.937.46.387-.172.718-.518.938-.46.221 0 .497.115.442.46-.056.346.22.807.938.865h.276c0 .403.165.748.386 1.094.11.115.165.346.165.46 0 .52.166.807.552.922h-.11c-.331 0-.552.288-.497.634.055.345.331.633.662.576.331-.058.441-.288.441-.576 0-.058 0-.115-.055-.173.166.173.387.288.662.23.442-.057.718-.403.662-.748-.055-.346-.33-.576-.717-.519a.868.868 0 0 0-.055-.633c-.055-.173-.11-.288-.11-.461.11.115.22.23.386.23.441.116.717-.172.717-.518Zm-1.6 2.246c-.055-.115-.165-.172-.22-.23h.275c-.055.058-.11.173-.055.23ZM19.201 101.088c-.276.115-.386.461-.276.749.166.346.552.518.828.346.276-.116.386-.576.276-.864-.166-.231-.552-.346-.828-.231ZM44.36 81.849c.11.115.496 0 .772-.058.055 0 .22-.057.22-.288 0-.23-.441-.633-.772-.576-.276.116-.497.634-.22.922ZM31.614 87.38c.166-.46-.165-1.037-.607-1.152-.441-.115-.662.115-.938-.057-.275-.173-.496 0-.662.287-.165.288-.496.75-.11 1.037.386.288.662.058.717-.057.056-.115.387-.23.331-.058-.055.173.11.346.497.46.33.058.607-.057.772-.46ZM12.414 90.78c.386-.23.331-.692.331-1.037h-.055c-.055-.058-.11-.058-.166-.058-.496-.23-.772-.173-.938.115-.055.058-.055.173-.11.23-.828-.115-1.159.346-.938 1.44l-.165.174c-.276.172-.276.403-.221.69.055.289.276.404.496.404.166.058.276.058.387.058.165.172.441.172.662 0 .22-.173.496-.346.386-.634-.11-.23-.276-.403-.441-.46.055-.346.11-.635.11-.98.276.115.496.173.662.058ZM7.226 103.336c-.276.058-.552.691-.331.922.165.172.551.172.717 0 .22-.231-.11-.922-.386-.922ZM6.62 99.475c0-.345-.165-.518-.44-.575-.497-.116-.608.287-.773.633-.221-.058-.442-.058-.607-.115.055-.288.055-.576.11-.864a1.983 1.983 0 0 0-.552-.403c-.275-.115-.938 0-1.103.23-.166-.058-.386 0-.497.058-.11.173-.055.46-.055.633.276.23.442.23.607.115.055.116.11.23.22.346l.332.346c-.11.403-.22.806-.055 1.152-.055.057-.166.115-.221.172-.331.288-.386 1.152-.055 1.44.33.288 1.214.288 1.545-.288.22-.345.22-.633.165-.921.055 0 .11-.058.166-.058.607-.23.607-.749.551-1.325.221-.057.662 0 .662-.576ZM26.978 79.548c.166-.115.055-.518 0-.633-.055-.116-.386-.116-.441 0-.11.057-.11.345-.055.46 0 .115.33.288.496.173ZM4.8 105.584c-.33-.23-.827-.173-1.103.23-.276.346-.276.692 0 .922-.165.23-.165.576-.055.806.165.288.552.346.828.231.275-.173.33-.461.22-.749.166-.058.276-.115.331-.23.221-.346.11-.922-.22-1.21ZM23.78 78.278c.165.345.44.345.716.345.276 0 .497.116.773-.115.276-.288.165-.921-.166-1.152a1.077 1.077 0 0 0-.607-.173c0-.403-.275-.69-.606-.69-.276 0-.552.287-.552.575 0 .23.165.519.441.634-.11.23-.055.518 0 .576ZM5.627 103.678c.055-.403-.056-.691-.442-.748-.11 0-.386.115-.386.23-.055.23 0 .518.11.634.221.288.497.057.718-.116ZM20.799 74.652c-.331.116-.331.404-.166.576.11.116.331.346.497.404.11.288.33.46.662.633.552.288.883.058 1.269-.633.386-.058.717-.116.993-.23.331-.174.497-.634.331-.922-.22-.404-.497-.807-.717-1.21.22-.576.22-.634-.386-.922-.276.058-.387.576-.718.23.11-.287.221-.518.276-.806v-.288l-1.324.864c.166.116.331.23.552.346l-.331.173c-.386.23-.607.173-.662-.23-.387.287-.773.518-1.159.806 0 0 .055 0 .055.057.276.116.442.23.497.519.055.46.33.518.717.403 0 .058 0 .058-.055.115-.055.058-.166.058-.331.115ZM.717 107.31c.275-.404.11-.864 0-.98.44-.288.662-.921.44-1.382-.11-.23-.22-.346-.385-.518-.166 1.036-.331 2.073-.442 3.168.166-.116.276-.173.387-.288ZM27.477 73.273c0-.346-.386-.634-.717-.576h-.11c-.056-.518-.552-1.037-.994-1.037-.551 0-1.103.461-1.103.98 0 .518.717 1.324 1.269 1.267.22 0 .386-.116.552-.288a.67.67 0 0 0 .551.288c.276 0 .552-.346.552-.634ZM14.898 78.57c-.055.115-.055.172-.055.288 0 .403.331.69.662.633.331-.058.662-.403.662-.691 0-.23-.33-.519-.607-.634.056-.172.11-.345.11-.46.056 0 .166 0 .222-.058.33-.115.606-.115.882 0 .442.173.993-.173.883-.634-.055-.46-.055-.979-.607-1.21h-.055a39.27 39.27 0 0 0-2.759 2.593c.166.172.386.23.662.172ZM25.545 71.541c.331.058.773-.633.662-.864-.165-.23-.993-.173-1.048.173-.055.23.166.634.386.691ZM25.324 70.1c.276.173.773.519 1.27.461.661-.115 1.158-1.094 1.158-1.67-.828.403-1.655.806-2.428 1.21ZM24.826 70.39c-.276.173-.607.289-.882.461h.276c.33 0 .496-.23.606-.46ZM6.07 93.662c.276.691.773.864 1.325.576.606-.288.772-.921.44-1.613a.44.44 0 0 0-.22-.23c-.055-.115-.22-.23-.276-.23a1.17 1.17 0 0 0-.882 0c-.497.287-.662.863-.387 1.497ZM2.153 104.085c.33-.115.441-.518.33-.806-.165-.288-.496-.461-.827-.288-.276.115-.386.403-.276.749.166.288.497.46.773.345ZM30.016 82.945c0 .173.055.288.22.288.166.058.276-.057.276-.23 0-.173-.055-.288-.22-.288-.166 0-.276.057-.276.23ZM22.07 80.067c.11 0 .276.058.387.058.441.115.717 0 .772-.288.055-.404-.165-.634-.662-.692-.055 0-.11.058-.166.058-.275-.058-.386-.173-.275-.46.055-.116.11-.174.165-.289.166-.403.055-.921-.22-1.21-.332-.345-.663-.403-1.16-.172-.496.288-.716.749-.827 1.267-.276 0-.496-.058-.717 0-.717.173-.883.691-.386 1.267.441.461.993.461 1.324-.057.11-.173.165-.346.33-.692.222.23.387.346.442.519.166.576.497.691.993.691ZM25.49 85.947c1.214-.288 1.214-1.267.883-2.074a1.23 1.23 0 0 0-.552-.633c-.33-.173-.662-.173-1.103-.058-.386.115-.828-.058-1.104.23a2.18 2.18 0 0 0-.496.807v.057c-.165.404-.165.864.055 1.383.276.576.607.864 1.048.921.442.058.773-.518 1.27-.633ZM21.461 86.98c-.11-.404-.441-.462-.827-.52-.22.347-.497.635-.166 1.038 0 .057.055.057.11.057-.275.23-.496.691-.496 1.037s.276.576.662.576c.552 0 .938-.346.938-.806 0-.346-.165-.634-.386-.75a.67.67 0 0 0 .165-.633ZM23.503 88.418c-.11.058-.221.23-.166.346 0 .115.276.288.386.288.11-.058.11-.346.055-.519 0-.057-.275-.173-.275-.115ZM28.19 80.413a1.156 1.156 0 0 0-.385.518c-.11.634.165 1.094.883 1.383.165-.173.44-.288.606-.461.276-.346.331-.864.11-1.152-.33-.288-.827-.461-1.213-.288ZM44.194 69.297c-.055.115-.275.23-.33.403 0 .173 0 .288.055.46a.412.412 0 0 0-.221-.114c-.331-.116-.828.057-1.159.403a.586.586 0 0 0-.551-.46c-.276 0-.552.345-.497.69 0 .346.331.634.607.576h.11c0 .23.056.404.166.519a1.004 1.004 0 0 0-.442-.115c-.496 0-.882.403-.827.748.055.576.607 1.095 1.103 1.095.11 0 .276-.058.386-.173 0 .173.056.346.11.518-.11 0-.275 0-.385.116-.331.288-.276.864.055 1.152.276.23.772.345 1.103.172a.818.818 0 0 0 .331-.921c.497-.115.938-.634.883-1.152-.055-.519-.331-.864-.717-1.037.165-.115.33-.288.441-.634.11-.46.055-.806-.11-1.094.055.058.165.058.22.058.332 0 .718-.346.718-.634-.055-.23-.497-.519-1.049-.576Zm-1.324 3.11c0-.115-.055-.172-.11-.288.055.058.11.058.166.115 0 0 .055 0 .055.058-.055.058-.11.058-.11.115ZM30.51 73.732c-.054-.576-.55-1.037-1.048-1.037-.717 0-1.268.519-1.213 1.21 0 .346.165.633.386.806-.11 0-.22-.057-.386 0-.552.058-.938.461-.883.98 0 .057 0 .115.055.172h-.055c-.497 0-.993.692-.938 1.383 0 .518.441.921.938.864.828-.115.938-.346 1.048-1.152h.22c.497-.115.884-.576.828-1.095.166.115.387.173.607.173.497 0 1.104-.576 1.104-1.094 0-.576-.276-1.037-.662-1.21ZM9.489 94.352c-.386.172-.662 1.036-.497 1.44.166.403.773.576 1.159.403.386-.173.662-.864.497-1.267-.221-.461-.828-.75-1.16-.576ZM11.2 82.198c0 .057-.054.115-.054.172-.166.634.11 1.095.44 1.325.387.23.939-.173 1.325-.691.165-.23.11-.634 0-.922.055-.057.055-.115.055-.23s-.11-.403-.22-.576c.33-.058.496-.23.496-.576s-.276-.634-.662-.634a58.824 58.824 0 0 0-1.765 2.074c.11.058.275.058.386.058Zm.939-.864.055-.058a.45.45 0 0 0-.11.288h-.11c.054-.058.11-.115.165-.23ZM11.476 98.726c.276-.172.387-.576.276-.864-.11-.288-.552-.403-.827-.23-.276.173-.331.518-.166.864.11.288.386.403.717.23ZM15.447 85.537c.11-.23-.11-.345-.331-.345v-.116c0-.288-.386-.633-.717-.633-.166 0-.331.057-.442.115.276-.23.386-.46.166-.749-.055-.115-.331-.23-.442-.173-.165.058-.386.23-.386.404-.055.403.276.518.552.576-.22.172-.331.345-.331.633 0 .519.441 1.037.827 1.037.11 0 .221-.115.387-.23.11 0 .275-.058.386-.173.11-.115.276-.173.33-.346ZM16.994 82.138c-.221-.46-.993-.748-1.49-.518-.552.23-.717.922-.441 1.613.11.288.33.518.551.576-.055.115-.055.173-.055.288 0 .346.276.691.552.691s.717-.403.772-.633c0-.173-.11-.346-.275-.519.44-.403.606-1.037.386-1.498ZM14.123 90.435c-.165 0-.386.23-.441.346 0 .23.055.576.22.691.331.288.607-.058.883-.288-.055-.403-.22-.806-.662-.749ZM4.91 92.739c-.11.057-.165.23-.165.345 0 .115.056.346.276.346.22 0 .386-.173.386-.404a.39.39 0 0 0-.22-.345c.055 0 .165-.058.22-.058.607-.288.828-1.037.497-1.843-.11-.23-.22-.403-.441-.518-.387.748-.773 1.497-1.104 2.304.22.115.386.172.552.172ZM53.681 79.66c-.055 0-.165.115-.165.23 0 .116.165.173.22.116.056-.058.11-.173.11-.173 0-.058-.054-.173-.165-.173ZM66.592 65.033c-.386.288-.055.634.055.98.442 0 .828-.116.883-.577 0-.172-.11-.46-.276-.518h-.441c-.055 0-.11.058-.22.115ZM66.924 72.692c-.11-.288-.607-.634-.883-.576-.276.057-.441.46-.386.806.11.345.386.46.772.403.387-.173.607-.403.497-.633ZM65.987 74.133c-.11.057-.11.172-.11.23 0 .058.166.115.22.115.056 0 .111-.115.111-.172 0-.058-.11-.23-.22-.173ZM67.862 72.061c-.165.058-.22.346-.165.403.055.115.165.404.275.346.11-.058.221-.23.221-.346 0-.115-.165-.46-.331-.403ZM61.185 71.656c-.055-.461-.442-.864-.718-.807-.496.058-.937.691-.882 1.21 0 .346.441.633.827.518.497-.057.828-.403.773-.921ZM46.289 74.823c.055 0 .22-.115.22-.23s-.165-.23-.33-.288c-.056 0-.331.057-.331.23 0 .173.33.288.441.288ZM68.91 71.14c.056.172.276.288.387.288.11 0 .276-.173.276-.288 0-.116-.166-.288-.276-.288-.11 0-.442.115-.386.288ZM47.45 67.222c.11.057.165.057.275.057.331 0 .552-.288.552-.633 0-.346-.22-.576-.497-.576-.22 0-.386.115-.552.23-.22-.346-.496-.576-.827-.691-.497-.115-.828.46-1.38.518-.11 0-.165.058-.275.058 0-.23 0-.403-.22-.576-.222-.173-.498-.23-.718.057-.11.173-.276.519-.22.692.054.23.22.345.385.345-.22.403-.165.922 0 1.383.11.288.276.518.497.69.276.231.662.231 1.103.116.442-.115.773.173 1.159-.115.331-.288.772-.864.717-1.555ZM46.453 72.174a.664.664 0 0 0-.662-.576c-.33 0-.496.23-.496.633 0 .404.276.634.607.634a.733.733 0 0 0 .551-.691ZM54.677 76.26c-.883-.345-.442-.863-.993-1.324-.11-.058-.221-.115-.276-.115-.718-.115-1.104.403-.883 1.094.11.403.33.807.607 1.152.276.403.993.461 1.38.23.11-.115.496-.633.165-1.036ZM55.392 68.777c.055.288.497.519.772.461.276-.115.497-.519.442-.807 0-.115-.11-.23-.166-.288.276-.173.497-.518.442-.806-.055-.519-.497-.98-.938-.922-.386.058-.938.749-.938 1.152a.982.982 0 0 0 .552.691.476.476 0 0 0-.166.519ZM59.64 74.712c0 .345.166.576.552.576.387 0 .607-.288.607-.634 0-.288-.276-.576-.551-.576-.331 0-.607.288-.607.634ZM68.855 66.647c-.055-.403-.276-.633-.496-.576-.331.058-.718.519-.662.807.055.288.386.576.717.518.276-.058.441-.346.441-.749ZM79.666 67.22c.165-.115.386-.46.276-.576-.11-.115-.387-.288-.497-.23-.11.057-.441.403-.386.576 0 .115.496.288.607.23ZM78.62 69.124c.11.346.551.634.882.519.387-.116.883-.865.773-1.21-.11-.403-.718-.634-1.214-.46-.441.172-.607.575-.441 1.151ZM74.261 78.109c-.165.058-.386.288-.386.403 0 .115.276.346.441.346.11 0 .497-.288.497-.461 0-.173-.441-.346-.552-.288ZM75.585 68.66c-.11-.575-.717-.921-1.434-.748-.607.115-.938.691-.773 1.267.11.576.828 1.037 1.38.922.551-.116.938-.864.827-1.44ZM74.813 71.83c0 .23.33.173.44.173.056 0 .222-.23.166-.288-.055-.115-.22-.23-.275-.23-.056 0-.332.115-.332.345ZM69.571 68.432c-.11-.288-.276-.288-.496-.23-.276.058-.442.346-.332.576.11.173.221.403.387.403.22.058.552-.46.441-.749ZM74.813 65.782c.331.346 1.159.23 1.38-.115.11-.173.165-.461.11-.749h-1.987c.11.288.276.576.497.864ZM80.663 76.148c.275.058.386-.23.33-.576-.055-.345-.275-.403-.496-.288-.165.058-.552.404-.552.576 0 .173.497.288.718.288ZM77.737 65.436c.331.346.662.23 1.048.058 0-.23.056-.403 0-.576h-1.158c-.055.173-.055.346.11.518ZM53.076 64.918c.166.46.497.691.993.634.386-.058.717-.288.883-.634h-1.876ZM56.66 83.122c.056-.173-.165-.634-.551-.634-.11 0-.331.173-.386.346-.055.173 0 .46.11.576.331.23.717-.115.828-.288ZM56.165 69.93c-.331.057-.497.402-.442.748.056.346.276.519.607.46.331-.057.552-.402.497-.69 0-.288-.386-.576-.662-.519ZM57.489 64.976c-.331.057-.497.288-.441.633.055.403.33.576.662.519a.613.613 0 0 0 .441-.461c.11.057.276.115.441.057.276-.057.552-.172.552-.46 0-.116-.055-.288-.11-.346H57.93c0 .058-.055.058-.055.115-.11-.057-.22-.115-.386-.057ZM50.922 81.162c.497-.115.938-.691.883-1.21 0-.345-.551-.69-.993-.633-.496.115-.772.46-.717.979.055.576.441.922.827.864ZM50.207 74.767c.11.23.496.346.662.23.276-.172.22-.978-.055-1.036-.276-.058-.718.519-.607.806ZM52.081 64.918H49.71c0 .288-.331 1.037.11 1.613.442.576 1.159.518 1.71.173.387-.288.608-1.152.552-1.786ZM52.8 73.384c.386-.058.828-.691.772-1.095-.055-.576-.441-.921-.938-.806-.496.115-.772.46-.717.98.11.518.552.978.883.92ZM36.193 76.725c-.221-.057-.662.288-.718.634-.055.288.11.518.442.576.496.057.827 0 .882-.288 0-.288-.33-.864-.606-.922ZM60.137 68.605c0-.345-.386-.69-.662-.69-.662.057-1.104.402-1.049.863.056.403.663.864 1.049.806.33-.057.717-.633.662-.979ZM61.959 65.38v-.403h-2.373a.832.832 0 0 0 0 .518c.166.518.552.806.993.691.276-.057.552-.345.663-.576.22 0 .496-.173.717-.23ZM56.33 73.557c-.165.058-.275.288-.275.461 0 .173.22.576.386.576.165 0 .386-.403.386-.576.055-.288-.276-.576-.496-.46ZM58.318 80.357c.386-.058.607-.345.552-.749-.055-.288-.331-.576-.662-.519-.386.058-.662.346-.607.692 0 .345.33.633.717.576ZM57.27 73.268c.11 0 .275-.058.386-.173h.496c.166-.057.497-.403.442-.69-.056-.174-.221-.289-.442-.347-.11-.345-.441-.46-.883-.46-.44.057-.661.403-.606.979 0 .403.276.691.607.691ZM39.834 75.4c.055-.518-.607-1.037-1.213-1.037-.497 0-.828.346-.828.864 0 .346.11.576.276.75.055.287.276.46.496.402.056 0 .11-.057.11-.057h.111c.497 0 .993-.404 1.048-.922ZM39.393 89.225c.056-.403-.33-.864-.607-.806-.275.058-.607 1.037-.386 1.325.22.288.938-.115.993-.519ZM61.958 68.089c.387-.116.607-.404.497-.807-.11-.288-.441-.518-.717-.46-.331.115-.552.518-.442.863.056.288.386.461.662.404ZM38.621 83.984c0-.172-.276-.23-.441-.23-.056 0-.221.173-.221.288 0 .115.22.23.331.23.11 0 .331-.115.331-.288ZM40.275 82.14c.331 0 .718-.46.662-.806 0-.346-.33-.576-.662-.576-.33 0-.662.288-.662.576.056.403.442.864.662.806ZM38.18 66.183a.893.893 0 0 0-.332-.46c-.276.057-.552.115-.772.172-.11.116-.11.23-.11.346-.387.058-.718.288-.773.576-.055.691.552.922.883 1.037.276.115.717-.46.662-.98.276-.057.496-.402.441-.69ZM37.79 88.07c.11-.058.276-.116.276-.289s-.165-.23-.22-.23c-.11 0-.331.057-.387.288-.055.23.276.23.331.23ZM48.277 79.03c.386-.058.607-.288.552-.634-.055-.346-.276-.634-.607-.576-.276 0-.607.346-.607.634a.664.664 0 0 0 .662.576ZM49.212 73.732c.165-.346.165-.692-.166-.864-.11-.058-.386 0-.441.057-.11.173-.166.461-.11.634.165.403.44.288.717.173ZM50.65 70.446c.33 0 .717.23.882-.288a.646.646 0 0 0-.22-.75c-.387-.287-.663.058-.939.346-.22-.115-.386-.23-.551-.345.11-.288.22-.519.386-.749-.11-.23-.22-.403-.386-.576-.221-.23-.883-.346-1.104-.173-.276.173-.33.692-.11 1.152.055.173.165.288.22.461-.22.346-.44.691-.44 1.037-.111 0-.166.057-.277.057-.441.116-.717.922-.496 1.383.22.403.993.691 1.49.288.275-.23.44-.519.496-.806h.166c.606 0 .772-.461.882-1.037Z" fill="#CAD0E2"/><path d="M41.048 83.754c.11.115.22.23.386.23.331 0 .441-.23.441-.518.331-.058.718-.23.552-.807-.166-.633-.883-.921-1.434-.806-.552.115-1.16 1.094-.883 1.786.22.345.662.345.938.115ZM49.38 84.1c.22 0 .331-.633.276-.691-.166-.23-.331-.518-.607-.518-.276 0-.331.403-.276.518.11.173.386.691.607.691ZM43.089 79.603c.055-.23.055-.46.165-.633.22-.346.276-.691.055-1.094-.165-.288-.938-.346-1.269-.173-.275.172-.606.345-.44.864.11.345.165.69.275 1.037-.055.403.165.633.496.633.387 0 .607-.23.718-.633ZM47.725 74.424c.11 0 .441-.116.441-.288 0-.173-.275-.288-.386-.288-.11 0-.33.115-.33.288 0 .172.165.288.275.288ZM60.8 70.101a.37.37 0 0 0 .331-.518c-.11-.288-.22-.518-.552-.46-.276.057-.496.633-.386.806.11.172.386.172.607.172ZM73.877 66.874c.11-.057.276-.288.276-.403 0-.173-.165-.46-.276-.518-.386-.173-.551.172-.717.46.11.346.331.576.717.461ZM2.097 99.417c.11-.23.055-.403-.056-.519-.11.288-.165.634-.275.922.165-.058.275-.23.33-.403ZM45.96 83.293c0-.058-.11-.23-.221-.23-.11 0-.276.172-.276.287 0 .116.11.404.276.404.11 0 .165-.346.22-.461ZM45.63 78.627c-.222.058-.663.288-.608.576.056.288.442.346.662.404.221.057.442-.058.497-.404-.055-.288-.331-.633-.552-.576ZM12.69 101.893c.166-.057.221-.518.166-.691-.055-.288-.441-.403-.607-.23-.11.115-.165.403-.11.576.055.115.33.403.552.345ZM13.573 99.074c-.22-.46-.662-.576-1.159-.346-.386.173-.441.634-.22 1.153.165.403.496.575.827.46.331-.173.662-.979.552-1.267ZM69.793 67.392c.055 0 .11-.172.11-.172 0-.058-.055-.173-.165-.173-.055 0-.166.115-.166.23.055.115.166.115.221.115ZM64.774 72.633c.165-.115.22-.403.22-.576 0-.23-.165-.461-.44-.404-.277.058-.497.173-.497.519 0 .23.551.576.717.46ZM66.04 69.18c.275-.057.496-.748.386-1.209-.056-.288-.552-.576-.828-.46-.441.172-.717.575-.607.921.11.403.717.806 1.048.749ZM66.979 76.204c.165 0 .276-.23.331-.518.055 0 .22-.23.165-.288 0-.058-.055-.115-.11-.173v-.115c0-.173-.33-.576-.607-.519-.276.058-.441.519-.496.807.055.23.441.806.717.806ZM64 67.453c.442-.057.883-.576.828-.979-.055-.346-.662-.634-1.103-.576-.331.058-.607.46-.552.806.11.461.497.807.828.75ZM62.345 74.653c.11 0 .22-.23.22-.288 0-.115-.165-.403-.33-.346-.166.058-.221.346-.221.461 0 .058.22.173.33.173ZM63.005 77.416c.276-.058.552-.404.496-.692-.055-.288-.386-.576-.717-.576-.33 0-.551.288-.496.634.055.403.386.691.717.634ZM71.34 76.957c.331-.058.552-.403.497-.749-.056-.288-.387-.518-.663-.46-.33.057-.496.402-.44.748.054.403.275.576.606.46ZM71.834 64.918h-.441c.11.058.275.058.441 0ZM72.055 72.865c.276-.115.496-.23.441-.576-.055-.288-.441-.517-.662-.46-.22.058-.33.46-.22.748.055.23.22.346.441.288ZM71.006 66.527c.11 0 .221-.288.221-.46 0-.058-.166-.231-.22-.231-.111.058-.276.173-.276.288 0 .058.22.403.275.403ZM67.862 64.976c.055.172.276.23.33.23.111 0 .387-.115.332-.23 0 0 0-.058-.055-.058h-.662c.11 0 .055.058.055.058ZM71.172 68.661c-.276.058-.441.288-.386.633 0 .288.607.576.772.404a.757.757 0 0 0 .221-.576c0-.288-.331-.518-.607-.46ZM71.89 67.854c.165.116.386-.057.441-.345.055-.23-.055-.576-.22-.749-.221-.173-.387-.058-.442.058-.11.172-.055.345 0 .518.055.23.055.403.22.518ZM46.787 77.13c.33-.057.496-.345.496-.748-.055-.404-.33-.634-.717-.576-.276.057-.552.518-.496.806a.626.626 0 0 0 .717.518ZM39.778 70.676a.687.687 0 0 0-.496.23c-.11-.057-.221-.115-.386-.115-.607-.058-1.27.518-1.325 1.152-.055.576.607 1.21 1.159 1.267.386.058.772-.23.938-.691h.11c.442-.058.883-.749.828-1.267-.055-.346-.386-.576-.828-.576ZM40.72 79.428c.331 0 .441-.23.497-.518 0-.46-.276-.922-.607-.922-.387 0-.828.403-.828.692-.055.403.386.748.938.748ZM48.386 64.918H48c.055.058.166.058.22.058.056 0 .111-.058.166-.058ZM41.489 73.961c0-.403-.331-.69-.662-.633-.276.057-.497.345-.497.748.055.346.276.576.552.519.441 0 .662-.288.607-.634ZM8.054 107.194a.573.573 0 0 0 0 .806c.22.173.552.173.773-.057.22-.231.22-.634 0-.807-.221-.173-.497-.23-.773.058ZM8.884 102.07c.331-.173.552-.979.386-1.325-.276-.518-.717-.691-1.158-.403-.442.288-.552.691-.331 1.209.22.404.772.692 1.103.519ZM6.51 108.98c.331-.172.497-.46.331-.806-.165-.346-.496-.461-.772-.346-.276.116-.442.576-.331.807.11.345.441.461.772.345ZM9.048 88.59c.386-.173.662-.633.607-.98 0-.057-.056-.172-.166-.287.22-.23.386-.576.331-1.037 0-.346-.11-.633-.386-.806.276.057.497 0 .717-.115.386-.23.607-.75.442-1.152a1.2 1.2 0 0 0 .165-.634c0-.346-.276-.576-.662-.634a26.069 26.069 0 0 0-1.434 2.016s0 .058.055.058c.055.115.165.23.33.346h-.11a.996.996 0 0 0-.662.288c-.11.172-.276.403-.386.575-.055.116-.055.288-.055.404 0 .172.11.345.22.46-.055.058-.11.116-.11.288-.055.519-.276.807-.607 1.095-.275.23-.275.518-.055.806.22.288.773.346.883 0 .166-.518.552-.633.883-.69ZM9.378 91.877c.276-.173.331-.461.166-.807-.276-.518-.552-.749-.828-.576-.331.173-.552.807-.386 1.152.11.346.717.461 1.048.23ZM27.143 81.107c.11-.749-.386-1.094-.772-1.267-.386-.173-1.159-.058-1.324.691-.11-.115-.221-.173-.332-.115-.165.057-.22.518-.165.576.11.173.331.345.441.288.11.46.387.749.718.806.551.115 1.379-.403 1.434-.979ZM9.38 93.43c0 .23.111.518.387.46.166-.057.441-.288.497-.403 0-.173-.221-.403-.331-.518-.442 0-.552.23-.552.46ZM3.806 96.71c.607.403 1.27.058 1.655-.46.386-.52.11-1.901-.386-2.305-.496-.403-1.048.116-1.214 0 0 0-.055-.057-.055-.115-.22.519-.441 1.037-.607 1.555.11.403.166 1.037.607 1.325ZM35.366 89.916c.11.576.442.98.773.98.276-.058.441-.231.496-.52.11-.518 0-.69-.551-.978-.166-.404-.221-.807-.387-1.095-.165-.345-.662-.345-.717.058-.11.403-.33.864-.11 1.325.11.057.276.115.496.23ZM7.779 97.863c.275-.115.386-.46.22-.748-.165-.404-.607-.634-.993-.519-.33.115-.496.576-.386.864.22.346.828.576 1.159.403ZM18.372 75.862c.44-.058.993-.864.882-1.094-.055-.116-.33-.288-.662-.346-.33.23-.607.518-.938.749 0 .057 0 .115.055.172.11.346.332.576.663.519ZM17.765 80.12c0-.402-.441-.69-1.103-.69-.276 0-.607.46-.607.748 0 .346.496.865.772.865.386.057.938-.519.938-.922ZM18.592 81.735c.221-.057.11-.345.056-.518 0-.058-.276-.173-.276-.115-.11.057-.221.23-.166.345.055.115.166.346.386.288ZM12.249 88.243c.22-.057.717-.057.717-.46 0-.404-.497-.461-.717-.519-.22-.115-.442.173-.497.519 0 .345.166.576.497.46ZM11.311 88.879c.276-.173.386-.519.221-.864-.331-.576-.662-.749-1.048-.576-.276.173-.497.864-.331 1.152.165.288.883.46 1.158.288ZM12.747 86.922c.165-.288.165-.576-.11-.807a3.187 3.187 0 0 1-.332-.46c-.276-.461-.551-.634-1.048-.519-.441.115-.607.46-.331 1.037.22.23.552.576.993.864.276.23.607.173.828-.115ZM6.345 102.527c.166.115.387-.057.442-.115.055-.115.165-.288 0-.461-.166-.173-.386-.172-.552.058-.11.23-.055.403.11.518ZM27.753 83.755c.055-.288-.22-.634-.607-.634-.11.173-.276.346-.33.576-.056.288.165.46.44.46.221 0 .442-.057.497-.402ZM25.104 94.64c.386.057.662-.173.828-.519.11-.23.165-.518.22-.806.11-.058.221-.058.386-.115.442-.23.773-.749.718-1.152-.055-.519-.387-.864-.828-1.095a.902.902 0 0 0-.552 0c-.607.288-.772.864-.607 1.498a.86.86 0 0 1 .11.403c-.22.058-.496.115-.661.23-.386.173-.497.404-.386.865.11.403.386.633.772.69ZM28.633 94.87c-.055-.519-.662-.576-.827-.404-.166.173-.166.577 0 .75.22.23.772.172.827-.346ZM24.275 89.797c0-.403-.331-.69-.772-.748-.497-.058-1.049.345-1.104.748-.055.519.386 1.037.883 1.095.441.057.938-.461.993-1.095ZM24.716 88.358c.386-.173.441-.576.331-.98-.331-.172-.662-.287-.938 0a.574.574 0 0 0 0 .807c.166.115.441.23.607.173ZM23.726 94.295c.11-.058.166-.288.11-.403 0-.116-.276-.173-.33-.173-.111.057-.332.23-.277.403.11.173.387.173.497.173Z" fill="#CAD0E2"/><path d="M29.022 90.088c-.055-.518-.662-.576-.827-.403-.166.173-.166.576 0 .749.275.23.44.173.827-.346Z" fill="#6C88DF"/><path d="M32.993 85.597c.22.057.662.115.883-.115.22-.23.606-.404.606-.692 0-.288-.055-.403-.22-.518-.11-.115-.166-.288-.442-.403-.276-.115-.772-.115-1.103.173-.331.288-.386.633-.331.979.11.345.386.518.607.576ZM34.758 81.277c0 .403.607 1.094.938 1.094.386-.057.717-.576.717-1.152 0-.518-.386-.748-.938-.69-.331 0-.717.402-.717.748ZM35.42 75.575c.386 0 .662-.288.662-.634-.055-.403-.552-.979-.828-.921-.44 0-.772.403-.717.979-.055.345.331.633.883.576ZM36.248 79.55c0-.173-.22-.288-.33-.288-.111 0-.387.172-.387.288 0 .172.331.288.441.288.11 0 .276-.115.276-.288ZM32.606 81.62c0-.115-.055-.173-.055-.288v-.115c-.055-.058-.11-.115-.165-.115-.221-.288-.662-.461-1.049-.404-.551.058-1.048.75-.993 1.268.055.633.607 1.21 1.159 1.152.441-.173 1.103-.98 1.103-1.498ZM23.116 99.596c.275-.115.165-.864.055-1.152-.11-.173-.497-.403-.718-.288-.275.115-.275.634-.165.922 0 .23.552.69.828.518ZM33.82 78.74c-.386 0-.828.633-.772 1.037.055.288.551.69.882.69.276-.057.607-.402.552-.69 0-.692-.276-1.095-.662-1.037ZM21.516 90.838c.276-.173.386-.518.22-.864-.165-.346-.44-.519-.661-.403-.276.172-.442.749-.331 1.037.055.287.44.403.772.23ZM15.724 98.614c.497-.288.662-.691.442-1.152-.221-.403-.662-.633-.994-.518-.44.23-.662.979-.44 1.44.165.288.661.403.992.23ZM16.33 106.624c.331-.173.442-.519.276-.922-.11-.288-.496-.403-.828-.23-.33.173-.496.576-.33.864a.63.63 0 0 0 .882.288ZM16.77 100.343c-.11-.288-.441-.461-.717-.346-.276.115-.441.461-.33.806.11.346.385.461.661.346.386-.115.552-.461.386-.806ZM13.85 96.08c.165-.057.275-.287.33-.518.11.23.332.288.552.23.166-.057.386-.23.442-.345.165-.46-.166-.691-.607-.922-.166.116-.331.23-.442.404v-.058c-.11-.288-.607-.518-.827-.403-.607.288-.883.806-.717 1.21.22.403.937.575 1.269.403ZM11.917 107.945c.055 0 .055-.173.055-.231-.055-.057-.11-.115-.22-.057-.111.057-.166.172-.111.23.055.058.276.115.276.058ZM18.428 87.034c0-.806-.331-1.21-1.049-1.267 0-.115 0-.173-.055-.23-.165-.173-.386-.173-.607-.116-.276.058-.441.461-.276.691l.056.058c-.166.23-.276.518-.276.806 0 .288.165.519.441.75-.055 0-.055 0-.11.057-.221.173-.166.345-.11.576.11.288.44.403.606.173.166-.116.276-.288.276-.461h.166c.551.057.938-.461.938-1.037ZM19.254 85.537c.552 0 1.159-.633 1.159-1.152 0-.633-.441-1.21-.993-1.21-.497 0-1.27.75-1.324 1.268 0 .518.551 1.094 1.158 1.094ZM21.02 92.563c0-.404-.331-.922-.607-.922-.441-.058-.993.46-.993.922 0 .403.441.864.883.921.441 0 .662-.345.717-.921ZM11.642 105.179c.166-.23.386-.806-.11-1.094-.938 0-.717-.634-1.38-.864-.11-.058-.275 0-.33 0-.718.173-.938.806-.497 1.325.276.345.607.633.938.864.386.288 1.103.115 1.38-.231ZM17.49 96.426c.276-.173.386-.46.22-.749-.165-.403-.496-.518-.827-.345-.276.172-.441.576-.276.864.166.23.607.403.883.23ZM22.62 82.427c.387-.173.662-1.037.387-1.383-.221-.403-1.049-.633-1.545-.172-.442.46-.497.979-.331 1.382.22.403.938.403 1.49.173ZM17.931 91.24c-.11-.173-.386-.288-.662-.288-.055-.46-.386-.749-.882-.749-.607 0-1.104.519-1.049 1.21.055.518.497.979 1.049.921.11 0 .22-.057.275-.057.221.23.552.288.828.172.33-.172.607-.864.441-1.21Z" fill="#CAD0E2"/><path d="M281.544 116.411H96.937c-25.49 0-46.18-21.6-46.18-48.212 0-26.61 20.69-48.21 46.18-48.21h184.607c25.49 0 46.179 21.6 46.179 48.21 0 26.612-20.689 48.212-46.179 48.212Z" fill="#7DE2D1"/><path fill-rule="evenodd" clip-rule="evenodd" d="M276.859 116.412H96.937c-25.49 0-46.18-21.6-46.18-48.21 0-1.104.036-2.199.106-3.284h179.922c25.49 0 46.18 21.6 46.18 48.211 0 1.104-.036 2.199-.106 3.283Z" fill="#00BFB3"/><path d="M56.221 61.286c.166-.346-.055-1.095-.386-1.325-.497-.288-.993-.115-1.214.346-.22.46-.055.921.386 1.152.11.057.276.115.442.115-.056.058-.11.115-.11.173 0 .115.11.403.275.403.166 0 .22-.288.22-.46 0-.058 0-.116-.054-.174.22 0 .386-.115.441-.23ZM68.47 30.99c.055.174.11.289.33.347.111.057.387-.058.442-.173.11-.173.166-.461.055-.576-.11-.23-.276-.288-.441-.23 0-.116 0-.174-.055-.231 0-.058-.055-.058-.055-.115l-.828.69c.22.174.386.289.552.289ZM79.338 28.977h-.165c.055-.173.11-.461.11-.576 0-.288-.22-.404-.496-.346-.276.058-.497.23-.387.46.056.116.11.289.221.404-.33 0-.717 0-1.048-.058-.166-.057-.386 0-.607.058a.86.86 0 0 0 .11-.403c0-.403-.33-.691-.662-.634-.33.058-.607.403-.552.691.056.346.387.634.718.576a.444.444 0 0 0-.11.23c-.056.346.386.692.551.692.442-.058.497.288.717.518.166.173.497.289.773.346.165.058.386 0 .552 0 .165 0 .386-.057.551-.115.607-.115.828-.46.828-.922-.166-.576-.552-.921-1.104-.921ZM72.718 36.865c.11-.288 0-.634-.276-.922.276-.057.552-.172.773-.345.055-.058.11-.115.165-.23.11-.058.166-.116.166-.173 0-.058 0-.173-.055-.288.055-.288-.055-.634-.221-.807-.331-.345-1.159-.345-1.545.173-.33.46-.276.922-.11 1.267-.276.058-.497.23-.662.634-.11.23 0 .633.165.806-.055 0-.11-.057-.22-.057-.442-.058-.718.172-.662.864.165.288.33.748.606 1.152.166.288.497.345.773.172.22-.172.386-.46.22-.806l-.165-.518c-.055-.288-.11-.461-.276-.634.497.173 1.214-.058 1.324-.288ZM79.78 31.224c-.276-.173-.773-.058-.939.173-.33.576-.275 1.152.056 1.324.33.23.938 0 1.213-.403.221-.23.056-.864-.33-1.094ZM61.793 55.124c-.22-.172-.607-.115-.772.173-.166.288-.11.692.165.864.276.23.552.173.718-.172.22-.346.165-.692-.11-.864ZM62.896 51.901c.386-.058.828-.691.828-1.094-.056-.576-.442-.922-.938-.864-.221.057-.331.115-.497.23-.055-.058-.11-.115-.22-.173-.166-.173-.442-.173-.608.173-.11.288-.165.518.11.749.111.057.277.057.442 0v.057c.11.519.552.98.883.922ZM61.683 64.111c-.055.058-.055.23.055.23.11.058.22-.057.22-.114a.444.444 0 0 0-.11-.23s-.11 0-.165.114ZM73.378 33.583c.276-.288.607-.518.387-.922a.44.44 0 0 0-.221-.23c.166-.23.11-.518.055-.864-.386-.058-.772-.288-.993.115-.165.288-.11.576.11.807-.055.057-.11.172-.11.345.055.46.386.576.772.749Z" fill="#42D4C6"/><path d="M72.054 30.872c.386-.058.607-.288.552-.634-.056-.518-.387-.864-.773-.806-.11 0-.33.23-.441.403-.166-.057-.331-.115-.552-.057-.441.057-.662.748-.607 1.382 0 .23.22.518.497.691-.331.173-.552.403-.828.691-.276.288 0 .75-.441.692h-.331c-.11-.346-.331-.634-.718-.864-.551-.288-1.103-.116-1.379.46-.276.519 0 1.383.497 1.613.22.115.441.115.717.058.165.288.441.46.772.518-.22.23-.386.634-.33.98.055.518.717.979 1.268.921.497-.115.883-.576.828-1.037-.055-.46-.607-.921-1.048-1.037.165-.115.275-.23.275-.403.056-.345.773.058.938-.403.11-.46.718-.518.828-1.094.055-.346 0-.75-.22-.98.22-.288.496-.69.496-1.094ZM59.255 43.779c-.11.288.055.921.276 1.036.11.058.276.058.386 0 0 .058.055.116.055.116.442.576 1.16.518 1.71.172.553-.345.773-1.785.442-2.246-.33-.518-.993-.288-1.103-.46-.055-.058 0-.346.055-.692h.055c0-.058 0-.115-.055-.173 0-.23-.055-.518-.166-.749-.33-.46-1.048-.633-1.6-.518-.44.634-.827 1.267-1.269 1.958v.058c-.055.058-.11.115-.165.115 0 .058-.055.058-.055.115-.055.116-.055.173-.055.288 0 .173.165.346.33.461 0 .115 0 .23.056.288.11.058.33-.057.386-.173a.572.572 0 0 0 .331-.288c.441.116.938.116 1.048.23.055.058 0 .174 0 .289-.33-.115-.551-.058-.662.173Z" fill="#42D4C6"/><path d="M73.158 27.017c0-.058.055-.116.055-.173-.772.46-1.49.979-2.262 1.497.11.173.22.346.386.403.387.173 1.049-.057 1.38-.403a.67.67 0 0 0 .165.461c.276.23-.441.691-.11 1.037.33.346.055.922.496 1.325.442.403 1.104.518 1.325 0v-.116c.11.173.33.404.44.404.166 0 .387-.519.332-.576-.11-.173-.386-.461-.497-.404-.055 0-.11.116-.165.173 0-.288-.055-.576-.166-.921-.11-.403-.607-.404-.33-.75.275-.345.717-1.266-.056-1.67-.386-.172-.938 0-1.158.346 0-.057-.056-.173-.056-.23.056-.115.166-.23.221-.404ZM54.73 51.67c-.055-.518-.33-.922-.662-1.037.221-.115.331-.288.442-.576.055-.115.055-.288.055-.403.441.058.441-.403.607-.806-.11-.116-.221-.173-.331-.23-.718 1.67-1.38 3.455-1.876 5.24.22.058.441.058.607-.057a.818.818 0 0 0 .33-.921c.442-.173.883-.692.828-1.21ZM76.305 25.75c-.11.287.11 1.151.33 1.267.332.172.828-.058 1.104-.576.22-.461.11-.75-.441-1.037a.76.76 0 0 0-.993.345ZM59.862 49.939c.662 0 .827-.461.938-1.037.33 0 .717.23.882-.288a.646.646 0 0 0-.22-.749c-.387-.288-.663.058-.938.288-.166-.115-.386-.23-.552-.346.11-.288.276-.518.386-.748-.11-.23-.22-.404-.386-.576-.22-.23-.883-.346-1.104-.23-.275.172-.33.69-.165 1.151.055.173.165.288.22.461-.22.346-.496.691-.496 1.037-.11 0-.165.057-.276.057-.441.116-.772.922-.552 1.325.221.403.939.691 1.435.346l-.11.115c-.056.115-.056.288-.056.46-.11 0-.275.058-.33.116-.11.173-.166.46-.11.634.165.345.496.23.716.115.056-.115.11-.288.11-.403.277.057.608-.116.718-.346.11-.288.055-.634-.22-.749a.769.769 0 0 0-.608-.057c.221-.23.331-.461.387-.692.22.116.275.116.33.116ZM76.028 33.063c.11-.23-.166-.98-.442-1.153-.275-.172-.606 0-.772.404-.22.518-.165.806.166.979.44.288.882.173 1.048-.23ZM79.668 24.02c.607-.174 1.269-.289 1.876-.404.441 1.267.552 1.382 1.434.806.055-.69-.276-1.037-.882-1.152-.056-.23-.056-.46-.11-.633a53.433 53.433 0 0 0-3.2 1.267c.11.173.44.23.882.115ZM59.919 54.316c.22-.518.11-.979-.276-1.21-.386-.23-.938-.114-1.049.174-.22.46 0 1.21.442 1.44.276.172.717-.058.883-.404ZM66.096 44.93c-.386.058-.993.749-.938 1.152.055.461.496.807.993.807.441 0 .938-.519.883-.98-.056-.518-.552-1.036-.938-.979ZM67.254 41.938c-.055-.576-.276-.864-.552-.864-.33 0-.772.519-.772.922 0 .345.551.633.882.576.332 0 .497-.288.442-.634ZM68.854 42.797c.166-.288 0-.518-.22-.576-.166-.057-.662-.057-.773.058-.11.115.166.576.331.749.221.173.497.057.662-.23ZM67.697 39.4c.441 0 .828-.345.883-.69.055-.346-.386-.98-.773-1.095-.276-.058-.662-.173-.772.115-.22.461-.552.634-.938.749-.331.115-.441.403-.331.749.11.345.607.576.828.345a1.134 1.134 0 0 1 1.103-.172ZM65.213 42.742c-.055-.518-.551-.922-1.158-.922-.607 0-.938.461-.883 1.21.055.749.386 1.094 1.048 1.037.662-.058 1.049-.576.993-1.325ZM65.93 49.708c-.165-.115-.606-.058-.772.23-.165.288.166.692.331.864.11.116.828.173.993-.115.166-.288-.33-.806-.551-.979ZM66.98 49.018c0-.288-.387-.576-.718-.518-.33.057-.496.403-.441.748.055.346.276.519.607.461.33 0 .607-.345.552-.691ZM65.71 32.888c.332-.057.883-.69.883-.979v-.057c-.33.345-.717.633-1.048.979 0 .057.055.057.165.057ZM73.71 43.487c.054-.115.11-.46-.056-.519-.11-.057-.386.116-.441.23-.055.116-.055.346.11.404.166.058.331 0 .386-.115ZM74.26 39.112c.166 0 .332 0 .497-.173.166-.172 0-.403-.22-.518-.22-.058-.552 0-.718.115a.314.314 0 0 0-.055.461c.11.173.276.115.497.115Z" fill="#42D4C6"/><path d="M68.8 44.353c.276-.058.552-.115.552-.46-.055-.52-.33-.807-.662-.807a.71.71 0 0 0-.607.806c.11.346.386.576.717.461ZM74.648 37.094a.629.629 0 0 0-.551.058c.055-.115.11-.23.055-.346 0-.115-.22-.345-.331-.345-.166 0-.442.115-.497.23-.22.403.055.576.331.807.11 0 .166-.058.221-.115l-.055.057c-.11.288 0 .634.276.749.33.173.717.057.883-.23.055-.289-.11-.75-.332-.865ZM70.235 39.804c-.055-.691-.331-.98-.772-.922-.331.058-.773.634-.662.98.055.345.662.69.993.633.276-.058.496-.346.441-.691ZM64.055 45.966c.055-.115 0-.346-.11-.403-.056-.058-.332 0-.387.057-.055.116-.165.404 0 .519.22.115.441-.058.497-.173ZM70.123 42.681c.497-.057.552-.518.662-.864-.496-.518-.772-.633-1.048-.403-.22.173-.33.403-.276.691.055.346.331.634.662.576ZM72.992 40.202c.22.115.441.058.552-.288.055-.288.055-.518-.221-.633-.22-.058-.772-.058-.883.115-.055.345.386.69.552.806ZM64.332 36.292c.44-.288.717.058 1.048.23.441.231.772.058.938-.403 0-.057 0-.115.055-.115s.11.058.165.058c.056.057.166.115.166.173.055.057.276-.058.33-.058v-.173c.111-.057.166-.115.277-.115v.058c0-.288-.055-.576-.055-.922-.221-.058-.387-.115-.552-.115a.67.67 0 0 0-.552.288c-.165-.115-.33-.23-.607-.173-.276 0-.551.115-.827-.288.055-.173.22-.346.22-.518a4.1 4.1 0 0 0-.165-.461c-.441.46-.883.921-1.27 1.382.111.519.387 1.152.718 1.267 0-.057.055-.057.11-.115ZM64.055 40.264c0-.69-.662-1.267-1.324-1.21-.607.058-.938.462-.994 1.095-.055 0-.11.058-.11.058-.055.115 0 .46.11.518.11.691.552 1.095 1.16 1.037.716 0 1.158-.634 1.158-1.498ZM55.78 53.798c.33.172 1.048-.058 1.214-.461.165-.288-.056-.922-.387-1.152-.276-.173-.772-.058-.938.173-.275.633-.275 1.267.11 1.44ZM57.93 48.27c.166-.404.056-1.095-.275-1.268-.276-.172-.883.173-1.104.634-.165.288 0 .806.331.921.387.173.883.058 1.049-.288ZM61.185 37.728c.387.058.607-.173.883-.576a.444.444 0 0 0 .11-.23c.111.23.277.345.442.288.166-.058.331-.288.331-.461 0-.288-.11-.46-.441-.403h-.11v-.115c-.442.46-.828.979-1.215 1.497Z" fill="#42D4C6"/><path d="M55.723 47.348c.441-.115.773.172 1.159-.115.496-.346 1.048-1.152.662-2.132-.166-.46-.386-.748-.662-.921-.552 1.037-1.104 2.13-1.655 3.225.165 0 .33-.057.496-.057ZM55.944 51.264c.331 0 .607-.346.607-.634-.055-.345-.33-.633-.662-.576-.33 0-.496.23-.496.576s.22.634.551.634ZM63.06 46.14c-.33 0-.662.346-.662.692 0 .345.497.806.883.749.331 0 .497-.288.497-.634.055-.403-.331-.806-.718-.806ZM60.967 53.514c.275-.173.22-.922-.056-1.037-.276-.057-.772.46-.607.749.11.288.442.403.663.288ZM58.594 58.872c.11.058.552.173.663 0 .11-.173-.11-.576-.221-.691-.166-.173-.607-.058-.662.173-.055.172.055.46.22.518ZM57.712 57.484c.386.23.717.173.938-.173v-.057c.165-.116.22-.288.22-.519 0-.23-.11-.403-.276-.518-.055-.173-.11-.288-.22-.346-.387-.23-.828-.058-1.104.403-.22.576 0 .98.441 1.21ZM56.497 56.968c.11-.288 0-.691-.276-.864-.276-.173-.662 0-.772.288-.11.23-.055.46.11.634-.22.115-.607.288-.552.576.056.287.442.345.663.403.22.057.441-.058.496-.403 0-.115 0-.23-.11-.346.165.058.33-.057.441-.288ZM57.322 54.839c-.055-.404-.331-.634-.662-.576-.276.057-.552.46-.497.806a.626.626 0 0 0 .718.518c.276-.115.496-.403.441-.748ZM79.503 39.572c-.055-.288-.166-.518-.497-.518-.055 0-.11 0-.165.057.055-.057.055-.057.055-.115.22-.345.166-.69-.11-.864-.331-.23-.993-.057-1.214.288-.166.288-.055.75.22.922.221.115.497.115.718 0-.055.115-.11.23-.11.345 0 .23.386.404.717.346.276-.058.386-.23.386-.46ZM78.786 43.776c0-.173-.22-.288-.331-.288-.11 0-.442.115-.386.288.055.173.275.23.33.23.166-.057.442-.114.387-.23ZM71.282 50.288c-.055-.46-.386-.863-.717-.806-.496.058-.938.691-.883 1.21 0 .345.442.633.828.576.496-.115.828-.461.772-.98ZM79.778 46.024c0 .116.166.173.221.173.055 0 .11-.173.11-.173 0-.057-.055-.172-.165-.172-.11 0-.22.057-.166.172ZM78.567 46.138c.33-.057.496-.345.496-.749-.055-.403-.22-.633-.496-.576-.331.058-.718.519-.662.807-.056.345.275.576.662.518ZM80.938 42.107c.22-.518 0-1.037-.552-1.267-.386-.173-.993.115-1.159.576-.22.46 0 .921.552 1.21.496.172.938 0 1.159-.519ZM69.738 53.341c0 .346.166.576.552.576s.607-.23.607-.576c0-.288-.276-.576-.552-.576-.33-.057-.607.23-.607.576ZM54.013 55.7c.22-.403.055-1.094-.276-1.324-.33-.173-.772-.173-1.048 0-.11.288-.166.633-.276.921.055.23.166.461.276.634-.166 0-.331 0-.441.058-.166.576-.276 1.152-.387 1.728v.057l-.055.058-.165.691c.055.115.11.23.22.346.276.172.938 0 1.104-.346.11-.173.11-.346 0-.46v-.058c.055-.23.055-.461.165-.634.221-.346.276-.691.11-1.095l-.055-.057c.387-.115.662-.288.828-.519ZM53.242 63.883a1.23 1.23 0 0 0-.331-.864c.055-.058.055-.115.11-.115.33-.577.11-.98-.276-1.383.22-.288.552-.518.276-.922-.166-.287-.441-.345-.717-.23-.056.058-.11.058-.166.115a1.03 1.03 0 0 0-.662-.23c-.166.864-.276 1.785-.386 2.707.11.288.22.519.441.634-.055.115-.055.172-.11.288-.11.46.33 1.152.772 1.21.387-.058 1.104-.577 1.049-1.21ZM63.504 58.411c0 .115.165.173.22.173.056 0 .11-.173.11-.173 0-.058-.054-.173-.165-.173-.11 0-.165.058-.165.173ZM64.441 55.816c.166-.115.442-.403.442-.749.165-.057.276-.115.33-.288.166-.288 0-.748-.275-.864a.692.692 0 0 0-.828.288c-.11-.23-.11-.518-.386-.806-.11-.058-.22-.115-.276-.115-.717-.115-1.159.403-.938 1.094.11.403.331.806.552 1.152.22.46.938.519 1.38.288ZM64.827 60.537c.165-.345.055-.69-.276-.921-.276-.173-.662 0-.828.288-.165.345-.11.749.22.921.332.173.718 0 .884-.288ZM66.923 52.59c.055-.231-.276-.577-.497-.462-.165.058-.276.288-.276.461 0 .173.166.576.387.576.165 0 .33-.403.386-.576ZM61.794 58.464c0-.346-.552-.691-.994-.633-.496.057-.772.46-.717.979.055.518.386.921.773.864.551-.115.993-.691.938-1.21ZM60.192 62.152c.055-.288-.11-.921-.662-.806-.11.058-.166.115-.22.173a.412.412 0 0 0-.277-.115c-.165 0-.22.115-.276.23-.22-.058-.441-.173-.827-.058-.11.058-.22.173-.276.173-.497.518-.331 1.21.331 1.383.386.115.828.172 1.269.172.441-.115.938-.69.938-1.152ZM53.96 65.15c.33.057.44-.288.496-.577-.166-.345-.441-.518-.772-.345-.11.058-.221.346-.221.46.165.174.33.404.496.462ZM56.44 63.826c.056-.346-.662-.691-.827-.518-.166.172-.055.921.22.979.276 0 .608-.23.608-.46ZM68.302 58.982c.387 0 .607-.346.552-.75-.055-.287-.33-.575-.662-.518-.386.058-.662.346-.607.692 0 .345.331.576.717.576ZM67.365 51.841c.386 0 .938-.633.938-.979-.055-.518-.386-.749-.938-.749-.441.058-.662.404-.607.98 0 .46.276.748.607.748ZM70.346 47.234c0-.345-.386-.691-.662-.691-.662.058-1.104.403-1.049.864.056.403.607.864 1.049.806.276-.057.662-.633.662-.979ZM76.249 37.615c.607-.057 1.158-.69 1.103-1.267-.055-.518-.662-1.094-1.214-1.094-.606 0-.993.576-.938 1.325 0 .633.442 1.094 1.049 1.036ZM65.819 64.342c.386-.115.331-.633.22-.806-.11-.173-.606-.23-.827.115-.055.115-.055.403.055.518.166.058.442.173.552.173ZM66.592 61.692c.056-.173-.165-.633-.551-.633-.11 0-.331.172-.386.288-.056.172 0 .46.11.576.33.288.772-.058.827-.23ZM80.386 24.94c-.276-.114-.552-.23-.773-.345-.386-.173-.938 0-1.158.346-.166.288-.055.806.165.864.386.115.773.345 1.214.115.662-.173.717-.23.552-.98ZM77.627 31.397c-.055-.403-.717-1.037-.993-.98-.386.058-.717.634-.607 1.21.055.519.442.692.993.634.332-.058.663-.519.607-.864ZM72.166 44.01c.055-.462.055-.865-.387-1.038-.165-.057-.441.058-.496.173-.11.23-.11.576-.055.749.22.46.607.23.938.115ZM72.882 49.884a.62.62 0 0 0 .497-.634c0-.403-.276-.69-.662-.633-.331.057-.607.403-.552.69 0 .289.386.577.717.577ZM75.31 47.927c.055-.057 0-.288-.11-.345-.11-.058-.276.057-.386.172-.056.058-.056.346.055.404.165.115.386-.116.441-.23ZM77.022 54.951c.275 0 .44-.748.44-1.036 0-.173-.275-.576-.606-.519-.331.058-.441.519-.497.749 0 .173.387.806.663.806ZM76.468 39.63c-.11-.23-.33-.288-.496-.345-.276-.058-.552.23-.552.576.055.288.22.46.496.518.276 0 .663-.518.552-.749ZM75.586 41.991c.055-.173-.386-.633-.662-.576-.276.058-.276.288-.276.519 0 .288.276.518.497.403.22-.058.441-.173.441-.346ZM72.994 56.103c.276-.058.552-.403.552-.691-.055-.288-.386-.576-.662-.576a.49.49 0 0 0-.497.576c0 .403.276.749.607.691ZM74.205 46.14c.442-.057.883-.576.883-.98-.055-.345-.607-.633-1.103-.633-.332.058-.607.461-.552.807.055.518.441.864.772.806ZM74.868 51.379c.165-.115.22-.346.22-.576 0-.23-.11-.461-.441-.403-.276.057-.497.172-.497.518 0 .23.552.518.718.46ZM78.731 35.256c.276.288.497.691.939.345.275-.172.386-.46.275-.806-.055-.115-.165-.288-.22-.288-.276-.058-.607 0-.938-.058-.442-.576-.993-.806-1.324-.576-.331.288-.442 1.095-.11 1.498.22.518.55.518 1.379-.115ZM82.098 37.384c.276-.576.22-1.325-.221-1.555-.497-.288-1.49-.058-1.71.46-.221.519 0 1.268.441 1.498.552.23 1.214.058 1.49-.403ZM78.73 36.175c0 .115.056.403.276.403.221 0 .221-.288.221-.46 0-.059-.166-.231-.22-.231-.111.057-.276.172-.276.288ZM79.392 50.174c.11 0 .276-.173.276-.288 0-.116-.165-.288-.276-.288-.11 0-.441.115-.386.288.055.23.331.288.386.288Z" fill="#42D4C6"/></g></svg>