<svg xmlns="http://www.w3.org/2000/svg" viewBox="15 15 70 70" fill="none"><circle cx="50" cy="50" r="35" fill="#0060d5"/><mask id="A" maskUnits="userSpaceOnUse" x="15" y="15" width="70" height="70" mask-type="alpha"><circle cx="50" cy="50" r="35" fill="#0060d5"/></mask><g mask="url(#A)"><path fill-rule="evenodd" d="M49.293 36.565l-2.828-2.828a5 5 0 0 0-7.071 0l-5.657 5.657a5 5 0 0 0 0 7.071l2.828 2.828 12.728-12.728zm-.707-4.95a8 8 0 0 0-11.314 0l-5.657 5.657a8 8 0 0 0 0 11.314l4.95 4.95 16.971-16.971-4.95-4.95zm17.678 21.92l-2.828-2.828-12.728 12.728 2.828 2.828a5 5 0 0 0 7.071 0l5.657-5.657a5 5 0 0 0 0-7.071zm-2.828-7.071l-16.97 16.971 4.95 4.95a8 8 0 0 0 11.314 0l5.657-5.657a8 8 0 0 0 0-11.314l-4.95-4.95z" fill="#fff"/><rect x="23.13" y="21.716" width="20" height="3" rx="1.5" transform="rotate(45 23.13 21.716)" fill="#fff"/><rect x="64.142" y="62.728" width="20" height="3" rx="1.5" transform="rotate(45 64.142 62.728)" fill="#fff"/><rect x="40.101" y="45.757" width="11" height="3" rx="1.5" transform="rotate(45 40.101 45.757)" fill="#fff"/><rect x="47.879" y="37.979" width="11" height="3" rx="1.5" transform="rotate(45 47.879 37.979)" fill="#fff"/></g></svg>