<svg xmlns="http://www.w3.org/2000/svg" width="40" height="40" fill="none" viewBox="0 0 40 40">
  <rect width="40" height="40" fill="#79AAD9" rx="20"/>
  <path fill="#343741" d="m15.524 14.574.053-.139a.738.738 0 0 1 1.346 0c.01.022.024.061.054.14.072.192.108.288.144.379a8.851 8.851 0 0 0 4.925 4.925c.091.036.188.072.38.144l.139.054a.738.738 0 0 1 0 1.346c-.022.01-.061.024-.14.054-.192.072-.288.108-.379.144a8.851 8.851 0 0 0-4.925 4.925c-.036.091-.072.188-.144.38l-.054.139a.738.738 0 0 1-1.346 0 3.367 3.367 0 0 1-.053-.14c-.073-.192-.109-.288-.145-.379a8.851 8.851 0 0 0-4.925-4.925c-.091-.036-.188-.072-.38-.144l-.138-.054a.738.738 0 0 1 0-1.346c.02-.01.06-.024.138-.054a8.851 8.851 0 0 0 5.304-5.07c.037-.09.073-.187.146-.379Zm10.153-3.319.024-.061a.328.328 0 0 1 .598 0l.024.061.064.169c.4.998 1.19 1.789 2.19 2.189l.168.064.061.024a.328.328 0 0 1 0 .598l-.061.024-.169.064a3.932 3.932 0 0 0-2.189 2.19l-.064.168-.024.061a.328.328 0 0 1-.598 0l-.024-.061-.064-.169a3.933 3.933 0 0 0-2.19-2.189l-.168-.064-.061-.024a.328.328 0 0 1 0-.598l.061-.024.169-.064a3.932 3.932 0 0 0 2.189-2.19l.064-.168Zm-.831 12.065a1.77 1.77 0 0 1 .03-.078.41.41 0 0 1 .748 0l.03.077.08.21a4.916 4.916 0 0 0 2.947 2.817l.077.03a.41.41 0 0 1 0 .748 1.77 1.77 0 0 1-.077.03l-.21.08a4.916 4.916 0 0 0-2.737 2.736l-.08.21a1.77 1.77 0 0 1-.03.078.41.41 0 0 1-.748 0 4.916 4.916 0 0 0-2.846-3.024l-.21-.08a1.77 1.77 0 0 1-.078-.03.41.41 0 0 1 0-.748 4.916 4.916 0 0 0 3.104-3.057Z"/>
</svg>
