<svg xmlns="http://www.w3.org/2000/svg" width="148" height="96" fill="none"><g fill="#DAE0EB" clip-path="url(#a)"><path d="M-7.638 21.07a114.06 114.06 0 0 0 72.245 37.342 118.8 118.8 0 0 0 42.647-2.602c13.553-3.356 29.664-9.138 39.634-19.273a1.09 1.09 0 0 0 .065-1.425 1.106 1.106 0 0 0-1.404-.286c-13.256 6.13-24.819 13.776-39.257 17.425a115.5 115.5 0 0 1-40.684 2.837A122.57 122.57 0 0 1-6.969 20.411c-.44-.436-1.05.28-.666.672z"/><path d="M143.924 56.349c2.504-1.16 2.701-6.536 3.122-8.757.709-3.752 1.782-7.616 2.123-11.43.24-2.624-.378-3.885-3.16-4.135-6.65-.73-13.346-.93-20.025-.597a.665.665 0 0 0-.661.57.66.66 0 0 0 .486.727 57.5 57.5 0 0 0 12.74 3.29c1.647.261 3.772.133 5.639.29-.087.49-.122 1.008-.215 1.367l-1.686 7.59c-.588 2.687-1.769 7.176-.608 10.823.305.807 1.547.593 2.245.262"/></g><defs><clipPath id="a"><path fill="#fff" d="M0 0h148v96H0z"/></clipPath></defs></svg>