<svg xmlns="http://www.w3.org/2000/svg" width="32" height="32" fill="#343741"><path d="M2 12v6h6v2H0v-8zm18 0v8h-8v-2h6v-6zM8 0v2H2v6H0V0zm12 0v8h-2V2h-6V0z"/><path fill="#017D73" d="M16 24a4 4 0 1 1 0 8 4 4 0 0 1 0-8m12 0a4 4 0 1 1 0 8 4 4 0 0 1 0-8m-12 1.75a2.25 2.25 0 1 0 0 4.5 2.25 2.25 0 0 0 0-4.5m12 0a2.25 2.25 0 1 0 0 4.5 2.25 2.25 0 0 0 0-4.5M28 12a4 4 0 1 1 0 8 4 4 0 0 1 0-8m0 1.75a2.25 2.25 0 1 0 0 4.5 2.25 2.25 0 0 0 0-4.5M10 6a4 4 0 1 1 0 8 4 4 0 0 1 0-8m0 1.75a2.25 2.25 0 1 0 0 4.5 2.25 2.25 0 0 0 0-4.5"/></svg>