<svg xmlns="http://www.w3.org/2000/svg" width="128" height="128" fill="none"><path fill="#512BD4" d="M128 0H0v128h128z"/><path fill="#fff" d="M22.814 81.778q-1.358 0-2.308-.905-.95-.928-.95-2.204 0-1.299.95-2.227t2.308-.928q1.38 0 2.33.928.973.927.973 2.227 0 1.275-.973 2.204-.95.905-2.33.905M58.994 81.267h-5.883L37.612 56.816a11 11 0 0 1-.973-1.926h-.136q.182 1.068.182 4.57v21.807H31.48V48h6.268l14.979 23.872q.95 1.485 1.222 2.041h.09q-.226-1.322-.226-4.477V48h5.181zM84.337 81.267H66.122V48h17.49v4.686H71.509v9.419h11.154v4.663H71.508v9.836h12.829zM110.222 52.686H100.9v28.581h-5.385v-28.58h-9.3V48h24.007z"/></svg>