<svg xmlns="http://www.w3.org/2000/svg" width="128" height="128" fill="none"><path fill="#343741" fill-rule="evenodd" d="M4 64.002c0 5.536.776 10.876 2.096 16H84c8.836 0 16-7.164 16-16 0-8.84-7.164-16-16-16H6.096C4.776 53.122 4 58.466 4 64.002" clip-rule="evenodd"/><mask id="a" width="108" height="37" x="10" y="0" maskUnits="userSpaceOnUse" style="mask-type:alpha"><path fill="#fff" fill-rule="evenodd" d="M10.575.002h107.341v36H10.576z" clip-rule="evenodd"/></mask><g mask="url(#a)"><path fill="#FEC514" fill-rule="evenodd" d="M111.695 30.646a61 61 0 0 0 6.224-6.644c-11.732-14.62-29.72-24-49.92-24-25.284 0-47.044 14.708-57.424 36h87.468a20.14 20.14 0 0 0 13.652-5.356" clip-rule="evenodd"/></g><mask id="b" width="108" height="37" x="10" y="92" maskUnits="userSpaceOnUse" style="mask-type:alpha"><path fill="#fff" fill-rule="evenodd" d="M10.575 92.002h107.341V128H10.576z" clip-rule="evenodd"/></mask><g mask="url(#b)"><path fill="#00BFB3" fill-rule="evenodd" d="M98.043 92.002H10.575c10.384 21.288 32.14 36 57.424 36 20.2 0 38.188-9.384 49.92-24a61 61 0 0 0-6.224-6.648 20.12 20.12 0 0 0-13.652-5.352" clip-rule="evenodd"/></g></svg>