<svg xmlns="http://www.w3.org/2000/svg" width="128" height="128" fill="none"><path fill="#00ACD7" d="M9.66 54.48c-.249 0-.311-.125-.187-.312l1.31-1.683c.124-.187.435-.311.685-.311h22.248c.25 0 .312.187.187.374l-1.06 1.62c-.124.187-.435.374-.622.374zM.25 60.213c-.25 0-.312-.124-.188-.312l1.31-1.682c.124-.187.435-.312.685-.312h28.418c.25 0 .374.187.312.374l-.499 1.496c-.062.25-.311.374-.56.374zM15.331 65.947c-.249 0-.311-.187-.187-.374l.873-1.558c.125-.187.374-.374.623-.374h12.464c.25 0 .374.187.374.436l-.124 1.496c0 .249-.25.436-.437.436zM80.02 53.358c-3.925.997-6.605 1.745-10.47 2.742-.934.25-.996.312-1.807-.623-.934-1.06-1.62-1.745-2.929-2.368-3.926-1.932-7.727-1.371-11.28.935-4.238 2.742-6.419 6.793-6.357 11.84.063 4.986 3.49 9.1 8.414 9.785 4.238.561 7.79-.935 10.594-4.113.561-.686 1.06-1.433 1.683-2.306H55.84c-1.309 0-1.62-.81-1.184-1.87.81-1.931 2.306-5.172 3.178-6.793.187-.373.624-.997 1.558-.997h22.685c-.124 1.683-.124 3.366-.374 5.048-.685 4.487-2.368 8.6-5.11 12.215-4.487 5.92-10.345 9.598-17.762 10.595-6.107.81-11.778-.374-16.764-4.113-4.612-3.49-7.23-8.102-7.915-13.836-.81-6.793 1.184-12.9 5.298-18.26 4.424-5.796 10.283-9.473 17.45-10.781 5.858-1.06 11.467-.374 16.515 3.053 3.303 2.182 5.67 5.173 7.229 8.788.374.56.125.872-.623 1.06"/><path fill="#00ACD7" d="M100.649 87.822c-5.67-.125-10.844-1.745-15.206-5.484-3.677-3.179-5.983-7.23-6.73-12.028-1.122-7.043.81-13.275 5.047-18.821 4.55-5.983 10.034-9.1 17.45-10.408 6.357-1.122 12.34-.499 17.762 3.178 4.923 3.366 7.977 7.915 8.787 13.898 1.06 8.413-1.371 15.269-7.167 21.127-4.113 4.175-9.161 6.793-14.957 7.977-1.683.312-3.365.374-4.986.56m14.833-25.178c-.062-.81-.062-1.433-.187-2.056-1.122-6.17-6.793-9.66-12.714-8.29-5.796 1.31-9.535 4.986-10.906 10.845-1.122 4.86 1.246 9.784 5.734 11.778 3.427 1.496 6.855 1.31 10.158-.374 4.923-2.555 7.603-6.543 7.915-11.903"/></svg>