<svg xmlns="http://www.w3.org/2000/svg" width="131" height="128" fill="none"><path fill="#5382A1" d="M48.896 98.265s-4.779 2.795 3.401 3.741c9.91 1.137 14.975.974 25.896-1.105 0 0 2.87 1.811 6.88 3.379-24.48 10.552-55.406-.611-36.177-6.015M45.905 84.496s-5.36 3.99 2.825 4.841c10.587 1.099 18.947 1.188 33.413-1.613 0 0 2 2.04 5.147 3.156-29.6 8.704-62.569.686-41.386-6.384"/><path fill="#E76F00" d="M71.124 61.137c6.032 6.985-1.585 13.27-1.585 13.27s15.317-7.952 8.283-17.91c-6.57-9.286-11.608-13.9 15.667-29.809 0 0-42.813 10.754-22.365 34.45"/><path fill="#5382A1" d="M103.503 108.45s3.537 2.931-3.895 5.198c-14.131 4.305-58.815 5.605-71.228.172-4.462-1.953 3.905-4.662 6.538-5.23 2.745-.599 4.313-.487 4.313-.487-4.962-3.516-32.074 6.903-13.771 9.887 49.915 8.14 90.99-3.666 78.043-9.54M51.194 70.228s-22.729 5.43-8.049 7.401c6.199.835 18.555.646 30.065-.324 9.406-.798 18.851-2.495 18.851-2.495s-3.317 1.429-5.716 3.077c-23.081 6.105-67.67 3.265-54.833-2.98 10.856-5.277 19.682-4.679 19.682-4.679M91.968 93.149c23.463-12.262 12.614-24.045 5.042-22.458-1.856.389-2.683.725-2.683.725s.689-1.085 2.005-1.555c14.98-5.296 26.5 15.621-4.836 23.906 0 0 .363-.326.472-.618"/><path fill="#E76F00" d="M77.822 1s12.994 13.073-12.325 33.174c-20.303 16.126-4.63 25.32-.008 35.824-11.851-10.753-20.549-20.22-14.714-29.03C59.34 28.035 83.065 21.765 77.822 1"/><path fill="#5382A1" d="M53.5 126.375c22.521 1.45 57.106-.804 57.925-11.521 0 0-1.575 4.062-18.613 7.289-19.223 3.638-42.931 3.213-56.993.882 0-.001 2.879 2.396 17.68 3.35"/></svg>