<svg xmlns="http://www.w3.org/2000/svg" width="128" height="136" fill="none"><path fill="#004065" d="M122.425 63.85s-2.132-2.313-2.621-5.358c-.49-3.046 1.031-2.06 1.031-2.06s-.797-4.035-3.847-7.37c-3.049-3.337-6.342-7.3-7.997-12.72s-4.334-8.486-6.17-10.603-2.789-6.427-3.878-7.941c-1.09-1.514-1.715-10.173-9.13-13.711S69.515 5.803 65.816 8.729c-3.7 2.926-6.763 10.964-11.217 14.432s-8.233 3.742-11.59 10.299c-3.358 6.556-3.94 10.234-3.554 13.93 0 0-2.658.468-3.06-1.008s.388-6.567 1.051-8.11c0 0 .787.597.71 1.25 0 0 1.994-4.726.446-7.428 0 0 .76.118 1.148.473 0 0 .67-4.384.512-7.215-.157-2.832-1.35-4.973-3.294-6.147 0 0 1.297-1.895-.37-3.785 0 0-.783-1.551-2.71-3.335-1.925-1.784-3.36-2.814-5.195-2.656 0 0 .281-.713.577-1.154 0 0-1.547.27-2.039 1.01 0 0-.883-.471-1.111-1.692 0 0-1.474.51-1.579 1.59 0 0-3.36-.935-4.568 2.721 0 0 .547.182.728.549 0 0-.42 1.097-2.5 1.372s-8.08.45-9.857 1.189c-1.778.74-2.497 1.428-2.455 2.18 0 0-.887.477-1.204 2.482 0 0-1.383.774-1.315 2.004s.832.835.832.835-.72 2.492 2.285 2.485c0 0 .547 1.204 3.12 1.06 2.572-.142 4.456.182 5.624 1.732 0 0-.676 3.258-3.884 6.385q.752.055 1.501-.027s-2.807 2.623-3.355 6.247c0 0 .962-1.07 1.553-1.047 0 0-3.123 10.42 2.574 20.248 0 0 .423-1.041.633-1.157 0 0-.021 3.438 2.216 5.994 0 0 .077-1.506.846-2.09 0 0 3.53 5.653 6.967 8.09s8.533 3.388 9.804 6.002c0 0 1.656-2.071 1.584-3.357 0 0 .547 1.2.459 2.49 0 0 1.928-1.068 2.537-1.64.61-.57 3.29-2.65 3.83.43.54 3.078-2.227 9.457 1.053 17.007 0 0-.921 1.453-.817 3.322.103 1.87 1.58 2.717 1.628 3.572.047.854-.504 2.463-.413 4.101.09 1.637 1.734 4.178.706 10.108-1.03 5.93-1.513 7.536-2.248 8.578s-3.7 2.93-2.966 5.745c0 0-7.15 1.327-6.943 3.819.206 2.493 3.896 3.069 8.241 2.828 4.346-.242 5.437-1.224 5.453-2.803s-1.101-1.802-.154-2.78 1.966-2.112 1.6-6.026S49 114.172 49 114.172s-.546-3.335.485-5.463 3.865-6.369 1.456-12.46c0 0 .579.184 1.293.208 0 0-1.404-3.355.579-7.616s2.657-12.739 2.657-12.739 5.088.15 7.27-.403c0 0-4.285 10.433-3.365 18.054 0 0-1.146 1.294-1.07 2.647.075 1.354.888 3.024 2.162 4.167 1.273 1.143 5.41 3.345 7.765 5.858 2.355 2.514 4.023 5.354 4.706 6.109 0 0-1.99 1.472-1.304 3.578 0 0-2.033.754-1.718 2.527 0 0-2.992.238-4.486 1.683s-2.182 3.27-.72 3.758c1.46.488 6.74.198 8.518.1 1.777-.099 3.774-1.572 3.867-2.499.093-.926-.817-3.175-.817-3.175s1.078.084 1.434-1.226c0 0 2.409 7.306 5.464 6.92 0 0 .424-.092.46-.739 0 0 1.446.281 2.12-.478.676-.759 1.827-10.902-4.24-10.713 0 0 .372-1.023-.814-1.67S89.866 95.284 91.077 94c0 0-2.267-12.462.535-18.7l5.137-10.516s1.388 13.444 8.097 23.443a5.24 5.24 0 0 0 1.048 3.447c-.172 1.94-.904 2.983-.769 5.41.135 2.43 2.273 8.744.948 15.829-.266 1.417-3.47 5.773-2.065 9.128 0 0-2.761 1.796-2.642 3.941s1.421 2.497 2.355 2.445c.935-.052 1.375-1.006 1.874-1.033.499-.028 1.289 1.29 3.57 1.163 2.28-.126 4.17-2.09 4.111-3.161-.059-1.07-2.012-2.748-2.012-2.748s1.151-1.21 1.072-2.632-2.135-3.671-2.301-6.666.134-8.845 1.151-11.442c2.035-5.193 1.564-9.209.155-10.2 0 0 .53-3.282.34-6.71-.19-3.426-3.335-12.441-1.639-21.798 0 0 2.422-3.996 2.66-10.091 0 0 5.316 9.44 2.125 16.407s-2.479 6.868-2.436 8.933 1.272 4.87 1.272 4.87l3.071-3.489s-.166-2.274 1.312-4.006 2.377-6.246 1.59-7.436l1.189.775s.452-2.172-.792-5.244c0 0 1.114-.635 2.4-.065zm-41.04 34.47-5 9.147s-4.416-2.187-5.917-4.824-2.742-4.282-3.336-4.678c0 0 1.614-2.453 1.903-4.969 0 0 .77.017 1.287 1.531 2.415-3.403 3.908-7.028 4.177-10.768 0 0 .675.603 1.262.787 0 0-.075-2.572.753-4.477.827-1.904 2.69-4.371 2.779-7.954l1.278-.07s-.627 8.046.824 14.832c1.45 6.786 1.225 9.227-.005 11.446z"/></svg>