<svg xmlns="http://www.w3.org/2000/svg" width="128" height="128" fill="none"><path fill="url(#a)" d="M63.441.451C58.203.475 53.2.918 48.798 1.691 35.831 3.96 33.477 8.712 33.477 17.477v11.575H64.12v3.858H21.977c-8.906 0-16.704 5.306-19.143 15.399-2.814 11.568-2.938 18.787 0 30.867 2.178 8.991 7.38 15.398 16.286 15.398h10.535V80.7c0-10.025 8.751-18.867 19.143-18.867h30.607c8.52 0 15.322-6.953 15.322-15.434v-28.92c0-8.231-7.006-14.414-15.322-15.788C74.141.822 68.68.427 63.441.451M46.87 9.761c3.165 0 5.75 2.604 5.75 5.805 0 3.19-2.585 5.77-5.75 5.77-3.177 0-5.75-2.58-5.75-5.77 0-3.201 2.573-5.805 5.75-5.805"/><path fill="url(#b)" d="M98.548 32.911v13.487c0 10.456-8.944 19.256-19.143 19.256H48.798c-8.384 0-15.321 7.112-15.321 15.434v28.92c0 8.231 7.22 13.073 15.321 15.434 9.7 2.827 19.001 3.338 30.607 0 7.715-2.214 15.322-6.669 15.322-15.434V98.433H64.119v-3.858h45.929c8.906 0 12.224-6.157 15.321-15.398 3.2-9.514 3.064-18.663 0-30.868-2.2-8.787-6.404-15.398-15.321-15.398zM81.334 106.15c3.176 0 5.75 2.58 5.75 5.77 0 3.202-2.574 5.805-5.75 5.805-3.166 0-5.75-2.603-5.75-5.805 0-3.19 2.584-5.77 5.75-5.77"/><defs><linearGradient id="a" x1=".677" x2="70.807" y1=".45" y2="60.744" gradientUnits="userSpaceOnUse"><stop stop-color="#5A9FD4"/><stop offset="1" stop-color="#306998"/></linearGradient><linearGradient id="b" x1="80.597" x2="55.545" y1="110.947" y2="75.528" gradientUnits="userSpaceOnUse"><stop stop-color="#FFD43B"/><stop offset="1" stop-color="#FFE873"/></linearGradient></defs></svg>