<svg xmlns="http://www.w3.org/2000/svg" width="128" height="128" fill="none"><path fill="url(#a)" d="m98.832 84.01-72.83 43.25 94.304-6.397 7.262-95.094-28.731 58.242z"/><path fill="url(#b)" d="m120.461 120.799-8.105-55.946-22.078 29.153z"/><path fill="url(#c)" d="m120.573 120.799-59.384-4.661-34.877 10.999z"/><path fill="url(#d)" d="m26.398 127.153 14.838-48.599L8.59 85.533z"/><path fill="url(#e)" d="M90.273 94.167 76.626 40.698 37.557 77.316z"/><path fill="url(#f)" d="M124.476 41.45 87.549 11.295 77.266 44.537z"/><path fill="url(#g)" d="M107.203.54 85.488 12.539 71.788.375l35.415.16z"/><path fill="url(#h)" d="m0 101.834 9.098-16.59-7.357-19.766L0 101.84z"/><path fill="#fff" d="m1.25 64.853 7.405 21 32.175-7.219 36.735-34.14 10.364-32.922L71.606.044 43.852 10.43c-8.74 8.132-25.709 24.225-26.323 24.524-.603.31-11.202 20.343-16.28 29.9"/><path fill="url(#i)" d="M27.252 27.12C46.202 8.331 70.629-2.77 80.005 6.692c9.365 9.456-.572 32.442-19.521 51.226S17.411 88.41 8.041 78.955c-9.376-9.451.256-33.051 19.21-51.835"/><path fill="url(#j)" d="m26.398 127.132 14.72-48.749L90 94.081c-17.673 16.573-37.333 30.589-63.602 33.051"/><path fill="url(#k)" d="m77.629 44.404 12.547 49.709c14.763-15.527 28.016-32.218 34.503-52.86z"/><path fill="url(#l)" d="M124.552 41.504c5.019-15.158 6.183-36.9-17.503-40.937L87.614 11.3z"/><path fill="#9E1209" d="M0 101.615c.694 25.02 18.741 25.389 26.43 25.607L8.67 85.752z"/><path fill="url(#m)" d="M77.698 44.478c11.347 6.974 34.21 20.979 34.674 21.235.721.406 9.857-15.41 11.928-24.347z"/><path fill="url(#n)" d="m41.097 78.378 19.681 37.963c11.634-6.311 20.744-13.995 29.089-22.233z"/><path fill="url(#o)" d="M8.596 85.805 5.81 119c5.26 7.187 12.494 7.811 20.087 7.251-5.489-13.669-16.461-41.006-17.3-40.446"/><path fill="url(#p)" d="m87.501 11.38 39.09 5.488c-2.083-8.842-8.49-14.544-19.409-16.327z"/><defs><linearGradient id="a" x1="112.084" x2="85.2" y1="138.83" y2="91.299" gradientUnits="userSpaceOnUse"><stop stop-color="#FB7655"/><stop offset=".41" stop-color="#E42B1E"/><stop offset=".99" stop-color="#900"/><stop offset="1" stop-color="#900"/></linearGradient><linearGradient id="b" x1="125.491" x2="87.699" y1="98.918" y2="91.534" gradientUnits="userSpaceOnUse"><stop stop-color="#871101"/><stop offset=".99" stop-color="#911209"/><stop offset="1" stop-color="#911209"/></linearGradient><linearGradient id="c" x1="97.737" x2="97.251" y1="140.272" y2="116.303" gradientUnits="userSpaceOnUse"><stop stop-color="#871101"/><stop offset=".99" stop-color="#911209"/><stop offset="1" stop-color="#911209"/></linearGradient><linearGradient id="d" x1="24.913" x2="36.153" y1="82.067" y2="115.017" gradientUnits="userSpaceOnUse"><stop stop-color="#fff"/><stop offset=".23" stop-color="#E57252"/><stop offset=".46" stop-color="#DE3B20"/><stop offset=".99" stop-color="#A60003"/><stop offset="1" stop-color="#A60003"/></linearGradient><linearGradient id="e" x1="61.9" x2="63.939" y1="49.439" y2="85.1" gradientUnits="userSpaceOnUse"><stop stop-color="#fff"/><stop offset=".23" stop-color="#E4714E"/><stop offset=".56" stop-color="#BE1A0D"/><stop offset=".99" stop-color="#A80D00"/><stop offset="1" stop-color="#A80D00"/></linearGradient><linearGradient id="f" x1="94.715" x2="97.694" y1="16.479" y2="42.375" gradientUnits="userSpaceOnUse"><stop stop-color="#fff"/><stop offset=".18" stop-color="#E46342"/><stop offset=".4" stop-color="#C82410"/><stop offset=".99" stop-color="#A80D00"/><stop offset="1" stop-color="#A80D00"/></linearGradient><linearGradient id="g" x1="76.603" x2="80.806" y1="7.477" y2="-10.341" gradientUnits="userSpaceOnUse"><stop stop-color="#fff"/><stop offset=".54" stop-color="#C81F11"/><stop offset=".99" stop-color="#BF0905"/><stop offset="1" stop-color="#BF0905"/></linearGradient><linearGradient id="h" x1="2.515" x2="13.503" y1="73.161" y2="80.049" gradientUnits="userSpaceOnUse"><stop stop-color="#fff"/><stop offset=".31" stop-color="#DE4024"/><stop offset=".99" stop-color="#BF190B"/><stop offset="1" stop-color="#BF190B"/></linearGradient><linearGradient id="i" x1="-11.95" x2="86.791" y1="99.912" y2="-1.905" gradientUnits="userSpaceOnUse"><stop stop-color="#BD0012"/><stop offset=".07" stop-color="#fff"/><stop offset=".17" stop-color="#fff"/><stop offset=".27" stop-color="#C82F1C"/><stop offset=".33" stop-color="#820C01"/><stop offset=".46" stop-color="#A31601"/><stop offset=".72" stop-color="#B31301"/><stop offset=".99" stop-color="#E82609"/><stop offset="1" stop-color="#E82609"/></linearGradient><linearGradient id="j" x1="63.794" x2="35.848" y1="110.168" y2="98.433" gradientUnits="userSpaceOnUse"><stop stop-color="#8C0C01"/><stop offset=".54" stop-color="#990C00"/><stop offset=".99" stop-color="#A80D0E"/><stop offset="1" stop-color="#A80D0E"/></linearGradient><linearGradient id="k" x1="114.951" x2="86.166" y1="74.421" y2="53.977" gradientUnits="userSpaceOnUse"><stop stop-color="#7E110B"/><stop offset=".99" stop-color="#9E0C00"/><stop offset="1" stop-color="#9E0C00"/></linearGradient><linearGradient id="l" x1="124.669" x2="111.134" y1="30.911" y2="17.168" gradientUnits="userSpaceOnUse"><stop stop-color="#79130D"/><stop offset=".99" stop-color="#9E120B"/><stop offset="1" stop-color="#9E120B"/></linearGradient><linearGradient id="o" x1="17.171" x2="-7.096" y1="127.105" y2="106.96" gradientUnits="userSpaceOnUse"><stop stop-color="#8B2114"/><stop offset=".43" stop-color="#9E100A"/><stop offset=".99" stop-color="#B3100C"/><stop offset="1" stop-color="#B3100C"/></linearGradient><linearGradient id="p" x1="99.568" x2="106.461" y1="6.35" y2="23.778" gradientUnits="userSpaceOnUse"><stop stop-color="#B31000"/><stop offset=".44" stop-color="#910F08"/><stop offset=".99" stop-color="#791C12"/><stop offset="1" stop-color="#791C12"/></linearGradient><radialGradient id="m" cx="0" cy="0" r="1" gradientTransform="matrix(32.4248 0 0 16.9427 92.611 51.158)" gradientUnits="userSpaceOnUse"><stop stop-color="#A80D00"/><stop offset=".99" stop-color="#7E0E08"/><stop offset="1" stop-color="#7E0E08"/></radialGradient><radialGradient id="n" cx="0" cy="0" r="1" gradientTransform="matrix(43.1038 0 0 33.5542 47.707 93.889)" gradientUnits="userSpaceOnUse"><stop stop-color="#A30C00"/><stop offset=".99" stop-color="#800E08"/><stop offset="1" stop-color="#800E08"/></radialGradient></defs></svg>