<svg xmlns="http://www.w3.org/2000/svg" width="131" height="128" fill="none"><path fill="#000" d="M65.5 6C33.8 6 8 31.812 8 63.5S33.812 121 65.5 121 123 95.188 123 63.5 97.188 6 65.5 6m-.085 5.109a3.77 3.77 0 0 1 2.604 1.142 3.79 3.79 0 0 1-.039 5.316 3.783 3.783 0 1 1-2.565-6.458m8.66 6.228a46.55 46.55 0 0 1 31.871 22.698l-4.464 10.072a3.48 3.48 0 0 0 1.751 4.562l8.588 3.807c.267 2.685.299 5.387.097 8.077h-4.78c-.474 0-.669.317-.669.779v2.19c0 5.157-2.907 6.288-5.462 6.568-2.433.28-5.12-1.022-5.462-2.506-1.435-8.065-3.82-9.78-7.59-12.76 4.683-2.968 9.549-7.36 9.549-13.223 0-6.337-4.343-10.327-7.299-12.285-4.16-2.737-8.758-3.285-9.998-3.285H30.82a46.55 46.55 0 0 1 26.043-14.694l5.827 6.106a3.43 3.43 0 0 0 4.866.11zM20.31 45.339a3.783 3.783 0 1 1-.219 7.563 3.783 3.783 0 0 1 .22-7.563m90.197.17a3.783 3.783 0 1 1-.218 7.563 3.783 3.783 0 0 1 .218-7.563m-83.069.608h6.593v29.73H20.724a46.6 46.6 0 0 1-1.509-17.772l8.15-3.625c1.74-.779 2.53-2.81 1.752-4.55zm27.516.317h15.704c.815 0 5.729.936 5.729 4.622 0 3.053-3.771 4.148-6.873 4.148H54.942zm0 21.36h12.03c1.095 0 5.875.316 7.396 6.423.474 1.873 1.532 7.98 2.25 9.938.718 2.19 3.625 6.568 6.727 6.568h19.633a46.6 46.6 0 0 1-4.306 4.988l-7.992-1.715a3.456 3.456 0 0 0-4.1 2.651l-1.897 8.856a46.55 46.55 0 0 1-38.816-.183l-1.897-8.855a3.443 3.443 0 0 0-4.088-2.652l-7.821 1.679a46.6 46.6 0 0 1-4.039-4.769h38.038c.425 0 .717-.073.717-.474V76.795c0-.389-.291-.474-.717-.474h-11.13zM37.4 98.606a3.783 3.783 0 1 1-.22 7.563 3.783 3.783 0 0 1 .22-7.563m56.016.17a3.783 3.783 0 1 1-.22 7.563 3.783 3.783 0 0 1 .22-7.563"/><path fill="#000" fill-rule="evenodd" stroke="#000" stroke-linecap="round" stroke-linejoin="round" stroke-width="3" d="M119.584 63.5a54.083 54.083 0 1 1-108.165 0 54.083 54.083 0 0 1 108.165 0m-1.018-5.223L127 63.5l-8.434 5.223 7.246 6.774-9.282 3.478 5.792 8.059-9.803 1.6 4.12 9.04-9.925-.352 2.278 9.67-9.67-2.278.351 9.925-9.04-4.12-1.6 9.803-8.058-5.792-3.478 9.282-6.774-7.246L65.5 125l-5.223-8.434-6.774 7.246-3.478-9.282-8.059 5.792-1.6-9.803-9.04 4.12.352-9.925-9.67 2.278 2.278-9.67-9.925.351 4.12-9.04-9.803-1.6 5.792-8.058-9.282-3.478 7.246-6.774L4 63.5l8.434-5.223-7.246-6.774 9.282-3.478-5.792-8.059 9.803-1.6-4.12-9.04 9.925.352-2.278-9.67 9.67 2.278-.351-9.925 9.04 4.12 1.6-9.803 8.058 5.792 3.478-9.282 6.774 7.246L65.5 2l5.223 8.434 6.774-7.246 3.478 9.282 8.059-5.792 1.6 9.803 9.04-4.12-.352 9.925 9.67-2.278-2.278 9.67 9.925-.351-4.12 9.04 9.803 1.6-5.792 8.058 9.282 3.478z" clip-rule="evenodd"/></svg>