<svg xmlns="http://www.w3.org/2000/svg" xmlns:xlink="http://www.w3.org/1999/xlink" viewBox="0 0 37.118 41.778"><defs><linearGradient id="a" x1="3.067" x2="29.54" y1="9.93" y2="36.403" gradientUnits="userSpaceOnUse"><stop offset="0" stop-color="#c8511b"/><stop offset="1" stop-color="#f90"/></linearGradient><linearGradient xlink:href="#a" id="b" x1="13.233" x2="40.402" y1="-1.89" y2="25.278"/><linearGradient xlink:href="#a" id="c" x1="5.454" x2="32.426" y1="6.948" y2="33.92"/></defs><path d="M18.56 41.779a.77.77 0 0 1-.387-.1L.387 31.409A.77.77 0 0 1 0 30.737V10.2a.77.77 0 0 1 .387-.673L16.627.1a.774.774 0 0 1 1.16.673v8.9a.78.78 0 0 1-.387.673L9.28 15.09v10.726l9.28 5.359 8.1-4.64a.77.77 0 0 1 .773 0L35.166 31a.772.772 0 0 1 0 1.345l-16.221 9.333a.8.8 0 0 1-.385.101M1.545 30.287l17.013 9.829 14.693-8.507-6.186-3.572-8.12 4.709a.78.78 0 0 1-.774 0L8.118 26.939a.78.78 0 0 1-.387-.673v-11.6a.78.78 0 0 1 .387-.673l8.12-4.725V2.115L1.545 10.621Z" style="fill:url(#a)" transform="translate(0 -.001)"/><path d="M36.345 29.73a.77.77 0 0 1-.387-.1l-7.733-4.447a.67.67 0 0 1-.348-.673v-9.419l-8.159-4.64a.78.78 0 0 1-.387-.673V.862a.77.77 0 0 1 .387-.673.82.82 0 0 1 .773 0l16.24 9.334a.78.78 0 0 1 .387.673v18.761a.773.773 0 0 1-.773.773m-6.96-5.661 6.186 3.542V10.646L20.878 2.2v7.139L29 13.979a.78.78 0 0 1 .387.666Z" style="fill:url(#b)" transform="translate(0 -.001)"/><path d="M14.693 26.3V14.7h1.552v5.282l5.027-5.282h2.041l-5.248 5.649 5.7 5.955h-2.112l-5.408-5.418V26.3Z" style="fill:url(#c)" transform="translate(0 -.001)"/></svg>