<svg xmlns="http://www.w3.org/2000/svg" width="16" height="16" fill="none" viewBox="0 0 16 16">
  <path fill="#804998" fill-rule="evenodd" d="m7.412 4.91-2.156.929V2l2.156.836V4.91ZM3.324 2.65v2.508l1.596.68V2.032l-1.596.62Zm.168 2.322-.084-.031V2.867l.084-.031.084-.031.084-.031v2.26l-.084-.031-.084-.031Zm.42.124L3.8 5.065V2.743l.112-.03.112-.032.112-.03v2.538l-.112-.031-.112-.062Zm.504.186-.14-.062V2.588l.14-.03.14-.063.168-.062v2.941l-.168-.061-.14-.031Zm8.008-.372-2.156.929V2l2.156.836V4.91ZM8.336 2.65v2.508l1.596.68V2.032l-1.596.62Zm.168 2.322-.084-.031V2.867l.084-.031.084-.031.084-.031v2.26l-.084-.031-.084-.031Zm.42.124-.112-.031V2.743l.112-.03.112-.032.112-.03v2.538l-.112-.031-.112-.062Zm.504.186-.14-.062V2.588l.14-.03.14-.063.168-.062v2.941l-.168-.061-.14-.031Zm-2.016 7.244-2.156.928V9.616l2.156.836v2.074Zm-4.088-2.26v2.508l1.596.68V9.647l-1.596.619Zm.168 2.322-.084-.031v-2.075l.084-.03.084-.031.084-.031v2.26l-.084-.031-.084-.031Zm.42.124L3.8 12.68v-2.322l.112-.031.112-.031.112-.031v2.538l-.112-.03-.112-.062Zm.504.185-.14-.062v-2.631l.14-.031.14-.062.168-.062v2.941l-.168-.062-.14-.03Zm8.008-.371-2.156.928V9.616l2.156.836v2.074Zm-4.088-2.26v2.508l1.596.68V9.647l-1.596.619Zm.168 2.322-.084-.031v-2.075l.084-.03.084-.031.084-.031v2.26l-.084-.031-.084-.031Zm.42.124-.112-.031v-2.322l.112-.031.112-.031.112-.031v2.538l-.112-.03-.112-.062Zm.504.185-.14-.062v-2.631l.14-.031.14-.062.168-.062v2.941l-.168-.062-.14-.03Zm.644-4.179-2.128.898V5.808l2.128.836v2.074ZM5.984 6.427v2.508l1.596.68V5.809l-1.596.619Zm.168 2.322-.084-.031V6.644l.084-.031.084-.031.084-.031v2.26l-.084-.031-.084-.031Zm.42.155-.112-.031V6.55l.112-.031.112-.031.112-.031v2.539l-.112-.031-.112-.062Zm.504.185-.14-.061V6.396l.14-.03.14-.063.168-.062v2.941l-.168-.062-.14-.03Zm-1.988-.371-2.128.898V5.808l2.128.836v2.074ZM1 6.427v2.508l1.596.68V5.809L1 6.427Zm.168 2.322-.084-.031V6.644l.084-.031.084-.031.084-.031v2.26l-.084-.031-.084-.031Zm.42.155-.112-.031V6.55l.112-.031.112-.031.112-.031v2.539l-.112-.03-.112-.062Zm.504.185-.14-.061V6.396l.14-.03.14-.063.168-.062v2.941l-.168-.062-.14-.03ZM15 8.718l-2.128.898V5.808L15 6.644v2.074Z" clip-rule="evenodd"/>
  <path fill="#fff" fill-rule="evenodd" d="m7.412 4.91-2.156.929V2l2.156.836V4.91Zm5.012 0-2.156.929V2l2.156.836V4.91Zm-5.012 7.616-2.156.928V9.616l2.156.836v2.074Zm5.012 0-2.156.928V9.616l2.156.836v2.074Zm-2.352-3.808-2.128.898V5.808l2.128.836v2.074Zm-4.984 0-2.128.898V5.808l2.128.836v2.074Zm9.912 0-2.128.898V5.808L15 6.644v2.074Z" clip-rule="evenodd" opacity=".2"/>
  <path fill="#804998" fill-rule="evenodd" d="M10.912 6.427v2.508l1.596.68V5.809l-1.596.619Zm.168 2.322-.084-.031V6.644l.084-.031.084-.031.084-.031v2.26l-.084-.031-.084-.031Zm.42.155-.112-.031V6.55l.112-.031.112-.031.112-.031v2.539l-.112-.031-.112-.062Zm.504.185-.14-.061V6.396l.14-.03.14-.063.168-.062v2.941l-.168-.062-.14-.03Z" clip-rule="evenodd"/>
</svg>