<svg xmlns="http://www.w3.org/2000/svg" width="364" height="364"><defs><linearGradient id="a" x1="0%" x2="100%" y1="50%" y2="50%"><stop offset="0%" stop-color="#0083C1"/><stop offset="30%" stop-color="#0083C1"/><stop offset="96%" stop-color="#0083C1" stop-opacity="0"/></linearGradient><linearGradient id="b" x1="26.142%" x2="54.997%" y1="21.37%" y2="62.895%"><stop offset="0%" stop-color="#0083C1"/><stop offset="30%" stop-color="#0083C1"/><stop offset="90%" stop-color="#0083C1" stop-opacity="0"/></linearGradient></defs><g fill="none" fill-rule="evenodd"><path d="M182.022 8.531C277.815 8.531 355.47 86.196 355.47 182s-77.655 173.469-173.448 173.469q-4.593 0-9.127-.239a175 175 0 0 1-9.004-.702l-.446 4.237-.445 4.237q4.69.49 9.447.744 4.757.253 9.575.254C282.526 364 364 282.516 364 182S282.526 0 182.022 0q-4.818 0-9.575.254-4.756.252-9.447.744l.445 4.237.446 4.237q4.47-.465 9.004-.702a176 176 0 0 1 9.127-.239"/><path d="M321.4 181.946c-.01 65.813-46.02 122.654-110.36 136.338C146.7 331.97 81.559 298.77 54.793 238.651l-3.896 1.736L47 242.123c22.965 51.717 73.405 85.795 129.931 87.785s109.235-28.457 135.777-78.43C339.25 201.502 334.974 140.757 301.693 95l-3.45 2.508-3.45 2.508a138.8 138.8 0 0 1 26.606 81.93"/><path fill="#003A5D" fill-rule="nonzero" d="M149.595 154.988a10.46 10.46 0 0 0-1.043-4.695 10 10 0 0 0-2.71-3.343 18.14 18.14 0 0 0-7.993-3.621 38.3 38.3 0 0 0-7.994-.814c-6.116 0-13.866.658-20.087 6.028s-10.913 15.454-10.913 34.304c0 11.573 1.981 21.378 6.899 28.29 4.918 6.913 12.772 10.932 24.518 10.932 2.779.045 5.551-.257 8.254-.9a13.9 13.9 0 0 0 7.316-4.227 10.2 10.2 0 0 0 2.137-3.551c.541-1.578.806-3.237.781-4.904h2.781c-.139 2.01-.278 4.09-.382 6.48a189 189 0 0 0-.174 8.35v2.358a61 61 0 0 1-11.382 2.303c-4.019.481-8.063.73-12.11.745a68 68 0 0 1-23.703-3.829 38.9 38.9 0 0 1-17.028-11.832 37.5 37.5 0 0 1-6.464-12.353 54 54 0 0 1-2.295-16.198c0-11.99 3.406-21.761 9.036-29.332a47.45 47.45 0 0 1 22.382-16.13 54 54 0 0 1 11.242-2.46 85 85 0 0 1 9.888-.589c5.352 0 10.495.381 14.457.762s6.742.762 7.368.762c-.14 1.317-.21 2.773-.244 4.246-.035 1.472-.035 2.962-.035 4.348 0 1.802.035 3.569.087 5.11s.122 2.859.192 3.76zm47.259-12.752a9.84 9.84 0 0 0-2.208 5.735c-.39 4.222-.535 8.462-.435 12.7v47.677a78 78 0 0 0 .383 9.425 9.9 9.9 0 0 0 1.425 4.436 6.5 6.5 0 0 0 1.773 1.733 10.8 10.8 0 0 0 5.316 1.733v2.493c-2.71-.138-6.185-.242-9.59-.312s-6.742-.104-9.175-.104-5.734.035-9.105.104c-3.371.07-6.812.174-9.523.312v-2.493a9.4 9.4 0 0 0 3.3-.642 8.95 8.95 0 0 0 3.511-2.409 9.6 9.6 0 0 0 2.138-5.734c.34-4.224.461-8.462.365-12.699v-47.679c.06-3.144-.045-6.29-.313-9.424a9.55 9.55 0 0 0-1.355-4.436 6.4 6.4 0 0 0-1.79-1.732 11.16 11.16 0 0 0-5.439-1.732v-2.496c2.711.14 6.187.244 9.593.313s6.742.103 9.175.103c2.431 0 5.733-.034 9.104-.103 3.37-.07 6.811-.173 9.521-.313v2.496a9.32 9.32 0 0 0-6.671 3.048M239.804 229c-3.93.006-7.856-.196-11.764-.606a56.5 56.5 0 0 1-11.035-2.166v-2.356c0-3.257-.069-6.099-.173-8.628s-.244-4.747-.383-6.757h2.782a16.7 16.7 0 0 0 1.754 5.648 12.7 12.7 0 0 0 3.528 4.194 19.2 19.2 0 0 0 6.464 3.36 25 25 0 0 0 7.296 1.075c8.967 0 13.485-2.98 15.762-6.307 1.6-2.5 2.406-5.422 2.311-8.386a13.88 13.88 0 0 0-3.858-10.256c-2.398-2.529-5.734-4.504-9.487-6.93l-3.892-2.494-3.893-2.496a43.8 43.8 0 0 1-11.868-10.36 24.6 24.6 0 0 1-4.674-15.143 22.97 22.97 0 0 1 5.282-14.517c4.449-5.266 12.511-9.736 26.968-9.736 4.735-.029 9.468.19 14.18.658 3.337.346 5.492.727 7.09.866a26 26 0 0 0-.296 4.314c-.018 1.61.017 3.031.017 3.17 0 2.771.07 4.85.14 6.428.07 1.577.14 2.651.14 3.413h-2.92a13.6 13.6 0 0 0-1.2-4.679 12.6 12.6 0 0 0-2.555-3.638 14.7 14.7 0 0 0-6.776-3.569 30 30 0 0 0-7.403-.866c-7.158 0-11.155 2.079-13.361 4.747a12.8 12.8 0 0 0-2.624 8.282c-.11 3.146.969 6.22 3.023 8.61a35.3 35.3 0 0 0 8.653 6.635l4.449 2.703 4.448 2.704c5.56 3.395 10.078 6.548 13.206 10.603 3.127 4.054 4.865 9.009 4.865 16.008 0 8.87-3.475 15.488-9.487 19.888S249.953 229 239.804 229"/><path fill="#0083C1" fill-rule="nonzero" d="M288 223.468a5.54 5.54 0 0 1-1.598 3.926 5.43 5.43 0 0 1-3.871 1.606 5.5 5.5 0 0 1-3.925-1.621 5.57 5.57 0 0 1-1.606-3.941 5.33 5.33 0 0 1 1.629-3.856 5.7 5.7 0 0 1 3.996-1.582 5.3 5.3 0 0 1 3.789 1.621 5.5 5.5 0 0 1 1.586 3.847m-10.094 0a4.62 4.62 0 0 0 1.348 3.273 4.57 4.57 0 0 0 6.491-.003 4.67 4.67 0 0 0 1.348-3.3 4.46 4.46 0 0 0-1.367-3.204 4.7 4.7 0 0 0-3.288-1.328 4.5 4.5 0 0 0-3.192 1.356 4.57 4.57 0 0 0-1.34 3.206m2.219-3.375h2.156a4.1 4.1 0 0 1 1.965.38 1.8 1.8 0 0 1 .511 2.51 1.38 1.38 0 0 1-.914.517v.062c.166.053.317.145.438.27q.159.171.25.387l.547 1.203.547 1.203h-1.876l-.421-1-.422-1a.9.9 0 0 0-.309-.407 1.23 1.23 0 0 0-.66-.125h-.188v2.532h-1.624zm1.624 2.782h.22c.367.028.735-.03 1.077-.168a.62.62 0 0 0 .328-.614.51.51 0 0 0-.328-.527 3 3 0 0 0-1.078-.128h-.219z"/><path fill="url(#a)" fill-rule="nonzero" d="M181.978 355.469C86.185 355.469 8.53 277.804 8.53 182S86.185 8.531 181.978 8.531q4.593 0 9.127.239 4.534.236 9.004.702l.446-4.237L201 .998a187 187 0 0 0-9.447-.744Q186.796 0 181.978 0C81.474 0 0 81.484 0 182s81.474 182 181.978 182q4.818 0 9.575-.254 4.756-.252 9.447-.744l-.445-4.237-.446-4.237q-4.47.465-9.004.702t-9.127.239"/><path fill="url(#b)" fill-rule="nonzero" d="M42.6 182.054C42.61 116.241 88.62 59.4 152.96 45.716 217.3 32.03 282.441 65.23 309.207 125.349l3.896-1.736 3.897-1.735c-22.965-51.717-73.405-85.796-129.931-87.786S77.834 62.549 51.292 112.522C24.75 162.498 29.026 223.243 62.307 269l3.45-2.508 3.45-2.508a138.8 138.8 0 0 1-26.606-81.93"/></g></svg>