<svg xmlns="http://www.w3.org/2000/svg" width="16" height="16" fill="none"><g clip-path="url(#a)"><path fill="url(#b)" d="M3.474 14.402.193 8.72a1.44 1.44 0 0 1 0-1.438l3.28-5.683A1.44 1.44 0 0 1 4.72.878h6.562c.514 0 .988.275 1.245.72l3.281 5.683c.257.445.257.993 0 1.438l-3.28 5.684a1.44 1.44 0 0 1-1.246.718H4.72c-.514 0-.988-.274-1.245-.719Z"/><mask id="c" width="16" height="16" x="0" y="0" maskUnits="userSpaceOnUse" style="mask-type:luminance"><path fill="#fff" d="M3.474 14.402.193 8.72a1.44 1.44 0 0 1 0-1.438l3.28-5.683A1.44 1.44 0 0 1 4.72.878h6.562c.514 0 .988.275 1.245.72l3.281 5.683c.257.445.257.993 0 1.438l-3.28 5.684a1.44 1.44 0 0 1-1.246.718H4.72c-.514 0-.988-.274-1.245-.719"/></mask><g mask="url(#c)"><path fill="#000" d="m15.506 10.357-4.302-4.302L8 4.625 4.937 6.289 4.81 9.956l5.318 5.318 2.082-.019 3.297-4.898Z" opacity=".07"/></g><path fill="#fff" d="m11.129 6-2.96-1.71a.34.34 0 0 0-.337 0L4.872 6a.34.34 0 0 0-.168.291V9.71c0 .12.064.232.168.292l2.96 1.709c.104.06.233.06.337 0L11.13 10a.34.34 0 0 0 .168-.291V6.29A.34.34 0 0 0 11.13 6Zm-.406 3.382L9.69 8.786v-1.57l-1.524.88v1.76l1.36-.785 1.032.596L8 11.144 5.443 9.667l1.033-.596 1.36.785v-1.76l-1.525-.88v1.57l-1.033.596V6.429l2.558-1.477v1.192l-1.36.786L8 7.81l1.524-.88-1.36-.786V4.952l2.558 1.477z"/></g><defs><linearGradient id="b" x1="0" x2="0" y1=".879" y2="15.099" gradientUnits="userSpaceOnUse"><stop stop-color="#4387FD"/><stop offset="1" stop-color="#4683EA"/></linearGradient><clipPath id="a"><path fill="#fff" d="M0 0h16v16H0z"/></clipPath></defs></svg>