<svg xmlns="http://www.w3.org/2000/svg" width="32" height="32" fill="none" viewBox="0 0 32 32">
  <g clip-path="url(#a)">
    <path fill="#EA4335" d="M20.951 10.723 23.56 8.09l.174-1.109C18.98 2.618 11.427 3.113 7.143 8.014c-1.19 1.36-2.073 3.058-2.543 4.81l.934-.133 5.215-.868.403-.416c2.32-2.573 6.242-2.919 8.92-.73l.88.046Z"/>
    <path fill="#4285F4" d="M27.274 12.746a11.88 11.88 0 0 0-3.541-5.765l-3.66 3.696a6.595 6.595 0 0 1 2.388 5.21v.657c1.8 0 3.258 1.472 3.258 3.288a3.242 3.242 0 0 1-3.258 3.253h-6.524l-.64.702v3.945l.64.619h6.524c4.68.037 8.502-3.727 8.539-8.451a8.579 8.579 0 0 0-3.726-7.154Z"/>
    <path fill="#34A853" d="M9.422 28.35h6.515v-5.265H9.422a3.17 3.17 0 0 1-1.336-.296l-.924.286-2.626 2.634-.229.896c1.473 1.122 3.27 1.754 5.115 1.746Z"/>
    <path fill="#FBBC05" d="M9.422 11.268C4.743 11.296.972 15.15 1 19.874a8.584 8.584 0 0 0 3.308 6.73l3.779-3.815c-1.64-.748-2.369-2.696-1.628-4.352a3.245 3.245 0 0 1 5.937 0l3.78-3.815a8.435 8.435 0 0 0-6.754-3.354Z"/>
  </g>
  <defs>
    <clipPath id="a">
      <path fill="#fff" d="M1 4h30v24.375H1z"/>
    </clipPath>
  </defs>
</svg>

