<svg width="66" height="66" viewBox="0 0 66 66" fill="none" xmlns="http://www.w3.org/2000/svg">
<g clip-path="url(#clip0_5801_7529)">
<mask id="mask0_5801_7529" style="mask-type:luminance" maskUnits="userSpaceOnUse" x="1" y="3" width="65" height="60">
<path d="M65.4498 3.84998H1.1001V62.2116H65.4498V3.84998Z" fill="white"/>
</mask>
<g mask="url(#mask0_5801_7529)">
<path d="M56.5175 7.73572H7.45135C6.45738 7.73572 5.65161 8.54148 5.65161 9.53543V22.5904C5.65161 23.5844 6.45738 24.3901 7.45135 24.3901H56.5175C57.5113 24.3901 58.317 23.5844 58.317 22.5904V9.53543C58.317 8.54148 57.5113 7.73572 56.5175 7.73572Z" fill="#101C3F"/>
<mask id="mask1_5801_7529" style="mask-type:luminance" maskUnits="userSpaceOnUse" x="5" y="7" width="54" height="18">
<path d="M56.5175 7.73572H7.45135C6.45738 7.73572 5.65161 8.54148 5.65161 9.53543V22.5904C5.65161 23.5844 6.45738 24.3901 7.45135 24.3901H56.5175C57.5113 24.3901 58.317 23.5844 58.317 22.5904V9.53543C58.317 8.54148 57.5113 7.73572 56.5175 7.73572Z" fill="white"/>
</mask>
<g mask="url(#mask1_5801_7529)">
<path d="M24.458 4.20776H1.68896V26.9768H24.458V4.20776Z" fill="#101C3F"/>
</g>
<path d="M56.5175 7.73572H7.45135C6.45738 7.73572 5.65161 8.54148 5.65161 9.53543V22.5904C5.65161 23.5844 6.45738 24.3901 7.45135 24.3901H56.5175C57.5113 24.3901 58.317 23.5844 58.317 22.5904V9.53543C58.317 8.54148 57.5113 7.73572 56.5175 7.73572Z" stroke="#101C3F" stroke-width="1.19" stroke-miterlimit="10"/>
<path d="M56.5175 30.213H7.45135C6.45738 30.213 5.65161 31.0188 5.65161 32.0127V45.0677C5.65161 46.0616 6.45738 46.8674 7.45135 46.8674H56.5175C57.5113 46.8674 58.317 46.0616 58.317 45.0677V32.0127C58.317 31.0188 57.5113 30.213 56.5175 30.213Z" fill="#101C3F"/>
<mask id="mask2_5801_7529" style="mask-type:luminance" maskUnits="userSpaceOnUse" x="5" y="30" width="54" height="17">
<path d="M56.5175 30.213H7.45135C6.45738 30.213 5.65161 31.0188 5.65161 32.0127V45.0677C5.65161 46.0616 6.45738 46.8674 7.45135 46.8674H56.5175C57.5113 46.8674 58.317 46.0616 58.317 45.0677V32.0127C58.317 31.0188 57.5113 30.213 56.5175 30.213Z" fill="white"/>
</mask>
<g mask="url(#mask2_5801_7529)">
<path d="M24.458 26.6851H1.68896V49.4541H24.458V26.6851Z" fill="#101C3F"/>
</g>
<path d="M56.5175 30.213H7.45135C6.45738 30.213 5.65161 31.0188 5.65161 32.0127V45.0677C5.65161 46.0616 6.45738 46.8674 7.45135 46.8674H56.5175C57.5113 46.8674 58.317 46.0616 58.317 45.0677V32.0127C58.317 31.0188 57.5113 30.213 56.5175 30.213Z" stroke="#101C3F" stroke-width="1.19" stroke-miterlimit="10"/>
<path d="M55.9285 29.8223H6.86249C5.86851 29.8223 5.06274 30.6281 5.06274 31.622V44.6769C5.06274 45.6709 5.86851 46.4767 6.86249 46.4767H55.9285C56.9223 46.4767 57.728 45.6709 57.728 44.6769V31.622C57.728 30.6281 56.9223 29.8223 55.9285 29.8223Z" fill="white"/>
<mask id="mask3_5801_7529" style="mask-type:luminance" maskUnits="userSpaceOnUse" x="5" y="29" width="53" height="18">
<path d="M55.9285 29.8223H6.86249C5.86851 29.8223 5.06274 30.6281 5.06274 31.622V44.6769C5.06274 45.6709 5.86851 46.4767 6.86249 46.4767H55.9285C56.9223 46.4767 57.728 45.6709 57.728 44.6769V31.622C57.728 30.6281 56.9223 29.8223 55.9285 29.8223Z" fill="white"/>
</mask>
<g mask="url(#mask3_5801_7529)">
<path d="M23.8692 26.2943H1.1001V49.0634H23.8692V26.2943Z" fill="#0B64DD"/>
</g>
<path d="M55.9285 29.8223H6.86249C5.86851 29.8223 5.06274 30.6281 5.06274 31.622V44.6769C5.06274 45.6709 5.86851 46.4766 6.86249 46.4766H55.9285C56.9223 46.4766 57.728 45.6709 57.728 44.6769V31.622C57.728 30.6281 56.9223 29.8223 55.9285 29.8223Z" stroke="#101C3F" stroke-width="1.19" stroke-miterlimit="10"/>
<path d="M27.7659 33.7684H50.8872" stroke="#101C3F" stroke-width="0.9" stroke-linecap="round" stroke-linejoin="round"/>
<path d="M27.7659 38.1494H47.5959" stroke="#101C3F" stroke-width="0.9" stroke-linecap="round" stroke-linejoin="round"/>
<path d="M27.7659 42.6901H40.7492" stroke="#101C3F" stroke-width="0.9" stroke-linecap="round" stroke-linejoin="round"/>
<path d="M55.9285 7.37793H6.86249C5.86851 7.37793 5.06274 8.1837 5.06274 9.17766V22.2326C5.06274 23.2266 5.86851 24.0323 6.86249 24.0323H55.9285C56.9223 24.0323 57.728 23.2266 57.728 22.2326V9.17766C57.728 8.1837 56.9223 7.37793 55.9285 7.37793Z" fill="white"/>
<mask id="mask4_5801_7529" style="mask-type:luminance" maskUnits="userSpaceOnUse" x="5" y="7" width="53" height="18">
<path d="M55.9285 7.37793H6.86249C5.86851 7.37793 5.06274 8.1837 5.06274 9.17766V22.2326C5.06274 23.2266 5.86851 24.0323 6.86249 24.0323H55.9285C56.9223 24.0323 57.728 23.2266 57.728 22.2326V9.17766C57.728 8.1837 56.9223 7.37793 55.9285 7.37793Z" fill="white"/>
</mask>
<g mask="url(#mask4_5801_7529)">
<path d="M23.8692 3.84998H1.1001V26.619H23.8692V3.84998Z" fill="#0B64DD"/>
</g>
<path d="M55.9285 7.37793H6.86249C5.86851 7.37793 5.06274 8.1837 5.06274 9.17766V22.2326C5.06274 23.2266 5.86851 24.0323 6.86249 24.0323H55.9285C56.9223 24.0323 57.728 23.2266 57.728 22.2326V9.17766C57.728 8.1837 56.9223 7.37793 55.9285 7.37793Z" stroke="#101C3F" stroke-width="1.19" stroke-miterlimit="10"/>
<path d="M49.9073 48.9038C56.5174 48.9038 61.8727 43.5376 61.8727 36.9221C61.8727 30.3066 56.5174 24.9404 49.9073 24.9404C43.2973 24.9404 37.9421 30.3066 37.9421 36.9221C37.9421 43.5376 43.2973 48.9038 49.9073 48.9038Z" fill="#48EFCF" stroke="#101C3F" stroke-width="0.9" stroke-linecap="round" stroke-linejoin="round"/>
<path d="M43.6772 37.5275L48.8233 41.5673L57.2331 30.2461" stroke="#101C3F" stroke-width="5.41" stroke-miterlimit="10"/>
<path d="M55.9615 27.5052C51.3493 24.5992 46.2859 25.5734 43.0166 28.5454C51.8722 23.9993 62.0928 33.7685 58.9226 42.9542C58.405 44.4512 57.5629 45.7502 56.5064 46.8014C58.5645 45.6951 60.2491 43.8018 61.1352 41.0059C62.7313 35.9534 60.3867 30.3011 55.967 27.5107L55.9615 27.5052Z" fill="#101C3F" stroke="#101C3F" stroke-width="0.71" stroke-miterlimit="10"/>
<path d="M45.086 22.7664C31.5688 27.3731 34.2326 46.24 46.1592 50.8356C53.3967 53.6206 61.8782 50.1917 64.4759 42.7011C68.4111 31.2533 56.7869 18.7818 45.086 22.7719V22.7664ZM61.0417 41.2701C59.346 46.174 54.2112 48.9314 49.1698 47.9462C39.6208 46.0859 35.5205 32.1284 44.7833 26.9934C53.7269 22.0345 64.2559 31.9578 61.0417 41.2646V41.2701Z" fill="#0B64DD" stroke="#101C3F" stroke-width="0.71" stroke-miterlimit="10"/>
<path d="M46.1592 50.8302C36.8854 47.2582 33.2144 35.0729 38.3824 27.6538C34.6068 31.0386 32.6145 36.4103 34.5573 42.4039C38.0192 53.0977 52.5986 57.0769 59.6106 49.179C55.8403 51.8649 50.7494 52.6024 46.1592 50.8356V50.8302Z" fill="#153385" stroke="#101C3F" stroke-width="0.71" stroke-miterlimit="10"/>
<path d="M39.9761 47.3664L39.7057 47.0472C38.7822 45.9571 37.1499 45.8221 36.0599 46.7456L23.7934 57.1373C22.7034 58.0607 22.5683 59.6931 23.4918 60.7832L23.7621 61.1022C24.6856 62.1923 26.3179 62.3271 27.4079 61.4036L39.6744 51.0122C40.7644 50.0887 40.8995 48.4564 39.9761 47.3664Z" fill="#153385" stroke="#101C3F" stroke-width="0.71" stroke-miterlimit="10"/>
<path d="M39.3455 46.6199L39.0751 46.3007C38.1516 45.2107 36.5193 45.0756 35.4293 45.9991L23.1628 56.3908C22.0728 57.3142 21.9377 58.9463 22.8611 60.0364L23.1315 60.3559C24.055 61.446 25.6873 61.5808 26.7773 60.6573L39.0438 50.2657C40.1338 49.3422 40.2689 47.71 39.3455 46.6199Z" fill="#0B64DD" stroke="#101C3F" stroke-width="0.71" stroke-miterlimit="10"/>
<path d="M17.0279 11.3296H11.5571L8.82178 16.0628L11.5571 20.8015H17.0279L19.7578 16.0628L17.0279 11.3296Z" fill="#48EFCF"/>
<path d="M27.7659 11.3296H50.8872" stroke="#101C3F" stroke-width="0.9" stroke-linecap="round" stroke-linejoin="round"/>
<path d="M27.7659 15.7051H47.5959" stroke="#101C3F" stroke-width="0.9" stroke-linecap="round" stroke-linejoin="round"/>
<path d="M27.7659 20.2512H40.7492" stroke="#101C3F" stroke-width="0.9" stroke-linecap="round" stroke-linejoin="round"/>
<path d="M14.2925 43.3119C16.9279 43.3119 19.0642 41.1756 19.0642 38.5402C19.0642 35.9048 16.9279 33.7684 14.2925 33.7684C11.6571 33.7684 9.52075 35.9048 9.52075 38.5402C9.52075 41.1756 11.6571 43.3119 14.2925 43.3119Z" fill="#48EFCF"/>
</g>
</g>
<defs>
<clipPath id="clip0_5801_7529">
<rect width="66" height="66" fill="white"/>
</clipPath>
</defs>
</svg>
