<svg width="39" height="60" viewBox="0 0 39 60" fill="none" xmlns="http://www.w3.org/2000/svg">
  <g clip-path="url(#clip0_7684_3163)">
    <mask id="mask0_7684_3163" style="mask-type:luminance" maskUnits="userSpaceOnUse" x="0" y="0" width="39" height="60">
      <path d="M38.7907 0H0V59.1998H38.7907V0Z" fill="white"/>
    </mask>
    <g mask="url(#mask0_7684_3163)">
      <path d="M0.267578 54.2997C0.267578 56.857 8.83246 58.9269 19.3928 58.9269C29.9531 58.9269 38.5181 56.857 38.5181 54.2997V51.4429H0.267578V54.2997Z" fill="#0B64DD" stroke="#101C3F" stroke-miterlimit="10"/>
      <path d="M19.3928 56.0757C29.9554 56.0757 38.5181 54.0037 38.5181 51.4482C38.5181 48.8925 29.9554 46.8207 19.3928 46.8207C8.83022 46.8207 0.267578 48.8925 0.267578 51.4482C0.267578 54.0037 8.83022 56.0757 19.3928 56.0757Z" fill="#153385" stroke="#101C3F" stroke-miterlimit="10"/>
      <path d="M27.4601 37.8921C23.7313 34.8534 20.7997 33.8049 20.7997 30.6967C20.7997 27.5885 22.5704 26.5613 23.9132 26.0264C34.5966 21.8001 34.1258 9.98792 34.1258 9.98792L19.4034 10.9508L4.68096 9.98792C4.68096 9.98792 4.21018 21.8001 14.8935 26.0264C16.2363 26.556 18.0071 27.5832 18.0071 30.6967C18.0071 33.8102 15.0755 34.8587 11.3467 37.8921C8.96608 39.8287 4.10318 46.7405 4.6863 51.6997C4.6863 51.6997 9.60267 54.6048 19.3766 54.6154C19.3766 54.6154 19.398 54.6154 19.4087 54.6154C19.4194 54.6154 19.4301 54.6154 19.4408 54.6154C29.2148 54.5994 34.1311 51.6997 34.1311 51.6997C34.7143 46.7405 29.8514 39.8287 27.4708 37.8921H27.4601Z" fill="white"/>
      <mask id="mask1_7684_3163" style="mask-type:luminance" maskUnits="userSpaceOnUse" x="4" y="9" width="31" height="46">
        <path d="M27.4601 37.8921C23.7313 34.8534 20.7997 33.8049 20.7997 30.6967C20.7997 27.5885 22.5704 26.5613 23.9132 26.0264C34.5966 21.8001 34.1258 9.98792 34.1258 9.98792L19.4034 10.9508L4.68096 9.98792C4.68096 9.98792 4.21018 21.8001 14.8935 26.0264C16.2363 26.556 18.0071 27.5832 18.0071 30.6967C18.0071 33.8102 15.0755 34.8587 11.3467 37.8921C8.96608 39.8287 4.10318 46.7405 4.6863 51.6997C4.6863 51.6997 9.60267 54.6048 19.3766 54.6154C19.3766 54.6154 19.398 54.6154 19.4087 54.6154C19.4194 54.6154 19.4301 54.6154 19.4408 54.6154C29.2148 54.5994 34.1311 51.6997 34.1311 51.6997C34.7143 46.7405 29.8514 39.8287 27.4708 37.8921H27.4601Z" fill="white"/>
      </mask>
      <g mask="url(#mask1_7684_3163)">
        <path d="M8.94482 23.5975H28.1503L20.7945 30.6966H17.9966L8.94482 23.5975Z" fill="#48EFCF"/>
        <path d="M4.62221 46.3713H34.1687L35.9181 57.4826L1.72266 56.3701L4.62221 46.3713Z" fill="#48EFCF"/>
        <path d="M19.3926 29.5625V37.5924" stroke="#48EFCF" stroke-miterlimit="10"/>
        <path d="M19.3926 38.5286V40.9841" stroke="#48EFCF" stroke-miterlimit="10"/>
        <path d="M19.3926 42.5463V48.6449" stroke="#48EFCF" stroke-miterlimit="10"/>
      </g>
      <path d="M27.4601 37.8921C23.7313 34.8534 20.7997 33.8049 20.7997 30.6967C20.7997 27.5885 22.5704 26.5614 23.9132 26.0264C34.5966 21.8001 34.1258 9.98792 34.1258 9.98792L19.4034 10.9508L4.68096 9.98792C4.68096 9.98792 4.21018 21.8001 14.8935 26.0264C16.2363 26.556 18.0071 27.5832 18.0071 30.6967C18.0071 33.8102 15.0755 34.8587 11.3467 37.8921C8.96608 39.8287 4.10318 46.7405 4.6863 51.6997C4.6863 51.6997 9.60267 54.6048 19.3766 54.6154C19.3766 54.6154 19.398 54.6154 19.4087 54.6154C19.4194 54.6154 19.4301 54.6154 19.4408 54.6154C29.2148 54.5994 34.1311 51.6997 34.1311 51.6997C34.7143 46.7405 29.8514 39.8287 27.4708 37.8921H27.4601Z" stroke="#101C3F" stroke-miterlimit="10"/>
      <path d="M0.267578 7.75168C0.267578 10.3089 8.83246 12.3792 19.3928 12.3792C29.9531 12.3792 38.5181 10.3089 38.5181 7.75168V4.89496H0.267578V7.75168Z" fill="#153385" stroke="#101C3F" stroke-miterlimit="10"/>
      <path d="M19.3928 9.52247C29.9554 9.52247 38.5181 7.45069 38.5181 4.89496C38.5181 2.33926 29.9554 0.267456 19.3928 0.267456C8.83022 0.267456 0.267578 2.33926 0.267578 4.89496C0.267578 7.45069 8.83022 9.52247 19.3928 9.52247Z" fill="#0B64DD" stroke="#101C3F" stroke-miterlimit="10"/>
    </g>
  </g>
  <defs>
    <clipPath id="clip0_7684_3163">
      <rect width="38.9333" height="59.2" fill="white"/>
    </clipPath>
  </defs>
</svg>
