<svg width="66" height="66" viewBox="0 0 66 66" fill="none" xmlns="http://www.w3.org/2000/svg">
<g clip-path="url(#clip0_5801_7594)">
<mask id="mask0_5801_7594" style="mask-type:luminance" maskUnits="userSpaceOnUse" x="3" y="4" width="60" height="57">
<path d="M62.15 4.17505H3.8501V60.4978H62.15V4.17505Z" fill="white"/>
</mask>
<g mask="url(#mask0_5801_7594)">
<path d="M49.7365 4.72583H9.96845C8.08874 4.72583 6.56494 6.24963 6.56494 8.12933V39.7961C6.56494 41.6759 8.08874 43.1996 9.96845 43.1996H49.7365C51.6162 43.1996 53.14 41.6759 53.14 39.7961V8.12933C53.14 6.24963 51.6162 4.72583 49.7365 4.72583Z" fill="#153385" stroke="#101C3F" stroke-miterlimit="10"/>
<path d="M48.3983 4.72583H7.11028C5.65033 4.72583 4.4668 5.90936 4.4668 7.36932V40.5562C4.4668 42.0161 5.65033 43.1996 7.11028 43.1996H48.3983C49.8583 43.1996 51.0418 42.0161 51.0418 40.5562V7.36932C51.0418 5.90936 49.8583 4.72583 48.3983 4.72583Z" fill="#0B64DD"/>
<mask id="mask1_5801_7594" style="mask-type:luminance" maskUnits="userSpaceOnUse" x="4" y="4" width="48" height="40">
<path d="M48.3983 4.72583H7.11028C5.65033 4.72583 4.4668 5.90936 4.4668 7.36932V40.5562C4.4668 42.0161 5.65033 43.1996 7.11028 43.1996H48.3983C49.8583 43.1996 51.0418 42.0161 51.0418 40.5562V7.36932C51.0418 5.90936 49.8583 4.72583 48.3983 4.72583Z" fill="white"/>
</mask>
<g mask="url(#mask1_5801_7594)">
<path d="M51.4825 4.45044H4.12549V11.1913H51.4825V4.45044Z" stroke="#101C3F" stroke-miterlimit="10"/>
</g>
<path d="M48.3983 4.72583H7.11028C5.65033 4.72583 4.4668 5.90936 4.4668 7.36932V40.5562C4.4668 42.0161 5.65033 43.1996 7.11028 43.1996H48.3983C49.8583 43.1996 51.0418 42.0161 51.0418 40.5562V7.36932C51.0418 5.90936 49.8583 4.72583 48.3983 4.72583Z" stroke="#101C3F" stroke-miterlimit="10"/>
<path d="M31.392 17.5963H32.6917V29.4425H30.7256L31.392 17.5963Z" fill="#101C3F" stroke="#101C3F" stroke-miterlimit="10"/>
<path d="M15.3604 11.1748V43.1996" stroke="#101C3F" stroke-miterlimit="10"/>
<path d="M31.7114 17.5963C26.116 17.5963 21.5835 22.1288 21.5835 27.7242C21.5835 33.3196 26.116 37.8521 31.7114 37.8521C37.3068 37.8521 41.8392 33.3196 41.8392 27.7242H31.7114V17.5963Z" fill="#48EFCF" stroke="#101C3F" stroke-miterlimit="10"/>
<path d="M34.2393 14.9088C39.8346 14.9088 44.3671 19.4413 44.3671 25.0367H34.2393V14.9088Z" fill="white" stroke="#101C3F" stroke-miterlimit="10"/>
<path d="M6.49365 14.9088H12.6948" stroke="#101C3F" stroke-miterlimit="10"/>
<path d="M6.49365 17.5963H12.6948" stroke="#101C3F" stroke-miterlimit="10"/>
<path d="M6.49365 20.2839H12.6948" stroke="#101C3F" stroke-miterlimit="10"/>
<path d="M6.49365 22.9714H10.6406" stroke="#101C3F" stroke-miterlimit="10"/>
<path d="M6.49365 25.6589H10.6406" stroke="#101C3F" stroke-miterlimit="10"/>
<path d="M6.49365 28.3466H10.6406" stroke="#101C3F" stroke-miterlimit="10"/>
<path d="M59.512 34.5918H29.9212C28.6164 34.5918 27.5586 35.6496 27.5586 36.9544V57.86C27.5586 59.1649 28.6164 60.2229 29.9212 60.2229H59.512C60.8166 60.2229 61.8743 59.1649 61.8743 57.86V36.9544C61.8743 35.6496 60.8166 34.5918 59.512 34.5918Z" fill="#153385" stroke="#101C3F" stroke-miterlimit="10"/>
<path d="M57.3751 34.5918H27.7845C26.4796 34.5918 25.4219 35.6496 25.4219 36.9544V57.86C25.4219 59.1649 26.4796 60.2229 27.7845 60.2229H57.3751C58.6799 60.2229 59.7376 59.1649 59.7376 57.86V36.9544C59.7376 35.6496 58.6799 34.5918 57.3751 34.5918Z" fill="white" stroke="#101C3F" stroke-miterlimit="10"/>
<path d="M37.6592 56.5824H41.6134V50.4913H37.6592V56.5824Z" fill="#48EFCF" stroke="#101C3F" stroke-miterlimit="10"/>
<path d="M31.5903 56.5824H35.5446V41.2556H31.5903V56.5824Z" fill="#48EFCF" stroke="#101C3F" stroke-miterlimit="10"/>
<path d="M43.7339 56.5823H47.6881V45.7109H43.7339V56.5823Z" fill="#48EFCF" stroke="#101C3F" stroke-miterlimit="10"/>
<path d="M49.8081 56.5824H53.7623V42.313H49.8081V56.5824Z" fill="#48EFCF" stroke="#101C3F" stroke-miterlimit="10"/>
<path d="M29.9712 56.5824H55.189" stroke="#101C3F" stroke-miterlimit="10"/>
<path d="M8.56436 9.24177C9.28218 9.24177 9.86411 8.65986 9.86411 7.94205C9.86411 7.22423 9.28218 6.64233 8.56436 6.64233C7.84655 6.64233 7.26465 7.22423 7.26465 7.94205C7.26465 8.65986 7.84655 9.24177 8.56436 9.24177Z" fill="white"/>
<path d="M39.4712 7.94202H44.5765" stroke="white" stroke-miterlimit="10"/>
<path d="M45.876 7.94202H47.9963" stroke="white" stroke-miterlimit="10"/>
</g>
</g>
<defs>
<clipPath id="clip0_5801_7594">
<rect width="58.3" height="56.65" fill="white" transform="translate(3.8501 4.17505)"/>
</clipPath>
</defs>
</svg>
