<svg width="66" height="66" viewBox="0 0 66 66" fill="none" xmlns="http://www.w3.org/2000/svg">
<g clip-path="url(#clip0_5801_7494)">
<mask id="mask0_5801_7494" style="mask-type:luminance" maskUnits="userSpaceOnUse" x="0" y="4" width="66" height="58">
<path d="M65.4499 4.9502H0V61.209H65.4499V4.9502Z" fill="white"/>
</mask>
<g mask="url(#mask0_5801_7494)">
<path d="M54.4416 5.25854H9.81882C8.12476 5.25854 6.75146 6.63185 6.75146 8.32591V49.5949C6.75146 51.289 8.12476 52.6623 9.81882 52.6623H54.4416C56.1357 52.6623 57.509 51.289 57.509 49.5949V8.32591C57.509 6.63185 56.1357 5.25854 54.4416 5.25854Z" fill="#153385" stroke="#101C3F" stroke-width="0.75" stroke-miterlimit="10"/>
<path d="M55.9174 5.22559H11.2946C9.60059 5.22559 8.22729 6.59889 8.22729 8.29295V49.5619C8.22729 51.2561 9.60059 52.6294 11.2946 52.6294H55.9174C57.6114 52.6294 58.9847 51.2561 58.9847 49.5619V8.29295C58.9847 6.59889 57.6114 5.22559 55.9174 5.22559Z" fill="#0B64DD"/>
<path d="M55.9173 5.22559H11.2946C9.60059 5.22559 8.22729 6.59889 8.22729 8.29295V49.5619C8.22729 51.2561 9.60059 52.6294 11.2946 52.6294H55.9173C57.6113 52.6294 58.9847 51.2561 58.9847 49.5619V8.29295C58.9847 6.59889 57.6113 5.22559 55.9173 5.22559Z" stroke="#101C3F" stroke-width="0.75" stroke-miterlimit="10"/>
<path d="M8.26611 13.7393H58.8859" stroke="#101C3F" stroke-width="0.75" stroke-miterlimit="10"/>
<path d="M19.4782 8.76685H13.5968C13.0037 8.76685 12.5229 9.24763 12.5229 9.8407V10.0004C12.5229 10.5935 13.0037 11.0742 13.5968 11.0742H19.4782C20.0713 11.0742 20.5521 10.5935 20.5521 10.0004V9.8407C20.5521 9.24763 20.0713 8.76685 19.4782 8.76685Z" fill="white"/>
<path d="M61.1215 23.145H4.3285C2.09003 23.145 0.275391 24.9597 0.275391 27.1981V35.8991C0.275391 38.1376 2.09003 39.9522 4.3285 39.9522H61.1215C63.3601 39.9522 65.1745 38.1376 65.1745 35.8991V27.1981C65.1745 24.9597 63.3601 23.145 61.1215 23.145Z" fill="#153385" stroke="#101C3F" stroke-width="0.75" stroke-miterlimit="10"/>
<path d="M61.1215 21.3718H4.3285C2.09003 21.3718 0.275391 23.1865 0.275391 25.4249V34.1259C0.275391 36.3644 2.09003 38.1791 4.3285 38.1791H61.1215C63.3601 38.1791 65.1745 36.3644 65.1745 34.1259V25.4249C65.1745 23.1865 63.3601 21.3718 61.1215 21.3718Z" fill="white" stroke="#101C3F" stroke-width="0.75" stroke-miterlimit="10"/>
<path d="M29.3464 26.5816C33.73 24.9681 37.7996 26.6917 40.0079 29.7646C33.3995 24.3788 23.0906 30.7338 24.1093 38.9942C24.2745 40.3434 24.7481 41.577 25.4475 42.6453C23.9221 41.3512 22.8482 39.4623 22.6059 36.9622C22.1709 32.4465 25.1446 28.1235 29.3464 26.5761V26.5816Z" fill="#101C3F" stroke="#101C3F" stroke-width="0.75" stroke-miterlimit="10"/>
<path d="M19.5002 37.788C20.3372 44.5284 26.8354 48.9175 33.3942 47.8712C44.2098 46.153 49.8104 30.8217 39.3031 24.5493C30.2112 19.1194 18.2446 27.4955 19.5002 37.788ZM38.802 28.1508C45.6416 34.1038 39.7162 45.0682 31.3842 44.9194C26.9896 44.8423 23.1733 41.6153 22.6336 37.2042C21.6039 28.8281 32.1937 22.3961 38.802 28.1453V28.1508Z" fill="#48EFCF" stroke="#101C3F" stroke-width="0.75" stroke-miterlimit="10"/>
<path d="M33.394 47.8713C41.8031 46.5331 47.0512 36.9785 44.0444 29.8416C46.6052 33.355 47.3155 38.2066 44.6171 42.8819C39.8041 51.225 26.8793 51.9519 22.4187 44.0825C25.1006 47.0067 29.2308 48.5321 33.394 47.8713Z" fill="#153385" stroke="#101C3F" stroke-width="0.75" stroke-miterlimit="10"/>
<path d="M50.3431 60.4603L50.5958 60.2651C51.5729 59.5098 51.7528 58.1057 50.9976 57.1287L42.5987 46.2617C41.8436 45.2847 40.4394 45.1048 39.4624 45.86L39.2097 46.0553C38.2327 46.8104 38.0528 48.2146 38.808 49.1916L47.2069 60.0583C47.962 61.0356 49.3662 61.2155 50.3431 60.4603Z" fill="#153385" stroke="#101C3F" stroke-width="0.75" stroke-miterlimit="10"/>
<path d="M51.0092 59.9483L51.2619 59.753C52.2389 58.9979 52.4188 57.5937 51.6637 56.6167L43.2647 45.7498C42.5096 44.7728 41.1055 44.5929 40.1285 45.348L39.8757 45.5433C38.8987 46.2984 38.7189 47.7026 39.474 48.6796L47.8728 59.5465C48.628 60.5234 50.0321 60.7032 51.0092 59.9483Z" fill="#48EFCF" stroke="#101C3F" stroke-width="0.75" stroke-miterlimit="10"/>
<path d="M6.75146 24.2136V35.4698" stroke="#101C3F" stroke-width="0.75" stroke-miterlimit="10"/>
</g>
</g>
<defs>
<clipPath id="clip0_5801_7494">
<rect width="66" height="66" fill="white"/>
</clipPath>
</defs>
</svg>
