<svg width="53" height="58" viewBox="0 0 53 58" fill="none" xmlns="http://www.w3.org/2000/svg">
<g clip-path="url(#clip0_7684_3241)">
<mask id="mask0_7684_3241" style="mask-type:luminance" maskUnits="userSpaceOnUse" x="0" y="0" width="53" height="58">
<path d="M52.7079 0H0V57.6H52.7079V0Z" fill="white"/>
</mask>
<g mask="url(#mask0_7684_3241)">
<path d="M42.0643 0.295349H3.25972C1.60774 0.295349 0.268555 1.63454 0.268555 3.28651V32.79C0.268555 34.442 1.60774 35.7812 3.25972 35.7812H42.0643C43.7163 35.7812 45.0554 34.442 45.0554 32.79V3.28651C45.0554 1.63454 43.7163 0.295349 42.0643 0.295349Z" fill="#153385" stroke="#101C3F" stroke-miterlimit="10"/>
<path d="M43.3694 0.268494H4.56489C2.91292 0.268494 1.57373 1.60768 1.57373 3.25966V32.7631C1.57373 34.4151 2.91292 35.7543 4.56489 35.7543H43.3694C45.0214 35.7543 46.3606 34.4151 46.3606 32.7631V3.25966C46.3606 1.60768 45.0214 0.268494 43.3694 0.268494Z" fill="#0B64DD"/>
<path d="M43.3694 0.268494H4.56489C2.91292 0.268494 1.57373 1.60768 1.57373 3.25966V32.7631C1.57373 34.4151 2.91292 35.7543 4.56489 35.7543H43.3694C45.0214 35.7543 46.3606 34.4151 46.3606 32.7631V3.25966C46.3606 1.60768 45.0214 0.268494 43.3694 0.268494Z" stroke="#101C3F" stroke-miterlimit="10"/>
<path d="M1.60547 7.78131H46.2635" stroke="#101C3F" stroke-miterlimit="10"/>
<path d="M11.476 3.39392H6.32604C5.79217 3.39392 5.35938 3.82669 5.35938 4.36054V4.46258C5.35938 4.99643 5.79217 5.42922 6.32604 5.42922H11.476C12.0098 5.42922 12.4426 4.99643 12.4426 4.46258V4.36054C12.4426 3.82669 12.0098 3.39392 11.476 3.39392Z" fill="white"/>
<path d="M0.268555 17.0233V26.9527" stroke="#101C3F" stroke-miterlimit="10"/>
<path d="M7.70605 14.494H27.7098" stroke="white" stroke-miterlimit="10" stroke-linecap="round"/>
<path d="M7.70605 20.8737H27.3983" stroke="white" stroke-miterlimit="10" stroke-linecap="round"/>
<path d="M7.70605 27.2534H26.625" stroke="white" stroke-miterlimit="10" stroke-linecap="round"/>
<path d="M46.5056 11.7177L39.9325 5.14459L31.5712 13.5113H31.3511V25.4544H41.114V17.1092L46.5056 11.7177Z" fill="#153385" stroke="#101C3F" stroke-miterlimit="10"/>
<path d="M25.7124 57.2346L20.0953 53.9914C19.3649 53.5722 18.7581 52.9656 18.3338 52.2298C17.9096 51.4995 17.6895 50.6672 17.6895 49.824V35.4697C17.6895 34.6266 17.9096 33.7942 18.3338 33.0639C18.7581 32.3335 19.3649 31.7267 20.0953 31.3025L32.5325 24.1226C33.2628 23.7038 34.0898 23.4782 34.9329 23.4782C35.776 23.4782 36.603 23.6984 37.3333 24.1226L49.7652 31.3025C50.4955 31.7214 51.1023 32.3282 51.5266 33.0639C51.9508 33.7996 52.171 34.6266 52.171 35.4697V49.824C52.171 50.6725 51.9455 51.5103 51.5212 52.2459C51.0916 52.9817 50.4741 53.5882 49.7383 54.0074L44.2232 57.1328L38.7403 47.7942L42.9666 45.485L42.5477 38.246L34.9275 33.8425L27.3127 38.246V45.7105L31.1577 47.9284L25.7124 57.2293V57.2346Z" fill="#153385" stroke="#101C3F" stroke-miterlimit="10"/>
<path d="M45.8396 10.9712L39.2665 4.39813L30.9052 12.7648H30.6851V24.7079H40.4479V16.3628L45.8396 10.9712Z" fill="#48EFCF" stroke="#101C3F" stroke-miterlimit="10"/>
<path d="M35.5933 21.1153C38.5683 21.1153 40.9795 18.7041 40.9795 15.7291C40.9795 12.754 38.5683 10.3428 35.5933 10.3428C32.6182 10.3428 30.207 12.754 30.207 15.7291C30.207 18.7041 32.6182 21.1153 35.5933 21.1153Z" fill="#153385" stroke="#101C3F" stroke-miterlimit="10"/>
<path d="M25.7124 55.9029L20.0953 52.6594C19.3649 52.2405 18.7581 51.6337 18.3338 50.898C17.9096 50.1677 17.6895 49.3353 17.6895 48.4922V34.1379C17.6895 33.2947 17.9096 32.4624 18.3338 31.7321C18.7581 31.0017 19.3649 30.3949 20.0953 29.9706L32.5325 22.7908C33.2628 22.3719 34.0898 22.1464 34.9329 22.1464C35.776 22.1464 36.603 22.3665 37.3333 22.7908L49.7652 29.9706C50.4955 30.3895 51.1023 30.9963 51.5266 31.7321C51.9508 32.4677 52.171 33.2947 52.171 34.1379V48.4922C52.171 49.3407 51.9455 50.1784 51.5212 50.9141C51.0916 51.6498 50.4741 52.2566 49.7383 52.6755L44.2232 55.801L39.4761 47.4343L42.5531 45.6836V36.9142L34.9329 32.5107L27.3181 36.9142V45.7105L30.5187 47.5632L25.7178 55.8976L25.7124 55.9029Z" fill="#48EFCF" stroke="#101C3F" stroke-miterlimit="10"/>
<path d="M22.3237 40.3618C25.2988 40.3618 27.71 37.9506 27.71 34.9756C27.71 32.0006 25.2988 29.5894 22.3237 29.5894C19.3487 29.5894 16.9375 32.0006 16.9375 34.9756C16.9375 37.9506 19.3487 40.3618 22.3237 40.3618Z" fill="#153385" stroke="#101C3F" stroke-miterlimit="10"/>
<path d="M49.7434 30.1211L37.3116 22.9466C36.549 22.5116 35.6844 22.2914 34.8091 22.3075V32.7202L34.9058 32.6665L42.526 37.0646V45.8394L39.4489 47.5901L44.1961 55.9568L49.7058 52.8367C50.4469 52.4178 51.0591 51.811 51.4887 51.0753C51.9183 50.3396 52.1439 49.5072 52.1439 48.6533V34.299C52.1439 33.4505 51.9291 32.6181 51.5048 31.8878C51.0806 31.1521 50.4738 30.5453 49.7434 30.1211Z" fill="#48EFCF" stroke="#101C3F" stroke-miterlimit="10"/>
<path d="M34.6104 33.9231C37.5854 33.9231 39.9966 31.5119 39.9966 28.5368C39.9966 25.5618 37.5854 23.1506 34.6104 23.1506C31.6353 23.1506 29.2241 25.5618 29.2241 28.5368C29.2241 31.5119 31.6353 33.9231 34.6104 33.9231Z" fill="#153385" stroke="#101C3F" stroke-miterlimit="10"/>
<path d="M47.0586 40.4425C50.0337 40.4425 52.4448 38.0313 52.4448 35.0562C52.4448 32.0812 50.0337 29.67 47.0586 29.67C44.0836 29.67 41.6724 32.0812 41.6724 35.0562C41.6724 38.0313 44.0836 40.4425 47.0586 40.4425Z" fill="#153385" stroke="#101C3F" stroke-miterlimit="10"/>
<path d="M22.3237 39.3361C25.2988 39.3361 27.71 36.9249 27.71 33.9499C27.71 30.9749 25.2988 28.5637 22.3237 28.5637C19.3487 28.5637 16.9375 30.9749 16.9375 33.9499C16.9375 36.9249 19.3487 39.3361 22.3237 39.3361Z" fill="#48EFCF" stroke="#101C3F" stroke-miterlimit="10"/>
<path d="M34.6104 32.6557C37.5854 32.6557 39.9966 30.2446 39.9966 27.2695C39.9966 24.2944 37.5854 21.8832 34.6104 21.8832C31.6353 21.8832 29.2241 24.2944 29.2241 27.2695C29.2241 30.2446 31.6353 32.6557 34.6104 32.6557Z" fill="#48EFCF" stroke="#101C3F" stroke-miterlimit="10"/>
<path d="M35.5933 20.2078C38.5683 20.2078 40.9795 17.7966 40.9795 14.8215C40.9795 11.8465 38.5683 9.4353 35.5933 9.4353C32.6182 9.4353 30.207 11.8465 30.207 14.8215C30.207 17.7966 32.6182 20.2078 35.5933 20.2078Z" fill="#48EFCF" stroke="#101C3F" stroke-miterlimit="10"/>
<path d="M34.6911 29.1329C35.6684 29.1329 36.4632 28.3382 36.4632 27.3608C36.4632 26.3835 35.6684 25.5887 34.6911 25.5887C33.7137 25.5887 32.9189 26.3835 32.9189 27.3608C32.9189 28.3382 33.7137 29.1329 34.6911 29.1329Z" fill="#101C3F" stroke="#101C3F" stroke-miterlimit="10"/>
<path d="M35.5934 16.3198C36.5708 16.3198 37.3656 15.525 37.3656 14.5477C37.3656 13.5703 36.5708 12.7755 35.5934 12.7755C34.6161 12.7755 33.8213 13.5703 33.8213 14.5477C33.8213 15.525 34.6161 16.3198 35.5934 16.3198Z" fill="#101C3F" stroke="#101C3F" stroke-miterlimit="10"/>
<path d="M22.3234 35.7221C23.3008 35.7221 24.0955 34.9273 24.0955 33.95C24.0955 32.9726 23.3008 32.1778 22.3234 32.1778C21.346 32.1778 20.5513 32.9726 20.5513 33.95C20.5513 34.9273 21.346 35.7221 22.3234 35.7221Z" fill="#101C3F" stroke="#101C3F" stroke-miterlimit="10"/>
<path d="M47.0586 39.2449C50.0337 39.2449 52.4448 36.8337 52.4448 33.8587C52.4448 30.8836 50.0337 28.4724 47.0586 28.4724C44.0836 28.4724 41.6724 30.8836 41.6724 33.8587C41.6724 36.8337 44.0836 39.2449 47.0586 39.2449Z" fill="#48EFCF" stroke="#101C3F" stroke-miterlimit="10"/>
<path d="M47.0582 35.7221C48.0356 35.7221 48.8304 34.9273 48.8304 33.95C48.8304 32.9726 48.0356 32.1778 47.0582 32.1778C46.0809 32.1778 45.2861 32.9726 45.2861 33.95C45.2861 34.9273 46.0809 35.7221 47.0582 35.7221Z" fill="#101C3F" stroke="#101C3F" stroke-miterlimit="10"/>
</g>
</g>
<defs>
<clipPath id="clip0_7684_3241">
<rect width="52.8" height="57.6" fill="white"/>
</clipPath>
</defs>
</svg>
