<svg width="589" height="310" viewBox="0 0 589 310" fill="none" xmlns="http://www.w3.org/2000/svg">
<g clip-path="url(#clip0_5604_14045)">
<g clip-path="url(#clip1_5604_14045)">
<path d="M164.522 19.6513C164.522 19.6513 164.058 19.6428 163.354 19.6256C159.802 19.557 156.886 22.41 156.886 25.9581V98.4863C156.886 101.983 159.725 104.819 163.225 104.819H164.505L164.518 19.6513H164.522Z" fill="#101C3F"/>
<path d="M246.419 112.181L164.509 104.935C162.229 104.733 160.36 102.352 160.36 99.6148L160.347 23.4269C160.347 20.6554 162.224 18.965 164.522 19.6472L246.857 44.0077C248.308 44.4367 249.468 46.5433 249.451 48.7142L249.051 108.513C249.038 110.662 247.862 112.306 246.414 112.177L246.419 112.181Z" fill="#153385" stroke="#101C3F" stroke-width="0.673913" stroke-miterlimit="10"/>
<path d="M182.423 36.5594L214.058 44.9857" stroke="white" stroke-width="0.673913" stroke-miterlimit="10"/>
<path d="M187.263 45.2646L222.922 54.0813" stroke="white" stroke-width="0.673913" stroke-miterlimit="10"/>
<path d="M225.482 54.7163L244.838 59.5" stroke="white" stroke-width="0.673913" stroke-miterlimit="10"/>
<path d="M187.25 52.5369L209.248 57.5651" stroke="white" stroke-width="0.673913" stroke-miterlimit="10"/>
<path d="M212.095 58.2129L222.935 60.6927" stroke="white" stroke-width="0.673913" stroke-miterlimit="10"/>
<path d="M225.452 61.2677L239.504 64.4769" stroke="white" stroke-width="0.673913" stroke-miterlimit="10"/>
<path d="M197.171 61.8853L216.75 65.9911" stroke="white" stroke-width="0.673913" stroke-miterlimit="10"/>
<path d="M197.154 69.0161L221.281 73.6239" stroke="white" stroke-width="0.673913" stroke-miterlimit="10"/>
<path d="M224.198 74.1815L237.232 76.6699" stroke="white" stroke-width="0.673913" stroke-miterlimit="10"/>
<path d="M219.92 66.6565L232.869 69.3766" stroke="white" stroke-width="0.673913" stroke-miterlimit="10"/>
<path d="M236.322 70.0972L242.403 71.3757" stroke="white" stroke-width="0.673913" stroke-miterlimit="10"/>
<path d="M182.367 73.3322L213.92 78.7852" stroke="white" stroke-width="0.673913" stroke-miterlimit="10"/>
<path d="M187.194 81.5393L207.194 84.6155" stroke="white" stroke-width="0.673913" stroke-miterlimit="10"/>
<path d="M211.262 85.2421L228.424 87.8806" stroke="white" stroke-width="0.673913" stroke-miterlimit="10"/>
<path d="M231.464 88.4086L242.747 90.1419" stroke="white" stroke-width="0.673913" stroke-miterlimit="10"/>
<path d="M187.181 88.7688L203.493 90.974" stroke="white" stroke-width="0.673913" stroke-miterlimit="10"/>
<path d="M207.173 91.4718L221.883 93.4625" stroke="white" stroke-width="0.673913" stroke-miterlimit="10"/>
<path d="M187.168 96.0582L195.393 96.8863" stroke="white" stroke-width="0.673913" stroke-miterlimit="10"/>
<path d="M200.203 97.5768L213.843 99.1642" stroke="white" stroke-width="0.673913" stroke-miterlimit="10"/>
<path d="M218.374 99.692L230.747 101.134" stroke="white" stroke-width="0.673913" stroke-miterlimit="10"/>
<path d="M225.293 93.9216L239.32 95.818" stroke="white" stroke-width="0.673913" stroke-miterlimit="10"/>
<path d="M167.107 32.6213L171.329 33.7454" stroke="white" stroke-width="0.673913" stroke-miterlimit="10"/>
<path d="M167.103 40.2794L171.325 41.3263" stroke="white" stroke-width="0.673913" stroke-miterlimit="10"/>
<path d="M167.103 47.9332L171.321 48.8943" stroke="white" stroke-width="0.673913" stroke-miterlimit="10"/>
<path d="M167.099 55.5741L171.312 56.4579" stroke="white" stroke-width="0.673913" stroke-miterlimit="10"/>
<path d="M167.095 63.207L171.308 64.0136" stroke="white" stroke-width="0.673913" stroke-miterlimit="10"/>
<path d="M167.095 70.8307L171.304 71.5558" stroke="white" stroke-width="0.673913" stroke-miterlimit="10"/>
<path d="M167.09 78.4463L171.299 79.0941" stroke="white" stroke-width="0.673913" stroke-miterlimit="10"/>
<path d="M167.086 86.0532L171.295 86.6196" stroke="white" stroke-width="0.673913" stroke-miterlimit="10"/>
<path d="M167.086 93.6466L171.286 94.14" stroke="white" stroke-width="0.673913" stroke-miterlimit="10"/>
<path d="M177.952 23.7616L177.857 106.252" stroke="white" stroke-width="0.673913" stroke-miterlimit="10"/>
<path d="M115.575 120.676H114.763C110.369 120.676 106.809 124.233 106.809 128.622V223.734C106.809 227.767 109.828 231.156 113.84 231.628L115.575 231.83V120.676Z" fill="#101C3F" stroke="#101C3F" stroke-width="0.673913" stroke-miterlimit="10"/>
<path d="M223.141 210.052L115.575 231.834C112.822 232.392 110.567 230.285 110.567 227.123V126.249C110.567 123.087 112.822 120.594 115.575 120.68L223.141 124.048C224.773 124.099 226.083 126.086 226.083 128.488V205.105C226.083 207.508 224.773 209.722 223.141 210.052Z" fill="#0B64DD"/>
<path d="M223.141 210.052L115.575 231.834C112.822 232.392 110.567 230.285 110.567 227.123V126.249C110.567 123.087 112.822 120.594 115.575 120.68L223.141 124.048C224.773 124.099 226.083 126.086 226.083 128.488V205.105C226.083 207.508 224.773 209.722 223.141 210.052Z" stroke="#101C3F" stroke-width="0.673913" stroke-miterlimit="10"/>
<path d="M137.126 121.414V227.471" stroke="white" stroke-width="0.673913" stroke-miterlimit="10"/>
<path d="M185.223 143.547L188.087 143.492V178.475L183.741 178.938L185.223 143.547Z" fill="#101C3F" stroke="#101C3F" stroke-width="0.673913" stroke-miterlimit="10"/>
<path d="M185.927 143.53C173.159 143.783 162.203 158.25 162.203 175.832C162.203 193.414 173.159 205.825 185.927 203.68C197.939 201.66 207.165 187.351 207.165 171.61L185.927 173.605V143.53Z" fill="white" stroke="#101C3F" stroke-width="0.673913" stroke-miterlimit="10"/>
<path d="M191.45 135.554C203.14 135.554 212.125 148.151 212.125 163.686L191.45 165.222V135.559V135.554Z" fill="#48EFCF" stroke="#101C3F" stroke-width="0.673913" stroke-miterlimit="10"/>
<path d="M115.738 130.582L130.894 130.741" stroke="white" stroke-width="0.673913" stroke-miterlimit="10"/>
<path d="M115.738 138.343L130.894 138.253" stroke="white" stroke-width="0.673913" stroke-miterlimit="10"/>
<path d="M115.738 146.104L130.894 145.765" stroke="white" stroke-width="0.673913" stroke-miterlimit="10"/>
<path d="M115.738 153.861L125.985 153.466" stroke="white" stroke-width="0.673913" stroke-miterlimit="10"/>
<path d="M115.738 161.623L125.985 161.061" stroke="white" stroke-width="0.673913" stroke-miterlimit="10"/>
<path d="M115.738 169.384L125.985 168.655" stroke="white" stroke-width="0.673913" stroke-miterlimit="10"/>
<path d="M321.972 30.2523L320.602 30.78C319.06 31.3764 318.038 32.8566 318.038 34.5083V99.6528C318.038 101.862 319.829 103.651 322.041 103.651H323.329L321.972 30.2523Z" fill="#101C3F" stroke="#101C3F" stroke-width="0.673913" stroke-miterlimit="10"/>
<path d="M368.162 110.967L323.333 103.836C321.787 103.592 320.525 100.811 320.525 97.6323L320.55 34.5557C320.55 32.003 320.52 30.7588 321.976 30.2482C322.702 29.9951 323.497 30.0509 324.201 30.3555L368.278 49.4475C369.343 49.9066 370.193 52.3949 370.189 54.9992L370.09 106.56C370.086 109.16 369.227 111.13 368.166 110.962L368.162 110.967Z" fill="#0B64DD" stroke="#101C3F" stroke-width="0.673913" stroke-miterlimit="10"/>
<path d="M336.638 95.2338L340.718 96.0532L340.736 78.3813L336.656 77.2744L336.638 95.2338Z" fill="#48EFCF"/>
<path d="M336.638 95.2342L340.718 96.0537L340.727 86.3146L336.651 85.3364L336.638 95.2342Z" fill="white"/>
<path d="M329.724 93.844L334.023 94.7063L334.062 49.0314L329.758 47.4097L329.724 93.844Z" fill="#48EFCF"/>
<path d="M329.724 93.8436L334.023 94.7059L334.049 67.3979L329.745 66.0808L329.724 93.8436Z" fill="white"/>
<path d="M343.201 96.551L347.075 97.3276L347.113 66.5873L343.235 65.3259L343.201 96.551Z" fill="#48EFCF"/>
<path d="M361.475 100.219L364.808 100.888L364.855 72.3749L361.522 71.2894L361.475 100.219Z" fill="#48EFCF"/>
<path d="M361.475 100.219L364.808 100.888L364.842 79.8615L361.509 78.8833L361.475 100.219Z" fill="white"/>
<path d="M343.201 96.551L347.075 97.3276L347.088 88.8756L343.21 87.9618L343.201 96.551Z" fill="white"/>
<path d="M349.437 97.8038L353.117 98.5417L353.173 59.1779L349.488 57.8307L349.437 97.8038Z" fill="#48EFCF"/>
<path d="M349.437 97.8038L353.117 98.5417L353.152 74.2713L349.467 73.1558L349.437 97.8038Z" fill="white"/>
<path d="M355.364 98.9924L358.872 99.7003L358.932 61.2846L355.424 60.0018L355.364 98.9924Z" fill="#48EFCF"/>
<path d="M355.364 98.9922L358.872 99.7001L358.894 85.1215L355.385 84.1948L355.364 98.9922Z" fill="white"/>
<path d="M327.375 93.3719L367.389 101.412" stroke="#101C3F" stroke-width="0.673913" stroke-miterlimit="10"/>
<mask id="mask0_5604_14045" style="mask-type:luminance" maskUnits="userSpaceOnUse" x="320" y="30" width="51" height="81">
<path d="M368.162 110.967L323.333 103.836C321.787 103.592 320.525 100.811 320.525 97.6323L320.55 34.5557C320.55 32.003 320.52 30.7588 321.976 30.2482C322.702 29.9951 323.497 30.0509 324.201 30.3555L368.278 49.4475C369.343 49.9066 370.193 52.3949 370.189 54.9992L370.09 106.56C370.086 109.16 369.227 111.13 368.166 110.962L368.162 110.967Z" fill="white"/>
</mask>
<g mask="url(#mask0_5604_14045)">
<g style="mix-blend-mode:multiply">
<path d="M370.704 117.973L352.001 117.805C351.722 117.805 351.498 116.703 351.498 115.347V57.1871C351.498 55.8314 351.722 54.7974 352.001 54.8789L370.052 61.7778C370.284 61.8464 370.468 62.9018 370.468 64.1374L371.125 115.742C371.125 116.973 370.936 117.973 370.704 117.973Z" fill="#E6EBF2"/>
</g>
</g>
<path d="M241.274 70.6075L238.722 71.3369C235.914 72.1392 233.964 74.7563 233.964 77.7252V201.24C233.964 203.848 235.574 206.182 238.014 207.109L240.913 208.212L241.274 70.6075Z" fill="#101C3F" stroke="#101C3F" stroke-width="0.673913" stroke-miterlimit="10"/>
<path d="M354.883 187.232L242.923 208.52C240.393 209.001 238.31 206.843 238.306 203.694L238.07 75.4854C238.065 72.2805 240.157 70.1139 242.712 70.6459L355.458 94.0969C356.605 94.3371 357.52 96.242 357.507 98.3529L356.97 183.061C356.957 185.146 356.025 187.013 354.883 187.232Z" fill="white" stroke="#101C3F" stroke-width="0.673913" stroke-miterlimit="10"/>
<path d="M256.49 91.1586L256.542 178.394" stroke="#101C3F" stroke-width="0.673913" stroke-miterlimit="10"/>
<path d="M261.824 91.9864C261.824 95.8091 259.457 98.5893 256.494 98.1946C253.475 97.7913 250.984 94.256 250.979 90.3089C250.979 86.3575 253.462 83.5903 256.485 84.1223C259.453 84.6457 261.824 88.1638 261.824 91.9864Z" fill="#48EFCF"/>
<path d="M261.841 172.379C261.841 176.159 259.492 179.484 256.542 179.814C253.54 180.149 251.061 177.261 251.057 173.357C251.057 169.449 253.527 166.111 256.533 165.901C259.539 165.69 261.841 168.599 261.841 172.379Z" fill="#48EFCF"/>
<path d="M348.754 179.183L270.284 191.093C268.137 191.419 266.376 189.334 266.376 186.429V171.207C266.376 168.298 268.141 165.81 270.293 165.656L348.866 159.997C350.072 159.911 351.03 161.58 351.017 163.729L350.948 174.97C350.936 177.115 349.956 178.998 348.754 179.183Z" fill="#E6EBF2" stroke="#101C3F" stroke-width="0.673913" stroke-miterlimit="10"/>
<path d="M266.381 171.967L351.017 164.291" stroke="#101C3F" stroke-width="0.673913" stroke-miterlimit="10"/>
<path d="M272.058 176.729L293.373 174.442" stroke="#101C3F" stroke-width="0.673913" stroke-miterlimit="10"/>
<path d="M296.637 174.091L308.254 172.842" stroke="#101C3F" stroke-width="0.673913" stroke-miterlimit="10"/>
<path d="M311.36 172.511L332.146 170.281" stroke="#101C3F" stroke-width="0.673913" stroke-miterlimit="10"/>
<path d="M293.227 184.426L273.411 187.219C272.866 187.296 272.423 186.76 272.428 186.018V182.864C272.428 182.122 272.874 181.47 273.416 181.401L293.24 178.969C293.717 178.909 294.099 179.423 294.099 180.11V183.044C294.09 183.735 293.704 184.349 293.232 184.413L293.227 184.426Z" fill="#0B64DD"/>
<path d="M348.9 154.368L270.297 158.186C268.146 158.289 266.381 156.016 266.381 153.098L266.389 91.0427C266.389 88.0995 268.163 86.0273 270.323 86.4091L349.209 100.336C350.42 100.55 351.378 102.476 351.365 104.643L351.095 150.365C351.082 152.515 350.102 154.308 348.896 154.364L348.9 154.368Z" fill="#E6EBF2" stroke="#101C3F" stroke-width="0.673913" stroke-miterlimit="10"/>
<path d="M266.389 91.8104L351.365 105.209" stroke="#101C3F" stroke-width="0.673913" stroke-miterlimit="10"/>
<path d="M346.241 142.389L276.28 142.299C274.205 142.299 272.509 139.97 272.509 137.104L272.526 104.763C272.526 101.88 274.236 99.7777 276.314 100.061L346.426 109.615C347.663 109.783 348.646 111.692 348.633 113.88L348.492 138.442C348.479 140.622 347.478 142.385 346.241 142.385V142.389Z" stroke="#101C3F" stroke-width="0.673913" stroke-miterlimit="10"/>
<path d="M273.647 150.129C273.647 151.034 273.106 151.781 272.44 151.802C271.775 151.824 271.225 151.098 271.225 150.189C271.225 149.279 271.77 148.529 272.44 148.516C273.11 148.503 273.647 149.228 273.647 150.129Z" fill="#0B64DD"/>
<path d="M287.103 113.807L274.403 112.593V109.594L287.107 110.928L287.103 113.807Z" fill="white"/>
<path d="M286.695 136.16L277.938 135.971L277.946 124.001L286.712 124.529L286.695 136.16Z" fill="#48EFCF"/>
<path d="M298.729 136.486L290.663 136.314L290.676 130.509L298.742 130.84L298.729 136.486Z" fill="#48EFCF"/>
<path d="M338.61 137.284L332.631 137.155L332.674 127.292L338.657 127.648L338.61 137.284Z" fill="#48EFCF"/>
<path d="M346.924 137.516L341.341 137.4L341.367 132.582L346.95 132.809L346.924 137.516Z" fill="#48EFCF"/>
<path d="M309.843 136.726L302.392 136.567L302.444 117.222L309.904 117.887L309.843 136.726Z" fill="#48EFCF"/>
<path d="M320.138 136.945L313.236 136.799L313.309 113.683L320.224 114.412L320.138 136.945Z" fill="#48EFCF"/>
<path d="M329.702 137.151L323.286 137.013L323.359 119.08L329.78 119.655L329.702 137.151Z" fill="#48EFCF"/>
<path d="M275.838 135.855L345.945 137.386" stroke="#101C3F" stroke-width="0.673913" stroke-miterlimit="10"/>
<path d="M275.825 149.867L296.693 149.387" stroke="#101C3F" stroke-width="0.673913" stroke-miterlimit="10"/>
<path d="M274.407 105.377L295.516 107.882" stroke="#101C3F" stroke-width="0.673913" stroke-miterlimit="10"/>
<path d="M299.712 149.318L312.485 149.026" stroke="#101C3F" stroke-width="0.673913" stroke-miterlimit="10"/>
<mask id="mask1_5604_14045" style="mask-type:luminance" maskUnits="userSpaceOnUse" x="238" y="70" width="120" height="139">
<path d="M354.883 187.232L242.923 208.52C240.393 209.001 238.31 206.843 238.306 203.694L238.07 75.4854C238.065 72.2805 240.157 70.1139 242.712 70.6459L355.458 94.0969C356.605 94.3371 357.52 96.242 357.507 98.3529L356.97 183.061C356.957 185.146 356.025 187.013 354.883 187.232Z" fill="white"/>
</mask>
<g mask="url(#mask1_5604_14045)">
<g style="mix-blend-mode:multiply">
<path d="M379.122 154.27C371.872 158.959 364.773 164.253 360.079 171.954C355.531 179.419 353.384 188.27 351.674 196.885C350.622 202.201 349.767 207.556 348.956 212.918C346.417 197.259 344.296 177.24 329.986 168.578C326.331 166.364 322.332 164.845 318.338 163.498C325.554 158.869 332.666 153.652 337.42 146.079C342.106 138.614 344.313 129.677 346.044 120.994C347.117 115.605 347.989 110.169 348.814 104.729C351.339 120.367 353.422 140.476 367.668 149.198C371.258 151.399 375.192 152.918 379.122 154.265V154.27Z" fill="#E6EBF2"/>
</g>
</g>
<path d="M319.309 205.809L318.519 206.097C317.286 206.543 316.466 207.714 316.466 209.027V262.081C316.466 263.896 318.012 265.329 319.825 265.187L319.309 205.809Z" fill="#101C3F"/>
<path d="M371.49 242.298L321.143 264.604C320.623 264.835 320.056 264.964 319.485 264.938C317.256 264.831 317.321 262.6 317.316 259.142L317.265 213.652C317.26 209.717 316.724 206.581 320.512 205.65L371.306 191.887C373.84 191.887 373.642 193.925 373.655 197.22L373.801 235.284C373.814 238.587 373.84 241.179 371.495 242.303L371.49 242.298Z" fill="white" stroke="#101C3F" stroke-width="0.673913" stroke-miterlimit="10"/>
<path d="M371.49 242.298L321.143 264.604C320.623 264.835 320.056 264.964 319.485 264.938C317.256 264.831 317.321 262.6 317.316 259.142L317.265 213.652C317.26 209.717 316.724 206.581 320.512 205.65L371.306 191.887C373.84 191.887 373.642 193.925 373.655 197.22L373.801 235.284C373.814 238.587 373.84 241.179 371.495 242.303L371.49 242.298Z" fill="#0B64DD"/>
<mask id="mask2_5604_14045" style="mask-type:luminance" maskUnits="userSpaceOnUse" x="317" y="191" width="57" height="74">
<path d="M371.49 242.298L321.143 264.604C320.623 264.835 320.056 264.964 319.485 264.938C317.256 264.831 317.321 262.6 317.316 259.142L317.265 213.652C317.26 209.717 316.724 206.581 320.512 205.65L371.306 191.887C373.84 191.887 373.642 193.925 373.655 197.22L373.801 235.284C373.814 238.587 373.84 241.179 371.495 242.303L371.49 242.298Z" fill="white"/>
</mask>
<g mask="url(#mask2_5604_14045)">
<g style="mix-blend-mode:multiply">
<path d="M376.051 260.592L360.045 273.575C358.323 274.974 356.901 274.154 356.901 271.726V217.766C356.901 215.394 358.305 212.849 360.006 212.094L375.824 205.067C377.194 204.457 378.289 205.65 378.302 207.722L378.521 254.745C378.529 256.86 377.434 259.468 376.056 260.592H376.051Z" fill="#E6EBF2"/>
</g>
</g>
<path d="M371.49 242.298L321.143 264.604C320.623 264.835 320.056 264.964 319.485 264.938C317.256 264.831 317.321 262.6 317.316 259.142L317.265 213.652C317.26 209.717 316.724 206.581 320.512 205.65L371.306 191.887C373.84 191.887 373.642 193.925 373.655 197.22L373.801 235.284C373.814 238.587 373.84 241.179 371.495 242.303L371.49 242.298Z" stroke="#101C3F" stroke-width="0.673913" stroke-miterlimit="10"/>
<path d="M338.919 241.831L328.062 246.142L328.023 221.04L338.867 217.539L338.919 241.831Z" fill="#0B64DD"/>
<path d="M333.615 239.844L329.127 230.251L330.918 225.999L333.735 232.092L341.058 213.549L342.612 216.857L333.615 239.844Z" fill="#48EFCF"/>
<path d="M345.159 222.185L359.113 217.388" stroke="white" stroke-width="0.673913" stroke-miterlimit="10"/>
<path d="M345.185 232.563L366.036 224.721" stroke="white" stroke-width="0.673913" stroke-miterlimit="10"/>
<path d="M387.45 262.926L371.473 271.361C369.863 272.21 368.544 271.168 368.544 269.031V222.833C368.544 220.855 369.807 218.761 371.349 218.152L386.69 212.124C388.107 211.566 389.271 212.626 389.301 214.488L390.039 257.889C390.074 259.893 388.918 262.145 387.445 262.922L387.45 262.926Z" fill="#0B64DD"/>
<mask id="mask3_5604_14045" style="mask-type:luminance" maskUnits="userSpaceOnUse" x="368" y="211" width="23" height="61">
<path d="M387.45 262.926L371.473 271.361C369.863 272.21 368.544 271.168 368.544 269.031V222.833C368.544 220.855 369.807 218.761 371.349 218.152L386.69 212.124C388.107 211.566 389.271 212.626 389.301 214.488L390.039 257.889C390.074 259.893 388.918 262.145 387.445 262.922L387.45 262.926Z" fill="white"/>
</mask>
<g mask="url(#mask3_5604_14045)">
<path d="M363.498 238.454C366.225 237.265 366.186 257.679 368.918 256.349C371.615 255.036 371.538 223.862 374.132 222.807C376.691 221.764 376.897 252.466 379.487 251.205C382.043 249.96 381.832 230.465 384.314 229.384C386.767 228.316 387.05 247.523 389.507 246.326C391.933 245.147 391.577 226.218 393.939 225.192L394.751 264.552L363.506 281.512L363.498 238.458V238.454Z" fill="#FEC514" stroke="#101C3F" stroke-width="0.673913" stroke-miterlimit="10"/>
</g>
<path d="M387.45 262.926L371.473 271.361C369.863 272.21 368.544 271.168 368.544 269.031V222.833C368.544 220.855 369.807 218.761 371.349 218.152L386.69 212.124C388.107 211.566 389.271 212.626 389.301 214.488L390.039 257.889C390.074 259.893 388.918 262.145 387.445 262.922L387.45 262.926Z" stroke="#101C3F" stroke-width="0.673913" stroke-miterlimit="10"/>
<path d="M401.455 229.204C421.735 229.204 438.175 195.724 438.175 154.424C438.175 113.123 421.735 79.6431 401.455 79.6431C381.175 79.6431 364.735 113.123 364.735 154.424C364.735 195.724 381.175 229.204 401.455 229.204Z" stroke="#101C3F" stroke-width="0.673913" stroke-linejoin="round"/>
<path d="M401.455 212.948C417.325 212.948 430.191 186.746 430.191 154.424C430.191 122.102 417.325 95.8994 401.455 95.8994C385.584 95.8994 372.719 122.102 372.719 154.424C372.719 186.746 385.584 212.948 401.455 212.948Z" stroke="#101C3F" stroke-width="0.673913" stroke-linejoin="round"/>
<path d="M401.455 197.774C413.212 197.774 422.744 178.365 422.744 154.424C422.744 130.483 413.212 111.074 401.455 111.074C389.697 111.074 380.166 130.483 380.166 154.424C380.166 178.365 389.697 197.774 401.455 197.774Z" stroke="#101C3F" stroke-width="0.673913" stroke-linejoin="round"/>
<path d="M217.622 207.268L214.706 206.723C208.878 207.632 206.473 212.382 206.473 216.174V283.52C206.473 288.655 209.789 290.436 213.431 290.436L215.071 290.256L217.622 207.268Z" fill="#101C3F"/>
<path d="M290.508 261.309L214.994 290.342C211.73 291.599 209.033 289.024 209.016 284.58L208.758 215.724C208.741 211.331 211.395 207.276 214.642 206.676L289.804 192.702C291.969 192.299 293.73 194.826 293.768 198.34L294.352 253.38C294.391 256.928 292.682 260.477 290.513 261.309H290.508Z" fill="#FF957D" stroke="#101C3F" stroke-width="0.673913" stroke-miterlimit="10"/>
<path d="M217.657 215.479L217.932 277.05L288.413 251.999" stroke="#101C3F" stroke-width="0.673913" stroke-miterlimit="10"/>
<path d="M276.207 210.507L270.422 211.828L272.015 213.905L256.507 237.944L253.535 233.246L240.513 253.247L235.665 247.451L223.223 264.436L225.92 268.495L235.222 255.62L240.234 261.519L253.037 241.59L256.004 246.224L274.515 217.157L276.1 219.225L276.207 210.507Z" fill="white"/>
<path d="M371.473 163.09L371.572 163.107C376.816 163.502 380.308 163.408 385.229 165.222C389.747 166.891 394.192 168.976 397.843 172.138C405.037 178.368 407.876 187.931 409.997 196.808C411.268 202.136 407.91 207.581 408.855 212.97L403.559 212.146C400.871 196.825 398.638 177.004 383.743 168.243C379.912 165.99 375.691 164.442 371.465 163.086L371.473 163.09Z" fill="#101C3F" stroke="#101C3F" stroke-width="0.673913" stroke-miterlimit="10"/>
<path d="M403.117 105.758L403.396 104.051L408.675 104.686C405.724 122.658 407.373 142.672 392.419 155.101C388.601 158.276 384.388 160.958 380.114 163.493L370.443 162.764C378.113 158.216 385.693 153.106 390.826 145.723C395.846 138.498 398.277 129.848 400.162 121.392C401.318 116.214 402.241 110.988 403.117 105.758Z" fill="#101C3F" stroke="#101C3F" stroke-width="0.673913" stroke-miterlimit="10"/>
<path d="M435.182 154.157L436.187 153.553C428.4 151.086 420.481 147.906 415.31 141.359C410.139 134.812 407.957 126.262 406.171 118.312C405.11 113.584 404.234 108.822 403.401 104.051C400.45 122.014 397.714 141.969 382.76 154.381C378.938 157.551 374.724 160.233 370.451 162.764C378.323 165.222 386.372 168.376 391.624 174.966C396.812 181.483 399.011 190.016 400.802 197.953C401.863 202.655 402.739 207.396 403.572 212.146C406.454 194.56 409.082 174.773 423.466 162.382C427.082 159.267 431.102 156.629 435.186 154.153L435.182 154.157Z" fill="#101C3F" stroke="#101C3F" stroke-width="0.673913" stroke-linejoin="round"/>
<path d="M441.383 154.269C433.545 158.959 425.875 164.253 420.803 171.954C415.885 179.419 413.566 188.27 411.719 196.885C410.581 202.201 409.658 207.555 408.782 212.918C406.037 197.258 403.748 177.24 388.279 168.578C384.327 166.364 380.007 164.845 375.691 163.498C383.486 158.869 391.173 153.651 396.314 146.079C401.378 138.614 403.761 129.677 405.634 120.993C406.798 115.605 407.734 110.169 408.627 104.729C411.354 120.367 413.609 140.476 429.006 149.198C432.888 151.399 437.136 152.918 441.387 154.265L441.383 154.269Z" fill="url(#paint0_linear_5604_14045)" stroke="#101C3F" stroke-width="0.673913" stroke-linejoin="round"/>
<path d="M447.593 175.382C447.593 175.382 437.101 183.581 435.718 186.147C433.197 190.823 432.119 202.548 432.119 205.14C432.119 207.731 433.129 217.946 433.846 219.959C434.567 221.971 443.496 222.117 441.336 207.298C441.336 207.298 445.944 198.232 446.378 192.479C446.378 192.479 453.868 189.6 456.028 186.292C456.028 186.292 470.429 188.45 473.744 186.147L452.932 173.632L447.598 175.382H447.593Z" fill="#F04E98"/>
<path d="M442.758 204.252C442.758 204.252 447.959 213.48 448.392 215.351C448.826 217.221 453.001 218.946 454.298 214.201C455.595 209.452 451.562 201.682 451.562 201.682C451.562 201.682 453.795 195.135 452.932 190.819C452.932 190.819 457.54 188.373 459.125 186.215L460.783 183.984L445.227 183.263L436.947 197.271L442.762 204.247L442.758 204.252Z" fill="#F04E98"/>
<path d="M458.472 185.142C458.472 185.142 452.854 190.179 453.576 194.495C454.297 198.811 457.969 205.358 458.472 206.774C458.914 208.018 463.514 209.172 463.08 203.707C462.646 198.241 461.495 195.362 461.495 195.362C461.495 195.362 466.718 187.738 466.34 185.147H458.472V185.142Z" fill="#F04E98"/>
<path d="M441.332 207.297C441.332 207.297 445.94 198.232 446.374 192.479C446.374 192.479 453.864 189.6 456.024 186.292C456.024 186.292 470.424 188.45 473.74 186.146" stroke="#101C3F" stroke-width="0.673913" stroke-miterlimit="10"/>
<path d="M453 190.896C453 190.896 457.871 188.369 459.43 186.717" stroke="#101C3F" stroke-width="0.673913" stroke-miterlimit="10"/>
<path d="M588.019 179.745L544.53 169.483C542.224 168.938 539.883 168.561 537.525 168.346L481.543 163.322C479.684 163.155 477.82 163.107 475.952 163.176C466.963 163.515 436.595 163.953 414.326 155.715C406.548 152.836 406.836 163.052 413.317 166.793C413.399 166.84 414.107 167.308 414.18 167.368C420.085 172.117 430.311 176 458.395 179.741C458.395 179.741 473.087 182.907 472.219 191.969C471.356 201.034 468.728 203.6 466.602 206.787C464.875 209.379 450.239 222.859 455.367 227.218C458.249 229.663 459.975 227.793 464.442 225.922C468.552 224.202 480.229 214.308 487.002 209.044C488.007 208.263 489.179 207.731 490.429 207.487C494.556 206.676 505.027 204.003 513.458 196.697C516.017 194.478 519.393 193.436 522.764 193.788C527.738 194.307 535.563 196.083 546.029 201.39C565.33 211.172 608.535 225.991 608.535 225.991V186.078L588.01 179.733L588.019 179.745Z" fill="#F04E98"/>
<path d="M444.729 177.677C444.729 177.677 455.779 178.9 459.43 180.007C463.08 181.114 470.429 184.413 470.785 186.717C470.785 186.717 474.311 191.183 470.137 201.399" stroke="#101C3F" stroke-width="0.673913" stroke-miterlimit="10"/>
<path d="M469.939 201.738L473.826 196.263C473.826 196.263 475.222 186.953 480.65 184.276" stroke="#101C3F" stroke-width="0.673913" stroke-miterlimit="10"/>
</g>
</g>
<defs>
<linearGradient id="paint0_linear_5604_14045" x1="382.451" y1="172.134" x2="429.518" y2="148.219" gradientUnits="userSpaceOnUse">
<stop stop-color="#48EFCF"/>
<stop offset="0.11" stop-color="#4EEFD0"/>
<stop offset="0.27" stop-color="#60F1D5"/>
<stop offset="0.45" stop-color="#7DF3DC"/>
<stop offset="0.65" stop-color="#A5F7E7"/>
<stop offset="0.86" stop-color="#D9FBF5"/>
<stop offset="1" stop-color="white"/>
</linearGradient>
<clipPath id="clip0_5604_14045">
<rect y="0.416504" width="589" height="309.326" rx="8.08696" fill="white"/>
</clipPath>
<clipPath id="clip1_5604_14045">
<rect width="582.261" height="271.587" fill="white" transform="translate(26.2827 19.2863)"/>
</clipPath>
</defs>
</svg>
