<svg width="88" height="88" viewBox="0 0 88 88" fill="none" xmlns="http://www.w3.org/2000/svg">
<mask id="mask0_50_1340" style="mask-type:luminance" maskUnits="userSpaceOnUse" x="1" y="5" width="87" height="78">
<path d="M87.2663 5.1333H1.46667V82.9488H87.2663V5.1333Z" fill="white"/>
</mask>
<g mask="url(#mask0_50_1340)">
<path d="M75.3565 10.3143H9.93505C8.60976 10.3143 7.5354 11.3887 7.5354 12.714V30.1206C7.5354 31.4459 8.60976 32.5202 9.93505 32.5202H75.3565C76.6817 32.5202 77.756 31.4459 77.756 30.1206V12.714C77.756 11.3887 76.6817 10.3143 75.3565 10.3143Z" fill="#101C3F"/>
<mask id="mask1_50_1340" style="mask-type:luminance" maskUnits="userSpaceOnUse" x="7" y="10" width="71" height="23">
<path d="M75.3565 10.3143H9.93505C8.60976 10.3143 7.5354 11.3887 7.5354 12.714V30.1206C7.5354 31.4459 8.60976 32.5202 9.93505 32.5202H75.3565C76.6817 32.5202 77.756 31.4459 77.756 30.1206V12.714C77.756 11.3887 76.6817 10.3143 75.3565 10.3143Z" fill="white"/>
</mask>
<g mask="url(#mask1_50_1340)">
<path d="M32.6106 5.61047H2.25183V35.9693H32.6106V5.61047Z" fill="#101C3F"/>
</g>
<path d="M75.3565 10.3143H9.93505C8.60976 10.3143 7.5354 11.3887 7.5354 12.714V30.1206C7.5354 31.4459 8.60976 32.5202 9.93505 32.5202H75.3565C76.6817 32.5202 77.756 31.4459 77.756 30.1206V12.714C77.756 11.3887 76.6817 10.3143 75.3565 10.3143Z" stroke="#101C3F" stroke-width="1.19" stroke-miterlimit="10"/>
<path d="M75.3565 40.2841H9.93505C8.60976 40.2841 7.5354 41.3584 7.5354 42.6837V60.0903C7.5354 61.4156 8.60976 62.4899 9.93505 62.4899H75.3565C76.6817 62.4899 77.756 61.4156 77.756 60.0903V42.6837C77.756 41.3584 76.6817 40.2841 75.3565 40.2841Z" fill="#101C3F"/>
<mask id="mask2_50_1340" style="mask-type:luminance" maskUnits="userSpaceOnUse" x="7" y="40" width="71" height="23">
<path d="M75.3565 40.2841H9.93505C8.60976 40.2841 7.5354 41.3584 7.5354 42.6837V60.0903C7.5354 61.4156 8.60976 62.4899 9.93505 62.4899H75.3565C76.6817 62.4899 77.756 61.4156 77.756 60.0903V42.6837C77.756 41.3584 76.6817 40.2841 75.3565 40.2841Z" fill="white"/>
</mask>
<g mask="url(#mask2_50_1340)">
<path d="M32.6106 35.5802H2.25183V65.939H32.6106V35.5802Z" fill="#101C3F"/>
</g>
<path d="M75.3565 40.2841H9.93505C8.60976 40.2841 7.5354 41.3584 7.5354 42.6837V60.0903C7.5354 61.4156 8.60976 62.4899 9.93505 62.4899H75.3565C76.6817 62.4899 77.756 61.4156 77.756 60.0903V42.6837C77.756 41.3584 76.6817 40.2841 75.3565 40.2841Z" stroke="#101C3F" stroke-width="1.19" stroke-miterlimit="10"/>
<path d="M74.5713 39.7629H9.1499C7.8246 39.7629 6.75024 40.8373 6.75024 42.1626V59.5692C6.75024 60.8945 7.8246 61.9688 9.1499 61.9688H74.5713C75.8963 61.9688 76.9706 60.8945 76.9706 59.5692V42.1626C76.9706 40.8373 75.8963 39.7629 74.5713 39.7629Z" fill="white"/>
<mask id="mask3_50_1340" style="mask-type:luminance" maskUnits="userSpaceOnUse" x="6" y="39" width="71" height="23">
<path d="M74.5713 39.7629H9.1499C7.8246 39.7629 6.75024 40.8373 6.75024 42.1626V59.5692C6.75024 60.8945 7.8246 61.9688 9.1499 61.9688H74.5713C75.8963 61.9688 76.9706 60.8945 76.9706 59.5692V42.1626C76.9706 40.8373 75.8963 39.7629 74.5713 39.7629Z" fill="white"/>
</mask>
<g mask="url(#mask3_50_1340)">
<path d="M31.8254 35.0591H1.46667V65.4178H31.8254V35.0591Z" fill="#0B64DD"/>
</g>
<path d="M74.5713 39.7629H9.1499C7.8246 39.7629 6.75024 40.8373 6.75024 42.1626V59.5692C6.75024 60.8945 7.8246 61.9688 9.1499 61.9688H74.5713C75.8963 61.9688 76.9706 60.8945 76.9706 59.5692V42.1626C76.9706 40.8373 75.8963 39.7629 74.5713 39.7629Z" stroke="#101C3F" stroke-width="1.19" stroke-miterlimit="10"/>
<path d="M37.021 45.0247H67.8494" stroke="#101C3F" stroke-width="0.9" stroke-linecap="round" stroke-linejoin="round"/>
<path d="M37.021 50.866H63.461" stroke="#101C3F" stroke-width="0.9" stroke-linecap="round" stroke-linejoin="round"/>
<path d="M37.021 56.92H54.3321" stroke="#101C3F" stroke-width="0.9" stroke-linecap="round" stroke-linejoin="round"/>
<path d="M74.5713 9.83728H9.1499C7.8246 9.83728 6.75024 10.9116 6.75024 12.2369V29.6435C6.75024 30.9688 7.8246 32.0431 9.1499 32.0431H74.5713C75.8963 32.0431 76.9706 30.9688 76.9706 29.6435V12.2369C76.9706 10.9116 75.8963 9.83728 74.5713 9.83728Z" fill="white"/>
<mask id="mask4_50_1340" style="mask-type:luminance" maskUnits="userSpaceOnUse" x="6" y="9" width="71" height="24">
<path d="M74.5713 9.83728H9.1499C7.8246 9.83728 6.75024 10.9116 6.75024 12.2369V29.6435C6.75024 30.9688 7.8246 32.0431 9.1499 32.0431H74.5713C75.8963 32.0431 76.9706 30.9688 76.9706 29.6435V12.2369C76.9706 10.9116 75.8963 9.83728 74.5713 9.83728Z" fill="white"/>
</mask>
<g mask="url(#mask4_50_1340)">
<path d="M31.8254 5.13342H1.46667V35.4922H31.8254V5.13342Z" fill="#0B64DD"/>
</g>
<path d="M74.5713 9.83728H9.1499C7.8246 9.83728 6.75024 10.9116 6.75024 12.2369V29.6435C6.75024 30.9688 7.8246 32.0431 9.1499 32.0431H74.5713C75.8963 32.0431 76.9706 30.9688 76.9706 29.6435V12.2369C76.9706 10.9116 75.8963 9.83728 74.5713 9.83728Z" stroke="#101C3F" stroke-width="1.19" stroke-miterlimit="10"/>
<path d="M66.5432 65.2052C75.3566 65.2052 82.4971 58.0503 82.4971 49.2296C82.4971 40.4089 75.3566 33.254 66.5432 33.254C57.7298 33.254 50.5896 40.4089 50.5896 49.2296C50.5896 58.0503 57.7298 65.2052 66.5432 65.2052Z" fill="#48EFCF" stroke="#101C3F" stroke-width="0.9" stroke-linecap="round" stroke-linejoin="round"/>
<path d="M58.2361 50.0367L65.0974 55.4231L76.3106 40.3281" stroke="#101C3F" stroke-width="5.41" stroke-miterlimit="10"/>
<path d="M74.6153 36.6736C68.4658 32.7989 61.7145 34.0978 57.3555 38.0605C69.1629 31.999 82.7903 45.0246 78.5634 57.2723C77.8733 59.2683 76.7506 61.0002 75.3419 62.4018C78.086 60.9268 80.3322 58.4024 81.5136 54.6746C83.6417 47.9379 80.5155 40.4015 74.6226 36.6809L74.6153 36.6736Z" fill="#101C3F" stroke="#101C3F" stroke-width="0.71" stroke-miterlimit="10"/>
<path d="M60.1148 30.3552C42.0918 36.4975 45.6436 61.6533 61.5457 67.7808C71.1957 71.494 82.5044 66.9222 85.9679 56.9347C91.2149 41.671 75.7159 25.0423 60.1148 30.3626V30.3552ZM81.389 55.0268C79.1281 61.5652 72.2817 65.2418 65.5599 63.9282C52.8278 61.4478 47.3607 42.8378 59.7112 35.9911C71.636 29.3792 85.6746 42.6103 81.389 55.0194V55.0268Z" fill="#0B64DD" stroke="#101C3F" stroke-width="0.71" stroke-miterlimit="10"/>
<path d="M61.5457 67.7735C49.1806 63.0109 44.2859 46.7638 51.1766 36.8717C46.1425 41.3848 43.4861 48.547 46.0765 56.5385C50.6923 70.7969 70.1316 76.1025 79.4809 65.572C74.4539 69.1531 67.6659 70.1364 61.5457 67.7808V67.7735Z" fill="#153385" stroke="#101C3F" stroke-width="0.71" stroke-miterlimit="10"/>
<path d="M53.3013 63.1553L52.9408 62.7297C51.7095 61.2763 49.5331 61.0962 48.0797 62.3275L31.7244 76.1831C30.271 77.4144 30.0909 79.5909 31.3223 81.0444L31.6827 81.4697C32.914 82.9232 35.0904 83.1028 36.5438 81.8716L52.8991 68.0163C54.3525 66.785 54.5326 64.6087 53.3013 63.1553Z" fill="#153385" stroke="#101C3F" stroke-width="0.71" stroke-miterlimit="10"/>
<path d="M52.4606 62.1599L52.1001 61.7343C50.8688 60.2809 48.6925 60.1008 47.2391 61.3321L30.8837 75.1877C29.4304 76.419 29.2502 78.5951 30.4815 80.0485L30.842 80.4746C32.0733 81.9281 34.2497 82.1077 35.7031 80.8765L52.0584 67.0209C53.5118 65.7897 53.6919 63.6133 52.4606 62.1599Z" fill="#0B64DD" stroke="#101C3F" stroke-width="0.71" stroke-miterlimit="10"/>
<path d="M22.7038 15.1062H15.4095L11.7623 21.4171L15.4095 27.7354H22.7038L26.3436 21.4171L22.7038 15.1062Z" fill="#48EFCF"/>
<path d="M37.021 15.1062H67.8494" stroke="#101C3F" stroke-width="0.9" stroke-linecap="round" stroke-linejoin="round"/>
<path d="M37.021 20.9402H63.461" stroke="#101C3F" stroke-width="0.9" stroke-linecap="round" stroke-linejoin="round"/>
<path d="M37.021 27.0017H54.3321" stroke="#101C3F" stroke-width="0.9" stroke-linecap="round" stroke-linejoin="round"/>
<path d="M19.0567 57.7493C22.5705 57.7493 25.419 54.9008 25.419 51.387C25.419 47.8731 22.5705 45.0247 19.0567 45.0247C15.5428 45.0247 12.6943 47.8731 12.6943 51.387C12.6943 54.9008 15.5428 57.7493 19.0567 57.7493Z" fill="#48EFCF"/>
</g>
</svg>
