<svg xmlns="http://www.w3.org/2000/svg" width="16" height="16" viewBox="0 0 32 32" fill="none">
  <defs>
    <linearGradient id="nightshiftIconGradient" x1="-1" y1="-5" x2="31" y2="19" gradientUnits="userSpaceOnUse">
      <stop offset="16%" stop-color="#61A2FF" />
      <stop offset="83%" stop-color="#C5A5FA" />
    </linearGradient>
  </defs>
  <path d="M30.0003 12C30.0003 12.2652 29.8949 12.5196 29.7074 12.7071C29.5198 12.8946 29.2655 13 29.0003 13H27.0003V15C27.0003 15.2652 26.8949 15.5196 26.7074 15.7071C26.5198 15.8946 26.2655 16 26.0003 16C25.735 16 25.4807 15.8946 25.2931 15.7071C25.1056 15.5196 25.0003 15.2652 25.0003 15V13H23.0003C22.735 13 22.4807 12.8946 22.2931 12.7071C22.1056 12.5196 22.0003 12.2652 22.0003 12C22.0003 11.7348 22.1056 11.4804 22.2931 11.2929C22.4807 11.1054 22.735 11 23.0003 11H25.0003V9C25.0003 8.73478 25.1056 8.48043 25.2931 8.29289C25.4807 8.10536 25.735 8 26.0003 8C26.2655 8 26.5198 8.10536 26.7074 8.29289C26.8949 8.48043 27.0003 8.73478 27.0003 9V11H29.0003C29.2655 11 29.5198 11.1054 29.7074 11.2929C29.8949 11.4804 30.0003 11.7348 30.0003 12ZM18.0003 7H19.0003V8C19.0003 8.26522 19.1056 8.51957 19.2931 8.70711C19.4807 8.89464 19.735 9 20.0003 9C20.2655 9 20.5198 8.89464 20.7074 8.70711C20.8949 8.51957 21.0003 8.26522 21.0003 8V7H22.0003C22.2655 7 22.5198 6.89464 22.7074 6.70711C22.8949 6.51957 23.0003 6.26522 23.0003 6C23.0003 5.73478 22.8949 5.48043 22.7074 5.29289C22.5198 5.10536 22.2655 5 22.0003 5H21.0003V4C21.0003 3.73478 20.8949 3.48043 20.7074 3.29289C20.5198 3.10536 20.2655 3 20.0003 3C19.735 3 19.4807 3.10536 19.2931 3.29289C19.1056 3.48043 19.0003 3.73478 19.0003 4V5H18.0003C17.735 5 17.4807 5.10536 17.2931 5.29289C17.1056 5.48043 17.0003 5.73478 17.0003 6C17.0003 6.26522 17.1056 6.51957 17.2931 6.70711C17.4807 6.89464 17.735 7 18.0003 7ZM27.0965 19.125C27.2129 19.2605 27.2909 19.4248 27.3223 19.6006C27.3538 19.7765 27.3375 19.9575 27.2753 20.125C26.5814 22.0174 25.422 23.7045 23.9041 25.0306C22.3862 26.3568 20.5588 27.2792 18.5904 27.7128C16.622 28.1464 14.5761 28.0773 12.6415 27.5117C10.7069 26.9461 8.94593 25.9023 7.5211 24.4767C6.09627 23.051 5.05349 21.2895 4.48901 19.3546C3.92452 17.4196 3.8565 15.3737 4.29124 13.4055C4.72598 11.4374 5.64947 9.61048 6.97647 8.09336C8.30347 6.57624 9.99124 5.41782 11.884 4.725C12.0506 4.66399 12.2304 4.64839 12.405 4.67982C12.5797 4.71125 12.7428 4.78857 12.8776 4.90384C13.0125 5.01911 13.1143 5.16819 13.1725 5.33578C13.2307 5.50337 13.2433 5.68343 13.209 5.8575C12.8586 7.63121 12.9504 9.46393 13.4763 11.1937C14.0023 12.9235 14.9462 14.4972 16.2246 15.7756C17.5031 17.0541 19.0767 17.998 20.8065 18.5239C22.5363 19.0499 24.369 19.1417 26.1428 18.7913C26.317 18.7572 26.4973 18.7701 26.6649 18.8288C26.8325 18.8875 26.9815 18.9897 27.0965 19.125ZM24.6728 20.985C24.449 20.9963 24.224 21.0025 24.0003 21.0025C20.5531 20.9989 17.2483 19.6277 14.811 17.19C12.3738 14.7523 11.0032 11.4471 11.0003 8C11.0003 7.77625 11.0003 7.55125 11.0178 7.3275C9.68724 8.09314 8.55085 9.15482 7.69663 10.4303C6.84241 11.7057 6.2933 13.1607 6.09184 14.6825C5.89038 16.2044 6.04199 17.7521 6.5349 19.2059C7.02782 20.6597 7.84882 21.9805 8.93429 23.066C10.0198 24.1514 11.3406 24.9724 12.7943 25.4654C14.2481 25.9583 15.7959 26.1099 17.3177 25.9084C18.8395 25.707 20.2945 25.1578 21.57 24.3036C22.8454 23.4494 23.9071 22.313 24.6728 20.9825V20.985Z" fill="url(#nightshiftIconGradient)" />
</svg>
