<svg width="128" height="128" viewBox="0 0 128 128" fill="none" xmlns="http://www.w3.org/2000/svg">
<mask id="mask0" style="mask-type:alpha" maskUnits="userSpaceOnUse" x="8" y="1" width="110" height="126">
<path d="M65.9343 1.95888C65.0286 1.44318 64.0042 1.172 62.9619 1.172C61.9196 1.172 60.8953 1.44318 59.9895 1.95888L10.9176 30.2945C9.04908 31.3436 8 33.3217 8 35.4251V92.2007C8 94.2989 9.16391 96.2822 10.9176 97.3313L59.9947 125.656C60.9013 126.173 61.9265 126.444 62.9697 126.444C64.0129 126.444 65.0382 126.173 65.9448 125.656L115.022 97.3313C116.885 96.2822 117.939 94.2989 117.939 92.2007V35.4146C117.939 33.3165 116.77 31.3331 115.022 30.2841L65.9395 1.95888H65.9343Z" fill="white"/>
</mask>
<g mask="url(#mask0)">
<path d="M65.9343 1.95895C65.0286 1.44324 64.0042 1.17206 62.9619 1.17206C61.9196 1.17206 60.8953 1.44324 59.9895 1.95895L10.9176 30.2946C9.04908 31.3436 8 33.3218 8 35.4251V92.2008C8 94.2989 9.16391 96.2823 10.9176 97.3314L59.9947 125.657C60.9013 126.173 61.9265 126.444 62.9697 126.444C64.0129 126.444 65.0382 126.173 65.9448 125.657L115.022 97.3314C116.885 96.2823 117.939 94.2989 117.939 92.2008V35.4147C117.939 33.3165 116.77 31.3332 115.022 30.2841L65.9395 1.95895H65.9343Z" fill="url(#paint0_linear)"/>
<path d="M115.131 30.2842L65.8246 1.95901C65.3409 1.71393 64.8338 1.51809 64.311 1.37445L9.03851 96.037C9.49781 96.5955 10.0511 97.0705 10.6722 97.4358L59.9842 125.766C61.383 126.586 63.0166 126.815 64.5302 126.351L116.415 31.4481C116.045 31.0012 115.612 30.6093 115.131 30.2842V30.2842Z" fill="url(#paint1_linear)"/>
<path fill-rule="evenodd" clip-rule="evenodd" d="M115.251 97.3262C116.645 96.5067 117.694 95.108 118.164 93.5944L64.0709 1.26482C62.6722 1.02995 61.1533 1.14477 59.8746 1.95899L10.9123 30.1746L63.7212 126.471C64.4885 126.346 65.2348 126.105 65.9342 125.771L115.246 97.3262H115.251Z" fill="url(#paint2_linear)"/>
<path fill-rule="evenodd" clip-rule="evenodd" d="M115.251 97.3261L66.0542 125.656C65.3603 126.01 64.6125 126.247 63.8412 126.356L64.7703 128.104L119.328 96.5119V95.8125L117.929 93.4795C117.699 95.1131 116.65 96.5067 115.246 97.3261H115.251Z" fill="url(#paint3_linear)"/>
<path fill-rule="evenodd" clip-rule="evenodd" d="M115.251 97.3261L66.0542 125.656C65.3603 126.01 64.6125 126.247 63.8412 126.356L64.7703 128.104L119.328 96.5119V95.8125L117.929 93.4795C117.699 95.1131 116.65 96.5067 115.246 97.3261H115.251Z" fill="url(#paint4_linear)"/>
</g>
<defs>
<linearGradient id="paint0_linear" x1="82.9597" y1="23.0815" x2="29.1643" y2="107.608" gradientUnits="userSpaceOnUse">
<stop stop-color="#41873F"/>
<stop offset="0.329" stop-color="#418B3D"/>
<stop offset="0.635" stop-color="#419637"/>
<stop offset="0.932" stop-color="#3FA92D"/>
<stop offset="1" stop-color="#3FAE2A"/>
</linearGradient>
<linearGradient id="paint1_linear" x1="55.5112" y1="70.452" x2="190.242" y2="-2.74359" gradientUnits="userSpaceOnUse">
<stop offset="0.138" stop-color="#41873F"/>
<stop offset="0.403" stop-color="#54A044"/>
<stop offset="0.714" stop-color="#66B848"/>
<stop offset="0.908" stop-color="#6CC04A"/>
</linearGradient>
<linearGradient id="paint2_linear" x1="6.20448" y1="63.8078" x2="119.771" y2="63.8078" gradientUnits="userSpaceOnUse">
<stop offset="0.092" stop-color="#6CC04A"/>
<stop offset="0.286" stop-color="#66B848"/>
<stop offset="0.597" stop-color="#54A044"/>
<stop offset="0.862" stop-color="#41873F"/>
</linearGradient>
<linearGradient id="paint3_linear" x1="6.20444" y1="110.886" x2="119.771" y2="110.886" gradientUnits="userSpaceOnUse">
<stop offset="0.092" stop-color="#6CC04A"/>
<stop offset="0.286" stop-color="#66B848"/>
<stop offset="0.597" stop-color="#54A044"/>
<stop offset="0.862" stop-color="#41873F"/>
</linearGradient>
<linearGradient id="paint4_linear" x1="136.317" y1="20.3987" x2="107.542" y2="171.158" gradientUnits="userSpaceOnUse">
<stop stop-color="#41873F"/>
<stop offset="0.329" stop-color="#418B3D"/>
<stop offset="0.635" stop-color="#419637"/>
<stop offset="0.932" stop-color="#3FA92D"/>
<stop offset="1" stop-color="#3FAE2A"/>
</linearGradient>
</defs>
</svg>
