<svg width="80" height="76" viewBox="0 0 80 76" fill="none" xmlns="http://www.w3.org/2000/svg">
<g clip-path="url(#clip0_50_1230)">
<mask id="mask0_50_1230" style="mask-type:luminance" maskUnits="userSpaceOnUse" x="0" y="0" width="80" height="76">
<path d="M79.1569 0H0V75.5333H79.1569V0Z" fill="white"/>
</mask>
<g mask="url(#mask0_50_1230)">
<path d="M2.94336 50.8338H58.4582C59.8795 50.8338 61.0317 49.6816 61.0317 48.2603V3.29821C61.0317 1.87692 59.8795 0.724731 58.4582 0.724731H2.94336C1.52206 0.724731 0.369873 1.87692 0.369873 3.29821V48.2603C0.369873 49.6816 1.52206 50.8338 2.94336 50.8338Z" fill="#153385" stroke="#101C3F" stroke-miterlimit="10"/>
<path d="M60.4846 0.724731H4.96973C3.54843 0.724731 2.39624 1.87692 2.39624 3.29822V48.2603C2.39624 49.6816 3.54843 50.8338 4.96973 50.8338H60.4846C61.9059 50.8338 63.0581 49.6816 63.0581 48.2603V3.29822C63.0581 1.87692 61.9059 0.724731 60.4846 0.724731Z" fill="#0B64DD"/>
<mask id="mask1_50_1230" style="mask-type:luminance" maskUnits="userSpaceOnUse" x="2" y="0" width="62" height="51">
<path d="M60.4846 0.724731H4.96973C3.54843 0.724731 2.39624 1.87692 2.39624 3.29822V48.2603C2.39624 49.6816 3.54843 50.8338 4.96973 50.8338H60.4846C61.9059 50.8338 63.0581 49.6816 63.0581 48.2603V3.29822C63.0581 1.87692 61.9059 0.724731 60.4846 0.724731Z" fill="white"/>
</mask>
<g mask="url(#mask1_50_1230)">
<path d="M63.6276 0.369751H1.95264V9.14774H63.6276V0.369751Z" stroke="#101C3F" stroke-miterlimit="10"/>
</g>
<path d="M60.4846 0.724731H4.96973C3.54843 0.724731 2.39624 1.87692 2.39624 3.29822V48.2603C2.39624 49.6816 3.54843 50.8338 4.96973 50.8338H60.4846C61.9059 50.8338 63.0581 49.6816 63.0581 48.2603V3.29822C63.0581 1.87692 61.9059 0.724731 60.4846 0.724731Z" stroke="#101C3F" stroke-miterlimit="10"/>
<path d="M16.5874 9.12561V50.8339" stroke="#101C3F" stroke-miterlimit="10"/>
<path d="M5.02881 13.9915H13.1116" stroke="#101C3F" stroke-miterlimit="10"/>
<path d="M5.02881 17.4893H13.1116" stroke="#101C3F" stroke-miterlimit="10"/>
<path d="M5.02881 20.9872H13.1116" stroke="#101C3F" stroke-miterlimit="10"/>
<path d="M5.02881 24.4924H10.4346" stroke="#101C3F" stroke-miterlimit="10"/>
<path d="M5.02881 27.9905H10.4346" stroke="#101C3F" stroke-miterlimit="10"/>
<path d="M5.02881 31.4883H10.4346" stroke="#101C3F" stroke-miterlimit="10"/>
<path d="M69.6765 41.7748H30.135C28.7137 41.7748 27.5615 42.927 27.5615 44.3483V72.5827C27.5615 74.0043 28.7137 75.1564 30.135 75.1564H69.6765C71.0978 75.1564 72.25 74.0043 72.25 72.5827V44.3483C72.25 42.927 71.0978 41.7748 69.6765 41.7748Z" fill="#153385" stroke="#101C3F" stroke-miterlimit="10"/>
<path d="M71.8064 41.7748H32.2649C30.8435 41.7748 29.6914 42.927 29.6914 44.3483V72.5827C29.6914 74.0043 30.8435 75.1564 32.2649 75.1564H71.8064C73.2276 75.1564 74.3799 74.0043 74.3799 72.5827V44.3483C74.3799 42.927 73.2276 41.7748 71.8064 41.7748Z" fill="white" stroke="#101C3F" stroke-miterlimit="10"/>
<path d="M45.6204 70.416H50.7747V62.4811H45.6204V70.416Z" fill="#48EFCF" stroke="#101C3F" stroke-miterlimit="10"/>
<path d="M37.7151 70.4234H42.8695V50.4567H37.7151V70.4234Z" fill="#48EFCF" stroke="#101C3F" stroke-miterlimit="10"/>
<path d="M53.5332 70.4234H58.6876V56.2692H53.5332V70.4234Z" fill="#48EFCF" stroke="#101C3F" stroke-miterlimit="10"/>
<path d="M61.4458 70.4233H66.6002V51.8395H61.4458V70.4233Z" fill="#48EFCF" stroke="#101C3F" stroke-miterlimit="10"/>
<path d="M35.6147 70.4233H68.4563" stroke="#101C3F" stroke-miterlimit="10"/>
<path d="M7.73549 6.61107C8.67078 6.61107 9.42897 5.85287 9.42897 4.91759C9.42897 3.98231 8.67078 3.22412 7.73549 3.22412C6.80019 3.22412 6.04199 3.98231 6.04199 4.91759C6.04199 5.85287 6.80019 6.61107 7.73549 6.61107Z" fill="white"/>
<path d="M47.9795 4.91772H54.6351" stroke="white" stroke-miterlimit="10"/>
<path d="M56.3284 4.91772H59.0867" stroke="white" stroke-miterlimit="10"/>
<mask id="mask2_50_1230" style="mask-type:luminance" maskUnits="userSpaceOnUse" x="16" y="9" width="64" height="45">
<path d="M76.5836 9.12561H19.5232C18.1018 9.12561 16.9497 10.2778 16.9497 11.6991V50.7155C16.9497 52.1369 18.1018 53.289 19.5232 53.289H76.5836C78.0048 53.289 79.1569 52.1369 79.1569 50.7155V11.6991C79.1569 10.2778 78.0048 9.12561 76.5836 9.12561Z" fill="white"/>
</mask>
<g mask="url(#mask2_50_1230)">
<path d="M70.0241 16.321L60.2848 15.0416L63.2724 18.9241L45.1766 30.3791L42.6179 26.0899L27.9609 35.4595L23.9971 29.9723L11.3071 37.0864L13.363 40.7543L22.7843 35.4743L26.8738 41.1463L41.2276 31.969L43.7716 36.2433L65.8385 22.2741L68.4711 25.698L70.0241 16.321Z" fill="#101C3F"/>
<path d="M70.0242 16.321L69.7432 14.5239L65.6389 14.8937L66.0087 18.7983L70.0242 16.321Z" fill="#101C3F"/>
<path d="M69.3438 14.842L59.6118 13.5552L62.5921 17.445L44.4963 28.9L41.9376 24.6108L27.2806 33.9804L23.3242 28.4932L10.6343 35.5999L12.6827 39.2679L22.1041 33.9952L26.2009 39.6672L40.5474 30.4899L43.0986 34.7643L65.1656 20.7949L67.7908 24.2189L69.3438 14.842Z" fill="#48EFCF" stroke="#101C3F" stroke-miterlimit="10"/>
</g>
</g>
</g>
<defs>
<clipPath id="clip0_50_1230">
<rect width="79.2" height="75.5333" fill="white"/>
</clipPath>
</defs>
</svg>
