<svg width="16" height="13" viewBox="0 0 16 13" fill="none" xmlns="http://www.w3.org/2000/svg">
  <path d="M4.96672 8.8637C5.29876 9.6512 6.05226 10.2009 6.92862 10.2009H10.6021L13.3572 13V10.2009C14.5407 10.2009 15.5001 9.1984 15.5001 7.9617V4.60283C15.5001 3.36613 14.5407 2.36359 13.3572 2.36359H12.2858V6.69704C12.2858 7.89366 11.3903 8.8637 10.2858 8.8637H4.96672Z" fill="black"/>
  <path d="M4.90517 6.71774H9.07143C9.66316 6.71774 10.1429 6.21646 10.1429 5.59811V2.23925C10.1429 1.62089 9.66316 1.11962 9.07143 1.11962H2.64286C2.05112 1.11962 1.57143 1.62089 1.57143 2.23925V5.59811C1.57143 6.21646 2.05112 6.71774 2.64286 6.71774H3.71429V8.1696L4.90517 6.71774ZM5.39796 7.83736L2.64286 10.6364V7.83736C1.45939 7.83736 0.5 6.83481 0.5 5.59811V2.23925C0.5 1.00254 1.45939 0 2.64286 0H9.07143C10.2549 0 11.2143 1.00254 11.2143 2.23925V5.59811C11.2143 6.83481 10.2549 7.83736 9.07143 7.83736H5.39796Z" fill="black"/>
</svg>

