<svg width="32" height="32" viewBox="0 0 32 32" fill="none" xmlns="http://www.w3.org/2000/svg">
<path fill-rule="evenodd" clip-rule="evenodd" d="M20.7797 2.01892C21.612 2.01892 22.3496 2.64311 22.6144 3.55102C22.8793 4.45893 24.4302 10.0766 24.4302 10.0766V21.2364H18.8125L18.9261 2H20.7797V2.01892Z" fill="url(#paint0_linear_3625_43445)"/>
<path d="M29.0265 10.737C29.0265 10.3397 28.705 10.0371 28.3267 10.0371H25.0166C22.69 10.0371 20.7986 11.9286 20.7986 14.2551V21.2536H24.8084C27.1351 21.2536 29.0265 19.3621 29.0265 17.0356V10.737Z" fill="url(#paint1_linear_3625_43445)"/>
<path fill-rule="evenodd" clip-rule="evenodd" d="M20.7798 2.01758C20.1367 2.01758 19.626 2.52828 19.626 3.17139L19.5126 24.4128C19.5126 27.5148 16.9969 30.0305 13.8949 30.0305H3.69968C3.2079 30.0305 2.88634 29.5576 3.03766 29.1037L11.2089 5.78164C12.0033 3.53077 14.1217 2.01758 16.505 2.01758H20.7987H20.7798Z" fill="url(#paint2_linear_3625_43445)"/>
<defs>
<linearGradient id="paint0_linear_3625_43445" x1="23.1251" y1="21.6525" x2="18.3964" y2="2.71876" gradientUnits="userSpaceOnUse">
<stop stop-color="#712575"/>
<stop offset="0.09" stop-color="#9A2884"/>
<stop offset="0.18" stop-color="#BF2C92"/>
<stop offset="0.27" stop-color="#DA2E9C"/>
<stop offset="0.34" stop-color="#EB30A2"/>
<stop offset="0.4" stop-color="#F131A5"/>
<stop offset="0.5" stop-color="#EC30A3"/>
<stop offset="0.61" stop-color="#DF2F9E"/>
<stop offset="0.72" stop-color="#C92D96"/>
<stop offset="0.83" stop-color="#AA2A8A"/>
<stop offset="0.95" stop-color="#83267C"/>
<stop offset="1" stop-color="#712575"/>
</linearGradient>
<linearGradient id="paint1_linear_3625_43445" x1="24.922" y1="2.41679" x2="24.922" y2="29.1246" gradientUnits="userSpaceOnUse">
<stop stop-color="#DA7ED0"/>
<stop offset="0.08" stop-color="#B17BD5"/>
<stop offset="0.19" stop-color="#8778DB"/>
<stop offset="0.3" stop-color="#6276E1"/>
<stop offset="0.41" stop-color="#4574E5"/>
<stop offset="0.54" stop-color="#2E72E8"/>
<stop offset="0.67" stop-color="#1D71EB"/>
<stop offset="0.81" stop-color="#1471EC"/>
<stop offset="1" stop-color="#1171ED"/>
</linearGradient>
<linearGradient id="paint2_linear_3625_43445" x1="23.3144" y1="3.02245" x2="5.61009" y2="31.4137" gradientUnits="userSpaceOnUse">
<stop stop-color="#DA7ED0"/>
<stop offset="0.05" stop-color="#B77BD4"/>
<stop offset="0.11" stop-color="#9079DA"/>
<stop offset="0.18" stop-color="#6E77DF"/>
<stop offset="0.25" stop-color="#5175E3"/>
<stop offset="0.33" stop-color="#3973E7"/>
<stop offset="0.42" stop-color="#2772E9"/>
<stop offset="0.54" stop-color="#1A71EB"/>
<stop offset="0.68" stop-color="#1371EC"/>
<stop offset="1" stop-color="#1171ED"/>
</linearGradient>
</defs>
</svg>
