<svg width="14" height="14" viewBox="0 0 14 14" fill="none" xmlns="http://www.w3.org/2000/svg">
<g id="Group 9">
<path id="Vector" d="M13.8099 9.93159C13.7741 9.79662 13.7162 9.66857 13.6385 9.55257C13.6551 9.49151 13.6678 9.42945 13.6763 9.36672C13.7315 8.96879 13.5935 8.60449 13.3335 8.32262C13.1927 8.16867 13.0418 8.06699 12.8819 8.00459C12.9868 7.55559 13.0399 7.09606 13.0402 6.635C13.0402 6.42438 13.0282 6.21809 13.0083 6.01487C12.9979 5.91338 12.9853 5.81217 12.9705 5.71122C12.9248 5.41337 12.8568 5.11932 12.7673 4.83159C12.7087 4.64253 12.6408 4.45643 12.564 4.27398C12.4489 4.00378 12.3144 3.7422 12.1617 3.4913C12.0616 3.32436 11.9525 3.16294 11.835 3.00774C11.7774 2.92936 11.7174 2.85284 11.6549 2.77827C11.4699 2.55347 11.2689 2.34236 11.0534 2.14661C10.9818 2.0808 10.9083 2.01725 10.8327 1.95604C10.7583 1.894 10.6823 1.83396 10.6047 1.77598C10.4485 1.65976 10.2872 1.55073 10.1211 1.44923C9.20347 0.89189 8.12733 0.572266 6.97715 0.572266C3.62829 0.572266 0.914148 3.28654 0.914148 6.6352C0.914015 7.10212 0.968085 7.56744 1.07529 8.02184C0.931461 8.0843 0.793623 8.18165 0.665774 8.32249C0.405879 8.60422 0.267842 8.96719 0.323043 9.36513C0.331434 9.42832 0.344019 9.49091 0.360799 9.55244C0.283164 9.6685 0.225272 9.79662 0.189467 9.93159C0.109561 10.2353 0.135863 10.5092 0.237411 10.7492C0.127007 11.0628 0.154575 11.3968 0.298339 11.6872C0.402883 11.8993 0.552507 12.0634 0.736957 12.21C0.956232 12.3843 1.23071 12.5324 1.56179 12.6745C1.95679 12.843 2.43896 13.0013 2.65823 13.0593C3.22463 13.2059 3.76773 13.2989 4.31815 13.3034C5.10236 13.3107 5.7777 13.1263 6.26119 12.6544C6.49872 12.6835 6.73783 12.6981 6.97715 12.6979C7.22999 12.6974 7.48256 12.6815 7.73346 12.6503C8.21583 13.1252 8.89377 13.3113 9.68084 13.3038C10.2312 13.2994 10.7743 13.2065 11.3392 13.0596C11.56 13.0016 12.0419 12.8433 12.4371 12.6748C12.7682 12.5325 13.0427 12.3844 13.2634 12.2104C13.4465 12.0637 13.596 11.8997 13.7006 11.6876C13.8458 11.3971 13.8719 11.0631 13.763 10.7495C13.8636 10.5095 13.8898 10.235 13.8099 9.93159ZM13.2479 10.7289C13.3592 10.94 13.3663 11.1786 13.2682 11.4008C13.1193 11.7375 12.7494 12.0028 12.0311 12.2876C11.5845 12.4647 11.1755 12.578 11.1719 12.579C10.5811 12.7322 10.0468 12.8101 9.58429 12.8101C8.81839 12.8101 8.24846 12.5987 7.88702 12.1813C7.2758 12.2855 6.65174 12.289 6.03939 12.1919C5.67748 12.6023 5.11081 12.8101 4.35137 12.8101C3.88878 12.8101 3.35455 12.7322 2.76371 12.579C2.76011 12.578 2.35126 12.4647 1.90445 12.2876C1.18623 12.0028 0.816264 11.7377 0.667439 11.4008C0.569287 11.1786 0.576412 10.94 0.687681 10.7289C0.697936 10.7092 0.70899 10.6901 0.720776 10.6716C0.654094 10.5714 0.609367 10.4583 0.58953 10.3396C0.5697 10.2209 0.575213 10.0994 0.605711 9.983C0.649926 9.815 0.741218 9.67529 0.865206 9.57495C0.805476 9.47679 0.766289 9.36759 0.750008 9.25386C0.714317 9.00655 0.79642 8.75964 0.98107 8.55827C1.1249 8.40159 1.32819 8.31536 1.55326 8.31536H1.55926C1.38956 7.7714 1.30352 7.2048 1.30409 6.635C1.30409 3.52726 3.82353 1.00762 6.93174 1.00762C10.0399 1.00762 12.5593 3.52699 12.5593 6.635C12.5598 7.20633 12.4732 7.7744 12.3024 8.31962C12.3295 8.31696 12.3562 8.31563 12.3823 8.31556C12.6074 8.31556 12.8108 8.40179 12.9545 8.55847C13.1391 8.75964 13.2213 9.00675 13.1855 9.25406C13.1693 9.36779 13.1301 9.47699 13.0704 9.57515C13.1944 9.67549 13.2857 9.8152 13.3299 9.9832C13.3604 10.0996 13.3659 10.2211 13.3461 10.3398C13.3263 10.4585 13.2815 10.5716 13.2148 10.6718C13.2266 10.6901 13.2378 10.7092 13.2479 10.7289Z" fill="white"/>
<path id="Vector_2" d="M13.2152 10.6718C13.282 10.5717 13.3267 10.4586 13.3465 10.3399C13.3663 10.2212 13.3608 10.0996 13.3303 9.98325C13.2861 9.81525 13.1947 9.67555 13.0708 9.5752C13.1305 9.47705 13.1697 9.36784 13.1859 9.25411C13.2217 9.0068 13.1396 8.75989 12.9549 8.55853C12.8112 8.40184 12.6078 8.31561 12.3827 8.31561C12.3566 8.31561 12.3299 8.31701 12.3028 8.31967C12.4734 7.77445 12.5599 7.20645 12.5593 6.63519C12.5593 3.52738 10.0398 1.00781 6.93196 1.00781C3.82402 1.00781 1.3043 3.52712 1.3043 6.63519C1.30375 7.20499 1.38978 7.77158 1.55948 8.31555H1.55348C1.32841 8.31555 1.12512 8.40171 0.981358 8.55839C0.796709 8.75956 0.714532 9.00673 0.75029 9.25397C0.766584 9.36771 0.805771 9.47698 0.865488 9.57513C0.7415 9.67541 0.650148 9.81512 0.605933 9.98312C0.575449 10.0996 0.569955 10.2211 0.589812 10.3398C0.609669 10.4585 0.654416 10.5717 0.721124 10.6718C0.709271 10.6904 0.698351 10.7095 0.68803 10.7291C0.576827 10.9403 0.569642 11.1788 0.66786 11.4011C0.816752 11.7378 1.18658 12.0031 1.90487 12.2879C2.35147 12.465 2.76053 12.5783 2.76413 12.5793C3.3549 12.7325 3.88921 12.8103 4.35173 12.8103C5.11123 12.8103 5.6779 12.6026 6.03981 12.1921C6.65216 12.2893 7.27622 12.2857 7.88744 12.1816C8.24888 12.599 8.81881 12.8103 9.58471 12.8103C10.0472 12.8103 10.5815 12.7325 11.1722 12.5793C11.1759 12.5783 11.5848 12.465 12.0316 12.2879C12.7499 12.0031 13.1198 11.7378 13.2686 11.4011C13.3667 11.1788 13.3596 10.9403 13.2483 10.7291C13.2382 10.7093 13.227 10.6902 13.2152 10.6718ZM5.78085 11.5495C5.74968 11.604 5.71632 11.6572 5.68083 11.709C5.58727 11.8459 5.46422 11.9506 5.32139 12.0284C5.04837 12.1773 4.70278 12.2293 4.35173 12.2293C3.79711 12.2293 3.22858 12.0995 2.90996 12.0169C2.89424 12.0128 0.956654 11.4655 1.20197 10.9997C1.24325 10.9213 1.31116 10.89 1.39673 10.89C1.74212 10.89 2.37105 11.4043 2.64133 11.4043C2.70173 11.4043 2.74434 11.3786 2.76172 11.3159C2.87692 10.9028 1.01092 10.7291 1.16807 10.1309C1.19577 10.025 1.27102 9.98199 1.37676 9.98199C1.83342 9.98192 2.85835 10.785 3.0727 10.785C3.08915 10.785 3.10093 10.7802 3.10732 10.7701C3.10825 10.7685 3.10919 10.7671 3.11005 10.7655C3.21067 10.5993 3.15293 10.4785 2.46367 10.0564L2.39749 10.0161C1.63898 9.55702 1.1066 9.28074 1.40938 8.95113C1.44421 8.91311 1.49362 8.89626 1.55361 8.89626C1.62473 8.89626 1.71083 8.92003 1.80565 8.95999C2.20624 9.12892 2.76146 9.58965 2.99339 9.79054C3.02988 9.82224 3.06613 9.85427 3.10212 9.8865C3.10212 9.8865 3.39579 10.1919 3.57331 10.1919C3.6142 10.1919 3.64888 10.1758 3.67239 10.1359C3.79831 9.92365 2.5029 8.94201 2.42985 8.53695C2.38031 8.26254 2.46461 8.12351 2.62042 8.12351C2.69454 8.12351 2.78496 8.15507 2.88478 8.21839C3.19442 8.4149 3.79225 9.44222 4.01112 9.84188C4.0845 9.97579 4.20975 10.0324 4.32262 10.0324C4.54656 10.0324 4.72162 9.80979 4.34313 9.52692C3.77427 9.10129 3.97391 8.40557 4.24539 8.36276C4.25697 8.36089 4.26869 8.35996 4.28034 8.35996C4.52725 8.35996 4.63612 8.78539 4.63612 8.78539C4.63612 8.78539 4.95534 9.58698 5.50371 10.1349C6.00125 10.6323 6.07077 11.0404 5.78085 11.5495ZM7.55403 11.6434L7.5256 11.6468L7.47712 11.6524C7.45161 11.655 7.42605 11.6575 7.40041 11.6599L7.37544 11.6621L7.3526 11.6641L7.32024 11.6667L7.28448 11.6693L7.24879 11.6716L7.24086 11.6721C7.23154 11.6727 7.22222 11.6733 7.21276 11.6737L7.20084 11.6744C7.18979 11.675 7.17874 11.6755 7.16755 11.676L7.12886 11.6777L7.09377 11.6789L7.07033 11.6795H7.05841C7.05109 11.6795 7.04383 11.6799 7.0365 11.68H7.02492C7.01759 11.68 7.01033 11.68 7.00301 11.6803L6.97318 11.6807H6.93156C6.89887 11.6807 6.86624 11.6804 6.83374 11.6797L6.80737 11.6791C6.79985 11.6791 6.79232 11.6788 6.78493 11.6785L6.75697 11.6777L6.72227 11.6764L6.69098 11.675L6.68292 11.6747L6.65315 11.6731C6.64483 11.6727 6.63664 11.6723 6.62838 11.6717L6.60914 11.6705C6.58497 11.669 6.5608 11.6673 6.53662 11.6655L6.51132 11.6634C6.50067 11.6626 6.49001 11.6616 6.47942 11.6607C6.46697 11.6596 6.45452 11.6584 6.44207 11.6572C6.42123 11.6553 6.40038 11.6532 6.37954 11.6509H6.37854C6.68285 10.972 6.52897 10.338 5.91402 9.72356C5.5107 9.32076 5.24241 8.726 5.18675 8.59542C5.07407 8.20887 4.7759 7.77918 4.28068 7.77918C4.23879 7.77918 4.19698 7.78251 4.15563 7.78903C3.93868 7.82319 3.74904 7.94804 3.61373 8.13596C3.4675 7.9541 3.3254 7.80954 3.19689 7.7279C3.00311 7.60505 2.80973 7.54272 2.62136 7.54272C2.38623 7.54272 2.17608 7.63927 2.02959 7.8144L2.02586 7.81886C2.02306 7.80734 2.0204 7.79582 2.01767 7.78424L2.01733 7.78271C1.98945 7.66351 1.96605 7.54332 1.94715 7.42233C1.94715 7.42153 1.94715 7.42073 1.94675 7.41993C1.94528 7.41081 1.94395 7.40162 1.94255 7.3925C1.93846 7.36546 1.93462 7.33836 1.93103 7.31126C1.92944 7.29894 1.92771 7.28662 1.92617 7.2743L1.92165 7.23735C1.92018 7.22503 1.91898 7.21384 1.91765 7.20212L1.91726 7.19919C1.91194 7.15125 1.90728 7.1033 1.90327 7.05523L1.9018 7.03678L1.89947 7.00535C1.89881 6.99676 1.89814 6.98811 1.89767 6.97945C1.89767 6.97739 1.89734 6.97539 1.89727 6.97346C1.89558 6.94935 1.89414 6.92518 1.89295 6.90101C1.89228 6.88842 1.89161 6.87591 1.89108 6.86325L1.88975 6.83023L1.88942 6.82024L1.88835 6.78981L1.88769 6.7639C1.88769 6.75358 1.88715 6.74326 1.88702 6.73294C1.88682 6.72262 1.88655 6.7113 1.88649 6.70038C1.88635 6.68946 1.88649 6.67867 1.88615 6.66782C1.88589 6.6569 1.88615 6.64604 1.88615 6.63519C1.88615 3.84827 4.14556 1.58886 6.93276 1.58886C9.71988 1.58886 11.9792 3.84821 11.9792 6.63519V6.70038C11.9792 6.71123 11.9789 6.72215 11.9787 6.73294C11.9787 6.74193 11.9783 6.75079 11.978 6.75991C11.978 6.7679 11.9777 6.77596 11.9774 6.78368C11.9774 6.79387 11.9768 6.80406 11.9765 6.81424V6.81504L11.9751 6.8504C11.9746 6.86072 11.9742 6.87111 11.9737 6.88143L11.9734 6.88876L11.9716 6.92178C11.9676 6.99257 11.9622 7.06322 11.9555 7.1338V7.13467C11.9544 7.14625 11.9533 7.15784 11.952 7.16943L11.949 7.19679L11.9431 7.25033L11.9397 7.27743L11.9355 7.30933C11.9339 7.32092 11.9324 7.33257 11.9307 7.34409C11.9289 7.35707 11.927 7.36999 11.9251 7.38291L11.9205 7.41347L11.915 7.4481C11.9132 7.45962 11.9112 7.47107 11.909 7.48252C11.9068 7.49404 11.9051 7.5055 11.9031 7.51695C11.8991 7.53986 11.8949 7.56276 11.8905 7.5856C11.8838 7.61976 11.8769 7.65386 11.8699 7.68795L11.8626 7.72171C11.8602 7.73296 11.8576 7.74428 11.855 7.75554C11.713 7.6175 11.5249 7.54232 11.3175 7.54232C11.1292 7.54232 10.9357 7.60458 10.7419 7.72744C10.6134 7.80907 10.4714 7.9537 10.3251 8.13549C10.1896 7.94758 9.99995 7.82273 9.78314 7.78857C9.74179 7.78204 9.69997 7.77871 9.65809 7.77871C9.16274 7.77871 8.86475 8.20841 8.75202 8.59495C8.69608 8.72553 8.42773 9.3203 8.02408 9.72369C7.40953 10.3362 7.25451 10.9674 7.55403 11.6434ZM12.764 10.2844L12.762 10.2904C12.7569 10.3037 12.751 10.3168 12.7445 10.3294C12.7395 10.3388 12.7341 10.3478 12.7282 10.3566C12.7171 10.3732 12.7049 10.389 12.6917 10.404C12.6886 10.4074 12.6857 10.4109 12.6822 10.4143C12.6774 10.4194 12.6725 10.4245 12.6675 10.4294C12.5779 10.5182 12.4413 10.5961 12.2868 10.6676C12.2693 10.6755 12.2515 10.6834 12.2336 10.6914L12.2157 10.6993C12.2038 10.7046 12.1919 10.7098 12.1794 10.7149C12.1675 10.7201 12.1551 10.7253 12.1427 10.7304L12.1055 10.7457C12.0186 10.7814 11.9296 10.8155 11.8428 10.8492L11.8056 10.8636L11.7689 10.878C11.7445 10.8875 11.7204 10.897 11.6967 10.9066L11.6613 10.9208L11.6266 10.935L11.6095 10.9422C11.5981 10.9469 11.587 10.9516 11.5759 10.9564C11.3204 11.066 11.1365 11.1776 11.1752 11.316C11.1762 11.3199 11.1774 11.3236 11.1788 11.3273C11.1822 11.3375 11.187 11.3472 11.1929 11.3563C11.1963 11.3617 11.2003 11.3668 11.2048 11.3715C11.2502 11.4187 11.3329 11.4112 11.4371 11.3737C11.4517 11.3684 11.4663 11.3628 11.4807 11.3569L11.4898 11.3532C11.5136 11.3431 11.5389 11.3317 11.5646 11.3195C11.5711 11.3164 11.5776 11.3135 11.5842 11.3101C11.7116 11.2478 11.856 11.1639 11.9993 11.0875C12.0567 11.0565 12.1148 11.0272 12.1737 10.9993C12.3094 10.9354 12.437 10.8901 12.5395 10.8901C12.5876 10.8901 12.6301 10.9 12.6656 10.9226L12.6715 10.9265C12.6937 10.9422 12.7124 10.9623 12.7263 10.9856C12.729 10.9901 12.7317 10.9948 12.7343 10.9997C12.7849 11.0959 12.7425 11.1955 12.6432 11.2932C12.548 11.387 12.3997 11.479 12.2313 11.5641C12.2187 11.5704 12.2062 11.5767 12.1935 11.5829C11.6921 11.8291 11.0355 12.0146 11.0263 12.0169C10.8514 12.0623 10.6011 12.1218 10.3192 12.1664L10.2775 12.1729L10.2706 12.1739C10.2391 12.1787 10.2074 12.1831 10.1757 12.1873C10.1436 12.1916 10.1111 12.1955 10.0784 12.1992L10.0724 12.1998C9.95387 12.2135 9.83488 12.2226 9.71562 12.2269H9.71389C9.67074 12.2284 9.62766 12.2292 9.58451 12.2292H9.53477C9.46898 12.2283 9.40332 12.2253 9.33773 12.2203C9.3362 12.2203 9.33453 12.2203 9.333 12.2199C9.3095 12.2181 9.28606 12.2159 9.26262 12.2133C9.23831 12.2107 9.21408 12.2078 9.1899 12.2045C9.17399 12.2024 9.15814 12.2 9.14229 12.1974C9.12618 12.1948 9.11007 12.1921 9.09402 12.1893L9.07211 12.1852L9.07045 12.1849C9.04734 12.1805 9.02437 12.1756 9.00146 12.1703C8.98814 12.1673 8.97489 12.1644 8.96177 12.1608L8.95385 12.1588C8.94732 12.1572 8.941 12.1554 8.93454 12.1537L8.93101 12.1528L8.9105 12.1468C8.90304 12.1447 8.89558 12.1424 8.88813 12.1402L8.88553 12.1395L8.86615 12.1336C8.85883 12.1313 8.8515 12.1289 8.84424 12.1265L8.8264 12.1206L8.81328 12.116C8.80063 12.1115 8.78804 12.107 8.77559 12.1022L8.76374 12.0975L8.75395 12.0936C8.73504 12.086 8.71626 12.0781 8.69768 12.0698L8.68536 12.0638L8.6833 12.0629C8.67891 12.0608 8.67458 12.0587 8.67018 12.0569C8.66159 12.0528 8.65307 12.0486 8.64461 12.0442L8.64202 12.043L8.62976 12.0365C8.60799 12.0251 8.58668 12.013 8.56577 12.0001L8.55432 11.9931C8.54859 11.9896 8.54287 11.9859 8.53727 11.9822L8.52236 11.9723L8.50631 11.9613L8.49672 11.9544C8.4866 11.9472 8.47668 11.9398 8.46695 11.9321L8.45144 11.9202C8.44525 11.9152 8.43912 11.9101 8.43306 11.905C8.42793 11.9008 8.42294 11.8964 8.41795 11.892L8.41755 11.8917C8.41215 11.8869 8.40689 11.8822 8.40163 11.8774C8.39644 11.8726 8.39124 11.8678 8.38618 11.863L8.38558 11.8624C8.38026 11.8573 8.37506 11.8522 8.36994 11.8469C8.36481 11.8417 8.35955 11.8365 8.35455 11.8312C8.34956 11.826 8.34443 11.8206 8.3395 11.815C8.33458 11.8096 8.33005 11.8046 8.32539 11.7992L8.32386 11.7974C8.31933 11.7922 8.31487 11.7869 8.31047 11.7815C8.30095 11.7702 8.29169 11.7585 8.28277 11.7466C8.27378 11.7346 8.26499 11.7223 8.2564 11.7099L8.24821 11.6976C8.23729 11.6817 8.22664 11.6655 8.21632 11.6492C8.20859 11.6374 8.20107 11.6255 8.19374 11.6135C8.18901 11.6059 8.18449 11.5984 8.17996 11.5909L8.17809 11.5878C8.17377 11.5805 8.1695 11.5733 8.16538 11.5661C8.16298 11.5621 8.16071 11.5582 8.15858 11.5541C8.15639 11.55 8.15386 11.5458 8.15153 11.5416L8.14773 11.535L8.1454 11.5308C8.14094 11.5228 8.13654 11.5147 8.13228 11.5066C8.13028 11.503 8.12835 11.4994 8.12629 11.4959L8.12036 11.4844L8.11437 11.473C8.09939 11.4431 8.0852 11.4127 8.07189 11.3819L8.06716 11.3707C8.0641 11.3632 8.06123 11.3557 8.05817 11.3483C8.0567 11.3447 8.05524 11.3412 8.05397 11.3376C8.04685 11.3191 8.04019 11.3005 8.03406 11.2817C8.03187 11.275 8.02974 11.2684 8.02774 11.2617C8.02294 11.2466 8.01861 11.2314 8.01475 11.216C8.01003 11.1981 8.00583 11.18 8.0023 11.1619C8.00157 11.1582 8.00084 11.1545 8.00024 11.151C7.99677 11.1332 7.99398 11.1153 7.99178 11.0973C7.99125 11.0938 7.99085 11.0903 7.99045 11.0868L7.98932 11.076C7.98785 11.0618 7.98672 11.0477 7.98605 11.0335C7.98605 11.0299 7.98572 11.0263 7.98559 11.0228C7.98525 11.0158 7.98512 11.0087 7.98505 11.0017C7.98133 10.7171 8.12529 10.4436 8.43313 10.1359C8.98148 9.58805 9.30071 8.78639 9.30071 8.78639C9.30071 8.78639 9.3093 8.75276 9.32714 8.70435C9.32961 8.69763 9.3322 8.6907 9.33513 8.68345C9.34552 8.65634 9.35724 8.62971 9.37023 8.60374L9.37282 8.59875C9.38388 8.57664 9.396 8.55506 9.40905 8.53409C9.41211 8.52923 9.41504 8.52443 9.41844 8.51957C9.42822 8.50512 9.43855 8.49101 9.4494 8.47736C9.45533 8.46996 9.46178 8.46264 9.46824 8.45551C9.47084 8.45272 9.47337 8.44992 9.4761 8.44726C9.50786 8.41443 9.54416 8.38766 9.58524 8.37341L9.59043 8.37168C9.5939 8.37055 9.59736 8.36948 9.60089 8.36848C9.60495 8.36742 9.60901 8.36649 9.61321 8.36562L9.61514 8.36522C9.62379 8.36349 9.63258 8.36236 9.64144 8.36176H9.64217C9.64677 8.36176 9.65143 8.36129 9.65616 8.36129C9.66208 8.36129 9.66761 8.36129 9.6734 8.36189C9.67939 8.36242 9.68532 8.36309 9.69131 8.36402C9.74072 8.37188 9.78773 8.40131 9.82822 8.44672C9.8436 8.46404 9.85745 8.48268 9.86957 8.50239C9.87756 8.51518 9.88509 8.5287 9.89221 8.54294C9.89508 8.54887 9.89781 8.55433 9.90047 8.56019C9.90739 8.57524 9.91365 8.59056 9.91911 8.6062C9.9321 8.64283 9.94189 8.68052 9.94835 8.71887C9.95394 8.7525 9.95727 8.78646 9.95833 8.82049C9.95887 8.83866 9.95887 8.85711 9.95833 8.87569C9.95474 8.96212 9.93703 9.04742 9.90593 9.12819C9.90313 9.13558 9.9 9.14304 9.89701 9.1505C9.89088 9.16555 9.88415 9.18033 9.8769 9.19478C9.8715 9.20577 9.86584 9.21682 9.85972 9.22781C9.85572 9.23513 9.85153 9.24246 9.84733 9.24978C9.83661 9.26803 9.82502 9.28614 9.81257 9.30418L9.80505 9.31497C9.77562 9.35599 9.74285 9.39448 9.70703 9.43004C9.67174 9.46539 9.63391 9.49809 9.5939 9.52792C9.55381 9.55762 9.51619 9.59051 9.48143 9.62627C9.38135 9.73128 9.35804 9.82397 9.38055 9.89422C9.38414 9.90528 9.38887 9.916 9.3946 9.92612C9.40132 9.93771 9.40931 9.94836 9.41837 9.95808L9.4219 9.96174L9.42549 9.96534C9.42909 9.9688 9.43289 9.9722 9.43695 9.97553L9.44094 9.97872C9.4506 9.98618 9.46085 9.99284 9.47157 9.9987C9.4747 10.0004 9.4775 10.002 9.48103 10.0036C9.49261 10.0093 9.50453 10.0141 9.51679 10.0181C9.52018 10.0192 9.52358 10.0202 9.52704 10.0213L9.53137 10.0224L9.53736 10.024L9.54249 10.0253L9.54808 10.0265L9.55361 10.0276L9.55887 10.0285C9.56273 10.0291 9.56673 10.0298 9.57072 10.0303L9.57452 10.0309L9.58144 10.0315L9.5857 10.032L9.5927 10.0325H9.59683L9.60415 10.0329H9.62719L9.63378 10.0325L9.64137 10.032L9.65063 10.0311L9.65929 10.0301C9.66128 10.0301 9.66328 10.0296 9.66528 10.0292C9.69191 10.0253 9.71802 10.0183 9.74299 10.0082L9.75358 10.0037C9.7595 10.0011 9.76549 9.99837 9.77096 9.99544C9.78267 9.98958 9.79406 9.98292 9.80498 9.97566C9.82023 9.96567 9.83461 9.95448 9.84806 9.94217C9.85126 9.9393 9.85439 9.93624 9.85745 9.93331C9.85898 9.93185 9.86045 9.93045 9.86191 9.92885C9.86484 9.92585 9.86784 9.92292 9.87077 9.91966C9.89208 9.89622 9.91052 9.87038 9.9257 9.84262C10.056 9.60563 10.1926 9.37217 10.3353 9.14251L10.3549 9.11114L10.3746 9.07978C10.3845 9.06387 10.3945 9.04822 10.4044 9.03264L10.4144 9.01705C10.4476 8.96512 10.4813 8.91351 10.5155 8.8623L10.5359 8.83194C10.5766 8.77154 10.6172 8.71281 10.6575 8.65701L10.6776 8.62938C10.7214 8.56898 10.767 8.50985 10.8143 8.45218L10.8331 8.42968C10.8362 8.42595 10.8391 8.42222 10.8425 8.41862C10.8487 8.4113 10.8549 8.40417 10.8609 8.39725C10.864 8.39372 10.8669 8.39026 10.8701 8.3868L10.888 8.36669L10.8969 8.3569C10.9059 8.34724 10.9147 8.33799 10.9233 8.32913C10.9293 8.32314 10.9349 8.31721 10.9406 8.31162C10.9743 8.27712 11.0116 8.24616 11.0517 8.21933L11.061 8.21333C11.07 8.20734 11.0792 8.20175 11.0887 8.19669C11.2461 8.10732 11.3764 8.10073 11.4514 8.17578C11.4969 8.22119 11.522 8.2965 11.5206 8.40131C11.5206 8.40591 11.5206 8.41057 11.5203 8.41536V8.42049C11.5203 8.42528 11.5199 8.43008 11.5195 8.43494C11.5195 8.44093 11.5188 8.44686 11.5182 8.45285C11.5176 8.45878 11.5173 8.46331 11.5167 8.46863C11.5167 8.4701 11.5164 8.47163 11.5162 8.47323C11.5158 8.47782 11.5152 8.48255 11.5145 8.48728C11.5145 8.48868 11.5145 8.49014 11.514 8.49161C11.5132 8.49793 11.5123 8.50419 11.5112 8.51045C11.5105 8.51644 11.5095 8.52204 11.5084 8.5279L11.5067 8.53782C11.505 8.54727 11.5028 8.5566 11.5001 8.56578C11.4949 8.58303 11.4886 8.59988 11.4812 8.61626C11.4709 8.63877 11.4595 8.66067 11.447 8.68198C11.4401 8.69383 11.4329 8.70549 11.4255 8.71701C11.418 8.72893 11.41 8.74098 11.4017 8.75316C11.3807 8.78326 11.3588 8.81276 11.3361 8.84159L11.3257 8.85471C11.2887 8.90086 11.2505 8.94607 11.2111 8.99022L11.1986 9.0042C11.1818 9.02291 11.1648 9.04176 11.1473 9.06067L11.1342 9.07492C11.1255 9.08444 11.1164 9.09396 11.1076 9.10355C11.0989 9.11308 11.0897 9.12273 11.0805 9.13239L11.0532 9.16122L11.0254 9.19025L10.9974 9.21928C10.9787 9.23873 10.9598 9.25817 10.9408 9.27761C10.6708 9.55456 10.3864 9.83056 10.2901 10.0026C10.2836 10.0138 10.2778 10.0254 10.2726 10.0372C10.2589 10.0685 10.2532 10.0953 10.2571 10.1169C10.2584 10.124 10.2608 10.1308 10.2645 10.1371C10.2699 10.1465 10.2765 10.1551 10.2842 10.1628C10.2877 10.1663 10.2914 10.1695 10.2953 10.1724C10.3152 10.1865 10.3391 10.1938 10.3635 10.1931H10.371L10.3788 10.1925L10.3866 10.1917L10.3931 10.1907C10.394 10.1906 10.3949 10.1905 10.3958 10.1902L10.4017 10.1891L10.4032 10.1887L10.4098 10.1873L10.4121 10.1867C10.4145 10.1861 10.4167 10.1855 10.4191 10.1849C10.4214 10.1842 10.4246 10.1833 10.4274 10.1824C10.4391 10.1789 10.4506 10.1747 10.4618 10.1699C10.4677 10.1675 10.4735 10.1649 10.4793 10.1621C10.4823 10.1608 10.4852 10.1594 10.488 10.1579L10.497 10.1535C10.5183 10.1425 10.5391 10.1304 10.5593 10.1175L10.5682 10.1115C10.5711 10.1096 10.5741 10.1077 10.577 10.1056L10.5859 10.0996L10.5906 10.0964L10.6034 10.0874C10.6153 10.0792 10.6264 10.0707 10.6377 10.0622L10.6387 10.0614L10.6566 10.0475C10.681 10.0282 10.7042 10.0088 10.7252 9.99044L10.7392 9.97819L10.7405 9.97699L10.7478 9.97053C10.765 9.95508 10.7803 9.9407 10.793 9.92885L10.7983 9.92372C10.8029 9.91939 10.8071 9.91533 10.8109 9.91187L10.8183 9.90448L10.821 9.90188L10.8217 9.90115L10.8295 9.89336L10.8344 9.88823L10.835 9.88776L10.8374 9.88563L10.8403 9.88297L10.8412 9.8821L10.8437 9.87984L10.8573 9.86792L10.8649 9.86113C10.8689 9.8576 10.8729 9.854 10.8768 9.85034L10.8858 9.84228C10.8875 9.84095 10.8891 9.83949 10.8908 9.83802L10.9003 9.8297L10.9143 9.81738L10.9217 9.81092C10.9507 9.78575 10.9859 9.75532 11.0264 9.72103L11.043 9.70698L11.0704 9.684L11.0984 9.66063C11.135 9.6302 11.1744 9.5979 11.2161 9.56441L11.2435 9.54244C11.2668 9.52386 11.2907 9.50495 11.3149 9.4859C11.3247 9.47824 11.3346 9.47059 11.3448 9.463C11.3695 9.44375 11.3944 9.42464 11.4195 9.4058C11.4767 9.36265 11.5356 9.31943 11.5953 9.27735L11.6208 9.2595C11.6388 9.24718 11.6566 9.2348 11.6744 9.22275L11.6906 9.21183C11.7225 9.19018 11.7549 9.16908 11.7875 9.1485L11.8037 9.13831L11.8197 9.12832C11.8359 9.11833 11.8518 9.10855 11.8678 9.09902L11.8837 9.0895L11.9155 9.07099L11.9467 9.05308L11.9531 9.04962L11.9778 9.03603C11.9881 9.03044 11.9983 9.02504 12.0086 9.01978L12.0238 9.01193L12.0387 9.00447C12.0439 9.00201 12.049 8.99941 12.0541 8.99694C12.0875 8.98043 12.1216 8.96525 12.1562 8.9514C12.1656 8.9474 12.1749 8.94381 12.1842 8.94068L12.2115 8.93109C12.2197 8.92836 12.2277 8.92576 12.2353 8.92343L12.238 8.92263C12.2421 8.9213 12.2462 8.9201 12.2503 8.91904L12.2515 8.9187C12.26 8.91624 12.2685 8.91411 12.2768 8.91211H12.2774C12.301 8.90645 12.325 8.90239 12.3491 8.89992C12.3602 8.89879 12.3714 8.89819 12.3826 8.89826H12.3881C12.3956 8.89826 12.4028 8.89873 12.4099 8.89946C12.4132 8.89946 12.4164 8.90012 12.4196 8.90052H12.421C12.4242 8.90092 12.4274 8.90139 12.4306 8.90212C12.4337 8.90272 12.4369 8.90325 12.4399 8.90399H12.4409C12.4441 8.90465 12.4469 8.90545 12.4501 8.90638C12.4671 8.91111 12.4832 8.91844 12.4979 8.92803C12.5052 8.93275 12.512 8.93808 12.5183 8.94401L12.5201 8.94574C12.5213 8.9468 12.5224 8.94794 12.5235 8.94907L12.5267 8.9526C12.5535 8.98063 12.5756 9.01279 12.5922 9.04782L12.5948 9.05381C12.6004 9.06713 12.6049 9.08091 12.6081 9.09496C12.6175 9.13798 12.6139 9.18286 12.5976 9.22381C12.5914 9.24032 12.5838 9.25624 12.575 9.27142C12.5543 9.30631 12.5297 9.33874 12.5018 9.36811L12.4959 9.37443C12.487 9.38376 12.4778 9.39308 12.4682 9.4024C12.4639 9.4066 12.4595 9.41072 12.455 9.41492L12.4413 9.4275L12.4342 9.43383C12.417 9.44915 12.3994 9.464 12.3815 9.47838C12.3706 9.48717 12.3597 9.49576 12.3487 9.50422C12.3096 9.53405 12.2699 9.56281 12.2294 9.59058C12.205 9.60736 12.1803 9.62381 12.1555 9.64005C12.0943 9.68021 12.0324 9.71936 11.97 9.75745C11.8389 9.83802 11.6937 9.92419 11.5389 10.0179L11.4988 10.0422C11.4549 10.069 11.4135 10.0945 11.3745 10.1189L11.3548 10.1312L11.3177 10.155C11.293 10.1708 11.2685 10.1867 11.2439 10.2027L11.2241 10.2157C11.2145 10.222 11.2049 10.2284 11.1953 10.2348L11.1859 10.2407L11.1571 10.2601L11.1419 10.2706L11.124 10.283L11.1074 10.2945C11.0797 10.3141 11.0538 10.3328 11.0301 10.3506L11.0212 10.3574C11.0072 10.368 10.9933 10.3788 10.9797 10.3898C10.9591 10.4064 10.9403 10.4222 10.9235 10.4375L10.9152 10.445C10.9105 10.4493 10.9058 10.4536 10.9014 10.4579C10.8983 10.4609 10.8954 10.4639 10.8922 10.4667L10.888 10.471C10.8785 10.4806 10.8691 10.4904 10.8601 10.5004L10.8557 10.5055C10.846 10.5168 10.8374 10.5277 10.83 10.5383L10.8266 10.543C10.8208 10.5515 10.8154 10.5603 10.8105 10.5694C10.8093 10.5716 10.8081 10.5739 10.807 10.5762L10.8037 10.5829L10.8015 10.5879L10.8001 10.5912L10.799 10.5942L10.7975 10.5983C10.7934 10.6095 10.7905 10.6212 10.7888 10.6331L10.7883 10.6372L10.7879 10.6411V10.6621C10.7879 10.6638 10.7879 10.6655 10.7884 10.6674L10.7887 10.6706C10.7887 10.6723 10.7891 10.674 10.7894 10.6758C10.7896 10.6776 10.7901 10.6807 10.7906 10.6832V10.6835C10.7911 10.6858 10.7916 10.6881 10.7922 10.6904C10.7928 10.6927 10.7934 10.6954 10.7941 10.6978C10.7953 10.7025 10.7969 10.7072 10.7986 10.7119C10.7997 10.7147 10.8007 10.7174 10.8018 10.7201C10.8018 10.7207 10.8022 10.7212 10.8025 10.7218L10.8049 10.7272L10.8082 10.7346C10.8118 10.7422 10.8157 10.7497 10.82 10.7569L10.8244 10.7645L10.8289 10.7721C10.8297 10.7734 10.8306 10.7746 10.8316 10.7757L10.8331 10.7773L10.8348 10.7788L10.8365 10.7801C10.839 10.7819 10.8418 10.7833 10.8446 10.7843C10.8462 10.7848 10.8478 10.7852 10.8494 10.7856C10.8878 10.7943 10.9667 10.7625 11.0717 10.7071C11.0776 10.7039 11.0841 10.7006 11.0905 10.6971L11.1224 10.6797L11.138 10.671C11.1491 10.6651 11.1605 10.6584 11.172 10.6518L11.1931 10.6399C11.3319 10.56 11.4975 10.4575 11.6688 10.3573C11.6848 10.348 11.701 10.3386 11.7171 10.3293L11.7494 10.3086C11.787 10.2871 11.8247 10.2659 11.8626 10.2449C11.9104 10.2186 11.9584 10.1931 12.007 10.1683L12.0387 10.1523C12.0597 10.1419 12.0806 10.1317 12.1011 10.1219C12.141 10.103 12.1813 10.085 12.222 10.068L12.2443 10.059L12.247 10.0579C12.3652 10.0111 12.4723 9.98219 12.559 9.98219C12.5777 9.98199 12.5965 9.98358 12.6149 9.98678H12.6155C12.6215 9.98785 12.6269 9.98904 12.6324 9.99038H12.6334C12.6476 9.99397 12.6614 9.9991 12.6744 10.0057C12.6927 10.0151 12.7092 10.0277 12.7231 10.0429C12.7295 10.05 12.7351 10.0576 12.7401 10.0658C12.7495 10.0801 12.7568 10.0956 12.762 10.1118C12.7642 10.1182 12.766 10.1244 12.768 10.1309C12.782 10.1814 12.7806 10.2348 12.764 10.2844Z" fill="#FF9D00"/>
<path id="Vector_3" fill-rule="evenodd" clip-rule="evenodd" d="M11.9778 6.66685V6.63416C11.9778 3.84717 9.71928 1.58789 6.93209 1.58789C4.14498 1.58789 1.88556 3.8473 1.88556 6.63416V6.64508C1.88543 6.65234 1.88536 6.65959 1.88556 6.66685C1.88589 6.6777 1.886 6.68856 1.8859 6.69941L1.88623 6.72338L1.88643 6.73197C1.88643 6.73597 1.88657 6.7399 1.8867 6.74389C1.8869 6.75022 1.88703 6.75661 1.88703 6.76294L1.88776 6.78884L1.88883 6.81927L1.88916 6.82926L1.89049 6.86076V6.86229C1.89102 6.87461 1.8917 6.88686 1.89229 6.89911L1.89235 6.90004C1.89302 6.91256 1.89369 6.92515 1.89449 6.93773C1.89516 6.94932 1.89582 6.96091 1.89668 6.97249L1.89682 6.97456C1.8974 6.98448 1.89807 6.99447 1.89881 7.00439L1.89901 7.00705L1.90121 7.03582L1.90142 7.03768C1.90182 7.04327 1.90221 7.04887 1.90274 7.05426C1.90672 7.10227 1.91137 7.15028 1.91667 7.19816L1.91699 7.20116L1.92105 7.23638L1.92559 7.27334L1.92891 7.29844L1.93044 7.31023C1.93399 7.3374 1.93783 7.3645 1.94196 7.39153L1.94224 7.39333L1.94616 7.4189C1.96517 7.54069 1.98871 7.66175 2.01674 7.78181L2.01708 7.78327L2.01921 7.79226L2.02526 7.8179L2.02899 7.81344C2.17549 7.63831 2.38564 7.54176 2.62076 7.54176C2.80921 7.54176 3.00252 7.60408 3.19629 7.72694C3.32481 7.80858 3.46691 7.95314 3.61314 8.13499C3.74845 7.94708 3.93809 7.82216 4.15503 7.78807C4.1964 7.78154 4.23821 7.77828 4.28009 7.77821C4.77524 7.77821 5.07348 8.20791 5.18615 8.59445C5.24182 8.72503 5.5101 9.3198 5.91469 9.72212C6.5297 10.3365 6.68359 10.9705 6.37921 11.6494H6.38028C6.40099 11.6517 6.42183 11.6539 6.4428 11.6558C6.45526 11.657 6.46764 11.6582 6.48016 11.6592L6.48455 11.6596L6.51205 11.662L6.53736 11.664C6.56146 11.6658 6.58564 11.6676 6.60987 11.6691L6.62912 11.6702L6.64437 11.6712L6.65382 11.6717L6.68359 11.6732L6.69171 11.6736L6.72294 11.675L6.7577 11.6763L6.7856 11.6771L6.79026 11.6772C6.79619 11.6775 6.80211 11.6777 6.80804 11.6777L6.81443 11.6779C6.85372 11.6788 6.89294 11.6793 6.93223 11.6792H6.97391L7.00368 11.6789C7.011 11.6786 7.01826 11.6786 7.02565 11.6786H7.03724L7.04729 11.6783C7.05122 11.6782 7.05515 11.678 7.05914 11.678H7.07106L7.09444 11.6774L7.1296 11.6762L7.16828 11.6745C7.17947 11.6741 7.19052 11.6735 7.20158 11.673L7.2135 11.6722L7.23121 11.6713L7.2416 11.6707L7.24945 11.6702L7.28521 11.6678L7.3209 11.6652L7.35333 11.6626L7.37611 11.6607L7.40114 11.6584C7.44296 11.6547 7.48464 11.6503 7.52633 11.6453L7.55476 11.6419C7.25518 10.9659 7.41027 10.3347 8.02268 9.72272C8.4264 9.31933 8.69469 8.72456 8.75062 8.59392C8.86336 8.20744 9.16141 7.77774 9.65669 7.77774C9.69858 7.77774 9.74046 7.78107 9.78181 7.7876C9.99856 7.82169 10.1882 7.94661 10.3237 8.13453C10.47 7.95274 10.612 7.80804 10.7406 7.72641C10.9343 7.60362 11.1278 7.54129 11.3161 7.54129C11.5236 7.54129 11.7116 7.61653 11.8536 7.75457C11.8562 7.74332 11.8588 7.73206 11.8612 7.72074L11.8685 7.68705C11.8711 7.67473 11.8737 7.66241 11.8761 7.65009C11.8805 7.62832 11.8849 7.60655 11.8891 7.58457C11.8935 7.5618 11.8977 7.53889 11.9017 7.51599L11.9038 7.5036C11.905 7.49628 11.9062 7.48895 11.9076 7.48156C11.9099 7.47011 11.9118 7.45865 11.9136 7.44707L11.9144 7.44267L11.9191 7.41251L11.9238 7.38194V7.38168C11.9272 7.3591 11.9304 7.33653 11.9333 7.31396L11.9341 7.30836L11.9383 7.27653L11.9417 7.24937L11.9477 7.19583L11.95 7.17432L11.9506 7.16846C11.9519 7.15688 11.9531 7.14529 11.9541 7.1337V7.13277C11.955 7.12358 11.9559 7.11433 11.9567 7.10507C11.9614 7.0526 11.9654 6.99986 11.9686 6.94692C11.9692 6.93826 11.9697 6.92954 11.9702 6.92082V6.92042L11.972 6.88772L11.9724 6.8804C11.9734 6.85829 11.9744 6.83618 11.9751 6.81408V6.81328L11.9754 6.80462C11.9758 6.79736 11.976 6.79004 11.976 6.78272L11.9762 6.77978C11.9764 6.77293 11.9767 6.76587 11.9767 6.75888L11.9769 6.75288C11.9771 6.74589 11.9773 6.73897 11.9773 6.73197L11.9774 6.72605C11.9776 6.71719 11.9778 6.70827 11.9778 6.69941V6.66685ZM5.68043 11.708C6.0801 11.1219 6.05173 10.6821 5.50344 10.134C4.95503 9.58595 4.63586 8.78449 4.63586 8.78449C4.63586 8.78449 4.51674 8.31897 4.24506 8.36172C3.97338 8.40447 3.77408 9.10012 4.34295 9.52596C4.91174 9.95179 4.22975 10.2405 4.0108 9.84092C3.79186 9.44126 3.19409 8.414 2.88419 8.21749C2.57429 8.02099 2.35634 8.13113 2.42939 8.53612C2.46568 8.73715 2.80316 9.08028 3.11845 9.40084C3.43834 9.72605 3.73539 10.0281 3.67186 10.135C3.54581 10.3472 3.10187 9.8856 3.10187 9.8856C3.10187 9.8856 1.71177 8.62055 1.40919 8.95023C1.13018 9.25408 1.56041 9.51237 2.22337 9.9105C2.27971 9.94433 2.33777 9.97922 2.39723 10.0152C3.15574 10.4744 3.21473 10.5955 3.10706 10.7692C3.06731 10.8334 2.8134 10.681 2.50111 10.4936C1.96873 10.1739 1.26676 9.75242 1.16761 10.1296C1.08185 10.4561 1.5983 10.6562 2.06668 10.8376C2.45689 10.9888 2.81381 11.127 2.76127 11.3147C2.70687 11.5092 2.41195 11.3469 2.0896 11.1696C1.72769 10.9704 1.33115 10.7522 1.20137 10.9984C0.956129 11.4639 2.89338 12.0118 2.90937 12.0159C3.5353 12.1782 5.12489 12.5222 5.68043 11.708ZM8.25507 11.708C7.85541 11.1219 7.88378 10.6821 8.43213 10.134C8.98049 9.58595 9.29964 8.78449 9.29964 8.78449C9.29964 8.78449 9.41877 8.31897 9.69045 8.36172C9.96213 8.40447 10.1614 9.10012 9.59263 9.52596C9.02377 9.95179 9.70577 10.2405 9.92471 9.84092C10.1437 9.44126 10.7411 8.414 11.051 8.21749C11.3609 8.02099 11.579 8.13113 11.5058 8.53612C11.4696 8.73715 11.1321 9.08028 10.8168 9.4009C10.4969 9.72612 10.1999 10.0281 10.2633 10.135C10.3894 10.3472 10.8336 9.88533 10.8336 9.88533C10.8336 9.88533 12.2237 8.62035 12.5264 8.95003C12.8053 9.25381 12.3751 9.51217 11.7121 9.9103C11.6541 9.94513 11.5961 9.98002 11.5383 10.015C10.7798 10.4742 10.7208 10.5953 10.8284 10.769C10.8682 10.8332 11.1221 10.6807 11.4343 10.4933C11.9668 10.1737 12.6687 9.75216 12.7679 10.1294C12.8537 10.4559 12.3372 10.656 11.8688 10.8374C11.4786 10.9886 11.1217 11.1268 11.1742 11.3145C11.2285 11.509 11.5234 11.3467 11.8456 11.1693C12.2076 10.9701 12.6042 10.7518 12.7339 10.9982C12.9792 11.4639 11.0416 12.0114 11.0259 12.0154C10.4 12.1782 8.81042 12.5222 8.25507 11.708Z" fill="#FFD21E"/>
<path id="Vector_4" fill-rule="evenodd" clip-rule="evenodd" d="M8.57118 5.26131C8.64989 5.28914 8.70842 5.37384 8.76409 5.45448C8.83933 5.56342 8.90938 5.66483 9.01686 5.6077C9.14364 5.54025 9.24758 5.43677 9.3155 5.31025C9.38349 5.18373 9.41246 5.03995 9.39874 4.897C9.38848 4.79011 9.35466 4.68684 9.29966 4.59461C9.24465 4.50238 9.16987 4.42349 9.08078 4.36364C8.99162 4.30379 8.89027 4.26447 8.78413 4.24849C8.67792 4.23252 8.56951 4.2403 8.4667 4.27127C8.36389 4.30223 8.26927 4.35559 8.18956 4.42752C8.10985 4.49945 8.04706 4.58815 8.00578 4.68725C7.96449 4.78635 7.94565 4.89337 7.95064 5.00061C7.9557 5.10789 7.9844 5.21263 8.03481 5.30745C8.08462 5.40114 8.19515 5.35693 8.31182 5.31025C8.40324 5.27369 8.49853 5.2356 8.57118 5.26131ZM5.1502 5.26131C5.07149 5.28914 5.01296 5.37391 4.9573 5.45448C4.88205 5.56349 4.81193 5.66483 4.70453 5.6077C4.54508 5.52327 4.4228 5.38243 4.36152 5.21276C4.30023 5.04306 4.30434 4.85662 4.37304 4.68979C4.44173 4.52295 4.57009 4.38767 4.73309 4.31033C4.8961 4.23298 5.08207 4.21911 5.25475 4.2714C5.39225 4.31281 5.51437 4.39404 5.60573 4.50483C5.69709 4.61563 5.75349 4.75101 5.76794 4.89387C5.78232 5.03674 5.75402 5.18067 5.68664 5.30745C5.63676 5.40114 5.52623 5.35693 5.40956 5.31032C5.31807 5.27369 5.22292 5.2356 5.1502 5.26131ZM8.04193 8.37438C8.58416 7.94721 8.78333 7.24977 8.78333 6.82014C8.78333 6.48054 8.55486 6.58741 8.1891 6.76853L8.16845 6.77872C7.83271 6.94499 7.38577 7.1664 6.89515 7.1664C6.40446 7.1664 5.95752 6.94499 5.62185 6.77866C5.24422 6.59161 5.00737 6.47428 5.00737 6.82021C5.00737 7.26342 5.21925 7.99116 5.80084 8.41393C5.87761 8.25818 5.98569 8.11995 6.11833 8.00781C6.25091 7.89568 6.40526 7.81211 6.5716 7.7623C6.62966 7.74499 6.68946 7.84494 6.75065 7.94728C6.80972 8.04597 6.87011 8.14691 6.93151 8.14691C6.99696 8.14691 7.06122 8.04743 7.12401 7.95034C7.1896 7.8488 7.25359 7.74991 7.31545 7.76969C7.62676 7.86964 7.88718 8.08638 8.04193 8.37438Z" fill="#32343D"/>
<path id="Vector_5" d="M8.04175 8.37381C7.75934 8.59635 7.38399 8.74558 6.89516 8.74558C6.4359 8.74558 6.07672 8.61386 5.80078 8.41337C5.87756 8.25762 5.98563 8.11931 6.11827 8.00724C6.25085 7.89511 6.4052 7.81154 6.57154 7.76173C6.68554 7.72771 6.8064 8.14635 6.93145 8.14635C7.06529 8.14635 7.19428 7.73044 7.3154 7.76912C7.62663 7.86914 7.88699 8.08589 8.04175 8.37381Z" fill="#FF323D"/>
<path id="Vector_6" fill-rule="evenodd" clip-rule="evenodd" d="M3.85335 5.86646C3.78884 5.90961 3.71467 5.93618 3.63742 5.94377C3.56017 5.95143 3.48224 5.93984 3.41054 5.91008C3.35323 5.88644 3.30115 5.85168 3.25731 5.8078C3.21346 5.76398 3.17871 5.71191 3.15504 5.65458C3.12534 5.58286 3.11379 5.50495 3.12143 5.42771C3.12906 5.35047 3.15564 5.27629 3.19879 5.21177C3.25065 5.13412 3.32436 5.07362 3.41062 5.03788C3.49688 5.00215 3.5918 4.9928 3.68336 5.01104C3.77493 5.02926 3.85903 5.07424 3.92503 5.14025C3.99103 5.20631 4.03595 5.29047 4.05412 5.38203C4.07232 5.47359 4.06296 5.56848 4.02724 5.65471C3.99151 5.74094 3.93096 5.81459 3.85335 5.86646ZM10.6063 5.86646C10.5418 5.90961 10.4676 5.93618 10.3903 5.94377C10.313 5.95143 10.2351 5.93984 10.1634 5.91008C10.1061 5.88637 10.054 5.85168 10.0102 5.8078C9.96637 5.76398 9.93161 5.71191 9.9079 5.65458C9.87827 5.58286 9.86675 5.50495 9.87434 5.42771C9.882 5.35047 9.90857 5.27629 9.95165 5.21177C9.9904 5.1537 10.0416 5.10503 10.1015 5.06912C10.1613 5.03324 10.2284 5.01108 10.2978 5.00426C10.3674 4.99743 10.4375 5.00609 10.5031 5.02963C10.5689 5.05318 10.6285 5.091 10.6779 5.14038C10.7439 5.20637 10.7889 5.29047 10.807 5.38203C10.8253 5.47359 10.8159 5.56848 10.7801 5.65471C10.7444 5.74094 10.6839 5.81459 10.6063 5.86646Z" fill="#FFAD03"/>
</g>
</svg>
