<svg width="32" height="32" viewBox="0 0 32 32" fill="none" xmlns="http://www.w3.org/2000/svg">
<path d="M12.2415 18.6003H7.03916L7.0416 13.4005H12.2441L12.2415 18.6003Z" fill="black"/>
<path d="M17.4412 23.8001H12.2389L12.2415 18.6003L17.4438 18.6004L17.4412 23.8001Z" fill="black"/>
<path d="M17.4438 18.6004L12.2415 18.6003L12.2441 13.4005H17.4464L17.4438 18.6004Z" fill="black"/>
<path d="M22.6461 18.6003L17.4438 18.6004L17.4464 13.4005H22.6487L22.6461 18.6003Z" fill="black"/>
<path d="M12.2441 13.4005H7.0416L7.04408 8.20071H12.2466L12.2441 13.4005Z" fill="black"/>
<path d="M22.6487 13.4005H17.4464L17.4488 8.20071H22.6513L22.6487 13.4005Z" fill="black"/>
<path d="M7.03916 18.6003H1.83674L1.83918 13.4005H7.0416L7.03916 18.6003Z" fill="black"/>
<path d="M7.0416 13.4005H1.83918L1.84176 8.20071H7.04408L7.0416 13.4005Z" fill="black"/>
<path d="M7.04408 8.20071H1.84176L1.84435 3.00088H7.04684L7.04408 8.20071Z" fill="black"/>
<path d="M27.8536 8.20061L22.6513 8.20071L22.6537 3.00088H27.8562L27.8536 8.20061Z" fill="black"/>
<path d="M7.0366 23.8001H1.83425L1.83674 18.6003H7.03916L7.0366 23.8001Z" fill="black"/>
<path d="M7.03401 28.9999H1.83167L1.83425 23.8001H7.0366L7.03401 28.9999Z" fill="black"/>
<path d="M27.8485 18.6003H22.6461L22.6487 13.4005H27.851L27.8485 18.6003Z" fill="black"/>
<path d="M27.851 13.4005H22.6487L22.6513 8.20071L27.8536 8.20061L27.851 13.4005Z" fill="black"/>
<path d="M27.846 23.8001H22.6436L22.6461 18.6003H27.8485L27.846 23.8001Z" fill="black"/>
<path d="M27.8434 28.9999H22.641L22.6436 23.8001H27.846L27.8434 28.9999Z" fill="black"/>
<path d="M14.405 18.5994H9.20275L9.20519 13.3997H14.4077L14.405 18.5994Z" fill="#FF7000"/>
<path d="M19.6049 23.7992H14.4026L14.405 18.5994L19.6075 18.5995L19.6049 23.7992Z" fill="#FF4900"/>
<path d="M19.6075 18.5995L14.405 18.5994L14.4077 13.3997L19.61 13.4007L19.6075 18.5995Z" fill="#FF7000"/>
<path d="M24.8099 18.6004L19.6075 18.5995L19.61 13.4007H24.8125L24.8099 18.6004Z" fill="#FF7000"/>
<path d="M14.4077 13.3997H9.20519L9.20783 8.1992H14.4103L14.4077 13.3997Z" fill="#FFA300"/>
<path d="M24.8124 13.3989H19.61L19.6125 8.1992H24.815L24.8124 13.3989Z" fill="#FFA300"/>
<path d="M9.20275 18.5994H4.00043L4.00286 13.3997H9.20519L9.20275 18.5994Z" fill="#FF7000"/>
<path d="M9.20519 13.3997H4.00286L4.00535 8.19983L9.20783 8.1992L9.20519 13.3997Z" fill="#FFA300"/>
<path d="M9.20783 8.1992L4.00535 8.19983L4.00794 3H9.21043L9.20783 8.1992Z" fill="#FFCE00"/>
<path d="M30.0172 8.19973L24.815 8.1992L24.8173 3H30.0198L30.0172 8.19973Z" fill="#FFCE00"/>
<path d="M9.20005 23.7992H3.99784L4.00043 18.5994H9.20275L9.20005 23.7992Z" fill="#FF4900"/>
<path d="M9.19756 28.9991H3.99535L3.99784 23.7992H9.20005L9.19756 28.9991Z" fill="#FF0107"/>
<path d="M30.0122 18.5994L24.8099 18.6004L24.8124 13.3989L30.0147 13.3997L30.0122 18.5994Z" fill="#FF7000"/>
<path d="M30.0147 13.3997L24.8124 13.3989L24.815 8.1992L30.0172 8.19973L30.0147 13.3997Z" fill="#FFA300"/>
<path d="M30.0096 23.7992H24.8072L24.8099 18.6004L30.0122 18.5994L30.0096 23.7992Z" fill="#FF4900"/>
<path d="M30.0071 28.9991H24.8047L24.8072 23.7992H30.0096L30.0071 28.9991Z" fill="#FF0107"/>
</svg>
