<svg id="Layer_1" data-name="Layer 1" xmlns="http://www.w3.org/2000/svg" xmlns:xlink="http://www.w3.org/1999/xlink" viewBox="0 0 163.43 145.38"><defs><linearGradient id="linear-gradient" x1="1574.36" y1="-3275.77" x2="1691.57" y2="-3275.77" gradientTransform="rotate(-45 5375.084 175.257)" gradientUnits="userSpaceOnUse"><stop offset="0" stop-color="#623393"/><stop offset=".6" stop-color="#432b7d"/><stop offset="1" stop-color="#2c256c"/></linearGradient><linearGradient id="linear-gradient-2" x1="1574.36" y1="-3259.85" x2="1691.57" y2="-3259.85" xlink:href="#linear-gradient"/><linearGradient id="linear-gradient-3" x1="1574.36" y1="-3282.11" x2="1691.57" y2="-3282.11" gradientTransform="rotate(-45 5375.084 175.257)" gradientUnits="userSpaceOnUse"><stop offset="0" stop-color="#754fa0"/><stop offset=".21" stop-color="#6d4b9b"/><stop offset=".52" stop-color="#583e8b"/><stop offset=".9" stop-color="#362b73"/><stop offset="1" stop-color="#2c256c"/></linearGradient><linearGradient id="linear-gradient-4" x1="1574.36" y1="-3226.41" x2="1691.57" y2="-3226.41" xlink:href="#linear-gradient-3"/><linearGradient id="linear-gradient-5" x1="1574.36" y1="-3254.04" x2="1691.57" y2="-3254.04" xlink:href="#linear-gradient"/><linearGradient id="linear-gradient-6" x1="1563.24" y1="-3254.04" x2="1704.01" y2="-3254.04" xlink:href="#linear-gradient-3"/><linearGradient id="linear-gradient-7" x1="1563.24" y1="-3239.64" x2="1704.01" y2="-3239.64" xlink:href="#linear-gradient"/><linearGradient id="linear-gradient-8" x1="1563.24" y1="-3247.69" x2="1704.01" y2="-3247.69" xlink:href="#linear-gradient"/><linearGradient id="linear-gradient-9" x1="1563.24" y1="-3268.04" x2="1704.01" y2="-3268.04" xlink:href="#linear-gradient"/><style>.cls-5{fill:#fff}.cls-6{fill:#2c256c}.cls-7{fill:#5b2d82}.cls-13{fill:#623393}</style></defs><path d="M270.13 399.21a15.75 15.75 0 00-2.82 3.82 15.75 15.75 0 012.82-3.82z" transform="translate(-224.29 -323.07)" fill="url(#linear-gradient)"/><path d="M317.72 365.53a8.4 8.4 0 016 2.47l4.89 4.89-4.92-4.89a8.4 8.4 0 00-5.97-2.47z" transform="translate(-224.29 -323.07)" fill="url(#linear-gradient-2)"/><path d="M270.11 371.42a13.89 13.89 0 0119.65 0l4.09 4.09 12.71-12.71a15.82 15.82 0 0122.34 0l4.89 4.89L346 355.45l-26.63-26.63a19.78 19.78 0 00-27.9 0l-55 55a19.79 19.79 0 00-2.92 24.13l.17-.17z" transform="translate(-224.29 -323.07)" fill="url(#linear-gradient-3)"/><path d="M341.89 419.27a13.9 13.9 0 01-19.65 0l-4.84-4.84-16 16a15.82 15.82 0 01-22.34 0l-4.13-4.13L263 438.21l24.48 24.48a19.78 19.78 0 0027.9 0l55-55a19.79 19.79 0 004.35-21.28l-1.78 1.78z" transform="translate(-224.29 -323.07)" fill="url(#linear-gradient-4)"/><path class="cls-5" d="M296.16 425.25a8.39 8.39 0 01-2.79 1.85 8.46 8.46 0 01-9.14-1.85l-4.13-4.13-4.77-4.77a8.44 8.44 0 010-11.93L299 380.71 311.76 368a8.39 8.39 0 014.35-2.31 8.52 8.52 0 011.61-.15 8.4 8.4 0 016 2.47l4.89 4.89 5.21-5.21-4.89-4.89a15.82 15.82 0 00-22.34 0l-12.75 12.7-23.71 23.71a15.75 15.75 0 00-2.82 3.82q-.36.69-.65 1.4a15.79 15.79 0 003.46 17.12l4.77 4.77 4.13 4.13a15.82 15.82 0 0022.34 0l16-16-5.21-5.21z" transform="translate(-224.29 -323.07)"/><path class="cls-6" d="M372.94 388.22l1.78-1.78a19.52 19.52 0 00-2.64-4.63c.39 2.12.68 4.26.86 6.41z" transform="translate(-224.29 -323.07)"/><path class="cls-7" d="M233.76 407.77l-.17.17c.11.18.21.37.33.55-.06-.24-.12-.49-.16-.72z" transform="translate(-224.29 -323.07)"/><path d="M312 389.42l16.53-16.53-4.84-4.89a8.4 8.4 0 00-6-2.47 8.52 8.52 0 00-1.61.15 8.39 8.39 0 00-4.35 2.31L299 380.71l.91.91a13.89 13.89 0 010 19.65l-19.81 19.85 4.13 4.13a8.44 8.44 0 0011.93 0l16-16-.15-.15a13.89 13.89 0 01-.01-19.68z" transform="translate(-224.29 -323.07)" fill="url(#linear-gradient-5)"/><path d="M312 389.42l16.53-16.53-4.84-4.89a8.4 8.4 0 00-6-2.47 8.52 8.52 0 00-1.61.15 8.39 8.39 0 00-4.35 2.31L299 380.71l.91.91a13.89 13.89 0 010 19.65l-19.81 19.85 4.13 4.13a8.44 8.44 0 0011.93 0l16-16-.15-.15a13.89 13.89 0 01-.01-19.68z" transform="translate(-224.29 -323.07)" fill="url(#linear-gradient-6)"/><path class="cls-5" d="M296.16 425.25a8.39 8.39 0 01-2.79 1.85 8.39 8.39 0 002.79-1.85z" transform="translate(-224.29 -323.07)"/><path d="M296.16 425.25a8.39 8.39 0 01-2.79 1.85 8.39 8.39 0 002.79-1.85z" transform="translate(-224.29 -323.07)" fill="url(#linear-gradient-7)"/><path class="cls-5" d="M280.1 421.12l4.13 4.13a8.41 8.41 0 006 2.47 8.41 8.41 0 01-6-2.47z" transform="translate(-224.29 -323.07)"/><path d="M280.1 421.12l4.13 4.13a8.41 8.41 0 006 2.47 8.41 8.41 0 01-6-2.47z" transform="translate(-224.29 -323.07)" fill="url(#linear-gradient-8)"/><path class="cls-5" d="M311.76 368a8.39 8.39 0 014.35-2.31 8.39 8.39 0 00-4.35 2.31z" transform="translate(-224.29 -323.07)"/><path d="M311.76 368a8.39 8.39 0 014.35-2.31 8.39 8.39 0 00-4.35 2.31z" transform="translate(-224.29 -323.07)" fill="url(#linear-gradient-9)"/><path class="cls-6" d="M236.5 411.71a19.6 19.6 0 01-2.59-3.21c-.12-.18-.22-.37-.33-.55l-5.23 5.23a13.89 13.89 0 000 19.65l10.2 10.2a13.9 13.9 0 0019.65 0l3.25-3.25 1.16-1.16.39-.39z" transform="translate(-224.29 -323.07)"/><path class="cls-7" d="M270.13 421.56a15.79 15.79 0 01-3.46-17.12q.29-.71.65-1.4a15.75 15.75 0 012.82-3.82l23.71-23.71-4.09-4.09a13.89 13.89 0 00-19.65 0l-36.35 36.35c0 .24.11.48.15.72a19.6 19.6 0 002.59 3.21l26.5 26.51 11.89-11.89z" transform="translate(-224.29 -323.07)"/><path class="cls-7" d="M266.67 404.44a15.88 15.88 0 00.65 13.3 15.88 15.88 0 01-.65-13.3zM280.1 421.12l19.9-19.85a13.89 13.89 0 000-19.65l-.91-.91-23.71 23.71a8.44 8.44 0 000 11.93z" transform="translate(-224.29 -323.07)"/><path class="cls-7" d="M275.34 416.35a8.41 8.41 0 01-2.47-6 8.41 8.41 0 002.47 6l4.77 4.77zM275.34 404.42a8.39 8.39 0 00-1.85 2.79 8.39 8.39 0 011.85-2.79z" transform="translate(-224.29 -323.07)"/><path class="cls-6" d="M328.58 372.89L312 389.42a13.89 13.89 0 000 19.65l.15.15 20.39-20.39a8.39 8.39 0 002.31-4.35 8.52 8.52 0 00.15-1.61 8.41 8.41 0 00-2.47-6z" transform="translate(-224.29 -323.07)"/><path class="cls-6" d="M332.59 388.83a8.39 8.39 0 002.31-4.35 8.39 8.39 0 01-2.31 4.35z" transform="translate(-224.29 -323.07)"/><path class="cls-13" d="M332.59 376.9a8.41 8.41 0 012.47 6 8.41 8.41 0 00-2.47-6l-4-4zM337.79 394a15.71 15.71 0 003.47-5.22 15.72 15.72 0 01-3.47 5.22z" transform="translate(-224.29 -323.07)"/><path class="cls-13" d="M341.26 388.81q.29-.71.51-1.45a15.81 15.81 0 00-4-15.67l-4-4-5.21 5.21 4 4a8.41 8.41 0 012.47 6 8.52 8.52 0 01-.15 1.61 8.39 8.39 0 01-2.31 4.35l-20.37 20.36 5.21 5.21L337.79 394a15.72 15.72 0 003.47-5.19zM383.64 357.87l-10.2-10.2a13.89 13.89 0 00-18.64-.91c-.35.28-.68.59-1 .91l-6.58 6.58-1.16 1.16 24.36 24.36a20.7 20.7 0 014.35 6.62l8.92-8.92a13.9 13.9 0 00-.05-19.6z" transform="translate(-224.29 -323.07)"/><path class="cls-6" d="M337.79 371.69a15.81 15.81 0 014 15.67q-.22.73-.51 1.45a15.71 15.71 0 01-3.47 5.22l-20.41 20.39 4.84 4.84a13.9 13.9 0 0019.65 0l31-31c-.18-2.15-.47-4.29-.85-6.41a19.62 19.62 0 00-1.71-2L346 355.45l-12.23 12.23z" transform="translate(-224.29 -323.07)"/><path class="cls-6" d="M337.79 371.69a15.81 15.81 0 014 15.67 15.81 15.81 0 00-4-15.67l-4-4z" transform="translate(-224.29 -323.07)"/></svg>