<svg data-name="Layer 1" xmlns="http://www.w3.org/2000/svg" viewBox="0 0 32 32"><defs><clipPath id="a"><path d="M10.55 16h13a1.5 1.5 0 010 3h-13a1.5 1.5 0 010-3z" clip-rule="evenodd" fill="none"/></clipPath></defs><path d="M10.59 8.51h11a1.5 1.5 0 110 3h-11a1.5 1.5 0 010-3z" stroke="#7863ec" stroke-miterlimit="10" fill="#fff"/><g clip-path="url(#a)"><path fill="#e9e8ff" d="M4.05 11h26v13h-26z"/></g><path d="M9.51 14.52h13a1.5 1.5 0 110 3h-13a1.5 1.5 0 010-3zm1.09 5.99h11a1.5 1.5 0 010 3h-11a1.5 1.5 0 010-3z" stroke="#7863ec" stroke-miterlimit="10" fill="#e9e8fe"/><path d="M2 4.55h1.73a1.73 1.73 0 011.72 1.74V24a3.52 3.52 0 003.5 3.53H23A3.52 3.52 0 0026.51 24V6.31a1.75 1.75 0 011.74-1.76H30" stroke="#7863ec" stroke-miterlimit="10" fill="none"/></svg>