<?xml version="1.0" encoding="utf-8"?>
<!-- Generator: Adobe Illustrator 22.1.0, SVG Export Plug-In . SVG Version: 6.00 Build 0)  -->
<svg version="1.1" id="Layer_1" xmlns="http://www.w3.org/2000/svg" xmlns:xlink="http://www.w3.org/1999/xlink" x="0px" y="0px"
	 viewBox="0 0 216.8 65.5" style="enable-background:new 0 0 216.8 65.5;" xml:space="preserve">
<style type="text/css">
	.st0{fill:#231F20;}
	.st1{fill:#95C840;}
	.st2{fill:#59C9E6;}
	.st3{fill:#EBE719;}
	.st4{fill:#50C0AF;}
	.st5{fill:#0377BB;}
	.st6{fill:#78BC43;}
	.st7{fill:#109FDA;}
</style>
<g>
	<g>
		<g>
			<g>
				<path class="st0" d="M42.2,26.9v17.4h-4.3V28.1c0-1.5-0.3-2.7-0.8-3.4c-0.6-0.7-1.4-1.1-2.6-1.1c-0.9,0-1.9,0.3-2.9,0.8
					c-1,0.5-2,1.3-3,2.3v17.7h-4.2v-24h3.9v3.2c1.4-1.3,2.7-2.2,3.9-2.7c1.2-0.5,2.4-0.8,3.6-0.8c2,0,3.6,0.6,4.7,1.8
					C41.6,23,42.2,24.7,42.2,26.9"/>
				<path class="st0" d="M56.1,11.2v3.5c-1-0.1-1.4-0.1-1.8-0.1c-0.4,0-0.7-0.1-0.9-0.1c-1,0-1.7,0.2-2.1,0.7
					c-0.4,0.5-0.6,1.2-0.6,2.3v2.8H56v3.6h-5.3v20.4h-4.2V23.9v-3.6v-3.4c0-2,0.5-3.5,1.6-4.5c1-1,2.5-1.6,4.5-1.6
					c0.4,0,0.9,0,1.4,0.1C54.4,11,55,11.1,56.1,11.2"/>
				<path class="st0" d="M66.9,19.9c3.1,0,5.6,1.1,7.3,3.2c1.7,2.1,2.6,5.1,2.6,9c0,3.9-0.9,6.9-2.6,9c-1.7,2.1-4.2,3.2-7.3,3.2
					c-3.1,0-5.6-1.1-7.3-3.2c-1.7-2.1-2.6-5.1-2.6-9c0-3.8,0.9-6.8,2.6-9C61.3,21,63.7,19.9,66.9,19.9 M66.9,23.6
					c-1.8,0-3.2,0.7-4.2,2.1c-0.9,1.4-1.4,3.5-1.4,6.3c0,2.8,0.5,4.9,1.4,6.4c0.9,1.4,2.3,2.2,4.2,2.2c1.8,0,3.2-0.7,4.1-2.2
					c1-1.4,1.4-3.6,1.4-6.3c0-2.8-0.5-4.9-1.4-6.4C70.1,24.3,68.7,23.6,66.9,23.6"/>
				<rect x="104.3" y="11" class="st0" width="4.2" height="33.4"/>
				<rect x="15.8" y="11" class="st0" width="4.2" height="33.4"/>
				<path class="st0" d="M84.9,44.4v-2.6c0.7,0.7,1.4,1.3,2.3,1.7c1,0.5,2.2,0.8,3.5,0.8c3,0,5.3-1.1,6.9-3.2c1.7-2.2,2.5-5.2,2.5-9
					c0-3.7-0.9-6.6-2.6-8.8c-1.7-2.2-4-3.2-6.9-3.2c-1.2,0-2.2,0.3-3.2,0.7c-1,0.5-1.8,1.2-2.5,2.2V11h-4.2v33.4H84.9z M94.3,38.5
					c-1,1.5-2.4,2.2-4.2,2.2c-1,0-1.9-0.2-2.7-0.7c-0.8-0.5-1.7-1.2-2.4-2.2V26.4c0.8-0.9,1.6-1.7,2.4-2.1c0.8-0.5,1.7-0.7,2.6-0.7
					c1.9,0,3.4,0.7,4.4,2.2c1,1.5,1.5,3.7,1.5,6.5C95.7,35,95.3,37.1,94.3,38.5"/>
				<path class="st0" d="M122.5,19.9c3.1,0,5.6,1.1,7.3,3.2c1.7,2.1,2.6,5.1,2.6,9c0,3.9-0.9,6.9-2.6,9c-1.7,2.1-4.2,3.2-7.3,3.2
					c-3.1,0-5.6-1.1-7.3-3.2c-1.7-2.1-2.6-5.1-2.6-9c0-3.8,0.9-6.8,2.6-9C116.9,21,119.4,19.9,122.5,19.9 M122.5,23.6
					c-1.8,0-3.2,0.7-4.2,2.1c-0.9,1.4-1.4,3.5-1.4,6.3c0,2.8,0.5,4.9,1.4,6.4c0.9,1.4,2.3,2.2,4.2,2.2c1.8,0,3.2-0.7,4.1-2.2
					c1-1.4,1.4-3.6,1.4-6.3c0-2.8-0.5-4.9-1.4-6.4C125.7,24.3,124.3,23.6,122.5,23.6"/>
				<polygon class="st0" points="133.8,20 138.7,20 143.1,28 147.6,20 152.2,20 145.5,31.5 153.1,44.2 148.2,44.2 143,34.7 
					137.8,44.2 133.2,44.2 140.7,31.5 				"/>
				<path class="st1" d="M167.2,28.1l-7.2-5.4c-0.2-0.2-0.3-0.4-0.3-0.5c0-0.2,0.1-0.4,0.3-0.5c0,0,7.2-5.4,7.2-5.4
					c0.5-0.4,1.5-0.4,2.1,0c0,0,7.2,5.4,7.2,5.4c0.2,0.2,0.3,0.4,0.3,0.5c0,0.2-0.1,0.4-0.3,0.5l-7.2,5.4
					C168.7,28.5,167.7,28.5,167.2,28.1"/>
				<path class="st2" d="M167.2,45.5l-7.2-5.4c-0.2-0.2-0.3-0.4-0.3-0.5c0-0.2,0.1-0.4,0.3-0.5c0,0,7.2-5.4,7.2-5.4
					c0.5-0.4,1.5-0.4,2.1,0c0,0,7.2,5.4,7.2,5.4c0.2,0.2,0.3,0.4,0.3,0.5c0,0.2-0.1,0.4-0.3,0.5l-7.2,5.4
					C168.7,46,167.7,46,167.2,45.5"/>
				<path class="st3" d="M178.8,19.5l-7.2-5.4c-0.2-0.2-0.3-0.4-0.3-0.6c0-0.2,0.1-0.4,0.3-0.5c0,0,7.2-5.4,7.2-5.4
					c0.6-0.4,1.5-0.4,2.1,0l7.2,5.4c0.2,0.2,0.3,0.4,0.3,0.5c0,0.2-0.1,0.4-0.3,0.6l-7.2,5.4C180.3,19.9,179.4,19.9,178.8,19.5"/>
				<path class="st4" d="M178.8,36.9l-7.2-5.4c-0.2-0.2-0.3-0.4-0.3-0.5c0-0.2,0.1-0.4,0.3-0.5c0,0,7.2-5.4,7.2-5.4
					c0.6-0.4,1.5-0.4,2.1,0l7.2,5.4c0.2,0.2,0.3,0.4,0.3,0.5c0,0.2-0.1,0.4-0.3,0.5l-7.2,5.4C180.3,37.3,179.4,37.3,178.8,36.9"/>
				<path class="st5" d="M178.8,54.6l-7.2-5.4c-0.2-0.2-0.3-0.4-0.3-0.6c0-0.2,0.1-0.4,0.3-0.5c0,0,7.2-5.4,7.2-5.4
					c0.6-0.4,1.5-0.4,2.1,0l7.2,5.4c0.2,0.2,0.3,0.4,0.3,0.5c0,0.2-0.1,0.4-0.3,0.6l-7.2,5.4C180.3,55,179.4,55,178.8,54.6"/>
				<path class="st6" d="M190.4,28.1l-7.2-5.4c-0.2-0.2-0.3-0.4-0.3-0.5c0-0.2,0.1-0.4,0.3-0.5c0,0,7.2-5.4,7.2-5.4
					c0.5-0.4,1.5-0.4,2.1,0c0,0,7.2,5.4,7.2,5.4c0.2,0.2,0.3,0.4,0.3,0.5c0,0.2-0.1,0.4-0.3,0.5l-7.2,5.4
					C192,28.5,191,28.5,190.4,28.1"/>
				<path class="st7" d="M190.4,45.5l-7.2-5.4c-0.2-0.2-0.3-0.4-0.3-0.5c0-0.2,0.1-0.4,0.3-0.5c0,0,7.2-5.4,7.2-5.4
					c0.5-0.4,1.5-0.4,2.1,0c0,0,7.2,5.4,7.2,5.4c0.2,0.2,0.3,0.4,0.3,0.5c0,0.2-0.1,0.4-0.3,0.5l-7.2,5.4C192,46,191,46,190.4,45.5"
					/>
				<path class="st0" d="M206.1,30.9c0,1.7-1.3,3.1-3.1,3.1c-1.7,0-3.1-1.4-3.1-3.1c0-1.7,1.3-3.1,3.1-3.1
					C204.8,27.9,206.1,29.2,206.1,30.9 M200.4,30.9c0,1.5,1.1,2.6,2.6,2.6c1.5,0,2.6-1.2,2.6-2.6c0-1.5-1.1-2.6-2.6-2.6
					C201.6,28.3,200.4,29.5,200.4,30.9 M202.4,32.7h-0.4v-3.6h1.4c0.8,0,1.2,0.3,1.2,1c0,0.6-0.4,0.9-0.9,1l1.1,1.6h-0.5l-1-1.6
					h-0.7V32.7z M203,30.8c0.5,0,1.1,0,1.1-0.6c0-0.5-0.4-0.6-0.8-0.6h-0.8v1.2H203z"/>
			</g>
		</g>
	</g>
	<g>
		<path class="st0" d="M20.9,58.4l-4.5-6.1v6.1h-1v-7.6h1l4.4,6v-6h1v7.6H20.9z"/>
		<path class="st0" d="M23.6,58.4v-7.6h5v0.8h-4.1v2.5h4V55h-4v2.6h4.1v0.8H23.6z"/>
		<path class="st0" d="M35.4,58.4L33,55.2l-2.4,3.3h-1.2l3-3.9l-2.8-3.7h1.2l2.3,3.1l2.3-3.1h1.2l-2.8,3.7l3,3.9H35.4z"/>
		<path class="st0" d="M39.5,58.4v-6.8h-2.4v-0.8h5.8v0.8h-2.4v6.8H39.5z"/>
		<path class="st0" d="M47.1,58.4v-7.6h1v6.8h3.6v0.8H47.1z"/>
		<path class="st0" d="M53,58.4v-7.6h5v0.8h-4.1v2.5h4V55h-4v2.6H58v0.8H53z"/>
		<path class="st0" d="M61.8,58.4l-3.1-7.6h1.1l2.6,6.6l2.6-6.6h1.1L63,58.4H61.8z"/>
		<path class="st0" d="M67,58.4v-7.6h5v0.8H68v2.5h4V55h-4v2.6h4.1v0.8H67z"/>
		<path class="st0" d="M73.6,58.4v-7.6h1v6.8h3.6v0.8H73.6z"/>
		<path class="st0" d="M87.8,58.4l-4.5-6.1v6.1h-1v-7.6h1l4.4,6v-6h1v7.6H87.8z"/>
		<path class="st0" d="M90.5,58.4v-7.6h5v0.8h-4.1v2.5h4V55h-4v2.6h4.1v0.8H90.5z"/>
		<path class="st0" d="M98.9,58.4v-6.8h-2.4v-0.8h5.8v0.8h-2.4v6.8H98.9z"/>
		<path class="st0" d="M109.4,58.4l-1.7-6.2l-1.7,6.2h-1l-2.2-7.6h1.1l1.7,6.4l1.8-6.4h0.8l1.8,6.4l1.7-6.4h1.1l-2.2,7.6H109.4z"/>
		<path class="st0" d="M113.2,54.6c0-2.3,1.5-3.9,3.8-3.9c2.3,0,3.8,1.7,3.8,3.9c0,2.3-1.5,3.9-3.8,3.9
			C114.7,58.6,113.2,56.9,113.2,54.6z M119.8,54.6c0-1.8-1.1-3.1-2.8-3.1c-1.7,0-2.8,1.3-2.8,3.1c0,1.8,1.1,3.1,2.8,3.1
			C118.7,57.7,119.8,56.4,119.8,54.6z"/>
		<path class="st0" d="M126.7,58.4l-2-3h-1.5v3h-1v-7.6h3.1c1.4,0,2.4,0.9,2.4,2.3c0,1.4-0.9,2.1-2,2.2l2.1,3.1H126.7z M126.7,53.1
			c0-0.9-0.6-1.5-1.5-1.5h-2v2.9h2C126.1,54.6,126.7,54,126.7,53.1z"/>
		<path class="st0" d="M133.8,58.4l-2.9-3.4l-0.8,0.9v2.6h-1v-7.6h1v3.9l3.4-3.9h1.2l-3.2,3.6l3.5,4H133.8z"/>
		<path class="st0" d="M136.1,58.4v-7.6h1v7.6H136.1z"/>
		<path class="st0" d="M144.3,58.4l-4.5-6.1v6.1h-1v-7.6h1l4.4,6v-6h1v7.6H144.3z"/>
		<path class="st0" d="M146.7,54.6c0-2.4,1.8-3.9,3.9-3.9c1.4,0,2.3,0.6,3,1.4l-0.8,0.5c-0.5-0.6-1.3-1.1-2.2-1.1
			c-1.7,0-2.9,1.3-2.9,3.1c0,1.8,1.3,3.1,2.9,3.1c0.9,0,1.7-0.4,2.1-0.8v-1.6H150v-0.8h3.6v2.8c-0.7,0.8-1.8,1.3-3,1.3
			C148.4,58.6,146.7,57,146.7,54.6z"/>
	</g>
</g>
</svg>
