<?xml version="1.0" encoding="UTF-8"?>
<svg width="236px" height="54px" viewBox="0 0 236 54" version="1.1" xmlns="http://www.w3.org/2000/svg" xmlns:xlink="http://www.w3.org/1999/xlink">
    <title>logo-integrations-Desktop HD Copy 2</title>
    <g id="Desktop-HD-Copy-2" stroke="none" stroke-width="1" fill="none" fill-rule="evenodd">
        <g id="Group-7" transform="translate(43.000000, 15.000000)" fill-rule="nonzero">
            <g id="logoparade-microsoft">
                <path d="M102.769834,9.92205606 L102.769834,8.12256492 L100.522955,8.12256492 L100.522955,5.30899596 L100.44342,5.32887984 L98.3357286,5.97510593 L98.2959612,5.98504788 L98.2959612,8.12256492 L94.965411,8.12256492 L94.965411,6.92953218 C94.965411,6.37278354 95.0847132,5.95522205 95.3332626,5.67684773 C95.5718688,5.39847341 95.919837,5.25928625 96.357282,5.25928625 C96.6754236,5.25928625 97.0035084,5.33882177 97.331592,5.47800893 L97.411128,5.51777669 L97.411128,3.61886616 L97.3713606,3.60892421 C97.0631604,3.49956288 96.6455988,3.43991124 96.1286178,3.43991124 C95.47245,3.43991124 94.8759336,3.5790984 94.3589526,3.86741465 C93.8419716,4.14578897 93.434352,4.55340852 93.1460358,5.0703894 C92.857719,5.58737028 92.7185322,6.17394474 92.7185322,6.83011278 L92.7185322,8.12256492 L91.1675904,8.12256492 L91.1675904,9.931998 L92.7284748,9.931998 L92.7284748,17.5475242 L94.9753524,17.5475242 L94.9753524,9.931998 L98.3059026,9.931998 L98.3059026,14.7737229 C98.3059026,16.7621109 99.2503872,17.7761887 101.099588,17.7761887 C101.407788,17.7761887 101.72593,17.736421 102.054014,17.6668274 C102.39204,17.5972339 102.610763,17.5276402 102.74995,17.4481046 L102.779776,17.4282209 L102.779776,15.6088457 L102.690298,15.6684974 C102.570995,15.748033 102.411924,15.8176265 102.24291,15.8673362 C102.063956,15.917046 101.914827,15.9468718 101.795524,15.9468718 C101.358079,15.9468718 101.039936,15.8275685 100.841098,15.5989039 C100.642259,15.3702392 100.532897,14.9626198 100.532897,14.3859871 L100.532897,9.94194 L102.769834,9.92205606 L102.769834,9.92205606 Z M86.1568518,15.9369298 C85.3416132,15.9369298 84.7053288,15.6684974 84.2479992,15.1316326 C83.7906702,14.5947679 83.5620054,13.8391805 83.5620054,12.8648703 C83.5620054,11.8706763 83.7906702,11.085263 84.2479992,10.5384564 C84.7053288,10.0015916 85.3416132,9.72321726 86.1369684,9.72321726 C86.912439,9.72321726 87.5387814,9.98170776 87.976227,10.4986886 C88.423614,11.0156695 88.6522788,11.7911408 88.6522788,12.8052187 C88.6522788,13.8292385 88.443498,14.6146517 88.0159944,15.1415746 C87.608376,15.6684974 86.982033,15.9369298 86.1568518,15.9369298 M86.2562712,7.89390036 C84.7053288,7.89390036 83.472528,8.3512296 82.587696,9.24600414 C81.7128048,10.1407788 81.2654172,11.3835214 81.2654172,12.9444058 C81.2654172,14.4158129 81.7028628,15.6088457 82.55787,16.4737946 C83.412876,17.3387434 84.5860254,17.7761887 86.0276064,17.7761887 C87.5288388,17.7761887 88.7417562,17.3188594 89.6265894,16.4042009 C90.50148,15.4994844 90.9488664,14.2666838 90.9488664,12.745567 C90.9488664,11.2443341 90.531306,10.0513013 89.7061248,9.19629456 C88.880943,8.33134572 87.7276788,7.89390036 86.2562712,7.89390036 M77.6465508,7.89390036 C76.592706,7.89390036 75.7178148,8.16233268 75.051705,8.69919744 C74.3756532,9.23606232 74.0376276,9.94194 74.0376276,10.787005 C74.0376276,11.2244503 74.1072204,11.6221279 74.2563498,11.9601538 C74.4054792,12.2981798 74.6242014,12.586496 74.9224596,12.8350445 C75.2207178,13.083593 75.6780474,13.3321416 76.2845052,13.6005739 C76.7915448,13.8093547 77.1792804,13.9883095 77.4178872,14.1274968 C77.6564934,14.2666838 77.8255062,14.4058711 77.9149836,14.5351162 C78.004461,14.6643614 78.054171,14.8433165 78.054171,15.071981 C78.054171,15.7082652 77.576958,16.0164653 76.6026474,16.0164653 C76.2447378,16.0164653 75.8271768,15.9369298 75.3797886,15.7878007 C74.9324016,15.6386717 74.504898,15.4298909 74.1271044,15.1515166 L74.0376276,15.081923 L74.0376276,17.2393239 L74.0674524,17.2592078 C74.3855946,17.4083369 74.7832722,17.5276402 75.2604852,17.6270597 C75.7277568,17.726479 76.1552604,17.7761887 76.533054,17.7761887 C77.6763768,17.7761887 78.6009774,17.5077564 79.2770292,16.9708915 C79.953081,16.4340269 80.3010492,15.7082652 80.3010492,14.8333745 C80.3010492,14.1970903 80.1121524,13.6502837 79.7542422,13.2128383 C79.3963326,12.775393 78.7600482,12.3777154 77.8851576,12.0198055 C77.1892224,11.7414312 76.7418348,11.5028246 76.552938,11.3238696 C76.3739832,11.1548566 76.2845052,10.9063082 76.2845052,10.598108 C76.2845052,10.3197337 76.3938672,10.101011 76.622532,9.92205606 C76.8511956,9.7431012 77.1792804,9.65362368 77.576958,9.65362368 C77.9547516,9.65362368 78.3325452,9.71327544 78.7103388,9.83257872 C79.088133,9.951882 79.4261586,10.101011 79.7045328,10.2899078 L79.7940102,10.3495596 L79.7940102,8.30151984 L79.7542422,8.28163596 C79.495752,8.17227468 79.1577258,8.07285528 78.7501068,8.00326164 C78.3424872,7.93366812 77.9746356,7.89390036 77.6465508,7.89390036 M68.1917664,15.9369298 C67.3765272,15.9369298 66.7402434,15.6684974 66.2829138,15.1316326 C65.8255848,14.5947679 65.59692,13.8391805 65.59692,12.8648703 C65.59692,11.8706763 65.8255848,11.085263 66.2829138,10.5384564 C66.7303014,10.0015916 67.3665852,9.72321726 68.1718824,9.72321726 C68.9473536,9.72321726 69.573696,9.98170776 70.0111416,10.4986886 C70.4585286,11.0156695 70.6871934,11.7911408 70.6871934,12.8052187 C70.6871934,13.8292385 70.4784126,14.6146517 70.050909,15.1415746 C69.633348,15.6684974 69.0070056,15.9369298 68.1917664,15.9369298 M68.2911858,7.89390036 C66.7402434,7.89390036 65.5074426,8.3512296 64.62261,9.24600414 C63.7477194,10.1407788 63.3003318,11.3835214 63.3003318,12.9444058 C63.3003318,14.4158129 63.7377774,15.6088457 64.592784,16.4737946 C65.4477912,17.3387434 66.62094,17.7761887 68.062521,17.7761887 C69.563754,17.7761887 70.7766708,17.3188594 71.6615034,16.4042009 C72.536394,15.4994844 72.9837816,14.2666838 72.9837816,12.745567 C72.9837816,11.2443341 72.56622,10.0513013 71.7410388,9.19629456 C70.9158582,8.33134572 69.7526508,7.89390036 68.2911858,7.89390036 M59.8902466,9.7530432 L59.8902466,8.12256492 L57.673194,8.12256492 L57.673194,17.5475242 L59.8902466,17.5475242 L59.8902466,12.7256832 C59.8902466,11.9104441 60.0791436,11.2343921 60.4469952,10.7273532 C60.8049048,10.2203143 61.2920604,9.97176576 61.8786348,9.97176576 C62.0774736,9.97176576 62.3061378,10.0015916 62.5447446,10.0711853 C62.7833508,10.1407788 62.9623062,10.2103723 63.0617256,10.2799659 L63.151203,10.3495596 L63.151203,8.11262304 L63.111435,8.09273916 C62.9026542,8.00326164 62.614338,7.96349388 62.2464864,7.96349388 C61.689738,7.96349388 61.1926404,8.1424488 60.7651374,8.49041676 C60.3873432,8.79861696 60.118911,9.22612032 59.9101305,9.7530432 C59.9101305,9.7530432 59.8902466,9.7530432 59.8902466,9.7530432 Z M53.7063598,7.89390036 C52.692282,7.89390036 51.7875655,8.11262304 51.0120941,8.5401264 C50.2366229,8.96762982 49.6401065,9.58403016 49.2324869,10.3694434 C48.8248673,11.1449148 48.6260285,12.0595733 48.6260285,13.073651 C48.6260285,13.9684258 48.8248673,14.7836647 49.2225449,15.4994844 C49.6202225,16.2252461 50.1769711,16.7819947 50.8828489,17.1796723 C51.5887267,17.5674079 52.4039657,17.7662467 53.3086822,17.7662467 C54.3625279,17.7662467 55.2573025,17.5574661 55.9830641,17.1399046 L56.0128899,17.1200206 L56.0128899,15.0918649 L55.9234126,15.1614586 C55.5953285,15.4000651 55.2274766,15.5889619 54.839741,15.728149 C54.4520054,15.8673362 54.0940956,15.9369298 53.7759535,15.9369298 C52.9110046,15.9369298 52.2051269,15.6684974 51.698088,15.1316326 C51.1910491,14.5947679 50.9325586,13.8391805 50.9325586,12.8946962 C50.9325586,11.94027 51.2009909,11.1647986 51.7279138,10.598108 C52.2548366,10.0314175 52.9507724,9.7431012 53.8057793,9.7431012 C54.531541,9.7431012 55.2473606,9.99164976 55.9134706,10.4788047 L56.0029481,10.5483984 L56.0029481,8.41088124 L55.9731221,8.39099736 C55.7245738,8.2518102 55.3766057,8.13250692 54.9491023,8.0430294 C54.521599,7.93366812 54.1040374,7.89390036 53.7063598,7.89390036 M47.0949698,8.12256492 L44.8779171,8.12256492 L44.8779171,17.5475242 L47.0949698,17.5475242 L47.0949698,8.12256492 Z M46.0112983,4.10602121 C45.6434465,4.10602121 45.3253044,4.22532449 45.0668141,4.473873 C44.8083235,4.72242149 44.6691365,5.03062164 44.6691365,5.39847341 C44.6691365,5.75638325 44.7983816,6.0645834 45.0568721,6.30318996 C45.3153625,6.54179652 45.6335045,6.6610998 46.0013563,6.6610998 C46.3692082,6.6610998 46.6972922,6.54179652 46.9557826,6.30318996 C47.2142731,6.0645834 47.3534602,5.75638325 47.3534602,5.39847341 C47.3534602,5.04056357 47.2242149,4.73236344 46.9657246,4.48381493 C46.717176,4.23526644 46.3990339,4.10602121 46.0112983,4.10602121 M40.4835797,7.42662912 L40.4835797,17.5475242 L42.750342,17.5475242 L42.750342,4.39433748 L39.618631,4.39433748 L35.641855,14.1573226 L31.7843822,4.39433748 L28.5234259,4.39433748 L28.5234259,17.5375822 L30.651001,17.5375822 L30.651001,7.42662912 L30.7205945,7.42662912 L34.79679,17.5475242 L36.3974424,17.5475242 L40.4040442,7.42662912 L40.4835797,7.42662912 L40.4835797,7.42662912 Z" id="path5056" fill="#716E6F"></path>
                <polygon id="path5058" fill="#F05423" points="10.4290951 10.4290951 0 10.4290951 0 0 10.4290951 0"></polygon>
                <polygon id="path5060" fill="#84C441" points="21.9418615 10.4290951 11.5127665 10.4290951 11.5127665 0 21.9418615 0"></polygon>
                <polygon id="path5062" fill="#2DABE2" points="10.4290951 21.9418615 0 21.9418615 0 11.5127665 10.4290951 11.5127665"></polygon>
                <polygon id="path5064" fill="#F9BC15" points="21.9418615 21.9418615 11.5127665 21.9418615 11.5127665 11.5127665 21.9418615 11.5127665"></polygon>
            </g>
            <path d="M114.136364,20.1363636 L114.136364,1 L113,1 L113,20.1363636 L114.136364,20.1363636 Z M125.818182,16.5454545 C126.57197,16.5454545 127.244318,16.4015152 127.835227,16.1136364 C128.426136,15.8257576 128.892992,15.4308712 129.235795,14.9289773 C129.578598,14.4270833 129.75,13.8598485 129.75,13.2272727 C129.75,12.4886364 129.543561,11.8683712 129.130682,11.3664773 C128.717803,10.8645833 128.143939,10.5530303 127.409091,10.4318182 L127.409091,10.4318182 L127.409091,10.3409091 C127.996212,10.1628788 128.461174,9.84280303 128.803977,9.38068182 C129.14678,8.91856061 129.318182,8.35984848 129.318182,7.70454545 C129.318182,7.15530303 129.179924,6.64393939 128.903409,6.17045455 C128.626894,5.6969697 128.231061,5.31534091 127.715909,5.02556818 C127.200758,4.73579545 126.583333,4.59090909 125.863636,4.59090909 C125.193182,4.59090909 124.578598,4.71969697 124.019886,4.97727273 C123.461174,5.23484848 123.00947,5.59375 122.664773,6.05397727 C122.320076,6.51420455 122.136364,7.04924242 122.113636,7.65909091 L122.113636,7.65909091 L123.477273,7.65909091 C123.496212,7.27272727 123.617424,6.94223485 123.840909,6.66761364 C124.064394,6.39299242 124.35322,6.18276515 124.707386,6.03693182 C125.061553,5.89109848 125.439394,5.81818182 125.840909,5.81818182 C126.484848,5.81818182 126.998106,5.99715909 127.380682,6.35511364 C127.763258,6.71306818 127.954545,7.18560606 127.954545,7.77272727 C127.954545,8.38636364 127.736742,8.87689394 127.301136,9.24431818 C126.86553,9.61174242 126.30303,9.79545455 125.613636,9.79545455 L125.613636,9.79545455 L124.681818,9.79545455 L124.681818,11.0454545 L125.613636,11.0454545 C126.496212,11.0454545 127.175189,11.2481061 127.650568,11.6534091 C128.125947,12.0587121 128.363636,12.5833333 128.363636,13.2272727 C128.363636,13.844697 128.122159,14.34375 127.639205,14.7244318 C127.15625,15.1051136 126.541667,15.2954545 125.795455,15.2954545 C125.121212,15.2954545 124.546402,15.1325758 124.071023,14.8068182 C123.595644,14.4810606 123.337121,14.0378788 123.295455,13.4772727 L123.295455,13.4772727 L121.863636,13.4772727 C121.893939,14.0871212 122.080492,14.6221591 122.423295,15.0823864 C122.766098,15.5426136 123.230114,15.9015152 123.815341,16.1590909 C124.400568,16.4166667 125.068182,16.5454545 125.818182,16.5454545 Z M135.931818,16.5454545 C136.715909,16.5530303 137.398674,16.3816288 137.980114,16.03125 C138.561553,15.6808712 139.013258,15.2073864 139.335227,14.6107955 C139.657197,14.0142045 139.818182,13.3560606 139.818182,12.6363636 C139.818182,11.8863636 139.651515,11.2206439 139.318182,10.6392045 C138.984848,10.0577652 138.541667,9.60132576 137.988636,9.26988636 C137.435606,8.93844697 136.825758,8.77272727 136.159091,8.77272727 C135.560606,8.77272727 135.013258,8.91003788 134.517045,9.18465909 C134.020833,9.4592803 133.613636,9.83712121 133.295455,10.3181818 L133.295455,10.3181818 L133.204545,10.3181818 C133.208333,8.89015152 133.46875,7.78314394 133.985795,6.99715909 C134.502841,6.21117424 135.212121,5.81818182 136.113636,5.81818182 C136.727273,5.81818182 137.219697,5.99147727 137.590909,6.33806818 C137.962121,6.68465909 138.212121,7.125 138.340909,7.65909091 L138.340909,7.65909091 L139.727273,7.65909091 C139.587121,6.74242424 139.194129,5.99810606 138.548295,5.42613636 C137.902462,4.85416667 137.090909,4.56818182 136.113636,4.56818182 C134.80303,4.56818182 133.770833,5.12689394 133.017045,6.24431818 C132.263258,7.36174242 131.886364,8.95454545 131.886364,11.0227273 C131.886364,12.0984848 132.005682,12.9914773 132.244318,13.7017045 C132.482955,14.4119318 132.799242,14.9744318 133.193182,15.3892045 C133.587121,15.8039773 134.022727,16.0984848 134.5,16.2727273 C134.977273,16.4469697 135.454545,16.5378788 135.931818,16.5454545 Z M135.931818,15.2954545 C135.44697,15.2954545 135.014205,15.1723485 134.633523,14.9261364 C134.252841,14.6799242 133.953598,14.3560606 133.735795,13.9545455 C133.517992,13.5530303 133.409091,13.1212121 133.409091,12.6590909 C133.412879,12.1931818 133.528409,11.7604167 133.755682,11.3607955 C133.982955,10.9611742 134.289773,10.6382576 134.676136,10.3920455 C135.0625,10.1458333 135.496212,10.0227273 135.977273,10.0227273 C136.454545,10.0227273 136.879735,10.1401515 137.252841,10.375 C137.625947,10.6098485 137.919508,10.9251894 138.133523,11.3210227 C138.347538,11.7168561 138.454545,12.155303 138.454545,12.6363636 C138.454545,13.1287879 138.34375,13.5757576 138.122159,13.9772727 C137.900568,14.3787879 137.599432,14.6988636 137.21875,14.9375 C136.838068,15.1761364 136.409091,15.2954545 135.931818,15.2954545 Z M145.681818,16.5454545 C146.420455,16.5454545 147.079545,16.3778409 147.659091,16.0426136 C148.238636,15.7073864 148.694129,15.249053 149.025568,14.6676136 C149.357008,14.0861742 149.522727,13.4242424 149.522727,12.6818182 C149.522727,11.9280303 149.362689,11.2575758 149.042614,10.6704545 C148.722538,10.0833333 148.283144,9.62026515 147.724432,9.28125 C147.16572,8.94223485 146.530303,8.77272727 145.818182,8.77272727 C145.42803,8.77272727 145.05303,8.83522727 144.693182,8.96022727 C144.333333,9.08522727 144.034091,9.24242424 143.795455,9.43181818 L143.795455,9.43181818 L143.727273,9.43181818 L144.136364,6 L149,6 L149,4.75 L142.954545,4.75 L142.25,10.4772727 L143.568182,10.6363636 C143.810606,10.4621212 144.119318,10.3191288 144.494318,10.2073864 C144.869318,10.0956439 145.234848,10.0416667 145.590909,10.0454545 C146.087121,10.0492424 146.528409,10.1666667 146.914773,10.3977273 C147.301136,10.6287879 147.605114,10.9441288 147.826705,11.34375 C148.048295,11.7433712 148.159091,12.1969697 148.159091,12.7045455 C148.159091,13.2007576 148.052083,13.6448864 147.838068,14.0369318 C147.624053,14.4289773 147.330492,14.7367424 146.957386,14.9602273 C146.58428,15.1837121 146.159091,15.2954545 145.681818,15.2954545 C145.087121,15.2954545 144.576705,15.124053 144.150568,14.78125 C143.724432,14.438447 143.484848,14.0037879 143.431818,13.4772727 L143.431818,13.4772727 L142.068182,13.4772727 C142.098485,14.0681818 142.274621,14.594697 142.596591,15.0568182 C142.918561,15.5189394 143.346591,15.8825758 143.880682,16.1477273 C144.414773,16.4128788 145.015152,16.5454545 145.681818,16.5454545 Z" id="|365" fill="#343741"></path>
        </g>
    </g>
</svg>