<svg xmlns="http://www.w3.org/2000/svg" width="994" height="883"><g fill="#ea1b22"><path d="M489.6 39.616c230.2-2.7 423.6 57.3 431.7 133.7 8.1 76.5-172.3 140.8-402.5 143.4-230.2 2.8-423.7-57.2-431.7-133.7-8.1-76.4 172.2-140.7 402.5-143.4z"/><path d="M87.1 356.516c-.4-3.3-.4-6.6 0-9.8v-151.5h.2c-.4 3.2-.3 6.4 0 9.7 8 76.5 201.5 136.4 431.7 133.8 220.3-2.6 394.9-61.5 402.5-133.6v151.5h-.3c-7.4 72.1-182.1 131.2-402.5 133.8-230.1 2.5-423.6-57.4-431.6-133.9z"/><path d="M87.1 533.816c-.4-3.3-.4-6.6 0-9.8v-151.5h.2c-.4 3.2-.3 6.5 0 9.7 8 76.5 201.5 136.4 431.7 133.8 220.3-2.6 394.9-61.6 402.5-133.6v151.4h-.3c-7.3 72.2-182 131.2-402.4 133.8-230.2 2.6-423.6-57.3-431.7-133.8z"/><path d="M87.1 711.116c-.4-3.3-.4-6.6 0-9.8v-151.5h.2c-.4 3.2-.3 6.5 0 9.7 8 76.5 201.5 136.4 431.7 133.8 220.3-2.6 394.9-61.5 402.5-133.6v151.5h-.3c-7.4 72.2-182.1 131.2-402.5 133.8-230.1 2.6-423.5-57.4-431.6-133.9z"/></g></svg>