<?xml version="1.0" encoding="UTF-8" standalone="no"?>
<svg
   xmlns:dc="http://purl.org/dc/elements/1.1/"
   xmlns:cc="http://creativecommons.org/ns#"
   xmlns:rdf="http://www.w3.org/1999/02/22-rdf-syntax-ns#"
   xmlns:svg="http://www.w3.org/2000/svg"
   xmlns="http://www.w3.org/2000/svg"
   viewBox="0 0 735.61334 123.8"
   height="123.8"
   width="735.61334"
   xml:space="preserve"
   id="svg2"
   version="1.1"><metadata
     id="metadata8"><rdf:RDF><cc:Work
         rdf:about=""><dc:format>image/svg+xml</dc:format><dc:type
           rdf:resource="http://purl.org/dc/dcmitype/StillImage" /></cc:Work></rdf:RDF></metadata><defs
     id="defs6" /><g
     transform="matrix(1.3333333,0,0,-1.3333333,0,123.8)"
     id="g10"><g
       transform="scale(0.1)"
       id="g12"><path
         id="path14"
         style="fill:#100f0d;fill-opacity:1;fill-rule:nonzero;stroke:none"
         d="m 977.73,793.262 c 0,74.75 60.49,135.269 135.26,135.269 74.65,0 135.27,-60.519 135.27,-135.269 0,-74.61 -60.62,-135.293 -135.27,-135.293 -74.77,0 -135.26,60.683 -135.26,135.293 v 0" /><path
         id="path16"
         style="fill:#d2d3d2;fill-opacity:1;fill-rule:nonzero;stroke:none"
         d="m 0,793.262 c 0,74.75 60.4883,135.269 135.23,135.269 74.77,0 135.258,-60.519 135.258,-135.269 C 270.488,718.652 210,657.969 135.23,657.969 60.4883,657.969 0,718.652 0,793.262 v 0" /><path
         id="path18"
         style="fill:#d2d3d2;fill-opacity:1;fill-rule:nonzero;stroke:none"
         d="m 324.551,793.262 c 0,74.75 60.527,135.269 135.254,135.269 74.722,0 135.246,-60.519 135.246,-135.269 0,-74.61 -60.524,-135.293 -135.246,-135.293 -74.727,0 -135.254,60.683 -135.254,135.293 v 0" /><path
         id="path20"
         style="fill:#d2d3d2;fill-opacity:1;fill-rule:nonzero;stroke:none"
         d="m 978.418,464.313 c 0,74.621 60.582,135.234 135.272,135.234 74.58,0 135.29,-60.613 135.29,-135.234 0,-74.778 -60.71,-135.243 -135.29,-135.243 -74.69,0 -135.272,60.465 -135.272,135.243 v 0" /><path
         id="path22"
         style="fill:#b41d23;fill-opacity:1;fill-rule:nonzero;stroke:none"
         d="m 650.813,793.262 c 0,74.75 60.613,135.269 135.265,135.269 74.645,0 135.254,-60.519 135.254,-135.269 0,-74.61 -60.609,-135.293 -135.254,-135.293 -74.652,0 -135.265,60.683 -135.265,135.293 v 0" /><path
         id="path24"
         style="fill:#f8a62b;fill-opacity:1;fill-rule:nonzero;stroke:none"
         d="m 650.813,464.313 c 0,74.621 60.613,135.234 135.265,135.234 74.645,0 135.254,-60.613 135.254,-135.234 0,-74.778 -60.609,-135.243 -135.254,-135.243 -74.652,0 -135.265,60.465 -135.265,135.243 v 0" /><path
         id="path26"
         style="fill:#d2d3d2;fill-opacity:1;fill-rule:nonzero;stroke:none"
         d="m 328.207,135.238 c 0,74.742 60.484,135.235 135.231,135.235 74.703,0 135.23,-60.493 135.23,-135.235 C 598.668,60.4648 538.141,0.00390625 463.438,0.00390625 388.691,0.00390625 328.207,60.4648 328.207,135.238 v 0" /><path
         id="path28"
         style="fill:#26853c;fill-opacity:1;fill-rule:nonzero;stroke:none"
         d="m 650.813,135.781 c 0,74.762 60.613,135.258 135.265,135.258 74.645,0 135.254,-60.496 135.254,-135.258 0,-74.7224 -60.609,-135.230219 -135.254,-135.230219 -74.652,0 -135.265,60.507819 -135.265,135.230219 v 0" /><path
         id="path30"
         style="fill:#100f0d;fill-opacity:1;fill-rule:evenodd;stroke:none"
         d="m 1866.89,567.223 v 87.336 h -132.75 c -164.29,0 -209.97,10.027 -209.97,-159.297 V 5.51172 l 99.37,-0.02734 -0.3,561.73862 h 243.65" /><path
         id="path32"
         style="fill:#100f0d;fill-opacity:1;fill-rule:evenodd;stroke:none"
         d="m 2268.61,123.141 c -30.65,-23.078 -76.32,-23.8207 -121.63,-23.8207 -50.09,0 -84.93,1.8557 -106.11,23.9097 l -0.1,0.063 h 0.1 c -17.21,17.992 -25.37,49.449 -25.37,104.082 0,103.617 37.86,111.668 131.48,110.922 70.07,-0.477 158.37,0 158.37,0 l 0.02,-119.492 c 0,-49.594 -14.31,-78.606 -36.76,-95.575 h 0.09 z m -241.04,534.714 c 0,0 0,-94.32 0,-94.441 239.85,0 282.62,-11.074 282.62,-135.266 h -179.86 c -137.3,0 -216.45,-25.824 -216.45,-213.265 0,-36.602 3.66,-66.742 10.63,-91.653 h 0.19 l -0.19,-0.089 c 26.7,-95.8129 101.66,-113.73084 200.43,-113.73084 69.74,0 150.92,2.66404 182.74,80.14454 V 6.94922 h 101.88 V 438.75 c 0,223.383 -157.68,219.105 -381.99,219.105" /><path
         id="path34"
         style="fill:#100f0d;fill-opacity:1;fill-rule:evenodd;stroke:none"
         d="m 2907.12,123.141 c -23.7,-15.946 -57.53,-21.965 -105.2,-21.965 -49.3,0 -84.99,3.922 -110.15,22.054 l -0.07,0.036 c -37.26,26.789 -51.24,84.707 -51.24,206.5 0,206.265 30.38,229.851 161.46,229.851 89.51,0 158.71,0.953 158.6,-0.242 0,-36.664 -0.39,-171.391 -0.39,-229.609 0,-116.68 -10.25,-177.797 -53.01,-206.536 h 0.13 z m 53.26,770.125 0.14,-235.504 -194.43,0.093 c -214.95,0 -235.51,-134.824 -235.51,-326.113 0,-82.672 3.83,-153.972 25.12,-208.512 h 0.03 c 28.48,-73.0581 87.93,-115.90187 210.36,-115.90187 174.4,0 194.29,91.71877 194.29,91.71877 V 6.94922 h 99.82 V 893.266 h -99.82" /><path
         id="path36"
         style="fill:#100f0d;fill-opacity:1;fill-rule:evenodd;stroke:none"
         d="m 3959.66,657.762 h -95.63 l -106.24,-456.61 -152.05,456.61 h -82.34 l -148.11,-456.61 -114.07,456.61 H 3158.73 L 3318.39,6.94922 h 91.94 L 3561.73,497.477 3714.17,6.94922 h 92.36 L 3959.66,657.762" /><path
         id="path38"
         style="fill:#100f0d;fill-opacity:1;fill-rule:evenodd;stroke:none"
         d="m 4341.17,123.141 c -30.56,-23.078 -76.2,-23.8207 -121.62,-23.8207 -49.97,0 -84.81,1.8557 -106.07,23.9097 l -0.19,0.063 h 0.19 c -17.23,17.992 -25.52,49.449 -25.52,104.082 0,103.617 37.92,111.668 131.59,110.922 70.11,-0.477 158.46,0 158.46,0 V 218.805 c 0,-49.594 -14.26,-78.606 -36.84,-95.575 h 0.15 z m -240.98,534.714 c 0,0 -0.05,-94.32 0,-94.441 239.81,0 282.71,-11.074 282.71,-135.266 h -180.09 c -137.19,0 -216.36,-25.824 -216.36,-213.265 0,-36.602 3.69,-66.742 10.65,-91.653 h 0.1 l -0.1,-0.089 C 4023.76,27.3281 4098.67,9.41016 4197.57,9.41016 c 69.67,0 151.01,2.66404 182.61,80.14454 V 6.94922 h 102.04 V 438.75 c 0,223.383 -157.66,219.105 -382.03,219.105" /><path
         id="path40"
         style="fill:#100f0d;fill-opacity:1;fill-rule:evenodd;stroke:none"
         d="m 4931.85,567.223 v 87.336 h -132.77 c -164.33,0 -209.94,10.027 -209.94,-159.297 V 5.51172 l 99.34,-0.02734 -0.3,561.73862 h 243.67" /><path
         id="path42"
         style="fill:#100f0d;fill-opacity:1;fill-rule:evenodd;stroke:none"
         d="m 5079.82,414.504 c 7.96,55.437 45.37,164.871 180.09,164.871 136.17,0 155.48,-105.336 157.79,-164.871 z M 5254,667.578 c -262.8,0 -347.78,-351.676 -221.12,-544.348 l 0.57,-0.148 h -0.57 c 49.3,-75.0976 130.57,-126.07419 245.98,-122.832 112.58,3.01563 191.24,38.1836 224.85,53.3867 0,0 0.4,104.4103 0,104.7423 -16.74,-10.57 -44.96,-23.742 -79.15,-35.055 h -0.2 C 5349.63,98.7148 5246.41,83.1602 5172.31,123.23 h -0.23 c -54.64,29.583 -93.46,89.293 -93.46,198.098 h 435.24 c 0,0 51.76,346.25 -259.86,346.25" /></g></g></svg>