<svg xmlns="http://www.w3.org/2000/svg" width="32" height="32"><path d="M.764 24.891h13.028l7.471 6.916V24.89h9.972V.193H.765zM5.673 5.967h5.711l10.991 10.25V5.966h3.643V19.21h-5.526L9.317 8.776V19.21H5.674z" fill="#8dc63f"/><path d="M9.317 8.776L20.492 19.21h5.526V5.966h-3.643v10.25l-10.99-10.25H5.672v13.245h3.643z" fill="#fff"/><path d="M.764.193h30.471v24.698H.765z" fill="#27aae1"/><path d="M16 .193h15.236v12.35H16z" fill="#34a574"/><path d="M16 12.542h15.236v12.35H16z" fill="#8dc63f"/><path d="M.764.193H16v12.35H.764z" fill="#27aae1"/><g fill="#375c93"><path d="M.764 12.542H16v12.35H.764z"/><path d="M16 24.891l.076 2.126-2.284-2.126z"/></g><path d="M8.278 8.013l13.217 12.34h6.535V4.69h-4.308v12.122L10.724 4.69H3.97v15.664h4.308z" fill="#fff"/></svg>