<svg width="32" height="32" viewBox="0 0 32 32" fill="none" xmlns="http://www.w3.org/2000/svg">
<g id="icon-data-visualizer-32-color">
<g id="Group 13">
<path id="Fill 1" fill-rule="evenodd" clip-rule="evenodd" d="M22.9517 12.0537C22.9807 12.3657 22.9997 12.6807 22.9997 12.9997C22.9997 13.4897 22.9527 13.9657 22.8847 14.4357C24.1767 15.5367 24.9997 17.1737 24.9997 18.9997C24.9997 22.3087 22.3077 24.9997 18.9997 24.9997C17.1727 24.9997 15.5367 24.1767 14.4357 22.8847C13.9657 22.9527 13.4887 22.9997 12.9997 22.9997C12.6807 22.9997 12.3647 22.9817 12.0527 22.9517C13.4317 25.3667 16.0267 26.9997 18.9997 26.9997C23.4107 26.9997 26.9997 23.4107 26.9997 18.9997C26.9997 16.0267 25.3657 13.4327 22.9517 12.0537Z" fill="#00BFB3"/>
<path id="Fill 3" fill-rule="evenodd" clip-rule="evenodd" d="M1 12H3V3H12V1H1V12Z" fill="#535766"/>
<path id="Fill 5" fill-rule="evenodd" clip-rule="evenodd" d="M20 1V3H29V12H31V1H20Z" fill="#535766"/>
<path id="Fill 7" fill-rule="evenodd" clip-rule="evenodd" d="M3 20H1V31H12V29H3V20Z" fill="#535766"/>
<path id="Fill 9" fill-rule="evenodd" clip-rule="evenodd" d="M29 29H20V31H31V20H29V29Z" fill="#535766"/>
<path id="Fill 11" fill-rule="evenodd" clip-rule="evenodd" d="M13 7C9.691 7 7 9.691 7 13C7 16.309 9.691 19 13 19C16.309 19 19 16.309 19 13C19 9.691 16.309 7 13 7ZM13 21C8.589 21 5 17.411 5 13C5 8.589 8.589 5 13 5C17.411 5 21 8.589 21 13C21 17.411 17.411 21 13 21Z" fill="#535766"/>
</g>
</g>
</svg>
