<svg width="12" height="12" viewBox="0 0 12 12" fill="none" xmlns="http://www.w3.org/2000/svg">
<g id="Icon left" clip-path="url(#clip0_188_36511)">
<path id="Glyph" d="M6.55929 6L8.88417 3.67512C9.03861 3.52068 9.03861 3.27028 8.88417 3.11583C8.72972 2.96139 8.47932 2.96139 8.32488 3.11583L6 5.44071L3.67512 3.11583C3.52068 2.96139 3.27028 2.96139 3.11583 3.11583C2.96139 3.27028 2.96139 3.52068 3.11583 3.67512L5.44071 6L3.11583 8.32488C2.96139 8.47932 2.96139 8.72972 3.11583 8.88417C3.27028 9.03861 3.52068 9.03861 3.67512 8.88417L6 6.55929L8.32488 8.88417C8.47932 9.03861 8.72972 9.03861 8.88417 8.88417C9.03861 8.72972 9.03861 8.47932 8.88417 8.32488L6.55929 6ZM6 12C2.68629 12 0 9.31371 0 6C0 2.68629 2.68629 0 6 0C9.31371 0 12 2.68629 12 6C12 9.31371 9.31371 12 6 12Z" fill="#005EC4"/>
</g>
<defs>
<clipPath id="clip0_188_36511">
<rect width="12" height="12" fill="white"/>
</clipPath>
</defs>
</svg>
