<svg width="32" height="31" viewBox="0 0 32 31" fill="none" xmlns="http://www.w3.org/2000/svg">
<path fill-rule="evenodd" clip-rule="evenodd" d="M25.9546 24.7431V22.8351C28.1846 22.8351 29.9996 21.0191 29.9996 18.7891C29.9996 17.1211 28.9916 15.6461 27.4316 15.0331L26.7036 14.7461L26.8416 13.9761C26.9486 13.3791 26.9996 12.8261 26.9996 12.2891C26.9996 7.02508 22.7176 2.74308 17.4546 2.74308C13.0336 2.74308 9.22263 5.74708 8.18463 10.0481L8.02663 10.7071L7.35063 10.7741C4.24863 11.0811 1.90963 13.6671 1.90963 16.7891C1.90963 20.1221 4.62163 22.8351 7.95463 22.8351V24.7431C3.56863 24.7431 -0.000366211 21.1751 -0.000366211 16.7891C-0.000366211 12.9061 2.75163 9.65308 6.50063 8.96808C7.95463 4.14708 12.3686 0.835083 17.4546 0.835083C23.7706 0.835083 28.9096 5.97208 28.9096 12.2891C28.9096 12.7131 28.8826 13.1401 28.8296 13.5841C30.7226 14.6221 31.9096 16.5911 31.9096 18.7891C31.9096 22.0721 29.2376 24.7431 25.9546 24.7431Z" fill="#535766"/>
<path fill-rule="evenodd" clip-rule="evenodd" d="M12.875 30.7889H15.248L23.121 18.7969H13.571L19.801 8.78894H17.465L10 20.7809H19.446L12.875 30.7889Z" fill="#00BFB3"/>
</svg>
