<svg xmlns="http://www.w3.org/2000/svg" width="34" height="32" fill="none"><path fill="#343741" fill-rule="evenodd" d="M2 22c.475.286 1.499.578 2.428.842l.222.063C7.066 23.595 10.412 24 14 24q1.114 0 2.19-.05a10 10 0 0 0 .608 1.97c-.904.052-1.84.08-2.798.08-7.732 0-14-1.79-14-4V4c0-2.21 6.268-4 14-4s14 1.79 14 4v8.2q-.97-.198-2-.2a9.95 9.95 0 0 0-5.288 1.511c-1.993.312-4.28.489-6.712.489-5.093 0-9.55-.777-12-1.938V16c.475.286 1.499.578 2.428.842l.222.063C7.066 17.595 10.412 18 14 18c.98 0 1.941-.03 2.871-.088a10 10 0 0 0-.66 2.038Q15.128 20 14 20c-5.093 0-9.55-.777-12-1.939zM2 6.061V10c.475.286 1.499.578 2.428.842l.222.063C7.066 11.595 10.412 12 14 12s6.934-.404 9.35-1.095l.236-.067c.926-.263 1.945-.553 2.418-.838H26V6.061C23.55 7.223 19.093 8 14 8S4.45 7.223 2 6.061m21.35-2.966C20.934 2.405 17.588 2 14 2s-6.934.404-9.35 1.095c-.983.28-1.76.596-2.273.905.513.31 1.29.624 2.273.905C7.066 5.595 10.412 6 14 6s6.934-.404 9.35-1.095c.983-.28 1.76-.596 2.273-.905-.513-.31-1.29-.624-2.273-.905" clip-rule="evenodd"/><path fill="#343741" d="M22 28.5c0-.825.675-1.5 1.5-1.5s1.5.675 1.5 1.5-.675 1.5-1.5 1.5-1.5-.675-1.5-1.5M19 16.5V15h2.475l.675 1.5h11.1c.45 0 .75.3.75.75 0 .15 0 .225-.15.375l-2.7 4.875c-.225.45-.675.75-1.275.75h-5.55l-.675 1.275v.075c0 .075.075.15.15.15h8.7v1.5h-9c-.825 0-1.5-.675-1.5-1.5 0-.225.075-.525.15-.75l1.05-1.8-2.7-5.7zM29.5 28.5c0-.825.675-1.5 1.5-1.5s1.5.675 1.5 1.5S31.825 30 31 30s-1.5-.675-1.5-1.5"/></svg>