<?xml version="1.0" encoding="utf-8"?>
<svg viewBox="0 0 200 80" width="200" height="80" style="enable-background:new 0 0 686.2 235.7;" xmlns="http://www.w3.org/2000/svg">
  <defs>
    <style type="text/css">
	.st0{fill:#2D2D2D;}
</style>
  </defs>
  <g transform="matrix(0, 0.414133, -0.414133, 0, 179.050491, -36.578728)">
    <g>
      <path d="M238.147,102.42c-5.081-6.576-10.335-13.375-15.218-22.93c-4.824-9.446-11.219-42.958-12.754-53.035&#10;&#9;&#9;&#9;c-0.053-0.341-0.181-0.938,0.131-1.313c2.064-2.764,2.941-5.859,2.941-9.509C213.248,7.013,206.84,0,198.965,0h-26.697&#10;&#9;&#9;&#9;c-7.876,0-14.283,7.013-14.283,15.633c0,3.646,0.78,6.6,2.841,9.362c0.263,0.335,0.275,1.122,0.223,1.469&#10;&#9;&#9;&#9;c-1.557,10.232-7.932,43.604-12.746,53.026c-4.882,9.556-10.136,16.355-15.217,22.931c-9.977,12.912-18.593,24.063-18.593,48.56&#10;&#9;&#9;&#9;v169.628c0,22.612,4.284,35.399,14.326,42.756c9.932,7.275,24.726,7.869,41.621,7.869c2.914,0,5.96-0.021,9.146-0.043&#10;&#9;&#9;&#9;c1.965-0.015,3.983-0.028,6.005-0.038c2.071,0.01,4.089,0.023,6.056,0.038c3.186,0.021,6.232,0.043,9.146,0.043&#10;&#9;&#9;&#9;c16.897,0,31.693-0.593,41.624-7.867c10.04-7.355,14.323-20.144,14.323-42.757V150.98&#10;&#9;&#9;&#9;C256.741,126.484,248.125,115.332,238.147,102.42z M245.741,320.609c0,18.456-3.03,28.905-9.824,33.884&#10;&#9;&#9;&#9;c-6.587,4.826-17.426,5.741-35.123,5.741c-2.889,0-5.911-0.021-9.069-0.043c-1.975-0.015-4-0.028-6.132-0.038&#10;&#9;&#9;&#9;c-2.082,0.01-4.109,0.023-6.083,0.038c-3.158,0.021-6.179,0.043-9.068,0.043c-33.397,0-44.947-1.919-44.947-39.625V150.98&#10;&#9;&#9;&#9;c0-20.742,6.836-29.589,16.298-41.834c5.137-6.649,10.96-14.185,16.308-24.651c6.225-12.185,14.052-54.78,14.292-60.441&#10;&#9;&#9;&#9;c0,0,0.146-1.942-0.146-2.598c-0.25-0.563-1.678-1.913-1.678-1.913c-0.991-0.884-1.582-2.346-1.582-3.91&#10;&#9;&#9;&#9;c0-2.468,1.534-4.633,3.283-4.633h26.698c1.747,0,3.281,2.165,3.281,4.633c0,1.564-0.592,3.025-1.582,3.909&#10;&#9;&#9;&#9;c0,0-1.387,1.196-1.641,1.788s-0.195,2.502-0.195,2.502c0.003,0.076,0.007,0.149,0.012,0.225&#10;&#9;&#9;&#9;c0.244,5.678,8.068,48.253,14.293,60.438c5.348,10.467,11.172,18.002,16.309,24.651c9.462,12.245,16.298,21.093,16.298,41.834&#10;&#9;&#9;&#9;V320.609z" style="fill: rgb(255, 255, 255);"/>
      <path d="M136.494,185.617V313.98c0,35.675,14.809,33.879,49.123,33.719c34.316,0.16,49.125,1.956,49.125-33.719V185.617&#10;&#9;&#9;&#9;c0,0,0-2-3.667-2c-22.583,0-68.896,0-91.479,0C136.866,183.617,136.494,185.617,136.494,185.617z" style="fill: rgb(255, 255, 255);"/>
    </g>
  </g>
</svg>