<svg xmlns="http://www.w3.org/2000/svg" width="128" height="128" fill="none"><path fill="#D91404" fill-rule="evenodd" d="m35.084 111.372 84.552 11.262-28.59-46.449zm92.55-86.953c-2.498 3.66-5.001 7.317-7.495 10.979A67327 67327 0 0 0 94.448 73.13c-.477.7-1.095 1.256-.423 2.337 8.269 13.324 16.474 26.687 24.699 40.039 1.298 2.109 2.611 4.21 4.289 6.233L128 24.522zM14.741 65.964c.387.358 1.353.566 1.803.35 7.932-3.804 15.915-7.524 23.674-11.64 2.53-1.343 4.476-3.748 6.656-5.7 7.218-6.459 14.426-12.931 21.63-19.404.44-.398.962-.783 1.225-1.284 2.588-4.934 5.13-9.894 7.763-14.996-3.139-1.152-6.115-2.278-9.129-3.303-.408-.139-1.052.137-1.495.378-6.974 3.802-14.08 7.401-20.834 11.547-3.378 2.075-6.13 5.132-9.123 7.794-4.821 4.295-9.637 8.599-14.389 12.967a24.3 24.3 0 0 0-3.392 3.88c-3.25 4.617-6.402 9.3-9.7 14.118 1.843 1.859 3.518 3.636 5.311 5.293m28.992-6.312L31.81 108.797 87.83 73.579zm79.056-35.076-47.61 7.76 16.157 38.348zM44.395 56.325l43.218 13.69c-5.416-12.875-10.647-25.3-15.986-37.986zM15.339 75.449.213 110.73l28.808-.831zm14.023 26.269.357-.077c3.459-14.033 6.968-27.97 10.499-42.55L17.106 70.81c3.94 9.991 8.14 20.532 12.256 30.907M116.977 22.3c-4.6-1.189-9.2-2.382-13.803-3.562-6.615-1.698-13.235-3.374-19.845-5.086-.827-.214-1.424-.354-1.91.617-2.337 4.67-4.746 9.306-7.12 13.96-.073.144-.057.33-.114.691l42.783-6.326zM90.289 11.676l37.493 10.12-6.195-17.222-31.243 6.759zM32.54 114.067c-4.643-.523-9.41-.043-14.12.037-3.869.063-7.737.207-11.606.325-.398.012-.795.091-1.193.509q47.977 4.327 95.951 8.657l.065-.417-30.758-4.097c-12.776-1.702-25.53-3.574-38.339-5.014M.845 99.961C4.966 90.63 9.07 81.293 13.208 71.97c.414-.936.382-1.57-.428-2.324-1.731-1.607-3.34-3.34-5.231-5.26C4.99 76.705 2.497 88.72 0 100.736l.28.128c.19-.299.424-.582.565-.903M82.077 9.213c6.95-1.75 14.002-3.117 21.012-4.643.454-.1.897-.246 1.344-.37l-.069-.335-30.118 3.954c2.828 1.205 5.006 2.105 7.831 1.394" clip-rule="evenodd"/></svg>