<svg xmlns="http://www.w3.org/2000/svg" xmlns:xlink="http://www.w3.org/1999/xlink" width="100" height="100" fill="none"><linearGradient id="a"><stop offset=".18" stop-color="#0052cc"/><stop offset="1" stop-color="#2684ff"/></linearGradient><linearGradient xlink:href="#a" id="b" x1="47.736" x2="27.087" y1="20.235" y2="40.885" gradientUnits="userSpaceOnUse"/><linearGradient xlink:href="#a" id="c" x1="1416.82" x2="2098.99" y1="3129.77" y2="2687.25" gradientUnits="userSpaceOnUse"/><path fill="#2684ff" d="M97.592 47.132 54.494 4.147 50.35 0l-32.37 32.37L3.161 47.132a3.95 3.95 0 0 0 0 5.598L32.768 82.39 50.348 100l32.44-32.398.498-.498 14.306-14.319a3.95 3.95 0 0 0 0-5.653m-47.243 17.65-14.79-14.789 14.79-14.79 14.79 14.79z"/><path fill="url(#b)" d="M50.349 35.204a24.88 24.88 0 0 1 0-35.066L17.923 32.44l17.609 17.61z"/><path fill="url(#c)" d="M65.207 49.896 50.349 64.782a24.88 24.88 0 0 1 0 35.218l32.48-32.44z"/></svg>