<svg xmlns="http://www.w3.org/2000/svg" xmlns:xlink="http://www.w3.org/1999/xlink" width="100" height="100" fill="none"><linearGradient id="a"><stop offset=".18" stop-color="#0052cc"/><stop offset="1" stop-color="#2684ff"/></linearGradient><linearGradient xlink:href="#a" id="c" x1="95.037" x2="71.873" y1="104.185" y2="51.044" gradientUnits="userSpaceOnUse"/><linearGradient xlink:href="#a" id="e" x1="6770.46" x2="6500.78" y1="-77645.6" y2="-78879.7" gradientUnits="userSpaceOnUse"/><clipPath id="b"><path d="M0 0h100v100H0z"/></clipPath><g clip-path="url(#b)"><path fill="url(#c)" d="M3.626 75.353C2.592 77.04 1.431 78.997.444 80.556a3.18 3.18 0 0 0 1.066 4.328l20.685 12.73a3.18 3.18 0 0 0 4.407-1.083c.828-1.384 1.894-3.182 3.055-5.107 8.195-13.525 16.437-11.87 31.298-4.774l20.51 9.754a3.18 3.18 0 0 0 4.28-1.591l9.849-22.276a3.18 3.18 0 0 0-1.591-4.169 2500 2500 0 0 1-20.685-9.833C45.441 44.995 21.75 45.869 3.626 75.353"/><path fill="url(#e)" d="M96.374 24.803c1.034-1.687 2.196-3.644 3.182-5.203a3.18 3.18 0 0 0-1.066-4.328L77.805 2.542a3.18 3.18 0 0 0-4.535 1.051c-.827 1.384-1.893 3.182-3.055 5.108-8.194 13.524-16.436 11.87-31.297 4.773L18.472 3.768a3.18 3.18 0 0 0-4.28 1.591l-9.85 22.276a3.18 3.18 0 0 0 1.592 4.169 2496 2496 0 0 1 20.684 9.833c27.94 13.525 51.633 12.618 69.756-16.834"/></g></svg>