<svg xmlns="http://www.w3.org/2000/svg" width="100" height="100" fill="none"><g clip-path="url(#a)"><g clip-path="url(#b)"><path fill="#0066DA" d="m6.913 82.125 4.441 7.67c.923 1.615 2.25 2.884 3.807 3.807L31.02 66.15H-.7c0 1.788.461 3.576 1.384 5.19l6.23 10.786z"/><path fill="#00AC47" d="M49.65 33.851 33.79 6.398c-1.558.923-2.884 2.192-3.807 3.806L.684 60.959A10.45 10.45 0 0 0-.7 66.148h31.721z"/><path fill="#EA4335" d="M84.14 93.602c1.557-.923 2.883-2.192 3.806-3.806l1.846-3.173 8.824-15.283A10.45 10.45 0 0 0 100 66.149H68.277l6.75 13.265 9.112 14.188z"/><path fill="#00832D" d="M49.65 33.851 65.51 6.398c-1.557-.923-3.345-1.384-5.19-1.384H38.98c-1.845 0-3.633.519-5.19 1.384z"/><path fill="#2684FC" d="M68.279 66.149H31.02L15.16 93.602c1.557.923 3.345 1.384 5.19 1.384h58.6c1.845 0 3.633-.519 5.19-1.384L68.28 66.15z"/><path fill="#FFBA00" d="M83.966 35.581 69.317 10.204c-.923-1.614-2.25-2.883-3.806-3.806L49.65 33.85l18.629 32.3h31.663a10.45 10.45 0 0 0-1.384-5.19L83.966 35.58z"/></g></g><defs><clipPath id="a"><path fill="#fff" d="M0 0h100v100H0z"/></clipPath><clipPath id="b"><path fill="#fff" d="M-.7 5.014H100v89.972H-.7z"/></clipPath></defs></svg>