<svg xmlns="http://www.w3.org/2000/svg" width="100" height="100" fill="none"><g fill-rule="evenodd" clip-rule="evenodd"><path fill="#00a1e0" d="M41.613 22.634c3.227-3.36 7.716-5.445 12.683-5.445 6.6 0 12.36 3.681 15.427 9.146a21.3 21.3 0 0 1 8.719-1.853c11.906 0 21.558 9.736 21.558 21.747s-9.652 21.747-21.558 21.747c-1.426 0-2.849-.141-4.247-.423-2.7 4.818-7.848 8.073-13.754 8.073-2.473 0-4.812-.571-6.895-1.588-2.738 6.441-9.117 10.957-16.552 10.957-7.742 0-14.34-4.9-16.873-11.77a16.5 16.5 0 0 1-3.43.358C7.473 73.583 0 66.033 0 56.718A16.89 16.89 0 0 1 8.347 42.11a19.3 19.3 0 0 1-1.599-7.714C6.747 23.684 15.444 15 26.171 15c6.298 0 11.895 2.994 15.443 7.634"/><g fill="#fff"><path d="M14.484 51.298c-.063.163.023.198.043.226.188.137.378.235.57.344 1.022.542 1.984.7 2.99.7 2.053 0 3.326-1.091 3.326-2.848v-.034c0-1.624-1.437-2.213-2.787-2.64l-.175-.057c-1.017-.33-1.894-.614-1.894-1.284v-.036c0-.573.513-.994 1.308-.994.883 0 1.932.293 2.606.667 0 0 .199.128.27-.064.04-.103.383-1.024.418-1.123.039-.109-.03-.188-.1-.23-.77-.47-1.836-.79-2.938-.79l-.205.001c-1.877 0-3.189 1.134-3.189 2.76v.034c0 1.714 1.447 2.27 2.801 2.657l.219.067c.987.303 1.836.564 1.836 1.26v.033c0 .635-.552 1.109-1.443 1.109a4.85 4.85 0 0 1-2.643-.761c-.144-.084-.228-.145-.34-.212-.057-.037-.204-.102-.268.092zm30.03 0c-.063.163.023.198.043.226.187.137.379.235.57.344 1.022.542 1.984.7 2.991.7 2.052 0 3.324-1.091 3.324-2.848v-.034c0-1.624-1.436-2.213-2.785-2.64l-.176-.057c-1.017-.33-1.895-.614-1.895-1.284v-.036c0-.573.514-.994 1.309-.994.883 0 1.932.293 2.607.667 0 0 .198.128.27-.064.04-.103.382-1.024.417-1.123.04-.109-.03-.188-.1-.23-.77-.47-1.836-.79-2.938-.79l-.205.001c-1.878 0-3.188 1.134-3.188 2.76v.034c0 1.714 1.446 2.27 2.8 2.657l.219.067c.987.303 1.839.564 1.839 1.26v.033c0 .635-.555 1.109-1.447 1.109a4.85 4.85 0 0 1-2.643-.761c-.143-.084-.228-.142-.337-.212-.037-.024-.21-.092-.27.092zm20.5-3.44c0 .992-.185 1.774-.55 2.327-.36.546-.905.814-1.666.814s-1.305-.266-1.66-.814c-.358-.551-.54-1.335-.54-2.328 0-.99.182-1.772.54-2.32.355-.54.899-.804 1.66-.804s1.307.263 1.668.805c.363.547.549 1.327.549 2.32m1.712-1.842a4.1 4.1 0 0 0-.778-1.486 3.8 3.8 0 0 0-1.315-1.001c-.522-.244-1.141-.367-1.835-.367s-1.313.123-1.836.368c-.524.244-.966.58-1.316 1-.347.418-.61.92-.78 1.486a6.5 6.5 0 0 0-.25 1.841c0 .657.084 1.277.25 1.84.17.568.43 1.07.781 1.488.35.418.792.753 1.315.99.524.239 1.142.36 1.836.36s1.312-.12 1.835-.36a3.7 3.7 0 0 0 1.315-.99c.349-.418.61-.92.78-1.488a6.5 6.5 0 0 0 .252-1.84c0-.655-.084-1.275-.253-1.84zm14.062 4.717c-.057-.167-.218-.104-.218-.104q-.386.156-.796.228-.43.066-.939.066c-.829 0-1.488-.246-1.959-.732-.472-.488-.738-1.276-.735-2.34.003-.972.236-1.7.657-2.256.417-.553 1.053-.836 1.9-.836.707 0 1.245.08 1.81.26 0 0 .135.057.199-.12.15-.415.26-.713.42-1.171.045-.13-.066-.184-.106-.2a6.7 6.7 0 0 0-1.14-.288 8.6 8.6 0 0 0-1.287-.087c-.719 0-1.36.122-1.908.368-.527.229-.998.57-1.38.999-.367.418-.646.92-.832 1.486a5.9 5.9 0 0 0-.28 1.844c0 1.42.384 2.568 1.14 3.409.757.843 1.895 1.271 3.38 1.271.878 0 1.778-.177 2.424-.432 0 0 .125-.06.07-.204zm2.996-3.827c.08-.551.233-1.01.469-1.367.354-.544.896-.841 1.656-.841.761 0 1.264.3 1.624.84.24.358.343.837.384 1.368zm5.765-1.212a3.6 3.6 0 0 0-.743-1.356q-.558-.604-1.099-.84a4.2 4.2 0 0 0-1.661-.336c-.723 0-1.38.12-1.913.372-.534.25-.983.592-1.335 1.019-.352.424-.616.93-.785 1.504a6.5 6.5 0 0 0-.255 1.85c0 .668.088 1.292.263 1.851.177.564.46 1.061.841 1.473.38.414.871.74 1.458.966.582.225 1.29.341 2.104.34 1.674-.006 2.554-.38 2.918-.58.064-.036.126-.098.049-.278l-.38-1.06c-.056-.16-.218-.101-.218-.101-.414.154-1.004.43-2.378.427-.9 0-1.566-.266-1.982-.68-.43-.425-.639-1.048-.676-1.93l5.796.007s.152-.003.168-.15c.006-.063.2-1.192-.172-2.498m-52.185 1.212c.082-.551.233-1.01.468-1.367.355-.544.896-.841 1.657-.841s1.263.3 1.626.84c.237.358.341.837.382 1.368h-4.134zm5.763-1.212a3.6 3.6 0 0 0-.74-1.356q-.559-.604-1.1-.84a4.2 4.2 0 0 0-1.662-.336c-.72 0-1.38.12-1.912.372a3.8 3.8 0 0 0-1.335 1.019 4.2 4.2 0 0 0-.785 1.504 6.6 6.6 0 0 0-.255 1.85c0 .668.089 1.292.264 1.851.176.564.458 1.061.84 1.473.381.414.87.74 1.457.966.583.225 1.292.341 2.105.34 1.673-.006 2.555-.38 2.918-.58.065-.036.126-.098.049-.278l-.378-1.06c-.059-.16-.22-.101-.22-.101-.413.154-1.002.43-2.38.427-.897 0-1.564-.266-1.982-.68-.428-.425-.637-1.048-.674-1.93l5.796.007s.152-.003.168-.15c.006-.063.2-1.192-.174-2.498M24.836 50.7c-.227-.18-.258-.226-.336-.343-.114-.178-.172-.432-.172-.754 0-.51.167-.876.517-1.122-.004 0 .498-.435 1.682-.419.83.011 1.571.134 1.571.134v2.635h.002s-.737.158-1.565.209c-1.18.07-1.704-.34-1.7-.34zm2.305-4.072a13 13 0 0 0-.905-.027c-.496 0-.977.062-1.426.183-.454.121-.861.31-1.212.56-.35.25-.637.578-.84.958-.206.381-.309.83-.309 1.335 0 .514.088.959.265 1.323q.267.552.756.906c.323.236.72.408 1.182.512.454.104.97.157 1.533.157.595 0 1.187-.049 1.762-.147q.732-.126 1.46-.281c.192-.046.405-.104.405-.104.144-.036.133-.19.133-.19l-.003-5.301c0-1.161-.31-2.024-.922-2.558-.609-.533-1.504-.803-2.663-.803-.434 0-1.133.06-1.551.144 0 0-1.268.246-1.79.653 0 0-.112.071-.05.23l.41 1.104c.051.142.19.094.19.094s.044-.017.096-.047c1.115-.607 2.525-.59 2.525-.59.627 0 1.108.126 1.433.375.316.243.477.609.477 1.382v.244c-.498-.071-.956-.112-.956-.112m46.75-2.987a.157.157 0 0 0-.087-.208 5 5 0 0 0-.971-.167c-.728-.044-1.132.078-1.495.24-.358.164-.758.425-.98.723v-.705c0-.098-.07-.176-.166-.176h-1.487c-.096 0-.166.078-.166.176v8.646c0 .096.08.176.176.176h1.524c.096 0 .175-.08.175-.176v-4.32c0-.58.064-1.158.192-1.521.126-.359.297-.647.507-.853a1.8 1.8 0 0 1 .717-.43 2.8 2.8 0 0 1 .777-.11c.304 0 .637.078.637.078.111.013.174-.056.21-.157.1-.264.383-1.058.437-1.216"/><path d="M59.597 39.636a5 5 0 0 0-.573-.138 4.5 4.5 0 0 0-.787-.06c-1.048 0-1.874.297-2.455.881-.577.58-.968 1.466-1.165 2.629l-.07.392h-1.318s-.159-.006-.193.169l-.215 1.206c-.016.114.034.186.188.186h1.282l-1.3 7.254a9 9 0 0 1-.348 1.43c-.127.357-.25.627-.405.824-.148.187-.288.327-.53.408q-.302.1-.682.098a2.6 2.6 0 0 1-.464-.05 1.4 1.4 0 0 1-.314-.102s-.15-.057-.21.092l-.43 1.179c-.04.116.018.205.09.232.17.06.298.1.53.155.323.076.594.08.85.08.532 0 1.02-.075 1.423-.22.404-.147.757-.402 1.07-.747.338-.373.551-.764.753-1.298.2-.527.373-1.181.51-1.945l1.306-7.39h1.908s.162.006.195-.17l.216-1.204c.015-.115-.034-.187-.19-.187h-1.852c.01-.042.094-.693.306-1.308.09-.26.261-.472.405-.618q.216-.215.486-.302.277-.089.623-.088c.174 0 .346.02.476.047.18.038.25.058.296.072.19.057.215.002.252-.09l.443-1.216c.046-.13-.067-.186-.107-.202zM33.703 52.17c0 .097-.07.175-.166.175h-1.538c-.096 0-.165-.078-.165-.175V39.8c0-.097.07-.175.165-.175h1.538c.097 0 .166.078.166.175z"/></g></g></svg>