<svg width="120" height="120" viewBox="0 0 120 120" fill="none" xmlns="http://www.w3.org/2000/svg">
<mask id="mask0_4441_22434" style="mask-type:luminance" maskUnits="userSpaceOnUse" x="0" y="9" width="119" height="103">
<path d="M119 9H0V111.289H119V9Z" fill="white"/>
</mask>
<g mask="url(#mask0_4441_22434)">
<path d="M98.9848 9.5607H17.8525C14.7724 9.5607 12.2755 12.0576 12.2755 15.1377V90.1723C12.2755 93.2524 14.7724 95.7493 17.8525 95.7493H98.9848C102.065 95.7493 104.562 93.2524 104.562 90.1723V15.1377C104.562 12.0576 102.065 9.5607 98.9848 9.5607Z" fill="#153385" stroke="#101C3F" stroke-miterlimit="10"/>
<path d="M101.668 9.50064H20.5358C17.4557 9.50064 14.9588 11.9976 14.9588 15.0777V90.1122C14.9588 93.1924 17.4557 95.6893 20.5358 95.6893H101.668C104.748 95.6893 107.245 93.1924 107.245 90.1122V15.0777C107.245 11.9976 104.748 9.50064 101.668 9.50064Z" fill="#0B64DD"/>
<path d="M101.668 9.50064H20.5358C17.4557 9.50064 14.9588 11.9976 14.9588 15.0777V90.1122C14.9588 93.1924 17.4557 95.6893 20.5358 95.6893H101.668C104.748 95.6893 107.245 93.1924 107.245 90.1122V15.0777C107.245 11.9976 104.748 9.50064 101.668 9.50064Z" stroke="#101C3F" stroke-miterlimit="10"/>
<path d="M15.029 24.9801H107.065" stroke="#101C3F" stroke-miterlimit="10"/>
<path d="M35.4146 15.9388H24.7212C23.6428 15.9388 22.7687 16.8129 22.7687 17.8912V18.1816C22.7687 19.2599 23.6428 20.134 24.7212 20.134H35.4146C36.4929 20.134 37.3671 19.2599 37.3671 18.1816V17.8912C37.3671 16.8129 36.4929 15.9388 35.4146 15.9388Z" fill="white"/>
<path d="M111.13 42.0817H7.8699C3.79995 42.0817 0.50061 45.3811 0.50061 49.451V65.2709C0.50061 69.3409 3.79995 72.6402 7.8699 72.6402H111.13C115.2 72.6402 118.499 69.3409 118.499 65.2709V49.451C118.499 45.3811 115.2 42.0817 111.13 42.0817Z" fill="#153385" stroke="#101C3F" stroke-miterlimit="10"/>
<path d="M111.13 38.8576H7.8699C3.79995 38.8576 0.50061 42.157 0.50061 46.2269V62.0469C0.50061 66.1168 3.79995 69.4162 7.8699 69.4162H111.13C115.2 69.4162 118.499 66.1168 118.499 62.0469V46.2269C118.499 42.157 115.2 38.8576 111.13 38.8576Z" fill="white" stroke="#101C3F" stroke-miterlimit="10"/>
<path d="M53.3573 48.3296C61.3274 45.3959 68.7267 48.5298 72.7418 54.1169C60.7266 44.3245 41.983 55.8791 43.8353 70.898C44.1357 73.3511 44.9968 75.5939 46.2684 77.5364C43.4949 75.1834 41.5424 71.7491 41.1019 67.2034C40.3109 58.993 45.7177 51.1331 53.3573 48.3196V48.3296Z" fill="#101C3F" stroke="#101C3F" stroke-miterlimit="10"/>
<path d="M35.4547 68.7053C36.9766 80.9607 48.7915 88.9408 60.7166 87.0384C80.3814 83.9144 90.5642 56.0393 71.4601 44.6349C54.9293 34.7625 33.1719 49.9917 35.4547 68.7053ZM70.549 51.1832C82.9846 62.0068 72.2111 81.942 57.062 81.6716C49.0719 81.5314 42.1331 75.664 41.1519 67.6439C39.2796 52.4147 58.5338 40.72 70.549 51.1732V51.1832Z" fill="#48EFCF" stroke="#101C3F" stroke-miterlimit="10"/>
<path d="M60.7166 87.0384C76.0059 84.6053 85.5479 67.2334 80.081 54.2571C84.7369 60.6451 86.0285 69.4662 81.1223 77.9669C72.3713 93.1361 48.8717 94.4577 40.7615 80.1497C45.6376 85.4664 53.1471 88.2399 60.7166 87.0384Z" fill="#153385" stroke="#101C3F" stroke-miterlimit="10"/>
<path d="M91.5327 109.928L91.9922 109.573C93.7686 108.2 94.0957 105.647 92.7227 103.87L77.452 84.1124C76.079 82.336 73.526 82.0089 71.7496 83.3819L71.2901 83.737C69.5138 85.11 69.1867 87.663 70.5597 89.4394L85.8304 109.197C87.2033 110.974 89.7564 111.301 91.5327 109.928Z" fill="#153385" stroke="#101C3F" stroke-miterlimit="10"/>
<path d="M92.7435 108.996L93.2031 108.641C94.9795 107.268 95.3065 104.715 93.9336 102.939L78.6628 83.1809C77.2899 81.4045 74.7369 81.0774 72.9605 82.4504L72.501 82.8055C70.7246 84.1784 70.3976 86.7315 71.7705 88.5079L87.0411 108.266C88.4141 110.042 90.9671 110.369 92.7435 108.996Z" fill="#48EFCF" stroke="#101C3F" stroke-miterlimit="10"/>
<path d="M12.2755 44.0242V64.49" stroke="#101C3F" stroke-miterlimit="10"/>
</g>
</svg>
