<svg width="120" height="120" viewBox="0 0 120 120" fill="none" xmlns="http://www.w3.org/2000/svg">
<mask id="mask0_4441_22436" style="mask-type:luminance" maskUnits="userSpaceOnUse" x="2" y="7" width="117" height="107">
<path d="M118.999 7H2V113.112H118.999V7Z" fill="white"/>
</mask>
<g mask="url(#mask0_4441_22436)">
<path d="M102.759 14.0649H13.5479C11.7407 14.0649 10.2756 15.5299 10.2756 17.3371V41.0734C10.2756 42.8806 11.7407 44.3456 13.5479 44.3456H102.759C104.566 44.3456 106.031 42.8806 106.031 41.0734V17.3371C106.031 15.5299 104.566 14.0649 102.759 14.0649Z" fill="#101C3F"/>
<mask id="mask1_4441_22436" style="mask-type:luminance" maskUnits="userSpaceOnUse" x="10" y="14" width="97" height="31">
<path d="M102.759 14.0649H13.5479C11.7407 14.0649 10.2756 15.5299 10.2756 17.3371V41.0734C10.2756 42.8806 11.7407 44.3456 13.5479 44.3456H102.759C104.566 44.3456 106.031 42.8806 106.031 41.0734V17.3371C106.031 15.5299 104.566 14.0649 102.759 14.0649Z" fill="white"/>
</mask>
<g mask="url(#mask1_4441_22436)">
<path d="M44.469 7.65048H3.07071V49.0488H44.469V7.65048Z" fill="#101C3F"/>
</g>
<path d="M102.759 14.0649H13.5479C11.7407 14.0649 10.2756 15.5299 10.2756 17.3371V41.0734C10.2756 42.8806 11.7407 44.3456 13.5479 44.3456H102.759C104.566 44.3456 106.031 42.8806 106.031 41.0734V17.3371C106.031 15.5299 104.566 14.0649 102.759 14.0649Z" stroke="#101C3F" stroke-width="1.19" stroke-miterlimit="10"/>
<path d="M102.759 54.9328H13.5479C11.7407 54.9328 10.2756 56.3978 10.2756 58.205V81.9413C10.2756 83.7485 11.7407 85.2135 13.5479 85.2135H102.759C104.566 85.2135 106.031 83.7485 106.031 81.9413V58.205C106.031 56.3978 104.566 54.9328 102.759 54.9328Z" fill="#101C3F"/>
<mask id="mask2_4441_22436" style="mask-type:luminance" maskUnits="userSpaceOnUse" x="10" y="54" width="97" height="32">
<path d="M102.759 54.9328H13.5479C11.7407 54.9328 10.2756 56.3978 10.2756 58.205V81.9413C10.2756 83.7485 11.7407 85.2135 13.5479 85.2135H102.759C104.566 85.2135 106.031 83.7485 106.031 81.9413V58.205C106.031 56.3978 104.566 54.9328 102.759 54.9328Z" fill="white"/>
</mask>
<g mask="url(#mask2_4441_22436)">
<path d="M44.469 48.5184H3.07071V89.9167H44.469V48.5184Z" fill="#101C3F"/>
</g>
<path d="M102.759 54.9328H13.5479C11.7407 54.9328 10.2756 56.3978 10.2756 58.205V81.9413C10.2756 83.7485 11.7407 85.2135 13.5479 85.2135H102.759C104.566 85.2135 106.031 83.7485 106.031 81.9413V58.205C106.031 56.3978 104.566 54.9328 102.759 54.9328Z" stroke="#101C3F" stroke-width="1.19" stroke-miterlimit="10"/>
<path d="M101.688 54.2222H12.4772C10.67 54.2222 9.20493 55.6873 9.20493 57.4945V81.2307C9.20493 83.0379 10.67 84.5029 12.4772 84.5029H101.688C103.495 84.5029 104.96 83.0379 104.96 81.2307V57.4945C104.96 55.6873 103.495 54.2222 101.688 54.2222Z" fill="white"/>
<mask id="mask3_4441_22436" style="mask-type:luminance" maskUnits="userSpaceOnUse" x="9" y="54" width="96" height="31">
<path d="M101.688 54.2222H12.4772C10.67 54.2222 9.20493 55.6873 9.20493 57.4945V81.2307C9.20493 83.0379 10.67 84.5029 12.4772 84.5029H101.688C103.495 84.5029 104.96 83.0379 104.96 81.2307V57.4945C104.96 55.6873 103.495 54.2222 101.688 54.2222Z" fill="white"/>
</mask>
<g mask="url(#mask3_4441_22436)">
<path d="M43.3983 47.8078H2V89.2061H43.3983V47.8078Z" fill="#0B64DD"/>
</g>
<path d="M101.688 54.2222H12.4772C10.67 54.2222 9.20493 55.6873 9.20493 57.4945V81.2307C9.20493 83.0379 10.67 84.5029 12.4772 84.5029H101.688C103.495 84.5029 104.96 83.0379 104.96 81.2307V57.4945C104.96 55.6873 103.495 54.2222 101.688 54.2222Z" stroke="#101C3F" stroke-width="1.19" stroke-miterlimit="10"/>
<path d="M50.4832 61.3972H92.5219" stroke="#101C3F" stroke-width="0.9" stroke-linecap="round" stroke-linejoin="round"/>
<path d="M50.4832 69.3626H86.5378" stroke="#101C3F" stroke-width="0.9" stroke-linecap="round" stroke-linejoin="round"/>
<path d="M50.4832 77.6182H74.0893" stroke="#101C3F" stroke-width="0.9" stroke-linecap="round" stroke-linejoin="round"/>
<path d="M101.688 13.4144H12.4772C10.67 13.4144 9.20493 14.8795 9.20493 16.6867V40.4229C9.20493 42.2301 10.67 43.6951 12.4772 43.6951H101.688C103.495 43.6951 104.96 42.2301 104.96 40.4229V16.6867C104.96 14.8795 103.495 13.4144 101.688 13.4144Z" fill="white"/>
<mask id="mask4_4441_22436" style="mask-type:luminance" maskUnits="userSpaceOnUse" x="9" y="13" width="96" height="31">
<path d="M101.688 13.4144H12.4772C10.67 13.4144 9.20493 14.8795 9.20493 16.6867V40.4229C9.20493 42.2301 10.67 43.6951 12.4772 43.6951H101.688C103.495 43.6951 104.96 42.2301 104.96 40.4229V16.6867C104.96 14.8795 103.495 13.4144 101.688 13.4144Z" fill="white"/>
</mask>
<g mask="url(#mask4_4441_22436)">
<path d="M43.3983 7H2V48.3983H43.3983V7Z" fill="#0B64DD"/>
</g>
<path d="M101.688 13.4144H12.4772C10.67 13.4144 9.20493 14.8795 9.20493 16.6867V40.4229C9.20493 42.2301 10.67 43.6951 12.4772 43.6951H101.688C103.495 43.6951 104.96 42.2301 104.96 40.4229V16.6867C104.96 14.8795 103.495 13.4144 101.688 13.4144Z" stroke="#101C3F" stroke-width="1.19" stroke-miterlimit="10"/>
<path d="M90.7407 88.9161C102.759 88.9161 112.496 79.1594 112.496 67.1312C112.496 55.103 102.759 45.3463 90.7407 45.3463C78.7225 45.3463 68.9858 55.103 68.9858 67.1312C68.9858 79.1594 78.7225 88.9161 90.7407 88.9161Z" fill="#48EFCF" stroke="#101C3F" stroke-width="0.9" stroke-linecap="round" stroke-linejoin="round"/>
<path d="M79.4129 68.2318L88.7693 75.5769L104.06 54.9928" stroke="#101C3F" stroke-width="5.41" stroke-miterlimit="10"/>
<path d="M101.748 50.0094C93.3625 44.7258 84.1562 46.497 78.2121 51.9007C94.3131 43.635 112.896 61.3972 107.132 78.0986C106.191 80.8204 104.66 83.1821 102.739 85.0934C106.481 83.082 109.544 79.6396 111.155 74.5562C114.057 65.3699 109.794 55.0929 101.758 50.0194L101.748 50.0094Z" fill="#101C3F" stroke="#101C3F" stroke-width="0.71" stroke-miterlimit="10"/>
<path d="M81.9747 41.3935C57.3979 49.7693 62.2412 84.0727 83.926 92.4284C97.085 97.4919 112.506 91.2576 117.229 77.6383C124.384 56.8241 103.249 34.1486 81.9747 41.4035V41.3935ZM110.985 75.0365C107.902 83.9526 98.566 88.9661 89.3998 87.1748C72.0379 83.7925 64.5828 58.4152 81.4243 49.0788C97.6854 40.0626 116.829 58.105 110.985 75.0265V75.0365Z" fill="#0B64DD" stroke="#101C3F" stroke-width="0.71" stroke-miterlimit="10"/>
<path d="M83.926 92.4184C67.0645 85.924 60.3899 63.7688 69.7863 50.2796C62.9216 56.4338 59.2992 66.2005 62.8316 77.0979C69.1259 96.5412 95.634 103.776 108.383 89.4164C101.528 94.2997 92.2717 95.6406 83.926 92.4284V92.4184Z" fill="#153385" stroke="#101C3F" stroke-width="0.71" stroke-miterlimit="10"/>
<path d="M72.6837 86.1208L72.1921 85.5405C70.5131 83.5585 67.5453 83.313 65.5634 84.992L43.2607 103.886C41.2788 105.565 41.0332 108.533 42.7123 110.515L43.2038 111.095C44.8829 113.077 47.8506 113.322 49.8325 111.643L72.1352 92.7495C74.1171 91.0704 74.3627 88.1027 72.6837 86.1208Z" fill="#153385" stroke="#101C3F" stroke-width="0.71" stroke-miterlimit="10"/>
<path d="M71.5373 84.7634L71.0457 84.1831C69.3667 82.2012 66.3989 81.9556 64.417 83.6346L42.1143 102.529C40.1324 104.208 39.8868 107.175 41.5658 109.157L42.0574 109.738C43.7364 111.72 46.7042 111.965 48.6861 110.286L70.9888 91.3921C72.9707 89.7131 73.2163 86.7453 71.5373 84.7634Z" fill="#0B64DD" stroke="#101C3F" stroke-width="0.71" stroke-miterlimit="10"/>
<path d="M30.9598 20.5993H21.013L16.0396 29.2051L21.013 37.821H30.9598L35.9232 29.2051L30.9598 20.5993Z" fill="#48EFCF"/>
<path d="M50.4832 20.5993H92.5219" stroke="#101C3F" stroke-width="0.9" stroke-linecap="round" stroke-linejoin="round"/>
<path d="M50.4832 28.5548H86.5378" stroke="#101C3F" stroke-width="0.9" stroke-linecap="round" stroke-linejoin="round"/>
<path d="M50.4832 36.8204H74.0893" stroke="#101C3F" stroke-width="0.9" stroke-linecap="round" stroke-linejoin="round"/>
<path d="M25.9864 78.749C30.778 78.749 34.6623 74.8647 34.6623 70.0731C34.6623 65.2815 30.778 61.3972 25.9864 61.3972C21.1948 61.3972 17.3105 65.2815 17.3105 70.0731C17.3105 74.8647 21.1948 78.749 25.9864 78.749Z" fill="#48EFCF"/>
</g>
</svg>
