<svg width="120" height="120" viewBox="0 0 120 120" fill="none" xmlns="http://www.w3.org/2000/svg">
<g clip-path="url(#clip0_4887_70465)">
<mask id="mask0_4887_70465" style="mask-type:luminance" maskUnits="userSpaceOnUse" x="6" y="8" width="108" height="103">
<path d="M113.941 8H6V111H113.941V8Z" fill="white"/>
</mask>
<g mask="url(#mask0_4887_70465)">
<path d="M10.0135 77.3188H85.7156C87.6537 77.3188 89.2249 75.7476 89.2249 73.8095V12.4975C89.2249 10.5594 87.6537 8.98825 85.7156 8.98825H10.0135C8.07537 8.98825 6.50421 10.5594 6.50421 12.4975V73.8095C6.50421 75.7476 8.07537 77.3188 10.0135 77.3188Z" fill="#153385" stroke="#101C3F" stroke-miterlimit="10"/>
<path d="M88.4787 8.98824H12.7766C10.8385 8.98824 9.26729 10.5594 9.26729 12.4975V73.8095C9.26729 75.7476 10.8385 77.3188 12.7766 77.3188H88.4787C90.4168 77.3188 91.988 75.7476 91.988 73.8095V12.4975C91.988 10.5594 90.4168 8.98824 88.4787 8.98824Z" fill="#0B64DD"/>
<mask id="mask1_4887_70465" style="mask-type:luminance" maskUnits="userSpaceOnUse" x="9" y="8" width="83" height="70">
<path d="M88.4787 8.98824H12.7766C10.8385 8.98824 9.26729 10.5594 9.26729 12.4975V73.8095C9.26729 75.7476 10.8385 77.3188 12.7766 77.3188H88.4787C90.4168 77.3188 91.988 75.7476 91.988 73.8095V12.4975C91.988 10.5594 90.4168 8.98824 88.4787 8.98824Z" fill="white"/>
</mask>
<g mask="url(#mask1_4887_70465)">
<path d="M92.7644 8.50421H8.66223V20.4742H92.7644V8.50421Z" stroke="#101C3F" stroke-miterlimit="10"/>
</g>
<path d="M88.4787 8.98824H12.7766C10.8385 8.98824 9.26729 10.5594 9.26729 12.4975V73.8095C9.26729 75.7476 10.8385 77.3188 12.7766 77.3188H88.4787C90.4168 77.3188 91.988 75.7476 91.988 73.8095V12.4975C91.988 10.5594 90.4168 8.98824 88.4787 8.98824Z" stroke="#101C3F" stroke-miterlimit="10"/>
<path d="M28.6189 20.444V77.3189" stroke="#101C3F" stroke-miterlimit="10"/>
<path d="M12.8573 27.0792H23.8793" stroke="#101C3F" stroke-miterlimit="10"/>
<path d="M12.8573 31.849H23.8793" stroke="#101C3F" stroke-miterlimit="10"/>
<path d="M12.8573 36.6188H23.8793" stroke="#101C3F" stroke-miterlimit="10"/>
<path d="M12.8573 41.3987H20.2288" stroke="#101C3F" stroke-miterlimit="10"/>
<path d="M12.8573 46.1688H20.2288" stroke="#101C3F" stroke-miterlimit="10"/>
<path d="M12.8573 50.9386H20.2288" stroke="#101C3F" stroke-miterlimit="10"/>
<path d="M101.013 64.9656H47.0931C45.155 64.9656 43.5838 66.5368 43.5838 68.4749V106.976C43.5838 108.915 45.155 110.486 47.0931 110.486H101.013C102.951 110.486 104.523 108.915 104.523 106.976V68.4749C104.523 66.5368 102.951 64.9656 101.013 64.9656Z" fill="#153385" stroke="#101C3F" stroke-miterlimit="10"/>
<path d="M103.918 64.9656H49.9974C48.0592 64.9656 46.4881 66.5368 46.4881 68.4749V106.976C46.4881 108.915 48.0592 110.486 49.9974 110.486H103.918C105.856 110.486 107.427 108.915 107.427 106.976V68.4749C107.427 66.5368 105.856 64.9656 103.918 64.9656Z" fill="white" stroke="#101C3F" stroke-miterlimit="10"/>
<path d="M68.2094 104.022H75.2381V93.2014H68.2094V104.022Z" fill="#48EFCF" stroke="#101C3F" stroke-miterlimit="10"/>
<path d="M57.4294 104.032H64.4581V76.8045H57.4294V104.032Z" fill="#48EFCF" stroke="#101C3F" stroke-miterlimit="10"/>
<path d="M78.9995 104.032H86.0282V84.7306H78.9995V104.032Z" fill="#48EFCF" stroke="#101C3F" stroke-miterlimit="10"/>
<path d="M89.7896 104.032H96.8183V78.6902H89.7896V104.032Z" fill="#48EFCF" stroke="#101C3F" stroke-miterlimit="10"/>
<path d="M54.5655 104.032H99.3494" stroke="#101C3F" stroke-miterlimit="10"/>
<path d="M16.5481 17.0151C17.8235 17.0151 18.8574 15.9812 18.8574 14.7059C18.8574 13.4305 17.8235 12.3966 16.5481 12.3966C15.2727 12.3966 14.2388 13.4305 14.2388 14.7059C14.2388 15.9812 15.2727 17.0151 16.5481 17.0151Z" fill="white"/>
<path d="M71.4263 14.7059H80.5021" stroke="white" stroke-miterlimit="10"/>
<path d="M82.8113 14.7059H86.5727" stroke="white" stroke-miterlimit="10"/>
<mask id="mask2_4887_70465" style="mask-type:luminance" maskUnits="userSpaceOnUse" x="29" y="20" width="85" height="61">
<path d="M110.432 20.444H32.6223C30.6841 20.444 29.113 22.0152 29.113 23.9533V77.1575C29.113 79.0957 30.6841 80.6668 32.6223 80.6668H110.432C112.37 80.6668 113.941 79.0957 113.941 77.1575V23.9533C113.941 22.0152 112.37 20.444 110.432 20.444Z" fill="white"/>
</mask>
<g mask="url(#mask2_4887_70465)">
<path d="M101.487 30.2559L88.2064 28.5113L92.2804 33.8056L67.6044 49.426L64.1152 43.5771L44.1284 56.3538L38.7232 48.8713L21.4187 58.5723L24.2221 63.5741L37.0694 56.374L42.646 64.1086L62.2194 51.5941L65.6884 57.4227L95.7796 38.3737L99.3696 43.0427L101.487 30.2559Z" fill="#101C3F"/>
<path d="M101.487 30.256L101.104 27.8055L95.5073 28.3097L96.0116 33.6342L101.487 30.256Z" fill="#101C3F"/>
<path d="M100.56 28.2391L87.2887 26.4844L91.3527 31.7887L66.6766 47.4091L63.1875 41.5603L43.2006 54.337L37.8056 46.8545L20.5011 56.5454L23.2944 61.5472L36.1417 54.3571L41.7283 62.0917L61.2917 49.5772L64.7707 55.4059L94.862 36.3568L98.4418 41.0258L100.56 28.2391Z" fill="#48EFCF" stroke="#101C3F" stroke-miterlimit="10"/>
</g>
</g>
</g>
<defs>
<clipPath id="clip0_4887_70465">
<rect width="108" height="103" fill="white" transform="translate(6 8)"/>
</clipPath>
</defs>
</svg>
