<svg xmlns="http://www.w3.org/2000/svg" width="102" height="100" fill="none"><linearGradient id="a" x1="9.888" x2="43.462" y1="20.999" y2="78.93" gradientUnits="userSpaceOnUse"><stop offset="0" stop-color="#058f92"/><stop offset=".5" stop-color="#038489"/><stop offset="1" stop-color="#026d71"/></linearGradient><path fill="#036c70" d="M52.163 57.022c15.412 0 27.907-12.54 27.907-28.011S67.575 1 52.163 1 24.256 13.541 24.256 29.011 36.75 57.022 52.163 57.022"/><path fill="#1a9ba1" d="M75.419 80.362C89.547 80.362 101 68.866 101 54.685S89.547 29.008 75.419 29.008 49.838 40.504 49.838 54.685s11.453 25.677 25.58 25.677"/><path fill="#37c6d0" d="M55.65 99.037c10.918 0 19.768-8.883 19.768-19.841s-8.85-19.841-19.767-19.841-19.768 8.883-19.768 19.841 8.85 19.841 19.768 19.841"/><g fill="#000"><path d="M56.814 26.28v49.813a4.3 4.3 0 0 1-2.65 3.945 4.1 4.1 0 0 1-1.606.327h-16.65c-.024-.397-.024-.77-.024-1.167q-.012-.586.047-1.167c.425-7.462 5.005-14.045 11.837-17.017v-4.342C32.563 54.254 22.19 39.922 24.6 24.66q.024-.158.052-.317.173-1.182.488-2.334h27.418a4.28 4.28 0 0 1 4.256 4.272" opacity=".1"/><path d="M50.232 24.342H24.651c-2.584 15.234 7.624 29.687 22.802 32.28q.689.118 1.384.201C41.627 60.254 36.374 70 35.927 78.03a10 10 0 0 0-.046 1.167c0 .397 0 .77.023 1.167q.063 1.179.302 2.334H50.23a4.28 4.28 0 0 0 3.93-2.66c.215-.51.325-1.058.326-1.611V28.614a4.28 4.28 0 0 0-4.254-4.272" opacity=".2"/><path d="M50.233 24.342H24.652c-2.584 15.236 7.627 29.689 22.805 32.282q.465.079.934.143c-6.976 3.679-12.023 13.401-12.46 21.263h14.302a4.296 4.296 0 0 0 4.256-4.272V28.614a4.28 4.28 0 0 0-4.256-4.272" opacity=".2"/><path d="M47.907 24.342H24.65c-2.44 14.383 6.54 28.233 20.628 31.82A38.64 38.64 0 0 0 35.93 78.03h11.977a4.28 4.28 0 0 0 4.256-4.272V28.614a4.266 4.266 0 0 0-4.256-4.272" opacity=".2"/></g><path fill="url(#a)" d="M5.263 24.342H47.9a4.27 4.27 0 0 1 4.262 4.279v42.796a4.27 4.27 0 0 1-4.262 4.278H5.263A4.27 4.27 0 0 1 1 71.417V28.62a4.27 4.27 0 0 1 4.263-4.279"/><path fill="#fff" d="M20.04 49.494a7.9 7.9 0 0 1-2.44-2.59 7.07 7.07 0 0 1-.848-3.54 6.83 6.83 0 0 1 1.579-4.587 9.3 9.3 0 0 1 4.2-2.75 17.7 17.7 0 0 1 5.737-.892c2.562-.093 5.12.266 7.558 1.063v5.368a11.8 11.8 0 0 0-3.418-1.4 16.6 16.6 0 0 0-3.998-.481 8.6 8.6 0 0 0-4.11.873 2.7 2.7 0 0 0-1.627 2.479 2.52 2.52 0 0 0 .698 1.755 6.3 6.3 0 0 0 1.86 1.336q1.163.58 3.488 1.545.257.081.498.2a28.7 28.7 0 0 1 4.4 2.178 7.9 7.9 0 0 1 2.6 2.629 7.64 7.64 0 0 1 .93 3.968 7.4 7.4 0 0 1-1.479 4.776 8.27 8.27 0 0 1-3.953 2.67 17.9 17.9 0 0 1-5.637.822 29.7 29.7 0 0 1-5.117-.42 17.5 17.5 0 0 1-4.146-1.223v-5.661A13.3 13.3 0 0 0 21 59.62c1.496.468 3.051.718 4.618.742a7.93 7.93 0 0 0 4.186-.892 2.82 2.82 0 0 0 1.428-2.518 2.7 2.7 0 0 0-.79-1.929 8 8 0 0 0-2.18-1.524q-1.395-.7-4.109-1.846a23.3 23.3 0 0 1-4.114-2.16"/></svg>