<svg xmlns="http://www.w3.org/2000/svg" width="282" height="159" fill="none"><g clip-path="url(#a)"><g opacity=".1"><path fill="#000" fill-rule="evenodd" d="M13.047 22.016c-7.188-7.189-18.843-7.189-26.031 0-7.189 7.188-7.189 18.843 0 26.03 7.188 7.19 18.843 7.19 26.03 0 7.19-7.188 7.19-18.842 0-26.03zM-7.37 42.432c-4.087-4.087-4.087-10.714 0-14.802 4.088-4.087 10.715-4.087 14.802 0 4.088 4.088 4.088 10.715 0 14.802-4.087 4.088-10.714 4.088-14.802 0" clip-rule="evenodd"/><path fill="#fff" d="M7.432 27.63c4.034 4.034 4.087 10.54.16 14.64l-.16.162 5.615 5.615c7.116-7.117 7.188-18.61.213-25.814l-.213-.217z"/></g><path fill="#000" fill-rule="evenodd" d="M254.5 111.002h-9v10.5H234v9h11.5v11.5h9v-11.5H266v-9h-11.5z" clip-rule="evenodd" opacity=".1"/></g><defs><clipPath id="a"><path fill="#fff" d="M0 0h282v158.002H0z"/></clipPath></defs></svg>