<svg xmlns="http://www.w3.org/2000/svg" width="282" height="159" fill="none"><g clip-path="url(#a)"><g opacity=".1"><mask id="b" width="131" height="178" x="-54" y="-53" maskUnits="userSpaceOnUse"><path fill="#fff" d="M-54-53H77v177.093H-54z"/></mask><g fill-rule="evenodd" clip-rule="evenodd" mask="url(#b)"><path fill="#000" d="M-217.993-76.468a50 50 0 0 1 22.175-41.542l97.496-65.304a50 50 0 0 1 55.65 0l97.497 65.304a50 50 0 0 1 22.174 41.542v31.896A50 50 0 0 1 54.825-3.029l-97.496 65.303a50 50 0 0 1-55.651 0L-195.818-3.03a50 50 0 0 1-22.175-41.542z"/><path fill="#fff" d="M40.125-70.113h9.704V49.376h-9.702zM15.867-33.861h9.704V80.426h-9.702z"/></g></g><g opacity=".1"><mask id="c" width="239" height="240" x="98" y="39" maskUnits="userSpaceOnUse"><path fill="#fff" d="M98 39.002h239v239H98z"/></mask><g fill-rule="evenodd" clip-rule="evenodd" mask="url(#c)"><path fill="#000" d="M265.062 126.955c-92.266 0-167.061 74.902-167.061 167.3 0 92.397 74.795 167.3 167.061 167.3 92.265 0 167.061-74.903 167.061-167.3s-74.796-167.3-167.061-167.3"/><path fill="#fff" d="M240.445 134.6h-9.56v9.56h9.56zm0-23.898h-9.56v9.56h9.56zM265.78 134.6h-9.56v9.56h9.56zm0-23.898h-9.56v9.56h9.56zm0-23.901h-9.56v9.56h9.56z"/></g></g></g><defs><clipPath id="a"><path fill="#fff" d="M0 0h282v158.002H0z"/></clipPath></defs></svg>