<svg xmlns="http://www.w3.org/2000/svg" viewBox="0 0 250 250"><g fill="none" fill-rule="evenodd"><path fill="#961D59" d="M121.452 145.097c-11.613 0-20.646-9.032-20.646-20.645s9.033-20.646 20.646-20.646c11.613 0 20.645 9.033 20.645 20.646 0 11.613-9.032 20.645-20.645 20.645"/><path fill="#D62783" d="M161.774 134.13c-5.16 0-9.677-4.195-9.677-9.678 0-5.162 4.193-9.678 9.677-9.678 5.16 0 9.678 4.194 9.678 9.678 0 5.483-4.517 9.677-9.678 9.677m34.84 9.03c-1.29 5.16-6.453 8.06-11.614 6.77-5.16-1.29-8.065-6.45-6.774-11.61 1.29-5.16 6.45-8.07 11.613-6.78 4.83 1.29 8.06 5.805 7.09 10.97 0 0 0 .32-.32.642m-6.78-24.517c-5.164 1.29-10.325-1.936-11.615-7.098-1.29-5.16 1.935-10.323 7.097-11.614 5.16-1.29 10.322 1.937 11.612 7.1a7.873 7.873 0 010 3.87c-.323 3.55-2.904 6.774-7.097 7.742m34.19 23.225c-.97 5.16-5.81 8.71-10.97 7.743-5.16-.968-8.71-5.807-7.74-10.968.966-5.16 5.805-8.71 10.966-7.743 4.84.968 8.39 5.484 8.067 10.323-.32.322-.32.322-.32.645M216.29 118c-5.16.968-10-2.58-10.967-7.742-.968-5.16 2.58-10 7.742-10.968 5.16-.967 10 2.58 10.967 7.742 0 .968.323 1.613 0 2.58-.322 4.194-3.548 7.743-7.742 8.388m-6.774 57.097c-2.58 4.516-8.387 6.13-12.903 3.548-4.516-2.58-6.13-8.387-3.548-12.903 2.58-4.516 8.387-6.13 12.903-3.548 3.226 1.935 5.16 5.483 4.838 9.032-.322 1.29-.645 2.58-1.29 3.87m-3.548-87.74c-4.516 2.58-10.323.967-12.903-3.55-2.58-4.516-.968-10.322 3.548-12.903 4.516-2.58 10.322-.968 12.903 3.55.968 1.934 1.29 3.547 1.29 5.482-.322 2.904-1.935 5.807-4.838 7.42"/><path fill="#D62783" fill-rule="nonzero" d="M121.774 220.903c-25.806 0-49.677-10-68.064-28.064-17.742-18.39-27.742-42.59-27.742-68.07 0-25.81 10-49.68 28.064-68.07 18.065-18.06 42.258-28.06 67.742-28.06 21.29 0 41.613 6.773 58.387 19.68L168.23 63.8C154.68 53.485 138.55 48 121.78 48c-20.322 0-39.677 8.065-54.193 22.58-14.51 14.517-22.253 33.55-22.253 54.194 0 20.323 8.064 39.678 22.58 54.194 14.516 14.516 33.55 22.258 54.194 22.258 17.097 0 33.226-5.484 46.45-15.807l11.614 15.48c-16.773 12.9-37.095 20-58.386 20z"/></g></svg>