<svg id="Layer_1" data-name="Layer 1" xmlns="http://www.w3.org/2000/svg" xmlns:xlink="http://www.w3.org/1999/xlink" viewBox="0 0 163.43 145.38"><defs><style>.cls-1{fill:url(#linear-gradient);}.cls-2{fill:url(#linear-gradient-2);}.cls-3{fill:url(#linear-gradient-3);}.cls-4{fill:url(#linear-gradient-4);}.cls-5{fill:#fff;}.cls-6{fill:#2c256c;}.cls-7{fill:#5b2d82;}.cls-8{fill:url(#linear-gradient-5);}.cls-9{fill:url(#linear-gradient-6);}.cls-10{fill:url(#linear-gradient-7);}.cls-11{fill:url(#linear-gradient-8);}.cls-12{fill:url(#linear-gradient-9);}.cls-13{fill:#623393;}</style><linearGradient id="linear-gradient" x1="1574.36" y1="-3275.77" x2="1691.57" y2="-3275.77" gradientTransform="translate(1450.4 3852.09) rotate(-45)" gradientUnits="userSpaceOnUse"><stop offset="0" stop-color="#623393"/><stop offset="0.6" stop-color="#432b7d"/><stop offset="1" stop-color="#2c256c"/></linearGradient><linearGradient id="linear-gradient-2" x1="1574.36" y1="-3259.85" x2="1691.57" y2="-3259.85" xlink:href="#linear-gradient"/><linearGradient id="linear-gradient-3" x1="1574.36" y1="-3282.11" x2="1691.57" y2="-3282.11" gradientTransform="translate(1450.4 3852.09) rotate(-45)" gradientUnits="userSpaceOnUse"><stop offset="0" stop-color="#754fa0"/><stop offset="0.21" stop-color="#6d4b9b"/><stop offset="0.52" stop-color="#583e8b"/><stop offset="0.9" stop-color="#362b73"/><stop offset="1" stop-color="#2c256c"/></linearGradient><linearGradient id="linear-gradient-4" x1="1574.36" y1="-3226.41" x2="1691.57" y2="-3226.41" xlink:href="#linear-gradient-3"/><linearGradient id="linear-gradient-5" x1="1574.36" y1="-3254.04" x2="1691.57" y2="-3254.04" xlink:href="#linear-gradient"/><linearGradient id="linear-gradient-6" x1="1563.24" y1="-3254.04" x2="1704.01" y2="-3254.04" xlink:href="#linear-gradient-3"/><linearGradient id="linear-gradient-7" x1="1563.24" y1="-3239.64" x2="1704.01" y2="-3239.64" xlink:href="#linear-gradient"/><linearGradient id="linear-gradient-8" x1="1563.24" y1="-3247.69" x2="1704.01" y2="-3247.69" xlink:href="#linear-gradient"/><linearGradient id="linear-gradient-9" x1="1563.24" y1="-3268.04" x2="1704.01" y2="-3268.04" xlink:href="#linear-gradient"/></defs><title>CoreDNS_Colour_Icon</title><path class="cls-1" d="M270.13,399.21a15.75,15.75,0,0,0-2.82,3.82,15.75,15.75,0,0,1,2.82-3.82Z" transform="translate(-224.29 -323.07)"/><path class="cls-2" d="M317.72,365.53a8.4,8.4,0,0,1,6,2.47l4.89,4.89h0L323.69,368A8.4,8.4,0,0,0,317.72,365.53Z" transform="translate(-224.29 -323.07)"/><path class="cls-3" d="M270.11,371.42a13.89,13.89,0,0,1,19.65,0l4.09,4.09,12.71-12.71a15.82,15.82,0,0,1,22.34,0l4.89,4.89L346,355.45l-26.63-26.63a19.78,19.78,0,0,0-27.9,0l-55,55a19.79,19.79,0,0,0-2.92,24.13l.17-.17Z" transform="translate(-224.29 -323.07)"/><path class="cls-4" d="M341.89,419.27a13.9,13.9,0,0,1-19.65,0l-4.84-4.84-16,16a15.82,15.82,0,0,1-22.34,0l-4.13-4.13L263,438.21l24.48,24.48a19.78,19.78,0,0,0,27.9,0l55-55a19.79,19.79,0,0,0,4.35-21.28l-1.78,1.78Z" transform="translate(-224.29 -323.07)"/><path class="cls-5" d="M296.16,425.25h0a8.39,8.39,0,0,1-2.79,1.85,8.46,8.46,0,0,1-9.14-1.85l-4.13-4.13-4.77-4.77a8.44,8.44,0,0,1,0-11.93h0L299,380.71,311.76,368h0a8.39,8.39,0,0,1,4.35-2.31,8.52,8.52,0,0,1,1.61-.15,8.4,8.4,0,0,1,6,2.47l4.89,4.89,5.21-5.21h0l-4.89-4.89a15.82,15.82,0,0,0-22.34,0L293.84,375.5l-23.71,23.71a15.75,15.75,0,0,0-2.82,3.82q-.36.69-.65,1.4a15.79,15.79,0,0,0,3.46,17.12l4.77,4.77,4.13,4.13a15.82,15.82,0,0,0,22.34,0l16-16-5.21-5.21Z" transform="translate(-224.29 -323.07)"/><path class="cls-6" d="M372.94,388.22l1.78-1.78a19.52,19.52,0,0,0-2.64-4.63C372.47,383.93,372.76,386.07,372.94,388.22Z" transform="translate(-224.29 -323.07)"/><path class="cls-7" d="M233.76,407.77l-.17.17c.11.18.21.37.33.55C233.86,408.25,233.8,408,233.76,407.77Z" transform="translate(-224.29 -323.07)"/><path class="cls-8" d="M312,389.42l16.53-16.53L323.69,368a8.4,8.4,0,0,0-6-2.47,8.52,8.52,0,0,0-1.61.15,8.39,8.39,0,0,0-4.35,2.31L299,380.71l.91.91a13.89,13.89,0,0,1,0,19.65L280.1,421.12l4.13,4.13a8.44,8.44,0,0,0,11.93,0l16-16-.15-.15A13.89,13.89,0,0,1,312,389.42Z" transform="translate(-224.29 -323.07)"/><path class="cls-9" d="M312,389.42l16.53-16.53L323.69,368a8.4,8.4,0,0,0-6-2.47,8.52,8.52,0,0,0-1.61.15,8.39,8.39,0,0,0-4.35,2.31L299,380.71l.91.91a13.89,13.89,0,0,1,0,19.65L280.1,421.12l4.13,4.13a8.44,8.44,0,0,0,11.93,0l16-16-.15-.15A13.89,13.89,0,0,1,312,389.42Z" transform="translate(-224.29 -323.07)"/><path class="cls-5" d="M296.16,425.25h0a8.39,8.39,0,0,1-2.79,1.85A8.39,8.39,0,0,0,296.16,425.25Z" transform="translate(-224.29 -323.07)"/><path class="cls-10" d="M296.16,425.25h0a8.39,8.39,0,0,1-2.79,1.85A8.39,8.39,0,0,0,296.16,425.25Z" transform="translate(-224.29 -323.07)"/><path class="cls-5" d="M280.1,421.12h0l4.13,4.13a8.41,8.41,0,0,0,6,2.47,8.41,8.41,0,0,1-6-2.47Z" transform="translate(-224.29 -323.07)"/><path class="cls-11" d="M280.1,421.12h0l4.13,4.13a8.41,8.41,0,0,0,6,2.47,8.41,8.41,0,0,1-6-2.47Z" transform="translate(-224.29 -323.07)"/><path class="cls-5" d="M311.76,368h0a8.39,8.39,0,0,1,4.35-2.31A8.39,8.39,0,0,0,311.76,368Z" transform="translate(-224.29 -323.07)"/><path class="cls-12" d="M311.76,368h0a8.39,8.39,0,0,1,4.35-2.31A8.39,8.39,0,0,0,311.76,368Z" transform="translate(-224.29 -323.07)"/><path class="cls-6" d="M236.5,411.71a19.6,19.6,0,0,1-2.59-3.21c-.12-.18-.22-.37-.33-.55l-5.23,5.23a13.89,13.89,0,0,0,0,19.65l10.2,10.2a13.9,13.9,0,0,0,19.65,0l3.25-3.25,1.16-1.16.39-.39Z" transform="translate(-224.29 -323.07)"/><path class="cls-7" d="M270.13,421.56a15.79,15.79,0,0,1-3.46-17.12q.29-.71.65-1.4a15.75,15.75,0,0,1,2.82-3.82h0l23.71-23.71-4.09-4.09a13.89,13.89,0,0,0-19.65,0l-36.35,36.35c0,.24.11.48.15.72a19.6,19.6,0,0,0,2.59,3.21L263,438.21l11.89-11.89Z" transform="translate(-224.29 -323.07)"/><path class="cls-7" d="M266.67,404.44a15.88,15.88,0,0,0,.65,13.3A15.88,15.88,0,0,1,266.67,404.44Z" transform="translate(-224.29 -323.07)"/><path class="cls-7" d="M280.1,421.12,300,401.27a13.89,13.89,0,0,0,0-19.65l-.91-.91-23.71,23.71a8.44,8.44,0,0,0,0,11.93Z" transform="translate(-224.29 -323.07)"/><path class="cls-7" d="M275.34,416.35a8.41,8.41,0,0,1-2.47-6,8.41,8.41,0,0,0,2.47,6l4.77,4.77h0Z" transform="translate(-224.29 -323.07)"/><path class="cls-7" d="M275.34,404.42a8.39,8.39,0,0,0-1.85,2.79,8.39,8.39,0,0,1,1.85-2.79Z" transform="translate(-224.29 -323.07)"/><path class="cls-6" d="M328.58,372.89,312,389.42a13.89,13.89,0,0,0,0,19.65l.15.15,20.39-20.39a8.39,8.39,0,0,0,2.31-4.35,8.52,8.52,0,0,0,.15-1.61,8.41,8.41,0,0,0-2.47-6Z" transform="translate(-224.29 -323.07)"/><path class="cls-6" d="M332.59,388.83a8.39,8.39,0,0,0,2.31-4.35,8.39,8.39,0,0,1-2.31,4.35Z" transform="translate(-224.29 -323.07)"/><path class="cls-13" d="M332.59,376.9a8.41,8.41,0,0,1,2.47,6,8.41,8.41,0,0,0-2.47-6l-4-4h0Z" transform="translate(-224.29 -323.07)"/><path class="cls-13" d="M337.79,394a15.71,15.71,0,0,0,3.47-5.22,15.72,15.72,0,0,1-3.47,5.22Z" transform="translate(-224.29 -323.07)"/><path class="cls-13" d="M341.26,388.81q.29-.71.51-1.45a15.81,15.81,0,0,0-4-15.67l-4-4-5.21,5.21,4,4a8.41,8.41,0,0,1,2.47,6,8.52,8.52,0,0,1-.15,1.61,8.39,8.39,0,0,1-2.31,4.35h0L312.2,409.22l5.21,5.21L337.79,394A15.72,15.72,0,0,0,341.26,388.81Z" transform="translate(-224.29 -323.07)"/><path class="cls-13" d="M383.64,357.87l-10.2-10.2a13.89,13.89,0,0,0-18.64-.91c-.35.28-.68.59-1,.91l-6.58,6.58-1.16,1.16,0,0,24.36,24.36a20.7,20.7,0,0,1,4.35,6.62l8.92-8.92A13.9,13.9,0,0,0,383.64,357.87Z" transform="translate(-224.29 -323.07)"/><path class="cls-6" d="M337.79,371.69a15.81,15.81,0,0,1,4,15.67q-.22.73-.51,1.45a15.71,15.71,0,0,1-3.47,5.22h0L317.4,414.42l4.84,4.84a13.9,13.9,0,0,0,19.65,0l31-31c-.18-2.15-.47-4.29-.85-6.41a19.62,19.62,0,0,0-1.71-2L346,355.45l-12.23,12.23Z" transform="translate(-224.29 -323.07)"/><path class="cls-6" d="M337.79,371.69a15.81,15.81,0,0,1,4,15.67,15.81,15.81,0,0,0-4-15.67l-4-4h0Z" transform="translate(-224.29 -323.07)"/></svg>
