<svg xmlns="http://www.w3.org/2000/svg" xmlns:xlink="http://www.w3.org/1999/xlink" viewBox="0 0 65 65" fill="#fff" fill-rule="evenodd" stroke="#000" stroke-linecap="round" stroke-linejoin="round" width="300" height="300" font-family="Roboto" font-size="14px" text-anchor="middle"><defs><style type="text/css"></style></defs><use xlink:href="#A" x=".5" y=".5"></use><symbol id="A" overflow="visible"><svg width="64" height="64" stroke="initial" fill="initial" fill-rule="initial"><defs><clipPath id="B"><use xlink:href="#C"></use></clipPath><path id="C" d="M22.9 13.6h271.8v296.2H22.9z"></path></defs><g transform="matrix(.283424 0 0 .283424 -13.064191 3.213972)"><path clip-path="url(#B)" d="M116.7 107.6l-14.3-8.9.3 13.6 14.3 8.9zm20.6 47.6l-.3-13.3-12.5-7.8c-.2-.1-.4-.3-.5-.4l.3 13.4zm-44.7 17.9l-32.7-20.3-.8-34 16-6.9-.3-13.6-25.6 11c-2 .9-3.2 2.7-3.1 4.8l1 40.8c0 2.1 1.3 4.2 3.3 5.4l39.2 24.3c1.8 1.1 4 1.4 5.9.9.2-.1.4-.1.6-.2l24.1-10.4-13.1-8.1z" fill="#b31aab"></path><path d="M198.3 97.9c-.1-2.4-1.5-4.9-3.9-6.3l-47.6-29.5-1.5.6.3 14.3 37.7 23.4.9 38.2 14.4 8.9.8-.3zm-57 67.1L97 137.6l-1.1-46 20.2-8.7-.4-15.9-31.3 13.5c-2.3 1-3.7 3.1-3.6 5.6l1.3 54c0 2.5 1.5 4.9 3.9 6.3l51.9 32.2c2.1 1.3 4.7 1.7 6.9 1 .2-.1.4-.2.6-.2l30.6-13.2-15.2-9.4z" clip-path="url(#B)" fill="#d163ce"></path><path d="M265.8 60.1l-66.5-41.2c-2.5-1.5-5.4-1.9-7.9-1.1-.2.1-.5.2-.7.3l-64.9 28c-2.6 1.1-4.2 3.5-4.1 6.4l1.6 69.2c.1 2.8 1.8 5.6 4.5 7.2l66.5 41.2c2.4 1.5 5.4 1.9 7.9 1.1.2-.1.5-.2.7-.3l64.9-28c2.6-1.1 4.2-3.6 4.1-6.4l-1.6-69.2c-.1-2.8-1.8-5.5-4.5-7.2m-67.6 94.5l-57.8-35.8-1.4-60.1 56.4-24.3 57.8 35.8 1.4 60.1z" clip-path="url(#B)" fill="#e13eaf"></path></g></svg></symbol></svg>