<svg height="60" width="120" xmlns="http://www.w3.org/2000/svg" xmlns:xlink="http://www.w3.org/1999/xlink"><clipPath id="a"><path d="m22.9 13.6h271.8v296.2h-271.8z"/></clipPath><path clip-path="url(#a)" d="m35.5 260.3c0 2.2.5 4.3 1.5 6.1s2.3 3.4 3.8 4.7c1.6 1.3 3.4 2.3 5.5 3s4.3 1.1 6.5 1.1c3 0 5.7-.7 7.9-2.1s4.3-3.3 6.2-5.6l7.4 5.6c-5.4 7-13 10.5-22.7 10.5-4 0-7.7-.7-11-2.1s-6.1-3.3-8.3-5.7c-2.3-2.4-4-5.3-5.2-8.5-1.2-3.3-1.8-6.8-1.8-10.7 0-3.8.7-7.4 2-10.7s3.2-6.1 5.5-8.5 5.1-4.3 8.4-5.7c3.2-1.4 6.8-2.1 10.6-2.1 4.5 0 8.4.8 11.5 2.4s5.7 3.7 7.7 6.2c2 2.6 3.5 5.4 4.4 8.7.9 3.2 1.4 6.5 1.4 9.8v3.5h-41.3zm30.8-7.7c-.1-2.2-.4-4.1-1-5.9s-1.5-3.4-2.8-4.7c-1.2-1.3-2.8-2.4-4.6-3.1-1.8-.8-4-1.1-6.4-1.1s-4.6.5-6.5 1.4c-2 .9-3.7 2.1-5 3.5-1.4 1.4-2.4 3-3.2 4.8s-1.1 3.5-1.1 5.2h30.6zm18.8-21.5h9.7v7.9h.2c1.2-2.7 3.4-5 6.4-6.6 3-1.7 6.5-2.5 10.5-2.5 2.5 0 4.8.4 7.1 1.1 2.3.8 4.3 1.9 5.9 3.5 1.7 1.6 3 3.6 4.1 6.1 1 2.5 1.5 5.4 1.5 8.8v33h-9.7v-30.3c0-2.4-.3-4.4-1-6.1-.6-1.7-1.5-3.1-2.6-4.1s-2.3-1.8-3.7-2.3-2.9-.7-4.4-.7c-2 0-3.9.3-5.6 1s-3.2 1.7-4.5 3.1-2.3 3.2-3 5.4-1.1 4.7-1.1 7.7v26.4h-9.7v-51.4zm59.8 0 15.3 39.3 14.7-39.3h10.4l-20.1 51.3h-10.7l-20.9-51.3zm41.1 25.7c0-3.7.7-7.2 2.1-10.5 1.4-3.2 3.3-6.1 5.8-8.5s5.3-4.4 8.7-5.8c3.3-1.4 6.9-2.1 10.7-2.1s7.4.7 10.7 2.1 6.2 3.3 8.7 5.8c2.4 2.5 4.4 5.3 5.8 8.5s2.1 6.7 2.1 10.5c0 3.7-.7 7.3-2.1 10.5-1.4 3.3-3.3 6.1-5.8 8.5s-5.3 4.3-8.7 5.7c-3.3 1.4-6.9 2.1-10.7 2.1s-7.4-.7-10.7-2.1-6.2-3.3-8.7-5.7-4.4-5.3-5.8-8.5c-1.4-3.3-2.1-6.8-2.1-10.5m10.3 0c0 2.6.4 5 1.2 7.2s1.9 4.1 3.4 5.6c1.4 1.6 3.2 2.8 5.3 3.7s4.4 1.4 7 1.4 4.9-.4 7-1.4c2.1-.9 3.9-2.1 5.3-3.7 1.4-1.5 2.6-3.4 3.4-5.6s1.2-4.6 1.2-7.2-.4-5-1.2-7.2-1.9-4.1-3.4-5.6c-1.4-1.5-3.2-2.8-5.3-3.7s-4.4-1.4-7-1.4-4.9.5-7 1.4-3.9 2.1-5.3 3.7-2.6 3.4-3.4 5.6-1.2 4.6-1.2 7.2m44.9-25.7h11.2l15.2 40h.2l14.6-40h10.4l-24.3 62.3-2.7 6.1c-.9 1.8-2 3.4-3.3 4.7s-2.9 2.3-4.7 3-4.1 1.1-6.7 1.1c-1.4 0-2.9-.1-4.4-.3s-2.9-.6-4.3-1.1l1.2-8.9c1.9.8 3.9 1.2 5.8 1.2 1.5 0 2.8-.2 3.8-.6s1.9-1 2.7-1.7c.8-.8 1.4-1.6 1.9-2.6s1-2.2 1.5-3.5l3.2-8.1z" fill="#4a0d66" transform="matrix(.216935 0 0 .216935 25.496126 -8.323708)"/><g transform="matrix(.216935 0 0 .216935 25.507126 -2.331708)"><path clip-path="url(#a)" d="m117 121.2-.3-13.6-14.3-8.9.3 13.6zm20.3 34-.3-13.3-12.5-7.8c-.2-.1-.4-.3-.5-.4l.3 13.4zm-44.7 17.9-32.7-20.3-.8-34 16-6.9-.3-13.6-25.6 11c-2 .9-3.2 2.7-3.1 4.8l1 40.8c0 2.1 1.3 4.2 3.3 5.4l39.2 24.3c1.8 1.1 4 1.4 5.9.9.2-.1.4-.1.6-.2l24.1-10.4-13.1-8.1z" fill="#b31aab"/><path clip-path="url(#a)" d="m198.3 97.9c-.1-2.4-1.5-4.9-3.9-6.3l-47.6-29.5-1.5.6.3 14.3 37.7 23.4.9 38.2 14.4 8.9.8-.3zm-57 67.1-44.3-27.4-1.1-46 20.2-8.7-.4-15.9-31.3 13.5c-2.3 1-3.7 3.1-3.6 5.6l1.3 54c0 2.5 1.5 4.9 3.9 6.3l51.9 32.2c2.1 1.3 4.7 1.7 6.9 1 .2-.1.4-.2.6-.2l30.6-13.2-15.2-9.4z" fill="#d163ce"/><path clip-path="url(#a)" d="m265.8 60.1-66.5-41.2c-2.5-1.5-5.4-1.9-7.9-1.1-.2.1-.5.2-.7.3l-64.9 28c-2.6 1.1-4.2 3.5-4.1 6.4l1.6 69.2c.1 2.8 1.8 5.6 4.5 7.2l66.5 41.2c2.4 1.5 5.4 1.9 7.9 1.1.2-.1.5-.2.7-.3l64.9-28c2.6-1.1 4.2-3.6 4.1-6.4l-1.6-69.2c-.1-2.8-1.8-5.5-4.5-7.2m-67.6 94.5-57.8-35.8-1.4-60.1 56.4-24.3 57.8 35.8 1.4 60.1z" fill="#e13eaf"/></g></svg>