<svg id="Layer_1" data-name="Layer 1" xmlns="http://www.w3.org/2000/svg" xmlns:xlink="http://www.w3.org/1999/xlink" viewBox="0 0 32 32"><defs><style>.cls-1,.cls-6{fill:none;}.cls-1{clip-rule:evenodd;}.cls-2{fill:#fff;}.cls-2,.cls-5,.cls-6{stroke:#7863ec;stroke-miterlimit:10;}.cls-3{clip-path:url(#clip-path);}.cls-4{fill:#e9e8ff;}.cls-5{fill:#e9e8fe;}</style><clipPath id="clip-path"><path class="cls-1" d="M10.55,16h13a1.5,1.5,0,0,1,0,3h-13a1.5,1.5,0,0,1,0-3Z"/></clipPath></defs><title>Artboard 1white</title><path class="cls-2" d="M10.59,8.51h11a1.5,1.5,0,1,1,0,3h-11a1.5,1.5,0,0,1,0-3Z"/><g class="cls-3"><rect class="cls-4" x="4.05" y="11" width="26" height="13"/></g><path class="cls-5" d="M9.51,14.52h13a1.5,1.5,0,1,1,0,3h-13a1.5,1.5,0,0,1,0-3Z"/><path class="cls-5" d="M10.6,20.51h11a1.5,1.5,0,0,1,0,3h-11a1.5,1.5,0,0,1,0-3Z"/><path class="cls-6" d="M2,4.55H3.73A1.73,1.73,0,0,1,5.45,6.29V24a3.52,3.52,0,0,0,3.5,3.53H23A3.52,3.52,0,0,0,26.51,24V6.31a1.75,1.75,0,0,1,1.74-1.76H30"/></svg>