<?xml version="1.0" encoding="UTF-8" standalone="no"?>
<!-- Created with Inkscape (http://www.inkscape.org/) -->

<svg
   xmlns:dc="http://purl.org/dc/elements/1.1/"
   xmlns:cc="http://creativecommons.org/ns#"
   xmlns:rdf="http://www.w3.org/1999/02/22-rdf-syntax-ns#"
   xmlns:svg="http://www.w3.org/2000/svg"
   xmlns="http://www.w3.org/2000/svg"
   xmlns:sodipodi="http://sodipodi.sourceforge.net/DTD/sodipodi-0.dtd"
   xmlns:inkscape="http://www.inkscape.org/namespaces/inkscape"
   width="815"
   height="947"
   viewBox="0 0 215.63534 250.56101"
   version="1.1"
   id="svg8"
   inkscape:version="0.92.4 5da689c313, 2019-01-14"
   sodipodi:docname="munin.svg">
  <defs
     id="defs2" />
  <sodipodi:namedview
     id="base"
     pagecolor="#ffffff"
     bordercolor="#666666"
     borderopacity="1.0"
     inkscape:pageopacity="0.0"
     inkscape:pageshadow="2"
     inkscape:zoom="0.7"
     inkscape:cx="752.53197"
     inkscape:cy="538.35368"
     inkscape:document-units="mm"
     inkscape:current-layer="layer1"
     showgrid="false"
     units="px"
     inkscape:window-width="2560"
     inkscape:window-height="1403"
     inkscape:window-x="2560"
     inkscape:window-y="0"
     inkscape:window-maximized="1" />
  <metadata
     id="metadata5">
    <rdf:RDF>
      <cc:Work
         rdf:about="">
        <dc:format>image/svg+xml</dc:format>
        <dc:type
           rdf:resource="http://purl.org/dc/dcmitype/StillImage" />
        <dc:title></dc:title>
      </cc:Work>
    </rdf:RDF>
  </metadata>
  <g
     inkscape:label="Layer 1"
     inkscape:groupmode="layer"
     id="layer1"
     transform="translate(0,-46.439626)">
    <g
       id="g878"
       transform="matrix(4.87158,0,0,4.87158,-77.982672,-568.22405)">
      <g
         transform="matrix(0.26458333,0,0,0.26458333,17.086072,127.68693)"
         id="g1609">
        <path
           id="path1493"
           d="m 157.17279,167.28866 v -0.71001 h -1.395 l -1.16301,0.91401 v -0.50801 h -1.39401 v -3.86206 h -1.16101 v -3.55605 h -0.698 v -0.71101 h -1.16301 v 4.47107 h -1.625 v 3.45505 h -1.74402 v -1.06902 l -0.928,0.40801 -1.278,0.55901 h -0.93 v 1.62502 h -1.85902 v -1.31802 -2.03503 -2.44003 h -1.394 v -1.01602 h -1.39601 v -4.57407 h -1.39301 v 4.57407 l -0.69701,0.305 v 5.33608 h -1.27699 l -1.27801,0.56101 h -1.39601 l -1.16201,-0.508 h -2.09101 v -1.22102 h -1.396 v 1.93203 h -1.16001 v 1.32002 h -0.93301 v 0.86301 h -2.08701 l 0.004,0.002 v -0.56001 h -0.934 v -7.31711 h -0.92801 v -4.98007 l -0.582,-0.25401 v -3.30305 h -1.046 v 7.82612 h -0.93101 v 7.92812 h -0.92601 v 0.66001 h -1.15899 v -0.66001 h -0.93402 v -4.16806 h -0.697 v -4.87908 h -0.697 v -15.44323 h -0.46501 v -7.21311 h -1.162 v 9.85215 h -0.92901 v 20.0213 l -0.698,0.30701 v 1.52302 h -0.927 v -1.42402 h -0.466 v -2.64004 h -1.16201 v -1.62703 h -0.931 v 3.04905 h -0.69501 v 0.81201 h -0.93001 v -1.52302 h -1.161 v 1.72602 h -1.62701 v 1.72703 h -1.39401 v -4.67407 l -0.583,-0.254 v -5.02908 h -1.74 v 4.16606 l -1.163815,0.50801 v 5.84309 h -0.693904 v -17.53126 -8.23213 h -0.699003 v -10.05515 h -0.696704 v 8.53113 h -0.930905 v 17.78327 h -0.695803 v 0.91601 h -0.696804 v 4.67407 2.64304 h -0.930905 v -2.54104 h -1.160905 v -3.86206 -7.92512 h -1.394807 v -10.46715 l -0.580804,-0.25401 v 6.6541 h -1.742908 v 4.16607 7.72511 H 88.38924 v 2.23604 l -0.929005,0.407 v 3.96206 1.17002 H 86.30233 v -5.64009 h -0.700004 v -10.06315 -5.18107 h -0.698003 v 12.19518 h -1.159907 v 6.5041 l -0.695803,0.306 v -1.32202 h -1.627909 v 0.81301 H 80.4907 v 1.82803 h -0.696703 v -1.93003 h -0.930905 v -1.72802 h -1.160906 v 0.91601 l -0.350902,-0.155 v 1.47502 l -0.986805,0.43201 v 1.09301 l -1.130806,0.49401 v -1.71403 h -1.482907 v -1.21901 h -0.699003 v -1.62703 h -1.392807 v -1.62702 h -0.698004 v -2.64104 h -1.160906 v -5.89409 h -1.161905 v 7.72211 h -1.161906 v 2.44004 l -0.928905,0.40601 v 3.04904 h -0.696803 v 1.06802 h -0.926705 v -6.04709 l -0.700004,-0.30601 v -6.19709 h -1.161905 v -6.6081 h -0.698904 v -17.04125 h -1.160906 v 14.19521 H 60.5031 v 10.77416 h -0.929005 v 0.81201 h -0.928904 v 4.47307 h -1.393807 v 5.38508 0.56001 h -1.159907 v -0.96502 h -1.164805 v -0.81401 h -1.160907 v -2.03303 H 52.139758 V 156.21249 H 50.976952 V 143.6113 h -1.393807 v 10.67016 H 48.65314 v -1.82803 h -1.160806 v -9.24913 l -0.582802,-0.25301 v -5.91509 h -1.044006 v 8.20213 h -1.161805 v 9.34714 h -0.930005 v 6.6081 h -0.928905 v 5.89408 h -0.465802 v -2.33803 h -1.394807 v 3.04904 h -1.627009 v -1.83002 h -1.160805 v 3.45705 h -1.393807 v -2.33804 h -1.393807 v 0.91402 h -1.161906 v 1.42402 h -1.161906 v 0.66001 h -1.391807 v -1.77903 h -1.629908 v 1.77903 h -2.08791 v -0.76301 H 26.81053 v 0.76301 h -2.08791 v -0.86501 h -0.933804 v -1.32002 h -1.160907 v -1.93203 h -1.394806 v 1.22102"
           style="fill:none;stroke:#33ff00;stroke-width:1.50116241;stroke-linecap:round;stroke-linejoin:round"
           inkscape:connector-curvature="0" />
        <path
           id="path1509"
           d="m 158.4488,6.2968219 c -2.43202,3.6440546 -8.53905,3.6640449 -8.53905,3.6640449 l 1.57801,-3.9610594 C 143.46072,8.0058475 135.27868,16.491995 135.27868,16.491995 l -0.016,-4.975075 -10.81005,8.215123 2.18401,-6.099091 -4.31503,2.888043 c -5.24602,3.110047 -11.19705,4.364066 -11.19705,4.364066 -9.00605,0.558008 -21.875716,11.419171 -21.875716,11.419171 1.564008,-4.02906 0.439002,-12.332185 0.439002,-12.332185 C 81.763006,35.48428 66.664731,42.463384 64.50192,43.344398 62.333909,44.222411 50.954951,49.429489 40.617,58.879631 30.286148,68.320772 27.003131,84.108009 27.003131,84.108009 26.176228,87.071053 18.481189,92.044128 14.936171,96.688198 13.314363,98.80923 4.2123269,110.1758 1.0343309,124.07801 c -2.6909335,11.80218 0.7189936,23.18935 0.7189936,23.18935 0,0 0.597913,4.31206 3.8698995,-3.38905 l 1.3618168,-0.27301 c 0,0 -1.6638184,3.59806 -0.6408632,3.24605 1.0219751,-0.34801 6.8959854,-6.6821 11.7068094,-12.03518 4.814024,-5.35908 21.210106,-18.52928 35.97798,-19.48429 0,0 10.022951,-3.78306 17.448088,2.02503 0,0 4.896025,6.05909 12.462962,5.30508 0,0 0.887904,-0.24801 3.306817,1.39302 l -0.1418,-3.16105 c 0,0 8.689943,5.10008 17.810486,1.49502 l -1.6,-2.26603 c 0,0 1.639,-2.41404 6.47203,0.85901 l 0.286,-2.15403 c 0,0 8.58805,4.57607 12.99907,4.42807 l -1.21001,-3.88306 c 0,0 9.09504,-1.27602 18.10509,-1.83203 0,0 11.22206,-2.42004 18.6281,5.76209 L 158.4478,6.2968219"
           style="fill:#000000;stroke:none"
           inkscape:connector-curvature="0" />
        <g
           id="g1604">
          <path
             id="path1505"
             d="M 20.6738,186.09538 V 137.0226"
             style="fill:none;stroke:#000000;stroke-width:1.50116313;stroke-linecap:round;stroke-linejoin:round"
             inkscape:connector-curvature="0" />
          <path
             id="path1507"
             d="M 20.673816,85.401045 V 0.41886088 H 158.05468 V 186.09537"
             style="fill:none;stroke:#000000;stroke-width:1.50117779;stroke-linecap:round;stroke-linejoin:round"
             inkscape:connector-curvature="0" />
          <path
             id="path1506"
             d="M 20.685718,186.08346 H 157.58518"
             style="fill:none;stroke:#000000;stroke-width:1.52499998;stroke-linecap:round;stroke-linejoin:round"
             inkscape:connector-curvature="0" />
        </g>
      </g>
    </g>
  </g>
</svg>
