<svg xmlns="http://www.w3.org/2000/svg" viewBox="-4.08 0.293 64 64" width="64" height="64"><path d="M59.737 30.82C59.24 12.254 41.2-2.538 22.952.754 4.476 4.1-6.927 20.874-3.21 39.262.283 56.55 19.062 67.936 35.978 63.225c1.195-.394 2.118-.796 2.118-.796l-1.172-5.813-2.243.824c-3.397.995-6.975 1.212-10.468.637C9.642 55.865-.524 41.798 2.247 27.88c3.037-15.256 17.362-24.477 32.25-20.76 18.426 4.6 25.725 28.6 12.862 42.203-.23-.83-.38-1.21-.502-1.755L41.47 23.32c-.453-2.084-.895-4.163-3.464-4.436-2.545-.27-3.534 1.527-4.327 3.572-1.8 4.668-3.758 9.687-5.788 14.176l-1.185-2.066c-1.763-2.922-3.36-5.942-5.06-8.9-.784-1.364-1.93-2.25-3.576-2.08A3.33 3.33 0 0 0 15.042 26l-5.08 17.557 6.118-.265s.432-1.658.68-2.92c.546-2.78 1.393-5.5 2.26-8.82l5.01 9.56c.92 1.763 2.23 3.057 4.335 2.923 2.076-.133 2.923-2.015 3.647-3.665.508-1.158 3.346-8.587 4.864-12.785.19.99.317 1.364.435 1.936l5.734 28.073a70.51 70.51 0 0 0 .54 2.507 20.27 20.27 0 0 0 2.321-1.402c9.434-6.904 14.145-16.11 13.83-27.88z" fill="#c42227"/></svg>