<?xml version="1.0" encoding="UTF-8" standalone="no"?>
<!-- Svg Vector Icons : http://www.onlinewebfonts.com/icon -->

<svg
   xmlns:dc="http://purl.org/dc/elements/1.1/"
   xmlns:cc="http://creativecommons.org/ns#"
   xmlns:rdf="http://www.w3.org/1999/02/22-rdf-syntax-ns#"
   xmlns:svg="http://www.w3.org/2000/svg"
   xmlns="http://www.w3.org/2000/svg"
   xmlns:sodipodi="http://sodipodi.sourceforge.net/DTD/sodipodi-0.dtd"
   xmlns:inkscape="http://www.inkscape.org/namespaces/inkscape"
   version="1.1"
   x="0px"
   y="0px"
   viewBox="0 0 994 883"
   enable-background="new 0 0 1000 1000"
   xml:space="preserve"
   id="svg3857"
   sodipodi:docname="bee6232fdcbca080b23a816c64bf9565(1).svg"
   width="994"
   height="883"
   inkscape:version="0.92.4 5da689c313, 2019-01-14"><defs
   id="defs3861" /><sodipodi:namedview
   pagecolor="#ffffff"
   bordercolor="#666666"
   borderopacity="1"
   objecttolerance="10"
   gridtolerance="10"
   guidetolerance="10"
   inkscape:pageopacity="0"
   inkscape:pageshadow="2"
   inkscape:window-width="2560"
   inkscape:window-height="1403"
   id="namedview3859"
   showgrid="false"
   units="px"
   width="8.25in"
   inkscape:zoom="0.6075"
   inkscape:cx="372.70203"
   inkscape:cy="604.95692"
   inkscape:window-x="2560"
   inkscape:window-y="0"
   inkscape:window-maximized="1"
   inkscape:current-layer="svg3857" />
<metadata
   id="metadata3843"> Svg Vector Icons : http://www.onlinewebfonts.com/icon <rdf:RDF><cc:Work
     rdf:about=""><dc:format>image/svg+xml</dc:format><dc:type
       rdf:resource="http://purl.org/dc/dcmitype/StillImage" /><dc:title></dc:title></cc:Work></rdf:RDF></metadata>
<g
   id="g4677"
   transform="translate(0,-144.98351)"><path
     style="fill:#ea1b22;fill-opacity:1"
     d="M 489.6,184.6 C 719.8,181.9 913.2,241.9 921.3,318.3 929.4,394.8 749,459.1 518.8,461.7 288.6,464.5 95.1,404.5 87.1,328 79,251.6 259.3,187.3 489.6,184.6 Z"
     id="path3845"
     inkscape:connector-curvature="0" /><path
     style="fill:#ea1b22;fill-opacity:1"
     d="m 87.1,501.5 c -0.4,-3.3 -0.4,-6.6 0,-9.8 V 340.2 h 0.2 c -0.4,3.2 -0.3,6.4 0,9.7 8,76.5 201.5,136.4 431.7,133.8 220.3,-2.6 394.9,-61.5 402.5,-133.6 v 151.5 h -0.3 C 913.8,573.7 739.1,632.8 518.7,635.4 288.6,637.9 95.1,578 87.1,501.5 Z"
     id="path3847"
     inkscape:connector-curvature="0" /><path
     style="fill:#ea1b22;fill-opacity:1"
     d="m 87.1,678.8 c -0.4,-3.3 -0.4,-6.6 0,-9.8 V 517.5 h 0.2 c -0.4,3.2 -0.3,6.5 0,9.7 8,76.5 201.5,136.4 431.7,133.8 220.3,-2.6 394.9,-61.6 402.5,-133.6 v 151.4 h -0.3 C 913.9,751 739.2,810 518.8,812.6 288.6,815.2 95.2,755.3 87.1,678.8 Z"
     id="path3849"
     inkscape:connector-curvature="0" /><path
     style="fill:#ea1b22;fill-opacity:1"
     d="m 87.1,856.1 c -0.4,-3.3 -0.4,-6.6 0,-9.8 V 694.8 h 0.2 c -0.4,3.2 -0.3,6.5 0,9.7 8,76.5 201.5,136.4 431.7,133.8 220.3,-2.6 394.9,-61.5 402.5,-133.6 v 151.5 h -0.3 C 913.8,928.4 739.1,987.4 518.7,990 288.6,992.6 95.2,932.6 87.1,856.1 Z"
     id="path3851"
     inkscape:connector-curvature="0" /></g>
</svg>