<?xml version="1.0" encoding="utf-8"?>
<!-- Svg Vector Icons : http://www.onlinewebfonts.com/icon -->
<!DOCTYPE svg PUBLIC "-//W3C//DTD SVG 1.1//EN" "http://www.w3.org/Graphics/SVG/1.1/DTD/svg11.dtd">
<svg version="1.1" xmlns="http://www.w3.org/2000/svg" xmlns:xlink="http://www.w3.org/1999/xlink" x="0px" y="0px" viewBox="0 0 1000 1000" enable-background="new 0 0 1000 1000" xml:space="preserve">
<metadata> Svg Vector Icons : http://www.onlinewebfonts.com/icon </metadata>
<g><g transform="translate(0.000000,511.000000) scale(0.100000,-0.100000)"><path d="M4334.1,4810.8c-98.1-51.4-151.8-100.4-191.5-177.4c-18.7-37.4-95.7-434.3-172.8-884.9c-235.8-1403.2-431.9-2439.8-726.1-3843l-25.7-123.8l-102.7,109.7c-196.1,203.1-457.6,259.2-677.1,144.8c-147.1-74.7-240.5-203.1-345.5-469.3c-77-203.2-91.1-221.8-156.4-235.8c-39.7-7-392.2-14-784.5-14c-679.4,0-719.1-2.3-817.2-49C75.4-858,19.4-1208.2,224.9-1409c130.8-128.4,170.4-133.1,887.2-135.4c1060,0,1253.8,30.4,1456.9,240.5l79.4,81.7l63-135.4c121.4-254.5,287.2-387.6,516-415.6c245.2-28,424.9,109.7,560.3,431.9C3920.8-1021.5,4187,134.3,4420.5,1388c56,298.8,105.1,544,112.1,544c7,0,268.5-1400.9,581.4-3112.2c312.8-1709.1,583.7-3147.3,602.4-3191.7c42-105.1,91.1-158.7,198.5-212.5c184.5-95.7,431.9-30.4,544,140.1c51.4,77.1,72.4,163.4,130.7,576.7C6713.2-3015.4,6928-1827,6958.3-1827c7,0,46.7-53.7,84-119.1c144.8-247.5,378.2-380.6,665.4-382.9c291.8,0,406.3,93.4,721.5,588.4l161.1,252.1l572,11.7c565,11.7,574.4,11.7,632.7,67.7c79.4,74.7,114.4,191.5,102.7,340.9c-14,158.8-81.7,287.2-200.8,371.2l-95.7,67.7l-574.3,11.7c-695.8,14-775.1,2.3-943.3-149.4c-63-58.4-177.4-198.4-249.8-312.9c-74.7-114.4-137.8-207.8-140.1-203.1c-2.4,2.3-25.7,126.1-53.7,273.2c-86.4,488-193.8,698.1-408.6,805.5c-224.1,112.1-483.3,63.1-642.1-119.1c-144.7-163.4-301.2-560.3-436.6-1106.7c-35-144.7-67.7-256.8-72.4-245.2c-2.3,14-263.8,1426.6-579,3140.3c-630.4,3427.4-586,3238.3-782.1,3338.7C4609.6,4859.8,4432.1,4864.5,4334.1,4810.8z"/></g></g>
</svg>