<svg fill="none" xmlns="http://www.w3.org/2000/svg" viewBox="0 0 18 18" width="18" height="18">
  <path fill-rule="evenodd" clip-rule="evenodd" d="M9.776 1.389a7.66 7.66 0 00-.725-.04v.001H9a7.65 7.65 0 00-.051 15.301v-.001H9a7.65 7.65 0 00.776-15.261zm-1.52 1.254a6.401 6.401 0 00.02 12.716l2.333-3.791a.875.875 0 00-.354-1.242l-3.07-1.534a2.125 2.125 0 01-.859-3.015l1.93-3.134zm1.489 12.714l1.929-3.134a2.125 2.125 0 00-.86-3.015l-3.07-1.534a.875.875 0 01-.353-1.242L9.724 2.64a6.401 6.401 0 01.02 12.717z" fill="#000"/>
</svg>
