<svg fill="none" xmlns="http://www.w3.org/2000/svg" viewBox="0 0 18 18" width="18" height="18">
  <path fill-rule="evenodd" clip-rule="evenodd" d="M4 9a5.002 5.002 0 005 5 5 5 0 10-5-5zm5.506 1.653L8.37 12.697a3.751 3.751 0 01-.003-7.394L7.402 7.04a1.625 1.625 0 00.519 2.142l1.465.976a.375.375 0 01.12.495zm1.092.607l-.777 1.4a3.751 3.751 0 00-.04-7.329L8.494 7.647a.375.375 0 00.12.495l1.465.976c.705.47.93 1.402.52 2.142z" fill="#000"/>
  <path fill-rule="evenodd" clip-rule="evenodd" d="M6.5 1.375A5.125 5.125 0 001.375 6.5v5A5.125 5.125 0 006.5 16.625h5a5.125 5.125 0 005.125-5.125v-5A5.125 5.125 0 0011.5 1.375h-5zM2.625 6.5A3.875 3.875 0 016.5 2.625h5A3.875 3.875 0 0115.375 6.5v5a3.875 3.875 0 01-3.875 3.875h-5A3.875 3.875 0 012.625 11.5v-5z" fill="#000"/>
  </svg>
