<svg xmlns="http://www.w3.org/2000/svg" width="128" height="128" fill="none"><path fill="#0C544C" d="M118.563 25.067a5.154 5.154 0 0 1-5.155-5.155 5.15 5.15 0 0 1 5.155-5.155 5.155 5.155 0 1 1 0 10.31m-51.196 88.076a5.155 5.155 0 1 1 0-10.31 5.15 5.15 0 0 1 5.15 5.155 5.154 5.154 0 0 1-5.15 5.155m51.196-102.668a9.437 9.437 0 0 0-9.437 9.437c0 1.112.28 2.147.633 3.138L65.488 98.928c-4.279.897-7.558 4.514-7.558 9.06a9.437 9.437 0 0 0 9.437 9.437c5.207 0 9.433-4.225 9.433-9.437 0-1.047-.28-2.005-.593-2.947l44.495-76.126c4.148-.994 7.298-4.55 7.298-9.003 0-5.212-4.226-9.437-9.437-9.437"/><path fill="#073551" d="M79.95 25.067a5.154 5.154 0 0 1-5.155-5.155 5.15 5.15 0 0 1 5.155-5.155 5.15 5.15 0 0 1 5.15 5.155 5.154 5.154 0 0 1-5.15 5.155m-51.2 88.076a5.155 5.155 0 1 1 0-10.31 5.155 5.155 0 0 1 0 10.31m51.2-102.668a9.435 9.435 0 0 0-9.437 9.437c0 1.112.28 2.147.633 3.138L26.874 98.928c-4.282.897-7.561 4.514-7.561 9.06a9.437 9.437 0 0 0 18.874 0c0-1.047-.28-2.005-.593-2.947L82.09 28.915c4.148-.994 7.298-4.55 7.298-9.003 0-5.212-4.23-9.437-9.437-9.437M9.437 40.844A5.157 5.157 0 0 1 14.592 46a5.154 5.154 0 1 1-5.155-5.155m0 14.592A9.437 9.437 0 0 0 18.874 46c0-1.043-.284-2.005-.596-2.947-1.25-3.746-4.676-6.49-8.84-6.49-.667 0-1.251.248-1.88.382C3.28 37.837 0 41.454 0 45.999a9.437 9.437 0 0 0 9.437 9.437M4.282 78.974a5.154 5.154 0 1 1 10.31 0 5.154 5.154 0 0 1-5.155 5.151 5.154 5.154 0 0 1-5.155-5.15m14.592 0c0-1.047-.284-2.005-.596-2.947-1.25-3.746-4.672-6.49-8.84-6.49-.667 0-1.251.248-1.88.378C3.28 70.812 0 74.428 0 78.975c0 5.207 4.225 9.437 9.437 9.437s9.437-4.23 9.437-9.438"/></svg>