<svg width="128" height="128" viewBox="0 0 128 128" fill="none" xmlns="http://www.w3.org/2000/svg">
<path d="M106.69 18.0601H17.54C15.734 18.0601 14.27 19.5241 14.27 21.3301V45.0501C14.27 46.856 15.734 48.3201 17.54 48.3201H106.69C108.496 48.3201 109.96 46.856 109.96 45.0501V21.3301C109.96 19.5241 108.496 18.0601 106.69 18.0601Z" fill="#101C3F"/>
<mask id="mask0_3398_17319" style="mask-type:luminance" maskUnits="userSpaceOnUse" x="14" y="18" width="96" height="31">
<path d="M106.69 18.0601H17.54C15.734 18.0601 14.27 19.5241 14.27 21.3301V45.0501C14.27 46.856 15.734 48.3201 17.54 48.3201H106.69C108.496 48.3201 109.96 46.856 109.96 45.0501V21.3301C109.96 19.5241 108.496 18.0601 106.69 18.0601Z" fill="white"/>
</mask>
<g mask="url(#mask0_3398_17319)">
<path d="M48.44 11.65H7.06998V53.02H48.44V11.65Z" fill="#101C3F"/>
</g>
<path d="M106.69 18.0601H17.54C15.734 18.0601 14.27 19.5241 14.27 21.3301V45.0501C14.27 46.856 15.734 48.3201 17.54 48.3201H106.69C108.496 48.3201 109.96 46.856 109.96 45.0501V21.3301C109.96 19.5241 108.496 18.0601 106.69 18.0601Z" stroke="#101C3F" stroke-width="1.19" stroke-miterlimit="10"/>
<path d="M106.69 58.9H17.54C15.734 58.9 14.27 60.364 14.27 62.17V85.89C14.27 87.696 15.734 89.16 17.54 89.16H106.69C108.496 89.16 109.96 87.696 109.96 85.89V62.17C109.96 60.364 108.496 58.9 106.69 58.9Z" fill="#101C3F"/>
<mask id="mask1_3398_17319" style="mask-type:luminance" maskUnits="userSpaceOnUse" x="14" y="58" width="96" height="32">
<path d="M106.69 58.9H17.54C15.734 58.9 14.27 60.364 14.27 62.17V85.89C14.27 87.696 15.734 89.16 17.54 89.16H106.69C108.496 89.16 109.96 87.696 109.96 85.89V62.17C109.96 60.364 108.496 58.9 106.69 58.9Z" fill="white"/>
</mask>
<g mask="url(#mask1_3398_17319)">
<path d="M48.44 52.49H7.06998V93.86H48.44V52.49Z" fill="#101C3F"/>
</g>
<path d="M106.69 58.9H17.54C15.734 58.9 14.27 60.364 14.27 62.17V85.89C14.27 87.696 15.734 89.16 17.54 89.16H106.69C108.496 89.16 109.96 87.696 109.96 85.89V62.17C109.96 60.364 108.496 58.9 106.69 58.9Z" stroke="#101C3F" stroke-width="1.19" stroke-miterlimit="10"/>
<path d="M105.62 58.1899H16.47C14.664 58.1899 13.2 59.654 13.2 61.4599V85.1799C13.2 86.9859 14.664 88.4499 16.47 88.4499H105.62C107.426 88.4499 108.89 86.9859 108.89 85.1799V61.4599C108.89 59.654 107.426 58.1899 105.62 58.1899Z" fill="white"/>
<mask id="mask2_3398_17319" style="mask-type:luminance" maskUnits="userSpaceOnUse" x="13" y="58" width="96" height="31">
<path d="M105.62 58.1899H16.47C14.664 58.1899 13.2 59.654 13.2 61.4599V85.1799C13.2 86.9859 14.664 88.4499 16.47 88.4499H105.62C107.426 88.4499 108.89 86.9859 108.89 85.1799V61.4599C108.89 59.654 107.426 58.1899 105.62 58.1899Z" fill="white"/>
</mask>
<g mask="url(#mask2_3398_17319)">
<path d="M47.37 51.7799H6V93.1499H47.37V51.7799Z" fill="#0B64DD"/>
</g>
<path d="M105.62 58.1899H16.47C14.664 58.1899 13.2 59.654 13.2 61.4599V85.1799C13.2 86.9859 14.664 88.4499 16.47 88.4499H105.62C107.426 88.4499 108.89 86.9859 108.89 85.1799V61.4599C108.89 59.654 107.426 58.1899 105.62 58.1899Z" stroke="#101C3F" stroke-width="1.19" stroke-miterlimit="10"/>
<path d="M54.45 65.36H96.46" stroke="#101C3F" stroke-width="0.9" stroke-linecap="round" stroke-linejoin="round"/>
<path d="M54.45 73.3199H90.48" stroke="#101C3F" stroke-width="0.9" stroke-linecap="round" stroke-linejoin="round"/>
<path d="M54.45 81.5699H78.04" stroke="#101C3F" stroke-width="0.9" stroke-linecap="round" stroke-linejoin="round"/>
<path d="M105.62 17.41H16.47C14.664 17.41 13.2 18.8741 13.2 20.68V44.4C13.2 46.206 14.664 47.67 16.47 47.67H105.62C107.426 47.67 108.89 46.206 108.89 44.4V20.68C108.89 18.8741 107.426 17.41 105.62 17.41Z" fill="white"/>
<mask id="mask3_3398_17319" style="mask-type:luminance" maskUnits="userSpaceOnUse" x="13" y="17" width="96" height="31">
<path d="M105.62 17.41H16.47C14.664 17.41 13.2 18.8741 13.2 20.68V44.4C13.2 46.206 14.664 47.67 16.47 47.67H105.62C107.426 47.67 108.89 46.206 108.89 44.4V20.68C108.89 18.8741 107.426 17.41 105.62 17.41Z" fill="white"/>
</mask>
<g mask="url(#mask3_3398_17319)">
<path d="M47.37 11H6V52.37H47.37V11Z" fill="#0B64DD"/>
</g>
<path d="M105.62 17.41H16.47C14.664 17.41 13.2 18.8741 13.2 20.68V44.4C13.2 46.206 14.664 47.67 16.47 47.67H105.62C107.426 47.67 108.89 46.206 108.89 44.4V20.68C108.89 18.8741 107.426 17.41 105.62 17.41Z" stroke="#101C3F" stroke-width="1.19" stroke-miterlimit="10"/>
<path d="M94.68 92.8601C106.69 92.8601 116.42 83.1101 116.42 71.0901C116.42 59.0701 106.69 49.3201 94.68 49.3201C82.67 49.3201 72.94 59.0701 72.94 71.0901C72.94 83.1101 82.67 92.8601 94.68 92.8601Z" fill="#48EFCF" stroke="#101C3F" stroke-width="0.9" stroke-linecap="round" stroke-linejoin="round"/>
<path d="M83.36 72.19L92.71 79.53L107.99 58.96" stroke="#101C3F" stroke-width="5.41" stroke-miterlimit="10"/>
<path d="M105.68 53.98C97.3 48.7 88.1 50.47 82.16 55.87C98.25 47.61 116.82 65.36 111.06 82.05C110.12 84.77 108.59 87.13 106.67 89.04C110.41 87.03 113.47 83.59 115.08 78.51C117.98 69.33 113.72 59.06 105.69 53.99L105.68 53.98Z" fill="#101C3F" stroke="#101C3F" stroke-width="0.71" stroke-miterlimit="10"/>
<path d="M85.92 45.37C61.36 53.74 66.2 88.02 87.87 96.37C101.02 101.43 116.43 95.2 121.15 81.59C128.3 60.79 107.18 38.13 85.92 45.38V45.37ZM114.91 78.99C111.83 87.9 102.5 92.91 93.34 91.12C75.99 87.74 68.54 62.38 85.37 53.05C101.62 44.04 120.75 62.07 114.91 78.98V78.99Z" fill="#0B64DD" stroke="#101C3F" stroke-width="0.71" stroke-miterlimit="10"/>
<path d="M87.87 96.36C71.02 89.87 64.35 67.73 73.74 54.25C66.88 60.4 63.26 70.16 66.79 81.05C73.08 100.48 99.57 107.71 112.31 93.36C105.46 98.24 96.21 99.58 87.87 96.37V96.36Z" fill="#153385" stroke="#101C3F" stroke-width="0.71" stroke-miterlimit="10"/>
<path d="M76.6354 90.0667L76.1441 89.4868C74.4663 87.5062 71.5005 87.2608 69.5199 88.9387L47.2325 107.82C45.2519 109.498 45.0066 112.463 46.6844 114.444L47.1757 115.024C48.8535 117.004 51.8193 117.25 53.7998 115.572L76.0873 96.6908C78.0678 95.013 78.3132 92.0472 76.6354 90.0667Z" fill="#153385" stroke="#101C3F" stroke-width="0.71" stroke-miterlimit="10"/>
<path d="M75.4897 88.7102L74.9985 88.1303C73.3206 86.1498 70.3548 85.9044 68.3743 87.5822L46.0869 106.463C44.1063 108.141 43.8609 111.107 45.5388 113.087L46.03 113.667C47.7079 115.648 50.6736 115.893 52.6542 114.215L74.9416 95.3344C76.9222 93.6565 77.1676 90.6908 75.4897 88.7102Z" fill="#0B64DD" stroke="#101C3F" stroke-width="0.71" stroke-miterlimit="10"/>
<path d="M34.94 24.59H25L20.03 33.19L25 41.8H34.94L39.9 33.19L34.94 24.59Z" fill="#48EFCF"/>
<path d="M54.45 24.59H96.46" stroke="#101C3F" stroke-width="0.9" stroke-linecap="round" stroke-linejoin="round"/>
<path d="M54.45 32.54H90.48" stroke="#101C3F" stroke-width="0.9" stroke-linecap="round" stroke-linejoin="round"/>
<path d="M54.45 40.8H78.04" stroke="#101C3F" stroke-width="0.9" stroke-linecap="round" stroke-linejoin="round"/>
<path d="M29.97 82.7C34.7583 82.7 38.64 78.8183 38.64 74.03C38.64 69.2417 34.7583 65.36 29.97 65.36C25.1817 65.36 21.3 69.2417 21.3 74.03C21.3 78.8183 25.1817 82.7 29.97 82.7Z" fill="#48EFCF"/>
</svg>
