<svg width="280" height="220" viewBox="0 0 280 220" fill="none" xmlns="http://www.w3.org/2000/svg" aria-hidden="true">
  <path d="M68 44H220C226.627 44 232 49.3726 232 56V176C232 182.627 226.627 188 220 188H68C61.3726 188 56 182.627 56 176V56C56 49.3726 61.3726 44 68 44Z" fill="#153385" stroke="#101C3F" stroke-width="2"/>
  <path d="M44 28H196C202.627 28 208 33.3726 208 40V160C208 166.627 202.627 172 196 172H44C37.3726 172 32 166.627 32 160V40C32 33.3726 37.3726 28 44 28Z" fill="white" stroke="#101C3F" stroke-width="2.5"/>
  <path d="M44 40H196" stroke="#101C3F" stroke-width="1.2"/>
  <path d="M56 37C57.6569 37 59 35.6569 59 34C59 32.3431 57.6569 31 56 31C54.3431 31 53 32.3431 53 34C53 35.6569 54.3431 37 56 37Z" fill="white"/>
  <path d="M66 37C67.6569 37 69 35.6569 69 34C69 32.3431 67.6569 31 66 31C64.3431 31 63 32.3431 63 34C63 35.6569 64.3431 37 66 37Z" fill="white"/>
  <path d="M80 34H120" stroke="white" stroke-width="1.2"/>
  <path d="M80 52H52C49.7909 52 48 53.7909 48 56V152C48 154.209 49.7909 156 52 156H80C82.2091 156 84 154.209 84 152V56C84 53.7909 82.2091 52 80 52Z" fill="#F5F7FA" stroke="#101C3F" stroke-width="2"/>
  <path opacity="0.25" d="M56 64H76" stroke="#101C3F" stroke-width="2"/>
  <path opacity="0.2" d="M56 76H76" stroke="#101C3F" stroke-width="2"/>
  <path opacity="0.18" d="M56 88H72" stroke="#101C3F" stroke-width="2"/>
  <path d="M186 52H98C94.6863 52 92 54.6863 92 58V102C92 105.314 94.6863 108 98 108H186C189.314 108 192 105.314 192 102V58C192 54.6863 189.314 52 186 52Z" fill="white" stroke="#101C3F" stroke-width="2"/>
  <path d="M242 120H206C202.686 120 200 122.686 200 126V150C200 153.314 202.686 156 206 156H242C245.314 156 248 153.314 248 150V126C248 122.686 245.314 120 242 120Z" fill="white" stroke="#101C3F" stroke-width="1.2"/>
  <path d="M214 138H210C208.895 138 208 138.895 208 140V148C208 149.105 208.895 150 210 150H214C215.105 150 216 149.105 216 148V140C216 138.895 215.105 138 214 138Z" fill="#D3DAE6" stroke="#101C3F" stroke-width="0.8"/>
  <path d="M226 130H222C220.895 130 220 130.895 220 132V148C220 149.105 220.895 150 222 150H226C227.105 150 228 149.105 228 148V132C228 130.895 227.105 130 226 130Z" fill="#EE72A6" stroke="#101C3F" stroke-width="0.8"/>
  <path d="M238 134H234C232.895 134 232 134.895 232 136V148C232 149.105 232.895 150 234 150H238C239.105 150 240 149.105 240 148V136C240 134.895 239.105 134 238 134Z" fill="#48EFCF" stroke="#101C3F" stroke-width="0.8"/>
  <path opacity="0.85" d="M189.115 116H94.8846C93.2915 116 92 117.014 92 118.264V124.302C92 125.552 93.2915 126.566 94.8846 126.566H189.115C190.709 126.566 192 125.552 192 124.302V118.264C192 117.014 190.709 116 189.115 116Z" fill="#0B64DD"/>
  <path opacity="0.9" d="M189.115 131H94.8846C93.2915 131 92 132.014 92 133.264V139.302C92 140.552 93.2915 141.566 94.8846 141.566H189.115C190.709 141.566 192 140.552 192 139.302V133.264C192 132.014 190.709 131 189.115 131Z" fill="#48EFCF"/>
  <path opacity="0.55" d="M189.115 146H94.8846C93.2915 146 92 147.014 92 148.264V154.302C92 155.552 93.2915 156.566 94.8846 156.566H189.115C190.709 156.566 192 155.552 192 154.302V148.264C192 147.014 190.709 146 189.115 146Z" fill="#0B64DD"/>
</svg>
