<svg width="64" height="64" viewBox="0 0 64 64" fill="none" xmlns="http://www.w3.org/2000/svg">
<mask id="mask0_793_20475" style="mask-type:luminance" maskUnits="userSpaceOnUse" x="0" y="0" width="64" height="64">
<path d="M64 0H0V64H64V0Z" fill="white"/>
</mask>
<g mask="url(#mask0_793_20475)">
<path d="M52.201 4.76118C51.6327 4.76118 51.0699 4.80471 50.5235 4.88089C48.7532 2.25821 45.7425 0.533325 42.3275 0.533325C38.0164 0.533325 34.35 3.29204 33.0059 7.12814C32.383 6.98121 31.7382 6.89959 31.0716 6.89959C26.5146 6.89959 22.8264 10.5779 22.8264 15.1105C22.8264 16.0355 22.9794 16.9224 23.2635 17.7494H63.921C63.9652 17.3359 63.9869 16.9224 63.9869 16.498C63.9869 10.012 58.7088 4.75574 52.1955 4.75574L52.201 4.76118Z" fill="#153385" stroke="#101C3F" stroke-width="0.533333" stroke-miterlimit="10"/>
<path d="M52.201 6.62203C51.6327 6.62203 51.0699 6.66552 50.5235 6.74173C48.7532 4.11904 45.7425 2.39417 42.3275 2.39417C38.0164 2.39417 34.35 5.15288 33.0059 8.98894C32.383 8.84207 31.7382 8.76044 31.0716 8.76044C26.5146 8.76044 22.8264 12.4387 22.8264 16.9713C22.8264 17.8963 22.9794 18.7832 23.2635 19.6103H63.921C63.9652 19.1968 63.9869 18.7832 63.9869 18.3588C63.9869 11.8729 58.7088 6.6166 52.1955 6.6166L52.201 6.62203Z" fill="white" stroke="#101C3F" stroke-width="0.533333" stroke-miterlimit="10"/>
<path d="M26.837 14.8601C26.3288 14.8601 25.8262 14.8982 25.3344 14.9689C23.7498 12.6238 21.0561 11.0784 17.9962 11.0784C14.1331 11.0784 10.8547 13.5488 9.64719 16.9822C9.08985 16.8516 8.51068 16.7754 7.91511 16.7754C3.83893 16.7754 0.533203 20.0674 0.533203 24.1266C0.533203 24.9536 0.669804 25.7481 0.926612 26.4935H37.3334C37.3716 26.1235 37.3935 25.7535 37.3935 25.3726C37.3935 19.5668 32.6671 14.8601 26.837 14.8601Z" fill="#153385" stroke="#101C3F" stroke-width="0.533333" stroke-miterlimit="10"/>
<path d="M26.837 16.5251C26.3288 16.5251 25.8262 16.5632 25.3344 16.634C23.7498 14.2887 21.0561 12.7435 17.9962 12.7435C14.1331 12.7435 10.8547 15.2138 9.64719 18.6472C9.08985 18.5166 8.51068 18.4404 7.91511 18.4404C3.83893 18.4404 0.533203 21.7324 0.533203 25.7916C0.533203 26.6186 0.669804 27.4131 0.926612 28.1585H37.3334C37.3716 27.7885 37.3935 27.4185 37.3935 27.0376C37.3935 21.2318 32.6671 16.5251 26.837 16.5251Z" fill="white" stroke="#101C3F" stroke-width="0.533333" stroke-miterlimit="10"/>
<path d="M41.9614 39.9878C41.9614 39.9878 44.5569 38.0344 46.6441 39.9878V30.7051H41.9614V39.9878Z" fill="#153385" stroke="#101C3F" stroke-width="0.533333" stroke-miterlimit="10"/>
<path d="M48.4798 45.0319C48.4798 45.0319 51.1026 36.1409 48.5564 26.6241C48.3651 25.9113 47.3488 25.9059 47.1576 26.6187C46.3434 29.6386 45.3052 35.7981 46.6822 45.0319H48.4798Z" fill="#0B64DD" stroke="#101C3F" stroke-width="0.533333" stroke-miterlimit="10"/>
<path d="M47.5728 45.7338C48.1311 45.7338 48.5837 45.495 48.5837 45.2005C48.5837 44.906 48.1311 44.6672 47.5728 44.6672C47.0146 44.6672 46.562 44.906 46.562 45.2005C46.562 45.495 47.0146 45.7338 47.5728 45.7338Z" fill="#101C3F"/>
<path d="M47.5674 45.0863C47.857 45.0863 48.092 45.3203 48.092 45.6087V45.6903C48.092 45.7502 48.081 45.81 48.0592 45.8699L47.5292 47.3227L47.0702 45.859C47.0538 45.81 47.0483 45.7556 47.0483 45.7066V45.6087C47.0483 45.3203 47.2833 45.0863 47.5729 45.0863H47.5674Z" fill="#48EFCF"/>
<path d="M34.1424 2.30719C33.1207 3.79809 23.9029 20.345 27.1103 45.4672L34.1424 44.6401H34.2244L41.5079 45.4672C44.7153 20.345 35.2462 3.79809 34.2244 2.30719H34.1424Z" fill="#0B64DD"/>
<path d="M34.1424 2.30719C33.1207 3.79809 23.9029 20.345 27.1103 45.4672L34.1424 44.6401H34.2244L41.5079 45.4672C44.7153 20.345 35.2462 3.79809 34.2244 2.30719H34.1424Z" stroke="#101C3F" stroke-width="0.533333" stroke-miterlimit="10"/>
<path d="M34.3063 48.4055C38.2836 48.4055 41.5079 47.09 41.5079 45.4672C41.5079 43.8445 38.2836 42.5289 34.3063 42.5289C30.329 42.5289 27.1047 43.8445 27.1047 45.4672C27.1047 47.09 30.329 48.4055 34.3063 48.4055Z" fill="white" stroke="#101C3F" stroke-width="0.533333" stroke-miterlimit="10"/>
<path d="M34.3064 47.9321C37.4297 47.9321 39.9617 47.0966 39.9617 46.0658C39.9617 45.035 37.4297 44.1995 34.3064 44.1995C31.1831 44.1995 28.6511 45.035 28.6511 46.0658C28.6511 47.0966 31.1831 47.9321 34.3064 47.9321Z" fill="#0B64DD"/>
<mask id="mask1_793_20475" style="mask-type:luminance" maskUnits="userSpaceOnUse" x="28" y="44" width="12" height="4">
<path d="M34.3064 47.9321C37.4297 47.9321 39.9617 47.0966 39.9617 46.0658C39.9617 45.035 37.4297 44.1995 34.3064 44.1995C31.1831 44.1995 28.6511 45.035 28.6511 46.0658C28.6511 47.0966 31.1831 47.9321 34.3064 47.9321Z" fill="white"/>
</mask>
<g mask="url(#mask1_793_20475)">
<path d="M34.3064 46.9527C37.4297 46.9527 39.9617 46.1171 39.9617 45.0863C39.9617 44.0556 37.4297 43.22 34.3064 43.22C31.1831 43.22 28.6511 44.0556 28.6511 45.0863C28.6511 46.1171 31.1831 46.9527 34.3064 46.9527Z" fill="#101C3F" stroke="#101C3F" stroke-width="0.533333" stroke-miterlimit="10"/>
</g>
<path d="M34.3064 47.9321C37.4297 47.9321 39.9617 47.0966 39.9617 46.0658C39.9617 45.035 37.4297 44.1995 34.3064 44.1995C31.1831 44.1995 28.6511 45.035 28.6511 46.0658C28.6511 47.0966 31.1831 47.9321 34.3064 47.9321Z" stroke="#101C3F" stroke-width="0.533333" stroke-miterlimit="10"/>
<path d="M34.1807 22.059C35.7981 22.059 37.1094 20.3244 37.1094 18.1848C37.1094 16.0451 35.7981 14.3106 34.1807 14.3106C32.5632 14.3106 31.252 16.0451 31.252 18.1848C31.252 20.3244 32.5632 22.059 34.1807 22.059Z" fill="white"/>
<path d="M34.1641 45.3313C31.831 45.3313 29.9404 47.214 29.9404 49.5373V50.2121C29.9404 50.7018 30.0279 51.1915 30.1973 51.654L34.5029 63.4126L38.2021 51.567C38.3277 51.1643 38.3933 50.7399 38.3933 50.3155V49.5373C38.3933 47.214 36.5027 45.3313 34.1696 45.3313H34.1641Z" fill="#48EFCF" stroke="#101C3F" stroke-width="0.533333" stroke-miterlimit="10"/>
<path d="M26.4217 40.0259C26.4217 40.0259 23.8263 38.0725 21.739 40.0259V30.7432H26.4217V40.0259Z" fill="#153385" stroke="#101C3F" stroke-width="0.533333" stroke-miterlimit="10"/>
<path d="M19.903 45.0755C19.903 45.0755 17.2803 36.1845 19.8265 26.6677C20.0178 25.9549 21.0341 25.9495 21.2253 26.6623C22.0394 29.6822 23.0776 35.8417 21.7006 45.0755H19.903Z" fill="#0B64DD" stroke="#101C3F" stroke-width="0.533333" stroke-miterlimit="10"/>
<path d="M20.8155 45.7719C21.3829 45.7719 21.8428 45.5332 21.8428 45.2387C21.8428 44.9442 21.3829 44.7054 20.8155 44.7054C20.2482 44.7054 19.7883 44.9442 19.7883 45.2387C19.7883 45.5332 20.2482 45.7719 20.8155 45.7719Z" fill="#101C3F"/>
<path d="M20.8156 45.1244C20.5259 45.1244 20.291 45.3584 20.291 45.6467V45.7284C20.291 45.7883 20.3019 45.8481 20.3237 45.908L20.8538 47.3608L21.3128 45.8971C21.3292 45.8481 21.3346 45.7937 21.3346 45.7447V45.6467C21.3346 45.3584 21.0996 45.1244 20.8101 45.1244H20.8156Z" fill="#48EFCF"/>
</g>
</svg>
