<svg xmlns="http://www.w3.org/2000/svg" width="113" height="81" fill="none"><g clip-path="url(#a)"><path fill="#153385" stroke="#101C3F" stroke-miterlimit="10" d="M109.006.5H37.003a3.49 3.49 0 0 0-3.493 3.494v45.45a3.49 3.49 0 0 0 3.493 3.493h46.33l16.555 12.951v2.733h3.944l-.25-15.394 5.414-.28a3.49 3.49 0 0 0 3.494-3.493V3.994A3.49 3.49 0 0 0 108.996.5z"/><path fill="#0B64DD" stroke="#101C3F" stroke-miterlimit="10" d="M105.834.5H33.83a3.49 3.49 0 0 0-3.493 3.494v45.45a3.49 3.49 0 0 0 3.493 3.493h46.33L99.439 68.52c.28.22.691.03.691-.33V52.936h5.695a3.49 3.49 0 0 0 3.493-3.493V3.994A3.49 3.49 0 0 0 105.824.5z"/><path fill="#153385" stroke="#101C3F" stroke-miterlimit="10" d="M50.715 21.039H23.31C10.96 21.039.61 30.867.5 43.219c-.09 9.738 5.454 18.035 14.052 21.238v15.424c0 .21.17.38.38.38h4.865c.21 0 .38-.17.38-.38v-3.243l12.961-10.76h17.035c12.161 0 22.51-9.448 22.94-21.599.451-12.751-9.748-23.24-22.41-23.24z"/><path fill="#fff" stroke="#101C3F" stroke-linejoin="round" d="M55.49 21.039H27.694c-12.381 0-22.42 10.039-22.42 22.42 0 9.638 6.095 17.825 14.623 20.998v15.804l18.026-14.383h17.565c12.381 0 22.42-10.039 22.42-22.42 0-12.38-10.039-22.42-22.42-22.42Z"/><path fill="#101C3F" d="M25.222 46.421a3.813 3.813 0 1 0 0-7.627 3.813 3.813 0 0 0 0 7.627M41.597 46.421a3.813 3.813 0 1 0 0-7.627 3.813 3.813 0 0 0 0 7.627M57.971 46.421a3.813 3.813 0 1 0 0-7.627 3.813 3.813 0 0 0 0 7.627"/></g><defs><clipPath id="a"><path fill="#fff" d="M0 0h113v80.762H0z"/></clipPath></defs></svg>