<svg xmlns="http://www.w3.org/2000/svg" viewBox="0 0 180 180">
  <style>path { fill: #1C1E23; } @media (prefers-color-scheme: dark) { path { fill: #FFFFFF; } }</style>
  <path d="M180,94.27a35.54,35.54,0,0,0-23.43-33.52A50.82,50.82,0,0,0,65.45,21.17,27,27,0,0,0,23.62,52,35.88,35.88,0,0,0,6.44,106.26a35.5,35.5,0,0,0,17.1,13.07,51.64,51.64,0,0,0-.89,9.7,50.66,50.66,0,0,0,92,29.66,27,27,0,0,0,41.85-30.75A36,36,0,0,0,180,94.27ZM69.69,26.62a44.46,44.46,0,0,1,80.2,34L110.16,95.52l-39.39-18L63.08,61ZM49.77,22.18A21.25,21.25,0,0,1,62.7,26.57l-6,30.78-27-6.4a21.43,21.43,0,0,1,20-28.77ZM7,85.77A30.16,30.16,0,0,1,27.41,57.38L57,64.4,64,79.31,26.11,113.69A29.88,29.88,0,0,1,7,85.77Zm103.53,67.61a44.52,44.52,0,0,1-81.35-25.12,45.54,45.54,0,0,1,.89-8.87L68.75,84.21l39.54,18.09,8.76,16.79Zm19.78,4.44a21,21,0,0,1-12.86-4.44l5.87-30.68,27,6.33a21.49,21.49,0,0,1-10.14,26.32,21.24,21.24,0,0,1-9.84,2.45Zm22.32-35.24-29.69-7L115,100.53l38.84-34.15A29.81,29.81,0,0,1,173,94.25a30.16,30.16,0,0,1-20.45,28.31Z"/>
</svg>