<svg xmlns="http://www.w3.org/2000/svg" viewBox="0 0 180 180">
  <style>path { fill: #1C1E23; } @media (prefers-color-scheme: dark) { path { fill: #FFFFFF; } }</style>
  <path d="M62.7,19.35A43.79,43.79,0,0,1,86.8,1.81a44.38,44.38,0,0,1,51.8,22,44.85,44.85,0,0,1,4.3,29.66l-39.7,35-39.4-18L56.1,53.82ZM42.8,14.94a20.71,20.71,0,0,1,12.9,4.41l-6,30.86-27-6.41a21.73,21.73,0,0,1-1.1-10.12,20.67,20.67,0,0,1,3.7-9.52,22.13,22.13,0,0,1,7.6-6.71A20.13,20.13,0,0,1,42.8,14.94ZM0,78.67A30.17,30.17,0,0,1,20.5,50.21l29.6,7L57,72.16,19.1,106.63A29.87,29.87,0,0,1,0,78.67Zm103.5,67.74a44.34,44.34,0,0,1-22.1,17,43.25,43.25,0,0,1-27.8.5,44.23,44.23,0,0,1-22.7-16.23,45.07,45.07,0,0,1-7.8-35.58L61.8,76.87,101.3,95l8.8,16.83Zm19.8,4.41a21.33,21.33,0,0,1-12.9-4.41l5.9-30.76,27,6.31a21.49,21.49,0,0,1-2.6,19.64,22.26,22.26,0,0,1-7.6,6.72,21,21,0,0,1-9.8,2.5Zm22.3-35.27-29.7-7L108,93.4l38.8-34.17a29.94,29.94,0,0,1,13.9,10.93A30.27,30.27,0,0,1,166,87.09a30.78,30.78,0,0,1-5.7,17.44,29.24,29.24,0,0,1-14.7,11Z"/>
</svg>