<svg xmlns="http://www.w3.org/2000/svg" viewBox="0 0 180 180">
  <style>path { fill: #1C1E23; } @media (prefers-color-scheme: dark) { path { fill: #FFFFFF; } }</style>
  <path d="M11.19,101A30.34,30.34,0,0,1,7,85.75a30.09,30.09,0,0,1,20.5-28.4l29.6,7L64,79.25,40,101h9.9L68.8,83.85,106.23,101h9.11l-.34-.65,38.8-34.1A29.84,29.84,0,0,1,173,94.05a31.07,31.07,0,0,1-.9,7h7.21a35,35,0,0,0,.69-6.85,35.79,35.79,0,0,0-6.4-20.5,34.77,34.77,0,0,0-17-13,52.15,52.15,0,0,0,.9-9.69,51.15,51.15,0,0,0-9.7-30,50.78,50.78,0,0,0-57-18.4,51.44,51.44,0,0,0-25.4,18.6,27,27,0,0,0-16.2-5.7,26.52,26.52,0,0,0-16.3,5.3A27.3,27.3,0,0,0,23,34.86a26.69,26.69,0,0,0,.6,17.2A36.28,36.28,0,0,0,6.5,65.15,35.86,35.86,0,0,0,3.41,101ZM69.7,26.56A43.77,43.77,0,0,1,93.8,9.06a44.51,44.51,0,0,1,56.1,51.49l-39.7,34.9-39.4-18L63.1,61ZM28.6,40.86a20.6,20.6,0,0,1,3.7-9.5,22.21,22.21,0,0,1,7.6-6.7,20.23,20.23,0,0,1,9.9-2.5,20.76,20.76,0,0,1,12.9,4.4l-6,30.79L29.7,51A21.64,21.64,0,0,1,28.6,40.86Z"/><path d="M10,108v72H170V108Zm57.39,46.7a16.26,16.26,0,0,1-6.74,6.9A21.48,21.48,0,0,1,50.18,164H36V124H50.29a21.37,21.37,0,0,1,10.4,2.39,16.29,16.29,0,0,1,6.71,6.87,25.68,25.68,0,0,1,0,21.44ZM103,164H76V124h27v7H84.45v9.53h17.11v7H84.45V157H103Zm29.19,0H121.32l-13.81-40h9.39l9.67,30.39h.37L136.63,124H146Z"/><path d="M49.85,131.25H44.46v25.5h5.37q5.64,0,8.56-3T61.31,144q0-6.66-2.92-9.69C56.44,132.26,53.6,131.25,49.85,131.25Z"/>
</svg>