<?xml version="1.0" standalone="no"?>
<!DOCTYPE svg PUBLIC "-//W3C//DTD SVG 20010904//EN"
 "http://www.w3.org/TR/2001/REC-SVG-20010904/DTD/svg10.dtd">
<svg version="1.0" xmlns="http://www.w3.org/2000/svg"
 width="305.000000pt" height="305.000000pt" viewBox="0 0 305.000000 305.000000"
 preserveAspectRatio="xMidYMid meet">
<metadata>
Created by potrace 1.11, written by Peter Selinger 2001-2013
</metadata>
<g transform="translate(0.000000,305.000000) scale(0.100000,-0.100000)"
fill="#000000" stroke="none">
<path d="M1611 2890 c-148 -40 -291 -131 -388 -246 l-42 -50 -57 -295 -56
-294 68 -139 69 -139 328 -149 329 -148 31 26 c18 15 170 148 339 296 l306
269 7 82 c29 348 -182 660 -525 777 -96 33 -306 38 -409 10z"/>
<path d="M771 2660 c-160 -33 -279 -170 -288 -333 -3 -45 0 -87 9 -112 l13
-40 224 -52 c124 -30 227 -50 231 -46 4 5 28 122 54 261 55 288 58 263 -39
301 -63 24 -147 32 -204 21z"/>
<path d="M386 2038 c-116 -64 -215 -186 -251 -312 -22 -76 -17 -239 10 -306
46 -114 136 -216 237 -270 l59 -32 82 75 c45 40 188 169 317 286 129 117 236
216 238 221 2 4 -23 64 -56 132 l-58 123 -250 58 c-137 32 -253 57 -259 57 -5
0 -36 -15 -69 -32z"/>
<path d="M2268 1632 l-327 -287 69 -129 68 -130 254 -59 253 -59 60 30 c113
56 207 161 255 287 33 86 34 233 2 328 -24 67 -84 158 -138 209 -33 31 -143
98 -158 97 -6 0 -158 -129 -338 -287z"/>
<path d="M843 1331 c-175 -158 -324 -295 -331 -303 -19 -23 -26 -171 -13 -258
70 -446 501 -735 936 -625 33 8 103 36 155 62 77 39 111 64 181 133 54 53 90
98 97 120 6 19 34 156 62 303 l51 268 -74 142 -75 142 -318 145 c-176 80 -327
149 -336 152 -13 5 -99 -67 -335 -281z"/>
<path d="M2036 721 c-26 -138 -46 -258 -43 -266 4 -8 30 -27 59 -42 47 -25 64
-28 148 -28 82 0 103 4 151 26 77 36 130 87 169 161 28 53 35 76 38 144 3 46
-1 96 -7 115 l-11 34 -212 49 c-117 27 -220 51 -228 53 -13 4 -24 -41 -64
-246z"/>
</g>
</svg>
