<svg xmlns="http://www.w3.org/2000/svg" width="120" height="120" fill="none"><path fill="#153385" stroke="#101c3f" stroke-miterlimit="10" stroke-width=".938" d="m95.794 49.022-.028 55.125c0 1.65-1.341 3-3 3H20.38c-1.65 0-3-1.341-3-3l.019-54.328h-.028l-.028-5.466c0-1.66 1.34-3.01 3-3.01h21.768a2.99 2.99 0 0 1 2.925 2.344 2.99 2.99 0 0 0 2.925 2.344h44.832c1.65 0 3 1.34 3 3z"/><path fill="#fff" stroke="#101c3f" stroke-linecap="round" stroke-linejoin="round" stroke-width=".938" d="M98.634 37.96 80.766 20.024H28.763v74.1h69.871z"/><path fill="#48efcf" stroke="#101c3f" stroke-linejoin="round" stroke-width=".938" d="M80.738 20.025v18.234l17.896-.3z"/><path fill="#101c3f" d="m80.738 38.587 17.896 5.278V38.26z"/><path fill="#0b64dd" stroke="#101c3f" stroke-miterlimit="10" stroke-width=".938" d="m17.981 106.294 14.925-38.55a7.34 7.34 0 0 1 6.835-4.688h65.728c3.243 0 5.456 3.272 4.265 6.281l-15.028 37.8H18.403a.537.537 0 0 1-.431-.853z"/><path fill="#101c3f" stroke="#101c3f" stroke-miterlimit="10" stroke-width=".938" d="M66.206 43.21V7.968h-9.084v35.24h-7.885l12.075 10.613 12.432-10.613z"/><path fill="#101c3f" d="M61.313 54.422h-1.988v-2.269h1.931z"/><path fill="#fff" stroke="#101c3f" stroke-miterlimit="10" stroke-width=".938" d="M64.219 43.21V7.968h-9.085v35.24H47.25l12.075 10.613 12.431-10.613z"/></svg>