<svg xmlns="http://www.w3.org/2000/svg" width="64" height="64"><g transform="matrix(.571361 0 0 .571361 -1.714043 -1.713935)"><path d="M32.6 67.4H3.044l.017.433.05.833.022.356.08.962.02.215.115 1.065a1.16 1.16 0 0 0 .011.103l.15 1.144c.342 2.37.85 4.704 1.53 6.998l.01.03.353 1.14.02.063.325.968.086.244.304.837.143.378.27.7.213.52.226.54.3.658.175.4.368.787.122.252.443.895.07.137.54 1.025.115.2L34.447 74c-.996-2.1-1.616-4.332-1.846-6.6zM4.44 80.962l.008.027.954-.3z" fill="#93d500"/><path d="M39.865 80.977l-20.9 20.89.323.298.893.792.71.602.192.16.812.654.105.083.894.686a.23.23 0 0 1 .034.025l3.895 2.633.14.085.767.453.47.268.446.25.814.44.113.06 2.303 1.118 11.247-27.32c-1.142-.61-2.238-1.334-3.27-2.18z" fill="#4d5a31"/><path d="M37.697 78.904l-.65-.765-.54-.697-.578-.818-.54-.843-25.276 15.225 1.302 2.045.105.154.006.01 1.358 1.914.03.04.03.04.614.8.737.915.158.19.604.713.266.302.524.6.297.322.135.146.4.42.16.164.7.716 20.85-20.85-.683-.73z" fill="#6ba43a"/><path d="M65.334 80.966l-.697.54.052.087 15.202 25.235 2.08-1.432c1.47-1.085 2.895-2.26 4.267-3.527l-20.822-20.82z" fill="#4d5a31"/><g fill="#93d500"><path d="M77.97 108.03l.034-.02-.001-.001-.033.02zm-.015.01h.001 0z"/><path d="M78.003 108l.2-.1-.004-.007-.196.117zm-.043.035l.01-.005z"/><path d="M77.955 108.04h.001l-.037-.062zm.015-.01l.034-.018-.034.018zm-.02.01l-.01.005.01-.004z"/><path d="M77.95 108.04v.001l.005-.003h-.001z"/><path d="M77.96 108.035l-.006.003.015-.01zm.044-.023l.198-.112-.198.112zm.198-.112l-.004-.007zm-.268.15h.002z"/><path d="M77.942 108.047l-.006.003.006-.003z"/><path d="M77.682 107.036l-14.706-24.4-.874.487-.896.45a20.15 20.15 0 0 1-8.632 1.953 20.1 20.1 0 0 1-5.742-.838l-.945-.332-.944-.335-11.226 27.265.082.03.086.033h.001l.022.01 2.155.825a49.94 49.94 0 0 0 10.12 2.422 17.83 17.83 0 0 1 .404.054l1.222.133.198.017.98.082.333.02.858.05.526.02.682.024 1.218.015a49.76 49.76 0 0 0 8.233-.686l.138-.02.864-.157.5-.095.505-.106.842-.185.152-.035a49.85 49.85 0 0 0 11.897-4.436l.001-.001.73-.4 1.483-.836-.024-.07.037.063.048-.028.195-.117zM39.876 49.852l.697-.54-.052-.087L25.32 24l-2.085 1.436c-1.47 1.082-2.893 2.257-4.262 3.522L39.795 49.77z"/></g><path d="M17.53 30.334l-1.384 1.445c-1.538 1.665-2.944 3.4-4.212 5.22l-.182.26-.423.625-.43.656-.156.24a49.48 49.48 0 0 0-7.7 24.627l-.027 1-.017 1h29.488l.048-1 .055-1a20.01 20.01 0 0 1 4.447-10.74c.2-.256.447-.496.672-.743s.432-.504.67-.742zm60.843-7.32l-.122-.073-.783-.465-.457-.26-.46-.256-.8-.432-.126-.066c-1.73-.904-3.505-1.7-5.318-2.4l-.14-.054-1.2-.433c-3.22-1.125-6.552-1.914-9.936-2.358l-.415-.056-.415-.046-.8-.087-.224-.02-.953-.08-1.2-.073-.434-.017v29.56c1.517.157 3.02.48 4.478.975L80.83 24.63a48.97 48.97 0 0 0-2.464-1.614z" fill="#4d5a31"/><path d="M27.53 23.78l-.516-.857zm-.53-.86l.003.005zm24.606-7.095l-1 .02c-2.086.084-4.168.297-6.233.643l-.136.023-.865.157-.5.094-.508.106-.84.184-.153.034a49.89 49.89 0 0 0-11.898 4.438l-2.47 1.394.003.005 15.22 25.27.874-.487a19.71 19.71 0 0 1 .895-.451 20.05 20.05 0 0 1 6.601-1.85l1-.08 1-.034.001-29.487c-.334-.001-.667.013-1 .02z" fill="#6ba43a"/><path d="M102.15 62.97l-.048-.795-.026-.397-.077-.934-.02-.242-.11-1.043-.01-.084-.005-.04-.15-1.124c-.001-.01-.002-.025-.005-.035a49.56 49.56 0 0 0-1.524-6.972l-.014-.044-.328-1.063-.045-.14-.32-.954-.09-.258-.3-.823-.15-.39-.265-.678-.218-.534-.22-.526-.294-.67-.17-.378-.373-.797-.116-.242-.448-.906-.065-.125-.52-1c-.007-.01-.012-.024-.02-.035-.86-1.58-1.802-3.108-2.822-4.578L71.632 58.93a20.5 20.5 0 0 1 .974 4.477h29.56l-.016-.437z" fill="#4d5a31"/><path d="M72.722 65.408l-.048 1-.055 1c-.38 3.84-1.863 7.6-4.446 10.74-.2.256-.447.496-.672.743s-.432.504-.67.742l20.85 20.85c.237-.237.46-.482.69-.723l.69-.723c1.543-1.67 2.953-3.42 4.224-5.236l.148-.214.458-.673.395-.605.2-.295c4.782-7.51 7.34-16.02 7.685-24.607l.027-1 .017-1H72.722z" fill="#6ba43a"/><path d="M110.967 7.046c-5.395-5.395-14.142-5.395-19.536 0-4.304 4.303-5.164 10.736-2.6 15.902L58.74 53.04c-5.166-2.562-11.6-1.703-15.903 2.6a13.82 13.82 0 0 0 0 19.537 13.82 13.82 0 0 0 19.538-.001c4.303-4.303 5.162-10.736 2.6-15.903l30.09-30.09c5.167 2.562 11.6 1.703 15.902-2.6 5.396-5.393 5.396-14.14.001-19.535z" fill="#424143"/></g></svg>