<svg width="16" height="16" viewBox="0 0 16 16" fill="none" xmlns="http://www.w3.org/2000/svg">
<g clip-path="url(#clip0_5353_24185)">
<path fill-rule="evenodd" clip-rule="evenodd" d="M14.4072 1.29102L4.40723 15.291L3.59277 14.709L4.81641 12.9951C2.14006 12.8985 0 10.6999 0 8C0 5.23858 2.23858 3 5 3H11C11.3063 3 11.6067 3.02721 11.8984 3.08008L13.5928 0.708984L14.4072 1.29102ZM5 4C2.79086 4 1 5.79086 1 8C1 10.2091 2.79086 12 5 12H5.52734L6.55469 10.5615C6.10084 10.8376 5.57003 11 5 11C3.34315 11 2 9.65685 2 8C2 6.34315 3.34315 5 5 5C6.65685 5 8 6.34315 8 8C8 8.21754 7.97562 8.4294 7.93164 8.63379L11.2363 4.00684C11.1582 4.0023 11.0794 4 11 4H5ZM5 6C3.89543 6 3 6.89543 3 8C3 9.10457 3.89543 10 5 10C6.10457 10 7 9.10457 7 8C7 6.89543 6.10457 6 5 6Z" fill="#5A6D8C"/>
<path d="M13.8896 3.91895C15.1655 4.82396 16 6.31472 16 8C16 10.7614 13.7614 13 11 13H8V12H11C13.2091 12 15 10.2091 15 8C15 6.65264 14.3342 5.46092 13.3115 4.73535L13.8896 3.91895Z" fill="#5A6D8C"/>
</g>
<defs>
<clipPath id="clip0_5353_24185">
<rect width="16" height="16" fill="white"/>
</clipPath>
</defs>
</svg>


