<svg width="32" height="32" viewBox="0 0 32 32" fill="none" xmlns="http://www.w3.org/2000/svg">
<g clip-path="url(#clip0_5810_208)">
<path d="M11 8V31H13V8H11Z" fill="#0B64DD"/>
<path d="M1 10H31V8H1V10Z" fill="#0B64DD"/>
<path d="M29 0C30.6563 0 32 1.34372 32 3V29C32 30.6563 30.6563 32 29 32H3C1.34372 32 0 30.6563 0 29V3C0 1.34372 1.34372 0 3 0H29ZM3 2C2.44828 2 2 2.44828 2 3V29C2 29.5517 2.44828 30 3 30H29C29.5517 30 30 29.5517 30 29V3C30 2.44828 29.5517 2 29 2H3Z" fill="#101C3F"/>
<path d="M5 6H8V4H5V6Z" fill="#101C3F"/>
<path d="M11 6H14V4H11V6Z" fill="#101C3F"/>
<path d="M8 13H5V15H8V13Z" fill="#0B64DD"/>
<path d="M8 18H5V20H8V18Z" fill="#0B64DD"/>
<path d="M16.7583 14.7575C19.1009 12.4139 22.9002 12.4138 25.2427 14.7575C27.586 17.101 27.586 20.9007 25.2427 23.2428C22.9001 25.5864 19.1004 25.5861 16.7583 23.2428C14.4146 20.9003 14.4149 17.1008 16.7583 14.7575ZM23.8286 16.1715C22.267 14.6091 19.734 14.6091 18.1724 16.1715C16.6099 17.734 16.6097 20.2669 18.1724 21.8288C19.7338 23.3909 22.2668 23.3904 23.8286 21.8278C25.3905 20.2664 25.3907 17.7339 23.8286 16.1715Z" fill="#101C3F"/>
<path d="M23.8282 23.2428L26.6572 26.0708L28.0712 24.6564L25.2422 21.8284L23.8282 23.2428Z" fill="#101C3F"/>
</g>
<defs>
<clipPath id="clip0_5810_208">
<rect width="32" height="32" fill="white"/>
</clipPath>
</defs>
</svg>
