<svg width="24" height="24" viewBox="0 0 24 24" fill="none" xmlns="http://www.w3.org/2000/svg">
<g clip-path="url(#clip0_4468_112744)">
<path fill-rule="evenodd" clip-rule="evenodd" d="M21 0.75H3C1.75736 0.75 0.75 1.75736 0.75 3V4.5C0.75 5.74264 1.75736 6.75 3 6.75H21C22.2426 6.75 23.25 5.74264 23.25 4.5V3C23.25 1.75736 22.2426 0.75 21 0.75ZM2.25 3C2.25 2.58579 2.58579 2.25 3 2.25H21C21.4142 2.25 21.75 2.58579 21.75 3V4.5C21.75 4.91421 21.4142 5.25 21 5.25H3C2.58579 5.25 2.25 4.91421 2.25 4.5V3Z" fill="#535766"/>
<path fill-rule="evenodd" clip-rule="evenodd" d="M9 8.25H3C1.75736 8.25 0.75 9.25736 0.75 10.5V12.75C0.75 13.9926 1.75736 15 3 15H9C10.2426 15 11.25 13.9926 11.25 12.75V10.5C11.25 9.25736 10.2426 8.25 9 8.25ZM2.25 10.5C2.25 10.0858 2.58579 9.75 3 9.75H9C9.41421 9.75 9.75 10.0858 9.75 10.5V12.75C9.75 13.1642 9.41421 13.5 9 13.5H3C2.58579 13.5 2.25 13.1642 2.25 12.75V10.5Z" fill="#59CFAA"/>
<path fill-rule="evenodd" clip-rule="evenodd" d="M9 16.5H3C1.75736 16.5 0.75 17.5074 0.75 18.75V21C0.75 22.2426 1.75736 23.25 3 23.25H9C10.2426 23.25 11.25 22.2426 11.25 21V18.75C11.25 17.5074 10.2426 16.5 9 16.5ZM2.25 18.75C2.25 18.3358 2.58579 18 3 18H9C9.41421 18 9.75 18.3358 9.75 18.75V21C9.75 21.4142 9.41421 21.75 9 21.75H3C2.58579 21.75 2.25 21.4142 2.25 21V18.75Z" fill="#535766"/>
<path fill-rule="evenodd" clip-rule="evenodd" d="M21 8.25H15C13.7574 8.25 12.75 9.25736 12.75 10.5V21C12.75 22.2426 13.7574 23.25 15 23.25H21C22.2426 23.25 23.25 22.2426 23.25 21V10.5C23.25 9.25736 22.2426 8.25 21 8.25ZM14.25 10.5C14.25 10.0858 14.5858 9.75 15 9.75H21C21.4142 9.75 21.75 10.0858 21.75 10.5V21C21.75 21.4142 21.4142 21.75 21 21.75H15C14.5858 21.75 14.25 21.4142 14.25 21V10.5Z" fill="#59CFAA"/>
</g>
<defs>
<clipPath id="clip0_4468_112744">
<rect width="24" height="24" fill="white"/>
</clipPath>
</defs>
</svg>
