<svg width="24" height="25" viewBox="0 0 24 25" fill="none" xmlns="http://www.w3.org/2000/svg">
<g clip-path="url(#clip0_9989_57013)">
<path fill-rule="evenodd" clip-rule="evenodd" d="M20.9999 0.969971H2.99988C1.75724 0.969971 0.749878 1.97733 0.749878 3.21997V4.71997C0.749878 5.96261 1.75724 6.96997 2.99988 6.96997H20.9999C22.2425 6.96997 23.2499 5.96261 23.2499 4.71997V3.21997C23.2499 1.97733 22.2425 0.969971 20.9999 0.969971ZM2.24988 3.21997C2.24988 2.80576 2.58566 2.46997 2.99988 2.46997H20.9999C21.4141 2.46997 21.7499 2.80576 21.7499 3.21997V4.71997C21.7499 5.13418 21.4141 5.46997 20.9999 5.46997H2.99988C2.58566 5.46997 2.24988 5.13418 2.24988 4.71997V3.21997Z" fill="#98A2B3"/>
<path fill-rule="evenodd" clip-rule="evenodd" d="M8.99988 8.46997H2.99988C1.75724 8.46997 0.749878 9.47733 0.749878 10.72V12.97C0.749878 14.2126 1.75724 15.22 2.99988 15.22H8.99988C10.2425 15.22 11.2499 14.2126 11.2499 12.97V10.72C11.2499 9.47733 10.2425 8.46997 8.99988 8.46997ZM2.24988 10.72C2.24988 10.3058 2.58566 9.96997 2.99988 9.96997H8.99988C9.41409 9.96997 9.74988 10.3058 9.74988 10.72V12.97C9.74988 13.3842 9.41409 13.72 8.99988 13.72H2.99988C2.58566 13.72 2.24988 13.3842 2.24988 12.97V10.72Z" fill="#24C292"/>
<path fill-rule="evenodd" clip-rule="evenodd" d="M8.99988 16.72H2.99988C1.75724 16.72 0.749878 17.7273 0.749878 18.97V21.22C0.749878 22.4626 1.75724 23.47 2.99988 23.47H8.99988C10.2425 23.47 11.2499 22.4626 11.2499 21.22V18.97C11.2499 17.7273 10.2425 16.72 8.99988 16.72ZM2.24988 18.97C2.24988 18.5558 2.58566 18.22 2.99988 18.22H8.99988C9.41409 18.22 9.74988 18.5558 9.74988 18.97V21.22C9.74988 21.6342 9.41409 21.97 8.99988 21.97H2.99988C2.58566 21.97 2.24988 21.6342 2.24988 21.22V18.97Z" fill="#98A2B3"/>
<path fill-rule="evenodd" clip-rule="evenodd" d="M20.9999 8.46997H14.9999C13.7572 8.46997 12.7499 9.47733 12.7499 10.72V21.22C12.7499 22.4626 13.7572 23.47 14.9999 23.47H20.9999C22.2425 23.47 23.2499 22.4626 23.2499 21.22V10.72C23.2499 9.47733 22.2425 8.46997 20.9999 8.46997ZM14.2499 10.72C14.2499 10.3058 14.5857 9.96997 14.9999 9.96997H20.9999C21.4141 9.96997 21.7499 10.3058 21.7499 10.72V21.22C21.7499 21.6342 21.4141 21.97 20.9999 21.97H14.9999C14.5857 21.97 14.2499 21.6342 14.2499 21.22V10.72Z" fill="#24C292"/>
</g>
<defs>
<clipPath id="clip0_9989_57013">
<rect width="24" height="24" fill="white" transform="translate(-0.00012207 0.219971)"/>
</clipPath>
</defs>
</svg>
