<?xml version="1.0" encoding="UTF-8" standalone="no"?>
<!-- Created with Inkscape (http://www.inkscape.org/) -->

<svg
   xmlns:dc="http://purl.org/dc/elements/1.1/"
   xmlns:cc="http://creativecommons.org/ns#"
   xmlns:rdf="http://www.w3.org/1999/02/22-rdf-syntax-ns#"
   xmlns:svg="http://www.w3.org/2000/svg"
   xmlns="http://www.w3.org/2000/svg"
   xmlns:sodipodi="http://sodipodi.sourceforge.net/DTD/sodipodi-0.dtd"
   xmlns:inkscape="http://www.inkscape.org/namespaces/inkscape"
   width="120mm"
   height="120mm"
   viewBox="0 0 425.19685039 425.19685039"
   id="svg2816"
   version="1.1"
   inkscape:version="0.91 r13725"
   sodipodi:docname="icon.svg">
  <defs
     id="defs2818">
    <clipPath
       id="clipPath8447"
       clipPathUnits="userSpaceOnUse">
      <path
         inkscape:connector-curvature="0"
         id="path8449"
         d="m 0,440.426 600,0 L 600,0 0,0 0,440.426 Z" />
    </clipPath>
  </defs>
  <sodipodi:namedview
     pagecolor="#ffffff"
     bordercolor="#666666"
     borderopacity="1.0"
     inkscape:pageopacity="0.0"
     inkscape:pageshadow="2"
     inkscape:zoom="0.25"
     inkscape:cx="131.22671"
     inkscape:cy="378.13107"
     inkscape:document-units="mm"
     inkscape:current-layer="Template"
     id="namedview2820"
     showgrid="false"
     units="mm"
     showguides="true"
     inkscape:guide-bbox="true"
     inkscape:snap-global="true"
     inkscape:snap-bbox="true"
     inkscape:snap-bbox-midpoints="true"
     inkscape:window-width="1469"
     inkscape:window-height="956"
     inkscape:window-maximized="0"
     inkscape:bbox-paths="true"
     inkscape:bbox-nodes="true"
     inkscape:snap-bbox-edge-midpoints="true"
     inkscape:snap-grids="true"
     inkscape:window-x="262"
     inkscape:window-y="89">
    <sodipodi:guide
       orientation="1,0"
       position="212.59843,0"
       id="guide3337" />
    <sodipodi:guide
       orientation="0,1"
       position="0,212.59843"
       id="guide3339" />
    <inkscape:grid
       type="xygrid"
       id="grid3351"
       units="mm"
       spacingx="1mm"
       spacingy="1mm"
       empspacing="5" />
  </sodipodi:namedview>
  <metadata
     id="metadata2822">
    <rdf:RDF>
      <cc:Work
         rdf:about="">
        <dc:format>image/svg+xml</dc:format>
        <dc:type
           rdf:resource="http://purl.org/dc/dcmitype/StillImage" />
        <dc:title />
      </cc:Work>
    </rdf:RDF>
  </metadata>
  <g
     inkscape:groupmode="layer"
     id="Template"
     inkscape:label="Layer 1"
     style="fill:none;stroke:#000000;stroke-width:0.35433071px">
    <path
       style="fill:#ffffff;fill-opacity:1;stroke:none;stroke-width:0.40064034px"
       d="m 209.6407,362.20478 c -4.36099,-2.55829 -13.78108,-6.8533 -34.0989,-15.54732 -39.06576,-16.71622 -56.97935,-25.41524 -73.65158,-35.76583 -32.876573,-20.41064 -50.492193,-44.55737 -57.112683,-78.28753 -3.90418,-19.89138 -4.26362,-46.42828 -0.87837,-64.86257 9.79485,-53.33659 49.06517,-88.518957 113.141533,-101.363467 26.11797,-5.23555 58.52172,-6.54924 87.49914,-3.54734 40.50056,4.1956 73.24274,16.30963 97.07622,35.91644 2.3943,1.969667 6.70692,6.006827 9.58382,8.971487 18.37768,18.93853 28.71286,42.06703 31.75863,71.07053 0.86156,8.20407 0.87268,25.39764 0.0225,34.27646 -4.12393,43.04765 -23.17937,72.70484 -62.5332,97.32397 -16.48804,10.31462 -33.1982,18.65844 -71.77198,35.83766 -19.65286,8.7526 -27.07971,12.29849 -32.06957,15.31166 l -3.99139,2.41025 -2.97362,-1.7444 z m 16.61581,-30.83954 c 6.21879,-0.6269 13.90702,-1.98241 17.16301,-3.02599 7.65004,-2.45193 15.35597,-7.32545 21.74999,-13.75545 4.36785,-4.39244 4.67219,-4.60779 8.88333,-6.28548 29.54179,-11.76944 50.54133,-32.41269 59.49403,-58.48489 3.76013,-10.95006 5.39091,-24.03617 4.46341,-35.81416 -0.62848,-7.97852 -2.20415,-16.68975 -4.22436,-23.35465 -0.8411,-2.77487 -1.52916,-5.24801 -1.52916,-5.49585 0,-0.24787 1.17012,-2.84567 2.60044,-5.77289 9.08657,-18.59714 11.00383,-40.21568 5.26908,-59.41514 l -0.94403,-3.16055 -2.91865,-1.46767 c -13.46024,-6.76868 -41.19933,-8.38921 -59.9975,-3.50503 l -4.07662,1.05918 -7.5126,-3.66603 c -4.13212,-2.0163 -9.44428,-4.37728 -11.80502,-5.24659 -18.39089,-6.772157 -39.59036,-8.975217 -58.37676,-6.066487 -12.72592,1.97036 -27.85525,7.106727 -39.3204,13.349137 l -2.73641,1.48998 -3.79332,-1.0136 c -5.72376,-1.5294 -12.51289,-2.37359 -21.20606,-2.63688 -15.23585,-0.46142 -28.951913,1.75643 -37.655123,6.08871 l -3.70014,1.8419 -1.20146,4.35321 c -0.66072,2.39425 -1.50207,6.0183 -1.86942,8.0534 -0.95197,5.2724 -1.27703,15.81993 -0.66416,21.54831 1.03111,9.63768 4.19938,20.77041 8.14954,28.63546 l 1.99074,3.96397 -1.35249,4.37796 c -3.74269,12.11471 -5.0217,20.50022 -5.01682,32.89136 0,10.58347 0.79894,16.47907 3.47603,25.78424 7.9747,27.71749 30.987313,50.56942 63.080523,62.63992 3.61017,1.35781 4.15459,1.72878 7.17592,4.88936 4.1436,4.33454 8.94648,7.91367 14.33066,10.67933 6.08466,3.12541 10.11886,4.3352 18.52568,5.55543 12.61161,1.83049 22.22834,2.10754 33.54812,0.96648 z m -21.33069,-13.27717 c -4.23242,-0.34539 -15.2702,-1.9431 -17.78553,-2.57441 -2.77753,-0.69716 -8.47344,-3.42229 -11.48789,-5.4963 -2.98683,-2.05498 -7.31386,-6.29034 -8.81236,-8.62552 -1.22681,-1.9117 -1.66884,-2.23081 -4.27773,-3.08812 -9.13599,-3.00201 -19.41488,-7.89116 -26.8523,-12.77224 -12.87021,-8.44651 -22.19952,-18.65815 -28.26991,-30.94376 -5.35815,-10.84393 -7.21027,-18.57752 -7.535733,-31.46651 -0.34346,-13.59723 1.361603,-23.62058 6.253143,-36.76019 l 1.57647,-4.23478 -1.96034,-3.16565 c -4.49327,-7.25618 -7.527673,-15.34323 -9.039523,-24.09116 -1.45094,-8.39587 -1.10909,-21.78287 0.70761,-27.71208 0.29708,-0.96953 4.240223,-2.19187 10.433253,-3.23432 6.83233,-1.15004 26.9033,-1.15566 32.62351,-0.011 4.96884,0.99592 7.98383,1.86342 10.80798,3.1098 l 2.23627,0.98694 1.71825,-1.08464 c 9.35878,-5.90792 21.90909,-11.15201 33.12262,-13.84016 26.32741,-6.31125 54.59297,-1.66422 78.96917,12.98302 3.46282,2.08079 3.73094,2.16889 5.00611,1.64465 8.97041,-3.68787 12.84974,-4.39903 25.55517,-4.68482 12.54687,-0.28222 20.1077,0.45664 27.67793,2.7048 2.13674,0.63451 2.17903,0.68113 2.66439,2.93416 1.61994,7.51842 1.75156,18.64494 0.3141,26.54117 -1.59813,8.77815 -5.05909,17.7038 -9.47704,24.44054 l -2.2422,3.41907 2.04227,5.94029 c 3.90351,11.35311 5.53296,20.79223 5.51948,31.97289 -0.0237,20.14476 -6.62631,37.03627 -20.10716,51.44489 -9.54497,10.20187 -23.79516,19.18458 -39.01052,24.59046 -4.47107,1.58854 -4.70906,1.73822 -6.23108,3.91947 -4.21061,6.03457 -11.94614,11.74481 -19.09523,14.09576 -5.16533,1.69859 -15.10752,2.95282 -24.59554,3.10277 -4.54916,0.0719 -9.25056,0.0509 -10.44764,-0.0469 z m 16.10681,-31.5171 c 17.83179,-1.66583 30.14926,-6.91869 33.39614,-14.24209 1.81076,-4.08411 1.50367,-10.01892 -0.78903,-15.24649 -3.31004,-7.54734 -12.51355,-16.74227 -22.3199,-22.29895 -6.38741,-3.6194 -14.5183,-6.09721 -20.00779,-6.09721 -6.10133,0 -15.62859,3.59885 -23.5626,8.90061 -14.32894,9.57518 -22.37778,23.37612 -19.55758,33.53464 1.4648,5.27622 7.65268,9.6284 17.87883,12.57496 9.61025,2.76909 23.69473,3.9271 34.96193,2.87453 z m -5.20645,-81.61221 c 3.88924,-0.98267 10.04618,-4.22195 13.47755,-7.09075 9.53109,-7.96873 11.66046,-17.26906 5.05818,-22.09257 -10.42266,-7.61478 -39.30203,-6.80515 -47.19612,1.32315 -1.78461,1.83743 -2.24618,3.47141 -1.95904,6.93362 0.52858,6.37431 7.25454,14.06505 16.23697,18.56583 5.9652,2.98898 9.5603,3.57909 14.38246,2.36072 z m -49.57576,-37.66301 c 0.99517,-0.42633 2.59939,-1.58927 3.56509,-2.58434 1.89506,-1.9528 3.51844,-5.44624 2.84412,-6.12058 -0.4062,-0.40627 -20.09581,-8.69739 -20.65425,-8.69739 -0.16439,0 -0.71489,0.96679 -1.22325,2.14846 -4.15656,9.66234 5.73991,19.42163 15.46829,15.25385 z m 95.79985,-0.27553 c 3.86849,-1.82529 6.64983,-6.07481 6.64983,-10.16021 0,-2.0096 -1.12386,-5.83823 -1.90378,-6.48549 -0.88654,-0.7357 -21.1626,7.67899 -21.16591,8.78392 0,1.31529 2.05761,4.92491 3.51105,6.14792 3.97395,3.34379 8.25076,3.91162 12.90881,1.71386 z"
       id="path5301"
       inkscape:connector-curvature="0" />
  </g>
</svg>
