<svg width="16" height="7" viewBox="0 0 16 7" fill="none" xmlns="http://www.w3.org/2000/svg">
<path d="M0 0V0.44H3.11556V0H0ZM3.55556 0V0.44H7.99556C7.99556 0.44 7.54222 0 6.94222 0H3.55556ZM8.86222 0V0.44H11.5467L11.3867 0H8.86222ZM13.4756 0L13.3156 0.44H15.9778V0H13.4756ZM0 0.853333V1.29333H3.11556V0.853333H0ZM3.55556 0.853333V1.28889H8.50667C8.50667 1.28889 8.44889 0.951111 8.34667 0.853333H3.55556ZM8.86222 0.853333V1.28889H11.84L11.6933 0.853333H8.86222ZM13.1556 0.853333L13.0089 1.28889H15.9778V0.853333H13.1556ZM0.893333 1.70222V2.14222H2.24V1.70222H0.893333ZM4.44889 1.70222V2.14222H5.79556V1.70222H4.44889ZM7.11111 1.70222V2.14222H8.45778C8.45778 2.14222 8.54222 1.91111 8.54222 1.70222H7.11111ZM9.76 1.70222V2.14222H12.1511L11.9911 1.70222H9.76ZM12.8622 1.70222L12.7022 2.14222H15.1067V1.70222H12.8622ZM0.893333 2.55556V2.99556H2.24V2.55556H0.893333ZM4.44889 2.55556V2.99556H7.89333C7.89333 2.99556 8.18222 2.76889 8.27556 2.55556H4.44889ZM9.76 2.55556V2.99556H11.1067V2.75111L11.1911 2.99556H13.6622L13.7556 2.75111V2.99556H15.1022V2.55556H12.5689L12.4356 2.92444L12.3022 2.55556H9.76ZM0.893333 3.40889V3.84889H2.24V3.40889H0.893333V3.40889ZM4.44889 3.40889V3.84889H8.27556C8.18222 3.63556 7.89333 3.40889 7.89333 3.40889H4.44889V3.40889ZM9.76 3.40889V3.84889H11.1067V3.40889H9.76V3.40889ZM11.3511 3.40889L11.5156 3.84889H13.3689L13.5244 3.40889H11.3511V3.40889ZM13.7556 3.40889V3.84889H15.1022V3.40889H13.7556V3.40889ZM0.893333 4.25778V4.69778H2.24V4.25778H0.893333ZM4.44889 4.25778V4.69778H5.79556V4.25778H4.44889ZM7.11111 4.25778V4.69778H8.54667C8.54667 4.49333 8.46222 4.25778 8.46222 4.25778H7.11111ZM9.76 4.25778V4.69778H11.1067V4.25778H9.76ZM11.6578 4.25778L11.8178 4.69778H13.0578L13.2178 4.25778H11.6578ZM13.7556 4.25778V4.69778H15.1022V4.25778H13.7556ZM0.0222222 5.11111V5.55111H3.13778V5.11111H0.0222222ZM3.55556 5.11111V5.55111H8.35111C8.45333 5.44889 8.51111 5.11111 8.51111 5.11111H3.55556ZM8.88889 5.11111V5.55111H11.1067V5.11111H8.88889ZM11.9644 5.11111L12.1289 5.55111H12.76L12.9111 5.11111H11.9644ZM13.7556 5.11111V5.55111H16V5.11111H13.7556ZM0.0222222 5.96V6.4H3.13778V5.96H0.0222222ZM3.55556 5.96V6.39556H6.93778C7.53778 6.39556 7.99111 5.96 7.99111 5.96H3.55556ZM8.88889 5.96V6.4H11.1067V5.96H8.88889ZM12.2756 5.96L12.4311 6.39556H12.4578L12.6178 5.96H12.2756ZM13.7556 5.96V6.4H16V5.96H13.7556Z" fill="#1F70C1"/>
</svg>
