<?xml version="1.0" encoding="UTF-8"?>
<svg width="78px" height="41px" viewBox="0 0 78 41" version="1.1" xmlns="http://www.w3.org/2000/svg" xmlns:xlink="http://www.w3.org/1999/xlink">
    <!-- Generator: Sketch 42 (36781) - http://www.bohemiancoding.com/sketch -->
    <title>icon-tagcloud</title>
    <desc>Created with Sketch.</desc>
    <defs></defs>
    <g id="Visualize" stroke="none" stroke-width="1" fill="none" fill-rule="evenodd">
        <g id="Visualize-Create-New" transform="translate(-754.000000, -655.000000)" fill="#000000">
            <g id="other" transform="translate(555.000000, 576.000000)">
                <g id="tag-cloud" transform="translate(161.000000, 44.000000)">
                    <g id="icon-tagcloud" transform="translate(38.000000, 35.000000)">
                        <path d="M9.70703125,28 L9.70703125,14.4365234 L12.5830078,14.4365234 L12.5830078,25.625 L18.0844727,25.625 L18.0844727,28 L9.70703125,28 Z M26.8051758,28 L26.2578125,26.5898438 L26.1835938,26.5898438 C25.7073544,27.1897816 25.2172063,27.6057117 24.7131348,27.8376465 C24.2090632,28.0695812 23.5519246,28.1855469 22.7416992,28.1855469 C21.745926,28.1855469 20.9619983,27.9010445 20.3898926,27.3320312 C19.8177869,26.763018 19.5317383,25.9528047 19.5317383,24.9013672 C19.5317383,23.8004502 19.9167442,22.9886908 20.6867676,22.4660645 C21.456791,21.9434381 22.6179935,21.6542972 24.1704102,21.5986328 L25.9702148,21.5429688 L25.9702148,21.0883789 C25.9702148,20.0369414 25.4321343,19.5112305 24.355957,19.5112305 C23.5271768,19.5112305 22.5530655,19.7617162 21.4335938,20.2626953 L20.496582,18.3515625 C21.6902729,17.7268849 23.0138274,17.4145508 24.4672852,17.4145508 C25.8588937,17.4145508 26.9257775,17.7176076 27.6679688,18.3237305 C28.41016,18.9298533 28.78125,19.8513936 28.78125,21.0883789 L28.78125,28 L26.8051758,28 Z M25.9702148,23.1943359 L24.8754883,23.2314453 C24.052893,23.256185 23.4405945,23.404621 23.0385742,23.6767578 C22.636554,23.9488946 22.4355469,24.3632785 22.4355469,24.9199219 C22.4355469,25.7177774 22.8932246,26.1166992 23.8085938,26.1166992 C24.464196,26.1166992 24.9883607,25.9280618 25.3811035,25.5507812 C25.7738464,25.1735007 25.9702148,24.6725292 25.9702148,24.0478516 L25.9702148,23.1943359 Z M37.4833984,17.4331055 C37.8668639,17.4331055 38.1853828,17.4609372 38.4389648,17.5166016 L38.2255859,20.1699219 C37.9967436,20.1080726 37.7184261,20.0771484 37.390625,20.0771484 C36.4876257,20.0771484 35.7841008,20.3090797 35.2800293,20.7729492 C34.7759578,21.2368187 34.5239258,21.8862263 34.5239258,22.7211914 L34.5239258,28 L31.6943359,28 L31.6943359,17.6279297 L33.8374023,17.6279297 L34.2548828,19.3720703 L34.394043,19.3720703 C34.7156592,18.7906872 35.1501437,18.322186 35.6975098,17.9665527 C36.2448758,17.6109194 36.8401661,17.4331055 37.4833984,17.4331055 Z M49.1635742,17.6279297 L49.1635742,19.065918 L47.5400391,19.4833984 C47.8369155,19.9472679 47.9853516,20.466794 47.9853516,21.0419922 C47.9853516,22.155279 47.5972532,23.022702 46.8210449,23.6442871 C46.0448366,24.2658722 44.9671293,24.5766602 43.5878906,24.5766602 L43.0776367,24.5488281 L42.6601562,24.5024414 C42.3694647,24.7250988 42.2241211,24.9724921 42.2241211,25.2446289 C42.2241211,25.6528341 42.7436471,25.8569336 43.7827148,25.8569336 L45.5454102,25.8569336 C46.6834367,25.8569336 47.5508596,26.1012345 48.1477051,26.5898438 C48.7445505,27.078453 49.0429688,27.7958937 49.0429688,28.7421875 C49.0429688,29.9544331 48.5373586,30.8945279 47.526123,31.5625 C46.5148875,32.2304721 45.0629977,32.5644531 43.1704102,32.5644531 C41.7231373,32.5644531 40.6175982,32.3124211 39.8537598,31.8083496 C39.0899213,31.3042781 38.7080078,30.5976608 38.7080078,29.6884766 C38.7080078,29.063799 38.9028301,28.5411805 39.2924805,28.1206055 C39.6821309,27.7000304 40.254228,27.400066 41.0087891,27.2207031 C40.7180975,27.0970046 40.4645193,26.8944513 40.2480469,26.6130371 C40.0315744,26.3316229 39.9233398,26.0332047 39.9233398,25.7177734 C39.9233398,25.3219381 40.0377593,24.9925957 40.2666016,24.7297363 C40.4954439,24.4668769 40.8263325,24.2086601 41.2592773,23.9550781 C40.7150038,23.7200509 40.2836116,23.342776 39.9650879,22.8232422 C39.6465642,22.3037083 39.4873047,21.6914098 39.4873047,20.9863281 C39.4873047,19.8544865 39.8553023,18.9793325 40.5913086,18.3608398 C41.3273149,17.7423472 42.3787367,17.4331055 43.7456055,17.4331055 C44.036297,17.4331055 44.3811015,17.459391 44.7800293,17.5119629 C45.1789571,17.5645348 45.4340815,17.60319 45.5454102,17.6279297 L49.1635742,17.6279297 Z M41.1572266,29.4658203 C41.1572266,29.8554707 41.3443178,30.16162 41.7185059,30.3842773 C42.0926939,30.6069347 42.6168586,30.7182617 43.2910156,30.7182617 C44.3053436,30.7182617 45.1000948,30.579103 45.675293,30.3007812 C46.2504912,30.0224595 46.5380859,29.6420923 46.5380859,29.159668 C46.5380859,28.7700176 46.368003,28.5009773 46.027832,28.3525391 C45.6876611,28.2041008 45.1619502,28.1298828 44.4506836,28.1298828 L42.9848633,28.1298828 C42.4653294,28.1298828 42.0308448,28.2520333 41.6813965,28.4963379 C41.3319481,28.7406425 41.1572266,29.0638001 41.1572266,29.4658203 Z M42.1870117,21.0234375 C42.1870117,21.5862658 42.315347,22.0315739 42.5720215,22.359375 C42.8286959,22.6871761 43.2198867,22.8510742 43.7456055,22.8510742 C44.2775092,22.8510742 44.6671537,22.6871761 44.9145508,22.359375 C45.1619479,22.0315739 45.2856445,21.5862658 45.2856445,21.0234375 C45.2856445,19.7740823 44.7723033,19.1494141 43.7456055,19.1494141 C42.7065378,19.1494141 42.1870117,19.7740823 42.1870117,21.0234375 Z M55.1660156,19.4462891 C54.5660777,19.4462891 54.0960303,19.6364727 53.7558594,20.0168457 C53.4156884,20.3972187 53.2208661,20.9368455 53.1713867,21.6357422 L57.1420898,21.6357422 C57.12972,20.9368455 56.9472674,20.3972187 56.5947266,20.0168457 C56.2421857,19.6364727 55.7659535,19.4462891 55.1660156,19.4462891 Z M55.5649414,28.1855469 C53.8950112,28.1855469 52.5900112,27.7247767 51.6499023,26.8032227 C50.7097935,25.8816686 50.2397461,24.5766686 50.2397461,22.8881836 C50.2397461,21.1502192 50.6742307,19.806564 51.5432129,18.8571777 C52.4121951,17.9077915 53.6135991,17.4331055 55.1474609,17.4331055 C56.6132886,17.4331055 57.7543904,17.8505818 58.5708008,18.6855469 C59.3872111,19.520512 59.7954102,20.6739835 59.7954102,22.1459961 L59.7954102,23.519043 L53.1064453,23.519043 C53.1373699,24.3230834 53.3754861,24.9508441 53.8208008,25.4023438 C54.2661155,25.8538434 54.8907837,26.0795898 55.6948242,26.0795898 C56.3195018,26.0795898 56.9101535,26.0146491 57.4667969,25.8847656 C58.0234403,25.7548822 58.6048147,25.5476902 59.2109375,25.2631836 L59.2109375,27.4526367 C58.7161434,27.7000338 58.1873401,27.8840326 57.6245117,28.0046387 C57.0616834,28.1252447 56.3751668,28.1855469 55.5649414,28.1855469 Z" id="Large"></path>
                        <path d="M24.7695312,40 L24.1132812,40 L22.9609375,36.1757812 C22.9062497,36.0065096 22.8450524,35.79297 22.7773438,35.5351562 C22.7096351,35.2773425 22.6744792,35.1223961 22.671875,35.0703125 C22.614583,35.4140642 22.5234381,35.7903625 22.3984375,36.1992188 L21.28125,40 L20.625,40 L19.1054688,34.2890625 L19.8085938,34.2890625 L20.7109375,37.8164062 C20.8359381,38.3112004 20.927083,38.7591126 20.984375,39.1601562 C21.0546879,38.6835914 21.1588535,38.2174502 21.296875,37.7617188 L22.3203125,34.2890625 L23.0234375,34.2890625 L24.0976562,37.7929688 C24.2226569,38.1966166 24.3281246,38.6523412 24.4140625,39.1601562 C24.4635419,38.7903627 24.557291,38.3398464 24.6953125,37.8085938 L25.59375,34.2890625 L26.296875,34.2890625 L24.7695312,40 Z M30.6289062,37.8554688 C30.6289062,38.5533889 30.4531268,39.0983053 30.1015625,39.4902344 C29.7499982,39.8821634 29.264326,40.078125 28.6445312,40.078125 C28.2617168,40.078125 27.9218765,39.9882821 27.625,39.8085938 C27.3281235,39.6289054 27.0989591,39.3710954 26.9375,39.0351562 C26.7760409,38.6992171 26.6953125,38.3059918 26.6953125,37.8554688 C26.6953125,37.1575486 26.8697899,36.6139342 27.21875,36.2246094 C27.5677101,35.8352845 28.0520802,35.640625 28.671875,35.640625 C29.2708363,35.640625 29.746743,35.8398418 30.0996094,36.2382812 C30.4524757,36.6367207 30.6289062,37.1757779 30.6289062,37.8554688 Z M27.3671875,37.8554688 C27.3671875,38.4023465 27.4765614,38.819009 27.6953125,39.1054688 C27.9140636,39.3919285 28.235675,39.5351562 28.6601562,39.5351562 C29.0846375,39.5351562 29.4068999,39.3925796 29.6269531,39.1074219 C29.8470063,38.8222642 29.9570312,38.4049507 29.9570312,37.8554688 C29.9570312,37.3111952 29.8470063,36.8977879 29.6269531,36.6152344 C29.4068999,36.3326809 29.0820334,36.1914062 28.6523438,36.1914062 C28.2278625,36.1914062 27.9075532,36.3307278 27.6914062,36.609375 C27.4752593,36.8880222 27.3671875,37.3033827 27.3671875,37.8554688 Z M33.71875,35.640625 C33.9088551,35.640625 34.0794263,35.6562498 34.2304688,35.6875 L34.140625,36.2890625 C33.9635408,36.2499998 33.8072923,36.2304688 33.671875,36.2304688 C33.3255191,36.2304688 33.0292981,36.3710923 32.7832031,36.6523438 C32.5371081,36.9335952 32.4140625,37.2838521 32.4140625,37.703125 L32.4140625,40 L31.765625,40 L31.765625,35.71875 L32.3007812,35.71875 L32.375,36.5117188 L32.40625,36.5117188 C32.565105,36.2330715 32.7565093,36.0182299 32.9804688,35.8671875 C33.2044282,35.7161451 33.4505195,35.640625 33.71875,35.640625 Z M37.7851562,39.4257812 L37.75,39.4257812 C37.4505193,39.8606793 37.0026071,40.078125 36.40625,40.078125 C35.8463514,40.078125 35.4108088,39.8867207 35.0996094,39.5039062 C34.7884099,39.1210918 34.6328125,38.5768264 34.6328125,37.8710938 C34.6328125,37.1653611 34.7890609,36.6171895 35.1015625,36.2265625 C35.4140641,35.8359355 35.8489555,35.640625 36.40625,35.640625 C36.9869821,35.640625 37.4322901,35.8515604 37.7421875,36.2734375 L37.7929688,36.2734375 L37.765625,35.9648438 L37.75,35.6640625 L37.75,33.921875 L38.3984375,33.921875 L38.3984375,40 L37.8710938,40 L37.7851562,39.4257812 Z M36.4882812,39.5351562 C36.9309918,39.5351562 37.2519521,39.4147147 37.4511719,39.1738281 C37.6503916,38.9329415 37.75,38.5442735 37.75,38.0078125 L37.75,37.8710938 C37.75,37.2643199 37.6490896,36.8313815 37.4472656,36.5722656 C37.2454417,36.3131497 36.9231793,36.1835938 36.4804688,36.1835938 C36.1002585,36.1835938 35.8092458,36.3313787 35.6074219,36.6269531 C35.4055979,36.9225275 35.3046875,37.3398411 35.3046875,37.8789062 C35.3046875,38.425784 35.4049469,38.8385403 35.6054688,39.1171875 C35.8059906,39.3958347 36.1002585,39.5351562 36.4882812,39.5351562 Z M42.5351562,38.8320312 C42.5351562,39.2304707 42.3867202,39.5377593 42.0898438,39.7539062 C41.7929673,39.9700532 41.3763048,40.078125 40.8398438,40.078125 C40.2721326,40.078125 39.8294287,39.9882821 39.5117188,39.8085938 L39.5117188,39.2070312 C39.7174489,39.3111984 39.9381499,39.3932289 40.1738281,39.453125 C40.4095064,39.5130211 40.6367177,39.5429688 40.8554688,39.5429688 C41.1940121,39.5429688 41.4544262,39.4889328 41.6367188,39.3808594 C41.8190113,39.2727859 41.9101562,39.108074 41.9101562,38.8867188 C41.9101562,38.7200512 41.8378913,38.5774746 41.6933594,38.4589844 C41.5488274,38.3404942 41.2669292,38.2005216 40.8476562,38.0390625 C40.4492168,37.8906243 40.1660165,37.7610683 39.9980469,37.6503906 C39.8300773,37.539713 39.7050785,37.4140632 39.6230469,37.2734375 C39.5410152,37.1328118 39.5,36.9648447 39.5,36.7695312 C39.5,36.4205712 39.6419257,36.1451833 39.9257812,35.9433594 C40.2096368,35.7415354 40.5989559,35.640625 41.09375,35.640625 C41.5546898,35.640625 42.0052061,35.7343741 42.4453125,35.921875 L42.2148438,36.4492188 C41.7851541,36.2721345 41.3958351,36.1835938 41.046875,36.1835938 C40.7395818,36.1835938 40.5078133,36.2317704 40.3515625,36.328125 C40.1953117,36.4244796 40.1171875,36.5572908 40.1171875,36.7265625 C40.1171875,36.8411464 40.1464841,36.9388017 40.2050781,37.0195312 C40.2636722,37.1002608 40.3580723,37.177083 40.4882812,37.25 C40.6184902,37.322917 40.8684877,37.4283847 41.2382812,37.5664062 C41.7460963,37.751303 42.0891918,37.9374991 42.2675781,38.125 C42.4459644,38.3125009 42.5351562,38.5481757 42.5351562,38.8320312 Z" id="Words"></path>
                        <path d="M29.796875,11 L26.40625,2.140625 L26.3515625,2.140625 C26.4153649,2.84245143 26.4472656,3.67642746 26.4472656,4.64257812 L26.4472656,11 L25.3740234,11 L25.3740234,1.00585938 L27.1240234,1.00585938 L30.2890625,9.25 L30.34375,9.25 L33.5361328,1.00585938 L35.2724609,1.00585938 L35.2724609,11 L34.1103516,11 L34.1103516,4.56054688 C34.1103516,3.82226193 34.1422523,3.02018662 34.2060547,2.15429688 L34.1513672,2.15429688 L30.7333984,11 L29.796875,11 Z M41.0078125,11.1367188 C39.9003851,11.1367188 39.0265331,10.7994825 38.3862305,10.125 C37.7459278,9.45051746 37.4257812,8.51400339 37.4257812,7.31542969 C37.4257812,6.10774136 37.7231416,5.14844105 38.3178711,4.4375 C38.9126006,3.72655895 39.711258,3.37109375 40.7138672,3.37109375 C41.652674,3.37109375 42.3955051,3.67984717 42.9423828,4.29736328 C43.4892605,4.91487939 43.7626953,5.72948713 43.7626953,6.74121094 L43.7626953,7.45898438 L38.6015625,7.45898438 C38.6243491,8.33854606 38.8465148,9.00618262 39.2680664,9.46191406 C39.689618,9.91764551 40.2831993,10.1455078 41.0488281,10.1455078 C41.8554728,10.1455078 42.6529908,9.97688971 43.4414062,9.63964844 L43.4414062,10.6513672 C43.0403626,10.8245451 42.6609718,10.9487301 42.3032227,11.0239258 C41.9454735,11.0991215 41.5136744,11.1367188 41.0078125,11.1367188 Z M40.7001953,4.32128906 C40.0986298,4.32128906 39.6189797,4.51725064 39.2612305,4.90917969 C38.9034813,5.30110873 38.6927087,5.84342102 38.6289062,6.53613281 L42.5458984,6.53613281 C42.5458984,5.82063444 42.3863948,5.2726256 42.0673828,4.89208984 C41.7483708,4.51155409 41.2926462,4.32128906 40.7001953,4.32128906 Z M50.796875,9.99511719 L50.7353516,9.99511719 C50.2112604,10.7561887 49.4274141,11.1367188 48.3837891,11.1367188 C47.4039665,11.1367188 46.641767,10.8017612 46.097168,10.1318359 C45.5525689,9.46191071 45.2802734,8.50944628 45.2802734,7.27441406 C45.2802734,6.03938185 45.5537082,5.08008154 46.1005859,4.39648438 C46.6474637,3.71288721 47.4085238,3.37109375 48.3837891,3.37109375 C49.4000702,3.37109375 50.1793593,3.74023068 50.7216797,4.47851562 L50.8105469,4.47851562 L50.7626953,3.93847656 L50.7353516,3.41210938 L50.7353516,0.36328125 L51.8701172,0.36328125 L51.8701172,11 L50.9472656,11 L50.796875,9.99511719 Z M48.5273438,10.1865234 C49.3020872,10.1865234 49.8637678,9.97575081 50.2124023,9.55419922 C50.5610369,9.13264763 50.7353516,8.45247865 50.7353516,7.51367188 L50.7353516,7.27441406 C50.7353516,6.21255979 50.5587583,5.45491763 50.2055664,5.00146484 C49.8523745,4.54801206 49.2884153,4.32128906 48.5136719,4.32128906 C47.848304,4.32128906 47.3390317,4.57991278 46.9858398,5.09716797 C46.632648,5.61442316 46.4560547,6.34472185 46.4560547,7.28808594 C46.4560547,8.24512197 46.6315087,8.96744548 46.9824219,9.45507812 C47.3333351,9.94271077 47.8483039,10.1865234 48.5273438,10.1865234 Z M55.4111328,11 L54.2763672,11 L54.2763672,3.5078125 L55.4111328,3.5078125 L55.4111328,11 Z M54.1806641,1.47753906 C54.1806641,1.21777214 54.2444655,1.02750711 54.3720703,0.906738281 C54.4996751,0.785969448 54.6591787,0.725585937 54.8505859,0.725585937 C55.0328785,0.725585937 55.1901035,0.78710876 55.3222656,0.91015625 C55.4544277,1.03320374 55.5205078,1.22232945 55.5205078,1.47753906 C55.5205078,1.73274867 55.4544277,1.9230137 55.3222656,2.04833984 C55.1901035,2.17366599 55.0328785,2.23632812 54.8505859,2.23632812 C54.6591787,2.23632812 54.4996751,2.17366599 54.3720703,2.04833984 C54.2444655,1.9230137 54.1806641,1.73274867 54.1806641,1.47753906 Z M58.8837891,3.5078125 L58.8837891,8.36816406 C58.8837891,8.9788442 59.0227851,9.43456881 59.3007812,9.73535156 C59.5787774,10.0361343 60.0139944,10.1865234 60.6064453,10.1865234 C61.3903034,10.1865234 61.9633771,9.97233287 62.3256836,9.54394531 C62.6879901,9.11555775 62.8691406,8.41602048 62.8691406,7.4453125 L62.8691406,3.5078125 L64.0039062,3.5078125 L64.0039062,11 L63.0673828,11 L62.9033203,9.99511719 L62.8417969,9.99511719 C62.6093738,10.3642597 62.2869487,10.6468089 61.8745117,10.8427734 C61.4620748,11.038738 60.9915391,11.1367188 60.4628906,11.1367188 C59.5514277,11.1367188 58.8689801,10.9202496 58.4155273,10.4873047 C57.9620746,10.0543598 57.7353516,9.36165841 57.7353516,8.40917969 L57.7353516,3.5078125 L58.8837891,3.5078125 Z M75.9599609,11 L75.9599609,6.12597656 C75.9599609,5.52896837 75.832358,5.08121894 75.5771484,4.78271484 C75.3219388,4.48421075 74.9254584,4.33496094 74.3876953,4.33496094 C73.6813116,4.33496094 73.1595069,4.53775839 72.8222656,4.94335938 C72.4850244,5.34896036 72.3164062,5.97330308 72.3164062,6.81640625 L72.3164062,11 L71.1816406,11 L71.1816406,6.12597656 C71.1816406,5.52896837 71.0540377,5.08121894 70.7988281,4.78271484 C70.5436185,4.48421075 70.1448595,4.33496094 69.6025391,4.33496094 C68.891598,4.33496094 68.3709326,4.54801219 68.0405273,4.97412109 C67.710122,5.40023 67.5449219,6.09862796 67.5449219,7.06933594 L67.5449219,11 L66.4101562,11 L66.4101562,3.5078125 L67.3330078,3.5078125 L67.5175781,4.53320312 L67.5722656,4.53320312 C67.7864594,4.16861797 68.088377,3.88379009 68.4780273,3.67871094 C68.8676777,3.47363179 69.304034,3.37109375 69.7871094,3.37109375 C70.9583392,3.37109375 71.7239565,3.79491764 72.0839844,4.64257812 L72.1386719,4.64257812 C72.3619803,4.25064908 72.6855448,3.94075635 73.109375,3.71289062 C73.5332052,3.4850249 74.0162733,3.37109375 74.5585938,3.37109375 C75.4062542,3.37109375 76.0408508,3.58870225 76.4624023,4.02392578 C76.8839539,4.45914931 77.0947266,5.15526865 77.0947266,6.11230469 L77.0947266,11 L75.9599609,11 Z" id="Medium"></path>
                        <path d="M4.0078125,7.48046875 C4.0078125,7.98307543 3.82552266,8.37499859 3.4609375,8.65625 C3.09635234,8.93750141 2.60156562,9.078125 1.9765625,9.078125 C1.29947578,9.078125 0.778647656,8.99088629 0.4140625,8.81640625 L0.4140625,8.17578125 C0.648438672,8.27474008 0.903644453,8.3528643 1.1796875,8.41015625 C1.45573055,8.4674482 1.72916531,8.49609375 2,8.49609375 C2.44271055,8.49609375 2.77604055,8.41211021 3,8.24414062 C3.22395945,8.07617104 3.3359375,7.84244941 3.3359375,7.54296875 C3.3359375,7.34505109 3.29622436,7.18294334 3.21679688,7.05664062 C3.13736939,6.93033791 3.00455822,6.81380262 2.81835938,6.70703125 C2.63216053,6.60025988 2.34896023,6.47916734 1.96875,6.34375 C1.43749734,6.15364488 1.05794385,5.92838672 0.830078125,5.66796875 C0.602212402,5.40755078 0.48828125,5.06771043 0.48828125,4.6484375 C0.48828125,4.20833113 0.65364418,3.85807422 0.984375,3.59765625 C1.31510582,3.33723828 1.75260145,3.20703125 2.296875,3.20703125 C2.86458617,3.20703125 3.38671637,3.31119688 3.86328125,3.51953125 L3.65625,4.09765625 C3.18489348,3.89973859 2.72656473,3.80078125 2.28125,3.80078125 C1.92968574,3.80078125 1.65494891,3.87630133 1.45703125,4.02734375 C1.25911359,4.17838617 1.16015625,4.38801949 1.16015625,4.65625 C1.16015625,4.85416766 1.19661422,5.01627541 1.26953125,5.14257812 C1.34244828,5.26888084 1.46549393,5.3847651 1.63867188,5.49023438 C1.81184982,5.59570365 2.07682113,5.71223895 2.43359375,5.83984375 C3.03255508,6.05338648 3.44466033,6.28255086 3.66992188,6.52734375 C3.89518342,6.77213664 4.0078125,7.0898418 4.0078125,7.48046875 Z M10.5351562,9 L10.5351562,6.21484375 C10.5351562,5.87369621 10.4622403,5.61783939 10.3164062,5.44726562 C10.1705722,5.27669186 9.94401195,5.19140625 9.63671875,5.19140625 C9.2330709,5.19140625 8.9348968,5.30729051 8.7421875,5.5390625 C8.5494782,5.77083449 8.453125,6.12760176 8.453125,6.609375 L8.453125,9 L7.8046875,9 L7.8046875,6.21484375 C7.8046875,5.87369621 7.73177156,5.61783939 7.5859375,5.44726562 C7.44010344,5.27669186 7.21224113,5.19140625 6.90234375,5.19140625 C6.49609172,5.19140625 6.19856865,5.31314982 6.00976562,5.55664062 C5.8209626,5.80013143 5.7265625,6.19921598 5.7265625,6.75390625 L5.7265625,9 L5.078125,9 L5.078125,4.71875 L5.60546875,4.71875 L5.7109375,5.3046875 L5.7421875,5.3046875 C5.86458395,5.09635313 6.03710826,4.93359434 6.25976562,4.81640625 C6.48242299,4.69921816 6.73176945,4.640625 7.0078125,4.640625 C7.67708668,4.640625 8.1145823,4.88281008 8.3203125,5.3671875 L8.3515625,5.3671875 C8.4791673,5.14322805 8.66406129,4.96614648 8.90625,4.8359375 C9.14843871,4.70572852 9.42447762,4.640625 9.734375,4.640625 C10.2187524,4.640625 10.581379,4.76497271 10.8222656,5.01367188 C11.0631522,5.26237104 11.1835938,5.66015352 11.1835938,6.20703125 L11.1835938,9 L10.5351562,9 Z M15.1523438,9 L15.0234375,8.390625 L14.9921875,8.390625 C14.7786448,8.65885551 14.5657563,8.84049432 14.3535156,8.93554687 C14.141275,9.03059943 13.8763037,9.078125 13.5585938,9.078125 C13.1341125,9.078125 12.8014335,8.96875109 12.5605469,8.75 C12.3196603,8.53124891 12.1992188,8.2200541 12.1992188,7.81640625 C12.1992188,6.95181859 12.8906181,6.49869812 14.2734375,6.45703125 L15,6.43359375 L15,6.16796875 C15,5.83202957 14.9277351,5.58398518 14.7832031,5.42382812 C14.6386712,5.26367107 14.4075537,5.18359375 14.0898438,5.18359375 C13.7330711,5.18359375 13.3294293,5.29296766 12.8789062,5.51171875 L12.6796875,5.015625 C12.8906261,4.90104109 13.1217435,4.81119824 13.3730469,4.74609375 C13.6243502,4.68098926 13.8763008,4.6484375 14.1289062,4.6484375 C14.6393255,4.6484375 15.0175769,4.76171762 15.2636719,4.98828125 C15.5097669,5.21484488 15.6328125,5.5781225 15.6328125,6.078125 L15.6328125,9 L15.1523438,9 Z M13.6875,8.54296875 C14.0911479,8.54296875 14.408202,8.43229277 14.6386719,8.2109375 C14.8691418,7.98958223 14.984375,7.67968949 14.984375,7.28125 L14.984375,6.89453125 L14.3359375,6.921875 C13.8203099,6.94010426 13.4485688,7.02018158 13.2207031,7.16210938 C12.9928374,7.30403717 12.8789062,7.52473809 12.8789062,7.82421875 C12.8789062,8.05859492 12.9498691,8.23697855 13.0917969,8.359375 C13.2337247,8.48177145 13.4322904,8.54296875 13.6875,8.54296875 Z M17.6171875,9 L16.96875,9 L16.96875,2.921875 L17.6171875,2.921875 L17.6171875,9 Z M19.640625,9 L18.9921875,9 L18.9921875,2.921875 L19.640625,2.921875 L19.640625,9 Z" id="Small"></path>
                    </g>
                </g>
            </g>
        </g>
    </g>
</svg>