<svg xmlns="http://www.w3.org/2000/svg" width="279" height="169" fill="none" viewBox="0 0 279 169">
  <path fill="#101C3F" stroke="#101C3F" stroke-linecap="round" stroke-linejoin="round" stroke-width="1.01" d="m70.225 30.241-24.78 117.39c-1 4.71 1.94 8.76 6.56 9.04l190.52 11.74c4.62.28 9.16-3.3 10.16-8.01l24.78-117.39c1-4.71-1.95-8.76-6.56-9.04l-190.52-11.74c-4.62-.28-9.16 3.3-10.16 8.01Z"/>
  <path fill="#DAE0E8" stroke="#101C3F" stroke-linecap="round" stroke-linejoin="round" stroke-width="1.01" d="m275.105 40.881-5.19 24.59-19.59 92.81c-1 4.69-5.54 8.28-10.16 8.01l-175.1-10.8-12.29-.75-3.13-.2c-4.61-.3-7.56-4.34-6.56-9.05l.55-2.63 1.43-6.77.09-.48 3.82-18.13 18.88-89.39c.98-4.72 5.54-8.29 10.14-8.01l179.96 11.08.39.02 7.97.49 2.21.14c4.61.28 7.56 4.32 6.56 9.04l.02.02v.01Z"/>
  <path fill="#DAE0E8" stroke="#101C3F" stroke-linecap="round" stroke-linejoin="round" stroke-width="1.01" d="m67.855 28.101-.67 3.2 207.24 12.78.67-3.2c1-4.71-1.95-8.76-6.56-9.04l-190.52-11.74c-4.62-.28-9.16 3.3-10.16 8.01v-.01Z"/>
  <path fill="#DAE0E8" d="m266.325 31.701-1.52 7.22-6.24 29.46-16.46 78.09c-1.02 4.72-5.54 8.29-10.16 8.01l-157.2-9.67-6.51-.4-3.81-.24-3.6-.24-8.83-.54-.45-.04-7.93-.47 1.43-6.77.09-.48 3.82-18.13 18.88-89.39c.98-4.72 5.54-8.29 10.14-8.01l179.96 11.08.39.02 7.97.49.03.01Z" style="mix-blend-mode:multiply"/>
  <path fill="#101C3F" stroke="#101C3F" stroke-linecap="round" stroke-linejoin="round" stroke-width="1.01" d="m55.145 10.251-24.78 117.39c-1 4.71 1.94 8.76 6.56 9.04l190.52 11.74c4.62.28 9.16-3.3 10.16-8.01l24.78-117.39c1-4.71-1.95-8.76-6.56-9.04L65.305 2.231c-4.62-.28-9.16 3.3-10.16 8.01v.01Z"/>
  <path fill="#fff" stroke="#101C3F" stroke-linecap="round" stroke-linejoin="round" stroke-width="1.01" d="m260.045 21.291-2.07 9.88-6.23 29.46-16.47 78.07c-1.01 4.74-5.55 8.3-10.16 8.01l-157.19-9.67-6.52-.4-3.8-.24-3.6-.24-8.82-.53-.45-.04-10.12-.61c-.53-.04-1.01-.12-1.46-.24-3.77-.93-5.99-4.61-5.14-8.78l1.37-6.44 2.96-14.09 17.08-80.83 3.4-16.07c.97-4.69 5.55-8.3 10.16-8.01l73.82 4.53 99.6 6.15 17.08 1.05c4.61.28 7.57 4.33 6.56 9.02v.02Z"/>
  <path fill="#fff" stroke="#101C3F" stroke-linecap="round" stroke-linejoin="round" stroke-width="1.01" d="m260.055 21.311-.67 3.2-39.75-2.45-120.12-7.4-47.38-2.92.67-3.2c1-4.71 5.55-8.29 10.16-8.01l40.71 2.51 116.98 7.21 32.83 2.02c4.62.28 7.56 4.33 6.56 9.04h.01Z"/>
  <path fill="#DAE0E8" d="M57.335 123.251c.39.1.8.16 1.22.19l19.32 1.19 134.2 8.43c3.88.24 7.69-2.77 8.53-6.72l18.9-88.81c.83-3.95-1.63-7.35-5.5-7.59l-97.92-6.04-55.6-3.58c-3.87-.24-7.69 2.76-8.53 6.72l-2.84 13.48-16.06 75.34c-.74 3.52 1.13 6.6 4.29 7.4l-.01-.01Z"/>
  <g style="mix-blend-mode:multiply">
    <path fill="#DAE0E8" d="M165.845 103.691c24.77 19.54 60.77-7.33 56.8-34.66-2.41-16.57-19.06-28.21-37.48-24.27-28.1 6.08-40.78 42.02-19.33 58.93h.01Zm20.49-48.87c11.01-2.37 21.53 3.35 24.87 12.89 6.33 18.07-15.82 39.84-35.08 29.71-18.61-9.79-10.7-38.09 10.21-42.6Z"/>
    <path fill="#DAE0E8" d="m163.025 76.211-10.35-.19c.72-10.1 6.1-20.28 14.82-27.04l7.41 6.56c-7.22 4.8-11.55 12.86-11.88 20.68v-.01Zm45.88-11.47c-3.36-9.6-13.96-15.37-25.05-12.98-3.33.72-6.32 2.03-8.94 3.77l-7.41-6.56c4.31-3.35 9.43-5.86 15.21-7.11 18.41-3.95 35.07 7.69 37.48 24.27 1.09 7.55-.87 15.07-4.79 21.58l-8.86-4.22c3.36-5.71 4.59-12.45 2.38-18.75h-.02Z"/>
    <path fill="#DAE0E8" d="M163.385 100.801c1.78 1.4 3.62 2.57 5.5 3.51.67.33 1.34.64 2.02.92 16.57 6.84 35.58-2.76 44.49-17.51l-8.86-4.22c-6.34 10.79-20.27 17.86-32.96 11.18-7.64-4.02-10.85-11.13-10.53-18.47l-10.35-.19c-.66 9.22 2.57 18.37 10.7 24.78h-.01Z"/>
  </g>
  <path fill="#fff" d="M75.625 71.031c.14.04.3.06.46.07l7.24.45 48.44 3.25c1.45.09 2.88-1.04 3.19-2.52l7.08-33.26c.32-1.48-.61-2.75-2.06-2.84l-36.67-2.26-19.01-1.43c-1.45-.09-2.88 1.04-3.19 2.52l-1.06 5.05-6.02 28.21c-.28 1.32.43 2.47 1.61 2.77l-.01-.01Z"/>
  <path stroke="#fff" stroke-miterlimit="10" stroke-width="1.34" d="M66.635 116.501c.14.04.3.06.46.07l7.24.45 48.44 3.25c1.45.09 2.88-1.04 3.19-2.52l7.08-33.26c.32-1.48-.61-2.75-2.06-2.84l-36.67-2.26-19.01-1.43c-1.45-.09-2.88 1.04-3.19 2.52l-1.06 5.05-6.02 28.21c-.28 1.32.43 2.47 1.61 2.77l-.01-.01Z"/>
  <path fill="#101C3F" stroke="#101C3F" stroke-linecap="round" stroke-linejoin="round" stroke-width="1.01" d="m31.905 123.131-19.77 1.98 7.77-17.09 19.77-1.98-7.77 17.09Z"/>
  <path fill="#fff" stroke="#101C3F" stroke-linecap="round" stroke-linejoin="round" stroke-width="1.01" d="m.505 109.061 11.63 16.05 7.77-17.09-11.63-16.16-7.77 17.2Z"/>
  <path fill="#DAE0E8" stroke="#121B34" stroke-linecap="round" stroke-linejoin="round" stroke-width="1.01" d="m28.165 89.831-19.77 1.99 11.51 16.2 19.77-1.98-11.51-16.21Z"/>
  <path stroke="#131C3D" stroke-miterlimit="10" stroke-width="1.01" d="m62.775 12.571-27.13 122.88"/>
  <path fill="#121B34" stroke="#121B34" stroke-linecap="round" stroke-linejoin="round" stroke-width="1.01" d="M63.195 6.501c0 .95-.78 1.77-1.75 1.85-.97.08-1.75-.63-1.75-1.58 0-.95.78-1.77 1.75-1.85.97-.08 1.75.63 1.75 1.58Zm7.13.53c0 .95-.78 1.77-1.75 1.85-.97.08-1.75-.63-1.75-1.58 0-.95.78-1.77 1.75-1.85.97-.08 1.75.63 1.75 1.58Zm7.13.7c0 .95-.78 1.77-1.75 1.85-.97.08-1.75-.63-1.75-1.58 0-.95.78-1.77 1.75-1.85.97-.08 1.75.63 1.75 1.58Z"/>
  <path fill="#0C1C41" stroke="#101C3F" stroke-linecap="round" stroke-linejoin="round" stroke-width=".76" d="M163.294 99.461c24.77 19.54 60.77-7.33 56.8-34.66-2.41-16.57-19.06-28.21-37.48-24.27-28.1 6.08-40.78 42.02-19.33 58.93h.01Zm20.49-48.87c11.01-2.37 21.53 3.35 24.87 12.89 6.33 18.07-15.82 39.84-35.08 29.71-18.61-9.79-10.7-38.09 10.21-42.6Z"/>
  <path fill="#7DEBCF" stroke="#101C3F" stroke-linecap="round" stroke-linejoin="round" stroke-width=".76" d="m160.475 71.981-10.35-.19c.72-10.1 6.1-20.28 14.82-27.04l7.41 6.56c-7.22 4.8-11.55 12.86-11.88 20.68v-.01Z"/>
  <path fill="#fff" stroke="#101C3F" stroke-linecap="round" stroke-linejoin="round" stroke-width="1.01" d="M206.345 60.511c-3.36-9.6-13.96-15.37-25.05-12.98-3.33.72-6.32 2.03-8.94 3.77l-7.41-6.56c4.31-3.35 9.43-5.86 15.21-7.11 18.41-3.95 35.07 7.69 37.48 24.27 1.09 7.55-.87 15.07-4.79 21.58l-8.86-4.22c3.36-5.71 4.59-12.45 2.38-18.75h-.02Z"/>
  <path fill="#2C62D4" stroke="#131C3D" stroke-miterlimit="10" stroke-width=".76" d="M160.825 96.571c1.78 1.4 3.62 2.57 5.5 3.51.67.33 1.34.64 2.02.92 16.57 6.84 35.58-2.76 44.49-17.51l-8.86-4.22c-6.34 10.79-20.27 17.86-32.96 11.18-7.64-4.02-10.85-11.13-10.53-18.47l-10.35-.19c-.66 9.22 2.57 18.37 10.7 24.78h-.01Z"/>
  <path fill="#131C3D" stroke="#131C3D" stroke-linecap="round" stroke-linejoin="round" stroke-width="1.01" d="m240.175 107.551-37.7-17.23 10.51 32.52c.19.58.95.72 1.32.23l6.98-9.03 14.82 15.42 6.04-3.43-13.73-15.64 11.64-1.87c.5-.08.59-.76.13-.96l-.01-.01Z"/>
  <path fill="#131C3D" stroke="#131C3D" stroke-linecap="round" stroke-linejoin="round" stroke-width="1.01" d="m245.515 121.671-3.37 4.36-8.44-.08 1.48-9.06 10.33 4.78Zm-41.68-37.59-1.37 6.24 10.39 7.54-9.02-13.78Zm40.08 18.8-3 5.72-13.46-3.81 16.46-1.91Z"/>
  <path fill="#fff" stroke="#131C3D" stroke-linecap="round" stroke-linejoin="round" stroke-width="1.01" d="m243.615 102.261-39.78-18.18 11.09 34.32c.2.61 1 .75 1.4.24l7.37-9.53 15.64 16.27 6.19-3.71-16.07-16.13 14.03-2.26c.53-.09.62-.8.14-1.02h-.01Z"/>
  <path fill="#131C3D" stroke="#131C3D" stroke-linecap="round" stroke-linejoin="round" stroke-width=".7" d="m130.345 76.291-52.45-3.3c-2.31-.15-3.77-2-3.25-4.14l8.35-34.28c.52-2.14 2.82-3.75 5.13-3.61l52.45 3.3c2.31.15 3.77 2 3.25 4.14l-8.35 34.28c-.52 2.14-2.82 3.75-5.13 3.61Z"/>
  <path fill="#fff" stroke="#131C3D" stroke-miterlimit="10" stroke-width=".7" d="m127.895 74.061-52.45-3.3c-2.31-.15-3.77-2-3.25-4.14l8.35-34.28c.52-2.14 2.82-3.75 5.13-3.61l52.45 3.3c2.31.15 3.77 2 3.25 4.14l-8.35 34.28c-.52 2.14-2.82 3.75-5.13 3.61Z"/>
  <path fill="#DD5A95" stroke="#131C3D" stroke-miterlimit="10" stroke-width=".7" d="m94.405 65.891 7.01.44 2.24-9.18a.7.7 0 0 0-.64-.87l-5.59-.35c-.34-.02-.64.2-.72.53l-2.29 9.42-.01.01Z"/>
  <path fill="#DAE0E8" stroke="#101C3F" stroke-linecap="round" stroke-linejoin="round" stroke-width=".7" d="m83.635 65.211 7.01.44 5.93-24.32a.7.7 0 0 0-.64-.87l-5.59-.35c-.34-.02-.64.2-.72.53l-5.99 24.56v.01Zm21.54 1.36 7.01.44 4.15-17.01a.7.7 0 0 0-.64-.87l-5.59-.35c-.34-.02-.64.2-.72.53l-4.21 17.25v.01Zm10.76.67 7.01.44 5.5-22.58a.7.7 0 0 0-.64-.87l-5.59-.35c-.34-.02-.64.2-.72.53l-5.57 22.83h.01Z"/>
  <path stroke="#131C3D" stroke-miterlimit="10" stroke-width=".7" d="m80.775 65.031 44.7 2.81"/>
  <path fill="#DAE0E8" d="m199.785 97.861 2.68-9.55 1.88 7.83-4.56 2.97" style="mix-blend-mode:multiply"/>
</svg>
