<svg width="24" height="24" viewBox="0 0 24 24" fill="none" xmlns="http://www.w3.org/2000/svg">
<path d="M8.49146 9.29211C9.31964 11.8247 9.63333 16.3423 12.0551 16.3423C12.2392 16.3423 12.4258 16.3243 12.6127 16.2887C10.4115 15.7755 10.1505 11.307 8.80702 8.99268C8.69996 9.0905 8.59475 9.19033 8.49146 9.29211Z" fill="url(#paint0_linear_2584_222717)"/>
<path d="M8.80701 8.9927C10.1504 11.3068 10.4114 15.7753 12.6127 16.2887C12.7894 16.2553 12.9632 16.2084 13.1326 16.1483C11.1566 15.18 10.6106 10.8409 9.08488 8.75195C8.99263 8.82883 8.89982 8.90927 8.80701 8.9927Z" fill="url(#paint1_linear_2584_222717)"/>
<path d="M10.7426 7.61671C10.5589 7.61671 10.3719 7.63471 10.1844 7.67033C9.6947 7.76277 9.1967 7.97371 8.69495 8.29302C8.83182 8.42839 8.96251 8.58308 9.08513 8.75202C9.5957 8.32846 10.1027 8.01552 10.6076 7.82727C10.792 7.75834 10.9821 7.70552 11.1756 7.66939C11.034 7.63396 10.8886 7.61626 10.7426 7.61671Z" fill="#14559A"/>
<path d="M14.6752 15.2562C14.8857 15.088 15.0884 14.9103 15.2827 14.7237C14.4412 12.2031 14.1399 7.62061 11.7013 7.62061C11.5269 7.62061 11.351 7.63692 11.1755 7.66936C13.3968 8.22192 13.6815 13.0547 14.6752 15.2562Z" fill="url(#paint2_linear_2584_222717)"/>
<path d="M11.1757 7.66958C11.0341 7.63398 10.8885 7.61622 10.7424 7.61671L11.7013 7.62027C11.5271 7.62027 11.3512 7.6364 11.1757 7.66958Z" fill="#3092C4"/>
<path d="M14.6325 15.7916C14.5354 15.6978 14.4437 15.5986 14.3576 15.4946C13.9474 15.7851 13.5386 16.0054 13.1327 16.1488C13.2773 16.2193 13.4286 16.2718 13.5894 16.3043C13.7139 16.3298 13.8431 16.3429 13.9785 16.3429C14.4343 16.3429 14.7947 16.2889 15.1011 16.1419C14.9323 16.0504 14.7774 15.9323 14.6325 15.7916Z" fill="#1969BC"/>
<path d="M10.6074 7.82787C12.597 8.8685 12.77 13.5811 14.3576 15.4946C14.4641 15.4196 14.5695 15.3401 14.6747 15.2562C13.6809 13.0548 13.3969 8.22143 11.1759 7.66943C10.9864 7.70487 10.7972 7.75737 10.6074 7.82787Z" fill="url(#paint3_linear_2584_222717)"/>
<path d="M9.08496 8.75201C10.6106 10.8409 11.1566 15.1803 13.1327 16.1485C13.5388 16.0051 13.9476 15.7849 14.3576 15.4943C12.7701 13.5809 12.597 8.86845 10.6075 7.82764C10.1025 8.01551 9.59552 8.32845 9.08496 8.75201Z" fill="url(#paint4_linear_2584_222717)"/>
<path d="M7.51556 9.23121C7.2765 9.77177 7.03219 10.4826 6.73706 11.4101C7.32412 10.5827 7.9095 9.87002 8.4915 9.29234C8.41805 9.06222 8.33154 8.83647 8.23237 8.61621C7.98241 8.808 7.74311 9.0133 7.51556 9.23121Z" fill="url(#paint5_linear_2584_222717)"/>
<path d="M8.44442 8.45996C8.37429 8.51021 8.30361 8.56159 8.23254 8.61596C8.32536 8.81846 8.41123 9.04571 8.49129 9.29227C8.59479 9.19063 8.70006 9.09081 8.80704 8.99284C8.70003 8.80616 8.5788 8.62801 8.44442 8.45996Z" fill="#2B74B1"/>
<path d="M8.6949 8.29297C8.61146 8.34584 8.5284 8.40172 8.44421 8.46003C8.57453 8.62034 8.69415 8.79941 8.80721 8.99328C8.90003 8.90928 8.99265 8.82847 9.08509 8.75197C8.96246 8.58322 8.83196 8.42834 8.6949 8.29297Z" fill="#125A9E"/>
<path d="M22.2658 7.42379C21.1406 11.7633 18.7903 15.2489 16.82 16.1275H16.8161L16.7098 16.1731L16.6968 16.1782L16.6666 16.1898L16.6531 16.1954L16.6038 16.2129L16.5836 16.22L16.559 16.228L16.5354 16.2363L16.5144 16.2434L16.4724 16.2562L16.4544 16.2609L16.4261 16.2685L16.4068 16.2738L16.3758 16.2819L16.3381 16.2901C16.4272 16.3229 16.52 16.3396 16.6199 16.3396C18.4884 16.3396 20.3724 12.9912 23.4896 7.42285H22.2656L22.2658 7.42379Z" fill="url(#paint6_linear_2584_222717)"/>
<path d="M6.33119 7.79298L6.33475 7.78998L6.33907 7.78717H6.3415L6.37169 7.77555L6.37769 7.77255L6.38557 7.76936L6.418 7.75773H6.41969L6.4915 7.73261L6.50219 7.7298L6.53294 7.72061L6.547 7.71611L6.57794 7.70692L6.58975 7.70373L6.6925 7.67711L6.70657 7.67392L6.73657 7.66811L6.75119 7.66361L6.78138 7.65798H6.7885L6.85094 7.64636H6.86332L6.89219 7.6413L6.9085 7.63848L6.93607 7.63436L6.95125 7.63136L7.01838 7.62536C6.95226 7.61891 6.88587 7.61553 6.81944 7.61523C4.71513 7.61523 1.816 11.5194 0.510254 16.5755H0.762066C1.15246 15.8776 1.53138 15.1734 1.89869 14.4631C2.8135 10.8819 4.67632 8.43948 6.33119 7.79242" fill="url(#paint7_linear_2584_222717)"/>
<path d="M7.5155 9.23151C7.74315 9.01364 7.98243 8.80828 8.23231 8.61632C8.1815 8.5032 8.12448 8.39297 8.0615 8.28613C7.86913 8.51976 7.69325 8.82801 7.5155 9.23151Z" fill="#0D82CA"/>
<path d="M7.68849 7.82228C7.82593 7.93741 7.94912 8.09603 8.06162 8.28597C8.09705 8.24247 8.13305 8.20216 8.17037 8.16428C8.01931 8.02133 7.84796 7.90147 7.66187 7.80859L7.68437 7.81928L7.68849 7.82228Z" fill="#0D82CA"/>
<path d="M1.89893 14.4632C3.81761 10.7659 4.72661 8.42586 6.33143 7.79248C4.67674 8.44011 2.81355 10.8823 1.89893 14.4632Z" fill="url(#paint8_linear_2584_222717)"/>
<path d="M8.17015 8.16455C8.13284 8.2028 8.09721 8.24274 8.0614 8.28624C8.12178 8.38711 8.17784 8.49699 8.23259 8.61624C8.30346 8.56186 8.37434 8.51068 8.44428 8.46024C8.35993 8.35539 8.26833 8.25658 8.17015 8.16455Z" fill="#127BCA"/>
<path d="M2.76996 16.5591L2.73509 16.5633H2.72852L2.6989 16.5663H2.69402L2.62352 16.5709H2.61621C4.55796 16.5166 5.44577 15.5444 5.88621 14.134C6.2209 13.0651 6.49596 12.1643 6.7369 11.4087C5.92352 12.5536 5.1064 13.9182 4.28496 15.4473C3.88896 16.1841 3.28652 16.492 2.76996 16.5576" fill="url(#paint9_linear_2584_222717)"/>
<path d="M2.76996 16.5583C3.28653 16.4925 3.88896 16.185 4.28496 15.4478C5.1064 13.9195 5.9239 12.5545 6.73653 11.4094C7.03221 10.4815 7.27615 9.77122 7.5154 9.23047C5.89559 10.7723 4.26959 13.336 2.76978 16.5574" fill="url(#paint10_linear_2584_222717)"/>
<path d="M1.89878 14.4634C1.53147 15.1737 1.15248 15.8779 0.761963 16.5758H1.49396C1.58641 15.8643 1.72152 15.159 1.89859 14.4638" fill="#05A1E6"/>
<path d="M6.95122 7.633L6.93566 7.636L6.90828 7.63993L6.89216 7.64275L6.86328 7.64781L6.85091 7.65081L6.78847 7.66168H6.78134L6.75097 7.66768L6.73578 7.67181L6.70634 7.67762L6.69247 7.681L6.58953 7.70762L6.57772 7.711L6.54659 7.72018L6.53253 7.72412L6.50197 7.73331L6.49072 7.73631L6.41928 7.76143L6.38684 7.77268L6.37334 7.77831L6.34316 7.78956L6.33303 7.79443C4.72841 8.42762 3.81941 10.7676 1.90072 14.4649C1.72328 15.1601 1.58816 15.8654 1.49609 16.5769H1.59866L2.30272 16.5739H2.62578L2.69609 16.5692H2.70059L2.73022 16.5662H2.73716L2.77203 16.5621C4.27203 13.3405 5.89803 10.777 7.51766 9.23518C7.69578 8.83168 7.87147 8.52343 8.06347 8.29018C7.95097 8.10025 7.82797 7.94125 7.69072 7.82593L7.68678 7.82293L7.66391 7.81187L7.64122 7.80043L7.61928 7.78975L7.59322 7.77887L7.57297 7.77006L7.53041 7.75225L7.51222 7.7455L7.48053 7.73275L7.46347 7.72712L7.41941 7.71193H7.41584L7.36484 7.6975L7.35341 7.69393L7.31047 7.68193L7.30053 7.67912C7.26527 7.66999 7.22968 7.66217 7.19384 7.65568L7.18278 7.65268L7.13647 7.64518L7.12728 7.64237L7.07253 7.63506H7.06297L7.02059 7.63037L6.95347 7.63656" fill="url(#paint11_linear_2584_222717)"/>
<path d="M17.8708 9.82646C17.5014 11.009 17.2027 11.9846 16.9423 12.7873C17.9553 11.3932 18.9532 9.63971 19.9033 7.61621C18.7946 7.9644 18.2036 8.76127 17.8708 9.82646Z" fill="url(#paint12_linear_2584_222717)"/>
<path d="M16.9744 16.0539C16.9228 16.0801 16.8709 16.1051 16.8201 16.1278C18.7903 15.249 21.1408 11.7633 22.2658 7.42383H22.0378C19.4526 12.0421 18.6212 15.1338 16.9744 16.0539Z" fill="url(#paint13_linear_2584_222717)"/>
<path d="M15.6877 15.666C16.1165 15.1427 16.4655 14.2532 16.9423 12.7871C16.3924 13.5425 15.8389 14.1919 15.2848 14.7214L15.282 14.726C15.4029 15.0881 15.5355 15.4078 15.6866 15.6658" fill="#079AE1"/>
<path d="M15.6878 15.666C15.5419 15.8441 15.3872 15.9797 15.2154 16.0802C15.1779 16.1021 15.1397 16.1228 15.1011 16.1415C15.2875 16.2426 15.4915 16.3069 15.7022 16.3311L15.8004 16.3397H15.8063L15.8535 16.3427H16.0138L16.032 16.3397L16.0674 16.3367H16.0847L16.1231 16.3326H16.1263L16.1381 16.3298L16.1792 16.3234H16.1912L16.2373 16.3157H16.2448L16.3369 16.2962C16.0824 16.2032 15.8696 15.9836 15.6864 15.6711" fill="#1969BC"/>
<path d="M12.0553 16.3428C12.2394 16.3428 12.4258 16.3248 12.6127 16.2888C12.7894 16.2558 12.9633 16.209 13.1327 16.1487C13.2772 16.2192 13.4287 16.2717 13.5892 16.3045C13.7137 16.3299 13.8431 16.343 13.9787 16.343H12.0553V16.3428ZM13.9787 16.3428C14.4341 16.3428 14.7949 16.2888 15.101 16.1416C15.2874 16.2427 15.4915 16.3071 15.7022 16.3314L15.8004 16.3398H15.8062L15.8535 16.3428H15.9101H13.9787Z" fill="#1E5CB3"/>
<path d="M15.9102 16.3426H16.0153L16.0335 16.3396L16.0693 16.3366H16.0866L16.1248 16.3325H16.128L16.1397 16.3295L16.1807 16.3233L16.1933 16.3205L16.2396 16.313H16.2469L16.339 16.2935C16.428 16.3263 16.5208 16.343 16.6208 16.343L15.9105 16.346L15.9102 16.3426Z" fill="#1D60B5"/>
<path d="M15.2833 14.7261V14.7231C15.0891 14.9098 14.8863 15.0875 14.6758 15.2556C14.5723 15.3381 14.4665 15.4176 14.3584 15.494C14.4476 15.6005 14.5382 15.7002 14.6336 15.7911C14.7784 15.9316 14.9331 16.0499 15.102 16.1412C15.1405 16.1223 15.1789 16.1016 15.2162 16.0799C15.3883 15.9794 15.5426 15.8436 15.6887 15.6657C15.5376 15.4077 15.405 15.0878 15.2843 14.726" fill="#175FAB"/>
<path d="M21.316 7.42383H20.1683L19.9864 7.43264L19.9018 7.61376C18.9516 9.63745 17.9541 11.391 16.941 12.785C16.4648 14.2509 16.1153 15.1406 15.6866 15.6637C15.8698 15.9765 16.083 16.1962 16.3365 16.2894L16.3564 16.2851H16.3605L16.3746 16.2821L16.4065 16.2742L16.4254 16.2688L16.4537 16.2615L16.4713 16.2564L16.5137 16.2436L16.5347 16.2365L16.5583 16.2279L16.5827 16.2202L16.6026 16.2127L16.6521 16.1953L16.6658 16.1902L16.6961 16.1784L16.7089 16.1737L16.8154 16.1281H16.8191C16.87 16.1058 16.9217 16.0805 16.9731 16.0543C18.6203 15.134 19.4518 12.0425 22.0371 7.42439H21.315L21.316 7.42383Z" fill="url(#paint14_linear_2584_222717)"/>
<path d="M7.01868 7.62695L7.03049 7.62995L7.06049 7.63314H7.07061L7.12536 7.64026L7.13455 7.64326L7.18068 7.65095L7.1923 7.65376L7.29861 7.67739L7.30836 7.68039L7.35111 7.69239L7.36293 7.69595L7.41374 7.71039L7.41768 7.71339L7.46211 7.72857L7.47899 7.73401L7.51086 7.74695L7.52886 7.75332L7.57124 7.77095L7.59186 7.77976L7.61736 7.79082L7.63986 7.80151L7.66218 7.81314C7.84574 7.90314 8.01449 8.02332 8.17086 8.16901C8.22861 8.10845 8.28861 8.05407 8.35124 8.00514C8.00943 7.7627 7.62186 7.62451 7.17543 7.62451C7.12368 7.62451 7.07193 7.62751 7.01943 7.63145" fill="#7DCBEC"/>
<path d="M8.17017 8.16436C8.26598 8.25343 8.35767 8.3528 8.44429 8.46005C8.52829 8.40174 8.61154 8.34549 8.69498 8.29299C8.58859 8.18584 8.47323 8.08798 8.35017 8.00049C8.28773 8.04924 8.22792 8.10399 8.17017 8.16436Z" fill="#5EC5ED"/>
<path d="M6.96899 7.63884L7.12508 7.63222C7.57183 7.63222 7.95901 7.77039 8.30069 8.0127C8.66131 7.7278 9.09758 7.62844 9.70334 7.62844H6.77014L6.96899 7.63884Z" fill="url(#paint15_linear_2584_222717)"/>
<path d="M9.70343 7.62892C9.09767 7.62892 8.66234 7.72828 8.30078 8.01318C8.42004 8.09741 8.53553 8.19587 8.64532 8.30566C9.14791 7.98669 9.6448 7.77466 10.1351 7.68285C10.3225 7.64783 10.5089 7.62984 10.6926 7.62984H9.70343V7.62892Z" fill="url(#paint16_linear_2584_222717)"/>
<path d="M16.9423 12.7878C17.2031 11.9846 17.5011 11.0094 17.8712 9.82643C18.2044 8.76068 18.7947 7.96381 19.9028 7.61618L19.9883 7.43506C18.1815 7.54325 17.337 8.46237 16.9123 9.82343C16.1691 12.1996 15.7189 13.7399 15.2854 14.7215C15.8389 14.1922 16.3924 13.5425 16.9423 12.7878Z" fill="url(#paint17_linear_2584_222717)"/>
<defs>
<linearGradient id="paint0_linear_2584_222717" x1="10.5932" y1="7.55676" x2="10.5932" y2="18.5342" gradientUnits="userSpaceOnUse">
<stop stop-color="#0994DC"/>
<stop offset="0.35" stop-color="#66CEF5"/>
<stop offset="0.846" stop-color="#127BCA"/>
<stop offset="1" stop-color="#127BCA"/>
</linearGradient>
<linearGradient id="paint1_linear_2584_222717" x1="11.0064" y1="7.29273" x2="11.0064" y2="18.5211" gradientUnits="userSpaceOnUse">
<stop stop-color="#0E76BC"/>
<stop offset="0.36" stop-color="#36AEE8"/>
<stop offset="0.846" stop-color="#00ADEF"/>
<stop offset="1" stop-color="#00ADEF"/>
</linearGradient>
<linearGradient id="paint2_linear_2584_222717" x1="13.2284" y1="16.076" x2="13.2284" y2="7.14174" gradientUnits="userSpaceOnUse">
<stop stop-color="#1C63B7"/>
<stop offset="0.5" stop-color="#33BDF2"/>
<stop offset="1" stop-color="#33BDF2" stop-opacity="0.42"/>
</linearGradient>
<linearGradient id="paint3_linear_2584_222717" x1="12.6246" y1="6.11995" x2="12.6246" y2="17.8078" gradientUnits="userSpaceOnUse">
<stop stop-color="#166AB8"/>
<stop offset="0.4" stop-color="#36AEE8"/>
<stop offset="0.846" stop-color="#0798DD"/>
<stop offset="1" stop-color="#0798DD"/>
</linearGradient>
<linearGradient id="paint4_linear_2584_222717" x1="11.7635" y1="6.21097" x2="11.7635" y2="18.6395" gradientUnits="userSpaceOnUse">
<stop stop-color="#124379"/>
<stop offset="0.39" stop-color="#1487CB"/>
<stop offset="0.78" stop-color="#165197"/>
<stop offset="1" stop-color="#165197"/>
</linearGradient>
<linearGradient id="paint5_linear_2584_222717" x1="6.6428" y1="9.88034" x2="8.39705" y2="9.88034" gradientUnits="userSpaceOnUse">
<stop stop-color="#33BDF2" stop-opacity="0.698"/>
<stop offset="1" stop-color="#1DACD8"/>
</linearGradient>
<linearGradient id="paint6_linear_2584_222717" x1="19.9273" y1="15.8436" x2="19.9273" y2="7.14044" gradientUnits="userSpaceOnUse">
<stop stop-color="#136AB4"/>
<stop offset="0.6" stop-color="#59CAF5" stop-opacity="0.549"/>
<stop offset="1" stop-color="#59CAF5" stop-opacity="0.235"/>
</linearGradient>
<linearGradient id="paint7_linear_2584_222717" x1="0.417025" y1="11.9618" x2="6.92451" y2="11.9618" gradientUnits="userSpaceOnUse">
<stop stop-color="#05A1E6" stop-opacity="0.247"/>
<stop offset="1" stop-color="#05A1E6"/>
</linearGradient>
<linearGradient id="paint8_linear_2584_222717" x1="4.14995" y1="16.068" x2="4.14995" y2="7.15666" gradientUnits="userSpaceOnUse">
<stop stop-color="#318ED5"/>
<stop offset="1" stop-color="#38A7E4"/>
</linearGradient>
<linearGradient id="paint9_linear_2584_222717" x1="4.63022" y1="16.1157" x2="4.63022" y2="7.43113" gradientUnits="userSpaceOnUse">
<stop stop-color="#05A1E6"/>
<stop offset="1" stop-color="#05A1E6" stop-opacity="0.549"/>
</linearGradient>
<linearGradient id="paint10_linear_2584_222717" x1="5.17474" y1="16.5698" x2="5.17474" y2="9.23118" gradientUnits="userSpaceOnUse">
<stop stop-color="#1959A6"/>
<stop offset="0.5" stop-color="#05A1E6"/>
<stop offset="0.918" stop-color="#7EC5EA"/>
<stop offset="1" stop-color="#7EC5EA"/>
</linearGradient>
<linearGradient id="paint11_linear_2584_222717" x1="5.39494" y1="16.084" x2="3.99548" y2="8.14723" gradientUnits="userSpaceOnUse">
<stop stop-color="#165096"/>
<stop offset="1" stop-color="#0D82CA"/>
</linearGradient>
<linearGradient id="paint12_linear_2584_222717" x1="18.3774" y1="11.5819" x2="18.3774" y2="7.43417" gradientUnits="userSpaceOnUse">
<stop stop-color="#05A1E6"/>
<stop offset="0.874" stop-color="#0495D6"/>
<stop offset="1" stop-color="#0495D6"/>
</linearGradient>
<linearGradient id="paint13_linear_2584_222717" x1="20.3992" y1="7.06683" x2="18.7127" y2="16.6312" gradientUnits="userSpaceOnUse">
<stop stop-color="#38A7E4" stop-opacity="0.329"/>
<stop offset="0.962" stop-color="#0E88D3"/>
<stop offset="1" stop-color="#0E88D3"/>
</linearGradient>
<linearGradient id="paint14_linear_2584_222717" x1="18.8074" y1="7.40818" x2="18.8074" y2="16.4568" gradientUnits="userSpaceOnUse">
<stop stop-color="#168CD4"/>
<stop offset="0.5" stop-color="#1C87CC"/>
<stop offset="1" stop-color="#154B8D"/>
</linearGradient>
<linearGradient id="paint15_linear_2584_222717" x1="6.56946" y1="6.52504" x2="17.0906" y2="10.8891" gradientUnits="userSpaceOnUse">
<stop stop-color="#97D6EE"/>
<stop offset="0.703" stop-color="#55C1EA"/>
<stop offset="1" stop-color="#55C1EA"/>
</linearGradient>
<linearGradient id="paint16_linear_2584_222717" x1="9.42988" y1="8.99537" x2="17.7398" y2="5.22846" gradientUnits="userSpaceOnUse">
<stop stop-color="#7ACCEC"/>
<stop offset="1" stop-color="#3FB7ED"/>
</linearGradient>
<linearGradient id="paint17_linear_2584_222717" x1="17.5728" y1="7.90017" x2="17.5728" y2="16.7506" gradientUnits="userSpaceOnUse">
<stop stop-color="#1DA7E7"/>
<stop offset="1" stop-color="#37ABE7" stop-opacity="0"/>
</linearGradient>
</defs>
</svg>
