<svg xmlns="http://www.w3.org/2000/svg" width="24" height="24" fill="none"><path fill="#00ACD7" fill-rule="evenodd" d="M2.092 10.28c-.046 0-.057-.022-.034-.056l.238-.307c.023-.034.08-.057.125-.057h4.057c.046 0 .057.034.034.068l-.193.296c-.023.034-.08.068-.113.068zM.376 11.327c-.046 0-.057-.023-.034-.057l.238-.307c.023-.034.08-.057.125-.057h5.182c.046 0 .068.035.057.069l-.091.272c-.011.046-.057.069-.102.069zm2.75 1.045c-.046 0-.057-.034-.034-.068l.159-.284c.023-.034.068-.068.114-.068h2.272c.046 0 .068.034.068.08l-.022.272c0 .046-.046.08-.08.08zm11.795-2.295c-.716.182-1.204.318-1.909.5-.17.045-.182.057-.33-.114-.17-.193-.295-.318-.534-.432-.716-.352-1.409-.25-2.056.171-.773.5-1.17 1.238-1.16 2.159.012.909.637 1.659 1.535 1.784.772.102 1.42-.17 1.931-.75.103-.125.194-.261.307-.42h-2.193c-.239 0-.295-.148-.216-.341.148-.353.42-.943.58-1.239a.31.31 0 0 1 .284-.182h4.136c-.022.307-.022.614-.068.92a4.85 4.85 0 0 1-.932 2.228c-.818 1.08-1.886 1.75-3.238 1.932-1.114.147-2.148-.069-3.057-.75-.841-.637-1.318-1.478-1.443-2.523-.148-1.239.215-2.352.965-3.33.807-1.056 1.875-1.727 3.182-1.965 1.069-.194 2.091-.069 3.012.556a3.56 3.56 0 0 1 1.318 1.603c.068.102.023.159-.114.193" clip-rule="evenodd"/><path fill="#00ACD7" d="M18.683 16.36c-1.035-.023-1.978-.318-2.773-1a3.56 3.56 0 0 1-1.227-2.193c-.205-1.284.147-2.42.92-3.432.83-1.09 1.83-1.659 3.182-1.898 1.159-.204 2.25-.09 3.238.58.898.614 1.455 1.443 1.603 2.534.193 1.534-.25 2.784-1.307 3.852-.75.762-1.67 1.239-2.727 1.455-.307.057-.614.068-.91.102m2.704-4.59c-.011-.149-.011-.262-.034-.376-.204-1.125-1.239-1.761-2.318-1.511-1.057.239-1.739.909-1.989 1.977-.204.886.227 1.784 1.046 2.148.625.273 1.25.239 1.852-.068.898-.466 1.386-1.194 1.443-2.17"/></svg>