<svg xmlns="http://www.w3.org/2000/svg" width="24" height="24" fill="none"><path fill="#EA2D2E" d="M8.928 18.397c-3.598 1.006 2.19 3.083 6.772 1.12-.75-.292-1.29-.629-1.29-.629-2.042.386-2.99.417-4.845.205-1.53-.175-.637-.696-.637-.696m6.223-1.96c-2.708.52-4.272.503-6.254.3-1.532-.16-.529-.902-.529-.902-3.963 1.316 2.206 2.808 7.745 1.188a2.8 2.8 0 0 1-.962-.587m2.122-11.359s-8.012 2-4.185 6.41c1.13 1.3-.296 2.47-.296 2.47s2.866-1.48 1.55-3.334c-1.23-1.727-2.173-2.586 2.931-5.546m1.875 15.215s.662.545-.729.967c-2.644.801-11.007 1.043-13.33.032-.835-.363.73-.867 1.223-.973.514-.112.807-.091.807-.091-.928-.654-6.002 1.284-2.576 1.84 9.341 1.514 17.028-.682 14.605-1.775m-3.21-5.688c.449-.306 1.069-.572 1.069-.572s-1.767.316-3.528.464c-2.155.18-4.466.216-5.627.06-2.747-.366 1.506-1.377 1.506-1.377s-1.652-.112-3.683.87c-2.402 1.162 5.942 1.692 10.263.555m1.051 2.84c-.02.054-.088.116-.088.116 5.864-1.542 3.708-5.434.904-4.449-.245.087-.375.29-.375.29s.156-.063.503-.136c1.417-.295 3.448 1.898-.944 4.179m-4.955-4.307c-.865-1.956-3.799-3.666.001-6.668C16.773 2.73 14.342.297 14.342.297c.98 3.864-3.46 5.032-5.062 7.438-1.092 1.64.536 3.402 2.754 5.403m5.114 9.702c-3.598.678-8.035.599-10.667.164 0 0 .54.447 3.31.625 4.213.27 10.687-.15 10.84-2.144 0 0-.295.756-3.483 1.355"/></svg>