<svg xmlns="http://www.w3.org/2000/svg" width="24" height="24" fill="none"><path fill="#F0DB4F" d="M1.875 1.875h20.25v20.25H1.875z"/><path fill="#323330" d="M20.468 17.295c-.149-.923-.751-1.7-2.535-2.423-.62-.285-1.311-.489-1.517-.958-.073-.274-.083-.428-.037-.593.133-.537.774-.705 1.282-.55.327.109.637.361.824.763.874-.566.872-.562 1.482-.95-.223-.347-.342-.507-.489-.655-.525-.587-1.241-.89-2.387-.866l-.596.077c-.572.144-1.117.444-1.436.847-.959 1.087-.685 2.991.481 3.774 1.15.863 2.837 1.06 3.053 1.866.21.987-.726 1.307-1.655 1.193-.686-.142-1.067-.49-1.479-1.124-.758.439-.758.439-1.538.887.185.405.38.588.69.938 1.466 1.488 5.137 1.415 5.795-.838.027-.077.204-.593.062-1.388m-7.584-6.113h-1.895l-.007 4.897c0 1.041.054 1.996-.116 2.289-.277.575-.995.504-1.322.392-.333-.164-.503-.396-.699-.725-.054-.095-.094-.168-.108-.174l-1.54.944c.256.525.634.981 1.117 1.278.722.433 1.692.566 2.706.333.66-.193 1.23-.591 1.529-1.198.43-.795.338-1.757.334-2.821.01-1.737 0-3.473 0-5.215"/></svg>