<svg xmlns="http://www.w3.org/2000/svg" width="24" height="24" fill="none"><g clip-path="url(#a)"><path fill="#fff" d="M22.72 11.79C22.72 5.405 17.756.23 11.632.23S.544 5.405.544 11.79c0 6.384 4.964 11.559 11.088 11.559s11.088-5.175 11.088-11.56"/><path fill="#212178" d="M10.001 23.91c-2.608-.462-4.845-1.653-6.694-3.564C1.734 18.72.652 16.674.16 14.393c-.213-.985-.213-3.804 0-4.789a13.1 13.1 0 0 1 1.86-4.407c.584-.884 2.293-2.593 3.177-3.177A13.1 13.1 0 0 1 9.606.16c.985-.213 3.803-.213 4.789 0 2.401.518 4.397 1.603 6.12 3.325s2.806 3.718 3.325 6.12c.213.984.213 3.803 0 4.788-.519 2.401-1.603 4.397-3.326 6.12-1.694 1.694-3.665 2.776-6.027 3.309-.838.189-3.607.243-4.486.087m2.169-2.395c0-.787-.012-.843-.17-.843-.157 0-.17.053-.163.73.008.8.064 1.045.227.99.075-.024.106-.279.106-.877m-1.267.27c.224-.224.29-.36.29-.601 0-.247-.03-.307-.144-.285-.078.015-.172.143-.209.283-.036.14-.187.357-.334.482-.266.224-.276.41-.024.41.073 0 .262-.13.421-.288m2.802.197c.031-.05-.064-.194-.21-.319-.148-.124-.298-.341-.335-.481s-.131-.268-.21-.283c-.112-.022-.142.038-.142.285 0 .49.702 1.114.897.798M9.83 20.455c0-.05-.119-.155-.264-.234-.948-.52-2.06-1.346-2.678-1.99-1.206-1.258-1.75-2.51-1.762-4.064-.01-1.039.124-1.58.63-2.551.49-.938 1.056-1.646 2.616-3.266 1.742-1.81 2.142-2.288 2.445-2.913.215-.444.244-.606.274-1.544.037-1.165-.034-1.97-.174-1.97-.064 0-.075.302-.04.982.117 2.173-.287 2.848-2.792 4.665C6.361 8.82 5.57 9.5 4.971 10.244c-.847 1.052-1.222 1.963-1.316 3.197-.226 2.975 1.66 5.556 4.986 6.822.734.28 1.19.353 1.19.191m5.756-.241c1.144-.477 2.013-1.053 2.834-1.877 1.25-1.256 1.77-2.431 1.848-4.17.067-1.525-.263-2.534-1.207-3.677-.647-.782-1.343-1.342-3.22-2.59-2.526-1.678-3.12-2.346-3.12-3.514 0-.311.057-.751.125-.978.117-.388.114-.655-.004-.35-.11.29-.365.157-.501-.264l-.132-.403.05.382c.177 1.358.199 1.927.12 3.115-.106 1.607-.303 2.705-.845 4.702-.539 1.982-.636 2.7-.568 4.214.056 1.28.235 2.237.651 3.487.386 1.159.458 1.247 1.17 1.43.39.099.76.268 1.054.48.277.2.554.33.71.333.14.002.606-.142 1.035-.32m-.257-.577c-.106-.106-.056-.197.359-.655 1.307-1.443 1.892-2.933 1.91-4.857.011-1.312-.279-2.18-1.163-3.487-.4-.59-1.807-2.064-2.487-2.605-.499-.396-1.012-1.072-1.104-1.455-.092-.387.168-.285.468.184.148.23.468.568.711.75.243.184.962.72 1.598 1.192 2.187 1.626 3.161 3.013 3.38 4.814.127 1.042-.075 2.119-.583 3.119-.527 1.036-1.488 2.165-2.311 2.714-.507.338-.667.397-.778.286m-4.282.11c.025-.065-.194-.476-.486-.915-.774-1.16-1.11-1.8-1.424-2.71-.266-.766-.28-.87-.282-2.04-.003-1.769.188-2.33 1.592-4.66C11.77 7.225 11.95 6.374 11.8 2.994c-.054-1.212-.114-2.22-.135-2.241-.14-.14-.17.22-.117 1.438.102 2.426-.055 3.778-.566 4.887-.349.755-.739 1.326-1.787 2.625-1.46 1.807-1.872 2.766-1.865 4.336.006 1.077.151 1.74.586 2.66.471.997 1.338 2.004 2.425 2.814.5.374.635.419.707.233"/></g><defs><clipPath id="a"><path fill="#fff" d="M0 0h24v24H0z"/></clipPath></defs></svg>