<svg xmlns="http://www.w3.org/2000/svg" width="24" height="24" fill="none"><path fill="#6181B6" d="M12 6.195C5.674 6.195.545 8.794.545 12S5.674 17.805 12 17.805 23.455 15.206 23.455 12 18.326 6.195 12 6.195M9.02 13.13c-.274.256-.578.361-.912.47s-.76.086-1.277.086H5.66l-.325 1.876h-1.37l1.222-6.375H7.82c.792 0 1.37.227 1.733.643s.472 1.006.327 1.75q-.09.464-.302.847-.223.396-.558.703m3.995.556.54-2.703c.062-.317.04-.552-.067-.667s-.335-.192-.682-.192h-1.085l-.7 3.563H9.663L10.884 7.5h1.358l-.324 1.688h1.21c.761 0 1.286.152 1.575.418.289.265.376.63.26 1.224l-.568 2.858zm7.549-2.095q-.09.46-.303.841a2.8 2.8 0 0 1-.557.698c-.273.256-.577.361-.911.47s-.76.086-1.277.086h-1.173l-.325 1.876H14.65l1.221-6.375h2.633c.792 0 1.37.227 1.732.643.363.416.473 1.016.328 1.76m-2.58-1.467h-.937l-.511 2.625h.833c.551 0 .963-.054 1.233-.262s.452-.53.547-1.017c.09-.467.05-.831-.124-1.023-.173-.192-.52-.323-1.04-.323m-10.684 0h-.938l-.511 2.625h.833c.551 0 .963-.054 1.233-.262s.452-.53.547-1.017c.09-.467.05-.831-.124-1.023-.173-.192-.52-.323-1.04-.323"/></svg>