<svg xmlns="http://www.w3.org/2000/svg" width="24" height="24" fill="none"><path fill="url(#a)" d="M11.886 2.297c-.792.003-1.547.07-2.213.188-1.959.346-2.315 1.071-2.315 2.407v1.765h4.63v.588H5.621c-1.346 0-2.524.809-2.893 2.348-.425 1.763-.444 2.864 0 4.705.33 1.371 1.115 2.347 2.461 2.347h1.592V14.53c0-1.528 1.322-2.876 2.893-2.876h4.624c1.288 0 2.315-1.06 2.315-2.353V4.892c0-1.254-1.058-2.197-2.315-2.406a14.5 14.5 0 0 0-2.412-.19M9.382 3.716c.478 0 .869.397.869.885 0 .486-.39.88-.869.88a.874.874 0 0 1-.869-.88c0-.488.389-.885.869-.885"/><path fill="url(#b)" d="M17.19 7.245V9.3c0 1.594-1.351 2.935-2.892 2.935H9.673c-1.266 0-2.315 1.085-2.315 2.353V19c0 1.254 1.091 1.992 2.315 2.352 1.466.43 2.871.509 4.625 0 1.165-.338 2.315-1.017 2.315-2.353v-1.765h-4.625v-.588h6.94c1.346 0 1.847-.938 2.315-2.347.484-1.45.463-2.845 0-4.706-.332-1.34-.967-2.347-2.315-2.347zm-2.6 11.165c.48 0 .868.393.868.88a.877.877 0 0 1-.869.884.88.88 0 0 1-.869-.884c0-.487.391-.88.87-.88"/><path fill="url(#c)" d="M18.246 22.424c0 .665-2.778 1.203-6.205 1.203s-6.205-.538-6.205-1.203c0-.664 2.778-1.203 6.205-1.203s6.204.539 6.204 1.203" opacity=".444"/><defs><linearGradient id="a" x1="1.938" x2="12.617" y1="2.848" y2="11.955" gradientUnits="userSpaceOnUse"><stop stop-color="#5A9FD4"/><stop offset="1" stop-color="#306998"/></linearGradient><linearGradient id="b" x1="16.635" x2="12.805" y1="17.616" y2="12.245" gradientUnits="userSpaceOnUse"><stop stop-color="#FFD43B"/><stop offset="1" stop-color="#FFE873"/></linearGradient><radialGradient id="c" cx="0" cy="0" r="1" gradientTransform="matrix(0 -1.20343 5.2901 0 12.016 22.39)" gradientUnits="userSpaceOnUse"><stop stop-color="#B8B8B8" stop-opacity=".498"/><stop offset="1" stop-color="#7F7F7F" stop-opacity="0"/></radialGradient></defs></svg>