<svg xmlns="http://www.w3.org/2000/svg" width="24" height="24" fill="none"><path fill="#D91404" fill-rule="evenodd" d="m7.934 18.87 11.89 1.622-4.02-6.694zM20.948 6.336q-.527.792-1.053 1.583l-3.613 5.438c-.067.1-.154.18-.06.336 1.163 1.92 2.317 3.847 3.474 5.771.182.304.367.607.603.898L21 6.353zM5.073 12.325c.054.052.19.082.253.05 1.116-.548 2.239-1.084 3.33-1.677.356-.194.63-.54.936-.822q1.522-1.396 3.041-2.796c.062-.058.136-.113.173-.185.364-.711.721-1.426 1.091-2.162-.441-.166-.86-.328-1.283-.476-.058-.02-.148.02-.21.055-.982.548-1.98 1.066-2.93 1.664-.476.3-.863.74-1.283 1.123-.678.62-1.356 1.24-2.024 1.87a3.5 3.5 0 0 0-.477.558c-.457.666-.9 1.34-1.364 2.035.26.268.495.524.747.763m4.077-.91-1.677 7.083 7.878-5.076zM20.267 6.36l-6.695 1.118 2.272 5.527zM9.243 10.936l6.078 1.973-2.248-5.475zm-4.086 2.756L3.03 18.777l4.051-.12zm1.972 3.786.05-.011c.487-2.023.98-4.031 1.477-6.133l-3.25 1.69c.554 1.44 1.144 2.959 1.723 4.454m12.32-11.446q-.97-.257-1.94-.513-1.396-.366-2.79-.733c-.117-.031-.201-.051-.27.089-.328.673-.667 1.34-1 2.011-.01.021-.009.048-.017.1l6.017-.912zM15.698 4.5l5.272 1.458-.87-2.482-4.394.974zM7.576 19.258c-.653-.075-1.323-.006-1.986.005-.544.01-1.088.03-1.632.047a.22.22 0 0 0-.167.073l13.493 1.248.009-.06-4.326-.59c-1.796-.246-3.59-.516-5.391-.723m-4.457-2.033q.868-2.017 1.738-4.035c.059-.134.054-.226-.06-.334-.243-.232-.47-.482-.735-.759L3 17.337l.04.018c.026-.043.059-.084.079-.13m11.423-13.08c.978-.251 1.97-.449 2.955-.668.064-.015.126-.036.189-.054l-.01-.048-4.235.57c.397.174.704.303 1.101.2" clip-rule="evenodd"/></svg>