<svg xmlns="http://www.w3.org/2000/svg" width="24" height="24" fill="none"><path fill="#000" fill-rule="evenodd" d="M11.63.605c-.041.024-.212.269-.38.544-.423.693-.428.693-.995.097-.369-.388-.458-.459-.577-.458a.43.43 0 0 0-.217.058c-.042.032-.161.284-.265.56-.236.632-.248.653-.38.678-.08.015-.235-.071-.608-.339-.276-.198-.546-.36-.6-.36-.228 0-.292.125-.4.774-.137.826-.133.823-.878.485-.3-.136-.586-.248-.634-.248s-.139.052-.202.115c-.115.114-.115.115-.084.746l.032.632-.12.064c-.106.057-.179.05-.648-.061-.612-.145-.742-.14-.866.026l-.09.122.121.521.143.613a.25.25 0 0 1-.045.18c-.061.078-.126.085-.693.077-.96-.016-1.014.067-.618.931.126.275.23.524.23.554 0 .158-.127.215-.668.303-.303.05-.566.09-.585.09s-.076.042-.126.092c-.165.165-.118.32.255.846.466.657.465.66-.304.953-.875.334-.893.417-.227 1.048.62.588.621.579-.08 1.02-.533.334-.54.342-.554.523-.017.22-.013.224.622.611.628.384.628.395.012.978-.663.626-.643.718.233 1.048.765.288.766.291.3.948-.265.372-.35.527-.35.642 0 .215.113.27.782.382.564.095.69.15.69.306 0 .032-.104.283-.23.559-.394.855-.349.927.582.927.867 0 .844-.027.657.755-.14.588-.143.701-.015.829.098.097.282.086.857-.051.44-.105.517-.113.619-.058l.116.062-.032.632c-.03.631-.03.632.084.747.063.063.156.114.205.114.05 0 .335-.11.634-.247.743-.336.738-.34.875.484.109.652.172.773.404.773.057 0 .322-.154.588-.344.467-.333.588-.385.712-.306.032.02.157.294.277.608.176.461.24.581.339.628.187.09.303.018.742-.46.53-.578.553-.575.986.126.478.775.602.773 1.093-.015.422-.68.418-.68.989-.083.38.396.46.459.588.459.082 0 .18-.031.217-.068s.161-.315.275-.615.233-.562.263-.582c.121-.077.246-.023.713.308.274.195.533.344.594.344.228 0 .31-.161.405-.797.08-.541.097-.593.204-.647.105-.053.168-.036.66.188.3.135.584.246.634.246s.143-.053.208-.118l.119-.118-.033-.606c-.031-.578-.028-.61.064-.693.095-.086.105-.085.636.036.644.147.764.15.884.03.119-.118.117-.144-.044-.825-.182-.763-.206-.736.665-.736.593 0 .66-.009.735-.092.127-.14.097-.3-.157-.84-.129-.273-.233-.52-.232-.551.005-.16.13-.216.715-.31.358-.059.626-.126.674-.17.163-.146.103-.337-.268-.856-.465-.65-.463-.657.282-.931.89-.328.916-.438.25-1.07-.619-.587-.619-.584.058-.999.818-.501.819-.614.014-1.113-.692-.43-.691-.423-.071-1.011.665-.632.647-.715-.228-1.049-.772-.295-.774-.302-.305-.946.28-.383.349-.51.349-.641 0-.23-.104-.281-.78-.39-.567-.092-.691-.147-.691-.308 0-.03.103-.277.23-.547.247-.53.282-.742.142-.869-.075-.068-.176-.077-.716-.069-.564.01-.636.002-.715-.077-.085-.086-.084-.098.05-.654.163-.683.164-.7.029-.826-.137-.128-.222-.126-.85.022-.456.107-.532.114-.636.059l-.117-.063.032-.63.033-.63-.118-.117c-.065-.065-.157-.118-.205-.118s-.331.112-.63.25c-.5.23-.553.245-.661.188s-.126-.112-.218-.673c-.106-.649-.172-.775-.402-.775-.055 0-.326.162-.603.36-.455.327-.516.358-.629.319-.094-.033-.148-.104-.215-.281-.05-.13-.143-.382-.21-.559-.134-.356-.209-.436-.41-.436-.111 0-.213.08-.577.458-.571.593-.573.592-.994-.096-.168-.276-.343-.521-.39-.546a.33.33 0 0 0-.326 0m.52 2.074c.498.354.233 1.186-.377 1.186-.593 0-.891-.713-.468-1.118a.65.65 0 0 1 .845-.068m-.626 2.198c.327.124.46.05 1.206-.668l.56-.54.237.032c.743.099 2.222.748 3.071 1.348.78.552 1.818 1.676 2.26 2.449l.095.165-.42.943c-.23.519-.418.997-.418 1.064 0 .154.101.399.199.48.04.034.432.222.869.417l.793.356.032.202c.04.263.045.908.009 1.092l-.03.143h-.452c-.526 0-.485-.047-.514.597-.02.467-.133.725-.39.892-.418.273-1.11.223-1.402-.1-.045-.05-.133-.3-.195-.556-.181-.747-.424-1.167-.914-1.575-.154-.13-.28-.25-.28-.268s.17-.16.377-.317c.756-.57 1.191-1.232 1.239-1.89.091-1.252-.908-2.42-2.393-2.797-.353-.09-.503-.093-4.861-.093-2.473 0-4.497-.016-4.497-.036 0-.046.55-.579.873-.846.89-.735 2.045-1.313 3.24-1.621l.414-.107.588.595c.323.328.64.615.704.64m-7.4 3.831c.27.177.381.622.221.89-.247.414-.874.431-1.121.031-.36-.582.333-1.292.9-.921m15.953.023c.709.431.16 1.493-.599 1.158a.642.642 0 0 1-.027-1.168.64.64 0 0 1 .626.01M6.211 11.373v2.64H3.874l-.092-.402c-.183-.79-.26-1.609-.213-2.28l.032-.47.803-.36c.504-.226.828-.398.87-.461.182-.279.165-.478-.091-1.043l-.12-.264H6.21zm6.726-2.525c.5.13.765.394.765.765 0 .272-.134.443-.47.594-.237.107-.274.11-1.77.125l-1.528.014V8.778h1.369c1.07 0 1.427.015 1.634.07m-.516 3.788c.248.069.54.284.691.508.158.235.25.54.47 1.553.184.856.303 1.136.636 1.5.413.45.317.433 2.378.433.987 0 1.795.016 1.795.036 0 .034-.68.837-.71.837-.008 0-.363-.074-.788-.165-1.202-.257-1.245-.226-1.521 1.06l-.177.827-.16.078c-.268.132-1.136.403-1.586.496a8.2 8.2 0 0 1-2.264.144c-1.213-.102-2.82-.572-2.882-.843l-.18-.827c-.085-.398-.188-.774-.23-.838-.198-.303-.408-.321-1.328-.118-.348.077-.652.14-.675.14-.044 0-.69-.747-.69-.797 0-.016 1.535-.034 3.412-.04l3.413-.012.012-1.212c.009-.855-.003-1.23-.04-1.274-.041-.05-.262-.063-1.058-.063H9.934v-1.47h1.16c.638.001 1.235.022 1.327.047m-5.259 5.508c.543.33.282 1.196-.36 1.195-.658 0-.901-.858-.34-1.2.185-.113.51-.11.7.005m9.938.036c.266.195.354.6.19.87-.433.71-1.516.146-1.154-.6.178-.367.65-.5.964-.27" clip-rule="evenodd"/></svg>