<svg xmlns="http://www.w3.org/2000/svg" width="16" height="16" viewBox="0 0 16 16">
	<path d="M10.8,0 C11.074,0 11.337,0.113 11.526,0.312 L14.726,3.74 C14.902,3.926 15,4.173 15,4.429 L15,15 C15,15.552 14.552,16 14,16 L2,16 C1.448,16 1,15.552 1,15 L1,1 C1,0.448 1.448,0 2,0 L10.8,0 Z M14,5 L10.5,5 C10.224,5 10,4.776 10,4.5 L10,1 L2,1 L2,15 L14,15 L14,5 Z M5.5,12 C5.22385763,12 5,11.7761424 5,11.5 C5,11.2238576 5.22385763,11 5.5,11 L10.5,11 C10.7761424,11 11,11.2238576 11,11.5 C11,11.7761424 10.7761424,12 10.5,12 L5.5,12 Z M5.5,9 C5.22385763,9 5,8.77614237 5,8.5 C5,8.22385763 5.22385763,8 5.5,8 L10.5,8 C10.7761424,8 11,8.22385763 11,8.5 C11,8.77614237 10.7761424,9 10.5,9 L5.5,9 Z" />
</svg>
