<svg xmlns="http://www.w3.org/2000/svg" width="16" height="16" viewBox="0 0 16 16">
  <path d="M8.5,1.44337567 C8.19059892,1.26474288 7.80940108,1.26474288 7.5,1.44337567 L2.57179677,4.28867513 C2.26239569,4.46730793 2.07179677,4.79743495 2.07179677,5.15470054 L2.07179677,10.8452995 C2.07179677,11.2025651 2.26239569,11.5326921 2.57179677,11.7113249 L7.5,14.5566243 C7.80940108,14.7352571 8.19059892,14.7352571 8.5,14.5566243 L13.4282032,11.7113249 C13.7376043,11.5326921 13.9282032,11.2025651 13.9282032,10.8452995 L13.9282032,5.15470054 C13.9282032,4.79743495 13.7376043,4.46730793 13.4282032,4.28867513 L8.5,1.44337567 Z M9,0.577350269 L13.9282032,3.42264973 C14.5470054,3.77991532 14.9282032,4.44016936 14.9282032,5.15470054 L14.9282032,10.8452995 C14.9282032,11.5598306 14.5470054,12.2200847 13.9282032,12.5773503 L9,15.4226497 C8.38119785,15.7799153 7.61880215,15.7799153 7,15.4226497 L2.07179677,12.5773503 C1.45299462,12.2200847 1.07179677,11.5598306 1.07179677,10.8452995 L1.07179677,5.15470054 C1.07179677,4.44016936 1.45299462,3.77991532 2.07179677,3.42264973 L7,0.577350269 C7.61880215,0.220084679 8.38119785,0.220084679 9,0.577350269 Z"/>
</svg>
