<svg id="Layer_1" data-name="Layer 1" xmlns="http://www.w3.org/2000/svg" viewBox="0 0 25 25"><defs><style>.cls-1{fill:none;}.cls-2,.cls-3{fill:#fff;}.cls-2{opacity:0.65;}</style></defs><title>Icon-Elasticsearch</title><path class="cls-1" d="M1.26,18H17.92a5.93,5.93,0,0,1,4.52,2.09,12.49,12.49,0,0,0,0-15.18A5.94,5.94,0,0,1,17.85,7H1.26A12.42,12.42,0,0,0,.5,9H16.44a3.51,3.51,0,0,1,0,7H0.5a12.41,12.41,0,0,0,.76,2h0Z" transform="translate(0)"/><path class="cls-2" d="M4.85,2.62L5.28,2.3Z" transform="translate(0)"/><path class="cls-2" d="M1.76,6.1q0.19-.31.39-0.61C2,5.69,1.89,5.89,1.76,6.1Z" transform="translate(0)"/><path class="cls-2" d="M2.31,5.26l0.32-.43Z" transform="translate(0)"/><path class="cls-2" d="M5.5,2.14l0.6-.38Z" transform="translate(0)"/><path class="cls-2" d="M3.49,3.84l0.37-.37Z" transform="translate(0)"/><path class="cls-2" d="M4.07,3.27l0.54-.47Z" transform="translate(0)"/><path class="cls-2" d="M1.34,6.87q0.13-.27.28-0.53Q1.47,6.6,1.34,6.87Z" transform="translate(0)"/><path class="cls-2" d="M2.82,4.6Q3,4.32,3.28,4.06,3,4.32,2.82,4.6Z" transform="translate(0)"/><path class="cls-2" d="M22.41,4.89A12.49,12.49,0,0,0,6.22,1.69,13.9,13.9,0,0,1,10.49,7h7.36A5.94,5.94,0,0,0,22.41,4.89Z" transform="translate(0)"/><path class="cls-2" d="M22.44,20.07A5.93,5.93,0,0,0,17.92,18H10.7a13.87,13.87,0,0,1-4.12,5.53A12.55,12.55,0,0,1,1.27,18h0A12.5,12.5,0,0,0,22.44,20.07Z" transform="translate(0)"/><path class="cls-2" d="M11.41,12.49A15,15,0,0,1,11,16h5.44a3.51,3.51,0,0,0,0-7H11A13.83,13.83,0,0,1,11.41,12.49Z" transform="translate(0)"/><path class="cls-3" d="M11.41,12.49A13.83,13.83,0,0,0,11,9H0.5a12.49,12.49,0,0,0,0,7H11A15,15,0,0,0,11.41,12.49Z" transform="translate(0)"/><path class="cls-3" d="M2.63,4.83L2.82,4.6Z" transform="translate(0)"/><path class="cls-3" d="M2.15,5.49l0.16-.23Z" transform="translate(0)"/><path class="cls-3" d="M1.26,7h0l0.07-.14Z" transform="translate(0)"/><path class="cls-3" d="M1.62,6.35L1.76,6.1Z" transform="translate(0)"/><path class="cls-3" d="M3.86,3.47l0.21-.2Z" transform="translate(0)"/><path class="cls-3" d="M3.28,4.06l0.2-.21Z" transform="translate(0)"/><path class="cls-3" d="M6.22,1.69L6.1,1.76l0.12-.07h0Z" transform="translate(0)"/><path class="cls-3" d="M5.28,2.3L5.5,2.14Z" transform="translate(0)"/><path class="cls-3" d="M4.61,2.81l0.24-.19Z" transform="translate(0)"/><path class="cls-3" d="M6.22,1.69L6.1,1.76l-0.6.38L5.28,2.3l-0.43.32-0.24.19-0.54.47-0.21.2-0.37.37-0.2.21Q3,4.32,2.82,4.6l-0.18.23-0.32.43-0.16.23q-0.2.3-.39,0.61l-0.14.25q-0.15.26-.28,0.53L1.27,7h9.23A13.9,13.9,0,0,0,6.22,1.69Z" transform="translate(0)"/><polygon class="cls-3" points="1.26 17.97 1.27 17.98 10.71 17.98 10.71 17.97 1.26 17.97"/><path class="cls-3" d="M6.58,23.51A13.87,13.87,0,0,0,10.7,18H1.27A12.55,12.55,0,0,0,6.58,23.51Z" transform="translate(0)"/></svg>