<?xml version="1.0" encoding="UTF-8" standalone="no"?>
<!-- Created with Inkscape (http://www.inkscape.org/) -->

<svg
   xmlns:dc="http://purl.org/dc/elements/1.1/"
   xmlns:cc="http://creativecommons.org/ns#"
   xmlns:rdf="http://www.w3.org/1999/02/22-rdf-syntax-ns#"
   xmlns:svg="http://www.w3.org/2000/svg"
   xmlns="http://www.w3.org/2000/svg"
   xmlns:sodipodi="http://sodipodi.sourceforge.net/DTD/sodipodi-0.dtd"
   xmlns:inkscape="http://www.inkscape.org/namespaces/inkscape"
   width="120mm"
   height="120mm"
   viewBox="0 0 425.19685039 425.19685039"
   id="svg2816"
   version="1.1"
   inkscape:version="0.91 r13725"
   sodipodi:docname="icon.svg">
  <defs
     id="defs2818">
    <clipPath
       id="clipPath8447"
       clipPathUnits="userSpaceOnUse">
      <path
         inkscape:connector-curvature="0"
         id="path8449"
         d="m 0,440.426 600,0 L 600,0 0,0 0,440.426 Z" />
    </clipPath>
  </defs>
  <sodipodi:namedview
     pagecolor="#ffffff"
     bordercolor="#666666"
     borderopacity="1.0"
     inkscape:pageopacity="0.0"
     inkscape:pageshadow="2"
     inkscape:zoom="0.35355339"
     inkscape:cx="131.22671"
     inkscape:cy="378.13107"
     inkscape:document-units="mm"
     inkscape:current-layer="Template"
     id="namedview2820"
     showgrid="false"
     units="mm"
     showguides="true"
     inkscape:guide-bbox="true"
     inkscape:snap-global="true"
     inkscape:snap-bbox="true"
     inkscape:snap-bbox-midpoints="true"
     inkscape:window-width="1469"
     inkscape:window-height="956"
     inkscape:window-maximized="0"
     inkscape:bbox-paths="true"
     inkscape:bbox-nodes="true"
     inkscape:snap-bbox-edge-midpoints="true"
     inkscape:snap-grids="true"
     inkscape:window-x="219"
     inkscape:window-y="0">
    <sodipodi:guide
       orientation="1,0"
       position="212.59843,0"
       id="guide3337" />
    <sodipodi:guide
       orientation="0,1"
       position="0,212.59843"
       id="guide3339" />
    <inkscape:grid
       type="xygrid"
       id="grid3351"
       units="mm"
       spacingx="1mm"
       spacingy="1mm"
       empspacing="5" />
  </sodipodi:namedview>
  <metadata
     id="metadata2822">
    <rdf:RDF>
      <cc:Work
         rdf:about="">
        <dc:format>image/svg+xml</dc:format>
        <dc:type
           rdf:resource="http://purl.org/dc/dcmitype/StillImage" />
        <dc:title />
      </cc:Work>
    </rdf:RDF>
  </metadata>
  <g
     inkscape:groupmode="layer"
     id="Template"
     inkscape:label="Layer 1"
     style="fill:none;stroke:#ffffff;stroke-width:0.35433071px">
    <path
       style="fill:#ffffff;fill-opacity:1;stroke:none;stroke-width:0.40064034px"
       d="m 212.51556,43.816204 c -9.94498,-0.10448 -19.76629,0.48399 -29.2095,1.7876 -20.46985,2.82579 -44.80699,10.19267 -63.24889,19.14519 l -4.40117,2.1364 -6.10156,-1.45334 c -9.20676,-2.19337 -20.126509,-3.40347 -34.109639,-3.78106 -24.50715,-0.66175 -46.57065,2.51896 -60.56992,8.73208 l -5.9513901,2.64021 -1.93292,6.24447 c -1.06277,3.43372 -2.4151,8.63049 -3.00598,11.54913 -1.53125,7.56139 -2.05401,22.687276 -1.0682,30.902626 1.65858,13.82185 6.7527,29.78901 13.1066101,41.06865 l 3.20218,5.68496 -2.17516,6.27838 c -6.02018,17.37428 -8.0762301,29.39951 -8.0684001,47.17021 0,15.17828 1.2843301,23.63498 5.5904801,36.97997 12.82745,39.75098 49.84408,72.52427 101.466619,89.83514 5.80702,1.94729 6.68198,2.47716 11.54186,7.0099 6.66504,6.21636 14.39167,11.3493 23.05222,15.31566 9.78729,4.48231 16.27558,6.2191 29.79809,7.9691 20.28599,2.62519 35.75405,3.02196 53.96213,1.38551 10.00303,-0.89906 22.3711,-2.84396 27.60841,-4.34061 12.30523,-3.51643 24.69915,-10.50496 34.98405,-19.72652 7.02577,-6.29943 7.51497,-6.60945 14.28867,-9.0155 47.51848,-16.87912 81.2963,-46.48266 95.69689,-83.87405 6.04823,-15.70401 8.67135,-34.47172 7.17944,-51.3631 -1.01092,-11.44237 -3.54478,-23.93594 -6.7943,-33.49439 -1.35294,-3.97957 -2.45855,-7.52644 -2.45855,-7.88189 0,-0.35549 1.88245,-4.08107 4.18315,-8.27913 14.6159,-26.67106 17.6998,-57.67627 8.47534,-85.211126 l -1.51872,-4.53195 -4.69426,-2.10492 c -21.65103,-9.70728 -66.27117,-12.03073 -96.50835,-5.02609 l -6.55693,1.51872 -12.08444,-5.25862 c -6.64658,-2.89168 -15.19046,-6.27668 -18.98775,-7.5234 -20.33766,-6.6772 -42.81112,-10.25834 -64.69011,-10.48821 z M 114.9584,120.1596 c 0.89827,0 32.56973,11.89177 33.22312,12.4744 1.08465,0.96712 -1.52492,5.9751 -4.57314,8.7757 -1.55336,1.42707 -4.13505,3.09699 -5.73581,3.70841 -15.64828,5.97722 -31.56691,-8.02023 -24.881,-21.87746 0.8177,-1.69469 1.70241,-3.08105 1.96683,-3.08105 z m 184.42024,0.62977 c 0.10351,0.009 0.1807,0.0276 0.22527,0.0606 1.25451,0.92826 3.06168,6.41925 3.06168,9.30132 0,5.85906 -4.47397,11.95187 -10.69651,14.56961 -7.49256,3.15191 -14.37348,2.33937 -20.76566,-2.45612 -2.33787,-1.75398 -5.64618,-6.93055 -5.64618,-8.81687 0.005,-1.53511 30.61194,-12.90841 33.8214,-12.6585 z m -88.55862,28.93337 c 14.37063,-0.027 28.75317,2.4358 36.61178,7.55488 10.61987,6.91764 7.19471,20.25668 -8.13622,31.68501 -5.51941,4.11429 -15.42291,8.75917 -21.67882,10.16846 -7.75654,1.74733 -13.53947,0.90038 -23.13459,-3.38625 -14.44842,-6.45479 -25.26854,-17.48329 -26.11875,-26.625 -0.46187,-4.96531 0.28073,-7.30805 3.1513,-9.94318 6.7457,-6.19289 23.01858,-9.42333 39.3053,-9.45392 z m -0.46507,83.43806 c 8.82994,1e-5 21.90971,3.55346 32.18398,8.74421 15.77369,7.9691 30.57783,21.1565 35.90208,31.98051 3.68786,7.4971 4.18188,16.00812 1.26924,21.86534 -5.22267,10.50284 -25.03716,18.03508 -53.7199,20.42411 -18.1235,1.50956 -40.77834,-0.15131 -56.23658,-4.12259 -16.44895,-4.22581 -26.40281,-10.46652 -28.75897,-18.03341 -4.53633,-14.56882 8.41138,-34.36087 31.45973,-48.0931 12.762,-7.60349 28.08632,-12.76507 37.90042,-12.76507 z"
       id="path4206"
       inkscape:connector-curvature="0" />
  </g>
</svg>
