<?xml version="1.0" encoding="UTF-8" standalone="no"?>
<!DOCTYPE svg PUBLIC "-//W3C//DTD SVG 1.1//EN" "http://www.w3.org/Graphics/SVG/1.1/DTD/svg11.dtd">
<!-- Created with Inkscape (http://www.inkscape.org/) by Marsupilami -->
<svg
   xmlns:svg="http://www.w3.org/2000/svg"
   xmlns="http://www.w3.org/2000/svg"
   id="svg100"
   version="1.1"
   width="1024"
   height="507"
   viewBox="-60.002079 -60.002079 4285.518358 2120.073458">
  <defs
     id="defs97" />
  <path
     style="fill:#0057ae;fill-opacity:1"
     id="path28"
     d="m 2883.4809,984.64746 c -16.5,0 -25.5,9.10073 -25.5,25.80274 v 285.2989 c -31.8,-46.4 -82.8996,-72.0996 -145.5996,-72.0996 -144.4,0 -230.5,104.2011 -230.5,284.2011 0,179.9 85.6,284 230,284 64,0 116.2988,-27.0011 148.2988,-73.2011 l 9,41 c 2.7,15.4 12.8012,23.0996 28.2012,23.0996 h 67.7988 c 16.5,0 25.5,-8.8996 25.5,-25.5996 v -746.6993 c 0.1,-16.80201 -8.7004,-25.80274 -25.4004,-25.80274 z m -907.1211,0.11914 c -16.5,0 -25.5,9.09873 -25.5,25.8028 v 746.7011 c 0,16.6 8.8,25.5997 25.5,25.5997 h 81.8008 c 16.5,0 25.5,-8.8997 25.5,-25.5997 l 0.1992,-251.8007 c 79.2,77 134.1,159.2 180,262 5.2,9.1 17.8015,15.4004 30.6015,15.4004 h 100.8985 c 20.4,0.1 24.3015,-10.0993 14.1015,-30.6993 -56.1,-115.6 -109.8011,-195.3015 -185.2011,-268.6015 l 176.4004,-218.5 c 12.8,-18.1 6.5,-32.1992 -14,-32.1992 h -91.9004 c -12.8,0 -24.3,4.9996 -32,14.0996 l -178.9004,228.7011 v -465.1015 c 0,-16.80406 -8.9992,-25.8028 -25.6992,-25.8028 z m 1373.4101,238.9825 c -113.8,0 -200.5996,59.1015 -221.0996,154.1015 -3.8,16.8 5.2,28.2989 23,28.2989 h 87 c 14,0 22.9992,-6.2997 28.1992,-23.0997 12.8,-41.2 38.3016,-60.5 83.1016,-60.5 56.1,0 85.5996,35.9993 85.5996,106.6993 v 20.6015 h -71.4004 c -172.6,0 -254.4004,60.2992 -254.4004,177.1992 0,100.2 71.4,164.6993 180,164.6993 65.1,0 117.6004,-26.9993 149.4004,-73.1993 l 7.6992,41 c 2.5,15.4 12.8012,23.0997 28.2012,23.0997 h 67.7988 c 16.7,0 25.5,-9.0997 25.5,-25.5997 v -325.1992 c -0.1,-132.2 -72.8996,-208.1015 -218.5996,-208.1015 z m -2216.9804,0.2011 c -155.90502,0 -264.50392,113.1 -264.50392,284 0,170.9 108.5989,284 264.50392,284 155.9,0 264.5,-114.4 264.5,-284 0,-169.6 -108.6,-284 -264.5,-284 z m 645.3808,2.42 c -57.5,0 -107.3004,30.8003 -135.4004,75.9003 l -9,-46.2011 c -2.5,-14.1 -11.4992,-23.0996 -28.1992,-23.0996 h -67.8008 c -16.7,0 -25.5,9.0996 -25.5,25.5996 l 0.1,498.7011 c 0,16.8 9,25.5997 25.5,25.5997 h 82 c 16.7,0 25.5,-8.9004 25.5,-25.4004 l -0.1,-280.1993 c 0,-79.8 44.7996,-135.0996 122.5996,-135.0996 17.8,0 33.1012,2.4996 48.7012,9.0996 19.2,7.7 26.7988,2.4997 26.7988,-15.4003 v -75.9004 c 0,-7.7 -3.8,-12.8989 -9,-16.7989 -15.4,-11.6 -34.4992,-16.8007 -56.1992,-16.8007 z m -1755.58002,6.4804 c -17.7999997,0 -25.4995997,11.5989 -21.59959973,28.2989 34.40009973,167 75.20009973,332.9003 135.40039973,499.9003 5,15.4 14.0008,21.8008 29.3008,21.8008 h 93.2988 c 14,0 25.5008,-6.4008 29.3008,-21.8008 l 112.4004,-395.9003 112.4004,395.9003 c 3.8,15.4 15.2988,21.8008 29.2988,21.8008 h 93.6016 c 15.3,0 24.0997,-6.4008 29.3007,-21.8008 60.2,-167 100.9985,-332.9003 135.3985,-499.9003 3.8,-16.8 -3.7996,-28.2989 -21.5996,-28.2989 h -83.0996 c -15.3,0 -25.6993,7.6989 -28.1993,21.7989 -21.601,118.3 -47.3027,240.4003 -81.8027,359.9003 l -99.5996,-359.9003 c -3.8,-14.1 -13.9988,-21.7989 -29.2988,-21.7989 h -112.5 c -15.3,0 -25.5008,7.6989 -29.3008,21.7989 l -99.5996,359.9003 c -34.5,-119.6 -60.2008,-241.6003 -81.8008,-359.9003 -2.7,-14.1 -12.7992,-21.7989 -28.1992,-21.7989 z m 3658.56052,0.1192 c -17.9,-0.1 -26.8996,10.1011 -23.0996,28.2011 44.6,190.1 115.2996,369.8985 197.0996,509.8985 -34.5,79.8 -55.0008,118.3008 -113.8008,118.3008 -14,0 -29.2996,-2.5008 -44.5996,-6.3008 -17.8,-5.2 -28.1992,1.3008 -28.1992,19.3008 v 61.6992 c 0,14.1 6.2996,24.5008 21.5996,28.3008 16.7,3.8 36.9996,7.6992 56.0996,7.6992 99.6,0 154.6004,-39.8985 201.9004,-141.3985 72.8,-156.8 157.1004,-361.0011 215.9004,-596.2011 5.2,-17.9 -3.8016,-29.5 -21.6016,-29.5 H 4056.85 c -15.3,0 -25.4996,7.6996 -28.0996,23.0996 -23,129.8 -66.5008,253.1004 -113.8008,371.4004 -53.6,-107.9 -95.7996,-237.7004 -122.5996,-371.4004 -2.5,-15.4 -12.7996,-23.0996 -28.0996,-23.0996 z m -2548.3613,82.08 c 76.6,0 126.4004,64.3004 126.4004,177.4004 v 30.7989 c 0,113.1 -49.8004,177.4004 -126.4004,177.4004 -76.6,0 -126.3985,-64.3004 -126.3985,-177.4004 v -30.7989 c 0,-113.1 49.7985,-177.4004 126.3985,-177.4004 z m 1606.0918,7.8008 c 80.4,0 121.3984,57.7996 121.3984,185.0996 0,127.3 -40.8984,184.6993 -121.3984,184.6993 -71.4,0 -118.8008,-60.3 -118.8008,-169.5 v -30.7989 c 0,-109 47.1008,-169.5 118.8008,-169.5 z m 630.1894,217.0996 h 66.5 v 18 c 0,95.2 -43.4996,134.7989 -108.5996,134.7989 -47.3,0 -79.2008,-26.8996 -79.3008,-70.5996 0.1,-55.2 40.8004,-82.1993 121.4004,-82.1993 z"
     clip-path="none"
     mask="none" />
  <path
     mask="none"
     clip-path="none"
     id="path42"
     d="m 1173.8204,521.93296 c 250.6,-251 584,-389.2 938.8,-389.2 354.1,0 687.1,137.9 937.5,388.3 143.2,143.2 249.5,313.299 314.4,498.99704 2.8,8 10.2,13.3 18.7,13.3 h 98.4 c 13.4,0 23.1,-13 18.9,-25.8 -70.1,-216.49804 -191,-414.79704 -356.5,-580.39704 C 2868.6204,151.63296 2502.3204,0 2112.8204,0 c -390.2,0 -757.2,152.03296 -1032.9,428.13296 -165.19992,165.4 -285.70092,363.399 -355.60092,579.39704 -4.1,12.8 5.5,25.8 19,25.8 h 98.401 c 8.5,0 15.9,-5.4 18.7,-13.3 64.6,-185.19804 170.59992,-355.09704 313.39992,-498.09704 z"
     style="fill:#fc5b05" />
</svg>
