<?xml version="1.0" encoding="UTF-8"?>
<svg width="50px" height="44px" viewBox="0 0 50 44" version="1.1" xmlns="http://www.w3.org/2000/svg" xmlns:xlink="http://www.w3.org/1999/xlink">
    <!-- Generator: Sketch 42 (36781) - http://www.bohemiancoding.com/sketch -->
    <title>Timelion</title>
    <desc>Created with Sketch.</desc>
    <defs></defs>
    <g id="Visualize" stroke="none" stroke-width="1" fill="none" fill-rule="evenodd">
        <g id="Visualize-Create-New" transform="translate(-762.000000, -440.000000)" fill="#000000">
            <g id="time-series" transform="translate(555.000000, 361.000000)">
                <g id="time-lion" transform="translate(160.000000, 44.000000)">
                    <path d="M83.5270193,48.1421068 C82.4492261,48.6394517 81.4595901,48.5116424 80.5382048,47.7531219 C80.2026386,47.478054 79.5485688,46.6056165 79.7248833,46.3638902 C81.4880279,43.9494055 84.4199667,44.2105811 84.624719,44.3772889 C84.806721,44.5245474 85.0655051,45.3886496 85.0655051,45.8443175 C85.0655051,46.7667674 84.4228105,47.7281157 83.5270193,48.1421068 M79.9836674,67.8386337 C79.3608793,69.2056377 77.0033843,70.1892138 73.5936902,70.5004017 L73.5936902,70.5004017 C71.4381037,70.6976726 68.7421988,70.4809524 66.9051158,69.9613798 C64.9485941,69.411244 63.7627372,68.5971542 63.4840466,67.6107997 C62.9437281,65.7131092 64.4850577,63.1346952 67.2236194,61.3425863 C68.7421988,60.3534534 70.5650628,59.6810652 71.733857,59.6810652 C72.7832124,59.6810652 74.3387609,60.1422901 75.561587,60.8202352 C77.4384829,61.8593805 79.1987837,63.5764709 79.8301032,64.9879303 C80.2708894,65.9659494 80.327765,67.0745563 79.9836674,67.8386337 M57.7680456,44.7551599 C57.8874844,44.4856489 58.0154546,44.2744857 58.0524237,44.2689288 C61.0469257,43.7771408 62.7389758,46.1443916 62.8328206,46.2360809 C62.9892286,46.3888964 62.6138494,47.17798 62.175907,47.6197557 C61.9512483,47.8448112 61.5787129,48.1087652 61.3483666,48.203233 C59.0960916,49.1479105 56.8068474,46.9390321 57.7680456,44.7551599 M67.1127119,50.0370188 C68.6227599,48.5171993 74.1482276,48.3671623 76.1417185,49.7897356 C77.4072013,50.6899577 76.9976967,52.4292758 75.1748327,53.9185322 C74.5179192,54.4547756 73.3405936,55.0604806 72.5955228,55.2438592 C71.6741376,55.4716932 70.9859424,55.3633331 69.845586,54.8020835 C68.1279419,53.9629876 66.8397089,52.5237435 66.7401765,51.3317827 C66.6833009,50.6844008 66.7714581,50.3815483 67.1127119,50.0370188 M95.1637736,52.5681989 C95.0045218,52.0514048 94.8737079,51.5874014 94.8737079,51.542946 C94.8737079,51.4957121 95.0955228,51.009481 95.3685259,50.4621237 C97.1089202,46.986266 97.475768,42.9463802 96.3780683,39.3566055 L96.1960663,38.7647928 L95.6386851,38.489725 C93.0650628,37.2255241 87.7557225,36.9226716 84.1611826,37.8367861 L83.3791427,38.034057 L81.9430329,37.3477765 C81.1524617,36.9726839 80.1343878,36.5309083 79.6850704,36.3669789 C76.1644687,35.1027781 72.1092362,34.6915655 68.5146962,35.2333659 C66.0804192,35.6029015 63.1854495,36.5614714 60.9928939,37.728426 L60.4696381,38.0090508 L59.7444738,37.8173368 C58.6496179,37.5311551 57.3500097,37.3755611 55.6863974,37.3255488 C52.7715213,37.2394164 50.1467109,37.6534075 48.4830986,38.4647188 L47.774997,38.8092482 L47.5446507,39.6205596 C47.4195243,40.0678922 47.2574288,40.7458372 47.1863342,41.1264867 C47.0043322,42.1128412 46.941769,44.0827718 47.0612078,45.1552586 C47.2574288,46.9557029 47.8631543,49.036772 48.6196002,50.5065791 L49.0006669,51.2484288 L48.7418828,52.0680755 C48.0252498,54.3325232 47.7806846,55.8995765 47.7806846,58.2140366 C47.7835284,60.1923025 47.9342488,61.2953524 48.4461295,63.0346705 C49.9732402,68.2165047 54.3754141,72.487003 60.5151386,74.7431152 C61.2061775,74.9987339 61.3085537,75.0681955 61.8886851,75.6572297 C62.6821002,76.468541 63.6006416,77.1381507 64.6300906,77.6549449 C65.7931972,78.2384222 66.5667058,78.4634777 68.1734424,78.6913117 C70.587813,79.0358412 72.4277397,79.0858535 74.5918575,78.8719118 L74.5918575,78.8719118 C75.7805582,78.7552164 77.2536371,78.5023762 77.8764253,78.3078838 C79.338129,77.8494373 80.8140517,76.9381013 82.0368777,75.7350267 C82.8729495,74.91538 82.9298252,74.873703 83.7374591,74.5625151 C89.3880532,72.3619721 93.4063166,68.5026865 95.1182731,63.6292617 C95.8377498,61.5815342 96.1505658,59.1364864 95.9742514,56.9331649 C95.8519688,55.4439086 95.5505279,53.815729 95.1637736,52.5681989" id="Timelion"></path>
                </g>
            </g>
        </g>
    </g>
</svg>