<svg width="88" height="88" viewBox="0 0 88 88" fill="none" xmlns="http://www.w3.org/2000/svg">
<g clip-path="url(#clip0_2844_135051)">
<mask id="mask0_2844_135051" style="mask-type:luminance" maskUnits="userSpaceOnUse" x="0" y="0" width="37" height="37">
<path d="M0.000976562 18.3333C0.000976562 8.20811 8.20908 0 18.3343 0C28.4595 0 36.6676 8.20811 36.6676 18.3333C36.6676 28.4586 28.4595 36.6667 18.3343 36.6667C8.20908 36.6667 0.000976562 28.4586 0.000976562 18.3333Z" fill="white"/>
</mask>
<g mask="url(#mask0_2844_135051)">
<path d="M18.3343 36.1667C17.9984 36.1667 17.6647 36.1574 17.3334 36.1391L17.3058 36.6383C16.6135 36.6 15.9315 36.5233 15.2619 36.4103L15.345 35.9173C14.6819 35.8054 14.0312 35.6569 13.3951 35.474L13.2569 35.9545C12.594 35.7638 11.9464 35.5367 11.3165 35.2755L11.5081 34.8137C10.8894 34.5571 10.2882 34.2667 9.7069 33.9447L9.46465 34.3821C8.86312 34.049 8.2823 33.683 7.72461 33.2866L8.01429 32.879C7.46983 32.492 6.94801 32.0752 6.45121 31.6309L6.11791 32.0036C5.60665 31.5464 5.1212 31.061 4.664 30.5497L5.03671 30.2164C4.59244 29.7196 4.17561 29.1978 3.7886 28.6533L3.38107 28.943C2.98466 28.3853 2.61867 27.8045 2.28551 27.203L2.72291 26.9607C2.40095 26.3794 2.11054 25.7783 1.85398 25.1596L1.39212 25.3511C1.13093 24.7213 0.903839 24.0737 0.713153 23.4107L1.19367 23.2725C1.01073 22.6364 0.862232 21.9858 0.750335 21.3226L0.257304 21.4058C0.144308 20.7361 0.067622 20.0541 0.0293408 19.3619L0.528578 19.3342C0.51026 19.003 0.500977 18.6693 0.500977 18.3333C0.500977 17.9974 0.51026 17.6637 0.528578 17.3324L0.0293411 17.3048C0.0676224 16.6126 0.144308 15.9306 0.257304 15.2609L0.750335 15.3441C0.862233 14.6809 1.01073 14.0302 1.19367 13.3942L0.713154 13.256C0.903839 12.593 1.13093 11.9454 1.39212 11.3156L1.85398 11.5071C2.11054 10.8884 2.40095 10.2872 2.72291 9.70593L2.28551 9.46368C2.61867 8.86215 2.98466 8.28133 3.38107 7.72364L3.78861 8.01332C4.17562 7.46886 4.59244 6.94703 5.03671 6.45023L4.664 6.11693C5.1212 5.60568 5.60665 5.12022 6.11791 4.66303L6.45121 5.03573C6.94801 4.59146 7.46984 4.17464 8.0143 3.78763L7.72462 3.38009C8.28231 2.98368 8.86313 2.61769 9.46466 2.28453L9.70691 2.72193C10.2882 2.39997 10.8894 2.10957 11.5081 1.853L11.3165 1.39114C11.9464 1.12995 12.594 0.902862 13.2569 0.712176L13.3951 1.1927C14.0312 1.00975 14.6819 0.861256 15.345 0.749358L15.2619 0.256327C15.9315 0.143331 16.6135 0.0666455 17.3058 0.0283643L17.3334 0.527602C17.6647 0.509283 17.9984 0.5 18.3343 0.5C18.6702 0.5 19.004 0.509283 19.3352 0.527602L19.3628 0.0283645C20.0551 0.0666458 20.7371 0.143332 21.4068 0.256328L21.3236 0.749359C21.9867 0.861256 22.6374 1.00975 23.2735 1.1927L23.4117 0.712177C24.0747 0.902863 24.7222 1.12995 25.3521 1.39114L25.1606 1.85301C25.7793 2.10957 26.3804 2.39997 26.9617 2.72193L27.204 2.28454C27.8055 2.61769 28.3863 2.98369 28.944 3.3801L28.6543 3.78763C29.1988 4.17464 29.7206 4.59147 30.2174 5.03574L30.5507 4.66303C31.062 5.12022 31.5474 5.60568 32.0046 6.11693L31.6319 6.45023C32.0762 6.94703 32.493 7.46886 32.88 8.01332L33.2875 7.72364C33.684 8.28133 34.0499 8.86215 34.3831 9.46368L33.9457 9.70593C34.2677 10.2872 34.5581 10.8884 34.8146 11.5071L35.2765 11.3156C35.5377 11.9454 35.7648 12.593 35.9555 13.256L35.4749 13.3942C35.6579 14.0302 35.8064 14.6809 35.9183 15.3441L36.4113 15.2609C36.5243 15.9306 36.601 16.6126 36.6393 17.3048L36.14 17.3324C36.1584 17.6637 36.1676 17.9974 36.1676 18.3333C36.1676 18.6693 36.1584 19.003 36.14 19.3342L36.6393 19.3619C36.601 20.0541 36.5243 20.7361 36.4113 21.4058L35.9183 21.3226C35.8064 21.9858 35.6579 22.6364 35.4749 23.2725L35.9555 23.4107C35.7648 24.0737 35.5377 24.7213 35.2765 25.3511L34.8146 25.1596C34.5581 25.7783 34.2677 26.3794 33.9457 26.9607L34.3831 27.203C34.0499 27.8045 33.684 28.3853 33.2875 28.943L32.88 28.6533C32.493 29.1978 32.0762 29.7196 31.6319 30.2164L32.0046 30.5497C31.5474 31.061 31.062 31.5464 30.5507 32.0036L30.2174 31.6309C29.7206 32.0752 29.1988 32.492 28.6543 32.879L28.944 33.2866C28.3863 33.683 27.8055 34.049 27.204 34.3821L26.9617 33.9447C26.3804 34.2667 25.7792 34.5571 25.1606 34.8137L25.3521 35.2755C24.7222 35.5367 24.0747 35.7638 23.4117 35.9545L23.2735 35.474C22.6374 35.6569 21.9867 35.8054 21.3236 35.9173L21.4068 36.4103C20.7371 36.5233 20.0551 36.6 19.3628 36.6383L19.3352 36.1391C19.004 36.1574 18.6702 36.1667 18.3343 36.1667Z" stroke="#F05529" stroke-dasharray="2 2"/>
</g>
</g>
<g clip-path="url(#clip1_2844_135051)">
<path fill-rule="evenodd" clip-rule="evenodd" d="M85.258 42.5916C87.0511 45.1607 88.0089 48.2199 88.0011 51.3528C87.9856 54.4984 87.0101 57.5643 85.205 60.1404C83.4035 62.7118 80.8573 64.6694 77.9093 65.7494C78.768 68.1086 78.8402 70.6824 78.115 73.0861C77.3898 75.4897 75.9063 77.5942 73.886 79.0848C71.8671 80.5686 69.4195 81.3539 66.9142 81.3217C64.4088 81.2896 61.9822 80.4418 60.002 78.9068C57.3313 82.6518 53.5393 85.4511 49.1738 86.9003C44.8124 88.3475 40.1033 88.3669 35.7301 86.9557C31.353 85.5408 27.5391 82.7709 24.8394 79.0463C22.1335 75.3151 20.6788 70.8229 20.6838 66.2138C20.6832 64.8213 20.8121 63.4317 21.0688 62.063C18.1119 61.0033 15.5569 59.0519 13.7562 56.4781C11.9518 53.8986 10.9895 50.824 11.0011 47.676C11.0174 44.5302 11.9937 41.4644 13.7996 38.8884C15.6034 36.3169 18.1522 34.3601 21.1025 33.2819C20.2316 30.9214 20.1496 28.3422 20.869 25.9312C21.5883 23.5203 23.0701 21.4076 25.0921 19.9103C27.1122 18.4195 29.5639 17.6291 32.0744 17.6595C34.5849 17.6899 37.0168 18.5394 39.0002 20.0788C41.8916 16.0413 46.0779 13.1151 50.863 11.7868C55.6444 10.4621 60.7355 10.818 65.2861 12.795C69.8422 14.7761 73.584 18.2555 75.8904 22.6559C78.2015 27.0625 78.9424 32.125 77.9911 37.0091C80.9314 38.0755 83.4698 40.0255 85.258 42.5916ZM41.2717 44.175L58.1203 51.9014L75.1228 36.9514C75.3691 35.7178 75.4917 34.4628 75.4886 33.2049C75.4903 29.1335 74.1921 25.168 71.783 21.8859C69.3796 18.6097 65.9894 16.1901 62.1098 14.9823C58.234 13.7778 54.0737 13.8503 50.2422 15.1893C46.4053 16.5307 43.0995 19.0666 40.8097 22.4249L37.9848 37.1463L41.2741 44.1725L41.2717 44.175ZM23.8336 62.0799C23.3011 64.7004 23.3229 67.4035 23.8977 70.0151C24.4725 72.6268 25.5875 75.0892 27.1711 77.244C29.5876 80.5305 32.9951 82.9545 36.8923 84.1596C40.7848 85.3618 44.9608 85.2799 48.8033 83.9262C52.6515 82.5697 55.9628 80.0141 58.2502 76.6353L61.0559 61.9523L57.3142 54.7697L40.3982 47.0432L23.8312 62.0774L23.8336 62.0799ZM35.2753 35.5534L23.7253 32.8175L23.7301 32.8126C23.0619 30.9573 23.008 28.9362 23.5765 27.0479C24.145 25.1596 25.3057 23.5042 26.8871 22.3262C28.4687 21.1541 30.3876 20.5259 32.3561 20.5359C34.3247 20.5459 36.2371 21.1934 37.8067 22.3815L35.2753 35.5534ZM22.7243 35.5774C20.2249 36.4054 18.0435 37.9874 16.4801 40.106C14.9128 42.2281 14.0389 44.7824 13.9777 47.4199C13.9165 50.0573 14.6711 52.6494 16.1384 54.8419C17.6038 57.0315 19.7093 58.7159 22.1661 59.6544L38.3674 44.9738L35.3956 38.5973L22.7243 35.5774ZM66.725 78.5242C64.7337 78.5207 62.7998 77.8563 61.2267 76.6353L63.722 63.5116L75.272 66.2186C75.7765 67.6006 75.9413 69.0837 75.7524 70.5427C75.5635 72.0018 75.0266 73.394 74.1868 74.602C73.3514 75.8089 72.2366 76.7959 70.9373 77.4789C69.638 78.1618 68.1929 78.5205 66.725 78.5242ZM63.5728 60.4797L76.2778 63.4586C78.8156 62.6 81.0215 60.9695 82.587 58.7953C84.156 56.6177 85.008 54.0055 85.0245 51.3215C85.0239 48.735 84.2386 46.2095 82.7723 44.0787C81.3085 41.9506 79.2311 40.319 76.8168 39.401L60.2041 54.0069L63.5728 60.4797Z" />
<path d="M41.2713 44.175L58.1199 51.9015L75.1224 36.9514C75.3687 35.7179 75.4913 34.4628 75.4882 33.2049C75.4899 29.1336 74.1917 25.168 71.7826 21.8859C69.3792 18.6097 65.989 16.1902 62.1094 14.9824C58.2336 13.7778 54.0733 13.8504 50.2418 15.1893C46.4049 16.5307 43.0991 19.0666 40.8093 22.4249L37.9844 37.1464L41.2737 44.1726L41.2713 44.175Z" fill="#FEC514"/>
<path d="M23.833 62.0799C23.3005 64.7005 23.3223 67.4035 23.8971 70.0151C24.4719 72.6268 25.587 75.0892 27.1705 77.2441C29.587 80.5305 32.9946 82.9545 36.8918 84.1596C40.7843 85.3618 44.9603 85.2799 48.8027 83.9262C52.6509 82.5697 55.9622 80.0141 58.2496 76.6353L61.0553 61.9523L57.3136 54.7697L40.3977 47.0432L23.8306 62.0775L23.833 62.0799Z" fill="#00BFB3"/>
<path d="M23.7256 32.8174L35.2756 35.5533L37.807 22.3815C36.2373 21.1934 34.325 20.5459 32.3564 20.5359C30.3878 20.5259 28.469 21.154 26.8874 22.3262C25.3059 23.5042 24.1452 25.1596 23.5767 27.0479C23.0083 28.9362 23.0621 30.9573 23.7304 32.8126" fill="#F04E98"/>
<path d="M22.7247 35.5774C20.2253 36.4053 18.0438 37.9874 16.4805 40.106C14.9131 42.2281 14.0392 44.7824 13.9781 47.4198C13.9169 50.0573 14.6715 52.6493 16.1388 54.8418C17.6042 57.0315 19.7096 58.7159 22.1664 59.6543L38.3677 44.9738L35.396 38.5972L22.7247 35.5774Z" fill="#1BA9F5"/>
<path d="M61.2266 76.6353C62.7996 77.8564 64.7335 78.5207 66.7248 78.5242C68.1927 78.5205 69.6378 78.1618 70.9371 77.4789C72.2364 76.796 73.3513 75.8089 74.1866 74.602C75.0264 73.394 75.5634 72.0018 75.7522 70.5427C75.9411 69.0837 75.7763 67.6006 75.2718 66.2186L63.7218 63.5116L61.2266 76.6353Z" fill="#93C90E"/>
<path d="M63.5728 60.4797L76.2778 63.4587C78.8156 62.6 81.0216 60.9695 82.587 58.7954C84.156 56.6177 85.008 54.0055 85.0246 51.3216C85.0239 48.735 84.2386 46.2095 82.7723 44.0787C81.3085 41.9507 79.2311 40.319 76.8168 39.401L60.2041 54.0069L63.5728 60.4797Z" fill="#0077CC"/>
</g>
<path d="M60.9181 28.0108L68.1191 12.1007L62.1859 16.0559C56.7618 3.66022 43.1412 -2.73745 30.2017 2.51287C30.2017 2.51287 38.3097 1.83656 46.2441 7.5148C49.3785 9.80139 51.7761 12.9543 53.1419 16.5858C53.3442 17.1352 53.5303 17.7136 53.6848 18.2955L46.7266 17.8328L60.9181 28.0108Z" fill="#0077CC"/>
<defs>
<clipPath id="clip0_2844_135051">
<rect width="36.6667" height="36.6667" fill="white" transform="translate(0.000976562)"/>
</clipPath>
<clipPath id="clip1_2844_135051">
<rect width="77" height="77" fill="white" transform="translate(11.001 11)"/>
</clipPath>
</defs>
</svg>
