<svg width="32" height="32" viewBox="0 0 32 32" fill="none" xmlns="http://www.w3.org/2000/svg">
<g clip-path="url(#clip0_2844_145648)">
<mask id="mask0_2844_145648" style="mask-type:luminance" maskUnits="userSpaceOnUse" x="0" y="0" width="14" height="14">
<path d="M0 6.66667C0 2.98477 2.98477 0 6.66667 0C10.3486 0 13.3333 2.98477 13.3333 6.66667C13.3333 10.3486 10.3486 13.3333 6.66667 13.3333C2.98477 13.3333 0 10.3486 0 6.66667Z" fill="white"/>
</mask>
<g mask="url(#mask0_2844_145648)">
<path d="M6.66667 12.8333C6.39323 12.8333 6.1242 12.8156 5.86061 12.7812L5.79594 13.277C5.20802 13.2003 4.64417 13.047 4.11475 12.8275L4.30627 12.3656C3.80521 12.1578 3.33727 11.8857 2.91277 11.5595L2.6081 11.956C2.14627 11.6011 1.73224 11.1871 1.37734 10.7252L1.7738 10.4206C1.44759 9.99607 1.17551 9.52812 0.967732 9.02706L0.505869 9.21858C0.286325 8.68916 0.133037 8.12531 0.0563485 7.53739L0.552148 7.47272C0.517765 7.20913 0.5 6.9401 0.5 6.66667C0.5 6.39323 0.517765 6.1242 0.552148 5.86061L0.0563485 5.79594C0.133038 5.20802 0.286326 4.64417 0.50587 4.11475L0.967733 4.30627C1.17552 3.80521 1.44759 3.33727 1.7738 2.91277L1.37734 2.6081C1.73224 2.14627 2.14627 1.73224 2.60811 1.37734L2.91277 1.7738C3.33727 1.44759 3.80521 1.17551 4.30627 0.967733L4.11475 0.50587C4.64417 0.286326 5.20802 0.133037 5.79594 0.0563485L5.86061 0.552148C6.1242 0.517765 6.39323 0.5 6.66667 0.5C6.9401 0.5 7.20913 0.517765 7.47272 0.552148L7.53739 0.0563485C8.12531 0.133038 8.68916 0.286326 9.21859 0.50587L9.02706 0.967733C9.52812 1.17552 9.99607 1.44759 10.4206 1.7738L10.7252 1.37734C11.1871 1.73224 11.6011 2.14627 11.956 2.60811L11.5595 2.91277C11.8857 3.33727 12.1578 3.80521 12.3656 4.30627L12.8275 4.11475C13.047 4.64417 13.2003 5.20802 13.277 5.79594L12.7812 5.86061C12.8156 6.1242 12.8333 6.39323 12.8333 6.66667C12.8333 6.9401 12.8156 7.20913 12.7812 7.47272L13.277 7.53739C13.2003 8.12531 13.047 8.68916 12.8275 9.21859L12.3656 9.02706C12.1578 9.52812 11.8857 9.99607 11.5595 10.4206L11.956 10.7252C11.6011 11.1871 11.1871 11.6011 10.7252 11.956L10.4206 11.5595C9.99607 11.8857 9.52812 12.1578 9.02706 12.3656L9.21858 12.8275C8.68916 13.047 8.12531 13.2003 7.53739 13.277L7.47272 12.7812C7.20913 12.8156 6.9401 12.8333 6.66667 12.8333Z" stroke="#F05529" stroke-dasharray="2 2"/>
</g>
</g>
<g clip-path="url(#clip1_2844_145648)">
<path fill-rule="evenodd" clip-rule="evenodd" d="M31.0025 15.4879C31.6546 16.4221 32.0029 17.5345 32 18.6737C31.9944 19.8176 31.6397 20.9325 30.9833 21.8692C30.3282 22.8043 29.4023 23.5161 28.3303 23.9089C28.6426 24.7668 28.6688 25.7027 28.4051 26.5768C28.1414 27.4508 27.6019 28.2161 26.8673 28.7581C26.1331 29.2977 25.2431 29.5832 24.3321 29.5715C23.421 29.5599 22.5386 29.2516 21.8185 28.6934C20.8474 30.0552 19.4685 31.0731 17.881 31.6001C16.2951 32.1264 14.5827 32.1334 12.9924 31.6202C11.4007 31.1057 10.0139 30.0985 9.03216 28.7441C8.0482 27.3873 7.5192 25.7538 7.52104 24.0777C7.52081 23.5714 7.56768 23.0661 7.66104 22.5684C6.5858 22.183 5.65668 21.4734 5.00191 20.5375C4.34577 19.5995 3.99581 18.4815 4.00004 17.3367C4.00597 16.1928 4.361 15.0779 5.01766 14.1412C5.67361 13.2061 6.60046 12.4946 7.67329 12.1025C7.35658 11.2442 7.32678 10.3063 7.58836 9.42954C7.84994 8.55283 8.38879 7.78459 9.12404 7.24012C9.85862 6.69799 10.7502 6.41059 11.6631 6.42165C12.576 6.4327 13.4603 6.7416 14.1815 7.30137C15.233 5.8332 16.7553 4.76914 18.4953 4.28612C20.234 3.8044 22.0853 3.93381 23.74 4.65274C25.3968 5.37312 26.7575 6.63836 27.5962 8.23849C28.4366 9.84092 28.706 11.6818 28.36 13.4579C29.4293 13.8456 30.3523 14.5547 31.0025 15.4879ZM15.0075 16.0636L21.1343 18.8732L27.317 13.4369C27.4066 12.9883 27.4512 12.5319 27.45 12.0745C27.4507 10.594 26.9786 9.15198 26.1025 7.95849C25.2286 6.76715 23.9958 5.88732 22.585 5.44812C21.1756 5.0101 19.6628 5.03648 18.2695 5.52337C16.8743 6.01115 15.6722 6.93331 14.8395 8.15449L13.8123 13.5077L15.0084 16.0627L15.0075 16.0636ZM8.66641 22.5745C8.47277 23.5274 8.4807 24.5104 8.68972 25.46C8.89874 26.4097 9.3042 27.3052 9.88004 28.0887C10.7588 29.2838 11.9979 30.1653 13.415 30.6035C14.8305 31.0406 16.349 31.0109 17.7463 30.5186C19.1456 30.0254 20.3498 29.096 21.1815 27.8674L22.2018 22.5281L20.8412 19.9162L14.6899 17.1066L8.66554 22.5736L8.66641 22.5745ZM12.827 12.9285L8.62704 11.9336L8.62879 11.9319C8.38578 11.2572 8.36619 10.5223 8.57291 9.83562C8.77963 9.14896 9.2017 8.54699 9.77679 8.11862C10.3519 7.69239 11.0497 7.46398 11.7655 7.46761C12.4814 7.47124 13.1768 7.70671 13.7475 8.13874L12.827 12.9285ZM8.26304 12.9372C7.35417 13.2383 6.56092 13.8136 5.99241 14.584C5.42248 15.3557 5.10469 16.2845 5.08245 17.2436C5.06021 18.2027 5.33461 19.1452 5.86816 19.9425C6.40104 20.7387 7.16666 21.3512 8.06004 21.6925L13.9514 16.3541L12.8708 14.0354L8.26304 12.9372ZM24.2633 28.5542C23.5392 28.553 22.8359 28.3114 22.2639 27.8674L23.1713 23.0951L27.3713 24.0795C27.5547 24.582 27.6147 25.1213 27.546 25.6519C27.4773 26.1825 27.282 26.6887 26.9767 27.128C26.6729 27.5669 26.2675 27.9258 25.795 28.1741C25.3226 28.4225 24.797 28.5529 24.2633 28.5542ZM23.117 21.9926L27.737 23.0759C28.6599 22.7636 29.462 22.1707 30.0313 21.3801C30.6018 20.5882 30.9116 19.6384 30.9177 18.6624C30.9174 17.7218 30.6319 16.8034 30.0987 16.0286C29.5664 15.2548 28.811 14.6614 27.933 14.3276L21.892 19.6389L23.117 21.9926Z" fill="white"/>
<path d="M15.0078 16.0636L21.1345 18.8732L27.3173 13.4368C27.4068 12.9883 27.4514 12.5319 27.4502 12.0745C27.4509 10.594 26.9788 9.15195 26.1028 7.95846C25.2288 6.76712 23.996 5.88728 22.5852 5.44808C21.1759 5.01006 19.663 5.03644 18.2698 5.52333C16.8745 6.01112 15.6724 6.93327 14.8397 8.15446L13.8125 13.5077L15.0086 16.0627L15.0078 16.0636Z" fill="#FEC514"/>
<path d="M8.66594 22.5744C8.47229 23.5274 8.48023 24.5103 8.68925 25.46C8.89826 26.4097 9.30373 27.3051 9.87956 28.0887C10.7583 29.2838 11.9974 30.1652 13.4146 30.6034C14.83 31.0406 16.3486 31.0108 17.7458 30.5186C19.1452 30.0253 20.3493 29.096 21.1811 27.8673L22.2013 22.5281L20.8407 19.9162L14.6894 17.1066L8.66506 22.5736L8.66594 22.5744Z" fill="#00BFB3"/>
<path d="M8.62669 11.9336L12.8267 12.9285L13.7472 8.13871C13.1764 7.70667 12.481 7.4712 11.7652 7.46757C11.0493 7.46394 10.3516 7.69235 9.77644 8.11858C9.20135 8.54696 8.77928 9.14893 8.57256 9.83558C8.36584 10.5222 8.38543 11.2572 8.62844 11.9318" fill="#F04E98"/>
<path d="M8.2629 12.9373C7.35403 13.2383 6.56078 13.8136 5.99227 14.584C5.42234 15.3557 5.10455 16.2845 5.08231 17.2436C5.06007 18.2027 5.33447 19.1452 5.86802 19.9425C6.4009 20.7388 7.16652 21.3513 8.0599 21.6925L13.9513 16.3541L12.8706 14.0354L8.2629 12.9373Z" fill="#1BA9F5"/>
<path d="M22.2637 27.8673C22.8357 28.3114 23.5389 28.553 24.263 28.5542C24.7968 28.5529 25.3223 28.4225 25.7948 28.1741C26.2672 27.9258 26.6727 27.5669 26.9764 27.128C27.2818 26.6887 27.4771 26.1824 27.5457 25.6519C27.6144 25.1213 27.5545 24.582 27.371 24.0795L23.171 23.0951L22.2637 27.8673Z" fill="#93C90E"/>
<path d="M23.1166 21.9926L27.7366 23.0759C28.6594 22.7636 29.4616 22.1707 30.0309 21.3801C30.6014 20.5883 30.9112 19.6384 30.9172 18.6624C30.917 17.7218 30.6314 16.8035 30.0982 16.0286C29.5659 15.2548 28.8105 14.6615 27.9326 14.3276L21.8916 19.6389L23.1166 21.9926Z" fill="#0077CC"/>
</g>
<path d="M22.1524 10.1858L24.7709 4.40031L22.6134 5.83858C20.641 1.33105 15.6881 -0.995383 10.9828 0.913825C10.9828 0.913825 13.9312 0.667895 16.8164 2.73271C17.9562 3.5642 18.828 4.71073 19.3247 6.03124C19.3982 6.23104 19.4659 6.44136 19.5221 6.65295L16.9918 6.48471L22.1524 10.1858Z" fill="#0077CC"/>
<defs>
<clipPath id="clip0_2844_145648">
<rect width="13.3333" height="13.3333" fill="white"/>
</clipPath>
<clipPath id="clip1_2844_145648">
<rect width="28" height="28" fill="white" transform="translate(4 4)"/>
</clipPath>
</defs>
</svg>
