<svg width="32" height="32" viewBox="0 0 32 32" fill="none" xmlns="http://www.w3.org/2000/svg">
  <mask
    id="mask0_2580_13"
    style="mask-type: luminance"
    maskUnits="userSpaceOnUse"
    x="2"
    y="2"
    width="28"
    height="28"
  >
    <path d="M30 2H2V30H30V2Z" fill="white" />
  </mask>
  <g mask="url(#mask0_2580_13)">
    <path
      d="M27.9 2H4.1C2.9402 2 2 2.9402 2 4.1V27.9C2 29.0598 2.9402 30 4.1 30H27.9C29.0598 30 30 29.0598 30 27.9V4.1C30 2.9402 29.0598 2 27.9 2Z"
      fill="#E91E63"
    />
    <path
      d="M10.47 21L10.1031 19.8112H6.71793L6.35089 21H4L7.39842 11.211H9.42391L12.8631 21H10.47ZM8.41801 14.0074L7.2489 18.0352H9.55989L8.41801 14.0074Z"
      fill="white"
    />
    <path d="M13.1251 11.211H15.3544V21H13.1251V11.211Z" fill="white" />
    <path
      d="M15.9555 19.0001C16.0556 18.5168 16.2325 18.0537 16.4789 17.6295C16.6932 17.2711 16.9617 16.9501 17.2742 16.6786C17.5934 16.4061 17.9319 16.1584 18.2869 15.9376C18.5677 15.7696 18.8282 15.6088 19.0684 15.4551C19.2901 15.3151 19.5013 15.1585 19.7005 14.9866C19.8726 14.8395 20.0176 14.6619 20.1288 14.4621C20.2349 14.263 20.2888 14.0389 20.2851 13.8118C20.2851 13.4203 20.1809 13.1383 19.9725 12.9658C19.7515 12.7891 19.4774 12.6975 19.1977 12.707C18.8793 12.6971 18.5698 12.815 18.3344 13.0357C18.1033 13.2549 17.9878 13.6208 17.9878 14.1336H15.7991C15.7952 13.7076 15.8714 13.2849 16.0235 12.8887C16.1694 12.5118 16.3945 12.1727 16.6827 11.8958C16.9896 11.6056 17.3502 11.3821 17.7431 11.2385C18.2058 11.0723 18.6935 10.9917 19.1836 11.0007C19.6041 10.9987 20.0228 11.0575 20.4274 11.1755C20.8038 11.283 21.1567 11.4634 21.4673 11.707C21.7725 11.9525 22.017 12.2688 22.1809 12.63C22.3661 13.0489 22.4568 13.5055 22.446 13.9655C22.4509 14.3547 22.3622 14.7391 22.1877 15.0844C22.0207 15.4129 21.8077 15.7144 21.5556 15.9794C21.3095 16.2377 21.0386 16.4697 20.7469 16.6718C20.4566 16.8723 20.1938 17.0424 19.9584 17.1822C19.6319 17.4059 19.3623 17.5995 19.1495 17.7626C18.967 17.8984 18.7965 18.0505 18.6399 18.217C18.5228 18.3407 18.4324 18.4884 18.3747 18.6506C18.3222 18.8177 18.2969 18.9925 18.3 19.168H22.3782V21H15.772C15.7604 20.3284 15.822 19.6576 15.9555 19.0001Z"
      fill="white"
    />
    <path
      d="M22.799 12.9299C23.1799 12.9379 23.5605 12.9027 23.9339 12.825C24.1834 12.7763 24.4184 12.6686 24.6205 12.5104C24.7826 12.372 24.901 12.1869 24.9603 11.9789C25.0282 11.7287 25.0602 11.4696 25.0553 11.2098H27V20.9999H24.7572V14.5247H22.799V12.9299Z"
      fill="white"
    />
  </g>
</svg>
