<svg xmlns="http://www.w3.org/2000/svg" width="32" height="32" fill="none"><path fill="#ED6B1E" fill-rule="evenodd" d="M12.606 7H5.992A5.006 5.006 0 0 0 1 11.992v8.735a5.006 5.006 0 0 0 4.992 4.992h6.614l-1.598-2.271-4.817-1.473a2.09 2.09 0 0 1-1.447-1.997V12.74a2.05 2.05 0 0 1 1.447-1.996l4.817-1.473zm13.402 0h-6.614l1.598 2.271 4.841 1.473a2.05 2.05 0 0 1 1.448 1.996v7.238a2.09 2.09 0 0 1-1.448 1.997l-4.816 1.473-1.623 2.27h6.614A4.99 4.99 0 0 0 31 20.728v-8.735C31.025 9.246 28.779 7 26.008 7m-4.991 8.186H11.008v2.247h10.009z" clip-rule="evenodd"/></svg>