<svg xmlns="http://www.w3.org/2000/svg" width="80" height="80" fill="none"><g clip-path="url(#a)"><path fill="#01A88D" d="M74 0H6a6 6 0 0 0-6 6v68a6 6 0 0 0 6 6h68a6 6 0 0 0 6-6V6a6 6 0 0 0-6-6"/><path fill="#fff" fill-rule="evenodd" d="M64 39c-1.103 0-2-.897-2-2s.897-2 2-2 2 .897 2 2-.897 2-2 2M32.113 65.908l-3.248-1.894 6.665-4.166-1.06-1.696-7.557 4.723L21 59.425v-8.89l5.555-3.703-1.11-1.664-5.486 3.657L14 45.42v-4.84l6.496-3.712-.992-1.736L14 38.277V34.58l6-3.428 6 3.428v3.854l-4.515 2.709 1.03 1.714L27 40.166l4.485 2.69 1.03-1.713L28 38.433v-3.898l5.555-3.703c.278-.186.445-.498.445-.832v-7h-2v6.465l-5.041 3.36L21 29.42v-8.846l5-2.916V26h2v-9.51l4.113-2.398L40 16.72v28.713l-14.515 8.709 1.03 1.714L40 47.766v15.513zM62 50c0 1.103-.897 2-2 2s-2-.897-2-2 .897-2 2-2 2 .897 2 2M52 60c0 1.103-.897 2-2 2s-2-.897-2-2 .897-2 2-2 2 .897 2 2m-1-40c0-1.103.897-2 2-2s2 .897 2 2-.897 2-2 2-2-.897-2-2m13 13c-1.859 0-3.411 1.28-3.858 3H42v-5h11a1 1 0 0 0 1-1v-6.142c1.72-.447 3-2 3-3.858 0-2.206-1.794-4-4-4s-4 1.794-4 4c0 1.858 1.28 3.41 3 3.858V29H42V16a1 1 0 0 0-.684-.95l-9-3a1 1 0 0 0-.82.086l-12 7A1 1 0 0 0 19 20v9.42l-6.496 3.712A1 1 0 0 0 12 34v12c0 .359.192.69.504.868L19 50.58V60a1 1 0 0 0 .496.864l12 7a1 1 0 0 0 .82.085l9-3a1 1 0 0 0 .684-.95V52h7v4.143c-1.72.447-3 2-3 3.858 0 2.206 1.794 4 4 4s4-1.794 4-4c0-1.858-1.28-3.411-3-3.858V51a1 1 0 0 0-1-1h-8v-5h12.5l2.138 2.85A3.97 3.97 0 0 0 56 50c0 2.206 1.794 4 4 4s4-1.794 4-4-1.794-4-4-4a3.94 3.94 0 0 0-1.881.492L55.8 43.4a1 1 0 0 0-.8-.4H42v-5h18.142c.447 1.72 1.999 3 3.858 3 2.206 0 4-1.794 4-4s-1.794-4-4-4" clip-rule="evenodd"/></g><defs><clipPath id="a"><path fill="#fff" d="M0 0h80v80H0z"/></clipPath></defs></svg>