<svg xmlns="http://www.w3.org/2000/svg" width="32" height="32" fill="none"><mask id="a" width="28" height="28" x="2" y="2" maskUnits="userSpaceOnUse" style="mask-type:luminance"><path fill="#fff" d="M30 2H2v28h28z"/></mask><g mask="url(#a)"><path fill="#1D2A3E" fill-rule="evenodd" d="M23.277 8.635a.523.523 0 0 1-.527.518.523.523 0 0 1-.527-.518c0-.285.237-.517.527-.517s.527.232.527.517m-3.128 5.074c0-.28.232-.509.519-.509.286 0 .518.229.518.51 0 .28-.232.508-.518.508a.514.514 0 0 1-.519-.509m0 9.673c0-.28.232-.51.519-.51.286 0 .518.23.518.51s-.232.509-.518.509a.514.514 0 0 1-.519-.51m5.185-6.618c0 .28-.232.509-.518.509a.514.514 0 0 1-.519-.51c0-.28.233-.508.519-.508s.518.228.518.509m3.629 1.666-2.612-1.472c.009-.064.02-.127.02-.194 0-.842-.697-1.527-1.555-1.527s-1.556.685-1.556 1.527.698 1.527 1.556 1.527c.414 0 .789-.162 1.068-.422l2.501 1.41-2.245 1.102a.51.51 0 0 0-.287.456v4.297l-6.232 3.765-3.1-1.74v-3.268h2.687a1.55 1.55 0 0 0 1.46 1.018c.857 0 1.555-.685 1.555-1.527 0-.843-.698-1.527-1.555-1.527a1.55 1.55 0 0 0-1.46 1.018H16.52v-7.127a.51.51 0 0 0-.252-.437l-2.593-1.527-.534.873 2.342 1.379v1.497l-3.112 2.35v-2.099a.5.5 0 0 0-.194-.398l-2.398-1.883v-2.537l2.88-1.886a.5.5 0 0 0 .23-.423V7.6h-1.036v2.783l-2.587 1.692-2.598-1.694V6.365L9.26 4.881v4.247h1.037V4.287l2.076-1.189 3.109 1.76v6.306c0 .183.1.351.262.442l3.389 1.901c-.01.067-.02.133-.02.202 0 .842.697 1.528 1.555 1.528.857 0 1.555-.686 1.555-1.528s-.698-1.527-1.555-1.527c-.412 0-.784.16-1.063.418l-3.085-1.732-.001-6.008 3.092-1.752 5.723 3.746V8.11H24.22a1.565 1.565 0 0 0-1.47-1.01c-.862 0-1.563.69-1.563 1.536s.701 1.536 1.564 1.536c.687 0 1.272-.438 1.482-1.043h1.102v1.527c0 .183.1.351.262.442l3.367 1.89zM12.381 28.899l-1.635-.988 2.964-2.078-.603-.83-3.32 2.329-3.638-2.198v-4.01l2.34-1.378-.533-.874-2.348 1.384-2.57-1.261V16.06l2.824-1.386-.463-.911-2.361 1.158v-1.935l3.091-1.734 2.613 1.703v2.526l-2.88 1.877.574.848 2.801-1.826 2.097 1.646v2.638l-2.39 1.805.632.807 5.907-4.46v8.343zm17.358-16.65-3.368-1.89V6.583c0-.17-.086-.33-.23-.423l-6.223-4.073a.53.53 0 0 0-.547-.017l-3.369 1.909-3.371-1.91a.53.53 0 0 0-.52.002L5.887 5.633a.5.5 0 0 0-.257.44v4.287l-3.369 1.89a.5.5 0 0 0-.261.441v.212L2 12.935v5.54l.001.03v.804c0 .193.111.37.287.455l2.824 1.387v4.267c0 .177.093.34.246.434l6.741 4.072a.53.53 0 0 0 .53.009l3.373-1.892 3.372 1.892a.53.53 0 0 0 .528-.009l6.741-4.072a.51.51 0 0 0 .247-.434v-4.267l2.823-1.387A.51.51 0 0 0 30 19.31v-6.618c0-.183-.1-.351-.261-.442" clip-rule="evenodd"/></g></svg>