<svg xmlns="http://www.w3.org/2000/svg" width="32" height="32" fill="none"><path fill="url(#a)" fill-rule="evenodd" d="M20.78 2.019c.832 0 1.57.624 1.834 1.532.265.908 1.816 6.526 1.816 6.526v11.16h-5.617L18.926 2h1.854z" clip-rule="evenodd"/><path fill="url(#b)" d="M29.027 10.737c0-.397-.322-.7-.7-.7h-3.31a4.22 4.22 0 0 0-4.218 4.218v6.999h4.01a4.22 4.22 0 0 0 4.217-4.218z"/><path fill="url(#c)" fill-rule="evenodd" d="M20.78 2.018c-.643 0-1.154.51-1.154 1.153l-.113 21.242a5.62 5.62 0 0 1-5.618 5.618H3.7a.697.697 0 0 1-.662-.927l8.17-23.322a5.62 5.62 0 0 1 5.297-3.764h4.294z" clip-rule="evenodd"/><defs><linearGradient id="a" x1="23.125" x2="18.396" y1="21.652" y2="2.719" gradientUnits="userSpaceOnUse"><stop stop-color="#712575"/><stop offset=".09" stop-color="#9A2884"/><stop offset=".18" stop-color="#BF2C92"/><stop offset=".27" stop-color="#DA2E9C"/><stop offset=".34" stop-color="#EB30A2"/><stop offset=".4" stop-color="#F131A5"/><stop offset=".5" stop-color="#EC30A3"/><stop offset=".61" stop-color="#DF2F9E"/><stop offset=".72" stop-color="#C92D96"/><stop offset=".83" stop-color="#AA2A8A"/><stop offset=".95" stop-color="#83267C"/><stop offset="1" stop-color="#712575"/></linearGradient><linearGradient id="b" x1="24.922" x2="24.922" y1="2.417" y2="29.125" gradientUnits="userSpaceOnUse"><stop stop-color="#DA7ED0"/><stop offset=".08" stop-color="#B17BD5"/><stop offset=".19" stop-color="#8778DB"/><stop offset=".3" stop-color="#6276E1"/><stop offset=".41" stop-color="#4574E5"/><stop offset=".54" stop-color="#2E72E8"/><stop offset=".67" stop-color="#1D71EB"/><stop offset=".81" stop-color="#1471EC"/><stop offset="1" stop-color="#1171ED"/></linearGradient><linearGradient id="c" x1="23.314" x2="5.61" y1="3.022" y2="31.414" gradientUnits="userSpaceOnUse"><stop stop-color="#DA7ED0"/><stop offset=".05" stop-color="#B77BD4"/><stop offset=".11" stop-color="#9079DA"/><stop offset=".18" stop-color="#6E77DF"/><stop offset=".25" stop-color="#5175E3"/><stop offset=".33" stop-color="#3973E7"/><stop offset=".42" stop-color="#2772E9"/><stop offset=".54" stop-color="#1A71EB"/><stop offset=".68" stop-color="#1371EC"/><stop offset="1" stop-color="#1171ED"/></linearGradient></defs></svg>