<svg xmlns="http://www.w3.org/2000/svg" width="32" height="32" fill="none"><path fill="url(#a)" fill-rule="evenodd" d="M2 6.2v19.6A4.2 4.2 0 0 0 6.2 30h19.6a4.2 4.2 0 0 0 4.2-4.2V6.2A4.2 4.2 0 0 0 25.8 2H6.2A4.2 4.2 0 0 0 2 6.2M18.8 2v5.6c0 6.185 5.015 11.2 11.2 11.2h-5.6c-6.185 0-11.198 5.012-11.2 11.197V24.4c0-6.185-5.015-11.2-11.2-11.2h5.6c6.185 0 11.2-5.015 11.2-11.2" clip-rule="evenodd"/><defs><radialGradient id="a" cx="0" cy="0" r="1" gradientTransform="matrix(12.41941 12.41941 -16.9029 16.9029 14.783 15.286)" gradientUnits="userSpaceOnUse"><stop stop-color="#83B9F9"/><stop offset="1" stop-color="#0078D4"/></radialGradient></defs></svg>