<svg xmlns="http://www.w3.org/2000/svg" width="14" height="14" fill="none"><g fill="#343741"><path fill-rule="evenodd" d="M4.69 8.308c.36 0 1.076-.02 2.066-.438 1.153-.487 3.448-1.371 5.103-2.279 1.158-.635 1.665-1.475 1.665-2.606 0-1.57-1.24-2.842-2.771-2.842H4.339C2.139.143.357 1.97.357 4.225s1.67 4.083 4.333 4.083M5.775 11.122c0-1.106.65-2.102 1.645-2.526l2.02-.86c2.043-.869 4.291.67 4.291 2.94 0 1.757-1.39 3.181-3.103 3.18H8.441c-1.472 0-2.666-1.224-2.666-2.734" clip-rule="evenodd"/><path d="M2.653 8.846c-1.268 0-2.296 1.053-2.296 2.353v.305c0 1.3 1.028 2.354 2.295 2.354 1.268 0 2.296-1.054 2.296-2.354V11.2c0-1.3-1.028-2.353-2.295-2.353"/></g></svg>