<?xml version="1.0" encoding="UTF-8"?>
<svg id="Layer_1" xmlns="http://www.w3.org/2000/svg" version="1.1" viewBox="0 0 132 121">
  <!-- Generator: Adobe Illustrator 29.7.0, SVG Export Plug-In . SVG Version: 2.1.1 Build 138)  -->
  <defs>
    <style>
      .st0 {
        fill: #050509;
      }
    </style>
  </defs>
  <path class="st0" d="M123.909,96.363c0-9.038-7.278-16.334-16.211-16.334H40.462c-11.546,0-21.933-4.946-29.197-12.838-1.814,4.043-2.824,8.533-2.824,13.261v.434c.23,17.626,14.493,31.809,32.016,31.809h67.242c8.933,0,16.211-7.294,16.211-16.332ZM123.909,24.105c0-9.038-7.278-16.333-16.211-16.333H40.456c-17.516,0-31.774,14.173-32.016,31.789v.454c0,4.729,1.01,9.217,2.824,13.261,7.264-7.892,17.651-12.837,29.197-12.837h67.236c8.933,0,16.211-7.295,16.211-16.334ZM131.672,24.105c0,13.293-10.716,24.106-23.974,24.106H40.462c-10.074,0-19.07,4.689-24.943,12.023,5.873,7.335,14.869,12.023,24.943,12.023h67.236c13.258,0,23.974,10.812,23.974,24.106s-10.716,24.104-23.974,24.104H40.456C18.465,120.467.672,102.533.672,80.452v-3.886h.193c.567-5.914,2.415-11.453,5.261-16.333-2.847-4.88-4.694-10.419-5.261-16.333h-.193v-3.886C.672,17.934,18.465,0,40.456,0h67.242c13.258,0,23.974,10.812,23.974,24.105Z"/>
</svg>