<?xml version="1.0" encoding="UTF-8"?><svg id="Layer_1" xmlns="http://www.w3.org/2000/svg" viewBox="0 0 57.86 43.38"><defs><style>.cls-1{fill:#4d6bfe;}</style></defs><path id="path" class="cls-1" d="M57.26,3.65c-.61-.31-.88.27-1.24.57-.12.09-.22.22-.33.33-.89.98-1.94,1.62-3.31,1.54-1.99-.11-3.7.53-5.21,2.08-.32-1.92-1.39-3.06-3.01-3.8-.85-.38-1.7-.76-2.3-1.59-.41-.6-.53-1.26-.73-1.91-.14-.39-.27-.79-.71-.86-.48-.07-.67.34-.86.68-.75,1.41-1.05,2.96-1.02,4.52.07,3.53,1.53,6.34,4.43,8.34.33.22.42.45.31.79-.19.69-.43,1.35-.64,2.04-.13.44-.33.54-.79.35-1.59-.68-2.97-1.68-4.19-2.9-2.06-2.03-3.93-4.28-6.26-6.04-.54-.41-1.09-.79-1.66-1.15-2.37-2.35.32-4.28.94-4.51.65-.24.22-1.06-1.88-1.06-2.1.01-4.02.73-6.48,1.69-.35.14-.73.25-1.12.33-2.22-.43-4.53-.52-6.95-.25-4.54.52-8.17,2.71-10.84,6.44C.2,13.77-.55,18.88.37,24.2c.97,5.61,3.78,10.25,8.1,13.88,4.48,3.77,9.64,5.61,15.52,5.26,3.58-.21,7.56-.7,12.04-4.57,1.14.57,2.32.8,4.29.98,1.52.14,2.98-.08,4.12-.32,1.77-.38,1.65-2.05,1-2.36-5.19-2.46-4.05-1.46-5.09-2.27,2.64-3.19,6.62-6.49,8.18-17.2.12-.85.02-1.39,0-2.08-.01-.42.08-.58.55-.63,1.31-.15,2.57-.51,3.73-1.16,3.36-1.88,4.72-4.95,5.04-8.64.05-.57,0-1.15-.59-1.44ZM27.92,36.84c-5.03-4.03-7.47-5.36-8.48-5.3-.94.06-.78,1.15-.57,1.87.22.71.5,1.2.9,1.82.27.41.46,1.02-.28,1.48-1.62,1.02-4.44-.35-4.57-.41-3.28-1.97-6.02-4.57-7.96-8.13-1.86-3.42-2.95-7.09-3.13-11-.04-.95.23-1.28,1.15-1.46,1.22-.22,2.47-.27,3.69-.09,5.14.76,9.51,3.1,13.18,6.81,2.1,2.11,3.68,4.64,5.31,7.1,1.74,2.62,3.6,5.11,5.98,7.16.84.72,1.51,1.26,2.15,1.66-1.93.22-5.16.27-7.37-1.51ZM30.34,21.03c0-.42.33-.76.74-.76.1,0,.18.02.26.05.1.04.2.1.27.18.13.14.21.33.21.53,0,.42-.33.75-.75.75s-.73-.33-.73-.75ZM37.83,24.94c-.48.21-.96.38-1.42.4-.72.03-1.5-.26-1.92-.62-.66-.57-1.13-.88-1.33-1.87-.09-.42-.04-1.07.04-1.44.17-.8-.02-1.32-.58-1.79-.45-.38-1.03-.49-1.66-.49-.23,0-.45-.1-.61-.19-.27-.13-.48-.46-.28-.88.07-.13.39-.45.47-.51.85-.5,1.84-.34,2.76.04.85.35,1.49,1,2.41,1.92.95,1.11,1.12,1.41,1.65,2.24.43.65.81,1.32,1.08,2.09.16.47-.05.87-.61,1.1Z"/></svg>