<svg width="32" height="32" viewBox="0 0 32 32" fill="none" xmlns="http://www.w3.org/2000/svg">
  <rect x="2" y="2" width="28" height="28" rx="2" fill="#ECF1F9"/>
  <path fill-rule="evenodd" clip-rule="evenodd" d="M26 6.96159L23.172 9.78961C24.3075 11.3829 24.1606 13.6091 22.7311 15.0385L20.808 16.9617L15.0385 11.1922L16.9616 9.26903C18.391 7.83967 20.6171 7.69268 22.2104 8.82805L25.0384 6L26 6.96159ZM17.9232 10.2306L16.9616 11.1922L20.808 15.0385L21.7696 14.077C22.8317 13.0148 22.8317 11.2928 21.7696 10.2306C20.7074 9.16848 18.9854 9.16848 17.9232 10.2306Z" fill="#8E9FBC"/>
  <path fill-rule="evenodd" clip-rule="evenodd" d="M12.1532 16.0004L10.2297 14.077L9.26814 15.0386L10.2297 16.0002L9.26814 16.9617C7.83864 18.3912 7.69176 20.6177 8.82749 22.2109L6 25.0384L6.96159 26L9.78917 23.1724C11.3824 24.3076 13.6084 24.1605 15.0377 22.7313L15.9992 21.7697L16.9608 22.7313L17.9224 21.7697L15.9994 19.8466L18.4038 17.4423L17.4422 16.4807L15.0378 18.8851L13.1148 16.962L15.5193 14.5575L14.5577 13.5959L12.1532 16.0004ZM10.2297 17.9233L11.1913 16.9617L15.0377 20.8081L14.0761 21.7697C13.0139 22.8318 11.2919 22.8318 10.2297 21.7697C9.16759 20.7075 9.16759 18.9855 10.2297 17.9233Z" fill="#8E9FBC"/>
</svg>
