<svg xmlns="http://www.w3.org/2000/svg" width="14" height="14" fill="none"><g clip-path="url(#a)"><path fill="#fff" fill-rule="evenodd" d="M13.368 5.77c.32.457.49 1.002.489 1.56a2.75 2.75 0 0 1-.498 1.565c-.321.458-.774.806-1.3.999a2.07 2.07 0 0 1-.716 2.375 2.05 2.05 0 0 1-2.473-.032 3.86 3.86 0 0 1-1.929 1.424 3.85 3.85 0 0 1-4.334-1.399 3.9 3.9 0 0 1-.74-2.285 4 4 0 0 1 .069-.74 2.7 2.7 0 0 1-1.303-.994 2.7 2.7 0 0 1-.49-1.568 2.736 2.736 0 0 1 1.8-2.564 2.07 2.07 0 0 1 .71-2.381 2.05 2.05 0 0 1 2.476.03A3.86 3.86 0 0 1 9.811.463 3.88 3.88 0 0 1 11.7 2.218c.412.784.543 1.686.374 2.556a2.7 2.7 0 0 1 1.294.994m-7.834.281 3 1.376 3.03-2.662q.065-.331.064-.668c0-.725-.23-1.431-.66-2.016a3.373 3.373 0 0 0-5.517.096L4.95 4.8zm-3.106 3.19a3.41 3.41 0 0 0 .595 2.7 3.382 3.382 0 0 0 5.535-.108l.5-2.615-.667-1.28-3.013-1.376-2.95 2.678m2.038-4.725-2.057-.488a1.64 1.64 0 0 1 .563-1.868 1.62 1.62 0 0 1 1.945.01zm-2.235.004a2.282 2.282 0 0 0-.1 4.288l2.886-2.614-.53-1.136zm7.837 7.65c-.355-.002-.7-.12-.98-.337l.445-2.338 2.057.482a1.634 1.634 0 0 1-.772 2.006 1.6 1.6 0 0 1-.75.186m-.562-3.215 2.263.53a2.301 2.301 0 0 0 1.558-2.162 2.28 2.28 0 0 0-1.462-2.122L8.906 7.802z" clip-rule="evenodd"/><path fill="#FEC514" d="m5.535 6.05 3 1.377 3.029-2.663a3.404 3.404 0 0 0-.595-2.683 3.373 3.373 0 0 0-5.517.096L4.95 4.799z"/><path fill="#00BFB3" d="M2.428 9.24a3.41 3.41 0 0 0 .594 2.701 3.38 3.38 0 0 0 3.853 1.19 3.4 3.4 0 0 0 1.683-1.298l.5-2.615-.667-1.28-3.013-1.375z"/><path fill="#F04E98" d="m2.409 4.03 2.057.487.45-2.346A1.622 1.622 0 0 0 2.383 3c-.101.337-.092.697.027 1.027"/><path fill="#1BA9F5" d="M2.23 4.52a2.282 2.282 0 0 0-.1 4.288l2.886-2.615-.529-1.136z"/><path fill="#93C90E" d="M9.088 11.834a1.6 1.6 0 0 0 2.308-.363 1.64 1.64 0 0 0 .193-1.493l-2.057-.482z"/><path fill="#07C" d="m9.506 8.955 2.263.531a2.302 2.302 0 0 0 1.558-2.162 2.28 2.28 0 0 0-1.462-2.123L8.906 7.803z"/></g><defs><clipPath id="a"><path fill="#fff" d="M.143.143h13.714v13.714H.143z"/></clipPath></defs></svg>