<svg xmlns="http://www.w3.org/2000/svg" width="32" height="32" fill="none"><path fill="#EA4335" d="M20.305 10.16h.976l2.782-2.809.137-1.192a12.46 12.46 0 0 0-5.596-2.866 12.4 12.4 0 0 0-6.27.239A12.5 12.5 0 0 0 6.97 6.816a12.65 12.65 0 0 0-3.11 5.502c.31-.129.654-.15.977-.06l5.563-.926s.283-.473.43-.443a6.92 6.92 0 0 1 4.604-2.27 6.9 6.9 0 0 1 4.892 1.54z"/><path fill="#4285F4" d="M28.026 12.317a12.67 12.67 0 0 0-3.777-6.149l-3.904 3.941a7 7 0 0 1 1.906 2.483c.442.963.66 2.014.64 3.075v.7a3.45 3.45 0 0 1 2.458 1.027 3.5 3.5 0 0 1 1.017 2.48 3.54 3.54 0 0 1-1.017 2.48 3.47 3.47 0 0 1-2.457 1.028h-6.95l-.692.71v4.207l.693.7h6.949a8.98 8.98 0 0 0 5.401-1.756 9.12 9.12 0 0 0 3.3-4.661 9.2 9.2 0 0 0-.103-5.728 9.1 9.1 0 0 0-3.464-4.537"/><path fill="#34A853" d="M8.984 28.961h6.949v-5.616h-6.95c-.494 0-.984-.108-1.434-.316l-.976.306-2.801 2.808-.244.985a8.93 8.93 0 0 0 5.456 1.833"/><path fill="#FBBC05" d="M8.984 10.74a8.98 8.98 0 0 0-5.241 1.73 9.1 9.1 0 0 0-3.27 4.483 9.2 9.2 0 0 0-.082 5.566 9.13 9.13 0 0 0 3.137 4.578l4.03-4.07a3.5 3.5 0 0 1-1.306-1.036 3.52 3.52 0 0 1-.58-3.205 3.5 3.5 0 0 1 .86-1.436c.398-.4.886-.699 1.423-.868a3.44 3.44 0 0 1 3.174.585c.443.35.795.802 1.027 1.32l4.03-4.07a9.05 9.05 0 0 0-3.185-2.64 8.96 8.96 0 0 0-4.017-.937"/></svg>