<svg xmlns="http://www.w3.org/2000/svg" width="14" height="14" fill="none"><path fill="#fff" d="M13.81 9.932a1.3 1.3 0 0 0-.171-.38q.024-.091.037-.185a1.26 1.26 0 0 0-.342-1.044 1.2 1.2 0 0 0-.452-.318 6.04 6.04 0 0 0-.115-3.173 6 6 0 0 0-.203-.558 6.1 6.1 0 0 0-2.443-2.825 6.063 6.063 0 0 0-9.046 6.573q-.216.091-.41.3a1.26 1.26 0 0 0-.304 1.23 1.3 1.3 0 0 0-.172.38c-.08.303-.053.577.048.817-.11.314-.082.648.061.938.105.212.255.376.439.523.22.174.494.322.825.464.395.169.877.327 1.096.385.567.147 1.11.24 1.66.244.784.008 1.46-.177 1.943-.649a5.9 5.9 0 0 0 1.472-.004c.483.475 1.16.661 1.948.654.55-.005 1.093-.098 1.658-.244.221-.058.703-.217 1.098-.385.331-.143.606-.29.826-.465.184-.146.333-.31.438-.522.145-.29.17-.625.062-.939.1-.24.127-.514.047-.817m-.562.797c.111.211.118.45.02.672-.149.337-.519.602-1.237.887-.447.177-.856.29-.86.291-.59.153-1.124.231-1.587.231-.766 0-1.336-.211-1.697-.629a5.7 5.7 0 0 1-1.848.01c-.362.411-.928.62-1.688.62-.462 0-.996-.079-1.587-.232-.004-.001-.413-.114-.86-.291-.718-.285-1.088-.55-1.237-.887a.76.76 0 0 1 .054-.73.85.85 0 0 1-.115-.688.77.77 0 0 1 .26-.408.9.9 0 0 1-.116-.321.84.84 0 0 1 .231-.696.77.77 0 0 1 .572-.243h.006a5.628 5.628 0 1 1 10.743.004l.08-.003c.225 0 .429.086.572.242a.84.84 0 0 1 .231.696.85.85 0 0 1-.115.321c.124.1.216.24.26.408a.85.85 0 0 1-.115.689z"/><path fill="#FF9D00" d="M13.215 10.672a.85.85 0 0 0 .115-.689.77.77 0 0 0-.26-.408.85.85 0 0 0 .116-.32.84.84 0 0 0-.231-.696.77.77 0 0 0-.652-.24A5.627 5.627 0 1 0 1.56 8.316h-.007a.76.76 0 0 0-.572.243.84.84 0 0 0-.23.696.9.9 0 0 0 .114.321.77.77 0 0 0-.26.408.85.85 0 0 0 .116.689l-.033.057a.76.76 0 0 0-.02.672c.149.337.519.602 1.237.887.446.177.856.29.86.291.59.153 1.124.231 1.587.231.76 0 1.326-.207 1.688-.618a5.7 5.7 0 0 0 1.847-.01c.362.417.932.628 1.698.628.462 0 .996-.078 1.587-.23a10 10 0 0 0 .86-.292c.718-.285 1.088-.55 1.237-.887a.76.76 0 0 0-.054-.73m-7.434.877a2 2 0 0 1-.1.16 1 1 0 0 1-.36.32c-.273.148-.618.2-.97.2-.554 0-1.122-.13-1.441-.212-.016-.004-1.953-.551-1.708-1.017.041-.079.11-.11.195-.11.345 0 .974.514 1.244.514.06 0 .103-.025.12-.088.116-.413-1.75-.587-1.593-1.185.028-.106.103-.149.209-.149.456 0 1.481.803 1.696.803q.025 0 .034-.015l.003-.005c.1-.166.043-.287-.646-.709l-.067-.04c-.758-.459-1.29-.735-.988-1.065q.054-.056.145-.055c.07 0 .157.024.252.064.4.169.955.63 1.187.83l.11.097s.293.305.47.305c.041 0 .076-.016.1-.056.125-.212-1.17-1.194-1.243-1.599-.05-.274.035-.413.19-.413q.114 0 .265.094c.31.197.907 1.224 1.126 1.624.074.134.199.19.312.19.224 0 .399-.222.02-.505-.569-.426-.37-1.121-.098-1.164l.035-.003c.247 0 .356.425.356.425s.32.802.868 1.35c.497.497.567.905.277 1.415m1.773.094-.028.004-.049.005-.077.008-.025.002-.022.002-.033.003-.036.002-.035.003H7.24l-.028.002H7.2l-.033.002-.04.002h-.034l-.024.002h-.263l-.022-.002h-.028l-.035-.002-.031-.001h-.008l-.03-.002-.025-.001-.019-.002-.072-.005-.026-.002-.032-.002-.1-.01c.304-.679.15-1.313-.465-1.927-.403-.403-.672-.998-.727-1.129-.113-.386-.411-.816-.906-.816a.828.828 0 0 0-.667.357 1.9 1.9 0 0 0-.417-.408 1.1 1.1 0 0 0-.576-.185.76.76 0 0 0-.591.271l-.004.005-.008-.035v-.001a5 5 0 0 1-.07-.36l-.001-.003-.004-.027-.012-.082-.005-.037-.004-.037-.004-.035V7.2l-.015-.144-.001-.018-.003-.032-.001-.026v-.006l-.005-.072-.002-.038-.001-.033v-.01l-.002-.03v-.026l-.001-.031v-.098a5.047 5.047 0 0 1 10.092 0v.098l-.001.027v.024l-.002.03v.036l-.002.031v.008l-.002.033q-.007.105-.016.212l-.004.035-.003.028-.006.053-.003.027-.005.032-.004.035-.006.039-.005.03-.005.035-.006.035-.006.034-.033.17-.007.035-.008.034a.76.76 0 0 0-.537-.214q-.284.001-.576.185c-.129.082-.27.227-.417.408a.83.83 0 0 0-.667-.356c-.495 0-.793.43-.906.816-.056.13-.324.725-.728 1.129-.614.612-.77 1.243-.47 1.92m5.21-1.359-.002.006a.4.4 0 0 1-.034.067l-.036.047-.01.01-.014.015a1.4 1.4 0 0 1-.381.239l-.053.023-.018.008-.073.031-.038.016q-.13.053-.262.103l-.037.015-.037.014-.072.029-.036.014-.034.014-.018.007-.033.014c-.256.11-.44.222-.4.36l.003.011a.1.1 0 0 0 .026.044c.045.048.128.04.232.003l.044-.017.009-.004q.036-.015.075-.034l.02-.009c.127-.062.271-.146.414-.223q.087-.046.175-.088a.9.9 0 0 1 .366-.109q.072 0 .126.033l.005.004a.2.2 0 0 1 .063.073c.05.096.008.195-.09.293a1.7 1.7 0 0 1-.413.271l-.037.019a8 8 0 0 1-1.168.434 8 8 0 0 1-.707.15l-.042.006h-.006l-.193.026h-.006a5 5 0 0 1-.356.028h-.002l-.13.002h-.05a3 3 0 0 1-.196-.009h-.005a2 2 0 0 1-.239-.03l-.022-.005H9.07l-.069-.015-.04-.01-.007-.001-.02-.005-.003-.001-.02-.006-.023-.007h-.002l-.02-.006-.022-.008-.018-.005-.013-.005-.037-.014-.012-.005-.01-.003-.056-.024-.013-.006-.002-.001-.013-.006-.025-.013-.003-.001-.012-.006L8.566 12l-.012-.007-.017-.01-.015-.01-.016-.012-.01-.007-.029-.022-.016-.012-.018-.015-.015-.013-.016-.015-.016-.014-.016-.016-.015-.016-.03-.032-.001-.002-.041-.05-.027-.037-.008-.012-.054-.085-.014-.022-.002-.003-.013-.022-.006-.012-.007-.012-.004-.007-.003-.004-.013-.024-.006-.011-.006-.012-.006-.011q-.023-.045-.042-.091l-.005-.011-.009-.023-.004-.01a1 1 0 0 1-.062-.24l-.002-.011v-.011l-.004-.043v-.031c-.005-.285.14-.558.447-.866.548-.548.868-1.35.868-1.35s.008-.033.026-.082l.008-.02a1 1 0 0 1 .035-.08l.003-.005.036-.065.01-.014a1 1 0 0 1 .05-.064l.007-.009a.3.3 0 0 1 .11-.074l.004-.001.023-.006h.002l.026-.004h.015l.035.002q.076.013.137.083a.4.4 0 0 1 .064.096l.008.017.02.046a.7.7 0 0 1 .038.27.8.8 0 0 1-.052.252l-.009.022a1 1 0 0 1-.05.1l-.034.054-.008.011a.9.9 0 0 1-.211.213 1 1 0 0 0-.113.098c-.1.105-.123.198-.1.268a.2.2 0 0 0 .037.064l.004.004.003.003.012.01.004.004.03.02.01.005.036.014.01.003.004.001.006.002.005.001.006.002h.006l.005.002.012.001h.004l.006.002h.07l.008-.002h.006a.3.3 0 0 0 .078-.022l.01-.004.018-.009a.3.3 0 0 0 .077-.053l.01-.009.004-.004.009-.01a.4.4 0 0 0 .055-.076q.195-.355.41-.7l.019-.032.02-.031.03-.047.01-.016.1-.155.02-.03q.062-.091.123-.175l.02-.028q.065-.09.136-.177l.02-.022.008-.011.019-.022.01-.01.017-.02.009-.01.026-.028.018-.017a.7.7 0 0 1 .11-.093l.01-.006.028-.016c.157-.09.287-.096.362-.021q.07.067.07.225v.019l-.002.015v.018l-.002.016v.004l-.002.014-.001.005-.006.036-.001.01-.007.028-.019.05a.7.7 0 0 1-.08.137q-.03.045-.065.089l-.01.013a3 3 0 0 1-.115.135l-.012.014-.052.057-.013.014-.026.029-.027.028-.028.03-.028.028-.028.03-.056.058c-.27.277-.555.553-.65.725l-.018.034a.14.14 0 0 0-.016.08l.008.02a.1.1 0 0 0 .03.035q.03.022.069.021h.015l.008-.001.006-.001h.003l.006-.002h.001l.007-.002h.002l.007-.002.008-.003a.3.3 0 0 0 .061-.024l.009-.005.062-.036.01-.006.008-.005.009-.006.005-.004.012-.009.035-.025.019-.014.068-.058.014-.012.002-.001.007-.006.045-.042.005-.005.013-.012.007-.008.003-.002.008-.009.005-.005h.001l.002-.002.003-.003h.001l.003-.003.013-.012.008-.007.012-.01.009-.009.005-.004.01-.008.013-.013.008-.006.104-.09.017-.014.027-.023.028-.023.118-.097.027-.022.176-.136q.087-.065.176-.129l.026-.018.053-.036.017-.011q.047-.033.096-.063l.017-.01.016-.01.048-.03.016-.01.031-.018.032-.018.006-.003.025-.014.03-.016.016-.008.015-.008.015-.007a1 1 0 0 1 .13-.056l.027-.01.024-.008h.003l.012-.004h.002l.025-.007a.6.6 0 0 1 .106-.014h.005l.022.001.01.002h.001l.01.001.009.002.01.002a.2.2 0 0 1 .068.038l.002.002.004.003.003.004q.04.042.065.095l.003.006q.008.02.013.041a.22.22 0 0 1-.01.129.542.542 0 0 1-.096.144l-.006.006-.041.04-.014.014-.007.006a1 1 0 0 1-.085.07 3 3 0 0 1-.194.136l-.185.117q-.197.121-.431.26l-.04.025-.125.077-.02.012-.036.024-.074.048-.02.013-.029.019-.01.006-.028.02-.015.01-.018.012-.017.011-.077.057-.009.006a2 2 0 0 0-.098.08l-.008.008-.014.013-.009.009-.004.004-.028.03-.004.005-.026.032-.003.005-.02.033-.003.007-.002.005-.002.003-.001.003-.002.004-.008.035v.004l-.001.004v.03l.001.005.002.007.001.007.002.008.005.014q0 .004.003.008v.002l.003.005.003.008.012.022.004.008.005.007.003.004.001.001.002.002.001.001.009.004.004.002c.039.008.118-.024.223-.079l.019-.01.031-.017.016-.009.034-.02.021-.011c.139-.08.305-.183.476-.283l.048-.028.032-.02a10 10 0 0 1 .258-.14l.032-.017a5 5 0 0 1 .183-.084l.022-.009.003-.001a.9.9 0 0 1 .312-.076q.029 0 .056.005l.017.003h.001a.173.173 0 0 1 .129.121l.006.02a.26.26 0 0 1-.004.153"/><path fill="#FFD21E" fill-rule="evenodd" d="M11.978 6.667v-.033a5.046 5.046 0 1 0-10.092 0v.11l.001.019v.026l.002.03v.01l.001.032v.001l.002.037V6.9l.002.038.003.034v.003l.002.03v.002l.002.029v.002l.002.016q.006.072.014.144v.003l.004.035.005.037.003.025.001.012.012.082v.001l.004.026q.03.183.07.363l.001.001.002.01.006.025.004-.005a.76.76 0 0 1 .592-.271q.284 0 .575.185c.129.082.27.226.417.408a.83.83 0 0 1 .667-.357c.495 0 .793.43.906.816.056.131.324.726.729 1.128.615.614.769 1.249.464 1.927h.001l.063.007.037.003h.005l.027.003.025.002.073.005.02.001.014.001h.01l.03.002h.008l.03.002.036.001.028.001h.028q.06.002.118.002h.115l.012-.001h.035l.036-.002.038-.002.034-.001h.011l.018-.002h.018l.036-.003.036-.003.032-.002.023-.002.025-.003q.063-.005.125-.013l.029-.003c-.3-.676-.145-1.307.468-1.92.403-.403.672-.997.728-1.128.112-.387.41-.816.906-.816q.063 0 .125.01a.83.83 0 0 1 .542.347c.146-.182.288-.327.417-.409q.291-.184.575-.185a.76.76 0 0 1 .538.214l.007-.034.007-.034.021-.102.013-.069.002-.012.004-.022.006-.035v-.004l.005-.03.005-.031.01-.068v-.006l.004-.031.004-.028.006-.053.002-.022v-.006l.004-.034v-.001l.003-.028.012-.158.001-.026.002-.033V6.88l.003-.066v-.01l.001-.021v-.03l.001-.021v-.065M5.68 11.708c.4-.586.372-1.026-.177-1.574s-.867-1.35-.867-1.35-.12-.465-.39-.422c-.273.042-.472.738.097 1.164s-.113.715-.332.315-.817-1.427-1.127-1.624c-.31-.196-.528-.086-.455.32.037.2.374.543.69.864.32.325.616.627.553.734-.126.212-.57-.25-.57-.25s-1.39-1.264-1.693-.935c-.279.304.151.562.814.96l.174.105c.759.46.818.58.71.754-.04.064-.294-.088-.606-.275-.532-.32-1.234-.742-1.333-.364-.086.326.43.526.899.708.39.15.747.289.694.477-.054.194-.35.032-.671-.145-.362-.2-.759-.418-.889-.172-.245.466 1.692 1.014 1.708 1.018.626.162 2.216.506 2.771-.308m2.575 0c-.4-.586-.371-1.026.177-1.574s.868-1.35.868-1.35.119-.465.39-.422c.272.042.471.738-.097 1.164-.57.426.113.715.332.315s.816-1.427 1.126-1.624c.31-.196.528-.086.455.32-.036.2-.374.543-.69.864-.32.325-.616.627-.553.734.126.212.57-.25.57-.25s1.39-1.265 1.693-.935c.28.304-.15.562-.814.96l-.174.105c-.758.46-.817.58-.71.754.04.064.294-.088.606-.276.533-.32 1.235-.74 1.334-.364.086.327-.43.527-.9.708-.39.152-.746.29-.694.478.055.194.35.032.672-.146.362-.199.758-.417.888-.17.245.465-1.692 1.012-1.708 1.016-.626.163-2.216.507-2.77-.307" clip-rule="evenodd"/><path fill="#32343D" fill-rule="evenodd" d="M8.571 5.261c.079.028.137.113.193.193.075.11.145.21.253.154a.726.726 0 1 0-.982-.3c.05.093.16.049.277.002.091-.036.187-.074.26-.049m-3.42 0c-.08.028-.138.113-.194.193-.075.11-.145.21-.252.154a.726.726 0 1 1 .982-.3c-.05.093-.16.049-.277.002-.092-.036-.187-.074-.26-.049m2.89 3.113c.543-.427.742-1.124.742-1.554 0-.34-.228-.233-.594-.051l-.02.01c-.336.166-.783.387-1.274.387-.49 0-.937-.221-1.273-.387-.378-.187-.615-.305-.615.041 0 .443.212 1.171.794 1.594a1.26 1.26 0 0 1 .77-.652c.059-.017.118.083.18.185.059.099.12.2.18.2.066 0 .13-.1.193-.197.066-.101.13-.2.191-.18.312.1.572.316.727.604" clip-rule="evenodd"/><path fill="#FF323D" d="M8.042 8.374c-.283.222-.658.372-1.147.372-.46 0-.818-.132-1.094-.333a1.26 1.26 0 0 1 .77-.651c.115-.034.235.384.36.384.134 0 .263-.416.384-.377.312.1.572.317.727.605"/><path fill="#FFAD03" fill-rule="evenodd" d="M3.853 5.866a.471.471 0 1 1-.524-.783.471.471 0 0 1 .524.783m6.753 0a.471.471 0 1 1-.524-.783.471.471 0 0 1 .524.783" clip-rule="evenodd"/></svg>