<svg xmlns="http://www.w3.org/2000/svg" width="32" height="32" fill="none"><path fill="#000" fill-rule="evenodd" d="M5.833 10H0v.833h5.833zM0 11.59h5.833v.833H0zm1.664 1.59h2.502v.833H1.664zm2.502 1.593H1.664v.833h2.502zm-2.502 1.59h2.502v.833H1.664zm2.502 1.59H1.664v.833h2.502zM0 19.541h5.833v.833H0zm0 1.593h5.833v.83H0zm15.636-.76H6.665v-.833h9.304a3 3 0 0 1-.333.834m-.699-4.012H8.332v.833h7.304q-.287-.482-.699-.833m-6.605-.757v-.833h7.304q-.279.482-.699.833zm7.304-4.016H6.665v.833h9.304a3.6 3.6 0 0 0-.333-.833M6.665 10h6.213c.826 0 1.584.32 2.143.834H6.665zm4.166 3.18h-2.5v.833h2.5zm5.117.833h-2.615v-.833h2.728c0 .287-.039.568-.113.833m-7.616 3.94h2.499v.833h-2.5zm5.001.833v-.834h2.615a3 3 0 0 1 .113.834zm-6.668 3.173 6.213.01c.832 0 1.584-.32 2.146-.834h-8.36zm14.168-.824h-4.166v.83h4.166zm-4.166-1.593h4.166v.833h-4.166zm4.166-1.59H18.33v.834h2.502zm-2.502-1.59h2.502v.834H18.33zm-1.664-4.772h5.325l.288.833h-5.613zM21.439 10h-4.772v.834h5.06zM30 21.135h-4.168v.83H30zm-4.168-1.593H30v.833h-4.17zm2.502-1.59H25.83v.834h2.502zm-2.502-1.59h2.502v.834H25.83zm2.502-.756H25.83v-.765l-.264.765h-4.47l-.264-.765v.765H18.33v-.833h4.766l.235.673.235-.673h4.766zm0-2.426h-4.214l-.288.833h4.502zm-3.394-2.346.288-.834H30v.834zm-1.607 11.125.288-.824h-.576zm.552-1.584H22.78l-.294-.833h1.697zm-1.666-1.59h2.228l.294-.832h-2.817zm2.79-1.59h-3.35l-.287-.832h3.922zm-6.677-3.182h4.502l-.288-.833H18.33zM30 12.423h-5.614l.285-.833H30z" clip-rule="evenodd"/></svg>