<svg width="32" height="32" viewBox="0 0 32 32" fill="none" xmlns="http://www.w3.org/2000/svg">
<mask id="mask0_2612_30" style="mask-type:luminance" maskUnits="userSpaceOnUse" x="2" y="2" width="28" height="28">
<path d="M30 2H2V30H30V2Z" fill="white"/>
</mask>
<g mask="url(#mask0_2612_30)">
<path d="M9.50052 14.7247H8.18287V7.32556H9.50052V14.7247Z" fill="#1D2A3E"/>
<path d="M3.39367 13.5337H7.01723V14.7247H2V7.62964H3.39367V13.5337Z" fill="#1D2A3E"/>
<path d="M19.8821 9.56811C20.2648 9.68721 20.5764 9.95834 20.7715 10.3384L20.8729 10.5386L20.9641 10.4018C21.1846 10.0698 21.5469 9.76322 21.884 9.62132C22.3629 9.42114 23.0648 9.44395 23.5184 9.672C23.8984 9.86458 24.2051 10.3308 24.3571 10.9491C24.4078 11.1544 24.4103 11.2456 24.4179 12.9433L24.428 14.7247H23.1104L23.1003 13.0827C23.0901 11.2735 23.0901 11.2785 22.9254 10.9694C22.7708 10.6805 22.5757 10.5842 22.1754 10.5994C21.9726 10.607 21.9042 10.6197 21.7851 10.6754C21.5241 10.7971 21.3315 10.9897 21.1592 11.3089L21.0807 11.4508V14.7247H19.7377V13.1435C19.7377 11.423 19.7301 11.3267 19.5958 11.0251C19.5147 10.8452 19.3652 10.6957 19.198 10.6324C19.1067 10.5969 19.0257 10.5893 18.8179 10.5994C18.5847 10.607 18.5391 10.6172 18.3896 10.6906C18.1768 10.7945 17.9361 11.0454 17.8068 11.3013L17.7105 11.4863V14.7247H16.3929V9.60612H17.6599V10.4271L17.7384 10.303C17.9994 9.89246 18.4707 9.57824 18.937 9.50223C19.1802 9.46422 19.6591 9.49716 19.8821 9.56811Z" fill="#1D2A3E"/>
<path d="M25.8496 20.6971L25.8572 22.9219L26.4678 22.3138C27.0608 21.7208 27.451 21.3053 27.7576 20.9378L27.9097 20.7554H28.68C29.4072 20.7554 29.4478 20.7579 29.4148 20.7985C29.1285 21.171 27.712 22.6381 27.2204 23.0714L27.114 23.1677L27.7399 23.7911C28.3328 24.3815 28.8599 24.9415 29.425 25.5826L29.6708 25.8613L28.0617 25.8765L27.9857 25.7903C27.9451 25.7447 27.7069 25.4787 27.4611 25.1974C27.005 24.683 25.9078 23.5427 25.8673 23.5427C25.8546 23.5427 25.8445 24.0419 25.8445 24.7083V25.874H24.5268V18.4748H25.8445L25.8496 20.6971Z" fill="#1D2A3E"/>
<path d="M6.16834 18.7232C6.62952 18.8246 7.06283 19.0095 7.42265 19.2629C7.60763 19.3947 7.98772 19.7545 8.06881 19.8762C8.11442 19.9471 8.14736 19.9091 7.53668 20.4716L7.25794 20.7276L7.02989 20.5046C6.66246 20.1397 6.33558 19.9572 5.86933 19.8508C5.58807 19.7875 4.89123 19.7951 4.6277 19.866C4.3819 19.9319 4.20199 20.0257 4.06516 20.165C3.89792 20.3323 3.86244 20.426 3.86244 20.7048C3.86244 20.9227 3.87005 20.9556 3.93339 21.0671C4.04489 21.2572 4.31856 21.4092 4.72399 21.5106C4.83548 21.5384 5.21811 21.6195 5.57286 21.6905C6.50282 21.878 6.91079 22.0072 7.33649 22.2631C7.79261 22.5343 8.10428 22.96 8.19804 23.4414C8.24872 23.6974 8.23351 24.1788 8.17017 24.417C7.93704 25.2684 7.19206 25.8132 6.05938 25.9627C5.72997 26.0058 5.02553 26.0134 4.71132 25.9754C3.87765 25.874 3.21629 25.608 2.70443 25.1645C2.53212 25.0175 2.24578 24.7033 2.23311 24.6501C2.22804 24.6222 2.62841 24.2295 3.02117 23.8747L3.09466 23.8088L3.24923 23.9761C3.62425 24.379 4.01955 24.6172 4.53394 24.7515C4.73412 24.8047 4.85322 24.8174 5.23078 24.8275C5.71476 24.8427 5.93015 24.8199 6.21395 24.7337C6.43947 24.6628 6.65486 24.5006 6.75115 24.3258C6.81957 24.2016 6.82717 24.1687 6.82717 23.9482C6.82717 23.672 6.78916 23.5707 6.61939 23.4136C6.37359 23.1804 6.1202 23.0892 5.16743 22.8966C4.7848 22.8206 4.34643 22.7218 4.19186 22.6787C3.47982 22.476 2.9933 22.1668 2.70443 21.7285C2.50931 21.4295 2.4409 21.1381 2.4637 20.6693C2.49158 20.0789 2.71456 19.6405 3.17828 19.268C3.58118 18.9462 4.05249 18.7688 4.77467 18.6675C4.81774 18.6624 5.09648 18.6599 5.39549 18.6649C5.81866 18.6725 5.99096 18.6852 6.16834 18.7232Z" fill="#1D2A3E"/>
<path d="M10.9702 20.7555H12.5919V21.769H10.9677L10.9753 23.0157C10.9829 24.2523 10.9829 24.2675 11.0412 24.4094C11.1222 24.6096 11.2946 24.7616 11.5049 24.8225C11.738 24.8858 12.3563 24.8706 12.6249 24.7946C12.6654 24.7819 12.668 24.8174 12.668 25.2988V25.8183L12.4475 25.8588C11.3528 26.054 10.585 25.9222 10.1188 25.4585C9.92115 25.2608 9.79192 25.0277 9.71844 24.7338C9.65002 24.4702 9.62468 23.8748 9.64242 23.0081C9.65255 22.5672 9.65002 22.1086 9.63988 21.9895L9.62215 21.769H8.61363L8.6187 21.2673L8.6263 20.7681L9.13816 20.7605L9.65002 20.7555L9.63482 20.0612C9.62722 19.6811 9.62722 19.3491 9.63482 19.3263C9.65002 19.2908 9.72351 19.2858 10.3114 19.2858H10.9702V20.7555Z" fill="#1D2A3E"/>
<path d="M21.8282 20.6542C22.1196 20.6973 22.297 20.7505 22.5478 20.8721C22.8418 21.0115 23.0495 21.1585 23.2396 21.3561C23.3638 21.4879 23.6019 21.8173 23.5842 21.8325C23.5006 21.9034 22.5909 22.428 22.5782 22.4128C22.5681 22.4001 22.5098 22.3215 22.4465 22.2404C22.3147 22.0605 22.1348 21.9136 21.9422 21.8223C21.8155 21.7615 21.775 21.7565 21.4734 21.7565C21.0427 21.7565 20.916 21.8046 20.6727 22.0453C20.4877 22.2303 20.4066 22.3697 20.3154 22.656C20.2622 22.8283 20.2571 22.8917 20.2571 23.3402C20.2571 23.7963 20.2622 23.847 20.3179 24.0117C20.4497 24.3918 20.6626 24.6578 20.9514 24.7947C21.1136 24.8707 21.1288 24.8732 21.4734 24.8732C21.775 24.8732 21.851 24.8656 21.9726 24.8175C22.1601 24.7465 22.3274 24.63 22.4997 24.4501L22.6416 24.3056L23.1129 24.6376C23.5006 24.9062 23.5842 24.9771 23.5665 25.0101C23.5538 25.0329 23.4778 25.1216 23.3992 25.2102C23.0242 25.6233 22.4819 25.8995 21.9017 25.978C21.5799 26.0211 20.9717 25.9932 20.7132 25.9273C19.8694 25.7069 19.2841 25.1722 19.013 24.369C18.7824 23.6924 18.8077 22.7624 19.0738 22.1036C19.4057 21.2902 20.1228 20.7632 21.0452 20.6567C21.2986 20.6263 21.6255 20.6263 21.8282 20.6542Z" fill="#1D2A3E"/>
<path fill-rule="evenodd" clip-rule="evenodd" d="M12.1434 14.8257C12.7769 14.8257 13.2408 14.6385 13.6639 14.2154L13.8846 13.9917V14.7242H15.1542L15.1434 12.9429C15.1358 11.1947 15.1357 11.1616 15.0799 10.9488C14.9811 10.5739 14.8474 10.3328 14.5965 10.0845C14.2925 9.78046 14.0081 9.63082 13.5672 9.5396C13.3391 9.49406 12.7395 9.47452 12.4784 9.50737C12.0831 9.55298 11.6167 9.71757 11.3329 9.91265C11.0744 10.09 10.6816 10.5182 10.7323 10.5689C10.7465 10.5827 10.9386 10.7244 11.1581 10.8833L11.5604 11.1744L11.7401 10.9898C12.0314 10.6934 12.3459 10.5666 12.7967 10.564C13.0856 10.564 13.2684 10.6096 13.4432 10.7261C13.6788 10.8832 13.8007 11.144 13.826 11.5367L13.8417 11.7593H13.0838C12.2603 11.7593 11.9836 11.7822 11.6542 11.8785C10.9296 12.0862 10.5366 12.5502 10.496 13.2417C10.4427 14.1818 11.1121 14.8257 12.1434 14.8257ZM12.4452 13.8277C12.0171 13.7922 11.8067 13.5946 11.8065 13.23C11.8065 12.8499 12.0395 12.6463 12.5311 12.5982C12.6553 12.5855 12.9975 12.5781 13.2889 12.5806L13.8211 12.5835L13.829 12.8062C13.8366 13.0165 13.8308 13.0371 13.7547 13.1714C13.4963 13.6223 12.9949 13.8732 12.4452 13.8277Z" fill="#1D2A3E"/>
<path fill-rule="evenodd" clip-rule="evenodd" d="M26.3896 14.7503C26.6431 14.8288 27.1222 14.8467 27.4287 14.7884C27.9302 14.6946 28.3428 14.4532 28.6367 14.0833L28.7333 13.9593V14.7249H30V13.0804C30 12.0622 29.9903 11.3603 29.9726 11.2357C29.851 10.3287 29.2985 9.72585 28.4169 9.54328C28.1789 9.49262 27.5834 9.47231 27.3222 9.50519C26.6559 9.5888 26.0393 9.9124 25.6972 10.3558C25.6247 10.4483 25.5669 10.5314 25.5654 10.5433C25.5654 10.5534 25.7537 10.7007 25.9843 10.8704L26.4023 11.1771L26.5849 10.9896C26.9193 10.6528 27.3427 10.5112 27.8417 10.5745C28.2823 10.6278 28.5229 10.8379 28.6318 11.2659C28.6596 11.3747 28.6825 11.5289 28.6826 11.6126V11.7601H27.9042C27.0738 11.7601 26.7696 11.7878 26.4531 11.889C25.9134 12.0613 25.5479 12.3884 25.4111 12.8216C25.3376 13.0497 25.3198 13.4377 25.373 13.681C25.482 14.2004 25.8423 14.578 26.3896 14.7503ZM28.0615 13.6888C27.7524 13.8406 27.3016 13.876 27.0078 13.7747C26.8735 13.7291 26.7266 13.5844 26.6835 13.4603C26.6456 13.3413 26.6475 13.0682 26.6904 12.9691C26.736 12.8551 26.9163 12.7083 27.0683 12.6575C27.1393 12.6347 27.2812 12.6091 27.3876 12.5989C27.4941 12.5913 27.826 12.5857 28.125 12.5882L28.6699 12.5941L28.6777 12.807C28.6853 13.0117 28.68 13.0272 28.5966 13.1712C28.4775 13.3739 28.2465 13.5976 28.0615 13.6888Z" fill="#1D2A3E"/>
<path fill-rule="evenodd" clip-rule="evenodd" d="M14.7605 25.9673C15.5105 26.0053 16.0685 25.7752 16.5271 25.2407L16.6209 25.1284V25.8735H17.9002L17.8953 24.27C17.8928 23.3913 17.8853 22.5757 17.8777 22.4634C17.86 22.2201 17.766 21.8776 17.657 21.6597C17.3681 21.0847 16.8008 20.733 16.0408 20.6518C15.2908 20.5733 14.5862 20.7222 14.0642 21.0718C13.8794 21.1959 13.5556 21.5177 13.492 21.6421L13.4588 21.7085L13.8543 21.9966C14.358 22.3687 14.3078 22.3443 14.3709 22.2583C14.6724 21.8605 15.1794 21.6594 15.7293 21.7202C16.2663 21.7786 16.5496 22.1188 16.575 22.7319L16.5828 22.896L15.6961 22.9116C14.9967 22.9218 14.7684 22.9347 14.6189 22.9702C13.6968 23.178 13.2456 23.6693 13.2429 24.4673C13.2404 24.9335 13.3525 25.22 13.6541 25.519C13.958 25.8229 14.2567 25.9419 14.7605 25.9673ZM16.2791 24.5962C15.9699 24.9129 15.5006 25.0503 15.0369 24.9565C14.7457 24.8982 14.5715 24.713 14.5486 24.437C14.5157 24.0392 14.7662 23.8008 15.2781 23.7476C15.3821 23.7349 15.7089 23.7247 16.0027 23.7222C16.4468 23.7196 16.5443 23.7272 16.5701 23.7573C16.5904 23.7827 16.5978 23.8568 16.5877 23.981C16.575 24.2164 16.4917 24.3759 16.2791 24.5962Z" fill="#1D2A3E"/>
</g>
</svg>
