<svg width="32" height="32" viewBox="0 0 32 32" fill="none" xmlns="http://www.w3.org/2000/svg">
<mask id="mask0_2612_23" style="mask-type:luminance" maskUnits="userSpaceOnUse" x="2" y="2" width="28" height="28">
<path d="M30 2H2V30H30V2Z" fill="white"/>
</mask>
<g mask="url(#mask0_2612_23)">
<path d="M4.1 2H27.9C29.0598 2 30 2.9402 30 4.1V27.9C30 29.0598 29.0598 30 27.9 30H4.1C2.9402 30 2 29.0598 2 27.9V4.1C2 2.9402 2.9402 2 4.1 2Z" fill="url(#paint0_linear_2612_23)"/>
<path d="M10.8931 14.8135H9.85786V9H10.8931V14.8135Z" fill="white"/>
<path d="M6.09501 13.8778H8.94203V14.8135H5V9.23891H6.09501V13.8778Z" fill="white"/>
<path d="M19.05 10.762C19.3506 10.8555 19.5955 11.0686 19.7488 11.3672L19.8284 11.5245L19.9001 11.417C20.0733 11.1562 20.358 10.9153 20.6228 10.8038C20.9991 10.6465 21.5506 10.6644 21.9069 10.8436C22.2056 10.9949 22.4465 11.3612 22.5659 11.847C22.6057 12.0083 22.6077 12.08 22.6137 13.4139L22.6217 14.8135H21.5864L21.5784 13.5234C21.5705 12.1019 21.5705 12.1058 21.4411 11.8629C21.3196 11.636 21.1663 11.5603 20.8517 11.5723C20.6925 11.5782 20.6387 11.5882 20.5451 11.632C20.3401 11.7276 20.1888 11.8789 20.0534 12.1297L19.9917 12.2412V14.8135H18.9365V13.5712C18.9365 12.2193 18.9305 12.1437 18.825 11.9067C18.7613 11.7654 18.6438 11.6479 18.5124 11.5982C18.4407 11.5703 18.377 11.5643 18.2138 11.5723C18.0306 11.5782 17.9948 11.5862 17.8773 11.6439C17.7101 11.7256 17.5209 11.9227 17.4194 12.1238L17.3437 12.2691V14.8135H16.3085V10.7918H17.3039V11.4369L17.3656 11.3393C17.5707 11.0168 17.941 10.7699 18.3073 10.7102C18.4985 10.6803 18.8748 10.7062 19.05 10.762Z" fill="white"/>
<path d="M23.7386 19.506L23.7445 21.254L24.2243 20.7762C24.6902 20.3103 24.9968 19.9838 25.2377 19.6951L25.3572 19.5518H25.9624C26.5338 19.5518 26.5657 19.5538 26.5398 19.5856C26.3148 19.8783 25.2019 21.0311 24.8157 21.3715L24.732 21.4472L25.2238 21.9369C25.6897 22.4008 26.1038 22.8408 26.5478 23.3445L26.7409 23.5635L25.4766 23.5755L25.4169 23.5078C25.3851 23.4719 25.1979 23.2629 25.0048 23.0419C24.6464 22.6377 23.7844 21.7418 23.7525 21.7418C23.7425 21.7418 23.7346 22.134 23.7346 22.6576V23.5735H22.6993V17.76H23.7346L23.7386 19.506Z" fill="white"/>
<path d="M8.27507 17.9551C8.63742 18.0347 8.97787 18.18 9.26058 18.3791C9.40591 18.4827 9.70455 18.7654 9.76826 18.8609C9.8041 18.9167 9.82998 18.8868 9.35017 19.3288L9.13117 19.5299L8.95198 19.3547C8.6633 19.068 8.40647 18.9246 8.04014 18.841C7.81915 18.7913 7.27164 18.7972 7.06459 18.853C6.87147 18.9047 6.73011 18.9784 6.6226 19.0879C6.4912 19.2193 6.46333 19.293 6.46333 19.512C6.46333 19.6832 6.4693 19.7091 6.51908 19.7967C6.60668 19.946 6.8217 20.0654 7.14024 20.1451C7.22784 20.167 7.52847 20.2307 7.8072 20.2864C8.53787 20.4338 8.85841 20.5353 9.19288 20.7364C9.55125 20.9494 9.79613 21.2839 9.8698 21.6622C9.90962 21.8632 9.89767 22.2415 9.8479 22.4287C9.66473 23.0976 9.0794 23.5257 8.18946 23.6431C7.93064 23.677 7.37716 23.6829 7.13029 23.6531C6.47528 23.5734 5.95564 23.3644 5.55348 23.016C5.4181 22.9005 5.19312 22.6536 5.18317 22.6118C5.17918 22.5899 5.49375 22.2813 5.80234 22.0026L5.86008 21.9508L5.98153 22.0822C6.27618 22.3988 6.58677 22.5859 6.99092 22.6915C7.14821 22.7333 7.24178 22.7432 7.53843 22.7512C7.91869 22.7631 8.08792 22.7452 8.31091 22.6775C8.4881 22.6218 8.65733 22.4944 8.73298 22.357C8.78674 22.2594 8.79271 22.2336 8.79271 22.0603C8.79271 21.8433 8.76285 21.7637 8.62945 21.6403C8.43633 21.4571 8.23724 21.3854 7.48866 21.2341C7.18803 21.1744 6.8436 21.0967 6.72215 21.0629C6.1627 20.9036 5.78044 20.6607 5.55348 20.3163C5.40018 20.0814 5.34642 19.8524 5.36434 19.4841C5.38624 19.0202 5.56144 18.6758 5.92578 18.3831C6.24234 18.1303 6.61265 17.9909 7.18006 17.9113C7.21391 17.9073 7.43291 17.9053 7.66784 17.9093C8.00032 17.9152 8.1357 17.9252 8.27507 17.9551Z" fill="white"/>
<path d="M12.0479 19.5518H13.3221V20.3482H12.0459L12.0519 21.3277C12.0578 22.2993 12.0578 22.3112 12.1036 22.4227C12.1673 22.58 12.3027 22.6995 12.468 22.7472C12.6511 22.797 13.1369 22.7851 13.3479 22.7253C13.3798 22.7154 13.3818 22.7433 13.3818 23.1215V23.5297L13.2086 23.5615C12.3485 23.7148 11.7453 23.6113 11.3789 23.247C11.2236 23.0917 11.1221 22.9085 11.0644 22.6776C11.0106 22.4705 10.9907 22.0026 11.0046 21.3217C11.0126 20.9753 11.0106 20.615 11.0026 20.5214L10.9887 20.3482H10.1963L10.2003 19.954L10.2063 19.5618L10.6084 19.5558L11.0106 19.5518L10.9987 19.0063C10.9927 18.7077 10.9927 18.4468 10.9987 18.4289C11.0106 18.4011 11.0683 18.3971 11.5302 18.3971H12.0479V19.5518Z" fill="white"/>
<path d="M20.579 19.4723C20.8079 19.5061 20.9473 19.5479 21.1444 19.6435C21.3753 19.753 21.5386 19.8685 21.6879 20.0237C21.7855 20.1273 21.9726 20.3861 21.9587 20.398C21.893 20.4538 21.1782 20.8659 21.1683 20.854C21.1603 20.844 21.1145 20.7823 21.0648 20.7186C20.9612 20.5772 20.8199 20.4618 20.6686 20.3901C20.569 20.3423 20.5372 20.3383 20.3002 20.3383C19.9618 20.3383 19.8622 20.3761 19.6711 20.5653C19.5258 20.7106 19.4621 20.8201 19.3904 21.0451C19.3486 21.1805 19.3446 21.2302 19.3446 21.5826C19.3446 21.941 19.3486 21.9808 19.3924 22.1102C19.4959 22.4089 19.6632 22.6179 19.8901 22.7254C20.0175 22.7852 20.0295 22.7871 20.3002 22.7871C20.5372 22.7871 20.5969 22.7812 20.6925 22.7433C20.8398 22.6876 20.9712 22.596 21.1066 22.4547L21.2181 22.3412L21.5884 22.602C21.893 22.813 21.9587 22.8688 21.9447 22.8947C21.9348 22.9126 21.8751 22.9823 21.8134 23.0519C21.5187 23.3765 21.0926 23.5935 20.6367 23.6552C20.3839 23.689 19.906 23.6671 19.703 23.6154C19.04 23.4422 18.5801 23.0221 18.3671 22.391C18.1859 21.8594 18.2058 21.1287 18.4148 20.6111C18.6757 19.972 19.2391 19.5579 19.9638 19.4743C20.1629 19.4504 20.4197 19.4504 20.579 19.4723Z" fill="white"/>
<path fill-rule="evenodd" clip-rule="evenodd" d="M12.9697 14.8929C13.4674 14.8929 13.8316 14.7458 14.1641 14.4134L14.3379 14.2376V14.8138H15.335L15.3272 13.4134C15.3212 12.0403 15.3211 12.0141 15.2774 11.847C15.1997 11.5523 15.0936 11.3634 14.8965 11.1683C14.6577 10.9295 14.4351 10.8112 14.0889 10.7396C13.9097 10.7037 13.4375 10.6883 13.2324 10.7142C12.922 10.75 12.556 10.8793 12.333 11.0325C12.1304 11.1716 11.8221 11.5072 11.8604 11.5482C11.8703 11.5581 12.0221 11.6698 12.1953 11.7952L12.5117 12.0237L12.6533 11.8792C12.8823 11.6463 13.129 11.5462 13.4834 11.5443C13.7103 11.5443 13.8539 11.5806 13.9912 11.6722C14.1761 11.7956 14.2721 12.0005 14.292 12.3089L14.3037 12.4837H13.708C13.0612 12.4837 12.8438 12.5018 12.585 12.5775C12.0158 12.7408 11.7076 13.1053 11.6758 13.6487C11.634 14.3874 12.1594 14.8929 12.9697 14.8929ZM13.207 14.1087C12.8706 14.0808 12.7051 13.9256 12.7051 13.639C12.7051 13.3403 12.8882 13.1807 13.2744 13.1429C13.372 13.1329 13.6404 13.1272 13.8691 13.1292L14.2881 13.1312L14.294 13.306C14.2999 13.4711 14.296 13.4877 14.2363 13.5931C14.0333 13.9473 13.6389 14.1444 13.207 14.1087Z" fill="white"/>
<path fill-rule="evenodd" clip-rule="evenodd" d="M24.1621 14.834C24.3611 14.8957 24.7376 14.909 24.9785 14.8633C25.3727 14.7896 25.6978 14.6003 25.9287 14.3096L26.0039 14.2119V14.8135H27V13.5215C27 12.7215 26.9915 12.1701 26.9775 12.0723C26.882 11.3595 26.4477 10.8855 25.7549 10.7422C25.5676 10.7025 25.1006 10.6861 24.8955 10.7119C24.3721 10.7776 23.888 11.0326 23.6191 11.3809C23.5621 11.4537 23.5167 11.5192 23.5156 11.5283C23.5156 11.5363 23.6627 11.6519 23.8438 11.7852L24.1729 12.0264L24.3154 11.8789C24.5782 11.6141 24.9115 11.503 25.3037 11.5527C25.6498 11.5946 25.8392 11.7595 25.9248 12.0957C25.9467 12.1813 25.9639 12.3034 25.9639 12.3691V12.4844H25.3535C24.7005 12.4844 24.4608 12.5063 24.2119 12.5859C23.7881 12.7214 23.501 12.978 23.3936 13.3184C23.3359 13.4975 23.3225 13.8021 23.3643 13.9932C23.4499 14.4012 23.7322 14.6986 24.1621 14.834ZM25.4766 13.999C25.2337 14.1185 24.8794 14.1461 24.6484 14.0664C24.543 14.0306 24.4275 13.9178 24.3936 13.8203C24.3637 13.7267 24.3656 13.5112 24.3994 13.4336C24.4353 13.344 24.5769 13.2283 24.6963 13.1885C24.7521 13.1706 24.8638 13.1515 24.9473 13.1436C25.0312 13.1376 25.2917 13.1328 25.5264 13.1348L25.9541 13.1387L25.96 13.3066C25.9659 13.4676 25.9621 13.4795 25.8965 13.5928C25.8029 13.752 25.6219 13.9273 25.4766 13.999Z" fill="white"/>
<path fill-rule="evenodd" clip-rule="evenodd" d="M15.026 23.6472C15.6152 23.677 16.0534 23.4957 16.4137 23.0759L16.4879 22.988V23.5729H17.4928L17.4889 22.3132C17.4869 21.6223 17.4812 20.9809 17.4752 20.8933C17.4613 20.7022 17.3879 20.4335 17.3024 20.2624C17.0754 19.8105 16.6291 19.5341 16.0319 19.4704C15.4427 19.4087 14.8892 19.5259 14.4791 19.8005C14.3338 19.898 14.0787 20.1512 14.0289 20.2487L14.0026 20.3005L14.3131 20.527C14.7092 20.8196 14.6697 20.7998 14.7194 20.7321C14.9563 20.4196 15.3548 20.2625 15.7868 20.3102C16.2087 20.356 16.4318 20.6226 16.4518 21.1042L16.4577 21.2341L15.7614 21.2458C15.2119 21.2538 15.0322 21.2638 14.9147 21.2917C14.1901 21.455 13.8356 21.8413 13.8336 22.4684C13.8317 22.8346 13.9191 23.0598 14.1559 23.2946C14.3948 23.5335 14.63 23.6272 15.026 23.6472ZM16.2194 22.57C15.9766 22.8188 15.608 22.9258 15.2438 22.8522C15.0148 22.8064 14.8769 22.661 14.859 22.444C14.8333 22.1317 15.0304 21.9449 15.4323 21.903C15.5139 21.8931 15.7707 21.8845 16.0016 21.8825C16.352 21.8805 16.428 21.8869 16.4479 21.9108C16.4638 21.9308 16.4695 21.9884 16.4616 22.0856C16.4516 22.2708 16.3865 22.3969 16.2194 22.57Z" fill="white"/>
</g>
<defs>
<linearGradient id="paint0_linear_2612_23" x1="32" y1="32" x2="3.57628e-07" y2="1.68596e-06" gradientUnits="userSpaceOnUse">
<stop stop-color="#09453D"/>
<stop offset="0.408654" stop-color="#0B384F"/>
<stop offset="0.754808" stop-color="#2F304C"/>
<stop offset="1" stop-color="#3E3C3D"/>
</linearGradient>
</defs>
</svg>