<svg xmlns="http://www.w3.org/2000/svg" width="32" height="32" fill="none"><path fill="#000" d="M12.242 18.6H7.039l.003-5.2h5.202zM17.441 23.8H12.24l.002-5.2h5.203z"/><path fill="#000" d="M17.444 18.6h-5.202l.002-5.2h5.202zM22.646 18.6h-5.202l.002-5.2h5.203zM12.244 13.4H7.042l.002-5.2h5.203zM22.649 13.4h-5.203l.003-5.2h5.202zM7.04 18.6H1.836l.002-5.2h5.203z"/><path fill="#000" d="M7.042 13.4H1.839l.003-5.2h5.202zM7.044 8.2H1.842L1.844 3h5.203zM27.854 8.2H22.65l.003-5.2h5.202zM7.037 23.8H1.834l.003-5.2h5.202zM7.034 29H1.832l.002-5.2h5.203zM27.849 18.6h-5.203l.003-5.2h5.202zM27.851 13.4h-5.202l.002-5.2h5.203zM27.846 23.8h-5.202l.002-5.2h5.203zM27.843 29h-5.202l.003-5.2h5.202z"/><path fill="#FF7000" d="M14.405 18.6H9.203l.002-5.2h5.203z"/><path fill="#FF4900" d="M19.605 23.8h-5.202l.002-5.2h5.203z"/><path fill="#FF7000" d="M19.608 18.6h-5.203l.003-5.2h5.202z"/><path fill="#FF7000" d="M24.81 18.6h-5.202l.002-5.2h5.203z"/><path fill="#FFA300" d="M14.408 13.4H9.205l.003-5.2h5.202zM24.812 13.399H19.61l.003-5.2h5.202z"/><path fill="#FF7000" d="M9.203 18.6H4l.003-5.2h5.202z"/><path fill="#FFA300" d="M9.205 13.4H4.003l.002-5.2h5.203z"/><path fill="#FFCE00" d="M9.208 8.2H4.005L4.008 3H9.21zM30.017 8.2h-5.202l.002-5.2h5.203z"/><path fill="#FF4900" d="M9.2 23.8H3.998L4 18.6h5.203z"/><path fill="#FF0107" d="M9.198 29H3.995l.003-5.2H9.2z"/><path fill="#FF7000" d="M30.012 18.6H24.81l.002-5.201h5.203z"/><path fill="#FFA300" d="m30.015 13.4-5.203-.001.003-5.2h5.202z"/><path fill="#FF4900" d="M30.01 23.8h-5.203l.003-5.2h5.202z"/><path fill="#FF0107" d="M30.007 29h-5.202l.002-5.2h5.203z"/></svg>