<svg xmlns="http://www.w3.org/2000/svg" width="32" height="32" fill="none"><path fill="#000" d="M28.154 13.46a6.89 6.89 0 0 0-.608-5.73 7.1 7.1 0 0 0-3.29-2.93 7.24 7.24 0 0 0-4.41-.454 7.1 7.1 0 0 0-2.41-1.742A7.15 7.15 0 0 0 14.515 2a7.2 7.2 0 0 0-4.217 1.346 7.06 7.06 0 0 0-2.603 3.54A7.1 7.1 0 0 0 4.96 8.072a7 7 0 0 0-1.994 2.195 6.98 6.98 0 0 0 .88 8.273 6.89 6.89 0 0 0 .607 5.73 7.1 7.1 0 0 0 3.29 2.93 7.24 7.24 0 0 0 4.41.453 7.1 7.1 0 0 0 2.409 1.742c.92.404 1.916.61 2.923.604a7.2 7.2 0 0 0 4.22-1.345 7.06 7.06 0 0 0 2.605-3.543 7.1 7.1 0 0 0 2.734-1.187 7 7 0 0 0 1.993-2.196 6.98 6.98 0 0 0-.884-8.27zm-10.61 14.71c-1.412 0-2.505-.428-3.46-1.215.043-.023.119-.064.168-.094l5.65-3.22a.91.91 0 0 0 .464-.793v-7.86l2.389 1.36a.09.09 0 0 1 .046.065v6.508c0 2.952-2.491 5.25-5.257 5.25M6.063 23.354a5.17 5.17 0 0 1-.635-3.516c.042.025.115.07.168.1l5.65 3.22a.93.93 0 0 0 .928 0l6.898-3.93v2.72a.08.08 0 0 1-.034.072l-5.711 3.255a5.39 5.39 0 0 1-4.035.522 5.31 5.31 0 0 1-3.23-2.443m-1.49-12.17a5.28 5.28 0 0 1 2.769-2.3v6.631a.9.9 0 0 0 .464.793l6.897 3.93-2.388 1.36a.09.09 0 0 1-.08.008L6.52 18.35a5.26 5.26 0 0 1-2.475-3.185 5.2 5.2 0 0 1 .528-3.98m19.624 4.506-6.898-3.93 2.388-1.36a.09.09 0 0 1 .08-.008l5.713 3.255a5.3 5.3 0 0 1 2.054 2.118 5.19 5.19 0 0 1-.488 5.608 5.3 5.3 0 0 1-2.39 1.742v-6.633a.9.9 0 0 0-.46-.792m2.377-3.533-.168-.099-5.65-3.22a.93.93 0 0 0-.928 0l-6.898 3.93v-2.722a.08.08 0 0 1 .034-.072l5.712-3.25a5.38 5.38 0 0 1 5.698.24 5.26 5.26 0 0 1 1.865 2.28c.39.92.506 1.93.335 2.913M11.632 17.01l-2.39-1.36a.08.08 0 0 1-.046-.065V9.075c0-.997.29-1.973.832-2.814a5.3 5.3 0 0 1 2.23-1.935 5.38 5.38 0 0 1 5.66.72q-.085.045-.168.093L12.1 8.36a.91.91 0 0 0-.465.793zm1.297-2.76L16 12.5l3.072 1.75v3.5L16 19.5l-3.072-1.75z"/></svg>