<svg xmlns="http://www.w3.org/2000/svg" width="289" height="47" fill="none"><mask id="a" width="290" height="49" x="0" y="-1" fill="#000" maskUnits="userSpaceOnUse"><path fill="#fff" d="M0-1h290v49H0z"/><path d="M9.281 1.188v.125q-.062.156-.094.468-.03.313-.03.563 0 .968.25 2.156.28 1.156 1.03 2.906l13.844 31.219L37.656 7.656q.47-1.155 1-2.531a7.7 7.7 0 0 0 .532-2.781q0-.376-.063-.625A2 2 0 0 0 39 1.312v-.125h6.406v.125q-.594.594-1.437 2.125T42.125 7.22l-17.906 39.75h-2.5L4.75 8.75A43 43 0 0 0 3.5 6.156a53 53 0 0 0-1.187-2.25 30 30 0 0 0-1-1.719Q.875 1.5.719 1.314v-.125zM45.5 29.094q0-3.688 1.375-6.844 1.406-3.156 3.813-5.469 2.406-2.343 5.687-3.656 3.282-1.312 7.031-1.312 3.688 0 6.938 1.25 3.28 1.218 5.687 3.5 2.437 2.28 3.844 5.53t1.406 7.282q0 3.344-1.187 6.469a16.5 16.5 0 0 1-3.469 5.5q-2.28 2.375-5.625 3.812-3.344 1.407-7.656 1.407-3.657 0-6.907-1.22-3.25-1.218-5.687-3.468-2.437-2.28-3.844-5.5-1.406-3.25-1.406-7.281m18.625 15.25q2.375 0 4.375-.938a9.8 9.8 0 0 0 3.438-2.687q1.469-1.75 2.25-4.25Q75 33.937 75 30.78q0-3.593-.781-6.656-.75-3.063-2.313-5.281-1.53-2.25-3.844-3.5-2.311-1.281-5.406-1.281-2.374 0-4.375.906a9.9 9.9 0 0 0-3.468 2.625q-1.439 1.719-2.25 4.218-.813 2.5-.813 5.688 0 3.563.781 6.656.813 3.063 2.344 5.344a11.7 11.7 0 0 0 3.875 3.563q2.313 1.28 5.375 1.28m37.937-11.219q0 2.812.063 4.906t.156 3.625q.126 1.5.281 2.532.189 1.031.407 1.687V46h-7.25v-.125q.218-.656.375-1.687.188-1.032.281-2.532.125-1.53.188-3.625.062-2.094.062-4.906v-2.156l-11.25-14.844q-1.125-1.5-2.156-2.406-1.032-.937-1.563-1.188v-.125h8.875q0 .563.406 1.75.406 1.157 1.657 2.844l7.937 10.5 8.125-10.937q.876-1.188 1.313-2.344.468-1.156.469-1.813h5.718v.125q-.781.531-1.625 1.344-.812.813-1.906 2.313L102.062 30.5zm35.876 2.313h-7.969q-1.594 0-3.031.03-1.438 0-2.626.032h-1.843l-1.157 2.438q-.75 1.5-1.281 2.624-.531 1.095-.875 1.938a11 11 0 0 0-.5 1.469q-.156.593-.156 1.125 0 .344.031.531a.7.7 0 0 0 .094.25V46h-5.5v-.125q.219-.219.687-.937.47-.75 1.063-1.813.625-1.062 1.313-2.406.718-1.344 1.406-2.782l12.75-26.312h2.344l12.5 26.313q.719 1.5 1.437 2.874.75 1.375 1.375 2.47.625 1.062 1.094 1.78.469.689.625.813V46h-8q.062-.25.062-.437v-.47q0-.687-.312-1.656a16 16 0 0 0-.719-1.968 24 24 0 0 0-.875-1.969q-.437-.938-.719-1.562zM123.688 33h4.687q1.5-.03 3-.031h2.906q1.406-.032 2.531-.032l-6.468-13.812zm60.562 9.219q0 .406-.094.687a.75.75 0 0 1-.344.469q-2.219 1.563-5.187 2.5-2.937.906-6.906.906-4.469 0-8.157-1.281-3.656-1.282-6.281-3.562a16.3 16.3 0 0 1-4.093-5.532q-1.438-3.218-1.438-7.125 0-3.344 1.312-6.5a17.1 17.1 0 0 1 3.844-5.593q2.5-2.438 6.063-3.907 3.593-1.469 8.093-1.469 2.344 0 4.438.282 2.094.25 4.031.812l2.344 5.625-.313.219a13.6 13.6 0 0 0-4.531-3.406q-2.656-1.281-6.093-1.281-2.814 0-5.188.906a11.7 11.7 0 0 0-4.094 2.656q-1.718 1.72-2.687 4.25t-.969 5.75q0 3.625.906 6.719.906 3.093 2.719 5.375a12.8 12.8 0 0 0 4.469 3.531q2.687 1.281 6.25 1.281 3.062 0 4.75-.781 1.718-.781 1.718-1.781v-1.657q0-1.624-.031-2.812a45 45 0 0 0-.093-2.031 12 12 0 0 0-.188-1.5 9 9 0 0 0-.25-1.157v-.124h6.656v.124a9 9 0 0 0-.281 1.126q-.125.656-.219 1.562-.062.907-.125 2.125-.031 1.219-.031 2.813zm7.156-29.813h6.282q3.218-.03 5.968-.062a539 539 0 0 0 4.719-.125q2-.062 2.625-.188l-1.219 3.375a25 25 0 0 0-1.906-.406 32 32 0 0 0-2.281-.281 26 26 0 0 0-3.063-.156q-.625 0-1.437.062-.813.03-1.563.094l-1.781.125v12.344q2.531-.032 4.562-.125a57 57 0 0 0 3.469-.25 32 32 0 0 0 2.969-.344l-.75 3.718a93 93 0 0 0-3.469-.375 64 64 0 0 0-3.312-.25 51 51 0 0 0-3.469-.125v14.188q2.907 0 5.344-.219a84 84 0 0 0 4.25-.531q2.125-.345 3.844-.781l-.719 4.093q-.47-.03-1.531-.093l-2.188-.063q-1.125 0-2.125-.031h-13.219v-.125q.219-.656.375-1.687.188-1.032.281-2.532.126-1.53.188-3.625.063-2.094.062-4.906V25.25q0-2.812-.062-4.875a69 69 0 0 0-.188-3.594q-.093-1.53-.281-2.562-.156-1.032-.375-1.688zM268.719 46v-.125q.062-.156.093-.469.032-.312.032-.562 0-.969-.282-2.125-.25-1.188-1-2.938l-3.781-8.5a137 137 0 0 0-4.656-.062h-11.063q-2.28 0-4.124.062l-3.594 8.25q-.47 1.157-1 2.532a7.7 7.7 0 0 0-.532 2.78q0 .407.063.688.063.25.125.344V46h-6.375v-.125q.563-.594 1.406-2.094.844-1.53 1.844-3.812L253.781.25h2.5l16.969 38.188q.594 1.343 1.219 2.624.655 1.251 1.219 2.25.562 1 1 1.688t.593.875V46zm-20.25-17.469h3.719q1.906-.03 3.718-.031 1.843-.03 3.532-.031 1.686-.032 3.062-.063l-8.781-19.843-8.625 19.968zm32.969 17.344q.187-.656.343-1.625t.281-2.406.188-3.407q.063-2 .062-4.656V13.438q0-2.657-.062-4.626a63 63 0 0 0-.188-3.437 34 34 0 0 0-.281-2.437 15 15 0 0 0-.343-1.626v-.125h7.468v.125q-.187.657-.375 1.626a34 34 0 0 0-.281 2.437q-.093 1.437-.188 3.438a151 151 0 0 0-.062 4.624v20.344q0 2.656.062 4.657.095 1.968.188 3.406.125 1.437.281 2.406.188.97.375 1.625V46h-7.468z"/></mask><path fill="#012E33" d="M9.281 1.188v.125q-.062.156-.094.468-.03.313-.03.563 0 .968.25 2.156.28 1.156 1.03 2.906l13.844 31.219L37.656 7.656q.47-1.155 1-2.531a7.7 7.7 0 0 0 .532-2.781q0-.376-.063-.625A2 2 0 0 0 39 1.312v-.125h6.406v.125q-.594.594-1.437 2.125T42.125 7.22l-17.906 39.75h-2.5L4.75 8.75A43 43 0 0 0 3.5 6.156a53 53 0 0 0-1.187-2.25 30 30 0 0 0-1-1.719Q.875 1.5.719 1.314v-.125zM45.5 29.094q0-3.688 1.375-6.844 1.406-3.156 3.813-5.469 2.406-2.343 5.687-3.656 3.282-1.312 7.031-1.312 3.688 0 6.938 1.25 3.28 1.218 5.687 3.5 2.437 2.28 3.844 5.53t1.406 7.282q0 3.344-1.187 6.469a16.5 16.5 0 0 1-3.469 5.5q-2.28 2.375-5.625 3.812-3.344 1.407-7.656 1.407-3.657 0-6.907-1.22-3.25-1.218-5.687-3.468-2.437-2.28-3.844-5.5-1.406-3.25-1.406-7.281m18.625 15.25q2.375 0 4.375-.938a9.8 9.8 0 0 0 3.438-2.687q1.469-1.75 2.25-4.25Q75 33.937 75 30.78q0-3.593-.781-6.656-.75-3.063-2.313-5.281-1.53-2.25-3.844-3.5-2.311-1.281-5.406-1.281-2.374 0-4.375.906a9.9 9.9 0 0 0-3.468 2.625q-1.439 1.719-2.25 4.218-.813 2.5-.813 5.688 0 3.563.781 6.656.813 3.063 2.344 5.344a11.7 11.7 0 0 0 3.875 3.563q2.313 1.28 5.375 1.28m37.937-11.219q0 2.812.063 4.906t.156 3.625q.126 1.5.281 2.532.189 1.031.407 1.687V46h-7.25v-.125q.218-.656.375-1.687.188-1.032.281-2.532.125-1.53.188-3.625.062-2.094.062-4.906v-2.156l-11.25-14.844q-1.125-1.5-2.156-2.406-1.032-.937-1.563-1.188v-.125h8.875q0 .563.406 1.75.406 1.157 1.657 2.844l7.937 10.5 8.125-10.937q.876-1.188 1.313-2.344.468-1.156.469-1.813h5.718v.125q-.781.531-1.625 1.344-.812.813-1.906 2.313L102.062 30.5zm35.876 2.313h-7.969q-1.594 0-3.031.03-1.438 0-2.626.032h-1.843l-1.157 2.438q-.75 1.5-1.281 2.624-.531 1.095-.875 1.938a11 11 0 0 0-.5 1.469q-.156.593-.156 1.125 0 .344.031.531a.7.7 0 0 0 .094.25V46h-5.5v-.125q.219-.219.687-.937.47-.75 1.063-1.813.625-1.062 1.313-2.406.718-1.344 1.406-2.782l12.75-26.312h2.344l12.5 26.313q.719 1.5 1.437 2.874.75 1.375 1.375 2.47.625 1.062 1.094 1.78.469.689.625.813V46h-8q.062-.25.062-.437v-.47q0-.687-.312-1.656a16 16 0 0 0-.719-1.968 24 24 0 0 0-.875-1.969q-.437-.938-.719-1.562zM123.688 33h4.687q1.5-.03 3-.031h2.906q1.406-.032 2.531-.032l-6.468-13.812zm60.562 9.219q0 .406-.094.687a.75.75 0 0 1-.344.469q-2.219 1.563-5.187 2.5-2.937.906-6.906.906-4.469 0-8.157-1.281-3.656-1.282-6.281-3.562a16.3 16.3 0 0 1-4.093-5.532q-1.438-3.218-1.438-7.125 0-3.344 1.312-6.5a17.1 17.1 0 0 1 3.844-5.593q2.5-2.438 6.063-3.907 3.593-1.469 8.093-1.469 2.344 0 4.438.282 2.094.25 4.031.812l2.344 5.625-.313.219a13.6 13.6 0 0 0-4.531-3.406q-2.656-1.281-6.093-1.281-2.814 0-5.188.906a11.7 11.7 0 0 0-4.094 2.656q-1.718 1.72-2.687 4.25t-.969 5.75q0 3.625.906 6.719.906 3.093 2.719 5.375a12.8 12.8 0 0 0 4.469 3.531q2.687 1.281 6.25 1.281 3.062 0 4.75-.781 1.718-.781 1.718-1.781v-1.657q0-1.624-.031-2.812a45 45 0 0 0-.093-2.031 12 12 0 0 0-.188-1.5 9 9 0 0 0-.25-1.157v-.124h6.656v.124a9 9 0 0 0-.281 1.126q-.125.656-.219 1.562-.062.907-.125 2.125-.031 1.219-.031 2.813zm7.156-29.813h6.282q3.218-.03 5.968-.062a539 539 0 0 0 4.719-.125q2-.062 2.625-.188l-1.219 3.375a25 25 0 0 0-1.906-.406 32 32 0 0 0-2.281-.281 26 26 0 0 0-3.063-.156q-.625 0-1.437.062-.813.03-1.563.094l-1.781.125v12.344q2.531-.032 4.562-.125a57 57 0 0 0 3.469-.25 32 32 0 0 0 2.969-.344l-.75 3.718a93 93 0 0 0-3.469-.375 64 64 0 0 0-3.312-.25 51 51 0 0 0-3.469-.125v14.188q2.907 0 5.344-.219a84 84 0 0 0 4.25-.531q2.125-.345 3.844-.781l-.719 4.093q-.47-.03-1.531-.093l-2.188-.063q-1.125 0-2.125-.031h-13.219v-.125q.219-.656.375-1.687.188-1.032.281-2.532.126-1.53.188-3.625.063-2.094.062-4.906V25.25q0-2.812-.062-4.875a69 69 0 0 0-.188-3.594q-.093-1.53-.281-2.562-.156-1.032-.375-1.688zM268.719 46v-.125q.062-.156.093-.469.032-.312.032-.562 0-.969-.282-2.125-.25-1.188-1-2.938l-3.781-8.5a137 137 0 0 0-4.656-.062h-11.063q-2.28 0-4.124.062l-3.594 8.25q-.47 1.157-1 2.532a7.7 7.7 0 0 0-.532 2.78q0 .407.063.688.063.25.125.344V46h-6.375v-.125q.563-.594 1.406-2.094.844-1.53 1.844-3.812L253.781.25h2.5l16.969 38.188q.594 1.343 1.219 2.624.655 1.251 1.219 2.25.562 1 1 1.688t.593.875V46zm-20.25-17.469h3.719q1.906-.03 3.718-.031 1.843-.03 3.532-.031 1.686-.032 3.062-.063l-8.781-19.843-8.625 19.968zm32.969 17.344q.187-.656.343-1.625t.281-2.406.188-3.407q.063-2 .062-4.656V13.438q0-2.657-.062-4.626a63 63 0 0 0-.188-3.437 34 34 0 0 0-.281-2.437 15 15 0 0 0-.343-1.626v-.125h7.468v.125q-.187.657-.375 1.626a34 34 0 0 0-.281 2.437q-.093 1.437-.188 3.438a151 151 0 0 0-.062 4.624v20.344q0 2.656.062 4.657.095 1.968.188 3.406.125 1.437.281 2.406.188.97.375 1.625V46h-7.468z"/><path fill="#012E33" d="M9.281 1.188h.3v-.3h-.3zm0 .125.279.11.021-.053v-.058zM9.406 4.5l-.293.062.002.009zm1.031 2.906-.275.118.001.004zm13.844 31.219-.274.122.278.626.272-.63zM37.656 7.656l.276.12.002-.007zm1.469-5.937-.293.065.002.008zM39 1.312h-.3v.071l.032.064zm0-.125v-.3h-.3v.3zm6.406 0h.3v-.3h-.3zm0 .125.212.213.088-.088v-.125zM42.125 7.22l.273.123.001-.001zm-17.906 39.75v.3h.194l.08-.177zm-2.5 0-.274.121.079.179h.195zM4.75 8.75l-.274.121zM3.5 6.156l-.268.134.002.006zm-1.187-2.25-.264.144.002.003zM.718 1.313h-.3v.108l.07.084zm0-.125v-.3h-.3v.3zm8.262 0v.125h.6v-.125zm.022.013a2 2 0 0 0-.114.55l.597.06c.02-.2.048-.323.074-.387zm-.114.55a6 6 0 0 0-.033.593h.6q0-.232.03-.533zm-.033.593q.001 1.006.257 2.218l.587-.124a10.3 10.3 0 0 1-.244-2.094zm.259 2.227q.291 1.192 1.047 2.953l.551-.236c-.497-1.16-.833-2.11-1.015-2.859zm1.048 2.957 13.844 31.219.548-.244L10.712 7.285zm14.394 31.216L37.932 7.775l-.551-.238-13.375 30.97zM37.934 7.769q.47-1.16 1.002-2.536l-.56-.216q-.53 1.372-.998 2.527zm1.002-2.536q.55-1.425.551-2.89h-.6q0 1.349-.51 2.674zm.551-2.89q.002-.397-.071-.697l-.582.146q.052.2.053.552zm-.07-.69a2.2 2.2 0 0 0-.149-.475l-.536.269c.024.048.06.154.1.337zm-.117-.34v-.125h-.6v.125zm-.3.175h6.406v-.6H39zm6.106-.3v.125h.6v-.125zm.088-.088c-.427.428-.923 1.168-1.488 2.193l.525.29c.56-1.018 1.023-1.694 1.387-2.058zm-1.488 2.193q-.852 1.546-1.855 3.804l.548.244q.997-2.243 1.832-3.759zm-1.855 3.803-17.906 39.75.547.246 17.906-39.75zM24.22 46.669h-2.5v.6h2.5zm-2.226.178L5.024 8.628l-.548.244L21.445 47.09zM5.024 8.629a43 43 0 0 0-1.258-2.612l-.532.279A42 42 0 0 1 4.476 8.87zM3.768 6.022A53 53 0 0 0 2.574 3.76l-.523.294q.559.993 1.18 2.237zm-1.192-2.26a31 31 0 0 0-1.01-1.736l-.507.323q.43.675.99 1.7zm-1.01-1.736c-.29-.454-.498-.763-.617-.906l-.46.385c.089.107.276.381.57.844zm-.547-.713v-.125h-.6v.125zm-.3.175H9.28v-.6H.72zM46.875 22.25l-.274-.122-.001.002zm3.813-5.469.207.217.002-.002zm19.656-3.718-.108.28h.003zm5.687 3.5-.206.217.001.002zm4.063 19.28.28.108zm-3.469 5.5.216.209.002-.002zM71 45.157l.116.277.002-.001zm-20.25-3.281-.205.219.002.001zm-3.844-5.5-.275.12zm25.032 4.344-.23-.193-.002.002zm2.25-4.25-.286-.092v.002zm.03-12.344-.29.071v.003zm-2.312-5.281-.248.169.003.003zm-3.844-3.5-.145.262.003.002zm-13.25 2.25-.228-.195-.002.002zm-2.28 16.562-.292.074.001.003zm2.343 5.344-.25.167.004.004zm3.875 3.563-.148.26.003.002zM45.8 29.093q0-3.63 1.35-6.723l-.55-.24q-1.4 3.218-1.4 6.964zm1.349-6.72q1.383-3.106 3.746-5.375l-.415-.433q-2.45 2.355-3.879 5.563zm3.748-5.377q2.36-2.3 5.59-3.592l-.223-.557q-3.335 1.332-5.786 3.72zm5.59-3.592q3.224-1.29 6.92-1.291v-.6q-3.806-.001-7.143 1.334zm6.92-1.291q3.634 0 6.83 1.23l.214-.56q-3.305-1.271-7.045-1.27zm6.832 1.23q3.227 1.2 5.586 3.437l.413-.435q-2.454-2.325-5.79-3.564zm5.587 3.439q2.39 2.235 3.774 5.43l.55-.237q-1.429-3.304-3.914-5.632zm3.774 5.43q1.38 3.185 1.381 7.163h.6q.001-4.085-1.43-7.4zm1.381 7.163q0 3.289-1.168 6.362l.561.213a18.4 18.4 0 0 0 1.207-6.575zm-1.167 6.361a16.2 16.2 0 0 1-3.407 5.401l.436.413a16.8 16.8 0 0 0 3.53-5.599zm-3.405 5.4q-2.234 2.327-5.528 3.745l.237.55q3.395-1.457 5.723-3.88zm-5.525 3.744q-3.278 1.382-7.54 1.383v.6q4.362.001 7.772-1.43zm-7.54 1.383q-3.605 0-6.801-1.2l-.21.562q3.303 1.237 7.01 1.237zm-6.801-1.2q-3.197-1.2-5.59-3.408l-.407.44q2.483 2.291 5.786 3.53zm-5.588-3.407q-2.391-2.236-3.774-5.401l-.55.24q1.43 3.273 3.914 5.599zm-3.773-5.4Q45.8 33.07 45.8 29.094h-.6q-.001 4.085 1.43 7.4zm16.943 8.388q2.437 0 4.502-.966l-.254-.543q-1.934.908-4.248.909zm4.502-.966a10.1 10.1 0 0 0 3.542-2.769l-.463-.38a9.5 9.5 0 0 1-3.333 2.606zm3.54-2.766q1.511-1.804 2.307-4.354l-.573-.179q-.766 2.45-2.193 4.147zm2.306-4.352q.828-2.584.827-5.779h-.6q-.001 3.117-.798 5.596zm.827-5.779q0-3.626-.79-6.73l-.582.148q.772 3.021.772 6.582zm-.79-6.727q-.76-3.11-2.359-5.383l-.49.346c1.017 1.444 1.774 3.168 2.266 5.18zm-2.356-5.379q-1.57-2.308-3.949-3.595l-.285.528q2.246 1.214 3.738 3.404zm-3.946-3.594c-1.593-.882-3.447-1.319-5.552-1.319v.6c2.02 0 3.771.418 5.261 1.244zm-5.552-1.319q-2.434 0-4.499.933l.248.547q1.936-.879 4.251-.88zm-4.499.933a10.2 10.2 0 0 0-3.573 2.704l.457.39a9.6 9.6 0 0 1 3.364-2.547zm-3.575 2.706q-1.478 1.772-2.305 4.319l.57.185q.8-2.453 2.196-4.119zm-2.305 4.319q-.828 2.554-.827 5.78h.6q.002-3.15.798-5.595zm-.827 5.78q0 3.595.79 6.73l.582-.147q-.771-3.054-.772-6.583zm.791 6.733q.824 3.105 2.385 5.434l.498-.334q-1.5-2.234-2.303-5.254zm2.388 5.438a12 12 0 0 0 3.973 3.652l.296-.521a11.4 11.4 0 0 1-3.777-3.473zm3.976 3.654c1.592.882 3.436 1.319 5.52 1.319v-.6c-1.999 0-3.739-.418-5.23-1.244zm43.676-1.669-.299.019v.006zm.281 2.532-.296.044.001.01zm.407 1.687h.3v-.049l-.016-.046zm0 .125v.3h.3V46zm-7.25 0h-.3v.3h.3zm0-.125-.285-.095-.015.046v.049zm.375-1.687-.295-.054-.002.009zm.281-2.532-.3-.024v.006zm.25-10.687h.3v-.101l-.06-.08zm-11.25-14.844-.24.18v.001zm-2.156-2.406-.202.222.004.003zm-1.563-1.188h-.3v.19l.172.082zm0-.125v-.3h-.3v.3zm8.875 0h.3v-.3h-.3zm.406 1.75-.283.097v.003zM92.595 17l-.241.179.001.002zm7.937 10.5-.239.18.241.32.239-.321zm8.125-10.937.241.178h.001zm1.313-2.344-.278-.113-.003.007zm.469-1.813v-.3h-.301v.3zm5.718 0h.3v-.3h-.3zm0 .125.169.248.131-.089v-.159zm-1.625 1.344-.208-.216-.004.004zm-1.906 2.313.241.178.001-.002zM102.062 30.5l-.241-.178-.059.08v.098zm-.3 2.625q0 2.816.063 4.915l.6-.018a165 165 0 0 1-.062-4.897zm.063 4.915q.063 2.097.157 3.635l.599-.037a114 114 0 0 1-.156-3.616zm.157 3.641q.125 1.506.284 2.551l.593-.09a38 38 0 0 1-.279-2.51zm.285 2.56q.19 1.044.417 1.729l.569-.19a12 12 0 0 1-.395-1.646zm.402 1.634V46h.6v-.125zm.3-.175h-7.25v.6h7.25zm-6.95.3v-.125h-.6V46zm-.016-.03q.23-.69.387-1.738l-.593-.09q-.154 1.017-.363 1.638zm.386-1.729q.192-1.055.285-2.566l-.598-.037q-.093 1.488-.277 2.496zm.285-2.56q.126-1.542.188-3.64l-.6-.019a71 71 0 0 1-.186 3.61zm.188-3.64q.063-2.1.063-4.916h-.6q0 2.81-.062 4.897zm.063-4.916v-2.156h-.6v2.156zm-.06-2.337-11.25-14.844-.48.362 11.25 14.844zm-11.25-14.843q-1.136-1.518-2.198-2.452l-.396.451q1 .879 2.114 2.361zm-2.194-2.448c-.688-.625-1.238-1.05-1.637-1.237l-.256.543c.31.145.802.513 1.489 1.138zm-1.465-.966v-.125h-.6v.125zm-.3.175h8.875v-.6h-8.875zm8.575-.3c0 .43.151 1.053.423 1.847l.567-.194c-.27-.79-.39-1.332-.39-1.653zm.424 1.85c.285.812.857 1.788 1.698 2.923l.482-.358c-.826-1.115-1.358-2.035-1.614-2.764zm1.7 2.925 7.937 10.5.479-.362-7.938-10.5zm8.417 10.498 8.125-10.938-.482-.357-8.125 10.937zm8.126-10.938q.895-1.215 1.351-2.416l-.561-.212q-.419 1.11-1.273 2.271zm1.349-2.41c.316-.78.491-1.428.491-1.925h-.601c0 .378-.138.939-.446 1.7zm.191-1.625h5.718v-.6h-5.718zm5.418-.3v.125h.6v-.125zm.132-.123a13 13 0 0 0-1.665 1.376l.416.432q.83-.798 1.586-1.312zm-1.669 1.38q-.836.837-1.936 2.348l.484.353c.725-.994 1.35-1.75 1.876-2.277zm-1.935 2.346-10.563 14.313.483.356 10.562-14.312zM101.762 30.5v2.625h.601V30.5zm36.176 4.938.269-.132-.082-.168h-.187zm-11 .03v.3h.006zm-2.626.032v.3h.008zm-1.843 0v-.3h-.19l-.081.171zm-1.157 2.438.269.134.003-.006zm-1.281 2.624.27.132.002-.003zm-1.375 3.407.29.076.001-.004zm-.125 1.656-.296.05.002.009zm.094.25h.3v-.09l-.05-.076zm0 .125v.3h.3V46zm-5.5 0h-.3v.3h.3zm0-.125-.212-.212-.088.088v.124zm.687-.937.252.163.003-.005zm1.063-1.813-.259-.152-.003.006zm1.313-2.406-.265-.142-.003.005zm1.406-2.782-.27-.13-.001.001zm12.75-26.312v-.3h-.188l-.082.17zm2.344 0 .27-.129-.081-.171h-.189zm12.5 26.313-.271.128v.001zm1.437 2.874-.266.14.003.004zm1.375 2.47-.26.148.001.003zm1.094 1.78-.252.164.004.005zm.625.813h.3v-.144l-.113-.09zm0 .125v.3h.3V46zm-8 0-.291-.073-.093.373h.384zm-.25-2.562-.288.083.002.009zm-.719-1.97-.279.11.004.011zm-.875-1.968-.272.127.004.007zm-.719-1.562.274-.124-.004-.008zM123.688 33l-.271-.13-.206.43h.477zm4.687 0v.3h.006zm5.906-.031v.3h.007zm2.531-.032v.3h.472l-.2-.427zm-6.468-13.812.271-.127-.268-.573-.274.57zm7.594 16.013h-2.126v.6h2.126zm-2.126 0h-2.75v.6h2.75zm-2.75 0h-3.093v.6h3.093zm-3.093 0q-1.597 0-3.038.03l.013.6q1.434-.03 3.025-.03zm-3.031.03q-1.442 0-2.633.032l.015.6q1.183-.03 2.618-.031zm-2.626.032h-1.843v.6h1.843zm-2.114.171-1.157 2.438.543.257 1.156-2.437zm-1.154 2.432a129 129 0 0 0-1.284 2.631l.543.257q.529-1.121 1.278-2.62zm-1.283 2.628a34 34 0 0 0-.883 1.956l.556.226q.339-.832.867-1.92zm-.883 1.956q-.349.856-.513 1.509l.582.145q.149-.596.487-1.428zm-.512 1.505q-.165.626-.166 1.202h.6q0-.487.146-1.049zm-.166 1.202q-.001.353.035.58l.592-.098a3 3 0 0 1-.027-.482zm.037.59c.026.128.068.252.138.357l.5-.332a.4.4 0 0 1-.05-.143zm.088.191V46h.6v-.125zm.3-.175h-5.5v.6h5.5zm-5.2.3v-.125h-.6V46zm-.088.087c.171-.171.416-.51.727-.986l-.503-.327c-.314.482-.528.768-.648.889zm.73-.99a45 45 0 0 0 1.07-1.826l-.524-.292a43 43 0 0 1-1.055 1.8zm1.067-1.82q.63-1.071 1.321-2.422l-.535-.273q-.683 1.338-1.304 2.39zm1.318-2.417q.722-1.35 1.412-2.793l-.541-.259a68 68 0 0 1-1.4 2.77zm1.412-2.792 12.75-26.312-.54-.262-12.75 26.313zm12.48-26.143h2.344v-.6h-2.344zm2.073-.171 12.5 26.312.541-.257-12.5-26.313zm12.5 26.313a93 93 0 0 0 1.442 2.885l.532-.279a91 91 0 0 1-1.433-2.865zm1.445 2.89q.75 1.376 1.378 2.473l.52-.298q-.622-1.09-1.372-2.463zm1.379 2.476q.629 1.068 1.101 1.793l.503-.327a46 46 0 0 1-1.086-1.77zm1.105 1.798q.236.349.401.561c.103.134.2.25.284.317l.375-.468a1.6 1.6 0 0 1-.184-.215 12 12 0 0 1-.38-.532zm.573.644V46h.6v-.125zm.3-.175h-8v.6h8zm-7.709.373q.07-.275.071-.51h-.6q.001.139-.053.364zm.071-.51v-.469h-.6v.469zm0-.47c0-.5-.113-1.085-.327-1.748l-.571.185c.203.629.298 1.148.298 1.564zm-.324-1.74a17 17 0 0 0-.732-2.005l-.55.241q.43.984.706 1.932zm-.728-1.994a25 25 0 0 0-.886-1.993l-.536.268q.462.925.864 1.945zm-.882-1.986q-.436-.936-.717-1.559l-.547.247q.282.627.72 1.566zm-.721-1.567-1.219-2.5-.539.263 1.219 2.5zM123.688 33.3h1.906v-.6h-1.906zm1.906 0h2.781v-.6h-2.781zm2.787 0q1.497-.03 2.994-.031v-.6q-1.503 0-3.006.031zm2.994-.031h2.906v-.6h-2.906zm2.913 0q1.404-.032 2.524-.032v-.6q-1.128 0-2.537.032zm2.796-.459-6.469-13.812-.543.254 6.469 13.813zm-7.011-13.815-6.656 13.875.541.26 6.656-13.875zm54.083 23.911-.284-.095-.005.015-.004.015zm-.344.469-.166-.25-.006.005zm-5.187 2.5.088.287h.002zm-15.063-.375-.099.283h.001zm-6.281-3.562-.198.225h.001zm-4.093-5.532-.274.123.001.002zm-.126-13.625-.276-.117-.001.002zm9.907-9.5-.114-.277h-.001zm12.531-1.187-.04.297h.004zm4.031.812.277-.115-.055-.133-.138-.04zm2.344 5.625.172.246.198-.138-.093-.223zm-.313.219-.226.197.177.204.222-.155zm-4.531-3.406-.13.27.003.001zm-11.281-.375-.107-.28h-.001zm-4.094 2.656.212.212zm-.031 22.094-.235.186.001.002zm4.469 3.531-.131.27h.002zm11 .5-.124-.273h-.002zm1.594-8.281-.3.021zm-.188-1.5-.297.044.001.007.002.008zm-.25-1.157h-.3v.044l.012.041zm0-.124v-.3h-.3v.3zm6.656 0h.3v-.3h-.3zm0 .124.285.095.015-.046v-.048zm-.5 2.688-.298-.03-.001.01zm-.125 2.125-.299-.015-.001.007zm-.331 4.594c0 .25-.029.444-.078.592l.569.19c.076-.227.109-.49.109-.782zm-.087.622c-.022.1-.082.194-.217.284l.333.5c.24-.16.409-.378.47-.654zm-.223.289q-2.175 1.532-5.105 2.459l.18.572q3.008-.949 5.27-2.54zm-5.103 2.458q-2.883.891-6.818.893v.6q4.002.002 6.994-.92zm-6.818.893q-4.426-.001-8.058-1.264l-.197.566q3.742 1.3 8.255 1.298zm-8.057-1.264q-3.608-1.265-6.184-3.506l-.394.453q2.674 2.322 6.379 3.62zm-6.182-3.505a16 16 0 0 1-4.02-5.43l-.545.249a16.6 16.6 0 0 0 4.168 5.632zm-4.019-5.428q-1.41-3.154-1.411-7.003h-.6q-.002 3.965 1.464 7.248zm-1.411-7.003q0-3.282 1.29-6.385l-.555-.23a17.1 17.1 0 0 0-1.335 6.615zm1.289-6.382a16.8 16.8 0 0 1 3.777-5.497l-.419-.43a17.4 17.4 0 0 0-3.911 5.692zm3.777-5.497q2.453-2.393 5.967-3.843l-.229-.555q-3.61 1.487-6.157 3.969zm5.966-3.843q3.531-1.444 7.98-1.446v-.6q-4.55-.001-8.207 1.49zm7.98-1.446q2.326 0 4.398.278l.08-.595a34 34 0 0 0-4.478-.284zm4.402.279q2.07.247 3.984.802l.167-.576a25.4 25.4 0 0 0-4.079-.822zm3.79.63 2.344 5.625.554-.231-2.344-5.625zm2.449 5.263-.313.22.345.49.312-.218zm.086.268a13.9 13.9 0 0 0-4.63-3.48l-.255.542a13.3 13.3 0 0 1 4.432 3.332zm-4.627-3.48q-2.729-1.312-6.224-1.31v.6c2.253 0 4.239.42 5.963 1.251zm-6.224-1.31q-2.863-.001-5.295.925l.214.561q2.318-.885 5.081-.886zm-5.296.926a12 12 0 0 0-4.198 2.724l.424.424q1.705-1.705 3.99-2.588zm-4.198 2.724q-1.767 1.77-2.755 4.355l.56.214q.95-2.477 2.619-4.145zm-2.755 4.355c-.662 1.727-.989 3.681-.989 5.857h.6q.001-3.172.949-5.643zm-.989 5.857q0 3.663.918 6.803l.576-.169q-.893-3.047-.894-6.634zm.918 6.803q.92 3.145 2.772 5.477l.47-.373q-1.773-2.23-2.666-5.273zm2.773 5.479a13.1 13.1 0 0 0 4.572 3.613l.261-.54a12.5 12.5 0 0 1-4.365-3.45zm4.574 3.614c1.839.877 3.968 1.31 6.379 1.31v-.6q-3.507-.002-6.121-1.252zm6.379 1.31c2.06 0 3.694-.262 4.876-.809l-.252-.544c-1.068.494-2.601.753-4.624.753zm4.874-.808c1.156-.525 1.895-1.192 1.895-2.054h-.601c0 .47-.407.992-1.542 1.508zm1.895-2.054v-1.657h-.601v1.657zm0-1.657q0-1.627-.032-2.82l-.6.016q.031 1.182.031 2.804zm-.032-2.82a44 44 0 0 0-.094-2.045l-.599.044q.063.834.093 2.017zm-.094-2.045a13 13 0 0 0-.193-1.537l-.588.118q.12.6.182 1.462zm-.19-1.523a9 9 0 0 0-.259-1.196l-.576.17q.15.507.241 1.115zm-.247-1.111v-.126h-.6v.126zm-.3.174h6.656v-.6h-6.656zm6.356-.3v.126h.6v-.126zm.016.03q-.165.495-.292 1.164l.59.113q.122-.642.271-1.087zm-.292 1.164a19 19 0 0 0-.222 1.588l.597.062q.093-.898.215-1.537zm-.223 1.598q-.063.91-.125 2.13l.599.031q.062-1.215.125-2.12zm-.126 2.138q-.031 1.224-.031 2.82h.6q0-1.59.031-2.804zm-.031 2.82v1.782h.6v-1.782zm7.456-28.03v-.3h-.3v.3zm6.282 0v.3h.002zm5.968-.063.004.3h.003zm4.719-.125-.009-.3h-.001zM211 12.03l.282.102.181-.5-.522.104zm-1.219 3.375-.075.29.265.07.092-.258zM207.875 15l.052-.295h-.003zm-2.281-.281-.036.298h.008zm-4.5-.094.011.3h.012zm-1.563.094.022.299h.003zm-1.781.125-.021-.3-.279.02v.28zm0 12.344h-.3v.303l.304-.003zm8.031-.375-.022-.3-.01.001zm2.969-.344.294.06.087-.43-.431.074zm-.75 3.718-.038.298.277.035.055-.273zm-3.469-.375-.031.299h.005zm-3.312-.25-.021.3h.005zm-3.469-.125v-.3h-.3v.3zm0 14.188h-.3v.3h.3zm5.344-.219.027.3.003-.001zm4.25-.531.046.297h.002zm3.844-.781.295.052.08-.458-.45.115zm-.719 4.093-.02.3.269.018.046-.266zm-1.531-.093.017-.3h-.008zm-2.188-.063.008-.3h-.008zM204.625 46l.009-.3h-.009zm-13.219 0h-.3v.3h.3zm0-.125-.284-.095-.016.046v.049zm.375-1.687-.295-.054-.001.009zm.281-2.532-.299-.024v.006zm.188-21.281-.3.009zm-.188-3.594-.299.019.001.006zm-.281-2.562-.296.045.001.008zm-.375-1.688h-.3v.049l.016.046zm0 .175h6.282v-.6h-6.282zm6.284 0q3.219-.03 5.97-.062l-.007-.6q-2.75.03-5.968.062zm5.973-.062q2.751-.063 4.722-.125l-.02-.6q-1.966.062-4.716.125zm4.721-.125c1.329-.042 2.229-.104 2.675-.194l-.118-.588c-.388.078-1.237.14-2.575.182zm2.334-.59-1.219 3.375.564.204 1.219-3.375zm-.861 3.187a25 25 0 0 0-1.93-.411l-.104.59q1.053.186 1.883.402zm-1.933-.412a33 33 0 0 0-2.302-.284l-.056.598q1.336.123 2.26.278zm-2.295-.283a27 27 0 0 0-3.098-.159v.6q1.738 0 3.027.155zm-3.098-.159q-.64 0-1.46.064l.046.598a19 19 0 0 1 1.414-.061zm-1.449.063q-.819.032-1.576.095l.05.598a35 35 0 0 1 1.549-.093zm-1.572.095q-.875.062-1.781.124l.042.599q.906-.062 1.782-.125zm-2.06.424v12.344h.6V14.844zm.304 12.644q2.535-.031 4.572-.126l-.027-.6q-2.025.095-4.553.125zm4.572-.126a58 58 0 0 0 3.488-.251l-.065-.597q-1.425.156-3.45.249zm3.477-.25q1.699-.126 2.997-.347l-.1-.592q-1.264.216-2.941.34zm2.653-.703-.75 3.72.588.118.75-3.719zm-.418 3.48a94 94 0 0 0-3.48-.375l-.053.597q1.744.156 3.457.374zm-3.476-.375a64 64 0 0 0-3.328-.251l-.031.6a64 64 0 0 1 3.297.248zm-3.323-.25a51 51 0 0 0-3.489-.127v.6q1.645 0 3.448.125zm-3.789.174v14.187h.6V29.438zm.3 14.487q2.917 0 5.371-.22l-.054-.597a60 60 0 0 1-5.317.217zm5.374-.22a84 84 0 0 0 4.266-.533l-.092-.593a84 84 0 0 1-4.235.529zm4.268-.534a45 45 0 0 0 3.87-.786l-.149-.582q-1.702.434-3.817.776zm3.5-1.13-.719 4.095.591.103.719-4.093zm-.403 3.847a212 212 0 0 0-1.534-.094l-.035.6q1.062.06 1.529.093zm-1.542-.094q-1.032-.032-2.189-.063l-.016.6q1.155.032 2.186.063zm-2.197-.063q-1.12 0-2.116-.03l-.018.599q1.005.03 2.134.031zm-2.125-.031h-1.375v.6h1.375zm-1.375 0h-11.844v.6h11.844zm-11.544.3v-.125h-.6V46zm-.015-.03q.229-.69.387-1.738l-.593-.09q-.155 1.017-.363 1.638zm.385-1.729q.192-1.055.286-2.566l-.599-.037a22 22 0 0 1-.277 2.496zm.286-2.56q.125-1.542.188-3.64l-.6-.019a70 70 0 0 1-.187 3.61zm.188-3.64q.063-2.1.063-4.916h-.601q0 2.81-.062 4.897zm.063-4.916V25.25h-.601v7.875zm0-7.875q0-2.815-.063-4.884l-.6.018q.063 2.056.062 4.866zm-.063-4.884a69 69 0 0 0-.189-3.61l-.597.05q.124 1.49.186 3.578zm-.188-3.603q-.094-1.543-.286-2.598l-.59.107q.184 1.007.277 2.528zm-.284-2.59q-.158-1.045-.387-1.737l-.569.19q.208.622.363 1.638zm-.372-1.642v-.125h-.6v.125zM268.719 46h-.3v.3h.3zm0-.125-.279-.111-.021.053v.058zm-.157-3.156-.293.062.002.009zm-1-2.938.276-.118-.001-.004zm-3.781-8.5.274-.122-.076-.17-.187-.008zm-19.843 0-.011-.3-.189.007-.076.173zm-3.594 8.25-.275-.12-.003.008zm-1.469 6-.293.065.002.008zm.125.344h.3v-.09l-.05-.076zm0 .125v.3h.3V46zm-6.375 0h-.3v.3h.3zm0-.125-.218-.206-.082.087v.119zm1.406-2.094.262.147.001-.002zm1.844-3.812-.274-.124-.001.003zM253.781.25v-.3h-.194l-.079.177zm2.5 0 .274-.122-.079-.178h-.195zm16.969 38.188.274-.122zm1.219 2.624-.27.132.004.008zm2.812 4.813h.3v-.109l-.069-.083zm0 .125v.3h.3V46zm-25.093-17.469v.3h.004zm3.718-.031v.3h.005zm3.532-.031v.3h.005zm3.062-.063.007.3.449-.01-.182-.411zm-8.781-19.843.274-.122-.278-.627-.272.63zm-8.625 19.968-.276-.119-.181.42h.457zM269.019 46v-.125h-.6V46zm-.022-.014a2 2 0 0 0 .114-.55l-.597-.06c-.02.2-.048.323-.074.388zm.114-.55q.033-.324.033-.592h-.6q0 .231-.03.532zm.033-.592q-.001-1.012-.29-2.196l-.583.142q.274 1.128.273 2.054zm-.288-2.187c-.172-.819-.514-1.818-1.018-2.994l-.551.236q.742 1.736.982 2.882zm-1.019-2.998-3.782-8.5-.548.244 3.781 8.5zm-4.045-8.678a137 137 0 0 0-4.667-.062v.6q2.904 0 4.646.062zm-4.667-.062h-6.281v.6h6.281zm-6.281 0h-4.782v.6h4.782zm-4.782 0q-2.284 0-4.135.062l.021.6q1.837-.062 4.114-.062zm-4.4.242-3.593 8.25.55.24 3.594-8.25zm-3.596 8.258q-.47 1.158-1.002 2.535l.56.217q.53-1.374.998-2.527zm-1.002 2.535a8 8 0 0 0-.552 2.89h.601q-.001-1.348.511-2.673zm-.552 2.89q-.001.428.07.752l.586-.13a3 3 0 0 1-.055-.622zm.072.76c.042.168.093.328.166.437l.5-.332-.003-.005-.007-.013-.021-.051a2 2 0 0 1-.053-.181zm.116.271V46h.6v-.125zm.3-.175h-6.375v.6H239zm-6.075.3v-.125h-.6V46zm-.082.081c.402-.424.885-1.15 1.45-2.153l-.523-.294c-.561.997-1.015 1.667-1.363 2.035zm1.451-2.155q.852-1.547 1.856-3.837l-.55-.24q-.996 2.272-1.832 3.788zm1.854-3.834L254.055.373l-.547-.246-17.906 39.719zM253.781.55h2.5v-.6h-2.5zm2.226-.178 16.969 38.187.548-.243L256.555.128zm16.969 38.187q.596 1.348 1.223 2.635l.539-.263a78 78 0 0 1-1.214-2.615zm1.227 2.643q.658 1.253 1.223 2.258l.523-.295a91 91 0 0 1-1.215-2.242zm1.223 2.258q.565 1.005 1.008 1.701l.507-.322a36 36 0 0 1-.992-1.674zm1.008 1.701c.29.454.498.764.617.906l.461-.384c-.09-.108-.277-.382-.571-.844zm.547.714V46h.6v-.125zm.3-.175h-8.562v.6h8.562zm-28.812-16.869h3.719v-.6h-3.719zm3.723 0q1.905-.03 3.714-.031v-.6q-1.815 0-3.723.031zm3.719-.031q1.842-.03 3.527-.031v-.6q-1.69 0-3.537.031zm3.532-.031q1.688-.031 3.064-.063l-.014-.6q-1.374.031-3.061.063zm3.331-.484L253.993 8.44l-.549.243 8.782 19.844zm-9.331-19.841-8.625 19.968.551.238 8.625-19.969zm-8.349 20.387h3.375v-.6h-3.375zm36.344 17.044-.289-.082-.012.04v.042zm.812-7.437.3.009zm0-29.626-.3.01zm-.188-3.437-.298.025v.001zm-.624-4.062h-.301v.042l.012.04zm0-.125v-.3h-.301v.3zm7.468 0h.3v-.3h-.3zm0 .125.289.082.011-.04v-.042zm-.375 1.625-.294-.058-.002.01zm-.281 2.437-.299-.025v.005zm-.188 3.438-.299-.015v.005zm0 29.624-.299.01v.005zm.188 3.407-.299.02v.006zm.281 2.406-.296.048.002.009zm.375 1.625h.3v-.042l-.011-.04zm0 .125v.3h.3V46zm-7.468 0h-.301v.3h.301zm.288-.043a15 15 0 0 0 .351-1.66l-.592-.095a14 14 0 0 1-.336 1.59zm.351-1.66q.16-.983.284-2.427l-.597-.052a34 34 0 0 1-.279 2.384zm.284-2.427q.126-1.449.189-3.423l-.6-.019a63 63 0 0 1-.186 3.39zm.189-3.423q.063-2.006.063-4.666h-.601q0 2.653-.062 4.647zm.063-4.666V13.438h-.601V33.78zm0-20.343q0-2.66-.063-4.635l-.6.019q.063 1.963.062 4.616zm-.063-4.635a64 64 0 0 0-.189-3.454l-.597.052q.124 1.426.186 3.42zm-.189-3.453a34 34 0 0 0-.284-2.46l-.592.095q.155.953.279 2.415zm-.284-2.46a15 15 0 0 0-.351-1.66l-.577.165q.181.633.336 1.59zm-.339-1.578v-.125h-.601v.125zm-.3.176h7.468v-.6h-7.468zm7.168-.3v.125h.6v-.125zm.012.042q-.192.674-.381 1.65l.589.115q.186-.961.369-1.6zm-.383 1.66q-.159.984-.284 2.46l.598.05q.125-1.462.278-2.415zm-.284 2.465q-.095 1.442-.188 3.443l.599.029q.094-2 .187-3.432zm-.188 3.448a148 148 0 0 0-.063 4.634h.6q0-2.652.062-4.615zm-.063 4.634v20.344h.6V13.438zm0 20.344q0 2.66.063 4.666l.599-.019a153 153 0 0 1-.062-4.647zm.063 4.67q.093 1.971.188 3.412l.598-.039a208 208 0 0 1-.187-3.4zm.188 3.419q.125 1.444.284 2.428l.592-.096a34 34 0 0 1-.278-2.384zm.286 2.437a20 20 0 0 0 .381 1.65l.577-.164a19 19 0 0 1-.369-1.6zm.369 1.568V46h.6v-.125zm.3-.175h-7.468v.6h7.468zm-7.168.3v-.125h-.601V46z" mask="url(#a)"/></svg>