<svg width="80" height="108" fill="none" xmlns="http://www.w3.org/2000/svg"><g clip-path="url(#avc_banner_background__a)"><mask id="avc_banner_background__b" style="mask-type:alpha" maskUnits="userSpaceOnUse" x="0" y="0" width="80" height="108"><path d="M80 0H0v108h80V0Z" fill="#C4C4C4"/></mask><g mask="url(#avc_banner_background__b)"><path d="M64.607 22.41c-.166.172-.166.345-.166.518v.173c.331-.288.718-.52 1.049-.807-.331 0-.718-.115-.883.116Zm14.29-8.411c-.055-.115-.165-.173-.22-.23-.607-.346-1.214 0-1.214.69 0 .346.055.692.11 1.037.552-.23 1.104-.46 1.655-.633a2.787 2.787 0 0 0-.331-.864Zm-6.953 3.856c-.33.116-.772.116-.772.634v.115c.33-.172.607-.345.938-.518a.795.795 0 0 1-.166-.23v-.001Zm-29.02 20.508c-.11.173-.055.403-.055.518.331.346.662.346.773.115.11-.23.11-.518.055-.748-.166-.23-.662-.173-.773.115Zm.772 9.444c-.221.23-.276.749-.055.979.22.23.606.23.827-.058.22-.288.276-.69.055-.864-.165-.288-.552-.288-.827-.057Zm1.822-4.55c.166-.23.22-.46.055-.69-.441-.52-.938-.98-1.655-1.21-.11-.057-.276 0-.331 0-.662.173-.883.865-.441 1.383.276.346.606.576.993.806.386.346 1.102.116 1.379-.288Zm18.923-25.226c.166-.115-.055-.403-.11-.403-.11-.058-.276-.115-.386.058-.11.172-.056.288 0 .345.165.058.33.173.496 0ZM42.372 56.91c.166.116.387.058.552.116.22-.346.166-.692-.055-.922-.22-.173-.386-.058-.552.115-.165.23-.165.576.055.69Zm-.992-7.72c-.166.288-.497.576-.166.98.22.23.497.345.772.115a.696.696 0 0 0 .276-.52c0-.344-.275-.46-.882-.575Zm3.697-2.878c-.055-.346-.552-.691-.938-.346-.165.116-.276.46-.276.692 0 .172.276.403.442.46.441.116.827-.403.772-.806Zm8.109-11.921c-.055.172-.055.287 0 .403.22-.288.386-.576.607-.807-.331 0-.552.173-.607.404Zm-10.097 17.85c.276.289.662.346.883.058.22-.288.33-1.037.11-1.267-.331-.346-.828-.288-1.214.058-.276.288-.164.748.221 1.152Zm10.263-19.87a.574.574 0 0 0 0-.806c-.22-.23-.607-.288-.828 0-.22.23-.22.69.056.922.22.115.551.115.772-.115ZM56 30.588c-.276-.23-.497-.116-.718.115-.22.288-.22.69 0 .864.056.057.11.057.221.115.22-.288.442-.518.662-.806 0-.058-.055-.173-.165-.288Zm-4.304 3.745c.497-.461.221-1.095.055-1.383-.165-.345-.938-.172-1.213.346-.166.288-.11.576.11.806.22.346.772.462 1.048.23Zm-3.198 7.89c.331-.404.276-1.268-.11-1.498-.276-.23-.828-.058-1.048.23-.332.404-.332.864.11 1.21.386.288.827.346 1.048.058Zm9.822-16.187c-.221.173-.332.807-.166 1.037.11.23.662.288.938.058.22-.173.276-.46.055-.691-.331-.404-.661-.576-.827-.404Zm2.755-4.607c.276-.288.276-.634.056-.864-.221-.288-1.104-.288-1.324-.058-.332.346-.276.749.165 1.152.386.288.773.23 1.103-.23Zm2.813-4.72c.056.059.166.059.331 0 0 .116-.055.23-.055.289.055.518.828 1.267 1.324 1.21.331 0 .662-.288.828-.692 0 .116.055.23.11.346-.165.403-.33.749-.441 1.094-.11.346.276.692.552.519.33-.23.827-.346.993-.864-.055-.173-.166-.403-.22-.576.275-.52.33-1.037.054-1.267-.22-.173-.441-.173-.662 0a.44.44 0 0 0-.22.23v-.115c-.056-.576-.718-1.152-1.214-1.095-.11 0-.166.058-.276.058-.11-.288-.773-.46-1.048-.23-.276.345-.332.864-.056 1.094ZM61.13 24.83c.276.23.773.173.994-.058.276-.288.276-1.267.055-1.44-.331-.23-.938-.115-1.27.288-.33.403-.275.807.221 1.21Zm2.208-.868c-.055-.058-.166-.23-.22-.173-.111 0-.221.23-.221.345 0 .058 0 .116.055.173.11-.115.22-.23.386-.345Zm4.854-11.578c.11-.057.11-.403 0-.46-.055-.116-.331-.116-.441-.058-.11.058-.221.403-.166.518.11.173.552.058.607 0Zm3.035 2.713c.662-.058 1.104-.576 1.049-1.268-.056-.576-.442-.98-.883-.921-.607.057-1.27.749-1.214 1.267.055.576.497.98 1.048.922ZM56 27.072c.442-.46.442-1.037-.055-1.555a.989.989 0 0 0-1.379-.058c-.386.346-.22 1.152.22 1.613.387.403.828.346 1.214 0Zm-1.267-9.098c.276.172.772-.058.772-.461 0-.173-.386-.346-.606-.52-.055-.056-.22-.171-.331.059-.166.173-.11.749.165.922Zm18.811-9.1c.276.057.441-.23.441-.461 0-.173-.165-.634-.496-.576-.331.058-.331.46-.276.634 0 .172.166.345.331.403ZM56.826 23.099c.276-.288.166-.864-.276-1.21-.22-.23-.496-.173-.717.058-.33.288-.386.864-.165 1.094.33.23.938.288 1.158.058Zm-2.811 6.452c.386-.403.386-1.324 0-1.728-.386-.46-1.103-.345-1.655.23a1.04 1.04 0 0 0 0 1.44c.331.462 1.214.52 1.655.058Zm4.633-8.351c.221-.23.221-.864.055-.98-.22-.23-.827-.172-.993.116-.22.23-.165.633.11.864.221.172.663.23.828 0Zm.33-2.364c.22-.23.22-.634 0-.806-.22-.23-.497-.173-.717.057a.466.466 0 0 0 0 .634c.22.23.552.288.717.115Zm-.716 4.09c-.11 0-.276.346-.276.518 0 .173.11.404.276.519.11.057.386 0 .497-.116.276-.172.441-.403.662-.69.165-.174.11-.404-.11-.577-.056 0-.221-.057-.276 0-.221.288-.497.288-.773.346Zm17.933-11.117c.22-.116.165-1.037-.166-1.095-.276-.057-.607.115-.662.403-.11.346.607.807.828.692ZM79.17 7.78c.11-.23-.165-.922-.441-.922-.442 0-.717.173-.607.692.11.518.938.46 1.048.23Zm-3.748 7.37c.276 0 .441-.575.22-1.036-.22-.404-.772-.173-.938 0-.22.172.442 1.037.718 1.037Zm2.315-2.19c.055-.114.055-.345-.055-.402-.11-.058-.331.057-.387.115-.055.058-.11.403.056.518.11.058.33-.115.386-.23Zm2.208-8.985c.276-.057.22-.345.22-.46 0-.116-.22-.23-.33-.23-.11.057-.276.23-.276.287.055.173.11.46.386.403Zm-.165 7.373c0 .46.22.749.496.634.22-.116.441-.288.496-.52.056-.23-.33-.575-.607-.46-.165.058-.329.288-.385.346Zm-31.615 9.618c.11-.115.055-.345 0-.403-.055-.058-.386-.23-.497-.115-.11.115 0 .46.056.518.11 0 .331.116.441 0ZM38.126 33.352c.165-.23-.055-.403-.11-.461-.056-.058-.332 0-.387.058-.055.115-.055.345 0 .403.11.057.331.173.497 0Zm1.046 3.86c.442.346.993-.345.883-.576-.11-.23-.717-.576-.938-.345-.33.288-.441.633.055.92Zm-3.033 4.204c.11.115.386.115.551 0 .221-.173.221-.46 0-.633-.11-.116-.496-.346-.772-.058-.22.346.111.634.221.69Zm4.741 3.11c0 .23 1.05.404 1.215.23.22-.172-.056-.748-.497-.863-.441-.23-.718.346-.718.634Zm-5.844 3.284c0-.115-.166-.345-.276-.345-.11 0-.331.115-.386.288-.056.115.055.46.22.518.166 0 .442-.346.442-.461Zm6.342-11.695c.22-.173 0-.518-.11-.633-.11-.116-.331-.23-.497-.058-.166.173-.055.403 0 .519.11.172.386.403.607.172Zm-.606 19.415c.11-.115.056-.346 0-.403-.055-.058-.386-.23-.496-.116-.11.116 0 .46.055.519.11.057.33.115.441 0Zm-.276-13.764c.055-.288-.496-.864-.827-.691-.22.115-.386.576-.22.748.165.288.992.173 1.047-.057Zm1.713.167c.165 0 .22-.346.165-.46-.055-.116-.166-.29-.331-.231-.166.058-.22.23-.22.403.054.058.22.346.386.288ZM38.73 59.852c-.055.057 0 .288.055.403.055.057.276.173.386.057.11-.115-.055-.403-.11-.46-.055-.058-.276-.115-.331 0Zm-.991-13.886c-.442.46-.442 1.44-.055 1.786.386.345.993.288 1.379-.115.441-.52.441-1.268-.055-1.67-.442-.346-.994-.346-1.27 0l.001-.001Zm-2.596 6.454c-.441.518-.441 1.267-.055 1.612.386.346 1.434.288 1.765-.057.386-.404.331-1.21-.165-1.613-.331-.346-1.214-.345-1.545.058Zm10.154-13.022c.165-.23.165-.577-.055-.692-.166-.115-.442-.173-.607-.057-.166.057-.331.633-.11.864.22.172.551.172.772-.115Zm2.537-3.51c-.276.116-.883-.057-1.269.058-.607.173-1.048.634-.828 1.267.276.749.828.922 1.435.749.828-.288.386-1.094.993-1.094s.276.576 1.103.576c.828 0 1.27-.75.993-1.268-.33-.518-.827-.403-.882-.576-.055-.172-.055-.748-.497-.748-.993.057-.772.92-1.048 1.036Zm.111-7.43c-.166-.23-.607-.172-.717.116-.056.173 0 .403 0 .46.33.289.662.23.772 0 .055-.115 0-.403-.055-.575Zm-4.249-1.731c.165-.172.055-.748-.166-.98a.54.54 0 0 0-.827.059c-.221.288-.221.576 0 .806.275.288.827.346.993.115Zm5.849 4.609c.221.23.938.116 1.159-.172.166-.23.166-.75 0-.922-.441-.403-.993-.518-1.269-.23-.22.287-.166 1.036.11 1.324Zm.054-9.617c.11-.115-.055-.403-.11-.461-.055-.058-.276-.058-.331 0-.056.058 0 .288.055.403 0 .058.276.173.386.058ZM48.495 28.4c.276.173.607-.057.773-.23.22-.173.055-.461-.11-.634-.221-.173-.553-.173-.663.058-.11.23-.33.633 0 .806Zm-4.522 3.742c-.055 0-.055.173 0 .173.055.057.166.115.22.057.056-.057 0-.115 0-.23-.054 0-.165-.058-.22 0Zm3.914-5.47c.33-.23.386-.806.165-1.037-.22-.23-.717-.288-.938 0-.22.23-.11.75.276 1.152.11-.057.386 0 .497-.115Zm3.865-.004c.331-.46.276-1.21-.11-1.613-.22-.23-.828-.115-1.048.173-.387.46-.387.98.055 1.382.33.346.883.346 1.103.058Zm-8.662 4.15c0 .403.055.46.276.633.22.173.386.173.496.173.055-.288.442-.691.22-.922-.22-.288-.661-.057-.937-.057 0 .057-.055.115-.055.173Zm3.972 1.145c.166.115.607.346.773.115.165-.23-.055-.69-.166-.864-.22-.23-.496-.115-.717.116-.22.288-.055.518.11.633Zm-.662 2.31c.33-.345.33-.806.054-1.094-.386-.345-1.048-.403-1.269-.057-.275.345-.275 1.037 0 1.382.221.23.883.115 1.214-.23h.001Z" fill="#A36DEF"/><path d="M230.786 161.34H46.179C20.69 161.34 0 139.74 0 113.129c0-26.611 20.69-48.211 46.18-48.211h184.606c25.49 0 46.18 21.6 46.18 48.211 0 26.611-20.69 48.211-46.18 48.211Z" fill="#FFEBF5"/><path d="M30.843 78.629c-.497 0-.883.23-.828.633 0 .346.607 1.037.883 1.037.442 0 .718-.345.718-.864.055-.633-.165-.806-.773-.806Zm11.53-9.737c-.33.057-.386.518-.441.749-.056.287.22.403.496.345.276 0 .552-.288.44-.518-.053-.173-.165-.634-.495-.576Zm-4.58 11.578c0 .287.166.402.441.345.055-.058.166-.115.166-.23 0-.346.22-.52.386-.75.056-.115 0-.46-.11-.575-.055-.058-.166-.116-.22-.173l.275-.288c-.055-.404-.386-.576-.662-.519-.276.058-.276.288-.276.519 0 .172.11.288.22.403-.053.115-.164.23-.164.346-.055.287-.055.634-.055.922Zm15.392-11.405c.331 0 .497-.288.497-.634 0-.46-.386-.806-.717-.806-.33 0-.662.346-.662.691 0 .346.495.749.883.749ZM43.2 67.857c-.056-.172-.22-.288-.276-.345-.441.057-.663.288-.551.576.055.172.22.345.386.403.22 0 .498-.403.441-.634Zm-9.05 6.048c-.164-.403-.495-.403-.826-.288-.22.46-.166.749.276 1.037.33-.115.716-.288.55-.749Zm4.084 9.79c.33 0 .993-.576.993-.864 0-.46-.331-.749-.883-.69-.441 0-.662.345-.662.92.055.346.22.577.551.634ZM33.27 71.484c-.332 0-.608.346-.608.634a.49.49 0 0 0-.386-.173c-.33 0-.55.173-.55.519 0 .345.22.69.55.69.331 0 .552-.287.552-.633v-.057c.11.172.331.288.497.288.33 0 .551-.346.496-.692.056-.288-.218-.576-.55-.576Zm-.44-2.132c-.386 0-.773.403-.938.806-.11.115-.22.23-.22.403-.056.23.11.519.33.691.11.116.441.058.607 0h.166c.552-.057.828-.345.773-.979-.056-.46-.387-.921-.718-.921Zm29.184 1.268c.055.346.441.634.717.576a.62.62 0 0 0 .496-.633c-.054-.403-.33-.691-.661-.634-.277 0-.552.346-.552.691ZM32.22 76.496c.056.23.497.519.828.461.276-.057.386-.288.33-.633-.11-.404-.22-.634-.386-.75.166-.057.277-.23.332-.46a1.15 1.15 0 0 0-.166-.576c-.276-.23-.497-.173-1.049.288.11.346.11.749.552.806-.22.23-.44.634-.44.864Zm-3.53-7.261c-.055.346.166.691.497.749-.22.057-.442.115-.662.057-.165 0-.386.173-.496.346-.166.288-.331.46-.552.749-.276.345-.22.806.055 1.037.387.345.718.403 1.049 0l.055-.058c.22-.058.607-.403.771-.634h.055c.276.058.553-.057.663-.345.166-.346.055-.634-.11-.98-.11-.172-.277-.288-.442-.288.22-.172.386-.46.33-.748 0-.058 0-.116-.053-.116h.11c.44-.115.716-.806.662-1.267v-.057c-.884.345-1.765.69-2.648 1.094.11.288.386.461.716.461Zm11.973-3.801c-.165.058-.275.173-.275.346s.166.288.33.346v.057c-.44-.115-1.159.058-1.434.403-.22.288-.22.75-.056 1.095-.22.173-.386.518-.33.749 0 .288.33.69.606.69.11 0 .221 0 .332-.057 0 .288.276.461.552.519.386-.288.44-.634.166-.922.274-.346.55-.634.716-.922.165-.288.055-.806-.11-1.152.22.116.44.116.773.058.828-.173 1.047-.46.992-1.21a.855.855 0 0 0-.11-.403c-.718.058-1.434.115-2.096.23 0 .058-.056.116-.056.173Zm-9.767 25.46c-.166 0-.277.288-.277.346 0 .115 0 .346.22.346.223 0 .223-.173.223-.23 0-.116 0-.404-.167-.462Zm-10.59 5.646c.054-.402-.387-.748-.939-.806-.276 0-.607.288-.663.634-.055.403.332.864.663.922.441 0 .883-.404.938-.75Z" fill="#FFC7DB"/><path d="M37.351 69.466c0-.346-.33-.634-.607-.634-.11 0-.22.058-.33.116a2.068 2.068 0 0 0-.332-.807c-.22-.346-.717-.46-1.103-.346 0-.057-.055-.057-.055-.115.11-.173.165-.403.11-.576-.055-.23-.166-.403-.386-.518 0-.058 0-.173-.056-.23a30.39 30.39 0 0 0-3.86 1.267c.164.288.495.576.936.46.387-.172.718-.518.938-.46.221 0 .497.115.442.46-.056.346.22.807.938.865h.276c0 .403.165.748.386 1.094.11.115.165.346.165.46 0 .52.166.807.552.922h-.11c-.33 0-.552.288-.497.634.055.345.331.633.662.576.331-.058.441-.288.441-.576 0-.058 0-.115-.055-.173.166.173.387.288.662.23.442-.057.718-.403.662-.748-.055-.346-.33-.576-.717-.519a.868.868 0 0 0-.055-.633c-.055-.173-.11-.288-.11-.461.11.115.22.23.386.23.441.116.717-.172.717-.518Zm-1.6 2.246c-.055-.115-.165-.172-.22-.23h.275c-.055.058-.11.173-.055.23Zm-16.55 29.376c-.276.115-.386.461-.276.749.166.346.552.518.828.346.276-.116.386-.576.276-.864-.166-.231-.552-.346-.828-.231Zm25.16-19.239c.11.115.495 0 .771-.058.055 0 .22-.057.22-.288 0-.23-.44-.633-.772-.576-.276.116-.497.634-.22.922ZM31.613 87.38c.166-.46-.165-1.037-.607-1.152-.44-.115-.662.115-.938-.057-.275-.173-.496 0-.662.287-.165.288-.496.75-.11 1.037.386.288.662.058.717-.057.056-.115.387-.23.331-.058-.055.173.11.346.497.46.33.058.607-.057.772-.46Zm-19.2 3.4c.386-.23.331-.692.331-1.037h-.055c-.055-.058-.11-.058-.166-.058-.496-.23-.772-.173-.938.115-.055.058-.055.173-.11.23-.828-.115-1.159.346-.938 1.44l-.165.174c-.276.172-.276.403-.22.69.054.289.275.404.495.404.166.058.276.058.387.058.165.172.441.172.662 0 .22-.173.496-.346.386-.634-.11-.23-.276-.403-.44-.46.054-.346.11-.635.11-.98.275.115.495.173.661.058Zm-5.188 12.556c-.276.058-.552.691-.33.922.164.172.55.172.716 0 .22-.231-.11-.922-.386-.922Zm-.606-3.861c0-.345-.165-.518-.44-.575-.497-.116-.608.287-.773.633-.22-.058-.442-.058-.607-.115.055-.288.055-.576.11-.864a1.98 1.98 0 0 0-.552-.403c-.275-.115-.938 0-1.103.23-.166-.058-.386 0-.497.058-.11.173-.055.46-.055.633.276.23.442.23.607.115.055.116.11.23.22.346l.332.346c-.11.403-.22.806-.055 1.152-.055.057-.166.115-.22.172-.332.288-.387 1.152-.056 1.44.33.288 1.214.288 1.545-.288.22-.345.22-.633.165-.921.055 0 .11-.058.166-.058.607-.23.607-.749.551-1.325.221-.057.662 0 .662-.576Zm20.358-19.927c.166-.115.055-.518 0-.633-.055-.116-.386-.116-.44 0-.11.057-.11.345-.056.46 0 .115.33.288.496.173ZM4.8 105.584c-.33-.23-.827-.173-1.103.23-.276.346-.276.692 0 .922-.165.23-.165.576-.055.806.165.288.552.346.828.231.275-.173.33-.461.22-.749.166-.058.276-.115.331-.23.221-.346.11-.922-.22-1.21Zm18.98-27.306c.165.345.44.345.716.345.276 0 .497.116.773-.115.276-.288.165-.921-.166-1.152a1.077 1.077 0 0 0-.607-.173c0-.403-.275-.69-.606-.69-.276 0-.552.287-.552.575 0 .23.165.519.441.634-.11.23-.055.518 0 .576h.001Zm-18.153 25.4c.055-.403-.056-.691-.442-.748-.11 0-.386.115-.386.23-.055.23 0 .518.11.634.221.288.497.057.718-.116ZM20.8 74.652c-.33.116-.33.404-.166.576.11.116.331.346.497.404.11.288.33.46.662.633.552.288.883.058 1.27-.633.385-.058.716-.116.992-.23.331-.174.497-.634.331-.922-.22-.404-.497-.807-.717-1.21.22-.576.22-.634-.386-.922-.276.058-.387.576-.718.23.11-.287.221-.518.276-.806v-.288l-1.324.864c.166.116.331.23.552.346l-.33.173c-.387.23-.608.173-.663-.23-.387.287-.773.518-1.159.806 0 0 .055 0 .055.057.276.116.442.23.497.519.055.46.33.518.717.403 0 .058 0 .058-.055.115-.055.058-.166.058-.33.115ZM.717 107.31c.275-.404.11-.864 0-.98.44-.288.662-.921.44-1.382-.11-.23-.22-.346-.385-.518-.166 1.036-.33 2.073-.442 3.168.166-.116.276-.173.387-.288Zm26.76-34.037c0-.346-.386-.634-.717-.576h-.11c-.056-.518-.552-1.037-.994-1.037-.55 0-1.103.461-1.103.98 0 .518.717 1.324 1.27 1.267.22 0 .385-.116.551-.288a.67.67 0 0 0 .551.288c.276 0 .552-.346.552-.634ZM14.898 78.57c-.055.115-.055.172-.055.288 0 .403.331.69.662.633.331-.058.662-.403.662-.691 0-.23-.33-.519-.607-.634.056-.172.11-.345.11-.46.056 0 .166 0 .222-.058.33-.115.606-.115.882 0 .442.173.993-.173.883-.634-.055-.46-.055-.979-.607-1.21h-.055c-.96.82-1.882 1.685-2.759 2.593.166.172.386.231.662.173Zm10.647-7.029c.331.058.773-.633.662-.864-.165-.23-.993-.173-1.048.173-.055.23.166.634.386.691Zm-.22-1.441c.275.173.772.519 1.27.461.66-.115 1.157-1.094 1.157-1.67-.828.403-1.655.805-2.428 1.209Zm-.499.29c-.276.173-.607.289-.882.461h.276c.33 0 .496-.231.606-.461ZM6.07 93.662c.276.691.773.864 1.325.576.606-.288.772-.921.44-1.613a.44.44 0 0 0-.22-.23c-.055-.115-.22-.23-.276-.23a1.17 1.17 0 0 0-.882 0c-.497.287-.662.863-.387 1.497Zm-3.917 10.423c.33-.115.441-.518.33-.806-.165-.288-.496-.461-.827-.288-.276.115-.386.403-.276.749.166.288.497.46.773.345Zm27.863-21.14c0 .173.055.288.22.288.166.058.276-.057.276-.23 0-.173-.055-.288-.22-.288-.166 0-.276.057-.276.23Zm-7.946-2.878c.11 0 .276.058.387.058.441.115.717 0 .772-.288.055-.404-.165-.634-.662-.692-.055 0-.11.058-.166.058-.275-.058-.386-.173-.275-.46.055-.116.11-.174.165-.289a1.195 1.195 0 0 0-.22-1.21c-.332-.345-.663-.403-1.16-.172-.496.288-.716.749-.827 1.267-.276 0-.496-.058-.717 0-.717.173-.883.691-.386 1.267.441.461.993.461 1.324-.057.11-.173.165-.346.33-.692.222.23.387.346.442.519.166.576.497.691.993.691Zm3.42 5.88c1.214-.288 1.214-1.267.883-2.074a1.23 1.23 0 0 0-.552-.633c-.33-.173-.662-.173-1.103-.058-.386.115-.828-.058-1.104.23a2.18 2.18 0 0 0-.496.807v.057c-.165.404-.165.864.055 1.383.276.576.607.864 1.048.921.442.058.772-.518 1.27-.633Zm-4.029 1.033c-.11-.404-.44-.462-.827-.52-.22.347-.497.635-.166 1.038 0 .057.055.057.11.057-.275.23-.496.691-.496 1.037s.276.576.662.576c.552 0 .938-.346.938-.806 0-.346-.165-.634-.386-.75a.67.67 0 0 0 .165-.633v.001Zm2.042 1.438c-.11.058-.22.23-.166.346 0 .115.276.288.386.288.11-.058.11-.346.055-.519 0-.057-.275-.173-.275-.115Zm4.687-8.005a1.156 1.156 0 0 0-.385.518c-.11.634.165 1.094.883 1.383.165-.173.44-.288.606-.461.276-.346.331-.864.11-1.152-.33-.288-.828-.461-1.214-.288Zm16.004-11.116c-.055.115-.275.23-.33.403 0 .173 0 .288.055.46a.412.412 0 0 0-.22-.114c-.332-.116-.829.057-1.16.403a.586.586 0 0 0-.55-.46c-.277 0-.553.345-.498.69 0 .346.331.634.607.576h.11c0 .23.056.404.166.519a1.003 1.003 0 0 0-.442-.115c-.496 0-.882.403-.827.748.055.576.607 1.095 1.103 1.095.11 0 .276-.058.386-.173 0 .173.056.346.11.518-.11 0-.275 0-.385.116-.33.288-.276.864.055 1.152.276.23.772.345 1.103.172a.818.818 0 0 0 .331-.921c.497-.115.938-.634.883-1.152-.055-.519-.33-.864-.717-1.037.165-.115.33-.288.441-.634.11-.46.055-.806-.11-1.094.055.058.165.058.22.058.332 0 .718-.346.718-.634-.055-.23-.497-.519-1.049-.576Zm-1.324 3.11c0-.115-.055-.172-.11-.288.055.058.11.058.166.115 0 0 .055 0 .055.058-.055.058-.11.058-.11.115Zm-12.36 1.325c-.054-.576-.55-1.037-1.048-1.037-.717 0-1.268.519-1.213 1.21 0 .346.165.633.386.806-.11 0-.22-.057-.386 0-.552.058-.938.461-.883.98 0 .057 0 .115.055.172h-.055c-.497 0-.993.692-.938 1.383 0 .518.441.921.938.864.828-.115.938-.346 1.048-1.152h.22c.497-.115.884-.576.828-1.095.166.115.387.173.607.173.497 0 1.104-.576 1.104-1.094 0-.576-.277-1.037-.663-1.21ZM9.49 94.352c-.387.172-.663 1.036-.498 1.44.166.403.773.576 1.16.403.385-.173.661-.864.496-1.267-.22-.461-.828-.75-1.16-.576h.001Zm1.71-12.154c0 .057-.054.115-.054.172-.166.634.11 1.095.44 1.325.387.23.94-.173 1.325-.691.165-.23.11-.634 0-.922.055-.057.055-.115.055-.23s-.11-.403-.22-.576c.33-.058.496-.23.496-.576s-.276-.634-.662-.634a58.676 58.676 0 0 0-1.765 2.074c.11.058.275.058.386.058Zm.94-.864.054-.058a.45.45 0 0 0-.11.288h-.11c.054-.058.11-.115.165-.23Zm-.664 17.392c.276-.172.387-.576.276-.864-.11-.288-.552-.403-.827-.23-.276.173-.33.518-.166.864.11.288.386.403.717.23Zm3.971-13.189c.11-.23-.11-.345-.33-.345v-.116c0-.288-.387-.633-.718-.633-.166 0-.33.057-.442.115.276-.23.386-.46.166-.749-.055-.115-.33-.23-.442-.173-.165.058-.386.23-.386.404-.055.403.276.518.552.576-.22.172-.33.345-.33.633 0 .519.44 1.037.826 1.037.11 0 .221-.115.387-.23.11 0 .275-.058.386-.173.11-.115.277-.173.331-.346Zm1.547-3.399c-.22-.46-.993-.748-1.49-.518-.552.23-.717.922-.44 1.613.11.288.33.518.55.576-.055.115-.055.173-.055.288 0 .346.276.691.552.691s.717-.403.772-.633c0-.173-.11-.346-.275-.519.44-.403.606-1.037.386-1.498Zm-2.87 8.297c-.166 0-.387.23-.442.346 0 .23.055.576.22.691.331.288.607-.058.883-.288-.055-.403-.22-.806-.662-.749ZM4.91 92.739c-.11.057-.165.23-.165.345 0 .115.056.346.276.346.22 0 .386-.173.386-.404a.39.39 0 0 0-.22-.345c.055 0 .165-.058.22-.058.607-.288.828-1.037.497-1.843-.11-.23-.22-.403-.44-.518-.388.748-.774 1.497-1.105 2.304.22.115.386.172.552.172v.001ZM53.681 79.66c-.055 0-.165.115-.165.23 0 .116.165.173.22.116a.8.8 0 0 0 .11-.173c0-.058-.054-.173-.165-.173Zm12.911-14.627c-.386.288-.055.634.055.98.442 0 .828-.116.883-.577 0-.172-.11-.46-.276-.518h-.44c-.056 0-.112.058-.222.115Zm.332 7.659c-.11-.288-.607-.634-.883-.576-.276.057-.44.46-.386.806.11.345.386.46.772.403.387-.173.607-.403.497-.633Zm-.937 1.441c-.11.057-.11.172-.11.23 0 .058.166.115.22.115.056 0 .111-.115.111-.172 0-.058-.11-.23-.22-.173Zm1.875-2.072c-.165.058-.22.346-.165.403.055.115.165.404.275.346.11-.058.221-.23.221-.346 0-.115-.165-.46-.33-.403Zm-6.677-.405c-.055-.461-.442-.864-.718-.807-.496.058-.937.691-.882 1.21 0 .346.441.633.827.518.497-.057.828-.403.773-.921ZM46.29 74.823c.055 0 .22-.115.22-.23s-.165-.23-.33-.288c-.056 0-.33.057-.33.23 0 .173.33.288.44.288Zm22.62-3.683c.056.172.276.288.387.288.11 0 .276-.173.276-.288 0-.116-.166-.288-.276-.288-.11 0-.443.115-.387.288Zm-21.46-3.918c.11.057.165.057.275.057.331 0 .552-.288.552-.633 0-.346-.22-.576-.497-.576-.22 0-.386.115-.552.23-.22-.346-.496-.576-.827-.691-.497-.115-.828.46-1.38.518-.11 0-.165.058-.275.058 0-.23 0-.403-.22-.576-.222-.173-.498-.23-.718.057-.11.173-.276.519-.22.692.054.23.22.345.385.345-.22.403-.165.922 0 1.383.11.288.276.518.497.69.276.231.662.231 1.103.116.442-.115.773.173 1.16-.115.33-.288.772-.864.717-1.555Zm-.997 4.952a.665.665 0 0 0-.662-.576c-.33 0-.496.23-.496.633 0 .404.276.634.607.634a.733.733 0 0 0 .551-.691Zm8.224 4.086c-.883-.345-.442-.863-.993-1.324-.11-.058-.22-.115-.276-.115-.718-.115-1.104.403-.883 1.094.11.403.33.807.607 1.152.276.403.993.461 1.38.23.11-.115.496-.634.165-1.037Zm.715-7.483c.055.288.497.519.772.461.276-.115.497-.519.442-.807 0-.115-.11-.23-.166-.288.276-.173.497-.518.442-.806-.055-.519-.497-.98-.938-.922-.386.058-.938.749-.938 1.152a.98.98 0 0 0 .552.691.475.475 0 0 0-.166.519Zm4.248 5.935c0 .345.166.576.552.576.387 0 .607-.288.607-.634 0-.288-.276-.576-.55-.576-.332 0-.609.288-.609.634Zm9.215-8.065c-.055-.403-.276-.633-.496-.576-.33.058-.718.519-.662.807.055.288.386.576.717.518.276-.058.441-.346.441-.749Zm10.811.573c.165-.115.386-.46.276-.576-.11-.115-.387-.288-.497-.23-.11.057-.44.403-.386.576 0 .115.496.288.607.23Zm-1.046 1.904c.11.346.551.634.882.519.387-.116.883-.865.773-1.21-.11-.403-.718-.634-1.214-.46-.44.172-.607.575-.44 1.151Zm-4.359 8.985c-.165.058-.386.288-.386.403 0 .115.276.346.441.346.11 0 .497-.288.497-.461 0-.173-.44-.346-.552-.288Zm1.324-9.449c-.11-.575-.717-.921-1.434-.748-.607.115-.938.691-.773 1.267.11.576.828 1.037 1.38.922.551-.116.938-.865.827-1.441Zm-.772 3.17c0 .23.33.173.44.173.056 0 .222-.23.166-.288-.055-.115-.22-.23-.275-.23-.056 0-.332.115-.332.345h.001Zm-5.242-3.398c-.11-.288-.276-.288-.496-.23-.276.058-.442.346-.332.576.11.173.221.403.387.403.22.058.552-.46.441-.749Zm5.242-2.65c.331.346 1.16.23 1.38-.115.11-.173.165-.461.11-.749h-1.987c.11.288.276.576.497.864Zm5.85 10.366c.275.058.386-.23.33-.576-.055-.345-.275-.403-.496-.288-.165.058-.552.404-.552.576 0 .173.497.288.718.288Zm-2.926-10.712c.331.346.662.23 1.048.058 0-.23.056-.403 0-.576h-1.158c-.055.173-.055.346.11.518Zm-24.66-.518c.165.46.496.691.992.634.386-.058.717-.288.883-.634h-1.876Zm3.583 18.204c.056-.173-.165-.634-.55-.634-.11 0-.332.173-.387.346-.055.173 0 .46.11.576.331.23.716-.115.827-.288Zm-.495-13.192c-.33.057-.497.402-.442.748.056.346.276.519.607.46.331-.057.552-.402.497-.69 0-.288-.386-.575-.662-.518Zm1.324-4.954c-.33.057-.497.288-.44.633.054.403.33.576.661.519a.614.614 0 0 0 .441-.461c.11.057.276.115.441.057.276-.057.552-.172.552-.46 0-.116-.055-.288-.11-.346H57.93c0 .058-.055.058-.055.115-.11-.057-.22-.115-.386-.057Zm-6.567 16.186c.497-.115.938-.691.883-1.21 0-.345-.55-.69-.993-.633-.496.115-.772.46-.717.979.055.576.441.922.827.864Zm-.715-6.395c.11.23.496.346.662.23.276-.172.22-.978-.055-1.036-.276-.058-.718.519-.607.806Zm1.874-9.849h-2.37c0 .288-.332 1.037.11 1.613.441.576 1.158.518 1.71.173.386-.288.606-1.152.55-1.786Zm.72 8.466c.385-.058.827-.691.771-1.095-.055-.576-.44-.921-.938-.806-.496.115-.772.46-.717.98.11.518.552.979.883.921Zm-16.608 3.341c-.22-.057-.662.288-.718.634-.055.288.11.518.442.576.496.057.827 0 .882-.288 0-.288-.33-.864-.606-.922Zm23.944-8.12c0-.345-.386-.69-.662-.69-.662.057-1.104.402-1.049.863.056.403.663.864 1.05.806.33-.057.716-.633.661-.979Zm1.822-3.225v-.403h-2.373a.832.832 0 0 0 0 .518c.166.518.552.806.993.691.276-.057.552-.345.663-.576.22 0 .496-.173.717-.23Zm-5.629 8.177c-.165.058-.275.288-.275.461 0 .173.22.576.386.576.165 0 .386-.403.386-.576.055-.288-.276-.576-.496-.46v-.001Zm1.988 6.8c.386-.058.607-.345.552-.749-.055-.288-.33-.576-.662-.519-.386.058-.662.346-.607.692 0 .345.33.633.717.576Zm-1.048-7.089c.11 0 .275-.058.386-.173h.496c.166-.057.497-.403.442-.69-.056-.174-.22-.289-.442-.347-.11-.345-.44-.46-.883-.46-.44.057-.66.403-.606.979 0 .403.276.691.607.691ZM39.834 75.4c.055-.518-.607-1.037-1.213-1.037-.497 0-.828.346-.828.864 0 .346.11.576.276.75.055.287.276.46.496.402.056 0 .11-.057.11-.057h.111c.497 0 .993-.404 1.048-.922Zm-.44 13.825c.055-.403-.33-.864-.608-.806-.275.058-.607 1.037-.386 1.325.22.288.938-.115.993-.519Zm22.564-21.136c.387-.116.607-.404.497-.807-.11-.288-.44-.518-.717-.46-.33.115-.552.518-.442.863.056.288.386.461.662.404ZM38.621 83.984c0-.172-.276-.23-.44-.23-.057 0-.222.173-.222.288 0 .115.22.23.331.23.11 0 .331-.115.331-.288Zm1.654-1.844c.331 0 .718-.46.662-.806 0-.346-.33-.576-.662-.576-.33 0-.662.288-.662.576.056.403.442.864.662.806ZM38.18 66.183a.892.892 0 0 0-.332-.46 17.08 17.08 0 0 0-.772.172c-.11.116-.11.23-.11.346-.387.058-.718.288-.773.576-.055.691.552.922.883 1.037.276.115.717-.46.662-.98.276-.057.496-.402.441-.69l.001-.001Zm-.39 21.887c.11-.058.276-.116.276-.289s-.165-.23-.22-.23c-.11 0-.33.057-.387.288-.055.23.276.231.331.231Zm10.487-9.04c.386-.058.607-.288.552-.634-.055-.346-.276-.634-.607-.576-.276 0-.607.346-.607.634a.664.664 0 0 0 .662.576Zm.935-5.298c.165-.346.165-.692-.166-.864-.11-.058-.386 0-.44.057-.11.173-.167.461-.11.634.164.403.44.288.716.173Zm1.438-3.286c.33 0 .717.23.882-.288a.646.646 0 0 0-.22-.75c-.387-.287-.663.058-.939.346a4.818 4.818 0 0 1-.55-.345c.11-.288.22-.519.385-.749-.11-.23-.22-.403-.386-.576-.22-.23-.883-.346-1.104-.173-.276.173-.33.692-.11 1.152.055.173.165.288.22.461-.22.346-.44.691-.44 1.037-.11 0-.166.057-.277.057-.44.116-.717.922-.496 1.383.22.403.993.691 1.49.288.275-.23.44-.519.496-.806h.166c.606 0 .772-.461.882-1.037h.001Z" fill="#FFC7DB"/><path d="M41.048 83.754c.11.115.22.23.386.23.33 0 .44-.23.44-.518.332-.058.719-.23.553-.807-.166-.633-.883-.921-1.434-.806-.552.115-1.16 1.094-.883 1.786.22.345.662.345.938.115Zm8.332.346c.22 0 .33-.633.276-.691-.166-.23-.331-.518-.607-.518-.276 0-.331.403-.276.518.11.173.386.691.607.691Zm-6.291-4.497c.055-.23.055-.46.165-.633.22-.346.276-.691.055-1.094-.165-.288-.938-.346-1.27-.173-.274.172-.605.345-.44.864.11.345.166.69.276 1.037-.055.403.165.633.496.633.387 0 .607-.231.718-.634Zm4.636-5.179c.11 0 .44-.116.44-.288 0-.173-.274-.288-.385-.288-.11 0-.33.115-.33.288 0 .172.165.288.275.288ZM60.8 70.101a.37.37 0 0 0 .33-.518c-.11-.288-.22-.518-.551-.46-.276.057-.496.633-.386.806.11.172.386.172.607.172Zm13.077-3.227c.11-.057.276-.288.276-.403 0-.173-.165-.46-.276-.518-.386-.173-.551.172-.717.46.11.346.33.576.717.461ZM2.097 99.417c.11-.23.055-.403-.056-.519-.11.288-.165.634-.275.922.165-.058.276-.23.33-.403ZM45.96 83.293c0-.058-.11-.23-.221-.23-.11 0-.276.172-.276.287 0 .116.11.404.276.404.11 0 .166-.346.22-.461Zm-.33-4.666c-.222.058-.663.288-.608.576.056.288.442.346.662.404.22.057.442-.058.497-.404-.055-.288-.33-.633-.551-.576Zm-32.94 23.266c.166-.057.22-.518.166-.691-.055-.288-.441-.403-.607-.23-.11.115-.165.403-.11.576.055.115.33.403.552.345h-.001Zm.883-2.819c-.22-.46-.662-.576-1.16-.346-.385.173-.44.634-.22 1.153.166.403.497.575.828.46.33-.173.662-.979.552-1.267Zm56.22-31.682c.055 0 .11-.172.11-.172 0-.058-.055-.173-.165-.173-.055 0-.166.115-.166.23.055.115.166.115.22.115Zm-5.02 5.241c.166-.115.22-.403.22-.576 0-.23-.164-.461-.44-.404-.276.058-.496.173-.496.519 0 .23.55.577.717.461Zm1.267-3.453c.275-.057.496-.748.386-1.209-.056-.288-.552-.576-.828-.46-.441.172-.717.575-.607.921.11.403.717.806 1.048.749v-.001Zm.939 7.024c.165 0 .276-.23.33-.518.056 0 .22-.23.166-.288 0-.058-.055-.115-.11-.173v-.115c0-.173-.33-.576-.607-.519-.276.058-.441.519-.496.807.055.23.44.806.717.806Zm-2.98-8.751c.443-.057.884-.576.829-.979-.055-.346-.662-.634-1.103-.576-.331.058-.607.46-.552.806.11.461.497.807.828.75L64 67.453Zm-1.654 7.2c.11 0 .22-.23.22-.288 0-.115-.165-.403-.33-.346-.166.058-.221.346-.221.461 0 .058.22.173.33.173Zm.66 2.763c.276-.058.552-.404.496-.692-.055-.288-.386-.576-.717-.576-.33 0-.551.288-.496.634.055.403.386.691.717.634Zm8.335-.459c.33-.058.552-.403.497-.749-.056-.288-.387-.518-.663-.46-.33.057-.496.402-.44.748.054.403.275.577.606.461Zm.494-12.039h-.441c.11.058.275.058.44 0Zm.22 7.947c.277-.115.497-.23.442-.576-.055-.288-.441-.517-.662-.46-.22.058-.33.46-.22.748.055.23.22.346.44.288Zm-1.048-6.338c.11 0 .22-.288.22-.46 0-.058-.165-.231-.22-.231-.11.058-.275.173-.275.288 0 .058.22.403.275.403Zm-3.144-1.551c.055.172.276.23.33.23.11 0 .387-.115.332-.23 0 0 0-.058-.055-.058h-.662c.11 0 .055.058.055.058Zm3.31 3.685c-.276.058-.441.288-.386.633 0 .288.607.576.772.404a.758.758 0 0 0 .22-.576c0-.288-.33-.519-.606-.461Zm.718-.807c.165.116.386-.057.44-.345.056-.23-.054-.576-.22-.749-.22-.173-.386-.058-.441.058-.11.172-.055.345 0 .518.055.23.056.403.22.518ZM46.787 77.13c.33-.057.496-.345.496-.748-.055-.404-.33-.634-.717-.576-.276.057-.552.518-.496.806a.626.626 0 0 0 .717.518Zm-7.01-6.454a.685.685 0 0 0-.495.23c-.11-.057-.221-.115-.386-.115-.607-.058-1.27.518-1.325 1.152-.055.576.607 1.21 1.159 1.267.386.058.772-.23.938-.691h.11c.442-.058.883-.749.828-1.267-.055-.346-.386-.576-.828-.576Zm.943 8.752c.33 0 .44-.23.497-.518 0-.46-.276-.922-.607-.922-.387 0-.828.403-.828.692-.055.403.386.748.938.748Zm7.666-14.51H48c.055.058.166.058.22.058.056 0 .11-.058.166-.058Zm-6.897 9.043c0-.403-.331-.69-.662-.633-.276.057-.497.345-.497.748.055.346.276.576.552.519.44 0 .662-.288.607-.634ZM8.054 107.194a.572.572 0 0 0 0 .806c.22.173.552.173.773-.057.22-.231.22-.634 0-.807-.221-.173-.497-.23-.773.058Zm.83-5.124c.33-.173.552-.979.386-1.325-.276-.518-.717-.691-1.158-.403-.442.288-.552.691-.331 1.209.22.404.772.692 1.103.519Zm-2.374 6.91c.33-.172.497-.46.33-.806-.164-.346-.495-.461-.771-.346-.276.116-.442.576-.331.807.11.345.44.461.772.345Zm2.538-20.39c.386-.173.662-.633.607-.98 0-.057-.056-.172-.166-.287.22-.23.386-.576.33-1.037 0-.346-.11-.633-.385-.806.276.057.497 0 .717-.115.386-.23.607-.75.442-1.152a1.2 1.2 0 0 0 .165-.634c0-.346-.276-.576-.662-.634-.51.649-.989 1.322-1.434 2.016 0 0 0 .058.055.058.055.115.165.23.33.346h-.11a.996.996 0 0 0-.662.288c-.11.172-.276.403-.386.575-.055.116-.055.288-.055.404 0 .172.11.345.22.46-.055.058-.11.116-.11.288-.055.519-.276.807-.607 1.095-.275.23-.275.518-.055.806.22.288.773.346.883 0 .166-.518.552-.633.883-.69v-.001Zm.33 3.287c.276-.173.33-.461.166-.807-.276-.518-.552-.749-.828-.576-.331.173-.552.807-.386 1.152.11.346.717.462 1.048.231Zm17.765-10.77c.11-.749-.386-1.094-.772-1.267-.386-.173-1.16-.058-1.324.691-.11-.115-.221-.173-.332-.115-.165.057-.22.518-.165.576.11.173.33.345.44.288.11.46.388.749.719.806.55.115 1.379-.403 1.434-.979ZM9.38 93.43c0 .23.11.518.387.46.166-.057.44-.288.497-.403 0-.173-.221-.403-.331-.518-.442 0-.552.23-.552.46l-.001.001Zm-5.574 3.28c.607.403 1.27.058 1.655-.46.386-.52.11-1.901-.386-2.305-.496-.403-1.048.116-1.214 0 0 0-.055-.057-.055-.115-.22.519-.441 1.037-.607 1.555.11.403.166 1.037.607 1.325Zm31.56-6.794c.11.576.442.98.773.98.276-.058.44-.231.496-.52.11-.518 0-.69-.551-.978-.166-.404-.221-.807-.387-1.095-.165-.345-.662-.345-.717.058-.11.403-.33.864-.11 1.325.11.057.276.115.496.23ZM7.779 97.863c.275-.115.386-.46.22-.748-.165-.404-.607-.634-.993-.519-.33.115-.496.576-.386.864.22.346.828.576 1.159.403Zm10.593-22.001c.44-.058.993-.864.882-1.094-.055-.116-.33-.288-.662-.346-.33.23-.607.518-.938.749 0 .057 0 .115.055.172.11.346.332.576.663.519Zm-.607 4.258c0-.402-.441-.69-1.103-.69-.276 0-.607.46-.607.748 0 .346.496.865.772.865.386.057.938-.52.938-.923Zm.827 1.615c.22-.057.11-.345.056-.518 0-.058-.276-.173-.276-.115-.11.057-.221.23-.166.345.055.115.166.346.386.288Zm-6.343 6.508c.22-.057.717-.057.717-.46 0-.404-.497-.461-.717-.519-.22-.115-.442.173-.497.519 0 .345.166.576.497.46Zm-.938.636c.276-.173.386-.519.22-.864-.33-.576-.661-.749-1.047-.576-.276.173-.497.864-.331 1.152.165.288.883.46 1.158.288Zm1.436-1.957c.165-.288.165-.576-.11-.807a3.193 3.193 0 0 1-.332-.46c-.276-.461-.551-.634-1.048-.519-.441.115-.607.46-.331 1.037.22.23.552.576.993.864.276.23.607.173.828-.115Zm-6.402 15.605c.166.115.387-.057.442-.115.055-.115.165-.288 0-.461-.166-.173-.386-.172-.552.058-.11.23-.055.403.11.518Zm21.408-18.772c.055-.288-.22-.634-.607-.634-.11.173-.276.346-.33.576-.056.288.165.46.44.46.22 0 .442-.057.497-.402Zm-2.65 10.885c.387.057.663-.173.829-.519.11-.23.165-.518.22-.806.11-.058.22-.058.386-.115.442-.23.773-.749.718-1.152-.055-.519-.387-.864-.828-1.095a.902.902 0 0 0-.552 0c-.607.288-.772.864-.607 1.498a.863.863 0 0 1 .11.403c-.22.058-.496.115-.661.23-.386.173-.497.404-.386.865.11.403.386.634.772.691Zm3.53.23c-.055-.519-.662-.576-.827-.404-.166.173-.166.577 0 .75.22.23.772.172.827-.346Zm-4.358-5.073c0-.403-.331-.69-.772-.748-.497-.058-1.05.345-1.104.748-.055.519.386 1.037.883 1.095.44.057.938-.461.993-1.095Zm.44-1.439c.387-.173.442-.576.332-.98-.331-.172-.662-.287-.938 0a.574.574 0 0 0 0 .807c.166.115.44.23.607.173Zm-.99 5.937c.11-.058.167-.288.11-.403 0-.116-.275-.173-.33-.173-.11.057-.331.23-.276.403.11.173.387.173.497.173Zm5.297-4.207c-.055-.518-.662-.576-.827-.403-.166.173-.166.576 0 .749.275.23.44.173.827-.346Zm3.971-4.491c.22.057.662.115.883-.115.22-.23.606-.404.606-.692 0-.288-.055-.403-.22-.518-.11-.115-.166-.288-.442-.403-.276-.115-.772-.115-1.103.173-.331.288-.386.633-.331.979.11.345.386.518.607.576Zm1.765-4.32c0 .403.607 1.094.938 1.094.386-.057.717-.576.717-1.152 0-.518-.386-.748-.938-.69-.331 0-.717.402-.717.748Zm.662-5.702c.386 0 .662-.288.662-.634-.055-.403-.552-.98-.828-.921-.44 0-.772.403-.717.979-.055.345.33.633.883.576Zm.828 3.975c0-.173-.22-.288-.33-.288-.111 0-.387.172-.387.288 0 .172.33.288.44.288.11 0 .277-.115.277-.288Zm-3.642 2.07c0-.115-.055-.173-.055-.288v-.115c-.055-.058-.11-.115-.165-.115-.221-.288-.662-.461-1.05-.404-.55.058-1.047.75-.992 1.268.055.633.607 1.21 1.159 1.152.44-.173 1.103-.98 1.103-1.498Zm-9.49 17.976c.275-.115.165-.864.055-1.152-.11-.173-.497-.403-.718-.288-.275.115-.275.634-.165.922 0 .23.552.69.828.518ZM33.82 78.74c-.386 0-.828.633-.772 1.037.055.288.55.69.882.69.276-.057.607-.402.552-.69 0-.692-.276-1.095-.662-1.037ZM21.516 90.838c.276-.173.386-.518.22-.864-.165-.346-.44-.52-.661-.403-.276.172-.442.749-.331 1.037.055.287.44.403.772.23Zm-5.792 7.776c.497-.288.662-.691.442-1.152-.221-.403-.662-.633-.994-.518-.44.23-.662.979-.44 1.44.165.288.66.403.992.23Zm.606 8.01c.33-.173.442-.519.276-.922-.11-.288-.496-.403-.828-.23-.33.173-.496.576-.33.864a.63.63 0 0 0 .882.288Zm.44-6.281c-.11-.288-.441-.461-.717-.346-.276.115-.441.461-.33.806.11.346.385.461.66.346.387-.115.553-.461.387-.806Zm-2.92-4.263c.165-.057.275-.287.33-.518.11.23.332.288.552.23.166-.057.386-.23.442-.345.165-.46-.166-.691-.607-.922-.166.116-.331.23-.442.404v-.058c-.11-.288-.607-.518-.827-.403-.607.288-.883.806-.717 1.21.22.403.937.574 1.269.402Zm-1.933 11.865c.055 0 .055-.173.055-.231-.055-.057-.11-.115-.22-.057-.111.057-.166.172-.111.23.055.058.276.115.276.058Zm6.51-20.911c0-.806-.33-1.21-1.048-1.267 0-.115 0-.173-.055-.23-.165-.173-.386-.173-.607-.116-.276.058-.441.46-.276.69l.056.059c-.166.23-.276.518-.276.806 0 .288.165.519.44.75-.054 0-.054 0-.11.057-.22.173-.165.345-.11.576.11.288.44.403.607.173.166-.116.276-.288.276-.461h.166c.55.057.938-.461.938-1.037Zm.827-1.497c.552 0 1.159-.633 1.159-1.152 0-.633-.441-1.21-.993-1.21-.497 0-1.27.75-1.324 1.268 0 .518.55 1.094 1.158 1.094Zm1.766 7.026c0-.404-.331-.922-.607-.922-.441-.058-.993.46-.993.922 0 .403.44.864.883.92.44 0 .662-.344.717-.92Zm-9.378 12.616c.166-.23.386-.806-.11-1.094-.938 0-.717-.634-1.38-.864-.11-.058-.275 0-.33 0-.718.173-.938.806-.497 1.325.276.345.607.633.938.864.386.288 1.102.115 1.379-.231Zm5.848-8.753c.276-.173.386-.46.22-.75-.165-.402-.496-.517-.827-.344-.276.172-.441.576-.276.864.166.23.607.403.883.23Zm5.13-14c.387-.172.662-1.036.387-1.382-.221-.403-1.05-.633-1.545-.172-.442.46-.497.979-.331 1.382.22.403.937.403 1.489.173Zm-4.69 8.814c-.11-.173-.385-.288-.661-.288-.055-.46-.386-.75-.882-.75-.607 0-1.104.52-1.05 1.21.056.519.498.98 1.05.922.11 0 .22-.057.275-.057.22.23.552.288.828.172.33-.172.607-.863.44-1.21Z" fill="#FFC7DB"/><path d="M281.544 116.411H96.937c-25.49 0-46.18-21.6-46.18-48.212 0-26.61 20.69-48.21 46.18-48.21h184.607c25.49 0 46.179 21.6 46.179 48.21 0 26.612-20.689 48.212-46.179 48.212Z" fill="#FFC7DB"/><path fill-rule="evenodd" clip-rule="evenodd" d="M276.859 116.412H96.937c-25.49 0-46.18-21.6-46.18-48.21 0-1.104.036-2.199.106-3.284h179.922c25.49 0 46.18 21.6 46.18 48.211 0 1.104-.036 2.199-.106 3.283Z" fill="#E54A91"/><path d="M56.221 61.286c.166-.346-.055-1.095-.386-1.325-.497-.288-.993-.115-1.214.346-.22.46-.055.921.386 1.152.11.057.276.115.442.115-.056.058-.11.115-.11.173 0 .115.11.403.275.403.166 0 .22-.288.22-.46 0-.058 0-.116-.054-.174.22 0 .386-.115.441-.23Zm12.25-30.296c.054.174.11.289.33.347.11.057.386-.058.441-.173.11-.173.166-.461.055-.576-.11-.23-.276-.288-.44-.23 0-.116 0-.174-.056-.231 0-.058-.055-.058-.055-.115l-.828.69c.22.174.386.288.552.288Zm10.867-2.013h-.165c.055-.173.11-.461.11-.576 0-.288-.22-.404-.496-.346-.276.058-.497.23-.387.46.056.116.11.289.221.404-.33 0-.717 0-1.048-.058-.166-.057-.386 0-.607.058a.86.86 0 0 0 .11-.403c0-.403-.33-.691-.662-.634-.33.058-.607.403-.552.691.056.346.387.634.718.576a.444.444 0 0 0-.11.23c-.056.346.386.692.551.692.442-.058.497.288.717.518.166.173.497.289.773.346.165.058.386 0 .552 0 .165 0 .386-.057.551-.115.607-.115.828-.46.828-.922-.166-.576-.552-.921-1.104-.921Zm-6.62 7.888c.11-.288 0-.634-.276-.922.276-.057.552-.172.773-.345.055-.058.11-.115.165-.23.11-.058.166-.116.166-.173 0-.058 0-.173-.055-.288.055-.288-.055-.634-.22-.807-.332-.345-1.16-.345-1.546.173-.33.46-.276.922-.11 1.267-.276.058-.497.23-.662.634-.11.23 0 .633.165.806-.055 0-.11-.057-.22-.057-.442-.058-.718.172-.662.864.165.288.33.748.606 1.152.166.288.497.345.773.172.22-.172.386-.46.22-.806l-.165-.518c-.055-.288-.11-.461-.276-.634.497.173 1.214-.058 1.324-.288Zm7.062-5.641c-.276-.173-.773-.058-.939.173-.33.576-.275 1.152.056 1.324.33.23.938 0 1.213-.403.221-.23.056-.864-.33-1.094Zm-17.987 23.9c-.22-.172-.607-.115-.772.173-.166.288-.11.692.165.864.276.23.552.173.718-.172.22-.346.165-.692-.11-.864v-.001Zm1.103-3.223c.386-.058.828-.691.828-1.094-.056-.576-.442-.922-.938-.864a1.333 1.333 0 0 0-.497.23.764.764 0 0 0-.22-.173c-.166-.173-.442-.173-.608.173-.11.288-.165.518.11.749.111.057.277.057.442 0v.057c.11.519.552.98.883.922Zm-1.213 12.21c-.055.058-.055.23.055.23.11.058.22-.057.22-.114a.443.443 0 0 0-.11-.23s-.11 0-.165.114Zm11.695-30.528c.276-.288.607-.518.387-.922a.44.44 0 0 0-.22-.23c.165-.23.11-.518.054-.864-.386-.058-.772-.288-.993.115-.165.288-.11.576.11.807-.055.057-.11.172-.11.345.055.46.386.576.772.749Z" fill="#F58EB7"/><path d="M72.054 30.872c.386-.058.607-.288.552-.634-.056-.518-.387-.864-.773-.806-.11 0-.33.23-.441.403-.166-.057-.331-.115-.552-.057-.441.057-.662.748-.607 1.382 0 .23.22.518.497.69-.331.174-.552.404-.828.692-.276.288 0 .75-.441.692h-.331c-.11-.346-.331-.634-.718-.864-.551-.288-1.103-.116-1.38.46-.275.519 0 1.383.498 1.613.22.115.44.115.717.058.165.288.44.46.772.518-.22.23-.386.634-.33.98.055.518.717.979 1.268.92.497-.114.883-.575.828-1.036-.055-.46-.607-.921-1.048-1.037.165-.115.275-.23.275-.403.056-.345.773.058.938-.403.11-.46.718-.518.828-1.094.055-.346 0-.75-.22-.98.22-.288.496-.69.496-1.094Zm-12.8 12.907c-.11.288.056.92.277 1.036a.45.45 0 0 0 .386 0c0 .058.055.116.055.116.442.576 1.16.518 1.71.172.553-.345.773-1.785.442-2.246-.33-.518-.993-.288-1.103-.46-.055-.058 0-.346.055-.692h.055c0-.058 0-.115-.055-.173 0-.23-.055-.518-.166-.75-.33-.46-1.048-.632-1.6-.517-.44.634-.827 1.267-1.27 1.958v.058c-.054.058-.11.115-.164.115 0 .058-.055.058-.055.115-.055.116-.055.173-.055.288 0 .173.165.346.33.46 0 .116 0 .23.056.289.11.058.33-.057.386-.173a.573.573 0 0 0 .33-.288c.442.116.939.116 1.049.23.055.058 0 .174 0 .289-.33-.115-.551-.058-.662.173Z" fill="#F58EB7"/><path d="M73.158 27.017c0-.058.055-.116.055-.173-.772.46-1.49.979-2.262 1.497.11.173.22.346.386.403.387.173 1.049-.057 1.38-.403a.67.67 0 0 0 .165.461c.276.23-.441.691-.11 1.037.33.346.055.922.496 1.325.442.403 1.104.518 1.325 0v-.116c.11.173.33.404.44.404.166 0 .387-.519.332-.576-.11-.173-.386-.461-.497-.404-.055 0-.11.116-.165.173 0-.288-.055-.576-.166-.921-.11-.403-.607-.404-.33-.75.275-.345.717-1.266-.056-1.67-.386-.172-.938 0-1.158.346 0-.057-.056-.173-.056-.23.056-.115.166-.229.22-.403ZM54.73 51.67c-.055-.518-.33-.922-.662-1.037.22-.115.33-.288.442-.576.055-.115.055-.288.055-.403.44.058.44-.403.607-.806-.11-.116-.221-.173-.331-.23-.718 1.67-1.38 3.455-1.876 5.24.22.058.44.058.607-.057a.818.818 0 0 0 .33-.921c.442-.173.883-.692.828-1.21Zm21.575-25.92c-.11.287.11 1.151.33 1.267.332.172.828-.058 1.104-.576.22-.461.11-.75-.441-1.037a.76.76 0 0 0-.993.346ZM59.862 49.939c.662 0 .827-.461.938-1.037.33 0 .717.23.882-.288a.646.646 0 0 0-.22-.749c-.387-.288-.663.058-.938.288-.166-.115-.386-.23-.552-.346.11-.288.276-.518.386-.748-.11-.23-.22-.404-.386-.576-.22-.23-.883-.346-1.104-.23-.275.172-.33.69-.165 1.151.055.173.165.288.22.461-.22.346-.496.691-.496 1.037-.11 0-.165.057-.276.057-.441.116-.772.922-.552 1.325.22.403.939.691 1.435.346l-.11.115c-.056.115-.056.288-.056.46-.11 0-.275.058-.33.116-.11.173-.166.46-.11.634.165.345.496.23.716.115.056-.115.11-.288.11-.403.277.057.608-.116.718-.346.11-.288.055-.634-.22-.749a.767.767 0 0 0-.608-.057 1.47 1.47 0 0 0 .387-.692c.22.116.276.116.33.116Zm16.166-16.876c.11-.23-.166-.98-.442-1.153-.275-.172-.606 0-.772.404-.22.518-.165.806.166.979.44.288.882.173 1.048-.23Zm3.64-9.043c.607-.174 1.269-.289 1.876-.404.44 1.267.552 1.382 1.434.806.055-.69-.276-1.037-.882-1.152-.056-.23-.056-.46-.11-.633-1.08.388-2.147.81-3.2 1.267.11.173.44.23.882.115v.001Zm-19.75 30.296c.22-.518.11-.979-.275-1.21-.386-.23-.938-.114-1.05.174-.22.46 0 1.21.443 1.44.276.172.717-.058.883-.404Zm6.178-9.386c-.386.058-.993.749-.938 1.152.055.461.496.807.993.807.44 0 .938-.519.883-.98-.056-.518-.552-1.036-.938-.979Zm1.158-2.992c-.055-.576-.276-.864-.552-.864-.33 0-.772.519-.772.922 0 .345.55.633.882.576.332 0 .497-.288.442-.634Zm1.6.859c.166-.288 0-.518-.22-.576-.166-.057-.662-.057-.773.058-.11.115.166.576.33.749.222.173.498.056.663-.231ZM67.697 39.4c.44 0 .828-.345.883-.69.055-.346-.386-.98-.773-1.095-.276-.058-.662-.173-.772.115-.22.461-.552.634-.938.749-.331.115-.441.403-.331.749.11.345.607.576.828.345a1.135 1.135 0 0 1 1.103-.173Zm-2.484 3.342c-.055-.518-.551-.922-1.158-.922-.607 0-.938.461-.883 1.21.055.749.386 1.094 1.048 1.037.662-.058 1.049-.576.993-1.325Zm.717 6.966c-.165-.115-.606-.058-.772.23-.165.288.166.692.33.864.11.116.829.173.994-.115.166-.288-.331-.806-.552-.979Zm1.05-.69c0-.288-.387-.576-.718-.518-.33.057-.496.403-.441.748.055.346.276.519.607.461.33 0 .607-.345.552-.691Zm-1.27-16.13c.332-.057.883-.69.883-.979v-.057c-.33.345-.717.633-1.048.979 0 .057.055.057.165.057Zm8 10.599c.054-.115.11-.46-.056-.519-.11-.057-.386.116-.441.23-.055.116-.055.346.11.404.166.058.332 0 .387-.115Zm.55-4.375c.166 0 .332 0 .497-.173.166-.172 0-.403-.22-.518-.22-.058-.552 0-.718.115a.315.315 0 0 0-.055.461c.11.173.275.115.496.115Z" fill="#F58EB7"/><path d="M68.8 44.353c.276-.058.552-.115.552-.46-.055-.52-.33-.807-.662-.807a.71.71 0 0 0-.607.806c.11.346.386.576.717.46Zm5.848-7.26a.629.629 0 0 0-.551.059c.055-.115.11-.23.055-.346 0-.115-.22-.345-.331-.345-.166 0-.442.115-.497.23-.22.403.055.576.33.807.11 0 .167-.058.222-.115l-.055.057c-.11.288 0 .634.276.749.33.173.717.057.883-.23.055-.29-.11-.75-.332-.865Zm-4.413 2.71c-.055-.69-.331-.98-.772-.921-.331.058-.773.634-.662.98.055.345.662.69.993.633.276-.058.496-.346.44-.691Zm-6.18 6.163c.055-.115 0-.346-.11-.403-.056-.058-.332 0-.387.057-.055.116-.165.404 0 .519.22.115.44-.058.497-.173Zm6.068-3.285c.497-.057.552-.518.662-.864-.496-.518-.772-.633-1.048-.403-.22.173-.33.403-.276.69.055.347.33.635.662.577Zm2.869-2.48c.22.116.44.059.552-.287.055-.288.055-.518-.221-.633-.22-.058-.772-.058-.883.115-.055.345.386.69.552.806Zm-8.66-3.91c.44-.287.717.059 1.048.23.44.232.772.059.938-.402 0-.057 0-.115.055-.115s.11.058.165.058c.056.057.166.115.166.173.055.057.276-.058.33-.058v-.173c.11-.057.166-.115.277-.115v.058c0-.288-.055-.576-.055-.922-.221-.058-.387-.115-.552-.115a.67.67 0 0 0-.552.288c-.165-.115-.33-.23-.607-.173-.276 0-.551.115-.827-.288.055-.173.22-.346.22-.518a4.08 4.08 0 0 0-.165-.461c-.441.46-.883.92-1.27 1.382.11.519.387 1.152.718 1.267 0-.057.056-.057.11-.115Zm-.277 3.973c0-.69-.662-1.267-1.324-1.21-.607.058-.938.462-.994 1.095-.055 0-.11.058-.11.058-.055.115 0 .46.11.518.11.69.552 1.095 1.16 1.037.716 0 1.158-.634 1.158-1.498ZM55.78 53.798c.33.172 1.048-.058 1.214-.461.165-.288-.056-.922-.387-1.152-.276-.173-.772-.058-.938.173-.275.633-.274 1.267.11 1.44Zm2.15-5.528c.166-.404.056-1.095-.275-1.268-.276-.172-.883.173-1.104.634-.165.288 0 .806.33.92.388.174.884.059 1.05-.287h-.001Zm3.255-10.542c.387.058.607-.173.883-.576a.444.444 0 0 0 .11-.23c.11.23.277.345.442.288.166-.058.33-.288.33-.461 0-.288-.11-.46-.44-.403h-.11v-.115c-.442.46-.828.979-1.215 1.497Z" fill="#F58EB7"/><path d="M55.723 47.348c.44-.115.773.172 1.159-.115.496-.346 1.048-1.152.662-2.132-.166-.46-.386-.748-.662-.921a160.008 160.008 0 0 0-1.655 3.225c.165 0 .33-.057.496-.057Zm.22 3.916c.332 0 .608-.346.608-.634-.055-.345-.33-.633-.662-.576-.33 0-.496.23-.496.576s.22.634.55.634Zm7.117-5.124c-.33 0-.662.346-.662.692 0 .345.497.806.883.749.33 0 .497-.288.497-.634.055-.403-.331-.807-.718-.807Zm-2.093 7.374c.275-.173.22-.922-.056-1.037-.276-.057-.772.46-.607.749.11.288.442.403.663.288Zm-2.373 5.358c.11.058.552.173.663 0 .11-.173-.11-.576-.221-.691-.166-.173-.607-.058-.662.173-.055.172.055.46.22.518Zm-.882-1.388c.386.23.717.173.938-.173v-.057c.165-.116.22-.288.22-.519a.61.61 0 0 0-.276-.518c-.055-.173-.11-.288-.22-.346-.387-.23-.828-.058-1.104.403-.22.576 0 .98.44 1.21h.002Zm-1.215-.516c.11-.288 0-.691-.276-.864-.276-.173-.662 0-.772.288-.11.23-.055.46.11.634-.22.115-.607.288-.552.576.056.287.442.345.663.403.22.057.44-.058.496-.403 0-.115 0-.23-.11-.346.165.058.33-.057.44-.288Zm.825-2.129c-.055-.404-.331-.634-.662-.576-.276.057-.552.46-.497.806a.63.63 0 0 0 .474.51c.08.018.163.021.244.008.276-.115.496-.403.44-.748Zm22.18-15.267c-.054-.288-.165-.518-.496-.518-.055 0-.11 0-.165.057.055-.057.055-.057.055-.115.22-.345.166-.69-.11-.864-.331-.23-.993-.057-1.214.288-.166.288-.055.75.22.922a.79.79 0 0 0 .718 0c-.055.115-.11.23-.11.345 0 .23.386.404.717.346.276-.058.386-.23.386-.46v-.001Zm-.716 4.204c0-.173-.22-.288-.331-.288-.11 0-.442.115-.386.288.055.173.275.23.33.23.166-.057.442-.114.387-.23Zm-7.504 6.512c-.055-.46-.386-.863-.717-.806-.496.058-.938.691-.883 1.21 0 .345.442.633.828.576.496-.115.828-.461.772-.98Zm8.496-4.264c0 .116.166.173.22.173.056 0 .11-.173.11-.173 0-.057-.054-.172-.164-.172-.11 0-.22.057-.166.172Zm-1.211.114c.33-.057.496-.345.496-.749-.055-.403-.22-.633-.496-.576-.331.058-.718.519-.662.807-.056.345.275.576.662.518Zm2.37-4.031c.22-.518 0-1.037-.551-1.267-.386-.173-.993.115-1.16.576-.22.46 0 .921.553 1.21.496.172.938 0 1.159-.519Zm-11.2 11.234c0 .346.167.576.553.576s.607-.23.607-.576c0-.288-.276-.576-.552-.576-.33-.057-.607.23-.607.576ZM54.014 55.7c.22-.403.055-1.094-.276-1.324-.33-.173-.772-.173-1.048 0-.11.288-.166.633-.276.921.055.23.166.461.276.634-.166 0-.331 0-.441.058-.166.576-.276 1.152-.387 1.728v.057l-.055.058-.165.691c.055.115.11.23.22.346.276.172.938 0 1.104-.346.11-.173.11-.346 0-.46v-.058c.055-.23.055-.461.165-.634.22-.346.276-.691.11-1.095l-.055-.057c.387-.115.662-.288.828-.519Zm-.771 8.183a1.23 1.23 0 0 0-.331-.864c.055-.058.055-.115.11-.115.33-.577.11-.98-.276-1.383.22-.288.552-.518.276-.922-.166-.287-.441-.345-.717-.23-.056.058-.11.058-.166.115a1.03 1.03 0 0 0-.662-.23c-.166.864-.276 1.785-.386 2.707.11.288.22.519.44.634-.054.115-.054.172-.11.288-.11.46.33 1.152.773 1.21.387-.058 1.104-.577 1.049-1.21Zm10.262-5.472c0 .115.165.173.22.173.056 0 .11-.173.11-.173 0-.058-.054-.173-.165-.173-.11 0-.165.058-.165.173Zm.937-2.595c.166-.115.442-.403.442-.749.165-.057.276-.115.33-.288.166-.288 0-.748-.275-.864a.692.692 0 0 0-.828.288c-.11-.23-.11-.518-.386-.806-.11-.058-.22-.115-.276-.115-.717-.115-1.16.403-.938 1.094.11.403.33.806.552 1.152.22.46.937.519 1.379.288Zm.386 4.721c.165-.345.055-.69-.276-.921-.276-.173-.662 0-.828.288-.165.345-.11.749.22.921.332.173.718 0 .884-.288Zm2.096-7.947c.055-.231-.276-.577-.497-.462-.165.058-.276.288-.276.461 0 .173.166.576.387.576.165 0 .33-.402.386-.575Zm-5.13 5.874c0-.346-.551-.691-.993-.633-.496.057-.772.46-.717.979.055.518.386.921.773.864.55-.115.993-.691.938-1.21Zm-1.601 3.688c.055-.288-.11-.921-.662-.806a.75.75 0 0 0-.22.173.412.412 0 0 0-.277-.115c-.165 0-.22.115-.276.23-.22-.058-.441-.173-.827-.058-.11.058-.22.173-.276.173-.497.518-.331 1.21.33 1.383.387.115.829.172 1.27.172.44-.115.938-.69.938-1.152ZM53.96 65.15c.33.057.44-.288.496-.577-.166-.345-.441-.518-.772-.345-.11.058-.221.346-.221.46.165.174.33.404.497.462Zm2.48-1.324c.056-.346-.662-.691-.827-.518-.166.172-.055.921.22.979.276 0 .608-.23.608-.46l-.001-.001Zm11.862-4.844c.387 0 .607-.346.552-.75-.055-.287-.33-.575-.662-.518-.386.058-.662.346-.607.692 0 .345.33.576.717.576Zm-.937-7.141c.386 0 .938-.633.938-.979-.055-.518-.386-.749-.938-.749-.441.058-.662.404-.607.98 0 .46.276.748.607.748Zm2.98-4.607c0-.345-.385-.691-.661-.691-.662.058-1.104.403-1.05.864.057.403.608.864 1.05.806.276-.057.662-.633.662-.979Zm5.904-9.619c.607-.057 1.158-.69 1.103-1.267-.055-.518-.662-1.094-1.214-1.094-.606 0-.993.576-.938 1.325 0 .633.442 1.094 1.049 1.036Zm-10.43 26.727c.386-.115.33-.633.22-.806-.11-.173-.606-.23-.827.115-.055.115-.055.403.055.518.166.058.442.173.552.173Zm.773-2.65c.056-.173-.165-.633-.551-.633-.11 0-.331.172-.386.288-.056.172 0 .46.11.576.33.288.772-.059.827-.231ZM80.386 24.94c-.276-.114-.552-.23-.773-.345-.386-.173-.938 0-1.158.346-.166.288-.055.806.165.864.386.115.773.345 1.214.115.662-.173.717-.23.552-.98Zm-2.76 6.457c-.054-.403-.716-1.037-.992-.98-.386.058-.717.634-.607 1.21.055.519.442.692.993.634.332-.058.663-.519.607-.864Zm-5.46 12.613c.055-.462.055-.865-.387-1.038-.165-.057-.441.058-.496.173-.11.23-.11.576-.055.749.22.46.607.231.938.116Zm.716 5.874a.62.62 0 0 0 .497-.634c0-.403-.276-.69-.662-.633-.331.057-.607.403-.552.69 0 .289.386.577.717.577Zm2.428-1.957c.055-.057 0-.288-.11-.345-.11-.058-.276.057-.386.172-.056.058-.056.346.055.404.165.115.386-.116.44-.23v-.001Zm1.712 7.024c.275 0 .44-.748.44-1.036 0-.173-.275-.576-.606-.519-.331.058-.441.519-.497.749 0 .173.387.806.663.806Zm-.554-15.321c-.11-.23-.33-.288-.496-.345-.276-.058-.552.23-.552.576.055.288.22.46.496.518.276 0 .663-.518.552-.749Zm-.882 2.361c.055-.173-.386-.633-.662-.576-.276.058-.276.288-.276.519 0 .288.276.518.497.403.22-.058.44-.173.44-.346Zm-2.592 14.112c.276-.058.552-.403.552-.691-.055-.288-.386-.576-.662-.576a.49.49 0 0 0-.497.576c0 .403.276.749.607.691Zm1.21-9.963c.443-.057.884-.576.884-.98-.055-.345-.607-.633-1.103-.633-.332.058-.607.461-.552.807.055.518.44.864.772.806Zm.664 5.239c.165-.115.22-.346.22-.576 0-.23-.11-.461-.441-.403-.276.057-.497.172-.497.518 0 .23.552.518.718.46v.001Zm3.863-16.123c.276.288.497.691.939.345.275-.172.386-.46.275-.806-.055-.115-.165-.288-.22-.288-.276-.058-.607 0-.938-.058-.442-.576-.993-.806-1.324-.576-.331.288-.442 1.095-.11 1.498.22.518.549.518 1.378-.115Zm3.367 2.128c.276-.576.22-1.325-.221-1.555-.497-.288-1.49-.058-1.71.46-.221.519 0 1.268.44 1.498.553.23 1.215.058 1.49-.403Zm-3.368-1.209c0 .115.056.403.276.403.22 0 .22-.288.22-.46 0-.059-.165-.231-.22-.231-.11.057-.276.172-.276.288Zm.662 13.999c.11 0 .276-.173.276-.288 0-.116-.165-.288-.276-.288-.11 0-.441.115-.386.288.055.23.33.288.386.288Z" fill="#F58EB7"/></g></g><defs><clipPath id="avc_banner_background__a"><path fill="#fff" d="M0 0h80v108H0z"/></clipPath></defs></svg>