<svg xmlns="http://www.w3.org/2000/svg" width="80" height="108" fill="none"><mask id="a" width="80" height="108" x="0" y="0" maskUnits="userSpaceOnUse" style="mask-type:alpha"><path fill="#C4C4C4" d="M80 0H0v108h80z"/></mask><g mask="url(#a)"><path fill="#1BA9F5" d="M64.607 22.41c-.166.172-.166.345-.166.518v.173c.331-.288.718-.519 1.049-.807-.331 0-.718-.115-.883.116m14.29-8.411c-.055-.115-.165-.173-.22-.23-.607-.346-1.214 0-1.214.69 0 .346.055.692.11 1.037.552-.23 1.104-.46 1.655-.633a2.8 2.8 0 0 0-.33-.864Zm-6.953 3.856c-.33.116-.772.116-.772.634v.115c.33-.172.607-.345.938-.518a.8.8 0 0 1-.166-.23Zm-29.02 20.508c-.11.173-.055.403-.055.518.331.346.662.346.773.115s.11-.518.055-.748c-.166-.23-.662-.173-.773.115m.772 9.444c-.221.23-.276.749-.055.979.22.23.606.23.827-.058s.276-.69.055-.864c-.165-.288-.552-.288-.827-.057m1.822-4.549c.166-.23.22-.46.055-.69-.441-.52-.938-.98-1.655-1.21-.11-.058-.276 0-.331 0-.662.172-.883.864-.441 1.382.276.346.606.576.993.806.386.346 1.103.116 1.38-.288Zm18.923-25.227c.166-.115-.055-.403-.11-.403-.11-.058-.276-.115-.386.058-.11.172-.056.288 0 .345.165.058.33.173.496 0m-22.069 38.88c.166.116.387.058.552.116.22-.346.166-.692-.055-.922-.22-.173-.386-.058-.552.115-.165.23-.165.576.055.691m-.992-7.72c-.166.288-.497.576-.166.98.22.23.497.345.772.115a.7.7 0 0 0 .276-.519c0-.345-.276-.46-.883-.576Zm3.697-2.878c-.055-.346-.552-.691-.938-.346-.165.116-.276.461-.276.692 0 .172.276.403.442.46.441.116.827-.403.772-.806m8.109-11.921c-.055.172-.055.287 0 .403.22-.288.386-.576.607-.807-.331 0-.552.173-.607.404M43.089 52.243c.276.288.662.345.883.057s.33-1.037.11-1.267c-.331-.346-.828-.288-1.214.058-.276.288-.165.748.22 1.152Zm10.263-19.87a.574.574 0 0 0 0-.807c-.22-.23-.607-.288-.828 0-.22.23-.22.691.056.922.22.115.551.115.772-.115M56 30.587c-.276-.23-.497-.116-.718.115-.22.288-.22.69 0 .864.056.057.11.057.221.115.22-.288.442-.518.662-.806 0-.058-.055-.173-.165-.288m-4.304 3.745c.497-.461.221-1.095.055-1.383-.165-.345-.938-.172-1.213.346-.166.288-.11.576.11.806.22.346.772.461 1.048.23Zm-3.198 7.89c.331-.404.276-1.268-.11-1.498-.276-.23-.828-.058-1.048.23-.332.404-.332.864.11 1.21.386.288.827.346 1.048.058m9.822-16.187c-.221.173-.332.807-.166 1.037.11.23.662.288.938.058.22-.173.276-.46.055-.691-.331-.404-.662-.576-.828-.404Zm2.755-4.607c.276-.288.276-.634.056-.864-.221-.288-1.104-.288-1.324-.058-.332.346-.276.749.165 1.152.386.288.773.23 1.103-.23m2.813-4.719q.084.087.331 0c0 .115-.055.23-.055.288.055.518.828 1.267 1.324 1.21.331 0 .662-.288.828-.692 0 .116.055.23.11.346-.165.403-.33.749-.441 1.094s.276.692.552.519c.33-.23.827-.346.993-.864-.055-.173-.166-.403-.22-.576.275-.519.33-1.037.054-1.267q-.33-.26-.662 0a.44.44 0 0 0-.22.23v-.115c-.056-.576-.718-1.152-1.214-1.095-.11 0-.166.058-.276.058-.11-.288-.773-.46-1.048-.23-.276.345-.332.864-.056 1.094M61.13 24.83c.276.23.773.173.994-.058.276-.288.276-1.267.055-1.44-.331-.23-.938-.115-1.27.288-.33.403-.275.807.221 1.21m2.208-.868c-.055-.058-.166-.23-.22-.173-.111 0-.221.23-.221.345 0 .058 0 .116.055.173.11-.115.22-.23.386-.345m4.854-11.578c.11-.057.11-.403 0-.46-.055-.116-.331-.116-.441-.058s-.221.403-.166.518c.11.173.552.058.607 0m3.035 2.713c.662-.058 1.104-.576 1.049-1.268-.056-.576-.442-.979-.883-.921-.607.057-1.27.749-1.214 1.267.055.576.497.98 1.048.922M56 27.072c.442-.46.442-1.037-.055-1.555a.99.99 0 0 0-1.379-.058c-.386.346-.22 1.152.22 1.613.387.403.828.346 1.214 0m-1.267-9.098c.276.172.772-.058.772-.461 0-.173-.386-.346-.606-.519-.055-.057-.22-.172-.331.058-.166.173-.11.749.165.922m18.811-9.1c.276.057.441-.23.441-.461 0-.173-.165-.634-.496-.576s-.331.46-.276.634c0 .172.165.345.33.403ZM56.826 23.099c.276-.288.166-.864-.276-1.21-.22-.23-.496-.173-.717.058-.33.288-.386.864-.165 1.094.33.23.938.288 1.158.058m-2.811 6.452c.386-.403.386-1.324 0-1.728-.386-.46-1.103-.345-1.655.23a1.04 1.04 0 0 0 0 1.44c.331.462 1.214.52 1.655.058m4.633-8.351c.221-.23.221-.864.055-.98-.22-.23-.827-.172-.993.116-.22.23-.165.633.11.864.221.172.663.23.828 0m.33-2.364c.22-.23.22-.634 0-.806-.22-.23-.497-.173-.717.057a.466.466 0 0 0 0 .634c.22.23.552.288.717.115m-.716 4.09c-.11 0-.276.346-.276.518s.11.404.276.519c.11.057.386 0 .497-.116.276-.172.441-.403.662-.69.165-.174.11-.404-.11-.577-.056 0-.221-.057-.276 0-.221.288-.497.288-.773.346m17.933-11.117c.22-.116.165-1.037-.166-1.095-.276-.057-.607.115-.662.403-.11.346.607.807.828.692m2.975-4.028c.11-.23-.165-.922-.441-.922-.442 0-.717.173-.607.692s.938.46 1.048.23m-3.748 7.371c.276 0 .441-.576.22-1.037-.22-.404-.772-.173-.938 0-.22.172.442 1.037.718 1.037m2.315-2.19c.055-.115.055-.346-.055-.403s-.331.057-.387.115-.11.403.056.518c.11.058.33-.115.386-.23m2.208-8.986c.276-.057.22-.345.22-.46s-.22-.23-.33-.23c-.11.057-.276.23-.276.287.055.173.11.461.386.403m-.165 7.373c0 .46.22.749.496.634.22-.116.441-.288.496-.519.056-.23-.33-.576-.607-.46-.165.057-.33.287-.386.345Zm-31.615 9.618c.11-.115.055-.345 0-.403s-.386-.23-.497-.115 0 .46.056.518c.11 0 .33.116.44 0ZM38.126 33.352c.165-.23-.055-.403-.11-.461-.056-.058-.332 0-.387.058-.055.115-.055.345 0 .403.11.057.331.173.497 0m1.046 3.86c.442.346.993-.345.883-.576s-.717-.576-.938-.345c-.33.288-.441.633.055.921m-3.033 4.204c.11.115.386.115.551 0 .221-.173.221-.46 0-.633-.11-.116-.496-.346-.772-.058-.22.346.11.634.22.691Zm4.741 3.111c0 .23 1.05.403 1.215.23.22-.173-.056-.749-.497-.864-.441-.23-.717.346-.717.634Zm-5.844 3.283c0-.115-.166-.345-.276-.345s-.331.115-.386.288c-.056.115.055.46.22.518.166 0 .442-.345.442-.46Zm6.342-11.695c.22-.173 0-.518-.11-.633-.11-.116-.331-.23-.497-.058s-.055.403 0 .519c.11.172.386.403.607.172m-.606 19.415c.11-.115.056-.346 0-.403-.055-.058-.386-.23-.496-.116-.11.116 0 .461.055.519.11.057.33.115.441 0m-.276-13.764c.055-.288-.496-.864-.827-.691-.22.115-.386.576-.22.748.165.288.992.173 1.047-.057m1.713.167c.165 0 .22-.346.165-.46-.055-.116-.166-.289-.331-.231-.166.058-.22.23-.22.403.054.058.22.346.386.288M38.73 59.852c-.055.057 0 .288.055.403.055.057.276.173.386.057s-.055-.403-.11-.46c-.055-.058-.276-.115-.331 0m-.991-13.886c-.442.461-.442 1.44-.055 1.786.386.345.993.288 1.379-.115.441-.519.441-1.268-.055-1.67-.442-.346-.994-.346-1.27 0Zm-2.596 6.454c-.441.518-.441 1.267-.055 1.612s1.434.288 1.765-.057c.386-.404.331-1.21-.165-1.613-.331-.346-1.214-.346-1.545.057Zm10.154-13.022c.165-.23.165-.577-.055-.692-.166-.115-.442-.173-.607-.057-.166.057-.331.633-.11.864.22.172.551.172.772-.115m2.537-3.51c-.276.116-.883-.057-1.269.058-.607.173-1.048.634-.828 1.267.276.749.828.922 1.435.749.828-.288.386-1.094.993-1.094s.276.576 1.103.576c.828 0 1.27-.75.993-1.268-.33-.518-.827-.403-.882-.576s-.055-.748-.497-.748c-.993.057-.772.921-1.048 1.036m.111-7.429c-.166-.23-.607-.173-.717.115-.056.173 0 .403 0 .46.33.289.662.231.772 0 .055-.115 0-.403-.055-.575m-4.249-1.732c.165-.172.055-.748-.166-.979a.54.54 0 0 0-.827.058c-.221.288-.221.576 0 .806.275.288.827.346.993.115m5.849 4.609c.221.23.938.116 1.159-.172.166-.23.166-.75 0-.922-.441-.403-.993-.518-1.269-.23-.22.287-.166 1.036.11 1.324m.054-9.617c.11-.115-.055-.403-.11-.461s-.276-.058-.331 0c-.056.058 0 .288.055.403 0 .058.276.173.386.058m-1.104 6.682c.276.173.607-.057.773-.23.22-.173.055-.461-.11-.634-.221-.173-.553-.173-.663.058s-.33.633 0 .806m-4.522 3.742c-.055 0-.055.173 0 .173.055.057.166.115.22.057.056-.057 0-.115 0-.23-.054 0-.165-.058-.22 0m3.914-5.47c.33-.23.386-.806.165-1.037-.22-.23-.717-.288-.938 0-.22.23-.11.75.276 1.152.11-.057.386 0 .497-.115m3.865-.004c.331-.46.276-1.21-.11-1.613-.22-.23-.828-.115-1.048.173-.387.46-.387.98.055 1.382.33.346.883.346 1.103.058m-8.662 4.15c0 .403.055.46.276.633.22.173.386.173.496.173.055-.288.442-.691.22-.922-.22-.288-.661-.057-.937-.057 0 .057-.055.115-.055.173m3.972 1.145c.166.115.607.346.773.115.165-.23-.055-.69-.166-.864-.22-.23-.496-.115-.717.116-.22.288-.055.518.11.633m-.662 2.311c.33-.346.33-.807.054-1.095-.386-.345-1.048-.403-1.269-.057-.275.345-.275 1.037 0 1.382.221.23.883.115 1.214-.23Z"/><path fill="#E7EBF1" d="M230.786 161.34H46.179C20.69 161.34 0 139.74 0 113.129s20.69-48.211 46.18-48.211h184.606c25.49 0 46.18 21.6 46.18 48.211s-20.69 48.211-46.18 48.211"/><path fill="#CAD0E2" d="M30.843 78.629c-.497 0-.883.23-.828.633 0 .346.607 1.037.883 1.037.441 0 .717-.345.717-.864.055-.633-.165-.806-.772-.806m11.529-9.737c-.33.057-.386.518-.441.749-.055.287.22.403.497.345.275 0 .551-.288.44-.518-.054-.173-.165-.634-.496-.576M37.793 80.47c0 .287.166.402.441.345.055-.058.166-.115.166-.23 0-.346.22-.52.386-.75.055-.115 0-.46-.11-.575-.055-.058-.166-.116-.221-.173l.276-.288c-.055-.404-.386-.576-.662-.519-.276.058-.276.288-.276.519 0 .172.11.288.22.403-.054.115-.165.23-.165.346-.055.287-.055.633-.055.921Zm15.392-11.405c.331 0 .497-.288.497-.634 0-.46-.386-.806-.717-.806s-.662.346-.662.691c0 .346.496.749.883.749ZM43.2 67.857c-.056-.172-.221-.288-.276-.345-.442.057-.663.288-.552.576.055.172.22.345.386.403.22 0 .497-.403.441-.634Zm-9.05 6.048c-.165-.403-.496-.403-.827-.288-.22.46-.165.749.276 1.037.331-.115.718-.288.552-.749Zm4.083 9.79c.331 0 .994-.576.994-.864 0-.46-.332-.749-.883-.69-.442 0-.662.345-.662.92.055.346.22.577.551.634M33.27 71.484c-.332 0-.608.346-.608.634a.5.5 0 0 0-.386-.173c-.33 0-.551.173-.551.519 0 .345.22.69.551.69s.552-.287.552-.633v-.057c.11.172.331.288.497.288.33 0 .551-.346.496-.692.055-.288-.22-.576-.552-.576Zm-.44-2.132c-.387 0-.773.403-.938.806-.11.115-.221.23-.221.403-.055.23.11.519.33.691.111.116.442.058.608 0h.165c.552-.057.828-.345.773-.979-.055-.46-.386-.921-.717-.921m29.184 1.268c.055.346.441.634.717.576a.62.62 0 0 0 .496-.633c-.055-.403-.33-.691-.662-.634-.276 0-.551.346-.551.691M32.22 76.496c.055.23.496.519.827.461.276-.057.387-.288.331-.633-.11-.404-.22-.634-.386-.75.166-.057.276-.23.331-.46a1.15 1.15 0 0 0-.165-.576c-.276-.23-.497-.173-1.049.288.11.346.11.749.552.806-.22.23-.441.634-.441.864m-3.53-7.261c-.055.346.166.691.497.749-.221.057-.442.115-.662.057-.166 0-.387.173-.497.346-.165.288-.331.46-.552.749-.276.345-.22.806.056 1.037.386.345.717.403 1.048 0l.055-.058c.22-.058.607-.403.772-.634h.055c.276.058.552-.057.663-.345.165-.346.055-.634-.11-.98-.111-.172-.277-.288-.442-.288.22-.172.386-.46.33-.748 0-.058 0-.116-.054-.116h.11c.441-.115.717-.806.662-1.267v-.057c-.883.345-1.765.69-2.648 1.094.11.288.386.46.717.46Zm11.973-3.801c-.166.058-.276.173-.276.346s.166.288.331.346v.057c-.441-.115-1.159.058-1.434.403-.221.288-.221.75-.056 1.095-.22.173-.386.518-.33.749 0 .288.33.69.606.69.11 0 .221 0 .331-.057 0 .288.276.461.552.519.386-.288.441-.634.166-.922.275-.346.551-.634.717-.922s.055-.806-.11-1.152c.22.116.44.116.772.058.828-.173 1.048-.46.993-1.21 0-.172-.055-.287-.11-.403-.718.058-1.435.115-2.097.23 0 .058-.055.116-.055.173m-9.768 25.46c-.165 0-.276.288-.276.346 0 .115 0 .346.22.346.222 0 .222-.173.222-.23 0-.116 0-.404-.166-.462m-10.59 5.646c.055-.402-.387-.748-.938-.806-.276 0-.607.288-.663.634-.055.403.332.864.663.922.441 0 .882-.404.938-.75"/><path fill="#CAD0E2" d="M37.351 69.466c0-.346-.33-.634-.607-.634-.11 0-.22.058-.33.116a2.1 2.1 0 0 0-.332-.807c-.22-.346-.717-.46-1.103-.346 0-.057-.055-.057-.055-.115.11-.173.165-.403.11-.576-.055-.23-.166-.403-.386-.518 0-.058 0-.173-.056-.23a30 30 0 0 0-3.861 1.267c.165.288.496.576.937.46.387-.172.718-.518.938-.46.221 0 .497.115.442.46-.056.346.22.807.938.865h.276c0 .403.165.748.386 1.094.11.115.165.346.165.46 0 .52.166.807.552.922h-.11c-.331 0-.552.288-.497.634.055.345.331.633.662.576s.441-.288.441-.576c0-.058 0-.115-.055-.173.166.173.387.288.662.23.442-.057.718-.403.662-.748-.055-.346-.33-.576-.717-.519a.87.87 0 0 0-.055-.633c-.055-.173-.11-.288-.11-.461.11.115.22.23.386.23.441.116.717-.172.717-.518m-1.6 2.246c-.055-.115-.165-.172-.22-.23h.275c-.055.058-.11.173-.055.23m-16.55 29.376c-.276.115-.386.461-.276.749.166.346.552.518.828.346.276-.116.386-.576.276-.864-.166-.231-.552-.346-.828-.231M44.36 81.849c.11.115.496 0 .772-.058.055 0 .22-.057.22-.288s-.441-.633-.772-.576c-.276.116-.497.634-.22.922M31.614 87.38c.166-.46-.165-1.037-.607-1.152s-.662.115-.938-.057-.496 0-.662.287c-.165.288-.496.75-.11 1.037.386.288.662.058.717-.057.056-.115.387-.23.331-.058s.11.346.497.46c.33.058.607-.057.772-.46m-19.2 3.4c.386-.23.331-.692.331-1.037h-.055c-.055-.058-.11-.058-.166-.058-.496-.23-.772-.173-.938.115-.055.058-.055.173-.11.23-.828-.115-1.159.346-.938 1.44l-.165.174c-.276.172-.276.403-.221.69.055.289.276.404.496.404.166.058.276.058.387.058.165.172.441.172.662 0 .22-.173.496-.346.386-.634-.11-.23-.276-.403-.441-.46.055-.346.11-.635.11-.98.276.115.496.173.662.058m-5.188 12.556c-.276.058-.552.691-.331.922.165.172.551.172.717 0 .22-.231-.11-.922-.386-.922m-.606-3.861c0-.345-.165-.518-.44-.575-.497-.116-.608.287-.773.633-.221-.058-.442-.058-.607-.115.055-.288.055-.576.11-.864a2 2 0 0 0-.552-.403c-.275-.115-.938 0-1.103.23-.166-.058-.386 0-.497.058-.11.173-.055.46-.055.633.276.23.442.23.607.115.055.116.11.23.22.346l.332.346c-.11.403-.22.806-.055 1.152-.055.057-.166.115-.221.172-.331.288-.386 1.152-.055 1.44.33.288 1.214.288 1.545-.288.22-.345.22-.633.165-.921.055 0 .11-.058.166-.058.607-.23.607-.749.551-1.325.221-.057.662 0 .662-.576m20.358-19.927c.166-.115.055-.518 0-.633-.055-.116-.386-.116-.441 0-.11.057-.11.345-.055.46 0 .115.33.288.496.173M4.8 105.584c-.33-.23-.827-.173-1.103.23-.276.346-.276.692 0 .922-.165.23-.165.576-.055.806.165.288.552.346.828.231.275-.173.33-.461.22-.749.166-.058.276-.115.331-.23.221-.346.11-.922-.22-1.21Zm18.98-27.306c.165.345.44.345.716.345s.497.116.773-.115c.276-.288.165-.921-.166-1.152a1.08 1.08 0 0 0-.607-.173c0-.403-.275-.69-.606-.69-.276 0-.552.287-.552.575 0 .23.165.519.441.634-.11.23-.055.518 0 .576Zm-18.153 25.4c.055-.403-.056-.691-.442-.748-.11 0-.386.115-.386.23-.055.23 0 .518.11.634.221.288.497.057.718-.116m15.172-29.026c-.331.116-.331.404-.166.576.11.116.331.346.497.404.11.288.33.46.662.633.552.288.883.058 1.269-.633.386-.058.717-.116.993-.23.331-.174.497-.634.331-.922-.22-.404-.497-.807-.717-1.21.22-.576.22-.634-.386-.922-.276.058-.387.576-.718.23.11-.287.221-.518.276-.806v-.288l-1.324.864c.166.116.331.23.552.346l-.331.173c-.386.23-.607.173-.662-.23-.387.287-.773.518-1.159.806 0 0 .055 0 .055.057.276.116.442.23.497.519.055.46.33.518.717.403 0 .058 0 .058-.055.115-.055.058-.166.058-.331.115M.717 107.31c.275-.404.11-.864 0-.98.44-.288.662-.921.44-1.382-.11-.23-.22-.346-.385-.518-.166 1.036-.331 2.073-.442 3.168.166-.116.276-.173.387-.288m26.76-34.037c0-.346-.386-.634-.717-.576h-.11c-.056-.518-.552-1.037-.994-1.037-.551 0-1.103.461-1.103.98s.717 1.324 1.269 1.267c.22 0 .386-.116.552-.288a.67.67 0 0 0 .551.288c.276 0 .552-.346.552-.634M14.898 78.57c-.055.115-.055.172-.055.288 0 .403.331.69.662.633.331-.058.662-.403.662-.691 0-.23-.33-.519-.607-.634.056-.172.11-.345.11-.46.056 0 .166 0 .222-.058.33-.115.606-.115.882 0 .442.173.993-.173.883-.634-.055-.46-.055-.979-.607-1.21h-.055a39 39 0 0 0-2.759 2.593q.248.258.662.172Zm10.647-7.029c.331.058.773-.633.662-.864-.165-.23-.993-.173-1.048.173-.055.23.166.634.386.691m-.221-1.441c.276.173.773.519 1.27.461.661-.115 1.158-1.094 1.158-1.67-.828.403-1.655.806-2.428 1.21Zm-.498.29c-.276.173-.607.289-.882.461h.276c.33 0 .496-.23.606-.46ZM6.07 93.662c.276.691.773.864 1.325.576.606-.288.772-.921.44-1.613a.44.44 0 0 0-.22-.23c-.055-.115-.22-.23-.276-.23a1.17 1.17 0 0 0-.882 0c-.497.287-.662.863-.387 1.497m-3.917 10.423c.33-.115.441-.518.33-.806-.165-.288-.496-.461-.827-.288-.276.115-.386.403-.276.749.166.288.497.46.773.345m27.863-21.14c0 .173.055.288.22.288.166.058.276-.057.276-.23s-.055-.288-.22-.288c-.166 0-.276.057-.276.23m-7.946-2.878c.11 0 .276.058.387.058.441.115.717 0 .772-.288q.083-.605-.662-.692c-.055 0-.11.058-.166.058-.275-.058-.386-.173-.275-.46.055-.116.11-.174.165-.289a1.2 1.2 0 0 0-.22-1.21c-.332-.345-.663-.403-1.16-.172-.496.288-.716.749-.827 1.267-.276 0-.496-.058-.717 0-.717.173-.883.691-.386 1.267.441.461.993.461 1.324-.057.11-.173.165-.346.33-.692.222.23.387.346.442.519.166.576.497.691.993.691m3.42 5.88c1.214-.288 1.214-1.267.883-2.074a1.23 1.23 0 0 0-.552-.633c-.33-.173-.662-.173-1.103-.058-.386.115-.828-.058-1.104.23a2.2 2.2 0 0 0-.496.807v.057c-.165.404-.165.864.055 1.383.276.576.607.864 1.048.921s.773-.518 1.27-.633Zm-4.029 1.033c-.11-.404-.441-.462-.827-.52-.22.347-.497.635-.166 1.038 0 .057.055.057.11.057-.275.23-.496.691-.496 1.037s.276.576.662.576c.552 0 .938-.346.938-.806 0-.346-.165-.634-.386-.75a.67.67 0 0 0 .165-.633Zm2.042 1.438c-.11.058-.221.23-.166.346 0 .115.276.288.386.288.11-.058.11-.346.055-.519 0-.057-.275-.173-.275-.115m4.687-8.005a1.16 1.16 0 0 0-.385.518c-.11.634.165 1.094.883 1.383.165-.173.44-.288.606-.461.276-.346.331-.864.11-1.152-.33-.288-.827-.461-1.213-.288Zm16.004-11.116c-.055.115-.275.23-.33.403 0 .173 0 .288.055.46a.4.4 0 0 0-.221-.114c-.331-.116-.828.057-1.159.403a.586.586 0 0 0-.551-.46c-.276 0-.552.345-.497.69 0 .346.331.634.607.576h.11q0 .346.166.519a1 1 0 0 0-.442-.115c-.496 0-.882.403-.827.748.055.576.607 1.095 1.103 1.095.11 0 .276-.058.386-.173 0 .173.056.346.11.518-.11 0-.275 0-.385.116-.331.288-.276.864.055 1.152.276.23.772.345 1.103.172a.82.82 0 0 0 .331-.921c.497-.115.938-.634.883-1.152-.055-.519-.331-.864-.717-1.037.165-.115.33-.288.441-.634.11-.46.055-.806-.11-1.094.055.058.165.058.22.058.332 0 .718-.346.718-.634-.055-.23-.497-.519-1.049-.576m-1.324 3.11c0-.115-.055-.172-.11-.288.055.058.11.058.166.115 0 0 .055 0 .055.058-.055.058-.11.058-.11.115Zm-12.36 1.325c-.054-.576-.55-1.037-1.048-1.037-.717 0-1.268.519-1.213 1.21 0 .346.165.633.386.806-.11 0-.22-.057-.386 0-.552.058-.938.461-.883.98 0 .057 0 .115.055.172h-.055c-.497 0-.993.692-.938 1.383 0 .518.441.921.938.864.828-.115.938-.346 1.048-1.152h.22c.497-.115.884-.576.828-1.095.166.115.387.173.607.173.497 0 1.104-.576 1.104-1.094 0-.576-.276-1.037-.662-1.21ZM9.489 94.352c-.386.172-.662 1.036-.497 1.44s.773.576 1.159.403.662-.864.497-1.267c-.221-.461-.828-.75-1.16-.576ZM11.2 82.198c0 .057-.054.115-.054.172-.166.634.11 1.095.44 1.325.387.23.939-.173 1.325-.691.165-.23.11-.634 0-.922.055-.057.055-.115.055-.23s-.11-.403-.22-.576c.33-.058.496-.23.496-.576s-.276-.634-.662-.634a59 59 0 0 0-1.765 2.074c.11.058.275.058.386.058Zm.939-.864.055-.058a.45.45 0 0 0-.11.288h-.11c.054-.058.11-.115.165-.23m-.663 17.392c.276-.172.387-.576.276-.864s-.552-.403-.827-.23c-.276.173-.331.518-.166.864.11.288.386.403.717.23m3.971-13.189c.11-.23-.11-.345-.331-.345v-.116c0-.288-.386-.633-.717-.633-.166 0-.331.057-.442.115.276-.23.386-.46.166-.749-.055-.115-.331-.23-.442-.173-.165.058-.386.23-.386.404-.055.403.276.518.552.576-.22.172-.331.345-.331.633 0 .519.441 1.037.827 1.037.11 0 .221-.115.387-.23.11 0 .275-.058.386-.173s.276-.173.33-.346Zm1.547-3.399c-.221-.46-.993-.748-1.49-.518-.552.23-.717.922-.441 1.613.11.288.33.518.551.576-.055.115-.055.173-.055.288 0 .346.276.691.552.691s.717-.403.772-.633c0-.173-.11-.346-.275-.519.44-.403.606-1.037.386-1.498m-2.871 8.297c-.165 0-.386.23-.441.346 0 .23.055.576.22.691.331.288.607-.058.883-.288-.055-.403-.22-.806-.662-.749M4.91 92.739c-.11.057-.165.23-.165.345s.056.346.276.346.386-.173.386-.404a.39.39 0 0 0-.22-.345c.055 0 .165-.058.22-.058.607-.288.828-1.037.497-1.843-.11-.23-.22-.403-.441-.518-.387.748-.773 1.497-1.104 2.304.22.115.386.172.552.172ZM53.681 79.66c-.055 0-.165.115-.165.23 0 .116.165.173.22.116a.8.8 0 0 0 .11-.173c0-.058-.054-.173-.165-.173m12.911-14.627c-.386.288-.055.634.055.98.442 0 .828-.116.883-.577 0-.172-.11-.46-.276-.518h-.441c-.055 0-.11.058-.22.115Zm.332 7.659c-.11-.288-.607-.634-.883-.576-.276.057-.441.46-.386.806.11.345.386.46.772.403.387-.173.607-.403.497-.633m-.937 1.441c-.11.057-.11.172-.11.23s.166.115.22.115c.056 0 .111-.115.111-.172 0-.058-.11-.23-.22-.173Zm1.875-2.072c-.165.058-.22.346-.165.403.055.115.165.404.275.346s.221-.23.221-.346-.165-.46-.331-.403m-6.677-.405c-.055-.461-.442-.864-.718-.807-.496.058-.937.691-.882 1.21 0 .346.441.633.827.518.497-.057.828-.403.773-.921m-14.896 3.167c.055 0 .22-.115.22-.23s-.165-.23-.33-.288c-.056 0-.331.057-.331.23s.33.288.441.288M68.91 71.14c.056.172.276.288.387.288s.276-.173.276-.288c0-.116-.166-.288-.276-.288s-.442.115-.386.288Zm-21.46-3.918c.11.057.165.057.275.057.331 0 .552-.288.552-.633s-.22-.576-.497-.576c-.22 0-.386.115-.552.23q-.33-.519-.827-.691c-.497-.115-.828.46-1.38.518-.11 0-.165.058-.275.058 0-.23 0-.403-.22-.576-.222-.173-.498-.23-.718.057-.11.173-.276.519-.22.692.054.23.22.345.385.345-.22.403-.165.922 0 1.383q.165.432.497.69c.276.231.662.231 1.103.116.442-.115.773.173 1.159-.115.331-.288.772-.864.717-1.555Zm-.997 4.952a.664.664 0 0 0-.662-.576c-.33 0-.496.23-.496.633 0 .404.276.634.607.634a.73.73 0 0 0 .551-.691m8.224 4.086c-.883-.345-.442-.863-.993-1.324-.11-.058-.221-.115-.276-.115-.718-.115-1.104.403-.883 1.094.11.403.33.807.607 1.152.276.403.993.461 1.38.23.11-.115.496-.633.165-1.036Zm.715-7.483c.055.288.497.519.772.461.276-.115.497-.519.442-.807 0-.115-.11-.23-.166-.288.276-.173.497-.518.442-.806-.055-.519-.497-.98-.938-.922-.386.058-.938.749-.938 1.152a.98.98 0 0 0 .552.691.48.48 0 0 0-.166.519m4.248 5.935c0 .345.166.576.552.576.387 0 .607-.288.607-.634 0-.288-.276-.576-.551-.576-.331 0-.607.288-.607.634Zm9.215-8.065c-.055-.403-.276-.633-.496-.576-.331.058-.718.519-.662.807s.386.576.717.518c.276-.058.441-.346.441-.749m10.811.573c.165-.115.386-.46.276-.576s-.387-.288-.497-.23-.441.403-.386.576c0 .115.496.288.607.23m-1.046 1.904c.11.346.551.634.882.519.387-.116.883-.865.773-1.21-.11-.403-.718-.634-1.214-.46-.441.172-.607.575-.441 1.151m-4.359 8.985c-.165.058-.386.288-.386.403s.276.346.441.346c.11 0 .497-.288.497-.461s-.441-.346-.552-.288m1.324-9.449c-.11-.575-.717-.921-1.434-.748-.607.115-.938.691-.773 1.267.11.576.828 1.037 1.38.922.551-.116.938-.864.827-1.44Zm-.772 3.17c0 .23.33.173.44.173.056 0 .222-.23.166-.288-.055-.115-.22-.23-.275-.23s-.332.115-.332.345Zm-5.242-3.398c-.11-.288-.276-.288-.496-.23-.276.058-.442.346-.332.576.11.173.221.403.387.403.22.058.552-.46.441-.749m5.242-2.65c.331.346 1.159.23 1.38-.115.11-.173.165-.461.11-.749h-1.987q.165.432.497.864m5.85 10.366c.275.058.386-.23.33-.576-.055-.345-.275-.403-.496-.288-.165.058-.552.404-.552.576 0 .173.497.288.718.288m-2.926-10.712c.331.346.662.23 1.048.058 0-.23.056-.403 0-.576h-1.158c-.055.173-.055.346.11.518m-24.661-.518c.166.46.497.691.993.634.386-.058.717-.288.883-.634zm3.584 18.204c.056-.173-.165-.634-.551-.634-.11 0-.331.173-.386.346s0 .46.11.576c.331.23.717-.115.828-.288Zm-.495-13.192c-.331.057-.497.402-.442.748.056.346.276.519.607.46.331-.057.552-.402.497-.69 0-.288-.386-.576-.662-.519Zm1.324-4.954c-.331.057-.497.288-.441.633.055.403.33.576.662.519a.61.61 0 0 0 .441-.461c.11.057.276.115.441.057.276-.057.552-.172.552-.46 0-.116-.055-.288-.11-.346H57.93c0 .058-.055.058-.055.115-.11-.057-.22-.115-.386-.057m-6.567 16.186c.497-.115.938-.691.883-1.21 0-.345-.551-.69-.993-.633-.496.115-.772.46-.717.979.055.576.441.922.827.864m-.715-6.395c.11.23.496.346.662.23.276-.172.22-.978-.055-1.036-.276-.058-.718.519-.607.806m1.874-9.849H49.71c0 .288-.331 1.037.11 1.613.442.576 1.159.518 1.71.173.387-.288.608-1.152.552-1.786Zm.719 8.466c.386-.058.828-.691.772-1.095-.055-.576-.441-.921-.938-.806s-.772.46-.717.98c.11.518.552.978.883.92Zm-16.607 3.341c-.221-.057-.662.288-.718.634-.055.288.11.518.442.576.496.057.827 0 .882-.288 0-.288-.33-.864-.606-.922m23.944-8.12c0-.345-.386-.69-.662-.69-.662.057-1.104.402-1.049.863.056.403.663.864 1.049.806.33-.057.717-.633.662-.979m1.822-3.225v-.403h-2.373a.83.83 0 0 0 0 .518c.166.518.552.806.993.691.276-.057.552-.345.663-.576.22 0 .496-.173.717-.23m-5.629 8.177c-.165.058-.275.288-.275.461s.22.576.386.576c.165 0 .386-.403.386-.576.055-.288-.276-.576-.496-.46Zm1.988 6.8c.386-.058.607-.345.552-.749-.055-.288-.331-.576-.662-.519-.386.058-.662.346-.607.692 0 .345.33.633.717.576m-1.048-7.089c.11 0 .275-.058.386-.173h.496c.166-.057.497-.403.442-.69-.056-.174-.221-.289-.442-.347-.11-.345-.441-.46-.883-.46-.44.057-.661.403-.606.979 0 .403.276.691.607.691M39.834 75.4c.055-.518-.607-1.037-1.213-1.037-.497 0-.828.346-.828.864 0 .346.11.576.276.75.055.287.276.46.496.402.056 0 .11-.057.11-.057h.111c.497 0 .993-.404 1.048-.922m-.441 13.825c.056-.403-.33-.864-.607-.806-.275.058-.607 1.037-.386 1.325s.938-.115.993-.519m22.565-21.136c.387-.116.607-.404.497-.807-.11-.288-.441-.518-.717-.46-.331.115-.552.518-.442.863.056.288.386.461.662.404M38.621 83.984c0-.172-.276-.23-.441-.23-.056 0-.221.173-.221.288s.22.23.331.23c.11 0 .331-.115.331-.288m1.654-1.844c.331 0 .718-.46.662-.806 0-.346-.33-.576-.662-.576-.33 0-.662.288-.662.576.056.403.442.864.662.806M38.18 66.183a.9.9 0 0 0-.332-.46 17 17 0 0 0-.772.172c-.11.116-.11.23-.11.346-.387.058-.718.288-.773.576-.055.691.552.922.883 1.037.276.115.717-.46.662-.98.276-.057.496-.402.441-.69Zm-.39 21.887c.11-.058.276-.116.276-.289s-.165-.23-.22-.23c-.11 0-.331.057-.387.288s.276.23.331.23Zm10.487-9.04c.386-.058.607-.288.552-.634s-.276-.634-.607-.576c-.276 0-.607.346-.607.634a.664.664 0 0 0 .662.576m.935-5.298c.165-.346.165-.692-.166-.864-.11-.058-.386 0-.441.057-.11.173-.166.461-.11.634.165.403.44.288.717.173m1.438-3.286c.33 0 .717.23.882-.288a.646.646 0 0 0-.22-.75c-.387-.287-.663.058-.939.346a5 5 0 0 1-.551-.345c.11-.288.22-.519.386-.749-.11-.23-.22-.403-.386-.576-.221-.23-.883-.346-1.104-.173-.276.173-.33.692-.11 1.152.055.173.165.288.22.461-.22.346-.44.691-.44 1.037-.111 0-.166.057-.277.057-.441.116-.717.922-.496 1.383.22.403.993.691 1.49.288.275-.23.44-.519.496-.806h.166c.606 0 .772-.461.882-1.037Z"/><path fill="#CAD0E2" d="M41.048 83.754c.11.115.22.23.386.23.331 0 .441-.23.441-.518.331-.058.718-.23.552-.807-.166-.633-.883-.921-1.434-.806-.552.115-1.16 1.094-.883 1.786.22.345.662.345.938.115m8.332.346c.22 0 .331-.633.276-.691-.166-.23-.331-.518-.607-.518s-.331.403-.276.518c.11.173.386.691.607.691m-6.291-4.497c.055-.23.055-.46.165-.633.22-.346.276-.691.055-1.094-.165-.288-.938-.346-1.269-.173-.275.172-.606.345-.44.864.11.345.165.69.275 1.037-.055.403.165.633.496.633.387 0 .607-.23.718-.633Zm4.636-5.179c.11 0 .441-.116.441-.288 0-.173-.275-.288-.386-.288s-.33.115-.33.288c0 .172.165.288.275.288M60.8 70.101a.37.37 0 0 0 .331-.518c-.11-.288-.22-.518-.552-.46-.276.057-.496.633-.386.806.11.172.386.172.607.172m13.077-3.227c.11-.057.276-.288.276-.403 0-.173-.165-.46-.276-.518-.386-.173-.551.172-.717.46.11.346.331.576.717.461M2.097 99.417c.11-.23.055-.403-.056-.519-.11.288-.165.634-.275.922.165-.058.275-.23.33-.403ZM45.96 83.293c0-.058-.11-.23-.221-.23-.11 0-.276.172-.276.287 0 .116.11.404.276.404.11 0 .165-.346.22-.461Zm-.33-4.666c-.222.058-.663.288-.608.576s.442.346.662.404c.221.057.442-.058.497-.404-.055-.288-.331-.633-.552-.576Zm-32.94 23.266c.166-.057.221-.518.166-.691-.055-.288-.441-.403-.607-.23-.11.115-.165.403-.11.576.055.115.33.403.552.345Zm.883-2.819c-.22-.46-.662-.576-1.159-.346-.386.173-.441.634-.22 1.153.165.403.496.575.827.46.331-.173.662-.979.552-1.267m56.22-31.682c.055 0 .11-.172.11-.172 0-.058-.055-.173-.165-.173-.055 0-.166.115-.166.23.055.115.166.115.221.115m-5.019 5.241c.165-.115.22-.403.22-.576 0-.23-.165-.461-.44-.404-.277.058-.497.173-.497.519 0 .23.551.576.717.46Zm1.266-3.453c.275-.057.496-.748.386-1.209-.056-.288-.552-.576-.828-.46-.441.172-.717.575-.607.921.11.403.717.806 1.048.749Zm.939 7.024c.165 0 .276-.23.331-.518.055 0 .22-.23.165-.288 0-.058-.055-.115-.11-.173v-.115c0-.173-.33-.576-.607-.519-.276.058-.441.519-.496.807.055.23.441.806.717.806M64 67.453c.442-.057.883-.576.828-.979-.055-.346-.662-.634-1.103-.576-.331.058-.607.46-.552.806.11.461.497.807.828.75Zm-1.655 7.2c.11 0 .22-.23.22-.288 0-.115-.165-.403-.33-.346-.166.058-.221.346-.221.461 0 .058.22.173.33.173Zm.66 2.763c.276-.058.552-.404.496-.692-.055-.288-.386-.576-.717-.576s-.551.288-.496.634c.055.403.386.691.717.634m8.335-.459c.331-.058.552-.403.497-.749-.056-.288-.387-.518-.663-.46-.33.057-.496.402-.44.748.054.403.275.576.606.46Zm.494-12.039h-.441c.11.058.275.058.441 0m.221 7.947c.276-.115.496-.23.441-.576-.055-.288-.441-.517-.662-.46-.22.058-.33.46-.22.748.055.23.22.346.441.288m-1.049-6.338c.11 0 .221-.288.221-.46 0-.058-.166-.231-.22-.231-.111.058-.276.173-.276.288 0 .058.22.403.275.403m-3.144-1.551c.055.172.276.23.33.23.111 0 .387-.115.332-.23 0 0 0-.058-.055-.058h-.662c.11 0 .055.058.055.058m3.31 3.685c-.276.058-.441.288-.386.633 0 .288.607.576.772.404a.76.76 0 0 0 .221-.576c0-.288-.331-.518-.607-.46Zm.718-.807c.165.116.386-.057.441-.345.055-.23-.055-.576-.22-.749-.221-.173-.387-.058-.442.058-.11.172-.055.345 0 .518.055.23.055.403.22.518ZM46.787 77.13c.33-.057.496-.345.496-.748-.055-.404-.33-.634-.717-.576-.276.057-.552.518-.496.806a.626.626 0 0 0 .717.518m-7.009-6.454a.69.69 0 0 0-.496.23c-.11-.057-.221-.115-.386-.115-.607-.058-1.27.518-1.325 1.152-.055.576.607 1.21 1.159 1.267.386.058.772-.23.938-.691h.11c.442-.058.883-.749.828-1.267-.055-.346-.386-.576-.828-.576m.942 8.752c.331 0 .441-.23.497-.518 0-.46-.276-.922-.607-.922-.387 0-.828.403-.828.692-.055.403.386.748.938.748m7.666-14.51H48c.055.058.166.058.22.058.056 0 .111-.058.166-.058m-6.897 9.043c0-.403-.331-.69-.662-.633-.276.057-.497.345-.497.748.055.346.276.576.552.519.441 0 .662-.288.607-.634M8.054 107.194a.573.573 0 0 0 0 .806c.22.173.552.173.773-.057.22-.231.22-.634 0-.807-.221-.173-.497-.23-.773.058m.83-5.124c.331-.173.552-.979.386-1.325-.276-.518-.717-.691-1.158-.403q-.663.432-.331 1.209c.22.404.772.692 1.103.519m-2.374 6.91c.331-.172.497-.46.331-.806s-.496-.461-.772-.346-.442.576-.331.807c.11.345.441.461.772.345m2.538-20.39c.386-.173.662-.633.607-.98 0-.057-.056-.172-.166-.287.22-.23.386-.576.331-1.037 0-.346-.11-.633-.386-.806.276.057.497 0 .717-.115.386-.23.607-.75.442-1.152a1.2 1.2 0 0 0 .165-.634c0-.346-.276-.576-.662-.634a26 26 0 0 0-1.434 2.016s0 .058.055.058q.082.172.33.346h-.11a1 1 0 0 0-.662.288c-.11.172-.276.403-.386.575-.055.116-.055.288-.055.404 0 .172.11.345.22.46-.055.058-.11.116-.11.288-.055.519-.276.807-.607 1.095-.275.23-.275.518-.055.806s.773.346.883 0c.166-.518.552-.633.883-.69Zm.33 3.287c.276-.173.331-.461.166-.807-.276-.518-.552-.749-.828-.576-.331.173-.552.807-.386 1.152.11.346.717.461 1.048.23Zm17.765-10.77c.11-.749-.386-1.094-.772-1.267s-1.159-.058-1.324.691c-.11-.115-.221-.173-.332-.115-.165.057-.22.518-.165.576.11.173.331.345.441.288.11.46.387.749.718.806.551.115 1.379-.403 1.434-.979M9.38 93.43c0 .23.111.518.387.46.166-.057.441-.288.497-.403 0-.173-.221-.403-.331-.518-.442 0-.552.23-.552.46Zm-5.574 3.28c.607.403 1.27.058 1.655-.46.386-.52.11-1.901-.386-2.305-.496-.403-1.048.116-1.214 0 0 0-.055-.057-.055-.115-.22.519-.441 1.037-.607 1.555.11.403.166 1.037.607 1.325m31.56-6.794c.11.576.442.98.773.98q.414-.087.496-.52c.11-.518 0-.69-.551-.978-.166-.404-.221-.807-.387-1.095-.165-.345-.662-.345-.717.058-.11.403-.33.864-.11 1.325.11.057.276.115.496.23M7.779 97.863c.275-.115.386-.46.22-.748-.165-.404-.607-.634-.993-.519-.33.115-.496.576-.386.864.22.346.828.576 1.159.403m10.593-22.001c.44-.058.993-.864.882-1.094-.055-.116-.33-.288-.662-.346-.33.23-.607.518-.938.749 0 .057 0 .115.055.172.11.346.332.576.663.519m-.607 4.258c0-.402-.441-.69-1.103-.69-.276 0-.607.46-.607.748 0 .346.496.865.772.865.386.057.938-.519.938-.922Zm.827 1.615c.221-.057.11-.345.056-.518 0-.058-.276-.173-.276-.115-.11.057-.221.23-.166.345s.166.346.386.288m-6.343 6.508c.22-.057.717-.057.717-.46 0-.404-.497-.461-.717-.519-.22-.115-.442.173-.497.519 0 .345.166.576.497.46m-.938.636c.276-.173.386-.519.221-.864-.331-.576-.662-.749-1.048-.576-.276.173-.497.864-.331 1.152s.883.46 1.158.288m1.436-1.957c.165-.288.165-.576-.11-.807a3 3 0 0 1-.332-.46c-.276-.461-.551-.634-1.048-.519-.441.115-.607.46-.331 1.037.22.23.552.576.993.864.276.23.607.173.828-.115m-6.402 15.605c.166.115.387-.057.442-.115.055-.115.165-.288 0-.461-.166-.173-.386-.172-.552.058-.11.23-.055.403.11.518m21.408-18.772c.055-.288-.22-.634-.607-.634-.11.173-.276.346-.33.576-.056.288.165.46.44.46.221 0 .442-.057.497-.402M25.104 94.64c.386.057.662-.173.828-.519.11-.23.165-.518.22-.806.11-.058.221-.058.386-.115.442-.23.773-.749.718-1.152-.055-.519-.387-.864-.828-1.095a.9.9 0 0 0-.552 0c-.607.288-.772.864-.607 1.498a.86.86 0 0 1 .11.403c-.22.058-.496.115-.661.23-.386.173-.497.404-.386.865.11.403.386.633.772.69Zm3.529.23c-.055-.519-.662-.576-.827-.404-.166.173-.166.577 0 .75.22.23.772.172.827-.346m-4.358-5.073c0-.403-.331-.69-.772-.748-.497-.058-1.049.345-1.104.748-.055.519.386 1.037.883 1.095.441.057.938-.461.993-1.095m.441-1.439c.386-.173.441-.576.331-.98-.331-.172-.662-.287-.938 0a.574.574 0 0 0 0 .807c.166.115.441.23.607.173m-.99 5.937c.11-.058.166-.288.11-.403 0-.116-.276-.173-.33-.173-.111.057-.332.23-.277.403.11.173.387.173.497.173"/><path fill="#6C88DF" d="M29.022 90.088c-.055-.518-.662-.576-.827-.403-.166.173-.166.576 0 .749.275.23.44.173.827-.346"/><path fill="#CAD0E2" d="M32.993 85.597c.22.057.662.115.883-.115s.606-.404.606-.692-.055-.403-.22-.518c-.11-.115-.166-.288-.442-.403s-.772-.115-1.103.173-.386.633-.331.979c.11.345.386.518.607.576m1.765-4.32c0 .403.607 1.094.938 1.094.386-.057.717-.576.717-1.152 0-.518-.386-.748-.938-.69-.331 0-.717.402-.717.748m.662-5.702c.386 0 .662-.288.662-.634-.055-.403-.552-.979-.828-.921-.44 0-.772.403-.717.979-.055.345.331.633.883.576m.828 3.975c0-.173-.22-.288-.33-.288s-.387.172-.387.288c0 .172.331.288.441.288s.276-.115.276-.288m-3.642 2.07c0-.115-.055-.173-.055-.288v-.115c-.055-.058-.11-.115-.165-.115-.221-.288-.662-.461-1.049-.404-.551.058-1.048.75-.993 1.268.055.633.607 1.21 1.159 1.152.441-.173 1.103-.98 1.103-1.498m-9.49 17.976c.275-.115.165-.864.055-1.152-.11-.173-.497-.403-.718-.288-.275.115-.275.634-.165.922 0 .23.552.69.828.518M33.82 78.74c-.386 0-.828.633-.772 1.037.055.288.551.69.882.69.276-.057.607-.402.552-.69 0-.692-.276-1.095-.662-1.037M21.516 90.838c.276-.173.386-.518.22-.864-.165-.346-.44-.519-.661-.403-.276.172-.442.749-.331 1.037.055.287.44.403.772.23m-5.792 7.776c.497-.288.662-.691.442-1.152-.221-.403-.662-.633-.994-.518-.44.23-.662.979-.44 1.44.165.288.661.403.992.23m.606 8.01c.331-.173.442-.519.276-.922-.11-.288-.496-.403-.828-.23-.33.173-.496.576-.33.864a.63.63 0 0 0 .882.288m.44-6.281c-.11-.288-.441-.461-.717-.346s-.441.461-.33.806.385.461.661.346c.386-.115.552-.461.386-.806m-2.92-4.263c.165-.057.275-.287.33-.518.11.23.332.288.552.23.166-.057.386-.23.442-.345.165-.46-.166-.691-.607-.922-.166.116-.331.23-.442.404v-.058c-.11-.288-.607-.518-.827-.403-.607.288-.883.806-.717 1.21.22.403.937.575 1.269.403Zm-1.933 11.865c.055 0 .055-.173.055-.231-.055-.057-.11-.115-.22-.057-.111.057-.166.172-.111.23s.276.115.276.058m6.511-20.911c0-.806-.331-1.21-1.049-1.267 0-.115 0-.173-.055-.23-.165-.173-.386-.173-.607-.116-.276.058-.441.461-.276.691l.056.058c-.166.23-.276.518-.276.806s.165.519.441.75c-.055 0-.055 0-.11.057-.221.173-.166.345-.11.576.11.288.44.403.606.173.166-.116.276-.288.276-.461h.166c.551.057.938-.461.938-1.037m.826-1.497c.552 0 1.159-.633 1.159-1.152 0-.633-.441-1.21-.993-1.21-.497 0-1.27.75-1.324 1.268 0 .518.551 1.094 1.158 1.094m1.766 7.026c0-.404-.331-.922-.607-.922-.441-.058-.993.46-.993.922 0 .403.441.864.883.921.441 0 .662-.345.717-.921m-9.378 12.616c.166-.23.386-.806-.11-1.094-.938 0-.717-.634-1.38-.864-.11-.058-.275 0-.33 0-.718.173-.938.806-.497 1.325.276.345.607.633.938.864.386.288 1.103.115 1.38-.231Zm5.848-8.753c.276-.173.386-.46.22-.749-.165-.403-.496-.518-.827-.345-.276.172-.441.576-.276.864.166.23.607.403.883.23m5.13-13.999c.387-.173.662-1.037.387-1.383-.221-.403-1.049-.633-1.545-.172-.442.46-.497.979-.331 1.382.22.403.938.403 1.49.173Zm-4.689 8.813c-.11-.173-.386-.288-.662-.288-.055-.46-.386-.749-.882-.749-.607 0-1.104.519-1.049 1.21.055.518.497.979 1.049.921.11 0 .22-.057.275-.057.221.23.552.288.828.172.33-.172.607-.864.441-1.21Z"/><path fill="#7DE2D1" d="M281.544 116.411H96.937c-25.49 0-46.18-21.6-46.18-48.212 0-26.61 20.69-48.21 46.18-48.21h184.607c25.49 0 46.179 21.6 46.179 48.21 0 26.612-20.689 48.212-46.179 48.212"/><path fill="#00BFB3" fill-rule="evenodd" d="M276.859 116.412H96.937c-25.49 0-46.18-21.6-46.18-48.21q0-1.656.106-3.284h179.922c25.49 0 46.18 21.6 46.18 48.211q0 1.656-.106 3.283" clip-rule="evenodd"/><path fill="#42D4C6" d="M56.221 61.286c.166-.346-.055-1.095-.386-1.325-.497-.288-.993-.115-1.214.346s-.055.921.386 1.152c.11.057.276.115.442.115-.056.058-.11.115-.11.173 0 .115.11.403.275.403s.22-.288.22-.46c0-.058 0-.116-.054-.174.22 0 .386-.115.441-.23M68.47 30.99c.055.174.11.289.33.347.111.057.387-.058.442-.173.11-.173.166-.461.055-.576-.11-.23-.276-.288-.441-.23 0-.116 0-.174-.055-.231 0-.058-.055-.058-.055-.115l-.828.69c.22.174.386.289.552.289Zm10.868-2.013h-.165c.055-.173.11-.461.11-.576 0-.288-.22-.404-.496-.346s-.497.23-.387.46c.056.116.11.289.221.404-.33 0-.717 0-1.048-.058-.166-.057-.386 0-.607.058a.86.86 0 0 0 .11-.403c0-.403-.33-.691-.662-.634-.33.058-.607.403-.552.691.056.346.387.634.718.576a.44.44 0 0 0-.11.23c-.056.346.386.692.551.692.442-.058.497.288.717.518.166.173.497.289.773.346.165.058.386 0 .552 0 .165 0 .386-.057.551-.115.607-.115.828-.46.828-.922-.166-.576-.552-.921-1.104-.921m-6.62 7.888c.11-.288 0-.634-.276-.922.276-.057.552-.172.773-.345.055-.058.11-.115.165-.23q.166-.087.166-.173c0-.058 0-.173-.055-.288.055-.288-.055-.634-.221-.807-.331-.345-1.159-.345-1.545.173-.33.46-.276.922-.11 1.267-.276.058-.497.23-.662.634-.11.23 0 .633.165.806-.055 0-.11-.057-.22-.057-.442-.058-.718.172-.662.864.165.288.33.748.606 1.152.166.288.497.345.773.172.22-.172.386-.46.22-.806l-.165-.518c-.055-.288-.11-.461-.276-.634.497.173 1.214-.058 1.324-.288m7.062-5.641c-.276-.173-.773-.058-.939.173-.33.576-.275 1.152.056 1.324.33.23.938 0 1.213-.403.221-.23.056-.864-.33-1.094m-17.987 23.9c-.22-.172-.607-.115-.772.173s-.11.692.165.864c.276.23.552.173.718-.172.22-.346.165-.692-.11-.864Zm1.103-3.223c.386-.058.828-.691.828-1.094-.056-.576-.442-.922-.938-.864a1.3 1.3 0 0 0-.497.23.8.8 0 0 0-.22-.173c-.166-.173-.442-.173-.608.173-.11.288-.165.518.11.749.111.057.277.057.442 0v.057c.11.519.552.98.883.922m-1.213 12.21c-.055.058-.055.23.055.23.11.058.22-.057.22-.114a.44.44 0 0 0-.11-.23s-.11 0-.165.114m11.695-30.528c.276-.288.607-.518.387-.922a.44.44 0 0 0-.221-.23c.166-.23.11-.518.055-.864-.386-.058-.772-.288-.993.115-.165.288-.11.576.11.807-.055.057-.11.172-.11.345.055.46.386.576.772.749"/><path fill="#42D4C6" d="M72.054 30.872c.386-.058.607-.288.552-.634-.056-.518-.387-.864-.773-.806-.11 0-.33.23-.441.403-.166-.057-.331-.115-.552-.057-.441.057-.662.748-.607 1.382 0 .23.22.518.497.691-.331.173-.552.403-.828.691s0 .75-.441.692h-.331c-.11-.346-.331-.634-.718-.864-.551-.288-1.103-.116-1.379.46-.276.519 0 1.383.497 1.613.22.115.441.115.717.058.165.288.441.46.772.518-.22.23-.386.634-.33.98.055.518.717.979 1.268.921.497-.115.883-.576.828-1.037s-.607-.921-1.048-1.037c.165-.115.275-.23.275-.403.056-.345.773.058.938-.403.11-.46.718-.518.828-1.094.055-.346 0-.75-.22-.98.22-.288.496-.69.496-1.094M59.255 43.779c-.11.288.055.921.276 1.036a.45.45 0 0 0 .386 0c0 .058.055.116.055.116.442.576 1.16.518 1.71.172.553-.345.773-1.785.442-2.246-.33-.518-.993-.288-1.103-.46-.055-.058 0-.346.055-.692h.055c0-.058 0-.115-.055-.173 0-.23-.055-.518-.166-.749-.33-.46-1.048-.633-1.6-.518-.44.634-.827 1.267-1.269 1.958v.058c-.055.058-.11.115-.165.115 0 .058-.055.058-.055.115-.055.116-.055.173-.055.288 0 .173.165.346.33.461 0 .115 0 .23.056.288.11.058.33-.057.386-.173a.57.57 0 0 0 .331-.288c.441.116.938.116 1.048.23.055.058 0 .174 0 .289q-.495-.173-.662.173"/><path fill="#42D4C6" d="M73.158 27.017c0-.058.055-.116.055-.173-.772.46-1.49.979-2.262 1.497.11.173.22.346.386.403.387.173 1.049-.057 1.38-.403a.67.67 0 0 0 .165.461c.276.23-.441.691-.11 1.037.33.346.055.922.496 1.325.442.403 1.104.518 1.325 0v-.116c.11.173.33.404.44.404.166 0 .387-.519.332-.576-.11-.173-.386-.461-.497-.404-.055 0-.11.116-.165.173 0-.288-.055-.576-.166-.921-.11-.403-.607-.404-.33-.75.275-.345.717-1.266-.056-1.67-.386-.172-.938 0-1.158.346 0-.057-.056-.173-.056-.23.056-.115.166-.23.221-.404ZM54.73 51.67c-.055-.518-.33-.922-.662-1.037.221-.115.331-.288.442-.576.055-.115.055-.288.055-.403.441.058.441-.403.607-.806-.11-.116-.221-.173-.331-.23-.718 1.67-1.38 3.455-1.876 5.24.22.058.441.058.607-.057a.82.82 0 0 0 .33-.921c.442-.173.883-.692.828-1.21m21.575-25.92c-.11.287.11 1.151.33 1.267.332.172.828-.058 1.104-.576.22-.461.11-.75-.441-1.037a.76.76 0 0 0-.993.345ZM59.862 49.939c.662 0 .827-.461.938-1.037.33 0 .717.23.882-.288a.646.646 0 0 0-.22-.749c-.387-.288-.663.058-.938.288-.166-.115-.386-.23-.552-.346.11-.288.276-.518.386-.748-.11-.23-.22-.404-.386-.576-.22-.23-.883-.346-1.104-.23-.275.172-.33.69-.165 1.151.055.173.165.288.22.461-.22.346-.496.691-.496 1.037-.11 0-.165.057-.276.057-.441.116-.772.922-.552 1.325.221.403.939.691 1.435.346l-.11.115c-.056.115-.056.288-.056.46-.11 0-.275.058-.33.116-.11.173-.166.46-.11.634.165.345.496.23.716.115.056-.115.11-.288.11-.403.277.057.608-.116.718-.346.11-.288.055-.634-.22-.749a.77.77 0 0 0-.608-.057 1.47 1.47 0 0 0 .387-.692c.22.116.275.116.33.116Zm16.166-16.876c.11-.23-.166-.98-.442-1.153-.275-.172-.606 0-.772.404-.22.518-.165.806.166.979.44.288.882.173 1.048-.23m3.64-9.043c.607-.174 1.269-.289 1.876-.404.441 1.267.552 1.382 1.434.806.055-.69-.276-1.037-.882-1.152-.056-.23-.056-.46-.11-.633a53 53 0 0 0-3.2 1.267c.11.173.44.23.882.115ZM59.919 54.316c.22-.518.11-.979-.276-1.21s-.938-.114-1.049.174c-.22.46 0 1.21.442 1.44.276.172.717-.058.883-.404m6.177-9.386c-.386.058-.993.749-.938 1.152.055.461.496.807.993.807.441 0 .938-.519.883-.98-.056-.518-.552-1.036-.938-.979m1.158-2.992c-.055-.576-.276-.864-.552-.864-.33 0-.772.519-.772.922 0 .345.551.633.882.576.332 0 .497-.288.442-.634m1.6.859c.166-.288 0-.518-.22-.576-.166-.057-.662-.057-.773.058s.166.576.331.749c.221.173.497.057.662-.23ZM67.697 39.4c.441 0 .828-.345.883-.69.055-.346-.386-.98-.773-1.095-.276-.058-.662-.173-.772.115-.22.461-.552.634-.938.749-.331.115-.441.403-.331.749.11.345.607.576.828.345a1.13 1.13 0 0 1 1.103-.172Zm-2.484 3.342c-.055-.518-.551-.922-1.158-.922s-.938.461-.883 1.21.386 1.094 1.048 1.037 1.049-.576.993-1.325m.717 6.966c-.165-.115-.606-.058-.772.23-.165.288.166.692.331.864.11.116.828.173.993-.115s-.33-.806-.551-.979Zm1.05-.69c0-.288-.387-.576-.718-.518s-.496.403-.441.748c.055.346.276.519.607.461.33 0 .607-.345.552-.691m-1.27-16.13c.332-.057.883-.69.883-.979v-.057c-.33.345-.717.633-1.048.979 0 .057.055.057.165.057m8 10.599c.054-.115.11-.46-.056-.519-.11-.057-.386.116-.441.23-.055.116-.055.346.11.404.166.058.331 0 .386-.115Zm.55-4.375c.166 0 .332 0 .497-.173.166-.172 0-.403-.22-.518-.22-.058-.552 0-.718.115a.314.314 0 0 0-.055.461c.11.173.276.115.497.115Z"/><path fill="#42D4C6" d="M68.8 44.353c.276-.058.552-.115.552-.46-.055-.52-.33-.807-.662-.807a.71.71 0 0 0-.607.806c.11.346.386.576.717.461m5.848-7.259a.63.63 0 0 0-.551.058c.055-.115.11-.23.055-.346 0-.115-.22-.345-.331-.345-.166 0-.442.115-.497.23-.22.403.055.576.331.807.11 0 .166-.058.221-.115l-.055.057c-.11.288 0 .634.276.749.33.173.717.057.883-.23.055-.289-.11-.75-.332-.865m-4.413 2.71c-.055-.691-.331-.98-.772-.922-.331.058-.773.634-.662.98.055.345.662.69.993.633.276-.058.496-.346.441-.691m-6.18 6.162c.055-.115 0-.346-.11-.403-.056-.058-.332 0-.387.057-.055.116-.165.404 0 .519.22.115.441-.058.497-.173m6.068-3.285c.497-.057.552-.518.662-.864-.496-.518-.772-.633-1.048-.403-.22.173-.33.403-.276.691.055.346.331.634.662.576m2.869-2.479c.22.115.441.058.552-.288.055-.288.055-.518-.221-.633-.22-.058-.772-.058-.883.115-.055.345.386.69.552.806m-8.66-3.91c.44-.288.717.058 1.048.23.441.231.772.058.938-.403 0-.057 0-.115.055-.115s.11.058.165.058c.056.057.166.115.166.173.055.057.276-.058.33-.058v-.173c.111-.057.166-.115.277-.115v.058c0-.288-.055-.576-.055-.922-.221-.058-.387-.115-.552-.115a.67.67 0 0 0-.552.288c-.165-.115-.33-.23-.607-.173-.276 0-.551.115-.827-.288.055-.173.22-.346.22-.518a4 4 0 0 0-.165-.461c-.441.46-.883.921-1.27 1.382.111.519.387 1.152.718 1.267 0-.057.055-.057.11-.115Zm-.277 3.972c0-.69-.662-1.267-1.324-1.21-.607.058-.938.462-.994 1.095-.055 0-.11.058-.11.058-.055.115 0 .46.11.518.11.691.552 1.095 1.16 1.037.716 0 1.158-.634 1.158-1.498M55.78 53.798c.33.172 1.048-.058 1.214-.461.165-.288-.056-.922-.387-1.152-.276-.173-.772-.058-.938.173-.275.633-.275 1.267.11 1.44Zm2.15-5.528c.166-.404.056-1.095-.275-1.268-.276-.172-.883.173-1.104.634-.165.288 0 .806.331.921.387.173.883.058 1.049-.288Zm3.255-10.542c.387.058.607-.173.883-.576a.44.44 0 0 0 .11-.23c.111.23.277.345.442.288.166-.058.331-.288.331-.461 0-.288-.11-.46-.441-.403h-.11v-.115c-.442.46-.828.979-1.215 1.497"/><path fill="#42D4C6" d="M55.723 47.348c.441-.115.773.172 1.159-.115.496-.346 1.048-1.152.662-2.132-.166-.46-.386-.748-.662-.921a160 160 0 0 0-1.655 3.225c.165 0 .33-.057.496-.057m.221 3.916c.331 0 .607-.346.607-.634-.055-.345-.33-.633-.662-.576-.33 0-.496.23-.496.576s.22.634.551.634m7.116-5.124c-.33 0-.662.346-.662.692 0 .345.497.806.883.749.331 0 .497-.288.497-.634.055-.403-.331-.806-.718-.806Zm-2.093 7.374c.275-.173.22-.922-.056-1.037-.276-.057-.772.46-.607.749.11.288.442.403.663.288m-2.373 5.358c.11.058.552.173.663 0s-.11-.576-.221-.691c-.166-.173-.607-.058-.662.173-.055.172.055.46.22.518m-.882-1.388c.386.23.717.173.938-.173v-.057c.165-.116.22-.288.22-.519a.61.61 0 0 0-.276-.518c-.055-.173-.11-.288-.22-.346-.387-.23-.828-.058-1.104.403-.22.576 0 .98.441 1.21Zm-1.215-.516c.11-.288 0-.691-.276-.864s-.662 0-.772.288c-.11.23-.055.46.11.634-.22.115-.607.288-.552.576.056.287.442.345.663.403.22.057.441-.058.496-.403 0-.115 0-.23-.11-.346.165.058.33-.057.441-.288m.825-2.129c-.055-.404-.331-.634-.662-.576-.276.057-.552.46-.497.806a.626.626 0 0 0 .718.518c.276-.115.496-.403.441-.748m22.181-15.267c-.055-.288-.166-.518-.497-.518-.055 0-.11 0-.165.057.055-.057.055-.057.055-.115.22-.345.166-.69-.11-.864-.331-.23-.993-.057-1.214.288-.166.288-.055.75.22.922a.79.79 0 0 0 .718 0c-.055.115-.11.23-.11.345 0 .23.386.404.717.346.276-.058.386-.23.386-.46Zm-.717 4.204c0-.173-.22-.288-.331-.288-.11 0-.442.115-.386.288s.275.23.33.23c.166-.057.442-.114.387-.23m-7.504 6.512c-.055-.46-.386-.863-.717-.806-.496.058-.938.691-.883 1.21 0 .345.442.633.828.576.496-.115.828-.461.772-.98m8.496-4.264c0 .116.166.173.221.173s.11-.173.11-.173c0-.057-.055-.172-.165-.172s-.22.057-.166.172m-1.211.114c.33-.057.496-.345.496-.749-.055-.403-.22-.633-.496-.576-.331.058-.718.519-.662.807-.056.345.275.576.662.518m2.371-4.031c.22-.518 0-1.037-.552-1.267-.386-.173-.993.115-1.159.576-.22.46 0 .921.552 1.21.496.172.938 0 1.159-.519m-11.2 11.234c0 .346.166.576.552.576s.607-.23.607-.576c0-.288-.276-.576-.552-.576-.33-.057-.607.23-.607.576M54.013 55.7c.22-.403.055-1.094-.276-1.324-.33-.173-.772-.173-1.048 0-.11.288-.166.633-.276.921.055.23.166.461.276.634-.166 0-.331 0-.441.058-.166.576-.276 1.152-.387 1.728v.057l-.055.058-.165.691c.055.115.11.23.22.346.276.172.938 0 1.104-.346.11-.173.11-.346 0-.46v-.058c.055-.23.055-.461.165-.634.221-.346.276-.691.11-1.095l-.055-.057q.58-.172.828-.519m-.771 8.183a1.23 1.23 0 0 0-.331-.864c.055-.058.055-.115.11-.115.33-.577.11-.98-.276-1.383.22-.288.552-.518.276-.922-.166-.287-.441-.345-.717-.23-.056.058-.11.058-.166.115a1.03 1.03 0 0 0-.662-.23c-.166.864-.276 1.785-.386 2.707.11.288.22.519.441.634-.055.115-.055.172-.11.288-.11.46.33 1.152.772 1.21.387-.058 1.104-.577 1.049-1.21m10.262-5.472c0 .115.165.173.22.173.056 0 .11-.173.11-.173 0-.058-.054-.173-.165-.173q-.165 0-.165.173m.937-2.595c.166-.115.442-.403.442-.749.165-.057.276-.115.33-.288.166-.288 0-.748-.275-.864a.69.69 0 0 0-.828.288c-.11-.23-.11-.518-.386-.806-.11-.058-.22-.115-.276-.115-.717-.115-1.159.403-.938 1.094.11.403.331.806.552 1.152.22.46.938.519 1.38.288Zm.386 4.721c.165-.345.055-.69-.276-.921-.276-.173-.662 0-.828.288-.165.345-.11.749.22.921.332.173.718 0 .884-.288m2.096-7.947c.055-.231-.276-.577-.497-.462-.165.058-.276.288-.276.461s.166.576.387.576c.165 0 .33-.403.386-.576Zm-5.129 5.874c0-.346-.552-.691-.994-.633-.496.057-.772.46-.717.979s.386.921.773.864c.551-.115.993-.691.938-1.21m-1.602 3.688c.055-.288-.11-.921-.662-.806a.8.8 0 0 0-.22.173.4.4 0 0 0-.277-.115c-.165 0-.22.115-.276.23-.22-.058-.441-.173-.827-.058-.11.058-.22.173-.276.173-.497.518-.331 1.21.331 1.383.386.115.828.172 1.269.172.441-.115.938-.69.938-1.152M53.96 65.15c.33.057.44-.288.496-.577-.166-.345-.441-.518-.772-.345-.11.058-.221.346-.221.46.165.174.33.404.496.462Zm2.48-1.324c.056-.346-.662-.691-.827-.518-.166.172-.055.921.22.979.276 0 .608-.23.608-.46Zm11.862-4.844c.387 0 .607-.346.552-.75-.055-.287-.33-.575-.662-.518-.386.058-.662.346-.607.692 0 .345.331.576.717.576m-.937-7.141c.386 0 .938-.633.938-.979-.055-.518-.386-.749-.938-.749-.441.058-.662.404-.607.98 0 .46.276.748.607.748m2.981-4.607c0-.345-.386-.691-.662-.691-.662.058-1.104.403-1.049.864.056.403.607.864 1.049.806.276-.057.662-.633.662-.979m5.903-9.619c.607-.057 1.158-.69 1.103-1.267-.055-.518-.662-1.094-1.214-1.094-.606 0-.993.576-.938 1.325 0 .633.442 1.094 1.049 1.036m-10.43 26.727c.386-.115.331-.633.22-.806-.11-.173-.606-.23-.827.115-.055.115-.055.403.055.518.166.058.442.173.552.173m.773-2.65c.056-.173-.165-.633-.551-.633-.11 0-.331.172-.386.288-.056.172 0 .46.11.576.33.288.772-.058.827-.23ZM80.386 24.94c-.276-.114-.552-.23-.773-.345-.386-.173-.938 0-1.158.346-.166.288-.055.806.165.864.386.115.773.345 1.214.115.662-.173.717-.23.552-.98m-2.759 6.457c-.055-.403-.717-1.037-.993-.98-.386.058-.717.634-.607 1.21.055.519.442.692.993.634.332-.058.663-.519.607-.864M72.166 44.01c.055-.462.055-.865-.387-1.038-.165-.057-.441.058-.496.173-.11.23-.11.576-.055.749.22.46.607.23.938.115Zm.716 5.874a.62.62 0 0 0 .497-.634c0-.403-.276-.69-.662-.633-.331.057-.607.403-.552.69 0 .289.386.577.717.577m2.428-1.957c.055-.057 0-.288-.11-.345-.11-.058-.276.057-.386.172-.056.058-.056.346.055.404.165.115.386-.116.441-.23Zm1.712 7.024c.275 0 .44-.748.44-1.036 0-.173-.275-.576-.606-.519-.331.058-.441.519-.497.749 0 .173.387.806.663.806m-.554-15.321c-.11-.23-.33-.288-.496-.345-.276-.058-.552.23-.552.576q.082.431.496.518c.276 0 .663-.518.552-.749m-.882 2.361c.055-.173-.386-.633-.662-.576s-.276.288-.276.519c0 .288.276.518.497.403.22-.058.441-.173.441-.346m-2.592 14.112c.276-.058.552-.403.552-.691-.055-.288-.386-.576-.662-.576a.49.49 0 0 0-.497.576c0 .403.276.749.607.691m1.211-9.963c.442-.057.883-.576.883-.98-.055-.345-.607-.633-1.103-.633-.332.058-.607.461-.552.807.055.518.441.864.772.806m.663 5.239c.165-.115.22-.346.22-.576s-.11-.461-.441-.403c-.276.057-.497.172-.497.518 0 .23.552.518.718.46Zm3.863-16.123c.276.288.497.691.939.345.275-.172.386-.46.275-.806-.055-.115-.165-.288-.22-.288-.276-.058-.607 0-.938-.058-.442-.576-.993-.806-1.324-.576-.331.288-.442 1.095-.11 1.498.22.518.55.518 1.379-.115Zm3.367 2.128c.276-.576.22-1.325-.221-1.555-.497-.288-1.49-.058-1.71.46-.221.519 0 1.268.441 1.498.552.23 1.214.058 1.49-.403m-3.368-1.209c0 .115.056.403.276.403s.221-.288.221-.46c0-.059-.166-.231-.22-.231-.111.057-.276.172-.276.288Zm.662 13.999c.11 0 .276-.173.276-.288 0-.116-.165-.288-.276-.288-.11 0-.441.115-.386.288.055.23.331.288.386.288"/></g></svg>