<svg xmlns="http://www.w3.org/2000/svg" width="27" height="40"><defs><linearGradient id="b" x1="50%" x2="50%" y1="0%" y2="100%"><stop offset="0%" stop-color="#5CD331"/><stop offset="100%" stop-color="#078C04"/></linearGradient><filter id="a" width="156.8%" height="134.3%" x="-28.4%" y="-17.1%" filterUnits="objectBoundingBox"><feOffset dy="1" in="SourceAlpha" result="shadowOffsetOuter1"/><feGaussianBlur in="shadowOffsetOuter1" result="shadowBlurOuter1" stdDeviation=".9"/><feColorMatrix in="shadowBlurOuter1" result="shadowMatrixOuter1" values="0 0 0 0 0 0 0 0 0 0 0 0 0 0 0 0 0 0 0.65 0"/><feMerge><feMergeNode in="shadowMatrixOuter1"/><feMergeNode in="SourceGraphic"/></feMerge></filter></defs><g fill="none" fill-rule="evenodd" filter="url(#a)" transform="translate(4 4.5)"><path fill="url(#b)" d="M0 9a9 9 0 0 0 18 0A9 9 0 0 0 0 9" transform="translate(1 13.5)"/><path fill="#FFF" d="M0 16V0l11.6 11.608H4.554l-.152.124z"/><path fill="#000" d="M1 2.3v11.2l2.969-2.87.16-.138 5.036.008z"/><path fill="#FFF" fill-rule="nonzero" d="M10.25 17.5a.5.5 0 0 1 .5.5v3.75h3.75a.5.5 0 0 1 .5.5v.5a.5.5 0 0 1-.5.5h-3.75V27a.5.5 0 0 1-.5.5h-.5a.5.5 0 0 1-.5-.5v-3.75H5.5a.5.5 0 0 1-.5-.5v-.5a.5.5 0 0 1 .5-.5h3.75V18a.5.5 0 0 1 .5-.5z"/></g></svg>