<svg xmlns="http://www.w3.org/2000/svg" width="27" height="40"><defs><linearGradient id="b" x1="50%" x2="50%" y1="0%" y2="100%"><stop offset="0%" stop-color="#5CD331"/><stop offset="100%" stop-color="#078C04"/></linearGradient><filter id="a" width="156.8%" height="133.8%" x="-28.4%" y="-16.9%" filterUnits="objectBoundingBox"><feOffset dy="1" in="SourceAlpha" result="shadowOffsetOuter1"/><feGaussianBlur in="shadowOffsetOuter1" result="shadowBlurOuter1" stdDeviation=".9"/><feColorMatrix in="shadowBlurOuter1" result="shadowMatrixOuter1" values="0 0 0 0 0 0 0 0 0 0 0 0 0 0 0 0 0 0 0.65 0"/><feMerge><feMergeNode in="shadowMatrixOuter1"/><feMergeNode in="SourceGraphic"/></feMerge></filter></defs><g fill="none" fill-rule="evenodd" filter="url(#a)" transform="translate(4 4)"><path fill="url(#b)" d="M0 9a9 9 0 0 0 18 0A9 9 0 0 0 0 9" transform="translate(1 14)"/><path fill="#FFF" fill-rule="nonzero" stroke="#FFF" stroke-width=".5" d="M13.328 19a1.67 1.67 0 0 1 1.667 1.547l.005.125v1.656a1.67 1.67 0 0 1-1.547 1.667l-.12.005H6.237l1.592 1.516a.433.433 0 0 1 0 .642.513.513 0 0 1-.691 0L5.43 24.533a1.292 1.292 0 0 1 0-1.925l1.708-1.625a.514.514 0 0 1 .692 0 .433.433 0 0 1 0 .642l-1.621 1.541h7.124a.84.84 0 0 0 .828-.74l.006-.098v-1.656a.84.84 0 0 0-.74-.834l-.099-.005H11.25a.417.417 0 0 1-.075-.826L11.25 19z"/><path fill="#FFF" d="M0 16.5V.5l11.6 11.608H4.554l-.152.124z"/><path fill="#000" d="M1 2.8V14l2.969-2.87.16-.138L9.165 11z"/></g></svg>