<svg xmlns="http://www.w3.org/2000/svg" xml:space="preserve" width="300" height="200"><path fill="#D1A41A" d="M53.73 130c2.96 3.65 6.25 7.35 9.87 11.07-10.54 3.17-17.45 9.06-21.76 14.26-6.82 8.23-10.43 19.1-9.6 28.43H14.09c3.64-7.9 18.17-30.72 39.64-53.76M263.99 188.71h-22.07c-50.63-26.42-95.08-45.05-142.3-49.12.1-6.57 1.27-14.01 3.52-22.3l-4.35-1.17c-2.31 8.52-3.52 16.23-3.66 23.13-4.92-.33-9.87-.49-14.87-.49-4.23 0-8.09.39-11.61 1.07-4.59-4.58-8.5-8.96-11.82-13.11 21.78-22.68 57.65-43.2 88.87-50.92 8.79 29.22 27.66 49.24 50.56 62.71 1.68-.96 3.33-1.96 4.95-3.02l39.95 43.01 1.75-.15c10.91-.94 17.11 4.98 18.75 6.82 1.21 1.34 1.93 2.57 2.33 3.54"/><path fill="#FFDC76" d="M244.5 44.85c.81 39.69-19.44 71.28-47.79 87.48-48.12-23.97-57.18-84.71-48.98-117.29 2.28 12.46 6.43 20.27 15.39 24.1 19.54-5.59 46.43-6.03 66.24-.57 8.25-6 11.45-15.17 13.2-23.18 2.18 9.32 1.93 29.46 1.94 29.46"/><path d="m123.458 82.428 7.343 21.756-22.3-14.957zM101.975 91.946l7.886 13.597-16.588-8.43zM84.027 102.552l3.807 13.597-11.421-7.886zM205.585 138.992l-7.07 10.878 12.508-5.71zM216.734 151.502l-11.42 8.702 15.772-4.079zM188.996 33.479l8.43 18.492 5.44-18.764zM146.302 60.4l13.325 7.07-11.966.817zM149.565 74.814l8.158 3.263-6.798 1.903zM244.745 65.568l-10.878 4.623 8.974 1.36zM240.394 78.893l-8.43 2.448 6.798 2.447zM141.923 99.303h26.245v3.239h-26.245zM141.923 91.525h26.245v3.24h-26.245zM222.063 99.303h26.244v3.239h-26.244zM222.063 91.525h26.244v3.24h-26.244z"/><path d="M212.813 72.316h-42.768V69.4h13.31c1.638-7.017 1.962-13.724-.014-17.125-.844-1.445-2.01-2.12-3.674-2.12-7.61 0-10.753 8.046-10.884 8.388l.002-.002-2.73-1.024c.156-.42 3.965-10.279 13.612-10.279 2.692 0 4.834 1.237 6.191 3.57 2.41 4.141 2.127 11.305.495 18.592h23.354c3.103-9.115 9.581-13.413 20.405-13.413v2.915c-11.732 0-15.018 4.974-17.366 10.498h12.743l-.029 2.902z"/><path d="m214.73 86.718.019-.003c-3.459-5.1-4.555-9.455-3.108-14.413l-2.971.014c-1.035 3.301-.62 8.274 1.929 12.54h-29.675c1.805-3.616 3.48-8.025 4.702-12.54h-3.02c-1.348 4.788-3.242 9.525-5.373 13.278l-.69 1.213 16.653 10.482-9.375 6.178 1.606 2.435 10.478-6.908 11.312 7.382 1.554-2.468-10.489-6.488s15.682-10.187 16.461-10.684zm-18.86 8.808-12.317-7.755 24.071.006z"/><path d="M249.394 41.333c-.019-5.07-1.598-26.5-4.5-32.4-7.87 2.99-22.19 12.68-25.43 22.588-15.533-2.32-33.043-2.045-48.381.609-2.563-10.66-15.425-18.818-25.128-23.414-4.093 6.906-5.906 22.92-5.445 34.28l-.054.035c1.8 47.7 25.2 77.4 55.8 95.4 31.48-17.989 53.971-53.057 53.1-97.12zm-26.196-9.196.344.063zm-1.958-.338c.275.044.553.094.83.14zm23.257 12.975c.81 39.69-19.44 71.28-47.79 87.48-48.119-23.976-57.183-84.71-48.978-117.288 2.283 12.455 6.425 20.266 15.394 24.098 19.533-5.59 46.423-6.032 66.231-.569 8.255-6.002 11.456-15.17 13.204-23.18 2.184 9.322 1.932 29.456 1.939 29.46"/><path d="M265.017 182.09c-4.941-5.528-14.623-8.144-22.707-7.95-5.738-6.83-39.004-41.862-39.004-41.862L201 135.182l40.163 43.238 1.743-.15c10.912-.934 17.115 4.984 18.757 6.82 1.204 1.347 1.93 2.575 2.326 3.539h-22.075c-50.624-26.416-95.079-45.044-142.298-49.112.104-6.572 1.274-14.01 3.518-22.3l-4.343-1.176c-2.308 8.52-3.523 16.236-3.66 23.133-4.92-.326-9.873-.495-14.868-.495-4.237 0-8.096.393-11.615 1.077-4.59-4.587-8.5-8.96-11.822-13.109 21.936-22.85 58.15-43.498 89.533-51.091l-1.015-4.397c-33.792 8.149-70.78 30.335-91.39 51.762-9.566-12.91-13.36-23.504-14.488-31.532-1.424-10.14.997-19.442 7-26.9 9.396-11.674 22.748-12.496 36.476-10.187-.268 2.168.017 4.24.886 5.522 3.63 5.363 23.143 7.246 34.79 2.05-8.595-12.045-26.005-17.926-30.83-15.57-1.598.781-2.803 2.215-3.63 3.886-4.744-.848-9.457-1.48-12.902-1.455-12.108.09-21.363 4.32-28.296 12.933-6.802 8.45-9.55 18.944-7.95 30.347 1.516 10.8 6.863 22.286 15.825 34.198a306 306 0 0 0-4.313 4.723c-21.843 24.441-37.81 50.65-37.81 54.993v2.25h28.816l-.505-2.668c-1.627-8.6 1.623-19.35 8.28-27.385 4.179-5.044 11.1-10.8 21.968-13.457 9.663 9.43 21.974 19.446 35.678 29.11h21.414v-2.25c0-2.54-1.259-4.762-3.545-6.258-3.383-2.211-8.605-2.516-13.402-.88-4.573-5.093-7.137-11.897-7.69-20.347 46.473 4.115 90.926 22.883 141.084 49.085h27.598l.361-1.809c.516-2.575-.888-6.025-3.752-9.23m-223.18-26.835c-6.815 8.226-10.428 19.094-9.6 28.424H14.084c3.647-7.894 18.176-30.712 39.644-53.76 2.958 3.656 6.252 7.35 9.872 11.073-10.54 3.168-17.45 9.06-21.762 14.263"/></svg>