<svg width="32" height="32" viewBox="0 0 27 32" fill="none" xmlns="http://www.w3.org/2000/svg">
<path d="M22.4587 30.6879C20.7243 32.3711 18.8107 32.1087 16.9867 31.3151C15.0475 30.5055 13.2747 30.4543 11.2267 31.3151C8.67633 32.4159 7.32274 32.0959 5.78674 30.6879C-2.88524 21.76 -1.60525 8.15999 8.25073 7.64799C10.6411 7.77599 12.3147 8.96958 13.7227 9.06878C15.8155 8.64318 17.8187 7.42399 20.0587 7.58399C22.7499 7.80159 24.7627 8.86398 26.1067 10.7744C20.5707 14.1024 21.8827 21.3984 26.9675 23.4464C25.9499 26.1184 24.6443 28.7583 22.4555 30.7103L22.4587 30.6879ZM13.5307 7.55199C13.2715 3.58399 16.4875 0.319999 20.1867 0C20.6955 4.57599 16.0267 7.99999 13.5307 7.55199Z" fill="black"/>
</svg>
