<svg xmlns="http://www.w3.org/2000/svg" width="162" height="117" fill="none"><g clip-path="url(#a)"><rect width="162" height="117" fill="#F7F8FC" rx="3.6"/><g filter="url(#b)"><path fill="#fff" d="M27 18h135v99H27z"/><rect width="6.75" height="1.8" x="37.639" y="105.891" fill="#D3DAE6" rx=".9"/><rect width="6.75" height="1.8" x="52.94" y="105.891" fill="#D3DAE6" rx=".9"/><rect width="6.75" height="1.8" x="68.238" y="105.891" fill="#D3DAE6" rx=".9"/><rect width="6.75" height="1.8" x="83.539" y="105.891" fill="#D3DAE6" rx=".9"/><rect width="6.75" height="1.8" x="98.838" y="105.891" fill="#D3DAE6" rx=".9"/><rect width="6.75" height="1.8" x="114.139" y="105.891" fill="#D3DAE6" rx=".9"/><rect width="6.75" height="1.8" x="129.439" y="105.891" fill="#D3DAE6" rx=".9"/><rect width="6.75" height="1.8" x="144.738" y="105.891" fill="#D3DAE6" rx=".9"/><rect width="6.75" height="1.8" x="37.639" y="62.691" fill="#D3DAE6" rx=".9"/><rect width="6.75" height="1.8" x="52.94" y="62.691" fill="#D3DAE6" rx=".9"/><rect width="6.75" height="1.8" x="68.238" y="62.691" fill="#D3DAE6" rx=".9"/><rect width="6.75" height="1.8" x="83.539" y="62.691" fill="#D3DAE6" rx=".9"/><rect width="6.75" height="1.8" x="98.838" y="62.691" fill="#D3DAE6" rx=".9"/><rect width="6.75" height="1.8" x="114.139" y="62.691" fill="#D3DAE6" rx=".9"/><rect width="6.75" height="1.8" x="129.439" y="62.691" fill="#D3DAE6" rx=".9"/><rect width="6.75" height="1.8" x="144.738" y="62.691" fill="#D3DAE6" rx=".9"/><path stroke="#F1F4FA" stroke-linecap="round" stroke-linejoin="round" stroke-width="1.8" d="m38.25 48.064 16.993-14.452 8.654 7.36 7.08-6.022 15.42 13.114 26.905-22.882 21.084 17.93 6.609-5.62 9.755 8.297"/><path stroke="#F1F4FA" stroke-linecap="round" stroke-linejoin="round" stroke-width="1.8" d="m38.25 40.892 11.427 9.718 9.818-8.35 8.369 7.118 18.025-15.33 23.981 20.395 7.242-6.16 10.14 8.624c7.886-6.616 23.626-19.875 23.497-19.985M150.75 78.543 129.091 100.2l-13.244-13.244-6.389 6.388-14.802-14.802-19.321 19.32-5.922-5.92-5.92 5.92L46.82 81.193l-8.57 8.57"/><path stroke="#F1F4FA" stroke-linecap="round" stroke-linejoin="round" stroke-width="1.8" d="m150.75 74.079-19.295 19.295-6.535-6.536-8.091 8.092-12.604-12.604-11.048 11.048-20.85-20.851L49.92 94.93l-3.89-3.89-7.78 7.78"/><mask id="c" width="115" height="99" x="37" y="18" maskUnits="userSpaceOnUse" style="mask-type:alpha"><path fill="#D9D9D9" d="M37.188 18h114.75v99H37.188z"/></mask><g stroke="#6092C0" stroke-linecap="round" stroke-linejoin="round" stroke-width="1.8" mask="url(#c)"><path d="m38.25 48.064 16.993-14.452 8.654 7.36 7.08-6.022 15.42 13.114 26.905-22.882 21.084 17.93 6.609-5.62 9.755 8.297M150.75 78.543 129.091 100.2l-13.244-13.244-6.389 6.388-14.802-14.802-19.321 19.32-5.922-5.92-5.92 5.92L46.82 81.193l-8.57 8.57"/></g><mask id="d" width="125" height="99" x="27" y="18" maskUnits="userSpaceOnUse" style="mask-type:alpha"><path fill="#D9D9D9" d="M27 18h124.489v99H27z"/></mask><g stroke="#D36086" stroke-linecap="round" stroke-linejoin="round" stroke-width="1.8" mask="url(#d)"><path d="m38.25 40.892 11.427 9.718 9.818-8.35 8.369 7.118 18.025-15.33 23.981 20.395 7.242-6.16 10.14 8.624c7.886-6.616 23.626-19.875 23.497-19.985M150.75 74.078l-19.295 19.295-6.535-6.536-8.091 8.092-12.604-12.604-11.048 11.048-20.85-20.85L49.92 94.928l-3.89-3.89-7.78 7.78"/></g></g><rect width="13.5" height="1.8" x="3.15" y="27" fill="#D3DAE6" rx=".9"/><rect width="5.4" height="1.8" x="3.15" y="31.05" fill="#D3DAE6" rx=".9"/><rect width="14.85" height="1.8" x="3.15" y="35.1" fill="#D3DAE6" rx=".9"/><rect width="13.5" height="1.8" x="3.15" y="39.15" fill="#D3DAE6" rx=".9"/><rect width="15.75" height="1.8" x="3.15" y="43.2" fill="#98A2B3" rx=".9"/><rect width="10.8" height="1.8" x="3.15" y="47.25" fill="#D3DAE6" rx=".9"/><rect width="13.5" height="1.8" x="3.15" y="51.3" fill="#D3DAE6" rx=".9"/><rect width="7.2" height="1.8" x="3.15" y="55.35" fill="#D3DAE6" rx=".9"/><rect width="12.15" height="1.8" x="3.15" y="59.4" fill="#D3DAE6" rx=".9"/><rect width="16.65" height="2.7" x="3.15" y="21.15" fill="#98A2B3" rx="1.35"/><g filter="url(#e)"><path fill="#fff" d="M0 9h162v9H0z"/><path fill="#69707D" fill-opacity=".2" d="M26.1 11.25h9a.9.9 0 0 1 .9.9v2.7a.9.9 0 0 1-.9.9h-9z"/><path fill="#006DE4" fill-opacity=".2" d="M15.75 12.15a.9.9 0 0 1 .9-.9h9v4.5h-9a.9.9 0 0 1-.9-.9z"/><rect width="4.5" height="4.5" x="9" y="11.25" fill="#00BFB3" rx=".9"/><rect width="4.5" height="4.5" x="2.25" y="11.25" fill="#D3DAE6" rx=".9"/></g><path fill="#26282F" d="M0 0h162v9H0z"/><circle cx="157.501" cy="4.5" r="2.7" fill="#07C"/><circle cx="150.3" cy="4.5" r="2.7" fill="#69707D"/><rect width="38.25" height="5.4" x="62.1" y="1.8" fill="#69707D" rx="1.35"/><rect width="13.05" height="2.7" x="9.451" y="3.15" fill="#69707D" rx="1.35"/><g clip-path="url(#f)"><path fill="#fff" fill-rule="evenodd" d="M7.008 4.016a1.07 1.07 0 0 1-.003 1.23c-.127.18-.305.318-.512.394a.816.816 0 0 1-.771 1.092.8.8 0 0 1-.485-.17 1.52 1.52 0 0 1-1.702.565A1.52 1.52 0 0 1 2.48 5.672q0-.147.027-.29a1.06 1.06 0 0 1-.706-1.01 1.08 1.08 0 0 1 .708-1.01.816.816 0 0 1 .77-1.095.8.8 0 0 1 .485.17 1.525 1.525 0 0 1 1.844-.511 1.53 1.53 0 0 1 .89 1.698c.207.075.385.212.51.392m-3.084.11 1.181.542L6.298 3.62q.026-.13.025-.263a1.34 1.34 0 0 0-.938-1.278 1.33 1.33 0 0 0-1.494.522l-.198 1.033zM2.7 5.383a1.344 1.344 0 0 0 .916 1.549 1.33 1.33 0 0 0 1.497-.528l.197-1.03-.262-.503-1.187-.542zm.802-1.86-.81-.192a.645.645 0 0 1 .605-.861c.138 0 .273.046.383.13zm-.88.002a.89.89 0 0 0-.613.83.9.9 0 0 0 .574.858l1.136-1.03-.208-.447zm3.086 3.012a.63.63 0 0 1-.386-.133l.175-.92.81.19a.643.643 0 0 1-.6.863M5.488 5.27l.89.209a.9.9 0 0 0 .456-1.36.9.9 0 0 0-.418-.327L5.251 4.816z" clip-rule="evenodd"/><path fill="#FEC514" d="m3.924 4.127 1.181.542L6.298 3.62q.026-.13.026-.263a1.34 1.34 0 0 0-.939-1.278 1.33 1.33 0 0 0-1.494.522l-.198 1.033z"/><path fill="#00BFB3" d="M2.7 5.382a1.344 1.344 0 0 0 .917 1.549 1.33 1.33 0 0 0 1.497-.528l.197-1.03-.262-.503-1.187-.542z"/><path fill="#F04E98" d="m2.692 3.33.81.192.178-.924a.64.64 0 0 0-.998.327.65.65 0 0 0 .01.405"/><path fill="#1BA9F5" d="M2.623 3.524a.89.89 0 0 0-.613.83.9.9 0 0 0 .574.858l1.136-1.03-.208-.447z"/><path fill="#93C90E" d="M5.324 6.403a.63.63 0 0 0 .91-.143.64.64 0 0 0 .075-.587l-.81-.19z"/><path fill="#07C" d="m5.488 5.27.891.209a.9.9 0 0 0 .456-1.36.9.9 0 0 0-.418-.327L5.252 4.816z"/></g></g><defs><clipPath id="a"><rect width="162" height="117" fill="#fff" rx="3.6"/></clipPath><clipPath id="f"><path fill="#fff" d="M1.8 1.8h5.4v5.4H1.8z"/></clipPath><filter id="b" width="147.6" height="114.435" x="20.7" y="15.615" color-interpolation-filters="sRGB" filterUnits="userSpaceOnUse"><feFlood flood-opacity="0" result="BackgroundImageFix"/><feColorMatrix in="SourceAlpha" result="hardAlpha" values="0 0 0 0 0 0 0 0 0 0 0 0 0 0 0 0 0 0 127 0"/><feMorphology in="SourceAlpha" radius=".45" result="effect1_dropShadow_6_66533"/><feOffset dy="6.75"/><feGaussianBlur stdDeviation="3.375"/><feColorMatrix values="0 0 0 0 0 0 0 0 0 0 0 0 0 0 0 0 0 0 0.04 0"/><feBlend in2="BackgroundImageFix" result="effect1_dropShadow_6_66533"/><feColorMatrix in="SourceAlpha" result="hardAlpha" values="0 0 0 0 0 0 0 0 0 0 0 0 0 0 0 0 0 0 127 0"/><feMorphology in="SourceAlpha" radius=".45" result="effect2_dropShadow_6_66533"/><feOffset dy="2.565"/><feGaussianBlur stdDeviation="2.7"/><feColorMatrix values="0 0 0 0 0 0 0 0 0 0 0 0 0 0 0 0 0 0 0.05 0"/><feBlend in2="effect1_dropShadow_6_66533" result="effect2_dropShadow_6_66533"/><feColorMatrix in="SourceAlpha" result="hardAlpha" values="0 0 0 0 0 0 0 0 0 0 0 0 0 0 0 0 0 0 127 0"/><feMorphology in="SourceAlpha" radius=".45" result="effect3_dropShadow_6_66533"/><feOffset dy="1.17"/><feGaussianBlur stdDeviation="1.8"/><feColorMatrix values="0 0 0 0 0 0 0 0 0 0 0 0 0 0 0 0 0 0 0.06 0"/><feBlend in2="effect2_dropShadow_6_66533" result="effect3_dropShadow_6_66533"/><feColorMatrix in="SourceAlpha" result="hardAlpha" values="0 0 0 0 0 0 0 0 0 0 0 0 0 0 0 0 0 0 127 0"/><feMorphology in="SourceAlpha" radius=".45" result="effect4_dropShadow_6_66533"/><feOffset dy=".405"/><feGaussianBlur stdDeviation=".9"/><feColorMatrix values="0 0 0 0 0 0 0 0 0 0 0 0 0 0 0 0 0 0 0.08 0"/><feBlend in2="effect3_dropShadow_6_66533" result="effect4_dropShadow_6_66533"/><feBlend in="SourceGraphic" in2="effect4_dropShadow_6_66533" result="shape"/></filter><filter id="e" width="171" height="18" x="-4.5" y="6.525" color-interpolation-filters="sRGB" filterUnits="userSpaceOnUse"><feFlood flood-opacity="0" result="BackgroundImageFix"/><feColorMatrix in="SourceAlpha" result="hardAlpha" values="0 0 0 0 0 0 0 0 0 0 0 0 0 0 0 0 0 0 127 0"/><feOffset dy="2.025"/><feGaussianBlur stdDeviation="2.25"/><feColorMatrix values="0 0 0 0 0 0 0 0 0 0 0 0 0 0 0 0 0 0 0.05 0"/><feBlend in2="BackgroundImageFix" result="effect1_dropShadow_6_66533"/><feColorMatrix in="SourceAlpha" result="hardAlpha" values="0 0 0 0 0 0 0 0 0 0 0 0 0 0 0 0 0 0 127 0"/><feOffset dy=".855"/><feGaussianBlur stdDeviation=".9"/><feColorMatrix values="0 0 0 0 0 0 0 0 0 0 0 0 0 0 0 0 0 0 0.05 0"/><feBlend in2="effect1_dropShadow_6_66533" result="effect2_dropShadow_6_66533"/><feColorMatrix in="SourceAlpha" result="hardAlpha" values="0 0 0 0 0 0 0 0 0 0 0 0 0 0 0 0 0 0 127 0"/><feOffset dy=".315"/><feGaussianBlur stdDeviation=".315"/><feColorMatrix values="0 0 0 0 0 0 0 0 0 0 0 0 0 0 0 0 0 0 0.07 0"/><feBlend in2="effect2_dropShadow_6_66533" result="effect3_dropShadow_6_66533"/><feBlend in="SourceGraphic" in2="effect3_dropShadow_6_66533" result="shape"/></filter></defs></svg>