<svg fill="none" height="100" viewBox="0 0 100 100" width="100" xmlns="http://www.w3.org/2000/svg" xmlns:xlink="http://www.w3.org/1999/xlink"><linearGradient id="a"><stop offset=".18" stop-color="#0052cc"/><stop offset="1" stop-color="#2684ff"/></linearGradient><linearGradient id="b" gradientUnits="userSpaceOnUse" x1="95.0371" x2="71.8734" xlink:href="#a" y1="104.185" y2="51.0439"/><linearGradient id="c" gradientUnits="userSpaceOnUse" x1="6770.46" x2="6500.78" xlink:href="#a" y1="-77645.6" y2="-78879.7"/><clipPath id="d"><path d="m0 0h100v100h-100z"/></clipPath><g clip-path="url(#d)"><path d="m3.62631 75.3532c-1.03424 1.6866-2.19577 3.6437-3.182274 5.203-.882999 1.4921-.4089699 3.4166 1.066064 4.3279l20.6848 12.7291c.7261.4483 1.6018.5862 2.4305.3827.8287-.2034 1.541-.7311 1.9769-1.4647.8274-1.3843 1.8935-3.1823 3.055-5.1076 8.1944-13.5246 16.4365-11.8698 31.2977-4.7734l20.5097 9.7537c.7768.3697 1.6702.4092 2.4766.1094.8063-.2997 1.457-.9132 1.8036-1.7005l9.8491-22.276c.6959-1.5909-.0122-3.446-1.5911-4.1687-4.3279-2.0367-12.936-6.0941-20.6848-9.8333-27.8767-13.5405-51.5687-12.6654-69.69179 16.8184z" fill="url(#b)"/><path d="m96.3737 24.8029c1.0343-1.6866 2.1958-3.6437 3.1823-5.203.883-1.4922.409-3.4166-1.066-4.3279l-20.6848-12.72913c-.732-.49303-1.6359-.65992-2.4957-.46081s-1.5983.74635-2.0391 1.51096c-.8274 1.38429-1.8934 3.18227-3.0549 5.10755-8.1944 13.52463-16.4365 11.86993-31.2977 4.77343l-20.4461-9.70595c-.7768-.36973-1.6702-.40921-2.4765-.10944-.8064.29976-1.457.91322-1.8037 1.70057l-9.84912 22.27592c-.69586 1.591.01219 3.4461 1.59114 4.1688 4.32788 2.0366 12.93598 6.094 20.68478 9.8332 27.9404 13.5247 51.6324 12.6177 69.7554-16.8342z" fill="url(#c)"/></g></svg>