<svg xmlns="http://www.w3.org/2000/svg" width="16" height="16" fill="none"><g clip-path="url(#a)"><path fill="#136EA3" fill-rule="evenodd" d="M9.05 7.554h1.652V6.067H9.05zm-1.953 0H8.75V6.067H7.097zm-1.952 0h1.652V6.067H5.145zm-1.953 0h1.653V6.067H3.192zm-1.952 0h1.652V6.067H1.24zM3.192 5.77h1.653V4.284H3.192zm1.953 0h1.652V4.284H5.145zm1.952 0H8.75V4.284H7.097zm0-1.783H8.75V2.5H7.097zm8.57 2.7c-.361-.239-1.19-.326-1.828-.207-.082-.595-.417-1.11-1.026-1.577l-.35-.231-.234.347c-.3.446-.449 1.065-.4 1.659.022.208.091.582.308.91a2.54 2.54 0 0 1-1.21.263H.062l-.021.124c-.102.597-.1 2.457 1.12 3.887.928 1.087 2.32 1.638 4.134 1.638 3.935 0 6.847-1.793 8.21-5.052.537.01 1.69.003 2.284-1.118.015-.026.05-.093.155-.306L16 6.908z" clip-rule="evenodd"/></g><defs><clipPath id="a"><path fill="#fff" d="M0 0h16v16H0z"/></clipPath></defs></svg>