<svg xmlns="http://www.w3.org/2000/svg" width="16" height="16" fill="none"><g clip-path="url(#a)"><g fill="#621EE5" clip-path="url(#b)"><path d="M.451 11.094a.43.43 0 0 1-.32-.134.44.44 0 0 1-.131-.321.45.45 0 0 1 .131-.32.43.43 0 0 1 .32-.139.44.44 0 0 1 .32.138.45.45 0 0 1 .1.495.4.4 0 0 1-.1.147.44.44 0 0 1-.32.134M6.809 11.014H5.97L2.973 6.35a2 2 0 0 1-.186-.365h-.026q.044.4.032.801v4.228h-.681V5.167h.886l2.918 4.58q.182.285.237.392h.016a6 6 0 0 1-.042-.86V5.167h.682zM11.422 11.014h-3.1V5.167h2.956v.619h-2.26V7.73h2.106v.615H9.019v2.028h2.406zM16 5.786h-1.696v5.228h-.681V5.786h-1.677v-.62H16z"/></g></g><defs><clipPath id="a"><path fill="#fff" d="M0 0h16v16H0z"/></clipPath><clipPath id="b"><path fill="#fff" d="M0 5.167h16v6H0z"/></clipPath></defs></svg>