<svg xmlns="http://www.w3.org/2000/svg" width="24" height="24"><g fill="none" fill-rule="evenodd"><path fill="#8C4FFF" d="M0 0h24v24H0z"/><path fill="#FFF" d="m19.584 13.241-.631.776c-.765-.621-1.924-1.023-2.952-1.023v-1.938c1.138 0 2.279-.549 2.969-1.064l.597.802c-.365.273-1.612 1.106-3.167 1.236 1.147.087 2.335.522 3.184 1.211M14 12.62l-2 .5v-2.218l2 .5zM11 14h-1v-4h1v4m3.62-3.474-2.62-.655V9.5a.5.5 0 0 0-.5-.5h-2a.5.5 0 0 0-.5.5v.909C6.467 10.086 6 9.16 6 7.42V6H5v1.42c0 2.498 1.146 3.636 4 3.983v.097H5v1h4v.104c-2.783.379-4 1.67-4 4.278v.108c-.001.289-.002 1.005.003 1.058L6 17.97c-.004-.096-.001-.718 0-.976v-.112c0-1.734.542-2.891 3-3.267v.885a.5.5 0 0 0 .5.5h2a.5.5 0 0 0 .5-.5v-.349l2.62-.655a.5.5 0 0 0 .38-.485v-2a.5.5 0 0 0-.38-.485"/></g></svg>