<svg width="32" height="32" viewBox="0 0 32 32" fill="none" xmlns="http://www.w3.org/2000/svg">
<g clip-path="url(#clip0)">
<path d="M16.0503 13.2373L12.9399 9.62524" stroke="#05486D" stroke-width="0.12" stroke-miterlimit="10"/>
<path d="M6.11719 10.5283L8.62555 14.04" stroke="#05486D" stroke-width="0.06" stroke-miterlimit="10"/>
<path d="M16.0498 13.2373L19.1602 9.62524" stroke="#05486D" stroke-width="0.12" stroke-miterlimit="10"/>
<path d="M19.8628 17.1504L23.5752 14.04" stroke="#05486D" stroke-width="0.12" stroke-miterlimit="10"/>
<path d="M19.8628 17.1504L23.5752 20.4614" stroke="#05486D" stroke-width="0.12" stroke-miterlimit="10"/>
<path d="M19.1602 24.5752L16.0498 21.0635" stroke="#05486D" stroke-width="0.12" stroke-miterlimit="10"/>
<path d="M12.9399 24.5752L16.0503 21.0635" stroke="#05486D" stroke-width="0.12" stroke-miterlimit="10"/>
<path d="M8.62549 20.2608L12.1372 17.1504" stroke="#05486D" stroke-width="0.12" stroke-miterlimit="10"/>
<path d="M8.62549 14.04L12.1372 17.1504" stroke="#05486D" stroke-width="0.12" stroke-miterlimit="10"/>
<path d="M16.0502 13.2375L8.62549 14.0402" stroke="#05486D" stroke-width="0.12" stroke-miterlimit="10"/>
<path d="M16.0498 13.2375L23.5749 14.0402" stroke="#05486D" stroke-width="0.12" stroke-miterlimit="10"/>
<path d="M19.863 17.1503L19.1606 9.62524" stroke="#05486D" stroke-width="0.12" stroke-miterlimit="10"/>
<path d="M19.863 17.1504L19.1606 24.5751" stroke="#05486D" stroke-width="0.12" stroke-miterlimit="10"/>
<path d="M23.5749 20.4614L16.0498 21.0634" stroke="#05486D" stroke-width="0.12" stroke-miterlimit="10"/>
<path d="M8.62549 20.261L16.0502 21.0637" stroke="#05486D" stroke-width="0.12" stroke-miterlimit="10"/>
<path d="M12.9399 24.5751L12.1372 17.1504" stroke="#05486D" stroke-width="0.12" stroke-miterlimit="10"/>
<path d="M12.9399 9.62524L12.1372 17.1503" stroke="#05486D" stroke-width="0.12" stroke-miterlimit="10"/>
<path d="M5.11377 15.0434L8.62548 14.04" stroke="#05486D" stroke-width="0.06" stroke-miterlimit="10"/>
<path d="M9.32764 7.11719L12.9397 9.62555" stroke="#05486D" stroke-width="0.06" stroke-miterlimit="10"/>
<path d="M13.7426 5.51172L12.9399 9.62543" stroke="#05486D" stroke-width="0.06" stroke-miterlimit="10"/>
<path d="M13.7427 5.51172L19.1607 9.62543" stroke="#05486D" stroke-width="0.06" stroke-miterlimit="10"/>
<path d="M18.3579 5.51172L19.1606 9.62543" stroke="#05486D" stroke-width="0.06" stroke-miterlimit="10"/>
<path d="M22.7727 7.11719L19.1606 9.62555" stroke="#05486D" stroke-width="0.06" stroke-miterlimit="10"/>
<path d="M25.9834 10.5283L19.1606 9.62524" stroke="#05486D" stroke-width="0.06" stroke-miterlimit="10"/>
<path d="M23.5752 14.04L25.9832 10.5283" stroke="#05486D" stroke-width="0.06" stroke-miterlimit="10"/>
<path d="M23.5752 14.04L26.9866 15.0434" stroke="#05486D" stroke-width="0.06" stroke-miterlimit="10"/>
<path d="M23.5752 14.04L26.9866 19.2574" stroke="#05486D" stroke-width="0.06" stroke-miterlimit="10"/>
<path d="M18.358 5.51172L12.9399 9.62543" stroke="#05486D" stroke-width="0.06" stroke-miterlimit="10"/>
<path d="M23.5756 14.0403L22.7729 7.11719" stroke="#05486D" stroke-width="0.06" stroke-miterlimit="10"/>
<path d="M23.5752 20.4616L26.9866 19.2576" stroke="#05486D" stroke-width="0.06" stroke-miterlimit="10"/>
<path d="M23.5752 20.4615L26.9866 15.0435" stroke="#05486D" stroke-width="0.06" stroke-miterlimit="10"/>
<path d="M23.5752 20.4614L25.9832 23.7725" stroke="#05486D" stroke-width="0.06" stroke-miterlimit="10"/>
<path d="M23.5756 20.4614L22.7729 27.1838" stroke="#05486D" stroke-width="0.06" stroke-miterlimit="10"/>
<path d="M19.1606 24.5752L22.7727 27.1839" stroke="#05486D" stroke-width="0.06" stroke-miterlimit="10"/>
<path d="M19.1606 24.5751L25.9834 23.7725" stroke="#05486D" stroke-width="0.06" stroke-miterlimit="10"/>
<path d="M19.1606 24.5752L18.3579 28.7892" stroke="#05486D" stroke-width="0.06" stroke-miterlimit="10"/>
<path d="M19.1607 24.5752L13.7427 28.7892" stroke="#05486D" stroke-width="0.06" stroke-miterlimit="10"/>
<path d="M12.9399 24.5752L13.7426 28.7892" stroke="#05486D" stroke-width="0.06" stroke-miterlimit="10"/>
<path d="M12.9399 24.5752L18.358 28.7892" stroke="#05486D" stroke-width="0.06" stroke-miterlimit="10"/>
<path d="M12.9397 24.5752L9.32764 27.1839" stroke="#05486D" stroke-width="0.06" stroke-miterlimit="10"/>
<path d="M12.9399 24.5751L6.11719 23.7725" stroke="#05486D" stroke-width="0.06" stroke-miterlimit="10"/>
<path d="M8.62555 20.261L6.11719 23.7727" stroke="#05486D" stroke-width="0.06" stroke-miterlimit="10"/>
<path d="M8.62549 20.261L9.32783 27.1841" stroke="#05486D" stroke-width="0.06" stroke-miterlimit="10"/>
<path d="M8.62548 20.2609L5.11377 19.2576" stroke="#05486D" stroke-width="0.06" stroke-miterlimit="10"/>
<path d="M8.62548 14.04L5.11377 19.2574" stroke="#05486D" stroke-width="0.06" stroke-miterlimit="10"/>
<path d="M8.62548 20.2608L5.11377 15.0435" stroke="#05486D" stroke-width="0.06" stroke-miterlimit="10"/>
<path d="M9.32783 7.11719L8.62549 14.0403" stroke="#05486D" stroke-width="0.06" stroke-miterlimit="10"/>
<path d="M6.11719 10.5283L12.9399 9.62524" stroke="#05486D" stroke-width="0.06" stroke-miterlimit="10"/>
<path d="M9.32744 7.11709L6.71875 5.81274" stroke="#083D5F" stroke-width="0.05" stroke-miterlimit="10"/>
<path d="M9.32762 7.11697L9.12695 4.20728" stroke="#083D5F" stroke-width="0.05" stroke-miterlimit="10"/>
<path d="M13.7423 5.51162L9.12695 4.20728" stroke="#083D5F" stroke-width="0.05" stroke-miterlimit="10"/>
<path d="M13.7425 5.51178L11.7358 3.00342" stroke="#083D5F" stroke-width="0.05" stroke-miterlimit="10"/>
<path d="M13.7427 5.51175L14.5454 2.60205" stroke="#083D5F" stroke-width="0.05" stroke-miterlimit="10"/>
<path d="M9.32764 7.11713L11.7357 3.00342" stroke="#083D5F" stroke-width="0.05" stroke-miterlimit="10"/>
<path d="M18.3576 5.51175L14.5449 2.60205" stroke="#083D5F" stroke-width="0.05" stroke-miterlimit="10"/>
<path d="M18.3579 5.51174L17.5552 2.50171" stroke="#083D5F" stroke-width="0.05" stroke-miterlimit="10"/>
<path d="M13.7427 5.51174L17.5554 2.50171" stroke="#083D5F" stroke-width="0.05" stroke-miterlimit="10"/>
<path d="M18.3579 5.51178L20.3646 3.00342" stroke="#083D5F" stroke-width="0.05" stroke-miterlimit="10"/>
<path d="M22.7728 7.11713L20.3647 3.00342" stroke="#083D5F" stroke-width="0.05" stroke-miterlimit="10"/>
<path d="M22.7729 7.11697L23.074 4.20728" stroke="#083D5F" stroke-width="0.05" stroke-miterlimit="10"/>
<path d="M18.3579 5.51162L23.0736 4.20728" stroke="#083D5F" stroke-width="0.05" stroke-miterlimit="10"/>
<path d="M22.7729 7.11708L25.482 5.7124" stroke="#083D5F" stroke-width="0.05" stroke-miterlimit="10"/>
<path d="M22.7729 7.11719L27.4887 7.81953" stroke="#083D5F" stroke-width="0.05" stroke-miterlimit="10"/>
<path d="M25.9834 10.5284L27.4884 7.81934" stroke="#083D5F" stroke-width="0.05" stroke-miterlimit="10"/>
<path d="M25.9836 10.5285L25.4819 5.7124" stroke="#083D5F" stroke-width="0.05" stroke-miterlimit="10"/>
<path d="M25.9834 10.5285L29.0938 10.2275" stroke="#083D5F" stroke-width="0.05" stroke-miterlimit="10"/>
<path d="M25.9834 10.5283L30.1974 12.836" stroke="#083D5F" stroke-width="0.05" stroke-miterlimit="10"/>
<path d="M26.9868 15.0436L29.0938 10.2275" stroke="#083D5F" stroke-width="0.05" stroke-miterlimit="10"/>
<path d="M26.9868 15.0433L30.1975 12.8359" stroke="#083D5F" stroke-width="0.05" stroke-miterlimit="10"/>
<path d="M26.9868 15.0435L30.5989 15.7458" stroke="#083D5F" stroke-width="0.05" stroke-miterlimit="10"/>
<path d="M26.9868 19.2576L30.5989 15.7458" stroke="#083D5F" stroke-width="0.05" stroke-miterlimit="10"/>
<path d="M26.9868 19.2575L30.6992 18.5552" stroke="#083D5F" stroke-width="0.05" stroke-miterlimit="10"/>
<path d="M26.9868 15.0435L30.6992 18.5552" stroke="#083D5F" stroke-width="0.05" stroke-miterlimit="10"/>
<path d="M26.9868 19.2576L30.0972 21.3646" stroke="#083D5F" stroke-width="0.05" stroke-miterlimit="10"/>
<path d="M25.9834 23.7725L30.0971 21.3645" stroke="#083D5F" stroke-width="0.05" stroke-miterlimit="10"/>
<path d="M25.9834 23.7725L29.0938 24.0735" stroke="#083D5F" stroke-width="0.05" stroke-miterlimit="10"/>
<path d="M26.9868 19.2576L29.0938 24.0736" stroke="#083D5F" stroke-width="0.05" stroke-miterlimit="10"/>
<path d="M25.9834 23.7725L27.4884 26.4815" stroke="#083D5F" stroke-width="0.05" stroke-miterlimit="10"/>
<path d="M25.9836 23.7725L25.4819 28.4882" stroke="#083D5F" stroke-width="0.05" stroke-miterlimit="10"/>
<path d="M25.482 28.4882L22.7729 27.1838" stroke="#083D5F" stroke-width="0.05" stroke-miterlimit="10"/>
<path d="M22.7729 27.1838L22.9736 30.0935" stroke="#083D5F" stroke-width="0.05" stroke-miterlimit="10"/>
<path d="M22.7729 27.1838L27.4887 26.4814" stroke="#083D5F" stroke-width="0.05" stroke-miterlimit="10"/>
<path d="M22.7728 27.1838L20.3647 31.2976" stroke="#083D5F" stroke-width="0.05" stroke-miterlimit="10"/>
<path d="M18.3579 28.7893L20.3646 31.2977" stroke="#083D5F" stroke-width="0.05" stroke-miterlimit="10"/>
<path d="M18.3579 28.7893L22.9733 30.0937" stroke="#083D5F" stroke-width="0.05" stroke-miterlimit="10"/>
<path d="M18.3579 28.7893L17.5552 31.7993" stroke="#083D5F" stroke-width="0.05" stroke-miterlimit="10"/>
<path d="M18.3576 28.7893L14.5449 31.7993" stroke="#083D5F" stroke-width="0.05" stroke-miterlimit="10"/>
<path d="M13.7427 28.7893L14.5454 31.7993" stroke="#083D5F" stroke-width="0.05" stroke-miterlimit="10"/>
<path d="M13.7427 28.7893L17.5554 31.7993" stroke="#083D5F" stroke-width="0.05" stroke-miterlimit="10"/>
<path d="M13.7425 28.7893L11.7358 31.2977" stroke="#083D5F" stroke-width="0.05" stroke-miterlimit="10"/>
<path d="M9.32764 27.1838L11.7357 31.2976" stroke="#083D5F" stroke-width="0.05" stroke-miterlimit="10"/>
<path d="M13.7423 28.7893L9.12695 30.194" stroke="#083D5F" stroke-width="0.05" stroke-miterlimit="10"/>
<path d="M9.32762 27.1838L9.12695 30.1939" stroke="#083D5F" stroke-width="0.05" stroke-miterlimit="10"/>
<path d="M9.32768 27.1838L6.61865 28.5885" stroke="#083D5F" stroke-width="0.05" stroke-miterlimit="10"/>
<path d="M6.11719 23.7725L6.61886 28.5885" stroke="#083D5F" stroke-width="0.05" stroke-miterlimit="10"/>
<path d="M9.32802 27.1838L4.6123 26.4814" stroke="#083D5F" stroke-width="0.05" stroke-miterlimit="10"/>
<path d="M6.11732 23.7725L4.6123 26.4815" stroke="#083D5F" stroke-width="0.05" stroke-miterlimit="10"/>
<path d="M6.1172 23.7725L3.00684 24.0735" stroke="#083D5F" stroke-width="0.05" stroke-miterlimit="10"/>
<path d="M6.11737 23.7725L1.90332 21.3645" stroke="#083D5F" stroke-width="0.05" stroke-miterlimit="10"/>
<path d="M5.11402 19.2576L1.90332 21.3646" stroke="#083D5F" stroke-width="0.05" stroke-miterlimit="10"/>
<path d="M5.11374 19.2575L1.40137 18.5552" stroke="#083D5F" stroke-width="0.05" stroke-miterlimit="10"/>
<path d="M5.11386 19.2576L3.00684 24.0736" stroke="#083D5F" stroke-width="0.05" stroke-miterlimit="10"/>
<path d="M5.11374 15.0435L1.40137 18.5552" stroke="#083D5F" stroke-width="0.05" stroke-miterlimit="10"/>
<path d="M5.11374 19.2576L1.40137 15.7458" stroke="#083D5F" stroke-width="0.05" stroke-miterlimit="10"/>
<path d="M5.11379 15.0435L2.00342 12.9365" stroke="#083D5F" stroke-width="0.05" stroke-miterlimit="10"/>
<path d="M5.11374 15.0435L1.40137 15.7458" stroke="#083D5F" stroke-width="0.05" stroke-miterlimit="10"/>
<path d="M5.11411 15.0436L3.10742 10.2275" stroke="#083D5F" stroke-width="0.05" stroke-miterlimit="10"/>
<path d="M6.11746 10.5285L3.10742 10.2275" stroke="#083D5F" stroke-width="0.05" stroke-miterlimit="10"/>
<path d="M6.11713 10.5283L2.00342 12.9363" stroke="#083D5F" stroke-width="0.05" stroke-miterlimit="10"/>
<path d="M6.11708 10.5284L4.7124 7.91968" stroke="#083D5F" stroke-width="0.05" stroke-miterlimit="10"/>
<path d="M6.11719 10.5285L6.71919 5.81274" stroke="#083D5F" stroke-width="0.05" stroke-miterlimit="10"/>
<path d="M9.32779 7.11719L4.7124 7.91987" stroke="#083D5F" stroke-width="0.05" stroke-miterlimit="10"/>
<path d="M13.9431 15.2441H10.3311V18.8361H13.9431V15.2441Z" fill="#006DA8"/>
<path d="M17.7561 11.3311H14.144V14.923H17.7561V11.3311Z" fill="#006DA8"/>
<path d="M17.7561 19.1572H14.144V22.7492H17.7561V19.1572Z" fill="#006DA8"/>
<path d="M21.6687 15.2441H18.0566V18.8361H21.6687V15.2441Z" fill="#006DA8"/>
<path d="M20.3648 8.42139H17.8564V10.8996H20.3648V8.42139Z" fill="#2F77BC"/>
<path d="M14.1436 8.32104H11.6353V10.7993H14.1436V8.32104Z" fill="#2F77BC"/>
<path d="M9.82965 12.8359H7.32129V15.3142H9.82965V12.8359Z" fill="#2F77BC"/>
<path d="M9.82965 18.9565H7.32129V21.4348H9.82965V18.9565Z" fill="#2F77BC"/>
<path d="M24.6788 18.9565H22.1704V21.4348H24.6788V18.9565Z" fill="#2F77BC"/>
<path d="M24.6788 12.7356H22.1704V15.2139H24.6788V12.7356Z" fill="#2F77BC"/>
<path d="M6.9198 9.62524H5.31445V11.3008H6.9198V9.62524Z" fill="#139BD7"/>
<path d="M10.1307 6.21387H8.52539V7.88945H10.1307V6.21387Z" fill="#139BD7"/>
<path d="M14.4447 4.60864H12.8394V6.28423H14.4447V4.60864Z" fill="#139BD7"/>
<path d="M5.91639 14.1404H4.31104V15.816H5.91639V14.1404Z" fill="#139BD7"/>
<path d="M26.7858 9.82617H25.0801V11.4717H26.7858V9.82617Z" fill="#139BD7"/>
<path d="M23.5753 6.41479H21.8696V8.06028H23.5753V6.41479Z" fill="#139BD7"/>
<path d="M19.2609 4.80933H17.5552V6.45481H19.2609V4.80933Z" fill="#139BD7"/>
<path d="M27.6888 14.4414H26.0835V16.0869H27.6888V14.4414Z" fill="#139BD7"/>
<path d="M14.1436 23.2708H11.6353V25.749H14.1436V23.2708Z" fill="#2F77BC"/>
<path d="M20.2642 23.2708H17.7559V25.749H20.2642V23.2708Z" fill="#2F77BC"/>
<path d="M26.6854 22.7693H25.0801V24.4449H26.6854V22.7693Z" fill="#139BD7"/>
<path d="M23.3749 26.0803H21.7695V27.7559H23.3749V26.0803Z" fill="#139BD7"/>
<path d="M19.0604 27.6855H17.4551V29.3611H19.0604V27.6855Z" fill="#139BD7"/>
<path d="M27.5887 18.2542H25.9834V19.9297H27.5887V18.2542Z" fill="#139BD7"/>
<path d="M6.91955 22.97H5.21387V24.6155H6.91955V22.97Z" fill="#139BD7"/>
<path d="M10.0304 26.3813H8.32471V28.0268H10.0304V26.3813Z" fill="#139BD7"/>
<path d="M14.4449 27.9868H12.7393V29.6323H14.4449V27.9868Z" fill="#139BD7"/>
<path d="M5.8158 18.3545H4.21045V20H5.8158V18.3545Z" fill="#139BD7"/>
<path d="M7.1203 5.31104H6.21729V6.24415H7.1203V5.31104Z" fill="#03A9DA"/>
<path d="M1.90301 15.2441H1V16.1773H1.90301V15.2441Z" fill="#03A9DA"/>
<path d="M25.7824 5.21069H24.8794V6.1438H25.7824V5.21069Z" fill="#03A9DA"/>
<path d="M2.50506 12.3345H1.60205V13.2676H2.50506V12.3345Z" fill="#03A9DA"/>
<path d="M12.1374 2.50171H11.2344V3.43482H12.1374V2.50171Z" fill="#03A9DA"/>
<path d="M3.50848 9.72583H2.60547V10.6589H3.50848V9.72583Z" fill="#03A9DA"/>
<path d="M5.11346 7.31763H4.21045V8.25074H5.11346V7.31763Z" fill="#03A9DA"/>
<path d="M9.6286 3.80615H8.72559V4.70916H9.6286V3.80615Z" fill="#03A9DA"/>
<path d="M15.0471 2.10034H14.144V3.00335H15.0471V2.10034Z" fill="#03A9DA"/>
<path d="M23.3742 3.60522H22.4712V4.53834H23.3742V3.60522Z" fill="#03A9DA"/>
<path d="M29.2946 9.72583H28.3916V10.6589H29.2946V9.72583Z" fill="#03A9DA"/>
<path d="M30.4982 12.3345H29.5952V13.2676H30.4982V12.3345Z" fill="#03A9DA"/>
<path d="M27.6891 7.31763H26.7861V8.25074H27.6891V7.31763Z" fill="#03A9DA"/>
<path d="M30.8996 15.1438H29.9966V16.0769H30.8996V15.1438Z" fill="#03A9DA"/>
<path d="M17.8561 2H16.9531V2.93311H17.8561V2Z" fill="#03A9DA"/>
<path d="M20.6652 2.60205H19.7622V3.53516H20.6652V2.60205Z" fill="#03A9DA"/>
<path d="M7.1203 5.31104H6.21729V6.24415H7.1203V5.31104Z" fill="#03A9DA"/>
<path d="M1.90301 15.2441H1V16.1773H1.90301V15.2441Z" fill="#03A9DA"/>
<path d="M25.7824 5.21069H24.8794V6.1438H25.7824V5.21069Z" fill="#03A9DA"/>
<path d="M2.50506 12.3345H1.60205V13.2676H2.50506V12.3345Z" fill="#03A9DA"/>
<path d="M12.1374 2.50171H11.2344V3.43482H12.1374V2.50171Z" fill="#03A9DA"/>
<path d="M3.50848 9.72583H2.60547V10.6589H3.50848V9.72583Z" fill="#03A9DA"/>
<path d="M5.11346 7.31763H4.21045V8.25074H5.11346V7.31763Z" fill="#03A9DA"/>
<path d="M9.6286 3.80615H8.72559V4.70916H9.6286V3.80615Z" fill="#03A9DA"/>
<path d="M15.0471 2.10034H14.144V3.00335H15.0471V2.10034Z" fill="#03A9DA"/>
<path d="M23.3742 3.60522H22.4712V4.53834H23.3742V3.60522Z" fill="#03A9DA"/>
<path d="M29.2946 9.72583H28.3916V10.6589H29.2946V9.72583Z" fill="#03A9DA"/>
<path d="M30.4982 12.3345H29.5952V13.2676H30.4982V12.3345Z" fill="#03A9DA"/>
<path d="M27.6891 7.31763H26.7861V8.25074H27.6891V7.31763Z" fill="#03A9DA"/>
<path d="M30.8996 15.1438H29.9966V16.0769H30.8996V15.1438Z" fill="#03A9DA"/>
<path d="M17.8561 2H16.9531V2.93311H17.8561V2Z" fill="#03A9DA"/>
<path d="M20.6652 2.60205H19.7622V3.53516H20.6652V2.60205Z" fill="#03A9DA"/>
<path d="M25.6823 27.8862H24.7793V28.8193H25.6823V27.8862Z" fill="#03A9DA"/>
<path d="M31.0002 17.9531H30.0972V18.8862H31.0002V17.9531Z" fill="#03A9DA"/>
<path d="M7.1203 27.9868H6.21729V28.9199H7.1203V27.9868Z" fill="#03A9DA"/>
<path d="M30.3981 20.7627H29.4951V21.6958H30.3981V20.7627Z" fill="#03A9DA"/>
<path d="M20.6652 30.5955H19.7622V31.5286H20.6652V30.5955Z" fill="#03A9DA"/>
<path d="M29.2946 23.3711H28.3916V24.3042H29.2946V23.3711Z" fill="#03A9DA"/>
<path d="M27.6891 25.7793H26.7861V26.7124H27.6891V25.7793Z" fill="#03A9DA"/>
<path d="M23.2741 29.7925H22.3711V30.6955H23.2741V29.7925Z" fill="#03A9DA"/>
<path d="M17.756 31.4983H16.853V32.4013H17.756V31.4983Z" fill="#03A9DA"/>
<path d="M9.4284 29.4917H8.52539V30.4248H9.4284V29.4917Z" fill="#03A9DA"/>
<path d="M3.50848 23.4717H2.60547V24.4048H3.50848V23.4717Z" fill="#03A9DA"/>
<path d="M2.30438 20.863H1.40137V21.7961H2.30438V20.863Z" fill="#03A9DA"/>
<path d="M5.01336 25.8796H4.11035V26.8127H5.01336V25.8796Z" fill="#03A9DA"/>
<path d="M1.90301 17.9531H1V18.8862H1.90301V17.9531Z" fill="#03A9DA"/>
<path d="M14.9465 31.4983H14.0435V32.4314H14.9465V31.4983Z" fill="#03A9DA"/>
<path d="M12.1374 30.5955H11.2344V31.5286H12.1374V30.5955Z" fill="#03A9DA"/>
</g>
<defs>
<clipPath id="clip0">
<path d="M0 0H32V32H0V0Z" fill="white"/>
</clipPath>
</defs>
</svg>
