<svg xmlns="http://www.w3.org/2000/svg" width="32" height="32" fill="none"><g clip-path="url(#a)"><path stroke="#05486D" stroke-miterlimit="10" stroke-width=".12" d="m16.05 13.237-3.11-3.612"/><path stroke="#05486D" stroke-miterlimit="10" stroke-width=".06" d="m6.117 10.528 2.509 3.512"/><path stroke="#05486D" stroke-miterlimit="10" stroke-width=".12" d="m16.05 13.237 3.11-3.612M19.863 17.15l3.712-3.11M19.863 17.15l3.712 3.311M19.16 24.575l-3.11-3.511M12.94 24.575l3.11-3.511M8.625 20.26l3.512-3.11M8.625 14.04l3.512 3.11M16.05 13.238l-7.425.802M16.05 13.238l7.525.802M19.863 17.15l-.702-7.525M19.863 17.15l-.702 7.425M23.575 20.461l-7.525.602M8.625 20.261l7.425.803M12.94 24.575l-.803-7.425M12.94 9.625l-.803 7.525"/><path stroke="#05486D" stroke-miterlimit="10" stroke-width=".06" d="m5.114 15.043 3.511-1.003M9.328 7.117l3.612 2.509M13.743 5.512l-.803 4.113M13.743 5.512l5.418 4.113M18.358 5.512l.803 4.113M22.773 7.117 19.16 9.626M25.983 10.528l-6.822-.903M23.575 14.04l2.408-3.512M23.575 14.04l3.412 1.003M23.575 14.04l3.412 5.217M18.358 5.512 12.94 9.625M23.576 14.04l-.803-6.923M23.575 20.462l3.412-1.204M23.575 20.462l3.412-5.418M23.575 20.461l2.408 3.312M23.576 20.461l-.803 6.723M19.16 24.575l3.613 2.609M19.16 24.575l6.823-.802M19.16 24.575l-.802 4.214M19.16 24.575l-5.417 4.214M12.94 24.575l.803 4.214M12.94 24.575l5.418 4.214M12.94 24.575l-3.612 2.609M12.94 24.575l-6.823-.802M8.626 20.261l-2.509 3.512M8.625 20.261l.703 6.923M8.625 20.26l-3.511-1.002M8.625 14.04l-3.511 5.217M8.625 20.26l-3.511-5.217M9.328 7.117l-.703 6.923M6.117 10.528l6.823-.903"/><path stroke="#083D5F" stroke-miterlimit="10" stroke-width=".05" d="M9.327 7.117 6.72 5.813M9.328 7.117l-.201-2.91M13.742 5.512 9.127 4.207M13.743 5.512l-2.007-2.509M13.743 5.512l.802-2.91M9.328 7.117l2.408-4.114M18.358 5.512l-3.813-2.91M18.358 5.512l-.803-3.01M13.743 5.512l3.812-3.01M18.358 5.512l2.007-2.509M22.773 7.117l-2.408-4.114M22.773 7.117l.301-2.91M18.358 5.512l4.716-1.305M22.773 7.117l2.709-1.405M22.773 7.117l4.716.703M25.983 10.528l1.505-2.709M25.984 10.529l-.502-4.817M25.983 10.529l3.11-.302M25.983 10.528l4.214 2.308M26.987 15.044l2.107-4.817M26.987 15.043l3.21-2.207M26.987 15.044l3.612.702M26.987 19.258l3.612-3.512M26.987 19.258l3.712-.703M26.987 15.044l3.712 3.511M26.987 19.258l3.11 2.107M25.983 23.773l4.114-2.408M25.983 23.773l3.11.3M26.987 19.258l2.107 4.816M25.983 23.773l1.505 2.709M25.984 23.773l-.502 4.715M25.482 28.488l-2.71-1.304M22.773 27.184l.2 2.91M22.773 27.184l4.716-.703M22.773 27.184l-2.408 4.114M18.358 28.79l2.007 2.508M18.358 28.79l4.615 1.304M18.358 28.79l-.803 3.01M18.358 28.79l-3.813 3.01M13.743 28.79l.802 3.01M13.743 28.79l3.812 3.01M13.743 28.79l-2.007 2.508M9.328 27.184l2.408 4.114M13.742 28.79l-4.615 1.404M9.328 27.184l-.201 3.01M9.328 27.184l-2.71 1.404M6.117 23.773l.502 4.816M9.328 27.184l-4.716-.703M6.117 23.773l-1.505 2.709M6.117 23.773l-3.11.3M6.117 23.773l-4.214-2.408M5.114 19.258l-3.21 2.107M5.114 19.258 1.4 18.555M5.114 19.258l-2.107 4.816M5.114 15.044 1.4 18.555M5.114 19.258 1.4 15.746M5.114 15.044l-3.11-2.107M5.114 15.044l-3.713.702M5.114 15.044l-2.007-4.817M6.117 10.529l-3.01-.302M6.117 10.528l-4.114 2.408M6.117 10.528 4.712 7.92M6.117 10.529l.602-4.716M9.328 7.117l-4.616.803"/><path fill="#006DA8" d="M13.943 15.244h-3.612v3.592h3.612zM17.756 11.331h-3.612v3.592h3.612zM17.756 19.157h-3.612v3.592h3.612zM21.669 15.244h-3.612v3.592h3.612z"/><path fill="#2F77BC" d="M20.365 8.421h-2.509V10.9h2.509zM14.144 8.321h-2.509v2.478h2.509zM9.83 12.836H7.32v2.478H9.83zM9.83 18.957H7.32v2.478H9.83zM24.679 18.957H22.17v2.478h2.509zM24.679 12.736H22.17v2.478h2.509z"/><path fill="#139BD7" d="M6.92 9.625H5.314v1.676H6.92zM10.13 6.214H8.526v1.675h1.606zM14.445 4.609h-1.606v1.675h1.606zM5.916 14.14H4.311v1.676h1.605zM26.786 9.826H25.08v1.646h1.706zM23.575 6.415H21.87V8.06h1.705zM19.26 4.81h-1.705v1.645h1.706zM27.689 14.441h-1.605v1.646h1.605z"/><path fill="#2F77BC" d="M14.144 23.27h-2.509v2.479h2.509zM20.264 23.27h-2.508v2.479h2.508z"/><path fill="#139BD7" d="M26.685 22.77H25.08v1.675h1.605zM23.375 26.08H21.77v1.676h1.605zM19.06 27.686h-1.605v1.675h1.605zM27.589 18.254h-1.606v1.676h1.606zM6.92 22.97H5.214v1.646H6.92zM10.03 26.381H8.325v1.646h1.705zM14.445 27.987h-1.706v1.645h1.706zM5.816 18.355H4.21V20h1.606z"/><path fill="#03A9DA" d="M7.12 5.311h-.903v.933h.903zM1.903 15.244H1v.933h.903zM25.782 5.21h-.903v.934h.903zM2.505 12.335h-.903v.933h.903zM12.137 2.502h-.903v.933h.903zM3.508 9.726h-.903v.933h.903zM5.113 7.318H4.21v.933h.903zM9.629 3.806h-.903v.903h.903zM15.047 2.1h-.903v.903h.903zM23.374 3.605h-.903v.933h.903zM29.295 9.726h-.903v.933h.903zM30.498 12.335h-.903v.933h.903zM27.69 7.318h-.904v.933h.903zM30.9 15.144h-.903v.933h.903zM17.856 2h-.903v.933h.903zM20.665 2.602h-.903v.933h.903z"/><path fill="#03A9DA" d="M7.12 5.311h-.903v.933h.903zM1.903 15.244H1v.933h.903zM25.782 5.21h-.903v.934h.903zM2.505 12.335h-.903v.933h.903zM12.137 2.502h-.903v.933h.903zM3.508 9.726h-.903v.933h.903zM5.113 7.318H4.21v.933h.903zM9.629 3.806h-.903v.903h.903zM15.047 2.1h-.903v.903h.903zM23.374 3.605h-.903v.933h.903zM29.295 9.726h-.903v.933h.903zM30.498 12.335h-.903v.933h.903zM27.69 7.318h-.904v.933h.903zM30.9 15.144h-.903v.933h.903zM17.856 2h-.903v.933h.903zM20.665 2.602h-.903v.933h.903zM25.682 27.886h-.903v.933h.903zM31 17.953h-.903v.933H31zM7.12 27.987h-.903v.933h.903zM30.398 20.763h-.903v.933h.903zM20.665 30.596h-.903v.933h.903zM29.295 23.371h-.903v.933h.903zM27.69 25.78h-.904v.932h.903zM23.274 29.793h-.903v.902h.903zM17.756 31.498h-.903v.903h.903zM9.428 29.492h-.903v.933h.903zM3.508 23.472h-.903v.933h.903zM2.304 20.863h-.903v.933h.903zM5.013 25.88H4.11v.933h.903zM1.903 17.953H1v.933h.903zM14.947 31.498h-.903v.933h.902zM12.137 30.596h-.903v.933h.903z"/></g><defs><clipPath id="a"><path fill="#fff" d="M0 0h32v32H0z"/></clipPath></defs></svg>