<svg xmlns="http://www.w3.org/2000/svg" width="24" height="24" fill="none"><path fill="#3174B9" fill-rule="evenodd" d="M8.797 18.56s-.932.533.664.714c1.934.217 2.922.185 5.053-.21 0 0 .561.345 1.344.643-4.778 2.014-10.814-.116-7.061-1.147m-.584-2.627s-1.046.76.552.923c2.066.21 3.697.227 6.521-.307 0 0 .39.39 1.004.602-5.777 1.661-12.21.13-8.077-1.218" clip-rule="evenodd"/><path fill="#CA3132" fill-rule="evenodd" d="M13.134 11.475c1.178 1.334-.308 2.533-.308 2.533s2.99-1.517 1.616-3.418C13.16 8.818 12.177 7.938 17.5 4.903c0 0-8.356 2.05-4.366 6.572" clip-rule="evenodd"/><path fill="#3174B9" fill-rule="evenodd" d="M19.454 20.504s.69.56-.76.992c-2.758.821-11.479 1.069-13.901.033-.87-.373.762-.89 1.276-.999.536-.114.842-.093.842-.093-.969-.67-6.26 1.317-2.687 1.887 9.74 1.553 17.756-.699 15.23-1.82M9.245 13.21s-4.435 1.037-1.57 1.413c1.21.16 3.62.123 5.867-.062 1.836-.152 3.679-.476 3.679-.476s-.647.273-1.116.587c-4.504 1.165-13.206.622-10.7-.569 2.118-1.007 3.84-.893 3.84-.893m7.958 4.374c4.579-2.34 2.462-4.588.983-4.285-.361.074-.523.138-.523.138s.135-.207.39-.296c2.925-1.01 5.173 2.98-.942 4.561 0 0 .07-.062.092-.118" clip-rule="evenodd"/><path fill="#CA3132" fill-rule="evenodd" d="M14.442 0s2.535 2.495-2.405 6.33c-3.963 3.077-.904 4.832-.002 6.837-2.313-2.052-4.01-3.86-2.871-5.54 1.67-2.468 6.301-3.665 5.278-7.627" clip-rule="evenodd"/><path fill="#3174B9" fill-rule="evenodd" d="M9.696 23.925c4.394.276 11.144-.154 11.304-2.2 0 0-.307.776-3.632 1.391-3.751.695-8.38.614-11.123.168 0 0 .562.458 3.45.64" clip-rule="evenodd"/></svg>