<svg xmlns="http://www.w3.org/2000/svg" width="16" height="16" fill="none"><g clip-path="url(#a)"><path fill="#000" d="m1.333 11.497 1.626-.99c.313.56.598 1.033 1.283 1.033.655 0 1.069-.258 1.069-1.262v-6.83h1.996v6.858c0 2.08-1.212 3.027-2.98 3.027-1.596 0-2.523-.832-2.994-1.836m7.058-.215 1.625-.947c.428.703.984 1.22 1.967 1.22.827 0 1.355-.417 1.355-.99 0-.69-.542-.933-1.454-1.335l-.5-.215C9.945 8.398 8.99 7.623 8.99 5.988c0-1.507 1.14-2.655 2.922-2.655 1.269 0 2.181.445 2.837 1.607l-1.554 1.005c-.342-.617-.713-.861-1.283-.861-.585 0-.955.373-.955.86 0 .603.37.847 1.226 1.22l.499.216c1.696.731 2.651 1.477 2.651 3.156 0 1.808-1.411 2.798-3.307 2.798-1.853 0-3.05-.89-3.635-2.052"/></g><defs><clipPath id="a"><path fill="#fff" d="M0 0h16v16H0z"/></clipPath></defs></svg>