<svg xmlns="http://www.w3.org/2000/svg" width="32" height="32" viewBox="0 0 32 32">
  <path d="M15.5646755,17.622594 C14.3918452,17.622594 13.3403844,18.1422037 12.6203539,18.9602753 L10.7753157,17.6541145 C10.971174,17.1148684 11.0836316,16.5358415 11.0836316,15.9297874 C11.0836316,15.33424 10.9750868,14.7649232 10.7856774,14.2336471 L12.6265852,12.9413262 C13.3465437,13.7552674 14.3952507,14.2720513 15.5646755,14.2720513 C17.7294051,14.2720513 19.4908249,12.5109142 19.4908249,10.3458866 C19.4908249,8.18085899 17.7294051,6.41972245 15.5646755,6.41972245 C13.3999464,6.41972245 11.6385266,8.18085899 11.6385266,10.3458866 C11.6385266,10.7334018 11.6970742,11.1070772 11.8021403,11.460971 L9.96000103,12.7539449 C9.19048061,11.7992863 8.08250112,11.1327279 6.82011088,10.9292609 L6.82011088,8.70909159 C8.59855813,8.33556068 9.93855275,6.75542894 9.93855275,4.86734274 C9.93855275,2.70231497 8.17713359,0.94117843 6.01240411,0.94117843 C3.84767458,0.94117843 2.08625504,2.70231497 2.08625504,4.86734274 C2.08625504,6.73014042 3.39154164,8.29078075 5.13441158,8.69097623 L5.13441158,10.9399848 C2.75585388,11.3574988 0.941176519,13.4333281 0.941176519,15.9297874 C0.941176519,18.4384197 2.77382382,20.5218575 5.16955446,20.9251689 L5.16955446,23.299968 C3.4088595,23.686976 2.08625504,25.2571812 2.08625504,27.1326595 C2.08625504,29.2976871 3.84767458,31.0588235 6.01240411,31.0588235 C8.17713359,31.0588235 9.93855275,29.2976871 9.93855275,27.1326595 C9.93855275,25.2571812 8.61594854,23.686976 6.85525377,23.299968 L6.85525377,20.925097 C8.09279026,20.7167021 9.18040849,20.0633318 9.94203083,19.1298313 L11.7993871,20.4444706 C11.6962768,20.795176 11.6385266,21.1651562 11.6385266,21.5487587 C11.6385266,23.7137863 13.3999464,25.4749227 15.5646755,25.4749227 C17.7294051,25.4749227 19.4908249,23.7137863 19.4908249,21.5487587 C19.4908249,19.383731 17.7294051,17.622594 15.5646755,17.622594 Z M15.5646755,8.44229398 C16.6143976,8.44229398 17.4681888,9.29645062 17.4681888,10.3458866 C17.4681888,11.3953225 16.6143976,12.2494066 15.5646755,12.2494066 C14.514954,12.2494066 13.6611628,11.3953225 13.6611628,10.3458866 C13.6611628,9.29645062 14.514954,8.44229398 15.5646755,8.44229398 Z M4.10881884,4.86734274 C4.10881884,3.81790678 4.9626824,2.96382257 6.01240411,2.96382257 C7.06212602,2.96382257 7.91591658,3.81790678 7.91591658,4.86734274 C7.91591658,5.91677869 7.06212602,6.77086284 6.01240411,6.77086284 C4.9626824,6.77086284 4.10881884,5.91677869 4.10881884,4.86734274 Z M7.91591658,27.1326595 C7.91591658,28.1820954 7.06212602,29.0361795 6.01240411,29.0361795 C4.9626824,29.0361795 4.10881884,28.1820954 4.10881884,27.1326595 C4.10881884,26.0832235 4.9626824,25.2291388 6.01240411,25.2291388 C7.06212602,25.2291388 7.91591658,26.0832235 7.91591658,27.1326595 Z M6.0122592,18.584571 C4.54821365,18.584571 3.35719582,17.3937659 3.35719582,15.9297874 C3.35719582,14.4657363 4.54821365,13.2747136 6.0122592,13.2747136 C7.47623227,13.2747136 8.66724978,14.4657363 8.66724978,15.9297874 C8.66724978,17.3937659 7.47623227,18.584571 6.0122592,18.584571 Z M15.5646755,23.4523513 C14.514954,23.4523513 13.6611628,22.5981946 13.6611628,21.5487587 C13.6611628,20.4993227 14.514954,19.6452386 15.5646755,19.6452386 C16.6143976,19.6452386 17.4681888,20.4993227 17.4681888,21.5487587 C17.4681888,22.5981946 16.6143976,23.4523513 15.5646755,23.4523513 Z" transform="translate(6)"/>
</svg>
