<svg xmlns="http://www.w3.org/2000/svg" width="32" height="32"><path d="M21.565 17.623c-1.173 0-2.225.52-2.945 1.337l-1.845-1.306c.196-.54.309-1.118.309-1.724 0-.596-.109-1.165-.298-1.696l1.84-1.293a3.91 3.91 0 0 0 2.939 1.331 3.93 3.93 0 0 0 3.926-3.926 3.93 3.93 0 0 0-3.926-3.926 3.93 3.93 0 0 0-3.926 3.926c0 .387.058.761.163 1.115l-1.842 1.293a5.07 5.07 0 0 0-3.14-1.825V8.71a3.93 3.93 0 0 0 3.119-3.842A3.93 3.93 0 0 0 12.012.941a3.93 3.93 0 0 0-3.926 3.926 3.93 3.93 0 0 0 3.048 3.824v2.249a5.075 5.075 0 0 0-4.193 4.99 5.075 5.075 0 0 0 4.229 4.995V23.3a3.93 3.93 0 0 0-3.084 3.833 3.93 3.93 0 0 0 3.926 3.926 3.93 3.93 0 0 0 3.927-3.926 3.93 3.93 0 0 0-3.084-3.833v-2.375a5.07 5.07 0 0 0 3.087-1.795l1.857 1.314c-.103.351-.16.721-.16 1.105a3.93 3.93 0 0 0 3.926 3.926 3.93 3.93 0 0 0 3.926-3.926 3.93 3.93 0 0 0-3.926-3.926m0-9.18c1.05 0 1.903.853 1.903 1.903s-.854 1.903-1.903 1.903a1.906 1.906 0 0 1-1.904-1.903c0-1.05.854-1.904 1.904-1.904M10.109 4.866c0-1.05.854-1.903 1.903-1.903 1.05 0 1.904.854 1.904 1.903 0 1.05-.854 1.904-1.904 1.904a1.906 1.906 0 0 1-1.903-1.904m3.807 22.266c0 1.05-.854 1.903-1.904 1.903a1.906 1.906 0 0 1-1.903-1.903c0-1.05.854-1.904 1.903-1.904 1.05 0 1.904.854 1.904 1.904m-1.904-8.548a2.66 2.66 0 0 1-2.655-2.655 2.66 2.66 0 0 1 2.655-2.655 2.66 2.66 0 0 1 2.655 2.655 2.66 2.66 0 0 1-2.655 2.655m9.553 4.867a1.906 1.906 0 0 1-1.904-1.903c0-1.05.854-1.904 1.904-1.904s1.903.854 1.903 1.904-.854 1.903-1.903 1.903"/></svg>