<svg xmlns="http://www.w3.org/2000/svg" width="32" height="32" viewBox="0 0 32 32">
  <g fill="#00546B">
    <path d="M29.4560345,24.276454 C27.7162314,24.2330699 26.367859,24.407159 25.2369505,24.8854955 C24.9107374,25.0159257 24.3887409,25.0160622 24.3452209,25.4291822 C24.5193122,25.6032736 24.5410042,25.8859645 24.693262,26.1251319 C24.954399,26.5599439 25.4109059,27.1472929 25.8241646,27.4518134 C26.2808076,27.7997185 26.7375864,28.1476236 27.215927,28.4521441 C28.0641365,28.9741406 29.0210781,29.2785212 29.8474596,29.8005154 C30.3260721,30.1047584 30.8042654,30.4964639 31.2827417,30.8226764 C31.5220509,30.9964907 31.6741726,31.2793181 31.9786936,31.3880557 L31.9786936,31.3228415 C31.8264302,31.1270599 31.7829102,30.844369 31.6307885,30.626893 C31.413449,30.4094176 31.1958377,30.2136354 30.9783624,29.99616 C30.3476281,29.1480875 29.5647666,28.408623 28.7165684,27.7997185 C28.0207581,27.3212437 26.4982944,26.6688187 26.2155955,25.8641314 C26.2155955,25.8641314 26.1937675,25.8424387 26.1720755,25.8207462 C26.6505464,25.7772234 27.215927,25.6032725 27.6727114,25.4727029 C28.4121832,25.2769217 29.0863071,25.3204435 29.8474596,25.1247977 C30.1953649,25.0377538 30.5434115,24.9290161 30.8913166,24.8202777 L30.8913166,24.6246344 C30.5000275,24.2330665 30.2171985,23.7112105 29.8039396,23.3414722 C28.6948706,22.3843891 27.4769224,21.4494086 26.2155955,20.6665492 C25.5413356,20.231599 24.671434,19.9487689 23.9538015,19.5791711 C23.692942,19.4484661 23.2578496,19.38339 23.1057279,19.1659124 C22.7141627,18.6874404 22.4966874,18.056845 22.2139977,17.4913224 C21.5835411,16.2950756 20.9743579,14.9686632 20.4306762,13.7073331 C20.039387,12.8591241 19.8000814,12.0109112 19.3216077,11.2280654 C17.0816457,7.53098817 14.6458869,5.29101377 10.9052885,3.09443217 C10.1006029,2.63778815 9.14379724,2.44200676 8.12163285,2.20283905 C7.57808311,2.18100854 7.03425586,2.13762457 6.4905634,2.11579406 C6.14265826,1.96353224 5.79461494,1.55041365 5.49009331,1.35463051 C4.25073444,0.571637012 1.05367788,-1.12450889 0.14025685,1.1154628 C-0.446954478,2.52905645 1.01015844,3.92080962 1.51031844,4.63858515 C1.880192,5.13875222 2.35852744,5.7041314 2.61952566,6.26965579 C2.77178676,6.63911532 2.81517026,7.03081855 2.96743136,7.42224707 C3.31547412,8.37891737 3.64154902,9.4447343 4.09833005,10.3364757 C4.33763569,10.7931197 4.59849571,11.2715928 4.90301621,11.6847082 C5.07696821,11.9238757 5.38135107,12.0327516 5.44670357,12.4241795 C5.14232184,12.8591286 5.12049105,13.5115565 4.94639971,14.055249 C4.16354435,16.5126865 4.46806429,19.55735 5.57713387,21.3623612 C5.92503901,21.9059121 6.75155086,23.1023026 7.86062895,22.6455227 C8.83926769,22.254093 8.62179171,21.0144532 8.90448255,19.9270762 C8.96983617,19.6659404 8.92631277,19.4921271 9.05674307,19.3181729 C9.05685635,19.3398655 9.05674307,19.3616951 9.05674307,19.3616951 C9.36126301,19.9705985 9.66564644,20.5578137 9.94833614,21.166707 C10.622592,22.2322531 11.7968804,23.3414592 12.7755129,24.0809379 C13.2976476,24.472226 13.710767,25.1464846 14.3631904,25.3857891 L14.3631904,25.3204355 L14.3196681,25.3204355 C14.1891001,25.1246539 13.9934556,25.0377447 13.8195025,24.8854865 C13.4280739,24.4940579 12.9929855,24.0155831 12.6886037,23.5806351 C11.7753181,22.3626857 10.9704926,21.0144544 10.2528561,19.622562 C9.90495094,18.9484444 9.60043101,18.2089667 9.31774017,17.5348514 C9.18717225,17.2737161 9.18717225,16.8824257 8.96969685,16.7519966 C8.64348431,17.2303309 8.16514889,17.6435896 7.92584326,18.2308021 C7.51286145,19.165918 7.46920042,20.3185121 7.3169399,21.5146184 C7.23003129,21.5364497 7.2734165,21.5146184 7.22989366,21.5581422 C6.53408284,21.384051 6.2947772,20.6665492 6.03377444,20.0575065 C5.38134881,18.5134907 5.27261169,16.0342105 5.83812984,14.2510295 C5.99039037,13.7942485 6.642816,12.3589641 6.38181777,11.9240127 C6.25138747,11.5107534 5.81629905,11.2715871 5.57713161,10.9453746 C5.29444077,10.5321158 4.98992085,10.0102581 4.79427625,9.5534822 C4.27227979,8.33567264 4.01128269,6.98730137 3.44590442,5.76935192 C3.1849062,5.20383331 2.72826336,4.61676046 2.35852744,4.09490079 C1.945408,3.50769105 1.48862584,3.09443217 1.16240878,2.39848132 C1.05380871,2.15931361 0.901410549,1.76788644 1.07536368,1.50688707 C1.11888651,1.33293559 1.20579342,1.26771999 1.37988361,1.22419687 C1.66257444,0.984891186 2.4672606,1.28941134 2.7499452,1.41984204 C3.55463136,1.74591564 4.22875072,2.05057609 4.90300659,2.50721891 C5.20738889,2.72469404 5.53360141,3.1379529 5.92502995,3.24669049 L6.38181041,3.24669049 C7.07775886,3.39881316 7.86061592,3.29021123 8.51304099,3.48585815 C9.66577047,3.855456 10.709483,4.39928179 11.6447462,4.9864939 C14.4937537,6.79150612 16.8423191,9.35782684 18.4300079,12.4241807 C18.6910061,12.9242087 18.7996056,13.3811262 19.0389112,13.9029862 C19.4956922,14.9686706 20.0610722,16.056047 20.5177162,17.0999022 C20.974359,18.1219251 21.4093092,19.1659202 22.0617326,20.014131 C22.3880834,20.4706367 23.6928004,20.7099412 24.2800032,20.9492469 C24.714954,21.1448926 25.3892139,21.3189839 25.780639,21.5581507 C26.5199751,22.0146554 27.259447,22.5367913 27.9553931,23.0369557 C28.3034342,23.2978169 29.3906752,23.841643 29.4560289,24.2764562 L29.4560345,24.276454 Z"/>
    <path d="M7.27331115,5.37778305 C6.90357579,5.37778305 6.64271631,5.42144408 6.38171809,5.48666007 C6.38171809,5.4865468 6.38171809,5.50849031 6.38171809,5.53018291 L6.42524149,5.53018291 C6.59933225,5.87808792 6.90357693,6.11739356 7.12105175,6.42177472 C7.29514308,6.76967986 7.44726429,7.11772431 7.62135561,7.46576765 C7.64304708,7.44393685 7.66473969,7.42224481 7.66473969,7.42224481 C7.96939894,7.20463122 8.12152071,6.85672609 8.12152071,6.33486782 C7.99095221,6.18260729 7.96925961,6.03034733 7.86052247,5.8780868 C7.73009218,5.66047275 7.44726315,5.55187437 7.27331115,5.37778305 Z"/>
  </g>
</svg>
