<svg xmlns="http://www.w3.org/2000/svg" width="32" height="32" viewBox="0 0 32 32">
  <g fill="none">
    <path fill="#000" d="M31.876,19.1619394 C31.684125,18.5984242 31.1815,18.2059394 30.5315,18.1117576 C30.225,18.0673939 29.874,18.086303 29.458625,18.1693333 C28.734625,18.3141818 28.1975,18.3693333 27.8055,18.38 C29.285125,15.9575758 30.48825,13.1951515 31.180875,10.5947879 C32.300875,6.39006061 31.702375,4.47454545 31.003,3.60812121 C29.152125,1.31478788 26.45175,0.0827878788 23.194,0.0450909091 C21.456125,0.0244848485 19.9305,0.357212121 19.134625,0.596484848 C18.393625,0.46969697 17.596875,0.398909091 16.760875,0.385818182 C15.19375,0.361575758 13.809125,0.692848485 12.626,1.37369697 C11.971,1.15890909 10.91975,0.856121212 9.70575,0.662909091 C6.8505,0.208363636 4.54925,0.562545455 2.866,1.71563636 C0.82775,3.11175758 -0.117125,5.53745455 0.057625,8.92533333 C0.113125,10.0009697 0.733625,13.273697 1.710625,16.3774545 C2.272125,18.1614545 2.870875,19.6429091 3.49025,20.7810909 C4.368625,22.3950303 5.3085,23.3454545 6.363625,23.6867879 C6.955,23.8778182 8.0295,24.0116364 9.159625,23.0989091 C9.302875,23.2671515 9.494,23.434303 9.747625,23.5895758 C10.06975,23.7865455 10.463625,23.9475152 10.857,24.0429091 C12.274625,24.3865455 13.6025,24.3006061 14.735375,23.8189091 C14.742375,24.014303 14.74775,24.2009697 14.75225,24.3621818 C14.75975,24.6236364 14.76725,24.88 14.777125,25.1197576 C14.84425,26.7408485 14.958,28.0013333 15.295,28.8832727 C15.3135,28.9317576 15.338375,29.005697 15.364625,29.0841212 C15.53275,29.5832727 15.813875,30.4189091 16.529125,31.0733333 C17.26975,31.7512727 18.165625,31.9591515 18.986125,31.9591515 C19.397625,31.9591515 19.79025,31.9067879 20.134625,31.8352727 C21.362125,31.5801212 22.75625,31.1915152 23.76475,29.7990303 C24.71825,28.4826667 25.18175,26.5 25.265625,23.376 C25.2765,23.2876364 25.2865,23.2032727 25.296125,23.1229091 L25.316125,22.9578182 L25.54075,22.9769697 L25.598625,22.9807273 C26.848875,23.036 28.377625,22.7789091 29.3165,22.356 C30.058375,22.0221818 32.43575,20.8050909 31.876,19.1619394"/>
    <path fill="#336791" d="M29.73825,19.4814545 C26.02075,20.2250909 25.765125,19.0046061 25.765125,19.0046061 C29.690125,13.3569697 31.331,6.18812121 29.915125,4.43357576 C26.052125,-0.352484848 19.36525,1.9110303 19.253625,1.96969697 L19.21775,1.976 C18.48325,1.82812121 17.661375,1.74012121 16.7375,1.72545455 C15.0555,1.69878788 13.7795,2.15309091 12.81125,2.86509091 C12.81125,2.86509091 0.8825,-1.90024242 1.437375,8.85830303 C1.555375,11.1470303 4.820375,26.1762424 8.714625,21.6367273 C10.138,19.9767273 11.513375,18.5732121 11.513375,18.5732121 C12.196375,19.0132121 13.014125,19.237697 13.871375,19.1570909 L13.938,19.102303 C13.91725,19.3083636 13.92675,19.5099394 13.964625,19.7486061 C12.961375,20.8355152 13.25625,21.026303 11.25075,21.4266667 C9.221375,21.8322424 10.4135,22.5541818 11.191875,22.7430303 C12.1355,22.9717576 14.3185,23.2958788 15.7935,21.2935758 L15.73475,21.5220606 C16.12775,21.8273939 16.40375,23.5078788 16.3575,25.0313939 C16.31125,26.5547879 16.280375,27.6007273 16.59,28.417697 C16.899875,29.2346667 17.2085,31.0728485 19.845,30.5250909 C22.047875,30.0672727 23.1895,28.8809697 23.348375,26.9020606 C23.461,25.4952727 23.716125,25.7032727 23.732125,24.4454545 L23.93675,23.8500606 C24.172625,21.9430303 23.97425,21.3277576 25.331375,21.6139394 L25.661375,21.6420606 C26.660125,21.6860606 27.967625,21.4861818 28.735,21.1403636 C30.38725,20.3968485 31.36725,19.1552727 29.738,19.4814545 L29.73825,19.4814545"/>
    <path fill="#FFF" d="M13.5095,9.88181818 C13.1745,9.83660606 12.871125,9.87842424 12.717625,9.99115152 C12.631375,10.0545455 12.604625,10.128 12.597375,10.1785455 C12.578125,10.3124848 12.674875,10.4606061 12.734375,10.5369697 C12.902625,10.7532121 13.148375,10.9018182 13.391625,10.9345455 C13.426875,10.9393939 13.462,10.9415758 13.496875,10.9415758 C13.9025,10.9415758 14.271375,10.6352727 14.303875,10.4092121 C14.3445,10.1260606 13.920625,9.93733333 13.5095,9.88193939 M24.6075,9.89078788 C24.5755,9.66884848 24.16825,9.60557576 23.78175,9.65769697 C23.39575,9.70981818 23.0215,9.87878788 23.05275,10.1012121 C23.07775,10.2741818 23.399875,10.5694545 23.781125,10.5694545 C23.813375,10.5694545 23.845875,10.5673939 23.878625,10.5629091 C24.133125,10.5287273 24.319875,10.372 24.408625,10.281697 C24.543625,10.144 24.621875,9.99054545 24.6075,9.89078788"/>
    <path fill="#FFF" d="M30.97525,19.3969697 C30.8335,18.9813333 30.37725,18.8476364 29.61925,18.9993939 C27.368625,19.4498182 26.562625,19.1378182 26.298,18.9488485 C28.047375,16.3646061 29.4865,13.2407273 30.262875,10.3261818 C30.630625,8.94557576 30.83375,7.66339394 30.850375,6.61830303 C30.86875,5.47127273 30.66725,4.62836364 30.25175,4.11345455 C28.5765,2.03769697 26.11775,0.924242424 23.1415,0.89369697 C21.095375,0.871393939 19.366625,1.37915152 19.0315,1.52193939 C18.32575,1.35175758 17.556375,1.24727273 16.71875,1.23393939 C15.18275,1.20981818 13.855,1.56642424 12.75575,2.29333333 C12.27825,2.1209697 11.04425,1.71018182 9.535125,1.47442424 C6.926125,1.06715152 4.852875,1.37575758 3.373375,2.39212121 C1.608,3.6049697 0.793,5.7729697 0.950875,8.83575758 C1.004,9.86618182 1.6095,13.0361212 2.565,16.0718788 C3.82275,20.0675152 5.19,22.3294545 6.6285,22.7947879 C6.796875,22.8492121 6.991,22.8872727 7.205125,22.8872727 C7.729875,22.8872727 8.37325,22.6579394 9.042625,21.8775758 C9.85907042,20.9278246 10.7036308,20.0011353 11.57525,19.0986667 C12.14075,19.3929697 12.762,19.5573333 13.397375,19.5738182 C13.398625,19.5899394 13.40025,19.6060606 13.40175,19.6220606 C13.2923782,19.7485312 13.1852787,19.8768333 13.0805,20.0069091 C12.64025,20.5488485 12.548625,20.661697 11.1315,20.9446061 C10.728375,21.0253333 9.65775,21.2392727 9.642,21.9670303 C9.625,22.7621818 10.907625,23.0961212 11.05375,23.1315152 C11.563,23.2551515 12.053625,23.3161212 12.5215,23.3161212 C13.659375,23.3161212 14.66075,22.9534545 15.461,22.2517576 C15.436375,25.0864242 15.55825,27.8796364 15.90925,28.7306667 C16.19675,29.4273939 16.899,31.1300606 19.11725,31.1299394 C19.44275,31.1299394 19.801,31.0932121 20.195125,31.0112727 C22.51025,30.5300606 23.515625,29.5378182 23.9045,27.350303 C24.112625,26.1812121 24.46975,23.3895758 24.63775,21.8921212 C24.99225,21.9993939 25.448625,22.0484848 25.942,22.0483636 C26.971,22.0483636 28.158375,21.8363636 28.903,21.5012121 C29.7395,21.1244848 31.249,20.2001212 30.97525,19.3969697 Z M25.462,9.27818182 C25.454375,9.72024242 25.391625,10.1215758 25.325125,10.5404848 C25.2535,10.9910303 25.1795,11.4568485 25.160875,12.022303 C25.1425,12.5726061 25.213375,13.1447273 25.281875,13.6980606 C25.420375,14.8156364 25.5625,15.9661818 25.012375,17.1014545 C24.9209924,16.944441 24.8395907,16.7821587 24.768625,16.6155152 C24.70025,16.4547879 24.55175,16.1966061 24.346125,15.8392727 C23.54625,14.4482424 21.673125,11.1907879 22.632,9.86157576 C22.917625,9.46593939 23.6425,9.05915152 25.462,9.27818182 Z M23.2565,1.78884848 C25.92325,1.84593939 28.03275,2.81333333 29.52625,4.664 C30.67175,6.08351515 29.410375,12.5425455 25.75875,18.1147879 C25.7220271,18.0695078 25.6851102,18.0243761 25.648,17.9793939 L25.60175,17.9233939 C26.545375,16.4122424 26.360875,14.9170909 26.196625,13.5915152 C26.129125,13.0475152 26.065375,12.533697 26.081625,12.0510303 C26.098375,11.5395152 26.168125,11.1007273 26.235625,10.6764848 C26.3185,10.153697 26.402875,9.61272727 26.379625,8.9750303 C26.397,8.90812121 26.404,8.82909091 26.394875,8.73527273 C26.3355,8.12375758 25.6155,6.29357576 24.148,4.63709091 C23.34525,3.7310303 22.174625,2.71709091 20.57625,2.03321212 C21.26375,1.8950303 22.203875,1.76618182 23.2565,1.78884848 Z M8.33425,21.3064242 C7.59675,22.166303 7.0875,22.0014545 6.92,21.9473939 C5.82875,21.5944242 4.5625,19.3578182 3.446125,15.8111515 C2.480125,12.742303 1.915625,9.65636364 1.870875,8.7910303 C1.729875,6.05430303 2.414,4.1470303 3.904375,3.12206061 C6.329875,1.45418182 10.317625,2.45248485 11.92,2.95878788 C11.897,2.98084848 11.873,3.00145455 11.85025,3.02387879 C9.22075,5.59890909 9.283125,9.99842424 9.289625,10.2673939 C9.289375,10.3711515 9.298375,10.5180606 9.310625,10.7201212 C9.355875,11.4601212 9.440125,12.8373333 9.215125,14.3969697 C9.006125,15.846303 9.466875,17.2648485 10.479,18.2889697 C10.5828727,18.3938714 10.6920486,18.4937113 10.806125,18.5881212 C10.355625,19.056 9.3765,20.0906667 8.33425,21.3064242 Z M11.144125,17.6709091 C10.328375,16.8454545 9.957875,15.6973333 10.1275,14.5206061 C10.365,12.8730909 10.277375,11.4381818 10.23025,10.6672727 C10.223625,10.5593939 10.21775,10.4648485 10.214375,10.390303 C10.5985,10.06 12.378625,9.13515152 13.648125,9.41721212 C14.227375,9.54581818 14.580375,9.92836364 14.727125,10.586303 C15.486625,13.9927273 14.827625,15.4124848 14.298125,16.5534545 C14.189,16.7884848 14.085875,17.0106667 13.997875,17.2404848 L13.929625,17.4181818 C13.756875,17.8673939 13.596125,18.2850909 13.4965,18.681697 C12.62925,18.6792727 11.785625,18.32 11.144125,17.6707879 L11.144125,17.6709091 Z M11.27725,22.2648485 C11.024,22.2035152 10.79625,22.0969697 10.662625,22.0086061 C10.77425,21.957697 10.972875,21.8883636 11.317375,21.8195152 C12.9845,21.4867879 13.242,21.2518788 13.80425,20.5596364 C13.933125,20.4008485 14.07925,20.2209697 14.281625,20.0018182 L14.281875,20.0015758 C14.58325,19.674303 14.721125,19.7298182 14.971125,19.8304242 C15.17375,19.9116364 15.371125,20.1579394 15.451125,20.4289697 C15.489,20.5569697 15.5315,20.7998788 15.392375,20.9889697 C14.217875,22.5836364 12.506375,22.5631515 11.27725,22.2648485 Z M20.002125,30.1378182 C17.962625,30.5615758 17.2405,29.5524848 16.764625,28.3989091 C16.4575,27.6541818 16.3065,24.2958788 16.413625,20.5871515 C16.415,20.5378182 16.40775,20.4901818 16.39375,20.4453333 C16.3812267,20.3567722 16.362178,20.2691946 16.33675,20.1832727 C16.1775,19.6436364 15.789375,19.1922424 15.32375,19.0050909 C15.13875,18.9307879 14.79925,18.7944242 14.39125,18.8956364 C14.47825,18.548 14.629125,18.1553939 14.79275,17.730303 L14.861375,17.5515152 C14.938625,17.3499394 15.035625,17.1410909 15.138125,16.92 C15.69225,15.726303 16.451125,14.0912727 15.6275,10.3975758 C15.319,9.01406061 14.28875,8.33842424 12.727,8.49539394 C11.79075,8.58933333 10.934125,8.95563636 10.506875,9.16569697 C10.415,9.21078788 10.331,9.25442424 10.2525,9.29684848 C10.37175,7.90290909 10.82225,5.29781818 12.5075,3.64957576 C13.568625,2.612 14.98175,2.09951515 16.7035,2.12715152 C20.096,2.1809697 22.2715,3.86921212 23.49925,5.27612121 C24.55725,6.48836364 25.130125,7.70957576 25.35875,8.36824242 C23.639375,8.19866667 22.47,8.52775758 21.87725,9.34957576 C20.587625,11.1372121 22.58275,14.6067879 23.541625,16.274303 C23.7175,16.5798788 23.86925,16.844 23.917,16.9562424 C24.22925,17.6900606 24.6335,18.18 24.928625,18.5375758 C25.019125,18.6471515 25.106875,18.7534545 25.173625,18.846303 C24.652875,18.9918788 23.7175,19.3282424 23.80275,21.0095758 C23.734,21.8532121 23.245125,25.8030303 22.99675,27.1985455 C22.668875,29.0421818 21.96925,29.7288485 20.002125,30.1379394 L20.002125,30.1378182 Z M28.515125,20.6910303 C27.982625,20.9306667 27.0915,21.1104242 26.245,21.1490909 C25.31,21.1915152 24.834,21.0475152 24.722,20.9589091 C24.6695,19.9111515 25.071625,19.801697 25.49725,19.6858182 C25.564125,19.6676364 25.629375,19.6498182 25.692375,19.6284848 C25.7315,19.6593939 25.774375,19.6900606 25.821375,19.7201212 C26.572875,20.2010909 27.91325,20.2529697 29.805625,19.8741818 L29.826375,19.8701818 C29.571125,20.1015758 29.134375,20.4121212 28.515125,20.6910303 Z"/>
  </g>
</svg>
