<svg width="32" height="32" xmlns="http://www.w3.org/2000/svg" viewBox="0 0 32 32"><g transform="translate(0 3)" fill-rule="nonzero" fill="none"><path d="M30.594 20.791c-1.689.875-10.438 4.451-12.3 5.416-1.863.966-2.898.956-4.37.257-1.471-.699-10.782-4.437-12.46-5.234-.838-.399-1.278-.735-1.278-1.052v-3.18s12.121-2.623 14.078-3.32c1.957-.699 2.636-.724 4.301-.118 1.666.607 11.623 2.393 13.27 2.992l-.001 3.135c0 .314-.38.659-1.24 1.104z" fill="#A41E11"/><path d="M30.594 17.61c-1.689.875-10.438 4.451-12.3 5.417-1.863.965-2.898.956-4.37.256-1.471-.698-10.782-4.438-12.46-5.234-1.676-.797-1.712-1.345-.064-1.987 1.647-.641 10.907-4.252 12.864-4.95 1.957-.698 2.636-.723 4.301-.117 1.666.607 10.363 4.048 12.009 4.647 1.646.6 1.71 1.093.02 1.968z" fill="#D82C20"/><path d="M30.594 15.606c-1.689.875-10.438 4.45-12.3 5.416-1.863.965-2.898.956-4.37.257-1.471-.7-10.782-4.438-12.46-5.235-.838-.398-1.278-.734-1.278-1.051v-3.18S12.307 9.19 14.264 8.492c1.957-.698 2.636-.723 4.301-.117 1.666.606 11.623 2.392 13.27 2.991l-.001 3.135c0 .315-.38.66-1.24 1.105z" fill="#A41E11"/><path d="M30.594 12.425c-1.689.875-10.438 4.45-12.3 5.416-1.863.966-2.898.956-4.37.257-1.471-.699-10.782-4.438-12.46-5.235-1.676-.796-1.712-1.345-.064-1.986 1.647-.641 10.907-4.253 12.864-4.95 1.957-.698 2.636-.724 4.301-.117 1.666.606 10.363 4.047 12.009 4.646 1.646.6 1.71 1.094.02 1.969z" fill="#D82C20"/><path d="M30.594 10.228c-1.689.875-10.438 4.451-12.3 5.417-1.863.965-2.898.955-4.37.256-1.471-.699-10.782-4.438-12.46-5.234C.627 10.268.187 9.932.187 9.615v-3.18s12.121-2.623 14.078-3.32c1.957-.699 2.636-.724 4.301-.117 1.666.606 11.623 2.391 13.27 2.99l-.001 3.136c0 .314-.38.659-1.24 1.104z" fill="#A41E11"/><path d="M30.594 7.047c-1.689.875-10.438 4.451-12.3 5.417-1.863.965-2.898.955-4.37.256-1.471-.699-10.782-4.437-12.46-5.234C-.211 6.689-.247 6.14 1.4 5.499 3.047 4.858 12.307 1.247 14.264.55 16.221-.15 16.9-.174 18.565.432c1.666.607 10.363 4.048 12.009 4.647 1.646.6 1.71 1.093.02 1.968z" fill="#D82C20"/><path fill="#FFF" d="M20.157 3.985l-2.742.283-.614 1.468-.992-1.638-3.166-.283 2.362-.847-.708-1.3 2.212.86 2.085-.68-.563 1.345zM16.637 11.108l-5.118-2.11 7.334-1.119z"/><ellipse fill="#FFF" cx="9.541" cy="6.311" rx="3.92" ry="1.51"/><path fill="#7A0C00" d="M23.398 4.386l4.34 1.705-4.336 1.703z"/><path fill="#AD2115" d="M18.596 6.274l4.802-1.888.004 3.408-.471.183z"/></g></svg>
