<svg xmlns="http://www.w3.org/2000/svg" width="24" height="24" fill="none"><g clip-path="url(#a)"><g clip-path="url(#b)"><path fill="url(#c)" d="m18.51 15.726-13.64 8.1 17.662-1.198 1.36-17.81z"/><path fill="url(#d)" d="m22.561 22.616-1.518-10.478-4.135 5.46z"/><path fill="url(#e)" d="m22.582 22.616-11.122-.873-6.532 2.06z"/><path fill="url(#f)" d="m4.944 23.806 2.779-9.102-6.114 1.307z"/><path fill="url(#g)" d="M16.907 17.628 14.351 7.614l-7.317 6.858z"/><path fill="url(#h)" d="m23.313 7.755-6.916-5.648-1.926 6.226z"/><path fill="url(#i)" d="M20.079.093 16.01 2.34 13.445.063z"/><path fill="url(#j)" d="m0 19.064 1.704-3.107-1.378-3.702z"/><path fill="#fff" d="M.234 12.138 1.62 16.07l6.026-1.352 6.88-6.393 1.94-6.167L13.412 0 8.213 1.945c-1.637 1.523-4.815 4.537-4.93 4.593-.113.058-2.098 3.81-3.05 5.6"/><path fill="url(#k)" d="M5.103 5.07c3.55-3.518 8.125-5.597 9.88-3.825 1.755 1.771-.106 6.076-3.655 9.594s-8.067 5.711-9.822 3.94c-1.756-1.77.048-6.19 3.597-9.708"/><path fill="url(#l)" d="m4.944 23.802 2.757-9.13 9.155 2.94c-3.31 3.105-6.992 5.729-11.912 6.19"/><path fill="url(#m)" d="m14.539 8.308 2.35 9.31c2.765-2.908 5.247-6.034 6.462-9.9z"/><path fill="url(#n)" d="M23.327 7.765c.94-2.839 1.158-6.911-3.278-7.667l-3.64 2.01z"/><path fill="#9E1209" d="M0 19.023c.13 4.686 3.51 4.755 4.95 4.796l-3.326-7.767z"/><path fill="url(#o)" d="M14.552 8.322a2223 2223 0 0 0 6.494 3.977c.134.076 1.846-2.886 2.234-4.56z"/><path fill="url(#p)" d="m7.697 14.671 3.686 7.11c2.179-1.181 3.885-2.621 5.448-4.164z"/><path fill="url(#q)" d="m1.61 16.061-.522 6.218c.985 1.346 2.34 1.463 3.762 1.358-1.029-2.56-3.083-7.68-3.24-7.576"/><path fill="url(#r)" d="M16.388 2.124 23.71 3.15C23.32 1.495 22.12.427 20.075.093z"/></g></g><defs><linearGradient id="c" x1="20.992" x2="15.957" y1="25.993" y2="17.091" gradientUnits="userSpaceOnUse"><stop stop-color="#FB7655"/><stop offset=".41" stop-color="#E42B1E"/><stop offset=".99" stop-color="#900"/><stop offset="1" stop-color="#900"/></linearGradient><linearGradient id="d" x1="23.503" x2="16.425" y1="18.518" y2="17.135" gradientUnits="userSpaceOnUse"><stop stop-color="#871101"/><stop offset=".99" stop-color="#911209"/><stop offset="1" stop-color="#911209"/></linearGradient><linearGradient id="e" x1="18.305" x2="18.214" y1="26.263" y2="21.774" gradientUnits="userSpaceOnUse"><stop stop-color="#871101"/><stop offset=".99" stop-color="#911209"/><stop offset="1" stop-color="#911209"/></linearGradient><linearGradient id="f" x1="4.666" x2="6.771" y1="15.362" y2="21.533" gradientUnits="userSpaceOnUse"><stop stop-color="#fff"/><stop offset=".23" stop-color="#E57252"/><stop offset=".46" stop-color="#DE3B20"/><stop offset=".99" stop-color="#A60003"/><stop offset="1" stop-color="#A60003"/></linearGradient><linearGradient id="g" x1="11.593" x2="11.975" y1="9.251" y2="15.93" gradientUnits="userSpaceOnUse"><stop stop-color="#fff"/><stop offset=".23" stop-color="#E4714E"/><stop offset=".56" stop-color="#BE1A0D"/><stop offset=".99" stop-color="#A80D00"/><stop offset="1" stop-color="#A80D00"/></linearGradient><linearGradient id="h" x1="17.739" x2="18.297" y1="3.078" y2="7.928" gradientUnits="userSpaceOnUse"><stop stop-color="#fff"/><stop offset=".18" stop-color="#E46342"/><stop offset=".4" stop-color="#C82410"/><stop offset=".99" stop-color="#A80D00"/><stop offset="1" stop-color="#A80D00"/></linearGradient><linearGradient id="i" x1="14.347" x2="15.134" y1="1.392" y2="-1.945" gradientUnits="userSpaceOnUse"><stop stop-color="#fff"/><stop offset=".54" stop-color="#C81F11"/><stop offset=".99" stop-color="#BF0905"/><stop offset="1" stop-color="#BF0905"/></linearGradient><linearGradient id="j" x1=".471" x2="2.529" y1="13.694" y2="14.984" gradientUnits="userSpaceOnUse"><stop stop-color="#fff"/><stop offset=".31" stop-color="#DE4024"/><stop offset=".99" stop-color="#BF190B"/><stop offset="1" stop-color="#BF190B"/></linearGradient><linearGradient id="k" x1="-2.238" x2="16.255" y1="18.704" y2="-.365" gradientUnits="userSpaceOnUse"><stop stop-color="#BD0012"/><stop offset=".07" stop-color="#fff"/><stop offset=".17" stop-color="#fff"/><stop offset=".27" stop-color="#C82F1C"/><stop offset=".33" stop-color="#820C01"/><stop offset=".46" stop-color="#A31601"/><stop offset=".72" stop-color="#B31301"/><stop offset=".99" stop-color="#E82609"/><stop offset="1" stop-color="#E82609"/></linearGradient><linearGradient id="l" x1="11.948" x2="6.714" y1="20.625" y2="18.427" gradientUnits="userSpaceOnUse"><stop stop-color="#8C0C01"/><stop offset=".54" stop-color="#990C00"/><stop offset=".99" stop-color="#A80D0E"/><stop offset="1" stop-color="#A80D0E"/></linearGradient><linearGradient id="m" x1="21.529" x2="16.138" y1="13.93" y2="10.101" gradientUnits="userSpaceOnUse"><stop stop-color="#7E110B"/><stop offset=".99" stop-color="#9E0C00"/><stop offset="1" stop-color="#9E0C00"/></linearGradient><linearGradient id="n" x1="23.349" x2="20.814" y1="5.781" y2="3.207" gradientUnits="userSpaceOnUse"><stop stop-color="#79130D"/><stop offset=".99" stop-color="#9E120B"/><stop offset="1" stop-color="#9E120B"/></linearGradient><linearGradient id="q" x1="3.216" x2="-1.329" y1="23.797" y2="20.024" gradientUnits="userSpaceOnUse"><stop stop-color="#8B2114"/><stop offset=".43" stop-color="#9E100A"/><stop offset=".99" stop-color="#B3100C"/><stop offset="1" stop-color="#B3100C"/></linearGradient><linearGradient id="r" x1="18.648" x2="19.939" y1="1.182" y2="4.445" gradientUnits="userSpaceOnUse"><stop stop-color="#B31000"/><stop offset=".44" stop-color="#910F08"/><stop offset=".99" stop-color="#791C12"/><stop offset="1" stop-color="#791C12"/></linearGradient><radialGradient id="o" cx="0" cy="0" r="1" gradientTransform="matrix(6.07279 0 0 3.17318 17.345 9.574)" gradientUnits="userSpaceOnUse"><stop stop-color="#A80D00"/><stop offset=".99" stop-color="#7E0E08"/><stop offset="1" stop-color="#7E0E08"/></radialGradient><radialGradient id="p" cx="0" cy="0" r="1" gradientTransform="matrix(8.07284 0 0 6.28431 8.935 17.576)" gradientUnits="userSpaceOnUse"><stop stop-color="#A30C00"/><stop offset=".99" stop-color="#800E08"/><stop offset="1" stop-color="#800E08"/></radialGradient><clipPath id="a"><path fill="#fff" d="M0 0h24v24H0z"/></clipPath><clipPath id="b"><path fill="#fff" d="M0 0h24v23.904H0z"/></clipPath></defs></svg>