<svg xmlns="http://www.w3.org/2000/svg" width="162" height="117" fill="none"><g clip-path="url(#a)"><rect width="162" height="117" fill="#F7F8FC" rx="3.6"/><g clip-path="url(#b)" filter="url(#c)"><path fill="#fff" d="M27 18h135v99H27z"/><rect width="113.4" height="5.4" x="37.799" y="27" fill="#F1F4FA" rx="1.35"/><rect width="113.4" height="5.4" x="37.799" y="39.6" fill="#F1F4FA" rx="1.35"/><rect width="113.4" height="5.4" x="37.799" y="52.2" fill="#F1F4FA" rx="1.35"/><rect width="113.4" height="5.4" x="37.799" y="64.8" fill="#F1F4FA" rx="1.35"/><rect width="113.4" height="5.4" x="37.799" y="77.4" fill="#F1F4FA" rx="1.35"/><rect width="113.4" height="5.4" x="37.799" y="90" fill="#F1F4FA" rx="1.35"/><rect width="113.4" height="5.4" x="37.799" y="102.6" fill="#F1F4FA" rx="1.35"/><mask id="d" width="135" height="99" x="27" y="18" maskUnits="userSpaceOnUse" style="mask-type:alpha"><path fill="#D9D9D9" d="M27 18h135v99H27z"/></mask><g mask="url(#d)"><rect width="113.4" height="5.4" x="37.799" y="27" fill="#6092C0" rx="1.35"/><rect width="99.675" height="5.4" x="37.799" y="39.6" fill="#6092C0" rx="1.35"/><rect width="81.675" height="5.4" x="63.898" y="52.2" fill="#54B399" rx="1.35"/><rect width="49.05" height="5.4" x="80.773" y="64.8" fill="#54B399" rx="1.35"/><rect width="31.5" height="5.4" x="93.373" y="77.4" fill="#9170B8" rx="1.35"/><rect width="18.675" height="5.4" x="99.787" y="90" fill="#9170B8" rx="1.35"/><rect width="8.1" height="5.4" x="105.299" y="102.6" fill="#D36086" rx="1.35"/></g></g><rect width="13.5" height="1.8" x="3.15" y="27" fill="#D3DAE6" rx=".9"/><rect width="5.4" height="1.8" x="3.15" y="31.05" fill="#D3DAE6" rx=".9"/><rect width="14.85" height="1.8" x="3.15" y="35.1" fill="#D3DAE6" rx=".9"/><rect width="13.5" height="1.8" x="3.15" y="39.15" fill="#D3DAE6" rx=".9"/><rect width="15.75" height="1.8" x="3.15" y="43.2" fill="#D3DAE6" rx=".9"/><rect width="10.8" height="1.8" x="3.15" y="47.25" fill="#D3DAE6" rx=".9"/><rect width="13.5" height="1.8" x="3.15" y="51.3" fill="#D3DAE6" rx=".9"/><rect width="7.2" height="1.8" x="3.15" y="55.35" fill="#98A2B3" rx=".9"/><rect width="12.15" height="1.8" x="3.15" y="59.4" fill="#D3DAE6" rx=".9"/><rect width="16.65" height="2.7" x="3.15" y="21.15" fill="#98A2B3" rx="1.35"/><g filter="url(#e)"><path fill="#fff" d="M0 9h162v9H0z"/><path fill="#69707D" fill-opacity=".2" d="M26.1 11.25h9a.9.9 0 0 1 .9.9v2.7a.9.9 0 0 1-.9.9h-9z"/><path fill="#006DE4" fill-opacity=".2" d="M15.75 12.15a.9.9 0 0 1 .9-.9h9v4.5h-9a.9.9 0 0 1-.9-.9z"/><rect width="4.5" height="4.5" x="9" y="11.25" fill="#00BFB3" rx=".9"/><rect width="4.5" height="4.5" x="2.25" y="11.25" fill="#D3DAE6" rx=".9"/></g><path fill="#26282F" d="M0 0h162v9H0z"/><circle cx="157.501" cy="4.5" r="2.7" fill="#07C"/><circle cx="150.3" cy="4.5" r="2.7" fill="#69707D"/><rect width="38.25" height="5.4" x="62.1" y="1.8" fill="#69707D" rx="1.35"/><rect width="13.05" height="2.7" x="9.449" y="3.15" fill="#69707D" rx="1.35"/><g clip-path="url(#f)"><path fill="#fff" fill-rule="evenodd" d="M7.006 4.016a1.07 1.07 0 0 1-.003 1.23c-.127.18-.305.318-.512.394a.816.816 0 0 1-.771 1.092.8.8 0 0 1-.485-.17 1.52 1.52 0 0 1-1.702.565 1.52 1.52 0 0 1-1.055-1.455q0-.147.027-.29a1.06 1.06 0 0 1-.706-1.01 1.08 1.08 0 0 1 .708-1.01.816.816 0 0 1 .77-1.095.8.8 0 0 1 .485.17 1.525 1.525 0 0 1 1.844-.51 1.53 1.53 0 0 1 .89 1.697c.207.075.385.212.51.392m-3.084.11 1.181.543L6.296 3.62q.026-.13.025-.263a1.34 1.34 0 0 0-.938-1.278 1.33 1.33 0 0 0-1.494.522l-.198 1.033zM2.699 5.383a1.344 1.344 0 0 0 .916 1.549 1.33 1.33 0 0 0 1.497-.528l.197-1.03-.262-.503-1.187-.542zm.802-1.86-.81-.192a.645.645 0 0 1 .605-.861c.139 0 .273.046.383.13zm-.88.002a.89.89 0 0 0-.613.83.9.9 0 0 0 .574.858l1.136-1.03-.208-.446zm3.086 3.012a.63.63 0 0 1-.386-.133l.175-.92.81.19a.644.644 0 0 1-.6.863M5.486 5.27l.89.21a.9.9 0 0 0 .456-1.36.9.9 0 0 0-.418-.328L5.25 4.816z" clip-rule="evenodd"/><path fill="#FEC514" d="m3.922 4.127 1.182.542L6.296 3.62q.026-.13.026-.263a1.34 1.34 0 0 0-.939-1.278 1.33 1.33 0 0 0-1.493.522L3.69 3.634z"/><path fill="#00BFB3" d="M2.699 5.382a1.344 1.344 0 0 0 .916 1.549 1.33 1.33 0 0 0 1.497-.528l.197-1.03-.262-.503-1.187-.542z"/><path fill="#F04E98" d="m2.69 3.33.81.192.178-.924a.64.64 0 0 0-.998.328.65.65 0 0 0 .01.404"/><path fill="#1BA9F5" d="M2.621 3.524a.89.89 0 0 0-.613.83.9.9 0 0 0 .574.858l1.137-1.03-.209-.446z"/><path fill="#93C90E" d="M5.322 6.403a.63.63 0 0 0 .91-.142.64.64 0 0 0 .075-.588l-.81-.19z"/><path fill="#07C" d="m5.486 5.27.891.21a.9.9 0 0 0 .456-1.36.9.9 0 0 0-.418-.328L5.25 4.816z"/></g></g><defs><clipPath id="a"><rect width="162" height="117" fill="#fff" rx="3.6"/></clipPath><clipPath id="b"><path fill="#fff" d="M27 18h135v99H27z"/></clipPath><clipPath id="f"><path fill="#fff" d="M1.799 1.8h5.4v5.4h-5.4z"/></clipPath><filter id="c" width="147.6" height="114.435" x="20.7" y="15.615" color-interpolation-filters="sRGB" filterUnits="userSpaceOnUse"><feFlood flood-opacity="0" result="BackgroundImageFix"/><feColorMatrix in="SourceAlpha" result="hardAlpha" values="0 0 0 0 0 0 0 0 0 0 0 0 0 0 0 0 0 0 127 0"/><feMorphology in="SourceAlpha" radius=".45" result="effect1_dropShadow_6_66599"/><feOffset dy="6.75"/><feGaussianBlur stdDeviation="3.375"/><feColorMatrix values="0 0 0 0 0 0 0 0 0 0 0 0 0 0 0 0 0 0 0.04 0"/><feBlend in2="BackgroundImageFix" result="effect1_dropShadow_6_66599"/><feColorMatrix in="SourceAlpha" result="hardAlpha" values="0 0 0 0 0 0 0 0 0 0 0 0 0 0 0 0 0 0 127 0"/><feMorphology in="SourceAlpha" radius=".45" result="effect2_dropShadow_6_66599"/><feOffset dy="2.565"/><feGaussianBlur stdDeviation="2.7"/><feColorMatrix values="0 0 0 0 0 0 0 0 0 0 0 0 0 0 0 0 0 0 0.05 0"/><feBlend in2="effect1_dropShadow_6_66599" result="effect2_dropShadow_6_66599"/><feColorMatrix in="SourceAlpha" result="hardAlpha" values="0 0 0 0 0 0 0 0 0 0 0 0 0 0 0 0 0 0 127 0"/><feMorphology in="SourceAlpha" radius=".45" result="effect3_dropShadow_6_66599"/><feOffset dy="1.17"/><feGaussianBlur stdDeviation="1.8"/><feColorMatrix values="0 0 0 0 0 0 0 0 0 0 0 0 0 0 0 0 0 0 0.06 0"/><feBlend in2="effect2_dropShadow_6_66599" result="effect3_dropShadow_6_66599"/><feColorMatrix in="SourceAlpha" result="hardAlpha" values="0 0 0 0 0 0 0 0 0 0 0 0 0 0 0 0 0 0 127 0"/><feMorphology in="SourceAlpha" radius=".45" result="effect4_dropShadow_6_66599"/><feOffset dy=".405"/><feGaussianBlur stdDeviation=".9"/><feColorMatrix values="0 0 0 0 0 0 0 0 0 0 0 0 0 0 0 0 0 0 0.08 0"/><feBlend in2="effect3_dropShadow_6_66599" result="effect4_dropShadow_6_66599"/><feBlend in="SourceGraphic" in2="effect4_dropShadow_6_66599" result="shape"/></filter><filter id="e" width="171" height="18" x="-4.5" y="6.525" color-interpolation-filters="sRGB" filterUnits="userSpaceOnUse"><feFlood flood-opacity="0" result="BackgroundImageFix"/><feColorMatrix in="SourceAlpha" result="hardAlpha" values="0 0 0 0 0 0 0 0 0 0 0 0 0 0 0 0 0 0 127 0"/><feOffset dy="2.025"/><feGaussianBlur stdDeviation="2.25"/><feColorMatrix values="0 0 0 0 0 0 0 0 0 0 0 0 0 0 0 0 0 0 0.05 0"/><feBlend in2="BackgroundImageFix" result="effect1_dropShadow_6_66599"/><feColorMatrix in="SourceAlpha" result="hardAlpha" values="0 0 0 0 0 0 0 0 0 0 0 0 0 0 0 0 0 0 127 0"/><feOffset dy=".855"/><feGaussianBlur stdDeviation=".9"/><feColorMatrix values="0 0 0 0 0 0 0 0 0 0 0 0 0 0 0 0 0 0 0.05 0"/><feBlend in2="effect1_dropShadow_6_66599" result="effect2_dropShadow_6_66599"/><feColorMatrix in="SourceAlpha" result="hardAlpha" values="0 0 0 0 0 0 0 0 0 0 0 0 0 0 0 0 0 0 127 0"/><feOffset dy=".315"/><feGaussianBlur stdDeviation=".315"/><feColorMatrix values="0 0 0 0 0 0 0 0 0 0 0 0 0 0 0 0 0 0 0.07 0"/><feBlend in2="effect2_dropShadow_6_66599" result="effect3_dropShadow_6_66599"/><feBlend in="SourceGraphic" in2="effect3_dropShadow_6_66599" result="shape"/></filter></defs></svg>