<svg fill="none" height="100" viewBox="0 0 100 100" width="100" xmlns="http://www.w3.org/2000/svg"><path clip-rule="evenodd" d="m49.9954 1c-27.6067 0-49.9954 22.3856-49.9954 50.0015 0 22.0909 14.3252 40.83 34.1938 47.4416 2.5016.4605 3.4132-1.0835 3.4132-2.4095 0-1.1879-.0429-4.331-.0675-8.5024-13.9077 3.0203-16.8421-6.7037-16.8421-6.7037-2.2745-5.7767-5.5527-7.3145-5.5527-7.3145-4.5397-3.1002.3438-3.0388.3438-3.0388 5.0186.353 7.6583 5.1536 7.6583 5.1536 4.4599 7.6399 11.7039 5.433 14.5523 4.153.4543-3.2291 1.7466-5.4329 3.1739-6.6822-11.1023-1.2616-22.7755-5.5527-22.7755-24.7122 0-5.4576 1.9492-9.9236 5.1475-13.4167-.5156-1.2646-2.2315-6.3507.4911-13.2324 0 0 4.196-1.3444 13.7482 5.126 3.9872-1.1112 8.266-1.6637 12.5172-1.6851 4.2482.0214 8.5239.5739 12.5173 1.6851 9.546-6.4704 13.7358-5.126 13.7358-5.126 2.7288 6.8817 1.013 11.9678.5004 13.2324 3.2045 3.4931 5.1382 7.9591 5.1382 13.4167 0 19.2086-11.6915 23.4353-22.8275 24.6723 1.7925 1.5439 3.3917 4.595 3.3917 9.2575 0 6.6853-.0614 12.0783-.0614 13.7174 0 1.3383.9024 2.8945 3.4378 2.4065 19.8533-6.627 34.1662-25.3538 34.1662-47.4386 0-27.6159-22.3887-50.0015-50.0046-50.0015z" fill="#1a1919" fill-rule="evenodd"/></svg>