<svg fill="none" height="100" viewBox="0 0 100 100" width="100" xmlns="http://www.w3.org/2000/svg"><g clip-rule="evenodd" fill-rule="evenodd"><path d="m91.79 14c4.51 0 8.2 3.7028 8.2 8.2294v2.3858l-11.38 8.1672-38.75 26.8138-38.75-27.0861v54.1692h-2.92c-4.5 0-8.19-3.7038-8.19-8.2294v-56.2185c0-4.5266 3.69-8.2294 8.19-8.2294l41.67 31.032 41.93-31.032z" fill="#e75a4d"/><path d="m11.11 32.51v54.17h77.4999v-53.8983l-38.7499 26.815z" fill="#e7e4d7"/><path d="m11.11 86.68 38.75-27.0834-.18-.1266-38.57 26.6133z" fill="#b8b7ae"/><path d="m88.6099 32.7817.02 53.8983-38.77-27.0833z" fill="#b7b6ad"/><path d="m99.99 24.6152.01 53.8407c-.2 5.9852-2.78 8.1209-11.37 8.2214l-.02-53.898 11.38-8.1671z" fill="#b2392f"/><path d="m8.19006 14 41.66994 31.0316 41.93-31.0316z" fill="#f7f5ed"/></g></svg>