<svg fill="none" height="100" viewBox="0 0 100 100" width="100" xmlns="http://www.w3.org/2000/svg"><g clip-rule="evenodd" fill-rule="evenodd"><path d="m41.6133 22.6339c3.2263-3.3605 7.716-5.4446 12.6822-5.4446 6.6008 0 12.3598 3.6808 15.427 9.1455 2.7433-1.2252 5.7146-1.8566 8.7191-1.8529 11.9064 0 21.5584 9.7361 21.5584 21.7466 0 12.0115-9.652 21.7476-21.5584 21.7476-1.4261.0007-2.8486-.1412-4.2464-.4234-2.7008 4.818-7.8482 8.0734-13.7543 8.0734-2.4726 0-4.812-.5716-6.8952-1.5877-2.7379 6.4407-9.1165 10.9564-16.5512 10.9564-7.7421 0-14.3409-4.8991-16.8736-11.7692-1.1275.2386-2.277.3584-3.4295.3573-9.21863 0-16.6914-7.5498-16.6914-16.8645 0-6.2425 3.35749-11.6922 8.34668-14.6082-1.05742-2.4341-1.60164-5.0601-1.59866-7.714-.001-10.7122 8.69608-19.3962 19.42318-19.3962 6.2976 0 11.8944 2.9941 15.4431 7.6339" fill="#00a1e0"/><g fill="#fff"><path d="m14.4841 51.2978c-.0631.1631.023.1982.043.2262.1882.1371.3784.2352.5706.3444 1.0211.5415 1.9831.6997 2.9901.6997 2.0521 0 3.3255-1.0911 3.3255-2.848v-.034c0-1.6237-1.4375-2.2133-2.7869-2.6398l-.1752-.057c-1.0171-.3304-1.894-.6147-1.894-1.2843v-.0361c0-.5726.5126-.994 1.3074-.994.8829 0 1.932.2933 2.6067.6667 0 0 .1982.1281.2703-.0641.04-.1021.3824-1.0231.4174-1.1222.039-.1091-.03-.1882-.1001-.2302-.7708-.4705-1.8359-.7908-2.9381-.7908l-.2052.002c-1.8769 0-3.1883 1.1342-3.1883 2.7598v.0341c0 1.7138 1.4465 2.2693 2.8009 2.6567l.2183.0671c.987.3033 1.8369.5636 1.8369 1.2593v.0341c0 .6346-.5526 1.1081-1.4435 1.1081-.9359.0067-1.8537-.2576-2.6428-.7608-.1441-.0841-.2282-.1451-.3393-.2122-.0581-.037-.2052-.1011-.2693.0921zm30.0302 0c-.0631.1631.023.1982.043.2262.1872.1371.3784.2352.5706.3444 1.0211.5415 1.9831.6997 2.9901.6997 2.0522 0 3.3245-1.0911 3.3245-2.848v-.034c0-1.6237-1.4365-2.2133-2.7859-2.6398l-.1752-.057c-1.017-.3304-1.8949-.6147-1.8949-1.2843v-.0361c0-.5726.5135-.994 1.3083-.994.8829 0 1.932.2933 2.6067.6667 0 0 .1982.1281.2703-.0641.04-.1021.3824-1.0231.4174-1.1222.0391-.1091-.03-.1882-.1001-.2302-.7708-.4705-1.8359-.7908-2.938-.7908l-.2052.002c-1.878 0-3.1883 1.1342-3.1883 2.7598v.0341c0 1.7138 1.4465 2.2693 2.8009 2.6567l.2182.0671c.987.3033 1.8389.5636 1.8389 1.2593v.0341c0 .6346-.5546 1.1081-1.4465 1.1081-.9359.0067-1.8537-.2576-2.6427-.7608-.1432-.0841-.2283-.1421-.3374-.2122-.037-.024-.2102-.0911-.2703.0921zm20.5003-3.4406c0 .993-.1852 1.7748-.5505 2.3274-.3604.5466-.905.8139-1.6658.8139-.7618 0-1.3053-.2653-1.6597-.8139-.3584-.5506-.5406-1.3344-.5406-2.3274 0-.991.1822-1.7719.5406-2.3194.3544-.5406.8979-.8049 1.6597-.8049.7608 0 1.3064.2633 1.6678.8049.3633.5475.5485 1.3274.5485 2.3194zm1.7118-1.8409c-.1549-.5437-.42-1.0497-.7788-1.4866-.3587-.4268-.8076-.7687-1.3144-1.001-.5225-.2433-1.1412-.3664-1.8349-.3664-.6947 0-1.3133.1231-1.8359.3674-.5245.2442-.966.5806-1.3164 1-.3473.4185-.6106.92-.7798 1.4866-.171.5985-.2553 1.2184-.2502 1.8409 0 .6567.0841 1.2763.2502 1.8399.1702.5676.4305 1.0691.7808 1.4876.3494.4184.7919.7537 1.3154.991.5236.2382 1.1412.3594 1.8359.3594.6937 0 1.3114-.1202 1.8349-.3594.5075-.2267.9568-.5656 1.3144-.991.3494-.4175.6106-.919.7798-1.4876.1722-.598.2572-1.2177.2523-1.8399 0-.6557-.0841-1.2753-.2523-1.8409zm14.0616 4.7169c-.057-.1672-.2182-.1041-.2182-.1041-.2565.1039-.5233.1804-.7958.2282-.2863.0441-.6006.0661-.939.0661-.8289 0-1.4876-.2463-1.959-.7328-.4725-.4875-.7378-1.2753-.7348-2.3404.003-.971.2362-1.6998.6567-2.2554.4174-.5525 1.0531-.8358 1.9-.8358.7067 0 1.2452.0801 1.8098.2592 0 0 .1352.0581.1992-.1191.1502-.4154.2603-.7127.4205-1.1712.045-.1291-.0661-.1842-.1061-.2002-.3712-.1292-.7531-.2253-1.1412-.2873-.426-.0613-.856-.0904-1.2864-.0871-.7187 0-1.3594.1221-1.9079.3674-.527.2288-.9977.5698-1.3795.999-.3674.4185-.6466.92-.8328 1.4866-.1903.5959-.2849 1.2183-.2803 1.8439 0 1.4195.3844 2.5677 1.1412 3.4085.7567.8429 1.8949 1.2713 3.3795 1.2713.8779 0 1.7778-.1771 2.4245-.4324 0 0 .1241-.0601.0701-.2032zm2.9961-3.827c.0801-.5516.2333-1.0111.4685-1.3674.3544-.5436.896-.8409 1.6568-.8409.7607 0 1.2633.2993 1.6236.8409.2403.3574.3434.8358.3844 1.3674h-4.1343zm5.765-1.2123c-.1464-.5006-.3998-.9634-.7427-1.3564-.3734-.4014-.7378-.6827-1.0992-.8388-.5256-.2229-1.0908-.3373-1.6617-.3364-.7228 0-1.3794.1201-1.912.3714-.5345.2503-.984.5926-1.3354 1.0191-.3523.4244-.6166.9309-.7848 1.5045-.1736.6012-.2596 1.2242-.2553 1.8499 0 .6677.0881 1.2914.2633 1.851.1772.5636.4595 1.0611.8409 1.4725.3804.4144.8709.7398 1.4575.966.5826.2252 1.2903.3414 2.1042.3404 1.6737-.006 2.5546-.3794 2.918-.5806.0641-.0351.1262-.0971.0491-.2773l-.3794-1.0611c-.0571-.1582-.2182-.1001-.2182-.1001-.4145.1541-1.0041.4304-2.3785.4274-.899-.001-1.5656-.2663-1.9821-.6807-.4304-.4244-.6386-1.0481-.6757-1.929l5.796.006s.1522-.003.1682-.1502c.006-.063.2002-1.1912-.1722-2.4976zm-52.1852 1.2123c.082-.5516.2332-1.0111.4684-1.3674.3544-.5436.896-.8409 1.6568-.8409s1.2633.2993 1.6257.8409c.2372.3574.3413.8358.3824 1.3674h-4.1343zm5.763-1.2123c-.1458-.5004-.3986-.9632-.7408-1.3564-.3724-.4014-.7378-.6827-1.0992-.8388-.5256-.2229-1.0908-.3373-1.6617-.3364-.7207 0-1.3794.1201-1.912.3714-.5345.2503-.983.5926-1.3354 1.0191-.3513.4244-.6166.9309-.7848 1.5045-.1729.6013-.2589 1.2243-.2552 1.8499 0 .6677.089 1.2914.2642 1.851.1762.5636.4585 1.0611.8409 1.4725.3804.4144.8699.7398 1.4565.966.5826.2252 1.2914.3414 2.1042.3404 1.6737-.006 2.5557-.3794 2.918-.5806.0651-.0351.1262-.0971.0491-.2773l-.3774-1.0611c-.0591-.1582-.2202-.1001-.2202-.1001-.4135.1541-1.0021.4304-2.3795.4274-.8979-.001-1.5646-.2663-1.9821-.6807-.4284-.4244-.6376-1.0481-.6747-1.929l5.7961.006s.1521-.003.1681-.1502c.006-.063.2002-1.1912-.1741-2.4976zm-18.2911 5.0072c-.2272-.1801-.2582-.2262-.3353-.3433-.1141-.1782-.1722-.4315-.1722-.7538 0-.5105.1672-.8759.5165-1.1222-.004.001.4986-.4344 1.6818-.4184.8299.011 1.5716.1331 1.5716.1331v2.6358h.002s-.7367.1581-1.5656.2082c-1.1792.0701-1.7038-.3404-1.6998-.3394zm2.3054-4.0722c-.2352-.017-.5405-.027-.9049-.027-.4965 0-.977.062-1.4265.1832-.4535.1211-.8609.3103-1.2113.5606-.3502.25-.6379.5775-.8408.957-.2052.3813-.3084.8308-.3084 1.3353 0 .5136.0881.959.2643 1.3234.1772.3664.4315.6707.7568.906.3223.2352.7198.4074 1.1812.5115.4545.1041.97.1572 1.5336.1572.5947 0 1.1873-.0491 1.7619-.1472.4883-.0839.9749-.1777 1.4595-.2813.1922-.046.4054-.1041.4054-.1041.1442-.036.1331-.1902.1331-.1902l-.003-5.3005c0-1.1612-.3103-2.0241-.9219-2.5577-.6087-.5335-1.5046-.8028-2.6628-.8028-.4344 0-1.1332.0601-1.5516.1441 0 0-1.2673.2453-1.7889.6527 0 0-.1131.0711-.05.2303l.4094 1.1031c.0511.1422.1902.0941.1902.0941s.0431-.017.0951-.047c1.1152-.6067 2.5256-.5887 2.5256-.5887.6267 0 1.1082.1252 1.4325.3744.3164.2423.4775.6087.4775 1.3815v.2442c-.4985-.071-.956-.1121-.956-.1121zm46.7497-2.9871c.017-.0391.0173-.0834.0009-.1227-.0165-.0393-.0483-.0702-.088-.0855-.0981-.038-.5906-.1422-.971-.1662-.7278-.044-1.1322.0781-1.4946.2403-.3584.1631-.7578.4244-.98.7227v-.7057c0-.0981-.0701-.1762-.1662-.1762h-1.4865c-.0961 0-.1662.0781-.1662.1762v8.646c0 .0961.0801.1762.1762.1762h1.5236c.0961 0 .1751-.0801.1751-.1762v-4.3195c0-.5806.0641-1.1582.1922-1.5216.1252-.3584.2963-.6467.5066-.8529.2122-.2052.4534-.3493.7167-.4304.2528-.0732.5147-.1103.7778-.1101.3033 0 .6367.079.6367.079.1111.013.1742-.056.2102-.1571.1001-.2643.3824-1.0581.4365-1.2163z"/><path d="m59.597 39.6356c-.188-.057-.3792-.1028-.5726-.1371-.2604-.0429-.524-.063-.7878-.0601-1.0481 0-1.874.2963-2.4546.8809-.5766.5806-.968 1.4655-1.1652 2.6287l-.0701.3924h-1.3173s-.1592-.006-.1932.1682l-.2153 1.2063c-.016.1141.0341.1862.1882.1862h1.2814l-1.3004 7.2535c-.0765.4852-.1926.9633-.3473 1.4295-.1272.3584-.2503.6277-.4045.8249-.1481.1872-.2883.3273-.5305.4084-.1992.0671-.4305.0981-.6817.0981-.1402 0-.3264-.023-.4645-.0511-.1081-.021-.2133-.0549-.3133-.1011 0 0-.1502-.057-.2103.0921l-.4294 1.1783c-.04.1161.017.2052.0901.2322.1702.0601.2973.1001.5295.1552.3224.076.5937.08.8489.08.5326 0 1.0211-.075 1.4235-.2202.4044-.1471.7578-.4024 1.0711-.7468.3374-.3734.5506-.7638.7518-1.2983.2002-.5266.3734-1.1812.5105-1.945l1.3064-7.3897h1.908s.1611.006.1942-.1692l.2162-1.2053c.015-.1151-.034-.1862-.1892-.1862h-1.8529c.01-.042.0941-.6937.3063-1.3083.0901-.2603.2613-.4725.4054-.6177.1422-.1431.3063-.2442.4855-.3023.1842-.06.3934-.0881.6227-.0881.1742 0 .3463.0201.4765.0471.1792.038.2492.058.2963.0721.1892.057.2142.002.2512-.0901l.4435-1.2163c.046-.1301-.0671-.1862-.1071-.2022zm-25.8939 12.535c0 .0971-.0701.1752-.1662.1752h-1.5376c-.0961 0-.1652-.0781-.1652-.1752v-12.3698c0-.0971.0691-.1752.1652-.1752h1.5376c.0971 0 .1662.0781.1662.1752z"/></g></g></svg>