<svg fill="none" height="100" viewBox="0 0 100 100" width="100" xmlns="http://www.w3.org/2000/svg"><path clip-rule="evenodd" d="m50 6c-27 0-50 21.9528-50 49.3939 0 14.4689 6 27.4411 15.5 36.9208 3.5 3.4925 9 3.4925 13 .4989 5.5-4.4904 13-6.985 21.5-6.985s15.5 2.4946 21.5 6.985c4 2.9936 9.5 2.4946 13-.9979 9.5-8.9807 15.5-21.9529 15.5-36.4218-.5-26.9421-22.5-49.3939-50-49.3939zm-.5 74.8393c-14.5 0-25-10.9765-25-24.9465s10-24.9464 25-24.9464 25 11.4753 25 24.9464c0 13.471-10 24.9465-25 24.9465z" fill="#82b6a1" fill-rule="evenodd"/></svg>