<svg fill="none" height="100" viewBox="0 0 100 100" width="100" xmlns="http://www.w3.org/2000/svg"><path d="m21.0097 63.1921c0 5.7819-4.723 10.505-10.5048 10.505-5.78176 0-10.5049-4.7231-10.5049-10.505 0-5.7817 4.72314-10.5048 10.5049-10.5048h10.5048z" fill="#e01e5a"/><path d="m26.3029 63.1921c0-5.7817 4.7231-10.5048 10.505-10.5048 5.7817 0 10.5048 4.7231 10.5048 10.5048v26.303c0 5.7817-4.7231 10.5049-10.5048 10.5049-5.7819 0-10.505-4.7232-10.505-10.5049z" fill="#e01e5a"/><path d="m36.8079 21.0097c-5.7819 0-10.505-4.723-10.505-10.5048 0-5.78176 4.7231-10.5049 10.505-10.5049 5.7817 0 10.5048 4.72314 10.5048 10.5049v10.5048z" fill="#36c5f0"/><path d="m36.8079 26.303c5.7817 0 10.5048 4.723 10.5048 10.5048 0 5.7817-4.7231 10.5049-10.5048 10.5049h-26.303c-5.78176 0-10.5049-4.7232-10.5049-10.5049 0-5.7818 4.72314-10.5048 10.5049-10.5048z" fill="#36c5f0"/><path d="m78.9903 36.8078c0-5.7818 4.7231-10.5048 10.5049-10.5048 5.7817 0 10.5048 4.723 10.5048 10.5048 0 5.7817-4.7231 10.5049-10.5048 10.5049h-10.5049z" fill="#2eb67d"/><path d="m73.6971 36.8079c0 5.7817-4.7231 10.5048-10.5048 10.5048-5.7819 0-10.505-4.7231-10.505-10.5048v-26.303c0-5.78176 4.7231-10.5049 10.505-10.5049 5.7817 0 10.5048 4.72314 10.5048 10.5049z" fill="#2eb67d"/><g fill="#ecb22e"><path d="m63.1923 78.9902c5.7817 0 10.5048 4.7232 10.5048 10.5049s-4.7231 10.5048-10.5048 10.5048c-5.7819 0-10.505-4.7231-10.505-10.5048v-10.5049z"/><path d="m63.1923 73.6971c-5.7819 0-10.505-4.7231-10.505-10.505 0-5.7817 4.7231-10.5048 10.505-10.5048h26.3028c5.7817 0 10.5049 4.7231 10.5049 10.5048 0 5.7819-4.7232 10.505-10.5049 10.505z"/></g></svg>