<svg width="16" height="16" viewBox="0 0 16 16" xmlns="http://www.w3.org/2000/svg">
<path d="M13 1L9.99905 5H13C13.4152 5 13.787 5.25652 13.9346 5.64453C14.0821 6.03261 13.9744 6.47124 13.6641 6.74707L4.66408 14.7471C4.30581 15.0655 3.7721 15.0855 3.39162 14.7939C3.01114 14.5024 2.89111 13.9815 3.10549 13.5527L5.38186 9H3.00002C2.63123 9 2.29221 8.79684 2.11819 8.47168C1.94429 8.14656 1.96346 7.7521 2.16799 7.44531L6.46487 1H13ZM3.00002 8H7.00002L4.00002 14L13 6H8.00002L11 2H7.00002L3.00002 8Z"/>
</svg>
