<svg xmlns="http://www.w3.org/2000/svg" width="16" height="16" viewBox="0 0 16 16">
  <path d="M5,10.0377188 C5.63525852,9.38944377 6.52065591,8.98721016 7.5,8.98721016 L9.5,8.98721016 C10.7307765,8.98721016 11.753824,8.09781615 11.9615013,6.92666916 C11.1184892,6.69154611 10.5,5.91800099 10.5,5 C10.5,3.8954305 11.3954305,3 12.5,3 C13.6045695,3 14.5,3.8954305 14.5,5 C14.5,5.94254262 13.8479997,6.73280241 12.9704142,6.94436438 C12.7464371,8.66135002 11.2780542,9.98721016 9.5,9.98721016 L7.5,9.98721016 C6.26068592,9.98721016 5.23199286,10.8889859 5.03429481,12.0721633 C5.87945388,12.3058838 6.5,13.0804737 6.5,14 C6.5,15.1045695 5.6045695,16 4.5,16 C3.3954305,16 2.5,15.1045695 2.5,14 C2.5,13.0680803 3.13738639,12.2850301 4,12.0630087 L4,3.93699126 C3.13738639,3.71496986 2.5,2.93191971 2.5,2 C2.5,0.8954305 3.3954305,0 4.5,0 C5.6045695,0 6.5,0.8954305 6.5,2 C6.5,2.93191971 5.86261361,3.71496986 5,3.93699126 L5,10.0377188 Z M4.5,3 C5.05228475,3 5.5,2.55228475 5.5,2 C5.5,1.44771525 5.05228475,1 4.5,1 C3.94771525,1 3.5,1.44771525 3.5,2 C3.5,2.55228475 3.94771525,3 4.5,3 Z M4.5,15 C5.05228475,15 5.5,14.5522847 5.5,14 C5.5,13.4477153 5.05228475,13 4.5,13 C3.94771525,13 3.5,13.4477153 3.5,14 C3.5,14.5522847 3.94771525,15 4.5,15 Z M12.5,6 C13.0522847,6 13.5,5.55228475 13.5,5 C13.5,4.44771525 13.0522847,4 12.5,4 C11.9477153,4 11.5,4.44771525 11.5,5 C11.5,5.55228475 11.9477153,6 12.5,6 Z"/>
</svg>
