<svg width="14" height="14" viewBox="0 0 14 14" fill="none" xmlns="http://www.w3.org/2000/svg">
<path fill-rule="evenodd" clip-rule="evenodd" d="M5.00098 0C5.93269 0 6.71332 0.637683 6.93555 1.5H11.001C12.6577 1.50005 14.0009 2.84322 14.001 4.5C14.001 6.15682 12.6578 7.49995 11.001 7.5H8.93555C8.71331 8.36231 7.93267 9 7.00098 9C6.06928 8.99999 5.28863 8.36232 5.06641 7.5H3C1.89594 7.5 1.00049 8.39497 1 9.49902C0.999628 10.6037 1.89533 11.499 3 11.499H7.06738C7.29001 10.6373 8.06968 10 9.00098 10H12.001C13.1055 10 14.001 10.8954 14.001 12C14.001 13.1046 13.1055 14 12.001 14H9.00098C8.06894 14 7.28831 13.3618 7.06641 12.499H3C1.3428 12.499 -0.000728055 11.1552 2.95999e-07 9.49805C0.000905082 7.84203 1.34394 6.5 3 6.5H5.06641C5.28863 5.63768 6.06928 5.00001 7.00098 5C7.93268 5 8.71332 5.63768 8.93555 6.5H11.001C12.1055 6.49995 13.001 5.60453 13.001 4.5C13.0009 3.39549 12.1055 2.50005 11.001 2.5H6.93555C6.71332 3.36232 5.93269 4 5.00098 4H2.00098C0.896407 4 0.000976859 3.10457 0.000976859 2C0.000976859 0.895431 0.896407 1.59997e-07 2.00098 0H5.00098ZM9.00098 11C8.44869 11 8.00098 11.4477 8.00098 12C8.00098 12.5523 8.44869 13 9.00098 13H12.001C12.5533 13 13.001 12.5523 13.001 12C13.001 11.4477 12.5533 11 12.001 11H9.00098ZM7.00098 6C6.44869 6.00001 6.00098 6.44773 6.00098 7C6.00098 7.55227 6.44869 7.99999 7.00098 8C7.55326 8 8.00097 7.55227 8.00098 7C8.00098 6.44772 7.55327 6 7.00098 6ZM2.00098 1C1.44869 1 1.00098 1.44772 1.00098 2C1.00098 2.55228 1.44869 3 2.00098 3H5.00098C5.55326 3 6.00098 2.55228 6.00098 2C6.00098 1.44772 5.55326 1 5.00098 1H2.00098Z" fill="#516381"/>
</svg>
