<svg xmlns="http://www.w3.org/2000/svg" width="32" height="32" viewBox="0 0 32 32">
  <g fill="none">
    <path fill="#E01E5A" d="M6.81290323 3.40645161C6.81290323 5.23870968 5.31612903 6.73548387 3.48387097 6.73548387 1.6516129 6.73548387.15483871 5.23870968.15483871 3.40645161.15483871 1.57419355 1.6516129.0774193548 3.48387097.0774193548L6.81290323.0774193548 6.81290323 3.40645161zM8.49032258 3.40645161C8.49032258 1.57419355 9.98709677.0774193548 11.8193548.0774193548 13.6516129.0774193548 15.1483871 1.57419355 15.1483871 3.40645161L15.1483871 11.7419355C15.1483871 13.5741935 13.6516129 15.0709677 11.8193548 15.0709677 9.98709677 15.0709677 8.49032258 13.5741935 8.49032258 11.7419355L8.49032258 3.40645161z" transform="translate(0 16.774)"/>
    <path fill="#36C5F0" d="M11.8193548 6.81290323C9.98709677 6.81290323 8.49032258 5.31612903 8.49032258 3.48387097 8.49032258 1.6516129 9.98709677.15483871 11.8193548.15483871 13.6516129.15483871 15.1483871 1.6516129 15.1483871 3.48387097L15.1483871 6.81290323 11.8193548 6.81290323zM11.8193548 8.49032258C13.6516129 8.49032258 15.1483871 9.98709677 15.1483871 11.8193548 15.1483871 13.6516129 13.6516129 15.1483871 11.8193548 15.1483871L3.48387097 15.1483871C1.6516129 15.1483871.15483871 13.6516129.15483871 11.8193548.15483871 9.98709677 1.6516129 8.49032258 3.48387097 8.49032258L11.8193548 8.49032258z"/>
    <path fill="#2EB67D" d="M8.41290323 11.8193548C8.41290323 9.98709677 9.90967742 8.49032258 11.7419355 8.49032258 13.5741935 8.49032258 15.0709677 9.98709677 15.0709677 11.8193548 15.0709677 13.6516129 13.5741935 15.1483871 11.7419355 15.1483871L8.41290323 15.1483871 8.41290323 11.8193548zM6.73548387 11.8193548C6.73548387 13.6516129 5.23870968 15.1483871 3.40645161 15.1483871 1.57419355 15.1483871.0774193548 13.6516129.0774193548 11.8193548L.0774193548 3.48387097C.0774193548 1.6516129 1.57419355.15483871 3.40645161.15483871 5.23870968.15483871 6.73548387 1.6516129 6.73548387 3.48387097L6.73548387 11.8193548z" transform="translate(16.774)"/>
    <path fill="#ECB22E" d="M3.40645161 8.41290323C5.23870968 8.41290323 6.73548387 9.90967742 6.73548387 11.7419355 6.73548387 13.5741935 5.23870968 15.0709677 3.40645161 15.0709677 1.57419355 15.0709677.0774193548 13.5741935.0774193548 11.7419355L.0774193548 8.41290323 3.40645161 8.41290323zM3.40645161 6.73548387C1.57419355 6.73548387.0774193548 5.23870968.0774193548 3.40645161.0774193548 1.57419355 1.57419355.0774193548 3.40645161.0774193548L11.7419355.0774193548C13.5741935.0774193548 15.0709677 1.57419355 15.0709677 3.40645161 15.0709677 5.23870968 13.5741935 6.73548387 11.7419355 6.73548387L3.40645161 6.73548387z" transform="translate(16.774 16.774)"/>
  </g>
</svg>
