<svg xmlns="http://www.w3.org/2000/svg" width="16" height="16" viewBox="0 0 16 16">
  <path fill-rule="evenodd" d="M13.5 1a1.501 1.501 0 0 1 1.227 2.365A1.501 1.501 0 0 1 12.087 3H11.5A1.5 1.5 0 0 0 10 4.5V6a2.49 2.49 0 0 1-.504 1.5H9.5l-.048.06a2.583 2.583 0 0 1-.351.36c-.01.01-.022.017-.033.025a2.498 2.498 0 0 1-.142.108l-.043.03c-.055.036-.11.07-.168.103l-.047.024c-.057.03-.115.06-.175.085-.018.008-.036.014-.055.021A2.477 2.477 0 0 1 7.5 8.5h-.504c.315.418.504.936.504 1.5v1.5A1.5 1.5 0 0 0 9 13h3.087a1.5 1.5 0 1 1 0 1H9a2.5 2.5 0 0 1-2.5-2.5V10A1.5 1.5 0 0 0 5 8.5H3.913a1.5 1.5 0 1 1 0-1H7.5A1.5 1.5 0 0 0 9 6V4.5A2.5 2.5 0 0 1 11.5 2h.587A1.5 1.5 0 0 1 13.5 1Zm0 12a.5.5 0 1 0 0 1.001.5.5 0 0 0 0-1.001Zm-11-5.5a.5.5 0 1 0 0 1.001.5.5 0 0 0 0-1.001Zm11-5.5a.5.5 0 1 0 0 1.001.5.5 0 0 0 0-1.001Z" clip-rule="evenodd"/>
  <path fill-rule="evenodd" d="M13.5 6.5a1.501 1.501 0 0 1 1.227 2.365 1.501 1.501 0 0 1-2.64-.365H9.948c.293-.287.536-.625.714-1h1.425a1.5 1.5 0 0 1 1.413-1Zm0 1a.5.5 0 1 0 0 1.001.5.5 0 0 0 0-1.001Z" clip-rule="evenodd"/>
</svg>