<svg width="128" height="141" viewBox="0 0 128 141" fill="none" xmlns="http://www.w3.org/2000/svg">
<path d="M97.8981 99.9929V119.61C97.8981 124.71 83.7017 128.846 66.1841 128.846C48.6666 128.846 34.4702 124.71 34.4702 119.61V99.9929H97.8981Z" fill="#00F2CD"/>
<path d="M97.5345 100.356H34.8337V119.61C34.8337 120.704 35.5971 121.823 37.168 122.905C38.7277 123.979 41.0087 124.961 43.8598 125.792C49.5571 127.451 57.4498 128.482 66.1841 128.482C74.9184 128.482 82.8111 127.451 88.5084 125.792C91.3595 124.961 93.6401 123.979 95.1997 122.905C96.7707 121.823 97.5345 120.704 97.5345 119.61V100.356ZM98.2617 119.61C98.2617 121.066 97.2504 122.376 95.6121 123.504C93.9625 124.64 91.5992 125.649 88.7116 126.49C82.9314 128.173 74.9671 129.21 66.1841 129.21C57.4009 129.21 49.4364 128.174 43.6562 126.49C40.7685 125.649 38.4052 124.64 36.7556 123.504C35.1174 122.376 34.1064 121.066 34.1064 119.61V99.6292H98.2617V119.61Z" fill="#0C1C41"/>
<path d="M66.1841 109.229C83.6993 109.229 97.8981 105.096 97.8981 99.9976C97.8981 94.8992 83.6993 90.7661 66.1841 90.7661C48.669 90.7661 34.4702 94.8992 34.4702 99.9976C34.4702 105.096 48.669 109.229 66.1841 109.229Z" fill="url(#paint0_linear_410_131647)"/>
<path d="M97.5345 99.9978C97.5345 98.9046 96.7708 97.7855 95.1997 96.7042C93.6399 95.6307 91.3587 94.6492 88.5075 93.8193C82.8098 92.1607 74.9172 91.1299 66.1841 91.1299C57.451 91.1299 49.5584 92.1608 43.8607 93.8193C41.0094 94.6492 38.7283 95.6307 37.1685 96.7042C35.5973 97.7855 34.8337 98.9045 34.8337 99.9978C34.8337 101.091 35.5973 102.21 37.1685 103.291C38.7283 104.365 41.0094 105.346 43.8607 106.176C49.5584 107.835 57.451 108.866 66.1841 108.866C74.9172 108.866 82.8098 107.835 88.5075 106.176C91.3587 105.346 93.6399 104.365 95.1997 103.291C96.7708 102.21 97.5345 101.091 97.5345 99.9978ZM98.2617 99.9978C98.2617 101.454 97.25 102.763 95.6116 103.891C93.9619 105.026 91.5983 106.034 88.7106 106.875C82.9301 108.557 74.9659 109.593 66.1841 109.593C57.4021 109.593 49.4376 108.557 43.6571 106.875C40.7693 106.034 38.4058 105.026 36.7561 103.891C35.1177 102.763 34.1065 101.454 34.1064 99.9978C34.1064 98.5418 35.1177 97.2323 36.7561 96.1048C38.4058 94.9694 40.7693 93.9615 43.6571 93.1209C49.4376 91.4382 57.4021 90.4026 66.1841 90.4026C74.9659 90.4026 82.9301 91.4383 88.7106 93.1209C91.5983 93.9614 93.9619 94.9694 95.6116 96.1048C97.25 97.2323 98.2617 98.5418 98.2617 99.9978Z" fill="#101C3F"/>
<path d="M91.8856 117.801C92.7719 117.801 93.4904 116.16 93.4904 114.136C93.4904 112.112 92.7719 110.47 91.8856 110.47C90.9993 110.47 90.2808 112.112 90.2808 114.136C90.2808 116.16 90.9993 117.801 91.8856 117.801Z" fill="#FF3A99"/>
<path d="M93.1272 114.136C93.1272 113.162 92.9537 112.297 92.6878 111.69C92.5547 111.386 92.4051 111.163 92.2579 111.02C92.1124 110.88 91.9871 110.834 91.8858 110.834C91.7844 110.834 91.6595 110.88 91.5141 111.02C91.3668 111.163 91.2173 111.386 91.0841 111.69C90.8182 112.297 90.6448 113.162 90.6448 114.136C90.6448 115.11 90.8183 115.974 91.0841 116.582C91.2173 116.886 91.3668 117.11 91.5141 117.252C91.6595 117.392 91.7844 117.438 91.8858 117.438C91.9871 117.438 92.1124 117.392 92.2579 117.252C92.4052 117.11 92.5546 116.886 92.6878 116.582C92.9537 115.974 93.1272 115.11 93.1272 114.136ZM93.8545 114.136C93.8545 115.186 93.6689 116.154 93.354 116.874C93.1968 117.233 92.9999 117.546 92.7631 117.775C92.5246 118.005 92.2275 118.165 91.8858 118.165C91.5441 118.165 91.2473 118.005 91.0089 117.775C90.7721 117.546 90.5752 117.233 90.418 116.874C90.1031 116.154 89.9175 115.186 89.9175 114.136C89.9175 113.086 90.1031 112.117 90.418 111.398C90.5752 111.039 90.7721 110.726 91.0089 110.497C91.2473 110.267 91.5441 110.107 91.8858 110.107C92.2275 110.107 92.5246 110.267 92.7631 110.497C92.9999 110.726 93.1968 111.039 93.354 111.398C93.6689 112.117 93.8545 113.086 93.8545 114.136Z" fill="#0C1C41"/>
<path d="M97.8981 77.8936V97.5105C97.8981 102.611 83.7017 106.747 66.1841 106.747C48.6666 106.747 34.4702 102.611 34.4702 97.5105V77.8936H97.8981Z" fill="#00F2CD"/>
<path d="M97.5345 78.2571H34.8337V97.5104C34.8337 98.6042 35.5971 99.724 37.168 100.806C38.7277 101.88 41.0087 102.862 43.8598 103.692C49.5571 105.352 57.4498 106.383 66.1841 106.383C74.9184 106.383 82.8111 105.352 88.5084 103.692C91.3595 102.862 93.6401 101.88 95.1997 100.806C96.7707 99.724 97.5345 98.6043 97.5345 97.5104V78.2571ZM98.2617 97.5104C98.2617 98.9668 97.2504 100.277 95.6121 101.405C93.9625 102.541 91.5992 103.55 88.7116 104.391C82.9314 106.074 74.9671 107.11 66.1841 107.11C57.4009 107.11 49.4364 106.074 43.6562 104.391C40.7685 103.549 38.4052 102.541 36.7556 101.405C35.1174 100.277 34.1064 98.9667 34.1064 97.5104V77.5298H98.2617V97.5104Z" fill="#0C1C41"/>
<path d="M66.1841 87.1249C83.6993 87.1249 97.8981 82.9918 97.8981 77.8934C97.8981 72.795 83.6993 68.6619 66.1841 68.6619C48.669 68.6619 34.4702 72.795 34.4702 77.8934C34.4702 82.9918 48.669 87.1249 66.1841 87.1249Z" fill="url(#paint1_linear_410_131647)"/>
<path d="M97.5345 77.8935C97.5345 76.8003 96.7708 75.6812 95.1997 74.5999C93.6399 73.5264 91.3587 72.545 88.5075 71.715C82.8098 70.0565 74.9172 69.0256 66.1841 69.0256C57.451 69.0256 49.5584 70.0565 43.8607 71.715C41.0094 72.545 38.7283 73.5264 37.1685 74.5999C35.5973 75.6813 34.8337 76.8003 34.8337 77.8935C34.8337 78.9867 35.5973 80.1058 37.1685 81.1871C38.7283 82.2606 41.0094 83.242 43.8607 84.072C49.5584 85.7305 57.451 86.7614 66.1841 86.7614C74.9172 86.7614 82.8098 85.7305 88.5075 84.072C91.3587 83.242 93.6399 82.2606 95.1997 81.1871C96.7708 80.1058 97.5345 78.9867 97.5345 77.8935ZM98.2617 77.8935C98.2617 79.3495 97.25 80.659 95.6116 81.7865C93.9619 82.9218 91.5983 83.9298 88.7106 84.7704C82.9301 86.453 74.9659 87.4887 66.1841 87.4887C57.4021 87.4887 49.4376 86.453 43.6571 84.7704C40.7693 83.9298 38.4058 82.9219 36.7561 81.7865C35.1177 80.659 34.1065 79.3495 34.1064 77.8935C34.1064 76.4375 35.1177 75.1281 36.7561 74.0005C38.4058 72.8651 40.7693 71.8572 43.6571 71.0166C49.4376 69.334 57.4021 68.2983 66.1841 68.2983C74.9659 68.2983 82.9301 69.334 88.7106 71.0166C91.5983 71.8572 93.9619 72.8652 95.6116 74.0005C97.25 75.1281 98.2617 76.4375 98.2617 77.8935Z" fill="#101C3F"/>
<path d="M91.8856 95.6971C92.7719 95.6971 93.4904 94.056 93.4904 92.0317C93.4904 90.0073 92.7719 88.3662 91.8856 88.3662C90.9993 88.3662 90.2808 90.0073 90.2808 92.0317C90.2808 94.056 90.9993 95.6971 91.8856 95.6971Z" fill="#FF3A99"/>
<path d="M93.1272 92.0316C93.1272 91.0575 92.9537 90.1929 92.6878 89.5855C92.5547 89.2814 92.4051 89.0583 92.2579 88.916C92.1124 88.7755 91.9871 88.73 91.8858 88.73C91.7844 88.73 91.6595 88.7756 91.5141 88.916C91.3668 89.0583 91.2173 89.2814 91.0841 89.5855C90.8182 90.1929 90.6448 91.0575 90.6448 92.0316C90.6448 93.0056 90.8183 93.8702 91.0841 94.4776C91.2173 94.7818 91.3668 95.0053 91.5141 95.1476C91.6595 95.288 91.7844 95.3336 91.8858 95.3337C91.9871 95.3337 92.1124 95.2881 92.2579 95.1476C92.4052 95.0053 92.5546 94.7818 92.6878 94.4776C92.9537 93.8702 93.1272 93.0056 93.1272 92.0316ZM93.8545 92.0316C93.8545 93.0817 93.6689 94.05 93.354 94.7693C93.1968 95.1284 92.9999 95.4421 92.7631 95.6708C92.5246 95.9011 92.2275 96.0609 91.8858 96.0609C91.5441 96.0609 91.2473 95.9011 91.0089 95.6708C90.7721 95.4421 90.5752 95.1284 90.418 94.7693C90.1031 94.05 89.9175 93.0817 89.9175 92.0316C89.9175 90.9814 90.1031 90.0131 90.418 89.2939C90.5752 88.9348 90.7721 88.6215 91.0089 88.3928C91.2473 88.1625 91.5441 88.0028 91.8858 88.0027C92.2275 88.0027 92.5246 88.1625 92.7631 88.3928C92.9999 88.6215 93.1968 88.9348 93.354 89.2939C93.6689 90.0131 93.8545 90.9814 93.8545 92.0316Z" fill="#0C1C41"/>
<path d="M82.2111 24.7712H51.3105V67.2657H82.2111V24.7712Z" fill="url(#paint2_linear_410_131647)"/>
<path d="M82.9019 34.7466L74.0987 39.8469L50.9922 16.7404L59.7954 11.6362L74.0987 16.7404L82.9019 34.7466Z" fill="#0C1C41"/>
<path d="M82.9058 11.6362H59.7954V34.7466H82.9058V11.6362Z" fill="#0C1C41"/>
<path d="M73.5359 17.0315H51.0078V39.5596H73.5359V17.0315Z" fill="white"/>
<path d="M73.2449 17.3227V39.2686H51.299V17.3227H73.2449ZM73.8272 16.7405H50.7168V39.8508H73.8272V16.7405Z" fill="#0C1C41"/>
<path d="M69.9533 28.2916C69.9533 29.3396 69.7437 30.341 69.3595 31.2454C69.1887 31.6569 68.983 32.0567 68.7423 32.4293C67.8573 33.815 66.5415 34.894 64.9811 35.4762C64.1389 35.7984 63.2267 35.9692 62.2796 35.9692C58.0372 35.9692 54.6021 32.5341 54.6021 28.2916C54.6021 24.0492 58.0372 20.6179 62.2796 20.6179C62.4621 20.6179 62.6445 20.6218 62.823 20.6412C66.8093 20.9168 69.9572 24.2393 69.9572 28.2916H69.9533Z" fill="#0C1C41"/>
<path d="M69.9532 28.2918C69.9532 29.8172 69.5068 31.2378 68.7383 32.4294L61.9263 26.7702C61.9263 26.7702 62.458 22.9353 62.819 20.6414C66.8053 20.9169 69.9532 24.2395 69.9532 28.2918Z" fill="#0066E4"/>
<path d="M69.3557 31.2456C69.1849 31.657 68.9792 32.0568 68.7385 32.4294C67.8536 33.8151 66.5378 34.8942 64.9774 35.4764L62.2759 28.2917L69.3596 31.2456H69.3557Z" fill="#FF8D76"/>
<path d="M62.272 32.5029C59.9508 32.5029 58.0605 30.6126 58.0605 28.2915C58.0605 25.9704 59.9508 24.0801 62.272 24.0801C64.5931 24.0801 66.4834 25.9704 66.4834 28.2915C66.4834 30.6126 64.5931 32.5029 62.272 32.5029Z" fill="white"/>
<path d="M62.2721 24.3752C64.434 24.3752 66.1924 26.1335 66.1924 28.2955C66.1924 30.4575 64.434 32.2158 62.2721 32.2158C60.1101 32.2158 58.3518 30.4575 58.3518 28.2955C58.3518 26.1335 60.1101 24.3752 62.2721 24.3752ZM62.2721 23.793C59.7879 23.793 57.7695 25.8075 57.7695 28.2955C57.7695 30.7835 59.784 32.798 62.2721 32.798C64.7601 32.798 66.7746 30.7835 66.7746 28.2955C66.7746 25.8075 64.7601 23.793 62.2721 23.793Z" fill="#0C1C41"/>
<path d="M97.3161 43.353H68.5112V91.1833H97.3161V43.353Z" fill="url(#paint3_linear_410_131647)"/>
<path d="M97.8978 51.1687L89.636 55.959L67.9438 34.2669L76.2057 29.4766L89.636 34.2669L97.8978 51.1687Z" fill="#0C1C41"/>
<path d="M97.8977 29.4766H76.2056V51.1687H97.8977V29.4766Z" fill="#0C1C41"/>
<path d="M89.636 34.2668H67.9438V55.959H89.636V34.2668Z" fill="#0066E4"/>
<path d="M84.2496 38.5286H73.7139V51.7601H84.2496V38.5286Z" fill="white"/>
<path d="M83.8907 38.8923V51.3966H74.0823V38.8923H83.8907ZM84.618 38.165H73.355V52.1238H84.618V38.165Z" fill="#0C1C41"/>
<path d="M84.7111 48.4858L80.5805 52.2192L80.0928 51.6795L84.2239 47.946L84.7111 48.4858Z" fill="#0C1C41"/>
<path d="M80.2443 41.845V42.5722H75.6094V41.845H80.2443Z" fill="#0C1C41"/>
<path d="M80.2443 43.7407V44.468H75.6094V43.7407H80.2443Z" fill="#0C1C41"/>
<path d="M61.9631 52.2666L35.3066 52.4341L35.5609 92.9036L62.2174 92.7361L61.9631 52.2666Z" fill="url(#paint4_linear_410_131647)"/>
<path d="M64.2005 57.0644L56.0696 61.845L34.5229 40.5601L42.649 35.7795L55.9387 40.4292L64.2005 57.0644Z" fill="#0C1C41"/>
<path d="M64.0696 35.6384L42.6543 35.7729L42.7889 57.1883L64.2042 57.0537L64.0696 35.6384Z" fill="#0C1C41"/>
<path d="M55.5782 40.7536L34.8901 40.8835L35.0201 61.5716L55.7082 61.4416L55.5782 40.7536Z" fill="white"/>
<path d="M55.2163 41.1276L55.3423 61.0888L35.3811 61.2149L35.2551 41.2537L55.2163 41.1276ZM55.9387 40.3955L34.5229 40.5264L34.6539 61.9422L56.0696 61.8113L55.9387 40.3955Z" fill="#0C1C41"/>
<path d="M41.2333 47.1903L37.5679 47.2134L37.6586 61.647L41.3239 61.624L41.2333 47.1903Z" fill="#0C1C41"/>
<path d="M53.0028 42.9806L49.3374 43.0037L49.4514 61.1463L53.1168 61.1233L53.0028 42.9806Z" fill="url(#paint5_linear_410_131647)"/>
<path d="M46.744 53.0658L43.0786 53.0889L43.1318 61.559L46.7972 61.536L46.744 53.0658Z" fill="#0C1C41"/>
<defs>
<linearGradient id="paint0_linear_410_131647" x1="28.8266" y1="99.9976" x2="109.806" y2="99.9976" gradientUnits="userSpaceOnUse">
<stop stop-color="#48EFCF"/>
<stop offset="1" stop-color="#0B64DD"/>
</linearGradient>
<linearGradient id="paint1_linear_410_131647" x1="-31.5177" y1="77.8934" x2="-31.0328" y2="77.8934" gradientUnits="userSpaceOnUse">
<stop stop-color="#48EFCF"/>
<stop offset="1" stop-color="#0B64DD"/>
</linearGradient>
<linearGradient id="paint2_linear_410_131647" x1="66.7589" y1="37.7121" x2="66.7589" y2="63.8035" gradientUnits="userSpaceOnUse">
<stop stop-color="#00EACC"/>
<stop offset="0.82" stop-color="#F4FDFC" stop-opacity="0.07"/>
</linearGradient>
<linearGradient id="paint3_linear_410_131647" x1="82.9112" y1="57.913" x2="82.9112" y2="87.2851" gradientUnits="userSpaceOnUse">
<stop stop-color="#00EACC"/>
<stop offset="0.82" stop-color="#F4FDFC" stop-opacity="0.07"/>
</linearGradient>
<linearGradient id="paint4_linear_410_131647" x1="50.796" y1="64.6618" x2="50.9522" y2="89.5098" gradientUnits="userSpaceOnUse">
<stop stop-color="#00EACC"/>
<stop offset="0.82" stop-color="#F4FDFC" stop-opacity="0.07"/>
</linearGradient>
<linearGradient id="paint5_linear_410_131647" x1="51.2179" y1="43.1859" x2="51.2179" y2="62.1531" gradientUnits="userSpaceOnUse">
<stop stop-color="#FF957D"/>
<stop offset="0.96" stop-color="#F04E98"/>
<stop offset="1" stop-color="#0B64DD"/>
</linearGradient>
</defs>
</svg>
