<svg xmlns="http://www.w3.org/2000/svg" width="36" height="24" viewBox="0 0 36 24">
  <g fill="none" fill-rule="evenodd">
    <path fill="#69707D" fill-rule="nonzero" d="M9,14 L9,22 C9,22.5523 8.55228,23 8,23 L4,23 C3.44772,23 3,22.5523 3,22 L3,14 L9,14 Z M17,10 L17,22 C17,22.5523 16.5523,23 16,23 L12,23 C11.4477,23 11,22.5523 11,22 L11,10 L17,10 Z M25,14 L25,22 C25,22.5523 24.5523,23 24,23 L20,23 C19.4477,23 19,22.5523 19,22 L19,14 L25,14 Z M33,15 L33,22 C33,22.5523 32.5523,23 32,23 L28,23 C27.4477,23 27,22.5523 27,22 L27,15 L33,15 Z"/>
    <path fill="#54B399" fill-rule="nonzero" d="M32,2 C32.5523,2 33,2.44772 33,3 L33,13 L27,13 L27,3 C27,2.44772 27.4477,2 28,2 L32,2 Z M8,8 C8.55228,8 9,8.44772 9,9 L9,12 L3,12 L3,9 C3,8.44772 3.44772,8 4,8 L8,8 Z M24,4 C24.5523,4 25,4.44772 25,5 L25,12 L19,12 L19,5 C19,4.44772 19.4477,4 20,4 L24,4 Z M16,1 C16.5523,1 17,1.44772 17,2 L17,8 L11,8 L11,2 C11,1.44772 11.4477,1 12,1 L16,1 Z"/>
  </g>
</svg>
