<svg xmlns="http://www.w3.org/2000/svg" width="36" height="24" viewBox="0 0 36 24">
	<g fill="none" fill-rule="evenodd">
		<path fill="#54B399" fill-rule="nonzero" d="M33,7 L33,22 C33,22.5522847 32.5522847,23 32,23 L4,23 C3.44771525,23 3,22.5522847 3,22 L3,20 C4,20 6.5,16 9,16 C11.5,16 14,19 15,19 C16,19 18.2304686,12.0056015 20.8652343,12.0028008 C23.5,12 26,12 27,12 C28,12 30,7 33,7 Z" />
		<path fill="#69707D" fill-rule="nonzero" d="M9,2 C12,2 14,8 15,8 C16,8 18.5,5 21,5 C22.6666667,5 23.9443333,7.333 24.833,11.999 L25.1415524,12.0001851 C24.1293204,12.0004181 22.8717636,12.0009441 21.5486098,12.0021318 L20.8652343,12.0028008 C18.2304686,12.0056015 16,19 15,19 C14,19 11.5,16 9,16 C6.5,16 4,20 3,20 L3,20 L3,8 C4,6.5 6,2 9,2 Z" />
	</g>
</svg>
