<svg xmlns="http://www.w3.org/2000/svg" width="36" height="24" viewBox="0 0 36 24">
	<path fill="#54B399" fill-rule="nonzero" d="M28,1 C28.5522847,1 29,1.44771525 29,2 L29,16 C29,16.5522847 28.5522847,17 28,17 L8,17 C7.44771525,17 7,16.5522847 7,16 L7,2 C7,1.44771525 7.44771525,1 8,1 L28,1 Z M18.121739,4 C16.2349057,4 14.8565724,5.10741667 14.861239,6.60931667 C14.8565724,7.66445 15.5314057,8.54848333 16.534239,8.76711667 L16.534239,8.76711667 L16.534239,8.83365 L16.3790783,8.86464202 C15.3051301,9.11664291 14.4956154,10.0961758 14.5000179,11.2576667 C14.4954057,12.8403333 15.997239,14 18.121739,14 C20.227239,14 21.7339057,12.8403333 21.738739,11.2576667 C21.7339057,10.0408667 20.8355724,9.02376667 19.7044057,8.83365 L19.7044057,8.83365 L19.7044057,8.76711667 L19.8655411,8.72460142 C20.7621964,8.44972932 21.3729983,7.60583148 21.3774057,6.60931667 C21.372739,5.11216667 19.9944057,4 18.121739,4 Z M18.121739,9.54183333 C19.1579057,9.54183333 19.9184057,10.2072167 19.9279057,11.134 C19.9184057,12.0323333 19.210239,12.6406667 18.121739,12.6406667 C17.0190724,12.6406667 16.306239,12.0323333 16.315739,11.134 C16.306239,10.2024667 17.0714057,9.54183333 18.121739,9.54183333 Z M18.121739,5.37833333 C19.0295724,5.37833333 19.652239,5.93916667 19.661739,6.77566667 C19.652239,7.62643333 19.0105724,8.20626667 18.121739,8.20626667 C17.218739,8.20626667 16.5724057,7.62166667 16.5819057,6.77566667 C16.5724057,5.93916667 17.199739,5.37833333 18.121739,5.37833333 Z" />
	<path fill="#69707D" d="M4,19 L32,19 C32.5522847,19 33,19.4477153 33,20 L33,22 C33,22.5522847 32.5522847,23 32,23 L4,23 C3.44771525,23 3,22.5522847 3,22 L3,20 C3,19.4477153 3.44771525,19 4,19 Z" />
</svg>
