<svg xmlns="http://www.w3.org/2000/svg" width="36" height="24" viewBox="0 0 36 24">
  <g fill="none" fill-rule="evenodd">
    <path fill="#69707D" fill-rule="nonzero" d="M14,19 C14.5523,19 15,19.4477 15,20 L15,22 C15,22.5523 14.5523,23 14,23 L4,23 C3.44772,23 3,22.5523 3,22 L3,20 C3,19.4477 3.44772,19 4,19 L14,19 Z M14,13 C14.5523,13 15,13.4477 15,14 L15,16 C15,16.5523 14.5523,17 14,17 L4,17 C3.44772,17 3,16.5523 3,16 L3,14 C3,13.4477 3.44772,13 4,13 L14,13 Z M14,7 C14.5523,7 15,7.44772 15,8 L15,10 C15,10.5523 14.5523,11 14,11 L4,11 C3.44772,11 3,10.5523 3,10 L3,8 C3,7.44772 3.44772,7 4,7 L14,7 Z M32,1 C32.5523,1 33,1.44772 33,2 L33,4 C33,4.55228 32.5523,5 32,5 L4,5 C3.44772,5 3,4.55228 3,4 L3,2 C3,1.44772 3.44772,1 4,1 L32,1 Z"/>
    <path fill="#54B399" fill-rule="nonzero" d="M23,19 C23.5523,19 24,19.4477 24,20 L24,22 C24,22.51285 23.613973,22.9355092 23.1166239,22.9932725 L23,23 L18,23 C17.4477,23 17,22.5523 17,22 L17,20 C17,19.4477 17.4477,19 18,19 L23,19 Z M32,19 C32.5523,19 33,19.4477 33,20 L33,22 C33,22.5523 32.5523,23 32,23 L27,23 C26.4477,23 26,22.5523 26,22 L26,20 C26,19.4477 26.4477,19 27,19 L32,19 Z M23,13 C23.5523,13 24,13.4477 24,14 L24,16 C24,16.51285 23.613973,16.9355092 23.1166239,16.9932725 L23,17 L18,17 C17.4477,17 17,16.5523 17,16 L17,14 C17,13.4477 17.4477,13 18,13 L23,13 Z M32,13 C32.5523,13 33,13.4477 33,14 L33,16 C33,16.5523 32.5523,17 32,17 L27,17 C26.4477,17 26,16.5523 26,16 L26,14 C26,13.4477 26.4477,13 27,13 L32,13 Z M23,7 C23.5523,7 24,7.44772 24,8 L24,10 C24,10.51285 23.613973,10.9355092 23.1166239,10.9932725 L23,11 L18,11 C17.4477,11 17,10.5523 17,10 L17,8 C17,7.44772 17.4477,7 18,7 L23,7 Z M32,7 C32.5523,7 33,7.44772 33,8 L33,10 C33,10.5523 32.5523,11 32,11 L27,11 C26.4477,11 26,10.5523 26,10 L26,8 C26,7.44772 26.4477,7 27,7 L32,7 Z"/>
  </g>
</svg>
