<svg xmlns="http://www.w3.org/2000/svg" width="36" height="24" viewBox="0 0 36 24">
  <g fill="none" fill-rule="evenodd">
    <path fill="#54B399" fill-rule="nonzero" d="M2.99988386,16.213 L3.48350681,16.3040885 L4.29647446,16.4500441 L5.05893763,16.5788635 C6.77926265,16.8594426 8.08887915,17 9,17 C9.98588087,17 10.7120234,16.7494439 12.1658521,16.034061 L12.4472136,15.8944272 C13.8017766,15.2171457 14.3808318,15 15,15 C15.5073017,15 15.9876756,15.1457694 16.8897238,15.5709561 L18.0984543,16.1628004 C19.379759,16.7797847 20.0757367,17 21,17 C22.0276746,17 22.7508134,16.6510411 24.1188138,15.6560123 L25.0094553,14.9970972 C26.0333232,14.2521968 26.5335058,14 27,14 C27.5813134,14 28.2313712,14.1853896 29.5976083,14.7184403 L30.6984731,15.1540241 L31.2658691,15.3712127 C31.9862357,15.6400999 32.5222061,15.8086684 33.0013768,15.9027957 L33,22 C33,22.5522847 32.5522847,23 32,23 L4,23 C3.44771525,23 2.99988386,22.5522847 2.99988386,22 L2.99988386,16.213 Z"/>
    <path fill="#69707D" fill-rule="nonzero" d="M27,2 C28.3333333,2 30.3333333,3 33,5 L33.00068,13.8421016 L32.6757803,13.7445294 C32.3298316,13.6337324 31.9168942,13.4822979 31.4023917,13.2815597 L30.3015269,12.8459759 L29.7341309,12.6287873 L29.1977351,12.4356139 C28.276898,12.1184693 27.6761464,12 27,12 C25.9723254,12 25.2491866,12.3489589 23.8811862,13.3439877 L22.9905447,14.0029028 C21.9666768,14.7478032 21.4664942,15 21,15 C20.4926983,15 20.0123244,14.8542306 19.1102762,14.4290439 L17.9015457,13.8371996 C16.620241,13.2202153 15.9242633,13 15,13 C14.0141191,13 13.2879766,13.2505561 11.8341479,13.965939 L11.5527864,14.1055728 C10.1982234,14.7828543 9.61916824,15 9,15 L8.66631874,14.9932033 C7.48347119,14.9479299 5.58607425,14.6764419 3.00069957,14.1775737 L3,10 C5,10 7.66666667,11 9,11 C11,11 13,7 15,7 C17,7 19,8 21,8 C23,8 25,2 27,2 Z"/>
  </g>
</svg>
