<svg xmlns="http://www.w3.org/2000/svg" width="36" height="24" viewBox="0 0 36 24">
  <path fill="#69707D" d="M22.21 22.119a11 11 0 006.595-8.1c.11-.577-.355-1.082-.942-1.082H23.75c-.477 0-.878.342-1.046.788a5.027 5.027 0 11-6.474-6.474c.447-.168.788-.569.788-1.046V2.094c0-.588-.505-1.053-1.082-.943a11 11 0 106.272 20.968z"/>
  <path fill="#00B3A4" d="M25.778 4.176a11 11 0 00-5.694-3.022c-.577-.112-1.084.353-1.084.941v4.116c0 .475.34.875.784 1.044l.14.055a5.026 5.026 0 012.776 2.86c.168.445.568.784 1.044.784h4.115c.588 0 1.053-.506.942-1.084a11 11 0 00-3.023-5.694z"/>
</svg>
