<svg xmlns="http://www.w3.org/2000/svg" width="36" height="24" viewBox="0 0 36 24">
  <g fill="none" fill-rule="evenodd">
    <path fill="#69707D" fill-rule="nonzero" d="M31,17 C31.5523,17 32,17.4477 32,18 L32,22 C32,22.5523 31.5523,23 31,23 L5,23 C4.44771,23 4,22.5523 4,22 L4,18 C4,17.4477 4.44772,17 5,17 L31,17 Z M26,1 C26.5523,1 27,1.44772 27,2 L27,6 C27,6.55228 26.5523,7 26,7 L5,7 C4.44772,7 4,6.55228 4,6 L4,2 C4,1.44772 4.44772,1 5,1 L26,1 Z"/>
    <path fill="#54B399" fill-rule="nonzero" d="M4,10 C4,9.44772 4.44772,9 5,9 L20,9 C20.5523,9 21,9.44772 21,10 L21,14 C21,14.5523 20.5523,15 20,15 L5,15 C4.44772,15 4,14.5523 4,14 L4,10 Z"/>
  </g>
</svg>
