<svg xmlns="http://www.w3.org/2000/svg" width="169" height="118"><path fill="#0379a5" fill-rule="nonzero" d="M96.349 54.054h17.28V38.156H95.997zm-20.808 0h17.281V38.156H75.541zm-20.808 0h17.634V38.156H54.733zm-20.808 0H51.56V38.156H33.925zm-20.808 0h17.634V38.156H13.47zm20.808-19.078H51.56V19.078H33.925zm20.808 0h17.634V19.078H54.733zm20.808 0h17.281V19.078H75.541zm0-19.078h17.281V0H75.541zm90.638 28.97c-3.88-2.473-12.697-3.533-19.398-2.12-1.058-6.359-4.584-12.011-10.933-16.958l-3.526-2.473-2.469 3.887c-3.174 4.592-4.937 11.305-4.232 17.664.353 2.12 1.058 6.006 3.174 9.54-2.116 1.412-6.7 2.826-12.696 2.826H.774L.42 58.647c-1.058 6.359-1.058 26.497 11.638 41.688C21.934 111.994 36.747 118 55.791 118c41.616 0 72.299-19.078 86.758-54.054 5.643 0 17.987 0 23.982-12.012l1.764-3.18.705-1.413z"/></svg>