<svg xmlns="http://www.w3.org/2000/svg" width="32" height="32"><path fill="#0379a5" fill-rule="nonzero" d="M24 2.146C16.353-2.27 6.57.346 2.146 8-2.27 15.657.346 25.441 8 29.856 15.65 34.27 25.432 31.648 29.856 24 34.27 16.345 31.648 6.562 24 2.146m-2.355 20.306c0 1.285-1.014 2.322-2.27 2.322H12.56c-1.256 0-2.27-1.037-2.27-2.322V8.516c0-1.285 1.014-2.322 2.27-2.322h6.813c1.257 0 2.271 1.037 2.271 2.322zm-3.019-9.537h-5.325c-.521 0-.946-.457-.946-1.033 0-.566.425-1.032.946-1.032h5.333c.522 0 .947.466.947 1.032-.008.576-.433 1.033-.955 1.033m0-2.592h-5.325c-.521 0-.946-.457-.946-1.033 0-.566.425-1.032.946-1.032h5.333c.522 0 .947.457.947 1.032-.008.576-.433 1.033-.955 1.033m0 5.16h-5.325c-.521 0-.946-.46-.946-1.031 0-.572.425-1.033.946-1.033h5.333c.522 0 .947.461.947 1.033-.008.571-.433 1.032-.955 1.032m-4.207 6.194a1.03 1.03 0 0 1-1.032 1.033 1.03 1.03 0 0 1-1.032-1.033 1.03 1.03 0 0 1 1.032-1.032 1.03 1.03 0 0 1 1.032 1.032"/></svg>