<?xml version="1.0" encoding="UTF-8"?>
<svg width="32px" height="32px" viewBox="0 0 32 32" version="1.1" xmlns="http://www.w3.org/2000/svg" xmlns:xlink="http://www.w3.org/1999/xlink">
    <!-- Generator: Sketch 51.2 (57519) - http://www.bohemiancoding.com/sketch -->
    <title>infra-mono</title>
    <desc>Created with Sketch.</desc>
    <defs></defs>
    <g id="infra-mono" stroke="none" stroke-width="1" fill="none" fill-rule="evenodd">
        <g id="Group" transform="translate(1.000000, 2.000000)">
            <path d="M11,11 L28,11 C29.1045695,11 30,11.8954305 30,13 L30,16 C30,17.1045695 29.1045695,18 28,18 L11,18 C9.8954305,18 9,17.1045695 9,16 L9,13 C9,11.8954305 9.8954305,11 11,11 Z M26.5,16 C27.3284271,16 28,15.3284271 28,14.5 C28,13.6715729 27.3284271,13 26.5,13 C25.6715729,13 25,13.6715729 25,14.5 C25,15.3284271 25.6715729,16 26.5,16 Z M12,12.5 C11.4477153,12.5 11,12.9477153 11,13.5 L11,15.5 C11,16.0522847 11.4477153,16.5 12,16.5 C12.5522847,16.5 13,16.0522847 13,15.5 L13,13.5 C13,12.9477153 12.5522847,12.5 12,12.5 Z M15,12.5 C14.4477153,12.5 14,12.9477153 14,13.5 L14,15.5 C14,16.0522847 14.4477153,16.5 15,16.5 C15.5522847,16.5 16,16.0522847 16,15.5 L16,13.5 C16,12.9477153 15.5522847,12.5 15,12.5 Z" id="Combined-Shape" fill="#FFFFFF" fill-rule="nonzero"></path>
            <path d="M11,20 L28,20 C29.1045695,20 30,20.8954305 30,22 L30,25 C30,26.1045695 29.1045695,27 28,27 L11,27 C9.8954305,27 9,26.1045695 9,25 L9,22 C9,20.8954305 9.8954305,20 11,20 Z M26.5,25 C27.3284271,25 28,24.3284271 28,23.5 C28,22.6715729 27.3284271,22 26.5,22 C25.6715729,22 25,22.6715729 25,23.5 C25,24.3284271 25.6715729,25 26.5,25 Z M12,21.5 C11.4477153,21.5 11,21.9477153 11,22.5 L11,24.5 C11,25.0522847 11.4477153,25.5 12,25.5 C12.5522847,25.5 13,25.0522847 13,24.5 L13,22.5 C13,21.9477153 12.5522847,21.5 12,21.5 Z M15,21.5 C14.4477153,21.5 14,21.9477153 14,22.5 L14,24.5 C14,25.0522847 14.4477153,25.5 15,25.5 C15.5522847,25.5 16,25.0522847 16,24.5 L16,22.5 C16,21.9477153 15.5522847,21.5 15,21.5 Z" id="Combined-Shape" fill="#FFFFFF" fill-rule="nonzero"></path>
            <g id="Group-3"></g>
            <path d="M7,19.9746 C4.201,19.7206 2,17.3636 2,14.4996 C2,11.6356 4.201,9.2796 7,9.0256 L7,8.9996 L9.031,8.9996 L9.196,8.2586 C10.002,4.6316 13.284,1.9996 17,1.9996 C21.071,1.9996 24.436,5.0596 24.931,8.9996 L26.949,8.9996 C26.446,3.9536 22.177,-0.0004 17,-0.0004 C12.641,-0.0004 8.76,2.8966 7.465,6.9996 C3.345,7.0186 0,10.3756 0,14.4996 C0,18.4666 3.097,21.7156 7,21.9746 L7,19.9746 Z" id="Fill-1" fill="#FFFFFF"></path>
        </g>
    </g>
</svg>
