<svg xmlns="http://www.w3.org/2000/svg" width="32" height="32"><g fill="none" fill-rule="evenodd"><path fill="#FFF" fill-rule="nonzero" d="M12 13h17a2 2 0 0 1 2 2v3a2 2 0 0 1-2 2H12a2 2 0 0 1-2-2v-3a2 2 0 0 1 2-2m15.5 5a1.5 1.5 0 1 0 0-3 1.5 1.5 0 0 0 0 3M13 14.5a1 1 0 0 0-1 1v2a1 1 0 0 0 2 0v-2a1 1 0 0 0-1-1m3 0a1 1 0 0 0-1 1v2a1 1 0 0 0 2 0v-2a1 1 0 0 0-1-1M12 22h17a2 2 0 0 1 2 2v3a2 2 0 0 1-2 2H12a2 2 0 0 1-2-2v-3a2 2 0 0 1 2-2m15.5 5a1.5 1.5 0 1 0 0-3 1.5 1.5 0 0 0 0 3M13 23.5a1 1 0 0 0-1 1v2a1 1 0 0 0 2 0v-2a1 1 0 0 0-1-1m3 0a1 1 0 0 0-1 1v2a1 1 0 0 0 2 0v-2a1 1 0 0 0-1-1"/><path fill="#FFF" d="M8 21.975A5.506 5.506 0 0 1 3 16.5a5.505 5.505 0 0 1 5-5.474V11h2.031l.165-.741c.806-3.627 4.088-6.26 7.804-6.26 4.071 0 7.436 3.06 7.931 7h2.018C27.446 5.955 23.177 2 18 2c-4.359 0-8.24 2.898-9.535 7C4.345 9.02 1 12.377 1 16.5c0 3.968 3.097 7.217 7 7.476z"/></g></svg>