<svg xmlns="http://www.w3.org/2000/svg" width="560" height="372" fill="none"><path fill="#2B4690" d="M207.415 293.636a1.584 1.584 0 0 0 .888-1.856 2.25 2.25 0 0 0-2.617-.92 1.635 1.635 0 0 0 1.729 2.776M160.241 167.215c.286-.269.889-1.047.683-1.427-.207-.381-1.222-.111-1.587 0s-.523.634-.174 1.078.714.698 1.078.349M157.244 198.162a1.01 1.01 0 0 0-1.38-.365c-.587.254-1.095.602-1.095 1.364 0 2.252.412 2.76 2.617 3.172h.159a2.9 2.9 0 0 0-.873 0 .682.682 0 0 0-.475 1.015.807.807 0 0 0 1.158.524c.285-.226.509-.521.65-.857a.95.95 0 0 0 1.285.349 1.127 1.127 0 0 0 .174-1.824c-.539-.523-.349-1.015-.285-1.586 1.681.111 2.379-.635 2.093-2.062a4 4 0 0 0-.126-.413c-.349-.935-.905-1.157-1.793-.713s-1.427.777-1.158 2.078c-.476-.318-.793-.445-.951-.682M157.275 195.481a.92.92 0 0 0 .397-1.237 1.16 1.16 0 0 0-1.206-.825 1.3 1.3 0 0 0-.892.555 1.32 1.32 0 0 0-.202 1.031 1.38 1.38 0 0 0 1.903.476M298.955 324.28a1.67 1.67 0 0 0 .476 2.174 1.69 1.69 0 0 0 2.372-.262 1.69 1.69 0 0 0-.262-2.372 2.47 2.47 0 0 0-2.586.46M161.225 169.404a1.06 1.06 0 0 0-.647.666 1.06 1.06 0 0 0 .123.92 1.191 1.191 0 0 0 1.491.429c.24-.178.411-.433.484-.722.072-.29.041-.595-.087-.865a1.016 1.016 0 0 0-1.364-.428M161.003 157.412c.285-.206.824-.951.666-1.205-.159-.254-1.015-.302-1.38-.238-.365.063-.587.619-.333 1.158a.632.632 0 0 0 1.047.285M171.678 262.102a1.84 1.84 0 0 0-.254 2.459 2.123 2.123 0 0 0 2.855-.206 1.45 1.45 0 0 0 0-2.158 1.743 1.743 0 0 0-2.601-.095M175.342 243.432a.4.4 0 0 0 .148-.115.395.395 0 0 0-.021-.52.39.39 0 0 0-.282-.24.389.389 0 0 0-.353.113.397.397 0 0 0-.111.651.4.4 0 0 0 .282.207.4.4 0 0 0 .337-.096M167.538 223.51q.255.68.634 1.3a6 6 0 0 0-.317.619 2.2 2.2 0 0 0-.152 1.252c.074.423.27.815.564 1.127a2.43 2.43 0 0 0 2.142.413 2.9 2.9 0 0 0 0 1.189l.745.349c-.967-2.665-1.824-5.393-2.633-8.137a1.9 1.9 0 0 0-.428.222 1.44 1.44 0 0 0-.555 1.666M174.216 248.128a.56.56 0 0 0 .666-.27.76.76 0 0 0-.27-.809c-.222-.143-.571.143-.682.365s.016.634.286.714M174.676 258.327a1.59 1.59 0 0 0 .254-1.697.82.82 0 0 0-1.221-.191c-.746.508-1.079 1.063-.857 1.459a1.83 1.83 0 0 0 1.824.429M175.437 252.886a1.883 1.883 0 0 0-.174-2.252 1.928 1.928 0 0 0-1.999.237 1.27 1.27 0 0 0 0 1.587c.841.761 1.697.936 2.173.428M155.086 179.714a2.047 2.047 0 0 0-.936 2.569 2.08 2.08 0 0 0 2.459 1.19 2.67 2.67 0 0 0 1.11-2.966 2.074 2.074 0 0 0-2.633-.793M178.61 246.541c-.413-.777-.809-1.586-1.206-2.347-.603.38-.84.935-.603 1.411a2.48 2.48 0 0 0 1.809.936M180.497 257.756c-.285.618-.523 1.253.207 1.586.729.333 1.126-.079 1.427-.65a1.2 1.2 0 0 0-.592-.861 1.2 1.2 0 0 0-1.042-.075M170.647 231.964c-.286.111-.397.285-.27.587.127.301.302.38.603.269a.4.4 0 0 0 .159-.081.405.405 0 0 0 .148-.315.4.4 0 0 0-.037-.175c-.111-.285-.286-.412-.603-.285M180.513 262.578a.866.866 0 0 0-.123 1.001.9.9 0 0 0 .234.268 1.06 1.06 0 0 0 1.586 0 .94.94 0 0 0 .259-.718.96.96 0 0 0-.354-.677 1.1 1.1 0 0 0-.828-.28 1.1 1.1 0 0 0-.774.406M181.703 269.018a1.14 1.14 0 0 0 1.586 0 1.046 1.046 0 0 0 0-1.427.934.934 0 0 0-1.396-.143 1.048 1.048 0 0 0-.19 1.57M178.483 254.171a.8.8 0 0 0-.138.669.81.81 0 0 0 .423.536c.746.508 1.396.603 1.586.254a1.83 1.83 0 0 0-.285-1.84 1.59 1.59 0 0 0-1.586.381M137.765 208.551c-.381-.713-.841-.698-1.222-.491-.38.206-.713.618-.38 1.031s.809.523 1.062.396c.254-.127.413-.682.54-.936M140.35 225.318a1.584 1.584 0 0 0-.825 1.776 1.76 1.76 0 0 0 1.936.904c.618-.253.793-1.253.38-2.157a1.24 1.24 0 0 0-1.491-.523M139.43 217.307c-.65-.253-1.221-.65-1.776 0a.953.953 0 0 0 0 1.317 1.26 1.26 0 0 0 .967.428c.793-.206.904-.872.809-1.745M156.276 244.511c-.619 0-1.142 1.333-.714 1.888s1.428.698 1.761.253-.413-1.998-1.047-2.141M152.025 232.503l-.492.524a10 10 0 0 0-.968-.888 1.034 1.034 0 0 0-1.231-.275 1 1 0 0 0-.355.275 1.58 1.58 0 0 0-.412 1.855 1.43 1.43 0 0 0 1.586.873c.479-.045.953-.14 1.412-.286q.239.256.523.46a2.17 2.17 0 0 0 2.411.175 2.52 2.52 0 0 0 .92-2.284 1.26 1.26 0 0 0-.476-.825 2 2 0 0 0-1.547-.451 1.98 1.98 0 0 0-1.371.847M159.068 255.757a.857.857 0 0 0 0 1.269.8.8 0 0 0 .554.284.8.8 0 0 0 .588-.204.845.845 0 0 0 .238-1.222.95.95 0 0 0-1.38-.127M145.173 210.201c0-.84-.508-1.174-1.349-1.189-.46-1.967-1.586-2.205-3.172-.746a2 2 0 0 1-.397-.143.95.95 0 0 0-1.269.27 1.03 1.03 0 0 0-.206 1.19c.365 1.11.857 1.348 1.951.904l2.475-.952c.682 1.475.872 1.523 1.967.666M147.551 216.419a1.86 1.86 0 0 0-1.083-1.228 1.88 1.88 0 0 0-1.635.095 1.87 1.87 0 0 0-.875 2.182c.084.271.228.52.421.727a2.076 2.076 0 0 0 2.824.349 1.46 1.46 0 0 0 .348-2.125M149.011 224.034a1.904 1.904 0 0 0-2.236-.794 1.73 1.73 0 0 0-.619 2.142c.349.73 1.015.872 1.951.412.635-.317 1.126-1.269.904-1.76M151.136 238.167a1.015 1.015 0 0 0-1.11.65.92.92 0 0 0 .338.876c.13.102.285.168.449.19a.93.93 0 0 0 .482-.067.952.952 0 0 0-.159-1.649M154.706 164.186c.238-.111.222-.714.126-.873-.095-.158-.444-.396-.682-.27a.623.623 0 0 0-.253.714c.111.175.587.555.809.429M151.628 185.346c.254.254.936.841 1.285.619s.095-1.158 0-1.428c-.095-.269-.682-.206-.968-.095a.52.52 0 0 0-.453.349.52.52 0 0 0 .136.555M150.93 176.351a1.805 1.805 0 0 0 .413-2.331 1.7 1.7 0 0 0-2.218-.304 1.7 1.7 0 0 0-.59 2.159 1.73 1.73 0 0 0 2.395.476M147.282 207.077c-.539.27-.73.714-.349 1.142.381.429.745 1.095 1.332.777s.27-1.157.207-1.586c-.064-.428-.698-.587-1.19-.333M145.569 199.78a2.205 2.205 0 0 0-.587 2.586 1.93 1.93 0 0 0 2.076.777 1.9 1.9 0 0 0 .7-.349 1.6 1.6 0 0 0 .867-.984 1.59 1.59 0 0 0-.169-1.3 2.16 2.16 0 0 0-2.887-.73M156.482 176.669a1.81 1.81 0 0 0 .809-2.094 1.24 1.24 0 0 0-1.586-.587 1.585 1.585 0 0 0-.619 1.999 1.066 1.066 0 0 0 1.396.682M157.672 171.038a.33.33 0 0 0 .079-.429c0-.095-.333-.111-.396 0a.3.3 0 0 0-.082.08.28.28 0 0 0-.048.219.297.297 0 0 0 .341.235.3.3 0 0 0 .106-.042zM153.199 189.359a1.58 1.58 0 0 0 2.046.317c.92-.523 1.189-1.11.809-1.824a1.84 1.84 0 0 0-2.205-.793 2.01 2.01 0 0 0-.65 2.3M146.283 183.078c.285-.27.92-1.063.698-1.396s-1.174-.207-1.587-.111c-.412.095-.507.824-.222 1.237.286.412.794.619 1.111.27M140.461 178.652c0 .095.429.317.524.253.095-.063.587-.333.476-.682s-.635-.285-.714-.206a.95.95 0 0 0-.286.635M141.048 187.106a1.038 1.038 0 1 0 1.904-.825 1.37 1.37 0 0 0-1.491-.555 1.081 1.081 0 0 0-.413 1.38M146.584 161.917c.174-.096.174-.492.127-.714-.048-.222-.413-.46-.682-.317-.27.142-.127.65 0 .856a.56.56 0 0 0 .555.175M139.621 174.306c.265.037.534-.023.759-.168s.388-.368.462-.625a.826.826 0 0 0-.333-1.111c-.698-.46-1.237-.111-1.824.381.143.714.111 1.444.936 1.523M146.187 194.053a1.665 1.665 0 0 0 .349-1.967 1.586 1.586 0 0 0-1.951.302 1.19 1.19 0 0 0 .233 1.354 1.19 1.19 0 0 0 1.354.232zM140.509 197.067c.682-.381.872-.904.555-1.586a1.855 1.855 0 0 0-2.268-.968 1.59 1.59 0 0 0-.301 2.078 1.49 1.49 0 0 0 2.014.476M157.719 261.943c-.317 0-.682.635-.983 1.032a.425.425 0 0 0 0 .65 1.33 1.33 0 0 0 1.586-.238.965.965 0 0 0-.2-1.239 1 1 0 0 0-.403-.205M237.728 309.99c-.302-.603-1.111-.762-2.015-.365-.666.317-1.158 1.205-.936 1.713a2.015 2.015 0 0 0 2.173.999q.154-.061.286-.158a1.8 1.8 0 0 0 0 .92 3.58 3.58 0 0 0 1.412 1.919c.238.183.42.431.523.714a1.394 1.394 0 0 0 2.11 1.031.66.66 0 0 0 .079.396 1.23 1.23 0 0 0 1.586.27 1.27 1.27 0 0 0 .746-1.586 1.1 1.1 0 0 0-.659-.522 1.08 1.08 0 0 0-.832.109 2.05 2.05 0 0 0-.413-.999 1.98 1.98 0 0 1-.539-1.396c0-.856-.603-1.38-1.19-1.856a1.98 1.98 0 0 0-2.094.095l-.158.143a1.87 1.87 0 0 0-.079-1.427M261.457 324.218c.238.476.984.333 1.317.27a.704.704 0 0 0 .536-.318.72.72 0 0 0 .083-.618c-.143-.508-.809-.952-1.19-.666s-.984.856-.746 1.332M271.561 321.045a1.45 1.45 0 0 0-.808.877 1.43 1.43 0 0 0 .126 1.185c.413.841 1.222 1.238 1.84.889a2.13 2.13 0 0 0 .873-2.507 1.59 1.59 0 0 0-2.031-.444M271.942 328.104c-.285.46.222 1.015.46 1.269a.7.7 0 0 0 1.111 0c.349-.397.38-1.19 0-1.364-.381-.175-1.285-.349-1.571.095M263.805 318.19a1.07 1.07 0 0 0-.66-.657 1.08 1.08 0 0 0-.926.102 1.126 1.126 0 0 0 0 1.983.63.63 0 0 0 .428.666 3.7 3.7 0 0 0 1.015 0 1.1 1.1 0 0 0 .08-1.015 1.16 1.16 0 0 0 .063-1.079M230.034 309.514c.809-.397 1.158-1.11.841-1.713a2.17 2.17 0 0 0-2.506-.888 1.59 1.59 0 0 0-.365 1.951 1.366 1.366 0 0 0 2.03.65M208.097 300.694c.225.168.485.282.761.333.667-.349.889-.967.555-1.3a1.3 1.3 0 0 0-.967-.349c-.46.079-.619.951-.349 1.316M219.359 298.775c.714-.254 1.317-1.063 1.142-1.586-.349-1.095-1.586-1.079-2.189-1.047-.602.031-.904 1.459-.333 2.284a1.05 1.05 0 0 0 1.38.349M320.67 320.919c-.713.269-.523.872-.396 1.443.618.286 1.174.333 1.586-.301a.92.92 0 0 0-.127-.857 1.23 1.23 0 0 0-1.063-.285M319.401 325.375c.27.175.492.397.841.349.349-.047.476-.555.206-.952a1.7 1.7 0 0 0-1.126-.666.52.52 0 0 0-.423.156.502.502 0 0 0-.132.431 1.12 1.12 0 0 0 .634.682M325.381 315.541c.841.111 1.174-.444 1.491-1.158-.222-.27-.412-.555-.618-.761l-1.587.349a1.5 1.5 0 0 0-.127.713.85.85 0 0 0 .241.605.83.83 0 0 0 .6.252M337.611 311.766c.079 0 .333 0 .381-.127s0-.301 0-.381a.335.335 0 0 0-.46 0 .36.36 0 0 0-.065.27.36.36 0 0 0 .144.238M321.828 319.491a1.933 1.933 0 0 0 1.793-1.872 1.999 1.999 0 0 0-3.95.365c-.079.825 1.047 1.427 2.157 1.507M328.918 326.55a.6.6 0 0 0 0 .84c.318.302.667-.143.825-.301.159-.159 0-.539-.079-.571a.8.8 0 0 0-.746.032M330.045 315.541c0-.349 0-1.031-.27-1.126a1.11 1.11 0 0 0-.968.349c-.142.206-.126 1.047.127 1.206.254.158 1.031-.27 1.111-.429M305.49 324.726a1.009 1.009 0 0 0 .492 1.427c.46.223.968.476 1.269 0 .492-.793.444-1.475 0-1.808a1.177 1.177 0 0 0-1.761.381M304.586 319.698a1.584 1.584 0 0 0 .603 1.856.92.92 0 0 0 .755.084.9.9 0 0 0 .336-.196.9.9 0 0 0 .225-.317c.556-.84.603-1.491.175-1.824a1.81 1.81 0 0 0-2.094.397M296.401 329.357a.91.91 0 0 0-.14.743.9.9 0 0 0 .172.347.9.9 0 0 0 .302.243 1.22 1.22 0 0 0 1.586-.318 1.19 1.19 0 0 0-.397-1.507 1.1 1.1 0 0 0-1.523.492M315.69 317.302a1.73 1.73 0 0 0 2.3-.444 2.26 2.26 0 0 0 .111-1.586l-3.331.507a2.12 2.12 0 0 0 .92 1.523M311.534 322.045a1 1 0 0 0 1.459-.428c.635-.984.603-1.666-.111-2.126a1.8 1.8 0 0 0-2.03.508 2.03 2.03 0 0 0 .682 2.046M170.266 237.008a.43.43 0 0 1 0 .27q-.2.076-.38.19c-.175-.238-.54-.285-1.158.095a1.12 1.12 0 0 0-.641.666 1.12 1.12 0 0 0 .086.92 1.585 1.585 0 0 0 1.586.873c.12.133.273.231.444.285.587.175 1.158.603 1.586.365a1.05 1.05 0 0 0 .587-.745 1.6 1.6 0 0 0 .206-1.016 2.6 2.6 0 0 0-.412-.904 2.7 2.7 0 0 0 0-.507c-.079-.635-.222-1.586-1.095-1.46-.872.127-.872.683-.809.968M160.622 179.318c-.714 0-1.459 0-1.459 1.031a1.14 1.14 0 0 0 .825 1.19.83.83 0 0 0 .682 0c.349-.397.634-.857.983-1.333a3.3 3.3 0 0 0 1.586-.444v-2.109a2.2 2.2 0 0 0-1.427-.619c-.952-.048-1.19.428-1.19 2.284M163.192 205.998a1.33 1.33 0 0 0 1.586.412l.095-.111c-.127-.666-.254-1.332-.365-1.998a1.58 1.58 0 0 0-1.015 0 1.14 1.14 0 0 0-.529.781 1.15 1.15 0 0 0 .228.916M161.13 187.122a.93.93 0 0 0 .729-.476c.222-.666-.158-1.079-.824-1.332-.476.301-1.063.586-.794 1.3a1.21 1.21 0 0 0 .889.508M166.38 228.538c.206.365.492.713 1.015.507a1.174 1.174 0 0 0 .444-1.586 3.5 3.5 0 0 0-1.158 0c-.476.175-.539.65-.301 1.079M165.952 211.74a1.39 1.39 0 0 0 .349 1.586c-.111-.571-.254-1.078-.349-1.586M165 219.781a1.982 1.982 0 0 0 2.49-.539c.102-.235.146-.49.127-.745-.095-.334-.206-.651-.285-.984a1.72 1.72 0 0 0-.952-.841 2.014 2.014 0 0 0-2.363.635c-.524.634.063 1.776.983 2.474M162.288 189.818c-.968.223-2.078.587-2.316 1.761a2.71 2.71 0 0 0 1.6 2.783c.35.155.729.233 1.112.231a.92.92 0 0 1 .841.397 136 136 0 0 1-.397-7.646 14.5 14.5 0 0 0-.84 2.474M170.393 248.842a.38.38 0 0 0 .143-.571c-.143-.175-.444-.508-.793-.365s-.143.682 0 .761c.142.08.365.349.65.175M169.758 231.965a1 1 0 0 0-.904-.904c-.555 0-.713.333-.666 1.475a.967.967 0 0 0 1.57-.571M167.221 245.812q.03.122.111.222a1.065 1.065 0 0 0 .856.412c.302 0 .603.159 1.031 0a2.25 2.25 0 0 0 1.238-1.586 1.715 1.715 0 0 0-.683-1.586 1.45 1.45 0 0 0-1.475-.08 1.73 1.73 0 0 0-1.015 1.269.65.65 0 0 0-.46 0c-.73.175-1.586.159-2.157.904l.095 1.079c-.745.666-1.11 1.586-.777 2.046a1 1 0 0 0 1.189.381c.873-.286 1.063-.619.984-1.713.428-.571.745-.92 1.063-1.348M165.412 254.171c.587-.571.524-1.253-.19-1.951a1.1 1.1 0 0 0-.741-.465 1.1 1.1 0 0 0-.446.026 1.1 1.1 0 0 0-.399.201 2.32 2.32 0 0 0-.286 2.348c.651.666 1.349.602 2.062-.159M198.485 288.909c0-.318-.587-.413-.762-.365a.73.73 0 0 0-.475.571c0 .254.428.412.634.412s.635-.317.603-.618M164.096 232.837a.38.38 0 0 0 0 .587c.142.159.555.523.793.317s0-.666 0-.745c0-.08-.508-.381-.793-.159"/><path fill="#2B4690" d="M163.763 235.612c.27 0 .666.396.381.492s-.445.444-.222 1.173a1.12 1.12 0 0 0 .493.771 1.114 1.114 0 0 0 .902.149 1.66 1.66 0 0 0 1.238-1.982c-.191-.904-.73-.952-.793-1.587-.064-.634-.429-.745-1.063-.84-.635-.095-1.586-.175-1.682.714-.095.888.476 1.11.746 1.11M164.175 210.154c.635-.365.651-1.316 0-2.3a1.44 1.44 0 0 0-1.681-.333 2.08 2.08 0 0 0-.65 1.92 2.015 2.015 0 0 0 2.331.713M161.019 215.356a3.172 3.172 0 0 0-3.173-.999 2.03 2.03 0 0 0-.634 2.665 2.36 2.36 0 0 0 2.775.888 1.98 1.98 0 0 0 1.032-2.554M151.422 192.911a3.5 3.5 0 0 0 0-1.253c-.174-.587-1.031-.698-1.586-.333a.991.991 0 0 0-.39 1.042 1 1 0 0 0 .168.354 1.314 1.314 0 0 0 1.808.19M157.656 235.454c-.143.539.159.777 1.269.999a.95.95 0 0 0-.159-1.586.995.995 0 0 0-1.11.587M149.296 196.464a1.194 1.194 0 0 0 1.587.334 1.14 1.14 0 0 0 .317-1.491 1.205 1.205 0 0 0-1.586-.318 1.096 1.096 0 0 0-.318 1.475M158.735 226.301a.97.97 0 0 0-1.238.714 1.27 1.27 0 0 0 .27 1.111c.619.491 1.237.174 1.777-.349-.016-.571-.096-1.285-.809-1.476M157.069 221.812c.571-.491.286-1.11 0-1.776-.698 0-1.427-.238-1.729.587a.6.6 0 0 0 0 .238 2.534 2.534 0 0 0-1.967.111 1.07 1.07 0 0 0-.447.689 1.072 1.072 0 0 0 .178.802 1.59 1.59 0 0 0 2.014.793 1.76 1.76 0 0 0 .857-1.222 1.01 1.01 0 0 0 1.094-.222M162.161 227.302c1.586 1.713 2.982.825 3.934-.381.322-.401.5-.898.507-1.412a2.37 2.37 0 0 0-.904-1.76c-.587-.54-.603-1.349-1.348-1.587a3.266 3.266 0 0 0-3.791 1.111 2.624 2.624 0 0 0-.508 2.474c.301.857 1.475.825 2.11 1.555M152.77 202.079c.667-.38.762-1.11.254-2.014-.507-.904-1.094-1.031-1.586-.698a2.79 2.79 0 0 0-.857 2.252 1.585 1.585 0 0 0 2.189.46M157.354 212.12a1.582 1.582 0 0 0 .492-1.586 1.09 1.09 0 0 0-.684-.601 1.1 1.1 0 0 0-.465-.036 1.1 1.1 0 0 0-.437.161 1.22 1.22 0 0 0-.539 1.475 1.73 1.73 0 0 0 1.633.587M153.5 225.619a1.925 1.925 0 0 0-.904 2.332 1.954 1.954 0 0 0 2.538.65 1.35 1.35 0 0 0 .46-1.856c-.365-.761-1.507-1.364-2.094-1.126M151.85 209.836c.27.508 1.856.683 2.491.27a1.59 1.59 0 0 0 .38-1.681 1.59 1.59 0 0 0-2.014-.778 1.81 1.81 0 0 0-.857 2.189M154.293 217.006a1.918 1.918 0 0 0 .888-2.903 2.14 2.14 0 0 0-2.886-.714 2.55 2.55 0 0 0-.492 3.03 1.74 1.74 0 0 0 1.117.837 1.75 1.75 0 0 0 1.373-.25M271.18 324.329c.08-.555-.904-1.586-1.586-1.681-.682-.096-1.253-.191-1.586.602s-.539 1.127-.825 1.698a.9.9 0 0 0-.272.325.91.91 0 0 0 0 .825.9.9 0 0 0 .272.325 1.19 1.19 0 0 0 1.586-.111 3.3 3.3 0 0 1 .984-.666 1.59 1.59 0 0 0 1.427-1.317M283.109 324.678v.079c-.159.635.428.841.888 1.031.635-.269.984-.698.698-1.332-.095-.222-.539-.492-.729-.428l-.365.19a.9.9 0 0 0 .095-.317.96.96 0 0 0-.889-.764 1 1 0 0 0-.412.066.93.93 0 0 0-.312.31.9.9 0 0 0-.132.42 1.12 1.12 0 0 0 .524.856.75.75 0 0 0 .634-.111M278.287 331.53a1.08 1.08 0 0 0 .1-1.26 1.1 1.1 0 0 0-.307-.326 1.316 1.316 0 0 0-1.586.175 1.08 1.08 0 0 0-.22.853 1.08 1.08 0 0 0 .49.733 1.02 1.02 0 0 0 1.209.121 1 1 0 0 0 .314-.296M281.602 318.888a1 1 0 0 0-.35-.182.97.97 0 0 0-.764.113.95.95 0 0 0-.282.276 1.1 1.1 0 0 0-.248.372 1.048 1.048 0 0 0 .343 1.214 1.126 1.126 0 0 0 1.586-.19 1.2 1.2 0 0 0-.285-1.603M279.905 335.068a1.6 1.6 0 0 0-2.237.301 1.597 1.597 0 0 0 .302 2.237 2.16 2.16 0 0 0 2.617-.572c.38-.491.016-1.522-.682-1.966M276.843 327.406a1.05 1.05 0 0 0 1.46-.412 1.077 1.077 0 0 0-.302-1.586 1.319 1.319 0 0 0-1.586.507 1.175 1.175 0 0 0 .428 1.491M272.545 338.019c-.143.412-.333 1.443 0 1.697s1.174-.444 1.19-.603c0-.476.19-1.094-.238-1.443-.429-.349-.873.142-.952.349"/><path fill="#2B4690" d="M276.955 320.491a1.686 1.686 0 0 0 1.142-.682 2.18 2.18 0 0 0 .365-1.761q4.917.571 9.866.841c-.079.269-.127.539-.191.824a3.8 3.8 0 0 0-1.824.873l-.444-.238a1.996 1.996 0 0 0-2.252 1.19 2.03 2.03 0 0 0 1.776 2.173 2.13 2.13 0 0 0 1.587-.492l.222.19c.904.714 1.697.333 2.458-.301.46.428.762 1.126 1.586.682a1.03 1.03 0 0 0 .524-1.221c-.238-.873-.968-.714-1.586-.635-.143-.381-.27-.73-.413-1.078l1.38-.603a6.3 6.3 0 0 0 .111-1.174l3.855.095h.158q.238.035.476 0h3.49a1.582 1.582 0 0 0 .761 1.491 1.962 1.962 0 0 0 1.583.307 1.955 1.955 0 0 0 1.272-.989 1.6 1.6 0 0 0 .223-.92l2.728-.127a1.204 1.204 0 0 0 .852-2.058 1.2 1.2 0 0 0-.852-.353c-29.266.286-58.388-6.345-83.07-22.397a136 136 0 0 1-37.625-37.228 71.6 71.6 0 0 1-5.266-8.613.47.47 0 0 0-.177-.365.5.5 0 0 0-.186-.092.5.5 0 0 0-.208-.003l-.428-.746a1.94 1.94 0 0 0-1.428.206 1.397 1.397 0 0 0 0 2.031 1.06 1.06 0 0 0 .734.497 1.05 1.05 0 0 0 .852-.244l.143.334a.92.92 0 0 0-.127 1.062.81.81 0 0 0 .793.429 72 72 0 0 0 3.76 7.058 1.18 1.18 0 0 0 .301.984.97.97 0 0 0 .508.285c.317.524.65 1.063.983 1.586-.396.635-.317 1.206.365 1.872.343.34.802.538 1.285.555.285.397.555.825.856 1.222-.466.016-.913.19-1.269.491-.983.778-.84 2.411 0 2.681.841.27 1.269-.174 1.428.127s.19 1.063.793 1.19c.603.126 1.095-.667 1.459-1.222a209 209 0 0 0 2.427 3.173 1.43 1.43 0 0 0 .175 1.189 1.72 1.72 0 0 0 1.253.54c.158.174.301.364.46.555a65 65 0 0 0 3.172 3.537 1.38 1.38 0 0 0-.809.365 1.59 1.59 0 0 0 .286 1.967 1.379 1.379 0 0 0 2.141 0q.133-.143.222-.318a127 127 0 0 0 5.917 5.79 1.15 1.15 0 0 0 0 .984 1.58 1.58 0 0 0 1.158.586.8.8 0 0 0 .333-.142 180 180 0 0 0 3.727 3.172 2.63 2.63 0 0 0 0 2.253 1.804 1.804 0 0 0 2.332 1.046 2.26 2.26 0 0 0 .952-.745c.856.666 1.745 1.316 2.617 1.951.133.166.308.292.508.365a100 100 0 0 0 8.898 5.821 1.2 1.2 0 0 0 0 .666 1.904 1.904 0 0 0 2.3.968.5.5 0 0 0 .191-.175c1.173.667 2.347 1.317 3.537 1.936-.02.217.018.436.111.634.508 1.126 1.792 1.856 2.649 1.491a1.7 1.7 0 0 0 .555-.412 83 83 0 0 0 4.933 2.284 1.174 1.174 0 0 0 1.348.587 125 125 0 0 0 5.235 2.125c0 .603.65.714 1.237.619v-.127l2.332.841a1.5 1.5 0 0 0 0 .507 1.07 1.07 0 0 0 .571.596 1.066 1.066 0 0 0 .825.007l.19-.095a2.01 2.01 0 0 0 1.729 1.237h.143a1.87 1.87 0 0 0-.143 2.078c.126.285.297.547.508.777a.92.92 0 0 0-.635.444 1.44 1.44 0 0 0-.028 1.109 1.42 1.42 0 0 0 .774.795 1.81 1.81 0 0 0 1.935-.381 1.44 1.44 0 0 0 0-1.729 2.045 2.045 0 0 0 .904-2.411 2.25 2.25 0 0 0-.936-1.047c3.03.889 6.091 1.587 9.168 2.316a.68.68 0 0 0-.002.54.66.66 0 0 0 .399.364 3.7 3.7 0 0 0 1.015 0c.095-.181.149-.382.159-.587q1.999.412 3.997.762.092.135.222.238a.94.94 0 0 0 1.301 0 54 54 0 0 0 2.236.349q-.247.377-.38.809a.9.9 0 0 0-.698-.318 1.414 1.414 0 0 0-1.238 1.587 1.806 1.806 0 0 0 1.317 1.459 1.46 1.46 0 0 0 1.507-.873c.323.149.676.22 1.031.207a.35.35 0 0 0 .603 0M294.006 333.846a1.05 1.05 0 0 0-.92.301c-.174.222-.365.968-.095 1.206s.983-.111 1.221-.301a.76.76 0 0 0 .201-.655.8.8 0 0 0-.138-.324.8.8 0 0 0-.269-.227M288.724 343.585a1.175 1.175 0 0 0 .365 1.586 1.07 1.07 0 0 0 .872.186 1.08 1.08 0 0 0 .714-.535 1.158 1.158 0 0 0-.333-1.507 1.1 1.1 0 0 0-.868-.222 1.124 1.124 0 0 0-.75.492M291.294 326.772a1.45 1.45 0 0 0-1.708.058c-.16.126-.292.285-.386.466a1.71 1.71 0 0 0 .174 2.204 2.11 2.11 0 0 0 2.332-.507 1.45 1.45 0 0 0 .32-1.208 1.46 1.46 0 0 0-.732-1.013M283.045 338.986a.364.364 0 0 0 .127.428c.08 0 .333 0 .381-.127s0-.301 0-.381a.34.34 0 0 0-.273-.08.34.34 0 0 0-.235.16M159.639 246.653c.127-.174.38-.539.143-.841s-.698 0-.746.127a.6.6 0 0 0 0 .73.4.4 0 0 0 .138.099q.08.033.167.032a.4.4 0 0 0 .298-.147M288.724 332.53a1.6 1.6 0 0 0-.27-.524 1.38 1.38 0 0 0-1.358-.599 1.38 1.38 0 0 0-1.116.98 8.8 8.8 0 0 0-.492 2.237 2.159 2.159 0 0 0 1.586 1.935c.492.095 1.587-.079 1.587-1.095-.825-1.475.365-1.681.063-2.934M282.807 345.442a1.2 1.2 0 0 0-.444.904c.159.698 1.047.745 1.38.571a.954.954 0 0 0-.079-1.46.87.87 0 0 0-.857-.015M285.933 328.04c-.27-.381-1.587-.301-1.714.286a1.015 1.015 0 0 0 .651 1.126c.571.111 1.348-1.031 1.063-1.412M249.069 326.692c-.444.254-.349.619-.191.968.159.349.746.713 1.127.38.225-.257.412-.545.555-.856a1.08 1.08 0 0 0-1.491-.492M252.242 335.559a.56.56 0 0 0-.203.251.56.56 0 0 0-.035.32c.095.19.491.238.713.206.222-.031.476-.365.365-.65s-.603-.19-.84-.127M257.825 322.901a2.14 2.14 0 0 0-2.221.444c-.396.476-.825.968-.301 1.587.523.618.682 1.046 1.031 1.586a.895.895 0 0 0 .805.846.9.9 0 0 0 .416-.053 1.187 1.187 0 0 0 .777-1.459 2.8 2.8 0 0 1 0-1.19c.108-.31.117-.646.027-.961a1.6 1.6 0 0 0-.534-.8M267.913 334.068c-.127.111-.27.682 0 .856.27.175.666-.158.825-.301s.127-.46 0-.571a.8.8 0 0 0-.825.016"/><path fill="#2B4690" d="M252.559 317.508a.46.46 0 0 1-.46-.793 2.06 2.06 0 0 0-.682-2.775 2.29 2.29 0 0 0-1.84-.143v-.095a1.26 1.26 0 0 0-.772-.681 1.26 1.26 0 0 0-1.021.125 1.37 1.37 0 0 0-.971 1.483c.027.213.104.417.226.595a1.84 1.84 0 0 0 1.285 1.063c.07.4.292.758.618.999.496.229 1.053.29 1.586.175a1.3 1.3 0 0 0 0 .841 1.036 1.036 0 0 0 1.301.571.97.97 0 0 0 .705-.5.97.97 0 0 0 .025-.865M296.1 323.965a1.443 1.443 0 0 0-.127-1.936 1.188 1.188 0 0 0-1.586.127 1.7 1.7 0 0 0 .412 2.078.954.954 0 0 0 1.301-.269M245.896 329.515c-.19 0-.618.476-.523.714s.698.286.872.206a.63.63 0 0 0 .334-.666.63.63 0 0 0-.3-.238.63.63 0 0 0-.383-.016M249.291 322.378a1.07 1.07 0 0 0-1.061-.617 1.1 1.1 0 0 0-.414.125c-.444.254-.349.619-.191.968a.7.7 0 0 0 .169.304q.123.13.293.188c.111.037.23.047.346.028a.7.7 0 0 0 .319-.14c.226-.253.408-.543.539-.856M263.599 326.978a2.583 2.583 0 0 0-3.173 1.348c-.269.856.793 1.348 1.412 1.174s.444 0 .92.444c.118.158.275.282.456.361a1.13 1.13 0 0 0 1.479-.583 2.22 2.22 0 0 0-1.094-2.744M264.804 330.135a.74.74 0 0 0-.246.266.74.74 0 0 0-.087.352c0 .159.428.587.698.476s.206-.634.159-.856a.442.442 0 0 0-.524-.238M267.675 320.57a1.075 1.075 0 0 0-1.396-.619 1.3 1.3 0 0 0-.666 1.428 1.06 1.06 0 0 0 .587.58 1.05 1.05 0 0 0 .825-.025 1.02 1.02 0 0 0 .629-.537 1.01 1.01 0 0 0 .021-.827M258.459 317.524c-.158.222.111.746.27.841a.495.495 0 0 0 .744-.629.5.5 0 0 0-.125-.148c-.143-.127-.762-.27-.889-.064M256.144 330.753a2.615 2.615 0 0 0-.508 3.458c.587.666 1.586 0 1.729-.603s.206-.397.856-.555a1.117 1.117 0 0 0 .933-.637 1.11 1.11 0 0 0-.108-1.124 2.25 2.25 0 0 0-2.902-.539M319.48 341.048a.36.36 0 0 0-.021.234.36.36 0 0 0 .132.194c.096 0 .349 0 .381-.127s.079-.301 0-.381a.32.32 0 0 0-.265-.079.31.31 0 0 0-.227.159M328.459 336.892a1.09 1.09 0 0 0-.049 1.269q.126.191.318.317a.85.85 0 0 0 .719.256.84.84 0 0 0 .629-.431 1.03 1.03 0 0 0 .098-1.196 1 1 0 0 0-.288-.311 1.13 1.13 0 0 0-1.427.096M323.462 323.076a1.793 1.793 0 0 0 .397 2.601 2.25 2.25 0 0 0 2.95-.476 2.367 2.367 0 0 0-.523-2.855 1.97 1.97 0 0 0-2.304.102c-.215.17-.392.384-.52.628M322.383 340.889c-.127.095-.19.73 0 .841.191.111.667-.143.825-.302.159-.158 0-.539 0-.571a.83.83 0 0 0-.825.032M324.715 330.912c-.222.317 0 .951.587 1.284a.58.58 0 0 0 .527.157.59.59 0 0 0 .425-.347c.254-.428.365-.888-.111-1.269a1.141 1.141 0 0 0-1.428.175M320.242 327.692a.92.92 0 0 0 .143 1.269c.317.333 1.475 0 1.586-.365a1.24 1.24 0 0 0-.349-1.047.87.87 0 0 0-.726-.281.86.86 0 0 0-.654.424M319.671 336.051a.72.72 0 0 0 .222.73c.206.111.635.317.761 0a.735.735 0 0 0-.095-.746c-.111-.047-.761-.222-.888.016M343.163 316.176c-.159.222.111.746.269.841q.078.061.172.089a.5.5 0 0 0 .378-.043.497.497 0 0 0 .069-.823c-.143-.127-.73-.207-.888-.064M319.084 337.97a1.74 1.74 0 0 0-1.808.269 1.113 1.113 0 0 0 .428 1.475 1.03 1.03 0 0 0 1.475-.428c.349-.523.334-1.047-.095-1.316M297.528 332.228c-.635-.444-1.364-.206-1.935.634a1.19 1.19 0 0 0 .095 1.682 2.28 2.28 0 0 0 2.379-.238 1.4 1.4 0 0 0-.059-1.706 1.4 1.4 0 0 0-.48-.372M352.077 314.542a.535.535 0 0 0-.619.095c-.111.159 0 .523.207.698.206.174.555.222.745 0s-.238-.666-.333-.793M340.498 325.011c-.159.317-.333 1.221 0 1.38s1.063-.175 1.348-.397.254-.809-.206-1.19a.639.639 0 0 0-.961-.106.64.64 0 0 0-.181.313M334.804 312.749a1.225 1.225 0 0 0-1.587.286 1.266 1.266 0 0 0 .381 1.586 1.003 1.003 0 0 0 1.38-.285 1.1 1.1 0 0 0 .119-1.254 1.1 1.1 0 0 0-.293-.333M337.897 315.716c-.429-.206-.905-.269-1.095.207s-.317 1.332 0 1.586 1.126-.428 1.38-.73c.254-.301.27-.745-.285-1.063M335.295 336.194c-.127.254-.222.809 0 .984a1 1 0 0 0 .984-.095c.174-.159.349-.984.111-1.158-.238-.175-1 .095-1.095.269M332.361 316.414a1.906 1.906 0 0 0-2.205.872c-.46.73-.19 1.444.73 1.999a1.49 1.49 0 0 0 1.792-.365 2.57 2.57 0 0 0-.317-2.506M304.761 330.055c-.952-.682-1.999-.73-2.427-.111a2.05 2.05 0 0 0 .555 2.3 1.86 1.86 0 0 0 2.046-.508 1.346 1.346 0 0 0-.174-1.681M307.013 337.97c.095-.116.164-.251.204-.396a1.08 1.08 0 0 0-.121-.865 1.1 1.1 0 0 0-.305-.325 1.206 1.206 0 0 0-1.586.27 1.27 1.27 0 0 0 .364 1.586 1.02 1.02 0 0 0 .78.174 1.01 1.01 0 0 0 .664-.444M305.808 348.075c-.223.222-.413 1.491 0 1.824.412.333 1.491-.508 1.76-.889a1.22 1.22 0 0 0-.254-1.411c-.396-.318-1.142.158-1.506.476M298.908 339.144a1.1 1.1 0 0 0-.827-.263 1.096 1.096 0 0 0-.759.422.83.83 0 0 0-.278.706.85.85 0 0 0 .405.642 1.01 1.01 0 0 0 1.25.208c.133-.074.248-.178.336-.303a1.05 1.05 0 0 0-.127-1.412M307.584 340.952c-.428-.238-.888-.396-1.269 0a1.32 1.32 0 0 0 .444 1.587c.349 0 .714-.254.984-.54a.652.652 0 0 0-.159-1.047M300.176 335.639a1.364 1.364 0 0 0 .572 1.729 1.45 1.45 0 0 0 1.148.303 1.45 1.45 0 0 0 .993-.652 1.473 1.473 0 0 0-.127-1.951 2.147 2.147 0 0 0-2.586.571M298.702 345.157a1.203 1.203 0 0 0 .206 1.586 1.174 1.174 0 0 0 1.586-.333c.136-.263.176-.566.113-.856a1.27 1.27 0 0 0-.462-.73.966.966 0 0 0-1.443.333M312.93 332.402a1.28 1.28 0 0 0-1.586.429 1.58 1.58 0 0 0 .253 1.951 1.936 1.936 0 0 0 2.253-.286c.254-.46-.206-1.602-.92-2.094M314.199 345.378a.746.746 0 0 0 .238.825.677.677 0 0 0 .682-.095.7.7 0 0 0 0-.682c-.207-.127-.762-.334-.92-.048M317.276 320.792a1.59 1.59 0 0 0-.127-2.078c-.539-.619-1.205-.571-1.872.428a19 19 0 0 0-.444 2.284.97.97 0 0 0 .219.75.968.968 0 0 0 .701.345 1.02 1.02 0 0 0 1.158-.841c.082-.311.204-.61.365-.888M318.132 330.801c.27-.222.127-1.253-.349-1.586s-.698 0-.936.349a.72.72 0 0 0-.175.651.71.71 0 0 0 .445.506c.349.175.746.302 1.015.08M311.502 325.011c-.111-1.269-.365-1.713-1.063-1.776a1.06 1.06 0 0 0-1.142.65 1.219 1.219 0 0 0 .317 1.586c.746.381 1.317-.079 1.888-.46M309.884 318.222a1.7 1.7 0 0 0 1.983.111 2.33 2.33 0 0 0 .174-2.205c-1.586.175-3.172.349-4.758.476.111.397.38.746.745.714a1.84 1.84 0 0 1 1.856.904M311.645 327.771a1.063 1.063 0 0 0-.936-.349 1.67 1.67 0 0 0-.872.967c-.159.841.618.905 1.253 1.19.587-.571 1.015-1.126.555-1.808M270.435 327.85c-.507.175-.333.825-.19 1 .143.174 1.063 1.031 1.443.888s.238-1.253.096-1.348c-.143-.095-.825-.714-1.349-.54M184.034 270.62c-.571.238-.365 1.586.429 2.252a1.074 1.074 0 0 0 1.443 0c.587-.476.904-1.459.555-1.919-.666-.92-1.808-.587-2.427-.333M183.828 280.232a1.78 1.78 0 0 0-.317 2.332 1.915 1.915 0 0 0 2.379.111c.476-.397.365-1.586-.174-2.221a1.32 1.32 0 0 0-1.888-.222M182.083 277.536c-.396-.285-1.253 0-1.586.238a.85.85 0 0 0-.236.668.86.86 0 0 0 .347.617.683.683 0 0 0 1.11-.143c.27-.285.73-1.078.365-1.38M188.333 289.702c-.286-.397-.904 0-1.079.127s-.412.571-.127.872a.684.684 0 0 0 .873 0c.19-.047.618-.587.333-.999M182.226 295.412a.64.64 0 0 0 0 .651.72.72 0 0 0 .714 0c.127-.127.397-.556 0-.857-.396-.301-.492.111-.714.206M181.703 284.118a.76.76 0 0 0 0 .413.43.43 0 0 0 .301 0c0-.127.206-.302.111-.428-.095-.127-.269.015-.412.015M193.282 283.088a1.34 1.34 0 0 0-.222 1.063c.127.285 1.11.618 1.459.285a1 1 0 0 0 0-1.412.764.764 0 0 0-.978-.184.76.76 0 0 0-.259.248M196.47 280.835a.96.96 0 0 0 .331-.839.97.97 0 0 0-.505-.747c-.302-.111-.857.381-1.269.65a.45.45 0 0 0-.237.275.45.45 0 0 0 .047.36 1.316 1.316 0 0 0 1.633.301M189.015 292.24c-.476.111-1.062 1.206-.713 1.587.349.38 1.031.856 1.586 0 .555-.857-.397-1.761-.873-1.587M195.852 298.792c-.206.222-.635.904-.159 1.364s1.015-.08 1.174-.27a1.04 1.04 0 0 0 0-.968.67.67 0 0 0-.478-.301.67.67 0 0 0-.537.175M196.248 294.493c.175 0 .429-.413.318-.667-.112-.253-.492-.317-.683-.253-.19.063-.602.475-.507.713s.698.286.872.207M198.009 291.844a.24.24 0 0 0-.127.127c-.492 0-1.586.872-1.269 1.427a1.076 1.076 0 0 0 1.316.524c.349-.175.445-.809.365-1.301h.175c.127 0 .491-.381.38-.666s-.634-.175-.84-.111M179.276 284.15c-.476.349-.127 1.222-.191 1.729l.302.175a1.019 1.019 0 0 0 1.126-.476c.224-.238.359-.546.381-.872-.524-.159-1.174-.889-1.618-.556M192.299 285.895c-.397.142-.381 1.046 0 1.332.283.128.593.188.904.174.603-.523.714-1.157.317-1.364a1.57 1.57 0 0 0-1.221-.142M192.187 279.55c-.38-1.586-1.871-.872-1.744-1.903.126-1.031 1.015-.476 1.094-1.951s-1.142-2.412-2.046-1.904-.841 1.444-1.079 1.491-1.348 0-1.38.841c0 1.745 1.586 1.396 1.586 1.919s-.237 1.586-.095 2.332c.206 1.11 1 1.998 2.142 1.586a1.92 1.92 0 0 0 1.522-2.411M165.476 260.515a.808.808 0 0 0 0 1.254 1.48 1.48 0 0 0 1.903.396 1.71 1.71 0 0 0 .254-1.951c-.46-.476-1.459-.317-2.157.301M180.989 274.379a1.776 1.776 0 0 0-.143-2.109 1.39 1.39 0 0 0-1.586-.095c-.793.729-1.031 1.744-.524 2.252.334.228.73.346 1.134.338a1.94 1.94 0 0 0 1.119-.386M162.795 256.502a1.59 1.59 0 0 0 0 1.84 1.08 1.08 0 0 0 1.586 0 1.24 1.24 0 0 0 .159-1.586 1.58 1.58 0 0 0-1.745-.254M171.154 250.825a2.5 2.5 0 0 0-1.411-.444c-.587-.207-1.904.111-2.11.618-.206.508.349.888.888 1.095.099.317.273.605.508.84.618.603 1.364.508 2.109-.269a1.582 1.582 0 0 0 .016-1.84M163.493 273.284a.523.523 0 0 0 0 .603c.143.159.523 0 .73 0s.333-.508.142-.745c-.19-.238-.698.063-.872.142M162.557 242.084c-.364-.666-.555-1.507-1.411-1.856l-1.016.349a2.9 2.9 0 0 0-.84-.397.3.3 0 0 0 0-.111c-.127-.301-.635-.222-.73-.143l-.206.175a.76.76 0 0 0-.381.222 1 1 0 0 0 0 1.253c.492.777.857.873 1.888.539q.902.513 1.856.92a.713.713 0 0 0 .84-.951M241.757 321.188a1.47 1.47 0 0 0-.904 1.449c.012.203.066.401.158.582.238.65 1.063.856 1.967.491a1.06 1.06 0 0 0 .826-.991 1.1 1.1 0 0 0-.08-.452 2.29 2.29 0 0 0-1.967-1.079M168.077 255.551c-.317-.349-.666-.285-1.031.095 0 .143-.079.397 0 .508.288.424.428.932.397 1.443 0 .238.523.587.824.619a1.36 1.36 0 0 0 .968-.46 1.1 1.1 0 0 0-.095-.904 10.5 10.5 0 0 0-1.063-1.301M175.485 274.507c-.302-.397-.762-.175-1.095.142-.333.318-.396 1.031 0 1.222.397.19 1.016.603 1.364.095s-.031-1.174-.269-1.459M176.849 276.964a1.33 1.33 0 0 0-1.015 0c-.397.222-.333 1.111.111 1.349.266.085.547.112.825.079.507-.555.507-1.221.079-1.428M178.467 266.067a2.443 2.443 0 0 0-3.03-.158c-.84.666-.761 1.982.159 3.061a1.77 1.77 0 0 0 1.222.647 1.77 1.77 0 0 0 1.316-.425 2.36 2.36 0 0 0 .333-3.125M170.583 284.674a1 1 0 0 0 0 1.586.937.937 0 0 0 1.38.095c.492-.492.666-1.475.317-1.824a1.59 1.59 0 0 0-1.697.143M170.933 276.378a1.33 1.33 0 0 0-.159 1.697c.365.397 1.285.302 2.03-.365 0-.206 0-.65-.095-.92a1.317 1.317 0 0 0-1.776-.412M170.425 269.827a1.63 1.63 0 0 0 2.538 2.046 1.49 1.49 0 0 0 .222-2.03 2.19 2.19 0 0 0-2.76-.016M162.065 275.601c-.158.111-.428.666-.253.856.174.191.761.001.888-.095a.488.488 0 0 0 .156-.528.5.5 0 0 0-.243-.291.5.5 0 0 0-.378-.034.5.5 0 0 0-.17.092M225.276 317.524a.73.73 0 0 0-.634.381c-.096.238.253.539.46.602.206.064.698-.095.777-.396s-.397-.587-.603-.587M230.304 320.205c-.159-.46-1.221-.381-1.792.237-.571.619.158 1.476.555 1.587.396.111 1.396-1.38 1.237-1.824M230.399 313.543c-.238-.428-.587-.698-1.047-.539a6.34 6.34 0 0 0-3.061 1.935 2 2 0 0 0-.206.539 1.36 1.36 0 0 0 1.136 1.698c.256.035.516-.004.751-.112a8.5 8.5 0 0 0 2.062-1.031 2.17 2.17 0 0 0 .365-2.49M222.659 321.744a1.11 1.11 0 0 0 1.063.935c.65-.095 1.031-1.586.65-1.84-.381-.253-1.777.27-1.713.905M220.152 326.581c-.254.143-.888.651-.587 1.238.302.586.984.253 1.206.126a1.03 1.03 0 0 0 .381-.888.69.69 0 0 0-.691-.56.7.7 0 0 0-.309.084M223.689 312.591a1.01 1.01 0 0 0 .46-1.333.776.776 0 0 0-1.189-.365 1.36 1.36 0 0 0-.54.936c-.047.318.762 1.031 1.269.762M221.056 313.225c-.428 0-.713.873-.412 1.285.301.413.619.365.793.46.746-.301 1.063-.856.761-1.189a1.74 1.74 0 0 0-1.142-.556M229.416 334.37a.858.858 0 0 0 .159.809.98.98 0 0 0 .999 0c.206-.254-.175-.92-.365-1.015a.843.843 0 0 0-.793.206M238.378 325.455a1.016 1.016 0 0 0 .761-1.205 1.35 1.35 0 0 0-.634-.809c-.571-.27-.984 0-1.587 1.062.349.508.587 1.222 1.46.952M220.866 309.023a1.93 1.93 0 0 0 1.512-.436 1.93 1.93 0 0 0 .677-1.42c.143-1.586-1.491-1.443-1.031-2.379s1.126-.111 1.682-1.476c.555-1.364-.286-2.649-1.317-2.474s-1.253 1.079-1.491 1.063-1.285-.444-1.586.333c-.635 1.586.967 1.808.936 2.347-.032.54-.746 1.396-.873 2.189-.174 1.111.302 2.205 1.491 2.253M238.695 334.386a2.316 2.316 0 0 0-1.031 2.68 2.095 2.095 0 0 0 2.586 1.206 3.166 3.166 0 0 0 1.173-3.03 2.09 2.09 0 0 0-2.728-.856M237.966 320.332a1.159 1.159 0 0 0-.873-2.126 1.145 1.145 0 0 0-.65 1.396 1.253 1.253 0 0 0 1.523.73M234.984 316.334a1.12 1.12 0 0 0-1.001.322 1.12 1.12 0 0 0-.284 1.011 1.5 1.5 0 0 0 .904.92 1.25 1.25 0 0 0 1.078-.429 1.26 1.26 0 0 0 .08-1.075 1.27 1.27 0 0 0-.777-.749M230.13 326.295a1.59 1.59 0 0 0-1.081 1.463c-.006.216.033.431.113.631a2.52 2.52 0 0 0 2.855 1.333 1.84 1.84 0 0 0 .825-2.348 2 2 0 0 0-2.712-1.079M200.943 304.93a1 1 0 0 0-.562.606c-.045.135-.06.278-.045.42a1 1 0 0 0 .132.402.92.92 0 0 0 .892.628.9.9 0 0 0 .377-.089c.634-.286 1.126-1.174.904-1.586a1.67 1.67 0 0 0-1.698-.381M208.383 318.967a.7.7 0 0 0-.159.635.75.75 0 0 0 .682.253c.159 0 .555-.396.333-.793-.222-.396-.666-.19-.856-.095M209.287 307.293c-.555.174-.523 1.094-.745 1.586q.117.129.222.27a1.03 1.03 0 0 0 1.221 0c.29-.155.515-.408.634-.714-.38-.333-.761-1.317-1.332-1.142M208.494 303.422c.111-.301-.46-.793-.682-.825a.82.82 0 0 0-.666.492.86.86 0 0 0 .428.714.97.97 0 0 0 .92-.381M203.323 289.417c-.302-.365-1.285 0-1.587.824-.301.825.635 1.349 1.063 1.365.428.015.825-1.809.524-2.189M207.669 298.109c.285.27.666.587 1.047.318.38-.27.333-1.111.206-1.476a.46.46 0 0 0-.365-.333 1.84 1.84 0 0 0-.476-1.253 2 2 0 0 0-2.918-.127 1.584 1.584 0 0 0-.334 2.11 1.029 1.029 0 0 0-.824-.111 1.33 1.33 0 0 0-.714 1.586c.222.476 1.11.698 2.046.317 0-.206.286-.602.206-.904a1.1 1.1 0 0 0-.158-.333 2.73 2.73 0 0 0 2.284.206M201.673 285.61a2.17 2.17 0 0 0-.444-2.506.855.855 0 0 0-1.174-.159 6.1 6.1 0 0 0-2.252 2.839 1.8 1.8 0 0 0 0 .571 1.39 1.39 0 0 0 .871 1.207 1.38 1.38 0 0 0 1.461-.287 9.1 9.1 0 0 0 1.538-1.665M214.918 305.088a1.82 1.82 0 0 0-1.063 2.109 1.906 1.906 0 0 0 2.205.889c.571-.222.872-1.38.571-2.158a1.328 1.328 0 0 0-1.713-.84M215.886 318.079c-.492 0-1.396.793-1.222 1.333.175.539.698 1.158 1.586.602s.127-1.871-.364-1.935M211.46 308.435s.254.19.285.159c.032-.032.286-.222.238-.365s-.222-.111-.349-.159a1.1 1.1 0 0 0-.174.365M215.394 316.397c.222 0 .793-.396.666-.872s-.857-.333-1.063-.238-.571.397-.412.777a.66.66 0 0 0 .809.333M218.772 299.964a2.093 2.093 0 0 0-2.855.096 2.32 2.32 0 0 0-.095 2.871 2.094 2.094 0 0 0 2.839.285 3.04 3.04 0 0 0 .111-3.252M214.173 298.584a1.76 1.76 0 0 0 .555-2.046 1.37 1.37 0 0 0-1.475-.618c-.984.428-1.587 1.3-1.222 1.966a1.93 1.93 0 0 0 2.142.698M214.172 301.979c-.269-.412-1.173-.396-1.506-.269a.84.84 0 0 0-.318 1.237.68.68 0 0 0 .485.405.69.69 0 0 0 .61-.167c.269-.206.983-.793.729-1.206M464.587 183.315H444.95v19.638h19.637zM510 228.728h-19.637v19.637H510zM464.587 228.728H444.95v19.637h19.637zM419.189 183.315h-19.637v19.638h19.637zM419.189 228.728h-19.637v19.637h19.637zM368.97 183.315h-19.637v19.638h19.637z"/><path fill="#1BA9F5" d="M300.081 83.21a101.516 101.516 0 0 0-99.566 121.322 101.5 101.5 0 0 0 27.783 51.978 101.51 101.51 0 0 0 110.632 22.007A101.517 101.517 0 0 0 300.081 83.21m0 165.108a63.655 63.655 0 1 1 63.655-63.639 63.64 63.64 0 0 1-63.655 63.639"/><path fill="#0A89DB" d="m367.88 226.663-24.9 24.899 64.583 64.583 24.9-24.9z"/><path fill="#0D90E0" d="M223.103 183.187a1.13 1.13 0 0 0 .882-.175 1.14 1.14 0 0 0 .482-.76 1.4 1.4 0 0 0-.227-.88 1.4 1.4 0 0 0-.725-.548 1.79 1.79 0 0 0-1.459 1.174c-.064.381.571 1.094 1.047 1.189M247.578 146.674c.349.127.555-.428.539-.539-.015-.111-.079-.524-.412-.587a.36.36 0 0 0-.321.048.37.37 0 0 0-.155.285c-.016.222-.016.666.349.793M249.957 145.5c.365-.476.73-.967 1.126-1.427a1 1 0 0 0-.349-.254c-.666-.206-1.586.206-1.586.761-.079.286.349.651.809.92M213.681 188.264a1.115 1.115 0 0 0 1.1-.593c.068-.131.109-.275.121-.422.127-.666-.333-1.586-.904-1.586a1.377 1.377 0 0 0-1.586 1.031 1.29 1.29 0 0 0 .26 1.087 1.3 1.3 0 0 0 1.009.483M214.458 169.278l.523-.539H213.3c.341.263.737.447 1.158.539M204.655 172.608a1 1 0 0 0 .888-.127 2.14 2.14 0 0 0 .698-2.379 1.03 1.03 0 0 0-1.189-.777 1.76 1.76 0 0 0-1.587 1.475 4 4 0 0 0 0 .428v.095a9.6 9.6 0 0 0 1.19 1.285M209.065 168.739h-.968.127c.274.086.567.086.841 0M200.42 188.819a2.66 2.66 0 0 0 1.126 2.015c.666.19 1.459-.476 1.682-1.428.222-.951-.143-1.364-1.19-1.586a1.33 1.33 0 0 0-1.618.999M213.015 180.667c.29-.428.419-.945.364-1.459-.19-.492-.793-.809-1.269-1.269.254-.444.556-1 0-1.587-1.475 0-1.586.302-.92 1.587a5 5 0 0 0-.555 1.713c.103.555.375 1.064.778 1.459.412.508 1.173.286 1.602-.444M202.371 177.462a3.03 3.03 0 0 0 3.077 1.047c.778-.349.603-1.396.809-1.586s1.412.555 2.348 0a2.55 2.55 0 0 0 .904-2.824 2.47 2.47 0 0 0-1.19-1.427 2.06 2.06 0 0 0-2.268.396c-.492.619-.507 1.825-.793 1.951s-1.428-.682-2.332-.126a1.81 1.81 0 0 0-.831 1.165 1.81 1.81 0 0 0 .276 1.404M215.87 184.918a1.4 1.4 0 0 0 1.047-.507c.46-.809-.111-1.317-.762-1.793-.618.254-1.316.492-1.3 1.301a.96.96 0 0 0 .622.937 1 1 0 0 0 .393.062M233.001 139.076c.65.174 1.412-.524 1.586-1.46a.83.83 0 0 0-.101-.679.82.82 0 0 0-.581-.368c-.761-.222-1.681.175-1.808.746a1.733 1.733 0 0 0 .904 1.761M228.226 144.611c-.19.381.238 1.301.73 1.586a.8.8 0 0 0 .964-.212.8.8 0 0 0 .162-.311c.333-.825.302-1.475-.095-1.682a1.84 1.84 0 0 0-1.761.619M231.478 151.068h1.237a1.86 1.86 0 0 0 .857-1.063 1.3 1.3 0 0 0-.239-.801 1.3 1.3 0 0 0-.681-.484c-1.095-.174-1.904.159-2.015.841a1.82 1.82 0 0 0 .841 1.507M241.439 138.743a.96.96 0 0 0 .752-.074.962.962 0 0 0 .47-.592.872.872 0 0 0-.714-1.047.8.8 0 0 0-.622.07.79.79 0 0 0-.377.501.8.8 0 0 0-.075.339.83.83 0 0 0 .268.624q.131.121.298.179M239.742 141.55c-.793-.174-1.348.254-1.586 1.238-.238.983.285 1.348 1.253 1.586a1.13 1.13 0 0 0 1.396-.65 2.33 2.33 0 0 0-.225-1.237 2.33 2.33 0 0 0-.838-.937M240.265 132.145c.27-.175.207-.92.238-1.412a.43.43 0 0 0-.082-.349.46.46 0 0 0-.314-.174 1.3 1.3 0 0 0-1.237 1.11.96.96 0 0 0 .474.791.97.97 0 0 0 .921.034M237.569 140.281a1.58 1.58 0 0 0 1.586-.809 1.585 1.585 0 0 0-1.063-1.586 1.096 1.096 0 0 0-1.221.936 1.24 1.24 0 0 0 .698 1.459M233.588 141.138a1.35 1.35 0 0 0-.54.905c0 .222.333.586.587.698a9.4 9.4 0 0 0 1.586.475c.476.111.73-.127.809-.65-.079-.111-.142-.365-.285-.412a2.3 2.3 0 0 1-1.142-.984 1.1 1.1 0 0 0-.504-.139 1.1 1.1 0 0 0-.511.107M223.69 148.324c-.111-.666-.27-1.317-1.079-1.222-.809.096-.888.714-.809 1.349a1.2 1.2 0 0 0 .974.393 1.2 1.2 0 0 0 .914-.52M232.287 183.886a1.22 1.22 0 0 0 1.38-.73 1.68 1.68 0 0 0-.777-1.586 1.497 1.497 0 0 0-1.46.888 1.102 1.102 0 0 0 .426 1.248c.129.09.276.151.431.18M233.365 188.026a1.82 1.82 0 0 0 2.094-1.063c.143-.555-.92-1.745-1.586-1.872a1.496 1.496 0 0 0-1.535 1.275 1.493 1.493 0 0 0 1.107 1.66zM226.703 169.674v.286c-.174.444-.444.618-.856.285-.143-.127-.238-.317-.397-.428a1.92 1.92 0 0 0-2.157 0 1.585 1.585 0 0 0-.73 1.967 2.76 2.76 0 0 0 1.856 1.967q-.197.645-.269 1.316c0 1.301.856 1.808 1.998 1.158a1.47 1.47 0 0 0 .869-1.089 1.45 1.45 0 0 0-.441-1.322 10 10 0 0 0-.999-.872c.444-.27.73-.603 1.015-.603a1.38 1.38 0 0 0 1.491-1.412 2.6 2.6 0 0 1 .286-.65c.333-.73.254-1.285-.222-1.586h-.762a1.44 1.44 0 0 0-.682.983M221.183 177.493c-.809 0-1.697-.254-2.347.619a1.82 1.82 0 0 1-1.412.825 1.731 1.731 0 0 0-1.444 1.586c.213.529.531 1.01.935 1.413.403.404.884.721 1.413.934.809-.364 1.888-.808 2.95-1.3.127 0 .191-.444.159-.651a2.054 2.054 0 0 1 .412-1.586c.476-.698.064-1.808-.666-1.84M226.497 178.493c-.698-.159-1.364.539-1.586 1.586a1.41 1.41 0 0 0 1.015 1.364c.354.004.703-.085 1.011-.258.309-.172.568-.422.75-.726a1.98 1.98 0 0 0-1.19-1.966M234.793 175.48a1.995 1.995 0 0 0-2.442 1.253 3.17 3.17 0 0 0 1.586 2.823 2.025 2.025 0 0 0 2.252-1.586 2.34 2.34 0 0 0-1.396-2.49M229.606 192.119c-.761-.158-1.3.318-1.586 1.333-.285 1.015.127 1.491.746 1.586a2.75 2.75 0 0 0 2.141-1.11 1.585 1.585 0 0 0-1.301-1.809M236.474 183.457q0-1.586.143-3.172a2.2 2.2 0 0 0-.777 1.285 2 2 0 0 0 .634 1.887M236.871 191.992c0-.508-.111-1.031-.158-1.586-.143.206-.254.444-.349.587-.096.143.015.809.507.999M211.428 185.964a1.58 1.58 0 0 0-.761-1.047c-.888-.349-1.158.492-1.666 1.079.46.761.873 1.348 1.745 1.063a.9.9 0 0 0 .701-.737.9.9 0 0 0-.019-.358M232.351 170.816a1.94 1.94 0 0 0-2.205-1.269 2.01 2.01 0 0 0-.952 2.434 2.02 2.02 0 0 0 2.252 1.325c.778-.159 1.079-1.396.905-2.49M203.941 186.583c-.142.523.223 1.38.698 1.412a3.17 3.17 0 0 0 2.205-.302c.952-.682 1.015-.777.46-1.998-.571 0-1.031-.143-1.491-.238a1.725 1.725 0 0 0-1.872 1.126M237.553 147.642c.095-.714-.698-1.586-1.586-1.729s-1.412.349-1.586 1.412a1.592 1.592 0 0 0 .999 1.586c.635.079 2.094-.714 2.173-1.269M226.354 141.234a1.763 1.763 0 0 0 2.269-1.411 1.87 1.87 0 0 0-1.174-2.189c-.841-.27-1.967.618-2.253 1.776a1.45 1.45 0 0 0 .594 1.605c.17.112.363.187.564.219M227.417 150.195a.826.826 0 0 0-.92-.841c-.888 0-1.491.286-1.586.73a1.46 1.46 0 0 0 .587.967h1.412c.256-.223.434-.524.507-.856"/><path fill="#0D90E0" d="M221.628 169.833a1.48 1.48 0 0 0 .365-1.094h-6.139c.222.888 0 1.237-.999.936a1.82 1.82 0 0 0-2.221.888 1.856 1.856 0 0 0 0 2.268 1.5 1.5 0 0 0 .959.726 1.5 1.5 0 0 0 1.182-.218 4.2 4.2 0 0 0 1.364-1.285c.302-.413.556-.714 1.079-.682.761 0 1.015-.413 1.015-1.111a2.23 2.23 0 0 0 1.797.576 2.25 2.25 0 0 0 1.598-1.004M217.059 176.05a1.29 1.29 0 0 0 1.428.698 1.11 1.11 0 0 0 1.079-.967c.095-.809-1.079-2.078-1.587-1.999a2.36 2.36 0 0 0-.92 2.268M214.791 175.939a1.304 1.304 0 0 0-1.459.841 1.68 1.68 0 0 0 .777 1.824 1.87 1.87 0 0 0 2.141-.999c.143-.634-.492-1.332-1.459-1.666M221.025 144.359c0-.603-.286-.889-.809-1a1.07 1.07 0 0 0-1.146.415 1.1 1.1 0 0 0-.171.394.95.95 0 0 0 .185.738.95.95 0 0 0 .672.357 1.13 1.13 0 0 0 1.269-.904M210.413 188.137c-.761-.206-1.285.539-1.428.968-.142.428.682 1.269 1.587 1.031a1.19 1.19 0 0 0 .682-.762 1.04 1.04 0 0 0-.155-.799 1.03 1.03 0 0 0-.686-.438M209.414 182.093c-1.063-2.728-2.665-2.966-4.473-.793a4 4 0 0 1-.556-.174 1.17 1.17 0 0 0-1.586.476 1.46 1.46 0 0 0 0 1.681c.746 1.586 1.46 1.824 2.824 1.11 1.031-.523 2.093-1.015 3.172-1.586 1.269 1.999 1.586 2.062 2.824.762a1.765 1.765 0 0 0-2.205-1.476M218.661 149.593a.92.92 0 0 0 .055.757.9.9 0 0 0 .612.449 1.097 1.097 0 0 0 1.38-.683 1.06 1.06 0 0 0-.166-.806 1.06 1.06 0 0 0-.691-.447.97.97 0 0 0-1.033.376 1 1 0 0 0-.157.354M239.821 151.067h1.809a.77.77 0 0 0-.445-.364 1.04 1.04 0 0 0-.935.158c-.127.064-.286.111-.429.206M209.874 208.552a1.79 1.79 0 0 0-2.015 1.015 1.24 1.24 0 0 0 .809 1.491 1.586 1.586 0 0 0 1.777-1.063 1.079 1.079 0 0 0-.571-1.443M218.757 202.572a1.97 1.97 0 0 0 2.014-1.269c.159-.619-.507-1.443-1.301-1.586-1.031-.222-1.586 0-1.824.825a1.86 1.86 0 0 0 1.111 2.03M219.264 205.332c0-.349-.127-1.253-.539-1.317-.413-.063-.841.793-.904 1.11s.38.619.666.73c.285.111.825-.032.777-.523M221.739 210.598c-.397 0-1.396.175-1.46.571-.063.397.746.936 1.095 1.126.349.191.936-.269.999-.777.064-.507-.127-.936-.634-.92M219.407 221.352a.843.843 0 0 0-.492 1.047c.206.809.841.904 1.586.936.349-.634.857-1.142.318-1.761a1.13 1.13 0 0 0-1.412-.222M214.315 203.412a2.645 2.645 0 0 0-2.807 1.475 2.11 2.11 0 0 0 1.427 2.348 2.052 2.052 0 0 0 2.39-1.298 2.05 2.05 0 0 0-1.01-2.525M217.218 191.071a1.11 1.11 0 0 1-.317-1.205 1.305 1.305 0 0 0-1.222-1.317c-.698 0-.888.365-.936.936.014.415-.068.827-.238 1.206-.475.761-1.078 1.443-1.586 2.204-2.157-.602-2.807-.222-2.839 1.761a1.48 1.48 0 0 0 1.198 1.64c.247.045.5.026.737-.054a13.5 13.5 0 0 0 2.379-1.3 2.62 2.62 0 0 0 2.903.238 2.728 2.728 0 0 0-.079-4.109M209.953 202.191q-.803.12-1.586.334c-1.063-.825-2.11-.968-2.602-.349a2.19 2.19 0 0 0 .397 2.617c.714.587 1.205.412 2.427-.984.587.429 1.142.936 1.792.222a1.14 1.14 0 0 0 .175-1.443c-.159-.19-.429-.412-.603-.397M213.776 212.486a1.793 1.793 0 0 0-1.856 1.475c-.175.92.381 1.586 1.443 1.761a1.486 1.486 0 0 0 1.681-.662c.112-.185.183-.392.207-.607a1.75 1.75 0 0 0-.332-1.288 1.75 1.75 0 0 0-1.143-.679M222.896 217.228c-.206 0-.666-.127-.809.206-.142.333.27.619.381.619a.88.88 0 0 0 .634-.286s-.095-.508-.206-.539M213.713 198.653a1.25 1.25 0 0 0-.334-.983.93.93 0 0 0-.84-.127c-.619.349-.603.904-.286 1.586.555.032 1.19.206 1.46-.476M222.912 195.656a1.392 1.392 0 0 0-1.063-1.586.917.917 0 0 0-1.11.65 1.18 1.18 0 0 0-.077.776c.064.259.214.489.426.652a1.305 1.305 0 0 0 1.487-.089 1.3 1.3 0 0 0 .337-.403M236.617 205.681a1.586 1.586 0 0 0-1.237-1.586c-.761-.175-1.269.095-1.427.761a1.87 1.87 0 0 0 1.047 2.236 1.68 1.68 0 0 0 1.617-1.411M235.586 197.068c.238-.984-.507-1.888-1.776-2.173a1.585 1.585 0 0 0-2.046 1.237 2.136 2.136 0 0 0 1.586 2.474 2.185 2.185 0 0 0 2.236-1.538M224.483 199.844c-.222.222-.698.491-.888.888-.191.396.301 1.221.967 1.316a.96.96 0 0 0 .739-.207.96.96 0 0 0 .356-.681 1.297 1.297 0 0 0-1.174-1.316M223.023 134.238a2.223 2.223 0 0 0 2.3-1.586 1.594 1.594 0 0 0-1.451-1.721 1.59 1.59 0 0 0-1.721 1.451 1.49 1.49 0 0 0 .872 1.856M231.985 216.181a1.73 1.73 0 0 0-2.522 0 1.592 1.592 0 0 0 .127 1.872 1.257 1.257 0 0 0 1.682.38c.491-.238 1.586-.444 1.681-1.253s-.682-.729-.968-.999M234.269 168.739c-.041.243-.002.494.111.713a3.3 3.3 0 0 0 3.522 1.714q.27-1.223.571-2.427zM227.148 199.446a1.096 1.096 0 0 0 1.3-.793c.057-.295-.005-.6-.174-.848a1.127 1.127 0 0 0-1.57-.303c-.248.168-.42.428-.476.722a1.264 1.264 0 0 0 .92 1.222M230.034 203.618a1.047 1.047 0 0 0-.904-1.126c-.872-.111-1.586.888-1.586 1.237a1.58 1.58 0 0 0 1.586 1.079 1.063 1.063 0 0 0 .904-1.19M226.291 188.899l-.095-.143c.199.22.435.402.697.539a.69.69 0 0 0 .633.049.69.69 0 0 0 .399-.493.83.83 0 0 0-.524-1.158 1.97 1.97 0 0 0-1.047.207.986.986 0 0 0-.729-1.127 1.14 1.14 0 0 0-.992.273 1.13 1.13 0 0 0-.357.965c0 .761-.428.983-.888 1.411-1.174-1.205-2.189-1.126-2.919.143a2 2 0 0 0-.19.381c-.365.936-.111 1.475.841 1.745.951.269 1.586.365 2.268-.778.133.374.218.763.254 1.158a1.027 1.027 0 0 0 .777 1.206 1.582 1.582 0 0 0 1.729-.286c1.523-1.697 1.554-2.363.143-4.092M227.608 209.757a1.17 1.17 0 0 0-1.253.73 1.34 1.34 0 0 0 .745 1.412 1.045 1.045 0 0 0 1.221-.746 1.206 1.206 0 0 0-.713-1.396M236.744 212.279a1 1 0 0 0-.385-.047.966.966 0 0 0-.852.698 1.1 1.1 0 0 0 .714 1.253.92.92 0 0 0 .763-.035.9.9 0 0 0 .474-.6 1.15 1.15 0 0 0-.128-.763 1.15 1.15 0 0 0-.586-.506M215.314 136.49a1.33 1.33 0 0 0 1.38-.809c.254-1.046-.111-2.014-.825-2.157a1.94 1.94 0 0 0-1.855 1.301c-.143.571.618 1.554 1.3 1.665M207.701 226.602a.63.63 0 0 0-.175-.38zM206.241 148.609c.349 0 .984 0 1.111-.413.127-.412-.302-.904-.603-1.174s-.682 0-.92.286l-.159.428a.67.67 0 0 0 .076.574.66.66 0 0 0 .495.299M209.017 151.068h.984c.221-.169.467-.303.729-.397a1.393 1.393 0 0 0 1.111-1.475c0-.793-.54-1.586-.429-1.888s.365-.793.936-.571 1.491-.111 1.888-1.3-.651-2.475-1.587-2.205-.951.841-1.268.698-.746-.777-1.317-.539c-.571.237-.603 2.077-.46 2.347s.825.825.365 1.269-1.253.555-1.396 1.206-.539 2.173.301 2.823zM211.412 140.804c1.095.381 1.809-.602 2.158-1.126.348-.523-.635-1.586-1.587-1.586a1.06 1.06 0 0 0-1.158.857c-.253.682.032 1.665.587 1.855M219.28 137.537a2.382 2.382 0 0 0 1.475 2.776 2.46 2.46 0 0 0 2.617-1.587c.301-1.015-.476-2.062-1.856-2.442a1.8 1.8 0 0 0-.706-.062 1.797 1.797 0 0 0-1.53 1.315M216.425 139.678a1.14 1.14 0 0 0-1.317.825 1.06 1.06 0 0 0 .825 1.174q.191.07.394.054a.94.94 0 0 0 .679-.374.9.9 0 0 0 .164-.362 1 1 0 0 0-.078-.825 1.02 1.02 0 0 0-.667-.492M218.503 131.637c.491.174.745-.286.825-.73s-.238-1.063-.698-.999-1.158 0-1.174.682.698.936 1.047 1.047M214.363 147.689a2.38 2.38 0 0 0 1.729 2.316c.634.111 1.316-.539 1.459-1.412s-.222-1.586-1.316-1.792c-.857-.159-1.745.254-1.872.888M215.997 130.447a1.29 1.29 0 0 0 .856-.555c.206-.413-.349-1.111-.841-1.063a1.76 1.76 0 0 0-.729.396c-.111.667.254 1.222.714 1.222M207.225 196.385q.475-.172.92-.412c.983-.476 1.317-1.095 1.047-1.92a1.73 1.73 0 0 0-.848-1.003 1.73 1.73 0 0 0-1.309-.107c-1.037.3-2.099.507-3.173.618-.872 0-1.856.73-1.792 1.333a1.3 1.3 0 0 0 1.269.872c.761-.253.983.286 1.443.555.462.212.968.31 1.475.286.335-.003.665-.079.968-.222M202.086 208.663a1.05 1.05 0 0 0-.571 0l.523 2.078a1.03 1.03 0 0 0 .873-.825 1.22 1.22 0 0 0-.825-1.253M202.894 201.271a2.36 2.36 0 0 0-1.269-1.729c-.602-.159-1.047.222-1.221 1.063-.175.84 0 1.459.682 1.586.92.222 1.681-.175 1.808-.92M208.763 196.56a1.38 1.38 0 0 0-1.586.714c-.317 1.063 0 2.046.666 2.237a1.84 1.84 0 0 0 1.951-1.142 1.59 1.59 0 0 0-1.031-1.809M205.226 211.946a.33.33 0 0 0-.349.27c0 .095.175.301.254.301a.313.313 0 0 0 .333-.19.3.3 0 0 0 .004-.124.317.317 0 0 0-.242-.257M200.214 185.536a1.78 1.78 0 0 0-.508-2.014 1.09 1.09 0 0 0-1.062.126v3.0780000000000003h.111a1.9 1.9 0 0 0 1.3-.254.697.697 0 0 0 .159-.936M199.897 177.081a1.727 1.727 0 0 0-.413-2.316 1.8 1.8 0 0 0 .508-.539 1.27 1.27 0 0 0 0-1.301q.246.021.492 0a2.377 2.377 0 0 0 1.824-2.665.8.8 0 0 0 .476 0 .932.932 0 0 0 .452-.993.9.9 0 0 0-.151-.355H201.8a1.06 1.06 0 0 0-.254.698 1.58 1.58 0 0 0-1.729-.254c-.46 2.966-.761 5.996-.951 9.057.333-.237.698-.555 1.031-1.332"/><path fill="#294492" d="M129.072 298.822a3.9 3.9 0 0 1-3.41-2.014 78 78 0 0 1-3.981-8.518 3.87 3.87 0 0 1 .916-4.21 3.9 3.9 0 0 1 1.273-.818 3.86 3.86 0 0 1 2.967.053 3.87 3.87 0 0 1 2.061 2.136 67 67 0 0 0 3.569 7.645 3.85 3.85 0 0 1-.054 3.837 3.84 3.84 0 0 1-1.419 1.39 3.84 3.84 0 0 1-1.922.499m-8.184-25.76a3.867 3.867 0 0 1-3.839-3.458 69 69 0 0 1-.428-7.693v-1.745a3.884 3.884 0 0 1 3.965-3.775 3.88 3.88 0 0 1 2.705 1.212 3.88 3.88 0 0 1 1.054 2.77v1.586c0 2.289.128 4.577.381 6.852a3.87 3.87 0 0 1-3.426 4.267zm2.68-26.822a3.866 3.866 0 0 1-3.455-2.121 3.87 3.87 0 0 1-.225-2.955 65 65 0 0 1 3.569-8.772 3.875 3.875 0 0 1 7.147.482 3.88 3.88 0 0 1-.199 2.96 55.5 55.5 0 0 0-3.173 7.725 3.88 3.88 0 0 1-3.664 2.681m13.8-23.159a3.87 3.87 0 0 1-3.56-2.353 3.86 3.86 0 0 1 .768-4.198 68.4 68.4 0 0 1 6.98-6.345 3.87 3.87 0 0 1 4.488-.619c.477.253.895.603 1.229 1.027a3.89 3.89 0 0 1 .772 3.038 3.87 3.87 0 0 1-1.731 2.613 62 62 0 0 0-6.186 5.647 3.81 3.81 0 0 1-2.76 1.142zm22.207-15.307a3.872 3.872 0 0 1-3.492-5.645 3.87 3.87 0 0 1 1.906-1.778 83 83 0 0 1 8.772-3.173 3.88 3.88 0 0 1 2.953.277 3.87 3.87 0 0 1 1.892 2.285 3.88 3.88 0 0 1-2.561 4.846 73 73 0 0 0-7.931 2.934c-.48.163-.986.233-1.491.207zm80.611-6.345a3.87 3.87 0 1 1-.079-7.74c2.934 0 5.901-.159 8.819-.286a3.874 3.874 0 0 1 .365 7.741c-2.998.127-6.028.238-9.026.285zm-18.273 0h-.111q-4.425-.111-8.994-.333a3.89 3.89 0 0 1-2.683-1.262 3.87 3.87 0 0 1-1.005-2.791 3.87 3.87 0 0 1 2.558-3.463 3.9 3.9 0 0 1 1.495-.225c2.982.143 5.932.254 8.835.318a3.89 3.89 0 0 1 3.595 3.923 3.883 3.883 0 0 1-3.69 3.833m-36.102-.254a3.867 3.867 0 0 1-3.934-3.663 3.87 3.87 0 0 1 3.522-4.061c2.982-.333 6.075-.54 9.2-.635a3.82 3.82 0 0 1 2.798 1.029 3.81 3.81 0 0 1 1.199 2.73 3.86 3.86 0 0 1-1.055 2.77 3.87 3.87 0 0 1-2.705 1.212c-2.918.095-5.821.285-8.597.587zm81.515-1.316a3.872 3.872 0 0 1-2.953-6.41 3.87 3.87 0 0 1 2.572-1.315c2.935-.301 5.885-.65 8.74-1.031a3.872 3.872 0 0 1 1.016 7.677c-2.935.397-5.949.746-8.978 1.063zm26.966-4.061a3.866 3.866 0 0 1-3.849-3.479 3.872 3.872 0 0 1 3.071-4.182c2.887-.603 5.774-1.237 8.566-1.935a3.877 3.877 0 0 1 1.84 7.534 280 280 0 0 1-8.851 1.983 4.3 4.3 0 0 1-.809-.064zm26.156-7.201a3.871 3.871 0 0 1-1.253-7.535 171 171 0 0 0 8.185-3.029 3.874 3.874 0 0 1 5.036 2.165 3.874 3.874 0 0 1-2.165 5.036 246 246 0 0 1-8.55 3.173 3.9 3.9 0 0 1-1.253.19m24.92-10.818a3.88 3.88 0 0 1-2.363-.829 3.884 3.884 0 0 1 .507-6.452 125 125 0 0 0 7.471-4.378 3.87 3.87 0 0 1 4.301.098 3.865 3.865 0 0 1 1.556 4.011 3.87 3.87 0 0 1-1.701 2.426 135 135 0 0 1-7.932 4.648 3.7 3.7 0 0 1-1.776.476zm22.206-15.513a3.871 3.871 0 0 1-2.585-6.742 99 99 0 0 0 6.075-6.011 3.873 3.873 0 1 1 5.71 5.234 99 99 0 0 1-6.614 6.535 3.86 3.86 0 0 1-2.459.984zm17.052-21.017a3.871 3.871 0 0 1-3.394-5.742c.824-1.587 1.586-3.046 2.3-4.569.46-1.047.936-2.094 1.411-3.172a3.9 3.9 0 0 1 2.16-2.042 3.87 3.87 0 0 1 2.972.083 3.886 3.886 0 0 1 1.959 5.131l-1.444 3.173c-.793 1.729-1.586 3.442-2.585 5.123a3.84 3.84 0 0 1-3.252 2.015zm-21.731-19.241a3.9 3.9 0 0 1-1.443-.286 81 81 0 0 1-8.344-3.965 3.866 3.866 0 0 1-.691-6.49 3.88 3.88 0 0 1 2.912-.814 3.9 3.9 0 0 1 1.459.499 75 75 0 0 0 7.693 3.632 3.872 3.872 0 0 1-1.459 7.472zm32.327-5.837a4 4 0 0 1-1.206-.191 3.869 3.869 0 0 1-2.458-4.901c.936-2.871 1.776-5.663 2.443-8.312a3.871 3.871 0 1 1 7.502 1.92 125 125 0 0 1-2.601 8.835 3.88 3.88 0 0 1-1.411 1.92 3.88 3.88 0 0 1-2.269.729m-54.93-8.788a3.83 3.83 0 0 1-2.776-1.174 46.3 46.3 0 0 1-6.028-7.614 3.875 3.875 0 0 1 6.551-4.14 38.2 38.2 0 0 0 5.028 6.345 3.873 3.873 0 0 1-.637 5.923 3.87 3.87 0 0 1-2.138.644zm60.275-17.813h-.095a3.87 3.87 0 0 1-3.775-3.965v-1.492c.009-2.255-.15-4.509-.476-6.74a3.88 3.88 0 0 1 1.837-3.892 3.88 3.88 0 0 1 2.932-.438 3.87 3.87 0 0 1 2.893 3.187c.391 2.625.582 5.277.571 7.931v1.697a3.87 3.87 0 0 1-3.95 3.712zm-71.379-6.345a3.887 3.887 0 0 1-3.981-3.537c0-1-.095-2.03-.095-3.046v-.253c.015-2.167.184-4.33.507-6.472a3.89 3.89 0 0 1 1.548-2.532 3.88 3.88 0 0 1 4.306-.174 3.9 3.9 0 0 1 1.747 2.4c.119.495.14 1.008.061 1.511a36.4 36.4 0 0 0-.429 5.314v.08c0 .856 0 1.68.096 2.506a3.887 3.887 0 0 1-3.601 4.14zm63.988-19.256a3.85 3.85 0 0 1-3.062-1.491 31.7 31.7 0 0 0-5.631-5.568 3.885 3.885 0 0 1 1.892-6.922 3.88 3.88 0 0 1 2.867.783 39.4 39.4 0 0 1 7.027 6.948 3.88 3.88 0 0 1 .427 4.075 3.88 3.88 0 0 1-3.473 2.175zm-55.993-5.949a3.873 3.873 0 0 1-3.823-4.502 3.87 3.87 0 0 1 .968-1.985 32.5 32.5 0 0 1 7.931-6.345 3.871 3.871 0 1 1 3.838 6.725 24.9 24.9 0 0 0-6.012 4.76 3.81 3.81 0 0 1-2.95 1.347zm33.31-8.248c-.338 0-.674-.049-.999-.143-2.59-.7-5.25-1.11-7.931-1.221a3.87 3.87 0 0 1-3.712-4.029 3.93 3.93 0 0 1 4.029-3.712 43.7 43.7 0 0 1 9.644 1.491 3.87 3.87 0 0 1 2.855 4.247 3.875 3.875 0 0 1-3.854 3.367z"/><path fill="#1BA9F5" d="M380.994 123.452c-1.475 1.031-19.891 11.975-37.324 14.862a63.627 63.627 0 0 1 3.956 88.684 63.6 63.6 0 0 1-26.987 17.909c.999 12.785 2.331 25.554 3.759 38.307a101.51 101.51 0 0 0 75.939-114.058 101.5 101.5 0 0 0-19.343-45.704"/><path fill="#0066B1" d="M366.448 261.658q.073-.168.111-.349c-.492.428-.952.856-1.443 1.253a1.44 1.44 0 0 0 1.332-.904M377.33 257.137a2.6 2.6 0 0 0 2.379-.84 1.59 1.59 0 0 0-.698-1.587c0-.539-.428-.872-1.237-1.047a1.362 1.362 0 0 0-1.586 1c.009.442.147.872.396 1.237a1.59 1.59 0 0 0 .746 1.237M380.375 253.822a3.17 3.17 0 0 0 2.205-.286l.111-.095a.94.94 0 0 0 .904-.507 2.3 2.3 0 0 0-.73-2.253 1.15 1.15 0 0 0-.928-.038 1.16 1.16 0 0 0-.658.657 1.73 1.73 0 0 0-1.586 1.126c-.174.508.206 1.364.682 1.396M379.138 250.999c0-.127-.095-.397-.222-.444a2 2 0 0 1-.841-.936c-.365.428-.714.872-1.095 1.3q.609.332 1.254.587c.364.238.65.032.904-.507M376.061 251.903c-.159.19-.318.364-.492.539q.132-.033.254-.095a.63.63 0 0 0 .238-.444M375.172 261.388a.78.78 0 0 0 .587.619c.254 0 .46-.365.444-.619-.015-.253-.269-.555-.539-.507a.54.54 0 0 0-.492.507M376.727 271.714c.158-.397.254-.841-.238-1.11a1.157 1.157 0 0 0-1.475.618c.19.254.365.698.698.904s.84.048 1.015-.412M372.063 268.605c.38.25.832.367 1.285.334q.396.115.809.126c.143-.237.286-.46.397-.682a3 3 0 0 0 .38-.301 6.6 6.6 0 0 0-.365-1.332 1.585 1.585 0 0 0-1.744-.92 1.74 1.74 0 0 0-1.364 1.776 1.47 1.47 0 0 0 .602.999M384.182 242.941l-.618-.603-.46.666c.358.074.73.052 1.078-.063M358.834 267.4l.254.27a.9.9 0 0 0 .175-.286 2 2 0 0 0 0-.317zM386.212 255.979a1.18 1.18 0 0 0 .698-.777q.046-.197.013-.397a1 1 0 0 0-.412-.661 1 1 0 0 0-.362-.163c-.762-.222-1.285.523-1.428.951-.143.429.666 1.269 1.491 1.047M359.358 267.86l.761.761a.935.935 0 0 0-.761-.761M378.63 267.098a2.42 2.42 0 0 0-1.285-1.729.9.9 0 0 0-.46 0h-.095a1.325 1.325 0 0 0-.65 1.016c-.206.935 0 1.443.682 1.586.92.269 1.681-.127 1.808-.873M374.284 272.444c.349-.079.968-.381.936-.682a1.1 1.1 0 0 0-.666-.761c-.254 0-1.031.269-1.079.571s.65.904.809.872M391.019 270.032h-.191a1.38 1.38 0 0 0-.777-.698 2.65 2.65 0 0 0-2.807 1.46 2.073 2.073 0 0 0 1.427 2.347 2.04 2.04 0 0 0 2.411-1.284c.079-.35.079-.713 0-1.063a.3.3 0 0 0 .127-.127.4.4 0 0 0 .084-.175.39.39 0 0 0-.108-.36.4.4 0 0 0-.166-.1M389.433 264.465a1.14 1.14 0 0 0-.043-.521 1.14 1.14 0 0 0-.275-.446.92.92 0 0 0-.856-.143c-.603.349-.603.904-.27 1.586.555.048 1.174.222 1.444-.476M386.387 273.744a.98.98 0 0 0 1.205.46c.492-.237.508-.602 0-1.586a.95.95 0 0 0-.928.215.95.95 0 0 0-.277.911M393.414 254.694a1.42 1.42 0 0 0-1.19 0 1.36 1.36 0 0 0-.745-.317c-.682 0-.873.365-.92.936a5.5 5.5 0 0 1-.143.888.41.41 0 0 0-.27-.317.39.39 0 0 0-.445.111.4.4 0 0 0-.078.143c0 .222-.127.666.206.84h.143c-.397.571-.857 1.142-1.317 1.729-2.141-.603-2.791-.222-2.823 1.777a1.48 1.48 0 0 0 .528 1.329 1.47 1.47 0 0 0 1.407.257 5.2 5.2 0 0 0 1.095-.508c.586.445 1.126 1.142 2.046 1.111l.777-.746c.999.159 1.919-.111 2.078-.666a.95.95 0 0 0-.159-.92 2.87 2.87 0 0 0-.571-3.394 1.3 1.3 0 0 1-.301-.429c.233.184.529.269.825.238.523-.238.412-1.745-.143-2.062M400.171 259.072h.19l-.952-.952a.956.956 0 0 0 .762.952M398.601 257.343l-2.237-2.221-.159.222a3 3 0 0 0-.174.397c-.365.92-.111 1.459.841 1.729a1.86 1.86 0 0 0 1.729-.127M398.649 261.5a1.41 1.41 0 0 0-.187-1.054 1.38 1.38 0 0 0-.876-.612.89.89 0 0 0-.961.326.9.9 0 0 0-.15.324 1.15 1.15 0 0 0 .349 1.412 1.304 1.304 0 0 0 1.825-.396M383.611 265.274a1.82 1.82 0 0 0 1.935-1.142 1.583 1.583 0 0 0-1.063-1.808 1.34 1.34 0 0 0-1.142.254c.115-.219.195-.455.238-.698l.286-.127c.999-.492 1.332-1.11 1.062-1.935a1.726 1.726 0 0 0-2.157-1.11 20 20 0 0 1-3.172.634c-.857 0-1.84.714-1.777 1.317.064.602 1 .967 1.269.872.682-.238.936.19 1.333.476a1 1 0 0 0 0 .222 1.68 1.68 0 0 0 1.316 1.205 1.4 1.4 0 0 0 1.19-.348c-.302 1.11 0 2.062.682 2.188M386.403 250.808c-.888-.349-1.174.508-1.666 1.079.46.761.873 1.348 1.745 1.063a.9.9 0 0 0 .577-.401.9.9 0 0 0 .105-.694 1.71 1.71 0 0 0-.761-1.047M386.34 245.494c.102.555.374 1.065.777 1.46a.843.843 0 0 0 1.142 0l-1.888-1.888a1 1 0 0 0-.031.428M389.718 251.554a1.363 1.363 0 0 0-1.491 1.031 1.32 1.32 0 0 0 .235 1.063 1.32 1.32 0 0 0 .955.523 1.144 1.144 0 0 0 1.221-1.031c.127-.73-.397-1.57-.92-1.586M391.59 250.745q.166.022.333 0l-1.269-1.269q-.024.167 0 .333a.967.967 0 0 0 .936.936"/><path fill="#0066B1" d="M370.351 261.943c-.381.873-.207 1.586.428 1.856a2.17 2.17 0 0 0 1.221-.127c.124.58.465 1.09.952 1.428.952.491 2.189.365 2.316-.587a3.72 3.72 0 0 0-.698-2.411c-.333-.619-1.206-.397-.888-1.158a3.2 3.2 0 0 0 .206-1.935 1.998 1.998 0 0 0 1.507-1.047 1.29 1.29 0 0 0-.698-1.412c-1.047-.365-1.904-.174-2.126.492-.074.381-.007.776.191 1.11a1.885 1.885 0 0 0-1.793 1.079 2.1 2.1 0 0 0-1.063-1 84 84 0 0 1-2.522 2.332 1.59 1.59 0 0 0 1.206 1.19 2.73 2.73 0 0 0 2.3-1.253c.046.173.127.335.238.476a1.57 1.57 0 0 0-.777.967M378.487 249.111c.746 1.586 1.46 1.824 2.824 1.11a74 74 0 0 1 3.172-1.506c1.269 1.998 1.586 2.062 2.808.777a1.586 1.586 0 0 0-1.174-1.459.75.75 0 0 0 .254-.334.84.84 0 0 0-.227-.974.8.8 0 0 0-.313-.168.8.8 0 0 0-.617-.032.777.777 0 0 0-.445.429c-1.047-1.777-2.459-1.713-4.013.159a3.4 3.4 0 0 1-.524-.159c-.555.714-1.126 1.412-1.697 2.11zM392.208 282.2a1.44 1.44 0 0 0-.254-1.729 6.6 6.6 0 0 0-.999-.841 1.4 1.4 0 0 0-.095-.222v-.555a2.18 2.18 0 0 0-1.38-1.983 2.55 2.55 0 0 0-2.364.698 1.34 1.34 0 0 0-.333.904 1.93 1.93 0 0 0 .841 1.586c0 .777.476 1.364 1.444 1.507q.166.012.333 0v.254c0 .825.301 1.126 1.094 1.221a1.58 1.58 0 0 0 1.713-.84M397.475 276.378c-.397 0-1.396.174-1.46.571-.063.396.746.936 1.095 1.126s.936-.27.983-.777c.048-.508-.111-.92-.618-.92M400.203 265.671c-.222.222-.698.492-.873.888-.174.397.302 1.222.968 1.317a.99.99 0 0 0 .983-.514 1 1 0 0 0 .111-.374 1.31 1.31 0 0 0-1.189-1.317M395.143 287.18a.824.824 0 0 0-.492 1.047c.206.809.841.904 1.586.936.349-.619.857-1.142.302-1.761a1.125 1.125 0 0 0-1.396-.222M398.633 283.056c-.207 0-.667-.127-.825.206-.159.333.285.619.396.619a.83.83 0 0 0 .635-.286s-.095-.507-.206-.539M394.223 271.619c.364.143.824 0 .777-.524-.048-.523-.143-1.237-.539-1.316-.397-.079-.857.793-.905 1.11-.047.317.381.73.667.73M395 278.059a.91.91 0 0 0 .454-.793.91.91 0 0 0-.454-.793c-.841-.286-1.364.682-1.19 1.158a1.004 1.004 0 0 0 1.19.428M403.327 275.538a1.155 1.155 0 0 0-1.237.713 1.33 1.33 0 0 0 .73 1.412 1.03 1.03 0 0 0 1.221-.745 1.16 1.16 0 0 0-.714-1.38M412.353 271.509a1.2 1.2 0 0 0 0-.413l-1.221-1.237c-.762-.159-1.253.095-1.412.761-.238.952.286 2.094 1.031 2.237a1.68 1.68 0 0 0 1.602-1.348M412.448 278.107a.956.956 0 0 0-1.057.306 1 1 0 0 0-.18.344 1.096 1.096 0 0 0 1.084 1.319.93.93 0 0 0 .68-.349.9.9 0 0 0 .171-.351 1.12 1.12 0 0 0-.698-1.269M407.69 282.009a1.743 1.743 0 0 0-2.523 0 1.59 1.59 0 0 0 .127 1.871 1.24 1.24 0 0 0 1.666.381c.507-.238 1.586-.444 1.681-1.253s-.65-.73-.951-.999M405.786 269.446a1.063 1.063 0 0 0-.92-1.126 1.58 1.58 0 0 0-1.586 1.237 1.58 1.58 0 0 0 1.665 1.079 1.084 1.084 0 0 0 .841-1.19M394.492 268.447a1.964 1.964 0 0 0 2.015-1.269c.159-.619-.508-1.444-1.301-1.586-1.031-.222-1.586 0-1.824.825a1.855 1.855 0 0 0 1.11 2.03M402.931 265.275a1.094 1.094 0 0 0 1.285-.824 1.19 1.19 0 0 0-.983-1.333 1.144 1.144 0 0 0-1.238.904 1.24 1.24 0 0 0 .936 1.253M379.661 283.833a1.79 1.79 0 0 0-1.491.095 1.01 1.01 0 0 0-.84-.713c-.746-.143-1.063.475-1.412 1.078.143.206.285.444.428.635l.222.206a.84.84 0 0 0 .889.143l.206-.127q.091.291.269.539a.5.5 0 0 0 .254.349c.198.265.468.469.777.587a1.05 1.05 0 0 0 1.333-.73 1.582 1.582 0 0 0-.635-2.062M377.06 279.835a1.5 1.5 0 0 0 0-.396 2.38 2.38 0 0 0 1.443-1.031c.413-.635 0-1.348-.095-2.094.119-.144.205-.312.254-.492a1.14 1.14 0 0 0-.206-.84c-.08-1.587-1.46-2.047-2.792-2.047a2.34 2.34 0 0 0-1.412.492q-.209.18-.38.397a2.17 2.17 0 0 0-1.158-.619c-.841-.159-1.412.349-1.586 1.412a1.59 1.59 0 0 0 1.015 1.586c.391.018.78-.07 1.126-.254a1.85 1.85 0 0 0-.238 1.412 3.44 3.44 0 0 0 2.078 2.11v.095c-.095.412.825.888 1.205 1.015s.714-.19.746-.746"/><path fill="#0066B1" d="M372.46 272.809a2.52 2.52 0 0 0-.698-2.998 1.923 1.923 0 0 0-2.522.46 1.81 1.81 0 0 0-.268 2.219c.14.23.329.425.553.573a2.13 2.13 0 0 0 2.935-.254M369.922 267.225a2.012 2.012 0 0 0-1.887-3.537c-.746.27-.873 1.586-.54 2.601a1.969 1.969 0 0 0 2.427.936M368.812 276.695a1.3 1.3 0 0 0-.476.222l2.316 2.316c.082-.305.125-.62.127-.936a1.95 1.95 0 0 0-1.967-1.602M365.703 264.815a1.8 1.8 0 0 0-.698-.115 1.77 1.77 0 0 0-1.251.596 1.8 1.8 0 0 0-.351.613c-.333.857.444 2.094 1.586 2.522a1.58 1.58 0 0 0 1.238-.092 1.58 1.58 0 0 0 .792-.955c.413-1.522.032-1.856-1.316-2.569M391.827 291.511c-.587-.333-1.491.158-1.935 1.047a1.24 1.24 0 0 0 .524 1.491 1.585 1.585 0 0 0 1.903-.476 1.77 1.77 0 0 0-.492-2.062M364.862 269.145a1.784 1.784 0 0 0-1.983.659 1.8 1.8 0 0 0-.301.674q-.048.317 0 .634l2.506 2.491c.539-.08.761-.492.983-.92q.236-.381.365-.809.119-.187.191-.397c.237-1.015-.476-1.999-1.761-2.332M384.911 282.817a1.98 1.98 0 0 0-1.078-2.379 1.34 1.34 0 0 0-1.042.039 1.34 1.34 0 0 0-.703.77 2.015 2.015 0 0 0 .428 2.332 1.94 1.94 0 0 0 2.395-.762M361.579 265.385a1.17 1.17 0 0 0-.397.841c0 .317-.174.603 0 .92.175.317.698.222.968-.175.23-.386.304-.846.206-1.285a.51.51 0 0 0-.55-.385.5.5 0 0 0-.227.084M386.006 287.688a1.66 1.66 0 0 0-1.935.412 1.88 1.88 0 0 0-.005 1.255c.141.407.417.753.782.981a1.73 1.73 0 0 0 2.047-.856c.364-.73.063-1.332-.889-1.792M385.594 274.379a1.794 1.794 0 0 0-1.999 1.031 1.217 1.217 0 0 0 .793 1.475 1.58 1.58 0 0 0 1.792-1.062 1.066 1.066 0 0 0-.225-1.207 1.1 1.1 0 0 0-.361-.237M383.167 270.715a1 1 0 0 0 .365-.127 1.04 1.04 0 0 0 .507-.682l.238-.27c.587.429 1.142.936 1.777.222a1.13 1.13 0 0 0 .19-1.443c-.127-.174-.381-.412-.555-.397l-.571.096a1.13 1.13 0 0 0 .249-.83 1.1 1.1 0 0 0-.424-.757 1.58 1.58 0 0 0-1.225-.38 1.58 1.58 0 0 0-1.106.65c-.21.257-.352.562-.413.888q-.216 0-.415.087a1 1 0 0 0-.346.246 2.24 2.24 0 0 0 .396 2.618.955.955 0 0 0 1.333.079M380.391 277.519c-.46.413-.936.873-.619 1.586q.072.19.212.336a.94.94 0 0 0 .721.286 1 1 0 0 0 .384-.098 1.32 1.32 0 0 0 .698-.904c0-.762-.635-1.111-1.396-1.206"/><path fill="#294492" d="M465.995 66.38c4.606-4.987 5.21-11.921 1.348-15.487s-10.726-2.413-15.332 2.574c-4.606 4.988-5.209 11.923-1.348 15.489 3.862 3.566 10.726 2.413 15.332-2.575"/><path fill="#7DE2D1" d="M419.856 48.915c1.903 5.25 16.369 6.266 21.572 6.472a3.35 3.35 0 0 0 2.887-1.443l.634-.92a3.33 3.33 0 0 0 .318-3.173c-2.031-4.758-8.153-17.94-13.721-17.845-5.076.096-9.105 6.234-9.105 6.234s-4.314 5.917-2.585 10.675"/><path fill="#7DE2D1" d="M428.025 33.815c-.587 5.536 11.976 12.8 16.56 15.244a3.4 3.4 0 0 0 3.172 0l.968-.556a3.35 3.35 0 0 0 1.792-2.775c.254-5.203.524-19.701-4.536-22.065-4.6-2.14-10.913 1.587-10.913 1.587s-6.52 3.521-7.043 8.565"/><path fill="#42D4C6" d="M431.482 31.96a7.65 7.65 0 0 0-3.347.903q-.123.47-.174.952c-.619 5.742 12.896 13.308 17.02 15.497-2.157-5.155-8.042-17.448-13.499-17.353"/><path fill="#7DE2D1" d="M497.009 71.234c-1.903-5.235-16.37-6.345-21.572-6.456a3.33 3.33 0 0 0-2.887 1.444l-.619.92a3.31 3.31 0 0 0-.333 3.172c2.046 4.759 8.153 17.956 13.737 17.86 5.075-.095 9.104-6.233 9.104-6.233s4.299-5.933 2.57-10.707"/><path fill="#7DE2D1" d="M488.856 86.35c.587-5.55-11.992-12.8-16.576-15.258a3.35 3.35 0 0 0-3.173 0l-.967.539a3.32 3.32 0 0 0-1.761 2.792c-.27 5.202-.523 19.716 4.537 22.064 4.6 2.141 10.913-1.587 10.913-1.587s6.487-3.505 7.027-8.55"/><path fill="#42D4C6" d="M471.82 70.854c2.221 5.139 8.122 17.448 13.515 17.353a7.7 7.7 0 0 0 3.347-.92q.112-.465.174-.936c.603-5.742-12.959-13.324-17.036-15.498"/><path fill="#00BFB3" d="M185.081 110.238H50v17.686h135.081z"/><path fill="#FF957D" d="M251.829 151.051h-142.79v17.686h142.79z"/><path fill="#FA744E" d="M199.896 168.738h51.949v-17.67h-47.491a100 100 0 0 0-4.458 17.67"/><path fill="#294492" d="M415.034 109.112a3.865 3.865 0 0 1-3.642-2.489 3.88 3.88 0 0 1 1.056-4.284 337 337 0 0 0 6.583-5.916 3.887 3.887 0 0 1 5.25 5.71 348 348 0 0 1-6.725 6.028 3.82 3.82 0 0 1-2.522.951m19.875-18.606a3.871 3.871 0 0 1-2.728-6.614c3.806-3.791 6.17-6.345 6.186-6.345a3.869 3.869 0 0 1 6.538 2.594 3.87 3.87 0 0 1-.923 2.72c-.095.095-2.459 2.585-6.345 6.456a3.9 3.9 0 0 1-2.728 1.19"/><path fill="#F04E98" d="m178.214 55.675-30.25 30.25a9.057 9.057 0 0 0 0 12.81l30.25 30.249a9.06 9.06 0 0 0 12.809 0l30.25-30.25a9.057 9.057 0 0 0 0-12.809l-30.25-30.25a9.057 9.057 0 0 0-12.809 0"/><path fill="#01ADA1" d="M123.553 118.09a1.48 1.48 0 0 0-.375-1.616 1.5 1.5 0 0 0-.498-.303c-.618-.301-1.364.127-1.761.999a1.084 1.084 0 0 0 .085 1.31c.103.118.232.213.375.277a2.31 2.31 0 0 0 2.174-.667M99.696 127.036c-.127.254.285.603.476.73a.43.43 0 0 0 .539-.19.7.7 0 0 0-.175-.682c-.127-.095-.713-.111-.84.142M105.311 115.489c.285.127.587-.317.698-.508a.56.56 0 0 0-.222-.571c-.191 0-.508.175-.651.349-.142.175-.095.603.175.73M111.148 124.72c-.618-.095-1.237-.285-1.84-.428a.905.905 0 0 0-1.443.27 1.187 1.187 0 0 0 .46 1.586c.34.211.632.492.856.825a1.75 1.75 0 0 0 1.063.936h.682a2.3 2.3 0 0 0 1.126-1.825c-.047-.586-.063-1.237-.904-1.364M113.956 118.313a.7.7 0 0 0-.676-.037.7.7 0 0 0-.403.544c.015.342.084.68.207.999a1.09 1.09 0 0 0 .845-.037 1.1 1.1 0 0 0 .566-.629c.143-.491-.174-.698-.539-.84M127.55 117.439a1.091 1.091 0 0 0 1.475-.46q.01-.142 0-.285a1 1 0 0 0 .634-.65.97.97 0 0 0-.333-.809 1.2 1.2 0 0 0-.983 0 .9.9 0 0 0-.222.269 1.24 1.24 0 0 0-1.253.619 1.09 1.09 0 0 0 .682 1.316M119.127 126.322a1.01 1.01 0 0 0-1.316.476.98.98 0 0 0 .095 1.126h1.776a.9.9 0 0 0 .175-.254c.041-.136.055-.279.041-.421a1.09 1.09 0 0 0-.771-.927M118.683 121.771c.143-.492-.175-.683-.539-.841-.365-.159-1.031 0-1.079.507.011.343.081.681.206 1a1.065 1.065 0 0 0 1.412-.666M113.892 114.585a.62.62 0 0 0 .222.713c.238.111.571-.127.667-.285.095-.159.111-.777-.127-.873s-.698.223-.762.445M104.518 118.296c-.888-.095-1.142 1.063-.841 1.587.302.523.127.412-.222.983s-.523 1.586.619 1.84a2.223 2.223 0 0 0 2.458-1.586 2.586 2.586 0 0 0-2.014-2.824M152.882 116.25c-.683-1.586-1.967-.65-2.316-1.062s-.429-1.507-.889-2.174a1.746 1.746 0 0 0-2.633-.602 1.916 1.916 0 0 0-.317 2.807 1 1 0 0 0-.095.175 2.09 2.09 0 0 0 1.348 1.951c.312.082.64.082.952 0a1.24 1.24 0 0 0 0 1.205c.539 1.364 2.046 1.729 2.649.873s.174-1.587.365-1.793c.19-.206 1.237-.618.936-1.38M156.514 118.106a1.3 1.3 0 0 0-.429 0 1.14 1.14 0 0 0-.745-.888 1.71 1.71 0 0 0-1.777 1.158.94.94 0 0 0 .762 1.174c.238.071.491.071.729 0a1.27 1.27 0 0 0 .476 1.205c1.015.555 1.872-.301 2.3-.761.429-.46-.349-1.682-1.316-1.888M157.957 111.301a1.582 1.582 0 0 0-1.792-.841c-.286 0-.555.096-.857.143l-.285-.365h-4.045c0 .095.143.191.222.27.077.213.189.412.333.587-.317 1.094.317 1.681 1.19 2.157-.222.571-.762 1.11 0 1.681a1 1 0 0 0 1.316 0c.714-.539.302-1.157 0-1.76l.841-.777 1.063 1.046q.588-.106 1.142-.333c.22-.136.4-.328.523-.555.206-.143.374-.334.492-.555a.71.71 0 0 0-.143-.698M131.801 116.901a1.093 1.093 0 0 0 0-1.84 1.5 1.5 0 0 0-1.301 0 1.235 1.235 0 0 0-.46 1.063 1.27 1.27 0 0 0 1.761.777M146.711 111.65c.206-.333-.127-1.158-.571-1.412h-.523a1 1 0 0 0-.603.936c.095.587 1.443.873 1.697.476M140.144 118.344c-.301.857 0 1.587.587 1.825a2.17 2.17 0 0 0 2.411-1.079 1.59 1.59 0 0 0-1.079-1.586 1.37 1.37 0 0 0-1.634.321c-.132.15-.229.327-.285.519M133.434 110.238h-1.316c.111.318.238.571.38.635.143.063.778-.159.936-.635M140.858 116.98c1.047-1.348 1.681-.317 2.744-1.031q.223-.194.381-.444a1.377 1.377 0 0 0-.51-2.013 1.4 1.4 0 0 0-.759-.144 8.5 8.5 0 0 0-2.268.365 2.14 2.14 0 0 0-1.174 2.236c.079.492.65 1.444 1.586 1.031M143.19 112.999a.76.76 0 0 0 .957-.229.75.75 0 0 0 .137-.326 1.43 1.43 0 0 0-.254-1.063c-.222-.206-1.269-.111-1.443.333a1.015 1.015 0 0 0 .603 1.285M124.33 114.204c.618-.19.698-.698.428-1.872-.603-.111-1.285-.46-1.729.333a1.033 1.033 0 0 0 .286 1.396 1.2 1.2 0 0 0 1.015.143M163.779 124.705a1.07 1.07 0 0 0-.841-.014 1.06 1.06 0 0 0-.587.6.95.95 0 0 0 .073.761.965.965 0 0 0 .609.461 1.093 1.093 0 0 0 1.38-.698.86.86 0 0 0-.307-.964.85.85 0 0 0-.327-.146M156.403 123.34a.6.6 0 0 0-.238 0 2.06 2.06 0 0 0-1.11-1.078 1.68 1.68 0 0 0-1.84 1.269 1 1 0 0 0 0 .38 3.4 3.4 0 0 0-.222 1.333c.111.301.682.952.158 1.316-.523.365-1.332.334-1.586.968l-.095.222a.9.9 0 0 0-.413-.238 1.59 1.59 0 0 0-1.158.349h4.553a1.44 1.44 0 0 1 0-.777c.174-.365.507-.714 1.031-.397.523.318 1.475.127 2.062-.999s-.222-2.474-1.142-2.348M161.399 125.831c-.539-.143-1.38.555-1.491 1.237a.8.8 0 0 0 .381.857h2.078a.64.64 0 0 0 .174-.302 1.76 1.76 0 0 0-1.142-1.792M157.37 127.925h2.697a2.3 2.3 0 0 0-.778-.476 1.585 1.585 0 0 0-1.919.476M162.732 122.658c.285-1.078-.27-1.871-1.587-2.173a2.8 2.8 0 0 0-.856 0 1.15 1.15 0 0 0-1.063.54c-.19.239-.33.514-.412.809a1.95 1.95 0 0 0 .382 1.52c.166.213.374.39.611.519.237.128.498.206.767.229a1.984 1.984 0 0 0 2.158-1.444M172.011 123.42a.63.63 0 0 0 .539-.127l-2.554-2.553c-.278.245-.5.548-.65.888a1.43 1.43 0 0 0 .841 1.983 1.7 1.7 0 0 0 1.824-.191M165.983 126.941a1.13 1.13 0 0 0-1.078.984h2.125a.876.876 0 0 0-.629-.972.9.9 0 0 0-.418-.012M174.295 125.054c-.951-.127-2.125.079-2.474.634a.46.46 0 0 0-.095.27c.269.904-.445 1.237-.936 1.729a1.1 1.1 0 0 0-.175.238h2.966a1.03 1.03 0 0 1 .667-.476c.158.143.317.349.476.476h1.38q.138-.038.269-.095a.61.61 0 0 0 .238-.524z"/><path fill="#01ADA1" d="M166.221 117.948a2 2 0 0 0-.587-.191q.263.043.524 0c.198-.047.382-.14.539-.269l-3.648-3.649c-.206.444-.381.825-.555.857s-1.587-1.158-2.824-.666a2.235 2.235 0 0 0-1.205 2.839 3.77 3.77 0 0 0 1.474 1.496 3.77 3.77 0 0 0 2.047.471c1.015-.27 1.047-1.586 1.332-1.697s1.127.602 2.11.682a1.77 1.77 0 0 0-1.586 1.015 2.16 2.16 0 0 0-.175 1.3 1.7 1.7 0 0 0-.269.572 2.3 2.3 0 0 0 .378 1.787 2.31 2.31 0 0 0 1.557.957 2.24 2.24 0 0 0 2.728-1.698 1.77 1.77 0 0 0-.254-1.586 2.34 2.34 0 0 0-1.586-2.22M149.471 124.102a.2.2 0 0 1 0-.095 1.19 1.19 0 0 0 .904-.904 1.096 1.096 0 0 0-.999-1.174 1.03 1.03 0 0 0-.587 0 1.978 1.978 0 0 0-2.205.809 2 2 0 0 0-.761-.317 1.17 1.17 0 0 0-1.587.698 2.27 2.27 0 0 0 1.111 2.125 1.33 1.33 0 0 0 1.018-.208 1.34 1.34 0 0 0 .568-.87q.238.21.523.349a1.42 1.42 0 0 0 1.097.229 1.42 1.42 0 0 0 .918-.642M135.052 127.925h1.666q-.211-.211-.476-.349a.887.887 0 0 0-1.19.349M135.909 122.262c.27-.698 0-1.681-.508-1.887a2.04 2.04 0 0 0-1.427.095 1.03 1.03 0 0 0-.619-.397 1.126 1.126 0 0 0-1.221.619 3.74 3.74 0 0 0-2.031-.286c-.3.031-.602-.024-.872-.158a1.39 1.39 0 0 0-1.953.058 1.4 1.4 0 0 0-.347.624.8.8 0 0 0-.333-.238 1.25 1.25 0 0 0-1.317.904 1.284 1.284 0 0 0 .587 1.713q.209.066.426.046a1.07 1.07 0 0 0 .741-.396 1.1 1.1 0 0 0 .197-.38c.286.229.624.381.984.444a2.1 2.1 0 0 1 1.38.619 2.22 2.22 0 0 0 2.125.524 1.94 1.94 0 0 0 1.476-1.587v-.206c.183.437.53.784.967.968.698.269 1.364-.175 1.745-1.079M138.828 111.413a1.38 1.38 0 0 0-2.507.127 7.7 7.7 0 0 0-.618 1.792.27.27 0 0 0-.075-.147.28.28 0 0 0-.147-.075.336.336 0 0 0-.349.27c0 .095.174.285.254.301a.33.33 0 0 0 .238-.079.4.4 0 0 1 0 .111 2.18 2.18 0 0 0 1.443 2.094.857.857 0 0 0 1.126-.349 6.06 6.06 0 0 0 .873-3.506 2.4 2.4 0 0 0-.238-.539M133.942 126.973a1.21 1.21 0 0 0-1.33.279 1.2 1.2 0 0 0-.256.403.8.8 0 0 0 0 .27h2.237a1.09 1.09 0 0 0-.651-.952M142.111 123.77a1.94 1.94 0 0 0-2.459.397 1.94 1.94 0 0 0-.032 2.49 1 1 0 0 0-.222.428 1.26 1.26 0 0 0 0 .841h1.809v-.095a1.2 1.2 0 0 0 0-.46 2.258 2.258 0 0 0 1.586-1.269 1.81 1.81 0 0 0-.682-2.332M150.216 127.37c.191-.444-.142-.952-.396-1.269s-.92 0-1.126.381c-.207.38 0 .999.364 1.11.365.111.968.206 1.158-.222M123.885 126.021c-.84-.317-1.776 0-1.998.524-.098.475-.007.97.254 1.38h2.68a1.364 1.364 0 0 0-.936-1.904M144.173 127.925h1.269a1.3 1.3 0 0 0-.476-.222.97.97 0 0 0-.793.222M144.379 121.31a1.088 1.088 0 0 0-.634-.746c-.27 0-1.031 0-1.158.349s.476.873.745 1.031c.27.159 1.047-.19 1.047-.634"/><path fill="#fff" d="M188.492 99.595h-8.708l-2.903-27.108h14.514zM189.459 111.69a5.32 5.32 0 1 0-10.643 0 5.321 5.321 0 0 0 10.643 0"/></svg>