<svg xmlns="http://www.w3.org/2000/svg" width="16" height="16" fill="none"><path fill="#252F3E" d="M4.51 6.94q0 .293.058.467c.043.116.096.242.17.379a.23.23 0 0 1 .037.12q.002.08-.1.159l-.336.22a.26.26 0 0 1-.138.048q-.08-.001-.16-.074a1.6 1.6 0 0 1-.191-.247 4 4 0 0 1-.165-.31q-.623.726-1.565.726-.671 0-1.064-.38C.796 7.797.662 7.46.662 7.04q-.001-.672.485-1.083c.324-.274.755-.41 1.303-.41q.27.002.564.042c.197.026.4.068.612.116V5.32q-.001-.599-.25-.842-.254-.243-.867-.242-.28-.001-.575.069a4 4 0 0 0-.575.178 2 2 0 0 1-.186.069.3.3 0 0 1-.085.016q-.112.001-.112-.163v-.258c0-.084.01-.147.038-.184a.4.4 0 0 1 .149-.11q.28-.143.67-.237.39-.102.83-.1.948 0 1.394.426.44.426.442 1.293V6.94zm-2.16.799q.261 0 .547-.095c.192-.063.362-.179.506-.337.085-.1.149-.21.18-.336.033-.126.054-.279.054-.458v-.22a5 5 0 0 0-.49-.09 4 4 0 0 0-.5-.031c-.356 0-.617.068-.793.21q-.261.212-.26.605-.002.368.196.557.192.197.56.195m4.272.568c-.096 0-.16-.016-.202-.053-.043-.032-.08-.105-.112-.205l-1.25-4.065a1 1 0 0 1-.048-.21c0-.085.042-.132.127-.132h.522q.15-.001.207.053c.043.031.075.105.107.205l.894 3.481.83-3.481q.038-.158.1-.205a.37.37 0 0 1 .214-.053h.425q.15-.001.213.053c.043.031.08.105.101.205l.841 3.523.92-3.523a.45.45 0 0 1 .107-.205.35.35 0 0 1 .207-.053h.495c.085 0 .133.042.133.132q-.001.038-.01.084a1 1 0 0 1-.038.131l-1.282 4.065q-.049.158-.112.205a.34.34 0 0 1-.202.053h-.457c-.102 0-.17-.016-.213-.053s-.08-.105-.101-.21l-.825-3.392-.82 3.387q-.038.156-.1.21c-.043.037-.118.053-.214.053zm6.837.142c-.276 0-.553-.032-.82-.095-.265-.063-.473-.132-.611-.21-.085-.048-.144-.1-.165-.148a.4.4 0 0 1-.032-.147v-.268q.002-.164.123-.163.047 0 .095.016c.032.01.08.031.133.052q.273.12.586.184c.212.042.42.063.633.063q.504 0 .777-.173a.56.56 0 0 0 .276-.5.5.5 0 0 0-.143-.368q-.145-.15-.538-.273l-.771-.237c-.389-.12-.676-.3-.852-.536a1.24 1.24 0 0 1-.122-1.347c.096-.168.223-.315.383-.43.16-.122.34-.211.553-.274s.437-.09.67-.09c.118 0 .24.006.357.021.123.016.235.037.346.058q.16.039.304.084.143.047.223.095a.46.46 0 0 1 .16.132.28.28 0 0 1 .048.173v.247q-.002.167-.123.168a.6.6 0 0 1-.202-.063 2.5 2.5 0 0 0-1.022-.205c-.303 0-.542.048-.707.148a.51.51 0 0 0-.25.468q0 .222.16.373c.106.1.303.2.585.29l.755.236q.576.18.825.505.246.324.245.736-.001.34-.139.61a1.4 1.4 0 0 1-.388.463 1.7 1.7 0 0 1-.59.294c-.24.074-.49.11-.762.11"/><path fill="#F90" fill-rule="evenodd" d="M14.465 11.005c-1.75 1.277-4.294 1.956-6.48 1.956-3.066 0-5.827-1.12-7.913-2.982-.165-.147-.016-.347.18-.231 2.257 1.293 5.04 2.077 7.918 2.077 1.943 0 4.076-.4 6.04-1.22.292-.132.542.19.255.4" clip-rule="evenodd"/><path fill="#F90" fill-rule="evenodd" d="M15.194 10.184c-.223-.284-1.48-.137-2.049-.068-.17.02-.196-.126-.042-.237 1-.694 2.644-.494 2.836-.263.192.237-.053 1.862-.99 2.64-.143.121-.282.058-.218-.1.213-.52.687-1.693.463-1.972" clip-rule="evenodd"/></svg>