<svg xmlns="http://www.w3.org/2000/svg" width="19" height="18" fill="none"><g clip-path="url(#a)"><path fill="#A0A1A2" d="M.5 16.128c0 .36.288.684.648.684h16.668c.36 0 .684-.288.684-.684V4.212H.5z"/><path fill="#7A7A7A" d="M17.816 1.44H1.148c-.36 0-.648.324-.648.684v2.052h18V2.124a.684.684 0 0 0-.684-.684"/><path fill="#0072C6" d="M9.176 5.436H1.832v4.68h7.344zM9.176 10.764H1.832v4.68h7.344z"/><path fill="#fff" d="M17.132 5.436H9.824v4.68h7.308z"/><path fill="#0072C6" d="M17.132 10.764H9.824v4.68h7.308z"/><path fill="#fff" d="M1.22 1.44a.72.72 0 0 0-.72.72v13.896c0 .396.324.72.72.72h.792L16.196 1.44z" opacity=".2"/></g><defs><clipPath id="a"><path fill="#fff" d="M.5 0h18v18H.5z"/></clipPath></defs></svg>