<svg xmlns="http://www.w3.org/2000/svg" width="16" height="16" fill="none"><g clip-path="url(#a)"><path fill="#373535" d="M1.91 11.855c.13 0 .254.03.316.093.01.096-.076.25-.131.25a.6.6 0 0 0-.203-.037c-.313 0-.468.323-.468.643 0 .2.07.32.227.32.169 0 .34-.114.437-.2.024.018.055.073.055.135 0 .068-.02.134-.082.196-.11.11-.296.202-.564.202-.31 0-.523-.175-.523-.584 0-.537.354-1.018.932-1.018zM2.92 13.107c.169 0 .475-.296.56-.86.004-.034.008-.044.014-.079a.4.4 0 0 0-.14-.024.43.43 0 0 0-.375.196.97.97 0 0 0-.172.547c0 .144.04.22.11.22zm-.554-.155c0-.203.07-.557.327-.815.22-.227.488-.282.733-.282.161 0 .381.052.519.08-.034.15-.117.721-.155 1.052a2.6 2.6 0 0 0-.017.409 1.3 1.3 0 0 1-.385.062c-.031 0-.038-.141-.028-.275.004-.045.01-.11.014-.138-.134.224-.399.413-.677.413-.2 0-.33-.165-.33-.502zM4.801 11.855c.14 0 .275.052.337.117-.003.097-.08.258-.2.213a.5.5 0 0 0-.171-.03c-.093 0-.172.04-.172.127 0 .065.048.113.278.275.165.12.23.227.23.378 0 .251-.237.523-.65.523-.168 0-.316-.066-.364-.134-.062-.104-.014-.306.055-.272a.9.9 0 0 0 .358.093c.113 0 .185-.052.185-.12 0-.059-.051-.11-.26-.258-.176-.131-.231-.252-.231-.389 0-.285.244-.523.602-.523zM5.987 11.855c.141 0 .275.052.337.117-.003.097-.079.258-.2.213a.5.5 0 0 0-.171-.03c-.093 0-.172.04-.172.127 0 .065.048.113.279.275.165.12.23.227.23.378 0 .251-.237.523-.65.523-.168 0-.316-.066-.364-.134-.062-.104-.014-.306.055-.272a.9.9 0 0 0 .357.093c.114 0 .186-.052.186-.12 0-.059-.052-.11-.262-.258-.175-.131-.23-.252-.23-.389 0-.285.244-.523.602-.523zM7.07 13.107c.169 0 .475-.296.561-.86.003-.034.007-.044.014-.079a.4.4 0 0 0-.141-.024.43.43 0 0 0-.375.196.97.97 0 0 0-.172.547c0 .144.041.22.11.22zm-.553-.155c0-.203.069-.557.326-.815.22-.227.489-.282.733-.282.162 0 .382.052.52.08a16 16 0 0 0-.155 1.052 2.6 2.6 0 0 0-.018.409 1.3 1.3 0 0 1-.385.062c-.03 0-.038-.141-.027-.275.003-.045.01-.11.013-.138-.134.224-.399.413-.677.413-.2 0-.33-.165-.33-.502zM8.872 12.302c.158-.254.365-.447.653-.447.245 0 .324.227.28.55-.025.152-.066.368-.094.568a3 3 0 0 0-.038.423c-.089.045-.35.062-.409.062-.024 0-.027-.19.004-.389.027-.165.086-.464.113-.636.017-.1.014-.22-.082-.22-.128 0-.43.203-.582 1.035-.01.069-.037.11-.075.134-.052.031-.162.059-.385.062.04-.21.106-.64.154-.956.045-.289.062-.475.052-.547.058-.02.364-.086.399-.086.038 0 .044.107.01.365l-.01.082zM10.619 13.104c.151 0 .457-.282.543-.781.004-.027.014-.08.021-.11a.27.27 0 0 0-.196-.069c-.348 0-.502.416-.502.716 0 .161.055.244.13.244zm-.227.354c-.22 0-.358-.196-.358-.533 0-.557.348-1.07.932-1.07.104 0 .196.028.255.062.03-.158.103-.646.106-.79.097-.018.303-.049.396-.049.038 0 .048.038.034.124a93 93 0 0 0-.258 1.726c-.02.186-.024.368-.02.471-.11.048-.334.059-.392.059-.024 0-.038-.158-.031-.3l.01-.12c-.172.282-.41.42-.67.42zM12.407 12.35c.182-.405.399-.495.54-.495.045 0 .113.028.144.062.014.114-.075.34-.154.427a.34.34 0 0 0-.152-.042c-.117 0-.347.183-.492.967-.01.065-.03.093-.068.11-.059.034-.29.062-.4.065.052-.282.142-.856.176-1.193.01-.086.014-.244.007-.306a1.8 1.8 0 0 1 .382-.09c.03 0 .055.19.007.495zM13.62 13.107c.17 0 .475-.296.562-.86.003-.034.006-.044.013-.079a.4.4 0 0 0-.14-.024.43.43 0 0 0-.376.196.97.97 0 0 0-.172.547c0 .144.042.22.11.22zm-.553-.155c0-.203.069-.557.327-.815.22-.227.488-.282.732-.282.162 0 .382.052.52.08-.035.15-.117.721-.155 1.052a2.6 2.6 0 0 0-.017.409 1.3 1.3 0 0 1-.386.062c-.03 0-.037-.141-.027-.275.004-.045.01-.11.014-.138-.134.224-.399.413-.678.413-.2 0-.33-.165-.33-.502z"/><path fill="#BBE6FB" d="M12.61 6.028c.114 1.322-1.966 2.58-4.646 2.81S3.021 8.182 2.907 6.86c-.113-1.322 1.967-2.58 4.647-2.81s4.943.656 5.057 1.978"/><path fill="#fff" d="M7.632 4.205c-1.022-.016-2.218.39-3.108.77-.092.266-.142.55-.142.845 0 1.568 1.416 2.839 3.162 2.839 1.747 0 3.163-1.271 3.163-2.84 0-.496-.143-.962-.392-1.368-.712-.11-1.691-.23-2.683-.246" opacity=".35"/><path fill="#fff" d="M7.544 4.205c-.566-.034-1.54.26-2.354.555-.124.292-.192.611-.192.946 0 1.374 1.245 2.488 2.563 2.488 1.309 0 2.467-1.116 2.563-2.488.031-.447-.122-.868-.336-1.23a22 22 0 0 0-2.244-.27"/><path fill="#373535" d="M6.092 5.526c.07-.154.175-.23.277-.358a1 1 0 0 1-.037-.165.28.28 0 0 1 .383-.26 2.04 2.04 0 0 1 1.85-.325c-.605-.084-1.287.13-1.752.505.014.033.054.13.054.168 0 .154-.1.192-.255.192a.3.3 0 0 1-.1-.019c-.104.141-.233.41-.296.577.257.23.49.313.791.426 0-.015.01-.028.01-.043 0-.465.41-.844.877-.844.417 0 .763.304.83.702.209-.133.41-.234.564-.43a.5.5 0 0 1-.075-.229.254.254 0 0 1 .312-.247q.118-.241.174-.505c-.728-.54-2.138-.466-2.138-.466s-1.122-.058-1.881.312c.05.366.197.714.412 1.009"/><path fill="#373535" d="M9.574 5.316c.052.046.08.087.102.126.068.123-.068.235-.209.235l-.041-.004c-.158.247-.435.563-.68.723a2.14 2.14 0 0 1 1.014.446c.206-.37.364-.902.364-1.355a.97.97 0 0 0-.381-.782c-.012.184-.111.442-.169.61M6.515 7.653c.125-.347.434-.616.726-.852a1.6 1.6 0 0 1-.133-.272 2.05 2.05 0 0 1-.916-.58l-.006.023a1.9 1.9 0 0 0-.032.615c.17.032.3.181.3.361 0 .107-.094.262-.166.329.079.17.133.252.227.376"/><path fill="#373535" d="M6.493 7.944c-.15-.149-.254-.446-.35-.633a.4.4 0 0 1-.057.005c-.203 0-.416-.17-.367-.368.026-.109.102-.18.224-.24a2.6 2.6 0 0 1 .017-.786c.015-.068.047-.099.068-.163a2.16 2.16 0 0 1-.369-1.186l.001-.046c-.378.19-.662.489-.662.96 0 1.042.6 2.065 1.493 2.465zM8.689 6.503a.843.843 0 0 1-1.316.384c-.295.23-.564.634-.7.985.061.066.104.12.172.179.207.053.492 0 .716 0 .9 0 1.698-.401 2.155-1.104-.304-.21-.662-.41-1.027-.444"/><path fill="#1287B1" d="M6.069 5.648q.105-.231.258-.425a.28.28 0 0 1 .365-.358 2.04 2.04 0 0 1 1.85-.325 2.24 2.24 0 0 0-1.695.476q.022.05.022.109a.28.28 0 0 1-.38.261q-.158.211-.253.464c.22.238.491.426.793.539l-.002-.044a.843.843 0 0 1 1.674-.141c.209-.133.394-.303.547-.5a.254.254 0 0 1 .253-.406q.117-.241.175-.505c-.729-.54-2.138-.466-2.138-.466s-1.122-.058-1.881.312c.05.366.196.714.412 1.009"/><path fill="#1287B1" d="M9.614 5.357a.254.254 0 0 1-.211.437 2.06 2.06 0 0 1-.614.617c.364.057.706.211.988.445a2.55 2.55 0 0 0 .324-1.247.97.97 0 0 0-.382-.782 2 2 0 0 1-.105.53M6.553 7.736c.126-.346.344-.658.636-.894a.8.8 0 0 1-.104-.191 2.05 2.05 0 0 1-.917-.58l-.005.023a1.9 1.9 0 0 0-.032.615.368.368 0 0 1 .181.631q.1.21.241.396"/><path fill="#1287B1" d="M6.492 7.94a2 2 0 0 1-.373-.507.368.368 0 0 1-.216-.694 2.04 2.04 0 0 1 .089-.893 2.03 2.03 0 0 1-.356-1.151l.001-.047c-.379.19-.663.49-.663.96 0 1.043.623 1.94 1.516 2.34zM8.666 6.625a.843.843 0 0 1-1.316.383c-.296.23-.519.544-.655.895q.092.099.195.187a2.57 2.57 0 0 0 2.797-1.085 2.15 2.15 0 0 0-1.021-.38"/><path fill="#fff" d="m8.696 6.407.779-.186-.782-.04.636-.486-.722.259.49-.68-.677.45.237-.796-.466.656-.01-.83-.307.74-.255-.748.013.88-.441-.789.239.838-.716-.52.56.704-.888-.326.701.519-.9.027.92.238-.92.199.909.066-.767.49.79-.286-.548.694.692-.558-.25.93.535-.757-.075.895.303-.811.258.852.063-.855.383.73-.226-.835.701.544-.453-.693.77.3-.588-.579.789.062z"/><path fill="#373535" d="M.398 7.898c2.417-2.417 4.348-3.163 6.1-3.503.232-.045.276-.552.276-.552s.032.373.194.422.373-.584.373-.584-.194.568 0 .6c.195.032.552-.551.552-.551s-.146.502-.049.535c.097.032.584-.73.584-.73s-.292.503-.016.551.678-.343.678-.343-.316.359-.175.408c.6.211 1.086-.569 1.086-.569s-.113.342-.405.715c.633.162 1.102-.79 1.102-.79l-.47.952c.244.13 1.217-.989 1.217-.989s-.502.876-.795 1.054c.163.13.747-.389.747-.389s-.47.584-.292.616c.26.211 1.216-1.086 1.216-1.086s-.373.762-.924 1.362c.46.23 1.606-1.249 1.606-1.249s-.033.47-.86 1.217c.616-.081 1.411-1.25 1.411-1.25s-.292.877-.99 1.493c.606-.063 1.574-1.557 1.574-1.557s-.373 1.038-1.135 1.638c.843.187 2.06-1.07 2.06-1.07s-.479.892-1.103 1.257c.697.267 1.654-.836 1.654-.836s-.957 1.477-2.482 1.412c-.5-.022-2.013-1.518-5.255-1.395-4.283.162-5.191 1.979-7.479 3.211" opacity=".35"/><path fill="#373535" d="M.497 7.715c2.417-2.417 4.348-3.163 6.1-3.504.232-.045.276-.551.276-.551s.032.373.194.421c.162.049.373-.584.373-.584s-.194.568 0 .6c.195.033.552-.551.552-.551s-.146.503-.049.535.584-.73.584-.73-.292.503-.016.552.678-.343.678-.343-.316.358-.175.408c.6.21 1.086-.57 1.086-.57s-.113.343-.405.716c.633.162 1.102-.791 1.102-.791l-.47.953c.244.13 1.217-.99 1.217-.99s-.503.876-.795 1.055c.163.13.747-.39.747-.39s-.47.585-.292.617c.26.21 1.216-1.087 1.216-1.087s-.373.763-.924 1.363c.46.23 1.606-1.25 1.606-1.25s-.033.471-.86 1.217c.616-.08 1.411-1.249 1.411-1.249s-.292.876-.99 1.493c.606-.063 1.574-1.558 1.574-1.558s-.373 1.039-1.135 1.639c.843.186 2.06-1.07 2.06-1.07s-.479.891-1.103 1.256c.697.268 1.654-.835 1.654-.835s-.957 1.476-2.482 1.411c-.5-.021-2.013-1.518-5.255-1.395-4.283.162-5.191 1.979-7.479 3.212"/><path fill="#373535" d="M.335 8.163c1.278.64 2.446-.097 3.918.317 1.119.316 2.482.705 4.33.437 1.85-.267 3.432-1.07 4.186-2.506.235-.64 1.192.146 1.192.146s-.697-.292-.681-.154 1.046.616 1.046.616-.933-.292-.876-.073c.057.22 1.168 1.095 1.168 1.095s-1.257-.957-1.362-.827.535.657.535.657-1.063-.657-1.436-.463c-.268.139 1.103 1.039 1.103 1.039s-.892-.682-1.103-.503c-.21.178 1.006 1.638 1.006 1.638s-1.379-1.492-1.517-1.42c-.138.074.381.788.381.788s-.68-.747-.867-.617.973 2.069.973 2.069-1.257-1.988-1.776-1.655c.815 1.788.51 2.044.51 2.044s-.103-1.825-1.119-1.776c-.51.024.244 1.362.244 1.362S9.495 9.155 9.033 9.18c.852 1.613.548 2.269.548 2.269s.141-1.378-1.014-2.144c.438.39-.275 2.144-.275 2.144s.627-2.586-.463-2.093c-.172.078-.012 1.29-.012 1.29S7.598 9.258 7.27 9.33c-.192.042-1.217 1.922-1.217 1.922s.84-2.032.584-1.946c-.186.062-.535.9-.535.9s.17-.827 0-.876-1.12.876-1.12.876.706-.827.585-.998c-.185-.258-.401-.27-.657-.17-.374.145-.876.827-.876.827s.5-.69.413-.949c-.14-.415-1.581.803-1.581.803s.851-.803.657-.973c-.195-.17-1.252-.118-1.582-.119-.973-.003-1.31-.231-1.606-.465" opacity=".35"/><path fill="#373535" d="M.286 8.017c1.278.64 2.446-.097 3.918.318 1.12.315 2.482.704 4.331.436s3.431-1.07 4.185-2.506c.236-.64 1.193.146 1.193.146s-.698-.292-.682-.154c.017.138 1.047.616 1.047.616s-.933-.292-.876-.073c.057.22 1.168 1.095 1.168 1.095s-1.258-.957-1.363-.827.535.657.535.657-1.062-.657-1.435-.463C12.038 7.4 13.41 8.3 13.41 8.3s-.893-.682-1.103-.503c-.211.178 1.005 1.638 1.005 1.638s-1.378-1.492-1.516-1.42c-.138.074.38.788.38.788s-.68-.747-.867-.617.973 2.069.973 2.069-1.257-1.988-1.776-1.655c.815 1.788.511 2.044.511 2.044s-.104-1.825-1.12-1.776c-.51.024.244 1.362.244 1.362S9.447 9.01 8.984 9.033c.853 1.613.549 2.269.549 2.269s.14-1.378-1.015-2.144c.438.39-.275 2.144-.275 2.144s.627-2.586-.462-2.093c-.172.078-.012 1.29-.012 1.29s-.22-1.387-.548-1.314c-.191.042-1.216 1.922-1.216 1.922s.839-2.032.584-1.946c-.187.062-.536.9-.536.9s.17-.827 0-.876-1.119.876-1.119.876.706-.827.584-.998c-.185-.258-.4-.27-.657-.17-.373.145-.876.827-.876.827s.501-.69.414-.949c-.141-.415-1.582.803-1.582.803s.852-.803.657-.973-1.252-.118-1.582-.119C.92 8.48.582 8.251.286 8.017"/></g><defs><clipPath id="a"><path fill="#fff" d="M0 3h16v10.744H0z"/></clipPath></defs></svg>