<svg xmlns="http://www.w3.org/2000/svg" width="18" height="18" fill="none"><g clip-path="url(#a)"><path fill="#50E6FF" d="M2.954 5.266a.175.175 0 0 1-.176-.176A2.01 2.01 0 0 0 .769 3.081a.176.176 0 0 1-.176-.175.176.176 0 0 1 .176-.176A2.01 2.01 0 0 0 2.778.72a.175.175 0 0 1 .244-.163.18.18 0 0 1 .108.163 2.01 2.01 0 0 0 2.009 2.009.175.175 0 0 1 .163.243.18.18 0 0 1-.163.109A2.01 2.01 0 0 0 3.13 5.09a.177.177 0 0 1-.176.176M15.61 17.456a.14.14 0 0 1-.14-.141 1.61 1.61 0 0 0-1.607-1.607.14.14 0 0 1-.141-.14.14.14 0 0 1 .14-.141 1.61 1.61 0 0 0 1.608-1.607.14.14 0 0 1 .14-.141.14.14 0 0 1 .142.141 1.61 1.61 0 0 0 1.607 1.607.14.14 0 1 1 0 .282 1.61 1.61 0 0 0-1.607 1.607.14.14 0 0 1-.141.14"/><path fill="url(#b)" d="M14.969 7.53a6.136 6.136 0 1 1-11.937 2.852A6.136 6.136 0 0 1 14.97 7.53"/><path fill="#F2F2F2" d="M5.709 13.115a1.638 1.638 0 1 0 .005-3.275q.007-.07.007-.14A1.65 1.65 0 0 0 4.06 8.064H2.832a6.25 6.25 0 0 0 1.595 5.051zM15.045 7.815q.002-.023-.007-.044a6 6 0 0 0-1.406-2.88 2 2 0 0 0-.29-.09 1.806 1.806 0 0 0-2.3 1.663 1.737 1.737 0 0 0-.781 3.361c.173.068.357.101.542.1h2.03a13.5 13.5 0 0 0 2.212-2.11"/><path fill="#50E6FF" d="M17.191 3.832c-.629-1.047-2.1-1.455-4.155-1.149q-1.058.15-2.082.452a6.5 6.5 0 0 1 1.528.767c.241-.053.483-.116.715-.151a7.5 7.5 0 0 1 1.103-.089 2.19 2.19 0 0 1 1.959.725c.383.638.06 1.729-.886 3a16.7 16.7 0 0 1-4.749 4.051A16.8 16.8 0 0 1 4.8 13.7c-1.564.234-2.682 0-3.065-.636s-.06-1.73.886-2.995c.117-.157.146-.234.279-.392a6.3 6.3 0 0 1 .026-1.63 11.6 11.6 0 0 0-1.17 1.372C.517 11.076.181 12.566.809 13.613a3.16 3.16 0 0 0 2.9 1.249 8.4 8.4 0 0 0 1.251-.1 17.9 17.9 0 0 0 6.219-2.4A17.8 17.8 0 0 0 16.24 8.03c1.243-1.661 1.579-3.15.951-4.198"/></g><defs><radialGradient id="b" cx="0" cy="0" r="1" gradientTransform="matrix(6.16834 0 0 6.11476 8.953 8.954)" gradientUnits="userSpaceOnUse"><stop offset=".183" stop-color="#5EA0EF"/><stop offset="1" stop-color="#0078D4"/></radialGradient><clipPath id="a"><path fill="#fff" d="M0 0h18v18H0z"/></clipPath></defs></svg>