<svg xmlns="http://www.w3.org/2000/svg" width="16" height="16"><path d="M2 12h12v-1.97c-1.225.582-3.454.97-6 .97s-4.775-.388-6-.97zm-1 0V3c0-1.105 3.134-2 7-2s7 .895 7 2v9c0 1.105-3.134 2-7 2s-7-.895-7-2m1-3h12V7.03c-1.225.582-3.454.97-6 .97s-4.775-.388-6-.97zm0-4.97V6h12V4.03c-1.225.582-3.454.97-6 .97s-4.775-.388-6-.97m10.675-1.483C11.467 2.202 9.795 2 8 2s-3.467.202-4.675.547c-.492.14-.88.298-1.136.453.256.155.644.312 1.136.453C4.533 3.798 6.205 4 8 4s3.467-.202 4.675-.547c.492-.14.88-.298 1.136-.453-.256-.155-.644-.312-1.136-.453M2 6c.257.155.833.312 1.325.453C4.533 6.798 6.205 7 8 7s3.467-.202 4.675-.547c.492-.14 1.07-.298 1.327-.453zm0 3c.257.155.833.312 1.325.453C4.533 9.798 6.205 10 8 10s3.467-.202 4.675-.547c.492-.14 1.07-.298 1.327-.453zm0 3c.257.155.833.312 1.325.453C4.533 12.798 6.205 13 8 13s3.467-.202 4.675-.547c.492-.14 1.07-.298 1.327-.453z"/></svg>