<svg xmlns="http://www.w3.org/2000/svg" width="18" height="18" fill="none"><g clip-path="url(#a)"><path fill="url(#b)" d="M18 0H0v18h18z"/><path fill="#fff" fill-rule="evenodd" d="M11.73 13.958v-1.29c-.687.59-2.112.977-3.842.977-1.732 0-3.157-.388-3.844-.977v1.288c0 .635 1.579 1.343 3.844 1.343 2.262 0 3.838-.706 3.842-1.34m0-3.678.444-.003v.003c0 .28-.14.543-.407.784.327.293.407.582.407.787v2.105c0 1.023-1.842 1.794-4.286 1.794-2.432 0-4.267-.763-4.286-1.778L3.6 13.96v-2.11l.001-.004c0-.205.082-.49.405-.782-.322-.293-.404-.578-.405-.78V8.168c0-.204.083-.49.406-.782-.323-.293-.405-.577-.406-.78V4.487C3.611 3.467 5.45 2.7 7.888 2.7c1.173 0 2.301.193 3.093.53l-.172.416c-.739-.315-1.804-.495-2.921-.495-2.265 0-3.843.708-3.843 1.343 0 .636 1.578 1.343 3.843 1.343q.091 0 .18-.002l.019.45q-.1.004-.2.003c-1.73 0-3.156-.388-3.843-.977v1.293c.003.245.245.46.447.595.606.4 1.693.673 2.904.73l-.021.45c-1.226-.057-2.3-.32-2.99-.724-.173.133-.34.312-.34.518 0 .635 1.579 1.343 3.844 1.343q.335 0 .654-.023l.032.45a10 10 0 0 1-.686.024c-1.732 0-3.157-.388-3.844-.977v1.287c.003.251.244.465.447.6.693.458 1.995.743 3.397.743h.098v.451h-.098c-1.425 0-2.714-.275-3.504-.738-.173.133-.34.312-.34.518 0 .635 1.579 1.343 3.844 1.343 2.26 0 3.837-.705 3.842-1.34v-.004c0-.205-.165-.383-.337-.516q-.163.098-.36.184l-.172-.416q.244-.105.422-.224c.204-.138.447-.354.447-.598m2.38-3.76h-1.477a.22.22 0 0 1-.18-.094.23.23 0 0 1-.03-.204l.654-1.956H10.14L8.735 6.97h1.426a.22.22 0 0 1 .176.089.23.23 0 0 1 .038.196l-1.223 4.548zm.68-.07-5.922 6.312a.22.22 0 0 1-.27.04.23.23 0 0 1-.106-.255l1.379-5.125H8.367a.22.22 0 0 1-.19-.11.23.23 0 0 1-.007-.22L9.81 3.934a.22.22 0 0 1 .196-.12h3.382c.072 0 .139.035.18.094a.23.23 0 0 1 .03.204l-.654 1.956h1.685c.09 0 .17.054.204.137a.23.23 0 0 1-.043.244M4.377 13.968c.257.15.572.282.935.392l.127-.432c-.33-.1-.613-.218-.841-.35zm.935-3.254.127-.432c-.33-.1-.613-.218-.841-.351l-.221.391q.389.227.935.392m-.935-4.038.22-.391q.344.2.842.351l-.127.432a4.4 4.4 0 0 1-.935-.392" clip-rule="evenodd"/></g><defs><linearGradient id="b" x1="0" x2="18" y1="18" y2="0" gradientUnits="userSpaceOnUse"><stop stop-color="#2E27AD"/><stop offset="1" stop-color="#527FFF"/></linearGradient><clipPath id="a"><path fill="#fff" d="M0 0h18v18H0z"/></clipPath></defs></svg>