<svg xmlns="http://www.w3.org/2000/svg" width="32" height="32" aria-hidden="true"><g fill-rule="evenodd"><path d="M2 16c0 1.384.194 2.72.524 4H22a4 4 0 0 0 0-8H2.524A16 16 0 0 0 2 16" class="euiIcon__fillNegative"/><path fill="#FEC514" d="M28.924 7.662A15.4 15.4 0 0 0 30.48 6C27.547 2.346 23.05 0 18 0 11.679 0 6.239 3.678 3.644 9H25.51a5.04 5.04 0 0 0 3.413-1.338"/><path fill="#00BFB3" d="M25.51 23H3.645C6.24 28.323 11.679 32 18 32c5.05 0 9.547-2.346 12.48-6a15.4 15.4 0 0 0-1.556-1.662A5.03 5.03 0 0 0 25.51 23"/></g></svg>