<svg xmlns="http://www.w3.org/2000/svg" width="19" height="18" fill="none"><g clip-path="url(#a)"><path fill="#A0A1A2" d="M.5 16.236c0 .36.288.684.648.684h16.668c.36 0 .684-.288.684-.684V4.32H.5z"/><path fill="#7A7A7A" d="M17.816 1.476H1.148C.788 1.476.5 1.8.5 2.16v2.16h18V2.16c0-.36-.288-.576-.684-.576"/><path fill="#B8D432" d="M17.06 9.18H1.94v2.52h15.12z"/><path fill="#fff" d="M17.06 5.4H1.94v2.52h15.12z"/><path fill="#B8D432" d="M17.06 12.96H1.94v2.52h15.12z"/><path fill="#fff" d="M1.22 1.44a.72.72 0 0 0-.72.72v13.896c0 .396.324.72.72.72h.792L16.196 1.44z" opacity=".2"/></g><defs><clipPath id="a"><path fill="#fff" d="M.5 0h18v18H.5z"/></clipPath></defs></svg>