<svg xmlns="http://www.w3.org/2000/svg" width="16" height="16" fill="none"><path fill="#E535AB" fill-rule="evenodd" d="M7.611 2.905a1.4 1.4 0 0 0 .779 0l4.216 7.302a1.4 1.4 0 0 0-.393.68H3.787a1.4 1.4 0 0 0-.392-.679zm-.615-.37.04.04-4.217 7.302-.055-.015V6.137a1.394 1.394 0 0 0 1.004-1.739zm2.342-.572A1.395 1.395 0 0 0 8 .168 1.395 1.395 0 0 0 6.66 1.961l-3.222 1.86a1.398 1.398 0 1 0-1.711 2.17 1.4 1.4 0 0 0 .372.15v3.72q-.19.045-.368.147a1.397 1.397 0 1 0 1.708 2.174l3.22 1.859A1.395 1.395 0 0 0 8 15.832a1.397 1.397 0 0 0 1.325-1.836l3.202-1.848a1.398 1.398 0 0 0 2.253-.232 1.392 1.392 0 0 0-.88-2.055V6.14a1.4 1.4 0 0 0 .884-2.056 1.4 1.4 0 0 0-2.225-.262zm-.373.61.038-.037L12.23 4.4a1.394 1.394 0 0 0 1.005 1.737v3.725l-.054.015zm3.275 9.07-3.208 1.853A1.4 1.4 0 0 0 8 13.04c-.395 0-.752.164-1.006.427l-3.223-1.861.014-.054h8.43q.01.045.025.092" clip-rule="evenodd"/></svg>