<svg xmlns="http://www.w3.org/2000/svg" width="16" height="16" fill="none"><path fill="#423426" d="M5.889 6c.556-.002 1.126.157 1.558.517.222.18.4.404.553.644.273-.442.673-.818 1.165-.999.6-.225 1.279-.21 1.878.011.523.191.98.524 1.396.89.325.287.625.6.96.876.176.143.365.277.582.351a.81.81 0 0 0 .834-.216.55.55 0 0 0-.031-.756c-.134-.116-.362-.092-.457.061-.082.122-.036.274.029.392-.172-.125-.345-.3-.344-.53-.036-.263.16-.496.395-.589.458-.183 1.032-.025 1.321.378.278.377.3.871.252 1.32a1.58 1.58 0 0 1-.65 1.07c-.496.353-1.124.463-1.722.455a4.9 4.9 0 0 1-1.675-.36c-.89-.358-1.723-.853-2.643-1.138a3.2 3.2 0 0 0-.955-.203c-.26-.001-.506-.013-.75.003-.3.029-.597.09-.877.2-.935.29-1.78.798-2.688 1.156-.766.298-1.615.437-2.428.271-.454-.092-.907-.293-1.214-.651A1.63 1.63 0 0 1 .002 8.04c-.015-.377.068-.777.317-1.07a1.14 1.14 0 0 1 .964-.39c.23.012.465.112.607.298.113.147.12.349.07.52a.83.83 0 0 1-.317.369c.068-.116.11-.268.029-.389-.1-.161-.345-.177-.475-.045a.56.56 0 0 0-.086.634c.116.212.356.332.59.357.352.03.657-.188.916-.4.535-.46 1.017-.988 1.61-1.378.49-.328 1.067-.55 1.661-.547"/></svg>