<svg xmlns="http://www.w3.org/2000/svg" width="16" height="16" fill="none"><path fill="#000" d="M10.767 8.854c-.622 0-1.18.276-1.563.71l-.98-.693c.105-.286.165-.593.165-.915 0-.316-.058-.618-.159-.9l.977-.686c.383.432.94.706 1.56.706 1.15 0 2.084-.935 2.084-2.084s-.935-2.084-2.084-2.084A2.086 2.086 0 0 0 8.77 5.584l-.978.686a2.7 2.7 0 0 0-1.667-.968V4.123a2.09 2.09 0 0 0 1.656-2.039C7.78.934 6.846 0 5.697 0a2.086 2.086 0 0 0-2.084 2.084c0 .989.693 1.817 1.618 2.03v1.193a2.694 2.694 0 0 0-2.226 2.649c0 1.331.973 2.437 2.244 2.651v1.261a2.09 2.09 0 0 0-1.636 2.034c0 1.15.935 2.084 2.084 2.084a2.086 2.086 0 0 0 2.084-2.084c0-.995-.702-1.829-1.637-2.034v-1.26a2.7 2.7 0 0 0 1.639-.953l.985.697a2.086 2.086 0 0 0 1.999 2.67c1.15 0 2.084-.934 2.084-2.084s-.935-2.084-2.084-2.084m0-4.872a1.012 1.012 0 0 1 0 2.02 1.012 1.012 0 0 1 0-2.02m-6.08-1.898a1.012 1.012 0 0 1 2.02 0 1.012 1.012 0 0 1-2.02 0m2.02 11.818a1.012 1.012 0 0 1-2.02 0 1.012 1.012 0 0 1 2.02 0m-1.01-4.537a1.41 1.41 0 0 1-1.41-1.41 1.41 1.41 0 0 1 2.819 0 1.41 1.41 0 0 1-1.41 1.41m5.07 2.584a1.012 1.012 0 0 1 0-2.02 1.012 1.012 0 0 1 0 2.02"/></svg>