<svg xmlns="http://www.w3.org/2000/svg" width="500" height="500" data-name="Layer 1"><text xml:space="preserve" x="39.999" y="429.517" stroke="null" stroke-width="0" font-family="sans-serif" font-size="124" font-weight="bold" transform="matrix(1.42061 0 0 1.51886 -45.53 -184.232)">LDAP</text><path fill-rule="evenodd" stroke="null" d="M358.06 188.983a58.83 59.839 0 1 1-58.832 59.89 58.806 59.813 0 0 1 58.831-59.89zm-157.354-35.908c-5.044-8.26-14.626-19.468-14.626-29.112a15.281 15.543 0 0 1 10.289-14.158c-.48-8.182-.807-16.466-.807-24.674 0-4.873 0-9.772.277-14.594a31.9 32.446 0 0 1 1.614-7.31 50.988 51.862 0 0 1 22.695-29.445 65.387 66.507 0 0 1 12.432-6.13c7.817-2.898 4.035-15.389 12.608-15.645 20.174-.513 52.956 17.312 65.867 31.47a46.702 47.501 0 0 1 13.138 31.83l-.807 35.73a11.524 11.721 0 0 1 8.422 7.335c2.724 11.26-8.75 25.29-14.096 34.267-5.043 8.259-23.78 30.778-23.805 31.035a7.187 7.31 0 0 0 1.69 4.155 46.6 47.399 0 0 0 6.228 7.027 77.39 78.716 0 0 0-12.885 89.412H107c0-81.383 85.99-55.53 115.216-96.44 1.437-2.154 2.118-3.308 2.093-4.257 0-.513-21.661-27.495-23.603-30.625zm182.015 89a1.589 1.616 0 0 1 1.589 1.617v32.266a1.589 1.616 0 0 1-1.589 1.59h-49.35a1.589 1.616 0 0 1-1.588-1.59v-32.395a1.589 1.616 0 0 1 1.538-1.615h5.321v-13.594a20.173 20.519 0 0 1 5.951-14.569 20.173 20.519 0 0 1 28.647 0 20.173 20.519 0 0 1 6.102 14.312h-7.893a12.381 12.594 0 0 0-21.157-8.772 12.381 12.594 0 0 0-3.732 8.926v13.697zm-24.082 16.903 2.522 11.747h-6.884l2.017-11.9a4.665 4.745 0 1 1 2.345 0z" class="cls-1"/></svg>