<svg xmlns="http://www.w3.org/2000/svg" width="16" height="16" fill="none"><path fill="#fff" d="m8.422 15.924-.423-.145s.051-2.158-.723-2.313c-.516-.599.083-25.4 1.941-.083 0 0-.64.32-.754.868-.124.537-.041 1.673-.041 1.673"/><path fill="#A6A385" d="m8.422 15.924-.423-.145s.051-2.158-.723-2.313c-.516-.599.083-25.4 1.941-.083 0 0-.64.32-.754.868-.124.537-.041 1.673-.041 1.673"/><path fill="#fff" d="M8.65 13.838s3.706-2.437 2.839-7.507C10.652 2.645 8.68 1.437 8.463.973 8.226.643 8 .064 8 .064l.155 10.253c0 .01-.32 3.139.495 3.521"/><path fill="#499D4A" d="M8.65 13.838s3.706-2.437 2.839-7.507C10.652 2.645 8.68 1.437 8.463.973 8.226.643 8 .064 8 .064l.155 10.253c0 .01-.32 3.139.495 3.521"/><path fill="#fff" d="M7.782 13.972s-3.48-2.375-3.273-6.556C4.705 3.234 7.162 1.179 7.637.807c.31-.33.32-.454.341-.784.217.464.176 6.949.207 7.713.092 2.942-.166 5.679-.403 6.236"/><path fill="#58AA50" d="M7.782 13.972s-3.48-2.375-3.273-6.556C4.705 3.234 7.162 1.179 7.637.807c.31-.33.32-.454.341-.784.217.464.176 6.949.207 7.713.092 2.942-.166 5.679-.403 6.236"/></svg>