<svg xmlns="http://www.w3.org/2000/svg" width="16" height="16" fill="none"><path fill="#00546B" d="M14.728 12.138c-.87-.021-1.544.066-2.11.305-.163.065-.424.065-.445.272.087.087.098.228.174.348.13.217.359.51.565.663.228.174.457.348.696.5.424.261.903.413 1.316.674.24.152.478.348.717.511.12.087.196.229.348.283v-.033c-.076-.098-.098-.239-.174-.348-.108-.108-.217-.206-.326-.315a5.2 5.2 0 0 0-1.13-1.098c-.349-.24-1.11-.566-1.251-.968l-.022-.022c.24-.021.522-.108.75-.174.37-.098.707-.076 1.088-.174.174-.043.348-.098.522-.152v-.098c-.196-.195-.337-.456-.544-.641a14.5 14.5 0 0 0-1.794-1.338c-.337-.217-.772-.359-1.131-.543-.13-.066-.348-.098-.424-.207-.196-.24-.305-.555-.446-.837a27 27 0 0 1-.892-1.892c-.195-.424-.315-.849-.554-1.24-1.12-1.849-2.338-2.968-4.208-4.067-.403-.228-.881-.326-1.392-.446-.272-.01-.544-.032-.816-.043-.174-.076-.348-.283-.5-.38C2.125.285.527-.563.07.557c-.293.707.435 1.402.685 1.761.185.25.424.533.555.816.076.185.098.38.174.576.174.478.337 1.011.565 1.457.12.229.25.468.403.674.087.12.239.174.271.37-.152.218-.163.544-.25.816-.391 1.228-.239 2.75.316 3.653.174.272.587.87 1.141.642.49-.196.38-.816.522-1.36.033-.13.011-.217.076-.304v.022c.153.304.305.598.446.902.337.533.925 1.088 1.414 1.457.26.196.467.533.794.653v-.033H7.16c-.065-.098-.163-.141-.25-.217a5 5 0 0 1-.566-.653 14 14 0 0 1-1.218-1.979c-.173-.337-.326-.707-.467-1.044-.065-.13-.065-.326-.174-.391-.163.24-.402.446-.522.74-.207.467-.228 1.043-.304 1.641-.044.011-.022 0-.044.022-.348-.087-.468-.446-.598-.75-.326-.772-.38-2.012-.098-2.903.076-.229.402-.947.272-1.164-.065-.207-.283-.326-.402-.49a4.4 4.4 0 0 1-.392-.695c-.26-.61-.391-1.283-.674-1.892-.13-.283-.359-.577-.544-.838-.206-.293-.435-.5-.598-.848C.527 1.08.451.884.538.753.559.666.603.633.69.613c.141-.12.544.032.685.097.402.163.74.315 1.077.544.152.108.315.315.51.37h.229c.348.075.74.021 1.066.119a7 7 0 0 1 1.565.75 9.65 9.65 0 0 1 3.393 3.72c.13.25.185.478.305.738.228.533.51 1.077.739 1.599.228.511.446 1.033.772 1.457.163.228.816.348 1.11.468.216.097.554.184.75.304.369.228.739.49 1.087.74.174.13.717.402.75.62"/><path fill="#00546B" d="M3.637 2.689c-.185 0-.316.022-.446.054v.022h.022c.087.174.239.294.348.446.087.174.163.348.25.522l.021-.022c.153-.109.229-.283.229-.543-.065-.077-.076-.153-.13-.229-.066-.109-.207-.163-.294-.25"/></svg>