<svg xmlns="http://www.w3.org/2000/svg" width="16" height="16" fill="none"><path fill="#000" d="M15.938 9.58c-.096-.28-.347-.477-.672-.524a1.6 1.6 0 0 0-.537.029c-.362.072-.63.1-.826.105.74-1.211 1.341-2.593 1.687-3.893.56-2.102.261-3.06-.088-3.493C14.576.657 13.226.04 11.597.022a7.1 7.1 0 0 0-2.03.276A8 8 0 0 0 8.38.193C7.597.18 6.905.346 6.313.687A10 10 0 0 0 4.853.33C3.425.104 2.275.281 1.433.858.413 1.556-.059 2.768.029 4.463.057 5 .367 6.637.855 8.189c.281.892.58 1.632.89 2.201.44.807.91 1.283 1.437 1.453.295.096.833.163 1.398-.294q.105.128.294.246c.16.098.358.179.554.226.71.172 1.373.13 1.94-.112l.008.272.013.379c.033.81.09 1.44.258 1.881.01.025.022.062.035.1.084.25.225.668.583.996.37.338.818.442 1.228.442.206 0 .402-.026.574-.061.614-.128 1.311-.322 1.815-1.019.477-.658.709-1.65.75-3.211l.016-.127.01-.082.112.01.03.001c.624.028 1.389-.1 1.858-.312.371-.167 1.56-.776 1.28-1.597"/><path fill="#336791" d="M14.87 9.74c-1.86.372-1.987-.238-1.987-.238 1.962-2.824 2.782-6.408 2.075-7.285C13.026-.176 9.683.955 9.627.985l-.018.003a7 7 0 0 0-1.24-.125c-.841-.014-1.48.213-1.963.57 0 0-5.965-2.383-5.687 2.996.059 1.144 1.691 8.659 3.638 6.39.712-.83 1.4-1.533 1.4-1.533.341.22.75.333 1.179.292l.033-.027c-.01.103-.006.204.013.323-.501.544-.354.639-1.357.84-1.014.202-.418.563-.03.657.473.115 1.564.277 2.302-.724l-.03.114c.197.153.335.993.312 1.755s-.039 1.284.116 1.693c.155.408.31 1.327 1.627 1.053 1.102-.229 1.673-.822 1.752-1.811.056-.703.184-.6.192-1.228l.102-.298c.118-.954.02-1.261.698-1.118l.165.014c.499.022 1.153-.078 1.536-.251.827-.372 1.317-.993.502-.83"/><path fill="#fff" d="M6.755 4.94c-.168-.022-.32-.001-.396.055a.14.14 0 0 0-.06.094c-.01.067.038.141.068.18a.52.52 0 0 0 .329.198l.052.004c.203 0 .388-.154.404-.267.02-.141-.192-.236-.397-.263m5.549.005c-.016-.11-.22-.142-.413-.116s-.38.11-.365.221c.013.087.174.235.364.235l.05-.004a.47.47 0 0 0 .264-.14c.068-.07.107-.146.1-.196"/><path fill="#fff" d="M15.488 9.698c-.071-.208-.3-.274-.678-.199-1.126.226-1.529.07-1.661-.025.875-1.292 1.594-2.854 1.982-4.311.184-.69.286-1.332.294-1.854.01-.574-.091-.995-.3-1.252-.837-1.038-2.066-1.595-3.554-1.61C10.548.435 9.683.689 9.516.76A5.3 5.3 0 0 0 8.359.617c-.768-.012-1.431.166-1.981.53a9 9 0 0 0-1.61-.41c-1.305-.204-2.342-.05-3.081.459-.883.606-1.29 1.69-1.212 3.222.027.515.33 2.1.808 3.618.628 1.998 1.312 3.129 2.031 3.361a1 1 0 0 0 .289.046c.262 0 .584-.114.918-.504q.613-.713 1.267-1.39c.282.147.593.23.91.238l.003.024a7 7 0 0 0-.16.192c-.22.271-.267.328-.975.47-.202.04-.737.146-.745.51-.008.398.633.565.706.583q.383.092.734.092c.569 0 1.07-.181 1.47-.532-.013 1.417.048 2.814.224 3.24.143.348.495 1.199 1.604 1.199q.242 0 .539-.06c1.157-.24 1.66-.736 1.854-1.83.104-.585.283-1.98.367-2.73.177.054.405.079.652.079.515 0 1.108-.106 1.48-.274.419-.188 1.173-.65 1.037-1.052m-2.757-5.06a4.4 4.4 0 0 1-.068.632 6 6 0 0 0-.083.741c-.009.275.027.561.06.838.07.559.141 1.134-.134 1.702a2 2 0 0 1-.122-.243 5 5 0 0 0-.21-.389c-.4-.695-1.337-2.324-.858-2.988.143-.198.505-.402 1.415-.292M11.628.895c1.334.029 2.388.512 3.135 1.438.573.71-.058 3.94-1.884 6.725l-.055-.068-.023-.028c.472-.755.38-1.503.297-2.165-.033-.272-.065-.53-.057-.77.008-.256.043-.476.077-.688.041-.261.083-.532.072-.85a.3.3 0 0 0 .007-.12c-.03-.306-.39-1.221-1.123-2.05a5.05 5.05 0 0 0-1.786-1.302c.344-.069.814-.133 1.34-.122m-7.46 9.759c-.37.43-.624.348-.708.32-.546-.176-1.179-1.294-1.737-3.068C1.24 6.371.958 4.828.935 4.395c-.07-1.368.272-2.322 1.017-2.834C3.165.727 5.16 1.226 5.96 1.479l-.035.033C4.61 2.799 4.642 4.999 4.645 5.133q0 .077.01.227c.023.37.065 1.058-.047 1.838a2.28 2.28 0 0 0 .795 2.096c-.225.234-.715.751-1.236 1.359m1.404-1.818a1.85 1.85 0 0 1-.508-1.575 9.2 9.2 0 0 0 .051-1.927l-.008-.138c.192-.165 1.082-.628 1.717-.487.29.065.466.256.54.585.38 1.703.05 2.413-.215 2.984A5 5 0 0 0 7 8.62l-.034.089c-.087.224-.167.433-.217.632a1.66 1.66 0 0 1-1.176-.506m.067 2.297a1 1 0 0 1-.308-.128c.056-.025.155-.06.328-.094.833-.167.962-.284 1.243-.63.065-.08.138-.17.239-.28.15-.163.22-.135.345-.085.1.04.2.164.24.3.019.063.04.185-.03.28-.587.797-1.443.786-2.057.637M10 15.07c-1.02.212-1.38-.293-1.619-.87-.153-.372-.229-2.051-.175-3.906a.2.2 0 0 0-.01-.07.913.913 0 0 0-.535-.72c-.093-.038-.262-.106-.466-.055.043-.174.119-.37.2-.583l.035-.09c.038-.1.087-.205.138-.315.277-.597.657-1.415.245-3.261-.154-.692-.67-1.03-1.45-.952a3.4 3.4 0 0 0-1.238.401c.06-.697.285-2 1.128-2.823.53-.52 1.237-.775 2.098-.762 1.696.027 2.784.871 3.398 1.575.529.606.815 1.217.93 1.546-.86-.085-1.445.08-1.741.49-.645.894.352 2.63.832 3.463.088.153.164.285.188.34.156.368.358.613.505.792.046.054.09.108.123.154-.26.073-.728.24-.686 1.082a61 61 0 0 1-.403 3.094c-.164.922-.513 1.265-1.497 1.47m4.257-4.724c-.267.12-.712.21-1.135.23-.468.02-.706-.051-.762-.096-.026-.524.175-.578.388-.636q.05-.014.097-.029l.065.046c.375.24 1.046.266 1.992.077l.01-.002a2.6 2.6 0 0 1-.655.41"/></svg>