<svg xmlns="http://www.w3.org/2000/svg" width="18" height="18" fill="none"><g clip-path="url(#a)"><path fill="url(#b)" d="M0 0h18v18H0z"/><path fill="#fff" d="M14.733 9.633c-.066-.4-.5-.633-.8-.834-.1-.033-.366-.166-.333-.267v-.165l.233-1.734.234-1.5c.066-.467-.167-.767-.534-1.034-.766-.533-1.766-.733-2.7-.9A15 15 0 0 0 7.4 3.066a8.6 8.6 0 0 0-3 .733c-.5.234-1.167.633-1.1 1.267.233 1.933.533 3.9.767 5.833l.366 2.667a.99.99 0 0 0 .6.8c.734.4 1.667.534 2.5.6 1.103.095 2.213.038 3.3-.167.7-.133 1.967-.333 2.1-1.2.134-1.066.3-2.133.434-3.2l.033-.333c.333.134 1.467.3 1.333-.433m-6.1-6.166c1.434 0 3.1.166 4.367.866.2.134.667.367.533.667-.133.3-.566.433-.833.533-.4.134-.767.234-1.167.334a15 15 0 0 1-5.167.1 6.6 6.6 0 0 1-2.233-.633c-.167-.1-.467-.267-.4-.5a.95.95 0 0 1 .3-.334 5.3 5.3 0 0 1 1.734-.7 12 12 0 0 1 2.866-.333M12.4 13.6c-.033.3-.5.433-.7.5a10 10 0 0 1-1.433.333 12.9 12.9 0 0 1-3.2 0 4.9 4.9 0 0 1-1.934-.533.47.47 0 0 1-.3-.4c-.233-1.9-.5-3.8-.766-5.733l-.268-2.068c.547.29 1.13.502 1.734.633q.992.186 2 .267c1.314.101 2.636.034 3.933-.2a5.1 5.1 0 0 0 1.967-.666l-.466 3.734A33 33 0 0 1 9.4 8.033l-.133-.066c-.067-.034-.034-.034-.067-.1A.68.68 0 0 0 9 7.5a.54.54 0 0 0-.767.1.567.567 0 0 0 .067.767.42.42 0 0 0 .4.1c.067-.034.167-.034.233-.067.1-.033.1-.033.2.033a28 28 0 0 0 3.6 1.467c.2.033.2 0 .167.167 0 .133-.033.233-.033.333l-.134 1.167zM8.7 7.933c0 .066-.1.033-.1 0 0-.034.133-.133.1 0M13.433 9.6l.067-.533c.233.133.633.333.767.632-.233.101-.634-.032-.834-.099"/></g><defs><linearGradient id="b" x1="-17.677" x2="17.677" y1="35.677" y2=".323" gradientUnits="userSpaceOnUse"><stop stop-color="#1B660F"/><stop offset="1" stop-color="#6CAE3E"/></linearGradient><clipPath id="a"><path fill="#fff" d="M0 0h18v18H0z"/></clipPath></defs></svg>