<svg xmlns="http://www.w3.org/2000/svg" width="18" height="18" fill="none"><path fill="#50E6FF" d="M13.39 7.4h-.01v-.02h-.02L9 4.41 4.63 7.38h-.02v5.82h8.77V7.4z"/><path fill="#32BEDD" d="M4.61 7.4v5.8L9 10.3z"/><path fill="#198AB3" d="M13.38 7.4 9 10.3l4.38 2.9z"/><path fill="url(#a)" d="m8.99 10.3-4.38 2.89v.01h8.77v-.01z"/><path fill="#999" d="M1.07 1.43h1.29V5a.29.29 0 0 1-.29.29H.79A.29.29 0 0 1 .5 5V2a.57.57 0 0 1 .57-.57"/><path fill="#999" d="M1.07 1.43h1.29V5a.29.29 0 0 1-.29.29H.79A.29.29 0 0 1 .5 5V2a.57.57 0 0 1 .57-.57" opacity=".5"/><path fill="#999" d="M15.64 1.43h1.29a.57.57 0 0 1 .57.57v3a.29.29 0 0 1-.29.29h-1.29a.29.29 0 0 1-.28-.29z"/><path fill="#999" d="M15.64 1.43h1.29a.57.57 0 0 1 .57.57v3a.29.29 0 0 1-.29.29h-1.29a.29.29 0 0 1-.28-.29z" opacity=".5"/><path fill="#949494" d="M17.5 2v1.25H.5V2a.57.57 0 0 1 .57-.57h15.87a.57.57 0 0 1 .56.57"/><path fill="#999" d="M.79 12.68h1.29a.29.29 0 0 1 .29.29v3.6h-1.3A.57.57 0 0 1 .5 16v-3a.29.29 0 0 1 .29-.32"/><path fill="#999" d="M.79 12.68h1.29a.29.29 0 0 1 .29.29v3.6h-1.3A.57.57 0 0 1 .5 16v-3a.29.29 0 0 1 .29-.32" opacity=".5"/><path fill="#999" d="M15.92 12.68h1.29a.29.29 0 0 1 .29.29v3a.57.57 0 0 1-.57.57h-1.29V13a.29.29 0 0 1 .28-.32"/><path fill="#999" d="M15.92 12.68h1.29a.29.29 0 0 1 .29.29v3a.57.57 0 0 1-.57.57h-1.29V13a.29.29 0 0 1 .28-.32" opacity=".5"/><path fill="#949494" d="M.5 16v-1.25h17V16a.57.57 0 0 1-.57.57H1.07A.57.57 0 0 1 .5 16"/><defs><linearGradient id="a" x1="9" x2="9" y1="10.3" y2="13.2" gradientUnits="userSpaceOnUse"><stop stop-color="#005BA1"/><stop offset=".26" stop-color="#00589D"/><stop offset=".53" stop-color="#004F90"/><stop offset=".8" stop-color="#003F7C"/><stop offset="1" stop-color="#003067"/></linearGradient></defs></svg>