<svg xmlns="http://www.w3.org/2000/svg" width="18" height="18" fill="none"><g clip-path="url(#a)"><path fill="url(#b)" d="M0 0h18v18H0z"/><path fill="#fff" d="m9.967 7.433-.034.067c0-.033 0-.033.034-.067m-2.1-.833c-.2 0-2.1-.033-2.1.7 0 .033 0 .1.033.1 0 .033.033.033 0 .067l1.3 2.866v1.5c0 .134.067.234.2.234h.067c.31-.07.598-.22.833-.434l.167-.1c.066-.033.133-.133.1-.2v-1L9.9 7.467c0-.033.033-.033.033-.066a.17.17 0 0 0 .034-.1c0-.701-1.867-.701-2.1-.701m0 .467c.833 0 1.4.133 1.6.267-.2.1-.734.267-1.6.267s-1.4-.133-1.567-.267c.167-.134.7-.267 1.567-.267m.166 3.1v1.1l-.1.067q-.189.09-.366.2v-1.2a.12.12 0 0 0-.034-.1L6.5 7.933c.438.092.885.136 1.333.133q.674.007 1.334-.134zm4.2 3.066A5.57 5.57 0 0 1 9 14.267c-2.6 0-4.833-1.7-5.367-4.2a1.18 1.18 0 0 0 1.034-.834h1.2V8.8h-1.2a1.11 1.11 0 0 0-1.034-.867 5.53 5.53 0 0 1 6.7-4.033c.641.163 1.25.433 1.8.8l.267-.367a5.99 5.99 0 0 0-8.333 1.533 5.7 5.7 0 0 0-.933 2.167A1.1 1.1 0 0 0 2.6 9.466c.115.232.302.419.534.533A5.96 5.96 0 0 0 9 14.767a6.1 6.1 0 0 0 3.5-1.134zM3 9a.584.584 0 0 1 .533-.6H3.6A.6.6 0 1 1 3 9m11.4 1.067a1.066 1.066 0 1 0-.685-1.887 1.1 1.1 0 0 0-.382.62H12.1v-3h.633a1.074 1.074 0 1 0 .933-1.2 1.03 1.03 0 0 0-.9.833h-.9a.19.19 0 0 0-.233.134v3.2H9.8V9.2h1.833v3.133a.23.23 0 0 0 .143.217q.044.017.09.016h.767a1.073 1.073 0 1 0 .834-1.267 1.03 1.03 0 0 0-.834.834H12.1V9.2h1.233a1.04 1.04 0 0 0 1.067.867m0-1.667a.6.6 0 1 1 0 1.2.6.6 0 0 1 0-1.2m-.6-3.333a.6.6 0 1 1 0 1.2.62.62 0 0 1-.6-.6.597.597 0 0 1 .6-.6m-.133 6.7a.6.6 0 1 1 0 1.2.584.584 0 0 1-.6-.533v-.067a.2.2 0 0 1 .033-.133.544.544 0 0 1 .567-.467"/></g><defs><linearGradient id="b" x1="-17.677" x2="17.679" y1="35.677" y2=".321" gradientUnits="userSpaceOnUse"><stop stop-color="#B0084D"/><stop offset="1" stop-color="#FF4F8B"/></linearGradient><clipPath id="a"><path fill="#fff" d="M0 0h18v18H0z"/></clipPath></defs></svg>