<svg xmlns="http://www.w3.org/2000/svg" width="19" height="18" fill="none"><g clip-path="url(#a)"><path fill="url(#b)" d="M.5 0h18v18H.5z"/><path fill="#fff" d="M5.7 5.267a5.32 5.32 0 0 1 7.533 0 5.25 5.25 0 0 1 1.267 2l.433-.167A5.795 5.795 0 0 0 4 7.133l.467.167A4.9 4.9 0 0 1 5.7 5.267m7.533 7.467a5.29 5.29 0 0 1-7.533 0A5.6 5.6 0 0 1 4.4 10.7l-.433.166a5.776 5.776 0 0 0 7.366 3.567 6.7 6.7 0 0 0 2.234-1.367 5.7 5.7 0 0 0 1.366-2.2l-.433-.133a5.8 5.8 0 0 1-1.267 2M5.333 9a1.4 1.4 0 1 0-1.4 1.4A1.23 1.23 0 0 0 4.9 10c.27-.264.425-.623.433-1m-.766.633a.927.927 0 0 1-1.267 0 .867.867 0 0 1 0-1.267.886.886 0 0 1 1.267 0 .867.867 0 0 1 0 1.267M16.067 8a1.35 1.35 0 0 0-1.966 0 1.39 1.39 0 0 0 0 2 1.35 1.35 0 0 0 1.966 0c.566-.533.566-1.4 0-2M15.7 9.633a.896.896 0 0 1-1.267-1.266.9.9 0 0 1 1.267-.066.937.937 0 0 1 .067 1.3zm-8.2 1.7c1-1 3-1 3.967 0a.25.25 0 0 0 .166.067.227.227 0 0 0 .234-.233A.26.26 0 0 0 11.8 11a2.88 2.88 0 0 1-.7-2 2.94 2.94 0 0 1 .7-2 .236.236 0 1 0-.333-.333c-1 1-3 1-3.967 0A.236.236 0 0 0 7.167 7 2.76 2.76 0 0 1 7.9 9a2.81 2.81 0 0 1-.733 2 .24.24 0 0 0 0 .333.223.223 0 0 0 .333 0m.633-3.7a3.86 3.86 0 0 0 2.733 0 3.77 3.77 0 0 0 0 2.7 3.86 3.86 0 0 0-2.733 0 3.77 3.77 0 0 0 0-2.7M12.4 10l.833-.833a.222.222 0 0 0 0-.334L12.4 8l-.333.367.4.4H11.4v.466h1.067l-.4.4zm-5.767 0 .8-.833a.223.223 0 0 0 0-.334L6.633 8l-.366.367.4.4H5.6v.467h1.067l-.4.399z"/></g><defs><linearGradient id="b" x1="-19.15" x2="17.957" y1="34.796" y2="1.386" gradientUnits="userSpaceOnUse"><stop stop-color="#B0084D"/><stop offset="1" stop-color="#FF4F8B"/></linearGradient><clipPath id="a"><path fill="#fff" d="M.5 0h18v18H.5z"/></clipPath></defs></svg>