<svg xmlns="http://www.w3.org/2000/svg" width="36" height="24" viewBox="0 0 36 24">
  <g fill="none" fill-rule="evenodd">
    <path fill="#69707D" fill-rule="nonzero" d="M8,8 C8.55228,8 9,8.44772 9,9 L9,22 C9,22.5523 8.55228,23 8,23 L4,23 C3.44772,23 3,22.5523 3,22 L3,9 C3,8.44772 3.44772,8 4,8 L8,8 Z M24,1 C24.5523,1 25,1.44772 25,2 L25,22 C25,22.5523 24.5523,23 24,23 L20,23 C19.4477,23 19,22.5523 19,22 L19,2 C19,1.44772 19.4477,1 20,1 L24,1 Z"/>
    <path fill="#54B399" fill-rule="nonzero" d="M16,12 C16.5523,12 17,12.4477 17,13 L17,22 C17,22.5523 16.5523,23 16,23 L12,23 C11.4477,23 11,22.5523 11,22 L11,13 C11,12.4477 11.4477,12 12,12 L16,12 Z M32,5 C32.5523,5 33,5.44772 33,6 L33,22 C33,22.5523 32.5523,23 32,23 L28,23 C27.4477,23 27,22.5523 27,22 L27,6 C27,5.44772 27.4477,5 28,5 L32,5 Z"/>
  </g>
</svg>
