<svg xmlns="http://www.w3.org/2000/svg" width="36" height="24" viewBox="0 0 36 24">
  <g fill="none" fill-rule="evenodd">
    <path fill="#69707D" fill-rule="nonzero" d="M26.4344877,17.4565047 C26.645018,18.0091467 26.8398529,18.4376454 27.0139445,18.7331648 L27.0872705,18.8516486 C27.125032,18.9094709 27.159269,18.9566974 27.1883422,18.9930202 C27.7077421,18.9539174 28.2572038,18.7447839 29.3175699,18.2223667 L29.5527864,18.1055728 C31.1982234,17.2828543 31.9525016,17 33,17 L33,19 C32.4926983,19 32.0123244,19.1457694 31.1102762,19.5709561 L29.9015457,20.1628004 C28.620241,20.7797847 27.9242633,21 27,21 L26.8258382,20.9949604 C25.574689,20.9192339 25.0213871,19.9585786 23.8322417,16.0017929 L25.9297735,16.0009939 C26.1091193,16.564215 26.2653634,17.0125534 26.4344877,17.4565047 Z M9,2 C10.2687578,2 10.9659083,2.68913749 12.4918637,4.93898384 L13.265899,6.08501911 L13.5378436,6.47209062 L13.7986997,6.82959667 C14.4170887,7.6577293 14.7864833,8 15,8 C15.4664942,8 15.9666768,7.74780319 16.9905447,7.00290285 L17.8811862,6.34398766 L18.3387795,6.01914366 C19.4235519,5.27168078 20.0932283,5 21,5 C22.3766521,5 22.9249023,5.86257993 24.1679983,9.99900565 L22.0705386,10 C21.891062,9.43630516 21.7347347,8.98770414 21.5655123,8.54349533 C21.3249062,7.91190445 21.1048003,7.44245987 20.9127295,7.1483514 L20.8617638,7.07355628 L20.8165496,7.01313294 C20.3652655,7.07768487 19.8294645,7.38913892 18.810379,8.14322338 L18.1188138,8.65601234 L17.6612205,8.98085634 C16.5764481,9.72831922 15.9067717,10 15,10 C13.7312422,10 13.0340917,9.31086251 11.5081363,7.06101616 L10.734101,5.91498089 L10.4621564,5.52790938 L10.2013003,5.17040333 C9.58291131,4.3422707 9.2135167,4 9,4 C8.70552018,4 8.11453538,4.65105416 6.9827601,6.32986537 L6.49186371,7.06101616 L6.16583621,7.53564558 C4.85949038,9.40917568 4.17477576,10 3,10 L3,8 C3.29447982,8 3.88546462,7.34894584 5.0172399,5.67013463 L5.50813629,4.93898384 L5.83416379,4.46435442 C7.14050962,2.59082432 7.82522424,2 9,2 Z"/>
    <path fill="#54B399" fill-rule="nonzero" d="M3,22 C4.12292953,22 4.85242764,21.5230595 6.29512871,20.1146533 L7.05279708,19.365471 L7.39778355,19.0352763 C8.20887781,18.2755754 8.64742016,18 9,18 C9.46649419,18 9.96667676,18.2521968 10.9905447,18.9970972 L11.8811862,19.6560123 L12.3387795,19.9808563 C13.4235519,20.7283192 14.0932283,21 15,21 C16.3246632,21 16.9957891,20.227811 18.5460212,17.5561347 L19.1387229,16.5278934 L19.5237801,15.8818271 C20.3284171,14.5614459 20.7963671,14 21,14 L27,14 C28.3328787,14 28.9781636,13.205228 30.4516519,10.3241353 L31.1438791,8.95355008 L31.5024143,8.26452693 C32.3332975,6.69934793 32.8305201,6 33,6 L33,4 C31.6671213,4 31.0218364,4.79477202 29.5483481,7.67586473 L28.8561209,9.04644992 L28.4975857,9.73547307 C27.6667025,11.3006521 27.1694799,12 27,12 L21,12 C19.6753368,12 19.0042109,12.772189 17.4539788,15.4438653 L16.8612771,16.4721066 L16.4762199,17.1181729 C15.6715829,18.4385541 15.2036329,19 15,19 C14.5335058,19 14.0333232,18.7478032 13.0094553,18.0029028 L12.1188138,17.3439877 L11.6612205,17.0191437 C10.5764481,16.2716808 9.90677174,16 9,16 C7.87707047,16 7.14757236,16.4769405 5.70487129,17.8853467 L4.94720292,18.634529 L4.60221645,18.9647237 C3.79112219,19.7244246 3.35257984,20 3,20 L3,22 Z"/>
  </g>
</svg>
