<svg xmlns="http://www.w3.org/2000/svg" width="36" height="24" viewBox="0 0 36 24">
  <g fill="none" fill-rule="evenodd">
    <path fill="#69707D" fill-rule="nonzero" d="M22,17 L22,23 L5,23 C4.44771,23 4,22.5523 4,22 L4,18 C4,17.4477 4.44772,17 5,17 L22,17 Z M19,9 L19,15 L5.22222222,15 C4.54721333,15 4,14.5523 4,14 L4,10 C4,9.44772 4.54721333,9 5.22222222,9 L19,9 Z M20,1 L20,7 L5.04166667,7 C4.466375,7 4,6.55228 4,6 L4,2 C4,1.44772 4.466375,1 5.04166667,1 L20,1 Z"/>
    <path fill="#54B399" fill-rule="nonzero" d="M31,17 C31.5523,17 32,17.4477 32,18 L32,22 C32,22.5523 31.5523,23 31,23 L24,23 L24,17 L31,17 Z M23.7777778,9 C24.4528111,9 25,9.44772 25,10 L25,14 C25,14.5523 24.4528111,15 23.7777778,15 L21,15 L21,9 L23.7777778,9 Z M26.9583333,1 C27.5336458,1 28,1.44772 28,2 L28,6 C28,6.55228 27.5336458,7 26.9583333,7 L22,7 L22,1 L26.9583333,1 Z"/>
  </g>
</svg>
