<svg xmlns="http://www.w3.org/2000/svg" width="36" height="24" viewBox="0 0 36 24">
  <g fill="none" fill-rule="evenodd">
    <path fill="#54B399" fill-rule="nonzero" d="M27,17 L27.186529,16.9974776 L27.186529,16.9974776 L27.5306489,16.9780319 L27.5306489,16.9780319 L27.7970813,16.9480498 L27.7970813,16.9480498 L28.1314132,16.8902959 L28.1314132,16.8902959 L28.3240687,16.8467882 L28.3240687,16.8467882 L28.5741436,16.7795968 L28.5741436,16.7795968 L28.7972534,16.7101669 L28.7972534,16.7101669 L29.0118952,16.6357956 L29.0118952,16.6357956 L29.2206832,16.5573466 L29.2206832,16.5573466 L29.5257429,16.4328291 L29.5257429,16.4328291 C29.6917615,16.3625772 29.8659214,16.2847405 30.0504789,16.1988116 L30.3353955,16.0637856 L31.5366424,15.4755067 C31.9652048,15.2735009 32.2651595,15.1500775 32.5027091,15.079784 C32.6490036,15.0364082 32.7720846,15.0132176 32.8871051,15.0043333 L33,15 L33,22 C33,22.5522847 32.5522847,23 32,23 L4,23 C3.44771525,23 3,22.5522847 3,22 L3,20 C4,20 6.5,16 9,16 C11.5,16 14,19 15,19 C16,19 18.2304686,11.0056015 20.8652343,11.0028008 L22.032,11.001 L22.5729797,12.2063372 L22.8453722,12.8006363 L23.1353155,13.4131932 C23.6517923,14.4818141 24.0899456,15.2554854 24.5264765,15.8043369 C24.6066449,15.9049139 24.6868272,15.9982178 24.7674282,16.0843602 C24.8620797,16.185372 24.9556984,16.2752259 25.0500608,16.355767 L25.1925522,16.4698309 C25.4114165,16.6341602 25.6390246,16.7544067 25.8838085,16.8384272 C26.0902723,16.9092634 26.3087339,16.954332 26.5445339,16.9783817 L26.6855542,16.9901593 L26.6855542,16.9901593 L26.8388203,16.9975385 L27,17 Z M33,5 L33,11 L32.813471,11.0025224 L32.813471,11.0025224 L32.4693511,11.0219681 L32.4693511,11.0219681 L32.2029187,11.0519502 L32.2029187,11.0519502 L31.8715657,11.1090897 L31.8715657,11.1090897 L31.6759313,11.1532118 L31.6759313,11.1532118 L31.4258564,11.2204032 L31.4258564,11.2204032 L31.1218141,11.3168815 L31.1218141,11.3168815 L30.9881048,11.3642044 C30.8638886,11.4090134 30.7354373,11.4588632 30.6017511,11.5137699 L30.4742571,11.5671709 C30.3082385,11.6374228 30.1340786,11.7152595 29.9495211,11.8011884 L29.6646045,11.9362144 L28.4012468,12.5538016 L28.4012468,12.5538016 L28.0492427,12.712509 L28.0492427,12.712509 L27.8622668,12.7905874 L27.6054984,12.886256 L27.6054984,12.886256 L27.4284236,12.9397598 C27.3194005,12.758065 27.1915885,12.5277585 27.0479541,12.2534345 L26.8876454,11.9420304 L26.655,11.472 L26.6387264,11 L27,11 C28,11 30,5 33,5 Z"/>
    <path fill="#69707D" fill-rule="nonzero" d="M33,14 C32.4926983,14 32.0123244,14.1457694 31.1102762,14.5709561 L29.9015457,15.1628004 C28.620241,15.7797847 27.9242633,16 27,16 C25.6159171,16 24.996673,15.1346903 23.4839445,11.7938531 L22.8470575,10.3738187 L22.5009848,9.62538829 L22.2884925,9.18043954 C21.57063,7.69807401 21.1257654,7 21,7 C20.5335058,7 20.0333232,7.25219681 19.0094553,7.99709715 L18.1188138,8.65601234 L17.6612205,8.98085634 C16.5764481,9.72831922 15.9067717,10 15,10 C13.7312422,10 13.0340917,9.31086251 11.5081363,7.06101616 L10.734101,5.91498089 L10.4621564,5.52790938 L10.2013003,5.17040333 C9.58291131,4.3422707 9.2135167,4 9,4 C8.70552018,4 8.11453538,4.65105416 6.9827601,6.32986537 L6.49186371,7.06101616 L6.16583621,7.53564558 C4.85949038,9.40917568 4.17477576,10 3,10 L3,8 C3.29447982,8 3.88546462,7.34894584 5.0172399,5.67013463 L5.50813629,4.93898384 L5.83416379,4.46435442 C7.14050962,2.59082432 7.82522424,2 9,2 C10.2687578,2 10.9659083,2.68913749 12.4918637,4.93898384 L13.265899,6.08501911 L13.5378436,6.47209062 L13.7986997,6.82959667 C14.4170887,7.6577293 14.7864833,8 15,8 C15.4664942,8 15.9666768,7.74780319 16.9905447,7.00290285 L17.8811862,6.34398766 L18.3387795,6.01914366 C19.4235519,5.27168078 20.0932283,5 21,5 C22.3840829,5 23.003327,5.86530972 24.5160555,9.20614691 L25.1529425,10.6261813 L25.4990152,11.3746117 L25.7115075,11.8195605 C26.42937,13.301926 26.8742346,14 27,14 C27.5073017,14 27.9876756,13.8542306 28.8897238,13.4290439 L30.0984543,12.8371996 C31.379759,12.2202153 32.0757367,12 33,12 L33,14 Z"/>
    <path fill="#69707D" fill-rule="nonzero" d="M9,14 L9,21.8888889 C9,22.5025556 8.55228,23 8,23 L4,23 C3.44772,23 3,22.5025556 3,21.8888889 L3,14 C3,13.4477153 3.44771525,13 4,13 L8,13 C8.55228475,13 9,13.4477153 9,14 Z M17,13 L17,22 C17,22.5522847 16.5522847,23 16,23 L12,23 C11.4477153,23 11,22.5522847 11,22 L11,13 C11,12.4477153 11.4477153,12 12,12 L16,12 C16.5522847,12 17,12.4477153 17,13 Z M25,18 L25,22 C25,22.5522847 24.5522847,23 24,23 L20,23 C19.4477153,23 19,22.5522847 19,22 L19,18 C19,17.4477153 19.4477153,17 20,17 L24,17 C24.5522847,17 25,17.4477153 25,18 Z M33,20 L33,22 C33,22.5522847 32.5522847,23 32,23 L28,23 C27.4477153,23 27,22.5522847 27,22 L27,20 C27,19.4477153 27.4477153,19 28,19 L32,19 C32.5522847,19 33,19.4477153 33,20 Z"/>
  </g>
</svg>
