<svg width="16" height="16" viewBox="0 0 16 16" fill="none" xmlns="http://www.w3.org/2000/svg">
<path d="M12.732 15.36C11.8648 16.2016 10.908 16.0704 9.99604 15.6736C9.02645 15.2688 8.14005 15.2432 7.11605 15.6736C5.84085 16.224 5.16405 16.064 4.39605 15.36C0.0600642 10.896 0.700063 4.09598 5.62805 3.83998C6.82325 3.90398 7.66005 4.50078 8.36405 4.55038C9.41044 4.33758 10.412 3.72798 11.532 3.80798C12.8776 3.91678 13.884 4.44798 14.556 5.40318C11.788 7.06718 12.444 10.7152 14.9864 11.7392C14.4776 13.0752 13.8248 14.3952 12.7304 15.3712L12.732 15.36ZM8.26805 3.79198C8.13845 1.80799 9.74644 0.175991 11.596 0.0159912C11.8504 2.30399 9.51604 4.01598 8.26805 3.79198Z" fill="black"/>
</svg>
