<svg width="16" height="16" viewBox="0 0 16 16" fill="none" xmlns="http://www.w3.org/2000/svg">
<path d="M5.95038 12.3734C3.49039 13.0607 7.44711 14.4805 10.5795 13.1385C10.0664 12.939 9.69843 12.709 9.69843 12.709C8.30167 12.973 7.65373 12.9938 6.3858 12.8489C5.33935 12.7291 5.95038 12.3734 5.95038 12.3734ZM10.2045 11.0327C8.35307 11.3889 7.28368 11.3775 5.92923 11.2377C4.88189 11.1294 5.56751 10.6218 5.56751 10.6218C2.85822 11.5211 7.07578 12.5416 10.8624 11.434C10.4599 11.2922 10.2045 11.0327 10.2045 11.0327ZM11.6553 3.26828C11.6554 3.26828 6.17815 4.63581 8.794 7.65029C9.56615 8.53921 8.59148 9.3384 8.59148 9.3384C8.59148 9.3384 10.5512 8.32695 9.65138 7.05978C8.81067 5.87862 8.16619 5.29182 11.6553 3.26828ZM12.9368 13.6691C12.9368 13.6691 13.3892 14.0421 12.4385 14.3304C10.6309 14.878 4.91368 15.0431 3.32568 14.3523C2.75529 14.1039 3.82545 13.7595 4.16217 13.6868C4.51325 13.6108 4.71372 13.6247 4.71372 13.6247C4.07898 13.1777 0.610361 14.5027 2.9523 14.8827C9.33825 15.9179 14.593 14.4165 12.9368 13.6691ZM10.7421 9.78112C11.049 9.57168 11.473 9.3898 11.473 9.3898C11.473 9.3898 10.2651 9.60578 9.06164 9.70691C7.58836 9.83047 6.00806 9.85483 5.21477 9.74869C3.3367 9.49759 6.24442 8.80684 6.24442 8.80684C6.24442 8.80684 5.11491 8.73045 3.72649 9.4021C2.08428 10.1962 7.78858 10.5581 10.7421 9.78112ZM11.461 11.7224C11.4472 11.7595 11.401 11.8013 11.401 11.8013C15.4095 10.7476 13.9357 8.08687 12.0191 8.76031C11.8509 8.81979 11.7627 8.95809 11.7627 8.95809C11.7627 8.95809 11.869 8.91528 12.106 8.86581C13.0749 8.66393 14.4631 10.1628 11.461 11.7224ZM8.07352 8.77788C7.4821 7.44111 5.47663 6.27161 8.07441 4.22C11.3136 1.66324 9.65151 0 9.65151 0C10.3219 2.64149 7.2865 3.4394 6.19084 5.08443C5.44472 6.20535 6.55704 7.40983 8.07352 8.77788ZM11.5694 15.4108C9.11009 15.8738 6.07651 15.8198 4.27779 15.5229C4.27779 15.5229 4.64617 15.8279 6.53961 15.9498C9.42054 16.134 13.8457 15.8473 13.9503 14.484C13.9505 14.484 13.7491 15.0008 11.5694 15.4108Z" fill="#EA2D2E"/>
</svg>
