<svg xmlns="http://www.w3.org/2000/svg" width="32" height="32" viewBox="0 0 32 32">
  <g fill="none" transform="translate(9)">
    <path fill="#FFF" d="M7.84402797,31.8471608 L6.99748252,31.5578182 C6.99748252,31.5578182 7.10086713,27.2420699 5.55188811,26.9323636 C4.51960839,25.7344895 5.71748252,-23.8677483 9.43440559,26.766993 C9.43440559,26.766993 8.15395804,27.406993 7.92682517,28.5017063 C7.67888112,29.5756084 7.84402797,31.8471608 7.84402797,31.8471608 Z"/>
    <path fill="#A6A385" d="M7.84402797,31.8471608 L6.99748252,31.5578182 C6.99748252,31.5578182 7.10086713,27.2420699 5.55188811,26.9323636 C4.51960839,25.7344895 5.71748252,-23.8677483 9.43440559,26.766993 C9.43440559,26.766993 8.15395804,27.406993 7.92682517,28.5017063 C7.67888112,29.5756084 7.84402797,31.8471608 7.84402797,31.8471608 Z"/>
    <path fill="#FFF" d="M8.29851748,27.6757483 C8.29851748,27.6757483 15.7122238,22.8021259 13.9772867,12.6626014 C12.3047832,5.29074126 8.3605035,2.87462937 7.92682517,1.94528671 C7.45197203,1.28447552 6.99748252,0.128223776 6.99748252,0.128223776 L7.30741259,20.6337343 C7.30741259,20.6545455 6.66718881,26.9115524 8.29874126,27.675972"/>
    <path fill="#499D4A" d="M8.29851748,27.6757483 C8.29851748,27.6757483 15.7122238,22.8021259 13.9772867,12.6626014 C12.3047832,5.29074126 8.3605035,2.87462937 7.92682517,1.94528671 C7.45197203,1.28447552 6.99748252,0.128223776 6.99748252,0.128223776 L7.30741259,20.6337343 C7.30741259,20.6545455 6.66718881,26.9115524 8.29874126,27.675972"/>
    <path fill="#FFF" d="M6.56402797,27.9440559 C6.56402797,27.9440559 -0.395412587,23.1944056 0.0176783217,14.8312168 C0.409958042,6.4678042 5.32475524,2.35837762 6.27468531,1.61499301 C6.89432168,0.954181818 6.91490909,0.706237762 6.95630769,0.0454265734 C7.38998601,0.974769231 7.30741259,13.9432727 7.36917483,15.4712168 C7.55490909,21.3565315 7.03888112,26.8292028 6.56402797,27.9440559 Z"/>
    <path fill="#58AA50" d="M6.56402797,27.9440559 C6.56402797,27.9440559 -0.395412587,23.1944056 0.0176783217,14.8312168 C0.409958042,6.4678042 5.32475524,2.35837762 6.27468531,1.61499301 C6.89432168,0.954181818 6.91490909,0.706237762 6.95630769,0.0454265734 C7.38998601,0.974769231 7.30741259,13.9432727 7.36917483,15.4712168 C7.55490909,21.3565315 7.03888112,26.8292028 6.56402797,27.9440559 Z"/>
  </g>
</svg>
