<svg xmlns="http://www.w3.org/2000/svg" width="310" height="477" viewBox="0 0 310 477">
  <g fill="none" fill-rule="evenodd">
    <path fill="#18191E" fill-rule="nonzero" d="M-84.8192,429.362 C79.3093,429.362 212.362,296.309 212.362,132.181 C212.362,-31.9476 79.3093,-165 -84.8192,-165 C-248.948,-165 -382,-31.9476 -382,132.181 C-382,296.309 -248.948,429.362 -84.8192,429.362 Z"/>
    <path fill="#15161B" d="M191.765,208.683 L191.765,223.395 L177.053,223.395 L177.053,208.683 L191.765,208.683 Z M230.997,208.683 L230.997,223.395 L216.285,223.395 L216.285,208.683 L230.997,208.683 Z M152.533,208.683 L152.533,223.395 L137.821,223.395 L137.821,208.683 L152.533,208.683 Z M113.301,208.683 L113.301,223.395 L98.5893,223.395 L98.5893,208.683 L113.301,208.683 Z M75.0504,208.683 L75.0504,223.395 L60.3385,223.395 L60.3385,208.683 L75.0504,208.683 Z M34.8375,208.683 L34.8375,223.395 L20.1256,223.395 L20.1256,208.683 L34.8375,208.683 Z M230.997,169.451 L230.997,184.163 L216.285,184.163 L216.285,169.451 L230.997,169.451 Z M270.228,169.451 L270.228,184.163 L255.516,184.163 L255.516,169.451 L270.228,169.451 Z M191.765,169.451 L191.765,184.163 L177.053,184.163 L177.053,169.451 L191.765,169.451 Z M152.533,169.451 L152.533,184.163 L137.821,184.163 L137.821,169.451 L152.533,169.451 Z M114.282,169.451 L114.282,184.163 L99.5701,184.163 L99.5701,169.451 L114.282,169.451 Z M74.0697,169.451 L74.0697,184.163 L59.3578,184.163 L59.3578,169.451 L74.0697,169.451 Z M33.8568,169.451 L33.8568,184.163 L19.1449,184.163 L19.1449,169.451 L33.8568,169.451 Z M270.228,130.219 L270.228,144.931 L255.516,144.931 L255.516,130.219 L270.228,130.219 Z M309.46,130.219 L309.46,144.931 L294.748,144.931 L294.748,130.219 L309.46,130.219 Z M230.997,130.219 L230.997,144.931 L216.285,144.931 L216.285,130.219 L230.997,130.219 Z M191.765,130.219 L191.765,144.931 L177.053,144.931 L177.053,130.219 L191.765,130.219 Z M153.514,130.219 L153.514,144.931 L138.802,144.931 L138.802,130.219 L153.514,130.219 Z M113.301,130.219 L113.301,144.931 L98.5893,144.931 L98.5893,130.219 L113.301,130.219 Z M73.0889,130.219 L73.0889,144.931 L58.3769,144.931 L58.3769,130.219 L73.0889,130.219 Z M35.8184,130.219 L35.8184,144.931 L21.1064,144.931 L21.1064,130.219 L35.8184,130.219 Z"/>
    <path fill="#18191E" fill-rule="nonzero" d="M65.9081,430.908 C76.4523,420.364 93.5477,420.364 104.092,430.908 C114.636,441.452 114.636,458.548 104.092,469.092 C93.5477,479.636 76.4523,479.636 65.9081,469.092 C55.364,458.548 55.364,441.452 65.9081,430.908 Z M96.3137,438.686 C90.0653,432.438 79.9347,432.438 73.6863,438.686 C67.4379,444.935 67.4379,455.065 73.6863,461.314 C79.9347,467.562 90.0653,467.562 96.3137,461.314 C102.562,455.065 102.562,444.935 96.3137,438.686 Z"/>
    <path fill="#15161B" fill-rule="nonzero" d="M65.9082,430.908 C55.364,441.452 55.364,458.548 65.9082,469.092 L73.6864,461.314 C67.438,455.065 67.438,444.935 73.6864,438.686 L65.9082,430.908 Z"/>
  </g>
</svg>
