<?xml version="1.0" encoding="utf-8"?>
<!-- Generator: Adobe Illustrator 20.1.0, SVG Export Plug-In . SVG Version: 6.00 Build 0)  -->
<svg version="1.1" id="Layer_1" xmlns="http://www.w3.org/2000/svg" xmlns:xlink="http://www.w3.org/1999/xlink" x="0px" y="0px"
	 width="20px" height="20px" viewBox="0 0 20 20" style="enable-background:new 0 0 20 20;" xml:space="preserve" fill="white">>
<g>
	<path d="M20,14V6c0-0.3-0.2-0.6-0.4-0.8l-4.6-3c0,0,0-0.1,0-0.1c0-1.1-0.9-2-2-2s-2,0.9-2,2c0,1.1,0.9,2,2,2c0.3,0,0.6-0.1,0.9-0.2
		L18,6.5v6.2l-4-1v-1.5c0.6-0.3,1-1,1-1.7c0-1.1-0.9-2-2-2s-2,0.9-2,2c0,0.7,0.4,1.4,1,1.7v2.3c0,0.5,0.3,0.9,0.8,1l3.8,1l-2.7,1.8
		C13.6,16.1,13.3,16,13,16c-1.1,0-2,0.9-2,2c0,1.1,0.9,2,2,2s2-0.9,2-2c0,0,0-0.1,0-0.1l4.6-3c0,0,0,0,0,0c0,0,0,0,0.1-0.1
		c0.1,0,0.1-0.1,0.1-0.2c0,0,0,0,0.1-0.1C19.9,14.4,20,14.2,20,14z"/>
	<path d="M6.1,3.8C6.4,3.9,6.7,4,7,4c1.1,0,2-0.9,2-2c0-1.1-0.9-2-2-2S5,0.9,5,2c0,0,0,0.1,0,0.1l-4.6,3C0.2,5.4,0,5.7,0,6v8
		c0,0.1,0,0.2,0,0.3c0,0,0,0,0,0c0,0,0,0,0,0c0,0.1,0.1,0.1,0.1,0.2c0,0,0,0.1,0.1,0.1c0,0.1,0.1,0.1,0.2,0.2c0,0,0,0,0,0
		c0,0,0,0,0,0l4.6,3c0,0,0,0.1,0,0.1c0,1.1,0.9,2,2,2s2-0.9,2-2c0-1.1-0.9-2-2-2c-0.3,0-0.6,0.1-0.9,0.2l-2.9-1.9l4.1-1.4
		C7.7,12.8,8,12.4,8,12v-1.8c0.6-0.3,1-1,1-1.7c0-1.1-0.9-2-2-2s-2,0.9-2,2c0,0.7,0.4,1.4,1,1.7v1.1l-4,1.3V6.5L6.1,3.8z"/>
</g>
</svg>
