<svg width="88" height="88" viewBox="0 0 88 88" fill="none" xmlns="http://www.w3.org/2000/svg">
<mask id="mask0_50_1041" style="mask-type:luminance" maskUnits="userSpaceOnUse" x="0" y="6" width="88" height="76">
<path d="M87.2665 6.59998H0V81.6117H87.2665V6.59998Z" fill="white"/>
</mask>
<g mask="url(#mask0_50_1041)">
<path d="M72.5889 7.01123H13.0919C10.8331 7.01123 9.00208 8.84231 9.00208 11.101V66.1264C9.00208 68.3851 10.8331 70.2162 13.0919 70.2162H72.5889C74.8477 70.2162 76.6788 68.3851 76.6788 66.1264V11.101C76.6788 8.84231 74.8477 7.01123 72.5889 7.01123Z" fill="#153385" stroke="#101C3F" stroke-miterlimit="10"/>
<path d="M74.5566 6.96716H15.0596C12.8009 6.96716 10.9698 8.79824 10.9698 11.057V66.0823C10.9698 68.3411 12.8009 70.1722 15.0596 70.1722H74.5566C76.8153 70.1722 78.6464 68.3411 78.6464 66.0823V11.057C78.6464 8.79824 76.8153 6.96716 74.5566 6.96716Z" fill="#0B64DD"/>
<path d="M74.5566 6.96716H15.0596C12.8009 6.96716 10.9698 8.79824 10.9698 11.057V66.0823C10.9698 68.3411 12.8009 70.1722 15.0596 70.1722H74.5566C76.8153 70.1722 78.6464 68.3411 78.6464 66.0823V11.057C78.6464 8.79824 76.8153 6.96716 74.5566 6.96716Z" stroke="#101C3F" stroke-miterlimit="10"/>
<path d="M11.0214 18.3187H78.5144" stroke="#101C3F" stroke-miterlimit="10"/>
<path d="M25.9708 11.6885H18.129C17.3382 11.6885 16.6971 12.3295 16.6971 13.1203V13.3332C16.6971 14.124 17.3382 14.765 18.129 14.765H25.9708C26.7616 14.765 27.4026 14.124 27.4026 13.3332V13.1203C27.4026 12.3295 26.7616 11.6885 25.9708 11.6885Z" fill="white"/>
<path d="M81.4954 30.86H5.77133C2.7867 30.86 0.367188 33.2795 0.367188 36.2641V47.8654C0.367188 50.8501 2.7867 53.2696 5.77133 53.2696H81.4954C84.4801 53.2696 86.8993 50.8501 86.8993 47.8654V36.2641C86.8993 33.2795 84.4801 30.86 81.4954 30.86Z" fill="#153385" stroke="#101C3F" stroke-miterlimit="10"/>
<path d="M81.4954 28.4956H5.77133C2.7867 28.4956 0.367188 30.9152 0.367188 33.8998V45.5011C0.367188 48.4857 2.7867 50.9052 5.77133 50.9052H81.4954C84.4801 50.9052 86.8993 48.4857 86.8993 45.5011V33.8998C86.8993 30.9152 84.4801 28.4956 81.4954 28.4956Z" fill="white" stroke="#101C3F" stroke-miterlimit="10"/>
<path d="M39.1288 35.4417C44.9735 33.2904 50.3997 35.5885 53.3441 39.6858C44.533 32.5047 30.7877 40.978 32.146 51.9919C32.3663 53.7908 32.9978 55.4355 33.9303 56.8601C31.8964 55.1345 30.4645 52.616 30.1415 49.2825C29.5614 43.2616 33.5264 37.4976 39.1288 35.4344V35.4417Z" fill="#101C3F" stroke="#101C3F" stroke-miterlimit="10"/>
<path d="M26.0002 50.3839C27.1162 59.3712 35.7805 65.2233 44.5256 63.8282C58.9464 61.5373 66.4138 41.0955 52.4041 32.7323C40.2815 25.4925 24.3261 36.6606 26.0002 50.3839ZM51.736 37.5344C60.8554 45.4717 52.9549 60.0908 41.8455 59.8925C35.9861 59.7897 30.8977 55.487 30.1781 49.6056C28.8051 38.4375 42.9248 29.8614 51.736 37.527V37.5344Z" fill="#48EFCF" stroke="#101C3F" stroke-miterlimit="10"/>
<path d="M44.5256 63.8282C55.7377 62.0439 62.7352 49.3045 58.7261 39.7886C62.1405 44.4731 63.0876 50.9419 59.4898 57.1758C53.0724 68.2998 35.8393 69.269 29.8918 58.7765C33.4677 62.6754 38.9746 64.7093 44.5256 63.8282Z" fill="#153385" stroke="#101C3F" stroke-miterlimit="10"/>
<path d="M67.1241 80.6139L67.4611 80.3535C68.7637 79.3465 69.0036 77.4743 67.9968 76.1716L56.7982 61.6824C55.7914 60.3797 53.9192 60.1398 52.6165 61.1467L52.2795 61.4071C50.9769 62.414 50.737 64.2862 51.7439 65.5889L62.9424 80.0778C63.9492 81.3809 65.8215 81.6207 67.1241 80.6139Z" fill="#153385" stroke="#101C3F" stroke-miterlimit="10"/>
<path d="M68.0121 79.9307L68.349 79.6702C69.6517 78.6634 69.8915 76.7912 68.8847 75.4885L57.6861 60.9993C56.6794 59.6966 54.8072 59.4567 53.5045 60.4636L53.1675 60.724C51.8648 61.7308 51.625 63.6031 52.6318 64.9058L63.8303 79.395C64.8372 80.6975 66.7094 80.9373 68.0121 79.9307Z" fill="#48EFCF" stroke="#101C3F" stroke-miterlimit="10"/>
<path d="M9.00208 32.2844V47.2927" stroke="#101C3F" stroke-miterlimit="10"/>
</g>
</svg>
