<svg xmlns="http://www.w3.org/2000/svg" width="85" height="86" fill="none"><g filter="url(#a)"><g clip-path="url(#b)"><rect width="30" height="30" x="10" y="6" fill="#fff" rx="15"/><mask id="c" width="30" height="30" x="10" y="6" maskUnits="userSpaceOnUse" style="mask-type:luminance"><path fill="#fff" d="M10 21c0-8.284 6.716-15 15-15s15 6.716 15 15-6.716 15-15 15-15-6.716-15-15"/></mask><g mask="url(#c)"><path stroke="#F05529" stroke-dasharray="2 2" d="M25 35.5q-.48 0-.95-.03l-.032.498a15 15 0 0 1-1.945-.254l.097-.49a14 14 0 0 1-1.833-.49l-.16.474a15 15 0 0 1-1.813-.752l.222-.448a14.5 14.5 0 0 1-1.642-.95l-.278.416a15 15 0 0 1-1.556-1.196l.33-.376a15 15 0 0 1-1.342-1.342l-.376.33a15 15 0 0 1-1.195-1.556l.415-.278a14.5 14.5 0 0 1-.95-1.642l-.448.222a15 15 0 0 1-.752-1.813l.474-.16a14 14 0 0 1-.49-1.833l-.49.097a15 15 0 0 1-.254-1.945l.499-.032a15 15 0 0 1 0-1.9l-.5-.032q.065-.992.255-1.945l.49.097q.187-.94.49-1.833l-.474-.16a15 15 0 0 1 .752-1.813l.448.222q.423-.855.95-1.642l-.415-.278q.547-.819 1.195-1.556l.376.33q.627-.714 1.342-1.342l-.33-.376a15 15 0 0 1 1.556-1.195l.278.415a14.5 14.5 0 0 1 1.642-.95l-.222-.448q.877-.433 1.813-.752l.16.474a14 14 0 0 1 1.833-.49l-.097-.49a15 15 0 0 1 1.945-.254l.032.499a15 15 0 0 1 1.9 0l.032-.5q.992.065 1.945.255l-.097.49q.94.187 1.833.49l.16-.474q.937.318 1.813.752l-.222.448q.856.423 1.642.95l.278-.415a15 15 0 0 1 1.556 1.195l-.33.376q.715.627 1.342 1.342l.376-.33q.647.737 1.196 1.556l-.416.278q.527.787.95 1.642l.448-.222q.433.877.752 1.813l-.474.16q.303.892.49 1.833l.49-.097q.19.953.254 1.945l-.499.032a15 15 0 0 1 0 1.9l.5.032a15 15 0 0 1-.255 1.945l-.49-.097a14 14 0 0 1-.49 1.833l.474.16a15 15 0 0 1-.752 1.813l-.448-.222q-.424.856-.95 1.642l.416.278a15 15 0 0 1-1.196 1.556l-.376-.33q-.627.715-1.342 1.342l.33.376q-.737.647-1.556 1.196l-.278-.416q-.787.527-1.642.95l.222.448a15 15 0 0 1-1.813.752l-.16-.474q-.892.303-1.833.49l.097.49a15 15 0 0 1-1.945.254l-.032-.499q-.47.03-.95.031Z"/></g></g></g><g filter="url(#d)"><rect width="58" height="58" x="17" y="13" fill="#fff" rx="29"/><g clip-path="url(#e)"><path fill="#fff" d="M26.667 22.667h38.667v38.667H26.667z"/><path fill="#FA744E" fill-rule="evenodd" d="M37.542 31.135v-8.468h24.167v20.232c0 4.729-7.708 7.826-10.894 8.768V31.135z" clip-rule="evenodd"/><path fill="#00BFB3" fill-rule="evenodd" d="M30.292 46.921V34.75h16.917v26.583s-16.917-7.286-16.917-14.412" clip-rule="evenodd"/><path fill="#343741" fill-rule="evenodd" d="M37.542 34.75h9.667v16.917c-3.605-1.379-9.667-4.54-9.667-8.511z" clip-rule="evenodd"/></g></g><path fill="#07C" d="m48.655 21.007 3.755-8.298-3.094 2.063c-2.83-6.465-9.933-9.802-16.681-7.063 0 0 4.228-.353 8.367 2.608a10.4 10.4 0 0 1 3.597 4.731c.105.287.203.588.283.892l-3.629-.241z"/><defs><clipPath id="b"><rect width="30" height="30" x="10" y="6" fill="#fff" rx="15"/></clipPath><clipPath id="e"><path fill="#fff" d="M26.667 22.667h38.667v38.667H26.667z"/></clipPath><filter id="a" width="50" height="50" x="0" y=".5" color-interpolation-filters="sRGB" filterUnits="userSpaceOnUse"><feFlood flood-opacity="0" result="BackgroundImageFix"/><feColorMatrix in="SourceAlpha" result="hardAlpha" values="0 0 0 0 0 0 0 0 0 0 0 0 0 0 0 0 0 0 127 0"/><feOffset dy="4.5"/><feGaussianBlur stdDeviation="5"/><feColorMatrix values="0 0 0 0 0 0 0 0 0 0 0 0 0 0 0 0 0 0 0.05 0"/><feBlend in2="BackgroundImageFix" result="effect1_dropShadow_3001_187062"/><feColorMatrix in="SourceAlpha" result="hardAlpha" values="0 0 0 0 0 0 0 0 0 0 0 0 0 0 0 0 0 0 127 0"/><feOffset dy="1.9"/><feGaussianBlur stdDeviation="2"/><feColorMatrix values="0 0 0 0 0 0 0 0 0 0 0 0 0 0 0 0 0 0 0.05 0"/><feBlend in2="effect1_dropShadow_3001_187062" result="effect2_dropShadow_3001_187062"/><feColorMatrix in="SourceAlpha" result="hardAlpha" values="0 0 0 0 0 0 0 0 0 0 0 0 0 0 0 0 0 0 127 0"/><feOffset dy=".7"/><feGaussianBlur stdDeviation=".7"/><feColorMatrix values="0 0 0 0 0 0 0 0 0 0 0 0 0 0 0 0 0 0 0.07 0"/><feBlend in2="effect2_dropShadow_3001_187062" result="effect3_dropShadow_3001_187062"/><feBlend in="SourceGraphic" in2="effect3_dropShadow_3001_187062" result="shape"/></filter><filter id="d" width="78" height="78" x="7" y="7.5" color-interpolation-filters="sRGB" filterUnits="userSpaceOnUse"><feFlood flood-opacity="0" result="BackgroundImageFix"/><feColorMatrix in="SourceAlpha" result="hardAlpha" values="0 0 0 0 0 0 0 0 0 0 0 0 0 0 0 0 0 0 127 0"/><feOffset dy="4.5"/><feGaussianBlur stdDeviation="5"/><feColorMatrix values="0 0 0 0 0 0 0 0 0 0 0 0 0 0 0 0 0 0 0.05 0"/><feBlend in2="BackgroundImageFix" result="effect1_dropShadow_3001_187062"/><feColorMatrix in="SourceAlpha" result="hardAlpha" values="0 0 0 0 0 0 0 0 0 0 0 0 0 0 0 0 0 0 127 0"/><feOffset dy="1.9"/><feGaussianBlur stdDeviation="2"/><feColorMatrix values="0 0 0 0 0 0 0 0 0 0 0 0 0 0 0 0 0 0 0.05 0"/><feBlend in2="effect1_dropShadow_3001_187062" result="effect2_dropShadow_3001_187062"/><feColorMatrix in="SourceAlpha" result="hardAlpha" values="0 0 0 0 0 0 0 0 0 0 0 0 0 0 0 0 0 0 127 0"/><feOffset dy=".7"/><feGaussianBlur stdDeviation=".7"/><feColorMatrix values="0 0 0 0 0 0 0 0 0 0 0 0 0 0 0 0 0 0 0.07 0"/><feBlend in2="effect2_dropShadow_3001_187062" result="effect3_dropShadow_3001_187062"/><feBlend in="SourceGraphic" in2="effect3_dropShadow_3001_187062" result="shape"/></filter></defs></svg>