<svg width="78" height="80" viewBox="0 0 78 80" fill="none" xmlns="http://www.w3.org/2000/svg">
<g clip-path="url(#clip0_3393_148179)">
<mask id="mask0_3393_148179" style="mask-type:luminance" maskUnits="userSpaceOnUse" x="3" y="0" width="30" height="30">
<path d="M3 15C3 6.71572 9.71572 0 18 0C26.2843 0 33 6.71572 33 15C33 23.2843 26.2843 30 18 30C9.71572 30 3 23.2843 3 15Z" fill="white"/>
</mask>
<g mask="url(#mask0_3393_148179)">
<path d="M18 29.5C17.6808 29.5 17.3642 29.4897 17.0503 29.4694L17.018 29.9684C16.357 29.9257 15.7076 29.8401 15.0726 29.7145L15.1696 29.224C14.5434 29.1001 13.9317 28.9359 13.3373 28.7342L13.1766 29.2077C12.5531 28.996 11.9479 28.7445 11.3642 28.4561L11.5857 28.0078C11.0164 27.7265 10.4681 27.4089 9.94392 27.058L9.66576 27.4735C9.12079 27.1086 8.60106 26.709 8.10974 26.2778L8.43956 25.902C7.96379 25.4844 7.51557 25.0362 7.09799 24.5604L6.7222 24.8903C6.29099 24.3989 5.89137 23.8792 5.52652 23.3342L5.942 23.0561C5.59108 22.5319 5.27346 21.9836 4.99216 21.4143L4.54389 21.6358C4.2555 21.0521 4.00397 20.4469 3.79234 19.8234L4.26581 19.6627C4.0641 19.0683 3.89989 18.4566 3.776 17.8304L3.28551 17.9274C3.15989 17.2924 3.07435 16.643 3.03163 15.982L3.53059 15.9497C3.5103 15.6358 3.5 15.3192 3.5 15C3.5 14.6808 3.5103 14.3642 3.53059 14.0503L3.03163 14.018C3.07435 13.357 3.15989 12.7076 3.28551 12.0726L3.776 12.1696C3.89989 11.5434 4.0641 10.9317 4.26581 10.3373L3.79234 10.1766C4.00397 9.55307 4.2555 8.94792 4.54389 8.36423L4.99216 8.58571C5.27346 8.01637 5.59108 7.46809 5.942 6.94392L5.52652 6.66576C5.89137 6.12079 6.29099 5.60106 6.7222 5.10974L7.09799 5.43956C7.51556 4.96379 7.96378 4.51557 8.43956 4.09799L8.10974 3.7222C8.60105 3.29099 9.12079 2.89137 9.66576 2.52652L9.94392 2.942C10.4681 2.59108 11.0164 2.27346 11.5857 1.99216L11.3642 1.54389C11.9479 1.2555 12.5531 1.00397 13.1766 0.792339L13.3373 1.26581C13.9317 1.0641 14.5434 0.899892 15.1696 0.776005L15.0726 0.285511C15.7076 0.159891 16.357 0.0743492 17.018 0.0316296L17.0503 0.530589C17.3642 0.510304 17.6808 0.5 18 0.5C18.3192 0.5 18.6358 0.510304 18.9497 0.530589L18.982 0.0316296C19.643 0.074349 20.2924 0.159891 20.9274 0.28551L20.8304 0.776004C21.4566 0.899892 22.0683 1.0641 22.6627 1.26581L22.8234 0.792339C23.4469 1.00397 24.0521 1.2555 24.6358 1.54389L24.4143 1.99216C24.9836 2.27346 25.5319 2.59108 26.0561 2.942L26.3342 2.52652C26.8792 2.89137 27.3989 3.29099 27.8903 3.7222L27.5604 4.09799C28.0362 4.51556 28.4844 4.96378 28.902 5.43956L29.2778 5.10974C29.709 5.60105 30.1086 6.12079 30.4735 6.66576L30.058 6.94392C30.4089 7.46809 30.7265 8.01637 31.0078 8.58571L31.4561 8.36423C31.7445 8.94791 31.996 9.55307 32.2077 10.1766L31.7342 10.3373C31.9359 10.9317 32.1001 11.5434 32.224 12.1696L32.7145 12.0726C32.8401 12.7076 32.9257 13.357 32.9684 14.018L32.4694 14.0503C32.4897 14.3642 32.5 14.6808 32.5 15C32.5 15.3192 32.4897 15.6358 32.4694 15.9497L32.9684 15.982C32.9257 16.643 32.8401 17.2924 32.7145 17.9274L32.224 17.8304C32.1001 18.4566 31.9359 19.0683 31.7342 19.6627L32.2077 19.8234C31.996 20.4469 31.7445 21.0521 31.4561 21.6358L31.0078 21.4143C30.7265 21.9836 30.4089 22.5319 30.058 23.0561L30.4735 23.3342C30.1086 23.8792 29.709 24.3989 29.2778 24.8903L28.902 24.5604C28.4844 25.0362 28.0362 25.4844 27.5604 25.902L27.8903 26.2778C27.3989 26.709 26.8792 27.1086 26.3342 27.4735L26.0561 27.058C25.5319 27.4089 24.9836 27.7265 24.4143 28.0078L24.6358 28.4561C24.0521 28.7445 23.4469 28.996 22.8234 29.2077L22.6627 28.7342C22.0683 28.9359 21.4566 29.1001 20.8304 29.224L20.9274 29.7145C20.2924 29.8401 19.643 29.9257 18.982 29.9684L18.9497 29.4694C18.6358 29.4897 18.3192 29.5 18 29.5Z" stroke="#F05529" stroke-dasharray="2 2"/>
</g>
</g>
<g filter="url(#filter0_ddd_3393_148179)">
<rect x="10" y="7" width="58" height="58" rx="29" fill="white"/>
<g clip-path="url(#clip1_3393_148179)">
<rect width="38.6667" height="38.6667" transform="translate(19.667 16.6666)" fill="white"/>
<path fill-rule="evenodd" clip-rule="evenodd" d="M30.542 25.1348V16.6666H54.7087V36.8992C54.7087 41.6277 47.0015 44.7254 43.815 45.6666V25.1348H30.542Z" fill="#FA744E"/>
<path fill-rule="evenodd" clip-rule="evenodd" d="M23.292 40.9212V28.75H40.2087V55.3333C40.2087 55.3333 23.292 48.0472 23.292 40.9212Z" fill="#00BFB3"/>
<path fill-rule="evenodd" clip-rule="evenodd" d="M30.542 28.75H40.2087V45.6667C36.6036 44.288 30.542 41.1276 30.542 37.1558V28.75Z" fill="#343741"/>
</g>
</g>
<path d="M41.6545 15.0069L45.4102 6.70915L42.3157 8.77196C39.4869 2.30711 32.3832 -1.02953 25.6348 1.70871C25.6348 1.70871 29.8634 1.35599 34.0015 4.31742C35.6362 5.50997 36.8866 7.15436 37.599 9.04829C37.7044 9.33484 37.8015 9.63649 37.8821 9.93996L34.2531 9.69867L41.6545 15.0069Z" fill="#0077CC"/>
<defs>
<filter id="filter0_ddd_3393_148179" x="0" y="1.5" width="78" height="78" filterUnits="userSpaceOnUse" color-interpolation-filters="sRGB">
<feFlood flood-opacity="0" result="BackgroundImageFix"/>
<feColorMatrix in="SourceAlpha" type="matrix" values="0 0 0 0 0 0 0 0 0 0 0 0 0 0 0 0 0 0 127 0" result="hardAlpha"/>
<feOffset dy="4.5"/>
<feGaussianBlur stdDeviation="5"/>
<feColorMatrix type="matrix" values="0 0 0 0 0 0 0 0 0 0 0 0 0 0 0 0 0 0 0.05 0"/>
<feBlend mode="normal" in2="BackgroundImageFix" result="effect1_dropShadow_3393_148179"/>
<feColorMatrix in="SourceAlpha" type="matrix" values="0 0 0 0 0 0 0 0 0 0 0 0 0 0 0 0 0 0 127 0" result="hardAlpha"/>
<feOffset dy="1.9"/>
<feGaussianBlur stdDeviation="2"/>
<feColorMatrix type="matrix" values="0 0 0 0 0 0 0 0 0 0 0 0 0 0 0 0 0 0 0.05 0"/>
<feBlend mode="normal" in2="effect1_dropShadow_3393_148179" result="effect2_dropShadow_3393_148179"/>
<feColorMatrix in="SourceAlpha" type="matrix" values="0 0 0 0 0 0 0 0 0 0 0 0 0 0 0 0 0 0 127 0" result="hardAlpha"/>
<feOffset dy="0.7"/>
<feGaussianBlur stdDeviation="0.7"/>
<feColorMatrix type="matrix" values="0 0 0 0 0 0 0 0 0 0 0 0 0 0 0 0 0 0 0.07 0"/>
<feBlend mode="normal" in2="effect2_dropShadow_3393_148179" result="effect3_dropShadow_3393_148179"/>
<feBlend mode="normal" in="SourceGraphic" in2="effect3_dropShadow_3393_148179" result="shape"/>
</filter>
<clipPath id="clip0_3393_148179">
<rect width="30" height="30" fill="white" transform="translate(3)"/>
</clipPath>
<clipPath id="clip1_3393_148179">
<rect width="38.6667" height="38.6667" fill="white" transform="translate(19.667 16.6666)"/>
</clipPath>
</defs>
</svg>
