<svg xmlns="http://www.w3.org/2000/svg" width="32" height="32" viewBox="0 0 32 32" fill="none"><rect width="32" height="32" fill="white"/><path d="M29 26L24 21M29 26L24 31M29 26H8C5.23858 26 3 23.7614 3 21V21C3 18.2386 5.23858 16 8 16H13M9 6V4C9 3.44772 8.55228 3 8 3H4C3.44772 3 3 3.44772 3 4V8C3 8.55228 3.44772 9 4 9H8C8.55228 9 9 8.55228 9 8V6ZM9 6H24C26.7614 6 29 8.23858 29 11V11C29 13.7614 26.7614 16 24 16H19M13 16V14C13 13.4477 13.4477 13 14 13H18C18.5523 13 19 13.4477 19 14V16M13 16V18C13 18.5523 13.4477 19 14 19H18C18.5523 19 19 18.5523 19 18V16" stroke="black" stroke-width="2"/></svg>