<svg width="32" height="32" viewBox="0 0 32 32" fill="none" xmlns="http://www.w3.org/2000/svg">
<g clip-path="url(#clip0_224_212319)">
<path fill-rule="evenodd" clip-rule="evenodd" d="M2.54808 23.8299C2.21188 23.6595 2 23.3147 2 22.9378V10.0097C2 9.26398 2.78673 8.78062 3.45192 9.11761L14.1792 14.5521C14.5154 14.7225 14.7273 15.0673 14.7273 15.4442V28.3723C14.7273 29.118 13.9405 29.6014 13.2753 29.2644L2.54808 23.8299Z" fill="#00BFB3"/>
<path fill-rule="evenodd" clip-rule="evenodd" d="M29.4519 23.8299C29.7881 23.6595 30 23.3147 30 22.9378V10.0097C30 9.26398 29.2133 8.78062 28.5481 9.11761L17.8208 14.5521C17.4846 14.7225 17.2727 15.0673 17.2727 15.4442V28.3723C17.2727 29.118 18.0595 29.6014 18.7247 29.2644L29.4519 23.8299Z" fill="#343741"/>
<path fill-rule="evenodd" clip-rule="evenodd" d="M16.4519 12.3621C16.1678 12.506 15.8322 12.506 15.5481 12.3621L5.33403 7.18758C4.60326 6.81737 4.60326 5.77368 5.33403 5.40347L15.5481 0.228945C15.8322 0.085021 16.1678 0.0850213 16.4519 0.228946L26.666 5.40347C27.3968 5.77368 27.3967 6.81737 26.666 7.18758L16.4519 12.3621Z" fill="#1BA9F5"/>
<path d="M20.5714 18.2857H32V26.3067C32 27.7117 31.2628 29.0137 30.058 29.7366L26.2857 32L22.5134 29.7366C21.3086 29.0137 20.5714 27.7117 20.5714 26.3067V18.2857Z" fill="#FA744E"/>
</g>
<defs>
<clipPath id="clip0_224_212319">
<rect width="32" height="32" fill="white"/>
</clipPath>
</defs>
</svg>
