<svg width="16" height="16" viewBox="0 0 16 16" fill="none" xmlns="http://www.w3.org/2000/svg">
<path d="M5.8885 6.00003C6.44472 5.9976 7.01513 6.15717 7.44744 6.51679C7.66896 6.69609 7.84791 6.92107 7.99986 7.16059C8.2733 6.71858 8.67273 6.34304 9.16526 6.16201C9.76544 5.93669 10.4438 5.95226 11.043 6.17309C11.5663 6.36415 12.0239 6.69712 12.4389 7.06332C12.7636 7.34992 13.064 7.66351 13.3984 7.93937C13.5746 8.08232 13.7639 8.21627 13.9806 8.29034C14.2685 8.38864 14.6091 8.29588 14.8151 8.07401C15.0058 7.86634 14.994 7.5074 14.7839 7.31773C14.6503 7.20247 14.4219 7.22566 14.3274 7.37934C14.2446 7.50117 14.291 7.65312 14.3558 7.77115C14.1837 7.64551 14.0114 7.47037 14.0121 7.24193C13.9764 6.97783 14.1723 6.74489 14.407 6.65247C14.8649 6.46937 15.4391 6.62721 15.7281 7.03044C16.0061 7.40668 16.0282 7.90129 15.9798 8.34953C15.9213 8.77526 15.6831 9.17261 15.3301 9.41906C14.8344 9.7728 14.2062 9.88252 13.6085 9.8749C13.0339 9.85933 12.4652 9.72953 11.9329 9.51493C11.0426 9.15704 10.2095 8.66243 9.29021 8.37653C8.98528 8.25815 8.66096 8.19412 8.33491 8.17439C8.07532 8.17266 7.82922 8.16054 7.58416 8.17716C7.28511 8.20589 6.98779 8.26715 6.70778 8.37687C5.77289 8.66762 4.92731 9.17469 4.02011 9.53328C3.25414 9.83129 2.40544 9.96974 1.59239 9.80429C1.13758 9.71222 0.684853 9.51112 0.37784 9.15288C0.115131 8.84829 -0.0108587 8.44056 0.00160182 8.04113C-0.0129354 7.6642 0.0697885 7.26373 0.318999 6.97022C0.550902 6.69193 0.924371 6.55071 1.28296 6.58186C1.51382 6.59259 1.7478 6.69332 1.89041 6.87919C2.00255 7.02629 2.00947 7.22773 1.96032 7.39976C1.90044 7.55448 1.77688 7.67527 1.64258 7.76804C1.71111 7.65243 1.75265 7.49979 1.67166 7.37899C1.57197 7.21804 1.32657 7.20178 1.19677 7.334C1.03686 7.4984 1.00329 7.767 1.11059 7.96844C1.22688 8.17958 1.46744 8.30003 1.70038 8.32461C2.05274 8.35507 2.35837 8.13666 2.61692 7.92483C3.15203 7.46414 3.63384 6.93699 4.22744 6.54725C4.71686 6.21912 5.29351 5.99726 5.8885 6.00003Z" fill="#423426"/>
</svg>
