<svg width="92" height="106" viewBox="0 0 92 106" fill="none" xmlns="http://www.w3.org/2000/svg">
<mask id="mask0_3003_6144" style="mask-type:luminance" maskUnits="userSpaceOnUse" x="0" y="0" width="92" height="106">
<path d="M91.9999 0.505127H0V105.495H91.9999V0.505127Z" fill="white"/>
</mask>
<g mask="url(#mask0_3003_6144)">
<path d="M83.3435 1.06561H6.07473C2.99616 1.06561 0.500488 3.56129 0.500488 6.63986V78.0642C0.500488 81.1427 2.99616 83.6384 6.07473 83.6384H83.3435C86.4221 83.6384 88.9178 81.1427 88.9178 78.0642V6.63986C88.9178 3.56129 86.4221 1.06561 83.3435 1.06561Z" fill="#153385" stroke="#101C3F" stroke-miterlimit="10"/>
<path d="M85.9156 1.00551H8.64676C5.56819 1.00551 3.07251 3.50118 3.07251 6.57975V78.0041C3.07251 81.0826 5.56819 83.5783 8.64676 83.5783H85.9156C88.9941 83.5783 91.4898 81.0826 91.4898 78.0041V6.57975C91.4898 3.50118 88.9941 1.00551 85.9156 1.00551Z" fill="#0B64DD"/>
<path d="M85.9156 1.00551H8.64676C5.56819 1.00551 3.07251 3.50118 3.07251 6.57975V78.0041C3.07251 81.0826 5.56819 83.5783 8.64676 83.5783H85.9156C88.9941 83.5783 91.4898 81.0826 91.4898 78.0041V6.57975C91.4898 3.50118 88.9941 1.00551 85.9156 1.00551Z" stroke="#101C3F" stroke-miterlimit="10"/>
<path d="M41.0714 104.995V41.6065L31.2739 41.6365L46.9158 28.1162H48.7272V30.0577L60.6462 41.1261H51.4993V104.995H41.0714Z" fill="#153385"/>
<path d="M48.2268 28.6166V30.2778L48.547 30.5781L59.3653 40.6357H50.9988V104.504H41.5717V41.1161H40.571L32.6249 41.1461L47.1059 28.6366H48.2268M49.2275 27.6158H46.7357L29.9229 42.1369L40.571 42.1068V105.495H51.9997V41.6265H61.9172L49.2275 29.8375V27.6158Z" fill="#101C3F"/>
<path d="M43.0729 41.6264V104.974H54.5016V41.6264H64.4191L49.2176 28.2762L33.5957 41.6264H43.0729Z" fill="#48EFCF" stroke="#101C3F" stroke-miterlimit="10"/>
<path d="M19.3648 94.1063V56.5077L11.9392 56.5377L23.8282 46.2599H25.0892V47.701L34.1661 56.1374H27.2408V94.1063H19.3648Z" fill="#153385"/>
<path d="M24.5888 46.7603V47.9211L24.909 48.2214L32.8951 55.647H26.7404V93.6059H19.8652V56.0173H18.8644L13.2902 56.0373L24.0184 46.7703H24.5888M25.5896 45.7595H23.6481L10.5881 57.0381L18.8644 57.0081V94.5967H27.7412V56.6378H35.4471L25.5896 47.4808V45.7595Z" fill="#101C3F"/>
<path d="M20.806 56.6378V94.2064H29.6828V56.6378H37.3786L25.5797 46.2699L13.4404 56.6378H20.806Z" fill="#48EFCF" stroke="#101C3F" stroke-miterlimit="10"/>
<path d="M65.9604 94.1063V56.5077L58.5347 56.5377L70.4338 46.2599H71.6847V47.701L80.7716 56.1374H73.8364V94.1063H65.9604Z" fill="#153385"/>
<path d="M71.1842 46.7603V47.9211L71.5045 48.2214L79.4906 55.647H73.3359V93.6059H66.4607V56.0173H65.4599L59.8856 56.0373L70.6138 46.7703H71.1842M72.185 45.7595H70.2435L57.1836 57.0381L65.4599 57.0081V94.5967H74.3366V56.6378H82.0425L72.185 47.4808V45.7595Z" fill="#101C3F"/>
<path d="M67.4015 56.6378V94.2064H76.2782V56.6378H83.9841L72.1851 46.2699L60.0359 56.6378H67.4015Z" fill="#48EFCF" stroke="#101C3F" stroke-miterlimit="10"/>
<path d="M17.8637 9.17163L10.6382 16.3771L17.6435 23.3824" stroke="#F5F7FA" stroke-width="2" stroke-miterlimit="10"/>
<path d="M31.9944 23.3824L39.1999 16.1769L32.1946 9.17163" stroke="#F5F7FA" stroke-width="2" stroke-miterlimit="10"/>
<path d="M29.6528 11.5435L20.1956 21.0007" stroke="#F5F7FA" stroke-width="2" stroke-miterlimit="10"/>
</g>
</svg>
