<svg xmlns="http://www.w3.org/2000/svg" width="128" height="128" fill="none"><g fill="#00ACD7" clip-path="url(#a)"><path fill-rule="evenodd" d="M9.66 54.392c-.25 0-.311-.126-.187-.312l1.31-1.683c.123-.187.435-.312.684-.312h22.25c.25 0 .311.187.187.374l-1.06 1.621c-.124.186-.436.373-.623.373zM.25 60.124c-.25 0-.312-.123-.188-.311l1.31-1.683c.124-.187.435-.311.685-.311h28.418c.25 0 .375.187.312.374l-.499 1.495c-.061.25-.311.375-.56.375zm15.08 5.734c-.248 0-.31-.187-.186-.374l.872-1.558c.126-.187.375-.373.625-.373h12.463c.25 0 .374.186.374.436l-.123 1.495c0 .25-.25.437-.438.437zM80.021 53.27c-3.927.997-6.607 1.745-10.47 2.741-.936.25-.997.312-1.808-.623-.934-1.06-1.62-1.745-2.928-2.368-3.927-1.931-7.73-1.37-11.28.936-4.239 2.741-6.42 6.792-6.358 11.84.062 4.986 3.49 9.099 8.414 9.785 4.237.56 7.79-.936 10.594-4.113.56-.686 1.06-1.434 1.683-2.307H55.84c-1.308 0-1.62-.81-1.184-1.87.81-1.931 2.306-5.172 3.178-6.792.188-.375.624-.998 1.558-.998h22.685c-.123 1.684-.123 3.366-.373 5.05-.686 4.486-2.369 8.599-5.111 12.213-4.488 5.922-10.345 9.598-17.762 10.595-6.107.81-11.778-.374-16.764-4.113-4.611-3.49-7.229-8.102-7.914-13.835-.81-6.793 1.183-12.901 5.296-18.26 4.425-5.796 10.284-9.473 17.45-10.782 5.859-1.06 11.467-.374 16.515 3.054 3.303 2.18 5.671 5.172 7.23 8.786.374.562.125.874-.624 1.06z" clip-rule="evenodd"/><path d="M100.649 87.733c-5.67-.125-10.844-1.745-15.206-5.485-3.677-3.177-5.983-7.229-6.73-12.028-1.122-7.042.809-13.274 5.047-18.82 4.55-5.983 10.034-9.1 17.451-10.408 6.356-1.121 12.339-.498 17.761 3.178 4.923 3.366 7.976 7.915 8.787 13.898 1.059 8.413-1.371 15.27-7.168 21.127-4.113 4.175-9.161 6.793-14.956 7.977-1.683.312-3.366.374-4.986.561m14.833-25.178c-.062-.81-.062-1.433-.187-2.056-1.121-6.17-6.794-9.66-12.713-8.288-5.797 1.308-9.536 4.985-10.907 10.843-1.122 4.86 1.247 9.784 5.733 11.778 3.428 1.496 6.856 1.31 10.159-.373 4.923-2.555 7.603-6.544 7.915-11.904"/></g><defs><clipPath id="a"><path fill="#fff" d="M0 0h128v128H0z"/></clipPath></defs></svg>