<svg xmlns="http://www.w3.org/2000/svg" width="128" height="128" fill="none"><g clip-path="url(#a)"><path fill="#EA2D2E" d="M47.603 98.987c-19.68 5.498 11.974 16.857 37.033 6.121-4.105-1.596-7.049-3.436-7.049-3.436-11.174 2.112-16.357 2.278-26.5 1.119-8.372-.958-3.484-3.804-3.484-3.804m34.033-10.726c-14.811 2.85-23.366 2.759-34.202 1.64-8.379-.866-2.894-4.926-2.894-4.926-21.674 7.194 12.066 15.358 42.36 6.497-3.22-1.134-5.264-3.21-5.264-3.21m11.607-62.115s-43.818 10.94-22.891 35.056c6.177 7.112-1.62 13.505-1.62 13.505s15.677-8.091 8.48-18.229c-6.727-9.449-11.883-14.143 16.03-30.332m10.252 83.207s3.618 2.984-3.987 5.29c-14.46 4.381-60.199 5.702-72.903.176-4.563-1.988 3.999-4.743 6.692-5.324 2.809-.608 4.413-.498 4.413-.498-5.078-3.575-32.827 7.024-14.092 10.065 51.088 8.281 93.126-3.73 79.877-9.709M85.936 78.249c2.456-1.675 5.848-3.13 5.848-3.13s-9.663 1.727-19.29 2.536c-11.787.989-24.43 1.184-30.776.335-15.024-2.01 8.237-7.535 8.237-7.535s-9.036-.611-20.143 4.762c-13.138 6.352 32.497 9.248 56.124 3.032m5.752 15.53c-.11.297-.48.632-.48.632 32.068-8.43 20.278-29.716 4.945-24.328-1.346.475-2.051 1.582-2.051 1.582s.85-.343 2.746-.739c7.751-1.615 18.856 10.377-5.16 22.853m-27.1-23.556c-4.731-10.694-20.775-20.05.007-36.463C90.51 13.306 77.212 0 77.212 0c5.363 21.132-18.92 27.515-27.685 40.676-5.97 8.967 2.93 18.603 15.061 29.547m27.968 53.064c-19.675 3.703-43.944 3.272-58.334.896 0 0 2.947 2.44 18.095 3.416 23.047 1.473 58.449-.821 59.286-11.727.001 0-1.61 4.134-19.047 7.415"/></g><defs><clipPath id="a"><path fill="#fff" d="M0 0h128v128H0z"/></clipPath></defs></svg>