<svg width="119" height="103" viewBox="0 0 119 103" fill="none" xmlns="http://www.w3.org/2000/svg">
<mask id="mask0_825_5618" style="mask-type:luminance" maskUnits="userSpaceOnUse" x="0" y="0" width="119" height="103">
<path d="M119 0H0V102.289H119V0Z" fill="white"/>
</mask>
<g mask="url(#mask0_825_5618)">
<path d="M98.9847 0.560669H17.8524C14.7723 0.560669 12.2754 3.0576 12.2754 6.1377V81.1723C12.2754 84.2524 14.7723 86.7493 17.8524 86.7493H98.9847C102.065 86.7493 104.562 84.2524 104.562 81.1723V6.1377C104.562 3.0576 102.065 0.560669 98.9847 0.560669Z" fill="#153385" stroke="#101C3F" stroke-miterlimit="10"/>
<path d="M101.668 0.50061H20.5355C17.4554 0.50061 14.9585 2.99753 14.9585 6.07764V81.1122C14.9585 84.1924 17.4554 86.6893 20.5355 86.6893H101.668C104.748 86.6893 107.245 84.1924 107.245 81.1122V6.07764C107.245 2.99753 104.748 0.50061 101.668 0.50061Z" fill="#0B64DD"/>
<path d="M101.668 0.50061H20.5355C17.4554 0.50061 14.9585 2.99753 14.9585 6.07764V81.1122C14.9585 84.1924 17.4554 86.6893 20.5355 86.6893H101.668C104.748 86.6893 107.245 84.1924 107.245 81.1122V6.07764C107.245 2.99753 104.748 0.50061 101.668 0.50061Z" stroke="#101C3F" stroke-miterlimit="10"/>
<path d="M15.0288 15.9801H107.065" stroke="#101C3F" stroke-miterlimit="10"/>
<path d="M35.4145 6.93872H24.7211C23.6427 6.93872 22.7686 7.81287 22.7686 8.89118V9.18155C22.7686 10.2599 23.6427 11.134 24.7211 11.134H35.4145C36.4928 11.134 37.367 10.2599 37.367 9.18155V8.89118C37.367 7.81287 36.4928 6.93872 35.4145 6.93872Z" fill="white"/>
<path d="M111.13 33.0817H7.86978C3.79983 33.0817 0.500488 36.3811 0.500488 40.451V56.2709C0.500488 60.3409 3.79983 63.6402 7.86978 63.6402H111.13C115.2 63.6402 118.499 60.3409 118.499 56.2709V40.451C118.499 36.3811 115.2 33.0817 111.13 33.0817Z" fill="#153385" stroke="#101C3F" stroke-miterlimit="10"/>
<path d="M111.13 29.8575H7.86978C3.79983 29.8575 0.500488 33.1569 0.500488 37.2268V53.0468C0.500488 57.1167 3.79983 60.4161 7.86978 60.4161H111.13C115.2 60.4161 118.499 57.1167 118.499 53.0468V37.2268C118.499 33.1569 115.2 29.8575 111.13 29.8575Z" fill="white" stroke="#101C3F" stroke-miterlimit="10"/>
<path d="M53.3571 39.3296C61.3272 36.3959 68.7265 39.5298 72.7416 45.1169C60.7264 35.3245 41.9828 46.8791 43.8351 61.898C44.1355 64.3511 44.9966 66.5939 46.2682 68.5364C43.4947 66.1834 41.5422 62.7491 41.1017 58.2034C40.3107 49.993 45.7175 42.1331 53.3571 39.3196V39.3296Z" fill="#101C3F" stroke="#101C3F" stroke-miterlimit="10"/>
<path d="M35.4544 59.7053C36.9763 71.9607 48.7912 79.9408 60.7163 78.0384C80.3811 74.9144 90.5639 47.0393 71.4598 35.6349C54.929 25.7625 33.1716 40.9917 35.4544 59.7053ZM70.5487 42.1832C82.9843 53.0068 72.2108 72.942 57.0617 72.6716C49.0716 72.5314 42.1328 66.664 41.1516 58.6439C39.2793 43.4147 58.5335 31.72 70.5487 42.1732V42.1832Z" fill="#48EFCF" stroke="#101C3F" stroke-miterlimit="10"/>
<path d="M60.7163 78.0384C76.0056 75.6053 85.5476 58.2334 80.0807 45.2571C84.7366 51.6451 86.0282 60.4662 81.122 68.9669C72.371 84.1361 48.8714 85.4577 40.7612 71.1497C45.6373 76.4664 53.1468 79.2399 60.7163 78.0384Z" fill="#153385" stroke="#101C3F" stroke-miterlimit="10"/>
<path d="M91.5329 100.928L91.9924 100.573C93.7688 99.1998 94.0959 96.6468 92.7229 94.8704L77.4522 75.1124C76.0792 73.336 73.5262 73.0089 71.7498 74.3819L71.2903 74.737C69.514 76.11 69.1869 78.663 70.5599 80.4394L85.8306 100.197C87.2035 101.974 89.7566 102.301 91.5329 100.928Z" fill="#153385" stroke="#101C3F" stroke-miterlimit="10"/>
<path d="M92.7434 99.9964L93.2029 99.6412C94.9793 98.2683 95.3063 95.7153 93.9334 93.9389L78.6626 74.1809C77.2897 72.4045 74.7367 72.0774 72.9603 73.4504L72.5008 73.8055C70.7244 75.1784 70.3974 77.7315 71.7703 79.5079L87.041 99.2659C88.414 101.042 90.967 101.369 92.7434 99.9964Z" fill="#48EFCF" stroke="#101C3F" stroke-miterlimit="10"/>
<path d="M12.2754 35.0242V55.49" stroke="#101C3F" stroke-miterlimit="10"/>
</g>
</svg>
