<svg width="120" height="120" viewBox="0 0 120 120" fill="none" xmlns="http://www.w3.org/2000/svg">
<g clip-path="url(#clip0_6738_5446)">
<mask id="mask0_6738_5446" style="mask-type:luminance" maskUnits="userSpaceOnUse" x="10" y="7" width="100" height="105">
<path d="M109.806 7H10V112H109.806V7Z" fill="white"/>
</mask>
<g mask="url(#mask0_6738_5446)">
<path d="M51.6107 12.7676C51.1084 12.7676 50.6262 12.9384 50.2344 13.2598C49.8527 13.5813 49.5915 14.0334 49.5111 14.5256L47.5722 27.2136L47.3814 27.2739L46.7786 27.5049L46.4873 27.6054L45.985 27.8063L45.5831 27.967L45.1913 28.1378L44.6991 28.3588L44.4178 28.4794L43.8251 28.7506L43.6543 28.831L31.6293 18.8252C31.2275 18.5339 30.7353 18.3933 30.243 18.4335C29.7508 18.4736 29.2786 18.6846 28.927 19.0262L17.0728 29.5442C16.7313 29.8959 16.5203 30.358 16.4801 30.8502C16.4399 31.3425 16.5806 31.8347 16.8619 32.2366L26.5461 45.9794C26.526 46.0397 26.4959 46.0999 26.4657 46.1602C26.3854 46.3611 26.2849 46.562 26.1945 46.7429L26.0639 47.0242L25.8429 47.5264L25.6822 47.9182C25.6219 48.0589 25.5717 48.1794 25.5114 48.3201C25.4611 48.4607 25.3908 48.6516 25.3105 48.8224C25.2401 48.9932 25.2401 49.0132 25.21 49.1137L24.989 49.7165L24.9287 49.9073L12.2307 51.7859C11.7384 51.8663 11.2864 52.1174 10.9649 52.5092C10.6434 52.901 10.4727 53.3832 10.4727 53.8855V70.0796C10.4727 70.5818 10.6434 71.0641 10.9649 71.4558C11.2864 71.8376 11.7384 72.0988 12.2307 72.1791L24.9287 74.118L24.989 74.3089L25.21 74.9217L25.3105 75.203C25.3808 75.3738 25.4511 75.5345 25.5114 75.7053C25.5717 75.876 25.6118 75.9665 25.6822 76.1071L25.8429 76.4989L27.179 75.8459L27.5808 76.7099C26.7839 77.3461 26.4122 77.7312 26.4657 77.8651C26.4959 77.9254 24.3159 75.7354 24.336 75.7957L16.7413 86.143C16.45 86.5448 16.3194 87.0371 16.3596 87.5293C16.3997 88.0216 16.6107 88.4837 16.9523 88.8353L30.6047 102.588C30.9563 102.94 31.4184 103.151 31.9207 103.181C32.4129 103.221 32.9052 103.08 33.307 102.789L43.6543 95.1944L43.8251 95.2747L44.4178 95.546L44.6991 95.6665L45.1913 95.8875L45.5831 96.0583L45.985 96.219L46.4873 96.42L46.7786 96.5204L47.3814 96.7515L47.5722 96.8118L49.5111 109.5C49.5915 109.992 49.8426 110.444 50.2344 110.765C50.6161 111.087 51.1084 111.258 51.6107 111.258H59.7077V12.7676H51.6107Z" fill="#153385" stroke="#101C3F" stroke-miterlimit="10"/>
<path d="M51.6107 7.50391C51.1084 7.50391 50.6262 7.67469 50.2344 7.99616C49.8527 8.31763 49.5915 8.76969 49.5111 9.26194L47.5722 21.9499L47.3814 22.0102L46.7786 22.2413L46.4873 22.3417L45.985 22.5426L45.5831 22.7034L45.1913 22.8742L44.6991 23.0952L44.4178 23.2157L43.8251 23.487L43.6543 23.5673L33.307 15.9726C32.9052 15.6813 32.4129 15.5406 31.9207 15.5808C31.4284 15.621 30.9563 15.832 30.6047 16.1735L19.1624 27.6761C18.8208 28.0277 18.6099 28.4898 18.5697 28.9821C18.5295 29.4743 18.6701 29.9666 18.9514 30.3684L26.5461 40.7157C26.526 40.776 26.4959 40.8363 26.4657 40.8966C26.3854 41.0975 26.2849 41.2984 26.1945 41.4792L26.0639 41.7605L25.8429 42.2628L25.6822 42.6546C25.6219 42.7952 25.5717 42.9158 25.5114 43.0564C25.4611 43.1971 25.3908 43.3879 25.3105 43.5587C25.2401 43.7295 25.2401 43.7496 25.21 43.8501L24.989 44.4528L24.9287 44.6437L12.2307 46.5223C11.7384 46.6026 11.2864 46.8538 10.9649 47.2456C10.6434 47.6374 10.4727 48.1196 10.4727 48.6219V64.8159C10.4727 65.3182 10.6434 65.8004 10.9649 66.1922C11.2864 66.5739 11.7384 66.8351 12.2307 66.9155L24.9287 68.8544L24.989 69.0452L25.21 69.658L25.3105 69.9393C25.3808 70.1101 25.4511 70.2708 25.5114 70.4416C25.5717 70.6124 25.6118 70.7028 25.6822 70.8434L25.8429 71.2352L26.0639 71.7375L26.1945 72.0188C26.2849 72.2097 26.3854 72.4106 26.4657 72.6015C26.4959 72.6618 26.526 72.722 26.5461 72.7823L18.9514 83.1296C18.6601 83.5315 18.5295 84.0237 18.5697 84.516C18.6099 85.0082 18.8208 85.4703 19.1624 85.8219L30.6047 97.3245C30.9563 97.6761 31.4184 97.8871 31.9207 97.9172C32.4129 97.9574 32.9052 97.8168 33.307 97.5254L43.6543 89.9307L43.8251 90.0111L44.4178 90.2823L44.6991 90.4029L45.1913 90.6239L45.5831 90.7947L45.985 90.9554L46.4873 91.1563L46.7786 91.2568L47.3814 91.4878L47.5722 91.5481L49.5111 104.236C49.5915 104.728 49.8426 105.18 50.2344 105.502C50.6161 105.823 51.1084 105.994 51.6107 105.994H59.7077V7.50391H51.6107Z" fill="#0B64DD" stroke="#101C3F" stroke-miterlimit="10"/>
<path d="M31.9414 97.877V102.458" stroke="#101C3F" stroke-miterlimit="10"/>
<path d="M43.8359 89.9707V95.506" stroke="#101C3F" stroke-miterlimit="10"/>
<path d="M60.1094 111.218L67.3625 111.5C67.8648 111.5 68.347 111.329 68.7388 111.007C69.1206 110.686 69.3818 110.234 69.4621 109.742L71.401 97.0533L72.4357 96.7117L73.0385 96.4807L73.3298 96.3802L73.8321 96.1793L74.2339 96.0186L74.6257 95.8478L75.118 95.6268L75.3993 95.5062L75.992 95.235L76.1628 95.1546L86.5101 102.749C86.9119 103.041 87.4042 103.181 87.8964 103.141C88.3887 103.101 88.8608 102.89 89.2124 102.548L102.865 88.7956C103.206 88.4439 103.417 87.9818 103.457 87.4896C103.498 86.9973 103.357 86.5051 103.076 86.1032L95.4811 75.7559" stroke="#101C3F" stroke-miterlimit="10"/>
<path d="M95.2402 44.1102L102.755 32.5072C103.046 32.1053 103.177 31.6131 103.136 31.1208C103.096 30.6286 102.885 30.1665 102.544 29.8149L101.097 28.3281" stroke="#101C3F" stroke-miterlimit="10"/>
<path d="M94.7891 74.2774L94.8494 74.0865L107.547 72.1476C108.04 72.0672 108.492 71.8161 108.813 71.4243C109.135 71.0426 109.305 70.5503 109.305 70.048V65.3867" stroke="#101C3F" stroke-miterlimit="10"/>
<path d="M60.1094 105.953H68.2064C68.7087 105.953 69.1909 105.782 69.5827 105.461C69.9644 105.139 70.2256 104.687 70.306 104.195L72.2449 91.5071L72.4357 91.4469L73.0385 91.2158L73.3298 91.1154L73.8321 90.9144L74.2339 90.7537L74.6257 90.5829L75.118 90.3619L75.3993 90.2414L75.992 89.9701L76.1628 89.8897L86.5101 97.4845C86.9119 97.7758 87.4042 97.9164 87.8964 97.8763C88.3887 97.8361 88.8608 97.6251 89.2124 97.2835L100.655 85.781C100.996 85.4294 101.207 84.9672 101.247 84.475C101.288 83.9827 101.147 83.4905 100.866 83.0887L93.271 72.7414C93.2911 72.6811 93.3212 72.6208 93.3513 72.5605C93.4317 72.3596 93.5322 72.1587 93.6226 71.9779L93.7532 71.6966L93.9742 71.1943L94.1349 70.8025C94.1952 70.6618 94.2354 70.5714 94.3057 70.4007C94.366 70.2299 94.4263 70.0691 94.5066 69.8984L94.6071 69.6171L94.8281 69.0043L94.8884 68.8134L107.586 66.8745C108.079 66.7942 108.531 66.543 108.852 66.1512C109.174 65.7695 109.344 65.2772 109.344 64.7749V48.5809C109.344 48.0786 109.174 47.5964 108.852 47.2046C108.531 46.8128 108.079 46.5617 107.586 46.4813L94.8884 44.6027L94.8281 44.4118L94.6071 43.8091C94.5769 43.7086 94.5769 43.6885 94.5066 43.5178C94.4363 43.347 94.3559 43.1561 94.3057 43.0155C94.2555 42.8748 94.2052 42.7543 94.1349 42.6136L93.9742 42.2218L93.7532 41.7195L93.6226 41.4383C93.5322 41.2474 93.4317 41.0465 93.3513 40.8556C93.3212 40.7953 93.2911 40.735 93.271 40.6748L100.866 30.3275C101.157 29.9256 101.288 29.4334 101.247 28.9411C101.207 28.4489 100.996 27.9868 100.655 27.6352L89.2124 16.1325C88.8608 15.7809 88.3987 15.57 87.8964 15.5398C87.3941 15.5097 86.9119 15.6403 86.5101 15.9316L76.1628 23.5264L75.992 23.446L75.3993 23.1748L75.118 23.0542L74.6257 22.8332L74.2339 22.6624L73.8321 22.5017L73.3298 22.3008L73.0385 22.2003L72.4357 21.9692L72.2449 21.909L70.306 9.22093C70.2256 8.72868 69.9745 8.27661 69.5827 7.95514C69.2009 7.63367 68.7087 7.46289 68.2064 7.46289H60.1094" stroke="#101C3F" stroke-miterlimit="10"/>
<path d="M87.8672 97.877V103.141" stroke="#101C3F" stroke-miterlimit="10"/>
<path d="M75.9727 89.9707V95.506" stroke="#101C3F" stroke-miterlimit="10"/>
<path d="M50.6757 34.125L33.457 44.9244V69.6273L50.6757 81.8532" stroke="#101C3F" stroke-miterlimit="10"/>
<path d="M33.457 69.6262L50.6757 62.9859V55.3008" stroke="#101C3F" stroke-miterlimit="10"/>
<path d="M50.6767 56.2755C52.6357 56.2755 54.2129 54.6882 54.2129 52.7393C54.2129 50.7904 52.6256 49.2031 50.6767 49.2031C48.7278 49.2031 47.1406 50.7904 47.1406 52.7393C47.1406 54.6882 48.7278 56.2755 50.6767 56.2755Z" fill="#48EFCF" stroke="#101C3F" stroke-miterlimit="10"/>
<path d="M50.6767 85.3985C52.6357 85.3985 54.2129 83.8112 54.2129 81.8623C54.2129 79.9134 52.6256 78.3262 50.6767 78.3262C48.7278 78.3262 47.1406 79.9134 47.1406 81.8623C47.1406 83.8112 48.7278 85.3985 50.6767 85.3985Z" fill="#48EFCF" stroke="#101C3F" stroke-miterlimit="10"/>
<path d="M50.6767 37.6602C52.6357 37.6602 54.2129 36.073 54.2129 34.1241C54.2129 32.1752 52.6256 30.5879 50.6767 30.5879C48.7278 30.5879 47.1406 32.1752 47.1406 34.1241C47.1406 36.073 48.7278 37.6602 50.6767 37.6602Z" fill="#48EFCF" stroke="#101C3F" stroke-miterlimit="10"/>
<path d="M69.2715 34.125L86.5002 44.9244V69.6273L69.2715 81.8532" stroke="#101C3F" stroke-miterlimit="10"/>
<path d="M86.5002 69.6262L69.2715 62.9859V55.3008" stroke="#101C3F" stroke-miterlimit="10"/>
<path d="M72.8185 52.7295C72.8185 50.7706 71.2312 49.1934 69.2823 49.1934C67.3334 49.1934 65.7461 50.7806 65.7461 52.7295C65.7461 54.6885 67.3334 56.2657 69.2823 56.2657C71.2412 56.2657 72.8185 54.6785 72.8185 52.7295Z" fill="#48EFCF" stroke="#101C3F" stroke-miterlimit="10"/>
<path d="M72.8185 81.8526C72.8185 79.8936 71.2312 78.3164 69.2823 78.3164C67.3334 78.3164 65.7461 79.9037 65.7461 81.8526C65.7461 83.8015 67.3334 85.3887 69.2823 85.3887C71.2412 85.3887 72.8185 83.8015 72.8185 81.8526Z" fill="#48EFCF" stroke="#101C3F" stroke-miterlimit="10"/>
<path d="M72.8185 34.1241C72.8185 32.1651 71.2312 30.5879 69.2823 30.5879C67.3334 30.5879 65.7461 32.1752 65.7461 34.1241C65.7461 36.073 67.3334 37.6602 69.2823 37.6602C71.2412 37.6602 72.8185 36.073 72.8185 34.1241Z" fill="#48EFCF" stroke="#101C3F" stroke-miterlimit="10"/>
</g>
</g>
<defs>
<clipPath id="clip0_6738_5446">
<rect width="100" height="105" fill="white" transform="translate(10 7)"/>
</clipPath>
</defs>
</svg>
