<svg width="80" height="80" viewBox="0 0 80 80" fill="none" xmlns="http://www.w3.org/2000/svg">
<g clip-path="url(#clip0_7167_5280)">
<mask id="mask0_7167_5280" style="mask-type:luminance" maskUnits="userSpaceOnUse" x="4" y="2" width="72" height="75">
<path d="M75.8553 2.66602H4V76.6658H75.8553V2.66602Z" fill="white"/>
</mask>
<g mask="url(#mask0_7167_5280)">
<path d="M55.128 10.347C54.1428 10.347 53.1778 10.4207 52.2262 10.5547C49.1635 5.99761 43.963 3.00195 38.0588 3.00195C30.5998 3.00195 24.26 7.78695 21.9413 14.4551C20.869 14.1937 19.7498 14.0597 18.5971 14.0597C10.7227 14.0597 4.33594 20.4397 4.33594 28.3142C4.33594 29.9159 4.604 31.4573 5.09323 32.8981H75.4008C75.4742 32.1878 75.5148 31.4573 75.5148 30.7268C75.5148 19.468 66.3868 10.3403 55.128 10.3403V10.347Z" fill="#153385" stroke="#101C3F" stroke-miterlimit="10"/>
<path d="M55.128 13.5766C54.1428 13.5766 53.1778 13.6504 52.2262 13.7844C49.1635 9.23393 43.9563 6.23828 38.0588 6.23828C30.5998 6.23828 24.26 11.0233 21.9413 17.6914C20.869 17.4301 19.7498 17.296 18.5971 17.296C10.7227 17.2894 4.33594 23.676 4.33594 31.5506C4.33594 33.1522 4.604 34.6936 5.09323 36.1345H75.4008C75.4742 35.4241 75.5148 34.6936 75.5148 33.9632C75.5148 22.7043 66.3868 13.5766 55.128 13.5766Z" fill="white" stroke="#101C3F" stroke-miterlimit="10"/>
<path d="M62.0828 37.1133H59.7305V45.8791H62.0828V37.1133Z" fill="#48EFCF"/>
<path d="M18.5709 47.4537L14.2617 52.9089L65.4692 52.8486L61.0126 47.5409C60.4028 46.8171 59.2099 46.3613 57.9098 46.3613H21.6001C20.3603 46.3613 19.2075 46.7769 18.5776 47.4537H18.5709Z" fill="#153385" stroke="#101C3F" stroke-linejoin="round"/>
<path d="M62.8899 51.4219H16.9566C15.3021 51.4219 13.9609 52.7631 13.9609 54.4175V65.8707C13.9609 67.5252 15.3021 68.8664 16.9566 68.8664H62.8899C64.5444 68.8664 65.8856 67.5252 65.8856 65.8707V54.4175C65.8856 52.7631 64.5444 51.4219 62.8899 51.4219Z" fill="#0B64DD" stroke="#101C3F" stroke-miterlimit="10"/>
<path d="M18.5769 27.1686L14.375 32.6237L65.4753 32.5634L61.0187 27.2557C60.4089 26.5319 59.216 26.0762 57.9159 26.0762H21.5994C20.3596 26.0762 19.2069 26.4917 18.5769 27.1686Z" fill="#153385" stroke="#101C3F" stroke-linejoin="round"/>
<path d="M62.8938 31.1348H16.9605C15.306 31.1348 13.9648 32.476 13.9648 34.1304V45.5836C13.9648 47.238 15.306 48.5792 16.9605 48.5792H62.8938C64.5483 48.5792 65.8895 47.238 65.8895 45.5836V34.1304C65.8895 32.476 64.5483 31.1348 62.8938 31.1348Z" fill="#0B64DD" stroke="#101C3F" stroke-miterlimit="10"/>
<path d="M22.8509 43.6274C24.7015 43.6274 26.2017 42.1272 26.2017 40.2766C26.2017 38.426 24.7015 36.9258 22.8509 36.9258C21.0002 36.9258 19.5 38.426 19.5 40.2766C19.5 42.1272 21.0002 43.6274 22.8509 43.6274Z" fill="#48EFCF"/>
<path d="M55.618 36.0273H53.2656V44.7931H55.618V36.0273Z" fill="#48EFCF"/>
<path d="M51.0788 36.0273H48.7266V44.7931H51.0788V36.0273Z" fill="#48EFCF"/>
<path d="M22.8509 64.2896C24.7015 64.2896 26.2017 62.7894 26.2017 60.9388C26.2017 59.0881 24.7015 57.5879 22.8509 57.5879C21.0002 57.5879 19.5 59.0881 19.5 60.9388C19.5 62.7894 21.0002 64.2896 22.8509 64.2896Z" fill="#48EFCF"/>
<path d="M55.618 56.6895H53.2656V65.4552H55.618V56.6895Z" fill="#48EFCF"/>
<path d="M51.0788 56.6895H48.7266V65.4552H51.0788V56.6895Z" fill="#48EFCF"/>
<path d="M67.5431 25.7441L63.6525 21.8535L13.2031 72.3028L17.0937 76.1935L67.5431 25.7441Z" fill="#153385" stroke="#101C3F" stroke-miterlimit="10"/>
<path d="M66.6602 24.8593L62.7696 20.9688L12.3203 71.4184L16.2109 75.3084L66.6602 24.8593Z" fill="white" stroke="#101C3F" stroke-miterlimit="10"/>
</g>
</g>
<defs>
<clipPath id="clip0_7167_5280">
<rect width="72" height="74" fill="white" transform="translate(4 2.66602)"/>
</clipPath>
</defs>
</svg>
