<svg width="120" height="120" viewBox="0 0 120 120" fill="none" xmlns="http://www.w3.org/2000/svg">
<g clip-path="url(#clip0_5129_3072)">
<mask id="mask0_5129_3072" style="mask-type:luminance" maskUnits="userSpaceOnUse" x="9" y="12" width="103" height="97">
<path d="M111.895 12H9V108H111.895V12Z" fill="white"/>
</mask>
<g mask="url(#mask0_5129_3072)">
<path d="M111.154 21.7461L96.2446 82.5741C95.8844 84.045 94.5635 85.0857 93.0426 85.0857H14.7336C12.5823 85.0857 11.0013 83.0444 11.5416 80.9631L26.9713 21.8462H26.9413L26.9113 15.8124C26.9113 13.9913 28.3822 12.5103 30.2033 12.5103H53.778C55.329 12.5103 56.6598 13.591 56.99 15.0919C57.3203 16.6029 58.6611 17.6736 60.2021 17.6736H107.932C110.073 17.6736 111.644 19.6748 111.134 21.7561L111.23 21.0056L111.154 21.7461Z" fill="#153385" stroke="#101C3F" stroke-miterlimit="10"/>
<path d="M95.8944 21.0157L95.8644 81.7236C95.8644 83.5448 94.3835 85.0257 92.5623 85.0257H12.8425C11.0213 85.0257 9.54039 83.5448 9.54039 81.7236L9.5604 21.8962H9.53038L9.50037 15.8725C9.50037 14.0413 10.9713 12.5604 12.8024 12.5604H36.7775C38.3284 12.5604 39.6593 13.6311 39.9995 15.142C40.3297 16.653 41.6705 17.7236 43.2215 17.7236H92.5923C94.4135 17.7236 95.8944 19.2046 95.8944 21.0257V21.0157Z" fill="#0B64DD" stroke="#101C3F" stroke-miterlimit="10"/>
<path d="M53.2776 34.6041C62.5935 31.172 71.2489 34.8343 75.9418 41.3684C61.883 29.9112 39.9693 43.4297 42.1407 61.0006C42.4909 63.8624 43.5015 66.4941 44.9925 68.7655C41.7504 66.0138 39.459 62.0013 38.9487 56.6779C38.0181 47.0719 44.3421 37.8862 53.2776 34.6041Z" fill="#101C3F" stroke="#101C3F" stroke-miterlimit="10"/>
<path d="M32.3546 58.429C34.1357 72.758 47.9443 82.0838 61.893 79.8724C84.8874 76.2202 96.7949 43.6198 74.4609 30.2815C55.1288 18.7342 29.6829 36.5454 32.3546 58.429ZM73.3902 37.9362C87.9393 50.5941 75.3414 73.8987 57.6204 73.5985C48.2745 73.4384 40.1595 66.5741 39.0087 57.1983C36.8174 39.3971 59.3414 25.7086 73.3902 37.9362Z" fill="#48EFCF" stroke="#101C3F" stroke-miterlimit="10"/>
<path d="M61.8932 79.8724C79.7644 77.0307 90.9313 56.708 84.5373 41.5285C89.9807 48.9931 91.4917 59.3196 85.7581 69.2558C75.5317 86.9869 48.0445 88.5478 38.5586 71.8074C44.2622 78.0213 53.0477 81.2633 61.8932 79.8624V79.8724Z" fill="#153385" stroke="#101C3F" stroke-miterlimit="10"/>
<path d="M91.0491 105.513C92.7693 107.739 95.968 108.149 98.1936 106.428C100.419 104.708 100.829 101.51 99.1088 99.2841L81.6694 76.7201C79.9492 74.4945 76.7505 74.0847 74.5249 75.8049C72.2993 77.525 71.8895 80.7237 73.6097 82.9493L91.0491 105.513Z" fill="#153385" stroke="#101C3F" stroke-miterlimit="10"/>
<path d="M92.461 104.427C94.1812 106.653 97.3798 107.063 99.6055 105.342C101.831 103.622 102.241 100.424 100.521 98.1981L83.0813 75.6341C81.3611 73.4085 78.1624 72.9987 75.9368 74.7189C73.7112 76.439 73.3014 79.6377 75.0216 81.8633L92.461 104.427Z" fill="#48EFCF" stroke="#101C3F" stroke-miterlimit="10"/>
<path d="M51.0264 47.9624H69.9882" stroke="white" stroke-miterlimit="10" stroke-linecap="round"/>
<path d="M51.0264 55.0069H69.9882" stroke="white" stroke-miterlimit="10" stroke-linecap="round"/>
<path d="M51.0264 62.0613H69.9882" stroke="white" stroke-miterlimit="10" stroke-linecap="round"/>
</g>
</g>
<defs>
<clipPath id="clip0_5129_3072">
<rect width="103" height="96" fill="white" transform="translate(9 12)"/>
</clipPath>
</defs>
</svg>
