<svg width="96" height="96" viewBox="0 0 96 96" fill="none" xmlns="http://www.w3.org/2000/svg">
<g clip-path="url(#clip0_6806_14966)">
<mask id="mask0_6806_14966" style="mask-type:luminance" maskUnits="userSpaceOnUse" x="5" y="7" width="87" height="82">
<path d="M91.2 7.19922H5.59961V88.774H91.2V7.19922Z" fill="white"/>
</mask>
<g mask="url(#mask0_6806_14966)">
<path d="M50.412 88.371C72.7138 88.371 90.7968 70.288 90.7968 47.9862C90.7968 25.6844 72.7138 7.60156 50.412 7.60156C28.1102 7.60156 10.0273 25.6844 10.0273 47.9862C10.0273 70.288 28.1102 88.371 50.412 88.371Z" fill="#153385" stroke="#101C3F" stroke-width="0.857143" stroke-miterlimit="10"/>
<path d="M46.3866 88.371C68.6884 88.371 86.7714 70.288 86.7714 47.9862C86.7714 25.6844 68.6884 7.60156 46.3866 7.60156C24.0848 7.60156 6.00195 25.6844 6.00195 47.9862C6.00195 70.288 24.0848 88.371 46.3866 88.371Z" fill="#0B64DD" stroke="#101C3F" stroke-width="0.857143" stroke-miterlimit="10"/>
<path d="M6.00977 47.9862H46.3864V7.60156C41.0807 7.60156 35.8313 8.64821 30.9362 10.6771C26.033 12.706 21.5888 15.6849 17.8369 19.4288C14.0851 23.1806 11.1142 27.6328 9.08531 32.528C7.05642 37.4312 6.00977 42.6805 6.01782 47.9781L6.00977 47.9862Z" fill="#48EFCF" stroke="#101C3F" stroke-width="0.857143" stroke-miterlimit="10"/>
<path d="M86.7715 47.9863H46.3867V88.3711C57.0948 88.3711 67.3681 84.12 74.9442 76.5438C82.5204 68.9677 86.7715 58.6944 86.7715 47.9863Z" fill="#48EFCF" stroke="#101C3F" stroke-width="0.857143" stroke-miterlimit="10"/>
<path d="M20.3809 27.2793H31.1936V29.6946H20.3809V27.2793Z" fill="#153385"/>
<path d="M69.5989 34.2102L66.7166 30.0961L63.8101 34.2102H60.9922L65.1547 28.4053L61.2016 22.7695H64.1L66.8615 26.6823L69.615 22.7695H72.4168L68.3912 28.3087L72.5698 34.1941L69.5989 34.2102Z" fill="white"/>
<path d="M19.5684 65.9408H24.874V60.3613H27.5551V65.9408H32.8608V68.5816H27.5551V74.1611H24.9143V68.5816H19.6086L19.5684 65.9408Z" fill="white"/>
<path d="M61.4512 63.959H71.7808V66.1811H61.4512V63.959ZM61.4512 69.4257H71.7808V71.6318H61.4512V69.4257Z" fill="#153385"/>
<path d="M47.3052 67.534C57.9769 67.534 66.628 58.782 66.628 47.9857C66.628 37.1896 57.9769 28.4375 47.3052 28.4375C36.6335 28.4375 27.9824 37.1896 27.9824 47.9857C27.9824 58.782 36.6335 67.534 47.3052 67.534Z" fill="#101C3F"/>
<path d="M45.4693 67.3097C56.141 67.3097 64.7921 58.6586 64.7921 47.9869C64.7921 37.3152 56.141 28.6641 45.4693 28.6641C34.7976 28.6641 26.1465 37.3152 26.1465 47.9869C26.1465 58.6586 34.7976 67.3097 45.4693 67.3097Z" fill="#0B64DD" stroke="#101C3F" stroke-width="0.857143" stroke-miterlimit="10"/>
<path d="M45.4694 63.2279C53.8867 63.2279 60.7103 56.4043 60.7103 47.987C60.7103 39.5697 53.8867 32.7461 45.4694 32.7461C37.0521 32.7461 30.2285 39.5697 30.2285 47.987C30.2285 56.4043 37.0521 63.2279 45.4694 63.2279Z" fill="#101C3F"/>
<mask id="mask1_6806_14966" style="mask-type:luminance" maskUnits="userSpaceOnUse" x="30" y="32" width="31" height="32">
<path d="M45.4694 63.2279C53.8867 63.2279 60.7103 56.4043 60.7103 47.987C60.7103 39.5697 53.8867 32.7461 45.4694 32.7461C37.0521 32.7461 30.2285 39.5697 30.2285 47.987C30.2285 56.4043 37.0521 63.2279 45.4694 63.2279Z" fill="white"/>
</mask>
<g mask="url(#mask1_6806_14966)">
<path d="M47.4986 63.6946C55.916 63.6946 62.7395 56.871 62.7395 48.4538C62.7395 40.0364 55.916 33.2129 47.4986 33.2129C39.0813 33.2129 32.2578 40.0364 32.2578 48.4538C32.2578 56.871 39.0813 63.6946 47.4986 63.6946Z" fill="white"/>
</g>
<path d="M45.0827 58.1556V55.7402C44.1004 55.6436 43.1665 55.2411 42.4338 54.5889C41.6931 53.9287 41.1859 53.0592 40.9766 52.085L43.6013 51.4087C43.7623 52.6486 45.0344 53.4296 46.5399 53.4296C48.0455 53.4296 48.8506 52.6728 48.8506 51.4087C48.8506 48.0916 41.202 50.4908 41.202 44.702C41.1859 43.6072 41.5643 42.5444 42.2809 41.7232C42.9974 40.8939 43.9958 40.3705 45.0827 40.2336V37.8184H47.4417V40.1532C48.3998 40.2256 49.3095 40.588 50.0502 41.2079C50.791 41.8198 51.3143 42.6571 51.5478 43.583L48.8506 44.3881C48.7138 43.8325 48.3837 43.3334 47.9247 42.9952C47.4578 42.6571 46.8862 42.496 46.3145 42.5444C44.9941 42.5444 44.181 43.1724 44.181 44.364C44.181 47.681 51.7974 45.3059 51.7974 51.0947C51.7974 53.5664 50.0422 55.386 47.4417 55.7644V58.0992L45.0827 58.1556Z" fill="#0B64DD"/>
</g>
</g>
<defs>
<clipPath id="clip0_6806_14966">
<rect width="85.6" height="81.6" fill="white" transform="translate(5.59961 7.19922)"/>
</clipPath>
</defs>
</svg>
