<svg width="64" height="64" viewBox="0 0 64 64" fill="none" xmlns="http://www.w3.org/2000/svg">
<g clip-path="url(#clip0_6937_40933)">
<mask id="mask0_6937_40933" style="mask-type:luminance" maskUnits="userSpaceOnUse" x="2" y="2" width="60" height="60">
<path d="M61.2367 2.66602H2.66602V61.3328H61.2367V2.66602Z" fill="white"/>
</mask>
<g mask="url(#mask0_6937_40933)">
<mask id="mask1_6937_40933" style="mask-type:luminance" maskUnits="userSpaceOnUse" x="2" y="2" width="60" height="60">
<path d="M61.2367 2.66602H2.66602V61.3327H61.2367V2.66602Z" fill="white"/>
</mask>
<g mask="url(#mask1_6937_40933)">
<path d="M29.9647 2.74123C29.906 2.7946 29.858 3.0668 29.9327 3.13085C30.0075 3.19489 30.2903 3.13085 30.3117 3.06146C30.333 2.99208 30.3757 2.73589 30.3117 2.6932C30.253 2.67185 30.1942 2.66651 30.1302 2.67185C30.0715 2.68252 30.0128 2.70387 29.9647 2.74123Z" fill="white"/>
<path d="M46.7619 3.70229C46.8206 3.70229 46.874 3.70229 46.9274 3.67027C46.9807 3.64892 47.0288 3.6169 47.0661 3.5742C47.0928 3.5315 47.1035 3.48347 47.1035 3.43543C47.1035 3.3874 47.0928 3.33936 47.0661 3.29666C46.9434 3.10986 46.7619 3.12587 46.5645 3.24863C46.5698 3.4301 46.5271 3.63825 46.7619 3.70229Z" fill="white"/>
<path d="M26.8156 19.2756L26.8636 19.3717L27.9898 15.9025C26.0524 11.6861 19.3809 10.1971 16.4187 14.1733L15.3086 17.6478C18.2334 13.7196 24.8409 15.1286 26.8156 19.2756Z" fill="#0B64DD" stroke="black" stroke-width="0.533333" stroke-linejoin="round"/>
<path d="M26.8633 19.3771L35.9418 16.6445L37.0787 13.1699L27.9947 15.9026L26.8633 19.3771Z" fill="#0B64DD" stroke="black" stroke-width="0.533333" stroke-linejoin="round"/>
<path d="M7.46432 11.6966C10.0796 13.6821 12.6948 15.6622 15.31 17.6476L16.4201 14.1731C13.7996 12.1877 11.179 10.2022 8.55844 8.2168L7.45898 11.6966H7.46432Z" fill="#0B64DD" stroke="black" stroke-width="0.533333" stroke-linejoin="round"/>
<path d="M8.5625 8.21796C11.183 10.2034 13.8036 12.1888 16.4242 14.1743C19.3863 10.2034 26.0579 11.6871 27.9953 15.9035L37.0846 13.1655C33.0069 4.48189 21.3238 0.521677 12.7949 4.9142C11.1938 5.74147 9.74202 6.85161 8.5625 8.21796Z" fill="#F5F7FA" stroke="black" stroke-width="0.533333" stroke-linejoin="round"/>
<path d="M4.22852 27.169L13.3392 24.4203L14.4493 20.9512L5.32798 23.6999L4.22852 27.169Z" fill="#48EFCF" stroke="black" stroke-width="0.533333" stroke-linejoin="round"/>
<path d="M4.18098 27.0687L4.22902 27.1648L5.32848 23.6956C3.62057 20.1036 4.17564 16.3623 5.95827 12.765C6.45997 11.7509 6.35856 10.3525 7.11111 9.50391C4.42649 11.7616 2.32897 19.9115 3.09219 23.7756C3.31635 24.9124 3.68995 26.0172 4.18098 27.0687Z" fill="#153385" stroke="black" stroke-width="0.533333" stroke-linejoin="round"/>
<path d="M5.27953 23.6L5.32756 23.7014L14.4489 20.9528C13.5682 19.1701 13.707 17.0299 14.9613 15.4608L7.1102 9.50977C4.5003 12.4666 3.42218 16.4375 4.1854 20.3069C4.40956 21.4438 4.78851 22.5539 5.27953 23.6053V23.6Z" fill="#48EFCF" stroke="black" stroke-width="0.533333" stroke-linejoin="round"/>
<path d="M6.49805 28.3974C9.3161 34.4658 15.8648 38.2552 22.451 38.4794C29.0371 38.7035 35.2763 35.4319 37.3739 29.2087C38.4733 25.9476 38.0997 22.3984 36.6266 19.3188L37.7688 15.8496C40.4374 21.427 39.0658 28.0291 34.1235 31.8399C28.7596 35.9762 21.058 35.8748 15.2351 32.7846C11.9473 31.0393 9.17732 28.328 7.60285 24.9335L6.50338 28.4027H6.49805V28.3974Z" fill="#153385" stroke="black" stroke-width="0.533333" stroke-linejoin="round"/>
<path d="M7.59766 24.9277C10.4211 31.0015 16.9805 34.7962 23.5773 35.0204C29.8699 35.2339 36.4239 31.9782 38.5162 25.7443C39.6156 22.4779 39.242 18.9233 37.7636 15.8438L28.6743 18.5818C31.4604 24.2606 24.3245 27.7724 19.7718 25.3494C18.4482 24.6448 17.3487 23.5507 16.719 22.1844L7.59766 24.933V24.9277Z" fill="#0B64DD" stroke="black" stroke-width="0.533333" stroke-linejoin="round"/>
<path d="M59.223 42.6738H11.6418C10.6757 42.6738 9.89648 43.4531 9.89648 44.4191V57.0789C9.89648 58.0453 10.6757 58.8245 11.6418 58.8245H59.223C60.1889 58.8245 60.9681 58.0453 60.9681 57.0789V44.4191C60.9681 43.4531 60.1889 42.6738 59.223 42.6738Z" fill="#101C3F"/>
<path d="M59.223 42.6738H11.6418C10.6757 42.6738 9.89648 43.4531 9.89648 44.4191V57.0789C9.89648 58.0453 10.6757 58.8245 11.6418 58.8245H59.223C60.1889 58.8245 60.9681 58.0453 60.9681 57.0789V44.4191C60.9681 43.4531 60.1889 42.6738 59.223 42.6738Z" stroke="#101C3F" stroke-width="0.533333" stroke-miterlimit="10"/>
<path d="M58.6525 42.3223H11.0714C10.1054 42.3223 9.32617 43.1015 9.32617 44.0675V56.7275C9.32617 57.6934 10.1054 58.4726 11.0714 58.4726H58.6525C59.6189 58.4726 60.3981 57.6934 60.3981 56.7275V44.0675C60.3981 43.1015 59.6189 42.3223 58.6525 42.3223Z" fill="white"/>
<path d="M58.6516 42.3223H27.5625V58.4726H58.6516C59.618 58.4726 60.3972 57.6934 60.3972 56.7275V44.0675C60.3972 43.1015 59.618 42.3223 58.6516 42.3223Z" stroke="#101C3F" stroke-width="0.533333" stroke-miterlimit="10"/>
<path d="M11.0714 42.3223C10.1054 42.3223 9.32617 43.1015 9.32617 44.0675V56.7275C9.32617 57.6934 10.1054 58.4726 11.0714 58.4726H27.5634V42.3223H11.0714Z" fill="#0B64DD" stroke="#101C3F" stroke-width="0.533333" stroke-miterlimit="10"/>
<path d="M20.929 46.1543H15.6238L12.9766 50.7496L15.6238 55.3396H20.929L23.5816 50.7496L20.929 46.1543Z" fill="#48EFCF"/>
<path d="M31.3477 46.1543H53.764" stroke="#101C3F" stroke-width="0.533333" stroke-linecap="round" stroke-linejoin="round"/>
<path d="M31.3477 50.4023H50.5723" stroke="#101C3F" stroke-width="0.533333" stroke-linecap="round" stroke-linejoin="round"/>
<path d="M31.3477 54.8066H43.9328" stroke="#101C3F" stroke-width="0.533333" stroke-linecap="round" stroke-linejoin="round"/>
<path d="M47.434 32.9285V32.4482L47.9197 32.4696V33.3129L50.0439 33.3609L50.0225 33.0673C49.7877 29.5928 48.6402 27.1857 46.4199 25.4992C45.5927 24.8694 44.3117 24.5491 42.6145 24.5491C39.6577 24.5491 36.0497 25.5365 34.3204 26.2677L32.7246 22.7719C34.2724 22.0407 37.9551 20.5195 41.9633 20.5195C44.4131 20.5195 46.5854 21.0906 48.416 22.2221C51.7518 24.2823 53.5985 28.0076 53.892 33.2968L53.908 33.5637L56.7529 33.3769L52.5791 38.5967L47.4393 32.9339H47.434V32.9285Z" fill="#153385"/>
<path d="M41.9587 20.2534V20.7871C44.3605 20.7871 46.4847 21.3475 48.2726 22.447C51.5336 24.4591 53.3323 28.1098 53.6205 33.3083L53.6525 33.8473L54.1916 33.8099L56.1611 33.6819L52.5584 38.1811L48.3954 33.5911L49.7457 33.6178L50.3274 33.6285L50.2901 33.0467C50.0446 29.4922 48.8704 27.021 46.5861 25.2811C45.7108 24.6139 44.3765 24.2776 42.6205 24.2776C39.7598 24.2776 36.2906 25.1903 34.4599 25.9162L33.0776 22.8954C34.7214 22.1374 38.2066 20.7818 41.964 20.7818V20.248M41.964 20.2534C37.0485 20.2534 32.6666 22.5057 32.373 22.6445L34.1877 26.6207C35.7515 25.9055 39.5249 24.8221 42.6152 24.8221C44.0882 24.8221 45.4065 25.0676 46.2605 25.7187C48.2086 27.2024 49.5055 29.3694 49.7564 33.0948L48.1872 33.0627V32.2248L47.1678 32.1767V33.0414L52.5851 39.0137L57.335 33.0787L54.1596 33.2869C53.8607 27.907 51.9767 24.1122 48.5555 21.9987C46.4633 20.7071 44.163 20.2588 41.964 20.2588V20.2534Z" fill="#101C3F"/>
<path d="M55.1024 32.4429C54.8035 27.063 52.9195 23.2683 49.4983 21.1547C42.7254 16.9757 32.6541 21.491 32.2324 21.6831L34.0471 25.6593C36.3527 24.6079 43.2164 22.4089 47.2086 24.8748C49.2955 26.161 50.4644 28.7175 50.7205 32.4429H47.8972L53.0369 38.0363L58.0056 32.4429H55.1024Z" fill="#48EFCF" stroke="#101C3F" stroke-width="0.533333" stroke-miterlimit="10"/>
</g>
</g>
</g>
<defs>
<clipPath id="clip0_6937_40933">
<rect width="58.6667" height="58.6667" fill="white" transform="translate(2.66602 2.66602)"/>
</clipPath>
</defs>
</svg>
