<svg width="64" height="64" viewBox="0 0 64 64" fill="none" xmlns="http://www.w3.org/2000/svg">
<mask id="mask0_6937_40905" style="mask-type:luminance" maskUnits="userSpaceOnUse" x="0" y="4" width="64" height="56">
<path d="M64 4.80078H0V59.1413H64V4.80078Z" fill="white"/>
</mask>
<g mask="url(#mask0_6937_40905)">
<path d="M63.732 40.0481C51.5437 40.0481 53.4723 49.3593 41.2895 49.3593C29.1067 49.3593 29.1067 34.7871 16.9185 34.7871C13.2862 34.7871 10.736 36.0836 8.62521 37.8997C4.93929 41.0714 2.95703 45.7913 2.95703 50.6505V56.1525L63.732 58.8634V40.0481Z" fill="#153385" stroke="#101C3F" stroke-miterlimit="10"/>
<path d="M62.9709 40.0481C50.7829 40.0481 50.7829 49.3593 38.6001 49.3593C26.4173 49.3593 26.4173 34.7871 14.2291 34.7871C10.5967 34.7871 8.04659 36.0836 5.93576 37.8997C2.24983 41.0714 0.267578 45.7913 0.267578 50.6505V56.1526H62.9709V40.0481Z" fill="white" stroke="#101C3F" stroke-miterlimit="10"/>
<path d="M52.5484 49.1976C53.5108 50.443 55.3012 50.6724 56.5466 49.7097C57.7919 48.7471 58.0212 46.9572 57.0586 45.7117L47.2987 33.0839C46.3362 31.8384 44.5462 31.6092 43.3007 32.5717C42.0552 33.5343 41.8259 35.3244 42.7886 36.5698L52.5484 49.1976Z" fill="#153385" stroke="#101C3F" stroke-miterlimit="10"/>
<path d="M31.4164 9.51465C36.6292 7.59669 41.4723 9.64323 44.0975 13.3023C36.2328 6.89486 23.9696 14.4596 25.1857 24.2851C25.3839 25.887 25.9465 27.3603 26.7769 28.63C24.9607 27.0924 23.6803 24.8423 23.3963 21.8689C22.8767 16.4954 26.4126 11.3576 31.4164 9.51465Z" fill="#101C3F" stroke="#101C3F" stroke-miterlimit="10"/>
<path d="M19.7036 22.85C20.7001 30.8701 28.4256 36.0882 36.2314 34.8506C49.0999 32.8041 55.759 14.5674 43.2657 7.10446C32.449 0.643388 18.2142 10.6082 19.7036 22.8553V22.85ZM42.6657 11.3797C50.8036 18.4622 43.7532 31.5023 33.8419 31.3308C28.6131 31.2398 24.0753 27.3984 23.427 22.1535C22.2002 12.1941 34.8009 4.53825 42.6657 11.3797Z" fill="#48EFCF" stroke="#101C3F" stroke-miterlimit="10"/>
<path d="M36.2314 34.8516C46.2337 33.2604 52.4805 21.8919 48.9017 13.4004C51.9447 17.5792 52.7912 23.3545 49.5821 28.9155C43.855 38.8375 28.4791 39.7108 23.1699 30.346C26.3576 33.8229 31.2757 35.6391 36.226 34.8516H36.2314Z" fill="#153385" stroke="#101C3F" stroke-miterlimit="10"/>
<path d="M53.3334 48.5902C54.2961 49.8356 56.086 50.065 57.3318 49.1023C58.5772 48.1397 58.8065 46.3497 57.8438 45.1043L48.084 32.4765C47.1213 31.231 45.3313 31.0017 44.0859 31.9643C42.8404 32.9269 42.6111 34.7169 43.5737 35.9624L53.3334 48.5902Z" fill="#48EFCF" stroke="#101C3F" stroke-miterlimit="10"/>
<path d="M26.2297 17.1708C22.4419 15.9975 18.6114 12.7991 17.5667 8.60957C17.5131 8.38456 17.3042 8.28812 17.1167 8.31491H15.3433L15.3862 11.599C13.6933 14.3313 11.0949 16.5118 8.28222 17.31C7.89651 17.4172 7.89112 17.969 8.27688 18.0869C11.0413 18.928 13.8165 20.8245 15.5416 23.3961L15.5844 26.8195H17.3952C17.5453 26.8034 17.6953 26.7124 17.7488 26.5356C18.9061 22.8818 22.0883 19.0566 26.2136 17.953C26.6047 17.8458 26.6154 17.294 26.2297 17.1761V17.1708Z" fill="#153385" stroke="#101C3F" stroke-linecap="round" stroke-linejoin="round"/>
<path d="M26.2144 17.9526C26.6055 17.8454 26.6162 17.2936 26.2305 17.1758H23.7285V17.9526H26.2144Z" fill="#153385" stroke="#101C3F" stroke-miterlimit="10"/>
<path d="M6.49368 18.0881C10.2814 19.24 14.0905 22.3687 15.1888 26.5154C15.2959 26.9065 15.8424 26.9225 15.9656 26.5314C17.1229 22.8777 20.3051 19.0524 24.4304 17.9488C24.8215 17.8417 24.8322 17.2898 24.4465 17.172C20.6587 15.9987 16.8282 12.8003 15.7835 8.61079C15.687 8.21969 15.1298 8.20363 15.0066 8.58936C13.6887 12.6556 10.2921 16.2398 6.49901 17.3113C6.11331 17.4184 6.10792 17.9703 6.49368 18.0881Z" fill="#0B64DD" stroke="#101C3F" stroke-linecap="round" stroke-linejoin="round"/>
<path d="M62.9709 53.9441C62.0386 53.0119 59.3389 49.8349 54.2653 49.8349C42.9396 49.8349 42.9396 54.7531 31.6193 54.7531C20.2991 54.7531 19.1311 43.2399 7.11437 44.8043C4.30709 45.1686 1.24799 47.5366 0.267578 50.2903V58.8622H62.9709V53.9441Z" fill="#0B64DD" stroke="#101C3F" stroke-miterlimit="10"/>
</g>
</svg>
