<svg width="120" height="120" viewBox="0 0 120 120" fill="none" xmlns="http://www.w3.org/2000/svg">
<g clip-path="url(#clip0_5019_10320)">
<mask id="mask0_5019_10320" style="mask-type:luminance" maskUnits="userSpaceOnUse" x="8" y="9" width="106" height="101">
<path d="M113 9H8V109.511H113V9Z" fill="white"/>
</mask>
<g mask="url(#mask0_5019_10320)">
<path d="M107.939 61.5251H104.421V74.6338H107.939V61.5251Z" fill="#48EFCF"/>
<path d="M41.7439 76.9889L35.2998 85.1468L111.878 85.0566L105.213 77.1192C104.301 76.0368 102.517 75.3553 100.573 75.3553H46.2538C44.3997 75.3553 42.6759 75.9767 41.7339 76.9889H41.7439Z" fill="#153385" stroke="#101C3F" stroke-linejoin="round"/>
<path d="M108.019 82.9119H39.3287C36.8545 82.9119 34.8489 84.9176 34.8489 87.3917V104.519C34.8489 106.993 36.8545 108.999 39.3287 108.999H108.019C110.493 108.999 112.499 106.993 112.499 104.519V87.3917C112.499 84.9176 110.493 82.9119 108.019 82.9119Z" fill="#0B64DD" stroke="#101C3F" stroke-miterlimit="10"/>
<path d="M41.7439 46.6524L35.4602 54.8103L111.878 54.7201L105.213 46.7827C104.301 45.7003 102.517 45.0188 100.573 45.0188H46.2538C44.3998 45.0188 42.676 45.6402 41.7339 46.6524H41.7439Z" fill="#153385" stroke="#101C3F" stroke-linejoin="round"/>
<path d="M108.019 52.5754H39.3287C36.8545 52.5754 34.8489 54.5811 34.8489 57.0552V74.1828C34.8489 76.6569 36.8545 78.6626 39.3287 78.6626H108.019C110.493 78.6626 112.499 76.6569 112.499 74.1828V57.0552C112.499 54.5811 110.493 52.5754 108.019 52.5754Z" fill="#0B64DD" stroke="#101C3F" stroke-miterlimit="10"/>
<path d="M67.2698 17.9997C66.1273 17.9997 65.0149 18.0799 63.9125 18.2402C60.3647 12.9687 54.3515 9.5011 47.5166 9.5011C38.8877 9.5011 31.5516 15.0432 28.8657 22.7501C27.623 22.4495 26.3302 22.2891 24.9972 22.2891C15.8873 22.2891 8.5011 29.6753 8.5011 38.7852C8.5011 40.6393 8.81178 42.4232 9.38303 44.0869H90.7312C90.8214 43.2651 90.8615 42.4232 90.8615 41.5713C90.8615 28.5428 80.2984 17.9797 67.2698 17.9797V17.9997Z" fill="#153385" stroke="#101C3F" stroke-miterlimit="10"/>
<path d="M67.2698 21.7379C66.1273 21.7379 65.0149 21.8181 63.9125 21.9784C60.3647 16.7069 54.3515 13.2493 47.5166 13.2493C38.8877 13.2493 31.5516 18.7914 28.8657 26.4983C27.623 26.1977 26.3302 26.0373 24.9972 26.0373C15.8873 26.0373 8.5011 33.4235 8.5011 42.5334C8.5011 44.3875 8.81178 46.1714 9.38303 47.8351H90.7312C90.8214 47.0133 90.8615 46.1714 90.8615 45.3195C90.8615 32.291 80.2984 21.7279 67.2698 21.7279V21.7379Z" fill="white" stroke="#101C3F" stroke-miterlimit="10"/>
<path d="M48.138 71.2664C50.9055 71.2664 53.1489 69.0229 53.1489 66.2554C53.1489 63.4879 50.9055 61.2444 48.138 61.2444C45.3705 61.2444 43.127 63.4879 43.127 66.2554C43.127 69.0229 45.3705 71.2664 48.138 71.2664Z" fill="#48EFCF"/>
<path d="M97.1353 59.8915H93.6176V73.0002H97.1353V59.8915Z" fill="#48EFCF"/>
<path d="M90.3504 59.8915H86.8327V73.0002H90.3504V59.8915Z" fill="#48EFCF"/>
<path d="M48.138 102.164C50.9055 102.164 53.1489 99.9205 53.1489 97.1531C53.1489 94.3856 50.9055 92.1421 48.138 92.1421C45.3705 92.1421 43.127 94.3856 43.127 97.1531C43.127 99.9205 45.3705 102.164 48.138 102.164Z" fill="#48EFCF"/>
<path d="M97.1353 90.7891H93.6176V103.898H97.1353V90.7891Z" fill="#48EFCF"/>
<path d="M90.3504 90.7891H86.8327V103.898H90.3504V90.7891Z" fill="#48EFCF"/>
</g>
</g>
<defs>
<clipPath id="clip0_5019_10320">
<rect width="105" height="101" fill="white" transform="translate(8 9)"/>
</clipPath>
</defs>
</svg>
