<svg width="64" height="64" viewBox="0 0 64 64" fill="none" xmlns="http://www.w3.org/2000/svg">
<g clip-path="url(#clip0_6937_41097)">
<mask id="mask0_6937_41097" style="mask-type:luminance" maskUnits="userSpaceOnUse" x="2" y="6" width="61" height="52">
<path d="M62.3994 6.40039H2.13281V57.2588H62.3994V6.40039Z" fill="white"/>
</mask>
<g mask="url(#mask0_6937_41097)">
<path d="M55.5441 6.90234H17.5966C16.128 6.90234 14.9375 8.09284 14.9375 9.5614V30.7645C14.9375 32.233 16.128 33.4235 17.5966 33.4235H55.5441C57.0129 33.4235 58.2033 32.233 58.2033 30.7645V9.5614C58.2033 8.09284 57.0129 6.90234 55.5441 6.90234Z" fill="#153385" stroke="#101C3F" stroke-miterlimit="10"/>
<path d="M54.1026 6.66797H17.5966C16.128 6.66797 14.9375 7.85847 14.9375 9.32703V29.649C14.9375 31.1176 16.128 32.3081 17.5966 32.3081H54.1026C55.5713 32.3081 56.7617 31.1176 56.7617 29.649V9.32703C56.7617 7.85847 55.5713 6.66797 54.1026 6.66797Z" fill="#48EFCF" stroke="#101C3F" stroke-miterlimit="10"/>
<path d="M48.998 12.418H5.05945C3.59089 12.418 2.40039 13.6085 2.40039 15.077V41.1871C2.40039 42.6556 3.59089 43.8461 5.05945 43.8461H48.998C50.4665 43.8461 51.657 42.6556 51.657 41.1871V15.077C51.657 13.6085 50.4665 12.418 48.998 12.418Z" fill="#153385" stroke="#101C3F" stroke-miterlimit="10"/>
<path d="M47.4122 12.418H5.05945C3.59089 12.418 2.40039 13.6085 2.40039 15.077V39.8362C2.40039 41.3047 3.59089 42.4953 5.05945 42.4953H47.4122C48.8807 42.4953 50.0712 41.3047 50.0712 39.8362V15.077C50.0712 13.6085 48.8807 12.418 47.4122 12.418Z" fill="#0B64DD" stroke="#101C3F" stroke-miterlimit="10"/>
<path d="M7.3125 17.9824H34.2395" stroke="white" stroke-miterlimit="10"/>
<path d="M7.49414 24.4102H25.1197" stroke="white" stroke-miterlimit="10"/>
<path d="M29.6211 24.4102H43.429" stroke="white" stroke-miterlimit="10"/>
<path d="M7.38281 37.7871H34.3151" stroke="white" stroke-miterlimit="10"/>
<path d="M40.1022 19.9426C41.1844 19.9426 42.0617 19.0653 42.0617 17.983C42.0617 16.9008 41.1844 16.0234 40.1022 16.0234C39.0199 16.0234 38.1426 16.9008 38.1426 17.983C38.1426 19.0653 39.0199 19.9426 40.1022 19.9426Z" fill="white"/>
<path d="M42.0617 31.5605H15.1348" stroke="white" stroke-miterlimit="10"/>
<path d="M9.27209 33.5208C10.3543 33.5208 11.2317 32.6434 11.2317 31.5611C11.2317 30.4789 10.3543 29.6016 9.27209 29.6016C8.18985 29.6016 7.3125 30.4789 7.3125 31.5611C7.3125 32.6434 8.18985 33.5208 9.27209 33.5208Z" fill="white"/>
<path d="M60.7766 45.5395C60.7766 45.5395 52.4307 56.9874 42.1362 56.9874C31.8417 56.9874 23.4961 45.5395 23.4961 45.5395C23.4961 45.5395 31.8417 34.0703 42.1362 34.0703C52.4307 34.0703 60.7766 45.5395 60.7766 45.5395Z" fill="#153385" stroke="#101C3F" stroke-miterlimit="10"/>
<path d="M62.0691 44.1625C62.0691 44.1625 53.7237 55.6104 43.4292 55.6104C33.1347 55.6104 24.7891 44.1625 24.7891 44.1625C24.7891 44.1625 33.1347 32.6934 43.4292 32.6934C53.7237 32.6934 62.0691 44.1625 62.0691 44.1625Z" fill="white" stroke="#101C3F" stroke-miterlimit="10"/>
<path d="M43.4298 52.2932C47.9269 52.2932 51.5725 48.6476 51.5725 44.1505C51.5725 39.6534 47.9269 36.0078 43.4298 36.0078C38.9327 36.0078 35.2871 39.6534 35.2871 44.1505C35.2871 48.6476 38.9327 52.2932 43.4298 52.2932Z" fill="#48EFCF" stroke="#101C3F" stroke-miterlimit="10"/>
<path d="M43.4294 48.6479C45.9124 48.6479 47.9253 46.635 47.9253 44.1521C47.9253 41.6691 45.9124 39.6562 43.4294 39.6562C40.9464 39.6562 38.9336 41.6691 38.9336 44.1521C38.9336 46.635 40.9464 48.6479 43.4294 48.6479Z" fill="#0B64DD"/>
</g>
</g>
<defs>
<clipPath id="clip0_6937_41097">
<rect width="60.2667" height="51.2" fill="white" transform="translate(2.13281 6.40039)"/>
</clipPath>
</defs>
</svg>
