<svg width="120" height="120" viewBox="0 0 120 120" fill="none" xmlns="http://www.w3.org/2000/svg">
<g clip-path="url(#clip0_6738_3332)">
<mask id="mask0_6738_3332" style="mask-type:luminance" maskUnits="userSpaceOnUse" x="7" y="8" width="106" height="103">
<path d="M113 8H7V110.405H113V8Z" fill="white"/>
</mask>
<g mask="url(#mask0_6738_3332)">
<path d="M90.4292 9.00195H18.1237C14.7061 9.00195 11.9355 11.7725 11.9355 15.1901V72.7661C11.9355 76.1838 14.7061 78.9543 18.1237 78.9543H90.4292C93.8468 78.9543 96.6174 76.1838 96.6174 72.7661V15.1901C96.6174 11.7725 93.8468 9.00195 90.4292 9.00195Z" fill="#153385" stroke="#101C3F" stroke-miterlimit="10"/>
<path d="M87.9966 9.00195H12.9274C10.273 9.00195 8.12109 11.1538 8.12109 13.8083V74.148C8.12109 76.8024 10.273 78.9543 12.9274 78.9543H87.9966C90.651 78.9543 92.8029 76.8024 92.8029 74.148V13.8083C92.8029 11.1538 90.651 9.00195 87.9966 9.00195Z" fill="#0B64DD"/>
<mask id="mask1_6738_3332" style="mask-type:luminance" maskUnits="userSpaceOnUse" x="8" y="9" width="85" height="70">
<path d="M87.9966 9.00195H12.9274C10.273 9.00195 8.12109 11.1538 8.12109 13.8083V74.148C8.12109 76.8024 10.273 78.9543 12.9274 78.9543H87.9966C90.651 78.9543 92.8029 76.8024 92.8029 74.148V13.8083C92.8029 11.1538 90.651 9.00195 87.9966 9.00195Z" fill="white"/>
</mask>
<g mask="url(#mask1_6738_3332)">
<path d="M93.6037 8.50195H7.5V20.7581H93.6037V8.50195Z" stroke="#101C3F" stroke-miterlimit="10"/>
</g>
<path d="M87.9966 9.00195H12.9274C10.273 9.00195 8.12109 11.1538 8.12109 13.8083V74.148C8.12109 76.8024 10.273 78.9543 12.9274 78.9543H87.9966C90.651 78.9543 92.8029 76.8024 92.8029 74.148V13.8083C92.8029 11.1538 90.651 9.00195 87.9966 9.00195Z" stroke="#101C3F" stroke-miterlimit="10"/>
<path d="M57.0749 32.4023H59.438V53.9408H55.8633L57.0749 32.4023Z" fill="#101C3F" stroke="#101C3F" stroke-miterlimit="10"/>
<path d="M27.9277 20.7266V78.9535" stroke="#101C3F" stroke-miterlimit="10"/>
<path d="M57.6565 32.4023C47.4831 32.4023 39.2422 40.6432 39.2422 50.8166C39.2422 60.9901 47.4831 69.231 57.6565 69.231C67.83 69.231 76.0708 60.9901 76.0708 50.8166H57.6565V32.4023Z" fill="#48EFCF" stroke="#101C3F" stroke-miterlimit="10"/>
<path d="M62.252 27.5156C72.4254 27.5156 80.6663 35.7565 80.6663 45.9299H62.252V27.5156Z" fill="white" stroke="#101C3F" stroke-miterlimit="10"/>
<path d="M11.8066 27.5156H23.0815" stroke="#101C3F" stroke-miterlimit="10"/>
<path d="M11.8066 32.4023H23.0815" stroke="#101C3F" stroke-miterlimit="10"/>
<path d="M11.8066 37.2891H23.0815" stroke="#101C3F" stroke-miterlimit="10"/>
<path d="M11.8066 42.1758H19.3466" stroke="#101C3F" stroke-miterlimit="10"/>
<path d="M11.8066 47.0625H19.3466" stroke="#101C3F" stroke-miterlimit="10"/>
<path d="M11.8066 51.9492H19.3466" stroke="#101C3F" stroke-miterlimit="10"/>
<path d="M108.205 63.3027H54.4031C52.0307 63.3027 50.1074 65.226 50.1074 67.5984V105.609C50.1074 107.981 52.0307 109.905 54.4031 109.905H108.205C110.577 109.905 112.5 107.981 112.5 105.609V67.5984C112.5 65.226 110.577 63.3027 108.205 63.3027Z" fill="#153385" stroke="#101C3F" stroke-miterlimit="10"/>
<path d="M104.317 63.3027H50.5164C48.1439 63.3027 46.2207 65.226 46.2207 67.5984V105.609C46.2207 107.981 48.1439 109.905 50.5164 109.905H104.317C106.69 109.905 108.613 107.981 108.613 105.609V67.5984C108.613 65.226 106.69 63.3027 104.317 63.3027Z" fill="white" stroke="#101C3F" stroke-miterlimit="10"/>
<path d="M68.4707 103.287H75.6602V92.2129H68.4707V103.287Z" fill="#48EFCF" stroke="#101C3F" stroke-miterlimit="10"/>
<path d="M57.4355 103.287H64.625V75.4199H57.4355V103.287Z" fill="#48EFCF" stroke="#101C3F" stroke-miterlimit="10"/>
<path d="M79.5156 103.286H86.705V83.5195H79.5156V103.286Z" fill="#48EFCF" stroke="#101C3F" stroke-miterlimit="10"/>
<path d="M90.5605 103.286H97.75V77.3418H90.5605V103.286Z" fill="#48EFCF" stroke="#101C3F" stroke-miterlimit="10"/>
<path d="M54.4922 103.287H100.343" stroke="#101C3F" stroke-miterlimit="10"/>
<path d="M15.5702 17.2126C16.8753 17.2126 17.9333 16.1546 17.9333 14.8494C17.9333 13.5443 16.8753 12.4863 15.5702 12.4863C14.265 12.4863 13.207 13.5443 13.207 14.8494C13.207 16.1546 14.265 17.2126 15.5702 17.2126Z" fill="white"/>
<path d="M71.7656 14.8496H81.0479" stroke="white" stroke-miterlimit="10"/>
<path d="M83.4102 14.8496H87.2653" stroke="white" stroke-miterlimit="10"/>
</g>
</g>
<defs>
<clipPath id="clip0_6738_3332">
<rect width="106" height="103" fill="white" transform="translate(7 8)"/>
</clipPath>
</defs>
</svg>
