<svg width="64" height="64" viewBox="0 0 64 64" fill="none" xmlns="http://www.w3.org/2000/svg">
<g clip-path="url(#clip0_6937_41060)">
<mask id="mask0_6937_41060" style="mask-type:luminance" maskUnits="userSpaceOnUse" x="4" y="5" width="57" height="54">
<path d="M60.2551 5.33398H4.26758V58.1341H60.2551V5.33398Z" fill="white"/>
</mask>
<g mask="url(#mask0_6937_41060)">
<path d="M48.6455 5.63086H7.53106C5.87755 5.63086 4.53711 6.9713 4.53711 8.62481V39.9619C4.53711 41.6154 5.87755 42.9558 7.53106 42.9558H48.6455C50.299 42.9558 51.6394 41.6154 51.6394 39.9619V8.62481C51.6394 6.9713 50.299 5.63086 48.6455 5.63086Z" fill="#153385"/>
<path d="M48.6455 5.63086H7.53106C5.87755 5.63086 4.53711 6.9713 4.53711 8.62481V39.9619C4.53711 41.6154 5.87755 42.9558 7.53106 42.9558H48.6455C50.299 42.9558 51.6394 41.6154 51.6394 39.9619V8.62481C51.6394 6.9713 50.299 5.63086 48.6455 5.63086Z" stroke="#101C3F" stroke-miterlimit="10"/>
<path d="M50.0166 5.60352H8.90216C7.24864 5.60352 5.9082 6.94395 5.9082 8.59747V39.9345C5.9082 41.588 7.24864 42.9285 8.90216 42.9285H50.0166C51.6701 42.9285 53.0106 41.588 53.0106 39.9345V8.59747C53.0106 6.94395 51.6701 5.60352 50.0166 5.60352Z" fill="#0B64DD"/>
<mask id="mask1_6937_41060" style="mask-type:luminance" maskUnits="userSpaceOnUse" x="5" y="5" width="49" height="38">
<path d="M50.0166 5.60352H8.90216C7.24864 5.60352 5.9082 6.94395 5.9082 8.59747V39.9345C5.9082 41.588 7.24864 42.9285 8.90216 42.9285H50.0166C51.6701 42.9285 53.0106 41.588 53.0106 39.9345V8.59747C53.0106 6.94395 51.6701 5.60352 50.0166 5.60352Z" fill="white"/>
</mask>
<g mask="url(#mask1_6937_41060)">
<path d="M5.43574 41.9601L5.17773 22.9321C9.22522 22.9321 9.22521 32.1667 13.2727 32.1667C17.3202 32.1667 17.3202 17.7129 21.3623 17.7129C25.4044 17.7129 25.4098 32.1667 29.4572 32.1667C33.5047 32.1667 33.5047 22.9321 37.5522 22.9321C41.5997 22.9321 41.5997 32.1667 45.6471 32.1667C49.6947 32.1667 49.6947 22.9321 53.7421 22.9321V41.9601" stroke="#F5F7FA" stroke-miterlimit="10"/>
</g>
<path d="M50.0166 5.60352H8.90216C7.24864 5.60352 5.9082 6.94395 5.9082 8.59747V39.9345C5.9082 41.588 7.24864 42.9285 8.90216 42.9285H50.0166C51.6701 42.9285 53.0106 41.588 53.0106 39.9345V8.59747C53.0106 6.94395 51.6701 5.60352 50.0166 5.60352Z" stroke="#101C3F" stroke-miterlimit="10"/>
<path d="M5.94531 13.5059H52.9133" stroke="#101C3F" stroke-miterlimit="10"/>
<path d="M16.2924 8.88867H10.9388C10.3599 8.88867 9.89062 9.35795 9.89062 9.93683V9.97983C9.89062 10.5587 10.3599 11.028 10.9388 11.028H16.2924C16.8713 11.028 17.3406 10.5587 17.3406 9.97983V9.93683C17.3406 9.35795 16.8713 8.88867 16.2924 8.88867Z" fill="white"/>
<path d="M9.89062 39.4668H23.9735" stroke="#101C3F" stroke-miterlimit="10"/>
<path d="M9.89062 36.7422H15.8409" stroke="#101C3F" stroke-miterlimit="10"/>
<path d="M56.3641 28.5762H31.6868C30.4132 28.5762 29.3809 29.6085 29.3809 30.8821V55.5594C29.3809 56.8329 30.4132 57.8653 31.6868 57.8653H56.3641C57.6378 57.8653 58.6698 56.8329 58.6698 55.5594V30.8821C58.6698 29.6085 57.6378 28.5762 56.3641 28.5762Z" fill="#153385" stroke="#101C3F" stroke-miterlimit="10"/>
<path d="M57.6767 28.5762H32.9993C31.7258 28.5762 30.6934 29.6085 30.6934 30.8821V55.5594C30.6934 56.8329 31.7258 57.8653 32.9993 57.8653H57.6767C58.9503 57.8653 59.9823 56.8329 59.9823 55.5594V30.8821C59.9823 29.6085 58.9503 28.5762 57.6767 28.5762Z" fill="white" stroke="#101C3F" stroke-miterlimit="10"/>
<path d="M38.2989 51.9958C38.9009 49.7813 39.4062 48.1204 39.4062 48.1204C39.4707 47.7656 39.3901 47.4001 39.1804 47.1044L37.541 44.82C37.541 44.82 33.7301 38.5365 39.4062 33.8225C45.0232 29.4794 50.3285 33.8386 51.0219 34.446C51.7152 35.0534 53.3332 36.6014 53.3278 40.6919L55.2199 43.4762C55.5692 43.9923 55.3596 44.6964 54.7899 44.9383L53.5374 45.465V48.8138C53.5374 49.9103 52.6452 50.8026 51.5486 50.8026H49.0062C49.0062 50.8026 48.6729 52.5065 48.1731 54.5759C48.0118 55.2478 47.3292 55.6563 46.6573 55.4843L39.1751 53.517C38.5139 53.345 38.1161 52.6624 38.2989 52.0012V51.9958Z" fill="#48EFCF" stroke="#101C3F" stroke-miterlimit="10"/>
<path d="M43.9432 43.5797C46.6505 43.5797 48.8453 41.3849 48.8453 38.6775C48.8453 35.9702 46.6505 33.7754 43.9432 33.7754C41.2358 33.7754 39.041 35.9702 39.041 38.6775C39.041 41.3849 41.2358 43.5797 43.9432 43.5797Z" stroke="white" stroke-miterlimit="10"/>
<path d="M43.9419 41.8799C45.7111 41.8799 47.1454 40.4456 47.1454 38.6762C47.1454 36.907 45.7111 35.4727 43.9419 35.4727C42.1726 35.4727 40.7383 36.907 40.7383 38.6762C40.7383 40.4456 42.1726 41.8799 43.9419 41.8799Z" stroke="white" stroke-miterlimit="10"/>
<path d="M43.9418 40.4714C44.9333 40.4714 45.7371 39.6676 45.7371 38.6761C45.7371 37.6846 44.9333 36.8809 43.9418 36.8809C42.9503 36.8809 42.1465 37.6846 42.1465 38.6761C42.1465 39.6676 42.9503 40.4714 43.9418 40.4714Z" stroke="white" stroke-miterlimit="10"/>
</g>
</g>
<defs>
<clipPath id="clip0_6937_41060">
<rect width="56" height="52.8" fill="white" transform="translate(4.26758 5.33398)"/>
</clipPath>
</defs>
</svg>
