<svg width="80" height="80" viewBox="0 0 80 80" fill="none" xmlns="http://www.w3.org/2000/svg">
<g clip-path="url(#clip0_7167_5248)">
<mask id="mask0_7167_5248" style="mask-type:luminance" maskUnits="userSpaceOnUse" x="0" y="4" width="80" height="72">
<path d="M79.3348 4.66602H0.667969V75.2868H79.3348V4.66602Z" fill="white"/>
</mask>
<g mask="url(#mask0_7167_5248)">
<path d="M64.5124 10.2204C63.8139 10.2204 63.1222 10.2742 62.4506 10.3682C60.2745 7.13098 56.5739 5.00195 52.3763 5.00195C47.0772 5.00195 42.5706 8.40706 40.9184 13.1419C40.1528 12.9606 39.3603 12.8599 38.5409 12.8599C32.9396 12.8599 28.4062 17.4 28.4062 22.9946C28.4062 24.1363 28.5943 25.2311 28.9435 26.2519H78.9184C78.9724 25.7415 78.999 25.2311 78.999 24.7072C78.999 16.7015 72.5117 10.2137 64.5057 10.2137L64.5124 10.2204Z" fill="#101C3F" stroke="#101C3F" stroke-miterlimit="10"/>
<path d="M64.5124 12.5173C63.8139 12.5173 63.1222 12.571 62.4506 12.6651C60.2745 9.42785 56.5739 7.29883 52.3763 7.29883C47.0772 7.29883 42.5706 10.7039 40.9184 15.4389C40.1528 15.2575 39.3603 15.1567 38.5409 15.1567C32.9396 15.1567 28.4062 19.6969 28.4062 25.2915C28.4062 26.4333 28.5943 27.528 28.9435 28.5489H78.9184C78.9724 28.0384 78.999 27.528 78.999 27.0041C78.999 18.9984 72.5117 12.5106 64.5057 12.5106L64.5124 12.5173Z" fill="white" stroke="#101C3F" stroke-miterlimit="10"/>
<path d="M35.0153 22.6854C34.3907 22.6854 33.7728 22.7324 33.1683 22.8197C31.2207 19.925 27.9096 18.0176 24.1485 18.0176C19.4002 18.0176 15.3705 21.0668 13.8862 25.3046C13.2011 25.1435 12.4892 25.0494 11.7571 25.0494C6.74689 25.0494 2.68359 29.1127 2.68359 34.123C2.68359 35.1439 2.8515 36.1244 3.16716 37.0446H47.9171C47.9641 36.5878 47.991 36.1312 47.991 35.661C47.991 28.4948 42.1815 22.6854 35.0153 22.6854Z" fill="#101C3F" stroke="#101C3F" stroke-miterlimit="10"/>
<path d="M35.0153 24.7401C34.3907 24.7401 33.7728 24.7871 33.1683 24.8743C31.2207 21.9797 27.9096 20.0723 24.1485 20.0723C19.4002 20.0723 15.3705 23.1215 13.8862 27.3593C13.2011 27.1981 12.4892 27.1041 11.7571 27.1041C6.74689 27.1041 2.68359 31.1674 2.68359 36.1777C2.68359 37.1985 2.8515 38.1791 3.16716 39.0993H47.9171C47.9641 38.6425 47.991 38.1859 47.991 37.7157C47.991 30.5495 42.1815 24.7401 35.0153 24.7401Z" fill="white" stroke="#101C3F" stroke-miterlimit="10"/>
<path d="M35.91 74.9509V32.4108L29.3281 32.431L39.8323 23.3574H41.0479V24.6604L49.0401 32.0885H42.9083V74.9509H35.91Z" fill="#153385"/>
<path d="M40.7096 23.6931V24.808L40.9246 25.0095L48.1848 31.7592H42.57V74.6221H36.2434V32.0816H35.5718L30.2391 32.1017L39.9574 23.7066H40.7096M41.3813 23.0215H39.709L28.4258 32.7667L35.5718 32.7465V75.2867H43.2416V32.4241H49.8974L41.3813 24.5125V23.0215Z" fill="#101C3F"/>
<path d="M37.2469 32.4242V74.9376H44.9168V32.4242H51.5725L41.3774 23.4648L30.8867 32.4242H37.2469Z" fill="#0B64DD" stroke="#101C3F" stroke-miterlimit="10"/>
<path d="M21.335 67.6366V42.4106L16.3516 42.424L24.3372 35.5332H25.1766V36.5003L31.275 42.1621H26.6206V67.6366H21.335Z" fill="#153385"/>
<path d="M24.8412 35.8689V36.648L25.0562 36.8495L30.4157 41.8329H26.2852V67.3073H21.6712V42.0814H20.9996L17.2587 42.0948L24.4584 35.8756H24.8412M25.5129 35.1973H24.2099L15.4453 42.7664L20.9996 42.7463V67.9723H26.9568V42.4978H32.1283L25.5129 36.3525V35.1973Z" fill="#101C3F"/>
<path d="M22.3024 42.499V67.7048H28.2597V42.499H33.4312L25.5128 35.541L17.3594 42.499H22.3024Z" fill="#0B64DD" stroke="#101C3F" stroke-miterlimit="10"/>
<path d="M52.6124 67.6366V42.4106L47.6289 42.424L55.6078 35.5332H56.454V36.5003L62.5456 42.1621H57.898V67.6366H52.6124Z" fill="#153385"/>
<path d="M56.1186 35.8689V36.648L56.3335 36.8495L61.6931 41.8329H57.5626V67.3073H52.9486V42.0814H52.2769L48.5361 42.0948L55.7358 35.8756H56.1186M56.7903 35.1973H55.4873L46.7227 42.7664L52.2769 42.7463V67.9723H58.2342V42.4978H63.4057L56.7903 36.3525V35.1973Z" fill="#101C3F"/>
<path d="M53.5798 42.499V67.7048H59.5371V42.499H64.7019L56.7835 35.541L48.6367 42.499H53.5798Z" fill="#0B64DD" stroke="#101C3F" stroke-miterlimit="10"/>
</g>
</g>
<defs>
<clipPath id="clip0_7167_5248">
<rect width="78.6667" height="70.6667" fill="white" transform="translate(0.667969 4.66602)"/>
</clipPath>
</defs>
</svg>
