<svg width="120" height="120" viewBox="0 0 120 120" fill="none" xmlns="http://www.w3.org/2000/svg">
<mask id="mask0_4509_385" style="mask-type:luminance" maskUnits="userSpaceOnUse" x="6" y="9" width="108" height="102">
<path d="M114 9H6V110.598H114V9Z" fill="white"/>
</mask>
<g mask="url(#mask0_4509_385)">
<path d="M95.0468 9.50167H12.1405C9.02625 9.50167 6.50167 12.0262 6.50167 15.1405V40.5953C6.50167 43.7095 9.02625 46.2341 12.1405 46.2341H95.0468C98.161 46.2341 100.686 43.7095 100.686 40.5953V15.1405C100.686 12.0262 98.161 9.50167 95.0468 9.50167Z" fill="#153385" stroke="#101C3F" stroke-miterlimit="10"/>
<path d="M95.0468 62.8395H12.1405C9.02625 62.8395 6.50167 65.3641 6.50167 68.4783V93.9331C6.50167 97.0474 9.02625 99.5719 12.1405 99.5719H95.0468C98.161 99.5719 100.686 97.0474 100.686 93.9331V68.4783C100.686 65.3641 98.161 62.8395 95.0468 62.8395Z" fill="#153385" stroke="#101C3F" stroke-miterlimit="10"/>
<path d="M93.7124 9.50167H12.1405C9.02625 9.50167 6.50167 12.0262 6.50167 15.1405V38.2475C6.50167 41.3617 9.02625 43.8863 12.1405 43.8863H93.7124C96.8266 43.8863 99.3512 41.3617 99.3512 38.2475V15.1405C99.3512 12.0262 96.8266 9.50167 93.7124 9.50167Z" fill="#0B64DD" stroke="#101C3F" stroke-miterlimit="10"/>
<path d="M21.7325 18.1806L13.9566 31.3746H29.5084L21.7325 18.1806Z" fill="white"/>
<path d="M93.7124 62.408H12.1405C9.02625 62.408 6.50167 64.9326 6.50167 68.0468V91.1538C6.50167 94.268 9.02625 96.7926 12.1405 96.7926H93.7124C96.8266 96.7926 99.3512 94.268 99.3512 91.1538V68.0468C99.3512 64.9326 96.8266 62.408 93.7124 62.408Z" fill="#0B64DD" stroke="#101C3F" stroke-miterlimit="10"/>
<path d="M28.3244 73.0134H15.1404V86.1974H28.3244V73.0134Z" fill="white"/>
<path d="M107.86 34.9967H24.9532C21.839 34.9967 19.3144 37.5213 19.3144 40.6355V66.0903C19.3144 69.2046 21.839 71.7291 24.9532 71.7291H107.86C110.974 71.7291 113.498 69.2046 113.498 66.0903V40.6355C113.498 37.5213 110.974 34.9967 107.86 34.9967Z" fill="#153385" stroke="#101C3F" stroke-miterlimit="10"/>
<path d="M105.632 34.9967H24.0602C20.946 34.9967 18.4214 37.5213 18.4214 40.6355V63.7425C18.4214 66.8567 20.946 69.3813 24.0602 69.3813H105.632C108.746 69.3813 111.271 66.8567 111.271 63.7425V40.6355C111.271 37.5213 108.746 34.9967 105.632 34.9967Z" fill="#48EFCF" stroke="#101C3F" stroke-miterlimit="10"/>
<path d="M109.987 99.913C109.987 99.913 101.639 89.3378 101.237 87.5518C100.836 85.7659 96.5418 71.5585 95.8896 69.9833C95.117 68.107 93.1204 65.2374 89.7692 60.6923C89.1471 59.8495 87.6923 59.7291 87.6923 59.7291L85.9665 57.7123C85.9665 57.7123 84.8127 55.8963 82.2541 56.4281C82.2541 56.4281 81.1003 54.9933 79.7759 55.1137C77.8695 55.2742 76.525 56.0368 76.525 56.0368C76.525 56.0368 70.3645 49.7358 68.9698 48.3612C67.5852 46.9866 66.7023 46.3144 65.709 47.2374C64.7157 48.1605 64.8461 50.5786 66.3812 52.3746C67.9163 54.1705 71.5886 60.3511 71.5886 60.3511C71.5886 60.3511 69.6722 64.5953 69.3712 65.4582C69.0702 66.321 70.4849 67.4047 72.2006 66.9632C72.2006 66.9632 73.0234 69.1103 75.5418 68.2675C75.5418 68.2675 77.1772 72.9933 77.1571 75.2207C77.1371 77.4381 75.612 78.4013 73.7157 76.5552C71.8193 74.709 68.2876 70.7358 64.0735 69.5719C59.8595 68.408 59.6688 71.7592 60.903 72.9331C62.1371 74.107 64.8561 77.2073 66.4414 78.8628C68.0267 80.5284 74.2876 87.3812 77.5886 90.7525C80.8896 94.1237 85.0635 96.1705 86.7491 97.6354C89.8394 100.345 95.1371 109.314 95.1371 109.314C96.6521 112.806 112.485 103.816 109.956 99.913H109.987Z" fill="white" stroke="#101C3F" stroke-miterlimit="10"/>
<path d="M71.6086 60.3411C71.6086 60.3411 73.6654 63.9631 75.5718 68.2575" stroke="#101C3F" stroke-linecap="round" stroke-linejoin="round"/>
<path d="M72.2308 66.9431C72.2308 66.9431 73.2843 66.4414 73.8161 64.6153" stroke="#101C3F" stroke-linecap="round" stroke-linejoin="round"/>
<path d="M76.535 56.0268C76.535 56.0268 76.9966 56.4582 77.7491 57.4515C78.3009 58.1839 81.7424 65.0268 82.3544 65.8796C82.9564 66.7425 84.4414 67.1037 84.4414 67.1037" stroke="#101C3F" stroke-linecap="round" stroke-linejoin="round"/>
<path d="M82.2542 56.4181L88.495 64.806" stroke="#101C3F" stroke-linecap="round" stroke-linejoin="round"/>
<path d="M87.7023 59.719L91.7458 65.5785" stroke="#101C3F" stroke-linecap="round" stroke-linejoin="round"/>
<path d="M36.1003 59.9699C40.3949 59.9699 43.8763 56.4886 43.8763 52.194C43.8763 47.8995 40.3949 44.4181 36.1003 44.4181C31.8058 44.4181 28.3244 47.8995 28.3244 52.194C28.3244 56.4886 31.8058 59.9699 36.1003 59.9699Z" fill="white"/>
</g>
</svg>
