<svg width="100%" height="auto" viewBox="0 0 676 380" fill="none" xmlns="http://www.w3.org/2000/svg">
    <g clip-path="url(#clip0_736_26044)">
        <mask id="mask0_736_26044" maskUnits="userSpaceOnUse" x="-1" y="0" width="677" height="380">
            <path d="M675.204 0H-0.351837V380H675.204V0Z" fill="white" />
        </mask>
        <g mask="url(#mask0_736_26044)">
            <path
                d="M381.443 289.493L469.539 291.986C474.799 292.268 478.849 287.628 478.012 282.281L468.515 218.147C467.822 213.736 464.001 210.445 459.67 210.531L371.841 212.396C366.791 212.502 363.125 217.105 364.001 222.24L373.23 282.015C373.938 286.134 377.382 289.275 381.443 289.493Z"
                fill="#153385" stroke="#101C3F" strokeWidth="0.703704" strokeLinecap="round" strokeLinejoin="round" />
            <path
                d="M450.75 256.969L443.882 208.904L379.504 210.27C374.455 210.376 370.789 214.979 364.293 219.875L372.608 273.686L433.893 274.733C448.073 273.797 451.602 262.944 450.75 256.964V256.969Z"
                fill="#0E2A78" />
            <path
                d="M105.27 218.929L210.171 217.499C216.387 217.52 221.177 211.854 220.187 205.651L208.218 130.372C207.398 125.248 202.875 121.623 197.75 121.979L93.8653 129.298C87.8887 129.718 83.5567 135.315 84.6 141.273L95.5577 210.664C96.3933 215.442 100.475 218.913 105.275 218.929H105.27Z"
                fill="#ABB4C4" stroke="#153385" strokeWidth="0.703704" strokeLinecap="round" strokeLinejoin="round" />
            <path
                d="M107.612 204.657L98.0695 146.929C97.6491 144.393 99.5223 142.06 102.088 141.917C104.28 141.794 106.212 143.341 106.579 145.504L116.239 203.233C116.68 205.864 114.653 208.256 111.986 208.256H111.87C109.762 208.256 107.958 206.73 107.612 204.652V204.657Z"
                fill="#101C3F" />
            <path
                d="M102.577 174.642L99.331 155.029C98.9105 152.494 100.784 150.161 103.349 150.017C105.542 149.895 107.474 151.441 107.841 153.605L111.204 173.218C111.646 175.849 109.618 178.241 106.952 178.241H106.835C104.727 178.241 102.923 176.715 102.577 174.637V174.642Z"
                fill="#0B64DD" />
            <path
                d="M123.929 203.44L114.387 145.711C113.966 143.176 115.839 140.843 118.405 140.699C120.598 140.577 122.529 142.124 122.897 144.287L132.556 202.015C132.998 204.647 130.97 207.038 128.303 207.038H128.187C126.079 207.038 124.275 205.513 123.929 203.435V203.44Z"
                fill="#101C3F" />
            <path
                d="M123.056 198.136L119.81 178.522C119.389 175.987 121.263 173.654 123.828 173.51C126.02 173.388 127.952 174.934 128.32 177.098L131.683 196.711C132.125 199.342 130.097 201.734 127.431 201.734H127.314C125.206 201.734 123.402 200.208 123.056 198.13V198.136Z"
                fill="#0B64DD" />
            <path
                d="M148.005 203.498L201.688 202.6C204.902 202.611 207.382 199.682 206.866 196.472L201.241 157.703C200.815 155.056 198.479 153.179 195.828 153.366L142.103 157.15C139.011 157.368 136.771 160.259 137.314 163.342L142.982 199.225C143.413 201.697 145.526 203.493 148.005 203.498Z"
                stroke="#153385" strokeWidth="0.703704" strokeLinecap="round" strokeLinejoin="round" />
            <path d="M150.932 187.165L179.703 186.081" stroke="#153385" strokeWidth="0.703704" strokeLinecap="round"
                strokeLinejoin="round" />
            <path d="M171.747 192.619L177.947 192.48" stroke="#153385" strokeWidth="0.703704" strokeLinecap="round"
                strokeLinejoin="round" />
            <path d="M151.837 193.059L168.053 192.698" stroke="#153385" strokeWidth="0.703704" strokeLinecap="round"
                strokeLinejoin="round" />
            <path
                d="M370.352 189.222L543.555 178.57C549.459 178.209 553.818 172.893 553.016 167.015L533.988 27.2885C533.224 21.6703 528.035 17.7583 522.43 18.5716L349.67 43.6487C344.092 44.4565 340.234 49.6551 341.059 55.2358L359.642 180.531C360.419 185.767 365.071 189.541 370.345 189.216L370.352 189.222Z"
                fill="#153385" />
            <path
                d="M366.193 188.733L537.528 178.193C543.372 177.831 547.682 172.585 546.89 166.792L528.098 28.9363C527.341 23.3925 522.208 19.5337 516.666 20.3363L345.769 45.1106C340.25 45.9132 336.429 51.0368 337.248 56.5437L355.61 180.165C356.377 185.331 360.972 189.052 366.193 188.733Z"
                fill="#ABB4C4" stroke="#101C3F" strokeWidth="0.703704" strokeLinecap="round" strokeLinejoin="round" />
            <path d="M505.699 41.1825L346.088 61.7788" stroke="#1C1E23" strokeWidth="3.51852" strokeLinecap="round"
                strokeLinejoin="round" strokeDasharray="0.02 13.65" />
            <path d="M508.834 64.4684L349.228 85.0647" stroke="#1C1E23" strokeWidth="3.51852" strokeLinecap="round"
                strokeLinejoin="round" strokeDasharray="0.02 13.65" />
            <path d="M511.973 87.749L352.369 108.351" stroke="#1C1E23" strokeWidth="3.51852" strokeLinecap="round"
                strokeLinejoin="round" strokeDasharray="0.02 13.65" />
            <path d="M515.111 111.035L355.054 130.739" stroke="#1C1E23" strokeWidth="3.51852" strokeLinecap="round"
                strokeLinejoin="round" strokeDasharray="0.02 13.65" />
            <path d="M518.246 134.321L358.196 150.437" stroke="#1C1E23" strokeWidth="3.51852" strokeLinecap="round"
                strokeLinejoin="round" strokeDasharray="0.02 13.65" />
            <path d="M521.388 157.602L361.781 172.83" stroke="#1C1E23" strokeWidth="3.51852" strokeLinecap="round"
                strokeLinejoin="round" strokeDasharray="0.02 13.65" />
            <g>
                <path
                    d="M419.999 86.6541L346.891 94.5472L359.642 180.537C360.222 184.438 362.949 187.521 366.485 188.712L443.608 183.965L430.92 95.1267C430.164 89.8274 425.333 86.0802 420.006 86.6541H419.999Z"
                    fill="#C5CEDE" />
            </g>
            <path
                d="M206.845 266.404L421.409 267.797C435.586 266.861 439.227 255.678 438.372 249.698L416.871 84.9107C416.114 79.6114 411.283 75.8642 405.956 76.4384L182.215 100.596C176.552 101.207 172.556 106.437 173.46 112.056L197.005 258.054C197.782 262.875 201.954 266.42 206.845 266.41V266.404Z"
                fill="#101C3F" />
            <path
                d="M204.391 266.797L421.325 267.281C427.37 267.271 432.011 261.918 431.152 255.938L406.874 86.2023C406.118 80.9031 401.287 77.1558 395.96 77.7301L179.767 100.984C174.104 101.595 170.107 106.825 171.012 112.444L194.557 258.442C195.333 263.263 199.506 266.808 204.397 266.797H204.391Z"
                fill="white" stroke="#153385" strokeWidth="0.703704" strokeLinecap="round" strokeLinejoin="round" />
            <path
                d="M294.7 73.1215L423.352 57.6492C428.805 56.9955 432.595 51.9935 431.831 46.4554L418.162 -52.3439C417.363 -58.1217 411.741 -63.8569 401.97 -62.4002L277.85 -38.9176C272.608 -38.0088 269.101 -33.0816 269.883 -27.7186L283.342 64.2932C284.151 69.8317 289.234 73.7809 294.7 73.1272V73.1215Z"
                fill="#101C3F" />
            <path
                d="M289.766 72.7176L418.419 57.2453C423.872 56.5912 427.662 51.5896 426.895 46.0511L413.229 -52.7479C412.43 -58.5256 407.001 -62.5652 401.361 -61.5871L272.922 -39.3219C267.68 -38.4127 264.173 -33.4856 264.955 -28.1226L278.414 63.8889C279.223 69.4274 284.305 73.3766 289.771 72.7229L289.766 72.7176Z"
                fill="#153385" stroke="#101C3F" strokeWidth="0.703704" strokeLinecap="round" strokeLinejoin="round" />
            <path
                d="M250.889 229.543L190.187 231.393L194.551 258.442C195.328 263.263 199.5 266.808 204.391 266.797L260.74 266.643L255.903 233.769C255.541 231.297 253.39 229.484 250.889 229.538V229.543Z"
                fill="#C5CEDE" />
            <path
                d="M176.797 299.64L251.438 302.59C256.472 302.165 258.202 298.162 257.755 295.143L248.202 230.191C247.84 227.72 245.69 225.908 243.188 225.961L167.292 227.645C164.301 227.709 162.05 230.388 162.502 233.343L171.97 295.436C172.332 297.827 174.376 299.603 176.792 299.64H176.797Z"
                fill="#101C3F" />
            <path
                d="M174.088 300.581L250.07 301.756C253.124 301.803 255.493 299.103 255.051 296.084L245.498 231.132C245.136 228.661 242.986 226.848 240.485 226.902L164.589 228.586C161.598 228.65 159.347 231.329 159.799 234.284L169.267 296.376C169.628 298.768 171.672 300.544 174.088 300.581Z"
                fill="#0B64DD" stroke="#101C3F" strokeWidth="0.703704" strokeLinecap="round" strokeLinejoin="round" />
            <path
                d="M177.457 250.767C181.151 251.936 185.158 255.083 186.797 259.239C186.952 259.633 187.468 259.648 187.521 259.26C188.053 255.598 190.443 251.771 194.109 250.676C194.455 250.575 194.386 250.017 194.008 249.9C190.315 248.71 186.276 245.499 184.679 241.29C184.53 240.896 184.014 240.881 183.955 241.263C183.338 245.335 180.709 248.923 177.345 249.985C177.005 250.092 177.079 250.644 177.452 250.761L177.457 250.767Z"
                fill="white" />
            <path d="M197.782 256.635L231.193 256.13" stroke="white" strokeWidth="0.703704" strokeLinecap="round"
                strokeLinejoin="round" />
            <path d="M183.306 268.286L232.518 267.743" stroke="white" strokeWidth="0.703704" strokeLinecap="round"
                strokeLinejoin="round" />
            <path d="M184.141 280.245L233.715 280.176" stroke="white" strokeWidth="0.703704" strokeLinecap="round"
                strokeLinejoin="round" />
            <path
                d="M279.01 121.187L274.316 91.2039L179.756 100.984C174.093 101.595 170.097 106.825 171.608 112.444L176.685 144.59L264.385 139.429C273.699 138.855 280.484 130.388 279.01 121.187Z"
                fill="#C5CEDE" />
            <path
                d="M162.912 137.664L262.725 131.499C268.665 131.132 272.991 125.731 272.055 119.864L262.257 58.6643C261.406 53.3492 256.52 49.6442 251.166 50.2557L151.566 61.6142C145.818 62.268 141.805 67.615 142.779 73.3077L152.364 129.314C153.231 134.38 157.782 137.978 162.918 137.664H162.912Z"
                fill="#101C3F" />
            <path
                d="M159.33 138.903L259.143 132.737C265.083 132.37 269.409 126.97 268.473 121.102L258.675 59.9028C257.824 54.5874 252.938 50.8827 247.584 51.4939L147.984 62.8527C142.236 63.5065 138.224 68.8535 139.198 74.5462L148.782 130.553C149.65 135.618 154.2 139.216 159.336 138.903H159.33Z"
                fill="#48EFCF" stroke="#101C3F" strokeWidth="0.703704" strokeLinecap="round" strokeLinejoin="round" />
            <path
                d="M240.9 66.7488C242.581 76.0876 250.878 82.4234 259.431 80.9031C260.293 80.749 261.129 80.5203 261.927 80.2229L258.675 59.9028C257.824 54.5874 252.938 50.8827 247.584 51.4939L244.955 51.7916C241.554 55.5602 239.883 61.0509 240.905 66.7435L240.9 66.7488Z"
                fill="#101C3F" />
            <g>
                <path
                    d="M496.604 149.841L390.506 157.968C386.509 158.277 383.575 161.949 384.176 165.898L387.449 187.42L507.258 180.048L503.718 155.518C503.218 152.037 500.126 149.565 496.607 149.836L496.604 149.841Z"
                    fill="#C5CEDE" />
            </g>
            <path
                d="M387.083 243.044L387.632 245.898C388.1 248.338 390.26 250.086 392.744 250.033L429.562 249.241L428.587 242.081L387.076 243.044H387.083Z"
                fill="#C5CEDE" />
            <path
                d="M392.287 241.641L496.635 240.003C503.071 239.679 505.724 234.274 505.14 230.202L493.261 147.875C492.761 144.393 489.669 141.922 486.15 142.193L380.053 150.32C376.056 150.628 373.125 154.301 373.726 158.25L385.538 235.996C386.045 239.323 388.919 241.725 392.287 241.646V241.641Z"
                fill="#101C3F" />
            <path
                d="M388.195 242.741L494.496 240.147C498.62 240.046 501.772 236.32 501.185 232.249L489.169 148.97C488.669 145.488 485.577 143.017 482.058 143.288L375.961 151.415C371.964 151.723 369.029 155.396 369.631 159.345L381.446 237.091C381.953 240.418 384.827 242.82 388.195 242.741Z"
                fill="#F04E98" stroke="#101C3F" strokeWidth="0.703704" strokeLinecap="round" strokeLinejoin="round" />
            <path d="M173.008 132.036L158.729 132.971" stroke="#101C3F" strokeWidth="0.703704" strokeLinecap="round"
                strokeLinejoin="round" />
            <path
                d="M213.109 92.3946C211.618 92.5381 210.192 91.4857 209.932 90.0452L208.149 80.2173C207.334 75.7368 202.891 72.5209 198.234 73.042C193.583 73.5575 190.458 77.5651 191.267 81.9875L193.051 91.6877C193.311 93.112 192.311 94.3772 190.821 94.5208C189.33 94.6587 187.904 93.6225 187.643 92.2084L185.86 82.5508C184.525 75.3329 189.65 68.7631 197.287 67.8863C204.918 67.0039 212.215 72.2711 213.551 79.6487L215.333 89.5136C215.594 90.9593 214.594 92.251 213.103 92.3946H213.109Z"
                fill="white" stroke="#101C3F" strokeWidth="0.703704" strokeLinecap="round" strokeLinejoin="round" />
            <path
                d="M222.805 124.791L192.869 126.896C189.751 127.108 186.781 124.871 186.238 121.905L181.635 96.9018C181.092 93.9571 183.178 91.3264 186.291 91.0287L216.227 88.0893C219.346 87.7758 222.315 89.9869 222.858 93.0272L227.462 118.832C228.005 121.899 225.919 124.568 222.805 124.791Z"
                fill="#48EFCF" stroke="#101C3F" strokeWidth="0.703704" strokeLinecap="round" strokeLinejoin="round" />
            <path
                d="M208.766 103.737C208.266 100.973 205.387 98.9907 202.518 99.5702C200.293 100.017 198.803 101.973 199.006 104.173C199.197 106.209 200.688 107.888 202.588 108.547C202.811 108.627 202.971 108.824 202.992 109.042L203.668 116.536C203.694 116.85 203.998 117.1 204.322 117.073L208.133 116.781C208.457 116.754 208.665 116.467 208.58 116.159L206.557 108.744C206.499 108.526 206.579 108.308 206.77 108.197C208.266 107.304 209.107 105.597 208.766 103.732V103.737Z"
                fill="#101C3F" />
            <path
                d="M254.626 79.5766C263.754 77.8458 269.686 68.7206 267.875 59.1945C266.064 49.6688 257.196 43.3496 248.069 45.0803C238.941 46.8111 233.009 55.9364 234.82 65.4624C236.631 74.9881 245.498 81.3074 254.626 79.5766Z"
                fill="#101C3F" />
            <path
                d="M252.505 79.4242C261.037 77.8061 266.519 68.9383 264.747 59.6171C262.975 50.2962 254.621 44.0515 246.088 45.6693C237.555 47.2875 232.074 56.1552 233.846 65.4765C235.618 74.7974 243.972 81.042 252.505 79.4242Z"
                fill="white" stroke="#101C3F" strokeWidth="0.703704" strokeLinecap="round" strokeLinejoin="round" />
            <path d="M241.948 65.5261L247.063 69.5337L254.79 56.2087" stroke="#101C3F" strokeWidth="2.11111"
                strokeLinecap="round" strokeLinejoin="round" />
            <path
                d="M132.971 355.986L132.742 359.849C132.742 359.849 134.003 365.001 134.541 366.922C135.078 368.839 133.769 368.832 132.678 367.154C131.587 365.476 127.425 359.871 127.425 359.871L129.235 357.985L130.054 355.307L132.971 355.986Z"
                fill="#0A52B3" />
            <path
                d="M140.012 294.102C140.012 294.102 141.268 309.744 139.788 325.664L132.396 325.743L129.586 295.425L140.012 294.102Z"
                fill="#0A52B3" />
            <path
                d="M139.767 325.488L133.53 358.442L127.952 357.232L132.455 325.52C132.167 321.406 139.464 320.55 139.762 325.493L139.767 325.488Z"
                fill="#0A52B3" />
            <path
                d="M137.941 300.985L140.581 304.748C140.581 304.748 140.735 313.47 139.98 325.079L138.096 334.264C138.474 330.899 138.809 327.635 138.548 325.908C138.548 325.908 137.814 324.207 137.702 323.76C137.431 322.676 137.92 321.098 138.298 318.615C138.676 316.133 137.941 300.985 137.941 300.985Z"
                fill="#FF957D" />
            <path
                d="M144.551 291.194C144.551 291.194 156.249 309.542 158.468 318.163L151.592 320.922L133.934 295.569L144.551 291.194Z"
                fill="#0A52B3" />
            <path
                d="M139.693 345.394L138.117 348.928C138.117 348.928 137.484 354.195 137.308 356.18C137.132 358.161 135.909 357.7 135.483 355.743C135.057 353.787 133.136 347.078 133.136 347.078L135.494 345.946L137.207 343.724L139.693 345.388V345.394Z"
                fill="#0A52B3" />
            <path
                d="M158.511 318.86L140.645 347.386L135.291 343.873L150.326 319.264C152.454 314.868 158.186 314.82 158.511 318.86Z"
                fill="#0A52B3" />
            <path
                d="M158.202 317.228C158.202 317.228 157.383 315.384 156.664 315.177C155.946 314.969 154.919 315.485 154.408 314.969C153.897 314.459 155.435 314.459 155.333 313.635C155.232 312.816 145.605 296.605 144.993 295.781C144.376 294.963 142.024 295.526 138.628 295.68L146.079 292.789C146.079 292.789 155.85 309.33 158.207 317.223L158.202 317.228Z"
                fill="#FF957D" />
            <path
                d="M129.15 241.641C129.15 241.641 127.968 243.123 126.004 244.309C124.461 245.239 119.661 247.663 119.884 251.941C120.023 254.673 121.353 256.879 123.95 258.591C125.531 259.633 126.318 260.435 126.318 260.435L126.568 264.049L131.625 263.725L130.672 259.26C130.672 259.26 134.748 257.778 134.152 256.082C133.668 254.705 132.965 253.759 132.965 253.759C132.965 253.759 134.019 252.627 134.046 252.223C134.072 251.819 132.497 251.389 131.241 249.773L130.566 248.423C130.566 248.423 131.859 247.36 131.938 245.111C131.938 245.111 131.635 245.377 131.215 245.68C131.215 245.68 131.369 244.234 130.794 243.32C129.746 241.646 129.155 241.646 129.155 241.646L129.15 241.641Z"
                fill="#0A52B3" />
            <path
                d="M130.672 259.25C130.672 259.25 129.368 259.723 128.666 259.85C128.666 259.85 129.517 261.068 130.72 263.252L131.614 263.284L130.677 259.25H130.672Z"
                fill="#FF957D" />
            <path
                d="M115.419 304.775C114.445 301.819 114.967 291.747 115.254 287.415C115.499 283.774 117.883 270.561 119.538 269.455L124.227 278.964L120.47 287.49C119.538 290.7 118.612 304.206 118.612 304.206L115.424 304.775H115.419Z"
                fill="#0A52B3" />
            <path
                d="M134.381 265.261L132.572 263.061C132.572 263.061 128.586 262.646 125.637 263.199L124.296 267.111L134.381 265.256V265.261Z"
                fill="#0A52B3" />
            <path
                d="M119.533 269.46C119.533 269.46 123.716 266.425 127.351 265.601C130.986 264.778 136.824 265.187 138.91 265.931C138.91 265.931 142.263 282.195 143.12 284.433C143.977 286.671 146.068 292.799 146.068 292.799C146.068 292.799 141.518 297.726 128.532 296.78C128.532 296.78 126.255 286.007 125.637 284.061C125.02 282.116 119.251 272.825 119.533 269.46Z"
                fill="#0A52B3" />
            <path
                d="M118.33 303.244C118.33 303.244 120.087 306.358 120.704 307.15C121.321 307.942 122.551 309.138 122.018 309.542C121.486 309.946 119.916 308.038 119.368 308.288C118.591 308.639 119.927 311.238 120.401 312.28C120.8 313.157 120.214 313.593 119.539 312.705C118.863 311.817 117.894 310.031 117.894 310.031C117.867 310.738 118.66 313.406 118.134 313.561C117.702 313.688 116.973 311.413 116.973 311.413C116.973 311.413 116.106 309.819 115.861 308.756C115.611 307.693 115.329 304.184 115.329 304.184C115.478 302.787 117.75 301.846 118.336 303.244H118.33Z"
                fill="#0A52B3" />
            <path
                d="M152.364 300.592C149.841 298.763 144.285 290.339 142.061 286.613C139.836 282.886 134.934 271.687 134.934 271.687C132.949 267.271 139.144 262.567 142.284 269.003L146.329 283.631C147.452 286.777 154.615 298.274 154.615 298.274L152.359 300.597L152.364 300.592Z"
                fill="#0A52B3" />
            <path
                d="M154.397 298.104C154.397 298.104 157.516 299.853 158.458 300.209C159.395 300.565 161.071 300.953 160.826 301.564C160.581 302.181 158.245 301.367 157.904 301.867C157.425 302.569 159.916 304.1 160.868 304.743C161.667 305.285 161.396 305.96 160.352 305.556C159.266 305.131 157.553 304.126 157.553 304.126C157.899 304.743 159.964 306.614 159.596 307.018C159.293 307.352 157.489 305.785 157.489 305.785C157.489 305.785 155.919 304.875 155.153 304.094C154.386 303.313 152.316 300.469 152.316 300.469C151.715 299.199 153.168 297.211 154.392 298.104H154.397Z"
                fill="#0A52B3" />
            <path
                d="M132.966 253.749C132.966 253.749 134.12 252.611 134.046 252.212C133.971 251.814 133.742 251.787 133.056 251.351C132.348 250.9 131.651 250.049 131.241 249.762L130.565 248.412L130.4 248.582C130.4 248.582 129.575 250.347 130.278 251.298C130.752 251.941 131.64 251.979 131.912 252.409C131.912 252.409 132.268 253.993 132.848 254.923C133.146 255.402 134.008 255.731 134.008 255.731C134.008 255.731 133.519 254.418 132.971 253.754L132.966 253.749Z"
                fill="#FF957D" />
            <path
                d="M131.614 263.284L132.822 265.059C132.822 265.059 131.561 265.362 129.144 265.671C129.144 265.671 133.258 265.782 135.621 266.176C137.984 266.569 139.73 267.722 140.517 269.21C141.305 270.699 142.007 274.366 142.444 276.072C142.88 277.779 141.002 279.447 141.31 280.101C141.619 280.755 142.859 278.895 143.125 279.166C143.934 280 145.419 284.55 146.34 286.214C147.26 287.872 152.518 294.697 152.518 294.697L146.334 283.631C146.334 283.631 142.572 269.928 142.29 269.003C142.007 268.078 140.784 266.027 138.421 265.676C136.058 265.325 134.269 265.112 134.269 265.112L132.838 263.369L131.608 263.284H131.614Z"
                fill="#FF957D" />
            <path
                d="M249.66 183.402C269.808 188.207 291.49 203.02 300.053 223.733C300.867 225.7 303.683 225.61 304.034 223.611C307.36 204.769 320.888 184.497 341.149 177.783C343.07 177.146 342.74 174.345 340.681 173.845C320.521 168.923 298.691 153.791 290.372 132.817C289.595 130.861 286.748 130.935 286.392 132.918C282.56 153.892 267.744 172.995 249.149 179.474C247.265 180.133 247.627 182.923 249.66 183.407V183.402Z"
                fill="#101C3F" />
            <path
                d="M323.284 177.821C303.124 172.899 281.293 157.766 272.975 136.793C272.512 135.634 271.331 135.193 270.362 135.437V135.405L261.884 138.669C261.884 138.669 265.03 168.944 231.751 183.455C229.921 184.252 230.229 186.904 232.262 187.388C247.632 191.056 272.241 213.433 272.241 213.433L277.211 232.179L285.364 229.054C285.987 228.863 286.503 228.379 286.642 227.598C289.968 208.755 303.496 188.483 323.757 181.77C325.678 181.132 325.348 178.331 323.289 177.831L323.284 177.821Z"
                fill="url(#paint0_linear_736_26044)" stroke="#101C3F" strokeWidth="0.703704" strokeLinecap="round"
                strokeLinejoin="round" />
            <path
                d="M224.152 190.482C244.301 195.287 265.982 210.1 274.545 230.813C275.359 232.78 278.175 232.689 278.526 230.691C281.852 211.849 295.381 191.576 315.641 184.863C317.563 184.225 317.232 181.424 315.173 180.925C295.013 176.003 273.183 160.871 264.865 139.897C264.088 137.941 261.24 138.015 260.884 139.998C257.052 160.972 242.236 180.074 223.641 186.554C221.757 187.213 222.119 190.003 224.152 190.487V190.482Z"
                fill="white" stroke="#101C3F" strokeWidth="0.703704" strokeLinecap="round" strokeLinejoin="round" />
            <path
                d="M316.599 184.741C316.599 184.741 320.404 182.785 323.752 181.765C323.752 181.765 326.424 180.749 324.119 178.108L323.284 177.826L314.364 180.616C314.364 180.616 316.195 181.02 316.668 182.243C317.142 183.46 316.599 184.746 316.599 184.746V184.741Z"
                fill="#101C3F" />
            <path
                d="M453.326 169.221L419.527 171.389C413.968 171.746 409.686 176.752 409.957 182.572C410.228 188.393 414.949 192.82 420.505 192.464L421.42 192.406C421.969 192.368 422.437 192.81 422.461 193.384L422.792 200.453C422.831 201.272 423.816 201.59 424.298 200.947L430.983 192.145C431.163 191.911 431.43 191.762 431.712 191.747L454.304 190.296C459.86 189.939 464.145 184.932 463.874 179.112C463.6 173.292 458.882 168.865 453.326 169.221Z"
                fill="#FF957D" />
            <path
                d="M442.25 196.945L476.214 195.43C481.798 195.18 486.541 199.677 486.801 205.476C487.065 211.275 482.755 216.175 477.171 216.425L476.256 216.468C475.704 216.494 475.278 216.978 475.306 217.552L475.623 224.595C475.662 225.408 474.708 225.833 474.159 225.248L466.679 217.249C466.475 217.036 466.2 216.919 465.912 216.93L443.214 217.94C437.63 218.19 432.89 213.693 432.626 207.894C432.363 202.095 436.673 197.195 442.257 196.945H442.25Z"
                fill="white" />
            <path
                d="M432.51 181.132C432.616 182.307 431.916 183.263 430.934 183.274C429.963 183.28 429.083 182.334 428.978 181.159C428.872 179.984 429.572 179.027 430.554 179.017C431.525 179.011 432.405 179.957 432.51 181.132Z"
                fill="white" />
            <path
                d="M438.914 180.904C439.02 182.078 438.316 183.035 437.338 183.046C436.363 183.051 435.487 182.105 435.378 180.93C435.272 179.755 435.976 178.799 436.954 178.788C437.929 178.783 438.805 179.729 438.914 180.904Z"
                fill="white" />
            <path
                d="M445.314 180.67C445.423 181.844 444.72 182.801 443.741 182.812C442.767 182.817 441.887 181.871 441.782 180.696C441.676 179.522 442.376 178.565 443.358 178.554C444.333 178.549 445.209 179.495 445.314 180.67Z"
                fill="white" />
            <path
                d="M453.952 207.214C454.058 208.389 453.358 209.345 452.376 209.356C451.405 209.361 450.525 208.415 450.42 207.24C450.314 206.066 451.014 205.109 451.996 205.098C452.967 205.093 453.847 206.039 453.952 207.214Z"
                fill="#F04E98" />
            <path
                d="M460.356 206.985C460.461 208.16 459.758 209.117 458.78 209.127C457.805 209.133 456.929 208.186 456.82 207.012C456.714 205.837 457.418 204.881 458.396 204.87C459.371 204.865 460.25 205.811 460.356 206.985Z"
                fill="#F04E98" />
            <path
                d="M466.763 206.751C466.869 207.926 466.168 208.883 465.187 208.893C464.212 208.899 463.336 207.953 463.231 206.778C463.121 205.603 463.825 204.647 464.803 204.636C465.778 204.631 466.658 205.577 466.763 206.751Z"
                fill="#F04E98" />
            <path d="M476.562 233.519L389.44 235.996" stroke="#101C3F" strokeWidth="0.703704" strokeLinecap="round"
                strokeLinejoin="round" />
            <path d="M492.037 233.014L484.331 233.306" stroke="#101C3F" strokeWidth="0.703704" strokeLinecap="round"
                strokeLinejoin="round" />
            <path
                d="M353.984 48.5865C352.693 48.7727 351.479 47.8691 351.277 46.5616L338.962 -32.0877C338.76 -33.3899 339.638 -34.5965 340.931 -34.7825C342.224 -34.9685 343.438 -34.0649 343.64 -32.7574L355.954 45.8917C356.159 47.1939 355.279 48.4008 353.984 48.5865Z"
                fill="#0A52B3" />
            <path
                d="M364.374 35.1975L363.667 35.2985C362.569 35.4579 361.538 34.6873 361.366 33.5817L352.58 -22.5151C352.404 -23.6206 353.157 -24.6465 354.251 -24.8059L354.959 -24.9069C356.056 -25.0664 357.087 -24.2957 357.26 -23.1901L366.046 32.9067C366.221 34.0122 365.472 35.0381 364.374 35.1975Z"
                fill="#0A52B3" />
            <path
                d="M374.384 23.9931C373.093 24.1792 371.879 23.2756 371.675 21.968L365.993 -14.3296C365.789 -15.6318 366.668 -16.8383 367.96 -17.0244C369.254 -17.2104 370.468 -16.3068 370.669 -14.9993L376.355 21.2983C376.555 22.6005 375.679 23.8071 374.384 23.9931Z"
                fill="#0A52B3" />
            <path
                d="M384.775 12.8843C383.48 13.0703 382.266 12.1667 382.065 10.8592L379.324 -6.63847C379.12 -7.94071 380 -9.14725 381.291 -9.33327C382.586 -9.51933 383.8 -8.61574 384.001 -7.30819L386.742 10.1895C386.946 11.4917 386.066 12.6983 384.775 12.8843Z"
                fill="#0A52B3" />
            <path
                d="M330.543 -21.3934L331.251 -21.4944C332.347 -21.6539 333.379 -20.8832 333.55 -19.7776L342.336 36.3192C342.512 37.4248 341.761 38.4504 340.665 38.6101L339.957 38.7111C338.861 38.8705 337.828 38.0996 337.658 36.9941L328.871 -19.1026C328.696 -20.2082 329.446 -21.234 330.543 -21.3934Z"
                fill="#0A52B3" />
            <path
                d="M320.532 -10.1944C321.825 -10.3804 323.039 -9.47683 323.241 -8.16928L328.925 28.1283C329.127 29.4306 328.249 30.6371 326.956 30.8232C325.663 31.0092 324.449 30.1056 324.247 28.798L318.563 -7.49957C318.361 -8.80177 319.239 -10.0083 320.532 -10.1944Z"
                fill="#0A52B3" />
            <path
                d="M310.144 0.914402C311.437 0.728371 312.65 1.63195 312.853 2.9395L315.593 20.4372C315.795 21.7394 314.917 22.946 313.624 23.132C312.331 23.318 311.118 22.4144 310.915 21.1069L308.174 3.60922C307.972 2.30699 308.85 1.10044 310.144 0.914402Z"
                fill="#0A52B3" />
            <path
                d="M303.236 34.2409C301.942 34.4269 300.729 33.5233 300.527 32.2158L294.843 -4.08181C294.641 -5.38405 295.519 -6.59062 296.812 -6.77664C298.105 -6.96266 299.319 -6.05907 299.521 -4.75156L305.205 31.546C305.407 32.8483 304.529 34.0549 303.236 34.2409Z"
                fill="#0A52B3" />
            <path
                d="M391.681 -20.442C392.973 -20.6281 394.187 -19.7245 394.391 -18.417L400.073 17.8806C400.277 19.1829 399.398 20.3894 398.106 20.5755C396.811 20.7615 395.598 19.8579 395.397 18.5504L389.711 -17.7472C389.511 -19.0495 390.387 -20.256 391.681 -20.442Z"
                fill="#0A52B3" />
        </g>
    </g>
    <defs>
        <linearGradient id="paint0_linear_736_26044" x1="272.752" y1="148.709" x2="284.744" y2="229.755"
            gradientUnits="userSpaceOnUse">
            <stop stop-color="#48EFCF" />
            <stop offset="0.1" stop-color="#3DD5D1" />
            <stop offset="0.3" stop-color="#2BADD5" />
            <stop offset="0.49" stop-color="#1D8DD8" />
            <stop offset="0.67" stop-color="#1376DB" />
            <stop offset="0.85" stop-color="#0D68DC" />
            <stop offset="1" stop-color="#0B64DD" />
        </linearGradient>
        <clipPath id="clip0_736_26044">
            <rect width="675.556" height="380" fill="white" />
        </clipPath>
    </defs>
</svg>