<svg width="120" height="120" viewBox="0 0 120 120" fill="none" xmlns="http://www.w3.org/2000/svg">
<mask id="mask0_4916_76765" style="mask-type:luminance" maskUnits="userSpaceOnUse" x="0" y="0" width="120" height="120">
<path d="M120 0H0V120H120V0Z" fill="white"/>
</mask>
<g mask="url(#mask0_4916_76765)">
<path d="M97.8771 8.92723C96.8116 8.92723 95.7564 9.00885 94.7318 9.15168C91.4125 4.23415 85.7675 1 79.3643 1C71.281 1 64.4065 6.17259 61.8863 13.3653C60.7184 13.0898 59.5095 12.9367 58.2595 12.9367C49.7152 12.9367 42.7998 19.8336 42.7998 28.3321C42.7998 30.0665 43.0867 31.7295 43.6194 33.2802H119.852C119.935 32.5049 119.976 31.7295 119.976 30.9337C119.976 18.7725 110.079 8.91703 97.8668 8.91703L97.8771 8.92723Z" fill="#153385" stroke="#101C3F" stroke-miterlimit="10"/>
<path d="M97.8771 12.4164C96.8116 12.4164 95.7564 12.4979 94.7318 12.6408C91.4125 7.72328 85.7675 4.48914 79.3643 4.48914C71.281 4.48914 64.4065 9.66173 61.8863 16.8543C60.7184 16.579 59.5095 16.4259 58.2595 16.4259C49.7152 16.4259 42.7998 23.3226 42.7998 31.8212C42.7998 33.5556 43.0867 35.2186 43.6194 36.7694H119.852C119.935 35.9941 119.976 35.2186 119.976 34.4229C119.976 22.2617 110.079 12.4062 97.8668 12.4062L97.8771 12.4164Z" fill="white" stroke="#101C3F" stroke-miterlimit="10"/>
<path d="M50.3196 27.8627C49.3668 27.8627 48.4243 27.9341 47.5023 28.0667C44.5312 23.6695 39.4804 20.772 33.7432 20.772C26.4999 20.772 20.3528 25.4039 18.0887 31.8416C17.0437 31.5968 15.9578 31.4539 14.8411 31.4539C7.19825 31.4539 1 37.6264 1 45.2373C1 46.7881 1.25613 48.2776 1.73764 49.6753H70.0003C70.072 48.9815 70.113 48.2877 70.113 47.5736C70.113 36.6877 61.251 27.8627 50.3196 27.8627Z" fill="#153385" stroke="#101C3F" stroke-miterlimit="10"/>
<path d="M50.3196 30.9846C49.3668 30.9846 48.4243 31.056 47.5023 31.1887C44.5312 26.7914 39.4804 23.894 33.7432 23.894C26.4999 23.894 20.3528 28.5258 18.0887 34.9635C17.0437 34.7187 15.9578 34.5759 14.8411 34.5759C7.19825 34.5759 1 40.7483 1 48.3592C1 49.91 1.25613 51.3996 1.73764 52.7973H70.0003C70.072 52.1035 70.113 51.4098 70.113 50.6956C70.113 39.8097 61.251 30.9846 50.3196 30.9846Z" fill="white" stroke="#101C3F" stroke-miterlimit="10"/>
<path d="M78.6778 74.9772C78.6778 74.9772 83.5442 71.3145 87.4578 74.9772V57.572H78.6778V74.9772Z" fill="#153385" stroke="#101C3F" stroke-miterlimit="10"/>
<path d="M90.9001 84.4347C90.9001 84.4347 95.8177 67.7641 91.0435 49.9202C90.6849 48.5837 88.7793 48.5735 88.4208 49.91C86.8943 55.5723 84.9477 67.1214 87.5295 84.4347H90.9001Z" fill="#0B64DD" stroke="#101C3F" stroke-miterlimit="10"/>
<path d="M89.1994 85.7509C90.2463 85.7509 91.0948 85.3032 91.0948 84.751C91.0948 84.1988 90.2463 83.7511 89.1994 83.7511C88.1527 83.7511 87.3042 84.1988 87.3042 84.751C87.3042 85.3032 88.1527 85.7509 89.1994 85.7509Z" fill="#101C3F"/>
<path d="M89.1891 84.5367C89.7321 84.5367 90.1727 84.9754 90.1727 85.5161V85.6692C90.1727 85.7815 90.1521 85.8936 90.1112 86.0059L89.1174 88.7299L88.2569 85.9855C88.2261 85.8936 88.2158 85.7916 88.2158 85.6998V85.5161C88.2158 84.9754 88.6564 84.5367 89.1993 84.5367H89.1891Z" fill="#48EFCF"/>
<path d="M64.0171 4.32599C62.1013 7.12143 44.8179 38.1468 50.8318 85.251L64.0171 83.7003H64.1708L77.8274 85.251C83.8413 38.1468 66.0866 7.12143 64.1708 4.32599H64.0171Z" fill="#0B64DD"/>
<path d="M64.0171 4.32599C62.1013 7.12143 44.8179 38.1468 50.8318 85.251L64.0171 83.7003H64.1708L77.8274 85.251C83.8413 38.1468 66.0866 7.12143 64.1708 4.32599H64.0171Z" stroke="#101C3F" stroke-miterlimit="10"/>
<path d="M64.3246 90.7602C71.782 90.7602 77.8275 88.2936 77.8275 85.2509C77.8275 82.2083 71.782 79.7417 64.3246 79.7417C56.8671 79.7417 50.8216 82.2083 50.8216 85.2509C50.8216 88.2936 56.8671 90.7602 64.3246 90.7602Z" fill="white" stroke="#101C3F" stroke-miterlimit="10"/>
<path d="M64.3246 89.8726C70.1808 89.8726 74.9281 88.3059 74.9281 86.3733C74.9281 84.4406 70.1808 82.8739 64.3246 82.8739C58.4684 82.8739 53.7209 84.4406 53.7209 86.3733C53.7209 88.3059 58.4684 89.8726 64.3246 89.8726Z" fill="#0B64DD"/>
<mask id="mask1_4916_76765" style="mask-type:luminance" maskUnits="userSpaceOnUse" x="53" y="82" width="22" height="8">
<path d="M64.3246 89.8726C70.1808 89.8726 74.9281 88.3059 74.9281 86.3733C74.9281 84.4406 70.1808 82.8739 64.3246 82.8739C58.4684 82.8739 53.7209 84.4406 53.7209 86.3733C53.7209 88.3059 58.4684 89.8726 64.3246 89.8726Z" fill="white"/>
</mask>
<g mask="url(#mask1_4916_76765)">
<path d="M64.3246 88.0362C70.1808 88.0362 74.9281 86.4695 74.9281 84.5368C74.9281 82.6041 70.1808 81.0374 64.3246 81.0374C58.4684 81.0374 53.7209 82.6041 53.7209 84.5368C53.7209 86.4695 58.4684 88.0362 64.3246 88.0362Z" fill="#101C3F" stroke="#101C3F" stroke-miterlimit="10"/>
</g>
<path d="M64.3246 89.8726C70.1808 89.8726 74.9281 88.3059 74.9281 86.3733C74.9281 84.4406 70.1808 82.8739 64.3246 82.8739C58.4684 82.8739 53.7209 84.4406 53.7209 86.3733C53.7209 88.3059 58.4684 89.8726 64.3246 89.8726Z" stroke="#101C3F" stroke-miterlimit="10"/>
<path d="M64.0889 41.3606C67.1216 41.3606 69.5803 38.1084 69.5803 34.0965C69.5803 30.0846 67.1216 26.8324 64.0889 26.8324C61.0561 26.8324 58.5975 30.0846 58.5975 34.0965C58.5975 38.1084 61.0561 41.3606 64.0889 41.3606Z" fill="white"/>
<path d="M64.0581 84.9961C59.6835 84.9961 56.1387 88.5261 56.1387 92.8824V94.1476C56.1387 95.0658 56.3027 95.984 56.6203 96.8512L64.6933 118.898L71.6292 96.688C71.8648 95.933 71.9878 95.1372 71.9878 94.3414V92.8824C71.9878 88.5261 68.443 84.9961 64.0683 84.9961H64.0581Z" fill="#48EFCF" stroke="#101C3F" stroke-miterlimit="10"/>
<path d="M49.5409 75.0487C49.5409 75.0487 44.6745 71.386 40.7609 75.0487V57.6435H49.5409V75.0487Z" fill="#153385" stroke="#101C3F" stroke-miterlimit="10"/>
<path d="M37.3186 84.5165C37.3186 84.5165 32.401 67.8458 37.1752 50.0019C37.5338 48.6653 39.4394 48.6552 39.7979 49.9917C41.3244 55.654 43.271 67.2031 40.6892 84.5165H37.3186Z" fill="#0B64DD" stroke="#101C3F" stroke-miterlimit="10"/>
<path d="M39.0295 85.8223C40.0933 85.8223 40.9556 85.3747 40.9556 84.8225C40.9556 84.2703 40.0933 83.8226 39.0295 83.8226C37.9658 83.8226 37.1035 84.2703 37.1035 84.8225C37.1035 85.3747 37.9658 85.8223 39.0295 85.8223Z" fill="#101C3F"/>
<path d="M39.0295 84.6082C38.4865 84.6082 38.046 85.0469 38.046 85.5876V85.7407C38.046 85.853 38.0664 85.9651 38.1074 86.0774L39.1012 88.8014L39.9618 86.057C39.9925 85.9651 40.0027 85.8631 40.0027 85.7713V85.5876C40.0027 85.0469 39.5622 84.6082 39.0192 84.6082H39.0295Z" fill="#48EFCF"/>
</g>
</svg>
