<svg width="1920" height="1080" viewBox="0 0 1920 1080" fill="none" xmlns="http://www.w3.org/2000/svg">
<g clip-path="url(#clip0_735_14633)">
<path d="M1085.1 822.77L1335.48 829.855C1350.43 830.656 1361.94 817.468 1359.56 802.271L1332.57 619.997C1330.6 607.459 1319.74 598.108 1307.43 598.35L1057.81 603.652C1043.46 603.954 1033.04 617.036 1035.53 631.629L1061.76 801.516C1063.77 813.223 1073.56 822.151 1085.1 822.77Z" fill="#F5F7FA" stroke="#101C3F" stroke-width="2" stroke-linecap="round" stroke-linejoin="round"/>
<path d="M1282.08 730.335L1262.56 593.727L1079.59 597.61C1065.24 597.912 1054.82 610.994 1036.36 624.907L1059.99 777.844L1234.17 780.82C1274.47 778.161 1284.5 747.314 1282.08 730.319V730.335Z" fill="#C5CEDE"/>
<path d="M300.189 622.218L598.328 618.154C615.995 618.215 629.608 602.111 626.794 584.482L592.777 370.53C590.448 355.968 577.591 345.665 563.025 346.677L267.775 367.479C250.789 368.672 238.477 384.579 241.442 401.514L272.585 598.728C274.96 612.308 286.561 622.173 300.204 622.218H300.189Z" fill="#F5F7FA" stroke="#101C3F" stroke-width="2" stroke-linecap="round" stroke-linejoin="round"/>
<path d="M306.844 581.657L279.724 417.587C278.529 410.381 283.853 403.749 291.144 403.341C297.376 402.994 302.866 407.39 303.91 413.538L331.363 577.609C332.618 585.087 326.855 591.884 319.277 591.884H318.945C312.955 591.884 307.827 587.549 306.844 581.642V581.657Z" fill="#C5CEDE"/>
<path d="M292.536 496.352L283.309 440.609C282.114 433.403 287.438 426.771 294.729 426.364C300.96 426.016 306.451 430.412 307.495 436.56L317.054 492.303C318.309 499.781 312.547 506.579 304.969 506.579H304.636C298.646 506.579 293.519 502.243 292.536 496.336V496.352Z" fill="#153385"/>
<path d="M353.219 578.198L326.099 414.127C324.904 406.922 330.228 400.29 337.519 399.882C343.751 399.535 349.241 403.931 350.285 410.079L377.738 574.149C378.993 581.627 373.23 588.425 365.652 588.425H365.32C359.33 588.425 354.202 584.089 353.219 578.183V578.198Z" fill="#C5CEDE"/>
<path d="M350.739 563.122L341.512 507.379C340.317 500.173 345.641 493.542 352.932 493.134C359.163 492.786 364.654 497.182 365.698 503.331L375.257 559.073C376.512 566.551 370.75 573.349 363.172 573.349H362.839C356.849 573.349 351.722 569.013 350.739 563.107V563.122Z" fill="#0B64DD"/>
<path d="M421.647 578.364L574.218 575.811C583.354 575.841 590.402 567.518 588.935 558.393L572.947 448.207C571.737 440.684 565.097 435.352 557.565 435.881L404.873 446.636C396.085 447.256 389.717 455.474 391.26 464.235L407.368 566.219C408.594 573.243 414.599 578.349 421.647 578.364Z" stroke="#101C3F" stroke-width="2" stroke-linecap="round" stroke-linejoin="round"/>
<path d="M429.966 531.942L511.734 528.86" stroke="#101C3F" stroke-width="2" stroke-linecap="round" stroke-linejoin="round"/>
<path d="M489.122 547.441L506.743 547.048" stroke="#101C3F" stroke-width="2" stroke-linecap="round" stroke-linejoin="round"/>
<path d="M432.537 548.695L478.625 547.668" stroke="#101C3F" stroke-width="2" stroke-linecap="round" stroke-linejoin="round"/>
<path d="M1053.58 537.788L1545.84 507.515C1562.62 506.488 1575.01 491.382 1572.73 474.674L1518.65 77.5568C1516.48 61.5894 1501.73 50.4711 1485.8 52.7823L994.798 124.054C978.946 126.35 967.98 141.125 970.325 156.986L1023.14 513.089C1025.35 527.969 1038.57 538.695 1053.56 537.773L1053.58 537.788Z" fill="#101C3F"/>
<path d="M1041.76 536.399L1528.71 506.443C1545.32 505.415 1557.57 490.505 1555.32 474.039L1501.91 82.24C1499.76 66.484 1485.17 55.5167 1469.42 57.7978L983.711 128.209C968.026 130.49 957.166 145.052 959.495 160.702L1011.68 512.047C1013.86 526.731 1026.92 537.305 1041.76 536.399Z" fill="#C5CEDE" stroke="#101C3F" stroke-width="2" stroke-linecap="round" stroke-linejoin="round"/>
<path d="M1438.25 117.045L984.618 175.582" stroke="#ABB4C4" stroke-width="10" stroke-linecap="round" stroke-linejoin="round" stroke-dasharray="0.05 38.8"/>
<path d="M1447.16 183.226L993.543 241.763" stroke="#ABB4C4" stroke-width="10" stroke-linecap="round" stroke-linejoin="round" stroke-dasharray="0.05 38.8"/>
<path d="M1456.08 249.392L1002.47 307.944" stroke="#ABB4C4" stroke-width="10" stroke-linecap="round" stroke-linejoin="round" stroke-dasharray="0.05 38.8"/>
<path d="M1465 315.573L1010.1 371.573" stroke="#ABB4C4" stroke-width="10" stroke-linecap="round" stroke-linejoin="round" stroke-dasharray="0.05 38.8"/>
<path d="M1473.91 381.754L1019.03 427.557" stroke="#ABB4C4" stroke-width="10" stroke-linecap="round" stroke-linejoin="round" stroke-dasharray="0.05 38.8"/>
<path d="M1482.84 447.92L1029.22 491.2" stroke="#ABB4C4" stroke-width="10" stroke-linecap="round" stroke-linejoin="round" stroke-dasharray="0.05 38.8"/>
<g style="mix-blend-mode:multiply">
<path d="M1194.68 246.28L986.902 268.713L1023.14 513.105C1024.79 524.193 1032.54 532.954 1042.59 536.338L1261.78 522.848L1225.72 270.36C1223.57 255.299 1209.84 244.649 1194.7 246.28H1194.68Z" fill="#C5CEDE"/>
</g>
<path d="M588.875 757.148L1198.69 761.106C1238.98 758.448 1249.33 726.664 1246.89 709.669L1185.79 241.325C1183.64 226.264 1169.91 215.614 1154.77 217.246L518.874 285.904C502.78 287.642 491.421 302.506 493.992 318.474L560.907 733.416C563.116 747.118 574.974 757.194 588.875 757.164V757.148Z" fill="#101C3F"/>
<path d="M581.902 758.266L1198.45 759.641C1215.63 759.611 1228.82 744.399 1226.38 727.404L1157.38 244.996C1155.23 229.935 1141.5 219.285 1126.36 220.917L511.916 287.007C495.822 288.744 484.463 303.609 487.035 319.576L553.95 734.519C556.158 748.221 568.016 758.297 581.917 758.266H581.902Z" fill="white" stroke="#101C3F" stroke-width="2" stroke-linecap="round" stroke-linejoin="round"/>
<path d="M838.567 207.819L1204.21 163.845C1219.71 161.987 1230.48 147.771 1228.31 132.031L1189.46 -148.767C1187.19 -165.188 1171.21 -181.488 1143.44 -177.348L790.679 -110.608C775.781 -108.025 765.813 -94.0216 768.036 -78.7792L806.289 182.728C808.588 198.468 823.033 209.693 838.567 207.834V207.819Z" fill="#101C3F"/>
<path d="M824.545 206.671L1190.19 162.696C1205.69 160.838 1216.46 146.623 1214.28 130.882L1175.44 -149.915C1173.17 -166.336 1157.74 -177.817 1141.71 -175.037L776.673 -111.757C761.774 -109.173 751.807 -95.1696 754.03 -79.9273L792.282 181.579C794.581 197.32 809.026 208.544 824.56 206.686L824.545 206.671Z" fill="#F5F7FA" stroke="#101C3F" stroke-width="2" stroke-linecap="round" stroke-linejoin="round"/>
<path d="M714.053 652.386L541.532 657.643L553.935 734.519C556.143 748.221 568.001 758.297 581.902 758.266L742.051 757.828L728.302 664.395C727.273 657.371 721.162 652.219 714.053 652.37V652.386Z" fill="#C5CEDE"/>
<path d="M503.476 851.609L715.611 859.993C729.92 858.784 734.836 847.409 733.565 838.829L706.415 654.228C705.386 647.204 699.276 642.053 692.167 642.204L476.462 646.993C467.961 647.174 461.563 654.787 462.849 663.187L489.757 839.659C490.786 846.457 496.594 851.503 503.461 851.609H503.476Z" fill="#101C3F"/>
<path d="M495.777 854.282L711.724 857.621C720.406 857.757 727.137 850.083 725.882 841.502L698.731 656.902C697.703 649.878 691.592 644.726 684.483 644.878L468.778 649.666C460.277 649.848 453.879 657.461 455.165 665.86L482.073 842.333C483.102 849.131 488.91 854.177 495.777 854.282Z" fill="#0B64DD" stroke="#101C3F" stroke-width="2" stroke-linecap="round" stroke-linejoin="round"/>
<path d="M505.352 712.705C515.849 716.029 527.238 724.972 531.897 736.785C532.336 737.903 533.803 737.948 533.954 736.845C535.467 726.437 542.258 715.561 552.679 712.449C553.663 712.162 553.466 710.575 552.392 710.243C541.895 706.859 530.414 697.735 525.877 685.771C525.453 684.653 523.986 684.607 523.82 685.695C522.065 697.267 514.593 707.464 505.034 710.485C504.066 710.787 504.278 712.358 505.336 712.69L505.352 712.705Z" fill="white"/>
<path d="M563.116 729.383L658.074 727.948" stroke="white" stroke-width="2" stroke-linecap="round" stroke-linejoin="round"/>
<path d="M521.974 762.496L661.84 760.955" stroke="white" stroke-width="2" stroke-linecap="round" stroke-linejoin="round"/>
<path d="M524.349 796.486L665.243 796.289" stroke="white" stroke-width="2" stroke-linecap="round" stroke-linejoin="round"/>
<path d="M793.976 344.427L780.636 259.211L511.886 287.007C495.792 288.744 484.433 303.609 488.729 319.577L503.158 410.94L752.412 396.272C778.881 394.64 798.166 370.576 793.976 344.427Z" fill="#C5CEDE"/>
<path d="M464.014 391.256L747.693 373.733C764.573 372.691 776.87 357.343 774.208 340.665L746.361 166.73C743.941 151.624 730.056 141.094 714.84 142.832L431.766 175.114C415.43 176.972 404.026 192.169 406.794 208.348L434.035 367.524C436.5 381.921 449.432 392.148 464.029 391.256H464.014Z" fill="#101C3F"/>
<path d="M453.834 394.776L737.513 377.253C754.393 376.21 766.69 360.862 764.028 344.185L736.182 170.25C733.762 155.143 719.877 144.614 704.66 146.351L421.586 178.634C405.251 180.492 393.846 195.689 396.614 211.868L423.855 371.044C426.321 385.44 439.253 395.667 453.849 394.776H453.834Z" fill="#48EFCF" stroke="#101C3F" stroke-width="2" stroke-linecap="round" stroke-linejoin="round"/>
<path d="M685.663 189.707C690.442 216.249 714.023 234.256 738.33 229.935C740.78 229.497 743.155 228.847 745.424 228.002L736.182 170.25C733.762 155.143 719.877 144.614 704.66 146.351L697.188 147.197C687.523 157.908 682.774 173.513 685.678 189.692L685.663 189.707Z" fill="#101C3F"/>
<g style="mix-blend-mode:multiply">
<path d="M1412.4 425.865L1110.86 448.963C1099.5 449.839 1091.16 460.277 1092.87 471.502L1102.17 532.667L1442.68 511.715L1432.62 441.999C1431.2 432.104 1422.41 425.08 1412.41 425.85L1412.4 425.865Z" fill="#C5CEDE"/>
</g>
<path d="M1101.13 690.756L1102.69 698.868C1104.02 705.802 1110.16 710.772 1117.22 710.621L1221.86 708.37L1219.09 688.021L1101.11 690.756H1101.13Z" fill="#C5CEDE"/>
<path d="M1115.92 686.768L1412.49 682.115C1430.78 681.193 1438.32 665.83 1436.66 654.259L1402.9 420.276C1401.48 410.381 1392.69 403.357 1382.69 404.127L1081.15 427.225C1069.79 428.101 1061.46 438.539 1063.17 449.763L1096.74 670.725C1098.18 680.181 1106.35 687.009 1115.92 686.783V686.768Z" fill="#101C3F"/>
<path d="M1104.29 689.895L1406.41 682.523C1418.13 682.236 1427.09 671.646 1425.42 660.075L1391.27 423.387C1389.85 413.493 1381.06 406.468 1371.06 407.239L1069.52 430.336C1058.16 431.213 1049.82 441.651 1051.53 452.875L1085.11 673.836C1086.55 683.293 1094.72 690.121 1104.29 689.895Z" fill="#F04E98" stroke="#101C3F" stroke-width="2" stroke-linecap="round" stroke-linejoin="round"/>
<path d="M492.707 375.259L452.125 377.917" stroke="#101C3F" stroke-width="2" stroke-linecap="round" stroke-linejoin="round"/>
<path d="M606.677 262.595C602.442 263.003 598.388 260.012 597.647 255.918L592.58 227.986C590.266 215.252 577.636 206.112 564.401 207.593C551.182 209.058 542.303 220.448 544.602 233.017L549.669 260.586C550.41 264.634 547.567 268.23 543.332 268.638C539.096 269.03 535.043 266.085 534.302 262.066L529.235 234.618C525.438 214.104 540.004 195.432 561.709 192.939C583.399 190.432 604.136 205.402 607.933 226.37L613 254.407C613.741 258.516 610.897 262.187 606.662 262.595H606.677Z" fill="white" stroke="#101C3F" stroke-width="2" stroke-linecap="round" stroke-linejoin="round"/>
<path d="M634.236 354.669L549.155 360.651C540.291 361.255 531.851 354.895 530.309 346.466L517.225 275.405C515.682 267.036 521.611 259.559 530.46 258.713L615.541 250.359C624.404 249.468 632.844 255.752 634.387 264.393L647.471 337.734C649.014 346.451 643.084 354.034 634.236 354.669Z" fill="#48EFCF" stroke="#101C3F" stroke-width="2" stroke-linecap="round" stroke-linejoin="round"/>
<path d="M594.335 294.832C592.913 286.977 584.73 281.342 576.578 282.989C570.255 284.258 566.02 289.817 566.595 296.071C567.139 301.857 571.374 306.63 576.774 308.503C577.409 308.73 577.863 309.289 577.924 309.908L579.845 331.208C579.92 332.1 580.782 332.81 581.705 332.734L592.535 331.903C593.458 331.828 594.047 331.012 593.805 330.136L588.058 309.062C587.891 308.443 588.118 307.824 588.663 307.506C592.913 304.969 595.303 300.119 594.335 294.817V294.832Z" fill="#101C3F"/>
<path d="M724.674 226.165C750.617 221.246 767.475 195.311 762.328 168.237C757.182 141.164 731.979 123.204 706.037 128.123C680.095 133.042 663.236 158.977 668.383 186.051C673.53 213.124 698.732 231.084 724.674 226.165Z" fill="#101C3F"/>
<path d="M718.645 225.731C742.896 221.133 758.474 195.93 753.438 169.438C748.402 142.947 724.66 125.199 700.408 129.797C676.156 134.396 660.579 159.599 665.615 186.091C670.651 212.582 694.393 230.33 718.645 225.731Z" fill="white" stroke="#101C3F" stroke-width="2" stroke-linecap="round" stroke-linejoin="round"/>
<path d="M688.642 186.232L703.178 197.622L725.14 159.751" stroke="#101C3F" stroke-width="6" stroke-linecap="round" stroke-linejoin="round"/>
<path d="M378.917 1011.75L378.267 1022.73C378.267 1022.73 381.852 1037.37 383.379 1042.83C384.907 1048.28 381.186 1048.26 378.085 1043.49C374.985 1038.72 363.157 1022.79 363.157 1022.79L368.299 1017.43L370.628 1009.82L378.917 1011.75Z" fill="#101C3F"/>
<path d="M398.928 835.868C398.928 835.868 402.498 880.326 398.293 925.57L377.284 925.796L369.298 839.629L398.928 835.868Z" fill="#101C3F"/>
<path d="M398.233 925.071L380.505 1018.73L364.654 1015.29L377.45 925.162C376.633 913.469 397.371 911.037 398.218 925.086L398.233 925.071Z" fill="#101C3F"/>
<path d="M393.045 855.43L400.547 866.126C400.547 866.126 400.985 890.915 398.838 923.908L393.483 950.012C394.557 940.449 395.51 931.174 394.769 926.264C394.769 926.264 392.682 921.43 392.364 920.161C391.593 917.08 392.984 912.593 394.058 905.538C395.132 898.484 393.045 855.43 393.045 855.43Z" fill="#FF957D"/>
<path d="M411.831 827.605C411.831 827.605 445.076 879.752 451.384 904.254L431.842 912.095L381.655 840.037L411.831 827.605Z" fill="#101C3F"/>
<path d="M398.021 981.644L393.544 991.69C393.544 991.69 391.744 1006.66 391.245 1012.3C390.745 1017.93 387.267 1016.62 386.057 1011.06C384.847 1005.5 379.386 986.433 379.386 986.433L386.087 983.216L390.957 976.901L398.021 981.629V981.644Z" fill="#101C3F"/>
<path d="M451.505 906.234L400.728 987.31L385.512 977.324L428.242 907.382C434.292 894.889 450.582 894.753 451.505 906.234Z" fill="#101C3F"/>
<path d="M450.627 901.596C450.627 901.596 448.298 896.354 446.256 895.764C444.214 895.175 441.295 896.641 439.843 895.175C438.391 893.725 442.762 893.725 442.475 891.384C442.187 889.057 414.825 842.983 413.086 840.641C411.331 838.315 404.646 839.916 394.996 840.354L416.172 832.136C416.172 832.136 443.942 879.148 450.642 901.58L450.627 901.596Z" fill="#FF957D"/>
<path d="M368.057 686.768C368.057 686.768 364.699 690.982 359.118 694.351C354.732 696.995 341.088 703.883 341.724 716.044C342.117 723.809 345.898 730.078 353.28 734.942C357.772 737.903 360.011 740.184 360.011 740.184L360.721 750.456L375.091 749.535L372.383 736.845C372.383 736.845 383.969 732.631 382.275 727.812C380.899 723.899 378.902 721.21 378.902 721.21C378.902 721.21 381.897 717.993 381.973 716.844C382.048 715.696 377.571 714.473 374.002 709.88L372.081 706.043C372.081 706.043 375.756 703.022 375.983 696.632C375.983 696.632 375.121 697.387 373.926 698.248C373.926 698.248 374.365 694.14 372.731 691.541C369.751 686.783 368.072 686.783 368.072 686.783L368.057 686.768Z" fill="#101C3F"/>
<path d="M372.383 736.815C372.383 736.815 368.677 738.16 366.681 738.522C366.681 738.522 369.101 741.982 372.519 748.19L375.06 748.281L372.398 736.815H372.383Z" fill="#FF957D"/>
<path d="M329.033 866.201C326.265 857.802 327.748 829.176 328.565 816.864C329.26 806.516 336.037 768.962 340.741 765.82L354.066 792.845L343.388 817.076C340.741 826.2 338.109 864.585 338.109 864.585L329.049 866.201H329.033Z" fill="#101C3F"/>
<path d="M382.926 753.9L377.783 747.646C377.783 747.646 366.454 746.468 358.074 748.039L354.263 759.157L382.926 753.885V753.9Z" fill="#101C3F"/>
<path d="M340.726 765.835C340.726 765.835 352.614 757.209 362.945 754.867C373.276 752.526 389.868 753.689 395.797 755.804C395.797 755.804 405.327 802.03 407.762 808.389C410.197 814.749 416.141 832.167 416.141 832.167C416.141 832.167 403.209 846.17 366.303 843.481C366.303 843.481 359.829 812.861 358.074 807.332C356.32 801.803 339.924 775.397 340.726 765.835Z" fill="#101C3F"/>
<path d="M337.307 861.851C337.307 861.851 342.299 870.703 344.053 872.954C345.808 875.205 349.302 878.604 347.789 879.752C346.277 880.9 341.815 875.477 340.257 876.187C338.048 877.184 341.845 884.571 343.191 887.532C344.325 890.024 342.662 891.263 340.741 888.74C338.82 886.217 336.067 881.142 336.067 881.142C335.991 883.151 338.245 890.734 336.748 891.172C335.522 891.535 333.45 885.069 333.45 885.069C333.45 885.069 330.985 880.537 330.289 877.516C329.578 874.495 328.776 864.525 328.776 864.525C329.2 860.552 335.659 857.878 337.322 861.851H337.307Z" fill="#101C3F"/>
<path d="M434.035 854.313C426.865 849.116 411.074 825.173 404.752 814.583C398.429 803.993 384.499 772.164 384.499 772.164C378.857 759.611 396.463 746.242 405.387 764.535L416.882 806.108C420.074 815.051 440.433 847.726 440.433 847.726L434.02 854.328L434.035 854.313Z" fill="#101C3F"/>
<path d="M439.813 847.243C439.813 847.243 448.676 852.213 451.353 853.225C454.016 854.237 458.78 855.34 458.084 857.077C457.389 858.83 450.748 856.518 449.78 857.938C448.419 859.932 455.498 864.283 458.205 866.111C460.474 867.652 459.703 869.57 456.738 868.422C453.652 867.214 448.782 864.358 448.782 864.358C449.765 866.111 455.634 871.428 454.59 872.576C453.728 873.528 448.601 869.072 448.601 869.072C448.601 869.072 444.139 866.488 441.96 864.268C439.782 862.047 433.899 853.965 433.899 853.965C432.189 850.355 436.319 844.705 439.798 847.243H439.813Z" fill="#101C3F"/>
<path d="M378.902 721.18C378.902 721.18 382.184 717.947 381.973 716.814C381.761 715.681 381.11 715.606 379.159 714.367C377.148 713.083 375.166 710.666 374.002 709.85L372.081 706.013L371.612 706.496C371.612 706.496 369.267 711.512 371.264 714.216C372.61 716.044 375.136 716.149 375.907 717.373C375.907 717.373 376.921 721.875 378.569 724.518C379.416 725.878 381.867 726.815 381.867 726.815C381.867 726.815 380.475 723.083 378.917 721.195L378.902 721.18Z" fill="#FF957D"/>
<path d="M375.06 748.281L378.494 753.326C378.494 753.326 374.909 754.187 368.042 755.064C368.042 755.064 379.734 755.381 386.45 756.499C393.166 757.617 398.127 760.895 400.365 765.124C402.604 769.354 404.6 779.778 405.841 784.627C407.081 789.476 401.742 794.219 402.619 796.077C403.496 797.936 407.021 792.648 407.777 793.419C410.076 795.79 414.296 808.722 416.913 813.45C419.529 818.163 434.473 837.56 434.473 837.56L416.898 806.108C416.898 806.108 406.204 767.164 405.402 764.535C404.601 761.907 401.122 756.076 394.406 755.079C387.69 754.082 382.608 753.477 382.608 753.477L378.539 748.523L375.045 748.281H375.06Z" fill="#FF957D"/>
<path d="M710.559 521.247C767.825 534.903 829.446 577.005 853.783 635.874C856.097 641.464 864.098 641.207 865.097 635.527C874.55 581.975 912.999 524.359 970.582 505.279C976.042 503.467 975.104 495.506 969.251 494.086C911.955 480.097 849.911 437.089 826.27 377.479C824.061 371.92 815.969 372.132 814.955 377.766C804.065 437.376 761.956 491.669 709.107 510.083C703.753 511.956 704.781 519.887 710.559 521.262V521.247Z" fill="#101C3F"/>
<path d="M919.806 505.385C862.51 491.397 800.465 448.389 776.824 388.779C775.508 385.486 772.15 384.232 769.397 384.927V384.836L745.303 394.111C745.303 394.111 754.242 480.157 659.662 521.398C654.459 523.664 655.336 531.202 661.114 532.577C704.796 543 774.737 606.598 774.737 606.598L788.864 659.878L812.036 650.996C813.806 650.452 815.273 649.077 815.666 646.857C825.12 593.304 863.569 535.688 921.152 516.609C926.612 514.796 925.674 506.835 919.821 505.415L919.806 505.385Z" fill="url(#paint0_linear_735_14633)" stroke="#101C3F" stroke-width="2" stroke-linecap="round" stroke-linejoin="round"/>
<path d="M638.063 541.369C695.328 555.025 756.949 597.126 781.286 655.996C783.6 661.585 791.602 661.328 792.6 655.648C802.054 602.096 840.503 544.48 898.085 525.401C903.546 523.588 902.608 515.627 896.754 514.207C839.459 500.219 777.414 457.211 753.773 397.601C751.565 392.042 743.472 392.253 742.459 397.888C731.569 457.498 689.459 511.79 636.611 530.205C631.256 532.078 632.285 540.009 638.063 541.384V541.369Z" fill="white" stroke="#101C3F" stroke-width="2" stroke-linecap="round" stroke-linejoin="round"/>
<path d="M900.808 525.054C900.808 525.054 911.623 519.495 921.137 516.594C921.137 516.594 928.73 513.709 922.18 506.201L919.806 505.4L894.455 513.331C894.455 513.331 899.658 514.479 901.005 517.954C902.351 521.413 900.808 525.069 900.808 525.069V525.054Z" fill="#101C3F"/>
<path d="M1289.4 480.943L1193.34 487.106C1177.54 488.119 1165.37 502.349 1166.14 518.89C1166.91 535.432 1180.33 548.015 1196.12 547.003L1198.72 546.837C1200.28 546.731 1201.61 547.985 1201.68 549.617L1202.62 569.708C1202.73 572.035 1205.53 572.941 1206.9 571.113L1225.9 546.097C1226.41 545.432 1227.17 545.009 1227.97 544.964L1292.18 540.84C1307.97 539.828 1320.15 525.598 1319.38 509.056C1318.6 492.515 1305.19 479.931 1289.4 480.943Z" fill="#FF957D"/>
<path d="M1257.92 559.738L1354.45 555.433C1370.32 554.723 1383.8 567.503 1384.54 583.984C1385.29 600.465 1373.04 614.393 1357.17 615.103L1354.57 615.224C1353 615.299 1351.79 616.674 1351.87 618.306L1352.77 638.322C1352.88 640.633 1350.17 641.841 1348.61 640.18L1327.35 617.444C1326.77 616.84 1325.99 616.508 1325.17 616.538L1260.66 619.408C1244.79 620.118 1231.32 607.338 1230.57 590.857C1229.82 574.376 1242.07 560.448 1257.94 559.738H1257.92Z" fill="white"/>
<path d="M1230.24 514.797C1230.54 518.135 1228.55 520.854 1225.76 520.884C1223 520.9 1220.5 518.211 1220.2 514.872C1219.9 511.534 1221.89 508.814 1224.68 508.784C1227.44 508.769 1229.94 511.458 1230.24 514.797Z" fill="white"/>
<path d="M1248.44 514.147C1248.74 517.485 1246.74 520.205 1243.96 520.235C1241.19 520.25 1238.7 517.561 1238.39 514.223C1238.09 510.884 1240.09 508.165 1242.87 508.135C1245.64 508.12 1248.14 510.808 1248.44 514.147Z" fill="white"/>
<path d="M1266.63 513.482C1266.94 516.821 1264.94 519.54 1262.16 519.57C1259.39 519.585 1256.89 516.896 1256.59 513.558C1256.29 510.219 1258.28 507.5 1261.07 507.47C1263.84 507.455 1266.33 510.144 1266.63 513.482Z" fill="white"/>
<path d="M1291.18 588.924C1291.48 592.262 1289.49 594.981 1286.7 595.011C1283.94 595.027 1281.44 592.338 1281.14 588.999C1280.84 585.661 1282.83 582.941 1285.62 582.911C1288.38 582.896 1290.88 585.585 1291.18 588.924Z" fill="#F04E98"/>
<path d="M1309.38 588.274C1309.68 591.613 1307.68 594.332 1304.9 594.362C1302.13 594.377 1299.64 591.688 1299.33 588.35C1299.03 585.011 1301.03 582.292 1303.81 582.262C1306.58 582.247 1309.08 584.936 1309.38 588.274Z" fill="#F04E98"/>
<path d="M1327.59 587.609C1327.89 590.948 1325.9 593.667 1323.11 593.697C1320.34 593.712 1317.85 591.023 1317.55 587.685C1317.24 584.346 1319.24 581.627 1322.02 581.597C1324.79 581.582 1327.29 584.271 1327.59 587.609Z" fill="#F04E98"/>
<path d="M1355.44 663.685L1107.83 670.725" stroke="#101C3F" stroke-width="2" stroke-linecap="round" stroke-linejoin="round"/>
<path d="M1399.42 662.25L1377.52 663.081" stroke="#101C3F" stroke-width="2" stroke-linecap="round" stroke-linejoin="round"/>
<path d="M1007.06 138.088C1003.39 138.617 999.94 136.049 999.366 132.333L964.365 -91.1967C963.791 -94.8978 966.286 -98.3269 969.962 -98.8556C973.637 -99.3844 977.086 -96.8163 977.661 -93.1001L1012.66 130.429C1013.24 134.13 1010.74 137.559 1007.06 138.088Z" fill="#C5CEDE"/>
<path d="M1036.59 100.035L1034.58 100.322C1031.46 100.775 1028.53 98.5849 1028.04 95.4428L1003.07 -63.9901C1002.57 -67.1322 1004.7 -70.0478 1007.82 -70.501L1009.83 -70.788C1012.95 -71.2412 1015.88 -69.0508 1016.37 -65.9086L1041.34 93.5243C1041.84 96.6665 1039.71 99.582 1036.59 100.035Z" fill="#C5CEDE"/>
<path d="M1065.04 68.191C1061.37 68.7197 1057.92 66.1516 1057.34 62.4354L1041.19 -40.7261C1040.61 -44.4272 1043.11 -47.8564 1046.78 -48.3851C1050.46 -48.9138 1053.91 -46.3457 1054.48 -42.6296L1070.64 60.532C1071.21 64.2331 1068.72 67.6623 1065.04 68.191Z" fill="#C5CEDE"/>
<path d="M1094.57 36.6184C1090.89 37.1472 1087.44 34.5791 1086.87 30.8629L1079.08 -18.8674C1078.5 -22.5684 1081 -25.9976 1084.67 -26.5263C1088.35 -27.055 1091.8 -24.4869 1092.37 -20.7708L1100.16 28.9595C1100.74 32.6606 1098.24 36.0897 1094.57 36.6184Z" fill="#C5CEDE"/>
<path d="M940.437 -60.8024L942.448 -61.0895C945.564 -61.5427 948.499 -59.3522 948.983 -56.2101L973.955 103.223C974.454 106.365 972.321 109.28 969.206 109.733L967.194 110.021C964.078 110.474 961.144 108.283 960.66 105.141L935.687 -54.2916C935.188 -57.4337 937.321 -60.3493 940.437 -60.8024Z" fill="#C5CEDE"/>
<path d="M911.986 -28.9735C915.661 -29.5022 919.11 -26.9341 919.685 -23.2179L935.839 79.9436C936.413 83.6447 933.918 87.0739 930.242 87.6026C926.567 88.1313 923.118 85.5632 922.543 81.847L906.389 -21.3145C905.815 -25.0156 908.31 -28.4448 911.986 -28.9735Z" fill="#C5CEDE"/>
<path d="M882.461 2.59875C886.136 2.07003 889.585 4.63811 890.16 8.35428L897.949 58.0845C898.524 61.7856 896.028 65.2147 892.353 65.7435C888.677 66.2722 885.229 63.7041 884.654 59.9879L876.864 10.2577C876.29 6.55663 878.785 3.12747 882.461 2.59875Z" fill="#C5CEDE"/>
<path d="M862.828 97.3161C859.152 97.8448 855.704 95.2768 855.129 91.5606L838.975 -11.601C838.4 -15.3021 840.896 -18.7312 844.571 -19.2599C848.247 -19.7887 851.695 -17.2206 852.27 -13.5044L868.424 89.6572C868.999 93.3582 866.503 96.7874 862.828 97.3161Z" fill="#C5CEDE"/>
<path d="M1114.2 -58.0985C1117.87 -58.6272 1121.32 -56.0591 1121.9 -52.343L1138.05 50.8186C1138.63 54.5197 1136.13 57.9488 1132.46 58.4776C1128.78 59.0063 1125.33 56.4382 1124.76 52.722L1108.6 -50.4396C1108.03 -54.1406 1110.52 -57.5698 1114.2 -58.0985Z" fill="#C5CEDE"/>
</g>
<defs>
<linearGradient id="paint0_linear_735_14633" x1="776.189" y1="422.647" x2="810.273" y2="652.987" gradientUnits="userSpaceOnUse">
<stop stop-color="#48EFCF"/>
<stop offset="0.1" stop-color="#3DD5D1"/>
<stop offset="0.3" stop-color="#2BADD5"/>
<stop offset="0.49" stop-color="#1D8DD8"/>
<stop offset="0.67" stop-color="#1376DB"/>
<stop offset="0.85" stop-color="#0D68DC"/>
<stop offset="1" stop-color="#0B64DD"/>
</linearGradient>
<clipPath id="clip0_735_14633">
<rect width="1920" height="1080" fill="white"/>
</clipPath>
</defs>
</svg>
