<svg width="117" height="107" viewBox="0 0 117 107" fill="none" xmlns="http://www.w3.org/2000/svg">
<mask id="mask0_770_1602" style="mask-type:luminance" maskUnits="userSpaceOnUse" x="0" y="0" width="117" height="107">
<path d="M116.999 0H0V106.112H116.999V0Z" fill="white"/>
</mask>
<g mask="url(#mask0_770_1602)">
<path d="M100.759 7.06494H11.5479C9.74073 7.06494 8.2757 8.52997 8.2757 10.3372V34.0735C8.2757 35.8806 9.74073 37.3457 11.5479 37.3457H100.759C102.566 37.3457 104.031 35.8806 104.031 34.0735V10.3372C104.031 8.52997 102.566 7.06494 100.759 7.06494Z" fill="#101C3F"/>
<mask id="mask1_770_1602" style="mask-type:luminance" maskUnits="userSpaceOnUse" x="8" y="7" width="97" height="31">
<path d="M100.759 7.06494H11.5479C9.74073 7.06494 8.2757 8.52997 8.2757 10.3372V34.0735C8.2757 35.8806 9.74073 37.3457 11.5479 37.3457H100.759C102.566 37.3457 104.031 35.8806 104.031 34.0735V10.3372C104.031 8.52997 102.566 7.06494 100.759 7.06494Z" fill="white"/>
</mask>
<g mask="url(#mask1_770_1602)">
<path d="M42.469 0.650513H1.07074V42.0488H42.469V0.650513Z" fill="#101C3F"/>
</g>
<path d="M100.759 7.06494H11.5479C9.74073 7.06494 8.2757 8.52997 8.2757 10.3372V34.0735C8.2757 35.8807 9.74073 37.3457 11.5479 37.3457H100.759C102.566 37.3457 104.031 35.8807 104.031 34.0735V10.3372C104.031 8.52997 102.566 7.06494 100.759 7.06494Z" stroke="#101C3F" stroke-width="1.19" stroke-miterlimit="10"/>
<path d="M100.759 47.9329H11.5479C9.74073 47.9329 8.2757 49.3979 8.2757 51.2051V74.9414C8.2757 76.7486 9.74073 78.2136 11.5479 78.2136H100.759C102.566 78.2136 104.031 76.7486 104.031 74.9414V51.2051C104.031 49.3979 102.566 47.9329 100.759 47.9329Z" fill="#101C3F"/>
<mask id="mask2_770_1602" style="mask-type:luminance" maskUnits="userSpaceOnUse" x="8" y="47" width="97" height="32">
<path d="M100.759 47.9329H11.5479C9.74073 47.9329 8.2757 49.3979 8.2757 51.2051V74.9414C8.2757 76.7486 9.74073 78.2136 11.5479 78.2136H100.759C102.566 78.2136 104.031 76.7486 104.031 74.9414V51.2051C104.031 49.3979 102.566 47.9329 100.759 47.9329Z" fill="white"/>
</mask>
<g mask="url(#mask2_770_1602)">
<path d="M42.469 41.5184H1.07074V82.9167H42.469V41.5184Z" fill="#101C3F"/>
</g>
<path d="M100.759 47.9329H11.5479C9.74073 47.9329 8.2757 49.3979 8.2757 51.2051V74.9414C8.2757 76.7486 9.74073 78.2136 11.5479 78.2136H100.759C102.566 78.2136 104.031 76.7486 104.031 74.9414V51.2051C104.031 49.3979 102.566 47.9329 100.759 47.9329Z" stroke="#101C3F" stroke-width="1.19" stroke-miterlimit="10"/>
<path d="M99.6882 47.2222H10.4772C8.66999 47.2222 7.20496 48.6873 7.20496 50.4945V74.2307C7.20496 76.0379 8.66999 77.5029 10.4772 77.5029H99.6882C101.495 77.5029 102.96 76.0379 102.96 74.2307V50.4945C102.96 48.6873 101.495 47.2222 99.6882 47.2222Z" fill="white"/>
<mask id="mask3_770_1602" style="mask-type:luminance" maskUnits="userSpaceOnUse" x="7" y="47" width="96" height="31">
<path d="M99.6882 47.2222H10.4772C8.66999 47.2222 7.20496 48.6873 7.20496 50.4945V74.2307C7.20496 76.0379 8.66999 77.5029 10.4772 77.5029H99.6882C101.495 77.5029 102.96 76.0379 102.96 74.2307V50.4945C102.96 48.6873 101.495 47.2222 99.6882 47.2222Z" fill="white"/>
</mask>
<g mask="url(#mask3_770_1602)">
<path d="M41.3983 40.8077H0V82.206H41.3983V40.8077Z" fill="#0B64DD"/>
</g>
<path d="M99.6882 47.2222H10.4772C8.66999 47.2222 7.20496 48.6873 7.20496 50.4945V74.2307C7.20496 76.0379 8.66999 77.5029 10.4772 77.5029H99.6882C101.495 77.5029 102.96 76.0379 102.96 74.2307V50.4945C102.96 48.6873 101.495 47.2222 99.6882 47.2222Z" stroke="#101C3F" stroke-width="1.19" stroke-miterlimit="10"/>
<path d="M48.4832 54.3972H90.5219" stroke="#101C3F" stroke-width="0.9" stroke-linecap="round" stroke-linejoin="round"/>
<path d="M48.4832 62.3625H84.5378" stroke="#101C3F" stroke-width="0.9" stroke-linecap="round" stroke-linejoin="round"/>
<path d="M48.4832 70.6182H72.0893" stroke="#101C3F" stroke-width="0.9" stroke-linecap="round" stroke-linejoin="round"/>
<path d="M99.6882 6.41443H10.4772C8.66999 6.41443 7.20496 7.87946 7.20496 9.68667V33.4229C7.20496 35.2301 8.66999 36.6951 10.4772 36.6951H99.6882C101.495 36.6951 102.96 35.2301 102.96 33.4229V9.68667C102.96 7.87946 101.495 6.41443 99.6882 6.41443Z" fill="white"/>
<mask id="mask4_770_1602" style="mask-type:luminance" maskUnits="userSpaceOnUse" x="7" y="6" width="96" height="31">
<path d="M99.6882 6.41443H10.4772C8.66999 6.41443 7.20496 7.87946 7.20496 9.68667V33.4229C7.20496 35.2301 8.66999 36.6951 10.4772 36.6951H99.6882C101.495 36.6951 102.96 35.2301 102.96 33.4229V9.68667C102.96 7.87946 101.495 6.41443 99.6882 6.41443Z" fill="white"/>
</mask>
<g mask="url(#mask4_770_1602)">
<path d="M41.3983 0H0V41.3983H41.3983V0Z" fill="#0B64DD"/>
</g>
<path d="M99.6882 6.41443H10.4772C8.66999 6.41443 7.20496 7.87946 7.20496 9.68667V33.4229C7.20496 35.2301 8.66999 36.6951 10.4772 36.6951H99.6882C101.495 36.6951 102.96 35.2301 102.96 33.4229V9.68667C102.96 7.87946 101.495 6.41443 99.6882 6.41443Z" stroke="#101C3F" stroke-width="1.19" stroke-miterlimit="10"/>
<path d="M88.7407 81.9161C100.759 81.9161 110.496 72.1594 110.496 60.1312C110.496 48.103 100.759 38.3463 88.7407 38.3463C76.7225 38.3463 66.9858 48.103 66.9858 60.1312C66.9858 72.1594 76.7225 81.9161 88.7407 81.9161Z" fill="#48EFCF" stroke="#101C3F" stroke-width="0.9" stroke-linecap="round" stroke-linejoin="round"/>
<path d="M77.4129 61.2318L86.7693 68.5769L102.06 47.9928" stroke="#101C3F" stroke-width="5.41" stroke-miterlimit="10"/>
<path d="M99.7482 43.0094C91.3625 37.7258 82.1562 39.497 76.2121 44.9007C92.3131 36.635 110.896 54.3972 105.132 71.0986C104.191 73.8204 102.66 76.1821 100.739 78.0934C104.481 76.082 107.544 72.6395 109.155 67.5562C112.057 58.3699 107.794 48.0929 99.7582 43.0194L99.7482 43.0094Z" fill="#101C3F" stroke="#101C3F" stroke-width="0.71" stroke-miterlimit="10"/>
<path d="M79.9747 34.3935C55.3979 42.7693 60.2412 77.0727 81.926 85.4284C95.085 90.4919 110.506 84.2576 115.229 70.6383C122.384 49.8241 101.249 27.1486 79.9747 34.4035V34.3935ZM108.985 68.0365C105.902 76.9526 96.566 81.9661 87.3998 80.1748C70.0379 76.7925 62.5828 51.4152 79.4243 42.0788C95.6854 33.0626 114.829 51.105 108.985 68.0265V68.0365Z" fill="#0B64DD" stroke="#101C3F" stroke-width="0.71" stroke-miterlimit="10"/>
<path d="M81.926 85.4185C65.0645 78.9241 58.3899 56.7689 67.7863 43.2797C60.9216 49.4339 57.2992 59.2006 60.8316 70.098C67.1259 89.5413 93.634 96.7763 106.383 82.4165C99.528 87.2998 90.2717 88.6407 81.926 85.4285V85.4185Z" fill="#153385" stroke="#101C3F" stroke-width="0.71" stroke-miterlimit="10"/>
<path d="M70.6837 79.1209L70.1921 78.5406C68.5131 76.5586 65.5453 76.3131 63.5634 77.9921L41.2607 96.8861C39.2788 98.5651 39.0332 101.533 40.7123 103.515L41.2038 104.095C42.8829 106.077 45.8506 106.322 47.8325 104.643L70.1352 85.7496C72.1171 84.0705 72.3627 81.1028 70.6837 79.1209Z" fill="#153385" stroke="#101C3F" stroke-width="0.71" stroke-miterlimit="10"/>
<path d="M69.5373 77.7634L69.0457 77.1831C67.3667 75.2012 64.3989 74.9556 62.417 76.6346L40.1143 95.5286C38.1324 97.2076 37.8868 100.175 39.5658 102.157L40.0574 102.738C41.7364 104.72 44.7042 104.965 46.6861 103.286L68.9888 84.3921C70.9707 82.7131 71.2163 79.7453 69.5373 77.7634Z" fill="#0B64DD" stroke="#101C3F" stroke-width="0.71" stroke-miterlimit="10"/>
<path d="M28.9598 13.5994H19.013L14.0396 22.2052L19.013 30.8211H28.9598L33.9232 22.2052L28.9598 13.5994Z" fill="#48EFCF"/>
<path d="M48.4832 13.5994H90.5219" stroke="#101C3F" stroke-width="0.9" stroke-linecap="round" stroke-linejoin="round"/>
<path d="M48.4832 21.5548H84.5378" stroke="#101C3F" stroke-width="0.9" stroke-linecap="round" stroke-linejoin="round"/>
<path d="M48.4832 29.8204H72.0893" stroke="#101C3F" stroke-width="0.9" stroke-linecap="round" stroke-linejoin="round"/>
<path d="M23.9864 71.749C28.778 71.749 32.6623 67.8647 32.6623 63.0731C32.6623 58.2815 28.778 54.3972 23.9864 54.3972C19.1948 54.3972 15.3105 58.2815 15.3105 63.0731C15.3105 67.8647 19.1948 71.749 23.9864 71.749Z" fill="#48EFCF"/>
</g>
</svg>
