<svg width="100" height="116" viewBox="0 0 100 116" fill="none" xmlns="http://www.w3.org/2000/svg">
<mask id="mask0_825_4410" style="mask-type:luminance" maskUnits="userSpaceOnUse" x="0" y="0" width="100" height="116">
<path d="M99.8473 0H0V116H99.8473V0Z" fill="white"/>
</mask>
<g mask="url(#mask0_825_4410)">
<path d="M69.5018 11.7326C56.3328 6.88087 44.118 12.054 37.4783 21.2954C57.3373 5.11295 88.2961 24.2186 85.2424 49.0298C84.7401 53.0779 83.3238 56.7946 81.2143 60.009C85.7949 56.1216 89.0293 50.4461 89.7526 42.9324C91.0685 29.3616 82.1284 16.3834 69.5018 11.7326Z" fill="#101C3F" stroke="#101C3F" stroke-miterlimit="10"/>
<path d="M39.5776 5.63528C8.02615 24.4898 24.8415 70.5462 57.3372 75.7094C77.0455 78.8434 96.563 65.6644 99.0743 45.4136C102.841 14.4849 66.9 -10.6779 39.5776 5.64533V5.63528ZM89.6721 43.6557C88.0448 56.9051 76.5834 66.5985 63.3742 66.8296C38.342 67.2615 20.5322 34.3339 41.0944 16.4437C60.9534 -0.84376 92.776 18.4929 89.6721 43.6557Z" fill="#0B64DD" stroke="#101C3F" stroke-miterlimit="10"/>
<path d="M57.337 75.6994C32.0838 71.6914 16.303 42.9727 25.3335 21.5266C17.6491 32.0738 15.5095 46.6592 23.6158 60.7122C38.0706 85.7746 76.9047 87.9644 90.3048 64.3284C82.2487 73.1078 69.833 77.6984 57.3269 75.7094L57.337 75.6994Z" fill="#153385" stroke="#101C3F" stroke-miterlimit="10"/>
<path d="M40.9493 71.1058L38.0165 68.8391C35.6813 67.0343 32.3252 67.4642 30.5203 69.7994L3.60862 104.619C1.80377 106.954 2.23371 110.31 4.56891 112.115L7.50168 114.382C9.83688 116.187 13.1931 115.757 14.998 113.422L41.9096 78.602C43.7144 76.2668 43.2845 72.9107 40.9493 71.1058Z" fill="#153385" stroke="#101C3F" stroke-miterlimit="10"/>
<path d="M38.9593 69.5674L36.0265 67.3007C33.6913 65.4959 30.3352 65.9258 28.5303 68.261L1.61863 103.081C-0.186217 105.416 0.24372 108.772 2.57892 110.577L5.51168 112.844C7.84689 114.648 11.2031 114.218 13.008 111.883L39.9196 77.0637C41.7244 74.7285 41.2945 71.3723 38.9593 69.5674Z" fill="#0B64DD" stroke="#101C3F" stroke-miterlimit="10"/>
<path d="M36.4536 50.7374L52.8069 33.3696L67.111 48.4974L85.5336 25.3335" stroke="#101C3F" stroke-miterlimit="10"/>
<path d="M52.8067 37.4479C54.421 37.4479 55.7298 36.1392 55.7298 34.5248C55.7298 32.9104 54.421 31.6017 52.8067 31.6017C51.1923 31.6017 49.8835 32.9104 49.8835 34.5248C49.8835 36.1392 51.1923 37.4479 52.8067 37.4479Z" fill="#48EFCF" stroke="#101C3F" stroke-miterlimit="10"/>
<path d="M67.613 51.1896C69.2274 51.1896 70.5361 49.8809 70.5361 48.2665C70.5361 46.6521 69.2274 45.3434 67.613 45.3434C65.9986 45.3434 64.6899 46.6521 64.6899 48.2665C64.6899 49.8809 65.9986 51.1896 67.613 51.1896Z" fill="#48EFCF" stroke="#101C3F" stroke-miterlimit="10"/>
</g>
</svg>
