<svg xmlns="http://www.w3.org/2000/svg" width="41" height="40" fill="none"><g clip-path="url(#a)"><path fill="#fff" d="M28.853 3.3a.2.2 0 0 0 .225.144h.025c.066.018.137.01.197-.022q-.282-.152-.575-.294c.025.069.07.129.128.172M27.063 2.856a.26.26 0 0 0 .312.225.275.275 0 0 0 .219-.269.266.266 0 0 0-.313-.212.21.21 0 0 0-.218.256M26.413 2.188q.048.06.109.109a.7.7 0 0 1 .103.137c.113.163.24.213.347.141a.21.21 0 0 0 .094-.163q-.325-.119-.653-.224M24.875 2.078a.313.313 0 0 0 .388.153.25.25 0 0 0 .134-.312l-.01-.044-.409-.103a.31.31 0 0 0-.103.306M23.169 1.79a.22.22 0 0 0 .056.157.43.43 0 0 0 .431.031s0-.028.022-.044a.46.46 0 0 0 .19-.39q-.328-.061-.662-.11a.29.29 0 0 0-.081.291.3.3 0 0 0 .044.066M20.919 1.844c.084.05.256.197.369.081s-.022-.294-.07-.388c-.046-.093-.206-.087-.312 0-.106.088-.093.232.013.307M21.506 1.61a.416.416 0 0 0 .51.209.3.3 0 0 0 .112-.069.3.3 0 0 0 .063.103c.103.097.487.022.606-.122a.37.37 0 0 0 0-.347c-.413-.05-.828-.09-1.25-.112a.48.48 0 0 0-.04.337M17.04 2.16l-.109.052a.24.24 0 0 0-.162-.203c-.119-.05-.25-.034-.313.09-.04.101-.04.213 0 .313a.21.21 0 0 0 .213.1.78.78 0 0 0 .143.585.54.54 0 0 0 .537.248.6.6 0 0 0 .235-.086c.17-.09.36-.031.479-.184a.81.81 0 0 0 .05-.972.67.67 0 0 0-.538-.312c-.228.003-.312.28-.534.368M23.115 3.716a.57.57 0 0 0 .294-.507c.06-.096.082-.212.06-.324a.45.45 0 0 0-.175-.279.52.52 0 0 0-.666 0 .28.28 0 0 0-.35-.115.263.263 0 0 0-.106.362.222.222 0 0 0 .312.119.7.7 0 0 0 .203.431.4.4 0 0 0 .081.063q.003.015 0 .031c.066.178.207.253.347.219M24.719 3.125a.49.49 0 0 0 .037-.672.78.78 0 0 0-.806 0 .497.497 0 0 0 .053.672.58.58 0 0 0 .716 0M18.216 1.76a.18.18 0 0 0-.028-.198c-.047-.034-.144-.1-.185-.046a.18.18 0 0 0 0 .184c.028.05.172.112.213.06M26.01 3.206a.484.484 0 0 0 .543-.312.5.5 0 0 0-.21-.432.6.6 0 0 0 0-.125.16.16 0 0 0-.085-.125.16.16 0 0 0-.152.004c-.084.04-.16.093-.169.18a.47.47 0 0 0-.312.313c-.097.178.128.416.384.497M28 2.812h.022l-.225-.1a.25.25 0 0 0 .203.1M19.166 1.778a.56.56 0 0 0 .753-.131.6.6 0 0 0 .109-.397c-.356 0-.712.028-1.062.056a.6.6 0 0 0 .2.472M13.581 2.813c.232-.079.357-.222.357-.372a23 23 0 0 0-.644.253.22.22 0 0 0 .287.119M13.938 3.347a.31.31 0 0 0 .16-.372.31.31 0 0 0-.388-.137.275.275 0 0 0-.15.346.31.31 0 0 0 .378.163M18.734 2.866c.06-.06.047-.194.057-.263-.144-.137-.247-.1-.313-.025s-.122.203 0 .275a.31.31 0 0 0 .256.013"/><g clip-path="url(#b)"><path fill="#ECF0F6" d="M19.563 38.75c10.355 0 18.75-8.395 18.75-18.75S29.918 1.25 19.563 1.25.813 9.645.813 20s8.394 18.75 18.75 18.75"/><path fill="#fff" d="M27.875 3.306a.2.2 0 0 0 .225.144h.022c.067.018.139.01.2-.022q-.285-.151-.575-.294c.026.068.07.128.128.172M28.834 4.56c-.168-.166-.35-.191-.465-.066a.4.4 0 0 0-.038.065.13.13 0 0 0-.103-.053c-.11 0-.088.144-.088.2s.091.097.113.085l.04-.025c-.014.11.011.22.073.312a.34.34 0 0 0 .496-.05c.17-.156.16-.287-.028-.469M28.61 5.875a.14.14 0 0 0-.075-.16.19.19 0 0 0-.194.079c-.031.056.044.14.1.16a.144.144 0 0 0 .169-.079M28.738 8.113c.109-.041.203-.113.15-.229-.054-.115-.179-.284-.282-.265s-.115.278-.106.372.106.172.238.122M26.1 2.866a.26.26 0 0 0 .313.221.27.27 0 0 0 .212-.278.263.263 0 0 0-.312-.212.21.21 0 0 0-.213.269M28.263 9.456c-.072.063 0 .172.043.181a.144.144 0 0 0 .178 0 .094.094 0 0 0 0-.143c-.056-.041-.153-.082-.222-.038M27.722 4.784a.44.44 0 0 0-.29-.472.37.37 0 0 0-.282.054.51.51 0 0 0-.131.706q.165.034.334.034a.406.406 0 0 0 .369-.322M25.438 2.194a.7.7 0 0 0 .109.11q.06.061.103.137c.113.162.24.215.344.14a.21.21 0 0 0 .097-.162c-.213-.081-.435-.153-.654-.225M27.281 5.662a.097.097 0 0 0-.018.16.113.113 0 0 0 .18-.135.103.103 0 0 0-.162-.025M30.925 13.738a.18.18 0 0 0-.065.159.17.17 0 0 0 .15.069c.046 0 .159-.107.118-.175a.18.18 0 0 0-.203-.053M34.29 17.49c-.109 0-.087.144-.087.2s.09.094.112.085c.022-.01.113-.081.116-.131s-.034-.157-.14-.153M34.75 12.672h.022a.25.25 0 0 0 .144 0 .294.294 0 0 0 .2-.353.28.28 0 0 0-.135-.157.3.3 0 0 0-.028-.109.313.313 0 0 0-.434-.097.36.36 0 0 0-.197.497c.087.175.306.284.428.219M37.61 19.066c.193-.053.58-.22.434-.566a.46.46 0 0 0-.503-.219.472.472 0 0 0-.654-.625.434.434 0 0 0-.2.547.68.68 0 0 0 .591.263.3.3 0 0 0-.069.2c.019.153-.34.093-.312.312s-.228.313-.185.578c.044.266.253.481.457.366a.9.9 0 0 0 .372-.5c.046-.166-.125-.303.068-.356M34.11 13.003a.313.313 0 0 0-.395-.125.24.24 0 0 0-.134.238.38.38 0 0 0 .022.35.294.294 0 0 0 .51-.25.27.27 0 0 0-.004-.213M30.472 6.662c0-.062-.163-.203-.234-.184s-.141.238-.116.269.181.178.244.144a.27.27 0 0 0 .106-.229M29.734 8.397a.57.57 0 0 0 .585.031c.137-.147.112-.312-.072-.484A.27.27 0 0 0 30 7.869a.23.23 0 0 0 0-.122.31.31 0 0 0-.356-.213.25.25 0 0 0-.185.294.275.275 0 0 0 .27.24.25.25 0 0 0 .005.329M26.022 5.163c.078.071.172.134.278.043a.284.284 0 0 0 0-.394.8.8 0 0 0-.272.079.166.166 0 0 0-.057.211q.019.037.051.06M34.24 11.913a.8.8 0 0 0-.287-.113c-.15 0-.244.19-.197.353a.24.24 0 0 0 .313.156.313.313 0 0 0 .172-.396M31.881 9.137a.28.28 0 0 0 .344-.103.2.2 0 0 0 .031-.165 3 3 0 0 0-.237-.332c.078-.312 0-.571-.185-.625a.54.54 0 0 0-.525.313.3.3 0 0 0-.056-.072.31.31 0 0 0-.387 0 .39.39 0 0 0-.02.425.38.38 0 0 0 .454-.037v-.025a.9.9 0 0 0 .44.221c-.024.154-.084.329.141.4M35.687 16.41c.047 0 .185-.085.163-.148a.17.17 0 0 0-.166-.084c-.056 0-.165.06-.147.122a.19.19 0 0 0 .15.11M36.287 15.784a.26.26 0 0 0 0-.312.294.294 0 0 0-.362-.125c-.185.103-.163.284-.153.45.29.125.418.125.515-.013M36.7 12.394q-.103-.234-.21-.469l-.056.019a.27.27 0 0 0-.112.137.5.5 0 0 0-.281 0c-.207.04-.313.178-.288.313.025.134.347.39.466.372a.35.35 0 0 0 .281-.338.26.26 0 0 0 .181-.022zM23.91 2.084a.313.313 0 0 0 .384.154.247.247 0 0 0 .134-.313.2.2 0 0 0-.019-.034L24 1.788a.31.31 0 0 0-.09.296M38.31 19.822a.2.2 0 0 0-.038.022.31.31 0 0 0 .019.38v-.237c0-.078.018-.106.018-.165M19.762 4.01a.5.5 0 0 0 .207.237q.035.08.1.14a.515.515 0 0 0 .69-.13.36.36 0 0 0-.053-.535.48.48 0 0 0-.337-.128.335.335 0 0 0-.416-.082.355.355 0 0 0-.19.497M22.19 1.797c0 .058.022.113.06.156a.42.42 0 0 0 .428.031s0-.028.025-.043a.46.46 0 0 0 .19-.39 16 16 0 0 0-.665-.11.28.28 0 0 0-.078.29.3.3 0 0 0 .04.066M37.253 13.834a.4.4 0 0 0 0 .11.21.21 0 0 0 .12.175q-.179-.539-.388-1.063a.45.45 0 0 0-.213.522.45.45 0 0 0 .481.256M35.4 13.719a.448.448 0 0 0 .572.41c.247-.05.375-.313.312-.626a.39.39 0 0 0-.428-.34.53.53 0 0 0-.522-.12.47.47 0 0 0-.15.5.33.33 0 0 0 .216.176M19.94 1.85c.088.05.257.197.372.081.116-.115-.025-.294-.072-.384s-.203-.088-.312 0c-.11.087-.106.228.012.303M36.453 14.956a.29.29 0 0 0 .144-.406.248.248 0 0 0-.363-.078c-.106.069-.224.144-.168.265.106.204.26.278.387.22M22.84 4.131a.2.2 0 0 0 0 .06.63.63 0 0 0-.453.168.26.26 0 0 0 .053.366.376.376 0 0 0 .532.038.45.45 0 0 0 .11-.354.25.25 0 0 0 .24-.13c.093-.157-.02-.285-.125-.42-.16.047-.347.057-.357.272M20.532 1.616a.41.41 0 0 0 .506.209.3.3 0 0 0 .115-.069.3.3 0 0 0 .063.103c.103.097.487.022.603-.122a.36.36 0 0 0 0-.346c-.412-.05-.825-.091-1.25-.113a.5.5 0 0 0-.037.338M23.36 5.556a.49.49 0 0 0-.576-.11.475.475 0 0 0-.034.626.35.35 0 0 0 .262.1.26.26 0 0 0-.024.234.29.29 0 0 0 .378.153.27.27 0 0 0 .156-.372.25.25 0 0 0-.153-.137l.022-.016a.33.33 0 0 0-.032-.478M37.728 15.35c-.053-.206-.112-.41-.172-.625a.4.4 0 0 0-.087.122.4.4 0 0 0-.16.037s-.015 0-.021.02c-.37.021-.46.265-.263.693a.5.5 0 0 1-.062.078.24.24 0 0 0-.035.313.25.25 0 0 0 .263.134c.29 0 .38-.097.359-.387v-.257q.03.008.06 0a.3.3 0 0 0 .118-.128M35.831 10.863q.014.054.06.087a.25.25 0 0 0-.17.281v.025a.58.58 0 0 0-.224.516.353.353 0 0 0 .512.147.27.27 0 0 0 .16-.269 1 1 0 0 0 .19.025 18 18 0 0 0-.518-.972.6.6 0 0 0-.01.16M31.656 6.563c-.23.046-.312.15-.29.312.047.228.212.36.39.313a.59.59 0 0 0 .263-.463c-.022-.144-.153-.206-.363-.162M35.037 10.54a.28.28 0 0 0-.282.35.31.31 0 0 0 .27.241.34.34 0 0 0 .27-.271.34.34 0 0 0-.032-.217.22.22 0 0 0-.226-.102M30.878 6.381c.178.016.347.078.428-.106a.276.276 0 0 0-.093-.344.2.2 0 0 0-.079-.047.4.4 0 0 0 0-.278.38.38 0 0 0-.421-.037.2.2 0 0 0-.029.312.7.7 0 0 0 .17.16.44.44 0 0 0 .024.34M31.816 7.85a.2.2 0 0 0 .312-.016.363.363 0 0 0 .066-.475.43.43 0 0 0-.485-.034c-.134.103-.084.347.107.525M16.066 2.169a1 1 0 0 0-.11.053.24.24 0 0 0-.162-.206c-.122-.05-.25-.035-.313.09-.04.1-.04.212 0 .313a.21.21 0 0 0 .213.1.76.76 0 0 0 .14.584.56.56 0 0 0 .288.228.57.57 0 0 0 .484-.065c.172-.091.363-.032.481-.185a.81.81 0 0 0 .047-.972.65.65 0 0 0-.534-.312c-.228.003-.313.281-.534.372M21.762 3.963a.28.28 0 0 0-.068.23c.018.066.143.207.228.188.084-.018.115-.212.112-.287a.19.19 0 0 0-.272-.131M22.128 3.725a.57.57 0 0 0 .29-.51.45.45 0 0 0-.112-.603.53.53 0 0 0-.669 0 .28.28 0 0 0-.346-.115.263.263 0 0 0-.1.353.222.222 0 0 0 .312.119c.01.164.076.32.188.44a.5.5 0 0 0 .084.063.1.1 0 0 0 0 .031c.084.178.225.266.353.222M22.953 8.788a.228.228 0 0 0 .375.14.238.238 0 0 0-.162-.375.25.25 0 0 0-.213.235M23.756 7.04a.3.3 0 0 0-.175-.156.49.49 0 0 0-.625.282c-.025.053-.047.106-.075.162a3 3 0 0 0-.29-.137.256.256 0 0 0-.379.14.41.41 0 0 0 .038.466.31.31 0 0 0 .29.119.25.25 0 0 0 .107.162c.165.066.312-.106.312-.197a.16.16 0 0 0-.053-.118l.072-.044c.05.022.103.05.156.069a.54.54 0 0 0 .578-.141.63.63 0 0 0 .044-.606M21.61 5.403a.38.38 0 0 0-.229-.103l-.04-.037c-.422-.032-.294-.313-.585-.425a.4.4 0 0 0-.14-.02.34.34 0 0 0-.275.554q.163.232.38.416a.256.256 0 0 1 .313.146c.135.147.313.129.488-.05a.415.415 0 0 0 .087-.48M15.903 6.247a.45.45 0 0 0 .481-.06.36.36 0 0 0 .035-.428.5.5 0 0 0 .26-.578.51.51 0 0 0-.416-.353.38.38 0 0 0 .115-.312c0-.36-.215-.57-.44-.575a.6.6 0 0 0-.45.287.247.247 0 0 0-.313-.119.29.29 0 0 0-.147.354.27.27 0 0 0 .338.171l.047-.021a.49.49 0 0 0 .406.33h.06a.47.47 0 0 0-.07.51q.04.11.113.2a.24.24 0 0 0-.163.1.354.354 0 0 0 .144.494M15.41 5.822a.28.28 0 0 0-.248-.206.3.3 0 0 0-.112.012.27.27 0 0 0-.125.36.253.253 0 0 0 .312.159.237.237 0 0 0 .172-.325M15.056 10.256a.13.13 0 0 0-.065.135c.018.047.115.065.168.06.053-.007.128-.082.103-.154s-.153-.056-.206-.04M7.306 7.537c-.068.032-.23.147-.168.294s.237.081.312.05a.26.26 0 0 0 .11-.21.17.17 0 0 0-.254-.134M23.744 3.14a.487.487 0 0 0 .034-.671.77.77 0 0 0-.803 0 .497.497 0 0 0 .053.672.58.58 0 0 0 .716 0M24.49 7.44c0 .135.098.17.376.138a.234.234 0 0 0-.163-.375.25.25 0 0 0-.212.238M30.966 16.244c.043-.035.093-.107.084-.153-.01-.047-.131-.135-.172-.116s-.053.16-.04.213.109.071.128.056M31.253 15.51s.053.053.084.037a.08.08 0 0 0 .04-.106.08.08 0 0 0-.074-.035v-.19c.087-.231-.05-.544-.253-.569a.4.4 0 0 0-.413.219.31.31 0 0 0 .085.412c.103.088.262.313.45.253a.3.3 0 0 0 .08-.022M29.316 7.206a.46.46 0 0 0 .568-.131c.128-.147.1-.312-.072-.478a.4.4 0 0 0 0-.128c-.046-.206-.218-.285-.475-.216a.365.365 0 0 0-.24.378.73.73 0 0 1 .231.575zM30.64 18.053a.26.26 0 0 0 .347.147.27.27 0 0 0 .144-.312.264.264 0 0 0-.356-.135.207.207 0 0 0-.134.3M26.669 7.047a.3.3 0 0 0 0-.075c-.028-.081-.16-.266-.231-.247a.2.2 0 0 1-.072-.087c-.063-.135-.156-.144-.313-.116-.156.028-.387.078-.34.29.047.213.19.213.256.194s.184.044.125.088c-.06.044-.075.137.031.29a.28.28 0 0 0 .4.113.394.394 0 0 0 .144-.45M26.456 10.606c-.031 0-.137.063-.125.138s.14.078.194.072a.13.13 0 0 0 .087-.122c-.009-.05-.109-.085-.156-.088M25.838 4.806a.544.544 0 0 0-.287-.681c-.029-.072-.1-.162-.157-.16a.1.1 0 0 0-.047.02.43.43 0 0 0-.288-.166.8.8 0 0 0-.806.54.66.66 0 0 0 .066.625c.134.185.41.085.625.21.478.284.756-.035.894-.388M25.038 8.422c-.032.044-.091.11-.032.175a.094.094 0 0 0 .147 0c.038-.038.119-.144.066-.203s-.166 0-.181.028M27.6 9.1c.047 0 .172-.081.162-.144s-.153-.11-.196-.097a.1.1 0 0 0-.041.019.16.16 0 0 0-.219-.047c-.16.097-.362.156-.437.375l.103.24c-.125.216-.144.454-.031.541a.25.25 0 0 0 .312 0c.184-.13.2-.225.103-.475q.104-.207.185-.425.027.015.059.013M21.303 6.8a.08.08 0 0 0-.046.042.08.08 0 0 0 0 .061.084.084 0 0 0 .102.035c.025 0 .038-.075.028-.094a.08.08 0 0 0-.084-.044M9.566 6.578c.093.047.365-.331.331-.444s-.294-.112-.444.032c-.15.143.019.365.113.412M12.06 10.731a.76.76 0 0 0 .334-.725.51.51 0 0 0-.656-.256.575.575 0 0 0-.313.647.52.52 0 0 0 .634.334M11.453 7.294c.081.131.131.312.347.26a.253.253 0 0 0 .206-.285.3.3 0 0 0-.143-.207c-.138-.078-.241-.009-.41.232M10.028 4.5c-.053-.112-.137-.181-.25-.15-.298.06-.57.21-.781.428a.4.4 0 0 0-.063.128.34.34 0 0 0 .44.435q.272-.083.513-.232a.53.53 0 0 0 .141-.609M11.584 5.75a.28.28 0 0 0-.184.334.313.313 0 0 0 .362.2.284.284 0 0 0-.178-.534M7.994 6.394a.27.27 0 0 0 .25.243c.159 0 .275-.359.187-.44-.087-.081-.44.04-.437.197M8.55 5.481c-.025.06.053.138.103.156.05.02.172 0 .197-.084s-.097-.15-.137-.153a.17.17 0 0 0-.163.081M10.169 8.5a.456.456 0 0 0 .24-.563.49.49 0 0 0-.65-.312.39.39 0 0 0-.268.497.625.625 0 0 0 .678.378M9.731 9.806c.053-.056-.028-.225-.075-.253a.2.2 0 0 0-.197.047.22.22 0 0 0 .025.206.25.25 0 0 0 .247 0M12.697 6.556a.36.36 0 0 0-.216.488c.05.162.25.225.478.153a.266.266 0 0 0 .203-.347.56.56 0 0 0-.465-.294M16.34 9.853c.054-.15.057-.094.22-.122.162-.028.365-.165.228-.422a.55.55 0 0 0-.703-.175.64.64 0 0 0-.182.838c.135.178.385.031.438-.119M17.237 1.766q.023-.047.015-.098a.17.17 0 0 0-.043-.09c-.043-.034-.14-.097-.18-.047a.18.18 0 0 0 0 .188c.027.037.17.1.208.047M14.112 2.113a.3.3 0 0 0 .057-.029.55.55 0 0 0-.025.46.5.5 0 0 0 .093.147.71.71 0 0 0-.578.33.51.51 0 0 0 .225.582c.138.09.272.147.272.36 0 .153.15.187.313.174.128-.159.115-.312-.025-.4q.125-.218.21-.456a.63.63 0 0 0-.18-.472.57.57 0 0 0 .338-.059c.341-.169.407-.313.313-.625a.47.47 0 0 0-.281-.281 21 21 0 0 0-.857.243q.059.033.125.025M16.622 7.225a.55.55 0 0 0-.556.075c-.103.113-.216.225-.1.4s.153.269.228.403a.224.224 0 0 0 .29.216.29.29 0 0 0 .213-.35.7.7 0 0 1 0-.294.39.39 0 0 0-.075-.45M17.162 4.866a.275.275 0 0 0 .178-.34.29.29 0 0 0-.346-.167.232.232 0 0 0-.157.313.256.256 0 0 0 .325.194M13.26 5.256a.267.267 0 0 0-.36-.125.47.47 0 0 0-.085-.25.5.5 0 0 1-.112-.353c.025-.21-.122-.347-.262-.472a.475.475 0 0 0-.529 0l-.043.028a.45.45 0 0 0 .015-.334c-.062-.156-.26-.206-.487-.122-.172.063-.313.275-.257.406a.5.5 0 0 0 .52.278.2.2 0 0 0 .068-.034.5.5 0 0 0 0 .225c.043.196.154.37.313.494a.4.4 0 0 1 .118.184.347.347 0 0 0 .503.288.2.2 0 0 0 0 .1.31.31 0 0 0 .382.087.313.313 0 0 0 .215-.4M14.606 8.372a.8.8 0 0 0 .147-.203.263.263 0 0 0-.356-.147c-.113.056-.094.147-.062.237.03.09.174.188.271.113M14.384 7.175a.8.8 0 0 0 .147-.203.263.263 0 0 0-.356-.147c-.113.056-.094.147-.063.238.032.09.175.187.272.112M14.51 5.447a.55.55 0 0 0 .218-.61.313.313 0 0 0-.431-.165.334.334 0 0 0-.216.5c.081.206.284.337.428.275M33.106 8.456a.4.4 0 0 0 .313-.419.34.34 0 0 0-.313-.278c-.269.035-.46.2-.434.375a.45.45 0 0 0 .434.322M32.084 15.76a.44.44 0 0 0 .163-.435.27.27 0 0 0-.37-.097.26.26 0 0 0-.096.366c.078.16.2.225.303.165M31.815 13.694a.26.26 0 0 0 .291.2.256.256 0 1 0-.047-.51.33.33 0 0 0-.244.31M31.956 10.456c.275-.04.494-.268.466-.484a.4.4 0 0 0-.044-.122c.05.031.106.063.15.094a.106.106 0 0 0 .16-.019.31.31 0 0 0-.082-.403.24.24 0 0 0-.344.169.57.57 0 0 0-.453-.203.515.515 0 0 0-.381.559.494.494 0 0 0 .528.41M32.04 22.175a.16.16 0 0 0 .12-.181.16.16 0 0 0-.032-.072c-.047-.075-.216-.222-.281-.188-.066.035-.094.244-.088.335.006.09.14.156.281.106M32.488 11.288c.075-.041.265-.157.24-.257s-.265-.11-.34-.09c-.075.018-.1.146-.097.221s.087.176.197.126M32.288 16.303a.26.26 0 0 0 .115-.106.2.2 0 0 0 .056 0 .276.276 0 0 0 .213-.287.24.24 0 0 0-.088-.165.23.23 0 0 0-.18-.048.266.266 0 0 0-.21.284.24.24 0 0 0 .034.103c-.05.032-.144.094-.11.15a.18.18 0 0 0 .17.07M33.178 19.431c.044-.034.094-.106.085-.153-.01-.047-.07-.147-.172-.119-.104.029-.053.16-.041.216.013.056.11.072.128.056M29.003 13.263a.276.276 0 0 0-.094-.344.21.21 0 0 0-.287 0c-.16.128-.119.281-.047.46.163.005.331.068.428-.117M32.725 18.162a.284.284 0 0 0 .144-.312c-.041-.088-.21-.106-.347-.04a.15.15 0 0 0-.106.162.15.15 0 0 0 .025.065c.059.097.143.178.284.125M30.566 9.763a.27.27 0 0 0 .259-.225.23.23 0 0 0 .197-.075.194.194 0 0 0 0-.282.204.204 0 0 0-.313-.037.2.2 0 0 0-.06.084.4.4 0 0 0-.262-.09.31.31 0 0 0-.253.33.38.38 0 0 0 .431.295M29.528 8.878a.084.084 0 0 0 .063-.097c0-.047-.072-.053-.097-.05s-.05.069-.044.09c.006.023.04.063.078.057M29.212 5.578a.46.46 0 0 0 .091.49.31.31 0 0 0 .388-.034c.175-.209.203-.421.071-.53a.465.465 0 0 0-.55.074M29.566 4.916a.42.42 0 0 0 .347-.35c.02.065.06.124.112.168a.2.2 0 0 0 .294-.087c-.34-.238-.688-.472-1.047-.688a.56.56 0 0 0-.312.566.58.58 0 0 0 .606.39M30.031 11.288a.43.43 0 0 0 .294-.529.45.45 0 0 0-.515-.271.416.416 0 0 0 .221.8M31.55 12.362c-.044-.087-.181-.293-.275-.268s-.138.259-.144.359.156.181.272.144.2-.122.147-.235M31.612 11.675c-.018-.075-.262-.272-.387-.219s-.081.378-.031.482a.31.31 0 0 0 .312.124c.138-.053.134-.271.106-.387M33.544 11.216c.153-.025.272-.26.231-.453-.053-.257-.172-.366-.365-.332a.47.47 0 0 0-.27.178.2.2 0 0 0 0-.068.268.268 0 1 0-.496.2.31.31 0 0 0 .369.118q.031-.015.056-.037a.3.3 0 0 0 0 .069.5.5 0 0 0 .475.325M30.072 13.39c.022 0 .106-.074.1-.1-.006-.024-.034-.165-.125-.165-.09 0-.113.125-.103.15a.22.22 0 0 0 .128.116M30.344 19.669c.065-.025.1-.216.075-.253s-.147-.15-.203-.135c-.057.016-.116.153-.104.219s.163.197.232.169M33.04 12.669c-.04-.11-.312-.166-.378-.097a.31.31 0 0 0 0 .275.16.16 0 0 0 .173.13.16.16 0 0 0 .074-.027c.094-.06.181-.137.131-.281M38.234 21.669c0-.072 0-.14.016-.21a.24.24 0 0 0-.016.21M37.49 22.44c0 .179 0 .363.226.382a.275.275 0 0 0 .312-.181.21.21 0 0 0 0-.166 4 4 0 0 0-.312-.269c0-.331-.125-.56-.313-.562a.544.544 0 0 0-.453.469c-.025.228.084.296.54.328M37.144 20.956a.59.59 0 0 0 .147-.509c-.057-.14-.197-.169-.391-.078-.194.09-.281.222-.21.375a.334.334 0 0 0 .454.212M36.76 23.41a.444.444 0 0 0-.5-.241.313.313 0 0 0-.172.378.387.387 0 0 0 .478.19c.165-.065.25-.193.194-.327M25.034 3.212a.48.48 0 0 0 .544-.312.51.51 0 0 0-.21-.431.6.6 0 0 0 0-.125.163.163 0 0 0-.24-.122.26.26 0 0 0-.169.181.48.48 0 0 0-.312.313c-.094.178.13.4.387.496M36.847 27.125c-.087.022-.081.15-.066.169a.3.3 0 0 0 .044.037q.04-.1.081-.2a.1.1 0 0 0-.059-.006M37.725 23.181a.51.51 0 0 0-.244.625.53.53 0 0 0 .375.313c.069-.313.128-.625.181-.916a.42.42 0 0 0-.312-.022M32.947 25.55c-.022-.044-.119-.056-.175-.047s-.119.09-.09.163c.027.072.159.043.209.025a.14.14 0 0 0 .056-.14M36.41 25.35a.43.43 0 0 0 .162-.581.44.44 0 0 0-.562-.144.362.362 0 0 0-.132.544.364.364 0 0 0 .532.18M35.44 22.263a.31.31 0 0 0 .126-.35.313.313 0 0 0-.397-.125.25.25 0 0 0-.11.312.27.27 0 0 0 .382.163M35.85 27.503a.27.27 0 0 0-.169-.312.206.206 0 0 0-.281.056c-.125.163-.05.313.06.46.174-.026.352-.004.39-.204M33.972 17.6a.215.215 0 0 0 .144-.313.235.235 0 0 0-.29-.128c-.11.025-.198.313-.117.375a.31.31 0 0 0 .263.066M34.484 19.25a.49.49 0 0 0 .2-.69.44.44 0 0 0-.603-.244.56.56 0 0 0-.269.687.59.59 0 0 0 .672.247M33.903 15.197c.077.03.16.036.24.019a.37.37 0 0 0 .248-.441c-.038-.19-.147-.275-.313-.247a.5.5 0 0 0-.131.047.27.27 0 0 0-.24 0 .48.48 0 0 0-.226.512c.047.091.247.138.422.11M33.85 16.247c-.066.06-.144.128-.131.212.012.085.25.185.365.12.116-.067.085-.154.047-.242-.037-.087-.187-.174-.281-.09M33.537 23.788c.047 0 .15-.12.125-.179s-.172-.072-.212-.05a.16.16 0 0 0-.081.166c.025.063.125.063.168.063M34.416 22.553c.1-.066.175-.16.097-.26-.079-.1-.241-.234-.338-.193-.097.04-.05.313 0 .387a.155.155 0 0 0 .176.096.2.2 0 0 0 .065-.03M35.363 23.112a.08.08 0 0 0 .04-.106.09.09 0 0 0-.106-.028c-.025 0-.031.078-.022.097s.053.053.088.037M34.972 21.287a.46.46 0 0 0 .094-.575c-.097-.187-.282-.225-.516-.1a.37.37 0 0 0-.147.425c.075.147.447.313.569.25M19.919 9.125c.1-.028.078-.313.047-.328-.09-.072-.194-.19-.313-.153-.118.037-.097.197-.065.24.03.044.234.272.33.24M35.722 20.975a.28.28 0 0 0 .05-.244c-.028-.06-.206-.162-.272-.125s-.081.26-.05.288.219.14.272.08M36.432 18.956a.494.494 0 0 0-.194-.572c-.163-.106-.431.06-.59.282a.49.49 0 0 0 .17.603.497.497 0 0 0 .614-.313M35.306 18.413a.3.3 0 0 0 .184-.172c.035-.185-.118-.222-.253-.266-.14.094-.218.206-.128.356a.22.22 0 0 0 .197.082M35.369 15.313a.42.42 0 0 0-.094-.313c-.16-.137-.272.019-.41.116.048.2.11.359.313.347a.25.25 0 0 0 .19-.15M36.538 17.306a5 5 0 0 0-.428-.38.237.237 0 0 0-.347.059.25.25 0 0 0 .028.35.9.9 0 0 1 .147.19.385.385 0 0 0 .453.235c.2-.041.272-.185.147-.454M37.84 16.031a.45.45 0 0 1-.418.266.425.425 0 0 0-.275.406.56.56 0 0 0 .475.313c.125 0 .297-.02.313-.178a.5.5 0 0 1 .068-.216 12 12 0 0 0-.125-.625c-.012.01-.03.015-.037.034M36.772 16.772a.2.2 0 0 0 .075-.066h.031c.081-.031.184-.153.175-.219a.27.27 0 0 0-.11-.14.2.2 0 0 0-.021-.063.49.49 0 0 0-.519-.115.25.25 0 0 0-.094.362c.128.253.278.331.463.24M34.703 17.706a.4.4 0 0 0 .285-.153.125.125 0 0 0-.054-.19.28.28 0 0 0-.225.046c-.071.038-.146.057-.18.135-.035.078.059.172.174.162M36.484 20.172a.275.275 0 0 0-.172-.313.204.204 0 0 0-.278.057c-.128.162-.05.312.06.459.175-.025.353-.003.39-.203M34.694 16.6a.17.17 0 0 0-.088.188.14.14 0 0 0 .157.115.16.16 0 1 0-.07-.312zM30.694 7.512a.57.57 0 0 1 .35-.121c.06 0 .134-.138.137-.213a.31.31 0 0 0-.128-.228.25.25 0 0 0-.219.037 2 2 0 0 0-.312.282c-.081.087-.062.168.038.253.043-.003.109.015.134-.01M32.469 6.403q-.398-.377-.819-.734v.043c-.016.26.131.522.353.466a.7.7 0 0 0 .088.106.45.45 0 0 0 .378.12M31.19 5.3a27 27 0 0 0-.468-.362.42.42 0 0 0 .128.312.45.45 0 0 0 .34.05M27.031 2.812h.022l-.228-.1a.25.25 0 0 0 .206.1M38.16 17.638l-.038.034.066.147a3 3 0 0 1-.028-.181M34.34 9.122a.64.64 0 0 0 .235.678.63.63 0 0 0 .678-.075 19 19 0 0 0-1.19-1.625l-.095.034a.368.368 0 0 0-.15.591q.24.226.522.397M34.375 11.34a.27.27 0 0 0 .16-.343.21.21 0 0 0-.313-.147.257.257 0 0 0-.172.338.266.266 0 0 0 .325.153M33.431 9.36c.069 0 .156-.1.19-.173a.23.23 0 0 0-.056-.206c-.14-.1-.265-.044-.375.094.035.134.06.294.241.284M33.919 7.944a32 32 0 0 0-.831-.938 1 1 0 0 0-.026.1c0 .126.028.25.082.363q.055.111.147.194.086.089.184.165a.39.39 0 0 0 .444.116M13.662 8.9c.044-.019.113-.094.091-.156-.022-.063-.116-.088-.162-.075-.047.012-.16.106-.138.168s.169.082.21.063M19.584 5.19c.107-.1-.015-.418-.13-.415-.117.003-.285.275-.188.384a.25.25 0 0 0 .318.032M20.253 7.731a.52.52 0 0 0 .253-.603.38.38 0 0 0-.494-.14.354.354 0 0 0-.197.496c.097.213.291.322.438.247M18.897 7.137a.256.256 0 0 0 .181-.328.26.26 0 0 0-.334-.172.31.31 0 0 0-.188.341.26.26 0 0 0 .34.16M19.316 3.103a.25.25 0 0 0-.172-.275c-.207-.072-.282.094-.36.24l-.275-.065v-.075a1 1 0 0 0 .119-.084c.166-.14.34-.272.51-.407.271.291.312.291.512 0 .077.027.16.027.237 0a.237.237 0 0 0 .144-.312.36.36 0 0 0-.412-.25.294.294 0 0 0-.207.353.5.5 0 0 0-.165.022c-.256-.428-.54-.397-.806.062a.5.5 0 0 1-.1 0 .2.2 0 0 0-.235.088.4.4 0 0 0-.266.087.39.39 0 0 0 .07.485c.043.053.093.1.143.153a.88.88 0 0 0-.081.49 1 1 0 0 0-.11.06.48.48 0 0 0-.078.625.5.5 0 0 0 .688-.05.55.55 0 0 0 .122-.384l.068-.02c.27-.084.313-.293.285-.54.175-.019.369.022.369-.203M20.135 6.912c.128-.106.093-.353-.072-.537a.31.31 0 0 0-.388 0 .38.38 0 0 0-.06.478.43.43 0 0 0 .52.06M28.203 7.6a.27.27 0 0 0 .088-.219.44.44 0 0 0-.028-.253.56.56 0 0 0-.4-.278.41.41 0 0 0-.394.194.36.36 0 0 0 0 .362.43.43 0 0 0 .313.232c.165-.004.334.053.421-.038M27.016 3.566a.53.53 0 0 0-.313-.253.31.31 0 0 0-.284-.1c-.079.028-.11.121-.122.218a.5.5 0 0 0-.15.653.625.625 0 0 0 .75.107.485.485 0 0 0 .119-.625M23.969 5.71c.184.068.312-.05.394-.216-.053-.147-.12-.29-.313-.281a.23.23 0 0 0-.234.256.31.31 0 0 0 .153.24"/><path fill="#fff" d="M23.825 3.9a.263.263 0 0 0-.312-.178.275.275 0 0 0-.185.334.21.21 0 0 0 .294.166.253.253 0 0 0 .203-.322M18.294 9.394c.065-.022.062-.156.053-.213s-.075-.087-.125-.065a.2.2 0 0 0-.094.147c.003.04.097.15.166.13M18.19 1.784a.553.553 0 0 0 .75-.13.6.6 0 0 0 .113-.392c-.356 0-.713.029-1.066.057a.63.63 0 0 0 .204.465M12.606 2.825c.232-.084.36-.228.354-.378a12 12 0 0 0-.626.253.22.22 0 0 0 .272.125M28.472 10.484c.128-.115.15-.36.034-.434s-.5.134-.51.287c-.009.154.348.263.476.147M12.953 3.353a.31.31 0 0 0 .162-.372.313.313 0 0 0-.39-.137.27.27 0 0 0-.147.347.31.31 0 0 0 .375.162M17.813 7.697a.178.178 0 0 0 .165-.219c-.028-.128-.187-.247-.28-.184-.095.062-.257.194-.207.312.05.119.237.1.322.09M10.981 5.806a.31.31 0 0 0 .272-.09.313.313 0 0 0-.147-.46.275.275 0 0 0-.334.313.37.37 0 0 0 .21.237M17.753 2.872c.06-.056.044-.194.056-.263-.143-.137-.246-.096-.312-.025s-.125.204 0 .275a.31.31 0 0 0 .256.013M18.163 6.166a.267.267 0 0 0-.366-.163.313.313 0 0 0-.122.397.31.31 0 0 0 .366.122.26.26 0 0 0 .122-.356M18.497 4.947q.015.016.034.028a.31.31 0 0 0 .257.028c.184-.1.162-.266.072-.462a1 1 0 0 0-.279 0h-.03a.22.22 0 0 0-.191.084.37.37 0 0 0 .024.281q.05.04.113.04"/><path fill="#7DE2D1" d="M5.188 13.613h19.03a1.144 1.144 0 0 1 1.145 1.143v12.147H4.03V14.756a1.144 1.144 0 0 1 1.157-1.143"/><path fill="#42D4C6" d="M8.8 15.522a.187.187 0 0 0 .019.312.23.23 0 0 0 .337-.021.244.244 0 0 0-.018-.313.234.234 0 0 0-.338.022M9.5 16.288a.134.134 0 0 0 .031.215c.09.063.19.094.281 0a.256.256 0 0 0-.018-.312c-.07-.075-.21-.022-.294.097M9.003 14.2a.39.39 0 0 0-.047-.416.244.244 0 0 0-.334.072.23.23 0 0 0 .072.332c.137.096.262.1.31.012M9.431 17.256a.21.21 0 0 0 0 .216c.031.044.213.094.253.044s0-.213-.043-.235c-.044-.022-.17-.056-.21-.025M9.428 14.353a.16.16 0 0 0-.166.04c-.028.044-.078.138-.028.17a.16.16 0 0 0 .166 0c.031-.044.078-.179.028-.21M12.631 19.334c0 .019 0 .075.025.088a.07.07 0 0 0 .053.02.07.07 0 0 0 .05-.029.07.07 0 0 0-.007-.081.1.1 0 0 0-.024-.017c-.037-.028-.081.004-.097.02M11.25 14.938c-.072 0-.116.068-.16.13-.043.063-.093.107-.09.185s.119.11.21.056a.37.37 0 0 0 .162-.24.116.116 0 0 0-.122-.132M8.231 14.263c0 .018 0 .075.022.084s.066.022.085 0a.07.07 0 0 0 .018-.084.069.069 0 0 0-.125.003zM8.134 14.866c-.025.03.025.146.056.184a.14.14 0 0 0 .129 0 .2.2 0 0 0 0-.156c-.02-.035-.157-.063-.185-.028M12.216 16.984c-.153-.112-.313-.065-.453.132a.33.33 0 0 0 .056.4.56.56 0 0 0 .56-.032.42.42 0 0 0-.163-.5M10.797 13.76c.21.152.36.152.472 0a.24.24 0 0 0 .037-.15h-.625c.02.061.061.114.116.15M11.544 16a.394.394 0 0 0-.582.053.494.494 0 0 0 .066.656.52.52 0 0 0 .625-.075.44.44 0 0 0-.11-.634M12.44 18.475c-.077-.034-.287-.088-.346 0-.06.087.081.256.144.312.062.057.172.054.23-.053.06-.106.06-.203-.027-.26M12.856 16.94a.24.24 0 0 0-.062-.218c-.044-.038-.232-.044-.27 0-.037.044.045.244.079.253s.228.025.253-.034M10.203 13.613h-.437a.435.435 0 0 0 .031.503c.1.075.36 0 .475-.166a.28.28 0 0 0-.069-.337M10.972 18.097c-.069-.04-.266-.09-.313-.038-.046.053.025.238.066.313.04.075.181.066.272-.031a.14.14 0 0 0-.025-.244M10.566 15.222a.21.21 0 0 0-.285.016c-.075.065-.034.312.06.35a.28.28 0 0 0 .234-.066.19.19 0 0 0 .046-.235.2.2 0 0 0-.056-.065M10.187 14.447a.16.16 0 0 0-.141-.05.16.16 0 0 0-.118.094c-.031.075-.066.162-.019.225.047.062.275.043.34-.056.066-.1.004-.157-.062-.213M10.7 17.156a.14.14 0 0 0-.188-.022c-.072.066.025.15.056.188a.14.14 0 0 0 .129 0 .2.2 0 0 0 .003-.166M10.712 14.616a.7.7 0 0 1 .194.093.35.35 0 0 0 .46 0c.143-.112.143-.26-.07-.422a4 4 0 0 0-.496-.128.214.214 0 0 0-.256.188.225.225 0 0 0 .168.269M15.806 16.678c-.153 0-.206.125-.203.281.103.072.213.17.335.054a.27.27 0 0 0 .028-.225.2.2 0 0 0-.16-.11M16.228 13.65c.063.522.11.556.488.425a.37.37 0 0 0 .046.203q.084.136.191.253c0 .05-.031.1-.04.15a.2.2 0 0 0 0 .047.216.216 0 0 0-.279.047.213.213 0 0 0 .066.313.184.184 0 0 0 .247-.066v-.016c.03.076.083.14.153.181a.56.56 0 0 0 .547-.034.26.26 0 0 0 .116-.175.5.5 0 0 0 0-.134c.053-.103 0-.222-.063-.34h-.162a.6.6 0 0 0-.107-.054l-.153-.044c.031-.097.066-.187.088-.278.034-.162 0-.24-.138-.312h.028a.7.7 0 0 0 .19-.191h-.587c0 .044.016.088.025.128a.2.2 0 0 0 .041.06.35.35 0 0 0-.144.093.27.27 0 0 0-.075.153.36.36 0 0 0-.181-.434h-1.353a.6.6 0 0 0 .278.044c.269-.022.525-.016.778-.019M15.362 14.622c.26-.047.282-.063.285-.357-.106-.071-.194-.125-.275-.187a.385.385 0 0 0-.485.044c-.075.09-.084.312 0 .347a.7.7 0 0 0 .475.153"/><path fill="#42D4C6" d="M15.86 15.456a.27.27 0 0 0 .212-.084.23.23 0 0 0-.034-.313L16 15.038a.22.22 0 0 0 .216-.15.19.19 0 0 0 .197-.083.2.2 0 0 0 .028-.07.38.38 0 0 0-.05-.285c-.147-.153-.285 0-.438.06 0 .056 0 .106.022.153a.205.205 0 0 0-.12.26.2.2 0 0 0 .058.086.36.36 0 0 0-.254.107c-.068.062.013.31.2.34M17.928 17.119a.28.28 0 0 0 .07.34.238.238 0 0 0 .38-.23.25.25 0 0 0-.45-.11M12.047 13.613h-.422a.53.53 0 0 0 .422 0M17.753 16.188a.364.364 0 0 0 .522.062 1 1 0 0 1-.056.256.225.225 0 0 0 .04.313.33.33 0 0 0 .372.106q.193-.07.35-.2l.016.019a.253.253 0 0 0 .347-.056.8.8 0 0 0-.103-.235.13.13 0 0 0-.15-.034 1.3 1.3 0 0 0-.035-.219l.053.022.022.034a.148.148 0 0 0 .222.032.5.5 0 0 0 .269-.041.53.53 0 0 0 .269-.35c.05-.166.21-.247.187-.422a.7.7 0 0 0-.062-.225.3.3 0 0 0 .212-.075.44.44 0 0 0-.047-.522c-.128-.1-.312-.022-.475.181a.3.3 0 0 0-.018.057.7.7 0 0 0-.191-.066 1 1 0 0 0-.19 0 .43.43 0 0 0-.35.113.1.1 0 0 0 0 .037c-.138.144-.023.372-.104.569a1 1 0 0 0-.037.11.26.26 0 0 0-.075.109c-.063.153-.178.156-.313.197-.122-.354-.334-.435-.6-.25a.4.4 0 0 0-.075.059.244.244 0 0 0 0 .419M23.263 15.881a5 5 0 0 1-.36-.165.7.7 0 0 0 .078.228c.085-.025.188-.044.282-.063M18.244 14.753c-.022.163.09.25.244.313.118-.063.234-.138.212-.29h.134c.032 0 .082-.07.094-.113a.45.45 0 0 1 .238-.282c.156-.09.178-.353.04-.428s-.312-.212-.53-.1l-.045.019a.1.1 0 0 0-.025-.028.42.42 0 0 0-.55.043.36.36 0 0 0-.175.157.94.94 0 0 0 .244.694zM19.7 14.153a.23.23 0 0 0 .147.197c.153.066.253-.05.36-.162-.023-.054-.041-.104-.063-.154a.31.31 0 0 0 .128-.384v-.037h-.925a.34.34 0 0 0 .031.478.4.4 0 0 0 .322.062M12.944 13.835a.25.25 0 0 0 .028.187c.078.116-.234.216-.138.384.097.17-.053.347.088.538.14.19.403.281.519.103a.8.8 0 0 0 .09-.55c0-.153-.203-.194-.069-.312.135-.12.313-.363.17-.57h-1.398a.33.33 0 0 0 .129.254.63.63 0 0 0 .58-.034M14.316 13.85c.1.069.196 0 .262-.1.031-.047.066-.09.1-.137h-.497a.42.42 0 0 0 .135.237"/><path fill="#42D4C6" d="M12.256 14.928a.444.444 0 0 0-.025-.878c-.175-.019-.312.225-.356.469a.43.43 0 0 0 .381.41M11.744 15.306c-.072.132-.088.253.047.338a.2.2 0 0 0 .19-.019.26.26 0 0 0 .078-.213c-.05-.162-.187-.128-.315-.106M12.44 15.803a.187.187 0 0 0-.2.163c-.034.181.085.262.235.343.132-.093.282-.15.232-.312a.25.25 0 0 0-.266-.194M13.69 17.719c.088.187.204.197.582.034.078.14.137.313.337.216a.25.25 0 0 0 .172-.272c0-.047-.037-.119-.075-.131a3 3 0 0 0-.356-.09c-.134-.267-.313-.395-.488-.313a.49.49 0 0 0-.171.556M14.003 15.662c.175.022.17.15.235.247a.8.8 0 0 0 .265.203q.103.042.213.044.111.007.222 0 .363 0 .393-.284a.38.38 0 0 0-.312-.428 4 4 0 0 1-.69-.179c-.179-.071-.441-.03-.485.097a.28.28 0 0 0 .16.3M14.478 14.616c.128-.157.103-.282-.084-.428a.313.313 0 0 0-.422.043.59.59 0 0 0 .034.513c.116.1.338.04.472-.128M14.628 16.322c-.166.181-.2.403-.078.51a.41.41 0 0 0 .497-.044.36.36 0 0 0-.04-.463.31.31 0 0 0-.379-.003M17.128 15.381c-.134-.072-.212 0-.275.1a.65.65 0 0 1-.162.219c-.169.106-.353.184-.54.281-.373-.312-.541-.312-.738.085a.328.328 0 0 0 .243.49q.302.015.6-.034c.128.178.313.372.557.312a.605.605 0 0 0 .384-.812.4.4 0 0 1-.022-.081.22.22 0 0 0 .1-.185.2.2 0 0 0-.019-.04.284.284 0 0 0-.128-.335M21.19 26.138c0 .159.025.271.035.38l.075.026.284-.257-.019-.1zM21.663 25.747v.09c0 .02.065 0 .068 0a.3.3 0 0 0 0-.096zM21.503 23.828a.19.19 0 0 0 .017.224q.027.03.064.048a.153.153 0 0 0 .235-.078c.03-.072.1-.266 0-.313s-.266.057-.316.12M12.753 17.794a.22.22 0 0 0 .044.312.24.24 0 0 0 .363-.025.266.266 0 0 0-.041-.343.28.28 0 0 0-.366.056M21.34 16.144c.054-.053.104-.075.15-.044a.48.48 0 0 0 .02.372q.412-.195.843-.34a.1.1 0 0 0 0-.035.62.62 0 0 0-.212-.528v-.025q.024.03.053.053a.24.24 0 0 0 .312-.075v-.019q-.43-.277-.787-.643l-.056.053c0 .04.028.084.043.128a.34.34 0 0 0-.043.33q.058.136.13.263c-.112.02-.2.063-.258.038a.31.31 0 0 0-.425.166.6.6 0 0 1-.113.106l-.019.025a.31.31 0 0 0-.05-.24.2.2 0 0 0-.069-.032.43.43 0 0 0 .229-.41.6.6 0 0 0-.079-.212.4.4 0 0 0 .147-.116.35.35 0 0 0 .07-.15.35.35 0 0 0 .15-.109.4.4 0 0 0 .05-.178 4.4 4.4 0 0 1-.554-.91h.006q-.03.074-.028.154a.5.5 0 0 0 .056.197.47.47 0 0 0-.187.15.4.4 0 0 0-.056.128.3.3 0 0 0-.128.097.72.72 0 0 0 0 .643.8.8 0 0 0-.166.313.45.45 0 0 0 .265.425.2.2 0 0 0-.05.034.245.245 0 0 0-.033.287q.026.045.068.076a.28.28 0 0 0 .294.022.15.15 0 0 0 .037.118c.103.113.25.088.375-.068.006 0 .003-.028.016-.044M22.222 24.384a.4.4 0 0 0 .037.52.425.425 0 0 0 .522-.082c.081-.106 0-.363-.137-.475a.294.294 0 0 0-.422.037M20.385 24.219a.4.4 0 0 0 .18-.022c.085-.144.06-.284-.043-.313a.28.28 0 0 0-.222.044c-.075.069-.022.26.085.29M20.253 23.719a.19.19 0 0 0-.015-.166h-.366a.15.15 0 0 0 .03.17.2.2 0 0 0 .051.033c.066.032.235.088.3-.037M20.253 24.775a.224.224 0 0 0 .069.312.21.21 0 0 0 .312-.04c.088-.128.081-.353 0-.41a.37.37 0 0 0-.381.138M23.59 25.975c-.146.188-.174.313-.08.39.093.079.25.054.359-.059a.34.34 0 0 0-.278-.33M25.087 26.103c.113-.09.082-.244-.087-.422-.231.131-.313.253-.222.369a.244.244 0 0 0 .31.053M24.984 26.913h.188a.144.144 0 0 0-.188 0M24.15 23.838a.312.312 0 0 0 .463-.107.4.4 0 0 0 .062-.178h-.694a.4.4 0 0 0 .17.285M25.025 23.99c-.062.267-.042.546.056.8a.4.4 0 0 0 .081.1q.083.06.185.079v-1.11a.4.4 0 0 0-.107 0c-.109-.015-.196.025-.215.132M23.819 24.16c-.15-.313-.444-.104-.463-.335 0-.162.088-.172.135-.272h-.938a.14.14 0 0 0 0 .09c.063.382.39.238.444.345s.019.35.084.512c.094.231.313.388.538.263a.424.424 0 0 0 .2-.604M20.313 17.181a.4.4 0 0 0 .078-.625.47.47 0 0 0-.647-.09.55.55 0 0 0 0 .678.43.43 0 0 0 .569.037M23.116 25.728c.065 0 .156 0 .193-.028s.016-.125.025-.24c-.106.03-.2.03-.228.075-.028.043.003.128.01.193M24.222 24.288a.6.6 0 0 0 0 .24c.146.103.265.088.312 0a.225.225 0 0 0-.066-.312.17.17 0 0 0-.246.072M24.156 24.84a.4.4 0 0 0-.278.026c-.081.05-.037.247.066.29a.44.44 0 0 0 .203 0c.11-.143.106-.287.01-.315M22.6 26.428a.15.15 0 0 0 .044.14.16.16 0 0 0 .156-.027c.022-.032 0-.107-.028-.188-.075.028-.147.037-.172.075M16.103 18.787s.116 0 .128-.028a.5.5 0 0 0 0-.19h-.015c.031-.088.069-.232 0-.275s-.244.078-.285.137.016.156.063.206q.033.036.081.041 0 .058.028.11M15.41 18.437a.08.08 0 0 0-.06.029.59.59 0 0 0-.69.034.466.466 0 0 0 .062.606.453.453 0 0 0 .603-.028q.06-.07.094-.156c.118.044.268.025.312-.066.044-.09-.184-.428-.322-.419M16.266 17.825c.01.07.042.135.094.184a.44.44 0 0 0 .521-.065.35.35 0 0 0-.106-.444.37.37 0 0 0-.312-.1.4.4 0 0 0-.197-.106l-.203.119c-.206-.085-.422-.072-.485.04a.22.22 0 0 0 .038.275c.14.147.225.153.434.034zM16.353 19.89c-.08-.037-.297-.096-.347-.024s.06.259.113.33c.053.073.212.035.272-.062.06-.096.062-.197-.038-.243M13.981 19.078a.4.4 0 0 0-.5 0 .276.276 0 0 0 .02.375.34.34 0 0 0 .459-.044.23.23 0 0 0 .08-.16.23.23 0 0 0-.059-.17M15.515 20.597c-.062.053 0 .153.02.162.05.02.105.02.155 0 .02 0 .029-.112 0-.128-.028-.015-.125-.087-.175-.034M13.65 16.253a.52.52 0 0 0-.09-.469c-.1-.087-.226-.053-.345.097s-.134.294-.015.388a.31.31 0 0 0 .45-.016M16.403 20.394a.19.19 0 0 0 .002.222.2.2 0 0 0 .058.053.176.176 0 0 0 .25-.035.18.18 0 0 0 0-.275.216.216 0 0 0-.31.035M13.947 19.806a.374.374 0 1 0 .625.416.385.385 0 0 0-.106-.532.4.4 0 0 0-.519.116M18.516 18.94a.2.2 0 0 0-.025.079l.115-.16a.23.23 0 0 0-.09.082M18.594 17.578a.31.31 0 0 0-.313.047.4.4 0 0 0-.165.313v.193a.4.4 0 0 0-.213.125.35.35 0 0 0 .231.372.234.234 0 0 0 .279-.156.4.4 0 0 0 .025-.135.25.25 0 0 0 .175-.05.5.5 0 0 0 .196-.39.38.38 0 0 0-.215-.319M19.213 24.025a.294.294 0 0 0 .04.375c.094.069.29 0 .425-.169 0-.047 0-.147-.062-.197a.29.29 0 0 0-.403-.01M16.956 21.913c-.069 0-.119.168-.165.268 0 .025.015.072.034.14l.344-.121c-.079-.156-.041-.328-.213-.287M17.881 23.66c.088-.026.166-.026.188-.06a.07.07 0 0 0 0-.047h-.197q.015.046.01.107M19.488 17.584a.345.345 0 0 0-.1-.497c-.135-.103-.291-.059-.432.122-.14.181-.118.313 0 .39a.63.63 0 0 0 .532-.015M17.631 20.372a.35.35 0 0 0-.38.037.34.34 0 0 0 .087.397.2.2 0 0 0 .115.028.2.2 0 0 0 .047.094c.063-.184.138-.362.216-.54a.2.2 0 0 0-.069 0zM17.59 19.384a.247.247 0 0 0-.34 0v.025a.24.24 0 0 0-.206.066.294.294 0 0 0 0 .353.22.22 0 0 0 .212.028q.015.03.041.05c.147.106.313.063.422-.122.11-.184.056-.28-.128-.4M17.44 18.506a.31.31 0 0 0-.134-.206.7.7 0 0 0-.262.094.23.23 0 0 0-.046.164.22.22 0 0 0 .083.148.47.47 0 0 0 .213.388c.16.103.312.047.444-.156a.33.33 0 0 0-.075-.397.4.4 0 0 0-.222-.035M18.003 16.863c.113-.072.11-.157.066-.291s-.12-.338-.313-.269c-.194.069-.166.197-.14.253.024.056-.016.169-.063.122s-.131-.05-.253.066a.25.25 0 0 0-.103.256.25.25 0 0 0-.038.284.287.287 0 0 0 .403.094.25.25 0 0 0 .06-.144.4.4 0 0 0 .14-.065c.172-.125.128-.238.241-.306"/><path fill="#20377D" d="M17.047 23.553a7.847 7.847 0 1 1 15.694 0"/><path fill="#00BFB3" d="M32.638 32.831H11.356l-7.325-5.934h21.282z"/><path fill="#20377D" d="M14.69 15.85a.662.662 0 1 0 0-1.325.662.662 0 0 0 0 1.325"/><path fill="#00BFB3" d="M18.928 11.816a5.965 5.965 0 1 1 11.932 0"/><path fill="#20377D" d="M24.894 16.197a4.381 4.381 0 1 0 0-8.763 4.381 4.381 0 0 0 0 8.763"/><path fill="#00BFB3" d="M21.15 14.322a3.037 3.037 0 1 1 0-6.075M28.478 8.247a3.038 3.038 0 0 1 0 6.075"/><path fill="#00BFB3" d="m29.672 11.019-2.71 1.584c-.224.133-.48.203-.74.203h-.763a.726.726 0 0 0 0 1.45h1.188c.238 0 .473-.057.684-.168l2.84-1.494z"/><path fill="#CED5E1" d="m13.096 9.169-.423 1.05 4.473 1.802.423-1.05zM12.156 10.01l.219.084c0-.019 0-.038-.022-.056a.4.4 0 0 0-.197-.029M11.935 9.566a.4.4 0 0 1 .034-.066.19.19 0 0 0-.222-.05c-.128.075-.11.2-.103.312.144.07.228.085.29.054a.31.31 0 0 1 0-.25M11.21 9.497a.16.16 0 0 0 .034-.103.2.2 0 0 1 .075-.116.1.1 0 0 0-.019-.028l-.09-.05c-.072 0-.132.069-.204.122.013.08.053.152.113.206a.3.3 0 0 1 .09-.031M10.419 9.344a.2.2 0 0 0 .094-.147.17.17 0 0 1-.107-.119.2.2 0 0 1 0-.044h-.034a.18.18 0 0 1-.094-.115.2.2 0 0 0-.087.015.36.36 0 0 0-.163.282l.372.14z"/><path fill="#CED5E1" d="M12.913 9.534a.2.2 0 0 0 .056-.047.3.3 0 0 1-.122 0 .24.24 0 0 1-.178-.234.27.27 0 0 1 .084-.134h-.047a.163.163 0 0 0-.05.237c.078.15.169.216.256.178M12.203 8.894a.172.172 0 0 0-.253-.05c-.072.05-.156.103-.116.187a.35.35 0 0 0 .116.132.1.1 0 0 1 0-.022c0-.053.022-.253.116-.272.093-.019.134.065.171.147a.2.2 0 0 0-.034-.122M8.238 8.378a.13.13 0 0 0-.044.113.12.12 0 0 0 .106.05.17.17 0 0 0 .088-.091.23.23 0 0 1-.15-.072M9.316 7.922q.021.004.043 0a.21.21 0 0 1 .028-.163l-.175-.065c0 .106.038.206.104.228M10.519 8.344h.025a.2.2 0 0 0 .1-.097l-.072-.028c-.025.006-.038.06-.053.125M11.344 9.263l-.025.015a.2.2 0 0 0-.075.116.16.16 0 0 1-.034.103.37.37 0 0 1 .265.125.2.2 0 0 1 .072.128q.011-.08.031-.16a.36.36 0 0 0-.087-.337.24.24 0 0 1-.147.01M13.2 9.237l.016-.037q-.018.015-.016.037M12.513 9.7a.35.35 0 0 0 .093-.112.23.23 0 0 0-.078-.313.44.44 0 0 0-.39.081v.041a.3.3 0 0 1 .087 0 .35.35 0 0 1 .288.303M10.363 9.031h.034a.36.36 0 0 1 .113-.356.14.14 0 0 1 .072-.028c-.132-.072-.226-.063-.282.037a.28.28 0 0 0-.031.228.18.18 0 0 0 .094.12M9.184 8.522a.216.216 0 0 0-.084-.275.175.175 0 0 0-.234.069.19.19 0 0 0 .018.24l.032-.022a.24.24 0 0 1 .268-.012M8.51 7.797c-.063-.038-.188.09-.226.147a.225.225 0 0 1 .247.122c.025-.07.04-.216-.022-.27M9.9 7.962h-.022a.22.22 0 0 0-.169.088c0 .06 0 .178.063.187a.1.1 0 0 0 .047 0 .5.5 0 0 1 .084-.262zM7.297 8.11c.025.021.128.037.15 0 .022-.038-.028-.129-.056-.141a.11.11 0 0 0-.128.019.08.08 0 0 0 0 .059.2.2 0 0 1 .031.06zM11.438 8.61l.06-.05-.6-.226c-.05.113-.042.232.062.282.12.048.253.055.378.018l.047-.021z"/><path fill="#CED5E1" d="M9.344 7.928a.2.2 0 0 0 .05.075c.197 0 .256-.034.215-.147l-.237-.09a.21.21 0 0 0-.028.162M7.26 6.994a.23.23 0 0 0 .165.243c.056 0 .153-.053.21-.121l-.37-.135zM12.056 8.869c-.094.019-.125.219-.115.272a.1.1 0 0 0 0 .022.15.15 0 0 0 .109.08.18.18 0 0 0 .178-.102.16.16 0 0 0 0-.125c-.037-.082-.1-.16-.172-.147M9.287 8.616a.3.3 0 0 0-.103-.094.24.24 0 0 0-.265 0l-.032.022a.7.7 0 0 0-.181.175l.625.231a.31.31 0 0 0-.044-.334M6.969 8.037l-.032.025.372.141a.2.2 0 0 0-.018-.097.2.2 0 0 0-.032-.06c-.062-.071-.168-.077-.29-.009M7.825 7.813c.14 0 .294.043.406-.107a.31.31 0 0 1 .244-.14.27.27 0 0 0 .15-.078l-.84-.313a.1.1 0 0 0 0 .05.36.36 0 0 1-.072.278c-.085.113-.01.303.112.31M11.3 9.25h.043a.24.24 0 0 0 .21-.031.39.39 0 0 0 .2-.369.27.27 0 0 0-.313-.244h-.053l-.047.022a.4.4 0 0 0-.268.438v.015c.04.035.075.072.118.103zM10.397 9.034a.2.2 0 0 0 0 .044.17.17 0 0 0 .106.119.2.2 0 0 0 .097 0 .31.31 0 0 0 .287-.253 1 1 0 0 0 0-.075 2 2 0 0 0-.228-.21.11.11 0 0 0-.081 0 .14.14 0 0 0-.072.029.36.36 0 0 0-.11.346M12.669 9.24a.24.24 0 0 0 .178.235q.061.012.122 0a.23.23 0 0 0 .16-.075l.071-.175v-.044l-.387-.143a.4.4 0 0 0-.063.056.27.27 0 0 0-.081.147M7.181 7.353a.2.2 0 0 0-.034-.119l-.163.403a.34.34 0 0 0 .197-.284M8.69 7.794c-.028.11.079.231.25.287a.23.23 0 0 0 .25-.147.31.31 0 0 0-.068-.265l-.14-.053a.31.31 0 0 0-.291.178M12.44 8.99a.3.3 0 0 0 .157 0l-.294-.109a.18.18 0 0 0 .138.11M8.29 7.94a.18.18 0 0 0-.178.166.4.4 0 0 0 .132.269c.034.04.082.066.134.075a.42.42 0 0 0 .16-.388.225.225 0 0 0-.248-.121M12.79 10.25l.188-.463a.3.3 0 0 0-.13-.071.7.7 0 0 0-.313-.016.35.35 0 0 0-.291-.312.247.247 0 0 0-.253.11.4.4 0 0 0-.035.065.31.31 0 0 0 0 .253q.031.064.091.106a.34.34 0 0 0 .313.034c0 .025.015.05.022.078s0 .038.021.057zM9.837 8.372a.44.44 0 0 0 .204.247.36.36 0 0 0 .393-.069.6.6 0 0 0 .085-.206c0-.066.028-.12.05-.132l-.666-.246a.5.5 0 0 0-.084.262.3.3 0 0 0 .018.144M11.016 9.584l.534.2a.1.1 0 0 0 0-.034.2.2 0 0 0-.072-.128.37.37 0 0 0-.265-.125.3.3 0 0 0-.1.022.4.4 0 0 0-.097.065M32.028 10.96l3.12-.835.268 1.097-3.119.837zM37.731 10.478a.4.4 0 0 0-.103.019.37.37 0 0 0-.175.165l.469-.128a.3.3 0 0 0-.147-.053h-.044zM35.96 10.54a.24.24 0 0 1 .112-.102c-.15-.044-.2.018-.16.171 0 .025 0 .047.022.072a.26.26 0 0 1 .025-.14"/><path fill="#CED5E1" d="M35.478 10.331c0-.122.047-.2.178-.19.132.009.135-.047.185-.12a.5.5 0 0 1 .075-.087v-.018l-.347.093a.3.3 0 0 0-.056.056c-.022.05-.025.2-.132.185-.106-.016-.209-.11-.312-.06h-.025v.035a.2.2 0 0 1 .075.025.45.45 0 0 1 .36.081M35.934 11.078l.1-.028a.33.33 0 0 0-.147-.131c-.034.056.022.106.047.16M37.631 9.797c.042-.07.11-.12.188-.14h-.035a.3.3 0 0 1-.103-.06.6.6 0 0 1-.09.234.28.28 0 0 1-.178.09.22.22 0 0 0 .193.038h.02a.17.17 0 0 1 .005-.162M39.003 9.647a.2.2 0 0 0 .194.05.23.23 0 0 0 .125-.219.48.48 0 0 1-.32.169M36.934 10.581a.185.185 0 0 0 .104-.243.2.2 0 0 0-.254-.088.18.18 0 0 0-.072.234.16.16 0 0 0 .09.097.16.16 0 0 0 .132 0M38.378 9.513c-.084.062-.05.19-.031.253.018.062.118.072.187.034s.119-.147.063-.2-.138-.153-.219-.087M36.71 9.694l-.354.097a.4.4 0 0 1 .05.05v-.022c.066-.113.222-.119.394-.016a.3.3 0 0 0 0-.069.2.2 0 0 1-.069-.018zM38.26 9.294a.2.2 0 0 0 .159.053.135.135 0 0 0 .078-.14l-.238.065z"/><path fill="#CED5E1" d="m36.985 9.619-.276.075q.026.029.06.047.032.015.069.018a.18.18 0 0 0 .175-.081l-.02-.034zM37.725 9.484c-.019 0-.031.054-.044.104a.3.3 0 0 0 .103.059h.035a.31.31 0 0 0-.188.14.17.17 0 0 0 0 .141.1.1 0 0 0 0 .038.1.1 0 0 1 .025-.028.19.19 0 0 1 .153-.022q.12.095.222.206a.2.2 0 0 0 .075-.056.35.35 0 0 0-.081-.407.2.2 0 0 0-.05-.021c.08-.037.143-.1.181-.179a.2.2 0 0 1-.037.038c-.147.106-.344-.034-.394-.013M36.419 9.831v.022c0 .022.022.019.031.035a.31.31 0 0 1 .06.312c.087.053.29-.028.362-.14a.15.15 0 0 0 .005-.173.2.2 0 0 0-.042-.043c-.194-.119-.35-.119-.416-.013M35.994 10.925a.3.3 0 0 0 .093.097h.057a1 1 0 0 1-.15-.097M36.072 10.431a.257.257 0 0 0-.147.234v.029l.206-.213c.153.038.26.1.288.24 0 .07.046.145 0 .204l.068-.019a.35.35 0 0 0-.072-.503.3.3 0 0 0-.075-.025.29.29 0 0 1-.268.053M35.038 10.234v.047l.065-.022a.2.2 0 0 0-.065-.025M40.056 9.747a.38.38 0 0 0-.253.062.06.06 0 0 0 0 .04q.066.064.11.142l.19-.05a.525.525 0 0 1-.047-.194M37.369 10.684a.3.3 0 0 0-.063-.065.2.2 0 0 0-.078-.032.3.3 0 0 1 .14.097M36.86 10.81a.31.31 0 0 1 .218-.223.39.39 0 0 0-.272.163.3.3 0 0 0-.022.094l.075-.02zM39.147 10.2l.138-.038a.1.1 0 0 0-.072-.022.11.11 0 0 0-.066.06"/><path fill="#CED5E1" d="m36.86 10.81.509-.141a.3.3 0 0 0-.135-.097h-.018a.26.26 0 0 0-.138 0 .31.31 0 0 0-.219.237M36.444 9.888s-.022-.022-.032-.035a.4.4 0 0 0-.05-.05h-.018l-.403.11a.1.1 0 0 0-.025.03.5.5 0 0 0-.075.088c-.05.072-.097.125-.185.12-.087-.007-.175.068-.178.19a.45.45 0 0 0-.366-.072l-.065.022.24.972.647-.175c-.025-.053-.08-.107-.046-.16a.2.2 0 0 1 .04-.037l.066.043q.069.054.147.094l.275-.075c.056-.06.025-.134 0-.203-.028-.14-.135-.203-.288-.24l-.206.212v-.028c0-.025 0-.047-.022-.072-.04-.153 0-.216.16-.172a.29.29 0 0 0 .271-.037.5.5 0 0 0 .113-.116.5.5 0 0 0 .047-.094.31.31 0 0 0-.047-.315M40.322 8.988q.091.027.187.025a.31.31 0 0 0 .332-.254.34.34 0 0 0 0-.178l-.779.213a.38.38 0 0 0 .26.194M38.54 9.884a.406.406 0 0 0-.312.46l.075.069.581-.16a.4.4 0 0 0 .016-.144.275.275 0 0 0-.36-.225M37.819 9.925a.18.18 0 0 0-.153.022.1.1 0 0 0-.025.028.39.39 0 0 0-.082.375.17.17 0 0 0 .172.128h.044a.31.31 0 0 0 .278-.253 1 1 0 0 0 0-.075 2 2 0 0 0-.234-.225M39.8 9.85a.3.3 0 0 0-.119-.078c-.106-.022-.19.044-.218.175a.4.4 0 0 0 0 .166l.443-.122a.6.6 0 0 0-.106-.14M36.984 9.619v.025l.02.034c.034.09.1.164.184.21a.4.4 0 0 0 .215.025.28.28 0 0 0 .178-.091.6.6 0 0 0 .09-.234c0-.05.026-.094.045-.104.018-.009.246.12.403.022a.2.2 0 0 0 .037-.037.28.28 0 0 0 .094-.175v-.022zM40.913 9.253c-.025.06-.038.11-.06.119-.022.01-.275-.169-.49-.106a.55.55 0 0 0-.313.48 1 1 0 0 0 0 .076q.015.06.038.119l1.325-.363-.113-.469a.45.45 0 0 0-.222-.028.26.26 0 0 0-.165.172M38.64 9.166a.313.313 0 0 0 .12.425.3.3 0 0 0 .162.056h.081a.48.48 0 0 0 .313-.169 1 1 0 0 0 .046-.062c.125-.216.025-.313.12-.454l.015-.03zM31.844 13.788l3.04 1.087-.403 1.056-3.04-1.087zM35.681 16.019a.3.3 0 0 1 0-.088.4.4 0 0 0-.146.035.2.2 0 0 0-.038.025.22.22 0 0 1 .184.028M38.331 16.087c-.015.066 0 .185-.09.263h.015a.42.42 0 0 0 .166-.244z"/><path fill="#CED5E1" d="M34.94 15.103a1 1 0 0 1-.075-.022.34.34 0 0 0-.146.116.27.27 0 0 1-.132.097.38.38 0 0 0 .382.053.34.34 0 0 0 .15-.172.3.3 0 0 1-.057-.05.7.7 0 0 0-.121-.022M37.44 15.931c-.068-.128-.196-.153-.358-.062a.25.25 0 0 0-.1.297v.018-.015a.18.18 0 0 1 .156-.022 2 2 0 0 1 .206.19.31.31 0 0 0 .097-.406M36.322 15.862a.34.34 0 0 1 0-.165.31.31 0 0 0-.016.287.27.27 0 0 0 .188.085.55.55 0 0 1-.172-.207M35.628 15.134a.13.13 0 0 0 .022.082q.034.037.085.043a.33.33 0 0 1-.107-.125M36.244 16.438a.07.07 0 0 0-.044.018.1.1 0 0 0-.022.069l.106.038a.1.1 0 0 0-.04-.125"/><path fill="#CED5E1" d="m35.878 15.228-.234-.081q.037.074.106.122.043.025.094.034.013-.038.034-.075M39.385 16.5a.2.2 0 0 0 0-.044l-.175-.059a.29.29 0 0 1-.266.084.14.14 0 0 1-.053-.022.216.216 0 0 0 .075.279c.06.033.129.047.197.037a.1.1 0 0 1 0-.044.36.36 0 0 1 .222-.23M34.74 15.884a.39.39 0 0 1-.146-.284.18.18 0 0 1 .122-.153.5.5 0 0 0-.14-.131l-.22.568.313.116a.4.4 0 0 0 .031-.05zM36.884 16.344a.6.6 0 0 0-.312-.128c-.053 0-.178.09-.228 0-.05-.091-.025-.235-.125-.294-.1-.06-.328-.2-.478-.094a.13.13 0 0 0-.07.11.3.3 0 0 0 0 .087.4.4 0 0 1 .095.088.31.31 0 0 1 .062.262q.023.016.05.022c.135.028.275 0 .334.028l.022.019a.104.104 0 0 1 .041.125l.528.187c-.022-.084-.069-.119-.037-.15.03-.031.068-.047.106-.081a.5.5 0 0 1 .012-.181M35.372 15.119a.3.3 0 0 0 0-.072l-.25-.088a.26.26 0 0 1-.175.097.3.3 0 0 0-.097.025q.037.015.075.022.06.007.119.025.024.03.056.05.042.033.094.038a.33.33 0 0 1 .178-.097M39.847 17.01c0 .084-.094.23 0 .29s.206-.034.294-.05v-.06a.17.17 0 0 0-.132-.162.23.23 0 0 0-.162-.019M37.712 16.987a.18.18 0 0 0-.081-.23c-.106-.076-.284-.079-.344 0a.22.22 0 0 0-.047.143l.341.119a.3.3 0 0 1 .131-.032M36.419 15.425a.11.11 0 0 0-.144.062c-.025.057-.06.16 0 .204h.022a.44.44 0 0 1 .122-.266M39.694 16.831c-.016.022 0 .04 0 .066 0 .025.056 0 .069 0 .012 0 0-.053 0-.053s-.053-.035-.069-.013M38.24 16.347c.095-.078.076-.197.091-.263l-.721-.256a.216.216 0 0 0 0 .288q.041.04.096.062a.6.6 0 0 1 .16-.075.276.276 0 0 1 .339.12q.033.058.036.124"/><path fill="#CED5E1" d="M35.878 15.216a1 1 0 0 0-.034.072.156.156 0 0 0 .04.193c.225 0 .27-.043.191-.203zM38.425 16.635a.14.14 0 0 0 .119.1.18.18 0 0 0 .18-.104c.041-.093-.087-.287-.18-.268-.094.018-.128.218-.12.271M35.775 16.106a.4.4 0 0 0-.094-.087.22.22 0 0 0-.196-.028.2.2 0 0 0-.082.03.7.7 0 0 0-.187.166l.625.216v-.034a.31.31 0 0 0-.066-.263M34.863 15.081a.3.3 0 0 1 .096-.025.26.26 0 0 0 .175-.097l-.374-.13-.175.465a.27.27 0 0 0 .13-.097.34.34 0 0 1 .148-.116M38.24 16.347a.275.275 0 0 0-.368-.24.6.6 0 0 0-.16.074.41.41 0 0 0-.156.381v.02q.06.06.129.112a.28.28 0 0 0 .343.022.4.4 0 0 0 .197-.35zM37.15 16.147a.18.18 0 0 0-.156.022v.015a.3.3 0 0 0-.097.16.5.5 0 0 0 0 .175.3.3 0 0 0 0 .05.18.18 0 0 0 .206.134.31.31 0 0 0 .288-.256 1 1 0 0 0 0-.072l-.016-.019-.019-.018a2 2 0 0 0-.206-.191M39.384 16.5a.36.36 0 0 0-.228.231.1.1 0 0 0 0 .044.24.24 0 0 0 .172.19.26.26 0 0 0 .35-.174.31.31 0 0 0-.044-.244l-.19-.066a1 1 0 0 0-.06.019M35.666 15.428a.29.29 0 0 0-.135-.312.3.3 0 0 0-.16 0 .33.33 0 0 0-.165.097.2.2 0 0 0-.044.068c-.025.113.078.231.25.288a.23.23 0 0 0 .254-.14M39.206 16.397l-.418-.15a.22.22 0 0 0 .1.212.14.14 0 0 0 .053.022.29.29 0 0 0 .265-.084M34.594 15.6a.39.39 0 0 0 .147.284c.043.038.087.066.115.06a.4.4 0 0 0 .166-.388.22.22 0 0 0-.247-.122h-.06a.175.175 0 0 0-.121.166M40.566 16.878a.44.44 0 0 0-.366.19c-.09.132.04.288 0 .454a1 1 0 0 0 0 .084.16.16 0 0 0-.181 0c-.075.053-.116.135-.06.21a.2.2 0 0 0 .035.043l.203.072a.14.14 0 0 0 .084-.068q.039.04.088.068l.384-1.003zM39.547 17.562a.28.28 0 0 0-.213-.353.8.8 0 0 0-.337-.018.344.344 0 0 0-.291-.313.246.246 0 0 0-.288.172.31.31 0 0 0 0 .262l.382.135.647.228a.3.3 0 0 0 .1-.113M36.428 15.416a.43.43 0 0 0-.113.271.34.34 0 0 0 0 .166.55.55 0 0 0 .207.247.35.35 0 0 0 .39-.069c.088-.103.088-.312.138-.334s.194.078.331.047zM37.962 17.113a.4.4 0 0 0-.25-.125q-.069 0-.13.03l.424.154a.2.2 0 0 0-.044-.06"/></g></g><defs><clipPath id="a"><path fill="#fff" d="M.5 0h40v40H.5z"/></clipPath><clipPath id="b"><path fill="#fff" d="M.813 1.25h40.612v37.5H.813z"/></clipPath></defs></svg>