<?xml version="1.0" standalone="no"?>
<!DOCTYPE svg PUBLIC "-//W3C//DTD SVG 20010904//EN"
 "http://www.w3.org/TR/2001/REC-SVG-20010904/DTD/svg10.dtd">
<svg version="1.0" xmlns="http://www.w3.org/2000/svg"
 width="700.000000pt" height="700.000000pt" viewBox="0 0 700.000000 700.000000"
 preserveAspectRatio="xMidYMid meet">
<metadata>
Created by potrace 1.11, written by Peter Selinger 2001-2013
</metadata>
<g transform="translate(0.000000,700.000000) scale(0.100000,-0.100000)"
fill="#000000" stroke="none">
<path d="M879 6997 c-7 -14 -6 -6288 0 -6285 5 2 58 59 117 128 165 191 703
811 733 845 27 31 297 342 540 624 74 86 140 161 145 167 6 6 34 37 61 70 28
32 84 97 125 144 41 47 98 113 126 146 28 32 118 136 199 229 81 94 157 181
169 195 27 32 148 171 161 186 6 6 33 37 60 70 28 32 68 79 91 104 22 25 76
88 119 140 44 52 85 100 91 105 6 6 53 60 105 120 51 61 96 112 99 115 4 4
150 173 216 250 33 38 312 361 343 395 14 17 53 61 86 100 33 38 72 83 86 100
36 41 568 655 633 730 28 32 58 66 66 75 8 9 40 45 70 81 30 35 57 66 60 69 3
3 62 70 130 150 69 80 171 199 229 265 57 66 127 147 156 180 29 33 89 103
135 155 45 52 92 106 104 120 25 31 144 167 169 194 9 11 17 22 17 26 0 5
-5439 13 -5441 7z"/>
<path d="M3940 3238 c-52 -61 -108 -127 -125 -146 -16 -20 -40 -47 -53 -60
-12 -14 -40 -46 -61 -71 -22 -25 -48 -55 -58 -67 -10 -12 -41 -48 -69 -80 -28
-32 -116 -133 -195 -225 -79 -91 -164 -189 -189 -218 -25 -29 -54 -63 -65 -75
-11 -12 -45 -51 -75 -86 -30 -35 -89 -103 -130 -150 -41 -47 -100 -115 -130
-150 -30 -35 -89 -103 -130 -150 -41 -48 -156 -180 -255 -295 -99 -115 -231
-267 -294 -339 -63 -72 -137 -158 -165 -190 -28 -33 -58 -67 -66 -76 -8 -8
-69 -79 -135 -155 -129 -151 -164 -191 -180 -209 -6 -6 -55 -63 -110 -126 -54
-63 -101 -117 -104 -120 -4 -3 -19 -21 -35 -40 -16 -19 -56 -66 -90 -104 -33
-38 -66 -77 -73 -86 -12 -17 122 -17 2523 -17 l2536 -1 -6 22 c-4 11 -15 61
-26 111 -11 50 -24 106 -29 125 -131 506 -300 922 -558 1381 -126 222 -371
574 -531 762 -138 162 -159 186 -287 317 -143 147 -285 279 -425 396 -98 81
-300 234 -309 234 -3 -1 -49 -51 -101 -112z"/>
</g>
</svg>
