<svg width="128" height="128" viewBox="0 0 128 128" fill="none" xmlns="http://www.w3.org/2000/svg">
<path d="M94.56 15.55H18.07C14.9938 15.55 12.5 18.0438 12.5 21.12V79.42C12.5 82.4962 14.9938 84.99 18.07 84.99H94.56C97.6362 84.99 100.13 82.4962 100.13 79.42V21.12C100.13 18.0438 97.6362 15.55 94.56 15.55Z" fill="#153385"/>
<path d="M94.56 15.55H18.07C14.9938 15.55 12.5 18.0438 12.5 21.12V79.42C12.5 82.4962 14.9938 84.99 18.07 84.99H94.56C97.6362 84.99 100.13 82.4962 100.13 79.42V21.12C100.13 18.0438 97.6362 15.55 94.56 15.55Z" stroke="#101C3F" stroke-miterlimit="10"/>
<path d="M97.11 15.5H20.62C17.5438 15.5 15.05 17.9938 15.05 21.07V79.37C15.05 82.4462 17.5438 84.94 20.62 84.94H97.11C100.186 84.94 102.68 82.4462 102.68 79.37V21.07C102.68 17.9938 100.186 15.5 97.11 15.5Z" fill="#0B64DD"/>
<mask id="mask0_3398_17376" style="mask-type:luminance" maskUnits="userSpaceOnUse" x="15" y="15" width="88" height="70">
<path d="M97.11 15.5H20.62C17.5438 15.5 15.05 17.9938 15.05 21.07V79.37C15.05 82.4462 17.5438 84.94 20.62 84.94H97.11C100.186 84.94 102.68 82.4462 102.68 79.37V21.07C102.68 17.9938 100.186 15.5 97.11 15.5Z" fill="white"/>
</mask>
<g mask="url(#mask0_3398_17376)">
<path d="M14.17 83.14L13.69 47.74C21.22 47.74 21.22 64.92 28.75 64.92C36.28 64.92 36.28 38.03 43.8 38.03C51.32 38.03 51.33 64.92 58.86 64.92C66.39 64.92 66.39 47.74 73.92 47.74C81.45 47.74 81.45 64.92 88.98 64.92C96.51 64.92 96.51 47.74 104.04 47.74V83.14" stroke="white" stroke-miterlimit="10"/>
</g>
<path d="M97.11 15.5H20.62C17.5438 15.5 15.05 17.9938 15.05 21.07V79.37C15.05 82.4462 17.5438 84.94 20.62 84.94H97.11C100.186 84.94 102.68 82.4462 102.68 79.37V21.07C102.68 17.9938 100.186 15.5 97.11 15.5Z" stroke="#101C3F" stroke-miterlimit="10"/>
<path d="M15.12 30.2H102.5" stroke="#101C3F" stroke-miterlimit="10"/>
<path d="M34.37 21.61H24.41C23.3331 21.61 22.46 22.483 22.46 23.56V23.64C22.46 24.717 23.3331 25.59 24.41 25.59H34.37C35.447 25.59 36.32 24.717 36.32 23.64V23.56C36.32 22.483 35.447 21.61 34.37 21.61Z" fill="white"/>
<path d="M22.46 78.5H48.66" stroke="#101C3F" stroke-miterlimit="10"/>
<path d="M22.46 73.43H33.53" stroke="#101C3F" stroke-miterlimit="10"/>
<path d="M108.92 58.24H63.01C60.6407 58.24 58.72 60.1607 58.72 62.53V108.44C58.72 110.809 60.6407 112.73 63.01 112.73H108.92C111.289 112.73 113.21 110.809 113.21 108.44V62.53C113.21 60.1607 111.289 58.24 108.92 58.24Z" fill="#153385" stroke="#101C3F" stroke-miterlimit="10"/>
<path d="M111.36 58.24H65.45C63.0807 58.24 61.16 60.1607 61.16 62.53V108.44C61.16 110.809 63.0807 112.73 65.45 112.73H111.36C113.729 112.73 115.65 110.809 115.65 108.44V62.53C115.65 60.1607 113.729 58.24 111.36 58.24Z" fill="white" stroke="#101C3F" stroke-miterlimit="10"/>
<path d="M75.31 101.81C76.43 97.69 77.37 94.6 77.37 94.6C77.49 93.94 77.34 93.26 76.95 92.71L73.9 88.46C73.9 88.46 66.81 76.77 77.37 68C87.82 59.92 97.69 68.03 98.98 69.16C100.27 70.29 103.28 73.17 103.27 80.78L106.79 85.96C107.44 86.92 107.05 88.23 105.99 88.68L103.66 89.66V95.89C103.66 97.93 102 99.59 99.96 99.59H95.23C95.23 99.59 94.61 102.76 93.68 106.61C93.38 107.86 92.11 108.62 90.86 108.3L76.94 104.64C75.71 104.32 74.97 103.05 75.31 101.82V101.81Z" fill="#48EFCF" stroke="#101C3F" stroke-miterlimit="10"/>
<path d="M85.81 86.15C90.8468 86.15 94.93 82.0668 94.93 77.03C94.93 71.9932 90.8468 67.91 85.81 67.91C80.7732 67.91 76.69 71.9932 76.69 77.03C76.69 82.0668 80.7732 86.15 85.81 86.15Z" stroke="white" stroke-miterlimit="10"/>
<path d="M85.81 82.99C89.1017 82.99 91.77 80.3216 91.77 77.03C91.77 73.7384 89.1017 71.07 85.81 71.07C82.5184 71.07 79.85 73.7384 79.85 77.03C79.85 80.3216 82.5184 82.99 85.81 82.99Z" stroke="white" stroke-miterlimit="10"/>
<path d="M85.81 80.37C87.6547 80.37 89.15 78.8746 89.15 77.03C89.15 75.1854 87.6547 73.69 85.81 73.69C83.9654 73.69 82.47 75.1854 82.47 77.03C82.47 78.8746 83.9654 80.37 85.81 80.37Z" stroke="white" stroke-miterlimit="10"/>
</svg>
