<svg xmlns="http://www.w3.org/2000/svg" width="34" height="32" fill="none"><path fill="#343741" fill-rule="evenodd" d="M2 22c.475.286 1.499.578 2.428.842l.222.063C7.066 23.595 10.412 24 14 24q1.114 0 2.19-.05a10 10 0 0 0 .608 1.97c-.904.052-1.84.08-2.798.08-7.732 0-14-1.79-14-4V4c0-2.21 6.268-4 14-4s14 1.79 14 4v8.2q-.97-.198-2-.2a9.95 9.95 0 0 0-5.288 1.511c-1.993.312-4.28.489-6.712.489-5.093 0-9.55-.777-12-1.938V16c.475.286 1.499.578 2.428.842l.222.063C7.066 17.595 10.412 18 14 18c.98 0 1.941-.03 2.871-.088a10 10 0 0 0-.66 2.038Q15.128 20 14 20c-5.093 0-9.55-.777-12-1.939zM2 6.061V10c.475.286 1.499.578 2.428.842l.222.063C7.066 11.595 10.412 12 14 12s6.934-.404 9.35-1.095l.236-.067c.926-.263 1.945-.553 2.418-.838H26V6.061C23.55 7.223 19.093 8 14 8S4.45 7.223 2 6.061m21.35-2.966C20.934 2.405 17.588 2 14 2s-6.934.404-9.35 1.095c-.983.28-1.76.596-2.273.905.513.31 1.29.624 2.273.905C7.066 5.595 10.412 6 14 6s6.934-.404 9.35-1.095c.983-.28 1.76-.596 2.273-.905-.513-.31-1.29-.624-2.273-.905" clip-rule="evenodd"/><path fill="#343741" d="M30.205 20.997s1.224 7.676 1.24 7.883c.018.21.042.527-.268.856-.378.378-.534.316-.689.03 0 0-3.121-5.567-3.242-5.768-.121-.202-.264-.227-.49-.025a106 106 0 0 0-1.61 1.553c-.127.125-.129.158-.137.277l-.003.042-.274 2.256a.48.48 0 0 1-.142.31l-.385.384c-.196.196-.314.14-.406-.102s-.472-1.55-.472-1.55c-.012-.03-.083-.2-.14-.256l-.005-.006c-.128-.128-.245-.246-.46-.075-.393.313-.781.478-.893.366s.053-.499.366-.892c.168-.217.054-.332-.074-.46l-.006-.005c-.056-.056-.226-.127-.257-.14 0 0-1.31-.377-1.551-.47-.242-.093-.298-.21-.102-.406l.384-.385a.5.5 0 0 1 .31-.142l2.259-.273.053-.004c.11-.007.144-.009.266-.136l.299-.307a88 88 0 0 0 1.256-1.302c.201-.226.176-.369-.025-.49-.202-.12-5.775-3.24-5.775-3.24-.282-.151-.347-.31.032-.687.322-.323.639-.298.85-.28.21.02 7.89 1.238 7.89 1.238h.03c.315-.003.459-.135.69-.346l.068-.063s2.168-2.111 2.922-2.784 1.589-.769 2.023-.335.337 1.274-.336 2.027-2.786 2.92-2.786 2.92l-.063.068c-.212.23-.344.374-.346.688z"/></svg>