<svg width="88" height="88" viewBox="0 0 88 88" fill="none" xmlns="http://www.w3.org/2000/svg">
<mask id="mask0_50_1136" style="mask-type:luminance" maskUnits="userSpaceOnUse" x="0" y="0" width="88" height="88">
<path d="M88 0H0V88H88V0Z" fill="white"/>
</mask>
<g mask="url(#mask0_50_1136)">
<path d="M71.7765 6.54658C70.9951 6.54658 70.2213 6.60643 69.47 6.71118C67.0358 3.10499 62.8961 0.733276 58.2005 0.733276C52.2727 0.733276 47.2314 4.52651 45.3833 9.80115C44.5268 9.59912 43.6402 9.48689 42.7236 9.48689C36.4578 9.48689 31.3865 14.5446 31.3865 20.7768C31.3865 22.0487 31.5968 23.2682 31.9875 24.4054H87.8916C87.9522 23.8369 87.9822 23.2682 87.9822 22.6847C87.9822 13.7664 80.7248 6.5391 71.769 6.5391L71.7765 6.54658Z" fill="#153385" stroke="#101C3F" stroke-miterlimit="10"/>
<path d="M71.7765 9.1053C70.9951 9.1053 70.2213 9.16511 69.47 9.26989C67.0358 5.6637 62.8961 3.29199 58.2005 3.29199C52.2727 3.29199 47.2314 7.08523 45.3833 12.3598C44.5268 12.1579 43.6402 12.0456 42.7236 12.0456C36.4578 12.0456 31.3865 17.1032 31.3865 23.3355C31.3865 24.6074 31.5968 25.827 31.9875 26.9642H87.8916C87.9522 26.3956 87.9822 25.827 87.9822 25.2434C87.9822 16.3252 80.7248 9.09784 71.769 9.09784L71.7765 9.1053Z" fill="white" stroke="#101C3F" stroke-miterlimit="10"/>
<path d="M36.9011 20.4326C36.2024 20.4326 35.5112 20.485 34.8351 20.5822C32.6563 17.3576 28.9524 15.2328 24.7451 15.2328C19.4333 15.2328 14.9255 18.6295 13.2651 23.3505C12.4988 23.1709 11.7024 23.0661 10.8835 23.0661C5.27878 23.0661 0.733398 27.5926 0.733398 33.174C0.733398 34.3112 0.921224 35.4035 1.27434 36.4285H51.3336C51.3862 35.9197 51.4163 35.411 51.4163 34.8873C51.4163 26.9043 44.9175 20.4326 36.9011 20.4326Z" fill="#153385" stroke="#101C3F" stroke-miterlimit="10"/>
<path d="M36.9011 22.7221C36.2024 22.7221 35.5112 22.7745 34.8351 22.8718C32.6563 19.6471 28.9524 17.5223 24.7451 17.5223C19.4333 17.5223 14.9255 20.919 13.2651 25.64C12.4988 25.4604 11.7024 25.3557 10.8835 25.3557C5.27878 25.3557 0.733398 29.8821 0.733398 35.4635C0.733398 36.6007 0.921224 37.6931 1.27434 38.718H51.3336C51.3862 38.2093 51.4163 37.7005 51.4163 37.1768C51.4163 29.1938 44.9175 22.7221 36.9011 22.7221Z" fill="white" stroke="#101C3F" stroke-miterlimit="10"/>
<path d="M57.697 54.9833C57.697 54.9833 61.2658 52.2974 64.1357 54.9833V42.2195H57.697V54.9833Z" fill="#153385" stroke="#101C3F" stroke-miterlimit="10"/>
<path d="M66.66 61.9187C66.66 61.9187 70.2663 49.6936 66.7652 36.6081C66.5022 35.628 65.1048 35.6205 64.8419 36.6006C63.7224 40.7529 62.2949 49.2223 64.1883 61.9187H66.66Z" fill="#0B64DD" stroke="#101C3F" stroke-miterlimit="10"/>
<path d="M65.4129 62.8839C66.1806 62.8839 66.8028 62.5557 66.8028 62.1507C66.8028 61.7458 66.1806 61.4175 65.4129 61.4175C64.6453 61.4175 64.0231 61.7458 64.0231 62.1507C64.0231 62.5557 64.6453 62.8839 65.4129 62.8839Z" fill="#101C3F"/>
<path d="M65.4054 61.9937C65.8036 61.9937 66.1267 62.3154 66.1267 62.7119V62.8241C66.1267 62.9065 66.1116 62.9887 66.0816 63.0711L65.3528 65.0687L64.7218 63.0561C64.6992 62.9887 64.6917 62.9139 64.6917 62.8466V62.7119C64.6917 62.3154 65.0147 61.9937 65.4129 61.9937H65.4054Z" fill="#48EFCF"/>
<path d="M46.9459 3.17236C45.541 5.22235 32.8665 27.9743 37.2767 62.5174L46.9459 61.3802H47.0586L57.0735 62.5174C61.4836 27.9743 48.4635 5.22235 47.0586 3.17236H46.9459Z" fill="#0B64DD"/>
<path d="M46.9459 3.17236C45.541 5.22235 32.8665 27.9743 37.2767 62.5174L46.9459 61.3802H47.0586L57.0735 62.5174C61.4836 27.9743 48.4635 5.22235 47.0586 3.17236H46.9459Z" stroke="#101C3F" stroke-miterlimit="10"/>
<path d="M47.1713 66.5576C52.6401 66.5576 57.0735 64.7487 57.0735 62.5174C57.0735 60.2861 52.6401 58.4773 47.1713 58.4773C41.7026 58.4773 37.2692 60.2861 37.2692 62.5174C37.2692 64.7487 41.7026 66.5576 47.1713 66.5576Z" fill="white" stroke="#101C3F" stroke-miterlimit="10"/>
<path d="M47.1713 65.9066C51.4658 65.9066 54.9472 64.7577 54.9472 63.3404C54.9472 61.9231 51.4658 60.7742 47.1713 60.7742C42.8767 60.7742 39.3953 61.9231 39.3953 63.3404C39.3953 64.7577 42.8767 65.9066 47.1713 65.9066Z" fill="#0B64DD"/>
<mask id="mask1_50_1136" style="mask-type:luminance" maskUnits="userSpaceOnUse" x="39" y="60" width="16" height="6">
<path d="M47.1713 65.9066C51.4658 65.9066 54.9472 64.7577 54.9472 63.3404C54.9472 61.9231 51.4658 60.7742 47.1713 60.7742C42.8767 60.7742 39.3953 61.9231 39.3953 63.3404C39.3953 64.7577 42.8767 65.9066 47.1713 65.9066Z" fill="white"/>
</mask>
<g mask="url(#mask1_50_1136)">
<path d="M47.1713 64.5599C51.4658 64.5599 54.9472 63.4109 54.9472 61.9936C54.9472 60.5763 51.4658 59.4274 47.1713 59.4274C42.8767 59.4274 39.3953 60.5763 39.3953 61.9936C39.3953 63.4109 42.8767 64.5599 47.1713 64.5599Z" fill="#101C3F" stroke="#101C3F" stroke-miterlimit="10"/>
</g>
<path d="M47.1713 65.9066C51.4658 65.9066 54.9472 64.7577 54.9472 63.3404C54.9472 61.9231 51.4658 60.7742 47.1713 60.7742C42.8767 60.7742 39.3953 61.9231 39.3953 63.3404C39.3953 64.7577 42.8767 65.9066 47.1713 65.9066Z" stroke="#101C3F" stroke-miterlimit="10"/>
<path d="M46.9985 30.3311C49.2226 30.3311 51.0256 27.9461 51.0256 25.0041C51.0256 22.0621 49.2226 19.6771 46.9985 19.6771C44.7745 19.6771 42.9716 22.0621 42.9716 25.0041C42.9716 27.9461 44.7745 30.3311 46.9985 30.3311Z" fill="white"/>
<path d="M46.9759 62.3304C43.7679 62.3304 41.1683 64.9191 41.1683 68.1138V69.0416C41.1683 69.7149 41.2886 70.3883 41.5215 71.0242L47.4417 87.1922L52.5281 70.9045C52.7008 70.3508 52.791 69.7673 52.791 69.1837V68.1138C52.791 64.9191 50.1915 62.3304 46.9834 62.3304H46.9759Z" fill="#48EFCF" stroke="#101C3F" stroke-miterlimit="10"/>
<path d="M36.33 55.0357C36.33 55.0357 32.7614 52.3497 29.8914 55.0357V42.2719H36.33V55.0357Z" fill="#153385" stroke="#101C3F" stroke-miterlimit="10"/>
<path d="M27.3669 61.9787C27.3669 61.9787 23.7607 49.7536 27.2618 36.6681C27.5247 35.6879 28.9221 35.6804 29.1851 36.6606C30.3045 40.8129 31.732 49.2823 29.8387 61.9787H27.3669Z" fill="#0B64DD" stroke="#101C3F" stroke-miterlimit="10"/>
<path d="M28.6216 62.9364C29.4017 62.9364 30.0341 62.6082 30.0341 62.2032C30.0341 61.7983 29.4017 61.47 28.6216 61.47C27.8416 61.47 27.2092 61.7983 27.2092 62.2032C27.2092 62.6082 27.8416 62.9364 28.6216 62.9364Z" fill="#101C3F"/>
<path d="M28.6216 62.046C28.2234 62.046 27.9004 62.3677 27.9004 62.7643V62.8765C27.9004 62.9588 27.9154 63.0411 27.9454 63.1234L28.6742 65.121L29.3053 63.1084C29.3278 63.0411 29.3353 62.9663 29.3353 62.8989V62.7643C29.3353 62.3677 29.0123 62.046 28.6141 62.046H28.6216Z" fill="#48EFCF"/>
</g>
</svg>
