<svg width="32" height="32" viewBox="0 0 32 32" fill="none" xmlns="http://www.w3.org/2000/svg">
<path d="M18 24C18 25.1046 17.1046 26 16 26C14.8954 26 14 25.1046 14 24C14 22.8954 14.8954 22 16 22C17.1046 22 18 22.8954 18 24Z" fill="#535766"/>
<path fill-rule="evenodd" clip-rule="evenodd" d="M15 20V10H17V20H15Z" fill="#0B64DD"/>
<path fill-rule="evenodd" clip-rule="evenodd" d="M16 2C16.7113 2 17.3691 2.37782 17.7276 2.99226L31.7276 26.9923C32.0884 27.6108 32.091 28.3751 31.7343 28.9961C31.3776 29.6171 30.7161 30 30 30H2C1.28387 30 0.622392 29.6171 0.265716 28.9961C-0.0909607 28.3751 -0.0883951 27.6108 0.272442 26.9923L14.2724 2.99226C14.6309 2.37782 15.2887 2 16 2ZM2 28H30L16 4L2 28Z" fill="#0B64DD"/>
<path d="M18 24C18 25.1046 17.1046 26 16 26C14.8954 26 14 25.1046 14 24C14 22.8954 14.8954 22 16 22C17.1046 22 18 22.8954 18 24Z" fill="#0B64DD"/>
<path fill-rule="evenodd" clip-rule="evenodd" d="M15 20V10H17V20H15Z" fill="#0B64DD"/>
</svg>
