<svg xmlns="http://www.w3.org/2000/svg" viewBox="0 0 64 64" fill="none">
  <!-- OneDrive cloud shape in Microsoft blue -->
  <path d="M38.4 26.4C37.1 21.1 32.4 17.2 26.8 17.2c-4.2 0-7.9 2-10.2 5.1C11.5 23 8 27.1 8 32c0 5.5 4.5 10 10 10h29.5C51.6 42 56 37.6 56 32.1c0-5.1-3.9-9.3-8.9-9.8C45.8 22 44.1 24.6 38.4 26.4z" fill="#0078D4"/>
  <path d="M26.8 17.2c-4.2 0-7.9 2-10.2 5.1C11.5 23 8 27.1 8 32c0 .4 0 .8.1 1.2 1.4-3.8 5-6.5 9.2-6.5 1.1 0 2.2.2 3.2.6 1.5-5.6 6.6-9.7 12.7-10.1-.7-.1-1.5-.1-2.2 0l.8-.1c-.6 0-1.3-.1-2-.1l.4.1z" fill="#28A8EA" opacity="0.7"/>
  <path d="M47.5 22.3c-.2 0-.4 0-.6 0-.5-2.8-2-5.3-4.1-7.1C40.7 13.4 37.7 12 34.4 12c-5.4 0-10 3.4-11.8 8.2.7-.1 1.4-.2 2.2-.2 4.9 0 9.2 2.5 11.8 6.3 1.2-.6 2.6-1 4-1 2.6 0 4.9 1.1 6.5 2.8.1-.3.4-.5.4-.8z" fill="#50D9FF" opacity="0.8"/>
</svg>
