<svg width="12" height="12" viewBox="0 0 12 12" fill="none" xmlns="http://www.w3.org/2000/svg">
<path fill-rule="evenodd" clip-rule="evenodd" d="M10.124 1.125C10.7453 1.125 11.249 1.62868 11.249 2.25C11.249 2.87132 10.7453 3.375 10.124 3.375C9.63433 3.375 9.21875 3.06175 9.06421 2.625H6.74902C6.1277 2.625 5.62402 3.12868 5.62402 3.75V4.5C5.62402 4.92276 5.48215 5.31138 5.24609 5.625H5.62402C5.67857 5.625 5.73253 5.62775 5.78589 5.63232C5.80256 5.63375 5.81914 5.63559 5.83569 5.63745C5.88715 5.64324 5.93794 5.65101 5.98804 5.66089C6.00004 5.66325 6.01201 5.66562 6.02393 5.66821C6.12865 5.69101 6.22978 5.72318 6.32715 5.7627C6.34078 5.76822 6.35469 5.77298 6.36816 5.77881C6.41289 5.79821 6.45643 5.81983 6.49927 5.84253C6.51096 5.84871 6.52288 5.85442 6.53442 5.86084C6.57749 5.88485 6.61951 5.91052 6.6604 5.93774C6.67135 5.94502 6.68184 5.95295 6.69263 5.96045C6.72931 5.98599 6.76485 6.01298 6.79956 6.04102C6.80728 6.04724 6.81538 6.05298 6.823 6.05933C6.85847 6.08891 6.89235 6.12026 6.92554 6.15234C6.94095 6.16723 6.95605 6.18235 6.97095 6.19775C7.00207 6.22995 7.03226 6.26301 7.06104 6.29736C7.06995 6.30801 7.07872 6.31875 7.0874 6.32959C7.09946 6.34465 7.11169 6.35957 7.12329 6.375H7.12109C7.35715 6.68862 7.49902 7.07724 7.49902 7.5V8.25C7.49902 8.87132 8.0027 9.375 8.62402 9.375H9.06421C9.21875 8.93825 9.63433 8.625 10.124 8.625C10.7453 8.625 11.249 9.12868 11.249 9.75C11.249 10.3713 10.7453 10.875 10.124 10.875C9.63433 10.875 9.21875 10.5618 9.06421 10.125H8.62402C7.58849 10.125 6.74902 9.28553 6.74902 8.25V7.5C6.74902 6.87868 6.24534 6.375 5.62402 6.375H2.93384C2.7793 6.81175 2.36372 7.125 1.87402 7.125C1.2527 7.125 0.749023 6.62132 0.749023 6C0.749023 5.37868 1.2527 4.875 1.87402 4.875C2.36372 4.875 2.7793 5.18825 2.93384 5.625H3.74902C4.37034 5.625 4.87402 5.12132 4.87402 4.5V3.75C4.87402 2.71447 5.71349 1.875 6.74902 1.875H9.06421C9.21875 1.43825 9.63433 1.125 10.124 1.125ZM10.124 9.375C9.91692 9.375 9.74902 9.54289 9.74902 9.75C9.74902 9.95711 9.91692 10.125 10.124 10.125C10.3311 10.125 10.499 9.95711 10.499 9.75C10.499 9.54289 10.3311 9.375 10.124 9.375ZM1.87402 5.625C1.66692 5.625 1.49902 5.79289 1.49902 6C1.49902 6.20711 1.66692 6.375 1.87402 6.375C2.08113 6.375 2.24902 6.20711 2.24902 6C2.24902 5.79289 2.08113 5.625 1.87402 5.625ZM10.124 1.875C9.91692 1.875 9.74902 2.04289 9.74902 2.25C9.74902 2.45711 9.91692 2.625 10.124 2.625C10.3311 2.625 10.499 2.45711 10.499 2.25C10.499 2.04289 10.3311 1.875 10.124 1.875Z" fill="#1D2A3E"/>
<path fill-rule="evenodd" clip-rule="evenodd" d="M10.124 4.875C10.7453 4.875 11.249 5.37868 11.249 6C11.249 6.62132 10.7453 7.125 10.124 7.125C9.63433 7.125 9.21875 6.81175 9.06421 6.375H7.99561C7.86202 6.09381 7.68 5.84032 7.46021 5.625H9.06421C9.21875 5.18825 9.63433 4.875 10.124 4.875ZM10.124 5.625C9.91692 5.625 9.74902 5.79289 9.74902 6C9.74902 6.20711 9.91692 6.375 10.124 6.375C10.3311 6.375 10.499 6.20711 10.499 6C10.499 5.79289 10.3311 5.625 10.124 5.625Z" fill="#1D2A3E"/>
</svg>
