<svg width="12" height="12" viewBox="0 0 12 12" fill="none" xmlns="http://www.w3.org/2000/svg">
<path fill-rule="evenodd" clip-rule="evenodd" d="M10.124 6.75C10.7453 6.75 11.249 7.25368 11.249 7.875C11.249 8.49632 10.7453 9 10.124 9C9.63433 9 9.21875 8.68675 9.06421 8.25H2.93384C2.7793 8.68675 2.36372 9 1.87402 9C1.2527 9 0.749023 8.49632 0.749023 7.875C0.749023 7.25368 1.2527 6.75 1.87402 6.75C2.36372 6.75 2.7793 7.06325 2.93384 7.5H9.06421C9.21875 7.06325 9.63433 6.75 10.124 6.75ZM1.87402 7.5C1.66692 7.5 1.49902 7.66789 1.49902 7.875C1.49902 8.08211 1.66692 8.25 1.87402 8.25C2.08113 8.25 2.24902 8.08211 2.24902 7.875C2.24902 7.66789 2.08113 7.5 1.87402 7.5ZM10.124 7.5C9.91692 7.5 9.74902 7.66789 9.74902 7.875C9.74902 8.08211 9.91692 8.25 10.124 8.25C10.3311 8.25 10.499 8.08211 10.499 7.875C10.499 7.66789 10.3311 7.5 10.124 7.5Z" fill="#1D2A3E"/>
<path fill-rule="evenodd" clip-rule="evenodd" d="M10.124 3C10.7453 3 11.249 3.50368 11.249 4.125C11.249 4.74632 10.7453 5.25 10.124 5.25C9.63433 5.25 9.21875 4.93675 9.06421 4.5H2.93384C2.7793 4.93675 2.36372 5.25 1.87402 5.25C1.2527 5.25 0.749023 4.74632 0.749023 4.125C0.749023 3.50368 1.2527 3 1.87402 3C2.36372 3 2.7793 3.31325 2.93384 3.75H9.06421C9.21875 3.31325 9.63433 3 10.124 3ZM1.87402 3.75C1.66692 3.75 1.49902 3.91789 1.49902 4.125C1.49902 4.33211 1.66692 4.5 1.87402 4.5C2.08113 4.5 2.24902 4.33211 2.24902 4.125C2.24902 3.91789 2.08113 3.75 1.87402 3.75ZM10.124 3.75C9.91692 3.75 9.74902 3.91789 9.74902 4.125C9.74902 4.33211 9.91692 4.5 10.124 4.5C10.3311 4.5 10.499 4.33211 10.499 4.125C10.499 3.91789 10.3311 3.75 10.124 3.75Z" fill="#1D2A3E"/>
</svg>
