<svg xmlns="http://www.w3.org/2000/svg" width="109.843" height="109.772"><path d="M40.53 108.4C21.674 103.222 6.445 87.851 1.405 68.913c-1.875-7.047-1.875-20.938 0-27.985C6.475 21.883 21.883 6.475 40.93 1.407c7.033-1.872 20.933-1.877 27.947-.01a55.81 55.81 0 0 1 39.57 39.57c1.866 7.013 1.861 20.914-.01 27.947-5.068 19.046-20.477 34.454-39.522 39.522-6.752 1.797-21.778 1.777-28.385-.037m27.85-3.01c8.657-2.255 16.689-6.936 23.381-13.629a51.935 51.935 0 0 0 0-73.68 51.935 51.935 0 0 0-73.68 0C1.751 34.411-1.895 59.477 9.068 80.046c6.123 11.487 19.25 21.875 31.965 25.295 7.152 1.923 20.063 1.946 27.347.05m-26.354-3.989C25.11 96.657 11.384 82.089 7.862 65.142 6.26 57.438 7.19 44.803 9.879 37.697c4.6-12.152 15.444-23.01 27.923-27.958 8.13-3.223 26.108-3.223 34.238 0 12.414 4.922 23.137 15.62 28.024 27.958 3.263 8.24 3.284 26.16.04 34.344-4.888 12.326-15.9 23.336-27.94 27.936-7.532 2.877-22.447 3.582-30.138 1.425M24.92 63.422c.51-1.542.972-3.303 1.655-3.786.859-.606 2.294-.227 5.602-.227 3.238 0 4.647-.299 5.537.431.727.596 1.123 2.034 1.77 3.582.494 1.18 1.05 2.581 1.433 3.235.229.39 1.455.265 2.502.265h2.472l-1.88-4.75c-6.279-15.862-8.455-21.34-9.83-23.431-.522-.451-1.202-.343-1.81-.326-.665.019-1.246-.02-1.44.217-1.068 1.318-2.719 5.472-4.991 11.04-2.413 5.913-4.986 12.213-5.717 14-.716 1.75-1.482 2.853-1.158 3.296.257.353 1.393.211 2.435.211.996 0 2.045.153 2.337-.468.531-1.13.656-1.994 1.083-3.289m4.659-11.75c2.374-6.143 2.888-6.34 4.706-1.795 1.349 3.37 2.622 5.21 1.878 5.872-.514.458-2.395.173-4.235.173h-3.992zm24.341 1.25-.085-15.369-2.586-.043-2.457.129.128 15.283v14h5zm13.67 8.477 4.085-6.551 4.076 6.43c2.078 3.278 2.288 4.936 3.443 5.467 1.065.49 2.053.315 3.236.329l2.633.03-5.132-7.071c-2.756-3.79-5.695-7.47-5.695-7.865s3.128-4.551 5.937-8.058l6.075-7.584c-1.178-.037-3.044-.096-4.219 0-1.127.501-1.807 2.273-5.464 7.37-1.928 2.687-4.75 5.834-5.044 5.848-.296.014-2.025-2.815-4.078-5.565-1.569-2.27-2.71-4.965-4.03-7.237-.215-.144-.607-.038-2.145-.025-1.283.06-2.484.162-2.697.24.583.605 3.98 7.254 5.989 9.892l4.165 5.384-5.414 7.366-5.535 7.123h2.88c1.07 0 2.379.057 3.44-.374.976-.397 2.076-3.146 3.857-5.572z" style="fill:#7bba00"/><path d="M19.08 66.883c-.057-.093.239-.96.657-1.925.42-.966 2.584-6.223 4.81-11.683 4.282-10.494 5.997-14.311 6.57-14.618.192-.102.854-.186 1.472-.186.89 0 1.194.07 1.461.337.74.74 2.022 3.676 6.506 14.895 4.053 10.144 5.137 12.9 5.137 13.059 0 .066-.989.12-2.198.12-1.876 0-2.238-.044-2.47-.3-.149-.165-.709-1.378-1.244-2.696-1.31-3.224-1.707-3.97-2.26-4.256-.367-.19-1.6-.256-5.576-.304l-5.105-.06-.492.55c-.357.399-.753 1.36-1.443 3.498-.523 1.621-1.067 3.126-1.21 3.343-.247.378-.352.396-2.384.396-1.217 0-2.17-.073-2.23-.17M35.939 55.88a.88.88 0 0 0 .481-.673c.056-.477-2.632-6.907-3.303-7.903-.684-1.016-1.306-.728-2.184 1.009-.409.808-3.038 7.35-3.038 7.557 0 .027 1.059.073 2.353.102l3.808.088c.897.022 1.62-.047 1.883-.18M48.987 52.291l.044-14.59 2.325-.048 2.325-.047.114 8.248c.062 4.536.114 11.123.114 14.638v6.39h-4.966ZM79.727 66.851c-.857-.228-1.177-.62-2.433-2.975-1.144-2.147-5.329-8.852-5.58-8.941-.132-.047-2.986 4.426-5.584 8.753-1.474 2.456-1.837 2.822-3.005 3.031-.531.096-1.906.152-3.055.125l-2.088-.048 2.717-3.509c3.577-4.616 7.985-10.608 7.985-10.85 0-.107-.924-1.387-2.054-2.844-1.13-1.458-2.375-3.121-2.766-3.697-.807-1.186-4.992-8.404-4.992-8.61 0-.127 2.422-.355 3.784-.355.742 0 .551-.269 2.762 3.88 1.17 2.196 5.22 8.252 5.894 8.81.558.464 4.005-3.652 7.832-9.353 1.011-1.506 2.064-2.95 2.339-3.21.487-.459.548-.47 2.549-.47h2.049l-3.992 5.006c-3.606 4.522-6.93 8.87-7.713 10.086-.363.564-.572.214 2.99 5.018a776 776 0 0 1 4.95 6.76 596 596 0 0 0 2.448 3.38c.13.17-.318.211-2.124.197-1.259-.01-2.57-.092-2.913-.184" style="fill:#fff;stroke-width:.17114915"/><path d="M51.256 106.658c-8.137-.494-12.631-1.643-18.998-4.859C22.161 96.7 13.58 88.486 8.83 79.375c-3.183-6.107-5.152-12.94-5.77-20.024-.27-3.093-.105-8.82.337-11.73C4.82 38.246 8.484 29.744 14.2 22.555c1.854-2.333 6.106-6.587 8.388-8.394C34.242 4.933 48.934 1.14 63.578 3.576c18.628 3.1 34.437 16.526 40.586 34.467 2.114 6.167 2.922 11.536 2.752 18.286-.205 8.103-2.021 15.219-5.72 22.406-2.446 4.752-5.473 8.838-9.616 12.982-4.367 4.366-8.498 7.37-13.71 9.967-5.557 2.77-10.254 4.137-16.253 4.73-1.909.19-8.65.348-10.361.244m9.257-4.267c4.888-.467 9.029-1.322 12.057-2.49 3.453-1.332 7.948-3.944 11.375-6.61 8.809-6.852 15.793-17.14 17.523-25.81.812-4.07.961-6.014.961-12.494 0-6.617-.162-8.651-1.022-12.799-.585-2.82-1.288-4.79-2.824-7.91-4.395-8.934-11.93-16.846-20.854-21.899-3.887-2.2-7.418-3.511-11.241-4.173-4.076-.706-5.461-.799-11.81-.791-6.578.008-8.058.129-12.51 1.023-2.742.55-4.555 1.201-7.856 2.82-4.946 2.425-9.268 5.569-13.52 9.835-6.086 6.103-10.27 13.077-12.065 20.11-.438 1.713-1.123 5.733-1.402 8.221-.34 3.045-.29 11.075.087 13.521q1.734 11.286 9.332 21.308c1.67 2.203 6.636 7.17 8.84 8.84 7.077 5.365 14.734 8.635 21.906 9.358 2.597.261 10.024.227 13.023-.06" style="fill:#fff;stroke-width:.17114915"/></svg>