<svg xmlns="http://www.w3.org/2000/svg" width="744.094" height="578.268" version="1.0"><g style="fill-rule:evenodd"><path d="M37.482 153.143c-.279 0-.619.08-1.019.301-1.332.74-.637 2.107-.637 2.107l25.035 52.928h6.065l-28.299-54.595s-.31-.742-1.145-.74m45.115 101.308 19.016 40.232s1.082 2.121 3.357 2.303h.625c.612-.046 1.3-.227 2.06-.613 4.112-2.093 2.038-5.37 2.037-5.37L90.757 254.45z" style="fill:#777" transform="matrix(3.5433 0 0 3.5433 17.639 -491.695)"/><path d="M179.488 150.258c-8.896-4.27-17.475-6.175-25.989-6.51h-5.613c-12.303.46-24.587 3.845-37.62 7.746-24.178 7.231-45.683 11.145-69.842 1.288 2.632 4.703 3.95 7.054 6.583 11.753q3.627 6.484 7.257 12.966l6.582 11.752c19.235 5.436 35.165-1.614 52.258-10.16 20.526-10.255 39.066-19.482 62.518-14.136-19.819-9.924-37.785-7.465-58.509-1.842 20.29-10.33 39.391-18.362 62.375-12.857M38.946 234.746c0 3.965 0 7.804.122 9.819-.426.729-2.134 1.403-3.597 1.403-.061 0-2.074-3.111-4.939-6.65l-14.086-17.441c-3.474-4.391-5.548-6.89-6.645-7.806-.305.609-.305 1.645-.305 3.902v11.833c0 4.94.243 9.512.915 11.16.549 1.28 1.95 1.646 3.536 1.95l1.707.245c.487.488.366 1.77 0 2.132-3.292-.119-5.731-.182-8.17-.182-2.256 0-4.512.064-6.828.182-.367-.362-.488-1.644 0-2.132l1.036-.184c1.646-.366 2.804-.731 3.352-2.01.61-1.65.855-6.221.855-11.161v-15.491c0-3.353 0-4.328-.427-5.182-.428-1.037-1.342-1.648-3.476-2.074l-1.707-.245c-.152-.174-.242-.472-.267-.792v-.382c.037-.452.204-.868.51-.959 2.867.119 5.915.182 8.416.182 2.072 0 3.841-.061 5.122-.182.61 2.743 4.573 7.377 10.06 13.904l5.122 6.038c2.744 3.17 4.451 5.303 5.855 6.708.243-.611.243-1.65.243-2.745v-8.417c0-4.939-.243-9.513-.915-11.162-.55-1.278-1.89-1.643-3.536-1.948l-1.647-.245c-.487-.488-.365-1.768 0-2.133 3.293.119 5.671.182 8.171.182 2.255 0 4.451-.061 6.83-.183.366.366.486 1.646 0 2.135l-1.098.182c-1.585.367-2.744.731-3.294 2.013-.67 1.646-.914 6.22-.914 11.161z" style="fill:#f26711" transform="matrix(3.5433 0 0 3.5433 17.639 -491.695)"/><path d="M53.432 227.976c.855 0 1.83-.124 2.502-.549.304-.186.425-.796.425-1.401 0-2.014-1.158-3.356-3.23-3.356-2.562 0-4.757 2.439-4.757 4.39 0 .855.853.916 2.805.916zm-4.023 2.683c-1.402 0-1.525.12-1.525 1.096 0 4.575 2.928 9.027 8.597 9.027 1.708 0 4.026-.365 5.671-3.171a1.378 1.378 0 0 1 1.586 1.4c-2.5 5.185-7.012 6.956-10.67 6.956-8.232 0-12.683-5.796-12.683-12.443 0-7.684 5.549-13.661 13.17-13.661 6.34 0 9.756 4.086 9.756 8.783 0 1.159-.305 2.013-2.194 2.013zM75.333 224.012c-.792 0-.853.06-.853 1.403v9.145c0 3.417 0 7.198 4.268 7.198.854 0 1.829-.426 2.562-.913.608.181.974.851.852 1.584-1.707 1.829-5 3.538-8.78 3.538-5.061 0-6.829-2.928-6.829-6.955v-13.597c0-1.282-.06-1.403-1.158-1.403h-1.89c-.671-.248-.854-1.465-.366-1.893 1.89-.668 3.597-1.768 5.06-2.743 1.098-.792 2.623-2.071 4.513-4.759.426-.242 1.524-.18 1.83.307v4.574c0 1.158.06 1.22 1.158 1.22h5.427c.305.242.487.61.487 1.158 0 .671-.182 1.767-.792 2.136z" style="fill:#f26711" transform="matrix(3.5433 0 0 3.5433 17.639 -491.695)"/><path d="M97.353 234.805c0 4.757.61 7.745 5.367 7.745 4.512 0 6.89-3.475 6.89-8.416 0-5.306-3.05-9.025-8.902-9.025-3.354 0-3.354.06-3.354 2.502zm0-14.088c0 1.587.062 1.707 3.233 1.707 5.243 0 7.194-3.352 7.194-7.012 0-5.305-3.293-7.928-7.5-7.928-2.865 0-2.927.49-2.927 3.172zm-8.415-5.916c0-6.158-.121-6.827-2.682-7.134l-1.647-.245c-.548-.306-.67-2.134.245-2.195 4.634-.304 9.085-.55 15.183-.55 5.853 0 9.757.672 12.438 2.258 2.622 1.586 4.206 4.148 4.206 7.744 0 5.124-4.328 7.136-6.218 7.625-.61.12-1.22.366-1.22.67 0 .183.306.364.855.488 4.817 1.038 8.901 4.206 8.963 10.12.061 5.612-3.293 8.906-7.133 10.25-3.843 1.34-8.415 1.523-12.135 1.523-2.194 0-4.511-.246-6.28-.246-2.989 0-5.976.064-9.451.184-.487-.365-.487-1.95 0-2.133l1.769-.366c2.743-.548 3.109-.976 3.109-6.465zM132.358 246.087c-5.608 0-9.085-1.586-10.365-2.316-1.158-1.342-1.95-5.733-1.95-9.88.426-.792 1.83-.854 2.317-.184 1.219 3.964 5.303 9.574 10.487 9.574 4.51 0 6.585-3.11 6.585-6.157 0-4.94-4.633-7.867-8.292-9.696-4.39-2.198-9.146-5.855-9.206-11.894 0-6.89 5.305-11.65 14.146-11.65 2.011 0 4.51.246 6.951.979.792.244 1.34.364 2.073.487.485 1.341 1.097 4.635 1.097 8.721-.305.73-1.83.792-2.378.185-1.037-3.112-3.66-7.565-8.05-7.565-4.023 0-6.217 2.624-6.217 5.671 0 2.806 2.497 5.366 5.546 6.952l4.026 2.137c3.78 2.012 8.597 5.548 8.597 12.256 0 7.502-6.16 12.38-15.367 12.38" style="fill:#777" transform="matrix(3.5433 0 0 3.5433 17.639 -491.695)"/><path d="M161.118 234.071c0 3.356.122 5.55 1.219 6.832 1.1 1.22 2.866 1.769 5.061 1.769 10.548 0 14.146-9.39 14.146-17.685 0-10.978-5.792-17.503-16.83-17.503-1.643 0-2.804.305-3.17.795-.366.486-.426 1.645-.426 3.534v22.26zm-8.719-19.33c0-5.794-.122-6.952-2.927-7.257l-1.158-.12c-.609-.306-.609-2.076.123-2.138 5.122-.304 9.877-.55 16.341-.55 5 0 9.998.493 14.207 2.015 7.988 2.866 12.376 10.062 12.376 17.684 0 8.173-3.902 14.76-10.913 18.236-4.145 2.075-9.147 2.865-15.427 2.865-2.864 0-5.916-.367-8.11-.367-2.927 0-6.037.063-9.511.184-.488-.365-.488-1.828 0-2.133l1.89-.305c2.743-.487 3.11-.914 3.11-6.526zM189.07 209.357q0-2.265 1.608-3.868 1.607-1.605 3.873-1.605t3.868 1.605 1.603 3.868q0 2.267-1.603 3.874-1.605 1.607-3.868 1.608-2.266 0-3.873-1.608-1.608-1.607-1.608-3.874m10.055 0q0-1.896-1.338-3.236-1.338-1.338-3.236-1.339t-3.24 1.339-1.343 3.236q0 1.899 1.342 3.241 1.343 1.341 3.24 1.342 1.898 0 3.237-1.342 1.338-1.343 1.338-3.24m-2.874 3.296-1.717-2.902h-.975v2.902h-.957v-6.733h1.728q2.43 0 2.431 1.864 0 1.297-1.308 1.83l1.846 3.04zm-2.692-5.917v2.25q.12.017.63.016.938 0 1.26-.24.324-.24.324-.918 0-1.116-1.454-1.117h-.38z" style="fill:#777" transform="matrix(3.5433 0 0 3.5433 17.639 -491.695)"/></g></svg>