<svg width="80" height="68" viewBox="0 0 80 68" fill="none" xmlns="http://www.w3.org/2000/svg">
<g clip-path="url(#clip0_10553_4676)">
<rect width="80" height="68" fill="#D9E8FF"/>
<g filter="url(#filter0_d_10553_4676)">
<path d="M18 15C18 12.7909 19.7909 11 22 11H86V70H18V15Z" fill="white"/>
</g>
<path d="M42 19C42 17.8954 42.8954 17 44 17H94C95.1046 17 96 17.8954 96 19V74C96 75.1046 95.1046 76 94 76H44C42.8954 76 42 75.1046 42 74V19Z" fill="#D9E8FF"/>
<path d="M25 19C25 17.8954 25.8954 17 27 17H33C34.1046 17 35 17.8954 35 19V25C35 26.1046 34.1046 27 33 27H27C25.8954 27 25 26.1046 25 25V19Z" fill="#3788FF"/>
<path d="M25 34C25 32.8954 25.8954 32 27 32H33C34.1046 32 35 32.8954 35 34V40C35 41.1046 34.1046 42 33 42H27C25.8954 42 25 41.1046 25 40V34Z" fill="#61A2FF"/>
<path d="M25 49C25 47.8954 25.8954 47 27 47H33C34.1046 47 35 47.8954 35 49V55C35 56.1046 34.1046 57 33 57H27C25.8954 57 25 56.1046 25 55V49Z" fill="#85B7FF"/>
<path d="M25 64C25 62.8954 25.8954 62 27 62H33C34.1046 62 35 62.8954 35 64V70C35 71.1046 34.1046 72 33 72H27C25.8954 72 25 71.1046 25 70V64Z" fill="#A3CBFF"/>
</g>
<defs>
<filter id="filter0_d_10553_4676" x="16" y="9" width="72" height="63" filterUnits="userSpaceOnUse" color-interpolation-filters="sRGB">
<feFlood flood-opacity="0" result="BackgroundImageFix"/>
<feColorMatrix in="SourceAlpha" type="matrix" values="0 0 0 0 0 0 0 0 0 0 0 0 0 0 0 0 0 0 127 0" result="hardAlpha"/>
<feOffset/>
<feGaussianBlur stdDeviation="1"/>
<feComposite in2="hardAlpha" operator="out"/>
<feColorMatrix type="matrix" values="0 0 0 0 0.168627 0 0 0 0 0.223529 0 0 0 0 0.309804 0 0 0 0.16 0"/>
<feBlend mode="normal" in2="BackgroundImageFix" result="effect1_dropShadow_10553_4676"/>
<feBlend mode="normal" in="SourceGraphic" in2="effect1_dropShadow_10553_4676" result="shape"/>
</filter>
<clipPath id="clip0_10553_4676">
<rect width="80" height="68" fill="white"/>
</clipPath>
</defs>
</svg>
