<svg width="80" height="70" viewBox="0 0 80 70" fill="none" xmlns="http://www.w3.org/2000/svg">
<rect width="80" height="70" fill="#D9E8FF"/>
<path d="M19 23.5C19 23.2239 19.2239 23 19.5 23H28.5C28.7761 23 29 23.2239 29 23.5V24.5C29 24.7761 28.7761 25 28.5 25H19.5C19.2239 25 19 24.7761 19 24.5V23.5Z" fill="#2476F0"/>
<path d="M19 39.5C19 39.2239 19.2239 39 19.5 39H28.5C28.7761 39 29 39.2239 29 39.5V40.5C29 40.7761 28.7761 41 28.5 41H19.5C19.2239 41 19 40.7761 19 40.5V39.5Z" fill="#61A2FF"/>
<path d="M19 55.5C19 55.2239 19.2239 55 19.5 55H28.5C28.7761 55 29 55.2239 29 55.5V56.5C29 56.7761 28.7761 57 28.5 57H19.5C19.2239 57 19 56.7761 19 56.5V55.5Z" fill="#A3CBFF"/>
<rect x="20" y="13" width="8" height="8" rx="2" fill="#2476F0"/>
<path d="M20 31C20 29.8954 20.8954 29 22 29H26C27.1046 29 28 29.8954 28 31V35C28 36.1046 27.1046 37 26 37H22C20.8954 37 20 36.1046 20 35V31Z" fill="#61A2FF"/>
<path d="M33 13C33 11.8954 33.8954 11 35 11H57C58.1046 11 59 11.8954 59 13V57C59 58.1046 58.1046 59 57 59H35C33.8954 59 33 58.1046 33 57V13Z" fill="#BFDBFF"/>
<path d="M37 16C37 15.4477 37.4477 15 38 15H54C54.5523 15 55 15.4477 55 16V19C55 19.5523 54.5523 20 54 20H38C37.4477 20 37 19.5523 37 19V16Z" fill="#A3CBFF"/>
<path opacity="0.8" d="M37 23C37 22.4477 37.4477 22 38 22H54C54.5523 22 55 22.4477 55 23V26C55 26.5523 54.5523 27 54 27H38C37.4477 27 37 26.5523 37 26V23Z" fill="#A3CBFF"/>
<path opacity="0.5" d="M37 30C37 29.4477 37.4477 29 38 29H54C54.5523 29 55 29.4477 55 30V33C55 33.5523 54.5523 34 54 34H38C37.4477 34 37 33.5523 37 33V30Z" fill="#A3CBFF"/>
<path d="M20 47C20 45.8954 20.8954 45 22 45H26C27.1046 45 28 45.8954 28 47V51C28 52.1046 27.1046 53 26 53H22C20.8954 53 20 52.1046 20 51V47Z" fill="#A3CBFF"/>
</svg>
