<svg width="80" height="70" viewBox="0 0 80 70" fill="none" xmlns="http://www.w3.org/2000/svg">
<rect width="80" height="70" fill="#ECF1F9"/>
<path d="M33 13C33 11.8954 33.8954 11 35 11H57C58.1046 11 59 11.8954 59 13V57C59 58.1046 58.1046 59 57 59H35C33.8954 59 33 58.1046 33 57V13Z" fill="#D6DDEA"/>
<path d="M37 16C37 15.4477 37.4477 15 38 15H54C54.5523 15 55 15.4477 55 16V19C55 19.5523 54.5523 20 54 20H38C37.4477 20 37 19.5523 37 19V16Z" fill="#C0CCDD"/>
<path opacity="0.8" d="M37 23C37 22.4477 37.4477 22 38 22H54C54.5523 22 55 22.4477 55 23V26C55 26.5523 54.5523 27 54 27H38C37.4477 27 37 26.5523 37 26V23Z" fill="#C0CCDD"/>
<path opacity="0.5" d="M37 30C37 29.4477 37.4477 29 38 29H54C54.5523 29 55 29.4477 55 30V33C55 33.5523 54.5523 34 54 34H38C37.4477 34 37 33.5523 37 33V30Z" fill="#C0CCDD"/>
<rect x="21" y="13" width="8" height="8" rx="2" fill="#5A6D8C"/>
<path d="M21 27C21 25.8954 21.8954 25 23 25H27C28.1046 25 29 25.8954 29 27V31C29 32.1046 28.1046 33 27 33H23C21.8954 33 21 32.1046 21 31V27Z" fill="#8E9FBC"/>
<path d="M21 39C21 37.8954 21.8954 37 23 37H27C28.1046 37 29 37.8954 29 39V43C29 44.1046 28.1046 45 27 45H23C21.8954 45 21 44.1046 21 43V39Z" fill="#C0CCDD"/>
<rect x="21" y="49" width="8" height="8" rx="2" fill="#D6DDEA"/>
</svg>
