<svg width="80" height="68" viewBox="0 0 80 68" fill="none" xmlns="http://www.w3.org/2000/svg">
<g clip-path="url(#clip0_10553_4642)">
<rect width="80" height="68" fill="#ECF1F9"/>
<g filter="url(#filter0_d_10553_4642)">
<path d="M18 14C18 12.3431 19.3431 11 21 11H86V70H18V14Z" fill="white"/>
</g>
<path d="M46 19C46 17.8954 46.8954 17 48 17H98C99.1046 17 100 17.8954 100 19V74C100 75.1046 99.1046 76 98 76H48C46.8954 76 46 75.1046 46 74V19Z" fill="#E3E8F2"/>
<path d="M25 30.5C25 30.2239 25.2239 30 25.5 30H38.5C38.7761 30 39 30.2239 39 30.5V32.5C39 32.7761 38.7761 33 38.5 33H25.5C25.2239 33 25 32.7761 25 32.5V30.5Z" fill="#5A6D8C"/>
<path d="M25 53C25 52.4477 25.4477 52 26 52H38C38.5523 52 39 52.4477 39 53V54C39 54.5523 38.5523 55 38 55H26C25.4477 55 25 54.5523 25 54V53Z" fill="#798EAF"/>
<rect x="27" y="17" width="10" height="10" rx="2" fill="#5A6D8C"/>
<path d="M27 41C27 39.8954 27.8954 39 29 39H35C36.1046 39 37 39.8954 37 41V47C37 48.1046 36.1046 49 35 49H29C27.8954 49 27 48.1046 27 47V41Z" fill="#8E9FBC"/>
<path d="M27 63C27 61.8954 27.8954 61 29 61H35C36.1046 61 37 61.8954 37 63V69C37 70.1046 36.1046 71 35 71H29C27.8954 71 27 70.1046 27 69V63Z" fill="#C0CCDD"/>
</g>
<defs>
<filter id="filter0_d_10553_4642" x="16" y="9" width="72" height="63" filterUnits="userSpaceOnUse" color-interpolation-filters="sRGB">
<feFlood flood-opacity="0" result="BackgroundImageFix"/>
<feColorMatrix in="SourceAlpha" type="matrix" values="0 0 0 0 0 0 0 0 0 0 0 0 0 0 0 0 0 0 127 0" result="hardAlpha"/>
<feOffset/>
<feGaussianBlur stdDeviation="1"/>
<feComposite in2="hardAlpha" operator="out"/>
<feColorMatrix type="matrix" values="0 0 0 0 0.168627 0 0 0 0 0.223529 0 0 0 0 0.309804 0 0 0 0.16 0"/>
<feBlend mode="normal" in2="BackgroundImageFix" result="effect1_dropShadow_10553_4642"/>
<feBlend mode="normal" in="SourceGraphic" in2="effect1_dropShadow_10553_4642" result="shape"/>
</filter>
<clipPath id="clip0_10553_4642">
<rect width="80" height="68" fill="white"/>
</clipPath>
</defs>
</svg>
