<svg width="78" height="60" viewBox="0 0 78 60" fill="none" xmlns="http://www.w3.org/2000/svg">
<g clip-path="url(#clip0_10543_167)">
<rect width="78" height="60" fill="#ECF1F9"/>
<g filter="url(#filter0_ddd_10543_167)">
<rect x="32" y="8" width="32" height="44" rx="2" fill="white"/>
</g>
<path d="M37 13.5C37 13.2239 37.2239 13 37.5 13H58.5C58.7761 13 59 13.2239 59 13.5V16.5C59 16.7761 58.7761 17 58.5 17H37.5C37.2239 17 37 16.7761 37 16.5V13.5Z" fill="#E3E8F2"/>
<path d="M37 20.5C37 20.2239 37.2239 20 37.5 20H51.5C51.7761 20 52 20.2239 52 20.5V23.5C52 23.7761 51.7761 24 51.5 24H37.5C37.2239 24 37 23.7761 37 23.5V20.5Z" fill="#E3E8F2"/>
<rect x="13" y="9" width="10" height="10" rx="2" fill="url(#paint0_linear_10543_167)"/>
<rect x="13" y="25" width="10" height="10" rx="2" fill="url(#paint1_linear_10543_167)"/>
<rect x="13" y="41" width="10" height="10" rx="2" fill="url(#paint2_linear_10543_167)"/>
</g>
<defs>
<filter id="filter0_ddd_10543_167" x="24" y="2" width="48" height="60" filterUnits="userSpaceOnUse" color-interpolation-filters="sRGB">
<feFlood flood-opacity="0" result="BackgroundImageFix"/>
<feColorMatrix in="SourceAlpha" type="matrix" values="0 0 0 0 0 0 0 0 0 0 0 0 0 0 0 0 0 0 127 0" result="hardAlpha"/>
<feOffset dy="2"/>
<feGaussianBlur stdDeviation="4"/>
<feComposite in2="hardAlpha" operator="out"/>
<feColorMatrix type="matrix" values="0 0 0 0 0.168627 0 0 0 0 0.223529 0 0 0 0 0.309804 0 0 0 0.05 0"/>
<feBlend mode="normal" in2="BackgroundImageFix" result="effect1_dropShadow_10543_167"/>
<feColorMatrix in="SourceAlpha" type="matrix" values="0 0 0 0 0 0 0 0 0 0 0 0 0 0 0 0 0 0 127 0" result="hardAlpha"/>
<feOffset dy="1"/>
<feGaussianBlur stdDeviation="2"/>
<feComposite in2="hardAlpha" operator="out"/>
<feColorMatrix type="matrix" values="0 0 0 0 0.168627 0 0 0 0 0.223529 0 0 0 0 0.309804 0 0 0 0.06 0"/>
<feBlend mode="normal" in2="effect1_dropShadow_10543_167" result="effect2_dropShadow_10543_167"/>
<feColorMatrix in="SourceAlpha" type="matrix" values="0 0 0 0 0 0 0 0 0 0 0 0 0 0 0 0 0 0 127 0" result="hardAlpha"/>
<feOffset/>
<feGaussianBlur stdDeviation="1"/>
<feComposite in2="hardAlpha" operator="out"/>
<feColorMatrix type="matrix" values="0 0 0 0 0.168627 0 0 0 0 0.223529 0 0 0 0 0.309804 0 0 0 0.16 0"/>
<feBlend mode="normal" in2="effect2_dropShadow_10543_167" result="effect3_dropShadow_10543_167"/>
<feBlend mode="normal" in="SourceGraphic" in2="effect3_dropShadow_10543_167" result="shape"/>
</filter>
<linearGradient id="paint0_linear_10543_167" x1="13" y1="9" x2="23" y2="19" gradientUnits="userSpaceOnUse">
<stop stop-color="#B4C1D5"/>
<stop offset="1" stop-color="#8E9FBC"/>
</linearGradient>
<linearGradient id="paint1_linear_10543_167" x1="13" y1="25" x2="23" y2="35" gradientUnits="userSpaceOnUse">
<stop stop-color="#B4C1D5"/>
<stop offset="1" stop-color="#8E9FBC"/>
</linearGradient>
<linearGradient id="paint2_linear_10543_167" x1="13" y1="41" x2="23" y2="51" gradientUnits="userSpaceOnUse">
<stop stop-color="#B4C1D5"/>
<stop offset="1" stop-color="#8E9FBC"/>
</linearGradient>
<clipPath id="clip0_10543_167">
<rect width="78" height="60" fill="white"/>
</clipPath>
</defs>
</svg>
