<svg width="80" height="70" viewBox="0 0 80 70" fill="none" xmlns="http://www.w3.org/2000/svg">
<rect width="80" height="70" fill="#D9E8FF"/>
<path d="M33 12C33 10.8954 33.8954 10 35 10H57C58.1046 10 59 10.8954 59 12V56C59 57.1046 58.1046 58 57 58H35C33.8954 58 33 57.1046 33 56V12Z" fill="#BFDBFF"/>
<path d="M37 15C37 14.4477 37.4477 14 38 14H54C54.5523 14 55 14.4477 55 15V18C55 18.5523 54.5523 19 54 19H38C37.4477 19 37 18.5523 37 18V15Z" fill="#A3CBFF"/>
<path opacity="0.8" d="M37 22C37 21.4477 37.4477 21 38 21H54C54.5523 21 55 21.4477 55 22V25C55 25.5523 54.5523 26 54 26H38C37.4477 26 37 25.5523 37 25V22Z" fill="#A3CBFF"/>
<path opacity="0.5" d="M37 29C37 28.4477 37.4477 28 38 28H54C54.5523 28 55 28.4477 55 29V32C55 32.5523 54.5523 33 54 33H38C37.4477 33 37 32.5523 37 32V29Z" fill="#A3CBFF"/>
<rect x="21" y="12" width="8" height="8" rx="2" fill="#2476F0"/>
<path d="M21 26C21 24.8954 21.8954 24 23 24H27C28.1046 24 29 24.8954 29 26V30C29 31.1046 28.1046 32 27 32H23C21.8954 32 21 31.1046 21 30V26Z" fill="#61A2FF"/>
<path d="M21 38C21 36.8954 21.8954 36 23 36H27C28.1046 36 29 36.8954 29 38V42C29 43.1046 28.1046 44 27 44H23C21.8954 44 21 43.1046 21 42V38Z" fill="#A3CBFF"/>
<rect x="21" y="48" width="8" height="8" rx="2" fill="#BFDBFF"/>
</svg>
