<svg width="72" height="56" viewBox="0 0 72 56" fill="none" xmlns="http://www.w3.org/2000/svg">
<g clip-path="url(#clip0_10542_2412)">
<rect width="72" height="56" fill="#ECF1F9"/>
<g filter="url(#filter0_ddd_10542_2412)">
<rect x="25" y="6" width="36" height="44" rx="2" fill="white"/>
</g>
<path d="M30 11.5C30 11.2239 30.2239 11 30.5 11H55.5C55.7761 11 56 11.2239 56 11.5V14.5C56 14.7761 55.7761 15 55.5 15H30.5C30.2239 15 30 14.7761 30 14.5V11.5Z" fill="#E3E8F2"/>
<path d="M30 18.5C30 18.2239 30.2239 18 30.5 18H48.5C48.7761 18 49 18.2239 49 18.5V21.5C49 21.7761 48.7761 22 48.5 22H30.5C30.2239 22 30 21.7761 30 21.5V18.5Z" fill="#E3E8F2"/>
<path d="M8 16.5C8 16.2239 8.22386 16 8.5 16H19.5C19.7761 16 20 16.2239 20 16.5V17.5C20 17.7761 19.7761 18 19.5 18H8.5C8.22386 18 8 17.7761 8 17.5V16.5Z" fill="#8E9FBC"/>
<path d="M8 32.5C8 32.2239 8.22386 32 8.5 32H19.5C19.7761 32 20 32.2239 20 32.5V33.5C20 33.7761 19.7761 34 19.5 34H8.5C8.22386 34 8 33.7761 8 33.5V32.5Z" fill="#8E9FBC"/>
<path d="M8 48.5C8 48.2239 8.22386 48 8.5 48H19.5C19.7761 48 20 48.2239 20 48.5V49.5C20 49.7761 19.7761 50 19.5 50H8.5C8.22386 50 8 49.7761 8 49.5V48.5Z" fill="#8E9FBC"/>
<g clip-path="url(#clip1_10542_2412)">
<path d="M10 26C10 23.7909 11.7909 22 14 22V22C16.2091 22 18 23.7909 18 26V26C18 28.2091 16.2091 30 14 30V30C11.7909 30 10 28.2091 10 26V26Z" fill="#8E9FBC"/>
<rect x="13" y="20" width="8" height="8" rx="4" fill="#B4C1D5"/>
</g>
<g clip-path="url(#clip2_10542_2412)">
<path d="M10 42C10 39.7909 11.7909 38 14 38V38C16.2091 38 18 39.7909 18 42V42C18 44.2091 16.2091 46 14 46V46C11.7909 46 10 44.2091 10 42V42Z" fill="#8E9FBC"/>
<rect x="13" y="36" width="8" height="8" rx="4" fill="#B4C1D5"/>
</g>
<g clip-path="url(#clip3_10542_2412)">
<path d="M10 10C10 7.79086 11.7909 6 14 6V6C16.2091 6 18 7.79086 18 10V10C18 12.2091 16.2091 14 14 14V14C11.7909 14 10 12.2091 10 10V10Z" fill="#8E9FBC"/>
<rect x="13" y="4" width="8" height="8" rx="4" fill="#B4C1D5"/>
</g>
</g>
<defs>
<filter id="filter0_ddd_10542_2412" x="17" y="0" width="52" height="60" filterUnits="userSpaceOnUse" color-interpolation-filters="sRGB">
<feFlood flood-opacity="0" result="BackgroundImageFix"/>
<feColorMatrix in="SourceAlpha" type="matrix" values="0 0 0 0 0 0 0 0 0 0 0 0 0 0 0 0 0 0 127 0" result="hardAlpha"/>
<feOffset dy="2"/>
<feGaussianBlur stdDeviation="4"/>
<feComposite in2="hardAlpha" operator="out"/>
<feColorMatrix type="matrix" values="0 0 0 0 0.168627 0 0 0 0 0.223529 0 0 0 0 0.309804 0 0 0 0.05 0"/>
<feBlend mode="normal" in2="BackgroundImageFix" result="effect1_dropShadow_10542_2412"/>
<feColorMatrix in="SourceAlpha" type="matrix" values="0 0 0 0 0 0 0 0 0 0 0 0 0 0 0 0 0 0 127 0" result="hardAlpha"/>
<feOffset dy="1"/>
<feGaussianBlur stdDeviation="2"/>
<feComposite in2="hardAlpha" operator="out"/>
<feColorMatrix type="matrix" values="0 0 0 0 0.168627 0 0 0 0 0.223529 0 0 0 0 0.309804 0 0 0 0.06 0"/>
<feBlend mode="normal" in2="effect1_dropShadow_10542_2412" result="effect2_dropShadow_10542_2412"/>
<feColorMatrix in="SourceAlpha" type="matrix" values="0 0 0 0 0 0 0 0 0 0 0 0 0 0 0 0 0 0 127 0" result="hardAlpha"/>
<feOffset/>
<feGaussianBlur stdDeviation="1"/>
<feComposite in2="hardAlpha" operator="out"/>
<feColorMatrix type="matrix" values="0 0 0 0 0.168627 0 0 0 0 0.223529 0 0 0 0 0.309804 0 0 0 0.16 0"/>
<feBlend mode="normal" in2="effect2_dropShadow_10542_2412" result="effect3_dropShadow_10542_2412"/>
<feBlend mode="normal" in="SourceGraphic" in2="effect3_dropShadow_10542_2412" result="shape"/>
</filter>
<clipPath id="clip0_10542_2412">
<rect width="72" height="56" fill="white"/>
</clipPath>
<clipPath id="clip1_10542_2412">
<path d="M10 26C10 23.7909 11.7909 22 14 22V22C16.2091 22 18 23.7909 18 26V26C18 28.2091 16.2091 30 14 30V30C11.7909 30 10 28.2091 10 26V26Z" fill="white"/>
</clipPath>
<clipPath id="clip2_10542_2412">
<path d="M10 42C10 39.7909 11.7909 38 14 38V38C16.2091 38 18 39.7909 18 42V42C18 44.2091 16.2091 46 14 46V46C11.7909 46 10 44.2091 10 42V42Z" fill="white"/>
</clipPath>
<clipPath id="clip3_10542_2412">
<path d="M10 10C10 7.79086 11.7909 6 14 6V6C16.2091 6 18 7.79086 18 10V10C18 12.2091 16.2091 14 14 14V14C11.7909 14 10 12.2091 10 10V10Z" fill="white"/>
</clipPath>
</defs>
</svg>
