<svg width="68" height="56" viewBox="0 0 68 56" fill="none" xmlns="http://www.w3.org/2000/svg">
<g clip-path="url(#clip0_10542_2414)">
<rect width="68" height="56" fill="#D9E8FF"/>
<g filter="url(#filter0_ddd_10542_2414)">
<rect x="23" y="6" width="36" height="44" rx="2" fill="white"/>
</g>
<path d="M28 11.5C28 11.2239 28.2239 11 28.5 11H53.5C53.7761 11 54 11.2239 54 11.5V14.5C54 14.7761 53.7761 15 53.5 15H28.5C28.2239 15 28 14.7761 28 14.5V11.5Z" fill="#E3E8F2"/>
<path d="M28 18.5C28 18.2239 28.2239 18 28.5 18H46.5C46.7761 18 47 18.2239 47 18.5V21.5C47 21.7761 46.7761 22 46.5 22H28.5C28.2239 22 28 21.7761 28 21.5V18.5Z" fill="#E3E8F2"/>
<path d="M6 16.5C6 16.2239 6.22386 16 6.5 16H17.5C17.7761 16 18 16.2239 18 16.5V17.5C18 17.7761 17.7761 18 17.5 18H6.5C6.22386 18 6 17.7761 6 17.5V16.5Z" fill="#61A2FF"/>
<path d="M6 32.5C6 32.2239 6.22386 32 6.5 32H17.5C17.7761 32 18 32.2239 18 32.5V33.5C18 33.7761 17.7761 34 17.5 34H6.5C6.22386 34 6 33.7761 6 33.5V32.5Z" fill="#61A2FF"/>
<path d="M6 48.5C6 48.2239 6.22386 48 6.5 48H17.5C17.7761 48 18 48.2239 18 48.5V49.5C18 49.7761 17.7761 50 17.5 50H6.5C6.22386 50 6 49.7761 6 49.5V48.5Z" fill="#61A2FF"/>
<g clip-path="url(#clip1_10542_2414)">
<path d="M8 10C8 7.79086 9.79086 6 12 6V6C14.2091 6 16 7.79086 16 10V10C16 12.2091 14.2091 14 12 14V14C9.79086 14 8 12.2091 8 10V10Z" fill="#61A2FF"/>
<rect x="11" y="4" width="8" height="8" rx="4" fill="#A3CBFF"/>
</g>
<g clip-path="url(#clip2_10542_2414)">
<path d="M8 26C8 23.7909 9.79086 22 12 22V22C14.2091 22 16 23.7909 16 26V26C16 28.2091 14.2091 30 12 30V30C9.79086 30 8 28.2091 8 26V26Z" fill="#61A2FF"/>
<rect x="11" y="20" width="8" height="8" rx="4" fill="#A3CBFF"/>
</g>
<g clip-path="url(#clip3_10542_2414)">
<path d="M8 42C8 39.7909 9.79086 38 12 38V38C14.2091 38 16 39.7909 16 42V42C16 44.2091 14.2091 46 12 46V46C9.79086 46 8 44.2091 8 42V42Z" fill="#61A2FF"/>
<rect x="11" y="36" width="8" height="8" rx="4" fill="#A3CBFF"/>
</g>
</g>
<defs>
<filter id="filter0_ddd_10542_2414" x="15" y="0" width="52" height="60" filterUnits="userSpaceOnUse" color-interpolation-filters="sRGB">
<feFlood flood-opacity="0" result="BackgroundImageFix"/>
<feColorMatrix in="SourceAlpha" type="matrix" values="0 0 0 0 0 0 0 0 0 0 0 0 0 0 0 0 0 0 127 0" result="hardAlpha"/>
<feOffset dy="2"/>
<feGaussianBlur stdDeviation="4"/>
<feComposite in2="hardAlpha" operator="out"/>
<feColorMatrix type="matrix" values="0 0 0 0 0.168627 0 0 0 0 0.223529 0 0 0 0 0.309804 0 0 0 0.05 0"/>
<feBlend mode="normal" in2="BackgroundImageFix" result="effect1_dropShadow_10542_2414"/>
<feColorMatrix in="SourceAlpha" type="matrix" values="0 0 0 0 0 0 0 0 0 0 0 0 0 0 0 0 0 0 127 0" result="hardAlpha"/>
<feOffset dy="1"/>
<feGaussianBlur stdDeviation="2"/>
<feComposite in2="hardAlpha" operator="out"/>
<feColorMatrix type="matrix" values="0 0 0 0 0.168627 0 0 0 0 0.223529 0 0 0 0 0.309804 0 0 0 0.06 0"/>
<feBlend mode="normal" in2="effect1_dropShadow_10542_2414" result="effect2_dropShadow_10542_2414"/>
<feColorMatrix in="SourceAlpha" type="matrix" values="0 0 0 0 0 0 0 0 0 0 0 0 0 0 0 0 0 0 127 0" result="hardAlpha"/>
<feOffset/>
<feGaussianBlur stdDeviation="1"/>
<feComposite in2="hardAlpha" operator="out"/>
<feColorMatrix type="matrix" values="0 0 0 0 0.168627 0 0 0 0 0.223529 0 0 0 0 0.309804 0 0 0 0.16 0"/>
<feBlend mode="normal" in2="effect2_dropShadow_10542_2414" result="effect3_dropShadow_10542_2414"/>
<feBlend mode="normal" in="SourceGraphic" in2="effect3_dropShadow_10542_2414" result="shape"/>
</filter>
<clipPath id="clip0_10542_2414">
<rect width="68" height="56" fill="white"/>
</clipPath>
<clipPath id="clip1_10542_2414">
<path d="M8 10C8 7.79086 9.79086 6 12 6V6C14.2091 6 16 7.79086 16 10V10C16 12.2091 14.2091 14 12 14V14C9.79086 14 8 12.2091 8 10V10Z" fill="white"/>
</clipPath>
<clipPath id="clip2_10542_2414">
<path d="M8 26C8 23.7909 9.79086 22 12 22V22C14.2091 22 16 23.7909 16 26V26C16 28.2091 14.2091 30 12 30V30C9.79086 30 8 28.2091 8 26V26Z" fill="white"/>
</clipPath>
<clipPath id="clip3_10542_2414">
<path d="M8 42C8 39.7909 9.79086 38 12 38V38C14.2091 38 16 39.7909 16 42V42C16 44.2091 14.2091 46 12 46V46C9.79086 46 8 44.2091 8 42V42Z" fill="white"/>
</clipPath>
</defs>
</svg>
