<svg width="128" height="128" viewBox="0 0 128 128" fill="none" xmlns="http://www.w3.org/2000/svg">
<path d="M105.21 59.73L63.69 42.15L22.16 59.73L63.69 78.38L105.21 59.73Z" fill="#153385" stroke="#101C3F" stroke-linejoin="round"/>
<path d="M63.6901 42.15L49.4201 31.37L7.81006 48.77L22.1601 59.73L63.6901 42.15Z" fill="white" stroke="#101C3F" stroke-linejoin="round"/>
<path d="M7.81006 49.7V48.77L22.1601 59.73V60.76L7.81006 49.7Z" fill="#101C3F" stroke="#101C3F" stroke-linejoin="round"/>
<path d="M63.6899 42.15L77.9499 31.37L119.56 48.77L105.21 59.73L63.6899 42.15Z" fill="white" stroke="#101C3F" stroke-linejoin="round"/>
<path d="M42.03 66.5C40.67 66.09 40.77 64.79 40.77 64.79L46.5 55.37L56.94 42.38L58.99 44.67L64.57 41.46L61.57 33.39L64.38 37.35L66.8 45.01L61.15 48.4C60.66 50.92 58.92 57.2 53.24 61.84L54.76 62.57L61.22 54.47L63.84 57.94L56.97 65.73L51.87 63.11L51.75 62.95C51.23 63.3 50.69 63.65 50.12 63.97C48.42 64.93 47.03 65.57 45.89 65.98L43.97 71.58L34.68 71.76L31.79 68.21L41.33 68.44L42.04 66.5H42.03Z" fill="#101C3F" stroke="#101C3F" stroke-linejoin="round"/>
<path d="M51.5701 26.61L54.2601 30.68L53.5501 34.63L50.4301 33.02L51.5701 26.61Z" fill="#101C3F" stroke="#101C3F" stroke-linejoin="round"/>
<path d="M22.0901 61.43L29.9301 57.64L33.4201 61L33.0501 61.17L34.2501 61.79L33.1801 63.88L32.4101 63.84C32.4101 63.84 31.5401 63.36 30.5501 62.28L24.5301 64.97L22.1001 61.43H22.0901Z" fill="#101C3F" stroke="#101C3F" stroke-linejoin="round"/>
<path d="M39.4 46.8301C34.61 52.0701 37.22 56.0201 37.22 56.0201L27.91 52.2501L40.01 36.3101L50.99 41.3801L50.04 45.3501C50.04 45.3501 44.19 41.6001 39.4 46.8301Z" fill="#101C3F" stroke="#101C3F" stroke-linejoin="round"/>
<path d="M25.2401 49.5L19.0601 53.37L22.0901 61.43L28.4301 58.79C29.5701 60.21 30.9801 61.43 32.6101 62.42L31.7801 68.21L41.3201 68.44L43.1501 63.46C45.4001 62.78 47.6201 61.63 49.6401 60.13L54.7501 62.57L61.2101 54.47L57.0801 50.54C57.7601 48.71 58.0901 46.91 58.1001 45.18L64.5701 41.46L61.5701 33.39L54.8301 36C53.6801 34.59 52.2601 33.37 50.6301 32.4L51.5801 26.62L41.9601 26.4L40.4501 31.43C38.0301 32.14 35.6101 33.4 33.4401 35.06L28.8101 32.68L22.2701 40.55L26.3701 44.09C25.6401 45.94 25.2901 47.76 25.2501 49.51L25.2401 49.5ZM37.2801 42.76C40.7301 39.97 45.3801 40 47.6601 42.82C49.9401 45.64 48.9901 50.19 45.5401 52.98C42.0901 55.77 37.4401 55.74 35.1601 52.92C32.8801 50.1 33.8301 45.55 37.2801 42.76Z" fill="#48EFCF" stroke="#101C3F" stroke-linejoin="round"/>
<path d="M119.56 49.7V48.77L105.21 59.73V60.76L119.56 49.7Z" fill="#101C3F" stroke="#101C3F" stroke-linejoin="round"/>
<path d="M80.5805 47.0349L78.8964 45.9561C77.6175 45.137 75.9166 45.5097 75.0975 46.7886L62.6922 66.1564C61.873 67.4353 62.2457 69.1361 63.5247 69.9553L65.2088 71.034C66.4878 71.8532 68.1886 71.4805 69.0078 70.2015L81.413 50.8338C82.2322 49.5549 81.8595 47.854 80.5805 47.0349Z" fill="#101C3F" stroke="#101C3F" stroke-linejoin="round"/>
<path d="M92.64 14.88C85.58 12.97 79.48 16.22 76.46 21.32C86.02 12 102.97 20.5 102.53 33.52C102.46 35.64 101.89 37.64 100.95 39.4C103.15 37.17 104.57 34.08 104.6 30.14C104.66 23.04 99.42 16.71 92.65 14.88H92.64Z" fill="#101C3F" stroke="#101C3F" stroke-linejoin="round"/>
<path d="M76.83 13.09C61.32 24.33 72.17 47.46 89.27 48.64C99.64 49.36 109.16 41.62 109.54 30.99C110.07 14.77 90.26 3.36002 76.83 13.08V13.09ZM104.58 30.52C104.34 37.47 98.84 43.03 92 43.76C79.03 45.14 68.27 28.87 78.12 18.64C87.63 8.76002 105.04 17.33 104.59 30.53L104.58 30.52Z" fill="#48EFCF" stroke="#101C3F" stroke-linejoin="round"/>
<path d="M89.27 48.64C75.98 47.72 66.47 33.54 70.17 22C66.66 27.83 66.23 35.5 71.08 42.41C79.74 54.75 99.99 54.1 105.86 41.22C102.08 46.15 95.85 49.1 89.27 48.64Z" fill="#101C3F" stroke="#101C3F" stroke-linejoin="round"/>
<path d="M79.4872 46.3237L77.803 45.245C76.5241 44.4258 74.8232 44.7985 74.0041 46.0774L61.5988 65.4452C60.7796 66.7241 61.1524 68.425 62.4313 69.2441L64.1154 70.3228C65.3944 71.142 67.0952 70.7693 67.9144 69.4904L80.3196 50.1226C81.1388 48.8437 80.7661 47.1428 79.4872 46.3237Z" fill="#48EFCF" stroke="#101C3F" stroke-linejoin="round"/>
<path d="M63.6899 78.38V118.36L105.21 99.93V59.73L63.6899 78.38Z" fill="#0B64DD" stroke="#101C3F" stroke-linejoin="round"/>
<path d="M63.6899 78.38L79.8499 79.97L119.87 62.02L105.21 59.73L63.6899 78.38Z" fill="white" stroke="#101C3F" stroke-linejoin="round"/>
<path d="M63.6899 79.15V78.38L79.8499 79.97L119.87 62.02V62.81L80.0299 80.8L63.6899 79.15Z" fill="#153385" stroke="#101C3F" stroke-linejoin="round"/>
<path d="M63.69 78.38V118.36L22.16 99.93V59.73L63.69 78.38Z" fill="#0B64DD" stroke="#101C3F" stroke-linejoin="round"/>
<path d="M63.69 78.38L47.52 79.97L7.5 62.02L22.16 59.73L63.69 78.38Z" fill="white" stroke="#101C3F" stroke-linejoin="round"/>
<path d="M63.69 79.15V78.38L47.52 79.97L7.5 62.02V62.81L47.34 80.8L63.69 79.15Z" fill="#101C3F" stroke="#101C3F" stroke-linejoin="round"/>
</svg>
