<svg width="128" height="128" viewBox="0 0 128 128" fill="none" xmlns="http://www.w3.org/2000/svg">
<path d="M121.11 86.1912L74.29 113.881C71.64 115.411 68.36 115.401 65.72 113.851L6.70002 79.0912C4.42002 77.7512 4.44002 74.4512 6.74002 73.1412L53.57 45.7212C56.21 44.2112 59.45 44.2312 62.08 45.7612L121.13 80.2412C123.41 81.5712 123.4 84.8612 121.12 86.1812L121.11 86.1912Z" fill="#153385" stroke="black"/>
<path d="M122.83 83.4912V80.2812H118.96" fill="#101C3F"/>
<path d="M122.83 83.4912V80.2812H118.96" stroke="black"/>
<path d="M8.88 73.1812H5V76.3912" fill="#101C3F"/>
<path d="M8.88 73.1812H5V76.3912" stroke="black"/>
<path d="M121.11 83.3212L72.93 111.801C71.11 112.851 68.87 112.841 67.06 111.781L6.70002 76.2312C4.42002 74.8912 4.44002 71.5912 6.74002 70.2812L54.92 42.0912C56.73 41.0612 58.95 41.0712 60.74 42.1212L121.13 77.3812C123.41 78.7112 123.4 82.0012 121.12 83.3212H121.11Z" fill="#0B64DD" stroke="#101C3F" stroke-miterlimit="10"/>
<path d="M91.17 94.5012L71.02 106.151C70.2 106.621 69.2 106.621 68.39 106.141L41.31 90.2012C40.29 89.6012 40.3 88.1212 41.33 87.5312L61.48 76.0112C62.29 75.5512 63.29 75.5512 64.09 76.0212L91.18 91.8312C92.2 92.4312 92.2 93.9012 91.18 94.5012H91.17Z" fill="#48EFCF" stroke="black" stroke-linecap="round" stroke-linejoin="round"/>
<path d="M94.22 33.2113L41.65 64.6313C40.75 65.1513 39.65 65.1413 38.75 64.6213L10.03 47.0513C8.91002 46.3913 8.92002 44.7613 10.05 44.1113L62.42 13.3813C63.31 12.8713 64.41 12.8713 65.3 13.3913L94.23 30.2713C95.36 30.9313 95.35 32.5513 94.23 33.2113H94.22Z" fill="#48EFCF" stroke="#101C3F" stroke-miterlimit="10"/>
<path d="M122.05 65.8612L100.51 78.3112C99.64 78.8112 98.56 78.8112 97.7 78.3012L68.76 61.2612C67.67 60.6212 67.68 59.0412 68.78 58.4112L90.32 46.1012C91.19 45.6012 92.25 45.6112 93.11 46.1112L122.06 63.0112C123.15 63.6512 123.15 65.2312 122.06 65.8612H122.05Z" fill="white" stroke="#101C3F" stroke-miterlimit="10"/>
<path d="M74.67 59.4412L87.26 59.2712L87.61 63.8212L104.05 60.5012V69.0212L112.52 66.1712" stroke="#0B64DD" stroke-miterlimit="10"/>
<path d="M61.27 18.9512L84.03 32.2412" stroke="#0B64DD" stroke-miterlimit="10"/>
<path d="M55.17 22.6912L69.38 31.1312" stroke="#0B64DD" stroke-miterlimit="10"/>
<path d="M48.98 26.5012L58.8 32.2412" stroke="#0B64DD" stroke-miterlimit="10"/>
<path d="M43.83 30.0413L66.51 43.2813" stroke="#0B64DD" stroke-miterlimit="10"/>
<path d="M37.52 33.7913L57.04 44.9213" stroke="#0B64DD" stroke-miterlimit="10"/>
<path d="M31.52 37.2212L40.54 42.4912" stroke="#0B64DD" stroke-miterlimit="10"/>
<path d="M25.57 41.0713L46.94 53.5513" stroke="#0B64DD" stroke-miterlimit="10"/>
<path d="M19.53 44.9512L29.35 50.6812" stroke="#0B64DD" stroke-miterlimit="10"/>
<path d="M60.69 79.3113L57.9 80.9013L82.45 95.2413L85.25 93.6113L60.69 79.3113Z" fill="#0B64DD"/>
<mask id="mask0_206_20" style="mask-type:luminance" maskUnits="userSpaceOnUse" x="57" y="79" width="29" height="17">
<path d="M60.69 79.3113L57.9 80.9013L82.45 95.2413L85.25 93.6113L60.69 79.3113Z" fill="white"/>
</mask>
<g mask="url(#mask0_206_20)">
<path d="M84.35 92.2612L80.2 94.9412L82.5 96.5612L86.32 93.6412L84.35 92.2612Z" fill="white"/>
</g>
<path d="M55.2 82.5813L52.41 84.1713L69.75 94.3213L72.69 92.6013L55.2 82.5813Z" fill="#0B64DD"/>
<mask id="mask1_206_20" style="mask-type:luminance" maskUnits="userSpaceOnUse" x="52" y="82" width="21" height="13">
<path d="M55.2 82.5813L52.41 84.1713L69.75 94.3213L72.69 92.6013L55.2 82.5813Z" fill="white"/>
</mask>
<g mask="url(#mask1_206_20)">
<path d="M69.32 90.0713L65.02 92.7613L70.41 96.3013L74.51 92.9713L69.32 90.0713Z" fill="white"/>
</g>
<path d="M49.91 85.7913L47.08 87.2713L65.04 97.8313L67.73 96.3613L49.91 85.7913Z" fill="#0B64DD"/>
<mask id="mask2_206_20" style="mask-type:luminance" maskUnits="userSpaceOnUse" x="47" y="85" width="21" height="13">
<path d="M49.91 85.7913L47.08 87.2713L65.04 97.8313L67.73 96.3613L49.91 85.7913Z" fill="white"/>
</mask>
<g mask="url(#mask2_206_20)">
<path d="M61.17 91.7512L57.53 93.8712L65.26 98.5612L70.75 95.8312L61.17 91.7512Z" fill="white"/>
</g>
</svg>
