<svg xmlns="http://www.w3.org/2000/svg" width="100" height="100" fill="none"><path fill="#1a1919" fill-rule="evenodd" d="M49.995 1C22.39 1 0 23.386 0 51.002c0 22.09 14.325 40.83 34.194 47.441 2.501.46 3.413-1.083 3.413-2.41 0-1.187-.043-4.33-.067-8.502-13.908 3.02-16.843-6.703-16.843-6.703-2.274-5.777-5.552-7.315-5.552-7.315-4.54-3.1.343-3.039.343-3.039 5.02.353 7.659 5.154 7.659 5.154 4.46 7.64 11.704 5.433 14.552 4.153.454-3.23 1.747-5.433 3.174-6.682-11.102-1.262-22.775-5.553-22.775-24.713 0-5.457 1.949-9.923 5.147-13.416-.516-1.265-2.231-6.351.491-13.233 0 0 4.196-1.344 13.748 5.126 3.988-1.11 8.266-1.663 12.518-1.685 4.248.022 8.523.574 12.517 1.685 9.546-6.47 13.736-5.126 13.736-5.126 2.728 6.882 1.013 11.968.5 13.233 3.205 3.493 5.138 7.959 5.138 13.416 0 19.209-11.691 23.436-22.827 24.673 1.792 1.544 3.391 4.595 3.391 9.257 0 6.686-.061 12.079-.061 13.718 0 1.338.902 2.894 3.438 2.406C85.687 91.813 100 73.086 100 51.002 100 23.386 77.611 1 49.995 1" clip-rule="evenodd"/></svg>