<svg xmlns="http://www.w3.org/2000/svg" width="25" height="24" fill="none"><g clip-path="url(#a)"><path fill="url(#b)" d="M17.219.136c-.374.219-1 .85-1.746 1.76v.056l.653 1.21.033.023c.481-.687.967-1.308 1.462-1.835q.056-.062.056-.061c-.02.019-.038.042-.056.06-.16.178-.645.738-1.373 1.859l.084.019s1.704-.168 2.526-.309l.047-.042c.261-1.466-.257-2.138-.257-2.138s-.654-1.055-1.429-.602"/><path fill="url(#c)" d="M14.143 6.523c.21-.387.42-.77.63-1.14q.33-.575.672-1.115a.3.3 0 0 0 .038-.065q.335-.53.677-1.018l-.687-1.294q-.076.092-.154.192-.295.37-.611.789a38.831 38.831 0 0 0-1.42 2.031c-.196.303-.397.612-.593.934-.01.014-.014.023-.023.037v.051l.854 1.695.038.014c.191-.373.383-.747.579-1.11"/><path fill="url(#d)" d="M10.421 14.82c.154-.401.318-.807.481-1.218.159-.393.318-.79.486-1.186.163-.397.336-.794.508-1.196q.265-.61.537-1.214.273-.595.552-1.186c.065-.14.135-.284.205-.424q.178-.366.355-.724c.004-.014.014-.024.018-.038l-.891-1.76-.042.07c-.206.341-.416.687-.617 1.041a41 41 0 0 0-1.088 2.036l-.093.192c-.196.401-.369.784-.528 1.158q-.266.63-.476 1.204c-.093.252-.173.49-.252.724-.06.196-.122.397-.178.593q-.201.699-.34 1.396l.014.056.854 1.7.028.014c.117-.318.238-.635.364-.962.033-.094.07-.182.103-.276"/><path fill="url(#e)" d="M9.048 14.349q-.169.849-.233 1.69c0 .019-.005.037-.005.06-.28-.447-1.027-.882-1.027-.882.537.775.943 1.546 1.004 2.302-.285.06-.677-.028-1.135-.191.472.434.827.555.967.588-.435.028-.888.327-1.345.668.668-.271 1.205-.378 1.592-.294a137 137 0 0 0-1.84 5.673.54.54 0 0 0 .365-.355c.107-.369.835-2.778 1.97-5.949l.098-.27.028-.075q.18-.5.374-1.018c.028-.08.06-.159.088-.238v-.005l-.892-1.765q0 .034-.009.06"/><path fill="url(#f)" d="M16.248 3.213q-.3.46-.658 1.055c-.014.019-.023.042-.037.06a46.655 46.655 0 0 0-1.265 2.288c-.188.36-.379.738-.575 1.144l.042.02 2.171-.234.051-.038c.659-.303.953-.579 1.238-.976.075-.107.154-.224.229-.34.233-.365.462-.761.663-1.158.196-.383.369-.766.504-1.107a4.946 4.946 0 0 0 .299-1.046c-.878.154-1.957.299-2.662.332"/><path fill="url(#g)" d="m13.628 7.943-.233.485c-.084.178-.173.364-.257.551-.042.094-.089.192-.13.285-.136.29-.267.588-.407.897a80 80 0 0 0-1.018 2.395q-.245.597-.49 1.228c-.15.378-.299.76-.448 1.162-.01.02-.014.038-.024.056-.15.397-.295.801-.449 1.217-.005.009-.013.033-.018.043l.033.007.649-.07.037-.015c-.014-.005-.023-.024-.037-.028.86-.108 2.003-.752 2.746-1.546.34-.364.648-.798.938-1.302.215-.379.41-.794.602-1.256q.251-.604.481-1.312a2.6 2.6 0 0 1-.672.233q-.065.015-.135.028c-.047.01-.094.014-.136.023.803-.308 1.307-.905 1.676-1.634a2.9 2.9 0 0 1-1.139.458q-.021.002-.042.004c.28-.116.514-.247.72-.401a2.4 2.4 0 0 0 .303-.271q.053-.055.107-.117.12-.14.224-.308c.023-.033.042-.07.066-.103q.04-.076.074-.154.167-.336.271-.602c.037-.089.065-.168.093-.248.01-.028.02-.06.033-.088a4 4 0 0 0 .07-.23c.028-.097.042-.177.052-.233a1 1 0 0 1-.094.066c-.243.145-.658.275-.994.336l.663-.075-.663.075c-.047.01-.08.014-.117.023q.004-.005-2.247.238c-.009.01-.064.127-.088.183"/><path fill="url(#h)" d="M10.084 16.436c-.116.322-.238.654-.355.99q-.002.008-.004.014c-.019.046-.033.093-.052.145-.079.228-.149.43-.308.896.262.121.472.434.673.794a1.4 1.4 0 0 0-.467-.985c1.293.056 2.409-.271 2.983-1.214q.078-.126.14-.267c-.261.332-.588.472-1.195.44h-.005.005c.901-.402 1.35-.79 1.751-1.43.093-.154.187-.317.28-.499-.789.808-1.7 1.037-2.657.864l-.719.08a3 3 0 0 0-.07.172"/></g><defs><linearGradient id="b" x1="16.241" x2="20.352" y1="2.07" y2=".432" gradientUnits="userSpaceOnUse"><stop stop-color="#F69923"/><stop offset=".312" stop-color="#F79A23"/><stop offset=".838" stop-color="#E97826"/></linearGradient><linearGradient id="c" x1="5.08" x2="16.648" y1="12.064" y2="8.689" gradientUnits="userSpaceOnUse"><stop offset=".323" stop-color="#9E2064"/><stop offset=".63" stop-color="#C92037"/><stop offset=".751" stop-color="#CD2335"/><stop offset="1" stop-color="#E97826"/></linearGradient><linearGradient id="d" x1="5.451" x2="15.928" y1="13.367" y2="12.505" gradientUnits="userSpaceOnUse"><stop offset=".323" stop-color="#9E2064"/><stop offset=".63" stop-color="#C92037"/><stop offset=".751" stop-color="#CD2335"/><stop offset="1" stop-color="#E97826"/></linearGradient><linearGradient id="e" x1="6.491" x2="11.866" y1="19.367" y2="19.271" gradientUnits="userSpaceOnUse"><stop stop-color="#282662"/><stop offset=".095" stop-color="#662E8D"/><stop offset=".788" stop-color="#9F2064"/><stop offset=".949" stop-color="#CD2032"/></linearGradient><linearGradient id="f" x1="8.012" x2="16.18" y1="25.594" y2="3.395" gradientUnits="userSpaceOnUse"><stop offset=".323" stop-color="#9E2064"/><stop offset=".63" stop-color="#C92037"/><stop offset=".751" stop-color="#CD2335"/><stop offset="1" stop-color="#E97826"/></linearGradient><linearGradient id="g" x1="7.708" x2="20.448" y1="19.068" y2="9.717" gradientUnits="userSpaceOnUse"><stop offset=".323" stop-color="#9E2064"/><stop offset=".63" stop-color="#C92037"/><stop offset=".751" stop-color="#CD2335"/><stop offset="1" stop-color="#E97826"/></linearGradient><linearGradient id="h" x1="8.796" x2="13.803" y1="22.936" y2="9.727" gradientUnits="userSpaceOnUse"><stop stop-color="#282662"/><stop offset=".095" stop-color="#662E8D"/><stop offset=".788" stop-color="#9F2064"/><stop offset=".949" stop-color="#CD2032"/></linearGradient><clipPath id="a"><path fill="#fff" d="M.998 0h24v24h-24z"/></clipPath></defs></svg>