<svg xmlns="http://www.w3.org/2000/svg" width="25" height="24" fill="none"><g clip-path="url(#a)"><path fill="#252F3E" d="M7.762 10.409q.002.44.088.702c.063.174.143.363.255.568a.34.34 0 0 1 .056.181c0 .08-.048.158-.152.237l-.503.331a.4.4 0 0 1-.207.071c-.08 0-.16-.04-.24-.11a2.4 2.4 0 0 1-.287-.37 6 6 0 0 1-.247-.466Q5.59 12.64 4.178 12.64c-.67 0-1.205-.189-1.596-.568q-.588-.567-.59-1.514c0-.67.239-1.215.726-1.625.486-.41 1.133-.615 1.955-.615.271 0 .55.023.846.063s.599.102.918.173V7.98c0-.6-.128-1.017-.375-1.262q-.382-.364-1.301-.362c-.28 0-.567.031-.862.102a6.4 6.4 0 0 0-.862.268 2 2 0 0 1-.28.103.5.5 0 0 1-.127.023c-.112 0-.168-.078-.168-.244V6.22q-.002-.19.056-.276a.6.6 0 0 1 .223-.165 4.6 4.6 0 0 1 1.006-.355c.391-.103.806-.15 1.245-.15.95 0 1.644.213 2.091.639q.662.64.663 1.94v2.556zm-3.24 1.199c.263 0 .534-.047.821-.142a1.8 1.8 0 0 0 .759-.505c.127-.15.223-.315.271-.505a2.8 2.8 0 0 0 .08-.686v-.331a7 7 0 0 0-.734-.134 6 6 0 0 0-.75-.048c-.535 0-.927.103-1.19.316q-.393.318-.391.907-.002.554.295.836.288.294.838.292m6.409.852c-.144 0-.24-.024-.304-.079-.064-.047-.12-.158-.167-.308L8.584 5.976a1.4 1.4 0 0 1-.072-.316c0-.126.064-.197.192-.197h.782q.227-.002.311.079c.064.047.112.158.16.308l1.34 5.222 1.246-5.222q.058-.237.151-.308a.55.55 0 0 1 .32-.079h.638q.226-.002.32.079c.063.047.12.158.151.308l1.261 5.285 1.381-5.285c.048-.158.104-.26.16-.308a.53.53 0 0 1 .31-.079h.743c.128 0 .2.063.2.197 0 .04-.008.08-.016.127s-.024.11-.056.197l-1.924 6.097q-.072.236-.167.308a.5.5 0 0 1-.304.079h-.686c-.152 0-.255-.024-.32-.08-.063-.054-.119-.157-.15-.315l-1.238-5.087-1.23 5.08c-.04.157-.087.26-.15.315-.065.055-.176.079-.32.079zm10.256.213c-.415 0-.83-.047-1.23-.142-.399-.095-.71-.197-.917-.316-.128-.07-.216-.15-.248-.22a.6.6 0 0 1-.048-.221v-.403q.002-.246.184-.244.072 0 .144.023c.047.016.12.048.2.08.27.118.566.212.877.275.32.063.63.095.95.095.503 0 .894-.087 1.165-.26a.85.85 0 0 0 .415-.75.76.76 0 0 0-.215-.552q-.218-.223-.806-.41L20.5 9.273c-.582-.181-1.013-.45-1.277-.804a1.87 1.87 0 0 1-.399-1.144q0-.497.216-.876c.143-.252.335-.473.574-.647.24-.181.511-.315.83-.41.32-.095.655-.134 1.006-.134.176 0 .36.008.535.032.183.023.351.055.519.086q.239.058.455.127.215.07.335.142a.7.7 0 0 1 .24.197q.07.095.071.26v.37c0 .166-.064.253-.183.253a.8.8 0 0 1-.304-.094 3.7 3.7 0 0 0-1.532-.308c-.455 0-.814.07-1.062.22-.247.15-.375.38-.375.703 0 .22.08.41.24.56s.454.3.878.434l1.133.355q.864.272 1.237.757c.247.323.367.694.367 1.104 0 .34-.072.647-.207.915a2.1 2.1 0 0 1-.583.694c-.247.198-.543.34-.886.442-.36.11-.734.166-1.141.166"/><g fill="#F90" fill-rule="evenodd" clip-rule="evenodd"><path d="M22.695 16.507c-2.626 1.917-6.44 2.934-9.721 2.934-4.598 0-8.74-1.68-11.869-4.472-.247-.221-.024-.521.272-.347 3.384 1.94 7.558 3.115 11.876 3.115 2.913 0 6.114-.6 9.06-1.83.438-.197.813.284.382.6"/><path d="M23.789 15.276c-.336-.426-2.22-.205-3.073-.102-.256.031-.296-.19-.064-.355 1.5-1.042 3.967-.742 4.254-.395.287.355-.08 2.793-1.485 3.96-.215.182-.423.087-.327-.15.32-.78 1.03-2.54.694-2.958"/></g></g><defs><clipPath id="a"><path fill="#fff" d="M.998 0h24v24h-24z"/></clipPath></defs></svg>