<svg xmlns="http://www.w3.org/2000/svg" width="25" height="24" fill="none"><g clip-path="url(#a)"><path fill="#DB4437" d="M17.926 22.487h-4.312c.395 0 .74-.212.925-.525L20.391 12l-3.695-6.292h4.311c.369 0 .727.189.924.525l2.773 4.719a2.07 2.07 0 0 1 0 2.098l-4.928 8.388a2.14 2.14 0 0 1-1.849 1.049zm-.532-2.097c0 .29.238.525.532.525a.53.53 0 0 0 .534-.525.53.53 0 0 0-.533-.525.53.53 0 0 0-.534.525m5.195-7.935a.54.54 0 0 0 .728-.192.52.52 0 0 0-.195-.716.54.54 0 0 0-.729.191.52.52 0 0 0 .195.717"/><path fill="#4285F4" d="m19.775 2.562 2.155 3.67a1.07 1.07 0 0 0-.924-.524H9.3L5.605 12 3.45 8.33a1.03 1.03 0 0 1 0-1.049l2.772-4.719A2.14 2.14 0 0 1 8.07 1.514h9.857a2.14 2.14 0 0 1 1.848 1.048M8.603 3.611a.53.53 0 0 0-.532-.525.53.53 0 0 0-.534.525c0 .29.238.525.533.525a.53.53 0 0 0 .533-.525m9.59.454a.52.52 0 0 0 .195-.716.538.538 0 0 0-.976.125.52.52 0 0 0 .053.4.54.54 0 0 0 .728.191"/><path fill="#F4B400" d="M1.294 10.95 3.45 7.282a1.03 1.03 0 0 0 0 1.05l5.85 9.962h7.394l-2.156 3.669c-.184.313-.53.525-.925.525H8.07a2.14 2.14 0 0 1-1.848-1.049l-4.927-8.39a2.07 2.07 0 0 1 0-2.097m2.115.596a.54.54 0 0 0-.73.192.52.52 0 0 0 .196.716.54.54 0 0 0 .728-.192.52.52 0 0 0-.195-.716m4.393 8.39a.52.52 0 0 0-.195.715.538.538 0 0 0 .977-.125.52.52 0 0 0-.378-.643.54.54 0 0 0-.404.052"/><path fill="#000" fill-rule="evenodd" d="m14.54 21.962 2.156-3.67h-2.227l-.854 4.194c.395 0 .74-.21.924-.524m6.467-16.254h-4.312l1.113 1.896 4.123-1.371a1.07 1.07 0 0 0-.924-.525" clip-rule="evenodd" opacity=".1"/><g opacity=".1"><mask id="b" width="4" height="6" x="3" y="7" maskUnits="userSpaceOnUse" style="mask-type:alpha"><path fill="#fff" d="M3.308 7.282h3.411V12H3.308z"/></mask><g mask="url(#b)"><path fill="#000" fill-rule="evenodd" d="M3.45 8.33 5.608 12l1.114-1.895-3.27-2.823a1.03 1.03 0 0 0 0 1.048" clip-rule="evenodd"/></g></g><path fill="#CCC" d="M9.301 18.293 5.605 12l3.696-6.292h7.394L20.391 12l-3.696 6.293zM16.2 12c0-1.738-1.432-3.145-3.2-3.145S9.796 10.262 9.796 12s1.433 3.146 3.201 3.146S16.2 13.737 16.2 12"/></g><defs><clipPath id="a"><path fill="#fff" d="M.998 0h24v24h-24z"/></clipPath></defs></svg>