<svg xmlns="http://www.w3.org/2000/svg" width="20" height="24" fill="none"><g clip-path="url(#a)"><path fill="#FCBF92" d="m.034 13.4 9.948 4.578 9.947-4.579-9.948-.412z"/><path fill="#9D5025" d="M10.012 0 .04 4.974v7.018H12v-11z"/><path fill="#FCBF92" d="M.04 16.94 10.017 24l9.95-7.06-9.972-1.45z"/><g fill="#9D5025"><path d="M10.012 11.992h5.262V4.503l-1.537-.614-3.725 1.086z"/><path d="M13.737 11.993h4.067V7.135l-1.163-.35-2.904.494z"/><path d="M16.64 6.405v5.587h3.288l.039-5.612-.999-.399z"/></g><path fill="#F68534" d="M10.012 0v11.992h1.985v-11zm5.261 4.503-1.536-.614v8.103h1.536zm2.53 2.632-1.162-.35v5.208h1.163zm1.165 4.857h.999V6.38l-.999-.399zm-8.987 2.402v3.584l9.947-2.48V13.4zm0 6.067v3.54l9.985-4.993V16.94z"/><path fill="#9D5025" d="M.039 19.03 9.982 24v-3.565L.039 16.94zm-.005-3.531 9.948 2.48v-3.585L.034 13.4z"/></g><defs><clipPath id="a"><path fill="#fff" d="M.002 0h19.997v24H.002z"/></clipPath></defs></svg>