<svg xmlns="http://www.w3.org/2000/svg" width="25" height="24" fill="none"><g clip-path="url(#a)"><path fill="#326CE5" d="M12.668.002c.266-.013.532.04.772.155l8.346 3.978a1.58 1.58 0 0 1 .862 1.072l2.063 8.94a1.57 1.57 0 0 1-.31 1.338l-5.772 7.17a1.6 1.6 0 0 1-1.247.593l-9.261.002c-.486 0-.945-.219-1.248-.595l-5.775-7.168A1.58 1.58 0 0 1 .79 14.15L2.85 5.209a1.58 1.58 0 0 1 .863-1.073L12.056.158c.191-.092.399-.144.611-.155m.082 3.043c-.276 0-.5.248-.5.554l.002.014c0 .041-.003.091-.002.127.008.177.045.312.068.474.043.348.078.637.056.905a.54.54 0 0 1-.162.258l-.011.21a6.43 6.43 0 0 0-4.167 2l-.18-.127c-.09.012-.18.04-.297-.029-.223-.15-.427-.358-.673-.607-.113-.12-.195-.233-.329-.348-.03-.027-.077-.062-.11-.089a.6.6 0 0 0-.349-.131.48.48 0 0 0-.397.175c-.173.216-.117.545.122.735l.008.006.103.083c.143.105.272.159.414.242.299.185.547.338.743.521.077.081.09.225.1.288l.16.142a6.44 6.44 0 0 0-1.02 4.499l-.208.06c-.055.072-.133.183-.214.217-.258.08-.546.11-.896.146-.163.014-.305.006-.48.039-.037.007-.09.021-.132.031h-.004l-.008.003c-.295.071-.484.341-.423.608.062.266.349.427.645.363h.008l.01-.003c.04-.01.092-.02.128-.03.171-.045.295-.112.448-.17.33-.12.605-.218.87-.256.113-.01.23.068.288.1l.218-.037a6.5 6.5 0 0 0 2.88 3.59l-.09.218c.032.085.068.199.044.282-.098.25-.263.516-.452.81-.092.137-.186.244-.268.4-.02.037-.045.094-.065.134-.127.274-.033.59.213.708.248.12.556-.006.69-.281v-.002c.02-.039.046-.09.063-.127.07-.161.093-.3.144-.457.132-.331.204-.679.386-.895.05-.06.131-.083.215-.105l.113-.205a6.46 6.46 0 0 0 4.61.012l.106.192c.085.028.179.042.255.154.136.233.23.507.342.839.05.156.075.295.146.457.016.036.043.088.061.128.133.275.443.401.69.282.248-.119.342-.435.213-.709-.02-.039-.045-.097-.065-.134-.082-.156-.176-.261-.268-.398-.189-.294-.345-.54-.442-.79-.041-.13.007-.21.037-.295-.018-.022-.059-.144-.082-.2a6.5 6.5 0 0 0 2.878-3.617c.065.01.177.03.214.037.075-.05.144-.114.28-.103.266.039.54.137.87.255.154.059.277.128.448.173.036.01.088.019.13.028l.01.003.007.001c.296.064.583-.098.645-.364.06-.267-.129-.537-.423-.608-.043-.01-.104-.026-.145-.034-.174-.033-.315-.024-.48-.038-.349-.037-.638-.067-.895-.147-.105-.04-.18-.165-.215-.217l-.203-.058a6.4 6.4 0 0 0-.104-2.328 6.5 6.5 0 0 0-.935-2.16c.05-.047.15-.133.177-.158.007-.09 0-.183.094-.282.196-.185.444-.338.742-.522.143-.082.273-.136.416-.241.032-.024.075-.062.11-.089.24-.19.294-.52.122-.735s-.505-.235-.745-.045c-.034.027-.08.063-.11.089-.135.115-.218.229-.33.348-.247.25-.45.458-.674.609-.097.056-.239.037-.303.033l-.19.135a6.55 6.55 0 0 0-4.146-2l-.011-.222c-.065-.063-.144-.116-.164-.25-.021-.268.015-.557.057-.905.023-.162.062-.297.068-.474.002-.04 0-.097 0-.141 0-.306-.224-.554-.5-.554m-.625 3.867-.149 2.616-.01.005a.44.44 0 0 1-.7.337l-.004.002-2.148-1.52a5.15 5.15 0 0 1 3.01-1.44m1.25 0c1.13.14 2.18.645 2.993 1.44l-2.134 1.511-.008-.003a.441.441 0 0 1-.7-.336h-.002zM8.336 9.33l1.961 1.75-.002.011a.44.44 0 0 1-.172.756l-.003.008-2.514.725a5.13 5.13 0 0 1 .73-3.25m8.816 0a5.2 5.2 0 0 1 .752 3.242l-2.528-.728-.001-.01a.44.44 0 0 1-.173-.755l-.001-.006 1.95-1.743m-4.803 1.887h.803l.5.622-.18.779-.721.345-.723-.347-.18-.778.5-.622m2.576 2.133a.4.4 0 0 1 .101.007l.004-.006 2.6.44a5.14 5.14 0 0 1-2.081 2.61l-1.01-2.434.003-.004a.44.44 0 0 1 .383-.613m-4.368.01a.44.44 0 0 1 .397.613l.008.009-.998 2.41a5.17 5.17 0 0 1-2.076-2.593l2.578-.437.005.006a.5.5 0 0 1 .086-.008m2.178 1.055a.44.44 0 0 1 .206.045c.084.04.153.105.197.187h.01l1.27 2.293a5.173 5.173 0 0 1-3.326-.004l1.268-2.287h.002a.44.44 0 0 1 .373-.233"/></g><defs><clipPath id="a"><path fill="#fff" d="M.75 0h24v24h-24z"/></clipPath></defs></svg>