<svg xmlns="http://www.w3.org/2000/svg" width="25" height="24" fill="none"><g fill="#1A1C21" fill-rule="evenodd" clip-path="url(#a)" clip-rule="evenodd"><path d="M7.5 15h9v-1.5h-9zM7.5 11.25h9v-1.5h-9zM7.5 7.5h9V6h-9z"/><path d="M23.25 4.5h-3v-.75c0-.827.673-1.5 1.5-1.5s1.5.673 1.5 1.5zm-6 17.25c-.827 0-1.5-.673-1.5-1.5V18H5.25V3.75c0-.827.673-1.5 1.5-1.5h12.417a2.97 2.97 0 0 0-.417 1.5v16.5c0 .827-.673 1.5-1.5 1.5m-13.5 0c-.827 0-1.5-.673-1.5-1.5v-.75h12v.75c0 .546.146 1.058.403 1.5zm18-21h-15c-1.654 0-3 1.346-3 3V18h-3v2.25c0 1.654 1.346 3 3 3h13.5c1.654 0 3-1.346 3-3V6h4.5V3.75c0-1.654-1.346-3-3-3"/></g><defs><clipPath id="a"><path fill="#fff" d="M.75 0h24v24h-24z"/></clipPath></defs></svg>