<svg width="48" height="46" viewBox="0 0 48 46" fill="none" xmlns="http://www.w3.org/2000/svg">
<g clip-path="url(#clip0_305_179324)">
<path d="M46 0H2C0.89543 0 0 0.89543 0 2V18C0 19.1046 0.89543 20 2 20H46C47.1046 20 48 19.1046 48 18V2C48 0.89543 47.1046 0 46 0Z" fill="#F04E98"/>
<path d="M20 24H2C0.89543 24 0 24.8954 0 26V44C0 45.1046 0.89543 46 2 46H20C21.1046 46 22 45.1046 22 44V26C22 24.8954 21.1046 24 20 24Z" fill="#FEC514"/>
<path d="M45 25H29C27.8954 25 27 25.8954 27 27V43C27 44.1046 27.8954 45 29 45H45C46.1046 45 47 44.1046 47 43V27C47 25.8954 46.1046 25 45 25Z" stroke="#0077CC"/>
</g>
<defs>
<clipPath id="clip0_305_179324">
<rect width="48" height="46" fill="white"/>
</clipPath>
</defs>
</svg>