<svg xmlns="http://www.w3.org/2000/svg" width="32" height="32" viewBox="0 0 32 32" fill="#343741">
  <path d="M24 0c4.4183 0 8 3.58172 8 8 0 2.1217-.8429 4.1566-2.3431 5.6569C28.1566 15.1571 26.1217 16 24 16c-1.8487 0-3.5509-.6271-4.9056-1.6801l-4.7745 4.7745C15.3729 20.4491 16 22.1513 16 24c0 2.1217-.8429 4.1566-2.3431 5.6569C12.1566 31.1571 10.1217 32 8 32c-4.41828 0-8-3.5817-8-8s3.58172-8 8-8c1.84872 0 3.551.6271 4.9057 1.6802l4.7745-4.7745C16.6271 11.551 16 9.84872 16 8c0-4.41828 3.5817-8 8-8zM8 18c-3.31371 0-6 2.6863-6 6s2.68629 6 6 6c3.3137 0 6-2.6863 6-6 0-1.5913-.6321-3.1174-1.7574-4.2426C11.1174 18.6321 9.5913 18 8 18zM24 2c-3.3137 0-6 2.68629-6 6 0 3.3137 2.6863 6 6 6s6-2.6863 6-6c0-1.5913-.6321-3.11742-1.7574-4.24264C27.1174 2.63214 25.5913 2 24 2z"/>
  <path fill="#017D73"  d="M32 20v12H20V20h12zm-2 2h-8v8h8v-8zM12 0v12H0V0h12zm-2 2H2v8h8V2z"/>
</svg>
