<?xml version="1.0" encoding="UTF-8" standalone="no"?>
<svg width="160px" height="110px" xmlns="http://www.w3.org/2000/svg" xmlns:xlink="http://www.w3.org/1999/xlink" version="1.2">
<g transform="translate(80, 77.26666666666665)" data-test-subj="visGauge__meter--Unique Visitors">
    <g data-label="1000 - 1500">
      <path d="M-72.87259210219104,23.677740489548405A76.62277777777777,76.62277777777777 0 1,1 72.87259210219104,23.67774048954838L61.84984707833021,20.096233524742743A65.03277777777777,65.03277777777777 0 1,0 -61.8498470783302,20.096233524742765Z" style="fill: rgb(238, 238, 238);"></path>
      <path d="M-72.87259210219104,23.677740489548405A76.62277777777777,76.62277777777777 0 0,1 45.03773876746119,-61.9891293784373L38.22530769339143,-52.61262241363165A65.03277777777777,65.03277777777777 0 0,0 -61.8498470783302,20.096233524742765Z" style="fill: rgb(126, 178, 109);"></path>
      <text class="chart-label" y="-1" style="fill: #343741; text-anchor: middle; font-size: 1.8em; display: initial; font-family:'Inter';">1,000</text>
    </g>
    <g>
      <path d="M-63.13958538737269,20.51529490433679A66.38888888888889,66.38888888888889 0 0,1 -39.022409804972526,-53.70973934878123L-37.84683930038758,-52.09170536003133A64.38888888888889,64.38888888888889 0 0,0 -61.23747235478238,19.897260915586898Z" style="stroke: rgb(191, 27, 0); fill: rgb(191, 27, 0);"></path>
      <path d="M-39.022409804972526,-53.70973934878123A66.38888888888889,66.38888888888889 0 0,1 39.022409804972504,-53.70973934878124L37.84683930038756,-52.09170536003134A64.38888888888889,64.38888888888889 0 0,0 -37.84683930038758,-52.09170536003133Z" style="stroke: rgb(242, 201, 109); fill: rgb(242, 201, 109);"></path>
      <path d="M39.022409804972504,-53.70973934878124A66.38888888888889,66.38888888888889 0 0,1 63.1395853873727,20.51529490433677L61.23747235478239,19.897260915586877A64.38888888888889,64.38888888888889 0 0,0 37.84683930038756,-52.09170536003134Z" style="stroke: rgb(126, 178, 109); fill: rgb(126, 178, 109);"></path>
      <line x1="-61.23747235478238" x2="-53.629020224421154" y1="19.897260915586898" y2="17.42512496058732" style="stroke-width: 2; stroke: rgb(191, 27, 0);"></line>
      <line x1="-64.26183212490926" x2="-56.27761829748309" y1="-4.043011785248593" y2="-3.540687629014083" style="stroke-width: 2; stroke: rgb(191, 27, 0);"></line>
      <line x1="-58.26080854489536" x2="-51.02219212516721" y1="-27.415455495773287" y2="-24.009221163252707" style="stroke-width: 2; stroke: rgb(191, 27, 0);"></line>
      <line x1="-44.0772275428528" x2="-38.60085069542329" y1="-46.93747995452309" y2="-41.105730935151804" style="stroke-width: 2; stroke: rgb(191, 27, 0);"></line>
      <line x1="-23.70313092008564" x2="-20.75813449860822" y1="-59.867274841360185" y2="-52.42906295425418" style="stroke-width: 2; stroke: rgb(242, 201, 109);"></line>
      <line x1="-1.1828047001764852e-14" x2="-1.0358470842788027e-14" y1="-64.38888888888889" y2="-56.388888888888886" style="stroke-width: 2; stroke: rgb(242, 201, 109);"></line>
      <line x1="23.703130920085616" x2="20.758134498608197" y1="-59.86727484136019" y2="-52.429062954254185" style="stroke-width: 2; stroke: rgb(242, 201, 109);"></line>
      <line x1="44.07722754285275" x2="38.60085069542324" y1="-46.93747995452314" y2="-41.10573093515185" style="stroke-width: 2; stroke: rgb(126, 178, 109);"></line>
      <line x1="58.260808544895355" x2="51.0221921251672" y1="-27.41545549577331" y2="-24.009221163252725" style="stroke-width: 2; stroke: rgb(126, 178, 109);"></line>
      <line x1="64.26183212490926" x2="56.27761829748309" y1="-4.043011785248559" y2="-3.5406876290140534" style="stroke-width: 2; stroke: rgb(126, 178, 109);"></line>
      <line x1="61.23747235478239" x2="53.62902022442116" y1="19.897260915586877" y2="17.425124960587297" style="stroke-width: 2; stroke: rgb(126, 178, 109);"></line>
    </g>
  </g>
</svg>