<svg xmlns="http://www.w3.org/2000/svg" width="16" height="16" viewBox="0 0 16 16" class="euiIcon euiButtonIcon__icon css-e8xmlg-euiIcon-m-inherit" focusable="false" role="img" aria-hidden="true"><path d="M11.994 4c1.059 0 1.924.818 2 1.856l.006.15v1.988a2.005 2.005 0 01-1.856 2L12 10H3.484l1.91 1.82a.52.52 0 010 .77.616.616 0 01-.829 0l-2.05-1.95a1.551 1.551 0 010-2.31l2.05-1.95a.617.617 0 01.83 0 .52.52 0 010 .77L3.45 9H12c.514-.003.935-.39.993-.888L13 7.994V6.006c0-.516-.388-.941-.888-1L11.994 5H9.5a.5.5 0 01-.09-.992L9.5 4h2.494z"></path></svg>