<svg xmlns="http://www.w3.org/2000/svg" xml:space="preserve" id="Layer_1" x="0" y="0" version="1.1" viewBox="0 0 1475 810.26"><style>.st0{fill:#173361}</style><path d="M239.22 629.64h14.13c-5.52 26.37-27.06 44.12-55.84 44.12-33.78 0-61.01-26.2-61.01-60.84s27.23-60.67 61.01-60.67c28.78 0 50.32 17.58 55.84 43.95h-14.13c-4.83-19.13-20.34-31.2-41.71-31.2-26.54 0-47.23 20.51-47.23 47.91s20.68 48.08 47.23 48.08c21.37.02 36.88-12.39 41.71-31.35M393.98 612.92c0-26.54-20.68-47.91-47.22-47.91s-47.23 21.37-47.23 47.91 20.68 47.91 47.23 47.91 47.22-21.37 47.22-47.91m13.78 0c0 33.78-27.23 60.67-61.01 60.67s-61.01-26.89-61.01-60.67 27.23-60.67 61.01-60.67c33.78.01 61.01 26.89 61.01 60.67M533.74 554.32v93.59l-75.32-93.59h-11.03v117.2h13.62v-92.38l74.97 92.38h11.37v-117.2zM596.38 554.32v117.2h13.61v-48.95h59.64v-12.58h-59.64V566.9h66.87v-12.58zM723.9 554.32v117.2h78.25v-12.58h-64.63V554.32zM931.91 621.37c0 31.2-19.99 52.22-50.15 52.22s-50.15-21.03-50.15-52.22v-67.04h13.62v67.04c0 22.92 14.48 39.47 36.54 39.47 21.89 0 36.54-16.55 36.54-39.47v-67.04h13.61v67.04zM979.68 554.32v117.2h82.04v-12.58H993.3v-39.3h61.52v-12.58H993.3V566.9h68.42v-12.58zM1188.78 554.32v93.59l-75.32-93.59h-11.03v117.2h13.62v-92.38l74.97 92.38h11.37v-117.2zM1238.54 554.32v12.58h43.09v104.62h13.61V566.9h43.26v-12.58zM787.06 292.38c-14.54-.45-29.08-.57-43.62-.66-.03-14.55-.11-29.09-.5-43.64l-.69-24.78c-.42-8.26-.67-16.52-1.25-24.78h-7c-.58 8.26-.83 16.52-1.25 24.78l-.69 24.78c-.18 6.8-.29 13.59-.36 20.39-2.67-6.25-5.37-12.49-8.14-18.7l-10.12-22.63c-3.55-7.47-6.94-15.01-10.64-22.42l-6.46 2.68c2.62 7.85 5.56 15.58 8.33 23.37l8.84 23.16c2.44 6.36 4.95 12.7 7.49 19.02-4.87-4.76-9.75-9.52-14.69-14.21l-18.01-17.03c-6.14-5.54-12.15-11.21-18.41-16.64l-4.95 4.95c5.43 6.25 11.1 12.27 16.64 18.41l17.03 18.01c4.69 4.95 9.44 9.82 14.21 14.69-6.32-2.54-12.66-5.05-19.02-7.48l-23.16-8.85c-7.79-2.77-15.52-5.71-23.37-8.33l-2.68 6.47c7.41 3.7 14.95 7.08 22.42 10.64l22.63 10.12c6.21 2.77 12.45 5.47 18.7 8.14-6.8.07-13.59.18-20.39.36l-24.78.69c-8.26.42-16.52.67-24.78 1.25v7c8.26.58 16.52.83 24.78 1.25l24.78.69c14.55.39 29.09.47 43.64.5.09 14.54.21 29.08.66 43.62l.77 24.78c.44 8.26.71 16.52 1.31 24.78h6.35c.6-8.26.87-16.52 1.31-24.78l.77-24.78c.21-6.97.34-13.93.44-20.9 2.76 6.4 5.54 12.78 8.41 19.14l10.19 22.6c3.57 7.46 6.98 14.99 10.7 22.39l5.87-2.43c-2.61-7.86-5.52-15.6-8.27-23.4l-8.77-23.19c-2.47-6.53-5.02-13.03-7.6-19.51 5 4.86 10.02 9.72 15.1 14.5l18.07 16.98c6.15 5.53 12.18 11.18 18.45 16.59l4.49-4.49c-5.41-6.27-11.07-12.3-16.59-18.45l-16.98-18.07c-4.78-5.09-9.64-10.1-14.5-15.11 6.49 2.58 12.98 5.13 19.51 7.6l23.19 8.77c7.8 2.75 15.53 5.66 23.4 8.27l2.43-5.87c-7.4-3.72-14.93-7.13-22.39-10.7l-22.6-10.19c-6.35-2.86-12.74-5.65-19.13-8.4 6.96-.1 13.93-.23 20.89-.44l24.78-.77c8.26-.44 16.52-.71 24.78-1.31v-6.35c-8.26-.6-16.52-.87-24.78-1.31z" class="st0"/><path d="M737.5 136.5c-88.85 0-161.14 72.29-161.14 161.14s72.29 161.14 161.14 161.14 161.14-72.29 161.14-161.14S826.35 136.5 737.5 136.5m0 309.28c-81.68 0-148.14-66.45-148.14-148.14 0-81.68 66.45-148.14 148.14-148.14s148.14 66.45 148.14 148.14-66.46 148.14-148.14 148.14" class="st0"/><path d="M0 0h1475v810.26H0z" style="fill:none"/></svg>