<svg xmlns="http://www.w3.org/2000/svg" xmlns:xlink="http://www.w3.org/1999/xlink" width="54mm" height="54mm" viewBox="0 0 54 54"><defs><linearGradient id="a"><stop offset="0" style="stop-color:#f16442;stop-opacity:1"/><stop offset="1" style="stop-color:#f7991c;stop-opacity:1"/></linearGradient><linearGradient xlink:href="#a" id="b" x1="148.841" x2="201.045" y1="158.984" y2="158.984" gradientTransform="translate(-79.45 -27.207)" gradientUnits="userSpaceOnUse"/></defs><path d="M78.867 148.41c-.78-.108-1.655-.302-1.946-.429-4.168-1.82-5.825-3.4-7.036-6.715-1.543-4.222.652-9.343 4.893-11.418 1.36-.665 1.42-.74 1.57-1.946.28-2.274.625-3.486 1.5-5.263 1.79-3.636 4.12-5.703 8.201-7.275 1.262-.486 6.954-.483 8.202.005 2.835 1.107 5.155 2.544 6.423 3.977.923 1.044 2.573 3.609 2.573 4 0 .171.413.068.992-.248 3.554-1.942 7.414-.572 9.128 3.24.255.567.463 1.37.463 1.784 0 .66.142.796 1.125 1.083 3.5 1.024 6.225 3.58 7.063 6.63.519 1.887.262 5.833-.485 7.442-.75 1.614-2.326 3.332-3.645 3.972-.558.271-1.253.628-1.544.794-.369.21-4.095.322-12.303.369-6.476.037-14.47.096-17.765.132s-6.63-.024-7.409-.133m37.355-2.341c1.723-.81 2.632-1.596 3.379-2.927.57-1.014 1.206-3.819.957-4.22-.08-.13-3.564-.235-7.744-.235h-7.6l-.02 1.476c-.037 2.471-1.533 3.94-4.016 3.94-2.51 0-3.753-1.188-4.008-3.828l-.14-1.455-5.346-.133c-6.053-.15-6.272-.218-5.553-1.726.849-1.78.431-3.18-1.143-3.831-.675-.28-.942-.275-1.532.03-.393.202-.86.546-1.036.765-.472.58-.409 2.218.122 3.142.789 1.375.448 1.472-5.7 1.62l-5.477.133.094 1.058c.233 2.606 2.993 5.44 6.256 6.423 1.73.52 1.956.526 19.844.49l17.198-.035zm-13.408-4.375c.803-.803.91-1.907.28-2.868-.229-.35-.378-.912-.33-1.248l.086-.61 8.802-.07 8.801-.07-.18-.724c-.477-1.929-2.78-4.113-5.195-4.927-.696-.235-1.401-.427-1.567-.427-.57 0-1.268-.878-1.268-1.596 0-.397-.192-1.182-.427-1.745-1.015-2.435-2.192-3.274-4.593-3.274-1.331 0-1.62.104-2.581.926-1.578 1.35-1.9 1.243-2.98-.995-1.119-2.316-3.697-5.008-5.83-6.087-.797-.402-1.538-.73-1.647-.727-.109.002-.198 1.782-.198 3.956v3.952l.921-.15c1.565-.253 3.448.786 4.263 2.353.515.99.47 2.987-.086 3.86a4.64 4.64 0 0 1-3.938 2.173h-1.16v3.44h2.654c2.975 0 3.27.187 2.65 1.692-.65 1.58-.629 2.132.12 3.022.94 1.116 2.37 1.177 3.403.144m-22.64-5.533c-.238-.524-.229-.894.042-1.654.792-2.222 2.057-3.228 4.06-3.228 2.493 0 4.022 1.533 4.022 4.034v1.52l1.918.001 1.919.001v-2.53c0-3.525.329-4.01 2.112-3.12 1.292.644 2.63.246 3.284-.975.477-.892.48-.983.054-1.882-.43-.906-1.328-1.547-2.166-1.547-.217 0-.855.235-1.417.521-1.629.831-1.72.556-1.817-5.424l-.081-5.087-.853-.138c-1.147-.186-3.219.043-4.672.517-3.114 1.017-5.596 3.168-7.005 6.072l-.99 2.037c-.13.265-.248 1.423-.263 2.574-.022 1.657-.13 2.203-.525 2.627-.274.294-.669.534-.877.534-.41 0-1.932.803-3.115 1.643-.807.572-2.3 2.98-2.304 3.715-.002.423.386.463 4.49.463h4.492z" style="fill:url(#b);fill-opacity:1;stroke:none;stroke-width:.265;stroke-miterlimit:4;stroke-dasharray:none;stroke-opacity:1" transform="translate(-68.84 -104.778)"/></svg>