<svg xmlns="http://www.w3.org/2000/svg" xml:space="preserve" width="20" height="20" fill="#fff">&gt;<path d="M20 14V6c0-.3-.2-.6-.4-.8l-4.6-3v-.1c0-1.1-.9-2-2-2s-2 .9-2 2 .9 2 2 2c.3 0 .6-.1.9-.2L18 6.5v6.2l-4-1v-1.5c.6-.3 1-1 1-1.7 0-1.1-.9-2-2-2s-2 .9-2 2c0 .7.4 1.4 1 1.7v2.3c0 .5.3.9.8 1l3.8 1-2.7 1.8q-.45-.3-.9-.3c-1.1 0-2 .9-2 2s.9 2 2 2 2-.9 2-2v-.1l4.6-3 .1-.1c.1 0 .1-.1.1-.2l.1-.1c0-.1.1-.3.1-.5M6.1 3.8c.3.1.6.2.9.2 1.1 0 2-.9 2-2s-.9-2-2-2-2 .9-2 2v.1l-4.6 3c-.2.3-.4.6-.4.9v8.3c0 .1.1.1.1.2 0 0 0 .1.1.1 0 .1.1.1.2.2l4.6 3v.1c0 1.1.9 2 2 2s2-.9 2-2-.9-2-2-2c-.3 0-.6.1-.9.2l-2.9-1.9 4.1-1.4c.4 0 .7-.4.7-.8v-1.8c.6-.3 1-1 1-1.7 0-1.1-.9-2-2-2s-2 .9-2 2c0 .7.4 1.4 1 1.7v1.1l-4 1.3V6.5z"/></svg>