<svg width="128" height="128" viewBox="0 0 128 128" fill="none" xmlns="http://www.w3.org/2000/svg">
<path d="M100.06 16.27C99.02 16.27 97.99 16.35 96.99 16.49C93.75 11.67 88.24 8.5 81.99 8.5C74.1 8.5 67.39 13.57 64.93 20.62C63.7901 20.35 62.61 20.2 61.39 20.2C53.05 20.2 46.3 26.96 46.3 35.29C46.3 36.99 46.58 38.62 47.1 40.14H121.51C121.59 39.38 121.63 38.62 121.63 37.84C121.63 25.92 111.97 16.26 100.05 16.26L100.06 16.27Z" fill="#153385" stroke="#101C3F" stroke-miterlimit="10"/>
<path d="M100.06 19.6899C99.02 19.6899 97.99 19.7699 96.99 19.9099C93.75 15.0899 88.24 11.9199 81.99 11.9199C74.1 11.9199 67.39 16.9899 64.93 24.0399C63.7901 23.7699 62.61 23.6199 61.39 23.6199C53.05 23.6199 46.3 30.3799 46.3 38.7099C46.3 40.4099 46.58 42.0399 47.1 43.5599H121.51C121.59 42.7999 121.63 42.0399 121.63 41.2599C121.63 29.3399 111.97 19.6799 100.05 19.6799L100.06 19.6899Z" fill="white" stroke="#101C3F" stroke-miterlimit="10"/>
<path d="M53.64 34.8299C52.71 34.8299 51.79 34.8999 50.89 35.0299C47.99 30.7199 43.06 27.8799 37.46 27.8799C30.39 27.8799 24.39 32.4199 22.18 38.7299C21.16 38.4899 20.1 38.3499 19.01 38.3499C11.55 38.3499 5.5 44.3999 5.5 51.8599C5.5 53.3799 5.75 54.8399 6.22 56.2099H72.85C72.92 55.5299 72.96 54.8499 72.96 54.1499C72.96 43.4799 64.31 34.8299 53.64 34.8299Z" fill="#153385" stroke="#101C3F" stroke-miterlimit="10"/>
<path d="M53.64 37.8899C52.71 37.8899 51.79 37.9599 50.89 38.0899C47.99 33.7799 43.06 30.9399 37.46 30.9399C30.39 30.9399 24.39 35.4799 22.18 41.7899C21.16 41.5499 20.1 41.4099 19.01 41.4099C11.55 41.4099 5.5 47.4599 5.5 54.9199C5.5 56.4399 5.75 57.8999 6.22 59.2699H72.85C72.92 58.5899 72.96 57.9099 72.96 57.2099C72.96 46.5399 64.31 37.8899 53.64 37.8899Z" fill="white" stroke="#101C3F" stroke-miterlimit="10"/>
<path d="M81.3199 81.01C81.3199 81.01 86.0699 77.42 89.8899 81.01V63.95H81.3199V81.01Z" fill="#153385" stroke="#101C3F" stroke-miterlimit="10"/>
<path d="M93.2499 90.2799C93.2499 90.2799 98.0499 73.9399 93.3899 56.4499C93.0399 55.1399 91.1799 55.1299 90.8299 56.4399C89.3399 61.9899 87.4399 73.3099 89.9599 90.2799H93.2499Z" fill="#0B64DD" stroke="#101C3F" stroke-miterlimit="10"/>
<path d="M91.59 91.5699C92.6117 91.5699 93.44 91.1311 93.44 90.5899C93.44 90.0486 92.6117 89.6099 91.59 89.6099C90.5683 89.6099 89.74 90.0486 89.74 90.5899C89.74 91.1311 90.5683 91.5699 91.59 91.5699Z" fill="#101C3F"/>
<path d="M91.5799 90.3799C92.1099 90.3799 92.5399 90.8099 92.5399 91.3399V91.4899C92.5399 91.5999 92.5199 91.7099 92.4799 91.8199L91.5099 94.4899L90.6699 91.7999C90.6399 91.7099 90.6299 91.6099 90.6299 91.5199V91.3399C90.6299 90.8099 91.0599 90.3799 91.5899 90.3799H91.5799Z" fill="#48EFCF"/>
<path d="M67.0099 11.76C65.1399 14.5 48.2699 44.91 54.1399 91.08L67.0099 89.56H67.1599L80.4899 91.08C86.3599 44.91 69.0299 14.5 67.1599 11.76H67.0099Z" fill="#0B64DD"/>
<path d="M67.0099 11.76C65.1399 14.5 48.2699 44.91 54.1399 91.08L67.0099 89.56H67.1599L80.4899 91.08C86.3599 44.91 69.0299 14.5 67.1599 11.76H67.0099Z" stroke="#101C3F" stroke-miterlimit="10"/>
<path d="M67.31 96.4799C74.5891 96.4799 80.49 94.0623 80.49 91.0799C80.49 88.0976 74.5891 85.6799 67.31 85.6799C60.0309 85.6799 54.13 88.0976 54.13 91.0799C54.13 94.0623 60.0309 96.4799 67.31 96.4799Z" fill="white" stroke="#101C3F" stroke-miterlimit="10"/>
<path d="M67.31 95.61C73.0261 95.61 77.66 94.0743 77.66 92.18C77.66 90.2857 73.0261 88.75 67.31 88.75C61.5938 88.75 56.96 90.2857 56.96 92.18C56.96 94.0743 61.5938 95.61 67.31 95.61Z" fill="#0B64DD"/>
<mask id="mask0_3398_17340" style="mask-type:luminance" maskUnits="userSpaceOnUse" x="56" y="88" width="22" height="8">
<path d="M67.31 95.61C73.0261 95.61 77.66 94.0743 77.66 92.18C77.66 90.2857 73.0261 88.75 67.31 88.75C61.5938 88.75 56.96 90.2857 56.96 92.18C56.96 94.0743 61.5938 95.61 67.31 95.61Z" fill="white"/>
</mask>
<g mask="url(#mask0_3398_17340)">
<path d="M67.31 93.81C73.0261 93.81 77.66 92.2743 77.66 90.38C77.66 88.4856 73.0261 86.95 67.31 86.95C61.5938 86.95 56.96 88.4856 56.96 90.38C56.96 92.2743 61.5938 93.81 67.31 93.81Z" fill="#101C3F" stroke="#101C3F" stroke-miterlimit="10"/>
</g>
<path d="M67.31 95.61C73.0261 95.61 77.66 94.0743 77.66 92.18C77.66 90.2857 73.0261 88.75 67.31 88.75C61.5938 88.75 56.96 90.2857 56.96 92.18C56.96 94.0743 61.5938 95.61 67.31 95.61Z" stroke="#101C3F" stroke-miterlimit="10"/>
<path d="M67.08 48.0601C70.0402 48.0601 72.44 44.8723 72.44 40.9401C72.44 37.0078 70.0402 33.8201 67.08 33.8201C64.1197 33.8201 61.72 37.0078 61.72 40.9401C61.72 44.8723 64.1197 48.0601 67.08 48.0601Z" fill="white"/>
<path d="M67.0499 90.8301C62.7799 90.8301 59.3199 94.2901 59.3199 98.5601V99.8001C59.3199 100.7 59.4799 101.6 59.7899 102.45L67.6699 124.06L74.4399 102.29C74.6699 101.55 74.7899 100.77 74.7899 99.9901V98.5601C74.7899 94.2901 71.3299 90.8301 67.0599 90.8301H67.0499Z" fill="#48EFCF" stroke="#101C3F" stroke-miterlimit="10"/>
<path d="M52.8799 81.08C52.8799 81.08 48.1299 77.49 44.3099 81.08V64.02H52.8799V81.08Z" fill="#153385" stroke="#101C3F" stroke-miterlimit="10"/>
<path d="M40.95 90.36C40.95 90.36 36.15 74.02 40.81 56.53C41.16 55.22 43.02 55.21 43.37 56.52C44.86 62.07 46.76 73.39 44.24 90.36H40.95Z" fill="#0B64DD" stroke="#101C3F" stroke-miterlimit="10"/>
<path d="M42.62 91.6399C43.6583 91.6399 44.5 91.2012 44.5 90.6599C44.5 90.1187 43.6583 89.6799 42.62 89.6799C41.5817 89.6799 40.74 90.1187 40.74 90.6599C40.74 91.2012 41.5817 91.6399 42.62 91.6399Z" fill="#101C3F"/>
<path d="M42.6199 90.45C42.0899 90.45 41.6599 90.88 41.6599 91.41V91.56C41.6599 91.67 41.6799 91.78 41.7199 91.89L42.6899 94.56L43.5299 91.87C43.5599 91.78 43.5699 91.68 43.5699 91.59V91.41C43.5699 90.88 43.1399 90.45 42.6099 90.45H42.6199Z" fill="#48EFCF"/>
</svg>
