<svg xmlns="http://www.w3.org/2000/svg" width="360" height="376" fill="none"><g clip-path="url(#a)"><path fill="#fff" stroke="#CAD3E2" d="M38 346h284a5.5 5.5 0 0 1 5.5 5.5v40a5.5 5.5 0 0 1-5.5 5.5H38a5.5 5.5 0 0 1-5.5-5.5v-40A5.5 5.5 0 0 1 38 346Z"/><path fill="#CAD3E2" d="M86 372a3.5 3.5 0 0 1 3.5-3.5h147a3.5 3.5 0 1 1 0 7h-147A3.5 3.5 0 0 1 86 372m-40-6.5a6 6 0 0 1 6-6h12a6 6 0 0 1 6 6v12a6 6 0 0 1-6 6H52a6 6 0 0 1-6-6z"/><path stroke="#CAD3E2" stroke-dasharray="8 6" d="M38 341a5.5 5.5 0 0 1-2.387-.543l-.217.45a6.02 6.02 0 0 1-2.803-2.803l.45-.217a5.5 5.5 0 0 1-.543-2.387v-3.81H32v-5.714h.5v-7.619H32v-5.714h.5v-7.619H32v-5.714h.5v-3.81c0-.856.195-1.665.543-2.387l-.45-.217a6.02 6.02 0 0 1 2.803-2.803l.217.45A5.5 5.5 0 0 1 38 290h4.057v-.5h6.086v.5h8.114v-.5h6.086v.5h8.114v-.5h6.086v.5h8.114v-.5h6.086v.5h8.114v-.5h6.086v.5h8.114v-.5h6.086v.5h8.114v-.5h6.086v.5h8.114v-.5h6.086v.5h8.114v-.5h6.086v.5h8.114v-.5h6.086v.5h8.114v-.5h6.086v.5h8.114v-.5h6.086v.5h8.114v-.5h6.086v.5h8.114v-.5h6.086v.5h8.114v-.5h6.086v.5h8.114v-.5h6.086v.5h8.114v-.5h6.086v.5h8.114v-.5h6.086v.5h8.114v-.5h6.086v.5h8.114v-.5h6.086v.5H322a5.5 5.5 0 0 1 2.387.543l.217-.45a6.02 6.02 0 0 1 2.803 2.803l-.45.217a5.5 5.5 0 0 1 .543 2.387v3.81h.5v5.714h-.5v7.619h.5v5.714h-.5v7.619h.5v5.714h-.5v3.81a5.5 5.5 0 0 1-.543 2.387l.45.217a6.02 6.02 0 0 1-2.803 2.803l-.217-.45A5.5 5.5 0 0 1 322 341h-4.057v.5h-6.086v-.5h-8.114v.5h-6.086v-.5h-8.114v.5h-6.086v-.5h-8.114v.5h-6.086v-.5h-8.114v.5h-6.086v-.5h-8.114v.5h-6.086v-.5h-8.114v.5h-6.086v-.5h-8.114v.5h-6.086v-.5h-8.114v.5h-6.086v-.5h-8.114v.5h-6.086v-.5h-8.114v.5h-6.086v-.5h-8.114v.5h-6.086v-.5h-8.114v.5h-6.086v-.5h-8.114v.5h-6.086v-.5h-8.114v.5h-6.086v-.5h-8.114v.5h-6.086v-.5h-8.114v.5h-6.086v-.5h-8.114v.5h-6.086v-.5h-8.114v.5h-6.086v-.5h-8.114v.5h-6.086v-.5z"/><path fill="#CAD3E2" d="M86 316a3.5 3.5 0 0 1 3.5-3.5h132a3.5 3.5 0 1 1 0 7h-132A3.5 3.5 0 0 1 86 316" opacity=".7"/><path fill="#516381" d="m53.977 323.706 1.164-1.165c.91.301 1.863.459 2.858.459 3 0 5.61-1.433 7.838-3.88a18.2 18.2 0 0 0 2.552-3.62 18 18 0 0 0-2.552-3.619l-.017-.019 1.062-1.061c2.038 2.214 3.067 4.463 3.087 4.508q.03.069.031.148v.088q0 .078-.031.148c-.04.088-4.031 8.807-11.97 8.807a10.6 10.6 0 0 1-4.022-.794m-4.917-3.569c-2-2.193-3.01-4.4-3.029-4.444a.4.4 0 0 1-.031-.148v-.088a.35.35 0 0 1 .031-.148c.04-.089 4.03-8.809 11.968-8.809 1.444 0 2.756.288 3.938.76l-1.169 1.169A9 9 0 0 0 58 308c-2.998 0-5.608 1.434-7.837 3.881a18 18 0 0 0-2.551 3.62 18 18 0 0 0 2.511 3.574zm9.482-9.482-1.66 1.66a3.4 3.4 0 0 0-2.067 2.068l-1.66 1.66a4.88 4.88 0 0 1 5.387-5.388m4.29 4.196a4.88 4.88 0 0 1-5.481 5.481l1.591-1.591a3.4 3.4 0 0 0 2.299-2.299zM48.78 325.78a.75.75 0 1 1-1.06-1.06l19.5-19.5a.75.75 0 1 1 1.06 1.06z"/><path fill="#E8F1FF" stroke="#0B64DD" stroke-width="2" d="M38 234.5h284a5 5 0 0 1 5 5v40a5 5 0 0 1-5 5H38a5 5 0 0 1-5-5v-40a5 5 0 0 1 5-5Z"/><path fill="#0B64DD" d="M86 259a3.5 3.5 0 0 1 3.5-3.5h108a3.5 3.5 0 1 1 0 7h-108A3.5 3.5 0 0 1 86 259m-40-5.5a6 6 0 0 1 6-6h12a6 6 0 0 1 6 6v12a6 6 0 0 1-6 6H52a6 6 0 0 1-6-6z"/><path fill="#fff" stroke="#CAD3E2" d="M38 178h284a5.5 5.5 0 0 1 5.5 5.5v40a5.5 5.5 0 0 1-5.5 5.5H38a5.5 5.5 0 0 1-5.5-5.5v-40A5.5 5.5 0 0 1 38 178Z"/><path fill="#CAD3E2" d="M46 197.5a6 6 0 0 1 6-6h12a6 6 0 0 1 6 6v12a6 6 0 0 1-6 6H52a6 6 0 0 1-6-6zm40 6.5a3.5 3.5 0 0 1 3.5-3.5h176a3.5 3.5 0 1 1 0 7h-176A3.5 3.5 0 0 1 86 204"/><g filter="url(#b)"><circle cx="209" cy="74.5" r="16" fill="#fff"/></g><path fill="#1D2A3E" fill-rule="evenodd" d="M217.667 67.834h-3.193l-.701 2.91h-12.106l1.587 6.412h8.973l-.398 1.653h-8.377v1.058h9.21l2.645-10.975h2.36zm-11.835 13.554a1.057 1.057 0 1 1-2.115 0 1.057 1.057 0 0 1 2.115 0m5.686 1.058a1.058 1.058 0 1 0 0-2.116 1.058 1.058 0 0 0 0 2.116" clip-rule="evenodd"/><g filter="url(#c)"><rect width="326" height="72" x="17" y="99.5" fill="#1D2A3E" rx="6"/><path fill="#fff" d="m74 149.023-8.698-8.788a14.83 14.83 0 0 0 2.23-7.829 14.96 14.96 0 0 0-3.112-9.16 14.76 14.76 0 0 0-8.042-5.294 14.66 14.66 0 0 0-9.57.813 14.82 14.82 0 0 0-7.05 6.576 15 15 0 0 0-1.546 9.556 14.9 14.9 0 0 0 4.61 8.493 14.7 14.7 0 0 0 8.818 3.838 14.68 14.68 0 0 0 9.294-2.442l8.625 8.714zm-29.677-16.58c0-1.687.496-3.337 1.426-4.739a8.48 8.48 0 0 1 3.797-3.142 8.4 8.4 0 0 1 4.888-.485 8.44 8.44 0 0 1 4.333 2.334 8.55 8.55 0 0 1 2.315 4.367 8.6 8.6 0 0 1-.481 4.929 8.5 8.5 0 0 1-3.117 3.828 8.4 8.4 0 0 1-4.7 1.437 8.43 8.43 0 0 1-5.99-2.516 8.57 8.57 0 0 1-2.471-6.05z"/><path fill="#E8F1FF" d="M225.767 129.5H103.233c-3.442 0-6.233 2.682-6.233 5.991v.018c0 3.309 2.79 5.991 6.233 5.991h122.534c3.442 0 6.233-2.682 6.233-5.991v-.018c0-3.309-2.791-5.991-6.233-5.991"/></g><g filter="url(#d)"><circle cx="85" cy="83.5" r="24" fill="#fff"/></g><path fill="#1D2A3E" d="M84.25 94C81.654 94 76 86.455 76 81.393 76 76.761 79.69 73 84.25 73s8.25 3.76 8.25 8.393C92.5 86.455 86.846 94 84.25 94m0-1.5c.429 0 2.22-1.565 3.688-3.524C89.828 86.453 91 83.728 91 81.393c0-3.81-3.025-6.893-6.75-6.893s-6.75 3.083-6.75 6.893c0 2.335 1.171 5.06 3.062 7.583 1.468 1.959 3.259 3.524 3.688 3.524m0-7.494a3.75 3.75 0 1 1 0-7.5 3.75 3.75 0 0 1 0 7.5m0-1.5a2.25 2.25 0 1 0 0-4.5 2.25 2.25 0 0 0 0 4.5"/><g filter="url(#e)"><circle cx="141" cy="46.5" r="32" fill="#fff"/></g><g fill="#1D2A3E" fill-rule="evenodd" clip-path="url(#f)" clip-rule="evenodd"><path d="M150.377 50.764c2.31 2.444 3.906 5.758 4.366 9.495.144 1.188-.802 2.24-2 2.24h-23.73c-1.198 0-2.144-1.052-1.998-2.24.458-3.737 2.054-7.051 4.364-9.495.494.455 1.01.883 1.564 1.265-2.076 2.138-3.53 5.1-3.944 8.474l23.744-.004c-.408-3.372-1.858-6.332-3.932-8.47.556-.382 1.072-.81 1.566-1.266ZM140.878 30.5c3.8 0 6 4 8.758 5.267-.916 1.053-2.252 1.733-3.758 1.733a4.9 4.9 0 0 1-1.688-.313C142.814 38.89 140.736 40 138.378 40c-2.79 0-7.5.5-6.49-3.806 2.99-1.694 5.016-5.695 8.99-5.695Z"/><path d="M140.877 32.5c4.412 0 8 3.588 8 8s-3.588 8-8 8-8-3.588-8-8 3.588-8 8-8m0 18c5.522 0 10-4.478 10-10s-4.477-10-9.999-10-10.001 4.478-10.001 10 4.478 10 10 10"/></g><g filter="url(#g)"><circle cx="286" cy="62.5" r="24" fill="#fff"/></g><path fill="#1D2A3E" fill-rule="evenodd" d="m281.5 55 4.5 13.5h-1.5L283 64h-4.5l-1.5 4.5h-1.5L280 55zm-.75 2.25 1.75 5.25H279zm11.986 2.47c-.496-.212-1.098-.22-1.486-.22-.538 0-1.534.262-2.447 1.257l-1.105-1.014c1.195-1.302 2.59-1.743 3.552-1.743h.024c.376 0 1.254 0 2.053.342.423.181.852.47 1.173.926.325.46.5 1.039.5 1.732v7.5h-1.5v-.531l-.097.057c-.83.475-1.748.474-2.129.474h-.048c-.376 0-1.254 0-2.053-.342a2.7 2.7 0 0 1-1.173-.926c-.324-.46-.5-1.039-.5-1.732s.176-1.271.5-1.732a2.7 2.7 0 0 1 1.173-.926c.799-.343 1.677-.342 2.053-.342h.024c.386 0 1.035-.004 1.575-.159.268-.076.445-.172.546-.268.079-.075.129-.162.129-.323V61c0-.432-.106-.697-.226-.87a1.23 1.23 0 0 0-.538-.41m.764 3.979q-.134.048-.263.085c-.758.216-1.593.216-1.967.216h-.02c-.388 0-.99.008-1.486.22-.233.1-.413.234-.537.41-.121.173-.227.438-.227.87s.106.697.227.87q.187.261.537.41c.496.212 1.098.22 1.486.22.385 0 .946-.011 1.409-.276.384-.22.841-.695.841-1.974z" clip-rule="evenodd"/><path fill="#0B64DD" d="M291.198 215.5a8 8 0 1 1-16 0 8 8 0 0 1 16 0M269 333.5l1.546-17.251 14.167 9.964zm13.929-114.713a1.5 1.5 0 0 1-2.621-1.46zm-5.617 6.383a1.501 1.501 0 0 1 2.935.622zm2.454 6.199a1.5 1.5 0 1 1-2.999.094zm-1.715 8.285a1.5 1.5 0 1 1 2.901-.762zm4.65 4.831a1.5 1.5 0 1 1-2.83.993zm-.057 8.497a1.5 1.5 0 1 1 2.812-1.047zm4.836 4.636a1.5 1.5 0 1 1-2.845.951zm-.671 8.48a1.5 1.5 0 0 1 2.919-.691zm4.066 5.311a1.501 1.501 0 0 1-2.97.426zm-2.377 8.167a1.5 1.5 0 1 1 3-.027zm2.743 6.112a1.5 1.5 0 1 1-2.987-.275zm-4.183 7.398a1.5 1.5 0 0 1 2.931.64zm1.376 6.561a1.5 1.5 0 1 1-2.868-.877zm-5.501 6.463a1.5 1.5 0 1 1 2.775 1.138zm.306 6.676a1.5 1.5 0 0 1-2.704-1.299zm-6.357 5.677a1.5 1.5 0 0 1 2.612 1.477zm-.469 6.663a1.5 1.5 0 0 1-2.548-1.585zm-6.886 5.018a1.5 1.5 0 1 1 2.468 1.705zm14.912-113.802a33 33 0 0 0-1.51 2.445l-2.621-1.46a36 36 0 0 1 1.648-2.669zm-4.192 9.45a23.2 23.2 0 0 0-.481 5.577l-2.999.094a26.3 26.3 0 0 1 .545-6.293zm.705 13.1c.48 1.825 1.078 3.681 1.749 5.593l-2.83.993c-.687-1.955-1.313-3.892-1.82-5.824zm4.504 13.043c.682 1.833 1.37 3.726 2.024 5.683l-2.845.951a174 174 0 0 0-1.991-5.587zm4.272 13.472a68 68 0 0 1 1.147 6.002l-2.97.426a65 65 0 0 0-1.096-5.737zm1.77 14.142a61 61 0 0 1-.257 6.139l-2.987-.275c.185-2.012.261-3.955.244-5.837zm-1.509 14.177a75 75 0 0 1-1.555 5.921l-2.868-.877a73 73 0 0 0 1.492-5.684zm-4.281 13.522a103 103 0 0 1-2.469 5.538l-2.704-1.299a100 100 0 0 0 2.398-5.377zm-6.214 12.692a145 145 0 0 1-3.081 5.186l-2.548-1.585a140 140 0 0 0 3.017-5.078zM25.331 256.221a8 8 0 0 1 9.948-5.389 8 8 0 0 1 5.39 9.947 8 8 0 1 1-15.337-4.558Zm16.136-44.893L31.203 225.28l-6.951-15.865zm-2.42 2.697a1.5 1.5 0 1 1-1.237-2.733zm-9.1 1.184a1.5 1.5 0 0 1 1.448 2.627zm-4.011 5.925a1.5 1.5 0 1 1-1.663-2.498zm-8.674 3.008a1.5 1.5 0 0 1 2.065 2.177zM15.28 231a1.5 1.5 0 1 1-2.483-1.683zm-5.847 6.998a1.5 1.5 0 0 1 2.984.314zm3.703 6.052a1.5 1.5 0 0 1-2.821 1.02zm2.315 8.749a1.5 1.5 0 1 1 2.102-2.14zm6.98 1.579a1.5 1.5 0 0 1-1.522 2.586zm7.165 5.764a1.5 1.5 0 0 1 .361-2.978zm1.8-42.306a77 77 0 0 0-5.46 3.298l-1.663-2.498a80 80 0 0 1 5.674-3.427l1.448 2.627Zm-12.07 8.483c-1.688 1.602-3.02 3.167-4.046 4.681l-2.483-1.683c1.163-1.716 2.64-3.444 4.465-5.175zm-6.91 11.993c-.212 2.02.07 3.94.72 5.738l-2.821 1.02c-.792-2.19-1.145-4.565-.882-7.072zm5.137 12.347a25.4 25.4 0 0 0 4.878 3.719l-1.522 2.586a28.4 28.4 0 0 1-5.458-4.165zm12.404 6.505c1.1.133 1.985.079 2.63-.106l.825 2.885c-1.15.329-2.466.363-3.816.199z"/></g><defs><filter id="b" width="52" height="52" x="183" y="53" color-interpolation-filters="sRGB" filterUnits="userSpaceOnUse"><feFlood flood-opacity="0" result="BackgroundImageFix"/><feColorMatrix in="SourceAlpha" result="hardAlpha" values="0 0 0 0 0 0 0 0 0 0 0 0 0 0 0 0 0 0 127 0"/><feOffset dy="4.5"/><feGaussianBlur stdDeviation="5"/><feColorMatrix values="0 0 0 0 0 0 0 0 0 0 0 0 0 0 0 0 0 0 0.05 0"/><feBlend in2="BackgroundImageFix" result="effect1_dropShadow_3404_88694"/><feColorMatrix in="SourceAlpha" result="hardAlpha" values="0 0 0 0 0 0 0 0 0 0 0 0 0 0 0 0 0 0 127 0"/><feOffset dy="1.9"/><feGaussianBlur stdDeviation="2"/><feColorMatrix values="0 0 0 0 0 0 0 0 0 0 0 0 0 0 0 0 0 0 0.05 0"/><feBlend in2="effect1_dropShadow_3404_88694" result="effect2_dropShadow_3404_88694"/><feColorMatrix in="SourceAlpha" result="hardAlpha" values="0 0 0 0 0 0 0 0 0 0 0 0 0 0 0 0 0 0 127 0"/><feOffset dy=".7"/><feGaussianBlur stdDeviation=".7"/><feColorMatrix values="0 0 0 0 0 0 0 0 0 0 0 0 0 0 0 0 0 0 0.07 0"/><feBlend in2="effect2_dropShadow_3404_88694" result="effect3_dropShadow_3404_88694"/><feBlend in="SourceGraphic" in2="effect3_dropShadow_3404_88694" result="shape"/></filter><filter id="c" width="346" height="92" x="7" y="94" color-interpolation-filters="sRGB" filterUnits="userSpaceOnUse"><feFlood flood-opacity="0" result="BackgroundImageFix"/><feColorMatrix in="SourceAlpha" result="hardAlpha" values="0 0 0 0 0 0 0 0 0 0 0 0 0 0 0 0 0 0 127 0"/><feOffset dy="4.5"/><feGaussianBlur stdDeviation="5"/><feColorMatrix values="0 0 0 0 0 0 0 0 0 0 0 0 0 0 0 0 0 0 0.05 0"/><feBlend in2="BackgroundImageFix" result="effect1_dropShadow_3404_88694"/><feColorMatrix in="SourceAlpha" result="hardAlpha" values="0 0 0 0 0 0 0 0 0 0 0 0 0 0 0 0 0 0 127 0"/><feOffset dy="1.9"/><feGaussianBlur stdDeviation="2"/><feColorMatrix values="0 0 0 0 0 0 0 0 0 0 0 0 0 0 0 0 0 0 0.05 0"/><feBlend in2="effect1_dropShadow_3404_88694" result="effect2_dropShadow_3404_88694"/><feColorMatrix in="SourceAlpha" result="hardAlpha" values="0 0 0 0 0 0 0 0 0 0 0 0 0 0 0 0 0 0 127 0"/><feOffset dy=".7"/><feGaussianBlur stdDeviation=".7"/><feColorMatrix values="0 0 0 0 0 0 0 0 0 0 0 0 0 0 0 0 0 0 0.07 0"/><feBlend in2="effect2_dropShadow_3404_88694" result="effect3_dropShadow_3404_88694"/><feBlend in="SourceGraphic" in2="effect3_dropShadow_3404_88694" result="shape"/></filter><filter id="d" width="68" height="68" x="51" y="54" color-interpolation-filters="sRGB" filterUnits="userSpaceOnUse"><feFlood flood-opacity="0" result="BackgroundImageFix"/><feColorMatrix in="SourceAlpha" result="hardAlpha" values="0 0 0 0 0 0 0 0 0 0 0 0 0 0 0 0 0 0 127 0"/><feOffset dy="4.5"/><feGaussianBlur stdDeviation="5"/><feColorMatrix values="0 0 0 0 0 0 0 0 0 0 0 0 0 0 0 0 0 0 0.05 0"/><feBlend in2="BackgroundImageFix" result="effect1_dropShadow_3404_88694"/><feColorMatrix in="SourceAlpha" result="hardAlpha" values="0 0 0 0 0 0 0 0 0 0 0 0 0 0 0 0 0 0 127 0"/><feOffset dy="1.9"/><feGaussianBlur stdDeviation="2"/><feColorMatrix values="0 0 0 0 0 0 0 0 0 0 0 0 0 0 0 0 0 0 0.05 0"/><feBlend in2="effect1_dropShadow_3404_88694" result="effect2_dropShadow_3404_88694"/><feColorMatrix in="SourceAlpha" result="hardAlpha" values="0 0 0 0 0 0 0 0 0 0 0 0 0 0 0 0 0 0 127 0"/><feOffset dy=".7"/><feGaussianBlur stdDeviation=".7"/><feColorMatrix values="0 0 0 0 0 0 0 0 0 0 0 0 0 0 0 0 0 0 0.07 0"/><feBlend in2="effect2_dropShadow_3404_88694" result="effect3_dropShadow_3404_88694"/><feBlend in="SourceGraphic" in2="effect3_dropShadow_3404_88694" result="shape"/></filter><filter id="e" width="84" height="84" x="99" y="9" color-interpolation-filters="sRGB" filterUnits="userSpaceOnUse"><feFlood flood-opacity="0" result="BackgroundImageFix"/><feColorMatrix in="SourceAlpha" result="hardAlpha" values="0 0 0 0 0 0 0 0 0 0 0 0 0 0 0 0 0 0 127 0"/><feOffset dy="4.5"/><feGaussianBlur stdDeviation="5"/><feColorMatrix values="0 0 0 0 0 0 0 0 0 0 0 0 0 0 0 0 0 0 0.05 0"/><feBlend in2="BackgroundImageFix" result="effect1_dropShadow_3404_88694"/><feColorMatrix in="SourceAlpha" result="hardAlpha" values="0 0 0 0 0 0 0 0 0 0 0 0 0 0 0 0 0 0 127 0"/><feOffset dy="1.9"/><feGaussianBlur stdDeviation="2"/><feColorMatrix values="0 0 0 0 0 0 0 0 0 0 0 0 0 0 0 0 0 0 0.05 0"/><feBlend in2="effect1_dropShadow_3404_88694" result="effect2_dropShadow_3404_88694"/><feColorMatrix in="SourceAlpha" result="hardAlpha" values="0 0 0 0 0 0 0 0 0 0 0 0 0 0 0 0 0 0 127 0"/><feOffset dy=".7"/><feGaussianBlur stdDeviation=".7"/><feColorMatrix values="0 0 0 0 0 0 0 0 0 0 0 0 0 0 0 0 0 0 0.07 0"/><feBlend in2="effect2_dropShadow_3404_88694" result="effect3_dropShadow_3404_88694"/><feBlend in="SourceGraphic" in2="effect3_dropShadow_3404_88694" result="shape"/></filter><filter id="g" width="68" height="68" x="252" y="33" color-interpolation-filters="sRGB" filterUnits="userSpaceOnUse"><feFlood flood-opacity="0" result="BackgroundImageFix"/><feColorMatrix in="SourceAlpha" result="hardAlpha" values="0 0 0 0 0 0 0 0 0 0 0 0 0 0 0 0 0 0 127 0"/><feOffset dy="4.5"/><feGaussianBlur stdDeviation="5"/><feColorMatrix values="0 0 0 0 0 0 0 0 0 0 0 0 0 0 0 0 0 0 0.05 0"/><feBlend in2="BackgroundImageFix" result="effect1_dropShadow_3404_88694"/><feColorMatrix in="SourceAlpha" result="hardAlpha" values="0 0 0 0 0 0 0 0 0 0 0 0 0 0 0 0 0 0 127 0"/><feOffset dy="1.9"/><feGaussianBlur stdDeviation="2"/><feColorMatrix values="0 0 0 0 0 0 0 0 0 0 0 0 0 0 0 0 0 0 0.05 0"/><feBlend in2="effect1_dropShadow_3404_88694" result="effect2_dropShadow_3404_88694"/><feColorMatrix in="SourceAlpha" result="hardAlpha" values="0 0 0 0 0 0 0 0 0 0 0 0 0 0 0 0 0 0 127 0"/><feOffset dy=".7"/><feGaussianBlur stdDeviation=".7"/><feColorMatrix values="0 0 0 0 0 0 0 0 0 0 0 0 0 0 0 0 0 0 0.07 0"/><feBlend in2="effect2_dropShadow_3404_88694" result="effect3_dropShadow_3404_88694"/><feBlend in="SourceGraphic" in2="effect3_dropShadow_3404_88694" result="shape"/></filter><clipPath id="a"><path fill="#fff" d="M0 .5h360v375H0z"/></clipPath><clipPath id="f"><path fill="#fff" d="M125 30.5h32v32h-32z"/></clipPath></defs></svg>