<svg xmlns="http://www.w3.org/2000/svg" width="360" height="376" fill="none" viewBox="0 0 360 376">
  <g clip-path="url(#a)">
    <path fill="#07101F" stroke="#243147" d="M38.5 345.334h284a5.5 5.5 0 0 1 5.5 5.5v40a5.5 5.5 0 0 1-5.5 5.5h-284a5.5 5.5 0 0 1-5.5-5.5v-40a5.5 5.5 0 0 1 5.5-5.5Z"/>
    <path fill="#243147" d="M86.5 371.334a3.5 3.5 0 0 1 3.5-3.5h147a3.5 3.5 0 1 1 0 7H90a3.5 3.5 0 0 1-3.5-3.5Zm-40-6.5a6 6 0 0 1 6-6h12a6 6 0 0 1 6 6v12a6 6 0 0 1-6 6h-12a6 6 0 0 1-6-6v-12Z"/>
    <path fill="#07101F" stroke="#243147" d="M38.5 177.334h284a5.5 5.5 0 0 1 5.5 5.5v40a5.5 5.5 0 0 1-5.5 5.5h-284a5.5 5.5 0 0 1-5.5-5.5v-40a5.5 5.5 0 0 1 5.5-5.5Z"/>
    <path fill="#243147" d="M46.5 196.834a6 6 0 0 1 6-6h12a6 6 0 0 1 6 6v12a6 6 0 0 1-6 6h-12a6 6 0 0 1-6-6v-12Zm40 6.5a3.5 3.5 0 0 1 3.5-3.5h176a3.5 3.5 0 1 1 0 7H90a3.5 3.5 0 0 1-3.5-3.5Z"/>
    <path fill="#0A2342" stroke="#61A2FF" stroke-width="2" d="M38 234.5h284c1.326 0 2.598.527 3.536 1.464A5.004 5.004 0 0 1 327 239.5v40a5.004 5.004 0 0 1-1.464 3.536A5.004 5.004 0 0 1 322 284.5H38a5.002 5.002 0 0 1-5-5v-40a5.002 5.002 0 0 1 5-5Z"/>
    <path fill="#61A2FF" d="M86 259a3.5 3.5 0 0 1 3.5-3.5h108a3.503 3.503 0 0 1 3.5 3.5 3.502 3.502 0 0 1-3.5 3.5h-108A3.501 3.501 0 0 1 86 259Zm-40-5.5a6.002 6.002 0 0 1 6-6h12a6 6 0 0 1 6 6v12a6.002 6.002 0 0 1-6 6H52a6 6 0 0 1-6-6v-12Z"/>
    <g filter="url(#b)">
      <path fill="#07101F" d="M209 90.5c8.837 0 16-7.163 16-16s-7.163-16-16-16-16 7.163-16 16 7.163 16 16 16Z"/>
    </g>
    <path fill="#CAD3E2" fill-rule="evenodd" d="M217.667 67.834h-3.193l-.701 2.91h-12.106l1.587 6.412h8.973l-.398 1.653h-8.377v1.058h9.21l2.645-10.975h2.36v-1.058Zm-11.835 13.554a1.055 1.055 0 0 1-1.058 1.057 1.056 1.056 0 0 1-1.057-1.057 1.055 1.055 0 0 1 1.057-1.058 1.057 1.057 0 0 1 1.058 1.058Zm5.686 1.058a1.056 1.056 0 0 0 .748-1.806 1.056 1.056 0 0 0-1.496 0 1.056 1.056 0 0 0 0 1.496c.198.199.467.31.748.31Z" clip-rule="evenodd"/>
    <g filter="url(#c)">
      <path fill="#CAD3E2" d="M337 99.5H23a6 6 0 0 0-6 6v60a6 6 0 0 0 6 6h314a6 6 0 0 0 6-6v-60a6 6 0 0 0-6-6Z"/>
      <path fill="#07101F" d="m74 149.023-8.698-8.788a14.822 14.822 0 0 0 2.23-7.829 14.959 14.959 0 0 0-3.112-9.16 14.758 14.758 0 0 0-8.042-5.294 14.661 14.661 0 0 0-9.57.813 14.817 14.817 0 0 0-7.05 6.576 14.99 14.99 0 0 0-1.546 9.556 14.915 14.915 0 0 0 4.61 8.493 14.676 14.676 0 0 0 18.112 1.396l8.625 8.714L74 149.023Zm-29.677-16.58c0-1.687.496-3.337 1.426-4.739a8.478 8.478 0 0 1 3.797-3.142 8.4 8.4 0 0 1 4.888-.485 8.439 8.439 0 0 1 4.333 2.334 8.55 8.55 0 0 1 2.315 4.367 8.595 8.595 0 0 1-.481 4.929 8.514 8.514 0 0 1-3.117 3.828 8.418 8.418 0 0 1-4.7 1.437 8.428 8.428 0 0 1-5.99-2.516 8.572 8.572 0 0 1-2.471-6.05v.037Z"/>
      <path fill="#0A2342" d="M225.767 129.5H103.233c-3.442 0-6.233 2.682-6.233 5.991v.018c0 3.309 2.79 5.991 6.233 5.991h122.534c3.442 0 6.233-2.682 6.233-5.991v-.018c0-3.309-2.791-5.991-6.233-5.991Z"/>
    </g>
    <g filter="url(#d)">
      <path fill="#07101F" d="M85 107.5c13.255 0 24-10.745 24-24s-10.745-24-24-24-24 10.745-24 24 10.745 24 24 24Z"/>
    </g>
    <path fill="#CAD3E2" d="M84.25 94C81.654 94 76 86.455 76 81.393 76 76.761 79.69 73 84.25 73c4.56 0 8.25 3.76 8.25 8.393C92.5 86.455 86.846 94 84.25 94Zm0-1.5c.429 0 2.22-1.565 3.688-3.524C89.828 86.453 91 83.728 91 81.393c0-3.81-3.025-6.893-6.75-6.893s-6.75 3.083-6.75 6.893c0 2.335 1.171 5.06 3.062 7.583 1.468 1.959 3.259 3.524 3.688 3.524Zm0-7.494a3.75 3.75 0 1 1 0-7.5 3.75 3.75 0 0 1 0 7.5Zm0-1.5a2.25 2.25 0 1 0 0-4.5 2.25 2.25 0 0 0 0 4.5Z"/>
    <g filter="url(#e)">
      <path fill="#07101F" d="M141 78.5c17.673 0 32-14.327 32-32 0-17.673-14.327-32-32-32-17.673 0-32 14.327-32 32 0 17.673 14.327 32 32 32Z"/>
    </g>
    <mask id="f" width="32" height="33" x="125" y="30" maskUnits="userSpaceOnUse" style="mask-type:luminance">
      <path fill="#fff" d="M125 30.5h32v32h-32v-32Z"/>
    </mask>
    <g mask="url(#f)">
      <path fill="#CAD3E2" fill-rule="evenodd" d="M150.377 50.764c2.31 2.444 3.906 5.758 4.366 9.495.144 1.188-.802 2.24-2 2.24h-23.73c-1.198 0-2.144-1.052-1.998-2.24.458-3.737 2.054-7.051 4.364-9.495.494.455 1.01.883 1.564 1.265-2.076 2.138-3.53 5.1-3.944 8.474l23.744-.004c-.408-3.372-1.858-6.332-3.932-8.47a14.013 14.013 0 0 0 1.566-1.265ZM140.878 30.5c3.8 0 6 4 8.758 5.267-.916 1.053-2.252 1.733-3.758 1.733a4.927 4.927 0 0 1-1.688-.313C142.814 38.89 140.736 40 138.378 40c-2.79 0-7.5.5-6.49-3.806 2.99-1.694 5.016-5.694 8.99-5.694Z" clip-rule="evenodd"/>
      <path fill="#CAD3E2" fill-rule="evenodd" d="M140.877 32.5c4.412 0 8 3.588 8 8s-3.588 8-8 8-8-3.588-8-8 3.588-8 8-8Zm0 18c5.522 0 10-4.478 10-10s-4.477-10-9.999-10-10.001 4.478-10.001 10 4.478 10 10 10Z" clip-rule="evenodd"/>
    </g>
    <g filter="url(#g)">
      <path fill="#07101F" d="M286 86.5c13.255 0 24-10.745 24-24s-10.745-24-24-24-24 10.745-24 24 10.745 24 24 24Z"/>
    </g>
    <path fill="#CAD3E2" fill-rule="evenodd" d="m281.5 55 4.5 13.5h-1.5L283 64h-4.5l-1.5 4.5h-1.5L280 55h1.5Zm-.75 2.25 1.75 5.25H279l1.75-5.25Zm11.986 2.47c-.496-.212-1.098-.22-1.486-.22-.538 0-1.534.262-2.447 1.257l-1.105-1.014c1.195-1.302 2.59-1.743 3.552-1.743h.024c.376 0 1.254 0 2.053.342.423.181.852.47 1.173.926.325.46.5 1.039.5 1.732v7.5h-1.5v-.531c-.032.02-.064.039-.097.057-.83.475-1.748.474-2.129.474h-.048c-.376 0-1.254 0-2.053-.342a2.718 2.718 0 0 1-1.173-.926c-.324-.46-.5-1.039-.5-1.732 0-.693.176-1.271.5-1.732a2.718 2.718 0 0 1 1.173-.926c.799-.343 1.677-.342 2.053-.342h.024c.386 0 1.035-.004 1.575-.159.268-.076.445-.172.546-.268.079-.075.129-.162.129-.323V61c0-.432-.106-.697-.226-.87a1.225 1.225 0 0 0-.538-.41Zm.764 3.979c-.089.032-.177.06-.263.085-.758.216-1.593.216-1.967.216h-.02c-.388 0-.99.008-1.486.22-.233.1-.413.234-.537.41-.121.173-.227.438-.227.87s.106.697.227.87c.124.175.304.31.537.41.496.212 1.098.22 1.486.22.385 0 .946-.011 1.409-.276.384-.22.841-.695.841-1.974v-1.051Z" clip-rule="evenodd"/>
    <path fill="#61A2FF" d="M291.198 215.5a8 8 0 1 1-16 0 8 8 0 0 1 16 0ZM269 333.5l1.546-17.251 14.167 9.964L269 333.5Zm13.929-114.713a1.497 1.497 0 0 1-2.04.58 1.497 1.497 0 0 1-.581-2.04l2.621 1.46Zm-5.617 6.383a1.499 1.499 0 0 1 1.768-1.106 1.5 1.5 0 0 1 1.167 1.728l-2.935-.622Zm2.454 6.199a1.494 1.494 0 0 1-.406 1.074 1.488 1.488 0 0 1-1.046.472 1.496 1.496 0 0 1-1.547-1.452l2.999-.094Zm-1.715 8.285a1.512 1.512 0 0 1 .14-1.153 1.506 1.506 0 0 1 .922-.708 1.514 1.514 0 0 1 1.15.163 1.495 1.495 0 0 1 .689.936l-2.901.762Zm4.65 4.831a1.501 1.501 0 0 1-1.495 2.027 1.498 1.498 0 0 1-1.335-1.034l2.83-.993Zm-.057 8.497a1.499 1.499 0 0 1 .883-1.929 1.5 1.5 0 0 1 1.929.882l-2.812 1.047Zm4.836 4.636a1.49 1.49 0 0 1-.069 1.155 1.497 1.497 0 0 1-.871.762 1.495 1.495 0 0 1-1.155-.085 1.507 1.507 0 0 1-.75-.881l2.845-.951Zm-.671 8.48a1.502 1.502 0 0 1 1.119-1.784 1.501 1.501 0 0 1 1.8 1.093l-2.919.691Zm4.066 5.311a1.503 1.503 0 0 1-1.279 1.65 1.497 1.497 0 0 1-1.691-1.224l2.97-.426Zm-2.377 8.167a1.492 1.492 0 0 1 .43-1.065 1.5 1.5 0 0 1 2.57 1.038l-3 .027Zm2.743 6.112a1.492 1.492 0 0 1-.528 1.032 1.515 1.515 0 0 1-.517.285 1.499 1.499 0 0 1-1.611-.481 1.51 1.51 0 0 1-.331-1.111l2.987.275Zm-4.183 7.398a1.501 1.501 0 0 1 2.931.64l-2.931-.64Zm1.376 6.561a1.494 1.494 0 0 1-1.883 1.031 1.517 1.517 0 0 1-.895-.746 1.509 1.509 0 0 1-.09-1.162l2.868.877Zm-5.501 6.463a1.502 1.502 0 0 1 2.463-.52 1.494 1.494 0 0 1 .437 1.078c-.003.2-.045.397-.125.58l-2.775-1.138Zm.306 6.676a1.5 1.5 0 0 1-2.704-1.299l2.704 1.299Zm-6.357 5.677a1.5 1.5 0 1 1 2.612 1.477l-2.612-1.477Zm-.469 6.663a1.503 1.503 0 0 1-2.066.482 1.501 1.501 0 0 1-.482-2.067l2.548 1.585Zm-6.886 5.018a1.512 1.512 0 0 1 .966-.639 1.508 1.508 0 0 1 1.133.239 1.5 1.5 0 0 1 .369 2.105l-2.468-1.705Zm14.912-113.802a33.31 33.31 0 0 0-1.51 2.445l-2.621-1.46c.51-.913 1.06-1.804 1.648-2.669l2.483 1.684Zm-4.192 9.45a23.26 23.26 0 0 0-.481 5.577l-2.999.094a26.28 26.28 0 0 1 .545-6.293l2.935.622Zm.705 13.1c.48 1.825 1.078 3.681 1.749 5.593l-2.83.993c-.687-1.955-1.313-3.892-1.82-5.824l2.901-.762Zm4.504 13.043c.682 1.833 1.37 3.726 2.024 5.683l-2.845.951a173.294 173.294 0 0 0-1.991-5.587l2.812-1.047Zm4.272 13.472a67.98 67.98 0 0 1 1.147 6.002l-2.97.426a64.962 64.962 0 0 0-1.096-5.737l2.919-.691Zm1.77 14.142a60.788 60.788 0 0 1-.257 6.139l-2.987-.275c.185-2.012.261-3.955.244-5.837l3-.027Zm-1.509 14.177a74.676 74.676 0 0 1-1.555 5.921l-2.868-.877a72.378 72.378 0 0 0 1.492-5.684l2.931.64Zm-4.281 13.522a102.57 102.57 0 0 1-2.469 5.538l-2.704-1.299a99.668 99.668 0 0 0 2.398-5.377l2.775 1.138Zm-6.214 12.692a144.646 144.646 0 0 1-3.081 5.186l-2.548-1.585a138.688 138.688 0 0 0 3.017-5.078l2.612 1.477ZM25.331 256.221a8.001 8.001 0 0 1 15.338 4.558 7.999 7.999 0 0 1-14.71 1.54 7.995 7.995 0 0 1-.627-6.098Zm16.136-44.893L31.203 225.28l-6.95-15.865 17.214 1.913Zm-2.42 2.697a1.49 1.49 0 0 1-1.152.044 1.5 1.5 0 0 1-.085-2.777l1.237 2.733Zm-9.1 1.184a1.5 1.5 0 0 1 1.448 2.627l-1.448-2.627Zm-4.01 5.925a1.502 1.502 0 0 1-2.079-2.085 1.51 1.51 0 0 1 .415-.413l1.663 2.498Zm-8.675 3.008a1.497 1.497 0 0 1 2.121.056 1.5 1.5 0 0 1-.056 2.121l-2.065-2.177ZM15.28 231a1.5 1.5 0 1 1-2.483-1.683L15.28 231Zm-5.847 6.998a1.5 1.5 0 1 1 2.984.314l-2.984-.314Zm3.703 6.052a1.5 1.5 0 0 1-2.82 1.02l2.82-1.02Zm2.315 8.749a1.5 1.5 0 1 1 2.102-2.14l-2.102 2.14Zm6.98 1.579a1.502 1.502 0 0 1 .532 2.054 1.498 1.498 0 0 1-2.054.532l1.522-2.586Zm7.165 5.764a1.5 1.5 0 0 1 .361-2.978l-.36 2.978Zm1.8-42.306a76.482 76.482 0 0 0-5.46 3.298l-1.663-2.498a79.455 79.455 0 0 1 5.674-3.427l1.448 2.627Zm-12.069 8.483c-1.688 1.602-3.02 3.167-4.047 4.681l-2.483-1.683c1.163-1.716 2.64-3.444 4.465-5.175l2.065 2.177Zm-6.91 11.993c-.212 2.02.07 3.94.72 5.738l-2.822 1.02c-.792-2.19-1.145-4.565-.882-7.072l2.984.314Zm5.136 12.347a25.398 25.398 0 0 0 4.878 3.719l-1.522 2.586a28.376 28.376 0 0 1-5.458-4.165l2.102-2.14Zm12.404 6.505c1.1.133 1.985.079 2.63-.106l.825 2.885c-1.15.329-2.466.363-3.816.199l.361-2.978Z"/>
    <path stroke="#243147" stroke-dasharray="8 6" d="M325.103 290.093a6.019 6.019 0 0 1 2.803 2.803h.001l-.45.217A5.48 5.48 0 0 1 328 295.5v3.81h.5v5.713h-.5v7.62h.5v5.714h-.5v7.62h.5v5.713h-.5v3.81a5.48 5.48 0 0 1-.543 2.387l.449.216a6.019 6.019 0 0 1-2.803 2.803l-.216-.449a5.48 5.48 0 0 1-2.387.543h-4.058v.5h-6.085v-.5h-8.114v.5h-6.086v-.5h-8.114v.5h-6.086v-.5h-8.114v.5h-6.086v-.5h-8.114v.5h-6.085v-.5h-8.116v.5h-6.085v-.5h-8.114v.5h-6.086v-.5h-8.114v.5h-6.086v-.5h-8.114v.5h-6.086v-.5h-8.114v.5h-6.085v-.5h-8.116v.5h-6.085v-.5h-8.114v.5h-6.086v-.5h-8.114v.5h-6.086v-.5h-8.114v.5h-6.086v-.5h-8.114v.5h-6.085v-.5h-8.116v.5h-6.085v-.5h-8.114v.5h-6.086v-.5h-8.114v.5h-6.086v-.5h-8.114v.5h-6.086v-.5h-8.114v.5h-6.085v-.5H38.5a5.476 5.476 0 0 1-2.387-.543l-.216.449a6.02 6.02 0 0 1-2.804-2.803l.45-.216a5.47 5.47 0 0 1-.534-2.069L33 335.5v-3.81h-.5v-5.713h.5v-7.62h-.5v-5.714h.5v-7.62h-.5v-5.713h.5v-3.81c0-.856.195-1.665.543-2.387l-.45-.217a6.026 6.026 0 0 1 2.547-2.671l.257-.132.216.45A5.476 5.476 0 0 1 38.5 290h4.058v-.5h6.085v.5h8.114v-.5h6.086v.5h8.114v-.5h6.086v.5h8.114v-.5h6.086v.5h8.114v-.5h6.085v.5h8.116v-.5h6.085v.5h8.114v-.5h6.086v.5h8.114v-.5h6.086v.5h8.114v-.5h6.086v.5h8.114v-.5h6.085v.5h8.116v-.5h6.085v.5h8.114v-.5h6.086v.5h8.114v-.5h6.086v.5h8.114v-.5h6.086v.5h8.114v-.5h6.085v.5h8.116v-.5h6.085v.5h8.114v-.5h6.086v.5h8.114v-.5h6.086v.5h8.114v-.5h6.086v.5h8.114v-.5h6.085v.5h4.058a5.48 5.48 0 0 1 2.387.543l.216-.45Z"/>
    <path fill="#243147" d="M86.5 316a3.5 3.5 0 0 1 3.5-3.5h132a3.5 3.5 0 1 1 0 7H90a3.5 3.5 0 0 1-3.5-3.5Z" opacity=".7"/>
    <g clip-path="url(#h)">
      <path fill="#8E9FBC" d="m54.477 323.706 1.164-1.165c.91.301 1.863.459 2.858.459 3 0 5.61-1.433 7.838-3.88a18.18 18.18 0 0 0 2.552-3.62 18.118 18.118 0 0 0-2.552-3.619l-.017-.019 1.062-1.061c2.038 2.214 3.067 4.463 3.087 4.508.02.045.031.096.031.148v.088c0 .051-.01.102-.031.148-.04.088-4.031 8.807-11.97 8.807a10.55 10.55 0 0 1-4.022-.794Zm-4.917-3.569c-2-2.193-3.01-4.4-3.029-4.444a.366.366 0 0 1-.031-.148v-.088a.35.35 0 0 1 .031-.148c.04-.089 4.03-8.809 11.968-8.809 1.444 0 2.756.288 3.938.76l-1.169 1.169A9.079 9.079 0 0 0 58.5 308c-2.998 0-5.608 1.434-7.837 3.881a18.13 18.13 0 0 0-2.551 3.62 18.118 18.118 0 0 0 2.511 3.574l-1.062 1.062Zm9.482-9.482-1.66 1.66a3.392 3.392 0 0 0-2.067 2.068l-1.66 1.66a4.879 4.879 0 0 1 5.387-5.388Zm4.29 4.196a4.881 4.881 0 0 1-5.481 5.481l1.591-1.591a3.393 3.393 0 0 0 2.299-2.299l1.591-1.591ZM49.28 325.78a.75.75 0 1 1-1.06-1.06l19.5-19.5a.75.75 0 1 1 1.06 1.06l-19.5 19.5Z"/>
    </g>
  </g>
  <defs>
    <filter id="b" width="52" height="52" x="183" y="53" color-interpolation-filters="sRGB" filterUnits="userSpaceOnUse">
      <feFlood flood-opacity="0" result="BackgroundImageFix"/>
      <feColorMatrix in="SourceAlpha" result="hardAlpha" values="0 0 0 0 0 0 0 0 0 0 0 0 0 0 0 0 0 0 127 0"/>
      <feOffset dy="4.5"/>
      <feGaussianBlur stdDeviation="5"/>
      <feColorMatrix values="0 0 0 0 0 0 0 0 0 0 0 0 0 0 0 0 0 0 0.05 0"/>
      <feBlend in2="BackgroundImageFix" result="effect1_dropShadow_4598_68215"/>
      <feColorMatrix in="SourceAlpha" result="hardAlpha" values="0 0 0 0 0 0 0 0 0 0 0 0 0 0 0 0 0 0 127 0"/>
      <feOffset dy="1.9"/>
      <feGaussianBlur stdDeviation="2"/>
      <feColorMatrix values="0 0 0 0 0 0 0 0 0 0 0 0 0 0 0 0 0 0 0.05 0"/>
      <feBlend in2="effect1_dropShadow_4598_68215" result="effect2_dropShadow_4598_68215"/>
      <feColorMatrix in="SourceAlpha" result="hardAlpha" values="0 0 0 0 0 0 0 0 0 0 0 0 0 0 0 0 0 0 127 0"/>
      <feOffset dy=".7"/>
      <feGaussianBlur stdDeviation=".7"/>
      <feColorMatrix values="0 0 0 0 0 0 0 0 0 0 0 0 0 0 0 0 0 0 0.07 0"/>
      <feBlend in2="effect2_dropShadow_4598_68215" result="effect3_dropShadow_4598_68215"/>
      <feBlend in="SourceGraphic" in2="effect3_dropShadow_4598_68215" result="shape"/>
    </filter>
    <filter id="c" width="346" height="92" x="7" y="94" color-interpolation-filters="sRGB" filterUnits="userSpaceOnUse">
      <feFlood flood-opacity="0" result="BackgroundImageFix"/>
      <feColorMatrix in="SourceAlpha" result="hardAlpha" values="0 0 0 0 0 0 0 0 0 0 0 0 0 0 0 0 0 0 127 0"/>
      <feOffset dy="4.5"/>
      <feGaussianBlur stdDeviation="5"/>
      <feColorMatrix values="0 0 0 0 0 0 0 0 0 0 0 0 0 0 0 0 0 0 0.05 0"/>
      <feBlend in2="BackgroundImageFix" result="effect1_dropShadow_4598_68215"/>
      <feColorMatrix in="SourceAlpha" result="hardAlpha" values="0 0 0 0 0 0 0 0 0 0 0 0 0 0 0 0 0 0 127 0"/>
      <feOffset dy="1.9"/>
      <feGaussianBlur stdDeviation="2"/>
      <feColorMatrix values="0 0 0 0 0 0 0 0 0 0 0 0 0 0 0 0 0 0 0.05 0"/>
      <feBlend in2="effect1_dropShadow_4598_68215" result="effect2_dropShadow_4598_68215"/>
      <feColorMatrix in="SourceAlpha" result="hardAlpha" values="0 0 0 0 0 0 0 0 0 0 0 0 0 0 0 0 0 0 127 0"/>
      <feOffset dy=".7"/>
      <feGaussianBlur stdDeviation=".7"/>
      <feColorMatrix values="0 0 0 0 0 0 0 0 0 0 0 0 0 0 0 0 0 0 0.07 0"/>
      <feBlend in2="effect2_dropShadow_4598_68215" result="effect3_dropShadow_4598_68215"/>
      <feBlend in="SourceGraphic" in2="effect3_dropShadow_4598_68215" result="shape"/>
    </filter>
    <filter id="d" width="68" height="68" x="51" y="54" color-interpolation-filters="sRGB" filterUnits="userSpaceOnUse">
      <feFlood flood-opacity="0" result="BackgroundImageFix"/>
      <feColorMatrix in="SourceAlpha" result="hardAlpha" values="0 0 0 0 0 0 0 0 0 0 0 0 0 0 0 0 0 0 127 0"/>
      <feOffset dy="4.5"/>
      <feGaussianBlur stdDeviation="5"/>
      <feColorMatrix values="0 0 0 0 0 0 0 0 0 0 0 0 0 0 0 0 0 0 0.05 0"/>
      <feBlend in2="BackgroundImageFix" result="effect1_dropShadow_4598_68215"/>
      <feColorMatrix in="SourceAlpha" result="hardAlpha" values="0 0 0 0 0 0 0 0 0 0 0 0 0 0 0 0 0 0 127 0"/>
      <feOffset dy="1.9"/>
      <feGaussianBlur stdDeviation="2"/>
      <feColorMatrix values="0 0 0 0 0 0 0 0 0 0 0 0 0 0 0 0 0 0 0.05 0"/>
      <feBlend in2="effect1_dropShadow_4598_68215" result="effect2_dropShadow_4598_68215"/>
      <feColorMatrix in="SourceAlpha" result="hardAlpha" values="0 0 0 0 0 0 0 0 0 0 0 0 0 0 0 0 0 0 127 0"/>
      <feOffset dy=".7"/>
      <feGaussianBlur stdDeviation=".7"/>
      <feColorMatrix values="0 0 0 0 0 0 0 0 0 0 0 0 0 0 0 0 0 0 0.07 0"/>
      <feBlend in2="effect2_dropShadow_4598_68215" result="effect3_dropShadow_4598_68215"/>
      <feBlend in="SourceGraphic" in2="effect3_dropShadow_4598_68215" result="shape"/>
    </filter>
    <filter id="e" width="84" height="84" x="99" y="9" color-interpolation-filters="sRGB" filterUnits="userSpaceOnUse">
      <feFlood flood-opacity="0" result="BackgroundImageFix"/>
      <feColorMatrix in="SourceAlpha" result="hardAlpha" values="0 0 0 0 0 0 0 0 0 0 0 0 0 0 0 0 0 0 127 0"/>
      <feOffset dy="4.5"/>
      <feGaussianBlur stdDeviation="5"/>
      <feColorMatrix values="0 0 0 0 0 0 0 0 0 0 0 0 0 0 0 0 0 0 0.05 0"/>
      <feBlend in2="BackgroundImageFix" result="effect1_dropShadow_4598_68215"/>
      <feColorMatrix in="SourceAlpha" result="hardAlpha" values="0 0 0 0 0 0 0 0 0 0 0 0 0 0 0 0 0 0 127 0"/>
      <feOffset dy="1.9"/>
      <feGaussianBlur stdDeviation="2"/>
      <feColorMatrix values="0 0 0 0 0 0 0 0 0 0 0 0 0 0 0 0 0 0 0.05 0"/>
      <feBlend in2="effect1_dropShadow_4598_68215" result="effect2_dropShadow_4598_68215"/>
      <feColorMatrix in="SourceAlpha" result="hardAlpha" values="0 0 0 0 0 0 0 0 0 0 0 0 0 0 0 0 0 0 127 0"/>
      <feOffset dy=".7"/>
      <feGaussianBlur stdDeviation=".7"/>
      <feColorMatrix values="0 0 0 0 0 0 0 0 0 0 0 0 0 0 0 0 0 0 0.07 0"/>
      <feBlend in2="effect2_dropShadow_4598_68215" result="effect3_dropShadow_4598_68215"/>
      <feBlend in="SourceGraphic" in2="effect3_dropShadow_4598_68215" result="shape"/>
    </filter>
    <filter id="g" width="68" height="68" x="252" y="33" color-interpolation-filters="sRGB" filterUnits="userSpaceOnUse">
      <feFlood flood-opacity="0" result="BackgroundImageFix"/>
      <feColorMatrix in="SourceAlpha" result="hardAlpha" values="0 0 0 0 0 0 0 0 0 0 0 0 0 0 0 0 0 0 127 0"/>
      <feOffset dy="4.5"/>
      <feGaussianBlur stdDeviation="5"/>
      <feColorMatrix values="0 0 0 0 0 0 0 0 0 0 0 0 0 0 0 0 0 0 0.05 0"/>
      <feBlend in2="BackgroundImageFix" result="effect1_dropShadow_4598_68215"/>
      <feColorMatrix in="SourceAlpha" result="hardAlpha" values="0 0 0 0 0 0 0 0 0 0 0 0 0 0 0 0 0 0 127 0"/>
      <feOffset dy="1.9"/>
      <feGaussianBlur stdDeviation="2"/>
      <feColorMatrix values="0 0 0 0 0 0 0 0 0 0 0 0 0 0 0 0 0 0 0.05 0"/>
      <feBlend in2="effect1_dropShadow_4598_68215" result="effect2_dropShadow_4598_68215"/>
      <feColorMatrix in="SourceAlpha" result="hardAlpha" values="0 0 0 0 0 0 0 0 0 0 0 0 0 0 0 0 0 0 127 0"/>
      <feOffset dy=".7"/>
      <feGaussianBlur stdDeviation=".7"/>
      <feColorMatrix values="0 0 0 0 0 0 0 0 0 0 0 0 0 0 0 0 0 0 0.07 0"/>
      <feBlend in2="effect2_dropShadow_4598_68215" result="effect3_dropShadow_4598_68215"/>
      <feBlend in="SourceGraphic" in2="effect3_dropShadow_4598_68215" result="shape"/>
    </filter>
    <clipPath id="a">
      <path fill="#fff" d="M0 0h360v376H0z"/>
    </clipPath>
    <clipPath id="h">
      <path fill="#fff" d="M46.5 303.5h24v24h-24z"/>
    </clipPath>
  </defs>
</svg>
