<svg xmlns="http://www.w3.org/2000/svg" width="389" height="206" fill="none" viewBox="0 0 389 206">
  <g clip-path="url(#a)">
    <mask id="b" width="389" height="206" x="0" y="0" maskUnits="userSpaceOnUse" style="mask-type:luminance">
      <path fill="#fff" d="M.5 206h388V0H.5v206Z"/>
    </mask>
    <g mask="url(#b)">
      <path fill="#172336" fill-rule="evenodd" d="M.5-58.22c0-5.51 2.665-10.796 7.41-14.693C12.654-76.811 19.088-79 25.798-79h122.88c6.71 0 13.144 2.19 17.889 6.087 4.744 3.897 7.409 9.182 7.409 14.693V42.296c0 5.51 2.664 10.796 7.41 14.694l.514.422c2.349 1.93 5.138 3.46 8.207 4.505a30.127 30.127 0 0 0 9.681 1.581h121.856c6.71 0 13.143-2.188 17.889-6.086l.514-.422c4.743-3.898 7.408-9.183 7.409-14.694V13.03c0-2.729.654-5.432 1.925-7.953 1.271-2.522 3.134-4.813 5.483-6.743 2.35-1.93 5.139-3.46 8.208-4.505a30.14 30.14 0 0 1 9.682-1.582h209.621c3.322 0 6.612.537 9.682 1.582 3.069 1.044 5.858 2.575 8.208 4.505 2.349 1.93 4.212 4.221 5.483 6.743 1.271 2.521 1.925 5.224 1.925 7.953v29.687c0 5.511-2.666 10.797-7.41 14.694-4.744 3.897-11.179 6.086-17.888 6.086H373.268c-3.322 0-6.612.537-9.681 1.582-3.069 1.044-5.858 2.575-8.207 4.505l-.514.422c-2.349 1.93-4.213 4.22-5.484 6.742-1.272 2.52-1.926 5.223-1.926 7.952v100.515c-.001 5.512-2.667 10.798-7.412 14.696-4.744 3.897-11.179 6.087-17.889 6.088H199.274c-6.71-.002-13.143-2.192-17.887-6.09-4.744-3.897-7.41-9.182-7.411-14.694V84.701c0-2.729-.654-5.431-1.925-7.952-1.272-2.521-3.135-4.812-5.484-6.742l-.515-.422c-2.348-1.93-5.137-3.461-8.206-4.505a30.137 30.137 0 0 0-9.682-1.582H25.798c-6.71 0-13.144-2.189-17.888-6.086C3.165 53.515.5 48.229.5 42.718V-58.22Z" clip-rule="evenodd"/>
      <mask id="c" width="609" height="285" x="0" y="-79" maskUnits="userSpaceOnUse" style="mask-type:alpha">
        <path fill="#CAD3E2" fill-rule="evenodd" d="M.88-58.22c0-5.511 2.666-10.797 7.41-14.694C13.034-76.81 19.469-79 26.178-79H149.06c6.709 0 13.144 2.19 17.888 6.086 4.744 3.897 7.41 9.183 7.41 14.694V42.296c0 5.51 2.664 10.795 7.409 14.693l.514.423c2.349 1.93 5.138 3.46 8.207 4.505a30.133 30.133 0 0 0 9.681 1.581h121.857c6.709 0 13.143-2.188 17.888-6.086l.514-.423c4.743-3.897 7.408-9.182 7.41-14.693V13.03c-.001-2.73.653-5.432 1.924-7.953 1.271-2.522 3.135-4.813 5.484-6.743 2.349-1.93 5.138-3.461 8.207-4.506a30.14 30.14 0 0 1 9.682-1.582h209.621c3.323 0 6.613.538 9.682 1.582 3.07 1.045 5.859 2.576 8.208 4.506 2.349 1.93 4.212 4.221 5.483 6.743 1.272 2.521 1.925 5.224 1.925 7.953v29.687c0 5.511-2.665 10.797-7.41 14.694-4.744 3.897-11.178 6.086-17.888 6.086H373.649a30.128 30.128 0 0 0-9.682 1.581c-3.069 1.045-5.858 2.576-8.206 4.506l-.515.422c-2.349 1.93-4.213 4.22-5.484 6.742-1.271 2.52-1.925 5.223-1.925 7.952v100.515c-.001 5.512-2.667 10.798-7.412 14.695-4.745 3.898-11.18 6.088-17.89 6.089H199.654c-6.709-.002-13.143-2.192-17.887-6.09-4.744-3.897-7.409-9.182-7.41-14.694V84.701c0-2.73-.654-5.431-1.926-7.952-1.271-2.522-3.135-4.813-5.484-6.742l-.514-.422c-2.349-1.93-5.138-3.461-8.207-4.505a30.126 30.126 0 0 0-9.681-1.582H26.178c-6.71 0-13.144-2.19-17.888-6.086C3.546 53.515.88 48.229.88 42.718V-58.22Z" clip-rule="evenodd"/>
      </mask>
      <g mask="url(#c)">
        <path fill="#07101F" d="M453.566 14.126c.263.499.808.815 1.433.61.491-.158 1.111-.5 1.241-.866.335-.946-.749-1.166-1.531-1.63-.903.54-1.601 1.007-1.154 1.893l.011-.007Zm61.351 23.842c-.091.537.627 1.47 1.153 1.507.725.052 1.731-.627 1.792-1.207.061-.589-.515-1.116-1.297-1.182-.752-.063-1.562.375-1.649.89l.001-.008Zm-33.847-67.83c.681.03 1.497-.614 1.512-1.215.024-.585-.598-1.133-1.333-1.187-.746-.046-1.31.366-1.418 1.06-.122.708.425 1.295 1.239 1.342Zm-22.298-11.895c.09-.649-.468-1.222-1.309-1.334-.813-.11-1.498.335-1.612 1.052-.094.553.502 1.146 1.22 1.236.891.104 1.608-.299 1.701-.954Zm69.521 60.177c-.287.72.285 1.557.987 1.694.713.13 1.691-.392 1.798-.96.091-.545-.708-1.225-1.943-1.415-.199.152-.718.362-.842.681Zm-79.168-36.157c-.649.004-1.353.002-1.457.554-.117.964.33 1.571 1.06 1.654.901.105 1.713-.405 1.737-1.109.028-.616-.528-1.1-1.34-1.099ZM513.49 35c.222-.164.166-.8-.05-1.062-.215-.27-.788-.48-1.195-.48-.28.001-.683.382-.806.654-.238.544-.338 1.129-.444 1.696-.097.497.233.726.9.78.142-.089.457-.186.492-.334.138-.58.633-.879 1.113-1.26l-.01.006Zm-12.113-9.212c-.59.005-1.592.889-1.597 1.42.001.453.993 1.092 1.69 1.092.609 0 1.021-.43.963-1-.092-.923-.504-1.511-1.057-1.503l.001-.009Zm34.768-11.957c-.053.423.874 1.165 1.563 1.26.756.103 1.391-.324 1.474-.982.09-.64-.304-1.106-.997-1.179-.863-.099-1.984.407-2.05.908l.01-.007ZM425.708 6.933c.093-.601-.592-1.284-1.345-1.346-.686-.057-1.275.321-1.393.904-.155.736.333 1.333 1.152 1.402.695.065 1.493-.422 1.577-.961h.009v.001Zm18.381-34.677c.093-.6-.593-1.284-1.347-1.347-.684-.055-1.271.322-1.391.903-.154.737.333 1.333 1.152 1.405.694.063 1.493-.425 1.576-.963l.01.002Zm51.749 40.306c-.533.003-1.292.146-1.566.447-.622.7-.119 1.536.626 1.82a5.34 5.34 0 0 1-1.558-.037c-.347-.064-.947.216-1.205.481-.422.435-.924.774-1.412 1.139-.676.5-.751 1.335-.227 1.84.771.748 1.482.886 2.354.31.466-.302.769-.776 1.208-1.241l.995.28c.281.091.59.103.88.034.276-.061.528-.205.722-.412.518-.543.342-1.151.018-1.745-.189-.355-.479-.587-.853-.67.529-.201.996-.679 1.05-1.22.046-.55-.355-1.027-1.042-1.026h.01Zm-50.295-52.654c-.673-.078-1.481.464-1.526 1.008-.046.55.581 1.178 1.253 1.264.161.024.327.022.487-.007.156-.028.307-.083.446-.162.134-.077.248-.176.335-.29a.93.93 0 0 0 .171-.375c.145-.683-.407-1.358-1.157-1.436l-.009-.002Zm.493 66.198c.099-.578-.258-.92-.924-1.092-.724-.187-1.382-.008-1.745.474-.572.743.082 1.661.68 1.841.6.18 1.826-.274 1.981-1.224h.008v.001Zm34.252-37.262c.42.43 1.023.626 1.562.26.403-.279.876-.78.844-1.15a.765.765 0 0 0-.197-.487 1.05 1.05 0 0 0-.5-.308c.69-.587.861-1.528.793-2.434-.047-.57-.324-1.038-.723-1.417-.55-.516-1.356-.72-2.33-.73-.986-.01-1.696-.608-2.602-.284-1.226.439-2.853 1.585-2.594 3.473.161 1.146.756 1.85 1.625 2.253 1.013.465 2.077-.388 3.286-.273.217.025.43.026.623.024-.165.346-.148.697.23 1.083l-.017-.01Zm30.834-4.273c-.248-.243-1.042-.35-1.433-.204-.979.348-1.029 1.493-.485 1.977.545.49 1.813.424 2.254-.463.177-.353-.021-1.004-.345-1.31h.009Zm-81.463-8.382c.097-.56-.533-1.118-1.315-1.183-.754-.056-1.311.363-1.42 1.066-.117.733.222 1.249.828 1.27.719.029 1.82-.64 1.909-1.16l-.002.007Zm7.758 54.416c.69.033 1.469-.504 1.541-1.322-.291-.217-.676-.682-1.201-.838-.727-.218-1.492.408-1.553 1.108-.047.558.493 1.025 1.213 1.052Zm2.313 1.397c-.095.616.46 1.21 1.159 1.251.784.051 1.543-.489 1.573-1.112.031-.576-.585-1.163-1.254-1.208-.649-.044-1.398.489-1.476 1.06l-.002.009Zm17.095-12.79c.06.378.367.899.749 1.046 1.053.4 1.633-.224 2.159-.927-.375-.63-.74-1.323-1.749-1.241-.687.056-1.256.499-1.159 1.121v.001Zm23.224-54.195c.165-.568-.37-1.162-1.135-1.266-.831-.112-1.49.234-1.604.847-.128.637.343 1.216 1.071 1.307.662.085 1.522-.364 1.668-.88v-.008Zm.143 61.981c-.235.416-.205.864-.13 1.04.244.608.862.727 1.5.84.58.115 1.107.374 1.76-.003.762-.437.689-1.54.023-2.109-.295-.25-.767-.43-1.258-.504.085-.72-.433-1.312-1.206-1.37-.639-.05-1.344.402-1.42.9-.075.444.263.945.74 1.206h-.009Zm-30.44-12.9c.125.293.641.606 1.03.652.74.084 1.328-.308 1.476-.887.196-.803-.796-1.282-1.337-1.393-.543-.11-1.529.8-1.159 1.63l-.01-.002Zm30.231 30.4c-.642-.367-1.345-.718-2.085-.24-.576.37-.689.984-.227 1.45.28.28.936.57 1.308.485.963-.206 1.131-.901 1.014-1.686l-.01-.009Zm32.438-29.64c-.669-.046-1.259.355-1.38.944-.127.637.246 1.108.962 1.215.771.12 1.497-.28 1.591-.881.091-.592-.493-1.24-1.172-1.286l-.001.007v.001ZM449.84-32.998c.354.063.724.01 1.03-.15.306-.159.523-.411.604-.701.197-.645-.125-1.071-.897-1.2-.838-.136-1.5.176-1.663.793-.141.54.3 1.13.926 1.258Zm-25.269 75.914c.198-.532-.255-1.11-.931-1.227-.621-.103-1.314.286-1.496.836-.182.559.266 1.213.911 1.225.704.01 1.296-.224 1.516-.834Zm30.629 13.27c.482-.786-.106-1.3-1.053-1.758-.74.368-1.58.589-1.395 1.428.121.537.618.913 1.296.848.411-.032.982-.252 1.153-.526l-.001.007v.001Zm-22.99-68.793c.085-.553-.254-.942-.882-1.118-.536-.149-1.692.622-1.545 1.06.148.438.539.634.975.804.626.24 1.356-.185 1.441-.74l.011-.006Zm71.249 36.959c.821-.167 1.632-.383 1.435-1.209-.187-.775-.975-.858-1.77-.735-.614.715-.601 1.312.335 1.944Zm5.887 28.1c.407.563 2.212.064 2.42-.643.209-.706-.422-1.597-1.12-1.582-.7.014-1.714 1.66-1.3 2.225ZM440.603 17.68c.205-.176.241-.68.075-.89-.486-.603-1.192-.55-1.954-.16-.062.587-.223 1.244.677 1.466.335.08.919-.17 1.202-.409v-.007Zm78.996-20.441c.191-.271-.232-1.29-.839-1.36-.654-.075-1.289.345-1.385.912-.089.523.356 1.035 1.016.959.484-.054 1.016-.24 1.208-.511Zm-66.994 44.728c.134-.676-.959-.952-1.416-1.156-.524-.227-1.116.188-1.252.761-.143.61.159 1.042.881 1.006.508-.028 1.651.071 1.787-.611Zm-27.388-14.643c-.048-.401-.366-1.416-.864-1.449-.497-.034-1.098.833-1.301 1.215-.214.413.439.941 1.066.957.605.015 1.164-.2 1.099-.723Zm95.858-31.702c.095.409.427.899.844 1.115.464.227 1.339-.363 1.291-.884-.029-.337-.401-.658-.525-.839-.999-.146-1.708.16-1.612.617l.002-.009Zm-3.869 46.207c-.142.547.317 1.141.963 1.199.725.06 1.126-.307 1.232-.818.1-.473-.194-.84-.81-.975-.662-.14-1.264.109-1.385.594Zm-31.159-4.294c-.254.248-.73.543-.904.928-.218.492.213.85.82.92.531.062 1.094.048 1.279-.52.161-.496-.315-1.155-1.195-1.328Zm-11.971-63.472c.234.164.894.207 1.062.069.317-.274.66-.759.571-1.078-.188-.65-.946-.579-1.59-.542-.564.531-.718 1.085-.033 1.554l-.01-.003ZM433.599-6.704c-.006.253.349.675.627.74.381.083 1.02.03 1.269-.187.66-.576.104-1.061-.36-1.519-.853.013-1.509.238-1.536.966Zm96.83 15.119c.717.162 1.303-.668 1.834-.948-.017-.121-.045-.236-.063-.357-.433-.574-.711-.59-1.336-.606-.626-.017-1.005.161-1.158.255.207.485-.002 1.493.715 1.655l.008.001Zm-6.564 9.224c-.165.514.423.74.994.798.665.068 1.316-.341 1.182-.8-.105-.354-.192-1.199-.963-1.16-.77.038-1.101.786-1.213 1.162Zm-30.426-50.076c-.063-.642-.029-1.297-.034-1.942.333-.708-.044-1.212-.781-1.376-.781-.17-1.438.16-1.807.856-.201.373-.39.804-.744 1.065-.697.516-1.022 1.114-.739 1.829.216.55 1.908 1.053 2.682.833.73-.201 1.514-.382 1.415-1.266l.008.001Zm-.535 7.204c-.817-.141-1.445.19-1.584.841-.148.69.379 1.347 1.146 1.435a1.299 1.299 0 0 0 1.431-1.073c.099-.577-.326-1.095-.993-1.203Zm7.267-1.115c.105-.559-.317-1.037-.95-.959-.454.059-.857.33-1.157.454-.061.74.561 1.224 1.235 1.247.644.019.786-.347.862-.742h.01ZM434.937-15.95c.107-.56-.315-1.038-.948-.96-.453.058-.977.126-1.16.454-.182.328.563 1.225 1.237 1.246.645.02.784-.345.862-.741l.009.001Zm65.067-15.752c-.059.74.565 1.224 1.238 1.246.643.018.782-.346.86-.742.106-.56-.316-1.037-.947-.959-.454.059-.859.33-1.16.453l.009.002ZM420.064 5.9c-.037-.4-.373-1.377-.903-1.446-.53-.07-1.029.93-1.143 1.313-.138.468.226.828.932.822.6-.002 1.178-.158 1.123-.687l-.009-.002Zm24.597 45.434c.078-.342-.371-.775-.528-1.039-1.012-.132-1.33.252-1.423.686-.094.441.072.992.733.974.437-.013 1.144-.353 1.208-.624l.01.003Zm80.713-11.255c.234.264 1.176.135 1.784.134.165-.005.57.002.617-.445.048-.447-.764-1.239-1.526-1.192-.762.047-1.412.9-.887 1.501l.012.002Zm-29.848-43.56a2.667 2.667 0 0 0-1.047.132c.146-.292.095-.616-.146-.953-.389-.554-1.04-.756-1.685-.608-1.015.225-.93 1.02-1.088 1.78.589.291 1.126.544 1.649.532a1.684 1.684 0 0 0-.488.825c-.168.982.964 2.224 2.182 2.388 1.18.16 2.309-.504 2.473-1.454.233-1.363-.583-2.529-1.851-2.635l.001-.007Zm10.339 9.3c.957.118 2.145-.443 2.335-1.104.238-.823-.766-2.019-1.793-2.121-.684-.071-1.524.658-1.713 1.477-.179.83.367 1.647 1.171 1.747v.001Zm5.831 5.254c-.375 1.165.936 1.816 1.627 2.126.691.31 1.931-.777 1.882-1.792-.031-.663-.48-.985-1.192-1.122-.937-.172-2.131.206-2.317.788ZM480.111-8.254c-1.173-.207-2.269.437-2.45 1.44-.157.856-.126 1.527.07 2.017-.957.112-1.925.802-2.061 1.883-.106.845.441 1.369 1.411 1.632 1.091.3 2.087.01 2.579-.72a1.701 1.701 0 0 0 .065-1.842c1.113-.18 2.445-1.131 2.638-1.975.178-.82-1.123-2.25-2.241-2.442l-.011.007Zm2.33 4.58c-.103.6.342 1.16.978 1.233.654.075 1.559-.582 1.601-1.165a.959.959 0 0 0-.303-.753 1.421 1.421 0 0 0-.847-.38c-.733-.069-1.32.37-1.429 1.065Zm24.463 23.707c-.01.634.559 1.201 1.273 1.22.75.023 1.083-.352 1.16-.914.105-.663-.406-1.239-1.133-1.29a1.436 1.436 0 0 0-.488.048 1.269 1.269 0 0 0-.423.206c-.118.087-.216.2-.286.328a.819.819 0 0 0-.101.396l-.002.006Zm-23.027-55.686c-.184.519.227 1.274.814 1.237.487-.03 1.628-.192 1.684-.75.066-.556-.824-.834-1.218-.959-.485-.159-1.066-.09-1.28.472Zm19.547 42.341c.335-.374-.207-.936-.796-1.045-.786-.153-1.224.2-1.243.65-.014.366.029 1.013.625 1.098.593.085 1.108-.372 1.417-.71l-.003.007Zm-16.244-7.6c-.211-.587-1.607-.78-1.971-.187-.36.585.324 1.333 1.265 1.37.481.015.874-.703.706-1.183Zm34.517 11.273c.009.51.978 1.002 1.412 1.069.622.095 1.099-.318 1.17-.906.075-.611-.476-.834-1.001-.814-.439.02-1.591.141-1.581.651ZM410.874-.846c.004-.363-.313-1.274-.685-1.31-.371-.034-1.087.646-1.298.979-.289.451.178.877.908 1.018.74.14 1.079-.257 1.085-.693l-.01.006Zm114.341 15.798c.088.32.438.71.785.829.54.181 1.361-.447 1.245-.953-.064-.308-.444-.566-.563-.715-.948-.054-1.59.364-1.467.831v.008Zm-5.859-30.366c-.304-.361-2.45.478-2.581.963-.131.486 1.046 1.003 2.069.78 1.024-.224.815-1.375.51-1.737l.002-.006Zm-33.156 66.3c.438.438.897.357 1.978-.423.099-.926-1.255-1.209-1.78-.905-.43.253-.535.98-.195 1.32l-.003.008Zm-2.474 8.362c.438.44 1.689.465 1.977-.423.101-.926-1.254-1.21-1.779-.904-.431.252-.534.978-.196 1.319l-.002.008ZM429.771 3.29c.047-.266-.439-1.036-.814-1.055-.383-.02-1.073.733-1.016.9.134.348.582.964.938.909.357-.046.855-.473.902-.753l-.01-.001Zm3.394 20.402c.053-.422-1.078-.807-1.489-.838-.269-.015-.722.432-.834.744-.145.396.119.84.732.76.434-.053 1.538-.243 1.591-.666Zm-22.678-37.254c.004-.31-.201-.858-.497-.939-.298-.074-.928.282-1.047.53-.109.233.144 1.073.511 1.132.367.058 1.029-.533 1.033-.723ZM437.062-38.1c.131-.31-.37-1.568-1.049-1.661-.681-.095-1.395 1.14-1.475 1.616-.06.35.391 1.102 1.062 1.194.67.093 1.257-.68 1.462-1.15v.001Zm92.994 35.188c-.276-.072-1.097-.087-1.275.392-.178.48.662.767.947.792.294.034.885-.032.967-.452.08-.419-.36-.668-.648-.741l.009.009ZM422.414-23.837c.076-.16-.187-.776-.424-.804-.227-.025-.665.44-.76.66-.049.12.271.508.398.5.285-.024.686-.169.786-.356Zm63.98-18.838c-.051.121.121.475.398.497.276.024.685-.167.785-.354.075-.157-.076-.746-.423-.803-.348-.055-.665.44-.76.66Zm-58.23 22.067c.01-.284-.473-.564-.667-.57-.297-.01-.888 0-.907.276-.018.277.296.583.528.642.231.058 1.027-.065 1.037-.349l.009.001Zm.958-11.15c.019-.331-.489-.636-.728-.655-.226-.027-.646.226-.718.417-.057.16.235.55.449.591.245.045.988-.013.997-.353Zm102.93 58.957c-.146-.056-.763.056-.836.364-.072.31.55.516.823.564.167.035.596-.16.63-.363.036-.203-.353-.47-.609-.563l-.008-.002ZM411.224 8.296c-.065.277.314.552.546.602.231.059.97-.079 1.026-.35.057-.271-.548-.635-.777-.654-.246-.028-.725.116-.792.394l-.003.008Zm-7.514 4.937c-.144-.056-.763.055-.835.364-.073.31.549.517.821.564.169.036.599-.162.633-.364.034-.202-.355-.47-.608-.562l-.011-.002ZM505.891-31.81c-.067.279.311.552.544.604.231.058.97-.08 1.026-.35.056-.272-.549-.636-.777-.654-.247-.029-.726.114-.793.393v.007Zm-2.114-9.121c-.146-.056-.764.056-.836.364-.072.309.549.516.822.564.168.034.598-.161.633-.364.035-.203-.354-.47-.611-.563l-.008-.001ZM528.702 5.92c-.18.027-.462.033-.517.186-.056.153.168.202.281.334.18-.09.363-.14.43-.244.039-.06-.143-.294-.194-.284v.008ZM425.596-25.32c.016-.212-.246-.322-.379-.337-.132-.015-.351.197-.349.292-.007.102.085.304.265.324.179.022.447-.073.463-.279ZM421.9 10.424c.017-.212-.244-.322-.377-.337-.132-.015-.352.198-.35.293-.008.103.084.303.265.325.179.02.446-.075.462-.281Zm45.147-50.6c-.008.103.084.304.263.324.181.021.448-.074.463-.279.018-.213-.243-.322-.376-.338-.134-.014-.352.198-.35.293Zm-36.985 92.422c.077-.158.115-.67-.423-.803-.528-.133-.663.439-.761.659-.049.12.271.508.399.498.284-.022.685-.166.785-.354Zm-6.997-59.825c.077-.158.115-.668-.423-.802-.528-.132-.664.439-.761.66-.05.12.271.506.399.496.284-.022.685-.167.785-.354Zm16.195 56.352c.011-.285-.474-.563-.666-.57-.298-.01-.89 0-.908.278-.019.276.296.582.528.64.233.058 1.026-.064 1.037-.35l.009.002Zm-5.345.385c.037-.442-.324-.705-.787-.704-.465.003-.729.416-.744.613-.008.222.035.592.559.685.517.091.936-.147.971-.588l.001-.006Zm59.12-10.539c.387.11.611-.008.724-.328.097-.292.004-.477-.368-.568-.371-.09-.624-.024-.748.303-.122.32-.011.516.382.593h.01Zm-8.9-.018c-.168-.552-.539-.976-1.027-1.294-.65-.433-1.5-.506-2.46-.37-.97.133-1.805-.352-2.626.101-1.11.611-2.466 1.978-1.79 3.795.41 1.105 1.147 1.714 2.09 1.973 1.096.309 1.953-.688 3.162-.755 2.859-.148 3.112-1.912 2.643-3.459l.008.01v-.001Zm-6.635-5.92c-.432-.748-2.228-1.384-3.409-.702-1.19.68-1.424 1.551-1.174 2.342.262.784 1.858 1.008 3.21.736.98-.196 1.805-1.619 1.373-2.367v-.009Zm7.953-1.17c-.851-.392-2.774-.463-3.318.974-.538 1.447.125 2.549 1.199 2.879 1.076.33 3.092-.438 3.445-1.429.45-1.274-.485-2.025-1.336-2.425l.01.001ZM464.842 4.715c-1.008.47-1.537 2.49-1.01 3.25.527.768 1.817.512 2.004.716.189.204-.563 1.49.129 2.42.692.93 2.782 1.076 3.611.702.827-.372 1.411-.734 1.679-1.338.319-.734.114-1.853-.708-2.313-.819-.46-2.342-.373-2.526-.657-.193-.284.725-1.527-.063-2.405-.786-.885-2.087-.844-3.106-.375h-.01Zm25.311-31.663c-.439-.543-1.548-.956-2.308-.75-1.067.297-1.252 1.206-1.197 1.506-1.223-.03-2.44.702-2.583 1.599-.158.926.251 1.696 1.008 2.133-.483.11-.934.378-1.251.872-.847 1.34-.432 2.524.549 3.002.66.322 1.838.227 2.724-.154.025.534.437.955 1.051 1.034.653.083 1.371-.39 1.506-1 .133-.614-.354-1.21-1.073-1.308a1.544 1.544 0 0 0-.267-.016c.244-.916-.384-1.6-1.014-2.038l-.14-.088c.825-.19 1.369-.778 1.553-1.734.06-.358.057-.676-.009-.962.319.1.662.086.972-.039.847-.323 1.016-1.415.479-2.065v.008Zm-26.979 14.572c.431 1.035 2.078.961 2.253 1.236.175.276-1.087 1.725-.5 2.984.586 1.26 3.11 1.828 4.226 1.52 1.106-.309 1.926-.644 2.412-1.333a2.536 2.536 0 0 0 .421-1.612c.234-.055.443-.165.602-.315a.96.96 0 0 0 .296-.534c.084-.546-.539-1.254-1.166-1.319a1.391 1.391 0 0 0-.626.083 1.125 1.125 0 0 0-.481.338c-.918-.39-2.078-.565-2.193-.856-.157-.375 1.302-1.731.573-2.952-.729-1.22-2.33-1.411-3.69-1.029-1.363.383-2.55 2.755-2.119 3.79l-.008-.001ZM515.719.929c-1.216 1.296.613 2.08-.509 2.64-1.12.563-1.263-.518-2.768.365-1.505.882-1.478 2.48-.27 2.874 1.21.395 2.063-.246 2.307-.083.243.163 1.068 1.093 1.901.585 1.768-1.074.187-2.123.594-2.576.406-.453 1.713-.803 2.38-1.424.933-.877 1.171-2.089-.063-2.795-1.426-.817-2.731-.49-3.58.413l.008.001Zm-78.703.25c-.531 1.01-.255 2.281.944 2.332 1.2.051 1.992-.39 2.971-.913.724-.392.381-1.266 1.362-1.018.983.25 3.086.547 3.419-1.003.161-.76-.63-1.684-1.538-1.915l-.037-.006c.661-.304 1.181-.919 1.261-1.616.115-.95-1.099-2.041-2.317-2.102-1.17-.056-2.273.635-2.358 1.466-.076.786.84 1.868 1.795 2.28-.375.108-.696.286-.847.538-.351.587-1.722-.444-2.273.341-.514.751-1.859.596-2.389 1.607l.007.009Zm29.568-3.426c-1.638-.65-2.34 0-3.356-.499-1.008-.497-1.688-.195-2.567.538-.125.105-.271.223-.407.343-.096-.401-.443-.742-.856-.703-.375.044-.87.4-.989.704-.188.471.066.912.828.92.066.008.124.007.191.008-.3.513-.336 1.063.321 1.576 1.272.982 2.229.417 2.558.073.329-.343 1.421-.447 1.226.015-.194.461.147 1.01 1.544 1.433 1.397.424 2.39.212 3.119-.887.804-1.202.008-2.874-1.62-3.53l.008.009Zm35.624 44.776c.091-.482-.055-.706-.284-.954-.217-.248-.312-.592-.855-.806-.545-.213-1.711-.404-2.494-.002-.776.404-1.125.982-1.088 1.613.038.632.603 1.054 1.071 1.244.472.19 1.436.38 2.05.007.614-.375 1.479-.57 1.589-1.096l.011-.006Zm-3.333-6.912c-.138-.27-.48-.42-.779-.368-.3.06-.633.483-.59.742.042.258.594.37.896.302.251-.059.601-.407.465-.685l.008.009Zm-8.902 8.47c-.563.467-1.393 1.197-.583 1.822.811.626 1.424.268 1.637.046.211-.222.908-.284.781.011-.119.296.092.645.983.916.892.269 1.525.136 1.992-.565.508-.767.006-1.842-1.036-2.255-1.04-.414-1.498.002-2.139-.318-.642-.321-1.081-.126-1.645.341l.01.002Zm12.087 4.841c-.382.71-1.052 1.41-.737 2.337.363.193.754.396 1.137.591.102 1.036.719 1.893 1.449 1.922.605.023 1.076-.24 1.295-.731.385-.894.186-1.257-.953-1.881-.182-.76-.265-1.453-.543-2.095-.267-.643-1.333-.741-1.659-.137l.011-.006Zm-10.582-65.202c-.965.327-1.251.873-.858 1.514-.851.512-1.551.813-2.055 1.272-.481.444-.565 1.387-.357 2.095-.41-.263-.96-.437-1.662-.462-1.93-.073-2.581.337-2.833 1.65-.178 1.266.807 2.173 2.562 2.368.114.013.229.01.347.009-.656.329-1.213.869-1.346 1.424-.145.62.644 1.322 1.634 1.468 1.18.168 2.004-.358 2.256-1.431.181-.781-.398-1.682-1.13-1.759a2.03 2.03 0 0 0-.319-.004c.649-.346 1.151-.956 1.239-1.644a1.686 1.686 0 0 0-.06-.73c.921.44 2.624.43 3.403-.053.77-.49 1.028-1.668.422-2.586-.399-.61-.867-1.085-.346-1.867.375-.56-.206-1-.901-1.24l.004-.024Zm12.459 14.652c.217-1.262-.666-2.602-1.819-2.759-1.246-.167-2.932.86-3.075 1.87-.137.975 1.06 2.17 2.314 2.3 1.245.126 2.428-.516 2.58-1.411Zm-46.94-24.553c-.699-.041-1.429.438-1.524.999-.093.537.584 1.163 1.283 1.196.719.035 1.313-.444 1.371-1.12.048-.615-.383-1.037-1.12-1.083l-.01.008Zm45.416 46.588a.833.833 0 0 0-.007-.4.92.92 0 0 0-.201-.366 1.168 1.168 0 0 0-.36-.27 1.388 1.388 0 0 0-.461-.131c-.775-.105-1.317.182-1.46.785-.155.632.292 1.24.995 1.368.685.128 1.37-.326 1.494-.986Zm-21.64-19.148c-.212.22-1.827-1.069-3.022.158-1.206 1.228-.991 2.292.472 3.057.454.234.816.713 1.19 1.24l-.004.032c-.075.428.318.91.788 1.036.659.79 1.496 1.371 2.889 1.024 1.932-.492 2.114-1.845 1.705-2.455-.417-.612-1.439-.905-1.533-1.377-.093-.47.682.365.975-1.174.293-1.538-2.056-3.016-3.441-1.54l-.019-.001ZM497.029-41.1c-.609.446-.475.232-1.27.013-.792-.226-2.056-.127-2.061 1.088-.004 1.223 1.436 1.953 2.712 2.06 1.277.108 3.1-1.444 2.873-2.718-.173-.917-1.638-.88-2.256-.434l.002-.009ZM23.272-32.099c-.768-.338-1.212-.96-.816-1.611.306-.512.92-1.142 1.52-1.24 1.547-.258 1.779.934 2.431 1.827-.96.913-1.782 1.614-3.148 1.035l.012-.011Zm-31.293-68.723c-.868.039-2.28-.839-2.28-1.41-.002-.786 1.192-1.795 2.126-1.797.946-.001 1.725.678 1.743 1.528.018.817-.77 1.642-1.602 1.678l.013.001ZM96.535-56.873c.029-.738 1.148-1.545 2.109-1.495.935.039 1.742.77 1.748 1.567-.009.809-.73 1.37-1.85 1.411-1.144.053-2.022-.601-2.007-1.483Zm16.532 25.334c1.046-.026 1.9.639 1.986 1.557.086.888-.701 1.577-1.858 1.62-.893.041-1.773-.667-1.839-1.45-.068-.972.655-1.7 1.711-1.727Zm-88.403-81.536c-1.183.23-2.456-.478-2.597-1.25-.127-.782.814-1.779 1.732-1.832.88-.038 1.878.9 2.046 2.251-.265.197-.66.734-1.181.831Zm48.99 89.277c-.08.698-.153 1.457-1.046 1.508-1.553.02-2.473-.528-2.526-1.324-.066-.982.837-1.801 1.964-1.75.986.038 1.7.69 1.607 1.566Zm-77.095-75.16c.287-.221 1.295-.091 1.69.17.409.262.68.903.635 1.34-.033.302-.686.696-1.133.798-.896.196-1.84.24-2.757.291-.804.05-1.133-.331-1.145-1.056.156-.142.347-.471.587-.493.94-.084 1.473-.586 2.135-1.06l-.012.01Zm13.37 14.066c-.071.635-1.592 1.617-2.442 1.563-.723-.05-1.633-1.19-1.556-1.94.068-.656.799-1.053 1.702-.927 1.465.201 2.358.71 2.283 1.305l.014-.001Zm22.93-36.134c-.681.01-1.764-1.071-1.84-1.824-.08-.825.67-1.462 1.73-1.479 1.032-.027 1.733.45 1.773 1.204.062.94-.868 2.092-1.676 2.109l.013-.01ZM31.68-1.294c.97-.034 1.985.78 2 1.597.015.746-.653 1.338-1.596 1.401-1.194.085-2.091-.506-2.113-1.396-.026-.756.84-1.562 1.71-1.593l-.002-.01.002.001Zm57.392-15.974c.97-.034 1.986.78 2.003 1.599.012.744-.654 1.334-1.596 1.4-1.194.084-2.092-.507-2.115-1.397-.025-.755.842-1.562 1.71-1.592l-.002-.01Zm-58.64-60.197c-.063.574-.373 1.376-.886 1.637-1.184.594-2.465-.042-2.837-.876a3.94 3.94 0 0 0-.113 1.684c.066.38-.45.996-.9 1.244-.74.408-1.337.91-1.973 1.396-.875.673-2.215.662-2.963.042-1.11-.913-1.252-1.694-.238-2.57.535-.47 1.326-.743 2.117-1.165l-.34-1.103a1.237 1.237 0 0 1 .046-.95c.14-.305.4-.563.738-.734.924-.498 1.875-.24 2.787.173.546.244.885.582.975.993.38-.547 1.195-.997 2.064-.996.884.011 1.6.496 1.523 1.236v-.011Zm78.516 59.994c.05.733-.905 1.544-1.778 1.532-.884-.011-1.817-.756-1.879-1.49a1.09 1.09 0 0 1 .064-.524c.067-.175.172-.332.308-.462.138-.136.309-.248.501-.328.192-.081.402-.13.617-.143 1.106-.082 2.122.588 2.164 1.404l.003.011ZM3.314-25.31c.933-.043 1.44.38 1.64 1.116.22.8-.14 1.49-.95 1.828-1.247.534-2.641-.272-2.862-.936-.222-.666.639-1.937 2.173-1.998v-.01h-.001Zm63.27-32.785c-.639-.5-.886-1.172-.24-1.711.489-.405 1.34-.859 1.927-.783.28.023.543.116.757.265.212.15.365.35.435.573 1.015-.678 2.536-.759 3.975-.585.803.09 1.562.416 2.183.935.763.65 1 1.54.907 2.591-.093 1.063.784 1.892.166 2.833-.835 1.272-2.844 2.9-5.83 2.413-1.813-.3-2.87-1.02-3.418-2-.632-1.143.849-2.195.799-3.51-.011-.225 0-.45.03-.673-.57.139-1.13.082-1.704-.368l.014.02Zm10.227-32.746c.36.294.443 1.162.167 1.567-.663 1.016-2.497.943-3.21.304-.724-.641-.477-2 .987-2.377.585-.152 1.6.133 2.055.516v-.01ZM81.2-2.158c.907-.043 1.727.698 1.745 1.547.004.821-.727 1.371-1.86 1.412-1.183.045-1.97-.376-1.938-1.032.035-.777 1.225-1.89 2.065-1.928l-.011.001ZM-4.82-16.522c.024-.746.968-1.526 2.282-1.513.313.337 1.014.803 1.204 1.386.27.807-.815 1.561-1.94 1.55-.896-.012-1.582-.645-1.546-1.423Zm-1.974-2.645c-.994.034-1.882-.63-1.87-1.387.005-.85.95-1.609 1.949-1.571.924.03 1.793.758 1.79 1.483 0 .705-.934 1.453-1.854 1.474l-.015.001Zm22.308-17.004c-.6-.107-1.396-.495-1.59-.923-.521-1.178.539-1.734 1.72-2.223.964.474 2.03.943 1.787 2.022-.165.733-.934 1.297-1.918 1.124ZM104.6-55.21c.925-.114 1.815.528 1.897 1.364.087.908-.538 1.58-1.53 1.635-1.03.067-1.903-.504-1.968-1.298-.063-.723.749-1.601 1.588-1.701h.013ZM5.66-62.203c-.691.207-1.402.126-1.674.024-.945-.33-1.067-1.008-1.177-1.708-.12-.639-.475-1.233.2-1.895.78-.773 2.536-.573 3.37.207.365.346.602.875.664 1.411 1.16-.012 2.048.612 2.055 1.45.008.695-.79 1.404-1.594 1.431-.717.032-1.48-.388-1.844-.93v.01Zm17.235 34.215c-.453-.166-.896-.757-.927-1.18-.052-.807.639-1.398 1.58-1.493 1.302-.122 1.959.998 2.075 1.594.114.597-1.448 1.56-2.73 1.07l.002.009Zm-45.2-35.922c.517.732 1 1.528.154 2.272-.655.579-1.646.635-2.34.085-.416-.332-.805-1.071-.63-1.463.434-1.014 1.563-1.118 2.804-.905l.012.011ZM28.6-95.582c-.002.725-.707 1.317-1.66 1.381-1.03.067-1.742-.386-1.835-1.17-.108-.844.613-1.582 1.582-1.616.956-.034 1.927.668 1.924 1.404l-.01.001Zm69.494 72.698c-.061-.388.066-.781.354-1.093.288-.312.715-.518 1.187-.574 1.051-.14 1.696.254 1.816 1.099.125.918-.446 1.596-1.449 1.705-.878.092-1.77-.449-1.907-1.137ZM-25.895-4.041c.872-.155 1.745.397 1.857 1.137.097.681-.6 1.385-1.5 1.52-.912.135-1.909-.42-1.855-1.117.06-.76.5-1.37 1.498-1.54ZM-43.7-38.501c1.306-.434 2.06.257 2.688 1.327-.669.757-1.114 1.637-2.434 1.346-.843-.19-1.39-.767-1.212-1.49.098-.44.513-1.03.968-1.184l-.01.001ZM63.593-6.142c.894-.03 1.477.377 1.688 1.073.178.594-1.18 1.754-1.864 1.548-.683-.209-.953-.65-1.175-1.14-.313-.7.445-1.44 1.34-1.47l.011-.011ZM12.45-86.976c.357-.866.793-1.716 2.089-1.412 1.216.286 1.263 1.144.98 1.987-1.212.582-2.164.502-3.069-.575Zm-44.212-9.444c-.855-.5.14-2.39 1.293-2.536 1.15-.147 2.504.631 2.402 1.382-.1.751-2.84 1.663-3.695 1.154Zm47.928 77.893c.302-.201 1.11-.185 1.427.017.91.59.747 1.345.043 2.124-.947.001-2.012.102-2.268-.892-.09-.37.373-.971.784-1.25l.014.001Zm41.356-82.845c.453-.176 2.032.394 2.078 1.056.047.712-.694 1.348-1.61 1.39-.843.038-1.613-.497-1.419-1.2.14-.515.495-1.069.95-1.246Zm-78.805 67.235c1.093-.07 1.413 1.138 1.689 1.654.303.588-.424 1.18-1.354 1.264-.99.087-1.646-.287-1.51-1.06.102-.544.07-1.787 1.174-1.858ZM-.93-3.017c.636.096 2.22.55 2.218 1.091 0 .54-1.451 1.092-2.084 1.267-.682.186-1.453-.576-1.41-1.253.044-.654.447-1.233 1.276-1.105Zm61.194-99.766c-.64-.147-1.388-.558-1.687-1.031-.311-.526.727-1.403 1.555-1.293.534.067 1.006.502 1.28.656.123 1.092-.444 1.823-1.163 1.669l.014-.001Zm-74.2-.931c-.89.092-1.786-.467-1.806-1.17-.017-.788.614-1.18 1.44-1.238.768-.056 1.322.301 1.468.979.15.73-.313 1.352-1.101 1.429Zm3.418 34.04c-.425.247-.948.727-1.582.871-.809.181-1.334-.323-1.379-.985-.04-.578.044-1.184.97-1.32.813-.118 1.812.467 1.992 1.434ZM89.499-49.772c-.236-.27-.232-.986.007-1.152.473-.311 1.285-.627 1.785-.496 1.016.275.82 1.083.69 1.772-.91.55-1.812.654-2.484-.135l.002.011ZM54.323-8.29c-.404-.021-1.038-.45-1.111-.757-.09-.42.066-1.102.44-1.347.992-.647 1.704.004 2.383.554-.114.918-.546 1.601-1.711 1.55Zm-13.45-105.98c-.18-.79 1.21-1.331 1.717-1.873.19.033.37.077.561.109.87.529.863.831.82 1.507-.041.675-.366 1.063-.534 1.217-.75-.277-2.383-.161-2.563-.951v-.009Zm-15.451 6.053c-.838.121-1.134-.539-1.163-1.16-.037-.724.689-1.378 1.407-1.183.553.151 1.892.338 1.745 1.165-.145.825-1.376 1.099-1.99 1.178Zm76.591 38.304c1.018.14 2.069.174 3.097.251 1.168-.28 1.93.181 2.11.993.186.86-.412 1.532-1.564 1.853-.619.175-1.328.331-1.784.683-.899.695-1.89.979-3 .595-.854-.293-1.472-2.172-1.035-2.981.402-.765.776-1.59 2.177-1.385l-.001-.009Zm-11.56-.218c.135.895-.465 1.535-1.519 1.613-1.118.083-2.108-.557-2.162-1.393-.053-.744.773-1.384 1.87-1.423.933-.043 1.713.471 1.81 1.203Zm2.581-7.706c.904-.052 1.62.455 1.426 1.128-.142.482-.62.888-.851 1.198-1.188-.017-1.893-.742-1.855-1.47.04-.696.64-.807 1.28-.846v-.01ZM69.234-8.71c.907-.053 1.624.454 1.43 1.127-.144.482-.31 1.04-.853 1.2-.545.16-1.895-.742-1.854-1.472.04-.696.639-.806 1.28-.846l-.002-.009Zm32.333-68.356c-1.187-.019-1.892-.743-1.853-1.471.04-.696.639-.805 1.28-.845.905-.052 1.621.455 1.425 1.126-.143.483-.621.889-.851 1.2l-.001-.01ZM32.707 4.9c.635.084 2.157.554 2.207 1.131.053.58-1.598 1.007-2.221 1.087-.763.097-1.298-.335-1.21-1.095.07-.646.381-1.251 1.22-1.134l.003.011Zm-69.825-31.512c.556-.048 1.196.484 1.6.683.1 1.104-.547 1.404-1.252 1.456-.714.054-1.575-.187-1.474-.897.07-.47.69-1.192 1.13-1.232l-.004-.01Zm26.879-85.708c-.397-.282-.086-1.282-.018-1.938.027-.177.06-.614.778-.615.72-.002 1.895.96 1.736 1.776-.16.816-1.594 1.42-2.495.788l-.002-.011Zm66.253 36.962a2.07 2.07 0 0 1-.328 1.113c.483-.125.995-.034 1.507.263.84.48 1.092 1.204.785 1.882-.47 1.069-1.733.889-2.964.975-.4-.666-.744-1.272-.666-1.835-.402.24-.876.39-1.371.435-1.586.073-3.444-1.283-3.572-2.614-.127-1.29 1.06-2.431 2.594-2.503 2.201-.101 3.973.906 4.002 2.284h.014ZM42.307-87.522c-.084-1.044.944-2.262 2.02-2.394 1.34-.166 3.139 1.048 3.189 2.165.038.745-1.22 1.57-2.548 1.683-1.345.101-2.59-.577-2.66-1.454Zm-7.745-6.862c-1.9.275-2.796-1.209-3.215-1.988-.42-.778 1.454-1.994 3.07-1.83 1.054.108 1.518.625 1.66 1.407.17 1.03-.566 2.275-1.515 2.411Zm27.37 36.16c.2 1.285-.948 2.395-2.57 2.48-1.383.074-2.45-.034-3.212-.299-.285 1.018-1.492 1.985-3.233 2.012-1.361.021-2.138-.626-2.45-1.7-.36-1.208.214-2.249 1.433-2.698a3.852 3.852 0 0 1 2.95.133c.41-1.18 2.075-2.509 3.444-2.624 1.33-.1 3.467 1.458 3.65 2.684l-.01.011-.002.001Zm-7.056-3.017c-.968.045-1.813-.496-1.86-1.19-.047-.712 1.102-1.615 2.038-1.596.438.01.855.157 1.167.41.313.254.497.595.515.955.029.796-.738 1.38-1.86 1.421Zm-35.15-28.97c-1.011-.058-1.854-.735-1.805-1.505.047-.81.68-1.128 1.588-1.15 1.07-.039 1.933.575 1.934 1.364 0 .179-.045.356-.132.52-.092.17-.22.318-.375.433a1.7 1.7 0 0 1-.555.272c-.207.058-.425.08-.643.065l-.011.001Zm86.366 30.953c-.848.141-2.007-.385-1.885-1.014.103-.521.487-1.732 1.384-1.731.895-.01 1.24.98 1.396 1.418.201.54.028 1.159-.895 1.327ZM40.65-84.99c.633-.32 1.473.327 1.58.974.159.864-.454 1.296-1.175 1.267-.586-.025-1.614-.144-1.684-.795-.07-.648.716-1.151 1.29-1.447l-.011.001Zm10.34 18.34c.916.29 1.069 1.817.081 2.143-.974.324-2.091-.496-2.045-1.513.027-.52 1.215-.865 1.963-.63ZM36.8-105.08c-.81-.066-1.49-1.164-1.549-1.64-.084-.68.628-1.148 1.575-1.159.985-.014 1.279.604 1.19 1.168-.082.47-.403 1.698-1.216 1.631Zm5.663 120.623c.58.036 1.998.478 2.014.883.014.404-1.15 1.1-1.706 1.29-.752.262-1.38-.289-1.524-1.09-.143-.813.53-1.134 1.226-1.093l-.01.01ZM29.862-109.375c-.502-.131-1.085-.551-1.237-.937-.23-.602.863-1.419 1.657-1.238.485.103.855.542 1.08.686-.018 1.028-.757 1.673-1.488 1.489h-.012Zm47.835 9.662c.543.368-1.035 2.587-1.825 2.675-.79.087-1.486-1.238-1.016-2.317.47-1.078 2.287-.725 2.83-.357h.01v-.001Zm-109.513 28.4c-.652-.52-.473-1.004.893-2.083 1.49-.005 1.791 1.484 1.248 2.016-.45.435-1.622.47-2.127.066l-.014.002v-.001ZM-45.44-69.57c-.651-.52-.554-1.871.896-2.083 1.489-.007 1.793 1.483 1.245 2.015-.45.437-1.62.468-2.127.067l-.014.001Zm83.388 64.3c.43-.02 1.605.588 1.594.994-.008.415-1.287 1.074-1.547.994-.541-.183-1.475-.732-1.349-1.11.112-.38.85-.869 1.301-.888v.01Zm-32.2-5.909c.68-.01 1.17 1.252 1.174 1.698-.006.291-.77.729-1.28.815-.65.113-1.328-.22-1.134-.87.133-.463.559-1.632 1.24-1.643Zm56.975 28.544c.495.03 1.349.312 1.444.638.085.33-.553.97-.962 1.07-.385.091-1.697-.275-1.75-.676-.053-.402.963-1.05 1.268-1.032Zm42.109-25.92c.509-.107 2.461.571 2.536 1.313.076.744-1.976 1.377-2.743 1.41-.567.027-1.716-.542-1.79-1.275-.075-.732 1.226-1.28 1.997-1.448ZM58.917-112.619c.084.305.017 1.191-.767 1.33-.786.139-1.151-.797-1.16-1.107-.023-.321.15-.952.828-.993a1.075 1.075 0 0 1 1.113.779l-.014-.009ZM80.442 5.651c.263-.065 1.219.287 1.237.545.015.247-.776.667-1.137.746-.199.04-.782-.348-.754-.484.07-.304.344-.721.654-.808v.001Zm37.14-66.845c-.2.04-.746-.183-.751-.484-.009-.3.342-.72.652-.807.26-.063 1.183.165 1.235.545.05.381-.775.667-1.136.746ZM75.923-.901c.456.02.847.573.835.781-.015.322-.097.958-.54.948-.445-.012-.898-.385-.966-.64-.067-.257.217-1.1.67-1.079v-.01Zm17.907.198c.53.016.963.599.966.857.017.247-.433.672-.746.729-.261.043-.852-.314-.894-.55-.044-.27.13-1.064.674-1.036Zm-82.769-117.39c.075.163-.172.816-.672.86-.501.044-.763-.649-.81-.948-.036-.184.324-.626.65-.64.329-.016.713.432.832.718v.01Zm16.846 132.25c-.45.041-.848-.398-.902-.653-.067-.256.233-1.037.674-1.067.438-.032.952.66.956.909.017.268-.265.768-.716.81l-.012.002v-.001Zm-8.713 7.551c.073.161-.171.816-.672.86-.505.043-.766-.65-.81-.948-.04-.185.323-.627.65-.641.328-.015.71.434.83.717l.002.012Zm83.194-105.105c-.452.042-.847-.396-.904-.652-.067-.256.234-1.037.674-1.068.439-.03.953.662.956.91.02.269-.262.769-.714.81h-.012Zm14.33 3.284c.074.164-.173.817-.674.86-.501.044-.763-.648-.809-.948-.037-.184.323-.625.651-.641.327-.015.711.433.83.72l.002.009Zm-72.054-32.022c-.063.19-.104.493-.355.535-.248.043-.302-.203-.502-.34.165-.184.265-.374.438-.434.1-.036.455.186.433.239h-.014ZM83.162 2.386c.34.006.486.3.496.444.01.145-.353.357-.505.344-.163-.003-.476-.124-.488-.32-.016-.195.168-.474.497-.468Zm-57.476.036c.34.005.488.299.497.443.01.145-.355.359-.506.345-.165-.003-.476-.125-.49-.32-.013-.196.17-.473.5-.468Zm85.77-43.05c-.164-.003-.476-.124-.488-.32-.014-.197.168-.474.497-.468a.507.507 0 0 1 .498.443c.008.145-.356.358-.507.345Zm-151.64 29.641c.26-.065 1.084-.05 1.234.545.156.584-.772.666-1.134.747-.198.04-.78-.348-.752-.485.067-.303.341-.72.651-.807Zm94.74 14.141c.262-.065 1.08-.05 1.235.545.152.583-.773.667-1.138.747-.198.04-.778-.348-.748-.485.068-.303.343-.72.651-.807Zm-88.18-23.664c.456.02.846.572.835.78-.016.322-.1.958-.543.947-.442-.01-.896-.384-.964-.64-.066-.256.215-1.098.672-1.078v-.009Zm-1.205 5.714c.709.008 1.09.427 1.038.926-.056.5-.746.74-1.063.734-.355-.016-.94-.103-1.032-.678-.087-.567.34-.992 1.046-.982h.011Zm23.35-62.524c-.13-.43.082-.658.605-.744.477-.073.762.049.866.46.103.408-.03.674-.566.771-.524.097-.825-.045-.904-.477v-.01Zm-.954 9.59c.864.241 1.5.688 1.955 1.248.619.748.643 1.67.32 2.69-.32 1.03.362 1.985-.454 2.82-1.096 1.128-3.43 2.438-6.255 1.508-1.718-.563-2.61-1.424-2.919-2.468-.372-1.216 1.313-2.03 1.555-3.325.55-3.063 3.395-3.14 5.813-2.464l-.014-.009Zm8.72 7.8c1.148.548 1.965 2.553.747 3.75-1.22 1.207-2.635 1.363-3.87 1.006-1.223-.368-1.405-2.112-.82-3.539.42-1.034 2.783-1.765 3.93-1.217h.014Zm2.747-8.438c.53.96.433 3.038-1.921 3.466-2.37.42-4.055-.415-4.464-1.608-.41-1.196 1.04-3.283 2.66-3.554 2.085-.344 3.18.746 3.726 1.707l-.001-.011Zm40.507 25.16c-.864 1.034-4.145 1.382-5.3.73-1.168-.652-.617-2.014-.922-2.237-.306-.227-2.442.442-3.85-.406-1.409-.848-1.41-3.117-.723-3.968.686-.85 1.329-1.44 2.323-1.661 1.206-.263 2.97.082 3.614 1.017.644.934.337 2.565.77 2.794.432.24 2.518-.612 3.832.334 1.328.944 1.118 2.342.256 3.387v.01Zm53.346-23.77c.816.532 1.355 1.773.942 2.568-.593 1.117-2.064 1.215-2.537 1.123-.087 1.32-1.39 2.551-2.838 2.607-1.496.068-2.68-.458-3.294-1.321-.23.508-.707.964-1.53 1.25-2.234.766-4.078.187-4.733-.922-.441-.747-.16-2.005.547-2.917-.85-.087-1.477-.576-1.534-1.247-.06-.713.772-1.434 1.763-1.511.993-.077 1.891.515 1.968 1.3.011.096.01.193-.004.29 1.49-.162 2.513.59 3.142 1.317l.126.16c.395-.868 1.393-1.39 2.94-1.482a5.75 5.75 0 0 1 1.534.116 1.078 1.078 0 0 1-.05-.537c.03-.18.105-.352.22-.507.61-.877 2.37-.937 3.35-.287h-.013ZM66.644-39.524c-1.605-.58-1.306-2.345-1.725-2.564-.42-.219-2.874.98-4.82.209-1.945-.77-2.573-3.552-1.96-4.72.615-1.157 1.241-2.004 2.395-2.452.74-.281 1.705-.388 2.62-.275a1.44 1.44 0 0 1 .57-.614 1.91 1.91 0 0 1 .886-.26c.88-.03 1.94.72 1.975 1.402.01.233-.06.463-.2.666-.14.202-.346.368-.594.48.523 1.032.674 2.301 1.124 2.457.584.211 2.91-1.211 4.776-.291 1.868.92 1.998 2.666 1.236 4.089-.76 1.425-4.68 2.443-6.284 1.864l.001.009ZM51.201-97.6c-2.203 1.168-3.252-.888-4.273.258-1.02 1.145.69 1.419-.886 2.942-1.575 1.524-4.123 1.32-4.619-.026-.495-1.347.62-2.195.389-2.476-.234-.28-1.627-1.272-.725-2.113 1.91-1.786 3.41.032 4.178-.356.768-.388 1.47-1.757 2.536-2.407 1.505-.908 3.465-1.029 4.456.378 1.147 1.626.48 2.994-1.054 3.81l-.002-.01Zm-9.086 84.758c-1.67.461-3.67.023-3.619-1.274.051-1.298.843-2.102 1.786-3.1.706-.736 2.064-.27 1.776-1.355-.29-1.086-.533-3.385 1.977-3.572 1.232-.089 2.62.864 2.89 1.867l.004.042c.558-.679 1.599-1.172 2.72-1.181 1.529-.02 3.137 1.41 3.1 2.728-.04 1.268-1.265 2.38-2.6 2.379-1.264-.005-2.89-1.111-3.444-2.186-.212.393-.532.72-.951.854-.976.314.52 1.903-.796 2.41-1.255.471-1.157 1.938-2.828 2.398l-.015-.01Zm8.733-31.474c.857 1.837-.258 2.52.428 3.67.681 1.142.123 1.84-1.143 2.706-.181.122-.387.267-.593.4.63.148 1.136.56 1.029 1-.113.4-.735.894-1.233.989-.773.15-1.45-.172-1.38-.994-.005-.072.003-.135.01-.208-.852.267-1.736.246-2.48-.518-1.428-1.48-.42-2.448.165-2.764.583-.317.87-1.482.111-1.322-.758.158-1.596-.27-2.117-1.822-.523-1.551-.075-2.598 1.76-3.262 2.008-.733 4.59.309 5.457 2.135l-.014-.01Zm-67.555-43.319c.78-.045 1.122.136 1.493.41.37.261.91.403 1.191 1.011.28.611.457 1.889-.271 2.688-.73.79-1.692 1.103-2.697.993a2.346 2.346 0 0 1-1.867-1.291c-.252-.529-.447-1.588.216-2.209.665-.62 1.072-1.53 1.924-1.59l.012-.012Zm10.669 4.353c.416.18.618.564.5.88-.128.316-.84.63-1.25.554-.407-.074-.525-.68-.382-.998.12-.264.716-.603 1.145-.426l-.013-.01Zm-14.508 8.656c-.806.554-2.064 1.369-2.973.426-.91-.942-.27-1.563.108-1.768.378-.203.553-.947.069-.842-.486.095-1.02-.17-1.355-1.161-.33-.99-.047-1.658 1.123-2.083 1.28-.462 2.94.197 3.487 1.365.546 1.166-.169 1.613.27 2.34.442.726.082 1.177-.727 1.733l-.002-.01Zm-6.393-13.556c-1.177.334-2.37.978-3.814.537a96.64 96.64 0 0 1-.819-1.29c-1.642-.225-2.942-.985-2.906-1.774.03-.654.502-1.133 1.31-1.314 1.47-.316 2.026-.062 2.898 1.234 1.192.28 2.29.446 3.284.816.998.36 1.037 1.517.037 1.801l.01-.01ZM75.989-69.585c-.627 1.003-1.53 1.251-2.51.757-.912.86-1.47 1.58-2.257 2.074-.763.468-2.278.455-3.385.153.374.47.591 1.082.554 1.841-.097 2.087-.824 2.743-2.948 2.87-2.04.052-3.38-1.11-3.496-3.022-.009-.123.008-.248.023-.374-.597.67-1.52 1.21-2.422 1.292-1.005.088-2.04-.84-2.163-1.921-.139-1.29.791-2.12 2.534-2.273 1.267-.109 2.642.615 2.683 1.412.004.114-.006.23-.028.343.623-.66 1.653-1.134 2.76-1.152.43-.01.811.046 1.16.145-.6-1.041-.397-2.875.46-3.66.868-.776 2.776-.925 4.175-.17.93.497 1.636 1.054 2.942.58.936-.343 1.576.332 1.88 1.106l.039-.001Zm-22.017-15.04c2.038-.094 4.08 1.006 4.204 2.264.13 1.362-1.698 3.064-3.323 3.107-1.574.04-3.348-1.382-3.416-2.746-.066-1.356 1.09-2.561 2.535-2.625Zm34.02 53.278c-.011.757-.858 1.49-1.763 1.531-.867.042-1.791-.757-1.767-1.514.022-.778.852-1.365 1.94-1.353.986.016 1.611.527 1.603 1.326l-.012.01ZM18.626-85.415c.215-.018.433 0 .64.053.206.053.396.14.56.256.165.116.297.258.393.418.095.16.148.334.157.511.082.846-.436 1.398-1.413 1.485-1.027.097-1.947-.45-2.076-1.222-.127-.752.672-1.44 1.74-1.501ZM46.81-59.99c-.375.204 1.505 2.087-.587 3.24-2.093 1.163-3.767.814-4.828-.847-.323-.514-1.047-.958-1.849-1.418h-.05c-.691.034-1.42-.442-1.569-.963-1.188-.797-2.023-1.763-1.316-3.225 1-2.027 3.18-2.074 4.11-1.566.93.517 1.285 1.65 2.028 1.804.74.151-.506-.776 1.983-.921 2.487-.146 4.587 2.547 2.078 3.876v.02Zm69.432-12.835c-.779.606-.422.486-.16 1.366.274.88-.025 2.23-1.965 2.1-1.952-.13-2.959-1.762-2.989-3.148-.032-1.388 2.648-3.18 4.656-2.795 1.445.287 1.224 1.862.444 2.478l.014-.001Z"/>
        <path fill="#07101F" d="M51.33-90.99c-.346-.656-1.063-1.072-1.886-.803-.647.21-1.462.658-1.633 1.14-.441 1.245.985 1.535 2.014 2.145 1.189-.71 2.108-1.325 1.52-2.49l-.015.008Zm-80.744-31.378c.12-.706-.826-1.935-1.52-1.984-.952-.068-2.277.825-2.357 1.589-.08.775.678 1.469 1.707 1.555.99.084 2.057-.493 2.17-1.17v.01Zm44.546 89.27c-.897-.039-1.97.81-1.99 1.6-.032.77.788 1.49 1.754 1.562.983.061 1.724-.481 1.867-1.395.16-.932-.561-1.706-1.631-1.767ZM44.48-17.442c-.12.854.616 1.608 1.722 1.756 1.07.145 1.972-.442 2.122-1.385.124-.728-.66-1.507-1.605-1.627-1.174-.137-2.117.393-2.24 1.256ZM-47.018-96.64c.377-.949-.375-2.05-1.3-2.23-.937-.17-2.225.516-2.367 1.264-.12.717.934 1.613 2.559 1.862.262-.2.945-.476 1.108-.896ZM57.176-49.055c.853-.005 1.78-.002 1.917-.729.153-1.269-.434-2.067-1.396-2.177-1.186-.137-2.255.533-2.286 1.46-.037.811.696 1.448 1.765 1.446Zm-84.712-69.407c-.292.216-.22 1.052.065 1.398.282.356 1.037.631 1.572.632.369-.002.9-.503 1.063-.86.312-.718.445-1.486.584-2.233.127-.655-.307-.955-1.185-1.026-.186.116-.6.244-.647.439-.182.763-.835 1.157-1.466 1.659l.014-.009Zm15.942 12.124c.777-.006 2.096-1.169 2.102-1.87-.002-.595-1.307-1.436-2.225-1.436-.8.001-1.344.566-1.266 1.316.12 1.215.662 1.989 1.39 1.978l-.001.012Zm-45.758 15.737c.07-.556-1.15-1.533-2.057-1.66-.995-.134-1.83.427-1.94 1.293-.12.844.4 1.457 1.312 1.552 1.135.13 2.61-.535 2.698-1.195l-.013.01Zm145.346 9.079c-.122.79.78 1.689 1.77 1.771.904.074 1.678-.423 1.834-1.19.203-.969-.44-1.754-1.517-1.846-.915-.085-1.965.556-2.076 1.266l-.01-.001h-.001Zm-24.19 45.637c-.124.791.78 1.69 1.77 1.773.902.073 1.675-.423 1.832-1.188.203-.97-.438-1.755-1.516-1.85-.913-.083-1.965.56-2.074 1.268l-.012-.003Zm-68.11-53.047c.702-.003 1.7-.19 2.06-.588.82-.92.157-2.02-.824-2.395a7.047 7.047 0 0 1 2.053.049C-.56-91.782.23-92.151.57-92.5c.556-.573 1.217-1.019 1.858-1.499.89-.66.989-1.756.3-2.421-1.015-.985-1.95-1.167-3.098-.41-.614.399-1.013 1.022-1.59 1.635l-1.31-.37a2.176 2.176 0 0 0-1.157-.044c-.381.09-.716.281-.951.543-.683.715-.45 1.514-.025 2.296.25.467.632.773 1.123.88-.695.267-1.31.895-1.381 1.608-.06.725.467 1.351 1.37 1.35h-.014ZM61.89-19.633c.885.102 1.949-.611 2.008-1.327.06-.724-.765-1.55-1.65-1.663a1.967 1.967 0 0 0-.64.009c-.212.038-.411.11-.587.213-.17.097-.32.227-.44.382-.115.15-.192.319-.226.494-.191.898.535 1.786 1.522 1.889l.013.003Zm-.65-87.123c-.13.76.34 1.21 1.216 1.437.953.246 1.82.01 2.297-.625.752-.977-.11-2.186-.895-2.422-.79-.238-2.403.36-2.607 1.612l-.011-.002Zm-45.08 49.04c-.552-.565-1.346-.824-2.054-.342-.531.367-1.154 1.026-1.11 1.513a1 1 0 0 0 .258.641c.163.188.393.329.658.406-.908.773-1.133 2.01-1.044 3.203.062.75.427 1.366.952 1.865.724.679 1.784.948 3.067.96 1.297.014 2.23.801 3.423.374 1.613-.577 3.755-2.085 3.416-4.57-.213-1.509-.996-2.434-2.14-2.965-1.333-.613-2.734.51-4.324.359a6.662 6.662 0 0 0-.82-.032c.216-.455.194-.918-.303-1.425l.022.013Zm-40.58 5.624c.327.319 1.372.46 1.887.269 1.288-.459 1.354-1.966.638-2.602-.717-.647-2.387-.559-2.967.608-.232.465.027 1.322.455 1.725h-.012ZM82.794-41.061c-.128.738.702 1.471 1.73 1.557.993.074 1.724-.478 1.868-1.403.154-.964-.29-1.644-1.088-1.672-.947-.037-2.395.843-2.512 1.527l.002-.009Zm-10.21-71.617c-.908-.043-1.934.664-2.028 1.741.383.285.89.897 1.58 1.102.957.288 1.963-.537 2.043-1.458.06-.735-.648-1.35-1.596-1.385Zm-3.044-1.838c.125-.81-.606-1.593-1.526-1.647-1.031-.067-2.031.643-2.07 1.463-.04.759.77 1.532 1.65 1.591.855.058 1.84-.643 1.943-1.395l.003-.012Zm-22.5 16.834c-.078-.5-.483-1.184-.985-1.378-1.385-.526-2.15.295-2.841 1.22.494.83.974 1.741 2.302 1.634.904-.074 1.653-.657 1.525-1.476ZM16.475-26.358c-.217.748.488 1.53 1.496 1.667 1.094.147 1.96-.308 2.11-1.115.169-.838-.45-1.6-1.408-1.72-.873-.112-2.006.48-2.197 1.158l-.001.01Zm-.186-81.572c.31-.549.27-1.137.17-1.368-.32-.802-1.134-.958-1.974-1.107-.765-.151-1.456-.492-2.315.005-1.003.575-.908 2.027-.032 2.775.389.328 1.01.566 1.656.663-.111.947.57 1.727 1.587 1.803.842.065 1.77-.528 1.87-1.185.099-.584-.347-1.243-.975-1.587l.013.001ZM56.35-90.953c-.164-.385-.844-.797-1.355-.858-.974-.11-1.75.405-1.943 1.168-.258 1.056 1.047 1.687 1.76 1.832.713.145 2.012-1.053 1.525-2.145l.013.003Zm-39.788-40.01c.846.484 1.77.947 2.744.316.757-.487.908-1.295.3-1.908-.37-.368-1.233-.749-1.723-.638-1.267.271-1.487 1.186-1.333 2.22l.012.01Zm-42.69 39.011c.88.06 1.656-.468 1.815-1.243.168-.838-.323-1.458-1.265-1.6-1.016-.159-1.972.369-2.094 1.16-.12.78.649 1.633 1.54 1.692l.004-.009Zm82.362 62.98a2.146 2.146 0 0 0-1.356.198c-.402.21-.688.541-.795.923-.258.85.165 1.41 1.18 1.578 1.104.18 1.974-.23 2.19-1.042.185-.71-.395-1.487-1.22-1.656v-.001Zm33.257-99.91c-.26.701.335 1.461 1.224 1.615.817.136 1.73-.375 1.97-1.1.24-.735-.35-1.597-1.2-1.612-.927-.014-1.705.295-1.994 1.097ZM49.18-146.345c-.635 1.034.139 1.709 1.385 2.312.974-.483 2.08-.774 1.837-1.878-.16-.708-.814-1.202-1.706-1.117-.542.042-1.292.332-1.518.692l.002-.009Zm30.257 90.538c-.112.728.334 1.24 1.16 1.47.706.197 2.228-.818 2.034-1.395-.195-.576-.71-.834-1.283-1.057-.824-.316-1.785.243-1.897.973l-.014.009Zm-93.77-48.642c-1.082.22-2.15.504-1.89 1.591.246 1.019 1.283 1.129 2.33.968.807-.942.79-1.728-.44-2.559Zm-7.75-36.982c-.534-.741-2.91-.085-3.184.845-.275.929.556 2.103 1.475 2.083.92-.019 2.255-2.185 1.709-2.928ZM68.39-95.668c-.27.232-.318.894-.1 1.17.64.795 1.57.724 2.573.213.08-.775.293-1.638-.892-1.931-.44-.104-1.21.224-1.581.538v.01ZM-35.58-68.764c-.25.356.309 1.696 1.108 1.789.86.099 1.694-.454 1.82-1.2.118-.688-.466-1.362-1.335-1.262-.637.072-1.34.315-1.592.673Zm88.174-58.867c-.177.89 1.262 1.253 1.864 1.522.689.298 1.468-.248 1.648-1.003.188-.803-.21-1.37-1.16-1.324-.67.038-2.173-.093-2.352.805ZM88.64-108.36c.063.529.482 1.864 1.138 1.907.655.045 1.446-1.096 1.712-1.599.282-.543-.578-1.238-1.403-1.259-.796-.019-1.532.262-1.447.951ZM-37.52-66.637c-.123-.537-.56-1.183-1.11-1.467-.61-.299-1.761.478-1.698 1.163.038.444.526.866.689 1.104 1.315.193 2.248-.21 2.122-.812l-.002.012Zm5.094-60.813c.187-.72-.417-1.501-1.268-1.577-.954-.08-1.482.403-1.623 1.076-.131.623.255 1.107 1.066 1.283.872.185 1.665-.143 1.825-.782Zm41.008 5.653c.335-.328.96-.716 1.189-1.223.288-.646-.28-1.118-1.08-1.211-.697-.081-1.44-.063-1.681.684-.212.655.414 1.521 1.572 1.75Zm15.755 83.534c-.307-.215-1.176-.272-1.398-.09-.417.36-.87.998-.751 1.418.247.856 1.244.762 2.092.713.743-.698.945-1.427.044-2.044l.013.003Zm53.272-25.313c.008-.332-.46-.888-.825-.973-.502-.11-1.343-.039-1.671.247-.868.757-.138 1.396.472 1.998 1.123-.017 1.988-.314 2.024-1.272Zm-127.44-19.897c-.942-.213-1.714.879-2.414 1.247.024.16.062.31.085.47.57.755.935.776 1.759.798.823.022 1.32-.212 1.522-.336-.273-.638.004-1.964-.94-2.178l-.01-.001h-.001Zm8.64-12.14c.218-.676-.558-.973-1.31-1.05-.874-.09-1.73.449-1.552 1.054.137.465.25 1.576 1.267 1.525 1.013-.05 1.448-1.034 1.595-1.53v.001ZM-1.147-29.71c.084.846.038 1.709.045 2.556-.438.933.058 1.596 1.028 1.811 1.028.224 1.892-.209 2.379-1.125.264-.492.513-1.059.978-1.403.918-.678 1.346-1.465.973-2.406C3.97-31 1.743-31.663.725-31.374c-.961.265-1.992.502-1.862 1.666l-.011-.002Zm.705-9.48c1.074.186 1.9-.251 2.084-1.108.195-.908-.498-1.772-1.508-1.887-.9-.105-1.744.518-1.883 1.411-.13.76.428 1.442 1.307 1.584Zm-9.565 1.467c-.14.736.416 1.365 1.25 1.262.597-.077 1.13-.434 1.524-.597.08-.974-.74-1.611-1.627-1.64-.85-.026-1.033.455-1.134.975h-.013Zm85.855-13.683c-.141.737.414 1.366 1.247 1.263.597-.076 1.287-.166 1.527-.597.24-.432-.742-1.612-1.63-1.64-.848-.026-1.03.454-1.133.976l-.011-.002ZM-9.786-30.673c.076-.974-.744-1.612-1.63-1.641-.847-.024-1.03.456-1.133.977-.138.736.416 1.365 1.248 1.261.597-.077 1.13-.434 1.526-.596l-.011-.001ZM95.422-80.165c.05.527.492 1.812 1.188 1.902.698.092 1.355-1.223 1.505-1.727.18-.617-.298-1.09-1.227-1.082-.79.002-1.55.207-1.478.904l.012.003ZM63.05-139.96c-.104.45.487 1.019.694 1.367 1.33.174 1.75-.331 1.872-.903.125-.58-.094-1.305-.964-1.282-.576.018-1.505.465-1.59.821l-.012-.003Zm-106.227 14.813c-.308-.349-1.548-.178-2.35-.177-.216.006-.75-.003-.81.585-.064.589 1.005 1.631 2.008 1.57 1.004-.062 1.857-1.186 1.166-1.976l-.014-.002Zm39.283 57.33c.47.034.942-.026 1.378-.174-.192.385-.126.81.192 1.254.512.729 1.368.995 2.217.8 1.336-.295 1.224-1.343 1.432-2.343-.775-.383-1.481-.715-2.17-.698.325-.31.546-.685.642-1.087.22-1.292-1.268-2.927-2.87-3.143-1.555-.211-3.04.663-3.256 1.914-.307 1.793.767 3.328 2.436 3.467l-.001.01ZM-17.5-80.055c-1.26-.156-2.822.583-3.072 1.453-.314 1.082 1.008 2.656 2.358 2.791.9.094 2.007-.866 2.255-1.945.236-1.091-.483-2.167-1.541-2.299Zm-7.673-6.916c.493-1.532-1.233-2.39-2.142-2.798-.91-.408-2.542 1.024-2.477 2.36.04.872.63 1.295 1.567 1.475 1.234.226 2.807-.27 3.052-1.037Zm41.569 25.437c1.543.272 2.985-.575 3.224-1.896.206-1.126.166-2.009-.093-2.654 1.26-.148 2.534-1.056 2.713-2.478.139-1.113-.58-1.802-1.857-2.147-1.436-.396-2.747-.015-3.394.946-.546.814-.495 1.709-.086 2.425-1.465.238-3.217 1.489-3.472 2.6-.234 1.079 1.479 2.96 2.95 3.213l.015-.009Zm-3.067-6.029c.135-.788-.45-1.526-1.287-1.622-.861-.099-2.052.766-2.108 1.534-.024.36.119.713.4.99.28.277.68.456 1.114.5.964.091 1.739-.488 1.88-1.402Zm-32.196-31.2c.014-.834-.736-1.58-1.675-1.605-.987-.03-1.425.463-1.527 1.203-.138.873.534 1.63 1.49 1.698a1.87 1.87 0 0 0 .643-.064c.2-.055.39-.147.557-.271.16-.121.289-.268.376-.432a1.1 1.1 0 0 0 .134-.52l.002-.009Zm30.306 73.288c.242-.682-.3-1.676-1.072-1.628-.641.04-2.142.253-2.216.988-.087.731 1.084 1.097 1.603 1.261.638.21 1.404.12 1.685-.621Zm-25.73-55.726c-.44.492.275 1.233 1.05 1.375 1.035.203 1.61-.262 1.637-.856.018-.48-.04-1.332-.824-1.444-.78-.11-1.457.49-1.864.934l.002-.009ZM7.09-71.199c.279.774 2.117 1.027 2.595.247.475-.77-.426-1.754-1.664-1.802-.633-.02-1.15.924-.93 1.555Zm-45.426-14.836c-.012-.67-1.287-1.318-1.86-1.406-.817-.125-1.444.419-1.538 1.192-.1.804.626 1.097 1.318 1.072.577-.027 2.093-.187 2.08-.858Zm145.854 14.75c-.006.478.412 1.677.902 1.724.488.045 1.43-.85 1.708-1.288.38-.594-.235-1.155-1.195-1.34-.974-.186-1.42.338-1.429.911l.014-.007ZM-42.967-92.076c-.116-.422-.577-.934-1.033-1.092-.71-.238-1.792.589-1.64 1.254.084.406.586.746.742.942 1.248.07 2.092-.48 1.93-1.094v-.01Zm7.71 39.964c.402.476 3.226-.629 3.398-1.268.172-.639-1.377-1.32-2.725-1.026-1.347.294-1.072 1.81-.67 2.285l-.003.009ZM8.38-139.369c-.577-.577-1.18-.471-2.603.556-.13 1.219 1.65 1.591 2.34 1.191.567-.333.706-1.288.259-1.737l.004-.01Zm3.256-11.006c-.577-.578-2.224-.611-2.602.557-.133 1.219 1.648 1.592 2.34 1.19.568-.331.703-1.287.26-1.735l.002-.012Zm71.009 73.647c-.06.35.579 1.364 1.072 1.39.504.027 1.41-.965 1.335-1.184-.175-.459-.764-1.27-1.233-1.197-.47.06-1.125.623-1.187.991h.013Zm-4.467-26.851c-.07.557 1.42 1.063 1.96 1.104.354.02.95-.569 1.097-.98.19-.521-.156-1.105-.962-1-.572.07-2.026.32-2.095.876Zm29.847 49.031c-.005.408.265 1.13.654 1.236.392.097 1.221-.372 1.379-.698.142-.307-.192-1.411-.674-1.49-.483-.076-1.354.702-1.359.952ZM73.051-22.254c-.172.407.487 2.062 1.38 2.185.896.125 1.837-1.501 1.942-2.127.079-.461-.514-1.45-1.398-1.571-.881-.123-1.655.895-1.924 1.512v.001ZM-49.34-68.566c.364.095 1.444.115 1.679-.516.235-.632-.871-1.009-1.246-1.043-.387-.044-1.167.043-1.274.596-.106.551.474.88.852.975l-.011-.012Zm141.67 27.54c-.1.21.247 1.02.558 1.057.3.034.875-.578 1-.867.066-.16-.356-.67-.523-.658-.375.031-.904.222-1.035.468ZM8.125-16.234c.067-.16-.16-.626-.523-.655-.364-.032-.902.22-1.034.466-.1.207.1.982.557 1.056.458.073.875-.578 1-.867ZM84.76-45.277c-.013.374.624.742.878.75.392.013 1.17 0 1.194-.364.023-.364-.391-.767-.696-.844-.304-.077-1.35.085-1.363.459l-.013-.001ZM83.5-30.6c-.026.435.645.837.959.862.297.035.85-.298.945-.55.075-.21-.31-.724-.591-.778-.323-.058-1.301.018-1.313.466Zm-135.466-77.594c.193.074 1.006-.074 1.1-.48.096-.406-.723-.678-1.082-.742-.22-.045-.786.213-.831.479-.047.267.465.619.802.741l.01.002Zm159.022 24.879c.086-.365-.412-.727-.718-.793-.304-.077-1.277.104-1.351.461-.075.356.722.835 1.023.86.324.037.954-.152 1.042-.518l.004-.01Zm9.89-6.499c.189.075 1.003-.072 1.099-.478.095-.408-.724-.681-1.081-.743-.222-.046-.788.213-.833.48-.046.266.467.618.801.74l.014.001Zm-134.48 59.282c.088-.366-.41-.726-.716-.794-.305-.077-1.278.104-1.352.462-.073.357.724.836 1.023.86.326.038.956-.151 1.044-.517v-.011Zm2.78 12.005c.194.075 1.007-.073 1.1-.48.097-.405-.721-.678-1.081-.74-.22-.046-.786.211-.833.479-.045.266.467.617.804.74l.01.001ZM-47.555-80.19c.236-.036.607-.044.679-.245.074-.2-.22-.265-.37-.44-.237.12-.476.186-.564.322-.051.078.188.387.255.374v-.011ZM88.142-39.075c-.022.28.322.424.496.444.175.02.463-.26.46-.385.01-.134-.111-.4-.347-.426-.236-.03-.588.098-.61.367Zm4.863-47.042c-.022.278.322.423.496.443.175.02.465-.26.462-.386.01-.135-.113-.399-.35-.428-.235-.026-.586.101-.608.371ZM33.588-19.523c.01-.135-.111-.4-.347-.427-.237-.027-.59.098-.61.368-.023.28.32.424.496.445.176.019.465-.261.46-.386ZM82.263-141.16c-.1.209-.15.883.557 1.057.696.176.873-.577 1.002-.866.065-.159-.357-.669-.525-.657-.373.03-.902.22-1.034.466Zm9.21 78.736c-.102.209-.152.88.556 1.056.695.174.874-.578 1.002-.868.065-.16-.357-.666-.525-.654-.374.03-.903.22-1.034.466Zm-21.314-74.165c-.015.376.623.742.876.751.392.013 1.17-.001 1.194-.366.025-.363-.39-.766-.694-.843-.306-.075-1.35.085-1.365.46l-.011-.002Zm7.032-.506c-.048.581.428.928 1.037.927.613-.004.96-.548.98-.808.01-.292-.046-.778-.736-.901-.68-.12-1.231.194-1.28.773l-.001.009Zm-77.806 13.87c-.51-.144-.804.011-.952.433-.13.384-.006.627.484.747.487.118.82.031.984-.399.16-.421.014-.679-.503-.78l-.013-.001Zm11.713.023c.22.727.71 1.286 1.352 1.704.855.569 1.972.666 3.236.488 1.276-.176 2.377.463 3.458-.134 1.46-.804 3.246-2.604 2.355-4.995-.54-1.454-1.51-2.255-2.75-2.596-1.443-.407-2.572.905-4.163.994-3.762.194-4.095 2.515-3.477 4.551l-.011-.012Zm8.732 7.791c.569.986 2.933 1.822 4.487.926 1.566-.896 1.875-2.042 1.545-3.083-.344-1.032-2.445-1.327-4.224-.969-1.29.258-2.375 2.131-1.807 3.116l-.001.01ZM9.363-113.87c1.12.515 3.65.609 4.367-1.282.708-1.904-.164-3.354-1.577-3.789-1.416-.435-4.07.576-4.535 1.881-.592 1.677.64 2.665 1.76 3.192l-.015-.002ZM36.49-78.604c1.326-.62 2.024-3.277 1.33-4.277-.694-1.01-2.392-.674-2.638-.942-.25-.269.742-1.962-.17-3.185-.91-1.224-3.661-1.416-4.751-.925-1.09.49-1.858.967-2.21 1.762-.42.965-.15 2.438.93 3.044 1.08.605 3.083.49 3.326.864.254.375-.955 2.01.083 3.166 1.034 1.165 2.747 1.111 4.087.493h.013ZM3.179-36.932c.577.714 2.037 1.259 3.036.988 1.405-.393 1.646-1.588 1.575-1.983 1.609.04 3.212-.924 3.4-2.104.208-1.22-.33-2.233-1.326-2.808a2.585 2.585 0 0 0 1.646-1.148c1.115-1.763.568-3.32-.722-3.95-.87-.424-2.42-.3-3.585.202-.034-.703-.575-1.257-1.383-1.36-.86-.11-1.805.512-1.982 1.317-.176.806.466 1.591 1.412 1.72.116.017.234.025.352.021-.322 1.206.504 2.107 1.334 2.682l.184.116c-1.086.251-1.803 1.024-2.044 2.282-.08.472-.076.89.01 1.267a1.895 1.895 0 0 0-1.28.05c-1.114.426-1.334 1.862-.628 2.719v-.011ZM38.685-56.11c-.568-1.362-2.734-1.265-2.966-1.627-.23-.363 1.43-2.27.658-3.927-.77-1.658-4.092-2.406-5.56-2-1.457.406-2.536.847-3.176 1.754a3.336 3.336 0 0 0-.553 2.122c-.297.066-.57.209-.793.414a1.26 1.26 0 0 0-.39.703c-.11.718.71 1.65 1.535 1.735.282.027.567-.01.824-.108a1.49 1.49 0 0 0 .634-.446c1.208.515 2.734.744 2.885 1.126.208.495-1.713 2.28-.754 3.886.96 1.605 3.067 1.858 4.857 1.354 1.793-.504 3.356-3.625 2.788-4.987l.01.001ZM-30.47-73.62c1.6-1.707-.805-2.739.67-3.477 1.476-.74 1.664.683 3.645-.478 1.98-1.162 1.945-3.266.354-3.784-1.592-.519-2.714.324-3.035.11-.32-.215-1.407-1.438-2.502-.77-2.328 1.413-.248 2.794-.783 3.39-.535.597-2.255 1.057-3.133 1.874-1.228 1.155-1.54 2.75.085 3.68 1.877 1.074 3.592.644 4.71-.544l-.011-.001Zm103.582-.33c.7-1.329.335-3.003-1.242-3.069-1.58-.067-2.621.513-3.91 1.202-.953.515-.501 1.665-1.793 1.339-1.293-.328-4.062-.72-4.5 1.32-.21 1 .828 2.216 2.023 2.521l.05.007c-.87.4-1.555 1.21-1.66 2.128-.151 1.249 1.448 2.686 3.05 2.766 1.54.074 2.992-.836 3.103-1.93.1-1.034-1.105-2.458-2.362-3 .494-.142.916-.376 1.115-.709.462-.773 2.265.585 2.99-.449.677-.988 2.449-.784 3.146-2.114l-.01-.012Zm-38.914 4.51c2.156.853 3.08-.001 4.416.656 1.328.654 2.222.256 3.379-.708.163-.138.357-.294.536-.452.126.528.583.977 1.126.925.494-.058 1.146-.525 1.302-.925.247-.621-.087-1.202-1.09-1.213-.086-.01-.164-.008-.252-.009.395-.675.443-1.4-.421-2.075-1.675-1.292-2.934-.548-3.367-.096-.433.452-1.87.589-1.613-.02.255-.607-.193-1.328-2.032-1.885-1.84-.558-3.146-.28-4.106 1.167-1.057 1.582-.01 3.782 2.133 4.646l-.01-.012-.001.001Zm-46.885-58.93c-.12.634.07.929.373 1.255.285.326.412.779 1.126 1.061.718.281 2.253.531 3.283.003 1.02-.532 1.48-1.293 1.432-2.124-.05-.831-.793-1.387-1.41-1.637-.62-.251-1.89-.5-2.698-.009-.808.493-1.947.749-2.091 1.442l-.015.009Zm4.386 9.096c.183.356.632.554 1.025.484.395-.078.835-.635.778-.976-.056-.34-.782-.487-1.18-.397-.33.077-.791.535-.612.902l-.011-.013Zm11.717-11.148c.74-.614 1.834-1.574.767-2.398-1.068-.823-1.873-.352-2.154-.06-.278.292-1.195.374-1.028-.014.156-.39-.121-.849-1.294-1.206-1.174-.353-2.007-.178-2.62.744-.67 1.009-.01 2.424 1.362 2.968 1.369.545 1.97-.002 2.815.418.844.423 1.422.166 2.164-.449l-.012-.003Zm-15.908-6.371c.504-.934 1.385-1.856.97-3.075a124.87 124.87 0 0 0-1.496-.779c-.134-1.363-.947-2.49-1.907-2.529-.796-.03-1.417.317-1.705.963-.506 1.176-.244 1.654 1.255 2.475.239 1 .349 1.913.714 2.757.352.847 1.754.976 2.182.181l-.013.007ZM1.435-50.981c1.269-.429 1.646-1.148 1.129-1.992 1.12-.674 2.04-1.07 2.704-1.673.633-.585.744-1.827.47-2.758.54.346 1.264.575 2.188.609 2.54.095 3.396-.445 3.728-2.173.234-1.666-1.063-2.86-3.372-3.116-.15-.017-.302-.014-.457-.012.864-.433 1.596-1.143 1.77-1.874.19-.815-.846-1.74-2.15-1.932-1.552-.221-2.637.47-2.97 1.884-.236 1.028.526 2.213 1.489 2.314.14.013.28.015.42.006-.855.455-1.514 1.258-1.63 2.163-.048.351-.012.668.079.961-1.213-.579-3.454-.565-4.48.07C-.66-57.86-1-56.31-.202-55.1c.526.803 1.143 1.427.457 2.456-.493.737.27 1.317 1.186 1.632l-.005.031Zm-16.398-19.283c-.286 1.66.877 3.424 2.393 3.631 1.64.22 3.86-1.133 4.047-2.46.182-1.284-1.395-2.855-3.044-3.027-1.64-.167-3.197.678-3.396 1.856Zm61.777 32.315c.92.054 1.88-.577 2.006-1.315.123-.707-.768-1.53-1.69-1.574-.944-.047-1.726.584-1.802 1.474-.064.809.503 1.364 1.473 1.425l.013-.01Zm-59.772-61.315c-.04.175-.037.354.01.528.048.173.137.337.264.48.127.144.288.266.474.356.186.091.393.15.607.173 1.02.138 1.732-.24 1.92-1.034.204-.832-.383-1.631-1.308-1.801-.901-.167-1.804.429-1.967 1.298Zm28.48 25.201c.278-.29 2.405 1.406 3.978-.208 1.588-1.616 1.305-3.016-.621-4.024-.597-.308-1.074-.938-1.566-1.632l.006-.041c.098-.563-.42-1.199-1.038-1.364-.867-1.04-1.968-1.805-3.802-1.348-2.543.648-2.783 2.428-2.245 3.232.55.805 1.895 1.19 2.019 1.811.122.62-.898-.48-1.284 1.545-.385 2.025 2.706 3.97 4.529 2.027l.024.002ZM-5.872-18.307c.8-.587.625-.305 1.67-.017 1.044.298 2.707.167 2.713-1.432.006-1.609-1.89-2.57-3.57-2.711-1.68-.143-4.08 1.901-3.78 3.577.228 1.207 2.156 1.158 2.97.571l-.003.012Zm384.656 238.006c.897-.395 1.416-1.122.954-1.882-.36-.598-1.076-1.334-1.777-1.45-1.807-.301-2.078 1.092-2.842 2.136 1.124 1.067 2.084 1.886 3.679 1.21l-.014-.014Zm36.561-80.293c1.014.046 2.662-.98 2.663-1.647.003-.919-1.392-2.098-2.483-2.099-1.105-.002-2.015.792-2.036 1.784-.022.955.9 1.919 1.871 1.962h-.015Zm-122.159 51.348c-.033-.862-1.34-1.805-2.463-1.747-1.094.046-2.036.9-2.042 1.831.01.946.851 1.602 2.161 1.649 1.336.062 2.362-.703 2.344-1.733Zm-19.315 29.6c-1.221-.031-2.219.746-2.319 1.818-.101 1.038.819 1.843 2.171 1.894 1.043.047 2.071-.779 2.148-1.695.079-1.135-.765-1.986-2-2.017Zm103.286-95.263c1.382.268 2.868-.559 3.033-1.461.149-.913-.949-2.078-2.023-2.14-1.028-.045-2.194 1.051-2.389 2.63.31.23.769.857 1.379.971Zm-57.236 104.307c.092.815.178 1.702 1.222 1.762 1.813.023 2.887-.617 2.949-1.547.078-1.148-.977-2.105-2.294-2.044-1.153.044-1.985.806-1.877 1.829Zm90.073-87.813c-.335-.259-1.513-.107-1.976.199-.476.305-.793 1.054-.741 1.565.039.353.802.812 1.324.932 1.047.229 2.149.28 3.221.34.94.057 1.324-.387 1.338-1.233-.182-.167-.405-.551-.685-.577-1.1-.098-1.722-.684-2.495-1.239l.014.013Zm-15.622 16.433c.085.743 1.863 1.89 2.856 1.827.844-.059 1.907-1.39 1.818-2.268-.08-.765-.934-1.23-1.989-1.082-1.711.235-2.755.828-2.668 1.524l-.017-.001Zm-26.788-42.217c.796.012 2.06-1.251 2.15-2.131.093-.964-.784-1.708-2.022-1.728-1.207-.031-2.025.526-2.071 1.406-.073 1.099 1.015 2.445 1.958 2.464l-.015-.011Zm1.375 139.889c-1.134-.04-2.318.911-2.338 1.867-.016.87.764 1.562 1.866 1.636 1.393.099 2.443-.591 2.468-1.631.03-.883-.981-1.825-1.998-1.861l.002-.011Zm-67.054-18.663c-1.134-.04-2.32.912-2.34 1.868-.014.869.764 1.559 1.864 1.635 1.394.099 2.444-.592 2.472-1.631.029-.882-.984-1.825-1.999-1.86l.003-.012Zm68.511-70.331c.073.67.437 1.607 1.035 1.913 1.385.693 2.88-.05 3.314-1.024a4.61 4.61 0 0 1 .133 1.968c-.076.444.525 1.163 1.052 1.453.865.476 1.563 1.064 2.306 1.631 1.021.786 2.587.773 3.461.049 1.297-1.067 1.463-1.979.277-3.003-.625-.548-1.547-.868-2.473-1.36l.397-1.29a1.443 1.443 0 0 0-.052-1.11c-.165-.356-.468-.657-.863-.857-1.079-.582-2.19-.281-3.256.202-.638.285-1.034.68-1.139 1.16-.445-.639-1.396-1.165-2.413-1.163-1.032.013-1.869.579-1.778 1.443l-.001-.012Zm-91.733 70.093c-.058.857 1.057 1.804 2.077 1.79 1.033-.012 2.124-.882 2.196-1.74a1.303 1.303 0 0 0-.076-.612 1.489 1.489 0 0 0-.358-.54 1.9 1.9 0 0 0-.586-.384 2.248 2.248 0 0 0-.722-.167c-1.291-.095-2.479.687-2.528 1.641l-.003.012Zm123.418-9.157c-1.089-.051-1.682.443-1.917 1.303-.255.936.163 1.741 1.11 2.135 1.459.624 3.088-.317 3.346-1.093.259-.778-.747-2.263-2.54-2.335l.001-.01Zm-73.922-38.306c.746-.584 1.035-1.369.282-1.999-.571-.472-1.567-1.003-2.252-.914a1.81 1.81 0 0 0-.884.31 1.311 1.311 0 0 0-.51.669c-1.185-.793-2.961-.886-4.642-.684-1.056.132-1.895.542-2.551 1.093-.891.759-1.169 1.799-1.06 3.027.108 1.242-.917 2.211-.195 3.31.977 1.486 3.324 3.387 6.813 2.819 2.117-.351 3.352-1.191 3.992-2.337.738-1.334-.991-2.564-.932-4.1.012-.263 0-.526-.035-.787.666.162 1.319.096 1.989-.43l-.015.023Zm-11.948-38.258c-.42.344-.518 1.357-.196 1.83.776 1.187 2.918 1.103 3.751.356.845-.749.557-2.337-1.154-2.778-.682-.177-1.87.156-2.4.604l-.001-.012Zm-5.13 103.613c-1.058-.05-2.016.815-2.037 1.808-.007.957.847 1.601 2.171 1.648 1.382.053 2.302-.439 2.265-1.205-.041-.908-1.43-2.207-2.412-2.252l.013.001Zm100.505-16.782c-.028-.872-1.13-1.783-2.666-1.768-.366.394-1.185.938-1.407 1.619-.314.943.953 1.824 2.267 1.811 1.047-.014 1.849-.752 1.806-1.662Zm2.306-3.091c1.162.04 2.2-.735 2.186-1.62-.006-.993-1.111-1.88-2.277-1.836-1.08.035-2.096.886-2.093 1.733.001.823 1.092 1.697 2.168 1.722l.016.001Zm-26.063-19.867c.7-.124 1.631-.578 1.857-1.078.61-1.376-.629-2.025-2.008-2.597-1.127.553-2.373 1.102-2.09 2.362.193.857 1.092 1.516 2.241 1.313Zm-104.085-22.243c-1.081-.134-2.12.617-2.216 1.594-.101 1.06.628 1.844 1.787 1.909 1.204.078 2.224-.588 2.3-1.516.073-.845-.876-1.871-1.856-1.988l-.015.001Zm115.597-8.171c.807.242 1.638.147 1.956.028 1.104-.384 1.246-1.177 1.375-1.996.139-.746.555-1.44-.234-2.214-.913-.902-2.962-.669-3.936.243-.427.403-.704 1.022-.778 1.648-1.354-.014-2.392.715-2.399 1.694-.011.812.921 1.641 1.862 1.672.837.038 1.727-.453 2.153-1.087l.001.012Zm-20.137 39.976c.53-.195 1.047-.885 1.083-1.38.061-.942-.746-1.633-1.846-1.744-1.521-.143-2.288 1.167-2.424 1.862-.135.698 1.69 1.822 3.19 1.25l-.003.012Zm52.808-41.971c-.603.856-1.167 1.786-.178 2.655.765.677 1.923.742 2.734.1.484-.389.94-1.252.735-1.709-.508-1.186-1.827-1.307-3.277-1.058l-.014.012Zm-59.474-37.004c.003.847.825 1.539 1.94 1.614 1.204.079 2.035-.451 2.144-1.366.125-.987-.716-1.849-1.85-1.889-1.117-.039-2.25.781-2.247 1.64l.013.001Zm-81.194 84.937c.072-.453-.076-.912-.412-1.277-.337-.364-.835-.605-1.387-.67-1.228-.164-1.981.296-2.121 1.284-.147 1.073.521 1.865 1.692 1.992 1.026.107 2.069-.524 2.228-1.329Zm144.865 22.015c-1.019-.18-2.038.464-2.169 1.33-.113.795.702 1.617 1.752 1.775 1.066.158 2.229-.491 2.167-1.305-.071-.887-.585-1.601-1.75-1.8Zm20.801-40.261c-1.527-.506-2.409.3-3.141 1.551.781.884 1.301 1.913 2.842 1.572.987-.222 1.624-.896 1.416-1.74-.113-.514-.598-1.204-1.13-1.384l.013.001Zm-125.357 37.807c-1.043-.036-1.725.44-1.971 1.254-.209.693 1.378 2.049 2.177 1.808.798-.243 1.113-.76 1.373-1.331.366-.819-.519-1.683-1.565-1.718l-.014-.013Zm59.754-94.443c-.418-1.012-.925-2.004-2.44-1.65-1.421.335-1.475 1.338-1.144 2.322 1.414.681 2.526.587 3.584-.672Zm51.656-11.033c.998-.585-.165-2.792-1.51-2.963-1.344-.172-2.926.737-2.807 1.614.117.878 3.318 1.943 4.317 1.349Zm-55.997 91.006c-.354-.235-1.298-.216-1.668.02-1.063.689-.872 1.571-.049 2.481 1.105.002 2.35.12 2.649-1.042.104-.432-.437-1.134-.917-1.459h-.015Zm-48.319-96.792c-.53-.205-2.374.46-2.427 1.233-.055.833.809 1.576 1.88 1.624.986.045 1.884-.58 1.657-1.401-.164-.602-.578-1.25-1.11-1.456Zm92.073 78.554c-1.278-.081-1.651 1.33-1.973 1.932-.355.688.495 1.38 1.582 1.478 1.157.101 1.922-.335 1.763-1.24-.119-.635-.081-2.087-1.372-2.17Zm-23.781 36.359c-.743.112-2.594.644-2.592 1.275.001.63 1.696 1.275 2.435 1.48.797.217 1.698-.673 1.646-1.464-.05-.764-.521-1.44-1.489-1.291Zm-71.496-116.561c.749-.172 1.621-.653 1.97-1.206.364-.614-.849-1.638-1.815-1.51-.625.079-1.176.587-1.498.767-.143 1.276.52 2.129 1.359 1.95l-.016-.001Zm86.69-1.089c1.039.109 2.088-.546 2.112-1.366.02-.921-.717-1.379-1.684-1.447-.896-.065-1.544.352-1.715 1.145-.176.852.366 1.579 1.287 1.668Zm-3.993 39.772c.498.288 1.109.848 1.849 1.017.945.212 1.558-.377 1.611-1.15.047-.676-.052-1.384-1.135-1.542-.948-.139-2.114.545-2.325 1.675Zm-116.852 23.252c.275-.315.271-1.152-.009-1.346-.551-.363-1.5-.733-2.084-.579-1.189.32-.957 1.264-.805 2.07 1.062.642 2.115.764 2.901-.158l-.003.013Zm41.096 48.466c.472-.026 1.214-.527 1.299-.885.106-.491-.077-1.288-.513-1.574-1.159-.755-1.993.005-2.786.648.134 1.072.639 1.87 2 1.811Zm15.715-123.824c.21-.923-1.415-1.555-2.005-2.188-.224.038-.434.09-.658.128-1.014.618-1.007.97-.958 1.76.05.789.43 1.242.626 1.422.876-.323 2.784-.188 2.993-1.111l.002-.011Zm18.052 7.072c.98.142 1.325-.629 1.36-1.355.042-.845-.805-1.61-1.646-1.382-.645.177-2.209.395-2.038 1.361.17.964 1.608 1.284 2.324 1.376Zm-89.484 44.753c-1.19.163-2.417.203-3.618.293-1.365-.328-2.256.212-2.466 1.161-.217 1.005.481 1.789 1.828 2.164.722.205 1.55.387 2.084.799 1.051.811 2.208 1.143 3.505.694.998-.342 1.719-2.537 1.209-3.483-.469-.893-.907-1.856-2.544-1.617l.002-.011Zm13.507-.255c-.159 1.046.541 1.793 1.773 1.884 1.306.098 2.462-.65 2.527-1.627.061-.869-.905-1.616-2.185-1.662-1.09-.05-2 .551-2.115 1.405Zm-3.018-9.003c-1.057-.061-1.893.531-1.666 1.318.167.564.726 1.038.996 1.399 1.387-.019 2.211-.866 2.165-1.716-.047-.814-.747-.943-1.494-.989l-.001-.012Zm27.806 80.765c-1.059-.063-1.896.53-1.669 1.316.168.564.362 1.215.996 1.402.637.186 2.213-.867 2.166-1.719-.047-.814-.745-.942-1.494-.989l.001-.01Zm-37.774-79.864c1.387-.022 2.211-.869 2.165-1.719-.049-.813-.747-.94-1.496-.987-1.057-.061-1.894.531-1.665 1.316.168.564.726 1.038.994 1.401l.002-.011Zm80.453 95.766c-.742.098-2.52.647-2.58 1.322-.061.676 1.866 1.176 2.596 1.269.891.114 1.516-.391 1.414-1.278-.082-.755-.447-1.463-1.427-1.326l-.003.013Zm81.578-36.818c-.648-.055-1.396.566-1.869.798-.117 1.291.641 1.641 1.463 1.702.835.063 1.841-.218 1.723-1.048-.082-.548-.807-1.393-1.32-1.439l.003-.013Zm-31.403-100.136c.464-.329.101-1.498.021-2.264-.031-.207-.07-.717-.909-.719-.841-.003-2.213 1.121-2.027 2.075.185.953 1.861 1.659 2.914.921l.001-.013Zm-77.407 43.185c-.002.452.13.898.383 1.3-.564-.146-1.162-.04-1.76.307-.982.561-1.275 1.406-.917 2.199.55 1.249 2.024 1.038 3.462 1.139.467-.778.869-1.486.778-2.144a3.802 3.802 0 0 0 1.603.509c1.853.084 4.024-1.5 4.173-3.054.147-1.507-1.238-2.841-3.031-2.925-2.573-.118-4.642 1.059-4.676 2.668l-.015.001Zm16.014-14.213c.098-1.22-1.102-2.642-2.36-2.796-1.565-.194-3.666 1.224-3.725 2.529-.044.87 1.425 1.834 2.977 1.966 1.57.119 3.025-.674 3.108-1.699Zm9.05-8.016c2.22.321 3.267-1.413 3.756-2.323.49-.91-1.7-2.33-3.587-2.137-1.232.124-1.774.729-1.938 1.643-.199 1.202.659 2.658 1.769 2.817Zm-31.979 42.246c-.234 1.503 1.108 2.799 3.003 2.897 1.616.087 2.863-.038 3.753-.348.333 1.19 1.744 2.32 3.777 2.351 1.592.024 2.498-.731 2.862-1.986.42-1.412-.249-2.628-1.673-3.153a4.499 4.499 0 0 0-3.446.156c-.481-1.378-2.425-2.931-4.024-3.066-1.554-.118-4.051 1.704-4.266 3.136l.014.013Zm8.245-3.524c1.13.053 2.118-.58 2.173-1.39.055-.832-1.287-1.887-2.381-1.864-.512.012-1 .183-1.364.479-.365.295-.58.694-.601 1.115-.033.93.863 1.613 2.173 1.66Zm41.066-33.847c1.184-.068 2.167-.859 2.11-1.759-.054-.947-.796-1.318-1.854-1.342-1.251-.046-2.259.67-2.261 1.592 0 .212.053.421.154.608.102.192.251.364.439.505.187.142.408.25.649.318.241.068.496.094.75.077l.013.001Zm-100.904 36.164c.99.165 2.345-.45 2.202-1.184-.119-.61-.569-2.025-1.617-2.024-1.045-.011-1.448 1.145-1.631 1.657-.234.631-.033 1.355 1.046 1.551Zm76.459-30.065c-.74-.372-1.72.383-1.846 1.139-.185 1.009.53 1.514 1.374 1.481.682-.03 1.884-.169 1.965-.929.082-.758-.836-1.346-1.506-1.692l.013.001Zm-12.081 21.428c-1.069.34-1.248 2.123-.095 2.504 1.138.378 2.444-.579 2.391-1.768-.033-.608-1.422-1.01-2.296-.736Zm16.577-44.898c.948-.077 1.742-1.361 1.81-1.916.098-.794-.734-1.341-1.841-1.355-1.149-.016-1.492.707-1.389 1.365.095.55.47 1.984 1.42 1.906Zm-6.615 140.93c-.678.041-2.336.559-2.354 1.032-.017.471 1.345 1.284 1.992 1.507.879.306 1.614-.338 1.782-1.275.168-.948-.618-1.324-1.431-1.276l.011.012Zm14.724-145.95c.585-.152 1.267-.643 1.445-1.095.269-.703-1.009-1.657-1.937-1.445-.567.119-1 .632-1.263.801.023 1.2.886 1.954 1.74 1.74l.015-.001Zm-55.888 11.289c-.635.431 1.208 3.023 2.13 3.125.922.102 1.736-1.446 1.188-2.706-.549-1.26-2.671-.848-3.305-.418l-.013-.001Zm127.948 33.182c.762-.607.552-1.174-1.043-2.434-1.74-.006-2.093 1.733-1.459 2.355.527.509 1.895.548 2.487.077l.015.002Zm15.919 2.036c.762-.608.647-2.186-1.046-2.433-1.74-.009-2.094 1.732-1.456 2.354.525.51 1.893.546 2.485.078l.017.001Zm-97.426 75.125c-.502-.024-1.876.687-1.863 1.161.01.485 1.504 1.255 1.808 1.161.633-.213 1.724-.855 1.576-1.296-.132-.444-.993-1.015-1.521-1.038v.012Zm37.619-6.903c-.795-.012-1.367 1.462-1.372 1.983.007.34.9.851 1.497.952.757.132 1.551-.257 1.323-1.017-.155-.54-.652-1.906-1.448-1.918Zm-66.568 33.348c-.578.035-1.575.364-1.686.746-.101.385.645 1.132 1.123 1.251.449.106 1.982-.322 2.045-.79.061-.47-1.126-1.227-1.482-1.207Zm-49.197-30.283c-.594-.126-2.876.667-2.963 1.534-.088.869 2.308 1.609 3.205 1.648.662.03 2.005-.634 2.091-1.491.087-.854-1.432-1.495-2.333-1.691Zm53.646-121.584c-.098.357-.021 1.392.897 1.555.917.162 1.344-.932 1.355-1.294.025-.374-.175-1.112-.969-1.16a1.251 1.251 0 0 0-1.299.91l.016-.011Zm-25.151 138.18c-.307-.074-1.423.336-1.444.638-.019.289.905.78 1.327.871.232.047.913-.406.881-.565-.081-.355-.402-.842-.764-.944Zm-43.391-78.097c.234.048.871-.214.877-.565.01-.351-.4-.842-.762-.943-.303-.074-1.382.192-1.443.636-.058.446.906.78 1.328.872Zm48.672 70.443c-.531.025-.99.669-.976.913.02.376.115 1.119.632 1.107.519-.014 1.049-.449 1.128-.748.079-.299-.252-1.284-.783-1.259l-.001-.013Zm-20.922.232c-.62.018-1.123.699-1.128 1.001-.021.288.506.785.872.851.305.05.996-.367 1.045-.642.05-.314-.153-1.243-.789-1.21Zm96.703-137.153c-.087.191.202.954.787 1.005.585.051.891-.758.945-1.108.043-.215-.377-.731-.759-.748-.384-.019-.832.505-.972.84l-.001.011Zm-19.68 154.515c.525.047.989-.465 1.053-.763.079-.299-.273-1.212-.786-1.247-.513-.037-1.113.771-1.118 1.062-.021.313.308.897.836.946l.015.002Zm10.179 8.822c-.087.188.2.953.785 1.004.589.051.895-.759.948-1.107.044-.217-.38-.732-.762-.749-.381-.018-.83.507-.97.838l-.001.014Zm-97.199-122.8c.527.049.989-.462 1.055-.762.079-.299-.272-1.212-.786-1.247-.514-.036-1.114.773-1.118 1.062-.023.315.307.899.834.948l.015-.001Zm-16.742 3.837c-.087.191.202.954.787 1.005.585.051.891-.758.945-1.108.043-.215-.377-.731-.761-.749-.382-.017-.83.507-.97.841l-.001.011Zm84.182-37.413c.074.222.122.576.415.625.291.051.354-.237.586-.397-.192-.215-.309-.437-.51-.508-.117-.041-.531.218-.506.28h.015ZM308.81 259.99a.593.593 0 0 0-.58.518c-.011.169.414.417.59.402.192-.003.557-.145.571-.373.018-.229-.196-.554-.581-.547Zm67.152.042a.593.593 0 0 0-.58.518c-.012.169.415.418.592.403.192-.004.554-.147.572-.375.015-.228-.198-.552-.584-.546Zm-100.208-50.298c.192-.004.556-.145.57-.373.016-.23-.196-.554-.58-.547a.593.593 0 0 0-.582.517c-.01.17.415.418.592.403Zm177.168 34.632c-.305-.076-1.265-.058-1.443.636-.181.682.904.778 1.326.873.232.047.913-.407.879-.567-.079-.354-.4-.841-.762-.942ZM342.23 260.887c-.305-.076-1.262-.058-1.442.636-.178.682.905.78 1.329.873.232.047.909-.406.875-.566-.079-.354-.4-.841-.762-.943Zm103.028-27.65c-.534.023-.99.669-.978.912.019.376.116 1.12.635 1.106.517-.011 1.048-.447 1.127-.746.077-.3-.253-1.284-.786-1.261l.002-.011Zm1.406 6.677c-.828.01-1.272.499-1.211 1.082.065.585.87.864 1.24.857.415-.019 1.099-.12 1.205-.791.103-.663-.395-1.159-1.221-1.147l-.013-.001Zm-27.282-73.05c.154-.502-.095-.769-.706-.869-.557-.085-.89.057-1.012.536-.119.478.037.789.662.902.612.113.964-.053 1.057-.557l-.001-.012Zm1.115 11.204c-1.008.282-1.752.804-2.283 1.459-.722.874-.75 1.951-.373 3.143.374 1.203-.423 2.318.529 3.294 1.282 1.318 4.007 2.848 7.309 1.763 2.008-.659 3.049-1.665 3.41-2.885.436-1.42-1.534-2.371-1.816-3.884-.644-3.579-3.967-3.669-6.792-2.879l.016-.011Zm-10.187 9.114c-1.341.64-2.295 2.983-.872 4.381 1.424 1.41 3.078 1.593 4.521 1.176 1.429-.431 1.641-2.469.959-4.135-.493-1.209-3.252-2.063-4.593-1.423l-.015.001Zm-3.209-9.859c-.621 1.122-.506 3.549 2.245 4.05 2.768.49 4.737-.486 5.215-1.879.478-1.397-1.215-3.836-3.109-4.153-2.435-.402-3.716.872-4.352 1.995l.001-.013Zm-47.326 29.396c1.008 1.208 4.843 1.615 6.192.853 1.365-.763.721-2.353 1.078-2.614.356-.265 2.853.516 4.497-.475 1.645-.99 1.648-3.64.845-4.635-.801-.993-1.552-1.682-2.714-1.941-1.409-.307-3.47.095-4.222 1.189-.752 1.09-.394 2.996-.9 3.264-.505.28-2.943-.715-4.478.39-1.551 1.103-1.306 2.736-.299 3.957l.001.012Zm-62.327-27.772c-.955.622-1.584 2.071-1.102 3.001.694 1.304 2.412 1.418 2.964 1.311.102 1.543 1.624 2.981 3.316 3.046 1.749.079 3.132-.535 3.849-1.544.269.594.825 1.128 1.789 1.462 2.608.894 4.763.218 5.528-1.078.516-.872.187-2.342-.638-3.408.993-.101 1.726-.673 1.793-1.456.07-.833-.903-1.676-2.061-1.767-1.16-.089-2.21.602-2.3 1.519-.013.113-.012.226.004.339-1.74-.189-2.936.689-3.67 1.539l-.146.187c-.463-1.014-1.629-1.623-3.435-1.731-.676-.03-1.269.015-1.794.135.072-.204.092-.417.058-.627a1.37 1.37 0 0 0-.255-.592c-.713-1.025-2.77-1.095-3.915-.336h.015Zm30.661 32.077c1.875-.677 1.526-2.739 2.015-2.996.492-.255 3.359 1.146 5.631.245 2.274-.9 3.009-4.15 2.29-5.515-.718-1.352-1.449-2.341-2.798-2.864-.863-.329-1.99-.454-3.061-.322a1.663 1.663 0 0 0-.665-.717 2.214 2.214 0 0 0-1.035-.304c-1.028-.036-2.268.841-2.308 1.638-.011.272.07.541.234.777.164.237.404.431.694.562-.611 1.206-.787 2.688-1.314 2.87-.68.247-3.398-1.415-5.58-.34s-2.333 3.115-1.444 4.777c.89 1.666 5.467 2.855 7.342 2.178l-.001.011Zm18.042-67.853c2.575 1.365 3.802-1.038 4.993.302 1.192 1.338-.805 1.657 1.035 3.437 1.84 1.78 4.819 1.541 5.397-.031.58-1.574-.725-2.564-.453-2.893.274-.327 1.9-1.485.846-2.468-2.231-2.087-3.984.037-4.881-.416-.898-.454-1.719-2.053-2.964-2.812-1.757-1.062-4.047-1.203-5.205.441-1.34 1.9-.563 3.498 1.231 4.451l.001-.011Zm10.616 99.027c1.953.539 4.289.027 4.228-1.488-.059-1.517-.983-2.457-2.086-3.621-.824-.862-2.41-.317-2.074-1.584.339-1.269.623-3.955-2.311-4.174-1.438-.104-3.06 1.009-3.376 2.182l-.004.049c-.653-.793-1.867-1.37-3.179-1.381-1.785-.022-3.665 1.649-3.621 3.189.046 1.48 1.477 2.779 3.039 2.778 1.475-.005 3.376-1.297 4.022-2.553.249.459.621.84 1.112.997 1.141.367-.607 2.223.93 2.816 1.466.551 1.35 2.265 3.304 2.802l.016-.012Zm-10.203-36.772c-1 2.145.302 2.945-.498 4.287-.797 1.334-.146 2.15 1.333 3.162.213.143.453.312.694.468-.737.173-1.328.653-1.201 1.168.131.466.857 1.044 1.44 1.155.903.175 1.694-.201 1.611-1.161.005-.084-.004-.158-.012-.243.996.312 2.028.287 2.899-.606 1.668-1.728.49-2.86-.193-3.229-.682-.37-1.018-1.731-.13-1.545.886.185 1.864-.315 2.474-2.128.609-1.813.087-3.035-2.057-3.812-2.345-.856-5.361.361-6.376 2.495l.016-.011Zm78.928-50.612c-.911-.053-1.31.159-1.743.479-.434.305-1.063.471-1.393 1.181-.328.714-.532 2.207.318 3.14.853.924 1.977 1.289 3.15 1.161a2.743 2.743 0 0 0 2.182-1.509c.294-.618.523-1.856-.252-2.581-.778-.724-1.252-1.788-2.249-1.858l-.013-.013Zm-12.463 5.086c-.487.209-.723.658-.586 1.027.151.37.983.736 1.461.648.476-.086.614-.796.447-1.167-.142-.308-.837-.704-1.338-.497l.016-.011Zm16.949 10.112c.942.648 2.411 1.6 3.473.498 1.062-1.101.315-1.825-.126-2.065-.441-.237-.646-1.106-.08-.984.568.111 1.192-.199 1.582-1.356.386-1.157.056-1.937-1.312-2.434-1.495-.54-3.436.23-4.072 1.594-.639 1.363.196 1.886-.317 2.734-.517.849-.096 1.376.849 2.025l.003-.012Zm7.471-15.837c1.373.39 2.766 1.142 4.454.627.312-.482.64-1.001.956-1.508 1.919-.262 3.437-1.15 3.398-2.072-.036-.764-.588-1.323-1.532-1.535-1.716-.369-2.368-.072-3.385 1.442-1.394.326-2.677.521-3.838.953-1.165.42-1.211 1.773-.042 2.104l-.011-.011Zm-120.26 21.728c.733 1.171 1.789 1.461 2.935.884 1.064 1.005 1.716 1.847 2.636 2.422.892.548 2.662.533 3.955.18-.438.549-.692 1.264-.648 2.151.113 2.438.962 3.205 3.444 3.353 2.384.06 3.949-1.297 4.086-3.531a2.377 2.377 0 0 0-.028-.438c.698.784 1.777 1.415 2.83 1.511 1.174.102 2.383-.981 2.527-2.245.162-1.508-.925-2.477-2.96-2.656-1.48-.126-3.086.719-3.135 1.65-.004.134.007.268.034.401-.729-.772-1.932-1.324-3.227-1.347a4.518 4.518 0 0 0-1.354.17c.702-1.216.463-3.358-.536-4.276-1.016-.907-3.245-1.08-4.88-.199-1.087.581-1.912 1.232-3.438.677-1.092-.399-1.84.389-2.196 1.294l-.045-.001Zm25.724-17.572c-2.381-.111-4.767 1.175-4.912 2.645-.152 1.591 1.984 3.579 3.883 3.629 1.838.048 3.911-1.614 3.992-3.208.076-1.584-1.273-2.991-2.963-3.066Zm-39.747 62.246c.013.885 1.002 1.743 2.06 1.79 1.014.048 2.094-.885 2.065-1.769-.026-.909-.996-1.596-2.266-1.581-1.152.019-1.884.615-1.875 1.549l.016.011Zm81.046-63.17c-.252-.021-.506 0-.747.062-.235.059-.457.16-.655.299a1.592 1.592 0 0 0-.458.488c-.111.187-.174.39-.185.598-.095.989.511 1.633 1.653 1.735 1.2.113 2.275-.527 2.425-1.428.149-.878-.785-1.683-2.033-1.754Zm-32.928 29.705c.44.239-1.757 2.439.686 3.785 2.445 1.36 4.402.952 5.642-.989.377-.6 1.223-1.119 2.159-1.657l.059.001c.808.039 1.658-.517 1.832-1.126 1.389-.93 2.365-2.059 1.538-3.768-1.167-2.368-3.714-2.423-4.8-1.829-1.088.604-1.503 1.928-2.37 2.107-.866.177.592-.906-2.316-1.076-2.908-.17-5.361 2.977-2.429 4.529l-.001.023Zm-81.12-14.995c.911.708.493.568.187 1.596-.319 1.027.03 2.605 2.296 2.454 2.281-.152 3.457-2.059 3.493-3.679.037-1.622-3.095-3.715-5.44-3.266-1.689.337-1.43 2.176-.519 2.896l-.017-.001Z"/>
        <path fill="#07101F" d="M346.002 150.894c.404-.767 1.243-1.253 2.203-.938.756.244 1.709.768 1.908 1.333.516 1.453-1.151 1.792-2.353 2.505-1.388-.83-2.462-1.548-1.775-2.91l.017.01Zm94.337-36.66c-.14-.826.966-2.261 1.775-2.318 1.114-.08 2.661.963 2.755 1.856.094.905-.792 1.716-1.994 1.817-1.156.097-2.404-.576-2.536-1.367v.012Zm-52.045 104.298c1.048-.046 2.302.945 2.325 1.869.037.9-.92 1.742-2.049 1.825-1.148.072-2.014-.562-2.182-1.63-.187-1.089.654-1.992 1.906-2.064Zm-34.287 18.292c.139.997-.72 1.879-2.012 2.051-1.251.169-2.304-.516-2.479-1.618-.145-.85.771-1.761 1.875-1.901 1.371-.16 2.473.46 2.616 1.468Zm106.901-92.532c-.442-1.109.437-2.395 1.517-2.606 1.096-.198 2.601.603 2.766 1.477.141.838-1.091 1.884-2.989 2.176-.306-.234-1.105-.557-1.294-1.047Zm-121.735 55.597c-.997-.007-2.08-.003-2.24-.852-.18-1.482.507-2.416 1.63-2.544 1.386-.16 2.635.623 2.672 1.706.042.948-.812 1.692-2.062 1.69Zm98.972-81.092c.342.252.257 1.229-.075 1.634-.33.415-1.212.737-1.837.737-.431-.002-1.053-.588-1.242-1.005-.365-.838-.52-1.736-.683-2.608-.148-.765.359-1.116 1.385-1.199.217.135.702.286.756.513.212.892.975 1.351 1.713 1.938l-.017-.01Zm-18.625 14.165c-.908-.007-2.449-1.366-2.456-2.184.002-.696 1.527-1.678 2.599-1.679.935.001 1.57.661 1.48 1.538-.142 1.42-.774 2.324-1.625 2.311l.002.014Zm53.46 18.386c-.081-.65 1.345-1.791 2.405-1.938 1.162-.158 2.138.498 2.266 1.51.139.985-.468 1.702-1.533 1.813-1.327.152-3.051-.625-3.153-1.396l.015.011Zm-169.815 10.607c.144.925-.91 1.974-2.068 2.07-1.055.086-1.959-.494-2.142-1.39-.237-1.132.513-2.05 1.772-2.157 1.069-.099 2.296.65 2.426 1.479l.012-.002Zm28.264 53.321c.144.924-.912 1.975-2.07 2.071-1.053.085-1.955-.494-2.14-1.388-.237-1.133.513-2.05 1.772-2.16 1.067-.098 2.296.652 2.424 1.48l.014-.003Zm79.573-61.977c-.819-.004-1.986-.224-2.407-.687-.957-1.076-.182-2.362.964-2.799a8.237 8.237 0 0 0-2.398.057c-.533.099-1.456-.333-1.852-.74-.65-.668-1.421-1.19-2.171-1.75-1.04-.771-1.155-2.053-.35-2.829 1.185-1.151 2.278-1.364 3.619-.479.717.466 1.184 1.194 1.858 1.91l1.531-.432a2.545 2.545 0 0 1 1.352-.052c.445.106.835.329 1.111.635.797.835.525 1.769.028 2.682-.292.546-.738.903-1.312 1.03.813.31 1.531 1.045 1.614 1.877.071.847-.546 1.579-1.602 1.577h.015Zm-77.337 80.965c-1.035.119-2.277-.714-2.346-1.55-.071-.847.893-1.813 1.927-1.944.248-.037.503-.034.749.011.246.044.479.129.685.248.206.12.381.272.515.448.133.175.223.371.263.576.224 1.049-.625 2.087-1.779 2.207l-.014.004Zm.759-101.791c.152.888-.398 1.414-1.421 1.679-1.113.287-2.126.012-2.683-.729-.879-1.142.126-2.554 1.046-2.831.921-.277 2.807.422 3.045 1.883l.013-.002Zm52.667 57.296c.647-.66 1.574-.962 2.402-.399.621.428 1.348 1.199 1.298 1.767-.005.27-.111.531-.302.75a1.609 1.609 0 0 1-.769.473c1.061.904 1.323 2.35 1.219 3.743-.072.875-.499 1.596-1.112 2.179-.845.793-2.085 1.108-3.583 1.122-1.516.016-2.605.936-3.999.437-1.885-.675-4.388-2.436-3.991-5.34.248-1.763 1.163-2.844 2.5-3.464 1.557-.716 3.194.596 5.052.42.334-.039.662-.04.957-.038-.252-.532-.226-1.072.355-1.664l-.027.014Zm47.414 6.571c-.382.373-1.603.538-2.205.314-1.504-.536-1.581-2.296-.745-3.04.838-.755 2.788-.652 3.466.711.272.543-.032 1.544-.531 2.015h.015Zm-125.263 12.889c.149.862-.82 1.718-2.022 1.819-1.161.086-2.015-.559-2.183-1.639-.179-1.127.34-1.921 1.272-1.955 1.105-.042 2.798.985 2.935 1.785l-.002-.01Zm11.929-83.674c1.06-.051 2.258.775 2.369 2.033-.447.333-1.039 1.049-1.846 1.288-1.118.336-2.293-.627-2.387-1.703-.072-.859.757-1.577 1.864-1.618Zm3.556-2.147c-.146-.948.707-1.862 1.782-1.925 1.205-.078 2.373.752 2.419 1.71.047.887-.9 1.789-1.928 1.858-.998.068-2.15-.752-2.27-1.63l-.003-.013Zm26.286 19.667c.092-.583.565-1.383 1.153-1.61 1.618-.615 2.51.345 3.319 1.425-.577.969-1.138 2.035-2.69 1.91-1.057-.087-1.931-.768-1.782-1.725Zm35.713 83.332c.254.873-.57 1.787-1.747 1.948-1.278.171-2.291-.36-2.467-1.303-.196-.979.528-1.87 1.647-2.01 1.019-.131 2.343.56 2.566 1.353l.001.012Zm.218-95.305c-.362-.641-.316-1.329-.198-1.599.373-.936 1.323-1.119 2.306-1.293.893-.176 1.701-.575 2.705.006 1.171.671 1.06 2.369.036 3.242-.454.383-1.181.662-1.935.775.131 1.107-.666 2.018-1.854 2.106-.983.077-2.067-.616-2.184-1.384-.116-.682.405-1.452 1.139-1.854l-.015.001Zm-46.806 19.835c.191-.45.986-.931 1.583-1.002 1.138-.129 2.043.473 2.27 1.364.301 1.234-1.223 1.971-2.056 2.141-.834.169-2.352-1.231-1.783-2.506l-.014.003Zm46.485-46.745c-.988.565-2.067 1.105-3.205.368-.885-.569-1.061-1.512-.351-2.229.431-.429 1.44-.874 2.012-.745 1.481.316 1.739 1.386 1.558 2.593l-.014.013Zm49.878 45.578c-1.028.069-1.936-.547-2.121-1.453-.196-.979.377-1.703 1.478-1.869 1.187-.185 2.303.431 2.447 1.356.141.91-.759 1.907-1.802 1.977l-.002-.011Zm-96.228 73.584a2.502 2.502 0 0 1 1.584.23c.47.245.804.632.929 1.078.302.992-.193 1.647-1.38 1.845-1.288.21-2.306-.27-2.558-1.218-.216-.831.462-1.738 1.425-1.935Zm-38.856-116.731c.305.819-.391 1.707-1.43 1.887-.955.159-2.021-.439-2.301-1.286-.281-.859.409-1.865 1.401-1.883 1.083-.016 1.992.344 2.33 1.282Zm47.097-20.403c.742 1.207-.162 1.996-1.618 2.701-1.138-.565-2.429-.905-2.146-2.195.187-.826.951-1.404 1.993-1.305.633.05 1.51.389 1.774.81l-.003-.011ZM313.164 192c.13.85-.39 1.448-1.356 1.718-.824.229-2.602-.956-2.376-1.631.228-.673.828-.974 1.499-1.234.963-.369 2.085.283 2.215 1.137l.018.01Zm109.557-56.831c1.262.257 2.509.589 2.206 1.858-.287 1.192-1.499 1.32-2.721 1.131-.944-1.1-.924-2.018.515-2.989Zm9.053-43.208c.625-.866 3.4-.1 3.72.988.322 1.085-.649 2.456-1.722 2.433-1.076-.023-2.636-2.553-1.998-3.421ZM326.07 145.429c.315.27.371 1.044.116 1.367-.748.928-1.834.845-3.007.248-.094-.905-.342-1.914 1.042-2.256.516-.121 1.413.262 1.848.628l.001.013Zm121.471 31.432c.293.417-.359 1.983-1.293 2.091-1.005.115-1.979-.53-2.127-1.403-.138-.803.545-1.591 1.56-1.474.744.084 1.565.368 1.86.786Zm-103.017-68.776c.207 1.039-1.474 1.463-2.177 1.777-.805.348-1.716-.29-1.926-1.171-.22-.939.246-1.601 1.356-1.547.78.044 2.538-.109 2.747.941ZM302.412 130.6c-.074.617-.563 2.177-1.33 2.228-.764.052-1.688-1.281-2-1.869-.33-.634.675-1.446 1.639-1.47.931-.023 1.791.306 1.691 1.111Zm147.397 48.747c.145-.628.656-1.382 1.297-1.714.714-.35 2.058.558 1.985 1.359-.044.518-.614 1.011-.805 1.29-1.536.224-2.627-.247-2.48-.949l.003.014Zm-5.95-71.051c-.219-.842.487-1.754 1.481-1.843 1.115-.093 1.732.471 1.896 1.257.154.728-.298 1.294-1.245 1.499-1.019.216-1.946-.166-2.132-.913Zm-47.912 6.604c-.391-.383-1.122-.836-1.389-1.428-.337-.756.327-1.307 1.26-1.415.816-.095 1.683-.073 1.966.799.248.765-.484 1.777-1.837 2.044Zm-18.407 97.597c.359-.251 1.374-.318 1.633-.105.487.421 1.015 1.166.877 1.657-.289 1-1.453.89-2.444.833-.868-.816-1.104-1.667-.051-2.388l-.015.003Zm-62.241-29.574c-.009-.388.537-1.037.964-1.137.587-.128 1.569-.045 1.952.288 1.014.885.161 1.632-.551 2.335-1.312-.02-2.323-.366-2.365-1.486Zm148.893-23.247c1.102-.249 2.005 1.027 2.822 1.458-.028.186-.072.362-.1.548-.664.883-1.092.907-2.054.932-.962.026-1.543-.247-1.778-.392.318-.745-.005-2.295 1.097-2.544l.013-.002Zm-10.093-14.184c-.255-.79.652-1.137 1.529-1.226 1.023-.105 2.022.524 1.816 1.231-.161.543-.294 1.842-1.481 1.782-1.184-.058-1.692-1.208-1.864-1.787Zm-46.785 77c-.098.987-.044 1.996-.053 2.986.512 1.089-.067 1.864-1.201 2.116-1.201.262-2.21-.244-2.779-1.315-.309-.574-.599-1.237-1.143-1.639-1.072-.792-1.572-1.712-1.137-2.811.332-.845 2.935-1.62 4.124-1.281 1.123.309 2.328.586 2.176 1.946l.013-.002Zm-.824-11.077c-1.255.218-2.221-.293-2.434-1.294-.228-1.061.582-2.07 1.762-2.205 1.049-.123 2.036.606 2.199 1.649.153.888-.5 1.684-1.527 1.85Zm11.175 1.714c.162.86-.486 1.595-1.459 1.475-.698-.09-1.32-.507-1.781-.698-.093-1.137.865-1.882 1.9-1.917.992-.029 1.207.533 1.325 1.141l.015-.001Zm-100.308-15.986c.164.861-.484 1.596-1.457 1.476-.698-.09-1.504-.194-1.785-.698-.279-.505.867-1.884 1.905-1.917.991-.029 1.204.531 1.324 1.141l.013-.002Zm100.051 24.222c-.09-1.138.868-1.883 1.904-1.917.989-.028 1.203.532 1.323 1.142.162.86-.486 1.594-1.458 1.473-.697-.09-1.32-.507-1.782-.696l.013-.002Zm-122.921-57.823c-.057.616-.574 2.117-1.388 2.223-.815.107-1.583-1.429-1.757-2.018-.213-.721.347-1.274 1.432-1.265.923.003 1.812.243 1.728 1.057l-.015.003Zm37.821-69.862c.122.526-.569 1.19-.811 1.596-1.555.205-2.044-.386-2.187-1.054-.146-.678.11-1.525 1.127-1.498.672.02 1.758.544 1.857.96l.014-.004Zm124.11 17.306c.36-.407 1.809-.208 2.744-.207.254.008.877-.003.949.684.074.689-1.175 1.906-2.347 1.834-1.172-.072-2.169-1.385-1.362-2.309l.016-.002Zm-45.896 66.983a4.13 4.13 0 0 1-1.61-.204c.225.449.147.947-.224 1.465-.598.852-1.599 1.162-2.591.935-1.561-.345-1.429-1.569-1.672-2.738.905-.447 1.73-.835 2.535-.816-.38-.363-.639-.8-.751-1.27-.258-1.509 1.482-3.419 3.355-3.672 1.816-.246 3.55.775 3.803 2.236.358 2.096-.896 3.889-2.846 4.052l.001.012Zm15.898-14.3c1.472-.183 3.298.68 3.591 1.697.366 1.264-1.178 3.104-2.756 3.261-1.052.109-2.345-1.012-2.635-2.272-.276-1.275.564-2.533 1.8-2.686Zm8.966-8.08c-.576-1.791 1.44-2.793 2.503-3.27 1.062-.477 2.969 1.196 2.893 2.757-.047 1.019-.736 1.514-1.83 1.724-1.442.264-3.28-.316-3.566-1.211Zm-48.567 29.719c-1.803.317-3.488-.673-3.767-2.215-.241-1.316-.194-2.347.108-3.102-1.471-.172-2.96-1.233-3.169-2.894-.163-1.301.678-2.106 2.17-2.51 1.677-.461 3.208-.016 3.965 1.106.638.951.579 1.997.1 2.833 1.712.278 3.759 1.74 4.056 3.037.274 1.262-1.727 3.458-3.446 3.755l-.017-.01Zm3.583-7.044c-.158-.921.526-1.783 1.504-1.896 1.005-.115 2.398.895 2.462 1.792.028.421-.138.834-.467 1.157-.328.324-.793.533-1.302.585-1.126.106-2.03-.571-2.197-1.638Zm37.617-36.453c-.017-.975.859-1.846 1.956-1.875 1.153-.035 1.666.541 1.784 1.405.161 1.02-.624 1.905-1.742 1.985a2.207 2.207 0 0 1-.75-.076 1.928 1.928 0 0 1-.65-.317 1.543 1.543 0 0 1-.44-.504 1.282 1.282 0 0 1-.156-.608l-.002-.01Zm-35.409 85.626c-.283-.797.349-1.958 1.252-1.902.749.047 2.504.296 2.59 1.154.101.855-1.267 1.282-1.873 1.474-.746.245-1.64.14-1.969-.726Zm30.059-65.106c.514.575-.32 1.44-1.226 1.607-1.209.236-1.882-.307-1.911-1-.022-.562.046-1.557.962-1.687.912-.131 1.702.571 2.178 1.091l-.003-.011Zm-24.98 11.686c-.324.904-2.471 1.2-3.03.288-.555-.9.498-2.049 1.944-2.105.741-.024 1.344 1.079 1.086 1.817Zm53.076-17.334c.013-.783 1.504-1.54 2.171-1.642.956-.147 1.689.488 1.798 1.393.117.939-.731 1.281-1.539 1.251-.674-.032-2.446-.218-2.43-1.002Zm-170.408 17.233c.006.559-.483 1.959-1.055 2.014-.57.053-1.67-.993-1.996-1.505-.444-.693.275-1.348 1.397-1.565 1.137-.217 1.659.395 1.669 1.065l-.015-.009Zm175.817-24.292c.136-.492.674-1.09 1.207-1.274.83-.28 2.094.687 1.916 1.464-.098.474-.684.871-.866 1.101-1.459.082-2.445-.561-2.256-1.278l-.001-.013Zm-9.008 46.694c-.469.555-3.769-.736-3.97-1.482-.2-.747 1.61-1.543 3.184-1.199 1.574.343 1.252 2.115.783 2.67l.003.011ZM396.182 94.37c.674-.674 1.379-.55 3.041.65.153 1.424-1.927 1.859-2.735 1.391-.661-.388-.824-1.505-.302-2.029l-.004-.012Zm-3.804-12.859c.674-.675 2.598-.714 3.039.652.156 1.423-1.925 1.86-2.733 1.39-.663-.388-.822-1.505-.304-2.028l-.002-.014Zm-82.964 86.046c.071.409-.676 1.594-1.252 1.623-.59.032-1.649-1.126-1.561-1.383.206-.535.893-1.482 1.441-1.398.549.071 1.315.728 1.387 1.158h-.015Zm5.22-31.371c.081.65-1.66 1.242-2.292 1.289-.413.024-1.108-.665-1.28-1.145-.224-.609.182-1.291 1.123-1.168.668.082 2.367.374 2.449 1.024Zm-34.873 57.285c.006.477-.309 1.32-.764 1.443-.458.115-1.427-.433-1.611-.814-.166-.359.225-1.65.787-1.74.565-.09 1.582.818 1.588 1.111Zm40.863 37.73c.202.476-.568 2.41-1.613 2.554-1.046.145-2.145-1.755-2.268-2.485-.092-.539.601-1.695 1.633-1.837 1.03-.143 1.934 1.047 2.248 1.768Zm142.995-54.108c-.426.111-1.687.134-1.961-.603-.275-.738 1.017-1.179 1.455-1.218.452-.052 1.363.05 1.489.696.123.644-.554 1.027-.996 1.139l.013-.014Zm-165.518 32.175c.116.245-.288 1.193-.652 1.236-.349.04-1.022-.675-1.169-1.013-.076-.186.417-.782.612-.769.438.037 1.056.259 1.209.546Zm98.38 28.968c-.078-.187.186-.731.611-.765.425-.038 1.054.256 1.208.544.116.242-.117 1.148-.651 1.235-.535.085-1.022-.676-1.168-1.014Zm-89.538-33.932c.015.437-.728.867-1.026.875-.457.016-1.366 0-1.395-.424-.027-.426.457-.896.813-.986.356-.09 1.578.099 1.593.536l.015-.001Zm1.474 17.145c.03.509-.754.978-1.121 1.007-.347.041-.994-.348-1.105-.642-.086-.246.362-.846.691-.909.378-.068 1.521.02 1.535.544Zm158.271-90.657c-.225.087-1.175-.086-1.286-.56-.111-.475.845-.793 1.265-.867.258-.053.918.248.971.559.055.312-.543.723-.937.866l-.013.002Zm-185.793 29.067c-.101-.426.482-.848.838-.926.356-.09 1.493.122 1.579.539.088.416-.843.975-1.195 1.004-.378.044-1.115-.177-1.218-.605l-.004-.012Zm-11.555-7.592c-.221.087-1.173-.084-1.284-.559-.111-.477.845-.796 1.263-.868.26-.054.92.249.973.56.053.311-.545.722-.935.865l-.017.002Zm157.12 69.262c-.103-.428.478-.849.836-.928.356-.089 1.493.122 1.579.54.086.417-.845.976-1.195 1.004-.38.045-1.116-.176-1.219-.604l-.001-.012Zm-3.25 14.026c-.225.087-1.175-.085-1.286-.56-.111-.474.845-.793 1.265-.867.258-.053.918.248.973.561.053.311-.545.721-.939.864l-.013.002Zm38.326-72.044c-.276-.042-.709-.051-.793-.287-.086-.234.257-.309.432-.513.277.139.556.216.659.375.06.092-.219.453-.298.437v-.012Zm-158.543 48.038c.026.326-.376.495-.58.518-.204.024-.54-.303-.537-.449-.012-.157.13-.468.405-.498.276-.034.689.114.712.429Zm-5.682-54.962c.026.325-.376.494-.58.518-.204.024-.542-.305-.539-.451-.011-.157.132-.466.407-.5.276-.031.687.116.712.433Zm69.42 77.805c-.012-.157.13-.467.406-.498.277-.032.688.114.711.429.028.327-.374.496-.578.52-.206.022-.542-.305-.539-.451Zm-56.87-142.114c.118.243.177 1.031-.651 1.234-.812.206-1.019-.674-1.17-1.012-.076-.185.417-.78.614-.766.436.035 1.054.256 1.207.544Zm-10.759 91.991c.118.243.177 1.028-.65 1.234-.813.203-1.022-.675-1.171-1.015-.076-.185.417-.778.614-.764.436.035 1.054.257 1.207.545Zm24.902-86.65c.017.438-.729.866-1.024.876-.458.016-1.368-.001-1.396-.427-.029-.424.456-.895.812-.985.357-.088 1.578.1 1.595.538l.013-.002Zm-8.217-.591c.057.678-.499 1.083-1.211 1.081-.716-.004-1.122-.64-1.145-.943-.011-.34.054-.91.86-1.053.795-.14 1.439.227 1.494.904l.002.011Zm90.905 16.204c.596-.168.94.013 1.113.505.15.449.006.734-.566.873-.569.138-.959.037-1.149-.466-.188-.491-.017-.793.587-.911l.015-.001Zm-13.685.027c-.258.849-.829 1.502-1.579 1.991-.999.665-2.304.778-3.781.569-1.492-.205-2.777.541-4.04-.156-1.707-.939-3.792-3.042-2.752-5.836.63-1.698 1.764-2.635 3.213-3.032 1.686-.476 3.005 1.056 4.865 1.161 4.395.226 4.783 2.939 4.062 5.317l.012-.014Zm-10.202 9.103c-.664 1.151-3.426 2.129-5.242 1.081-1.83-1.047-2.19-2.386-1.805-3.602.402-1.206 2.856-1.55 4.936-1.132 1.507.302 2.774 2.489 2.11 3.641l.001.012Zm12.229 1.8c-1.309.602-4.264.712-5.101-1.498-.828-2.225.191-3.918 1.842-4.426 1.655-.509 4.754.672 5.298 2.196.692 1.96-.746 3.115-2.055 3.73l.016-.002Zm-31.692 41.203c-1.549-.724-2.365-3.828-1.554-4.997.811-1.181 2.794-.787 3.082-1.101.29-.314-.866-2.292.197-3.721 1.064-1.43 4.279-1.654 5.553-1.08 1.271.572 2.171 1.129 2.582 2.058.491 1.128.175 2.849-1.088 3.556-1.26.707-3.602.574-3.884 1.01-.298.437 1.114 2.349-.098 3.699-1.208 1.361-3.21 1.298-4.775.576h-.015Zm38.918 48.688c-.675.834-2.38 1.47-3.548 1.153-1.641-.458-1.923-1.854-1.84-2.316-1.879.047-3.752-1.079-3.973-2.458-.243-1.425.386-2.609 1.55-3.281-.743-.17-1.437-.58-1.923-1.341-1.303-2.06-.664-3.88.844-4.616 1.015-.495 2.825-.349 4.188.237.04-.821.672-1.469 1.616-1.59 1.005-.127 2.109.599 2.316 1.539.205.942-.545 1.86-1.65 2.01a2.264 2.264 0 0 1-.411.025c.375 1.409-.59 2.461-1.559 3.134l-.215.135c1.268.293 2.106 1.197 2.388 2.666.093.551.089 1.04-.013 1.48a2.208 2.208 0 0 1 1.495.059c1.303.497 1.561 2.175.736 3.176l-.001-.012Zm-41.484-22.407c.663-1.592 3.195-1.479 3.465-1.901.269-.424-1.672-2.653-.769-4.589.901-1.937 4.782-2.81 6.497-2.336 1.701.474 2.963.99 3.71 2.05.471.679.718 1.591.647 2.478.359.085.681.253.926.485.246.231.403.517.455.821.13.838-.83 1.927-1.793 2.027a2.147 2.147 0 0 1-.963-.126 1.759 1.759 0 0 1-.74-.521c-1.411.601-3.194.869-3.371 1.316-.243.577 2.001 2.663.881 4.539-1.121 1.876-3.583 2.171-5.675 1.582-2.095-.588-3.921-4.235-3.258-5.827l-.012.002Zm80.799-20.459c-1.871-1.993.94-3.199-.785-4.061-1.723-.864-1.943.798-4.256-.559-2.314-1.357-2.274-3.816-.415-4.42 1.86-.607 3.171.378 3.547.128.373-.251 1.643-1.68 2.923-.9 2.719 1.651.289 3.264.914 3.961.626.697 2.635 1.235 3.66 2.19 1.436 1.349 1.799 3.212-.098 4.298-2.193 1.255-4.197.754-5.503-.635l.013-.002Zm-121.021-.385c-.817-1.552-.392-3.508 1.451-3.585 1.845-.079 3.063.599 4.568 1.404 1.115.602.586 1.946 2.096 1.564 1.511-.383 4.745-.841 5.257 1.543.246 1.168-.968 2.589-2.364 2.945l-.059.008c1.017.468 1.818 1.414 1.941 2.486.177 1.46-1.692 3.139-3.564 3.232-1.8.086-3.495-.976-3.626-2.255-.117-1.208 1.292-2.872 2.761-3.506-.578-.165-1.071-.438-1.304-.826-.539-.904-2.645.683-3.493-.525-.791-1.155-2.86-.916-3.676-2.47l.012-.015Zm45.465 5.269c-2.519.998-3.598-.001-5.159.767-1.551.764-2.596.299-3.947-.827-.192-.162-.417-.344-.626-.528-.148.617-.681 1.141-1.317 1.081-.576-.068-1.338-.614-1.521-1.082-.289-.725.102-1.403 1.273-1.416.101-.012.192-.01.296-.011-.462-.789-.519-1.636.491-2.424 1.957-1.51 3.428-.64 3.934-.113.506.528 2.186.689 1.885-.022-.299-.71.225-1.552 2.374-2.204 2.148-.651 3.675-.325 4.797 1.364 1.235 1.848.011 4.419-2.492 5.429l.012-.014Zm54.779-68.85c.139.74-.083 1.085-.436 1.466-.333.381-.482.91-1.315 1.24-.84.328-2.633.62-3.837.003-1.192-.621-1.73-1.511-1.672-2.482.058-.971.927-1.62 1.648-1.912.724-.293 2.207-.584 3.151-.01.945.576 2.275.875 2.444 1.685l.017.01Zm-5.125 10.628c-.214.416-.738.646-1.197.565-.461-.092-.975-.742-.909-1.141.065-.397.914-.569 1.378-.464.385.09.925.626.716 1.054l.012-.014Zm-13.689-13.026c-.865-.717-2.143-1.839-.896-2.801 1.247-.962 2.188-.411 2.516-.07.325.341 1.396.436 1.201-.017-.182-.456.142-.992 1.513-1.409 1.371-.413 2.344-.208 3.061.87.782 1.179.01 2.832-1.592 3.467-1.6.637-2.303-.002-3.289.489-.986.494-1.662.194-2.529-.525l.015-.004Zm18.586-7.443c-.588-1.091-1.618-2.169-1.134-3.593.58-.307 1.163-.61 1.748-.91.158-1.592 1.107-2.91 2.229-2.954.93-.035 1.655.37 1.991 1.125.592 1.373.286 1.932-1.466 2.892-.279 1.168-.407 2.234-.834 3.22-.411.99-2.049 1.14-2.549.212l.015.008Zm-16.273 100.26c-1.482-.502-1.923-1.342-1.319-2.328-1.308-.787-2.384-1.25-3.159-1.955-.74-.684-.869-2.134-.55-3.222-.63.405-1.476.672-2.555.711-2.967.111-3.968-.519-4.356-2.538-.274-1.946 1.241-3.341 3.94-3.641.175-.019.352-.017.534-.014-1.01-.505-1.866-1.335-2.07-2.189-.223-.953.99-2.033 2.511-2.257 1.816-.259 3.083.549 3.47 2.2.278 1.201-.612 2.587-1.738 2.704a3.207 3.207 0 0 1-.49.007c.998.532 1.769 1.469 1.905 2.528.056.409.014.78-.093 1.122 1.417-.676 4.036-.66 5.233.081 1.185.755 1.582 2.565.651 3.978-.614.938-1.335 1.667-.534 2.87.576.861-.317 1.539-1.385 1.907l.005.036Zm19.159-22.53c.334 1.94-1.025 4.001-2.797 4.243-1.917.257-4.508-1.324-4.728-2.874-.212-1.501 1.63-3.337 3.557-3.537 1.915-.195 3.735.791 3.968 2.168Zm-72.178 37.755c-1.074.063-2.197-.674-2.343-1.536-.144-.826.898-1.788 1.973-1.839 1.104-.055 2.019.682 2.107 1.722.074.945-.588 1.594-1.721 1.665l-.016-.012Zm69.835-71.637a1.26 1.26 0 0 1-.012.616 1.415 1.415 0 0 1-.308.562c-.148.168-.337.31-.554.416a2.118 2.118 0 0 1-.709.201c-1.192.161-2.024-.281-2.243-1.207-.239-.973.448-1.906 1.528-2.105 1.053-.195 2.107.502 2.298 1.517Zm-33.273 29.444c-.327-.34-2.812 1.643-4.65-.244-1.854-1.887-1.524-3.524.727-4.701.697-.359 1.255-1.095 1.829-1.907l-.006-.048c-.115-.658.488-1.4 1.212-1.594 1.012-1.215 2.3-2.108 4.442-1.575 2.971.758 3.251 2.837 2.622 3.776-.641.941-2.214 1.392-2.358 2.117-.142.723 1.049-.56 1.5 1.805.45 2.366-3.161 4.638-5.291 2.368l-.027.003Zm24.993 65.142c-.935-.686-.73-.356-1.951-.019-1.22.347-3.163.194-3.17-1.674-.007-1.88 2.208-3.002 4.17-3.167 1.964-.167 4.767 2.221 4.418 4.178-.266 1.411-2.519 1.354-3.469.668l.002.014Z"/>
      </g>
    </g>
  </g>
  <defs>
    <clipPath id="a">
      <path fill="#fff" d="M0 0h389v206H0z"/>
    </clipPath>
  </defs>
</svg>
