<svg xmlns="http://www.w3.org/2000/svg" width="361" height="376" fill="none" viewBox="0 0 361 376">
  <g clip-path="url(#a)">
    <path fill="#fff" stroke="#CAD3E2" d="M33 351.5a5.5 5.5 0 0 1 5.5-5.5h284a5.5 5.5 0 0 1 5.5 5.5v40a5.5 5.5 0 0 1-5.5 5.5h-284a5.5 5.5 0 0 1-5.5-5.5v-40Z"/>
    <path fill="#CAD3E2" d="M86.5 372a3.5 3.5 0 0 1 3.5-3.5h147a3.5 3.5 0 1 1 0 7H90a3.5 3.5 0 0 1-3.5-3.5Zm-40-6.5a6 6 0 0 1 6-6h12a6 6 0 0 1 6 6v12a6 6 0 0 1-6 6h-12a6 6 0 0 1-6-6v-12Z"/>
    <path fill="#ECF1F9" d="M32.5 295.5a6 6 0 0 1 6-6h284a6 6 0 0 1 6 6v40a6 6 0 0 1-6 6h-284a6 6 0 0 1-6-6v-40Z"/>
    <path fill="#CAD3E2" d="M86.5 316a3.5 3.5 0 0 1 3.5-3.5h132a3.5 3.5 0 1 1 0 7H90a3.5 3.5 0 0 1-3.5-3.5Z" opacity=".7"/>
    <g clip-path="url(#b)">
      <path fill="#516381" d="m54.477 323.706 1.164-1.165c.91.301 1.863.459 2.858.459 3 0 5.61-1.433 7.838-3.88a18.18 18.18 0 0 0 2.552-3.62 18.118 18.118 0 0 0-2.552-3.619l-.017-.019 1.062-1.061c2.038 2.214 3.067 4.463 3.087 4.508.02.045.031.096.031.148v.088c0 .051-.01.102-.031.148-.04.088-4.031 8.807-11.97 8.807a10.55 10.55 0 0 1-4.022-.794Zm-4.917-3.569c-2-2.193-3.01-4.4-3.029-4.444a.366.366 0 0 1-.031-.148v-.088a.35.35 0 0 1 .031-.148c.04-.089 4.03-8.809 11.968-8.809 1.444 0 2.756.288 3.938.76l-1.169 1.169A9.079 9.079 0 0 0 58.5 308c-2.998 0-5.608 1.434-7.837 3.881a18.13 18.13 0 0 0-2.551 3.62 18.118 18.118 0 0 0 2.511 3.574l-1.062 1.062Zm9.482-9.482-1.66 1.66a3.392 3.392 0 0 0-2.067 2.068l-1.66 1.66a4.879 4.879 0 0 1 5.387-5.388Zm4.29 4.196a4.881 4.881 0 0 1-5.481 5.481l1.591-1.591a3.393 3.393 0 0 0 2.299-2.299l1.591-1.591ZM49.28 325.78a.75.75 0 1 1-1.06-1.06l19.5-19.5a.75.75 0 1 1 1.06 1.06l-19.5 19.5Z"/>
    </g>
    <path fill="#E8F1FF" stroke="#0B64DD" stroke-width="2" d="M33.5 239.5a5 5 0 0 1 5-5h284a5 5 0 0 1 5 5v40a5 5 0 0 1-5 5h-284a5 5 0 0 1-5-5v-40Z"/>
    <path fill="#0B64DD" d="M86.5 259a3.5 3.5 0 0 1 3.5-3.5h108a3.5 3.5 0 1 1 0 7H90a3.5 3.5 0 0 1-3.5-3.5Zm-40-5.5a6 6 0 0 1 6-6h12a6 6 0 0 1 6 6v12a6 6 0 0 1-6 6h-12a6 6 0 0 1-6-6v-12Z"/>
    <path fill="#fff" stroke="#CAD3E2" d="M33 183.5a5.5 5.5 0 0 1 5.5-5.5h284a5.5 5.5 0 0 1 5.5 5.5v40a5.5 5.5 0 0 1-5.5 5.5h-284a5.5 5.5 0 0 1-5.5-5.5v-40Z"/>
    <path fill="#CAD3E2" d="M46.5 197.5a6 6 0 0 1 6-6h12a6 6 0 0 1 6 6v12a6 6 0 0 1-6 6h-12a6 6 0 0 1-6-6v-12Zm40 6.5a3.5 3.5 0 0 1 3.5-3.5h176a3.5 3.5 0 1 1 0 7H90a3.5 3.5 0 0 1-3.5-3.5Z"/>
    <g filter="url(#c)">
      <circle cx="209.5" cy="74.5" r="16" fill="#fff"/>
    </g>
    <path fill="#1D2A3E" fill-rule="evenodd" d="M218.167 67.834h-3.194l-.701 2.91h-12.105l1.587 6.412h8.973l-.398 1.653h-8.377v1.058h9.21l2.645-10.975h2.36v-1.058Zm-11.835 13.554a1.058 1.058 0 1 1-2.116 0 1.058 1.058 0 0 1 2.116 0Zm5.686 1.058a1.058 1.058 0 1 0 0-2.116 1.058 1.058 0 0 0 0 2.116Z" clip-rule="evenodd"/>
    <g filter="url(#d)">
      <rect width="326" height="72" x="17.5" y="99.5" fill="#516381" rx="6"/>
      <mask id="e" width="327" height="73" x="17" y="99" maskUnits="userSpaceOnUse" style="mask-type:alpha">
        <rect width="326" height="72" x="17.5" y="99.5" fill="#516381" rx="6"/>
      </mask>
      <g mask="url(#e)">
        <path fill="#ECF1F9" d="M354.814 202.272c-.482.037-.917-.185-.969-.674-.042-.384.015-.926.26-1.162.63-.61 1.173 0 1.805.314-.118.808-.248 1.454-1.097 1.532l.001-.01Zm-39.684-29.806c-.392.282-1.372.204-1.58-.121-.288-.448-.097-1.38.34-1.661.443-.283 1.055-.129 1.373.35.306.46.237 1.166-.139 1.436l.006-.004Zm64.96-6.236c-.255-.428-.025-1.224.443-1.483.452-.258 1.096-.082 1.389.37.291.464.158 1-.352 1.358-.516.373-1.165.262-1.48-.245Zm16.968 9.493c.48-.328 1.122-.204 1.497.294.364.48.246 1.108-.28 1.479-.403.291-1.073.151-1.389-.276-.386-.534-.312-1.165.172-1.497Zm-71.088-20.02c-.47.484-1.324.462-1.671.064-.345-.407-.268-1.257.143-1.562.399-.285 1.207-.049 1.778.671-.053.192-.041.615-.25.827Zm55.455 36.226c.218.421.46.876.06 1.172-.719.475-1.349.438-1.664.001-.389-.54-.265-1.277.282-1.585.476-.274 1.047-.115 1.322.412Zm-63.471-19.771c.053-.212.573-.439.854-.409.285.027.646.312.784.574.095.182-.067.602-.239.794-.349.379-.774.687-1.185.991-.359.269-.651.15-.921-.259.021-.128-.009-.373.095-.457.41-.33.476-.775.613-1.244l-.001.01Zm11.383 4.016c.198.384-.157 1.399-.575 1.623-.356.187-1.197-.19-1.435-.641-.207-.394-.009-.839.46-1.037.758-.324 1.362-.302 1.544.06l.006-.005Zm-2.428-27.455c-.315.21-1.215-.083-1.525-.489-.338-.446-.219-1.034.271-1.361.474-.324.975-.262 1.268.156.372.518.356 1.453-.016 1.704l.002-.01Zm43.063 68.594c.442-.309 1.213-.149 1.519.312.278.421.181.958-.238 1.276-.527.406-1.163.338-1.497-.163-.288-.423-.176-1.142.22-1.42l-.004-.005Zm21.051-26.277c.442-.309 1.214-.149 1.52.313.277.42.18.956-.237 1.275-.528.405-1.164.337-1.499-.163-.287-.423-.175-1.143.221-1.419l-.005-.006Zm-49.381-16.763c.18.345.326.895.182 1.198-.339.693-1.169.713-1.647.349.126.362.316.699.56.994.169.197.152.702.032.978-.199.454-.295.92-.416 1.386-.164.646-.795 1.04-1.372.911-.852-.189-1.203-.591-1.047-1.394.08-.428.349-.82.567-1.297l-.561-.528a1.001 1.001 0 0 1-.247-1.193c.251-.561.79-.698 1.368-.736.344-.024.626.067.818.275-.021-.426.196-.926.604-1.186.418-.258.93-.196 1.163.249l-.004-.006Zm58.613 10.7c.29.404.138 1.151-.275 1.406-.417.258-1.126.113-1.422-.287a.902.902 0 0 1 .167-1.277c.488-.377 1.207-.3 1.524.153l.006.005Zm-52.312 27.14c.421-.303.813-.214 1.175.145.394.391.478.891.221 1.326-.39.678-1.336.636-1.681.323-.347-.312-.407-1.295.289-1.789l-.004-.005Zm17.68-37.618c-.481-.094-.842-.402-.736-.903.081-.376.315-.89.617-1.022a.765.765 0 0 1 .864.12c.228-.69.91-1.19 1.647-1.522a2.113 2.113 0 0 1 1.363-.12c.593.141 1.029.578 1.368 1.205.344.633 1.057.844 1.11 1.565.073.975-.275 2.503-1.851 3.12-.958.371-1.714.277-2.328-.118-.712-.462-.402-1.505-.905-2.239a2.97 2.97 0 0 1-.231-.393c-.217.25-.499.385-.931.3l.013.007Zm-7.14-21.723c.275.06.631.529.649.843.059.777-.826 1.285-1.392 1.134-.572-.149-.952-.998-.404-1.651.218-.261.798-.403 1.15-.32l-.003-.006Zm34.359 49.232c.409-.296 1.062-.119 1.38.36.301.465.16.998-.356 1.36-.537.38-1.059.375-1.283-.008-.267-.453-.115-1.443.264-1.716l-.005.004Zm-45.506 17.552c-.261-.432-.103-1.159.517-1.545.269.098.767.154 1.069.429.42.38.186 1.134-.344 1.464-.424.262-.976.107-1.242-.348Zm-1.888-.917c-.453.317-1.11.205-1.381-.23-.307-.487-.141-1.202.34-1.48.444-.259 1.116-.104 1.379.31.256.402.092 1.108-.332 1.395l-.006.005Zm4.25-16.366c-.319.118-.834.135-1.08-.051-.673-.515-.38-1.149-.005-1.781.624-.019 1.294-.07 1.574.617.19.468.035 1.019-.489 1.215Zm34.774-37.507c.391-.343 1.042-.243 1.385.209.371.492.323 1.061-.121 1.39-.458.346-1.074.282-1.394-.151-.293-.394-.233-1.137.124-1.445l.006-.003Zm-48.869 25.618c-.248.325-.611.491-.775.514-.562.096-.867-.255-1.173-.621-.289-.328-.672-.561-.597-1.14.085-.674.979-1.085 1.653-.89.297.088.601.318.825.605.539-.353 1.182-.264 1.49.212.257.393.142 1.036-.225 1.292-.324.233-.833.222-1.202.022l.004.006Zm20.533 14.344c-.273.041-.696-.163-.865-.396-.318-.444-.21-.987.196-1.323.565-.459 1.281-.017 1.552.288.272.305-.109 1.321-.888 1.426l.005.005Zm-34.247-6.95c.509.263 1.024.572.899 1.249-.095.526-.539.855-1.064.749-.316-.065-.767-.37-.828-.646-.166-.708.325-1.105.983-1.355l.01.003Zm12.296-33.283c.263.414.148.962-.275 1.284-.458.347-.956.301-1.285-.118-.357-.449-.289-1.085.153-1.395.435-.305 1.145-.195 1.411.225l-.004.004Zm59.017 20.641a1.001 1.001 0 0 1-.233-.729 1 1 0 0 1 .346-.681c.441-.395.887-.363 1.25.082.394.486.373 1.044-.056 1.405-.378.315-.993.275-1.307-.077Zm-51.187 47.839c.352-.349.961-.295 1.284.093.293.359.223.969-.149 1.315-.378.35-1.046.331-1.275-.081-.248-.452-.265-.932.14-1.327Zm-20.888-14.313c.455-.638 1.059-.471 1.743-.048-.038.631.075 1.266-.649 1.495-.465.144-.93-.021-1.11-.487-.115-.279-.136-.74.021-.964l-.005.004Zm62.02-13.661c.407-.284.829-.226 1.181.107.3.285.087 1.353-.309 1.44-.395.085-.683-.086-.964-.298-.403-.305-.317-.954.091-1.239l.001-.01Zm-53.389-30.769c-.148-.6-.254-1.215.464-1.429.673-.201 1.008.274 1.182.839-.355.694-.829.934-1.646.59Zm-24.139 7.847c-.582-.03-.805-1.404-.319-1.832.485-.428 1.403-.39 1.628.068.227.459-.723 1.798-1.309 1.764Zm50.812 30.055c.069-.206.453-.438.675-.418.641.064.839.543.793 1.198-.443.284-.905.66-1.387.17-.176-.184-.178-.665-.087-.947l.006-.003Zm-10.815-59.593c.149-.236 1.095-.383 1.357-.02.282.392.167.976-.247 1.274-.381.274-.936.199-1.101-.259-.122-.336-.158-.758-.009-.995Zm-12.404 61.901c.487-.367 1.076.226 1.393.437.357.245.232.8-.173 1.126-.432.346-.875.329-1.093-.153-.15-.34-.618-1.039-.127-1.41Zm20.865 11.647c.333-.136 1.24-.351 1.436-.042.196.308-.282 1.056-.514 1.346-.252.31-.89.106-1.116-.293-.218-.386-.24-.836.194-1.011Zm-7.691-75.173c-.353.109-.853.097-1.165-.083-.337-.206-.17-1.017.257-1.202.275-.121.654-.014.839-.009.455.586.455 1.172.063 1.299l.006-.005Zm-35.077 21.671c-.383.319-1.007.268-1.273-.126-.295-.444-.142-.856.224-1.137.339-.261.729-.224 1.044.119.336.371.346.864.005 1.144Zm13.999 18.379c-.109.268-.179.698-.423.97-.313.345-.742.215-1.005-.149-.229-.318-.41-.688-.026-1.043.337-.31 1.018-.275 1.454.222Zm54.074-18.583c-.208-.083-.467-.492-.415-.658.107-.319.372-.742.654-.817.576-.148.778.372.968.804-.225.585-.609.914-1.212.666l.005.005Zm-1.357 34.168c-.197.109-.651.054-.796-.099-.196-.212-.371-.648-.286-.899.229-.665.801-.508 1.319-.398.28.558.327 1.076-.237 1.396Zm-44.902-56.38c-.372-.397.082-1.121.121-1.581.102-.039.202-.067.303-.106.6.042.707.215.933.613.226.398.215.716.193.854-.452.067-1.174.621-1.546.224l-.004-.004Zm-5.029 8.073c-.348.32-.727.032-.967-.313-.281-.402-.18-.992.228-1.096.314-.079 1.008-.373 1.241.142.233.514-.244 1.038-.502 1.267Zm49.811-1.085c.527-.226 1.032-.52 1.541-.784.444-.509.97-.474 1.35-.065.4.435.365.996-.058 1.524-.226.285-.501.586-.586.923-.168.665-.529 1.123-1.188 1.237-.507.088-1.48-.798-1.57-1.39-.091-.556-.216-1.138.515-1.44l-.004-.005Zm-5.492 3.335c.389.469.342 1.013-.123 1.373-.494.382-1.19.313-1.52-.147-.296-.408-.142-1.02.357-1.37.421-.304.973-.244 1.286.144Zm-1.598-5.165c.404-.301.924-.226 1.079.216.108.318.032.692.037.938-.562.346-1.156.143-1.403-.283-.235-.409.005-.651.29-.865l-.003-.006Zm14.038 46.52c.405-.301.925-.227 1.079.215.108.318.234.685.038.939-.197.254-1.157.144-1.404-.284-.235-.409.005-.65.291-.865l-.004-.005Zm-9.763-48.634c-.562.345-1.157.143-1.403-.284-.234-.408.006-.65.291-.864.405-.301.925-.226 1.078.215.109.318.033.693.038.938l-.004-.005Zm-2.382 67.322c.328-.142 1.212-.33 1.446-.016.236.314-.381 1.052-.644 1.284-.322.284-.73.198-.965-.262-.203-.389-.277-.827.158-1.011l.005.005Zm-44.168 2.931c.242-.192.736-.081.998-.089.449.599.255.964-.056 1.205-.315.244-.806.365-1.017-.07-.138-.289-.111-.887.08-1.04l-.005-.006Zm-18.636-56.892c-.289-.041-.508-.705-.714-1.099-.053-.108-.196-.367.14-.583.336-.217 1.236-.02 1.459.493.223.512-.229 1.286-.881 1.196l-.004-.007Zm44.482 1.243c.142.221.228.472.252.733.181-.216.453-.317.801-.301.568.022.95.359 1.053.838.169.75-.487 1.025-1.032 1.442-.43-.26-.812-.503-.98-.847a1.6 1.6 0 0 1-.484.659c-.716.516-2.08.299-2.625-.421-.528-.698-.389-1.703.303-2.203.994-.717 2.191-.672 2.706.104l.006-.004Zm-10.848-2.832c-.42-.57-.382-1.571.074-1.968.566-.495 1.851-.342 2.281.28.289.413.001 1.259-.58 1.721-.592.46-1.422.446-1.775-.033Zm-6.126-1.593c-.789.726-1.749.148-2.229-.171-.48-.318-.045-1.572.771-1.961.532-.255.938-.099 1.289.305.454.535.564 1.465.169 1.827Zm25.986 12.42c.562.673.429 1.649-.3 2.182-.621.456-1.159.715-1.613.791.238.666.025 1.578-.78 2.115-.63.419-1.229.282-1.766-.236-.609-.582-.72-1.346-.313-1.967a1.798 1.798 0 0 1 1.429-.807c-.236-.795.059-2.051.657-2.526.586-.455 2.155-.206 2.687.438l-.001.01Zm-4.402.392c-.437.315-1.03.26-1.305-.122-.281-.392-.072-1.25.373-1.519a.964.964 0 0 1 1.284.275c.304.445.158 1.008-.352 1.366Zm-27.009-5.995c-.496.27-1.136.137-1.394-.317-.274-.476-.092-.847.325-1.13.486-.343 1.114-.251 1.402.198a.882.882 0 0 1 .11.695.87.87 0 0 1-.438.55l-.005.004Zm51.709-8.199c-.345.334-1.08.381-1.252-.014-.142-.328-.403-1.133.017-1.401.416-.273.938.187 1.171.39.29.248.435.653.064 1.025Zm-40.012 4.914c.181-.371.809-.253 1.095.083.389.445.259.875-.089 1.074-.283.16-.808.401-1.077.05-.269-.348-.085-.87.076-1.21l-.005.003Zm11.521 7.359c.535-.107 1.163.717.82 1.198-.338.476-1.161.343-1.51-.251-.176-.305.255-.856.69-.947Zm-20.64-17.657c-.404.205-1.122-.217-1.322-.471-.287-.362-.124-.842.315-1.132.455-.302.818-.038.982.31.133.292.43 1.088.025 1.293Zm46.589 67.056c.284-.153 1.11-.325 1.265-.099.153.225-.139.97-.329 1.245-.257.374-.751.248-1.111-.165-.363-.42-.165-.805.176-.99l-.001.009Zm-51.403-67.428c-.283.076-.709.011-.921-.164-.327-.274-.112-1.067.326-1.201.264-.087.598.052.756.067.365.592.254 1.181-.155 1.295l-.006.003Zm25.915-8.806c.388.048.458 1.785.12 2.07-.338.286-1.147-.261-1.319-1.016-.173-.755.805-1.097 1.194-1.05l.005-.004Zm-40.926 48.955c-.495-.101-.588-.432-.341-1.455.695-.448 1.379.31 1.319.776-.053.383-.589.752-.973.674l-.005.005Zm-5.744 5.07c-.495-.102-.942-.901-.34-1.455.694-.45 1.379.309 1.317.775-.051.384-.588.752-.971.675l-.006.005Zm62.461 11.698c.194-.141.967-.146 1.109.089.147.239-.211.997-.362 1.029-.32.058-.958.025-1.036-.229-.085-.25.081-.749.286-.896l.003.007Zm-17.226 6.266c.315-.21 1.003.363 1.168.616.103.168-.095.646-.303.848-.262.258-.702.272-.848-.157-.106-.304-.333-1.097-.017-1.307Zm37.072-.78c.243-.131.744-.225.908-.067.16.161.094.717-.06.897-.147.167-.895.351-1.066.138-.171-.213.069-.886.218-.968Zm10.272-27.372c.199-.213 1.361-.411 1.666-.01.306.401-.423 1.376-.771 1.624-.255.185-1.001.205-1.302-.191-.302-.395.108-1.096.407-1.423Zm-59.403-45.574c.151.149.443.674.125.988-.317.315-.829-.11-.946-.284-.127-.176-.276-.587.027-.814.302-.225.649-.044.804.112l-.01-.002Zm53.159 60.968c.1-.115.675-.201.778-.059.097.136-.12.612-.261.765-.078.082-.492.035-.529-.05-.078-.194-.101-.514.012-.656Zm-6.961-49.211c-.079.083-.416.119-.527-.051-.114-.169-.102-.513.011-.655.098-.114.614-.26.776-.059.163.202-.119.612-.26.765Zm2.459 46.829c.22-.124.605.073.675.196.11.188.303.575.092.701-.212.127-.56.05-.685-.076-.125-.125-.299-.69-.079-.814l-.003-.007Zm8.456-5.245c.254-.15.668.054.764.2.098.135.042.512-.084.638-.107.103-.514.076-.619-.045-.118-.141-.326-.646-.061-.793Zm-81.511-42.142c.094.071.216.518-.002.692-.219.175-.594-.141-.725-.298-.084-.094-.076-.453.071-.56.148-.107.491.034.652.161l.004.005Zm56.06 70.338c-.196.157-.542.026-.661-.103-.125-.126-.268-.661-.073-.81.193-.149.686.092.779.232.106.147.156.517-.04.676l-.005.005Zm-1.329 6.91c.093.07.217.516-.002.691-.22.175-.595-.141-.724-.297-.086-.095-.077-.455.071-.561.148-.106.491.035.65.16l.005.007Zm.664-84.798c-.197.159-.541.028-.661-.102-.125-.125-.268-.661-.073-.809.194-.149.687.092.779.231.107.148.157.518-.039.676l-.006.004Zm7.905-2.416c.094.071.216.517-.002.692-.219.175-.594-.142-.724-.298-.085-.095-.077-.454.071-.561.148-.106.491.035.651.162l.004.005Zm-45.398 3.308c.04.127.131.312.029.411-.101.099-.216-.025-.359-.044.01-.154-.012-.292.046-.378.034-.05.281-.03.29.007l-.006.004Zm59.739 53.753c.161-.099.337.025.394.104.058.08-.035.31-.111.347-.078.048-.268.072-.345-.036-.078-.106-.094-.32.062-.415Zm-26.895 17.218c.161-.099.336.025.393.104.058.079-.035.31-.111.348-.078.048-.268.071-.346-.036-.077-.108-.093-.32.064-.416Zm24.473-50.2c-.078.047-.268.072-.345-.036-.078-.108-.094-.321.062-.415.162-.1.337.023.395.103.057.08-.036.31-.112.348Zm-60.197 62.267c.099-.115.489-.352.776-.059.286.286-.119.611-.259.765-.078.082-.492.036-.528-.051-.079-.193-.103-.513.011-.655Zm49.507-20.288c.099-.116.488-.352.777-.06.283.287-.12.612-.261.767-.078.082-.491.034-.527-.053-.079-.193-.102-.512.011-.654ZM332.398 225.9c.221-.125.605.073.676.195.109.188.302.576.09.702-.211.127-.559.05-.684-.076s-.299-.69-.078-.816l-.004-.005Zm1.518 3.617c.335-.207.665-.082.822.218.157.302-.079.645-.229.736-.172.097-.478.223-.73-.078-.248-.296-.203-.666.132-.872l.005-.004Zm-11.843-42.623c-.218-.205-.201-.399.012-.604.197-.185.375-.2.573.002.197.203.231.394.016.61-.21.211-.403.221-.597-.001l-.004-.007Zm3.046 5.752a2.088 2.088 0 0 1 1.37.127c.562.241.909.76 1.13 1.437.225.683.892 1.023.815 1.743-.103.971-.718 2.416-2.38 2.732-1.01.193-1.74-.032-2.265-.534-.618-.581-.125-1.55-.484-2.36-.857-1.911.446-2.806 1.824-3.144l-.01-.001Zm6.924 1.837c.737-.031 1.85.867 1.715 1.914-.13 1.052-.736 1.565-1.445 1.731-.707.156-1.427-.784-1.673-1.771-.18-.716.66-1.839 1.397-1.871l.006-.003Zm-1.788-5.631c.599.388 1.31 1.602.363 2.55-.956.949-2.049.977-2.675.419-.627-.559-.709-2.182-.049-2.822.85-.82 1.761-.526 2.366-.141l-.005-.006Zm28.13 2.22c-.028.847-1.438 2.028-2.216 2.002-.784-.023-1.022-.964-1.247-1-.225-.038-.982.983-1.95.921-.968-.062-1.795-1.354-1.783-2.045.011-.69.097-1.218.482-1.642.469-.511 1.42-.842 2.062-.501.642.339 1.093 1.36 1.379 1.361.29.008.956-1.102 1.916-.956.965.141 1.376 1 1.353 1.854l.004.006Zm16.316-29.51c.577.059 1.281.605 1.377 1.182.129.814-.523 1.309-.778 1.398.44.779.278 1.871-.379 2.335-.676.487-1.422.542-2.024.233.077.359.021.761-.261 1.171-.767 1.104-1.841 1.327-2.551.89-.479-.293-.806-1.094-.807-1.826-.43.205-.902.114-1.173-.251-.288-.389-.16-1.049.275-1.39.438-.34 1.074-.272 1.396.152.04.052.075.108.103.167.639-.538 1.392-.416 1.951-.19l.117.054c-.131-.612.146-1.209.837-1.724.261-.188.513-.318.76-.393a.89.89 0 0 1-.3-.645c-.034-.683.768-1.244 1.463-1.167l-.006.004Zm-2.285 23.5c-.963.15-1.466-.945-1.742-.945-.276.001-.988 1.419-2.18 1.561-1.192.144-2.499-1.254-2.637-2.103-.134-.844-.149-1.514.228-2.114.244-.382.656-.731 1.127-.941a.91.91 0 0 1 .363-.933c.4-.281 1.17-.171 1.435.207a.855.855 0 0 1 .046.891c.621.432 1.153 1.11 1.421 1.064.35-.054.921-1.561 2.13-1.595 1.21-.035 1.906.922 2.068 1.961.163 1.04-1.301 2.792-2.263 2.942l.004.005Zm-28.385-28.48c-.606 1.325-1.847.468-1.906 1.426-.061.958.839.602.657 1.942-.183 1.34-1.451 1.986-2.173 1.367-.723-.619-.509-1.437-.72-1.527-.212-.09-1.225-.238-1.109-.988.244-1.589 1.608-1.002 1.827-1.453.218-.451.048-1.442.31-2.131.373-.967 1.247-1.623 2.224-1.118 1.129.584 1.316 1.563.894 2.487l-.004-.005Zm26.62 51.027c-.614.763-1.71 1.112-2.158.357-.449-.755-.372-1.45-.293-2.301.061-.631.867-.771.337-1.303-.531-.533-1.482-1.77-.375-2.629.544-.419 1.541-.291 2.033.2l.017.023a1.882 1.882 0 0 1 .843-1.487c.709-.468 1.983-.135 2.446.627.443.735.274 1.735-.352 2.134-.593.376-1.757.232-2.408-.215.044.288.013.569-.134.771-.343.471.936.929.505 1.612-.416.644.165 1.45-.451 2.213l-.01-.002Zm-7.376-20.551c1.07.79.797 1.513 1.537 1.964.735.446.728 1.011.451 1.883-.041.125-.084.269-.132.406.349-.104.735-.021.846.263.092.261-.019.729-.218.932-.307.317-.741.335-1.008-.154-.028-.04-.047-.078-.07-.122-.302.408-.723.66-1.351.447-1.207-.415-1.088-1.269-.929-1.624.158-.356-.132-1.106-.43-.787-.297.317-.845.323-1.654-.405-.81-.728-.982-1.458-.365-2.386.673-1.019 2.261-1.197 3.333-.416l-.01-.001Zm-47.407-4.477c.348-.259.574-.258.848-.213.269.038.573-.042.926.22.354.264.901.94.852 1.613-.054.669-.391 1.135-.901 1.373s-1.035.047-1.345-.177c-.31-.226-.788-.772-.703-1.324.086-.553-.056-1.193.322-1.482l.001-.01Zm6.58-.711c.26-.022.495.136.555.351.055.219-.165.611-.383.69-.218.08-.495-.231-.543-.454-.04-.187.115-.558.381-.586l-.01-.001Zm-3.639 9.274c-.176.557-.468 1.398-1.237 1.133-.769-.266-.695-.81-.593-1.04.103-.229-.086-.705-.275-.501-.193.2-.54.208-1.057-.256-.515-.466-.626-.931-.233-1.523.431-.647 1.449-.768 2.129-.266.681.502.509.97.979 1.253.472.281.468.646.292 1.205l-.005-.005Zm-7.932-5.813c-.428.542-.752 1.266-1.589 1.447a59.663 59.663 0 0 1-.853-.491c-.851.364-1.736.32-2.008-.14-.224-.382-.177-.796.135-1.142.573-.619.927-.641 1.807-.163.66-.198 1.234-.431 1.834-.518.598-.094 1.038.555.674 1.016v-.009Zm54.965-20.199c.071.76-.261 1.171-.901 1.183-.113.763-.111 1.341-.301 1.857-.186.496-.9.942-1.529 1.101.347.156.672.439.931.883.715 1.219.613 1.81-.335 2.518-.936.64-1.987.379-2.738-.676a1.537 1.537 0 0 1-.125-.221c-.036.561-.271 1.145-.663 1.462-.439.35-1.261.131-1.713-.448-.535-.694-.402-1.446.358-2.054.554-.441 1.461-.44 1.771.002.043.064.081.133.111.204.052-.563.361-1.14.873-1.483.198-.134.397-.216.596-.264-.66-.414-1.233-1.52-1.118-2.223.124-.703.963-1.358 1.893-1.347.617.005 1.15.111 1.589-.55.313-.475.858-.282 1.283.069l.018-.013Zm-15.787-1.984c.92-.663 2.277-.648 2.793.033.557.737.321 2.254-.424 2.765-.722.494-2.071.214-2.6-.543-.524-.753-.422-1.785.231-2.255Zm35.335 20.187c.27.435.141 1.106-.268 1.4-.391.284-1.115.105-1.379-.334-.273-.45-.098-1.033.415-1.351.468-.286.947-.183 1.234.275l-.002.01Zm-52.172-10.061a.89.89 0 0 1 .675-.183.872.872 0 0 1 .596.365c.346.458.304.928-.122 1.27-.445.363-1.076.326-1.417-.076-.333-.39-.21-1.022.268-1.376Zm22.456 6.059c-.102.228 1.464.739.905 2.022-.555 1.289-1.467 1.592-2.569.962-.338-.196-.839-.232-1.382-.255l-.023.015c-.312.226-.826.173-1.085-.08-.847-.098-1.59-.399-1.791-1.444-.271-1.454.733-2.133 1.353-2.122.624.016 1.203.556 1.607.421.402-.135-.52-.29.592-1.118 1.112-.827 3.076.079 2.386 1.588l.007.011Zm27.831-28.09c-.144.578-.02.403.423.826.448.419.8 1.278-.155 1.785-.961.51-2.027-.119-2.547-.9s.082-2.605 1.162-2.986c.782-.269 1.252.695 1.111 1.28l.006-.005Z"/>
        <path fill="#ECF1F9" d="M346.499 160.312c-.401-.271-.889-.294-1.176.106-.226.313-.445.813-.348 1.139.246.841 1.019.579 1.723.619.298-.76.504-1.385-.195-1.874l-.004.01Zm-49.232 6.275c-.202-.439-1.092-.856-1.434-.676-.471.246-.766 1.151-.526 1.611.245.466.853.634 1.366.376.494-.249.783-.897.59-1.317l.004.006Zm53.372 37.551c-.434.246-.627 1.051-.349 1.508.266.448.912.614 1.391.365.482-.259.631-.79.366-1.354-.265-.579-.884-.804-1.408-.519Zm19.443.143c.255.522.874.732 1.446.485.553-.238.762-.842.488-1.424-.207-.452-.858-.662-1.344-.447-.599.273-.847.857-.59 1.386Zm-71.686-17.763c-.169-.654-.922-1.056-1.421-.882-.501.183-.854.96-.648 1.428.205.445 1.025.64 1.877.296.049-.192.269-.555.192-.842Zm66.115-4.054c.397-.259.832-.534.632-.99-.391-.769-.956-1.048-1.447-.823-.605.277-.861.978-.538 1.516.278.474.853.618 1.353.297Zm-64.942-14.213c-.059.211.28.666.539.778.262.118.716.049.966-.111.172-.111.239-.556.185-.808-.116-.502-.334-.98-.54-1.447-.179-.411-.492-.453-.929-.231-.045.122-.192.32-.143.444.193.49.031.909-.082 1.385l.004-.01Zm11.879 2.14c.362-.235.556-1.293.303-1.694-.217-.339-1.134-.428-1.564-.153-.375.24-.423.724-.114 1.129.5.656 1.035.935 1.372.711l.003.007Zm-15.69 22.661c-.17-.338-1.097-.529-1.568-.33-.515.221-.701.791-.437 1.317.251.516.718.711 1.179.492.579-.266 1.028-1.086.829-1.489l-.003.01Zm71.355-38.315c.231.488.98.73 1.474.48.45-.228.631-.743.425-1.227-.258-.613-.845-.868-1.383-.598-.459.225-.717.905-.51 1.343l-.006.002Zm5.298 33.25c.231.487.981.73 1.475.48.449-.228.63-.742.425-1.225-.258-.613-.845-.869-1.384-.6-.458.225-.716.906-.509 1.343l-.007.002Zm-51.209-9.856c.327-.212.726-.618.75-.952.049-.77-.663-1.198-1.259-1.118.289-.252.621-.451.979-.587.245-.088.48-.534.512-.834.052-.493.198-.945.324-1.41.176-.643-.177-1.298-.742-1.47-.834-.258-1.338-.082-1.6.693-.142.411-.102.886-.148 1.408l-.749.181a1.002 1.002 0 0 0-.805.915c-.059.612.341.998.825 1.316.287.191.577.251.847.166-.229.36-.288.902-.062 1.329.236.431.711.63 1.134.359l-.006.004Zm56.233 19.691c.452-.207.69-.931.457-1.357-.236-.431-.923-.655-1.378-.454a.896.896 0 0 0-.561.843.91.91 0 0 0 .074.349c.238.569.901.858 1.401.621l.007-.002Zm-32.039-49.462c.215.472.6.588 1.092.455.536-.145.856-.538.848-1.043-.004-.782-.847-1.213-1.302-1.113-.455.101-.993.925-.633 1.699l-.005.002Zm-3.242 41.439c-.465-.157-.931-.067-1.087.42-.115.368-.166.93.031 1.195a.766.766 0 0 0 .81.322c-.143.712.203 1.485.679 2.138.301.409.697.651 1.125.778.586.171 1.181.007 1.785-.37.612-.381 1.336-.211 1.739-.811.545-.812.999-2.312-.066-3.627-.649-.796-1.352-1.089-2.081-1.05-.847.05-1.094 1.109-1.894 1.499a3.06 3.06 0 0 0-.395.227c-.065-.325-.244-.581-.661-.721h.015Zm-16.951 15.348c.27.084.81-.148.981-.411.436-.647-.082-1.526-.649-1.674-.571-.154-1.32.395-1.167 1.234.06.335.494.745.841.847l-.006.004Zm54.214-25.792c.208.458.864.628 1.377.369.492-.255.633-.788.363-1.358-.279-.596-.735-.85-1.119-.628-.456.262-.814 1.197-.619 1.622l-.002-.005Zm-30.868-37.764c-.441.247-.663.957-.315 1.599.283.047.743.245 1.141.155.553-.122.723-.893.425-1.442-.239-.437-.794-.576-1.251-.312Zm-2.094-.137c-.237-.499-.864-.727-1.314-.482-.508.27-.717.974-.437 1.453.258.445.919.643 1.352.413.422-.222.627-.917.402-1.376l-.003-.008Zm-4.402 16.326c-.219-.26-.658-.53-.964-.49-.84.115-.898.811-.885 1.546.533.325 1.09.701 1.673.242.396-.313.534-.869.176-1.298Zm11.67 49.798c.171.491.786.726 1.307.503.566-.244.806-.762.582-1.267-.226-.528-.794-.777-1.286-.559-.449.197-.764.873-.607 1.317l.004.006Zm-29.801-46.437c-.055-.405-.288-.729-.419-.83-.442-.361-.879-.207-1.327-.041-.413.143-.861.156-1.082.696-.26.628.313 1.427.996 1.591.301.071.68.02 1.017-.118.293.574.896.814 1.4.553.417-.214.636-.83.443-1.234-.166-.363-.615-.605-1.034-.613l.006-.004Zm24.94-2.31c-.217-.171-.685-.202-.947-.084-.496.229-.671.754-.484 1.247.264.679 1.105.648 1.491.518.387-.131.559-1.203-.067-1.679l.007-.002Zm-33.201-10.899c.572.023 1.173.009 1.399-.641.177-.505-.046-1.01-.554-1.178-.307-.099-.85-.057-1.039.152-.495.534-.265 1.121.184 1.664l.01.003Zm-5.777 35.008c.433-.23.605-.763.397-1.252-.227-.528-.682-.734-1.175-.533-.533.213-.789.8-.558 1.287.228.481.899.737 1.338.504l-.002-.006Zm61.502 11.252a1.005 1.005 0 0 0-.599 1.282c.188.561.59.754 1.127.547.582-.228.84-.723.646-1.25-.173-.46-.727-.729-1.174-.579Zm-20.824-66.895c.134.477.689.732 1.162.554.432-.167.673-.732.521-1.217-.155-.491-.746-.805-1.149-.56-.438.27-.69.679-.534 1.223Zm-25.233 2.108c.079.779.687.932 1.49.903.28-.567.692-1.063.176-1.62-.333-.355-.819-.442-1.206-.126-.238.186-.484.576-.458.849l-.002-.006Zm47.144 42.549c.213.448.608.607 1.08.491.401-.099.744-1.133.443-1.404-.301-.27-.636-.263-.985-.218-.501.066-.748.672-.534 1.122l-.004.009Zm-61.619.334c-.426.448-.822.93-.305 1.471.486.508 1.012.26 1.443-.145.035-.778-.259-1.221-1.138-1.326Zm-17.099-18.76c-.52-.262-1.394.822-1.183 1.435.21.612 1.026 1.032 1.449.745.424-.286.26-1.92-.266-2.18Zm59.027-.987c-.042.212.177.604.38.696.589.262.998-.057 1.282-.649-.244-.465-.46-1.021-1.121-.833-.244.072-.484.49-.544.779l.003.007Zm-38.876 46.442c.013.278.762.875 1.17.689.439-.202.628-.766.415-1.229-.195-.427-.714-.637-1.085-.32-.272.232-.512.581-.5.86Zm19.838-59.934c.242.56 1.047.337 1.427.31.431-.036.597-.581.406-1.065-.204-.514-.597-.718-1.025-.407-.299.221-1.051.597-.808 1.162Zm23.895.199c.222.282.905.918 1.228.746.322-.17.277-1.057.218-1.423-.065-.394-.721-.533-1.115-.298-.38.227-.622.608-.331.975Zm-43.867 61.528c-.254-.269-.693-.506-1.054-.504-.395.013-.651.8-.371 1.172.179.241.561.336.724.423.686-.284.976-.793.698-1.098l.003.007Zm-19.767-36.184c-.175-.467-.742-.731-1.168-.52-.476.24-.547.674-.368 1.099.165.395.523.555.966.412.476-.155.728-.579.57-.991Zm21.258-9.049c.037-.287.189-.695.111-1.052-.1-.455-.538-.554-.946-.368-.356.163-.697.395-.538.894.139.436.748.742 1.373.526Zm37.804 42.897c-.222-.03-.649.197-.687.367-.064.33-.043.829.165 1.033.428.414.86.062 1.239-.219.094-.621-.077-1.096-.724-1.179l.007-.002Zm15.721-30.367c-.118-.191-.538-.368-.741-.308-.275.088-.643.38-.692.641-.131.691.444.837.949.998.519-.346.816-.774.484-1.331Zm-66.912 26.791c-.519.161-.483 1.014-.676 1.434.069.083.142.158.211.242.541.26.72.162 1.113-.072.394-.234.542-.516.591-.647-.36-.281-.714-1.12-1.233-.959l-.006.002Zm-.378-9.504c-.144-.451-.615-.388-.995-.207-.442.211-.646.773-.343 1.066.233.223.692.823 1.148.49.457-.331.302-1.023.19-1.349Zm42.755 25.581c.346.457.639.962.952 1.443.134.663.608.892 1.14.725.563-.18.81-.685.704-1.353-.055-.36-.145-.757-.053-1.093.183-.661.097-1.237-.421-1.662-.396-.327-1.681-.039-2.052.431-.353.438-.75.882-.265 1.507l-.005.002Zm-3.124-5.615c.571-.215.799-.711.572-1.254-.239-.576-.878-.861-1.393-.625-.459.209-.628.817-.367 1.368.215.472.725.693 1.188.511Zm-3.943 3.698c.203.462.691.654 1.044.346.252-.222.371-.585.496-.796-.317-.579-.933-.697-1.359-.449-.407.24-.318.569-.175.896l-.006.003Zm35.211-33.487c.202.462.691.655 1.044.347.251-.222.542-.48.497-.797-.045-.318-.935-.697-1.36-.448-.407.24-.318.568-.176.896l-.005.002Zm-32.541 37.439c-.319-.578-.935-.696-1.36-.447-.406.239-.317.567-.175.895.204.462.692.654 1.044.346.251-.223.371-.586.497-.796l-.006.002Zm31.229-59.687c.215.285.89.885 1.249.729.36-.157.189-1.103.075-1.435-.139-.406-.536-.533-.968-.25-.369.238-.65.582-.363.958l.007-.002Zm-36.937-24.395c.116.287.6.435.823.571.687-.299.699-.712.548-1.075-.153-.368-.52-.716-.919-.442-.263.182-.535.716-.445.944l-.007.002Zm-44.337 40.227c-.271-.107-.79.361-1.164.601-.099.069-.352.223-.167.577.185.355 1.065.629 1.512.294.447-.336.438-1.231-.174-1.475l-.007.003Zm39.275 20.922c.232-.122.431-.297.581-.512.05.277.237.499.547.657.505.263 1.003.158 1.33-.207.518-.568.083-1.132-.184-1.764-.502.014-.954.036-1.27.251a1.602 1.602 0 0 0-.095-.811c-.367-.803-1.66-1.289-2.489-.933-.805.345-1.182 1.288-.827 2.065.51 1.114 1.571 1.667 2.403 1.248l.004.006Zm-10.829-2.905c-.647.288-1.11 1.177-.91 1.748.248.71 1.44 1.212 2.121.885.456-.216.624-1.094.347-1.783-.287-.693-1.015-1.091-1.558-.85Zm-6.112-1.645c-.328-1.021-1.448-.994-2.022-.954-.575.039-.817 1.344-.301 2.086.337.485.767.55 1.272.372.66-.24 1.215-.994 1.051-1.504Zm28.727 2.06c.822-.307 1.188-1.222.819-2.045-.314-.704-.654-1.195-1.01-1.486.535-.461.802-1.359.367-2.224-.34-.676-.928-.853-1.652-.668-.816.204-1.291.814-1.244 1.555.041.627.391 1.122.843 1.408-.599.573-.963 1.811-.678 2.52.284.685 1.77 1.245 2.551.949l.004-.009Zm-3.632-2.519c-.224-.49-.767-.735-1.194-.54-.438.202-.681 1.051-.427 1.505a.959.959 0 0 0 1.252.397c.484-.237.635-.798.369-1.362Zm-26.439-8.149c-.297-.48-.92-.681-1.368-.414-.473.278-.499.69-.277 1.143.254.538.844.769 1.317.521a.873.873 0 0 0 .331-1.245l-.003-.005Zm40.885 32.703c-.135-.462-.75-.866-1.095-.608-.285.215-.91.786-.677 1.227.225.443.907.3 1.21.239.375-.072.701-.352.562-.858Zm-32.343-24.063c-.027.412.577.621.992.47.558-.194.658-.632.454-.978-.166-.279-.504-.747-.911-.576-.406.17-.504.715-.533 1.09l-.002-.006Zm13.653-.697c.412.359 1.364-.047 1.304-.635-.058-.581-.838-.872-1.435-.529-.305.178-.202.87.131 1.164Zm-26.673 5.137c-.249-.378-1.082-.366-1.382-.245-.429.173-.524.671-.286 1.14.246.488.692.438 1.007.216.26-.188.912-.732.661-1.111Zm73.659-35.234c.171.274.804.832 1.05.712.245-.12.36-.912.331-1.245-.038-.452-.531-.588-1.048-.406-.523.185-.541.618-.337.947l.004-.008Zm-78.027 33.176c-.208-.205-.61-.359-.881-.313-.42.077-.625.872-.311 1.205.187.207.546.25.69.315.61-.333.805-.899.506-1.201l-.004-.006Zm18.168 20.471c.361.151 1.28-1.324 1.128-1.739-.152-.416-1.126-.34-1.649.23-.524.571.157 1.353.518 1.504l.003.005Zm-11.355-62.789c-.48-.157-.724.084-1.016 1.095.383.734 1.352.413 1.53-.021.144-.359-.139-.946-.512-1.068l-.002-.006Zm-2.484-7.248c-.481-.156-1.264.317-1.015 1.096.381.735 1.351.415 1.528-.022.145-.358-.139-.944-.51-1.067l-.003-.007Zm60.071 20.729c.1.218.768.604 1.008.471.246-.135.31-.972.194-1.074-.249-.209-.82-.495-1.013-.313-.198.175-.3.691-.195.92l.006-.004Zm-11.872-13.967c.17.338 1.052.181 1.32.042.173-.094.237-.608.156-.886-.1-.355-.475-.584-.814-.283-.242.211-.832.789-.662 1.127Zm31.834 19.015c.146.234.536.564.756.508.219-.061.437-.577.392-.81-.045-.218-.604-.747-.858-.647-.254.101-.379.804-.29.949Zm-4.611 28.87c.067.284.979 1.03 1.442.833.465-.197.313-1.405.134-1.793-.131-.287-.769-.673-1.227-.478-.457.194-.448 1.006-.349 1.438Zm-74.17 10.226c.205-.055.718-.367.598-.797-.12-.43-.776-.314-.963-.221-.198.09-.531.373-.38.72.151.346.542.36.754.301l-.009-.003Zm76.357-26.693c.03.149.488.508.647.436.152-.071.199-.591.152-.794-.027-.11-.41-.274-.484-.218-.165.13-.343.396-.315.576Zm-30.391 39.326c-.027-.111-.302-.309-.484-.217-.182.091-.342.396-.314.575.029.148.405.53.646.436.241-.096.199-.591.152-.794Zm25.3-39.483c.13.216.562.236.684.164.188-.11.548-.35.427-.564-.122-.215-.463-.321-.633-.273-.171.047-.602.452-.472.669l-.006.004Zm4.755 8.741c.147.256.607.284.763.204.152-.069.29-.424.243-.596-.042-.142-.409-.32-.561-.267-.172.064-.603.4-.445.659Zm-91.686-3.692c.117-.016.444-.343.34-.603-.103-.26-.586-.17-.777-.099-.12.04-.291.356-.215.521.076.167.443.214.646.183l.006-.002Zm83.513-33.402c-.093-.234-.458-.291-.625-.237-.171.047-.56.441-.465.667.095.226.642.26.792.184.165-.076.392-.372.3-.607l-.002-.007Zm2.263-6.663c.115-.014.443-.341.34-.601-.104-.262-.587-.172-.777-.1-.121.04-.291.357-.215.522.076.166.444.213.644.182l.008-.003Zm-41.367 74.027c-.092-.235-.456-.292-.624-.239-.171.048-.561.442-.465.668.096.225.643.26.792.183.166-.075.392-.371.301-.606l-.004-.006Zm5.675 6.01c.117-.016.444-.343.341-.603-.103-.26-.586-.17-.777-.099-.12.04-.291.356-.215.523.075.165.443.212.646.181l.005-.002Zm-37.819-25.331c.098-.091.268-.206.229-.343-.039-.136-.2-.085-.334-.139-.067.139-.155.248-.147.352.005.06.229.164.256.136l-.004-.006Zm78.508-17.168c.091.166.305.145.394.105.089-.041.122-.287.075-.357-.044-.08-.198-.195-.318-.139-.121.054-.24.232-.151.391Zm-14.859-28.267c.091.165.305.145.394.104.089-.041.122-.288.075-.358-.044-.08-.198-.194-.319-.139-.12.055-.238.232-.15.393Zm-3.56 55.734c-.045-.08-.198-.195-.318-.139-.121.055-.24.232-.151.392.091.166.304.146.393.105.09-.042.123-.288.076-.358Zm-21.519-83.892c.029.149.251.548.646.436.39-.108.198-.59.153-.794-.027-.11-.41-.274-.485-.217-.163.129-.342.395-.314.575Zm32.992 42.121c.029.149.25.546.645.435.389-.109.199-.591.153-.795-.027-.11-.41-.273-.484-.215-.164.129-.342.395-.314.575Zm-36.994-35.894c.13.218.562.236.684.166.188-.11.548-.351.426-.566-.121-.214-.462-.32-.632-.273-.171.049-.602.453-.472.671l-.006.002Zm3.108-2.392c.189.345.538.4.823.217.286-.185.25-.599.165-.753-.102-.169-.305-.43-.673-.293-.362.135-.506.479-.317.823l.002.006Zm-31.375 31.185c-.291.071-.372.248-.288.532.08.257.226.359.499.281.271-.079.395-.228.315-.522-.078-.288-.241-.391-.519-.294l-.007.003Zm5.493-3.491c.368.348.8.52 1.253.567.608.068 1.166-.211 1.693-.691.533-.482 1.281-.447 1.57-1.111.391-.895.571-2.455-.717-3.551-.782-.667-1.528-.834-2.233-.657-.824.2-.875 1.285-1.587 1.812-1.691 1.236-1.001 2.659.03 3.635l-.009-.004Zm6.926 1.828c.625.391 2.036.161 2.437-.815.407-.98.134-1.725-.399-2.22-.537-.485-1.628-.024-2.331.712-.51.534-.336 1.925.289 2.317l.004.006Zm-4.34 4.01c.713-.042 1.931-.745 1.578-2.037-.362-1.298-1.299-1.863-2.119-1.688-.821.176-1.695 1.546-1.438 2.429.334 1.133 1.271 1.328 1.987 1.292l-.008.004Zm25.546 11.984c.395-.75-.246-2.474-.935-2.836-.693-.368-1.365.331-1.578.252-.215-.079-.368-1.34-1.24-1.765-.872-.425-2.23.289-2.561.895-.331.605-.518 1.107-.393 1.666.155.676.818 1.435 1.544 1.456.726.022 1.623-.643 1.872-.502.255.137.286 1.431 1.192 1.779.908.355 1.691-.188 2.093-.942l.006-.003Zm-.416 33.718c.531.234 1.412.107 1.782-.346.515-.644.192-1.397.015-1.601.768-.459 1.167-1.488.826-2.217-.347-.757-.969-1.174-1.644-1.203.244-.274.394-.652.352-1.147-.12-1.339-.943-2.063-1.777-2.036-.561.019-1.241.553-1.605 1.188-.271-.39-.727-.544-1.143-.361-.442.195-.658.832-.448 1.344.212.512.798.767 1.288.558a.87.87 0 0 0 .172-.094c.289.784 1.004 1.05 1.602 1.13l.128.011c-.417.468-.47 1.123-.125 1.912.134.293.289.53.466.718a.89.89 0 0 0-.58.412c-.368.576.052 1.461.695 1.738l-.004-.006Zm9.638-21.555c-.762-.606-1.741.097-1.981-.04-.24-.138-.157-1.722-1.123-2.435-.965-.714-2.792-.147-3.332.524-.533.667-.878 1.241-.847 1.95.023.452.208.96.514 1.375a.914.914 0 0 0-.147.99c.21.442.933.728 1.351.53a.855.855 0 0 0 .48-.752c.753-.068 1.551-.394 1.761-.221.278.219.029 1.811 1.063 2.44 1.034.628 2.112.141 2.767-.682.656-.823.251-3.07-.512-3.677l.006-.002Zm-38.756 10.712c.128-1.451-1.374-1.32-.952-2.182.421-.863 1.027-.108 1.532-1.363.504-1.254-.279-2.443-1.212-2.262-.935.18-1.153.996-1.382.971-.228-.027-1.182-.399-1.452.309-.574 1.502.902 1.667.869 2.167-.033.5-.671 1.277-.784 2.005-.154 1.026.281 2.028 1.379 2.072 1.271.051 1.917-.707 2.008-1.719l-.006.002Zm48.375-31.181c-.157-.966-.937-1.811-1.699-1.377-.764.434-1.041 1.076-1.393 1.854-.259.58.372 1.1-.352 1.3-.725.2-2.164.805-1.626 2.099.266.633 1.195 1.015 1.866.832l.026-.011a1.88 1.88 0 0 0-.003 1.709c.385.757 1.657 1.098 2.436.664.748-.419 1.097-1.371.75-2.028-.33-.62-1.413-1.071-2.199-1.004.18-.228.292-.488.264-.737-.065-.579 1.274-.344 1.236-1.151-.042-.765.861-1.179.703-2.146l-.009-.004Zm-16.576 14.214c1.321-.158 1.442-.922 2.307-.947.859-.025 1.133-.519 1.324-1.414.026-.128.059-.275.086-.418.251.263.629.382.864.19.21-.181.345-.643.273-.918-.111-.427-.479-.658-.952-.365-.044.021-.08.045-.122.071-.061-.503-.302-.931-.952-1.056-1.255-.236-1.574.565-1.612.952-.038.387-.661.895-.762.472-.102-.423-.575-.7-1.639-.467-1.063.232-1.574.782-1.497 1.893.082 1.218 1.373 2.159 2.691 2.01l-.009-.003Zm-43.416-19.559c.175.397.372.509.631.604.253.101.477.321.914.268.439-.055 1.249-.371 1.538-.981.285-.608.223-1.18-.103-1.639-.326-.459-.877-.553-1.257-.511-.381.043-1.066.281-1.266.802-.199.523-.638 1.01-.453 1.448l-.004.009Zm5.367 3.873c.215.148.497.126.656-.031.156-.163.159-.612.008-.79-.149-.177-.543-.043-.696.127-.127.143-.176.542.041.697l-.009-.003Zm1.424-9.86c.123-.572.285-1.446-.514-1.596-.8-.15-1.005.36-1.03.61-.024.249-.424.57-.487.299-.069-.269-.366-.448-1.045-.3-.678.15-1.004.499-.956 1.209.055.775.879 1.384 1.719 1.283.84-.099.923-.591 1.471-.604.549-.011.726-.331.849-.903l-.007.002Zm-9.768 1.128c-.104-.683-.028-1.472-.666-2.043-.316-.001-.654 0-.984.004-.559-.736-1.351-1.136-1.814-.87-.384.221-.548.604-.447 1.058.191.822.488 1.016 1.489 1.036.476.498.859.985 1.338 1.357.473.378 1.177.032 1.088-.55l-.004.008Zm37.779 44.742c.437-.624.352-1.147-.198-1.473.279-.719.566-1.22.657-1.763.083-.523-.317-1.264-.784-1.712.378.036.801-.051 1.245-.308 1.224-.706 1.429-1.27.955-2.354-.498-1.019-1.54-1.312-2.714-.767a1.638 1.638 0 0 0-.219.13c.247-.505.332-1.129.147-1.598-.207-.522-1.03-.738-1.71-.458-.808.339-1.064 1.058-.704 1.962.263.657 1.052 1.105 1.539.874.07-.034.137-.075.198-.122-.233.515-.25 1.17.026 1.721.105.214.237.384.387.524-.779.033-1.823.711-2.072 1.379-.239.672.166 1.657.979 2.107.539.301 1.055.472 1.109 1.264.037.567.607.669 1.15.575l.009.019Zm-14.702-6.084c.471 1.032 1.658 1.689 2.444 1.354.848-.366 1.394-1.801.998-2.613-.383-.787-1.693-1.211-2.528-.815-.828.395-1.249 1.343-.914 2.074Zm40.694-.066c.45-.245.671-.892.46-1.35-.2-.44-.917-.642-1.364-.392-.459.256-.596.85-.307 1.38.265.48.732.627 1.209.371l.002-.009Zm-50.318-17.062a.87.87 0 0 0 .847.553.888.888 0 0 0 .347-.083c.528-.227.723-.656.522-1.164-.208-.535-.774-.815-1.268-.635-.483.174-.688.784-.448 1.329Zm22.513 5.842c.024-.25 1.638.081 1.787-1.31.154-1.396-.488-2.109-1.757-2.107-.391.003-.844-.213-1.327-.462l-.013-.025c-.159-.351-.632-.558-.983-.467-.784-.333-1.578-.44-2.271.369-.954 1.13-.418 2.217.127 2.514.55.295 1.321.112 1.605.428.282.317-.596-.004-.038 1.265.557 1.27 2.712 1.453 2.858-.199l.012-.006Zm10.294 38.179c.161-.574.181-.361.776-.509.597-.143 1.328-.716.748-1.628-.583-.919-1.821-.9-2.658-.478-.839.422-1.218 2.305-.468 3.17.547.62 1.432.015 1.599-.562l.003.007Z"/>
      </g>
      <path fill="#fff" d="m74.5 149.023-8.698-8.788a14.825 14.825 0 0 0 2.23-7.829 14.961 14.961 0 0 0-3.112-9.16 14.757 14.757 0 0 0-8.042-5.294 14.664 14.664 0 0 0-9.57.813 14.818 14.818 0 0 0-7.05 6.576 14.99 14.99 0 0 0-1.546 9.556 14.914 14.914 0 0 0 4.61 8.493 14.703 14.703 0 0 0 8.818 3.838 14.675 14.675 0 0 0 9.294-2.442l8.625 8.714 4.441-4.477Zm-29.677-16.58c0-1.687.496-3.337 1.426-4.739a8.477 8.477 0 0 1 3.797-3.142 8.396 8.396 0 0 1 4.888-.485 8.438 8.438 0 0 1 4.333 2.334 8.552 8.552 0 0 1 2.315 4.367 8.596 8.596 0 0 1-.481 4.929 8.518 8.518 0 0 1-3.117 3.828 8.414 8.414 0 0 1-4.7 1.437 8.426 8.426 0 0 1-5.99-2.516 8.572 8.572 0 0 1-2.471-6.05v.037Z"/>
      <path fill="#E8F1FF" d="M226.267 129.5H103.733c-3.442 0-6.233 2.682-6.233 5.991v.018c0 3.309 2.791 5.991 6.233 5.991h122.534c3.442 0 6.233-2.682 6.233-5.991v-.018c0-3.309-2.791-5.991-6.233-5.991Z"/>
    </g>
    <g filter="url(#f)">
      <circle cx="85.5" cy="83.5" r="24" fill="#fff"/>
    </g>
    <path fill="#1D2A3E" d="M84.75 94c-2.596 0-8.25-7.545-8.25-12.607 0-4.632 3.69-8.393 8.25-8.393 4.56 0 8.25 3.76 8.25 8.393C93 86.455 87.346 94 84.75 94Zm0-1.5c.429 0 2.22-1.565 3.688-3.524 1.89-2.523 3.062-5.248 3.062-7.583 0-3.81-3.025-6.893-6.75-6.893S78 77.583 78 81.393c0 2.335 1.171 5.06 3.062 7.583 1.468 1.959 3.259 3.524 3.688 3.524Zm0-7.494a3.75 3.75 0 1 1 0-7.5 3.75 3.75 0 0 1 0 7.5Zm0-1.5a2.25 2.25 0 1 0 0-4.5 2.25 2.25 0 0 0 0 4.5Z"/>
    <g filter="url(#g)">
      <circle cx="141.5" cy="46.5" r="32" fill="#fff"/>
    </g>
    <g clip-path="url(#h)">
      <path fill="#1D2A3E" fill-rule="evenodd" d="M150.877 50.764c2.31 2.444 3.906 5.758 4.366 9.496.144 1.188-.802 2.24-2 2.24h-23.73c-1.198 0-2.144-1.052-1.998-2.24.458-3.738 2.054-7.052 4.364-9.496.494.456 1.01.884 1.564 1.266-2.076 2.138-3.53 5.1-3.944 8.474l23.744-.004c-.408-3.372-1.858-6.332-3.932-8.47.556-.382 1.072-.81 1.566-1.266Zm-9.499-20.263c3.8 0 6 4 8.758 5.266-.916 1.054-2.252 1.734-3.758 1.734a4.93 4.93 0 0 1-1.688-.314c-1.376 1.704-3.454 2.814-5.812 2.814-2.79 0-7.5.5-6.49-3.806 2.99-1.694 5.016-5.694 8.99-5.694Z" clip-rule="evenodd"/>
      <path fill="#1D2A3E" fill-rule="evenodd" d="M141.377 32.5c4.412 0 8 3.588 8 8s-3.588 8-8 8-8-3.588-8-8 3.588-8 8-8Zm0 18c5.522 0 10-4.478 10-10s-4.477-9.999-9.999-9.999-10.001 4.477-10.001 10c0 5.521 4.478 10 10 10Z" clip-rule="evenodd"/>
    </g>
    <g filter="url(#i)">
      <circle cx="286.5" cy="62.5" r="24" fill="#fff"/>
    </g>
    <path fill="#1D2A3E" fill-rule="evenodd" d="m282 55 4.5 13.5H285l-1.5-4.5H279l-1.5 4.5H276l4.5-13.5h1.5Zm-.75 2.25L283 62.5h-3.5l1.75-5.25Zm11.986 2.47c-.496-.212-1.098-.22-1.486-.22-.538 0-1.534.262-2.447 1.257l-1.105-1.014c1.195-1.302 2.59-1.743 3.552-1.743h.024c.376 0 1.254 0 2.053.342.423.181.852.47 1.173.926.325.46.5 1.039.5 1.732v7.5H294v-.531a2.75 2.75 0 0 1-.097.057c-.83.475-1.748.474-2.129.474h-.048c-.376 0-1.254 0-2.053-.342a2.717 2.717 0 0 1-1.173-.926c-.324-.46-.5-1.039-.5-1.732 0-.693.176-1.271.5-1.732a2.717 2.717 0 0 1 1.173-.926c.799-.343 1.677-.342 2.053-.342h.024c.386 0 1.035-.004 1.575-.159.268-.076.445-.172.546-.268.079-.075.129-.162.129-.323V61c0-.432-.106-.697-.226-.87a1.225 1.225 0 0 0-.538-.41ZM294 63.7c-.089.032-.177.06-.263.085-.758.216-1.593.216-1.967.216h-.02c-.388 0-.99.008-1.486.22-.233.1-.413.234-.537.41-.121.173-.227.438-.227.87s.106.697.227.87c.124.175.304.31.537.41.496.212 1.098.22 1.486.22.385 0 .946-.011 1.409-.276.384-.22.841-.695.841-1.974V63.7Z" clip-rule="evenodd"/>
    <path fill="#8E9FBC" d="M291.698 215.5a8 8 0 1 1-16 0 8 8 0 0 1 16 0Zm-22.198 118 1.546-17.251 14.167 9.964L269.5 333.5Zm13.929-114.713a1.5 1.5 0 0 1-2.621-1.46l2.621 1.46Zm-5.617 6.383a1.501 1.501 0 0 1 2.935.622l-2.935-.622Zm2.454 6.199a1.5 1.5 0 1 1-2.999.094l2.999-.094Zm-1.715 8.285a1.5 1.5 0 1 1 2.901-.762l-2.901.762Zm4.65 4.831a1.5 1.5 0 1 1-2.83.993l2.83-.993Zm-.057 8.497a1.5 1.5 0 1 1 2.812-1.047l-2.812 1.047Zm4.836 4.636a1.5 1.5 0 1 1-2.845.951l2.845-.951Zm-.671 8.48a1.5 1.5 0 0 1 2.919-.691l-2.919.691Zm4.066 5.311a1.501 1.501 0 0 1-2.97.426l2.97-.426Zm-2.377 8.167a1.5 1.5 0 1 1 3-.027l-3 .027Zm2.743 6.112a1.5 1.5 0 1 1-2.987-.275l2.987.275Zm-4.183 7.398a1.5 1.5 0 0 1 2.931.64l-2.931-.64Zm1.376 6.561a1.5 1.5 0 1 1-2.868-.877l2.868.877Zm-5.501 6.463a1.5 1.5 0 1 1 2.775 1.138l-2.775-1.138Zm.306 6.676a1.5 1.5 0 0 1-2.704-1.299l2.704 1.299Zm-6.357 5.677a1.5 1.5 0 0 1 2.612 1.477l-2.612-1.477Zm-.469 6.663a1.5 1.5 0 0 1-2.548-1.585l2.548 1.585Zm-6.886 5.018a1.5 1.5 0 1 1 2.468 1.705l-2.468-1.705Zm14.912-113.802a32.955 32.955 0 0 0-1.51 2.445l-2.621-1.46a35.912 35.912 0 0 1 1.648-2.669l2.483 1.684Zm-4.192 9.45a23.216 23.216 0 0 0-.481 5.577l-2.999.094a26.255 26.255 0 0 1 .545-6.293l2.935.622Zm.705 13.1c.48 1.825 1.078 3.681 1.749 5.593l-2.83.993c-.687-1.955-1.313-3.892-1.82-5.824l2.901-.762Zm4.504 13.043c.682 1.833 1.37 3.726 2.024 5.683l-2.845.951a174.277 174.277 0 0 0-1.991-5.587l2.812-1.047Zm4.272 13.472a68.1 68.1 0 0 1 1.147 6.002l-2.97.426a64.952 64.952 0 0 0-1.096-5.737l2.919-.691Zm1.77 14.142a61.036 61.036 0 0 1-.257 6.139l-2.987-.275c.185-2.012.261-3.955.244-5.837l3-.027Zm-1.509 14.177a74.932 74.932 0 0 1-1.555 5.921l-2.868-.877a72.535 72.535 0 0 0 1.492-5.684l2.931.64Zm-4.281 13.522a103.12 103.12 0 0 1-2.469 5.538l-2.704-1.299a100.06 100.06 0 0 0 2.398-5.377l2.775 1.138Zm-6.214 12.692a144.527 144.527 0 0 1-3.081 5.186l-2.548-1.585a139.696 139.696 0 0 0 3.017-5.078l2.612 1.477Z"/>
    <path fill="#0B64DD" d="M25.831 256.221a8 8 0 0 1 9.948-5.389 8 8 0 0 1 5.39 9.947 8 8 0 1 1-15.337-4.558Zm16.136-44.893L31.703 225.28l-6.951-15.865 17.215 1.913Zm-2.42 2.697a1.5 1.5 0 1 1-1.237-2.733l1.237 2.733Zm-9.1 1.184a1.5 1.5 0 0 1 1.448 2.627l-1.448-2.627Zm-4.011 5.925a1.5 1.5 0 1 1-1.663-2.498l1.663 2.498Zm-8.674 3.008a1.5 1.5 0 0 1 2.065 2.177l-2.065-2.177ZM15.78 231a1.5 1.5 0 1 1-2.483-1.683L15.78 231Zm-5.847 6.998a1.5 1.5 0 0 1 2.984.314l-2.984-.314Zm3.703 6.052a1.5 1.5 0 0 1-2.821 1.02l2.82-1.02Zm2.315 8.749a1.5 1.5 0 1 1 2.102-2.14l-2.102 2.14Zm6.98 1.579a1.5 1.5 0 0 1-1.522 2.586l1.522-2.586Zm7.165 5.764a1.5 1.5 0 0 1 .361-2.978l-.361 2.978Zm1.8-42.306a76.725 76.725 0 0 0-5.46 3.298l-1.663-2.498a79.683 79.683 0 0 1 5.674-3.427l1.448 2.627Zm-12.07 8.483c-1.688 1.602-3.02 3.167-4.046 4.681l-2.483-1.683c1.163-1.716 2.64-3.444 4.465-5.175l2.065 2.177Zm-6.91 11.993c-.212 2.02.07 3.94.72 5.738l-2.821 1.02c-.792-2.19-1.145-4.565-.882-7.072l2.984.314Zm5.137 12.347a25.38 25.38 0 0 0 4.878 3.719l-1.522 2.586a28.397 28.397 0 0 1-5.458-4.165l2.102-2.14Zm12.404 6.505c1.1.133 1.985.079 2.63-.106l.825 2.885c-1.15.329-2.466.363-3.816.199l.361-2.978Z"/>
  </g>
  <defs>
    <filter id="c" width="52" height="52" x="183.5" y="53" color-interpolation-filters="sRGB" filterUnits="userSpaceOnUse">
      <feFlood flood-opacity="0" result="BackgroundImageFix"/>
      <feColorMatrix in="SourceAlpha" result="hardAlpha" values="0 0 0 0 0 0 0 0 0 0 0 0 0 0 0 0 0 0 127 0"/>
      <feOffset dy="4.5"/>
      <feGaussianBlur stdDeviation="5"/>
      <feColorMatrix values="0 0 0 0 0 0 0 0 0 0 0 0 0 0 0 0 0 0 0.05 0"/>
      <feBlend in2="BackgroundImageFix" result="effect1_dropShadow_3057_82180"/>
      <feColorMatrix in="SourceAlpha" result="hardAlpha" values="0 0 0 0 0 0 0 0 0 0 0 0 0 0 0 0 0 0 127 0"/>
      <feOffset dy="1.9"/>
      <feGaussianBlur stdDeviation="2"/>
      <feColorMatrix values="0 0 0 0 0 0 0 0 0 0 0 0 0 0 0 0 0 0 0.05 0"/>
      <feBlend in2="effect1_dropShadow_3057_82180" result="effect2_dropShadow_3057_82180"/>
      <feColorMatrix in="SourceAlpha" result="hardAlpha" values="0 0 0 0 0 0 0 0 0 0 0 0 0 0 0 0 0 0 127 0"/>
      <feOffset dy=".7"/>
      <feGaussianBlur stdDeviation=".7"/>
      <feColorMatrix values="0 0 0 0 0 0 0 0 0 0 0 0 0 0 0 0 0 0 0.07 0"/>
      <feBlend in2="effect2_dropShadow_3057_82180" result="effect3_dropShadow_3057_82180"/>
      <feBlend in="SourceGraphic" in2="effect3_dropShadow_3057_82180" result="shape"/>
    </filter>
    <filter id="d" width="346" height="92" x="7.5" y="94" color-interpolation-filters="sRGB" filterUnits="userSpaceOnUse">
      <feFlood flood-opacity="0" result="BackgroundImageFix"/>
      <feColorMatrix in="SourceAlpha" result="hardAlpha" values="0 0 0 0 0 0 0 0 0 0 0 0 0 0 0 0 0 0 127 0"/>
      <feOffset dy="4.5"/>
      <feGaussianBlur stdDeviation="5"/>
      <feColorMatrix values="0 0 0 0 0 0 0 0 0 0 0 0 0 0 0 0 0 0 0.05 0"/>
      <feBlend in2="BackgroundImageFix" result="effect1_dropShadow_3057_82180"/>
      <feColorMatrix in="SourceAlpha" result="hardAlpha" values="0 0 0 0 0 0 0 0 0 0 0 0 0 0 0 0 0 0 127 0"/>
      <feOffset dy="1.9"/>
      <feGaussianBlur stdDeviation="2"/>
      <feColorMatrix values="0 0 0 0 0 0 0 0 0 0 0 0 0 0 0 0 0 0 0.05 0"/>
      <feBlend in2="effect1_dropShadow_3057_82180" result="effect2_dropShadow_3057_82180"/>
      <feColorMatrix in="SourceAlpha" result="hardAlpha" values="0 0 0 0 0 0 0 0 0 0 0 0 0 0 0 0 0 0 127 0"/>
      <feOffset dy=".7"/>
      <feGaussianBlur stdDeviation=".7"/>
      <feColorMatrix values="0 0 0 0 0 0 0 0 0 0 0 0 0 0 0 0 0 0 0.07 0"/>
      <feBlend in2="effect2_dropShadow_3057_82180" result="effect3_dropShadow_3057_82180"/>
      <feBlend in="SourceGraphic" in2="effect3_dropShadow_3057_82180" result="shape"/>
    </filter>
    <filter id="f" width="68" height="68" x="51.5" y="54" color-interpolation-filters="sRGB" filterUnits="userSpaceOnUse">
      <feFlood flood-opacity="0" result="BackgroundImageFix"/>
      <feColorMatrix in="SourceAlpha" result="hardAlpha" values="0 0 0 0 0 0 0 0 0 0 0 0 0 0 0 0 0 0 127 0"/>
      <feOffset dy="4.5"/>
      <feGaussianBlur stdDeviation="5"/>
      <feColorMatrix values="0 0 0 0 0 0 0 0 0 0 0 0 0 0 0 0 0 0 0.05 0"/>
      <feBlend in2="BackgroundImageFix" result="effect1_dropShadow_3057_82180"/>
      <feColorMatrix in="SourceAlpha" result="hardAlpha" values="0 0 0 0 0 0 0 0 0 0 0 0 0 0 0 0 0 0 127 0"/>
      <feOffset dy="1.9"/>
      <feGaussianBlur stdDeviation="2"/>
      <feColorMatrix values="0 0 0 0 0 0 0 0 0 0 0 0 0 0 0 0 0 0 0.05 0"/>
      <feBlend in2="effect1_dropShadow_3057_82180" result="effect2_dropShadow_3057_82180"/>
      <feColorMatrix in="SourceAlpha" result="hardAlpha" values="0 0 0 0 0 0 0 0 0 0 0 0 0 0 0 0 0 0 127 0"/>
      <feOffset dy=".7"/>
      <feGaussianBlur stdDeviation=".7"/>
      <feColorMatrix values="0 0 0 0 0 0 0 0 0 0 0 0 0 0 0 0 0 0 0.07 0"/>
      <feBlend in2="effect2_dropShadow_3057_82180" result="effect3_dropShadow_3057_82180"/>
      <feBlend in="SourceGraphic" in2="effect3_dropShadow_3057_82180" result="shape"/>
    </filter>
    <filter id="g" width="84" height="84" x="99.5" y="9" color-interpolation-filters="sRGB" filterUnits="userSpaceOnUse">
      <feFlood flood-opacity="0" result="BackgroundImageFix"/>
      <feColorMatrix in="SourceAlpha" result="hardAlpha" values="0 0 0 0 0 0 0 0 0 0 0 0 0 0 0 0 0 0 127 0"/>
      <feOffset dy="4.5"/>
      <feGaussianBlur stdDeviation="5"/>
      <feColorMatrix values="0 0 0 0 0 0 0 0 0 0 0 0 0 0 0 0 0 0 0.05 0"/>
      <feBlend in2="BackgroundImageFix" result="effect1_dropShadow_3057_82180"/>
      <feColorMatrix in="SourceAlpha" result="hardAlpha" values="0 0 0 0 0 0 0 0 0 0 0 0 0 0 0 0 0 0 127 0"/>
      <feOffset dy="1.9"/>
      <feGaussianBlur stdDeviation="2"/>
      <feColorMatrix values="0 0 0 0 0 0 0 0 0 0 0 0 0 0 0 0 0 0 0.05 0"/>
      <feBlend in2="effect1_dropShadow_3057_82180" result="effect2_dropShadow_3057_82180"/>
      <feColorMatrix in="SourceAlpha" result="hardAlpha" values="0 0 0 0 0 0 0 0 0 0 0 0 0 0 0 0 0 0 127 0"/>
      <feOffset dy=".7"/>
      <feGaussianBlur stdDeviation=".7"/>
      <feColorMatrix values="0 0 0 0 0 0 0 0 0 0 0 0 0 0 0 0 0 0 0.07 0"/>
      <feBlend in2="effect2_dropShadow_3057_82180" result="effect3_dropShadow_3057_82180"/>
      <feBlend in="SourceGraphic" in2="effect3_dropShadow_3057_82180" result="shape"/>
    </filter>
    <filter id="i" width="68" height="68" x="252.5" y="33" color-interpolation-filters="sRGB" filterUnits="userSpaceOnUse">
      <feFlood flood-opacity="0" result="BackgroundImageFix"/>
      <feColorMatrix in="SourceAlpha" result="hardAlpha" values="0 0 0 0 0 0 0 0 0 0 0 0 0 0 0 0 0 0 127 0"/>
      <feOffset dy="4.5"/>
      <feGaussianBlur stdDeviation="5"/>
      <feColorMatrix values="0 0 0 0 0 0 0 0 0 0 0 0 0 0 0 0 0 0 0.05 0"/>
      <feBlend in2="BackgroundImageFix" result="effect1_dropShadow_3057_82180"/>
      <feColorMatrix in="SourceAlpha" result="hardAlpha" values="0 0 0 0 0 0 0 0 0 0 0 0 0 0 0 0 0 0 127 0"/>
      <feOffset dy="1.9"/>
      <feGaussianBlur stdDeviation="2"/>
      <feColorMatrix values="0 0 0 0 0 0 0 0 0 0 0 0 0 0 0 0 0 0 0.05 0"/>
      <feBlend in2="effect1_dropShadow_3057_82180" result="effect2_dropShadow_3057_82180"/>
      <feColorMatrix in="SourceAlpha" result="hardAlpha" values="0 0 0 0 0 0 0 0 0 0 0 0 0 0 0 0 0 0 127 0"/>
      <feOffset dy=".7"/>
      <feGaussianBlur stdDeviation=".7"/>
      <feColorMatrix values="0 0 0 0 0 0 0 0 0 0 0 0 0 0 0 0 0 0 0.07 0"/>
      <feBlend in2="effect2_dropShadow_3057_82180" result="effect3_dropShadow_3057_82180"/>
      <feBlend in="SourceGraphic" in2="effect3_dropShadow_3057_82180" result="shape"/>
    </filter>
    <clipPath id="a">
      <path fill="#fff" d="M.5.5h360v375H.5z"/>
    </clipPath>
    <clipPath id="b">
      <path fill="#fff" d="M46.5 303.5h24v24h-24z"/>
    </clipPath>
    <clipPath id="h">
      <path fill="#fff" d="M125.5 30.5h32v32h-32z"/>
    </clipPath>
  </defs>
</svg>
