<svg xmlns="http://www.w3.org/2000/svg" viewBox="0 0 363 259" fill="#03363d"><path d="M173.82 40.5v112.86H80.34L173.82 40.5zm0-40.5a46.74 46.74 0 1 1-93.48 0h93.48zm15.4 153.37a46.74 46.74 0 0 1 93.48 0h-93.48zm0-40.5V0h93.5l-93.5 112.86zm52.28 137.06a18.22 18.22 0 0 0 12.95-5l6.42 6.93c-4.24 4.36-10.12 7.6-19.26 7.6-15.67 0-25.8-10.4-25.8-24.46a24 24 0 0 1 24.37-24.47c15.56 0 24.38 11.84 23.6 28.26H227c1.3 6.82 6.1 11.17 14.47 11.17m11.2-19c-1-6.37-4.8-11.06-12.4-11.06-7.07 0-12 4-13.27 11.06h25.68zM0 249.4l28.3-28.76H.67v-9.02h40.76v9.2l-28.3 28.75h28.7v9.03H0v-9.2zm73.6.52a18.22 18.22 0 0 0 12.95-5l6.42 6.93c-4.24 4.36-10.12 7.6-19.26 7.6-15.67 0-25.8-10.4-25.8-24.46a24 24 0 0 1 24.37-24.47c15.56 0 24.38 11.84 23.6 28.26H59.12c1.3 6.82 6.1 11.17 14.47 11.17m11.2-19c-1-6.37-4.8-11.06-12.4-11.06-7.07 0-12 4-13.27 11.06H84.8zm72.23 4.03c0-15 11.23-24.44 23.6-24.44a20.34 20.34 0 0 1 15.67 7.05v-27.72h10v68.6h-10V252a20.1 20.1 0 0 1-15.76 7.42c-12 0-23.5-9.5-23.5-24.43m39.82-.1a14.92 14.92 0 1 0-14.91 15.32c8.6 0 14.9-6.86 14.9-15.32m73.48 13.6l9.06-4.7a13.44 13.44 0 0 0 12.08 6.86c5.66 0 8.6-2.9 8.6-6.2 0-3.76-5.47-4.6-11.42-5.83-8-1.7-16.33-4.33-16.33-14 0-7.43 7.07-14.3 18.2-14.2 8.77 0 15.3 3.48 19 9.1l-8.4 4.6a12.19 12.19 0 0 0-10.57-5.36c-5.38 0-8.12 2.63-8.12 5.64 0 3.38 4.34 4.32 11.14 5.83 7.74 1.7 16.5 4.23 16.5 14 0 6.48-5.66 15.22-19.06 15.13-9.8 0-16.7-3.95-20.67-10.9m66.9-10.87l-7.93 8.65v12.2h-10v-68.6h10v44.93l21.23-23.3h12.18l-18.4 20.1 18.88 26.88h-11.32l-14.63-20.86zM126.8 210.53c-11.9 0-21.85 7.7-21.85 20.5v27.45h10.2V232.3c0-7.7 4.43-12.32 12-12.32s11.33 4.6 11.33 12.32v26.18h10.14v-27.45c0-12.78-10-20.5-21.85-20.5"/></svg>
