<svg width="288" height="300" viewBox="0 0 288 300" fill="none" xmlns="http://www.w3.org/2000/svg">
<g clip-path="url(#clip0_100_30264)">
<path d="M117.554 128.551C117.344 126.631 117.031 124.728 116.46 122.857C116.004 121.367 115.423 119.914 114.725 118.521C114.474 118.762 114.393 119.14 114.427 119.488C114.462 119.835 114.597 120.163 114.719 120.489C115.01 121.263 115.248 122.058 115.462 122.857C116.896 128.209 117.506 134.015 116.622 139.5C116.423 140.731 116.429 144.705 114.337 144.35C113.101 144.142 112.497 142.221 112.16 141.22C111.673 139.778 111.42 138.27 111.173 136.773C110.683 133.797 110.361 130.765 110.43 127.746C110.469 126.038 110.259 119.555 112.694 119.283C113.277 119.217 113.285 118.43 112.694 118.37C109.321 118.036 109.382 124.976 109.307 127.032C109.108 132.434 110.15 139.411 112.011 143.746C112.596 145.107 113.667 146.378 115.296 145.668C117.095 144.885 117.463 141.579 117.666 139.942C118.023 137.058 118.017 134.165 117.797 131.272C117.728 130.361 117.652 129.454 117.554 128.549V128.551Z" fill="#F2E5D3"/>
<path d="M38.1839 211.692C37.4563 207.481 36.0493 198.688 30.956 204.252C27.6981 207.813 24.0311 210.53 21.2325 214.506C18.5537 218.312 15.7455 222.145 14.7149 226.758C13.8232 226.677 8.32073 227.29 9.29732 227.7C13.4758 229.456 35.4934 231.262 38.6934 230.407C40.8994 229.817 40.801 227.373 40.6717 225.154C40.4169 220.788 38.9327 216.019 38.1839 211.692Z" fill="#F77D68"/>
<path d="M217.757 196.456C217.666 186.853 217.162 177.264 216.859 167.668C216.564 158.327 216.531 148.92 214.889 139.689C213.316 130.859 210.156 122.373 207.294 113.908C205.24 107.836 200.425 113.333 196.903 115.643C189.044 120.798 182.734 127.536 175.472 133.418C171.108 136.954 166.723 140.501 162.269 143.921C159.559 146.002 157.03 147.965 155.068 150.705C153.001 151.001 150.698 152.107 149.382 152.624C145.225 154.259 141.044 154.905 137.02 157.074C132.643 159.435 128.541 162.351 123.853 164.094C114.73 167.485 105.248 167.211 96.5476 172.127C91.6511 174.892 87.6541 178.285 82.0435 179.685C79.4206 180.339 76.6781 180.202 73.9741 180.202C70.7761 180.202 67.4391 180.256 64.2816 180.794C61.9443 181.194 60.8114 182.95 58.7173 183.458C57.4049 183.776 53.6645 179.426 52.4062 179.254C47.2028 178.546 44.275 189.047 42.5978 192.747C39.4499 199.691 37.8017 206.373 35.8003 213.732C34.8063 217.384 34.4184 221.193 33.6483 224.895C33.3106 226.522 32.2085 229.415 33.3685 230.77C34.6075 232.216 36.58 232.16 38.263 232.54C41.0634 233.173 43.8311 234.09 46.5968 234.86C48.1427 235.29 49.6925 235.723 51.1632 236.361C56.6676 238.751 61.0951 240.218 67.1129 241.028C70.7876 241.522 74.3369 240.675 78.0078 240.696C84.1086 240.731 145.172 263.762 158.924 274.184C165.93 279.494 173.21 284.544 181.194 288.287C186.156 290.612 201.409 297.591 206.074 293.789C205.684 292.587 204.878 292.61 203.673 292.295C204.214 290.767 204.455 288.931 204.675 287.49C205.406 282.69 205.163 278.762 207.412 274.261C208.844 271.397 210.569 268.655 211.472 265.555C212.708 261.315 212.866 256.887 214.306 252.68C217.32 243.862 218.832 236.095 218.806 226.713C218.779 216.619 217.851 206.552 217.757 196.458V196.456Z" fill="#13477D"/>
<path d="M182.011 59.6587C181.536 57.7519 180.758 55.9068 179.942 54.3724C178.236 51.1551 175.783 48.1385 173.019 45.7665C170.213 43.3578 166.721 41.5648 163.162 40.5805C161.329 40.0729 159.402 39.7622 157.496 39.8915C154.807 40.0729 153.95 41.1595 151.983 38.967C150.378 37.176 148.334 35.8867 146.143 34.9236C141.729 32.9859 136.721 32.2158 131.923 32.2158C123.224 32.2158 114.566 35.024 106.983 39.1716C94.9766 45.7375 77.8322 59.9174 83.7805 75.3324C83.1205 76.861 82.638 78.4397 82.4257 80.0803C82.0686 82.8325 82.2906 85.6947 84.5718 87.5533C85.1605 88.0319 85.8456 88.4469 86.5848 88.775C85.9422 90.9154 85.7048 93.0577 86.5212 95.0688C87.8606 98.373 90.7267 99.7896 94.0328 100.052C93.5175 106.608 94.6774 113.464 100.869 117.135C106.315 120.364 118.397 120.182 122.493 114.803C123.114 113.987 122.628 112.626 121.802 112.171C118.596 110.395 114.927 111.717 111.279 112.373C110.494 110.795 109.037 109.793 107.666 108.594C106.13 107.249 104.964 105.825 104.069 104.005C103.774 103.405 103.507 102.793 103.249 102.177C103.424 101.978 103.536 101.722 103.527 101.403C104.337 102.55 105.119 103.721 106.057 104.775C107.979 106.935 110.351 108.249 113.063 109.197C119.578 111.472 126.627 111.051 133.357 110.185C140.787 109.227 148.206 108.195 155.666 107.467C159.528 107.091 163.388 107.133 167.248 106.867C169.22 106.732 170.353 106.135 171.415 105.309C171.266 106.79 171.224 108.322 171.334 109.957C171.386 110.725 172.447 111.127 172.86 110.37C173.97 108.345 174.293 106.051 174.702 103.771C174.74 95.2734 174.746 86.7793 174.769 78.2776C175.178 78.0692 175.564 77.8183 175.906 77.5114C177.108 76.4345 177.57 74.7708 177.548 73.1978C177.545 72.8562 177.431 71.9163 177.141 71.1771C179.357 70.0847 181.248 68.2975 181.962 66.3675C182.717 64.3275 182.582 61.9516 182.011 59.6645V59.6587Z" fill="#2E1A15"/>
<path d="M168.504 96.4083C168.447 96.0686 168.228 95.8447 167.956 95.7077C166.958 83.7165 161.031 72.864 149.631 65.7384C141.602 60.7204 131.369 57.6594 122.022 60.483C113.605 63.0267 105.785 69.2028 101.745 77.1796C96.4105 78.8799 102.172 108.38 102.7 110.523C107.439 129.695 119.781 145.537 136.2 147.473C142.972 148.272 152.682 140.648 155.488 137.757C165.92 127.009 171.052 111.239 168.504 96.4083Z" fill="#F77D68"/>
<path d="M211.768 166.508C210.801 162.567 209.788 158.526 208.61 154.565C208.091 152.823 207.533 151.107 206.931 149.42C206.767 148.928 206.593 148.443 206.412 147.961C206.101 147.121 205.764 146.282 205.408 145.488C204.961 144.439 204.496 143.454 204.086 142.615C203.266 140.945 202.645 139.832 202.645 139.832C202.645 139.832 177.865 112.443 168.86 98.84C168.148 97.7727 161.232 87.9276 160.85 88.6032C161.134 88.0917 160.659 87.5629 160.121 87.6632C160.02 87.6806 159.92 87.7096 159.819 87.7269C159.408 87.8099 159.171 88.3021 159.271 88.6842C159.619 89.9059 160.649 91.0388 161.306 92.1235C162.965 94.8603 164.591 97.626 166.25 100.353C166.304 100.444 166.368 100.536 166.414 100.618C156.934 99.5599 146.69 111.566 144.107 119.175C142.384 124.283 142.438 129.566 143.522 134.748C142.235 133.48 140.913 132.229 139.525 131.035C138.13 129.83 136.625 132.085 137.829 132.878C143.129 139.949 149.316 146.299 154.753 153.241C159.48 159.28 164.133 165.495 168.985 171.544C169.369 172.028 169.761 172.511 170.162 172.995C172.434 175.805 174.76 178.569 177.161 181.252C178.054 182.246 178.95 183.232 179.861 184.199C181.175 185.604 182.507 186.972 183.875 188.323C184.35 188.788 184.825 189.244 185.307 189.701C190.289 194.455 195.654 198.78 201.602 202.428C205.105 204.572 206.858 202.893 208.508 199.263C213.298 188.671 214.53 177.841 211.766 166.508H211.768Z" fill="#F77D68"/>
<path d="M204.484 148.891C205.244 150.921 205.918 152.985 206.464 155.112C206.696 156.017 208.186 155.855 208.126 154.886C207.83 150.124 205.829 145.689 203.745 141.461C202.197 138.32 200.935 134.939 199.126 131.92C198.609 130.27 197.939 128.344 197.254 127.889C197.592 128.113 197.96 127.744 197.889 127.4C197.827 127.099 197.787 127.014 197.634 126.742C197.37 126.267 196.53 126.331 196.42 126.9C196.293 127.562 196.26 128.205 196.275 128.838C195.751 128.933 195.276 129.381 195.305 129.919C195.226 130.029 195.168 130.151 195.127 130.282C193.552 127.75 191.829 125.324 190.456 122.654C190.192 122.141 189.31 122.369 189.349 122.954C189.573 126.323 191.966 128.914 193.521 131.778C196.266 136.83 198.115 142.316 199.688 147.822C201.133 152.884 202.702 157.951 203.638 163.14C204.553 168.203 204.065 173.451 205.269 178.453C205.563 179.675 207.601 179.445 207.5 178.152C207.151 173.682 207.155 169.145 206.534 164.702C205.823 159.622 204.324 154.66 202.87 149.742C203.492 149.995 204.3 149.655 204.482 148.893L204.484 148.891Z" fill="#13477D"/>
<path d="M171.455 82.4909C169.622 80.3331 166.43 78.1155 163.456 78.4185C160.31 78.7389 159.567 81.6417 160.41 84.2954C160.535 84.6892 160.869 84.969 161.253 85.1118C163.955 89.244 162.878 94.1598 164.139 98.7107C163.263 99.8089 162.487 100.971 162.006 102.308C161.643 103.322 162.826 109.544 163.714 109.382C167.781 108.641 170.664 100.614 172.154 97.0548C173.75 93.243 174.254 85.7796 171.457 82.4909H171.455Z" fill="#F77D68"/>
<path d="M171.095 173.26C170.784 173.177 170.473 173.096 170.164 172.995C169.763 172.511 169.371 172.028 168.987 171.544C170.529 172.036 172.108 172.43 173.667 172.731C180.71 174.099 188.202 174.454 193.886 169.419C198.576 165.268 201.932 159.136 203.283 153.07C204.059 149.567 204.16 146.091 204.086 142.615C204.023 139.55 203.822 136.483 203.812 133.372C203.812 132.988 204.414 132.888 204.497 133.281C205.283 137.132 205.619 141.31 205.41 145.489C204.918 155.836 201.095 166.244 192.346 171.994C186.224 176.018 177.867 175.041 171.097 173.262L171.095 173.26Z" fill="white"/>
<path d="M208.174 168.342C208.11 178.268 199.553 188.459 189.634 189.837C188.129 190.047 186.687 189.983 185.309 189.7C184.827 189.244 184.352 188.787 183.877 188.322C184.261 188.459 184.653 188.569 185.055 188.669C190.939 190.111 196.878 186.488 200.802 182.437C204.633 178.477 206.732 173.659 207.462 168.24C207.516 167.829 208.174 167.948 208.174 168.34V168.342Z" fill="white"/>
<path d="M208.612 154.565C208.238 166.947 204.698 181.088 191.771 183.935C187.94 184.784 183.806 184.911 179.865 184.199C178.952 183.232 178.058 182.246 177.165 181.252C182.136 182.757 188.733 182.74 193.203 181.061C205.565 176.444 206.086 161.145 206.933 149.42C207.043 147.961 207.151 146.556 207.288 145.232C207.352 144.556 208.282 144.547 208.338 145.232C208.576 148.052 208.703 151.244 208.612 154.565Z" fill="white"/>
<path d="M190.063 49.5013C187.527 51.7266 188.789 54.5772 191.796 54.942C193.342 55.1389 195.046 54.8243 196.642 54.9864C198.265 55.1562 199.883 55.4342 201.517 55.5944C201.938 55.6368 202.471 55.6542 203.056 55.687C203.108 55.3589 203.139 55.0192 203.173 54.6853C203.407 52.5719 203.544 50.4393 203.594 48.3008C203.596 48.1271 203.604 47.9592 203.6 47.7894C199.01 46.5406 192.581 47.3011 190.065 49.5013H190.063Z" fill="#F77D68"/>
<path d="M200.824 300H287.056L287.056 0H200.824L200.824 300Z" fill="#E6E6E6"/>
<path d="M195.737 49.2542C199.308 50.3022 202.359 51.0858 206.451 49.563C207.854 49.0419 209.322 48.2969 209.421 46.6274C209.525 44.846 207.462 44.0123 206.018 43.3522C209.079 42.0166 211.633 40.8605 211.679 38.8919C211.733 36.5952 210.064 35.0531 207.335 33.9993C209.205 32.8857 211.042 31.3996 210.065 29.6414C209.276 28.2189 207.317 27.3987 204.256 26.9316C208.047 24.081 204.617 21.3114 201.323 20.6147C195.641 19.4123 191.248 22.7473 190.713 23.8301C190.202 24.8684 190.049 26.038 190.572 27.0937C190.81 27.5724 191.165 27.9854 191.576 28.3347C189.524 29.5989 188.156 31.5907 189.789 34.0746C189.974 34.3564 190.182 34.6111 190.406 34.8485C189.505 35.8579 189.104 37.2032 189.557 38.9575C190.055 40.8818 191.437 42.1015 193.251 42.86C192.101 45.0429 192.632 48.3394 195.737 49.2503V49.2542Z" fill="#F77D68"/>
<path d="M204.418 33.7621C203.291 32.6157 201.404 33.2622 200.028 33.4533C197.852 33.7544 195.685 33.9783 193.564 34.5766C192.659 34.8313 193.18 36.1785 194.073 35.9392C197.381 35.0514 200.829 34.8468 204.206 34.4781C204.586 34.4376 204.656 34.0014 204.418 33.7621Z" fill="#DB553D"/>
<path d="M202.237 26.6807C200.857 26.5109 199.42 26.783 198.036 26.866C196.6 26.9528 195.156 27.2404 193.765 27.5994C193.058 27.7827 193.354 28.8829 194.046 28.8192C195.517 28.6821 196.943 28.3444 198.424 28.2575C199.74 28.1803 201.054 27.9584 202.33 27.6245C202.813 27.499 202.701 26.7367 202.235 26.6788L202.237 26.6807Z" fill="#DB553D"/>
<path d="M203.98 42.1864C202.313 42.2443 200.647 42.1884 198.978 42.1864C197.509 42.1864 195.824 42.0822 194.45 42.6651C194.031 42.8426 194.037 43.5432 194.542 43.5953C196.036 43.7478 197.6 43.4911 199.107 43.4931C200.774 43.4969 202.442 43.5529 204.11 43.4969C204.959 43.468 204.826 42.1556 203.98 42.1845V42.1864Z" fill="#DB553D"/>
<path d="M194.141 47.9822C196.002 48.6442 197.993 48.7773 199.821 49.5493C200.34 49.7674 200.085 50.4603 199.682 50.6186C198.814 50.9582 197.688 50.3349 196.81 50.1515C195.697 49.918 194.697 49.5455 193.716 48.9916C193.186 48.6924 193.541 47.7699 194.141 47.9841V47.9822Z" fill="#DB553D"/>
<path d="M121.559 116.388C118.378 115.732 118.291 114.257 118.442 111.026C118.505 109.656 118.646 108.284 118.71 106.91C118.859 103.739 119.229 100.517 118.554 97.3946C118.455 96.9372 117.741 96.9469 117.637 97.3946C117.075 99.7975 117.07 102.245 116.948 104.704C116.811 107.462 116.274 110.26 116.199 112.989C116.108 116.261 117.77 117.735 121.02 118.341C122.288 118.578 122.842 116.654 121.559 116.39V116.388Z" fill="#DB553D"/>
<path d="M125.818 112.134C124.523 112.086 123.153 112.421 122.308 113.479C121.972 113.9 122.157 114.602 122.771 114.598C123.423 114.595 123.854 114.131 124.458 113.992C125.068 113.852 125.658 113.991 126.237 113.691C127.007 113.294 126.602 112.163 125.816 112.134H125.818Z" fill="#DB553D"/>
<path d="M139.792 113.437C136.621 115.792 134.378 118.69 130.705 120.549C127.7 122.07 124.369 122.664 121.358 124.081C121.055 124.224 120.997 124.718 121.248 124.932C123.213 126.613 128.144 124.156 130.055 123.317C134.583 121.325 138.14 118.675 140.955 114.601C141.424 113.921 140.473 112.931 139.792 113.437Z" fill="#DB553D"/>
<path d="M167.304 97.4101C167.296 97.3715 167.285 97.3291 167.275 97.2866C169.657 94.9069 169.475 89.1169 165.613 89.7094C164.899 87.0961 164.33 84.1934 164.081 81.5531C163.994 80.6344 162.772 80.6518 162.664 81.5531C162.317 84.4443 163.311 88.258 164.137 91.0121C164.266 91.4445 164.762 91.7899 165.221 91.6278C168.647 90.4119 166.048 95.7947 165.658 96.6652C165.584 96.8311 165.573 97.0145 165.606 97.1863C165.557 97.5202 165.573 97.8734 165.604 98.1397C165.69 98.9117 165.885 99.6799 166.214 100.386C166.665 101.361 168.207 100.668 167.925 99.6644C167.713 98.9117 167.48 98.1725 167.304 97.4082V97.4101Z" fill="#DB553D"/>
<path d="M165.737 121.329C164.712 122.942 164.212 124.787 163.274 126.455C161.933 128.838 160.115 130.909 158.322 132.957C155.317 136.388 152.273 139.984 148.664 142.8C148.062 143.269 148.828 144.116 149.442 143.807C153.626 141.706 157.042 137.143 160.115 133.737C161.601 132.088 162.964 130.434 164.179 128.576C165.494 126.567 166.152 124.308 167.395 122.297C168.047 121.242 166.397 120.288 165.737 121.329Z" fill="#DB553D"/>
<path d="M113.993 93.8568C112.468 91.4597 108.477 92.0812 106.157 92.6699C103.119 93.4399 100.11 95.4838 98.4487 98.1743C97.6805 99.4172 99.8364 99.2937 100.408 99.064C102.785 98.1144 105.258 97.0877 107.744 96.306C109.016 95.9065 110.305 95.563 111.613 95.3121C112.175 95.204 114.742 95.0361 113.991 93.8568H113.993Z" fill="#2E1A15"/>
<path d="M128.235 88.3428C128.21 85.5018 131.898 83.8517 134.164 83.0835C137.13 82.078 140.768 82.1552 143.627 83.5081C145.568 84.4268 141.687 85.4382 141.22 85.5231C138.311 86.0442 135.252 86.6077 132.535 87.7889C131.979 88.0302 128.25 89.8174 128.237 88.3448L128.235 88.3428Z" fill="#2E1A15"/>
<path d="M154.354 61.3011C149.982 59.0816 145.282 57.5318 140.475 56.9779C141.09 56.3468 140.716 55.2003 139.871 54.9128C136.831 53.8744 133.639 55.1328 130.695 57.3156C130.686 57.3156 130.676 57.3195 130.666 57.3214C122.715 58.8809 114.078 62.3298 107.701 67.3942C104.194 70.1792 100.269 74.1743 98.9022 78.7118C96.5071 81.1687 94.3204 83.9113 93.7973 87.2116C93.7047 87.7983 94.3242 88.2075 94.799 87.7945C95.6733 87.034 96.3951 86.1308 97.1093 85.2102C97.171 85.6329 97.2617 86.0517 97.4219 86.4608C97.4335 86.4917 97.4567 86.5168 97.4721 86.5458C97.3351 86.9858 97.2154 87.4278 97.1247 87.8697C96.9645 88.6533 97.9469 89.0683 98.4004 88.4082C98.8347 87.7771 99.2574 87.1344 99.6781 86.4879C99.1068 88.1419 98.5201 89.7882 97.6207 91.2975C97.1517 92.0849 97.7809 93.0982 98.578 93.212C97.4374 94.1384 96.0169 94.8487 94.1061 95.2849C93.0755 95.5184 93.199 96.9543 94.1061 97.2516C94.5771 97.406 95.0287 97.4928 95.4687 97.5507C93.1797 98.9712 90.387 99.7451 88.4686 97.6144C88.3894 97.5256 88.2891 97.4793 88.1868 97.4523C87.4727 94.5051 88.7851 90.2398 89.7482 87.6073C90.0628 86.7484 88.8739 86.1829 88.2833 86.7542C84.817 90.0951 82.8445 97.2998 85.948 101.461C89.312 105.969 96.1771 104.858 100.112 101.897C104.181 98.838 106.844 94.2369 109.222 89.7033C111.241 88.1863 113.032 86.1211 114.491 84.4845C118.083 80.4565 120.594 75.7589 123.593 71.3411C126.588 71.4414 129.607 71.9104 132.45 70.8412C132.954 70.6521 133.39 70.2352 133.892 70.0827C136.125 69.4014 137.267 69.7816 139.469 70.6019C141.154 71.2311 142.617 72.0282 144.466 72.2964C144.925 72.3621 145.385 72.4007 145.844 72.4277C148.701 74.5063 151.109 77.2103 153.655 79.6228C155.099 80.9912 157.32 83.7453 159.661 83.286C161.587 82.9077 163.614 79.1538 164.1 76.224C165.108 76.5212 166.366 75.9866 166.397 74.6009C166.532 68.2859 159.443 63.8873 154.357 61.305L154.354 61.3011Z" fill="#2E1A15"/>
<path d="M139.811 64.5399C138.663 62.1332 134.55 62.2335 132.44 62.9476C129.599 63.9126 126.324 65.9932 124.958 68.7473C124.695 69.2762 125.23 69.8474 125.77 69.5599C128.001 68.3729 129.719 66.439 132.06 65.3698C133.822 64.565 135.517 64.4588 137.389 64.9278C138.209 65.1343 138.695 65.4644 139.516 65.2636C139.848 65.1826 139.942 64.814 139.811 64.538V64.5399Z" fill="#453941"/>
<path d="M141.353 57.1902C133.967 54.0404 126.008 57.5241 120.553 62.7564C113.435 69.5829 110.374 79.2986 103.411 86.2196C102.843 86.7851 103.559 87.5417 104.212 87.256C106.817 86.1154 108.421 83.45 109.99 81.1688C112.561 77.4303 114.451 73.2827 117.122 69.6002C119.789 65.9255 122.985 62.3646 127.011 60.1509C131.664 57.5917 136.086 58.1263 141.131 58.0028C141.527 57.9931 141.776 57.3678 141.351 57.1883L141.353 57.1902Z" fill="#453941"/>
<path d="M110.565 65.6841C106.831 68.5656 104.439 72.58 101.927 76.5153C100.34 78.9993 98.8328 81.5681 96.9607 83.8494C95.4938 85.6385 93.7337 87.1188 92.3634 88.9832C92.0275 89.4387 92.6895 90.0834 93.1431 89.763C101.506 83.8938 103.754 73.0085 111.125 66.4078C111.507 66.0643 110.984 65.3618 110.567 65.6841H110.565Z" fill="#453941"/>
<path d="M144.896 40.2506C138.655 36.0682 133.002 34.7867 125.397 35.9505C118.914 36.9425 113.053 40.2892 108.309 44.7668C107.823 45.2262 108.44 45.9518 109 45.6623C115.141 42.4894 119.623 38.363 126.851 37.5794C130.085 37.2301 133.729 36.8325 136.796 37.9596C139.631 39.0018 141.733 40.9261 144.443 41.3275C145.128 41.4298 145.435 40.6115 144.896 40.2506Z" fill="#453941"/>
<path d="M122.319 47.2101C115.176 49.3235 107.466 51.9714 102.598 57.8348C98.219 63.1076 92.0062 67.7088 89.4644 74.1879C89.2173 74.8171 90.1322 75.0699 90.4719 74.6125C94.5751 69.083 99.3403 64.2985 103.754 58.9928C108.612 53.1545 116.097 51.377 122.728 48.1847C123.274 47.9223 122.89 47.0422 122.319 47.212V47.2101Z" fill="#453941"/>
<path d="M171.268 73.2579C168.701 75.5411 163.239 74.3155 160.236 73.6053C155.237 72.4241 151.918 67.7863 148.382 64.3064C147.826 63.7602 146.925 64.455 147.307 65.1363C150.54 70.8936 155.677 75.1551 162.182 76.1394C164.679 76.5177 172.1 77.7895 172.484 73.7616C172.548 73.0996 171.687 72.8854 171.268 73.2579Z" fill="#453941"/>
<path d="M177.095 63.0228C169.616 65.968 163.342 65.8811 155.616 64.2252C155.286 64.1538 154.898 64.5282 155.133 64.8544C157.391 67.9868 162.458 67.678 165.924 67.6239C169.896 67.5603 174.908 67.2206 177.651 63.9781C177.977 63.5921 177.678 62.795 177.097 63.0247L177.095 63.0228Z" fill="#453941"/>
<path d="M170.149 47.8703C166.779 45.3265 162.328 43.6493 158.088 43.8848C156.99 43.9465 157.05 45.4114 158.088 45.5485C162.23 46.0966 166.437 47.4765 169.661 50.2307C171.645 51.9272 173.333 54.0077 175.439 55.5498C175.771 55.793 176.344 55.4707 176.298 55.0577C175.968 52.1858 172.311 49.5031 170.149 47.8703Z" fill="#453941"/>
<path d="M153.45 42.4932C149.716 42.1613 147.589 47.0095 147.002 50.0415C146.821 50.9815 147.002 51.9368 146.852 52.8478C146.365 55.7621 144.599 55.9513 143.478 58.0067C142.366 60.039 142.48 62.8781 143.024 65.0436C143.148 65.5319 143.922 65.5512 144.032 65.0436C144.671 62.1312 144.331 59.763 146.396 57.2366C147.311 56.1172 148.179 55.5788 148.51 54.0791C149.241 50.773 148.353 44.4213 153.45 43.7497C154.24 43.6455 154.273 42.5685 153.45 42.4952V42.4932Z" fill="#453941"/>
<path d="M102.619 74.491C93.3014 73.2017 84.9483 73.2422 75.7575 75.5563C66.5841 77.8666 47.1276 84.3379 47.1604 85.2026C47.3187 89.3965 49.8876 92.8802 52.4178 96.0647C55.5193 99.9691 57.8933 100.077 62.8013 99.6198C68.0818 99.1276 73.4955 97.4968 78.4267 95.5861C83.7478 93.5248 86.2086 89.2363 90.8116 86.3741C91.9311 86.4185 93.0698 86.3529 94.2027 86.3104C96.9066 86.2062 99.6646 86.542 102.345 86.3374C104.295 86.1888 106.524 84.8416 106.723 83.1876C110.191 83.9172 114.686 83.7859 115.879 81.2943C118.401 76.0253 104.756 74.7901 102.618 74.4929L102.619 74.491Z" fill="#F77D68"/>
<path d="M106.813 80.3775C104.131 78.2391 100.153 77.9997 96.8526 77.4323C92.7706 76.7279 88.6655 77.716 84.5738 77.9553C83.5721 78.0132 83.6165 79.3623 84.5738 79.4801C88.7851 79.9954 92.7918 78.7023 97.0533 79.4106C100.192 79.9336 103.343 80.97 106.522 81.08C106.854 81.0916 107.097 80.6033 106.813 80.3775Z" fill="#DB553D"/>
<path d="M70.6584 76.9712C70.6584 76.9712 48.7893 82.6532 45.9348 85.7026C45.0065 86.6927 42.9954 89.194 40.5945 94.9551C32.3302 114.788 22.0953 136.227 14.7863 156.361C10.5074 168.145 8.97694 170.349 5.76539 182.474C2.64069 194.274 -0.837198 206.269 1.98063 218.403C4.56878 229.545 16.1122 231.276 24.9729 225.774C36.6225 218.538 40.9149 206.371 44.194 193.786C48.8144 176.054 50.3005 167.844 53.653 149.829C55.3282 140.822 56.8491 131.786 58.2117 122.726C58.837 118.569 61.6799 107.768 62.4809 103.64C62.8051 101.965 70.6584 76.9712 70.6584 76.9712Z" fill="#F77D68"/>
<path d="M55.0928 207.288C54.0352 199.954 52.6398 192.498 50.125 185.51C49.9165 184.927 49.104 184.894 48.9071 185.51C48.3899 187.127 48.855 188.974 49.3723 190.684C48.7025 198.068 47.5523 205.244 46.1935 212.541C45.6164 215.635 45.0413 218.745 44.2153 221.784C43.4471 224.61 42.1559 227.109 42.3759 230.079C42.4126 230.568 43.1248 230.714 43.2618 230.199C44.1265 226.98 45.684 224.033 46.5583 220.81C47.4654 217.461 48.0907 214.053 48.7547 210.65C49.6039 206.29 50.594 201.814 51.1054 197.327C51.6323 199.745 52.0781 202.177 52.4622 204.638C53.985 214.417 54.4077 224.255 55.6448 234.034C55.7838 235.138 57.268 235.163 57.3838 234.034C58.2851 225.303 56.3416 215.932 55.0967 207.29L55.0928 207.288Z" fill="#0B345E"/>
<path d="M200.747 222.697C195.222 217.639 188.316 214.03 182.31 209.552C176.145 204.955 170.137 200.128 163.89 195.646C158.167 191.541 149.11 186.809 147.66 179.262C146.987 175.759 147.55 171.926 147.705 168.404C147.878 164.438 148.174 160.535 148.799 156.617C148.816 156.571 148.843 156.534 148.849 156.482L148.936 155.67C149.044 154.656 147.427 154.475 147.182 155.432C146.975 156.231 146.79 157.059 146.614 157.899C146.468 157.768 146.267 157.694 146.07 157.741C141.859 158.731 137.605 159.651 133.625 161.379C129.134 163.328 125.328 166.059 121.321 168.811C116.948 171.814 112.077 174.252 106.941 175.624C103.338 176.587 99.7592 176.952 97.1595 179.833C96.1713 178.923 95.2063 177.998 94.2973 177.037C93.4963 176.134 92.2109 177.45 92.981 178.353C98.8425 185.243 106.866 189.758 109.784 198.807C111.803 205.068 113.484 211.331 115.495 217.536C110.953 211.777 104.486 207.132 99.6319 202.117C92.4734 194.722 81.922 186.434 71.5887 184.437C70.9074 184.305 70.3689 185.292 71.083 185.635C80.9068 190.362 90.0397 194.89 97.808 202.826C105.497 210.683 114.719 217.069 119.127 227.518C119.16 227.596 119.206 227.655 119.254 227.713C122.587 235.385 127.225 241.731 132.251 248.457C136.582 254.253 139.828 261.61 146.091 265.627C147.052 266.244 147.873 264.762 146.973 264.117C140.176 259.236 136.092 250.468 131.074 243.881C127.818 239.606 125.185 235.254 122.919 230.691C129.599 239.641 137.277 247.84 145.858 254.985C151.596 259.763 157.683 264.129 164.12 267.919C170.46 271.654 177.319 274.273 183.566 278.16C184.284 278.606 185.041 277.595 184.458 277.004C179.811 272.289 172.114 270.373 166.432 267.126C159.617 263.233 153.174 258.715 147.137 253.703C141.282 248.839 135.764 243.582 130.823 237.786C126.824 233.094 123.275 228.063 119.557 223.16C118.832 221.354 118.139 219.507 117.467 217.614C115.952 213.339 114.535 209.071 113.474 204.659C112.604 201.044 111.812 197.356 110.131 194.011C107.458 188.694 102.751 184.873 98.3368 180.909C102.255 178.309 106.605 177.969 110.973 176.386C115.232 174.842 119.27 172.725 122.993 170.145C127.133 167.277 131.114 164.536 135.841 162.676C139.317 161.307 143.389 161.135 146.421 158.885C145.221 165.152 144.848 172.254 145.497 178.293C146.195 184.815 151.273 188.895 156.22 192.606C170.311 203.175 184.443 215.354 200.082 223.558C200.61 223.836 201.22 223.137 200.744 222.699L200.747 222.697Z" fill="#0B345E"/>
<path d="M174.513 107.88C174.331 105.997 174.03 104.121 173.538 102.291C173.115 100.72 172.506 99.23 171.872 97.7343L171.425 98.8305C171.425 98.8305 171.72 99.6875 171.844 100.014C172.347 101.349 172.507 102.598 172.722 104.001C173.181 107.006 173.496 110.038 173.602 113.076C173.696 115.801 173.787 118.548 173.347 121.25C173.187 122.228 172.803 123.898 171.475 123.672C170.24 123.463 169.636 121.543 169.298 120.541C168.811 119.1 168.559 117.592 168.312 116.095C167.821 113.118 167.499 110.086 167.569 107.068C167.607 105.362 167.397 98.8768 169.832 98.6047C170.415 98.5391 170.423 97.7517 169.832 97.6918C166.459 97.3579 166.521 104.298 166.445 106.354C166.246 111.756 167.289 118.733 169.149 123.068C169.734 124.428 170.805 125.7 172.434 124.99C173.405 124.567 173.988 123.552 174.244 122.61C174.874 120.29 174.771 117.743 174.831 115.348C174.893 112.854 174.752 110.359 174.513 107.878V107.88Z" fill="#F2E5D3"/>
<path d="M111.233 104.927C110.544 104.893 109.826 105.126 109.141 105.203C108.483 105.277 107.831 105.325 107.221 105.593C106.767 105.794 106.758 106.603 107.221 106.799C107.923 107.099 108.645 107.077 109.396 107.004C110.154 106.931 110.984 106.892 111.669 106.539C112.476 106.124 112.04 104.966 111.233 104.925V104.927Z" fill="#DB553D"/>
<path d="M140.905 97.7649C140.077 97.3847 138.931 97.5372 138.039 97.5951C137.254 97.6472 136.161 97.7919 135.744 98.5678C135.461 99.0966 135.926 99.637 136.486 99.5309C137.186 99.3977 137.881 99.3533 138.597 99.3552C139.338 99.3552 140.236 99.5328 140.905 99.1449C141.386 98.865 141.465 98.0216 140.905 97.7649Z" fill="#DB553D"/>
<path d="M138.902 94.8297C138.543 93.9631 137.819 93.4131 136.767 93.857C135.119 94.5537 135.243 98.4832 137.238 98.6434C139.041 98.7882 139.523 96.3351 138.902 94.8316V94.8297Z" fill="#2E1A15"/>
<path d="M110.214 102.758C109.89 101.961 109.226 101.451 108.259 101.855C106.742 102.486 106.836 106.093 108.666 106.249C110.32 106.39 110.776 104.142 110.212 102.758H110.214Z" fill="#2E1A15"/>
</g>
<defs>
<clipPath id="clip0_100_30264">
<rect width="286.112" height="300" fill="white" transform="translate(0.944092)"/>
</clipPath>
</defs>
</svg>
