<svg width="120" height="120" viewBox="0 0 120 120" fill="none" xmlns="http://www.w3.org/2000/svg">
<mask id="mask0_611_47849" style="mask-type:luminance" maskUnits="userSpaceOnUse" x="0" y="9" width="120" height="102">
<path d="M120 9H0V110.888H120V9Z" fill="white"/>
</mask>
<g mask="url(#mask0_611_47849)">
<path d="M119.498 75.0871C96.6449 75.0871 100.261 92.5456 77.4184 92.5456C54.5756 92.5456 54.5756 65.2227 31.7228 65.2227C24.9121 65.2227 20.1306 67.6536 16.1728 71.0589C9.26165 77.0057 5.54492 85.8555 5.54492 94.9665V105.283L119.498 110.366V75.0871Z" fill="#153385" stroke="#101C3F" stroke-miterlimit="10"/>
<path d="M118.071 75.0871C95.2184 75.0871 95.2184 92.5456 72.3756 92.5456C49.5328 92.5456 49.5328 65.2227 26.68 65.2227C19.8693 65.2227 15.0878 67.6536 11.13 71.0589C4.21893 77.0057 0.502197 85.8555 0.502197 94.9665V105.283H118.071V75.0871Z" fill="white" stroke="#101C3F" stroke-miterlimit="10"/>
<path d="M98.5273 92.2445C100.332 94.5797 103.689 95.0097 106.024 93.2048C108.359 91.3999 108.789 88.0437 106.984 85.7084L88.6842 62.0313C86.8794 59.6961 83.5231 59.2662 81.1879 61.071C78.8526 62.8759 78.4227 66.2322 80.2276 68.5674L98.5273 92.2445Z" fill="#153385" stroke="#101C3F" stroke-miterlimit="10"/>
<path d="M58.905 17.84C68.679 14.2438 77.7599 18.081 82.682 24.9419C67.9357 12.9279 44.9422 27.1117 47.2225 45.5346C47.5941 48.5381 48.6489 51.3005 50.2059 53.6813C46.8006 50.7983 44.3998 46.5793 43.8674 41.0042C42.893 30.9289 49.5228 21.2955 58.905 17.84Z" fill="#101C3F" stroke="#101C3F" stroke-miterlimit="10"/>
<path d="M36.946 42.8423C38.8144 57.8799 53.2996 67.664 67.9355 65.3435C92.064 61.5063 104.55 27.3124 81.1248 13.3194C60.8435 1.20489 34.1534 19.889 36.946 42.8523V42.8423ZM79.9998 21.3355C95.2584 34.6152 82.0389 59.0653 63.4553 58.7438C53.6512 58.5731 45.1429 51.3706 43.9274 41.5364C41.6271 22.8624 65.2534 8.50775 79.9998 21.3355Z" fill="#48EFCF" stroke="#101C3F" stroke-miterlimit="10"/>
<path d="M67.9358 65.3436C86.6902 62.3602 98.4029 41.0442 91.6927 25.1226C97.3984 32.9579 98.9855 43.7866 92.9685 54.2135C82.2301 72.8172 53.4004 74.4546 43.4456 56.8956C49.4225 63.4149 58.644 66.8202 67.9258 65.3436H67.9358Z" fill="#153385" stroke="#101C3F" stroke-miterlimit="10"/>
<path d="M100 91.1068C101.805 93.442 105.161 93.872 107.497 92.0671C109.832 90.2622 110.262 86.9059 108.457 84.5707L90.1572 60.8936C88.3523 58.5584 84.996 58.1284 82.6608 59.9333C80.3255 61.7382 79.8956 65.0944 81.7005 67.4297L100 91.1068Z" fill="#48EFCF" stroke="#101C3F" stroke-miterlimit="10"/>
<path d="M49.1811 32.194C42.0791 29.9941 34.8968 23.9971 32.938 16.1417C32.8375 15.7198 32.4458 15.539 32.0942 15.5892H28.7692L28.8496 21.747C25.6753 26.87 20.8034 30.9584 15.5296 32.4551C14.8064 32.6561 14.7963 33.6907 15.5196 33.9117C20.7029 35.4888 25.9063 39.0448 29.1409 43.8665L29.2212 50.2854H32.6165C32.8978 50.2552 33.1791 50.0845 33.2795 49.753C35.4493 42.9022 41.4161 35.7299 49.1509 33.6606C49.8842 33.4597 49.9043 32.425 49.1811 32.204V32.194Z" fill="#153385" stroke="#101C3F" stroke-linecap="round" stroke-linejoin="round"/>
<path d="M49.1512 33.6606C49.8845 33.4597 49.9046 32.4251 49.1814 32.2041H44.4902V33.6606H49.1512Z" fill="#153385" stroke="#101C3F" stroke-miterlimit="10"/>
<path d="M12.1747 33.9118C19.2766 36.0715 26.4188 41.9379 28.478 49.7129C28.6789 50.4462 29.7036 50.4763 29.9346 49.743C32.1044 42.8922 38.0712 35.7199 45.806 33.6506C46.5393 33.4497 46.5594 32.415 45.8362 32.194C38.7342 29.9941 31.5519 23.9972 29.5931 16.1418C29.4122 15.4085 28.3675 15.3784 28.1365 16.1016C25.6654 23.7259 19.2967 30.4462 12.1847 32.4552C11.4615 32.6561 11.4514 33.6908 12.1747 33.9118Z" fill="#0B64DD" stroke="#101C3F" stroke-linecap="round" stroke-linejoin="round"/>
<path d="M118.071 101.144C116.323 99.3966 111.261 93.4398 101.748 93.4398C80.5122 93.4398 80.5122 102.661 59.2867 102.661C38.0612 102.661 35.8713 81.0742 13.3399 84.0074C8.07628 84.6905 2.34047 89.1304 0.502197 94.2937V110.366H118.071V101.144Z" fill="#0B64DD" stroke="#101C3F" stroke-miterlimit="10"/>
</g>
</svg>
