<svg id="svg" version="1.1" xmlns="http://www.w3.org/2000/svg" xmlns:xlink="http://www.w3.org/1999/xlink" width="400" height="400" viewBox="0, 0, 400,400"><g id="svgg"><path id="path0" d="M262.901 28.177 C 262.047 28.895,261.166 29.186,259.570 29.277 C 257.669 29.385,257.384 29.511,257.272 30.300 C 257.159 31.094,256.913 31.200,255.172 31.200 C 253.348 31.200,253.200 31.273,253.200 32.177 C 253.200 33.040,253.002 33.168,251.500 33.277 C 250.198 33.371,249.709 33.607,249.412 34.284 C 249.199 34.770,248.659 35.220,248.212 35.284 C 247.721 35.354,247.349 35.756,247.272 36.300 C 247.180 36.951,246.876 37.200,246.172 37.200 C 245.402 37.200,245.200 37.408,245.200 38.200 C 245.200 39.000,245.000 39.200,244.200 39.200 C 243.400 39.200,243.200 39.400,243.200 40.200 C 243.200 41.000,243.000 41.200,242.200 41.200 C 241.408 41.200,241.200 41.402,241.200 42.172 C 241.200 42.876,240.951 43.180,240.300 43.272 C 239.756 43.349,239.354 43.721,239.284 44.212 C 239.220 44.659,238.770 45.199,238.284 45.412 C 237.607 45.709,237.371 46.198,237.277 47.500 C 237.168 49.002,237.040 49.200,236.177 49.200 C 235.273 49.200,235.200 49.348,235.200 51.172 C 235.200 52.913,235.094 53.159,234.300 53.272 C 233.511 53.384,233.385 53.669,233.277 55.570 C 233.186 57.166,232.895 58.047,232.177 58.901 L 231.200 60.061 231.200 142.497 C 231.200 187.837,231.314 224.819,231.453 224.680 C 232.048 224.086,233.160 226.374,233.277 228.434 C 233.385 230.331,233.512 230.616,234.300 230.728 C 235.094 230.841,235.200 231.087,235.200 232.828 C 235.200 234.665,235.269 234.800,236.200 234.800 C 237.141 234.800,237.584 236.367,237.247 238.500 C 237.221 238.665,237.335 238.779,237.500 238.753 C 238.548 238.587,239.161 238.915,239.272 239.700 C 239.354 240.278,239.722 240.646,240.300 240.728 C 240.951 240.820,241.200 241.124,241.200 241.828 C 241.200 242.598,241.408 242.800,242.200 242.800 C 243.000 242.800,243.200 243.000,243.200 243.800 C 243.200 244.600,243.400 244.800,244.200 244.800 C 245.000 244.800,245.200 245.000,245.200 245.800 C 245.200 246.592,245.402 246.800,246.172 246.800 C 246.876 246.800,247.180 247.049,247.272 247.700 C 247.354 248.278,247.722 248.646,248.300 248.728 C 249.085 248.839,249.413 249.452,249.247 250.500 C 249.221 250.665,249.335 250.779,249.500 250.753 C 251.633 250.416,253.200 250.859,253.200 251.800 C 253.200 252.350,253.335 252.779,253.500 252.753 C 255.453 252.444,257.155 252.872,257.272 253.700 C 257.385 254.497,257.663 254.614,259.686 254.720 C 261.540 254.816,262.115 255.021,262.727 255.798 L 263.481 256.757 276.088 256.789 L 288.695 256.821 289.344 255.829 C 289.903 254.977,290.343 254.822,292.497 254.719 C 294.727 254.613,295.014 254.504,295.125 253.721 C 295.231 252.979,295.544 252.823,297.125 252.721 C 298.258 252.648,299.020 252.402,299.050 252.100 C 299.078 251.825,299.123 251.420,299.150 251.200 C 299.178 250.980,299.802 250.800,300.538 250.800 C 301.852 250.800,303.486 249.619,302.934 249.068 C 302.787 248.920,303.147 248.800,303.733 248.800 C 304.604 248.800,304.800 248.617,304.800 247.800 C 304.800 247.000,305.000 246.800,305.800 246.800 C 306.600 246.800,306.800 246.600,306.800 245.800 C 306.800 245.000,307.000 244.800,307.800 244.800 C 308.600 244.800,308.800 244.600,308.800 243.800 C 308.800 243.000,309.000 242.800,309.800 242.800 C 310.600 242.800,310.800 242.600,310.800 241.800 C 310.800 241.000,311.000 240.800,311.800 240.800 C 312.572 240.800,312.800 240.594,312.800 239.895 C 312.800 239.340,313.148 238.837,313.700 238.595 C 314.395 238.290,314.628 237.813,314.723 236.500 C 314.832 234.998,314.960 234.800,315.823 234.800 C 316.729 234.800,316.800 234.654,316.800 232.800 C 316.800 230.933,316.867 230.800,317.800 230.800 C 318.754 230.800,318.800 230.691,318.800 228.429 C 318.800 226.375,318.934 225.953,319.802 225.270 L 320.804 224.482 320.798 141.996 L 320.792 59.509 319.816 58.741 C 319.018 58.114,318.817 57.553,318.720 55.686 C 318.614 53.663,318.497 53.385,317.700 53.272 C 316.906 53.159,316.800 52.913,316.800 51.172 C 316.800 49.335,316.731 49.200,315.800 49.200 C 314.859 49.200,314.416 47.633,314.753 45.500 C 314.779 45.335,314.665 45.221,314.500 45.247 C 313.452 45.413,312.839 45.085,312.728 44.300 C 312.646 43.722,312.278 43.354,311.700 43.272 C 311.049 43.180,310.800 42.876,310.800 42.172 C 310.800 41.402,310.592 41.200,309.800 41.200 C 309.000 41.200,308.800 41.000,308.800 40.200 C 308.800 39.400,308.600 39.200,307.800 39.200 C 307.000 39.200,306.800 39.000,306.800 38.200 C 306.800 37.408,306.598 37.200,305.828 37.200 C 305.130 37.200,304.820 36.950,304.728 36.316 C 304.649 35.774,304.214 35.326,303.600 35.156 C 303.050 35.004,302.757 34.862,302.949 34.840 C 303.141 34.818,303.097 34.558,302.852 34.263 C 302.607 33.968,302.540 33.593,302.703 33.430 C 302.867 33.267,302.820 33.170,302.600 33.214 C 300.796 33.578,299.273 33.145,299.036 32.200 C 298.815 31.319,298.571 31.200,296.992 31.200 C 295.386 31.200,295.115 31.037,295.234 30.145 C 295.310 29.579,294.089 29.212,292.109 29.206 C 290.324 29.201,289.923 29.054,289.363 28.200 L 288.708 27.200 276.385 27.200 L 264.061 27.200 262.901 28.177 M110.400 32.600 C 109.992 33.091,110.020 33.200,110.551 33.200 C 110.908 33.200,111.200 32.930,111.200 32.600 C 111.200 32.270,111.132 32.000,111.049 32.000 C 110.966 32.000,110.674 32.270,110.400 32.600 M136.800 32.600 C 136.800 32.930,137.092 33.200,137.449 33.200 C 137.980 33.200,138.008 33.091,137.600 32.600 C 137.326 32.270,137.034 32.000,136.951 32.000 C 136.868 32.000,136.800 32.270,136.800 32.600 M80.400 62.600 C 79.992 63.091,80.020 63.200,80.551 63.200 C 80.908 63.200,81.200 62.930,81.200 62.600 C 81.200 62.270,81.132 62.000,81.049 62.000 C 80.966 62.000,80.674 62.270,80.400 62.600 M166.800 62.600 C 166.800 62.930,167.092 63.200,167.449 63.200 C 167.980 63.200,168.008 63.091,167.600 62.600 C 167.326 62.270,167.034 62.000,166.951 62.000 C 166.868 62.000,166.800 62.270,166.800 62.600 M80.000 88.951 C 80.000 89.034,80.270 89.326,80.600 89.600 C 81.091 90.008,81.200 89.980,81.200 89.449 C 81.200 89.092,80.930 88.800,80.600 88.800 C 80.270 88.800,80.000 88.868,80.000 88.951 M166.800 89.449 C 166.800 89.980,166.909 90.008,167.400 89.600 C 167.730 89.326,168.000 89.034,168.000 88.951 C 168.000 88.868,167.730 88.800,167.400 88.800 C 167.070 88.800,166.800 89.092,166.800 89.449 M110.000 118.951 C 110.000 119.034,110.270 119.326,110.600 119.600 C 111.091 120.008,111.200 119.980,111.200 119.449 C 111.200 119.092,110.930 118.800,110.600 118.800 C 110.270 118.800,110.000 118.868,110.000 118.951 M136.800 119.449 C 136.800 119.980,136.909 120.008,137.400 119.600 C 137.730 119.326,138.000 119.034,138.000 118.951 C 138.000 118.868,137.730 118.800,137.400 118.800 C 137.070 118.800,136.800 119.092,136.800 119.449 M110.400 136.600 C 109.992 137.091,110.020 137.200,110.551 137.200 C 110.908 137.200,111.200 136.930,111.200 136.600 C 111.200 136.270,111.132 136.000,111.049 136.000 C 110.966 136.000,110.674 136.270,110.400 136.600 M136.800 136.600 C 136.800 136.930,137.092 137.200,137.449 137.200 C 137.980 137.200,138.008 137.091,137.600 136.600 C 137.326 136.270,137.034 136.000,136.951 136.000 C 136.868 136.000,136.800 136.270,136.800 136.600 M80.400 166.600 C 79.992 167.091,80.020 167.200,80.551 167.200 C 80.908 167.200,81.200 166.930,81.200 166.600 C 81.200 166.270,81.132 166.000,81.049 166.000 C 80.966 166.000,80.674 166.270,80.400 166.600 M166.800 166.600 C 166.800 166.930,167.092 167.200,167.449 167.200 C 167.980 167.200,168.008 167.091,167.600 166.600 C 167.326 166.270,167.034 166.000,166.951 166.000 C 166.868 166.000,166.800 166.270,166.800 166.600 M80.000 192.951 C 80.000 193.034,80.270 193.326,80.600 193.600 C 81.091 194.008,81.200 193.980,81.200 193.449 C 81.200 193.092,80.930 192.800,80.600 192.800 C 80.270 192.800,80.000 192.868,80.000 192.951 M166.800 193.449 C 166.800 193.980,166.909 194.008,167.400 193.600 C 167.730 193.326,168.000 193.034,168.000 192.951 C 168.000 192.868,167.730 192.800,167.400 192.800 C 167.070 192.800,166.800 193.092,166.800 193.449 M110.000 222.951 C 110.000 223.034,110.270 223.326,110.600 223.600 C 111.091 224.008,111.200 223.980,111.200 223.449 C 111.200 223.092,110.930 222.800,110.600 222.800 C 110.270 222.800,110.000 222.868,110.000 222.951 M136.800 223.449 C 136.800 223.980,136.909 224.008,137.400 223.600 C 137.730 223.326,138.000 223.034,138.000 222.951 C 138.000 222.868,137.730 222.800,137.400 222.800 C 137.070 222.800,136.800 223.092,136.800 223.449 M91.476 247.457 C 91.324 247.609,91.200 248.063,91.200 248.467 C 91.200 248.982,90.903 249.200,90.200 249.200 C 89.408 249.200,89.200 249.402,89.200 250.172 C 89.200 250.876,88.951 251.180,88.300 251.272 C 87.700 251.357,87.354 251.722,87.264 252.365 C 87.189 252.896,86.739 253.645,86.264 254.030 C 84.836 255.185,84.743 261.396,86.128 263.042 C 86.680 263.697,87.191 264.766,87.265 265.417 C 87.365 266.288,87.637 266.634,88.300 266.728 C 88.953 266.821,89.200 267.124,89.200 267.832 C 89.200 268.779,90.288 270.089,95.340 275.226 C 96.406 276.311,97.427 277.107,97.607 276.995 C 98.053 276.720,99.200 277.914,99.200 278.652 C 99.200 278.979,99.365 279.145,99.568 279.020 C 100.102 278.690,101.200 279.923,101.200 280.852 C 101.200 281.289,101.360 281.549,101.555 281.428 C 101.995 281.156,102.892 282.175,102.530 282.537 C 102.385 282.682,102.561 282.800,102.921 282.800 C 103.317 282.800,103.490 283.021,103.360 283.360 C 103.124 283.974,103.773 284.510,104.979 284.698 C 105.825 284.830,107.320 286.013,107.020 286.314 C 106.918 286.415,107.450 287.044,108.203 287.710 C 108.956 288.377,109.517 289.030,109.449 289.161 C 109.305 289.443,110.665 290.798,111.100 290.805 C 111.265 290.808,111.405 291.213,111.412 291.705 C 111.421 292.390,111.626 292.572,112.286 292.479 C 113.150 292.358,114.305 293.745,114.052 294.600 C 113.987 294.820,114.067 294.867,114.230 294.703 C 114.703 294.230,115.577 295.195,115.308 295.895 C 115.146 296.317,115.222 296.434,115.532 296.242 C 115.789 296.083,116.000 296.143,116.000 296.376 C 116.000 296.609,116.135 296.779,116.300 296.753 C 117.011 296.640,117.635 296.823,117.487 297.100 C 117.316 297.420,118.631 298.822,119.050 298.767 C 119.188 298.749,119.607 299.200,119.980 299.770 C 120.354 300.340,120.765 300.702,120.892 300.575 C 121.020 300.447,121.243 300.883,121.388 301.543 C 121.588 302.454,121.838 302.708,122.426 302.595 C 122.852 302.513,123.200 302.614,123.200 302.820 C 123.200 303.026,123.742 303.677,124.405 304.267 C 125.268 305.037,125.538 305.564,125.359 306.129 C 125.153 306.777,125.257 306.878,125.941 306.700 C 126.565 306.536,126.972 306.796,127.570 307.741 C 128.009 308.433,128.510 308.910,128.684 308.800 C 128.858 308.690,129.055 309.171,129.123 309.869 C 129.226 310.934,129.098 311.159,128.323 311.269 C 127.722 311.354,127.355 311.714,127.272 312.300 C 127.180 312.951,126.876 313.200,126.172 313.200 C 125.402 313.200,125.200 313.408,125.200 314.200 C 125.200 315.000,125.000 315.200,124.200 315.200 C 123.400 315.200,123.200 315.400,123.200 316.200 C 123.200 317.000,123.000 317.200,122.200 317.200 C 121.400 317.200,121.200 317.400,121.200 318.200 C 121.200 319.000,121.000 319.200,120.200 319.200 C 119.400 319.200,119.200 319.400,119.200 320.200 C 119.200 321.000,119.000 321.200,118.200 321.200 C 117.400 321.200,117.200 321.400,117.200 322.200 C 117.200 323.000,117.000 323.200,116.200 323.200 C 115.408 323.200,115.200 323.402,115.200 324.172 C 115.200 324.876,114.951 325.180,114.300 325.272 C 113.722 325.354,113.354 325.722,113.272 326.300 C 113.180 326.951,112.876 327.200,112.172 327.200 C 111.402 327.200,111.200 327.408,111.200 328.200 C 111.200 329.000,111.000 329.200,110.200 329.200 C 109.408 329.200,109.200 329.402,109.200 330.172 C 109.200 330.876,108.951 331.180,108.300 331.272 C 107.730 331.353,107.354 331.721,107.275 332.275 C 107.198 332.821,106.821 333.198,106.275 333.275 C 105.730 333.353,105.353 333.730,105.275 334.275 C 105.198 334.821,104.821 335.198,104.275 335.275 C 103.730 335.353,103.353 335.730,103.275 336.275 C 103.198 336.821,102.821 337.198,102.275 337.275 C 101.730 337.353,101.353 337.730,101.275 338.275 C 101.198 338.821,100.821 339.198,100.275 339.275 C 99.730 339.353,99.353 339.730,99.275 340.275 C 99.198 340.821,98.821 341.198,98.275 341.275 C 97.736 341.352,97.353 341.730,97.278 342.259 C 97.210 342.732,96.792 343.213,96.348 343.330 C 95.904 343.446,95.443 343.914,95.324 344.370 C 95.181 344.917,94.782 345.200,94.153 345.200 C 93.410 345.200,93.200 345.415,93.200 346.172 C 93.200 346.876,92.951 347.180,92.300 347.272 C 91.730 347.353,91.354 347.721,91.275 348.275 C 91.198 348.821,90.821 349.198,90.275 349.275 C 89.739 349.352,89.353 349.730,89.279 350.250 C 89.212 350.718,88.717 351.514,88.179 352.020 C 87.536 352.623,87.200 353.379,87.200 354.218 C 87.200 355.288,87.055 355.488,86.307 355.448 C 85.461 355.403,85.407 355.576,85.272 358.751 C 85.082 363.242,85.385 364.796,86.413 364.597 C 87.049 364.475,87.200 364.668,87.200 365.604 C 87.200 367.017,87.987 368.855,88.466 368.559 C 88.658 368.441,89.052 368.909,89.343 369.599 C 89.633 370.289,89.990 370.842,90.135 370.827 C 91.916 370.644,93.200 370.878,93.200 371.386 C 93.200 373.128,102.482 373.434,102.728 371.700 C 102.841 370.906,103.087 370.800,104.828 370.800 C 106.650 370.800,106.800 370.726,106.800 369.828 C 106.800 369.124,107.049 368.820,107.700 368.728 C 108.270 368.647,108.646 368.279,108.725 367.725 C 108.802 367.179,109.179 366.802,109.725 366.725 C 110.279 366.646,110.647 366.270,110.728 365.700 C 110.820 365.049,111.124 364.800,111.828 364.800 C 112.598 364.800,112.800 364.592,112.800 363.800 C 112.800 363.000,113.000 362.800,113.800 362.800 C 114.592 362.800,114.800 362.598,114.800 361.828 C 114.800 361.124,115.049 360.820,115.700 360.728 C 116.270 360.647,116.646 360.279,116.725 359.725 C 116.802 359.179,117.179 358.802,117.725 358.725 C 118.264 358.648,118.647 358.270,118.722 357.741 C 118.790 357.268,119.208 356.787,119.652 356.670 C 120.096 356.554,120.553 356.103,120.667 355.667 C 120.781 355.231,121.231 354.781,121.667 354.667 C 122.103 354.553,122.553 354.103,122.667 353.667 C 122.781 353.231,123.231 352.781,123.667 352.667 C 124.103 352.553,124.557 352.086,124.676 351.630 C 124.819 351.083,125.218 350.800,125.847 350.800 C 126.597 350.800,126.800 350.587,126.800 349.800 C 126.800 349.000,127.000 348.800,127.800 348.800 C 128.600 348.800,128.800 348.600,128.800 347.800 C 128.800 346.841,129.147 346.614,130.354 346.783 C 130.702 346.831,130.820 346.630,130.671 346.242 C 130.382 345.487,131.502 344.277,132.231 344.557 C 132.550 344.679,132.679 344.550,132.557 344.231 C 132.294 343.546,133.546 342.294,134.231 342.557 C 134.541 342.675,134.679 342.551,134.566 342.255 C 134.364 341.728,137.177 338.542,137.700 338.706 C 137.865 338.758,137.955 338.575,137.900 338.300 C 137.845 338.025,138.038 337.849,138.330 337.910 C 138.621 337.970,138.753 337.848,138.623 337.638 C 138.352 337.198,139.118 336.626,140.000 336.611 C 140.330 336.605,140.605 336.330,140.611 336.000 C 140.628 335.039,141.207 334.370,141.921 334.489 C 142.284 334.550,142.603 334.330,142.630 334.000 C 142.740 332.640,142.838 332.506,143.698 332.552 C 144.376 332.588,144.596 332.380,144.598 331.700 C 144.599 331.205,144.735 330.800,144.900 330.800 C 145.385 330.800,146.688 329.427,146.513 329.100 C 146.365 328.823,146.989 328.640,147.700 328.753 C 147.865 328.779,147.955 328.575,147.900 328.300 C 147.845 328.025,148.038 327.849,148.330 327.910 C 148.621 327.970,148.758 327.856,148.634 327.655 C 148.342 327.183,149.380 326.314,149.770 326.703 C 149.933 326.867,150.007 326.730,149.933 326.400 C 149.860 326.068,150.036 325.849,150.330 325.910 C 150.621 325.970,150.762 325.862,150.643 325.669 C 150.523 325.476,150.703 324.976,151.042 324.559 C 151.382 324.142,151.535 324.042,151.382 324.338 C 151.189 324.713,151.331 324.833,151.848 324.734 C 152.257 324.655,152.655 324.257,152.734 323.848 C 152.837 323.314,152.726 323.196,152.338 323.429 C 151.896 323.696,151.897 323.634,152.345 323.081 C 152.645 322.711,153.050 322.507,153.245 322.628 C 153.440 322.749,153.600 322.567,153.600 322.224 C 153.600 321.881,153.881 321.600,154.224 321.600 C 154.567 321.600,154.736 321.420,154.600 321.200 C 154.464 320.980,154.633 320.800,154.976 320.800 C 155.319 320.800,155.600 320.609,155.600 320.376 C 155.600 320.143,155.375 320.084,155.100 320.245 C 154.825 320.406,154.943 320.147,155.362 319.669 C 156.151 318.769,156.633 318.500,156.200 319.200 C 156.064 319.420,156.143 319.600,156.376 319.600 C 156.609 319.600,156.800 319.420,156.800 319.200 C 156.800 318.980,156.993 318.800,157.229 318.800 C 157.791 318.800,158.800 317.779,158.800 317.210 C 158.800 316.965,159.236 316.328,159.769 315.795 C 160.302 315.262,160.851 314.469,160.989 314.033 C 161.128 313.597,161.592 313.130,162.020 312.994 C 162.449 312.857,162.800 312.568,162.800 312.349 C 162.800 312.131,162.960 312.051,163.155 312.172 C 163.350 312.293,163.732 312.123,164.004 311.796 C 164.276 311.468,164.350 311.200,164.169 311.200 C 163.988 311.200,164.056 310.984,164.320 310.720 C 165.235 309.805,164.914 307.644,163.823 307.370 C 163.228 307.221,162.798 306.787,162.723 306.262 C 162.647 305.730,162.265 305.352,161.725 305.275 C 161.179 305.198,160.802 304.821,160.725 304.275 C 160.647 303.730,160.270 303.353,159.725 303.275 C 159.179 303.198,158.802 302.821,158.725 302.275 C 158.647 301.730,158.270 301.353,157.725 301.275 C 157.179 301.198,156.802 300.821,156.725 300.275 C 156.647 299.730,156.270 299.353,155.725 299.275 C 155.179 299.198,154.802 298.821,154.725 298.275 C 154.647 297.730,154.270 297.353,153.725 297.275 C 153.179 297.198,152.802 296.821,152.725 296.275 C 152.646 295.721,152.270 295.353,151.700 295.272 C 151.049 295.180,150.800 294.876,150.800 294.172 C 150.800 293.402,150.592 293.200,149.800 293.200 C 149.000 293.200,148.800 293.000,148.800 292.200 C 148.800 291.400,148.600 291.200,147.800 291.200 C 147.000 291.200,146.800 291.000,146.800 290.200 C 146.800 289.400,146.600 289.200,145.800 289.200 C 145.000 289.200,144.800 289.000,144.800 288.200 C 144.800 287.400,144.600 287.200,143.800 287.200 C 143.000 287.200,142.800 287.000,142.800 286.200 C 142.800 285.400,142.600 285.200,141.800 285.200 C 141.000 285.200,140.800 285.000,140.800 284.200 C 140.800 283.408,140.598 283.200,139.828 283.200 C 139.124 283.200,138.820 282.951,138.728 282.300 C 138.647 281.730,138.279 281.354,137.725 281.275 C 137.179 281.198,136.802 280.821,136.725 280.275 C 136.646 279.721,136.270 279.353,135.700 279.272 C 135.049 279.180,134.800 278.876,134.800 278.172 C 134.800 277.402,134.592 277.200,133.800 277.200 C 133.000 277.200,132.800 277.000,132.800 276.200 C 132.800 275.400,132.600 275.200,131.800 275.200 C 131.000 275.200,130.800 275.000,130.800 274.200 C 130.800 273.400,130.600 273.200,129.800 273.200 C 129.000 273.200,128.800 273.000,128.800 272.200 C 128.800 271.400,128.600 271.200,127.800 271.200 C 127.000 271.200,126.800 271.000,126.800 270.200 C 126.800 269.400,126.600 269.200,125.800 269.200 C 125.000 269.200,124.800 269.000,124.800 268.200 C 124.800 267.400,124.600 267.200,123.800 267.200 C 123.086 267.200,122.800 266.984,122.800 266.443 C 122.800 266.027,121.855 264.686,120.700 263.463 C 119.545 262.239,117.748 260.285,116.707 259.119 C 112.577 254.494,111.587 253.554,110.417 253.146 C 109.748 252.913,109.178 252.559,109.150 252.361 C 109.123 252.162,109.055 251.820,109.000 251.600 C 108.945 251.380,108.878 250.990,108.850 250.733 C 108.822 250.477,108.682 250.385,108.537 250.530 C 108.175 250.892,107.156 249.995,107.428 249.555 C 107.549 249.360,107.019 249.200,106.251 249.200 C 105.108 249.200,104.832 249.037,104.728 248.300 C 104.599 247.394,92.320 246.613,91.476 247.457 M262.400 284.600 C 261.992 285.091,262.020 285.200,262.551 285.200 C 262.908 285.200,263.200 284.930,263.200 284.600 C 263.200 284.270,263.132 284.000,263.049 284.000 C 262.966 284.000,262.674 284.270,262.400 284.600 M232.400 314.600 C 231.992 315.091,232.020 315.200,232.551 315.200 C 232.908 315.200,233.200 314.930,233.200 314.600 C 233.200 314.270,233.132 314.000,233.049 314.000 C 232.966 314.000,232.674 314.270,232.400 314.600 M318.800 314.600 C 318.800 314.930,319.092 315.200,319.449 315.200 C 319.980 315.200,320.008 315.091,319.600 314.600 C 319.326 314.270,319.034 314.000,318.951 314.000 C 318.868 314.000,318.800 314.270,318.800 314.600 M232.000 340.951 C 232.000 341.034,232.270 341.326,232.600 341.600 C 233.091 342.008,233.200 341.980,233.200 341.449 C 233.200 341.092,232.930 340.800,232.600 340.800 C 232.270 340.800,232.000 340.868,232.000 340.951 M318.800 341.449 C 318.800 341.980,318.909 342.008,319.400 341.600 C 319.730 341.326,320.000 341.034,320.000 340.951 C 320.000 340.868,319.730 340.800,319.400 340.800 C 319.070 340.800,318.800 341.092,318.800 341.449 M262.000 370.951 C 262.000 371.034,262.270 371.326,262.600 371.600 C 263.091 372.008,263.200 371.980,263.200 371.449 C 263.200 371.092,262.930 370.800,262.600 370.800 C 262.270 370.800,262.000 370.868,262.000 370.951 " stroke="none" fill="#646cb4" fill-rule="evenodd"></path><path id="path1" d="M111.200 32.200 C 111.200 33.178,111.133 33.200,108.200 33.200 C 105.267 33.200,105.200 33.222,105.200 34.200 C 105.200 35.133,105.067 35.200,103.200 35.200 C 101.333 35.200,101.200 35.267,101.200 36.200 C 101.200 37.133,101.067 37.200,99.200 37.200 C 97.333 37.200,97.200 37.267,97.200 38.200 C 97.200 39.000,97.000 39.200,96.200 39.200 C 95.400 39.200,95.200 39.400,95.200 40.200 C 95.200 41.000,95.000 41.200,94.200 41.200 C 93.400 41.200,93.200 41.400,93.200 42.200 C 93.200 43.000,93.000 43.200,92.200 43.200 C 91.400 43.200,91.200 43.400,91.200 44.200 C 91.200 45.000,91.000 45.200,90.200 45.200 C 89.400 45.200,89.200 45.400,89.200 46.200 C 89.200 47.000,89.000 47.200,88.200 47.200 C 87.400 47.200,87.200 47.400,87.200 48.200 C 87.200 49.000,87.000 49.200,86.200 49.200 C 85.267 49.200,85.200 49.333,85.200 51.200 C 85.200 53.067,85.133 53.200,84.200 53.200 C 83.267 53.200,83.200 53.333,83.200 55.200 C 83.200 57.067,83.133 57.200,82.200 57.200 C 81.222 57.200,81.200 57.267,81.200 60.200 C 81.200 63.133,81.178 63.200,80.200 63.200 L 79.200 63.200 79.200 76.000 L 79.200 88.800 80.200 88.800 C 81.178 88.800,81.200 88.867,81.200 91.800 C 81.200 94.733,81.222 94.800,82.200 94.800 C 83.133 94.800,83.200 94.933,83.200 96.800 C 83.200 98.667,83.267 98.800,84.200 98.800 C 85.133 98.800,85.200 98.933,85.200 100.800 C 85.200 102.667,85.267 102.800,86.200 102.800 C 87.000 102.800,87.200 103.000,87.200 103.800 C 87.200 104.600,87.400 104.800,88.200 104.800 C 89.000 104.800,89.200 105.000,89.200 105.800 C 89.200 106.600,89.400 106.800,90.200 106.800 C 91.000 106.800,91.200 107.000,91.200 107.800 C 91.200 108.600,91.400 108.800,92.200 108.800 C 93.000 108.800,93.200 109.000,93.200 109.800 C 93.200 110.600,93.400 110.800,94.200 110.800 C 95.000 110.800,95.200 111.000,95.200 111.800 C 95.200 112.600,95.400 112.800,96.200 112.800 C 97.000 112.800,97.200 113.000,97.200 113.800 C 97.200 114.733,97.333 114.800,99.200 114.800 C 101.067 114.800,101.200 114.867,101.200 115.800 C 101.200 116.733,101.333 116.800,103.200 116.800 C 105.067 116.800,105.200 116.867,105.200 117.800 C 105.200 118.778,105.267 118.800,108.200 118.800 C 111.133 118.800,111.200 118.822,111.200 119.800 L 111.200 120.800 124.000 120.800 L 136.800 120.800 136.800 119.800 C 136.800 118.822,136.867 118.800,139.800 118.800 C 142.733 118.800,142.800 118.778,142.800 117.800 C 142.800 116.867,142.933 116.800,144.800 116.800 C 146.667 116.800,146.800 116.733,146.800 115.800 C 146.800 114.867,146.933 114.800,148.800 114.800 C 150.667 114.800,150.800 114.733,150.800 113.800 C 150.800 113.000,151.000 112.800,151.800 112.800 C 152.600 112.800,152.800 112.600,152.800 111.800 C 152.800 111.000,153.000 110.800,153.800 110.800 C 154.600 110.800,154.800 110.600,154.800 109.800 C 154.800 109.000,155.000 108.800,155.800 108.800 C 156.600 108.800,156.800 108.600,156.800 107.800 C 156.800 107.000,157.000 106.800,157.800 106.800 C 158.600 106.800,158.800 106.600,158.800 105.800 C 158.800 105.000,159.000 104.800,159.800 104.800 C 160.600 104.800,160.800 104.600,160.800 103.800 C 160.800 103.000,161.000 102.800,161.800 102.800 C 162.733 102.800,162.800 102.667,162.800 100.800 C 162.800 98.933,162.867 98.800,163.800 98.800 C 164.733 98.800,164.800 98.667,164.800 96.800 C 164.800 94.933,164.867 94.800,165.800 94.800 C 166.778 94.800,166.800 94.733,166.800 91.800 C 166.800 88.867,166.822 88.800,167.800 88.800 L 168.800 88.800 168.800 76.000 L 168.800 63.200 167.800 63.200 C 166.822 63.200,166.800 63.133,166.800 60.200 C 166.800 57.267,166.778 57.200,165.800 57.200 C 164.867 57.200,164.800 57.067,164.800 55.200 C 164.800 53.333,164.733 53.200,163.800 53.200 C 162.867 53.200,162.800 53.067,162.800 51.200 C 162.800 49.333,162.733 49.200,161.800 49.200 C 161.000 49.200,160.800 49.000,160.800 48.200 C 160.800 47.400,160.600 47.200,159.800 47.200 C 159.000 47.200,158.800 47.000,158.800 46.200 C 158.800 45.400,158.600 45.200,157.800 45.200 C 157.000 45.200,156.800 45.000,156.800 44.200 C 156.800 43.400,156.600 43.200,155.800 43.200 C 155.000 43.200,154.800 43.000,154.800 42.200 C 154.800 41.400,154.600 41.200,153.800 41.200 C 153.000 41.200,152.800 41.000,152.800 40.200 C 152.800 39.400,152.600 39.200,151.800 39.200 C 151.000 39.200,150.800 39.000,150.800 38.200 C 150.800 37.267,150.667 37.200,148.800 37.200 C 146.933 37.200,146.800 37.133,146.800 36.200 C 146.800 35.267,146.667 35.200,144.800 35.200 C 142.933 35.200,142.800 35.133,142.800 34.200 C 142.800 33.222,142.733 33.200,139.800 33.200 C 136.867 33.200,136.800 33.178,136.800 32.200 L 136.800 31.200 124.000 31.200 L 111.200 31.200 111.200 32.200 M111.200 136.200 C 111.200 137.178,111.133 137.200,108.200 137.200 C 105.267 137.200,105.200 137.222,105.200 138.200 C 105.200 139.133,105.067 139.200,103.200 139.200 C 101.333 139.200,101.200 139.267,101.200 140.200 C 101.200 141.133,101.067 141.200,99.200 141.200 C 97.333 141.200,97.200 141.267,97.200 142.200 C 97.200 143.000,97.000 143.200,96.200 143.200 C 95.400 143.200,95.200 143.400,95.200 144.200 C 95.200 145.000,95.000 145.200,94.200 145.200 C 93.400 145.200,93.200 145.400,93.200 146.200 C 93.200 147.000,93.000 147.200,92.200 147.200 C 91.400 147.200,91.200 147.400,91.200 148.200 C 91.200 149.000,91.000 149.200,90.200 149.200 C 89.400 149.200,89.200 149.400,89.200 150.200 C 89.200 151.000,89.000 151.200,88.200 151.200 C 87.400 151.200,87.200 151.400,87.200 152.200 C 87.200 153.000,87.000 153.200,86.200 153.200 C 85.267 153.200,85.200 153.333,85.200 155.200 C 85.200 157.067,85.133 157.200,84.200 157.200 C 83.267 157.200,83.200 157.333,83.200 159.200 C 83.200 161.067,83.133 161.200,82.200 161.200 C 81.222 161.200,81.200 161.267,81.200 164.200 C 81.200 167.133,81.178 167.200,80.200 167.200 L 79.200 167.200 79.200 180.000 L 79.200 192.800 80.200 192.800 C 81.178 192.800,81.200 192.867,81.200 195.800 C 81.200 198.733,81.222 198.800,82.200 198.800 C 83.133 198.800,83.200 198.933,83.200 200.800 C 83.200 202.667,83.267 202.800,84.200 202.800 C 85.133 202.800,85.200 202.933,85.200 204.800 C 85.200 206.667,85.267 206.800,86.200 206.800 C 87.000 206.800,87.200 207.000,87.200 207.800 C 87.200 208.600,87.400 208.800,88.200 208.800 C 89.000 208.800,89.200 209.000,89.200 209.800 C 89.200 210.600,89.400 210.800,90.200 210.800 C 91.000 210.800,91.200 211.000,91.200 211.800 C 91.200 212.600,91.400 212.800,92.200 212.800 C 93.000 212.800,93.200 213.000,93.200 213.800 C 93.200 214.600,93.400 214.800,94.200 214.800 C 95.000 214.800,95.200 215.000,95.200 215.800 C 95.200 216.600,95.400 216.800,96.200 216.800 C 97.000 216.800,97.200 217.000,97.200 217.800 C 97.200 218.733,97.333 218.800,99.200 218.800 C 101.067 218.800,101.200 218.867,101.200 219.800 C 101.200 220.733,101.333 220.800,103.200 220.800 C 105.067 220.800,105.200 220.867,105.200 221.800 C 105.200 222.778,105.267 222.800,108.200 222.800 C 111.133 222.800,111.200 222.822,111.200 223.800 L 111.200 224.800 124.000 224.800 L 136.800 224.800 136.800 223.800 C 136.800 222.822,136.867 222.800,139.800 222.800 C 142.733 222.800,142.800 222.778,142.800 221.800 C 142.800 220.867,142.933 220.800,144.800 220.800 C 146.667 220.800,146.800 220.733,146.800 219.800 C 146.800 218.867,146.933 218.800,148.800 218.800 C 150.667 218.800,150.800 218.733,150.800 217.800 C 150.800 217.000,151.000 216.800,151.800 216.800 C 152.600 216.800,152.800 216.600,152.800 215.800 C 152.800 215.000,153.000 214.800,153.800 214.800 C 154.600 214.800,154.800 214.600,154.800 213.800 C 154.800 213.000,155.000 212.800,155.800 212.800 C 156.600 212.800,156.800 212.600,156.800 211.800 C 156.800 211.000,157.000 210.800,157.800 210.800 C 158.600 210.800,158.800 210.600,158.800 209.800 C 158.800 209.000,159.000 208.800,159.800 208.800 C 160.600 208.800,160.800 208.600,160.800 207.800 C 160.800 207.000,161.000 206.800,161.800 206.800 C 162.733 206.800,162.800 206.667,162.800 204.800 C 162.800 202.933,162.867 202.800,163.800 202.800 C 164.733 202.800,164.800 202.667,164.800 200.800 C 164.800 198.933,164.867 198.800,165.800 198.800 C 166.778 198.800,166.800 198.733,166.800 195.800 C 166.800 192.867,166.822 192.800,167.800 192.800 L 168.800 192.800 168.800 180.000 L 168.800 167.200 167.800 167.200 C 166.822 167.200,166.800 167.133,166.800 164.200 C 166.800 161.267,166.778 161.200,165.800 161.200 C 164.867 161.200,164.800 161.067,164.800 159.200 C 164.800 157.333,164.733 157.200,163.800 157.200 C 162.867 157.200,162.800 157.067,162.800 155.200 C 162.800 153.333,162.733 153.200,161.800 153.200 C 161.000 153.200,160.800 153.000,160.800 152.200 C 160.800 151.400,160.600 151.200,159.800 151.200 C 159.000 151.200,158.800 151.000,158.800 150.200 C 158.800 149.400,158.600 149.200,157.800 149.200 C 157.000 149.200,156.800 149.000,156.800 148.200 C 156.800 147.400,156.600 147.200,155.800 147.200 C 155.000 147.200,154.800 147.000,154.800 146.200 C 154.800 145.400,154.600 145.200,153.800 145.200 C 153.000 145.200,152.800 145.000,152.800 144.200 C 152.800 143.400,152.600 143.200,151.800 143.200 C 151.000 143.200,150.800 143.000,150.800 142.200 C 150.800 141.267,150.667 141.200,148.800 141.200 C 146.933 141.200,146.800 141.133,146.800 140.200 C 146.800 139.267,146.667 139.200,144.800 139.200 C 142.933 139.200,142.800 139.133,142.800 138.200 C 142.800 137.222,142.733 137.200,139.800 137.200 C 136.867 137.200,136.800 137.178,136.800 136.200 L 136.800 135.200 124.000 135.200 L 111.200 135.200 111.200 136.200 M107.426 249.559 C 107.306 249.752,107.461 250.118,107.769 250.374 C 108.498 250.979,108.882 250.353,108.179 249.704 C 107.884 249.431,107.545 249.366,107.426 249.559 M109.087 251.468 C 108.925 251.725,109.077 252.220,109.425 252.568 C 110.141 253.284,110.800 253.395,110.800 252.800 C 110.800 252.580,110.543 252.400,110.229 252.400 C 109.915 252.400,109.596 252.085,109.520 251.700 C 109.426 251.225,109.287 251.150,109.087 251.468 M97.400 277.200 C 97.264 277.420,97.433 277.600,97.776 277.600 C 98.119 277.600,98.400 277.870,98.400 278.200 C 98.400 278.530,98.580 278.800,98.800 278.800 C 99.394 278.800,99.285 278.142,98.571 277.429 C 97.833 276.690,97.728 276.670,97.400 277.200 M99.400 279.200 C 99.264 279.420,99.433 279.600,99.776 279.600 C 100.119 279.600,100.400 279.870,100.400 280.200 C 100.400 280.530,100.580 280.800,100.800 280.800 C 101.394 280.800,101.285 280.142,100.571 279.429 C 99.833 278.690,99.728 278.670,99.400 279.200 M101.478 281.481 C 101.371 281.656,101.526 282.023,101.821 282.296 C 102.116 282.569,102.455 282.634,102.574 282.441 C 102.694 282.248,102.539 281.882,102.231 281.626 C 101.923 281.370,101.584 281.305,101.478 281.481 M263.200 284.194 C 263.200 285.179,263.138 285.200,260.200 285.200 C 257.267 285.200,257.200 285.222,257.200 286.200 C 257.200 287.133,257.067 287.200,255.200 287.200 C 253.333 287.200,253.200 287.267,253.200 288.200 C 253.200 289.133,253.067 289.200,251.200 289.200 C 249.333 289.200,249.200 289.267,249.200 290.200 C 249.200 291.000,249.000 291.200,248.200 291.200 C 247.400 291.200,247.200 291.400,247.200 292.200 C 247.200 293.000,247.000 293.200,246.200 293.200 C 245.400 293.200,245.200 293.400,245.200 294.200 C 245.200 295.000,245.000 295.200,244.200 295.200 C 243.400 295.200,243.200 295.400,243.200 296.200 C 243.200 297.000,243.000 297.200,242.200 297.200 C 241.400 297.200,241.200 297.400,241.200 298.200 C 241.200 299.000,241.000 299.200,240.200 299.200 C 239.400 299.200,239.200 299.400,239.200 300.200 C 239.200 301.000,239.000 301.200,238.200 301.200 C 237.267 301.200,237.200 301.333,237.200 303.200 C 237.200 305.067,237.133 305.200,236.200 305.200 C 235.267 305.200,235.200 305.333,235.200 307.200 C 235.200 309.067,235.133 309.200,234.200 309.200 C 233.222 309.200,233.200 309.267,233.200 312.200 C 233.200 315.133,233.178 315.200,232.200 315.200 L 231.200 315.200 231.200 328.000 L 231.200 340.800 232.200 340.800 C 233.178 340.800,233.200 340.867,233.200 343.800 C 233.200 346.733,233.222 346.800,234.200 346.800 C 235.133 346.800,235.200 346.933,235.200 348.800 C 235.200 350.667,235.267 350.800,236.200 350.800 C 237.133 350.800,237.200 350.933,237.200 352.800 C 237.200 354.667,237.267 354.800,238.200 354.800 C 239.000 354.800,239.200 355.000,239.200 355.800 C 239.200 356.600,239.400 356.800,240.200 356.800 C 241.000 356.800,241.200 357.000,241.200 357.800 C 241.200 358.600,241.400 358.800,242.200 358.800 C 243.000 358.800,243.200 359.000,243.200 359.800 C 243.200 360.600,243.400 360.800,244.200 360.800 C 245.000 360.800,245.200 361.000,245.200 361.800 C 245.200 362.600,245.400 362.800,246.200 362.800 C 247.000 362.800,247.200 363.000,247.200 363.800 C 247.200 364.600,247.400 364.800,248.200 364.800 C 249.000 364.800,249.200 365.000,249.200 365.800 C 249.200 366.733,249.333 366.800,251.200 366.800 C 253.067 366.800,253.200 366.867,253.200 367.800 C 253.200 368.733,253.333 368.800,255.200 368.800 C 257.067 368.800,257.200 368.867,257.200 369.800 C 257.200 370.778,257.267 370.800,260.200 370.800 C 263.133 370.800,263.200 370.822,263.200 371.800 L 263.200 372.800 276.224 372.800 C 283.943 372.800,289.156 372.652,289.022 372.436 C 288.323 371.305,289.317 370.800,292.243 370.800 C 295.113 370.800,295.200 370.771,295.200 369.822 C 295.200 368.939,295.385 368.832,297.100 368.722 C 298.721 368.618,299.019 368.468,299.128 367.700 C 299.238 366.922,299.495 366.800,301.020 366.800 C 302.569 366.800,302.815 366.678,303.036 365.800 C 303.193 365.174,303.570 364.800,304.043 364.800 C 304.584 364.800,304.800 364.514,304.800 363.800 C 304.800 363.000,305.000 362.800,305.800 362.800 C 306.600 362.800,306.800 362.600,306.800 361.800 C 306.800 361.000,307.000 360.800,307.800 360.800 C 308.600 360.800,308.800 360.600,308.800 359.800 C 308.800 359.000,309.000 358.800,309.800 358.800 C 310.600 358.800,310.800 358.600,310.800 357.800 C 310.800 357.000,311.000 356.800,311.800 356.800 C 312.600 356.800,312.800 356.600,312.800 355.800 C 312.800 355.000,313.000 354.800,313.800 354.800 C 314.733 354.800,314.800 354.667,314.800 352.800 C 314.800 350.933,314.867 350.800,315.800 350.800 C 316.733 350.800,316.800 350.667,316.800 348.800 C 316.800 346.933,316.867 346.800,317.800 346.800 C 318.778 346.800,318.800 346.733,318.800 343.800 C 318.800 340.867,318.822 340.800,319.800 340.800 L 320.800 340.800 320.800 328.000 L 320.800 315.200 319.800 315.200 C 318.822 315.200,318.800 315.133,318.800 312.200 C 318.800 309.267,318.778 309.200,317.800 309.200 C 316.867 309.200,316.800 309.067,316.800 307.200 C 316.800 305.333,316.733 305.200,315.800 305.200 C 314.867 305.200,314.800 305.067,314.800 303.200 C 314.800 301.333,314.733 301.200,313.800 301.200 C 313.000 301.200,312.800 301.000,312.800 300.200 C 312.800 299.400,312.600 299.200,311.800 299.200 C 311.000 299.200,310.800 299.000,310.800 298.200 C 310.800 297.400,310.600 297.200,309.800 297.200 C 309.000 297.200,308.800 297.000,308.800 296.200 C 308.800 295.400,308.600 295.200,307.800 295.200 C 307.000 295.200,306.800 295.000,306.800 294.200 C 306.800 293.400,306.600 293.200,305.800 293.200 C 305.000 293.200,304.800 293.000,304.800 292.200 C 304.800 291.486,304.584 291.200,304.043 291.200 C 303.570 291.200,303.193 290.826,303.036 290.200 C 302.815 289.322,302.569 289.200,301.020 289.200 C 299.495 289.200,299.238 289.078,299.128 288.300 C 299.019 287.534,298.721 287.382,297.125 287.279 C 295.544 287.177,295.231 287.021,295.125 286.279 C 295.011 285.479,294.740 285.389,292.100 285.282 C 290.505 285.218,289.178 284.993,289.150 284.782 C 289.123 284.572,289.078 284.175,289.050 283.900 C 289.011 283.514,286.064 283.376,276.100 283.294 L 263.200 283.189 263.200 284.194 M105.342 285.700 C 105.470 286.536,106.157 286.877,106.926 286.486 C 107.293 286.300,106.061 284.800,105.541 284.800 C 105.356 284.800,105.267 285.205,105.342 285.700 M107.338 287.663 C 107.417 288.178,107.733 288.605,108.041 288.611 C 108.348 288.616,108.825 288.762,109.100 288.934 C 109.924 289.450,109.672 289.065,108.397 287.862 C 107.212 286.743,107.196 286.740,107.338 287.663 M111.149 291.300 C 111.327 291.795,111.851 292.373,112.314 292.585 C 112.777 292.797,113.252 293.352,113.369 293.819 C 113.486 294.285,113.839 294.667,114.154 294.667 C 114.587 294.667,114.522 294.392,113.887 293.533 C 113.427 292.910,112.809 292.400,112.515 292.400 C 112.221 292.400,111.809 291.950,111.600 291.400 C 111.127 290.157,110.705 290.063,111.149 291.300 M117.200 298.167 C 117.200 298.515,117.485 298.800,117.833 298.800 C 118.182 298.800,118.395 298.586,118.308 298.325 C 118.061 297.583,117.200 297.460,117.200 298.167 M119.108 299.552 C 119.212 300.261,119.530 300.800,119.845 300.800 C 120.583 300.800,120.533 300.396,119.653 299.252 L 118.925 298.305 119.108 299.552 M123.200 303.919 C 123.200 304.343,123.523 304.654,124.000 304.690 C 124.440 304.723,124.800 304.711,124.800 304.664 C 124.800 304.617,124.440 304.270,124.000 303.893 C 123.243 303.245,123.200 303.246,123.200 303.919 M163.671 311.220 C 163.192 311.666,162.800 312.192,162.800 312.389 C 162.800 312.585,162.457 312.855,162.037 312.988 C 161.324 313.215,160.593 314.326,160.933 314.667 C 161.269 315.003,162.384 314.280,162.605 313.584 C 162.735 313.175,163.183 312.733,163.600 312.600 C 164.304 312.377,165.084 310.950,164.707 310.574 C 164.616 310.483,164.150 310.774,163.671 311.220 M159.680 315.680 C 159.096 316.264,159.058 316.800,159.600 316.800 C 159.820 316.800,159.955 316.575,159.900 316.300 C 159.845 316.025,160.025 315.845,160.300 315.900 C 160.575 315.955,160.800 315.820,160.800 315.600 C 160.800 315.058,160.264 315.096,159.680 315.680 M155.362 319.669 C 154.943 320.147,154.810 320.415,155.066 320.266 C 155.322 320.117,155.615 320.221,155.716 320.498 C 155.860 320.890,156.020 320.880,156.450 320.450 C 156.880 320.020,156.890 319.860,156.498 319.716 C 156.221 319.615,156.097 319.367,156.221 319.166 C 156.636 318.495,156.134 318.789,155.362 319.669 M153.600 322.233 C 153.600 322.582,153.814 322.795,154.075 322.708 C 154.817 322.461,154.940 321.600,154.233 321.600 C 153.885 321.600,153.600 321.885,153.600 322.233 M149.827 325.970 C 149.165 326.701,149.165 326.734,149.832 326.636 C 150.218 326.580,150.578 326.233,150.631 325.867 C 150.756 325.020,150.678 325.030,149.827 325.970 M147.827 327.970 C 147.165 328.701,147.165 328.734,147.832 328.636 C 148.218 328.580,148.578 328.233,148.631 327.867 C 148.756 327.020,148.678 327.030,147.827 327.970 M141.927 334.006 C 141.295 334.701,141.297 334.743,141.948 334.694 C 142.329 334.665,142.666 334.317,142.696 333.921 C 142.760 333.069,142.782 333.066,141.927 334.006 M137.876 337.916 C 137.275 338.580,137.283 338.636,137.987 338.689 C 138.508 338.728,138.728 338.503,138.688 337.973 C 138.617 337.037,138.668 337.041,137.876 337.916 M136.000 340.200 C 135.592 340.691,135.620 340.800,136.151 340.800 C 136.508 340.800,136.800 340.530,136.800 340.200 C 136.800 339.870,136.732 339.600,136.649 339.600 C 136.566 339.600,136.274 339.870,136.000 340.200 M87.338 351.817 C 86.966 352.788,87.402 352.882,88.198 352.002 C 88.860 351.270,88.865 351.200,88.249 351.200 C 87.878 351.200,87.468 351.478,87.338 351.817 " stroke="none" fill="#5c3c6c" fill-rule="evenodd"></path></g></svg>