<svg width="16" height="16" viewBox="0 0 16 16" fill="none" xmlns="http://www.w3.org/2000/svg">
<g clip-path="url(#clip0)">
<path d="M2.01301 10.7211C2.12728 10.8731 2.27577 10.9961 2.44645 11.08C2.63104 11.1714 2.83473 11.2176 3.0407 11.2149C3.20724 11.2192 3.37302 11.1909 3.5287 11.1316C3.65321 11.0827 3.76437 11.005 3.85306 10.9048C3.9363 10.8073 3.99707 10.6926 4.03106 10.569C4.06812 10.4353 4.08647 10.2972 4.08558 10.1585V9.67623H4.07413C3.96618 9.84733 3.81048 9.98305 3.62625 10.0666C3.4506 10.1431 3.26096 10.1822 3.06938 10.1815C2.88165 10.1829 2.69544 10.1478 2.52111 10.0781C2.35605 10.0126 2.20502 9.91613 2.07615 9.79393C1.94827 9.67115 1.84669 9.52366 1.77759 9.3604C1.70405 9.18806 1.66692 9.00238 1.66851 8.81501C1.66692 8.62819 1.70205 8.44287 1.77188 8.26958C1.8379 8.10564 1.93431 7.95565 2.05605 7.82753C2.17776 7.70045 2.32434 7.5998 2.48665 7.53184C2.66033 7.45963 2.84688 7.4235 3.03496 7.42563C3.1206 7.42613 3.20604 7.4338 3.2904 7.44856C3.38317 7.46477 3.47374 7.49176 3.56025 7.52897C3.76564 7.61799 3.94319 7.76082 4.07413 7.94239H4.08558V7.49451H4.46454V10.1585C4.46325 10.315 4.44495 10.4709 4.40998 10.6235C4.3734 10.7885 4.30087 10.9433 4.19757 11.0771C4.08003 11.2246 3.92961 11.3426 3.75834 11.4216C3.57076 11.5134 3.32579 11.5593 3.02343 11.5593C2.77782 11.5635 2.53384 11.5186 2.30579 11.4273C2.08761 11.3338 1.89189 11.1949 1.73172 11.0197L2.01301 10.7211ZM2.08189 8.80357C2.08094 8.94039 2.1073 9.07604 2.15942 9.20255C2.20911 9.32396 2.28115 9.43496 2.37179 9.52979C2.46191 9.62377 2.56908 9.69977 2.68758 9.75372C2.81103 9.80983 2.94527 9.83824 3.08086 9.83696C3.3494 9.83793 3.60817 9.73628 3.80425 9.5528C3.90055 9.46193 3.97598 9.35123 4.02532 9.22835C4.07849 9.09328 4.10294 8.94861 4.0971 8.80357C4.09807 8.66751 4.07473 8.53236 4.02819 8.40451C3.98396 8.28299 3.9156 8.17167 3.82722 8.07727C3.73638 7.98157 3.62699 7.90539 3.50573 7.85337C3.37146 7.7963 3.22674 7.76794 3.08086 7.7701C2.94527 7.76885 2.81104 7.79727 2.68758 7.85337C2.56912 7.90738 2.46196 7.98335 2.37179 8.07727C2.28118 8.17213 2.20913 8.28312 2.15938 8.40451C2.10728 8.53105 2.08094 8.66672 2.08189 8.80357V8.80357ZM6.00886 10.1815H5.59552V6.11657H6.84711C7.26048 6.11657 7.58677 6.20652 7.82598 6.38642C8.06517 6.56637 8.18479 6.83813 8.18485 7.20169C8.19212 7.46559 8.09637 7.72195 7.91787 7.91646C7.73987 8.10979 7.48246 8.22174 7.14567 8.25231L8.3169 10.1814H7.81163L6.69787 8.29256H6.0089L6.00886 10.1815ZM6.00886 7.91363H6.74378C6.90169 7.91696 7.05926 7.89762 7.21168 7.8562C7.32315 7.8264 7.42757 7.77469 7.51885 7.70409C7.59248 7.64483 7.64978 7.56777 7.68532 7.48019C7.72025 7.39153 7.7378 7.29698 7.73701 7.20169C7.73743 7.10833 7.71988 7.01575 7.68532 6.92902C7.64937 6.84085 7.59218 6.76294 7.51885 6.70221C7.42845 6.63021 7.32373 6.57834 7.21168 6.55006C7.05891 6.51072 6.9015 6.49238 6.74378 6.49554H6.00886V7.91363ZM9.02872 6.11657H10.2115C10.6248 6.11657 10.9511 6.20654 11.1903 6.38646C11.4295 6.56641 11.5491 6.83817 11.5492 7.20173C11.5492 7.56541 11.4295 7.83811 11.1903 8.01984C10.9511 8.20168 10.6248 8.29258 10.2115 8.29256H9.44214V10.1815H9.02872V6.11657ZM9.44218 7.91367H10.1082C10.2661 7.91699 10.4237 7.89765 10.5761 7.85624C10.6875 7.82642 10.792 7.77472 10.8832 7.70413C10.9569 7.64487 11.0142 7.5678 11.0497 7.48023C11.0847 7.39158 11.1022 7.29702 11.1014 7.20173C11.1018 7.10837 11.0843 7.01579 11.0497 6.92906C11.0138 6.8409 10.9566 6.76298 10.8832 6.70225C10.7928 6.63026 10.6881 6.57839 10.5761 6.5501C10.4233 6.51077 10.2659 6.49243 10.1082 6.49558H9.44214L9.44218 7.91367ZM15.7 9.53844C15.6273 9.6462 15.5415 9.74456 15.4446 9.83126C15.3397 9.92549 15.2229 10.0056 15.0972 10.0695C14.963 10.138 14.8215 10.191 14.6753 10.2274C14.5184 10.2663 14.3574 10.2856 14.1958 10.2848C13.9076 10.2875 13.6217 10.2329 13.3548 10.1241C13.1028 10.0223 12.874 9.87062 12.6822 9.67824C12.4903 9.48585 12.3392 9.25669 12.238 9.00449C12.1287 8.7327 12.074 8.44198 12.0773 8.14902C12.074 7.85606 12.1287 7.56534 12.238 7.29354C12.3392 7.04136 12.4903 6.8122 12.6822 6.61983C12.874 6.42746 13.1028 6.27583 13.3548 6.17404C13.6217 6.06523 13.9076 6.01058 14.1958 6.01328C14.4556 6.01467 14.7128 6.06531 14.9537 6.16252C15.2106 6.26535 15.4348 6.43602 15.6024 6.6563L15.2408 6.92615C15.1922 6.85377 15.1342 6.78813 15.0685 6.73092C14.9925 6.66366 14.9087 6.60583 14.8188 6.55871C14.7228 6.50814 14.6217 6.46773 14.5173 6.43815C14.4128 6.40791 14.3046 6.39244 14.1958 6.3922C13.9546 6.38825 13.7155 6.43724 13.4954 6.53574C13.2956 6.62636 13.1168 6.75731 12.9701 6.92036C12.8249 7.08388 12.7128 7.274 12.6399 7.48019C12.4868 7.91294 12.4868 8.3851 12.6399 8.81785C12.7127 9.02403 12.8249 9.21414 12.9701 9.37763C13.1168 9.54074 13.2956 9.67171 13.4954 9.7623C13.7155 9.86086 13.9546 9.90988 14.1958 9.90588C14.3027 9.90592 14.4093 9.89631 14.5145 9.87716C14.6214 9.85749 14.7256 9.82472 14.8245 9.77957C14.9288 9.73173 15.0255 9.66884 15.1116 9.59292C15.2082 9.50657 15.2923 9.40706 15.3613 9.29731L15.7 9.53844Z" fill="#244B5A"/>
<path d="M0.328069 5.31445L0.309204 5.48148V5.31445H0.328069Z" fill="#75CACA"/>
<path d="M0.353035 5.31445L0.309204 5.70219V5.48148L0.328068 5.31445H0.353035V5.31445Z" fill="#74CBCA"/>
<path d="M0.377961 5.31445L0.309204 5.92286V5.70219L0.353035 5.31445H0.377961V5.31445Z" fill="#74CBCA"/>
<path d="M0.402888 5.31445L0.309204 6.14357V5.92286L0.377961 5.31445H0.402888Z" fill="#73CBCA"/>
<path d="M0.427814 5.31445L0.309204 6.36427V6.14357L0.402888 5.31445H0.427814Z" fill="#73CBCA"/>
<path d="M0.452781 5.31445L0.309204 6.58498V6.36428L0.427815 5.31445H0.452781ZM0.477707 5.31445L0.309204 6.80565V6.58498L0.452781 5.31445H0.477707V5.31445Z" fill="#72C9C9"/>
<path d="M0.502633 5.31445L0.309204 7.02636V6.80565L0.477707 5.31445H0.502633V5.31445Z" fill="#70CACA"/>
<path d="M0.52756 5.31445L0.309204 7.24707V7.02636L0.502633 5.31445H0.52756V5.31445Z" fill="#70CACA"/>
<path d="M0.552527 5.31445L0.311637 7.44633L0.309204 7.44605V7.24708L0.527561 5.31445H0.552527V5.31445Z" fill="#6FCAC8"/>
<path d="M0.577461 5.31445L0.336412 7.44764H0.323211L0.311646 7.44632L0.552535 5.31445H0.577461V5.31445Z" fill="#6EC8C8"/>
<path d="M0.602402 5.31445L0.361392 7.44764H0.336426L0.577476 5.31445H0.602402Z" fill="#6EC8C8"/>
<path d="M0.627303 5.31445L0.386255 7.44764H0.361328L0.602337 5.31445H0.627303Z" fill="#6CC9C9"/>
<path d="M0.652327 5.31445L0.411279 7.44764H0.386353L0.627401 5.31445H0.652327Z" fill="#6DC9C8"/>
<path d="M0.67723 5.31445L0.436221 7.44764H0.411255L0.652303 5.31445H0.67723V5.31445Z" fill="#69C7C8"/>
<path d="M0.702216 5.31445L0.461206 7.44764H0.436279L0.677289 5.31445H0.702216Z" fill="#69C7C8"/>
<path d="M0.727156 5.31445L0.486108 7.44764H0.461182L0.70219 5.31445H0.727156V5.31445Z" fill="#69C8C7"/>
<path d="M0.752058 5.31445L0.51101 7.44764H0.486084L0.727132 5.31445H0.752058V5.31445Z" fill="#68C8C7"/>
<path d="M0.776963 5.31445L0.535953 7.44764H0.510986L0.752036 5.31445H0.776963V5.31445Z" fill="#67C7C7"/>
<path d="M0.801824 5.31445L0.560815 7.44764H0.535889L0.776898 5.31445H0.801824V5.31445Z" fill="#65C7C7"/>
<path d="M0.826765 5.31445L0.585717 7.44764H0.560791L0.801799 5.31445H0.826765V5.31445Z" fill="#64C7C7"/>
<path d="M0.851668 5.31445L0.61062 7.44764H0.585693L0.826741 5.31445H0.851668V5.31445Z" fill="#63C6C6"/>
<path d="M0.876693 5.31445L0.635684 7.44764H0.610718L0.851767 5.31445H0.876693V5.31445Z" fill="#60C6C6"/>
<path d="M0.901555 5.31445L0.660546 7.44764H0.63562L0.876628 5.31445H0.901555V5.31445Z" fill="#60C6C5"/>
<path d="M0.926498 5.31445L0.685449 7.44764H0.660522L0.901531 5.31445H0.926498V5.31445Z" fill="#5FC6C5"/>
<path d="M0.951522 5.31445L0.710473 7.44764H0.685547L0.926596 5.31445H0.951522V5.31445Z" fill="#5CC5C4"/>
<path d="M0.976425 5.31445L0.735416 7.44764H0.710449L0.951498 5.31445H0.976425V5.31445Z" fill="#5AC5C4"/>
<path d="M1.00141 5.31445L0.7604 7.44764H0.735474L0.976484 5.31445H1.00141V5.31445Z" fill="#5AC5C4"/>
<path d="M1.02635 5.31445L0.785302 7.44764H0.760376L1.00138 5.31445H1.02635V5.31445Z" fill="#57C4C4"/>
<path d="M1.05125 5.31445L0.810205 7.44764H0.785278L1.02633 5.31445H1.05125V5.31445Z" fill="#58C4C3"/>
<path d="M1.07616 5.31445L0.835147 7.44764H0.810181L1.05123 5.31445H1.07616V5.31445Z" fill="#55C4C3"/>
<path d="M1.10114 5.31445L0.860132 7.44764H0.835205L1.07621 5.31445H1.10114V5.31445Z" fill="#53C3C2"/>
<path d="M1.12608 5.31445L0.885034 7.44764H0.860107L1.10111 5.31445H1.12608V5.31445Z" fill="#52C3C2"/>
<path d="M1.15099 5.31445L0.909936 7.44764H0.88501L1.12606 5.31445H1.15099V5.31445Z" fill="#50C3C2"/>
<path d="M1.17589 5.31445L0.934879 7.44764H0.909912L1.15096 5.31445H1.17589Z" fill="#50C1C0"/>
<path d="M1.20091 5.31445L0.959863 7.44764H0.934937L1.17595 5.31445H1.20091V5.31445Z" fill="#4BC2C0"/>
<path d="M1.22582 5.31445L0.984766 7.44764H0.959839L1.20089 5.31445H1.22582V5.31445Z" fill="#4CC1C0"/>
<path d="M1.25084 5.31445L1.00979 7.44764H0.984863L1.22591 5.31445H1.25084V5.31445Z" fill="#47C1BE"/>
<path d="M1.27574 5.31445L1.03473 7.44764H1.00977L1.25081 5.31445H1.27574V5.31445Z" fill="#46C0BE"/>
<path d="M1.30065 5.31445L1.05959 7.44764H1.03467L1.27568 5.31445H1.30065V5.31445Z" fill="#43C0BE"/>
<path d="M1.32567 5.31445L1.08462 7.44764H1.05969L1.30074 5.31445H1.32567V5.31445Z" fill="#40BFBD"/>
<path d="M1.35057 5.31445L1.10956 7.44764H1.08459L1.32564 5.31445H1.35057V5.31445Z" fill="#3BBFBD"/>
<path d="M1.37543 5.31445L1.13442 7.44764H1.1095L1.35051 5.31445H1.37543V5.31445Z" fill="#39BFBC"/>
<path d="M1.40037 5.31445L1.15933 7.44764H1.1344L1.37541 5.31445H1.40037V5.31445Z" fill="#34BEBD"/>
<path d="M1.42528 5.31445L1.18423 7.44764H1.1593L1.40035 5.31445H1.42528V5.31445Z" fill="#32BEBB"/>
<path d="M1.45018 5.31445L1.20917 7.44764H1.1842L1.42525 5.31445H1.45018V5.31445Z" fill="#2DBDBB"/>
<path d="M1.47516 5.31445L1.23415 7.44764H1.20923L1.45024 5.31445H1.47516V5.31445Z" fill="#24BCBB"/>
<path d="M1.50011 5.31445L1.25906 7.44764H1.23413L1.47514 5.31445H1.50011V5.31445Z" fill="#21BCB9"/>
<path d="M1.525 5.31445L1.28396 7.44764H1.25903L1.50008 5.31445H1.525V5.31445Z" fill="#18BBB9"/>
<path d="M1.54991 5.31445L1.3089 7.44764H1.28394L1.52499 5.31445H1.54991V5.31445Z" fill="#0FBAB9"/>
<path d="M1.57489 5.31445L1.33389 7.44764H1.30896L1.54997 5.31445H1.57489V5.31445Z" fill="#03BBB8"/>
<path d="M1.59984 5.31445L1.35879 7.44764H1.33386L1.57487 5.31445H1.59984V5.31445Z" fill="#06B8B6"/>
<path d="M1.62486 5.31445L1.38381 7.44764H1.35889L1.59993 5.31445H1.62486V5.31445Z" fill="#06B8B6"/>
<path d="M1.64977 5.31445L1.40876 7.44764H1.38379L1.62484 5.31445H1.64977Z" fill="#03B7B5"/>
<path d="M1.67463 5.31445L1.43362 7.44764H1.40869L1.6497 5.31445H1.67463V5.31445Z" fill="#04B7B4"/>
<path d="M1.69969 5.31445L1.45864 7.44764H1.43372L1.67472 5.31445H1.69969Z" fill="#00B6B5"/>
<path d="M1.7246 5.31445L1.48354 7.44764H1.45862L1.69967 5.31445H1.7246V5.31445Z" fill="#03B6B4"/>
<path d="M1.74949 5.31445L1.50849 7.44764H1.48352L1.72457 5.31445H1.74949V5.31445Z" fill="#05B6B2"/>
<path d="M1.77448 5.31445L1.53347 7.44764H1.50854L1.74955 5.31445H1.77448V5.31445Z" fill="#01B5B1"/>
<path d="M1.79942 5.31445L1.55837 7.44764H1.53345L1.77446 5.31445H1.79942V5.31445Z" fill="#01B5B1"/>
<path d="M1.82432 5.31445L1.58328 7.44764H1.55835L1.7994 5.31445H1.82432V5.31445Z" fill="#00B4B1"/>
<path d="M1.84923 5.31445L1.60822 7.44764H1.58325L1.8243 5.31445H1.84923V5.31445Z" fill="#00B3B0"/>
<path d="M1.87413 5.31445L1.63308 7.44764H1.60815L1.84916 5.31445H1.87413V5.31445Z" fill="#00B3B0"/>
<path d="M1.89903 5.31445L1.65798 7.44764H1.63306L1.87411 5.31445H1.89903V5.31445Z" fill="#00B2AF"/>
<path d="M1.92406 5.31445L1.68301 7.44764H1.65808L1.89913 5.31445H1.92406V5.31445Z" fill="#00B2AE"/>
<path d="M1.94896 5.31445L1.70795 7.44764H1.68298L1.92403 5.31445H1.94896V5.31445Z" fill="#00B1AE"/>
<path d="M1.97386 5.31445L1.73281 7.44764H1.70789L1.94889 5.31445H1.97386V5.31445Z" fill="#00B1AD"/>
<path d="M1.99889 5.31445L1.75784 7.44764H1.73291L1.97396 5.31445H1.99889V5.31445Z" fill="#00B0AC"/>
<path d="M2.02379 5.31445L1.78278 7.44764H1.75781L1.99886 5.31445H2.02379V5.31445Z" fill="#00AFAC"/>
<path d="M2.42849 5.31445L2.44245 5.31601V7.44764H1.78284L2.02384 5.31445H2.42849V5.31445Z" fill="#00AFAC"/>
<path d="M4.91608 6.10816L4.89905 5.74268H4.91608V6.10816Z" fill="#75CACA"/>
<path d="M4.91612 6.49218L4.88123 5.74268H4.89909L4.91612 6.10816V6.49218Z" fill="#74CBCA"/>
<path d="M4.9162 6.87621L4.8634 5.74268H4.88131L4.9162 6.49218V6.87621V6.87621Z" fill="#74CBCA"/>
<path d="M4.90384 6.99394L4.84558 5.74268H4.86345L4.91624 6.87621V6.99394H4.90384V6.99394Z" fill="#73CBCA"/>
<path d="M4.88583 6.99394L4.82756 5.74268H4.84547L4.90374 6.99394H4.88583ZM4.86796 6.99394L4.80969 5.74268H4.82756L4.88583 6.99394H4.86796Z" fill="#72C9C9"/>
<path d="M4.85001 6.99394L4.79175 5.74268H4.80965L4.86792 6.99394H4.85001Z" fill="#70CACA"/>
<path d="M4.8322 6.99394L4.77393 5.74268H4.79179L4.85007 6.99394H4.8322Z" fill="#6FCAC8"/>
<path d="M4.8143 6.99394L4.75598 5.74268H4.77389L4.83216 6.99394H4.8143Z" fill="#6EC8C8"/>
<path d="M4.79642 6.99394L4.73816 5.74268H4.75602L4.81433 6.99394H4.79642Z" fill="#6EC8C8"/>
<path d="M4.77852 6.99394L4.72021 5.74268H4.73812L4.79638 6.99394H4.77852Z" fill="#6CC9C9"/>
<path d="M4.76053 6.99394L4.70227 5.74268H4.72014L4.77844 6.99394H4.76053Z" fill="#6DC9C8"/>
<path d="M4.74276 6.99394L4.68445 5.74268H4.70236L4.76063 6.99394H4.74276Z" fill="#69C7C8"/>
<path d="M4.72489 6.99394L4.66663 5.74268H4.68449L4.74279 6.99394H4.72489Z" fill="#69C7C8"/>
<path d="M4.70699 6.99394L4.64868 5.74268H4.66659L4.72486 6.99394H4.70699Z" fill="#69C8C7"/>
<path d="M4.68913 6.99394L4.63086 5.74268H4.64873L4.70704 6.99394H4.68913Z" fill="#68C8C7"/>
<path d="M4.67123 6.99394L4.61292 5.74268H4.63083L4.68911 6.99394H4.67123Z" fill="#67C7C7"/>
<path d="M4.65336 6.99394L4.59509 5.74268H4.61296L4.67126 6.99394H4.65336Z" fill="#65C7C7"/>
<path d="M4.63542 6.99394L4.57715 5.74268H4.59502L4.65328 6.99394H4.63542Z" fill="#64C7C7"/>
<path d="M4.61747 6.99394L4.5592 5.74268H4.57711L4.63537 6.99394H4.61747Z" fill="#63C6C6"/>
<path d="M4.59965 6.99394L4.54138 5.74268H4.55925L4.61752 6.99394H4.59965Z" fill="#60C6C6"/>
<path d="M4.58183 6.99394L4.52356 5.74268H4.54147L4.59973 6.99394H4.58183Z" fill="#60C6C5"/>
<path d="M4.564 6.99394L4.50574 5.74268H4.5236L4.58187 6.99394H4.564Z" fill="#5FC6C5"/>
<path d="M4.54607 6.99394L4.48779 5.74268H4.5057L4.56398 6.99394H4.54607Z" fill="#5FC6C5"/>
<path d="M4.52812 6.99394L4.46985 5.74268H4.48772L4.54599 6.99394H4.52812Z" fill="#5CC5C4"/>
<path d="M4.51017 6.99394L4.4519 5.74268H4.46981L4.52808 6.99394H4.51017Z" fill="#5AC5C4"/>
<path d="M4.49235 6.99394L4.43408 5.74268H4.45195L4.51022 6.99394H4.49235Z" fill="#5AC5C4"/>
<path d="M4.47445 6.99394L4.41614 5.74268H4.43404L4.49231 6.99394H4.47445Z" fill="#57C4C4"/>
<path d="M4.45658 6.99394L4.39832 5.74268H4.41618L4.47449 6.99394H4.45658Z" fill="#58C4C3"/>
<path d="M4.43868 6.99394L4.38037 5.74268H4.39828L4.45655 6.99394H4.43868Z" fill="#55C4C3"/>
<path d="M4.4209 6.99394L4.36263 5.74268H4.3805L4.4388 6.99394H4.4209ZM4.40303 6.99394L4.34473 5.74268H4.36263L4.4209 6.99394H4.40303Z" fill="#53C3C2"/>
<path d="M4.38504 6.99394L4.32678 5.74268H4.34465L4.40295 6.99394H4.38504Z" fill="#52C3C2"/>
<path d="M4.36715 6.99394L4.30884 5.74268H4.32674L4.38501 6.99394H4.36715Z" fill="#50C3C2"/>
<path d="M4.34928 6.99394L4.29102 5.74268H4.30888L4.36719 6.99394H4.34928Z" fill="#50C1C0"/>
<path d="M4.33137 6.99394L4.27307 5.74268H4.29098L4.34924 6.99394H4.33137Z" fill="#4DC2C1"/>
<path d="M4.31352 6.99394L4.25525 5.74268H4.27312L4.33142 6.99394H4.31352Z" fill="#4CC2C0"/>
<path d="M4.29558 6.99394L4.2373 5.74268H4.25517L4.31345 6.99394H4.29558Z" fill="#4BC0BF"/>
<path d="M4.27764 6.99394L4.21936 5.74268H4.23727L4.29555 6.99394H4.27764Z" fill="#47C1BE"/>
<path d="M4.2598 6.99394L4.20154 5.74268H4.2194L4.27767 6.99394H4.2598Z" fill="#46C0BE"/>
<path d="M4.24198 6.99394L4.18372 5.74268H4.20162L4.25989 6.99394H4.24198Z" fill="#43C0BE"/>
<path d="M4.22416 6.99394L4.16589 5.74268H4.18376L4.24203 6.99394H4.22416Z" fill="#41C0BE"/>
<path d="M4.20622 6.99394L4.14795 5.74268H4.16586L4.22413 6.99394H4.20622Z" fill="#40BFBD"/>
<path d="M4.18827 6.99394L4.13 5.74268H4.14787L4.20613 6.99394H4.18827Z" fill="#3BBFBD"/>
<path d="M4.17032 6.99394L4.11206 5.74268H4.12997L4.18823 6.99394H4.17032Z" fill="#3CBFBC"/>
<path d="M4.1525 6.99394L4.09424 5.74268H4.1121L4.17037 6.99394H4.1525Z" fill="#39BFBC"/>
<path d="M4.13457 6.99394L4.07629 5.74268H4.0942L4.15248 6.99394H4.13457Z" fill="#34BEBD"/>
<path d="M4.11673 6.99394L4.05847 5.74268H4.07634L4.1346 6.99394H4.11673Z" fill="#32BEBB"/>
<path d="M4.09883 6.99394L4.04053 5.74268H4.05843L4.11669 6.99394H4.09883Z" fill="#2FBEBC"/>
<path d="M4.08098 6.99394L4.02271 5.74268H4.04057L4.09889 6.99394H4.08098Z" fill="#2DBDBB"/>
<path d="M4.0632 6.99394L4.00488 5.74268H4.02279L4.08107 6.99394H4.0632Z" fill="#2BBDBA"/>
<path d="M4.04521 6.99394L3.98694 5.74268H4.00481L4.06312 6.99394H4.04521Z" fill="#24BCBB"/>
<path d="M4.0273 6.99394L3.96899 5.74268H3.9869L4.04517 6.99394H4.0273Z" fill="#21BCB9"/>
<path d="M4.00944 6.99394L3.95117 5.74268H3.96904L4.02735 6.99394H4.00944V6.99394Z" fill="#18BBB9"/>
<path d="M3.99154 6.99394L3.93323 5.74268H3.95114L4.00941 6.99394H3.99154Z" fill="#16BAB9"/>
<path d="M3.97367 6.99394L3.91541 5.74268H3.93327L3.99158 6.99394H3.97367Z" fill="#11BAB7"/>
<path d="M3.95577 6.99394L3.89746 5.74268H3.91537L3.97364 6.99394H3.95577Z" fill="#03BBB8"/>
<path d="M3.93778 6.99394L3.87952 5.74268H3.89738L3.95569 6.99394H3.93778Z" fill="#06B8B6"/>
<path d="M3.91996 6.99394L3.86169 5.74268H3.87956L3.93783 6.99394H3.91996Z" fill="#06B8B6"/>
<path d="M3.90214 6.99394L3.84387 5.74268H3.86178L3.92005 6.99394H3.90214Z" fill="#06B8B6"/>
<path d="M3.88432 6.99394L3.82605 5.74268H3.84392L3.90219 6.99394H3.88432Z" fill="#00B7B6"/>
<path d="M3.86637 6.99394L3.80811 5.74268H3.82601L3.88428 6.99394H3.86637Z" fill="#03B7B5"/>
<path d="M3.84843 6.99394L3.79016 5.74268H3.80803L3.8663 6.99394H3.84843Z" fill="#04B7B4"/>
<path d="M3.83048 6.99394L3.77222 5.74268H3.79012L3.84839 6.99394H3.83048Z" fill="#00B6B5"/>
<path d="M3.81266 6.99394L3.75439 5.74268H3.77226L3.83053 6.99394H3.81266Z" fill="#00B6B5"/>
<path d="M3.79472 6.99394L3.73645 5.74268H3.75436L3.81263 6.99394H3.79472Z" fill="#00B6B5"/>
<path d="M3.77698 6.99394L3.71871 5.74268H3.73658L3.79485 6.99394H3.77698ZM3.75911 6.99394L3.70081 5.74268H3.71871L3.77698 6.99394H3.75911Z" fill="#03B6B4"/>
<path d="M3.74113 6.99394L3.68286 5.74268H3.70073L3.75904 6.99394H3.74113Z" fill="#05B6B2"/>
<path d="M3.7242 6.99394L3.66589 5.74268H3.6838L3.74207 6.99394H3.7242Z" fill="#01B5B1"/>
<path d="M3.70536 6.99394L3.66492 6.12519V5.74268H3.66496L3.72327 6.99394H3.70536V6.99394ZM3.68749 6.99394L3.66492 6.50921V6.12519L3.70536 6.99394H3.68749V6.99394Z" fill="#01B5B1"/>
<path d="M3.66958 6.99401L3.66492 6.8933V6.50928L3.68749 6.99401H3.66958Z" fill="#00B4B1"/>
<path d="M3.66492 6.89307L3.66958 6.99377H3.66492V6.89307Z" fill="#00B4B1"/>
<path d="M1.41877 5.73592L0.775269 6.38425L1.42356 7.02775L1.97202 7.02572L1.39687 6.4552L4.23686 6.44467L3.98795 6.69525L4.26218 6.69425L4.58395 6.37009L4.25979 6.04836L3.98556 6.04936L4.23634 6.29814L1.39636 6.30867L1.96719 5.73389L1.41877 5.73592V5.73592Z" fill="#244B5A"/>
</g>
<defs>
<clipPath id="clip0">
<rect y="5" width="16" height="6.85697" fill="white"/>
</clipPath>
</defs>
</svg>
