<svg width="16" height="16" viewBox="0 0 16 16" fill="none" xmlns="http://www.w3.org/2000/svg">
<path d="M8.42201 15.9235L7.99874 15.7788C7.99874 15.7788 8.05043 13.6209 7.27594 13.4661C6.7598 12.8672 7.35874 -11.934 9.2172 13.3834C9.2172 13.3834 8.57698 13.7034 8.46341 14.2508C8.33944 14.7877 8.42201 15.9235 8.42201 15.9235Z" fill="white"/>
<path d="M8.42201 15.9235L7.99874 15.7788C7.99874 15.7788 8.05043 13.6209 7.27594 13.4661C6.7598 12.8672 7.35874 -11.934 9.2172 13.3834C9.2172 13.3834 8.57698 13.7034 8.46341 14.2508C8.33944 14.7877 8.42201 15.9235 8.42201 15.9235Z" fill="#A6A385"/>
<path d="M8.6493 13.838C8.6493 13.838 12.3561 11.4012 11.4887 6.3314C10.6524 2.64547 8.68029 1.43741 8.46345 0.97274C8.22602 0.642335 7.99878 0.064209 7.99878 0.064209L8.15374 10.317C8.15374 10.3274 7.83363 13.4559 8.64941 13.8381" fill="white"/>
<path d="M8.6493 13.838C8.6493 13.838 12.3561 11.4012 11.4887 6.3314C10.6524 2.64547 8.68029 1.43741 8.46345 0.97274C8.22602 0.642335 7.99878 0.064209 7.99878 0.064209L8.15374 10.317C8.15374 10.3274 7.83363 13.4559 8.64941 13.8381" fill="#499D4A"/>
<path d="M7.78202 13.972C7.78202 13.972 4.3023 11.5972 4.50884 7.4156C4.70498 3.23389 7.16238 1.17918 7.63735 0.807488C7.94717 0.477083 7.95746 0.353111 7.97816 0.0227051C8.195 0.487376 8.15371 6.97163 8.18459 7.7356C8.27746 10.6783 8.01945 13.4146 7.78202 13.972Z" fill="white"/>
<path d="M7.78202 13.972C7.78202 13.972 4.3023 11.5972 4.50884 7.4156C4.70498 3.23389 7.16238 1.17918 7.63735 0.807488C7.94717 0.477083 7.95746 0.353111 7.97816 0.0227051C8.195 0.487376 8.15371 6.97163 8.18459 7.7356C8.27746 10.6783 8.01945 13.4146 7.78202 13.972Z" fill="#58AA50"/>
</svg>
