<svg xmlns="http://www.w3.org/2000/svg" width="32" height="32" viewBox="0 0 32 32">
  <g fill="none">
    <path fill="#14A7DF" d="M15.44,4.16 C21.68,4.16 26.72,9.2 26.72,15.44 C26.72,21.68 21.68,26.72 15.44,26.72 C9.2,26.72 4.16,21.68 4.16,15.44 C4.16,9.2 9.2,4.16 15.44,4.16 M15.44,0 C6.88,0 0,6.96 0,15.44 C0,24 6.88,30.88 15.44,30.88 C24,30.88 30.88,24 30.88,15.44 C30.88,6.96 24,0 15.44,0"/>
    <path fill="#3EBEB0" d="M30.48 32C30.08 32 29.68 31.84 29.36 31.52L23.76 25.92C23.12 25.28 23.12 24.32 23.76 23.76 24.4 23.12 25.36 23.12 25.92 23.76L31.52 29.36C32.16 30 32.16 30.96 31.52 31.52 31.28 31.84 30.88 32 30.48 32zM21.28 11.92L9.6 11.92C9.04 11.92 8.56 11.44 8.56 10.88 8.56 10.32 9.04 9.84 9.6 9.84L21.28 9.84C21.84 9.84 22.32 10.32 22.32 10.88 22.32 11.52 21.84 11.92 21.28 11.92zM21.28 16.48L9.6 16.48C9.04 16.48 8.56 16 8.56 15.44 8.56 14.88 9.04 14.4 9.6 14.4L21.28 14.4C21.84 14.4 22.32 14.88 22.32 15.44 22.32 16 21.84 16.48 21.28 16.48zM21.28 21.04L9.6 21.04C9.04 21.04 8.56 20.56 8.56 20 8.56 19.44 9.04 18.96 9.6 18.96L21.28 18.96C21.84 18.96 22.32 19.44 22.32 20 22.32 20.56 21.84 21.04 21.28 21.04z"/>
    <path fill="#07A5DE" d="M11.68 15.44C11.68 16.64 10.72 17.52 9.6 17.52 8.4 17.52 7.52 16.56 7.52 15.44 7.52 14.24 8.48 13.36 9.6 13.36 10.72 13.36 11.68 14.32 11.68 15.44M17.52 10.88C17.52 12.08 16.56 12.96 15.44 12.96 14.24 12.96 13.36 12 13.36 10.88 13.36 9.68 14.32 8.8 15.44 8.8 16.56 8.8 17.52 9.76 17.52 10.88M23.36 20C23.36 21.2 22.4 22.08 21.28 22.08 20.08 22.08 19.2 21.12 19.2 20 19.2 18.8 20.16 17.92 21.28 17.92 22.48 17.92 23.36 18.8 23.36 20"/>
  </g>
</svg>
