<svg width="342" height="268" fill="none" xmlns="http://www.w3.org/2000/svg"><path d="M185.068 166.907v36.976h11.573v-9.786c0-1.954.797-3.828 2.216-5.211a7.683 7.683 0 0 1 5.352-2.163 7.683 7.683 0 0 1 5.352 2.163 7.276 7.276 0 0 1 2.216 5.211v9.745h12.048v-36.935h-38.757z" fill="#7DE2D1"/><path d="M197.759 60.292a1.12 1.12 0 0 0 1.385-.195c.251-.292.184-.642-.167-.942a1.57 1.57 0 0 0-.751-.406.208.208 0 0 0 0-.163c-.091-.154-.509-.146-.617-.073-.109.073-.267.309-.175.471.017.03.041.057.07.078a.265.265 0 0 0 .097.044 1.26 1.26 0 0 0 .158 1.186zM210.141 79.71a1.32 1.32 0 0 0-.587-.612 1.385 1.385 0 0 0-.848-.144c.326.878.634 1.755.926 2.64h.109a1.27 1.27 0 0 0 .431-.351 1.214 1.214 0 0 0 .222-1.045 1.224 1.224 0 0 0-.253-.488zM185.794 43.23c.492 0 .684-.326.718-.813-.309-.244-.626-.568-1.035-.244a.799.799 0 0 0-.15.69.595.595 0 0 0 .185.242.627.627 0 0 0 .282.124zM208.523 47.51a.405.405 0 0 0 .127-.52.423.423 0 0 0-.127-.147c-.276-.211-.584-.333-.893-.049a.8.8 0 0 0 0 .983c.142.187.601.049.893-.268zM214.831 65.782a.672.672 0 0 0-.206.479.664.664 0 0 0 .206.48.762.762 0 0 0 .552.276.786.786 0 0 0 .583-.211.724.724 0 0 0 .153-.861.75.75 0 0 0-.195-.244.937.937 0 0 0-1.093.08zM213.596 65.36c.041-.171-.217-.35-.359-.374-.142-.024-.484.114-.517.325-.034.21.342.365.459.349a.5.5 0 0 0 .417-.3zM212.745 73.31a.848.848 0 0 0 1.159-.09.742.742 0 0 0 .125-.874.746.746 0 0 0-.208-.238.85.85 0 0 0-1.076.081.739.739 0 0 0-.189.867.737.737 0 0 0 .189.254zM186.562 46.429c-.067.303-.009.62.163.882.172.262.443.447.755.515a13.44 13.44 0 0 1 2.136.715c.542.276 1.385.203 1.552-.171a.86.86 0 0 0-.071-.551.889.889 0 0 0-.397-.4c-.542-.105-.484-.503-.676-.811a2.473 2.473 0 0 0-.784-.683c-.206-.1-.43-.164-.659-.186a5.138 5.138 0 0 0-.701-.082c-.768-.056-1.193.195-1.318.772zM198.251 47.241c-.369.037-.71.213-.948.49a1.358 1.358 0 0 0-.328.996c.018.303.14.591.345.82.206.227.483.382.79.44.542.105 1.076-.61 1.243-1.35a1.324 1.324 0 0 0-.284-.897 1.392 1.392 0 0 0-.818-.499zM201.931 64.418a1.224 1.224 0 0 0 0-1.624 1.285 1.285 0 0 0-1.669-.081.707.707 0 0 0-.117.178.72.72 0 0 0-.308.6c.317.399.617.813.926 1.21a1.257 1.257 0 0 0 1.168-.283zM187.296 51.724a.308.308 0 0 0-.109-.154 5.23 5.23 0 0 0-.834-.488l.943.642zM192.536 53.438a.795.795 0 0 0-.267.73 1.045 1.045 0 0 0-.718.325c-.1.09-.183.179-.275.268.484.398.968.812 1.435 1.218a.77.77 0 0 0 .347-.139.74.74 0 0 0 .304-.642.711.711 0 0 0-.117-.347.408.408 0 0 0-.075-.146.726.726 0 0 0 .334-.171c.172-.232.309-.486.409-.755l-.835-.748c-.192.121-.373.257-.542.407zM199.979 54.786c-.626-.52-1.093-.569-1.494-.138a1.184 1.184 0 0 0 .15 1.42 1.42 1.42 0 0 0 1.486-.259.676.676 0 0 0-.142-1.023zM215.64 67.966c.229.2.527.305.834.293.301 0 .434-.642.192-.894a1.401 1.401 0 0 0-.584-.26c-.501.301-.676.666-.442.861zM187.705 43.668a1.082 1.082 0 0 0 0 1.43.972.972 0 0 0 1.193.106c.567-.513.734-1.187.384-1.544a1.3 1.3 0 0 0-1.577.008zM190.392 40.89c-.209-.446-.359-.942-1.002-.739a.783.783 0 0 0-.466.293.744.744 0 0 0-.151.52c0 .154.083.373.2.422a9.19 9.19 0 0 0 1.101.365c.359.812.935 1.3 1.461 1.096.283-.17.503-.425.625-.726.124-.301.145-.633.059-.947-.225-.625-.584-.682-1.827-.284zM212.027 71.743a.976.976 0 0 0-1.086-.484.973.973 0 0 0-.382.183c-.534.333-.718.812-.451 1.227.213.253.505.432.832.508.327.077.671.046.979-.086a1.068 1.068 0 0 0 .108-1.348zM213.02 53.413a.696.696 0 0 0 .162-.548.682.682 0 0 0-.103-.274.71.71 0 0 0-.209-.21c-.367-.324-.768-.373-.968-.113a1.206 1.206 0 0 0 .042 1.291.768.768 0 0 0 .569.145.773.773 0 0 0 .507-.29zM213.179 45.804a.578.578 0 0 0 .176-.728.597.597 0 0 0-.176-.206.747.747 0 0 0-.539-.225.757.757 0 0 0-.538.225.743.743 0 0 0 0 .974.777.777 0 0 0 1.077-.04zM210.684 66.025a.676.676 0 0 0-.217.666c-.15.106-.301.212-.442.333a1.435 1.435 0 0 0-.092 1.722c.208.284.475.43.776.284a4.271 4.271 0 0 0 1.986-1.535c.057-.12.094-.25.108-.381 0-.812-.517-1.219-1.176-1.064a.738.738 0 0 0-.943-.025zM212.987 41.272a.682.682 0 0 0 0-.666c-.1-.13-.651-.333-.835-.195-.183.138 0 .658.084.731.083.073.609.276.751.13zM209.566 61.478a.908.908 0 0 0 1.176-.09.678.678 0 0 0-.058-.958.758.758 0 0 0-.576-.257.781.781 0 0 0-.576.257.8.8 0 0 0 .034 1.048zM211.16 51.61c.1-.13.284-.398.134-.511a.53.53 0 0 0-.527 0c-.108.08-.292.479-.133.593a.514.514 0 0 0 .526-.082zM208.481 54.778a.59.59 0 0 0 .534-.228.58.58 0 0 0-.175-.544.667.667 0 0 0-.685.114c-.125.178.167.6.326.658zM212.812 60.333c-.209.267-.359.56-.067.869a.92.92 0 0 0 1.101-.147c.084-.235-.092-.511-.267-.722a.468.468 0 0 0-.767 0zM216.074 59.13c.175-.121.567-.511.317-.877-.25-.365-.701-.105-.835 0a.676.676 0 0 0-.2.625.473.473 0 0 0 .296.297.498.498 0 0 0 .422-.044zM213.579 63.345c.284.18 1.21-.316 1.126-.747a.737.737 0 0 0-.311-.425.775.775 0 0 0-.523-.119c-.434.114-.542 1.12-.292 1.291zM212.327 80.514c.292-.155.326-.569.309-.812-.017-.244-.484-.415-.784-.268-.301.146-.451.52-.267.755.183.235.442.487.742.325zM217.151 56.231a.462.462 0 0 0 0-.479.47.47 0 0 0-.476 0c-.1.09-.301.447-.117.577a.56.56 0 0 0 .593-.098zM218.544 75.592c.317-1.153-.835-1.161-.835-1.526 0-.366.401-1 .426-1.544 0-.812-.376-1.478-1.21-1.42a1.34 1.34 0 0 0-1.019.407 1.288 1.288 0 0 0-.358 1.013c0 1.08 1.143.861.893 1.535-.25.674-.768.163-1.051 1.13-.284.966.409 1.778 1.101 1.575.693-.203.793-.812.968-.812.175 0 .934.186 1.085-.358zM214.522 69.843a.545.545 0 0 0 .621.264.545.545 0 0 0 .213-.11.956.956 0 0 0 .309-.674c0-.211-.651-.593-.951-.423a.692.692 0 0 0-.292.434.674.674 0 0 0 .1.508zM214.389 52.268c.05-.049 0-.227-.05-.268-.05-.04-.201-.073-.268 0a.217.217 0 0 0-.054.072.201.201 0 0 0-.019.086c0 .03.006.06.019.087a.217.217 0 0 0 .054.072.248.248 0 0 0 .318-.049zM214.84 50.449c.092-.097 0-.463-.126-.593a.46.46 0 0 0-.401 0 .579.579 0 0 0-.058.487c.067.082.501.195.585.106zM212.086 77.882a.943.943 0 0 0 .515.5.985.985 0 0 0 .728.004c.21-.128.376-.315.475-.536a.544.544 0 0 0 .209.057c.501-.04.634-.642.542-.885a.674.674 0 0 0-.378-.252.693.693 0 0 0-.456.04 1.43 1.43 0 0 0-1.519-.268c-.333.195-.392.853-.116 1.34zM180.054 41.158a.92.92 0 0 0-.897-.487.94.94 0 0 0-.347.098.944.944 0 0 0-.263.686.917.917 0 0 0 .322.662.636.636 0 0 0 .901 0 .81.81 0 0 0 .31-.432.787.787 0 0 0-.026-.527zM220.179 65.684c-.15.057-.517.325-.392.634.125.308.617.17.751.09.133-.082.375-.318.233-.561a.469.469 0 0 0-.265-.187.488.488 0 0 0-.327.024zM218.844 62.387c.267-.268-.192-1.056-.434-1.267a.848.848 0 0 0-1.001 0c-.267.268 0 .812.175 1.089.175.276.993.446 1.26.178zM220.354 71.37c-.384.194-.5 1.006-.225 1.51a.912.912 0 0 0 .535.478.956.956 0 0 0 .725-.04c.265-.141.47-.37.575-.647.106-.276.106-.58.001-.855a1.337 1.337 0 0 0-.725-.5 1.37 1.37 0 0 0-.886.053zM219.712 64.572c.342 0 .909-.642.742-.991-.241-.487-.567-.723-1.109-.284-.543.438.016 1.275.367 1.275zM169.691 43.172a.995.995 0 0 0 .091-1.47 1.308 1.308 0 0 0-1.668-.105 1.34 1.34 0 0 0 0 1.177l1.501.415.076-.017zM215.99 83.81c-.272.24-.454.56-.521.911a1.59 1.59 0 0 0 .154 1.03 1.07 1.07 0 0 0 1.435.065c.61-.397.693-.811.276-1.485a1.084 1.084 0 0 0-.571-.507 1.12 1.12 0 0 0-.773-.013zM217.501 80.895c-.559-.308-.885-.08-.96-.292-.075-.211.042-.747-.35-.918-.393-.17-1.352.674-1.427.87-.075.194 0 .811-.476.811-.475 0-.834-.365-1.285-.13-.45.236-1.376.748-1.301 1.462.075.715.692.488 1.034.723a.992.992 0 0 0 1.294-.13c.367-.406.509-.974.759-1.096.25-.122.592-.179.743.203.15.382.767.69 1.568.325.801-.366.951-1.51.401-1.828zM223.233 75.438a.576.576 0 0 0 .264-.404.577.577 0 0 0-.022-.244.575.575 0 0 0-.125-.213.47.47 0 0 0-.367-.238.487.487 0 0 0-.409.157c-.184.162-.634.617-.417.877.216.26.851.154 1.076.065zM223.45 71.052c.042-.105.1-.194.084-.268-.017-.073-.192-.097-.209-.08-.017.016-.184.17-.142.267.042.098.159.049.267.081zM225.252 82.024a1.262 1.262 0 0 0-.743-.609 1.308 1.308 0 0 0-.968.081c-.349.197-.614.51-.744.882a1.59 1.59 0 0 0 .035 1.14c.219.313.543.542.916.647.373.106.772.08 1.128-.07.676-.284.835-1.17.376-2.07zM226.228 77.379c-.317.276-.15.812 0 1.007.15.195.501.235.776.073.276-.162.434-.617.175-.812-.258-.195-.634-.552-.951-.268zM229.599 77.826a.907.907 0 0 0 .396-.486.88.88 0 0 0-.02-.619c-.184-.309-.835-.39-1.444-.065 0 .146-.158.43-.083.634a.896.896 0 0 0 .465.494c.214.1.46.115.686.042zM225.135 71.402c.384-.155.284-.812.401-1.113l-.175-.162a.728.728 0 0 0-.835.138.993.993 0 0 0-.392.52c.292.186.626.771 1.001.617zM225.636 76.543a.918.918 0 0 0 .701.162c.308-.09.4-.69.142-.91-.167-.1-.356-.16-.551-.178-.434.292-.542.722-.292.925zM224.869 63.419a.458.458 0 0 0 .093-.22.451.451 0 0 0-.034-.235.536.536 0 0 0-.493-.114.417.417 0 0 0-.22.413.395.395 0 0 0 .053.156c.183.251.476.08.601 0zM207.104 72.555a1.297 1.297 0 0 1-1.41-.195c.384.723.76 1.454 1.11 2.193.395-.15.718-.44.901-.812.117-.35.109-1.113-.601-1.186zM204.985 70.776a.931.931 0 0 0 0 .212c.183.324.35.657.526.982a1.29 1.29 0 0 0 1.051-.17c.217-.117.387-.301.481-.525.094-.223.107-.47.036-.702a1.423 1.423 0 0 0-.71-.512 1.461 1.461 0 0 0-.883-.007.568.568 0 0 0-.176.138 1.324 1.324 0 0 0-.091-.626 2.41 2.41 0 0 0-1.127-1.194 1.09 1.09 0 0 1-.417-.446c-.234-.544-.593-.812-1.06-.715.835 1.194 1.586 2.436 2.303 3.663l.067-.098zM203.642 66.756a.639.639 0 0 0 .503.167.646.646 0 0 0 .456-.264.793.793 0 0 0 .159-.52.531.531 0 0 0 .192-.057.77.77 0 0 0 .381-.43.746.746 0 0 0-.031-.569.877.877 0 0 0-.486-.395.905.905 0 0 0-.632.022.72.72 0 0 0-.305.352.692.692 0 0 0-.02.46.702.702 0 0 0-.378.188.671.671 0 0 0-.194.366.655.655 0 0 0 .061.408c.063.126.166.23.294.297v-.025zM202.382 59.975c.2-.292.425-.609.15-.86-.501-.415-.985-.44-1.26-.155a.805.805 0 0 0-.24.615.809.809 0 0 0 .307.587.713.713 0 0 0 .565.135.722.722 0 0 0 .478-.322zM202.24 57.441c.375-.463.108-.901-.092-1.315-.893-.049-1.227.08-1.343.544a.717.717 0 0 0 .342.812.85.85 0 0 0 1.093-.04zM202.882 50.06a1.155 1.155 0 0 0-.575.698.332.332 0 0 0 .067.298.36.36 0 0 0 .283.132c.234 0 .384-.179.534-.357.15-.179.325-.3.334-.536.008-.236-.342-.374-.643-.236zM204.985 61.169a1.927 1.927 0 0 0-.426.617c-.283-.317-.517-.763-1.084-.528a.717.717 0 0 0-.402.352.69.69 0 0 0-.041.525.926.926 0 0 0 .509.504c.393.13.643-.065.952-.674a.791.791 0 0 0 .167.812 1.457 1.457 0 0 0 1.668-.146 1.254 1.254 0 0 0-.15-1.438.985.985 0 0 0-1.193-.024zM207.321 66.196a1.046 1.046 0 0 0-.709-.56.856.856 0 0 0-.406.101.822.822 0 0 0-.303.28.547.547 0 0 0-.067.187l-.092.073c-.367.382-.275.902.25 1.365a.853.853 0 0 0 1.169.106 1.592 1.592 0 0 0 .158-1.527v-.025zM180.688 47.46c.409.252.667.082.893-.235.139-.252.336-.468.575-.634.559-.284 1.16-.487 1.777-.73 1.094 1.088 1.619 1.088 2.345-.074.099-.137.161-.296.182-.462a1.005 1.005 0 0 0-.36-.894 1.048 1.048 0 0 0-.456-.22 9.549 9.549 0 0 0-1.902 0c-.359-.576-.835-1.217-1.669-1.136-.268.052-.521.16-.742.316a1.88 1.88 0 0 0-.541.586 1.816 1.816 0 0 0-.144 1.534.79.79 0 0 1-.225.812.855.855 0 0 0-.089.618c.049.21.175.395.356.52zM206.512 68.811a.746.746 0 0 0 .117.658c.133.13.634.333.834.178.2-.154 0-.674-.083-.852a.534.534 0 0 0-.438-.209.543.543 0 0 0-.43.225zM195.373 58.059c.425.203 1.059 0 1.085-.382.012-.245.097-.482.246-.681a1.29 1.29 0 0 1 .588-.44 1.168 1.168 0 0 0 .284-1.332 1.636 1.636 0 0 0-1.594-.3c-.317.162-.768.357-.626.812a1.725 1.725 0 0 1-.267 1.462.583.583 0 0 0-.091.24.581.581 0 0 0 .375.62zM200.421 52.17a2.3 2.3 0 0 1-.584-.332 1.113 1.113 0 0 0-1.452-.114c-.484.309-.517.755.108 1.307.502.208 1.017.382 1.544.52a.72.72 0 0 0 .626-.146 1.844 1.844 0 0 0-.075 1.446c.214.296.537.5.902.572.365.07.744.002 1.058-.19.288-.219.494-.523.588-.866a1.586 1.586 0 0 0-.07-1.035 1.46 1.46 0 0 0-.826-.674 1.508 1.508 0 0 0-1.077.057 1.112 1.112 0 0 0-.275.276.658.658 0 0 0-.063-.502.689.689 0 0 0-.404-.318zM181.923 30.86a.9.9 0 0 0 .05-1.088.756.756 0 0 0-1.002 0 .8.8 0 0 0-.058 1.064.85.85 0 0 0 1.01.025zM190.041 52.536a1.787 1.787 0 0 0 0-1.584c-.334-.34-1.051-.21-1.527.269s-.392.812.167 1.34a.956.956 0 0 0 1.054.19.937.937 0 0 0 .306-.215zM184.96 49.426c.233-.203 0-.983-.543-1.137a.855.855 0 0 0-.692.219.675.675 0 0 0-.067.853l.542.333c.278 0 .547-.095.76-.268zM209.633 64.604c.055-.072.105-.148.15-.227.182.001.363-.04.527-.118.164-.08.306-.195.416-.337.342-.463-.234-.983-.518-1.072-.125 0-.308.179-.459.447a1.37 1.37 0 0 0-.133-.17 1.064 1.064 0 0 0-1.369-.114 1.437 1.437 0 0 0 .134 1.802.955.955 0 0 0 1.252-.21zM207.38 74.398c-.181.112-.33.265-.434.447.328.698.645 1.405.951 2.12.316.047.639-.01.918-.163l.15-.105a.262.262 0 0 0 .309 0c.05-.057 0-.236-.05-.276a1.12 1.12 0 0 0 .1-1.202 1.652 1.652 0 0 0-.821-.75 1.712 1.712 0 0 0-1.123-.07zM198.393 38.113c.234.13.885.35 1.093.138.209-.211-.192-.812-.367-1.007-.175-.195-.534-.211-.759.105-.225.317-.284.585.033.764zM211.752 90.852c.067.471.133.942.192 1.413a.764.764 0 0 0 .3-.114c.17-.1.293-.263.341-.451a.718.718 0 0 0-.082-.556.841.841 0 0 0-.751-.292zM213.955 93.784a1.516 1.516 0 0 0-.201 2.022 1.06 1.06 0 0 0 .721.48 1.08 1.08 0 0 0 .848-.204c.884-.65.834-.99.384-1.933a1.245 1.245 0 0 0-.796-.546 1.253 1.253 0 0 0-.956.18zM213.621 88.14a.78.78 0 0 0 .398-.281.75.75 0 0 0 .144-.459c0-.454-.342-.706-.734-.91a.798.798 0 0 0-.659-.056.97.97 0 0 0-.059-.983.586.586 0 0 0-.4-.284.623.623 0 0 0-.484.106 1.179 1.179 0 0 0-.493.763.815.815 0 0 0 .68.743.854.854 0 0 0 .363-.012c-.196.21-.43.38-.692.504a.872.872 0 0 0-.325.657v.39c.1.528.208 1.056.292 1.624a.84.84 0 0 0 .283.114c.651.13 1.018 0 1.16-.633.038-.351.038-.705 0-1.056l.526-.228zM155.297 38.47a.834.834 0 0 0 0-1.08 1.093 1.093 0 0 0-1.36-.162 1.193 1.193 0 0 0-.192 1.445c.343.35 1.035.252 1.552-.203zM216.107 89.715a1.488 1.488 0 0 0-.82-.52 1.527 1.527 0 0 0-.974.09 1.451 1.451 0 0 0-.47.363 1.395 1.395 0 0 0-.122 1.65c.131.235.343.416.597.512.256.097.538.103.796.016.019.053.044.101.075.147a1.492 1.492 0 0 0 1.836.3c.275-.166.483-.42.591-.717.107-.297.108-.621.001-.92a1.387 1.387 0 0 0-.589-.718 1.46 1.46 0 0 0-.921-.203zM219.712 79.677c.434-.081.517-1.056.058-1.567a.754.754 0 0 0-.46-.276.771.771 0 0 0-.533.097c-.475.228-.834.812-.676 1.194.334.73 1.177.625 1.611.552zM220.888 85.573a.572.572 0 0 0 .242-.654.554.554 0 0 0-.125-.215.714.714 0 0 0-.448-.325.75.75 0 0 0-.553.082.658.658 0 0 0-.291.436.63.63 0 0 0 .132.506.85.85 0 0 0 1.043.17zM217.075 86.84a.641.641 0 0 0-.358.38.619.619 0 0 0 .058.513.764.764 0 0 0 .427.386c.188.07.397.066.582-.012a.73.73 0 0 0 .22-.195.685.685 0 0 0 .122-.264.688.688 0 0 0-.108-.556.669.669 0 0 0-.416-.323.694.694 0 0 0-.527.071zM160.462 35.108c0-.471.175-.934-.35-1.161a.668.668 0 0 0-.723.067.626.626 0 0 0-.162.192.797.797 0 0 0-.075.707c.284.512.776.447 1.31.195zM169.942 25.281c.242-.186 0-.463-.126-.584a.45.45 0 0 0-.409 0 .58.58 0 0 0-.05.487.438.438 0 0 0 .585.097zM167.922 39.096c.333.316.834-.065 1.093-.195.258-.13.25-.577 0-.813-.251-.235-.634-.324-.835 0-.2.325-.6.69-.258 1.008zM169.832 28.05a.421.421 0 0 0 .343.105.428.428 0 0 0 .3-.194.44.44 0 0 0-.109-.56.416.416 0 0 0-.559 0 .414.414 0 0 0-.149.33.424.424 0 0 0 .174.319zM168.882 30.495c.1-.13.276-.398.134-.503a.523.523 0 0 0-.535 0c-.1.08-.284.487-.134.592a.51.51 0 0 0 .535-.089zM162.823 40.216a1.257 1.257 0 0 0-.045-1.807 1.328 1.328 0 0 0-.938-.352 1.347 1.347 0 0 0-.919.397 1.41 1.41 0 0 0 .384 1.917 1.042 1.042 0 0 0 .794.248c.143-.014.281-.058.406-.127.125-.07.233-.163.318-.276zM173.62 37.447a1.44 1.44 0 0 0-.141-2.039 1.587 1.587 0 0 0-1.853.163 1.304 1.304 0 0 0-.262 1.013 1.31 1.31 0 0 0 .579.88 1.142 1.142 0 0 0 1.677-.016zM165.952 32.184c.393-.398.276-.682.067-.893-.208-.211-.576-.341-.776 0a.792.792 0 0 0 0 .771c.125.13.526.09.709.122zM166.461 35.912c-.834.763-.834.893 0 1.43.568-.187.676-.577.501-1.121 1.218-.715 1.127-1.51-.192-2.234a1.687 1.687 0 0 1 0-.284c.1-.398-.125-.61-.45-.812a.746.746 0 0 0-.835.122c-.659.47-.717.812-.183 1.453.392.504.776.983 1.159 1.446zM227.588 94.831a.605.605 0 0 0-.221.124.569.569 0 0 0-.129.689.674.674 0 0 0 .4.334.707.707 0 0 0 .526-.042.572.572 0 0 0 .277-.597.561.561 0 0 0-.085-.215.55.55 0 0 0-.318-.31.567.567 0 0 0-.45.017zM227.513 80.53c-.235.12-.414.323-.501.567a.99.99 0 0 0 .034.749c.218.27.522.46.865.539a1.6 1.6 0 0 0 1.021-.1 1.1 1.1 0 0 0 .114-1.508 1.16 1.16 0 0 0-.717-.413 1.179 1.179 0 0 0-.816.166zM223.975 86.199c-.202.136-.358.33-.444.555-.086.225-.1.47-.039.703.225.398.942.455 1.518.122a.574.574 0 0 0 .189-.148.53.53 0 0 0 .106-.212.535.535 0 0 0-.086-.452c-.209-.495-.885-.771-1.244-.568zM225.995 91.713a.853.853 0 0 0-.358.452.83.83 0 0 0 .016.571c.132.163.311.287.514.354.202.068.421.077.629.028.174-.151.293-.353.342-.574a1.05 1.05 0 0 0-.075-.66.793.793 0 0 0-1.068-.17zM226.988 84.038a.436.436 0 0 0-.171.207.428.428 0 0 0-.013.264.462.462 0 0 0 .501.13c.117-.048.392-.373.3-.528-.092-.154-.509-.146-.617-.073zM219.169 87.888c0 .576.292.877.968.885.284-.365.551-.755.117-1.105-.434-.349-.784-.113-1.085.22zM227.639 87.563c-.066-.122-.351-.122-.501-.081-.15.04-.317.284-.217.47.1.188.468.074.601 0a.37.37 0 0 0 .116-.178.37.37 0 0 0 .001-.211zM224.217 89.285c-.3.08-.559.722-.45 1.088a.561.561 0 0 0 .592.386.574.574 0 0 0 .242-.078c.584-.219.901-.544.835-.812a1.285 1.285 0 0 0-.523-.462 1.326 1.326 0 0 0-.696-.122zM219.854 90.219a1.235 1.235 0 0 0-.101 1.275 1.109 1.109 0 0 0 1.202 0 .558.558 0 0 0 .183-.406.559.559 0 0 0-.183-.406c-.434-.488-.868-.65-1.101-.463zM222.841 92.785a1.275 1.275 0 0 0-.234 1.527c.196.152.433.247.683.273.25.026.502-.018.727-.127a.863.863 0 0 0 .217-1.056c-.434-.633-.984-.877-1.393-.617zM220.004 80.83a.7.7 0 0 0-.192.958.64.64 0 0 0 .396.359c.089.028.183.038.276.028a.675.675 0 0 0 .262-.086.726.726 0 0 0 .382-.428.683.683 0 0 0-.065-.563.83.83 0 0 0-.478-.326.854.854 0 0 0-.581.058zM219.511 94.523c-.584.308-.834.812-.55 1.177.202.21.457.365.74.448.283.083.583.09.87.023a.952.952 0 0 0 .437-.62.908.908 0 0 0-.17-.736c-.309-.609-.676-.609-1.327-.292zM221.431 99.079c-.201.081-.284.195-.201.406.084.211.218.276.426.178.209-.097.259-.21.176-.414a.258.258 0 0 0-.057-.108.28.28 0 0 0-.344-.062zM222.432 96.22a.526.526 0 0 0 .058.585c.134.114.418 0 .518-.146.101-.147.092-.423-.083-.512a.395.395 0 0 0-.493.073zM223.258 79.369c.659-.358.976-1 .709-1.422a1.387 1.387 0 0 0-.729-.396 1.412 1.412 0 0 0-.831.088 1.194 1.194 0 0 0-.353.674c-.041.256.004.518.128.747.122.156.292.27.486.325.194.056.4.05.59-.016zM196.641 42.742a.738.738 0 0 0 .134.69c.133.114.717.187.834 0 .117-.187-.075-.763-.184-.812-.217-.024-.7-.057-.784.122zM201.188 49.937c.267-.381.351-.755-.05-1.047a.665.665 0 0 0-.617 0 .818.818 0 0 0-.219.285.78.78 0 0 0-.073.348c.108.52.584.447.959.414zM208.931 57.051c.167-.226.257-.497.257-.775s-.09-.55-.257-.776c-.292-.26-1.134-.048-1.543.382a.85.85 0 0 0 .133 1.145 1.069 1.069 0 0 0 1.41.024zM200.129 42.474a1.005 1.005 0 0 0-.075-1.242 1.807 1.807 0 0 0-1.769-.041 1.24 1.24 0 0 0-.098.854c.07.288.241.542.482.721.475.382.976.276 1.46-.292zM199.336 33.297c-.1.081-.259.463-.133.585.125.122.534 0 .618-.098.083-.097.167-.373 0-.503a.384.384 0 0 0-.485.016zM199.479 28.05c.075 0 .209-.365.058-.51-.15-.147-.459.056-.576.153a.352.352 0 0 0-.066.207c0 .074.022.147.066.208.108.097.384.016.518-.057zM195.582 37.187c.05-.049 0-.227-.05-.268a.232.232 0 0 0-.268 0 .226.226 0 0 0-.066.158c0 .06.024.116.066.159a.248.248 0 0 0 .318-.049zM195.515 45.641a.75.75 0 0 0 .278.453.79.79 0 0 0 .514.164c.148.025.3-.007.424-.089a.569.569 0 0 0 .244-.35c.158-.551-.192-.811-.651-1.12-.434.26-.926.39-.809.942zM193.621 48.679c0 .47.584.641.133.99-.45.35-1.285 1.17-.517 1.9a1.325 1.325 0 0 0 1.56 0c-.014.221.024.442.111.646.087.204.22.386.39.532a1.498 1.498 0 0 0 1.91-.252 1.164 1.164 0 0 0-.075-1.624 1.98 1.98 0 0 0-1.844-.057.686.686 0 0 0 0-.576c-.217-.382.835-.601.534-1.145-.3-.544.259-1.056-.141-1.673-.401-.617-1.194-.975-1.611-.455a2.499 2.499 0 0 0-.45 1.714zM175.331 31.6a1.25 1.25 0 0 0 .158-1.681 1.203 1.203 0 0 0-1.451.235.996.996 0 0 0 .166 1.397.723.723 0 0 0 .552.286.743.743 0 0 0 .575-.237zM205.886 52.967a.5.5 0 0 0 .436.186.497.497 0 0 0 .398-.252c.109-.227.242-.487.117-.69a.919.919 0 0 0-1.093.09c-.217.276-.058.487.142.666zM205.068 36.545c.201.139.835.341.951.187.117-.154 0-.73-.133-.95-.134-.22-.551-.252-.834 0a.436.436 0 0 0-.155.606.45.45 0 0 0 .171.157zM203.859 47.842c.25-.286.384-.651.377-1.027a1.516 1.516 0 0 0-.419-1.011 1.702 1.702 0 0 0-2.036.08c-.127.141-.223.306-.281.484a1.307 1.307 0 0 0 .123 1.08c.097.16.227.3.383.41a1.279 1.279 0 0 0 1.435.28c.159-.07.301-.17.418-.296zM209.157 60.097c.135-.065.255-.155.354-.266.099-.11.174-.239.221-.378a1.092 1.092 0 0 0-.075-.85 1.723 1.723 0 0 0-.918-.704 1.78 1.78 0 0 0-1.168.021c-.257.178-.439.441-.512.74-.073.3-.029.614.12.885a1.37 1.37 0 0 0 .864.7 1.431 1.431 0 0 0 1.114-.148zM203.742 56.905a1.143 1.143 0 0 0 .584.682c.559.187.692-.333.951-.73-.342-.463-.684-.813-1.21-.553a.69.69 0 0 0-.325.6zM204.985 44.033a.562.562 0 0 0-.05.48.405.405 0 0 0 .268.175.428.428 0 0 0 .317-.062c.242-.187-.042-.463-.134-.585a.465.465 0 0 0-.401-.008zM205.819 50.514c.259-.187.184-.99-.1-1.088a.854.854 0 0 0-.759.138.575.575 0 0 0-.042.926.67.67 0 0 0 .901.024zM197.2 40.151a.678.678 0 0 0-.058-.958.757.757 0 0 0-.576-.257.778.778 0 0 0-.779.789c0 .195.072.384.203.532a.914.914 0 0 0 1.21-.106zM180.187 37.544c.35-.235.242-.812-.125-1.104a.691.691 0 0 0-.779-.04.667.667 0 0 0-.197.186.857.857 0 0 0 .25 1.178c.296-.018.585-.092.851-.22zM182.315 39.575c.55.487 1.001.536 1.393.146a1.25 1.25 0 0 0 .059-1.624 1.45 1.45 0 0 0-1.669.065 1.056 1.056 0 0 0 .217 1.413zM177.45 34.605a1.18 1.18 0 0 0 1.385-.187 1.034 1.034 0 0 0-.089-.708 1.083 1.083 0 0 0-.528-.494.854.854 0 0 0-.542.042.83.83 0 0 0-.401.36.8.8 0 0 0 .175.986zM182.073 26.418c.209-.108.377-.278.48-.485.104-.207.137-.441.095-.668a.796.796 0 0 0-.262-.592.86.86 0 0 0-.622-.22c-.375 0-1.143-.3-1.452.162-.309.463.15.666.225.918.184.69 1.018 1.161 1.536.885zM176.499 37.138a.803.803 0 0 0 .125 1.12.853.853 0 0 0 1.068-.104.795.795 0 0 0-.371-1.215.775.775 0 0 0-.822.2zM177.258 26.264a.727.727 0 0 0 0-.983.648.648 0 0 0-.74-.202.648.648 0 0 0-.228.145.751.751 0 0 0 0 .991.67.67 0 0 0 .473.227.687.687 0 0 0 .495-.178zM174.947 40.314c.401-.423.451-.926.117-1.21a2.033 2.033 0 0 0-1.669-.082 1.045 1.045 0 0 0-.264.813c.016.147.064.288.14.415.076.127.178.237.299.324.334.349.835.251 1.377-.26zM174.388 43.603v.122a2.04 2.04 0 0 0-.234-.553.492.492 0 0 0-.784-.097.563.563 0 0 0-.1.86c.211.145.46.23.717.244a.98.98 0 0 0-.158.423c.417.162.834.308 1.252.47a.913.913 0 0 0 .208-.251c.234-.455.601-.439 1.026-.52.292 1.113.935 1.413 1.828.918l.25-.17a.778.778 0 0 0 .299-.26.745.745 0 0 0 .052-.752.757.757 0 0 0-.259-.296 1.153 1.153 0 0 0-.762-.517 1.188 1.188 0 0 0-.907.192 3.14 3.14 0 0 1 .25-.771.693.693 0 0 0-.05-.975 1.028 1.028 0 0 0-.5-.393 1.064 1.064 0 0 0-.643-.03c-1.493.472-1.76.853-1.485 2.356zM190.283 33.971a1.288 1.288 0 0 0 1.669-.227 1.13 1.13 0 0 0-.242-1.555 1.207 1.207 0 0 0-1.61.125c-.2.244-.293.555-.258.865.034.31.192.595.441.792zM193.095 45.787c.292.3.701.22 1.11-.21.409-.431.5-.87.15-1.186a.974.974 0 0 0-1.427-.057 1.583 1.583 0 0 0 .167 1.453zM191.418 36.594a.725.725 0 0 0-.293.785.732.732 0 0 0 .134.263c.215.185.488.294.775.308a1.29 1.29 0 0 0 .802-.227.794.794 0 0 0 .042-1.153 1.103 1.103 0 0 0-1.46.024zM189.966 26.8a.597.597 0 0 0 .429-.086.572.572 0 0 0 .247-.353c.158-.552-.192-.812-.651-1.112-.434.252-.926.382-.834.934a.75.75 0 0 0 .284.458c.15.113.336.17.525.159zM185.235 36.927c.092-.105 0-.487-.15-.65a.374.374 0 0 0-.33-.19.371.371 0 0 0-.329.19c-.109.212-.351.813-.134.959.217.146.793-.138.943-.309zM184.784 32.363c.242.13.91.374 1.085.163.175-.212-.117-.813-.267-1.04-.15-.227-.667-.163-.876.114-.209.276-.25.593.058.763zM186.754 39.152a1.898 1.898 0 0 0 2.219.097c.227-.264.347-.6.34-.945a1.408 1.408 0 0 0-.382-.93 1.446 1.446 0 0 0-.943-.39 1.449 1.449 0 0 0-.967.325 1.373 1.373 0 0 0-.267 1.843zM186.988 28.213c.209-.146.05-.47 0-.503a.695.695 0 0 0-.493-.057c-.058 0-.117.34-.058.39.058.048.334.316.551.17z" fill="#ECF0F6"/><path d="M149.398 62.225c-10.643.002-20.85 4.118-28.376 11.443-7.526 7.326-11.755 17.26-11.757 27.62v25.809h21.51v-24.193c0-4.808 1.962-9.418 5.454-12.818 3.493-3.398 8.23-5.309 13.169-5.309 2.447 0 4.869.467 7.13 1.378a18.651 18.651 0 0 1 6.044 3.929 18.11 18.11 0 0 1 4.04 5.881 17.718 17.718 0 0 1 1.418 6.939v24.193h21.502v-25.809c0-10.36-4.228-20.296-11.755-27.622-7.527-7.326-17.734-11.441-28.379-11.441z" fill="#E6EBF2"/><path d="m167.88 100.654 21.694.106c0-10.255-4.186-20.09-11.636-27.34-7.449-7.252-17.553-11.325-28.089-11.325v22.69c4.46.105 8.733 1.764 12.042 4.677 3.31 2.912 5.435 6.884 5.989 11.192z" fill="#07C"/><path d="M42.347 218.997a.259.259 0 0 0-.1.203.258.258 0 0 0 .1.203c.117.089.434.3.585.138.15-.163 0-.455-.1-.496-.1-.04-.31-.227-.485-.048zM40.953 224.259l-.675.325c-.626-.309-1.31-.317-1.536 0a.678.678 0 0 0 .059.853c.409.487.676.511 1.368.203.445.184.902.338 1.369.463a.514.514 0 0 0 .53-.177.481.481 0 0 0 .029-.546c-.3-.422-.51-.958-1.144-1.121zM40.879 234.898a.573.573 0 0 0 .125.861.543.543 0 0 0 .429.166.547.547 0 0 0 .405-.215.567.567 0 0 0 .205-.394.553.553 0 0 0-.147-.418.701.701 0 0 0-1.018 0zM44.458 241.655a1.589 1.589 0 0 0 .192 1.957 1.5 1.5 0 0 0 1.013.352c.37-.01.724-.156.99-.409a2.046 2.046 0 0 0-.218-2.201 1.485 1.485 0 0 0-1.05-.234c-.368.056-.7.247-.927.535zM44.783 236.189a.798.798 0 0 0 0-1.072 1.14 1.14 0 0 0-1.21 0 1.033 1.033 0 0 0 .184 1.243.784.784 0 0 0 1.026-.171zM44.784 248.135c-.1.09-.243.48-.1.593.141.114.526 0 .61-.138a.34.34 0 0 0 .135-.255.334.334 0 0 0-.113-.265.336.336 0 0 0-.131-.074.35.35 0 0 0-.294.036.347.347 0 0 0-.107.103zM40.479 228.742c.066-.13.208-.406 0-.593-.21-.187-.485.081-.51.163-.025.081-.117.341.067.487a.286.286 0 0 0 .235.076.271.271 0 0 0 .12-.044.268.268 0 0 0 .088-.089zM40.511 239.259c-.225 0-.417.495-.592.812a.292.292 0 0 0-.066.236.289.289 0 0 0 .141.203.958.958 0 0 0 .623.048.93.93 0 0 0 .512-.349.64.64 0 0 0-.034-.644.686.686 0 0 0-.583-.306zM46.252 217.9a.695.695 0 0 0-.26-.394.733.733 0 0 0-.458-.142c-.384.049-.459.293-.325 1.056a.69.69 0 0 0 .936-.195.643.643 0 0 0 .107-.325zM45.175 233.371c.36-.438.25-.893-.308-1.307a.786.786 0 0 0-1.077 0 1.544 1.544 0 0 0 0 1.624c.46.325.993.203 1.385-.317zM44.466 213.214c-.064.146-.12.295-.167.447-.082.276-.08.57.006.845.086.276.252.521.478.706a1.803 1.803 0 0 0 1.727 0 .873.873 0 0 0 .41-.512 1.313 1.313 0 0 0-.095-1.035 1.395 1.395 0 0 0-.823-.662l-.468-.17c.117-.293.25-.561.334-.813a.702.702 0 0 0 .013-.622.752.752 0 0 0-.489-.401 1.185 1.185 0 0 0-.686-.105c-.235.035-.453.14-.624.3a.968.968 0 0 0-.192 1.178c.159.302.352.585.576.844zM37.95 227.581c-.442 0-.676 1.007-.326 1.34.35.333 1.052.349 1.244 0 .191-.349-.476-1.34-.918-1.34zM42.105 213.896a.675.675 0 0 0-.256-.4.714.714 0 0 0-.462-.144.668.668 0 0 0-.304.155.629.629 0 0 0-.19.618c.03.11.087.211.169.291a.695.695 0 0 0 .672.027.674.674 0 0 0 .37-.547zM53.962 246.227c-.25-.252-.551-.049-.751.195-.2.244-.184.723.125.812.309.089.75.325.951-.049.2-.373-.117-.771-.325-.958zM55.163 247.778a.913.913 0 0 0-.718.081c-.258.187-.125.812.2.902.19.041.387.041.576 0 .3-.439.25-.885-.058-.983zM45.776 227.654c.082.079.182.14.292.174.11.036.228.046.342.029.244.034.493-.008.71-.122.202-.128.373-.299.499-.5a1.54 1.54 0 0 0 .227-.661 1.162 1.162 0 0 0-.163-.613 1.205 1.205 0 0 0-.463-.443 1.074 1.074 0 0 0-1.035.073 1.193 1.193 0 0 0-.414.425c-.1.173-.152.368-.153.566 0 .373-.125.812.158 1.072zM52.927 240.835a1.162 1.162 0 0 0 0 .633v-.633zM57.516 244.245a.997.997 0 0 0-1.126.074c-.484.56-.56 1.275-.159 1.575a1.414 1.414 0 0 0 1.577-.227c.111-.237.143-.501.09-.757a1.233 1.233 0 0 0-.382-.665zM51.458 253.528a.675.675 0 0 0 .15 1.023.644.644 0 0 0 .498.182.66.66 0 0 0 .47-.239c.3-.365.343-1.055.067-1.258-.275-.203-.91.008-1.185.292zM57.458 252.432c-.309.276 0 .812 0 1.177l.225.098a.732.732 0 0 0 .443-.086.697.697 0 0 0 .3-.328c.128-.185.192-.403.183-.626-.334-.097-.85-.511-1.151-.235zM50.682 213.888a1.336 1.336 0 0 0 .2-1.624 1.372 1.372 0 0 0-.88-.317c-.323 0-.635.112-.88.317a1.312 1.312 0 0 0 .225 1.77.966.966 0 0 0 1.335-.146zM47.095 230.642a1.245 1.245 0 0 0-.048.859c.087.282.272.528.523.693.484.349.993.219 1.444-.382a1 1 0 0 0-.15-1.235 1.827 1.827 0 0 0-1.77.065zM47.145 234.037c-.259-.211-.493-.138-.71.146 0 .098 0 .276.05.341.24.265.383.599.41.951 0 .162.416.349.633.341a.954.954 0 0 0 .626-.39.696.696 0 0 0-.15-.601 6.447 6.447 0 0 0-.86-.788zM45.776 237.643a.542.542 0 0 0 .1.853 1.058 1.058 0 0 0 1.36.097 1.14 1.14 0 0 0 0-1.34c-.342-.3-1.034-.114-1.46.39zM52.234 239.446a.957.957 0 0 0 .142-1.162.994.994 0 0 0-.283-.308 1.236 1.236 0 0 0-.969-.337 1.246 1.246 0 0 0-.892.499 1.258 1.258 0 0 0-.332.849c0 .313.118.615.332.849.322.195.708.262 1.08.19.372-.073.702-.28.922-.58zM58.843 247.697c-.3-.162-.835.114-1.027.292a.572.572 0 0 0-.108.467.58.58 0 0 0 .292.386c.058.05.127.085.202.102a.5.5 0 0 0 .228-.001.468.468 0 0 0 .33-.288c.116-.203.383-.779.083-.958zM52 244.66a1.014 1.014 0 0 0 0-1.397 1.6 1.6 0 0 0-1.927.227c-.126.25-.152.538-.072.806.079.267.258.497.502.643.244.146.535.198.817.147a1.16 1.16 0 0 0 .706-.426H52zM52.293 248.014a.84.84 0 0 0-.585-.394.86.86 0 0 0-.686.188.817.817 0 0 0-.285.635.82.82 0 0 0 .321.618c.292.236.918.09 1.385-.422-.067-.13-.033-.455-.15-.625zM70.858 241.874a1.206 1.206 0 0 0 .075 1.681 1.702 1.702 0 0 0 2.128.098 1.641 1.641 0 0 0-.134-1.998H71.1c-.09.062-.172.136-.242.219zM75.656 242.264a.645.645 0 0 0 .959-.057c.14-.166.253-.352.334-.552H75.28c.065.233.195.444.376.609zM66.052 241.906a1.197 1.197 0 0 0 0 1.462 1.376 1.376 0 0 0 1.752-.105c.242-.293.058-.934-.367-1.3a.986.986 0 0 0-1.059-.251.98.98 0 0 0-.326.194zM51.109 225.201a.305.305 0 0 0 .033-.438.33.33 0 0 0-.451-.033.271.271 0 0 0 0 .447.268.268 0 0 0 .203.11.271.271 0 0 0 .215-.086zM50.758 228.466a.39.39 0 0 0 .434-.236.537.537 0 0 0-.055-.301.556.556 0 0 0-.212-.226c-.159-.065-.384.146-.434.316-.05.171.066.423.267.447zM51.976 235.336a1.01 1.01 0 0 0 0-1.161.575.575 0 0 0-.834 0c-.476.398-.66.812-.468 1.056.187.13.407.209.636.227.229.019.46-.023.666-.122zM76.932 242.085a.742.742 0 0 0 .142 1.04.86.86 0 0 0 .56.074.84.84 0 0 0 .48-.289.8.8 0 0 0-.023-1.036.928.928 0 0 0-1.159.211zM50.332 230.415a.85.85 0 0 0 .158 1.064c.634.455 1.244.495 1.536.114a1.01 1.01 0 0 0 .299-.798 1.001 1.001 0 0 0-.427-.739 1.083 1.083 0 0 0-.41-.175 1.063 1.063 0 0 0-.848.199 1.02 1.02 0 0 0-.283.335h-.025zM80.87 242.288c.476 0 .885 0 1.185.479.225.374.643.252.985 0 .083-.527-.125-.812-.56-.901a.226.226 0 0 0 0-.203h-2.803a1.585 1.585 0 0 0 1.193.625zM109.623 242.369a.622.622 0 0 0-.077.513.62.62 0 0 0 .353.389.86.86 0 0 0 .578.052.838.838 0 0 0 .473-.328.792.792 0 0 0 .025-.557.812.812 0 0 0-.351-.442.753.753 0 0 0-.833.135.71.71 0 0 0-.168.238zM116.924 250.036a.873.873 0 0 0-.004.573.89.89 0 0 0 .355.458c.258 0 .5-.187.675-.39a.434.434 0 0 0 .123-.184.44.44 0 0 0-.082-.418.435.435 0 0 0-.182-.128c-.309-.155-.626-.244-.885.089zM100.687 249.614c.059.04.234-.041.259-.098a.209.209 0 0 0-.05-.26.23.23 0 0 0-.309.073.224.224 0 0 0 .1.285zM92.443 242.231c-.183.325.192.691.36.853a.489.489 0 0 0 .391.189.489.489 0 0 0 .392-.189c.243-.268.234-.812-.075-.926-.308-.113-.884-.243-1.068.073zM83.607 245.78a1.085 1.085 0 0 0 1.444.057c.144-.291.19-.619.132-.936a1.522 1.522 0 0 0-.458-.834.9.9 0 0 0-.698-.174.898.898 0 0 0-.603.385.929.929 0 0 0-.303.797.922.922 0 0 0 .486.705zM97 244.375a.698.698 0 0 0 .127-.551.726.726 0 0 0-.32-.472.938.938 0 0 0-.575-.099.91.91 0 0 0-.518.262.702.702 0 0 0 .017.818c.058.08.132.146.217.197a.738.738 0 0 0 .84.048.694.694 0 0 0 .211-.203zM96.424 241.655h-.401c.13.044.271.044.4 0zM47.003 221.287c.075.17-.092.52-.225.365-.134-.154-.401-.178-.835.146a.814.814 0 0 0-.363.51.794.794 0 0 0 .113.611c.176.244.444.409.745.462.301.054.612-.01.865-.178.543-.341.434-.69.835-.885.4-.195.383-.455.275-.877-.109-.422-.292-1.056-.893-.893-.6.162-.584.568-.517.739zM52.927 212.776v-1.624l-.075.073a1.032 1.032 0 0 0-.314.739c0 .277.113.542.314.739l.075.073z" fill="#ECF0F6"/><path d="M98.276 243.774a.678.678 0 0 0 0-1.031.748.748 0 0 0-.545-.196.751.751 0 0 0-.523.245.868.868 0 0 0 0 1.08.755.755 0 0 0 1.068-.098zM52.927 220.483v-4.264a1.813 1.813 0 0 0-.426.244c-.492.406-.166 1.145-.475 1.73a1.452 1.452 0 0 0-.17 1.376c.089.225.233.427.42.586.186.159.41.272.65.328zM50.357 215.602c-.159.52.2.812.684 1.048.409-.171.835-.374.751-.886a.644.644 0 0 0-.253-.465.685.685 0 0 0-.523-.136.92.92 0 0 0-.659.439zM96.406 246.625a.497.497 0 0 0 .232-.357.485.485 0 0 0-.14-.398c-.25-.268-.834-.333-.95-.041-.118.293-.36.812-.051 1.04.309.227.718-.098.91-.244zM53.57 242.467a1.28 1.28 0 0 0 1.388.213c.15-.069.286-.166.397-.286.198-.203.327-.461.367-.739h-2.737c.123.313.324.592.584.812zM52.927 222.083v-1.072a.509.509 0 0 0-.634.17c-.192.228-.342.496-.067.772a.717.717 0 0 0 .701.13zM52.927 225.356v-1.527l-.192.089a5.802 5.802 0 0 0 0 .934c.025.179.09.352.192.504zM52.927 227.694a.846.846 0 0 0 0 1.032v-1.032zM58.91 241.866a.68.68 0 0 0 .091-.211h-1.385a.587.587 0 0 0 .209.317.847.847 0 0 0 1.084-.106zM95.288 243.49a.708.708 0 0 0-.208-1.023.79.79 0 0 0-.277-.158.78.78 0 0 0-.858.28.88.88 0 0 0 .267 1.12.854.854 0 0 0 .58.088.834.834 0 0 0 .496-.307zM45.534 246.438a.366.366 0 0 0 0 .414c.109.09.376 0 .502-.089.125-.089.192-.374 0-.512-.193-.138-.418.082-.502.187zM108.088 245.496a.749.749 0 0 0-.643.236c-.116.146-.225.666 0 .812.226.146.685-.106.835-.244a.507.507 0 0 0 .107-.448.518.518 0 0 0-.299-.356zM104.35 241.655a1 1 0 0 0 .029.555c.062.179.173.338.321.46.282.097.588.11.877.034.289-.075.548-.235.742-.456.109-.181.172-.384.184-.593h-2.153zM110.499 244.286c-.459-.276-.959-.097-1.335.495a.805.805 0 0 0-.182.592c.022.213.13.409.299.545a1.617 1.617 0 0 0 1.669-.227.934.934 0 0 0 .108-.804.972.972 0 0 0-.559-.601zM111.718 253.073a.731.731 0 0 0-.076.873.755.755 0 0 0 .51.347.792.792 0 0 0 .607-.134.754.754 0 0 0 .21-.233.879.879 0 0 0-.292-1.04.696.696 0 0 0-.771-.004.683.683 0 0 0-.188.191zM112.46 246.544a.882.882 0 0 0-.012.662.912.912 0 0 0 .454.491 1.041 1.041 0 0 0 1.207.015c.117-.082.214-.186.287-.307a1.001 1.001 0 0 0-.133-1.332 1.556 1.556 0 0 0-.985-.069 1.523 1.523 0 0 0-.818.54zM111.676 248.964a.765.765 0 0 0-1.068.154.567.567 0 0 0-.18.491.563.563 0 0 0 .305.427.734.734 0 0 0 .56.173.75.75 0 0 0 .285-.091.713.713 0 0 0 .223-.196.711.711 0 0 0-.125-.958zM105.835 252.082a.792.792 0 0 0-.612-.14.76.76 0 0 0-.514.352.79.79 0 0 0-.075.603c.055.202.19.377.375.485.09.058.192.097.3.114a.773.773 0 0 0 .81-.398.795.795 0 0 0-.284-1.016zM104.367 244.749a1.521 1.521 0 0 0-.201-.341.965.965 0 0 0-.428-.327.986.986 0 0 0-1.026.193.934.934 0 0 0-.273.459 5.71 5.71 0 0 0-.283 1.543.62.62 0 0 0 0 .219.495.495 0 0 0 .054.302.517.517 0 0 0 .221.218c.213.256.505.439.834.52.351.056 1.11-.098 1.06-.813-.567-.95.267-1.128.042-1.973zM99.452 249.459a.476.476 0 0 0 0 .479c.067.09.451.228.593.082.142-.147-.066-.455-.167-.577a.314.314 0 0 0-.216-.071.318.318 0 0 0-.21.087zM94.054 248.842a2.006 2.006 0 0 1-.4-.706 1.085 1.085 0 0 0-.258-.617 1.13 1.13 0 0 0-.577-.358c-.376-.081-1.16.528-1.26.958-.1.431-.209.812.325 1.097.4.186.768.43 1.144.649.03.032.065.062.1.09a.341.341 0 0 0 .108.178.258.258 0 0 0 .225 0 .678.678 0 0 0 .593-.178.8.8 0 0 0 0-1.113zM96.19 251.92a1.585 1.585 0 0 0-1.1-.088 1.539 1.539 0 0 0-.878.648c-.186.4-.212.853-.073 1.271.138.417.433.769.824.987.584.236.985-.455.91-.893-.076-.439 0-.301.358-.593a.756.756 0 0 0 .38-.678.75.75 0 0 0-.12-.383.78.78 0 0 0-.301-.271zM102.356 241.655h-1.335a1.543 1.543 0 0 0-.209.187.952.952 0 0 0-.228.787.962.962 0 0 0 .154.39c.08.118.185.218.308.293a1.002 1.002 0 0 0 1.427 0c.159-.255.232-.55.212-.847a1.415 1.415 0 0 0-.329-.81zM100.587 253.739a.8.8 0 0 0-.284.625.705.705 0 0 0 .703.427.75.75 0 0 0 .282-.077.667.667 0 0 0 .183-.522.678.678 0 0 0-.088-.269.68.68 0 0 0-.195-.208.651.651 0 0 0-.601.024zM113.804 242.589a1.34 1.34 0 0 0-.035.851c.081.279.251.528.485.708.253.079.525.082.779.008.255-.074.481-.222.648-.422a.938.938 0 0 0 .113-.602.946.946 0 0 0-.288-.543c-.685-.431-1.427-.439-1.702 0zM98.234 246.755a1.03 1.03 0 0 0-.826-.124 1.022 1.022 0 0 0-.376.198.978.978 0 0 0-.258.332.937.937 0 0 0-.078 1.096c.07.112.161.208.27.285a1.527 1.527 0 0 0 1.802-.463c.25-.382-.025-1.056-.534-1.324zM126.144 249.654a.23.23 0 0 0-.003.163.25.25 0 0 0 .103.13c.059.04.234-.049.259-.098.022-.042.029-.09.022-.136a.229.229 0 0 0-.064-.124.227.227 0 0 0-.317.065zM117.325 247.924a.741.741 0 0 0 .152-.598.745.745 0 0 0-.361-.506.848.848 0 0 0-1.068.235.85.85 0 0 0-.055.611c.058.203.19.379.372.494.16.09.35.116.529.072a.708.708 0 0 0 .431-.308zM126.136 246.243a.47.47 0 0 0 .013.273.493.493 0 0 0 .162.223c.15.073.46.195.543 0a.483.483 0 0 0-.1-.504c-.1-.057-.543-.162-.618.008zM128.222 249.459c-.084.073-.117.512 0 .577.117.065.459-.122.568-.227a.427.427 0 0 0-.067-.39.6.6 0 0 0-.501.04zM137.091 245.878c-.092.187-.133.56 0 .674a.713.713 0 0 0 .354.041.715.715 0 0 0 .33-.13c.117-.114.217-.683.042-.813-.175-.129-.676.114-.726.228zM132.319 246.56a.709.709 0 0 0 .015.825.75.75 0 0 0 .218.198.59.59 0 0 0 .512.156.601.601 0 0 0 .431-.31.707.707 0 0 0 .131-.552.717.717 0 0 0-.323-.471.786.786 0 0 0-.984.154zM129.515 242.589c-.15.227.067.641.442.861a.428.428 0 0 0 .374.087.426.426 0 0 0 .294-.242c.167-.3.225-.625-.117-.861a.859.859 0 0 0-.993.155zM125.785 247.567a1.297 1.297 0 0 0-.688-.037c-.229.05-.438.161-.605.321a.731.731 0 0 0-.04.569.745.745 0 0 0 .382.43.753.753 0 0 0 .585.053.724.724 0 0 0 .433-.386c.259-.422.234-.82-.067-.95zM121.305 243.953a.923.923 0 0 0-.634-.037.899.899 0 0 0-.501.378 1.003 1.003 0 0 0 .233 1.324c.257.121.546.162.827.114a1.38 1.38 0 0 0 .742-.374c.209-.325-.158-1.096-.667-1.405zM116.782 254.86c-.15.154-.242 1.023.084 1.234.325.211 1.026-.39 1.193-.658a.79.79 0 0 0 .057-.509.812.812 0 0 0-.266-.441c-.317-.203-.834.138-1.068.374zM119.043 241.655c.142.252.526.3.835.43.134-.129.252-.273.35-.43h-1.185zM122.573 252.773a.54.54 0 0 0 .192.552.533.533 0 0 0 .485-.089.428.428 0 0 0-.067-.455c-.109-.081-.51-.211-.61-.008zM124.884 242.711c.184-.155.05-.861-.284-1.024h-.333a.7.7 0 0 0-.309.293.47.47 0 0 0-.008.687c.061.061.14.104.225.125.25.032.542.081.709-.081zM80.845 253.382c-.45 0-.609.317-.667 1.137.384.195.76.56 1.218.138a.704.704 0 0 0 .108-.975.954.954 0 0 0-.66-.3zM73.636 254.608c-.158.544.568.812.835.812s.434-1.299.192-1.527c-.242-.227-.868.163-1.027.715zM71.125 247.494c.375-.495.375-1.04 0-1.299a1.55 1.55 0 0 0-1.844.211 1.06 1.06 0 0 0-.044.713c.068.236.216.442.42.586a.976.976 0 0 0 1.468-.211zM67.128 250.483a.894.894 0 0 0-.05.739c.1.186.834.333 1.035.073a.677.677 0 0 0-.134-.951.544.544 0 0 0-.85.139zM70.315 260.902c-.117.171-.35.666 0 .934s.701-.138.835-.284a.7.7 0 0 0 0-.666.476.476 0 0 0-.422-.224.488.488 0 0 0-.413.24zM73.987 247.583a.61.61 0 0 0-.835 0 4.159 4.159 0 0 0-1.318 2.112c-.02.131-.02.266 0 .398a.96.96 0 0 0 .702.708.975.975 0 0 0 .967-.286c.368-.38.682-.806.934-1.267a1.44 1.44 0 0 0 .05-.903 1.477 1.477 0 0 0-.5-.762zM71.158 256.102c-.325-.065-1.026.707-.834 1.081a.78.78 0 0 0 .438.294.799.799 0 0 0 .53-.051c.417-.26.192-1.25-.134-1.324zM67.587 252.464a1.26 1.26 0 0 0-.893 0c-.267.138-.167.747.15.902.205.062.422.078.635.048.375-.406.4-.844.108-.95zM70.708 253.804a.478.478 0 0 0-.276.422c0 .171.326.252.476.228.15-.025.409-.268.367-.479-.042-.211-.459-.228-.567-.171zM60.545 259.83a.436.436 0 0 0 .1.447.54.54 0 0 0 .501-.057.393.393 0 0 0 0-.585c-.309-.179-.51.081-.601.195zM93.286 256.63a.349.349 0 0 0 0 .414c.109.09.376 0 .501-.089.126-.089.193-.373 0-.512-.192-.138-.392.049-.5.187zM64.667 247.023c0-.715.667-.414.584-1.413-.084-.999-1.01-1.535-1.594-1.113-.584.423-.45 1.04-.61 1.105-.158.065-.942.122-.892.682.117 1.186 1.177.812 1.327 1.153.15.341 0 1.08.142 1.624.233.731.834 1.251 1.668.926.181-.058.348-.153.488-.278a1.281 1.281 0 0 0 .305-1.525c-.442-1.031-1.418-.487-1.418-1.161zM60.294 249.378a1.198 1.198 0 0 0 0 1.624 1.351 1.351 0 0 0 1.67-.122c.291-.316.116-1.112-.326-1.494a.952.952 0 0 0-1.036-.213.92.92 0 0 0-.307.205zM63.54 255.575c-.1.13-.233.422 0 .601a.487.487 0 0 0 .617-.041c.126-.106.368-.479.142-.731-.225-.252-.659.049-.759.171zM64.975 257.012c-.325.114-.625.91-.35 1.186.4.373.835.487 1.143-.106.309-.593-.475-1.194-.793-1.08zM61.104 244.164c.367-.373.492-1.064.208-1.348-.559-.568-1.318-.187-1.668 0-.35.187-.109 1.161.5 1.486a.76.76 0 0 0 .96-.138zM86.21 249.605c-.2.293 0 .488.176.658a.522.522 0 0 0 .676.069.496.496 0 0 0 .158-.182 2.03 2.03 0 0 0 .067-.691.747.747 0 0 0-.571-.155.764.764 0 0 0-.506.301zM87.404 254.836c-.1.089-.234.479-.1.592.133.114.534 0 .61-.138a.343.343 0 0 0 .135-.255.332.332 0 0 0-.113-.265.336.336 0 0 0-.131-.074.351.351 0 0 0-.401.14zM88.463 252.164c-.192.292 0 .487.184.657a.509.509 0 0 0 .448.159.516.516 0 0 0 .386-.272 2.32 2.32 0 0 0 .067-.691.774.774 0 0 0-.862-.056.742.742 0 0 0-.223.203zM86.644 245.521a.73.73 0 0 0-.113.557c.04.193.154.363.322.474a.72.72 0 0 0 .985-.049.661.661 0 0 0 .246-.511.65.65 0 0 0-.246-.512.838.838 0 0 0-.605-.224.83.83 0 0 0-.588.265zM90.199 243.921a1.36 1.36 0 0 0-.184-1.746 1.493 1.493 0 0 0-1.527-.26 1.344 1.344 0 0 0 0-.26h-3.613l-.075.065a.615.615 0 0 0-.133.455 1.2 1.2 0 0 0-.35.544c-.168.593.592.893 1.026.763.433-.13.308-.041.65.268a.77.77 0 0 0 .328.245.799.799 0 0 0 .788-.118.756.756 0 0 0 .236-.33c.103-.218.129-.464.075-.698h.159l.092-.041c-.052.249-.026.507.073.741.1.234.269.434.486.575.167.14.36.251.567.324a.662.662 0 0 0-.267.463c-.058.504.534.959 1.068.934.244-.019.477-.105.672-.249.196-.145.344-.339.43-.563a.975.975 0 0 0-.057-.639 1.004 1.004 0 0 0-.444-.473zM89.84 246.422c-.083.073-.167.463 0 .577.167.113.46-.122.568-.228.109-.105.075-.317-.067-.39a.521.521 0 0 0-.501.041zM76.406 250.133a.801.801 0 0 0-.326.19.754.754 0 0 0-.217.685c.024.123.079.238.16.335a1.057 1.057 0 0 0 .834.285.836.836 0 0 0 .346-.229.806.806 0 0 0 .188-.364.853.853 0 0 0-.283-.667.918.918 0 0 0-.702-.235zM80.837 247.283c.187.085.4.1.597.041a.83.83 0 0 0 .471-.358.863.863 0 0 0 .243-.628.844.844 0 0 0-.293-.606.773.773 0 0 0-.849-.012.75.75 0 0 0-.21.207 1.459 1.459 0 0 0-.568-.488 1.394 1.394 0 0 1-.784-.682c-.242-.544-.835-.666-1.327-.771a1.383 1.383 0 0 0-.767.169 1.338 1.338 0 0 0-.543.553l-.067.13a1.24 1.24 0 0 0-.442-.812c-.384-.284-.934-.13-1.368.39a1.044 1.044 0 0 0-.058 1.324 1.457 1.457 0 0 0 1.668-.049.794.794 0 0 0 .117-.187c.052.21.158.402.309.561.386.409.91.671 1.477.739.206.039.397.135.55.276a.987.987 0 0 0 1.313.334.96.96 0 0 0 .356-.334.623.623 0 0 0 .175.203zM84.391 251.928a1.005 1.005 0 0 0-.242.77 1.002 1.002 0 0 0 .41.7c.358.317.942.195 1.393-.3a.726.726 0 0 0 .194-.863.731.731 0 0 0-.194-.25 1.615 1.615 0 0 0-1.56-.057zM78.993 262.437c-.15 0-.409.244-.417.39.013.1.053.195.116.274a.583.583 0 0 0 .243.181.688.688 0 0 0 .35-.089.658.658 0 0 0 .25-.253c.042-.211-.4-.503-.542-.503zM78.284 250.637a.8.8 0 0 0 0 1.064.917.917 0 0 0 1.185 0 .793.793 0 0 0-.194-.974.845.845 0 0 0-.496-.201.843.843 0 0 0-.52.135l.025-.024zM84.225 248.598a1.403 1.403 0 0 0-1.058-.343 1.422 1.422 0 0 0-.978.522 1.085 1.085 0 0 0-.318.794c.005.147.04.29.103.423a1.1 1.1 0 0 0 .265.351 1.783 1.783 0 0 0 2.203-.057 1.234 1.234 0 0 0-.217-1.69zM59.16 252.188a.945.945 0 0 0 0 .284.303.303 0 0 0 .225 0c0-.089.117-.227 0-.3-.117-.073-.117.016-.225.016z" fill="#ECF0F6"/><path d="m118.459 171.008 32.374-.162v-31.348c-4.251 0-8.461.815-12.389 2.398a32.463 32.463 0 0 0-10.503 6.831 31.445 31.445 0 0 0-7.017 10.223 30.783 30.783 0 0 0-2.465 12.058z" fill="#FA744E"/><path d="M151.05 189.151c9.608 0 17.397-7.581 17.397-16.933 0-9.351-7.789-16.932-17.397-16.932-9.608 0-17.397 7.581-17.397 16.932 0 9.352 7.789 16.933 17.397 16.933z" fill="#343741"/><path d="M159.202 171.187h-15.978v34.068h15.978v-34.068z" fill="#343741"/><path d="M127.338 144.216c.084-.129.251-.414.1-.511a.521.521 0 0 0-.534 0c-.101.089-.259.503-.092.601a.52.52 0 0 0 .526-.09zM128.03 138.954c.234-.203-.058-.463-.158-.585a.449.449 0 0 0-.201-.046.448.448 0 0 0-.2.046.521.521 0 0 0 0 .488.433.433 0 0 0 .559.097zM124.517 146.076c.367-.422.234-.698 0-.893-.234-.195-.601-.309-.776 0a.79.79 0 0 0 0 .771c.2.171.576.106.776.122zM131.809 175.418a1.928 1.928 0 0 0-2.219.219c-.151.217-.214.48-.175.74a.854.854 0 0 0-.408.079.827.827 0 0 0-.318.262.723.723 0 0 0 .117 1.031.904.904 0 0 0 1.151-.227.472.472 0 0 0 .067-.13c.274.184.608.264.939.225a1.37 1.37 0 0 0 .856-.439 1.3 1.3 0 0 0-.01-1.76zM140.938 188.339c.118-.155.196-.336.225-.528a.746.746 0 0 0 .27.197.797.797 0 0 0 .331.063.86.86 0 0 0 .519-.149.808.808 0 0 0 .315-.428.596.596 0 0 0-.075-.544c-.275-.146-.551-.308-.834-.471a1.523 1.523 0 0 0-.609.488 1.109 1.109 0 0 0-.343-.512 1.641 1.641 0 0 0-2.01.203 1.123 1.123 0 0 0-.282.837c.023.305.169.587.407.787a1.449 1.449 0 0 0 1.03.462 1.465 1.465 0 0 0 1.056-.405zM125.251 149.771c-.776.812-.759.934.084 1.422.55-.22.634-.61.425-1.146 1.168-.812 1.027-1.575-.325-2.217a1.039 1.039 0 0 1 0-.284c.067-.406-.167-.601-.509-.747a.727.727 0 0 0-.834.171c-.635.511-.66.885-.092 1.461.434.439.884.902 1.251 1.34zM134.196 143.981a.882.882 0 0 0-.066-.399.92.92 0 0 0-.235-.332 1.212 1.212 0 0 0-.776-.084c-.261.06-.493.203-.659.409a.99.99 0 0 0-.158.715c.04.249.173.475.375.633.493-.365 1.002-.642 1.519-.942zM111.534 177.18c-.05.147-.117.35.067.488a.276.276 0 0 0 .218.061.273.273 0 0 0 .191-.118c.075-.13.217-.398 0-.585-.217-.187-.476.081-.476.154zM135.431 139.498a.736.736 0 0 0-.05-.983.635.635 0 0 0-.484-.218.633.633 0 0 0-.267.058.616.616 0 0 0-.217.16.74.74 0 0 0 .042.983.67.67 0 0 0 .488.206.684.684 0 0 0 .488-.206zM128.13 141.723a.43.43 0 0 0 .349.082.426.426 0 0 0 .167-.074.4.4 0 0 0 .118-.138.434.434 0 0 0 .031-.301.446.446 0 0 0-.173-.251.394.394 0 0 0-.275-.11.394.394 0 0 0-.275.11.406.406 0 0 0-.091.545.426.426 0 0 0 .149.137zM107.888 161.409a.648.648 0 0 0-.486.439.608.608 0 0 0-.007.333.617.617 0 0 0 .167.292.689.689 0 0 0 .674.035.659.659 0 0 0 .258-.23.637.637 0 0 0 .103-.325.677.677 0 0 0-.253-.398.71.71 0 0 0-.456-.146zM120.387 154.514c.111.089.24.153.38.189a1.026 1.026 0 0 0 1.122-.424 1.262 1.262 0 0 0 .392-.963 1.256 1.256 0 0 0-.471-.927 1.307 1.307 0 0 0-.48-.247 1.335 1.335 0 0 0-1.444.512 1.392 1.392 0 0 0-.122 1.025c.093.345.315.643.623.835zM109.456 176.45c-.45 0-.684 1.007-.333 1.34.35.333 1.051.357 1.243 0 .192-.358-.501-1.34-.91-1.34zM114.271 152.979a.841.841 0 0 0-.042-1.08 1.12 1.12 0 0 0-1.377-.081c-.175.2-.279.449-.297.711-.019.262.05.523.197.743.326.325 1.027.219 1.519-.293zM109.449 167.606c.15-.163 0-.463-.1-.504-.101-.041-.326-.227-.502-.049a.284.284 0 0 0-.071.091.294.294 0 0 0-.025.112c0 .039.01.077.025.112a.274.274 0 0 0 .071.091c.126.098.443.301.602.147zM117.183 161.945c.21-.213.343-.487.378-.78a1.325 1.325 0 0 0-.186-.844 1.368 1.368 0 0 0-1.753 0 1.313 1.313 0 0 0 .226 1.77.964.964 0 0 0 1.335-.146zM119.344 160.751c.229.168.506.259.793.26.175-.52.367-1.039.575-1.551a1.097 1.097 0 0 0-.317-.39.78.78 0 0 0-.569-.113.743.743 0 0 0-.482.316 1.022 1.022 0 0 0 0 1.478zM119.219 149.317c0-.471.117-.934-.426-1.137a.668.668 0 0 0-.48-.007.642.642 0 0 0-.354.315.85.85 0 0 0 0 .715c.25.487.726.398 1.26.114zM117.283 157.08c.18-.237.272-.527.262-.821a1.29 1.29 0 0 0-.32-.803 1.24 1.24 0 0 0-.804-.203 1.225 1.225 0 0 0-.748.349c-.393.406-.317.861.233 1.348a1.195 1.195 0 0 0 1.377.13zM136.232 184.522c.392 0 .784 0 1.176-.073.392-.073.835-.057 1.085-.528a16.73 16.73 0 0 1-1.794-2.16 1.58 1.58 0 0 0-.701.966 2.761 2.761 0 0 1-.192.447c-.492.317-.534.642-.409.958.125.317.476.414.835.39zM126.094 180.072c.139-.144.247-.315.315-.501a1.39 1.39 0 0 0-.086-1.145 1.43 1.43 0 0 0-.388-.45 1.159 1.159 0 0 0-.742-.266c-.272 0-.536.094-.743.266a.747.747 0 0 0-.125-.113 1.503 1.503 0 0 0-1.836.333c-.2.248-.307.556-.304.873.004.316.118.621.324.865a1.46 1.46 0 0 0 1.749.357 1.524 1.524 0 0 0 1.836-.219zM123.349 190.085a1.114 1.114 0 0 0 1.669-.146 1.009 1.009 0 0 0 0-1.389 1.59 1.59 0 0 0-1.005-.216c-.35.042-.676.198-.923.444a1.025 1.025 0 0 0 .259 1.307zM133.403 173.542c.125.219.242.439.376.642a16.999 16.999 0 0 1-.125-1.966c0-.43 0-.86.066-1.283h-3.796c.019.279.084.553.192.812a5.302 5.302 0 0 0-.584 1.113.792.792 0 0 0 .282.887c.09.067.192.117.302.144.559.106 1.126.13 1.719.195.342.666.392.682 1.184.341.209-.284-.242-.82.384-.885zM121.029 176.904c.434-.487.476-.999.1-1.291a1.706 1.706 0 0 0-1.668.098.926.926 0 0 0 .225 1.364c.484.43.859.382 1.343-.171zM121.054 181.03c.568.276 1.027.284 1.185 0a1.214 1.214 0 0 0-.367-1.226 1.09 1.09 0 0 0-.622.036 1.06 1.06 0 0 0-.496.37.547.547 0 0 0-.055.481.542.542 0 0 0 .138.21c.06.058.136.102.217.129zM128.58 181.785c.091.185.235.34.414.449.179.108.386.164.596.16a.757.757 0 0 0 .634-.17 1.007 1.007 0 0 0 .401.909.627.627 0 0 0 .721.039.607.607 0 0 0 .18-.177 1.106 1.106 0 0 0 .183-.877.816.816 0 0 0-.537-.447.858.858 0 0 0-.697.114c.112-.262.273-.501.475-.706a.87.87 0 0 0 .067-.731 5.65 5.65 0 0 1-.25-1.048.889.889 0 0 0-.354-.563.932.932 0 0 0-.656-.168c-.659.098-.943.382-.834.983.087.343.213.675.375.991l-.451.365a.755.755 0 0 0-.287.394.728.728 0 0 0 .02.483zM137.4 199.254c-.326.114-.626.91-.342 1.186.283.276.792.487 1.143-.106.35-.593-.451-1.194-.801-1.08zM139.903 192.042c.097-.29.098-.602.003-.894a1.462 1.462 0 0 0-.529-.73.603.603 0 0 0-.417-.164.605.605 0 0 0-.417.164 4.122 4.122 0 0 0-1.318 2.112c-.02.131-.02.266 0 .398a.936.936 0 0 0 .247.45.995.995 0 0 0 .979.248.97.97 0 0 0 .442-.276c.395-.391.735-.83 1.01-1.308zM134.271 181.793a1.82 1.82 0 0 0 .95-.441c.265-.236.451-.543.535-.882.004-.065.004-.13 0-.195a16.992 16.992 0 0 1-1.669-4.232 1.388 1.388 0 0 0-.425.374c-.392.609.217 1.275.133 1.462-.083.187-1.293.252-1.752 1.023a2.104 2.104 0 0 0-.069 1.323c.119.437.377.827.737 1.114.443.336 1 .498 1.56.454zM132.744 187.6c-.217.244-.1.642 0 .901.1.26.601.228.834 0a.478.478 0 0 0 .232-.406.477.477 0 0 0-.232-.406c-.217-.089-.617-.3-.834-.089zM123.991 185.594a.805.805 0 0 0-.573-.127.786.786 0 0 0-.503.298.557.557 0 0 0-.085.215.558.558 0 0 0 .103.44.623.623 0 0 0 .174.157.753.753 0 0 0 .847.1.726.726 0 0 0 .229-.19.624.624 0 0 0-.006-.718.648.648 0 0 0-.186-.175zM124.734 175.97a1.247 1.247 0 0 0 .943.251 1.226 1.226 0 0 0 .834-.494 1.53 1.53 0 0 0-.534-1.966 1.08 1.08 0 0 0-1.568.268c-.61.91-.426 1.211.325 1.941zM123.507 171.699c.283-.167.501-.422.618-.723h-2.654c.035.184.122.356.251.495.217.245.519.404.848.445.329.043.663-.035.937-.217zM128.639 170.96h-2.679a.715.715 0 0 0-.3.633.964.964 0 0 0 .449.618 1.03 1.03 0 0 0 .769.113c.256-.066.483-.208.651-.406a.85.85 0 0 0 1.152-.097.737.737 0 0 0-.042-.861zM116.991 179.544c.634.446 1.243.487 1.535.105a1 1 0 0 0-.123-1.547 1.064 1.064 0 0 0-1.265.035 1.043 1.043 0 0 0-.281.343.852.852 0 0 0 .134 1.064zM126.686 185.74a1.123 1.123 0 0 0 1.444 0c.169-.315.228-.675.166-1.026a1.616 1.616 0 0 0-.508-.915 1.065 1.065 0 0 0-1.369.414c-.433.618-.35 1.056.267 1.527zM117.508 163.236a.921.921 0 0 0-.659.447c-.159.52.2.812.693 1.048.4-.179.834-.382.742-.886a.638.638 0 0 0-.074-.26.687.687 0 0 0-.176-.211.693.693 0 0 0-.526-.138zM118.518 166.257a1.392 1.392 0 0 0 .092 1.747 29.85 29.85 0 0 1 .567-3.59.85.85 0 0 0-.175.114c-.501.398-.167 1.145-.484 1.729zM117.651 172.811a.271.271 0 0 0-.1-.087.27.27 0 0 0-.26 0 .271.271 0 0 0-.1.087.279.279 0 0 0-.09.097.259.259 0 0 0 0 .253.27.27 0 0 0 .09.097.269.269 0 0 0 .217.108c.043 0 .085-.01.122-.029a.263.263 0 0 0 .096-.079.302.302 0 0 0 .092-.093.275.275 0 0 0-.067-.354zM117.425 175.767c-.167-.073-.384.147-.434.309a.39.39 0 0 0 .045.273.412.412 0 0 0 .214.182.404.404 0 0 0 .26-.042.382.382 0 0 0 .174-.194.505.505 0 0 0-.046-.303.525.525 0 0 0-.213-.225zM143.107 190.264c.05-.057.075-.114.117-.171v-1.429a1.473 1.473 0 0 0-1.402.154 1.354 1.354 0 0 0 .334 1.511.628.628 0 0 0 .951-.065zM134.062 200.521a1.247 1.247 0 0 0-.892 0c-.267.138-.176.747.141.909.21.056.428.07.643.041.4-.406.425-.877.108-.95zM136.816 208.967c-.125.162-.359.666 0 .926s.701-.138.834-.285a.696.696 0 0 0 0-.657.485.485 0 0 0-.834.016zM137.617 195.551c.384-.496.375-1.04 0-1.3a1.564 1.564 0 0 0-.959-.199 1.548 1.548 0 0 0-.885.41 1.074 1.074 0 0 0-.039.718c.069.237.218.445.423.59a.974.974 0 0 0 1.46-.219zM133.545 195.721a.512.512 0 0 0-.284.431c0 .17.326.243.476.227.15-.016.409-.268.367-.479-.042-.211-.451-.268-.559-.179zM137.024 187.6a1.436 1.436 0 0 0-.141-1.949 1.559 1.559 0 0 0-2.078.146 1.219 1.219 0 0 0-.308.997c.026.177.092.347.193.498.101.15.233.278.39.373a1.302 1.302 0 0 0 .987.4 1.298 1.298 0 0 0 .957-.465zM133.628 198.547a.854.854 0 0 0-.05.731c.1.187.835.333 1.027.082a.687.687 0 0 0-.126-.959.534.534 0 0 0-.463-.138.543.543 0 0 0-.388.284zM130.458 188.412c0-.203-.251-.755.167-.885.417-.13.959.049 1.26-.309.3-.357 1.026-1.153.7-1.803-.325-.649-.834-.227-1.234-.333a.996.996 0 0 0-.69.064.953.953 0 0 0-.47.497c-.2.503-.134 1.08-.326 1.283-.192.203-.484.365-.776.057-.292-.309-.959-.39-1.585.219s-.375 1.705.259 1.811c.634.106.834-.219 1.009 0 .176.219.226.707.651.739.426.033 1.035-1.137 1.035-1.34zM129.999 196.98a1.2 1.2 0 0 0-.319.812c0 .3.114.589.319.812a1.348 1.348 0 0 0 1.669-.13c.292-.308.116-1.112-.317-1.486a.94.94 0 0 0-1.352-.008zM134.271 191.32c.242-.293.058-.934-.367-1.3a1.002 1.002 0 0 0-1.352-.057 1.214 1.214 0 0 0 0 1.47 1.397 1.397 0 0 0 1.719-.113zM129.69 192.595c-.517.527-.35 1.413.392 2.07a1.277 1.277 0 0 0 .909.325 1.273 1.273 0 0 0 .877-.398c.26-.302.4-.686.391-1.081a1.611 1.611 0 0 0-.441-1.063 1.766 1.766 0 0 0-2.128.147zM130.041 203.631c-.101.13-.234.423 0 .609a.49.49 0 0 0 .617-.048c.117-.106.367-.48.134-.731-.234-.252-.651.048-.751.17zM145.477 210.494a.588.588 0 0 0-.417.398.596.596 0 0 0 .358.446c.126 0 .551-.122.601-.333.05-.211-.384-.503-.542-.511zM145.018 205.572a1.557 1.557 0 0 0-.71-.317h-.484a1.319 1.319 0 0 0-.834.496 1.083 1.083 0 0 0-.318.794c.005.146.04.29.104.423.062.133.152.252.264.35a1.784 1.784 0 0 0 2.203-.057 1.242 1.242 0 0 0-.225-1.689zM143.241 199.676v-1.478a.643.643 0 0 0-.326 0 .786.786 0 0 0-.324.189.732.732 0 0 0-.051 1.013.993.993 0 0 0 .701.276zM149.916 205.255h-1.361c-.191.09-.359.221-.492.382a1.588 1.588 0 0 0 .192 1.957 1.504 1.504 0 0 0 2.003-.056 2.059 2.059 0 0 0-.217-2.209 1.052 1.052 0 0 0-.125-.074zM140.312 197.979c.359-.447.25-.902-.309-1.308a.787.787 0 0 0-1.076 0 1.545 1.545 0 0 0 0 1.625c.467.316.976.219 1.385-.317zM143.015 194.958c.042.152.113.295.209.422v-1.283s-.059.073-.075.106l-.067.13a1.247 1.247 0 0 0-.442-.813c-.376-.284-.935-.121-1.369.39a1.06 1.06 0 0 0-.058 1.332c.249.163.543.245.843.236a1.46 1.46 0 0 0 .826-.285 1.51 1.51 0 0 0 .133-.235zM138.009 203.12c-.334-.073-1.026.706-.793 1.08a.772.772 0 0 0 .436.288.79.79 0 0 0 .524-.053c.375-.26.158-1.25-.167-1.315zM139.444 206.376c-.233.284-.183.731.117.812.3.082.759.317.951-.057.192-.373-.133-.812-.317-.958-.183-.146-.559-.04-.751.203zM140.137 202.665c-.167.552.559.812.834.812.275 0 .426-1.299.184-1.527-.242-.227-.86.163-1.018.715zM124.05 192.31a.989.989 0 0 0-.57-.143.989.989 0 0 0-.548.208c-.493.569-.559 1.275-.159 1.576a1.377 1.377 0 0 0 1.569-.228c.113-.234.146-.498.093-.753a1.2 1.2 0 0 0-.385-.66zM115.28 168.32c-.6.163-.559.569-.492.747.067.179-.1.52-.234.358-.133-.163-.4-.179-.834.146a.814.814 0 0 0-.363.51.791.791 0 0 0 .113.611c.175.244.442.412.743.467.301.054.613-.009.867-.175.543-.349.434-.698.835-.893.4-.195.383-.455.275-.877-.109-.423-.309-1.056-.91-.894zM116.398 185.115a.564.564 0 0 0-.131.462.58.58 0 0 0 .273.399.545.545 0 0 0 .655.109.532.532 0 0 0 .18-.15.598.598 0 0 0 .157-.183.56.56 0 0 0-.099-.67.688.688 0 0 0-1.035.033zM115.464 173.632a1.073 1.073 0 0 0-1.035.073c-.171.1-.315.24-.418.407a1.175 1.175 0 0 0-.174.551c0 .406-.1.877.184 1.112a.756.756 0 0 0 .634.195c.243.034.492-.008.709-.121.203-.129.373-.299.499-.501.126-.2.203-.427.227-.661a1.17 1.17 0 0 0-.626-1.055zM117.95 181.355c-.258-.211-.492-.138-.709.154 0 .098 0 .276.05.341.239.265.382.599.409.95 0 .155.417.341.634.333a.89.89 0 0 0 .618-.389c.083-.13 0-.447-.142-.601a7.057 7.057 0 0 0-.86-.788zM120.187 173.867c.286.022.57-.054.804-.216.233-.162.4-.399.472-.669a.975.975 0 0 0-.2-.772 1.457 1.457 0 0 0-.964-.526 1.474 1.474 0 0 0-1.064.291c-.033.31-.033.623 0 .934.029.239.137.463.309.636s.398.286.643.322zM128.639 196.533a.913.913 0 0 0-.364-.033.914.914 0 0 0-.345.115c-.259.186-.134.812.192.901.192.042.392.042.584 0 .3-.455.25-.901-.067-.983zM112.527 161.1l-.476-.17c.129-.265.243-.536.342-.812a.696.696 0 0 0-.182-.874.739.739 0 0 0-.293-.141 1.173 1.173 0 0 0-1.319.186.975.975 0 0 0-.191 1.186c.158.286.342.558.55.812-.05.146-.125.293-.167.447-.082.283-.078.582.013.862.09.28.263.528.496.713a1.807 1.807 0 0 0 1.727 0 .865.865 0 0 0 .418-.511 1.343 1.343 0 0 0-.104-1.031 1.407 1.407 0 0 0-.814-.667zM113.361 182.118a1.059 1.059 0 0 0 .192 1.251.807.807 0 0 0 .57.108.793.793 0 0 0 .49-.303.801.801 0 0 0 .187-.543.806.806 0 0 0-.229-.529 1.137 1.137 0 0 0-.607-.163 1.146 1.146 0 0 0-.603.179zM113.586 178.667a1.246 1.246 0 0 0-.04.855c.088.282.273.524.524.688.476.357.993.219 1.436-.374a.999.999 0 0 0-.151-1.242 1.802 1.802 0 0 0-1.769.073zM112.035 165.421c-.384.049-.468.292-.326 1.064a.694.694 0 0 0 .67.027.66.66 0 0 0 .365-.547.674.674 0 0 0-.251-.4.704.704 0 0 0-.458-.144zM125.66 200.253v.276c0 .065.217 0 .226 0 .008 0 .108-.219 0-.3-.109-.082-.117.016-.226.024zM127.813 190.849c-.568-.569-1.327-.187-1.669 0-.342.186-.108 1.161.501 1.486a.765.765 0 0 0 .993-.171 1.09 1.09 0 0 0 .175-1.315zM126.011 182.354a.79.79 0 0 0-1.085 0 .691.691 0 0 0-.158.545c.013.097.047.19.099.273.05.084.12.156.201.213a.662.662 0 0 0 .234.129.671.671 0 0 0 .267.03.671.671 0 0 0 .467-.24.61.61 0 0 0-.025-.95zM128.38 194.341a.821.821 0 0 0-.586-.394.855.855 0 0 0-.684.188.81.81 0 0 0-.286.635.795.795 0 0 0 .321.618c.292.228.918.081 1.385-.422-.033-.146 0-.463-.15-.625zM125.343 195.77c-.3-.171-.834.106-1.034.292a.554.554 0 0 0-.091.448.585.585 0 0 0 .101.212.59.59 0 0 0 .181.152.486.486 0 0 0 .631-.003.46.46 0 0 0 .129-.183c.117-.155.375-.756.083-.918zM110.942 171.358l-.668.324c-.634-.3-1.31-.308-1.535 0a.664.664 0 0 0 .05.853c.409.479.676.512 1.368.195.448.188.907.345 1.377.471a.506.506 0 0 0 .535-.174.481.481 0 0 0 .097-.272.48.48 0 0 0-.081-.277c-.301-.406-.509-.958-1.143-1.12zM119.369 186.049a.54.54 0 0 0-.131.427.563.563 0 0 0 .231.385 1.06 1.06 0 0 0 1.368.097 1.147 1.147 0 0 0 0-1.34c-.35-.268-1.034-.081-1.468.431zM122.581 182.727a.568.568 0 0 0-.417-.178.578.578 0 0 0-.417.178c-.476.398-.659.812-.467 1.056a1.295 1.295 0 0 0 1.301.13c.125-.174.193-.381.193-.593 0-.212-.068-.419-.193-.593zM123.95 200.488c-.301.276 0 .812 0 1.186l.225.089a.702.702 0 0 0 .44-.084.678.678 0 0 0 .294-.33.91.91 0 0 0 .184-.625c-.317-.065-.843-.504-1.143-.236z" fill="#ECF0F6"/><path d="M180.896 163.236h70.397v17.234h-70.397a9.043 9.043 0 0 1-3.387-.657 8.848 8.848 0 0 1-2.872-1.868 8.557 8.557 0 0 1-1.919-2.795 8.397 8.397 0 0 1 0-6.594 8.571 8.571 0 0 1 1.919-2.796 8.845 8.845 0 0 1 2.872-1.867 9.043 9.043 0 0 1 3.387-.657z" fill="#00BFB3"/><path d="M236.116 168.661a.742.742 0 0 0-.359.451.697.697 0 0 0-.017.291c.015.096.049.19.1.273a.673.673 0 0 0 .732.262.682.682 0 0 0 .245-.123.8.8 0 0 0 .192-1.048c.108 0 .317 0 .342-.057.025-.057.225-.406 0-.577-.226-.17-.476.065-.501.13a.608.608 0 0 0 .05.431.63.63 0 0 0-.784-.033zM229.182 177.432a.963.963 0 0 0 .503-.511.93.93 0 0 0 .006-.707 1.245 1.245 0 0 0-.616-.49 1.283 1.283 0 0 0-.794-.03 1.318 1.318 0 0 0-.541.728c-.086.297-.064.615.065.897.234.333.918.381 1.377.113zM235.215 172.982a.85.85 0 0 0-.401.917c.059.374 0 1.154.492 1.34.493.187.635-.292.877-.422a1.36 1.36 0 0 0 .634-.812 1.24 1.24 0 0 0 .442-.154 1 1 0 0 0 .05-1.397c-.417-.593-.876-.666-1.535-.252-.283.18-.483.46-.559.78zM227.68 164.252a.853.853 0 0 0 .149-.322.857.857 0 0 0 .01-.353.638.638 0 0 0-.442-.272.645.645 0 0 0-.501.143 1.344 1.344 0 0 0-.175.544c.308.414.792.511.959.26zM236.983 176.726a.591.591 0 0 0-.287.397.576.576 0 0 0 .121.472c.045.06.099.114.158.162a.835.835 0 0 0-.309.236.626.626 0 0 0-.137.504.627.627 0 0 0 .304.43.846.846 0 0 0 .993-.22.608.608 0 0 0 0-.706.834.834 0 0 0 .457-.38.79.79 0 0 0 .077-.579c.22.19.401.419.534.674a.885.885 0 0 0 .676.301c.37.011.738.052 1.101.122a.944.944 0 0 0 .664-.134.9.9 0 0 0 .388-.54c.117-.642-.059-.999-.676-1.121a4.73 4.73 0 0 0-1.077 0l-.208-.536a.753.753 0 0 0-.295-.382.79.79 0 0 0-.473-.13c-.467 0-.726.341-.926.723a.74.74 0 0 0-.05.642 1.073 1.073 0 0 0-1.035.065zM226.512 167.654c.267-.219.184-.812.058-1.039a.581.581 0 0 0-.415-.253.604.604 0 0 0-.469.139.46.46 0 0 0-.165.154.446.446 0 0 0-.074.209.464.464 0 0 0 .164.401c.167.178.642.609.901.389zM246.47 167.76c-.133-.057-.484.13-.617.292a.363.363 0 0 0-.094.365c.02.063.056.12.106.165a.389.389 0 0 0 .18.087c.143.031.288.051.434.057-.551.301-.626.658-.259 1.275.367.618.834.764 1.218.52.266-.239.44-.56.493-.909.058.325.243.616.517.812a.987.987 0 0 0 .513.061.968.968 0 0 0 .471-.208 1.138 1.138 0 0 0 .434 1.405 1.05 1.05 0 0 0 .835.074c.234-.089.443-.231.609-.415v-1.494a2.322 2.322 0 0 0-.601-.211 1.205 1.205 0 0 0-.834.162c.3-.584.233-.999-.226-1.267a1.341 1.341 0 0 0-.864-.114 1.315 1.315 0 0 0-.746.439.965.965 0 0 0-.058.146.224.224 0 0 0 0-.073.83.83 0 0 0-.354-.327.857.857 0 0 0-.481-.079c-.008-.235-.442-.666-.676-.763zM248.69 175.987a.856.856 0 0 0 .516-.068.813.813 0 0 0 .461-.852.805.805 0 0 0-.234-.453.858.858 0 0 0-.589-.006.823.823 0 0 0-.446.372.726.726 0 0 0-.065.562.755.755 0 0 0 .357.445zM241.915 168.174c-.251-.114-.776.301-.977.495-.2.195 0 .666.326.813a.762.762 0 0 0 .459.056.304.304 0 0 0 .075.203 1.328 1.328 0 0 0 1.31.074 1.018 1.018 0 0 0 0-1.17.587.587 0 0 0-.835 0l-.133.146c-.042-.26-.067-.544-.225-.617zM248.524 167.078c.125-.13 0-.406-.15-.504a.398.398 0 0 0-.527.09.365.365 0 0 0 .084.471.561.561 0 0 0 .593-.057zM223.975 169.66a.91.91 0 0 0 .489-.522.882.882 0 0 0-.055-.704 1.244 1.244 0 0 0-.667-.553 1.28 1.28 0 0 0-.876.009 1.306 1.306 0 0 0-.505.712c-.08.287-.059.59.062.863a1.329 1.329 0 0 0 1.552.195zM244.092 180.397c.308-.252.524-.593.619-.973a1.79 1.79 0 0 0-.093-1.139 1.102 1.102 0 0 0-.651-.406.792.792 0 0 0-.091-.812.77.77 0 0 0-.473-.324.787.787 0 0 0-.57.088.871.871 0 0 0-.297.54c-.03.209.02.421.138.597l.1.106-.075.065a1.075 1.075 0 0 0-.985.438c-.074.251-.058.518.045.76.103.24.288.439.523.564.066.02.133.037.2.049.219.245.511.418.835.495h.542a.739.739 0 0 0 .233-.048zM222.908 177.562a.96.96 0 0 0-.323.27.912.912 0 0 0 .039 1.16c.35.519.876.69 1.26.422.26-.208.441-.494.515-.813a1.428 1.428 0 0 0-.106-.949 1.14 1.14 0 0 0-.677-.277 1.14 1.14 0 0 0-.708.187zM225.235 173.225c.693.236.176.756 1.168 1.016.993.259 1.828-.423 1.611-1.097-.217-.674-.835-.763-.835-.926 0-.162.192-.909-.367-1.047-1.185-.293-1.185.812-1.56.812s-1.035-.382-1.594-.406c-.784 0-1.51.39-1.443 1.202-.003.184.033.368.108.537.075.17.186.322.325.447s.304.22.485.279c.179.058.37.079.559.061 1.084-.017.851-1.121 1.543-.878zM220.913 175.158a.518.518 0 0 0 .262-.607.508.508 0 0 0-.12-.205.94.94 0 0 0-.692-.292c-.217 0-.601.641-.418.926a.72.72 0 0 0 .968.178zM240.738 164.235c.184.088.388.127.593.114a1.248 1.248 0 0 0-.433.496c-.097.2-.137.421-.118.641.124.171.298.301.498.376.2.075.419.091.628.046a.569.569 0 0 0 .357-.334.532.532 0 0 0-.048-.478c-.209-.52-.509-.812-.784-.812a1.35 1.35 0 0 0 .926-.674.953.953 0 0 0 .092-.382h-2.32a.931.931 0 0 0 .127.605c.11.183.28.324.482.402zM228.523 163.675c.292.309.834.13 1.043 0a.348.348 0 0 0 .182-.17.332.332 0 0 0 .018-.244h-1.318a.364.364 0 0 0 .075.414zM222.399 164.804c-.167-.366-.835-.268-1.144-.374a1.48 1.48 0 0 0-.166.179.659.659 0 0 0 .15.812c.132.183.323.317.542.382.184-.301.784-.626.618-.999zM209.416 180.031a1.577 1.577 0 0 0-.459.447h1.977a1.117 1.117 0 0 0-.664-.531 1.15 1.15 0 0 0-.854.084zM248.673 173.152a2.284 2.284 0 0 0-.417-.755c-.325-.276-.876-.041-1.085.382a.646.646 0 0 0-.005.52.678.678 0 0 0 .381.365.945.945 0 0 0 .666-.042.902.902 0 0 0 .46-.47zM218.994 174.094c.19-.229.291-.517.284-.812-.042-.292-.668-.414-.926-.17a1.48 1.48 0 0 0-.259.568c.242.471.693.642.901.414zM218.085 179.56a1.538 1.538 0 0 0 1.777.073.598.598 0 0 0 .294-.324.579.579 0 0 0-.01-.431 4.285 4.285 0 0 0-1.611-1.917 1.358 1.358 0 0 0-.392-.097.97.97 0 0 0-.964.4.912.912 0 0 0-.012 1.021c.243.464.551.894.918 1.275zM216.333 176.109c-.175 0-.351.219-.384.357-.034.138.125.471.342.503.217.033.368-.341.36-.454a.497.497 0 0 0-.318-.406zM221.673 166.574c.075.065.175.179.284.138.108-.04.041-.162.075-.26-.117 0-.201-.097-.276-.073-.075.025-.083.179-.083.195zM217.242 170.074c.325-.13.167-.601.083-.73-.083-.13-.325-.358-.575-.22a.467.467 0 0 0-.167.585c.083.138.342.495.659.365zM249.666 163.48h.092a.355.355 0 0 0 0 .13c.057.227.164.439.316.62.152.182.343.328.56.428.207.067.427.084.642.048v-1.388h-2.394a.75.75 0 0 0 .784.162zM233.012 179.666a1.262 1.262 0 0 0-.86-.614 1.3 1.3 0 0 0-1.034.248 1.418 1.418 0 0 0-.555.486 1.378 1.378 0 0 0-.23.692h2.854a1.286 1.286 0 0 0-.175-.812zM229.182 165.868a1.32 1.32 0 0 0-.4.712c-.054.273-.019.555.1.806.19.183.435.302.7.338.264.037.534-.01.768-.135a.912.912 0 0 0 .327-.476.894.894 0 0 0-.026-.571c-.418-.642-1.085-.942-1.469-.674zM236.691 164.357a1.013 1.013 0 0 0 .652.501 1.03 1.03 0 0 0 .817-.144c.264-.123.472-.337.585-.601.112-.263.121-.558.024-.828h-2.311c-.038.372.044.746.233 1.072zM212.928 175.873c.125.43 1.16.56 1.335.276.175-.284-.334-1.169-.776-1.08a.77.77 0 0 0-.432.301.739.739 0 0 0-.127.503zM231.043 176.872c-.318 0-.418.479-.267.812.15.333.542.43.784.244.242-.187.526-.439.359-.723-.167-.284-.593-.349-.876-.333zM229.357 169.944a.73.73 0 0 0-.274.453.714.714 0 0 0 .107.514c.234.471.835.812 1.235.65.743-.333.626-1.154.543-1.576-.084-.422-1.093-.487-1.611-.041zM247.664 179.243a.858.858 0 0 0-.059.163 1.633 1.633 0 0 0-.292-.252.854.854 0 0 0-.96-.037.808.808 0 0 0-.241.232c-.217.357-.393.739-.584 1.129h4.372l.175-.252c.165-.241.226-.537.168-.821a1.095 1.095 0 0 0-.477-.698.933.933 0 0 0 .159-.593c.236-.057.445-.192.592-.381.234-.358.075-.666-.083-.983-.159-.317-.201-.617-.626-.731-.426-.114-1.051.357-1.118.869-.014.258.049.516.183.739a.822.822 0 0 0-.343.407.795.795 0 0 0-.015.527c-.181.053-.35.141-.496.258a1.391 1.391 0 0 0-.355.424zM209.657 174.492a.477.477 0 0 0 .31-.297.456.456 0 0 0-.068-.417c-.116-.171-.525-.544-.901-.301-.375.244-.1.691 0 .812a.74.74 0 0 0 .659.203zM226.495 180.137a1.853 1.853 0 0 0-.417.341h1.953a1.23 1.23 0 0 0-.704-.445 1.247 1.247 0 0 0-.832.104zM215.214 180.12c.309-.146.159-.86-.317-1.193-.475-.333-1.018.235-1.101.511-.084.276 1.118.853 1.418.682zM214.205 165.746c.268-.179.076-.463 0-.577a.483.483 0 0 0-.467-.057.495.495 0 0 0-.109.479.423.423 0 0 0 .105.126.423.423 0 0 0 .471.029zM214.43 169.465c-.5.236-.742.561-.292 1.08.451.52 1.318-.04 1.318-.373s-.675-.877-1.026-.707zM231.952 173.079c-.217.065-.759 0-.926.35-.167.349.701 1.307.91 1.38.208.073.834 0 .792.455-.042.455-.359.861-.117 1.251.242.389.776 1.331 1.519 1.242.743-.089.492-.674.734-1.015a.934.934 0 0 0-.158-1.251c-.426-.349-1.002-.487-1.135-.731-.134-.243-.192-.568.209-.722.4-.155.692-.756.308-1.535-.384-.78-1.527-.918-1.835-.366-.309.553-.075.845-.301.942zM238.035 179.26c-.462.276-.8.711-.952 1.218h3.872a1.6 1.6 0 0 0-.35-1.024 2.269 2.269 0 0 0-2.57-.194zM251.06 167.687a.276.276 0 0 0-.182.155.27.27 0 0 0 .015.235c.075.195.192.268.401.195v-.618a.416.416 0 0 0-.234.033z" fill="#01ADA1"/><path d="M245.361 174.395c-.237.028-.46.128-.636.286a1.107 1.107 0 0 0-.349.591.712.712 0 0 0 .148.531.752.752 0 0 0 .486.281.764.764 0 0 0 .506-.001.737.737 0 0 0 .387-.316c.269.108.562.151.853.125.29-.025.57-.118.816-.271a1.038 1.038 0 0 0 .489-.709 1.019 1.019 0 0 0-.222-.826c-.676-.812-1.018-.812-1.986-.341a.978.978 0 0 0-.32.272.935.935 0 0 0-.172.378zM250.434 174.013c.045.221.145.428.29.604.145.175.332.313.544.403v-2.59h-.058a1.353 1.353 0 0 0-.694.649 1.297 1.297 0 0 0-.082.934zM251.001 176.929a1.91 1.91 0 0 0 .293 1.624v-1.852a.588.588 0 0 0-.293.228zM250.509 180.218a1.411 1.411 0 0 0 0 .26h.834v-1.162a1.375 1.375 0 0 0-.529.354 1.316 1.316 0 0 0-.305.548zM232.152 169.668a.738.738 0 0 0 .985.179.658.658 0 0 0 .359-.39.626.626 0 0 0-.059-.52.723.723 0 0 0-.446-.367.766.766 0 0 0-.58.067.807.807 0 0 0-.326.469.79.79 0 0 0 .067.562zM233.354 164.568a1.249 1.249 0 0 0-.619.726 1.197 1.197 0 0 0 .093.939c.206.341.531.598.916.722.386.124.805.107 1.179-.048.31-.225.534-.545.636-.909.101-.363.074-.75-.077-1.097-.342-.649-1.252-.796-2.128-.333zM245.995 164.308a1.405 1.405 0 0 0 .067 1.275.927.927 0 0 0-1.052-.17c-.642.43-.884.974-.617 1.372.145.228.377.389.644.45.268.061.549.016.783-.125a1.01 1.01 0 0 0 .462-.627.986.986 0 0 0-.129-.762c.078.103.174.191.284.26.286.201.637.295.988.263.351-.031.679-.185.923-.433.174-.352.228-.748.152-1.132a1.81 1.81 0 0 0-.569-.996 1.506 1.506 0 0 0-1.052-.097c.041-.098.075-.199.1-.301h-2.052c.032.237.123.464.267.658a1.06 1.06 0 0 0 .801.365zM238.61 171.544a.65.65 0 0 0-.348.67.636.636 0 0 0 .098.248.638.638 0 0 0 .668.372.649.649 0 0 0 .258-.088.765.765 0 0 0 .391-.423.734.734 0 0 0-.024-.567.713.713 0 0 0-.203-.21.776.776 0 0 0-.271-.115.767.767 0 0 0-.569.113zM239.195 169.36c-.343.398-.109.763.233 1.047.601-.04.901-.3.901-.958-.4-.268-.801-.528-1.134-.089zM240.338 173.437a.85.85 0 0 0 .984-.098 1.439 1.439 0 0 0-.523.807 1.41 1.41 0 0 0 .106.947 1.433 1.433 0 0 0 .916.721 1.493 1.493 0 0 0 1.162-.177 1.11 1.11 0 0 0 .518-.583c.095-.25.095-.524-.001-.773a.42.42 0 0 0 .15-.073c.257-.219.426-.518.479-.846a1.383 1.383 0 0 0-.187-.949 1.538 1.538 0 0 0-.852-.562 1.584 1.584 0 0 0-1.025.083c-.275.165-.491.41-.617.699a.668.668 0 0 0-.267-.374.967.967 0 0 0-.581-.074.94.94 0 0 0-.512.277.707.707 0 0 0-.077.537.718.718 0 0 0 .327.438z" fill="#01ADA1"/><path d="M271.736 198.653c-5.754 0-11.272-2.224-15.341-6.184-4.068-3.96-6.353-9.331-6.353-14.931v-8.934c.267-5.418 2.667-10.528 6.701-14.27 4.035-3.743 9.395-5.83 14.968-5.83 5.572 0 10.932 2.087 14.967 5.83 4.034 3.742 6.434 8.852 6.701 14.27v8.934c0 5.591-2.278 10.955-6.336 14.914-4.057 3.958-9.563 6.188-15.307 6.201zm0-38.982a9.305 9.305 0 0 0-6.49 2.617 8.812 8.812 0 0 0-2.689 6.316v8.934c0 2.369.967 4.641 2.689 6.317a9.308 9.308 0 0 0 6.49 2.616 9.308 9.308 0 0 0 6.489-2.616 8.814 8.814 0 0 0 2.689-6.317v-8.934a8.816 8.816 0 0 0-2.694-6.306 9.308 9.308 0 0 0-6.484-2.611v-.016z" fill="#7DE2D1"/><path d="m164.242 226.687.309.082s.233.048.083 0c-.15-.049.334.081.426.089.091.008.383 0 .567 0 1.093.065 2.178.122 3.271.138 3.671.049 7.401.268 11.072.065 1.085-.057 2.136-.292 3.229-.317 1.093-.024 2.27 0 3.413 0 2.236.049 4.472.114 6.675.146 3.863.049 7.718.09 11.581.082 1.919 0 3.838.048 5.766.105.295-.004.577-.12.786-.323.208-.203.327-.478.332-.765.075-2.656.083-5.311.108-7.967 0-1.787 0-3.565-.108-5.344 0-.601-.042-1.21-.109-1.803 0-.219-.067-.438-.108-.649-.075-.398 0-.406 0 0a.873.873 0 0 0-.291-.566.922.922 0 0 0-1.212 0 .869.869 0 0 0-.291.566c0-.431.067-.423 0 0 0 .211-.084.43-.109.649-.066.593-.075 1.202-.116 1.803-.109 1.779-.117 3.557-.101 5.344 0 2.656 0 5.311.109 7.967l1.118-1.088c-5.248.138-10.497.089-15.737.154-2.219 0-4.438.073-6.675.122a36.659 36.659 0 0 1-6.675-.057 37.679 37.679 0 0 0-6.283-.211c-1.76 0-3.512 0-5.273.049-1.377 0-2.745.04-4.113.129l-.643.041h-.284c-.091 0-.509.114-.358.073l-.409.106a.678.678 0 0 0-.494.645.68.68 0 0 0 .494.646l.05.089zM211.009 161.466c.676-.341.668-1.413.693-2.047.025-.633.058-1.234.058-1.859a9.981 9.981 0 0 0 0-1.121 1.854 1.854 0 0 0-.242-.723c-.058-.089-.2-.414-.133-.162.066.251 0-.252 0-.244.117-1.746.283-3.492.275-5.246 0-1.568.167-3.119.209-4.678 0-.853.075-2.201-.593-2.883l.259.617a.871.871 0 0 0-.291-.565.918.918 0 0 0-1.212 0 .871.871 0 0 0-.291.565l.267-.617a3.726 3.726 0 0 0-.601 2.436c0 1.551.225 3.111.217 4.662 0 1.819.225 3.614.267 5.425.021.191.021.385 0 .576.05-.276.059-.162 0 0a1.37 1.37 0 0 0-.125.244 3.394 3.394 0 0 0-.159 1.446c0 .657 0 1.307.059 1.965.058.658.142 2.777 1.385 2.152l-.042.057zM83.549 127.04l-.1.398c0-.179-.075.39-.084.625-.008.236 0 .455 0 .683-.075 1.388-.075 2.769-.075 4.166 0 2.111 0 4.231.05 6.342a28.065 28.065 0 0 0 .175 3.744c.203 1.274.298 2.561.284 3.85-.05 5.685-.109 11.369 0 17.054.083 4.971 0 9.941 0 14.911 0 1.852 0 3.695.192 5.539l.125 1.624c0 .073.067.52 0 .097.01.129.03.256.058.382v.203a.981.981 0 0 0 .459.715l-.442-.756v.057a.87.87 0 0 0 .291.565.914.914 0 0 0 1.212 0 .87.87 0 0 0 .291-.565v-.057l-.442.756c.76-.415.576-1.901.609-2.599.075-1.478.108-2.956.075-4.434-.1-4.759-.367-9.51-.434-14.269a646.279 646.279 0 0 0-.467-17.055c-.05-1.38-.108-2.753-.092-4.134.017-1.38.284-2.574.267-3.898 0-2.201-.058-4.401-.125-6.602-.05-1.746-.067-3.501-.217-5.247-.024-.589-.1-1.176-.225-1.754.067.26 0-.195-.075-.316a.668.668 0 0 0-.25-.347.7.7 0 0 0-1.077.347l.017-.025zM195.898 126.285c-4.639-.682-9.537-.358-14.226-.39h-10.146c-3.771 0-7.509.406-11.272.365-8.4-.086-16.805-.154-25.216-.203-4.171 0-8.293.041-12.44 0-4.147-.04-8.094-.138-12.14-.146H98.284a99.474 99.474 0 0 0-10.33.366.914.914 0 0 0-.58.283.865.865 0 0 0 0 1.179.91.91 0 0 0 .58.284c6.517.641 13.2.284 19.742.243 8.093-.056 16.178-.227 24.272-.235 8.461 0 16.921-.163 25.382-.284 1.961 0 3.922-.057 5.882 0 1.961.056 3.755.268 5.641.316 3.504.098 7.025 0 10.53 0 3.195 0 6.391-.065 9.578-.089a51.722 51.722 0 0 0 6.917-.357.692.692 0 0 0 .357-.244.66.66 0 0 0 0-.804.692.692 0 0 0-.357-.244v-.04zM231.685 222.919v15.934h16.371l-16.371-15.934z" fill="#E6EBF2"/><path d="M200.471 135.795h10.121v-9.851h-10.121v9.851z" fill="#F9B110"/><path d="M160.179 212.703h-75.87v29.528h75.87v-29.528z" fill="#1BA9F5"/><path d="M70.55 233.68c3.073 0 5.564-2.425 5.564-5.417s-2.491-5.417-5.565-5.417c-3.074 0-5.565 2.425-5.565 5.417s2.492 5.417 5.565 5.417z" fill="#7DE2D1"/><path d="M96.716 233.68c3.073 0 5.565-2.425 5.565-5.417s-2.492-5.417-5.566-5.417c-3.073 0-5.565 2.425-5.565 5.417s2.492 5.417 5.566 5.417zM121.204 233.68c3.074 0 5.566-2.425 5.566-5.417s-2.492-5.417-5.566-5.417c-3.073 0-5.565 2.425-5.565 5.417s2.492 5.417 5.565 5.417zM145.694 233.68c3.074 0 5.565-2.425 5.565-5.417s-2.491-5.417-5.565-5.417c-3.074 0-5.566 2.425-5.566 5.417s2.492 5.417 5.566 5.417z" fill="#07C"/><path d="M211.727 96.846c.609-3.12.242-6.498-.209-9.592a45.707 45.707 0 0 0-2.194-8.844 29.822 29.822 0 0 0-1.761-4.223c-.726-1.34-1.552-2.631-2.328-3.938a65.036 65.036 0 0 0-4.914-7.26c-7.534-9.298-17.71-16.234-29.262-19.947-6.066-1.949-12.866-3.337-19.266-2.485-.935.122-.617 1.446.209 1.51 5.59.431 11.047.813 16.479 2.348a60.288 60.288 0 0 1 15.744 6.749 62.715 62.715 0 0 1 13.25 10.85 53.594 53.594 0 0 1 5.332 6.813 44.89 44.89 0 0 1 3.847 7.927 50.874 50.874 0 0 1 2.82 9.46c.676 3.485.642 6.985 1.085 10.477.075.593 1.043.87 1.184.154h-.016zM78.893 241.46c-2.854-.569-5.95-.357-8.853-.39-4.68-.049-9.428-.276-14.076.236-1.06.077-2.124.101-3.187.073l.742.723c-.066-3.249.109-6.497.176-9.746.091-5.108.108-10.216.1-15.325v-3.606a1.02 1.02 0 0 0-.5-.852c.127.078.235.182.316.305a.973.973 0 0 1-.117 1.213s-.575.358-.292.203c.134-.081.15 0-.091 0h.3c.292 0 .584 0 .884-.048 3.597-.13 7.218 0 10.847.057 4.498.056 9.12.414 13.592-.09.91-.105 1.335-1.551.242-1.721-4.447-.691-9.086-.528-13.583-.545-2.587 0-5.165 0-7.752.098-1.243.041-2.503.081-3.73.203a5.998 5.998 0 0 0-1.326.187c-.784.276-1.185 1.429-.292 1.868l-.5-.853c.074 3.248 0 6.497 0 9.745.05 5.106.119 10.214.208 15.325 0 1.202.083 2.436.058 3.606.002.189.08.369.218.503a.755.755 0 0 0 .517.212c2.97.056 5.899.349 8.869.349 4.64 0 9.312.097 13.943-.13a21.322 21.322 0 0 0 3.337-.293.688.688 0 0 0 .347-.244.661.661 0 0 0 0-.794.69.69 0 0 0-.347-.245l-.05-.024z" fill="#E6EBF2"/><path d="M229.024 107.996h-18.432v17.94h18.432v-17.94z" fill="#FEC514"/><path d="M77.958 86.629a9.062 9.062 0 0 1-4.935-1.456 8.708 8.708 0 0 1-3.273-3.88 8.434 8.434 0 0 1-.508-4.995 8.58 8.58 0 0 1 2.427-4.428 8.963 8.963 0 0 1 4.546-2.371 9.113 9.113 0 0 1 5.132.486 8.836 8.836 0 0 1 3.992 3.178 8.485 8.485 0 0 1 1.506 4.8 8.546 8.546 0 0 1-2.605 6.114 9.024 9.024 0 0 1-6.282 2.536v.016zm0-13.254c-.934 0-1.847.27-2.624.775a4.625 4.625 0 0 0-1.74 2.064 4.483 4.483 0 0 0-.267 2.657c.183.892.634 1.711 1.295 2.354a4.762 4.762 0 0 0 2.42 1.256 4.837 4.837 0 0 0 2.73-.265 4.7 4.7 0 0 0 2.117-1.697 4.509 4.509 0 0 0-.592-5.803 4.728 4.728 0 0 0-1.532-.994 4.831 4.831 0 0 0-1.807-.347z" fill="#FA744E"/><path d="M97.391 27.994h-4.639v-3.249H97.4v-4.442h3.337v4.459h4.648v3.248h-4.656v4.385h-3.338v-4.401z" fill="#E6EBF2"/></svg>