<?xml version="1.0" encoding="UTF-8" standalone="no"?>
<!-- Created with Inkscape (http://www.inkscape.org/) -->

<svg
   xmlns:dc="http://purl.org/dc/elements/1.1/"
   xmlns:cc="http://creativecommons.org/ns#"
   xmlns:rdf="http://www.w3.org/1999/02/22-rdf-syntax-ns#"
   xmlns:svg="http://www.w3.org/2000/svg"
   xmlns="http://www.w3.org/2000/svg"
   xmlns:sodipodi="http://sodipodi.sourceforge.net/DTD/sodipodi-0.dtd"
   xmlns:inkscape="http://www.inkscape.org/namespaces/inkscape"
   version="1.1"
   id="svg3767"
   width="109.84255"
   height="109.77177"
   viewBox="0 0 109.84255 109.77177"
   sodipodi:docname="IBM_AIX_logo.svg"
   inkscape:version="0.92.4 (5da689c313, 2019-01-14)">
  <metadata
     id="metadata3773">
    <rdf:RDF>
      <cc:Work
         rdf:about="">
        <dc:format>image/svg+xml</dc:format>
        <dc:type
           rdf:resource="http://purl.org/dc/dcmitype/StillImage" />
        <dc:title></dc:title>
      </cc:Work>
    </rdf:RDF>
  </metadata>
  <defs
     id="defs3771" />
  <sodipodi:namedview
     pagecolor="#ffffff"
     bordercolor="#666666"
     borderopacity="1"
     objecttolerance="10"
     gridtolerance="10"
     guidetolerance="10"
     inkscape:pageopacity="0"
     inkscape:pageshadow="2"
     inkscape:window-width="1920"
     inkscape:window-height="1015"
     id="namedview3769"
     showgrid="false"
     fit-margin-top="0"
     fit-margin-left="0"
     fit-margin-right="0"
     fit-margin-bottom="0"
     inkscape:zoom="5.8428571"
     inkscape:cx="79.033262"
     inkscape:cy="57.027081"
     inkscape:window-x="0"
     inkscape:window-y="0"
     inkscape:window-maximized="1"
     inkscape:current-layer="svg3767" />
  <path
     style="fill:#7bba00"
     d="M 40.529212,108.39939 C 21.675193,103.22264 6.4461125,87.852341 1.4064525,68.91385 c -1.87527,-7.047068 -1.87527,-20.937808 0,-27.984876 C 6.4746925,21.883076 21.882812,6.4749572 40.928713,1.4067222 c 7.032809,-1.87147696 20.93352,-1.87643396 27.94709,-0.01 19.322391,5.142121 34.427877,20.2476058 39.569997,39.5699988 1.86646,7.013571 1.86151,20.914278 -0.01,27.947095 -5.06823,19.045905 -20.476345,34.454024 -39.522247,39.522254 -6.75167,1.79666 -21.77791,1.77723 -28.38437,-0.0367 z m 27.85038,-3.00917 c 8.65777,-2.25506 16.689262,-6.936519 23.381552,-13.628809 20.437366,-20.437366 20.437366,-53.242632 0,-73.679999 -20.437362,-20.4373668 -53.242632,-20.4373668 -73.680002,0 C 1.7508125,34.411741 -1.8950475,59.476781 9.0680625,80.045686 15.190732,91.532981 28.318512,101.92138 41.033472,105.34086 c 7.1516,1.92331 20.06208,1.94661 27.34612,0.0494 z M 42.025773,101.4015 C 25.109833,96.656251 11.383633,82.087761 7.8616025,65.140888 6.2607425,57.438056 7.1896525,44.802606 9.8791925,37.696646 14.478623,25.544623 25.323093,14.686785 37.801943,9.7394702 c 8.130789,-3.223502 26.10761,-3.223502 34.23841,0 12.413802,4.9215238 23.136912,15.6193618 28.023237,27.9571758 3.26361,8.240532 3.28422,26.159632 0.0395,34.343971 -4.886785,12.326198 -15.898375,23.336694 -27.938907,27.936124 -7.53241,2.877349 -22.44677,3.582409 -30.1384,1.424759 z M 24.921143,63.421412 c 0.509005,-1.542299 0.971415,-3.303528 1.65484,-3.786073 0.858842,-0.606403 2.294214,-0.227374 5.602102,-0.227374 3.238343,0 4.646661,-0.298692 5.537231,0.431075 0.726917,0.595665 1.123168,2.033622 1.770277,3.582372 0.492919,1.17972 1.049114,2.580874 1.432322,3.234937 0.228656,0.390273 1.455362,0.265063 2.502057,0.265063 h 2.47199 l -1.88018,-4.75 c -6.278764,-15.86238 -8.45464,-21.339783 -9.830353,-23.431564 -0.521837,-0.450914 -1.200964,-0.342819 -1.808941,-0.325711 -0.665735,0.01873 -1.246158,-0.02053 -1.441342,0.216377 -1.067078,1.318902 -2.718101,5.472063 -4.990584,11.040898 -2.412709,5.9125 -4.985149,12.2125 -5.71651,14 -0.715922,1.749766 -1.481879,2.852208 -1.158158,3.296022 0.257412,0.352905 1.392612,0.210702 2.435427,0.210702 0.996126,0 2.04455,0.152557 2.336632,-0.46839 0.531157,-1.129208 0.655915,-1.993672 1.08319,-3.288334 z m 4.658479,-11.75 c 2.37412,-6.143881 2.888303,-6.339977 4.70682,-1.795058 1.34807,3.369157 2.62182,5.209822 1.877548,5.871813 -0.514399,0.457531 -2.39504,0.173245 -4.234748,0.173245 h -3.9919 z m 24.341521,1.25 -0.08558,-15.369193 -2.585574,-0.04279 -2.457213,0.128361 0.128362,15.283619 v 14 h 2.5 2.5 z m 13.67013,8.476909 4.084765,-6.551768 4.076196,6.430747 c 2.077877,3.278127 2.287986,4.935394 3.442385,5.466405 1.065842,0.490276 2.053227,0.315385 3.23669,0.328983 l 2.633135,0.03025 -5.132162,-7.071222 c -2.756119,-3.78933 -5.695735,-7.469747 -5.695735,-7.864931 0,-0.395184 3.128906,-4.551238 5.937556,-8.057711 l 6.074512,-7.583755 c -1.17765,-0.03687 -3.043903,-0.09631 -4.218264,-9.75e-4 -1.127135,0.501727 -1.807346,2.273229 -5.464838,7.371239 -1.927091,2.686084 -4.748873,5.832962 -5.043973,5.847145 -0.2951,0.01418 -2.024417,-2.814636 -4.077477,-5.564636 -1.568849,-2.269981 -2.710041,-4.965278 -4.029981,-7.23751 -0.21461,-0.143099 -0.607254,-0.0372 -2.145576,-0.02458 -1.282918,0.05953 -2.483992,0.162093 -2.69654,0.239294 0.583197,0.605963 3.979442,7.254865 5.988896,9.892259 l 4.165629,5.384156 -5.414189,7.365844 -5.53521,7.123803 h 2.87984 c 1.070968,0 2.378944,0.05647 3.439495,-0.374776 0.976441,-0.397042 2.076735,-3.14555 3.857907,-5.571887 z"
     id="path3781"
     inkscape:connector-curvature="0"
     sodipodi:nodetypes="cssscccscccssssscccsssscsscccsssssscscscccsssccssscccccccccccccsssccssccscccccscccsscc" />
  <path
     style="fill:#ffffff;stroke-width:0.17114915"
     d="m 19.080865,66.883462 c -0.05755,-0.09311 0.237924,-0.959553 0.6566,-1.925428 0.418675,-0.965875 2.583388,-6.223128 4.810473,-11.682786 4.280647,-10.493927 5.996331,-14.311359 6.569995,-14.618375 0.191177,-0.102314 0.853268,-0.186026 1.471315,-0.186026 0.889997,0 1.193881,0.07016 1.461044,0.337323 0.739723,0.739723 2.021963,3.675589 6.505369,14.894951 4.053708,10.14408 5.137748,12.899398 5.137748,13.058681 0,0.06589 -0.989287,0.119803 -2.198412,0.119803 -1.876387,0 -2.23812,-0.04387 -2.469474,-0.299518 -0.149083,-0.164734 -0.709218,-1.377754 -1.244745,-2.695599 -1.310203,-3.22419 -1.706621,-3.970631 -2.260629,-4.256691 -0.365906,-0.188935 -1.598571,-0.256028 -5.575182,-0.303448 l -5.10541,-0.06088 -0.491936,0.550219 c -0.356799,0.39907 -0.75308,1.360024 -1.44257,3.498138 -0.522848,1.621357 -1.067248,3.125898 -1.209777,3.343426 -0.247737,0.378094 -0.352701,0.395503 -2.384463,0.395503 -1.216717,0 -2.170048,-0.07237 -2.229946,-0.169293 z M 35.937908,55.878784 c 0.264757,-0.133272 0.44818,-0.389778 0.481138,-0.672852 0.05555,-0.47712 -2.63189,-6.907207 -3.30319,-7.90335 -0.684189,-1.015268 -1.306292,-0.727796 -2.184255,1.009341 -0.408506,0.808268 -3.037703,7.349197 -3.037703,7.55721 0,0.0271 1.058985,0.07306 2.353301,0.10213 1.294315,0.02908 3.007946,0.06862 3.808068,0.08788 0.89667,0.02158 1.618915,-0.04761 1.882641,-0.18036 z"
     id="path3866"
     inkscape:connector-curvature="0" />
  <path
     style="fill:#ffffff;stroke-width:0.17114915"
     d="m 48.987069,52.29114 0.04375,-14.590464 2.325297,-0.04744 2.325296,-0.04744 0.113579,8.247931 c 0.06247,4.536361 0.113579,11.123416 0.113579,14.637898 v 6.38997 H 51.425944 48.94332 Z"
     id="path3868"
     inkscape:connector-curvature="0" />
  <path
     style="fill:#ffffff;stroke-width:0.17114915"
     d="m 79.727121,66.851128 c -0.85727,-0.2284 -1.177295,-0.619809 -2.432915,-2.9756 -1.144204,-2.146748 -5.328854,-8.851622 -5.580082,-8.940708 -0.1324,-0.04695 -2.986052,4.426418 -5.583983,8.753417 -1.474227,2.455409 -1.837623,2.822 -3.004647,3.031059 -0.531546,0.09522 -1.906344,0.151439 -3.055106,0.124932 l -2.088658,-0.0482 2.717701,-3.508557 c 3.576257,-4.616955 7.985013,-10.608323 7.985013,-10.851394 0,-0.106199 -0.924499,-1.385648 -2.054442,-2.843219 -1.129944,-1.457572 -2.374637,-3.120965 -2.765984,-3.696429 -0.806735,-1.186277 -4.992125,-8.40455 -4.992125,-8.609596 0,-0.128264 2.422144,-0.35633 3.784359,-0.35633 0.742148,0 0.551171,-0.268391 2.76175,3.881244 1.169684,2.195697 5.220907,8.251563 5.89353,8.80979 0.558703,0.463683 4.005376,-3.652187 7.832823,-9.353626 1.011074,-1.506113 2.06326,-2.950183 2.338194,-3.209047 0.487929,-0.459409 0.548865,-0.47066 2.549134,-0.47066 h 2.049256 l -3.991875,5.006113 c -3.605745,4.521874 -6.930723,8.869512 -7.713388,10.085789 -0.362784,0.563773 -0.571288,0.213952 2.990956,5.018123 1.465758,1.976772 3.692783,5.018948 4.948944,6.760391 1.256163,1.741442 2.357949,3.262531 2.448415,3.380196 0.129839,0.168874 -0.317591,0.21021 -2.124199,0.196248 -1.258774,-0.0097 -2.569475,-0.0925 -2.912671,-0.183938 z"
     id="path3870"
     inkscape:connector-curvature="0" />
  <path
     style="fill:#ffffff;stroke-width:0.17114915"
     d="M 51.255756,106.6583 C 43.119239,106.1642 38.624857,105.0147 32.258201,101.79943 22.161257,96.700285 13.579278,88.485987 8.8304881,79.375439 5.6470204,73.26796 3.6779954,66.43463 3.0604566,59.351042 2.7907868,56.257748 2.9548764,50.530906 3.3965275,47.621935 4.8201273,38.245281 8.4844757,29.742615 14.199931,22.553976 16.054428,20.221475 20.306158,15.966899 22.588275,14.160018 34.242011,4.9330945 48.934327,1.1395062 63.578495,3.5762524 82.205532,6.6757363 98.015173,20.101811 104.16418,38.042974 c 2.11361,6.166952 2.92148,11.536084 2.75138,18.285886 -0.20419,8.102942 -2.02082,15.219145 -5.71977,22.405848 -2.445813,4.75199 -5.472922,8.838596 -9.61613,12.981803 -4.366499,4.366499 -8.498003,7.370264 -13.710212,9.967859 -5.556494,2.76918 -10.253466,4.13621 -16.252643,4.73026 -1.908468,0.18897 -8.650625,0.34754 -10.361049,0.24367 z m 9.257353,-4.26695 c 4.888302,-0.46749 9.028455,-1.32276 12.057236,-2.490786 3.452375,-1.331376 7.947547,-3.943374 11.374898,-6.609582 8.808416,-6.852247 15.792828,-17.140133 17.522567,-25.810355 0.81191,-4.069629 0.96154,-6.013885 0.96154,-12.493888 0,-6.61649 -0.16256,-8.650862 -1.02267,-12.798627 -0.58489,-2.820555 -1.28773,-4.789843 -2.823227,-7.910419 C 94.187715,25.344276 86.652682,17.432241 77.728553,12.379355 73.8416,10.178544 70.310973,8.8675893 66.48803,8.2056442 62.41155,7.4997991 61.026611,7.4070501 54.678739,7.41478 48.100096,7.42279 46.61979,7.5438387 42.167471,8.4378514 c -2.741646,0.5505148 -4.554564,1.2013161 -7.85548,2.8199606 -4.945967,2.425315 -9.26807,5.569162 -13.520782,9.834857 -6.084991,6.103569 -10.268779,13.077487 -12.0643105,20.109888 -0.4375484,1.713707 -1.1227522,5.73344 -1.4014946,8.221835 -0.3410683,3.044793 -0.2898297,11.074714 0.086276,13.520783 1.1570791,7.52527 4.2666491,14.62485 9.3327991,21.308068 1.670039,2.2031 6.635805,7.168866 8.838906,8.838905 7.078064,5.365459 14.734769,8.636312 21.90709,9.358432 2.59609,0.26138 10.023425,0.2276 13.022634,-0.0592 z"
     id="path3872"
     inkscape:connector-curvature="0" />
</svg>
