<svg xmlns="http://www.w3.org/2000/svg" xmlns:xlink="http://www.w3.org/1999/xlink" viewBox="0 0 61.096 64.37" fill="#fff" fill-rule="evenodd" stroke="#000" stroke-linecap="round" stroke-linejoin="round"><style><![CDATA[.B{stroke-width:1.096}.C{fill-rule:nonzero}]]></style><use xlink:href="#B" x=".548" y=".822"/><defs><radialGradient id="A" cx="50%" cy="50%" r="50%" fx="50%" fy="50%"><stop offset="0%" stop-color="#fff"/><stop offset="4.2%" stop-color="#f7f9d8"/><stop offset="9.1%" stop-color="#eff2b2"/><stop offset="14.3%" stop-color="#e8ed91"/><stop offset="19.9%" stop-color="#e2e976"/><stop offset="26.1%" stop-color="#dde562"/><stop offset="33%" stop-color="#dae353"/><stop offset="41.2%" stop-color="#d9e14b"/><stop offset="54.5%" stop-color="#d8e148"/><stop offset="67.9%" stop-color="#d6e048"/><stop offset="74.7%" stop-color="#cfdd47"/><stop offset="79.9%" stop-color="#c2d946"/><stop offset="84.4%" stop-color="#b1d245"/><stop offset="88.5%" stop-color="#99ca44"/><stop offset="92.1%" stop-color="#7bc143"/><stop offset="92.7%" stop-color="#75c044"/><stop offset="100%" stop-color="#073800"/></radialGradient></defs><symbol id="B" overflow="visible"><g class="C"><path d="M13.881 18.842A18.8 18.8 0 0 1 32.723 0a18.8 18.8 0 0 1 18.842 18.842c0 10.439-8.404 18.842-18.842 18.842s-18.842-8.404-18.842-18.842z" fill="url(#A)" stroke-width="1.644"/><path d="M31.045 24.489H34.4c0 12.665-1.121 38.144-1.678 38.144s-1.676-25.478-1.676-38.143z" stroke="none" fill="#ed1c24"/></g><g fill="none" class="B"><path d="M31.045 24.489c0 12.665 1.121 38.143 1.676 38.143M34.4 24.489c0 12.665-1.121 38.144-1.678 38.144"/><path d="M31.045 24.489H34.4m-3.326 4.331h3.3m-3.224 3.781h3.143m-3.048 3.781h2.954m-2.838 3.778h2.722m-2.581 3.777h2.446m-2.3 3.772h2.146m-1.972 3.773h1.801"/></g><path d="M29.582 18.842c0-4.101 1.4-7.403 3.14-7.403s3.14 3.302 3.14 7.403-1.4 7.403-3.14 7.403-3.14-3.302-3.14-7.403z" stroke="none" fill="#ed1c24" class="C"/><path d="M29.584 18.842c0-4.101 1.4-7.403 3.139-7.403s3.139 3.302 3.139 7.403-1.4 7.403-3.139 7.403-3.139-3.302-3.139-7.403z" fill="none" class="B"/><g stroke="none" class="C"><g fill="#fde92b"><path d="M35.859 10.858c0 .748-.375 1.425-.978 1.903h-.002L33.598 8.34c1.307.316 2.261 1.323 2.261 2.518z"/><path d="M33.598 8.34l1.281 4.421c-.483 0-1.298-2.27-1.776-4.504a3.6 3.6 0 0 1 .495.085z"/></g><path d="M34.879 12.761c-.562.447-1.324.721-2.158.721s-1.596-.276-2.158-.721c.483 0 1.298-2.27 1.776-4.504a3.7 3.7 0 0 1 .382-.02l.382.018c.478 2.235 1.292 4.504 1.776 4.504zm-2.158-7.445l.877 3.026c-.16-.04-.325-.068-.496-.085-.23-1.073-.382-2.138-.382-2.941z" fill="#9a090d"/><g fill="#000"><path d="M33.104 8.255l-.382-.018a3.7 3.7 0 0 0-.382.02c.23-1.073.382-2.138.382-2.941 0 .803.153 1.868.382 2.941z"/><path d="M31.846 8.34l.877-3.026c0 .803-.153 1.868-.382 2.941-.169.018-.335.046-.496.085z"/></g><g fill="#fde92b"><path d="M32.339 8.255c-.478 2.235-1.292 4.504-1.776 4.504l1.281-4.421c.16-.037.325-.068.496-.085z"/><path d="M31.846 8.34l-1.281 4.421c-.603-.478-.978-1.154-.978-1.903 0-1.195.956-2.202 2.261-2.518z"/></g></g><g fill="none"><g stroke-width="1.028"><path d="M32.339 8.255l.382-.018.382.018c.167.016.332.044.494.085 1.305.316 2.261 1.324 2.261 2.518 0 .748-.375 1.425-.978 1.903h-.002c-.562.447-1.324.721-2.158.721s-1.596-.276-2.158-.721c-.603-.478-.978-1.154-.978-1.903 0-1.195.956-2.202 2.261-2.518a3.89 3.89 0 0 1 .496-.085z"/><path d="M30.563 12.761c.483 0 1.298-2.27 1.776-4.504.23-1.073.382-2.138.382-2.941m0-.002c0 .803.152 1.868.382 2.941.478 2.235 1.292 4.504 1.776 4.504"/></g><path d="M0 51.855h1.799" class="B"/></g><g class="C"><path d="M32.721 17.689S14.098 19.966 7.846 8.205c-5.616-10.571 24.878 8.15 24.878 8.15zm.003 3.511S17.961 32.134 7.192 24.594c-9.675-6.771 25.532-4.679 25.532-4.679z" class="B"/><path d="M32.724 17.679s18.623 2.277 24.874-9.484c5.616-10.571-24.877 8.15-24.877 8.15zm-.003 3.511s14.762 10.934 25.533 3.394c9.675-6.772-25.533-4.673-25.533-4.673z" class="B"/></g></symbol></svg>