<svg height="64" width="64" xmlns="http://www.w3.org/2000/svg"><path d="m20.57 15.588c-.177-.53-.485-1.03-.784-1.497a13.91 13.91 0 0 0 -1.297-1.726c-.257-.29-.61-.727-.994-.872-.07-.026-.12-.053-.198-.052a.31.31 0 0 0 -.112-.013l-2.435-.628c-1.123-.33-2.206-.76-3.237-1.313-.442-.238-.878-.5-1.288-.782l-.3-.222c-.37-.496-.746-1.052-1.217-1.45l-.108-.053c.073.403.31.777.518 1.125.515.867 1.116 1.683 1.725 2.486.576.76 1.19 1.51 1.92 2.126.61.514 1.307.92 2.016 1.282l2.416 1.143c1.034.4 2.085.716 3.18.884l-.129-.026a.52.52 0 0 1 .171.042c.33.116.196-.327.153-.456z" fill="#ffaf0f"/><path d="m17.753 11.673c-.12-.545-.38-1.074-.63-1.568-.327-.64-.7-1.262-1.124-1.844-.196-.28-.417-.54-.66-.778l-.239-.183c-.757-.198-1.562-.115-2.322-.316-.66-.174-1.285-.44-1.872-.783-.335-.217-.66-.45-.964-.71l-.217-.19-.034-.033-.187-.198-.022-.032-.66-.887c-.406-.485-.838-1.08-1.402-1.397l.097.057c-.036-.038-.078-.065-.128-.087.002.04.013.08.022.12a.69.69 0 0 0 .043.13c.178.56.39 1.106.65 1.633l.49.93.104.186.565.945c.51.76 1.04 1.474 1.658 2.148.593.648 1.256 1.265 1.99 1.753.7.465 1.442.897 2.246 1.15.778.245 1.604.268 2.407.395.145.07.224.024.236-.137l-.035-.306z" fill="#ffbb0f"/><path d="m17.778 11.78c-.01-.56-.155-1.128-.303-1.663-.2-.693-.427-1.378-.723-2.034-.16-.354-.365-.876-.69-1.128-.06-.046-.1-.088-.173-.11-.038-.025-.073-.04-.105-.046l-.37-.23.117.07-1.877-1.16c-.976-.65-1.884-1.385-2.705-2.222a12.04 12.04 0 0 1 -.996-1.129l-.22-.302c-.203-.583-.398-1.226-.728-1.746l-.077-.08c-.05.406.065.835.16 1.227.235.98.564 1.94.906 2.887.323.897.685 1.795 1.2 2.6.43.673.973 1.267 1.543 1.824l1.966 1.81c.867.69 1.777 1.304 2.773 1.79l-.13-.063a.52.52 0 0 1 .15.092c.278.21.284-.254.28-.39z" fill="#ffc70f"/><path d="m23.513 18.93c-.23-.51-.592-.974-.94-1.404-.452-.56-.944-1.092-1.478-1.574-.25-.234-.52-.442-.808-.625l-.28-.128c-.782-.04-1.552.208-2.338.17-.68-.035-1.346-.165-1.99-.38-.373-.144-.74-.306-1.09-.497l-.252-.14-.04-.025-.222-.154-.03-.027-.83-.733c-.497-.39-1.042-.884-1.66-1.078l.107.036c-.043-.03-.1-.05-.143-.06.01.04.03.075.046.112.023.05.045.088.072.123.29.5.61 1 .97 1.462l.672.8.14.16.747.808c.654.638 1.322 1.228 2.065 1.76.714.513 1.49.98 2.307 1.306.78.312 1.595.58 2.435.664.812.08 1.626-.068 2.436-.11.156.04.224-.023.203-.182l-.097-.292z" fill="#ffa30f"/><path d="m27.167 22.73c-.28-.484-.68-.913-1.068-1.3a14.05 14.05 0 0 0 -1.616-1.432c-.31-.233-.743-.6-1.15-.655-.074-.012-.13-.028-.204-.01-.045-.004-.082.001-.113.01l-.435-.022.136.004-2.2-.11c-1.17-.098-2.32-.302-3.445-.64a11.95 11.95 0 0 1 -1.418-.508l-.337-.158c-.46-.413-.942-.88-1.483-1.178l-.105-.032c.152.38.46.7.732.998.678.746 1.43 1.425 2.188 2.1.716.63 1.467 1.24 2.31 1.697.7.38 1.464.64 2.232.85l2.596.637c1.093.184 2.187.283 3.294.228l-.144.007c.06-.008.118-.005.176.008.344.048.124-.36.057-.477z" fill="#ff970f"/><path d="m18.644 22.305.404.19.488.2c1.3.41 2.714.436 4.053.16l-.18.04c.645-.14 1.272-.34 1.9-.573.29-.108.642.177.85.326.54.383 1.026.848 1.478 1.328s.89.993 1.24 1.553c.005.008.506.79.275.868-1.695.58-3.46.846-5.214.365-.62-.17-1.227-.415-1.8-.706-.946-.48-1.767-1.138-2.56-1.838-.553-.49-1.11-1.024-1.565-1.606-.247-.315-.522-.65-.587-1.052l.022.125c-.016-.09-.036-.15-.033-.23.002-.068.77.496.704.445l.532.404z" fill="#ff8b0f"/><path d="m22.125 27.147.438.093.522.083c1.37.095 2.74-.203 3.98-.78l-.168.08a13.58 13.58 0 0 0 1.707-.995c.256-.172.665.025.902.12.613.248 1.193.59 1.745.95s1.094.76 1.564 1.225c.007.007.675.65.47.78-1.515.957-3.17 1.623-4.988 1.56-.64-.022-1.3-.12-1.913-.27-1.03-.25-1.982-.7-2.915-1.198-.65-.348-1.315-.74-1.894-1.2-.313-.25-.657-.5-.813-.888l.05.117c-.037-.083-.07-.137-.086-.217-.013-.067.862.305.788.27l.612.27z" fill="#ff7f0f"/><path d="m36.44 30.353c-.462-.313-1.01-.524-1.532-.712a13.92 13.92 0 0 0 -2.079-.583c-.38-.074-.926-.207-1.32-.088-.072.02-.13.032-.188.08-.042.017-.074.037-.097.058l-.4.17.124-.055-2.028.862c-1.095.422-2.22.74-3.38.93-.495.08-.995.144-1.497.162l-.37.005c-.596-.17-1.234-.382-1.85-.413l-.11.018c.303.276.72.43 1.094.578.936.375 1.9.658 2.88.926.92.253 1.86.476 2.817.52.798.037 1.597-.064 2.38-.207l2.614-.562c1.063-.312 2.09-.7 3.063-1.232l-.126.07c.05-.032.103-.056.16-.07.332-.107-.043-.38-.156-.455z" fill="#ff730f"/><path d="m27.757 34.252.44-.08.514-.12c1.304-.427 2.463-1.22 3.394-2.222l-.125.136c.445-.488.84-1.016 1.207-1.564.172-.256.626-.228.882-.228.66-.001 1.327.096 1.974.224s1.3.292 1.91.545c.008.004.87.348.728.548-1.043 1.457-2.325 2.696-4.033 3.324-.602.22-1.24.373-1.875.468-1.05.158-2.1.1-3.152-.01-.734-.077-1.497-.2-2.207-.4-.383-.112-.8-.225-1.088-.517l.1.09c-.065-.063-.116-.1-.16-.17-.038-.056.914-.042.832-.046l.668.02z" fill="#ff670f"/><path d="m30.137 37.21.428-.13.497-.18c1.245-.577 2.302-1.5 3.108-2.605l-.108.15a13.57 13.57 0 0 0 1.014-1.695c.14-.274.595-.3.85-.33.657-.08 1.33-.06 1.987-.01s1.325.138 1.962.317c.01.002.905.243.788.457-.865 1.57-1.992 2.952-3.614 3.776-.572.29-1.188.517-1.807.686-1.024.28-2.073.345-3.13.36-.737.01-1.51-.014-2.238-.137-.394-.067-.822-.13-1.142-.385.034.026-.026-.008-.08-.07-.044-.053.902-.15.82-.144l.666-.06z" fill="#ff5b0f"/><path d="m42.088 33.794c-.57-.05-1.157.026-1.708.11a14.2 14.2 0 0 0 -2.105.466c-.368.112-.908.25-1.178.53-.05.052-.093.086-.118.153a.27.27 0 0 0 -.051.093l-.25.326.075-.103-1.257 1.645a14.89 14.89 0 0 1 -2.379 2.322c-.38.294-.772.576-1.192.82l-.316.175c-.604.13-1.267.246-1.812.502l-.084.065c.413.09.854.028 1.26-.02 1-.117 2-.326 2.98-.547.93-.2 1.86-.456 2.702-.857.704-.334 1.332-.784 1.923-1.262l1.927-1.663c.737-.746 1.402-1.54 1.94-2.428l-.07.115c.025-.05.058-.093.1-.132.224-.242-.248-.296-.386-.308z" fill="#ff4f0f"/><path d="m47.045 33.312a6.06 6.06 0 0 0 -.361-1.525c-.154-.397-.302-.85-.614-1.166.03.056.02.05-.012-.01a.82.82 0 0 0 -.616.214l-.482.355c-.672.545-1.264 1.164-1.808 1.788s-1.064 1.28-1.46 1.96c-.046.08-.56.91-.254.983.25.06.37.235.47.42.4.788.665 1.66.753 2.552.117 1.2-.027 2.437-.25 3.683l-.65 3.02-.215.747-.11.315-.077.12-1.008 1.72s-.348.596-.02.336c.593-.47 1.016-1.104 1.436-1.66.806-1.068 1.51-2.178 2.19-3.285.492-.8.935-1.626 1.27-2.456l.36-.86.396-1.07.503-1.755c.373-1.472.715-3.004.56-4.42z" fill="#ff670f"/><path d="m56.52 23.8.058.097c-.182-.313-.53-.493-.848-.665-.587-.32-1.247-.564-1.89-.77-.922-.296-1.856-.546-2.846-.603-.6-.035-1.215-.02-1.818.065-1.71.238-3.193 1.1-4.517 2.203-.012.01-.01.025-.016.038-.504.426-.975.917-1.408 1.41-.71.81-1.376 1.648-1.87 2.62a10.26 10.26 0 0 0 -.662 1.636c-.186-.35-.407-.692-.676-.885l-1.517-1.076c-4.328-2.95-8.662-5.876-12.557-9.396l-.33-.3-.24-.224-.675-.644c-.445-.433-.885-.873-1.314-1.323-.9-.944-1.78-1.915-2.625-2.91a40.51 40.51 0 0 1 -1.297-1.607l-.214-.284-.053-.072c-.176-.248-.342-.503-.508-.758l-.376-.592-.112-.193c-.43-1.023-.18-.376-.208-.447-.4-.993-.828-1.97-1.326-2.916-.277-.523-.597-1.22-1.06-1.62-.4-.35-.222.505-.217.552l.004.035c-.001.192.01.383.036.574a13.15 13.15 0 0 0 .173.952c.23 1 .535 1.953.86 2.927.53 1.588 1.293 3.114 2.07 4.593 1.415 2.7 3.203 5.328 5.267 7.576 1.84 2.004 3.854 3.852 5.958 5.576 2.124 1.74 4.326 3.4 6.567 5.004-.018 0 .01.015.058.042l.68.483c.744.64 1.7 1.87 1.126 3.72l-.55 1.094-.234.495c-.03.05-.043.078-.04.088-.206.438-.406.878-.594 1.324-.574.718-1.26 1.34-2.05 1.82a7.76 7.76 0 0 1 -.585.294c-.137.06-.277.11-.414.17-.087.037-.006.012-.657.12.08-.014-.852.17-.803.22.058.057.117.083.193.13l-.107-.068c.34.224.773.247 1.172.277.737.055 1.506.005 2.24-.074a19.94 19.94 0 0 0 -.608 2.659l-.095.608c-.55.754-1.138 1.478-1.796 2.15-.563.576-1.152 1.13-1.77 1.647-.312.262-.627.518-.95.765l-.445.333-.24.173c-.007.005-.01.007-.017.012-.672.464-1.362.902-2.073 1.302-.354.2-.7.397-1.075.576l-.595.28-.212.095c-.01.005-.014.007-.027.012-.72.305-1.457.58-2.206.814l-.23.065-.51.134-.51.126-.175.04c-.58.115-1.182.23-1.72.482-.138.065-.604.31-.254.494.4.214 1.03.182 1.465.176.804-.01 1.597-.108 2.39-.237 2.62-.427 5.19-1.273 7.59-2.448l-.607.583a31.72 31.72 0 0 1 -1.122.984l-.238.198-.535.415c-.358.27-.726.525-1.098.775l-.245.16-.58.355-.248.146-.575.308-.058.03-.504.236-.073.033-.42.168-1.29.342-.428.104c-.042.006-.09.015-.14.028-.846.145-1.7.555-2.445.924-.658.323-1.313.678-1.908 1.108-.026.018-.053.04-.08.058s-.06.035-.088.054c-.12.08-.713.412-.7.657.023.254 2.608-.368 3.022-.476 3.65-.952 7.13-2.614 10.318-4.654a26.68 26.68 0 0 1 -.521.763l-.228.308-.417.535-.184.226-.43.488-.033.036-.4.4-.06.06-.328.298-1.092.776-.367.25c-.036.02-.074.044-.116.073-.743.433-1.39 1.113-1.968 1.725-.504.532-.99 1.095-1.398 1.707-.018.027-.037.057-.055.085s-.043.053-.062.08c-.084.117-.524.635-.417.856.11.23 2.313-1.26 2.663-1.506 3.78-2.663 6.95-6.235 9.507-10.065l.095-.145c2.238-1.848 4.262-3.974 5.84-6.402.39-.387.68-.728.745-.937 1.08-3.543 1.207-5.212.936-6.624.182-.086.373-.14.58-.1.354.068.523-1.018.543-1.122a9.43 9.43 0 0 0 .11-.812c.36-.285.704-.6 1-.93.053-.06.62-.654.423-.842-.16-.154-.203-.368-.227-.582-.08-.905-.057-1.845.103-2.733.214-1.192.624-2.322 1.1-3.427l.36-.823a2.49 2.49 0 0 0 .982-.15 2.46 2.46 0 0 0 .934-.608c.018-.01.037-.02.053-.034.46-.403.936-.784 1.444-1.126 1.033-.655 2.192-1.107 3.387-1.262.222-.02.445-.035.667-.034.14.001.28.01.42.013.088.001.01-.008.6.142-.074-.02.783.173.763.116-.024-.07-.06-.113-.103-.18zm-32.738 33.789c-.024.001-.053.005-.083.01.25-.063.195-.032.083-.01zm3.365-1.267c.285-.163.137-.077 0 0zm2.614-1.8c.385-.314.096-.077 0 0zm-2.057 4.886c-.022.01-.048.024-.074.038.213-.147.17-.098.074-.038zm2.684-2.34c.26-.315.11-.13 0 0z" fill="#ff430f"/></svg>