<svg width="128" height="128" viewBox="0 0 128 128" fill="none" xmlns="http://www.w3.org/2000/svg">
<path d="M55.42 17.74C54.92 17.74 54.44 17.91 54.05 18.23C53.67 18.55 53.41 19 53.33 19.49L51.4 32.12L51.21 32.18L50.61 32.41L50.32 32.51L49.82 32.71L49.42 32.87L49.03 33.04L48.54 33.26L48.26 33.38L47.67 33.65L47.5 33.73L35.53 23.77C35.13 23.48 34.64 23.34 34.15 23.38C33.66 23.42 33.19 23.63 32.84 23.97L21.04 34.44C20.7 34.79 20.49 35.25 20.45 35.74C20.41 36.23 20.55 36.72 20.83 37.12L30.47 50.8C30.45 50.86 30.42 50.92 30.39 50.98C30.31 51.18 30.21 51.38 30.12 51.56L29.99 51.84L29.77 52.34L29.61 52.73C29.55 52.87 29.5 52.99 29.44 53.13C29.39 53.27 29.32 53.46 29.24 53.63C29.17 53.8 29.17 53.82 29.14 53.92L28.92 54.52L28.86 54.71L16.22 56.58C15.73 56.66 15.28 56.91 14.96 57.3C14.64 57.69 14.47 58.17 14.47 58.67V74.79C14.47 75.29 14.64 75.77 14.96 76.16C15.28 76.54 15.73 76.8 16.22 76.88L28.86 78.81L28.92 79L29.14 79.61L29.24 79.89C29.31 80.06 29.38 80.22 29.44 80.39C29.5 80.56 29.54 80.65 29.61 80.79L29.77 81.18L31.1 80.53L31.5 81.39C30.7066 82.0233 30.3366 82.4067 30.39 82.54C30.42 82.6 28.25 80.42 28.27 80.48L20.71 90.78C20.42 91.18 20.29 91.67 20.33 92.16C20.37 92.65 20.58 93.11 20.92 93.46L34.51 107.15C34.86 107.5 35.32 107.71 35.82 107.74C36.31 107.78 36.8 107.64 37.2 107.35L47.5 99.79L47.67 99.87L48.26 100.14L48.54 100.26L49.03 100.48L49.42 100.65L49.82 100.81L50.32 101.01L50.61 101.11L51.21 101.34L51.4 101.4L53.33 114.03C53.41 114.52 53.66 114.97 54.05 115.29C54.43 115.61 54.92 115.78 55.42 115.78H63.48V17.74H55.42Z" fill="#153385" stroke="#101C3F" stroke-miterlimit="10"/>
<path d="M55.42 12.5C54.92 12.5 54.44 12.67 54.05 12.99C53.67 13.31 53.41 13.76 53.33 14.25L51.4 26.88L51.21 26.94L50.61 27.17L50.32 27.27L49.82 27.47L49.42 27.63L49.03 27.8L48.54 28.02L48.26 28.14L47.67 28.41L47.5 28.49L37.2 20.93C36.8 20.64 36.31 20.5 35.82 20.54C35.33 20.58 34.86 20.79 34.51 21.13L23.12 32.58C22.78 32.93 22.57 33.39 22.53 33.88C22.49 34.37 22.63 34.86 22.91 35.26L30.47 45.56C30.45 45.62 30.42 45.68 30.39 45.74C30.31 45.94 30.21 46.14 30.12 46.32L29.99 46.6L29.77 47.1L29.61 47.49C29.55 47.63 29.5 47.75 29.44 47.89C29.39 48.03 29.32 48.22 29.24 48.39C29.17 48.56 29.17 48.58 29.14 48.68L28.92 49.28L28.86 49.47L16.22 51.34C15.73 51.42 15.28 51.67 14.96 52.06C14.64 52.45 14.47 52.93 14.47 53.43V69.55C14.47 70.05 14.64 70.53 14.96 70.92C15.28 71.3 15.73 71.56 16.22 71.64L28.86 73.57L28.92 73.76L29.14 74.37L29.24 74.65C29.31 74.82 29.38 74.98 29.44 75.15C29.5 75.32 29.54 75.41 29.61 75.55L29.77 75.94L29.99 76.44L30.12 76.72C30.21 76.91 30.31 77.11 30.39 77.3C30.42 77.36 30.45 77.42 30.47 77.48L22.91 87.78C22.62 88.18 22.49 88.67 22.53 89.16C22.57 89.65 22.78 90.11 23.12 90.46L34.51 101.91C34.86 102.26 35.32 102.47 35.82 102.5C36.31 102.54 36.8 102.4 37.2 102.11L47.5 94.55L47.67 94.63L48.26 94.9L48.54 95.02L49.03 95.24L49.42 95.41L49.82 95.57L50.32 95.77L50.61 95.87L51.21 96.1L51.4 96.16L53.33 108.79C53.41 109.28 53.66 109.73 54.05 110.05C54.43 110.37 54.92 110.54 55.42 110.54H63.48V12.5H55.42Z" fill="#0B64DD" stroke="#101C3F" stroke-miterlimit="10"/>
<path d="M35.84 102.46V107.02" stroke="#101C3F" stroke-miterlimit="10"/>
<path d="M47.6801 94.59V100.1" stroke="#101C3F" stroke-miterlimit="10"/>
<path d="M63.88 115.74L71.1 116.02C71.6 116.02 72.08 115.85 72.47 115.53C72.85 115.21 73.11 114.76 73.19 114.27L75.12 101.64L76.15 101.3L76.75 101.07L77.04 100.97L77.54 100.77L77.94 100.61L78.33 100.44L78.82 100.22L79.1 100.1L79.69 99.8299L79.86 99.7499L90.16 107.31C90.56 107.6 91.05 107.74 91.54 107.7C92.03 107.66 92.5 107.45 92.85 107.11L106.44 93.4199C106.78 93.0699 106.99 92.6099 107.03 92.1199C107.07 91.6299 106.93 91.1399 106.65 90.7399L99.09 80.4399" stroke="#101C3F" stroke-miterlimit="10"/>
<path d="M98.85 48.94L106.33 37.39C106.62 36.99 106.75 36.5 106.71 36.01C106.67 35.52 106.46 35.06 106.12 34.71L104.68 33.23" stroke="#101C3F" stroke-miterlimit="10"/>
<path d="M98.4 78.97L98.46 78.78L111.1 76.85C111.59 76.77 112.04 76.52 112.36 76.13C112.68 75.75 112.85 75.26 112.85 74.76V70.12" stroke="#101C3F" stroke-miterlimit="10"/>
<path d="M63.88 110.5H71.94C72.44 110.5 72.92 110.33 73.31 110.01C73.69 109.69 73.95 109.24 74.03 108.75L75.96 96.12L76.15 96.06L76.75 95.83L77.04 95.73L77.54 95.53L77.94 95.37L78.33 95.2L78.82 94.98L79.1 94.86L79.69 94.59L79.86 94.51L90.16 102.07C90.56 102.36 91.05 102.5 91.54 102.46C92.03 102.42 92.5 102.21 92.85 101.87L104.24 90.42C104.58 90.07 104.79 89.61 104.83 89.12C104.87 88.63 104.73 88.14 104.45 87.74L96.89 77.44C96.91 77.38 96.94 77.32 96.97 77.26C97.05 77.06 97.15 76.86 97.24 76.68L97.37 76.4L97.59 75.9L97.75 75.51C97.81 75.37 97.85 75.28 97.92 75.11C97.98 74.94 98.04 74.78 98.12 74.61L98.22 74.33L98.44 73.72L98.5 73.53L111.14 71.6C111.63 71.52 112.08 71.27 112.4 70.88C112.72 70.5 112.89 70.01 112.89 69.51V53.39C112.89 52.89 112.72 52.41 112.4 52.02C112.08 51.63 111.63 51.38 111.14 51.3L98.5 49.43L98.44 49.24L98.22 48.64C98.19 48.54 98.19 48.52 98.12 48.35C98.05 48.18 97.97 47.99 97.92 47.85C97.87 47.71 97.82 47.59 97.75 47.45L97.59 47.06L97.37 46.56L97.24 46.28C97.15 46.09 97.05 45.89 96.97 45.7C96.94 45.64 96.91 45.58 96.89 45.52L104.45 35.22C104.74 34.82 104.87 34.33 104.83 33.84C104.79 33.35 104.58 32.89 104.24 32.54L92.85 21.09C92.5 20.74 92.04 20.53 91.54 20.5C91.04 20.47 90.56 20.6 90.16 20.89L79.86 28.45L79.69 28.37L79.1 28.1L78.82 27.98L78.33 27.76L77.94 27.59L77.54 27.43L77.04 27.23L76.75 27.13L76.15 26.9L75.96 26.84L74.03 14.21C73.95 13.72 73.7 13.27 73.31 12.95C72.93 12.63 72.44 12.46 71.94 12.46H63.88" fill="white"/>
<path d="M63.88 110.5H71.94C72.44 110.5 72.92 110.33 73.31 110.01C73.69 109.69 73.95 109.24 74.03 108.75L75.96 96.12L76.15 96.06L76.75 95.83L77.04 95.73L77.54 95.53L77.94 95.37L78.33 95.2L78.82 94.98L79.1 94.86L79.69 94.59L79.86 94.51L90.16 102.07C90.56 102.36 91.05 102.5 91.54 102.46C92.03 102.42 92.5 102.21 92.85 101.87L104.24 90.42C104.58 90.07 104.79 89.61 104.83 89.12C104.87 88.63 104.73 88.14 104.45 87.74L96.89 77.44C96.91 77.38 96.94 77.32 96.97 77.26C97.05 77.06 97.15 76.86 97.24 76.68L97.37 76.4L97.59 75.9L97.75 75.51C97.81 75.37 97.85 75.28 97.92 75.11C97.98 74.94 98.04 74.78 98.12 74.61L98.22 74.33L98.44 73.72L98.5 73.53L111.14 71.6C111.63 71.52 112.08 71.27 112.4 70.88C112.72 70.5 112.89 70.01 112.89 69.51V53.39C112.89 52.89 112.72 52.41 112.4 52.02C112.08 51.63 111.63 51.38 111.14 51.3L98.5 49.43L98.44 49.24L98.22 48.64C98.19 48.54 98.19 48.52 98.12 48.35C98.05 48.18 97.97 47.99 97.92 47.85C97.87 47.71 97.82 47.59 97.75 47.45L97.59 47.06L97.37 46.56L97.24 46.28C97.15 46.09 97.05 45.89 96.97 45.7C96.94 45.64 96.91 45.58 96.89 45.52L104.45 35.22C104.74 34.82 104.87 34.33 104.83 33.84C104.79 33.35 104.58 32.89 104.24 32.54L92.85 21.09C92.5 20.74 92.04 20.53 91.54 20.5C91.04 20.47 90.56 20.6 90.16 20.89L79.86 28.45L79.69 28.37L79.1 28.1L78.82 27.98L78.33 27.76L77.94 27.59L77.54 27.43L77.04 27.23L76.75 27.13L76.15 26.9L75.96 26.84L74.03 14.21C73.95 13.72 73.7 13.27 73.31 12.95C72.93 12.63 72.44 12.46 71.94 12.46H63.88" stroke="#101C3F" stroke-miterlimit="10"/>
<path d="M91.51 102.46V107.7" stroke="#101C3F" stroke-miterlimit="10"/>
<path d="M79.67 94.59V100.1" stroke="#101C3F" stroke-miterlimit="10"/>
<path d="M54.49 39L37.35 49.75V74.34L54.49 86.51" stroke="#101C3F" stroke-miterlimit="10"/>
<path d="M37.35 74.34L54.49 67.73V60.08" stroke="#101C3F" stroke-miterlimit="10"/>
<path d="M54.49 61.05C56.44 61.05 58.01 59.47 58.01 57.53C58.01 55.59 56.43 54.01 54.49 54.01C52.55 54.01 50.97 55.59 50.97 57.53C50.97 59.47 52.55 61.05 54.49 61.05Z" fill="#48EFCF" stroke="#101C3F" stroke-miterlimit="10"/>
<path d="M54.49 90.04C56.44 90.04 58.01 88.46 58.01 86.52C58.01 84.58 56.43 83 54.49 83C52.55 83 50.97 84.58 50.97 86.52C50.97 88.46 52.55 90.04 54.49 90.04Z" fill="#48EFCF" stroke="#101C3F" stroke-miterlimit="10"/>
<path d="M54.49 42.52C56.44 42.52 58.01 40.94 58.01 39C58.01 37.06 56.43 35.48 54.49 35.48C52.55 35.48 50.97 37.06 50.97 39C50.97 40.94 52.55 42.52 54.49 42.52Z" fill="#48EFCF" stroke="#101C3F" stroke-miterlimit="10"/>
<path d="M73 39L90.15 49.75V74.34L73 86.51" stroke="#101C3F" stroke-miterlimit="10"/>
<path d="M90.15 74.34L73 67.73V60.08" stroke="#101C3F" stroke-miterlimit="10"/>
<path d="M76.53 57.52C76.53 55.57 74.95 54 73.01 54C71.07 54 69.49 55.58 69.49 57.52C69.49 59.47 71.07 61.04 73.01 61.04C74.96 61.04 76.53 59.46 76.53 57.52Z" fill="#48EFCF" stroke="#101C3F" stroke-miterlimit="10"/>
<path d="M76.53 86.51C76.53 84.56 74.95 82.99 73.01 82.99C71.07 82.99 69.49 84.57 69.49 86.51C69.49 88.45 71.07 90.03 73.01 90.03C74.96 90.03 76.53 88.45 76.53 86.51Z" fill="#48EFCF" stroke="#101C3F" stroke-miterlimit="10"/>
<path d="M76.53 39C76.53 37.05 74.95 35.48 73.01 35.48C71.07 35.48 69.49 37.06 69.49 39C69.49 40.94 71.07 42.52 73.01 42.52C74.96 42.52 76.53 40.94 76.53 39Z" fill="#48EFCF" stroke="#101C3F" stroke-miterlimit="10"/>
</svg>
