<svg width="376" height="209" viewBox="0 0 324 209" fill="none" xmlns="http://www.w3.org/2000/svg">
    <!-- Left Icon -->
    <rect x="27.2383" y="65.2367" width="78.5266" height="78.5266" rx="11.779" fill="#F1F4FA"/>
    <path d="M71.2593 112.944V91.3048L82.7649 112.944H71.2593Z" fill="#98A2B3"/>
    <path d="M71.2535 91.3042L59.7478 112.943H71.2535V128.517L47.4717 105.151L71.2535 81.7843V91.3042Z" fill="#98A2B3"/>

    <!-- Middle Icon -->
    <rect x="110.958" y="53.4577" width="102.085" height="102.085" rx="15.3127" fill="#F1F4FA"/>
    <path d="M164.146 108.19C164.227 108.354 164.47 108.354 164.47 108.19L170.148 93.2778C170.392 92.5404 171.122 92.1307 171.852 92.1307H177.124C178.098 92.1307 178.99 92.9501 178.99 93.9333C178.99 94.1791 178.99 94.343 178.909 94.5888L166.092 129.412C166.092 129.494 165.687 129.822 165.362 130.068C165.281 130.15 165.119 130.15 164.957 130.15C164.47 129.986 163.983 129.576 163.821 129.085L157.007 112.451C156.764 111.96 156.196 111.714 155.709 111.96C155.547 112.042 155.304 112.205 155.223 112.451L146.624 129.74C146.543 129.822 146.462 129.904 146.381 129.822C146.3 129.822 146.3 129.74 146.3 129.74L132.915 94.5069C132.591 93.5236 132.996 92.4584 133.97 92.1307C134.213 92.0488 134.375 91.9668 134.619 91.9668H140.378C141.108 91.9668 141.838 92.4584 142.082 93.1139L147.76 108.109C147.841 108.272 148.084 108.272 148.084 108.109L155.223 92.4584C155.466 91.9668 156.034 91.721 156.52 91.9668C156.764 92.0488 156.926 92.2126 157.007 92.4584L164.146 108.19ZM186.995 77.8746C186.914 77.6288 186.508 77.6288 186.427 77.8746C186.103 79.5134 185.373 81.9715 184.075 83.2825C182.777 84.5935 180.343 85.331 178.721 85.6587C178.478 85.7406 178.478 86.1503 178.721 86.2323C180.343 86.56 182.777 87.2975 184.075 88.6085C185.778 90.3291 186.346 92.7053 186.59 94.0983C186.59 94.1802 186.914 94.1802 186.914 94.0983C187.238 92.6234 187.887 90.0014 189.266 88.6085C190.564 87.2975 192.998 86.56 194.62 86.2323C194.864 86.1503 194.864 85.7406 194.62 85.6587C192.998 85.331 190.564 84.5935 189.266 83.2825C188.05 81.9715 187.32 79.5134 186.995 77.8746Z" fill="#325FE8"/>

    <!-- Right Icon -->
    <rect x="218.235" y="65.2367" width="78.5266" height="78.5266" rx="11.779" fill="#F1F4FA"/>
    <path d="M260.444 80.9417H254.103V118.855H260.444V80.9417Z" fill="#98A2B3"/>
    <path fill-rule="evenodd" clip-rule="evenodd" d="M261.979 127.998L268.316 124.072V91.2476C266.437 89.8547 264.273 88.8959 261.979 88.4403V127.998Z" fill="#98A2B3"/>
    <path fill-rule="evenodd" clip-rule="evenodd" d="M246.211 124.092L252.552 128.018V88.4605C250.258 88.9093 248.092 89.8614 246.211 91.2482V124.092Z" fill="#98A2B3"/>
    <path fill-rule="evenodd" clip-rule="evenodd" d="M269.852 83.0006V123.643L272.797 121.817C273.851 121.124 274.714 120.175 275.305 119.06C275.896 117.945 276.196 116.699 276.178 115.437V96.2422C276.193 90.706 269.852 83.0006 269.852 83.0006Z" fill="#98A2B3"/>
    <path fill-rule="evenodd" clip-rule="evenodd" d="M238.358 115.165C238.338 116.427 238.638 117.674 239.229 118.789C239.821 119.905 240.684 120.853 241.739 121.545L244.684 123.371V82.7432C244.684 82.7432 238.358 90.4486 238.358 95.9847V115.165Z" fill="#98A2B3"/>
</svg>
