<svg width="376" height="209" viewBox="0 0 324 209" fill="none" xmlns="http://www.w3.org/2000/svg">
    <rect x="25.1128" y="63.7763" width="76.7687" height="76.7687" rx="11.5153" fill="#F1F4FA"/>
    <path d="M83.1572 84.2009C83.3134 84.7475 83.821 86.7389 84.3287 88.6132L88.3115 103.49C88.8191 105.365 89.3658 107.356 89.4829 107.903C89.6781 108.723 89.4439 109.582 88.8582 110.167L85.6172 113.408L74.7621 124.263C73.3954 125.708 71.9897 127.153 71.5211 127.504C70.8964 128.051 70.0373 128.285 69.2564 128.129L64.844 126.958L49.967 122.975L45.5546 121.803C45.1641 121.686 44.8127 121.491 44.5003 121.179C44.188 120.905 43.9927 120.515 43.8756 120.124C43.7194 119.578 43.2118 117.586 42.7042 115.712L38.7213 100.835L37.5499 96.4227L38.1356 96.2274L38.7213 96.0713C38.8775 96.6179 39.3851 98.6093 39.8928 100.484L43.8756 115.4C44.3832 117.274 44.9299 119.265 45.047 119.812C45.1251 120.007 45.2422 120.163 45.3594 120.32C45.5156 120.476 45.6718 120.593 45.867 120.632L50.2794 121.803L65.1564 125.786L69.5688 126.958C69.9592 127.036 70.3887 126.919 70.7011 126.645L73.9421 123.404L84.8363 112.51L88.0772 109.269C88.3505 108.957 88.4286 108.527 88.3896 108.137C88.2334 107.59 87.7258 105.599 87.2182 103.725L83.1963 88.9256C82.6887 87.0513 82.142 85.0599 82.0249 84.5132C81.9468 84.318 81.8296 84.1618 81.7125 84.0056C81.5563 83.8494 81.4001 83.7323 81.2049 83.6932L76.7925 82.4828L61.9545 78.4999L57.5031 77.3285C57.1126 77.2504 56.6831 77.3676 56.3707 77.6409L53.1298 80.8818L42.2356 91.776L38.9947 95.017C38.7213 95.3294 38.6042 95.7589 38.6823 96.1493L38.0966 96.2665L37.5109 96.4227C37.3156 95.6027 37.5499 94.7436 38.1356 94.1579L41.3766 90.917L52.2708 80.0618L55.5117 76.8209C56.1365 76.2352 56.9955 76.04 57.7764 76.1961L62.1888 77.3676L77.0658 81.3504L81.4782 82.5218C81.8687 82.639 82.2201 82.8732 82.5325 83.1466C82.8449 83.459 83.0401 83.8104 83.1572 84.2009Z" fill="#98A2B3"/>
    <path d="M64.4926 80.257L67.7335 82.1313L78.7449 88.496L82.0248 90.3703C82.6106 90.7217 82.962 91.3465 83.001 92.0493V95.7979V112.276C82.962 112.979 82.6106 113.603 82.0248 113.955L78.7839 115.829L67.7335 122.194L64.4926 124.068C64.1802 124.224 63.8678 124.302 63.5164 124.302C63.165 124.302 62.8526 124.224 62.5402 124.068L59.2993 122.194L48.2489 115.829L45.0079 113.955L45.2422 113.525L45.4765 113.096L48.7174 114.97L59.7288 121.335L63.0088 123.209C63.165 123.287 63.3212 123.326 63.4773 123.326C63.6335 123.326 63.8288 123.287 63.985 123.209L67.2259 121.335L78.2372 114.97L81.4782 113.096C81.7515 112.901 81.9467 112.588 82.0248 112.237V108.488V92.0103C81.9858 91.6589 81.7906 91.3465 81.5172 91.1903L78.2763 89.316L67.2649 82.9513L64.024 81.077C63.8678 80.9989 63.7116 80.9599 63.5164 80.9599C63.3602 80.9599 63.165 80.9989 63.0478 81.077L59.7678 82.9513L48.7565 89.316L45.5156 91.1903C45.2422 91.3855 45.047 91.6979 45.0079 92.0493V95.7979V112.276C45.047 112.627 45.2032 112.901 45.5156 113.135L45.2813 113.564L45.047 113.994C44.4613 113.643 44.1098 113.018 44.0708 112.315C44.0708 111.846 44.0708 110.167 44.0708 108.566V92.0884C44.1098 91.3855 44.4613 90.7608 45.047 90.4094L48.2879 88.5351L59.3383 82.1704L62.5793 80.2961C62.8916 80.1399 63.204 80.0618 63.5554 80.0618C63.8678 80.0228 64.2192 80.1008 64.4926 80.257Z" fill="#98A2B3"/>
    <path d="M50.3576 87.6371L53.5985 86.7781L64.5318 83.8495L67.7727 82.9905C68.3585 82.8733 68.9832 83.0295 69.4518 83.459L71.8337 85.8409L79.8384 93.8456L82.2203 96.2275C82.6498 96.657 82.806 97.3208 82.6498 97.9066C82.5326 98.297 82.1422 99.7808 81.7907 101.147L78.8622 112.081C78.4717 113.447 78.0812 114.97 78.0032 115.322C77.9251 115.595 77.7689 115.868 77.5346 116.103C77.3393 116.337 77.066 116.493 76.7536 116.571L73.5127 117.43L62.5794 120.359L59.3385 121.218L59.2214 120.827L59.1042 120.398L62.3452 119.539L73.2784 116.61L76.5194 115.751C76.6755 115.712 76.7927 115.634 76.9098 115.517C77.027 115.4 77.1051 115.283 77.1441 115.126L78.0032 111.886L80.9317 100.952C81.3222 99.5856 81.7127 98.1018 81.7907 97.7113C81.8298 97.3989 81.7517 97.1256 81.5565 96.8913L79.2136 94.5094L71.2089 86.5047L68.827 84.1228C68.5927 83.9276 68.2804 83.8495 68.007 83.8886L64.7661 84.7476L53.8328 87.7152L50.5919 88.5742C50.4357 88.6133 50.3186 88.6914 50.2014 88.8085C50.0843 88.9257 50.0062 89.0428 49.9671 89.199C49.85 89.5895 49.4595 91.0733 49.1081 92.4399L46.1795 103.334C45.8281 104.701 45.4377 106.185 45.3205 106.575C45.2815 106.887 45.3596 107.161 45.5548 107.395L47.9367 109.777L55.9414 117.782L58.3233 120.164C58.5576 120.359 58.8699 120.437 59.1433 120.398L59.2604 120.827L59.3776 121.257C58.7919 121.374 58.1671 121.218 57.6985 120.788L55.3166 118.406L47.2729 110.285L44.891 107.903C44.4615 107.473 44.3053 106.848 44.4224 106.224C44.5396 105.833 44.93 104.349 45.2815 102.983L48.21 92.0495L49.0691 88.8085C49.1472 88.5352 49.3033 88.2619 49.5376 88.0276C49.811 87.8714 50.0843 87.7152 50.3576 87.6371Z" fill="#98A2B3"/>
    <path d="M47.4676 118.25C38.6039 109.386 38.6039 95.017 47.4676 86.1142C56.3314 77.2114 70.7008 77.2504 79.6036 86.1142C88.5064 94.9779 88.4674 109.347 79.6036 118.25C70.7399 127.114 56.3704 127.114 47.4676 118.25ZM78.8617 117.508C87.296 109.035 87.2569 95.3293 78.7836 86.9342C70.3103 78.4999 56.6047 78.539 48.2095 87.0123C39.8144 95.4465 39.8144 109.113 48.2486 117.547C56.6828 126.021 70.3884 125.982 78.8617 117.508C78.8617 117.547 78.8617 117.547 78.8617 117.508Z" fill="#98A2B3"/>
    <path d="M64.2583 85.7237L66.6792 87.1294L74.8401 91.8151L77.2611 93.2208C77.6906 93.4941 77.9639 93.9627 77.9639 94.4703V97.2427V109.465C77.9249 109.972 77.6906 110.441 77.2611 110.714L74.8401 112.081L66.6792 116.805L64.2583 118.211C64.024 118.328 63.7897 118.406 63.5554 118.406C63.3212 118.406 63.0478 118.328 62.8526 118.211L60.4317 116.805L52.2708 112.081L49.8498 110.675L50.0451 110.363L50.2403 110.05L52.6222 111.456L60.7831 116.181L63.204 117.586C63.3212 117.664 63.4383 117.664 63.5554 117.664C63.6726 117.664 63.7897 117.664 63.9069 117.586L66.3278 116.181L74.4887 111.456L76.9096 110.05C77.1049 109.894 77.2611 109.699 77.2611 109.425V106.653V94.4313C77.222 94.197 77.1049 93.9627 76.9096 93.8065L74.4887 92.4008L66.3669 87.7151L63.9459 86.3094C63.8288 86.2704 63.7116 86.2313 63.5945 86.2313C63.4774 86.2313 63.3602 86.2704 63.2431 86.3094L60.8221 87.7151L52.6612 92.4008L50.2403 93.8065C50.0451 93.9627 49.8889 94.197 49.8889 94.4313V97.2036V109.425C49.9279 109.66 50.0451 109.894 50.2403 110.05L50.0451 110.363L49.8498 110.675C49.4203 110.402 49.147 109.933 49.147 109.425V106.614V94.3922C49.147 93.8846 49.4203 93.416 49.8498 93.1427L52.2708 91.737L60.4317 87.0513L62.8526 85.6456C63.0869 85.5285 63.3212 85.4504 63.5554 85.4504C63.7897 85.5675 64.024 85.6066 64.2583 85.7237Z" fill="#98A2B3"/>
    <path d="M51.646 113.838C45.0861 107.278 45.0861 96.618 51.646 90.058C58.206 83.4981 68.8659 83.4981 75.4259 90.058C81.9858 96.618 81.9858 107.278 75.4259 113.838C68.8659 120.437 58.206 120.437 51.646 113.838ZM74.8792 113.33C81.1268 107.083 81.0878 96.9304 74.8402 90.6828C68.5926 84.4352 58.4403 84.4743 52.1927 90.7218C45.9842 96.9694 45.9842 107.083 52.1927 113.33C58.4403 119.578 68.5926 119.617 74.8792 113.33Z" fill="#98A2B3"/>
    <rect x="106.958" y="51.1183" width="102.085" height="102.085" rx="15.3127" fill="#F1F4FA"/>
    <path d="M160.146 105.851C160.227 106.015 160.47 106.015 160.47 105.851L166.148 90.9385C166.392 90.201 167.122 89.7913 167.852 89.7913H173.124C174.098 89.7913 174.99 90.6107 174.99 91.594C174.99 91.8398 174.99 92.0036 174.909 92.2495L162.092 127.073C162.092 127.155 161.687 127.483 161.362 127.728C161.281 127.81 161.119 127.81 160.957 127.81C160.47 127.646 159.983 127.237 159.821 126.745L153.007 110.112C152.764 109.62 152.196 109.374 151.709 109.62C151.547 109.702 151.304 109.866 151.223 110.112L142.624 127.401C142.543 127.483 142.462 127.565 142.381 127.483C142.3 127.483 142.3 127.401 142.3 127.401L128.915 92.1675C128.591 91.1843 128.996 90.1191 129.97 89.7913C130.213 89.7094 130.375 89.6274 130.619 89.6274H136.378C137.108 89.6274 137.838 90.1191 138.082 90.7746L143.76 105.769C143.841 105.933 144.084 105.933 144.084 105.769L151.223 90.1191C151.466 89.6275 152.034 89.3816 152.52 89.6274C152.764 89.7094 152.926 89.8733 153.007 90.1191L160.146 105.851ZM182.995 75.5353C182.914 75.2895 182.508 75.2895 182.427 75.5353C182.103 77.174 181.373 79.6321 180.075 80.9431C178.777 82.2541 176.343 82.9916 174.721 83.3193C174.478 83.4013 174.478 83.811 174.721 83.8929C176.343 84.2206 178.777 84.9581 180.075 86.2691C181.778 87.9898 182.346 90.366 182.59 91.7589C182.59 91.8408 182.914 91.8408 182.914 91.7589C183.238 90.284 183.887 87.662 185.266 86.2691C186.564 84.9581 188.998 84.2206 190.62 83.8929C190.864 83.811 190.864 83.4013 190.62 83.3193C188.998 82.9916 186.564 82.2541 185.266 80.9431C184.05 79.6321 183.32 77.174 182.995 75.5353Z" fill="#325FE8"/>
    <rect x="214.119" y="63.7763" width="76.7687" height="76.7687" rx="11.5153" fill="#F1F4FA"/>
    <g style="mix-blend-mode:luminosity">
        <path d="M252.497 76C266.499 76 273.537 83.6088 273.537 83.6088C273.537 83.6088 274.343 89.2417 273.828 100.581C273.053 117.712 252.502 128 252.499 128C252.499 128 231.948 117.71 231.171 100.581C230.658 89.2417 231.463 83.6088 231.463 83.6088C231.463 83.6088 238.496 76 252.497 76Z" fill="#98A2B3"/>
        <path d="M242.133 98.5664C242.133 92.3975 246.783 87.3761 252.5 87.3761C258.217 87.3761 262.876 92.2574 262.876 98.257C262.876 103.048 258.949 106.987 255.923 109.014C257.097 109.716 259.688 110.455 262.169 110.692C265.792 107.751 268 103.208 268 98.257C268 89.2938 261.047 82 252.498 82C243.949 82 237 89.2961 237 98.2592C237 103.671 239.15 108.483 243.216 112.167C247.018 115.612 252.58 117.911 258.912 119C260.284 118.205 262.63 115.858 263.509 114.485C258.221 113.771 253.215 112.418 249.861 110.572C244.735 107.751 242.135 103.712 242.135 98.5642" fill="white"/>
    </g>
</svg>
