<svg fill="none" viewBox="0 0 479 474" xmlns="http://www.w3.org/2000/svg"><path clip-rule="evenodd" d="m220.262 1.41682c-24.571 5.42859-45.523 23.04758-54.857 46.19048-2.666 6.3809-5.524 19.3332-5.619 24.4761 0 3.2381-.285 3.4285-12.19 9.5238-52.6668 26.5718-90.1906 71.4288-106.2858 126.8568-3.2381 11.334-7.4286 35.81-7.4286 43.429 0 3.555 0 4.97.707 5.657.4671.455 1.2428.592 2.5311.819 1.7143.286 9.619.571 17.4285.762l14.2857.286v-4.572c0-2.381.8572-9.809 2-16.476 5.9048-36.095 20.5715-65.524 45.8091-91.714 12.096-12.476 28.286-24.762 41.429-31.334l8.667-4.381 4.381 6.762c10.952 16.858 29.238 29.429 49.238 33.81 32.857 7.143 68.38-9.524 83.809-39.429 7.619-14.7615 10.095-27.8091 8.476-44.1901-1.047-10.4762-2.762-15.9047-8.666-27.5238-7.619-14.9523-22.667-28.4761-38.858-35.0475-12.952-5.14294-31.619-6.76196-44.857-3.90478zm32.762 37.71428c7.81 3.5238 12.095 6.9523 16.476 13.0476 15.334 21.4286 7.81 50.8573-15.809 61.7143-21.238 9.809-44.571 1.428-54.571-19.7143-3.429-7.143-3.715-8.4762-3.715-16.762-.095-18.4762 8.762-31.9047 26-39.0476 5.238-2.2857 7.048-2.4761 15.905-2.1904 8.286.1904 11.048.7619 15.714 2.9524zm87.81 69.4289-9.334 14.666 2.381 1.619c16 10.381 35.048 29.334 45.905 45.524 18.857 28.095 29.048 60.857 29.048 93.048 0 7.238-.286 14.666-.667 16.38l-.005.025c-.567 3.024-.584 3.118-7.233 3.118-19.143 0-38.381 8.191-52.667 22.381-19.809 19.715-26.762 44.095-20.857 72.953 4.095 20.095 20.476 40.857 39.905 50.666 12.667 6.286 22.381 8.286 37.524 7.714 14-.571 20-2.19 33.428-8.952 11.048-5.619 25.238-19.809 31.238-31.333 10.191-19.429 11.905-40.762 4.857-61.524-4.571-13.428-14.666-27.238-26.095-35.905l-5.619-4.285.667-6.572c1.238-11.143.762-37.143-.953-49.333-4.857-36.191-19.714-72.095-41.047-98.952-8-10.096-23.524-26-31.619-32.477-7.714-6.19-17.905-13.4281-18.857-13.4281-.381 0-4.953 6.5711-10 14.6671zm78.095 214.19c8.571 4 15.905 11.333 20.095 19.905 3.143 6.381 3.333 7.333 3.333 17.714 0 10.476-.19 11.428-3.333 17.714-10.19 20.762-34.381 28.952-55.809 18.857-15.619-7.238-25.048-25.428-22.381-42.857 2.476-15.905 12.571-27.714 28.476-33.428 8-2.858 21.238-2 29.619 2.095zm-411.71405 4.667c11.14285-23.62 31.23805-38.572 58.66665-43.905 5.5238-1.048 23.619.285 30.7619 2.285 25.0475 7.239 45.9045 27.429 53.0475 51.619 6.667 22.191 3.048 47.524-9.048 64.762-1.142 1.524-1.904 2.953-1.714 3.143 2.762 2.476 18.667 11.81 26.381 15.524 28 13.428 61.429 19.333 89.524 16 22-2.572 35.524-6 56.19-14.476 1.429-.572 3.048 2 9.238 14.381 4.191 8.381 7.619 15.428 7.619 15.904 0 2.191-27.333 11.905-44.285 15.619-17.048 3.81-26.667 4.858-44.286 4.858-44.667-.096-84.095-12.667-120.19-38.477-5.753-4.08-7.465-5.294-9.031-5.128-.663.071-1.3.389-2.207.843-12.1909 6.285-34.1909 8.381-49.0481 4.666-22.5713-5.619-40.9523-20.285-50.95229-40.571-5.23807-10.667-7.047606-17.905-7.714262-30.571-.761902-13.715 1.238102-24.286 7.047602-36.476zm109.90505 26.761c-2.477-14.19-11.048-25.428-24.0003-31.523-16.2858-7.619-37.3334-2.953-48.4762 10.761-14 17.048-12.8571 40.572 2.5714 56 15.3333 15.334 39.3333 15.905 56.6671 1.429 9.809-8.19 15.428-23.81 13.238-36.667z" fill="#647487" fill-rule="evenodd"/></svg>