<svg width="32" height="32" fill="none" xmlns="http://www.w3.org/2000/svg"><path d="M9.019 13.879c0 .389.042.704.117.936.085.231.191.484.34.757a.454.454 0 01.075.242c0 .105-.064.21-.202.315l-.67.442a.514.514 0 01-.277.095c-.107 0-.213-.053-.32-.148a3.253 3.253 0 01-.383-.494 8.108 8.108 0 01-.33-.62c-.83.967-1.873 1.451-3.128 1.451-.894 0-1.607-.252-2.129-.757-.521-.505-.787-1.178-.787-2.02 0-.893.319-1.62.968-2.166.65-.547 1.511-.82 2.607-.82.362 0 .735.031 1.128.084.394.052.799.136 1.224.231v-.768c0-.8-.17-1.356-.5-1.683-.34-.326-.915-.483-1.735-.483-.372 0-.755.042-1.149.136-.394.095-.777.21-1.15.358-.17.074-.297.116-.372.137a.66.66 0 01-.17.031c-.149 0-.223-.105-.223-.326v-.515c0-.168.02-.295.074-.368a.796.796 0 01.298-.221c.373-.19.82-.347 1.34-.473a6.525 6.525 0 011.661-.2c1.267 0 2.192.284 2.788.852.586.568.884 1.43.884 2.587v3.408h.02zm-4.32 1.598c.35 0 .712-.063 1.095-.189a2.373 2.373 0 001.011-.673c.17-.2.298-.42.362-.673.064-.253.107-.558.107-.915v-.442a8.995 8.995 0 00-.98-.179 8.106 8.106 0 00-1-.063c-.713 0-1.234.137-1.585.42-.352.285-.522.684-.522 1.21 0 .495.128.863.394 1.115.255.263.628.39 1.117.39zm8.545 1.136c-.192 0-.32-.031-.405-.105-.085-.063-.16-.21-.223-.41l-2.501-8.13c-.064-.21-.096-.347-.096-.42 0-.17.085-.264.256-.264h1.043c.202 0 .34.032.415.105.085.063.149.21.212.41l1.788 6.963 1.66-6.962c.054-.21.117-.348.203-.41.085-.064.234-.106.425-.106h.852c.202 0 .34.032.425.105.086.063.16.21.203.41l1.681 7.047L21.023 7.8c.064-.21.138-.348.213-.41.085-.064.223-.106.415-.106h.99c.17 0 .266.084.266.263 0 .053-.011.105-.022.168-.01.064-.032.148-.074.263l-2.565 8.13c-.064.21-.138.347-.223.41-.085.064-.224.106-.405.106h-.915c-.202 0-.34-.032-.426-.105-.085-.074-.16-.21-.202-.421l-1.65-6.784-1.638 6.773c-.053.21-.117.347-.202.421-.086.074-.235.105-.426.105h-.915zm13.675.284a7.124 7.124 0 01-1.64-.19c-.531-.125-.946-.262-1.223-.42-.17-.095-.287-.2-.33-.294a.734.734 0 01-.064-.295v-.536c0-.221.085-.326.245-.326.064 0 .128.01.192.031.063.021.16.063.266.105.361.158.755.284 1.17.369.426.084.841.126 1.267.126.67 0 1.192-.116 1.553-.347a1.13 1.13 0 00.554-1c0-.294-.096-.536-.288-.736-.191-.2-.553-.378-1.074-.547l-1.544-.473c-.776-.242-1.351-.6-1.702-1.073a2.487 2.487 0 01-.532-1.525c0-.441.095-.83.287-1.167.192-.337.447-.631.766-.863.32-.241.681-.42 1.107-.546a4.688 4.688 0 011.34-.18c.235 0 .48.011.714.043.245.031.468.073.692.115.212.053.415.106.606.169.192.063.34.126.447.19a.917.917 0 01.32.262.56.56 0 01.095.347v.494c0 .221-.085.337-.245.337-.085 0-.223-.042-.404-.126-.607-.274-1.288-.41-2.043-.41-.607 0-1.086.094-1.416.294-.33.2-.5.505-.5.936 0 .295.107.547.32.747.212.2.606.4 1.17.578l1.511.474c.767.241 1.32.578 1.65 1.01.33.43.49.925.49 1.472 0 .452-.096.862-.277 1.22a2.838 2.838 0 01-.777.925c-.33.263-.724.453-1.181.59-.48.146-.98.22-1.522.22z" fill="#fff"/><path fill-rule="evenodd" clip-rule="evenodd" d="M28.93 22.009c-3.501 2.556-8.588 3.913-12.962 3.913-6.13 0-11.653-2.24-15.824-5.964-.33-.294-.032-.694.362-.463 4.512 2.588 10.078 4.155 15.835 4.155 3.884 0 8.152-.8 12.078-2.44.586-.263 1.086.378.511.799z" fill="#F90"/><path fill-rule="evenodd" clip-rule="evenodd" d="M30.388 20.368c-.447-.568-2.959-.273-4.097-.137-.34.043-.394-.252-.085-.473 2-1.388 5.289-.988 5.672-.526.383.474-.107 3.723-1.98 5.28-.287.242-.564.116-.436-.2.426-1.041 1.373-3.386.926-3.944z" fill="#F90"/></svg>