<svg width="16" height="16" viewBox="0 0 16 16" fill="none" xmlns="http://www.w3.org/2000/svg">
<g clip-path="url(#clip0)">
<path d="M1.90925 11.855C2.03991 11.855 2.1637 11.8859 2.22567 11.9478C2.23598 12.0442 2.14995 12.1989 2.09493 12.1989C2.0296 12.1748 1.9677 12.161 1.89205 12.161C1.57914 12.161 1.42433 12.4843 1.42433 12.8041C1.42433 13.0036 1.4931 13.124 1.65135 13.124C1.81984 13.124 1.99177 13.0105 2.08805 12.9245C2.11212 12.9417 2.14307 12.9967 2.14307 13.0586C2.14307 13.1274 2.12244 13.1927 2.06054 13.2546C1.95051 13.3647 1.76482 13.4575 1.49654 13.4575C1.18707 13.4575 0.973877 13.2822 0.973877 12.8729C0.973877 12.3365 1.32805 11.855 1.90581 11.855H1.90925Z" fill="#373535"/>
<path d="M2.92014 13.107C3.08863 13.107 3.39473 12.8112 3.4807 12.2473C3.48414 12.2129 3.48758 12.2026 3.49445 12.1682C3.45663 12.1545 3.40505 12.1442 3.3534 12.1442C3.22617 12.1442 3.09551 12.182 2.97859 12.3402C2.85824 12.5086 2.80667 12.7184 2.80667 12.887C2.80667 13.0313 2.84793 13.107 2.9167 13.107H2.92014ZM2.36646 12.9523C2.36646 12.7494 2.43523 12.3952 2.69319 12.1373C2.91326 11.9103 3.18147 11.8552 3.42568 11.8552C3.5873 11.8552 3.80736 11.9068 3.94491 11.9344C3.91052 12.0857 3.828 12.6565 3.79017 12.9866C3.77298 13.1277 3.7661 13.3237 3.77298 13.3959C3.65951 13.444 3.44631 13.4578 3.38779 13.4578C3.35691 13.4578 3.34996 13.3168 3.36035 13.1827C3.36372 13.138 3.37066 13.0726 3.37403 13.0451C3.23993 13.2686 2.97516 13.4578 2.69663 13.4578C2.49719 13.4578 2.36646 13.2927 2.36646 12.9557V12.9523Z" fill="#373535"/>
<path d="M4.80095 11.8552C4.94194 11.8552 5.07604 11.9068 5.13801 11.9721C5.13457 12.0685 5.05892 12.23 4.9385 12.1853C4.88692 12.1681 4.83534 12.1545 4.76657 12.1545C4.67373 12.1545 4.59464 12.1957 4.59464 12.2816C4.59464 12.347 4.64278 12.3952 4.87317 12.5568C5.03829 12.6771 5.10362 12.7837 5.10362 12.935C5.10362 13.1861 4.86629 13.4578 4.45366 13.4578C4.28517 13.4578 4.13723 13.3924 4.08909 13.3237C4.0272 13.2205 4.07534 13.0176 4.14418 13.0519C4.23359 13.0966 4.38145 13.1449 4.5018 13.1449C4.61527 13.1449 4.68748 13.0932 4.68748 13.0244C4.68748 12.966 4.6359 12.9144 4.42615 12.7665C4.25071 12.6359 4.19569 12.5155 4.19569 12.378C4.19569 12.0926 4.4399 11.8552 4.79752 11.8552H4.80095Z" fill="#373535"/>
<path d="M5.98729 11.8552C6.12834 11.8552 6.26245 11.9068 6.32434 11.9721C6.3209 12.0685 6.24532 12.23 6.1249 12.1853C6.07332 12.1681 6.02167 12.1545 5.95297 12.1545C5.86013 12.1545 5.78104 12.1957 5.78104 12.2816C5.78104 12.347 5.82918 12.3952 6.05957 12.5568C6.22462 12.6771 6.28995 12.7837 6.28995 12.935C6.28995 13.1861 6.05262 13.4578 5.63999 13.4578C5.4715 13.4578 5.32364 13.3924 5.2755 13.3237C5.2136 13.2205 5.26174 13.0176 5.33052 13.0519C5.41992 13.0966 5.56778 13.1449 5.68813 13.1449C5.8016 13.1449 5.87381 13.0932 5.87381 13.0244C5.87381 12.966 5.82223 12.9144 5.61248 12.7665C5.43711 12.6359 5.38209 12.5155 5.38209 12.378C5.38209 12.0926 5.62623 11.8552 5.98392 11.8552H5.98729Z" fill="#373535"/>
<path d="M7.07041 13.107C7.23897 13.107 7.54501 12.8112 7.63097 12.2473C7.63441 12.2129 7.63792 12.2026 7.6448 12.1682C7.6069 12.1545 7.5554 12.1442 7.50375 12.1442C7.37652 12.1442 7.24585 12.182 7.12887 12.3402C7.00859 12.5086 6.95694 12.7184 6.95694 12.887C6.95694 13.0313 6.9982 13.107 7.06704 13.107H7.07041ZM6.51672 12.9523C6.51672 12.7494 6.58557 12.3952 6.84346 12.1373C7.06353 11.9103 7.33174 11.8552 7.57596 11.8552C7.73757 11.8552 7.95771 11.9068 8.09526 11.9344C8.06087 12.0857 7.97834 12.6565 7.94052 12.9866C7.92325 13.1277 7.91645 13.3237 7.92325 13.3959C7.80978 13.444 7.59666 13.4578 7.53813 13.4578C7.50726 13.4578 7.50031 13.3168 7.51062 13.1827C7.51406 13.138 7.52094 13.0726 7.52438 13.0451C7.39027 13.2686 7.1255 13.4578 6.84697 13.4578C6.64746 13.4578 6.51672 13.2927 6.51672 12.9557V12.9523Z" fill="#373535"/>
<path d="M8.8721 12.3023C9.03034 12.0478 9.23659 11.8552 9.5255 11.8552C9.76964 11.8552 9.84872 12.0822 9.80409 12.4054C9.78002 12.5568 9.73876 12.7734 9.71118 12.9728C9.68711 13.1414 9.66992 13.2926 9.67343 13.3959C9.58403 13.4406 9.32262 13.4578 9.26417 13.4578C9.2401 13.4578 9.23659 13.2686 9.2676 13.0691C9.29504 12.9041 9.35357 12.6049 9.38108 12.4329C9.39834 12.3333 9.39483 12.2128 9.29855 12.2128C9.17125 12.2128 8.86873 12.4158 8.71736 13.2479C8.70697 13.3167 8.67954 13.358 8.64164 13.382C8.59013 13.4131 8.48003 13.4406 8.25659 13.444C8.29785 13.2343 8.36319 12.8044 8.41133 12.488C8.45596 12.1992 8.47322 12.0134 8.46283 11.9412C8.52136 11.9206 8.82747 11.8552 8.86171 11.8552C8.89968 11.8552 8.90648 11.9618 8.8721 12.2198C8.86873 12.2439 8.86522 12.2816 8.86171 12.3023H8.8721Z" fill="#373535"/>
<path d="M10.619 13.1036C10.7702 13.1036 11.0764 12.8216 11.1623 12.323C11.1658 12.2955 11.1761 12.2439 11.183 12.2129C11.1382 12.1716 11.0798 12.1441 10.987 12.1441C10.6395 12.1441 10.4848 12.5602 10.4848 12.8595C10.4848 13.0211 10.5399 13.1036 10.6155 13.1036H10.619ZM10.392 13.4578C10.172 13.4578 10.0344 13.2618 10.0344 12.9248C10.0344 12.3677 10.3816 11.8552 10.9663 11.8552C11.0695 11.8552 11.1623 11.8828 11.2207 11.9171C11.2517 11.759 11.3239 11.2706 11.3274 11.1262C11.4236 11.109 11.63 11.0781 11.7228 11.0781C11.7607 11.0781 11.7711 11.1159 11.7572 11.2018C11.6746 11.7177 11.5269 12.7081 11.4993 12.9282C11.4786 13.1139 11.4753 13.2962 11.4786 13.3993C11.3687 13.4474 11.1451 13.4578 11.0867 13.4578C11.0625 13.4578 11.0488 13.2996 11.0557 13.1586C11.0592 13.1139 11.066 13.0485 11.066 13.0383C10.8941 13.3202 10.6567 13.4578 10.3954 13.4578H10.392Z" fill="#373535"/>
<path d="M12.407 12.3505C12.5893 11.9447 12.8059 11.8553 12.9469 11.8553C12.9917 11.8553 13.0604 11.8828 13.0913 11.9172C13.1052 12.0307 13.0158 12.2576 12.9366 12.3436C12.8953 12.323 12.8438 12.3023 12.7853 12.3023C12.6683 12.3023 12.4379 12.4847 12.2935 13.2687C12.2831 13.3341 12.2626 13.3616 12.2248 13.3788C12.1663 13.4131 11.9359 13.4407 11.8259 13.4441C11.8774 13.1621 11.9668 12.5878 12.0012 12.2508C12.0115 12.1648 12.0149 12.0066 12.0081 11.9447C12.0734 11.9138 12.3314 11.8553 12.3898 11.8553C12.4208 11.8553 12.4449 12.0445 12.3966 12.3505H12.407Z" fill="#373535"/>
<path d="M13.6208 13.107C13.7895 13.107 14.0954 12.8112 14.1815 12.2473C14.1848 12.2129 14.1883 12.2026 14.1952 12.1682C14.1574 12.1545 14.1058 12.1442 14.0542 12.1442C13.9269 12.1442 13.7963 12.182 13.6793 12.3402C13.559 12.5086 13.5073 12.7184 13.5073 12.887C13.5073 13.0313 13.5486 13.107 13.6175 13.107H13.6208ZM13.0671 12.9523C13.0671 12.7494 13.136 12.3952 13.3939 12.1373C13.6139 11.9103 13.8822 11.8552 14.1264 11.8552C14.288 11.8552 14.5081 11.9068 14.6457 11.9344C14.6113 12.0857 14.5288 12.6565 14.4909 12.9866C14.4737 13.1277 14.4668 13.3237 14.4737 13.3959C14.3603 13.444 14.1471 13.4578 14.0885 13.4578C14.0577 13.4578 14.0508 13.3168 14.061 13.1827C14.0645 13.138 14.0713 13.0726 14.0749 13.0451C13.9407 13.2686 13.676 13.4578 13.3974 13.4578C13.1979 13.4578 13.0671 13.2927 13.0671 12.9557V12.9523Z" fill="#373535"/>
<path d="M12.6107 6.02788C12.7242 7.34973 10.6439 8.60782 7.96441 8.83771C5.28488 9.06759 3.02071 8.18215 2.90738 6.86037C2.79391 5.53831 4.87419 4.28028 7.55371 4.0504C10.2332 3.82059 12.4974 4.70581 12.6107 6.02788Z" fill="#BBE6FB"/>
<g opacity="0.350006">
<g opacity="0.350006">
<path opacity="0.350006" d="M7.63233 4.20532C6.61021 4.1887 5.41415 4.59453 4.5242 4.97456C4.43157 5.24148 4.38171 5.52538 4.38171 5.81967C4.38171 7.38766 5.79756 8.65894 7.54415 8.65894C9.29074 8.65894 10.7066 7.38766 10.7066 5.81967C10.7066 5.32344 10.5645 4.85722 10.3152 4.45132C9.60322 4.34065 8.62394 4.22144 7.63233 4.20532Z" fill="white"/>
</g>
</g>
<path d="M7.54427 4.20512C6.9784 4.1706 6.00306 4.46581 5.18976 4.76031C5.06619 5.05195 4.99756 5.37109 4.99756 5.706C4.99756 7.07986 6.24319 8.1936 7.56089 8.1936C8.86992 8.1936 10.0281 7.07807 10.1242 5.706C10.1555 5.2592 10.0016 4.83818 9.7881 4.4752C8.94492 4.32669 8.0501 4.236 7.54427 4.20512Z" fill="white"/>
<path d="M6.09213 5.52568C6.16155 5.37195 6.26671 5.29666 6.36858 5.16778C6.35726 5.13727 6.33248 5.03748 6.33248 5.00287C6.33248 4.84842 6.45777 4.72306 6.61229 4.72306C6.64875 4.72306 6.68357 4.73029 6.71545 4.74297C7.17858 4.39002 7.78829 4.23614 8.401 4.37311C8.45695 4.38572 8.51183 4.40098 8.5657 4.41774C7.96015 4.33378 7.27759 4.54826 6.81331 4.923C6.82749 4.95645 6.86682 5.05209 6.86682 5.09056C6.86682 5.24508 6.76681 5.28269 6.61229 5.28269C6.57719 5.28269 6.54366 5.27596 6.51264 5.26414C6.40777 5.40498 6.27925 5.67326 6.21635 5.84096C6.4731 6.07063 6.70506 6.15387 7.00737 6.26685C7.00658 6.25245 7.01776 6.23912 7.01776 6.22444C7.01776 5.75858 7.42788 5.37997 7.89381 5.37997C8.31131 5.37997 8.65704 5.68357 8.72452 6.08188C8.93284 5.94935 9.13428 5.84777 9.2878 5.65134C9.25198 5.60764 9.21337 5.48392 9.21337 5.42303C9.21337 5.28283 9.32713 5.16915 9.46733 5.16915C9.48717 5.16915 9.50622 5.17201 9.52478 5.17631C9.60272 5.01613 9.66153 4.84635 9.69914 4.67127C8.97059 4.13191 7.56098 4.20548 7.56098 4.20548C7.56098 4.20548 6.43929 4.14695 5.67993 4.51703C5.73058 4.88317 5.87665 5.23126 6.09213 5.52568Z" fill="#373535"/>
<path d="M9.57436 5.31561C9.62587 5.36203 9.65395 5.40279 9.67608 5.44248C9.74421 5.56498 9.60753 5.67709 9.46734 5.67709C9.45308 5.67709 9.43933 5.67515 9.42564 5.67286C9.26768 5.91972 8.99102 6.23629 8.74524 6.39561C9.12212 6.45736 9.47751 6.6083 9.76033 6.84155C9.96628 6.47255 10.1242 5.93971 10.1242 5.48711C10.1242 5.1426 9.97216 4.89008 9.74256 4.70483C9.73053 4.88936 9.63203 5.14747 9.57436 5.31561Z" fill="#373535"/>
<path d="M6.51481 7.65283C6.64039 7.30604 6.94929 7.03732 7.24149 6.80092C7.19873 6.74239 7.13461 6.59747 7.10789 6.52884C6.7515 6.42046 6.43615 6.21758 6.19158 5.94901C6.18979 5.95682 6.18757 5.96441 6.18571 5.97222C6.13965 6.17861 6.13119 6.38542 6.15412 6.58716C6.32476 6.61896 6.45392 6.76847 6.45392 6.94835C6.45392 7.05502 6.36043 7.20961 6.28786 7.27688C6.36674 7.44709 6.42054 7.52919 6.51481 7.65283Z" fill="#373535"/>
<path d="M6.49285 7.94394C6.34305 7.79501 6.23946 7.49793 6.14225 7.31138C6.12406 7.31418 6.10543 7.31611 6.08638 7.31611C5.88321 7.31611 5.67038 7.14561 5.71852 6.94832C5.74517 6.83915 5.82053 6.76773 5.94324 6.70812C5.91531 6.48196 5.90771 6.15687 5.96022 5.92176C5.97527 5.85449 6.00714 5.82297 6.02828 5.75893C5.80412 5.4309 5.65927 5.00036 5.65927 4.57319C5.65927 4.55757 5.66006 4.54217 5.66042 4.52669C5.2816 4.71668 4.99756 5.01598 4.99756 5.48714C4.99756 6.52932 5.59781 7.55165 6.49091 7.95239C6.49156 7.9496 6.49213 7.94673 6.49285 7.94394Z" fill="#373535"/>
<path d="M8.68892 6.50315C8.57351 6.8314 8.26146 7.06715 7.89374 7.06715C7.69703 7.06715 7.51657 6.99931 7.37316 6.88656C7.07751 7.1168 6.8093 7.52126 6.67297 7.87214C6.73415 7.93798 6.77678 7.99214 6.8454 8.05052C7.05222 8.10439 7.33705 8.05052 7.56092 8.05052C8.4614 8.05052 9.25893 7.64992 9.7162 6.94745C9.41217 6.73691 9.05355 6.53654 8.68892 6.50315Z" fill="#373535"/>
<path d="M6.06882 5.64751C6.13823 5.49378 6.22527 5.3515 6.32707 5.22263C6.31575 5.19218 6.30916 5.1593 6.30916 5.1247C6.30916 4.97025 6.43445 4.84488 6.58898 4.84488C6.62544 4.84488 6.66026 4.85212 6.69213 4.8648C7.15527 4.51184 7.76497 4.35797 8.37769 4.49494C8.43364 4.50754 8.48851 4.5228 8.54238 4.53957C7.93683 4.45561 7.31115 4.64122 6.84687 5.01603C6.86105 5.04941 6.86879 5.08623 6.86879 5.1247C6.86879 5.27922 6.7435 5.40452 6.58898 5.40452C6.55387 5.40452 6.52035 5.39778 6.48933 5.38596C6.38445 5.5268 6.2987 5.6824 6.2358 5.85017C6.4563 6.08779 6.72695 6.2757 7.02919 6.38867C7.02847 6.37427 7.02697 6.36002 7.02697 6.34533C7.02697 5.87947 7.40457 5.5018 7.8705 5.5018C8.288 5.5018 8.63372 5.8054 8.7012 6.2037C8.90952 6.07117 9.09464 5.90096 9.24808 5.70453C9.21226 5.66084 9.19006 5.60575 9.19006 5.54485C9.19006 5.40466 9.30382 5.29097 9.44401 5.29097C9.46385 5.29097 9.48291 5.29384 9.50146 5.29814C9.5794 5.13795 9.63822 4.96817 9.67583 4.79309C8.94728 4.25373 7.53767 4.3273 7.53767 4.3273C7.53767 4.3273 6.41597 4.26878 5.65662 4.63886C5.70726 5.00499 5.85333 5.35308 6.06882 5.64751Z" fill="#1287B1"/>
<path d="M9.61357 5.35735C9.66507 5.40377 9.6981 5.47032 9.6981 5.54511C9.6981 5.6853 9.58434 5.79906 9.44414 5.79906C9.42989 5.79906 9.41613 5.79713 9.40245 5.79484C9.24449 6.0417 9.03517 6.25217 8.78931 6.41149C9.15265 6.4683 9.49465 6.62246 9.7774 6.85571C9.98336 6.48671 10.1011 6.06168 10.1011 5.60908C10.1011 5.26458 9.94897 5.01205 9.71937 4.8268C9.70734 5.01134 9.67123 5.18921 9.61357 5.35735Z" fill="#1287B1"/>
<path d="M6.55349 7.73633C6.67907 7.38953 6.89728 7.07834 7.18948 6.84201C7.14672 6.78341 7.11147 6.71943 7.08475 6.65081C6.72828 6.54242 6.41301 6.33954 6.16844 6.07097C6.16665 6.07878 6.16436 6.08637 6.16257 6.09418C6.11643 6.30057 6.10798 6.50739 6.13097 6.70912C6.30154 6.74093 6.43078 6.89043 6.43078 7.07031C6.43078 7.17698 6.385 7.27291 6.31243 7.34017C6.37827 7.47972 6.45922 7.61268 6.55349 7.73633Z" fill="#1287B1"/>
<path d="M6.49179 7.93954C6.342 7.79061 6.21627 7.61954 6.11913 7.43307C6.10087 7.43586 6.08224 7.43773 6.06326 7.43773C5.86009 7.43773 5.6954 7.27303 5.6954 7.06994C5.6954 6.92437 5.78022 6.79886 5.90293 6.73926C5.87506 6.51317 5.88452 6.27849 5.9371 6.04338C5.95215 5.97618 5.97049 5.91056 5.99162 5.84645C5.76746 5.51849 5.63615 5.12198 5.63615 4.6948C5.63615 4.67919 5.63687 4.66379 5.63723 4.64838C5.25841 4.83829 4.97437 5.13767 4.97437 5.60875C4.97437 6.651 5.59675 7.54726 6.48986 7.948C6.4905 7.9452 6.49108 7.94234 6.49179 7.93954Z" fill="#1287B1"/>
<path d="M8.66577 6.625C8.55036 6.95324 8.2383 7.189 7.87059 7.189C7.67387 7.189 7.49342 7.12116 7.35 7.0084C7.05435 7.23864 6.8312 7.55249 6.69495 7.90344C6.75605 7.96927 6.82139 8.03131 6.89002 8.08962C7.0969 8.14349 7.31389 8.17236 7.53776 8.17236C8.43824 8.17236 9.22991 7.70744 9.68717 7.00504C9.38314 6.79442 9.0304 6.65838 8.66577 6.625Z" fill="#1287B1"/>
<path d="M8.69551 6.40713L9.47485 6.22123L8.69257 6.18133L9.32921 5.69477L8.60682 5.95374L9.09775 5.2734L8.4197 5.72407L8.65675 4.92768L8.19111 5.58409L8.18051 4.7546L7.87411 5.49347L7.61866 4.74579L7.63248 5.62657L7.19098 4.83706L7.42989 5.67536L6.71373 5.15455L7.27472 5.85946L6.38563 5.53251L7.08732 6.05167L6.18756 6.07932L7.10752 6.31673L6.18677 6.51581L7.09563 6.58171L6.32918 7.0725L7.11841 6.78638L6.57082 7.4799L7.26276 6.92185L7.01361 7.85249L7.54781 7.09514L7.47295 7.9896L7.77619 7.17874L8.0343 8.03101L8.09705 7.17616L8.48017 7.9055L8.25379 7.07128L8.95534 7.61472L8.50245 6.92185L9.27212 7.22172L8.68362 6.64339L9.47277 6.70543L8.69551 6.40713Z" fill="white"/>
<g opacity="0.350006">
<g opacity="0.350006">
<path opacity="0.350006" d="M0.398438 7.89844C2.81548 5.48147 4.74589 4.73529 6.49785 4.39466C6.72967 4.3496 6.77351 3.84305 6.77351 3.84305C6.77351 3.84305 6.80597 4.21614 6.96822 4.26478C7.13041 4.31349 7.34124 3.68079 7.34124 3.68079C7.34124 3.68079 7.1466 4.24859 7.34124 4.28104C7.53595 4.31349 7.89278 3.7295 7.89278 3.7295C7.89278 3.7295 7.74685 4.23233 7.8442 4.26478C7.94142 4.29723 8.42805 3.53487 8.42805 3.53487C8.42805 3.53487 8.13606 4.03769 8.41186 4.0864C8.68773 4.13504 9.09005 3.74319 9.09005 3.74319C9.09005 3.74319 8.7737 4.10173 8.91468 4.15123C9.51493 4.36221 10.0006 3.58208 10.0006 3.58208C10.0006 3.58208 9.88809 3.92414 9.5961 4.29723C10.2287 4.45942 10.6985 3.50643 10.6985 3.50643L10.2287 4.45942C10.472 4.5893 11.4454 3.46996 11.4454 3.46996C11.4454 3.46996 10.9425 4.34594 10.6505 4.52432C10.8127 4.65413 11.3967 4.13504 11.3967 4.13504C11.3967 4.13504 10.9263 4.71896 11.1047 4.75141C11.3642 4.96231 12.3213 3.6646 12.3213 3.6646C12.3213 3.6646 11.9482 4.42697 11.3967 5.02721C11.8577 5.25781 13.0027 3.77815 13.0027 3.77815C13.0027 3.77815 12.9702 4.24859 12.1429 4.99476C12.7593 4.91367 13.5542 3.74569 13.5542 3.74569C13.5542 3.74569 13.2622 4.62168 12.5646 5.23804C13.1699 5.17507 14.138 3.68079 14.138 3.68079C14.138 3.68079 13.765 4.71896 13.0027 5.31921C13.8462 5.50575 15.0628 4.24859 15.0628 4.24859C15.0628 4.24859 14.5843 5.14083 13.9597 5.50575C14.6573 5.77339 15.6143 4.67032 15.6143 4.67032C15.6143 4.67032 14.6573 6.14655 13.1325 6.08164C12.6322 6.06037 11.1188 4.56379 7.87659 4.68658C3.59411 4.84884 2.68575 6.66563 0.398438 7.89844Z" fill="#373535"/>
</g>
</g>
<path d="M0.497437 7.71484C2.91448 5.29787 4.84482 4.55177 6.59678 4.21106C6.82867 4.166 6.87251 3.65953 6.87251 3.65953C6.87251 3.65953 6.90489 4.03269 7.06722 4.08126C7.22941 4.1299 7.44024 3.49734 7.44024 3.49734C7.44024 3.49734 7.2456 4.06514 7.44024 4.09752C7.63495 4.1299 7.99177 3.54598 7.99177 3.54598C7.99177 3.54598 7.84585 4.0488 7.94306 4.08126C8.04042 4.11371 8.52705 3.35127 8.52705 3.35127C8.52705 3.35127 8.23505 3.85417 8.51086 3.90281C8.78659 3.95152 9.18905 3.55966 9.18905 3.55966C9.18905 3.55966 8.8727 3.91821 9.01368 3.96771C9.61393 4.17861 10.0995 3.39855 10.0995 3.39855C10.0995 3.39855 9.98695 3.74062 9.6951 4.11371C10.3277 4.27597 10.7975 3.32283 10.7975 3.32283L10.3277 4.27597C10.571 4.4057 11.5443 3.28651 11.5443 3.28651C11.5443 3.28651 11.0415 4.16235 10.7495 4.3408C10.9117 4.4706 11.4957 3.95152 11.4957 3.95152C11.4957 3.95152 11.0253 4.53551 11.2037 4.56789C11.4632 4.77886 12.4202 3.48108 12.4202 3.48108C12.4202 3.48108 12.0471 4.24351 11.4957 4.84369C11.9567 5.07436 13.1017 3.59462 13.1017 3.59462C13.1017 3.59462 13.0692 4.06514 12.2419 4.81131C12.8583 4.73015 13.6532 3.56217 13.6532 3.56217C13.6532 3.56217 13.3612 4.43815 12.6636 5.05459C13.2689 4.99162 14.237 3.49734 14.237 3.49734C14.237 3.49734 13.864 4.53551 13.1017 5.13569C13.9452 5.32223 15.1618 4.06514 15.1618 4.06514C15.1618 4.06514 14.6833 4.95724 14.0587 5.32223C14.7563 5.58987 15.7133 4.48679 15.7133 4.48679C15.7133 4.48679 14.7563 5.96302 13.2313 5.89812C12.7312 5.87677 11.2178 4.3802 7.97551 4.50306C3.69311 4.66524 2.78467 6.48204 0.497437 7.71484Z" fill="#373535"/>
<g opacity="0.350006">
<g opacity="0.350006">
<path opacity="0.350006" d="M0.335083 8.1629C1.61252 8.80369 2.78057 8.06561 4.25264 8.48046C5.37183 8.79596 6.73452 9.18487 8.58369 8.91717C10.4329 8.6496 12.0146 7.84662 12.769 6.41093C13.0042 5.77028 13.9612 6.557 13.9612 6.557C13.9612 6.557 13.2638 6.26501 13.28 6.40291C13.2962 6.54074 14.3263 7.01928 14.3263 7.01928C14.3263 7.01928 13.3935 6.72728 13.4503 6.94628C13.5071 7.16528 14.6181 8.04126 14.6181 8.04126C14.6181 8.04126 13.361 7.08418 13.2557 7.21392C13.1501 7.34372 13.7909 7.87097 13.7909 7.87097C13.7909 7.87097 12.7284 7.21392 12.3553 7.4077C12.0869 7.54689 13.4584 8.44687 13.4584 8.44687C13.4584 8.44687 12.5662 7.76545 12.3553 7.9439C12.1444 8.12242 13.361 9.58232 13.361 9.58232C13.361 9.58232 11.9821 8.0899 11.8443 8.1629C11.7064 8.2359 12.2254 8.94969 12.2254 8.94969C12.2254 8.94969 11.5442 8.20344 11.3577 8.33325C11.1712 8.46306 12.331 10.4015 12.331 10.4015C12.331 10.4015 11.0738 8.41442 10.5547 8.74681C11.3699 10.5353 11.0657 10.7908 11.0657 10.7908C11.0657 10.7908 10.9617 8.96624 9.94637 9.01452C9.43539 9.03888 10.1897 10.3771 10.1897 10.3771C10.1897 10.3771 9.49542 9.15486 9.03307 9.17922C9.8852 10.7918 9.58145 11.4478 9.58145 11.4478C9.58145 11.4478 9.72236 10.0705 8.56664 9.30401C9.00456 9.69321 8.29184 11.4478 8.29184 11.4478C8.29184 11.4478 8.91881 8.86229 7.82942 9.35523C7.65728 9.43295 7.81724 10.6448 7.81724 10.6448C7.81724 10.6448 7.59825 9.2578 7.26986 9.33087C7.07837 9.37335 6.05317 11.2531 6.05317 11.2531C6.05317 11.2531 6.89269 9.22134 6.63723 9.30651C6.45112 9.36862 6.10189 10.2069 6.10189 10.2069C6.10189 10.2069 6.27217 9.37951 6.10189 9.33087C5.9316 9.28216 4.98255 10.2069 4.98255 10.2069C4.98255 10.2069 5.68825 9.37951 5.56654 9.20916C5.38215 8.95105 5.16602 8.93894 4.90955 9.03888C4.5364 9.1843 4.03365 9.86615 4.03365 9.86615C4.03365 9.86615 4.53482 9.17578 4.44721 8.91717C4.30658 8.50167 2.86567 9.72015 2.86567 9.72015C2.86567 9.72015 3.7173 8.91717 3.52266 8.74681C3.32802 8.57653 2.27108 8.62918 1.94105 8.62825C0.967784 8.62524 0.630515 8.39694 0.335083 8.1629Z" fill="#373535"/>
</g>
</g>
<path d="M0.286499 8.0169C1.56394 8.6577 2.73191 7.91962 4.20399 8.33454C5.32317 8.64989 6.68593 9.03888 8.53518 8.77117C10.3844 8.50353 11.966 7.70055 12.7204 6.26501C12.9556 5.62429 13.9126 6.41093 13.9126 6.41093C13.9126 6.41093 13.2151 6.11901 13.2314 6.25691C13.2476 6.39474 14.2776 6.87328 14.2776 6.87328C14.2776 6.87328 13.3448 6.58136 13.4016 6.80036C13.4585 7.01928 14.5696 7.89526 14.5696 7.89526C14.5696 7.89526 13.3124 6.93811 13.207 7.06799C13.1016 7.19773 13.7423 7.72491 13.7423 7.72491C13.7423 7.72491 12.6798 7.06799 12.3067 7.26163C12.0382 7.40089 13.4097 8.3008 13.4097 8.3008C13.4097 8.3008 12.5175 7.61946 12.3067 7.7979C12.0958 7.97643 13.3125 9.43632 13.3125 9.43632C13.3125 9.43632 11.9335 7.9439 11.7957 8.0169C11.6578 8.08997 12.1769 8.80362 12.1769 8.80362C12.1769 8.80362 11.4955 8.05745 11.309 8.18725C11.1225 8.31699 12.2823 10.2555 12.2823 10.2555C12.2823 10.2555 11.0251 8.26835 10.5061 8.60089C11.3212 10.3893 11.0171 10.6448 11.0171 10.6448C11.0171 10.6448 10.913 8.82024 9.89772 8.8686C9.38673 8.89295 10.141 10.2311 10.141 10.2311C10.141 10.2311 9.44676 9.00879 8.98449 9.03315C9.83668 10.6458 9.5328 11.3018 9.5328 11.3018C9.5328 11.3018 9.67371 9.92439 8.51798 9.15794C8.9559 9.54722 8.24318 11.3018 8.24318 11.3018C8.24318 11.3018 8.8703 8.7163 7.78091 9.20923C7.60876 9.28703 7.76873 10.4988 7.76873 10.4988C7.76873 10.4988 7.54959 9.11188 7.22128 9.18488C7.02972 9.22736 6.00452 11.1071 6.00452 11.1071C6.00452 11.1071 6.84404 9.07534 6.58858 9.16059C6.40246 9.22256 6.05323 10.0608 6.05323 10.0608C6.05323 10.0608 6.22358 9.23352 6.05323 9.18488C5.88295 9.13623 4.93397 10.0608 4.93397 10.0608C4.93397 10.0608 5.63967 9.23352 5.51789 9.06316C5.33349 8.80505 5.11736 8.79302 4.86097 8.89295C4.48774 9.03831 3.98499 9.72015 3.98499 9.72015C3.98499 9.72015 4.48616 9.02971 4.39862 8.77117C4.25793 8.35574 2.81709 9.57415 2.81709 9.57415C2.81709 9.57415 3.66871 8.77117 3.474 8.60089C3.27936 8.43053 2.22243 8.48326 1.89239 8.48226C0.919128 8.47918 0.581931 8.25094 0.286499 8.0169Z" fill="#373535"/>
</g>
<defs>
<clipPath id="clip0">
<rect y="3" width="16" height="10.7443" fill="white"/>
</clipPath>
</defs>
</svg>
