<svg width="32" height="32" fill="none" xmlns="http://www.w3.org/2000/svg"><path d="M3.818 23.71c.262 0 .51.062.633.186.021.192-.151.502-.261.502a1.12 1.12 0 00-.406-.076c-.626 0-.935.647-.935 1.286 0 .4.137.64.454.64.337 0 .68-.227.873-.399.048.034.11.144.11.268a.525.525 0 01-.165.392c-.22.22-.591.406-1.128.406-.619 0-1.045-.35-1.045-1.17 0-1.072.708-2.035 1.864-2.035h.006zM5.84 26.214c.337 0 .95-.592 1.121-1.72.007-.068.014-.089.028-.158a.865.865 0 00-.282-.048c-.255 0-.516.076-.75.392-.24.337-.344.757-.344 1.094 0 .288.083.44.22.44h.007zm-1.107-.31c0-.405.137-1.114.653-1.63.44-.454.977-.564 1.465-.564.324 0 .764.104 1.039.159-.069.302-.234 1.444-.31 2.104a5.21 5.21 0 00-.034.819c-.227.096-.653.123-.77.123-.062 0-.076-.281-.055-.55.006-.09.02-.22.027-.275-.268.447-.798.826-1.355.826-.399 0-.66-.33-.66-1.005v-.007zM9.601 23.71c.282 0 .55.104.674.234-.006.193-.158.516-.398.427a1.023 1.023 0 00-.344-.062c-.186 0-.344.082-.344.254 0 .13.096.227.557.55.33.241.46.454.46.757 0 .502-.474 1.046-1.3 1.046-.336 0-.632-.131-.728-.269-.124-.206-.028-.612.11-.543a1.8 1.8 0 00.715.186c.227 0 .371-.104.371-.241 0-.117-.103-.22-.522-.516-.351-.261-.461-.502-.461-.777 0-.57.488-1.046 1.204-1.046H9.6zM11.974 23.71c.282 0 .55.104.674.234-.006.193-.158.516-.398.427a1.024 1.024 0 00-.344-.062c-.186 0-.344.082-.344.254 0 .13.096.227.557.55.33.241.46.454.46.757 0 .502-.474 1.046-1.3 1.046-.336 0-.632-.131-.728-.269-.124-.206-.028-.612.11-.543a1.8 1.8 0 00.715.186c.227 0 .371-.104.371-.241 0-.117-.103-.22-.522-.516-.351-.261-.461-.502-.461-.777 0-.57.488-1.046 1.204-1.046h.006zM14.14 26.214c.338 0 .95-.592 1.122-1.72.007-.068.014-.089.027-.158a.866.866 0 00-.282-.048c-.254 0-.515.076-.75.392-.24.337-.343.757-.343 1.094 0 .288.082.44.22.44h.007zm-1.107-.31c0-.405.138-1.114.654-1.63.44-.454.976-.564 1.465-.564.323 0 .763.104 1.038.159-.069.302-.234 1.444-.31 2.104a5.217 5.217 0 00-.034.819c-.227.096-.653.123-.77.123-.062 0-.076-.281-.055-.55.007-.09.02-.22.027-.275-.268.447-.797.826-1.354.826-.4 0-.66-.33-.66-1.005v-.007zM17.744 24.605c.316-.51.729-.895 1.306-.895.489 0 .647.454.558 1.1-.048.303-.131.737-.186 1.136-.048.337-.083.64-.076.846-.178.09-.701.123-.818.123-.048 0-.055-.378.007-.777.055-.33.172-.928.227-1.272.034-.2.027-.44-.165-.44-.255 0-.86.405-1.163 2.07-.02.137-.075.22-.151.268-.103.062-.323.117-.77.124.082-.42.213-1.28.31-1.912.088-.578.123-.95.102-1.094.117-.04.73-.172.798-.172.076 0 .09.213.02.73-.006.048-.013.123-.02.165h.02zM21.238 26.207c.302 0 .914-.564 1.086-1.561.007-.055.028-.158.042-.22a.539.539 0 00-.392-.138c-.695 0-1.005.832-1.005 1.43 0 .324.11.49.262.49h.007zm-.454.709c-.44 0-.716-.393-.716-1.067 0-1.114.695-2.139 1.864-2.139.207 0 .392.055.509.124.062-.316.206-1.293.213-1.582.193-.034.606-.096.791-.096.076 0 .097.076.069.248a186.8 186.8 0 00-.516 3.452 7.164 7.164 0 00-.041.942c-.22.097-.667.118-.784.118-.048 0-.076-.317-.062-.599.007-.09.02-.22.02-.24-.343.563-.818.838-1.34.838h-.007zM24.814 24.701c.364-.812.797-.99 1.08-.99.089 0 .226.055.288.123.028.227-.15.681-.31.853a.68.68 0 00-.302-.082c-.234 0-.695.364-.983 1.932-.021.131-.062.186-.138.22-.117.07-.578.124-.798.131.103-.564.282-1.712.351-2.386.02-.172.027-.489.014-.613.13-.061.646-.178.763-.178.062 0 .11.378.014.99h.02zM27.241 26.214c.338 0 .95-.592 1.122-1.72.006-.068.013-.089.027-.158a.865.865 0 00-.282-.048c-.255 0-.516.076-.75.392-.24.337-.344.757-.344 1.094 0 .288.083.44.22.44h.007zm-1.107-.31c0-.405.138-1.114.653-1.63.44-.454.977-.564 1.465-.564.324 0 .764.104 1.039.159-.069.302-.234 1.444-.31 2.104a5.203 5.203 0 00-.034.819c-.227.096-.653.123-.77.123-.062 0-.076-.281-.055-.55.007-.09.02-.22.027-.275-.268.447-.797.826-1.355.826-.399 0-.66-.33-.66-1.005v-.007z" fill="#fff"/><path d="M25.221 12.056c.227 2.644-3.933 5.16-9.292 5.62-5.36.46-9.888-1.312-10.114-3.955-.227-2.644 3.933-5.16 9.292-5.62 5.36-.46 9.888 1.31 10.114 3.955z" fill="#BBE6FB"/><path opacity=".35" d="M15.264 8.41c-2.044-.033-4.436.78-6.216 1.54a5.142 5.142 0 00-.285 1.69c0 3.135 2.832 5.678 6.325 5.678 3.493 0 6.325-2.543 6.325-5.679 0-.992-.284-1.925-.783-2.736-1.424-.222-3.382-.46-5.366-.492z" fill="#fff"/><path d="M15.088 8.41c-1.131-.069-3.082.522-4.708 1.11a4.835 4.835 0 00-.385 1.892c0 2.748 2.491 4.975 5.127 4.975 2.618 0 4.934-2.23 5.126-4.975.063-.894-.245-1.736-.672-2.462a43.96 43.96 0 00-4.488-.54z" fill="#fff"/><path d="M12.184 11.051c.139-.307.349-.458.553-.716a1.592 1.592 0 01-.072-.33.56.56 0 01.765-.52 4.079 4.079 0 013.7-.65c-1.21-.167-2.575.261-3.504 1.011.029.067.107.258.107.335 0 .31-.2.384-.509.384a.56.56 0 01-.2-.037c-.209.282-.466.819-.592 1.154.514.46.978.626 1.582.852-.001-.03.021-.056.021-.085 0-.932.82-1.69 1.752-1.69.835 0 1.527.608 1.662 1.405.416-.265.82-.469 1.126-.861-.072-.088-.149-.335-.149-.457a.508.508 0 01.623-.493c.156-.32.274-.66.349-1.01-1.457-1.08-4.277-.932-4.277-.932s-2.243-.117-3.762.623c.102.732.394 1.428.825 2.017z" fill="#373535"/><path d="M19.148 10.631c.104.093.16.175.204.254.136.245-.137.47-.418.47a.5.5 0 01-.083-.01c-.316.494-.87 1.128-1.36 1.446.753.124 1.464.426 2.03.892.411-.738.727-1.804.727-2.709 0-.689-.304-1.194-.763-1.564-.024.369-.221.885-.337 1.221zM13.03 15.306c.25-.694.868-1.231 1.453-1.704-.086-.117-.214-.407-.268-.544a4.09 4.09 0 01-1.832-1.16l-.012.046a3.706 3.706 0 00-.063 1.23c.341.064.6.363.6.723 0 .213-.188.522-.333.657.158.34.266.504.454.752z" fill="#373535"/><path d="M12.986 15.888c-.3-.298-.507-.892-.702-1.265a.733.733 0 01-.111.01c-.407 0-.832-.342-.736-.736.053-.219.204-.362.45-.48-.056-.453-.072-1.103.033-1.573.03-.135.094-.198.137-.326a4.312 4.312 0 01-.739-2.372l.003-.093c-.758.38-1.326.979-1.326 1.921 0 2.085 1.2 4.13 2.987 4.93l.004-.016zM17.378 13.006a1.686 1.686 0 01-2.632.767c-.591.46-1.128 1.27-1.4 1.971.122.132.207.24.345.357.413.108.983 0 1.43 0 1.802 0 3.397-.801 4.311-2.206-.608-.421-1.325-.822-2.054-.889z" fill="#373535"/><path d="M12.137 11.295c.14-.307.313-.592.517-.85a.559.559 0 01.73-.715 4.078 4.078 0 013.7-.65 4.489 4.489 0 00-3.39.952.56.56 0 01-.715.74c-.21.282-.382.593-.508.928.441.476.983.851 1.587 1.077-.001-.028-.004-.057-.004-.086a1.687 1.687 0 013.348-.284 4.372 4.372 0 001.094-.998.508.508 0 01.507-.813c.155-.32.273-.66.348-1.01-1.457-1.079-4.276-.931-4.276-.931s-2.243-.117-3.762.623c.101.732.393 1.428.824 2.017z" fill="#1287B1"/><path d="M19.227 10.715c.103.092.17.226.17.375a.508.508 0 01-.592.5 4.109 4.109 0 01-1.226 1.233c.726.114 1.41.422 1.976.888a5.1 5.1 0 00.647-2.493c0-.689-.304-1.194-.763-1.564a4.081 4.081 0 01-.212 1.06zM13.107 15.473a4.094 4.094 0 011.272-1.789 1.687 1.687 0 01-.21-.382 4.088 4.088 0 01-1.833-1.16l-.011.046c-.093.413-.11.827-.063 1.23a.735.735 0 01.362 1.262c.132.28.294.545.482.793z" fill="#1287B1"/><path d="M12.984 15.88c-.3-.299-.552-.64-.746-1.014a.736.736 0 01-.432-1.388 4.076 4.076 0 01.177-1.785 4.068 4.068 0 01-.71-2.303c0-.032 0-.062.002-.093-.758.38-1.326.978-1.326 1.92a5.127 5.127 0 003.03 4.679l.005-.017zM17.331 13.25a1.687 1.687 0 01-2.631.767 4.177 4.177 0 00-1.31 1.79c.122.131.252.256.39.372a5.13 5.13 0 005.594-2.169 4.299 4.299 0 00-2.043-.76z" fill="#1287B1"/><path d="M17.391 12.814l1.559-.371-1.565-.08 1.273-.973-1.444.518.982-1.361-1.357.901.475-1.593-.932 1.313-.021-1.659-.613 1.478-.51-1.495.027 1.761-.883-1.579.478 1.677-1.432-1.042 1.121 1.41-1.778-.654 1.404 1.038-1.8.056 1.84.474-1.841.399 1.817.131-1.533.982 1.579-.572-1.095 1.387 1.383-1.116-.498 1.861 1.069-1.515-.15 1.79.606-1.623.517 1.705.125-1.71.766 1.459-.452-1.668 1.403 1.086-.906-1.385 1.54.6-1.178-1.157 1.578.124-1.554-.597z" fill="#fff"/><path opacity=".35" d="M.797 15.797C5.63 10.963 9.492 9.47 12.996 8.789c.463-.09.551-1.103.551-1.103s.065.746.39.844c.324.097.745-1.168.745-1.168s-.389 1.135 0 1.2c.39.065 1.104-1.103 1.104-1.103s-.292 1.006-.098 1.07c.195.065 1.168-1.46 1.168-1.46s-.584 1.006-.032 1.104c.551.097 1.356-.687 1.356-.687s-.633.717-.35.816C19.03 8.724 20 7.164 20 7.164s-.225.684-.809 1.43c1.265.325 2.205-1.581 2.205-1.581l-.94 1.906c.487.26 2.434-1.98 2.434-1.98s-1.006 1.753-1.59 2.11c.324.26 1.492-.779 1.492-.779s-.94 1.168-.584 1.233c.52.422 2.434-2.174 2.434-2.174s-.747 1.525-1.85 2.725c.922.462 3.212-2.498 3.212-2.498s-.065.941-1.72 2.434c1.234-.163 2.823-2.499 2.823-2.499s-.584 1.752-1.979 2.985c1.21-.126 3.147-3.114 3.147-3.114s-.746 2.076-2.27 3.276c1.686.373 4.12-2.14 4.12-2.14s-.957 1.784-2.207 2.514c1.396.535 3.31-1.671 3.31-1.671s-1.914 2.952-4.964 2.822c-1-.042-4.027-3.035-10.512-2.79-8.565.325-10.381 3.958-14.956 6.424z" fill="#373535"/><path d="M.995 15.43c4.834-4.834 8.694-6.326 12.198-7.008.464-.09.552-1.103.552-1.103s.065.746.39.843c.324.098.745-1.167.745-1.167s-.389 1.135 0 1.2c.39.065 1.103-1.103 1.103-1.103s-.292 1.006-.097 1.07c.195.065 1.168-1.46 1.168-1.46s-.584 1.006-.032 1.104c.55.097 1.356-.687 1.356-.687s-.633.717-.35.816c1.2.422 2.17-1.138 2.17-1.138s-.224.684-.808 1.43c1.265.325 2.205-1.581 2.205-1.581l-.94 1.906c.487.26 2.433-1.979 2.433-1.979s-1.005 1.752-1.59 2.109c.325.26 1.493-.779 1.493-.779s-.94 1.168-.584 1.233c.52.422 2.433-2.174 2.433-2.174s-.746 1.525-1.849 2.725c.922.462 3.212-2.498 3.212-2.498s-.065.941-1.72 2.434c1.233-.163 2.823-2.499 2.823-2.499s-.584 1.752-1.979 2.985c1.21-.126 3.147-3.114 3.147-3.114s-.746 2.076-2.27 3.276c1.686.373 4.12-2.14 4.12-2.14s-.958 1.783-2.207 2.513c1.395.536 3.31-1.67 3.31-1.67s-1.915 2.952-4.965 2.822c-1-.042-4.027-3.036-10.511-2.79C7.386 9.33 5.569 12.964.995 15.43z" fill="#fff"/><path opacity=".35" d="M.67 16.326c2.555 1.281 4.89-.195 7.835.635 2.238.63 4.964 1.409 8.662.873 3.699-.535 6.862-2.14 8.37-5.012.471-1.281 2.385.292 2.385.292s-1.395-.584-1.362-.308c.032.275 2.092 1.233 2.092 1.233s-1.865-.585-1.752-.146c.114.438 2.336 2.19 2.336 2.19s-2.514-1.915-2.725-1.655c-.211.26 1.07 1.314 1.07 1.314s-2.124-1.314-2.87-.927c-.537.279 2.206 2.079 2.206 2.079s-1.785-1.363-2.207-1.006c-.421.357 2.012 3.277 2.012 3.277s-2.758-2.985-3.034-2.84c-.275.147.763 1.574.763 1.574s-1.363-1.492-1.736-1.233c-.373.26 1.947 4.137 1.947 4.137s-2.515-3.974-3.553-3.31c1.63 3.578 1.022 4.089 1.022 4.089s-.208-3.65-2.239-3.553c-1.021.049.487 2.725.487 2.725s-1.388-2.444-2.313-2.396c1.704 3.226 1.097 4.538 1.097 4.538s.282-2.755-2.03-4.288c.876.778-.55 4.288-.55 4.288s1.254-5.172-.924-4.186c-.345.156-.025 2.58-.025 2.58s-.438-2.774-1.095-2.628c-.383.085-2.433 3.844-2.433 3.844s1.68-4.063 1.168-3.893c-.372.124-1.07 1.8-1.07 1.8s.34-1.654 0-1.751c-.341-.098-2.24 1.752-2.24 1.752s1.412-1.655 1.169-1.996c-.369-.516-.801-.54-1.314-.34-.746.29-1.752 1.654-1.752 1.654s1.002-1.38.827-1.898c-.281-.83-3.163 1.606-3.163 1.606s1.703-1.606 1.314-1.946c-.39-.341-2.503-.236-3.163-.238-1.947-.006-2.621-.462-3.212-.93z" fill="#373535"/><path d="M.573 16.034c2.555 1.281 4.89-.195 7.835.635 2.238.63 4.964 1.409 8.662.873 3.699-.535 6.862-2.141 8.37-5.012.471-1.281 2.385.292 2.385.292s-1.395-.584-1.362-.308c.032.275 2.092 1.232 2.092 1.232s-1.866-.583-1.752-.145c.114.438 2.336 2.19 2.336 2.19s-2.514-1.915-2.725-1.655c-.211.26 1.07 1.314 1.07 1.314s-2.125-1.314-2.87-.927c-.538.279 2.205 2.079 2.205 2.079s-1.784-1.363-2.206-1.006c-.422.357 2.012 3.277 2.012 3.277s-2.758-2.985-3.034-2.84c-.276.147.763 1.574.763 1.574s-1.363-1.492-1.736-1.233c-.373.26 1.946 4.137 1.946 4.137s-2.514-3.974-3.552-3.31c1.63 3.578 1.022 4.088 1.022 4.088s-.208-3.649-2.239-3.552c-1.022.049.487 2.725.487 2.725s-1.389-2.445-2.313-2.396c1.704 3.226 1.096 4.538 1.096 4.538s.282-2.755-2.03-4.288c.877.778-.549 4.288-.549 4.288s1.254-5.171-.924-4.186c-.345.156-.025 2.58-.025 2.58s-.438-2.774-1.095-2.628c-.383.085-2.433 3.844-2.433 3.844s1.679-4.063 1.168-3.893c-.372.124-1.07 1.8-1.07 1.8s.34-1.654 0-1.751c-.341-.098-2.24 1.752-2.24 1.752s1.412-1.655 1.168-1.996c-.368-.516-.8-.54-1.313-.34-.747.29-1.752 1.654-1.752 1.654s1.002-1.38.827-1.898c-.281-.83-3.163 1.606-3.163 1.606s1.703-1.606 1.314-1.946c-.39-.341-2.503-.236-3.163-.238-1.947-.006-2.621-.462-3.212-.93z" fill="#fff"/></svg>