<svg width="32" height="32" fill="none" xmlns="http://www.w3.org/2000/svg"><path d="M4 24h24v-3.939C25.55 21.223 21.093 22 16 22s-9.55-.777-12-1.939V24zm-2 0V6c0-2.21 6.268-4 14-4s14 1.79 14 4v18c0 2.21-6.268 4-14 4S2 26.21 2 24zm2-6h24v-3.938C25.55 15.223 21.093 16 16 16s-9.55-.777-12-1.938V18zm0-9.939V12h24V8.061C25.55 9.223 21.093 10 16 10S6.45 9.223 4 8.061zm21.35-2.966C22.934 4.405 19.588 4 16 4s-6.934.404-9.35 1.095c-.983.28-1.76.596-2.273.905.513.31 1.29.624 2.273.905C9.066 7.595 12.41 8 16 8c3.588 0 6.934-.404 9.35-1.095.983-.28 1.76-.596 2.273-.905-.513-.31-1.29-.624-2.273-.905zM4 12c.513.31 1.667.624 2.65.905C9.066 13.595 12.41 14 16 14c3.588 0 6.934-.404 9.35-1.095.983-.28 2.14-.596 2.653-.905H4zm0 6c.513.31 1.667.625 2.65.905C9.066 19.595 12.41 20 16 20c3.588 0 6.934-.404 9.35-1.095.983-.28 2.14-.596 2.653-.905H4zm0 6c.513.31 1.667.625 2.65.905C9.066 25.595 12.41 26 16 26c3.588 0 6.934-.404 9.35-1.095.983-.28 2.14-.596 2.653-.905H4z" fill="#fff"/></svg>