<svg width="32" height="32" fill="none" xmlns="http://www.w3.org/2000/svg"><g clip-path="url(#clip0)" fill-rule="evenodd" clip-rule="evenodd"><path d="M30.28 5.752l.002-.003A15.966 15.966 0 0018-.001C11.72 0 6.286 3.622 3.667 8.89h20.854a6.36 6.36 0 004.098-1.48 13.34 13.34 0 001.662-1.657z" fill="#FEC514"/><path d="M2 16c0 1.435.192 2.824.546 4.148h19.602a4.148 4.148 0 000-8.297H2.546A16.012 16.012 0 002 16z" fill="#fff"/><path d="M30.28 26.247l.002.003A15.966 15.966 0 0118 32c-6.28 0-11.713-3.622-14.332-8.89h20.854a6.36 6.36 0 014.098 1.48 13.34 13.34 0 011.662 1.657z" fill="#00BFB3"/></g><defs><clipPath id="clip0"><path fill="#fff" d="M0 0h32v32H0z"/></clipPath></defs></svg>