<svg width="32" height="32" fill="none" xmlns="http://www.w3.org/2000/svg"><path d="M2.038 16a12.924 12.924 0 002.006 6h4.763c-.447-1.812-.725-3.844-.792-6H2.038zm0-2h5.977c.067-2.156.345-4.188.792-6H4.044a12.924 12.924 0 00-2.006 6zm25.924 2h-5.977c-.066 2.156-.345 4.188-.792 6h4.763a12.924 12.924 0 002.006-6zm0-2a12.924 12.924 0 00-2.006-6h-4.763c.447 1.812.726 3.844.792 6h5.977zm-17.945 2c.073 2.213.388 4.254.856 6h8.254c.468-1.746.783-3.787.856-6h-9.966zm0-2h9.966c-.073-2.213-.388-4.254-.856-6h-8.254c-.468 1.746-.783 3.787-.856 6zM.033 16H0v-2h.033C.547 6.182 7.052 0 15 0s14.453 6.182 14.967 14H30v2h-.033C29.453 23.818 22.948 30 15 30S.547 23.818.033 16zm5.586 8a13.001 13.001 0 005.434 3.39C10.42 26.46 9.86 25.314 9.4 24H5.62zm18.762 0H20.6c-.461 1.314-1.02 2.46-1.654 3.39A13.002 13.002 0 0024.38 24zm-12.857 0c.968 2.48 2.263 4 3.476 4s2.508-1.52 3.476-4h-6.952zM5.619 6H9.4c.461-1.314 1.02-2.46 1.654-3.39A13.002 13.002 0 005.62 6zm18.762 0a13.003 13.003 0 00-5.434-3.39C19.58 3.54 20.14 4.686 20.6 6h3.78zM11.524 6h6.952C17.508 3.52 16.213 2 15 2s-2.508 1.52-3.476 4z" fill="#fff"/></svg>