<svg width="32" height="32" fill="none" xmlns="http://www.w3.org/2000/svg"><path d="M4.026 21.442c.229.304.526.55.867.718.37.183.776.275 1.188.27.333.008.665-.048.976-.167.25-.098.472-.253.65-.453.166-.195.287-.425.355-.672.074-.267.11-.544.11-.821v-.965h-.024a2.07 2.07 0 01-.895.781c-.352.153-.731.231-1.114.23a2.895 2.895 0 01-1.097-.207 2.788 2.788 0 01-.89-.568 2.616 2.616 0 01-.597-.867 2.72 2.72 0 01-.218-1.091 2.853 2.853 0 01.207-1.09c.132-.329.325-.629.568-.885.244-.254.537-.455.861-.591.348-.145.72-.217 1.097-.213.171.001.342.017.51.046.186.033.367.086.54.16.411.179.766.465 1.028.828h.023v-.896h.758v5.328c-.002.313-.04.625-.109.93-.073.33-.218.64-.425.907a2.419 2.419 0 01-.878.69c-.375.183-.865.275-1.47.275a3.692 3.692 0 01-1.435-.264 3.336 3.336 0 01-1.149-.816l.563-.597zm.138-3.835a2.097 2.097 0 00.58 1.453c.18.187.394.34.631.447.247.113.516.17.787.167a2.106 2.106 0 001.447-.568c.192-.182.343-.404.442-.65.106-.27.155-.559.143-.849a2.286 2.286 0 00-.138-.798 1.917 1.917 0 00-.402-.655 1.943 1.943 0 00-.643-.447 2.094 2.094 0 00-.85-.167 1.86 1.86 0 00-.786.167 2.063 2.063 0 00-1.056 1.102 2.059 2.059 0 00-.155.798zm7.854 2.756h-.827v-8.13h2.503c.827 0 1.48.18 1.958.54.478.36.718.903.718 1.63a2.032 2.032 0 01-.534 1.43c-.356.387-.871.61-1.545.672l2.343 3.858h-1.01l-2.228-3.778h-1.378v3.778zm0-4.536h1.47c.315.007.63-.032.935-.115.223-.06.432-.163.615-.304a1.11 1.11 0 00.333-.448c.07-.177.105-.366.103-.557 0-.186-.034-.372-.103-.545a1.155 1.155 0 00-.333-.454 1.624 1.624 0 00-.615-.304 3.474 3.474 0 00-.935-.109h-1.47v2.836zm6.04-3.594h2.365c.827 0 1.48.18 1.958.54.478.36.717.903.717 1.63 0 .728-.239 1.273-.717 1.637-.479.363-1.131.545-1.958.545h-1.539v3.778h-.827v-8.13zm.826 3.594h1.332c.316.007.631-.032.936-.114a1.74 1.74 0 00.614-.305 1.11 1.11 0 00.333-.447c.07-.178.105-.367.104-.558 0-.186-.034-.371-.104-.545a1.154 1.154 0 00-.333-.454 1.625 1.625 0 00-.614-.304 3.474 3.474 0 00-.936-.109h-1.332v2.836zm12.516 3.25a3.229 3.229 0 01-1.206 1.062 3.904 3.904 0 01-1.803.43 4.348 4.348 0 01-1.681-.32 4.033 4.033 0 01-2.234-2.24 4.452 4.452 0 01-.321-1.711 4.451 4.451 0 01.321-1.71 4.036 4.036 0 012.234-2.24 4.348 4.348 0 011.682-.321c.52.002 1.034.104 1.515.298.514.206.963.547 1.298.988l-.723.54a1.987 1.987 0 00-.345-.391 2.519 2.519 0 00-.5-.345 3.123 3.123 0 00-.602-.24 2.332 2.332 0 00-.643-.093c-.483-.008-.961.09-1.401.287a3.18 3.18 0 00-1.05.77c-.291.327-.515.707-.661 1.12a4.01 4.01 0 000 2.675c.145.412.37.792.66 1.12.294.325.651.587 1.05.769.441.197.92.295 1.402.287.213 0 .427-.02.637-.058.214-.039.422-.105.62-.195.209-.096.402-.221.574-.373.193-.173.362-.372.5-.591l.677.482z" fill="#fff"/><path d="M.656 10.629l-.038.334v-.334h.038z" fill="#75CACA"/><path d="M.706 10.629l-.088.775v-.441l.038-.334h.05z" fill="#74CBCA"/><path d="M.756 10.629l-.138 1.217v-.442l.088-.775h.05z" fill="#74CBCA"/><path d="M.806 10.629l-.188 1.658v-.441l.138-1.217h.05zM.855 10.629l-.237 2.1v-.442l.188-1.658h.05z" fill="#73CBCA"/><path d="M.905 10.629L.618 13.17v-.441l.237-2.1h.05zm.05 0L.618 13.61v-.441l.287-2.541h.05z" fill="#72C9C9"/><path d="M1.005 10.629l-.387 3.424v-.442l.337-2.982h.05z" fill="#70CACA"/><path d="M1.055 10.629l-.437 3.865v-.441l.387-3.424h.05z" fill="#70CACA"/><path d="M1.105 10.629l-.482 4.264H.618v-.399l.437-3.865h.05z" fill="#6FCAC8"/><path d="M1.155 10.629l-.482 4.266H.646l-.023-.002.482-4.264h.05z" fill="#6EC8C8"/><path d="M1.205 10.629l-.482 4.266h-.05l.482-4.266h.05z" fill="#6EC8C8"/><path d="M1.254 10.629l-.482 4.266h-.05l.482-4.266h.05z" fill="#6CC9C9"/><path d="M1.304 10.629l-.482 4.266h-.05l.483-4.266h.05z" fill="#6DC9C8"/><path d="M1.354 10.629l-.482 4.266h-.05l.482-4.266h.05z" fill="#69C7C8"/><path d="M1.404 10.629l-.482 4.266h-.05l.482-4.266h.05z" fill="#69C7C8"/><path d="M1.454 10.629l-.482 4.266h-.05l.482-4.266h.05z" fill="#69C8C7"/><path d="M1.504 10.629l-.482 4.266h-.05l.482-4.266h.05z" fill="#68C8C7"/><path d="M1.553 10.629l-.482 4.266h-.05l.483-4.266h.05z" fill="#67C7C7"/><path d="M1.604 10.629l-.482 4.266h-.05l.482-4.266h.05z" fill="#65C7C7"/><path d="M1.654 10.629l-.483 4.266h-.05l.483-4.266h.05z" fill="#64C7C7"/><path d="M1.703 10.629l-.482 4.266h-.05l.482-4.266h.05z" fill="#63C6C6"/><path d="M1.753 10.629l-.482 4.266h-.05l.482-4.266h.05z" fill="#60C6C6"/><path d="M1.803 10.629l-.482 4.266h-.05l.482-4.266h.05z" fill="#60C6C5"/><path d="M1.853 10.629l-.482 4.266h-.05l.482-4.266h.05z" fill="#5FC6C5"/><path d="M1.903 10.629l-.482 4.266h-.05l.482-4.266h.05z" fill="#5CC5C4"/><path d="M1.952 10.629l-.482 4.266h-.05l.483-4.266h.05zM2.003 10.629l-.482 4.266h-.05l.482-4.266h.05z" fill="#5AC5C4"/><path d="M2.052 10.629l-.482 4.266h-.05l.483-4.266h.05z" fill="#57C4C4"/><path d="M2.102 10.629l-.482 4.266h-.05l.482-4.266h.05z" fill="#58C4C3"/><path d="M2.152 10.629l-.482 4.266h-.05l.482-4.266h.05z" fill="#55C4C3"/><path d="M2.202 10.629l-.482 4.266h-.05l.482-4.266h.05z" fill="#53C3C2"/><path d="M2.252 10.629l-.482 4.266h-.05l.482-4.266h.05z" fill="#52C3C2"/><path d="M2.302 10.629l-.482 4.266h-.05l.482-4.266h.05z" fill="#50C3C2"/><path d="M2.351 10.629l-.482 4.266h-.05l.482-4.266h.05z" fill="#50C1C0"/><path d="M2.402 10.629l-.483 4.266h-.05l.483-4.266h.05z" fill="#4BC2C0"/><path d="M2.451 10.629l-.482 4.266h-.05l.483-4.266h.05z" fill="#4CC1C0"/><path d="M2.501 10.629l-.482 4.266h-.05l.482-4.266h.05z" fill="#47C1BE"/><path d="M2.551 10.629l-.482 4.266h-.05l.483-4.266h.05z" fill="#46C0BE"/><path d="M2.601 10.629l-.482 4.266h-.05l.482-4.266h.05z" fill="#43C0BE"/><path d="M2.651 10.629l-.482 4.266h-.05l.482-4.266h.05z" fill="#40BFBD"/><path d="M2.7 10.629l-.481 4.266h-.05l.482-4.266h.05z" fill="#3BBFBD"/><path d="M2.75 10.629l-.481 4.266h-.05L2.7 10.63h.05z" fill="#39BFBC"/><path d="M2.8 10.629l-.482 4.266h-.05l.483-4.266h.05z" fill="#34BEBD"/><path d="M2.85 10.629l-.482 4.266h-.05L2.8 10.63h.05z" fill="#32BEBB"/><path d="M2.9 10.629l-.482 4.266h-.05l.482-4.266h.05z" fill="#2DBDBB"/><path d="M2.95 10.629l-.482 4.266h-.05L2.9 10.63h.05z" fill="#24BCBB"/><path d="M3 10.629l-.482 4.266h-.05l.482-4.266H3z" fill="#21BCB9"/><path d="M3.05 10.629l-.483 4.266h-.05L3 10.63h.05z" fill="#18BBB9"/><path d="M3.1 10.629l-.482 4.266h-.05l.482-4.266h.05z" fill="#0FBAB9"/><path d="M3.15 10.629l-.482 4.266h-.05L3.1 10.63h.05z" fill="#03BBB8"/><path d="M3.2 10.629l-.483 4.266h-.05l.483-4.266h.05zM3.25 10.629l-.482 4.266h-.05L3.2 10.63h.05z" fill="#06B8B6"/><path d="M3.3 10.629l-.482 4.266h-.05l.482-4.266h.05z" fill="#03B7B5"/><path d="M3.349 10.629l-.482 4.266h-.05l.482-4.266h.05z" fill="#04B7B4"/><path d="M3.4 10.629l-.483 4.266h-.05l.482-4.266h.05z" fill="#00B6B5"/><path d="M3.449 10.629l-.482 4.266h-.05l.482-4.266h.05z" fill="#03B6B4"/><path d="M3.499 10.629l-.482 4.266h-.05l.482-4.266h.05z" fill="#05B6B2"/><path d="M3.548 10.629l-.482 4.266h-.05L3.5 10.63h.05z" fill="#01B5B1"/><path d="M3.599 10.629l-.482 4.266h-.05l.482-4.266h.05z" fill="#01B5B1"/><path d="M3.649 10.629l-.482 4.266h-.05l.482-4.266h.05z" fill="#00B4B1"/><path d="M3.698 10.629l-.482 4.266h-.05l.482-4.266h.05z" fill="#00B3B0"/><path d="M3.748 10.629l-.482 4.266h-.05l.482-4.266h.05z" fill="#00B3B0"/><path d="M3.798 10.629l-.482 4.266h-.05l.482-4.266h.05z" fill="#00B2AF"/><path d="M3.848 10.629l-.482 4.266h-.05l.482-4.266h.05z" fill="#00B2AE"/><path d="M3.898 10.629l-.482 4.266h-.05l.482-4.266h.05z" fill="#00B1AE"/><path d="M3.947 10.629l-.482 4.266h-.05l.483-4.266h.05z" fill="#00B1AD"/><path d="M3.998 10.629l-.482 4.266h-.05l.482-4.266h.05z" fill="#00B0AC"/><path d="M4.047 10.629l-.482 4.266h-.05l.482-4.266h.05z" fill="#00AFAC"/><path d="M4.857 10.629l.028.003v4.263h-1.32l.482-4.266h.81z" fill="#00AFAC"/><path d="M9.832 12.216l-.034-.73h.034v.73z" fill="#75CACA"/><path d="M9.832 12.984l-.07-1.499h.036l.034.731v.768zM9.832 13.752l-.105-2.267h.035l.07 1.5v.767z" fill="#74CBCA"/><path d="M9.807 13.988l-.116-2.503h.036l.105 2.267v.236h-.025z" fill="#73CBCA"/><path d="M9.771 13.988l-.116-2.503h.036l.116 2.503h-.036zm-.035 0l-.117-2.503h.036l.116 2.503h-.035z" fill="#72C9C9"/><path d="M9.7 13.988l-.116-2.503h.035l.117 2.503H9.7z" fill="#70CACA"/><path d="M9.664 13.988l-.116-2.503h.036l.116 2.503h-.036z" fill="#6FCAC8"/><path d="M9.628 13.988l-.116-2.503h.036l.116 2.503h-.036zM9.593 13.988l-.117-2.503h.036l.116 2.503h-.035z" fill="#6EC8C8"/><path d="M9.557 13.988l-.117-2.503h.036l.116 2.503h-.035z" fill="#6CC9C9"/><path d="M9.52 13.988l-.116-2.503h.036l.117 2.503H9.52z" fill="#6DC9C8"/><path d="M9.485 13.988l-.116-2.503h.035l.117 2.503h-.036zM9.45 13.988l-.117-2.503h.036l.116 2.503H9.45z" fill="#69C7C8"/><path d="M9.413 13.988l-.116-2.503h.036l.116 2.503h-.036z" fill="#69C8C7"/><path d="M9.378 13.988l-.116-2.503h.035l.117 2.503h-.036z" fill="#68C8C7"/><path d="M9.342 13.988l-.116-2.503h.035l.117 2.503h-.036z" fill="#67C7C7"/><path d="M9.306 13.988l-.116-2.503h.036l.116 2.503h-.036z" fill="#65C7C7"/><path d="M9.27 13.988l-.116-2.503h.036l.117 2.503H9.27z" fill="#64C7C7"/><path d="M9.235 13.988l-.117-2.503h.036l.117 2.503h-.036z" fill="#63C6C6"/><path d="M9.2 13.988l-.117-2.503h.035l.117 2.503h-.036z" fill="#60C6C6"/><path d="M9.163 13.988l-.116-2.503h.036l.116 2.503h-.036z" fill="#60C6C5"/><path d="M9.128 13.988l-.117-2.503h.036l.116 2.503h-.035zM9.092 13.988l-.117-2.503h.036l.116 2.503h-.035z" fill="#5FC6C5"/><path d="M9.056 13.988l-.117-2.503h.036l.117 2.503h-.036z" fill="#5CC5C4"/><path d="M9.02 13.988l-.117-2.503h.036l.117 2.503H9.02z" fill="#5AC5C4"/><path d="M8.984 13.988l-.116-2.503h.035l.117 2.503h-.036z" fill="#5AC5C4"/><path d="M8.949 13.988l-.117-2.503h.036l.116 2.503H8.95z" fill="#57C4C4"/><path d="M8.913 13.988l-.117-2.503h.036l.117 2.503h-.036z" fill="#58C4C3"/><path d="M8.877 13.988l-.117-2.503h.036l.117 2.503h-.036z" fill="#55C4C3"/><path d="M8.842 13.988l-.117-2.503h.036l.117 2.503h-.036zm-.036 0l-.117-2.503h.036l.117 2.503h-.036z" fill="#53C3C2"/><path d="M8.77 13.988l-.117-2.503h.036l.117 2.503H8.77z" fill="#52C3C2"/><path d="M8.734 13.988l-.116-2.503h.035l.117 2.503h-.036z" fill="#50C3C2"/><path d="M8.699 13.988l-.117-2.503h.036l.116 2.503H8.7z" fill="#50C1C0"/><path d="M8.662 13.988l-.116-2.503h.036l.116 2.503h-.036z" fill="#4DC2C1"/><path d="M8.627 13.988l-.117-2.503h.036l.117 2.503h-.036z" fill="#4CC2C0"/><path d="M8.59 13.988l-.116-2.503h.036l.116 2.503h-.035z" fill="#4BC0BF"/><path d="M8.555 13.988l-.117-2.503h.036l.117 2.503h-.036z" fill="#47C1BE"/><path d="M8.52 13.988l-.117-2.503h.036l.116 2.503H8.52z" fill="#46C0BE"/><path d="M8.484 13.988l-.117-2.503h.036l.117 2.503h-.036z" fill="#43C0BE"/><path d="M8.448 13.988l-.116-2.503h.035l.117 2.503h-.036z" fill="#41C0BE"/><path d="M8.412 13.988l-.116-2.503h.036l.116 2.503h-.036z" fill="#40BFBD"/><path d="M8.376 13.988l-.116-2.503h.036l.116 2.503h-.036z" fill="#3BBFBD"/><path d="M8.34 13.988l-.116-2.503h.035l.117 2.503H8.34z" fill="#3CBFBC"/><path d="M8.305 13.988l-.117-2.503h.036l.117 2.503h-.036z" fill="#39BFBC"/><path d="M8.269 13.988l-.117-2.503h.036l.117 2.503h-.036z" fill="#34BEBD"/><path d="M8.233 13.988l-.116-2.503h.035l.117 2.503h-.036z" fill="#32BEBB"/><path d="M8.198 13.988l-.117-2.503h.036l.116 2.503h-.035z" fill="#2FBEBC"/><path d="M8.162 13.988l-.117-2.503h.036l.117 2.503h-.036z" fill="#2DBDBB"/><path d="M8.126 13.988l-.117-2.503h.036l.117 2.503h-.036z" fill="#2BBDBA"/><path d="M8.09 13.988l-.116-2.503h.035l.117 2.503H8.09z" fill="#24BCBB"/><path d="M8.054 13.988l-.117-2.503h.036l.117 2.503h-.036z" fill="#21BCB9"/><path d="M8.018 13.988l-.116-2.503h.036l.116 2.503h-.036z" fill="#18BBB9"/><path d="M7.983 13.988l-.117-2.503h.036l.117 2.503h-.036z" fill="#16BAB9"/><path d="M7.947 13.988l-.116-2.503h.035l.117 2.503h-.036z" fill="#11BAB7"/><path d="M7.911 13.988l-.117-2.503h.036l.117 2.503H7.91z" fill="#03BBB8"/><path d="M7.875 13.988l-.116-2.503h.036l.116 2.503h-.036zM7.84 13.988l-.117-2.503h.036l.116 2.503H7.84z" fill="#06B8B6"/><path d="M7.804 13.988l-.117-2.503h.036l.117 2.503h-.036z" fill="#06B8B6"/><path d="M7.768 13.988l-.116-2.503h.036l.116 2.503h-.036z" fill="#00B7B6"/><path d="M7.733 13.988l-.117-2.503h.036l.117 2.503h-.036z" fill="#03B7B5"/><path d="M7.697 13.988l-.117-2.503h.036l.116 2.503h-.035z" fill="#04B7B4"/><path d="M7.66 13.988l-.116-2.503h.036l.117 2.503H7.66z" fill="#00B6B5"/><path d="M7.625 13.988l-.117-2.503h.036l.117 2.503h-.036z" fill="#00B6B5"/><path d="M7.59 13.988l-.117-2.503h.035l.117 2.503h-.036z" fill="#00B6B5"/><path d="M7.554 13.988l-.117-2.503h.036l.116 2.503h-.035zm-.036 0l-.117-2.503h.036l.117 2.503h-.036z" fill="#03B6B4"/><path d="M7.482 13.988l-.117-2.503h.036l.117 2.503h-.036z" fill="#05B6B2"/><path d="M7.448 13.988l-.116-2.503h.035l.117 2.503h-.036zM7.41 13.988l-.08-1.738v-.765l.116 2.503H7.41zm-.035 0l-.045-.97v-.768l.08 1.738h-.035z" fill="#01B5B1"/><path d="M7.339 13.988l-.01-.201v-.768l.046.969h-.036z" fill="#00B4B1"/><path d="M7.33 13.786l.009.202h-.01v-.202z" fill="#00B4B1"/><path d="M2.837 11.472L1.55 12.768l1.297 1.287 1.097-.004-1.15-1.14 5.68-.022-.498.502.548-.002.644-.649-.649-.643-.548.002.501.497-5.68.021 1.142-1.15-1.097.005z" fill="#244B5A"/></svg>