<svg width="32" height="32" fill="none" xmlns="http://www.w3.org/2000/svg"><g clip-path="url(#clip0)"><path d="M11.777 12c1.112-.005 2.253.314 3.118 1.034.443.358.8.808 1.105 1.287.547-.884 1.346-1.635 2.33-1.997 1.2-.45 2.558-.42 3.756.022 1.047.382 1.962 1.048 2.792 1.78.65.574 1.25 1.201 1.919 1.753.352.286.73.554 1.164.702.576.196 1.257.01 1.67-.433.38-.415.357-1.133-.063-1.512-.267-.231-.724-.185-.913.123-.166.243-.073.547.057.783-.345-.251-.69-.601-.688-1.058-.071-.528.32-.994.79-1.18.916-.365 2.064-.05 2.642.757.556.752.6 1.742.504 2.638a3.157 3.157 0 01-1.3 2.14c-.991.707-2.248.926-3.443.91a9.699 9.699 0 01-3.351-.72c-1.78-.715-3.447-1.704-5.286-2.276a6.335 6.335 0 00-1.91-.404c-.52-.004-1.012-.028-1.502.005a6.508 6.508 0 00-1.752.4c-1.87.581-3.561 1.595-5.376 2.313-1.532.596-3.23.872-4.855.542-.91-.185-1.815-.587-2.43-1.303-.525-.61-.777-1.425-.752-2.224-.029-.754.137-1.555.635-2.142.464-.556 1.21-.839 1.928-.776.462.021.93.223 1.215.594.224.295.238.698.14 1.042-.12.309-.367.55-.636.736.137-.231.22-.536.058-.778-.2-.322-.69-.354-.95-.09-.32.329-.386.866-.172 1.269.233.422.714.663 1.18.712.704.061 1.316-.376 1.833-.8 1.07-.92 2.034-1.975 3.22-2.755.98-.656 2.133-1.1 3.323-1.094z" fill="#FDA"/></g><defs><clipPath id="clip0"><path fill="#fff" d="M0 0h32v32H0z"/></clipPath></defs></svg>