<svg width="32" height="32" fill="none" xmlns="http://www.w3.org/2000/svg"><path d="M21.534 17.709a4.155 4.155 0 00-3.126 1.42l-1.958-1.387a5.349 5.349 0 00.327-1.83c0-.632-.115-1.237-.316-1.8l1.954-1.373a4.155 4.155 0 003.119 1.413 4.173 4.173 0 004.168-4.168 4.173 4.173 0 00-4.168-4.168 4.173 4.173 0 00-4.168 4.168c0 .411.062.808.174 1.184l-1.956 1.372a5.38 5.38 0 00-3.333-1.937V8.246a4.175 4.175 0 003.31-4.078A4.173 4.173 0 0011.393 0a4.173 4.173 0 00-4.168 4.168 4.173 4.173 0 003.236 4.06v2.387c-2.525.443-4.451 2.647-4.451 5.297 0 2.663 1.945 4.875 4.489 5.303v2.521a4.173 4.173 0 00-3.274 4.069 4.173 4.173 0 004.168 4.168 4.173 4.173 0 004.168-4.168 4.173 4.173 0 00-3.273-4.069v-2.521a5.382 5.382 0 003.277-1.906l1.972 1.396a4.15 4.15 0 00-.17 1.172 4.173 4.173 0 004.167 4.168 4.173 4.173 0 004.168-4.168 4.173 4.173 0 00-4.168-4.168zm0-9.746c1.114 0 2.02.907 2.02 2.021 0 1.114-.906 2.02-2.02 2.02a2.023 2.023 0 01-2.02-2.02c0-1.114.906-2.02 2.02-2.02zM9.373 4.168c0-1.114.906-2.02 2.02-2.02 1.115 0 2.021.906 2.021 2.02 0 1.114-.906 2.02-2.02 2.02a2.023 2.023 0 01-2.021-2.02zm4.041 23.637c0 1.114-.906 2.02-2.02 2.02a2.023 2.023 0 01-2.021-2.02c0-1.114.906-2.021 2.02-2.021 1.115 0 2.021.907 2.021 2.02zm-2.02-9.075a2.822 2.822 0 01-2.82-2.818 2.822 2.822 0 012.82-2.819 2.822 2.822 0 012.818 2.819 2.822 2.822 0 01-2.819 2.818zm10.14 5.168a2.023 2.023 0 01-2.02-2.021c0-1.114.906-2.02 2.02-2.02 1.114 0 2.02.906 2.02 2.02 0 1.114-.906 2.02-2.02 2.02z" fill="#fff"/></svg>