<svg width="32" height="32" viewBox="0 0 32 32" fill="none" xmlns="http://www.w3.org/2000/svg">
<path d="M30.594 23.7912C28.905 24.6662 20.156 28.2422 18.294 29.2072C16.431 30.1732 15.396 30.1632 13.924 29.4642C12.453 28.7652 3.14204 25.0272 1.46404 24.2302C0.626036 23.8312 0.186035 23.4952 0.186035 23.1782V19.9983C0.186035 19.9983 12.307 17.3753 14.264 16.6783C16.221 15.9793 16.9 15.9543 18.565 16.5603C20.231 17.1673 30.188 18.9533 31.835 19.5523L31.834 22.6872C31.834 23.0012 31.454 23.3462 30.594 23.7912Z" fill="#A41E11"/>
<path d="M30.5938 20.6104C28.9048 21.4854 20.1558 25.0614 18.2938 26.0274C16.4308 26.9924 15.3958 26.9834 13.9238 26.2834C12.4528 25.5854 3.14184 21.8454 1.46384 21.0494C-0.212159 20.2524 -0.248159 19.7044 1.39984 19.0624C3.04684 18.4214 12.3068 14.8104 14.2638 14.1124C16.2208 13.4144 16.8998 13.3894 18.5648 13.9954C20.2308 14.6024 28.9278 18.0434 30.5738 18.6424C32.2198 19.2424 32.2838 19.7354 30.5938 20.6104Z" fill="#D82C20"/>
<path d="M30.594 18.6063C28.905 19.4813 20.156 23.0564 18.294 24.0224C16.431 24.9874 15.396 24.9784 13.924 24.2794C12.453 23.5794 3.14204 19.8413 1.46404 19.0443C0.626036 18.6463 0.186035 18.3103 0.186035 17.9933V14.8133C0.186035 14.8133 12.307 12.1903 14.264 11.4923C16.221 10.7943 16.9 10.7693 18.565 11.3753C20.231 11.9813 30.188 13.7673 31.835 14.3663L31.834 17.5013C31.834 17.8163 31.454 18.1613 30.594 18.6063Z" fill="#A41E11"/>
<path d="M30.5938 15.4253C28.9048 16.3003 20.1558 19.8753 18.2938 20.8412C16.4308 21.8072 15.3958 21.7972 13.9238 21.0982C12.4528 20.3992 3.14184 16.6603 1.46384 15.8633C-0.212159 15.0673 -0.248159 14.5183 1.39984 13.8773C3.04684 13.2363 12.3068 9.62427 14.2638 8.92727C16.2208 8.22927 16.8998 8.20327 18.5648 8.81027C20.2308 9.41627 28.9278 12.8573 30.5738 13.4563C32.2198 14.0563 32.2838 14.5503 30.5938 15.4253Z" fill="#D82C20"/>
<path d="M30.594 13.2281C28.905 14.1031 20.156 17.6791 18.294 18.6451C16.431 19.6101 15.396 19.6001 13.924 18.9011C12.453 18.2021 3.14202 14.4631 1.46401 13.6671C0.627012 13.2681 0.187012 12.9321 0.187012 12.6151V9.43513C0.187012 9.43513 12.308 6.81213 14.265 6.11513C16.222 5.41613 16.901 5.39113 18.566 5.99813C20.232 6.60413 30.189 8.38913 31.836 8.98813L31.835 12.1241C31.835 12.4381 31.455 12.7831 30.595 13.2281H30.594Z" fill="#A41E11"/>
<path d="M30.594 10.0472C28.905 10.9222 20.156 14.4982 18.2941 15.4642C16.4311 16.4292 15.3961 16.4192 13.9241 15.7202C12.4531 15.0212 3.14206 11.2832 1.46407 10.4862C-0.210933 9.6892 -0.246933 9.1402 1.40007 8.4992C3.04706 7.8582 12.3071 4.2472 14.2641 3.5502C16.2211 2.8502 16.9001 2.8262 18.5651 3.4322C20.231 4.0392 28.928 7.4802 30.574 8.0792C32.22 8.6792 32.284 9.1722 30.594 10.0472Z" fill="#D82C20"/>
<path d="M20.157 6.98497L17.415 7.26797L16.801 8.73597L15.809 7.09797L12.643 6.81497L15.005 5.96797L14.297 4.66797L16.509 5.52797L18.594 4.84797L18.031 6.19297L20.157 6.98497ZM16.637 14.108L11.519 11.998L18.853 10.879L16.637 14.108Z" fill="white"/>
<path d="M9.54109 10.8213C11.7061 10.8213 13.4611 10.1452 13.4611 9.31127C13.4611 8.47733 11.7061 7.80127 9.54109 7.80127C7.37613 7.80127 5.62109 8.47733 5.62109 9.31127C5.62109 10.1452 7.37613 10.8213 9.54109 10.8213Z" fill="white"/>
<path d="M23.3984 7.38623L27.7384 9.09123L23.4024 10.7942L23.3984 7.38623Z" fill="#7A0C00"/>
<path d="M18.5962 9.27423L23.3982 7.38623L23.4022 10.7942L22.9312 10.9772L18.5962 9.27423Z" fill="#AD2115"/>
</svg>
