<?xml version="1.0" encoding="UTF-8"?>
<svg width="60px" height="41px" viewBox="0 0 60 41" version="1.1" xmlns="http://www.w3.org/2000/svg" xmlns:xlink="http://www.w3.org/1999/xlink">
    <!-- Generator: Sketch 43.2 (39069) - http://www.bohemiancoding.com/sketch -->
    <title>icon-gauge</title>
    <desc>Created with Sketch.</desc>
    <defs></defs>
    <g id="Visualize" stroke="none" stroke-width="1" fill="none" fill-rule="evenodd">
        <g id="Visualize-Create-New" transform="translate(-916.000000, -655.000000)" fill="#000000">
            <g id="other" transform="translate(555.000000, 576.000000)">
                <g id="gauge" transform="translate(321.000000, 45.000000)">
                    <g id="icon-gauge" transform="translate(40.000000, 34.000000)">
                        <path d="M2.3213,41.0269 C0.7813,37.3839 0.0003,33.5169 0.0003,29.5309 C0.0003,13.2479 13.2473,-0.0001 29.5313,-0.0001 C45.8153,-0.0001 59.0623,13.2479 59.0623,29.5309 C59.0623,33.1519 58.4143,36.6899 57.1343,40.0459 L52.4633,38.2639 C53.5243,35.4799 54.0623,32.5419 54.0623,29.5309 C54.0623,16.0049 43.0573,4.9999 29.5313,4.9999 C16.0053,4.9999 5.0003,16.0049 5.0003,29.5309 C5.0003,32.8439 5.6483,36.0559 6.9263,39.0799 L2.3213,41.0269 Z" id="Fill-1"></path>
                        <path d="M43.3481,18.3726 L40.5201,15.5446 L31.9481,24.1166 C31.1911,23.7726 30.3531,23.5766 29.4691,23.5766 C26.1551,23.5766 23.4691,26.2626 23.4691,29.5766 C23.4691,32.8896 26.1551,35.5766 29.4691,35.5766 C32.7821,35.5766 35.4691,32.8896 35.4691,29.5766 C35.4691,28.6096 35.2351,27.7006 34.8291,26.8916 L43.3481,18.3726 Z" id="Fill-3"></path>
                    </g>
                </g>
            </g>
        </g>
    </g>
</svg>