<?xml version="1.0" encoding="UTF-8"?>
<svg width="18px" height="13px" viewBox="0 0 18 13" version="1.1" xmlns="http://www.w3.org/2000/svg" xmlns:xlink="http://www.w3.org/1999/xlink">
    <!-- Generator: Sketch 43.2 (39069) - http://www.bohemiancoding.com/sketch -->
    <title>icon-gauge sm</title>
    <desc>Created with Sketch.</desc>
    <defs></defs>
    <g id="Visualize" stroke="none" stroke-width="1" fill="none" fill-rule="evenodd">
        <g id="Visualize-Create-New" transform="translate(-88.000000, -1374.000000)" fill="#000000">
            <g id="Icon-SM-Vertical-List" transform="translate(75.000000, 837.000000)">
                <g id="icon-gauge-sm" transform="translate(13.000000, 537.000000)">
                    <path d="M0.69639,12.30807 C0.23439,11.21517 9e-05,10.05507 9e-05,8.85927 C9e-05,3.97437 3.97419,-3e-05 8.85939,-3e-05 C13.74459,-3e-05 17.71869,3.97437 17.71869,8.85927 C17.71869,9.94557 17.52429,11.00697 17.14029,12.01377 L15.73899,11.47917 C16.05729,10.64397 16.21869,9.76257 16.21869,8.85927 C16.21869,4.80147 12.91719,1.49997 8.85939,1.49997 C4.80159,1.49997 1.50009,4.80147 1.50009,8.85927 C1.50009,9.85317 1.69449,10.81677 2.07789,11.72397 L0.69639,12.30807 Z" id="Fill-1"></path>
                    <path d="M13.00443,5.51178 L12.15603,4.66338 L9.58443,7.23498 C9.35733,7.13178 9.10593,7.07298 8.84073,7.07298 C7.84653,7.07298 7.04073,7.87878 7.04073,8.87298 C7.04073,9.86688 7.84653,10.67298 8.84073,10.67298 C9.83463,10.67298 10.64073,9.86688 10.64073,8.87298 C10.64073,8.58288 10.57053,8.31018 10.44873,8.06748 L13.00443,5.51178 Z" id="Fill-3"></path>
                </g>
            </g>
        </g>
    </g>
</svg>