<?xml version="1.0" encoding="UTF-8"?>
<svg width="57px" height="43px" viewBox="0 0 57 43" version="1.1" xmlns="http://www.w3.org/2000/svg" xmlns:xlink="http://www.w3.org/1999/xlink">
    <!-- Generator: Sketch 43.2 (39069) - http://www.bohemiancoding.com/sketch -->
    <title>icon goal</title>
    <desc>Created with Sketch.</desc>
    <defs>
        <polygon id="path-1" points="0 41.32 0 0.293 28.0314 0.293 56.0628 0.293 56.0628 41.32 2.56295907e-15 41.32"></polygon>
    </defs>
    <g id="Visualize" stroke="none" stroke-width="1" fill="none" fill-rule="evenodd">
        <g id="Visualize-Create-New" transform="translate(-1076.000000, -656.000000)">
            <g id="other" transform="translate(555.000000, 576.000000)">
                <g id="gauge-w/-goal" transform="translate(481.000000, 45.000000)">
                    <g id="icon-goal" transform="translate(40.000000, 34.000000)">
                        <g id="Group-3" transform="translate(0.000000, 0.707000)">
                            <mask id="mask-2" fill="white">
                                <use xlink:href="#path-1"></use>
                            </mask>
                            <g id="Clip-2"></g>
                            <path d="M40.9258,5.867 C40.9258,5.867 39.9208,5.397 39.0838,5.083 L40.1388,2.263 C36.8448,0.991 33.2678,0.293 29.5308,0.293 C13.2478,0.293 -0.0002,13.54 -0.0002,29.824 C-0.0002,33.809 0.7808,37.677 2.3218,41.32 L6.9268,39.372 C5.6488,36.349 4.9998,33.137 4.9998,29.824 C4.9998,16.298 16.0048,5.293 29.5308,5.293 C32.6518,5.293 35.6388,5.879 38.3868,6.946 C47.5498,10.505 54.0628,19.419 54.0628,29.824 C54.0628,32.834 53.5248,35.772 52.4628,38.557 L54.3088,39.299 C54.3088,39.299 54.4508,38.949 54.6278,38.42 C54.8038,37.89 54.9728,37.374 54.9728,37.374 C55.6968,34.935 56.0628,32.404 56.0628,29.824 C56.0628,19.625 50.0548,10.235 40.9258,5.867" id="Fill-1" fill="#000000" mask="url(#mask-2)"></path>
                        </g>
                        <path d="M27.0532,26.3679 C27.6432,26.9749 28.4612,27.2779 29.5072,27.2779 C30.5652,27.2779 31.3842,26.9749 31.9612,26.3679 C32.5392,25.7619 32.8272,24.9799 32.8272,24.0209 C32.8272,22.9779 32.5392,22.1619 31.9612,21.5739 C31.3842,20.9859 30.5652,20.6919 29.5072,20.6919 C28.4612,20.6919 27.6432,20.9859 27.0532,21.5739 C26.4632,22.1619 26.1682,22.9779 26.1682,24.0209 C26.1682,24.9799 26.4632,25.7619 27.0532,26.3679 M26.7232,38.3759 C27.3972,39.0919 28.3272,39.4499 29.5162,39.4499 C30.7042,39.4499 31.6362,39.0919 32.3092,38.3759 C32.9822,37.6609 33.3192,36.6539 33.3192,35.3559 C33.3192,34.0099 32.9762,32.9879 32.2912,32.2899 C31.6052,31.5929 30.6802,31.2439 29.5162,31.2439 C28.3522,31.2439 27.4272,31.5929 26.7412,32.2899 C26.0562,32.9879 25.7142,34.0099 25.7142,35.3559 C25.7142,36.6539 26.0502,37.6609 26.7232,38.3759 M21.3312,31.6799 C22.0002,30.4799 22.9802,29.5759 24.2692,28.9699 C22.9912,28.1209 22.1602,27.2019 21.7772,26.2129 C21.3932,25.2249 21.2012,24.2999 21.2012,23.4389 C21.2012,21.5229 21.9252,19.8879 23.3712,18.5349 C24.8182,17.1829 26.8602,16.5069 29.4982,16.5069 C32.1362,16.5069 34.1782,17.1829 35.6252,18.5349 C37.0712,19.8879 37.7952,21.5229 37.7952,23.4389 C37.7952,24.2999 37.6032,25.2249 37.2212,26.2129 C36.8392,27.2019 36.0112,28.0599 34.7382,28.7879 C36.0422,29.5149 37.0222,30.4799 37.6812,31.6799 C38.3392,32.8819 38.6682,34.2219 38.6682,35.7009 C38.6682,37.9209 37.8452,39.8109 36.2002,41.3689 C34.5552,42.9279 32.2572,43.7069 29.3072,43.7069 C26.3562,43.7069 24.1222,42.9279 22.6052,41.3689 C21.0872,39.8109 20.3282,37.9209 20.3282,35.7009 C20.3282,34.2219 20.6622,32.8819 21.3312,31.6799" id="Fill-4" fill="#000000"></path>
                    </g>
                </g>
            </g>
        </g>
    </g>
</svg>