<svg xmlns="http://www.w3.org/2000/svg" width="50" height="50" viewBox="0 0 50 50">
  <path d="M17.4712891,34.8723633 L11.1724609,45.7824219 C4.44335938,41.3024414 0,33.6516602 0,24.9602539 C0,11.6821289 10.3637695,0.851367187 23.4375,0.0396484375 L23.4375,12.6189453 C17.2881836,13.397168 12.5,18.603418 12.5,24.9602539 C12.5,29.0161133 14.4714844,32.5896484 17.4712891,34.8723633 Z M34.9121094,17.4316406 L45.822168,11.1328125 C41.6137695,4.80957031 34.6007812,0.537109375 26.5625,0.0396484375 L26.5625,12.6189453 C29.9682617,13.0493164 32.9285156,14.828418 34.9121094,17.4316406 Z M47.3693359,13.8488281 L36.5203125,20.1140625 C37.1490234,21.6033203 37.5,23.2421875 37.5,24.9602539 C37.5,31.8541992 31.8939453,37.4602539 25,37.4602539 C23.2818359,37.4602539 21.6430664,37.1124023 20.1538086,36.4806641 L13.8885742,47.3297852 C17.2394531,48.9991211 21.0022461,49.9604492 25,49.9604492 C38.8061523,49.9604492 50,38.7666016 50,24.9604492 C50,20.9625 49.0386719,17.199707 47.3693359,13.8488281 Z"/>
</svg>
