<svg width="26" height="24" viewBox="0 0 26 24" fill="none" xmlns="http://www.w3.org/2000/svg">
  <path fill-rule="evenodd" clip-rule="evenodd" d="M17.0699 15.5699C18.2787 14.0377 19 12.1031 19 10C19 5.02944 14.9706 1 10 1C5.02944 1 1 5.02944 1 10C1 14.9706 5.02944 19 10 19C11.7165 19 13.3208 18.5195 14.6856 17.6856L20 23H24.5L17.0699 15.5699Z" fill="white"/>
  <path d="M17.0699 15.5699L16.6773 15.2602L16.402 15.6091L16.7163 15.9234L17.0699 15.5699ZM14.6856 17.6856L15.0392 17.332L14.7608 17.0537L14.4249 17.2589L14.6856 17.6856ZM20 23L19.6464 23.3536L19.7929 23.5H20V23ZM24.5 23V23.5H25.7071L24.8536 22.6464L24.5 23ZM18.5 10C18.5 11.9868 17.819 13.8131 16.6773 15.2602L17.4624 15.8796C18.7383 14.2623 19.5 12.2194 19.5 10H18.5ZM10 1.5C14.6944 1.5 18.5 5.30558 18.5 10H19.5C19.5 4.75329 15.2467 0.5 10 0.5V1.5ZM1.5 10C1.5 5.30558 5.30558 1.5 10 1.5V0.5C4.75329 0.5 0.5 4.75329 0.5 10H1.5ZM10 18.5C5.30558 18.5 1.5 14.6944 1.5 10H0.5C0.5 15.2467 4.75329 19.5 10 19.5V18.5ZM14.4249 17.2589C13.1363 18.0462 11.6219 18.5 10 18.5V19.5C11.8111 19.5 13.5052 18.9927 14.9463 18.1123L14.4249 17.2589ZM20.3536 22.6464L15.0392 17.332L14.332 18.0392L19.6464 23.3536L20.3536 22.6464ZM24.5 22.5H20V23.5H24.5V22.5ZM16.7163 15.9234L24.1464 23.3536L24.8536 22.6464L17.4234 15.2163L16.7163 15.9234Z" fill="black"/>
  <circle cx="10" cy="10" r="5.5" stroke="black"/>
  <path d="M8 11.2169V8.7831L10 7.5831L12 8.7831V11.2169L10 12.4169L8 11.2169Z" stroke="black"/>
</svg>
