<svg width="202" height="137" viewBox="110 -65 91 137" fill="none" xmlns="http://www.w3.org/2000/svg">
<path d="M23.6915 135.812C30.7284 101.672 50.1394 71.3393 78.1913 50.6476C92.4861 39.9426 108.61 31.9286 125.774 26.9975C142.478 22.2129 163.455 18.4632 180.537 23.2243C180.849 23.3183 181.118 23.521 181.295 23.796C181.471 24.0709 181.543 24.3999 181.498 24.7234C181.454 25.0469 181.294 25.3438 181.05 25.5602C180.805 25.7767 180.491 25.8985 180.165 25.9037C162.045 27.5068 144.805 26.4219 126.964 31.4384C110.56 36.0561 95.112 43.5668 81.3486 53.6167C53.7297 73.9391 33.8064 103.015 24.8245 136.108C24.6242 136.852 23.5194 136.458 23.687 135.795L23.6915 135.812Z" fill="#DAE0EB"/>
<path d="M164.89 3.5449C168.316 3.24464 171.893 8.93518 173.739 11.075C176.851 14.6919 180.426 18.2031 183.182 22.1154C185.084 24.8034 185.207 26.5508 182.363 28.5482C175.649 33.4667 168.553 37.8407 161.142 41.6283C160.969 41.7297 160.765 41.7646 160.568 41.7265C160.371 41.6884 160.195 41.58 160.072 41.4214C159.95 41.2627 159.889 41.0649 159.902 40.8648C159.914 40.6647 160 40.476 160.141 40.3341C163.581 36.0754 167.499 32.2272 171.82 28.866C173.433 27.5619 175.805 26.3812 177.72 25.0507C177.32 24.5765 176.958 24.0377 176.633 23.7069L170.063 16.5471C167.748 14.0065 163.664 9.88663 162.632 5.22168C162.457 4.16047 163.929 3.62065 164.89 3.5449Z" fill="#DAE0EB"/>
</svg>
