<svg width="185" height="93" viewBox="90 30 95 93" fill="none" xmlns="http://www.w3.org/2000/svg">
<path d="M0.854996 1.11783C16.4882 32.2732 43.0884 56.5485 75.5399 69.2748C92.1182 75.9153 109.767 79.483 127.623 79.8037C144.995 80.102 166.229 78.2945 181.496 69.2748C181.773 69.103 181.981 68.8376 182.08 68.5264C182.179 68.2151 182.164 67.8787 182.037 67.5778C181.909 67.2769 181.679 67.0314 181.387 66.8856C181.094 66.7399 180.759 66.7034 180.443 66.7829C162.526 69.9241 146.154 75.4342 127.623 75.2061C110.582 74.9915 93.7166 71.735 77.8211 65.5897C45.8835 53.1081 19.1136 30.1792 1.87279 0.538738C1.48672 -0.128091 0.521576 0.538732 0.854996 1.13537L0.854996 1.11783Z" fill="#DAE0EB"/>
<path d="M171.475 92.3335C174.862 91.7369 176.845 85.3143 178.074 82.7698C180.144 78.4705 182.689 74.1537 184.338 69.6614C185.479 66.5729 185.145 64.8532 181.882 63.6599C174.124 60.6467 166.137 58.2584 157.999 56.5178C157.805 56.4646 157.599 56.4837 157.419 56.5715C157.239 56.6592 157.096 56.8096 157.019 56.9946C156.942 57.1795 156.934 57.3863 156.998 57.5764C157.062 57.7664 157.193 57.9265 157.367 58.0269C161.791 61.2504 166.572 63.9532 171.616 66.0816C173.511 66.9239 176.108 67.4503 178.302 68.24C178.038 68.8015 177.828 69.4157 177.6 69.8193L173.107 78.4354C171.528 81.4888 168.65 86.5251 168.861 91.2982C168.966 92.3686 170.528 92.509 171.475 92.3335Z" fill="#DAE0EB"/>
</svg>
