<svg width="24" height="24" fill="none" xmlns="http://www.w3.org/2000/svg">
  <path d="M8.51 10.94c0 .194.02.352.058.467a2.8 2.8 0 00.17.379.227.227 0 01.037.12c0 .053-.031.106-.1.159l-.336.22a.257.257 0 01-.138.048c-.053 0-.107-.026-.16-.074a1.632 1.632 0 01-.191-.247 4.046 4.046 0 01-.165-.31c-.415.484-.937.726-1.565.726-.447 0-.803-.127-1.064-.38-.26-.252-.394-.588-.394-1.009 0-.447.16-.81.485-1.083.324-.274.755-.41 1.303-.41.181 0 .367.016.564.042.197.026.4.068.612.116V9.32c0-.4-.085-.679-.25-.842-.17-.163-.458-.242-.867-.242-.187 0-.378.021-.575.069a4.277 4.277 0 00-.575.178 1.539 1.539 0 01-.186.069.33.33 0 01-.085.016c-.074 0-.112-.053-.112-.163v-.258c0-.084.01-.147.038-.184a.398.398 0 01.149-.11c.186-.095.41-.174.67-.237.26-.069.537-.1.83-.1.633 0 1.096.142 1.394.426.293.284.442.715.442 1.293v1.704h.01zm-2.16.799c.175 0 .356-.032.547-.095.192-.063.362-.179.506-.337.085-.1.149-.21.18-.336.033-.126.054-.279.054-.458v-.22a4.485 4.485 0 00-.49-.09 4.063 4.063 0 00-.5-.031c-.356 0-.617.068-.793.21-.175.142-.26.342-.26.605 0 .247.063.43.196.557.128.131.314.195.56.195zm4.272.568c-.096 0-.16-.016-.202-.053-.043-.032-.08-.105-.112-.205l-1.25-4.065a.912.912 0 01-.048-.21c0-.085.042-.132.127-.132h.522c.1 0 .17.016.207.053.043.031.075.105.107.205l.894 3.481.83-3.481c.026-.105.058-.174.1-.205a.37.37 0 01.214-.053h.425c.101 0 .17.016.213.053.043.031.08.105.101.205l.841 3.523.92-3.523a.45.45 0 01.107-.205.35.35 0 01.207-.053h.495c.085 0 .133.042.133.132 0 .026-.005.052-.01.084a.74.74 0 01-.038.131l-1.282 4.065c-.032.105-.07.174-.112.205a.344.344 0 01-.202.053h-.457c-.102 0-.17-.016-.213-.053-.043-.037-.08-.105-.101-.21l-.825-3.392-.82 3.387c-.026.105-.058.173-.1.21-.043.037-.118.053-.213.053h-.458zm6.837.142c-.276 0-.553-.032-.82-.095-.265-.063-.473-.132-.611-.21-.085-.048-.144-.1-.165-.148a.367.367 0 01-.032-.147v-.268c0-.11.043-.163.123-.163.031 0 .063.005.095.016.032.01.08.031.133.052.181.08.378.142.586.184.212.042.42.063.633.063.335 0 .596-.058.777-.173a.565.565 0 00.276-.5.509.509 0 00-.143-.368c-.096-.1-.277-.19-.538-.273l-.771-.237c-.389-.12-.676-.3-.852-.536a1.244 1.244 0 01-.122-1.347c.096-.168.224-.315.383-.43.16-.122.34-.211.553-.274.213-.063.437-.09.67-.09.118 0 .24.006.357.021.123.016.235.037.346.058.107.027.208.053.304.084.095.032.17.063.223.095a.458.458 0 01.16.132.28.28 0 01.048.173v.247c0 .11-.043.168-.123.168a.559.559 0 01-.202-.063 2.459 2.459 0 00-1.022-.205c-.303 0-.542.048-.707.148a.506.506 0 00-.25.468c0 .147.053.273.16.373.106.1.303.2.585.29l.755.236c.383.12.66.289.825.505.165.215.245.462.245.736 0 .226-.048.431-.139.61a1.42 1.42 0 01-.388.463 1.723 1.723 0 01-.59.294c-.24.074-.49.11-.762.11z" fill="#252F3E"/>
  <path fill-rule="evenodd" clip-rule="evenodd" d="M18.465 15.005c-1.75 1.277-4.294 1.956-6.48 1.956-3.066 0-5.827-1.12-7.913-2.982-.165-.147-.016-.347.18-.231 2.257 1.293 5.04 2.077 7.918 2.077 1.943 0 4.076-.4 6.04-1.22.292-.132.542.19.255.4z" fill="#F90"/>
  <path fill-rule="evenodd" clip-rule="evenodd" d="M19.194 14.184c-.223-.284-1.48-.137-2.049-.068-.17.02-.196-.127-.042-.237 1-.694 2.644-.494 2.836-.263.192.237-.053 1.862-.99 2.64-.143.121-.282.058-.218-.1.213-.52.686-1.693.463-1.972z" fill="#F90"/>
</svg>
