<svg width="32" height="32" fill="none" xmlns="http://www.w3.org/2000/svg">
  <path d="M11.164 13.586c1.145 3.503 1.58 9.753 4.93 9.753.254 0 .512-.025.77-.074-3.045-.71-3.405-6.892-5.264-10.093-.148.135-.293.273-.436.414" fill="url(#paint0_linear)"/>
  <path d="M11.6 13.172c1.859 3.201 2.22 9.383 5.265 10.093.239-.044.479-.11.719-.195-2.733-1.339-3.489-7.341-5.6-10.231-.13.108-.258.22-.384.333" fill="url(#paint1_linear)"/>
  <path d="M14.278 11.268a4.14 4.14 0 00-.772.074c-.678.128-1.367.42-2.06.862.189.187.37.4.539.635.706-.586 1.407-1.02 2.106-1.28.255-.095.518-.168.786-.218a2.42 2.42 0 00-.6-.073" fill="#14559A"/>
  <path d="M19.718 21.836c.29-.233.571-.478.84-.737-1.164-3.487-1.58-9.826-4.954-9.826-.241 0-.485.023-.727.068 3.072.764 3.466 7.45 4.84 10.495" fill="url(#paint2_linear)"/>
  <path d="M14.877 11.34a2.425 2.425 0 00-.6-.072l1.327.005a3.95 3.95 0 00-.727.068" fill="#3092C4"/>
  <path d="M19.659 22.577a5.018 5.018 0 01-.38-.411 6.977 6.977 0 01-1.695.904 2.609 2.609 0 001.17.269c.63 0 1.129-.075 1.553-.278a2.95 2.95 0 01-.648-.484" fill="#1969BC"/>
  <path d="M14.09 11.56c2.753 1.44 2.992 7.959 5.189 10.606.15-.106.295-.216.438-.33-1.374-3.045-1.767-9.731-4.84-10.495-.268.05-.53.124-.786.22" fill="url(#paint3_linear)"/>
  <path d="M11.985 12.839c2.11 2.89 2.866 8.892 5.599 10.231a6.975 6.975 0 001.695-.904C17.082 19.519 16.843 13 14.09 11.56c-.699.26-1.4.693-2.106 1.279" fill="url(#paint4_linear)"/>
  <path d="M9.814 13.502c-.331.748-.67 1.73-1.078 3.014.813-1.145 1.623-2.131 2.428-2.93a8.789 8.789 0 00-.359-.935c-.345.265-.676.55-.991.85" fill="url(#paint5_linear)"/>
  <path d="M11.099 12.435c-.1.07-.197.142-.293.216.128.28.247.594.358.935.143-.14.288-.279.436-.414a5.808 5.808 0 00-.501-.737" fill="#2B74B1"/>
  <path d="M11.445 12.204a9.562 9.562 0 00-.347.23c.18.223.346.47.502.738.126-.114.254-.225.385-.333a5.094 5.094 0 00-.54-.635" fill="#125A9E"/>
  <path d="M30.218 11.001c-1.556 6.004-4.807 10.825-7.533 12.04h-.005c-.05.023-.1.044-.148.064-.006.004-.012.004-.018.007l-.041.016c-.007.004-.013.005-.02.007-.022.009-.045.015-.067.024-.01.005-.02.007-.028.01a.36.36 0 01-.034.011l-.033.012-.03.01-.057.017c-.009 0-.016.005-.025.007l-.04.01c-.008.005-.016.006-.026.008a.934.934 0 01-.043.01l-.052.012c.125.046.257.07.39.069 2.585 0 5.19-4.632 9.503-12.335h-1.693v.001z" fill="url(#paint6_linear)"/>
  <path d="M8.175 11.512c.002 0 .004-.004.005-.004.002 0 .005 0 .006-.004h.003l.042-.016c.004 0 .006 0 .008-.004.004 0 .008-.004.011-.005l.045-.016h.003c.034-.01.066-.023.099-.035.004 0 .009-.004.015-.004l.042-.012c.007-.004.013-.004.02-.007l.042-.012c.007 0 .012-.004.017-.005.047-.013.094-.025.142-.036.006 0 .012-.005.02-.005a.274.274 0 01.04-.008c.007-.004.014-.004.021-.006.014-.004.027-.005.042-.008h.01l.086-.016h.018c.013-.004.026-.004.04-.007.007 0 .015-.004.022-.004.013 0 .025-.004.038-.006.007 0 .013 0 .021-.004.03-.004.061-.005.093-.008a2.87 2.87 0 00-.275-.014c-2.91 0-6.921 5.4-8.728 12.395h.349a101.37 101.37 0 001.572-2.922c1.265-4.954 3.842-8.333 6.131-9.228" fill="url(#paint7_linear)"/>
  <path d="M9.814 13.502a12.1 12.1 0 01.991-.851 4.68 4.68 0 00-.236-.457c-.266.323-.51.75-.755 1.308M10.053 11.553c.19.16.36.379.516.641.05-.06.099-.116.15-.168a2.921 2.921 0 00-.666-.473" fill="#0D82CA"/>
  <path d="M2.044 20.74c2.654-5.115 3.912-8.352 6.131-9.228-2.288.895-4.866 4.274-6.131 9.227" fill="url(#paint8_linear)"/>
  <path d="M10.72 12.026c-.053.053-.102.108-.151.168.087.148.166.3.236.457.097-.074.195-.146.293-.216a3.989 3.989 0 00-.379-.409" fill="#127BCA"/>
  <path d="M3.249 23.638c-.017.004-.033.004-.048.006h-.01c-.013 0-.028.004-.04.004h-.007c-.033.004-.066.004-.098.007h-.01c2.686-.075 3.914-1.42 4.524-3.371.463-1.48.843-2.725 1.177-3.77C7.61 18.097 6.48 19.985 5.345 22.1c-.548 1.02-1.382 1.445-2.096 1.537" fill="url(#paint9_linear)"/>
  <path d="M3.249 23.637c.714-.09 1.548-.516 2.096-1.536 1.136-2.114 2.267-4.002 3.39-5.586.41-1.284.747-2.266 1.079-3.014-2.241 2.133-4.49 5.679-6.565 10.136" fill="url(#paint10_linear)"/>
  <path d="M2.044 20.74c-.475.915-.995 1.89-1.573 2.922h1.013c.128-.985.315-1.96.56-2.922" fill="#05A1E6"/>
  <path d="M9.033 11.29c-.008 0-.014.005-.021.005-.013.004-.025.004-.038.005-.008 0-.015 0-.023.004-.014.004-.026.005-.04.007-.006 0-.012 0-.017.004l-.086.015h-.01a.315.315 0 01-.042.009c-.007.004-.014.004-.021.005-.014.004-.028.006-.04.008-.008.005-.014.005-.02.005a4.64 4.64 0 00-.142.037c-.005 0-.01.004-.017.005a2.21 2.21 0 00-.043.012c-.006.004-.013.004-.02.006a1.055 1.055 0 00-.042.013c-.005 0-.01.004-.015.004-.033.012-.065.024-.099.034l-.045.016c-.006.004-.011.005-.018.008-.015.004-.03.01-.042.015-.005.004-.01.005-.014.007-2.22.876-3.477 4.113-6.132 9.228a24.646 24.646 0 00-.56 2.921h.143c.4 0 .513-.004.974-.004h.446c.032-.004.064-.004.097-.006h.007c.013 0 .027-.005.04-.005h.01c.015 0 .032-.003.048-.005 2.075-4.457 4.325-8.003 6.565-10.136.247-.558.49-.984.755-1.307a2.476 2.476 0 00-.516-.642s-.005 0-.005-.004l-.032-.015-.031-.016a.344.344 0 01-.03-.015c-.014-.004-.025-.01-.036-.015l-.029-.012a1.243 1.243 0 01-.058-.025l-.025-.01a.868.868 0 01-.044-.017c-.008-.004-.016-.005-.024-.008l-.06-.02h-.006c-.023-.008-.046-.014-.07-.02-.006-.005-.01-.005-.016-.006l-.06-.016c-.004 0-.01-.004-.013-.004a2.13 2.13 0 00-.148-.033c-.005 0-.01-.004-.015-.004a.86.86 0 00-.064-.01c-.005-.004-.008-.004-.013-.004a1.609 1.609 0 00-.076-.01h-.013c-.02-.004-.04-.004-.058-.006-.032.004-.063.005-.093.008" fill="url(#paint11_linear)"/>
  <path d="M24.138 14.325c-.51 1.636-.924 2.985-1.284 4.096 1.401-1.929 2.781-4.354 4.096-7.154-1.534.482-2.351 1.584-2.812 3.058z" fill="url(#paint12_linear)"/>
  <path d="M22.898 22.94a4.26 4.26 0 01-.213.102c2.726-1.216 5.977-6.038 7.533-12.04h-.315c-3.576 6.388-4.727 10.664-7.005 11.937z" fill="url(#paint13_linear)"/>
  <path d="M21.119 22.403c.593-.724 1.076-1.954 1.735-3.982-.76 1.045-1.526 1.943-2.293 2.675 0 .004 0 .004-.004.007.167.5.35.943.56 1.3" fill="#079AE1"/>
  <path d="M21.119 22.403a2.43 2.43 0 01-.812.658 2.295 2.295 0 00.967.274h.009c.02 0 .043 0 .065.004h.222c.008 0 .017 0 .025-.004.016 0 .033 0 .049-.004h.024c.017 0 .035-.004.053-.006h.004c.006 0 .011-.004.017-.004.018-.004.038-.006.056-.009h.017l.064-.01h.01l.128-.027c-.352-.129-.647-.433-.9-.865" fill="#1969BC"/>
  <path d="M16.093 23.339c.255 0 .513-.025.772-.075.239-.043.479-.11.719-.193a2.614 2.614 0 001.17.268h-2.66z" fill="#1E5CB3"/>
  <path d="M18.754 23.339c.63 0 1.129-.075 1.553-.278a2.298 2.298 0 00.967.274h.009c.02 0 .043 0 .065.004h.077-2.673.002z" fill="#1E5CB3"/>
  <path d="M21.426 23.339h.146c.008 0 .017 0 .025-.004.016 0 .032 0 .05-.004h.024c.016 0 .035-.004.052-.006h.005c.005 0 .01-.004.016-.004.018-.004.038-.006.056-.009.006 0 .011 0 .018-.004l.064-.01h.01c.043-.008.085-.016.127-.027.125.046.257.07.39.069l-.982.004-.001-.005z" fill="#1D60B5"/>
  <path d="M20.559 21.103v-.004c-.269.258-.55.504-.84.736-.144.114-.29.224-.44.33.123.147.249.285.38.411.201.194.415.358.649.484a2.424 2.424 0 00.812-.658c-.21-.357-.393-.799-.56-1.3" fill="#175FAB"/>
  <path d="M28.904 11.001h-1.588c-.085.004-.169.007-.251.013-.039.083-.079.166-.117.25-1.314 2.8-2.695 5.225-4.096 7.153-.659 2.028-1.142 3.259-1.735 3.983.253.432.548.736.899.865.01-.004.018-.004.027-.006h.006c.006 0 .013-.004.02-.004l.044-.011c.009-.004.016-.005.026-.008l.039-.01c.008-.004.016-.005.024-.007l.059-.017a.169.169 0 01.029-.01l.033-.012.033-.01c.01-.005.02-.007.028-.01.023-.01.045-.016.068-.025.007 0 .013-.006.02-.007l.041-.016c.005-.004.011-.005.018-.007.048-.02.098-.04.147-.063h.005a4.21 4.21 0 00.214-.102c2.278-1.273 3.429-5.55 7.005-11.938h-1 .002z" fill="url(#paint14_linear)"/>
  <path d="M9.126 11.282c.006 0 .01 0 .016.004a.13.13 0 01.042.005h.014l.075.01a1.473 1.473 0 00.077.015c.005 0 .01.003.016.003.049.01.1.02.147.033.005 0 .01.004.013.004l.06.017c.006 0 .01.004.016.005.024.006.047.012.07.02.001 0 .002 0 .005.004l.061.02c.009.005.016.006.024.008.014.007.03.013.044.018.008 0 .016.006.025.01.019.008.039.015.058.024l.03.012a1.675 1.675 0 00.066.03l.03.016c.254.124.488.29.704.492.078-.082.16-.157.25-.226a2.745 2.745 0 00-1.843-.518" fill="#7DCBEC"/>
  <path d="M10.72 12.026c.135.127.262.264.378.409.114-.08.23-.157.347-.231a3.65 3.65 0 00-.477-.405c-.088.07-.172.145-.249.227" fill="#5EC5ED"/>
  <path d="M9.126 11.282a2.749 2.749 0 011.842.518c.5-.394 1.103-.532 1.94-.532H8.851c.094 0 .185.006.275.014" fill="url(#paint15_linear)"/>
  <path d="M12.908 11.268c-.838 0-1.44.138-1.94.531.17.121.33.257.477.405.694-.442 1.383-.735 2.061-.862.254-.049.512-.073.771-.074h-1.369z" fill="url(#paint16_linear)"/>
  <path d="M22.854 18.421c.36-1.11.773-2.46 1.285-4.096.46-1.475 1.277-2.577 2.81-3.058.04-.082.079-.167.118-.25-2.499.15-3.667 1.42-4.255 3.303-1.028 3.288-1.65 5.418-2.25 6.776.765-.732 1.531-1.63 2.292-2.675" fill="url(#paint17_linear)"/>
  <path d="M26.52 22.463h-.283v.88h-.115v-.88h-.285v-.105h.683v.105zm1.16.88h-.115v-.661c0-.052.004-.116.01-.191a.68.68 0 01-.031.096l-.335.756h-.057l-.336-.75a.526.526 0 01-.03-.102h-.004c.004.04.005.104.005.192v.66h-.11v-.985h.152l.302.688a.902.902 0 01.045.118h.004l.047-.121.309-.685h.145v.985z" fill="#000"/>
  <defs>
    <linearGradient id="paint0_linear" x1="14.014" y1="11.188" x2="14.014" y2="26.351" gradientUnits="userSpaceOnUse">
      <stop stop-color="#0994DC"/>
      <stop offset=".35" stop-color="#66CEF5"/>
      <stop offset=".846" stop-color="#127BCA"/>
      <stop offset="1" stop-color="#127BCA"/>
    </linearGradient>
    <linearGradient id="paint1_linear" x1="14.592" y1="10.804" x2="14.592" y2="26.353" gradientUnits="userSpaceOnUse">
      <stop stop-color="#0E76BC"/>
      <stop offset=".36" stop-color="#36AEE8"/>
      <stop offset=".846" stop-color="#00ADEF"/>
      <stop offset="1" stop-color="#00ADEF"/>
    </linearGradient>
    <linearGradient id="paint2_linear" x1="17.717" y1="22.99" x2="17.717" y2="10.617" gradientUnits="userSpaceOnUse">
      <stop stop-color="#1C63B7"/>
      <stop offset=".5" stop-color="#33BDF2"/>
      <stop offset="1" stop-color="#33BDF2" stop-opacity=".42"/>
    </linearGradient>
    <linearGradient id="paint3_linear" x1="16.904" y1="9.228" x2="16.904" y2="25.373" gradientUnits="userSpaceOnUse">
      <stop stop-color="#166AB8"/>
      <stop offset=".4" stop-color="#36AEE8"/>
      <stop offset=".846" stop-color="#0798DD"/>
      <stop offset="1" stop-color="#0798DD"/>
    </linearGradient>
    <linearGradient id="paint4_linear" x1="15.632" y1="9.313" x2="15.632" y2="26.48" gradientUnits="userSpaceOnUse">
      <stop stop-color="#124379"/>
      <stop offset=".39" stop-color="#1487CB"/>
      <stop offset=".78" stop-color="#165197"/>
      <stop offset="1" stop-color="#165197"/>
    </linearGradient>
    <linearGradient id="paint5_linear" x1="8.736" y1="14.583" x2="11.164" y2="14.583" gradientUnits="userSpaceOnUse">
      <stop stop-color="#33BDF2" stop-opacity=".698"/>
      <stop offset="1" stop-color="#1DACD8"/>
    </linearGradient>
    <linearGradient id="paint6_linear" x1="26.965" y1="22.679" x2="26.965" y2="10.627" gradientUnits="userSpaceOnUse">
      <stop stop-color="#136AB4"/>
      <stop offset=".6" stop-color="#59CAF5" stop-opacity=".549"/>
      <stop offset="1" stop-color="#59CAF5" stop-opacity=".235"/>
    </linearGradient>
    <linearGradient id="paint7_linear" x1=".123" y1="17.463" x2="9.126" y2="17.463" gradientUnits="userSpaceOnUse">
      <stop stop-color="#05A1E6" stop-opacity=".247"/>
      <stop offset="1" stop-color="#05A1E6"/>
    </linearGradient>
    <linearGradient id="paint8_linear" x1="5.109" y1="22.983" x2="5.109" y2="10.642" gradientUnits="userSpaceOnUse">
      <stop stop-color="#318ED5"/>
      <stop offset="1" stop-color="#38A7E4"/>
    </linearGradient>
    <linearGradient id="paint9_linear" x1="5.886" y1="23.026" x2="5.886" y2="11.03" gradientUnits="userSpaceOnUse">
      <stop stop-color="#05A1E6"/>
      <stop offset="1" stop-color="#05A1E6" stop-opacity=".549"/>
    </linearGradient>
    <linearGradient id="paint10_linear" x1="6.531" y1="23.639" x2="6.531" y2="13.502" gradientUnits="userSpaceOnUse">
      <stop stop-color="#1959A6"/>
      <stop offset=".5" stop-color="#05A1E6"/>
      <stop offset=".918" stop-color="#7EC5EA"/>
      <stop offset="1" stop-color="#7EC5EA"/>
    </linearGradient>
    <linearGradient id="paint11_linear" x1="6.92" y1="22.991" x2="3.484" y2="12.49" gradientUnits="userSpaceOnUse">
      <stop stop-color="#165096"/>
      <stop offset="1" stop-color="#0D82CA"/>
    </linearGradient>
    <linearGradient id="paint12_linear" x1="24.901" y1="16.775" x2="24.901" y2="11.031" gradientUnits="userSpaceOnUse">
      <stop stop-color="#05A1E6"/>
      <stop offset=".874" stop-color="#0495D6"/>
      <stop offset="1" stop-color="#0495D6"/>
    </linearGradient>
    <linearGradient id="paint13_linear" x1="27.601" y1="10.5" x2="22.248" y2="22.386" gradientUnits="userSpaceOnUse">
      <stop stop-color="#38A7E4" stop-opacity=".329"/>
      <stop offset=".962" stop-color="#0E88D3"/>
      <stop offset="1" stop-color="#0E88D3"/>
    </linearGradient>
    <linearGradient id="paint14_linear" x1="25.511" y1="10.965" x2="25.511" y2="23.496" gradientUnits="userSpaceOnUse">
      <stop stop-color="#168CD4"/>
      <stop offset=".5" stop-color="#1C87CC"/>
      <stop offset="1" stop-color="#154B8D"/>
    </linearGradient>
    <linearGradient id="paint15_linear" x1="9.527" y1="10.707" x2="9.582" y2="12.022" gradientUnits="userSpaceOnUse">
      <stop stop-color="#97D6EE"/>
      <stop offset=".703" stop-color="#55C1EA"/>
      <stop offset="1" stop-color="#55C1EA"/>
    </linearGradient>
    <linearGradient id="paint16_linear" x1="11.196" y1="12.145" x2="11.442" y2="10.753" gradientUnits="userSpaceOnUse">
      <stop stop-color="#7ACCEC"/>
      <stop offset="1" stop-color="#3FB7ED"/>
    </linearGradient>
    <linearGradient id="paint17_linear" x1="23.814" y1="11.658" x2="23.814" y2="23.914" gradientUnits="userSpaceOnUse">
      <stop stop-color="#1DA7E7"/>
      <stop offset="1" stop-color="#37ABE7" stop-opacity="0"/>
    </linearGradient>
  </defs>
</svg>
