<svg width="24" height="24" fill="none" xmlns="http://www.w3.org/2000/svg">
  <path fill-rule="evenodd" clip-rule="evenodd" d="M11.611 6.905a1.4 1.4 0 00.779 0l4.216 7.301a1.388 1.388 0 00-.393.682H7.787a1.4 1.4 0 00-.392-.68l4.216-7.303zm-.615-.37l.04.04-4.217 7.302a1.484 1.484 0 00-.055-.014v-3.726a1.394 1.394 0 001.004-1.739l3.228-1.863zm2.342-.572A1.395 1.395 0 0012 4.168a1.395 1.395 0 00-1.339 1.793l-3.222 1.86a1.398 1.398 0 10-1.711 2.17 1.4 1.4 0 00.372.15v3.72a1.4 1.4 0 00-.88 2.055 1.397 1.397 0 002.22.266l3.22 1.859A1.399 1.399 0 0012 19.832a1.397 1.397 0 001.325-1.836l3.202-1.848a1.398 1.398 0 002.253-.232 1.392 1.392 0 00-.88-2.055v-3.72a1.4 1.4 0 00.884-2.056 1.4 1.4 0 00-2.225-.262l-3.22-1.86zm-.373.61l.038-.037L16.23 8.4a1.394 1.394 0 001.005 1.737v3.725l-.054.015-4.217-7.304zm3.275 9.07l-3.208 1.853A1.392 1.392 0 0012 17.04c-.396 0-.752.164-1.006.427l-3.223-1.861.014-.054h8.43c.007.03.015.061.025.092z" fill="#E535AB"/>
</svg>
