<svg width="24" height="24" fill="none" xmlns="http://www.w3.org/2000/svg">
  <g clip-path="url(#clip0)">
    <path d="M6.013 14.721c.114.152.263.275.433.359a1.3 1.3 0 00.595.135c.166.004.332-.024.488-.083a.846.846 0 00.324-.227.874.874 0 00.178-.336 1.5 1.5 0 00.055-.41v-.483h-.012a1.035 1.035 0 01-.448.39 1.448 1.448 0 01-1.55-.273 1.306 1.306 0 01-.298-.433 1.36 1.36 0 01-.11-.545 1.427 1.427 0 01.388-.987c.122-.127.268-.228.43-.296.174-.072.36-.108.549-.106.086 0 .171.008.255.023a1.243 1.243 0 01.784.494h.012v-.448h.379v2.664c-.002.156-.02.312-.055.464a1.15 1.15 0 01-.212.454 1.21 1.21 0 01-.44.345c-.187.091-.432.137-.735.137-.245.005-.49-.04-.717-.132a1.668 1.668 0 01-.574-.407l.281-.299zm.069-1.917a1.03 1.03 0 00.29.726c.09.094.197.17.316.224a.93.93 0 00.393.083c.268 0 .527-.1.723-.284a.916.916 0 00.221-.325c.053-.135.078-.28.072-.424a1.143 1.143 0 00-.069-.4.958.958 0 00-.522-.55 1.045 1.045 0 00-.818 0 1.03 1.03 0 00-.529.55 1.03 1.03 0 00-.077.4zm3.927 1.377h-.413v-4.064h1.251c.414 0 .74.09.979.27.24.18.359.451.359.815.007.264-.089.52-.267.714-.178.194-.435.306-.772.336l1.17 1.93h-.504l-1.114-1.89h-.69v1.89zm0-2.267h.735a1.65 1.65 0 00.468-.058.869.869 0 00.307-.152.555.555 0 00.166-.224.743.743 0 000-.551.578.578 0 00-.166-.227.811.811 0 00-.307-.152 1.737 1.737 0 00-.468-.055h-.735v1.419zm3.02-1.797h1.182c.414 0 .74.09.98.27.239.18.358.451.358.815 0 .363-.12.636-.359.818-.239.182-.565.273-.979.273h-.769v1.889h-.413v-4.065zm.413 1.797h.666a1.65 1.65 0 00.468-.058.868.868 0 00.307-.152.554.554 0 00.167-.224.741.741 0 00.051-.278.727.727 0 00-.051-.273.577.577 0 00-.167-.227.814.814 0 00-.307-.152 1.737 1.737 0 00-.468-.054h-.666v1.418zm6.258 1.624a1.574 1.574 0 01-.603.531 1.98 1.98 0 01-.901.216 2.174 2.174 0 01-.841-.16 2.016 2.016 0 01-1.117-1.12 2.226 2.226 0 01-.16-.856 2.226 2.226 0 01.16-.855 2.02 2.02 0 011.117-1.12c.267-.109.553-.163.84-.16.26 0 .518.051.759.149.257.102.48.273.648.493l-.361.27a.995.995 0 00-.172-.195 1.26 1.26 0 00-.25-.172 1.558 1.558 0 00-.302-.12 1.166 1.166 0 00-.321-.047 1.59 1.59 0 00-1.226.528 1.693 1.693 0 00-.33.56 2.005 2.005 0 000 1.338c.073.206.185.396.33.56a1.59 1.59 0 001.226.528c.107 0 .213-.01.319-.029.106-.02.21-.052.31-.097.104-.048.2-.111.287-.187.096-.086.18-.186.25-.296l.338.241z" fill="#244B5A"/>
    <path d="M4.328 9.314l-.019.167v-.167h.02z" fill="#75CACA"/>
    <path d="M4.353 9.314l-.044.388v-.22l.02-.168h.024zM4.378 9.314l-.069.609v-.22l.044-.389h.025z" fill="#74CBCA"/>
    <path d="M4.403 9.314l-.094.83v-.221l.069-.609h.025zM4.428 9.314l-.119 1.05v-.22l.094-.83h.025z" fill="#73CBCA"/>
    <path d="M4.453 9.314l-.144 1.271v-.22l.119-1.05h.025zm.025 0l-.169 1.492v-.221l.144-1.27h.025z" fill="#72C9C9"/>
    <path d="M4.503 9.314l-.194 1.712v-.22l.169-1.492h.025z" fill="#70CACA"/>
    <path d="M4.528 9.314l-.219 1.933v-.22l.194-1.713h.025z" fill="#70CACA"/>
    <path d="M4.553 9.314l-.241 2.132h-.003v-.199l.219-1.933h.025z" fill="#6FCAC8"/>
    <path d="M4.577 9.314l-.24 2.134h-.014l-.011-.002.24-2.132h.025z" fill="#6EC8C8"/>
    <path d="M4.602 9.314l-.24 2.134h-.026l.241-2.134h.025z" fill="#6EC8C8"/>
    <path d="M4.627 9.314l-.24 2.134H4.36l.241-2.134h.025z" fill="#6CC9C9"/>
    <path d="M4.652 9.314l-.24 2.134h-.026l.241-2.134h.025z" fill="#6DC9C8"/>
    <path d="M4.677 9.314l-.24 2.134H4.41l.241-2.134h.025z" fill="#69C7C8"/>
    <path d="M4.702 9.314l-.24 2.134h-.026l.241-2.134h.025z" fill="#69C7C8"/>
    <path d="M4.727 9.314l-.24 2.134H4.46l.241-2.134h.025z" fill="#69C8C7"/>
    <path d="M4.752 9.314l-.241 2.134h-.025l.241-2.134h.025z" fill="#68C8C7"/>
    <path d="M4.777 9.314l-.241 2.134H4.51l.241-2.134h.025z" fill="#67C7C7"/>
    <path d="M4.802 9.314l-.241 2.134h-.025l.24-2.134h.026z" fill="#65C7C7"/>
    <path d="M4.827 9.314l-.241 2.134H4.56l.24-2.134h.026z" fill="#64C7C7"/>
    <path d="M4.852 9.314l-.241 2.134h-.025l.24-2.134h.026z" fill="#63C6C6"/>
    <path d="M4.877 9.314l-.241 2.134H4.61l.24-2.134h.026z" fill="#60C6C6"/>
    <path d="M4.902 9.314l-.241 2.134h-.025l.24-2.134h.026z" fill="#60C6C5"/>
    <path d="M4.926 9.314l-.24 2.134H4.66l.24-2.134h.026z" fill="#5FC6C5"/>
    <path d="M4.952 9.314l-.242 2.134h-.024l.24-2.134h.026z" fill="#5CC5C4"/>
    <path d="M4.976 9.314l-.24 2.134H4.71l.242-2.134h.024z" fill="#5AC5C4"/>
    <path d="M5.001 9.314l-.24 2.134h-.026l.241-2.134h.025z" fill="#5AC5C4"/>
    <path d="M5.026 9.314l-.24 2.134H4.76l.241-2.134h.025z" fill="#57C4C4"/>
    <path d="M5.051 9.314l-.24 2.134h-.026l.241-2.134h.025z" fill="#58C4C3"/>
    <path d="M5.076 9.314l-.24 2.134H4.81l.241-2.134h.025z" fill="#55C4C3"/>
    <path d="M5.101 9.314l-.24 2.134h-.026l.241-2.134h.025z" fill="#53C3C2"/>
    <path d="M5.126 9.314l-.241 2.134H4.86l.241-2.134h.025z" fill="#52C3C2"/>
    <path d="M5.151 9.314l-.241 2.134h-.025l.241-2.134h.025z" fill="#50C3C2"/>
    <path d="M5.176 9.314l-.241 2.134H4.91l.241-2.134h.025z" fill="#50C1C0"/>
    <path d="M5.2 9.314l-.24 2.134h-.025l.241-2.134h.025z" fill="#4BC2C0"/>
    <path d="M5.226 9.314l-.241 2.134H4.96l.24-2.134h.026z" fill="#4CC1C0"/>
    <path d="M5.25 9.314l-.24 2.134h-.025l.24-2.134h.026z" fill="#47C1BE"/>
    <path d="M5.276 9.314l-.241 2.134H5.01l.24-2.134h.026z" fill="#46C0BE"/>
    <path d="M5.3 9.314l-.24 2.134h-.025l.24-2.134h.026z" fill="#43C0BE"/>
    <path d="M5.326 9.314l-.241 2.134H5.06l.24-2.134h.026z" fill="#40BFBD"/>
    <path d="M5.35 9.314l-.24 2.134h-.025l.24-2.134h.026z" fill="#3BBFBD"/>
    <path d="M5.375 9.314l-.24 2.134h-.026l.242-2.134h.024z" fill="#39BFBC"/>
    <path d="M5.4 9.314l-.24 2.134h-.026l.241-2.134H5.4z" fill="#34BEBD"/>
    <path d="M5.425 9.314l-.24 2.134h-.026L5.4 9.314h.025z" fill="#32BEBB"/>
    <path d="M5.45 9.314l-.24 2.134h-.026l.241-2.134h.025z" fill="#2DBDBB"/>
    <path d="M5.475 9.314l-.24 2.134h-.026l.241-2.134h.025z" fill="#24BCBB"/>
    <path d="M5.5 9.314l-.24 2.134h-.026l.241-2.134H5.5z" fill="#21BCB9"/>
    <path d="M5.525 9.314l-.241 2.134h-.025L5.5 9.314h.025z" fill="#18BBB9"/>
    <path d="M5.55 9.314l-.241 2.134h-.025l.241-2.134h.025z" fill="#0FBAB9"/>
    <path d="M5.575 9.314l-.241 2.134h-.025l.241-2.134h.025z" fill="#03BBB8"/>
    <path d="M5.6 9.314l-.241 2.134h-.025l.24-2.134H5.6z" fill="#06B8B6"/>
    <path d="M5.625 9.314l-.241 2.134h-.025l.24-2.134h.026z" fill="#06B8B6"/>
    <path d="M5.65 9.314l-.241 2.134h-.025l.24-2.134h.026z" fill="#03B7B5"/>
    <path d="M5.675 9.314l-.241 2.134h-.025l.24-2.134h.026z" fill="#04B7B4"/>
    <path d="M5.7 9.314l-.241 2.134h-.025l.24-2.134H5.7z" fill="#00B6B5"/>
    <path d="M5.725 9.314l-.241 2.134h-.025l.24-2.134h.026z" fill="#03B6B4"/>
    <path d="M5.75 9.314l-.242 2.134h-.024l.24-2.134h.025z" fill="#05B6B2"/>
    <path d="M5.774 9.314l-.24 2.134h-.025l.24-2.134h.025z" fill="#01B5B1"/>
    <path d="M5.8 9.314l-.242 2.134h-.025l.241-2.134H5.8z" fill="#01B5B1"/>
    <path d="M5.824 9.314l-.24 2.134h-.026L5.8 9.314h.025z" fill="#00B4B1"/>
    <path d="M5.85 9.314l-.242 2.134h-.025l.241-2.134h.025z" fill="#00B3B0"/>
    <path d="M5.874 9.314l-.24 2.134h-.026l.241-2.134h.025z" fill="#00B3B0"/>
    <path d="M5.899 9.314l-.241 2.134h-.025l.241-2.134H5.9z" fill="#00B2AF"/>
    <path d="M5.924 9.314l-.241 2.134h-.025L5.9 9.314h.025z" fill="#00B2AE"/>
    <path d="M5.949 9.314l-.241 2.134h-.025l.241-2.134h.025z" fill="#00B1AE"/>
    <path d="M5.974 9.314l-.241 2.134h-.025l.24-2.134h.026z" fill="#00B1AD"/>
    <path d="M5.999 9.314l-.241 2.134h-.025l.241-2.134h.025z" fill="#00B0AC"/>
    <path d="M6.024 9.314l-.241 2.134h-.025l.24-2.134h.026z" fill="#00AFAC"/>
    <path d="M6.428 9.314l.014.002v2.132h-.66l.242-2.134h.404z" fill="#00AFAC"/>
    <path d="M8.916 10.108L8.9 9.743h.017v.365z" fill="#75CACA"/>
    <path d="M8.916 10.492l-.035-.75H8.9l.017.366v.384zM8.916 10.876l-.053-1.133h.018l.035.75v.383z" fill="#74CBCA"/>
    <path d="M8.904 10.994l-.058-1.251h.017l.053 1.133v.118h-.012z" fill="#73CBCA"/>
    <path d="M8.886 10.994l-.058-1.251h.017l.059 1.25h-.018zm-.018 0L8.81 9.743h.018l.058 1.25h-.018z" fill="#72C9C9"/>
    <path d="M8.85 10.994l-.058-1.251h.018l.058 1.25H8.85z" fill="#70CACA"/>
    <path d="M8.832 10.994l-.058-1.251h.018l.058 1.25h-.018z" fill="#6FCAC8"/>
    <path d="M8.814 10.994l-.058-1.251h.018l.058 1.25h-.018z" fill="#6EC8C8"/>
    <path d="M8.796 10.994l-.058-1.251h.018l.058 1.25h-.018z" fill="#6EC8C8"/>
    <path d="M8.779 10.994L8.72 9.743h.018l.058 1.25H8.78z" fill="#6CC9C9"/>
    <path d="M8.76 10.994l-.058-1.251h.018l.058 1.25h-.017z" fill="#6DC9C8"/>
    <path d="M8.743 10.994l-.059-1.251h.018l.059 1.25h-.018z" fill="#69C7C8"/>
    <path d="M8.725 10.994l-.058-1.251h.017l.059 1.25h-.018z" fill="#69C7C8"/>
    <path d="M8.707 10.994l-.058-1.251h.018l.058 1.25h-.018z" fill="#69C8C7"/>
    <path d="M8.69 10.994l-.06-1.251h.019l.058 1.25h-.018z" fill="#68C8C7"/>
    <path d="M8.671 10.994l-.058-1.251h.018l.058 1.25h-.018z" fill="#67C7C7"/>
    <path d="M8.653 10.994l-.058-1.251h.018l.058 1.25h-.018z" fill="#65C7C7"/>
    <path d="M8.635 10.994l-.058-1.251h.018l.058 1.25h-.018z" fill="#64C7C7"/>
    <path d="M8.617 10.994L8.56 9.743h.018l.058 1.25h-.018z" fill="#63C6C6"/>
    <path d="M8.6 10.994L8.54 9.743h.018l.059 1.25H8.6z" fill="#60C6C6"/>
    <path d="M8.582 10.994l-.058-1.251h.017l.059 1.25h-.018z" fill="#60C6C5"/>
    <path d="M8.564 10.994l-.058-1.251h.018l.058 1.25h-.018z" fill="#5FC6C5"/>
    <path d="M8.546 10.994l-.058-1.251h.018l.058 1.25h-.018z" fill="#5FC6C5"/>
    <path d="M8.528 10.994L8.47 9.743h.018l.058 1.25h-.018z" fill="#5CC5C4"/>
    <path d="M8.51 10.994l-.058-1.251h.018l.058 1.25H8.51z" fill="#5AC5C4"/>
    <path d="M8.492 10.994l-.058-1.251h.018l.058 1.25h-.018z" fill="#5AC5C4"/>
    <path d="M8.474 10.994l-.058-1.251h.018l.058 1.25h-.018z" fill="#57C4C4"/>
    <path d="M8.457 10.994l-.059-1.251h.018l.058 1.25h-.017z" fill="#58C4C3"/>
    <path d="M8.439 10.994L8.38 9.743h.018l.059 1.25h-.018z" fill="#55C4C3"/>
    <path d="M8.42 10.994l-.057-1.251h.018l.058 1.25H8.42zm-.017 0l-.058-1.251h.018l.058 1.25h-.018z" fill="#53C3C2"/>
    <path d="M8.385 10.994l-.058-1.251h.018l.058 1.25h-.018z" fill="#52C3C2"/>
    <path d="M8.367 10.994L8.31 9.743h.018l.058 1.25h-.018z" fill="#50C3C2"/>
    <path d="M8.35 10.994L8.29 9.743h.018l.058 1.25H8.35z" fill="#50C1C0"/>
    <path d="M8.331 10.994l-.058-1.251h.018l.058 1.25h-.018z" fill="#4DC2C1"/>
    <path d="M8.314 10.994l-.059-1.251h.018l.058 1.25h-.017z" fill="#4CC2C0"/>
    <path d="M8.296 10.994l-.059-1.251h.018l.058 1.25h-.017z" fill="#4BC0BF"/>
    <path d="M8.278 10.994l-.059-1.251h.018l.059 1.25h-.018z" fill="#47C1BE"/>
    <path d="M8.26 10.994l-.058-1.251h.017l.059 1.25H8.26z" fill="#46C0BE"/>
    <path d="M8.242 10.994l-.058-1.251h.018l.058 1.25h-.018z" fill="#43C0BE"/>
    <path d="M8.224 10.994l-.058-1.251h.018l.058 1.25h-.018z" fill="#41C0BE"/>
    <path d="M8.206 10.994l-.058-1.251h.018l.058 1.25h-.018z" fill="#40BFBD"/>
    <path d="M8.188 10.994L8.13 9.743h.018l.058 1.25h-.018z" fill="#3BBFBD"/>
    <path d="M8.17 10.994l-.058-1.251h.018l.058 1.25H8.17z" fill="#3CBFBC"/>
    <path d="M8.152 10.994l-.058-1.251h.018l.058 1.25h-.018z" fill="#39BFBC"/>
    <path d="M8.135 10.994l-.059-1.251h.018l.058 1.25h-.017z" fill="#34BEBD"/>
    <path d="M8.117 10.994l-.059-1.251h.018l.059 1.25h-.018z" fill="#32BEBB"/>
    <path d="M8.099 10.994L8.04 9.743h.017l.059 1.25h-.018z" fill="#2FBEBC"/>
    <path d="M8.081 10.994l-.058-1.251h.018l.058 1.25H8.08z" fill="#2DBDBB"/>
    <path d="M8.063 10.994l-.058-1.251h.018l.058 1.25h-.018z" fill="#2BBDBA"/>
    <path d="M8.045 10.994l-.058-1.251h.018l.058 1.25h-.018z" fill="#24BCBB"/>
    <path d="M8.027 10.994L7.97 9.743h.018l.058 1.25h-.018z" fill="#21BCB9"/>
    <path d="M8.01 10.994L7.95 9.743h.018l.058 1.25H8.01z" fill="#18BBB9"/>
    <path d="M7.992 10.994l-.059-1.251h.018l.058 1.25h-.017z" fill="#16BAB9"/>
    <path d="M7.974 10.994l-.059-1.251h.018l.059 1.25h-.018z" fill="#11BAB7"/>
    <path d="M7.956 10.994l-.059-1.251h.018l.059 1.25h-.018z" fill="#03BBB8"/>
    <path d="M7.938 10.994L7.88 9.743h.017l.059 1.25h-.018z" fill="#06B8B6"/>
    <path d="M7.92 10.994l-.058-1.251h.018l.058 1.25H7.92z" fill="#06B8B6"/>
    <path d="M7.902 10.994l-.058-1.251h.018l.058 1.25h-.018z" fill="#06B8B6"/>
    <path d="M7.884 10.994l-.058-1.251h.018l.058 1.25h-.018z" fill="#00B7B6"/>
    <path d="M7.866 10.994l-.058-1.251h.018l.058 1.25h-.018z" fill="#03B7B5"/>
    <path d="M7.848 10.994L7.79 9.743h.018l.058 1.25h-.018z" fill="#04B7B4"/>
    <path d="M7.83 10.994l-.058-1.251h.018l.058 1.25H7.83z" fill="#00B6B5"/>
    <path d="M7.813 10.994l-.059-1.251h.018l.059 1.25h-.018z" fill="#00B6B5"/>
    <path d="M7.795 10.994l-.059-1.251h.018l.059 1.25h-.018z" fill="#00B6B5"/>
    <path d="M7.777 10.994l-.058-1.251h.018l.058 1.25h-.018zm-.018 0l-.058-1.251h.018l.058 1.25h-.018z" fill="#03B6B4"/>
    <path d="M7.741 10.994l-.058-1.251H7.7l.058 1.25h-.018z" fill="#05B6B2"/>
    <path d="M7.724 10.994l-.058-1.251h.018l.058 1.25h-.018zM7.705 10.994l-.04-.869v-.382l.058 1.25h-.018zm-.018 0l-.022-.485v-.384l.04.869h-.018z" fill="#01B5B1"/>
    <path d="M7.67 10.994l-.005-.1v-.385l.022.485H7.67z" fill="#00B4B1"/>
    <path d="M7.665 10.893l.005.1h-.005v-.1z" fill="#00B4B1"/>
    <path d="M5.419 9.736l-.644.648.649.644.548-.002-.575-.57 2.84-.011-.25.25h.275l.322-.325-.324-.322-.274.001.25.25-2.84.01.571-.575-.548.002z" fill="#244B5A"/>
  </g>
  <defs>
    <clipPath id="clip0">
      <path fill="#fff" d="M4 9h16v6.857H4z"/>
    </clipPath>
  </defs>
</svg>
