<svg width="24" height="24" fill="none" xmlns="http://www.w3.org/2000/svg">
  <path d="M9.889 10c.556-.002 1.126.157 1.558.517.222.18.4.404.553.644.273-.442.673-.818 1.165-.999.6-.225 1.279-.21 1.878.011.523.191.98.524 1.396.89.325.287.625.6.96.876.176.143.365.277.582.351a.812.812 0 00.834-.216.551.551 0 00-.031-.756c-.134-.115-.362-.092-.457.061-.082.122-.036.274.029.392-.172-.126-.345-.3-.344-.53-.036-.263.16-.496.395-.588.458-.184 1.032-.026 1.321.377.278.377.3.871.252 1.32a1.579 1.579 0 01-.65 1.07c-.496.353-1.124.463-1.721.455a4.85 4.85 0 01-1.676-.36c-.89-.358-1.723-.853-2.643-1.139a3.17 3.17 0 00-.955-.202c-.26-.001-.506-.013-.75.003-.3.029-.597.09-.877.2-.935.29-1.78.798-2.688 1.156-.766.298-1.615.437-2.428.271-.454-.092-.907-.293-1.214-.651a1.632 1.632 0 01-.376-1.112c-.015-.377.068-.777.317-1.07a1.14 1.14 0 01.964-.39c.23.012.465.112.607.298.113.147.12.349.07.52a.832.832 0 01-.317.369c.068-.116.11-.268.029-.389-.1-.161-.345-.177-.475-.045a.557.557 0 00-.086.634c.116.212.356.332.59.357.352.03.657-.188.916-.4.535-.46 1.017-.988 1.61-1.378.49-.328 1.067-.55 1.662-.547z" fill="#423426"/>
</svg>
