<svg width="24" height="24" fill="none" xmlns="http://www.w3.org/2000/svg">
  <path d="M14.767 12.854c-.622 0-1.18.276-1.563.71l-.98-.693c.105-.286.165-.593.165-.915 0-.316-.058-.618-.159-.9l.977-.686c.383.432.94.706 1.56.706 1.15 0 2.084-.935 2.084-2.084 0-1.15-.935-2.084-2.084-2.084a2.086 2.086 0 00-1.997 2.676l-.978.686a2.69 2.69 0 00-1.667-.968V8.123a2.087 2.087 0 001.656-2.039C11.78 4.934 10.846 4 9.697 4a2.086 2.086 0 00-2.084 2.084c0 .989.693 1.817 1.618 2.03v1.193a2.694 2.694 0 00-2.226 2.649c0 1.332.973 2.437 2.244 2.652v1.26a2.087 2.087 0 00-1.636 2.034c0 1.15.935 2.084 2.084 2.084a2.086 2.086 0 002.084-2.084c0-.995-.702-1.829-1.637-2.034v-1.26a2.691 2.691 0 001.639-.954l.985.698a2.086 2.086 0 001.999 2.67c1.15 0 2.084-.934 2.084-2.084 0-1.149-.935-2.084-2.084-2.084zm0-4.872a1.012 1.012 0 010 2.02 1.011 1.011 0 010-2.02zm-6.08-1.898a1.012 1.012 0 012.02 0 1.012 1.012 0 01-2.02 0zm2.02 11.818a1.012 1.012 0 01-2.02 0 1.012 1.012 0 012.02 0zm-1.01-4.537a1.41 1.41 0 01-1.41-1.41 1.41 1.41 0 012.819 0 1.41 1.41 0 01-1.41 1.41zm5.07 2.584a1.012 1.012 0 010-2.02 1.012 1.012 0 010 2.02z" fill="#000"/>
</svg>
