<svg width="24" height="24" fill="none" xmlns="http://www.w3.org/2000/svg">
  <path d="M12.422 19.924l-.423-.145s.051-2.158-.723-2.313c-.516-.599.083-25.4 1.941-.083 0 0-.64.32-.754.868-.124.537-.041 1.672-.041 1.672z" fill="#fff"/>
  <path d="M12.422 19.924l-.423-.145s.051-2.158-.723-2.313c-.516-.599.083-25.4 1.941-.083 0 0-.64.32-.754.868-.124.537-.041 1.672-.041 1.672z" fill="#A6A385"/>
  <path d="M12.65 17.838s3.706-2.437 2.839-7.507c-.837-3.686-2.809-4.894-3.026-5.358-.237-.33-.464-.909-.464-.909l.155 10.253c0 .01-.32 3.139.495 3.521" fill="#fff"/>
  <path d="M12.65 17.838s3.706-2.437 2.839-7.507c-.837-3.686-2.809-4.894-3.026-5.358-.237-.33-.464-.909-.464-.909l.155 10.253c0 .01-.32 3.139.495 3.521" fill="#499D4A"/>
  <path d="M11.782 17.972s-3.48-2.375-3.273-6.556c.196-4.182 2.653-6.237 3.128-6.609.31-.33.32-.454.341-.784.217.464.176 6.949.207 7.713.092 2.942-.166 5.679-.403 6.236z" fill="#fff"/>
  <path d="M11.782 17.972s-3.48-2.375-3.273-6.556c.196-4.182 2.653-6.237 3.128-6.609.31-.33.32-.454.341-.784.217.464.176 6.949.207 7.713.092 2.942-.166 5.679-.403 6.236z" fill="#58AA50"/>
</svg>
