<svg width="24" height="24" fill="none" xmlns="http://www.w3.org/2000/svg">
  <path d="M19.938 13.58c-.096-.28-.347-.477-.672-.524a1.586 1.586 0 00-.537.029c-.362.072-.63.1-.826.105.74-1.211 1.341-2.592 1.687-3.893.56-2.102.261-3.06-.088-3.493-.926-1.147-2.276-1.763-3.905-1.782a7.119 7.119 0 00-2.03.276 7.787 7.787 0 00-1.187-.105c-.783-.012-1.476.153-2.067.494a9.668 9.668 0 00-1.46-.356c-1.428-.227-2.578-.05-3.42.527-1.02.698-1.492 1.91-1.404 3.605.028.537.338 2.174.826 3.726.281.892.58 1.632.89 2.201.44.807.91 1.283 1.437 1.453.295.096.833.163 1.398-.294.071.085.167.168.294.246.16.098.358.179.554.226.71.172 1.373.13 1.94-.112l.008.272.013.379c.033.81.09 1.44.259 1.882l.034.1c.084.25.225.667.582.995.37.338.819.443 1.229.443.206 0 .402-.027.574-.063.614-.127 1.311-.321 1.815-1.018.477-.658.709-1.65.75-3.211l.016-.127.01-.082.112.01.03.001c.624.028 1.389-.1 1.858-.312.371-.167 1.56-.776 1.28-1.597z" fill="#000"/>
  <path d="M18.87 13.74c-1.86.372-1.988-.238-1.988-.238 1.963-2.824 2.783-6.408 2.075-7.285-1.931-2.393-5.274-1.262-5.33-1.232l-.018.003a6.829 6.829 0 00-1.24-.125c-.841-.014-1.48.213-1.963.57 0 0-5.965-2.383-5.687 2.996.059 1.144 1.691 8.659 3.638 6.39.712-.83 1.4-1.533 1.4-1.533.341.22.75.333 1.179.292l.033-.027c-.01.103-.006.204.013.323-.501.544-.354.639-1.357.84-1.014.202-.418.563-.03.657.473.115 1.564.277 2.302-.724l-.03.114c.197.153.335.993.312 1.755-.023.761-.039 1.284.116 1.693.155.408.31 1.327 1.627 1.053 1.102-.229 1.673-.822 1.752-1.811.056-.704.184-.6.192-1.228l.102-.298c.118-.954.02-1.261.698-1.118l.165.014c.499.022 1.153-.078 1.536-.251.827-.372 1.317-.992.502-.83z" fill="#336791"/>
  <path d="M10.755 8.94c-.168-.022-.32-.001-.396.055a.14.14 0 00-.06.094c-.01.067.038.141.068.18a.52.52 0 00.329.198.388.388 0 00.052.004c.203 0 .388-.154.404-.267.02-.141-.192-.236-.397-.263zm5.549.005c-.016-.11-.22-.142-.413-.116-.193.026-.38.11-.365.221.013.087.174.235.364.235a.473.473 0 00.314-.144c.068-.07.107-.146.1-.196z" fill="#fff"/>
  <path d="M19.488 13.698c-.071-.207-.3-.274-.678-.199-1.126.226-1.529.07-1.661-.025.875-1.292 1.594-2.854 1.982-4.311.184-.69.286-1.332.294-1.854.01-.574-.091-.995-.3-1.252-.837-1.038-2.066-1.595-3.554-1.61-1.023-.012-1.888.242-2.055.314a5.273 5.273 0 00-1.157-.144c-.768-.012-1.431.166-1.981.53a9.068 9.068 0 00-1.61-.41c-1.305-.204-2.342-.05-3.081.459-.883.606-1.29 1.69-1.212 3.222.027.515.33 2.1.808 3.618.628 1.998 1.312 3.129 2.031 3.361a.936.936 0 00.289.046c.262 0 .584-.114.918-.504.409-.475.83-.939 1.267-1.39.282.147.593.23.91.238l.003.024a7.18 7.18 0 00-.16.192c-.22.271-.267.328-.975.47-.202.04-.737.146-.745.51-.008.398.633.565.706.583.255.061.5.092.734.092.569 0 1.07-.181 1.47-.532-.013 1.417.048 2.814.224 3.24.143.348.495 1.199 1.604 1.199.162 0 .341-.019.539-.06 1.157-.24 1.66-.736 1.854-1.83.104-.585.283-1.98.367-2.73.177.054.405.079.652.079.514 0 1.108-.106 1.48-.274.419-.188 1.174-.65 1.037-1.052zm-2.757-5.06a4.414 4.414 0 01-.068.632 5.641 5.641 0 00-.083.74c-.009.276.027.562.06.839.07.559.141 1.134-.134 1.701a2.187 2.187 0 01-.122-.242 4.704 4.704 0 00-.21-.389c-.4-.695-1.337-2.324-.858-2.988.143-.198.505-.402 1.415-.292zm-1.103-3.744c1.334.029 2.388.512 3.135 1.438.573.71-.058 3.94-1.884 6.725a11.695 11.695 0 00-.055-.068l-.023-.028c.472-.755.38-1.503.297-2.165-.033-.272-.065-.53-.057-.77.008-.256.043-.476.077-.688.041-.261.083-.532.072-.85a.341.341 0 00.007-.12c-.03-.306-.39-1.221-1.123-2.05a5.047 5.047 0 00-1.786-1.302c.344-.069.814-.133 1.34-.122zm-7.46 9.759c-.37.43-.624.348-.708.32-.546-.176-1.179-1.294-1.737-3.068-.483-1.534-.765-3.077-.788-3.51-.07-1.368.272-2.322 1.017-2.834 1.213-.834 3.207-.335 4.008-.082l-.035.033C8.61 6.799 8.642 8.999 8.645 9.133c0 .052.004.126.01.227.023.37.065 1.059-.047 1.838a2.28 2.28 0 00.795 2.096c-.225.234-.715.751-1.236 1.359zm1.404-1.818a1.845 1.845 0 01-.508-1.575 9.228 9.228 0 00.051-1.927l-.008-.138c.192-.165 1.082-.628 1.717-.487.29.065.466.256.54.585.38 1.703.05 2.413-.215 2.984a5.404 5.404 0 00-.15.343l-.034.089a5.713 5.713 0 00-.217.632 1.662 1.662 0 01-1.176-.506zm.067 2.297a1.033 1.033 0 01-.308-.128c.056-.025.155-.06.328-.094.833-.167.962-.284 1.243-.63.065-.08.138-.17.239-.28.15-.163.22-.135.345-.085.1.04.2.164.24.3.018.063.04.185-.03.28-.587.797-1.443.786-2.057.637zM14 19.07c-1.02.212-1.38-.293-1.619-.87-.153-.372-.229-2.051-.175-3.906a.216.216 0 00-.01-.07.914.914 0 00-.535-.72c-.093-.038-.262-.106-.466-.055.043-.174.119-.37.2-.583l.035-.09c.038-.1.087-.205.138-.315.277-.597.657-1.415.245-3.261-.155-.692-.67-1.03-1.45-.952a3.421 3.421 0 00-1.238.401c.06-.697.285-2 1.128-2.823.53-.52 1.237-.775 2.098-.762 1.696.027 2.784.871 3.398 1.575.529.606.815 1.217.93 1.546-.86-.085-1.445.08-1.741.49-.645.894.352 2.63.832 3.463.088.153.164.285.188.34.156.368.358.613.505.792.046.054.09.107.123.154-.26.073-.728.24-.686 1.082a60.507 60.507 0 01-.403 3.094c-.164.922-.513 1.265-1.497 1.47zm4.257-4.724c-.267.12-.712.21-1.136.23-.467.02-.705-.051-.761-.096-.026-.524.175-.578.388-.636.033-.01.066-.018.097-.029a.79.79 0 00.065.046c.375.24 1.046.266 1.992.077l.01-.002a2.554 2.554 0 01-.655.41z" fill="#fff"/>
</svg>
