<svg width="24" height="24" fill="none" xmlns="http://www.w3.org/2000/svg">
  <path d="M19.297 15.896c-.845.437-5.219 2.225-6.15 2.708-.931.483-1.449.478-2.185.128s-5.391-2.218-6.23-2.617c-.419-.2-.639-.367-.639-.526V14s6.06-1.311 7.039-1.66c.979-.35 1.318-.362 2.15-.059.834.304 5.812 1.197 6.636 1.496l-.001 1.568c0 .157-.19.33-.62.552z" fill="#A41E11"/>
  <path d="M19.297 14.305c-.845.438-5.219 2.226-6.15 2.709-.931.482-1.449.478-2.185.128s-5.391-2.22-6.23-2.617c-.838-.399-.856-.673-.032-.994.824-.32 5.453-2.126 6.432-2.475.979-.349 1.318-.361 2.15-.058.834.303 5.182 2.024 6.005 2.323.823.3.855.547.01.984z" fill="#D82C20"/>
  <path d="M19.297 13.303c-.845.438-5.219 2.225-6.15 2.708-.931.483-1.449.478-2.185.129-.736-.35-5.391-2.22-6.23-2.618-.419-.199-.639-.367-.639-.525v-1.59s6.06-1.312 7.039-1.66c.979-.35 1.318-.362 2.15-.06.834.304 5.812 1.197 6.636 1.496l-.001 1.568c0 .157-.19.33-.62.552z" fill="#A41E11"/>
  <path d="M19.297 11.713c-.845.437-5.219 2.225-6.15 2.708-.931.483-1.449.478-2.185.128s-5.391-2.219-6.23-2.617c-.838-.398-.856-.673-.032-.993.824-.32 5.453-2.127 6.432-2.475.979-.35 1.318-.362 2.15-.059.834.303 5.182 2.024 6.005 2.323.823.3.855.547.01.985z" fill="#D82C20"/>
  <path d="M19.297 10.614c-.845.438-5.219 2.226-6.15 2.709-.931.482-1.449.477-2.185.128-.736-.35-5.391-2.22-6.23-2.617-.418-.2-.638-.368-.638-.526v-1.59s6.06-1.312 7.038-1.66c.979-.35 1.319-.362 2.151-.059.833.303 5.812 1.196 6.635 1.495v1.568c0 .157-.19.33-.62.552h-.001z" fill="#A41E11"/>
  <path d="M19.297 9.024c-.845.437-5.219 2.225-6.15 2.708-.931.483-1.449.478-2.185.128s-5.391-2.218-6.23-2.617c-.837-.398-.855-.673-.032-.993.824-.32 5.453-2.126 6.432-2.475.979-.35 1.318-.362 2.15-.059.834.304 5.182 2.024 6.005 2.324.823.3.855.546.01.984z" fill="#D82C20"/>
  <path d="M14.079 7.492l-1.372.142-.307.734-.495-.819-1.583-.142 1.18-.423-.354-.65 1.107.43 1.042-.34-.282.672 1.063.396zm-1.76 3.562l-2.56-1.055 3.668-.56-1.108 1.615zM8.77 9.41c1.083 0 1.96-.337 1.96-.754S9.853 7.9 8.77 7.9c-1.082 0-1.96.338-1.96.755s.878.755 1.96.755z" fill="#fff"/>
  <path d="M15.7 7.693l2.17.853-2.169.851-.002-1.704z" fill="#7A0C00"/>
  <path d="M13.298 8.637l2.401-.944.002 1.704-.235.092-2.168-.852z" fill="#AD2115"/>
</svg>
