<svg fill="#0077CC" width="18" height="18" viewBox="0 0 18 18" xmlns="http://www.w3.org/2000/svg" class="euiIcon euiIcon--medium" focusable="false" role="img" aria-hidden="true"><g fill-rule="evenodd"><path d="M13.689 11.132c1.155 1.222 1.953 2.879 2.183 4.748a1.007 1.007 0 01-1 1.12H3.007a1.005 1.005 0 01-1-1.12c.23-1.87 1.028-3.526 2.183-4.748.247.228.505.442.782.633-1.038 1.069-1.765 2.55-1.972 4.237L14.872 16c-.204-1.686-.93-3.166-1.966-4.235a7.01 7.01 0 00.783-.633zM8.939 1c1.9 0 3 2 4.38 2.633a2.483 2.483 0 01-1.88.867c-.298 0-.579-.06-.844-.157A3.726 3.726 0 017.69 5.75c-1.395 0-3.75.25-3.245-1.903C5.94 3 6.952 1 8.94 1z"></path><path d="M8.94 2c2.205 0 4 1.794 4 4s-1.795 4-4 4c-2.207 0-4-1.794-4-4s1.793-4 4-4m0 9A5 5 0 108.937.999 5 5 0 008.94 11"></path></g></svg>
