<svg width="450" height="285" viewBox="0 0 450 285" fill="none" xmlns="http://www.w3.org/2000/svg">
<g clip-path="url(#clip0)">
<rect width="450" height="286.602" fill="url(#paint0_linear)"/>
<g clip-path="url(#clip1)">
<path fill-rule="evenodd" clip-rule="evenodd" d="M107.704 82.838C96.7494 82.838 87.838 91.7494 87.838 102.704C87.838 113.659 96.7494 122.57 107.704 122.57C118.659 122.57 127.57 113.659 127.57 102.704C127.57 91.7494 118.659 82.838 107.704 82.838ZM107.704 125.408C95.1857 125.408 85 115.223 85 102.704C85 90.1857 95.1857 80 107.704 80C120.223 80 130.408 90.1857 130.408 102.704C130.408 115.223 120.223 125.408 107.704 125.408Z" fill="white"/>
<path fill-rule="evenodd" clip-rule="evenodd" d="M124.732 102.704H121.894C121.894 94.8798 115.529 88.5141 107.704 88.5141C99.8797 88.5141 93.5141 94.8798 93.5141 102.704H90.676C90.676 93.3146 98.3146 85.6761 107.704 85.6761C117.094 85.6761 124.732 93.3146 124.732 102.704Z" fill="#00BFB3"/>
<path fill-rule="evenodd" clip-rule="evenodd" d="M107.704 105.542C106.139 105.542 104.866 104.269 104.866 102.704C104.866 101.139 106.139 99.8662 107.704 99.8662C109.269 99.8662 110.542 101.139 110.542 102.704C110.542 104.269 109.269 105.542 107.704 105.542ZM115.802 96.6124L113.796 94.6059L110.569 97.8313C109.725 97.3347 108.754 97.0282 107.704 97.0282C104.574 97.0282 102.028 99.5739 102.028 102.704C102.028 105.835 104.574 108.38 107.704 108.38C110.834 108.38 113.38 105.835 113.38 102.704C113.38 101.656 113.075 100.684 112.576 99.8378L115.802 96.6124Z" fill="white"/>
</g>
<g clip-path="url(#clip2)">
<path fill-rule="evenodd" clip-rule="evenodd" d="M207.423 101.053C205.899 99.262 204.562 97.3648 204.274 95.1426C203.862 91.9768 205.103 88.679 207.511 86.5392C209.476 84.7923 212.01 83.8955 214.631 84.0687C216.716 84.1907 218.658 84.9612 220.231 86.2355L222.082 84.0928C220.025 82.4027 217.505 81.3938 214.797 81.2349C211.411 81.0561 208.156 82.1672 205.625 84.4191C202.524 87.1749 200.928 91.4234 201.46 95.5087C201.866 98.6306 203.684 101.076 205.547 103.224L207.423 101.053Z" fill="#00BFB3"/>
<path fill-rule="evenodd" clip-rule="evenodd" d="M211.733 105.526L224.084 119.967L239.507 102.422C241.441 100.223 243.634 97.7296 243.908 94.7113C244.18 91.7115 242.924 88.5798 240.63 86.5392C238.664 84.7924 236.129 83.9112 233.509 84.0702C230.883 84.2234 228.473 85.3927 226.725 87.358L211.733 105.526ZM224.056 124.298L208.026 105.558L224.569 85.5119C226.855 82.9406 229.959 81.4351 233.342 81.2364C236.727 81.0377 239.983 82.1673 242.515 84.4192C245.47 87.0458 247.086 91.0872 246.734 94.9682C246.377 98.9088 243.749 101.896 241.639 104.297L224.056 124.298Z" fill="white"/>
</g>
<path d="M319.137 104.123V101.285H361.707V104.123H319.137Z" fill="#00BFB3"/>
<path d="M339.003 81.419H341.841V123.989H339.003V81.419Z" fill="#00BFB3"/>
<path d="M321.975 84.257V98.4472H319.137V81.419H336.165V84.257H321.975Z" fill="white"/>
<path d="M358.869 84.257H344.679V81.419H361.707V98.4472H358.869V84.257Z" fill="white"/>
<path d="M321.975 121.151H336.165V123.989H319.137V106.961H321.975V121.151Z" fill="white"/>
<path d="M358.869 106.961H361.707V123.989H344.679V121.151H358.869V106.961Z" fill="white"/>
<g clip-path="url(#clip3)">
<path fill-rule="evenodd" clip-rule="evenodd" d="M109.123 179.331C107.558 179.331 106.285 180.604 106.285 182.169C106.285 183.734 107.558 185.007 109.123 185.007C110.688 185.007 111.961 183.734 111.961 182.169C111.961 180.604 110.688 179.331 109.123 179.331ZM109.123 187.845C105.993 187.845 103.447 185.299 103.447 182.169C103.447 179.039 105.993 176.493 109.123 176.493C112.253 176.493 114.799 179.039 114.799 182.169C114.799 185.299 112.253 187.845 109.123 187.845Z" fill="#00BFB3"/>
<path fill-rule="evenodd" clip-rule="evenodd" d="M92.095 167.979C90.5298 167.979 89.257 166.706 89.257 165.141C89.257 163.576 90.5298 162.303 92.095 162.303C93.6602 162.303 94.933 163.576 94.933 165.141C94.933 166.706 93.6602 167.979 92.095 167.979ZM97.771 165.141C97.771 162.01 95.2253 159.465 92.095 159.465C88.9647 159.465 86.4189 162.01 86.4189 165.141C86.4189 168.271 88.9647 170.817 92.095 170.817C93.1436 170.817 94.1171 170.51 94.9614 170.014L102.444 177.496L104.45 175.49L96.9679 168.007C97.4645 167.163 97.771 166.189 97.771 165.141Z" fill="white"/>
<path fill-rule="evenodd" clip-rule="evenodd" d="M126.151 162.303C127.716 162.303 128.989 163.576 128.989 165.141C128.989 166.706 127.716 167.979 126.151 167.979C124.586 167.979 123.313 166.706 123.313 165.141C123.313 163.576 124.586 162.303 126.151 162.303ZM115.802 177.496L123.285 170.014C124.129 170.51 125.103 170.817 126.151 170.817C129.282 170.817 131.827 168.271 131.827 165.141C131.827 162.01 129.282 159.465 126.151 159.465C123.021 159.465 120.475 162.01 120.475 165.141C120.475 166.189 120.782 167.163 121.278 168.007L113.796 175.49L115.802 177.496Z" fill="white"/>
<path fill-rule="evenodd" clip-rule="evenodd" d="M92.095 202.035C90.5298 202.035 89.257 200.762 89.257 199.197C89.257 197.632 90.5298 196.359 92.095 196.359C93.6602 196.359 94.933 197.632 94.933 199.197C94.933 200.762 93.6602 202.035 92.095 202.035ZM102.444 186.842L94.9614 194.324C94.1171 193.828 93.1436 193.521 92.095 193.521C88.9647 193.521 86.4189 196.067 86.4189 199.197C86.4189 202.327 88.9647 204.873 92.095 204.873C95.2253 204.873 97.771 202.327 97.771 199.197C97.771 198.148 97.4645 197.175 96.9679 196.331L104.45 188.848L102.444 186.842Z" fill="white"/>
<path fill-rule="evenodd" clip-rule="evenodd" d="M126.151 202.035C124.586 202.035 123.313 200.762 123.313 199.197C123.313 197.632 124.586 196.359 126.151 196.359C127.716 196.359 128.989 197.632 128.989 199.197C128.989 200.762 127.716 202.035 126.151 202.035ZM126.151 193.521C125.103 193.521 124.129 193.828 123.285 194.324L115.802 186.842L113.796 188.848L121.278 196.331C120.782 197.175 120.475 198.148 120.475 199.197C120.475 202.327 123.021 204.873 126.151 204.873C129.282 204.873 131.827 202.327 131.827 199.197C131.827 196.067 129.282 193.521 126.151 193.521Z" fill="white"/>
</g>
<g clip-path="url(#clip4)">
<path fill-rule="evenodd" clip-rule="evenodd" d="M239.608 194.875V192.167C242.772 192.167 245.348 189.591 245.348 186.426C245.348 184.059 243.917 181.966 241.704 181.096L240.671 180.689L240.866 179.596C241.018 178.749 241.091 177.965 241.091 177.203C241.091 169.733 235.014 163.657 227.546 163.657C221.273 163.657 215.865 167.919 214.392 174.023L214.168 174.958L213.209 175.053C208.807 175.488 205.488 179.158 205.488 183.588C205.488 188.318 209.336 192.167 214.066 192.167V194.875C207.842 194.875 202.777 189.812 202.777 183.588C202.777 178.078 206.682 173.462 212.002 172.49C214.066 165.649 220.329 160.949 227.546 160.949C236.509 160.949 243.801 168.239 243.801 177.203C243.801 177.804 243.763 178.41 243.687 179.04C246.374 180.513 248.058 183.307 248.058 186.426C248.058 191.085 244.266 194.875 239.608 194.875Z" fill="white"/>
<path fill-rule="evenodd" clip-rule="evenodd" d="M221.048 203.454H224.415L235.587 186.437H222.036L230.876 172.236H227.561L216.968 189.253H230.372L221.048 203.454Z" fill="#00BFB3"/>
</g>
<path d="M340.422 160.884H343.26V203.454H340.422V160.884Z" fill="#00BFB3"/>
<path d="M337.584 200.616V203.454H320.556V160.884H337.584V163.722H323.394V200.616H337.584Z" fill="white"/>
<path d="M360.288 163.722H346.098V160.884H363.126V203.454H346.098V200.616H360.288V163.722Z" fill="white"/>
</g>
<defs>
<linearGradient id="paint0_linear" x1="225" y1="221.5" x2="225" y2="286.602" gradientUnits="userSpaceOnUse">
<stop stop-color="#1D1E24"/>
<stop offset="1" stop-color="#151619"/>
</linearGradient>
<clipPath id="clip0">
<rect width="450" height="285" fill="white"/>
</clipPath>
<clipPath id="clip1">
<rect width="45.4084" height="45.4084" fill="white" transform="translate(85 80)"/>
</clipPath>
<clipPath id="clip2">
<rect width="45.4084" height="45.4084" fill="white" transform="translate(201.359 80)"/>
</clipPath>
<clipPath id="clip3">
<rect width="45.4084" height="45.4084" fill="white" transform="translate(86.4189 159.465)"/>
</clipPath>
<clipPath id="clip4">
<rect width="45.4084" height="45.4084" fill="white" transform="translate(202.778 159.465)"/>
</clipPath>
</defs>
</svg>
