<svg width="450" height="285" fill="none" xmlns="http://www.w3.org/2000/svg"><g clip-path="url(#clip0)"><path fill="url(#paint0_linear)" d="M0 0h450v286.602H0z"/><g clip-path="url(#clip1)" fill-rule="evenodd" clip-rule="evenodd"><path d="M107.704 82.838c-10.955 0-19.866 8.911-19.866 19.866s8.911 19.866 19.866 19.866 19.866-8.911 19.866-19.866-8.911-19.866-19.866-19.866zm0 42.57C95.186 125.408 85 115.223 85 102.704 85 90.186 95.186 80 107.704 80c12.519 0 22.704 10.186 22.704 22.704 0 12.519-10.185 22.704-22.704 22.704z" fill="white"/><path d="M124.732 102.704h-2.838c0-7.824-6.365-14.19-14.19-14.19-7.824 0-14.19 6.366-14.19 14.19h-2.838c0-9.39 7.639-17.028 17.028-17.028 9.39 0 17.028 7.639 17.028 17.028z" fill="#00BFB3"/><path d="M107.704 105.542a2.841 2.841 0 01-2.838-2.838 2.84 2.84 0 012.838-2.838 2.84 2.84 0 012.838 2.838 2.841 2.841 0 01-2.838 2.838zm8.098-8.93l-2.006-2.006-3.227 3.225a5.627 5.627 0 00-2.865-.803 5.682 5.682 0 00-5.676 5.676 5.681 5.681 0 005.676 5.676 5.681 5.681 0 005.676-5.676 5.62 5.62 0 00-.804-2.866l3.226-3.226z" fill="white"/></g><g clip-path="url(#clip2)" fill-rule="evenodd" clip-rule="evenodd"><path d="M207.423 101.053c-1.524-1.791-2.861-3.688-3.149-5.91-.412-3.166.829-6.464 3.237-8.604 1.965-1.747 4.499-2.644 7.12-2.47a9.778 9.778 0 015.6 2.166l1.851-2.142a12.585 12.585 0 00-7.285-2.858c-3.386-.179-6.641.932-9.172 3.184-3.101 2.756-4.697 7.004-4.165 11.09.406 3.122 2.224 5.567 4.087 7.715l1.876-2.171z" fill="#00BFB3"/><path d="M211.733 105.526l12.351 14.441 15.423-17.545c1.934-2.199 4.127-4.692 4.401-7.71.272-3-.984-6.132-3.278-8.173a9.775 9.775 0 00-7.121-2.469 9.786 9.786 0 00-6.784 3.288l-14.992 18.168zm12.323 18.772l-16.03-18.74 16.543-20.046c2.286-2.571 5.39-4.077 8.773-4.276 3.385-.198 6.641.931 9.173 3.183 2.955 2.627 4.571 6.668 4.219 10.55-.357 3.94-2.985 6.927-5.095 9.328l-17.583 20.001z" fill="white"/></g><path d="M319.137 104.123v-2.838h42.57v2.838h-42.57z" fill="#00BFB3"/><path d="M339.003 81.419h2.838v42.57h-2.838v-42.57z" fill="#00BFB3"/><path d="M321.975 84.257v14.19h-2.838V81.42h17.028v2.838h-14.19zM358.869 84.257h-14.19v-2.838h17.028v17.028h-2.838v-14.19zM321.975 121.151h14.19v2.838h-17.028v-17.028h2.838v14.19zM358.869 106.961h2.838v17.028h-17.028v-2.838h14.19v-14.19z" fill="white"/><g clip-path="url(#clip3)" fill-rule="evenodd" clip-rule="evenodd"><path d="M109.123 179.331a2.841 2.841 0 00-2.838 2.838 2.841 2.841 0 002.838 2.838 2.841 2.841 0 002.838-2.838 2.841 2.841 0 00-2.838-2.838zm0 8.514a5.682 5.682 0 01-5.676-5.676 5.682 5.682 0 015.676-5.676 5.682 5.682 0 015.676 5.676 5.682 5.682 0 01-5.676 5.676z" fill="#00BFB3"/><path d="M92.095 167.979a2.84 2.84 0 01-2.838-2.838 2.84 2.84 0 012.838-2.838 2.84 2.84 0 012.838 2.838 2.84 2.84 0 01-2.838 2.838zm5.676-2.838a5.681 5.681 0 00-5.676-5.676 5.681 5.681 0 00-5.676 5.676 5.682 5.682 0 005.676 5.676 5.643 5.643 0 002.866-.803l7.483 7.482 2.006-2.006-7.482-7.483a5.637 5.637 0 00.803-2.866zM126.151 162.303a2.841 2.841 0 012.838 2.838 2.841 2.841 0 01-2.838 2.838 2.841 2.841 0 01-2.838-2.838 2.841 2.841 0 012.838-2.838zm-10.349 15.193l7.483-7.482a5.642 5.642 0 002.866.803 5.681 5.681 0 005.676-5.676 5.68 5.68 0 00-5.676-5.676 5.681 5.681 0 00-5.676 5.676c0 1.048.307 2.022.803 2.866l-7.482 7.483 2.006 2.006zM92.095 202.035a2.84 2.84 0 01-2.838-2.838 2.84 2.84 0 012.838-2.838 2.84 2.84 0 012.838 2.838 2.84 2.84 0 01-2.838 2.838zm10.349-15.193l-7.483 7.482a5.643 5.643 0 00-2.866-.803 5.682 5.682 0 00-5.676 5.676 5.682 5.682 0 005.676 5.676 5.682 5.682 0 005.676-5.676 5.634 5.634 0 00-.803-2.866l7.482-7.483-2.006-2.006zM126.151 202.035a2.841 2.841 0 01-2.838-2.838 2.841 2.841 0 012.838-2.838 2.841 2.841 0 012.838 2.838 2.841 2.841 0 01-2.838 2.838zm0-8.514a5.642 5.642 0 00-2.866.803l-7.483-7.482-2.006 2.006 7.482 7.483a5.64 5.64 0 00-.803 2.866 5.682 5.682 0 005.676 5.676 5.681 5.681 0 005.676-5.676 5.681 5.681 0 00-5.676-5.676z" fill="white"/></g><g clip-path="url(#clip4)" fill-rule="evenodd" clip-rule="evenodd"><path d="M239.608 194.875v-2.708a5.748 5.748 0 005.74-5.741 5.702 5.702 0 00-3.644-5.33l-1.033-.407.195-1.093c.152-.847.225-1.631.225-2.393 0-7.47-6.077-13.546-13.545-13.546a13.496 13.496 0 00-13.154 10.366l-.224.935-.959.095a8.542 8.542 0 00-7.721 8.535c0 4.73 3.848 8.579 8.578 8.579v2.708c-6.224 0-11.289-5.063-11.289-11.287a11.24 11.24 0 019.225-11.098 16.194 16.194 0 0115.544-11.541c8.963 0 16.255 7.29 16.255 16.254 0 .601-.038 1.207-.114 1.837a8.383 8.383 0 014.371 7.386c0 4.659-3.792 8.449-8.45 8.449z" fill="white"/><path d="M221.048 203.454h3.367l11.172-17.017h-13.551l8.84-14.201h-3.315l-10.593 17.017h13.404l-9.324 14.201z" fill="#00BFB3"/></g><path d="M340.422 160.884h2.838v42.57h-2.838v-42.57z" fill="#00BFB3"/><path d="M337.584 200.616v2.838h-17.028v-42.57h17.028v2.838h-14.19v36.894h14.19zM360.288 163.722h-14.19v-2.838h17.028v42.57h-17.028v-2.838h14.19v-36.894z" fill="white"/></g><defs><clipPath id="clip0"><path fill="white" d="M0 0h450v285H0z"/></clipPath><clipPath id="clip1"><path fill="white" transform="translate(85 80)" d="M0 0h45.408v45.408H0z"/></clipPath><clipPath id="clip2"><path fill="white" transform="translate(201.359 80)" d="M0 0h45.408v45.408H0z"/></clipPath><clipPath id="clip3"><path fill="white" transform="translate(86.419 159.465)" d="M0 0h45.408v45.408H0z"/></clipPath><clipPath id="clip4"><path fill="white" transform="translate(202.778 159.465)" d="M0 0h45.408v45.408H0z"/></clipPath><linearGradient id="paint0_linear" x1="225" y1="221.5" x2="225" y2="286.602" gradientUnits="userSpaceOnUse"><stop stop-color="#1D1E24"/><stop offset="1" stop-color="#151619"/></linearGradient></defs></svg>