<svg xmlns="http://www.w3.org/2000/svg" width="256" height="256" viewBox="0 0 67.733 67.733"><path d="M5.523 229.358c-1.68 0-3.03 1.251-3.03 2.806v23.115H10.7l3.298-5.782c.817-1.435 2.988-1.552 3.98-.215l5.495 7.403 9.432-17.14c.394-.714 1.182-1.168 2.048-1.177.793-.01 1.537.357 1.973.97l8.322 11.689 7.209-8.54c.862-1.021 2.495-1.113 3.484-.195l9.234 8.577v-18.705c0-1.555-1.351-2.806-3.03-2.806zm29.717 15.45-9.392 17.067c-.802 1.457-2.995 1.59-3.996.242l-5.53-7.452-2.156 3.778c-.404.707-1.196 1.15-2.06 1.15H2.493v9.557c0 1.555 1.35 2.806 3.03 2.806h56.623c1.679 0 3.03-1.251 3.03-2.806v-12.169l-1.555-1.445-9.117-8.468-7.581 8.981c-.981 1.162-2.904 1.09-3.78-.141z" style="opacity:1;fill:#fff;fill-opacity:1;stroke:none;stroke-width:2.91594434;stroke-linecap:round;stroke-linejoin:round;stroke-miterlimit:4;stroke-dasharray:none;stroke-dashoffset:0;stroke-opacity:.47783257" transform="translate(0 -229.267)"/><path d="M2.654 274.273a2.333 2.333 0 1 0 0 4.666h62.36a2.333 2.333 0 1 0 0-4.666z" style="color:#000;font-style:normal;font-variant:normal;font-weight:400;font-stretch:normal;font-size:medium;line-height:normal;font-family:sans-serif;font-variant-ligatures:normal;font-variant-position:normal;font-variant-caps:normal;font-variant-numeric:normal;font-variant-alternates:normal;font-feature-settings:normal;text-indent:0;text-align:start;text-decoration:none;text-decoration-line:none;text-decoration-style:solid;text-decoration-color:#000;letter-spacing:normal;word-spacing:normal;text-transform:none;writing-mode:lr-tb;direction:ltr;text-orientation:mixed;dominant-baseline:auto;baseline-shift:baseline;text-anchor:start;white-space:normal;shape-padding:0;clip-rule:nonzero;display:inline;overflow:visible;visibility:visible;opacity:1;isolation:auto;mix-blend-mode:normal;color-interpolation:sRGB;color-interpolation-filters:linearRGB;solid-color:#000;solid-opacity:1;vector-effect:none;fill:#fff;fill-opacity:1;fill-rule:evenodd;stroke:none;stroke-width:4.66551113;stroke-linecap:round;stroke-linejoin:miter;stroke-miterlimit:4;stroke-dasharray:none;stroke-dashoffset:0;stroke-opacity:1;color-rendering:auto;image-rendering:auto;shape-rendering:auto;text-rendering:auto" transform="translate(0 -229.267)"/><path d="M33.799 274.42a2.333 2.333 0 0 0-2.297 2.365v17.865a2.333 2.333 0 1 0 4.666 0v-17.865a2.333 2.333 0 0 0-2.37-2.365M23.95 274.424a2.33 2.33 0 0 0-2.061 1.185l-10.426 17.866a2.333 2.333 0 1 0 4.03 2.351l10.425-17.865a2.333 2.333 0 0 0-1.969-3.537M43.648 274.426a2.333 2.333 0 0 0-1.896 3.535l10.426 17.865a2.333 2.333 0 1 0 4.029-2.351l-10.426-17.866a2.33 2.33 0 0 0-2.133-1.183" style="color:#000;font-style:normal;font-variant:normal;font-weight:400;font-stretch:normal;font-size:medium;line-height:normal;font-family:sans-serif;font-variant-ligatures:normal;font-variant-position:normal;font-variant-caps:normal;font-variant-numeric:normal;font-variant-alternates:normal;font-feature-settings:normal;text-indent:0;text-align:start;text-decoration:none;text-decoration-line:none;text-decoration-style:solid;text-decoration-color:#000;letter-spacing:normal;word-spacing:normal;text-transform:none;writing-mode:lr-tb;direction:ltr;text-orientation:mixed;dominant-baseline:auto;baseline-shift:baseline;text-anchor:start;white-space:normal;shape-padding:0;clip-rule:nonzero;display:inline;overflow:visible;visibility:visible;opacity:1;isolation:auto;mix-blend-mode:normal;color-interpolation:sRGB;color-interpolation-filters:linearRGB;solid-color:#000;solid-opacity:1;vector-effect:none;fill:#fff;fill-opacity:1;fill-rule:evenodd;stroke:none;stroke-width:4.66551113;stroke-linecap:round;stroke-linejoin:miter;stroke-miterlimit:4;stroke-dasharray:none;stroke-dashoffset:0;stroke-opacity:1;color-rendering:auto;image-rendering:auto;shape-rendering:auto;text-rendering:auto" transform="translate(0 -229.267)"/></svg>