<svg width="270" height="114" viewBox="0 0 270 114" fill="none" xmlns="http://www.w3.org/2000/svg">
<rect width="270" height="114" fill="#E2F9F7"/>
<mask id="path-1-inside-1_7018_26487" fill="white">
<path d="M43 25C43 22.7909 44.7909 21 47 21H171V61H47C44.7909 61 43 59.2091 43 57V25Z"/>
</mask>
<path d="M43 25C43 22.7909 44.7909 21 47 21H171V61H47C44.7909 61 43 59.2091 43 57V25Z" fill="white"/>
<path d="M42 25C42 22.2386 44.2386 20 47 20H171V22H47C45.3431 22 44 23.3431 44 25H42ZM171 62H47C44.2386 62 42 59.7614 42 57H44C44 58.6569 45.3431 60 47 60H171V62ZM47 62C44.2386 62 42 59.7614 42 57V25C42 22.2386 44.2386 20 47 20V22C45.3431 22 44 23.3431 44 25V57C44 58.6569 45.3431 60 47 60V62ZM47 60M171 21V61V21" fill="#E3E8F2" mask="url(#path-1-inside-1_7018_26487)"/>
<path fill-rule="evenodd" clip-rule="evenodd" d="M58 34.9996C58 34.2223 58.848 33.7422 59.5145 34.1421L69.5145 40.1421C70.1618 40.5305 70.1618 41.4687 69.5145 41.8571L59.5145 47.8571C58.848 48.257 58 47.7769 58 46.9996V34.9996ZM59 46.9996L69 40.9996L59 34.9996V46.9996Z" fill="#1D2A3E"/>
<rect x="75" y="37" width="74" height="8" rx="4" fill="#E3E8F2"/>
<mask id="path-5-inside-2_7018_26487" fill="white">
<path d="M172 21H208C210.209 21 212 22.7909 212 25V57C212 59.2091 210.209 61 208 61H172V21Z"/>
</mask>
<path d="M172 21H208C210.209 21 212 22.7909 212 25V57C212 59.2091 210.209 61 208 61H172V21Z" fill="white"/>
<path d="M172 20H208C210.761 20 213 22.2386 213 25H211C211 23.3431 209.657 22 208 22H172V20ZM213 57C213 59.7614 210.761 62 208 62H172V60H208C209.657 60 211 58.6569 211 57H213ZM211 57M172 61V21V61M208 20C210.761 20 213 22.2386 213 25V57C213 59.7614 210.761 62 208 62V60C209.657 60 211 58.6569 211 57V25C211 23.3431 209.657 22 208 22V20Z" fill="#E3E8F2" mask="url(#path-5-inside-2_7018_26487)"/>
<path d="M187 39H189V40H187V39Z" fill="#1D2A3E"/>
<path d="M190 39H192V40H190V39Z" fill="#1D2A3E"/>
<path d="M187 42H189V43H187V42Z" fill="#1D2A3E"/>
<path d="M187 45H189V46H187V45Z" fill="#1D2A3E"/>
<path d="M196.369 41.1084C196.998 41.2692 197.558 41.602 197.999 42.0518L199.147 41.8174L199.647 42.6836L198.87 43.5586C198.954 43.8583 199 44.1737 199 44.5C199 44.826 198.953 45.141 198.87 45.4404L199.647 46.3174L199.147 47.1836L197.999 46.9482C197.558 47.398 196.998 47.7298 196.369 47.8906L196 49H195L194.63 47.8906C194.001 47.7297 193.44 47.398 193 46.9482L191.854 47.1836L191.354 46.3174L192.129 45.4414C192.045 45.1418 192 44.8262 192 44.5C192 44.1734 192.045 43.8575 192.129 43.5576L191.354 42.6836L191.854 41.8174L193 42.0508C193.44 41.6012 194.001 41.2693 194.63 41.1084L195 40H196L196.369 41.1084ZM195.5 42C194.119 42 193 43.1193 193 44.5C193 45.8807 194.119 47 195.5 47C196.881 47 198 45.8807 198 44.5C198 43.1193 196.881 42 195.5 42ZM195.5 43C196.328 43 197 43.6716 197 44.5C197 45.3284 196.328 46 195.5 46C194.672 46 194 45.3284 194 44.5C194 43.6716 194.672 43 195.5 43ZM195.5 44C195.224 44 195 44.2239 195 44.5C195 44.7761 195.224 45 195.5 45C195.776 45 196 44.7761 196 44.5C196 44.2239 195.776 44 195.5 44Z" fill="#1D2A3E"/>
<path fill-rule="evenodd" clip-rule="evenodd" d="M198 34C198.552 34 199 34.4477 199 35V40.8262L198.947 40.8379L198.289 40.9717C198.196 40.8978 198.099 40.8283 198 40.7617V38H186V47H190.593L191.17 48H186C185.448 48 185 47.5523 185 47V35C185 34.4477 185.448 34 186 34H198ZM186 37H198V35H186V37Z" fill="#1D2A3E"/>
<g filter="url(#filter0_ddd_7018_26487)">
<path d="M77 57C77 54.7909 78.7909 53 81 53H226C228.209 53 230 54.7909 230 57V89C230 91.2091 228.209 93 226 93H81C78.7909 93 77 91.2091 77 89V57Z" fill="white" shape-rendering="crispEdges"/>
<path d="M93 77H92V76H93V77Z" fill="#1D2A3E"/>
<path d="M96 77H95V76H96V77Z" fill="#1D2A3E"/>
<path d="M99 77H98V76H99V77Z" fill="#1D2A3E"/>
<path d="M102 77H101V76H102V77Z" fill="#1D2A3E"/>
<path d="M93 75H92V74H93V75Z" fill="#1D2A3E"/>
<path d="M96 75H95V74H96V75Z" fill="#1D2A3E"/>
<path d="M99 75H98V74H99V75Z" fill="#1D2A3E"/>
<path d="M102 75H101V74H102V75Z" fill="#1D2A3E"/>
<path d="M93 73H92V72H93V73Z" fill="#1D2A3E"/>
<path d="M96 73H95V72H96V73Z" fill="#1D2A3E"/>
<path d="M99 73H98V72H99V73Z" fill="#1D2A3E"/>
<path d="M102 73H101V72H102V73Z" fill="#1D2A3E"/>
<path fill-rule="evenodd" clip-rule="evenodd" d="M94 67H100V66H101V67H103C103.552 67 104 67.4477 104 68V78C104 78.5523 103.552 79 103 79H91C90.4477 79 90 78.5523 90 78V68C90 67.4477 90.4477 67 91 67H93V66H94V67ZM91 78H103V71H91V78ZM91 70H103V68H101V69H100V68H94V69H93V68H91V70Z" fill="#1D2A3E"/>
<rect x="109" y="69" width="109" height="8" rx="4" fill="#E3E8F2"/>
</g>
<defs>
<filter id="filter0_ddd_7018_26487" x="66" y="46" width="175" height="62" filterUnits="userSpaceOnUse" color-interpolation-filters="sRGB">
<feFlood flood-opacity="0" result="BackgroundImageFix"/>
<feColorMatrix in="SourceAlpha" type="matrix" values="0 0 0 0 0 0 0 0 0 0 0 0 0 0 0 0 0 0 127 0" result="hardAlpha"/>
<feOffset dy="4"/>
<feGaussianBlur stdDeviation="5.5"/>
<feComposite in2="hardAlpha" operator="out"/>
<feColorMatrix type="matrix" values="0 0 0 0 0.168627 0 0 0 0 0.223529 0 0 0 0 0.309804 0 0 0 0.05 0"/>
<feBlend mode="normal" in2="BackgroundImageFix" result="effect1_dropShadow_7018_26487"/>
<feColorMatrix in="SourceAlpha" type="matrix" values="0 0 0 0 0 0 0 0 0 0 0 0 0 0 0 0 0 0 127 0" result="hardAlpha"/>
<feOffset dy="2"/>
<feGaussianBlur stdDeviation="3.5"/>
<feComposite in2="hardAlpha" operator="out"/>
<feColorMatrix type="matrix" values="0 0 0 0 0.168627 0 0 0 0 0.223529 0 0 0 0 0.309804 0 0 0 0.08 0"/>
<feBlend mode="normal" in2="effect1_dropShadow_7018_26487" result="effect2_dropShadow_7018_26487"/>
<feColorMatrix in="SourceAlpha" type="matrix" values="0 0 0 0 0 0 0 0 0 0 0 0 0 0 0 0 0 0 127 0" result="hardAlpha"/>
<feOffset/>
<feGaussianBlur stdDeviation="1"/>
<feComposite in2="hardAlpha" operator="out"/>
<feColorMatrix type="matrix" values="0 0 0 0 0.168627 0 0 0 0 0.223529 0 0 0 0 0.309804 0 0 0 0.16 0"/>
<feBlend mode="normal" in2="effect2_dropShadow_7018_26487" result="effect3_dropShadow_7018_26487"/>
<feBlend mode="normal" in="SourceGraphic" in2="effect3_dropShadow_7018_26487" result="shape"/>
</filter>
</defs>
</svg>
