<svg width="80" height="80" viewBox="0 0 80 80" fill="none" xmlns="http://www.w3.org/2000/svg">
<g clip-path="url(#clip0_7029_116)">
<path d="M62.5375 10.1688C61.8875 10.1688 61.2437 10.2187 60.6187 10.3062C58.5937 7.29375 55.15 5.3125 51.2437 5.3125C46.3125 5.3125 42.1188 8.48125 40.5813 12.8875C39.8688 12.7187 39.1313 12.625 38.3688 12.625C33.1562 12.625 28.9375 16.85 28.9375 22.0563C28.9375 23.1188 29.1125 24.1375 29.4375 25.0875H75.9438C75.9938 24.6125 76.0188 24.1375 76.0188 23.65C76.0188 16.2 69.9813 10.1625 62.5313 10.1625L62.5375 10.1688Z" fill="#153385" stroke="#101C3F" stroke-width="1.60714" stroke-miterlimit="10"/>
<path d="M62.5375 12.3063C61.8875 12.3063 61.2437 12.3563 60.6187 12.4438C58.5937 9.43126 55.15 7.45001 51.2437 7.45001C46.3125 7.45001 42.1188 10.6188 40.5813 15.025C39.8688 14.8563 39.1313 14.7625 38.3688 14.7625C33.1562 14.7625 28.9375 18.9875 28.9375 24.1938C28.9375 25.2563 29.1125 26.275 29.4375 27.225H75.9438C75.9938 26.75 76.0188 26.275 76.0188 25.7875C76.0188 18.3375 69.9813 12.3 62.5313 12.3L62.5375 12.3063Z" fill="white" stroke="#101C3F" stroke-width="1.60714" stroke-miterlimit="10"/>
<path d="M33.525 21.7687C32.9437 21.7687 32.3687 21.8124 31.8062 21.8937C29.9937 19.1999 26.9125 17.4249 23.4125 17.4249C18.9937 17.4249 15.2438 20.2624 13.8625 24.2062C13.225 24.0562 12.5625 23.9687 11.8813 23.9687C7.21875 23.9687 3.4375 27.7499 3.4375 32.4124C3.4375 33.3624 3.59375 34.2749 3.8875 35.1312H45.5312C45.575 34.7062 45.6 34.2812 45.6 33.8437C45.6 27.1749 40.1937 21.7687 33.525 21.7687Z" fill="#153385" stroke="#101C3F" stroke-width="1.60714" stroke-miterlimit="10"/>
<path d="M33.525 23.6812C32.9437 23.6812 32.3687 23.7249 31.8062 23.8062C29.9937 21.1124 26.9125 19.3374 23.4125 19.3374C18.9937 19.3374 15.2438 22.1749 13.8625 26.1187C13.225 25.9687 12.5625 25.8812 11.8813 25.8812C7.21875 25.8812 3.4375 29.6624 3.4375 34.3249C3.4375 35.2749 3.59375 36.1874 3.8875 37.0437H45.5312C45.575 36.6187 45.6 36.1937 45.6 35.7562C45.6 29.0874 40.1937 23.6812 33.525 23.6812Z" fill="white" stroke="#101C3F" stroke-width="1.60714" stroke-miterlimit="10"/>
<path d="M50.8252 50.6313C50.8252 50.6313 53.7939 48.3875 56.1814 50.6313V39.9688H50.8252V50.6313Z" fill="#153385" stroke="#101C3F" stroke-width="1.60714" stroke-miterlimit="10"/>
<path d="M58.2813 56.425C58.2813 56.425 61.2813 46.2125 58.3688 35.2813C58.15 34.4625 56.9875 34.4563 56.7688 35.275C55.8375 38.7438 54.65 45.8188 56.225 56.425H58.2813Z" fill="#0B64DD" stroke="#101C3F" stroke-width="1.60714" stroke-miterlimit="10"/>
<path d="M57.2441 57.2313C57.8827 57.2313 58.4004 56.957 58.4004 56.6188C58.4004 56.2805 57.8827 56.0063 57.2441 56.0063C56.6056 56.0063 56.0879 56.2805 56.0879 56.6188C56.0879 56.957 56.6056 57.2313 57.2441 57.2313Z" fill="#101C3F"/>
<path d="M57.2373 56.4875C57.5686 56.4875 57.8373 56.7563 57.8373 57.0875V57.1813C57.8373 57.25 57.8248 57.3188 57.7998 57.3875L57.1936 59.0563L56.6686 57.375C56.6498 57.3188 56.6436 57.2563 56.6436 57.2V57.0875C56.6436 56.7563 56.9123 56.4875 57.2436 56.4875H57.2373Z" fill="#48EFCF"/>
<path d="M41.8816 7.35001C40.7129 9.06251 30.1691 28.0688 33.8379 56.925L41.8816 55.975H41.9754L50.3066 56.925C53.9754 28.0688 43.1441 9.06251 41.9754 7.35001H41.8816Z" fill="#0B64DD"/>
<path d="M41.8816 7.35001C40.7129 9.06251 30.1691 28.0688 33.8379 56.925L41.8816 55.975H41.9754L50.3066 56.925C53.9754 28.0688 43.1441 9.06251 41.9754 7.35001H41.8816Z" stroke="#101C3F" stroke-width="1.60714" stroke-miterlimit="10"/>
<path d="M42.0686 60.3C46.618 60.3 50.3061 58.789 50.3061 56.925C50.3061 55.061 46.618 53.55 42.0686 53.55C37.5191 53.55 33.8311 55.061 33.8311 56.925C33.8311 58.789 37.5191 60.3 42.0686 60.3Z" fill="white" stroke="#101C3F" stroke-width="1.60714" stroke-miterlimit="10"/>
<path d="M42.0693 59.7563C45.6419 59.7563 48.5381 58.7965 48.5381 57.6125C48.5381 56.4285 45.6419 55.4688 42.0693 55.4688C38.4967 55.4688 35.6006 56.4285 35.6006 57.6125C35.6006 58.7965 38.4967 59.7563 42.0693 59.7563Z" fill="#0B64DD"/>
<mask id="mask0_7029_116" style="mask-type:luminance" maskUnits="userSpaceOnUse" x="35" y="55" width="14" height="5">
<path d="M42.0693 59.7563C45.6419 59.7563 48.5381 58.7965 48.5381 57.6125C48.5381 56.4285 45.6419 55.4688 42.0693 55.4688C38.4967 55.4688 35.6006 56.4285 35.6006 57.6125C35.6006 58.7965 38.4967 59.7563 42.0693 59.7563Z" fill="white"/>
</mask>
<g mask="url(#mask0_7029_116)">
<path d="M42.0693 58.6313C45.6419 58.6313 48.5381 57.6715 48.5381 56.4875C48.5381 55.3035 45.6419 54.3438 42.0693 54.3438C38.4967 54.3438 35.6006 55.3035 35.6006 56.4875C35.6006 57.6715 38.4967 58.6313 42.0693 58.6313Z" fill="#101C3F" stroke="#101C3F" stroke-width="1.60714" stroke-miterlimit="10"/>
</g>
<path d="M42.0693 59.7563C45.6419 59.7563 48.5381 58.7965 48.5381 57.6125C48.5381 56.4285 45.6419 55.4688 42.0693 55.4688C38.4967 55.4688 35.6006 56.4285 35.6006 57.6125C35.6006 58.7965 38.4967 59.7563 42.0693 59.7563Z" stroke="#101C3F" stroke-width="1.60714" stroke-miterlimit="10"/>
<path d="M41.9252 30.0375C43.7753 30.0375 45.2752 28.0452 45.2752 25.5875C45.2752 23.1298 43.7753 21.1375 41.9252 21.1375C40.075 21.1375 38.5752 23.1298 38.5752 25.5875C38.5752 28.0452 40.075 30.0375 41.9252 30.0375Z" fill="white"/>
<path d="M41.9064 56.7688C39.2377 56.7688 37.0752 58.9313 37.0752 61.6V62.375C37.0752 62.9375 37.1752 63.5 37.3689 64.0312L42.2939 77.5375L46.5252 63.9313C46.6689 63.4688 46.7439 62.9813 46.7439 62.4938V61.6C46.7439 58.9313 44.5814 56.7688 41.9127 56.7688H41.9064Z" fill="#48EFCF" stroke="#101C3F" stroke-width="1.60714" stroke-miterlimit="10"/>
<path d="M33.0506 50.675C33.0506 50.675 30.0818 48.4313 27.6943 50.675V40.0125H33.0506V50.675Z" fill="#153385" stroke="#101C3F" stroke-width="1.60714" stroke-miterlimit="10"/>
<path d="M25.594 56.475C25.594 56.475 22.594 46.2625 25.5065 35.3313C25.7253 34.5125 26.8878 34.5063 27.1065 35.325C28.0378 38.7938 29.2253 45.8688 27.6503 56.475H25.594Z" fill="#0B64DD" stroke="#101C3F" stroke-width="1.60714" stroke-miterlimit="10"/>
<path d="M26.6379 57.275C27.2868 57.275 27.8129 57.0008 27.8129 56.6625C27.8129 56.3242 27.2868 56.05 26.6379 56.05C25.989 56.05 25.4629 56.3242 25.4629 56.6625C25.4629 57.0008 25.989 57.275 26.6379 57.275Z" fill="#101C3F"/>
<path d="M26.6381 56.5313C26.3068 56.5313 26.0381 56.8 26.0381 57.1313V57.225C26.0381 57.2938 26.0506 57.3625 26.0756 57.4313L26.6818 59.1L27.2068 57.4188C27.2256 57.3625 27.2318 57.3 27.2318 57.2438V57.1313C27.2318 56.8 26.9631 56.5313 26.6318 56.5313H26.6381Z" fill="#48EFCF"/>
</g>
<defs>
<clipPath id="clip0_7029_116">
<rect width="80" height="80" fill="white"/>
</clipPath>
</defs>
</svg>
