<svg xmlns="http://www.w3.org/2000/svg" width="32" height="32" viewBox="0 0 32 32">
  <g fill="none" fill-rule="evenodd" transform="translate(1 2)">
    <path fill="#0078A0" d="M4,0 L4,0 L4,0 C5.1045695,-2.02906125e-16 6,0.8954305 6,2 L6,26 C6,27.1045695 5.1045695,28 4,28 L4,28 C2.8954305,28 2,27.1045695 2,26 L2,2 C2,0.8954305 2.8954305,-1.91384796e-17 4,-2.22044605e-16 L4,0 Z M4,10 C5.1045695,10 6,9.1045695 6,8 C6,6.8954305 5.1045695,6 4,6 C2.8954305,6 2,6.8954305 2,8 C2,9.1045695 2.8954305,10 4,10 Z"/>
    <path fill="#00BFB3" d="M26,0 L26,0 L26,-2.22044605e-16 C27.1045695,-4.2495073e-16 28,0.8954305 28,2 L28,26 L28,26 C28,27.1045695 27.1045695,28 26,28 L26,28 L26,28 C24.8954305,28 24,27.1045695 24,26 L24,2 L24,2 C24,0.8954305 24.8954305,2.02906125e-16 26,0 L26,0 Z M26,16 C27.1045695,16 28,15.1045695 28,14 C28,12.8954305 27.1045695,12 26,12 C24.8954305,12 24,12.8954305 24,14 C24,15.1045695 24.8954305,16 26,16 Z"/>
    <path fill="#30A9E5" d="M15,0 L15,0 L15,-2.22044605e-16 C16.1045695,-4.2495073e-16 17,0.8954305 17,2 L17,26 L17,26 C17,27.1045695 16.1045695,28 15,28 L15,28 L15,28 C13.8954305,28 13,27.1045695 13,26 L13,2 L13,2 C13,0.8954305 13.8954305,2.02906125e-16 15,0 L15,0 Z M15,22 C16.1045695,22 17,21.1045695 17,20 C17,18.8954305 16.1045695,18 15,18 C13.8954305,18 13,18.8954305 13,20 C13,21.1045695 13.8954305,22 15,22 Z"/>
    <path fill="#0078A0" fill-rule="nonzero" d="M4,12 C1.790861,12 0,10.209139 0,8 C0,5.790861 1.790861,4 4,4 C6.209139,4 8,5.790861 8,8 C8,10.209139 6.209139,12 4,12 Z M4,10 C5.1045695,10 6,9.1045695 6,8 C6,6.8954305 5.1045695,6 4,6 C2.8954305,6 2,6.8954305 2,8 C2,9.1045695 2.8954305,10 4,10 Z"/>
    <path fill="#30A9E5" fill-rule="nonzero" d="M15,24 C12.790861,24 11,22.209139 11,20 C11,17.790861 12.790861,16 15,16 C17.209139,16 19,17.790861 19,20 C19,22.209139 17.209139,24 15,24 Z M15,22 C16.1045695,22 17,21.1045695 17,20 C17,18.8954305 16.1045695,18 15,18 C13.8954305,18 13,18.8954305 13,20 C13,21.1045695 13.8954305,22 15,22 Z"/>
    <path fill="#00BFB3" fill-rule="nonzero" d="M26,18 C23.790861,18 22,16.209139 22,14 C22,11.790861 23.790861,10 26,10 C28.209139,10 30,11.790861 30,14 C30,16.209139 28.209139,18 26,18 Z M26,16 C27.1045695,16 28,15.1045695 28,14 C28,12.8954305 27.1045695,12 26,12 C24.8954305,12 24,12.8954305 24,14 C24,15.1045695 24.8954305,16 26,16 Z"/>
  </g>
</svg>
