<svg xmlns="http://www.w3.org/2000/svg" width="32" height="32" viewBox="0 0 32 32">
  <g fill="none" fill-rule="evenodd" transform="translate(2 2)">
    <rect width="16" height="16" x="6" fill="#00BFB3" rx="2"/>
    <path fill="#0078A0" d="M10 3L18 3C18.5522847 3 19 3.44771525 19 4L19 4C19 4.55228475 18.5522847 5 18 5L10 5C9.44771525 5 9 4.55228475 9 4L9 4 9 4C9 3.44771525 9.44771525 3 10 3L10 3zM10 7L18 7C18.5522847 7 19 7.44771525 19 8 19 8.55228475 18.5522847 9 18 9L10 9C9.44771525 9 9 8.55228475 9 8 9 7.44771525 9.44771525 7 10 7L10 7zM10 11L18 11C18.5522847 11 19 11.4477153 19 12 19 12.5522847 18.5522847 13 18 13L10 13C9.44771525 13 9 12.5522847 9 12 9 11.4477153 9.44771525 11 10 11L10 11zM24 21L15 21 15 23C15 23.5522847 14.5522847 24 14 24 13.4477153 24 13 23.5522847 13 23L13 21 4 21 4 23C4 23.5522847 3.55228475 24 3 24 2.44771525 24 2 23.5522847 2 23L2 20C2 19.7238576 2.11192881 19.4738576 2.29289322 19.2928932 2.47385763 19.1119288 2.72385763 19 3 19L3 19 13 19 13 16 15 16 15 19 25 19C25.2761424 19 25.5261424 19.1119288 25.7071068 19.2928932 25.8880712 19.4738576 26 19.7238576 26 20L26 23C26 23.5522847 25.5522847 24 25 24 24.4477153 24 24 23.5522847 24 23L24 21z"/>
    <path fill="#30A9E5" d="M3,28 C1.34314575,28 0,26.6568542 0,25 C0,23.3431458 1.34314575,22 3,22 C4.65685425,22 6,23.3431458 6,25 C6,26.6568542 4.65685425,28 3,28 Z M25,28 C23.3431458,28 22,26.6568542 22,25 C22,23.3431458 23.3431458,22 25,22 C26.6568542,22 28,23.3431458 28,25 C28,26.6568542 26.6568542,28 25,28 Z M14,28 C12.3431458,28 11,26.6568542 11,25 C11,23.3431458 12.3431458,22 14,22 C15.6568542,22 17,23.3431458 17,25 C17,26.6568542 15.6568542,28 14,28 Z"/>
  </g>
</svg>
