<svg xmlns="http://www.w3.org/2000/svg" width="32" height="32" viewBox="0 0 32 32">
  <g fill="none">
    <path fill="#00BFB3" d="M22.8565714,0 L7.99942857,0 C7.36857143,0 6.85657143,0.512 6.85657143,1.14285714 L6.85657143,30.8571429 C6.85657143,31.488 7.36857143,32 7.99942857,32 L30.8565714,32 C31.4874286,32 31.9994286,31.488 31.9994286,30.8571429 L31.9994286,9.14285714 L25.2931429,5.57542857 L22.8565714,0 Z"/>
    <path fill="#0279A0" d="M22.8571429,0 L22.8571429,8 C22.8571429,8.63085714 23.3691429,9.14285714 24,9.14285714 L32,9.14285714 L22.8571429,0 Z"/>
    <g transform="translate(0 14.857)">
      <path fill="#14A7DF" d="M15.7128571,0 L1.42857143,0 C0.64,0 0,0.576108023 0,1.2859554 L0,8.99975886 C0,9.70960629 0.64,10.2857143 1.42857143,10.2857143 L15.7128571,10.2857143 C16.5014286,10.2857143 17.1414286,9.70960629 17.1414286,8.99975886 L17.1414286,1.2859554 C17.1414286,0.576108023 16.5014286,0 15.7128571,0"/>
      <polygon fill="#FFF" points="5.546 7.185 3.272 7.185 3.272 3.106 3.746 3.106 3.746 6.755 5.546 6.755"/>
      <path fill="#FFF" d="M13.8692857,7.03178571 C13.6535714,7.10107143 13.4342857,7.15321429 13.2107143,7.18821429 C12.9878571,7.22392857 12.7285714,7.24107143 12.435,7.24107143 C11.8178571,7.24107143 11.3364286,7.0575 10.9928571,6.68964286 C10.6485714,6.32321429 10.4764286,5.80821429 10.4764286,5.14535714 C10.4764286,4.72178571 10.5614286,4.35035714 10.7314286,4.03107143 C10.9021429,3.7125 11.1464286,3.46892857 11.4671429,3.29964286 C11.7871429,3.13178571 12.1614286,3.0475 12.5914286,3.0475 C13.0264286,3.0475 13.4321429,3.1275 13.8078571,3.2875 L13.6235714,3.70607143 C13.2557143,3.54964286 12.9014286,3.47178571 12.5607143,3.47178571 C12.0642857,3.47178571 11.6764286,3.61964286 11.3971429,3.91535714 C11.1178571,4.21107143 10.9785714,4.62107143 10.9785714,5.14535714 C10.9785714,5.69678571 11.1135714,6.11392857 11.3821429,6.39821429 C11.6507143,6.68321429 12.045,6.82535714 12.5664286,6.82535714 C12.8485714,6.82535714 13.125,6.79321429 13.395,6.7275 L13.395,5.47178571 L12.4828571,5.47178571 L12.4828571,5.04821429 L13.8692857,5.04821429 L13.8692857,7.03178571 Z M8.93064286,6.39842857 C8.69992857,6.68271429 8.3585,6.82557143 7.90635714,6.82557143 C7.45778571,6.82557143 7.11635714,6.68271429 6.88135714,6.397 C6.64635714,6.112 6.5285,5.69271429 6.5285,5.13985714 C6.5285,4.59557143 6.64635714,4.18057143 6.88135714,3.89414286 C7.11635714,3.60914286 7.45992857,3.46628571 7.91207143,3.46628571 C8.36207143,3.46628571 8.70278571,3.60842857 8.93207143,3.89128571 C9.16135714,4.17557143 9.27635714,4.592 9.27635714,5.13985714 C9.27635714,5.69485714 9.16135714,6.11414286 8.93064286,6.39842857 L8.93064286,6.39842857 Z M9.28492857,3.59985714 C8.95564286,3.22842857 8.4985,3.042 7.91207143,3.042 C7.30921429,3.042 6.84421429,3.22485714 6.51707143,3.58985714 C6.18992857,3.95557143 6.02635714,4.47057143 6.02635714,5.13414286 C6.02635714,5.80414286 6.18921429,6.32342857 6.51564286,6.68985714 C6.84207143,7.05771429 7.30635714,7.24128571 7.90635714,7.24128571 C8.49492857,7.24128571 8.9535,7.05414286 9.2835,6.68057143 C9.6135,6.30628571 9.7785,5.79271429 9.7785,5.13985714 C9.7785,4.48557143 9.61421429,3.97271429 9.28492857,3.59985714 L9.28492857,3.59985714 Z"/>
    </g>
  </g>
</svg>
