<svg xmlns="http://www.w3.org/2000/svg" width="32" height="32" viewBox="0 0 32 32">
  <g fill="none" fill-rule="evenodd">
    <path fill="#14A7DF" d="M16.0744,22.66656 C12.3928,22.66656 9.40773333,19.6814933 9.40773333,15.9998933 C9.40773333,12.3182933 12.3928,9.33322667 16.0744,9.33322667 C19.7565333,9.33322667 22.7410667,12.3182933 22.7410667,15.9998933 C22.7410667,19.6814933 19.7565333,22.66656 16.0744,22.66656 M16.0744,3.99989333 C9.4472,3.99989333 4.0744,9.37269333 4.0744,15.9998933 C4.0744,22.6276267 9.4472,27.9998933 16.0744,27.9998933 C22.7021333,27.9998933 28.0744,22.6276267 28.0744,15.9998933 C28.0744,9.37269333 22.7021333,3.99989333 16.0744,3.99989333"/>
    <path fill="#00BFB3" d="M15.9759467,26.8389867 C16.9722133,26.8389867 17.9370133,26.6672533 18.8607467,26.4096533 C19.3450133,26.27472 19.8042133,26.6880533 19.7039467,27.1813867 L18.8346133,31.4661867 C18.77168,31.7765867 18.4986133,32.0000533 18.18128,32.0000533 L13.93808,32.0000533 C13.6207467,32.0000533 13.34768,31.7765867 13.2842133,31.4661867 L12.4239467,27.2261867 C12.32528,26.7392533 12.7722133,26.32592 13.2527467,26.4528533 C14.1274133,26.6837867 15.0378133,26.8389867 15.9759467,26.8389867 Z M16.02752,5.23376 C15.0253867,5.23376 14.05472,5.38896 13.1256533,5.63802667 C12.6456533,5.76709333 12.19712,5.35482667 12.2957867,4.86736 L13.16992,0.53456 C13.23232,0.223626667 13.5053867,0.00016 13.82272,0.00016 L18.0648533,0.00016 C18.3821867,0.00016 18.6557867,0.223626667 18.71872,0.53456 L19.58272,4.81936 C19.68032,5.30309333 19.23872,5.71376 18.7608533,5.59322667 C17.8829867,5.37136 16.9693867,5.23376 16.02752,5.23376 Z M5.16085333,15.9759467 C5.16085333,16.9722133 5.33258667,17.9370133 5.59072,18.8607467 C5.72565333,19.3450133 5.31178667,19.8042133 4.81898667,19.7039467 L0.534186667,18.8346133 C0.223253333,18.77168 -0.000213333333,18.49808 -0.000213333333,18.18128 L-0.000213333333,13.93808 C-0.000213333333,13.6207467 0.223253333,13.34768 0.534186667,13.2842133 L4.77365333,12.4239467 C5.26058667,12.32528 5.67392,12.7722133 5.54752,13.2527467 C5.31605333,14.1274133 5.16085333,15.0378133 5.16085333,15.9759467 Z M26.76656,16.02752 C26.76656,15.0253867 26.61136,14.05472 26.36176,13.1256533 C26.2326933,12.6456533 26.64496,12.19712 27.13296,12.2957867 L31.4652267,13.16992 C31.7766933,13.23232 32.00016,13.5053867 32.00016,13.82272 L32.00016,18.0648533 C32.00016,18.3821867 31.7766933,18.6557867 31.4652267,18.71872 L27.1804267,19.58272 C26.6966933,19.68032 26.2860267,19.23872 26.40656,18.7608533 C26.6284267,17.8829867 26.76656,16.9693867 26.76656,16.02752 Z M8.35248,8.31866667 C7.64848,9.02266667 7.08741333,9.82693333 6.61648,10.6626667 C6.36901333,11.1005333 5.75248,11.132 5.47461333,10.7128 L3.05968,7.068 C2.88421333,6.804 2.91941333,6.45306667 3.14341333,6.22853333 L6.14394667,3.228 C6.36848,3.004 6.71941333,2.9688 6.98448,3.14373333 L10.5903467,5.53306667 C11.0047467,5.80773333 10.9807467,6.41626667 10.5514133,6.66586667 C9.76954667,7.12133333 9.01594667,7.65573333 8.35248,8.31866667 Z M23.5936533,23.6326933 C24.30192,22.9238933 24.8789867,22.1276267 25.35952,21.2940267 C25.60752,20.86416 26.2160533,20.8390933 26.4917867,21.25296 L28.93712,24.9334933 C29.1125867,25.19856 29.0773867,25.5500267 28.8528533,25.77456 L25.8533867,28.7740267 C25.6288533,28.99856 25.2773867,29.0332267 25.0133867,28.85776 L21.37232,26.4396267 C20.96112,26.1660267 20.9824533,25.56336 21.4064533,25.31056 C22.1840533,24.8470933 22.9280533,24.2982933 23.5936533,23.6326933 Z M23.6811733,8.35509333 C22.97664,7.65109333 22.1729067,7.09002667 21.3371733,6.61856 C20.8993067,6.37162667 20.8673067,5.75509333 21.2865067,5.47722667 L24.9313067,3.06176 C25.19584,2.88682667 25.5467733,2.92202667 25.7707733,3.14602667 L28.7713067,6.14656 C28.99584,6.37109333 29.0305067,6.72202667 28.8555733,6.98656 L26.46624,10.59296 C26.1915733,11.00736 25.5835733,10.98336 25.3339733,10.5540267 C24.8785067,9.77216 24.3441067,9.01802667 23.6811733,8.35509333 Z M8.36709333,23.5962667 C9.07536,24.3045333 9.87162667,24.8810667 10.7052267,25.3621333 C11.1356267,25.6101333 11.1606933,26.2186667 10.7468267,26.4938667 L7.06576,28.9397333 C6.80069333,29.1152 6.44922667,29.08 6.22522667,28.8554667 L3.22522667,25.856 C3.00069333,25.6314667 2.96602667,25.28 3.14149333,25.0154667 L5.56016,21.3749333 C5.83322667,20.9637333 6.43589333,20.9850667 6.68869333,21.4090667 C7.15269333,22.1866667 7.70149333,22.9306667 8.36709333,23.5962667 Z"/>
    <path fill="#0078A0" fill-rule="nonzero" d="M16,4 C9.37278331,4 4,9.37278331 4,16 C4,22.6275453 9.37261962,28 16,28 C22.627709,28 28,22.627709 28,16 C28,9.37261962 22.6275453,4 16,4 L16,6 C21.60793,5.84615385 26.1538462,10.3922095 26,16 C26.1538462,21.6081064 21.6081064,26.1538462 16,26 C10.3922095,26.1538462 5.84615385,21.60793 6,16 C5.84615385,10.3923859 10.3923859,5.84615385 16,6"/>
  </g>
</svg>
