<svg xmlns="http://www.w3.org/2000/svg" xmlns:xlink="http://www.w3.org/1999/xlink" width="32" height="32" viewBox="0 0 32 32">
  <defs>
    <rect id="app_apm-a" width="32" height="32"/>
    <rect id="app_apm-c" width="32" height="32"/>
    <rect id="app_apm-e" width="32" height="32"/>
    <rect id="app_apm-g" width="32" height="32"/>
  </defs>
  <g fill="none" fill-rule="evenodd">
    <mask id="app_apm-b" fill="#fff">
      <use xlink:href="#app_apm-a"/>
    </mask>
    <path fill="#13A7DF" fill-rule="nonzero" d="M5.43987776,9.60012224 L26.5601222,9.60012224 L26.5601222,9.60012224 C27.7971726,9.60012224 28.8,10.6029497 28.8,11.84 L28.8,11.84 L28.8,11.84 C28.8,13.0770503 27.7971726,14.0798778 26.5601222,14.0798778 L5.43987776,14.0798778 L5.43987776,14.0798778 C4.20282742,14.0798778 3.2,13.0770503 3.2,11.84 L3.2,11.84 L3.2,11.84 C3.2,10.6029497 4.20282742,9.60012224 5.43987776,9.60012224 Z" mask="url(#app_apm-b)"/>
    <mask id="app_apm-d" fill="#fff">
      <use xlink:href="#app_apm-c"/>
    </mask>
    <path fill="#00BFB3" fill-rule="nonzero" d="M21.44,26.2398778 L29.76,26.2398778 L29.76,26.2398778 C30.9971178,26.2398778 32,27.2427599 32,28.4798778 L32,28.4798778 L32,28.4798778 C32,29.7169956 30.9971178,30.7198778 29.76,30.7198778 L21.44,30.7198778 L21.44,30.7198778 C20.2028822,30.7198778 19.2,29.7169956 19.2,28.4798778 L19.2,28.4798778 L19.2,28.4798778 C19.2,27.2427599 20.2028822,26.2398778 21.44,26.2398778 Z" mask="url(#app_apm-d)"/>
    <g>
      <mask id="app_apm-f" fill="#fff">
        <use xlink:href="#app_apm-e"/>
      </mask>
      <path fill="#00BFB3" fill-rule="nonzero" d="M2.24,1.27990221 L13.76,1.27990221 L13.76,1.27990221 C14.9971178,1.27990221 16,2.28278437 16,3.51990221 L16,3.51990221 L16,3.51990221 C16,4.75702006 14.9971178,5.75990221 13.76,5.75990221 L2.24,5.75990221 L2.24,5.75990221 C1.00288216,5.75990221 1.5150324e-16,4.75702006 0,3.51990221 L0,3.51990221 L0,3.51990221 C-1.5150324e-16,2.28278437 1.00288216,1.27990221 2.24,1.27990221 Z" mask="url(#app_apm-f)"/>
    </g>
    <g>
      <mask id="app_apm-h" fill="#fff">
        <use xlink:href="#app_apm-g"/>
      </mask>
      <path fill="#00BFB3" fill-rule="nonzero" d="M5.44,17.92 L16.96,17.92 L16.96,17.92 C18.1971178,17.92 19.2,18.9228822 19.2,20.16 L19.2,20.16 L19.2,20.16 C19.2,21.3971178 18.1971178,22.4 16.96,22.4 L5.44,22.4 L5.44,22.4 C4.20288218,22.4 3.2,21.3971178 3.2,20.16 L3.2,20.16 L3.2,20.16 C3.2,18.9228822 4.20288218,17.92 5.44,17.92 Z" mask="url(#app_apm-h)"/>
    </g>
  </g>
</svg>
