<svg xmlns="http://www.w3.org/2000/svg" width="32" height="32" viewBox="0 0 32 32">
  <g fill="none" fill-rule="evenodd" transform="translate(1 1)">
    <rect width="30" height="23" y="7" fill="#00BFB3" rx="2"/>
    <rect width="30" height="6" fill="#30A9E5" rx="2"/>
    <path fill="#0078A0" d="M3.95448269,13.3758593 C3.58511319,13.0064899 3.58511319,12.4220499 3.95448269,12.0526804 L4.62412635,11.3830367 C4.99349584,11.0136673 5.57793579,11.0136673 5.94730529,11.3830367 L12.1883842,17.6241156 C12.5577537,17.9934851 12.5577537,18.5779251 12.1883842,18.9472946 L5.94730529,25.1883734 C5.57793579,25.5577429 4.99349584,25.5577429 4.62412635,25.1883734 L3.95448269,24.5187298 C3.58511319,24.1493603 3.58511319,23.5649203 3.95448269,23.1955508 L8.86432843,18.2857051 L3.95448269,13.3758593 Z M26.7857409,24.7142842 L26.7857409,25.5714281 C26.7857409,26.0886422 26.374383,26.5 25.8571689,26.5 L13.0000107,26.5 C12.4827966,26.5 12.0714388,26.0886422 12.0714388,25.5714281 L12.0714388,24.7142842 C12.0714388,24.1970701 12.4827966,23.7857122 13.0000107,23.7857122 L25.8571689,23.7857122 C26.374383,23.7857122 26.7857409,24.1970701 26.7857409,24.7142842 Z"/>
  </g>
</svg>
