<svg xmlns="http://www.w3.org/2000/svg" width="32" height="32" viewBox="0 0 32 32">
  <g fill="none" fill-rule="evenodd">
    <path fill="#00BFB3" d="M28,15 L28,16.759375 C28,23.005375 23.1745,28.633375 16.3915,30.935875 C16.1395,31.021375 15.8605,31.021375 15.6085,30.935875 C8.8315,28.633375 4.4905,23.005375 4,16.759375 L4,15 L28,15 Z"/>
    <path fill="#00A9E5" d="M27.9976126,17 C27.9992022,16.9198977 28,16.8396874 28,16.759375 L28,5.429875 C28,4.919875 27.658,4.469875 27.157,4.318375 L16.357,1.052875 C16.1245,0.982375 15.8755,0.982375 15.643,1.052875 L4.843,4.318375 C4.342,4.469875 4,4.919875 4,5.429875 L4,16.759375 C4.00630696,16.8396874 4.01325053,16.9198977 4.02082771,17 L27.9976126,17 Z" style="mix-blend-mode:multiply"/>
  </g>
</svg>
