<svg xmlns="http://www.w3.org/2000/svg" width="32" height="32" viewBox="0 0 32 32">
  <g fill="none" transform="translate(0 2)">
    <path fill="#13A7DF" d="M29.0327273,3.31636364 C25.5418182,-0.232727273 19.84,-0.290909091 16.2327273,3.14181818 C12.5672727,-0.465454545 6.69090909,-0.465454545 3.08363636,3.14181818 C-0.523636364,6.74909091 -0.523636364,12.6254545 3.14181818,16.2327273 L6.22545455,19.3163636 L9.13454545,19.3163636 C9.6,19.3163636 9.94909091,19.0836364 10.1236364,18.6763636 L11.6363636,15.8836364 L13.9054545,22.1090909 C14.08,22.5745455 14.5454545,22.8654545 14.9527273,22.8654545 L14.9527273,22.8654545 C15.4763636,22.8654545 15.8836364,22.5745455 16,22.0509091 L19.7236364,10.88 L22.8654545,18.6181818 C23.04,19.0836364 23.5054545,19.3745455 23.9127273,19.3745455 L26.0654545,19.3745455 L29.2072727,16.2327273 C32.8145455,12.5090909 32.64,6.98181818 29.0327273,3.31636364"/>
    <path fill="#00BFB3" d="M24.7272727,16.9309091 L20.7127273,7.04 C20.5381818,6.57454545 20.0727273,6.28363636 19.6072727,6.28363636 C19.1418182,6.28363636 18.7345455,6.57454545 18.56,7.09818182 L14.8945455,18.0363636 L12.8581818,12.5672727 C12.7418182,12.1018182 12.2763636,11.8109091 11.8690909,11.8109091 C11.4036364,11.7527273 10.9963636,11.9854545 10.7636364,12.4509091 L8.32,16.9890909 L3.78181818,16.9890909 L14.1381818,27.4036364 C14.1381818,27.4036364 14.1381818,27.4036364 14.1963636,27.4618182 C14.5454545,27.9854545 15.0690909,28.2181818 15.6509091,28.3345455 L15.7090909,28.3345455 C15.8254545,28.3345455 15.8836364,28.3345455 16,28.3345455 C16.1163636,28.3345455 16.1745455,28.3345455 16.2909091,28.3345455 L16.3490909,28.3345455 C16.8727273,28.2763636 17.28,28.1018182 17.6872727,27.6945455 L28.2763636,17.0472727 L24.6690909,17.0472727 C24.7272727,17.0472727 24.7272727,16.9309091 24.7272727,16.9309091 Z"/>
    <path fill="#007D9D" d="M24.7272727,16.9309091 L20.7127273,7.04 C20.5381818,6.57454545 20.0727273,6.28363636 19.6072727,6.28363636 C19.1418182,6.28363636 18.7345455,6.57454545 18.56,7.09818182 L14.8945455,18.0363636 L12.8581818,12.5672727 C12.7418182,12.1018182 12.2763636,11.8109091 11.8690909,11.8109091 C11.4036364,11.7527273 10.9963636,11.9854545 10.7636364,12.4509091 L8.32,16.9890909 L3.84,16.9890909 L6.22545455,19.3745455 L9.13454545,19.3745455 C9.6,19.3745455 9.94909091,19.1418182 10.1236364,18.7345455 L11.6363636,15.9418182 L13.8472727,22.1090909 C14.0218182,22.5745455 14.4872727,22.8654545 14.8945455,22.8654545 L14.8945455,22.8654545 C15.4181818,22.8654545 15.8254545,22.5745455 15.9418182,22.0509091 L19.6654545,10.88 L22.8654545,18.6181818 C23.04,19.0836364 23.5054545,19.3745455 23.9127273,19.3745455 L26.0654545,19.3745455 L28.4509091,16.9890909 L24.7272727,16.9890909 L24.7272727,16.9309091 Z"/>
  </g>
</svg>
