<svg xmlns="http://www.w3.org/2000/svg" width="32" height="32" viewBox="0 0 32 32">
  <g fill="none">
    <path fill="#14A7DF" d="M30.64,12.8 C30.4,12.8 30.16,12.7219512 29.92,12.5658537 L16.08,3.43414634 L2.16,12.5658537 C1.6,12.9560976 0.8,12.8 0.4,12.2536585 C0.08,11.7073171 0.16,10.9268293 0.8,10.5365854 L15.36,0.936585366 C15.76,0.624390244 16.32,0.624390244 16.72,0.936585366 L31.36,10.5365854 C31.92,10.9268293 32.08,11.7073171 31.68,12.2536585 C31.44,12.5658537 31.12,12.8 30.64,12.8 Z"/>
    <polygon fill="#3EBEB0" points="1.44 11.551 16.08 21.151 16.08 30.751 1.44 21.151"/>
    <path fill="#3EBEB0" d="M16.08,31.9219512 C15.84,31.9219512 15.6,31.8439024 15.36,31.6878049 L0.8,22.1658537 C0.48,21.9317073 0.24,21.5414634 0.24,21.1512195 L0.24,11.5512195 C0.24,11.0829268 0.48,10.6926829 0.88,10.4585366 C1.28,10.2243902 1.76,10.302439 2.16,10.5365854 L16.8,20.1365854 C17.12,20.3707317 17.36,20.7609756 17.36,21.1512195 L17.36,30.7512195 C17.36,31.2195122 17.12,31.6097561 16.72,31.8439024 C16.48,31.9219512 16.24,31.9219512 16.08,31.9219512 Z M2.72,20.5268293 L14.8,28.4878049 L14.8,21.8536585 L2.72,13.8146341 L2.72,20.5268293 Z"/>
    <polygon fill="#14A7DF" points="30.72 11.551 16.08 21.151 16.08 30.751 30.72 21.151"/>
    <path fill="#14A7DF" d="M16.08 31.9219512C15.84 31.9219512 15.68 31.8439024 15.52 31.7658537 15.12 31.5317073 14.88 31.1414634 14.88 30.6731707L14.88 21.1512195C14.88 20.7609756 15.12 20.3707317 15.44 20.1365854L30.08 10.5365854C30.48 10.302439 30.96 10.2243902 31.36 10.4585366 31.76 10.6926829 32 11.0829268 32 11.5512195L32 21.1512195C32 21.5414634 31.76 21.9317073 31.44 22.1658537L16.8 31.7658537C16.56 31.9219512 16.32 31.9219512 16.08 31.9219512zM17.36 21.7756098L17.36 28.4097561 29.44 20.4487805 29.44 13.8146341 17.36 21.7756098zM16.08 16.9365854C15.84 16.9365854 15.6 16.8585366 15.36 16.702439L9.84 13.1121951C9.28 12.7219512 9.12 11.9414634 9.52 11.395122 9.92 10.8487805 10.72 10.6926829 11.28 11.0829268L16.08 14.2829268 20.88 11.0829268C21.44 10.6926829 22.24 10.8487805 22.64 11.395122 23.04 11.9414634 22.88 12.7219512 22.32 13.1121951L16.8 16.702439C16.56 16.8585366 16.32 16.9365854 16.08 16.9365854z"/>
    <path fill="#14A7DF" d="M16.08,16.5463415 C15.36,16.5463415 14.8,16 14.8,15.297561 L14.8,7.33658537 C14.8,6.63414634 15.36,6.08780488 16.08,6.08780488 C16.8,6.08780488 17.36,6.63414634 17.36,7.33658537 L17.36,15.297561 C17.36,16 16.8,16.5463415 16.08,16.5463415 Z"/>
    <path fill="#0279A0" d="M16.08,31.9219512 C15.36,31.9219512 14.8,31.3756098 14.8,30.6731707 L14.8,21.1512195 C14.8,20.4487805 15.36,19.902439 16.08,19.902439 C16.8,19.902439 17.36,20.4487805 17.36,21.1512195 L17.36,30.7512195 C17.36,31.3756098 16.8,31.9219512 16.08,31.9219512 Z"/>
  </g>
</svg>
