<svg xmlns="http://www.w3.org/2000/svg" width="32" height="32" viewBox="0 0 32 32">
  <g fill="none" fill-rule="evenodd">
    <path fill="#00A9E5" d="M24.4308859,2.49727273 L30.7032058,14.77 C31.0989314,15.5431818 31.0989314,16.4568182 30.7032058,17.23 L24.4308859,29.5027273 C23.962082,30.4218182 23.0093071,31 21.9696656,31 L10.0303344,31 C8.98931403,31 8.03791796,30.4218182 7.5691141,29.5027273 L1.29679421,17.23 C0.901068597,16.4568182 0.901068597,15.5431818 1.29679421,14.77 L7.5691141,2.49727273 C8.03791796,1.57954545 8.98931403,1 10.0303344,1 L21.9696656,1 C23.0093071,1 23.962082,1.57954545 24.4308859,2.49727273"/>
    <path fill="#00BFB3" d="M8.2084333,30.3207069 C7.94886371,30.094852 7.73042122,29.8189702 7.5691141,29.5027273 L1.29679421,17.23 C0.901068597,16.4568182 0.901068597,15.5431818 1.29679421,14.77 L7.5691141,2.49727273 C8.03791796,1.57954545 8.98931403,1 10.0303344,1 L21.9696656,1 C22.9550674,1 23.8624301,1.52065134 24.3536157,2.35643071 L8.2084333,30.3207069 Z"/>
    <path fill="#0078A0" d="M11.7646861,31 L10.0303344,31 C8.98931403,31 8.03791796,30.4218182 7.5691141,29.5027273 L6.75441633,27.9086499 L12.5313521,16.6957792 C10.4502307,14.3263246 10.4384646,11.5481428 11.7621461,8.977961 C13.0961229,6.38741554 15.3860919,4.74814282 18.5408661,5.03177918 L15.5302261,10.8761428 L20.7720048,13.5175974 L23.8620657,7.51905191 C25.9873098,9.80123372 26.2873443,12.8732337 24.8871835,15.5917792 C23.478198,18.3277792 20.7837708,19.9030519 17.6731193,19.5321428 L11.7646861,31 Z"/>
  </g>
</svg>
