<svg xmlns="http://www.w3.org/2000/svg" width="16" height="16" viewBox="0 0 16 16">
  <path d="M2,12 L14,12 L14,10.030739 C12.7751029,10.611548 10.5463251,11 8,11 C5.45367486,11 3.22489715,10.611548 2,10.030739 L2,12 Z M1,12 L1,3 C1,1.8954305 4.13400675,1 8,1 C11.8659932,1 15,1.8954305 15,3 L15,12 C15,13.1045695 11.8659932,14 8,14 C4.13400675,14 1,13.1045695 1,12 Z M2,9 L14,9 L14,7.03073903 C12.7751029,7.61154795 10.5463251,8 8,8 C5.45367486,8 3.22489715,7.61154795 2,7.03073903 L2,9 Z M2,4.03073903 L2,6 L14,6 L14,4.03073903 C12.7751029,4.61154795 10.5463251,5 8,5 C5.45367486,5 3.22489715,4.61154795 2,4.03073903 Z M12.6750263,2.54731039 C11.4669244,2.2021384 9.7942434,2 8,2 C6.2057566,2 4.53307561,2.2021384 3.32497366,2.54731039 C2.83334959,2.6877744 2.44511574,2.84536607 2.18860384,3 C2.44511574,3.15463393 2.83334959,3.3122256 3.32497366,3.45268961 C4.53307561,3.7978616 6.2057566,4 8,4 C9.7942434,4 11.4669244,3.7978616 12.6750263,3.45268961 C13.1666504,3.3122256 13.5548843,3.15463393 13.8113962,3 C13.5548843,2.84536607 13.1666504,2.6877744 12.6750263,2.54731039 Z M2.00012207,6 C2.25663397,6.15463393 2.83334959,6.3122256 3.32497366,6.45268961 C4.53307561,6.7978616 6.2057566,7 8,7 C9.7942434,7 11.4669244,6.7978616 12.6750263,6.45268961 C13.1666504,6.3122256 13.7452581,6.15463393 14.00177,6 C14.00177,6 2.00012207,6 2.00012207,6 Z M2.00012207,9 C2.25663397,9.15463393 2.83334959,9.3122256 3.32497366,9.45268961 C4.53307561,9.7978616 6.2057566,10 8,10 C9.7942434,10 11.4669244,9.7978616 12.6750263,9.45268961 C13.1666504,9.3122256 13.7452581,9.15463393 14.00177,9 C14.00177,9 2.00012207,9 2.00012207,9 Z M2.00012207,12 C2.25663397,12.1546339 2.83334959,12.3122256 3.32497366,12.4526896 C4.53307561,12.7978616 6.2057566,13 8,13 C9.7942434,13 11.4669244,12.7978616 12.6750263,12.4526896 C13.1666504,12.3122256 13.7452581,12.1546339 14.00177,12 C14.00177,12 2.00012207,12 2.00012207,12 Z"/>
</svg>
