<svg width="19" height="18" viewBox="0 0 19 18" fill="none" xmlns="http://www.w3.org/2000/svg">
<g clip-path="url(#clip0_1421_84666)">
<path d="M0.5 16.2359C0.5 16.5959 0.788 16.9199 1.148 16.9199H17.816C18.176 16.9199 18.5 16.6319 18.5 16.2359V4.31995H0.5V16.2359Z" fill="#A0A1A2"/>
<path d="M17.816 1.47595H1.148C0.788 1.47595 0.5 1.79995 0.5 2.15995V4.31995H18.5V2.15995C18.5 1.79995 18.212 1.58395 17.816 1.58395" fill="#7A7A7A"/>
<path d="M17.0599 9.18005H1.93994V11.7001H17.0599V9.18005Z" fill="#B8D432"/>
<path d="M17.0599 5.40002H1.93994V7.92002H17.0599V5.40002Z" fill="white"/>
<path d="M17.0599 12.96H1.93994V15.48H17.0599V12.96Z" fill="#B8D432"/>
<path opacity="0.2" d="M1.22 1.43994C0.824 1.43994 0.5 1.76394 0.5 2.15994V4.78794V5.97594V16.0559C0.5 16.4519 0.824 16.7759 1.22 16.7759H2.012L16.196 1.43994H1.22Z" fill="white"/>
</g>
<defs>
<clipPath id="clip0_1421_84666">
<rect width="18" height="18" fill="white" transform="translate(0.5)"/>
</clipPath>
</defs>
</svg>
