<svg xmlns="http://www.w3.org/2000/svg" width="16" height="16" viewBox="0 0 16 16">
  <path d="M1.01894482,8 C1.10254676,9.09899404 1.4594409,10.1215971 2.02181791,11 L4.40368841,11 C4.18019933,10.0940164 4.04077017,9.07812112 4.0076544,8 L1.01894482,8 Z M1.01894482,7 L4.0076544,7 C4.04077017,5.92187888 4.18019933,4.90598356 4.40368841,4 L2.02181791,4 C1.4594409,4.87840285 1.10254676,5.90100596 1.01894482,7 Z M13.9810552,8 L10.9923456,8 C10.9592298,9.07812112 10.8198007,10.0940164 10.5963116,11 L12.9781821,11 C13.5405591,10.1215971 13.8974532,9.09899404 13.9810552,8 Z M13.9810552,7 C13.8974532,5.90100596 13.5405591,4.87840285 12.9781821,4 L10.5963116,4 C10.8198007,4.90598356 10.9592298,5.92187888 10.9923456,7 L13.9810552,7 Z M5.00830927,8 C5.04518452,9.10676001 5.20260591,10.126832 5.4366712,11 L9.5633288,11 C9.79739409,10.126832 9.95481548,9.10676001 9.99169073,8 L5.00830927,8 Z M5.00830927,7 L9.99169073,7 C9.95481548,5.89323999 9.79739409,4.87316799 9.5633288,4 L5.4366712,4 C5.20260591,4.87316799 5.04518452,5.89323999 5.00830927,7 Z M0.0164022774,8 L0,8 L0,7 L0.0164022774,7 C0.27369532,3.09098409 3.52587865,0 7.5,0 C11.4741213,0 14.7263047,3.09098409 14.9835977,7 L15,7 L15,8 L14.9835977,8 C14.7263047,11.9090159 11.4741213,15 7.5,15 C3.52587865,15 0.27369532,11.9090159 0.0164022774,8 Z M2.80957219,12 C3.55098945,12.7725926 4.48144138,13.3623845 5.52657413,13.6950218 C5.20958281,13.2304541 4.9300672,12.657078 4.69974367,12 L2.80957219,12 Z M12.1904278,12 L10.3002563,12 C10.0699328,12.657078 9.79041719,13.2304541 9.47342587,13.6950218 C10.5185586,13.3623845 11.4490105,12.7725926 12.1904278,12 Z M5.76185069,12 C6.24600608,13.2396967 6.89365779,14 7.5,14 C8.10634221,14 8.75399392,13.2396967 9.23814931,12 L5.76185069,12 Z M2.80957219,3 L4.69974367,3 C4.9300672,2.34292204 5.20958281,1.76954592 5.52657413,1.30497818 C4.48144138,1.63761552 3.55098945,2.2274074 2.80957219,3 Z M12.1904278,3 C11.4490105,2.2274074 10.5185586,1.63761552 9.47342587,1.30497818 C9.79041719,1.76954592 10.0699328,2.34292204 10.3002563,3 L12.1904278,3 Z M5.76185069,3 L9.23814931,3 C8.75399392,1.76030334 8.10634221,1 7.5,1 C6.89365779,1 6.24600608,1.76030334 5.76185069,3 Z"/>
</svg>
