<svg xmlns="http://www.w3.org/2000/svg" width="16" height="16" fill="none"><g clip-path="url(#a)"><path fill="#244B5A" d="M2.013 10.721c.114.152.263.275.433.359a1.3 1.3 0 0 0 .595.135c.166.004.332-.024.488-.083a.85.85 0 0 0 .324-.227.9.9 0 0 0 .178-.336 1.5 1.5 0 0 0 .055-.41v-.483h-.012a1.03 1.03 0 0 1-.448.39 1.448 1.448 0 0 1-1.55-.273 1.3 1.3 0 0 1-.298-.433 1.4 1.4 0 0 1-.11-.545 1.43 1.43 0 0 1 .388-.987q.185-.193.43-.296c.174-.072.36-.109.549-.106q.129 0 .255.023.14.024.27.08c.206.089.383.232.514.413h.012v-.447h.379v2.664q-.003.235-.055.464a1.15 1.15 0 0 1-.212.454 1.2 1.2 0 0 1-.44.345q-.28.137-.735.137c-.245.005-.49-.04-.717-.132a1.7 1.7 0 0 1-.574-.407zm.069-1.917a1.03 1.03 0 0 0 .29.726q.136.142.316.224a.9.9 0 0 0 .393.083c.268 0 .527-.1.723-.284a.9.9 0 0 0 .221-.325c.053-.135.078-.28.072-.424a1.1 1.1 0 0 0-.069-.4.96.96 0 0 0-.522-.55 1.05 1.05 0 0 0-.818 0 1.03 1.03 0 0 0-.529.55 1 1 0 0 0-.077.4m3.927 1.377h-.413V6.118h1.251q.62 0 .979.27.36.27.359.815c.007.264-.089.52-.267.714q-.268.291-.772.336l1.17 1.93h-.504l-1.114-1.89h-.69zm0-2.267h.735q.238.005.468-.058a.9.9 0 0 0 .307-.152.56.56 0 0 0 .166-.224.74.74 0 0 0 0-.551.6.6 0 0 0-.166-.227.8.8 0 0 0-.307-.152 1.7 1.7 0 0 0-.468-.054h-.735zm3.02-1.797h1.182q.62 0 .98.27.358.27.358.815t-.359.818q-.358.273-.979.273h-.769v1.889H9.03zm.413 1.797h.666q.239.005.468-.058a.9.9 0 0 0 .307-.152.56.56 0 0 0 .167-.224.7.7 0 0 0 .051-.278.7.7 0 0 0-.051-.273.6.6 0 0 0-.167-.227.8.8 0 0 0-.307-.152 1.7 1.7 0 0 0-.468-.054h-.666zM15.7 9.538a1.6 1.6 0 0 1-.603.531 2 2 0 0 1-.901.216 2.2 2.2 0 0 1-.841-.16 2.02 2.02 0 0 1-1.117-1.12 2.2 2.2 0 0 1-.16-.856 2.2 2.2 0 0 1 .16-.855 2.02 2.02 0 0 1 1.117-1.12c.267-.109.553-.163.84-.16.26 0 .518.051.759.149.257.102.48.273.648.493l-.361.27a1 1 0 0 0-.172-.195 1.3 1.3 0 0 0-.25-.172 1.6 1.6 0 0 0-.302-.12 1.2 1.2 0 0 0-.321-.047 1.59 1.59 0 0 0-1.226.528 1.7 1.7 0 0 0-.33.56 2 2 0 0 0 0 1.338c.073.206.185.396.33.56a1.59 1.59 0 0 0 1.226.528q.16 0 .319-.029.16-.03.31-.097.156-.072.287-.187.144-.13.25-.296z"/><path fill="#75CACA" d="m.328 5.314-.019.167v-.167z"/><path fill="#74CBCA" d="m.353 5.314-.044.388v-.22l.02-.168zM.378 5.314l-.069.609v-.22l.044-.389z"/><path fill="#73CBCA" d="m.403 5.314-.094.83v-.221l.069-.609z"/><path fill="#73CBCA" d="m.428 5.314-.119 1.05v-.22l.094-.83z"/><path fill="#72C9C9" d="M.453 5.314.309 6.585v-.22l.119-1.05zm.025 0L.309 6.806v-.221l.144-1.27z"/><path fill="#70CACA" d="M.503 5.314.309 7.026v-.22l.169-1.492zM.528 5.314.309 7.247v-.22l.194-1.713z"/><path fill="#6FCAC8" d="M.553 5.314.312 7.446H.309v-.199l.219-1.933z"/><path fill="#6EC8C8" d="m.577 5.314-.24 2.134H.322l-.011-.002.24-2.132z"/><path fill="#6EC8C8" d="m.602 5.314-.24 2.134H.335l.241-2.134z"/><path fill="#6CC9C9" d="m.627 5.314-.24 2.134H.36l.241-2.134z"/><path fill="#6DC9C8" d="m.652 5.314-.24 2.134H.385l.241-2.134z"/><path fill="#69C7C8" d="m.677 5.314-.24 2.134H.41l.241-2.134z"/><path fill="#69C7C8" d="m.702 5.314-.24 2.134H.435l.241-2.134z"/><path fill="#69C8C7" d="m.727 5.314-.24 2.134H.46l.241-2.134z"/><path fill="#68C8C7" d="M.752 5.314.511 7.448H.486l.241-2.134z"/><path fill="#67C7C7" d="M.777 5.314.536 7.448H.511l.241-2.134z"/><path fill="#65C7C7" d="M.802 5.314.56 7.448H.536l.24-2.134z"/><path fill="#64C7C7" d="M.827 5.314.586 7.448H.56L.8 5.314z"/><path fill="#63C6C6" d="M.852 5.314.61 7.448H.586l.24-2.134z"/><path fill="#60C6C6" d="M.877 5.314.636 7.448H.61l.24-2.134z"/><path fill="#60C6C5" d="M.902 5.314.66 7.448H.636l.24-2.134z"/><path fill="#5FC6C5" d="m.926 5.314-.24 2.134H.66L.9 5.314z"/><path fill="#5CC5C4" d="M.952 5.314.71 7.448H.686l.24-2.134z"/><path fill="#5AC5C4" d="m.976 5.314-.24 2.134H.71l.241-2.134z"/><path fill="#5AC5C4" d="m1.001 5.314-.24 2.134H.734l.241-2.134z"/><path fill="#57C4C4" d="m1.026 5.314-.24 2.134H.76l.241-2.134z"/><path fill="#58C4C3" d="m1.051 5.314-.24 2.134H.784l.241-2.134z"/><path fill="#55C4C3" d="m1.076 5.314-.24 2.134H.81l.241-2.134z"/><path fill="#53C3C2" d="m1.101 5.314-.24 2.134H.834l.241-2.134z"/><path fill="#52C3C2" d="M1.126 5.314.885 7.448H.86l.241-2.134z"/><path fill="#50C3C2" d="M1.151 5.314.91 7.448H.885l.241-2.134z"/><path fill="#50C1C0" d="M1.176 5.314.935 7.448H.91l.241-2.134z"/><path fill="#4BC2C0" d="M1.2 5.314.96 7.448H.935l.241-2.134z"/><path fill="#4CC1C0" d="M1.226 5.314.985 7.448H.96l.24-2.134z"/><path fill="#47C1BE" d="m1.25 5.314-.24 2.134H.985l.24-2.134z"/><path fill="#46C0BE" d="m1.276 5.314-.241 2.134H1.01l.24-2.134z"/><path fill="#43C0BE" d="m1.3 5.314-.24 2.134h-.025l.24-2.134z"/><path fill="#40BFBD" d="m1.326 5.314-.241 2.134H1.06l.24-2.134z"/><path fill="#3BBFBD" d="m1.35 5.314-.24 2.134h-.025l.24-2.134z"/><path fill="#39BFBC" d="m1.375 5.314-.24 2.134h-.026l.242-2.134z"/><path fill="#34BEBD" d="m1.4 5.314-.24 2.134h-.026l.241-2.134z"/><path fill="#32BEBB" d="m1.425 5.314-.24 2.134h-.026L1.4 5.314z"/><path fill="#2DBDBB" d="m1.45 5.314-.24 2.134h-.026l.241-2.134z"/><path fill="#24BCBB" d="m1.475 5.314-.24 2.134h-.026l.241-2.134z"/><path fill="#21BCB9" d="m1.5 5.314-.24 2.134h-.026l.241-2.134z"/><path fill="#18BBB9" d="m1.525 5.314-.241 2.134h-.025L1.5 5.314z"/><path fill="#0FBAB9" d="m1.55 5.314-.241 2.134h-.025l.241-2.134z"/><path fill="#03BBB8" d="m1.575 5.314-.241 2.134h-.025l.241-2.134z"/><path fill="#06B8B6" d="m1.6 5.314-.241 2.134h-.025l.24-2.134z"/><path fill="#06B8B6" d="m1.625 5.314-.241 2.134h-.025l.24-2.134z"/><path fill="#03B7B5" d="m1.65 5.314-.241 2.134h-.025l.24-2.134z"/><path fill="#04B7B4" d="m1.675 5.314-.241 2.134h-.025l.24-2.134z"/><path fill="#00B6B5" d="m1.7 5.314-.241 2.134h-.025l.24-2.134z"/><path fill="#03B6B4" d="m1.725 5.314-.241 2.134h-.025l.24-2.134z"/><path fill="#05B6B2" d="m1.75 5.314-.242 2.134h-.024l.24-2.134z"/><path fill="#01B5B1" d="m1.774 5.314-.24 2.134h-.025l.24-2.134z"/><path fill="#01B5B1" d="m1.8 5.314-.242 2.134h-.025l.241-2.134z"/><path fill="#00B4B1" d="m1.824 5.314-.24 2.134h-.026L1.8 5.314z"/><path fill="#00B3B0" d="m1.85 5.314-.242 2.134h-.025l.241-2.134z"/><path fill="#00B3B0" d="m1.874 5.314-.24 2.134h-.026l.241-2.134z"/><path fill="#00B2AF" d="m1.899 5.314-.241 2.134h-.025l.241-2.134z"/><path fill="#00B2AE" d="m1.924 5.314-.241 2.134h-.025L1.9 5.314z"/><path fill="#00B1AE" d="m1.949 5.314-.241 2.134h-.025l.241-2.134z"/><path fill="#00B1AD" d="m1.974 5.314-.241 2.134h-.025l.24-2.134z"/><path fill="#00B0AC" d="m1.999 5.314-.241 2.134h-.025l.241-2.134z"/><path fill="#00AFAC" d="m2.024 5.314-.241 2.134h-.025l.24-2.134z"/><path fill="#00AFAC" d="m2.428 5.314.014.002v2.132h-.66l.242-2.134z"/><path fill="#75CACA" d="M4.916 6.108 4.9 5.743h.017z"/><path fill="#74CBCA" d="m4.916 6.492-.035-.75H4.9l.017.366zM4.916 6.876l-.053-1.133h.018l.035.75z"/><path fill="#73CBCA" d="m4.904 6.994-.058-1.251h.017l.053 1.133v.118z"/><path fill="#72C9C9" d="m4.886 6.994-.058-1.251h.017l.059 1.25zm-.018 0L4.81 5.743h.018l.058 1.25z"/><path fill="#70CACA" d="m4.85 6.994-.058-1.251h.018l.058 1.25z"/><path fill="#6FCAC8" d="m4.832 6.994-.058-1.251h.018l.058 1.25z"/><path fill="#6EC8C8" d="m4.814 6.994-.058-1.251h.018l.058 1.25z"/><path fill="#6EC8C8" d="m4.796 6.994-.058-1.251h.018l.058 1.25z"/><path fill="#6CC9C9" d="M4.779 6.994 4.72 5.743h.018l.058 1.25z"/><path fill="#6DC9C8" d="m4.76 6.994-.058-1.251h.018l.058 1.25z"/><path fill="#69C7C8" d="m4.743 6.994-.059-1.251h.018l.059 1.25z"/><path fill="#69C7C8" d="m4.725 6.994-.058-1.251h.017l.059 1.25z"/><path fill="#69C8C7" d="m4.707 6.994-.058-1.251h.018l.058 1.25z"/><path fill="#68C8C7" d="m4.69 6.994-.06-1.251h.019l.058 1.25z"/><path fill="#67C7C7" d="m4.671 6.994-.058-1.251h.018l.058 1.25z"/><path fill="#65C7C7" d="m4.653 6.994-.058-1.251h.018l.058 1.25z"/><path fill="#64C7C7" d="m4.635 6.994-.058-1.251h.018l.058 1.25z"/><path fill="#63C6C6" d="M4.617 6.994 4.56 5.743h.018l.058 1.25z"/><path fill="#60C6C6" d="M4.6 6.994 4.54 5.743h.018l.059 1.25z"/><path fill="#60C6C5" d="m4.582 6.994-.058-1.251h.017l.059 1.25z"/><path fill="#5FC6C5" d="m4.564 6.994-.058-1.251h.018l.058 1.25z"/><path fill="#5FC6C5" d="m4.546 6.994-.058-1.251h.018l.058 1.25z"/><path fill="#5CC5C4" d="M4.528 6.994 4.47 5.743h.018l.058 1.25z"/><path fill="#5AC5C4" d="m4.51 6.994-.058-1.251h.018l.058 1.25z"/><path fill="#5AC5C4" d="m4.492 6.994-.058-1.251h.018l.058 1.25z"/><path fill="#57C4C4" d="m4.474 6.994-.058-1.251h.018l.058 1.25z"/><path fill="#58C4C3" d="m4.457 6.994-.059-1.251h.018l.058 1.25z"/><path fill="#55C4C3" d="M4.439 6.994 4.38 5.743h.018l.059 1.25z"/><path fill="#53C3C2" d="m4.42 6.994-.057-1.251h.017l.059 1.25zm-.017 0-.058-1.251h.018l.058 1.25z"/><path fill="#52C3C2" d="m4.385 6.994-.058-1.251h.018l.058 1.25z"/><path fill="#50C3C2" d="M4.367 6.994 4.31 5.743h.018l.058 1.25z"/><path fill="#50C1C0" d="M4.35 6.994 4.29 5.743h.018l.058 1.25z"/><path fill="#4DC2C1" d="m4.331 6.994-.058-1.251h.018l.058 1.25z"/><path fill="#4CC2C0" d="m4.314 6.994-.059-1.251h.018l.058 1.25z"/><path fill="#4BC0BF" d="m4.296 6.994-.059-1.251h.018l.058 1.25z"/><path fill="#47C1BE" d="m4.278 6.994-.059-1.251h.018l.059 1.25z"/><path fill="#46C0BE" d="m4.26 6.994-.058-1.251h.017l.059 1.25z"/><path fill="#43C0BE" d="m4.242 6.994-.058-1.251h.018l.058 1.25z"/><path fill="#41C0BE" d="m4.224 6.994-.058-1.251h.018l.058 1.25z"/><path fill="#40BFBD" d="m4.206 6.994-.058-1.251h.018l.058 1.25z"/><path fill="#3BBFBD" d="M4.188 6.994 4.13 5.743h.018l.058 1.25z"/><path fill="#3CBFBC" d="m4.17 6.994-.058-1.251h.018l.058 1.25z"/><path fill="#39BFBC" d="m4.153 6.994-.059-1.251h.018l.058 1.25z"/><path fill="#34BEBD" d="m4.135 6.994-.059-1.251h.018l.058 1.25z"/><path fill="#32BEBB" d="m4.117 6.994-.059-1.251h.018l.059 1.25z"/><path fill="#2FBEBC" d="M4.099 6.994 4.04 5.743h.017l.059 1.25z"/><path fill="#2DBDBB" d="m4.081 6.994-.058-1.251h.018l.058 1.25z"/><path fill="#2BBDBA" d="m4.063 6.994-.058-1.251h.018l.058 1.25z"/><path fill="#24BCBB" d="m4.045 6.994-.058-1.251h.018l.058 1.25z"/><path fill="#21BCB9" d="M4.027 6.994 3.97 5.743h.018l.058 1.25z"/><path fill="#18BBB9" d="M4.01 6.994 3.95 5.743h.018l.058 1.25z"/><path fill="#16BAB9" d="m3.992 6.994-.059-1.251h.018l.058 1.25z"/><path fill="#11BAB7" d="m3.974 6.994-.059-1.251h.018l.059 1.25z"/><path fill="#03BBB8" d="m3.956 6.994-.059-1.251h.018l.059 1.25z"/><path fill="#06B8B6" d="M3.938 6.994 3.88 5.743h.017l.059 1.25z"/><path fill="#06B8B6" d="m3.92 6.994-.058-1.251h.018l.058 1.25z"/><path fill="#06B8B6" d="m3.902 6.994-.058-1.251h.018l.058 1.25z"/><path fill="#00B7B6" d="m3.884 6.994-.058-1.251h.018l.058 1.25z"/><path fill="#03B7B5" d="m3.866 6.994-.058-1.251h.018l.058 1.25z"/><path fill="#04B7B4" d="M3.848 6.994 3.79 5.743h.018l.058 1.25z"/><path fill="#00B6B5" d="m3.83 6.994-.058-1.251h.018l.058 1.25z"/><path fill="#00B6B5" d="m3.813 6.994-.059-1.251h.018l.059 1.25z"/><path fill="#00B6B5" d="m3.795 6.994-.059-1.251h.018l.059 1.25z"/><path fill="#03B6B4" d="m3.777 6.994-.058-1.251h.018l.058 1.25zm-.018 0-.058-1.251h.018l.058 1.25z"/><path fill="#05B6B2" d="m3.741 6.994-.058-1.251H3.7l.058 1.25z"/><path fill="#01B5B1" d="m3.724 6.994-.058-1.251h.018l.058 1.25zM3.705 6.994l-.04-.869v-.382l.058 1.25zm-.018 0-.022-.485v-.384l.04.869z"/><path fill="#00B4B1" d="m3.67 6.994-.005-.1v-.385l.022.485z"/><path fill="#00B4B1" d="m3.665 6.893.005.1h-.005z"/><path fill="#244B5A" d="m1.419 5.736-.644.648.649.644.548-.002-.575-.57 2.84-.011-.249.25h.274l.322-.325-.324-.322-.274.001.25.25-2.84.01.571-.575z"/></g><defs><clipPath id="a"><path fill="#fff" d="M0 5h16v6.857H0z"/></clipPath></defs></svg>