<svg xmlns="http://www.w3.org/2000/svg" width="19" height="18" fill="none"><g clip-path="url(#a)"><path fill="#A0A1A2" d="M.5 16.128c0 .36.288.684.648.684h16.668c.36 0 .684-.288.684-.684V4.212H.5z"/><path fill="#7A7A7A" d="M17.816 1.44H1.148c-.36 0-.648.324-.648.684v2.052h18V2.124a.684.684 0 0 0-.684-.684"/><path fill="#804998" d="M6.152 5.436h-4.32v10.008h4.32zM11.66 5.436H7.34v10.008h4.32zM17.168 5.436h-4.32v10.008h4.32z"/><path fill="#fff" d="M1.22 1.44a.72.72 0 0 0-.72.72v13.896c0 .396.324.72.72.72h.792L16.196 1.44z" opacity=".2"/></g><defs><clipPath id="a"><path fill="#fff" d="M.5 0h18v18H.5z"/></clipPath></defs></svg>