<svg xmlns="http://www.w3.org/2000/svg" width="19" height="18" fill="none"><g clip-path="url(#a)"><path fill="#59B4D9" d="M14 1.188H5L.5 9 5 16.812h9L18.5 9zM9.068 5.292h2.088V7.38H9.068zm0 2.592h2.088v2.088H9.068zm0 2.628h2.088V12.6H9.068zM6.44 5.292h2.088V7.38H6.44zm0 2.592h2.088v2.088H6.44zm0 2.628h2.088V12.6H6.44zm7.308 3.204H5.252V5.22h.54v7.92h7.956zm0-1.116H11.66v-2.088h2.088zm0-2.628H11.66V7.884h2.088zm0-2.592H11.66V5.292h2.088z"/><path fill="#0072C6" d="M11.156 5.292H9.068V7.38h2.088zM11.156 7.884H9.068v2.088h2.088zM11.156 10.512H9.068V12.6h2.088zM8.528 5.292H6.44V7.38h2.088zM8.528 7.884H6.44v2.088h2.088zM8.528 10.512H6.44V12.6h2.088zM13.748 10.512H11.66V12.6h2.088zM13.748 7.884H11.66v2.088h2.088zM13.748 5.292H11.66V7.38h2.088z"/></g><defs><clipPath id="a"><path fill="#fff" d="M.5 0h18v18H.5z"/></clipPath></defs></svg>