<svg width="16" height="16" viewBox="0 0 16 16" fill="none" xmlns="http://www.w3.org/2000/svg">
<path d="M14 1C14.5523 1 15 1.44771 15 2V14C15 14.5523 14.5523 15 14 15H2C1.44772 15 1 14.5523 1 14V2C1 1.44772 1.44771 1 2 1H14ZM6.5 12.5605V14H7.14648L14 7.14648V5.06055L6.5 12.5605ZM8.56055 14H10.6465L14 10.6465V8.56055L8.56055 14ZM12.0605 14H14V12.0605L12.0605 14ZM2 14H5.5V2H2V14ZM6.5 9.06055V11.1465L14 3.64648V2H13.5605L6.5 9.06055ZM6.5 5.56055V7.64648L12.1465 2H10.0605L6.5 5.56055ZM6.5 4.14648L8.64648 2H6.5V4.14648Z" fill="#1D2A3E"/>
</svg>
