<svg width="500" height="500" xmlns="http://www.w3.org/2000/svg" data-name="Layer 1">

 <title>unblock-user</title>
 <g>
  <title>Layer 1</title>
  <text font-weight="bold" transform="matrix(1.42061 0 0 1.51886 -45.5306 -184.232)" stroke="null" xml:space="preserve" text-anchor="start" font-family="sans-serif" font-size="124" stroke-width="0" id="svg_4" y="429.5168" x="39.9989" fill="#000000">LDAP</text>
  <path fill="#000000" stroke="null" id="svg_1" fill-rule="evenodd" d="m358.05907,188.98295a58.83094,59.83853 0 1 1 -58.83094,59.88982a58.80572,59.81288 0 0 1 58.83094,-59.88982zm-157.35321,-35.90825c-5.04337,-8.2589 -14.62578,-19.4674 -14.62578,-29.11133a15.28142,15.54314 0 0 1 10.28848,-14.15811c-0.47912,-8.18195 -0.80694,-16.4665 -0.80694,-24.67409c0,-4.87326 0,-9.77217 0.27739,-14.59414a31.89933,32.44566 0 0 1 1.61388,-7.30989a50.98849,51.86177 0 0 1 22.69517,-29.44476a65.38732,66.5072 0 0 1 12.43191,-6.13005c7.81723,-2.89831 4.0347,-15.38925 12.60843,-15.64574c20.17349,-0.51297 52.95541,17.3129 65.86644,31.47101a46.70163,47.50148 0 0 1 13.13798,31.83009l-0.80694,35.7287a11.52411,11.72148 0 0 1 8.42243,7.33554c2.72342,11.2598 -8.75025,25.28966 -14.09623,34.26673c-5.04337,8.2589 -23.7795,30.7785 -23.80472,31.03498a7.18681,7.30989 0 0 0 1.68953,4.1551a46.60076,47.39888 0 0 0 6.22856,7.02776a77.39055,78.716 0 0 0 -12.88582,89.41153l-181.93965,0c0,-81.38347 85.9895,-55.52954 115.21584,-96.43929c1.43736,-2.15449 2.11822,-3.30869 2.093,-4.25769c0,-0.51297 -21.66128,-27.49546 -23.60298,-30.6246l0,0.12824zm182.0153,89.00115a1.58866,1.61587 0 0 1 1.58866,1.61587l0,32.26612a1.58866,1.61587 0 0 1 -1.58866,1.59022l-49.3494,0a1.58866,1.61587 0 0 1 -1.58866,-1.59022l0,-32.39437a1.58866,1.61587 0 0 1 1.53823,-1.61587l5.32076,0l0,-13.59384a20.17349,20.519 0 0 1 5.95118,-14.56849l0,0a20.17349,20.519 0 0 1 28.64635,0l0,0a20.17349,20.519 0 0 1 6.10248,14.312l-7.89288,0a12.38148,12.59353 0 0 0 -21.15695,-8.77187l0,0a12.38148,12.59353 0 0 0 -3.7321,8.92576l0,13.69643l36.16098,0.12824zm-24.0821,16.90252l2.52169,11.74713l-6.8842,0l2.01735,-11.90102a4.66512,4.74502 0 1 1 2.34517,0l0,0.15389z" class="cls-1"/>
 </g>
</svg>