<svg width="32" height="32" viewBox="0 0 32 32" fill="none" xmlns="http://www.w3.org/2000/svg">
<path d="M0 4C0 1.79086 1.79086 0 4 0H28C30.2091 0 32 1.79086 32 4V28C32 30.2091 30.2091 32 28 32H4C1.79086 32 0 30.2091 0 28V4Z" fill="#0B64DD"/>
<path fill-rule="evenodd" clip-rule="evenodd" d="M11 9.99959C11 9.2223 11.848 8.74218 12.5145 9.1421L22.5145 15.1421C23.1618 15.5305 23.1618 16.4687 22.5145 16.8571L12.5145 22.8571C11.848 23.257 11 22.7769 11 21.9996V9.99959ZM12 21.9996L22 15.9996L12 9.99959V21.9996Z" fill="white"/>
</svg>

