<svg xmlns="http://www.w3.org/2000/svg" width="256" height="252" preserveAspectRatio="xMidYMid"><g fill="#B5010F"><path d="M252.723 5.11c13.508 13.5-23.939 72.848-30.27 79.182-6.33 6.321-22.409.505-35.91-13-13.508-13.5-19.327-29.583-12.996-35.914 6.327-6.333 65.671-43.777 79.176-30.269M63.305 19.394c-20.622-11.7-49.966-24.716-59.3-15.38-9.458 9.454 4.034 39.458 15.858 60.117a126.8 126.8 0 0 1 43.442-44.737"/><path d="M232.123 79.636c1.899 6.44 1.558 11.76-1.522 14.834-7.193 7.196-26.624-.464-44.14-17.134a89 89 0 0 1-3.627-3.428c-6.334-6.336-11.262-13.08-14.414-19.291-6.135-11.006-7.67-20.726-3.033-25.364 2.527-2.524 6.57-3.212 11.502-2.325 3.216-2.034 7.013-4.3 11.176-6.621-16.929-8.83-36.176-13.817-56.593-13.817C63.753 6.49 8.854 61.38 8.854 129.105c0 67.713 54.9 122.61 122.618 122.61 67.72 0 122.616-54.897 122.616-122.61 0-21.87-5.74-42.377-15.767-60.156-2.167 3.955-4.274 7.578-6.198 10.687"/></g></svg>