<svg xmlns="http://www.w3.org/2000/svg" width="16" height="16" viewBox="0 0 16 16">
  <path fill-rule="evenodd" d="M2.786.357a.25.25 0 0 1 .428 0l2.559 4.264A.25.25 0 0 1 5.558 5H.442a.25.25 0 0 1-.215-.379L2.786.357ZM3 1.944 4.234 4H1.766L3 1.944Z"/>
  <path d="M8.5 2a.5.5 0 0 0 0 1h7a.5.5 0 0 0 0-1h-7Z"/>
  <path fill-rule="evenodd" d="M1.5 6a.5.5 0 0 0-.5.5v3a.5.5 0 0 0 .5.5h3a.5.5 0 0 0 .5-.5v-3a.5.5 0 0 0-.5-.5h-3ZM2 7v2h2V7H2Z"/>
  <path d="M8.5 7.5a.5.5 0 0 0 0 1h7a.5.5 0 0 0 0-1h-7Z"/>
  <path fill-rule="evenodd" d="M3 16a2.5 2.5 0 1 0 0-5 2.5 2.5 0 0 0 0 5Zm0-1a1.5 1.5 0 1 0 0-3 1.5 1.5 0 0 0 0 3Z"/>
  <path d="M8.5 13a.5.5 0 0 0 0 1h7a.5.5 0 1 0 0-1h-7Z"/>
</svg>
