<svg xmlns="http://www.w3.org/2000/svg" width="400" height="400" fill="none"><style>.B{fill:#d4dae5}.C{fill:#7de2d1}.D{fill:#f5f7fa}.E{fill-rule:evenodd}</style><g clip-path="url(#G)"><mask id="A" width="400" height="400" x="0" y="0" maskUnits="userSpaceOnUse"><path fill="#fff" d="M400 0H0v400h400V0Z"/></mask><g mask="url(#A)"><path d="M180 343a4.4 4.4 0 0 1-2.2-4.7l.2-3.3a24 24 0 1 0-24 24 24 24 0 1 0 23.8 20.7c-.3-2 .5-3.8 2.2-4.7s3.7-.3 5 1a24 24 0 0 0 41-17 24 24 0 0 0-41-17 4.4 4.4 0 0 1-5 1zm-1.8 12.7c.3-2-.5-3.8-2.2-4.7s-3.7-.3-5 1a24 24 0 0 1-17 7 24 24 0 0 1 17 7c1.3 1.3 3.3 1.8 5 1s2.5-2.8 2.2-4.7a24.2 24.2 0 0 1 0-6.6z" class="B E"/><mask id="B" width="96" height="96" x="130" y="311" mask-type="alpha" maskUnits="userSpaceOnUse"><path fill="#20377d" d="M180 343a4.4 4.4 0 0 1-2.2-4.7l.2-3.3a24 24 0 1 0-24 24 24 24 0 1 0 23.8 20.7c-.3-2 .5-3.8 2.2-4.7s3.7-.3 5 1a24 24 0 0 0 41-17 24 24 0 0 0-41-17 4.4 4.4 0 0 1-5 1zm-1.8 12.7c.3-2-.5-3.8-2.2-4.7s-3.7-.3-5 1a24 24 0 0 1-17 7 24 24 0 0 1 17 7c1.3 1.3 3.3 1.8 5 1s2.5-2.8 2.2-4.7a24.2 24.2 0 0 1 0-6.6z" class="E"/></mask><g class="D" mask="url(#B)"><path d="M160.7 369.4c-.8.7-.4 2.2.9 3 .4.4.4.6.5 1 0 .4.7.9 1.2.9.6 0 .7-.4.6-.8 0-.3-.2-.6 0-.9l.8-1.7c2 .4 2.4 0 2-1.4-.2-.8-1-1.4-1.9-1.1-.6.2-1 .6-1.7 1-.8-.3-1.7-.6-2.4 0zm7 32.5c0-.8-.8-1.8-1.7-2-.8-.2-1.8.5-1.8 1.3 0 .7.8 1.5 2 1.7.8.1 1.5-.3 1.5-1zm2.6-6.2c0-.8-.8-1.7-1.7-1.8-1 0-1.7.5-1.7 1.3s.7 1.4 1.7 1.6c1.1.1 1.8-.3 1.7-1.1zm4.4-26.9c0 .4-.3.8.2 1.1.6.4.8 1 1 1.5.1.5.5.7 1 .7.6-.1 1-.6.7-1-.6-.6-.5-1.1-.3-1.5 0-.6-.5-1.3-1-1.4-.4-.2-1.4.2-1.6.6zm-14-9c0 .9.6 1.7 1.3 1.9.9.2 2-.5 2-1.2s-.8-1.5-1.6-1.7c-1-.1-1.7.4-1.7 1zm-2.1 31.8c.5-.3.7-.9.4-1.4a1.6 1.6 0 0 0-.8-.7c-.9-.2-1.6 0-2 .9l.7.9c.5.4 1.3.6 1.7.3zm30.8-21.1c0-.7-.5-1.3-1.2-1.3-.7-.1-1.3.2-1.3.6 0 .7.9 1.5 1.7 1.6.4 0 .9-.4.8-1zm-36.3 3.6c.7 0 1-.3 1-1s-.4-1.2-1-1.2c-.4 0-1.4.5-1.4.9 0 .6.6 1.2 1.4 1.3zm5.6 21.5c.8.2 1 0 1-.8 0-.7-.3-1.2-.9-1.3-.5 0-1.4.6-1.4 1 0 .6.5 1 1.3 1.1zm19.5-29.6c-1 0-1.4.1-1.4.8 0 .4.8 1.1 1.3 1.2.5 0 1.1-.6 1-1.1 0-.5-.3-.8-.9-.9zM152.9 400c-.6 0-1 .1-1 .5 0 .5.8 1.4 1.3 1.5.7.1 1-.2 1-1 0-.6-.5-1-1.3-1zm6.9-20c-.6 0-1 .3-1 .8.1.4.7 1 1.1 1 .4 0 1-.6 1-1 0-.2-.7-.7-1.1-.8zm20.7-10.4c.3.3.6.5 1 .5.5 0 1-.3 1-.7-.2-.6-.7-.8-1.3-1.1-.8.5-1 .8-.6 1.3zm-.4 22.5c.6 0 1-.2 1-.7s-.6-1-1-1c-.5 0-1 .4-1 .8a1.1 1.1 0 0 0 1 1zm-.5-34.6c.5.1.9-.1.9-.6s-.3-.8-.8-.9-.9.2-.9.6c0 .4.4.9.8 1zm-25.4 5.6c.4 0 .8-.3.8-.6 0-.4-.4-1-.9-1s-.8.2-.8.6c0 .4.4 1 .9 1zm28.7 1.2c0 .2 0 .6.2.8.3.2.8.3 1 .2.7-.1.4-.6.3-1.2-.7-.2-1.3-.3-1.5.2zm-17.8 13.6c.4 0 .7-.2.7-.6 0-.4-.4-.8-1-.8-.3 0-.5.2-.5.6s.4.8.8.8zm11.2-21c.3 0 .6-.3.6-.8 0-.3-.2-.5-.6-.6-.4 0-.8 0-.8.5 0 .4.5.9.8 1zm20.8 19h.9c.4-.3 0-1-.3-1.1s-1 0-1 .5c0 .2.3.5.4.6zm-8.1-10.5c.4 0 1-.5.8-.8-.1-.2-.5-.4-.9-.5-.3 0-.7 0-.6.5 0 .3.2.7.7.8zm0 15c.8.1 1.5-.3 1.4-.8s-.9-1.3-1.4-1.3c-.9-.1-1.4.2-1.3.9 0 .7.6 1.1 1.3 1.2zm4-4.4c0-.2-.6-.6-.9-.7-.3-.1-.8.2-.7.5.1.2.5.5.7.5.2 0 .8 0 .8-.3zm-53.4 4.1c-.2 0-.4.2-.4.3s.1.6.3.6.5-.3.5-.4c0-.2-.3-.4-.4-.5zm17-23.8c.1 0 .5 0 .5-.2s-.3-.4-.4-.4a.6.6 0 0 0-.5.2l.3.4zm-9.6 44.2.4.4s.4-.2.3-.3c0-.2-.2-.5-.4-.6s-.4.4-.3.5zm27.6-38.3c-.3-.3-.6-.2-.8.1-.1.3 0 .8.1 1 .3.4.6.3.7.2.2-.1.2-.4.2-.6 0-.3 0-.5-.2-.7zm-3 5.4c.8.7 1.5.7 2 .5.6-.2.4-1.1 0-1.9-.4-.6-1.6-1-2.1-.6s-.6 1.4.1 2zM143 393c-.2 0-.5 0-.5.2s.3.3.4.3l.6-.1-.5-.5zm13.7-19c-1 1.3-.8 1.8.7 3a4.2 4.2 0 0 0-.6-.3c-.4 0-.7 0-.8.4s.3.8.7.8a1.5 1.5 0 0 0 .8-.2c0 .5.4.8.8.8.6.1 1-.3.8-1-.1-.5.2-.7.5-1 1.2.9 2 .7 2.3-.2v-.3c.2-.7-.1-1-1-1.2-.6-.2-1.3-.2-1.6.6l-.5-.8c0-.5-.3-.8-.8-.9-.6 0-1-.1-1.4.3zm13.2 12.9c-.5-.2-1-.2-1 .3l-.8 1c-.8.5-.7 1.5.2 2.3l.4.5c0 .6.4.9.8 1 .5.1.7-.1.9-.5l.6-1c.2-.4.4-.8 0-1.3v-.5c.3-1 0-1.4-1.1-1.8zm-26 1.1c.7 0 1.3-.3 1.5-.8v-.7a2 2 0 0 0-2.1-1h-.6l-.3-1c-.3-.5-.6-.7-1.2-.6-.6 0-1 .3-1 .8-.1.5.2.9.7 1.2l1.1.5.2.5c.3.6 1 1.1 1.7 1.1zm47.8-9.2c-.2.8.5 1.6 1.5 1.5a7 7 0 0 0 1.7-.4c.6-.2.8-1 .5-1.7-.2-.3-.8-1-1.5-.7-.5 1-1.3.3-2 1l-.2.3zm-48.4-3.3 2.2.6c0 1.1 0 1.2 1.1 1.2.4-.5.1-.9-.5-1.2.5-1.3-.3-2-2-1.9l-.2-.3c-.3-.4-.6-.4-1-.4s-.6.3-.6.6c-.2.8 0 1.1 1 1.4zm28.4-14.6c1 .2 1.6-.3 1.6-1 0-.8-.9-1.7-1.8-1.9-.8 0-1.6.6-1.6 1.3 0 .7.7 1.4 1.8 1.6zm5.2 15.5c-1-.2-1.7.4-1.7 1.2 0 .7.6 1.3 1.6 1.4 1.2.3 2-.1 2-1 0-.7-.8-1.4-2-1.6zm3.5-2c0 .7 1.2 1.9 2 2 .7 0 1.4-.5 1.4-1.3 0-.7-.9-1.6-1.6-1.7-1-.2-1.9.4-1.8 1zm-15 20a2 2 0 0 0-1.7-1.8c-.8 0-1.2.2-1.4.8h-.2c-.7-.1-1.4.5-1.4 1.2s1 1.6 1.7 1.7c.7 0 1.3-.2 1.6-.7.8 0 1.5-.5 1.5-1.1zm-.2-32.7c-.2.3-.2.7.1 1l.6.3 1.2-.3c1 .5 1.9.6 2.1.1.3-.4-.1-1.5-.8-1.8-.7-.4-1-.3-1.7.8-.6-.3-1.1-.7-1.5-.1zm-3-5.2c.7 0 1.3-.5 1.3-1.2 0-.6-.7-1.1-1.6-1.2-.8 0-1.3.3-1.2 1 0 .7.7 1.3 1.6 1.4zm16.2 18.1c0-.8-.8-1.5-1.9-1.6a1.3 1.3 0 0 0-1.4 1.1c0 .8.6 1.4 1.6 1.6 1.1.1 1.7-.2 1.7-1zM167 389a2 2 0 0 0-1.5-1.7c-.8-.1-2 .7-1.9 1.4 0 .3.2.6.5.8-.3.1-.4.4-.4.7 0 .5.4 1 1 1 .4 0 .9-.4.8-.9v-.2c.8.1 1.5-.4 1.5-1zm-17.3-15.8c.8.1 1.4-.3 1.4-1 0-.8-1-1.7-1.9-1.7-.7-.1-1.4.5-1.4 1.2s.8 1.3 1.9 1.5zm13 14.9c-.1-.7-1.1-1.4-2.1-1.6-.7 0-1.3.4-1.2 1 .2 1.2.6 1.4 1.8 1.7.8.2 1.5-.4 1.4-1.1zm13-22.7 1.7-.5c.4-.1.6-.5.3-.9-.2-.4-.6-.6-1.1-.5h-.8c-.7 0-1.2.2-1.3.8-.1.5.2 1 1.2 1zm-30.5 16.2c0-.6-.5-1.5-1-1.6-.8-.2-1.6.3-1.7 1 0 .5.8 1.3 1.7 1.5.5 0 1-.3 1-.9zm52 .7c.7.1 1.3-.2 1.2-.8 0-.6-.8-1.4-1.6-1.5-.5-.1-1 .5-1 1 0 .8.6 1.2 1.4 1.3zM149.5 361c.7.5 1.8.4 2-.1.2-.5 0-1-.4-1.4-.5-.4-1-.4-1.5-.2-.3.2-1.2.4-1 1s.6.5 1 .7zm25.2 39.4c.8.1 1.2-.2 1.2-1 0-.6-.5-1.1-1-1.2-.8 0-1.6.6-1.6 1.2.1.4.8 1 1.4 1zM159.5 367c.9.1 1.3 0 1.3-.7 0-.5-.7-1.3-1.3-1.4s-1.3.4-1.4 1c0 .4.7 1 1.4 1.1zm-6.8 31.4c0-.5-.7-1-1.1-1.1-.6 0-1.6.5-1.6 1s.9 1 1.7 1.2c.7 0 1-.4 1-1.1zm-1-22.9c-.8 0-1.5.3-1.5.9 0 .4 1 1.2 1.7 1.3.4 0 1-.4 1-.8 0-.7-.6-1.3-1.2-1.4zm34-1.8c.6.1 1.3-.5 1.3-1s-.8-1.2-1.3-1.3c-.5 0-1 .3-1 .7 0 .8.4 1.6 1 1.6zm-36-7.1c-.5 0-1 .5-1 1 0 .6.6 1.1 1.3 1.2.7.1 1 0 1-.6 0-.7-.7-1.5-1.3-1.6zm19.7.3c-.6 0-1.3.4-1.4 1 0 .4.6 1 1.3 1.3.4 0 1-.3 1-.6.1-.8-.3-1.6-1-1.7zm19.3 9.4c.6.1 1-.1 1-.5 0-.5-.8-1.5-1.3-1.6-.7 0-1.1.3-1.1 1 0 .6.5 1 1.4 1.1zm-9.3-12.2c0 .4.6 1 1 1 .7 0 1.3-.4 1.3-.8 0-.6-.8-1.4-1.3-1.5-.5 0-1 .7-1 1.3zm-23.5 33.4c1 0 1.5-.2 1.5-.7 0-.5-1-1.2-1.5-1.2s-1 .6-1 1 .6.8 1 .9zm23.2-5.9c0-.8-.4-1.4-1-1.5-.5-.1-1.3.4-1.3.8 0 .5.9 1.2 1.5 1.3.5 0 .8-.2.8-.6zm-14.4-34.4c.7.1 1.4-.3 1.5-.9 0-.4-.4-1-1-1-.6-.2-1.2.3-1.2.8s.3 1 .7 1zm21.6 22.4c.5.1 1.2-.4 1.2-1 0-.3-.3-.7-.8-.8-.7 0-1.3.2-1.3.7 0 .5.4 1 .9 1.1zm-5.8-9c-.8-.1-1.2 0-1.2.5 0 .4.7 1.1 1.2 1.2.5.1 1-.4 1-1 0-.4-.4-.6-1-.7zm-26.6-1.8c.7 0 1-.7 1-1s-.9-.9-1.5-.7c-.4 0-.6.4-.4.9.1.4.4.7 1 .8zm12.8 6.5c-.4.2-.6.5-.3.9.1.2.5.6.8.7.8.2.8-.4 1.1-.9-.5-.5-1-1-1.6-.7zm29.1-2.8c.5.1 1-.2 1-.7 0-.5-.5-.9-1.1-1-.5 0-.9.3-.8.7 0 .5.4 1 .9 1zm-11.6-3.6c0-.4-.1-.8-.5-.9-.8 0-1.3.2-1.2.6 0 .5.5 1 1 1s.8-.3.8-.7zM161 398.8c0-.3-.9-1-1.3-1s-.8.6-.7 1c0 .4.4.6.9.6.7 0 1.1-.3 1-.6zm26-31.2c.6 0 1-.4 1-.8s-.4-.8-.9-.8c-.6-.1-1 .1-1 .6 0 .4.5.9 1 1zm6.2.6c0-.4-.6-.9-1-.9s-.9.3-.9.7c0 .4.4.8.9.9.5 0 1-.2 1-.7zm-34.4 2.5c.5 0 .7-.2.8-.5 0-.5-.1-.9-.6-1-.6-.4-1.3 0-1.3.3s.4 1 1.1 1.2zm10.7 4.7c-.1.3-.1.7.3 1 .3.1.9.3 1.1.2.3-.1.4-.3.4-.6.6.3 1.3.2 2 0 .4-.2.6-.4.8-.8.2-.4 0-.9-.2-1.4s-.1-1.1-.6-1.6c-.7-.6-2-1.3-3.3-.7-.8.3-1.1.8-1.1 1.4 0 .6.9 1 1.2 1.8l.1.3c-.3 0-.5.1-.7.4zm15.1-14a.7.7 0 0 0 .8-.7c0-.5-.4-.8-1-.9-.6 0-1 .1-.9.5 0 .4.7 1 1.1 1.1zm-29.1 4c0 .4.5.8 1.2.9.1-.2.5-.4.5-.7.1-.4-.5-.9-1-1-.5 0-.8.4-.7.8zm.7 4.9c-.5-.1-.9.2-.8.6 0 .5.5 1 1 1s.9-.4.9-.7c0-.4-.6-.9-1-1zm6.6 7.6c-.3 0-.8.3-.9.6-.2.7.4 1.1 1.2 1.5.6-.2 1.2-.5 1-1.2-.2-.5-.7-1-1.3-.9zm-3.8 6c-.2-.3-.5-.5-.7-.5-.5-.2-.7 0-1 .3-.2.2-.6.3-.5.8 0 .5.9 1 1.5.9l.7-.4c.5.4 1 .4 1.3 0 .2-.2.1-.7-.2-1-.3-.2-.7-.2-1-.1zm7.5-12.2c-.2 0-.4.3-.3.6 0 .4.3.7.8.8.7.1 1-.4 1-.7 0-.3-.8-1-1.4-.7zm-16.8 16.1c.3-.4.5-.8 0-1.2-.3-.4-.8-.4-1.2-.2-.2.2-.3.6-.2.8.3.6.8.7 1.4.6zm41-16.8c0 .5.3.9.8 1 .5.1.8 0 .9-.5 0-.5-.3-.9-.9-1-.4 0-.8.2-.9.5zm-43.7-5.3c.5.1.9-.1.9-.5s-.4-.8-.8-1c-.5 0-1 .2-1 .6.2.4.4.8 1 .9zm-7 10.8c.6.3 1 0 1.2-.6-.3-.4-.6-1-1.3-.8-.4 0-.6.3-.5.7 0 .2.3.6.6.7zm36-15.4c.4.1.7 0 .8-.5 0-.3-.7-1-1-.9-.4.1-.5.3-.6.6 0 .3.3.8.8.8zm-14 38.7c.3.5.6 1 1.2.9.6-.1.6-.6.4-1-.6-.4-1.1-.4-1.5.2zm1.4-33h.7c.4-.3.3-.7 0-1.2-.5 0-1-.1-1.2.4 0 .2.3.5.5.7zm-15 9.5c.5 0 .6-.6.7-.8.1-.4-.3-.7-.7-.8-.5 0-.9 0-.8.5.1.3.2 1 .7 1zm7.8-16.6c.3 0 1-.2 1-.5s-.8-.6-1-.8c-.4 0-.8.3-.7.6 0 .4.3.7.7.7zm-3 28.8c-.2-.2-.5-.5-.8-.6-.5-.1-.7.1-.7.5 0 .3.1.6.6.8.4 0 .8-.2.9-.7zm18.2-26c-.2 0-.5.2-.5.4s.1.6.3.7c.5.4.9.1 1.2-.2-.1-.5-.4-.9-1-.9zm7.3.1c.4 0 .8-.1.6-.5 0-.3-.2-.6-.5-.7s-.9.3-.8.7c0 .4.4.5.7.5zm-37.3 10.7.7-.3c0-.5-.3-.7-.7-.8-.3 0-.7 0-.6.4 0 .3.4.7.6.7zm33.9 18c0-.2-.1-.5-.3-.7a.9.9 0 0 0 .8 0c.4-.3.5-.6.3-1-.3-.6-1-.6-1.5-.7-.2.4-.4.7-.3 1-.2-.2-.5-.3-.7-.3-.8-.1-1.7.5-1.7 1.2s.7 1.4 1.5 1.5c1 .2 2-.3 1.9-1zm-5.5 6.2c0 .5.6 1.2 1.1 1.4.7.1 1.6-.5 1.5-1 0-.5-.7-1-1.3-1-.7-.2-1.3.1-1.3.6zm5.8-12.9c-.5 0-.9.2-.9.6 0 .3.7.9 1.1 1 .5 0 .8-.3.8-.7 0-.5-.4-.8-1-.9zm18.9-1.6c-.5-.2-1 0-1 .4.2.3.4 1 .9 1s.6-.4.6-.7c0-.3 0-.6-.5-.7zm-20.6 4.7c.5-.1.5-1 0-1.2-.6-.2-1 .2-1 .8 0 .2.6.5 1 .4zm-29.7 1.7c-.3.3-.2.6.5 1.2.8 0 .8-.7.5-1-.2-.3-.8-.3-1-.2zm-5-.9c-.3.3-.2 1 .5 1.2.7 0 .8-.7.5-1-.2-.3-.8-.4-1-.2zm20.3-24.9c.4 0 .5-.6.5-.8 0-.2-.4-.5-.7-.6-.3 0-.6.1-.5.5 0 .2.4.9.7 1zm15-10.3c.2 0 .6-.1.6-.3s-.3-.5-.5-.6c-.2 0-.8 0-.8.3s.5.6.6.6zm16.3 10c.3.2 1.2 0 1.2-.5 0-.4-1-.8-1.4-.8-.3 0-.8.2-.8.5 0 .4.6.8 1 .9zm-7.6-5.8c.1 0 .6 0 .6-.2s-.5-.4-.6-.4l-.4.2c0 .1.2.4.4.4zm16.5 25.6s-.3 0-.3.2.2.4.3.5c.2 0 .6 0 .6-.2s-.4-.4-.6-.5zm-4.7-14.7s-.3 0-.3.2l.3.4c.2 0 .6 0 .6-.2s-.4-.4-.6-.4zm-14-7c.3 0 .5-.3.5-.4 0-.2-.1-.6-.4-.6s-.4.2-.4.3.1.7.4.7zm6.3.8c.3 0 .5-.3.5-.5s-.3-.4-.4-.4c-.2 0-.4.1-.5.3 0 0 .2.5.4.6zm-1-3.7c.2 0 .3-.1.3-.2l-.3-.2-.2.1a.3.3 0 0 0 .2.3zM168 354l.2-.2-.3-.2-.2.1c0 .1 0 .3.3.3zm31.5 24h-.2a.3.3 0 0 0 .3.3c.1 0 .2 0 .2-.2s-.2-.2-.3-.2zm-55.7-10.3c.1 0 .5 0 .6-.2s-.5-.4-.6-.5l-.4.2c0 .2.2.4.4.5zm28-11.9s.4 0 .5-.2-.4-.4-.6-.5l-.4.2c0 .2.3.4.4.5zm-27.3 15.6c.3 0 .4-.3.4-.4 0-.2 0-.5-.3-.6s-.4.2-.5.4.2.6.4.6zm1.9-1.5c.3 0 .5-.2.4-.5 0-.2-.4-.4-.5-.4-.2 0-.5 0-.5.3s.2.6.6.6zm8.1 20.3c0 .3 0 .4.3.5.3 0 .4 0 .4-.2 0-.3 0-.4-.3-.5-.2 0-.4 0-.4.2zm-3.3-6.3c.4 0 .7-.3.9-.5.3-.4.2-1 0-1.5s.1-1-.3-1.5c-.7-.7-1.9-1.5-3.3-1.1-.8.2-1.2.6-1.3 1.2-.1.6.7 1.1 1 1.8.4 1.7 1.8 1.9 3 1.6zm4.1-2.2c.6-.3.9-1.3.2-2s-1.4-.9-2-.8c-.6.2-.6 1.1-.2 2 .3.5 1.5 1 2 .8zm2 6.4c.2-.5 0-1.6-1.2-2s-2 .1-2.1.7c-.2.7.7 1.9 1.5 2 1 .3 1.5-.2 1.8-.7zm-4.3 7.2.7-.1c.2-.2.5-.2.6-.5s.1-1-.3-1.5-1-.7-1.4-.7a1 1 0 0 0-.9.6c-.1.3-.1.9.2 1.3s.6.8 1 1zm4-1.5c.1-.1.2-.3.1-.5a.8.8 0 0 0-.6-.4c-.2 0-.2.4-.2.6.1.1.4.3.6.2zm-7.8-3.2c-.5-.4-1.2-1-1.6-.4s0 .8.1 1 .4.5.1.4c-.2 0-.5 0-.6.6s0 1 .7 1.2c.7.4 1.5 0 1.7-.5s-.2-1 0-1.3c.2-.4 0-.7-.4-1zm-2.2 6c-.6-.3-1.2-.7-2-.5l-.3.6c-.8 0-1.4.4-1.3.8 0 .4.3.6.7.8.7.2 1 .1 1.4-.5l1.6-.3c.6-.1.4-.8-.1-1zm27.4-.2c1 .2 2-.3 2-1s-1-1.7-1.8-1.8c-.8-.1-1.6.5-1.6 1.3a1.7 1.7 0 0 0 1.4 1.5zm12.6-21.1c0-.4-.5-.9-1-1-.4 0-.8.4-.8.8.1.4.5.8 1 .8.6 0 .9-.2.8-.6zm-21.8 23.6c.5.1.9-.1.9-.6 0-.4-.3-.7-.8-.8-.5-.1-1 .1-1 .5s.4.8 1 1zm3.7-19.7c-.7-.6-2.8-.6-3.3 0s.2 1.4 0 1.6-1.5 0-2 .6 0 2.3.5 2.8c.7.5 1.2.8 1.9.9.8 0 1.7-.4 1.8-1 .2-.8-.4-1.8-.3-2s1.7.1 2.2-.6c.6-.8 0-1.7-.7-2.3zm6.2 3c-.2-.2.8-1.3-.5-2-1.2-1-2.2-.8-2.7.2-.1.3-.5.5-1 .7-.4 0-.7.2-.8.5-.6.5-1 1-.6 2 .7 1.2 2 1.4 2.4 1.1.5-.3.7-1 1-1s-.2.5 1.3.7 2.4-1.3 1-2.3z"/><path d="M181.4 377.5c.8.6 2 .6 2.6 0 .4-.5.1-1.7-.6-2.2-.8-.6-1.8-.5-2.4.3-.5.5-.3 1.3.4 1.9zm-8.6 17.1c.6-.6.3-1.6-.6-2.1-.7-.5-1.5-.5-1.8 0-.5.6-.3 1.9.4 2.3.8.4 1.6.4 2-.2zm21.9-19.6c0 .7.6 1.3 1.3 1.4.3 0 .7 0 .9-.2.6-.5.6-1.2-.1-2.1h-1.2c-.6 0-1 .5-1 1zm-15-2.1c.4-.6 0-1.6-.6-2-.4-.3-1.3-.2-1.5.2-.5.6-.3 1.3.5 1.8.6.4 1.4.4 1.6 0zm-3.7 3.5c.3-.4.2-1-.3-1.4-.6-.5-1.6-.5-2 0-.2.4 0 1.3.6 1.7.4.3 1.3.1 1.7-.3zm36.4 3.2c-.3.4 0 1 .7 1.5.6.4 1.2.4 1.5 0 .2-.3 0-1.5-.4-1.7-.6-.5-1.4-.4-1.8.2zm-21.3-6.5c-.4.5-.3.9.5 1.4.7.5 1.3.5 1.6.2.2-.4 0-1.6-.5-1.8-.5-.4-1.1-.3-1.6.2zm-.4-6.8c.3-.4.2-.8-.2-1.1-.4-.3-1.7-.4-1.9 0-.3.4-.1 1 .6 1.4.6.4 1.1.3 1.5-.3zm-5.7 3.2c.3-.4 0-1.1-.8-1.6-.4-.3-.7-.2-1 0-.3.5-.3 1.2.2 1.5.4.3 1.3.4 1.6 0zm19.1 13c.3-.3.1-.9-.4-1.1-.4-.3-1.1-.2-1.3 0-.2.3.1 1.2.5 1.4.3.2 1 0 1.2-.2zM175.6 396c.4.3 1 .2 1.2-.1.3-.4.2-.9-.2-1.1-.4-.3-1-.3-1.3 0-.3.3-.1 1 .3 1.2zm-2.3 2.2c.2-.1.3-.4.3-.6-.1-.5-.5-.7-1.5-.8-.2.4-.6.8 0 1.3.4.3.9.4 1.2.1zm-1-10.6c0-.4-1-1.1-1.5-.9-.3.2-.4.7 0 1 .3.4 1.4.3 1.4-.1zm-1.6-4.4c-.8-.6-1.3-.7-1.5-.4-.4.4-.1.8.3 1.2.7 0 1-.3 1.1-.8zm-3.3 4.8c.3-.2 0-.6-.2-.8-.2-.1-1-.2-1.1 0s.3.7.5.8c.2.1.6.1.8 0zm1 7.8c0-.1-.4-.4-.6-.4s-.4.1-.5.3c0 .1.2.6.6.7s.5-.4.5-.6zm7.9-27.6c0-.1 0-.4-.2-.5-.1-.2-.6-.3-.7-.2s.1.6.3.7h.6zm38.3-2.9s0-.4-.2-.5c-.1-.1-.6-.3-.7-.1s.1.5.3.6h.6zm-40.9 24c-.1-.1-.5-.2-.6 0s0 .3.2.5c0 0 .5.2.7 0s-.2-.5-.3-.6zm-4-9.7c0-.2-.1-.5-.3-.6l-.5.1a.6.6 0 0 0 .2.5h.7zm23.6-18.6h-.6l.1.4c.2.1.6.2.7 0s-.2-.4-.2-.4zm-7.5 11.3c.3-.2.2-.6-.1-.9-.6-.5-1.1-.7-1.4-.5-.2.2-.2 1 .1 1.4.3.2 1 .3 1.4 0zm16-10.9c.2-.1.3-.3 0-.5s-.4 0-.5 0c0 .1-.2.5 0 .6s.5 0 .6 0zm9 22c-1-1.6-1.5-1.8-3.2-1.5h-.2a2 2 0 0 0 .6-.3c.3-.1.3-.5 0-.8s-1-.4-1.1 0c-.1 0-.2.4-.1.7-.5-.2-.9-.2-1.1 0-.3.5 0 1.1.6 1.4.7.3.7.6 1 1-1.3.4-1.5 1.1-.7 2l.3.3c.7.6 1.2.6 1.6.1.4-.4.7-1 0-1.8l1 .3c.5.2.8.2 1.1-.1.3-.3.5-.7.2-1.3zm-5.4-19.1c-.2.5 0 1.2.3 1.8l.7.4c1 .3 1.7 0 1.9-.9l.1-.5 1 .4c.7.2 1 0 1.2-.4.2-.5 0-1-.5-1.4-.5-.4-1-.4-1.4-.3l-1 .6-.5-.2c-.7-.2-1.5 0-1.8.5zm-29.6 25.4 1.9.1c.6 0 1.2-.7 1.1-1.3 0-.3-.2-.6-.6-.7-1-.2-2-.4-3-.1l-.3.2c-.5.7 0 1.5 1 1.8zm40.6-18.8L215 372c-1-.8-1.2-.8-1.7 0 .4.6.9.7 1.5.5 1.1 1.2 2 1.1 2.6-.2h.3c.5 0 .7-.2.8-.5.1-.4 0-.6-.4-.9-.7-.7-1.1-.7-1.7-.1zM173 401.6c.5-.5.1-1.5-.7-2-.7-.5-2-.4-2.3 0-.5.7-.3 1.7.4 2.2.7.4 2.3.3 2.6-.2zm16.2-22.1c1 .6 2 .6 2.5-.1.4-.6.3-1.1-.3-1.6l.2-.2c.3-.5 0-1.4-.8-2-.7-.4-1.9-.3-2.3.2-.3.5-.3 1.2 0 1.7-.2.6 0 1.5.7 2zm3.7 4.3c.7.5 1.7.5 2.1 0 .5-.5 0-1.9-.6-2.3-.3-.2-.6-.3-1-.2 0-.3-.2-.6-.5-.8-.4-.3-1-.3-1.2 0-.2.4 0 1 .5 1.3h.2c-.4.7-.1 1.6.5 2zm22-6.6c-.4.6-.2 1.3.5 1.8.8.5 2 .4 2.4-.2.3-.5 0-1.6-.7-2-.7-.5-1.6-.3-2.1.4zm-19 3.4c.7.4 1.7.2 2.2-.5.4-.5.1-1.3-.6-1.7-1.2-.7-1.5-.5-2.3.3-.4.5 0 1.4.7 1.9zm-14.8-9c-.4.5 0 1.5.8 2 .7.5 1.3.5 1.8 0 .5-.7.2-1.4-.6-2-.7-.5-1.6-.5-2 0zm29.3-2.5c.6.4 1.7.6 2 .2.4-.4.2-1.3-.4-1.8-.5-.4-1.6-.4-2 .2-.3.3-.1 1 .4 1.4zm-31.8 15.1c-.3.6-.1 1.2.6 1.6.6.4 1.3.4 1.5 0 .4-.5 0-1.6-.6-2-.4-.2-1.2 0-1.5.4zm13.7-17.6c.4.3 1.2.2 1.4 0 .3-.5 0-1.7-.4-2-.5-.3-1.4 0-1.8.5-.3.5 0 1 .8 1.5zm20 11.4c.3-.6.1-1.4-.4-1.8-.4-.3-1.6 0-1.9.5-.2.3 0 1 .5 1.2.6.5 1.4.5 1.7 0zm-21.4-8.2c-.4.6-.3 1.3.2 1.6.5.3 1.5.1 1.8-.3.1-.3-.3-1.2-.7-1.5-.4-.2-1-.1-1.3.2zm-3.7-3.3c.2-.3 0-1.1-.3-1.3-.4-.3-1.2-.2-1.4.2s0 .8.4 1c.5.4 1 .4 1.3 0zm-.4 2.3c-.2 0-.3.4-.3.7 0 .2.4.5.6.6.2.1.6 0 .7-.1l.8-.9c.2-.3.1-.5-.3-.8h-.4c-.3.4-.7.4-1 .5zm.7 4.7c.3.2 1.2 0 1.4-.4.1-.2-.3-1-.7-1.2-.4-.2-.8 0-1 .3-.2.6 0 1.1.3 1.3zM175.3 393c.1.2.6.5.9.5.7.1 1-.5.9-1s-1-.8-1.6-.4c-.2.1-.3.6-.2.9zm39-8.4c.2-.4 0-.9-.4-1.1-.5-.3-1.1-.2-1.3.1-.2.4 0 1 .4 1.2.4.2 1 .1 1.2-.2zm-10 1.6c0-.3 0-.8-.2-1-.7-.7-1.3-.5-2-.2 0 .6 0 1.3.9 1.6.5.3 1 .2 1.2-.4zm-3-6.4c.3 0 .6 0 .7-.2.4-.3.2-.6 0-1 0-.4 0-.7-.6-1-.5-.3-1.3 0-1.4.5v.9c-.5.1-.7.5-.5 1 .2.4.8.6 1.2.6.3-.1.5-.4.6-.8zm1.3-10.2c.3.4.6.8 1.2.8.4 0 .7-.4.6-.8-.1-.3-.4-.7-.7-.7-.7-.2-1 .2-1.1.7zm20.1 9.2c-.2.3-.1.8.2 1 .4.3 1 .3 1.2 0 .3-.2.2-.8-.2-1-.4-.2-.8-.3-1.2 0zm-5.5-11.6c-.5.3-.3.8.1 1.4.6 0 1.2.2 1.3-.4 0-.4-.1-.8-.5-1h-.9zm-31.4 6.9c-.6-.2-1.2-.3-1.3.3-.1.5.3.8.9 1 .6-.3.7-.6.4-1.3zm8.1-15.5c0-.5-1.3-.8-1.6-.4s-.3 1 .2 1.3c.4.2 1.5-.5 1.4-1zm-17.7 26c-.3.4-.2.8.1 1 .4.3.9.3 1.1 0 .2-.3.1-.8-.3-1h-.9zm36.8-10.2c-.2.4.3 1 .6 1.2.2.3.7.2 1 0 .2-.4.2-.8-.3-1-.3-.1-1-.5-1.3-.2zm-37.8 10c.1-.3 0-.7-.1-1-.3-.2-1-.2-1.1.2v.6c.6.5 1.2.5 1.2.2zm12-21.2c.3-.3.1-.8-.2-1-.5-.3-.8-.2-1 0-.2.3-.2.6.2.9.3.3.8.3 1 0zm13.1 9c.3 0 .6 0 .9-.2.2-.2 0-.6-.3-.8-.3-.2-.6-.4-.9-.1-.2.2-.2.8.3 1.2zm-29.9 1.7c-.4-.3-1 0-1.4 0v.2l1 1h.4c0-.3.5-.8 0-1.2zm48.8-3.8c-.2.2 0 .6 0 .8.6.4.9.2 1 0s.3-.6 0-.8c-.4-.1-.9-.2-1 0zm-37.5-6-1-.6-.6.1c.2.4.1 1 .6 1.2s1.1-.1 1-.6zm-11 26c0 .4 1.5.6 1.8.3s-.4-1-1-1-1 .5-.9.8zm33.4-25.8c-.2-.4-.5-.5-1.4-.4-.3.5.4 1.1.8 1 .4 0 .7-.3.6-.6zm3.3-3.8c0-.4-.9-.8-1.3-.4-.3.5.4 1.1.8 1 .4 0 .6-.3.5-.6zm-35.3 20.8c.1.2.6.5.9.2s-.2-.7-.4-.8h-.7c0 .2 0 .5.2.6zm5.7-12.5c.1 0 .5.2.7 0s-.2-.4-.4-.6h-.5l.2.6zm-6.3 7h.4v-.2h-.4v.2zm51.3-.8a.4.4 0 0 0 0 .7c.3.2.6-.1.7-.2.1 0 0-.4 0-.4h-.7zm-3.5-1.3.2.6c.2 0 .6.3.7.1s0-.4-.2-.5-.6-.3-.7-.2zm.3 2.4c-.1.2 0 .5.3.6a.5.5 0 0 0 .6-.1c.1-.1.2-.4 0-.6s-.7-.2-.9 0zm-21.6-3.6c-.2-.2-.3-.2-.5 0-.2.1-.2.2 0 .4s.4.2.6 0c.2 0 .1-.2 0-.4zm7.1 0c0 .3 0 .7.3 1 .2.5.7.8 1.3 1 .7.2 1 .8 1.7.8.8 0 2-.4 2.2-1.7a2 2 0 0 0-.7-1.9c-.6-.5-1.4-.2-2.1-.5-1.8-.8-2.5.1-2.7 1.2zm-.2 4.8c0 .6 1 1.6 1.9 1.5s1.3-.4 1.4-1c.1-.5-.8-1.2-1.7-1.4-.7-.2-1.6.4-1.6 1zm-6.3-1.6c.4.5 1.6 1.1 2.3.4.8-.7.7-1.5.2-2s-2-.8-2.6-.3c-.6.6-.3 1.3.1 1.9zm-21 7.2c1.2-.4.3-1.5 1.2-1.4s.6.7 1.8.6 1.6-1 1-1.6-1.3-.5-1.4-.7-.3-1-1-1c-1.4.2-.7 1.3-1.1 1.4s-1.3 0-1.9.1c-.8.2-1.3.9-.8 1.7.6 1 1.5 1.1 2.3.9zm16.8-14.6c-.2.2-.2.4-.1.6s0 .5.2.8 1 .8 1.6.8c.6 0 1-.2 1.1-.6s0-.8-.3-1.1-.7-.7-1.2-.7-1 0-1.3.2zm-.6 4.3c0 .2.1.4.3.5s.6-.1.6-.3-.2-.4-.4-.5c-.2 0-.5.1-.5.3zm7-4.8c.5-.1 1.2-.3.9-.9s-.8-.6-1-.5-.6-.2-.4-.3c.1-.1.1-.4-.4-.8s-.9-.6-1.4-.3c-.5.3-.5 1 0 1.6.5.6 1 .5 1.2.9s.6.4 1.1.3zm-3.8-5c.4-.3 1-.5 1.2-1.2l-.6-.8c.3-.6.2-1.4-.3-1.6-.4-.2-.8-.2-1 0-.6.4-.6.7 0 1.5l-.4 1.5c0 .5.7.9 1 .6zm-12 14.1c-.3.4-.2.8.2 1 .5.4.9.4 1.2 0 .3-.3.2-.8-.2-1-.4-.4-1-.3-1.2 0zm-17.6 14.9v-.5h-.7v.6c.1.1.6 0 .7-.1z"/><path d="M214 368.5c-1.1-.7-2.6-.4-3.1.6-.2.4-.4.4-.8.4-.6 0-.8.7-.6 1.1.2.5.6.6 1 .5h1l2.2.8c.3 1.6.8 2 2.3 1.7.8-.1 1-.9.5-1.6l-1.8-1.5c0-.7 0-1.5-.8-2zm-23.7 13c.8 0 1.5-.7 1.3-1.4a2.2 2.2 0 0 0-2-1.6c-1 0-1.4.6-1.2 1.6.3 1 1 1.5 1.9 1.5zm33-15.1c-.9 0-1.6.5-1.5 1.2 0 .7 1.3 1.7 2 1.7.8 0 1.5-.7 1.3-1.4a2 2 0 0 0-1.8-1.5zm-31.4 2.8c.6.6 1.4.8 1.9.5.2-.1.4-.5.4-.7 0-.8-.5-1.5-1.7-1.8l-.7.6c-.4.4-.3 1.1.1 1.4zm-12.8 8.6c-.2-.7-1.2-1.4-2-1.4-.4 0-.8.6-.7 1.2.2.7.8 1.2 1.6 1.2.7 0 1.2-.5 1-1zm-.5 5c-.1-.5-.7-1-1.3-1-.7 0-1.4.6-1.2 1.1.2.6 1 1.3 1.6 1.3.5 0 1-.7.9-1.3zm29.6-21.9c.1.6.7.9 1.5.9.7 0 1.1-.3 1-.8-.1-.4-1.2-1.3-1.6-1.4-.7 0-1 .6-.9 1.3zm-20.3 9.2c.1.7.5 1 1.3 1s1.2-.3 1.1-.8c0-.5-1.1-1.3-1.6-1.3-.6 0-1 .4-.8 1.1zm-5-4.5c0-.5-.4-.9-.9-1-.5 0-1.3.8-1.2 1.2.1.6.6 1 1.4 1 .7 0 1-.5.8-1.2zm-2.1 6.1c-.1-.4-.9-.9-1.7-.9-.5 0-.6.3-.5.7 0 .6.6 1.2 1.1 1.2.6 0 1.1-.6 1-1zm23-2.8a1.2 1.2 0 0 0-1.2-.8c-.5 0-.8.5-.7.9 0 .3 1 .9 1.4.9.3 0 .6-.6.5-1zm15.5-8.8c0 .4.6.8 1 .8s.8-.4.8-.8-.5-.7-1-.7-.9.4-.8.7zM179 391.3c-1 0-1.3.1-1.3.6.1.6.6.7 1.2.8.4-.4.4-.8 0-1.4zm27.6-17.9c.2.4.5.7 1 .7.4 0 .6-.4.5-.8 0-.3-.5-.5-.9-.5s-.7.3-.6.6zm-33.3 3c0-.2-.3-.4-.5-.4l-.5.3.7.4c.2 0 .4-.2.3-.3zm27-27.5-.6-.4c-.1 0-.6.2-.5.4s.5.4.6.4l.4-.4zM176 389.3l-.6-.4c-.2 0-.3.3-.3.4 0 .2.4.4.5.4l.4-.4zm5.3-29.7c-.2.1-.3.3-.3.4l.4.3c.2 0 .5-.1.5-.4s-.5-.3-.6-.3zm36.3 18.6c-.4.7-.2 1.3.2 1.8s1.5.4 2.2 0c.5-.3.4-1.5-.1-1.9s-1.8-.6-2.3 0zm-34.4-5c0-.3-.3-.6-.8-.7-.7 0-1.2 0-1.2.4 0 .3.7 1 1 1.1.4.1 1-.3 1-.7zm5-18.8c-.1-.2-.2-.4-.5-.5-.3 0-.3.2-.3.3 0 .2.2.6.4.6s.4-.3.3-.4zm20.8 10.8c-1.8-.9-2.3-.8-3.1.5l-.1.1.1-.6c0-.3-.2-.6-.7-.7s-.7.2-.7.6c0 .2.3.5.5.7-.4.1-.6.4-.6.7.1.6.8 1 1.4.8.6-.1 1 .1 1.4.4-.5 1-.1 1.8 1 2l.4.2c.9 0 1.2-.2 1-1 0-.5-.2-1.1-1.3-1.4l.8-.4c.5 0 .7-.3.7-.8 0-.4-.2-.9-.8-1.1zm-10 15c0-.5-.2-.8-.7-1a3 3 0 0 1-1.3-.5c-.9-.7-1.9-.6-2.5 0l-.4.4c-.6 0-.8.3-.8.6 0 .4.4.6.8.8l1.3.5c.5.2 1 .4 1.4 0h.5c1.3.3 1.6.1 1.7-.8zm-6.1-26.3c.2.7.8 1.2 1.6 1.5h.8c.8-.4 1-1.2.5-2l-.3-.6 1-.3c.5-.2.6-.5.3-1-.3-.6-.7-1-1.4-1-.6-.1-1 .2-1 .6-.2.3-.2.7-.2 1l-.5.2c-.6.3-1 1-.8 1.6zm12.1-2.2.2 2c-1.4-.1-1.5 0-1.1 1 .7.3 1.1.1 1.3-.4 1.8.4 2.3-.3 1.5-1.9l.2-.2c.4-.2.3-.6.1-1-.2-.3-.5-.4-.9-.5-1-.2-1.3 0-1.3 1zm19.3 25.1c.2.8 1 1.4 1.8 1.4 1 0 1.6-.7 1.5-1.5-.2-.7-1.2-1.5-2-1.5-1 0-1.4.6-1.2 1.6zm-14 8.3c0-.8-1-1.5-1.9-1.5-.8 0-1.2.5-1 1.4.1 1 .8 1.7 1.7 1.7s1.4-.6 1.3-1.6zm-19.4-8.6c1 0 1.6-.7 1.4-1.6-.2-.7-.6-1-1.3-1.2a.8.8 0 0 0 0-.2c-.2-.6-1.2-1.2-2-1.2-.7 0-1.4.7-1.3 1.4.2.6.7 1.2 1.3 1.4.3.7 1.1 1.4 1.9 1.3zm31.4-5.5c-.4-.2-.8-.2-1.1.1-.1.1-.2.4-.1.5l.8 1.1c-.3 1 0 1.7.6 2 .6.3 1.7-.1 1.9-.7.2-.6-.1-1-1.6-1.6.1-.5.3-1-.5-1.4zm-25.9 6.2c.8 0 1.5-.6 1.4-1.2-.1-.7-1.5-1.6-2.2-1.6a1 1 0 0 0-.7.4c-.2-.2-.6-.4-1-.4s-.7.4-.6.8c.1.4.7.8 1.2.8h.2c.2.6 1 1.2 1.7 1.2zm12.1-19.8c.2.8.8 1.3 1.7 1.3.9 0 1.5-.8 1.3-1.6-.2-.6-1.2-1.3-2-1.3-.7 0-1.2.7-1 1.6zm-12 15.4c.8 0 1.3-.9 1-1.8 0-.6-.8-1.1-1.6-1-1.2 0-1.3.4-1.2 1.6.1.7 1 1.3 1.9 1.2zm-17.1 2.8c0 .6 1.1 1.3 2 1.3.8 0 1.2-.5 1-1.1 0-.9-.8-1.4-1.7-1.4-.8 0-1.4.5-1.3 1.2zm20.4-21c.7 0 1.5-.5 1.5-1-.1-.7-1-1.4-1.7-1.4-.6 0-1.2.6-1.1 1.4 0 .5.6.9 1.3 1zm20.5.7c-.3.6.2 1.6.9 1.8.6.2 1 0 1.4-.4.3-.4.1-1-.3-1.3-.3-.3-.9-1.1-1.5-1s-.3.6-.5.8zm-4.1 10.7c.2.8.6 1.2 1.2 1.2.7 0 1.3-.6 1.2-1.1s-1-1.3-1.6-1.3c-.6 0-1 .6-.8 1.2zm-31.7-1.2c.5 0 1-.6.9-1-.2-.5-1.3-1.4-1.7-1.4-.6 0-1 .7-.8 1.5.2.6.8 1 1.6.9zm22.3-4.7c-.1-.7-.9-1.3-1.5-1.3-.5 0-1 1-.8 1.5 0 .4.7.9 1.2.9.8 0 1.3-.5 1.1-1zm8.4-3.4c-.1-.4-1-1-1.5-.9-.6 0-1 .5-.9 1.2.1.5.5.9 1 .9.9 0 1.6-.6 1.4-1.2zm3.1 19.4c0-.5-.8-1-1.5-1.2-.6 0-1 .5-1 1.1 0 .4.6 1 1 1 1 0 1.6-.3 1.5-.9zm-32.8-8.3c.3.8.8 1.3 1.3 1.3.6 0 1-.8 1-1.3-.2-.4-1.1-1-1.6-1-.4.1-.8.6-.7 1zm28-7c.3.7 1.2 1 1.5 1 .3 0 .7-.8.3-1.4a1 1 0 0 0-1.2-.4c-.4.2-.7.4-.5.9zm-4 14.1c-.4-.3-.8-.5-1.1-.3-.3.2-.6.5-.6.7 0 .7.8.8 1.4 1 .4-.4.7-.8.2-1.4zm-29-6.9c-.1-.4-.8-1-1.2-1-.4 0-.9.6-.8 1 .2.5.7.8 1.2.8s.9-.4.8-.8zm1.3 1.8c0 .1.1.6.3.7s.7.3 1 .3c.1 0 .3-.3.3-.6l-.2-1.2c0-.4-.4-.5-.8-.5l-.2.3c0 .4-.2.7-.4 1zm3.7 3.2c.3 0 .7-.7.6-1.1-.1-.3-1-.7-1.4-.6-.3 0-.5.4-.3.8.3.6.7 1 1 1zm27-7c.1.5.5.7 1 .7.4 0 .8 0 .9-.5.1-.5-.5-1.1-1-1.2a.9.9 0 0 0-.9 1zm-3.2 11.5c-.4-.1-.8-.1-1 .3 0 .2 0 .7.2.9.2.3.5.3.7.3 0 .6.3 1.2.8 1.8a2.3 2.3 0 0 0 1 .7c.6.2 1.1 0 1.6-.2.6-.2 1.2 0 1.5-.5.5-.6.8-1.7-.3-2.8-.6-.7-1.3-1-2-1s-.8.8-1.5 1l-.4.1c0-.2-.2-.4-.6-.6zm7.8-15.4c-.4 0-.8.5-.6 1 .3.2.6.5 1 .5.5.1.8-.4.7-.9-.2-.4-.6-.7-1-.6zm-4.4 1.6c-.1-.4-.6-.8-1-.7-.6 0-.9.4-.7.9 0 .4.6.8 1 .7.5 0 .8-.4.7-.9zm-6.4 7.9c-.2-.3-.6-.7-1-.8-.9-.3-1.1.3-1.3 1 .5.5 1 1 1.8.9.5-.1.8-.6.5-1.1zm-6.4-2.8c.3-.2.3-.5.3-.7 0-.4-.4-.7-.7-1-.4-.2-.7-.5-1.2-.4-.6 0-.8.8-.5 1.3.1.3.4.5.7.7-.2.5 0 1 .5 1.2.4.2 1 .1 1.1-.2.2-.2 0-.6-.2-1zm13.1 5.4c-.1-.2-.6-.4-.8-.4-.5 0-.8.3-.7.7.1.6.8.9 1.2 1s.8-.8.3-1.3zM194.2 360c.5.2 1 .4 1.4 0 .2-.3.1-.8-.3-1-.2-.2-.7-.4-1-.3-.5.2-.4.7 0 1.3zm21.2-6.4c0 .4.5.7 1 .8.3 0 .7-.4.6-.8 0-.4-.5-.8-.9-.7-.4 0-.7.2-.7.7zm-11.9-5.1c0 .6.4 1 1.1 1.1.4-.3.9-.5.5-1-.2-.5-.6-.7-1-.6-.3 0-.6.3-.6.5zm-19.2 26c-.4.2-.9.4-.5 1 .3.5.8.5 1.3.4.2-.6 0-1-.8-1.4zm-4-17c-.5-.3-1.5.2-1.4.7s.7 1.1 1.1 1 .6-1.3.2-1.7zm36.9 12.4c0 .2 0 .5.2.7.4.4.9.2 1.2 0 0-.5-.2-1-.8-1l-.6.3zm-12-13.2c.1.4.9.5 1.2.6.4.1.6-.2.6-.6-.1-.4-.4-.7-.9-.6-.3 0-1 0-.9.6zm17.7 4.9c.1.3.6 1 1 1s.4-.7.4-1c0-.3-.5-.7-1-.6-.3 0-.6.2-.4.6zm-44.6 4a1 1 0 0 0-1-.9c-.4 0-.5.4-.5.7 0 .4.4.6.8.7.4 0 .8-.2.7-.6zm16-2c0-.2.3-.4.3-.7 0-.4-.4-.6-.8-.6-.3 0-.7 0-.6.5 0 .4.5.8 1 .8zm28.6 13.8c0-.2-.4-.5-.6-.5-.2 0-.6 0-.7.2-.3.5.2.8.6 1 .5 0 .9-.2.7-.7zm-50.2 7.1c-.5 0-.6.6-.9.9l.2.2 1.4.3.2-.3c-.3-.3-.3-1-.9-1zm34.2-35.1c0 .2.5.5.6.7.7 0 .8-.3.7-.7 0-.3-.3-.7-.7-.6-.3 0-.6.4-.6.6zm-32.1 20.5c-.2-.2-.8 0-1.2 0l-.2.4c.4.2.8.8 1.2.7a.6.6 0 0 0 .2-1.1zm20.5 15.7c.2 0 .4 0 .6-.2 0 .3.1.5.4.7.4.4.8.4 1.2.3.5-.3.3-.8.2-1.3l-1.2-.3a.9.9 0 0 0 0-.6c0-.7-1.1-1.4-1.9-1.5-.8 0-1.3.6-1.1 1.3.2 1 1 1.7 1.8 1.6zm6.6-.3c-.1-.5-.5-.8-1-.8-.4 0-.8.5-.6 1 0 .4.5.7 1 .6.5 0 .7-.3.6-.8zm-3.5-1.5c.3.4 1.3.4 1.3 0s-.5-1-1.1-.9c-.3 0-.4.6-.2 1zm-6.8-28.7c-.4-.3-.6-.2-1.1.5.2.6 1 .7 1.3.5.2-.2.1-.8-.2-1zm0-5c-.4-.3-1.1-.2-1 .4 0 .7 1 .7 1.3.5.2-.2 0-.8-.3-1zm28 15.4c.1.3 1 .5 1.2.5l.3-.6c0-.3-.3-.6-.6-.5-.3 0-1 .3-.9.6zM179 389c.2 0 .8 0 .7-.4s-.6-.4-.8-.4c-.2 0-.3.2-.4.4.2.1.3.4.5.4zm-4-13.2c.2 0 .5-.1.5-.3s-.5-.3-.7-.3l-.3.3.6.3zm0 9.4.2-.1c0-.1-.1-.3-.3-.3s-.1.2-.1.2l.2.2zm38-34.5c-.1.1 0 .5.4.5s.3-.3.3-.5l-.4-.3-.4.3zm-3.6 1.3c0 .2.5.4.6.4.2 0 .5 0 .5-.3s-.4-.4-.5-.4l-.6.3zm1.8 1.6c.1.3.4.5.7.4.3 0 .3-.3.3-.5 0-.1-.2-.4-.6-.4-.3 0-.5.2-.4.5zm-18.6 11.6c-.3 0-.4 0-.4.3 0 .2.1.4.4.4.2 0 .4 0 .4-.3 0-.2-.2-.4-.4-.4zm5.6-5a2.2 2.2 0 0 0 2.6.9c.6-.1 1.2.1 1.6-.3.5-.5 1-1.6.1-2.8a2.8 2.8 0 0 0-1.8-1.2c-.8-.1-1 .6-1.8.8-1.8.3-1.4 1.6-.7 2.7zm3 4c.4.5 1.7.8 2.3.2s.5-1.2 0-1.8-1.3-.5-2.1-.2c-.6.2-.7 1.3-.3 1.8zm-5.8 3c.6.3 1.8.2 1.8-1s-.8-1.7-1.6-1.8c-.7-.2-1.8.5-1.7 1.3 0 .9.8 1.4 1.4 1.6zm-8.2-2.9c0 .4.2.5.4.6s.4.4.7.5 1.2.2 1.6-.2a1 1 0 0 0 .2-1.2c-.2-.4-.6-.7-1-.8s-1-.1-1.2.2-.8.5-.7.9zm2.3 3.8c.2.2.5.3.6.2s.3-.4.2-.6-.5-.2-.6-.1c-.2 0-.3.3-.2.5zm2.1-8c.2-.3.5-1-.1-1.3s-1 0-1 .1-.5.3-.5 0c0-.1-.2-.3-.9-.5s-1 0-1 .6c-.1.6.4 1.3 1.2 1.5s1-.2 1.4 0c.5.2.7 0 1-.4zm-6-1.2c0-.6.2-1.1-.2-1.7l-.9-.4c-.3-.7-1-1.2-1.4-1.2-.4 0-.6.3-.6.6 0 .7.2 1 1 1.3l1 1.4c.3.5 1 .4 1 0zm.2 18.2c0 .4.5.7 1 .8.5 0 .7-.3.7-.7-.1-.5-.6-.9-1-1-.5 0-.8.4-.7 1zm20.9.6c.4-.7-.4-2.4-1.2-2.8s-1.5 0-1.7 0-.5-1.3-1.5-1.9-2.4 0-2.8.5c-.3.6-.5 1-.3 1.6.2.6 1 1.5 1.8 1.6.8 0 1.7-.4 2-.2s.4 1.4 1.4 1.8 1.9 0 2.3-.6zm-2 6.2c0-.2 1.5.7 2-.4s0-2-1.3-2.4c-.4-.1-.7-.5-1.2-.8 0-.4-.4-.7-.8-.8-.7-.6-1.5-1-2.3-.5-1.3.5-1 1.6-.5 2s1.3.6 1.5 1-.6-.2-.4 1c.3 1.3 2.4 2.2 3 1z"/><path d="M202 376.8c-.5.6-.2 1.7.6 2.3.6.5 2 .4 2.4-.2.5-.6 0-1.5-1-2.2-.7-.5-1.6-.5-2 0zm-5.3 4.1c-.4.7 0 1.7.6 2.1 1 .5 2 .5 2.4-.2.5-.6.1-1.4-.8-2-1-.6-1.8-.5-2.2.1zm-11.8-12.1c.9.5 2 .4 2.3-.3.4-.6.2-1.3-.4-1.6-.8-.6-2.2-.5-2.5 0-.4.6 0 1.4.6 1.9zm22 5.9c.8.4 1.8.3 2.2-.3.2-.3-.1-1-.7-1.4-.8-.5-1.5-.4-1.8.2-.4.5-.2 1.2.3 1.5zm-3.6-3.5c.6.4 1.3.3 1.6 0 .3-.6.1-1.5-.4-1.8-.7-.4-1.6-.3-2 .2-.2.3.2 1.2.8 1.6zm-35.5 22.5c-.3.6-.2 1.2.5 1.6.6.4 1.4.4 1.6 0 .3-.5 0-1.5-.7-1.9a1 1 0 0 0-1.4.3zm42.8-13.8c.5.3 1.2 0 1.6-.5.2-.3 0-.6-.3-.9-.6-.4-1.4-.4-1.6 0-.3.3-.1 1.1.3 1.4zm-35.3 19c0-.5-.2-.8-.7-1-.4-.2-1-.1-1.2.2-.3.5.2 1 .5 1.4 1 0 1.4-.2 1.4-.7zm8.2-27.1c-.2.3 0 .8.4 1.1.5.3 1 .3 1.3 0 .2-.4 0-.9-.3-1.2-.5-.3-1.2-.2-1.4.1zm-2.1-2.3.8.4c.5 0 .7-.4.5-1.3-.5-.2-1-.6-1.4-.1-.3.3-.3.7 0 1zm10.7-1.4c.4 0 1-.8.6-1.2-.2-.3-.9-.5-1.1-.3-.4.3 0 1.4.5 1.5zm4.4-1.8c.4-.5.5-1 0-1.2-.5-.4-.9-.3-1.2 0 0 .7.5 1 1.1 1.2zm-32.7 19-.8-.4c-.5.1-.5.8-.3 1s.9.4 1.2 0l-.1-.6zm2 13.2c-.3-.3-1.1 0-1.2.2 0 .3.3.5.6.8.3.2.7.2.8-.1.2-.3.3-.6-.2-1zm7.3-13.2c-.7-.4-1.6-.4-1.8 0s.1 1.4.7 1.8c.7.4 1.4.3 1.7-.2s.1-1.2-.6-1.6zm-5.7 2c-.1.1.2.6.4.8.3.3 1 .3 1 0 0-.2-.2-.6-.4-.7-.2-.2-.8-.4-1-.2zm24-24.1c.3.3.7.2.9 0 0-.3 0-1-.3-1s-.8 0-.8.2c-.1.2 0 .6.2.8zm-7.7 1.4c.1 0 .4-.2.3-.4 0-.2-.3-.4-.5-.5-.1 0-.5.1-.6.4s.6.5.8.5zm27.8 6.6h.6c.1 0 .2-.5 0-.7s-.6 0-.7.2l.1.5zm-21-1.4c0-.2 0-.4-.2-.6s-.5 0-.6 0c0 .1-.2.5 0 .7s.7 0 .7-.1zm9.3-4.5c.3-.1.6-.1.6-.3 0 0 0-.4-.2-.4h-.6l.2.7zm-13.2 10.4c-.3 0-.5-.2-.7-.3-.7-.6-1.4-.6-1.8 0a.7.7 0 0 0-.3-.2c-.3-.2-.9 0-1.1.3-.3.5-.1 1 .3 1.3.5.2 1 .1 1.2-.2l.7.4c.5.2.8.3 1 .7.5.5 1.1.6 1.7.7.6.1 1.2-.3 1.3-.7v-.1c.2.3.4.6.8.8.4.3 1 .1 1.4-.4.3-.4.1-1-.3-1.3-.5-.4-1.5-.3-1.8 0l-.1.2-.5-.5c-.5-.5-1.1-.6-1.8-.7zm21.3 5.1c.3.3.7.3 1 0 .4-.4.5-.8.3-1.1-.3-.3-1.3-.4-1.6-.1-.2.2 0 1 .3 1.2zm-18.3-9.1.3 1.7c.1.6 1.1 1.2 1.8 1.2.4 0 .7 0 .8-.4 0-1 0-1.8-.6-2.7l-.4-.4c-1-.6-1.8-.3-1.9.6zm-19.5 13.6c.7-.6.4-1.4-.5-1.8l-1.9-.5c-.7 0-1.4.5-1.4 1.1 0 .4.2 1.1 1 1.2 1.1-.6 1.4.3 2.4.2l.4-.2zm7.9-16c.7.4 1.8.3 2.2-.4.4-.6 0-1.7-.7-2.1-.8-.5-2-.5-2.3 0-.3.6.1 2 .8 2.5zm0 25.3c.2-.6-.2-2-.9-2.4-.7-.4-1.7-.3-2.1.3-.4.6-.1 1.7.6 2.1.8.5 2 .5 2.3 0zm22.3-10.1c-.5.8-.2 1.7.7 2.2.7.4 1.3.4 1.7 0l.2.1c.7.4 1.6.2 2-.3.4-.6 0-1.6-.6-2-.7-.4-1.4-.5-2-.2-.7-.4-1.7-.3-2 .2zm7.8-7.9c-.6-.4-1.7-.2-2.2.5-.4.5-.2 1.1.5 1.5.9.6 1.7.5 2.2-.2.3-.5.1-1.3-.5-1.8zm-41.3 3c-.7-.3-1.4-.3-1.7.1-.3.6 0 1.5.7 2 .5.3 1.3 0 1.6-.4.3-.6.1-1.2-.6-1.6zm28.6-5c-.8-.4-1.4-.3-1.7.3-.3.5-.2 1.1.3 1.4.7.4 1.9.2 2.1-.3.2-.3-.2-1-.8-1.4zm-18.7 3.7c-.3.5.1 1.5.8 2 .5.3 1.1.2 1.4-.3.5-.6.3-1.2-.5-1.7-.7-.4-1.5-.4-1.7 0zm-3.9 14.4c-.5-.3-1.5-.2-1.8.3-.3.3.1 1.2.6 1.5.4.3 1.2.3 1.4 0 .4-.7.4-1.5-.2-1.8zm-1.3-3.7c-.6-.4-1.2-.4-1.4 0-.3.3 0 1.4.4 1.7.7.4 1.3.3 1.7-.3.3-.4 0-1-.7-1.4zm8.7-16.4c-.5-.4-1.1-.2-1.5.3-.3.4-.2 1 .2 1.2.5.3 1.6.3 1.9 0 .3-.4.1-1-.6-1.5zm6.9 7.6c-.5.7-.4 1.3.2 1.7.4.3 1.4.2 1.7-.1.2-.4-.2-1.3-.8-1.7-.4-.3-.9-.2-1 .1h-.1z"/><path d="M175.1 387.2c-.4-.3-1.3-.2-1.6.2-.2.3-.1.8.3 1 .6.4 1.3.4 1.6 0 .3-.3.2-.9-.3-1.2zm.6 10.6c.7.4 1.2.5 1.5.2.2-.4 0-1.2-.6-1.6-.4-.2-1.2 0-1.4.4-.2.3 0 .7.5 1zm38-15.8c.4.2 1.2.2 1.4 0 .2-.4-.1-1.2-.6-1.4s-1-.2-1.1.2c-.3.4-.1 1 .3 1.2zm-50.3 6.8c-.5-.2-1-.2-1.3.2-.3.4 0 1 .4 1.2.4.3 1 .2 1.2-.1.3-.5.2-1-.3-1.3zm8.2 8.8c-.1.3-.3.7.1 1 .7.4 1.3.4 1.5 0 .3-.4 0-1-.5-1.3-.4-.2-1-.1-1.1.3zm39.6-15.5c-.1-.2-.6-.4-.8-.4a.8.8 0 0 0-.7.5l.3.6 1.2.8c.4.2.6.2.8-.2l-.1-.3c-.4-.3-.6-.6-.7-1zm-4.8.6c-.1.3.3 1 .7 1.3.4.1 1-.1 1.2-.5.2-.3 0-.6-.5-.8-.7-.3-1.3-.3-1.4 0zm-37.8 14.7c-.4-.2-1-.1-1.3.2-.2.3 0 .8.4 1 .5.4 1 .3 1.3 0 .2-.4 0-1-.4-1.2zm-5.1-3.5c-.2.3 0 .9.4 1s1 .2 1.2 0c.3-.4.1-.9-.3-1.1-.5-.3-1.1-.3-1.3 0zm23-22.4c-.3 0-.6.5-.6.7 0 .6 1 1 1.4 1 .5-.2.8-.8.2-1.4-.3-.2-.8-.3-1-.3zm-19.3 21c.3-.3.1-.8-.3-1.1-.4-.4-.9-.4-1.1 0-.3.3-.2.8.2 1.1.4.3 1 .3 1.2 0zm38.9-11.4c0-.5 0-1-.6-1.1-.6-.2-.9.1-1 .6.5.6 1 .8 1.6.5zm-11.1-9c-.6-.3-1-.3-1.2 0-.2.3 0 .8.4 1 .4.3.8.2 1-.1l-.2-.8zm.2-1.2h1c.3-.2 0-.9-.4-1h-.7c-.3.4-.3.8 0 1h.1zm10.4-5.1c.3-.4-.2-1-.3-1.3l-.3-.1-1 .8.2.3c.4 0 1 .6 1.4.3zm-33.5 9.9-1.5-.7c-.5-.4-1-.4-1.2-.1-.3.3-.2.8.2 1.2.3.2.6.5.7.8.2.5.6.9 1.2 1 .5 0 1.2-.6 1.2-1 0-.5 0-1-.6-1.2zm2.2-.4c-.3.4-.2.8.3 1.1.4.3 1 .3 1.3 0 .2-.4 0-.9-.5-1.2-.4-.2-1-.2-1.1.1zm3.5-2.3c-.4-.3-.9-.2-1 .1l.1.8c.6.3 1 .1 1.2-.2.2-.3 0-.5-.3-.7zm-3.2-2.2c.6.3 1 .2 1.2-.2.2-.3 0-.5-.3-.7-.4-.2-.9-.2-1 .1l.1.8zm41.2 5.7c.3 0 .4-.5.5-.9l-.2-.4c-.4 0-1.2-.1-1.2.3s.3 1 1 1h-.1zm-17.6 3c.3-.5.2-1.3-.3-1.7-.6-.4-1.7-.3-2 .2-.2.3.2 1 .8 1.4.5.4 1.3.4 1.5 0zm-28.7.7c.3.3 1 .4 1.1 0 0-.2.2-.9-.2-1-.4-.3-.8 0-1 .2-.2.2-.3.5 0 .8zm19.4-13.5c-.3 0-.1 1.4.2 1.7.4.2 1-.2 1-.8s-.8-1-1.1-1zm-25.6 32.5c-.2-.1-1.2-.3-1.4 0-.3.3.5 1 .9 1.3.2.1.9.2 1-.1.3-.3-.2-.9-.5-1.2zm34.7-31.5c-.1.1-.4.5 0 .8s.7 0 .8-.2c.1-.1 0-.4-.1-.6h-.7zm-33 9.9h.5l-.1-.6c-.1 0-.6-.2-.7 0s.2.5.3.6zm-3 15.2h.4v-.6c-.2 0-.6-.2-.8 0s.2.4.4.6zm48.8-19.9v.6c.2.2.6-.1.7-.3l-.2-.4-.5.1zm-7.3-6v.4h.4l-.1-.4h-.3zm-40.8 15.4h.4s0-.3-.2-.4h-.3l.1.4zm11.4-1.9c-.5 0-1 .4-1 .9 0 .6.6 1 .8 1.1-.2.6 0 1.4.7 1.8.6.4 1.3.5 1.8.3 0 .3 0 .6.4 1 .8.8 1.8 1 2.3.7.4-.2.6-.8.5-1.4.4.2.8.1 1-.2.2-.2 0-.8-.4-1s-1-.3-1.2 0v.2c-.7-.5-1.4-.4-1.8-.3a.4.4 0 0 0-.1 0c0-.4-.3-.9-1-1.3a2.7 2.7 0 0 0-.7-.3.5.5 0 0 0 .2-.5c0-.5-.8-1-1.4-1zm22.2-7.3c.7 1.1 1.8.5 2 1.2s-.7.5-.4 1.6 1.6 1.7 2.1 1.2.3-1.2.5-1.2 1-.2.9-.8c-.5-1.3-1.6-.9-1.9-1.2s-.2-1.2-.5-1.8c-.5-.8-1.4-1.3-2.2-1-1 .5-1 1.3-.5 2zm-2.5 5.3c-.9-.6-2.1-.6-2.5-.1-.4.6 0 1.8.8 2.2.7.4 1.8.3 2.2-.3.4-.6.2-1.4-.5-1.8zm-21.4 12.3c-.2.3 0 .9.4 1.1.4.3 1 .2 1.2-.2.2-.3 0-.8-.6-1-.4-.3-.8-.3-1 0zm30.6-10.1c-.4-.3-1-.3-1.1 0-.3.4-.2.8.2 1 .5.4 1 .4 1.3 0 .2-.2 0-.7-.4-1zm-32.4-8.8c.2.4.1.3-.3.6s-.5 1 .4 1.5c1 .4 1.9 0 2.2-.7.4-.6-.4-2-1.4-2.4-.8-.3-1 .5-.9 1zm16.9-8.3h.5l-.1-.6c-.1 0-.6-.2-.7 0s.2.5.3.6zm11.2 18.7c-1.2-.4-2.4.3-2.5 1.5 0 .5-.2.5-.6.7-.4.1-.4.8-.1 1.2.3.4.7.4 1 .2.3-.1.6-.3 1-.3l2.2.2c.8 1.6 1.3 1.8 2.6 1.1.6-.3.6-1.2-.1-1.7-.6-.4-1.3-.6-2.1-1-.2-.7-.5-1.5-1.4-1.9zm-25 20.5c.8-.2 1.2-1.2.8-2-.3-.6-1.6-1.2-2.4-1-.8.2-1 1-.5 2a1.9 1.9 0 0 0 2 1zm33.4-25.3c-.8.2-1.3 1-1 1.6.3.7 1.8 1.5 2.4 1.3.8-.3 1-1.1.7-1.8-.4-.8-1.4-1.3-2.1-1zm-28.9 12.4c.7.4 1.4.4 1.8 0 .2-.2.2-.6.1-.9-.3-.8-1-1.3-2-1.3-.2.2-.5.5-.6.8-.1.5.2 1.2.7 1.4zm13-12.9c.3.5.8.7 1.6.5.6-.2.9-.7.6-1-.3-.5-1.5-1.1-1.9-1-.6.2-.8.8-.4 1.5zm-16.6 15c.3.6.8.8 1.5.6.7-.2 1-.7.7-1.2-.2-.4-1.5-1-1.9-.8-.5.2-.7.7-.3 1.3zm-6.2-2.8c-.3-.5-.8-.8-1.2-.7-.5.1-1 1.1-.7 1.5.3.6 1 .8 1.7.5.5-.2.6-.6.2-1.3zm-.2 6.5c-.3-.4-1.1-.6-1.8-.4-.4.1-.5.4-.3.8.3.6 1 1 1.5.9.5-.2.8-.9.6-1.3zm33.2-22.8c.2.3.8.6 1.2.5.4-.1.6-.7.5-1s-.8-.6-1.2-.5c-.4.1-.6.6-.4 1zm-21.6-4.8c0-.2-.5-.3-.6-.3-.2 0-.5.3-.4.5s.6.2.7.2c.2 0 .3-.3.3-.5zm28.8 3.8c0 .1.2.5.5.4.3 0 .3-.4.2-.4a1 1 0 0 0-.5-.3s-.3.2-.2.3zm-43.6 12v.6l.4.2c.1-.1.4-.4.3-.6s-.6-.2-.7-.1zm6 12.5c-.1-.3-.5-.5-1-.5-.6.1-1 .4-1 .7.2.3 1 .9 1.4.9.4 0 .7-.7.6-1z"/><path d="M170 376.8c-.2-.1-.3-.4-.6-.3s-.2.3-.2.4c.1.1.4.5.6.5s.2-.5.1-.6zm23 3.8c-2-.3-2.3 0-2.6 1.5a1.9 1.9 0 0 0-.1-.5.7.7 0 0 0-.9-.5c-.4 0-.6.4-.4.7 0 .2.4.5.7.6-.4.2-.5.5-.3.9.3.5 1 .7 1.5.4.4-.3.8-.1 1.4 0-.1 1.2.5 1.8 1.6 1.8h.4c.7-.2 1-.5.6-1.2-.3-.6-.7-1.2-1.7-1.2l.5-.6c.5-.2.6-.5.3-.9-.2-.4-.5-.8-1-1zm-18.5-5.7c.4.6 1.2 1 2 1 .2 0 .5 0 .6-.2.6-.6.5-1.4-.2-2.1l-.5-.5c.3-.2.6-.3.8-.6.4-.4.4-.7 0-1.2-.5-.5-1-.7-1.7-.6-.5.1-.7.5-.7 1l.2 1.1-.4.3c-.4.5-.5 1.3-.1 1.8zm10.7-6 .8 2c-1.3.4-1.3.5-.6 1.5.7 0 1-.2 1-.9 1.7 0 2-.9.7-2.3l.1-.2c.3-.4.1-.7-.2-1-.3-.4-.6-.4-1-.4-1 .2-1.2.5-.8 1.4zm22.4 13.2c-.5 0-.9 0-1 .5v.5l1.1.9c.1 1 .6 1.7 1.3 1.7.6.1 1.4-.6 1.4-1.2s-.5-.9-2-1.1c0-.6 0-1.1-.8-1.3zm3.4-5.4c.3.5 1.3.8 2 .6.6-.2.7-.9.2-1.6-.4-.7-1.1-1-1.8-.7-.7.3-.8 1-.4 1.7zm-20.6-3.2c.4.7 1.2 1 2 .8.7-.3 1-1.3.5-2-.3-.6-1.5-1-2.1-.8-.8.2-1 1-.4 2zm-22.2 26.1c.3.6 1.5 1 2.3.8.7-.2.9-.8.5-1.5a1.8 1.8 0 0 0-2-.8 1.1 1.1 0 0 0-.8 1.5zm13-26.1c.6-.2 1.2-1 1-1.4-.4-.6-1.3-1.1-2-1-.6.2-1 1-.5 1.8.2.4.9.7 1.5.6zm19.8-5.7c-.1.7.7 1.6 1.3 1.6.7 0 1-.3 1.1-.8.2-.5-.1-1-.7-1.2-.4-.2-1.1-.9-1.6-.6s-.1.7-.1 1zm-.7 11.5c.4.8 1 1 1.5.9.6-.2 1-1 .7-1.5-.3-.5-1.3-1-2-.8-.4.1-.5.9-.2 1.4zm-30.6 8.6c.5-.2.7-.8.4-1.2-.3-.5-1.6-1.1-2-1-.4.2-.5 1-.1 1.7.3.6 1 .8 1.7.5zm19.8-11.3c-.4-.6-1.3-1-1.9-1-.4.2-.5 1.3-.2 1.9.2.3 1 .6 1.4.5.7-.2 1-.8.6-1.4zm6.9-5.8c-.3-.4-1.2-.7-1.7-.5-.6.2-.7.8-.4 1.4.3.6.8.8 1.3.6.7-.2 1.1-1 .8-1.5zm-24.8 19.5c.5.8 1.2 1.2 1.7 1 .4-.2.6-1.1.3-1.6-.3-.3-1.3-.6-1.7-.5-.4.2-.5.8-.3 1.1zm39.9-10.9c.2.5 1.1 1 1.7.9.4 0 .7-.6.5-1-.3-.6-1-1-1.7-.8-.5.2-.7.5-.5 1zm-15.3-4.2c.4.6 1.4.7 1.6.5.3 0 .4-1-.2-1.4-.4-.3-.8-.3-1.2 0-.4.2-.5.5-.2 1zm-29.4 17c-.3-.4-1-.8-1.4-.7-.4.2-.6.9-.3 1.3.2.4.8.5 1.2.4.4-.2.7-.7.5-1zm1.9 1.2.6.7h.8c.2-.1.2-.5.1-.7l-.6-1.2c-.2-.4-.5-.4-.8-.3 0 0-.2.2-.1.3.2.5 0 .8 0 1.2zm4.4 2c.4 0 .5-1 .2-1.3-.2-.2-1-.4-1.4-.2-.3.1-.3.5 0 .9.5.5 1 .8 1.2.7zm23.7-15c.2.4.6.6 1 .5.5 0 .8-.4.7-.8 0-.6-.8-1-1.2-1s-.9.7-.5 1.3zm3.1-5.2c-.4.2-.5.7-.2 1.3.3 0 .7.3 1 .2.6 0 .7-.6.4-1a1 1 0 0 0-1.2-.5zm-3.7 3c-.3-.4-.9-.6-1.3-.4-.4.1-.5.7-.2 1 .2.5.8.7 1.2.5.4-.1.5-.7.3-1zm-18.7 2.1c.5 0 1 .1 1.2-.4.2-.4 0-.8-.6-1h-.9c-.4.4-.1 1 .3 1.4zm18.2-12.6a1 1 0 0 0 1.1.5c.4 0 .6-.5.4-.9-.2-.4-.7-.7-1-.5-.5.2-.7.5-.5.9zm-12.9-1.2c.2.6.7.8 1.5.8.2-.4.5-.8 0-1.2-.3-.4-.8-.5-1.1-.3l-.4.7zM172.5 397c-.4.3-.7.7-.2 1.2.5.4 1 .3 1.3 0 0-.6-.3-1-1.1-1.2zm-9.2-14.9c-.5-.3-1.2.5-1 1s1 1 1.4.8c.4-.2.1-1.5-.4-1.8zm39.1.5c0 .2.2.5.4.6.5.3.9 0 1.1-.4-.2-.4-.5-.8-1-.7-.3 0-.5.3-.5.5zm-15.4-9c.2.5 1 .4 1.3.4.4 0 .5-.4.3-.8-.3-.4-.6-.6-1-.4-.2.2-.9.4-.6.9zm18.3-.6c.2.2.9.8 1.2.7.2-.1.1-.9 0-1.2 0-.3-.7-.5-1-.3-.3.1-.5.4-.2.8zM164 390.5c-.2-.4-.8-.7-1.1-.6-.4.2-.5.5-.3.9.2.3.5.5 1 .4.3 0 .5-.4.4-.7zm14.7-6.7v-.8c-.1-.4-.5-.5-.9-.4-.3.1-.6.3-.4.7.1.3.7.6 1.3.5zm7.7-17.5c0 .2.5.4.7.5.6-.2.6-.5.5-.8s-.6-.6-1-.4c-.1 0-.3.5-.2.7zm-24.5 29.3c-.2-.1-.7.2-1 .4l-.1.4c.4.2 1 .7 1.4.4s.3-1-.3-1.2zm11.5-19.2c-.4-.1-.6 0-.8.8.4.6 1.3.5 1.4.1.1-.2-.2-.7-.5-.9zm-1.5-4.8c-.4-.2-1.1.1-.8.8.4.6 1.2.4 1.4 0 0-.2-.2-.7-.6-.8zm31.5 6.2c.2.3 1 .2 1.2.1.1 0 .2-.4 0-.7 0-.3-.4-.5-.7-.3-.2.2-.7.6-.5.9zm12.4 3c.1.2.3.2.4.1v-.2l-.2-.2-.2.3zm-23.3-15s.2.4.6.3.1-.4 0-.6l-.4-.2c-.1 0-.3.3-.2.4zm-3 2.3c.2.2.6.2.7.2.1-.1.4-.2.3-.4-.1-.2-.4-.3-.6-.3-.1 0-.5.3-.3.5zm2.2 1c.2.2.5.3.8.2.2-.2.2-.5 0-.6 0-.2-.2-.4-.5-.3s-.5.3-.3.6zm-14.2 16.7c-.3 0-.3.1-.2.4 0 .2.2.3.4.2.3 0 .4-.1.3-.3-.1-.3-.3-.4-.5-.3zm4-6.4c.3.3.7.5 1.2.5.5.1 1 0 1.4-.4.5-.3 1.2-.2 1.4-.7.3-.7.3-2-1-3-.7-.5-1.4-.7-2-.7-.7.1-.7 1-1.3 1.4-1.5.8-.7 2 .3 2.9zm-.7 7.6c.7 0 1.7-.5 1.3-1.5s-1.3-1.6-2-1.6-1.4 1.1-1.1 1.9c.3.9 1.2 1.1 1.8 1.2zm-8.7-.5a1.1 1.1 0 0 0 .7.6c.2 0 .4.3.8.3s1.1-.2 1.3-.7.1-1-.2-1.3c-.3-.4-.8-.5-1.2-.5s-.9.1-1 .5-.6.8-.4 1.1zm3.4 3h.6v-.6h-.7a.4.4 0 0 0 .1.6zm-.5-8.2c0-.4.1-1-.6-1.3s-.9.2-.9.4-.3.4-.4.2-.3-.4-1-.3-.8.3-.7.9c.1.6.9 1.1 1.6 1.1.8 0 .8-.4 1.3-.3.5 0 .6-.2.7-.7zm-6.2.7c-.1-.5-.1-1.2-.7-1.7h-.9c-.5-.6-1.3-1-1.7-.9-.3.2-.4.5-.3.8.2.7.5.8 1.4 1l1.3 1.1c.4.4 1 .1 1-.3zm6 17.2c.1.4.6.6 1 .4.5 0 .6-.4.4-.8-.2-.5-.7-.8-1.2-.7-.4.1-.5.6-.3 1z"/></g><path stroke="#d4dae5" stroke-width="2" d="M304 185h102v221h-77V256a25 25 0 0 0-25-25 23 23 0 1 1 0-46z"/><path fill="url(#F)" d="M330 262h-2v138h2V262z"/><mask id="C" width="65" height="24" x="327" y="286" maskUnits="userSpaceOnUse"><path fill="#fff" d="M391.6 286h-64v24h64v-24z"/></mask><g class="C" mask="url(#C)"><path d="M337 301c1 .6 2.4 0 2.8-1.4.2-.4.4-.5.8-.6.5-.2.7-.9.5-1.3-.2-.5-.6-.5-1-.4-.3.2-.6.3-1 .3-.6 0-1.3-.3-2-.4-.4-1.7-1-2-2.3-1.4-.8.4-1 1.3-.4 2 .4.4 1 .7 1.7 1.1 0 .8 0 1.7.9 2.2zm28.9-15.5c-.9.1-1.6 1.1-1.5 2 .2.7 1.2 1.4 2 1.3.9-.1 1.3-1 1.1-2.2-.1-.8-.8-1.3-1.6-1.1zm-6.7-.7c-.9.2-1.5 1.1-1.3 1.8.3 1 1.2 1.5 2 1.3.9-.2 1.3-1 1-1.9-.2-1-.9-1.5-1.7-1.2zm-26.9 3.1c.4 0 1 .2 1.1-.3.2-.7.7-1 1.2-1.3.5-.2.5-.6.3-1-.3-.5-1-.7-1.3-.4-.4.6-1 .7-1.5.6-.6.2-1 .7-1 1.1 0 .5.7 1.3 1.2 1.3zM328 304c.9-.1 1.5-.9 1.4-1.6-.1-.8-1.3-1.6-2-1.4-.8.1-1.3 1-1.1 1.8.1.8 1 1.4 1.7 1.2zm31-6.8c-.6-.5-1.3-.5-1.8 0a1.2 1.2 0 0 0-.4.8c0 .9.6 1.4 1.7 1.6l.7-.9c.3-.5.1-1.2-.2-1.5zm11.8-9.8c.2.7 1.1 1.3 1.8 1 .5 0 .9-.8.7-1.3-.2-.8-.8-1.2-1.6-1-.7.2-1.1.8-1 1.3zm-27 20c-.2-.6-.7-.8-1.5-.6-.7.1-1 .6-1 1 .2.5 1.2 1.3 1.6 1.2.7-.1 1-.8.8-1.6zm19-11.5c-.1-.8-.5-1-1.3-.8-.8.2-1.1.6-1 1.1.1.5 1.1 1.2 1.6 1 .6 0 .8-.6.7-1.3zm-34.2-10.3c.3.9.7 1.2 1.3 1 .5 0 1-1 .8-1.4-.2-.4-1-.8-1.6-.7-.4.1-.6.6-.5 1zm39.7 14.4c.2.6.6.9 1 .8.5-.1 1.2-1.1 1-1.5 0-.7-.6-1-1.3-.7-.7.2-.9.7-.7 1.4zm1.5-6.4c.1.6.9.8 1.6.7.5-.1.6-.5.5-.9-.1-.6-.7-1.1-1.2-1-.5.1-1 .8-1 1.2zm-22.5 5.6c0 .5.6.8 1.1.6.5-.1.8-.7.7-1.1-.1-.4-1-.8-1.4-.7-.3.1-.5.8-.4 1.2zm-14.5 10.4c0-.4-.6-.7-1-.7-.3.1-.7.7-.7 1s.6.7 1 .6c.4 0 .8-.6.7-1zm11-14.8c-.2-.3-.5-.5-.9-.5-.4.1-.6.6-.5 1 .1.3.5.5.9.4.4-.1.7-.6.5-.9zm32.8-6.7c0 .1.3.3.5.3.1 0 .5-.3.5-.5s-.5-.3-.7-.3c-.1 0-.4.3-.3.5zm-6 17.5c.2 0 .3-.3.3-.5l-.4-.2c-.2 0-.5.3-.4.5s.5.3.5.2zm-38.4-14.1c.4-.9.2-1.5-.2-2s-1.4 0-2 .6c-.5.4-.4 1.6.1 2 .6.3 1.8.2 2.2-.6zm35 .9c0 .4.3.6.7.6.7 0 1.2-.3 1.2-.6 0-.4-.7-1-1.1-1-.3 0-.8.6-.8 1zm-24.7 11.4c1.7.5 2.1.3 2.9-1.3v-.1a2.7 2.7 0 0 0 0 .6c0 .4.2.7.6.6s.8-.4.7-.7c0-.2-.3-.5-.6-.7.5-.2.7-.5.6-1-.2-.5-.8-.8-1.4-.4-.5.3-.8 0-1.3-.2.5-1.2 0-2-1.1-2h-.3c-.8 0-1.1.4-1 1.2.2.7.3 1.3 1.4 1.3l-.8.6c-.4.2-.6.5-.5 1 0 .5.2 1 .8 1.1zm8.3-16.2c0 .5.2.8.7.8.5 0 .8.2 1.2.4 1 .6 1.9.3 2.4-.6l.4-.5c.6-.2.7-.5.7-1 0-.4-.4-.5-.8-.6l-1.3-.3c-.5 0-1-.2-1.3.3l-.5.2c-1.2 0-1.5.2-1.5 1.3zm8.5 2.3c-1 .3-1.5 1.2-1.3 2 .2.7.7 1 1.4 1a.6.6 0 0 0 0 .3c.2.6 1.1 1 1.9.9.7-.2 1.3-1.2 1.1-1.8-.1-.7-.7-1.2-1.3-1.3-.2-.7-1-1.2-1.8-1zm-31 9.4c.5.1 1 0 1.2-.4v-.5l-.8-1c.2-1 0-1.9-.6-2-.6-.1-1.6.5-1.7 1.2-.2.7 0 1 1.5 1.4 0 .5-.3 1.1.5 1.3zm8.4-16c-.9.1-1.3 1-1 2 0 .6 1 1.1 1.7 1 .9-.2 1.3-.9 1-1.9-.2-1-.8-1.4-1.7-1.2zm17 6.5c-.8.2-1.4 1-1.2 1.7.1.7 1.4 1.5 2.1 1.3.3 0 .5-.3.7-.6.2.2.5.3.9.2.4-.1.7-.6.6-1a1 1 0 0 0-1.2-.6 1 1 0 0 0-.2.1c-.2-.7-1-1.2-1.7-1zm-9.9 21c-.2-.7-.8-1.1-1.6-1-.8.3-1.4 1.3-1.1 2.1.2.7 1.1 1.2 1.8 1 .8-.2 1.2-1 1-2zm10.3-16.6c-.7.2-1.2 1.3-1 2.2.3.7 1 1 1.7.8 1.2-.4 1.2-.8 1-2 0-.7-1-1.2-1.7-1z"/><use href="#H"/><path d="M383.5 289.6c0-.7-1-1.2-2-1-.7.2-1 .8-.9 1.5.2.9.9 1.3 1.8 1.1.7-.1 1.3-.9 1.1-1.6zm-54.7-1.4-1.2-1.5c-.3-.3-.7-.4-1.1 0-.3.3-.4.7-.1 1.1l.3.7c.3.7.6 1 1.3 1 .7 0 1-.4.7-1.3zm6.3 15c-.2-.7-.6-1-1.2-1-.7.2-1.2 1-1.1 1.6.1.5 1 1 1.6 1 .5-.2.8-1 .7-1.5zm31.7-2.3c-.4 0-.8.8-.7 1.2.1.5 1.2 1.3 1.6 1.1.6-.1.9-1 .7-1.7-.2-.7-.8-.9-1.6-.6zm-21.6 7.4c.2.7 1 1.2 1.5 1 .4 0 1-1.2.7-1.7 0-.4-.7-.8-1.2-.7-.7.2-1.1.8-1 1.4zM332 293.8c.1.5.9 1 1.5 1 .5-.1 1-.8.9-1.5 0-.4-.6-.9-1-.8-1 .1-1.5.7-1.4 1.3zm33.4 4.2c-.3-.9-.8-1.3-1.3-1.2-.5.2-1 1.1-.8 1.6.2.4 1 .8 1.5.7.4-.2.7-.8.6-1.1zm-27 10.1c-.2-.6-1.1-.8-1.4-.7s-.6 1-.2 1.6c.3.3.7.4 1.2.2.4-.3.6-.6.4-1zm2.5-14.2c.3.3.7.4 1 0 .3-.1.5-.5.5-.8 0-.8-.8-.7-1.3-.8-.4.6-.7 1-.2 1.6zm29.6 3.4c.1.4.8.9 1.1.8.5-.2.9-.9.7-1.3s-.6-.7-1-.5c-.5.1-.8.6-.8 1z"/><use href="#I"/><path d="M386.5 285.9c.1-.2 0-.6-.3-.7s-.6-.2-.8-.1c-.2 0-.3.4-.3.6l.2 1.4c.1.3.4.4.8.3l.2-.4c-.1-.4 0-.7.2-1.1zm-21.6 6.8c-.3.2-.7 1-.5 1.4.1.3.9.6 1.3.4.3-.1.4-.5.2-1-.3-.6-.7-.9-1-.8zM338.7 303c0-.5-.4-.6-.8-.6-.5 0-.8.3-1 .7 0 .7.6 1.2 1 1.2s1-.6.8-1.3zm1.7-11.8c.4.1.8 0 .9-.5 0-.3 0-.8-.2-1a.7.7 0 0 0-.7-.1c0-.7-.3-1.3-.8-1.8a1.8 1.8 0 0 0-1-.5c-.6-.1-1 .1-1.5.5s-1.2.3-1.4.9c-.4.7-.6 2 .4 3 .7.6 1.3.8 2 .7.6-.1.7-1 1.4-1.5l.3-.2c0 .3.2.4.6.5zm-5.8 16.4c.4-.1.7-.7.5-1.3-.2 0-.5-.3-.9-.3-.5 0-.7.6-.6 1.1.1.4.6.6 1 .5zm4.3-2.1c.2.4.6.7 1 .6.5-.2.8-.7.7-1.2-.2-.4-.7-.7-1.1-.5-.4.1-.7.6-.6 1zm5.5-8.6c.2.3.6.7.9.7.9 0 1-.6 1.2-1.4-.5-.4-1-1-1.7-.6-.5.3-.7.8-.4 1.3zm6.7 2a1.2 1.2 0 0 0-.3.8c0 .5.4.6.8.8.3.2.6.5 1 .3.6-.2.7-1 .4-1.6l-.6-.5c.2-.6 0-1-.5-1.2-.4-.2-1 0-1 .4-.2.3 0 .8.2 1zm-13.8-3.7.8.2c.5-.1.7-.5.6-1-.1-.6-.8-.7-1.2-.7s-.6 1-.2 1.5zm20.4 11.6c-.5-.1-1-.2-1.3.3-.2.4-.1.8.3 1 .2.2.7.2.9.1.5-.4.4-.9.1-1.4z"/><use href="#J"/><path d="M378.8 291.4c.4-.3.8-.6.5-1.1-.4-.6-.8-.4-1.3-.2-.1.7 0 1.1.8 1.3zm-7 16.3c.5.3 1.4-.5 1.3-1s-.7-1-1.1-1-.5 1.7-.1 2zm-38.2-8.1c.1-.2 0-.5-.2-.7-.4-.3-.8 0-1.2.4.2.4.3 1 .9.9.2 0 .4-.4.5-.6zm-4.6 9c-.1-.3-.6-1-1-.9-.2.1-.3.9-.3 1.2 0 .3.5.6.9.4.3 0 .6-.4.4-.7zm43.9-9.1c0 .4.5.7.9.6.4-.1.5-.5.5-.9-.1-.3-.4-.5-.8-.5s-.7.4-.6.8zm-15.6 3.6c-.1.3-.3.6-.3 1 0 .3.4.5.7.4.4-.1.7-.2.6-.7 0-.4-.5-.7-1-.7zm-30.1-10c0 .1.3.3.5.3.3 0 .6-.2.7-.4.2-.6-.2-.8-.6-1-.5.2-.8.5-.6 1zm48.6 1.7c.2.1.7-.2 1-.4.2 0 .2-.2.3-.4-.4-.2-.8-.7-1.2-.5s-.6 1 0 1.3zm-15 16.6c.4.2.7 0 1-.8-.1-.6-1-.5-1.2-.2a.8.8 0 0 0 .3 1zm-29-7.1c-.1-.4-.9-.4-1.1-.3-.2 0-.3.5-.3.7 0 .4.3.6.6.4.3-.1.9-.5.8-.8z"/><use href="#K"/><path d="M388 287.8s-.4.2-.3.4.4.3.6.2l.3-.4-.6-.2zm-6 5s-.4.2-.3.4.4.3.6.2l.3-.4-.6-.2zm-6 5s-.4.2-.3.4.4.3.6.2l.3-.4-.6-.2zm-17.3 3.6c.2 0 .3-.1.3-.4 0-.2-.1-.3-.4-.3s-.3.1-.3.4c0 .2.1.3.4.3zm-5 5.2a1.8 1.8 0 0 0-1-.6c-.5-.2-1 0-1.5.3s-1.1.2-1.5.7c-.5.7-.9 2 0 3 .6.8 1.2 1 1.8 1 .8 0 1-1 1.7-1.3 1.6-.7 1.2-2 .5-3zm-3.4-3.4c-.5-.4-1.7-.4-2.2.4-.5.7-.4 1.4 0 1.9s1.4.3 2-.2c.6-.4.7-1.6.2-2zm5.5-3.7c-.6 0-1.8.4-1.7 1.5s.8 1.8 1.6 1.8 1.6-1 1.6-1.9c-.1-1-1-1.3-1.5-1.4zm8.3 2c0-.4-.2-.5-.4-.6l-.8-.4c-.4 0-1 .2-1.4.6-.4.5-.4 1-.2 1.4s.7.6 1 .6 1 0 1.2-.4.7-.8.6-1.2zm-2.7-3.4c-.2-.1-.4-.2-.6 0a.6.6 0 0 0-.1.6c0 .2.4.1.6 0 .1-.1.2-.4 0-.6zm-1 8.3c-.2.5-.5 1.2.1 1.5s1-.2 1-.4.5-.4.5-.2.2.5.8.5 1-.3 1-1c0-.6-.5-1.2-1.3-1.3s-.8.4-1.3.3c-.5 0-.7.2-.9.6zm6.2.5c0 .6-.2 1.2.3 1.8l.8.2c.3.7 1 1.1 1.4 1 .3-.1.5-.4.5-.8 0-.8-.2-1-1-1.1l-1-1.4c-.4-.4-1-.2-1 .3zm-2.6-18.2a.8.8 0 0 0-1-.6c-.4.1-.7.4-.6.9 0 .5.5.8 1 .7.4 0 .7-.5.6-1zm-20.5 2.1c-.4.9.5 2.6 1.2 3 .8.3 1.5-.5 1.7-.5s.5 1.4 1.5 1.8 2.3-.5 2.6-1.2c.3-.7.4-1.2.2-1.8-.2-.7-1-1.5-1.7-1.4s-1.7.8-2 .7-.4-1.5-1.4-1.8-1.8.4-2.1 1.2zm1.2-6.6c0 .2-1.5-.4-2 1s.2 2 1.4 2.2c.3 0 .7.4 1.1.7a.9.9 0 0 0 .9.7c.7.4 1.4.7 2.2 0 1.1-.9.8-2 .3-2.4s-1.2-.3-1.4-.7.6.1.3-1.2-2.4-1.9-2.8-.3z"/><use href="#L"/><path d="M334.6 303.5c.9-1.4.2-3.5-1.4-4.3-.6-.3-.7-.7-.8-1.2-.1-.7-1-1.2-1.6-1-.7.3-.8.8-.6 1.4l.2 1.4-1 3c-2.3.1-2.8.8-2.1 3 .3 1 1.5 1.6 2.4.9.7-.6 1.2-1.4 2-2.3 1 .2 2.2.3 3-.9zm-3-13c.9-1.4.2-3.5-1.4-4.3-.6-.3-.7-.7-.8-1.2-.1-.7-1-1.2-1.6-1-.7.3-.8.8-.6 1.4l.2 1.4-1 3c-2.3.1-2.8.8-2.1 3 .3 1 1.5 1.6 2.4.9.7-.6 1.2-1.4 2-2.3 1 .2 2.2.3 3-.9z"/><path d="M336.6 291.5c.9-1.4.2-3.5-1.4-4.3-.6-.3-.7-.7-.8-1.2-.1-.7-1-1.2-1.6-1-.7.3-.8.8-.6 1.4l.2 1.4-1 3c-2.3.1-2.8.8-2.1 3 .3 1 1.5 1.6 2.4.9.7-.6 1.2-1.4 2-2.3 1 .2 2.2.3 3-.9zm-6 16c.7-1 .2-2.4-1-3-.4-.2-.5-.4-.5-.8-.1-.5-.8-.8-1.3-.7-.5.2-.5.5-.4 1 0 .3.2.6.1 1l-.7 2c-1.7.1-2 .6-1.6 2 .3.9 1.1 1.2 1.8.7.6-.4 1-1 1.5-1.6.7.1 1.7.2 2.2-.6z"/><path d="M328.5 308.4c.8 1.3 2.8 1.3 4.1 0 .5-.4.8-.4 1.3-.3.6.1 1.3-.6 1.4-1.3 0-.7-.4-.9-1-1-.4 0-.9 0-1.2-.2-.8-.5-1.5-1.2-2.2-1.8.7-2.2.3-3-1.7-3-1.1 0-2 1-1.7 2 .2.9.8 1.6 1.3 2.6-.5.9-1 2-.3 3z"/><path d="M333.2 308.6c0-.9-.8-1.6-1.5-1.6s-1.7 1.1-1.7 1.8c.1.8 1 1.4 1.7 1.4.8-.1 1.5-.8 1.5-1.6zm5.2-15.2c-.6 0-.8.6-.7 1.4 0 .6.4 1 1 1 .4 0 1.3-1 1.2-1.4 0-.7-.7-1.1-1.5-1zm-7.7-4.5c.6 0 .9-.6.8-1-.1-.5-.6-1-1-.9-.4 0-1 .9-.9 1.3.1.3.8.6 1.1.6zm8.5 15.6c-.3 0-.7.5-.7.9s.5.8 1 .8c.3 0 .7-.4.6-.8 0-.5-.5-1-.9-.9zm-4.5-10.3c.7-1.6.6-2.1-1-3v-.1a2.6 2.6 0 0 0 .6.2.5.5 0 0 0 .7-.6c0-.5-.3-.8-.7-.7l-.7.4c-.2-.5-.5-.7-.9-.7-.5.1-1 .7-.7 1.3.3.6 0 .9-.2 1.3-1.2-.6-2-.3-2.2.9a3.5 3.5 0 0 0 0 .3c0 .8.3 1.1 1 1 .7 0 1.3 0 1.5-1.1.3.4.5.6.5.8.2.5.4.7 1 .7.4 0 .9-.1 1.1-.7zm13.2-3.8h-2.1c-.1-1.4-.2-1.4-1.3-1.2-.2.7 0 1 .7 1.3-.3 1.6.5 2.1 2 1.5l.3.2c.3.4.6.4 1 .2.4-.1.5-.4.5-.8 0-.9-.2-1.2-1.1-1.2zm-19.4 17.2c.2-.4.2-.8-.2-1-.1-.2-.4-.3-.5-.2l-1.2.6c-1-.3-1.8-.1-2 .5-.2.5.3 1.6 1 1.8.7.2 1 0 1.6-1.4.5.2 1 .4 1.3-.3zm13.4-13.8c-.8 0-1.3.6-1.2 1.4.1.9 1 1.6 1.9 1.4.7 0 1.3-1 1.2-1.7 0-.8-.9-1.2-1.9-1.1zm3-8.9c0 .7.7 1.5 1.2 1.5.7 0 1.4-.7 1.4-1.4s-.9-1.3-1.7-1.3c-.5 0-1 .6-.9 1.2zm-.8 20.7c-.7-.3-1.7 0-1.8.7-.2.6 0 1 .5 1.4.5.3 1 .2 1.4-.2.3-.3 1-.8.9-1.4s-.7-.3-1-.5zm-10.8-4.2c-.8 0-1.2.4-1.1 1 0 .7.7 1.4 1.3 1.3s1.2-.8 1.2-1.5c0-.5-.8-.9-1.4-.8zm6.2-9.5c.7 0 1.4-.7 1.3-1.3 0-.4-1.2-1-1.7-1-.4.1-.9.7-.8 1.2 0 .7.6 1.2 1.2 1.1zm3.4 8.5c.5-.1 1-.9.8-1.5 0-.5-.6-1-1.3-.9-.6.1-1 .4-.9 1 0 .7.8 1.4 1.4 1.4zm-4.4-1.7c-.7.2-.9 1-.8 1.4 0 .2.9.7 1.5.3.3-.2.5-.6.3-1-.2-.5-.5-.7-1-.6zm-5.1-1c-.5 0-.7.4-.7.8 0 .5.2.8.6 1 .7.1 1.2-.4 1.3-.8s-.5-1-1.2-1zm4 4.7c0-.5-.6-.8-1.2-.7-.1.2-.4.5-.4.9 0 .5.5.8 1 .7.5 0 .7-.5.6-1zm-1.5-4.6c.4 0 .8-.5.7-1-.1-.4-.6-.8-1-.7-.5.1-.8.6-.8 1 .1.4.6.8 1 .7zm-7.8-6.4c.3-.2.7-.5.8-.8.1-1-.6-1.2-1.3-1.4-.5.4-1 .8-.8 1.6.2.5.7.8 1.3.6zm17.7 9.2c-.4 0-.8.4-.7.8 0 .4.4.8.8.8.5 0 .9-.4.8-.8-.1-.4-.4-.7-.9-.8zm5.2-11.8c-.7-.2-1 .3-1.2 1 .4.3.7.8 1.3.5.4-.1.6-.5.4-1 0-.2-.3-.5-.5-.5zm-21.5 13.6h-.7c-.4.5-.2 1 .2 1.3.4 0 1-.1 1-.7 0-.2-.3-.5-.5-.6zm13.3-12c-.6 0-.6.8-.7 1.1 0 .4.4.7.8.6.5 0 .7-.3.6-.7-.1-.3-.2-1-.7-1zm-5 17.7c-.3 0-1 .5-1 .8s.9.5 1.2.5c.3 0 .6-.4.5-.8 0-.4-.3-.6-.7-.5zm12.3-16c-.3 0-.5.4-.7.6 0 .6.4.7.8.7.3 0 .7-.2.6-.6-.1-.3-.5-.6-.7-.6zm-16.2 12.7c-.3 0-.4.8-.4 1 0 .2.4.4.7.4.3 0 .6-.2.4-.6-.1-.2-.4-.9-.7-.8zm14.9-6.6c-.2 0-.6 0-.6.4 0 .3.5.3.6.3l.3-.3c0-.2-.2-.4-.3-.5zm-1.4-3.6c-.2 0-.3.4-.3.6 0 .1.1.5.3.4a.6.6 0 0 0 .4-.4c0-.2-.2-.6-.4-.6zm-1.5 1.8c-.4 0-.5.3-.4.6 0 .3.4.4.5.4.2 0 .5-.2.4-.5s-.2-.5-.5-.5zm-7-13c-.3.1-.6.4-.7.8-.2.5-.2 1 0 1.6s.1 1.1.6 1.5c.6.6 1.8 1.1 3 .4.8-.5 1.2-1 1.2-1.7s-.8-1-1-1.8c-.6-1.7-2-1.5-3-.9zm-3.7 2.9c-.5.4-.7 1.6 0 2.2.7.6 1.4.6 1.9.3s.4-1.4 0-2.1c-.3-.6-1.5-.8-2-.4z"/><path d="M339.3 293.2c-.7 0-1.4.2-1.6.8a1.2 1.2 0 0 0 0 1c.5.7 1.2 1 2.3.6l.2-1.1c0-.6-.5-1.2-1-1.3zm-8.7 16.2c-.4-.5-1-.4-1.6.1-.5.4-.6 1-.3 1.4.3.3 1.6.5 2 .3.4-.5.4-1.3-.1-1.8zm11.5-19.1c-.5-.6-1-.6-1.5 0-.6.4-.7 1-.4 1.4.3.4 1.6.5 1.9.2.4-.4.4-1 0-1.6zm6.8 1c.4.5.9.6 1.2.3.4-.3.6-1.5.3-1.8-.5-.5-1-.5-1.6 0-.5.5-.4 1 .1 1.6zm-19 9.2c.3.4 1 .4 1.3 0 .3-.4.3-1 0-1.4-.2-.2-1.2-.2-1.4.1-.3.2-.2 1 0 1.3zm23.6-5.2v-.6s-.3-.1-.4 0c-.1.1-.3.5-.1.7s.5 0 .5-.1zm-2.5 8.2c.1 0 .3.3.5.1s.1-.4 0-.5c0-.1-.3-.4-.5-.2s-.1.5 0 .6zm-23.2 3.3c1.7-.4 2-.8 2-2.5v-.2c0 .3 0 .5.2.7a.5.5 0 0 0 .8.2c.4-.3.5-.7.2-1l-.7-.4c.3-.3.3-.7 0-1-.4-.4-1-.4-1.4.2-.3.5-.7.4-1.2.4-.2-1.3-1-1.7-2-1.2l-.3.1c-.6.5-.7 1-.2 1.5.4.6.8 1 1.8.6l-.4.9c-.3.3-.3.7 0 1 .2.5.6.8 1.2.7zm-.2-18.2c.2.4.6.6 1 .4.4-.3.8-.3 1.3-.3 1 .1 1.7-.6 1.8-1.7v-.5c.6-.5.5-.8.3-1.2-.2-.4-.6-.3-1-.2l-1.3.3c-.4.2-1 .3-1 .9l-.4.4c-1 .5-1.2.8-.7 1.8zm19.5 17.7a2 2 0 0 0-2-.3 1 1 0 0 0-.5.5c-.3.9 0 1.7.7 2.1l.5.3-.5.9c-.3.6-.2.9.3 1.2a1.3 1.3 0 0 0 1.5 0c.5-.2.6-.8.5-1.2l-.5-1 .3-.6c.3-.6.2-1.5-.3-1.9zM336.2 286.6c-.7.7-.8 1.8-.2 2.4.5.6 1.1.6 1.7.3l.1.2c.5.5 1.5.4 2 0 .6-.5.7-1.7.3-2.2-.5-.6-1.2-.8-1.8-.6-.6-.5-1.5-.5-2 0zm-5 2.6c-.6.5-.7 1.5-.3 2 .5.6 2 .7 2.5.2.2-.2.3-.5.3-.8.3 0 .6 0 .9-.3.4-.3.4-.9 0-1.2-.3-.3-1-.3-1.3 0v.2c-.6-.5-1.6-.6-2-.1zm2.4 3.7c-.5.5-.4 1.6.2 2.3.5.6 1.3.6 1.8 0 .8-.9.7-1.3 0-2.3-.4-.6-1.4-.5-2 0zm7.6 17c-.5.3-.8 1.3-.5 1.7.4.6 1.4.7 2 .3.5-.3.5-1.4 0-2-.3-.4-1-.5-1.5 0zm6.8-17.1c-.3.3-.3 1 0 1.4.4.4 1.7.6 2 .3.3-.4.2-1.3-.3-1.9-.5-.5-1-.4-1.7.2zm-15.6 16.6c.5.5 1.4.7 1.8.3.4-.3.2-1.6-.2-2-.3-.2-1-.3-1.3 0-.6.5-.7 1.3-.3 1.7zm13-18.5c-.7-.6-1.3-.8-1.7-.4-.4.4-.4 1.4 0 1.8.4.3 1.3.2 1.6-.1.3-.4.3-1 0-1.3zm4.2-3c.3.3 1 .5 1.3.2.4-.3.4-1.1 0-1.4-.3-.4-.8-.3-1.2 0-.3.3-.4 1-.1 1.2zm-2.3-.8c0-.2-.4-.4-.7-.5-.2 0-.6.2-.7.4v.7l.8 1c.3.3.6.3.9 0v-.4c-.3-.4-.3-.8-.3-1.2zM342.6 286.5c-.3.3-.2 1.2.1 1.5.3.2 1 0 1.4-.3.2-.3.1-.7-.2-1-.6-.4-1.1-.5-1.3-.2zm-16.3 13.2c.3.2.8.3 1.1.2.8-.4.7-1.1.4-1.8-.6-.2-1.3-.4-1.7.2-.3.4-.3 1 .2 1.4zm6.9-1.4c-.1.4 0 .7 0 .8.3.4.7.4 1.1.4.4 0 .8.1 1.1-.3.4-.4.2-1.2-.4-1.5-.2-.2-.5-.2-.8-.2-.1-.6-.5-1-1-.8-.4 0-.7.5-.7.8 0 .4.3.7.7.8zm9.5 3.9c-.5.1-1 .3-1 .9 0 .4.3.8.8.8.2 0 .7-.2.8-.4.2-.5-.1-1-.6-1.3zm13-5.7c.5 0 1-1 .6-1.5s-1.1-.6-1.4-.3.3 1.7.8 1.8zm-3-7.8c.3.4.9.4 1.2.2.3-.4.2-.7 0-1a.6.6 0 0 0-1-.1c-.3.2-.4.6-.1 1zm-12 10.6.1.9c.2.3.6.3.9 0 .2-.2.5-.5.2-.9-.2-.3-.8-.4-1.3 0zm7 5.6c.4 0 .5-.3.5-1.2-.5-.5-1.2 0-1.2.5 0 .3.3.7.7.7zm2.8 4.2c.5 0 1-.6.6-1.2-.5-.5-1.2 0-1.3.4 0 .4.4.8.7.8zm-9.4-12c.2-.2.2-.3.1-.5s-.3-.3-.5-.2c-.2.2-.2.3-.1.5.1.3.3.3.5.2zm-2 7c-.4-.3-.8-.3-1.1-.2-.6 0-1 .4-1.2 1-.4.5-1 .7-1 1.3-.1.8.1 2.1 1.4 2.7.8.3 1.5.3 2 0 .7-.4.4-1.3.9-1.9 1-1.4.1-2.4-1-3zm-4.6-1.5c-.6-.2-1.7.4-1.8 1.3 0 .9.4 1.4 1 1.7.5.3 1.3-.4 1.7-1.2.2-.5-.3-1.6-.9-1.8zm3.2-5.8c-.6.2-1.4 1-.8 2 .6 1 1.5 1.2 2.2.9s1-1.7.5-2.4c-.5-.8-1.4-.7-2-.5zm8.2-2.2c-.2-.3-.4-.3-.6-.3s-.5-.2-.9 0-.9.6-1 1.2.2 1 .5 1.3c.4.3.9.2 1.2.1s.8-.5.8-1 .3-1 0-1.3zm-4-1.7c-.2 0-.4 0-.5.2s0 .5.2.6.5 0 .5-.2c.1-.2 0-.5-.2-.6zm3 7.8c0 .5.2 1.3.9 1.2s.7-.5.7-.8.2-.5.3-.3.4.2.9 0 .7-.7.5-1.3c-.3-.6-1-.9-1.7-.6-.7.3-.7.7-1.1.9-.4.1-.5.4-.5 1zm5.8-2.5c.2.5.4 1.2 1 1.5l.8-.2c.7.4 1.4.5 1.8.2a.8.8 0 0 0 0-1c-.3-.6-.6-.7-1.4-.4l-1.5-.8c-.4-.2-1 .2-.7.7zm27.9-12.1c.2.4.3 1 .8 1.2l.7-.2c.4.4 1 .5 1.3.2.2-.2.2-.5 0-.8-.2-.5-.5-.6-1-.4l-1.2-.6c-.4-.2-.8.2-.6.6zm-55.9 8.7c0 .9 1.7 2 2.5 2s1-1.1 1.2-1.2 1.2 1 2.2.9 1.8-1.6 1.7-2.3-.1-1.3-.6-1.7c-.5-.5-1.5-.8-2.2-.4s-1 1.5-1.4 1.5c-.3 0-1-1-2-.8s-1.5 1.1-1.4 2z"/><path d="M333.9 302.2c.5.1 1-.1 1.2-.6s-.2-1-.6-1.2c-.4-.1-1 .2-1.1.7-.2.5 0 1 .5 1zm4.4 6.6c.2-.4 0-1-.5-1-.5-.3-1 0-1.2.3-.1.5 0 1 .5 1.2.4.2 1 0 1.2-.5zm16.7-17.1c.2.1.6.3.7.2.5-.3.4-1 .2-1.2s-.9-.2-1.1.3c0 .2 0 .6.2.7zm-9.2 2c.7.2 1.5-.1 1.7-.6.2-.5-.3-1.5-.9-1.7-.8-.3-1.4 0-1.6.7-.2.7.1 1.3.8 1.5zm5.1-3.3c.2-.2-.2-.7-.4-.8-.3-.3-1 0-1 .4 0 .2.3.5.5.6s.8 0 1-.2zM334.5 306h.7c.8.5 1.4.3 1.8-.5l.2.1c.4.1.9-.2 1-.7.2-.6 0-1.2-.5-1.3-.4-.2-.9.1-1 .6a1.6 1.6 0 0 0-.8-.3c-.4-.1-.8-.1-1.1-.5-.5-.5-1.1-.4-1.7-.4-.5.1-1 .7-1.1 1.3v.2c-.2-.4-.5-.7-.8-.8-.5-.1-1 .2-1.3 1-.2.5 0 1.3.4 1.4.6.3 1.6-.1 1.8-.6v-.3l.6.5c.6.4 1.2.4 1.9.3zm-2.3 4.2c0-.6-.2-1.2-.4-1.7-.2-.6-1.2-1-1.8-.8-.4.1-.7.3-.6.7 0 1 .2 2 .9 2.7 0 .2.3.2.4.3.9.4 1.7-.2 1.6-1.2zM349 293c-.6.9-.2 1.7.8 1.9l1.8-.1c.6 0 1.2-1 1.1-1.6 0-.4-.3-1.2-1.1-1-1 1-1.4 0-2.3.5l-.3.3zm-4.6 17c-.7-.2-1.7.3-2 1.2-.2.7.3 1.8 1 2 .9.3 1.9 0 2-.8.3-.7-.3-2-1-2.3zm-8.7-23.9c-.8-.3-1.8 0-2 1-.4.7 0 1.3.8 1.7 1 .4 2 .2 2.2-.6.4-.8 0-1.7-1-2v-.1zm3.8-.6c-.2.7.4 2.1 1 2.3.8.3 1.7-.2 2-1 .3-.7-.2-1.8-.9-2-.8-.3-1.9 0-2 .7h-.1zm13.7 12.5c.7.2 1.4 0 1.6-.6.2-.7-.3-1.6-1-1.9-.4-.2-1.2.3-1.3 1-.3.7 0 1.2.8 1.4zm-27 10.7c.8.2 1.3 0 1.6-.8.2-.7 0-1.2-.5-1.4-.7-.2-1.7.3-2 1 0 .4.4 1 1 1.2zm17.5-7.5c.2-.6-.3-1.6-1-1.9-.5-.2-1 .1-1.3.7-.3.8 0 1.3.8 1.6.6.2 1.4 0 1.5-.5zm1-14.7c.5.1 1.5-.3 1.7-1 .1-.3-.3-1.2-.8-1.4-.4-.2-1.1.1-1.3.5-.3.8-.1 1.7.4 1.9zm2 3.3c.6.2 1.1 0 1.3-.4.2-.5-.2-1.6-.6-1.8-.7-.2-1.2 0-1.5.8-.2.6.1 1.1.9 1.4zm-5.2 17.8c.5.2 1.1-.1 1.4-.8.2-.6 0-1-.4-1.2-.5-.2-1.5.1-1.7.5-.3.6 0 1.2.7 1.5zm-8.3-6.2c.3-.8.1-1.5-.4-1.7-.5-.2-1.4.2-1.6.6-.1.5.4 1.3 1 1.5a.7.7 0 0 0 1-.4zM343.5 292.1c.4.2 1.3-.2 1.5-.7.1-.4 0-.8-.5-1-.5-.2-1.2 0-1.5.5-.2.4 0 1 .5 1.2zm11.1-4c.5.2 1 0 1.2-.5.2-.5 0-1-.6-1.2-.4-.1-1 .1-1 .6-.3.5 0 1 .4 1.2zm-19 21.6.3-.8c-.2-.7-1-1-1.5-.6s-.5 1 0 1.4c.3.2.8.1 1.1 0zm14.7-24.4c-.2.4 0 .9.4 1.1.4.2.8.1 1-.4.2-.4 0-.9-.4-1.1a.8.8 0 0 0-1 .4zM327 310.9c.6.2 1 0 1.1-.3.1-.4 0-.8-.5-1-.4-.1-.8 0-.8.5l.2.8zm21.7-8 1.5.3c.5.3.9.2 1.1-.3.3-.4 0-.9-.4-1.2l-.7-.6c-.3-.6-.7-.8-1.2-.8s-1 1-1 1.5 0 1 .7 1.1zm-2.1.6c.2-.5 0-1-.5-1.1-.5-.2-1 0-1.2.5-.1.4.1.8.6 1 .4.2.9 0 1-.4zm-3 3c.5.2.9 0 1-.4 0-.3-.2-.6-.3-.8-.5-.1-1 .2-1 .6-.2.4 0 .6.4.7zm3.6 1.4c-.6-.1-1 .2-1.1.6-.1.4.1.5.4.6.4.2.9 0 .9-.4l-.2-.8zm-17.8-8v-.7h.7c.5-.1.7-.5.7-1 0-.6-.6-.6-1.2-.9l-.6 1a1.3 1.3 0 0 0-.5-.5c-.7-.2-1.8.3-2.1 1-.3.7 0 1.5.8 1.7 1 .4 2 0 2.2-.7zm2.4-6.2c-.4-.2-.9 0-1 .4-.2.3.2 1 .6 1.1a.8.8 0 0 0 1-.5c.2-.4 0-.9-.6-1zm18.5 4c-.3-.2-1-.1-1 .3 0 .3 0 1 .3 1.1.4.1.8-.4 1-.6 0-.3.1-.6-.3-.9zm-21.1-1.6c.4 0 .7-.8.4-1.2s-1 0-1.2.6c-.1.3.4.6.8.6zm26 3.3-.4.1c0 .1 0 .5.2.6.1 0 .6 0 .7-.2s-.3-.4-.4-.5zm1.3-5h-.3s0 .3.2.4l.3-.2-.2-.3zm-11 4.2c.4-.1.8-.8.8-1.3-.1-.7-.8-1-1-1 .2-.7-.2-1.5-.8-1.8-.7-.2-1.3 0-1.8.3 0-.3-.1-.6-.5-.9-.8-.7-1.8-.7-2.3-.1-.3.3-.4 1-.2 1.7-.4-.1-.8 0-1 .4 0 .4.2 1 .6 1.1s1 0 1.2-.4v-.2c.7.3 1.3 0 1.7-.3 0 .5.4.9 1.1 1.2a2.3 2.3 0 0 0 .7.1.7.7 0 0 0 0 .6c0 .6.9.9 1.4.6zm-5.4 2.6c-.2-.6-.5-1-1-.8l-.7-1.4c-.3-.4-1-.6-1.6-.6.3-.2.5-.5.6-1 .3-1.1 0-1.6-.9-2-.9-.2-1.7.2-2 1.3l-.1.2c-.2-.5-.5-1-.9-1-.4-.3-1 .1-1.3.7-.3.7 0 1.3.8 1.6.5.2 1.3 0 1.4-.4v-.2c.2.5.6.8 1.1 1a1.8 1.8 0 0 0 .6 0c-.5.6-.7 1.6-.4 2.2.2.5 1 .9 1.9.7.5-.2.9-.4 1.4 0 .4.4.8 0 1-.3zm-13.2 3.5c.9.3 2 0 2.3-.7.2-.7-.3-2-1-2.2-.7-.2-1.8.3-2 1-.3.8 0 1.7.7 1.9zm18.4-16.7a1 1 0 0 0-.6-1c-.4-.2-1 .1-1 .5-.1.5.1.9.6 1a.7.7 0 0 0 1-.5zm5.5 18.2c-.3-.4-.1-.3.2-.8s.3-1.2-.6-1.4-1.6.6-1.9 1.3.7 2.2 1.7 2.2c.7 0 .8-.8.6-1.3z"/><path d="M335.1 290.9c-.6.4-.7 1.7-.4 2.2s.5.8 1 1c.5.1 1.3 0 1.7-.5s.2-1.5.4-1.6 1.1.4 1.8 0a1.2 1.2 0 0 0 .4-1.2 1.3 1.3 0 0 0 .2.4c.2.5.6.6 1.1.4.6-.3.8-.9.6-1.4-.2-.5-1-.8-1.4-.6-.4.2-.5.6-.5 1a2 2 0 0 0-.2-.5c-.4-.6-1.8-1-2.4-.6s-.3 1.1-.5 1.2-1-.3-1.8.2zm-7.9-4.8c-.5-.8-2.4-1-3.1-.6-.7.5-.4 1.5-.6 1.6s-1.4-.3-2.3.3-.8 2.2-.4 2.8c.4.7.7 1 1.3 1.3.7.2 1.8 0 2.2-.7s.2-1.9.5-2c.2-.2 1.4.4 2.2-.3s.7-1.6.2-2.4zm4.8 4.7c-.1-.1 1.2-1 .3-2s-1.8-1.2-2.6-.3a3 3 0 0 1-1.2.6.9.9 0 0 0-1 .4c-.8.3-1.4.8-1.3 1.8.1 1.4 1.2 1.8 1.8 1.6.6-.2 1-.8 1.4-.8s-.4.4.8.9c1.3.5 2.9-1 1.8-2.1zm10.8-1.1c.7-.3 1-.9.7-1.5-.2-.6-.8-1-1.3-.9-.6.3-1 1.3-.8 2 .2.4.9.6 1.4.4zm-2.1 9.3c0 .2.2.6.4.7.5.2 1-.4 1-.7s-.5-.7-1-.6c-.2 0-.4.4-.4.6zm6.5-11.7c.1.4 1 .7 1.2.5s.2-.6 0-1c0-.2-.3-.5-.7-.3-.3.2-.6.4-.5.8z"/><path d="M333.3 293.2c.3.7 1 1.1 1.5 1s1-1.3.8-1.8c-.3-.8-1-1-1.6-.8-.7.3-1 1-.7 1.6zm5.8 1.9c.2 0 .3-.7.3-1 0-.3-.6-.6-.8-.4a.9.9 0 0 0-.3.8c0 .2.5.6.8.6zm-3.3 0c-1 .1-1.4 1-.9 1.8l1.2 1.3c.5.4 1.5.3 2-.1.3-.3.7-1 0-1.5-1.3-.1-.9-1-1.8-1.4h-.5zm-.3-12c-.7.2-1.3 1.6-1.1 2.2.2.7 1.2 1.1 2 .8.7-.2 1.3-1.3 1-2-.3-.8-1.3-1.4-2-1zm-.7 18.4c.3.7.9 1 1.4.8.7-.3 1-1.2.8-1.9-.1-.5-1-.7-1.5-.5-.7.3-1 1-.7 1.6zm3.3-13.9c.2.5 1.2 1 1.7.7.5-.2.8-1 .7-1.5-.2-.5-.8-.8-1.2-.7-.9.3-1.4 1-1.2 1.5zm-1.2 3.7c.2.6.6.9 1.1.7.5-.1 1.1-1.2 1-1.6-.3-.6-.9-.9-1.6-.6-.6.2-.8.8-.5 1.5zM333 290.4c.1.5 1 .9 1.5.7.4-.1.6-.5.4-1-.1-.6-.7-1-1.3-.8-.5.1-.8.7-.6 1.1zm10.2 6c.2.5.7.7 1.2.5.5-.1.7-.6.5-1.1-.2-.4-.7-.7-1.1-.5-.6.2-.8.7-.6 1.1zm1.2-10c.1.5.8.7 1.2.6.4-.2.6-.6.5-1-.2-.6-.7-.9-1.2-.7-.4.2-.7.8-.5 1.1zm1.9 5.9c.4-.2.6-.8.5-1.1s-.8-.7-1.2-.5c-.4.1-.6.5-.5 1 .2.5.7.7 1.2.6zm-3.7-1a.9.9 0 0 0-.6 1c.1.5.4.7 1 .5.4-.1.7-.6.6-1-.2-.4-.6-.7-1-.6zm-14.4 10.2.7 1.3c0 .5.4.8.9.7.5-.1.7-.6.7-1.1v-1c.2-.5.2-1-.2-1.4-.3-.3-1.5-.2-1.8.2-.3.3-.7.7-.3 1.3zm5-2.2c0-.4-.6-.8-.9-.6-.2.2-.8.6-.6 1s.7.4 1 .3c.3 0 .6-.2.5-.7zm16.5-11c0 .3.7 1 1.1.8.4-.1.4-1.2.3-1.5-.1-.3-.6-.6-1-.5s-.5.8-.4 1.2z"/><use href="#M"/><path d="m346.9 294.1-.4-.2a.6.6 0 0 0-.4.5c0 .1.4.5.6.4s.2-.5.1-.7zm-7.2 7.8s-.1-.2-.2-.1c-.1 0-.2.1-.2.3l.3.1c.1 0 .2-.2.1-.3zm-10.4-5.7c.4.2 1.2.2 1.6-.2.4-.5.2-1.2 0-1.4.8-.3 1.2-1.1 1-1.8-.3-.7-.8-1-1.4-1.1.2-.3.4-.6.4-1 0-1.1-.7-1.8-1.4-1.8-.5 0-1 .3-1.4.9-.2-.4-.6-.6-1-.4-.4.1-.6.6-.5 1 .2.5.7.8 1 .7l.2-.1c.2.7.8 1 1.3 1h.1c-.3.4-.4 1-.2 1.7 0 .3.2.5.4.6-.2 0-.4.1-.6.4-.3.4 0 1.2.5 1.5zm8-7c.4-.1.7-.6.5-1-.1-.4-.7-.7-1.1-.5-.4.2-.6.7-.4 1.2a.7.7 0 0 0 1 .4zm-10.4 16c.2-.5.2-.3.7-.4s1.2-.5.8-1.3-1.5-1-2.2-.6-1.2 1.9-.7 2.7c.5.5 1.3 0 1.4-.4zm1.7-22c-.8-.2-1.8.6-2 1.1s-.3 1-.1 1.4c.2.5.8 1 1.4 1s1.3-.7 1.5-.7c.2.1.4 1.2 1.2 1.3.5.1.9 0 1.2-.3a1.6 1.6 0 0 0-.2.3c-.3.5-.1.9.4 1.1a1 1 0 0 0 1.4-.4c.3-.5 0-1.2-.4-1.4-.4-.2-.8 0-1.1.3l.3-.6c.2-.6-.5-2-1.1-2.2-.6-.2-1.1.5-1.3.4s-.4-1-1.2-1.2z"/><path d="M324.8 287.8c-1.1-.1-2.2 1-2.1 2.4 0 .5-.2.6-.5.8-.4.4-.4 1 0 1.5.4.3.7.2 1 0 .3-.3.5-.6.8-.7l2.2-.3c.9 1.5 1.4 1.6 2.5.5.6-.6.5-1.6-.3-2l-2-.5c-.3-.7-.6-1.6-1.6-1.7zm9 10.7c-.4.1-1 .2-.9.7 0 .7-.3 1.2-.7 1.6-.3.4-.2.8.1 1.1.5.3 1.2.3 1.3-.1.2-.7.7-1 1.2-1.1.5-.3.8-1 .7-1.4-.2-.4-1.2-1-1.7-.8zm7.6 12.4c.6-.5.8-1.1.4-1.7-.4-.5-1.1-.7-1.5-.4-.6.4-.7 1.4-.3 2 .2.4 1 .4 1.4.1zm-3.2-11.5c-.5-.8-1-1-1.6-.5-.4.2-.5 1.2-.2 1.6.3.3 1.3.4 1.7 0 .4-.2.4-.7.1-1.1zm-1.5 4a.8.8 0 0 0 .1 1c.3.4.9.5 1.2.3.6-.5.4-1 .3-1.6-1-.2-1.4-.2-1.6.3zm9-8c.2.3.7.4 1.2.2.4-.3.5-.7.2-1a.8.8 0 0 0-1.1-.4c-.4.3-.5.8-.3 1.1zm-3.4 6.7c-.2 0-.5.4-.5.6 0 .3.2.8.5 1 .5.3.8-.3 1.2-.6-.3-.6-.5-1.1-1.2-1zm1.9-9.8c.2.3.7.2 1.1 0 .3-.3.4-.5.1-.8-.2-.3-.5-.5-1-.3-.2.2-.4.8-.2 1zm.9 15.2c.2.4 1 .4 1.2.2s0-.6 0-1c-.2-.2-.6-.4-1-.1-.2.2-.5.5-.2 1zm-6-13.4c0-.3-.3-.5-.6-.4-.3 0-.7.4-.8.6-.2.4.1.6.2.6.3 0 .5-.1.7-.3.2-.1.4-.2.5-.5zm-6.4 1c0 1 .4 1.5 1 1.8.5.2 1.3-.5 1.7-1.2.2-.6-.3-1.7-.9-1.9s-1.7.5-1.8 1.4zm5.4-4.1a1.4 1.4 0 0 0 2 .4c.7-.4 1-1.6.5-2.3-.4-.6-1.6-.8-2.2-.4-.8.4-.9 1.4-.3 2.3zm-8.9 13.5c-.4-.7-1.4-1-2.2-.4-.7.4-.8 1.1-.3 2 .6.9 1.5 1.2 2.2.7.7-.5.9-1.4.3-2.3zm3.5 1.8c-.6.4-1 1.9-.5 2.4.4.7 1.4.8 2.1.4.7-.5 1-1.6.5-2.2-.4-.7-1.5-1-2.1-.6zm.9-19.9c-.5 0-.8.3-.9.8l.1.5 1.2.7c.1 1 .6 1.7 1.3 1.6.6 0 1.2-1 1.1-1.7 0-.7-.4-.9-1.9-.8-.1-.5-.1-1.1-.9-1zm-2.2 18c.8-.5 1-1.4.3-2.2-.4-.6-1.3-.8-2-.4-.8.5-.9 1.3-.3 2.1.6.9 1.3 1 2 .5zm5.7-7.3 1.5 1c.4.1.9 0 1-.4.3-.4.2-.8-.2-1.1a2.5 2.5 0 0 1-.6-.6c-.4-.5-.9-.7-1.5-.5-.6.3-.8.8-.2 1.5zm-.7 13c.3.4 1.3.5 1.8.2.4-.3.5-1.2.2-1.7-.2-.3-1-.5-1.3-.3-.7.5-1 1.3-.8 1.7zm-4.2-17.2c-.3-.5-1.2-.7-1.8-.4-.4.3-.6 1.1-.3 1.6.2.4.9.7 1.2.5.8-.5 1.2-1.2.9-1.7zm8 6.4c-.3.2-.4 1-.1 1.3.4.5 1.1.7 1.5.4.5-.4.7-1.4.4-1.8-.2-.3-1.2-.3-1.8 0zM336 304c-.5-.6-1-.8-1.3-.6-.4.2-.6 1.2-.3 1.6.2.4 1 .5 1.5.1.4-.2.4-.7 0-1zm3.5 1.8c.3-.2.7-.5.4-.9-.4-.6-1-.7-1.3-.5-.5.3-.6 1-.3 1.4.4.3.9.4 1.2 0zm2.6 1.6c.3.4 1 .4 1.3.2.4-.3.5-.8.2-1.1-.3-.5-.8-.6-1.2-.3-.4.2-.5.8-.3 1.2zm-17-9c-.4 0-.7.3-.6.7 0 .3.2.8.5.9h.7c.2.5.8 1 1.4 1.3.4.2.8.2 1.2.1.5-.1.9-.5 1.2-1 .3-.5.9-.7 1-1.3 0-.8-.2-2.2-1.6-2.7-.8-.4-1.4-.3-2 0-.6.4-.3 1.3-.8 1.9l-.2.3c-.2-.2-.4-.3-.8-.2zm20.5 3.3c.2.4.8.4 1.2.1.4-.3.4-.7.1-1.2-.3-.4-.7-.6-1-.4-.4.3-.5 1.2-.3 1.5zm-5-7c.2.3.5.4 1 .2.3-.1.4-1 0-1.2s-.5-.2-.8 0c-.4 0-.5.6-.3 1zm-12.1-6.7c0 .2.2.5.4.6.6.1.8-.2 1-.8-.3-.3-.5-.7-1-.5-.3 0-.4.5-.4.7zm8.4 4c-.2-.2-.5-.3-.7-.2-.2 0-.5.4-.5.6 0 .6.5.7 1 .7.3-.3.5-.7.2-1.2zm4.1 5.7c.2.4.7.5 1 .1.1-.2.3-.4.2-.7s-.9-.5-1.2-.2c-.3.3-.2.6 0 .8zm4.9-9c.2.2.5.4.7.3.2 0 .3-.5.2-.7 0-.2-.6-.6-.8-.5s-.2.8-.1.9zm1.8 19.2c.1.2 1 .7 1.3.4s.1-1.2-.1-1.5c-.2-.2-.8-.4-1.1-.2-.4.2-.2 1 0 1.3h-.1zm.1-9.7c0 .2.5.4.6.3v-.7s-.4-.1-.4 0l-.2.4zm-4.3.6c.1.2.5.2.6 0 .1 0 .4-.3.3-.5a.6.6 0 0 0-.6-.1c-.2 0-.5.5-.3.6zm3.1 5.5c.2.2.6.2.7 0 .1 0 .2-.3.1-.5 0 0-.3-.2-.5-.1-.1 0-.4.4-.2.6zm2.4-3c0 .2.2.1.3 0v-.3h-.3v.3zm-6.8-13.3s.3.4.6.2c.3-.1 0-.5 0-.6l-.4-.2c-.1.2-.3.4-.2.6zM326 308.2c-.7 0-1.5 1-1.6 1.5s0 1 .2 1.4c.4.4 1.1.8 1.7.6s1-1 1.2-1c.3 0 .7 1 1.5 1a1.2 1.2 0 0 0 1-.7v.4c-.2.5 0 .9.7 1a1 1 0 0 0 1.2-.8 1 1 0 0 0-.8-1.3c-.4 0-.8.2-1 .6l.2-.6c0-.7-1-1.8-1.6-1.9-.7 0-1 .7-1.1.7s-.8-.8-1.6-.9z"/></g><path d="M304 310a24 24 0 0 1 24-24v24h-24z" class="C"/><path fill="#f04e98" d="M340 195a12 12 0 1 0 0-24 12 12 0 0 0 0 24z"/><mask id="D" width="24" height="24" x="328" y="171" mask-type="alpha" maskUnits="userSpaceOnUse"><path fill="#00bfb3" d="M340 195a12 12 0 1 0 0-24 12 12 0 0 0 0 24z"/></mask><g class="D" mask="url(#D)"><path d="M343.8 178a1.2 1.2 0 0 0-1.4-.8c-.5.1-.8.8-.7 1.4.1.5.8.7 1.5.5a1 1 0 0 0 .6-1.1zm0-4.4c-.3-.5-.9-.8-1.3-.6-.6.2-.9.8-.7 1.3.2.6.7.8 1.3.6.6-.3.8-.8.6-1.3zm-8 .7c.2-.4.2-.9 0-1.1a.8.8 0 0 0-.6-.2c-.6.1-1 .5-1 1.2l.6.3c.4.2.9 0 1-.2zm7 6.8c-.4.2-.6.9-.5 1.3.1.3.6.5 1 .3.5-.2.7-.6.5-1-.2-.5-.6-.7-1-.6zm3.3-.4c-.4.1-.6.5-.5.8.2.5.7.8 1 .7.4-.2.7-.7.6-1.1-.1-.3-.7-.5-1-.4zm-9.2-4c.5-.2.6-.4.4-1-.1-.4-.5-.6-.8-.5-.3.1-.6.8-.5 1 .1.5.5.6 1 .5zm-2.2 3.8c-.4.1-.5.4-.5.6.1.4.8.7 1 .6.5-.1.6-.4.4-1-.1-.3-.5-.4-1-.2zm4.1.5c-.3 0-.4.6-.2 1 0 .3.3.4.5.3.4-.1.7-.5.6-.8-.1-.3-.6-.6-.9-.5zm12.5-1.8c.2.5.4.7.7.6.4 0 .4-.4.3-.7-.3-.2-.6-.2-1 0zm-8.4 5.7-.2.3c0 .1.2.3.4.3s.1-.3 0-.4l-.2-.2zm9.1-10s.2.2.3.1l.2-.3c0-.1-.2-.3-.4-.3s-.1.3-.1.4zm-1.5 6.4v.5h.3l.1-.3-.4-.2zm-19.2 1 .3.2.1-.3s-.2-.3-.4-.2 0 .3 0 .4zm8.1-3c-.2 0-.4.2-.3.4 0 .5.3.8.5.7.2 0 .6-.5.6-.7 0-.3-.5-.5-.8-.5zm2-10.9c-.4 0-.6.2-.5.5 0 .3 0 .6-.2.8-.3.6 0 1.2.6 1.5l.3.2c.2.4.4.5.6.4.3 0 .4-.3.4-.5l.1-.9c0-.3 0-.6-.3-.8v-.3c-.2-.8-.3-1-1-.9zm9.8 5.3a4.1 4.1 0 0 0-1-.7c-.3-.1-1 0-1.2.4v.6c.5.5 1 .9 1.6 1h.3c.6-.3.7-.9.3-1.3zm-10.7.3c-.3-.6-.9-.9-1.4-.6-.4.1-.6.4-.6.9a.4.4 0 0 0-.1 0c-.4.2-.6.8-.5 1.3.2.4.9.7 1.3.6.4-.2.7-.6.7-1 .5-.2.7-.7.6-1.2zm-.4-3.6c-.2-.5-.7-.8-1.1-.6-.5.1-.9 1-.7 1.4 0 .2.2.3.4.4v.6c0 .3.4.4.7.3s.4-.5.2-.8c.4-.3.7-.8.5-1.3zm-2.8.6c-.1-.5-.8-.7-1.4-.4a.8.8 0 0 0-.4 1c.3.8.6.8 1.3.6.5-.2.7-.8.5-1.2zm4.3 10.2c.4-.2.7-.8.5-1.4a.7.7 0 0 0-1-.5c-.6.2-.8.7-.6 1.2.2.5.7.8 1.1.7zm6-5.7c.5-.2.6-.6.4-1-.2-.5-.5-.7-.8-.5-.4.2-.7.9-.6 1.2.2.3.7.4 1 .3zm-13.6 4.1c-.1-.2-.5-.4-.8-.3-.3.1-.7.8-.6 1 .1.4.7.6 1.1.4.5-.2.6-.6.3-1zm1.8-1.1c.5-.3.7-.6.6-1-.1-.2-.8-.5-1-.3-.3.1-.5.7-.4 1 .2.2.5.4.8.3zm.8 3.2c-.3.1-.6.6-.5.8.1.2.6.4.9.3s.4-.4.3-.7c-.2-.3-.5-.5-.7-.4zm1-1.2s.4-.1.4-.3v-.5s-.3-.2-.4-.1l-.9.2c-.2 0-.2.3-.1.5l.2.1.8.1zm1.5-2.7c-.2-.2-.7-.3-1-.2-.1.1-.2.6-.1.9.1.2.4.2.6 0 .4-.2.6-.5.5-.7zm-9.4-3.6c0-.3 0-.6-.3-.8-.3 0-.6 0-.7.3v.6c.3.3.6.2 1 0zm10.4 4c.2.3.5.5.8.3.3-.3.2-.6 0-.8-.5 0-.7 0-.8.5zm-10 5.1c-.2.3.3.8.7.8s.6-.6.4-.8c-.1-.3-1-.2-1.2 0zm18.9-7c.4-.2.5-.4.4-.7 0-.2-.4-.4-.6-.3-.3.1-.4.4-.3.6l.5.3zm.5.5c-.2 0-.3.3-.3.5s.4.4.6.3l.3-.4c-.2-.4-.4-.6-.6-.4zm-14.2 6.6c-.2 0-.4.4-.3.6.1.3.3.4.6.3.2-.1.3-.3.2-.5 0-.3-.2-.5-.5-.4zm-3.4-9.7-.6-.1c-.2 0-.3.3-.2.5 0 .2.2.4.4.3.3 0 .5-.3.4-.7zM348 184c.1.4.6.4.8.5l.1-.1v-.9h-.3c-.1.1-.6.2-.6.5zm-9.5 1 .3.6.3.1c.1-.2.5-.5.3-.8s-.7-.3-.9 0zm7-15.2a1 1 0 0 0-.2-.3c.2 0 .3-.1.4-.3.2-.3.1-.5 0-.7-.3-.3-.7-.1-1 0v.7h-.4c-.5.2-.8.9-.6 1.3.1.5.6.7 1 .6.7-.3 1-.8.9-1.3zm-1.4 5.1c.1.4.6.7.9.6.4-.1.7-.7.6-1.1-.1-.3-.6-.4-1-.3-.4.1-.6.5-.5.8zm5.9 4.6c0-.1-.1-.5-.4-.4s-.2.4-.2.5l.4.3.2-.4zm-7.7 4.4s-.2-.3-.3-.2v.4l.2.1.1-.3zm6-1.3-.3-.1v.1l.1.1.1-.1zm-15.2-8.1c0 .1.1.2.3.2.1 0 .2-.1.1-.3 0-.1 0-.2-.2-.2s-.3.1-.2.3zm1-2c0-.4-.4-1-1-1s-1.2.7-1 1.2.7 1 1.2.8c.6-.1.8-.6.8-1zm13.7 4c-.8-.1-.8.7-1.3.4s0-.5-.6-.9-1.4.1-1.3.6.5.7.4.8-.2.6.2.8c.8.4.9-.4 1.2-.4s.7.5 1 .5c.6.2 1.2 0 1.2-.6.1-.7-.3-1.1-.8-1.2zm-14.4 1.5a.5.5 0 0 0 .4-.4c0-.1.2-.2.2-.5s-.2-.7-.5-.8a.9.9 0 0 0-1 0c-.2.1-.3.4-.2.6s0 .6.3.7.6.4.8.3zm2-2v-.4a.4.4 0 0 0-.4 0c-.1 0 0 .3 0 .4h.4zM330 176c-.3-.2-.8-.3-.9.1s.2.6.3.6.3.3.1.3-.2.2-.2.6.3.5.7.6c.4 0 .8-.5.7-1s-.2-.5-.2-.8c0-.3-.2-.4-.5-.5zm.2 4c-.4 0-.8-.1-1.2.2v.6c-.4.2-.7.7-.6 1 .1.1.3.3.6.2.4 0 .6-.2.6-.8l.8-.6c.3-.3 0-.7-.2-.7zm16.2-6.8c.6-.2 1-.8.8-1.2-.2-.5-1-.9-1.4-.7-.4.2-.7.9-.5 1.3.2.5.7.8 1 .6zm-4.8 3.8c.3-.1.4-.4.3-.7-.1-.3-.3-.4-.6-.3-.3 0-.5.4-.4.7 0 .2.4.4.7.3z"/></g><path d="M352 238h24a24 24 0 0 1-24 24v-24z" class="B"/><mask id="E" width="24" height="96" x="208" y="112" mask-type="alpha" maskUnits="userSpaceOnUse"><path fill="#d9d9d9" d="M232 196v-72a12 12 0 0 0-24 0v72a12 12 0 0 0 24 0z"/></mask><g class="B" mask="url(#E)"><path d="M217 121c-.6 1 0 2.4 1.4 2.8.4.2.5.4.6.8.2.5.9.7 1.3.5.5-.2.5-.6.4-1-.1-.3-.3-.6-.3-1 0-.6.3-1.3.4-2 1.7-.4 2-1 1.4-2.3-.4-.8-1.3-1-2-.4-.4.4-.7 1-1.1 1.7-.8 0-1.7 0-2.2.9zm15.5 28.9c-.1-.9-1.1-1.6-2-1.5-.7.2-1.4 1.2-1.3 2 .2.9 1 1.3 2.2 1.1.8-.1 1.2-.8 1.1-1.6zm.7-6.7c-.2-.9-1.1-1.5-1.8-1.3-1 .3-1.5 1.2-1.3 2 .2.9 1 1.3 1.9 1 1-.2 1.5-.9 1.2-1.7zm-3.1-26.9c0 .4-.1 1 .4 1.1.6.2 1 .7 1.2 1.2.2.5.6.5 1 .3.5-.3.7-1 .4-1.3-.6-.4-.7-1-.6-1.5-.2-.6-.7-1-1.1-1-.5 0-1.3.7-1.3 1.2zM214 112c.1.9.9 1.5 1.6 1.4.8-.1 1.6-1.3 1.5-2-.2-.8-1.1-1.3-1.9-1.1-.8.1-1.4 1-1.2 1.7zm6.8 31c.5-.6.5-1.3 0-1.8a1.2 1.2 0 0 0-.8-.4c-.8 0-1.4.6-1.5 1.7l.8.7c.5.3 1.2.1 1.5-.2zm9.8 11.8c-.7.2-1.3 1.1-1 1.8 0 .5.8.9 1.3.7.8-.2 1.2-.8 1-1.6-.2-.7-.8-1.1-1.3-1zm-20-27c.6-.2.8-.7.6-1.5-.1-.7-.6-1-1-1-.5.2-1.3 1.2-1.2 1.6.1.7.8 1 1.6.8zm11.5 19c.8-.1 1-.5.8-1.3-.2-.8-.6-1.1-1.1-1-.5.1-1.2 1.1-1 1.6 0 .6.6.8 1.3.7zm-4.1 5.5c-.5.2-.8.6-.8 1 .1.5 1.1 1.2 1.5 1 .7 0 1-.6.7-1.3-.2-.7-.7-.9-1.4-.7zm6.4 1.5c-.6.1-.8.9-.7 1.6.2.5.5.6.9.5.6-.1 1.1-.7 1-1.2-.1-.5-.8-1-1.2-1zm-5.6-22.5c-.5 0-.8.6-.6 1.1.1.5.7.8 1.2.7.3-.1.7-1 .6-1.4-.1-.3-.8-.5-1.2-.4zm-10.4-14.5c.4 0 .7-.6.7-1-.1-.3-.7-.7-1-.7s-.7.6-.6 1c0 .4.6.8 1 .7zm14.8 11c.3-.2.6-.5.5-.9-.1-.4-.6-.6-1-.5-.3.1-.5.5-.4.9.1.4.6.7.9.5zm6.7 32.8c-.1 0-.3.3-.3.5 0 .1.3.5.5.5s.3-.5.3-.7c0-.1-.3-.4-.5-.3zm-17.5-6c0 .2.3.3.5.3 0 0 .3-.3.2-.4 0-.2-.3-.5-.5-.4s-.3.5-.2.5zm14.1-38.4c.9.4 1.5.2 2-.2s0-1.4-.6-2c-.4-.5-1.6-.4-2 .1-.3.6-.2 1.8.6 2.2zM225.6 151c-.4 0-.6.4-.6.8 0 .7.3 1.2.6 1.2.4 0 1-.7 1-1.1 0-.3-.6-.8-1-.8zm-11.4-24.6c-.5 1.7-.3 2.1 1.3 2.9h.1a2.1 2.1 0 0 0-.6 0c-.4 0-.7.2-.6.6s.4.8.7.7c.2 0 .5-.3.7-.6.2.5.5.7 1 .6.5-.2.8-.8.4-1.4-.2-.5 0-.8.2-1.3 1.2.5 2 0 2-1.1v-.3c0-.8-.4-1.1-1.2-1-.6.2-1.3.3-1.3 1.4l-.6-.8c-.2-.4-.5-.6-1-.5-.5 0-1 .2-1.1.8zm16.2 8.3c-.5 0-.8.2-.8.7 0 .5-.2.8-.4 1.2-.6 1-.3 1.9.6 2.4l.5.4c.2.6.5.7 1 .7.4 0 .5-.4.6-.8l.3-1.3c0-.5.2-1-.3-1.3l-.2-.5c0-1.2-.1-1.5-1.3-1.5zm-2.3 8.5c-.3-1-1.2-1.5-2-1.3-.7.2-1 .7-1 1.4a.6.6 0 0 0-.3 0c-.6.2-1 1.1-.9 1.9.2.7 1.2 1.3 1.8 1.1.7-.1 1.2-.7 1.3-1.3.7-.2 1.2-1 1-1.8zm-9.4-31c-.1.5 0 1 .4 1.2h.5l1-.8c1 .2 1.9 0 2-.6.1-.6-.5-1.6-1.2-1.7-.7-.2-1 0-1.4 1.5-.5 0-1.1-.3-1.3.5zm16 8.4c-.1-.9-1-1.3-2-1-.6 0-1.1 1-1 1.7.2.9.9 1.3 1.9 1 1-.2 1.4-.8 1.2-1.7zm-6.5 17c-.2-.8-1-1.4-1.7-1.2-.7.1-1.5 1.4-1.3 2.1 0 .3.3.5.6.7a1 1 0 0 0-.2.9c.1.4.6.7 1 .6a1 1 0 0 0 .6-1.2l-.1-.2c.7-.2 1.2-1 1-1.7zm-21-9.9c.7-.2 1.1-.8 1-1.6-.3-.8-1.3-1.4-2.1-1.1-.7.2-1.2 1.1-1 1.8.2.8 1 1.2 2 1zm16.6 10.3c-.2-.7-1.3-1.2-2.2-1-.7.3-1 1-.8 1.7.4 1.2.8 1.2 2 1 .7 0 1.2-1 1-1.7z"/><use href="#N"/><path d="M228.4 167.5c.7 0 1.2-1 1-2-.2-.7-.8-1-1.5-.9-.9.2-1.3.9-1.1 1.8.1.7.9 1.3 1.6 1.1zm-13.7-48.4c.8-.2 1.2-.6 1-1.2-.1-.7-.9-1.2-1.5-1.1-.5.1-1 1-1 1.6.2.5 1 .8 1.5.7zm2.5 31.7c-.2-.4-.9-.8-1.3-.7-.5.1-1.3 1.2-1.1 1.6.1.6 1 .9 1.7.7.7-.2.9-.8.6-1.6zm-7.5-21.6c-.7.2-1.2 1-1 1.5 0 .4 1.2 1 1.7.7.4 0 .8-.7.7-1.2-.2-.7-.8-1.1-1.4-1zm14.5-13.3c-.5.1-1 .9-1 1.5.1.5.8 1 1.5.9.4 0 .9-.6.8-1-.1-1-.7-1.5-1.3-1.4zm-4.2 33.4c.9-.3 1.3-.8 1.2-1.3-.2-.5-1.1-1-1.6-.8-.4.2-.8 1-.7 1.5.2.4.8.7 1.1.6zm-10.1-27c.6-.2.8-1.1.7-1.4s-1-.6-1.6-.2c-.3.3-.4.7-.2 1.2.3.4.6.6 1 .4zm14.2 2.5c-.3.3-.4.7 0 1 .1.3.5.5.8.5.8 0 .7-.8.8-1.3-.6-.4-1-.7-1.6-.2zm-3.4 29.6c-.4.1-.9.8-.8 1.1.2.5.9.9 1.3.7s.7-.6.5-1c-.1-.5-.6-.8-1-.8z"/><use href="#O"/><path d="M232.1 170.5c.2.1.6 0 .7-.3s.2-.6.1-.8c0-.2-.4-.3-.7-.3l-1.3.2c-.3.1-.4.4-.3.8l.3.2c.5-.1.8 0 1.2.2zm-6.8-21.6c-.2-.3-1-.7-1.4-.5-.3.1-.6.9-.4 1.3.1.3.5.4 1 .2.6-.3.9-.7.8-1zM215 122.7c.5 0 .6-.4.6-.8 0-.5-.3-.8-.7-1-.7 0-1.2.6-1.2 1s.6 1 1.3.8zm11.8 1.7c-.1.4 0 .8.4.9.4 0 .9 0 1-.2.3-.2.3-.4.2-.7.7 0 1.3-.3 1.8-.8a1.8 1.8 0 0 0 .5-1c.1-.6-.1-1-.5-1.5s-.3-1.2-.9-1.4c-.7-.4-2-.6-3 .4-.7.7-.8 1.3-.7 2 .1.6 1 .7 1.5 1.4l.2.3c-.3 0-.5.2-.5.6zm-16.4-5.8c.1.4.7.7 1.3.5 0-.2.3-.5.3-.9 0-.5-.6-.7-1.1-.6-.4.1-.6.6-.5 1zm2.1 4.3c-.4.2-.7.6-.6 1 .2.5.7.8 1.2.7.4-.2.7-.7.5-1.1-.1-.4-.6-.7-1-.6zm8.6 5.5c-.3.2-.7.6-.7.9 0 .9.6 1 1.4 1.2.4-.5 1-1 .6-1.7-.3-.5-.8-.7-1.3-.4zm-2 6.7a1.2 1.2 0 0 0-.8-.3c-.5 0-.7.4-.8.8-.2.3-.5.6-.3 1 .2.6 1 .7 1.6.4l.5-.6c.6.2 1 0 1.2-.5.2-.4 0-1-.4-1a1 1 0 0 0-1 .2zm3.7-13.8c-.2.2-.3.6-.2.8.1.5.5.7 1 .6.6-.1.7-.8.6-1.2s-.9-.6-1.4-.2zm-11.6 20.4c.1-.5.2-1-.3-1.3a.8.8 0 0 0-1 .3c-.2.2-.3.7-.1.9.4.5.9.4 1.4.1z"/><use href="#P"/><path d="M226.6 162.8c.3.4.6.8 1.1.5.6-.4.4-.8.2-1.3-.7-.1-1.1 0-1.3.8zm-16.3-7c-.3.5.5 1.4 1 1.3s1-.7 1-1.1-1.7-.5-2-.1zm8.1-38.2c.2.1.5 0 .7-.2.3-.4 0-.8-.4-1.2-.4.2-1 .3-.9.9 0 .2.4.4.6.5zm-9-4.6c.3-.1 1-.6.9-1-.1-.2-.9-.3-1.2-.3-.3 0-.6.5-.4.9 0 .3.4.6.7.4zm9.1 43.9c-.4 0-.7.5-.6.9.1.4.5.5.9.5.3-.1.5-.4.5-.8s-.4-.7-.8-.6zm-3.6-15.6c-.3-.1-.6-.3-1-.3-.3 0-.5.4-.4.7.1.4.2.7.7.6.4 0 .7-.5.6-1zm10-30.1c-.1 0-.3.3-.3.5 0 .3.2.6.4.7.6.2.8-.2 1-.6-.2-.5-.5-.8-1-.6zm-1.7 48.6c-.1.2.2.7.4 1 0 .2.2.2.4.3.2-.4.7-.8.5-1.2s-1-.6-1.3 0zm-16.6-15c-.2.4 0 .7.8 1 .6-.1.5-1 .2-1.2a.8.8 0 0 0-1 .3zm7.1-29c.3-.1.4-.9.3-1.1 0-.2-.5-.3-.7-.3-.4 0-.6.3-.4.6.1.3.5.9.8.8z"/><use href="#Q"/><path d="M230.2 172s-.2-.4-.4-.3-.3.4-.2.6l.4.3.2-.6zm-5-6s-.2-.4-.4-.3-.3.4-.2.6l.4.3.2-.6zm-5-6s-.2-.4-.4-.3-.3.4-.2.6l.4.3.2-.6zm-3.6-17.3c0 .2.1.3.4.3.2 0 .3-.1.3-.4s-.1-.3-.4-.3c-.2 0-.3.1-.3.4zm-5.2-5a1.8 1.8 0 0 0 .6-1c.2-.5 0-1-.3-1.5s-.2-1.1-.7-1.5c-.7-.5-2-.9-3 0-.8.6-1 1.2-1 1.8 0 .8 1 1 1.3 1.7.7 1.6 2 1.2 3 .5zm3.3-3.4c.5-.5.5-1.7-.2-2.2-.8-.5-1.5-.4-2 0s-.3 1.4.2 2c.4.6 1.6.7 2 .2zm3.8 5.5c0-.6-.4-1.8-1.5-1.7s-1.8.8-1.8 1.6 1 1.6 1.9 1.6c1-.1 1.3-1 1.4-1.5zm-2 8.3c.4 0 .5-.2.6-.4l.4-.8c0-.4-.1-1-.6-1.4-.5-.4-1-.4-1.4-.2s-.6.7-.6 1 0 1 .4 1.2.8.7 1.2.6zm3.4-2.7c.1-.2.2-.4 0-.6a.6.6 0 0 0-.6-.1c-.2 0-.1.4 0 .6.1.1.4.2.6 0zm-8.3-1c-.5-.2-1.2-.5-1.5.1s.2 1 .4 1 .4.5.2.5-.5.2-.5.8.3 1 1 1c.6 0 1.2-.5 1.3-1.3s-.4-.8-.3-1.3c0-.5-.2-.7-.6-.9zm-.5 6.2c-.6 0-1.2-.2-1.8.3l-.2.8c-.7.3-1.1 1-1 1.4.2.3.4.5.8.5.8 0 1-.2 1.1-1l1.4-1c.4-.4.2-1-.3-1zm18.2-2.6c.4-.1.7-.5.6-1-.1-.4-.4-.7-.9-.6-.5 0-.8.5-.7 1 0 .4.5.7 1 .6zm-2.1-20.5c-.8-.4-2.6.5-3 1.2-.3.8.5 1.5.5 1.7s-1.4.5-1.8 1.5.6 2.3 1.2 2.6c.7.3 1.3.4 1.8.2.7-.2 1.5-1 1.4-1.7s-.8-1.7-.7-2 1.5-.4 1.8-1.4-.4-1.8-1.2-2.1zm6.6 1.2c-.2 0 .4-1.5-1-2s-2 .2-2.2 1.4c0 .3-.4.7-.7 1.1a.9.9 0 0 0-.7.9c-.4.7-.7 1.4 0 2.2.9 1.1 2 .8 2.4.3s.3-1.2.7-1.4-.1.6 1.2.3 1.9-2.4.3-2.8z"/><use href="#R"/><path d="M214.5 118.6c1.4.9 3.5.2 4.3-1.4.3-.6.7-.7 1.2-.8.7-.1 1.2-1 1-1.6-.3-.7-.8-.8-1.4-.6l-1.4.2-3-1c-.1-2.3-.8-2.8-3-2.1-1 .3-1.6 1.5-.9 2.4.6.7 1.4 1.2 2.3 2-.2 1-.3 2.2.9 3zm12 2c1.4.9 3.5.2 4.3-1.4.3-.6.7-.7 1.2-.8.7-.1 1.2-1 1-1.6-.3-.7-.8-.8-1.4-.6l-1.4.2-3-1c-.1-2.3-.8-2.8-3-2.1-1 .3-1.6 1.5-.9 2.4.6.7 1.4 1.2 2.3 2-.2 1-.3 2.2.9 3z"/><path d="M209.6 112.5c-1.3.8-1.3 2.8 0 4.1.4.5.4.8.3 1.3-.1.6.6 1.3 1.3 1.4.7 0 .9-.4 1-1 0-.4 0-.9.2-1.2.5-.8 1.2-1.5 1.8-2.2 2.2.7 3 .3 3-1.7 0-1.1-1-2-2-1.7-.9.2-1.6.8-2.6 1.3-.9-.5-2-1-3-.3z"/><path d="M209.4 117.2c.9 0 1.6-.8 1.6-1.5s-1.1-1.7-1.8-1.7c-.8.1-1.4 1-1.4 1.7.1.8.9 1.5 1.6 1.5zm15.2 5.2c0-.6-.6-.8-1.4-.7-.6 0-1 .4-1 1 0 .4 1 1.3 1.4 1.2.7 0 1.1-.7 1-1.5zm4.5-7.7c0 .6.6.9 1 .8.5-.1 1-.6.9-1 0-.4-.9-1-1.3-.9-.3.1-.6.8-.6 1.1zm-15.6 8.5c0-.3-.5-.7-.9-.7s-.8.5-.8 1c0 .3.4.7.8.6.5 0 1-.5.9-.9zm10.3-4.5c1.6.7 2.1.6 3-1a.7.7 0 0 1 .1 0 2 2 0 0 0-.2.6.5.5 0 0 0 .6.7c.5 0 .8-.3.8-.7 0-.2-.3-.5-.5-.7.5-.2.7-.5.7-.9-.1-.5-.7-1-1.3-.7-.6.3-.9 0-1.3-.2.6-1.2.3-2-.9-2.2a3.5 3.5 0 0 0-.3 0c-.8 0-1.1.3-1 1 0 .7 0 1.3 1.1 1.5-.4.3-.6.5-.8.5-.5.2-.7.4-.7 1 0 .4.1.9.7 1.1zm3.8 13.2v-2.1c1.4-.1 1.5-.2 1.2-1.3-.7-.2-1 0-1.3.7-1.6-.3-2.1.5-1.5 2l-.2.3c-.4.3-.4.6-.2 1 .1.4.4.5.8.5.9 0 1.2-.2 1.2-1.1zm-3.4-6c0-.8-.6-1.3-1.4-1.2-.9.1-1.6 1-1.4 1.9 0 .7 1 1.3 1.7 1.2.8 0 1.3-.9 1.1-1.9zm8.9 3c-.7 0-1.5.7-1.5 1.2 0 .7.8 1.4 1.5 1.4.6 0 1.2-.9 1.2-1.7 0-.5-.6-1-1.2-.9zm-20.7-.8c.3-.7 0-1.7-.7-1.8-.6-.2-1 0-1.3.5-.4.5-.3 1 .1 1.4.3.3.8 1 1.4.9s.3-.7.5-1zm4.2-10.8c0-.8-.4-1.2-1-1.1-.7 0-1.4.7-1.3 1.3s.9 1.2 1.5 1.2c.5 0 .9-.8.8-1.4zm9.5 6.2c0 .7.7 1.4 1.3 1.3.5 0 1-1.2 1-1.7-.1-.4-.7-.9-1.1-.8-.8 0-1.3.6-1.2 1.2zm-8.4 3.4c0 .5.8 1 1.4.8.5 0 1-.6.9-1.3-.1-.6-.4-1-1-.9-.7 0-1.4.8-1.3 1.4zm1.6-4.4c-.2-.7-1-.9-1.4-.8-.2 0-.7.9-.3 1.5.2.3.6.5 1 .3.5-.2.8-.5.7-1zm1-5.1c0-.5-.3-.7-.8-.7s-.8.2-1 .6c-.1.7.4 1.2.8 1.3s1-.5 1-1.2zm-4.6 4c.4 0 .7-.6.6-1.2-.2-.1-.5-.4-.9-.4s-.8.5-.7 1c0 .5.5.7 1 .6zm4.5-1.5c0 .4.5.8 1 .7.4-.1.8-.6.7-1-.1-.5-.6-.8-1-.8-.4.1-.8.6-.7 1zm6.4-7.8c.2.3.5.7.8.8 1 .1 1.2-.6 1.4-1.3-.4-.5-.8-1-1.6-.8-.5.2-.8.7-.6 1.3zm-9.2 17.7c0-.4-.4-.8-.8-.7-.4 0-.8.4-.8.8 0 .5.4.9.8.8.4-.1.8-.4.8-.9zm11.8 5.2c.2-.7-.3-1-1-1.2-.3.4-.8.7-.5 1.3.2.4.5.6 1 .4.2 0 .5-.3.5-.5z"/><path d="M215.6 113.5v-.7c-.5-.4-1-.2-1.3.2 0 .4.1 1 .7 1 .2 0 .5-.3.6-.5zm12 13.3c0-.6-.8-.6-1.1-.7-.4 0-.7.4-.6.8 0 .5.3.7.7.6.3-.1 1-.2 1-.7zm-17.7-5c0-.3-.5-1-.8-1s-.5.9-.5 1.2c0 .3.4.6.8.5.4 0 .6-.3.5-.7zm16 12.3c0-.3-.4-.5-.6-.7-.6 0-.7.4-.7.8 0 .3.2.7.6.6.3-.1.6-.5.6-.7zm-12.7-16.2c0-.3-.8-.4-1-.4-.2 0-.4.4-.4.7 0 .3.2.6.6.4.2-.1.9-.4.8-.7zm6.6 14.9c0-.2 0-.6-.4-.6-.3 0-.3.5-.3.6l.3.3c.2 0 .4-.2.5-.3zm3.6-1.4c0-.2-.4-.3-.6-.3-.1 0-.5.1-.4.3a.6.6 0 0 0 .4.4c.2 0 .6-.2.6-.4zm-1.8-1.5c0-.4-.3-.5-.6-.4-.3 0-.4.4-.4.5 0 .2.2.5.5.4s.5-.2.5-.5zm13-7c-.1-.3-.4-.6-.8-.7-.5-.2-1-.2-1.6 0s-1.1.1-1.5.6c-.6.6-1.1 1.8-.4 3 .5.8 1 1.2 1.7 1.2s1-.8 1.8-1c1.7-.6 1.5-2 .9-3zm-2.9-3.7c-.4-.5-1.6-.7-2.2 0-.6.7-.6 1.4-.3 1.9s1.4.4 2.1 0c.6-.3.8-1.5.4-2zm-7 4c.2-.6-.1-1.3-.7-1.5a1.2 1.2 0 0 0-1 0c-.7.5-1 1.2-.6 2.3l1.1.2c.6 0 1.2-.5 1.3-1zm-16-8.6c.4-.4.3-1-.2-1.6-.5-.5-1-.6-1.4-.3-.3.3-.5 1.6-.3 2 .5.4 1.2.4 1.8-.1z"/><path d="M227.7 126c.6-.4.6-.8 0-1.4-.4-.6-1-.7-1.4-.4-.3.3-.5 1.6-.2 1.9.5.4 1 .4 1.6 0zm-1 6.9c-.5.4-.6.9-.3 1.2.3.4 1.5.6 1.8.3.5-.5.5-1 0-1.6-.5-.5-1-.4-1.6.1zm-9.2-19c-.3.3-.4 1 0 1.3.4.3 1 .3 1.4 0 .2-.2.2-1.2-.1-1.4-.2-.3-1-.2-1.3 0zm5.2 23.6h.6s.1-.3 0-.4c-.1-.1-.5-.3-.7-.1s0 .5.1.5zm-8.2-2.5c0 .1-.3.3-.1.5s.4.1.5 0c.1 0 .4-.3.2-.5s-.5-.1-.5 0zm-3.3-23.2c.4 1.7.8 2 2.6 2-.2 0-.4 0-.6.2a.5.5 0 0 0-.2.8c.3.4.7.5 1 .2l.4-.7c.4.3.7.3 1 0 .4-.4.4-1-.1-1.4-.5-.3-.5-.7-.5-1.2 1.3-.2 1.7-1 1.2-2l-.1-.3c-.5-.6-1-.7-1.5-.2-.5.4-1 .8-.6 1.8l-.8-.4c-.4-.3-.8-.3-1.2 0-.4.2-.7.6-.6 1.2zm.5 19.3a2 2 0 0 0 .3-2 1 1 0 0 0-.5-.5c-.9-.3-1.6 0-2.1.7l-.3.5-.9-.5c-.6-.3-.9-.2-1.2.3a1.3 1.3 0 0 0 0 1.5c.3.5.8.6 1.3.5l1-.5.5.3c.6.3 1.5.2 1.9-.3zm19.7-10.9c-.7-.7-1.8-.8-2.4-.2-.5.5-.6 1.1-.3 1.7l-.2.1c-.5.5-.4 1.5 0 2 .6.6 1.7.7 2.2.3.6-.5.8-1.2.6-1.8.5-.6.5-1.5 0-2zm-2.6-5c-.5-.6-1.5-.7-2-.3-.6.5-.7 2-.2 2.5.2.2.5.3.8.3 0 .3 0 .6.3.9.3.4.9.4 1.2 0 .3-.3.3-1 0-1.3h-.2c.5-.6.6-1.6.1-2zm-3.7 2.4c-.5-.5-1.6-.4-2.3.2-.6.5-.6 1.3 0 1.8.9.8 1.3.7 2.3 0 .6-.4.5-1.4 0-2zm-17 7.6c-.3-.5-1.3-.8-1.7-.5-.6.4-.7 1.4-.3 2 .4.5 1.4.5 2 0 .4-.3.5-1 0-1.5zm17.1 6.8c-.3-.3-1-.3-1.4 0-.4.4-.6 1.7-.3 2 .4.3 1.3.2 1.9-.3.5-.5.4-1-.2-1.7zm-16.6-15.6c-.5.5-.7 1.4-.3 1.8.3.4 1.6.2 2-.2.3-.3.3-1 0-1.3-.5-.6-1.2-.7-1.7-.3zm18.5 13c.6-.7.8-1.3.4-1.7-.4-.4-1.4-.4-1.8 0-.3.4-.2 1.3.1 1.6.3.3 1 .3 1.3 0zm3 4.2c-.3.3-.5 1-.2 1.3.3.4 1.1.4 1.4 0 .4-.3.3-.8 0-1.2-.3-.3-1-.4-1.2-.1zm.8-2.3c.2 0 .4-.4.5-.7 0-.2-.2-.6-.4-.7h-.7l-1 .8c-.3.3-.3.6 0 .9h.4c.4-.3.7-.3 1.2-.3zm.6-4.7c-.3-.3-1.2-.2-1.5.1-.2.3 0 1 .3 1.4.3.2.7.1 1-.2.4-.6.5-1.1.2-1.3zm-13.2-16.3c-.2.3-.3.8-.2 1.1.4.8 1.1.7 1.9.4.1-.6.3-1.3-.3-1.7-.4-.3-1-.3-1.4.2zm1.4 6.9c-.4-.1-.7 0-.8 0-.4.3-.4.7-.4 1.1 0 .4-.1.8.3 1.1.4.4 1.2.2 1.5-.4.2-.2.2-.5.2-.8.6-.1 1-.5.9-1-.1-.4-.5-.7-1-.7-.3 0-.6.3-.7.7zm-3.9 9.5c-.1-.5-.3-1-.9-1-.4 0-.8.3-.8.8 0 .2.2.7.4.8.5.2 1-.1 1.3-.6zm5.7 13c0 .5 1 1 1.5.6s.6-1.1.3-1.4-1.7.3-1.8.8zm7.8-3c-.4.3-.5.9-.2 1.2.4.3.7.2 1 0a.6.6 0 0 0 .1-1c-.2-.3-.6-.4-1-.1zm-10.6-12-.9.1c-.3.2-.3.6 0 .9.2.2.5.5.8.2.4-.2.5-.8.1-1.3zm-5.6 7c0 .4.3.5 1.1.5.6-.5 0-1.2-.4-1.2-.3 0-.7.3-.7.7zm-4.2 2.8c0 .5.6 1 1.2.6.5-.5 0-1.2-.4-1.3-.4 0-.8.4-.8.7zm12-9.4c.2.2.3.2.5.1s.3-.3.1-.5c0-.2-.2-.2-.4-.1-.3.1-.3.3-.2.5zm-7-2c.3-.4.3-.8.2-1.1 0-.6-.4-1-1-1.2-.5-.4-.7-1-1.3-1-.8-.1-2.1.1-2.7 1.4-.3.8-.3 1.5 0 2 .4.7 1.3.4 1.9.9 1.4 1 2.4.1 3-1zm1.5-4.6c.1-.6-.4-1.7-1.3-1.8-.9 0-1.4.4-1.7 1-.3.5.4 1.3 1.2 1.7.5.2 1.6-.3 1.8-.9zm5.8 3.2c-.2-.6-1-1.4-2-.8-1 .6-1.2 1.5-.9 2.2s1.7 1 2.4.5c.8-.5.7-1.4.5-2z"/><path d="M223.4 130c.3-.3.3-.5.3-.7s.2-.5 0-.9-.6-.9-1.2-1-1 .2-1.3.5c-.3.4-.2.9-.1 1.2s.5.8 1 .8 1 .3 1.3 0zm1.7-4c0-.3 0-.5-.2-.6s-.5 0-.7.2.2.5.3.5c.2.1.5 0 .6-.2zm-7.8 3c-.5 0-1.3 0-1.2.8s.5.7.8.7.5.2.3.3-.2.4 0 .9.7.7 1.3.5c.6-.3.9-1 .6-1.7-.3-.7-.7-.7-.9-1.1-.1-.4-.4-.5-1-.5zm2.5 5.7c-.5.2-1.2.4-1.5 1l.2.8c-.4.7-.5 1.4-.2 1.8a.8.8 0 0 0 1 0c.6-.3.7-.6.4-1.4l.8-1.5c.2-.4-.2-1-.7-.7zm12.1 27.9c-.4.2-1 .3-1.2.8l.2.7c-.4.5-.5 1-.2 1.3.2.2.5.2.8 0 .5-.2.6-.5.4-1l.6-1.2c.2-.4-.2-.8-.6-.6zm-8.7-55.9c-.9 0-2 1.7-2 2.5s1.1 1 1.2 1.2-1 1.2-.9 2.2 1.6 1.8 2.3 1.7 1.3-.1 1.7-.6c.5-.5.8-1.5.4-2.2s-1.5-1-1.5-1.4c0-.3 1-1 .9-2s-1.2-1.5-2.1-1.4zm-7.4 11.2c-.1.5.2 1 .6 1.2s1-.2 1.2-.6c.1-.4-.2-1-.7-1.1-.4-.2-1 0-1 .5zm-6.6 4.4c.4.2 1 0 1-.5.3-.5 0-1-.3-1.2-.5-.1-1 0-1.2.5-.2.4 0 1 .5 1.2zm17.1 16.7-.2.7c.3.5 1 .4 1.2.2s.2-.9-.3-1.1c-.2 0-.6 0-.7.2zm-2-9.2c-.2.7.1 1.5.6 1.7.5.2 1.5-.3 1.7-.9.3-.8 0-1.4-.7-1.6-.7-.2-1.3.1-1.5.8zm3.3 5.1c.2.2.7-.2.8-.4.3-.3 0-1-.4-1-.2 0-.5.3-.6.5s0 .8.2 1zM212 118.5v.7c-.5.8-.3 1.4.5 1.8l-.1.2c-.1.4.2.9.7 1 .6.2 1.2 0 1.3-.5.2-.4-.1-.9-.6-1a1.6 1.6 0 0 0 .3-.8c.1-.4.2-.8.5-1.1.5-.5.4-1.1.4-1.7-.1-.5-.7-1-1.3-1.1h-.2c.4-.2.7-.5.8-.8.1-.5-.2-1-1-1.3-.5-.2-1.3 0-1.4.4-.2.6.1 1.6.6 1.8h.3l-.5.6c-.4.6-.3 1.2-.3 1.9zm-4.2-2.3c.6 0 1.2-.2 1.7-.4.6-.2 1-1.2.8-1.8-.1-.4-.3-.7-.7-.6-1 0-2 .2-2.7.9-.2 0-.2.3-.3.4-.4.9.2 1.7 1.2 1.6zM225 133c-.9-.6-1.7-.2-1.9.8l.1 1.8c0 .6 1 1.2 1.6 1.1.4 0 1.2-.3 1-1.1-1-1 0-1.4-.5-2.3l-.3-.3zm-17-4.6c.2-.7-.3-1.7-1.1-2-.8-.2-1.9.3-2.1 1-.3.9 0 1.9.8 2 .7.3 2-.3 2.3-1zm23.9-8.7c.3-.8 0-1.8-1-2-.7-.4-1.3 0-1.7.8-.4 1-.2 2 .6 2.2.9.4 1.7 0 2-1h.1zm.6 3.8c-.7-.2-2.1.4-2.3 1-.3.8.2 1.7 1 2 .7.3 1.8-.2 2-.9.3-.8 0-1.9-.7-2v-.1zM220.2 137.1c-.3.7 0 1.4.5 1.6.7.2 1.6-.3 1.9-1 .2-.4-.3-1.2-1-1.3-.7-.3-1.2 0-1.4.8zm-3.2-9.5c.5.2 1.5-.3 1.8-1 .2-.5-.1-1-.7-1.3-.8-.3-1.3 0-1.6.8-.2.6 0 1.4.5 1.5zm14.6 1c-.1.5.4 1.5 1 1.7.3.1 1.2-.3 1.4-.8.2-.4-.1-1.1-.5-1.3-.8-.3-1.7-.1-1.9.4zm-3.3 2c-.2.6 0 1.1.4 1.3.5.2 1.6-.2 1.8-.6.2-.7 0-1.2-.8-1.5-.6-.2-1.1.1-1.4.9zm-17.8-5.2c-.2.5.1 1.1.8 1.4.6.2 1 0 1.2-.4.2-.5-.1-1.5-.5-1.7-.6-.3-1.2 0-1.5.7zm6.2-8.3c.8.3 1.5.1 1.7-.4.2-.5-.2-1.4-.6-1.6-.4-.1-1.3.4-1.5 1a.7.7 0 0 0 .4 1zm9.2 10.4c-.2.4.2 1.3.7 1.5.4.1.8 0 1-.5.2-.5 0-1.2-.5-1.5-.4-.2-1 0-1.2.5zm4 11.1c-.2.5 0 1 .5 1.2.5.2 1 0 1.2-.6.1-.4-.1-1-.6-1-.5-.3-1 0-1.2.4zm-21.6-19 .8.3c.7-.2 1-1 .7-1.5s-1-.5-1.5 0c-.2.3-.1.8 0 1.1zm24.4 14.7c-.4-.2-.9 0-1.1.4-.2.4-.1.8.4 1 .4.2.9 0 1.1-.4a.8.8 0 0 0-.4-1zM207.1 111c-.2.6 0 1 .3 1.1.4.1.8 0 1-.5.1-.4 0-.8-.5-.8l-.8.2zm8 21.7-.3 1.5c-.3.5-.1.9.3 1.1.4.3.9 0 1.2-.4l.6-.7c.6-.3.8-.7.8-1.2s-1-1-1.5-1-1 0-1.1.7zm-.6-2.1c.5.2 1 0 1.1-.5.2-.5 0-1-.4-1.2-.5-.1-1 .1-1.1.6-.1.4 0 .9.4 1z"/><path d="M211.4 127.8c-.1.4 0 .8.5.8l.7-.2c.2-.5-.1-1-.5-1-.4-.2-.5 0-.7.4zm-1.3 3.5c.1-.6-.2-1-.6-1.1-.4-.1-.5.1-.6.4-.2.4 0 .9.4.9l.8-.2zm8-17.8h.7v.7c.1.5.5.7 1 .7.6 0 .6-.6.9-1.2-.4-.3-.6-.5-1-.6a1.3 1.3 0 0 0 .5-.5c.2-.7-.3-1.8-1-2.1-.7-.3-1.5 0-1.7.8-.4 1 0 2 .7 2.2zm6.3 2.4c.1-.4 0-.9-.4-1-.4-.2-1.1.2-1.2.6a.8.8 0 0 0 .5 1c.4.2.9 0 1-.6zm-4 18.5c.2-.3 0-1-.3-1s-1 0-1.2.3c-.1.4.4.8.6 1 .3 0 .6.1.9-.3zm1.5-21.1c0 .4.8.7 1.2.4s0-1-.6-1.2c-.3-.1-.6.4-.6.8zm-3.3 26-.1-.4c-.1 0-.5 0-.6.2 0 .1 0 .6.2.7s.5-.3.5-.4zm5 1.3v-.3s-.3 0-.4.2l.2.3.3-.2zm-4.2-11c.1.4.8.8 1.3.8.7-.1 1-.8 1-1 .7.2 1.5-.2 1.8-.8.2-.7 0-1.3-.3-1.8.3 0 .6-.1.9-.5.7-.8.7-1.8.1-2.3-.3-.3-1-.4-1.7-.2.1-.4 0-.8-.4-1-.4 0-1 .2-1.1.6s0 1 .4 1.2h.2c-.3.7 0 1.3.3 1.7-.5 0-.9.4-1.2 1.1a2.3 2.3 0 0 0-.1.7.7.7 0 0 0-.6 0c-.6 0-.9.9-.6 1.4zm-2.6-5.4c.6-.2 1-.5.8-1l1.4-.7c.4-.3.6-1 .6-1.6.2.3.5.5 1 .6 1.1.3 1.6 0 2-.9.3-.9-.2-1.7-1.2-2l-.3-.1c.5-.2 1-.5 1-.9.3-.4-.1-1-.7-1.3-.7-.3-1.3 0-1.6.8-.2.5 0 1.3.4 1.4h.2c-.5.2-.8.6-1 1.1a1.8 1.8 0 0 0 0 .6c-.6-.5-1.6-.7-2.2-.4-.5.2-.9 1-.7 1.9.2.5.4.9 0 1.4-.4.4 0 .8.3 1zm-3.5-13.2c-.3.9 0 2 .7 2.3.7.2 2-.3 2.2-1 .2-.7-.3-1.8-1-2-.8-.3-1.6 0-1.9.7zm16.7 18.4c.4.1 1-.2 1-.6.2-.4-.1-1-.5-1-.5-.1-.9.1-1 .6a.7.7 0 0 0 .5 1zm-18.2 5.5c.4-.3.3-.1.8.2s1.2.3 1.4-.6-.6-1.6-1.3-1.9-2.2.7-2.2 1.7c0 .7.8.8 1.3.6zM227 119c-.4-.6-1.7-.7-2.1-.4s-.9.5-1 1c-.2.5 0 1.3.4 1.7s1.4.2 1.6.4-.4 1.1 0 1.8a1.2 1.2 0 0 0 1.2.4 1.3 1.3 0 0 0-.4.2c-.5.2-.6.6-.4 1.1.3.6.9.8 1.4.6.5-.2.8-1 .6-1.4-.2-.4-.6-.5-1-.5l.5-.2c.6-.4 1-1.8.6-2.4s-1.1-.3-1.2-.5.3-1-.2-1.8z"/><path d="M227.2 116c.1-.1 1 1.2 2 .3s1.2-1.8.3-2.6a3 3 0 0 1-.6-1.2c.1-.4 0-.9-.4-1-.3-.8-.8-1.4-1.8-1.3-1.4.1-1.8 1.2-1.6 1.8.2.6.8 1 .8 1.4s-.4-.4-.9.8c-.4 1.3 1 2.9 2.1 1.8zm1.1 10.8c.3.7.9 1 1.5.7.6-.2 1-.8.9-1.3-.3-.6-1.3-1-2-.8-.4.2-.6.9-.4 1.4zm-9.3-2.1c-.2 0-.6.2-.7.4-.2.5.4 1 .7 1s.7-.5.6-1c0-.2-.4-.4-.6-.4zm11.7 6.5c-.4.1-.7 1-.5 1.2s.6.2 1 0c.2 0 .5-.3.3-.7-.1-.3-.4-.6-.8-.5zm-6-13.9c-.6.3-1 1-.8 1.5s1.2 1 1.7.8c.8-.3 1-1 .8-1.6-.3-.7-1-1-1.6-.7zm-1.8 5.8c0 .2.7.3 1 .3.3 0 .6-.6.4-.8a.9.9 0 0 0-.8-.3c-.2 0-.6.5-.6.8zm0-3.3c-.1-1-1-1.4-1.8-.9l-1.3 1.2c-.5.5-.3 1.5.1 2 .3.3 1 .7 1.5 0 .1-1.3 1-.9 1.4-1.8v-.5zm12-.3c-.2-.7-1.6-1.3-2.2-1.1-.7.2-1.1 1.2-.8 2 .2.7 1.3 1.3 2 1 .8-.3 1.3-1.3 1-2zm-18.4-.7c-.7.3-1 .9-.8 1.4.3.7 1.2 1 1.9.8.5-.1.7-1 .5-1.5-.3-.7-1-1-1.6-.7zm13.9 3.3c-.5.2-1 1.2-.7 1.7.1.5 1 .8 1.5.7.5-.2.8-.8.7-1.2-.3-.9-1-1.4-1.5-1.2zm-3.7-1.2c-.6.2-.9.6-.7 1.1.1.5 1.2 1.1 1.6 1 .6-.3.9-.9.6-1.6-.2-.6-.8-.8-1.5-.5zm.9-4c-.5.2-.9 1-.7 1.6.1.4.5.6 1 .4.6-.1 1-.7.8-1.3-.1-.5-.7-.8-1.1-.6zm-6 10.3c-.5.2-.7.7-.5 1.2.1.5.6.7 1.1.5.4-.2.7-.7.5-1.1-.2-.6-.7-.8-1.1-.6zm10 1.2c-.5.1-.7.8-.6 1.2.2.4.6.6 1 .5.6-.2.8-.7.7-1.2-.2-.4-.8-.7-1.2-.5zm-5.9 1.9c.2.4.8.6 1.1.5s.7-.8.5-1.2a.8.8 0 0 0-1-.5c-.5.2-.8.7-.6 1.2zm1-3.7a.9.9 0 0 0-1-.6c-.5.1-.7.4-.5 1 .1.4.5.7 1 .6.4-.2.7-.6.6-1zm-10.2-14.4-1.3.7c-.5 0-.8.4-.7.9.1.5.6.7 1.1.7h1c.5.2 1 .2 1.4-.2.3-.3.2-1.5-.2-1.8-.3-.3-.7-.7-1.3-.3zm2.2 5c.4 0 .8-.6.6-.9-.2-.2-.6-.8-1-.6s-.4.7-.3 1c0 .3.2.6.7.5zm11 16.5c-.3 0-1 .7-.8 1.1.1.4 1.2.4 1.5.3.2-.1.6-.6.5-1s-.8-.5-1.2-.4z"/><use href="#S"/><path d="m223.8 130.9.3-.4a.6.6 0 0 0-.5-.4c-.1 0-.5.4-.4.6s.5.2.7.1zm-7.7-7.2s.2-.1.1-.2c0-.1-.1-.2-.3-.2-.2 0-.1.3-.1.3 0 .1.2.2.3.1zm5.7-10.4c-.2.4-.2 1.2.2 1.6.5.4 1.2.2 1.3 0 .4.8 1.2 1.2 1.9 1 .7-.3 1-.8 1.1-1.4.2.2.6.4 1 .4 1.1 0 1.8-.7 1.8-1.4 0-.5-.4-1-.9-1.4.4-.2.5-.6.4-1-.1-.4-.6-.6-1-.5-.5.2-.8.7-.7 1l.1.2c-.7.2-1 .8-1 1.3v.1c-.5-.3-1-.4-1.7-.2-.3 0-.5.2-.7.4 0-.2 0-.4-.3-.6-.4-.3-1.2 0-1.5.5zm7 8c.1.4.6.7 1 .5.4-.1.7-.7.5-1.1-.2-.4-.7-.6-1.2-.4a.7.7 0 0 0-.4 1zm-16-10.4c.5.2.3.2.4.7s.5 1.2 1.3.8 1-1.5.6-2.2-1.9-1.2-2.6-.7c-.6.5-.2 1.3.3 1.4z"/><path d="M230.2 108.8c.1-1.1-1-2.2-2.4-2.1-.5 0-.6-.2-.8-.5-.4-.4-1-.4-1.5 0-.4.4-.2.7 0 1 .3.3.6.5.6.8l.4 2.2c-1.5.9-1.6 1.4-.5 2.5.6.6 1.6.5 2-.3l.5-2c.7-.3 1.6-.6 1.7-1.6zm-10.7 9c-.1-.4-.2-1-.8-.9-.6 0-1-.3-1.5-.7-.4-.3-.8-.2-1.1.1-.4.5-.3 1.2.1 1.3.7.2 1 .7 1.1 1.2.3.5 1 .8 1.4.7.4-.2 1-1.2.8-1.7zm-12.4 7.6c.5.6 1.1.8 1.7.4.5-.4.7-1.1.4-1.5-.4-.6-1.4-.7-2-.3-.4.2-.5 1-.1 1.4zm11.5-3.2c.8-.5 1-1 .6-1.6-.3-.4-1.3-.5-1.7-.2-.3.3-.4 1.3 0 1.7.2.4.7.4 1.1.1zm-4-1.5a.8.8 0 0 0-1 .1c-.4.3-.5.9-.2 1.2.4.6 1 .4 1.5.3.2-1 .2-1.4-.3-1.6zm8 9c-.3.2-.4.7-.2 1.2.3.4.7.5 1 .2.5-.2.6-.7.4-1.1-.3-.4-.8-.5-1.1-.3zm-6.7-3.4c0-.2-.4-.5-.6-.5-.3 0-.8.2-1 .5-.3.5.3.8.6 1.2.6-.3 1.1-.5 1-1.2zm9.8 1.9c-.2.2-.2.7 0 1.1.3.3.6.4.8.1.3-.2.6-.5.3-1-.2-.2-.8-.4-1-.2zm-15.2.9c-.4.2-.4 1-.2 1.2s.6 0 1 0c.2-.2.4-.6.1-1-.2-.2-.5-.5-1-.2zm13.4-6c.3 0 .5-.3.4-.6 0-.3-.4-.7-.6-.8a.4.4 0 0 0-.6.2c0 .3.1.5.3.7.1.2.2.4.5.5zm-1-6.4c-1 0-1.5.4-1.8 1-.2.5.5 1.3 1.3 1.7.5.2 1.6-.3 1.8-.9s-.4-1.7-1.3-1.8zm4.1 5.4a1.4 1.4 0 0 0-.4 2c.4.7 1.6 1 2.3.5.6-.4.8-1.6.4-2.2-.4-.8-1.4-.9-2.3-.3zm-13.5-8.9c.7-.4 1-1.4.4-2.2-.4-.7-1.1-.8-2-.3-.9.6-1.2 1.5-.7 2.2.5.7 1.4.9 2.3.3zm-1.8 3.5c-.4-.6-1.9-1-2.4-.5-.7.4-.8 1.4-.4 2.1.5.7 1.6 1 2.2.5.8-.4 1-1.5.7-2.1zm19.9.9c0-.5-.3-.8-.8-.9l-.5.1-.7 1.2c-1 .1-1.7.6-1.6 1.3 0 .6 1 1.2 1.7 1.1.7 0 .9-.4.8-1.9.5-.1 1.1-.1 1-.9zm-18-2.2c.5.8 1.4 1 2.2.3.6-.4.8-1.3.3-2-.4-.8-1.2-.9-2-.3-.9.6-1 1.3-.5 2zm7.3 5.7-1 1.5c-.1.4 0 .9.4 1 .4.3.8.2 1.1-.2a2.5 2.5 0 0 1 .6-.6c.5-.4.7-.9.5-1.5-.3-.6-.8-.8-1.5-.2zM208 120.4c-.5.3-.6 1.3-.3 1.8.3.4 1.2.5 1.7.2.3-.2.5-1 .3-1.3-.5-.7-1.3-1-1.7-.8zm17-4.2c.6-.3.8-1.2.5-1.8-.3-.4-1.1-.6-1.6-.3-.4.2-.7.9-.5 1.2.5.8 1.2 1.2 1.7.9zm-6.3 8c-.2-.3-1-.4-1.3-.1-.5.4-.7 1.1-.4 1.5.4.5 1.4.7 1.8.4.3-.2.3-1.2 0-1.8zM214 120c.6-.5.9-1 .6-1.3-.2-.4-1.2-.6-1.6-.3-.4.2-.5 1-.1 1.5.2.4.6.4 1 0zm-1.8 3.5c.3.3.6.7.9.4.6-.4.7-1 .5-1.3-.3-.5-1-.6-1.4-.3-.3.4-.4.9 0 1.2zm-1.6 2.6c-.3.3-.4 1-.2 1.3.3.4.8.5 1.1.2.5-.3.6-.8.3-1.2-.2-.4-.8-.5-1.2-.3zm9-17c0-.4-.3-.7-.7-.6-.3 0-.8.2-.9.5v.7c-.5.2-1 .8-1.3 1.4-.1.4-.2.8-.1 1.2.1.5.5.9 1 1.2.5.3.7.9 1.3 1 .8 0 2.2-.2 2.7-1.6.4-.8.3-1.4 0-2-.4-.6-1.3-.3-1.9-.8a3 3 0 0 0-.3-.2c.2-.2.3-.4.3-.8zm-3.3 20.5c-.3.2-.4.8-.1 1.2.3.4.8.4 1.2.1.5-.3.6-.7.4-1-.3-.4-1.2-.5-1.5-.3zm7-5c-.3.2-.4.5-.2 1 .1.3 1 .4 1.2 0s.2-.5 0-.8c0-.4-.6-.5-1-.3zm6.7-12.1c-.2 0-.5.2-.6.4-.1.6.2.8.8 1 .3-.3.8-.5.5-1 0-.3-.5-.4-.7-.4zm-4 8.4c.2-.2.3-.5.2-.7 0-.2-.4-.5-.6-.5-.6 0-.6.5-.7 1 .4.3.8.5 1.2.2zm-5.7 4.1c-.4.2-.4.7-.1 1 .2.1.4.3.7.2s.5-.9.2-1.2c-.3-.3-.5-.2-.8 0zm9 4.9c-.2.2-.4.5-.3.7 0 .2.6.3.7.2.2 0 .6-.6.5-.8s-.8-.2-.9-.1zm-19.1 1.8c-.3.1-.8 1-.5 1.3s1.2.1 1.5-.1c.2-.2.4-.8.2-1.1-.2-.4-1-.2-1.3 0v-.1zm9.6.1c-.1 0-.4.5-.3.6h.7s.2-.4 0-.4l-.4-.2zm-.6-4.3c-.2.1-.2.5 0 .6 0 .1.3.4.5.3a.6.6 0 0 0 .1-.6c0-.2-.5-.5-.6-.3zm-5.5 3.1c-.2.2-.2.6 0 .7 0 .1.3.2.5.1 0 0 .2-.3.1-.5 0-.1-.4-.4-.6-.2zm3 2.4v.3h.3v-.3h-.3zm13.3-6.8s-.4.3-.2.6c.1.3.5 0 .7 0 0 0 .1-.4 0-.4 0-.1-.3-.3-.5-.2z"/></g></g></g><defs><path id="H" d="M370.5 289.4c-.1-.7-1.2-1.2-2-1-.8.2-1.1.7-1 1.5.2.9.9 1.3 1.8 1 .7 0 1.3-.8 1.2-1.5z"/><path id="I" d="M368.8 295.5c0-.2-.2-.6-.4-.7s-.5-.2-.8-.1c-.1 0-.3.4-.3.7l.3 1.3c0 .3.3.4.7.3l.2-.4c-.1-.4.1-.7.3-1.1z"/><path id="J" d="M365.7 291.2c.4-.3.8-.6.5-1.2-.3-.5-.8-.3-1.3 0-.1.6 0 1 .8 1.2z"/><path id="K" d="M374.8 288.7s-.4.3-.4.5.5.2.7.2l.2-.4c-.1-.1-.3-.3-.5-.3z"/><path id="L" d="M333.6 298.5c.9-1.4.2-3.5-1.4-4.3-.6-.3-.7-.7-.8-1.2-.1-.7-1-1.2-1.6-1-.7.3-.8.8-.6 1.4l.2 1.4-1 3c-2.3.1-2.8.8-2.1 3 .3 1 1.5 1.6 2.4.9.7-.6 1.2-1.4 2-2.3 1 .2 2.2.3 3-.9z"/><path id="M" d="M335 304.2c0-.1-.2-.3-.3-.2a.6.6 0 0 0-.3.4c0 .2.3.5.5.5s.2-.5.2-.7z"/><path id="N" d="M228.6 154.5c.7-.1 1.2-1.2 1-2-.2-.8-.7-1.1-1.5-1-.9.2-1.3.9-1 1.8 0 .7.8 1.3 1.5 1.2z"/><path id="O" d="M222.5 152.8c.2 0 .6-.2.7-.4s.2-.5.1-.8c0-.1-.4-.3-.7-.3l-1.3.3c-.3 0-.4.3-.3.7l.3.2c.5-.1.8.1 1.2.3z"/><path id="P" d="M226.8 149.7c.3.4.6.8 1.2.5.5-.3.3-.8 0-1.3-.6-.1-1 0-1.2.8z"/><path id="Q" d="M229.3 158.8s-.3-.4-.5-.4-.2.5-.2.7l.4.2c.1-.1.3-.3.3-.5z"/><path id="R" d="M219.5 117.6c1.4.9 3.5.2 4.3-1.4.3-.6.7-.7 1.2-.8.7-.1 1.2-1 1-1.6-.3-.7-.8-.8-1.4-.6l-1.4.2-3-1c-.1-2.3-.8-2.8-3-2.1-1 .3-1.6 1.5-.9 2.4.6.7 1.4 1.2 2.3 2-.2 1-.3 2.2.9 3z"/><path id="S" d="M213.8 119c.1 0 .3-.2.2-.3a.6.6 0 0 0-.4-.3c-.2 0-.5.3-.5.5s.5.2.7.2z"/><linearGradient id="F" x1="329" x2="329" y1="262" y2="400" gradientUnits="userSpaceOnUse"><stop stop-color="#d4dae5"/><stop offset="1" stop-color="#f5f7fa"/></linearGradient><clipPath id="G"><path fill="#fff" d="M0 0h400v400H0z"/></clipPath></defs></svg>