<svg xmlns="http://www.w3.org/2000/svg" width="128" height="129" fill="none"><path fill="#ECF0F6" d="M64 124.5c33.137 0 60-26.863 60-60s-26.863-60-60-60-60 26.863-60 60 26.863 60 60 60"/><path fill="#fff" d="M115.17 50.04c.16-.26-.07-.47-.33-.58s-.66 0-.67.29-.11.69.25.78.63-.29.75-.49M114.1 51.36a.73.73 0 0 0-.22-.57c-.22-.18-.7.06-.73.36.005.169.053.334.14.48.42.16.79.01.81-.27M116.16 48.05a.87.87 0 0 0 1.11-.35 1.32 1.32 0 0 0-.61-1.55.87.87 0 0 0-.92.33 1.32 1.32 0 0 0-1.07-.19 1.256 1.256 0 0 0-.64 1.53 1.23 1.23 0 0 0 1.48.73c.259-.103.485-.276.65-.5M106.14 21.96s.06 0 .1-.07c-.31-.31-.64-.6-.95-.9a.608.608 0 0 0-.05.56.65.65 0 0 0 .356.413.65.65 0 0 0 .544-.003M112.1 48.21c-.14.29.13.78.66 1 .12 0 .39-.1.5-.26a.706.706 0 0 0 .089-.85.72.72 0 0 0-.49-.334.71.71 0 0 0-.759.394zM114.67 45.42a.692.692 0 0 0 .815-.635q0-.106-.045-.205c-.22-.24-.48-.44-.74-.68 0-.81-.27-1.38-.75-1.4a1.21 1.21 0 0 0-.9.53.33.33 0 0 0-.24.13.26.26 0 0 0 0 .23.8.8 0 0 0-.06.23c0 .56.23.73 1.35.84.05.44-.01.89.57.96M112.84 39.34c-.53.23-.71.53-.54.91a.82.82 0 0 0 .753.605.8.8 0 0 0 .337-.055 1.42 1.42 0 0 0 .4-1.24c-.12-.35-.47-.43-.95-.22M110 31.85a.7.7 0 0 0 .32 0q.192.211.33.46a1 1 0 0 0 1.1.61c.49-.08.68-.43.39-1.1-.22-.21-.55-.57-.93-.88a.2.2 0 0 0 0-.07.81.81 0 0 0-.425-.798.8.8 0 0 0-.305-.092c-.51-.11-1.22.22-1.3.6a1.15 1.15 0 0 0 .82 1.27M112.77 30.5a.76.76 0 0 0 .35-.44c-.45-.65-.91-1.29-1.39-1.91a.52.52 0 0 0-.29.12.59.59 0 0 0-.243.401.585.585 0 0 0 .133.45.8.8 0 0 0 .27.2.73.73 0 0 0 .05.55c.35.63.66.85 1.12.63M117.06 37.1a.78.78 0 0 0 .5.87.43.43 0 0 0 .25 0c-.17-.35-.35-.69-.53-1a.24.24 0 0 0-.22.13M120.44 44.1c-.29-.8-.6-1.58-.92-2.36a4 4 0 0 0-.37.21.91.91 0 0 0-.07 1.5q.644.4 1.36.65M116.87 40.81c.124.155.277.284.45.38q.25.173.52.31c.59.31 1 .26 1.32-.16a1.2 1.2 0 0 0 .11-.23c-.22-.52-.46-1-.7-1.54a8.4 8.4 0 0 1-1-1c-.33-.41-1-.66-1.28-.41a.78.78 0 0 0 0 .93c.39.28.2.58.24.9.05.296.167.576.34.82M110.4 28.02c.68.36 1 .37 1.25 0-.28-.38-.57-.74-.87-1.11-.43.28-.39.71-.38 1.11M109 27.21a.66.66 0 0 0 .48-.37 1.1 1.1 0 0 0-.21-.76c-.38-.35-.67 0-1 .25.04.5.18.89.73.88M45.27 18.64a.85.85 0 0 0 .09-1c-.49-.51-1.11-.66-1.43-.34a1.24 1.24 0 0 0 .07 1.41 1.14 1.14 0 0 0 1.27-.07M67.16 5.15c-.32.56-.21.94.37 1.29a.93.93 0 0 0 1.24-.11 1.41 1.41 0 0 0-.47-1.66h-.51a1.13 1.13 0 0 0-.63.48M115.25 53.96c.25-.14.41-.39.23-.64s-.58-.61-.8-.5-.19.55-.17.83a.5.5 0 0 0-.69.34.42.42 0 0 0 .32.6c.21 0 .76.13.84-.15a.6.6 0 0 0-.1-.41.53.53 0 0 0 .37-.07M61.37 11.31c-.11.1-.2.61-.06.73s.67 0 .71-.13.12-.61 0-.69a.68.68 0 0 0-.65.09M64.57 5.09a1.1 1.1 0 0 0-.12-.27.8.8 0 0 0 .19-.3L64 4.5h-.42v.1a.3.3 0 0 0-.08.07 7 7 0 0 0-.36.94c-.77.26-1.19.74-1 1.21a1.33 1.33 0 0 0 1.43.68c.54-.17.61-.48.3-1.56.41-.18.85-.29.7-.85M71.25 7.59c.32-.08.69-.06.88-.35s.76-1.11.42-1.66-.73-.12-1.09-.17a.87.87 0 0 0-.83.37 1.2 1.2 0 0 0-.64.33 1.07 1.07 0 0 0 .01 1.3.42.42 0 0 1-.33-.11c-.27-.25-.86-.25-1.33.35s-.16 1.53.4 1.56.71-.27.85-.13.27.6.64.59.77-1.06.77-1.24-.21-.5-.06-.7q.165-.05.31-.14M82.05 7.5a1.19 1.19 0 0 0-1.26.23 1.23 1.23 0 0 0 .43 1.3.56.56 0 0 0 .78-.18c.42-.59.43-1.13.05-1.35M72.9 7.5c-.16.24 0 .57.1.79s.54.14.71-.09.14-.59-.1-.7-.54-.21-.71 0M62.08 14.23a.91.91 0 0 0 1.11 0 1.52 1.52 0 0 0 .1-1.52 1.12 1.12 0 0 0-1.4.27c-.36.36-.29.82.19 1.25M44.15 13.56a1.48 1.48 0 0 0-1.58 0 1 1 0 0 0 0 1.35 1.11 1.11 0 0 0 1.41.08 1.08 1.08 0 0 0 .17-1.43M82.52 9.61a.704.704 0 0 0 .75-1.19.77.77 0 0 0-1 .29.68.68 0 0 0 .25.9M117.27 43.16a1.002 1.002 0 0 0 .51-1.15.84.84 0 0 0-.9-.51c-.63.22-1 .71-.86 1.12a1.1 1.1 0 0 0 1.25.54M60.88 8.77a.86.86 0 0 0-.25-1.27 1.06 1.06 0 0 0-1.58.32 1.13 1.13 0 0 0 .2 1.49.94.94 0 0 0 .87.06.5.5 0 0 0 .5-.17 1.1 1.1 0 0 0 .26-.43M59.47 10.13a.68.68 0 0 0-.58.66.5.5 0 0 0 .36.59c.49.16.74-.13 1-.51-.19-.37-.25-.82-.78-.74M57.16 4.9a1.5 1.5 0 0 0-.16.5.74.74 0 0 0-.17-.3l-.16-.14-1 .14c.154.202.263.433.32.68a.68.68 0 0 0 .58.23.72.72 0 0 0 .43-.35.69.69 0 0 0 .26.62.79.79 0 0 0 .86-.36c.12-.47.46-.4.75-.55a1 1 0 0 0 .28-.23 1.12 1.12 0 0 0 1.13 0 .65.65 0 0 0 .12-.47c.38.31.82.39 1.08.15a.64.64 0 0 0 .19-.29c-1.52.09-3.03.2-4.51.37M45.26 9.75a1 1 0 0 0-1.6.06 1 1 0 0 0-.12 1.59 1.17 1.17 0 0 0 1.77-.07 1.2 1.2 0 0 0-.05-1.58M116.78 49.5c-.12.06-.17.4-.12.58a.32.32 0 0 0 .53.2c.16-.14.56-.51.45-.73s-.64-.16-.86-.05M93.39 17.03a.42.42 0 0 0 .69-.17 2.1 2.1 0 0 0 0-.62.64.64 0 0 0-.91.24c-.17.27.02.42.22.55M92.83 13.12a.72.72 0 0 0 .57-.24.51.51 0 0 0 0-.52c-.23-.35-.57-.32-.94-.09.01.34-.07.73.37.85M90.68 23.22a.64.64 0 0 0 .63-.61c0-.53-.61-.88-.82-.88a.94.94 0 0 0-.57 1.05.65.65 0 0 0 .76.44M67.63 6.98a.65.65 0 0 0-.92-.18 1.1 1.1 0 0 0-.14 1.36.75.75 0 0 0 1 .08.94.94 0 0 0 .06-1.26M88.52 14.5a1.25 1.25 0 0 0 1.48-.76 1.61 1.61 0 0 0-1-1.62 1.27 1.27 0 0 0-1.33 1 1.23 1.23 0 0 0 .85 1.38M88.07 10.02a.82.82 0 0 0 .31 1.3 1 1 0 0 0 1.07.07.66.66 0 0 0 .84 0 .55.55 0 0 0 .21-.35 4 4 0 0 0-.12-.45q-1-.47-1.95-.9a1.1 1.1 0 0 0-.36.33M95.1 18.5a.84.84 0 0 0 1-.72.55.55 0 0 0-.45-.64.7.7 0 0 0-.939.58.78.78 0 0 0 .389.78M91.23 11.69a.61.61 0 0 0 .84-.13v-.07c-.39-.21-.79-.41-1.19-.61a.68.68 0 0 0 .35.81M103 19.93a.76.76 0 0 0 0 .68.4.4 0 0 0 .075.18.38.38 0 0 0 .342.153.4.4 0 0 0 .183-.062c.26-.15.48-.33.37-.68s-.84-.43-.97-.27M103.19 24.33a1 1 0 0 0 .9-.54.89.89 0 0 0-.62-.83.66.66 0 0 0-.8.58.73.73 0 0 0 .52.79"/><path fill="#fff" d="M104.45 20.61a.8.8 0 0 0 .39-.05l-1.07-1a1.19 1.19 0 0 0 .68 1.05M67.18 10.5a.19.19 0 0 0 0-.23.2.2 0 0 0-.28 0 .2.2 0 0 0 0 .27c.1.05.24.01.28-.04M97.62 14.8c-.87-.59-1.75-1.15-2.65-1.69q.083.095.15.2a1.57 1.57 0 0 0 0 1.75 1.65 1.65 0 0 0 2.45-.22zM96.55 23.27a.94.94 0 0 0 1-.92c.06-.46-.26-.76-.88-.85s-.9.15-.93.53a1.69 1.69 0 0 0 .81 1.24M91.9 14.82a1.8 1.8 0 0 0 0-.61.64.64 0 0 0-.91.23c-.14.28 0 .43.22.56a.44.44 0 0 0 .69-.18M65.93 10.44a.69.69 0 0 0 .92-.2.63.63 0 0 0-.23-.83.57.57 0 0 0-.84.12.63.63 0 0 0 .15.91M118.48 55.5a1 1 0 0 0 1.21-.12c.36-.6-.13-1.15-.4-1.42s-1 .17-1.17.75a.647.647 0 0 0 .36.79M121.49 51.92a.79.79 0 0 0 .23-1.05 2.2 2.2 0 0 0-.75-.12c-.36.07-.49.58-.3 1a.585.585 0 0 0 .82.17M119.84 45.5c-.26.47.12 1.25.76 1.56a.88.88 0 0 0 .82 0c-.21-.69-.44-1.37-.68-2.05a1.09 1.09 0 0 0-.9.49M116.48 53.1a1.07 1.07 0 0 0 1.15-.56.83.83 0 0 0-.3-.92c-.59-.28-1.21-.18-1.38.22a1.19 1.19 0 0 0 .53 1.26M118.5 45.17a.73.73 0 0 0 .37-.51.55.55 0 0 0-.24-.46c-.38-.18-.65 0-.85.41.15.3.29.67.72.56M117.56 56.73a.72.72 0 0 0 .43-.84.71.71 0 0 0-.8-.36.83.83 0 0 0-.43.86.65.65 0 0 0 .8.34M120.58 49.81a1.49 1.49 0 0 0-.59-1.74l-.17-.07a.64.64 0 0 0-.84-.24 1.17 1.17 0 0 0-.65 1v.05a1.1 1.1 0 0 0 .45 1.48 1.44 1.44 0 0 0 1.8-.48M64.56 7.56a.64.64 0 0 0 .91-.18.58.58 0 0 0-.26-.81.67.67 0 0 0-.9.26.51.51 0 0 0 .25.73M122.53 51.34c-.06-.29-.13-.58-.2-.87v.05a.646.646 0 0 0 .2.82M55 5.22l-.89.15c.305.056.62.003.89-.15M67 4.81q.09-.103.16-.22c-.65 0-1.31 0-2-.06a.8.8 0 0 0 .14.24 1.27 1.27 0 0 0 1.7.04M54.21 6.6a.74.74 0 0 0-.14-.93c-.27-.17-.91-.09-1 .13a.92.92 0 0 0 .28 1.08.66.66 0 0 0 .86-.28M123.9 61.15a1.2 1.2 0 0 0 0 .59zM96.52 36.22a.59.59 0 0 0-.27.53c0 .14.39.49.56.43s.25-.52.2-.62-.35-.37-.49-.34M79.58 18.17q.255-.406.44-.85a1.31 1.31 0 0 0-.61-1.4.53.53 0 0 0-.72.07 3.76 3.76 0 0 0-.91 2q.006.175.06.34a.83.83 0 0 0 1.23.46.5.5 0 0 0 .32-.17.6.6 0 0 0 .19-.45M79 22.74c.3-.26 0-1.11-.27-1.14s-.81.72-.57 1a.65.65 0 0 0 .84.14M78.62 19.72c-.05-.18-.41-.16-.49-.11a.44.44 0 0 0-.2.41c0 .15.3.18.43.15s.32-.28.26-.45M87.93 33.06c0 .07.13.29.19.29s.33-.1.37-.21a.37.37 0 0 0-.2-.47c-.29-.08-.29.26-.36.39M89.6 31.27a.34.34 0 0 0 .27.39.36.36 0 0 0 .46-.35.37.37 0 0 0-.33-.41.41.41 0 0 0-.4.37M90.7 26.5c.07-.47-.12-.76-.53-.82-.58-.09-1.24.29-1.29.74s.43.86.9.91a.91.91 0 0 0 .92-.83M84 8.68c0 .07 0 .18.13.19a.18.18 0 0 0 .22-.16c0-.13-.12-.19-.18-.2s-.17.12-.17.17M60.08 18.31a.38.38 0 0 0-.12.5c.15.22.41 0 .52-.09a.35.35 0 0 0 0-.34.52.52 0 0 0-.4-.07M61.21 13.36a.9.9 0 0 0-.16-1.22 1.34 1.34 0 0 0-1.63.39 1 1 0 0 0 1.79.83M59 15.5a1.19 1.19 0 0 0-1.75.11 1.08 1.08 0 0 0-.06 1.6 1.36 1.36 0 0 0 1.8.05A1.43 1.43 0 0 0 59 15.5M73.58 15.1c-.44-.85-1.22-.24-1.3-.87s.53-.42.37-1.3-1-1.25-1.48-.82-.28 1-.41 1-.79.2-.7.69c-.12-.06-.26-.09-.33 0s0 .45.06.53a.39.39 0 0 0 .45.05.3.3 0 0 0 0-.08c.34.39.9.19 1 .41s.08.95.28 1.39c.27.62.87 1 1.49.66a1.16 1.16 0 0 0 .57-1.66M72.17 21.86c-.08.12-.17.39 0 .53a.4.4 0 0 0 .52-.1c.09-.1.27-.45 0-.65s-.45.1-.52.22M69 12.06a1 1 0 0 0 0-1.21c-.54-.44-1.15 0-1.45.19s0 1 .57 1.26a.63.63 0 0 0 .88-.24M68.08 19.3v.25a.24.24 0 0 0 .19 0c0-.09.08-.21 0-.27s-.1.01-.19.02M89.12 16.95q.045-.072.08-.15c.24-.05.63-.16.65-.38s-.52-.46-.72-.48a.16.16 0 0 0-.1 0 1.38 1.38 0 0 0-1.35.1.89.89 0 0 0 .32 1.31c.3.24.78.08 1.12-.4M115.11 85.5c.08-.16-.17-.36-.28-.43a.36.36 0 0 0-.36.12c0 .11.09.31.19.4s.34.12.45-.09M94.57 32.35c0 .26 0 .58.36.57s.54-.21.57-.37-.18-.45-.25-.61c-.49-.07-.64.16-.68.41M116.16 66.41c.1-.28.08-.55-.18-.69a3.7 3.7 0 0 0-2.09-.63.9.9 0 0 0-.33.12.83.83 0 0 0 0 1.51c.41.222.847.39 1.3.5a1.32 1.32 0 0 0 1.3-.81M115.21 80.23a.38.38 0 0 0-.15-.41c-.1-.07-.47-.09-.54.05s.15.43.25.47a.38.38 0 0 0 .44-.11M120.72 71.11a1.37 1.37 0 0 0 .38-1.27 1.17 1.17 0 0 0-.91-.93h-.12c.266-.099.484-.296.61-.55.16-.38-.09-.81-.63-1.06a.94.94 0 0 0-1.15.25 1.22 1.22 0 0 0 .41 1.39q.085.045.18.06a1.2 1.2 0 0 0-.41.38 2.05 2.05 0 0 0-.31 1.4.93.93 0 0 1-.12.52.85.85 0 0 0 .37 1.37.4.4 0 0 0-.15.2c-.1.28.14.66.5.82a.78.78 0 0 0 1-.31.66.66 0 0 0-.37-.88c.145-.165.245-.365.29-.58.033-.316.188-.606.43-.81M123.71 68.24a.69.69 0 0 0-.87.35.72.72 0 0 0 .37.93.7.7 0 0 0 .57 0c0-.39.06-.77.08-1.16zM122 77.5a.61.61 0 0 0 .26.81h.08c.11-.42.21-.85.3-1.28a.69.69 0 0 0-.64.47M114.87 74.03c-.11-.37-.4-.44-1.12-.31-.08.37-.31.76.15 1a.6.6 0 0 0 .85-.13.79.79 0 0 0 .12-.56M104.15 28.03a1 1 0 0 0 1.18-1 1.8 1.8 0 0 0 0-.61c.28.066.573.045.84-.06a.76.76 0 0 0 .37-.76 1.43 1.43 0 0 0 1.33-1 1.181 1.181 0 0 0-.87-1.4 1.89 1.89 0 0 0-1.61 1.13.83.83 0 0 0 .09.55h-.06a1.28 1.28 0 0 0-.59.84 1.6 1.6 0 0 0-.55-.17 1.28 1.28 0 0 0-1.39 1.14c-.07.55.58 1.23 1.26 1.34M97.7 29.69c1 .19 1 .12 1-.72-.42-.3-.76-.18-1.06.22-1.12-.49-1.65 0-1.53 1.27a1 1 0 0 1-.21.14c-.33.13-.37.4-.33.71s.22.43.5.53c.67.22 1 .07 1.14-.62.18-.51.34-1.03.49-1.53M96.1 25.03a1 1 0 0 0-.84-1.17A1.32 1.32 0 0 0 93.85 25a1.33 1.33 0 0 0 1 1.22c.65.08 1.15-.41 1.25-1.19M103.12 32.87c-.09-.22-.5-.28-.84-.13a.378.378 0 0 0-.22.56c.14.27.34.47.69.35a.69.69 0 0 0 .37-.78M102.37 51.65c-.08 0-.3.22-.24.39s.39.12.51.08a.32.32 0 0 0 .13-.146.32.32 0 0 0 .02-.194c-.05-.11-.29-.14-.42-.13M102.61 30.07a1.14 1.14 0 0 0-1.192.62 1.15 1.15 0 0 0-.118.46 1.153 1.153 0 0 0 1 1.15c.56.07 1.11-.51 1.19-1.24a.877.877 0 0 0-.88-.99M57.1 20.42c-.17.16-.08.57.19.83a.36.36 0 0 0 .59 0c.2-.23.32-.49.08-.77a.68.68 0 0 0-.86-.06M116.81 59.12c.61-.16.5.46 1.34.17s1.1-1.18.6-1.57-1-.15-1.07-.27-.31-.76-.78-.59c-1 .36-.44 1.17-.71 1.36s-.92.22-1.33.48c-.57.36-.89 1-.44 1.57q.149.188.35.32.096.109.23.17c.3.16.8.65 1.21.39s.12-.6.15-.82c.4-.52-.08-1.07.45-1.21M33.62 14.98c.33.14.92-.45.8-.71s-.9-.36-1.05 0a.61.61 0 0 0 .25.71M111.89 65.5c-.14.06-.14.33-.09.45s.32.28.49.2.09-.43 0-.51a.43.43 0 0 0-.4-.14M112.79 62.77a1.06 1.06 0 0 0-.21-.74c-.17-.19-.67 0-.74.32-.002.185.032.368.1.54.44.22.82.15.85-.12M25.33 18.66c-.13.22-.36.81-.2 1s.76-.13.78-.22c.08-.28.24-.63 0-.88s-.51-.06-.58.1M123 59.67a.42.42 0 0 0 .392.09.42.42 0 0 0 .288-.28c.06-.2.15-.58-.11-.7a.35.35 0 0 0-.2-.05.89.89 0 0 0 .21-.91l.09.08c-.06-.59-.14-1.18-.22-1.76a.37.37 0 0 1-.181-.251.37.37 0 0 1 .081-.299v-.07c0-.28-.1-.56-.14-.85a1.7 1.7 0 0 0-.42-.36 1.17 1.17 0 0 0-.68-.13.3.3 0 0 0 0-.09 1 1 0 0 0-1.16-.33 1.004 1.004 0 0 0 .06 1.19.6.6 0 0 0 .35.15c.1.4.33.52.22.66s-.56.35-.49.71 1.15.62 1.33.57.6-.38.8 0q.113.199.17.42a.59.59 0 0 0-.7-.15c-.55.23-.92.89-.73 1.3a.91.91 0 0 0 .87.41c-.28.12-.13.48.17.65M118.92 64.3a1.31 1.31 0 0 0-.58-1.49 1 1 0 0 0-1 .61.8.8 0 0 0-.092.354.848.848 0 0 0 .602.835c.46.2.93.08 1.07-.31M117.57 80.11c-.29-.1-.42.08-.52.3a.433.433 0 0 0 .28.66q.311 0 .61-.09a.65.65 0 0 0-.37-.87M85.09 10.73a.93.93 0 0 0 .74 1 .63.63 0 0 0 .83-.42 1.08 1.08 0 0 0-.72-1.16.75.75 0 0 0-.85.58M91.34 19.84a.59.59 0 0 0 .59.61.78.78 0 0 0 .73-.78c-.14-.12-.33-.4-.58-.49s-.71.25-.74.66M85.54 8.5l-.8-.32c.225.19.506.302.8.32M91.91 15.59a1.13 1.13 0 0 0-1.19.78 1.2 1.2 0 0 0 .88 1.13c.37.06.83-.38.9-.87s-.11-.96-.59-1.04M100.24 24.4a1.119 1.119 0 0 0 .74 1.22c.35.05 1-.66 1-1.1a.898.898 0 0 0-1.444-.656.9.9 0 0 0-.336.536zM101.68 28.5c-.13.07-.37.22-.29.36a.44.44 0 0 0 .42.19c.11 0 .4-.29.32-.43a.44.44 0 0 0-.45-.12M46.4 14.55a.61.61 0 0 0 .12.9c.25.18.52.39.75.17.39-.42.43-.83.19-1.08a.7.7 0 0 0-1.06.01M44.46 8.77a1.41 1.41 0 0 0 2-.08 1.32 1.32 0 0 0 .22-1.65c-.86.26-1.72.54-2.56.84a1.06 1.06 0 0 0 .34.89M34.32 23.81a.71.71 0 0 0 0 1 .66.66 0 0 0 1 0 .7.7 0 0 0 0-.93.67.67 0 0 0-1-.07M53.51 22.89a.43.43 0 0 0 .05.46c.11.09.34.26.45.14a.45.45 0 0 0 0-.46c-.01-.09-.39-.27-.5-.14M49.94 19.95a.78.78 0 0 0-1 .07.92.92 0 0 0-.08 1.19 1.2 1.2 0 0 0 1.37.09c.22-.25.07-.98-.29-1.35M49.19 27.8a.48.48 0 0 0 .05.52.45.45 0 0 0 .42 0 .4.4 0 0 0 0-.41c-.04-.08-.34-.27-.47-.11M47.71 11.5a1.06 1.06 0 0 0-1.28 0 .94.94 0 0 0 .14 1.17.57.57 0 0 0 .84-.11c.42-.47.53-.85.3-1.06M37.75 14.14a.88.88 0 0 0-1.31.06 1.05 1.05 0 0 0-.15 1.3 1.27 1.27 0 0 0 1.44 0 .87.87 0 0 0 .02-1.36M35.71 11.64c.46.52 1 .39 1.49.1.22.31.32.76.84.58a.6.6 0 0 0 .44-.66c0-.54-.49-.54-.9-.57 0-.15 0-.29-.08-.43l-1.83.94s.02.03.04.04M54 12.35c-.26-.42-.65-.47-1.17 0q-.295.64-.52 1.31-.036.115-.024.238a.59.59 0 0 0 .444.512.62.62 0 0 0 .79-.36c.08-.18.187-.346.32-.49a1 1 0 0 0 .16-1.21M35.48 16.92a.83.83 0 0 0-1.48-.06c-.244.395-.43.823-.55 1.27a1.29 1.29 0 0 0 .71 1.37c.28.12 1 .14 1.05-.47-.35-1 .39-1 .37-1.74a1 1 0 0 0-.1-.37M38.52 19.38a.47.47 0 0 0 0-.74.65.65 0 0 0-.59.07c-.13.11-.32.54-.19.7s.62.09.78-.03M40.81 18.08c-.32-.33-.78-.27-1.21.16a.71.71 0 0 0-.14 1 1.4 1.4 0 0 0 1.44.13.85.85 0 0 0-.09-1.29M31.45 20.44a.19.19 0 0 0 0 .26c0 .05.2 0 .24 0a.18.18 0 1 0-.27-.23zM82.64 15.83a.67.67 0 0 0-.21 1.1.94.94 0 0 0 .77.17.75.75 0 0 0 .39-.57.77.77 0 0 0-.95-.7M81.53 20.69c.19 0 .23-.67.14-1.07q.054.09.13.16s.31-.09.31-.16 0-.4-.16-.48-.36.2-.36.26l-.06-.08c-.23-.18-.75.21-.83.71s.58.71.83.66"/><path fill="#fff" d="M98.57 28.82a.48.48 0 0 0 .21-.37c0-.09-.31-.34-.41-.3s-.14.39-.11.52.26.19.31.15M85.22 16a.653.653 0 0 0-.92.11.68.68 0 0 0 .13.93.75.75 0 0 0 1-.14.65.65 0 0 0-.21-.9M93.61 21.99a.684.684 0 0 0 .14-1.36.75.75 0 0 0-.71.63.66.66 0 0 0 .57.73M98.48 33.62a.66.66 0 0 0 .38-.77.65.65 0 0 0-.86-.35.53.53 0 0 0-.36.75.63.63 0 0 0 .84.37M93 18.84a.36.36 0 0 0-.43.09c-.08.08-.16.44 0 .53s.45-.08.51-.18 0-.35-.08-.44M92.51 25.23a1.85 1.85 0 0 0-.4-1.92 1.25 1.25 0 0 0-1.66.46 1.39 1.39 0 0 0 .36 1.7 1.26 1.26 0 0 0 1.7-.24M87.36 19.35a.62.62 0 0 0 0-.87.83.83 0 0 0-.59-.2c-.38 0-.49.34-.46 1.06.34.16.69.43 1.05.01M92.4 31.28c.11 0 .49 0 .49-.21s-.23-.33-.32-.33-.42 0-.43.16a.47.47 0 0 0 .26.38M75.45 16.83a.47.47 0 0 0-.72.21.83.83 0 0 0 0 .66c.11.15.73.21.89 0a.61.61 0 0 0-.17-.87M74.13 9.5a.84.84 0 0 0-1.13.1 1.06 1.06 0 0 0 .12 1.29 1.16 1.16 0 0 0 1.48-.26c.15-.29-.07-.83-.47-1.13M74.77 19.61c.18.042.369.042.55 0 .28-.4.26-.79 0-.86a1 1 0 0 0-.76.1c-.22.12-.08.65.21.76M99.28 27.04c.06-.4-.47-.55-.69-.67s-.54.11-.6.45.09.61.43.58.8.04.86-.36M74.32 23.86c.24-.55-.53-1-.79-.87s-.45.86-.18 1.07.73.36.97-.2M70.34 17.86c.22-.3 0-1-.42-1.28a.8.8 0 0 0-1.15.14 1.08 1.08 0 0 0 .16 1.41 1.14 1.14 0 0 0 1.41-.27M70.15 26.27a.44.44 0 0 0 .42-.09.36.36 0 0 0-.09-.51c-.25-.14-.4.12-.46.22a.38.38 0 0 0 .13.38M75.31 14.34c.14-.12 0-.4-.11-.5a.33.33 0 0 0-.37 0c-.09.08 0 .32 0 .44s.34.22.48.06M76.61 14.36a.84.84 0 0 0 1.25-.33c.27-.47.22-.95-.14-1.15a1.32 1.32 0 0 0-1.56.37 1 1 0 0 0 .45 1.11M80.13 6.88a.65.65 0 0 0 .54.17.8.8 0 0 0 .31-.1c-1-.3-2-.56-3.06-.81a1 1 0 0 0 .3 1.36c.337.226.75.313 1.15.24a.3.3 0 0 0 .14.08c.11 0 .46 0 .49-.2a.26.26 0 0 0-.1-.2 1 1 0 0 0 .1-.05 1.1 1.1 0 0 0 .13-.49M82.33 13.16a.6.6 0 0 0 .09-.17 1 1 0 0 0 .22.35 1.3 1.3 0 0 0-.11.46.892.892 0 0 0 .86 1.07 1 1 0 0 0 1-.8q.07.033.13.08a.85.85 0 0 0 1.48-.17.5.5 0 0 0 .18.18.77.77 0 0 0 .88-.38.79.79 0 0 0-.16-1.09.64.64 0 0 0-.89.28 1.23 1.23 0 0 0-.54-.37 1.27 1.27 0 0 1-.74-.53 1.36 1.36 0 0 0-1.2-.55 1.19 1.19 0 0 0-1.06.76v.12a1.08 1.08 0 0 0-.46-.68c-.35-.22-.81 0-1.13.47a.93.93 0 0 0 .08 1.17 1.21 1.21 0 0 0 1.37-.2M85.52 19.01c.29 0 .56-.13.53-.43s-.18-.83-.42-.85-.53.5-.62.72.21.55.51.56M76 10.75c0-.13-.18-.28-.3-.33s-.37 0-.4.21.27.3.39.33a.34.34 0 0 0 .31-.21M77.31 10.58a1.42 1.42 0 0 0 1.83-.08 1.47 1.47 0 0 0-.38-1.8 1.37 1.37 0 0 0-1.68.44 1.07 1.07 0 0 0 .23 1.44M76.56 7.08q.096-.159.13-.34c.48.16.74-.13 1-.52l-.07-.15c-1-.23-1.93-.43-2.91-.6a.9.9 0 0 0-.24.23 1.09 1.09 0 0 0 .41 1.62 1.1 1.1 0 0 0 1.68-.24M116.05 72.5a.7.7 0 0 0 .62-1.24.68.68 0 0 0-.9.26.76.76 0 0 0 .28.98M67.79 18.72a.39.39 0 0 0-.66 0c-.13.17-.33.68-.2.81s.64 0 .85-.08.22-.45.01-.73M116.15 70.64a.77.77 0 0 0 .56-1 .67.67 0 0 0-.878-.222.7.7 0 0 0-.242.222.88.88 0 0 0-.06.78.73.73 0 0 0 .62.22M116.53 76.17a.64.64 0 0 0 1-.24 1.4 1.4 0 0 0-.29-1.32.89.89 0 0 0-1.22.47c-.25.42-.02.82.51 1.09M111.26 55.91c0-.08 0-.14-.07-.23s-.19 0-.24.08a.28.28 0 0 0 0 .19c.13.01.26.04.31-.04M113.09 69.01c.14-.26-.32-.71-.83-.72s-.6.66-.52.9 1.26.07 1.35-.18M117.74 86.65c.36-.16.26-.06.59.17a.669.669 0 0 0 1.13-.33 1.326 1.326 0 0 0-.91-1.52 1.55 1.55 0 0 0-1.77 1.13c-.08.54.61.72.96.55M111.74 50.09a1.1 1.1 0 0 0-1.38-.39 1.02 1.02 0 0 0-.499.596 1 1 0 0 0 .069.774 1.02 1.02 0 0 0 .596.499 1.01 1.01 0 0 0 .774-.07 1.053 1.053 0 0 0 .44-1.41M98.83 23.24c.11 0 .4-.25.3-.42a.48.48 0 0 0-.5-.15.42.42 0 0 0-.16.39.4.4 0 0 0 .36.18M110.24 71.35a1 1 0 0 0-1.33.4 1.496 1.496 0 0 0 .52 1.82 1.12 1.12 0 0 0 1.4-.56 1.201 1.201 0 0 0-.59-1.66M122 74.63c-.22.5-.1 1.07.26 1.22a1 1 0 0 0 .67 0c.11-.55.21-1.1.3-1.66a.82.82 0 0 0-1.039.118.8.8 0 0 0-.191.322M106.72 74.5a.52.52 0 0 0-.43-.26.54.54 0 0 0-.31.4c0 .11.23.43.42.43s.35-.45.32-.57M120.84 82.29c-.08.37-.2.73-.31 1.09a.54.54 0 0 0-.159.468.533.533 0 0 0 .289.401c.28-.81.55-1.63.8-2.47a.6.6 0 0 0-.62.51M121.52 65.36a1.45 1.45 0 0 0 1.72-.62 1.37 1.37 0 0 0-.68-1.61 1.08 1.08 0 0 0-1.42.44 1.41 1.41 0 0 0 .38 1.79M64.22 15.8a.78.78 0 0 0-.6.14c-.21.19 0 .71.25.78.17.017.341-.007.5-.07.22-.4.13-.79-.15-.85M119.27 77.65c-.29-.1-.42.09-.52.3a.45.45 0 0 0-.037.41.45.45 0 0 0 .317.26c.208.002.414-.032.61-.1a.65.65 0 0 0-.37-.87M100.8 43.44a.376.376 0 0 0 .308-.433.4.4 0 0 0-.078-.177c-.11-.19-.51-.56-.68-.49s-.25.6-.23.82.33.39.68.28M108.82 80.71a1.84 1.84 0 0 0 1.84-.67 1.26 1.26 0 0 0-.66-1.54 1.41 1.41 0 0 0-1.64.6 1.26 1.26 0 0 0 .46 1.61M103.78 36.79a.48.48 0 0 0 .21-.37.36.36 0 0 0-.41-.3c-.26.06-.14.39-.12.52a.42.42 0 0 0 .32.15M100 35.66a.77.77 0 0 0 .55-.31c.23-.46 0-.76-.51-1-.35.22-.76.35-.67.84a.57.57 0 0 0 .63.47M100.15 20.81a1.2 1.2 0 0 0-.18-.62.59.59 0 0 0 .64-.5.68.68 0 0 0-.216-.588.68.68 0 0 0-.604-.162c-.45.07-.61-.2-.89-.46q.136-.163.25-.34a.5.5 0 0 0 .21-.06q.01.106.06.2a.73.73 0 0 0 .79.33c.31-.12.31-.66.25-.94a1.17 1.17 0 0 0-.83-.59c0-.17.06-.16.29-.39l.08-.19c-.43-.32-.87-.63-1.31-.94a1.9 1.9 0 0 0-.62.61.9.9 0 0 0-.09.38c-.33 0-.52.22-.6.66a1 1 0 0 0 .62 1.35q-.332.148-.69.21a.63.63 0 0 0-.68.53.92.92 0 0 0 .26 1c1.09.82 1.49.8 2.45-.14l.09-.06a1.5 1.5 0 0 0-.28.45.42.42 0 0 0 .31.6.51.51 0 0 0 .69-.34M104.36 47.5c.11 0 .38-.28.32-.43s-.42-.18-.52-.13a.39.39 0 0 0-.21.4c.05.16.3.16.41.16M99.54 27.17a.19.19 0 0 0 .1-.26.21.21 0 0 0-.26-.07c-.06 0-.08.19 0 .23s.07.14.16.1M101.34 27.71a1.07 1.07 0 0 0 .43-1.05.678.678 0 0 0-1.103-.11.62.62 0 0 0-.142.485q.017.132.085.245c.18.4.47.57.73.43M108.05 41.5a1.126 1.126 0 0 0 .26-1.41c-.22-.46-.67-.56-1.25-.27a.894.894 0 0 0-.39 1c.17.36 1.08.79 1.38.68M107.57 62.5c.58.16.92-.66.75-.91s-.91-.32-1.09 0-.23.76.34.91M104.74 59.13a.36.36 0 0 0 .412-.043.4.4 0 0 0 .088-.117c.09-.27-.18-.38-.3-.43a.39.39 0 0 0-.35.19.44.44 0 0 0 .15.4M106.85 43.9c-.14-.19-.57-.59-.81-.49s-.14.72-.07.94.34.35.63.18.4-.38.25-.63M106 37.24c.1-.4-.32-.85-.91-1a.75.75 0 0 0-.79.53.93.93 0 0 0 .56 1.05 1.09 1.09 0 0 0 1.14-.58M105.77 67.75a.65.65 0 0 0 .56-.18.42.42 0 0 0 .074-.366.42.42 0 0 0-.254-.274c-.17-.07-.65-.15-.8.21s.27.56.42.61M110.05 40.17c-.07-.14-.5-.41-.66-.32s-.22.64-.15.7.53.34.66.23a.68.68 0 0 0 .15-.61M114.69 62.62a.47.47 0 0 0 .013-.417.47.47 0 0 0-.323-.263.83.83 0 0 0-.64.13.74.74 0 0 0 .16.88.61.61 0 0 0 .79-.33M119.58 62.07a.68.68 0 0 0 .37-.79.567.567 0 0 0-.75-.38.66.66 0 0 0-.264 1 .56.56 0 0 0 .644.17M120.77 52.83a.568.568 0 0 0-.24-.82.63.63 0 0 0-.725.075.6.6 0 0 0-.155.205.693.693 0 0 0 .33.88.63.63 0 0 0 .79-.34M114.15 57.11a.8.8 0 0 0 .085-.619.8.8 0 0 0-.385-.491 1.15 1.15 0 0 0-1.24.19c-.06-.13-.17-.32-.36-.28s-.21.36-.17.41a.56.56 0 0 0 .36.21 1.15 1.15 0 0 0 .5 1.19c.33.17.98-.16 1.21-.61M111.83 38.83a.679.679 0 0 0-.39-.78.5.5 0 0 0-.69.12c-.32.39-.15.74.11 1.13.43-.05.87.02.97-.47M111.53 42.76c-.09-.06-.46-.09-.53.06s.15.43.25.47a.37.37 0 0 0 .43-.11c.08-.15-.05-.35-.15-.42M111.79 47.58c.41-.15.6-.46.5-.79a1.09 1.09 0 0 0-1.21-.63.75.75 0 0 0-.45.92.94.94 0 0 0 1.16.5M120.71 60.87c.3.13.81-.16 1-.59a.84.84 0 0 0-.25-1.14 1.06 1.06 0 0 0-1.26.3 1.166 1.166 0 0 0 .51 1.43M40.92 12.99a.89.89 0 0 0 .15-1.17.74.74 0 0 0-1-.11 1 1 0 0 0 0 1.28.57.57 0 0 0 .85 0M29.48 15.5a.1.1 0 0 0 0-.05l-.26.19a.6.6 0 0 0 .26-.14M110.26 36.57a1.25 1.25 0 0 0 1.43-.51 1 1 0 0 0 .76-.43 5 5 0 0 0 .37-.79c.13 0 .28 0 .41-.08l.23-.11q.21.029.42 0a.72.72 0 0 0-.18.48c0 .38-.84.21-.83.74s-.58.76-.49 1.4.59 1.2 1.1.93c.43-.266.755-.672.92-1.15a.553.553 0 0 0 .734-.075.55.55 0 0 0 .126-.235.562.562 0 0 0-.58-.59c.49-.12 1.42-.5 1.09-1.35a1.14 1.14 0 0 0-1.22-.58 1.26 1.26 0 0 0 0-1.12 1.13 1.13 0 0 0-.85-.55 1.6 1.6 0 0 0-.29-.22.75.75 0 0 0-.57-.07 1.19 1.19 0 0 0-.86 1.46c0 .14.05.28.08.43q-.394.05-.78.14h-.08c-.4-.12-1 .23-1.32.71a1.17 1.17 0 0 0 .38 1.57M41.39 16.13a.66.66 0 0 0-.92.12.55.55 0 0 0 .05.83.71.71 0 0 0 .94 0 .68.68 0 0 0-.07-.95M31 25.22a.59.59 0 0 0 .12-.88.53.53 0 0 0-.51-.1.68.68 0 0 0-.37.48c-.02.43.5.57.76.5M123.53 68q.169.078.35.12c0-.48.05-1 .07-1.45a1.3 1.3 0 0 0-.68.55.547.547 0 0 0 .26.78M30.21 19a.93.93 0 0 0-.21-1.24.87.87 0 0 0-1.31 0 .86.86 0 0 0-.12 1.23 1.28 1.28 0 0 0 1.64.01M110.44 66.56c0-.29-.83-.7-1.09-.42a.67.67 0 0 0 0 .86c.3.25 1.1-.15 1.09-.44M108.64 28.93a1.09 1.09 0 0 0-.28-.86.6.6 0 0 0 .29-.6c0-.45-.43-.54-.84-.66-.27.31-.64.6-.34 1a.4.4 0 0 0 .09.11 1.53 1.53 0 0 0-.66 1 .64.64 0 0 0 .173.472.65.65 0 0 0 .457.208c.58.08 1.08-.23 1.11-.67M109.07 34.44a.72.72 0 0 0 .46-.41c.1-.45-.28-.56-.61-.67-.35.22-.55.49-.34.86a.57.57 0 0 0 .49.22M108.34 32.31a.3.3 0 0 0 .062-.128.316.316 0 0 0-.182-.352.72.72 0 0 0-.56.11c-.17.08-.36.13-.45.31s.13.43.42.42a1 1 0 0 0 .71-.36M105.64 29.02c-.17.15-.36.31-.34.52s.6.47.89.31.22-.37.13-.58a.442.442 0 0 0-.68-.25M107 36.43c.61-.21.83-.91.54-1.67a1.06 1.06 0 0 0-.587-.646 1.07 1.07 0 0 0-.873.006 1.36 1.36 0 0 0-.71 1.66 1.43 1.43 0 0 0 1.63.65M108.23 43.5a.66.66 0 0 0 .355.413.65.65 0 0 0 .545-.002.72.72 0 0 0 .35-.87.76.76 0 0 0-1-.34.61.61 0 0 0-.25.8M105.85 32.35a.524.524 0 0 0 .419-.502.5.5 0 0 0-.049-.228.58.58 0 0 0-.71-.34c-.26.06-.5.73-.31.92a.74.74 0 0 0 .65.15"/><path fill="#fff" d="M67 20.78a.62.62 0 0 0 .59-.44.88.88 0 0 0 .1-.56c-.31 0-.8-.37-1-.1s.1.73.14 1zM108.9 60.71c.11.08.49.21.65 0s-.18-.52-.31-.58-.41-.1-.52.12a.4.4 0 0 0 .18.46M43.05 8.86a.72.72 0 0 0 0-.58c-1 .37-2 .77-2.92 1.19.214.253.494.44.81.54a2.26 2.26 0 0 0 2.11-1.15M110.66 55.34c0-.3.25-.83 0-1s-.71.19-1 .27v.21c.1.38.23.43.51.53a.8.8 0 0 0 .49-.01M107.53 49.93a.547.547 0 0 0 .26.79c.38.17 1 .05 1.09-.22s-.2-.78-.51-.92a.61.61 0 0 0-.84.35M109.78 56.77a.666.666 0 0 0-.39-.78.5.5 0 0 0-.69.12c-.33.39-.15.74.11 1.13.43-.05.87.01.97-.47M105.61 32.94a.997.997 0 0 0 .81 1.07c.48.1.79-.17.91-.79.08-.42-.2-1-.52-1.07a1.15 1.15 0 0 0-1.2.79M108.73 45.63c-.06 0-.08.19-.06.24s.13.13.21.09a.2.2 0 0 0 .064-.04.189.189 0 0 0 .046-.21.22.22 0 0 0-.26-.08M59.44 25.38a.63.63 0 0 0 .05-.92.66.66 0 0 0-.86-.06.65.65 0 0 0 0 .93.51.51 0 0 0 .81.05M57.94 12.42a1.21 1.21 0 0 0-2.39-.23c-.11.46.49 1 1.14 1.12a1.18 1.18 0 0 0 1.25-.89M62 16.83c0-.12-.05-.4-.19-.54a.709.709 0 1 0-.95 1c.22.21.74.03 1.14-.46M56.34 15.78a.36.36 0 0 0 0-.45c-.15-.11-.38.12-.46.22a.32.32 0 0 0 .07.36c.05.07.29-.04.39-.13M55.77 17.03c-.13-.1-.35 0-.43.09s-.15.44 0 .53.45-.08.5-.18.07-.35-.07-.44M43.44 21.5c.34-.35.42-.93.16-1.17a1.29 1.29 0 0 0-1.6 0 .81.81 0 0 0 .13 1.17.88.88 0 0 0 1.31 0M56.39 14.31a.71.71 0 0 0-.55-.28c-.45.07-.41.46-.4.81.33.24.66.33.93 0a.56.56 0 0 0 .02-.53M61.86 22.1a.57.57 0 0 0 .83-.14c.22-.35.18-1-.07-1.11s-.8.09-1 .37a.61.61 0 0 0 .24.88M66 13.91c.26-.052.503-.165.71-.33.22-.18.2-.45-.07-.65a.57.57 0 0 0-.52-.15.7.7 0 0 0-.27-.3.79.79 0 0 0-1 .17c-.37.54-.36 1.17 0 1.4a1.15 1.15 0 0 0 1.15-.14M65.11 11.8a.66.66 0 0 0 0-1 .71.71 0 0 0-.94 0 .75.75 0 0 0 .21 1.163.61.61 0 0 0 .73-.163M66.76 16.5a.41.41 0 0 0 .63-.24c.08-.2.25-.73 0-.85s-.73.18-.86.36-.07.53.23.73M63.07 14.56c-.24-.2-.48 0-.63.24s-.08.65.19.71.67.21.81-.14-.2-.67-.37-.81M63.21 25.4c.13-.07.33-.54.21-.67s-.58-.06-.65 0-.23.46-.14.58.45.19.58.09M63.61 9.17a1.5 1.5 0 0 0-1.81.33c-.39.51-.16 1.27.54 1.78a1.07 1.07 0 0 0 1.52-.24 1.43 1.43 0 0 0-.25-1.87M55.71 18.73a.73.73 0 0 0-.09-.66.51.51 0 0 0-.81-.08.57.57 0 0 0-.06.78c.15.23.86.2.96-.04M48.75 14.5a.72.72 0 0 0 0 .94c.39.34.78.14 1.16 0 .08-.77 0-1.06-.42-1.18a.65.65 0 0 0-.74.24M51.21 13.57c.48-.52.54-.92.18-1.28a1.08 1.08 0 0 0-1.27.07 1.21 1.21 0 0 0 .17 1.29.62.62 0 0 0 .92-.08M49.16 18.07c.42-.28.74-.55.54-1a.64.64 0 0 0-.52-.3 1 1 0 0 0-.63.47c-.18.46.27.59.61.83M48.79 10.5a1.11 1.11 0 0 1 1 .74 1 1 0 0 0 1.16.3c.227-.211.366-.5.39-.81a.54.54 0 0 0 .16-.21.58.58 0 0 0-.5-.78.39.39 0 0 0-.45-.18 1.56 1.56 0 0 1-1.28-.29.53.53 0 0 0-.81.23c-.16.35-.04.91.33 1M45.84 21.58a.73.73 0 0 0-.94 0 .77.77 0 0 0 0 1 .61.61 0 0 0 .85 0 .66.66 0 0 0 .09-1M55 26.5a.4.4 0 0 0 0-.35.5.5 0 0 0-.42-.06c-.09.05-.2.41-.13.49s.4-.03.55-.08M53.17 18.66c-.24-.2-.42-.07-.59.09a.43.43 0 0 0 0 .72c.19.11.42.23.6.13a.77.77 0 0 0-.01-.94M54.87 9.73a.7.7 0 0 0 .51 0c.34-.17.5.71 1 .5s.92.27 1.49-.05.9-1 .46-1.36a2.22 2.22 0 0 0-1.46-.44.6.6 0 0 0-.32.08 1 1 0 0 0-.13-1.16c-.33-.22-.88 0-1.2.47a.77.77 0 0 0-.89.15 1.14 1.14 0 0 0-.09 1.35 1.25 1.25 0 0 0-1.06.38 1.27 1.27 0 0 0 .14 1.65 1.07 1.07 0 0 0 1.43 0 1.73 1.73 0 0 0 .12-1.57M52.34 8.43l.7-.67a5 5 0 0 0-.31-.54.71.71 0 0 0-.64-.26.9.9 0 0 0-.26-.64l-.09-.09a.46.46 0 0 0-.11-.47l-1.79.41a.13.13 0 0 0 .07.06c.54.16.48.63.57 1a.66.66 0 0 0 1 .51l.13-.06a.6.6 0 0 0 .14.29q.265.268.59.46M55 16.83c.25 0 .35-.27.23-.54a1 1 0 0 0-.59-.53.32.32 0 0 0-.4.29c0 .2.15.33.31.48s.27.29.45.3M53.09 26.06a.19.19 0 0 0 0-.23.2.2 0 0 0-.28 0 .21.21 0 0 0 0 .27s.24.01.28-.04M52.81 24.79c.31-.31.36-.65.14-.83a1.09 1.09 0 0 0-1.14 0 .66.66 0 0 0 .08.93.62.62 0 0 0 .92-.1"/><path fill="#CED5E1" d="M21.83 58.81a1.62 1.62 0 0 0-2.67-.71c-.91 1-1.79 1.93-2.68 2.9-.23-2.09-.26-4.18-.66-6.3s-.44-5.63-2.09-7.09a1.12 1.12 0 0 0-1.74.23c-1 1.82 0 4.94.26 6.85.48 3.16 1.68 6.05 2 9.18a1.34 1.34 0 0 0 2.26.93c.94-.83 1.86-1.7 2.79-2.55.6 2.63 1.2 5.26 1.77 7.9.62 2.85 1.07 6.71 3 9a1.47 1.47 0 0 0 2.43-.64c.59-3-.91-6.63-1.74-9.42-.97-3.4-1.94-6.84-2.93-10.28M115.64 47.2a1.105 1.105 0 0 0-1.104-.533q-.217.032-.406.143c-1.88 1.44-2.26 5-2.81 7.15s-.72 4.09-1.08 6.11c-.84-1-1.68-2.12-2.54-3.16s-2.29-.31-2.66.7c-1.19 3.22-2.33 6.44-3.56 9.65-1 2.66-2.94 6.34-2.58 9.3a1.47 1.47 0 0 0 2.47 1c2.1-2.15 2.83-6.1 3.64-8.86.74-2.54 1.52-5.08 2.29-7.61.89.94 1.77 1.89 2.67 2.82a1.327 1.327 0 0 0 1.854-.01c.163-.16.282-.36.346-.58.59-3.09 2-5.82 2.68-8.92.46-1.96 1.72-5.18.79-7.2M74 13.5a1.79 1.79 0 0 0-2.51 0c-1.25 1.27-2.24 2.64-3.32 4-1.4-2-2.58-4.23-3.92-6.27a1.6 1.6 0 0 0-2.71 0c-1.05 1.4-2.31 3.91-3.66 5.44-1.25-1.33-2.73-2.51-4.06-3.68a2 2 0 0 0-3.29.87c-.82 2-2 4.43-1.91 6.68a1.46 1.46 0 0 0 2.47 1 11.6 11.6 0 0 0 2.29-4 21.7 21.7 0 0 1 3.11 2.72 1.73 1.73 0 0 0 2.39 0A22.6 22.6 0 0 0 63 14.75a54 54 0 0 1 4 5.34 1.23 1.23 0 0 0 1.91.24c1.17-1 2.4-1.95 3.59-3 1.35 1.73 3 3.81 4.84 4.29a1.11 1.11 0 0 0 1.4-1.07c-.25-2.47-3.24-5.2-4.74-7.05"/><path fill="#FFD738" d="m62.53 39.56-28.44 8a3.81 3.81 0 0 0-2.77 3.67v16.19H95.6V51.28a3.81 3.81 0 0 0-2.77-3.67l-28.41-8a3.37 3.37 0 0 0-1.89-.05"/><path fill="#F6B019" d="M31.32 50.75v53.91a3 3 0 0 0 3 3h58.27a3 3 0 0 0 3-3V50.94z"/><path fill="#F09820" d="M41.29 92a.57.57 0 0 0-.56.46.59.59 0 0 0 1.12.34.67.67 0 0 0 .69-.26c.23-.44 0-.76-.27-1.08-.66.04-.92.22-.98.54M42 87.27c.19 0 .28-.21.38-.38a.77.77 0 0 0 .2-.5c0-.23-.34-.26-.56-.1a1 1 0 0 0-.37.67.3.3 0 0 0 .35.31M38.58 88.31c-.32.31-.29.66.19 1a.63.63 0 0 0-.32.45.77.77 0 0 0 .55.74.57.57 0 0 0 .66-.48.7.7 0 0 0-.06-.52q.293.057.59.08a.57.57 0 0 0 .58-.41.57.57 0 0 0 .11.36.36.36 0 0 0 .42 0 .38.38 0 0 0 0-.43c-.07-.08-.38-.23-.5-.13s0 0 0 .06c0 0 0 .06 0 0a.59.59 0 0 0-.5-.66 2.1 2.1 0 0 1-.53-.2.91.91 0 0 0-1.19.14M40.6 86.43c.16-.36.17-.68-.2-.87a.53.53 0 0 0-.49.09.7.7 0 0 0-.15.57c.16.41.51.28.84.21M43.86 91.33a.62.62 0 0 0-.18.55 1 1 0 0 0 .57.49c.49.07.51-.38.67-.75-.35-.33-.67-.57-1.06-.29M38.92 70.24a.69.69 0 0 0-1 .05.69.69 0 0 0 .05.89.71.71 0 0 0 .9-.06.61.61 0 0 0 .05-.88M43.78 97.5a.65.65 0 0 0 .6.66.61.61 0 0 0 .62-.63.52.52 0 0 0-.52-.6.7.7 0 0 0-.7.57M33.43 91.59c-.18.25-.28.55-.76.5-.08-.17-.13-.42-.27-.49a1.15 1.15 0 0 0-.76-.12c-.3.09-.32.4-.22.7s.15.46.22.68a1.74 1.74 0 0 0 2 .67s.1-.08.1-.12c0-.54.5-.58.86-.75a.63.63 0 0 0 .28-1l-.09-.16a.5.5 0 0 0 .24-.19c.114-.216.191-.45.23-.69l-.14-.09a1 1 0 0 0 .11-.23c.06-.17-.17-.87-.49-.92s-.63.64-.67.91a.7.7 0 0 0 0 .18h-.05a.68.68 0 0 0-.11.65.88.88 0 0 0-.48.47M45.06 94.62a.64.64 0 0 0 .4-.4c0-.16-.07-.59-.26-.65s-.48.31-.56.48.17.62.42.57M49.82 93.84a.63.63 0 0 0-.3-.12 1 1 0 0 0 0-.31 3.11 3.11 0 0 1-2.11-1.68.56.56 0 0 0-.06.67c.83.53.27.95.73 1.53q.125.117.28.19c.137.055.283.082.43.08a.67.67 0 0 0 .25.67.74.74 0 0 0 1-.24.58.58 0 0 0-.22-.79M31.32 81.92a.6.6 0 0 0 .41-.06 1.27 1.27 0 0 0 .34-1.36.75.75 0 0 0 .85 0 1.08 1.08 0 0 0 0-1.31.94.94 0 0 0-1.21 0 .84.84 0 0 0-.18.89.9.9 0 0 0-.26 0zM36.1 84.05a.48.48 0 0 0 .48-.46c.05-.48-.28-.67-.69-.84-.32.27-.7.45-.52.9a.64.64 0 0 0 .73.4M50 103.08a1.31 1.31 0 0 0-1.7-.56 2.23 2.23 0 0 0-1 1.94.9.9 0 0 0-.36 0 1.1 1.1 0 0 0-.3.16.865.865 0 0 0-.28.93 1.236 1.236 0 0 0-1.34.8c-.2-.17-.47-.27-.6-.17s-.15.91.19 1a.6.6 0 0 0 .26 0c.022.185.087.363.19.52h2.07q.1-.211.14-.44a1.7 1.7 0 0 0-.11-1.1 5.5 5.5 0 0 0 1 .18 1.3 1.3 0 0 0 0 .7c.142.297.387.531.69.66h1.66l.2-.08a.14.14 0 0 0 0 .08H51a.4.4 0 0 0 .09-.07s0-.14-.06-.19q.154-.135.26-.31c.146-.277.212-.588.19-.9a.6.6 0 0 0 .41-.48.76.76 0 0 0-.55-.74.55.55 0 0 0-.5.24c-.43-.22-1-.31-1-.47s.53-1.01.16-1.7"/><path fill="#F09820" d="M34.12 87.88a1.25 1.25 0 0 0-.81.38c-.34.36-.27.79.19 1.21a.88.88 0 0 0 1.06 0 .9.9 0 0 0 .19-.43 1.11 1.11 0 0 0 .9-.31 1.17 1.17 0 0 0 .57.9 1.23 1.23 0 0 0 1.52-.47q.038-.094.06-.19l.16-.11a.37.37 0 0 0-.07-.62.7.7 0 0 0-.16-.1.7.7 0 0 0-.29-.31 1.59 1.59 0 0 0-1.5.22.63.63 0 0 0-.11-.48.2.2 0 0 1 0-.26.59.59 0 0 0 .54-.15.63.63 0 0 0 .06-1 .72.72 0 0 0-.48-.17 1.15 1.15 0 0 0-.23-.88c-.41-.46-1.1-.64-1.36-.15a2.13 2.13 0 0 0-.11 1.45c.06.4.57.46.25.81a2.4 2.4 0 0 0-.38.66M39.38 73.19a.56.56 0 0 0-.09-.81.76.76 0 0 0-1 .16 2 2 0 0 0 .16.71c.18.3.67.25.93-.06M32.23 86.5a.73.73 0 0 0-.51-.73.7.7 0 0 1-.22 0 .5.5 0 0 0-.18-.15v1.33c.41.01.85-.14.91-.45M31.59 93.37a.45.45 0 0 0-.16.25.2.2 0 0 0-.11-.05v.56c.14 0 .32-.06.32-.2a.74.74 0 0 0 .33-.17c.06 0 .08-.3 0-.33a.56.56 0 0 0-.38-.06M31.58 101.24a.89.89 0 0 0 1.23-.23 1.39 1.39 0 0 0-.43-1.23c-.31-.2-.65-.09-.9.29a1.5 1.5 0 0 0-.16.39v.4c.036.155.129.29.26.38M33.61 102.94c.096.119.23.2.38.23.3 0 .36-.2.39-.42s-.15-.58-.44-.53h-.24a.5.5 0 0 0-.18-.33 1.26 1.26 0 0 0-1.55.33.82.82 0 0 0 .28 1 .9.9 0 0 0 .318.183.863.863 0 0 0 .982-.333 1 1 0 0 0 .06-.13M36.22 93.44c-.21.06-.31.32-.37.53a.38.38 0 0 0 .36.52c.28 0 .55 0 .63-.38a.4.4 0 0 0-.05-.23.8.8 0 0 0 .27.15c.37.11.86-.13.82-.47a1.07 1.07 0 0 1 .49-1.06 1 1 0 0 0 0-1.15 1.33 1.33 0 0 0-1.34 0c-.23.19-.57.41-.39.75a1.5 1.5 0 0 1 0 1.25.6.6 0 0 0 0 .4c-.11-.2-.31-.34-.42-.31M32.54 94.91v.08a.71.71 0 0 0-.87-.24 1.3 1.3 0 0 0-.31.19v4c.28-.12.58-.39.61-.61a.6.6 0 0 0 0-.19c.5-.49.37-.9.79-1.18s.42-.66.22-1.2c0-.08-.06-.16-.1-.25a.43.43 0 0 0 .53-.19.7.7 0 0 0-.17-.58.37.37 0 0 0-.7.17M31.92 90.17a1.49 1.49 0 0 0-.21-1.32.53.53 0 0 0-.39-.08v1.73a.71.71 0 0 0 .6-.33M37.62 106.31a1.88 1.88 0 0 0-1.26-1.9 1.55 1.55 0 0 0-1.46.15c-.34.25-.27.71-.37 1.13-.11-.05-.23-.08-.35-.09-.19 0-.36-.07-.53 0s-.12.31 0 .45c-.3.08-.52.28-.44.59s.23.55.43.62a.47.47 0 0 0 .54-.1q.048.112.12.21a.58.58 0 0 0-.41.21q.2.016.4 0h3.6a11 11 0 0 0-.34-1.2.4.4 0 0 0 .07-.07M46.16 89.58c.13-.12 0-.39-.11-.48a.31.31 0 0 0-.36 0c-.08.08 0 .31 0 .42a.36.36 0 0 0 .47.06M32.73 104.01c-.13-.05-.34.07-.5.21a1.1 1.1 0 0 0-.25-.24 3.2 3.2 0 0 0-.66-.34v1c.003.373.074.742.21 1.09.274-.059.522-.203.71-.41a.8.8 0 0 0 .15-.34h.09a.504.504 0 0 0 .66-.42.54.54 0 0 0-.41-.55M32.16 106.73q.15.162.33.29a1.2 1.2 0 0 0-.33-.29M39.38 91.91a1.16 1.16 0 0 0 1.17-.41.57.57 0 0 0-.26-.83c-.58-.35-1-.32-1.23.1a1 1 0 0 0 .32 1.14M42.33 105.41a1 1 0 0 0 1-.75c0-.31-.4-.77-.8-.8s-.53.19-.57.57c-.08.57.04.92.37.98M38.33 93.77c-.12.16-.32.66-.19.78s.62 0 .81-.08a.3.3 0 0 0 .09-.08 1 1 0 0 0 .28 1.16.56.56 0 0 0 .35 0c.07.34.29.64.56.67a1.24 1.24 0 0 0 1.18-1c.05-.34-.32-.71-.74-.74a.9.9 0 0 0-.36 0 1 1 0 0 0-.21-.17c-.45-.28-.8-.31-1-.1a.56.56 0 0 0-.14-.54.37.37 0 0 0-.63.1M40.77 100.5a.693.693 0 0 0 .11 1 1 1 0 0 0 1.19-.27.573.573 0 0 0-.18-.8.84.84 0 0 0-1.12.07M40 106.15c0-.33-.5-.84-.89-.88a.584.584 0 0 0-.597.357.6.6 0 0 0-.043.243c-.07.67.13 1 .61 1.07a1 1 0 0 0 .92-.79M40.23 102.02c0 .53.16.87.49.92a.69.69 0 0 0 .542-.135.67.67 0 0 0 .258-.495.59.59 0 0 0-.62-.61c-.3.01-.63.01-.67.32M40.9 97.75a1.1 1.1 0 0 0-.93.8.82.82 0 0 0 .53.83c.67.1 1.23-.15 1.29-.58a1.2 1.2 0 0 0-.89-1.05M36.46 76.07l.13.08a.8.8 0 0 0-.11.18c-.12.25-.15.53.13.63s.77.17.91 0-.07-.38-.23-.57a.85.85 0 0 0 .53-.18 1.17 1.17 0 0 0 0-1.38.92.92 0 0 0-1.19.13c-.43.4-.48.77-.17 1.11M59 100.29h-.1a1.18 1.18 0 0 0-.48-1.14h-.07a1 1 0 0 0 .7-.91 3.08 3.08 0 0 1-1.8-1 .93.93 0 0 0-.33.56 1.22 1.22 0 0 0 .48 1.19.87.87 0 0 0-.57.49 1.22 1.22 0 0 0 .26 1.68 1.42 1.42 0 0 0 1.25-.09.59.59 0 0 0 .49.57.66.66 0 0 0 .69-.57.62.62 0 0 0-.272-.692.6.6 0 0 0-.248-.088M72 103.29c-.06.28.49.56 1 .43s.37-.77.23-1-1.17.3-1.23.57M75.06 99.62a1.43 1.43 0 0 0-1-1.52 1.06 1.06 0 0 0-1.12.9 1.14 1.14 0 0 0 1 1.35.93.93 0 0 0 .717-.124.92.92 0 0 0 .403-.606M43.65 69.5a1.09 1.09 0 0 0 1.41.2 1 1 0 0 0-.14-1.2.88.88 0 0 0-1.19.08.6.6 0 0 0-.08.92M42.25 56.87a.53.53 0 0 0-.18-.74.77.77 0 0 0-.6-.09c-.44.22-.4.61-.21 1.07.39.04.74.19.99-.24M39.14 61.95c.13.47.46.58.93.46.55 1 1.23 1 1.89-.07a.7.7 0 0 1 .24 0c.33.09.52-.08.67-.35a.59.59 0 0 0-.07-.69c-.37-.56-.68-.62-1.22-.2s-.83.6-1.24.9c-.61-.69-.72-.69-1.2-.05M44.27 61.84c.18-.17.31-.47.06-.64s-.54-.17-.65-.06-.13.45-.16.61c.32.34.57.25.75.09"/><path fill="#F09820" d="M39.11 101.01a2.19 2.19 0 0 0-1.52-1.77c-.61-.06-.89.64-1.06.65s-.09 0-.16-.11a1 1 0 0 0 0-.14.88.88 0 0 0-.64-.94 1.2 1.2 0 0 0-.77.29 1.86 1.86 0 0 0-1.48 1.39c-.1.452-.021.925.22 1.32.184.251.438.443.73.55a.58.58 0 0 0 .26.58.74.74 0 0 0 .89-.18.56.56 0 0 0 0-.56c.37-.29.68-.73.86-.72s.42.51.83.77q.091.132.23.21a.62.62 0 0 0 .58-.07 1.34 1.34 0 0 0 1.03-1.27M37.14 73.14a.36.36 0 0 0 0-.43.35.35 0 0 0-.41.09c-.07.08-.15.42 0 .51s.36-.08.41-.17M35.32 64.5a1 1 0 0 0 .15-1.35c-.23-.24-1.14-.1-1.43.22a.87.87 0 0 0 .266 1.246.85.85 0 0 0 1.014-.116M33 63.75a.7.7 0 0 0 .08-.9 1 1 0 0 0-1-.12.87.87 0 0 0 0 1 .63.63 0 0 0 .92.02M41 84.58a1 1 0 0 0 1.5-.27 1.33 1.33 0 0 0 0-1.35h.06a.85.85 0 0 0 0-1.31 1 1 0 0 0-1.41.1.92.92 0 0 0-.13.92 1.2 1.2 0 0 0-.45.34c-.45.49-.25 1.12.43 1.57M69.92 106.5c0 .29.08.52.36.58.68.209 1.409.209 2.09 0q.15-.08.27-.2a.793.793 0 0 0-.016-1.204.8.8 0 0 0-.414-.176 4.9 4.9 0 0 0-1.32-.09 1.25 1.25 0 0 0-.97 1.09M41.66 74.09a.38.38 0 0 0 .14.62c.19.08.71.17.8 0s-.12-.61-.25-.78-.48-.11-.69.16M41.86 71.01a.61.61 0 0 0-.83.1 1 1 0 0 0 .1 1.15.91.91 0 0 0 1-.47.63.63 0 0 0-.27-.78M32 71.25q.055.111.13.21a.65.65 0 0 0 1.11.13 1 1 0 0 0 .33-1.33q.34.073.65.23a.59.59 0 0 0 .83 0 .86.86 0 0 0 .4-.92c-.34-1.26-.65-1.48-1.93-1.33h-.11a1.5 1.5 0 0 0 .47-.17.4.4 0 0 0 .12-.64.49.49 0 0 0-.73-.12 1.3 1.3 0 0 0-.23.58.57.57 0 0 0-.77 0 .65.65 0 0 0 .17 1c.38.21.35.51.41.86-.93.23-1.21.75-.85 1.5M45.27 96.67a1.19 1.19 0 0 0 1.32-.35 1.08 1.08 0 0 0-.33-1.18.79.79 0 0 0-1 .13c-.35.56-.36 1.17.01 1.4M68.53 103.77a.65.65 0 0 0 .569.119.63.63 0 0 0 .431-.389.85.85 0 0 0-.16-.73.7.7 0 0 0-.66-.11.738.738 0 0 0-.18 1.11M68.32 100.91a.63.63 0 0 0-.7.55.64.64 0 0 0 .47.76.663.663 0 0 0 .75-.49.74.74 0 0 0-.52-.82M65 100.8a.75.75 0 0 0-.561.106.75.75 0 0 0-.319.474.63.63 0 0 0 .61.66 1.2 1.2 0 0 0-.1.62c.057.294 0 .598-.16.85a1.33 1.33 0 0 0 0 1.27 1.14 1.14 0 0 0 1.1.6h.11a1.08 1.08 0 0 0-.4.68c0 .39.31.71.87.79s.94-.23 1-.55a1.16 1.16 0 0 0-.76-1.16.5.5 0 0 0-.18 0c.12-.134.211-.29.27-.46a2.08 2.08 0 0 0-.11-1.37.9.9 0 0 1 0-.51.8.8 0 0 0-.72-1.15.5.5 0 0 0 .09-.23c-.08-.3-.41-.58-.74-.62M73.53 105.66c-.13.12 0 .42.11.47q.1.06.215.061.116-.001.215-.061c.12-.1 0-.34 0-.44s-.41-.19-.54-.03M52.34 96.15c-.26.3-.32.61 0 .87a.51.51 0 0 0 .49 0 .79.79 0 0 0 .25-.6c-.08-.34-.45-.29-.74-.27M50.74 95.5c.24.12.89-.25.81-.59a.58.58 0 0 0-.62-.41c-.33.09-.43.88-.19 1M46.86 65.1a.36.36 0 0 0 0 .54.39.39 0 0 0 .48-.07.33.33 0 0 0 0-.46.36.36 0 0 0-.48-.01M52.15 97.62a1.3 1.3 0 0 0-.68.66h-.16c-.66-.13-1 .26-1.19.79-.35-.1-.69-.38-1 .06a.58.58 0 0 0 .05.76c.35.38.69.12 1-.1l.49.44c-.19.25-.37.45-.55.67q.1.329.25.64a1.26 1.26 0 0 0 1.1.45.925.925 0 0 0 .39-1.08c0-.16-.08-.31-.12-.48.29-.28.64-.55.71-.92h.3a1.14 1.14 0 0 0 .85-1.2 1.19 1.19 0 0 0-1.44-.69M52.59 103.56a1.52 1.52 0 0 0 .75 1.26c.47.25 1-.23 1.51-.17h.29a.55.55 0 0 0 .11.61.48.48 0 0 0 .324.227.5.5 0 0 0 .386-.087c.21-.157.35-.39.39-.65a.47.47 0 0 0-.33-.44 1.8 1.8 0 0 0 .36-1.37 1.3 1.3 0 0 0-1.38-1.18c-.46 0-.78-.34-1.2-.15a1.89 1.89 0 0 0-1.21 1.95M55.58 97.86a.64.64 0 0 0-.45.09.61.61 0 0 0-.28-.45.75.75 0 0 0-.88.23.56.56 0 0 0 .15.79.71.71 0 0 0 .73 0 .69.69 0 0 0 .52.52.54.54 0 0 0 .66-.47.6.6 0 0 0-.45-.71M62.51 106.96a.64.64 0 0 0 .69-.56.71.71 0 0 0-.6-.75.686.686 0 0 0-.74.59.74.74 0 0 0 .65.72M62.73 107.13c-.65-.09-1.11.12-1.19.53h1.65a.5.5 0 0 0-.46-.53M31.32 52.94v1.68a.91.91 0 0 0 .83 0 1.1 1.1 0 0 0 .14-1.43 1 1 0 0 0-.97-.25M31.62 56.18a1 1 0 0 0-.29.81v1.22c.28-.05.53-.15.56-.53a.6.6 0 0 0 0-.13 1.5 1.5 0 0 0 1.11-.36.63.63 0 0 0-.08-.88.89.89 0 0 0-1.3-.13M76 104.09c-.35-.15-1 .44-.88.7s1 .41 1.12.08a.63.63 0 0 0-.24-.78M33 59.5a1.1 1.1 0 0 0 0 1.79 1.23 1.23 0 0 0 1.72 0 1.46 1.46 0 0 0-.23-1.79 1 1 0 0 0-1.49 0M31.32 51.16a1.2 1.2 0 0 0 .46-.41h-.46zM76.76 96.61a.49.49 0 0 0 .17-.45.53.53 0 0 0-.5-.27c-.18 0-.2.5-.13.6a.45.45 0 0 0 .46.12M79.05 102.4a.614.614 0 0 0-.46.32.38.38 0 0 0 .163.482q.082.046.177.048c.18 0 .64 0 .67-.42s-.4-.43-.55-.43M44.79 63.78a.42.42 0 0 0 0 .44c.11.09.33.25.43.13a.42.42 0 0 0 0-.43c0-.09-.34-.26-.43-.14M35.13 53.7a1 1 0 0 0-.24 1.12 1.1 1.1 0 0 0 1.37.1 1 1 0 0 0 0-1.28c-.26-.36-.68-.34-1.13.06M36 67.97c-.14 0-.33.13-.4.22a.34.34 0 0 0 .07.35c.1.06.3 0 .4-.12q.109.21.27.38c.34.34.77.4 1 .14a1.65 1.65 0 0 0 .13-1.39.9.9 0 0 0-1.32.08.73.73 0 0 0-.15.34M36.78 57.6a.84.84 0 0 0 .07 1.25 1.08 1.08 0 0 0 1.62-.05 1.1 1.1 0 0 0-.06-1.44 1.2 1.2 0 0 0-1.63.24M38.5 51.5c-.3.23-.25.82.12 1.27a.72.72 0 0 0 .91.06.89.89 0 0 0 .18-1.12 1 1 0 0 0-1.21-.21M43.08 100.6a1 1 0 0 0 .72 1.14 1.42 1.42 0 0 0 1.21-.91 1 1 0 0 0-.82-1 1 1 0 0 0-1.11.77M49.58 97.5a.84.84 0 0 0-.23-1.23l-.21-.09a.79.79 0 0 0-.56-.51 1.22 1.22 0 0 0-1.06.88.83.83 0 0 0 .78 1 1 1 0 0 0 .27.28.77.77 0 0 0 1.01-.33M38.1 86.88c.46 0 .78-.66.81-1.3a1.12 1.12 0 0 0-1.09-1 1.16 1.16 0 0 0 .28 2.28zM36.83 78.59a1.52 1.52 0 0 0-.17 1.82c.207.194.477.307.76.32l.09.07c.43.26.84.1 1.14-.45a.89.89 0 0 0 0-.82 1.06 1.06 0 0 0-.22-.65 1.2 1.2 0 0 0-1.6-.29M39.32 77.33a.3.3 0 0 0 0-.54c-.17-.1-.64-.32-.81-.15s.13.66.26.79.41.01.55-.1M52.56 106.67c-.46-.07-.94.17-1 .51a.8.8 0 0 0 .07.48h1.63a.84.84 0 0 0-.7-.99M48.54 101.98c.13-.15-.08-.56-.19-.7a.45.45 0 0 0-.38-.102.43.43 0 0 0-.31.242.62.62 0 0 0 .19.53c.15.09.56.19.69.03M55.18 106.89a.95.95 0 0 0-.712.154.94.94 0 0 0-.388.616h2a1.57 1.57 0 0 0-.9-.77M37.93 82.36a1.06 1.06 0 0 0-.13 1.3.72.72 0 0 0 1 .08.9.9 0 0 0 0-1.21.63.63 0 0 0-.87-.17M32.82 86.67c-.1.1-.19.58-.06.7s.65 0 .68-.12.12-.59 0-.66a.65.65 0 0 0-.62.08M62.29 100.64c.06-.52-.21-1-.58-1a1.28 1.28 0 0 0-1.13 1 .72.72 0 0 0 .406.751.7.7 0 0 0 .294.069.793.793 0 0 0 1.01-.82M31.32 83.41v1.23c.3.22.55.23.78 0a.79.79 0 0 0 .11-1.14 1.22 1.22 0 0 0-.89-.09M38.54 96.12a.74.74 0 0 0-.63-.75.59.59 0 0 0-.63.51.62.62 0 0 0 .54.78.7.7 0 0 0 .72-.54M42.63 106.91a.43.43 0 0 0-.51-.1.9.9 0 0 1-.31.13.9.9 0 0 0 .1-.39 1.28 1.28 0 0 0-.3-.9q.054-.063.1-.13c.39-.54.17-1-.21-1.41.23-.28.64-.46.36-.91a.58.58 0 0 0-.71-.27c-.49.15-.4.57-.34.95l-.62.26c-.13-.28-.24-.53-.36-.78h-.18a.56.56 0 0 0-.44-.31c-.5 0-.67.36-.87.7l.07.09a.7.7 0 0 0-.15.29c0 .34.32.69.81.82l.49.09c.08.376.264.722.53 1q-.069.125-.12.26a.93.93 0 0 0 .1.73.5.5 0 0 0-.17.22.74.74 0 0 0 0 .39H43q.089-.147.14-.31c-.14-.26-.28-.43-.51-.42M35.3 98.06c.76.54 1.5.49 1.91-.12a1.33 1.33 0 0 0-.5-1.87 1.29 1.29 0 0 0-1.82.37 1.1 1.1 0 0 0 .41 1.62M39.86 98.26a1.13 1.13 0 0 0-.43-1.64A1.15 1.15 0 0 0 38 97a1.15 1.15 0 0 0 1.9 1.26zM45.19 105.27c.64.11 1.07-.25 1.18-1s-.18-1.18-.85-1.28a1.4 1.4 0 0 0-.45 0 .6.6 0 0 0-.18-.2.877.877 0 0 0-.89 1.51q.145.085.31.12a1.19 1.19 0 0 0 .88.85M44.72 99.28a.63.63 0 0 0 .31.83.517.517 0 0 0 .76-.21.7.7 0 0 0-.21-.88.67.67 0 0 0-.86.26M41.75 97.23a1.42 1.42 0 0 0 .3 1.49 1 1 0 0 0 1.25-.32 1.06 1.06 0 0 0-.21-1.33 1 1 0 0 0-1.34.16M35.75 78.04a.62.62 0 0 0-.93.15.69.69 0 0 0 .18.88.73.73 0 0 0 .94-.24.58.58 0 0 0-.19-.79M34.2 76.59s0-.19-.08-.22a.172.172 0 1 0-.17.3.21.21 0 0 0 .25-.08M34.62 71.98a.53.53 0 0 0 0 .75.67.67 0 0 0 .8.27.75.75 0 0 0 .37-1 .8.8 0 0 0-1.17-.02M33.42 77.62c0 .4.24.57.65.62.23-.25.51-.5.25-.84a.66.66 0 0 0-.58-.15.48.48 0 0 0-.32.37M58.82 106.93h-.14a1.27 1.27 0 0 0 .56-.92 1.3 1.3 0 0 0 0-.41 1.68 1.68 0 0 0 1.56 0 1.19 1.19 0 0 0 .2-1.5c-.18-.34-.4-.6-.16-1s-.1-.56-.42-.69c-.44.18-.57.49-.39.85q-.504.316-.94.72a1.44 1.44 0 0 0-.16 1.17 1.26 1.26 0 0 0-.76-.25c-.89 0-1.19.19-1.3.93a1.18 1.18 0 0 0 .672 1.158c.144.068.3.106.458.112h.16a1.37 1.37 0 0 0-.52.55h1.7c-.02-.35-.24-.69-.52-.72M35.88 80.72a.66.66 0 0 0-.65-.54.48.48 0 0 0-.36.15q-.2.44-.35.9c-.73.25-1.13.71-1 1.16a.9.9 0 0 0 .14.21.64.64 0 0 0-.59.32 1.35 1.35 0 0 0 .34 1.19c.29.21.61.09.88-.33a.86.86 0 0 0 .16-.76c.154.04.316.04.47 0 .51-.16.58-.45.28-1.49.27-.11.54-.2.65-.42a.61.61 0 0 0 .21.52c.12.08.61.06.69-.09s-.16-.62-.26-.63a.78.78 0 0 0-.61.14.7.7 0 0 0 0-.33M31.32 73.29v4.68a.84.84 0 0 0 1.27-.47 8 8 0 0 0 .11-1.56c.5-.28 1.06-.65 1-1.34a1.57 1.57 0 0 0-2-1.26.6.6 0 0 1-.38-.05M31.32 59.97v1.65h.08a1.16 1.16 0 0 0 0-1.58zM46.67 99.41a.61.61 0 0 0 0 .67q-.05.092-.08.19a.86.86 0 0 0 .58 1 .7.7 0 0 0 .82-.51.6.6 0 0 0 0-.22 1 1 0 0 0 .09-.08 1.33 1.33 0 0 0-.17-1.38.82.82 0 0 0-1.24.33M43.67 86.37a.56.56 0 0 0 .74-.11c.18-.19 0-.85-.24-.89a.67.67 0 0 0-.59.22.5.5 0 0 0 .09.78M44.86 87.57a.7.7 0 0 0-.24-.08.63.63 0 0 0-.74.59.69.69 0 0 0 .57.69.65.65 0 0 0 .73-.39.36.36 0 0 0 .34-.26c0-.2.12-.44 0-.59s-.43-.03-.66.04M42.85 95.43c-.08.49.24.85.82.94s.76-.26.83-.84-.14-.78-.48-.84a1.32 1.32 0 0 0-1.17.74M37.6 63.09c-.28.27 0 .69.12.91s.48.23.72 0 .29-.51 0-.69-.56-.48-.84-.22M38.82 66.5a.92.92 0 0 0 0 1.38 1.24 1.24 0 0 0 1.72 0 1.26 1.26 0 0 0-.07-1.53 1.11 1.11 0 0 0-1.65.15M43.18 80.91a.38.38 0 0 0-.33 0 .48.48 0 0 0 0 .41.35.35 0 0 0 .49 0c.2-.12-.07-.31-.16-.41M42 93.95a.67.67 0 0 0 .465 1.07.58.58 0 0 0 .585-.37c.12-.27.26-.57 0-.74-.5-.29-.89-.25-1.05.04"/><path fill="#FFD738" d="M41.364 20.576a4 4 0 0 1 5.003 2.64l6.082 19.672-7.643 2.363-6.08-19.662a4 4 0 0 1 2.638-5.013"/><path fill="#F6B019" d="m35.92 29.555.004.01A2.54 2.54 0 0 0 39.1 31.24l10.042-3.104a2.54 2.54 0 0 0 1.676-3.177l-.003-.01a2.54 2.54 0 0 0-3.177-1.676l-10.041 3.104a2.54 2.54 0 0 0-1.676 3.177"/><path fill="#FFD738" d="m82.15 45.27-7.644-2.363 6.079-19.661a4 4 0 1 1 7.643 2.363z"/><path fill="#F6B019" d="m76.567 24.65-.003.01a2.555 2.555 0 0 0 1.676 3.2l10.09 3.153c1.346.42 2.78-.33 3.2-1.677l.003-.01a2.555 2.555 0 0 0-1.677-3.2l-10.09-3.153a2.555 2.555 0 0 0-3.2 1.677"/><path fill="#FFD738" d="M63.46 100.23c11.83 0 21.42-9.59 21.42-21.42s-9.59-21.42-21.42-21.42-21.42 9.59-21.42 21.42 9.59 21.42 21.42 21.42"/><path fill="#343741" d="M63.24 75.9H51.58l13.75 21.8-2.09-14.77h12.1l-13.6-21.54z"/></svg>