<svg height="100" viewBox="0 0 100 100" width="100" xmlns="http://www.w3.org/2000/svg"><g fill="#29ace3" fill-rule="evenodd" transform="translate(14 31)"><path d="m37.16568 32.6140377c-4.45176 0-8.06112-3.5913585-8.06112-8.0237358 0-4.4287925 3.60936-8.019434 8.06112-8.019434 4.4496 0 8.0568 3.5906415 8.0568 8.019434 0 4.4323773-3.6072 8.0237358-8.0568 8.0237358zm-23.7348 0c-4.45032 0-8.06184-3.5899245-8.06184-8.0223019 0-4.4302264 3.61152-8.0208679 8.06184-8.0208679s8.05464 3.5906415 8.05464 8.019434c0 4.4323773-3.60432 8.0237358-8.05464 8.0237358zm23.7348-21.3983019c-5.1408 0-9.61344 2.8793963-11.86632 7.106717-2.2536-4.2273207-6.72408-7.106717-11.86848-7.106717-3.0204 0-5.81112.9951699-8.06184 2.6757736v-11.2695094c-.02664-1.45690566-1.21968-2.622-2.68704-2.622s-2.64816 1.16509434-2.682 2.622v22.191283h.00288c.11808 7.2866793 6.08112 13.1558868 13.428 13.1558868 5.1444 0 9.61488-2.8815472 11.86848-7.104566 2.25288 4.2230188 6.72552 7.104566 11.86632 7.104566 7.416 0 13.43232-5.9882264 13.43232-13.3788679 0-7.3870566-6.01632-13.3745661-13.43232-13.3745661z"/><path d="m71.44128 33.4909057-7.30152-8.9178114 7.31088-8.9357358c.92376-1.178717.6588-2.8249057-.61704-3.6996227-1.27728-.8818867-3.07008-.6553207-4.05864.4882642v-.0021509l-6.2892 7.676-6.28344-7.676v.0021509c-.97848-1.1435849-2.78208-1.3701509-4.05576-.4882642-1.27368.875434-1.53936 2.5209057-.61056 3.6996227h-.00288l7.2972 8.9357358-7.2972 8.9178114h.00288c-.9288 1.1823018-.66312 2.8234717.61056 3.7017735 1.27368.8783019 3.07728.6546038 4.05576-.491132l6.28344-7.6652453 6.28056 7.6652453c.98928 1.1457358 2.78136 1.3694339 4.05864.491132 1.27656-.8783018 1.54224-2.5194717.61632-3.7017735z"/></g></svg>