<svg height="100" viewBox="0 0 100 100" width="100" xmlns="http://www.w3.org/2000/svg"><g fill="none" fill-rule="evenodd" transform="translate(15 14)"><path d="m70 36.457165c0-2.9324271-.23828-5.0721553-.75397-7.2915728h-33.53175v13.2354175h19.68239c-.39669 3.288932-2.53953 8.2429515-7.30149 11.5710291l-.06678.4431845 10.60213 8.2017087.73451.0733981c6.7459-6.2213592 10.63496-15.3751456 10.63496-26.2331651" fill="#4285f4"/><path d="m35.71428 71.328932c9.64271 0 17.73786-3.170097 23.65076-8.6386019l-11.26986-8.7182913c-3.01588 2.1005826-7.06356 3.5664466-12.3809 3.5664466-9.4444 0-17.46017-6.2213592-20.31764-14.8201165l-.41881.0356505-11.02423 8.519767-.1442.3998447c5.873 11.6507184 17.93652 19.6553009 31.90488 19.6553009" fill="#34a853"/><path d="m15.39664 42.7183689c-.7539-2.2194174-1.19028-4.5968155-1.19028-7.0539029s.43638-4.8344854 1.15066-7.0539029l-.01995-.4725437-11.16241-8.6567767-.36526.1733592c-2.42053 4.8344855-3.8094 10.2638447-3.8094 16.0098641s1.38887 11.1746796 3.8094 16.0091651z" fill="#fbbc05"/><path d="m35.71428 13.7897476c6.70628 0 11.22996 2.8932815 13.80946 5.3105242l10.0793-9.82765044c-6.19031-5.74601942-14.24605-9.27262136-23.88876-9.27262136-13.96836 0-26.03188 8.00458252-31.90488 19.6546019l11.54762 8.9559612c2.89709-8.5987573 10.91286-14.8208155 20.35726-14.8208155" fill="#eb4335"/></g></svg>