<svg height="100" viewBox="0 0 100 100" width="100" xmlns="http://www.w3.org/2000/svg" xmlns:xlink="http://www.w3.org/1999/xlink"><linearGradient id="a"><stop offset=".18" stop-color="#0052cc"/><stop offset="1" stop-color="#2684ff"/></linearGradient><linearGradient id="b" x1="98.031%" x2="58.888%" xlink:href="#a" y1=".161%" y2="40.766%"/><linearGradient id="c" x1="3739.421%" x2="2058.278%" xlink:href="#a" y1="3462%" y2="5116%"/><g fill="none" transform="translate(14 14)"><path d="m68.81 0h-34.58c0 4.14002941 1.6446203 8.11049399 4.5720631 11.0379369 2.9274429 2.9274428 6.8979075 4.5720631 11.0379369 4.5720631h6.37v6.15c.0055161 8.6133562 6.9866438 15.5944839 15.6 15.6v-34.36c0-1.65685425-1.3431458-3-3-3z" fill="#2684ff"/><path d="m51.7 17.23h-34.58c.0055161 8.6133562 6.9866438 15.5944839 15.6 15.6h6.37v6.17c.0110357 8.6133534 6.9966395 15.5900071 15.61 15.59v-34.36c0-1.6568542-1.3431458-3-3-3z" fill="url(#b)"/><path d="m34.58 34.45h-34.58c0 8.6211649 6.98883506 15.61 15.61 15.61h6.39v6.15c.005497 8.6055588 6.9744553 15.5834632 15.58 15.6v-34.36c0-1.6568542-1.3431458-3-3-3z" fill="url(#c)"/></g></svg>