<svg fill="none" height="100" viewBox="0 0 100 100" width="100" xmlns="http://www.w3.org/2000/svg" xmlns:xlink="http://www.w3.org/1999/xlink"><linearGradient id="a"><stop offset=".18" stop-color="#0052cc"/><stop offset="1" stop-color="#2684ff"/></linearGradient><linearGradient id="b" gradientUnits="userSpaceOnUse" x1="48.0798" x2="33.1398" xlink:href="#a" y1="28.4649" y2="43.4049"/><linearGradient id="c" gradientUnits="userSpaceOnUse" x1="1038.61" x2="1532.16" xlink:href="#a" y1="2278.21" y2="1958.05"/><path d="m84.1499 47.9249-31.18-31.0999-3-3-23.42 23.42-10.72 10.6799c-.2664.2657-.4778.5813-.622.9288s-.2184.72-.2184 1.0963c0 .3762.0742.7487.2184 1.0962s.3556.6631.622.9287l21.42 21.46 12.72 12.74 23.47-23.4399.36-.36 10.35-10.3601c.2724-.2663.4889-.5844.6366-.9356.1478-.3512.224-.7283.224-1.1094 0-.381-.0762-.7581-.224-1.1093-.1477-.3512-.3642-.6693-.6366-.9357zm-34.18 12.7701-10.7-10.7001 10.7-10.6999 10.7 10.6999z" fill="#2684ff"/><path d="m49.9698 39.2949c-3.3494-3.3721-5.2293-7.9321-5.2293-12.685s1.8799-9.3129 5.2293-12.685l-23.46 23.37 12.74 12.74z" fill="url(#b)"/><path d="m60.7198 49.9249-10.75 10.77c1.6751 1.6719 3.0041 3.6577 3.9108 5.8438s1.3734 4.5296 1.3734 6.8962c0 2.3667-.4667 4.7101-1.3734 6.8962s-2.2357 4.1719-3.9108 5.8438l23.5-23.47z" fill="url(#c)"/></svg>