<svg height="100" viewBox="0 0 100 100" width="100" xmlns="http://www.w3.org/2000/svg"><path d="m39.8071 64.45585c.11284-.7067.14198-51.8080167.03472-52.92295-8.7296 2.0683-17.4468 4.13475-26.19934 6.2079833v36.0225834c-4.50616 1.75195-8.9962 3.4965-13.485 5.2392-.02852-.01665-.05332-.0252834-.07688-.0419334-.01984-.0141833-.04464-.0357666-.0465-.0555-.01426-.13505-.03224-.2694833-.03224-.4063833-.00186-14.5551833-.00186-29.1122167-.00186-43.6316333.20088-.2466667.46066-.2775.68634-.3595167 12.82904-4.77855 25.6618-9.55216667 38.49208-14.33071667.44454-.16588333.84754-.24666666 1.34044-.10236666 7.0401 2.03191666 14.0864 4.04101666 21.13146 6.0569.1023.03083333.2046.0666.34968.11346666v61.34908337c-2.02306.5593166-4.02752 1.1186333-6.03446 1.6687-5.10818 1.4010666-10.22008 2.79165-15.32454 4.2032-.50034.13875-.93744.1282666-1.42848-.0518-12.61886-4.6385667-25.24392-9.2623334-37.86464-13.8885667-.24924-.0912667-.49352-.19425-.70308-.4150167 13.05472 1.7821667 26.10944 3.5624834 39.1623 5.3452667z" fill="#dc3e15" fill-rule="evenodd" transform="translate(19 13)"/></svg>