<svg height="100" viewBox="0 0 100 100" width="100" xmlns="http://www.w3.org/2000/svg"><g fill="#db351d" transform="translate(22 23)"><path d="m23.2613385 10.1789755c0-2.92393845-2.3701795-5.29411803-5.294118-5.29411803-2.9239384 0-5.2941179 2.37017958-5.2941179 5.29411803 0 2.9239384 2.3701795 5.294118 5.2941179 5.294118 2.9239385 0 5.294118-2.3701796 5.294118-5.294118zm0 0c0-1.26700623 1.0271115-2.29411768 2.2941177-2.29411768 1.2670061 0 2.2941176 1.02711145 2.2941176 2.29411768 0 5.4579508-4.4244025 9.8823533-9.8823533 9.8823533s-9.88235323-4.4244025-9.88235323-9.8823533c0-5.45795082 4.42440243-9.88235331 9.88235323-9.88235331s9.8823533 4.42440249 9.8823533 9.88235331c0 1.2670062-1.0271115 2.2941176-2.2941176 2.2941176-1.2670062 0-2.2941177-1.0271114-2.2941177-2.2941176zm-17.32804825 28.247194c.45461188-5.6818277 5.04031305-8.9531083 12.03393025-8.9531083 6.2670404 0 10.6642786 2.6733501 11.7756237 7.3018317.2958132 1.2319899 1.5343424 1.9909112 2.7663323 1.6950978 1.2319899-.2958131 1.9909111-1.5343422 1.6950981-2.7663321-1.6681955-6.9476274-8.0357162-10.8188327-16.2370541-10.8188327-9.17625601 0-15.93938722 4.8245836-16.6075497 13.1754086l-.66768645 8.3452182c-.10680098 1.334874.94767014 2.4770813 2.28681 2.4770813h23.25041425c1.2670061 0 2.2941176-1.0271114 2.2941176-2.2941176 0-1.2670063-1.0271115-2.2941177-2.2941176-2.2941177h-20.76541722zm40.01761635-21.1883705c0-2.9239384-2.3701797-5.294118-5.294118-5.294118-2.9239384 0-5.294118 2.3701796-5.294118 5.294118s2.3701796 5.294118 5.294118 5.294118c2.9239383 0 5.294118-2.3701796 5.294118-5.294118zm0 0c0-1.2670062 1.0271114-2.2941176 2.2941176-2.2941176 1.2670063 0 2.2941177 1.0271114 2.2941177 2.2941176 0 5.4579508-4.4244025 9.8823533-9.8823533 9.8823533s-9.8823533-4.4244025-9.8823533-9.8823533 4.4244025-9.88235329 9.8823533-9.88235329 9.8823533 4.42440249 9.8823533 9.88235329c0 1.2670062-1.0271114 2.2941176-2.2941177 2.2941176-1.2670062 0-2.2941176-1.0271114-2.2941176-2.2941176z"/><path d="m52.6907193 45.4850005c-.4546122-5.6818352-5.0403134-8.9531157-12.0339307-8.9531157s-11.5793185 3.2712805-12.0339303 8.9531083l-.4694989 5.8681291h25.0068581zm2.9544953 10.456357h-29.9768522c-1.3391399 0-2.393611-1.1422073-2.28681-2.4770813l.6676864-8.3452182c.6681625-8.3508251 7.4312937-13.1754085 16.6075498-13.1754085 9.176256 0 15.9393872 4.8245834 16.6075503 13.1754159l.6676857 8.3452108c.106801 1.334874-.94767 2.4770813-2.28681 2.4770813z"/></g></svg>