<svg height="100" viewBox="0 0 100 100" width="100" xmlns="http://www.w3.org/2000/svg"><g fill="none" fill-rule="evenodd" transform="translate(15 26)"><path d="m29.134 5.3732c2.2561-2.3499 5.3956-3.8073 8.8683-3.8073 4.6158 0 8.6429 2.5739 10.7877 6.3952 1.9183227-.85671211 3.996069-1.298263 6.097-1.2957 8.3258 0 15.0752 6.8082 15.0752 15.2068 0 8.3993-6.7494 15.2075-15.0752 15.2075-.9971928.0004729-1.9919365-.0987201-2.9694-.2961-1.8886 3.3691-5.488 5.6455-9.618 5.6455-1.729 0-3.3649-.3997-4.8216-1.1102-1.9145 4.5038-6.3749 7.6615-11.5738 7.6615-5.4138 0-10.0282-3.4258-11.7992-8.2299-.7884736.1668588-1.5922646.2506164-2.3982.2499-6.4463 0-11.6718-5.2794-11.6718-11.7929 0-4.3652 2.3478-8.176 5.8366-10.2151-.73942666-1.7021192-1.11998158-3.5384098-1.1179-5.3942-.0007-7.4907 6.0809-13.5632 13.5821-13.5632 4.4037 0 8.3174 2.0937 10.7989 5.3382" fill="#00a1e0"/><g fill="#fff"><path d="m10.1633 25.417c-.0441.1141.0161.1386.0301.1582.1316.0959.2646.1645.399.2408.714.3787 1.3867.4893 2.0909.4893 1.435 0 2.3254-.763 2.3254-1.9915v-.0238c0-1.1354-1.0052-1.5477-1.9488-1.8459l-.1225-.0399c-.7112-.231-1.3244-.4298-1.3244-.8981v-.0252c0-.4004.3584-.6951.9142-.6951.6174 0 1.351.2051 1.8228.4662 0 0 .1386.0896.189-.0448.028-.0714.2674-.7154.2919-.7847.0273-.0763-.021-.1316-.07-.161-.539-.329-1.2838-.553-2.0545-.553l-.1435.0014c-1.3125 0-2.2295.7931-2.2295 1.9299v.0238c0 1.1984 1.0115 1.5869 1.9586 1.8578l.1526.0469c.6902.2121 1.2845.3941 1.2845.8806v.0238c0 .4438-.3864.7749-1.0094.7749-.6544212.0046414-1.2962145-.1801173-1.848-.532-.1008-.0588-.1596-.1015-.2373-.1484-.0406-.0259-.1435-.0707-.1883.0644zm20.9993 0c-.0441.1141.0161.1386.0301.1582.1309.0959.2646.1645.399.2408.714.3787 1.3867.4893 2.0909.4893 1.435 0 2.3247-.763 2.3247-1.9915v-.0238c0-1.1354-1.0045-1.5477-1.9481-1.8459l-.1225-.0399c-.7112-.231-1.3251-.4298-1.3251-.8981v-.0252c0-.4004.3591-.6951.9149-.6951.6174 0 1.351.2051 1.8228.4662 0 0 .1386.0896.189-.0448.028-.0714.2674-.7154.2919-.7847.0273-.0763-.021-.1316-.07-.161-.539-.329-1.2838-.553-2.0545-.553l-.1435.0014c-1.3132 0-2.2295.7931-2.2295 1.9299v.0238c0 1.1984 1.0115 1.5869 1.9586 1.8578l.1526.0469c.6902.2121 1.2859.3941 1.2859.8806v.0238c0 .4438-.3878.7749-1.0115.7749-.6544212.0046414-1.2962145-.1801173-1.848-.532-.1001-.0588-.1596-.0994-.2359-.1484-.0259-.0168-.147-.0637-.189.0644zm14.3353-2.4059c0 .6944-.1295 1.2411-.385 1.6275-.252.3822-.6328.5691-1.1648.5691-.5327 0-.9128-.1855-1.1606-.5691-.2506-.385-.378-.9331-.378-1.6275 0-.693.1274-1.239.378-1.6219.2478-.378.6279-.5628 1.1606-.5628.532 0 .9135.1841 1.1662.5628.2541.3829.3836.9282.3836 1.6219zm1.197-1.2873c-.1082986-.3801918-.2936766-.7340301-.5446-1.0395-.2507916-.2984721-.5647079-.5375553-.9191-.7-.3654-.1701-.798-.2562-1.2831-.2562-.4858 0-.9184.0861-1.2838.2569-.3668.1708-.6755.406-.9205.6993-.2429.2926-.427.6433-.5453 1.0395-.1195795.4185263-.1785128.8520401-.175 1.2873 0 .4592.0588.8925.175 1.2866.119.3969.301.7476.546 1.0402.2443.2926.5537.5271.9198.693.3661.1666.798.2513 1.2838.2513.4851 0 .917-.084 1.2831-.2513.3548283-.1585275.6690782-.3954715.9191-.693.2443-.2919.427-.6426.5453-1.0402.1204054-.4181438.1798181-.8514793.1764-1.2866 0-.4585-.0588-.8918-.1764-1.2873zm9.8329 3.2984c-.0399-.1169-.1526-.0728-.1526-.0728-.1793652.0726398-.3658994.1261364-.5565.1596-.2002.0308-.42.0462-.6566.0462-.5796 0-1.0402-.1722-1.3699-.5124-.3304-.3409-.5159-.8918-.5138-1.6366.0021-.679.1652-1.1886.4592-1.5771.2919-.3864.7364-.5845 1.3286-.5845.4942 0 .8708.056 1.2656.1813 0 0 .0945.0406.1393-.0833.105-.2905.182-.4984.294-.819.0315-.0903-.0462-.1288-.0742-.14-.2595687-.0903228-.5266056-.1575505-.798-.2009-.2978788-.0428571-.5985628-.0632147-.8995-.0609-.5026 0-.9506.0854-1.3342.2569-.3684641.1600304-.6976327.3984268-.9646.6986-.2569.2926-.4522.6433-.5824 1.0395-.1330277.4167496-.1991813.8519454-.196 1.2894 0 .9926.2688 1.7955.798 2.3835.5292.5894 1.3251.889 2.3632.889.6139 0 1.2432-.1239 1.6954-.3024 0 0 .0868-.042.049-.1421zm2.0951-2.6761c.056-.3857.1631-.707.3276-.9562.2478-.3801.6265-.588 1.1585-.588s.8834.2093 1.1354.588c.168.2499.2401.5845.2688.9562h-2.891zm4.0313-.8477c-.1023734-.3500617-.2795959-.6736956-.5194-.9485-.2611-.2807-.5159-.4774-.7686-.5866-.3675396-.1558601-.7627791-.2358604-1.162-.2352-.5054 0-.9646.084-1.337.2597-.3738.175-.6881.4144-.9338.7126-.2464.2968-.4312.651-.5488 1.0521-.1213995.4203722-.1815187.8560597-.1785 1.2936 0 .4669.0616.903.1841 1.2943.1239.3941.3213.742.588 1.0297.266.2898.609.5173 1.0192.6755.4074.1575.9023.2387 1.4714.238 1.1704-.0042 1.7864-.2653 2.0405-.406.0448-.0245.0882-.0679.0343-.1939l-.2653-.742c-.0399-.1106-.1526-.07-.1526-.07-.2898.1078-.7021.301-1.6632.2989-.6286-.0007-1.0948-.1862-1.386-.476-.301-.2968-.4466-.7329-.4725-1.3489l4.053.0042s.1064-.0021.1176-.105c.0042-.0441.14-.833-.1204-1.7465zm-36.4917.8477c.0574-.3857.1631-.707.3276-.9562.2478-.3801.6265-.588 1.1585-.588s.8834.2093 1.1368.588c.1659.2499.2387.5845.2674.9562h-2.891zm4.0299-.8477c-.1019379-.3499497-.2786797-.6735784-.518-.9485-.2604-.2807-.5159-.4774-.7686-.5866-.3675396-.1558601-.7627791-.2358604-1.162-.2352-.504 0-.9646.084-1.337.2597-.3738.175-.6874.4144-.9338.7126-.2457.2968-.4312.651-.5488 1.0521-.120915.4204749-.1810245.856092-.1785 1.2936 0 .4669.0623.903.1848 1.2943.1232.3941.3206.742.588 1.0297.266.2898.6083.5173 1.0185.6755.4074.1575.903.2387 1.4714.238 1.1704-.0042 1.7871-.2653 2.0405-.406.0455-.0245.0882-.0679.0343-.1939l-.2639-.742c-.0413-.1106-.154-.07-.154-.07-.2891.1078-.7007.301-1.6639.2989-.6279-.0007-1.0941-.1862-1.386-.476-.2996-.2968-.4459-.7329-.4718-1.3489l4.053.0042s.1064-.0021.1176-.105c.0042-.0441.14-.833-.1218-1.7465zm-12.7904 3.5014c-.1589-.126-.1806-.1582-.2345-.2401-.0798-.1246-.1204-.3017-.1204-.5271 0-.357.1169-.6125.3612-.7847-.0028.0007.3486-.3038 1.176-.2926.5803.0077 1.099.0931 1.099.0931v1.8431h.0014s-.5152.1106-1.0948.1456c-.8246.049-1.1914-.238-1.1886-.2373zm1.6121-2.8476c-.1645-.0119-.378-.0189-.6328-.0189-.3472 0-.6832.0434-.9975.1281-.3171.0847-.602.217-.847.392-.244902.1748278-.4461288.403843-.588.6692-.1435.2667-.2156.581-.2156.9338 0 .3591.0616.6706.1848.9254.1239.2562.3017.469.5292.6335.2254.1645.5033.2849.826.3577.3178.0728.6783.1099 1.0724.1099.4158 0 .8302-.0343 1.232-.1029.3414896-.0586887.681759-.1242687 1.0206-.1967.1344-.0322.2835-.0728.2835-.0728.1008-.0252.0931-.133.0931-.133l-.0021-3.7065c0-.812-.217-1.4154-.6447-1.7885-.4256-.3731-1.0521-.5614-1.862-.5614-.3038 0-.7924.042-1.085.1008 0 0-.8862.1715-1.2509.4564 0 0-.0791.0497-.035.161l.2863.7714c.0357.0994.133.0658.133.0658s.0301-.0119.0665-.0329c.7798-.4242 1.7661-.4116 1.7661-.4116.4382 0 .7749.0875 1.0017.2618.2212.1694.3339.4256.3339.966v.1708c-.3486-.0497-.6685-.0784-.6685-.0784zm32.6907-2.0888c.0119193-.0273156.0121564-.0583161.0006562-.0858108s-.0337383-.0490944-.0615562-.0597892c-.0686-.0266-.413-.0994-.679-.1162-.5089-.0308-.7917.0546-1.0451.168-.2506.1141-.5299.2968-.6853.5054v-.4935c0-.0686-.049-.1232-.1162-.1232h-1.0395c-.0672 0-.1162.0546-.1162.1232v6.0459c0 .0672.056.1232.1232.1232h1.0654c.0672 0 .1225-.056.1225-.1232v-3.0205c0-.406.0448-.8099.1344-1.064.0875-.2506.2072-.4522.3542-.5964.1484-.1435.3171-.2443.5012-.301.1767669-.0511631.3598778-.0770861.5439-.077.2121 0 .4452.0553.4452.0553.0777.0091.1218-.0392.147-.1099.07-.1848.2674-.7399.3052-.8505z"/><path d="m41.7095 17.262c-.131459-.0398337-.2651592-.0718563-.4004-.0959-.1820629-.0299909-.3663948-.0440441-.5509-.042-.7329 0-1.3104.2072-1.7164.616-.4032.406-.6769 1.0248-.8148 1.8382l-.049.2744h-.9212s-.1113-.0042-.1351.1176l-.1505.8435c-.0112.0798.0238.1302.1316.1302h.896l-.9093 5.0722c-.0534811.3392846-.1347205.673607-.2429.9996-.0889.2506-.175.4389-.2828.5768-.1036.1309-.2016.2289-.371.2856-.1393.0469-.301.0686-.4767.0686-.098 0-.2282-.0161-.3248-.0357-.075604-.0146961-.1491658-.0384332-.2191-.0707 0 0-.105-.0399-.147.0644l-.3003.8239c-.028.0812.0119.1435.063.1624.119.042.2079.07.3703.1085.2254.0532.4151.056.5936.056.3724 0 .714-.0525.9954-.154.2828-.1029.5299-.2814.749-.5222.2359-.2611.385-.5341.5257-.9079.14-.3682.2611-.826.357-1.3601l.9135-5.1674h1.3342s.1127.0042.1358-.1183l.1512-.8428c.0105-.0805-.0238-.1302-.1323-.1302h-1.2957c.007-.0294.0658-.4851.2142-.9149.063-.182.1827-.3304.2835-.4319.0994-.1001.2142-.1708.3395-.2114.1288-.042.2751-.0616.4354-.0616.1218 0 .2422.014.3332.0329.1253.0266.1743.0406.2072.0504.1323.0399.1498.0014.1757-.063l.3101-.8505c.0322-.091-.0469-.1302-.0749-.1414zm-18.1069 8.7654c0 .0679-.049.1225-.1162.1225h-1.0752c-.0672 0-.1155-.0546-.1155-.1225v-8.6499c0-.0679.0483-.1225.1155-.1225h1.0752c.0679 0 .1162.0546.1162.1225z"/></g></g></svg>