<svg fill="none" height="100" viewBox="0 0 100 100" width="100" xmlns="http://www.w3.org/2000/svg"><path clip-rule="evenodd" d="m50 15c-18.9 0-35 15.4-35 34.65 0 10.15 4.2 19.2501 10.85 25.9001 2.45 2.45 6.3 2.45 9.1.35 3.85-3.15 9.1-4.9 15.05-4.9s10.85 1.75 15.05 4.9c2.8 2.1 6.65 1.75 9.1-.7 6.65-6.3 10.85-15.4001 10.85-25.5501-.35-18.9-15.75-34.65-35-34.65zm-.35 52.5001c-10.15 0-17.5-7.7001-17.5-17.5001s7-17.5 17.5-17.5 17.5 8.05 17.5 17.5-7 17.5001-17.5 17.5001z" fill="#82b6a1" fill-rule="evenodd"/></svg>