<svg fill="none" height="100" viewBox="0 0 100 100" width="100" xmlns="http://www.w3.org/2000/svg" xmlns:xlink="http://www.w3.org/1999/xlink"><linearGradient id="a" gradientUnits="userSpaceOnUse" x1="21.2216" x2="44.5924" y1="29.5987" y2="70.0757"><stop offset="0" stop-color="#058f92"/><stop offset=".5" stop-color="#038489"/><stop offset="1" stop-color="#026d71"/></linearGradient><path d="m50.814 54.7209c10.7888 0 19.5348-8.746 19.5348-19.5348s-8.746-19.5349-19.5348-19.5349c-10.7889 0-19.5349 8.7461-19.5349 19.5349s8.746 19.5348 19.5349 19.5348z" fill="#036c70"/><path d="m67.093 71c9.8898 0 17.907-8.0172 17.907-17.907 0-9.8897-8.0172-17.9069-17.907-17.9069-9.8897 0-17.9069 8.0172-17.9069 17.9069 0 9.8898 8.0172 17.907 17.9069 17.907z" fill="#1a9ba1"/><path d="m53.2558 84.0232c7.6421 0 13.8372-6.1951 13.8372-13.8372 0-7.642-6.1951-13.8372-13.8372-13.8372s-13.8372 6.1952-13.8372 13.8372c0 7.6421 6.1951 13.8372 13.8372 13.8372z" fill="#37c6d0"/><g fill="#000"><path d="m54.0697 33.2814v34.7395c-.008 1.2071-.7395 2.2916-1.8558 2.7512-.3554.1503-.7373.2278-1.1232.2279h-11.6558c-.0163-.2768-.0163-.5372-.0163-.814-.0054-.2717.0055-.5435.0326-.8139.2979-5.2037 3.5036-9.795 8.286-11.8675v-3.0279c-10.6434-1.6866-17.9043-11.6821-16.2177-22.3255.0117-.0737.0238-.1474.0364-.221.081-.549.1952-1.0926.3418-1.6278h19.193c1.6427.0062 2.9728 1.3363 2.979 2.979z" opacity=".1"/><path d="m49.4628 31.9302h-17.907c-1.8089 10.6243 5.3373 20.7033 15.9615 22.5123.3217.0548.6447.1015.9687.14-5.0465 2.3931-8.7239 9.1896-9.0365 14.7895-.027.2705-.0379.5423-.0325.814 0 .2768 0 .5372.0162.814.0294.5472.1002 1.0914.2117 1.6279h9.8162c1.2071-.0081 2.2916-.7396 2.7512-1.8559.1503-.3553.2278-.7373.2279-1.1232v-34.7395c-.0062-1.642-1.3353-2.9719-2.9774-2.9791z" opacity=".2"/><path d="m49.4628 31.9302h-17.907c-1.8085 10.6252 5.3388 20.7048 15.964 22.5134.2173.037.4352.0703.6537.0999-4.8837 2.5656-8.4162 9.3458-8.7223 14.8286h10.0116c1.6401-.0124 2.9667-1.339 2.9791-2.9791v-31.4837c-.0063-1.6427-1.3364-2.9728-2.9791-2.9791z" opacity=".2"/><path d="m47.8349 31.9302h-16.2791c-1.7077 10.0303 4.5774 19.6896 14.4396 22.1916-3.7343 4.2666-6.0248 9.6042-6.5442 15.2503h8.3837c1.6427-.0063 2.9728-1.3364 2.9791-2.9791v-31.4837c-.0009-1.6449-1.3342-2.9781-2.9791-2.9791z" opacity=".2"/></g><path d="m17.984 31.9302h29.846c1.648 0 2.9839 1.336 2.9839 2.984v29.846c0 1.648-1.3359 2.9839-2.9839 2.9839h-29.846c-1.648 0-2.984-1.3359-2.984-2.9839v-29.846c0-1.648 1.336-2.984 2.984-2.984z" fill="url(#a)"/><path d="m28.3277 49.4726c-.6993-.4639-1.2834-1.0814-1.7077-1.8054-.4111-.7569-.616-1.6085-.5942-2.4695-.0366-1.1658.3568-2.3044 1.1054-3.1989.7866-.8956 1.8033-1.5588 2.94-1.9177 1.2954-.4264 2.6523-.6365 4.016-.6218 1.7934-.0655 3.5843.1852 5.2907.7407v3.7442c-.7415-.4492-1.549-.7788-2.393-.9767-.9158-.2246-1.8555-.3372-2.7984-.3354-.9943-.0365-1.9823.1726-2.8765.6088-.6904.2978-1.1381.977-1.1395 1.7289-.0029.4561.1724.8952.4883 1.2242.3732.3878.8147.7034 1.3024.9311.5426.2703 1.3566.6295 2.4418 1.0777.1195.0378.236.0846.3484.14 1.0681.4175 2.0985.9256 3.08 1.5189.7432.4582 1.367 1.0865 1.82 1.833.4644.8462.6895 1.8029.6512 2.7674.053 1.1969-.3132 2.3748-1.0354 3.3307-.7198.8788-1.6822 1.5265-2.7674 1.8623-1.2764.4001-2.6086.5935-3.9461.5731-1.2.0054-2.3982-.0926-3.5814-.2931-.999-.1635-1.9739-.4499-2.9025-.853v-3.9477c.8876.634 1.8793 1.1078 2.9302 1.4 1.0474.3264 2.1361.5008 3.233.5177 1.0153.0643 2.0287-.1507 2.9303-.6218.6316-.3564 1.0157-1.0315.9995-1.7565.0042-.5045-.1953-.9894-.5535-1.3447-.4453-.4372-.961-.7965-1.5253-1.063-.6511-.3256-1.61-.7548-2.8765-1.2877-1.0076-.4051-1.9723-.9095-2.8798-1.5058z" fill="#fff"/></svg>