<svg height="100" viewBox="0 0 100 100" width="100" xmlns="http://www.w3.org/2000/svg" xmlns:xlink="http://www.w3.org/1999/xlink"><mask id="a"><path d="m912 1779h100v100h-100z" fill="#fff"/></mask><g transform="translate(-912 -1779)"><path d="m912 1779h100v100h-100z" fill="#fff"/><g fill="#03363d" mask="url(#a)"><path d="m32.3348.0000004v36.7933996h-32.3347981z" transform="translate(927 1817.21)"/><path d="m32.3348-.0000003c0 4.0412803-1.7033 7.9170403-4.7353 10.7747003-3.032 2.8576-7.1442 4.463-11.4321 4.463s-8.4001-1.6054-11.43207-4.463c-3.03198-2.85766-4.7353281-6.73342-4.7353281-10.7747003z" transform="translate(927 1804)"/><path d="m-.00000169 15.2377c0-4.0413 1.70334169-7.91708 4.73532169-10.77469 3.03198-2.85762 7.14418-4.46301119 11.43208-4.46301119s8.4001 1.60539119 11.4321 4.46301119c3.032 2.85761 4.7353 6.73339 4.7353 10.77469z" transform="translate(964.662 1838.76)"/><path d="m-.00000169 36.7934v-36.7934003h32.33830169z" transform="translate(964.662 1804)"/></g></g></svg>