<?xml version="1.0" encoding="utf-8"?>
<!-- Generator: Adobe Illustrator 21.0.2, SVG Export Plug-In . SVG Version: 6.00 Build 0)  -->
<svg version="1.1" id="Layer_1" xmlns="http://www.w3.org/2000/svg" xmlns:xlink="http://www.w3.org/1999/xlink" x="0px" y="0px"
	 width="20px" height="20px" viewBox="0 0 20 20" style="enable-background:new 0 0 20 20;" xml:space="preserve">
<style type="text/css">
	.st0{fill:#FFFFFF;}
</style>
<g>
	<path class="st0" d="M1.9,12.4h2.8l1.6-3c0.1-0.2,0.3-0.3,0.5-0.3c0.2,0,0.4,0.1,0.4,0.3l1.5,4.2l2.5-7.8c0.1-0.2,0.2-0.3,0.5-0.3
		c0.3,0,0.4,0.1,0.5,0.3l2.6,6.5h3.2l0.2-0.2c2.3-2.3,2.2-6-0.1-8.3C16,1.6,12.3,1.5,10,3.7c-2.3-2.3-6-2.3-8.3,0
		c-2.3,2.3-2.3,6.1,0,8.5L1.9,12.4z"/>
	<path class="st0" d="M14.5,13.4c-0.2,0-0.4-0.1-0.5-0.3l-2.2-5.6l-2.6,7.9c-0.1,0.2-0.3,0.3-0.5,0.3c0,0,0,0,0,0
		c-0.2,0-0.4-0.1-0.5-0.3l-1.6-4.5l-1.2,2.3c-0.1,0.2-0.3,0.3-0.4,0.3H2.9l5.8,5.9c0,0,0,0,0,0C9,19.7,9.4,19.9,9.7,20c0,0,0,0,0,0
		c0.1,0,0.1,0,0.2,0c0.1,0,0.1,0,0.2,0c0,0,0,0,0,0c0.3,0,0.6-0.2,0.9-0.4l6-6.1H14.5z"/>
</g>
</svg>
