<svg xmlns="http://www.w3.org/2000/svg" xml:space="preserve" viewBox="0 0 78.937 76.088"><path d="M14.925 56.097H0c.024-23.678 6.285-38.715 6.285-38.715-1.998 25.476 8.64 38.715 8.64 38.715M75.204 0S27.815 18.717 19.031 56.097h39.892S30.274 48.593 75.204 0" style="fill:#0088ce"/><path d="M27.849 66.221v2.253h.037q.448-1.173 1.387-1.806.94-.632 2.243-.577v.982c-1.299 0-2.262.813-2.579 1.123q-.475.464-.735 1.107a3.7 3.7 0 0 0-.261 1.405v5.12h-1.173v-9.606h1.081zm-6.932 0v9.606h1.173v-5.12q0-.762.261-1.405.26-.643.735-1.107c.317-.31 1.28-1.123 2.578-1.123v-.982q-1.304-.055-2.243.577-.94.633-1.387 1.806h-.037V66.22h-1.08zm25.081 1.323q.651.615.893 1.694h1.173q-.206-1.657-1.276-2.475-1.07-.82-2.615-.82-1.098 0-1.945.41a4.2 4.2 0 0 0-1.423 1.098q-.578.69-.875 1.61a6.4 6.4 0 0 0-.298 1.965q0 1.041.298 1.964.297.92.875 1.61.577.688 1.423 1.089.847.4 1.945.4 1.638 0 2.681-.977 1.043-.978 1.284-2.727h-1.172a3.2 3.2 0 0 1-.298 1.098 3 3 0 0 1-.614.866 2.8 2.8 0 0 1-.856.568 2.6 2.6 0 0 1-1.024.204q-.837 0-1.471-.354a3.2 3.2 0 0 1-1.052-.93 4.2 4.2 0 0 1-.632-1.313 5.36 5.36 0 0 1 0-2.997q.214-.735.632-1.312a3.3 3.3 0 0 1 1.052-.931q.634-.354 1.471-.354 1.172-.001 1.824.614m10.753 8.283v-9.606h-1.173v5.045q0 .725-.167 1.424a3.9 3.9 0 0 1-.521 1.237q-.353.54-.893.865-.54.326-1.303.326-1.397 0-1.963-.67-.57-.67-.605-1.973v-6.254h-1.173v6.236q0 .857.186 1.527.187.67.586 1.135.4.466 1.043.717.64.25 1.554.251 1.08 0 1.964-.512a3.32 3.32 0 0 0 1.349-1.48h.038v1.731h1.078zm9.788 0v-13.29h-1.172v5.509h-.038a2.8 2.8 0 0 0-.53-.911 3.4 3.4 0 0 0-.792-.661 3.5 3.5 0 0 0-.958-.4 4.3 4.3 0 0 0-1.052-.131q-1.097 0-1.908.41a3.9 3.9 0 0 0-1.349 1.107 4.7 4.7 0 0 0-.8 1.619 7 7 0 0 0-.261 1.946q0 1.023.261 1.946.259.92.8 1.619.541.697 1.349 1.098.81.4 1.908.4a3.9 3.9 0 0 0 1.052-.149q.53-.148.995-.418.466-.269.828-.661.363-.391.549-.857h.038v1.825zm-7.51-3.322a6.3 6.3 0 0 1 0-2.96q.176-.735.558-1.313.381-.576.977-.939t1.433-.363q.93 0 1.574.363.642.364 1.042.939.4.578.576 1.313.177.736.178 1.479 0 .745-.178 1.481a3.8 3.8 0 0 1-.576 1.311 3.1 3.1 0 0 1-1.042.94q-.642.363-1.574.363-.836 0-1.433-.363c-.597-.363-.723-.555-.977-.94a4.1 4.1 0 0 1-.558-1.311m-20.682-4.9q.317.605.317 1.573l-.002 6.65h-1.115v-1.675a8 8 0 0 1-.642.828q-.326.363-.727.605a3.4 3.4 0 0 1-.912.372q-.512.131-1.219.13a4.8 4.8 0 0 1-1.257-.158 2.8 2.8 0 0 1-1.023-.503 2.4 2.4 0 0 1-.689-.875q-.252-.53-.252-1.256 0-1.005.447-1.573a2.8 2.8 0 0 1 1.183-.864 6.7 6.7 0 0 1 1.656-.419q.92-.12 1.871-.233a7 7 0 0 0 .651-.092 1.2 1.2 0 0 0 .466-.195.9.9 0 0 0 .289-.382q.102-.242.103-.633c0-.396-.066-.578-.195-.833a1.55 1.55 0 0 0-.54-.604 2.2 2.2 0 0 0-.801-.308 5.5 5.5 0 0 0-.976-.084h-2.113v-.983h2.331q.599.006 1.196.118.633.122 1.136.456.5.332.817.938m-.856 2.973h-.038q-.112.205-.428.298a4 4 0 0 1-.558.13q-.745.13-1.535.233a8.3 8.3 0 0 0-1.443.306q-.651.206-1.071.587-.418.383-.418 1.089 0 .447.176.792.176.344.474.595.298.252.689.382.392.13.801.13a4 4 0 0 0 1.285-.204q.614-.204 1.071-.595.455-.391.726-.95t.27-1.266zm-18.626-2.973q.317.605.317 1.573l-.002 6.65h-1.115v-1.675a8 8 0 0 1-.642.828 3.2 3.2 0 0 1-.727.605 3.3 3.3 0 0 1-.912.372q-.51.131-1.219.13-.67 0-1.256-.158a2.8 2.8 0 0 1-1.024-.503 2.4 2.4 0 0 1-.688-.875q-.252-.53-.252-1.256 0-1.005.447-1.573a2.8 2.8 0 0 1 1.182-.864 6.7 6.7 0 0 1 1.656-.419q.922-.12 1.872-.233.373-.037.652-.092.278-.057.465-.195a.9.9 0 0 0 .29-.382q.101-.242.102-.633c0-.396-.065-.578-.195-.833a1.54 1.54 0 0 0-.541-.604 2.2 2.2 0 0 0-.799-.308 5.5 5.5 0 0 0-.978-.084h-2.112v-.983h2.331q.598.006 1.196.118.633.122 1.135.456.5.332.817.938m-.856 2.973h-.037q-.113.205-.428.298a4 4 0 0 1-.558.13 35 35 0 0 1-1.536.233 8.3 8.3 0 0 0-1.442.306q-.653.206-1.072.587-.419.382-.419 1.089 0 .447.177.792.177.344.474.595.298.252.689.382.392.13.801.13a4 4 0 0 0 1.285-.204 3.2 3.2 0 0 0 1.071-.595q.456-.391.725-.95a2.9 2.9 0 0 0 .271-1.266v-1.527zm56.89-2.973q.317.605.317 1.572l-.002 6.651H74.1v-1.676a8 8 0 0 1-.642.828 3.16 3.16 0 0 1-1.639.977q-.511.13-1.219.13a4.8 4.8 0 0 1-1.256-.158 2.8 2.8 0 0 1-1.023-.503 2.4 2.4 0 0 1-.689-.875q-.25-.53-.251-1.256 0-1.005.447-1.573a2.8 2.8 0 0 1 1.183-.864 6.7 6.7 0 0 1 1.656-.42 147 147 0 0 1 1.871-.233q.372-.037.651-.093t.465-.195a.9.9 0 0 0 .289-.382q.103-.242.103-.633c0-.396-.066-.578-.196-.833a1.55 1.55 0 0 0-.539-.605 2.2 2.2 0 0 0-.8-.307 5.4 5.4 0 0 0-.977-.085h-2.113v-.982h2.331q.6.005 1.197.118.632.121 1.136.456.496.335.814.941m-.856 2.973h-.037q-.112.205-.428.299a4 4 0 0 1-.559.13q-.746.13-1.535.232a8.4 8.4 0 0 0-1.444.307q-.651.206-1.07.588-.418.381-.418 1.088 0 .446.177.791.177.343.473.595.299.253.689.382.392.13.8.13.67 0 1.284-.204.615-.205 1.07-.596t.726-.949q.27-.558.27-1.266v-1.527zM0 62.142v13.686h5.789q1.112 0 1.907-.201.795-.2 1.342-.517.546-.316.872-.738a3.56 3.56 0 0 0 .728-1.697q.057-.412.057-.738 0-1.341-.786-2.252T7.8 68.603v-.039q.537-.115.968-.402a3.12 3.12 0 0 0 1.236-1.619q.173-.507.173-1.045 0-.958-.365-1.6a2.94 2.94 0 0 0-.968-1.035 4 4 0 0 0-1.399-.556 8.3 8.3 0 0 0-1.658-.163H0zm1.304 6v-4.888h4.485q3.086 0 3.086 2.569 0 .48-.192.9-.192.422-.575.738-.384.316-.958.498-.575.182-1.361.182zm0 6.574v-5.462h4.485q1.744 0 2.674.661.93.66.93 1.984 0 .824-.287 1.371a2.3 2.3 0 0 1-.786.872 3.2 3.2 0 0 1-1.15.45 7.4 7.4 0 0 1-1.38.125zm76.167.655h-.227v-1.383h.525q.25 0 .378.094.127.094.127.304 0 .187-.104.274a.48.48 0 0 1-.257.104l.388.608h-.257l-.358-.591h-.214zm.254-.785q.063 0 .122-.005a.3.3 0 0 0 .102-.028.2.2 0 0 0 .07-.065.2.2 0 0 0 .027-.119.16.16 0 0 0-.028-.1.2.2 0 0 0-.072-.057.3.3 0 0 0-.097-.025 1 1 0 0 0-.103-.005h-.274v.404zm-.005 1.293a1.22 1.22 0 0 1-1.217-1.217c0-.671.546-1.217 1.217-1.217s1.217.546 1.217 1.217-.546 1.217-1.217 1.217m0-2.296a1.08 1.08 0 0 0 0 2.156 1.078 1.078 0 0 0 0-2.156" style="fill:#000006"/></svg>