<?xml version="1.0" encoding="utf-8"?>
<!-- Generator: Adobe Illustrator 22.1.0, SVG Export Plug-In . SVG Version: 6.00 Build 0)  -->
<svg version="1.1" id="Layer_1" xmlns="http://www.w3.org/2000/svg" xmlns:xlink="http://www.w3.org/1999/xlink" x="0px" y="0px"
	 viewBox="0 0 78.937 76.088" style="enable-background:new 0 0 78.937 76.088;" xml:space="preserve">
<style type="text/css">
	.st0{fill:#0088CE;}
	.st1{fill:#000006;}
</style>
<g>
	<path class="st0" d="M14.925,56.097H0c0.024-23.678,6.285-38.715,6.285-38.715C4.287,42.858,14.925,56.097,14.925,56.097z
		 M75.204,0c0,0-47.389,18.717-56.173,56.097h39.892C58.923,56.097,30.274,48.593,75.204,0z"/>
	<path class="st1" d="M27.849,66.221v2.253h0.037c0.299-0.782,0.76-1.384,1.387-1.806c0.626-0.421,1.375-0.614,2.243-0.577v0.982
		c-1.299,0-2.262,0.813-2.579,1.123c-0.317,0.31-0.561,0.678-0.735,1.107c-0.174,0.428-0.261,0.897-0.261,1.405v5.12h-1.173v-9.606
		H27.849z M20.917,66.221v9.606h1.173v-5.12c0-0.508,0.086-0.976,0.261-1.405c0.173-0.429,0.419-0.797,0.735-1.107
		c0.317-0.31,1.28-1.123,2.578-1.123v-0.982c-0.869-0.037-1.617,0.156-2.243,0.577c-0.626,0.422-1.089,1.024-1.387,1.806h-0.037
		v-2.253H20.917z M45.998,67.544c0.434,0.41,0.732,0.974,0.893,1.694h1.173c-0.138-1.105-0.562-1.929-1.276-2.475
		c-0.714-0.546-1.585-0.82-2.615-0.82c-0.732,0-1.38,0.137-1.945,0.41c-0.564,0.273-1.039,0.638-1.423,1.098
		c-0.386,0.46-0.677,0.996-0.875,1.61c-0.198,0.615-0.298,1.269-0.298,1.965c0,0.694,0.1,1.349,0.298,1.964
		c0.198,0.614,0.489,1.15,0.875,1.61c0.384,0.459,0.859,0.822,1.423,1.089c0.565,0.267,1.213,0.4,1.945,0.4
		c1.092,0,1.986-0.326,2.681-0.977c0.695-0.652,1.123-1.561,1.284-2.727h-1.172c-0.037,0.397-0.136,0.763-0.298,1.098
		c-0.161,0.335-0.367,0.624-0.614,0.866c-0.249,0.242-0.534,0.431-0.856,0.568c-0.323,0.136-0.664,0.204-1.024,0.204
		c-0.558,0-1.048-0.118-1.471-0.354c-0.422-0.235-0.772-0.545-1.052-0.93c-0.279-0.385-0.489-0.823-0.632-1.313
		c-0.142-0.49-0.214-0.99-0.214-1.498c0-0.51,0.071-1.009,0.214-1.499c0.143-0.49,0.353-0.928,0.632-1.312
		c0.28-0.384,0.63-0.694,1.052-0.931c0.423-0.236,0.913-0.354,1.471-0.354C44.955,66.929,45.564,67.134,45.998,67.544
		 M56.751,75.827v-9.606h-1.173v5.045c0,0.484-0.056,0.958-0.167,1.424c-0.111,0.464-0.286,0.878-0.521,1.237
		c-0.236,0.36-0.533,0.648-0.893,0.865c-0.36,0.217-0.794,0.326-1.303,0.326c-0.931,0-1.586-0.223-1.963-0.67
		c-0.38-0.447-0.581-1.105-0.605-1.973v-6.254h-1.173v6.236c0,0.571,0.062,1.08,0.186,1.527c0.125,0.447,0.32,0.825,0.586,1.135
		c0.267,0.31,0.615,0.55,1.043,0.717c0.427,0.167,0.945,0.251,1.554,0.251c0.72,0,1.374-0.17,1.964-0.512
		c0.589-0.341,1.039-0.834,1.349-1.48h0.038v1.731H56.751z M66.539,75.827V62.537h-1.172v5.509h-0.038
		c-0.125-0.348-0.302-0.651-0.53-0.911c-0.231-0.261-0.493-0.481-0.792-0.661c-0.297-0.18-0.617-0.313-0.958-0.4
		c-0.341-0.086-0.693-0.131-1.052-0.131c-0.731,0-1.368,0.137-1.908,0.41c-0.539,0.274-0.989,0.642-1.349,1.107
		c-0.361,0.465-0.627,1.006-0.8,1.619c-0.175,0.615-0.261,1.263-0.261,1.946c0,0.682,0.086,1.331,0.261,1.946
		c0.173,0.614,0.439,1.153,0.8,1.619c0.36,0.465,0.811,0.831,1.349,1.098c0.539,0.267,1.177,0.4,1.908,0.4
		c0.347,0,0.699-0.049,1.052-0.149c0.353-0.099,0.685-0.238,0.995-0.418c0.31-0.179,0.587-0.4,0.828-0.661
		c0.242-0.26,0.425-0.547,0.549-0.857h0.038v1.825H66.539z M59.029,72.505c-0.118-0.49-0.177-0.984-0.177-1.481
		c0-0.496,0.058-0.989,0.177-1.479c0.118-0.49,0.303-0.928,0.558-1.313c0.254-0.384,0.58-0.697,0.977-0.939
		c0.397-0.242,0.875-0.363,1.433-0.363c0.62,0,1.145,0.122,1.574,0.363c0.428,0.242,0.775,0.556,1.042,0.939
		c0.266,0.385,0.46,0.823,0.576,1.313c0.118,0.491,0.178,0.983,0.178,1.479c0,0.497-0.06,0.99-0.178,1.481
		c-0.116,0.49-0.31,0.927-0.576,1.311c-0.267,0.385-0.614,0.698-1.042,0.94c-0.428,0.242-0.953,0.363-1.574,0.363
		c-0.557,0-1.035-0.122-1.433-0.363s-0.723-0.555-0.977-0.94C59.332,73.432,59.147,72.995,59.029,72.505 M38.347,67.605
		c0.211,0.403,0.317,0.928,0.317,1.573l-0.002,6.65h-1.115v-1.675l0,0c-0.213,0.31-0.425,0.586-0.642,0.828
		c-0.217,0.242-0.46,0.444-0.727,0.605c-0.266,0.161-0.571,0.285-0.912,0.372c-0.342,0.088-0.747,0.13-1.219,0.13
		c-0.446,0-0.865-0.052-1.257-0.158c-0.39-0.105-0.732-0.272-1.023-0.503c-0.293-0.229-0.522-0.521-0.689-0.875
		c-0.168-0.353-0.252-0.772-0.252-1.256c0-0.67,0.149-1.195,0.447-1.573c0.299-0.377,0.691-0.666,1.183-0.864
		c0.49-0.199,1.042-0.339,1.656-0.419c0.614-0.08,1.237-0.158,1.871-0.233c0.247-0.024,0.465-0.056,0.651-0.092
		c0.186-0.038,0.341-0.103,0.466-0.195c0.124-0.094,0.22-0.221,0.289-0.382c0.067-0.161,0.103-0.372,0.103-0.633
		c0-0.396-0.066-0.578-0.195-0.833c-0.131-0.254-0.311-0.456-0.54-0.604c-0.23-0.149-0.496-0.252-0.801-0.308
		c-0.304-0.055-0.63-0.084-0.976-0.084h-2.113v-0.983h2.331c0.399,0.005,0.798,0.042,1.196,0.118c0.422,0.081,0.8,0.233,1.136,0.456
		C37.864,66.888,38.136,67.202,38.347,67.605 M37.491,70.578h-0.038c-0.075,0.137-0.217,0.236-0.428,0.298
		c-0.211,0.063-0.397,0.106-0.558,0.13c-0.497,0.087-1.008,0.165-1.535,0.233c-0.528,0.067-1.009,0.17-1.443,0.306
		c-0.434,0.137-0.791,0.333-1.071,0.587C32.139,72.387,32,72.751,32,73.221c0,0.298,0.058,0.562,0.176,0.792
		c0.117,0.23,0.276,0.427,0.474,0.595c0.198,0.168,0.429,0.295,0.689,0.382c0.262,0.087,0.528,0.13,0.801,0.13
		c0.446,0,0.875-0.067,1.285-0.204c0.41-0.136,0.766-0.335,1.071-0.595c0.303-0.261,0.546-0.577,0.726-0.95
		c0.179-0.372,0.27-0.794,0.27-1.266V70.578z M18.865,67.605c0.211,0.403,0.317,0.928,0.317,1.573l-0.002,6.65h-1.115v-1.675l0,0
		c-0.211,0.31-0.426,0.586-0.642,0.828c-0.217,0.242-0.459,0.444-0.727,0.605c-0.266,0.161-0.57,0.285-0.912,0.372
		c-0.34,0.088-0.746,0.13-1.219,0.13c-0.446,0-0.865-0.052-1.256-0.158c-0.391-0.105-0.733-0.272-1.024-0.503
		c-0.292-0.229-0.52-0.521-0.688-0.875c-0.168-0.353-0.252-0.772-0.252-1.256c0-0.67,0.15-1.195,0.447-1.573
		c0.298-0.377,0.692-0.666,1.182-0.864c0.489-0.199,1.042-0.339,1.656-0.419c0.615-0.08,1.238-0.158,1.872-0.233
		c0.249-0.024,0.466-0.056,0.652-0.092c0.186-0.038,0.34-0.103,0.465-0.195c0.125-0.094,0.221-0.221,0.29-0.382
		c0.067-0.161,0.102-0.372,0.102-0.633c0-0.396-0.065-0.578-0.195-0.833c-0.131-0.254-0.311-0.456-0.541-0.604
		c-0.23-0.149-0.496-0.252-0.799-0.308c-0.305-0.055-0.631-0.084-0.978-0.084h-2.112v-0.983h2.331
		c0.399,0.005,0.797,0.042,1.196,0.118c0.422,0.081,0.8,0.233,1.135,0.456C18.382,66.888,18.654,67.202,18.865,67.605
		 M18.009,70.578h-0.037c-0.075,0.137-0.218,0.236-0.428,0.298c-0.211,0.063-0.397,0.106-0.558,0.13
		c-0.497,0.087-1.009,0.165-1.536,0.233c-0.528,0.067-1.009,0.17-1.442,0.306c-0.436,0.137-0.792,0.333-1.072,0.587
		c-0.279,0.254-0.419,0.618-0.419,1.089c0,0.298,0.059,0.562,0.177,0.792c0.118,0.23,0.276,0.427,0.474,0.595
		c0.198,0.168,0.429,0.295,0.689,0.382c0.262,0.087,0.528,0.13,0.801,0.13c0.447,0,0.876-0.067,1.285-0.204
		c0.409-0.136,0.766-0.335,1.071-0.595c0.304-0.261,0.546-0.577,0.725-0.95c0.18-0.372,0.271-0.794,0.271-1.266V70.578z
		 M74.899,67.605c0.211,0.403,0.317,0.928,0.317,1.572l-0.002,6.651h-1.114v-1.676l0,0c-0.211,0.311-0.426,0.586-0.642,0.828
		c-0.217,0.242-0.459,0.444-0.727,0.605c-0.267,0.162-0.571,0.286-0.912,0.372c-0.341,0.087-0.747,0.13-1.219,0.13
		c-0.447,0-0.865-0.052-1.256-0.158c-0.391-0.105-0.733-0.272-1.023-0.503c-0.292-0.229-0.522-0.521-0.689-0.875
		c-0.167-0.353-0.251-0.772-0.251-1.256c0-0.67,0.149-1.195,0.447-1.573c0.298-0.378,0.691-0.666,1.183-0.864
		c0.489-0.199,1.042-0.339,1.656-0.42c0.615-0.081,1.239-0.158,1.871-0.233c0.247-0.024,0.466-0.056,0.651-0.093
		c0.186-0.037,0.341-0.102,0.465-0.195c0.125-0.094,0.221-0.221,0.289-0.382c0.069-0.161,0.103-0.372,0.103-0.633
		c0-0.396-0.066-0.578-0.196-0.833c-0.13-0.254-0.31-0.456-0.539-0.605c-0.231-0.149-0.497-0.252-0.8-0.307
		c-0.306-0.056-0.631-0.085-0.977-0.085h-2.113V66.09h2.331c0.4,0.004,0.798,0.042,1.197,0.118c0.422,0.081,0.8,0.233,1.136,0.456
		C74.415,66.887,74.688,67.201,74.899,67.605 M74.043,70.578h-0.037c-0.075,0.137-0.217,0.236-0.428,0.299
		c-0.211,0.062-0.397,0.105-0.559,0.13c-0.497,0.087-1.009,0.164-1.535,0.232c-0.527,0.068-1.009,0.17-1.444,0.307
		c-0.434,0.138-0.791,0.333-1.07,0.588c-0.278,0.254-0.418,0.617-0.418,1.088c0,0.297,0.058,0.561,0.177,0.791
		c0.117,0.229,0.276,0.427,0.473,0.595c0.199,0.169,0.429,0.296,0.689,0.382c0.261,0.087,0.528,0.13,0.8,0.13
		c0.447,0,0.875-0.068,1.284-0.204c0.41-0.136,0.766-0.336,1.07-0.596c0.304-0.261,0.546-0.577,0.726-0.949
		c0.18-0.372,0.27-0.794,0.27-1.266V70.578z M0,62.142v13.686h5.789c0.741,0,1.377-0.067,1.907-0.201
		c0.53-0.134,0.978-0.306,1.342-0.517c0.364-0.211,0.655-0.457,0.872-0.738c0.217-0.281,0.383-0.565,0.498-0.853
		c0.115-0.288,0.192-0.568,0.23-0.844c0.038-0.275,0.057-0.52,0.057-0.738c0-0.894-0.262-1.645-0.786-2.252
		c-0.524-0.607-1.227-0.968-2.109-1.082v-0.039c0.358-0.076,0.681-0.211,0.968-0.402c0.287-0.192,0.537-0.425,0.747-0.699
		c0.211-0.275,0.374-0.582,0.489-0.92c0.115-0.338,0.173-0.687,0.173-1.045c0-0.639-0.122-1.172-0.365-1.6
		c-0.243-0.428-0.565-0.774-0.968-1.035c-0.403-0.263-0.869-0.447-1.399-0.556c-0.53-0.108-1.083-0.163-1.658-0.163H0z
		 M1.304,68.142v-4.888h4.485c2.057,0,3.086,0.856,3.086,2.569c0,0.319-0.064,0.62-0.192,0.9c-0.128,0.282-0.32,0.527-0.575,0.738
		c-0.256,0.21-0.575,0.377-0.958,0.498c-0.384,0.121-0.837,0.182-1.361,0.182H1.304z M1.304,74.716v-5.462h4.485
		c1.163,0,2.054,0.22,2.674,0.661c0.62,0.44,0.93,1.102,0.93,1.984c0,0.55-0.096,1.006-0.287,1.371
		c-0.192,0.365-0.454,0.655-0.786,0.872c-0.332,0.217-0.716,0.368-1.15,0.45c-0.435,0.083-0.895,0.125-1.38,0.125H1.304z
		 M77.471,75.371h-0.227v-1.383h0.525c0.167,0,0.293,0.031,0.378,0.094c0.085,0.062,0.127,0.164,0.127,0.304
		c0,0.125-0.035,0.216-0.104,0.274c-0.069,0.058-0.155,0.092-0.257,0.104l0.388,0.608h-0.257l-0.358-0.591h-0.214V75.371z
		 M77.725,74.586c0.042,0,0.083-0.002,0.122-0.005c0.039-0.003,0.073-0.013,0.102-0.028c0.029-0.016,0.052-0.037,0.07-0.065
		c0.018-0.028,0.027-0.067,0.027-0.119c0-0.042-0.009-0.076-0.028-0.1c-0.019-0.025-0.043-0.044-0.072-0.057
		c-0.029-0.013-0.061-0.022-0.097-0.025c-0.036-0.003-0.07-0.005-0.103-0.005h-0.274v0.404H77.725z M77.72,75.879
		c-0.671,0-1.217-0.546-1.217-1.217c0-0.671,0.546-1.217,1.217-1.217s1.217,0.546,1.217,1.217
		C78.937,75.333,78.391,75.879,77.72,75.879z M77.72,73.583c-0.594,0-1.078,0.483-1.078,1.078s0.483,1.078,1.078,1.078
		s1.078-0.483,1.078-1.078S78.314,73.583,77.72,73.583z"/>
</g>
</svg>
