<svg version="1.0" xmlns="http://www.w3.org/2000/svg" viewBox="0 0 1200 753"><path d="M366 205v205h466V0H366v205zm459 0v198H373V7h452v198z"/><path d="M711 25l-80 1-98-1c-25-1-28 0-39 3-4 1-5 2-11 10-7 10-18 35-22 49-2 8-2 13-3 27a253 253 0 009 79c4 26 12 49 17 50l21 4 26 6c16 3 23 4 43 5a542 542 0 00130-13l20-2c11-1 22-4 26-5 5-3 8-13 10-33 1-15-1-45-4-52a480 480 0 01-14-105V30l-6-3c-7-5-12-5-25-2zM530 36l64 11c22 5 76 5 99-2 12-3 25 0 29 8 2 3 2 5 3 42l1 65c2 32 2 44-1 48-2 3-9 8-14 9l-54 12a476 476 0 01-67 8 179 179 0 01-73-4c-11-2-19-6-22-11-3-4-4-18-4-49 0-28 0-31 4-58a227 227 0 004-33l2-19c1-10 1-12 4-18 4-7 5-8 9-9h16z"/><path d="M673 75v10h4c4 0 4 0 4 3l-1 2-4 3a387 387 0 01-58 18l-5 1c-3 2-5 2-27-2-22-3-25-4-27-6l-3-2-1-1c0-2 1-2 5-2h4V78h-10l-10 1-1 10v10h5c4 0 6 2 2 4l-4 3v6c1 3 0 5-9 26-7 17-10 22-11 22-4 0-7 7-5 11 3 4 1 6-3 4l-3-2-5 9-5 9 2 1 16 8 5-9 5-9-4-2c-5-2-4-5 0-5s7-3 7-7v-4l24-8 24-8 3 4 3 3-4 1h-4v21h20v-21h-4l-4-1 1-1 4-3c2-3 3-3 10-2 12 1 13 1 13 3l3 5c4 3 3 4-2 4h-3v20h20v-20h-4l-5-1 4-3 3-6 13-8c12-7 13-7 15-5 4 2 9 1 12-2 2-2 4-3 9-4l8-2c2 0 2 1 3 3l4 5c2 0 3 2 3 3 0 2-1 2-4 2h-4v21h21v-21h-5c-4 0-5 0-5-2l3-5c3-3 3-4 3-6-1-4-3-6-6-7-1 0-6-5-10-11-8-9-8-10-8-14 0-3 0-4-3-6-4-4-4-6 2-7h4V64h-20v10zm17 0l-1 7h-12l-1-7v-7h14v7zM561 89v6h-14V82h14v7zm114 13c1 1 1 5-2 11-2 8-3 10-5 11-1 1-3 3-3 5-1 2-3 4-15 10s-14 7-15 6l-5-2c-4 0-4-1-7-7l-2-6 52-30 2 2zm20 12c7 9 7 9 5 11l-12 3-7 2-3-4-4-3 3-8c2-9 3-9 9-10l9 9zm-41-8l-11 7-15 8-3 2v-7l14-5 15-5zm-67 8l21 3 1 2c0 2 2 6 5 7l3 2-5 3-6 3-41-23 22 3zm-6 10c22 13 21 12 19 13-2 2-3 2-5 1-4-2-8 0-10 4-1 2-3 3-26 11l-27 8 9-23c8-18 10-21 11-21 2 1 8-2 8-3s0-2 21 10zm39 14l1 5-11-7 7-4 3 6zm-8 4l6 4-9-1c-6 0-8-1-8-2-1-2 2-4 4-4l7 3zm102 11v7h-14v-6l1-7 7-1h6v7zm-115 14v6h-14v-13h14v7zm38 4v7h-14v-6c0-8 0-8 8-8h6v7zm-115 10l6 2-3 6-4 6-11-6 6-11 6 3zm180 76a333 333 0 00-50 3 396 396 0 00-58 5c-37 4-62 9-103 19-50 13-61 17-91 34l-10 8c-6 7-6 10-3 30 5 26 6 29 9 34 7 10 23 9 56-1l40-9a1211 1211 0 0057-9c7 0 17-1 23-3 14-3 36-4 66-3l32-1 54-2c38-1 46-1 55-3s10-2 13-6c7-7 7-9 6-26l-3-25-1-20-1-14c-2-5-9-10-17-11h-74zm-116 25c5 3 4 10-1 13-6 2-12-1-12-7 0-7 8-10 13-6zm77 7l5 5c3 6-1 13-9 15-5 2-13-5-13-11 0-3 4-9 6-10 4-1 8-1 11 1zm-143 4l1 4c0 6-5 9-9 5-3-3-2-8 1-10 2-1 4 0 7 1zm207 0c10 4 6 19-5 19-6 0-9-2-10-7-2-5 1-11 5-13 4-1 5-1 10 1zm-162 3c4 5 1 11-6 11-6 0-9-2-9-6 0-6 10-10 15-4zm140 18c7 3 6 14-2 19-8 4-19-6-16-15 3-5 12-8 18-4zm-122 4c4 3 4 7 0 11-3 3-5 4-8 2-3-1-6-9-5-11 1-4 9-5 13-2zm-124 4c6 5 2 14-4 14-5 0-8-3-8-8 0-8 7-12 13-6zm59 0c4 4 1 13-5 13-7 0-10-4-9-9 2-7 9-9 13-4zm-26 0c4 4 2 8-3 8-6 0-9-3-5-7 2-2 6-3 8-1zm182 3c5 2 7 6 7 11 0 9-11 14-17 9-7-6-5-17 3-20h7zm-138 2c8 3 5 14-3 14-6 0-9-9-4-13 3-2 4-2 7-1zm26 8c4 3 1 9-4 9s-8-5-4-9c2-2 6-2 8 0zm-56 10c5 3 3 13-3 14-7 2-11-2-10-9 1-5 8-8 13-5zm-25 7c3 3 3 7-1 10-4 4-9 4-12-1-2-4-1-6 1-9 2-2 3-3 6-3s4 1 6 3zm-30 3c3 3 3 6 0 9-2 2-5 2-8-1-4-5 4-13 8-8zM60 492c-29 6-49 26-57 59-3 12-3 39 0 52 6 25 18 41 36 51 14 7 30 10 46 8 25-3 43-14 54-34 3-6 7-20 8-27l1-5h-22l-1 8c-5 25-23 40-48 40-26 0-45-16-52-44-3-11-3-37 0-48 7-26 24-41 48-44 23-2 43 10 50 30l1 5h11l11-1c0-4-5-18-9-24-8-12-22-22-37-26-8-2-31-2-40 0zm106 85v82h20v-40c1-45 1-45 9-54 6-7 13-10 23-11 7 0 9 0 14 2s9 6 11 11c1 2 2 17 2 47l1 45h19v-44c0-48 0-53-6-63-6-9-13-13-27-15-18-2-37 4-44 17-2 3-2 2-2-29v-31h-20v83zm360 0v82h19v-45l9-8 10-9 21 31 20 30 12 1h13l-25-38-25-38 23-22 23-22h-26l-27 26-28 26v-97h-19v83zm175 0v82h21l1-34v-34h33c32-1 33-1 39-3 13-5 22-14 26-27 3-9 3-27 0-36-3-10-8-17-16-23-11-7-11-7-60-8h-44v83zm83-62c7 2 13 9 16 15 2 6 2 18 0 25-3 9-12 15-24 17l-30 1h-23v-61h27c25 0 28 1 34 3zm182-9v12h19l1-12v-12h-20v12zm214-2c-8 4-8 14-2 20 4 4 9 5 14 3 9-4 11-15 4-22-3-3-5-3-9-3l-7 2zm13 2c3 2 5 7 4 11 0 2-2 4-4 6-3 3-4 3-7 3-13-2-13-22 0-22l7 2z"/><path d="M1182 515l1 7 1-3c0-2 1-3 2-3l3 3c0 2 2 3 3 3l-1-3v-4c2-1 3-5 1-7l-6-1h-4v8zm8-5c1 2-1 4-4 4-2 0-2 0-2-2s0-3 2-3l4 1zm-49 11v18h-21v9l1 9h20v42c0 34 0 43 2 47 2 9 8 12 27 13h14v-18h-9c-8 0-9 0-12-2l-3-3v-79h24v-18h-24v-36h-19v18zm-815 16c-20 3-36 17-44 38-2 8-2 10-2 23 0 12 0 16 2 23 3 11 8 19 15 26 10 10 21 14 39 14 23 0 38-8 47-26l4-11v-3h-19l-3 6c-3 7-7 11-14 14s-22 3-30 0c-12-5-20-16-21-29v-7h89v-6c0-29-16-54-38-60-7-2-18-3-25-2zm23 20c10 5 17 15 19 26v4h-68v-4c2-11 11-23 21-27 8-3 21-2 28 1zm98-20c-22 3-36 17-43 40-2 7-2 9-2 24 0 14 0 16 2 24 6 18 19 30 37 35 8 2 25 2 33-1 18-5 30-18 34-38l2-6h-20l-2 5c-3 16-16 25-34 24-20-1-32-18-32-44 0-29 12-45 35-46 14-1 25 5 30 18l2 6h10c11 0 11 1 9-8-5-16-16-27-33-31-7-2-20-3-28-2zm432 0c-12 2-23 7-31 14a65 65 0 00-17 45c0 16 1 24 7 36 7 14 20 25 36 28 8 2 24 1 31-1 20-5 34-19 40-41 2-9 2-29 0-38-4-15-13-28-24-35-10-7-29-10-42-8zm25 21c20 9 28 40 17 65-4 8-9 13-17 17-6 3-7 4-15 4-11 0-17-3-24-9-9-9-13-20-13-36 0-21 8-36 24-43 8-3 20-3 28 1zm155-21c-11 2-21 8-27 17l-3 4v-19h-19v60l1 60h19v-39c1-39 1-40 3-45 5-13 15-20 29-21 10 0 17 2 21 7 7 7 7 9 7 56v42h19v-47l-2-53c-4-10-12-17-22-21-7-1-19-2-26-1zm-93 62v60h19l1-60v-60h-20v60zM20 699c-8 2-13 7-13 13 0 10 4 13 19 16 10 3 14 5 14 10s-5 9-13 9c-7 0-15-5-15-10 0-2-1-2-3-2-5 0-5 1-2 8s12 11 23 10c10-1 17-7 17-15 0-9-4-12-19-16-12-3-14-5-14-10 1-5 5-8 11-8 7 0 11 3 13 8 0 3 1 3 4 3 4 0 4-2 1-8l-6-6c-4-2-13-3-17-2zm52 0c-6 2-10 6-14 13-2 5-2 7-2 14s0 9 2 13c7 15 27 19 39 7 13-12 10-37-5-45-5-3-14-3-20-2zm16 7c9 5 13 19 8 30-3 7-8 10-15 11-10 1-17-7-19-18-2-18 12-30 26-23zm467-7c-6 1-11 6-14 13-3 5-3 6-3 14s0 9 3 15c3 7 9 11 18 12 13 1 22-5 25-18 0-3 0-3-3-3s-4 0-6 5c-2 7-5 10-13 10s-11-2-15-9c-2-4-2-6-2-12 0-7 0-9 2-13 7-11 23-12 28-1 1 2 2 3 5 3 4 0 4-2 1-7s-6-7-11-8c-6-2-10-2-15-1zm165 1c-12 3-19 18-16 32 2 11 10 19 20 21 12 1 21-3 26-14 3-6 3-7 3-15-1-9-2-13-7-18-6-7-17-9-26-7zm16 6c7 3 10 10 10 20 0 13-7 21-18 21-8 0-15-6-17-15-4-19 10-33 25-26zm84-7c-10 4-16 12-17 24-1 21 14 34 33 29 6-2 14-9 15-16 5-14 0-28-10-35-6-3-15-4-21-2zm16 7c9 5 13 19 8 30-3 7-8 10-14 11-11 1-19-7-20-19-1-17 12-28 26-22zm45-7c-12 3-19 13-19 27 0 20 18 33 35 24l5-3c0-2 2-1 2 2 1 2 1 3 3 3h3v-27l-12-1h-11v6h16v4c-1 5-4 9-9 11-14 6-25-3-25-19 0-14 9-23 21-21 5 0 10 5 11 9 1 2 2 2 5 2l3-1-5-10c-4-5-16-8-23-6zm120 0c-7 3-11 8-11 14 0 8 4 11 18 15 12 3 15 4 15 10 0 4-1 5-4 7l-8 2c-7 0-12-3-14-8-2-3-3-4-6-4s-3 0-2 3c1 9 8 14 18 15 9 0 15-1 19-6 4-3 4-4 4-9 0-9-4-13-18-16l-11-4c-6-3-5-10 2-13s15 0 18 7c1 2 1 3 4 3s3 0 3-4l-3-6c-4-6-16-8-24-6zm-885 27v26h7v-24h24v-6h-24v-17h27v-5h-34v26zm40-23c0 2 0 2 9 2h8v47h7v-46l9-1c9 0 9 0 9-2v-3h-42v3zm48-2l12 47c1 4 1 4 5 4h3l6-21 6-22 6 22 6 21h8l6-25 7-26-3-1h-4l-5 21-5 20-6-20-5-21h-9l-5 21-6 20-1-3-5-21-4-17h-4l-3 1zm76 22l-11 26-1 3h8l3-8 2-8h11l11 1 3 7 3 8h8l-2-5-10-26-8-21h-9l-8 23zm17-5l4 10c0 2-1 2-8 2h-9l8-21c1-3 1-2 5 9zm28 8v26h7v-23h8c14 0 16 2 18 15v8h5c4 0 4 0 3-2l-2-10c-1-8-2-12-5-13-2 0-2 0 0-2 4-2 6-7 6-12s-2-8-6-11c-3-2-4-2-19-2h-15v26zm31-18c3 4 3 9 0 12-2 3-7 4-17 4h-7v-19h11c10 0 10 1 13 3zm21 18v26h37v-6h-29l-1-9v-9h27v-6h-26v-16l14-1h14v-5h-36v26zm65-23c0 2 0 2 9 2l9 1v46h7v-47h9c8 0 8 0 8-2v-3h-42v3zm50 23v26h37v-6h-30v-18h28v-6h-28v-16l15-1h14v-5h-36v26zm103 0v26h7v-24h28v24h7v-52h-7v22h-28v-22h-7v26zm56 0v26h6v-21c0-20 0-20 2-18l13 20 13 19h7v-52h-6v21l-1 20-14-21-12-20h-8v26zm113 0v26h34v-6h-27v-46h-7v26zm159 0v26h7v-52h-7v26zm21 0v26h36v-6h-29v-18h27v-6h-27v-17h29v-5h-36v26zm119 0v26h35v-6h-28v-46h-7v26zm32-23c0 2 0 2 9 2h8v47h7v-23l1-23 8-1c9 0 9 0 9-2v-3h-42v3zm50 23v26h11c14 0 19-1 25-6 5-6 7-13 7-24-1-10-4-16-11-19-5-3-6-3-19-3h-13v26zm28-18c5 2 7 7 8 15 0 8-1 13-5 17-3 5-8 6-16 6h-8v-41h9c6 1 10 1 12 3z"/></svg>