<svg xmlns="http://www.w3.org/2000/svg" xml:space="preserve" width="35.251" height="35.399" viewBox="-12.06 13.62 35.251 35.399"><g stroke-width=".166"><path fill="#151f34" d="M9.224 24.2a15.5 15.5 0 0 1-3.672.41c-1.265 0-2.497-.146-3.673-.41a16.2 16.2 0 0 1 3.673-4.083A16.2 16.2 0 0 1 9.224 24.2M20.3 15.21a16.6 16.6 0 0 0-4.643-.588c-3.584 0-7.11 1.057-10.105 3.056a17.93 17.93 0 0 0-10.108-3.056c-1.615 0-3.171.205-4.64.588-.617.147-1.235.354-1.823.588-.028.028-.058.058-.028.088.265.558.557 1.116.85 1.645.032.029.06.029.088.029a16.4 16.4 0 0 1 5.553-.969c3.085 0 5.964.85 8.432 2.35A18.2 18.2 0 0 0-.06 23.61a18.1 18.1 0 0 0-2.527 9.226A18.18 18.18 0 0 0 3.055 46c.264.264.558.528.85.762.235.207.47.384.706.56.294.235.616.47.939.676q.046.042.088 0c.324-.206.618-.443.94-.677.236-.177.472-.352.707-.558.294-.235.586-.499.85-.763a18.16 18.16 0 0 0 5.613-13.162c0-2.585-.56-5.142-1.616-7.492-.117-.235-.236-.499-.353-.734a12 12 0 0 0-.588-1.027 18.8 18.8 0 0 0-3.936-4.673 16.44 16.44 0 0 1 8.432-2.35c1.88 0 3.79.324 5.551.97.03 0 .06 0 .089-.03.324-.53.588-1.087.852-1.615.03-.03 0-.088-.029-.088a15 15 0 0 0-1.85-.588"/><path fill="#348540" d="M11.72 32.866A16.16 16.16 0 0 1 7.286 44.03a16.2 16.2 0 0 1-.735-4.876 16.16 16.16 0 0 1 4.436-11.165 16.6 16.6 0 0 1 .735 4.877"/><path fill="#7dbc42" d="M4.581 39.124c0 1.703-.265 3.35-.735 4.876A16.3 16.3 0 0 1-.589 32.837c0-1.705.265-3.35.765-4.876A16.4 16.4 0 0 1 4.58 39.124"/></g></svg>