<svg xmlns="http://www.w3.org/2000/svg" xmlns:xlink="http://www.w3.org/1999/xlink" id="Layer_1" data-name="Layer 1" viewBox="0 0 163.43 145.38"><defs><linearGradient id="linear-gradient" x1="1574.36" x2="1691.57" y1="-3275.77" y2="-3275.77" gradientTransform="rotate(-45 5375.084 175.257)" gradientUnits="userSpaceOnUse"><stop offset="0" stop-color="#623393"/><stop offset=".6" stop-color="#432b7d"/><stop offset="1" stop-color="#2c256c"/></linearGradient><linearGradient xlink:href="#linear-gradient" id="linear-gradient-2" x1="1574.36" x2="1691.57" y1="-3259.85" y2="-3259.85"/><linearGradient id="linear-gradient-3" x1="1574.36" x2="1691.57" y1="-3282.11" y2="-3282.11" gradientTransform="rotate(-45 5375.084 175.257)" gradientUnits="userSpaceOnUse"><stop offset="0" stop-color="#754fa0"/><stop offset=".21" stop-color="#6d4b9b"/><stop offset=".52" stop-color="#583e8b"/><stop offset=".9" stop-color="#362b73"/><stop offset="1" stop-color="#2c256c"/></linearGradient><linearGradient xlink:href="#linear-gradient-3" id="linear-gradient-4" x1="1574.36" x2="1691.57" y1="-3226.41" y2="-3226.41"/><linearGradient xlink:href="#linear-gradient" id="linear-gradient-5" x1="1574.36" x2="1691.57" y1="-3254.04" y2="-3254.04"/><linearGradient xlink:href="#linear-gradient-3" id="linear-gradient-6" x1="1563.24" x2="1704.01" y1="-3254.04" y2="-3254.04"/><linearGradient xlink:href="#linear-gradient" id="linear-gradient-7" x1="1563.24" x2="1704.01" y1="-3239.64" y2="-3239.64"/><linearGradient xlink:href="#linear-gradient" id="linear-gradient-8" x1="1563.24" x2="1704.01" y1="-3247.69" y2="-3247.69"/><linearGradient xlink:href="#linear-gradient" id="linear-gradient-9" x1="1563.24" x2="1704.01" y1="-3268.04" y2="-3268.04"/><style>.cls-5{fill:#fff}.cls-6{fill:#2c256c}.cls-7{fill:#5b2d82}.cls-13{fill:#623393}</style></defs><path fill="url(#linear-gradient)" d="M270.13 399.21a15.8 15.8 0 0 0-2.82 3.82 15.8 15.8 0 0 1 2.82-3.82" transform="translate(-224.29 -323.07)"/><path fill="url(#linear-gradient-2)" d="M317.72 365.53a8.4 8.4 0 0 1 6 2.47l4.89 4.89-4.92-4.89a8.4 8.4 0 0 0-5.97-2.47" transform="translate(-224.29 -323.07)"/><path fill="url(#linear-gradient-3)" d="M270.11 371.42a13.89 13.89 0 0 1 19.65 0l4.09 4.09 12.71-12.71a15.82 15.82 0 0 1 22.34 0l4.89 4.89L346 355.45l-26.63-26.63a19.78 19.78 0 0 0-27.9 0l-55 55a19.79 19.79 0 0 0-2.92 24.13l.17-.17z" transform="translate(-224.29 -323.07)"/><path fill="url(#linear-gradient-4)" d="M341.89 419.27a13.9 13.9 0 0 1-19.65 0l-4.84-4.84-16 16a15.82 15.82 0 0 1-22.34 0l-4.13-4.13L263 438.21l24.48 24.48a19.78 19.78 0 0 0 27.9 0l55-55a19.79 19.79 0 0 0 4.35-21.28l-1.78 1.78z" transform="translate(-224.29 -323.07)"/><path d="M71.87 102.18a8.4 8.4 0 0 1-2.79 1.85 8.46 8.46 0 0 1-9.14-1.85l-4.13-4.13-4.77-4.77a8.44 8.44 0 0 1 0-11.93l23.67-23.71 12.76-12.71a8.4 8.4 0 0 1 4.35-2.31 8.5 8.5 0 0 1 1.61-.15 8.4 8.4 0 0 1 6 2.47l4.89 4.89 5.21-5.21-4.89-4.89a15.82 15.82 0 0 0-22.34 0l-12.75 12.7-23.71 23.71a15.8 15.8 0 0 0-2.82 3.82q-.36.69-.65 1.4a15.79 15.79 0 0 0 3.46 17.12l4.77 4.77 4.13 4.13a15.82 15.82 0 0 0 22.34 0l16-16-5.21-5.21z" class="cls-5"/><path d="m148.65 65.15 1.78-1.78a19.5 19.5 0 0 0-2.64-4.63c.39 2.12.68 4.26.86 6.41" class="cls-6"/><path d="m9.47 84.7-.17.17c.11.18.21.37.33.55-.06-.24-.12-.49-.16-.72" class="cls-7"/><path fill="url(#linear-gradient-5)" d="m312 389.42 16.53-16.53-4.84-4.89a8.4 8.4 0 0 0-6-2.47 8.5 8.5 0 0 0-1.61.15 8.4 8.4 0 0 0-4.35 2.31L299 380.71l.91.91a13.89 13.89 0 0 1 0 19.65l-19.81 19.85 4.13 4.13a8.44 8.44 0 0 0 11.93 0l16-16-.15-.15a13.89 13.89 0 0 1-.01-19.68" transform="translate(-224.29 -323.07)"/><path fill="url(#linear-gradient-6)" d="m312 389.42 16.53-16.53-4.84-4.89a8.4 8.4 0 0 0-6-2.47 8.5 8.5 0 0 0-1.61.15 8.4 8.4 0 0 0-4.35 2.31L299 380.71l.91.91a13.89 13.89 0 0 1 0 19.65l-19.81 19.85 4.13 4.13a8.44 8.44 0 0 0 11.93 0l16-16-.15-.15a13.89 13.89 0 0 1-.01-19.68" transform="translate(-224.29 -323.07)"/><path d="M71.87 102.18a8.4 8.4 0 0 1-2.79 1.85 8.4 8.4 0 0 0 2.79-1.85" class="cls-5"/><path fill="url(#linear-gradient-7)" d="M296.16 425.25a8.4 8.4 0 0 1-2.79 1.85 8.4 8.4 0 0 0 2.79-1.85" transform="translate(-224.29 -323.07)"/><path d="m55.81 98.05 4.13 4.13a8.4 8.4 0 0 0 6 2.47 8.4 8.4 0 0 1-6-2.47z" class="cls-5"/><path fill="url(#linear-gradient-8)" d="m280.1 421.12 4.13 4.13a8.4 8.4 0 0 0 6 2.47 8.4 8.4 0 0 1-6-2.47z" transform="translate(-224.29 -323.07)"/><path d="M87.47 44.93a8.4 8.4 0 0 1 4.35-2.31 8.4 8.4 0 0 0-4.35 2.31" class="cls-5"/><path fill="url(#linear-gradient-9)" d="M311.76 368a8.4 8.4 0 0 1 4.35-2.31 8.4 8.4 0 0 0-4.35 2.31" transform="translate(-224.29 -323.07)"/><path d="M12.21 88.64a19.6 19.6 0 0 1-2.59-3.21c-.12-.18-.22-.37-.33-.55l-5.23 5.23a13.89 13.89 0 0 0 0 19.65l10.2 10.2a13.9 13.9 0 0 0 19.65 0l3.25-3.25 1.16-1.16.39-.39z" class="cls-6"/><path d="M45.84 98.49a15.79 15.79 0 0 1-3.46-17.12q.29-.71.65-1.4a15.8 15.8 0 0 1 2.82-3.82l23.71-23.71-4.09-4.09a13.89 13.89 0 0 0-19.65 0L9.47 84.7c0 .24.11.48.15.72a19.6 19.6 0 0 0 2.59 3.21l26.5 26.51 11.89-11.89z" class="cls-7"/><path d="M42.38 81.37a15.88 15.88 0 0 0 .65 13.3 15.88 15.88 0 0 1-.65-13.3m13.43 16.68 19.9-19.85a13.89 13.89 0 0 0 0-19.65l-.91-.91-23.71 23.71a8.44 8.44 0 0 0 0 11.93z" class="cls-7"/><path d="M51.05 93.28a8.4 8.4 0 0 1-2.47-6 8.4 8.4 0 0 0 2.47 6l4.77 4.77zm0-11.93a8.4 8.4 0 0 0-1.85 2.79 8.4 8.4 0 0 1 1.85-2.79" class="cls-7"/><path d="M104.29 49.82 87.71 66.35a13.89 13.89 0 0 0 0 19.65l.15.15 20.39-20.39a8.4 8.4 0 0 0 2.31-4.35 8.5 8.5 0 0 0 .15-1.61 8.4 8.4 0 0 0-2.47-6z" class="cls-6"/><path d="M108.3 65.76a8.4 8.4 0 0 0 2.31-4.35 8.4 8.4 0 0 1-2.31 4.35" class="cls-6"/><path d="M108.3 53.83a8.4 8.4 0 0 1 2.47 6 8.4 8.4 0 0 0-2.47-6l-4-4zm5.2 17.1a15.7 15.7 0 0 0 3.47-5.22 15.7 15.7 0 0 1-3.47 5.22" class="cls-13"/><path d="M116.97 65.74q.29-.71.51-1.45a15.81 15.81 0 0 0-4-15.67l-4-4-5.21 5.21 4 4a8.4 8.4 0 0 1 2.47 6 8.5 8.5 0 0 1-.15 1.61 8.4 8.4 0 0 1-2.31 4.35L87.91 86.15l5.21 5.21 20.38-20.43a15.7 15.7 0 0 0 3.47-5.19m42.38-30.94-10.2-10.2a13.89 13.89 0 0 0-18.64-.91c-.35.28-.68.59-1 .91l-6.58 6.58-1.16 1.16 24.36 24.36a20.7 20.7 0 0 1 4.35 6.62l8.92-8.92a13.9 13.9 0 0 0-.05-19.6" class="cls-13"/><path d="M113.5 48.62a15.81 15.81 0 0 1 4 15.67q-.22.73-.51 1.45a15.7 15.7 0 0 1-3.47 5.22L93.11 91.35l4.84 4.84a13.9 13.9 0 0 0 19.65 0l31-31c-.18-2.15-.47-4.29-.85-6.41a20 20 0 0 0-1.71-2l-24.33-24.4-12.23 12.23z" class="cls-6"/><path d="M113.5 48.62a15.81 15.81 0 0 1 4 15.67 15.81 15.81 0 0 0-4-15.67l-4-4z" class="cls-6"/></svg>