<svg xmlns="http://www.w3.org/2000/svg" xml:space="preserve" id="Layer_1" x="0" y="0" version="1.1" viewBox="0 0 404.3 147.1"><style>.st0{fill:#2eef37}</style><g id="Layer_1-2"><path d="M189.3 48.8c-5.8 0-8.1-4.8-8.1-8.4 0-6 4-11.3 9.9-11.3 6.3 0 7.9 4.7 8 5.6h9.3c.6-3.5-2.2-14.2-17-14.2-10.8 0-19.4 8.6-19.4 20.2 0 9.4 5.9 16.7 16.8 16.7 13.6 0 17.3-10.7 17.7-13.3h-9.8c-1.3 2.9-4.2 4.7-7.4 4.7M132.8 10.4H124l-7.2 33.5c-.3 1.3-.4 2.7-.4 4 0 7.3 5.7 9.5 10.2 9.5 1.2 0 2.3-.1 3.5-.3.1-.7 1.5-7 1.6-7.3-.2 0-1.2.1-2.3.1-3.2 0-4.3-1.4-4.3-3.2.1-1.3.3-2.5.6-3.7.5-2.2 7.1-32.6 7.1-32.6M249.5 20.6h-12.2l-15.7 14.2 5.3-24.5h-8.8l-10 46.4h8.8l2.4-11.3 5.4-4.3 7.5 15.6h9.8l-10.6-20.9zM115.7 21.1c0-4.1-3-10.8-15.1-10.8H83.9s-6.2 28.7-7 32c-1.8 8 3.2 14.3 12.5 14.3h5c11 0 18.2-6.5 18.2-14.2.2-4.3-2.5-8.2-6.5-9.6 1.1-.2 9.6-2.6 9.6-11.7m-21.6 27H85l2.4-11.2h8.1c6.2 0 7.6 2.8 7.6 4.9 0 3.6-3.1 6.3-9 6.3m4.4-19.8h-9.3l2-9.4h8.9c4.2 0 5.9 1.9 5.9 4.2.1 2.8-2.4 5.2-7.5 5.2M284.2 21.1c0-4.1-3-10.8-15.1-10.8h-16.7s-6.2 28.7-6.9 32c-1.8 8 3.2 14.3 12.5 14.3h5c11 0 18.2-6.5 18.2-14.2.2-4.3-2.5-8.2-6.5-9.6 1-.2 9.5-2.6 9.5-11.7m-21.6 27h-9.2l2.4-11.2h8.1c6.2 0 7.6 2.8 7.6 4.9.1 3.6-2.9 6.3-8.9 6.3m4.5-19.8h-9.3l2-9.4h8.9c4.2 0 5.9 1.9 5.9 4.2 0 2.8-2.5 5.2-7.5 5.2M347.4 29.1c.2-1.2 1.5-6.8 1.8-8.1-1.4-.2-2.9-.3-4.3-.3-9.3 0-15.7 5.5-17.8 15.9-.9 4.5-4.3 20.2-4.3 20.2h8.8s3.2-14.9 4.2-19.6c1.3-6.1 4.6-8.2 9-8.2.7-.1 1.7 0 2.6.1M394.5 20.6 381 44.1l-3.1-23.5h-10.1c-11.6 0-17.6 5.3-19.7 15.4-1.1 5.1-4.5 20.6-4.5 20.6h8.8s3.2-14.8 4.5-20.8c1.2-5.8 5.5-7.6 10.2-6.6l1.8-8.5c1.4 8.1 5.5 33.9 5.5 33.9l-9.2 15.8h9.4L404 20.6zM155.6 20.5c-13.7 0-17.7 9.9-18.3 11.4h9.9c.2-.4 2.5-3.8 8.1-3.8 3.5 0 5.3 1.3 5.3 2.8 0 2.2-3.5 2.7-9.6 3.6-10.5 1.5-17.1 4.8-17.1 12.3 0 5.4 4.4 10.6 12.4 10.6 3.9.1 7.6-1.5 10.3-4.3 0 1 .1 2.4.2 3.5h9.1c-.7-3.1-.6-6.3.1-9.4.6-2.5 2.2-9.8 3-13.8 1.4-7.5-2.8-12.9-13.4-12.9m2.6 21.8c-1 4.4-5.5 7.2-10.4 7.2-3.1 0-4.9-1.7-4.9-3.7 0-1.7 1.5-3.6 7.5-4.5l8.3-1.3c-.1.7-.3 1.6-.5 2.3M304.5 20.5c-10.6 0-19 8.9-19 19.4 0 10.2 6.1 17.5 17 17.5 13.4 0 17-10.5 17.3-11.5h-10c-.3.7-2.5 3.7-7.2 3.7-6.9 0-8.4-5.8-8.3-7.4H321c.5-1.8.7-3.6.8-5.5 0-8.5-5.8-16.2-17.3-16.2M295.6 35c1.3-3.9 4.9-6.5 9-6.5 5.9 0 8.1 3.6 7.9 6.5zM14.5 0H5.7L3.2 11.6h9.2c7.2 0 9.2-3.4 9.2-6.6 0-2.2-1.4-5-7.1-5M38.2 0h-8.8l-2.5 11.6h9.2c7.2 0 9.2-3.4 9.2-6.6 0-2.2-1.3-5-7.1-5M11.3 17.4H2.5L0 29h9.2c7.2 0 9.2-3.4 9.2-6.5 0-2.3-1.4-5.1-7.1-5.1M35 17.4h-8.8L23.7 29h9.2c7.2 0 9.2-3.4 9.2-6.5 0-2.3-1.3-5.1-7.1-5.1M59.9 10.4h-8.8L48.6 22h9.2c7.2 0 9.3-3.4 9.3-6.6-.1-2.2-1.5-5-7.2-5M56.5 28.5h-8.8l-2.5 11.6h9.2c7.2 0 9.2-3.4 9.2-6.5-.1-2.3-1.4-5.1-7.1-5.1M31.6 35.6h-8.8l-2.5 11.6h9.2c7.2 0 9.2-3.4 9.2-6.5 0-2.3-1.3-5.1-7.1-5.1M399.9 53.1c2.4 0 4.3 2 4.3 4.4s-2 4.3-4.4 4.3-4.3-2-4.3-4.3c0-2.5 2-4.4 4.4-4.4m0 .7c-2-.1-3.7 1.5-3.7 3.5-.1 2 1.5 3.7 3.5 3.7 2 .1 3.7-1.5 3.7-3.5v-.1c0-1.9-1.5-3.6-3.4-3.6zm-.9 6.1h-.8v-5h1.9c1.2 0 1.8.4 1.8 1.4 0 .7-.5 1.3-1.2 1.4h-.1l1.4 2.2h-.8l-1.3-2.2h-.9zm0-2.8h.9c.9 0 1.2-.3 1.2-.8s-.2-.8-1.1-.8h-1z"/><path d="M399.9 138.4c2.4 0 4.3 2 4.3 4.4s-2 4.3-4.4 4.3-4.3-2-4.3-4.3c0-2.5 1.9-4.5 4.4-4.4-.1-.1 0-.1 0 0m0 .7c-2 0-3.7 1.5-3.7 3.5s1.5 3.7 3.5 3.7 3.7-1.5 3.7-3.5v-.1c.1-1.9-1.5-3.6-3.4-3.6zm-.9 6.1h-.8v-5h1.9c1.2 0 1.8.4 1.8 1.4 0 .7-.5 1.3-1.2 1.4h-.1l1.4 2.2h-.8l-1.3-2.2h-.9zm0-2.8h.9c.9 0 1.2-.3 1.2-.8s-.2-.8-1.1-.8h-1zM274.6 113.7h-1.3c-.6 0-1 .5-1 1v25.8c.1 1.7-1.3 3.1-3 3.2h-.4c-.9 0-1.7-.4-2.3-1.1L242.3 116c-1.2-1.4-3-2.2-4.9-2.2-3.7 0-6.8 3.3-6.8 7.3v25c.1.6.5 1 1.1 1h1.3c.5 0 1-.5 1.1-1v-25c0-2.2 1.5-4 3.4-4 .9 0 1.7.4 2.3 1.1l24.2 26.6c1.2 1.4 3 2.2 4.9 2.2 4 0 6.8-2.7 6.8-6.5v-25.8c-.1-.5-.5-.9-1.1-1M38.2 143.7H6.8c-1.9 0-3.4-1.8-3.4-4v-18.8c0-1 .4-1.9 1-2.7.6-.7 1.4-1.1 2.3-1.1h31.5c.6 0 1.1-.5 1.1-1.1v-1.3c-.1-.6-.5-1-1.1-1H6.8c-1.9 0-3.6.8-4.9 2.2-1.2 1.3-1.8 3-1.9 4.8v18.9c-.1 3.9 2.9 7.1 6.8 7.3h31.5c.6 0 1-.4 1.1-1v-1.3c-.1-.4-.6-.9-1.2-.9M151.6 143.7h-31.4c-1.9 0-3.4-1.8-3.4-4v-24.8c0-.6-.5-1.1-1.1-1.1h-1.3c-.6 0-1.1.5-1.1 1.1v24.8c-.1 3.9 2.9 7.2 6.8 7.3h31.5c.6 0 1.1-.5 1.1-1.1v-1.2c0-.6-.5-1-1.1-1M330.8 143.7h-31.5c-1.9 0-3.4-1.8-3.4-4v-18.8c0-1 .4-1.9 1-2.7.6-.7 1.4-1.1 2.3-1.1l31.5.1c.6 0 1.1-.5 1.1-1.1v-1.2c-.1-.6-.5-1-1.1-1l-31.5-.1c-1.8 0-3.6.8-4.8 2.2-1.2 1.3-1.8 3-1.9 4.8v18.9c-.1 3.9 2.9 7.2 6.8 7.3h31.5c.6 0 1.1-.5 1.1-1.1v-1.3c-.1-.5-.6-.9-1.1-.9M388 144.7c-.1-.6-.5-1-1.1-1h-31.4c-1.9 0-3.4-1.8-3.4-4v-18.8c0-1 .4-1.9 1-2.7.6-.7 1.4-1.1 2.3-1.1H387c.6 0 1.1-.5 1.1-1.1v-1.2c-.1-.6-.5-1-1.1-1h-31.5c-1.9 0-3.6.8-4.9 2.2-1.2 1.3-1.8 3-1.9 4.8v18.9c-.1 3.9 2.9 7.2 6.8 7.3H387c.6 0 1-.5 1-1.1zM77.4 129.4 58.9 114c-.2-.1-.5-.2-.7-.2-.3 0-.7.1-.9.4l-.8 1c-.4.4-.3 1 .1 1.4l.1.1 17.8 14.9V146c0 .6.6 1.1 1.2 1.1H77c.6 0 1.1-.5 1.2-1.1v-15.3c-.1-.5-.3-1-.8-1.3M96.4 113.3c-.2-.2-.5-.4-.8-.4-.2 0-.5.1-.7.2l-14.8 12.2c-.4.4-.5 1-.2 1.5l1 1c.2.2.5.4.9.4.2 0 .5-.1.7-.2l14.6-12.2c.4-.4.5-1 .2-1.5zM213.8 145.4c-.3-.6-15.5-27.7-15.5-27.7-2-3.6-6.5-4.9-10.2-2.9-1.2.7-2.3 1.7-2.9 2.9l-15.5 27.7c-.3.5-.2 1.2.3 1.5.1.1.3.2.5.2h1.2c.2 0 .3 0 .5-.1l.1-.1c.1-.1.2-.1.3-.2v-.1s14.5-25.6 15.6-27.3c1-2 3.5-2.7 5.4-1.7.7.4 1.3 1 1.7 1.7 1.1 1.7 15.6 27.3 15.6 27.3v.1c.1.1.2.2.3.2l.1.1c.2.1.3.1.5.1h1.2c.6-.1 1-.5 1-1.1 0-.3-.1-.5-.2-.6" class="st0"/><path d="M375.2 128.7h-17c-.6 0-1 .5-1 1.1v1.2c.1.6.5 1 1.1 1h17c.6 0 1-.5 1.1-1.1v-1.2c-.1-.5-.6-.9-1.2-1" class="st0"/><path d="M0 84.7h402.2v2.2H0z"/></g></svg>