<?xml version="1.0" encoding="utf-8"?>
<!-- Generator: Adobe Illustrator 23.0.3, SVG Export Plug-In . SVG Version: 6.00 Build 0)  -->
<svg version="1.1" id="Layer_1" xmlns="http://www.w3.org/2000/svg" xmlns:xlink="http://www.w3.org/1999/xlink" x="0px" y="0px"
	 viewBox="0 0 404.3 147.1" style="enable-background:new 0 0 404.3 147.1;" xml:space="preserve">
<style type="text/css">
	.st0{fill:#2EEF37;}
</style>
<title>Cylance_BB_Logo_RGB_Vert_Black</title>
<g>
	<g id="Layer_1-2">
		<path d="M189.3,48.8c-5.8,0-8.1-4.8-8.1-8.4c0-6,4-11.3,9.9-11.3c6.3,0,7.9,4.7,8,5.6h9.3c0.6-3.5-2.2-14.2-17-14.2
			c-10.8,0-19.4,8.6-19.4,20.2c0,9.4,5.9,16.7,16.8,16.7c13.6,0,17.3-10.7,17.7-13.3h-9.8C195.4,47,192.5,48.8,189.3,48.8z"/>
		<path d="M132.8,10.4H124l-7.2,33.5c-0.3,1.3-0.4,2.7-0.4,4c0,7.3,5.7,9.5,10.2,9.5c1.2,0,2.3-0.1,3.5-0.3c0.1-0.7,1.5-7,1.6-7.3
			c-0.2,0-1.2,0.1-2.3,0.1c-3.2,0-4.3-1.4-4.3-3.2c0.1-1.3,0.3-2.5,0.6-3.7C126.2,40.8,132.8,10.4,132.8,10.4z"/>
		<polygon points="249.5,20.6 237.3,20.6 221.6,34.8 226.9,10.3 218.1,10.3 208.1,56.7 216.9,56.7 219.3,45.4 224.7,41.1 
			232.2,56.7 242,56.7 231.4,35.8 		"/>
		<path d="M115.7,21.1c0-4.1-3-10.8-15.1-10.8H83.9c0,0-6.2,28.7-7,32c-1.8,8,3.2,14.3,12.5,14.3h5c11,0,18.2-6.5,18.2-14.2
			c0.2-4.3-2.5-8.2-6.5-9.6C107.2,32.6,115.7,30.2,115.7,21.1z M94.1,48.1H85l2.4-11.2h8.1c6.2,0,7.6,2.8,7.6,4.9
			C103.1,45.4,100,48.1,94.1,48.1z M98.5,28.3h-9.3l2-9.4h8.9c4.2,0,5.9,1.9,5.9,4.2C106.1,25.9,103.6,28.3,98.5,28.3z"/>
		<path d="M284.2,21.1c0-4.1-3-10.8-15.1-10.8h-16.7c0,0-6.2,28.7-6.9,32c-1.8,8,3.2,14.3,12.5,14.3h5c11,0,18.2-6.5,18.2-14.2
			c0.2-4.3-2.5-8.2-6.5-9.6C275.7,32.6,284.2,30.2,284.2,21.1z M262.6,48.1h-9.2l2.4-11.2h8.1c6.2,0,7.6,2.8,7.6,4.9
			C271.6,45.4,268.6,48.1,262.6,48.1z M267.1,28.3h-9.3l2-9.4h8.9c4.2,0,5.9,1.9,5.9,4.2C274.6,25.9,272.1,28.3,267.1,28.3
			L267.1,28.3z"/>
		<path d="M347.4,29.1c0.2-1.2,1.5-6.8,1.8-8.1c-1.4-0.2-2.9-0.3-4.3-0.3c-9.3,0-15.7,5.5-17.8,15.9c-0.9,4.5-4.3,20.2-4.3,20.2h8.8
			c0,0,3.2-14.9,4.2-19.6c1.3-6.1,4.6-8.2,9-8.2C345.5,28.9,346.5,29,347.4,29.1z"/>
		<path d="M394.5,20.6L381,44.1l-3.1-23.5h-10.1c-11.6,0-17.6,5.3-19.7,15.4c-1.1,5.1-4.5,20.6-4.5,20.6h8.8c0,0,3.2-14.8,4.5-20.8
			c1.2-5.8,5.5-7.6,10.2-6.6l1.8-8.5c1.4,8.1,5.5,33.9,5.5,33.9l-9.2,15.8h9.4L404,20.6H394.5z"/>
		<path d="M155.6,20.5c-13.7,0-17.7,9.9-18.3,11.4h9.9c0.2-0.4,2.5-3.8,8.1-3.8c3.5,0,5.3,1.3,5.3,2.8c0,2.2-3.5,2.7-9.6,3.6
			c-10.5,1.5-17.1,4.8-17.1,12.3c0,5.4,4.4,10.6,12.4,10.6c3.9,0.1,7.6-1.5,10.3-4.3c0,1,0.1,2.4,0.2,3.5h9.1
			c-0.7-3.1-0.6-6.3,0.1-9.4c0.6-2.5,2.2-9.8,3-13.8C170.4,25.9,166.2,20.5,155.6,20.5z M158.2,42.3c-1,4.4-5.5,7.2-10.4,7.2
			c-3.1,0-4.9-1.7-4.9-3.7c0-1.7,1.5-3.6,7.5-4.5l8.3-1.3C158.6,40.7,158.4,41.6,158.2,42.3L158.2,42.3z"/>
		<path d="M304.5,20.5c-10.6,0-19,8.9-19,19.4c0,10.2,6.1,17.5,17,17.5c13.4,0,17-10.5,17.3-11.5h-10c-0.3,0.7-2.5,3.7-7.2,3.7
			c-6.9,0-8.4-5.8-8.3-7.4H321c0.5-1.8,0.7-3.6,0.8-5.5C321.8,28.2,316,20.5,304.5,20.5z M295.6,35c1.3-3.9,4.9-6.5,9-6.5
			c5.9,0,8.1,3.6,7.9,6.5H295.6z"/>
		<path d="M14.5,0H5.7L3.2,11.6h9.2c7.2,0,9.2-3.4,9.2-6.6C21.6,2.8,20.2,0,14.5,0z"/>
		<path d="M38.2,0h-8.8l-2.5,11.6h9.2c7.2,0,9.2-3.4,9.2-6.6C45.3,2.8,44,0,38.2,0z"/>
		<path d="M11.3,17.4H2.5L0,29h9.2c7.2,0,9.2-3.4,9.2-6.5C18.4,20.2,17,17.4,11.3,17.4z"/>
		<path d="M35,17.4h-8.8L23.7,29h9.2c7.2,0,9.2-3.4,9.2-6.5C42.1,20.2,40.8,17.4,35,17.4z"/>
		<path d="M59.9,10.4h-8.8L48.6,22h9.2c7.2,0,9.3-3.4,9.3-6.6C67,13.2,65.6,10.4,59.9,10.4z"/>
		<path d="M56.5,28.5h-8.8l-2.5,11.6h9.2c7.2,0,9.2-3.4,9.2-6.5C63.5,31.3,62.2,28.5,56.5,28.5z"/>
		<path d="M31.6,35.6h-8.8l-2.5,11.6h9.2c7.2,0,9.2-3.4,9.2-6.5C38.7,38.4,37.4,35.6,31.6,35.6z"/>
		<path d="M399.9,53.1c2.4,0,4.3,2,4.3,4.4c0,2.4-2,4.3-4.4,4.3c-2.4,0-4.3-2-4.3-4.3C395.5,55,397.5,53.1,399.9,53.1
			C399.9,53.1,399.9,53.1,399.9,53.1 M399.9,53.8c-2-0.1-3.7,1.5-3.7,3.5c-0.1,2,1.5,3.7,3.5,3.7c2,0.1,3.7-1.5,3.7-3.5
			c0,0,0-0.1,0-0.1c0-1.9-1.5-3.6-3.4-3.6C400,53.8,399.9,53.8,399.9,53.8 M399,59.9h-0.8v-5h1.9c1.2,0,1.8,0.4,1.8,1.4
			c0,0.7-0.5,1.3-1.2,1.4c0,0,0,0-0.1,0l1.4,2.2h-0.8l-1.3-2.2H399V59.9z M399,57.1h0.9c0.9,0,1.2-0.3,1.2-0.8s-0.2-0.8-1.1-0.8h-1
			L399,57.1z"/>
		<path class="st0" d="M399.9,138.4c2.4,0,4.3,2,4.3,4.4c0,2.4-2,4.3-4.4,4.3c-2.4,0-4.3-2-4.3-4.3
			C395.5,140.3,397.4,138.3,399.9,138.4C399.8,138.3,399.9,138.3,399.9,138.4 M399.9,139.1c-2,0-3.7,1.5-3.7,3.5
			c0,2,1.5,3.7,3.5,3.7s3.7-1.5,3.7-3.5c0,0,0-0.1,0-0.1c0.1-1.9-1.5-3.6-3.4-3.6C400,139.1,399.9,139.1,399.9,139.1 M399,145.2
			h-0.8v-5h1.9c1.2,0,1.8,0.4,1.8,1.4c0,0.7-0.5,1.3-1.2,1.4c0,0,0,0-0.1,0l1.4,2.2h-0.8l-1.3-2.2H399L399,145.2z M399,142.4h0.9
			c0.9,0,1.2-0.3,1.2-0.8s-0.2-0.8-1.1-0.8h-1L399,142.4z"/>
		<path class="st0" d="M274.6,113.7h-1.3c-0.6,0-1,0.5-1,1v25.8c0.1,1.7-1.3,3.1-3,3.2c-0.1,0-0.3,0-0.4,0c-0.9,0-1.7-0.4-2.3-1.1
			L242.3,116c-1.2-1.4-3-2.2-4.9-2.2c-3.7,0-6.8,3.3-6.8,7.3v25c0.1,0.6,0.5,1,1.1,1h1.3c0.5,0,1-0.5,1.1-1v-25c0-2.2,1.5-4,3.4-4
			c0.9,0,1.7,0.4,2.3,1.1l24.2,26.6c1.2,1.4,3,2.2,4.9,2.2c4,0,6.8-2.7,6.8-6.5v-25.8C275.6,114.2,275.2,113.8,274.6,113.7"/>
		<path class="st0" d="M38.2,143.7H6.8c-1.9,0-3.4-1.8-3.4-4v-18.8c0-1,0.4-1.9,1-2.7c0.6-0.7,1.4-1.1,2.3-1.1h31.5
			c0.6,0,1.1-0.5,1.1-1.1v-1.3c-0.1-0.6-0.5-1-1.1-1H6.8c-1.9,0-3.6,0.8-4.9,2.2c-1.2,1.3-1.8,3-1.9,4.8v18.9
			c-0.1,3.9,2.9,7.1,6.8,7.3h31.5c0.6,0,1-0.4,1.1-1v-1.3C39.3,144.2,38.8,143.7,38.2,143.7"/>
		<path class="st0" d="M151.6,143.7h-31.4c-1.9,0-3.4-1.8-3.4-4v-24.8c0-0.6-0.5-1.1-1.1-1.1h-1.3c-0.6,0-1.1,0.5-1.1,1.1v24.8
			c-0.1,3.9,2.9,7.2,6.8,7.3h31.5c0.6,0,1.1-0.5,1.1-1.1v-1.2C152.7,144.1,152.2,143.7,151.6,143.7"/>
		<path class="st0" d="M330.8,143.7h-31.5c-1.9,0-3.4-1.8-3.4-4v-18.8c0-1,0.4-1.9,1-2.7c0.6-0.7,1.4-1.1,2.3-1.1l31.5,0.1
			c0.6,0,1.1-0.5,1.1-1.1v-1.2c-0.1-0.6-0.5-1-1.1-1l-31.5-0.1c-1.8,0-3.6,0.8-4.8,2.2c-1.2,1.3-1.8,3-1.9,4.8v18.9
			c-0.1,3.9,2.9,7.2,6.8,7.3h31.5c0.6,0,1.1-0.5,1.1-1.1v-1.3C331.8,144.1,331.3,143.7,330.8,143.7"/>
		<path class="st0" d="M388,144.7c-0.1-0.6-0.5-1-1.1-1h-31.4c-1.9,0-3.4-1.8-3.4-4v-18.8c0-1,0.4-1.9,1-2.7
			c0.6-0.7,1.4-1.1,2.3-1.1H387c0.6,0,1.1-0.5,1.1-1.1v-1.2c-0.1-0.6-0.5-1-1.1-1h-31.5c-1.9,0-3.6,0.8-4.9,2.2
			c-1.2,1.3-1.8,3-1.9,4.8v18.9c-0.1,3.9,2.9,7.2,6.8,7.3H387c0.6,0,1-0.5,1-1.1V144.7z"/>
		<path class="st0" d="M77.4,129.4L58.9,114c-0.2-0.1-0.5-0.2-0.7-0.2c-0.3,0-0.7,0.1-0.9,0.4l-0.8,1c-0.4,0.4-0.3,1,0.1,1.4
			c0,0,0.1,0.1,0.1,0.1l17.8,14.9V146c0,0.6,0.6,1.1,1.2,1.1H77c0.6,0,1.1-0.5,1.2-1.1v-15.3C78.1,130.2,77.9,129.7,77.4,129.4"/>
		<path class="st0" d="M96.4,113.3c-0.2-0.2-0.5-0.4-0.8-0.4c-0.2,0-0.5,0.1-0.7,0.2l-14.8,12.2c-0.4,0.4-0.5,1-0.2,1.5l1,1
			c0.2,0.2,0.5,0.4,0.9,0.4c0.2,0,0.5-0.1,0.7-0.2l14.6-12.2c0.4-0.4,0.5-1,0.2-1.5L96.4,113.3z"/>
		<path class="st0" d="M213.8,145.4c-0.3-0.6-15.5-27.7-15.5-27.7c-2-3.6-6.5-4.9-10.2-2.9c-1.2,0.7-2.3,1.7-2.9,2.9l-15.5,27.7
			c-0.3,0.5-0.2,1.2,0.3,1.5c0.1,0.1,0.3,0.2,0.5,0.2c0.1,0,0.1,0,0.2,0h1c0.2,0,0.3,0,0.5-0.1l0.1-0.1c0.1-0.1,0.2-0.1,0.3-0.2
			v-0.1c0,0,14.5-25.6,15.6-27.3c1-2,3.5-2.7,5.4-1.7c0.7,0.4,1.3,1,1.7,1.7c1.1,1.7,15.6,27.3,15.6,27.3v0.1
			c0.1,0.1,0.2,0.2,0.3,0.2l0.1,0.1c0.2,0.1,0.3,0.1,0.5,0.1h1c0.1,0,0.1,0,0.2,0c0.6-0.1,1-0.5,1-1.1
			C214,145.7,213.9,145.5,213.8,145.4"/>
		<path class="st0" d="M375.2,128.7h-17c-0.6,0-1,0.5-1,1.1v1.2c0.1,0.6,0.5,1,1.1,1h17c0.6,0,1-0.5,1.1-1.1v-1.2
			C376.3,129.2,375.8,128.8,375.2,128.7"/>
		<g>
			<rect y="84.7" width="402.2" height="2.2"/>
		</g>
	</g>
</g>
</svg>
