<svg xmlns="http://www.w3.org/2000/svg" viewBox="0 0 1000 1000"><defs><style>.cls-1{fill:#e4002b;}.cls-2{fill:#fff;}.cls-3{fill:#e2183d;}</style></defs><title>Asset 1</title><g id="Layer_2" data-name="Layer 2"><g id="Layer_1-2" data-name="Layer 1"><g id="f5-logo-rgb"><g id="Logo-black-and-white"><path class="cls-1" d="M940.37,894.53a30.85,30.85,0,0,1,9.47,22.94,32.43,32.43,0,0,1-55.4,23.08A32,32,0,0,1,885,917.47a32.54,32.54,0,0,1,32.37-32.57A30.88,30.88,0,0,1,940.37,894.53Zm3.81-3.75a36.65,36.65,0,0,0-26.8-11,37.72,37.72,0,1,0,26.8,64.32,37.71,37.71,0,0,0,0-53.36ZM923,915.65a18.8,18.8,0,0,1-6.93.92h-6.54v-15h6.23c4,0,7,.57,8.77,1.58s2.76,3.07,2.76,6A6.38,6.38,0,0,1,923,915.65Zm-20.75,22.29h7.28V921.66h5.77c3.82,0,6.56.4,8.11,1.36,2.57,1.54,3.88,4.72,3.88,9.48v3.33l.14,1.25a2.91,2.91,0,0,1,.11.5c0,.2.06.27.19.36h6.76l-.24-.48a4.42,4.42,0,0,1-.35-2.11c-.09-1.14-.09-2.15-.09-3.07v-3.07a11.52,11.52,0,0,0-2.26-6.43c-1.54-2.21-3.95-3.51-7.19-4.08a17,17,0,0,0,6-2c2.77-1.75,4.06-4.56,4.06-8.2,0-5.18-2.06-8.73-6.4-10.49-2.39-1-6.14-1.49-11.3-1.49H902.25Z"/><path class="cls-2" d="M958.59,620.31c2.68-53.34-7.17-110.8-53.58-162.79-47.7-51.41-128.17-95-293.72-105.22,8.6-26.83,16.12-51.41,24.06-76.52,99,3.48,187.06,10.61,262,20.34,5.92-26.85,9.13-53.1,15.26-78.43Q901.2,201,888.43,185.25c-35.65-4.12-71.2-13-109.46-17.9-51.73-6.68-105.88-11.45-164.38-14.15C577.75,262.93,531.7,401,484.46,543.7,730.72,565,825.42,631.37,820.1,725c-4.91,50.57-51.14,96.55-111.93,102-72.31,4.86-105.41-24.35-127.14-56.4-19.14-28.78-38.23-57.62-58.61-89-5.54-9.23-12.85-3.23-19.44,3.21-14.92,14.48-29.1,28.15-43.84,42.28-9.48,8.24-7.37,15.32-4,22.23,13.77,32.46,26.59,62.22,39.54,91.76,21.56,13.21,122.9,31.25,198.69,25.58,51.36-4.32,115.57-24.18,168.65-64.16C914.45,761.79,952.67,707,958.59,620.31Z"/><path class="cls-2" d="M97.31,796.3q14.22,19.29,30.2,37.13c85.19,15.32,191.42,25.91,302.05,29.13-.37-11.48-.7-22.63-1-34.46-67.94-3.83-99.17-14.19-104.6-27.63-4.53-10.68-5.32-26.63-6.29-42.38-5.1-104.35-6.77-217.22-5-330.51,38-.66,75.83-1,115.53-1.43,19.24-8.77,37.34-17.44,56.54-26,0-13.72.09-26,.09-39.39C426,361,370.18,362,314.23,363.55c1.58-47.62,3.45-91.58,6.24-134.46,2-28.18,21.51-48.78,41.64-50.39,32.26-1.26,61.23,11.56,89.27,24,15.46,7.49,30.7,14.94,46.54,23.05,7.56,2,16.54,3.78,21.95-2.79,9.39-11.12,18.31-21.45,27.55-32.26,5-7.39,2.84-11.63.79-14.35-20.12-15.89-39.05-30.18-58.21-44.54-11.83-8-30.51-9.76-48.92-9.76-7.34,0-14.71.27-21.55.49-18.92,1-43,4-82.43,13.62C248.29,160.08,141.67,222,130.4,323.27c-1.45,16.53-2.66,32.9-3.73,49.81-25.08,2.11-47.91,3.92-69.46,6-1.58,19.36-2.64,38-3.52,57.59,21.82-1.28,44.58-2.42,69.94-3.52-3.76,106.16-.2,212.1,9.77,310.22,1.67,14.91,3.3,29.69,1.36,39.24C133.17,791.73,118.49,796.46,97.31,796.3Z"/><path class="cls-1" d="M912.66,217.69c-6.13,25.33-9.34,51.58-15.26,78.43-75-9.73-163.08-16.86-262-20.34-7.94,25.11-15.46,49.69-24.06,76.52,165.55,10.18,246,53.81,293.72,105.22,46.41,52,56.26,109.45,53.58,162.79C952.67,707,914.45,761.79,862,802.41c-53.08,40-117.29,59.84-168.65,64.16C617.56,872.24,516.22,854.2,494.66,841c-13-29.54-25.77-59.3-39.54-91.76-3.35-6.91-5.46-14,4-22.23,14.74-14.13,28.92-27.8,43.84-42.28,6.59-6.44,13.9-12.44,19.44-3.21,20.38,31.43,39.48,60.27,58.61,89,21.73,32.05,54.83,61.26,127.14,56.4,60.79-5.44,107-51.42,111.93-102,5.32-93.6-89.38-160-335.64-181.27C531.7,401,577.75,262.93,614.59,153.2c58.5,2.7,112.65,7.47,164.38,14.15,38.26,4.87,73.81,13.78,109.46,17.9C796.77,72.26,656.88,0,500,0,223.87,0,0,223.86,0,500A497.64,497.64,0,0,0,97.31,796.3c21.18.16,35.86-4.57,37.45-13.7,1.94-9.55.31-24.33-1.36-39.24-10-98.12-13.53-204.06-9.77-310.22-25.36,1.1-48.12,2.24-69.94,3.52.88-19.63,1.94-38.23,3.52-57.59,21.55-2.07,44.38-3.88,69.46-6,1.07-16.91,2.28-33.28,3.74-49.81C141.67,222,248.29,160.08,337.1,136.18c39.41-9.6,63.51-12.63,82.43-13.62,6.84-.22,14.21-.49,21.55-.49,18.41,0,37.09,1.72,48.92,9.76,19.16,14.36,38.09,28.65,58.22,44.54,2,2.72,4.2,7-.8,14.35-9.24,10.81-18.16,21.14-27.55,32.26-5.41,6.57-14.39,4.84-21.95,2.79-15.84-8.11-31.08-15.56-46.54-23.05-28-12.46-57-25.28-89.27-24-20.13,1.61-39.62,22.21-41.64,50.39-2.79,42.88-4.66,86.84-6.24,134.46C370.18,362,426,361,484.85,360.74c0,13.39-.09,25.67-.09,39.39-19.2,8.58-37.3,17.25-56.54,26-39.7.46-77.48.77-115.53,1.43-1.76,113.29-.09,226.16,5,330.51,1,15.75,1.76,31.7,6.29,42.38,5.43,13.44,36.66,23.8,104.6,27.63.27,11.83.6,23,1,34.46-110.63-3.22-216.86-13.81-302-29.13C219.07,935.63,352,1000,500,1000c276.15,0,500-223.87,500-500A497.6,497.6,0,0,0,912.66,217.69Z"/><path class="cls-3" d="M127.51,833.43h0v0Z"/></g></g></g></g></svg>