<svg version="1.0" xmlns="http://www.w3.org/2000/svg" viewBox="0 0 700 230">
  <g color="#ee2e24">
    <path fill="currentcolor" d="M133 80c-3 1-8 7-9 11l-2 6 15 1h14v-9l-1-10h-8l-9 1zM160 80l-1 9v9h28V79h-13l-14 1zM196 88v10h28v-4c-1-5-4-10-7-12s-5-3-12-3h-9v9z" />
    <path d="M35 116l1 35 8 1h9v-29h53v-15H53V96h61V80H35v36zM237 116l1 35 8 1h9v-29h19l22 1c3 1 3 1 3 14l1 13 8 1h8v-14c0-12 0-14-2-16s-2-2 1-6c2-4 2-6 2-13 0-11-2-16-9-20l-4-3h-67v36zm61-18l2 4c0 6-1 6-24 6h-21V96h21c18 0 21 0 22 2zM326 88v8h17v56h17V96h32V80h-66v8zM400 116l1 35 8 1h9V80h-18v36zM431 116v36h17V96h21c19 0 21 0 22 2 2 1 2 5 2 28v25l9 1h9v-25c0-29-1-33-7-40-5-6-9-7-43-7h-30v36zM523 116v36h70l1-8v-8h-27l-26-1v-11l18-1h18v-15h-37V96h53V80h-70v36zM602 88v8h16v28l1 28h17V96h31V80h-65v8z" />
    <path fill="currentcolor" d="M123 107l-1 9v9h29v-19h-14l-14 1zM196 116v9h28v-19h-28v10zM123 137c0 5 3 10 7 13 2 2 4 2 12 2h9v-19h-29l1 4zM159 143v9h28v-19h-28v10zM196 143v9h9c8 0 9 0 12-3 4-3 7-9 7-13v-3h-28v10z" />
    <path d="M658 137c-2 1-3 3-3 6 0 5 3 8 8 8 8 0 12-9 6-14-4-4-8-4-11-1zm11 1c4 5 1 12-5 12-7 0-10-8-5-13 2-2 3-2 5-2l5 3z" />
    <path d="M660 143c0 4 0 4 1 2 1-3 4-3 5 0 1 5 2 1 1-6l-3-1h-4v5zm6-2l-2 1c-3-1-4-3-1-3 2 0 3 0 3 2z" />
  </g>
</svg>
