<svg xmlns="http://www.w3.org/2000/svg" data-name="Layer 1" viewBox="0 0 32 32"><defs><clipPath id="a"><path fill="none" d="M10.55 16h13a1.5 1.5 0 0 1 0 3h-13a1.5 1.5 0 0 1 0-3" clip-rule="evenodd"/></clipPath></defs><path fill="#fff" stroke="#7863ec" stroke-miterlimit="10" d="M10.59 8.51h11a1.5 1.5 0 1 1 0 3h-11a1.5 1.5 0 0 1 0-3z"/><g clip-path="url(#a)"><path fill="#e9e8ff" d="M4.05 11h26v13h-26z"/></g><path fill="#e9e8fe" stroke="#7863ec" stroke-miterlimit="10" d="M9.51 14.52h13a1.5 1.5 0 1 1 0 3h-13a1.5 1.5 0 0 1 0-3zm1.09 5.99h11a1.5 1.5 0 0 1 0 3h-11a1.5 1.5 0 0 1 0-3z"/><path fill="none" stroke="#7863ec" stroke-miterlimit="10" d="M2 4.55h1.73a1.73 1.73 0 0 1 1.72 1.74V24a3.52 3.52 0 0 0 3.5 3.53H23A3.52 3.52 0 0 0 26.51 24V6.31a1.75 1.75 0 0 1 1.74-1.76H30"/></svg>