<svg xmlns="http://www.w3.org/2000/svg" width="1024" height="370" viewBox="-3.19 -3.19 311.907 112.728"><path d="M82.265 54.762c0-1.315.47-2.347 1.317-3.192.847-.939 1.975-1.314 3.197-1.314s2.257.375 3.103 1.314c.94.845 1.41 1.877 1.41 3.192V99.54c0 1.22-.47 2.253-1.316 3.192a4.48 4.48 0 0 1-3.197 1.314c-1.222 0-2.256-.47-3.103-1.314-.94-.939-1.41-1.972-1.41-3.192z" style="fill:#000;fill-opacity:1;fill-rule:nonzero;stroke:#000;stroke-opacity:1"/><path d="M99.567 68.28c0-2.723.564-5.35 1.598-7.699 1.034-2.44 2.444-4.599 4.232-6.382a19.55 19.55 0 0 1 6.3-4.226c2.443-1.031 4.983-1.5 7.803-1.5 1.975 0 3.95.28 5.83.844 1.78.563 3.485 1.408 5.077 2.44a18 18 0 0 1 4.236 3.755c1.216 1.408 2.256 3.004 3.008 4.788.188.375.376.752.376 1.22.088.376.188.751.188 1.128 0 1.032-.376 2.065-1.128 3.003-.852.94-1.88 1.408-3.296 1.408-1.88 0-3.196-.94-4.136-2.723-.752-1.971-2.068-3.66-3.948-4.974q-2.681-1.972-6.207-1.971c-1.504 0-2.914.281-4.324.844-1.318.563-2.446 1.408-3.48 2.346-1.034.94-1.786 2.16-2.35 3.474q-.847 1.972-.847 4.225v17.649c0 1.5.282 2.815.847 4.224.658 1.314 1.41 2.44 2.444 3.473a12.3 12.3 0 0 0 3.48 2.253q1.974.845 4.23.845 3.526 0 6.207-1.972c1.88-1.314 3.196-3.003 4.048-4.975.376-.751 1.028-1.408 1.78-1.877s1.504-.752 2.256-.752c1.316 0 2.444.47 3.196 1.409s1.228 1.877 1.228 3.004c0 .657-.1 1.22-.376 1.69-.664 1.877-1.692 3.567-2.92 5.069-1.216 1.502-2.632 2.816-4.136 3.943-1.592 1.126-3.384 1.97-5.264 2.534-1.882.657-3.856.939-6.02.939-2.725 0-5.265-.563-7.709-1.596s-4.513-2.535-6.3-4.318c-1.787-1.784-3.29-3.85-4.325-6.196-1.034-2.44-1.598-4.976-1.598-7.697z" style="fill:#f60;fill-opacity:1;fill-rule:nonzero;stroke:none"/><path d="M146.864 54.762c0-1.315.376-2.347 1.316-3.192.84-.939 1.88-1.314 3.096-1.314 1.228 0 2.268.375 3.208 1.314.84.845 1.316 1.877 1.316 3.192V99.54c0 1.22-.376 2.253-1.316 3.192-.852.845-1.88 1.314-3.208 1.314-1.128 0-2.156-.47-3.096-1.314-.94-.939-1.316-1.972-1.316-3.192V54.762z" style="fill:#000;fill-opacity:1;stroke:#000;stroke-width:1.2216469;stroke-linecap:butt;stroke-linejoin:miter;stroke-miterlimit:10;stroke-dasharray:none;stroke-opacity:1"/><path d="M164.16 68.28c0-2.63.477-5.257 1.504-7.605 1.04-2.44 2.445-4.505 4.237-6.289 1.78-1.783 3.948-3.192 6.392-4.225 2.356-1.126 4.989-1.595 7.708-1.595 2.633 0 5.265.47 7.709 1.595 2.356 1.033 4.512 2.442 6.304 4.225a19.5 19.5 0 0 1 4.224 6.29c1.128 2.347 1.605 4.975 1.605 7.604v31.26c0 1.22-.376 2.253-1.229 3.192-.84.845-1.88 1.314-3.196 1.314-1.128 0-2.156-.47-3.096-1.314-.94-.939-1.316-1.972-1.316-3.192V68.28a10.5 10.5 0 0 0-.852-4.131c-.564-1.314-1.404-2.534-2.444-3.474-.94-1.032-2.156-1.783-3.472-2.346s-2.732-.845-4.237-.845c-1.591 0-3.008.282-4.324.845a10.9 10.9 0 0 0-3.484 2.346c-.94.94-1.78 2.16-2.344 3.474a10.5 10.5 0 0 0-.852 4.131v31.26c0 1.22-.376 2.253-1.216 3.192-.852.845-1.88 1.314-3.196 1.314-1.229 0-2.256-.47-3.109-1.314-.94-.939-1.316-1.972-1.316-3.192z" style="fill:#f60;fill-opacity:1;fill-rule:nonzero;stroke:none"/><path d="M82.265 54.762c0-1.314.47-2.346 1.316-3.192.847-.938 1.975-1.313 3.197-1.313s2.258.375 3.104 1.313c.94.846 1.41 1.878 1.41 3.192v44.779c0 1.22-.47 2.253-1.316 3.191a4.48 4.48 0 0 1-3.198 1.315c-1.222 0-2.256-.47-3.103-1.315-.94-.938-1.41-1.971-1.41-3.191V54.762z" style="fill:none;stroke:#000;stroke-width:1.2216469;stroke-linecap:butt;stroke-linejoin:miter;stroke-miterlimit:10;stroke-dasharray:none;stroke-opacity:1"/><path d="M99.567 68.28c0-2.722.564-5.35 1.598-7.698 1.034-2.44 2.444-4.6 4.231-6.383a19.55 19.55 0 0 1 6.3-4.225c2.444-1.032 4.983-1.5 7.803-1.5 1.975 0 3.95.28 5.83.843 1.78.563 3.485 1.409 5.077 2.44a18 18 0 0 1 4.237 3.756c1.215 1.408 2.256 3.004 3.008 4.788.188.375.376.751.376 1.22.087.376.188.75.188 1.127 0 1.032-.376 2.065-1.128 3.003-.853.94-1.88 1.409-3.297 1.409-1.88 0-3.196-.94-4.136-2.723-.752-1.971-2.068-3.661-3.948-4.974q-2.68-1.972-6.207-1.972a11.5 11.5 0 0 0-4.324.845c-1.317.562-2.445 1.408-3.48 2.346-1.033.94-1.786 2.16-2.35 3.473q-.847 1.972-.847 4.226v17.648c0 1.501.282 2.816.847 4.224.658 1.315 1.41 2.44 2.445 3.474a12.3 12.3 0 0 0 3.479 2.253q1.974.844 4.23.844 3.527 0 6.207-1.971c1.88-1.314 3.196-3.004 4.048-4.975.376-.752 1.028-1.408 1.78-1.878s1.504-.751 2.256-.751c1.316 0 2.444.47 3.196 1.408.752.94 1.229 1.878 1.229 3.005 0 .656-.1 1.22-.376 1.69-.665 1.877-1.692 3.566-2.92 5.068-1.217 1.502-2.633 2.817-4.137 3.943-1.592 1.127-3.384 1.972-5.264 2.535-1.881.657-3.856.938-6.019.938-2.726 0-5.265-.563-7.71-1.595-2.444-1.033-4.513-2.535-6.299-4.319s-3.291-3.849-4.325-6.195c-1.034-2.44-1.598-4.976-1.598-7.698V68.281zM164.16 68.28c0-2.629.476-5.256 1.504-7.604 1.04-2.44 2.444-4.505 4.236-6.29 1.78-1.783 3.948-3.191 6.393-4.224 2.356-1.126 4.988-1.595 7.708-1.595 2.632 0 5.264.469 7.708 1.595 2.357 1.033 4.512 2.441 6.305 4.225a19.5 19.5 0 0 1 4.224 6.289c1.128 2.348 1.604 4.975 1.604 7.605v31.26c0 1.22-.376 2.253-1.228 3.191-.84.845-1.88 1.315-3.197 1.315-1.128 0-2.155-.47-3.095-1.315-.94-.938-1.316-1.971-1.316-3.191V68.28a10.5 10.5 0 0 0-.853-4.132c-.564-1.313-1.404-2.534-2.444-3.473-.94-1.032-2.156-1.784-3.472-2.347s-2.732-.844-4.236-.844c-1.592 0-3.008.282-4.324.844a10.9 10.9 0 0 0-3.485 2.347c-.94.94-1.78 2.16-2.344 3.473a10.5 10.5 0 0 0-.852 4.132v31.26c0 1.22-.376 2.253-1.216 3.191-.852.845-1.88 1.315-3.196 1.315-1.228 0-2.256-.47-3.108-1.315-.94-.938-1.316-1.971-1.316-3.191V68.28z" style="fill:#000;fill-opacity:1;stroke:#000;stroke-width:1.2216469;stroke-linecap:butt;stroke-linejoin:miter;stroke-miterlimit:10;stroke-dasharray:none;stroke-opacity:1"/><path d="M212.78 68.28c0-2.63.563-5.257 1.59-7.699 1.041-2.346 2.445-4.505 4.237-6.289 1.78-1.783 3.949-3.192 6.393-4.225 2.343-1.032 4.988-1.5 7.708-1.5 2.068 0 4.048.28 5.928.844 1.88.656 3.66 1.408 5.265 2.534a21 21 0 0 1 4.224 3.943 19.4 19.4 0 0 1 3.008 5.07c.1.188.188.469.188.844v.94c0 1.031-.376 2.065-1.128 3.003s-1.78 1.314-3.196 1.314c-.84 0-1.592-.187-2.344-.563a4.35 4.35 0 0 1-1.692-1.97c-.853-2.067-2.256-3.757-4.049-5.07q-2.67-1.972-6.204-1.972c-1.592 0-3.008.282-4.324.845a10.9 10.9 0 0 0-3.485 2.346c-.94.94-1.692 2.16-2.343 3.474a10.5 10.5 0 0 0-.853 4.131v17.649c0 1.5.289 2.815.853 4.224.651 1.314 1.403 2.44 2.444 3.473.94.939 2.155 1.69 3.472 2.253a10.7 10.7 0 0 0 4.236.845c1.504 0 2.92-.282 4.236-.845s2.532-1.314 3.472-2.253a10.7 10.7 0 0 0 2.357-3.473c.564-1.409.84-2.723.84-4.224v-2.16H239.2c-1.229 0-2.257-.47-3.109-1.314-.84-.94-1.316-1.971-1.316-3.192 0-1.22.476-2.252 1.316-3.098.852-.844 1.88-1.315 3.109-1.315h8.924c1.228 0 2.256.377 3.196 1.221.852.846 1.228 1.878 1.228 3.192v6.666c0 2.721-.476 5.257-1.504 7.697-1.128 2.347-2.544 4.412-4.324 6.196a20.9 20.9 0 0 1-6.305 4.318c-2.444 1.033-4.976 1.596-7.708 1.596-2.72 0-5.365-.563-7.708-1.596a20.1 20.1 0 0 1-6.393-4.318c-1.792-1.784-3.196-3.85-4.236-6.196-1.028-2.44-1.592-4.976-1.592-7.697z" style="fill:#000;fill-opacity:1;fill-rule:nonzero;stroke:none"/><path d="M280.95 65.557c-.563 1.315-1.127 2.535-1.604 3.755-.564 1.22-1.04 2.441-1.604 3.66l-1.692 3.662c-.464 1.22-1.028 2.535-1.692 4.038h13.173l-6.58-15.115zm-4.048-12.954c.84-1.784 2.256-2.723 4.049-2.723.275 0 .564.094.94.094.276.094.564.187.84.376 1.128.47 1.88 1.314 2.356 2.253l19.365 45.341c.275.658.463 1.22.463 1.784 0 1.033-.376 1.971-1.215 2.91-.752.939-1.88 1.408-3.196 1.408-2.069 0-3.385-.845-4.137-2.628L291.38 89.59h-20.68c-.853 1.971-1.693 3.942-2.545 5.914a187 187 0 0 0-2.532 5.914c-.376.939-.94 1.596-1.692 2.065-.665.376-1.504.563-2.357.563-1.403 0-2.444-.47-3.196-1.408-.84-.939-1.215-1.877-1.215-2.91 0-.282 0-.563.088-.939 0-.281.1-.563.288-.845l19.365-45.341z" style="fill:#000;fill-opacity:1;stroke:#000;stroke-width:1.2216469;stroke-linecap:butt;stroke-linejoin:miter;stroke-miterlimit:10;stroke-dasharray:none;stroke-opacity:1"/><path d="M212.779 68.28c0-2.629.564-5.256 1.591-7.698 1.04-2.346 2.444-4.505 4.237-6.289 1.78-1.784 3.948-3.192 6.392-4.225 2.344-1.032 4.988-1.501 7.708-1.501 2.068 0 4.049.281 5.929.844 1.88.657 3.66 1.409 5.264 2.534a21 21 0 0 1 4.224 3.944 19.4 19.4 0 0 1 3.008 5.07c.1.187.188.469.188.844v.94c0 1.031-.376 2.064-1.128 3.002-.752.94-1.78 1.315-3.196 1.315-.84 0-1.592-.188-2.344-.563a4.35 4.35 0 0 1-1.692-1.971c-.852-2.067-2.256-3.756-4.048-5.07q-2.67-1.97-6.205-1.97c-1.591 0-3.008.28-4.324.843a10.9 10.9 0 0 0-3.484 2.347c-.94.94-1.692 2.16-2.344 3.473a10.5 10.5 0 0 0-.852 4.132v17.648c0 1.501.288 2.816.852 4.224.652 1.315 1.404 2.44 2.444 3.474.94.938 2.156 1.69 3.472 2.253 1.328.563 2.732.844 4.236.844s2.92-.281 4.237-.844c1.316-.564 2.532-1.315 3.472-2.253a10.7 10.7 0 0 0 2.356-3.474c.564-1.408.84-2.723.84-4.224v-2.16H239.2c-1.228 0-2.256-.469-3.109-1.313-.84-.94-1.316-1.971-1.316-3.192s.477-2.253 1.316-3.098c.853-.845 1.88-1.315 3.109-1.315h8.924c1.228 0 2.256.377 3.196 1.22.852.846 1.228 1.878 1.228 3.193v6.665c0 2.722-.476 5.257-1.504 7.698-1.128 2.346-2.544 4.412-4.324 6.195a20.9 20.9 0 0 1-6.304 4.319c-2.444 1.032-4.976 1.595-7.709 1.595-2.72 0-5.364-.563-7.708-1.595a20.1 20.1 0 0 1-6.392-4.319c-1.793-1.783-3.196-3.849-4.237-6.195-1.027-2.44-1.591-4.976-1.591-7.698V68.281zM40.705 40.306l12.223-25.159M32.712 44.061 12.121 27.162m26.61 23.752L52.74 74.382M37.79 49.88 88 37.49M37.79 49.88 13.53 84.615" style="fill:none;stroke:#000;stroke-width:1.2216469;stroke-linecap:butt;stroke-linejoin:miter;stroke-miterlimit:10;stroke-dasharray:none;stroke-opacity:1"/><path d="M26.601 35.705c7.053-5.727 17.396-4.693 23.132 2.347 5.735 7.04 4.701 17.366-2.352 23.094-7.051 5.632-17.394 4.599-23.13-2.442-5.735-6.947-4.607-17.272 2.35-23M49.733 2.474C53.4-.437 58.759.126 61.768 3.694c3.009 3.66 2.445 9.011-1.222 12.015-3.668 3.005-9.027 2.44-12.035-1.22-3.01-3.661-2.446-9.012 1.222-12.015m30.37 34.639c-.282-3.661 2.538-6.853 6.206-7.135 3.761-.281 6.957 2.44 7.24 6.103.281 3.755-2.539 6.946-6.206 7.228s-6.958-2.441-7.24-6.196M7.608 29.697c-1.128-2.346-.188-5.35 2.257-6.478 2.445-1.22 5.36-.187 6.581 2.254 1.223 2.347.188 5.35-2.256 6.477-2.445 1.22-5.36.187-6.582-2.253m41.749 44.966c.188-1.878 1.88-3.286 3.76-3.097 1.881.281 3.291 1.971 3.01 3.849-.189 1.877-1.881 3.192-3.762 3.003-1.88-.188-3.29-1.878-3.008-3.755M.65 86.303a10.975 10.975 0 0 1 10.155-11.828c6.111-.469 11.377 4.132 11.847 10.139.471 6.101-4.042 11.453-10.154 11.922-6.112.376-11.472-4.13-11.848-10.232" style="fill:#000;fill-opacity:1;fill-rule:nonzero;stroke:none"/><path d="M.65 86.305a10.975 10.975 0 0 1 10.155-11.829c6.11-.47 11.376 4.131 11.846 10.139.472 6.101-4.042 11.453-10.154 11.922C6.385 96.912 1.026 92.406.65 86.305z" style="fill:none;stroke:#000;stroke-width:1.2216469;stroke-linecap:butt;stroke-linejoin:miter;stroke-miterlimit:10;stroke-dasharray:none;stroke-opacity:1"/><path d="M49.356 74.664c.188-1.878 1.88-3.286 3.76-3.097 1.881.281 3.292 1.97 3.01 3.848-.188 1.878-1.88 3.192-3.762 3.004-1.88-.188-3.29-1.878-3.008-3.755M7.608 29.698c-1.129-2.347-.188-5.351 2.256-6.478 2.445-1.22 5.36-.188 6.582 2.254 1.222 2.346.188 5.35-2.256 6.477-2.445 1.22-5.36.187-6.582-2.253" style="fill:#000;fill-opacity:1;fill-rule:nonzero;stroke:none"/><path d="M80.103 37.114c-.282-3.661 2.538-6.853 6.205-7.135 3.762-.281 6.958 2.44 7.24 6.103.282 3.755-2.538 6.945-6.206 7.228-3.667.282-6.957-2.441-7.24-6.196zM49.732 2.474c3.667-2.91 9.027-2.347 12.035 1.22 3.01 3.661 2.445 9.012-1.222 12.016-3.667 3.005-9.027 2.44-12.035-1.22-3.01-3.662-2.445-9.012 1.222-12.016zM26.6 35.705c7.054-5.726 17.397-4.693 23.132 2.348s4.701 17.366-2.351 23.093c-7.052 5.633-17.395 4.6-23.13-2.441-5.736-6.947-4.608-17.272 2.35-23z" style="fill:none;stroke:#000;stroke-width:1.2216469;stroke-linecap:butt;stroke-linejoin:miter;stroke-miterlimit:10;stroke-dasharray:none;stroke-opacity:1"/></svg>