<svg xmlns="http://www.w3.org/2000/svg" xml:space="preserve" id="Layer_1" x="0" y="0" version="1.1" viewBox="0 0 216.8 65.5"><style>.st0{fill:#231f20}</style><path d="M42.2 26.9v17.4h-4.3V28.1c0-1.5-.3-2.7-.8-3.4-.6-.7-1.4-1.1-2.6-1.1-.9 0-1.9.3-2.9.8s-2 1.3-3 2.3v17.7h-4.2v-24h3.9v3.2q2.1-1.95 3.9-2.7c1.2-.5 2.4-.8 3.6-.8 2 0 3.6.6 4.7 1.8 1.1 1.1 1.7 2.8 1.7 5M56.1 11.2v3.5c-1-.1-1.4-.1-1.8-.1s-.7-.1-.9-.1c-1 0-1.7.2-2.1.7s-.6 1.2-.6 2.3v2.8H56v3.6h-5.3v20.4h-4.2V16.9c0-2 .5-3.5 1.6-4.5 1-1 2.5-1.6 4.5-1.6.4 0 .9 0 1.4.1.4.1 1 .2 2.1.3M66.9 19.9c3.1 0 5.6 1.1 7.3 3.2s2.6 5.1 2.6 9-.9 6.9-2.6 9-4.2 3.2-7.3 3.2-5.6-1.1-7.3-3.2-2.6-5.1-2.6-9c0-3.8.9-6.8 2.6-9 1.7-2.1 4.1-3.2 7.3-3.2m0 3.7q-2.7 0-4.2 2.1c-.9 1.4-1.4 3.5-1.4 6.3s.5 4.9 1.4 6.4c.9 1.4 2.3 2.2 4.2 2.2 1.8 0 3.2-.7 4.1-2.2 1-1.4 1.4-3.6 1.4-6.3 0-2.8-.5-4.9-1.4-6.4-.9-1.4-2.3-2.1-4.1-2.1M104.3 11h4.2v33.4h-4.2zM15.8 11H20v33.4h-4.2zM84.9 44.4v-2.6c.7.7 1.4 1.3 2.3 1.7 1 .5 2.2.8 3.5.8 3 0 5.3-1.1 6.9-3.2 1.7-2.2 2.5-5.2 2.5-9 0-3.7-.9-6.6-2.6-8.8s-4-3.2-6.9-3.2c-1.2 0-2.2.3-3.2.7-1 .5-1.8 1.2-2.5 2.2V11h-4.2v33.4zm9.4-5.9c-1 1.5-2.4 2.2-4.2 2.2-1 0-1.9-.2-2.7-.7s-1.7-1.2-2.4-2.2V26.4c.8-.9 1.6-1.7 2.4-2.1.8-.5 1.7-.7 2.6-.7 1.9 0 3.4.7 4.4 2.2s1.5 3.7 1.5 6.5c-.2 2.7-.6 4.8-1.6 6.2M122.5 19.9c3.1 0 5.6 1.1 7.3 3.2s2.6 5.1 2.6 9-.9 6.9-2.6 9-4.2 3.2-7.3 3.2-5.6-1.1-7.3-3.2-2.6-5.1-2.6-9c0-3.8.9-6.8 2.6-9 1.7-2.1 4.2-3.2 7.3-3.2m0 3.7q-2.7 0-4.2 2.1c-.9 1.4-1.4 3.5-1.4 6.3s.5 4.9 1.4 6.4c.9 1.4 2.3 2.2 4.2 2.2 1.8 0 3.2-.7 4.1-2.2 1-1.4 1.4-3.6 1.4-6.3 0-2.8-.5-4.9-1.4-6.4-.9-1.4-2.3-2.1-4.1-2.1M133.8 20h4.9l4.4 8 4.5-8h4.6l-6.7 11.5 7.6 12.7h-4.9l-5.2-9.5-5.2 9.5h-4.6l7.5-12.7z" class="st0"/><path d="m167.2 28.1-7.2-5.4c-.2-.2-.3-.4-.3-.5 0-.2.1-.4.3-.5l7.2-5.4c.5-.4 1.5-.4 2.1 0l7.2 5.4c.2.2.3.4.3.5 0 .2-.1.4-.3.5l-7.2 5.4c-.6.4-1.6.4-2.1 0" style="fill:#95c840"/><path d="m167.2 45.5-7.2-5.4c-.2-.2-.3-.4-.3-.5 0-.2.1-.4.3-.5l7.2-5.4c.5-.4 1.5-.4 2.1 0l7.2 5.4c.2.2.3.4.3.5 0 .2-.1.4-.3.5l-7.2 5.4c-.6.5-1.6.5-2.1 0" style="fill:#59c9e6"/><path d="m178.8 19.5-7.2-5.4q-.3-.3-.3-.6c0-.2.1-.4.3-.5l7.2-5.4c.6-.4 1.5-.4 2.1 0l7.2 5.4c.2.2.3.4.3.5q0 .3-.3.6l-7.2 5.4c-.6.4-1.5.4-2.1 0" style="fill:#ebe719"/><path d="m178.8 36.9-7.2-5.4c-.2-.2-.3-.4-.3-.5 0-.2.1-.4.3-.5l7.2-5.4c.6-.4 1.5-.4 2.1 0l7.2 5.4c.2.2.3.4.3.5 0 .2-.1.4-.3.5l-7.2 5.4c-.6.4-1.5.4-2.1 0" style="fill:#50c0af"/><path d="m178.8 54.6-7.2-5.4q-.3-.3-.3-.6c0-.2.1-.4.3-.5l7.2-5.4c.6-.4 1.5-.4 2.1 0l7.2 5.4c.2.2.3.4.3.5q0 .3-.3.6l-7.2 5.4c-.6.4-1.5.4-2.1 0" style="fill:#0377bb"/><path d="m190.4 28.1-7.2-5.4c-.2-.2-.3-.4-.3-.5 0-.2.1-.4.3-.5l7.2-5.4c.5-.4 1.5-.4 2.1 0l7.2 5.4c.2.2.3.4.3.5 0 .2-.1.4-.3.5l-7.2 5.4c-.5.4-1.5.4-2.1 0" style="fill:#78bc43"/><path d="m190.4 45.5-7.2-5.4c-.2-.2-.3-.4-.3-.5 0-.2.1-.4.3-.5l7.2-5.4c.5-.4 1.5-.4 2.1 0l7.2 5.4c.2.2.3.4.3.5 0 .2-.1.4-.3.5l-7.2 5.4c-.5.5-1.5.5-2.1 0" style="fill:#109fda"/><path d="M206.1 30.9c0 1.7-1.3 3.1-3.1 3.1-1.7 0-3.1-1.4-3.1-3.1s1.3-3.1 3.1-3.1c1.8.1 3.1 1.4 3.1 3.1m-5.7 0c0 1.5 1.1 2.6 2.6 2.6s2.6-1.2 2.6-2.6c0-1.5-1.1-2.6-2.6-2.6-1.4 0-2.6 1.2-2.6 2.6m2 1.8h-.4v-3.6h1.4c.8 0 1.2.3 1.2 1 0 .6-.4.9-.9 1l1.1 1.6h-.5l-1-1.6h-.7v1.6zm.6-1.9c.5 0 1.1 0 1.1-.6 0-.5-.4-.6-.8-.6h-.8v1.2zM20.9 58.4l-4.5-6.1v6.1h-1v-7.6h1l4.4 6v-6h1v7.6zM23.6 58.4v-7.6h5v.8h-4.1v2.5h4v.9h-4v2.6h4.1v.8zM35.4 58.4 33 55.2l-2.4 3.3h-1.2l3-3.9-2.8-3.7h1.2l2.3 3.1 2.3-3.1h1.2l-2.8 3.7 3 3.9h-1.4zM39.5 58.4v-6.8h-2.4v-.8h5.8v.8h-2.4v6.8zM47.1 58.4v-7.6h1v6.8h3.6v.8zM53 58.4v-7.6h5v.8h-4.1v2.5h4v.9h-4v2.6H58v.8zM61.8 58.4l-3.1-7.6h1.1l2.6 6.6 2.6-6.6h1.1L63 58.4zM67 58.4v-7.6h5v.8h-4v2.5h4v.9h-4v2.6h4.1v.8zM73.6 58.4v-7.6h1v6.8h3.6v.8zM87.8 58.4l-4.5-6.1v6.1h-1v-7.6h1l4.4 6v-6h1v7.6zM90.5 58.4v-7.6h5v.8h-4.1v2.5h4v.9h-4v2.6h4.1v.8zM98.9 58.4v-6.8h-2.4v-.8h5.8v.8h-2.4v6.8zM109.4 58.4l-1.7-6.2-1.7 6.2h-1l-2.2-7.6h1.1l1.7 6.4 1.8-6.4h.8l1.8 6.4 1.7-6.4h1.1l-2.2 7.6zM113.2 54.6c0-2.3 1.5-3.9 3.8-3.9s3.8 1.7 3.8 3.9c0 2.3-1.5 3.9-3.8 3.9-2.3.1-3.8-1.6-3.8-3.9m6.6 0c0-1.8-1.1-3.1-2.8-3.1s-2.8 1.3-2.8 3.1 1.1 3.1 2.8 3.1 2.8-1.3 2.8-3.1M126.7 58.4l-2-3h-1.5v3h-1v-7.6h3.1c1.4 0 2.4.9 2.4 2.3s-.9 2.1-2 2.2l2.1 3.1zm0-5.3c0-.9-.6-1.5-1.5-1.5h-2v2.9h2c.9.1 1.5-.5 1.5-1.4M133.8 58.4l-2.9-3.4-.8.9v2.6h-1v-7.6h1v3.9l3.4-3.9h1.2l-3.2 3.6 3.5 4h-1.2zM136.1 58.4v-7.6h1v7.6zM144.3 58.4l-4.5-6.1v6.1h-1v-7.6h1l4.4 6v-6h1v7.6zM146.7 54.6c0-2.4 1.8-3.9 3.9-3.9 1.4 0 2.3.6 3 1.4l-.8.5c-.5-.6-1.3-1.1-2.2-1.1-1.7 0-2.9 1.3-2.9 3.1s1.3 3.1 2.9 3.1c.9 0 1.7-.4 2.1-.8v-1.6H150v-.8h3.6v2.8c-.7.8-1.8 1.3-3 1.3-2.2 0-3.9-1.6-3.9-4" class="st0"/></svg>