<?xml version="1.0" encoding="UTF-8" standalone="no"?>
<svg
   xmlns:dc="http://purl.org/dc/elements/1.1/"
   xmlns:cc="http://creativecommons.org/ns#"
   xmlns:rdf="http://www.w3.org/1999/02/22-rdf-syntax-ns#"
   xmlns:svg="http://www.w3.org/2000/svg"
   xmlns="http://www.w3.org/2000/svg"
   viewBox="0 0 957.61334 261.66666"
   height="261.66666"
   width="957.61334"
   xml:space="preserve"
   id="svg2"
   version="1.1"><metadata
     id="metadata8"><rdf:RDF><cc:Work
         rdf:about=""><dc:format>image/svg+xml</dc:format><dc:type
           rdf:resource="http://purl.org/dc/dcmitype/StillImage" /></cc:Work></rdf:RDF></metadata><defs
     id="defs6" /><g
     transform="matrix(1.3333333,0,0,-1.3333333,0,261.66667)"
     id="g10"><g
       transform="scale(0.1)"
       id="g12"><path
         id="path14"
         style="fill:#231f20;fill-opacity:1;fill-rule:nonzero;stroke:none"
         d="m 3522.67,386.301 h 44.12 L 3794.08,72.8516 V 386.301 h 39 V 6.14844 h -36.96 L 3561.66,328.859 V 6.14844 h -38.99 V 386.301" /><path
         id="path16"
         style="fill:#231f20;fill-opacity:1;fill-rule:nonzero;stroke:none"
         d="M 3930.04,386.301 H 4181.4 V 347.82 H 3970.56 V 222.148 h 205.71 V 184.16 H 3970.56 V 43.0898 h 212.9 V 6.14844 H 3930.04 V 386.301" /><path
         id="path18"
         style="fill:#231f20;fill-opacity:1;fill-rule:nonzero;stroke:none"
         d="m 4385.07,347.82 h -142.6 v 38.481 h 325.76 V 347.82 H 4425.61 V 6.14844 h -40.54 V 347.82" /><path
         id="path20"
         style="fill:#231f20;fill-opacity:1;fill-rule:nonzero;stroke:none"
         d="m 4617.46,386.301 h 41.56 L 4759.05,71.8516 4861.14,386.301 h 34.9 L 4997.61,71.8516 5098.15,386.301 h 39.01 L 5015.05,3.60156 h -34.87 L 4877.56,320.109 4775.47,3.60156 h -35.38 L 4617.46,386.301" /><path
         id="path22"
         style="fill:#231f20;fill-opacity:1;fill-rule:nonzero;stroke:none"
         d="m 5515.75,195.988 c 0,102.602 -47.7,157.981 -151.35,157.981 -103.12,0 -150.31,-55.379 -150.31,-157.981 0,-103.1286 47.19,-158.5583 150.31,-158.5583 103.65,0 151.35,55.4297 151.35,158.5583 z m -342.18,0.492 c 0,135.43 69.25,195.981 190.83,195.981 122.1,0 191.87,-60.551 191.87,-195.981 C 5556.27,60.5391 5486.5,0 5364.4,0 5242.82,0 5173.57,60.5391 5173.57,196.48" /><path
         id="path24"
         style="fill:#231f20;fill-opacity:1;fill-rule:nonzero;stroke:none"
         d="m 5803.55,198.031 c 53.87,0 87.21,16.41 87.21,76.438 0,59 -32.31,74.371 -88.74,74.371 H 5678.38 V 198.031 Z m -11.28,-36.929 H 5678.38 V 6.14844 h -39.51 V 386.301 h 164.17 c 88.23,0 128.26,-35.403 128.26,-110.821 0,-65.652 -31.29,-104.121 -97.49,-112.832 L 5925.63,6.14844 h -43.07 L 5792.27,161.102" /><path
         id="path26"
         style="fill:#231f20;fill-opacity:1;fill-rule:nonzero;stroke:none"
         d="m 6132.91,207.77 -75.94,-83.09 V 6.14844 h -39.49 V 386.301 h 39.49 V 176.469 l 192.39,209.832 h 46.68 L 6159.59,237.012 6314.51,6.14844 h -45.65 L 6132.91,207.77" /><path
         id="path28"
         style="fill:#231f20;fill-opacity:1;fill-rule:nonzero;stroke:none"
         d="m 6348.38,44.6289 20.52,30.7695 c 45.63,-28.707 90.29,-38.4765 135.93,-38.4765 78.51,0 113.38,22.0586 113.38,74.4101 0,53.867 -45.13,61.539 -113.38,73.84 -82.08,14.398 -137.49,28.269 -137.49,105.168 0,73.398 47.19,102.121 137.49,102.121 59.54,0 102.11,-13.359 132.37,-33.871 l -21.55,-32.828 c -27.19,17.957 -67.73,29.769 -110.82,29.769 -68.21,0 -97.46,-19.011 -97.46,-64.133 0,-48.25 39.51,-57.457 107.23,-69.757 83.1,-14.903 143.11,-27.219 143.11,-108.77 0,-75.4413 -48.22,-111.83194 -151.84,-111.83194 -57.45,0 -109.28,11.78124 -157.49,43.58984" /><path
         id="path30"
         style="fill:#231f20;fill-opacity:1;fill-rule:nonzero;stroke:none"
         d="m 7055.16,1957.45 c -534.43,0 -557.12,-239.44 -557.12,-577.24 V 550.898 h 126 v 829.312 c 0,254.59 -10.08,458.77 431.12,458.77 47.25,0 89.2,-2.48 126.94,-6.89 v 120.07 c -38.93,3.41 -80.97,5.29 -126.94,5.29" /><path
         id="path32"
         style="fill:#231f20;fill-opacity:1;fill-rule:nonzero;stroke:none"
         d="m 821.941,1090.33 v 839.43 h 128.567 v -841.92 c 0,-242.02 -2.5,-446.168 441.142,-446.168 441.12,0 431.06,204.148 431.06,458.768 v 829.32 h 126.03 v -829.32 c 0,-337.819 -22.71,-577.268 -557.09,-577.268 -536.943,0 -569.709,239.449 -569.709,567.158" /><path
         id="path34"
         style="fill:#231f20;fill-opacity:1;fill-rule:nonzero;stroke:none"
         d="M 3288.78,1390.32 V 550.898 h -128.57 v 841.912 c 0,241.99 2.51,446.17 -441.12,446.17 -441.16,0 -431.04,-204.18 -431.04,-458.77 V 550.898 H 2162 v 829.312 c 0,337.8 22.71,577.24 557.09,577.24 536.94,0 569.69,-239.44 569.69,-567.13" /><path
         id="path36"
         style="fill:#231f20;fill-opacity:1;fill-rule:nonzero;stroke:none"
         d="m 3522.69,1927.2 h 123.36 V 550.898 H 3522.69 V 1927.2" /><path
         id="path38"
         style="fill:#231f20;fill-opacity:1;fill-rule:nonzero;stroke:none"
         d="m 4523.34,1152.87 c 222.62,0 333.24,108.48 333.24,327.66 0,219.12 -119.37,323.14 -338.76,323.14 h -517.27 v -650.8 z m -646.2,774.33 h 644.33 c 319.52,0 464.4,-158.81 464.4,-441.13 0,-284.18 -143.05,-456.96 -466.18,-456.96 H 4000.55 V 550.898 H 3877.14 V 1927.2" /><path
         id="path40"
         style="fill:#231f20;fill-opacity:1;fill-rule:nonzero;stroke:none"
         d="m 5255.55,1337.39 h 937.7 c -12.59,274.75 -30.26,509.16 -431.06,509.16 -385.65,0 -491.51,-209.23 -506.64,-509.16 z m -126.09,-93.3 c 0,405.81 116.02,718.42 635.31,718.42 536.89,0 554.5,-360.44 552.03,-741.08 H 5253.03 c 2.52,-335.289 85.66,-584.871 521.77,-584.871 231.91,0 337.81,63.062 451.24,146.242 l 70.54,-93.262 c -126,-93.269 -274.7,-166.367 -521.78,-166.367 -544.46,0 -645.34,315.117 -645.34,720.918" /><path
         id="path42"
         style="fill:#231f20;fill-opacity:1;fill-rule:nonzero;stroke:none"
         d="m 47.9414,252.238 c 534.4026,0 557.0976,239.461 557.0976,577.274 V 1929.76 H 478.977 V 829.512 c 0,-254.563 10.086,-458.821 -431.0356,-458.821 -16.6719,0 -32.5234,0.411 -47.9414,1.02 L 0,252.879 c 15.5078,-0.399 31.457,-0.641 47.9414,-0.641" /><path
         id="path44"
         style="fill:#231f20;fill-opacity:1;fill-rule:nonzero;stroke:none"
         d="m 6899.98,707.691 c -41.8,0 -75.8,-33.98 -75.8,-75.769 0,-41.723 34,-75.75 75.8,-75.75 41.71,0 75.71,34.027 75.71,75.75 0,41.789 -34,75.769 -75.71,75.769 z m 0,-162.761 c -47.98,0 -87.05,39.031 -87.05,86.992 0,47.988 39.07,87.027 87.05,87.027 47.97,0 86.96,-39.039 86.96,-87.027 0,-47.961 -38.99,-86.992 -86.96,-86.992 v 0" /><path
         id="path46"
         style="fill:#231f20;fill-opacity:1;fill-rule:nonzero;stroke:none"
         d="m 6908.69,632.84 c 13.65,0 21.47,3.949 21.47,18.531 0,14.438 -7.59,17.77 -21.88,17.77 h -30.61 V 632.84 Z m -3.1,-12.5 h -27.92 v -38.442 h -13.31 v 99.942 h 44.49 c 25.33,0 35.08,-10.379 35.08,-30.102 0,-16.129 -6.86,-27.277 -24.14,-30.488 l 22.61,-39.352 h -14.49 l -22.32,38.442" /></g></g></svg>