<svg xmlns="http://www.w3.org/2000/svg" xml:space="preserve" width="957.613" height="261.667"><path d="M3522.67 386.301h44.12l227.29-313.45v313.45h39V6.148h-36.96L3561.66 328.86V6.149h-38.99zM3930.04 386.301h251.36V347.82h-210.84V222.148h205.71V184.16h-205.71V43.09h212.9V6.148h-253.42zM4385.07 347.82h-142.6v38.481h325.76V347.82h-142.62V6.148h-40.54zM4617.46 386.301h41.56l100.03-314.45 102.09 314.45h34.9l101.57-314.45 100.54 314.45h39.01l-122.11-382.7h-34.87L4877.56 320.11 4775.47 3.602h-35.38zM5515.75 195.988c0 102.602-47.7 157.981-151.35 157.981-103.12 0-150.31-55.379-150.31-157.981 0-103.129 47.19-158.558 150.31-158.558 103.65 0 151.35 55.43 151.35 158.558m-342.18.492c0 135.43 69.25 195.981 190.83 195.981 122.1 0 191.87-60.551 191.87-195.981C5556.27 60.54 5486.5 0 5364.4 0c-121.58 0-190.83 60.54-190.83 196.48M5803.55 198.031c53.87 0 87.21 16.41 87.21 76.438 0 59-32.31 74.371-88.74 74.371h-123.64V198.031Zm-11.28-36.929h-113.89V6.148h-39.51v380.153h164.17c88.23 0 128.26-35.403 128.26-110.821 0-65.652-31.29-104.121-97.49-112.832l91.82-156.5h-43.07zM6132.91 207.77l-75.94-83.09V6.148h-39.49v380.153h39.49V176.469l192.39 209.832h46.68l-136.45-149.289L6314.51 6.148h-45.65zM6348.38 44.629l20.52 30.77c45.63-28.708 90.29-38.477 135.93-38.477 78.51 0 113.38 22.059 113.38 74.41 0 53.867-45.13 61.539-113.38 73.84-82.08 14.398-137.49 28.269-137.49 105.168 0 73.398 47.19 102.121 137.49 102.121 59.54 0 102.11-13.359 132.37-33.871l-21.55-32.828c-27.19 17.957-67.73 29.769-110.82 29.769-68.21 0-97.46-19.011-97.46-64.133 0-48.25 39.51-57.457 107.23-69.757 83.1-14.903 143.11-27.219 143.11-108.77 0-75.441-48.22-111.832-151.84-111.832-57.45 0-109.28 11.781-157.49 43.59M7055.16 1957.45c-534.43 0-557.12-239.44-557.12-577.24V550.898h126v829.312c0 254.59-10.08 458.77 431.12 458.77 47.25 0 89.2-2.48 126.94-6.89v120.07c-38.93 3.41-80.97 5.29-126.94 5.29M821.941 1090.33v839.43h128.567v-841.92c0-242.02-2.5-446.168 441.142-446.168 441.12 0 431.06 204.148 431.06 458.768v829.32h126.03v-829.32c0-337.819-22.71-577.268-557.09-577.268-536.943 0-569.709 239.449-569.709 567.158M3288.78 1390.32V550.898h-128.57v841.912c0 241.99 2.51 446.17-441.12 446.17-441.16 0-431.04-204.18-431.04-458.77V550.898H2162v829.312c0 337.8 22.71 577.24 557.09 577.24 536.94 0 569.69-239.44 569.69-567.13M3522.69 1927.2h123.36V550.898h-123.36zM4523.34 1152.87c222.62 0 333.24 108.48 333.24 327.66 0 219.12-119.37 323.14-338.76 323.14h-517.27v-650.8zm-646.2 774.33h644.33c319.52 0 464.4-158.81 464.4-441.13 0-284.18-143.05-456.96-466.18-456.96h-519.14V550.898h-123.41zM5255.55 1337.39h937.7c-12.59 274.75-30.26 509.16-431.06 509.16-385.65 0-491.51-209.23-506.64-509.16m-126.09-93.3c0 405.81 116.02 718.42 635.31 718.42 536.89 0 554.5-360.44 552.03-741.08H5253.03c2.52-335.289 85.66-584.871 521.77-584.871 231.91 0 337.81 63.062 451.24 146.242l70.54-93.262c-126-93.269-274.7-166.367-521.78-166.367-544.46 0-645.34 315.117-645.34 720.918M47.941 252.238c534.403 0 557.098 239.461 557.098 577.274V1929.76H478.977V829.512c0-254.563 10.086-458.821-431.036-458.821-16.672 0-32.523.411-47.941 1.02V252.879c15.508-.399 31.457-.641 47.941-.641M6899.98 707.691c-41.8 0-75.8-33.98-75.8-75.769 0-41.723 34-75.75 75.8-75.75 41.71 0 75.71 34.027 75.71 75.75 0 41.789-34 75.769-75.71 75.769m0-162.761c-47.98 0-87.05 39.031-87.05 86.992 0 47.988 39.07 87.027 87.05 87.027 47.97 0 86.96-39.039 86.96-87.027 0-47.961-38.99-86.992-86.96-86.992" style="fill:#231f20;fill-opacity:1;fill-rule:nonzero;stroke:none" transform="matrix(.13333 0 0 -.13333 0 261.667)"/><path d="M6908.69 632.84c13.65 0 21.47 3.949 21.47 18.531 0 14.438-7.59 17.77-21.88 17.77h-30.61V632.84Zm-3.1-12.5h-27.92v-38.442h-13.31v99.942h44.49c25.33 0 35.08-10.379 35.08-30.102 0-16.129-6.86-27.277-24.14-30.488l22.61-39.352h-14.49z" style="fill:#231f20;fill-opacity:1;fill-rule:nonzero;stroke:none" transform="matrix(.13333 0 0 -.13333 0 261.667)"/></svg>