<svg xmlns="http://www.w3.org/2000/svg" xmlns:xlink="http://www.w3.org/1999/xlink" width="299.149" height="354.188"><defs><linearGradient id="r"><stop offset="0" style="stop-color:#b98309"/><stop offset="1" style="stop-color:#382605"/></linearGradient><linearGradient id="s"><stop offset="0" style="stop-color:#ebc40c"/><stop offset="1" style="stop-color:#ebc40c;stop-opacity:0"/></linearGradient><linearGradient id="q"><stop offset="0" style="stop-color:#7c7c7c"/><stop offset="1" style="stop-color:#7c7c7c;stop-opacity:.32941177"/></linearGradient><linearGradient id="p"><stop offset="0" style="stop-color:#110800"/><stop offset=".591" style="stop-color:#a65a00;stop-opacity:.80000001"/><stop offset="1" style="stop-color:#ff921e;stop-opacity:0"/></linearGradient><linearGradient id="m"><stop offset="0" style="stop-color:#000"/><stop offset="1" style="stop-color:#000;stop-opacity:0"/></linearGradient><linearGradient id="n"><stop offset="0" style="stop-color:#3e2a06"/><stop offset="1" style="stop-color:#ad780a"/></linearGradient><linearGradient id="o"><stop offset="0" style="stop-color:#f3cd0c"/><stop offset="1" style="stop-color:#f3cd0c;stop-opacity:0"/></linearGradient><linearGradient id="l"><stop offset="0" style="stop-color:#000"/><stop offset="1" style="stop-color:#000;stop-opacity:.24886878"/></linearGradient><linearGradient id="k"><stop offset="0" style="stop-color:#c8c8c8"/><stop offset="1" style="stop-color:#797978"/></linearGradient><linearGradient id="g"><stop offset="0" style="stop-color:#d2940a"/><stop offset=".751" style="stop-color:#d89c08"/><stop offset=".866" style="stop-color:#b67e07"/><stop offset="1" style="stop-color:#946106"/></linearGradient><linearGradient id="h"><stop offset="0" style="stop-color:#ad780a"/><stop offset=".12" style="stop-color:#d89e08"/><stop offset=".255" style="stop-color:#edb80b"/><stop offset=".392" style="stop-color:#ebc80d"/><stop offset=".527" style="stop-color:#f5d838"/><stop offset=".769" style="stop-color:#f6d811"/><stop offset="1" style="stop-color:#f5cd31"/></linearGradient><linearGradient id="i"><stop offset="0" style="stop-color:#3a2903"/><stop offset=".555" style="stop-color:#735208"/><stop offset="1" style="stop-color:#ac8c04"/></linearGradient><linearGradient id="j"><stop offset="0" style="stop-color:#f5ce2d"/><stop offset="1" style="stop-color:#d79b08"/></linearGradient><linearGradient id="f"><stop offset="0" style="stop-color:#757574;stop-opacity:0"/><stop offset=".263" style="stop-color:#757574"/><stop offset=".5" style="stop-color:#757574"/><stop offset="1" style="stop-color:#757574;stop-opacity:0"/></linearGradient><linearGradient id="e"><stop offset="0" style="stop-color:#646464;stop-opacity:0"/><stop offset=".306" style="stop-color:#646464;stop-opacity:.5825243"/><stop offset=".47" style="stop-color:#646464"/><stop offset=".728" style="stop-color:#646464;stop-opacity:.25728154"/><stop offset="1" style="stop-color:#646464;stop-opacity:0"/></linearGradient><linearGradient id="d"><stop offset="0" style="stop-color:#747474"/><stop offset=".125" style="stop-color:#8c8c8c"/><stop offset=".25" style="stop-color:#a4a4a4"/><stop offset=".5" style="stop-color:#d4d4d4"/><stop offset=".619" style="stop-color:#d4d4d4"/><stop offset="1" style="stop-color:#7c7c7c"/></linearGradient><linearGradient id="c"><stop offset="0" style="stop-color:#949494;stop-opacity:.39215687"/><stop offset=".5" style="stop-color:#949494"/><stop offset="1" style="stop-color:#949494;stop-opacity:.39215687"/></linearGradient><linearGradient id="b"><stop offset="0" style="stop-color:#020204"/><stop offset=".734" style="stop-color:#020204"/><stop offset="1" style="stop-color:#5c5c5c"/></linearGradient><linearGradient id="a"><stop offset="0" style="stop-color:#fefefc"/><stop offset=".757" style="stop-color:#fefefc"/><stop offset="1" style="stop-color:#d4d4d4"/></linearGradient><linearGradient xlink:href="#c" id="aD" x1="213.016" x2="219.733" y1="132.77" y2="140.725" gradientTransform="translate(-60 -58.362)" gradientUnits="userSpaceOnUse"/><linearGradient xlink:href="#d" id="aG" x1="337.25" x2="358.625" y1="119.987" y2="132.487" gradientTransform="translate(-250)" gradientUnits="userSpaceOnUse"/><linearGradient xlink:href="#e" id="aH" x1="294.51" x2="308.741" y1="114.562" y2="127.997" gradientTransform="translate(-300 -1)" gradientUnits="userSpaceOnUse"/><linearGradient xlink:href="#e" id="az" x1="253.227" x2="266.627" y1="115.666" y2="128.571" gradientTransform="translate(-300 -1)" gradientUnits="userSpaceOnUse"/><linearGradient xlink:href="#f" id="av" x1="164.049" x2="169.882" y1="132.063" y2="142.493" gradientTransform="translate(-50 -58.362)" gradientUnits="userSpaceOnUse"/><linearGradient xlink:href="#h" id="aN" x1="256.857" x2="313.337" y1="158.314" y2="157.872" gradientTransform="translate(-210)" gradientUnits="userSpaceOnUse"/><linearGradient xlink:href="#j" id="aT" x1="243.031" x2="243.469" y1="157.018" y2="159.768" gradientUnits="userSpaceOnUse"/><linearGradient xlink:href="#m" id="T" x1="338.286" x2="341.982" y1="323.901" y2="351.487" gradientTransform="translate(-310)" gradientUnits="userSpaceOnUse"/><linearGradient xlink:href="#n" id="V" x1="442.039" x2="490.122" y1="371.544" y2="293.585" gradientTransform="translate(-250 -58.362)" gradientUnits="userSpaceOnUse"/><linearGradient xlink:href="#o" id="ab" x1="355.164" x2="353.75" y1="289.589" y2="302.317" gradientTransform="translate(-150 -60.362)" gradientUnits="userSpaceOnUse"/><linearGradient xlink:href="#q" id="ar" x1="358.5" x2="361.5" y1="279.362" y2="279.237" gradientUnits="userSpaceOnUse"/><linearGradient xlink:href="#r" id="ad" x1="123.134" x2="170.864" y1="301.54" y2="381.62" gradientTransform="translate(-80 -58.362)" gradientUnits="userSpaceOnUse"/><linearGradient xlink:href="#s" id="ai" x1="171.571" x2="186.597" y1="323.991" y2="352.275" gradientTransform="translate(-80.53 -60.13)" gradientUnits="userSpaceOnUse"/><linearGradient xlink:href="#r" id="t" x1="123.134" x2="170.864" y1="301.54" y2="381.62" gradientUnits="userSpaceOnUse"/><linearGradient xlink:href="#n" id="u" x1="442.039" x2="490.122" y1="371.544" y2="293.585" gradientTransform="translate(-250 -58.362)" gradientUnits="userSpaceOnUse"/><linearGradient xlink:href="#n" id="v" x1="442.039" x2="490.122" y1="371.544" y2="293.585" gradientTransform="matrix(.87491 0 0 .81149 -158.36 15.227)" gradientUnits="userSpaceOnUse"/><linearGradient xlink:href="#n" id="w" x1="442.039" x2="490.122" y1="371.544" y2="293.585" gradientTransform="translate(-500 -116.724)" gradientUnits="userSpaceOnUse"/><filter id="af" width="1.215" height="1.217" x="-.108" y="-.108" style="color-interpolation-filters:sRGB"><feGaussianBlur stdDeviation="3.924"/></filter><filter id="ah" style="color-interpolation-filters:sRGB"><feGaussianBlur stdDeviation="2.437"/></filter><filter id="aj" style="color-interpolation-filters:sRGB"><feGaussianBlur stdDeviation=".37"/></filter><filter id="R" width="1.202" height="1.085" x="-.101" y="-.043" style="color-interpolation-filters:sRGB"><feGaussianBlur stdDeviation="1.132"/></filter><filter id="ap" width="1.141" height="1.301" x="-.07" y="-.151" style="color-interpolation-filters:sRGB"><feGaussianBlur stdDeviation="1.025"/></filter><filter id="as" width="1.141" height="1.301" x="-.07" y="-.151" style="color-interpolation-filters:sRGB"><feGaussianBlur stdDeviation="1.025"/></filter><filter id="al" width="1.401" height="1.468" x="-.201" y="-.234" style="color-interpolation-filters:sRGB"><feGaussianBlur stdDeviation="2.844"/></filter><filter id="an" width="1.183" height="1.213" x="-.091" y="-.107" style="color-interpolation-filters:sRGB"><feGaussianBlur stdDeviation="1.297"/></filter><filter id="H" width="1.939" height="1.547" x="-.469" y="-.274" style="color-interpolation-filters:sRGB"><feGaussianBlur stdDeviation=".86"/></filter><filter id="I" width="2.208" height="1.965" x="-.604" y="-.482" style="color-interpolation-filters:sRGB"><feGaussianBlur stdDeviation="2.64"/></filter><filter id="U" style="color-interpolation-filters:sRGB"><feGaussianBlur stdDeviation="2.209"/></filter><filter id="X" width="1.29" height="1.286" x="-.145" y="-.143" style="color-interpolation-filters:sRGB"><feGaussianBlur stdDeviation="4.779"/></filter><filter id="Z" width="1.231" height="1.25" x="-.115" y="-.125" style="color-interpolation-filters:sRGB"><feGaussianBlur stdDeviation="3.173"/></filter><filter id="ac" width="1.042" height="1.259" x="-.021" y="-.129" style="color-interpolation-filters:sRGB"><feGaussianBlur stdDeviation=".479"/></filter><filter id="K" width="1.355" height="1.319" x="-.178" y="-.159" style="color-interpolation-filters:sRGB"><feGaussianBlur stdDeviation=".901"/></filter><filter id="G" width="2.633" height="1.116" x="-.817" y="-.058" style="color-interpolation-filters:sRGB"><feGaussianBlur stdDeviation="1.446"/></filter><filter id="F" style="color-interpolation-filters:sRGB"><feGaussianBlur stdDeviation=".785"/></filter><filter id="D" style="color-interpolation-filters:sRGB"><feGaussianBlur stdDeviation="1.138"/></filter><filter id="B" style="color-interpolation-filters:sRGB"><feGaussianBlur stdDeviation=".643"/></filter><filter id="P" width="1.235" height="1.08" x="-.118" y="-.04" style="color-interpolation-filters:sRGB"><feGaussianBlur stdDeviation="1.352"/></filter><filter id="aL" width="1.31" height="1.43" x="-.155" y="-.215" style="color-interpolation-filters:sRGB"><feGaussianBlur stdDeviation=".899"/></filter><filter id="aM" style="color-interpolation-filters:sRGB"><feGaussianBlur stdDeviation=".758"/></filter><filter id="aO" width="1.322" height="1.261" x="-.161" y="-.13" style="color-interpolation-filters:sRGB"><feGaussianBlur stdDeviation=".849"/></filter><filter id="aQ" style="color-interpolation-filters:sRGB"><feGaussianBlur stdDeviation=".11"/></filter><filter id="aS" width="1.233" height="1.211" x="-.116" y="-.106" style="color-interpolation-filters:sRGB"><feGaussianBlur stdDeviation=".11"/></filter><filter id="aU" width="1.215" height="1.272" x="-.107" y="-.136" style="color-interpolation-filters:sRGB"><feGaussianBlur stdDeviation=".264"/></filter><filter id="aw" width="1.469" height="1.292" x="-.234" y="-.146" style="color-interpolation-filters:sRGB"><feGaussianBlur stdDeviation=".513"/></filter><filter id="aA" style="color-interpolation-filters:sRGB"><feGaussianBlur stdDeviation=".135"/></filter><filter id="aI" style="color-interpolation-filters:sRGB"><feGaussianBlur stdDeviation=".147"/></filter><filter id="aC" width="1.316" height="1.418" x="-.158" y="-.209" style="color-interpolation-filters:sRGB"><feGaussianBlur stdDeviation=".249"/></filter><filter id="aE" width="1.357" height="1.363" x="-.179" y="-.181" style="color-interpolation-filters:sRGB"><feGaussianBlur stdDeviation=".519"/></filter><filter id="J" width="1.584" height="1.617" x="-.292" y="-.308" style="color-interpolation-filters:sRGB"><feGaussianBlur stdDeviation="1.74"/></filter><filter id="O" style="color-interpolation-filters:sRGB"><feGaussianBlur stdDeviation=".932"/></filter><filter id="M" width="1.153" height="1.258" x="-.076" y="-.129" style="color-interpolation-filters:sRGB"><feGaussianBlur stdDeviation="2.036"/></filter><radialGradient xlink:href="#a" id="au" cx="223.196" cy="137.661" r="14.572" fx="223.196" fy="137.661" gradientTransform="matrix(.81524 -.03431 .02961 1.24799 -208.437 -35.543)" gradientUnits="userSpaceOnUse"/><radialGradient xlink:href="#a" id="aB" cx="223.196" cy="137.661" r="14.572" fx="223.196" fy="137.661" gradientTransform="matrix(1.08578 -.03431 .03944 1.24799 -233.542 -35.543)" gradientUnits="userSpaceOnUse"/><radialGradient xlink:href="#b" id="aJ" cx="275.538" cy="150.651" r="15.382" fx="275.538" fy="150.651" gradientTransform="matrix(.69785 -.50717 .46034 .6334 -271.102 183.03)" gradientUnits="userSpaceOnUse"/><radialGradient xlink:href="#g" id="aK" cx="294.485" cy="193.099" r="31.111" fx="294.485" fy="193.099" gradientTransform="matrix(.93619 -.3864 .27133 .65739 -244.475 146.723)" gradientUnits="userSpaceOnUse"/><radialGradient xlink:href="#i" id="aP" cx="77.672" cy="147.093" r="3.23" fx="77.672" fy="147.093" gradientTransform="matrix(1 0 0 .58333 60 3.054)" gradientUnits="userSpaceOnUse"/><radialGradient xlink:href="#i" id="aR" cx="63.125" cy="147.441" r="1.535" fx="63.125" fy="147.441" gradientTransform="matrix(1 0 0 1.07512 60 -69.456)" gradientUnits="userSpaceOnUse"/><radialGradient xlink:href="#k" id="ay" cx="268.07" cy="126.535" r="35.511" fx="268.07" fy="126.535" gradientTransform="matrix(.20141 -.03316 .03065 .18616 -3.126 114.036)" gradientUnits="userSpaceOnUse"/><radialGradient xlink:href="#l" id="A" cx="336.224" cy="220.538" r="27.391" fx="336.224" fy="220.538" gradientTransform="matrix(-.69844 0 0 .76336 166.306 50.22)" gradientUnits="userSpaceOnUse"/><radialGradient xlink:href="#l" id="C" cx="312.145" cy="236.366" r="27.391" fx="312.145" fy="236.366" gradientTransform="matrix(1 0 0 .76336 -150 -8.142)" gradientUnits="userSpaceOnUse"/><radialGradient xlink:href="#l" id="E" cx="275.554" cy="225.135" r="10.845" fx="275.554" fy="225.135" gradientTransform="matrix(1 0 0 1.06923 -150 -73.222)" gradientUnits="userSpaceOnUse"/><radialGradient xlink:href="#p" id="ak" cx="363.34" cy="303.415" r="16.846" fx="363.34" fy="303.415" gradientTransform="matrix(1.3082 .35053 -.36795 1.37322 -150.51 -298.711)" gradientUnits="userSpaceOnUse"/><radialGradient xlink:href="#p" id="am" cx="363.34" cy="303.415" r="16.846" fx="363.34" fy="303.415" gradientTransform="matrix(1.3082 .35053 -.36795 1.37322 -310.51 -240.35)" gradientUnits="userSpaceOnUse"/><radialGradient xlink:href="#q" id="ao" cx="382.235" cy="246.858" r="20.538" fx="382.235" fy="246.858" gradientTransform="matrix(.36025 .1568 -.07247 .1665 260.617 181.938)" gradientUnits="userSpaceOnUse"/><radialGradient xlink:href="#a" id="x" cx="223.196" cy="137.661" r="14.572" fx="223.196" fy="137.661" gradientTransform="matrix(1.08578 -.03431 .03944 1.24799 -15.542 -75.905)" gradientUnits="userSpaceOnUse"/><radialGradient xlink:href="#a" id="y" cx="223.196" cy="137.661" r="14.572" fx="223.196" fy="137.661" gradientTransform="matrix(.81524 -.03431 .02961 1.24799 9.562 -75.905)" gradientUnits="userSpaceOnUse"/><radialGradient xlink:href="#g" id="z" cx="294.485" cy="193.099" r="31.111" fx="294.485" fy="193.099" gradientTransform="matrix(.81495 -.25453 .31491 .43302 -75.371 150.738)" gradientUnits="userSpaceOnUse"/><clipPath id="ag" clipPathUnits="userSpaceOnUse"><path d="M137.577 281.02c1.6-.664 3.398-.785 5.1-.47 1.703.313 3.312 1.049 4.744 2.022 2.864 1.946 4.988 4.778 7.023 7.58 4.672 6.433 9.169 13.002 13.245 19.829 3.306 5.537 6.343 11.257 10.164 16.453 2.494 3.392 5.306 6.54 7.813 9.922s4.728 7.056 5.84 11.117c1.443 5.276.884 11.092-1.627 15.953-1.767 3.419-4.477 6.352-7.773 8.339-3.296 1.986-7.17 3.014-11.016 2.87-6.114-.23-11.7-3.285-17.384-5.55-11.58-4.612-24.16-6.059-36.097-9.651-3.668-1.104-7.275-2.41-10.97-3.426-1.64-.452-3.308-.849-4.858-1.552s-3-1.749-3.862-3.217c-.666-1.134-.948-2.47-.93-3.785.018-1.316.326-2.615.774-3.852.896-2.474 2.343-4.713 3.32-7.157 1.595-3.989 1.882-8.388 1.666-12.679s-.91-8.545-1.204-12.831c-.131-1.914-.18-3.853.185-5.736.365-1.884 1.175-3.725 2.557-5.056 1.274-1.226 2.965-1.955 4.697-2.316 1.731-.361 3.515-.378 5.284-.338s3.54.135 5.303-.01 3.534-.54 5.07-1.419c1.46-.834 2.653-2.074 3.643-3.434s1.789-2.846 2.609-4.314 1.668-2.931 2.741-4.226 2.39-2.423 3.943-3.067" style="fill:url(#t)" transform="matrix(1 0 0 1.01828 0 -4.031)"/></clipPath><clipPath id="ae" clipPathUnits="userSpaceOnUse"><path d="M137.577 281.02c1.6-.664 3.398-.785 5.1-.47 1.703.313 3.312 1.049 4.744 2.022 2.864 1.946 4.988 4.778 7.023 7.58 4.672 6.433 9.169 13.002 13.245 19.829 3.306 5.537 6.343 11.257 10.164 16.453 2.494 3.392 5.306 6.54 7.813 9.922s4.728 7.056 5.84 11.117c1.443 5.276.884 11.092-1.627 15.953-1.767 3.419-4.477 6.352-7.773 8.339-3.296 1.986-7.17 3.014-11.016 2.87-6.114-.23-11.7-3.285-17.384-5.55-11.58-4.612-24.16-6.059-36.097-9.651-3.668-1.104-7.275-2.41-10.97-3.426-1.64-.452-3.308-.849-4.858-1.552s-3-1.749-3.862-3.217c-.666-1.134-.948-2.47-.93-3.785.018-1.316.326-2.615.774-3.852.896-2.474 2.343-4.713 3.32-7.157 1.595-3.989 1.882-8.388 1.666-12.679s-.91-8.545-1.204-12.831c-.131-1.914-.18-3.853.185-5.736.365-1.884 1.175-3.725 2.557-5.056 1.274-1.226 2.965-1.955 4.697-2.316 1.731-.361 3.515-.378 5.284-.338s3.54.135 5.303-.01 3.534-.54 5.07-1.419c1.46-.834 2.653-2.074 3.643-3.434s1.789-2.846 2.609-4.314 1.668-2.931 2.741-4.226 2.39-2.423 3.943-3.067" style="fill:url(#t)" transform="translate(-240 -1)"/></clipPath><clipPath id="W" clipPathUnits="userSpaceOnUse"><path d="M513.19 336.614c-2.624 3.115-6.268 5.17-9.897 7.02-6.188 3.154-12.601 5.921-18.42 9.716-3.897 2.543-7.495 5.527-10.86 8.743-2.877 2.75-5.605 5.687-8.832 8.017-3.256 2.352-7.02 4.055-10.99 4.65-4.83.725-9.822-.212-14.3-2.164-3.137-1.367-6.155-3.323-7.963-6.229-1.814-2.917-2.228-6.488-2.232-9.924-.008-6.076 1.118-12.09 2.178-18.073.881-4.972 1.72-9.955 2.26-14.975.984-9.131.977-18.353.32-27.513-.11-1.535-.237-3.084-.008-4.605.23-1.52.855-3.036 2.021-4.04 1.077-.926 2.521-1.335 3.94-1.414 1.418-.078 2.834.147 4.24.352 3.312.484 6.65.865 9.888 1.717 2.043.537 4.034 1.259 6.073 1.81 3.402.92 6.966 1.362 10.467.952 3.77-.44 7.43-1.856 11.224-1.764 1.556.037 3.101.331 4.586.8 1.516.477 3.01 1.161 4.123 2.295.846.86 1.436 1.945 1.879 3.068.66 1.674 1.015 3.457 1.167 5.25.135 1.588.113 3.194.414 4.76.495 2.574 1.848 4.922 3.529 6.934s3.69 3.72 5.696 5.408c2 1.68 4.01 3.355 6.167 4.828 1.012.692 2.056 1.34 3.017 2.1.961.762 1.845 1.648 2.446 2.716.815 1.45 1.064 3.208.537 4.877-.526 1.669-1.481 3.276-2.67 4.688" style="fill:url(#u)"/></clipPath><clipPath id="Y" clipPathUnits="userSpaceOnUse"><path d="M509.363 335.745c-2.295 2.528-5.484 4.196-8.658 5.696-5.415 2.56-11.026 4.806-16.116 7.885-3.41 2.063-6.558 4.485-9.502 7.095-2.517 2.231-4.904 4.615-7.727 6.506-2.849 1.908-6.141 3.29-9.616 3.773-4.226.589-8.593-.172-12.51-1.756-2.746-1.11-5.386-2.696-6.967-5.055-1.588-2.367-1.95-5.265-1.954-8.053-.007-4.93.979-9.81 1.906-14.666.771-4.035 1.505-8.078 1.978-12.152.86-7.41.854-14.893.28-22.327-.097-1.245-.208-2.502-.008-3.736.201-1.234.748-2.464 1.768-3.278.943-.752 2.206-1.084 3.447-1.148s2.48.119 3.71.285c2.898.393 5.82.702 8.652 1.393 1.787.436 3.528 1.022 5.312 1.47 2.977.747 6.095 1.105 9.158.772 3.298-.357 6.5-1.506 9.82-1.432 1.362.03 2.714.27 4.013.65 1.326.387 2.633.942 3.607 1.862.74.699 1.256 1.578 1.644 2.49.577 1.358.888 2.805 1.02 4.26.119 1.288.1 2.592.363 3.862.433 2.09 1.617 3.995 3.087 5.628 1.471 1.632 3.229 3.019 4.984 4.388 1.75 1.364 3.51 2.722 5.396 3.918.885.562 1.799 1.087 2.64 1.705.84.618 1.614 1.336 2.14 2.203.712 1.177.93 2.603.47 3.958s-1.297 2.659-2.337 3.804" style="fill:url(#v);stroke-width:.842603"/></clipPath><clipPath id="aa" clipPathUnits="userSpaceOnUse"><path d="M263.19 278.252c-2.624 3.114-6.268 5.17-9.897 7.02-6.188 3.154-12.602 5.921-18.42 9.716-3.897 2.543-7.495 5.527-10.86 8.742-2.877 2.75-5.605 5.688-8.832 8.018-3.256 2.351-7.02 4.054-10.99 4.65-4.831.725-9.822-.213-14.3-2.164-3.137-1.367-6.155-3.323-7.963-6.23-1.814-2.917-2.228-6.487-2.232-9.923-.008-6.077 1.118-12.09 2.178-18.073.881-4.972 1.72-9.955 2.26-14.975.984-9.132.977-18.353.32-27.514-.11-1.534-.237-3.083-.008-4.604.23-1.52.855-3.036 2.02-4.04 1.078-.926 2.522-1.336 3.94-1.414 1.419-.079 2.834.146 4.24.352 3.313.484 6.652.865 9.89 1.716 2.042.538 4.032 1.26 6.072 1.811 3.402.92 6.966 1.362 10.467.952 3.77-.44 7.43-1.857 11.224-1.765 1.556.038 3.101.332 4.586.8 1.515.478 3.01 1.162 4.123 2.295.846.862 1.436 1.946 1.879 3.07.66 1.673 1.014 3.456 1.167 5.249.134 1.587.113 3.194.414 4.759.495 2.575 1.847 4.923 3.528 6.935s3.69 3.72 5.697 5.408c1.999 1.68 4.01 3.354 6.167 4.828 1.012.692 2.056 1.34 3.017 2.1.961.762 1.845 1.648 2.446 2.716.815 1.45 1.063 3.208.537 4.877s-1.481 3.276-2.67 4.688" style="fill:url(#w)"/></clipPath><clipPath id="Q" clipPathUnits="userSpaceOnUse"><path d="M304.847 225.45c5.977 4.894 9.77 12.285 10.943 20.003.916 6.018.321 12.195-1.012 18.132s-3.39 11.676-5.433 17.4c-.815 2.283-1.633 4.587-1.957 6.994-.323 2.406-.118 4.954 1.021 7.087 1.307 2.446 3.746 4.13 6.367 4.923 2.588.783 5.384.766 8.004.102 2.62-.665 5.065-1.964 7.198-3.65 5.418-4.283 8.686-10.948 9.952-17.812 1.265-6.863.684-13.95-.493-20.83-1.604-9.381-4.304-18.55-7.74-27.407a96 96 0 0 0-9.617-18.52c-3.78-5.669-9.142-10.094-13.104-15.636-1.376-1.925-3.031-3.931-4.384-5.878-2.916-4.198-2.255-3.415-4.064-6.132-1.312-1.97-3.385-2.648-5.565-3.51-2.18-.863-4.629-1.117-6.88-.472-2.968.85-5.393 3.231-6.683 6.082s-1.515 6.124-1.013 9.22c.647 3.996 2.442 7.703 4.465 11.19 2.286 3.936 4.933 7.726 8.385 10.653 3.602 3.055 7.957 5.07 11.61 8.06" style="fill:#020204;stroke-width:.991084"/></clipPath><clipPath id="S" clipPathUnits="userSpaceOnUse"><path d="M240.473 195.036c-7.073 8.037-14.352 15.816-18.346 24.505-1.976 4.413-2.91 9.207-4.265 13.85-1.538 5.271-3.626 10.37-5.97 15.335-2.165 4.586-4.55 9.063-6.94 13.536-1.738 3.254-3.504 6.581-4.107 10.22-.476 2.877-.199 5.845.534 8.667.732 2.822 1.91 5.51 3.237 8.106 5.668 11.075 14.17 20.622 24.242 27.925a85 85 0 0 0 14.603 8.526c2.782 1.27 5.713 2.404 8.771 2.457 1.53.027 3.075-.225 4.475-.84 1.4-.616 2.65-1.604 3.482-2.888 1.023-1.577 1.37-3.538 1.165-5.407s-.935-3.653-1.913-5.259c-2.39-3.922-6.165-6.76-9.797-9.573-7.84-6.074-15.424-12.48-22.682-19.24-2.049-1.909-4.098-3.878-5.53-6.284-1.394-2.344-2.148-5.014-2.658-7.693-1.4-7.349-1.04-15.083 1.46-22.133.978-2.758 2.27-5.392 3.518-8.04 2.161-4.589 4.207-9.266 7.05-13.467 3.537-5.23 8.267-9.66 11.15-15.278 2.435-4.742 3.42-10.072 4.363-15.318.736-4.105 2.15-8.125 2.869-12.232-1.406 2.665-5.938 7.042-8.71 10.525" style="fill:#020204"/></clipPath><clipPath id="aq" clipPathUnits="userSpaceOnUse"><path d="M386.188 285.328c-.406-1.104-1.119-2.082-1.991-2.87s-1.9-1.392-2.983-1.852c-2.165-.918-4.52-1.261-6.831-1.695-2.18-.41-4.342-.907-6.528-1.278-2.272-.385-4.618-.632-6.866-.125-1.965.443-3.784 1.459-5.271 2.819s-2.65 3.056-3.485 4.89c-1.473 3.23-1.935 6.865-1.654 10.403.209 2.633.875 5.346 2.608 7.34 1.401 1.61 3.388 2.614 5.434 3.22a18.4 18.4 0 0 0 10.86-.155 28.6 28.6 0 0 0 14.331-10.78c1.139-1.649 2.112-3.447 2.553-5.403.336-1.49.349-3.08-.177-4.514" style="fill:#020204"/></clipPath><clipPath id="at" clipPathUnits="userSpaceOnUse"><path d="M386.188 285.328c-.406-1.104-1.119-2.082-1.991-2.87s-1.9-1.392-2.983-1.852c-2.165-.918-4.52-1.261-6.831-1.695-2.18-.41-4.342-.907-6.528-1.278-2.272-.385-4.618-.632-6.866-.125-1.965.443-3.784 1.459-5.271 2.819s-2.65 3.056-3.485 4.89c-1.473 3.23-1.935 6.865-1.654 10.403.209 2.633.875 5.346 2.608 7.34 1.401 1.61 3.388 2.614 5.434 3.22a18.4 18.4 0 0 0 10.86-.155 28.6 28.6 0 0 0 14.331-10.78c1.139-1.649 2.112-3.447 2.553-5.403.336-1.49.349-3.08-.177-4.514" style="fill:#020204"/></clipPath><clipPath id="aF" clipPathUnits="userSpaceOnUse"><path d="M85.75 122.362c-2.78 1.91-5.11 4.575-6.25 7.75-1.436 4.002-.886 8.48.5 12.5 1.42 4.117 3.794 8.041 7.38 10.513 1.792 1.235 3.867 2.083 6.03 2.338 2.162.256 4.409-.095 6.34-1.1 2.353-1.227 4.148-3.374 5.262-5.782 1.115-2.408 1.589-5.07 1.738-7.719.19-3.375-.14-6.806-1.25-10-1.205-3.469-3.39-6.67-6.473-8.666-1.541-.998-3.292-1.684-5.11-1.936-1.82-.251-3.705-.063-5.417.602-.975.38-1.887.908-2.75 1.5" style="fill:url(#x)"/></clipPath><clipPath id="ax" clipPathUnits="userSpaceOnUse"><path d="M54.232 122.362c-1.78.097-3.484.92-4.787 2.137-1.304 1.218-2.222 2.812-2.787 4.503-1.13 3.384-.875 7.052-.618 10.61.232 3.222.47 6.506 1.677 9.502.603 1.498 1.45 2.91 2.58 4.064s2.552 2.042 4.118 2.434c1.469.368 3.038.292 4.483-.162s2.764-1.279 3.846-2.338c1.58-1.545 2.643-3.566 3.254-5.69.61-2.123.784-4.35.752-6.56-.04-2.764-.4-5.538-1.266-8.164-.865-2.626-2.246-5.103-4.173-7.086-.933-.96-1.997-1.805-3.198-2.397-1.201-.593-2.544-.926-3.88-.853" style="fill:url(#y)"/></clipPath><clipPath id="aV" clipPathUnits="userSpaceOnUse"><path d="M214.636 148.038a27.3 27.3 0 0 0-7.271.884c-4.053 1.057-7.574 2.94-10.085 5.393-1.628.856-3.05 1.9-4.207 3.087-.662.679-1.244 1.416-1.502 2.247-.202.653-.198 1.345-.285 2.02-.032.253-.078.507-.036.765.02.13.063.259.138.381.022.037.052.07.08.106.083.15.183.297.315.43.288.294.68.532 1.094.733s.853.367 1.282.55c2.28.965 4.227 2.324 5.992 3.758 2.368 1.925 4.53 4.061 7.51 5.46 2.105.988 4.528 1.552 6.926 1.724 2.816.202 5.585-.123 8.182-.693 2.406-.529 4.696-1.271 6.752-2.254 3.907-1.868 6.987-4.606 11.424-5.834.969-.269 1.99-.46 2.913-.79.923-.331 1.763-.827 2.12-1.528.342-.673.205-1.45.235-2.19.033-.79.264-1.555.334-2.342.069-.787-.039-1.629-.622-2.352-.13-.16-.284-.31-.452-.451-.051-.293-.221-.58-.466-.833-.505-.52-1.294-.871-2.095-1.116-1.099-.336-2.256-.503-3.4-.696a67 67 0 0 1-10.294-2.604c-1.653-.561-3.27-1.184-4.904-1.78-1.68-.612-3.387-1.2-5.165-1.577a23.7 23.7 0 0 0-4.513-.498" style="fill:url(#z);stroke-width:.77538"/></clipPath><clipPath id="L" clipPathUnits="userSpaceOnUse"><path d="M-26.296 154.814c-1.046 1.312-1.727 2.888-2.139 4.514s-.562 3.308-.626 4.984c-.129 3.353.076 6.77-.811 10.007-.95 3.459-3.076 6.456-5.158 9.377-3.605 5.06-7.249 10.25-9.027 16.203a28.8 28.8 0 0 0-1.049 11.164 118 118 0 0 0-10.422 18.781c-4.387 9.942-7.397 20.527-8.455 31.341-1.296 13.242.398 26.862 5.628 39.097 3.78 8.846 9.417 16.943 16.685 23.246a57 57 0 0 0 12.19 8.097c15.212 7.477 34.013 7.491 48.973-.48 7.818-4.166 14.418-10.258 20.78-16.422 3.832-3.712 7.644-7.513 10.567-11.976 5.627-8.592 7.587-19.035 8.805-29.234 2.13-17.833 2.199-36.67-5.62-52.838a58.3 58.3 0 0 0-10.582-15.14 83 83 0 0 0-6.692-22.543c-2.37-5.155-5.268-10.062-7.47-15.29-.905-2.148-1.69-4.346-2.694-6.448-1.003-2.102-2.241-4.125-3.924-5.735-1.724-1.65-3.871-2.818-6.136-3.567-2.265-.748-4.65-1.086-7.032-1.206-4.764-.24-9.539.383-14.305.194-3.795-.15-7.578-.816-11.37-.592-1.895.112-3.79.45-5.55 1.165-1.759.714-3.381 1.817-4.566 3.301" style="fill:#fdfdfb"/></clipPath><clipPath id="N" clipPathUnits="userSpaceOnUse"><path d="M-47.296 161.444c-1.046 1.423-1.727 3.134-2.139 4.9s-.562 3.591-.626 5.411c-.129 3.64.076 7.35-.811 10.864-.95 3.755-3.076 7.009-5.158 10.18-3.605 5.493-7.249 11.129-9.027 17.59a33.8 33.8 0 0 0-1.049 12.122A132 132 0 0 0-76.528 242.9c-4.387 10.793-7.397 22.285-8.455 34.025-1.296 14.377.398 29.163 5.628 42.446 3.78 9.603 9.417 18.395 16.685 25.237 3.696 3.48 7.8 6.448 12.19 8.79 15.212 8.118 34.013 8.134 48.973-.52 7.818-4.523 14.418-11.137 20.78-17.83 3.832-4.03 7.644-8.155 10.567-13 5.627-9.329 7.587-20.667 8.805-31.739 2.13-19.36 2.199-39.81-5.62-57.364-2.693-6.043-6.28-11.615-10.582-16.437a96 96 0 0 0-6.692-24.473c-2.37-5.597-5.268-10.924-7.47-16.6-.905-2.331-1.69-4.718-2.694-7-1.003-2.282-2.241-4.478-3.924-6.226-1.724-1.79-3.871-3.06-6.136-3.872s-4.65-1.18-7.032-1.31c-4.764-.26-9.539.416-14.305.21-3.795-.163-7.578-.885-11.37-.642-1.895.121-3.79.49-5.55 1.265s-3.381 1.972-4.566 3.584" style="fill:#fdfdfb;stroke-width:1.04195"/></clipPath></defs><path d="M140.813 19.578c-7.168-.078-14.425 1.375-20.735 4.776-6.707 3.614-12.2 9.395-15.586 16.22-3.383 6.822-4.713 14.108-4.914 22.133-.382 15.247.344 31.239 1.494 45.73.306 4.413.854 6.995.293 11.524-1.886 9.63-10.313 16.112-14.804 24.57-4.955 9.331-7.044 19.881-10.784 29.762-3.422 9.042-8.227 17.52-11.47 26.629-4.535 12.736-5.89 26.73-2.895 39.914 2.284 10.05 7.055 19.473 13.484 27.533-.93 1.677-1.832 3.372-2.792 5.031-2.98 5.147-6.62 10.027-8.317 15.727-.848 2.85-1.182 5.89-.635 8.812.548 2.923 2.027 5.719 4.352 7.573 1.522 1.213 3.357 1.995 5.254 2.433 1.896.44 3.856.546 5.803.504 7.394-.157 14.559-2.405 21.712-4.283 4.24-1.113 8.51-2.101 12.803-2.988 15.24-3.122 32.25-1.876 46.399.176 4.792.723 9.55 1.67 14.26 2.812 7.377 1.788 14.728 4.067 22.316 4.283 1.997.057 4.01-.03 5.96-.465 1.951-.434 3.843-1.226 5.405-2.472 2.33-1.858 3.808-4.658 4.355-7.586s.21-5.977-.648-8.83c-1.715-5.706-5.389-10.575-8.435-15.696-1.203-2.02-2.32-4.092-3.514-6.117 9.169-10.295 16.548-22.203 20.816-35.281 4.659-14.275 5.515-29.646 3.553-44.533s-6.682-29.321-12.898-42.99c-7.798-17.139-14.353-23.331-19.104-38.381-5.135-16.267-.895-35.515-4.71-50.268-1.363-5.017-3.534-9.807-6.327-14.191-3.273-5.138-7.425-9.743-12.357-13.317-7.871-5.702-17.616-8.638-27.334-8.744" style="fill:#020204" transform="translate(8 4.6)"/><path d="M112.704 105.452c-1.046 1.312-1.728 2.887-2.14 4.514-.41 1.626-.561 3.308-.626 4.984-.128 3.353.077 6.77-.81 10.006-.95 3.46-3.077 6.457-5.158 9.378-3.605 5.06-7.249 10.25-9.027 16.202a28.8 28.8 0 0 0-1.049 11.165 118 118 0 0 0-10.423 18.78c-4.386 9.943-7.396 20.527-8.454 31.342-1.296 13.242.397 26.862 5.627 39.096 3.782 8.846 9.418 16.944 16.686 23.247a57 57 0 0 0 12.19 8.097c15.212 7.477 34.013 7.491 48.972-.48 7.819-4.166 14.418-10.258 20.781-16.422 3.832-3.713 7.644-7.513 10.567-11.976 5.627-8.592 7.587-19.036 8.805-29.234 2.13-17.834 2.199-36.67-5.621-52.838a58.3 58.3 0 0 0-10.58-15.141 83 83 0 0 0-6.693-22.542c-2.37-5.155-5.268-10.062-7.47-15.291-.905-2.147-1.69-4.345-2.694-6.447s-2.242-4.125-3.925-5.735c-1.723-1.65-3.87-2.819-6.135-3.567s-4.65-1.087-7.032-1.207c-4.765-.24-9.539.384-14.306.195-3.794-.15-7.577-.816-11.368-.592-1.896.112-3.791.45-5.55 1.165-1.76.714-3.382 1.817-4.567 3.301" style="fill:#fdfdfb" transform="translate(8 4.6)"/><path d="M-61.003 211.593c.88 1.524-.547 6.778 19.964 3.415 0 0-3.602.458-7.153 1.405-5.52 2.133-10.33 4.517-14.04 7.675-3.675 3.121-6.367 7.197-9.74 10.697 0 0 5.462-11.519 6.824-14.988 1.361-3.468-.228-3.31.849-8.413 1.077-5.104 3.713-10.007 3.713-10.007s-2.152 7.21-.417 10.216" style="opacity:.25;fill:url(#A);filter:url(#B)" transform="matrix(1.1543 0 0 1 174.332 -53.762)"/><path d="M172.05 151.856c-4.825 3.361-7.652 2.963-13.507 3.62-5.854.658-21.698.42-21.698.42s2.293-.042 7.377.904 15.453 1.853 21.292 4.075 7.969 2.857 11.517 5.1c5.051 3.195 8.758 8.198 13.587 11.698 0 0 .234-4.644-1.715-8.113s-7.19-8.935-8.733-14.038c-1.541-5.104-2.274-15.132-2.274-15.132s-1.021 8.105-5.846 11.466" style="opacity:.42;fill:url(#C);filter:url(#D)" transform="translate(8 4.6)"/><path d="M126.67 144.678a60 60 0 0 1-.697 4.344c-.14.71-.295 1.42-.56 2.093-.263.673-.643 1.312-1.18 1.797-.471.424-1.045.716-1.621.98a24.4 24.4 0 0 1-7.108 2.018q1.47.108 2.935.269c.615.067 1.232.142 1.832.296.6.153 1.185.39 1.684.755.548.4.978.948 1.3 1.546.64 1.192.854 2.563.972 3.91.151 1.724.162 3.46.033 5.185.116-1.155.358-2.296.72-3.398.653-1.987 1.704-3.848 3.12-5.387.561-.61 1.18-1.17 1.859-1.648a10.3 10.3 0 0 1 7.236-1.761 11.24 11.24 0 0 1-7.195-2.233c-1.041-.785-1.948-1.763-2.58-2.905a8.1 8.1 0 0 1-.75-5.861" style="opacity:.2;fill:url(#E);filter:url(#F)" transform="translate(8 4.6)"/><path d="M120.5 178.719a89 89 0 0 0-2.526 14.276c-.637 6.813-.483 13.673-.85 20.505-.31 5.798-.99 11.656.017 17.374a29.9 29.9 0 0 0 2.554 7.874 27 27 0 0 0 .423-2.875c.426-4.637-.354-9.287-.618-13.936-.462-8.147.666-16.29 1.125-24.437.352-6.255.31-12.532-.125-18.781" style="opacity:.11;filter:url(#G)" transform="translate(8 4.6)"/><path d="M351.96 200.857c-1.451.388-1.23 3.994-.296 5.497.79 1.27 3.073 2.272 3.759 1.005 1.114-2.055-1.472-7.036-3.463-6.502" style="opacity:.25;fill:#7c7c7c;filter:url(#H)" transform="matrix(-.06992 .957 -.5645 -.11853 244.568 -175.78)"/><path d="M361.75 209.343c.002-1.533-7.565-10.056-9.79-8.486s-.491 3.784-.296 5.497c.196 1.714-.945 6.61.239 7.26s3.366-2.52 5.301-4.277c1.558-1.415 4.544 1.54 4.546.006z" style="opacity:.75;fill:#7c7c7c;filter:url(#I)" transform="matrix(-.09596 -.957 -.77476 .11853 406.902 497.844)"/><path d="M277.96 90.857c-2.224 1.57-1.252 3.53-.296 5.497.957 1.968-2.104 7.64-2.136 7.885-.032.244 6.025-2.876 7.676-4.902 1.95-2.394 6.877 3.238 6.608 2.381.002-1.533-9.627-12.431-11.852-10.861" style="fill:#7c7c7c;filter:url(#J)" transform="matrix(1.15221 0 0 1.15221 -155.027 -67.6)"/><path d="M16.687 165.862c-2.162 1.97 1.014 4.928 2.52 8.404.936 2.162 3.527 5.206 6.032 4.718 1.885-.367 3.055-3.08 2.876-4.991-.344-3.689-3.456-4.553-5.717-5.82-1.791-1.004-4.192-3.694-5.71-2.31" style="fill:#838384;filter:url(#K)" transform="translate(168 -52.762)"/><path d="M-28.632 172.601c1.702 4.938 5.13 9.152 9.185 12.444 1.349 1.095 2.783 2.104 4.367 2.817 1.584.712 3.331 1.12 5.062.972 1.695-.144 3.307-.809 4.789-1.645 1.48-.837 2.856-1.847 4.293-2.758 2.462-1.56 5.1-2.821 7.657-4.22 3.082-1.687 6.07-3.59 8.665-5.96 1.187-1.084 2.295-2.268 3.607-3.199 1.312-.93 2.883-1.605 4.488-1.496 1.204.082 2.333.594 3.512.848.59.127 1.201.189 1.798.098.596-.09 1.18-.344 1.597-.78.513-.532.737-1.299.71-2.038s-.284-1.453-.629-2.107c-.689-1.308-1.734-2.435-2.2-3.838-.414-1.249-.33-2.599-.294-3.914s.008-2.69-.599-3.857c-.461-.89-1.236-1.595-2.121-2.064-.886-.468-1.879-.71-2.876-.803-1.995-.188-3.994.2-5.995.313-2.656.15-5.322-.182-7.977-.022-3.311.199-6.557 1.16-9.874 1.166-3.786.007-7.568-1.232-11.308-.64-1.604.254-3.135.838-4.676 1.353-1.54.514-3.132.967-4.757.943-1.844-.026-3.629-.665-5.469-.796-.92-.066-1.862 0-2.726.323s-1.644.924-2.068 1.743c-.243.469-.363.996-.386 1.524s.05 1.057.178 1.57c.255 1.026.724 1.983 1.11 2.967 1.392 3.554 1.692 7.448 2.937 11.056" clip-path="url(#L)" style="fill:#000;fill-opacity:.258824;filter:url(#M)" transform="translate(147 -44.762)"/><path d="M-54.38 165.474a39.4 39.4 0 0 1 8.769 8.051c2.313 2.884 4.28 6.154 7.299 8.289 2.132 1.508 4.695 2.358 7.294 2.616 3.051.303 6.14-.187 9.082-1.052 2.726-.802 5.363-1.93 7.782-3.422 4.598-2.836 8.439-6.992 13.51-8.857 1.107-.407 2.26-.698 3.326-1.2 1.068-.502 2.072-1.254 2.581-2.318.49-1.022.471-2.202.631-3.324.17-1.201.554-2.362.764-3.557s.235-2.472-.282-3.57c-.427-.908-1.205-1.627-2.1-2.084-.894-.457-1.9-.665-2.904-.714-2.006-.098-3.987.415-5.988.598-2.65.241-5.318-.1-7.977-.02-3.308.1-6.568.85-9.874 1.006-3.772.178-7.534-.418-11.308-.552-1.632-.058-3.275-.028-4.884.253s-3.188.822-4.549 1.726c-1.32.877-2.396 2.067-3.606 3.09-.605.512-1.248.986-1.954 1.345-.706.36-1.479.605-2.27.643-.408.02-.819-.015-1.222.047a2.6 2.6 0 0 0-1.698 1.053 2.6 2.6 0 0 0-.423 1.952" clip-path="url(#N)" style="opacity:.3;fill:#000;filter:url(#O)" transform="matrix(1 0 0 .9211 168 -38.655)"/><path d="M45.101 224.45c6.085 4.894 9.946 12.285 11.141 20.003.933 6.018.327 12.195-1.03 18.132s-3.453 11.676-5.532 17.4c-.83 2.283-1.662 4.587-1.992 6.994s-.12 4.954 1.04 7.087c1.33 2.446 3.813 4.13 6.482 4.923 2.635.783 5.48.766 8.148.102 2.667-.665 7.157-1.526 9.328-3.212 5.516-4.283 6.825-11.72 8.132-18.25 1.363-6.81.696-13.95-.501-20.83-1.634-9.381-4.382-18.55-7.88-27.407a95.5 95.5 0 0 0-9.792-18.52c-3.847-5.669-9.307-10.094-13.34-15.636-1.401-1.925-3.087-3.931-4.463-5.878-2.969-4.198-2.297-3.415-4.138-6.132-1.336-1.97-3.446-2.648-5.666-3.51-2.22-.863-4.712-1.117-7.005-.472-3.021.85-5.49 3.231-6.802 6.082-1.314 2.851-1.543 6.124-1.032 9.22.659 3.996 2.486 7.703 4.546 11.19 2.327 3.936 5.022 7.726 8.536 10.653 3.667 3.055 8.102 5.07 11.82 8.06M-69.527 194.036c-7.073 8.037-14.352 15.816-18.346 24.505-1.976 4.413-2.91 9.207-4.265 13.85-1.538 5.271-3.626 10.37-5.97 15.335-2.166 4.586-4.55 9.063-6.94 13.536-1.738 3.254-3.505 6.581-4.107 10.22-.477 2.877-.199 5.845.533 8.667.733 2.822 1.91 5.51 3.238 8.106 5.667 11.075 14.17 20.622 24.242 27.925a85 85 0 0 0 14.602 8.526c2.783 1.27 5.714 2.404 8.772 2.457 1.53.027 3.074-.225 4.475-.84 1.4-.616 2.65-1.604 3.482-2.888 1.023-1.577 1.37-3.538 1.165-5.407s-.935-3.653-1.913-5.259c-2.39-3.922-6.166-6.76-9.797-9.573-7.84-6.074-15.425-12.48-22.682-19.24-2.05-1.909-4.098-3.878-5.53-6.284-1.394-2.344-2.148-5.014-2.658-7.693-1.4-7.349-1.04-15.083 1.46-22.133.978-2.758 2.27-5.392 3.518-8.04 2.161-4.589 4.207-9.266 7.049-13.467 3.538-5.23 8.268-9.66 11.152-15.278 2.434-4.742 3.42-10.072 4.361-15.318.737-4.105 2.15-8.125 2.87-12.232-1.407 2.665-5.938 7.042-8.711 10.525" style="fill:#020204" transform="translate(168 -52.762)"/><path d="M290.781 216.018c.485.468.981.943 1.5 1.375 3.667 3.055 5.619 6.486 9.338 9.477 6.085 4.895 12.259 13.344 13.454 21.06.933 6.02-.3 9.29-1.804 16.389-1.504 7.098-5.77 17.148-8.074 23.992-.92 2.729 1.861 1.603 1.496 4.48a17.7 17.7 0 0 0-.035 4.259c.023-.271.04-.553.07-.822.442-3.923 1.623-7.695 2.908-11.395 2.475-7.123 5.315-14.101 7.272-21.408 1.958-7.307 1.74-12.565.72-18.844-1.286-7.896-5.798-15.187-12.188-20-4.519-3.403-9.847-5.585-14.657-8.563" clip-path="url(#Q)" style="fill:#838384;filter:url(#P)" transform="matrix(1.01807 0 0 1 -97.255 -53.762)"/><path d="M232.33 224.27a33 33 0 0 0-5.953 7.318c-2.668 4.458-4.239 9.468-6.178 14.289-1.444 3.588-3.125 7.193-3.327 11.056-.103 1.984.191 3.966.257 5.951.066 1.986-.117 4.052-1.09 5.784a7 7 0 0 1-3.733 3.144 11.07 11.07 0 0 1 5.336 3.866c1.114 1.499 1.827 3.253 2.796 4.85.787 1.299 1.753 2.502 2.943 3.445s2.611 1.62 4.117 1.813a7.26 7.26 0 0 0 5.765-1.842 135.3 135.3 0 0 1 5.15-53.8c.336-1.095.688-2.198.77-3.34.084-1.143-.128-2.349-.823-3.259a3.54 3.54 0 0 0-1.43-1.108 3.54 3.54 0 0 0-1.792-.252 3.54 3.54 0 0 0-1.68.67c-.49.363-.883.856-1.127 1.415" clip-path="url(#S)" style="opacity:.95;fill:#7c7c7c;filter:url(#R)" transform="translate(-142 -53.762)"/><path d="M86.056 328.132a16.6 16.6 0 0 1-2.05 4.41c-1.98 3.013-4.854 5.28-7.726 7.371-4.9 3.566-10.003 6.838-14.563 10.89-3.056 2.715-5.842 5.76-8.423 8.965-2.208 2.742-4.284 5.62-6.801 8.057-2.54 2.46-5.53 4.447-8.752 5.53-3.918 1.316-8.058 1.253-11.832.26-2.645-.697-5.224-1.908-6.862-4.098-1.645-2.198-2.178-5.152-2.368-8.052-.337-5.128.26-10.37.803-15.575.452-4.326.868-8.655 1.038-12.972.31-7.852-.196-15.636-1.231-23.273-.174-1.28-.362-2.568-.257-3.886.105-1.317.535-2.688 1.436-3.705.832-.94 1.993-1.496 3.15-1.769 1.159-.273 2.33-.29 3.494-.321 2.74-.075 5.496-.24 8.195.006 1.703.155 3.372.474 5.073.642 2.838.28 5.781.133 8.627-.723 3.064-.923 5.987-2.652 9.1-3.128a13 13 0 0 1 3.8.006c1.268.182 2.53.542 3.503 1.336.74.604 1.282 1.433 1.706 2.317.631 1.316 1.02 2.77 1.241 4.261.197 1.32.267 2.68.598 3.957.545 2.102 1.78 3.887 3.267 5.34s3.225 2.602 4.961 3.734c1.73 1.128 3.468 2.247 5.315 3.176.866.437 1.757.831 2.586 1.333.828.503 1.6 1.122 2.15 1.936.747 1.105 1.046 2.553.822 3.975" style="opacity:.2;fill:url(#T);filter:url(#U)" transform="matrix(1.02688 0 0 1 165.686 -53.762)"/><path d="M263.19 278.252c-2.624 3.114-6.268 5.17-9.897 7.02-6.188 3.154-12.602 5.921-18.42 9.716-3.897 2.543-7.495 5.527-10.86 8.742-2.877 2.75-5.605 5.688-8.832 8.018-3.256 2.351-7.02 4.054-10.99 4.65-4.831.725-9.822-.213-14.3-2.164-3.137-1.367-6.155-3.323-7.963-6.23-1.814-2.917-2.228-6.487-2.232-9.923-.008-6.077 1.118-12.09 2.178-18.073.881-4.972 1.72-9.955 2.26-14.975.984-9.132.977-18.353.32-27.514-.11-1.534-.237-3.083-.008-4.604.23-1.52.855-3.036 2.02-4.04 1.078-.926 2.522-1.336 3.94-1.414 1.419-.079 2.834.146 4.24.352 3.313.484 6.652.865 9.89 1.716 2.042.538 4.032 1.26 6.072 1.811 3.402.92 6.966 1.362 10.467.952 3.77-.44 7.43-1.857 11.224-1.765 1.556.038 3.101.332 4.586.8 1.515.478 3.01 1.162 4.123 2.295.846.862 1.436 1.946 1.879 3.07.66 1.673 1.014 3.456 1.167 5.249.134 1.587.113 3.194.414 4.759.495 2.575 1.847 4.923 3.528 6.935s3.69 3.72 5.697 5.408c1.999 1.68 4.01 3.354 6.167 4.828 1.012.692 2.056 1.34 3.017 2.1.961.762 1.845 1.648 2.446 2.716.815 1.45 1.063 3.208.537 4.877s-1.481 3.276-2.67 4.688" style="fill:url(#V)" transform="translate(8 4.6)"/><path d="M512.891 328.724a15.3 15.3 0 0 1-2.571 4.26c-2.403 2.814-5.73 4.655-9.038 6.311-5.653 2.83-11.503 5.318-16.821 8.736-3.554 2.283-6.841 4.965-9.918 7.86-2.63 2.472-5.125 5.115-8.066 7.207-2.981 2.12-6.418 3.647-10.037 4.18-4.41.651-8.96-.192-13.058-1.945-2.857-1.222-5.618-2.97-7.272-5.6-1.647-2.617-2.032-5.83-2.04-8.922-.013-5.464 1.019-10.87 1.99-16.248.807-4.469 1.576-8.948 2.064-13.463.889-8.208.848-16.498.292-24.735-.093-1.38-.2-2.774.012-4.14.212-1.368.778-2.728 1.826-3.631.983-.847 2.303-1.218 3.599-1.286 1.295-.068 2.587.142 3.87.33 3.024.445 6.073.78 9.032 1.544 1.865.482 3.683 1.131 5.545 1.628 3.11.829 6.362 1.225 9.56.856 3.44-.398 6.786-1.672 10.249-1.587 1.42.035 2.83.3 4.188.72 1.382.425 2.75 1.034 3.765 2.062.766.776 1.296 1.754 1.716 2.76.626 1.496 1.033 3.097 1.066 4.719.035 1.693-.336 3.395-.106 5.073.186 1.363.763 2.648 1.5 3.81.738 1.16 1.635 2.21 2.523 3.26 1.717 2.029 3.44 4.097 5.593 5.654 2.452 1.774 5.362 2.812 7.895 4.468.755.493 1.486 1.052 2.018 1.78a4.76 4.76 0 0 1 .624 4.34" clip-path="url(#W)" style="fill:#cd8907;filter:url(#X)" transform="translate(-242 -53.762)"/><path d="M508.793 327.925a15 15 0 0 1-2.311 3.492c-2.154 2.428-5.061 4.099-8.124 5.172-5.042 1.767-10.546 2.005-15.495 4.016-3.016 1.227-5.73 3.074-8.479 4.82-2.222 1.41-4.492 2.768-6.932 3.755-2.755 1.116-5.686 1.74-8.626 2.179-1.87.279-3.762.484-5.651.387-1.89-.097-3.784-.507-5.452-1.4-1.264-.678-2.4-1.654-3.075-2.92-.75-1.405-.88-3.055-.863-4.648.046-4.246 1.026-8.446.996-12.692-.025-3.696-.815-7.345-1.042-11.035-.437-7.094 1.205-14.313-.24-21.272-.231-1.115-.542-2.227-.527-3.365.008-.569.099-1.141.315-1.667.217-.526.563-1.005 1.025-1.338.389-.28.85-.45 1.323-.526a4.7 4.7 0 0 1 1.432.007c.948.136 1.852.482 2.776.737 2.641.73 5.432.714 8.117 1.265 1.685.345 3.317.911 4.984 1.334 2.8.71 5.72 1.013 8.592.701 3.089-.335 6.108-1.375 9.213-1.3 1.273.03 2.538.25 3.765.59s2.456.819 3.384 1.69c.67.629 1.152 1.431 1.543 2.262.57 1.212.967 2.528.957 3.868-.005.696-.119 1.387-.186 2.08-.068.694-.088 1.404.091 2.078.18.676.554 1.287.983 1.84s.915 1.06 1.358 1.602c1.242 1.517 2.13 3.285 3.097 4.99s2.053 3.393 3.58 4.622c2.08 1.672 4.779 2.34 7.097 3.661.679.387 1.337.841 1.814 1.46.382.495.638 1.088.735 1.706.098.618.037 1.26-.174 1.85" clip-path="url(#Y)" style="fill:#f5c021;filter:url(#Z)" transform="matrix(1.14297 0 0 1.2323 -310.998 -130.888)"/><path d="M187.31 230.288c3.275-.888 6.065 1.597 8.441 3.472 1.536 1.31 3.754.98 5.637 1.042 3.12-.113 6.225.523 9.347.136 6.145-.52 12.169-2.03 18.342-2.29 2.95-.186 6.26-.357 8.809 1.365 1.033.716 2.547 3.741 3.566 2.605-.42-3.178-2.777-6.256-5.939-7.102-2.475-.39-4.99.291-7.49.07-7.422-.176-14.793-1.555-22.233-1.16-5.177.046-10.347-.194-15.516-.396-2.03-.415-2.747 1.39-3.849 2.08" clip-path="url(#aa)" style="fill:url(#ab);filter:url(#ac)" transform="translate(8 4.6)"/><path d="M57.577 222.657c1.6-.663 3.398-.784 5.1-.47 1.703.314 3.312 1.05 4.744 2.023 2.864 1.946 4.988 4.777 7.023 7.58 4.672 6.433 9.168 13.001 13.245 19.829 3.306 5.537 6.343 11.256 10.164 16.453 2.494 3.391 5.306 6.539 7.813 9.922 2.506 3.382 4.728 7.056 5.839 11.116 1.444 5.277.885 11.093-1.627 15.953-1.766 3.42-4.476 6.353-7.772 8.34-3.296 1.986-7.17 3.014-11.016 2.87-6.115-.23-11.7-3.286-17.384-5.55-11.581-4.612-24.16-6.059-36.097-9.651-3.668-1.104-7.276-2.41-10.97-3.427-1.64-.45-3.308-.848-4.858-1.55-1.55-.704-3-1.75-3.862-3.218-.666-1.134-.948-2.47-.93-3.785.018-1.316.326-2.615.774-3.852.895-2.474 2.343-4.714 3.32-7.157 1.595-3.99 1.881-8.388 1.666-12.68-.215-4.29-.91-8.544-1.204-12.83-.131-1.914-.18-3.853.185-5.736.365-1.884 1.175-3.725 2.557-5.056 1.274-1.227 2.965-1.955 4.697-2.316 1.731-.361 3.515-.378 5.283-.338s3.541.134 5.304-.01 3.533-.541 5.069-1.419c1.46-.834 2.654-2.074 3.644-3.434s1.789-2.846 2.609-4.314 1.668-2.931 2.741-4.226 2.39-2.423 3.943-3.067" style="fill:url(#ad)" transform="translate(8 4.6)"/><path d="M-99.89 282.779c1.455-.586 3.094-.65 4.622-.304s2.95 1.09 4.189 2.047c2.477 1.914 4.2 4.614 5.854 7.268 3.97 6.433 7.851 12.934 11.516 19.568 2.777 4.993 5.425 10.092 8.837 14.678 2.264 3.042 4.848 5.832 7.158 8.837s4.372 6.282 5.393 9.934c1.316 4.706.783 9.91-1.495 14.233a19 19 0 0 1-7.186 7.512 18.5 18.5 0 0 1-10.087 2.488c-5.598-.258-10.711-3.053-15.98-4.95-10.104-3.666-21.054-4.158-31.417-7.02-3.715-1.009-7.337-2.353-11.07-3.295-1.651-.416-3.333-.757-4.902-1.419s-3.047-1.689-3.897-3.165c-.633-1.097-.886-2.388-.847-3.654s.36-2.51.81-3.694c.902-2.367 2.32-4.51 3.23-6.874 1.378-3.575 1.55-7.505 1.293-11.327-.256-3.822-.92-7.61-1.153-11.433-.104-1.71-.12-3.44.226-5.116.346-1.677 1.076-3.31 2.295-4.512 1.321-1.309 3.141-2.024 4.977-2.304s3.706-.158 5.555.007 3.705.373 5.561.261c1.856-.11 3.736-.563 5.27-1.607 1.397-.944 2.445-2.324 3.244-3.798.798-1.474 1.367-3.055 1.976-4.616.609-1.562 1.267-3.122 2.222-4.51s2.236-2.605 3.806-3.235" clip-path="url(#ae)" style="fill:#d99a03;filter:url(#af)" transform="translate(168 -52.762)"/><path d="M138.753 281.235c1.41-.712 3.07-.858 4.617-.536 1.545.32 2.978 1.09 4.195 2.095 2.435 2.01 3.98 4.875 5.42 7.686 3.305 6.454 6.383 13.05 10.338 19.128 2.868 4.41 6.18 8.517 9.081 12.905 3.936 5.95 7.136 12.495 8.457 19.507.888 4.715.859 9.81-1.373 14.057-1.469 2.796-3.85 5.09-6.663 6.526s-6.043 2.017-9.19 1.734c-4.953-.445-9.453-2.925-14.117-4.655-8.274-3.069-17.218-3.803-25.734-6.118-3.592-.977-7.11-2.236-10.75-3.01-1.607-.342-3.244-.591-4.778-1.18-1.533-.588-2.986-1.565-3.77-3.008-.55-1.016-.736-2.205-.654-3.358.083-1.153.421-2.275.865-3.342.888-2.134 2.2-4.09 2.89-6.296 1.014-3.242.597-6.757-.163-10.067s-1.857-6.562-2.195-9.941c-.15-1.506-.147-3.04.192-4.515s1.027-2.892 2.108-3.95c1.393-1.362 3.344-2.04 5.283-2.229s3.893.069 5.82.351c1.929.283 3.869.59 5.815.5s3.929-.61 5.454-1.824c1.507-1.2 2.455-2.987 2.999-4.836s.72-3.782.943-5.696.5-3.846 1.23-5.63c.729-1.784 1.96-3.428 3.68-4.298" clip-path="url(#ag)" style="fill:#f5bd0c;filter:url(#ah)" transform="matrix(1 0 0 .98205 -72 -49.803)"/><path d="M76.407 237.607c2.606 4.714 4.196 10.122 6.781 14.875 2.378 4.372 5.085 8.874 7.5 12.906 1.076 1.796 3.584 4.555 6.12 8.838 2.297 3.88 4.617 9.297 5.916 11.116-.746-2.13-2.28-7.847-4.109-11.923-1.71-3.809-3.7-5.982-4.927-8.03-2.415-4.033-5.017-7.657-7.5-11.5-3.425-5.302-6.035-11.236-9.781-16.282" style="fill:url(#ai);filter:url(#aj)" transform="translate(8 4.6)"/><path d="M231.484 237.278c-.563-1.102-1.587-1.926-2.73-2.403-1.141-.476-2.396-.628-3.633-.619-2.475.02-4.935.664-7.4.45-2.083-.18-4.06-.963-6.09-1.457-2.097-.51-4.322-.71-6.405-.143-2.226.606-4.19 2.094-5.419 4.045-1.084 1.721-1.6 3.753-1.761 5.78-.162 2.028.013 4.066.218 6.09.148 1.464.314 2.93.668 4.359s.904 2.823 1.766 4.015c1.24 1.716 3.083 2.94 5.07 3.675a14.09 14.09 0 0 0 10.13-.177c5.66-2.457 10.45-6.864 13.37-12.299a26.2 26.2 0 0 0 2.381-6.165c.209-.853.373-1.722.38-2.6s-.146-1.77-.546-2.551" style="opacity:.35;fill:url(#ak);filter:url(#al)" transform="translate(8 4.6)"/><path d="M71.484 295.64c-.563-1.102-1.587-1.926-2.73-2.402-1.14-.477-2.396-.63-3.633-.62-2.475.02-4.935.664-7.4.45-2.083-.18-4.059-.962-6.09-1.457-2.097-.51-4.322-.71-6.405-.143-2.226.606-4.19 2.094-5.419 4.046-1.084 1.72-1.599 3.752-1.761 5.78-.162 2.027.013 4.066.218 6.09.149 1.463.314 2.93.668 4.358s.904 2.823 1.766 4.015c1.24 1.716 3.083 2.94 5.07 3.675a14.09 14.09 0 0 0 10.13-.177c5.66-2.457 10.45-6.864 13.37-12.299a26.2 26.2 0 0 0 2.382-6.165c.208-.853.372-1.722.38-2.6.007-.878-.147-1.769-.546-2.55" style="opacity:.35;fill:url(#am);filter:url(#an)" transform="matrix(1 0 0 .72293 168 24.996)"/><path d="M76.188 285.328c-.406-1.104-1.119-2.082-1.991-2.87s-1.9-1.392-2.983-1.852c-2.165-.918-4.52-1.261-6.832-1.695-2.179-.41-4.341-.907-6.527-1.278-2.272-.385-4.618-.632-6.866-.125-1.965.443-3.784 1.459-5.271 2.819s-2.65 3.056-3.485 4.89c-1.473 3.23-1.935 6.865-1.654 10.403.209 2.633.875 5.346 2.608 7.34 1.401 1.61 3.388 2.614 5.434 3.22a18.4 18.4 0 0 0 10.86-.155 28.6 28.6 0 0 0 14.331-10.78c1.139-1.649 2.112-3.447 2.553-5.403.336-1.49.349-3.08-.178-4.514" style="fill:#020204" transform="translate(168 -53.762)"/><path d="M362.219 276.456c-.55.03-1.082.09-1.625.187-3.47.617-6.647 2.809-8.438 5.844a12.4 12.4 0 0 0-1.656 7.156c.073-1.741.53-3.446 1.375-4.968 1.434-2.582 4.032-4.53 6.938-5.063 1.79-.328 3.631-.13 5.437.094 1.733.215 3.481.443 5.188.812 2.64.572 5.254 1.452 7.468 3 .517.362 1 .769 1.406 1.25.407.482.722 1.038.844 1.657.178.904-.08 1.853-.531 2.656-.452.803-1.065 1.507-1.719 2.156a40 40 0 0 1-1.656 1.531c2.559-.495 5.152-1.197 7.281-2.687.9-.63 1.715-1.385 2.25-2.344s.763-2.121.5-3.187c-.177-.72-.571-1.383-1.062-1.938s-1.08-1.012-1.688-1.437a20 20 0 0 0-9.062-3.47 111 111 0 0 0-6.281-.968c-1.644-.206-3.321-.373-4.97-.281" clip-path="url(#aq)" style="fill:url(#ao);filter:url(#ap)" transform="translate(-142 -53.762)"/><path d="M362.219 276.456c-.55.03-1.082.09-1.625.187-3.47.617-6.647 2.809-8.438 5.844a12.4 12.4 0 0 0-1.656 7.156c.073-1.741.53-3.446 1.375-4.968 1.434-2.582 4.032-4.53 6.938-5.063 1.79-.328 3.631-.13 5.437.094 1.733.215 3.481.443 5.188.812 2.64.572 5.254 1.452 7.468 3 .517.362 1 .769 1.406 1.25.407.482.722 1.038.844 1.657.178.904-.08 1.853-.531 2.656-.452.803-1.065 1.507-1.719 2.156a40 40 0 0 1-1.656 1.531c2.559-.495 5.152-1.197 7.281-2.687.9-.63 1.715-1.385 2.25-2.344s.763-2.121.5-3.187c-.177-.72-.571-1.383-1.062-1.938s-1.08-1.012-1.688-1.437a20 20 0 0 0-9.062-3.47 111 111 0 0 0-6.281-.968c-1.644-.206-3.321-.373-4.97-.281" clip-path="url(#at)" style="fill:url(#ar);filter:url(#as)" transform="translate(-142 -53.762)"/><path d="M-24.768 113.362c-1.78.097-3.484.92-4.787 2.137-1.304 1.218-2.222 2.812-2.787 4.503-1.13 3.384-.875 7.052-.618 10.61.232 3.222.47 6.506 1.676 9.502.604 1.498 1.45 2.91 2.58 4.064s2.553 2.042 4.12 2.434c1.468.368 3.037.292 4.482-.162s2.764-1.279 3.846-2.338c1.58-1.545 2.643-3.566 3.254-5.69.61-2.123.784-4.35.752-6.56-.04-2.764-.4-5.538-1.266-8.164-.865-2.626-2.245-5.103-4.173-7.086-.933-.96-1.997-1.805-3.198-2.397-1.201-.593-2.544-.926-3.88-.853" style="fill:url(#au)" transform="translate(147 -44.762)"/><path d="M159.939 137.112c-.372 2.245-.386 4.602.386 6.743.51 1.414 1.35 2.697 2.372 3.8.67.721 1.429 1.377 2.316 1.803.888.425 1.916.606 2.87.366.882-.22 1.652-.788 2.22-1.497.57-.708.948-1.553 1.218-2.42.798-2.561.67-5.362-.122-7.924-.577-1.867-1.532-3.668-3.027-4.927-.713-.6-1.547-1.071-2.454-1.287s-1.89-.165-2.738.22c-.942.429-1.672 1.244-2.149 2.162s-.723 1.94-.892 2.96" style="fill:#020204" transform="translate(-42 -53.762)"/><path d="M114.687 77.125c.242.634 1.055.864 1.5 1.375.433.497.888 1.01 1.125 1.625.455 1.176-.448 2.92.5 3.75.298.26.895.266 1.188 0 1.145-1.042.89-3.144.437-4.625-.411-1.344-1.427-2.616-2.679-3.255-.579-.295-1.45-.541-1.946-.12-.319.271-.274.859-.125 1.25" style="fill:url(#av);filter:url(#aw)" transform="translate(8 4.6)"/><path d="M50.392 129.527c2.685-1.6 5.955-1.97 9.067-1.675s6.125 1.208 9.141 2.029c2.212.602 4.452 1.161 6.525 2.137 2.074.977 4 2.416 5.142 4.403.184.32.346.65.54.962.194.313.423.61.716.83.293.222.657.365 1.024.345.184-.01.366-.06.524-.154a1 1 0 0 0 .378-.392c.098-.187.128-.404.117-.615a3 3 0 0 0-.117-.622c-.755-2.753-2.535-5.088-3.889-7.601-.812-1.508-1.477-3.093-2.298-4.597-2.818-5.16-7.443-9.215-12.701-11.847s-11.128-3.896-16.997-4.24c-6.802-.397-13.62.41-20.33 1.592-2.908.512-5.86 1.115-8.435 2.561-1.288.724-2.468 1.657-3.389 2.811s-1.576 2.535-1.787 3.997c-.204 1.408.008 2.86.5 4.196.493 1.335 1.26 2.558 2.157 3.662 1.797 2.208 4.101 3.934 6.223 5.831s4.09 3.992 6.463 5.563c1.186.785 2.472 1.435 3.843 1.816 1.37.382 2.83.49 4.224.204 1.445-.296 2.783-1.005 3.954-1.902 1.17-.897 2.186-1.98 3.148-3.098 1.925-2.236 3.723-4.686 6.257-6.196" clip-path="url(#ax)" style="fill:url(#ay)" transform="translate(68 -53.762)"/><path d="M-38.438 119.378c2.504 2.345 4.365 5.24 5.625 8.31-.55-3.385-1.423-6.104-3.625-8.31-1.35-1.266-2.886-2.378-4.625-3.159-1.52-.683-3.213-1.108-4.18-1.125-.968-.018-1.203.004-1.401.013-.2.01-.358.016.271.088.63.071 2.034.451 3.542 1.128 1.507.677 3.042 1.79 4.393 3.055" style="fill:url(#az);filter:url(#aA)" transform="translate(168 -52.762)"/><path d="M6.75 113.362c-2.78 1.91-5.11 4.575-6.25 7.75-1.436 4.002-.886 8.48.5 12.5 1.42 4.117 3.794 8.041 7.38 10.513 1.792 1.235 3.867 2.083 6.03 2.338 2.162.256 4.409-.095 6.34-1.1 2.353-1.227 4.148-3.374 5.262-5.782 1.115-2.408 1.589-5.07 1.738-7.719.19-3.375-.14-6.806-1.25-10-1.205-3.469-3.39-6.67-6.473-8.666-1.541-.998-3.292-1.684-5.11-1.936-1.82-.251-3.705-.063-5.417.602-.975.38-1.887.908-2.75 1.5" style="fill:url(#aB)" transform="translate(147 -44.762)"/><path d="M302.162 130.757a6.44 6.44 0 0 0-2.952.99 7.8 7.8 0 0 0-2.237 2.18c-1.187 1.727-1.709 3.846-1.793 5.94-.063 1.573.111 3.166.633 4.65.521 1.485 1.4 2.86 2.612 3.863a7.57 7.57 0 0 0 4.425 1.72 7.43 7.43 0 0 0 4.561-1.306c1.053-.733 1.902-1.741 2.507-2.873.604-1.131.969-2.383 1.135-3.655.294-2.247-.038-4.593-1.077-6.607s-2.8-3.673-4.926-4.456c-.921-.34-1.91-.516-2.888-.446" style="fill:#020204" transform="translate(-142 -53.762)"/><path d="M154.656 79.25c-.866.342-2.236.127-2.616.977-.225.503.093 1.332.603 1.54 1.033.42 2.632-.34 3.05-1.375.18-.449-.094-1.16-.54-1.348-.166-.07-.33.14-.497.206" style="fill:#141413;filter:url(#aC)" transform="translate(8 4.6)"/><path d="M158.625 81.5c1.161-1.161-.826-4.24-2.375-5.5-1.122-.913-4.39-1.869-4.25-.875s1.61 2.266 2.595 3.237c1.212 1.196 3.478 3.69 4.03 3.138" style="fill:url(#aD);filter:url(#aE)" transform="translate(8 4.6)"/><path d="M75.25 132.487a23.7 23.7 0 0 1 8.122-4.4c6.085-1.881 13-1.137 18.378 2.275 1.857 1.178 3.512 2.642 5.24 4.004 1.726 1.362 3.56 2.641 5.635 3.371 1.12.395 2.318.624 3.5.5a6.5 6.5 0 0 0 2.984-1.119 7.6 7.6 0 0 0 2.181-2.337c1.112-1.837 1.47-4.064 1.278-6.203-.383-4.277-2.795-8.053-4.818-11.84-.633-1.187-1.236-2.394-2-3.5-2.343-3.397-6.073-5.636-9.985-6.949s-8.046-1.786-12.14-2.302c-1.826-.23-3.673-.47-5.5-.25-2.1.253-4.076 1.101-6.125 1.625-.973.249-1.964.425-2.928.704-.964.28-1.913.67-2.697 1.296-1.145.916-1.865 2.291-2.177 3.724-.311 1.432-.24 2.924-.011 4.372.458 2.896 1.54 5.724 1.438 8.654-.07 2.012-.702 3.988-.625 6 .023.59.107 1.178.25 1.75" clip-path="url(#aF)" style="fill:url(#aG)" transform="translate(68 -53.762)"/><path d="M-4.594 113.125c-.477.6-.908 1.252-1.25 1.969 2.147.462 4.2 1.346 6.031 2.562 3.545 2.355 6.237 5.797 8.125 9.625a10 10 0 0 0 1.188-1.594c-1.898-3.987-4.644-7.594-8.313-10.03-1.762-1.171-3.724-2.054-5.78-2.532" style="fill:url(#aH);filter:url(#aI)" transform="translate(168 -52.762)"/><path d="M-16.4 136.862c1.768-1.986 2.977-4.41 4.675-6.457.849-1.023 1.828-1.955 2.981-2.616 1.154-.662 2.492-1.042 3.817-.927 1.474.128 2.855.862 3.934 1.875s1.88 2.29 2.519 3.625c.611 1.278 1.097 2.64 1.979 3.75.94 1.184 2.26 1.992 3.45 2.923.597.465 1.168.97 1.64 1.56.47.592.839 1.277.99 2.017a4.2 4.2 0 0 1-.185 2.267 5.1 5.1 0 0 1-1.26 1.904c-1.105 1.065-2.613 1.64-4.133 1.855-3.04.43-6.115-.476-9.185-.392-3.106.086-6.141 1.184-9.247 1.07-1.553-.056-3.128-.436-4.404-1.323a5.6 5.6 0 0 1-1.596-1.675 4.6 4.6 0 0 1-.673-2.206c-.025-.74.148-1.48.444-2.16s.713-1.302 1.182-1.876c.939-1.147 2.087-2.106 3.073-3.214" style="fill:url(#aJ)" transform="translate(147 -44.762)"/><path d="M45.752 165.032c.061.295.172.58.327.84.265.444.654.805 1.073 1.11.42.306.873.56 1.312.836 2.334 1.467 4.235 3.529 5.925 5.707 2.266 2.922 4.272 6.165 7.299 8.289 2.138 1.5 4.696 2.355 7.294 2.616 3.051.306 6.14-.186 9.082-1.052 2.726-.803 5.363-1.93 7.782-3.422 4.598-2.835 8.44-6.992 13.51-8.857 1.107-.407 2.26-.698 3.326-1.2 1.068-.502 2.072-1.254 2.581-2.318.49-1.022.471-2.202.631-3.324.17-1.201.554-2.362.764-3.557s.235-2.472-.282-3.57c-.427-.908-1.205-1.628-2.1-2.084-.894-.457-1.9-.665-2.904-.714-2.006-.099-3.987.415-5.988.598-2.65.242-5.318-.098-7.977-.02-3.308.1-6.568.845-9.874 1.006-3.772.183-7.535-.399-11.308-.552-1.634-.066-3.28-.05-4.892.226s-3.195.823-4.54 1.753c-1.312.905-2.357 2.14-3.56 3.184-.603.521-1.25.999-1.967 1.347s-1.508.564-2.304.547c-.41-.009-.831-.077-1.222.047-.243.078-.46.227-.643.406a3.8 3.8 0 0 0-.478.6 10.5 10.5 0 0 0-.867 1.558" style="fill:url(#aK)" transform="translate(68 -53.762)"/><path d="M60.557 169.097a6.7 6.7 0 0 0 .643 4.771 6.7 6.7 0 0 0 3.703 3.077c1.977.659 4.206.336 6.054-.628 1.072-.56 2.052-1.346 2.67-2.385a4.5 4.5 0 0 0 .604-1.695 3.73 3.73 0 0 0-.185-1.786 3.9 3.9 0 0 0-1.146-1.596 5.2 5.2 0 0 0-1.733-.945c-1.258-.416-2.611-.424-3.934-.36a39 39 0 0 0-5.97.752" style="fill:#d9b30d;filter:url(#aL)" transform="translate(68 -53.762)"/><path d="M54.066 156.68c-1.339.791-2.628 1.664-3.897 2.563-.657.466-1.334.969-1.68 1.696-.246.515-.303 1.099-.31 1.67-.008.57.028 1.143-.047 1.709-.05.386-.154.766-.171 1.155-.009.195.005.392.056.58s.142.367.275.508c.173.184.408.296.65.37.24.073.49.11.735.168 1.174.277 2.197.997 3.094 1.804s1.703 1.715 2.639 2.477c2.537 2.064 5.89 2.918 9.16 2.972s6.505-.63 9.696-1.35c2.506-.564 5.015-1.154 7.426-2.043 3.702-1.365 7.14-3.432 10.118-6.022 1.35-1.174 2.617-2.463 4.132-3.415 1.341-.842 2.843-1.398 4.207-2.203.121-.072.243-.146.352-.236s.205-.199.269-.325a.98.98 0 0 0 .039-.716 1.9 1.9 0 0 0-.36-.634 4.4 4.4 0 0 0-.57-.578c-1.424-1.219-3.356-1.662-5.225-1.81-1.87-.148-3.76-.044-5.61-.353-1.739-.29-3.393-.938-5.072-1.477a37 37 0 0 0-5.389-1.31c-4.295-.701-8.717-.567-12.977.32a38 38 0 0 0-11.54 4.48" style="fill:#604405;filter:url(#aM)" transform="translate(68 -53.762)"/><path d="M53.64 152.154a23.8 23.8 0 0 0-5.137 4.685c-.84 1.031-1.603 2.151-2.027 3.412-.333.992-.446 2.042-.656 3.067-.079.384-.171.769-.17 1.16.001.197.026.394.087.58.06.186.158.362.294.503.224.234.54.361.858.427.318.065.644.075.966.111 1.455.166 2.794.872 4 1.703 1.206.83 2.317 1.795 3.555 2.578 2.734 1.729 5.994 2.498 9.227 2.622 3.232.125 6.457-.366 9.63-1 2.52-.503 5.033-1.1 7.425-2.043 3.662-1.444 6.963-3.667 10.118-6.022 1.433-1.07 2.846-2.173 4.132-3.415.437-.422.86-.86 1.328-1.246s.988-.721 1.566-.907c.88-.284 1.835-.202 2.748-.05.687.115 1.376.27 2.072.241a3.1 3.1 0 0 0 1.02-.203c.324-.13.622-.33.844-.6a2.02 2.02 0 0 0 .441-1.272 2.6 2.6 0 0 0-.37-1.305c-.466-.79-1.27-1.323-2.106-1.695-1.146-.51-2.386-.761-3.605-1.056a51.7 51.7 0 0 1-10.836-3.954c-1.716-.851-3.384-1.795-5.072-2.7-1.735-.93-3.504-1.824-5.389-2.395-4.213-1.277-8.818-.859-12.977.586a27.75 27.75 0 0 0-11.967 8.188" style="fill:url(#aN)" transform="translate(68 -53.762)"/><path d="M83.239 153.08a1.8 1.8 0 0 0-.902-.591 2.4 2.4 0 0 0-1.084-.049c-.72.123-1.365.51-1.966.925-1.708 1.176-3.219 2.628-4.537 4.23-1.745 2.12-3.185 4.571-3.668 7.274-.081.456-.135.922-.078 1.38.057.46.233.916.559 1.244.286.288.675.464 1.078.522.402.058.815.002 1.2-.128.77-.26 1.41-.8 2.015-1.342 3.336-2.985 6.352-6.567 7.56-10.878.12-.433.223-.876.22-1.325-.002-.45-.119-.91-.397-1.262" style="fill:#f6da4a;filter:url(#aO)" transform="translate(68 -53.762)"/><path d="M135.251 88.528c.231.742 1.428.619 2.12.975.606.313 1.094.997 1.776 1.017.65.019 1.664-.225 1.748-.871.112-.853-1.133-1.395-1.935-1.708-1.031-.402-2.353-.606-3.32-.068-.222.123-.464.412-.389.655" style="opacity:.8;fill:url(#aP);filter:url(#aQ)" transform="translate(8 4.6)"/><path d="M123.827 88.108c-.888-.289-2.358 1.277-1.878 2.079.132.22.535.499.806.35.41-.225.744-1.03 1.188-1.345.296-.21.23-.972-.116-1.084" style="opacity:.8;fill:url(#aR);filter:url(#aS)" transform="translate(8 4.6)"/><path d="M245.905 158.284a2.608 2.328 0 0 1-2.608 2.328 2.608 2.328 0 0 1-2.608-2.328 2.608 2.328 0 0 1 2.608-2.328 2.608 2.328 0 0 1 2.608 2.328" clip-path="url(#aV)" style="fill:url(#aT);filter:url(#aU)" transform="matrix(1.09562 0 -.17018 1.51813 -68.244 -135.88)"/></svg>