<svg xmlns="http://www.w3.org/2000/svg" width="255.581" height="187.31" viewBox="0 0 67.622 49.559"><defs><clipPath id="b" clipPathUnits="userSpaceOnUse"><path d="M0 0h595.276v841.89H0Z"/></clipPath><clipPath id="a" clipPathUnits="userSpaceOnUse"><path d="M0 0h595.276v841.89H0Z"/></clipPath></defs><path d="M0 0h14.014l8.615-14.129L31.245 0h14.013v-40.204H31.875v19.93l-9.246-14.302h-.23l-9.247 14.302v-19.93H0Z" style="fill:#5f6062;fill-opacity:1;fill-rule:nonzero;stroke:none" transform="matrix(.35278 0 0 -.35278 0 26.355)"/><path d="M24.568 151.164h4.741v14.183h-4.741z" style="fill:#5f6062;fill-opacity:1;fill-rule:nonzero;stroke:none;stroke-width:.28222224" transform="translate(-6.254 -124.81)"/><g clip-path="url(#a)" transform="matrix(.35278 0 0 -.35278 -80.709 173.704)"><path d="m0 0 7.18 8.558c4.365-3.332 9.361-4.71 14.071-4.71 2.412 0 3.446.631 3.446 1.723v.115c0 1.148-1.263 1.78-5.571 2.642C10.108 10.166 2.183 12.75 2.183 21.25v.115c0 7.639 5.973 13.555 17.058 13.555 7.753 0 13.497-1.838 18.149-5.514l-6.547-9.074c-3.791 2.756-8.328 3.962-12.062 3.962-2.009 0-2.928-.689-2.928-1.665v-.115c0-1.091 1.09-1.781 5.34-2.585 10.282-1.895 17.173-4.882 17.173-12.98v-.115c0-8.442-6.949-13.611-17.747-13.611C12.464-6.777 5.112-4.48 0 0" style="fill:#5f6062;fill-opacity:1;fill-rule:nonzero;stroke:none" transform="translate(297.587 384.257)"/><path d="M0 0h18.091c10.683 0 17.977-4.767 17.977-14.301v-.115c0-9.707-7.409-14.876-18.264-14.876h-4.365v-10.912H0Zm17.058-19.7c3.446 0 5.743 1.551 5.743 4.422v.115c0 2.929-2.125 4.423-5.686 4.423h-3.676v-8.96z" style="fill:#5f6062;fill-opacity:1;fill-rule:nonzero;stroke:none" transform="translate(340.029 418.43)"/></g><text xml:space="preserve" x="7.811" y="172.663" style="font-style:normal;font-variant:normal;font-weight:700;font-stretch:normal;font-size:3.38666677px;line-height:0%;font-family:sans-serif;-inkscape-font-specification:&quot;Sans Bold&quot;;text-align:start;letter-spacing:0;word-spacing:0;writing-mode:lr-tb;text-anchor:start;fill:#5f6062;fill-opacity:1;stroke:none;stroke-width:.28222224" transform="translate(-6.254 -124.81)"><tspan x="7.811" y="172.663" style="font-size:7.90222216px;line-height:1.25;font-family:sans-serif;stroke-width:.28222224">Threat Sharing</tspan></text><g clip-path="url(#b)" transform="matrix(.1765 0 0 -.1765 -10.598 100.466)"><path d="M0 0h-5.184v-56.985c0-8.879-5.16-16.902-15.523-16.902h-101.465v-2.709c0-7.851 8.922-15.763 18.084-15.763h77.581l29.678-17.449-4.31 17.449H0c9.156 0 13.287 7.906 13.287 15.763v63.068C13.287-5.683 9.156 0 0 0" style="fill:#2fa1db;fill-opacity:1;fill-rule:nonzero;stroke:none" transform="translate(385.579 529.593)"/><path d="M0 0h-117.85c-10.369 0-22.301-9.211-22.301-18.09v-71.424c0-8.177 10.11-14.082 19.807-14.987l-6.311-23.958 40.441 23.786H0c10.363 0 19.937 6.286 19.937 15.159v71.424C19.937-9.211 10.363 0 0 0m-99.871-60.292c-5.88 0-10.645 4.766-10.645 10.646S-105.751-39-99.871-39c5.874 0 10.646-4.766 10.646-10.646s-4.772-10.646-10.646-10.646m39.764 0c-5.88 0-10.646 4.766-10.646 10.646S-65.987-39-60.107-39s10.646-4.766 10.646-10.646-4.766-10.646-10.646-10.646m39.77 0c-5.881 0-10.652 4.766-10.652 10.646S-26.218-39-20.337-39c5.868 0 10.645-4.766 10.645-10.646s-4.777-10.646-10.645-10.646" style="fill:#2fa1db;fill-opacity:1;fill-rule:nonzero;stroke:none" transform="translate(349.725 569.184)"/></g></svg>