<svg xmlns="http://www.w3.org/2000/svg" width="815" height="947" viewBox="0 0 215.635 250.561"><path d="M207.84 222.998v-.915h-1.798l-1.5 1.178v-.655h-1.796v-4.978h-1.497v-4.583h-.9v-.917h-1.498v5.763h-2.095v4.454h-2.248v-1.378l-1.196.526-1.647.72h-1.2v2.095h-2.395V216.84h-1.797v-1.31h-1.8v-5.895h-1.795v5.895l-.898.393v6.878h-1.646l-1.648.723h-1.799l-1.498-.654h-2.695v-1.574h-1.8v2.49H169.2v1.702h-1.203v1.112h-2.69l.005.002v-.721h-1.204v-9.432h-1.196v-6.419l-.75-.327v-4.257h-1.348v10.087h-1.2v10.219h-1.194v.85h-1.494v-.85h-1.204v-5.373h-.898v-6.288h-.898v-19.906h-.6v-9.297h-1.498v12.699h-1.197v25.806l-.9.396v1.963h-1.194v-1.836h-.601v-3.403h-1.498v-2.097h-1.2v3.93h-.896v1.047h-1.198v-1.963h-1.497v2.225h-2.097v2.226h-1.797v-6.025l-.751-.327v-6.482h-2.243v5.37l-1.5.654v7.531h-.894v-33.206h-.901v-12.961h-.898v10.996h-1.2v22.921h-.897v1.18h-.898v9.432h-1.2v-3.275h-1.497v-15.193h-1.797v-13.491l-.749-.328v8.577h-2.246V216.582h-.9v2.882l-1.198.525v6.614h-1.492v-7.27h-.902v-19.648h-.9v15.719h-1.495v8.383l-.897.395v-1.704H110.2v1.047H109v2.357h-.898v-2.488h-1.2v-2.227h-1.496v1.18l-.452-.2v1.902l-1.272.557v1.408l-1.458.637v-2.21h-1.911v-1.57h-.901v-2.097h-1.795v-2.098h-.9v-3.404H95.22v-7.597h-1.497v9.953h-1.498v3.146l-1.197.523v3.93h-.898v1.376h-1.195v-7.794l-.902-.394v-7.988h-1.498v-8.517h-.9v-21.966h-1.497v18.297h-.9v13.887H82.04v1.047h-1.197v5.766h-1.797V226.603h-1.495v-1.243h-1.501v-1.05h-1.497v-2.62h-2.096v-12.968H70.96V192.48h-1.797v13.753h-1.199v-2.356h-1.496v-11.922l-.751-.326v-7.624h-1.346v10.572h-1.497v12.048h-1.199v8.517h-1.197v7.597h-.6v-3.013H58.08v3.93h-2.097v-2.36h-1.497v4.457H52.69v-3.014h-1.797v1.178h-1.497v1.836h-1.498v.85h-1.794v-2.293h-2.1v2.293h-2.692v-.983h-1.501v.983h-2.692v-1.114h-1.203v-1.702h-1.497v-2.49h-1.797v1.574" fill="none" stroke="#3f0" stroke-width="1.9346989399999999" stroke-linecap="round" stroke-linejoin="round"/><path d="M209.484 15.49c-3.134 4.697-11.006 4.722-11.006 4.722l2.034-5.105c-10.346 2.585-20.893 13.524-20.893 13.524l-.02-6.413-13.934 10.589 2.815-7.862-5.561 3.723c-6.762 4.009-14.433 5.625-14.433 5.625-11.608.72-28.196 14.719-28.196 14.719 2.016-5.194.566-15.896.566-15.896C110.64 53.11 91.18 62.106 88.393 63.242c-2.795 1.131-17.462 7.843-30.787 20.024C44.29 95.435 40.06 115.783 40.06 115.783c-1.066 3.82-10.984 10.23-15.554 16.216-2.09 2.733-13.822 17.384-17.918 35.303-3.469 15.213.926 29.89.926 29.89s.771 5.558 4.988-4.368l1.756-.352s-2.145 4.638-.826 4.184c1.317-.449 8.888-8.613 15.09-15.513 6.204-6.907 27.338-23.883 46.373-25.114 0 0 12.919-4.876 22.489 2.61 0 0 6.31 7.81 16.064 6.838 0 0 1.144-.32 4.262 1.796l-.182-4.075s11.2 6.574 22.956 1.927l-2.062-2.92s2.112-3.112 8.342 1.107l.369-2.777s11.069 5.899 16.755 5.708l-1.56-5.005s11.723-1.645 23.336-2.362c0 0 14.465-3.119 24.01 7.427l-.19-150.813"/><g fill="none" stroke="#000" stroke-linecap="round" stroke-linejoin="round"><path d="M31.9 247.239v-63.252M31.9 117.45V7.913h177.076V247.24" stroke-width="1.9346989399999999"/><path d="M31.916 247.224h176.455" stroke-width="1.9656334999999998"/></g></svg>