<svg xmlns="http://www.w3.org/2000/svg" viewBox="0 0 431.438 59.8">
  <path fill="#474a50" d="M43.83.005h-3.67c-2.2 0-3.42 1.22-3.42 3.42v36.578L11.81 2.285C10.918.655 9.694.005 7.74.005h-4.4C1.14.005 0 1.225 0 3.425V55.27c0 2.28 1.14 3.422 3.34 3.422h3.747c2.2 0 3.34-1.14 3.34-3.422V17.846l25.01 38.565c.897 1.63 2.2 2.29 3.992 2.29h4.4c2.19 0 3.42-1.14 3.42-3.42V3.43c0-2.2-1.23-3.42-3.42-3.42M93.8 49.65H69.26V33.242h17.36c2.2 0 3.422-1.14 3.422-3.42V27.54c0-2.2-1.222-3.34-3.42-3.34H69.26V9.047h23.235c2.2 0 3.42-1.14 3.42-3.34v-2.28c0-2.2-1.22-3.422-3.42-3.422H62.172c-2.2 0-3.34 1.22-3.34 3.42V55.27c0 2.28 1.14 3.422 3.34 3.422H93.8c2.198 0 3.42-1.14 3.42-3.422v-2.28c0-2.2-1.222-3.34-3.42-3.34M150.37.005h-41.55c-2.28 0-3.422 1.22-3.422 3.42v2.282c0 2.2 1.14 3.34 3.422 3.34h15.56V55.27c0 2.28 1.14 3.422 3.34 3.422h3.666c2.28 0 3.42-1.14 3.42-3.422V9.047h15.56c2.2 0 3.34-1.14 3.34-3.34v-2.28c0-2.2-1.14-3.422-3.34-3.422m19.644 16.21c0-3.91 3.42-6.516 8.797-6.516 4.48 0 7.658 1.79 10.02 3.17 1.712.89 3.422 1.22 4.644-1.14l1.47-2.69c.98-1.79.74-3.34-1.06-4.65C191.44 2.6 185.82 0 178.97 0c-10.994 0-19.47 6.6-19.47 16.78 0 18.006 26.968 15.725 26.968 26.72 0 3.913-3.26 6.6-8.635 6.6-5.7 0-9.856-2.93-11.73-4.234-2.036-1.14-3.42-1.06-4.725.73l-1.79 2.607c-1.63 2.2-.816 3.583.486 4.723 2.854 2.2 9.533 5.867 17.76 5.867 12.14 0 19.145-7.74 19.145-17.108 0-18.414-26.97-15.644-26.97-26.48m82.6 29.49c-1.3-1.87-2.93-1.87-4.72-.57-2.69 1.957-7.66 5.05-14.18 5.05-12.47 0-19.47-9.855-19.47-20.69 0-10.67 6.76-19.88 19.39-19.88 5.95 0 10.51 2.447 13.03 4.077 1.95 1.224 3.5 1.06 4.64-.813l1.46-2.37c1.14-1.79 1.06-3.42-.65-4.73-3.1-2.2-9.45-5.79-18.907-5.79-17.5.012-29.8 12.882-29.8 29.662 0 17.025 11.73 30.14 29.9 30.14 10.262 0 17.19-4.56 20.445-7.17 1.63-1.383 1.71-3.094.49-4.723l-1.63-2.2M372.04.007h-3.75c-2.2 0-3.34 1.22-3.34 3.42v34.54c0 7.82-5.13 12.22-12.87 12.22-7.74 0-12.79-4.4-12.79-12.22V3.428c0-2.2-1.14-3.42-3.422-3.42h-3.665c-2.2 0-3.34 1.22-3.34 3.42V38.05c0 12.952 9.286 21.75 23.298 21.75 13.93 0 23.22-8.798 23.22-21.75V3.425c0-2.2-1.14-3.42-3.34-3.42m56.06 0h-41.55c-2.28 0-3.42 1.22-3.42 3.42v2.282c0 2.2 1.14 3.34 3.42 3.34h15.56V55.27c0 2.28 1.14 3.422 3.34 3.422h3.67c2.29 0 3.43-1.14 3.43-3.422V9.047h15.56c2.2 0 3.34-1.14 3.34-3.34v-2.28c0-2.2-1.14-3.422-3.34-3.422"/>
  <path fill="#80cc28" d="M289.56.005h-22.616c-2.66 0-4.814 2.155-4.814 4.813 0 2.66 2.155 4.814 4.814 4.814h21.558c-.086.008-.175.023-.262.032.436-.028.875-.047 1.32-.047 11.08 0 19.065 8.636 19.065 19.878 0 11.73-7.984 20.692-19.064 20.692-11.07 0-19.06-8.96-19.06-20.692 0-7.01 3.11-13.005 8.13-16.526-.07.05-.15.09-.22.15h-6.77c-2.19 0-4.02-1.48-4.6-3.49-4.65 5.2-7.35 12.14-7.35 19.86 0 17.02 12.38 30.3 29.898 30.3 17.52 0 29.9-13.28 29.9-30.31 0-16.54-12.38-29.49-29.9-29.49"/>
  <path fill="#80cc28" d="M267.022 9.632l-.002.002s.003 0 .004-.002"/>
  <path fill="#6a9e47" d="M271.624 13.12h6.775c.07-.053.15-.1.22-.15 2.71-1.9 5.97-3.075 9.61-3.306.08-.01.17-.024.26-.033h-21.48v.01l-.01.01c.58 2.01 2.41 3.49 4.6 3.49"/>
  <path fill="#474a50" d="M426.556 54.325h.45c.524 0 .95-.174.95-.6 0-.375-.276-.626-.875-.626-.25 0-.42.02-.52.05v1.17zm-.026 2.326h-.95v-4.1c.375-.07.9-.12 1.575-.12.775 0 1.126.13 1.426.3.23.18.4.5.4.9 0 .45-.35.8-.85.95v.05c.4.15.63.45.75 1 .13.63.2.88.3 1.03h-1.02c-.12-.15-.2-.52-.32-1-.07-.45-.32-.65-.85-.65h-.45v1.65zm-2.525-2.15c0 1.83 1.35 3.28 3.2 3.28 1.8 0 3.126-1.45 3.126-3.25 0-1.82-1.32-3.3-3.15-3.3-1.82 0-3.17 1.48-3.17 3.28zm7.376 0c0 2.33-1.82 4.15-4.2 4.15-2.35 0-4.22-1.82-4.22-4.15 0-2.27 1.88-4.1 4.23-4.1 2.38 0 4.2 1.83 4.2 4.1"/>
</svg>
