<svg xmlns="http://www.w3.org/2000/svg" width="236" height="54"><g fill="none" fill-rule="nonzero"><path fill="#716E6F" d="M145.77 24.922v-1.8h-2.247V20.31l-.08.02-2.107.646-.04.01v2.138h-3.33V21.93c0-.557.119-.975.367-1.253.239-.279.587-.418 1.024-.418.318 0 .647.08.975.219l.08.04v-1.9l-.04-.01c-.309-.108-.726-.168-1.243-.168-.657 0-1.253.14-1.77.427a3 3 0 0 0-1.213 1.203c-.288.517-.427 1.104-.427 1.76v1.293h-1.551v1.809h1.56v7.616h2.247v-7.616h3.33v4.842c0 1.988.945 3.002 2.795 3.002.308 0 .626-.04.954-.11.338-.069.557-.138.696-.218l.03-.02v-1.82l-.09.06c-.119.08-.278.15-.447.2-.179.049-.328.079-.447.079-.438 0-.756-.12-.955-.348-.199-.229-.308-.636-.308-1.213v-4.444zm-16.613 6.015q-1.223 0-1.909-.805-.686-.806-.686-2.267c0-.994.229-1.78.686-2.327.457-.536 1.094-.815 1.889-.815.775 0 1.402.259 1.84.776.447.517.675 1.292.675 2.306 0 1.024-.209 1.81-.636 2.337-.408.526-1.034.795-1.86.795m.1-8.043c-1.55 0-2.783.457-3.668 1.352-.875.895-1.323 2.138-1.323 3.698 0 1.472.438 2.665 1.293 3.53s2.028 1.302 3.47 1.302c1.5 0 2.714-.457 3.599-1.372.874-.905 1.322-2.137 1.322-3.658 0-1.502-.418-2.695-1.243-3.55-.825-.865-1.978-1.302-3.45-1.302m-8.61 0c-1.053 0-1.928.268-2.594.805-.676.537-1.014 1.243-1.014 2.088 0 .437.07.835.218 1.173.15.338.368.626.666.875s.756.497 1.363.766c.507.208.894.387 1.133.526.238.14.408.279.497.408.09.13.14.308.14.537 0 .636-.478.944-1.452.944-.358 0-.776-.08-1.223-.228a4.5 4.5 0 0 1-1.253-.636l-.09-.07v2.157l.03.02c.319.15.716.269 1.193.368.468.1.895.15 1.273.15 1.143 0 2.068-.27 2.744-.806.676-.537 1.024-1.263 1.024-2.138 0-.636-.189-1.183-.547-1.62s-.994-.835-1.869-1.193c-.696-.279-1.143-.517-1.332-.696-.179-.17-.268-.418-.268-.726 0-.278.109-.497.338-.676.228-.179.556-.268.954-.268q.567 0 1.133.179c.378.119.716.268.995.457l.089.06v-2.048l-.04-.02a4.6 4.6 0 0 0-1.004-.279 6.7 6.7 0 0 0-1.103-.11m-9.455 8.044q-1.223 0-1.91-.805-.685-.806-.685-2.267c0-.994.229-1.78.686-2.327.447-.536 1.084-.815 1.889-.815.775 0 1.402.259 1.84.776.447.517.675 1.292.675 2.306 0 1.024-.209 1.81-.636 2.337-.418.526-1.044.795-1.86.795m.1-8.043c-1.55 0-2.784.457-3.668 1.352-.875.895-1.323 2.138-1.323 3.698 0 1.472.438 2.665 1.293 3.53s2.028 1.302 3.47 1.302c1.5 0 2.714-.457 3.599-1.372.874-.905 1.322-2.137 1.322-3.658 0-1.502-.418-2.695-1.243-3.55-.825-.865-1.988-1.302-3.45-1.302m-8.4 1.859v-1.63h-2.218v9.425h2.217v-4.822c0-.816.19-1.492.557-1.999.358-.507.845-.755 1.432-.755.198 0 .427.03.666.1.238.069.417.138.517.208l.09.07v-2.237l-.04-.02c-.21-.09-.498-.13-.866-.13a2.3 2.3 0 0 0-1.48.527c-.379.309-.647.736-.856 1.263zm-6.185-1.86c-1.014 0-1.918.22-2.694.647a4.33 4.33 0 0 0-1.78 1.83c-.407.775-.606 1.69-.606 2.704 0 .894.199 1.71.597 2.425a4.2 4.2 0 0 0 1.66 1.68c.706.388 1.521.587 2.426.587q1.583 0 2.674-.626l.03-.02v-2.028l-.09.07a4.3 4.3 0 0 1-1.083.566 3.2 3.2 0 0 1-1.064.209c-.865 0-1.57-.269-2.078-.805-.507-.537-.765-1.293-.765-2.237 0-.955.268-1.73.795-2.297s1.223-.855 2.078-.855c.726 0 1.441.249 2.107.736l.09.07V23.41l-.03-.02c-.248-.14-.596-.258-1.024-.348a5 5 0 0 0-1.243-.15m-6.611.23h-2.217v9.425h2.217zm-1.084-4.017c-.368 0-.686.12-.944.368a1.24 1.24 0 0 0-.398.924c0 .358.13.667.388.905.258.239.577.358.944.358.368 0 .696-.12.955-.358.258-.238.397-.547.397-.905 0-.357-.129-.666-.387-.914a1.3 1.3 0 0 0-.955-.378m-5.527 3.32v10.122h2.266V19.394H82.62l-3.977 9.763-3.858-9.763h-3.26v13.144h2.127V22.427h.07l4.076 10.12h1.6l4.007-10.12z"/><path fill="#F05423" d="M53.43 25.43H43V15h10.43z"/><path fill="#84C441" d="M64.942 25.43h-10.43V15h10.43z"/><path fill="#2DABE2" d="M53.43 36.942H43v-10.43h10.43z"/><path fill="#F9BC15" d="M64.942 36.942h-10.43v-10.43h10.43z"/><path fill="#343741" d="M157.136 35.136V16H156v19.136zm11.682-3.59q1.13 0 2.017-.432a3.5 3.5 0 0 0 1.4-1.185q.516-.753.515-1.702 0-1.108-.62-1.86-.618-.753-1.72-.935v-.091q.88-.267 1.394-.96t.514-1.676q0-.825-.415-1.535a3.1 3.1 0 0 0-1.187-1.144q-.773-.435-1.852-.435a4.35 4.35 0 0 0-1.844.386 3.5 3.5 0 0 0-1.355 1.077q-.518.69-.551 1.605h1.363q.029-.58.364-.991t.866-.631a2.95 2.95 0 0 1 1.134-.219q.966 0 1.54.537.573.536.574 1.418 0 .92-.654 1.471-.653.551-1.687.551h-.932v1.25h.932q1.323 0 2.037.608.713.608.713 1.574 0 .927-.725 1.497-.724.571-1.844.571-1.011 0-1.724-.488-.713-.49-.776-1.33h-1.431q.044.915.56 1.605.513.69 1.391 1.077.879.387 2.003.386m10.114 0q1.176.011 2.048-.515a3.66 3.66 0 0 0 1.355-1.42 4.1 4.1 0 0 0 .483-1.975q0-1.124-.5-1.997a3.7 3.7 0 0 0-1.33-1.37 3.5 3.5 0 0 0-1.829-.496q-.898 0-1.642.412a3.45 3.45 0 0 0-1.222 1.133h-.09q.005-2.142.78-3.32.776-1.18 2.129-1.18.92 0 1.477.52t.75 1.321h1.386q-.21-1.375-1.179-2.233t-2.434-.858q-1.966 0-3.097 1.676-1.13 1.676-1.13 4.779 0 1.612.357 2.679.358 1.065.95 1.687.59.623 1.306.884t1.432.272m0-1.25q-.728 0-1.298-.37t-.898-.971a2.68 2.68 0 0 1 .02-2.594q.34-.6.92-.969a2.37 2.37 0 0 1 1.301-.37q.717 0 1.276.353.56.352.88.946.322.594.322 1.315 0 .74-.333 1.341a2.6 2.6 0 0 1-.903.96q-.57.359-1.287.358m9.75 1.25q1.108 0 1.977-.503a3.65 3.65 0 0 0 1.367-1.375q.497-.873.497-1.986 0-1.13-.48-2.012a3.6 3.6 0 0 0-1.319-1.389q-.837-.508-1.906-.508-.585 0-1.125.187t-.898.472h-.068l.41-3.432H192v-1.25h-6.045l-.705 5.727 1.318.16q.364-.262.926-.43.562-.166 1.097-.162.744.006 1.324.353.579.345.912.946.332.6.332 1.36 0 .744-.32 1.333-.322.588-.882.923a2.43 2.43 0 0 1-1.275.335q-.892.001-1.531-.514a1.86 1.86 0 0 1-.72-1.304h-1.363q.046.887.529 1.58t1.284 1.09 1.8.398"/></g></svg>