<svg xmlns="http://www.w3.org/2000/svg" width="662.846" height="94.146" version="1.0"><path d="M980.651 771.7h40.652l-21.495-34.582-39.452 62.527h-17.955l47.986-75.109c2.087-3.034 5.564-4.868 9.42-4.868 3.73 0 7.208 1.77 9.23 4.742l48.176 75.235h-17.955l-8.472-13.972h-41.158zm186.506 13.973v-65.246h-15.236v71.631c0 1.96.758 3.857 2.212 5.31 1.454 1.455 3.414 2.277 5.564 2.277h69.482l8.977-13.972zM915.09 773.976c14.795 0 26.807-11.949 26.807-26.743s-12.012-26.806-26.807-26.806h-66.655v79.218h15.23v-65.246h50.414c7.08 0 12.77 5.753 12.77 12.834s-5.69 12.834-12.77 12.834l-42.953-.063 45.481 39.64h22.129l-30.6-25.668zm-160.414 25.669c-21.869 0-39.615-17.703-39.615-39.578s17.746-39.64 39.615-39.64h46.045c21.875 0 39.609 17.765 39.609 39.64s-17.734 39.578-39.61 39.578zm45.02-13.972c14.169 0 25.644-11.444 25.644-25.606 0-14.161-11.475-25.668-25.643-25.668h-44.003c-14.162 0-25.643 11.507-25.643 25.668 0 14.162 11.481 25.606 25.643 25.606zm289.32 13.972c-21.876 0-39.641-17.703-39.641-39.578s17.765-39.64 39.64-39.64h54.688l-8.915 13.972h-44.761c-14.162 0-25.668 11.507-25.668 25.668 0 14.162 11.506 25.606 25.668 25.606h54.94l-8.977 13.972zm186.316-13.972c-11.696 0-21.622-7.84-24.657-18.651h65.12l8.977-13.972h-74.097c3.035-10.748 12.96-18.65 24.657-18.65h44.698l9.04-13.973h-54.75c-21.875 0-39.64 17.765-39.64 39.64s17.765 39.578 39.64 39.578h46.975l8.977-13.972zM1337.226 728.836a6.934 6.934 0 0 1 6.954-6.955c3.92 0 7.018 3.098 7.018 6.955 0 3.92-3.098 7.017-7.018 7.017-3.857 0-6.954-3.098-6.954-7.017m6.954 8.977a8.904 8.904 0 0 0 8.914-8.914 8.904 8.904 0 0 0-8.914-8.915c-4.868 0-8.851 3.983-8.851 8.915s3.983 8.914 8.851 8.914m-.822-14.225c1.39 0 1.96.063 2.592.316 1.77.57 1.96 2.15 1.96 2.782 0 .126 0 .443-.126.822-.064.38-.316 1.138-1.202 1.707-.126.063-.19.126-.442.253l2.276 4.11h-2.213l-2.023-3.794h-1.39v3.793h-1.96v-9.989zm.696 4.552c.632-.063 1.264-.063 1.643-.632.19-.253.254-.506.254-.885 0-.506-.317-.949-.76-1.201-.442-.19-.885-.19-1.833-.19h-.569v2.908z" style="fill:#f80000;fill-rule:nonzero;stroke:none" transform="translate(-702.654 -712.584)"/></svg>