<?xml version="1.0" encoding="UTF-8"?>
<svg width="236px" height="54px" viewBox="0 0 236 54" version="1.1" xmlns="http://www.w3.org/2000/svg" xmlns:xlink="http://www.w3.org/1999/xlink">
    <title>logo-integrations-Desktop HD</title>
    <g id="Desktop-HD" stroke="none" stroke-width="1" fill="none" fill-rule="evenodd">
        <g id="logo-palo-alto-networks" transform="translate(35.000000, 12.000000)" fill-rule="nonzero">
            <path d="M70.256295,5.53712389 C68.1242891,5.53712389 65.9094395,6.11824779 63.1682891,7.58628614 L64.6911504,11.3520177 C67.0716873,10.0228643 69.0380059,9.44174041 70.4780236,9.44174041 C72.1117493,9.44174041 72.8317581,10.050885 72.8317581,10.8537375 L72.8317581,10.9085605 C72.8317581,11.462882 72.3883009,11.7674543 71.3088968,11.8783186 L69.4266401,12.0720265 C64.7191711,12.5703068 62.7808732,14.619469 62.7808732,17.4434631 L62.7808732,17.6371711 C62.7808732,20.3234985 64.9957227,22.4274838 68.1242891,22.4274838 C70.1844159,22.4274838 71.9740826,21.5576254 73.0620147,20.0225811 L73.412882,22.1509322 L77.6768938,22.1509322 L77.6768938,12.4874631 C77.6768938,7.91887906 75.0466077,5.53712389 70.256295,5.53712389 M69.8408584,18.7445959 C68.263174,18.7445959 67.5151445,18.1354513 67.5151445,17.1937139 L67.5151445,17.1388909 C67.5151445,16.3080177 67.9854041,15.6988732 69.7019735,15.4503422 L70.4500029,15.3394779 C71.5428083,15.1871917 72.2140855,14.986174 72.8317581,14.6121593 L72.8317581,15.8377581 C72.8317581,17.6932124 71.668292,18.7445959 69.8408584,18.7445959" id="Shape" fill="#000000"/>
            <polygon id="Path" fill="#F04E23" points="30.1636195 5.6479882 24.7093392 0.193707965 19.255059 5.6479882 21.9681888 8.36233628 8.29045723 22.0400678 13.7447375 27.4943481 19.1990177 22.0400678 16.4858879 19.3269381"/>
            <polygon id="Rectangle" fill="#F04E23" transform="translate(9.687503, 9.759859) rotate(-45.000000) translate(-9.687503, -9.759859) " points="0.0155982856 5.90279246 19.3594069 5.90279246 19.3594069 13.616925 0.0155982856 13.616925"/>
            <polygon id="Rectangle" fill="#F04E23" transform="translate(28.765038, 17.929031) rotate(-45.000000) translate(-28.765038, -17.929031) " points="19.0931336 14.0719649 38.4369421 14.0719649 38.4369421 21.7860974 19.0931336 21.7860974"/>
            <rect id="Rectangle" fill="#000000" x="80.4460649" y="0" width="4.84513569" height="22.1509322"/>
            <path d="M54.6402655,5.53712389 C52.4375988,5.53712389 50.6686431,6.51175516 49.6952301,8.03827139 L49.3248702,5.81367552 L45.0608584,5.81367552 L45.0608584,27.6868378 L49.9059941,27.6868378 L49.9059941,20.1054248 C50.8282389,21.5271681 52.5728289,22.4262655 54.6402655,22.4262655 C58.5168614,22.4262655 61.6734484,18.9931268 61.6734484,14.2576372 L61.6734484,13.7033156 C61.6734484,8.97148083 58.5168614,5.53712389 54.6402655,5.53712389 M56.6894277,14.1211888 C56.6894277,16.61259 55.388295,18.4132212 53.2282684,18.4132212 C51.0682419,18.4132212 49.7671091,16.6138083 49.7671091,14.1211888 L49.7671091,13.8446372 C49.7671091,11.3520177 51.0682419,9.55260472 53.2282684,9.55260472 C55.388295,9.55260472 56.6894277,11.3520177 56.6894277,13.8446372 L56.6894277,14.1211888 Z" id="Shape" fill="#000000"/>
            <path d="M150.663375,5.53712389 C145.707375,5.53712389 142.218195,8.97026254 142.218195,13.7057522 L142.218195,14.2600737 C142.218195,18.9943451 145.707375,22.4287021 150.663375,22.4287021 C155.619375,22.4287021 159.108555,18.9955634 159.108555,14.2600737 L159.108555,13.7057522 C159.108555,8.97148083 155.619375,5.53712389 150.663375,5.53712389 M154.124534,14.1211888 C154.124534,16.61259 152.823401,18.4132212 150.663375,18.4132212 C148.503348,18.4132212 147.202215,16.6138083 147.202215,14.1211888 L147.202215,13.8446372 C147.202215,11.3520177 148.503348,9.55260472 150.663375,9.55260472 C152.823401,9.55260472 154.124534,11.3520177 154.124534,13.8446372 L154.124534,14.1211888 Z" id="Shape" fill="#000000"/>
            <path d="M163.677139,6.53490265 L163.677139,6.452059 C163.677139,5.98179941 163.317743,5.64920649 162.680578,5.64920649 L161.573153,5.64920649 L161.573153,8.19664897 L162.099454,8.19664897 L162.099454,7.33775516 L162.684233,7.33775516 L163.124035,8.19664897 L163.705159,8.19664897 L163.164239,7.18912389 C163.493177,7.0880059 163.677139,6.8419115 163.677139,6.53490265 M162.098236,6.11946608 L162.67936,6.11946608 C163.011953,6.11946608 163.149619,6.23033038 163.149619,6.48007965 L163.149619,6.50810029 C163.149619,6.72982891 163.010735,6.86749558 162.67936,6.86749558 L162.098236,6.86749558 L162.098236,6.11946608 Z" id="Shape" fill="#000000"/>
            <path d="M162.569714,4.29203245 C161.074873,4.29203245 159.939428,5.42747788 159.939428,6.92231858 C159.939428,8.41715929 161.074873,9.55260472 162.569714,9.55260472 C164.064555,9.55260472 165.2,8.41715929 165.2,6.92231858 C165.2,5.42747788 164.064555,4.29203245 162.569714,4.29203245 M162.569714,9.19199115 C161.268581,9.19199115 160.326844,8.25025369 160.326844,6.92110029 C160.326844,5.5919469 161.268581,4.65020944 162.569714,4.65020944 C163.870847,4.65020944 164.812584,5.5919469 164.812584,6.92110029 C164.812584,8.25025369 163.870847,9.19199115 162.569714,9.19199115" id="Shape" fill="#000000"/>
            <rect id="Rectangle" fill="#000000" x="123.112985" y="0" width="4.84513569" height="22.1509322"/>
            <path d="M137.511944,18.4132212 C136.099947,18.4132212 135.573646,17.721233 135.573646,16.2263923 L135.573646,9.55260472 L141.277676,9.55260472 L141.277676,5.81489381 L135.573646,5.81489381 L135.573646,2.0759646 L130.72851,2.79597345 L130.72851,16.6954336 C130.72851,20.4891858 132.666808,22.4274838 136.543404,22.4274838 C138.259973,22.4274838 140.281115,21.9011829 141.942861,20.9594454 L140.558885,17.5263068 C139.587909,18.0526077 138.231953,18.4132212 137.511944,18.4132212" id="Path" fill="#000000"/>
            <path d="M112.924434,5.53712389 C110.792428,5.53712389 108.577578,6.11824779 105.836428,7.58628614 L107.359289,11.3520177 C109.739826,10.0228643 111.706145,9.44174041 113.146162,9.44174041 C114.779888,9.44174041 115.499897,10.050885 115.499897,10.8537375 L115.499897,10.9085605 C115.499897,11.462882 115.05644,11.7674543 113.977035,11.8783186 L112.094779,12.0720265 C107.38731,12.5703068 105.449012,14.619469 105.449012,17.4434631 L105.449012,17.6371711 C105.449012,20.3234985 107.663861,22.4274838 110.792428,22.4274838 C112.851336,22.4274838 114.642221,21.5576254 115.730153,20.0225811 L116.081021,22.1509322 L120.345032,22.1509322 L120.345032,12.4874631 C120.345032,7.91887906 117.714746,5.53712389 112.924434,5.53712389 M112.508997,18.7445959 C110.930094,18.7445959 110.183283,18.1354513 110.183283,17.1937139 L110.183283,17.1388909 C110.183283,16.3080177 110.653543,15.6988732 112.370112,15.4503422 L113.118142,15.3394779 C114.210947,15.1871917 114.882224,14.986174 115.498678,14.6121593 L115.498678,15.8377581 C115.498678,17.6932124 114.336431,18.7445959 112.508997,18.7445959" id="Shape" fill="#000000"/>
            <path d="M95.8964071,5.53712389 C90.9404071,5.53712389 87.4512271,8.97026254 87.4512271,13.7057522 L87.4512271,14.2600737 C87.4512271,18.9943451 90.9404071,22.4287021 95.8964071,22.4287021 C100.852407,22.4287021 104.341587,18.9955634 104.341587,14.2600737 L104.341587,13.7057522 C104.340369,8.97148083 100.852407,5.53712389 95.8964071,5.53712389 M99.3563481,14.1211888 C99.3563481,16.61259 98.0552153,18.4132212 95.8951888,18.4132212 C93.7351622,18.4132212 92.4340295,16.6138083 92.4340295,14.1211888 L92.4340295,13.8446372 C92.4340295,11.3520177 93.7351622,9.55260472 95.8951888,9.55260472 C98.0552153,9.55260472 99.3563481,11.3520177 99.3563481,13.8446372 L99.3563481,14.1211888 Z" id="Shape" fill="#000000"/>
            <polygon id="Path" fill="#000000" points="115.728935 26.0786962 116.970372 26.0786962 118.684504 28.3386224 118.70156 28.3386224 118.70156 26.0786962 119.840661 26.0786962 119.840661 30.0637198 118.639428 30.0637198 116.885091 27.7465339 116.868035 27.7465339 116.868035 30.0637198 115.728935 30.0637198"/>
            <polygon id="Path" fill="#000000" points="121.354994 26.0786962 124.839301 26.0786962 124.885596 27.0460177 122.545263 27.0460177 122.545263 27.5930295 124.383661 27.5930295 124.383661 28.4750708 122.545263 28.4750708 122.545263 29.0963982 124.95382 29.0963982 124.907525 30.0637198 121.354994 30.0637198"/>
            <polygon id="Path" fill="#000000" points="127.379434 27.1032773 125.984493 27.1032773 126.029569 26.0786962 129.929313 26.0786962 129.975608 27.1032773 128.580667 27.1032773 128.580667 30.0637198 127.379434 30.0637198"/>
            <polygon id="Path" fill="#000000" points="130.938056 26.0786962 132.212386 26.0786962 132.861735 28.8454307 132.925086 28.8454307 133.766923 26.0786962 134.935263 26.0786962 135.760044 28.8454307 135.823395 28.8454307 136.46056 26.0786962 137.67885 26.0786962 136.631121 30.0637198 135.065619 30.0637198 134.337083 27.6612537 134.302971 27.6612537 133.562251 30.0637198 131.990658 30.0637198"/>
            <path d="M138.556018,28.0718171 C138.556018,26.7731209 139.438059,25.9593038 140.833,25.9593038 C142.227941,25.9593038 143.111201,26.7731209 143.111201,28.0718171 C143.111201,29.3705133 142.229159,30.1843304 140.833,30.1843304 C139.438059,30.1843304 138.556018,29.369295 138.556018,28.0718171 M141.920932,28.0718171 C141.920932,27.3834838 141.522552,26.9729204 140.833,26.9729204 C140.143448,26.9729204 139.745068,27.3834838 139.745068,28.0718171 C139.745068,28.7613687 140.143448,29.1707139 140.826909,29.1707139 C141.51646,29.1707139 141.920932,28.7601504 141.920932,28.0718171" id="Shape" fill="#000000"/>
            <path d="M144.403805,26.0786962 L146.727083,26.0786962 C147.785776,26.0786962 148.304767,26.579413 148.304767,27.5077493 C148.304767,28.1449145 148.042835,28.5786254 147.529935,28.7832979 L148.475327,30.0649381 L147.12059,30.0649381 L146.385962,29.0172094 L145.600165,29.0172094 L145.600165,30.0649381 L144.403805,30.0649381 L144.403805,26.0786962 L144.403805,26.0786962 Z M146.57236,28.0827817 C146.97074,28.0827817 147.11328,27.8610531 147.11328,27.5589174 C147.11328,27.2567817 146.97074,27.0411445 146.57236,27.0411445 L145.598947,27.0411445 L145.598947,28.0827817 L146.57236,28.0827817 Z" id="Shape" fill="#000000"/>
            <polygon id="Path" fill="#000000" points="149.858086 26.0786962 151.053227 26.0786962 151.053227 27.5479528 151.542979 27.5479528 152.7101 26.0786962 154.053873 26.0786962 154.059965 26.0835693 152.534667 27.99141 154.145245 30.0588466 154.139153 30.0637198 152.744212 30.0637198 151.538106 28.5323304 151.053227 28.5323304 151.053227 30.0637198 149.858086 30.0637198"/>
            <path d="M155.061398,29.8017876 L155.061398,28.7089823 L155.06749,28.7089823 C155.733894,29.0452301 156.383242,29.2096991 156.946091,29.2096991 C157.373711,29.2096991 157.589348,29.1073628 157.589348,28.9075634 C157.589348,28.707764 157.446808,28.6565959 156.592788,28.5201475 C155.659578,28.3727345 155.038251,28.092528 155.038251,27.2896755 C155.038251,26.5440826 155.69369,25.9690501 156.974112,25.9690501 C157.487012,25.9690501 158.021841,26.0774779 158.517684,26.2882419 L158.517684,27.3700826 L158.511593,27.376174 C158.038897,27.1032773 157.401732,26.9314985 156.888832,26.9314985 C156.433192,26.9314985 156.251667,27.0399263 156.251667,27.2214513 C156.251667,27.4553628 156.530655,27.477292 157.231171,27.5979027 C158.164381,27.7574985 158.785708,28.0194307 158.785708,28.8624867 C158.785708,29.516708 158.295956,30.1721475 156.89005,30.1721475 C156.195625,30.1721475 155.642522,30.0296077 155.061398,29.8017876" id="Path" fill="#000000"/>
        </g>
    </g>
</svg>