<svg xmlns="http://www.w3.org/2000/svg" width="236" height="54"><g fill="none" fill-rule="nonzero"><path fill="#000" d="M105.256 17.537c-2.132 0-4.347.581-7.088 2.05l1.523 3.765c2.38-1.33 4.347-1.91 5.787-1.91 1.634 0 2.354.609 2.354 1.412v.055c0 .554-.444.858-1.523.97l-1.882.193c-4.708.498-6.646 2.547-6.646 5.371v.194c0 2.686 2.215 4.79 5.343 4.79 2.06 0 3.85-.87 4.938-2.404l.35 2.128h4.265v-9.664c0-4.568-2.63-6.95-7.42-6.95m-.416 13.208c-1.578 0-2.326-.61-2.326-1.551v-.055c0-.831.47-1.44 2.187-1.689l.748-.11c1.093-.153 1.764-.354 2.382-.728v1.226c0 1.855-1.164 2.907-2.991 2.907"/><path fill="#F04E23" d="m65.164 17.648-5.455-5.454-5.454 5.454 2.713 2.714L43.29 34.04l5.455 5.454 5.454-5.454-2.713-2.713zM35.121 25.872 48.8 12.193l5.455 5.455-13.678 13.678zM54.199 34.04l13.678-13.677 5.454 5.454-13.678 13.678z"/><path fill="#000" d="M115.446 12h4.845v22.151h-4.845zM89.64 17.537c-2.202 0-3.971.975-4.945 2.501l-.37-2.224H80.06v21.873h4.845v-7.582c.922 1.422 2.667 2.321 4.734 2.321 3.877 0 7.033-3.433 7.033-8.168v-.555c0-4.732-3.156-8.166-7.033-8.166m2.05 8.584c0 2.492-1.302 4.292-3.462 4.292s-3.46-1.8-3.46-4.292v-.276c0-2.493 1.3-4.292 3.46-4.292s3.461 1.799 3.461 4.292zM185.663 17.537c-4.956 0-8.445 3.433-8.445 8.169v.554c0 4.734 3.49 8.169 8.445 8.169 4.956 0 8.446-3.433 8.446-8.169v-.554c0-4.735-3.49-8.169-8.446-8.169m3.462 8.584c0 2.492-1.302 4.292-3.462 4.292s-3.46-1.8-3.46-4.292v-.276c0-2.493 1.3-4.292 3.46-4.292s3.462 1.799 3.462 4.292zM198.677 18.535v-.083c0-.47-.36-.803-.996-.803h-1.108v2.548h.526v-.86h.585l.44.86h.581l-.54-1.008c.328-.101.512-.347.512-.654m-1.579-.416h.581c.333 0 .47.111.47.361v.028c0 .222-.138.36-.47.36h-.58z"/><path fill="#000" d="M197.57 16.292c-1.495 0-2.63 1.135-2.63 2.63s1.135 2.63 2.63 2.63 2.63-1.135 2.63-2.63-1.135-2.63-2.63-2.63m0 4.9c-1.301 0-2.243-.942-2.243-2.27 0-1.33.942-2.272 2.243-2.272s2.243.942 2.243 2.271c0 1.33-.942 2.271-2.243 2.271M158.113 12h4.845v22.151h-4.845zM172.512 30.413c-1.412 0-1.938-.692-1.938-2.187v-6.673h5.704v-3.738h-5.704v-3.739l-4.845.72v13.9c0 3.793 1.938 5.731 5.814 5.731 1.717 0 3.738-.526 5.4-1.468l-1.384-3.433c-.971.527-2.327.887-3.047.887M147.924 17.537c-2.132 0-4.346.581-7.088 2.05l1.523 3.765c2.38-1.33 4.347-1.91 5.787-1.91 1.634 0 2.354.609 2.354 1.412v.055c0 .554-.444.858-1.523.97l-1.882.193c-4.708.498-6.646 2.547-6.646 5.371v.194c0 2.686 2.215 4.79 5.343 4.79 2.06 0 3.85-.87 4.938-2.404l.351 2.128h4.264v-9.664c0-4.568-2.63-6.95-7.42-6.95m-.416 13.208c-1.579 0-2.326-.61-2.326-1.551v-.055c0-.831.47-1.44 2.187-1.689l.748-.11c1.093-.153 1.764-.354 2.38-.728v1.226c0 1.855-1.162 2.907-2.989 2.907M130.896 17.537c-4.956 0-8.445 3.433-8.445 8.169v.554c0 4.734 3.49 8.169 8.445 8.169 4.956 0 8.446-3.433 8.446-8.169v-.554c-.002-4.735-3.49-8.169-8.446-8.169m3.46 8.584c0 2.492-1.3 4.292-3.46 4.292s-3.462-1.8-3.462-4.292v-.276c0-2.493 1.301-4.292 3.461-4.292s3.461 1.799 3.461 4.292zM150.729 38.079h1.241l1.715 2.26h.017v-2.26h1.139v3.985h-1.202l-1.754-2.317h-.017v2.317h-1.14zM156.355 38.079h3.484l.047.967h-2.34v.547h1.838v.882h-1.839v.621h2.409l-.046.968h-3.553zM162.38 39.103h-1.396l.046-1.024h3.9l.046 1.024h-1.395v2.96h-1.202zM165.938 38.079h1.274l.65 2.766h.063l.842-2.766h1.168l.825 2.766h.063l.638-2.766h1.218l-1.048 3.985h-1.565l-.729-2.403h-.034l-.74 2.403h-1.572zM173.556 40.072c0-1.299.882-2.113 2.277-2.113s2.278.814 2.278 2.113-.882 2.112-2.278 2.112-2.277-.815-2.277-2.112m3.365 0c0-.689-.398-1.1-1.088-1.1s-1.088.411-1.088 1.1.398 1.099 1.082 1.099c.69 0 1.094-.41 1.094-1.1M179.404 38.079h2.323c1.059 0 1.578.5 1.578 1.429 0 .637-.262 1.07-.775 1.275l.945 1.282h-1.354l-.735-1.048h-.786v1.048h-1.196zm2.168 2.004c.399 0 .541-.222.541-.524s-.142-.518-.54-.518h-.974v1.042zM184.858 38.079h1.195v1.469h.49l1.167-1.47h1.344l.006.006-1.525 1.907 1.61 2.068-.006.005h-1.395l-1.206-1.532h-.485v1.532h-1.195zM190.061 41.802v-1.093h.006c.667.336 1.316.5 1.88.5q.641-.001.642-.301c0-.2-.142-.251-.996-.388-.933-.147-1.555-.427-1.555-1.23 0-.746.656-1.32 1.936-1.32.513 0 1.048.107 1.544.318v1.082l-.006.006a3.5 3.5 0 0 0-1.623-.445c-.456 0-.637.109-.637.29 0 .234.279.256.98.377.932.16 1.554.421 1.554 1.264 0 .655-.49 1.31-1.896 1.31-.694 0-1.247-.142-1.829-.37"/></g></svg>