<svg xmlns="http://www.w3.org/2000/svg" width="32" height="32" viewBox="0 0 32 32">
  <path fill="#F60" d="M30.0833217,13.1972069 L20.2053242,13.1972069 C19.4153744,13.1088631 18.8138529,12.456478 18.8138529,11.6885664 L18.8138529,1.97074666 C18.8138529,1.14167392 18.0963754,0.475697468 17.2194585,0.475697468 L13.7625218,0.475697468 C12.8783577,0.475697468 12.1681275,1.1484696 12.1681275,1.97074666 L12.1681275,11.7905015 C12.1246439,12.5312304 11.4723918,13.1292501 10.6896891,13.1972069 L8.10242197,13.1972069 C7.34146106,13.1088631 6.75443406,12.5108434 6.70370334,11.7905015 L6.70370334,1.97074666 C6.70370334,1.14167392 5.9862259,0.475697468 5.10930903,0.475697468 L1.65237229,0.475697468 C0.768208166,0.475697468 0.0579779748,1.1484696 0.0579779748,1.97074666 L0.0579779748,14.6922561 L0.0579779748,30.3291114 C0.0579779748,31.1581841 0.775455413,31.8241606 1.65237229,31.8241606 L5.10930903,31.8241606 L13.7625218,31.8241606 L17.2194585,31.8241606 L30.0905689,31.8241606 C30.974733,31.8241606 31.6849632,31.1513884 31.6849632,30.3291114 L31.6849632,14.6922561 C31.6777159,13.8631834 30.9674859,13.1972069 30.0833217,13.1972069 Z M25.5320507,23.920787 C25.5320507,24.7498597 24.8145732,25.4158362 23.9376564,25.4158362 L20.4807196,25.4158362 C19.5965554,25.4158362 18.8863253,24.743064 18.8863253,23.920787 L18.8863253,20.8627318 C18.8863253,20.0336591 19.6038027,19.3676826 20.4807196,19.3676826 L23.9376564,19.3676826 C24.8218205,19.3676826 25.5320507,20.0404548 25.5320507,20.8627318 L25.5320507,23.920787 Z"/>
</svg>
