<svg xmlns="http://www.w3.org/2000/svg" xml:space="preserve" width="735.613" height="123.8"><path d="M977.73 793.262c0 74.75 60.49 135.269 135.26 135.269 74.65 0 135.27-60.519 135.27-135.269 0-74.61-60.62-135.293-135.27-135.293-74.77 0-135.26 60.683-135.26 135.293" style="fill:#100f0d;fill-opacity:1;fill-rule:nonzero;stroke:none" transform="matrix(.13333 0 0 -.13333 0 123.8)"/><path d="M0 793.262c0 74.75 60.488 135.269 135.23 135.269 74.77 0 135.258-60.519 135.258-135.269 0-74.61-60.488-135.293-135.258-135.293C60.488 657.969 0 718.652 0 793.262M324.551 793.262c0 74.75 60.527 135.269 135.254 135.269 74.722 0 135.246-60.519 135.246-135.269 0-74.61-60.524-135.293-135.246-135.293-74.727 0-135.254 60.683-135.254 135.293M978.418 464.313c0 74.621 60.582 135.234 135.272 135.234 74.58 0 135.29-60.613 135.29-135.234 0-74.778-60.71-135.243-135.29-135.243-74.69 0-135.272 60.465-135.272 135.243" style="fill:#d2d3d2;fill-opacity:1;fill-rule:nonzero;stroke:none" transform="matrix(.13333 0 0 -.13333 0 123.8)"/><path d="M650.813 793.262c0 74.75 60.613 135.269 135.265 135.269 74.645 0 135.254-60.519 135.254-135.269 0-74.61-60.609-135.293-135.254-135.293-74.652 0-135.265 60.683-135.265 135.293" style="fill:#b41d23;fill-opacity:1;fill-rule:nonzero;stroke:none" transform="matrix(.13333 0 0 -.13333 0 123.8)"/><path d="M650.813 464.313c0 74.621 60.613 135.234 135.265 135.234 74.645 0 135.254-60.613 135.254-135.234 0-74.778-60.609-135.243-135.254-135.243-74.652 0-135.265 60.465-135.265 135.243" style="fill:#f8a62b;fill-opacity:1;fill-rule:nonzero;stroke:none" transform="matrix(.13333 0 0 -.13333 0 123.8)"/><path d="M328.207 135.238c0 74.742 60.484 135.235 135.231 135.235 74.703 0 135.23-60.493 135.23-135.235 0-74.773-60.527-135.234-135.23-135.234-74.747 0-135.231 60.46-135.231 135.234" style="fill:#d2d3d2;fill-opacity:1;fill-rule:nonzero;stroke:none" transform="matrix(.13333 0 0 -.13333 0 123.8)"/><path d="M650.813 135.781c0 74.762 60.613 135.258 135.265 135.258 74.645 0 135.254-60.496 135.254-135.258 0-74.722-60.609-135.23-135.254-135.23-74.652 0-135.265 60.508-135.265 135.23" style="fill:#26853c;fill-opacity:1;fill-rule:nonzero;stroke:none" transform="matrix(.13333 0 0 -.13333 0 123.8)"/><path d="M1866.89 567.223v87.336h-132.75c-164.29 0-209.97 10.027-209.97-159.297V5.512l99.37-.028-.3 561.739zM2268.61 123.141c-30.65-23.078-76.32-23.82-121.63-23.82-50.09 0-84.93 1.855-106.11 23.909l-.1.063h.1c-17.21 17.992-25.37 49.449-25.37 104.082 0 103.617 37.86 111.668 131.48 110.922 70.07-.477 158.37 0 158.37 0l.02-119.492c0-49.594-14.31-78.606-36.76-95.575h.09zm-241.04 534.714v-94.441c239.85 0 282.62-11.074 282.62-135.266h-179.86c-137.3 0-216.45-25.824-216.45-213.265 0-36.602 3.66-66.742 10.63-91.653h.19l-.19-.089c26.7-95.813 101.66-113.73 200.43-113.73 69.74 0 150.92 2.663 182.74 80.144V6.949h101.88V438.75c0 223.383-157.68 219.105-381.99 219.105M2907.12 123.141c-23.7-15.946-57.53-21.965-105.2-21.965-49.3 0-84.99 3.922-110.15 22.054l-.07.036c-37.26 26.789-51.24 84.707-51.24 206.5 0 206.265 30.38 229.851 161.46 229.851 89.51 0 158.71.953 158.6-.242 0-36.664-.39-171.391-.39-229.609 0-116.68-10.25-177.797-53.01-206.536h.13zm53.26 770.125.14-235.504-194.43.093c-214.95 0-235.51-134.824-235.51-326.113 0-82.672 3.83-153.972 25.12-208.512h.03c28.48-73.058 87.93-115.902 210.36-115.902 174.4 0 194.29 91.719 194.29 91.719V6.949h99.82v886.317zM3959.66 657.762h-95.63l-106.24-456.61-152.05 456.61h-82.34l-148.11-456.61-114.07 456.61h-102.49L3318.39 6.949h91.94l151.4 490.528L3714.17 6.949h92.36zM4341.17 123.141c-30.56-23.078-76.2-23.82-121.62-23.82-49.97 0-84.81 1.855-106.07 23.909l-.19.063h.19c-17.23 17.992-25.52 49.449-25.52 104.082 0 103.617 37.92 111.668 131.59 110.922 70.11-.477 158.46 0 158.46 0V218.805c0-49.594-14.26-78.606-36.84-95.575h.15zm-240.98 534.714s-.05-94.32 0-94.441c239.81 0 282.71-11.074 282.71-135.266h-180.09c-137.19 0-216.36-25.824-216.36-213.265 0-36.602 3.69-66.742 10.65-91.653h.1l-.1-.089c26.66-95.813 101.57-113.73 200.47-113.73 69.67 0 151.01 2.663 182.61 80.144V6.949h102.04V438.75c0 223.383-157.66 219.105-382.03 219.105M4931.85 567.223v87.336h-132.77c-164.33 0-209.94 10.027-209.94-159.297V5.512l99.34-.028-.3 561.739zM5079.82 414.504c7.96 55.437 45.37 164.871 180.09 164.871 136.17 0 155.48-105.336 157.79-164.871zM5254 667.578c-262.8 0-347.78-351.676-221.12-544.348l.57-.148h-.57C5082.18 47.984 5163.45-2.992 5278.86.25c112.58 3.016 191.24 38.184 224.85 53.387 0 0 .4 104.41 0 104.742-16.74-10.57-44.96-23.742-79.15-35.055h-.2c-74.73-24.61-177.95-40.164-252.05-.094h-.23c-54.64 29.583-93.46 89.293-93.46 198.098h435.24s51.76 346.25-259.86 346.25" style="fill:#100f0d;fill-opacity:1;fill-rule:evenodd;stroke:none" transform="matrix(.13333 0 0 -.13333 0 123.8)"/></svg>