<svg id="Layer_1" data-name="Layer 1" xmlns="http://www.w3.org/2000/svg" viewBox="0 0 154 45"><defs><style>.cls-1{fill:#666;}.cls-2{fill:#ff791a;}</style></defs><path class="cls-1" d="M32.19,12.31a7.28,7.28,0,0,1,5.33,2.12,7.08,7.08,0,0,1,2.15,5.23A7.32,7.32,0,0,1,32.31,27a7.14,7.14,0,0,1-5.26-2.14,7,7,0,0,1-2.15-5.16,7.46,7.46,0,0,1,1-3.74,7.11,7.11,0,0,1,2.66-2.7A7.19,7.19,0,0,1,32.19,12.31Zm.07,1.36a6,6,0,0,0-5.13,3,6.06,6.06,0,0,0-.78,3.06,5.89,5.89,0,0,0,5.91,5.93,6,6,0,0,0,3-.79,5.67,5.67,0,0,0,2.16-2.16,6.07,6.07,0,0,0,.78-3.05,5.94,5.94,0,0,0-.78-3,5.82,5.82,0,0,0-2.19-2.16A5.92,5.92,0,0,0,32.26,13.67Z"/><path class="cls-1" d="M43.46,27.14V12.26h.33l9.9,11.41V12.26h1.47V27.14h-.34L45,15.87V27.14Z"/><path class="cls-1" d="M59.19,12.25h1.39V27.11H59.19Z"/><path class="cls-1" d="M109.53,12.26h-2.85l-4,10.74,8.07,0,1.55,4h2.93Zm-3.39,9,2-5.07,2,5.07Z"/><path class="cls-1" d="M118.25,12.26h2.82V24.35h5.6V27h-8.42Z"/><path class="cls-1" d="M129.66,12.26h2.81V24.35h5.61V27h-8.42Z"/><path class="cls-1" d="M77.17,23.53a6.28,6.28,0,0,1-4.87,2.23A6.14,6.14,0,0,1,67.84,24a5.78,5.78,0,0,1-1.76-4.3,5.94,5.94,0,0,1,.79-3.06,5.81,5.81,0,0,1,2.22-2.18,6.26,6.26,0,0,1,3.12-.81A6.48,6.48,0,0,1,75,14.3,6.13,6.13,0,0,1,77.17,16v-1.9a8,8,0,0,0-1.41-1,8,8,0,0,0-3.57-.78,7.48,7.48,0,0,0-5.43,2.12,7,7,0,0,0-2.17,5.2,7.46,7.46,0,0,0,1.79,5,7.33,7.33,0,0,0,5.83,2.46,8.21,8.21,0,0,0,3.52-.74,8,8,0,0,0,1.44-1Z"/><path class="cls-1" d="M17.31,19c-3.35-.69-4-1.56-4-2.93v0c0-1.46,1.38-2.51,3.29-2.51a5.91,5.91,0,0,1,4.11,1.55l.12.1,0,0V13.49a7.12,7.12,0,0,0-4.22-1.23C14,12.26,12,13.92,12,16.12v0c0,2.22,1.41,3.41,4.87,4.11,3.25.65,3.87,1.51,3.87,2.85v0c0,1.56-1.41,2.65-3.42,2.65a6.65,6.65,0,0,1-5-2l-.11-.11,0,0v1.7a8,8,0,0,0,5,1.68c2.84,0,4.82-1.64,4.82-4v0C22.06,20.87,20.64,19.67,17.31,19Z"/><polygon class="cls-1" points="98.42 12.26 95.05 22.31 94.97 22.53 94.9 22.31 91.58 12.22 88.87 12.22 85.54 22.31 85.47 22.53 85.4 22.31 82.02 12.26 78.67 12.26 84.01 27.1 86.76 27.1 90.11 17.42 90.18 17.22 90.25 17.42 93.6 27.1 96.35 27.1 101.69 12.26 98.42 12.26"/><path class="cls-1" d="M140.34,15.06A1.68,1.68,0,1,1,142,13.39,1.67,1.67,0,0,1,140.34,15.06Zm0-3.13a1.46,1.46,0,1,0,1.46,1.46A1.46,1.46,0,0,0,140.34,11.93Zm.41,2.44-.46-.77h-.19v.77h-.51v-2h.88a.6.6,0,0,1,.69.61.56.56,0,0,1-.37.55l.56.83Zm-.65-1.66v.55h.25c.2,0,.29-.09.29-.26a.26.26,0,0,0-.29-.29Z"/><path class="cls-2" d="M107,33.29s-6.88-2.48-8.39-6.6c-1.7-4.61,4.59-5.67,11-5.48,3.47.09,7.71.62,7.71.62s-10,1.28-13.64,4.2S107,33.29,107,33.29Z"/></svg>