<svg xmlns="http://www.w3.org/2000/svg" id="Layer_1" data-name="Layer 1" viewBox="0 0 154 45"><defs><style>.cls-1{fill:#666}</style></defs><path d="M32.19 12.31a7.28 7.28 0 0 1 5.33 2.12 7.08 7.08 0 0 1 2.15 5.23A7.32 7.32 0 0 1 32.31 27a7.14 7.14 0 0 1-5.26-2.14 7 7 0 0 1-2.15-5.16 7.46 7.46 0 0 1 1-3.74 7.1 7.1 0 0 1 2.66-2.7 7.2 7.2 0 0 1 3.63-.95m.07 1.36a6 6 0 0 0-5.13 3 6.06 6.06 0 0 0-.78 3.06 5.89 5.89 0 0 0 5.91 5.93 6 6 0 0 0 3-.79 5.67 5.67 0 0 0 2.16-2.16 6.07 6.07 0 0 0 .78-3.05 5.94 5.94 0 0 0-.78-3 5.8 5.8 0 0 0-2.19-2.16 5.9 5.9 0 0 0-2.97-.83M43.46 27.14V12.26h.33l9.9 11.41V12.26h1.47v14.88h-.34L45 15.87v11.27ZM59.19 12.25h1.39v14.86h-1.39ZM109.53 12.26h-2.85l-4 10.74h8.07l1.55 4h2.93Zm-3.39 9 2-5.07 2 5.07ZM118.25 12.26h2.82v12.09h5.6V27h-8.42ZM129.66 12.26h2.81v12.09h5.61V27h-8.42ZM77.17 23.53a6.28 6.28 0 0 1-4.87 2.23A6.14 6.14 0 0 1 67.84 24a5.78 5.78 0 0 1-1.76-4.3 5.94 5.94 0 0 1 .79-3.06 5.8 5.8 0 0 1 2.22-2.18 6.26 6.26 0 0 1 3.12-.81 6.5 6.5 0 0 1 2.79.65 6.1 6.1 0 0 1 2.17 1.7v-1.9a8 8 0 0 0-1.41-1 8 8 0 0 0-3.57-.78 7.48 7.48 0 0 0-5.43 2.12 7 7 0 0 0-2.17 5.2 7.46 7.46 0 0 0 1.79 5 7.33 7.33 0 0 0 5.83 2.46 8.2 8.2 0 0 0 3.52-.74 8 8 0 0 0 1.44-1ZM17.31 19c-3.35-.69-4-1.56-4-2.93 0-1.46 1.38-2.51 3.29-2.51a5.9 5.9 0 0 1 4.11 1.55l.12.1v-1.72a7.12 7.12 0 0 0-4.22-1.23C14 12.26 12 13.92 12 16.12c0 2.22 1.41 3.41 4.87 4.11 3.25.65 3.87 1.51 3.87 2.85 0 1.56-1.41 2.65-3.42 2.65a6.65 6.65 0 0 1-5-2l-.11-.11v1.7a8 8 0 0 0 5 1.68c2.84 0 4.82-1.64 4.82-4 .03-2.13-1.39-3.33-4.72-4M98.42 12.26l-3.37 10.05-.08.22-.07-.22-3.32-10.09h-2.71l-3.33 10.09-.07.22-.07-.22-3.38-10.05h-3.35l5.34 14.84h2.75l3.35-9.68.07-.2.07.2 3.35 9.68h2.75l5.34-14.84zM140.34 15.06a1.68 1.68 0 1 1 1.66-1.67 1.67 1.67 0 0 1-1.66 1.67m0-3.13a1.46 1.46 0 1 0 1.46 1.46 1.46 1.46 0 0 0-1.46-1.46m.41 2.44-.46-.77h-.19v.77h-.51v-2h.88a.6.6 0 0 1 .69.61.56.56 0 0 1-.37.55l.56.83Zm-.65-1.66v.55h.25c.2 0 .29-.09.29-.26a.26.26 0 0 0-.29-.29Z" class="cls-1"/><path d="M107 33.29s-6.88-2.48-8.39-6.6c-1.7-4.61 4.59-5.67 11-5.48 3.47.09 7.71.62 7.71.62s-10 1.28-13.64 4.2 3.32 7.26 3.32 7.26" style="fill:#ff791a"/></svg>