<?xml version="1.0" encoding="UTF-8" standalone="no"?>
<!-- Generator: Adobe Illustrator 15.0.2, SVG Export Plug-In . SVG Version: 6.00 Build 0)  -->

<svg
   xmlns:dc="http://purl.org/dc/elements/1.1/"
   xmlns:cc="http://creativecommons.org/ns#"
   xmlns:rdf="http://www.w3.org/1999/02/22-rdf-syntax-ns#"
   xmlns:svg="http://www.w3.org/2000/svg"
   xmlns="http://www.w3.org/2000/svg"
   xmlns:sodipodi="http://sodipodi.sourceforge.net/DTD/sodipodi-0.dtd"
   xmlns:inkscape="http://www.inkscape.org/namespaces/inkscape"
   version="1.1"
   id="svg13466"
   x="0px"
   y="0px"
   width="204px"
   height="36.333px"
   viewBox="0 0 204 36.333"
   enable-background="new 0 0 204 36.333"
   xml:space="preserve"
   inkscape:version="0.91 r13725"
   sodipodi:docname="Sophos_logo.svg"><metadata
     id="metadata13"><rdf:RDF><cc:Work
         rdf:about=""><dc:format>image/svg+xml</dc:format><dc:type
           rdf:resource="http://purl.org/dc/dcmitype/StillImage" /></cc:Work></rdf:RDF></metadata><defs
     id="defs11" /><sodipodi:namedview
     pagecolor="#ffffff"
     bordercolor="#666666"
     borderopacity="1"
     objecttolerance="10"
     gridtolerance="10"
     guidetolerance="10"
     inkscape:pageopacity="0"
     inkscape:pageshadow="2"
     inkscape:window-width="1680"
     inkscape:window-height="1027"
     id="namedview9"
     showgrid="false"
     inkscape:zoom="6.3783713"
     inkscape:cx="108.68177"
     inkscape:cy="18.1665"
     inkscape:window-x="1912"
     inkscape:window-y="-8"
     inkscape:window-maximized="1"
     inkscape:current-layer="svg13466" /><path
     id="path13161"
     fill="#495390"
     d="M3.585,28.822h15.068c2.626,0,4.064-0.248,4.907-0.793c1.041-0.646,1.636-1.733,1.636-3.022  c0-1.537-0.794-2.876-2.131-3.521c-0.693-0.396-1.984-0.595-3.57-0.595h-6.097c-3.964,0-6.542-0.694-8.276-2.181  C3.139,16.974,2,14.298,2,11.424c0-4.213,2.329-7.881,5.749-9.071C9.236,1.807,10.97,1.66,14.837,1.66h16.356v5.898H16.422  c-3.123,0.049-3.371,0.049-4.411,0.297c-1.387,0.346-2.23,1.635-2.23,3.369c0,1.489,0.693,2.678,1.884,3.223  c0.991,0.447,1.784,0.545,4.164,0.545h5.303c4.858,0,7.484,0.744,9.418,2.727c1.487,1.486,2.479,4.412,2.479,7.288  c0,3.519-1.636,6.789-4.213,8.376c-1.635,1.04-3.716,1.337-8.625,1.337H3.585V28.822L3.585,28.822z"
     style="fill:#007aff;fill-opacity:1" /><path
     id="path13163"
     fill="#495390"
     d="M51.912,1.41c-4.659,0-8.724,1.141-11.301,3.223c-3.271,2.578-5.005,7.387-5.005,13.732  c0,4.41,0.939,8.031,2.874,10.756c2.577,3.719,7.585,5.802,13.929,5.802c4.461,0,8.229-1.093,10.708-3.075  c3.271-2.625,5.108-7.388,5.108-13.188l-0.015-0.946l-0.04-0.931l-0.066-0.906l-0.089-0.889l-0.116-0.867l-0.144-0.84l-0.165-0.813  l-0.191-0.787l-0.104-0.384l-0.111-0.375l-0.116-0.371l-0.121-0.357l-0.125-0.356l-0.134-0.345l-0.14-0.334l-0.146-0.332  l-0.147-0.316l-0.155-0.312l-0.161-0.303l-0.166-0.291l-0.174-0.285l-0.175-0.277l-0.183-0.264l-0.188-0.254  C62.523,3.246,57.811,1.41,51.912,1.41z M51.96,7.009c5.899,0,8.526,3.473,8.526,11.204c0,7.634-2.677,11.153-8.526,11.153  c-5.947,0-8.625-3.521-8.625-11.252l0.004-0.326l0.004-0.322l0.005-0.316l0.013-0.312l0.014-0.305l0.014-0.303l0.018-0.295  l0.022-0.291l0.026-0.287l0.027-0.277l0.031-0.271l0.035-0.268l0.036-0.264l0.04-0.26l0.045-0.25l0.045-0.25l0.05-0.24l0.054-0.232  l0.054-0.232l0.059-0.224l0.062-0.22l0.062-0.215l0.066-0.205l0.072-0.201l0.076-0.196l0.076-0.192l0.081-0.183l0.085-0.183  l0.084-0.174l0.089-0.166l0.094-0.162l0.094-0.155C46.211,8.203,48.739,7.009,51.96,7.009z"
     style="fill:#007aff;fill-opacity:1" /><path
     id="path13167"
     fill="#495390"
     d="M71.99,1.66v33.062h7.034V23.168H90.33c3.767,0,5.546-0.492,7.48-2.128  c2.28-1.932,3.669-5.154,3.669-8.625c0-2.924-1.04-5.652-2.973-7.734C96.326,2.252,94.291,1.66,88.492,1.66H71.99z M79.024,7.559  h9.715c1.14,0,2.033,0.097,2.578,0.296c1.538,0.545,2.431,2.131,2.431,4.311c0,1.835-0.547,3.422-1.438,4.166l-0.071,0.062  l-0.072,0.061l-0.076,0.059l-0.075,0.059l-0.081,0.053l-0.08,0.05l-0.085,0.049l-0.089,0.046l-0.09,0.043l-0.094,0.045l-0.094,0.037  l-0.098,0.039l-0.104,0.036L91.098,17l-0.107,0.032l-0.112,0.031l-0.115,0.025l-0.116,0.021l-0.121,0.022l-0.125,0.022l-0.129,0.018  l-0.13,0.018l-0.139,0.014l-0.139,0.018l-0.143,0.01L89.57,17.24l-0.152,0.01l-0.156,0.009L89.1,17.262l-0.166,0.005h-0.17  l-0.175,0.004h-9.567V7.559H79.024z"
     style="fill:#007aff;fill-opacity:1" /><polygon
     id="polygon13171"
     fill="#495390"
     points="131.566,34.718 124.527,34.718 124.527,21.089 111.789,21.089 111.789,34.718   104.75,34.718 104.75,1.66 111.789,1.66 111.789,15.191 124.527,15.191 124.527,1.66 131.566,1.66 "
     style="fill:#007aff;fill-opacity:1" /><path
     id="path13173"
     fill="#495390"
     d="M152.088,1.41c-4.658,0-8.723,1.141-11.301,3.223c-3.271,2.578-5.01,7.387-5.01,13.732  c0,4.41,0.943,8.031,2.879,10.756c2.574,3.719,7.582,5.802,13.928,5.802c4.463,0,8.227-1.093,10.703-3.075  c3.271-2.625,5.107-7.388,5.107-13.188l-0.014-0.946l-0.039-0.931l-0.066-0.906l-0.09-0.889l-0.117-0.867l-0.143-0.84l-0.166-0.813  l-0.188-0.787l-0.107-0.384l-0.107-0.375l-0.115-0.371l-0.125-0.357l-0.125-0.356l-0.135-0.345l-0.139-0.334l-0.143-0.332  l-0.152-0.316l-0.156-0.312l-0.16-0.303l-0.166-0.291l-0.174-0.285l-0.174-0.277l-0.186-0.264l-0.188-0.254  C162.693,3.246,157.988,1.41,152.088,1.41z M152.139,7.009c5.896,0,8.525,3.473,8.525,11.204c0,7.634-2.678,11.153-8.525,11.153  c-5.947,0-8.625-3.521-8.625-11.252v-0.326l0.004-0.322l0.01-0.316l0.008-0.312l0.014-0.305l0.02-0.303l0.018-0.295l0.021-0.291  l0.021-0.287l0.027-0.277l0.035-0.271l0.031-0.268l0.035-0.264l0.041-0.26l0.043-0.25l0.047-0.25l0.049-0.24l0.053-0.232  l0.055-0.232l0.059-0.224l0.062-0.22l0.062-0.215l0.07-0.205l0.07-0.201l0.072-0.196l0.076-0.192l0.08-0.183l0.086-0.183  l0.084-0.174l0.09-0.166l0.094-0.162l0.1-0.155C146.387,8.203,148.916,7.009,152.139,7.009z"
     style="fill:#007aff;fill-opacity:1" /><path
     id="path13177"
     fill="#495390"
     d="M172.559,28.822h15.068c2.625,0,4.062-0.248,4.906-0.793  c1.039-0.646,1.635-1.733,1.635-3.022c0-1.537-0.793-2.876-2.131-3.521c-0.695-0.396-1.982-0.595-3.568-0.595h-6.098  c-3.965,0-6.543-0.694-8.277-2.181c-1.982-1.736-3.123-4.412-3.123-7.286c0-4.213,2.328-7.881,5.75-9.071  c1.486-0.546,3.223-0.693,7.088-0.693h16.357v5.898h-14.771c-3.123,0.049-3.371,0.049-4.41,0.297  c-1.389,0.346-2.232,1.635-2.232,3.369c0,1.489,0.695,2.678,1.887,3.223c0.988,0.447,1.781,0.545,4.162,0.545h5.303  c4.857,0,7.484,0.744,9.42,2.727C201.01,19.205,202,22.13,202,25.006c0,3.519-1.635,6.789-4.213,8.376  c-1.635,1.04-3.717,1.337-8.625,1.337h-16.604V28.822L172.559,28.822z"
     style="fill:#007aff;fill-opacity:1" /></svg>