<svg width="259" height="296" xmlns="http://www.w3.org/2000/svg"><g fill="none" fill-rule="evenodd"><path d="M39.804 116.54s21.155-18.392 83.77-18.392c57.44 0 73.583 13.013 89.978 18.392l-85.535 41.74-88.213-41.74z" fill="#C9781F" fill-rule="nonzero"/><path d="M30.873 171.897c.388 7.978 8.368 4.287 11.983 1.793 3.432-2.368 4.435-.4 4.736-5.074.197-3.071.552-6.142.377-9.227-5.188-.47-10.832.765-15.086 3.851-2.191 1.59-6.3 6.665-2.01 8.657" fill="#F6D2A2" fill-rule="nonzero"/><path d="M30.873 171.897c1.162-.431 2.392-.738 3.18-1.787" fill="#C6B198" fill-rule="nonzero"/><path d="M49.317 76.852c-30.583-8.588-7.842-47.443 16.717-31.461L49.317 76.852zM185.197 42.475c24.208-16.98 46.083 21.33 17.95 30.97l-17.95-30.97z" fill="#37ABC8" fill-rule="nonzero"/><path d="M190.405 270.087c6.149 3.8 17.388 15.288 8.163 20.859-8.862 8.104-13.823-8.895-21.602-11.25 3.35-4.544 7.596-8.687 13.439-9.609z" fill="#F6D2A2" fill-rule="nonzero"/><path d="M198.568 290.945c-1.367-2.715-1.826-5.884-4.11-8.073"/><path d="M80.552 283.07c-7.217 1.116-11.28 7.619-17.296 10.92-5.67 3.376-7.838-1.08-8.35-1.985-.888-.405-.813.376-2.185-1.003-5.256-8.283 5.476-14.338 11.064-18.453 7.784-1.572 12.663 5.167 16.767 10.522z" fill="#F6D2A2" fill-rule="nonzero"/><path d="M54.907 292.004c.275-3.157 2.782-5.271 3.976-7.94"/><path d="M50.593 66.12c-4.035-2.13-6.995-5.025-4.527-9.686 2.285-4.314 6.53-3.846 10.565-1.715l-6.038 11.402zM196.772 62.069c4.035-2.132 6.995-5.026 4.527-9.687-2.285-4.315-6.53-3.846-10.565-1.715l6.038 11.402z" fill="#077E91" fill-rule="nonzero"/><path d="M224.547 170.884c-.388 7.978-8.369 4.287-11.984 1.792-3.431-2.368-4.434-.4-4.735-5.072-.198-3.072-.552-6.143-.378-9.227 5.189-.47 10.833.764 15.087 3.85 2.19 1.59 6.3 6.665 2.01 8.657" fill="#F6D2A2" fill-rule="nonzero"/><path d="M224.547 170.884c-1.162-.432-2.393-.738-3.181-1.787" fill="#C6B198" fill-rule="nonzero"/><path d="M124.645 26.337c30.618 0 59.32 4.373 74.283 33.749 13.43 32.927 8.653 68.434 10.702 103.233 1.758 29.88 5.659 64.402-8.222 92.092-14.603 29.133-51.091 36.461-81.154 35.388-23.614-.844-52.139-8.538-65.465-30.082-15.635-25.276-8.233-62.859-7.098-90.984 1.346-33.315-9.036-66.73 1.924-99.33 11.368-33.817 42.03-41.46 75.03-44.066" fill="#37ABC8" fill-rule="nonzero"/><path d="M130.05 67.384c5.498 31.913 57.732 23.475 50.23-8.71-6.728-28.863-52.056-20.874-50.23 8.71M67.63 72.545c7.125 27.783 51.667 20.67 49.988-7.199-2.012-33.378-56.8-26.937-49.988 7.2M140.19 104.583c.025 4.265 1.011 8.434.159 13.221-1.06 2.002-3.14 2.214-4.935 3.023a7.261 7.261 0 01-5.56-4.332c-.637-5.038.237-9.916.398-14.956l9.939 3.044z" fill="#FFF" fill-rule="nonzero"/><g transform="translate(72.02 59.408)" fill-rule="nonzero"><ellipse fill="#000" cx="7.895" cy="8.606" rx="7.521" ry="8.136"/><ellipse fill="#FFF" cx="11.316" cy="10.441" rx="1.773" ry="2.068"/></g><g transform="translate(135.068 57.766)" fill-rule="nonzero"><ellipse fill="#000" cx="7.866" cy="8.222" rx="7.396" ry="8.136"/><ellipse fill="#FFF" cx="11.231" cy="10.058" rx="1.744" ry="2.068"/></g><path d="M118.696 105.226c-3.282 7.943 1.83 23.825 10.734 12.11-.636-5.038.238-9.915.398-14.955l-11.132 2.845z" fill="#FFF" fill-rule="nonzero"/><path d="M118.174 89.93c-6.116.521-11.116 7.784-7.935 13.53 4.211 7.61 13.611-.674 19.466.102 6.738.138 12.26 7.116 17.671 1.262 6.02-6.511-2.591-12.852-9.32-15.687l-19.882.794z" fill="#F6D2A2" fill-rule="nonzero"/><g fill-rule="nonzero"><path d="M39.804 116.54s1.936 20.948 1.803 29.978c-.132 9.03 8.531 3.328 8.98 17.528.45 14.201-5.247 11.508-8.249 18.458-3.001 6.95-5.041 39.5-5.041 39.5s3.08 6.082 12.7 11.558 25.09 8.552 38.486 7.946c13.395-.606 22.963-3.472 25.355-5.057 2.392-1.585 6.363-6.598 7.856-10.474 1.493-3.877 4.613-35.808 4.396-54.08-.218-18.272-3.24-35.13-3.24-35.13L39.803 116.54z" fill="#EF9325"/><path d="M124.656 205.504c-39.447 4.398-85.218-7.759-85.218-7.759s.672-12.33 3.632-16.67c41.027 12.694 82.417 8.67 82.417 8.67.614 5.756.181 10.332-.831 15.76zM119.69 229.806c-39.447 4.398-82.393-8.247-82.393-8.247s-.138-11.843 1.429-17.044c41.026 12.694 84.847 9.53 84.847 9.53-.369 6.25-1.249 12.4-3.883 15.761z" fill="#E5E5E5"/></g><g fill-rule="nonzero"><path d="M213.552 116.54s-.267 20.948-.133 29.978c.134 9.03-5.25 3.328-5.706 17.528-.456 14.201 5.313 11.508 8.353 18.458 3.039 6.95 5.105 39.5 5.105 39.5s-3.12 6.082-12.86 11.558c-9.741 5.476-25.406 8.552-38.97 7.946-13.563-.606-23.25-3.472-25.673-5.057-2.423-1.585-6.443-6.598-7.955-10.474-1.512-3.877-4.671-35.808-4.451-54.08.22-18.272 3.281-35.13 3.281-35.13l79.01-20.227z" fill="#EF9325"/><path d="M132.714 205.504c39.943 4.398 86.289-7.759 86.289-7.759s-.68-12.33-3.678-16.67c-41.543 12.694-83.452 8.67-83.452 8.67-.622 5.756-.184 10.332.841 15.76zM137.742 229.806c39.942 4.398 83.428-8.247 83.428-8.247s.14-11.843-1.447-17.044c-41.543 12.694-85.913 9.53-85.913 9.53.374 6.25 1.264 12.4 3.932 15.761z" fill="#E5E5E5"/></g><g fill-rule="nonzero"><path d="M229.487 154.961c-1.241 2.34-3.698 3.468-5.487 2.52l-1.434-.757c-1.79-.947-2.235-3.611-.993-5.95l27.952-52.688c1.24-2.34 3.698-3.468 5.487-2.521l1.434.758c1.79.947 2.234 3.611.993 5.95l-27.952 52.688z" fill="#D2E261"/><path d="M216.286 179.844c-.723 1.362-2.76 1.7-4.549.752l-1.433-.758c-1.79-.947-2.655-2.819-1.932-4.182l13.114-24.719c.723-1.363 2.76-1.7 4.55-.753l1.433.759c1.79.946 2.655 2.819 1.931 4.181l-13.114 24.72z" fill="#000"/><path d="M227.946 150.042l-1.433-.758c-1.79-.947-3.62-.998-4.09-.115l-.838 1.58c.469-.884 2.3-.832 4.09.115l1.433.758c1.79.947 2.86 2.43 2.392 3.314l.838-1.58c.47-.883-.602-2.367-2.392-3.314z" fill="#9B9B9B"/></g><ellipse fill="#F6D2A2" fill-rule="nonzero" transform="rotate(20.414 216.137 164.336)" cx="216.137" cy="164.336" rx="6.153" ry="4.754"/><g fill-rule="nonzero"><path d="M26.944 155.812c1.132 2.393 3.534 3.633 5.365 2.77l1.467-.693c1.831-.864 2.398-3.504 1.266-5.898L9.539 98.078c-1.132-2.394-3.535-3.634-5.366-2.77L2.706 96c-1.83.864-2.398 3.505-1.265 5.898l25.503 53.914z" fill="#D2E261"/><path d="M38.988 181.273c.66 1.394 2.679 1.824 4.51.96l1.467-.692c1.831-.864 2.781-2.694 2.121-4.089l-11.965-25.294c-.66-1.394-2.679-1.824-4.51-.96l-1.467.691c-1.831.864-2.781 2.695-2.121 4.09l11.965 25.294z" fill="#000"/><path d="M28.708 150.968l1.467-.692c1.831-.864 3.662-.831 4.09.073l.765 1.617c-.428-.904-2.26-.936-4.09-.073l-1.467.692c-1.83.864-2.969 2.297-2.541 3.201l-.765-1.617c-.427-.903.71-2.337 2.541-3.2z" fill="#9B9B9B"/></g><ellipse fill="#F6D2A2" fill-rule="nonzero" transform="rotate(159.586 41.09 165.024)" cx="41.089" cy="165.024" rx="6.153" ry="4.754"/><g transform="translate(26.517 .826)" fill-rule="nonzero"><path d="M26.388 88.001c-1.216 2.208-4.084 2.964-6.407 1.689l-2.672-1.467c-2.323-1.276-3.22-4.1-2.004-6.308l27.803-50.496c1.216-2.208 4.085-2.964 6.408-1.689l2.671 1.467c2.323 1.276 2.922 3.662 2.004 6.308-9.739 28.064-27.803 50.496-27.803 50.496z" fill="#960000"/><path d="M33.743 59.158c8.455-15.356 14.01-28.562 12.686-30.06l.032-.057c-.036-.02-.075-.033-.111-.052-.004-.003-.006-.012-.01-.015l-.004.008c-12.993-7.03-30.473-.068-39.109 15.616-8.635 15.684-5.158 34.154 7.746 41.344l-.004.008c.005.002.013-.002.018 0 .036.02.067.046.103.066l.032-.057c1.974.314 10.166-11.445 18.62-26.8z" fill="#595959"/><path d="M173.076 88.107c1.151 2.242 3.997 3.08 6.356 1.872l2.712-1.39c2.359-1.207 3.338-4.004 2.186-6.246l-26.332-51.277c-1.152-2.242-3.998-3.08-6.356-1.872l-2.713 1.39c-2.358 1.207-3.027 3.576-2.186 6.246 8.925 28.333 26.333 51.277 26.333 51.277z" fill="#960000"/><path d="M166.558 59.064c-8.008-15.593-13.18-28.955-11.813-30.414l-.03-.057c.037-.019.076-.03.113-.05.005-.002.006-.011.01-.013l.005.007c13.19-6.653 30.461.81 38.64 16.737 8.179 15.926 4.17 34.288-8.937 41.104l.004.007c-.005.003-.013-.001-.017.001-.037.02-.069.044-.106.062l-.03-.057c-1.983.256-9.831-11.734-17.84-27.327z" fill="#595959"/><path d="M192.63 52.488s-9.729-24.334-21.012-37.2c-11.283-12.865-121.675-17.252-139.803 0-18.128 17.253-24.963 37.2-24.963 37.2v-5.39s8.385-23.688 24.963-37.2c16.578-13.51 125.518-12.799 139.572 0 14.055 12.8 21.243 37.2 21.243 37.2v5.39z" fill="#353535"/><ellipse fill="#960000" transform="rotate(152.851 192.49 46.096)" cx="192.49" cy="46.096" rx="3.81" ry="9.294"/><ellipse fill="#960000" transform="rotate(28.803 8.21 45.461)" cx="8.209" cy="45.461" rx="3.81" ry="9.294"/></g><g fill="#FFF" fill-rule="nonzero"><path d="M177.552 48.18H74.586c-18.486 0-18.423 49.06-1.066 51.888l35.891-2.305c4.34 0 13.004-16.784 14.63-18.104 1.625-1.319 6.978-1.48 9.087 0 2.108 1.48 6.904 16.412 11.242 16.412l35.892 3.996c16.764-7.704 12.538-51.887-2.71-51.887z" opacity=".6"/><path d="M101.924 58.324c-11.34-.253-29.084-.15-38.776-.071-1.625 5.32-3.437 12.058-2.538 18.6 8.802 0 27.938.042 41.546.042 8.194 0 15.084 1.544 21.49 3.217.158-.202.29-.35.394-.434 1.626-1.32 6.98-1.48 9.088 0 .545.383 1.273 1.674 2.123 3.367 3.272.688 6.548 1.164 9.953 1.207 9.273.117 31.007.08 44.992.04 1.78-5.944.467-12.316.068-18.304-13.654 0-35.354-.307-45.758-.307-14.659 0-27.457-7.02-42.582-7.357z" opacity=".5"/></g><path d="M117.405 89.612c-.453-10.582 19.75-11.904 22.135-3.047 2.38 8.837-21.14 10.89-22.135 3.047-.794-6.261 0 0 0 0z" fill="#000" fill-rule="nonzero"/></g></svg>