<svg xmlns="http://www.w3.org/2000/svg" xmlns:xlink="http://www.w3.org/1999/xlink" viewBox="0 0 110 120"><path fill="#0D0D0D" d="M104.956 66.202l2.548-8.308V.99c-29.763 0-32.86 11.412-32.86 22.31V85.79a52.88 52.88 0 01-.97 10.03c15.78-2.87 26.075-12.624 31.282-29.618"/><path fill="#39A2E1" d="M28.779 13.982h-6.576V7.487h6.576v6.495zM35.35 23.798h-6.57v-6.499h6.57v6.499zM28.741 31.973h-6.499v-6.499h6.499v6.499zM22.171 41.717h-6.496v-6.5h6.496v6.5zM9.064 7.487H2.496V.922h6.568v6.565z"/><path fill="#39A2E1" d="M15.64 48.209h6.563v14.473h6.578V38.468h6.568v47.32c0 22.456 19.651 33.29 19.651 33.29-33.012 0-52.505-20.014-52.505-46.641V18.89h6.566v35.814h6.578v-6.496z"/><g><defs><path id="a" d="M59.61 99.328c-8.764-.398-15.507-2.623-20.731-5.842 3.537 15.359 16.769 22.9 17.408 23.256l3.901 2.152c29.842-1.994 47.315-21.262 47.315-46.453V66.98c-7.098 23.145-23.606 33.442-47.893 32.348"/></defs><clipPath id="b"><use xlink:href="#a" overflow="visible"/></clipPath><g clip-path="url(#b)"><linearGradient id="c" gradientUnits="userSpaceOnUse" x1="-60.654" y1="110.697" x2="-56.602" y2="110.697" gradientTransform="translate(1066.085 -1781.812) scale(16.9357)"><stop offset="0" stop-color="#656263"/><stop offset="1" stop-color="#a7a5a6"/></linearGradient><path fill="url(#c)" d="M59.61 99.328c-8.764-.398-15.507-2.623-20.731-5.842 3.537 15.359 16.769 22.9 17.408 23.256l3.901 2.152c29.842-1.994 47.315-21.262 47.315-46.453V66.98c-7.098 23.145-23.606 33.442-47.893 32.348"/></g></g><path fill="#39A2E1" d="M22.165 20.548h-6.49v-6.5h6.49v6.5z"/></svg>