<svg xmlns="http://www.w3.org/2000/svg" width="715" height="715"><path d="M44.41 450.61c-12.945-3.467-20.775-12.482-25.471-29.328-1.97-7.062-2.087-9.914-2.423-58.581l-.354-51.158H48.29v41.632c0 24.392.432 44.773 1.044 49.218 2.18 15.829 8.376 23.588 18.837 23.588 10.026 0 16.742-7.448 21.476-23.821 1.43-4.946 1.72-11.745 2.047-48.188l.381-42.43h31.86l.011 65.221c.006 35.871.281 66.857.612 68.857l.601 6.74H94.141l-.611-8.195c-.21-2.812-.628-8.8-.649-13.335l-.036-8.243-4.268 8.127c-2.347 4.47-5.646 9.549-7.332 11.288-8.352 8.617-23.544 12.167-36.834 8.608z" fill="#bad05d"/><path d="M410.516 451.15c-25.746-4.036-41.002-16.773-48.154-40.201-1.692-5.54-2.306-10.183-1.348-10.183.245 0 6.9-1.113 14.79-2.474 7.89-1.36 14.943-2.56 15.673-2.667.845-.123 1.804 1.65 2.643 4.884 2.942 11.341 8 17.914 16.881 21.937 5.966 2.702 20.746 2.87 27.38.31 5.818-2.245 11.772-8.842 13.24-14.669 1.75-6.952 1.324-16.877-.939-21.868-4.228-9.327-9.673-12.63-34.171-20.732-21.755-7.195-27.915-10.312-35.71-18.068-10.22-10.17-15.238-25.043-14.068-41.695 1.782-25.379 14.94-41.178 38.45-46.17 9.767-2.075 30.302-2.075 39.094 0 14.957 3.529 24.466 10.609 30.536 22.735 3.888 7.768 7.75 20.084 6.643 21.19-.467.468-28.007 4.925-31.674 5.127-.274.015-1.284-2.7-2.245-6.034-2.28-7.904-6.014-13.242-11.364-16.244-3.666-2.058-5.57-2.425-12.564-2.425-13.995 0-20.965 5.12-23.387 17.18-2.453 12.216 1.584 22.47 10.969 27.864 2.829 1.626 13.218 5.614 23.086 8.864 21.27 7.004 29.555 11.12 36.902 18.332 6.202 6.088 11.995 16.844 13.53 25.117 1.399 7.547 1.16 21.831-.497 29.689-4.196 19.897-18.307 33.81-39.282 38.73-7.938 1.862-26.782 2.667-34.414 1.47zM567.511 451.262c-23.457-3.744-41.266-19.186-50.902-44.135-9.333-24.166-11.255-60.765-4.768-90.793 6.616-30.62 23.629-50.537 48.502-56.782 8.36-2.099 25.666-2.126 33.686-.053 17.399 4.498 31.081 16.28 39.474 33.992 5.576 11.768 6.496 10.281-9.892 15.972-7.903 2.744-14.86 4.99-15.463 4.99-.601 0-1.623-1.637-2.27-3.637-3.335-10.312-10.593-19.11-18.609-22.559-6.313-2.716-16.51-2.375-22.618.757-14.755 7.564-22.095 29.075-22.082 64.716.008 25.945 3.513 42.874 11.444 55.28 6.856 10.724 14.304 14.56 26.925 13.867 9.928-.546 17.503-3.858 24.248-10.602l4.627-4.628v-31.126H577.81v-25.216h64.008v67.713l-3.748 4.742c-9.34 11.816-24.714 21.739-39.569 25.538-8.515 2.178-23.643 3.136-30.989 1.964zM162.776 357.367c-10.564-50.612-20.009-93.09-20.23-94.557l-.404-4.995h34.164c.318 0 4.78 28.427 10.622 58.913 5.842 30.486 12.046 65.554 13.787 77.93 1.74 12.375 3.414 22.429 3.462 22.201l37.397-133.662 15.13.092 38.65 132.994c.111.386 1.735-7.528 2.964-16.73 1.23-9.2 7.352-44.223 13.606-77.827l11.37-64.053h34.619l-.55 5.114c-.16 1.501-9.304 43.65-20.006 93.711-10.702 50.062-18.98 95.862-19.458 95.862H276.64l-27.287-102.568-26.032 102.568h-40.718zM673.821 354.7V257.62l33.944.194V452.36H673.82z"/><g transform="translate(568.402 130.794) scale(.40409)"><circle r="30.714" cy="715.934" cx="-769.286" transform="matrix(.97674 0 0 .97674 486.977 -305.493)" fill="#bad05d"/><circle r="13.571" cy="695.934" cx="-685" transform="matrix(.92105 0 0 .92105 366.502 -247.2)"/></g></svg>