<svg id="Layer_1_copy" data-name="Layer 1 copy" xmlns="http://www.w3.org/2000/svg" viewBox="0 0 659.81 136.68"><defs><style>.cls-1{fill:#009cda;}</style></defs><title>Zscaler-Logo-TM-Blue-RGB-May2019</title><path class="cls-1" d="M291.36,142.38c3.58,21.86-15.41,34.17-34.64,35.59-12.24,25.17-55.41,42.16-92.79,23.84-16,2.43-24.77-1.57-31.54-9.21,13.68-17.6,55.09-49.27,105.68-32.92,27,8.72,34-11.78,27.23-19.47-25.48-28.94-83-2.89-85.08-.72C202.82,104.92,283.66,95.22,291.36,142.38Zm-77.47-39.73c.14-.05-18.37-6.59-44.26,4.59a29.64,29.64,0,0,1-3.06-1.32C191.47,89.39,213.3,82.36,232,85.09c-11.3-13-65.6-22.56-96.71,8.6-38.46-7.57-65.36,25-63.83,54.78s34,48.3,52.5,43.28a5.48,5.48,0,0,1,1.34,0C129.39,172.08,146.1,126.32,213.89,102.65Zm154.88,27.2,3.45-15.15H314.31L313,120.57c-1.51,5.19,2.59,8.86,7,8.74h26.83l-47.56,42-3.21,14.08h61.35L360.94,170h-38.8Zm38.64,12.23c-2.72-.69-18-3-17-8.25,1.07-5.9,8.29-6.46,11.8-6.36,7.23.21,9.51,3.39,9.89,4.51,1,3,3.32,4.52,6.69,4.52h11.42c1.25-7.08,1.59-23.38-24.94-23.38-8.52,0-19.87,2.13-27.38,10.79-4,4.64-10.95,16.15-3.86,24.82,3.71,4.37,13.38,7.79,23.76,9.82,6.71,1.31,10.26,4,9.52,7.16-.45,2.13-3.12,6.93-13,6.92-4.42,0-14-.69-12.17-10.62H364.08c-2.12,9-2.9,24.7,24.64,24.7,10.62,0,32.24-1.34,37.87-23.92C430.65,146.54,412.33,143.32,407.41,142.08Zm63.84,25a16.14,16.14,0,0,1-11.6,4.26c-13.64.12-12.1-13.37-10.24-21.52s6.25-21.28,19.22-21.25c9.19,0,10.25,5.95,10.72,7.7h18.59c-.66-19.62-15.7-23.37-26.33-23.11-29.14.72-37.57,25.08-40.18,36.4-7.61,33.06,13.54,37.19,23.66,37.19,8.31,0,26.47-2,37.14-23.11H479C475.13,163.46,473.37,165.17,471.25,167Zm75.91,6.79a34.6,34.6,0,0,1-21,11.81c-16.15,2.67-38.35,2-32.76-21.24,1.79-7.43,4.56-12.28,10.13-15.94,9.33-6.13,21.73-7,25.74-7.44,1.37-.16,11.53-.92,13.27-6.93,1.7-5.84-7.62-6.32-10.23-6.35-8-.1-10.71,3.1-12,5h-17.8c7.19-18.92,27-19.65,32.4-19.65,6,0,30.06,0,25.47,19.94C553.32,163.48,553.06,166.51,547.16,173.83Zm-8-24.05c-2.86,1.57-10,3.11-11.14,3.44-3.71,1.13-10.67,1.56-14.1,4.78-2.91,2.75-8,14.11,4.16,14.35,7.56.15,17-4.1,19.68-16.44C538.4,153.12,539.2,149.78,539.2,149.78ZM585,94H575.4l-20.86,91.39h18.59L592,102.77C592.76,100.16,592.23,94.24,585,94Zm48.19,69.61h13.29c-4.18,8.44-15,23.13-37.16,23.11-28.28,0-26.54-25.22-23.65-37.19,8-33.26,30.28-36.4,40.19-36.4,13.22,0,33.93,5.47,23.42,41.7h-46c-1.12,4.81-2.08,16.62,10.6,16.48,6.67-.08,9.17-2.49,9.77-2.8C625.36,167.62,627,163.71,633.15,163.6ZM606,142.88h27.09c2.32-13-5.72-14.35-10.27-14.35C618.93,128.53,609.67,129.93,606,142.88Zm67-20.46c-12.45,8.49-16.56,22.14-18,28.7-1.14,5.15-7.83,34.26-7.83,34.26h18.61s7.05-32,8.29-36.39c1.47-5.12,6.26-19,24.8-18.43l4.3-15.86C688.17,114.21,678.27,118.82,673,122.42Zm32.46-21.51.47-2.21h10l-.47,2.21h-3.6l-2,9.79h-2.66l2.05-9.79Zm16.46-2.21.92,8.69h0l4.62-8.69h3.68l-2.54,12h-2.47l2.19-9.55h0l-5.07,9.55h-2l-1.16-9.55h0l-1.8,9.55h-2.49l2.52-12Z" transform="translate(-71.36 -72.83)"/></svg>