<svg width="56" height="56" viewBox="0 0 56 56" fill="none" xmlns="http://www.w3.org/2000/svg">
<rect width="56" height="56" rx="28" fill="#79AAD9"/>
<path fill-rule="evenodd" clip-rule="evenodd" d="M19.25 10.5C23.6581 10.5 27.3049 13.7596 27.9114 18H35.7134C36.2282 16.5435 37.6172 15.5 39.25 15.5C41.3211 15.5 43 17.1789 43 19.25C43 21.3211 41.3211 23 39.25 23C37.6172 23 36.2282 21.9565 35.7134 20.5H27.9114C27.6993 21.9824 27.1157 23.345 26.2579 24.4903L31.5095 29.7423C32.9702 28.6481 34.7844 28 36.75 28C41.5825 28 45.5 31.9175 45.5 36.75C45.5 41.5825 41.5825 45.5 36.75 45.5C32.3419 45.5 28.6951 42.2404 28.0886 38H20.2866C19.7718 39.4565 18.3828 40.5 16.75 40.5C14.6789 40.5 13 38.8211 13 36.75C13 34.6789 14.6789 33 16.75 33C18.3828 33 19.7718 34.0435 20.2866 35.5H28.0886C28.3006 34.0178 28.8841 32.6554 29.7418 31.5101L24.4902 26.258C23.0294 27.352 21.2154 28 19.25 28C14.4175 28 10.5 24.0825 10.5 19.25C10.5 14.4175 14.4175 10.5 19.25 10.5ZM19.25 25.5C22.7018 25.5 25.5 22.7018 25.5 19.25C25.5 15.7982 22.7018 13 19.25 13C15.7982 13 13 15.7982 13 19.25C13 22.7018 15.7982 25.5 19.25 25.5ZM38 19.25C38 19.9404 38.5596 20.5 39.25 20.5C39.9404 20.5 40.5 19.9404 40.5 19.25C40.5 18.5596 39.9404 18 39.25 18C38.5596 18 38 18.5596 38 19.25ZM36.75 43C33.2982 43 30.5 40.2018 30.5 36.75C30.5 33.2982 33.2982 30.5 36.75 30.5C40.2018 30.5 43 33.2982 43 36.75C43 40.2018 40.2018 43 36.75 43ZM18 36.75C18 37.4404 17.4404 38 16.75 38C16.0596 38 15.5 37.4404 15.5 36.75C15.5 36.0596 16.0596 35.5 16.75 35.5C17.4404 35.5 18 36.0596 18 36.75Z" fill="#4A7194"/>
</svg>
