<svg xmlns="http://www.w3.org/2000/svg" width="32" height="32" fill="none"><g clip-path="url(#a)"><mask id="b" width="28" height="15" x="2" y="17" maskUnits="userSpaceOnUse" style="mask-type:luminance"><path fill="#fff" fill-rule="evenodd" d="M2 17.07h28V32H2z" clip-rule="evenodd"/></mask><g mask="url(#b)"><path fill="#F04E98" fill-rule="evenodd" d="M20 20a9.97 9.97 0 0 1-7.071-2.93L2 28v4h28V20l-2.929-2.93A9.97 9.97 0 0 1 20 20" clip-rule="evenodd"/></g><path fill="#343741" fill-rule="evenodd" d="m16.465 13.536-3.536 3.535a9.97 9.97 0 0 0 7.07 2.93 9.97 9.97 0 0 0 7.072-2.93l-3.536-3.535a5 5 0 0 0-7.07 0" clip-rule="evenodd"/><path fill="#FEC514" fill-rule="evenodd" d="M14.343 11.415A7.95 7.95 0 0 1 20 9.07c2.137 0 4.146.832 5.657 2.344l3.207 3.206A9.95 9.95 0 0 0 30 10c0-5.523-4.477-10-10-10S10 4.477 10 10a9.94 9.94 0 0 0 1.137 4.62z" clip-rule="evenodd"/></g><defs><clipPath id="a"><path fill="#fff" d="M0 0h32v32H0z"/></clipPath></defs></svg>