<svg xmlns="http://www.w3.org/2000/svg" width="32" height="32" fill="none"><path fill="#1BA9F5" fill-rule="evenodd" d="M5.236 18.26c0 2.58.82 4.974 2.212 6.935L15.622 13.6l5.051 4.418 5.594-7.754a12.03 12.03 0 0 0-8.987-4.027c-6.642 0-12.044 5.394-12.044 12.024m10.789-.243-6.573 9.371a12 12 0 0 0 7.828 2.892c2.742 0 5.273-.919 7.3-2.465l4.022 3.44L32 27.475l-4.116-3.52a11.9 11.9 0 0 0 1.44-5.695c0-1.957-.471-3.806-1.305-5.44l-6.95 9.617z" clip-rule="evenodd"/><path fill="#FEC514" d="M30.718 4.093 20.673 18.017l-5.051-4.418L3.238 31.17A4.074 4.074 0 0 1 0 27.182V5.072A4.073 4.073 0 0 1 4.073 1h22.69a4.074 4.074 0 0 1 3.955 3.093"/><path fill="#343741" d="M7.448 25.195a11.94 11.94 0 0 1-2.212-6.935c0-6.63 5.402-12.024 12.044-12.024 3.569 0 6.78 1.558 8.987 4.027l-5.594 7.754-5.051-4.418z"/></svg>