<svg width="24" height="25" viewBox="0 0 24 25" fill="none" xmlns="http://www.w3.org/2000/svg">
<g clip-path="url(#clip0_9989_57784)">
<path fill-rule="evenodd" clip-rule="evenodd" d="M2.99988 18.22C4.65684 18.22 5.99988 16.8769 5.99988 15.22C5.99988 13.563 4.65684 12.22 2.99988 12.22C1.34291 12.22 -0.00012207 13.563 -0.00012207 15.22C-0.00012207 16.8769 1.34291 18.22 2.99988 18.22ZM2.99988 13.72C3.82841 13.72 4.49988 14.3914 4.49988 15.22C4.49988 16.0485 3.82841 16.72 2.99988 16.72C2.17134 16.72 1.49988 16.0485 1.49988 15.22C1.49988 14.3914 2.17134 13.72 2.99988 13.72Z" fill="#98A2B3"/>
<path d="M2.24988 19.72H3.74988V23.47H2.24988V19.72Z" fill="#24C292"/>
<path d="M2.24988 0.969971H3.74988V12.97H2.24988V0.969971Z" fill="#98A2B3"/>
<path fill-rule="evenodd" clip-rule="evenodd" d="M11.9999 10.72C13.6568 10.72 14.9999 9.37693 14.9999 7.71997C14.9999 6.06301 13.6568 4.71997 11.9999 4.71997C10.3429 4.71997 8.99988 6.06301 8.99988 7.71997C8.99988 9.37693 10.3429 10.72 11.9999 10.72ZM11.9999 6.21997C12.8284 6.21997 13.4999 6.89143 13.4999 7.71997C13.4999 8.54851 12.8284 9.21997 11.9999 9.21997C11.1713 9.21997 10.4999 8.54851 10.4999 7.71997C10.4999 6.89143 11.1713 6.21997 11.9999 6.21997Z" fill="#98A2B3"/>
<path d="M11.2499 12.22H12.7499V23.47H11.2499V12.22Z" fill="#24C292"/>
<path d="M11.2499 0.969971H12.7499V5.46997H11.2499V0.969971Z" fill="#98A2B3"/>
<path fill-rule="evenodd" clip-rule="evenodd" d="M20.9999 18.22C22.6568 18.22 23.9999 16.8769 23.9999 15.22C23.9999 13.563 22.6568 12.22 20.9999 12.22C19.3429 12.22 17.9999 13.563 17.9999 15.22C17.9999 16.8769 19.3429 18.22 20.9999 18.22ZM20.9999 13.72C21.8284 13.72 22.4999 14.3914 22.4999 15.22C22.4999 16.0485 21.8284 16.72 20.9999 16.72C20.1713 16.72 19.4999 16.0485 19.4999 15.22C19.4999 14.3914 20.1713 13.72 20.9999 13.72Z" fill="#98A2B3"/>
<path d="M20.2499 19.72H21.7499V23.47H20.2499V19.72Z" fill="#24C292"/>
<path d="M20.2499 0.969971H21.7499V12.97H20.2499V0.969971Z" fill="#98A2B3"/>
</g>
<defs>
<clipPath id="clip0_9989_57784">
<rect width="24" height="24" fill="white" transform="translate(-0.00012207 0.219971)"/>
</clipPath>
</defs>
</svg>
