<svg width="32" height="32" viewBox="0 0 32 32" fill="none" xmlns="http://www.w3.org/2000/svg">
<g clip-path="url(#clip0_5810_239)">
<path d="M26 20C29.3137 20 32 22.6863 32 26C32 29.3137 29.3137 32 26 32C22.6863 32 20 29.3137 20 26C20 22.6863 22.6863 20 26 20ZM26 22C23.7909 22 22 23.7909 22 26C22 28.2091 23.7909 30 26 30C28.2091 30 30 28.2091 30 26C30 23.7909 28.2091 22 26 22ZM12 12H0V0H12V12ZM2 10H10V2H2V10Z" fill="#48EFCF"/>
<path d="M28 3C30.2091 3 32 4.79086 32 7V12C32 14.2091 30.2091 16 28 16H5C3.89543 16 3 16.8954 3 18V23C3 24.1046 3.89543 25 5 25H14.2959L12.248 22.6582L13.7529 21.3418L17.8291 26L13.7529 30.6582L12.248 29.3418L14.2959 27H5C2.79086 27 1 25.2091 1 23V18C1 15.7909 2.79086 14 5 14H28C29.1046 14 30 13.1046 30 12V7C30 5.89543 29.1046 5 28 5H15V3H28Z" fill="white"/>
</g>
<defs>
<clipPath id="clip0_5810_239">
<rect width="32" height="32" fill="white"/>
</clipPath>
</defs>
</svg>
