<svg width="24" height="24" viewBox="0 0 24 24" fill="none" xmlns="http://www.w3.org/2000/svg">
<g clip-path="url(#clip0_4433_12631)">
<path d="M3 12C4.65696 12 6 13.343 6 15C6 16.657 4.65696 18 3 18C1.34304 18 0 16.657 0 15C0 13.343 1.34304 12 3 12ZM3 13.5C2.17146 13.5 1.5 14.1715 1.5 15C1.5 15.8285 2.17146 16.5 3 16.5C3.82854 16.5 4.5 15.8285 4.5 15C4.5 14.1715 3.82854 13.5 3 13.5Z" fill="#343741"/>
<path d="M2.25 19.5H3.75V23.25H2.25V19.5Z" fill="#007871"/>
<path d="M2.25 0.75H3.75V12.75H2.25V0.75Z" fill="#343741"/>
<path d="M12 4.5C13.657 4.5 15 5.84304 15 7.5C15 9.15696 13.657 10.5 12 10.5C10.343 10.5 9 9.15696 9 7.5C9 5.84304 10.343 4.5 12 4.5ZM12 6C11.1715 6 10.5 6.67146 10.5 7.5C10.5 8.32854 11.1715 9 12 9C12.8285 9 13.5 8.32854 13.5 7.5C13.5 6.67146 12.8285 6 12 6Z" fill="#343741"/>
<path d="M11.25 12H12.75V23.25H11.25V12Z" fill="#007871"/>
<path d="M11.25 0.75H12.75V5.25H11.25V0.75Z" fill="#343741"/>
<path d="M21 12C22.657 12 24 13.343 24 15C24 16.657 22.657 18 21 18C19.343 18 18 16.657 18 15C18 13.343 19.343 12 21 12ZM21 13.5C20.1715 13.5 19.5 14.1715 19.5 15C19.5 15.8285 20.1715 16.5 21 16.5C21.8285 16.5 22.5 15.8285 22.5 15C22.5 14.1715 21.8285 13.5 21 13.5Z" fill="#343741"/>
<path d="M20.25 19.5H21.75V23.25H20.25V19.5Z" fill="#007871"/>
<path d="M20.25 0.75H21.75V12.75H20.25V0.75Z" fill="#343741"/>
</g>
<defs>
<clipPath id="clip0_4433_12631">
<rect width="24" height="24" fill="white"/>
</clipPath>
</defs>
</svg>
