<svg xmlns="http://www.w3.org/2000/svg" width="256" height="256" viewBox="0 0 67.733 67.733"><path d="M220.283 283.083a18.854 18.854 0 0 0-18.896 18.897v155.668h51.191l20.567-38.939c5.1-9.661 18.637-10.45 24.826-1.447l34.265 49.857 58.827-115.431a14.53 14.53 0 0 1 25.076-1.395l51.902 78.72 44.955-57.511c5.378-6.878 15.565-7.494 21.733-1.314l57.585 57.763V301.98a18.854 18.854 0 0 0-18.896-18.897zM405.62 387.13l-58.574 114.943c-5.004 9.815-18.682 10.71-24.922 1.631l-34.494-50.19-13.443 25.446a14.53 14.53 0 0 1-12.844 7.744h-59.955v64.366a18.854 18.854 0 0 0 18.896 18.896h353.135a18.854 18.854 0 0 0 18.896-18.896v-81.954l-9.699-9.732-56.855-57.033-47.281 60.488c-6.12 7.822-18.109 7.338-23.577-.953z" style="opacity:1;fill:#000;fill-opacity:1;stroke:none;stroke-width:18.89763832;stroke-linecap:round;stroke-linejoin:round;stroke-miterlimit:4;stroke-dasharray:none;stroke-dashoffset:0;stroke-opacity:.47783257" transform="matrix(.16035 0 0 .14849 -29.799 -41.943)"/><g style="stroke-width:8;stroke-miterlimit:4;stroke-dasharray:none"><path d="M53.55 162.563h102.9" style="fill:none;fill-rule:evenodd;stroke:#000;stroke-width:8;stroke-linecap:round;stroke-linejoin:miter;stroke-miterlimit:4;stroke-dasharray:none;stroke-opacity:1" transform="matrix(.60603 0 0 .5612 -29.799 -43.893)"/><g style="stroke-width:8;stroke-miterlimit:4;stroke-dasharray:none"><path d="M112.921 205.675v-31.834M79.33 205.675l17.203-31.834M146.513 205.675l-17.203-31.834" style="fill:none;fill-rule:evenodd;stroke:#000;stroke-width:8;stroke-linecap:round;stroke-linejoin:miter;stroke-miterlimit:4;stroke-dasharray:none;stroke-opacity:1" transform="matrix(.60603 0 0 .5612 -34.6 -50.042)"/></g></g></svg>