<svg xmlns="http://www.w3.org/2000/svg" width="32" height="32" viewBox="0 0 32 32">
  <g fill="none" fill-rule="evenodd">
    <path fill="#00BFB3" d="M17,24.5794902 L17,29.9619911 C15.9057929,30.0436076 14.9076706,29.995122 13.647603,29.803562 C12.6878456,29.6585767 12.2258032,29.5153596 11.5310408,29.1440558 C10.9161166,28.8151868 10.3674412,28.3890716 9.8935079,27.8727825 C9.54697605,27.4979426 9.48582337,27.4537397 9.07304278,27.2910733 C5.4055807,25.8553655 2.77601548,23.1377757 1.86382134,19.8402449 C1.55805794,18.7334061 1.46802761,18.0314652 1.46632893,16.7725687 C1.46632893,15.2997305 1.61241588,14.3025148 2.04048464,12.8615026 L2.19506502,12.3399093 L1.96744116,11.8678231 C1.51559081,10.9324913 1.15377079,9.60817457 1.03656148,8.46243731 C1.01165712,8.22419964 0.999999814,7.91637327 1,7.58987228 L1,7.58988569 C1.00000035,6.98102918 1.04053727,6.30724891 1.11130365,5.89867336 C1.15377079,5.65644187 1.25059586,5.22502228 1.32533803,4.94035608 L1.46293155,4.42406707 L1.88590425,4.20482105 C2.8796353,3.68853203 4.44752205,3.42508318 6.18867473,3.47989469 C7.18240578,3.51172072 7.95870507,3.61073506 8.612699,3.7928507 L9.04586382,3.9148505 L9.35842196,3.73627108 C10.6681085,2.9936636 12.3973704,2.38366459 13.8514452,2.14850555 C14.8607419,1.98643525 15.9308445,1.95837018 17,2.05769899 L17,10.8820463 C15.5477724,10.6292855 13.6619739,10.8742246 13.0139932,11.569012 C12.810151,11.788258 12.7574917,11.9809823 12.7914654,12.3929527 C12.8509194,13.1514732 13.620424,14.0673557 14.64643,14.6013259 C15.327603,14.9584847 15.7386849,15.0274411 16.289059,14.8824558 C16.4906837,14.829589 16.745301,14.7215636 17,14.5874783 L17,17.9467304 C16.5555639,17.794968 16.1192021,17.7061324 15.7743572,17.7061324 C15.0761975,17.7061324 13.9873401,18.1340158 13.080242,18.763464 C11.4444078,19.903897 10.5237202,21.5447059 10.8464705,22.7523271 C11.0129417,23.3800072 11.7212935,23.8980644 12.8899892,24.2481508 C13.9873401,24.5787879 15.597694,24.7167007 16.8852976,24.5911647 C16.9237567,24.5874253 16.9619918,24.5835334 17,24.5794902 Z M7.43211255,8.20782903 C6.85795684,9.5975659 8.2253987,11.0032158 9.57075765,10.4020573 C9.70835118,10.3419415 9.93087898,10.1739708 10.0650751,10.0307536 C10.3266727,9.74962362 10.5508992,9.24747951 10.4574715,9.15023329 C10.4014149,9.09188556 9.39069698,7.58545323 7.6019811,7.89840924 C7.57989819,7.90194547 7.50345734,8.03632206 7.43211255,8.20782903 Z"/>
    <path fill="#00A9E5" d="M15,24.6051369 C15.6426915,24.6508775 16.2976118,24.6484616 16.8852976,24.5911647 C18.9220216,24.393136 20.3302319,23.767224 20.702244,22.8973124 C20.907785,22.4110813 20.8738112,21.7056042 20.610515,21.0832284 C20.2334068,20.1850269 19.1819204,19.0923331 18.060788,18.4310588 C17.3303532,17.9996392 16.4011722,17.7061324 15.7743572,17.7061324 C15.5501982,17.7061324 15.2857633,17.7502415 15,17.8309691 L15,14.7707079 C15.4847928,14.9766981 15.840707,15.0005654 16.289059,14.8824558 C16.7341146,14.7657604 17.4373704,14.3803117 17.8297668,14.0390659 C18.9186242,13.0913573 19.1632349,11.9845185 18.4073198,11.4116499 C17.700559,10.8743441 16.2505777,10.6895793 15,10.830368 L15,2.02292034 C16.8360579,1.91185099 18.7886809,2.20609511 20.523882,2.86989568 C20.7922743,2.97421435 21.4004038,3.25534433 21.8726383,3.49403959 L22.7304745,3.93076352 L23.1976131,3.80522749 C25.3447516,3.2235183 28.5161975,3.41624262 30.0535079,4.22073406 L30.3864503,4.39577726 L30.4951662,4.77238534 C31.1508588,7.05678742 30.9317283,9.62762382 29.8921328,11.8395333 C29.729059,12.1878515 29.5965615,12.4972713 29.5965615,12.5273292 C29.5965615,12.5556191 29.674701,12.8508939 29.7698274,13.179763 C30.0008487,13.9736457 30.1809093,15.00976 30.2539528,15.9574686 C30.3592713,17.3595823 30.1724159,18.9155217 29.7426485,20.2186211 C28.7200398,23.3198914 26.3197971,25.7758004 22.9445089,27.176146 C22.4620822,27.3741747 22.4281085,27.4006963 21.928695,27.9222897 C21.1982602,28.6878827 20.3166424,29.2678237 19.443518,29.5595624 C19.0715059,29.6833303 18.1915868,29.8442286 17.4815362,29.9184894 C16.621331,30.0090846 15.8468743,30.0253021 15,29.9614112 L15,24.6051369 Z M22.8188062,10.3631589 C23.3538921,10.09971 23.7377951,9.48794289 23.7377951,8.90092935 C23.7377951,8.6109588 23.5832147,8.06107564 23.4744988,7.96736565 C23.3521935,7.86127887 21.6008487,7.69507624 20.5476636,9.23156649 C20.4423451,9.38539233 20.8330428,9.94057983 21.0334877,10.115623 C21.5838618,10.5983179 22.1750044,10.6796511 22.8188062,10.3631589 Z" style="mix-blend-mode:multiply"/>
  </g>
</svg>
