<svg xmlns="http://www.w3.org/2000/svg" width="32" height="32" viewBox="0 0 32 32">
  <g fill="none" fill-rule="evenodd">
    <path fill="#00A9E5" d="M14.5004087 3C14.5004087 4.657 13.1574087 6 11.5004087 6 9.8434087 6 8.5004087 4.657 8.5004087 3 8.5004087 1.343 9.8434087 0 11.5004087 0 13.1574087 0 14.5004087 1.343 14.5004087 3M14.5004087 14C14.5004087 15.657 13.1574087 17 11.5004087 17 9.8434087 17 8.5004087 15.657 8.5004087 14 8.5004087 12.343 9.8434087 11 11.5004087 11 13.1574087 11 14.5004087 12.343 14.5004087 14M14.5004087 29C14.5004087 30.657 13.1574087 32 11.5004087 32 9.8434087 32 8.5004087 30.657 8.5004087 29 8.5004087 27.343 9.8434087 26 11.5004087 26 13.1574087 26 14.5004087 27.343 14.5004087 29M17.5004087 3C17.5004087 4.657 18.8434087 6 20.5004087 6 22.1574087 6 23.5004087 4.657 23.5004087 3 23.5004087 1.343 22.1574087 0 20.5004087 0 18.8434087 0 17.5004087 1.343 17.5004087 3M17.5004087 14C17.5004087 15.657 18.8434087 17 20.5004087 17 22.1574087 17 23.5004087 15.657 23.5004087 14 23.5004087 12.343 22.1574087 11 20.5004087 11 18.8434087 11 17.5004087 12.343 17.5004087 14M17.5004087 29C17.5004087 30.657 18.8434087 32 20.5004087 32 22.1574087 32 23.5004087 30.657 23.5004087 29 23.5004087 27.343 22.1574087 26 20.5004087 26 18.8434087 26 17.5004087 27.343 17.5004087 29"/>
    <path fill="#00BFB3" fill-rule="nonzero" d="M3.0004087,20.8857785 L3.0004087,9.84928557 L12.2721523,4.28623939 C12.9825227,3.86001715 13.2128703,2.93862677 12.7866481,2.22825637 C12.3604259,1.51788597 11.4390355,1.28753837 10.7286651,1.71376061 L0.728665071,7.71376061 C0.276856955,7.98484548 0.000408704332,8.47310572 0.000408704332,9 L0.000408704332,22.9650861 C-0.00293592356,23.1077912 0.0141928644,23.2529424 0.0537141498,23.3965541 C0.1087845,23.597168 0.204775693,23.7836829 0.335079849,23.9444915 C0.454819385,24.0903114 0.588693121,24.2036924 0.737201289,24.2913611 L10.7286651,30.2862394 C11.4390355,30.7124616 12.3604259,30.482114 12.7866481,29.7717436 C13.2128703,29.0613732 12.9825227,28.1399829 12.2721523,27.7137606 L5.01462668,23.3592452 L11.9959343,20.9157875 C12.5975645,20.705217 13.0004087,20.1374157 13.0004087,19.5 L13.0004087,14.5 C13.0004087,13.6715729 12.3288358,13 11.5004087,13 C10.6719816,13 10.0004087,13.6715729 10.0004087,14.5 L10.0004087,18.4357785 L3.0004087,20.8857785 Z M29.0004087,20.8857785 L29.0004087,9.84928557 L19.7286651,4.28623939 C19.0182947,3.86001715 18.7879471,2.93862677 19.2141693,2.22825637 C19.6403916,1.51788597 20.5617819,1.28753837 21.2721523,1.71376061 L31.2721523,7.71376061 C31.7239605,7.98484548 32.0004087,8.47310572 32.0004087,9 L32.0004087,22.9650861 C32.0037533,23.1077912 31.9866245,23.2529424 31.9471033,23.3965541 C31.8920329,23.597168 31.7960417,23.7836829 31.6657376,23.9444915 C31.545998,24.0903114 31.4121243,24.2036924 31.2636161,24.2913611 L21.2721523,30.2862394 C20.5617819,30.7124616 19.6403916,30.482114 19.2141693,29.7717436 C18.7879471,29.0613732 19.0182947,28.1399829 19.7286651,27.7137606 L26.9861907,23.3592452 L20.0048831,20.9157875 C19.4032529,20.705217 19.0004087,20.1374157 19.0004087,19.5 L19.0004087,14.5 C19.0004087,13.6715729 19.6719816,13 20.5004087,13 C21.3288358,13 22.0004087,13.6715729 22.0004087,14.5 L22.0004087,18.4357785 L29.0004087,20.8857785 Z" style="mix-blend-mode:multiply"/>
  </g>
</svg>
