<svg xmlns="http://www.w3.org/2000/svg" width="32" height="32" viewBox="0 0 32 32">
  <g fill="none" fill-rule="evenodd">
    <path fill="#14A7DF" d="M17.2134,17.9985 L11.3034,21.5215 C10.7674,21.8425 10.1584,21.2335 10.4794,20.6975 L14.0024,14.7875 C14.7824,13.4775 16.5884,13.2535 17.6664,14.3315 L17.6694,14.3345 C18.7474,15.4125 18.5234,17.2185 17.2134,17.9985" style="mix-blend-mode:multiply"/>
    <path fill="#00BFB3" d="M14.7876,14.0024 L20.6976,10.4794 C21.2336,10.1584 21.8426,10.7674 21.5216,11.3034 L17.9986,17.2134 C17.2186,18.5234 15.4126,18.7474 14.3346,17.6694 L14.3316,17.6664 C13.2536,16.5884 13.4776,14.7824 14.7876,14.0024" style="mix-blend-mode:multiply"/>
    <path fill="#00BFB3" d="M17.5090887 4.41995062C17.2015591 3.10163375 16.5865.465 16.5865.465 16.4415-.155 15.5595-.155 15.4145.465L14.4847773 4.45053278C14.2670182 5.38402185 17.7292258 5.36363375 17.5090887 4.41995062zM14.5747507 27.936065L15.4145 31.5359C15.5595 32.1559 16.4415 32.1559 16.5865 31.5359 16.5865 31.5359 17.1873648 28.9601144 17.4877972 27.6722216 17.7150315 26.6981144 14.3270005 26.87401 14.5747507 27.936065zM4.57688262 14.4553031C3.20625508 14.7750354.465 15.4145.465 15.4145-.155 15.5595-.155 16.4415.465 16.5865.465 16.5865 3.11828895 17.2054444 4.44493342 17.5149165 5.38028895 17.733111 5.46825508 14.2473687 4.57688262 14.4553031zM27.2736613 14.4202755C26.4323409 14.224017 26.6431286 17.7278116 27.5898429 17.5069674 28.9051286 17.2001449 31.5357 16.5865 31.5357 16.5865 32.1557 16.4415 32.1557 15.5595 31.5357 15.4145 31.5357 15.4145 28.6943409 14.7516837 27.2736613 14.4202755z"/>
    <path fill="#00A9E5" d="M16.0005,26.0005 C10.4771667,26.0005 6.0005,21.5238333 6.0005,16.0005 C6.0005,10.4771667 10.4771667,6.0005 16.0005,6.0005 C21.5238333,6.0005 26.0005,10.4771667 26.0005,16.0005 C26.0005,21.5238333 21.5238333,26.0005 16.0005,26.0005 M16.0005,3.0005 C8.82125,3.0005 3.0005,8.82125 3.0005,16.0005 C3.0005,23.17975 8.82125,29.0005 16.0005,29.0005 C23.17975,29.0005 29.0005,23.17975 29.0005,16.0005 C29.0005,8.82125 23.17975,3.0005 16.0005,3.0005"/>
  </g>
</svg>
