<svg xmlns="http://www.w3.org/2000/svg" width="32" height="32" viewBox="0 0 32 32">
  <g fill="none" fill-rule="evenodd">
    <path fill="#00BFB3" d="M10.5857864,18 L9,18 L9,30 L11,30 L11,18.4142136 L18.4852814,25.8994949 L19.8994949,24.4852814 L12.4142136,17 L23,17 L23,15 L11,15 L11,16.4142136 L10,17.4142136 L10.5857864,18 Z M11,15 L9,15 L9,3 L11,3 L11,15 Z"/>
    <path fill="#00A9E5" d="M20 23C21.6575 23 23 24.3425 23 26 23 27.6575 21.6575 29 20 29 18.3425 29 17 27.6575 17 26 17 24.3425 18.3425 23 20 23zM28 16C28 17.6575 26.6575 19 25 19 23.3425 19 22 17.6575 22 16 22 14.3425 23.3425 13 25 13 26.6575 13 28 14.3425 28 16zM7 29C7 27.3425 8.3425 26 10 26 11.6575 26 13 27.3425 13 29 13 30.6575 11.6575 32 10 32 8.3425 32 7 30.6575 7 29M7 3C7 1.3425 8.3425 0 10 0 11.6575 0 13 1.3425 13 3 13 4.6575 11.6575 6 10 6 8.3425 6 7 4.6575 7 3M16 16C16 19.3132 13.3132 22 10 22 6.6868 22 4 19.3132 4 16 4 12.6868 6.6868 10 10 10 13.3132 10 16 12.6868 16 16"/>
  </g>
</svg>
