<svg xmlns="http://www.w3.org/2000/svg" xmlns:xlink="http://www.w3.org/1999/xlink" width="16" height="16" viewBox="0 0 16 16">
  <defs>
    <path id="brush-a" d="M11.9928058,8.16982791 C11.9928058,9.00087929 11.3203437,9.67717623 10.4940048,9.67717623 L5.4980016,9.67717623 C4.67166267,9.67717623 3.99920064,9.00087929 3.99920064,8.16982791 L3.99920064,6.66247959 L11.9928058,6.66247959 L11.9928058,8.16982791 Z M8.99520384,14.1680693 C8.99520384,14.6232885 8.54656275,14.9951011 7.9960032,14.9951011 C7.44544365,14.9951011 6.99680256,14.6232885 6.99680256,14.1680693 L6.99680256,10.6820751 L8.99520384,10.6820751 L8.99520384,14.1680693 Z M3.99920064,5.65758071 L3.99920064,1.00489888 L5.26119105,1.00489888 L5.26119105,5.65758071 L3.99920064,5.65758071 Z M6.26039169,5.65758071 L6.26039169,1.00489888 L7.50439648,1.00489888 L7.50439648,5.65758071 L6.26039169,5.65758071 Z M8.50359712,5.65758071 L8.50359712,1.00489888 L9.73860911,1.00489888 L9.73860911,5.65758071 L8.50359712,5.65758071 Z M10.7378098,5.65758071 L10.7378098,1.00489888 L11.9918066,1.00489888 L11.9918066,5.65758071 L10.7378098,5.65758071 Z M3.00799361,-1.8e-15 L3,8.16982791 C3,9.55457857 4.12110312,10.6820751 5.4980016,10.6820751 L5.99760192,10.6820751 L5.99760192,14.1680693 C5.99760192,15.1779927 6.89388489,16 7.9960032,16 C9.0981215,16 9.99440448,15.1779927 9.99440448,14.1680693 L9.99440448,10.6820751 L10.4940048,10.6820751 C11.8709033,10.6820751 12.9920064,9.55457857 12.9920064,8.16982791 L13,-1.8e-15 L3.00799361,-1.8e-15 Z"/>
  </defs>
  <g>
    <use xlink:href="#brush-a"/>
  </g>
</svg>
