<svg xmlns="http://www.w3.org/2000/svg" xmlns:xlink="http://www.w3.org/1999/xlink" width="16" height="16" viewBox="0 0 16 16">
  <defs>
    <path id="cross-a" d="M7.29289322,8 L3.14644661,12.1464466 C2.95118446,12.3417088 2.95118446,12.6582912 3.14644661,12.8535534 C3.34170876,13.0488155 3.65829124,13.0488155 3.85355339,12.8535534 L8,8.70710678 L12.1464466,12.8535534 C12.3417088,13.0488155 12.6582912,13.0488155 12.8535534,12.8535534 C13.0488155,12.6582912 13.0488155,12.3417088 12.8535534,12.1464466 L8.70710678,8 L12.8535534,3.85355339 C13.0488155,3.65829124 13.0488155,3.34170876 12.8535534,3.14644661 C12.6582912,2.95118446 12.3417088,2.95118446 12.1464466,3.14644661 L8,7.29289322 L3.85355339,3.14644661 C3.65829124,2.95118446 3.34170876,2.95118446 3.14644661,3.14644661 C2.95118446,3.34170876 2.95118446,3.65829124 3.14644661,3.85355339 L7.29289322,8 Z"/>
  </defs>
  <g fill-rule="evenodd">
    <use fill-rule="nonzero" xlink:href="#cross-a"/>
  </g>
</svg>
