<svg xmlns="http://www.w3.org/2000/svg" width="16" height="16" viewBox="0 0 16 16">
  <g fill="#13252D" fill-rule="evenodd">
    <circle cx="5" cy="5" r="1"/>
    <circle cx="10" cy="5" r="1"/>
    <path fill-rule="nonzero" d="M7.5,14 C11.0898509,14 14,11.0898509 14,7.5 C14,3.91014913 11.0898509,1 7.5,1 C3.91014913,1 1,3.91014913 1,7.5 C1,11.0898509 3.91014913,14 7.5,14 Z M7.5,15 C3.35786438,15 0,11.6421356 0,7.5 C0,3.35786438 3.35786438,0 7.5,0 C11.6421356,0 15,3.35786438 15,7.5 C15,11.6421356 11.6421356,15 7.5,15 Z"/>
    <path fill-rule="nonzero" d="M2.66781808,8.37370466 C4.25327408,9.78299888 5.8665266,10.5 7.5,10.5 C9.1334734,10.5 10.7467259,9.78299888 12.3321819,8.37370466 C12.5385733,8.19024565 12.5571637,7.87420946 12.3737047,7.66781808 C12.1902457,7.4614267 11.8742095,7.44283633 11.6678181,7.62629534 C10.2532741,8.88366779 8.8665266,9.5 7.5,9.5 C6.1334734,9.5 4.74672592,8.88366779 3.33218192,7.62629534 C3.12579054,7.44283633 2.80975435,7.4614267 2.62629534,7.66781808 C2.44283633,7.87420946 2.4614267,8.19024565 2.66781808,8.37370466 Z" transform="rotate(180 7.5 9)"/>
  </g>
</svg>
