<svg xmlns="http://www.w3.org/2000/svg" width="16" height="16" viewBox="0 0 16 16">
  <g fill="#13252D" fill-rule="evenodd">
    <circle cx="5" cy="5" r="1"/>
    <circle cx="10" cy="5" r="1"/>
    <path fill-rule="nonzero" d="M7.5,14 C11.0898509,14 14,11.0898509 14,7.5 C14,3.91014913 11.0898509,1 7.5,1 C3.91014913,1 1,3.91014913 1,7.5 C1,11.0898509 3.91014913,14 7.5,14 Z M7.5,15 C3.35786438,15 0,11.6421356 0,7.5 C0,3.35786438 3.35786438,0 7.5,0 C11.6421356,0 15,3.35786438 15,7.5 C15,11.6421356 11.6421356,15 7.5,15 Z"/>
    <path fill-rule="nonzero" d="M3,10 L12,10 C12.2761424,10 12.5,9.77614237 12.5,9.5 C12.5,9.22385763 12.2761424,9 12,9 L3,9 C2.72385763,9 2.5,9.22385763 2.5,9.5 C2.5,9.77614237 2.72385763,10 3,10 Z"/>
  </g>
</svg>
