<svg xmlns="http://www.w3.org/2000/svg" xmlns:xlink="http://www.w3.org/1999/xlink" width="16" height="16" viewBox="0 0 16 16">
  <defs>
    <path id="gear-a" d="M0.164356501,10.3288705 L1.869208,8 L0.162988127,5.66926031 C0.342152037,5.06867013 0.593705353,4.47929995 0.920771172,3.91280533 C1.24783699,3.34631071 1.63246988,2.83377406 2.06301429,2.37831847 L4.934604,2.69057838 L6.09903922,0.0496984487 C7.33187636,-0.245299057 8.63433787,-0.255628942 9.89988387,0.0472560727 L11.065396,2.69057838 L13.9373363,2.37828034 C14.8324155,3.32283282 15.4747003,4.45596252 15.8356435,5.67112955 L14.130792,8 L15.8370119,10.3307397 C15.657848,10.9313299 15.4062946,11.5207001 15.0792288,12.0871947 C14.752163,12.6536893 14.3675301,13.1662259 13.9369857,13.6216815 L11.065396,13.3094216 L9.90096078,15.9503016 C8.66812364,16.2452991 7.36566213,16.2556289 6.10011613,15.9527439 L4.934604,13.3094216 L2.06266366,13.6217197 C1.16758455,12.6771672 0.525299735,11.5440375 0.164356501,10.3288705 Z M4.82650013,12.315282 C5.2598238,12.2681619 5.67375146,12.5071432 5.84960608,12.9059725 L6.80673894,15.0767012 C7.59732758,15.209866 8.40437076,15.2084025 9.19421624,15.0745349 L10.1503939,12.9059725 C10.3262485,12.5071432 10.7401762,12.2681619 11.1734999,12.315282 L13.5308785,12.571626 C13.7832788,12.265414 14.0114403,11.9366586 14.2132034,11.5871947 C14.4149665,11.2377307 14.5855963,10.8757593 14.7245836,10.5040683 L13.3238938,8.59069049 C13.0664247,8.23898125 13.0664247,7.76101875 13.3238938,7.40930951 L14.7238351,5.49695416 C14.4448451,4.74599409 14.0425909,4.04634244 13.5319725,3.42825501 L11.1734999,3.68471798 C10.7401762,3.73183809 10.3262485,3.49285684 10.1503939,3.09402749 L9.19326106,0.923298791 C8.40267242,0.790133973 7.59562924,0.791597466 6.80578376,0.925465104 L5.84960608,3.09402749 C5.67375146,3.49285684 5.2598238,3.73183809 4.82650013,3.68471798 L2.46912145,3.42837396 C2.21672124,3.73458601 1.9885597,4.06334135 1.78679658,4.41280533 C1.58503345,4.76226931 1.41440374,5.12424067 1.27541644,5.49593169 L2.67610622,7.40930951 C2.93357526,7.76101875 2.93357526,8.23898125 2.67610622,8.59069049 L1.27616494,10.5030458 C1.5551549,11.2540059 1.95740907,11.9536576 2.46802751,12.571745 L4.82650013,12.315282 Z M8,11 C6.34314575,11 5,9.65685425 5,8 C5,6.34314575 6.34314575,5 8,5 C9.65685425,5 11,6.34314575 11,8 C11,9.65685425 9.65685425,11 8,11 Z M8,10 C9.1045695,10 10,9.1045695 10,8 C10,6.8954305 9.1045695,6 8,6 C6.8954305,6 6,6.8954305 6,8 C6,9.1045695 6.8954305,10 8,10 Z"/>
  </defs>
  <g>
    <use fill-rule="nonzero" xlink:href="#gear-a"/>
  </g>
</svg>
