<svg xmlns="http://www.w3.org/2000/svg" xmlns:xlink="http://www.w3.org/1999/xlink" width="16" height="16" viewBox="0 0 16 16">
  <defs>
    <path id="help-a" d="M13.6008,12.1863 L12.2428,10.8283 C12.2178,10.8033 12.1848,10.7943 12.1588,10.7723 C12.6888,9.9783 12.9998,9.0263 12.9998,7.9993 C12.9998,6.9743 12.6888,6.0213 12.1588,5.2273 C12.1848,5.2063 12.2178,5.1963 12.2428,5.1713 L13.6008,3.8133 C14.4758,4.9823 14.9998,6.4283 14.9998,7.9993 C14.9998,9.5723 14.4758,11.0183 13.6008,12.1863 L13.6008,12.1863 Z M7.9998,14.9993 C6.4278,14.9993 4.9818,14.4753 3.8138,13.6003 L5.1718,12.2423 C5.1968,12.2173 5.2058,12.1853 5.2268,12.1583 C6.0208,12.6883 6.9738,12.9993 7.9998,12.9993 C9.0258,12.9993 9.9788,12.6883 10.7728,12.1583 C10.7938,12.1853 10.8038,12.2173 10.8288,12.2423 L12.1858,13.6003 C11.0178,14.4753 9.5718,14.9993 7.9998,14.9993 L7.9998,14.9993 Z M2.3988,12.1863 C1.5248,11.0183 0.9998,9.5723 0.9998,7.9993 C0.9998,6.4283 1.5248,4.9823 2.3988,3.8133 L3.7578,5.1713 C3.7818,5.1963 3.8148,5.2063 3.8418,5.2273 C3.3108,6.0213 2.9998,6.9743 2.9998,7.9993 C2.9998,9.0263 3.3108,9.9783 3.8418,10.7723 C3.8148,10.7943 3.7818,10.8033 3.7578,10.8283 L2.3988,12.1863 Z M7.9998,11.9993 C5.7908,11.9993 3.9998,10.2093 3.9998,7.9993 C3.9998,5.7903 5.7908,3.9993 7.9998,3.9993 C10.2088,3.9993 11.9998,5.7903 11.9998,7.9993 C11.9998,10.2093 10.2088,11.9993 7.9998,11.9993 L7.9998,11.9993 Z M7.9998,0.9993 C9.5718,0.9993 11.0178,1.5243 12.1858,2.3993 L10.8288,3.7573 C10.8038,3.7823 10.7938,3.8143 10.7728,3.8413 C9.9788,3.3113 9.0258,2.9993 7.9998,2.9993 C6.9738,2.9993 6.0208,3.3113 5.2268,3.8413 C5.2058,3.8143 5.1968,3.7823 5.1718,3.7573 L3.8138,2.3993 C4.9818,1.5243 6.4278,0.9993 7.9998,0.9993 L7.9998,0.9993 Z M7.9998,-0.0007 C3.5818,-0.0007 -0.0002,3.5823 -0.0002,7.9993 C-0.0002,12.4183 3.5818,15.9993 7.9998,15.9993 C12.4178,15.9993 15.9998,12.4183 15.9998,7.9993 C15.9998,3.5823 12.4178,-0.0007 7.9998,-0.0007 L7.9998,-0.0007 Z"/>
  </defs>
  <g fill-rule="evenodd">
    <use xlink:href="#help-a"/>
  </g>
</svg>
