<svg xmlns="http://www.w3.org/2000/svg" xmlns:xlink="http://www.w3.org/1999/xlink" width="16" height="16" viewBox="0 0 16 16">
  <defs>
    <path id="link-a" d="M3.832,15.7111579 C3.04463158,15.7111579 2.30442105,15.4042105 1.74778947,14.8475789 L1.152,14.2526316 C0.00294736842,13.1035789 0.00294736842,11.2332632 1.152,10.0846316 L5.02231579,6.21431579 C5.57894737,5.65768421 6.31915789,5.35073684 7.10652632,5.35073684 C7.89389474,5.35073684 8.63410526,5.65768421 9.19031579,6.21431579 L9.78568421,6.80968421 C9.95031579,6.97431579 9.95031579,7.24042105 9.78568421,7.40505263 C9.62105263,7.56968421 9.35494737,7.56968421 9.19031579,7.40505263 L8.59494737,6.80968421 C8.19747368,6.41221053 7.66863158,6.19284211 7.10652632,6.19284211 C6.544,6.19284211 6.01515789,6.41221053 5.61768421,6.80968421 L1.74736842,10.6795789 C0.926736842,11.5002105 0.926736842,12.8357895 1.74736842,13.6568421 L2.34273684,14.2522105 C2.74021053,14.6496842 3.26905263,14.8690526 3.83157895,14.8690526 C4.39368421,14.8690526 4.92252632,14.6496842 5.32,14.2522105 L8,11.5726316 C8.16463158,11.408 8.43073684,11.408 8.59536842,11.5726316 C8.76,11.7372632 8.76,12.0033684 8.59536842,12.168 L5.91578947,14.8475789 C5.35957895,15.4046316 4.61936842,15.7111579 3.832,15.7111579 Z M8.89305263,10.6496842 C8.10610526,10.6496842 7.36547368,10.3427368 6.80926316,9.78610526 C6.64463158,9.62147368 6.64463158,9.35536842 6.80926316,9.19073684 C6.97389474,9.02610526 7.24,9.02610526 7.40463158,9.19073684 C7.80210526,9.58821053 8.33094737,9.80757895 8.89305263,9.80757895 C9.45557895,9.80757895 9.98442105,9.58821053 10.3818947,9.19073684 L14.2522105,5.32042105 C15.0728421,4.49978947 15.0728421,3.16421053 14.2522105,2.34357895 L13.6572632,1.74736842 C12.8366316,0.926736842 11.5006316,0.926736842 10.68,1.74736842 L8,4.42736842 C7.83536842,4.592 7.56926316,4.592 7.40463158,4.42736842 C7.24,4.26273684 7.24,3.99663158 7.40463158,3.832 L10.0842105,1.15242105 C11.2332632,0.00336842105 13.1031579,0.00336842105 14.2522105,1.15242105 L14.8475789,1.74821053 C15.9966316,2.89726316 15.9966316,4.76715789 14.8475789,5.91578947 L10.9772632,9.78610526 C10.4210526,10.3427368 9.68042105,10.6496842 8.89305263,10.6496842 Z"/>
  </defs>
  <g>
    <use xlink:href="#link-a"/>
  </g>
</svg>
