<svg xmlns="http://www.w3.org/2000/svg" xmlns:xlink="http://www.w3.org/1999/xlink" width="16" height="16" viewBox="0 0 16 16">
  <defs>
    <path id="lock-a" d="M3,5 C3,2.239 5.239,0 8,0 C10.761,0 13,2.239 13,5 L14,5 C14.552,5 15,5.448 15,6 L15,15 C15,15.552 14.552,16 14,16 L2,16 C1.448,16 1,15.552 1,15 L1,6 C1,5.448 1.448,5 2,5 L3,5 Z M9.33025929,11.4930834 L10,13 L7.5,13 L6,13 L6.66974071,11.4930834 C6.25885926,11.126706 6,10.5933992 6,10 C6,8.896 6.896,8 8,8 C9.104,8 10,8.896 10,10 C10,10.5933992 9.74114074,11.126706 9.33025929,11.4930834 Z M2,15 L14,15 L14,6 L2,6 L2,15 Z M8,1 C5.794,1 4,2.794 4,5 L12,5 C12,2.794 10.206,1 8,1 Z"/>
  </defs>
  <g fill-rule="evenodd">
    <use xlink:href="#lock-a"/>
  </g>
</svg>
