<svg xmlns="http://www.w3.org/2000/svg" width="32" height="32" viewBox="0 0 32 32">
  <g fill="none" transform="translate(0 1)">
    <path fill="#C73A63" d="M14.9425,12.562875 C13.61625,14.792375 12.345625,16.951375 11.0485,19.094125 C10.715375,19.64425 10.5505,20.092375 10.816625,20.791625 C11.551375,22.723375 10.514875,24.60325 8.566875,25.1135 C6.72975,25.594875 4.939875,24.3875 4.575375,22.420625 C4.252375,20.67975 5.603375,18.973125 7.522875,18.701 C7.683625,18.678 7.847875,18.675375 8.118125,18.655125 L11.037875,13.759125 C9.2015,11.933125 8.1085,9.79875 8.350375,7.15375 C8.521375,5.284125 9.256625,3.668375 10.600375,2.344125 C13.174125,-0.191875 17.100625,-0.6025 20.131125,1.344 C23.041625,3.21375 24.374625,6.85575 23.238375,9.972875 C22.381625,9.740625 21.518875,9.506375 20.5705,9.249125 C20.92725,7.516 20.663375,5.95975 19.4945,4.6265 C18.72225,3.74625 17.73125,3.284875 16.6045,3.114875 C14.3455,2.773625 12.127625,4.224875 11.4695,6.442125 C10.7225,8.958375 11.853125,11.014 14.9425,12.563 L14.9425,12.562875 Z"/>
    <path fill="#4B4B4B" d="M18.730125,9.92625 C19.6645,11.574625 20.61325,13.247875 21.5535,14.90575 C26.306,13.435375 29.88925,16.06625 31.17475,18.882875 C32.7275,22.28525 31.666,26.315 28.616625,28.414125 C25.486625,30.568875 21.52825,30.20075 18.755125,27.43275 C19.461875,26.841125 20.172125,26.246875 20.931,25.612 C23.67,27.386 26.065625,27.3025 27.844125,25.20175 C29.36075,23.409625 29.327875,20.7375 27.76725,18.983 C25.96625,16.958375 23.553875,16.896625 20.637875,18.840125 C19.42825,16.694125 18.197625,14.56525 17.02625,12.40375 C16.63125,11.67525 16.19525,11.2525 15.305,11.098375 C13.818375,10.840625 12.858625,9.564 12.801,8.13375 C12.744375,6.71925 13.57775,5.440625 14.88025,4.9425 C16.1705,4.448875 17.684625,4.84725 18.5525,5.94425 C19.26175,6.8405 19.487125,7.84925 19.113875,8.954625 C19.010125,9.262875 18.87575,9.561125 18.730125,9.926375 L18.730125,9.92625 Z"/>
    <path fill="#4A4A4A" d="M20.963375,23.40125 L15.242125,23.40125 C14.69375,25.65675 13.50925,27.47775 11.468375,28.63575 C9.88175,29.53575 8.17175,29.840875 6.35175,29.547 C3.00075,29.006625 0.26075,25.99 0.0195,22.59325 C-0.2535,18.74525 2.391375,15.324875 5.91675,14.556625 C6.160125,15.4405 6.406125,16.332875 6.6495,17.214625 C3.415,18.864875 2.2955,20.944125 3.20075,23.544125 C3.997625,25.832125 6.26125,27.08625 8.719125,26.60125 C11.229125,26.106 12.494625,24.02 12.340125,20.67225 C14.719625,20.67225 17.101125,20.647625 19.480875,20.684375 C20.410125,20.699 21.1275,20.602625 21.8275,19.783375 C22.98,18.435375 25.101375,18.557 26.342625,19.830125 C27.611125,21.13125 27.550375,23.22475 26.208,24.471 C24.912875,25.6735 22.86675,25.60925 21.655,24.3135 C21.406,24.0465 21.20975,23.729375 20.963375,23.40125 Z"/>
  </g>
</svg>
