<svg xmlns="http://www.w3.org/2000/svg" width="32" height="32" viewBox="0 0 32 32">
  <g fill="none" fill-rule="evenodd">
    <path fill="#EF5098" d="M0.395294118,3.63921569 C0.395294118,1.90655765 1.79989098,0.501960784 3.53254902,0.501960784 L28.4737255,0.501960784 C30.2063835,0.501960784 31.6109804,1.90655765 31.6109804,3.63921569 L31.6109804,9.87607843 L0.395294118,9.87607843 L0.395294118,3.63921569 Z"/>
    <path fill="#14A8E0" d="M0.395294118,22.3560784 L15.2156863,22.3560784 L15.2156863,31.7176471 L3.51372549,31.7176471 C1.81242851,31.7182222 0.420704215,30.3626827 0.376470588,28.6619608 L0.395294118,22.3560784 Z"/>
    <path fill="#FDD10D" d="M16.7780392,22.3560784 L31.5984314,22.3560784 L31.5984314,28.5929412 C31.5984314,30.3255992 30.1938345,31.7301961 28.4611765,31.7301961 L16.7780392,31.7301961 L16.7780392,22.3560784 Z"/>
    <rect width="31.197" height="9.362" x=".395" y="11.438" fill="#20BBB1" fill-rule="nonzero"/>
  </g>
</svg>
