<svg xmlns="http://www.w3.org/2000/svg" width="32" height="32" viewBox="0 0 32 32">
  <g fill="none">
    <path fill="#FDD10D" d="M22.3808934,1.80007788 L23.872322,1.80007788 C26.354725,1.80006988 28.3688786,3.80911142 28.3751791,6.29150645 L28.3751791,15.0343636 L18.0894648,15.0343636 L18.0894648,6.09722074 C18.0894648,3.72397427 20.0133612,1.80007788 22.3866077,1.80007788 L22.3808934,1.80007788 Z" transform="rotate(45 23.232 8.417)"/>
    <path fill="#0479A1" d="M7.63428571,16.7314286 L1.39428571,22.9657143 C0.566585321,23.7930703 0.101559123,24.9154126 0.101559123,26.0857143 C0.101559123,27.2560159 0.566585321,28.3783582 1.39428571,29.2057143 L2.43428571,30.2457143 C3.26164176,31.0734147 4.38398406,31.5384409 5.55428571,31.5384409 C6.72458737,31.5384409 7.84692967,31.0734147 8.67428571,30.2457143 L14.9085714,24 L7.63428571,16.7314286 Z"/>
    <path fill="#17A8E0" d="M21.1428571,15.6914286 L8.67428571,3.21142857 C7.84692967,2.38372818 6.72458737,1.91870198 5.55428571,1.91870198 C4.38398406,1.91870198 3.26164176,2.38372818 2.43428571,3.21142857 L1.39428571,4.25142857 C0.566585321,5.07878462 0.101559123,6.20112692 0.101559123,7.37142857 C0.101559123,8.54173023 0.566585321,9.66407253 1.39428571,10.4914286 L7.63428571,16.7314286 L8.67428571,15.6914286 C12.118813,12.2517729 17.6983299,12.2517729 21.1428571,15.6914286 L21.1428571,15.6914286 Z"/>
    <path fill="#353535" d="M21.1428571,15.6914286 C17.6976741,12.247967 12.1137545,12.247967 8.66857143,15.6914286 L7.62857143,16.7314286 L7.62857143,16.7314286 L14.9085714,24 L22.1885714,16.7314286 L21.1428571,15.6914286 Z"/>
    <path fill="#20BBB1" d="M28.4285714,22.9657143 L24.2685714,18.8057143 L16.9885714,26.0857143 L21.1428571,30.2457143 C21.9702132,31.0734147 23.0925555,31.5384409 24.2628571,31.5384409 C25.4331588,31.5384409 26.5555011,31.0734147 27.3828571,30.2457143 L28.4228571,29.2057143 C29.2513156,28.3791165 29.7173699,27.2571999 29.7184416,26.0868981 C29.7195133,24.9165963 29.2555146,23.7938281 28.4285714,22.9657143 L28.4285714,22.9657143 Z"/>
    <rect width="10.291" height="2.943" x="14.446" y="19.937" fill="#009B8F" transform="rotate(-45 19.592 21.408)"/>
  </g>
</svg>
