<svg xmlns="http://www.w3.org/2000/svg" width="32" height="32" viewBox="0 0 32 32">
  <g fill="none" fill-rule="evenodd" transform="translate(3)">
    <path fill="#17A8E0" fill-rule="nonzero" d="M11.2984615,0.412307692 L0.430769231,0.412307692 L0.430769231,12.8307692 L15.9569231,12.8307692 C17.2652407,12.8288327 18.5591822,13.1035593 19.7538462,13.6369231 C20.3228469,12.410692 20.6168911,11.0748913 20.6153846,9.72307692 L20.6153846,9.72307692 C20.6119875,4.57988578 16.4416538,0.41230657 11.2984615,0.412307692 L11.2984615,0.412307692 Z"/>
    <path fill="#353535" fill-rule="nonzero" d="M0.430769231,12.8307692 L0.430769231,19.04 L11.2984615,19.04 C14.9274644,19.041264 18.2269805,16.9352411 19.7538462,13.6430769 C18.5591822,13.1097132 17.2652407,12.8349865 15.9569231,12.8369231 L0.430769231,12.8307692 Z"/>
    <path d="M13.8646154 21.8769231L13.7353846 21.8769231 13.8646154 21.8769231zM15.4953846 21.4092308L15.3723077 21.4461538 15.4953846 21.4092308zM14.6892308 21.6676923L14.5230769 21.7107692 14.6892308 21.6676923z"/>
    <path fill="#20BBB1" fill-rule="nonzero" d="M22.3507692,15.3846154 C20.9104214,18.1870782 18.4637777,20.3413556 15.5015385,21.4153846 L15.3784615,21.4523077 C15.1507692,21.5323077 14.9230769,21.6061538 14.6953846,21.6738462 L14.5292308,21.7169231 C14.3138462,21.7784615 14.0923077,21.8338462 13.8707692,21.8830769 L13.7415385,21.8830769 C12.9313749,22.0475898 12.1066975,22.1300575 11.28,22.1292308 L0.430769231,22.1292308 L0.430769231,31.4646154 L15.9569231,31.4646154 C21.1001153,31.4646165 25.2704491,27.2970373 25.2738462,22.1538462 L25.2738462,22.1538462 C25.2761838,19.5905727 24.2181941,17.1404913 22.3507692,15.3846154 L22.3507692,15.3846154 Z"/>
    <path fill="#009B90" fill-rule="nonzero" d="M13.7353846,21.9015385 L13.8646154,21.9015385 C14.0861538,21.8523077 14.3076923,21.7969231 14.5230769,21.7353846 L14.6892308,21.6923077 C14.9230769,21.6246154 15.1507692,21.5507692 15.3723077,21.4707692 L15.4953846,21.4338462 C18.4631185,20.3566602 20.9126096,18.1952151 22.3507692,15.3846154 L22.3507692,15.3846154 C21.5886536,14.6645118 20.7107439,14.0778518 19.7538462,13.6492308 C18.2297156,16.9417762 14.9328139,19.0500644 11.3046154,19.0523077 L0.430769231,19.0523077 L0.430769231,22.1292308 L11.2984615,22.1292308 C12.1163168,22.1344912 12.93266,22.0582167 13.7353846,21.9015385 Z"/>
  </g>
</svg>
