<svg xmlns="http://www.w3.org/2000/svg" width="32" height="32" viewBox="0 0 32 32">
  <g fill="none" transform="translate(0 4)">
    <path fill="#E65A4D" d="M29.1620202,0.148686869 C29.4529293,-0.0258585859 29.750303,0.0711111111 30.0347475,0.148686869 C31.140202,0.452525253 31.9224242,1.46747475 31.9418182,2.62464646 C31.9482828,2.91555556 31.9353535,3.20646465 31.9353535,3.49090909 C31.8513131,3.49090909 31.799596,3.54262626 31.7349495,3.58787879 C30.920404,4.16969697 30.0929293,4.75151515 29.2848485,5.33979798 C28.9551515,5.5789899 28.5931313,5.76646465 28.3151515,6.07030303 C28.1987879,6.07030303 28.1147475,6.14787879 28.0307071,6.20606061 C25.3414141,8.06141414 22.6521212,9.91030303 19.9692929,11.7656566 C18.6375758,12.6836364 17.3058586,13.6145455 15.9741414,14.5389899 L15.8642424,14.5389899 C15.8060606,14.4937374 15.7543434,14.4355556 15.6961616,14.3967677 C12.4185859,12.1147475 9.1410101,9.83272727 5.86343434,7.55070707 C5.19111111,7.08525253 4.51878788,6.61333333 3.84646465,6.14787879 C3.76888889,6.09616162 3.69777778,5.98626263 3.60080808,6.04444444 C3.51030303,6.09616162 3.56848485,6.2189899 3.55555556,6.3159596 C3.54909091,6.34828283 3.55555556,6.38060606 3.55555556,6.41292929 L3.55555556,22.6068687 C3.55555556,22.7232323 3.5620202,22.8460606 3.56848485,22.9624242 C3.56848485,23.0270707 3.5620202,23.0852525 3.5620202,23.149899 C2.33373737,23.2985859 1.21535354,23.1305051 0.446060606,22.0185859 C0.168080808,21.6113131 0.00646464646,21.1587879 0.00646464646,20.6545455 C0.00646464646,14.6230303 2.96811187e-15,8.5979798 0.0129292929,2.56646465 C0.0129292929,1.33818182 1.00848485,0.252121212 2.23030303,0.0775757576 C2.42424242,0.0517171717 2.61818182,0.0258585859 2.78626263,0.155151515 C2.82505051,0.193939394 2.85737374,0.232727273 2.90262626,0.265050505 C7.17575758,3.43272727 11.4488889,6.60040404 15.7220202,9.77454545 C15.890101,9.89737374 16,9.89090909 16.1680808,9.76808081 C19.5814141,7.24686869 23.0012121,4.73212121 26.4145455,2.21737374 C27.319596,1.52565657 28.2375758,0.833939394 29.1620202,0.148686869 Z"/>
    <path fill="#F6F4EC" d="M29.1620202,0.148686869 C28.2375758,0.833939394 27.319596,1.52565657 26.3951515,2.21090909 C22.9818182,4.73212121 19.5620202,7.24040404 16.1486869,9.76161616 C15.9806061,9.88444444 15.8771717,9.89090909 15.7026263,9.76808081 C11.4359596,6.59393939 7.16282828,3.43272727 2.88969697,0.258585859 C2.84444444,0.226262626 2.81212121,0.187474747 2.77333333,0.148686869 C2.85090909,0.0193939394 2.98666667,0.0646464646 3.09656566,0.0646464646 L28.8387879,0.0646464646 C28.9486869,0.0646464646 29.0779798,0.0193939394 29.1620202,0.148686869 Z"/>
    <path fill="#E6E3D6" d="M3.55555556,22.9494949 C3.54909091,22.8331313 3.54262626,22.710303 3.54262626,22.5939394 L3.54262626,6.4 C3.54262626,6.36767677 3.53616162,6.33535354 3.54262626,6.3030303 C3.55555556,6.21252525 3.49737374,6.08969697 3.58787879,6.03151515 C3.68484848,5.97333333 3.76242424,6.08323232 3.83353535,6.13494949 C4.50585859,6.60040404 5.17818182,7.07232323 5.85050505,7.53777778 C9.12808081,9.81979798 12.4056566,12.1018182 15.6832323,14.3838384 C15.7414141,14.4290909 15.799596,14.4808081 15.8513131,14.5260606 C15.8254545,14.5519192 15.7931313,14.5713131 15.7672727,14.5971717 C15.7478788,14.6165657 15.7220202,14.6424242 15.7026263,14.6618182 C15.6509091,14.6618182 15.5991919,14.6747475 15.5733333,14.7264646 C15.5539394,14.7458586 15.5280808,14.7717172 15.5086869,14.7911111 C15.5022222,14.8040404 15.4892929,14.8105051 15.4828283,14.8234343 C15.4957576,14.8169697 15.5022222,14.8040404 15.5151515,14.7975758 C15.5345455,14.7781818 15.560404,14.7523232 15.579798,14.7329293 C15.6315152,14.7329293 15.6832323,14.72 15.7090909,14.6682828 C15.7284848,14.6488889 15.7543434,14.6230303 15.7737374,14.6036364 C15.8383838,14.6036364 15.9030303,14.5971717 15.9676768,14.5971717 C16.8662626,15.2242424 17.7713131,15.8448485 18.669899,16.4719192 C21.3462626,18.3272727 24.0226263,20.1761616 26.6925253,22.0444444 C27.1709091,22.3806061 27.6945455,22.6715152 28.1212121,23.0787879 C28.0048485,23.1886869 27.8626263,23.1175758 27.7333333,23.1369697 C27.739798,22.9882828 27.6105051,22.9494949 27.5135354,22.8848485 C27.0222222,22.5422222 26.5179798,22.2125253 26.039596,21.8569697 C25.2379798,21.2686869 24.4234343,20.7062626 23.6088889,20.1373737 C22.930101,19.6654545 22.2577778,19.1741414 21.559596,18.7280808 C20.9519192,18.340202 20.3894949,17.8747475 19.7818182,17.480404 C19.0965657,17.0408081 18.450101,16.5494949 17.7713131,16.1034343 C17.2088889,15.7349495 16.6593939,15.3406061 16.109899,14.9527273 C16,14.8751515 15.9030303,14.8428283 15.7866667,14.920404 C15.5539394,15.0884848 15.2565657,15.1983838 15.0626263,15.3793939 C14.5066667,15.890101 13.8278788,16.219798 13.2460606,16.6852525 C12.5026263,17.2735354 11.7010101,17.7971717 10.9058586,18.3208081 C9.58707071,19.1935354 8.30707071,20.1373737 6.99474747,21.0165657 C6.21252525,21.540202 5.43676768,22.070303 4.68686869,22.6456566 C4.48,22.8008081 4.2020202,22.8719192 4.07272727,23.1305051 C3.94343434,23.1175758 3.80121212,23.1692929 3.67838384,23.0852525 C5.99272727,21.4690909 8.30707071,19.8593939 10.6149495,18.2432323 C10.9187879,18.029899 11.2614141,17.8618182 11.5135354,17.5773737 C11.5587879,17.5644444 11.6169697,17.5579798 11.6105051,17.4933333 C11.6105051,17.4868687 11.5975758,17.4739394 11.5911111,17.4739394 C11.5264646,17.4674747 11.5135354,17.5191919 11.5006061,17.5644444 C11.2678788,17.5773737 11.1256566,17.7583838 10.9511111,17.8747475 C8.48808081,19.5749495 6.01858586,21.2622222 3.55555556,22.9494949 Z M14.6747475,15.3858586 C14.6941414,15.3664646 14.72,15.3406061 14.7393939,15.3212121 C14.7911111,15.3212121 14.8428283,15.3082828 14.8686869,15.2565657 C14.8880808,15.2371717 14.9139394,15.2113131 14.9333333,15.1919192 C14.9850505,15.1919192 15.0367677,15.1789899 15.0626263,15.1272727 C15.0690909,15.1143434 15.0820202,15.1078788 15.0884848,15.0949495 C15.0755556,15.1014141 15.0690909,15.1143434 15.0561616,15.1208081 C15.0044444,15.1208081 14.9527273,15.1337374 14.9268687,15.1854545 L14.8622222,15.250101 C14.8105051,15.250101 14.7587879,15.2630303 14.7329293,15.3147475 C14.7135354,15.3406061 14.6941414,15.36 14.6747475,15.3858586 C14.6618182,15.3923232 14.6488889,15.3987879 14.6424242,15.4117172 C14.6553535,15.4052525 14.6682828,15.3987879 14.6747475,15.3858586 Z M13.8343434,15.9612121 C13.7826263,15.9612121 13.7309091,15.9741414 13.7050505,16.0258586 C13.6662626,16.0323232 13.6145455,16.0323232 13.6080808,16.0905051 C13.6080808,16.1034343 13.6339394,16.1292929 13.6468687,16.1292929 C13.6985859,16.1228283 13.7050505,16.0775758 13.7115152,16.0387879 C13.7632323,16.0323232 13.8084848,16.0258586 13.8343434,15.9612121 C13.860202,15.9482828 13.8860606,15.9224242 13.9054545,15.9030303 C13.9571717,15.9030303 14.0088889,15.890101 14.0347475,15.8383838 C14.0541414,15.8189899 14.08,15.7931313 14.0993939,15.7737374 C14.1511111,15.7737374 14.2028283,15.7608081 14.2286869,15.7090909 C14.2351515,15.6961616 14.2480808,15.689697 14.2545455,15.6767677 C14.2416162,15.6832323 14.2351515,15.6961616 14.2222222,15.7026263 C14.1705051,15.7026263 14.1187879,15.7155556 14.0929293,15.7672727 C14.0735354,15.7866667 14.0476768,15.8125253 14.0282828,15.8319192 C13.9765657,15.8319192 13.9248485,15.8448485 13.8989899,15.8965657 C13.8731313,15.9224242 13.8537374,15.9418182 13.8343434,15.9612121 Z M12.9939394,16.5494949 C12.9422222,16.5494949 12.8905051,16.5624242 12.8646465,16.6141414 C12.8129293,16.6206061 12.7612121,16.6270707 12.7676768,16.6981818 C12.7676768,16.7046465 12.7806061,16.7175758 12.7870707,16.7175758 C12.8581818,16.7240404 12.8646465,16.6723232 12.8711111,16.6206061 C12.9228283,16.6141414 12.9680808,16.6012121 12.9939394,16.5494949 C13.019798,16.5365657 13.0391919,16.5107071 13.0650505,16.4913131 C13.1167677,16.4913131 13.1684848,16.4783838 13.1943434,16.4266667 C13.2137374,16.4072727 13.239596,16.3814141 13.2589899,16.3620202 C13.3107071,16.3620202 13.3624242,16.3490909 13.3882828,16.2973737 C13.3947475,16.2844444 13.4076768,16.2779798 13.4141414,16.2650505 C13.4012121,16.2715152 13.3947475,16.2844444 13.3818182,16.2909091 C13.330101,16.2909091 13.2783838,16.3038384 13.2525253,16.3555556 L13.1878788,16.420202 C13.1361616,16.420202 13.0844444,16.4331313 13.0585859,16.4848485 C13.0327273,16.5042424 13.0133333,16.5236364 12.9939394,16.5494949 Z M12.3474747,17.0084848 C12.3991919,17.0020202 12.4509091,16.9955556 12.4444444,16.9244444 C12.4444444,16.9179798 12.4315152,16.9050505 12.4250505,16.9050505 C12.3539394,16.8985859 12.3474747,16.950303 12.3410101,17.0020202 C12.2892929,17.0020202 12.2440404,17.0149495 12.2117172,17.0666667 C12.1212121,17.0731313 12.0565657,17.1183838 12.0177778,17.1959596 C11.9725253,17.2088889 11.9143434,17.2088889 11.9208081,17.28 C11.9208081,17.2864646 11.9337374,17.2993939 11.940202,17.2993939 C12.0048485,17.3058586 12.0177778,17.2541414 12.0242424,17.2024242 C12.1147475,17.2024242 12.2052525,17.1959596 12.2181818,17.0731313 C12.2763636,17.0666667 12.3216162,17.0537374 12.3474747,17.0084848 Z M14.4753535,15.4763636 C14.4670202,15.5031463 14.4503535,15.529929 14.4420202,15.5477841 C14.4670202,15.5567117 14.4920202,15.5834944 14.5086869,15.5745668 C14.5253535,15.5656393 14.5336869,15.529929 14.5420202,15.5031463 C14.5170202,15.4942188 14.4920202,15.4852912 14.4753535,15.4763636 Z M12.6646252,16.8268103 C12.6571678,16.8023524 12.6497104,16.7697419 12.6347957,16.7697419 C12.6198809,16.7615893 12.582594,16.7778945 12.5751367,16.7941998 C12.5527645,16.8268103 12.5676793,16.8675734 12.6049662,16.8675734 C12.6273383,16.8675734 12.6422531,16.8431155 12.6646252,16.8268103 Z M15.3555556,14.999709 C15.3638889,14.9729263 15.3722222,14.9461436 15.3888889,14.9282885 C15.3638889,14.9193609 15.3388889,14.8925782 15.3222222,14.9015058 C15.3055556,14.9104334 15.2972222,14.9461436 15.2888889,14.9729263 C15.3055556,14.9818539 15.3305556,14.9907814 15.3555556,14.999709 Z M11.8292835,17.4022394 C11.8134437,17.3775567 11.797604,17.352874 11.7896841,17.3446465 C11.7738444,17.3446465 11.734245,17.3611016 11.734245,17.3775567 C11.7184052,17.4186946 11.7421649,17.4516048 11.7817642,17.4433773 C11.797604,17.4433773 11.8134437,17.4186946 11.8292835,17.4022394 Z"/>
    <path fill="#B6B5AC" d="M28.1212121,23.0852525 C27.6945455,22.6715152 27.1773737,22.3870707 26.6925253,22.0509091 C24.0226263,20.1890909 21.3462626,18.3337374 18.669899,16.4783838 C17.7713131,15.8513131 16.8662626,15.2307071 15.9676768,14.6036364 C15.9676768,14.5842424 15.9612121,14.5583838 15.9612121,14.5389899 C17.2929293,13.6145455 18.6246465,12.690101 19.9563636,11.7656566 C22.6456566,9.91030303 25.3349495,8.06141414 28.0177778,6.20606061 C28.1018182,6.14787879 28.1858586,6.07030303 28.3022222,6.07030303 L28.3022222,23.1434343 C28.2505051,23.1240404 28.1858586,23.1046465 28.1212121,23.0852525 Z"/>
    <path fill="#E6E3D6" d="M4.07272727,23.1434343 C4.19555556,22.8848485 4.48,22.8137374 4.68686869,22.6585859 C5.43676768,22.089697 6.21252525,21.5531313 6.99474747,21.0294949 C8.30707071,20.1438384 9.58707071,19.2064646 10.9058586,18.3337374 C11.7010101,17.810101 12.5026263,17.2864646 13.2460606,16.6981818 C13.8343434,16.2327273 14.5066667,15.9030303 15.0626263,15.3923232 C15.2630303,15.2113131 15.5539394,15.1014141 15.7866667,14.9333333 C15.8965657,14.8492929 15.9935354,14.8816162 16.109899,14.9656566 C16.6593939,15.3535354 17.2088889,15.7478788 17.7713131,16.1163636 C18.450101,16.5624242 19.0965657,17.060202 19.7818182,17.4933333 C20.3894949,17.8812121 20.9519192,18.3466667 21.559596,18.7410101 C22.2577778,19.1870707 22.930101,19.6783838 23.6088889,20.150303 C24.4234343,20.7191919 25.2444444,21.2816162 26.039596,21.869899 C26.5244444,22.2254545 27.0222222,22.5551515 27.5135354,22.8977778 C27.6040404,22.9624242 27.739798,23.0012121 27.7333333,23.149899 C19.8464646,23.1434343 11.959596,23.1434343 4.07272727,23.1434343 Z"/>
    <path fill="#B1392F" d="M28.3151515,23.1434343 L28.3151515,6.07030303 C28.5931313,5.76646465 28.9551515,5.5789899 29.2848485,5.33979798 C30.0993939,4.74505051 30.920404,4.16969697 31.7349495,3.58787879 C31.7931313,3.54262626 31.8513131,3.49090909 31.9353535,3.49090909 C31.9418182,3.60080808 31.9482828,3.70424242 31.9482828,3.81414141 C31.9482828,9.31555556 31.9482828,14.8234343 31.9547475,20.3248485 C31.9547475,20.699798 31.9418182,21.0747475 31.8513131,21.449697 C31.689697,22.1414141 31.2759596,22.619798 30.6036364,22.8589899 C29.860202,23.1175758 29.0909091,23.1886869 28.3151515,23.1434343 Z"/>
    <path fill="#BEBDB3" d="M11.5135354,17.590303 C11.2614141,17.8747475 10.9187879,18.0428283 10.6149495,18.2561616 C8.30707071,19.8723232 5.99272727,21.4884848 3.67838384,23.0981818 C3.63313131,23.1111111 3.59434343,23.1240404 3.54909091,23.1369697 C3.54909091,23.0723232 3.55555556,23.0141414 3.55555556,22.9494949 C6.02505051,21.2622222 8.48808081,19.5749495 10.9575758,17.8876768 C11.1321212,17.7713131 11.2678788,17.5838384 11.5070707,17.5773737 L11.5135354,17.590303 Z"/>
  </g>
</svg>
