<svg xmlns="http://www.w3.org/2000/svg" width="32" height="32" viewBox="0 0 32 32">
  <g fill="none" transform="translate(2)">
    <path fill="#94C93D" d="M11.1138462 20.5476923L11.4953846 20.4369231 11.1138462 20.5476923zM10.3015385 20.8184615L10.6830769 20.6830769 10.3015385 20.8184615zM8.73230769 21.4953846L9.12 21.3107692 8.73230769 21.4953846zM8 21.8953846L8.38153846 21.6861538 8 21.8953846zM9.50769231 21.1384615L9.88923077 20.9784615 9.50769231 21.1384615zM11.9507692 20.3076923L12.3261538 20.2215385 11.9507692 20.3076923zM12.8061538 20.1292308L13.1753846 20.0676923 12.8061538 20.1292308zM14.5661538 19.9076923L14.9292308 19.9076923 14.5661538 19.9076923zM15.6676923 19.8646154L15.1692308 19.8646154C14.1245586 23.8900014 11.5116655 27.329535 7.91384615 29.4153846 14.5445858 33.2621716 22.9924591 31.6731232 27.7723077 25.68 24.8318013 22.0015536 20.3769954 19.8613443 15.6676923 19.8646154L15.6676923 19.8646154zM13.68 19.9938462L14.0430769 19.9507692 13.68 19.9938462zM6.57846154 22.8061538L6.94153846 22.5538462 6.57846154 22.8061538zM5.28 23.8523077L5.59384615 23.5815385 5.28 23.8523077zM5.33538462 27.5446154L5.24923077 27.4646154 5.33538462 27.5446154zM7.26769231 22.3323077L7.64307692 22.0984615 7.26769231 22.3323077zM4.10461538 25.0338462L4.25846154 24.8676923 4.10461538 25.0338462zM4.67692308 24.4307692L4.94153846 24.1784615 4.67692308 24.4307692zM6.76923077 28.6707692L6.49846154 28.4738462 6.76923077 28.6707692zM5.91384615 23.3107692L6.25846154 23.0461538 5.91384615 23.3107692zM6.04923077 28.1415385L5.90769231 28.0246154 6.04923077 28.1415385z"/>
    <path fill="#73A441" d="M15.1692308,19.8769231 L15.1692308,19.8769231 L14.9292308,19.8769231 L14.5661538,19.8769231 L14.0430769,19.92 L13.68,19.9630769 L13.1753846,20.0369231 L12.8061538,20.0984615 L12.3261538,20.1969231 L11.9507692,20.2830769 L11.4953846,20.4061538 L11.1138462,20.5169231 L10.6830769,20.6584615 L10.3015385,20.7938462 L9.88923077,20.9538462 L9.50769231,21.1138462 L9.12,21.2923077 L8.73230769,21.4769231 L8.36923077,21.6676923 L7.98769231,21.8769231 L7.64307692,22.08 L7.26769231,22.3138462 L6.94153846,22.5353846 L6.57846154,22.7876923 L6.25846154,23.0276923 L5.91384615,23.2923077 L5.6,23.5630769 L5.28615385,23.8338462 L4.94769231,24.1538462 L4.68307692,24.4061538 C4.54153846,24.5476923 4.40615385,24.6953846 4.27076923,24.8430769 L4.11692308,25.0092308 C3.92820513,25.2184615 3.74564103,25.4235897 3.56923077,25.6246154 C3.96692834,26.1334997 4.39433943,26.6184469 4.84923077,27.0769231 L5.24307692,27.4461538 L5.32923077,27.5261538 L5.40923077,27.6 C5.51384615,27.6923077 5.68615385,27.84 5.90153846,28.0123077 L6.04307692,28.1292308 L6.47384615,28.4553846 L6.74461538,28.6523077 C7.05230769,28.8738462 7.36,29.0892308 7.69230769,29.2676923 L7.90769231,29.3969231 L7.90769231,29.3969231 C11.5013464,27.3194423 14.1157266,23.8919456 15.1692308,19.8769231 L15.1692308,19.8769231 Z"/>
    <path fill="#17A8E0" d="M15.6676923.467692308C12.9439779.464440187 10.2682246 1.18434523 7.91384615 2.55384615 11.5090638 4.63684282 14.1216128 8.07149161 15.1692308 12.0923077L15.6123077 12.0923077 15.7230769 12.0923077C20.4129535 12.0787743 24.8439382 9.94022455 27.7723077 6.27692308 24.8294303 2.60222661 20.3755488.464725748 15.6676923.467692308zM4.36307692 5.37846154C4.08615385 5.67384615 3.81538462 5.99384615 3.56307692 6.28923077L3.56307692 6.28923077 3.56307692 6.28923077C3.80307692 5.99384615 4.07384615 5.68615385 4.36307692 5.37846154z"/>
    <path fill="#0179A1" d="M7.91384615,2.55384615 L7.91384615,2.55384615 L7.81538462,2.60923077 L7.81538462,2.60923077 C7.64307692,2.70769231 7.47692308,2.81230769 7.30461538,2.91692308 C6.6184734,3.35211489 5.9700462,3.84409616 5.36615385,4.38769231 L5.05846154,4.67692308 L4.84923077,4.87384615 L4.45538462,5.27384615 L4.36307692,5.37230769 C4.07384615,5.68 3.80307692,5.98769231 3.56307692,6.28923077 L3.56307692,6.28923077 C3.73538462,6.5025641 3.91179487,6.70769231 4.09230769,6.90461538 L4.31384615,7.14461538 C4.43076923,7.26769231 4.54153846,7.39076923 4.66461538,7.51384615 L4.92923077,7.76615385 L5.26769231,8.08615385 L5.56307692,8.33846154 L5.90153846,8.62769231 L6.21538462,8.87384615 L6.56615385,9.13846154 L6.89846154,9.37230769 L7.25538462,9.61230769 L7.60615385,9.82769231 L7.96923077,10.0430769 L8.33846154,10.2461538 L8.70769231,10.4430769 L9.09538462,10.6276923 L9.47076923,10.8 L9.87076923,10.9661538 L10.2523077,11.1138462 L10.6707692,11.2615385 L11.0584615,11.3907692 L11.4892308,11.5138462 L11.8830769,11.6184615 L12.3261538,11.7230769 L12.7261538,11.8030769 L13.1815385,11.8830769 L13.5876923,11.9446154 L14.0553846,12 L14.4676923,12.0369231 L14.9415385,12.0369231 L15.1569231,12.0369231 L15.1569231,12.0369231 C14.0990521,8.03879572 11.4927346,4.62644623 7.91384615,2.55384615 L7.91384615,2.55384615 Z"/>
    <path fill="#353535" d="M15.1753846,19.8707692 L15.1753846,19.8707692 C13.2330449,19.6024909 11.7864161,17.9423181 11.7864161,15.9815385 C11.7864161,14.0207588 13.2330449,12.360586 15.1753846,12.0923077 L15.1753846,12.0923077 C10.6438125,11.9497764 6.40219909,9.82896966 3.56923077,6.28923077 C-0.984332759,11.9462185 -0.984332759,20.0107046 3.56923077,25.6676923 C6.40391873,22.1309202 10.6450321,20.0126122 15.1753846,19.8707692 Z"/>
  </g>
</svg>
