<svg xmlns="http://www.w3.org/2000/svg" width="32" height="32" viewBox="0 0 32 32">
  <g fill="#2D333A">
    <rect width="4.47" height="4.317" x="13.841" y="13.789" transform="rotate(-18.518 16.076 15.948)"/>
    <rect width="4.47" height="4.317" x="13.841" y="13.789" transform="rotate(-18.518 16.076 15.948)"/>
    <path d="M30.6285714,11.5555556 C27.352381,0.634920635 22.6285714,-1.9047619 11.7079365,1.37142857 C0.787301587,4.64761905 -1.75238095,9.37142857 1.52380952,20.2920635 C4.8,31.2126984 9.52380952,33.752381 20.4444444,30.4761905 C31.3650794,27.2 33.9047619,22.4761905 30.6285714,11.5555556 Z M25.1174603,18.6412698 L23.0603175,19.3269841 L23.7714286,21.4603175 C24.0507937,22.3238095 23.5936508,23.2634921 22.7301587,23.5428571 C22.552381,23.5936508 22.3492063,23.6444444 22.1714286,23.6190476 C21.5111111,23.5936508 20.8761905,23.1619048 20.647619,22.5015873 L19.9365079,20.368254 L15.6952381,21.7904762 L16.4063492,23.9238095 C16.6857143,24.7873016 16.2285714,25.7269841 15.3650794,26.0063492 C15.1873016,26.0571429 14.984127,26.1079365 14.8063492,26.0825397 C14.1460317,26.0571429 13.5111111,25.6253968 13.2825397,24.9650794 L12.5714286,22.831746 L10.5142857,23.5174603 C10.3365079,23.568254 10.1333333,23.6190476 9.95555556,23.5936508 C9.2952381,23.568254 8.66031746,23.1365079 8.43174603,22.4761905 C8.15238095,21.6126984 8.60952381,20.6730159 9.47301587,20.3936508 L11.5301587,19.7079365 L10.1587302,15.6190476 L8.1015873,16.3047619 C7.92380952,16.3555556 7.72063492,16.4063492 7.54285714,16.3809524 C6.88253968,16.3555556 6.24761905,15.9238095 6.01904762,15.2634921 C5.73968254,14.4 6.1968254,13.4603175 7.06031746,13.1809524 L9.11746032,12.4952381 L8.40634921,10.3619048 C8.12698413,9.4984127 8.58412698,8.55873016 9.44761905,8.27936508 C10.3111111,8 11.2507937,8.45714286 11.5301587,9.32063492 L12.2412698,11.4539683 L16.4825397,10.031746 L15.7714286,7.8984127 C15.4920635,7.03492063 15.9492063,6.0952381 16.8126984,5.81587302 C17.6761905,5.53650794 18.615873,5.99365079 18.8952381,6.85714286 L19.6063492,8.99047619 L21.6634921,8.3047619 C22.5269841,8.02539683 23.4666667,8.48253968 23.7460317,9.34603175 C24.0253968,10.2095238 23.568254,11.1492063 22.7047619,11.4285714 L20.647619,12.1142857 L22.0190476,16.2031746 L24.0761905,15.5174603 C24.9396825,15.2380952 25.8793651,15.6952381 26.1587302,16.5587302 C26.4380952,17.4222222 25.9809524,18.3619048 25.1174603,18.6412698 Z"/>
  </g>
</svg>
