<svg xmlns="http://www.w3.org/2000/svg" xmlns:xlink="http://www.w3.org/1999/xlink" width="16" height="16" viewBox="0 0 16 16">
  <defs>
    <path id="map_marker-a" d="M7.55000019,1.7763932 C7.73426233,1.40786893 8.26295146,1.40786893 8.4472136,1.7763932 L12.4472136,9.7763932 C12.4836616,9.84928929 12.5017379,9.92999002 12.4998684,10.0114689 C12.4964207,10.1617372 12.4737017,10.4067301 12.4161821,10.7163304 C12.3208369,11.2295283 12.1584038,11.7434582 11.9107365,12.2276829 C11.1893625,13.6380713 9.90635733,14.5 8,14.5 C6.09364267,14.5 4.81063751,13.6380713 4.08926348,12.2276829 C3.84159617,11.7434582 3.67916314,11.2295283 3.5838179,10.7163304 C3.52629833,10.4067301 3.50357928,10.1617372 3.50013155,10.0114689 C3.49826212,9.92999002 3.51633836,9.84928929 3.5527864,9.7763932 L7.55000019,1.7763932 Z M8,11 C7.44771525,11 7,10.5522847 7,10 C7,9.44771525 7.44771525,9 8,9 C8.55228475,9 9,9.44771525 9,10 C9,10.5522847 8.55228475,11 8,11 Z M4.50668295,10.1046681 C4.51574599,10.2112276 4.53432987,10.3578548 4.56699389,10.5336696 C4.6458235,10.9579717 4.77969734,11.3815418 4.97956795,11.7723171 C5.53687367,12.8619287 6.48666067,13.5 8,13.5 C9.51333933,13.5 10.4631263,12.8619287 11.020432,11.7723171 C11.2203027,11.3815418 11.3541765,10.9579717 11.4330061,10.5336696 C11.4656701,10.3578548 11.484254,10.2112276 11.493317,10.1046681 L8,3.11803399 L4.50668295,10.1046681 Z"/>
  </defs>
  <g>
    <use transform="matrix(1 0 0 -1 0 16)" xlink:href="#map_marker-a"/>
  </g>
</svg>
