<svg xmlns="http://www.w3.org/2000/svg" xmlns:xlink="http://www.w3.org/1999/xlink" width="16" height="16" viewBox="0 0 16 16">
  <defs>
    <path id="search-a" d="M11.2709852,11.9779932 L15.14275,15.85075 C15.24075,15.94775 15.36875,15.99675 15.49675,15.99675 C15.62475,15.99675 15.75275,15.94775 15.85075,15.85075 C16.04575,15.65475 16.04575,15.33875 15.85075,15.14275 L12.2861494,11.5790625 C14.6668581,8.83239759 14.5527289,4.65636993 11.9437617,2.04675 C9.21444459,-0.68225 4.77355568,-0.68225 2.04623804,2.04675 C-0.682079347,4.77575 -0.682079347,9.21775 2.04623804,11.94675 C3.36890712,13.26875 5.12646738,13.99675 6.99499989,13.99675 C7.27093085,13.99675 7.49487482,13.77275 7.49487482,13.49675 C7.49487482,13.22075 7.27093085,12.99675 6.99499989,12.99675 C5.39240085,12.99675 3.88677755,12.37275 2.7530612,11.23975 C0.414646258,8.89975 0.414646258,5.09375 2.7530612,2.75375 C5.09047639,0.41375 8.89552438,0.41475 11.2369386,2.75375 C13.5753535,5.09375 13.5753535,8.89975 11.2369386,11.23975 C11.0419873,11.43475 11.0419873,11.75175 11.2369386,11.94675 C11.2479153,11.9577858 11.2592787,11.9682002 11.2709852,11.9779932 Z"/>
  </defs>
  <g>
    <use xlink:href="#search-a"/>
  </g>
</svg>
