<svg xmlns="http://www.w3.org/2000/svg" xmlns:xlink="http://www.w3.org/1999/xlink" width="16" height="16" viewBox="0 0 16 16">
  <defs>
    <path id="share-a" d="M4,6.81092456 L4,13.1890754 C4,13.6827785 4.4476522,14.0909091 4.99201702,14.0909091 L12.007983,14.0909091 C12.5510564,14.0909091 13,13.6839525 13,13.1890754 L13,6.81092456 C13,6.3172215 12.5523478,5.90909091 12.007983,5.90909091 L4.99201702,5.90909091 C4.44894365,5.90909091 4,6.31604746 4,6.81092456 Z M3,6.81092456 C3,5.81077854 3.90017617,5 4.99201702,5 L12.007983,5 C13.1081436,5 14,5.81834197 14,6.81092456 L14,13.1890754 C14,14.1892215 13.0998238,15 12.007983,15 L4.99201702,15 C3.8918564,15 3,14.181658 3,13.1890754 L3,6.81092456 Z M7,5 L7,5.90909091 L10,5.90909091 L10,5 L7,5 Z M9,3 L9,10 L8,10 L8,3 L6,3 L8.5,0 L11,3 L9,3 Z"/>
  </defs>
  <g>
    <use xlink:href="#share-a"/>
  </g>
</svg>
