<svg xmlns="http://www.w3.org/2000/svg" xmlns:xlink="http://www.w3.org/1999/xlink" width="16" height="16" viewBox="0 0 16 16">
  <defs>
    <path id="sort_down-a" d="M8.92935978,4.24362813 L13.9912551,8.84274962 C14.2220194,9.05241679 14.5961624,9.05241679 14.8269267,8.84274962 C15.0576911,8.63308244 15.0576911,8.29314478 14.8269267,8.0834776 L9.75193138,3.47245371 C9.05772791,2.84171643 7.94051273,2.84331494 7.24806862,3.47245371 L2.17307327,8.0834776 C1.94230891,8.29314478 1.94230891,8.63308244 2.17307327,8.84274962 C2.40383762,9.05241679 2.77798056,9.05241679 3.00874492,8.84274962 L8.07064022,4.24362813 C8.0257821,4.31859297 8,4.40628562 8,4.5 L8,12.5 C8,12.7761424 8.22385763,13 8.5,13 C8.77614237,13 9,12.7761424 9,12.5 L9,4.5 C9,4.40628562 8.9742179,4.31859297 8.92935978,4.24362813 Z"/>
  </defs>
  <g fill-rule="evenodd">
    <use fill-rule="nonzero" transform="rotate(-180 8.5 8)" xlink:href="#sort_down-a"/>
  </g>
</svg>
