<svg xmlns="http://www.w3.org/2000/svg" xmlns:xlink="http://www.w3.org/1999/xlink" width="16" height="16" viewBox="0 0 16 16">
  <defs>
    <path id="star_empty-a" d="M8.00003236,0.0001 C7.57503236,0.0001 7.15003236,0.2281 6.94403236,0.6821 L5.17003236,4.5801 L1.00003236,5.1751 C0.0530323556,5.3111 -0.334967644,6.4761 0.339032356,7.1571 L3.42203236,10.2721 L2.67203236,14.6301 C2.54203236,15.3891 3.14303236,16.0001 3.81803236,16.0001 C4.00803236,16.0001 4.20403236,15.9521 4.39003236,15.8461 L8.00003236,13.7901 L11.6100324,15.8461 C11.7960324,15.9521 11.9920324,16.0001 12.1820324,16.0001 C12.8570324,16.0001 13.4580324,15.3891 13.3280324,14.6301 L12.5780324,10.2721 L15.6610324,7.1571 C16.3350324,6.4761 15.9470324,5.3111 15.0000324,5.1751 L10.8300324,4.5801 L9.05603236,0.6821 C8.85003236,0.2281 8.42503236,0.0001 8.00003236,0.0001 M8.00003236,1.0001 C8.10203236,1.0001 8.13303236,1.0681 8.14603236,1.0971 L9.91903236,4.9941 L10.1460324,5.4921 L10.6880324,5.5691 L14.8580324,6.1651 C14.8820324,6.1681 14.9570324,6.1791 14.9900324,6.2771 C15.0120324,6.3441 14.9990324,6.4041 14.9500324,6.4531 L11.8670324,9.5691 L11.5050324,9.9351 L11.5930324,10.4411 L12.3420324,14.7991 C12.3520324,14.8551 12.3420324,14.8971 12.3100324,14.9351 C12.2760324,14.9751 12.2260324,15.0001 12.1820324,15.0001 C12.1670324,15.0001 12.1420324,14.9981 12.1050324,14.9771 L8.49503236,12.9211 L8.00003236,12.6391 L7.50503236,12.9211 L3.89403236,14.9771 C3.85803236,14.9981 3.83303236,15.0001 3.81803236,15.0001 C3.77403236,15.0001 3.72403236,14.9751 3.69003236,14.9351 C3.65803236,14.8971 3.64803236,14.8551 3.65703236,14.7991 L4.40703236,10.4411 L4.49503236,9.9351 L4.13303236,9.5691 L1.05003236,6.4531 C1.00103236,6.4041 0.988032356,6.3441 1.01003236,6.2771 C1.04303236,6.1791 1.11803236,6.1681 1.14103236,6.1651 L5.31203236,5.5691 L5.85403236,5.4921 L6.08103236,4.9941 L7.85503236,1.0941 C7.86703236,1.0681 7.89803236,1.0001 8.00003236,1.0001"/>
  </defs>
  <g>
    <use xlink:href="#star_empty-a"/>
  </g>
</svg>
