<svg xmlns="http://www.w3.org/2000/svg" width="18" height="18" viewBox="0 0 18 18">
  <g fill-rule="evenodd" transform="translate(2 1)">
    <path d="M11.6888,10.1318 C12.8438,11.3538 13.6418,13.0108 13.8718,14.8798 C13.9438,15.4738 13.4708,15.9998 12.8718,15.9998 L1.0068,15.9998 C0.4078,15.9998 -0.0652,15.4738 0.0078,14.8798 C0.2368,13.0108 1.0348,11.3538 2.1898,10.1318 C2.4368,10.3598 2.6948,10.5738 2.9718,10.7648 C1.9338,11.8338 1.2068,13.3148 0.9998,15.0018 L12.8718,14.9998 C12.6678,13.3138 11.9428,11.8338 10.9058,10.7648 C11.1838,10.5738 11.4418,10.3598 11.6888,10.1318 Z M6.9392,0.0003 C8.8392,0.0003 9.9392,2.0003 11.3182,2.6333 C10.8602,3.1603 10.1922,3.5003 9.4392,3.5003 C9.1412,3.5003 8.8602,3.4393 8.5952,3.3433 C7.9072,4.1953 6.8682,4.7503 5.6892,4.7503 C4.2942,4.7503 1.9392,5.0003 2.4442,2.8473 C3.9392,2.0003 4.9522,0.0003 6.9392,0.0003 Z"/>
    <path d="M6.9393,1 C9.1453,1 10.9393,2.794 10.9393,5 C10.9393,7.206 9.1453,9 6.9393,9 C4.7333,9 2.9393,7.206 2.9393,5 C2.9393,2.794 4.7333,1 6.9393,1 M6.9393,10 C9.7003,10 11.9393,7.761 11.9393,5 C11.9393,2.239 9.7003,0 6.9393,0 C4.1783,0 1.9393,2.239 1.9393,5 C1.9393,7.761 4.1783,10 6.9393,10"/>
  </g>
</svg>
