<svg xmlns="http://www.w3.org/2000/svg" xmlns:xlink="http://www.w3.org/1999/xlink" viewBox="0 0 112 31" fill="#fff" fill-rule="evenodd" stroke="#000" stroke-linecap="round" stroke-linejoin="round"><use xlink:href="#A" x=".5" y=".5"/><symbol id="A" overflow="visible"><g stroke="none" fill-rule="nonzero"><path d="M37.015 11.113c-2.2 0-3.682 1.738-3.682 3.724v.02c0 1.985 1.47 3.703 3.662 3.703s3.682-1.738 3.682-3.724v-.02c0-1.985-1.47-3.703-3.662-3.703zm2.818 3.744c0 1.635-1.173 2.952-2.818 2.952s-2.84-1.337-2.84-2.973v-.02c0-1.635 1.173-2.952 2.818-2.952s2.84 1.337 2.84 2.973zm5.256-3.62h-2.695v7.2h.813v-2.54h1.75c1.533 0 2.83-.802 2.83-2.356v-.02c0-1.42-1.07-2.283-2.695-2.283zm1.872 2.335c0 .946-.782 1.584-1.975 1.584H43.21v-3.168h1.82c1.162 0 1.934.535 1.934 1.564zm7.048 1.605v-.74h-3.93V11.98h4.392v-.74h-5.205v7.2h5.256v-.74H50.08v-2.52zm2.15 3.26h.792v-5.894l4.65 5.904h.648v-7.2h-.792v5.77l-4.536-5.77h-.76zm11.57-3.794l-2.2-3.405h-1.347v7.2h1.245v-5.143l2.253 3.374h.04l2.273-3.394v5.164h1.265v-7.2h-1.35zm10.267.73v-1.13h-3.6V12.37h4.073V11.24h-5.34v7.2h5.4v-1.132h-4.125v-1.934zM85.34 12.4v-1.173H79.51V12.4h2.284v6.028h1.276V12.4zm7.22 1.12v-.02c.015-.576-.2-1.135-.597-1.553-.463-.453-1.173-.72-2.078-.72h-3.2v7.2h1.265v-2.5h1.584l1.77 2.5h1.492l-1.944-2.726c1.008-.288 1.718-.998 1.718-2.18zm-4.618 1.275v-2.417h1.84c.936 0 1.492.422 1.492 1.193v.02c0 .73-.576 1.203-1.48 1.203zm6.244-3.568h1.265v7.2h-1.265zm6.572 6.162c-1.378 0-2.376-1.152-2.376-2.56v-.02c0-1.4.998-2.54 2.376-2.54.823 0 1.44.36 2.016.895l.813-.936a3.75 3.75 0 0 0-2.818-1.12 3.64 3.64 0 0 0-2.65 1.07c-.7.703-1.085 1.66-1.063 2.654v.02a3.62 3.62 0 0 0 3.662 3.703c1.347 0 2.17-.494 2.92-1.275l-.813-.823c-.617.576-1.183.936-2.068.936zm6.985-3.136c-1.378-.33-1.707-.576-1.707-1.13v-.02c0-.473.432-.854 1.173-.854a3.27 3.27 0 0 1 1.954.741l.68-.957a3.99 3.99 0 0 0-2.613-.905c-1.43 0-2.458.854-2.458 2.088v.02c0 1.327.864 1.78 2.397 2.15 1.337.3 1.625.586 1.625 1.1v.02c0 .545-.494.905-1.276.905-.895 0-1.584-.34-2.273-.936l-.76.905a4.44 4.44 0 0 0 3.004 1.152c1.512 0 2.572-.802 2.572-2.15v-.02c0-1.193-.792-1.738-2.314-2.1z" fill="#191919"/><path d="M29.487 14.144C29.257 5.542 20.894-1.31 12.445.214 3.885 1.77-1.397 9.544.325 18.064c1.62 8 10.32 13.284 18.155 11.1.554-.182.98-.37.98-.37l-.543-2.693-1.04.382a10.94 10.94 0 0 1-4.85.295c-6.75-1.024-11.46-7.54-10.177-14C4.257 5.7 10.893 1.438 17.8 3.16c8.536 2.132 11.918 13.25 5.96 19.552-.106-.384-.176-.56-.233-.813L21.02 10.674c-.2-.966-.415-1.93-1.605-2.055-1.18-.125-1.637.707-2.005 1.655-.84 2.163-1.74 4.488-2.68 6.567l-.55-.957c-.817-1.354-1.556-2.753-2.344-4.123-.363-.632-.894-1.043-1.657-.963-.658.035-1.22.484-1.402 1.118l-2.35 8.14 2.834-.123s.2-.768.315-1.352c.253-1.288.645-2.548 1.046-4.086l2.32 4.43c.426.817 1.034 1.416 2 1.354s1.354-.933 1.7-1.698c.236-.536 1.55-3.978 2.253-5.923.088.46.147.632.202.897l2.656 13.006a33.63 33.63 0 0 0 .25 1.162 9.38 9.38 0 0 0 1.075-.65c4.37-3.198 6.553-7.463 6.408-12.916z" fill="#c42227"/></g></symbol></svg>