<svg xmlns="http://www.w3.org/2000/svg" width="41" height="40" fill="none"><g clip-path="url(#a)"><path fill="#535766" d="m17.265 32.074-8.84-8.839 2.79-.747 6.797 6.798 9.285-2.488 2.489-9.286-6.798-6.797.747-2.789 8.839 8.839-2.862 10.68 6.188 6.187-.374 1.394-1.394.374-6.187-6.187z"/><path fill="#00BFB3" fill-rule="evenodd" d="m24.92 24.42-6.038 1.617-4.42-4.419 1.245-4.643L5.1 6.37l.374-1.395 1.394-.373 10.607 10.606 4.642-1.244 4.42 4.42zm-1.172-5.29-.87 3.249-3.249.87-2.378-2.378.87-3.249 3.25-.87z" clip-rule="evenodd"/></g><defs><clipPath id="a"><path fill="#fff" d="M.5 0h40v40H.5z"/></clipPath></defs></svg>