<svg width="41" height="40" viewBox="0 0 41 40" fill="none" xmlns="http://www.w3.org/2000/svg">
<g clip-path="url(#clip0_1064_10468)">
<path d="M17.2647 32.0743L8.42591 23.2352L11.2142 22.4883L18.0118 29.2859L27.2975 26.7978L29.7856 17.5121L22.9881 10.7146L23.7353 7.92622L32.574 16.7649L29.7124 27.4446L35.8997 33.632L35.5262 35.026L34.1319 35.3996L27.9448 29.2125L17.2647 32.0743Z" fill="#535766"/>
<path fill-rule="evenodd" clip-rule="evenodd" d="M24.9192 24.4199L18.8822 26.0375L14.4628 21.6181L15.7069 16.9752L5.10035 6.36864L5.47397 4.97427L6.86799 4.60074L17.4747 15.2074L22.1175 13.9634L26.5369 18.3828L24.9192 24.4199ZM23.7485 19.13L22.878 22.3786L19.6294 23.2491L17.2512 20.8709L18.1217 17.6223L21.3703 16.7518L23.7485 19.13Z" fill="#00BFB3"/>
</g>
<defs>
<clipPath id="clip0_1064_10468">
<rect width="40" height="40" fill="white" transform="translate(0.5)"/>
</clipPath>
</defs>
</svg>
