<svg width="32" height="32" fill="none" xmlns="http://www.w3.org/2000/svg">
  <path d="M.902 21.856a.863.863 0 01-.64-.27.887.887 0 01-.262-.64.9.9 0 01.262-.643.857.857 0 01.64-.275.875.875 0 01.64.276.892.892 0 01.269.641.881.881 0 01-.269.642.885.885 0 01-.64.27zM13.617 21.696h-1.676l-5.996-9.329a3.857 3.857 0 01-.37-.731h-.052c.057.533.078 1.068.064 1.604v8.456H4.224V10h1.772l5.836 9.162c.243.38.401.641.474.782h.032a12.409 12.409 0 01-.084-1.72V10h1.363v11.696zM22.843 21.696h-6.2V10h5.912v1.238h-4.517v3.888h4.21v1.232h-4.21v4.055h4.811l-.006 1.283zM32 11.238h-3.392v10.458h-1.363V11.238h-3.353V10H32v1.238z" fill="#621EE5"/>
</svg>
