<svg version="1.1" id="Layer_1" xmlns="http://www.w3.org/2000/svg" xmlns:xlink="http://www.w3.org/1999/xlink" width="32" height="32" x="0px" y="0px" viewBox="0 0 122.88 122.88" style="enable-background:new 0 0 122.88 122.88" xml:space="preserve">
  <style type="text/css">.st0{fill-rule:evenodd;clip-rule:evenodd;fill:#ffffff;}</style>
  <g>
    <path class="st0" d="M101.44,46.25c0.82-1.84,2.97-2.68,4.81-1.86c1.84,0.82,2.67,2.98,1.86,4.82c-0.82,1.85-2.97,2.68-4.81,1.86 C101.45,50.25,100.62,48.1,101.44,46.25L101.44,46.25z M58.73,11.88c1.46-1.39,3.77-1.34,5.16,0.12c1.39,1.46,1.34,3.77-0.12,5.17 c-1.46,1.39-3.76,1.34-5.16-0.12C57.22,15.58,57.27,13.27,58.73,11.88L58.73,11.88z M106.36,61.05c0,1.12-0.04,2.23-0.12,3.34 h-4.61c-0.46,0-0.65,0.3-0.65,0.75v2.12c0,4.98-2.81,6.07-5.27,6.34c-2.34,0.26-4.94-0.98-5.26-2.42 c-1.38-7.78-3.69-9.44-7.33-12.31c4.52-2.87,9.22-7.1,9.22-12.76c0-6.12-4.19-9.97-7.05-11.86c-4.01-2.64-8.45-3.17-9.65-3.17 H27.97c6.46-7.21,15.22-12.32,25.13-14.18l5.62,5.89c1.27,1.33,3.37,1.38,4.7,0.11l6.29-6.01c13.17,2.45,24.33,10.65,30.75,21.9 l-4.3,9.72c-0.74,1.68,0.02,3.65,1.69,4.4l8.29,3.68C106.29,58.05,106.36,59.54,106.36,61.05L106.36,61.05z M51.26,53.43v-8.46 h15.16c0.78,0,5.53,0.91,5.53,4.45c0,2.95-3.64,4-6.63,4L51.26,53.43L51.26,53.43L51.26,53.43z M16.77,56.22l7.86-3.49 c1.68-0.75,2.44-2.71,1.69-4.4l-1.62-3.66h6.37v28.7H18.23c-1.11-3.92-1.71-8.05-1.71-12.32C16.51,59.41,16.6,57.8,16.77,56.22 L16.77,56.22z M21.05,46.07c0.82,1.84-0.01,4.01-1.86,4.82c-1.84,0.82-4-0.01-4.81-1.86c-0.82-1.85,0.01-4,1.86-4.82 C18.08,43.39,20.24,44.23,21.05,46.07L21.05,46.07z M34.98,102.55c-1.97,0.43-3.91-0.83-4.33-2.8c-0.42-1.98,0.83-3.92,2.8-4.34 c1.97-0.42,3.91,0.83,4.33,2.81C38.2,100.18,36.95,102.13,34.98,102.55L34.98,102.55z M85.76,90.87c-1.8-0.39-3.57,0.76-3.95,2.56 l-1.83,8.55c-5.65,2.57-11.93,3.99-18.54,3.99c-6.76,0-13.17-1.5-18.93-4.17l-1.83-8.55c-0.39-1.8-2.15-2.94-3.95-2.56l-7.55,1.62 c-1.4-1.44-2.7-2.98-3.9-4.6H62c0.42,0,0.69-0.08,0.69-0.45V74.27c0-0.38-0.28-0.45-0.69-0.45H51.26v-8.23h11.61 c1.06,0,5.67,0.3,7.14,6.19c0.46,1.81,1.47,7.7,2.17,9.59c0.69,2.12,3.5,6.34,6.5,6.34h18.29c0.21,0,0.43-0.02,0.66-0.07 c-1.27,1.72-2.66,3.36-4.16,4.88L85.76,90.87L85.76,90.87z M87.51,102.73c-1.97-0.43-3.22-2.37-2.8-4.34 c0.42-1.97,2.36-3.23,4.33-2.8c1.97,0.42,3.23,2.37,2.8,4.34C91.42,101.89,89.48,103.15,87.51,102.73L87.51,102.73z M122.04,59.93 l-5.16-3.19c-0.04-0.5-0.09-1-0.15-1.5l4.43-4.13c0.45-0.42,0.65-1.04,0.53-1.64c-0.12-0.6-0.54-1.1-1.12-1.32l-5.67-2.12 c-0.14-0.49-0.29-0.98-0.44-1.46l3.53-4.91c0.36-0.5,0.43-1.15,0.2-1.72c-0.23-0.57-0.75-0.97-1.35-1.07l-5.98-0.97 c-0.23-0.45-0.47-0.9-0.72-1.34l2.51-5.51c0.26-0.56,0.2-1.21-0.14-1.72c-0.34-0.51-0.92-0.81-1.54-0.79l-6.07,0.21 c-0.31-0.39-0.63-0.78-0.96-1.16l1.39-5.91c0.14-0.6-0.04-1.23-0.47-1.66c-0.43-0.43-1.06-0.61-1.66-0.47l-5.91,1.39 c-0.38-0.32-0.77-0.64-1.16-0.96l0.21-6.07c0.02-0.61-0.28-1.2-0.79-1.54c-0.51-0.34-1.16-0.39-1.72-0.14l-5.51,2.51 c-0.44-0.24-0.89-0.49-1.34-0.72l-0.97-5.98c-0.1-0.61-0.5-1.12-1.07-1.35c-0.57-0.24-1.22-0.16-1.72,0.2l-4.91,3.54 c-0.48-0.15-0.97-0.3-1.46-0.44L74.74,2.3c-0.21-0.58-0.71-1-1.32-1.12c-0.6-0.12-1.22,0.08-1.64,0.53l-4.14,4.44 c-0.5-0.06-1-0.11-1.5-0.15l-3.19-5.16C62.63,0.32,62.06,0,61.44,0c-0.62,0-1.19,0.32-1.51,0.84L56.74,6c-0.5,0.04-1,0.09-1.5,0.15 L51.1,1.71c-0.42-0.45-1.04-0.65-1.64-0.53c-0.6,0.12-1.1,0.54-1.32,1.12l-2.12,5.67c-0.49,0.14-0.98,0.29-1.46,0.44l-4.91-3.54 c-0.5-0.36-1.15-0.44-1.72-0.2c-0.57,0.23-0.97,0.75-1.07,1.35l-0.97,5.98c-0.45,0.23-0.9,0.47-1.34,0.72l-5.51-2.51 c-0.56-0.26-1.21-0.2-1.72,0.14c-0.51,0.34-0.81,0.92-0.79,1.54l0.21,6.07c-0.39,0.31-0.78,0.63-1.16,0.96l-5.91-1.39 c-0.6-0.14-1.23,0.04-1.66,0.47c-0.44,0.44-0.61,1.06-0.47,1.66l1.39,5.91c-0.32,0.38-0.64,0.77-0.96,1.16l-6.07-0.21 c-0.61-0.02-1.2,0.28-1.54,0.79c-0.34,0.51-0.39,1.16-0.14,1.72l2.51,5.51c-0.24,0.44-0.49,0.89-0.72,1.34l-5.98,0.97 c-0.61,0.1-1.12,0.5-1.35,1.07c-0.23,0.57-0.16,1.22,0.2,1.72l3.54,4.91c-0.15,0.48-0.3,0.97-0.44,1.46L2.3,48.14 c-0.58,0.21-1,0.71-1.12,1.32c-0.12,0.6,0.08,1.22,0.53,1.64l4.43,4.13c-0.05,0.5-0.1,1-0.15,1.5l-5.16,3.19 C0.32,60.26,0,60.83,0,61.44c0,0.62,0.32,1.19,0.84,1.51L6,66.14c0.04,0.5,0.09,1,0.15,1.5l-4.43,4.14 c-0.45,0.42-0.65,1.04-0.53,1.64c0.12,0.6,0.54,1.1,1.12,1.32l5.67,2.12c0.14,0.49,0.29,0.98,0.44,1.46l-3.54,4.91 c-0.36,0.5-0.44,1.15-0.2,1.72c0.24,0.57,0.75,0.98,1.36,1.07L12.01,87c0.23,0.45,0.47,0.9,0.72,1.34l-2.51,5.51 c-0.26,0.56-0.2,1.21,0.14,1.72c0.34,0.51,0.93,0.81,1.54,0.79l6.06-0.21c0.32,0.39,0.63,0.78,0.96,1.16l-1.39,5.91 c-0.14,0.6,0.04,1.22,0.47,1.66c0.43,0.44,1.06,0.61,1.66,0.47l5.91-1.39c0.38,0.33,0.77,0.64,1.16,0.96l-0.21,6.07 c-0.02,0.61,0.28,1.2,0.79,1.54c0.51,0.34,1.16,0.39,1.72,0.14l5.51-2.51c0.44,0.25,0.89,0.49,1.34,0.72l0.97,5.97 c0.1,0.61,0.5,1.12,1.07,1.36c0.57,0.24,1.22,0.16,1.72-0.2l4.91-3.54c0.48,0.15,0.97,0.3,1.46,0.45l2.12,5.67 c0.21,0.58,0.71,1,1.32,1.12c0.6,0.12,1.22-0.08,1.64-0.53l4.14-4.43c0.5,0.06,1,0.11,1.5,0.15l3.19,5.16 c0.32,0.52,0.89,0.84,1.51,0.84c0.62,0,1.19-0.32,1.51-0.84l3.19-5.16c0.5-0.04,1-0.09,1.5-0.15l4.14,4.43 c0.42,0.45,1.04,0.65,1.64,0.53c0.6-0.12,1.1-0.54,1.32-1.12l2.12-5.67c0.49-0.14,0.98-0.29,1.46-0.45l4.91,3.54 c0.5,0.36,1.15,0.43,1.72,0.2c0.57-0.23,0.97-0.75,1.07-1.36l0.97-5.97c0.45-0.23,0.9-0.48,1.34-0.72l5.51,2.51 c0.56,0.26,1.21,0.2,1.72-0.14c0.51-0.34,0.81-0.92,0.79-1.54l-0.21-6.07c0.39-0.31,0.78-0.63,1.16-0.96l5.91,1.39 c0.6,0.14,1.23-0.03,1.66-0.47c0.44-0.44,0.61-1.06,0.47-1.66l-1.39-5.91c0.32-0.38,0.64-0.77,0.96-1.16l6.07,0.21 c0.61,0.02,1.2-0.28,1.54-0.79c0.34-0.51,0.4-1.16,0.14-1.72l-2.51-5.51c0.25-0.45,0.49-0.89,0.72-1.34l5.98-0.97 c0.61-0.1,1.12-0.5,1.35-1.07c0.24-0.57,0.16-1.22-0.2-1.72l-3.54-4.91c0.15-0.49,0.3-0.97,0.44-1.46l5.67-2.12 c0.58-0.22,1-0.71,1.12-1.32c0.12-0.6-0.08-1.22-0.53-1.64l-4.43-4.14c0.05-0.5,0.1-1,0.15-1.5l5.16-3.19 c0.52-0.32,0.84-0.89,0.84-1.51C122.88,60.83,122.56,60.26,122.04,59.93L122.04,59.93z"></path>
  </g>
</svg>
