<svg xmlns="http://www.w3.org/2000/svg" width="32" height="32" fill="none"><path fill="#621EE5" d="M.902 21.856a.86.86 0 0 1-.64-.27.89.89 0 0 1-.262-.64.9.9 0 0 1 .262-.643.86.86 0 0 1 .64-.275.88.88 0 0 1 .64.276.9.9 0 0 1 .269.641.88.88 0 0 1-.269.642.89.89 0 0 1-.64.27zm12.715-.16h-1.676l-5.996-9.329a4 4 0 0 1-.37-.731h-.052a12 12 0 0 1 .064 1.604v8.456H4.224V10h1.772l5.836 9.162q.364.57.474.782h.032a12.4 12.4 0 0 1-.084-1.72V10h1.363zm9.226 0h-6.2V10h5.912v1.238h-4.517v3.888h4.21v1.232h-4.21v4.055h4.811zM32 11.238h-3.392v10.458h-1.363V11.238h-3.353V10H32z"/></svg>