<svg xmlns="http://www.w3.org/2000/svg" width="32" height="32" fill="none"><path fill="#A90533" d="M6.379 21.315c-2.167-2.245-3.434-5.347-3.431-9.047-.003-3.273 1.048-6.086 2.856-8.227l-.003.001h-3.8v17.273H6.38zm20.011.001c.934-.978 1.77-2.13 2.528-3.446l-4.206-2.056c-1.477 2.348-3.637 4.51-6.624 4.524-4.347-.015-6.055-3.65-6.045-8.328h16.244c.022-.528.022-.774 0-1.028.106-2.784-.648-5.123-2.02-6.945l-.008.005h3.658v17.273h-3.535.008z"/><path fill="#A90533" d="M12.306 8c.18-2.118 1.887-3.543 3.89-3.547 2.016.004 3.473 1.429 3.522 3.547z"/><path fill="#000" d="M4.315 24.238v-.72h-2.26v4.267h2.26v-.72h-1.42v-1.13h1.367v-.72H2.895v-.977zm3.837 1.748c.564-.082.873-.628.894-1.183-.02-.907-.622-1.282-1.472-1.285H6.418v4.267h.84v-1.697l1.052 1.697h1.052l-1.21-1.8zm-.893-1.8h.105c.459.017.803.12.788.669.015.503-.318.64-.788.617h-.105zm4.731-.668h-.841v4.267h2.05v-.72H11.99zm5.52 3.392.368.875h.894l-1.63-4.37h-.683l-1.735 4.37h.893l.368-.874h1.525zm-.21-.668h-1.052l.473-1.593zm3.049 1.543h.893v-2.88l2.314 2.982h.63v-4.37h-.893v2.88l-2.313-2.982h-.631zm7.517-2.262v.668h.947c-.02.537-.47.992-1 .977-.836.015-1.25-.775-1.26-1.491.01-.706.418-1.53 1.26-1.542.443.011.817.307 1 .668l.736-.36c-.324-.667-.978-1.036-1.735-1.028-1.304-.008-2.139 1.044-2.156 2.262.017 1.188.829 2.245 2.103 2.262 1.376-.017 2.013-1.091 1.998-2.313v-.103z"/></svg>