<svg xmlns="http://www.w3.org/2000/svg" width="18" height="18" fill="none"><g clip-path="url(#a)"><path fill="#50E6FF" d="m5.5 13.1-.6.6a.3.3 0 0 1-.4 0L.2 9.4a.61.61 0 0 1 0-.8L.7 8l4.8 4.8c0 .1.1.2 0 .3"/><path fill="#1490DF" d="m4.8 4.3.6.6a.3.3 0 0 1 0 .4L.8 9.9l-.6-.6a.61.61 0 0 1 0-.8l4.3-4.3a.37.37 0 0 1 .3.1"/><path fill="#50E6FF" d="m17.3 8 .6.6a.61.61 0 0 1 0 .8l-4.4 4.4a.3.3 0 0 1-.4 0l-.6-.6a.3.3 0 0 1 0-.4z"/><path fill="#1490DF" d="m17.8 9.3-.6.6-4.7-4.7a.3.3 0 0 1 0-.4l.6-.6a.3.3 0 0 1 .4 0l4.3 4.3a.61.61 0 0 1 0 .8"/><path fill="url(#b)" d="M8.3 9.9H4.7a.22.22 0 0 1-.2-.2v-.1l4.3-8.5c.1 0 .1-.1.2-.1h4.2a.22.22 0 0 1 .2.2v.1L8.4 8h4.9a.22.22 0 0 1 .2.2c0 .1 0 .1-.1.1l-8.2 8.5c-.1 0-.6.5-.4-.2z"/></g><defs><linearGradient id="b" x1="8.754" x2="8.754" y1="16.689" y2=".724" gradientUnits="userSpaceOnUse"><stop stop-color="#FEA11B"/><stop offset=".28" stop-color="#FEA51A"/><stop offset=".55" stop-color="#FEB018"/><stop offset=".8" stop-color="#FFC314"/><stop offset="1" stop-color="#FFD70F"/></linearGradient><clipPath id="a"><path fill="#fff" d="M0 0h18v18H0z"/></clipPath></defs></svg>