<svg width="24" height="24" fill="none" xmlns="http://www.w3.org/2000/svg"><path d="M2.093 16.84h1.654V9.743H2.093v7.095zm.824-8.026a.907.907 0 100-1.814.906.906 0 100 1.814zM9.253 7.02c-2.796 0-4.55 1.921-4.55 4.993 0 3.073 1.754 4.987 4.55 4.987 2.79 0 4.544-1.914 4.544-4.987 0-3.072-1.754-4.993-4.544-4.993zm0 1.473c1.707 0 2.797 1.365 2.797 3.52 0 2.149-1.09 3.514-2.797 3.514-1.713 0-2.796-1.365-2.796-3.514 0-2.155 1.083-3.52 2.796-3.52zm5.241 5.629c.073 1.78 1.521 2.878 3.727 2.878C20.539 17 22 15.849 22 14.015c0-1.44-.824-2.25-2.77-2.698l-1.102-.254c-1.176-.281-1.66-.656-1.66-1.299 0-.803.73-1.338 1.812-1.338 1.096 0 1.847.542 1.927 1.446h1.634c-.04-1.7-1.435-2.852-3.547-2.852-2.086 0-3.567 1.158-3.567 2.872 0 1.378.837 2.235 2.604 2.644l1.242.294c1.208.288 1.7.69 1.7 1.386 0 .803-.804 1.378-1.96 1.378-1.168 0-2.052-.582-2.158-1.472h-1.66z" fill="#fff"/></svg>