<svg width="32" height="32" fill="none" xmlns="http://www.w3.org/2000/svg">
  <path fill-rule="evenodd" clip-rule="evenodd" d="M11.729 24.747s-1.243.71.885.951c2.58.29 3.897.248 6.738-.28 0 0 .748.46 1.792.858-6.371 2.685-14.419-.155-9.415-1.53zm-.779-3.503s-1.394 1.014.736 1.231c2.755.28 4.93.303 8.695-.41 0 0 .52.52 1.338.803-7.702 2.215-16.28.174-10.769-1.624z" fill="#3174B9"/>
  <path fill-rule="evenodd" clip-rule="evenodd" d="M17.512 15.3c1.57 1.778-.411 3.377-.411 3.377s3.986-2.023 2.155-4.557c-1.71-2.362-3.02-3.536 4.077-7.583 0 0-11.141 2.735-5.82 8.763z" fill="#CA3132"/>
  <path fill-rule="evenodd" clip-rule="evenodd" d="M25.938 27.338s.92.746-1.013 1.323c-3.677 1.095-15.304 1.425-18.534.044-1.16-.497 1.016-1.186 1.701-1.332.714-.151 1.122-.124 1.122-.124-1.291-.894-8.346 1.756-3.583 2.516 12.988 2.071 23.675-.932 20.307-2.427zm-13.611-9.724s-5.914 1.381-2.094 1.884c1.613.212 4.827.163 7.823-.084a61.883 61.883 0 004.905-.634s-.862.363-1.487.782c-6.007 1.554-17.608.83-14.268-.758 2.824-1.343 5.12-1.19 5.12-1.19zm10.61 5.831c6.105-3.12 3.282-6.117 1.311-5.713a4.702 4.702 0 00-.698.184s.18-.276.522-.395c3.898-1.347 6.896 3.974-1.257 6.082 0 0 .094-.084.122-.158z" fill="#3174B9"/>
  <path fill-rule="evenodd" clip-rule="evenodd" d="M19.256 0s3.38 3.326-3.207 8.44c-5.283 4.103-1.205 6.442-.002 9.115-3.084-2.736-5.347-5.144-3.83-7.386C14.448 6.879 20.62 5.283 19.257 0z" fill="#CA3132"/>
  <path fill-rule="evenodd" clip-rule="evenodd" d="M12.927 31.9c5.86.368 14.86-.205 15.073-2.932 0 0-.41 1.033-4.843 1.853-5.002.926-11.172.819-14.83.225 0 0 .75.61 4.6.853z" fill="#3174B9"/>
</svg>
