<svg xmlns="http://www.w3.org/2000/svg" width="32" height="32" fill="none"><mask id="a" width="22" height="24" x="5" y="4" maskUnits="userSpaceOnUse"><path fill="#fff" d="M16.101 4.15a1.15 1.15 0 0 0-1.139 0L5.56 9.579c-.358.201-.559.58-.559.983V21.44c0 .402.223.782.559.983l9.403 5.427a1.15 1.15 0 0 0 1.14 0l9.403-5.427c.357-.201.559-.581.559-.983V10.56c0-.402-.224-.782-.559-.983L16.102 4.15z"/></mask><g mask="url(#a)"><path fill="url(#b)" d="M16.101 4.15a1.15 1.15 0 0 0-1.139 0L5.56 9.579c-.358.201-.559.58-.559.983V21.44c0 .402.223.782.559.983l9.403 5.427a1.15 1.15 0 0 0 1.14 0l9.403-5.427c.357-.201.559-.581.559-.983V10.56c0-.402-.224-.782-.559-.983L16.102 4.15z"/><path fill="url(#c)" d="M25.527 9.577 16.08 4.15a1.6 1.6 0 0 0-.29-.112L5.2 22.175q.133.162.313.268l9.448 5.428c.268.157.581.201.871.112L25.773 9.8a1.2 1.2 0 0 0-.246-.223"/><path fill="url(#d)" fill-rule="evenodd" d="M25.55 22.422a1.28 1.28 0 0 0 .558-.715L15.744 4.017c-.268-.045-.559-.023-.804.133L5.559 9.556l10.118 18.45q.222-.037.424-.134l9.448-5.45z" clip-rule="evenodd"/><path fill="url(#e)" fill-rule="evenodd" d="m25.55 22.422-9.426 5.428a1.4 1.4 0 0 1-.424.134l.178.335 10.453-6.053v-.134l-.268-.447c-.044.313-.245.58-.514.737z" clip-rule="evenodd"/><path fill="url(#f)" fill-rule="evenodd" d="m25.55 22.422-9.426 5.428a1.4 1.4 0 0 1-.424.134l.178.335 10.453-6.053v-.134l-.268-.447c-.044.313-.245.58-.514.737z" clip-rule="evenodd"/></g><defs><linearGradient id="b" x1="19.363" x2="9.056" y1="8.197" y2="24.392" gradientUnits="userSpaceOnUse"><stop stop-color="#41873F"/><stop offset=".329" stop-color="#418B3D"/><stop offset=".635" stop-color="#419637"/><stop offset=".932" stop-color="#3FA92D"/><stop offset="1" stop-color="#3FAE2A"/></linearGradient><linearGradient id="c" x1="14.104" x2="39.918" y1="17.273" y2="3.249" gradientUnits="userSpaceOnUse"><stop offset=".138" stop-color="#41873F"/><stop offset=".403" stop-color="#54A044"/><stop offset=".714" stop-color="#66B848"/><stop offset=".908" stop-color="#6CC04A"/></linearGradient><linearGradient id="d" x1="4.657" x2="26.416" y1="16" y2="16" gradientUnits="userSpaceOnUse"><stop offset=".092" stop-color="#6CC04A"/><stop offset=".286" stop-color="#66B848"/><stop offset=".597" stop-color="#54A044"/><stop offset=".862" stop-color="#41873F"/></linearGradient><linearGradient id="e" x1="4.657" x2="26.416" y1="25.02" y2="25.02" gradientUnits="userSpaceOnUse"><stop offset=".092" stop-color="#6CC04A"/><stop offset=".286" stop-color="#66B848"/><stop offset=".597" stop-color="#54A044"/><stop offset=".862" stop-color="#41873F"/></linearGradient><linearGradient id="f" x1="29.586" x2="24.073" y1="7.683" y2="36.568" gradientUnits="userSpaceOnUse"><stop stop-color="#41873F"/><stop offset=".329" stop-color="#418B3D"/><stop offset=".635" stop-color="#419637"/><stop offset=".932" stop-color="#3FA92D"/><stop offset="1" stop-color="#3FAE2A"/></linearGradient></defs></svg>