<svg xmlns="http://www.w3.org/2000/svg" width="128" height="128" fill="none"><svg xmlns="http://www.w3.org/2000/svg" viewBox="4 4 24 24"><path fill="#98A2B3" d="M16.75 6.165a1.5 1.5 0 0 0-1.5 0l-7.392 4.268a1.5 1.5 0 0 0-.75 1.3v8.535a1.5 1.5 0 0 0 .75 1.299l7.392 4.268a1.5 1.5 0 0 0 1.5 0l7.392-4.268a1.5 1.5 0 0 0 .75-1.299v-8.536a1.5 1.5 0 0 0-.75-1.299zm.75-1.299 7.392 4.268a3 3 0 0 1 1.5 2.598v8.536a3 3 0 0 1-1.5 2.598L17.5 27.134a3 3 0 0 1-3 0l-7.392-4.268a3 3 0 0 1-1.5-2.598v-8.536a3 3 0 0 1 1.5-2.598L14.5 4.866a3 3 0 0 1 3 0"/></svg><svg xmlns="http://www.w3.org/2000/svg" width="64" height="64" x="32" y="32" viewBox="0 0 1024.4 1024.4"><style>svg{enable-background:new 0 0 1000 1000}</style><path fill="#f5a800" d="M528.7 545.9c-42 42-42 110.1 0 152.1s110.1 42 152.1 0 42-110.1 0-152.1-110.1-42-152.1 0m113.7 113.8c-20.8 20.8-54.5 20.8-75.3 0s-20.8-54.5 0-75.3 54.5-20.8 75.3 0c20.8 20.7 20.8 54.5 0 75.3m36.6-643-65.9 65.9c-12.9 12.9-12.9 34.1 0 47l257.3 257.3c12.9 12.9 34.1 12.9 47 0l65.9-65.9c12.9-12.9 12.9-34.1 0-47L725.9 16.7c-12.9-12.9-34-12.9-46.9 0M217.3 858.8c11.7-11.7 11.7-30.8 0-42.5l-33.5-33.5c-11.7-11.7-30.8-11.7-42.5 0L72.1 852l-.1.1-19-19c-10.5-10.5-27.6-10.5-38 0-10.5 10.5-10.5 27.6 0 38l114 114c10.5 10.5 27.6 10.5 38 0s10.5-27.6 0-38l-19-19 .1-.1z"/><path fill="#425cc7" d="M565.9 205.9 419.5 352.3c-13 13-13 34.4 0 47.4l90.4 90.4c63.9-46 153.5-40.3 211 17.2l73.2-73.2c13-13 13-34.4 0-47.4L613.3 205.9c-13-13.1-34.4-13.1-47.4 0m-94 322.3-53.4-53.4c-12.5-12.5-33-12.5-45.5 0L184.7 663.2c-12.5 12.5-12.5 33 0 45.5l106.7 106.7c12.5 12.5 33 12.5 45.5 0L458 694.1c-25.6-52.9-21-116.8 13.9-165.9"/></svg></svg>