<svg xmlns="http://www.w3.org/2000/svg" width="32" height="32" fill="#fff"><path d="M3.374 11.155h4.45q1.957.017 2.838 1.124.88 1.106.581 3.023a5.8 5.8 0 0 1-.515 1.718 5.1 5.1 0 0 1-1.062 1.52q-.831.858-1.776 1.09a8.2 8.2 0 0 1-1.96.231H3.939L3.308 23H1zm1.942 1.884-.996 4.955q.1.017.2.017h.232q1.593.016 2.656-.314 1.062-.346 1.428-2.412.299-1.735-.598-1.999-.88-.264-2.208-.247-.2.015-.382.016H5.3zM13.872 8h2.29l-.647 3.155h2.059q1.693.034 2.523.694.846.66.498 2.511l-1.112 5.501h-2.324l1.062-5.253q.166-.826-.1-1.173-.264-.347-1.145-.347l-1.843-.016-1.361 6.79H11.48zM23.055 11.155h4.45q1.957.017 2.838 1.124.88 1.106.581 3.023a5.8 5.8 0 0 1-.514 1.718 5.1 5.1 0 0 1-1.063 1.52q-.83.858-1.776 1.09a8.2 8.2 0 0 1-1.96.231H23.62L22.989 23H20.68zm1.942 1.884-.996 4.955q.1.017.2.017h.232q1.594.016 2.656-.314 1.063-.346 1.428-2.412.3-1.735-.598-1.999-.879-.264-2.208-.247-.2.015-.381.016h-.35z"/></svg>