<svg xmlns="http://www.w3.org/2000/svg" width="32" height="32" fill="none"><g clip-path="url(#a)"><path fill="url(#b)" d="M15.897 4.007c-6.078 0-5.698 2.635-5.698 2.635l.007 2.73h5.8v.82H7.901s-3.889-.44-3.889 5.691c0 6.133 3.394 5.915 3.394 5.915h2.026v-2.845s-.109-3.395 3.34-3.395h5.753s3.231.053 3.231-3.123v-5.25s.491-3.178-5.86-3.178zm-3.198 1.836a1.043 1.043 0 1 1 .002 2.086 1.043 1.043 0 0 1-.002-2.086"/><path fill="url(#c)" d="M16.07 27.822c6.077 0 5.698-2.635 5.698-2.635l-.007-2.73h-5.8v-.82h8.103s3.89.44 3.89-5.692-3.395-5.915-3.395-5.915h-2.026v2.846s.11 3.394-3.34 3.394h-5.752s-3.232-.052-3.232 3.124v5.25s-.49 3.178 5.86 3.178zm3.198-1.836a1.04 1.04 0 0 1-1.044-1.043 1.04 1.04 0 0 1 1.443-.965 1.042 1.042 0 0 1 0 1.929 1 1 0 0 1-.4.079z"/></g><defs><linearGradient id="b" x1="6.314" x2="18.178" y1="6.149" y2="17.894" gradientUnits="userSpaceOnUse"><stop stop-color="#387EB8"/><stop offset="1" stop-color="#366994"/></linearGradient><linearGradient id="c" x1="13.596" x2="26.337" y1="13.691" y2="25.735" gradientUnits="userSpaceOnUse"><stop stop-color="#FFE052"/><stop offset="1" stop-color="#FFC331"/></linearGradient><clipPath id="a"><path fill="#fff" d="M4 4h24v23.904H4z"/></clipPath></defs></svg>