<svg xmlns="http://www.w3.org/2000/svg" xml:space="preserve" width="32" height="32" viewBox="0 0 122.88 122.88"><path d="M101.44 46.25c.82-1.84 2.97-2.68 4.81-1.86s2.67 2.98 1.86 4.82a3.64 3.64 0 0 1-4.81 1.86 3.646 3.646 0 0 1-1.86-4.82M58.73 11.88a3.65 3.65 0 0 1 5.16.12 3.66 3.66 0 0 1-.12 5.17 3.65 3.65 0 0 1-5.16-.12c-1.39-1.47-1.34-3.78.12-5.17m47.63 49.17c0 1.12-.04 2.23-.12 3.34h-4.61c-.46 0-.65.3-.65.75v2.12c0 4.98-2.81 6.07-5.27 6.34-2.34.26-4.94-.98-5.26-2.42-1.38-7.78-3.69-9.44-7.33-12.31 4.52-2.87 9.22-7.1 9.22-12.76 0-6.12-4.19-9.97-7.05-11.86-4.01-2.64-8.45-3.17-9.65-3.17H27.97c6.46-7.21 15.22-12.32 25.13-14.18l5.62 5.89a3.32 3.32 0 0 0 4.7.11l6.29-6.01c13.17 2.45 24.33 10.65 30.75 21.9l-4.3 9.72c-.74 1.68.02 3.65 1.69 4.4l8.29 3.68c.15 1.46.22 2.95.22 4.46m-55.1-7.62v-8.46h15.16c.78 0 5.53.91 5.53 4.45 0 2.95-3.64 4-6.63 4zm-34.49 2.79 7.86-3.49a3.33 3.33 0 0 0 1.69-4.4l-1.62-3.66h6.37v28.7H18.23a45.2 45.2 0 0 1-1.71-12.32c-.01-1.64.08-3.25.25-4.83m4.28-10.15c.82 1.84-.01 4.01-1.86 4.82-1.84.82-4-.01-4.81-1.86-.82-1.85.01-4 1.86-4.82 1.84-.82 4 .02 4.81 1.86m13.93 56.48c-1.97.43-3.91-.83-4.33-2.8a3.65 3.65 0 0 1 2.8-4.34c1.97-.42 3.91.83 4.33 2.81a3.65 3.65 0 0 1-2.8 4.33m50.78-11.68c-1.8-.39-3.57.76-3.95 2.56l-1.83 8.55c-5.65 2.57-11.93 3.99-18.54 3.99-6.76 0-13.17-1.5-18.93-4.17l-1.83-8.55a3.33 3.33 0 0 0-3.95-2.56l-7.55 1.62c-1.4-1.44-2.7-2.98-3.9-4.6H62c.42 0 .69-.08.69-.45V74.27c0-.38-.28-.45-.69-.45H51.26v-8.23h11.61c1.06 0 5.67.3 7.14 6.19.46 1.81 1.47 7.7 2.17 9.59.69 2.12 3.5 6.34 6.5 6.34h18.29c.21 0 .43-.02.66-.07a45 45 0 0 1-4.16 4.88zm1.75 11.86a3.66 3.66 0 0 1-2.8-4.34 3.64 3.64 0 0 1 4.33-2.8c1.97.42 3.23 2.37 2.8 4.34a3.653 3.653 0 0 1-4.33 2.8m34.53-42.8-5.16-3.19q-.06-.75-.15-1.5l4.43-4.13c.45-.42.65-1.04.53-1.64s-.54-1.1-1.12-1.32l-5.67-2.12c-.14-.49-.29-.98-.44-1.46l3.53-4.91c.36-.5.43-1.15.2-1.72s-.75-.97-1.35-1.07l-5.98-.97c-.23-.45-.47-.9-.72-1.34l2.51-5.51a1.778 1.778 0 0 0-1.68-2.51l-6.07.21c-.31-.39-.63-.78-.96-1.16l1.39-5.91c.14-.6-.04-1.23-.47-1.66a1.78 1.78 0 0 0-1.66-.47l-5.91 1.39c-.38-.32-.77-.64-1.16-.96l.21-6.07c.02-.61-.28-1.2-.79-1.54s-1.16-.39-1.72-.14l-5.51 2.51c-.44-.24-.89-.49-1.34-.72l-.97-5.98c-.1-.61-.5-1.12-1.07-1.35-.57-.24-1.22-.16-1.72.2l-4.91 3.54c-.48-.15-.97-.3-1.46-.44L74.74 2.3c-.21-.58-.71-1-1.32-1.12-.6-.12-1.22.08-1.64.53l-4.14 4.44q-.75-.09-1.5-.15L62.95.84A1.77 1.77 0 0 0 61.44 0c-.62 0-1.19.32-1.51.84L56.74 6q-.75.06-1.5.15L51.1 1.71c-.42-.45-1.04-.65-1.64-.53s-1.1.54-1.32 1.12l-2.12 5.67c-.49.14-.98.29-1.46.44l-4.91-3.54c-.5-.36-1.15-.44-1.72-.2-.57.23-.97.75-1.07 1.35L35.89 12c-.45.23-.9.47-1.34.72l-5.51-2.51a1.778 1.778 0 0 0-2.51 1.68l.21 6.07c-.39.31-.78.63-1.16.96l-5.91-1.39c-.6-.14-1.23.04-1.66.47-.44.44-.61 1.06-.47 1.66l1.39 5.91c-.32.38-.64.77-.96 1.16l-6.07-.21c-.61-.02-1.2.28-1.54.79s-.39 1.16-.14 1.72l2.51 5.51c-.24.44-.49.89-.72 1.34l-5.98.97c-.61.1-1.12.5-1.35 1.07s-.16 1.22.2 1.72l3.54 4.91c-.15.48-.3.97-.44 1.46L2.3 48.14c-.58.21-1 .71-1.12 1.32-.12.6.08 1.22.53 1.64l4.43 4.13-.15 1.5-5.16 3.19c-.51.34-.83.91-.83 1.52 0 .62.32 1.19.84 1.51L6 66.14q.06.75.15 1.5l-4.43 4.14c-.45.42-.65 1.04-.53 1.64s.54 1.1 1.12 1.32l5.67 2.12c.14.49.29.98.44 1.46l-3.54 4.91c-.36.5-.44 1.15-.2 1.72s.75.98 1.36 1.07l5.97.98c.23.45.47.9.72 1.34l-2.51 5.51c-.26.56-.2 1.21.14 1.72s.93.81 1.54.79l6.06-.21c.32.39.63.78.96 1.16l-1.39 5.91c-.14.6.04 1.22.47 1.66s1.06.61 1.66.47l5.91-1.39c.38.33.77.64 1.16.96l-.21 6.07c-.02.61.28 1.2.79 1.54s1.16.39 1.72.14l5.51-2.51c.44.25.89.49 1.34.72l.97 5.97c.1.61.5 1.12 1.07 1.36s1.22.16 1.72-.2l4.91-3.54c.48.15.97.3 1.46.45l2.12 5.67c.21.58.71 1 1.32 1.12.6.12 1.22-.08 1.64-.53l4.14-4.43q.75.09 1.5.15l3.19 5.16c.32.52.89.84 1.51.84s1.19-.32 1.51-.84l3.19-5.16q.75-.06 1.5-.15l4.14 4.43c.42.45 1.04.65 1.64.53s1.1-.54 1.32-1.12l2.12-5.67c.49-.14.98-.29 1.46-.45l4.91 3.54c.5.36 1.15.43 1.72.2s.97-.75 1.07-1.36l.97-5.97c.45-.23.9-.48 1.34-.72l5.51 2.51a1.778 1.778 0 0 0 2.51-1.68l-.21-6.07c.39-.31.78-.63 1.16-.96l5.91 1.39c.6.14 1.23-.03 1.66-.47.44-.44.61-1.06.47-1.66l-1.39-5.91c.32-.38.64-.77.96-1.16l6.07.21c.61.02 1.2-.28 1.54-.79s.4-1.16.14-1.72l-2.51-5.51c.25-.45.49-.89.72-1.34l5.98-.97c.61-.1 1.12-.5 1.35-1.07.24-.57.16-1.22-.2-1.72l-3.54-4.91c.15-.49.3-.97.44-1.46l5.67-2.12c.58-.22 1-.71 1.12-1.32.12-.6-.08-1.22-.53-1.64l-4.43-4.14.15-1.5 5.16-3.19c.52-.32.84-.89.84-1.51.01-.62-.31-1.19-.83-1.52" style="fill-rule:evenodd;clip-rule:evenodd;fill:#fff"/></svg>