<svg xmlns="http://www.w3.org/2000/svg" width="34" height="34" fill="none" viewBox="0 0 32 32"><path fill="#343741" fill-rule="evenodd" d="m30.707 2.707-4.159 4.16a6 6 0 0 1-.648 7.719l-2.829 2.829-8.485-8.486 2.828-2.828a6 6 0 0 1 7.72-.649l4.159-4.159zM18.83 7.515l-1.415 1.414 5.657 5.657 1.414-1.414a4 4 0 1 0-5.656-5.657M10.342 16l-2.828-2.828-1.415 1.414L7.514 16l-1.415 1.415a6 6 0 0 0-.648 7.72l-4.158 4.158 1.414 1.414 4.159-4.158a6 6 0 0 0 7.719-.65l1.414-1.413 1.414 1.414 1.414-1.414L16 21.657l3.536-3.536-1.414-1.414-3.536 3.536-2.828-2.828 3.536-3.536-1.414-1.415zm-2.828 2.83 1.414-1.415 5.657 5.657-1.415 1.415a4 4 0 1 1-5.656-5.657" clip-rule="evenodd"/></svg>