<svg width="149" height="111" fill="none" xmlns="http://www.w3.org/2000/svg"><path d="M103.101 55.819h-6.347v6.347h6.347v-6.347Z" fill="#294492"/><path d="M64.354 60.247v.001c.964 1.63.265 3.669-1.326 4.609-1.59.94-3.713.57-4.677-1.06l-5.035-8.502v-.001c-4.308-7.288-.13-17.066 8.336-22.07 8.466-5.006 19.047-3.952 23.355 3.336l11.668 19.738c4.308 7.288.13 17.067-8.336 22.071-1.59.94-3.714.57-4.677-1.06-.964-1.63-.265-3.669 1.325-4.61 2.827-1.67 4.812-3.998 5.798-6.36.987-2.365.951-4.692-.113-6.492L79.004 40.11c-1.064-1.8-3.086-2.953-5.633-3.229-2.544-.275-5.541.342-8.368 2.012-2.826 1.671-4.812 4-5.797 6.361-.987 2.365-.952 4.691.112 6.492l5.036 8.502Zm0 0-5.035-8.502 5.035 8.502Zm37.617 18.731h.001l5.035 8.503c1.064 1.8 1.099 4.127.113 6.492-.986 2.362-2.971 4.69-5.798 6.361-2.826 1.67-5.823 2.287-8.368 2.012-2.547-.276-4.569-1.428-5.633-3.229L75.653 79.38c-1.064-1.8-1.1-4.127-.112-6.492.985-2.362 2.97-4.69 5.797-6.36 1.59-.941 2.29-2.98 1.326-4.61-.964-1.63-3.087-2-4.677-1.06-8.467 5.005-12.645 14.783-8.337 22.07l11.668 19.739c4.308 7.288 14.889 8.342 23.356 3.337 8.466-5.005 12.644-14.783 8.336-22.07v-.002l-5.036-8.502c-.963-1.63-3.086-2-4.677-1.06-1.591.94-2.289 2.979-1.326 4.609Z" fill="#1BA9F5" stroke="#1BA9F5" stroke-width="2"/><path d="M35.633 50.615c.092-.087.287-.338.22-.461-.066-.123-.394-.036-.512 0-.118.035-.17.205-.056.348.112.144.23.226.348.113Zm.247-3.169c.092-.066.266-.308.215-.39-.051-.081-.328-.097-.446-.076-.118.02-.19.2-.108.374a.207.207 0 0 0 .143.141.203.203 0 0 0 .196-.049Zm-2.036 2.19c.077-.036.072-.231.041-.282-.03-.052-.143-.129-.22-.087a.2.2 0 0 0-.082.23c.036.056.19.18.261.139Zm-2.625-.734c.056-.03.056-.159.04-.23-.015-.072-.133-.15-.22-.103-.087.046-.04.21 0 .277a.183.183 0 0 0 .18.056ZM94.76 98.764c-.052.072.035.24.086.271a.158.158 0 0 0 .119.034.158.158 0 0 0 .107-.06.161.161 0 0 0-.026-.225c-.046-.041-.236-.067-.287-.02Zm2.88-.528a.176.176 0 0 0-.2.03c-.035.052 0 .17.067.226.067.056.18.072.241 0 .062-.072-.077-.215-.108-.257Z" fill="#E6EBF2"/><path d="M134.007 55.819h-6.347v6.347h6.347v-6.347Zm14.679 14.679h-6.347v6.347h6.347v-6.347Zm-14.679 0h-6.347v6.347h6.347v-6.347Zm-14.674-14.679h-6.347v6.347h6.347v-6.347Zm0 14.679h-6.347v6.347h6.347v-6.347ZM24.815 89.437a1.261 1.261 0 0 1-1.102-.651 25.259 25.259 0 0 1-1.287-2.753 1.25 1.25 0 0 1 .708-1.626 1.25 1.25 0 0 1 1.36.297c.114.118.204.258.265.41.332.848.717 1.673 1.153 2.472a1.245 1.245 0 0 1-1.097 1.851Zm-2.645-8.326a1.249 1.249 0 0 1-1.241-1.118 22.257 22.257 0 0 1-.138-2.487v-.564a1.256 1.256 0 0 1 1.281-1.22 1.255 1.255 0 0 1 1.134.806c.059.153.086.316.081.481v.513c0 .74.041 1.48.123 2.215a1.25 1.25 0 0 1-1.107 1.379l-.133-.005Zm.866-8.67a1.25 1.25 0 0 1-1.19-1.64c.315-.973.701-1.92 1.154-2.836a1.253 1.253 0 0 1 2.246 1.112 17.96 17.96 0 0 0-1.026 2.497 1.254 1.254 0 0 1-1.184.867Zm4.46-7.486a1.25 1.25 0 0 1-1.23-1.476c.044-.242.158-.465.328-.641a22.113 22.113 0 0 1 2.256-2.051 1.248 1.248 0 0 1 1.451-.2 1.255 1.255 0 0 1 .626.796 1.25 1.25 0 0 1-.539 1.362 19.985 19.985 0 0 0-2 1.825 1.232 1.232 0 0 1-.891.37v.015Zm7.179-4.947a1.25 1.25 0 0 1-.513-2.4 26.966 26.966 0 0 1 2.835-1.025 1.25 1.25 0 0 1 1.334.397 1.251 1.251 0 0 1-.595 1.997c-.872.266-1.728.583-2.564.948a1.285 1.285 0 0 1-.482.067l-.015.016Zm26.056-2.051a1.25 1.25 0 1 1-.026-2.503c.948 0 1.907-.05 2.85-.092a1.252 1.252 0 0 1 .119 2.502c-.97.041-1.949.077-2.918.093h-.025Zm-5.907 0h-.036c-.953-.024-1.922-.06-2.907-.108a1.254 1.254 0 0 1-1.192-1.31A1.25 1.25 0 0 1 52 55.347c.964.046 1.917.082 2.856.103a1.257 1.257 0 0 1-.03 2.507Zm-11.67-.083a1.252 1.252 0 0 1-.132-2.497 37.08 37.08 0 0 1 2.973-.204 1.228 1.228 0 0 1 1.292 1.215 1.25 1.25 0 0 1-1.215 1.287c-.943.03-1.882.092-2.779.19l-.138.01Zm26.349-.425a1.251 1.251 0 0 1-.123-2.497c.949-.097 1.902-.21 2.825-.333a1.25 1.25 0 0 1 1.157 2.002 1.25 1.25 0 0 1-.829.48c-.948.128-1.923.24-2.902.343l-.128.005Zm8.716-1.313a1.251 1.251 0 0 1-.251-2.476c.933-.195 1.866-.4 2.769-.625a1.253 1.253 0 1 1 .594 2.435c-.933.226-1.897.44-2.86.64a1.389 1.389 0 0 1-.262-.02l.01.046Zm8.455-2.327a1.251 1.251 0 0 1-.405-2.436c.897-.307 1.79-.636 2.645-.979a1.252 1.252 0 1 1 .928 2.328c-.897.353-1.83.697-2.763 1.025a1.24 1.24 0 0 1-.405.062Zm8.054-3.497a1.254 1.254 0 0 1-1.205-.946 1.255 1.255 0 0 1 .606-1.407 40.53 40.53 0 0 0 2.415-1.415 1.25 1.25 0 1 1 1.343 2.112 43.488 43.488 0 0 1-2.564 1.502 1.206 1.206 0 0 1-.574.154h-.02Zm7.178-5.014a1.251 1.251 0 0 1-.835-2.18 31.995 31.995 0 0 0 1.963-1.942 1.253 1.253 0 0 1 2.174.791c.014.332-.104.656-.328.9a31.833 31.833 0 0 1-2.138 2.113 1.249 1.249 0 0 1-.795.318h-.041Zm5.512-6.794a1.247 1.247 0 0 1-1.253-1.233 1.257 1.257 0 0 1 .156-.623c.266-.512.513-.984.743-1.476.149-.339.303-.677.456-1.026a1.261 1.261 0 0 1 1.182-.742 1.247 1.247 0 0 1 .877.393 1.243 1.243 0 0 1 .342.898 1.247 1.247 0 0 1-.108.477l-.467 1.025c-.257.559-.513 1.113-.836 1.656a1.241 1.241 0 0 1-1.051.651h-.041Zm-7.024-6.219a1.25 1.25 0 0 1-.467-.092 26.38 26.38 0 0 1-2.697-1.282 1.249 1.249 0 0 1-.688-1.238 1.25 1.25 0 0 1 1.878-.961c.806.438 1.636.83 2.487 1.174a1.25 1.25 0 0 1 .331 2.134 1.249 1.249 0 0 1-.803.28l-.041-.015Zm10.449-1.886a1.256 1.256 0 0 1-1.116-.689 1.252 1.252 0 0 1-.068-.957c.302-.928.574-1.83.789-2.687a1.249 1.249 0 0 1 1.523-.902 1.249 1.249 0 0 1 .902 1.522c-.23.913-.512 1.872-.841 2.856a1.247 1.247 0 0 1-1.189.856Zm-17.755-2.841a1.238 1.238 0 0 1-.897-.38 14.97 14.97 0 0 1-1.949-2.46 1.252 1.252 0 1 1 2.118-1.339c.467.74 1.012 1.427 1.625 2.051a1.25 1.25 0 0 1-.897 2.123v.005ZM112.57 21.8h-.031a1.258 1.258 0 0 1-.876-.388 1.255 1.255 0 0 1-.344-.894v-.482a14.694 14.694 0 0 0-.154-2.178 1.273 1.273 0 0 1 .023-.488 1.27 1.27 0 0 1 .571-.77 1.25 1.25 0 0 1 1.882.888 16.8 16.8 0 0 1 .185 2.564v.549a1.252 1.252 0 0 1-1.277 1.2h.021Zm-23.072-2.05a1.256 1.256 0 0 1-1.287-1.144c0-.323-.03-.656-.03-.984v-.082c.004-.7.059-1.4.163-2.092a1.256 1.256 0 0 1 1.433-1.044 1.254 1.254 0 0 1 1.044 1.433 11.76 11.76 0 0 0-.139 1.718v.026c0 .277 0 .543.03.81a1.257 1.257 0 0 1-1.163 1.338l-.051.02Zm20.683-6.225a1.245 1.245 0 0 1-.99-.482 10.265 10.265 0 0 0-1.82-1.8 1.264 1.264 0 0 1-.476-.834 1.254 1.254 0 0 1 2.014-1.15c.849.65 1.611 1.405 2.271 2.246a1.256 1.256 0 0 1 .138 1.317 1.248 1.248 0 0 1-1.122.703h-.015Zm-18.099-1.923a1.252 1.252 0 0 1-.923-2.097 10.509 10.509 0 0 1 2.564-2.05 1.25 1.25 0 1 1 1.24 2.173 8.033 8.033 0 0 0-1.943 1.539 1.234 1.234 0 0 1-.954.435h.016Zm10.767-2.666a1.17 1.17 0 0 1-.323-.046 11.653 11.653 0 0 0-2.564-.395 1.251 1.251 0 0 1-1.2-1.302 1.271 1.271 0 0 1 1.303-1.2c1.054.044 2.099.206 3.117.482a1.25 1.25 0 0 1-.323 2.461h-.01Zm30.87 5.369c1.489-1.613 1.684-3.854.436-5.007-1.248-1.152-3.467-.78-4.956.833-1.489 1.612-1.684 3.853-.436 5.006 1.249 1.153 3.467.78 4.956-.832Z" fill="#294492"/><path d="M118.805 8.66c.616 1.697 5.291 2.025 6.973 2.091a1.081 1.081 0 0 0 .933-.466l.205-.298a1.076 1.076 0 0 0 .103-1.025c-.656-1.538-2.635-5.799-4.435-5.768-1.641.03-2.943 2.015-2.943 2.015s-1.394 1.912-.836 3.45Z" fill="#7DE2D1"/><path d="M121.446 3.779c-.19 1.79 3.871 4.137 5.353 4.927a1.093 1.093 0 0 0 1.025 0l.313-.18a1.084 1.084 0 0 0 .579-.897c.082-1.681.169-6.368-1.466-7.132-1.487-.692-3.528.513-3.528.513s-2.107 1.138-2.276 2.769Z" fill="#7DE2D1"/><path d="M122.564 3.179a2.468 2.468 0 0 0-1.082.292 2.01 2.01 0 0 0-.057.308c-.2 1.856 4.168 4.301 5.501 5.009-.697-1.667-2.599-5.64-4.362-5.61Z" fill="#42D4C6"/><path d="M143.744 15.874c-.615-1.692-5.291-2.051-6.973-2.087a1.078 1.078 0 0 0-.933.466l-.2.298a1.066 1.066 0 0 0-.108 1.025c.662 1.538 2.635 5.804 4.44 5.773 1.641-.03 2.943-2.015 2.943-2.015s1.39-1.917.831-3.46Z" fill="#7DE2D1"/><path d="M141.109 20.76c.189-1.795-3.877-4.138-5.358-4.932a1.084 1.084 0 0 0-1.026 0l-.313.174a1.076 1.076 0 0 0-.569.902c-.087 1.682-.169 6.373 1.467 7.132 1.487.692 3.527-.513 3.527-.513s2.097-1.133 2.272-2.763Z" fill="#7DE2D1"/><path d="M135.602 15.75c.717 1.662 2.625 5.64 4.368 5.61a2.474 2.474 0 0 0 1.082-.298c.024-.1.043-.2.056-.302.195-1.856-4.189-4.307-5.506-5.01Z" fill="#42D4C6"/><path d="M43.662 32.198H0v5.717h43.662v-5.717Z" fill="#00BFB3"/><path d="M117.247 28.117a1.252 1.252 0 0 1-.836-2.19c.692-.605 1.41-1.25 2.128-1.912a1.255 1.255 0 0 1 1.697 1.846c-.739.677-1.467 1.333-2.174 1.948a1.237 1.237 0 0 1-.815.308Zm6.424-6.014a1.251 1.251 0 0 1-.882-2.138c1.23-1.226 1.994-2.051 2-2.051a1.25 1.25 0 0 1 1.815 1.717c-.031.031-.795.836-2.051 2.087-.232.24-.549.378-.882.385Z" fill="#294492"/><path d="m41.442 14.562-9.777 9.777a2.928 2.928 0 0 0 0 4.14l9.777 9.778a2.928 2.928 0 0 0 4.14 0l9.778-9.777a2.928 2.928 0 0 0 0-4.14l-9.777-9.778a2.928 2.928 0 0 0-4.14 0Z" fill="#F04E98"/><path d="M23.774 34.736a.48.48 0 0 0-.282-.62c-.2-.098-.44.04-.569.323a.35.35 0 0 0 .149.512.748.748 0 0 0 .702-.215Zm-7.711 2.892c-.04.082.093.195.154.236a.14.14 0 0 0 .175-.062.224.224 0 0 0-.057-.22c-.041-.031-.23-.036-.272.046Zm1.815-3.733c.092.04.19-.103.226-.164a.182.182 0 0 0-.072-.185.342.342 0 0 0-.21.113c-.046.056-.031.195.056.236Zm1.887 2.985c-.2-.032-.4-.093-.595-.14a.293.293 0 0 0-.466.088.384.384 0 0 0 .149.512c.11.069.204.16.276.267a.567.567 0 0 0 .344.303h.22a.746.746 0 0 0 .364-.59c-.015-.19-.02-.4-.292-.44Zm.907-2.072a.23.23 0 0 0-.218-.012.229.229 0 0 0-.13.176c.005.11.027.22.067.323a.357.357 0 0 0 .385-.095.353.353 0 0 0 .07-.12c.047-.16-.055-.226-.174-.272Zm4.395-.283a.354.354 0 0 0 .476-.148.616.616 0 0 0 0-.092.323.323 0 0 0 .205-.21.313.313 0 0 0-.107-.262.388.388 0 0 0-.318 0 .28.28 0 0 0-.072.087.403.403 0 0 0-.405.2.351.351 0 0 0 .22.425Zm-2.723 2.872a.33.33 0 0 0-.425.154.319.319 0 0 0 .03.364h.575a.286.286 0 0 0 .056-.082c.014-.045.018-.09.014-.137a.352.352 0 0 0-.25-.3Zm-.144-1.471c.047-.16-.056-.22-.174-.272-.118-.051-.333 0-.349.164a.97.97 0 0 0 .067.323.344.344 0 0 0 .456-.215Zm-1.548-2.323a.2.2 0 0 0 .072.23c.077.036.184-.04.215-.092.031-.051.036-.25-.04-.282-.078-.03-.226.072-.247.144Zm-3.03 1.2c-.287-.031-.37.343-.272.513.098.169.041.133-.072.317-.113.185-.169.513.2.595a.718.718 0 0 0 .795-.513.836.836 0 0 0-.651-.912Zm15.633-.661c-.221-.513-.636-.21-.749-.344-.113-.133-.139-.487-.287-.703a.562.562 0 0 0-.851-.194.621.621 0 0 0-.103.907.299.299 0 0 0-.03.056.675.675 0 0 0 .435.631.596.596 0 0 0 .308 0 .4.4 0 0 0 0 .39c.174.44.661.559.856.282.195-.277.056-.513.118-.58.062-.066.4-.2.303-.446Zm1.174.6a.414.414 0 0 0-.139 0 .367.367 0 0 0-.24-.288.553.553 0 0 0-.575.374.306.306 0 0 0 .128.335.303.303 0 0 0 .118.045.406.406 0 0 0 .236 0 .41.41 0 0 0 .154.39c.328.18.605-.098.743-.247.139-.148-.112-.543-.425-.61Zm.466-2.2a.51.51 0 0 0-.58-.272c-.092 0-.179.03-.276.046l-.092-.118h-1.308c0 .03.046.062.072.087a.642.642 0 0 0 .108.19c-.103.354.102.543.384.697-.072.185-.246.359 0 .544a.322.322 0 0 0 .426 0c.23-.175.097-.374 0-.57l.271-.25.344.338c.126-.023.25-.06.37-.108a.48.48 0 0 0 .168-.18.51.51 0 0 0 .16-.179.229.229 0 0 0-.047-.225Zm-8.455 1.81a.353.353 0 0 0 0-.595.485.485 0 0 0-.42 0 .4.4 0 0 0-.149.344.41.41 0 0 0 .57.25Zm4.82-1.698c.067-.107-.041-.374-.185-.456h-.169a.323.323 0 0 0-.194.303c.03.19.466.282.548.153Zm-2.123 2.164c-.097.277 0 .513.19.59a.702.702 0 0 0 .78-.349.513.513 0 0 0-.35-.512.442.442 0 0 0-.62.271Zm-2.169-2.62h-.425c.036.103.077.185.123.205.046.02.251-.051.302-.205Zm2.4 2.179c.338-.436.543-.102.887-.333a.655.655 0 0 0 .123-.144.445.445 0 0 0-.41-.697 2.737 2.737 0 0 0-.733.118.691.691 0 0 0-.38.723c.026.159.21.467.513.334Zm.754-1.287a.243.243 0 0 0 .222 0 .244.244 0 0 0 .131-.18.46.46 0 0 0-.082-.342c-.071-.067-.41-.036-.466.107a.33.33 0 0 0 .195.416Zm-6.096.39c.2-.062.225-.226.138-.605-.195-.036-.415-.15-.559.108a.334.334 0 0 0 .251.51.39.39 0 0 0 .17-.013Zm12.751 3.394a.345.345 0 0 0-.462.19.305.305 0 0 0 .107.34.314.314 0 0 0 .114.055.354.354 0 0 0 .446-.226.278.278 0 0 0-.205-.36Zm-2.384-.441a.195.195 0 0 0-.077 0 .667.667 0 0 0-.359-.349.545.545 0 0 0-.595.41.327.327 0 0 0 0 .124 1.1 1.1 0 0 0-.071.43c.036.098.22.308.05.426-.168.118-.43.108-.512.313l-.03.072a.291.291 0 0 0-.134-.077.513.513 0 0 0-.374.113h1.471a.467.467 0 0 1 0-.252c.056-.118.164-.23.333-.128.17.102.477.041.667-.323.19-.364-.072-.8-.37-.759Zm1.615.806c-.174-.047-.446.179-.482.4a.257.257 0 0 0 .123.276h.672a.204.204 0 0 0 .056-.097.57.57 0 0 0-.37-.58Zm-1.303.676h.872a.729.729 0 0 0-.252-.154.51.51 0 0 0-.62.154Zm1.733-1.702c.092-.35-.087-.605-.513-.703a.904.904 0 0 0-.276 0 .368.368 0 0 0-.344.174.743.743 0 0 0-.133.262.63.63 0 0 0 .569.733.643.643 0 0 0 .697-.466Zm3 .246a.206.206 0 0 0 .174-.041l-.825-.826a.834.834 0 0 0-.21.287.461.461 0 0 0 .271.641.55.55 0 0 0 .59-.061Zm-1.948 1.138a.364.364 0 0 0-.35.318h.688a.283.283 0 0 0-.339-.318Zm2.686-.61c-.308-.041-.687.026-.8.205a.148.148 0 0 0-.03.087c.086.292-.144.4-.303.56a.37.37 0 0 0-.057.076h.959a.333.333 0 0 1 .216-.154c.05.046.102.113.154.154h.446a.615.615 0 0 0 .086-.03.196.196 0 0 0 .077-.17l-.748-.728Z" fill="#01ADA1"/><path d="M37.566 34.69a.635.635 0 0 0-.19-.061c.057.01.114.01.17 0a.433.433 0 0 0 .174-.087l-1.179-1.18c-.066.144-.123.267-.18.277-.056.01-.512-.374-.912-.215a.722.722 0 0 0-.39.917 1.214 1.214 0 0 0 1.139.636c.328-.087.338-.512.43-.548.093-.036.364.195.682.22a.577.577 0 0 0-.513.328.698.698 0 0 0-.056.42.56.56 0 0 0-.087.185.745.745 0 0 0 .342.784.755.755 0 0 0 .283.103.723.723 0 0 0 .882-.548.573.573 0 0 0-.082-.513.758.758 0 0 0-.513-.718Zm-5.414 1.99a.07.07 0 0 1 0-.031.385.385 0 0 0 .292-.292.354.354 0 0 0-.323-.38.333.333 0 0 0-.19 0 .639.639 0 0 0-.712.262.633.633 0 0 0-.246-.103.38.38 0 0 0-.513.226.734.734 0 0 0 .36.687.431.431 0 0 0 .448-.19.434.434 0 0 0 .064-.159.764.764 0 0 0 .169.113.46.46 0 0 0 .524 0 .457.457 0 0 0 .127-.134Zm-4.661 1.235h.539a.62.62 0 0 0-.154-.113.288.288 0 0 0-.385.113Zm.277-1.831c.088-.225 0-.543-.164-.61a.66.66 0 0 0-.461.031.334.334 0 0 0-.2-.128.364.364 0 0 0-.395.2 1.206 1.206 0 0 0-.656-.092.51.51 0 0 1-.282-.051.452.452 0 0 0-.744.22.261.261 0 0 0-.107-.077.405.405 0 0 0-.426.292.415.415 0 0 0 .19.554.35.35 0 0 0 .44-.236.706.706 0 0 0 .319.144c.168.008.327.08.446.2a.716.716 0 0 0 .687.169.626.626 0 0 0 .477-.513v-.067a.58.58 0 0 0 .312.313c.226.087.441-.056.564-.349Zm.944-3.506a.446.446 0 0 0-.81.041c-.09.184-.158.379-.2.58a.088.088 0 0 0-.072-.072.108.108 0 0 0-.113.087c0 .03.056.092.082.097a.108.108 0 0 0 .077-.026.705.705 0 0 0 .466.713.277.277 0 0 0 .364-.113 1.96 1.96 0 0 0 .283-1.133.777.777 0 0 0-.077-.174Zm-1.579 5.029a.392.392 0 0 0-.513.22.246.246 0 0 0 0 .088h.723a.351.351 0 0 0-.21-.308Zm2.64-1.035a.625.625 0 0 0-.805.933.328.328 0 0 0-.072.139.41.41 0 0 0 0 .272h.585v-.031c.01-.05.01-.1 0-.149a.73.73 0 0 0 .513-.41.586.586 0 0 0-.22-.754Zm2.62 1.164c.061-.144-.046-.308-.128-.41-.083-.103-.298 0-.364.123-.067.123 0 .323.117.359.118.035.313.066.375-.072Zm-8.511-.436c-.272-.103-.574 0-.646.17a.603.603 0 0 0 .082.445h.866a.435.435 0 0 0-.004-.38.44.44 0 0 0-.298-.235Zm6.558.615h.41a.424.424 0 0 0-.154-.072.311.311 0 0 0-.257.072Zm.066-2.138a.342.342 0 0 0-.205-.241c-.087 0-.333 0-.374.112-.041.113.154.282.24.334.088.051.34-.062.34-.205Z" fill="#01ADA1"/><path d="M65.237 45.39H19.083v5.717h46.154V45.39Z" fill="#FF957D"/><path d="M50.737 51.107h14.506v-5.712H51c-.653 1.856-.763 3.712-.263 5.712Z" fill="#FA744E"/></svg>