<?xml version="1.0" encoding="UTF-8"?>
<svg width="40px" height="50px" viewBox="0 0 40 50" version="1.1" xmlns="http://www.w3.org/2000/svg" xmlns:xlink="http://www.w3.org/1999/xlink">
    <!-- Generator: Sketch 43.2 (39069) - http://www.bohemiancoding.com/sketch -->
    <title>icon-security-bb-edited</title>
    <desc>Created with Sketch.</desc>
    <defs></defs>
    <g id="Page-1" stroke="none" stroke-width="1" fill="none" fill-rule="evenodd">
        <g id="icon-security-bb-edited">
            <path d="M0,25.9749 L0,26.2749 C0.8,36.6749 8.1,46.0759 19.3,49.8749 C19.7,49.9749 20.2,49.9749 20.6,49.8749 C32,46.0759 39.5,36.6749 40,26.2749 L40,25.9749 L0,25.9749 Z" id="Fill-1" fill="#00BFB3"></path>
            <path d="M40,25.9749 L40,7.3749 C40,6.5749 39.4,5.7749 38.6,5.4749 L20.6,0.0749 C20.2,-0.0251 19.8,-0.0251 19.4,0.0749 L1.4,5.4749 C0.6,5.7749 0,6.4749 0,7.3749 L0,25.9749 L40,25.9749 Z" id="Fill-3" fill="#13A7DF"></path>
            <polygon id="Fill-6" fill="#0078A0" points="0 25.975 40 25.975 40 19.975 0 19.975"></polygon>
        </g>
    </g>
</svg>