<svg xmlns="http://www.w3.org/2000/svg" width="147" height="51" viewBox="0 0 147 51">
  <g fill="#FFF">
    <path d="M4.3,23.5 L4.3,16.8 L6.4,16.6 L10.4,23.6 L14.5,23.6 L9.5,14.8 L14.3,7.1 L10.3,7.1 L6.4,13.5 L4.4,13.7 L4.4,0.1 L0.8,0.1 L0.8,23.5 C0.7,23.5 4.3,23.5 4.3,23.5 Z M17.3,23.5 L20.9,23.5 L20.9,7 L17.3,7 L17.3,23.5 Z M17.3,4.2 L20.9,4.2 L20.9,0.4 L17.3,0.4 L17.3,4.2 Z M33,6.7 C31.1,6.7 28.9,7.7 28.9,7.7 L28.9,0.2 L25.3,0.2 L25.3,23.6 C25.3,23.6 29.6,24 31.3,24 C37.2,24 39.4,22 39.4,15.1 C39.4,8.9 37.5,6.7 33,6.7 Z M31.3,20.7 C30.6,20.7 28.8,20.6 28.8,20.6 L28.8,10.6 C28.8,10.6 30.7,9.9 32.5,9.9 C34.7,9.9 35.7,11.4 35.7,15.1 C35.7,19.1 35,20.7 31.3,20.7 Z M55.2,12.1 C55.2,8.3 53.5,6.6 49.5,6.6 C46.5,6.6 42.9,7.5 42.9,7.5 L43,10 C43,10 47,9.7 49.2,9.7 C50.8,9.7 51.6,10.3 51.6,12.1 L51.6,13.3 L47.3,13.7 C43.8,14 41.8,15.2 41.8,18.7 C41.8,22.1 43.5,24 46.7,24 C49.4,24 52,22.8 52,22.8 C53.2,23.8 54.4,24 56.4,24 L56.5,21.3 C55.5,21.2 55.1,20.8 55,19.8 L55.2,12.1 L55.2,12.1 Z M51.6,15.8 L51.6,20.2 C51.6,20.2 49.4,20.9 47.5,20.9 C46.1,20.9 45.5,20 45.5,18.5 C45.5,17 46.3,16.3 47.8,16.2 L51.6,15.8 Z M63.3,23.5 L63.3,10.7 C63.3,10.7 65.1,9.8 67,9.8 C69.5,9.8 69.9,11.4 69.9,14.7 L69.9,23.5 L73.5,23.5 L73.5,14.6 C73.5,9.2 72.4,6.6 67.8,6.6 C65.7,6.6 63.2,8 63.2,8 L63.2,7 L59.6,7 L59.6,23.5 L63.3,23.5 Z M89.9,12.1 C89.9,8.3 88.2,6.6 84.2,6.6 C81.2,6.6 77.6,7.5 77.6,7.5 L77.7,10 C77.7,10 81.7,9.7 83.9,9.7 C85.5,9.7 86.3,10.3 86.3,12.1 L86.3,13.3 L82,13.7 C78.5,14 76.5,15.2 76.5,18.7 C76.5,22.1 78.2,24 81.4,24 C84.1,24 86.7,22.8 86.7,22.8 C87.9,23.8 89.1,24 91.1,24 L91.2,21.3 C90.2,21.2 89.8,20.8 89.7,19.8 L89.9,12.1 L89.9,12.1 Z M86.3,15.8 L86.3,20.2 C86.3,20.2 84.1,20.9 82.2,20.9 C80.8,20.9 80.2,20 80.2,18.5 C80.2,17 81,16.3 82.5,16.2 L86.3,15.8 Z" transform="translate(55 13.49)"/>
    <path d="M1.135615 51L39.000065 51C39.000065 40.74135 33.063615 31.623825 23.851815 25.7951625L1.135615 51zM0 16.575L0 45.9 19.227 23.2713C13.5512 20.63715 19.99335 17.85 13 17.85L0 16.575z"/>
    <path d="M39,0 L0,0 L0,19.125 C6.99335,19.125 13.5512,20.63715 19.227,23.2713 L39,0 Z"/>
  </g>
</svg>
