<?xml version="1.0" standalone="no"?>
<!DOCTYPE svg PUBLIC "-//W3C//DTD SVG 20010904//EN"
 "http://www.w3.org/TR/2001/REC-SVG-20010904/DTD/svg10.dtd">
<svg version="1.0" xmlns="http://www.w3.org/2000/svg"
 width="800.000000pt" height="300.000000pt" viewBox="0 0 800.000000 300.000000"
 preserveAspectRatio="xMidYMid meet">
<metadata>
Created by potrace 1.14, written by Peter Selinger 2001-2017
</metadata>
<g transform="translate(0.000000,300.000000) scale(0.100000,-0.100000)"
fill="#000000" stroke="none">
<path d="M3787 2600 c-485 -82 -795 -546 -681 -1018 24 -101 103 -256 173
-338 207 -245 546 -349 854 -263 l39 10 -52 39 -51 38 -117 -5 c-148 -6 -235
11 -357 71 -264 131 -419 395 -402 686 10 183 78 333 211 466 223 222 539 276
821 139 411 -200 534 -720 257 -1085 -27 -36 -59 -74 -71 -84 -11 -11 -21 -23
-21 -27 0 -4 23 -15 52 -25 l52 -17 44 49 c214 240 261 610 117 909 -153 317
-526 512 -868 455z"/>
<path d="M4575 2604 c-16 -2 -60 -12 -98 -20 l-68 -16 53 -39 52 -39 106 6
c80 5 126 3 190 -10 103 -21 243 -86 320 -150 l54 -46 38 37 c44 42 44 42 -46
110 -74 56 -217 125 -306 147 -65 17 -239 28 -295 20z"/>
<path d="M3865 2393 c-16 -2 -49 -6 -71 -9 l-41 -5 28 -107 c47 -175 40 -168
82 -86 20 40 59 102 86 138 l50 66 -39 0 c-21 0 -44 2 -52 3 -7 2 -26 2 -43 0z"/>
<path d="M4035 2310 c-64 -78 -119 -176 -147 -262 -18 -57 -26 -68 -49 -73
-36 -8 -103 -67 -123 -109 -19 -41 -21 -125 -3 -169 18 -41 86 -103 124 -111
26 -6 32 -15 48 -64 83 -265 301 -470 585 -548 101 -28 311 -26 415 4 111 32
229 92 309 158 l68 56 -37 38 -37 38 -62 -47 c-137 -107 -254 -151 -421 -158
-142 -6 -230 12 -355 73 -81 40 -109 61 -186 139 -78 77 -99 106 -138 186 -25
52 -46 100 -46 106 0 6 20 23 45 37 77 45 118 142 95 225 -13 49 -81 128 -116
137 -29 7 -29 9 -4 78 28 73 91 170 152 233 l51 52 -38 16 c-75 31 -76 30
-130 -35z"/>
<path d="M3416 2168 c-49 -56 -121 -187 -114 -209 2 -7 51 -25 107 -40 169
-46 157 -45 170 -6 7 19 27 52 46 74 l34 40 -98 97 -98 98 -47 -54z"/>
<path d="M999 2135 c-12 -27 -64 -146 -114 -263 -51 -117 -96 -212 -101 -211
-5 1 -57 112 -115 248 l-106 246 -53 3 c-50 3 -52 2 -46 -20 12 -48 313 -733
321 -731 4 1 57 116 117 255 61 139 113 256 117 261 4 4 59 -112 122 -258 63
-146 117 -265 120 -265 4 0 294 664 325 744 5 13 -2 16 -48 16 l-54 0 -110
-254 c-60 -140 -112 -251 -116 -248 -3 4 -54 117 -112 250 -58 134 -110 251
-115 260 -8 14 -14 8 -32 -33z"/>
<path d="M7196 2160 c-54 -27 -76 -48 -97 -95 -23 -49 -24 -94 -3 -143 25 -60
63 -91 181 -148 89 -43 118 -62 138 -92 95 -140 -116 -255 -228 -123 -15 18
-31 39 -35 48 -8 14 -16 14 -61 3 -28 -6 -51 -15 -51 -18 0 -4 14 -30 30 -59
88 -154 294 -191 410 -74 89 89 92 210 9 305 -28 32 -71 61 -150 101 -127 65
-149 83 -149 124 0 47 48 81 116 81 58 0 85 -9 121 -42 l22 -20 40 33 41 33
-32 33 c-66 68 -218 95 -302 53z"/>
<path d="M1690 1785 l0 -375 205 0 205 0 0 55 0 55 -155 0 -155 0 0 125 0 125
155 0 155 0 0 50 0 50 -155 0 -155 0 0 90 0 90 155 0 155 0 0 55 0 55 -205 0
-205 0 0 -375z"/>
<path d="M2232 1788 l3 -373 170 0 170 0 3 53 3 52 -120 0 -121 0 0 320 0 320
-55 0 -55 0 2 -372z"/>
<path d="M2692 1788 l3 -373 170 0 170 0 0 50 0 50 -117 3 -118 3 0 319 0 320
-55 0 -55 0 2 -372z"/>
<path d="M5182 1888 c5 -317 10 -341 89 -420 59 -59 130 -83 229 -76 119 9
199 68 241 178 17 45 19 78 19 320 l0 270 -49 0 -50 0 -3 -272 c-3 -254 -4
-275 -24 -308 -74 -126 -265 -118 -325 15 -16 35 -19 69 -19 303 l0 262 -56 0
-56 0 4 -272z"/>
<path d="M5920 1785 l0 -375 173 2 172 3 0 50 0 50 -117 3 -118 3 0 319 0 320
-55 0 -55 0 0 -375z"/>
<path d="M6352 1883 c3 -268 4 -280 27 -331 80 -177 339 -219 470 -77 74 80
75 85 79 403 l3 283 -53 -3 -53 -3 -5 -275 c-5 -253 -7 -278 -25 -310 -31 -52
-78 -75 -155 -75 -76 0 -120 21 -153 75 -21 33 -22 49 -27 310 l-5 275 -53 3
-53 3 3 -278z"/>
<path d="M3566 1431 l-98 -98 48 -37 c61 -47 152 -90 229 -110 77 -19 196 -30
231 -22 l27 7 -25 27 c-36 39 -66 85 -113 170 -36 68 -44 76 -88 93 -27 9 -63
29 -81 43 l-33 25 -97 -98z"/>
</g>
</svg>
