<svg xmlns="http://www.w3.org/2000/svg" width="147" height="51" viewBox="0 0 147 51">
  <g fill="#FFF" fill-rule="evenodd">
    <path fill-rule="nonzero" d="M59.3,36.99 L59.3,30.29 L61.4,30.09 L65.4,37.09 L69.5,37.09 L64.5,28.29 L69.3,20.59 L65.3,20.59 L61.4,26.99 L59.4,27.19 L59.4,13.59 L55.8,13.59 L55.8,36.99 C55.7,36.99 59.3,36.99 59.3,36.99 Z M72.3,36.99 L75.9,36.99 L75.9,20.49 L72.3,20.49 L72.3,36.99 Z M72.3,17.69 L75.9,17.69 L75.9,13.89 L72.3,13.89 L72.3,17.69 Z M88,20.19 C86.1,20.19 83.9,21.19 83.9,21.19 L83.9,13.69 L80.3,13.69 L80.3,37.09 C80.3,37.09 84.6,37.49 86.3,37.49 C92.2,37.49 94.4,35.49 94.4,28.59 C94.4,22.39 92.5,20.19 88,20.19 Z M86.3,34.19 C85.6,34.19 83.8,34.09 83.8,34.09 L83.8,24.09 C83.8,24.09 85.7,23.39 87.5,23.39 C89.7,23.39 90.7,24.89 90.7,28.59 C90.7,32.59 90,34.19 86.3,34.19 Z M110.2,25.59 C110.2,21.79 108.5,20.09 104.5,20.09 C101.5,20.09 97.9,20.99 97.9,20.99 L98,23.49 C98,23.49 102,23.19 104.2,23.19 C105.8,23.19 106.6,23.79 106.6,25.59 L106.6,26.79 L102.3,27.19 C98.8,27.49 96.8,28.69 96.8,32.19 C96.8,35.59 98.5,37.49 101.7,37.49 C104.4,37.49 107,36.29 107,36.29 C108.2,37.29 109.4,37.49 111.4,37.49 L111.5,34.79 C110.5,34.69 110.1,34.29 110,33.29 L110.2,25.59 L110.2,25.59 Z M106.6,29.29 L106.6,33.69 C106.6,33.69 104.4,34.39 102.5,34.39 C101.1,34.39 100.5,33.49 100.5,31.99 C100.5,30.49 101.3,29.79 102.8,29.69 L106.6,29.29 Z M118.3,36.99 L118.3,24.19 C118.3,24.19 120.1,23.29 122,23.29 C124.5,23.29 124.9,24.89 124.9,28.19 L124.9,36.99 L128.5,36.99 L128.5,28.09 C128.5,22.69 127.4,20.09 122.8,20.09 C120.7,20.09 118.2,21.49 118.2,21.49 L118.2,20.49 L114.6,20.49 L114.6,36.99 L118.3,36.99 Z M144.9,25.59 C144.9,21.79 143.2,20.09 139.2,20.09 C136.2,20.09 132.6,20.99 132.6,20.99 L132.7,23.49 C132.7,23.49 136.7,23.19 138.9,23.19 C140.5,23.19 141.3,23.79 141.3,25.59 L141.3,26.79 L137,27.19 C133.5,27.49 131.5,28.69 131.5,32.19 C131.5,35.59 133.2,37.49 136.4,37.49 C139.1,37.49 141.7,36.29 141.7,36.29 C142.9,37.29 144.1,37.49 146.1,37.49 L146.2,34.79 C145.2,34.69 144.8,34.29 144.7,33.29 L144.9,25.59 L144.9,25.59 Z M141.3,29.29 L141.3,33.69 C141.3,33.69 139.1,34.39 137.2,34.39 C135.8,34.39 135.2,33.49 135.2,31.99 C135.2,30.49 136,29.79 137.5,29.69 L141.3,29.29 Z"/>
    <path d="M0.750017394,23.0519672 C7.6588047,23.0519672 14.1515341,20.7004737 19.8163223,23.7158704 L40,0 L5.56352045e-15,0 L5.56352045e-15,47 L-1.42108547e-14,21.7132994 C0.250469631,21.7078687 0.498156265,21.694292 0.750017394,21.694292 L0.750017394,23.0519672 Z" opacity=".7"/>
    <path d="M3.96024794e-14,44.5777029 L0,51 L40,51 C37.7622183,39.3330986 30.1863657,29.5040499 19.8418504,24 L3.96024794e-14,44.5777029 Z" opacity=".7"/>
    <path d="M3.90346229e-14,44.5790612 L0,51 L7.02086525,51 L26,28.3480908 C26,28.3480908 24.7392108,27.2953665 22.9524061,26.0592645 C21.5858645,25.0961916 19.5573398,24 19.5573398,24 L3.90346229e-14,44.5790612 Z" opacity=".5"/>
    <path d="M0.756969314,19 C0.502773682,19 0.252791237,19.0135665 0,19.0189932 L0,47 L20,23.7333689 C14.2827049,20.7202384 7.72979426,19 0.756969314,19"/>
  </g>
</svg>
