<svg id="Layer_1" data-name="Layer 1" xmlns="http://www.w3.org/2000/svg" viewBox="0 0 141.37 51"><defs><style>.cls-1,.cls-2,.cls-3,.cls-4{fill:#fff;}.cls-1{opacity:0.6;}.cls-2{opacity:0.4;}.cls-3{opacity:0.9;}</style></defs><title>Kibana-Full-Logo</title><path class="cls-1" d="M409.68,273.59a38.94,38.94,0,0,1,18.71,4.76L448.2,254.5H408.94v19.11Z" transform="translate(-408.94 -254.5)"/><path class="cls-1" d="M428.39,278.35l-19.45,23.42v3.73h39.2A39.2,39.2,0,0,0,428.39,278.35Z" transform="translate(-408.94 -254.5)"/><path class="cls-2" d="M428.39,278.35l-19.45,23.42v3.73h7l18.87-22.77s-1.25-1.06-3-2.3C430.41,279.46,428.39,278.35,428.39,278.35Z" transform="translate(-408.94 -254.5)"/><path class="cls-3" d="M409.68,273.59l-0.74,0v28.17l19.45-23.42A38.94,38.94,0,0,0,409.68,273.59Z" transform="translate(-408.94 -254.5)"/><path class="cls-4" d="M457.06,291.29H453.2V266.23h3.86v14.48l2.2-.21,4.18-6.9h4.32l-5.1,8.28,5.38,9.42h-4.36l-4.32-7.47-2.3.25v7.22Z" transform="translate(-408.94 -254.5)"/><path class="cls-4" d="M470.86,270.58v-4.07h3.86v4.07h-3.86Zm0,20.71v-17.7h3.86v17.7h-3.86Z" transform="translate(-408.94 -254.5)"/><path class="cls-4" d="M487.64,273.2q3.65,0,5.26,2t1.61,7.2q0,5.17-1.91,7.21t-6.73,2q-1.66,0-5.27-.32l-1.2-.11v-25h3.82v8A11.25,11.25,0,0,1,487.64,273.2Zm-1.77,15q2.83,0,3.77-1.33a8.11,8.11,0,0,0,.94-4.51,9.08,9.08,0,0,0-.8-4.48,2.82,2.82,0,0,0-2.6-1.29,11.33,11.33,0,0,0-3.4.53l-0.57.18v10.76Q485.17,288.25,485.87,288.25Z" transform="translate(-408.94 -254.5)"/><path class="cls-4" d="M511.47,279v8.07a1.68,1.68,0,0,0,.41,1.15,2,2,0,0,0,1.15.48l-0.11,2.94a7.45,7.45,0,0,1-4.71-1.31,13.47,13.47,0,0,1-5.7,1.31q-5.28,0-5.28-5.63a4.81,4.81,0,0,1,1.43-3.89,7.81,7.81,0,0,1,4.41-1.45l4.57-.39V279a2.15,2.15,0,0,0-2.44-2.55q-2.27,0-5.66.28l-1.13.07-0.14-2.73a30.77,30.77,0,0,1,7.1-.92q3.24,0,4.67,1.4A6,6,0,0,1,511.47,279Zm-7.93,4.39a2.38,2.38,0,0,0-2.44,2.66q0,2.44,2.16,2.44A13.67,13.67,0,0,0,507,288l0.64-.21V283Z" transform="translate(-408.94 -254.5)"/><path class="cls-4" d="M520.18,291.29h-3.86v-17.7h3.82v1.1A9.85,9.85,0,0,1,525,273.2q3.54,0,4.83,2t1.29,6.6v9.49h-3.82v-9.38a9.58,9.58,0,0,0-.62-4.07,2.57,2.57,0,0,0-2.53-1.2,8.77,8.77,0,0,0-3.47.71l-0.53.21v13.74Z" transform="translate(-408.94 -254.5)"/><path class="cls-4" d="M548.75,279v8.07a1.68,1.68,0,0,0,.41,1.15,2,2,0,0,0,1.15.48l-0.11,2.94a7.45,7.45,0,0,1-4.71-1.31,13.48,13.48,0,0,1-5.7,1.31q-5.28,0-5.28-5.63a4.82,4.82,0,0,1,1.43-3.89,7.81,7.81,0,0,1,4.41-1.45l4.57-.39V279a2.15,2.15,0,0,0-2.44-2.55q-2.27,0-5.66.28l-1.13.07-0.14-2.73a30.78,30.78,0,0,1,7.1-.92q3.24,0,4.67,1.4A6,6,0,0,1,548.75,279Zm-7.93,4.39a2.38,2.38,0,0,0-2.44,2.66q0,2.44,2.16,2.44a13.66,13.66,0,0,0,3.75-.57l0.64-.21V283Z" transform="translate(-408.94 -254.5)"/></svg>