<svg xmlns="http://www.w3.org/2000/svg" width="141" height="51" viewBox="0 0 141 51">
  <g fill="none" fill-rule="evenodd">
    <g fill="#353535" fill-rule="nonzero" transform="translate(49 13.49)">
      <path d="M4.3 23.5L4.3 16.8 6.4 16.6 10.4 23.6 14.5 23.6 9.5 14.8 14.3 7.1 10.3 7.1 6.4 13.5 4.4 13.7 4.4.1.8.1.8 23.5C.7 23.5 4.3 23.5 4.3 23.5zM17.3 23.5L20.9 23.5 20.9 7 17.3 7 17.3 23.5zM17.3 4.2L20.9 4.2 20.9.4 17.3.4 17.3 4.2zM33 6.7C31.1 6.7 28.9 7.7 28.9 7.7L28.9.2 25.3.2 25.3 23.6C25.3 23.6 29.6 24 31.3 24 37.2 24 39.4 22 39.4 15.1 39.4 8.9 37.5 6.7 33 6.7zM31.3 20.7C30.6 20.7 28.8 20.6 28.8 20.6L28.8 10.6C28.8 10.6 30.7 9.9 32.5 9.9 34.7 9.9 35.7 11.4 35.7 15.1 35.7 19.1 35 20.7 31.3 20.7zM55.2 12.1C55.2 8.3 53.5 6.6 49.5 6.6 46.5 6.6 42.9 7.5 42.9 7.5L43 10C43 10 47 9.7 49.2 9.7 50.8 9.7 51.6 10.3 51.6 12.1L51.6 13.3 47.3 13.7C43.8 14 41.8 15.2 41.8 18.7 41.8 22.1 43.5 24 46.7 24 49.4 24 52 22.8 52 22.8 53.2 23.8 54.4 24 56.4 24L56.5 21.3C55.5 21.2 55.1 20.8 55 19.8L55.2 12.1 55.2 12.1zM51.6 15.8L51.6 20.2C51.6 20.2 49.4 20.9 47.5 20.9 46.1 20.9 45.5 20 45.5 18.5 45.5 17 46.3 16.3 47.8 16.2L51.6 15.8zM63.3 23.5L63.3 10.7C63.3 10.7 65.1 9.8 67 9.8 69.5 9.8 69.9 11.4 69.9 14.7L69.9 23.5 73.5 23.5 73.5 14.6C73.5 9.2 72.4 6.6 67.8 6.6 65.7 6.6 63.2 8 63.2 8L63.2 7 59.6 7 59.6 23.5 63.3 23.5zM89.9 12.1C89.9 8.3 88.2 6.6 84.2 6.6 81.2 6.6 77.6 7.5 77.6 7.5L77.7 10C77.7 10 81.7 9.7 83.9 9.7 85.5 9.7 86.3 10.3 86.3 12.1L86.3 13.3 82 13.7C78.5 14 76.5 15.2 76.5 18.7 76.5 22.1 78.2 24 81.4 24 84.1 24 86.7 22.8 86.7 22.8 87.9 23.8 89.1 24 91.1 24L91.2 21.3C90.2 21.2 89.8 20.8 89.7 19.8L89.9 12.1 89.9 12.1zM86.3 15.8L86.3 20.2C86.3 20.2 84.1 20.9 82.2 20.9 80.8 20.9 80.2 20 80.2 18.5 80.2 17 81 16.3 82.5 16.2L86.3 15.8z"/>
    </g>
    <path fill="#3EBEB0" d="M1.135615,51 L39.000065,51 C39.000065,40.74135 33.063615,31.623825 23.851815,25.7951625 L1.135615,51 Z"/>
    <path fill="#37A595" d="M0,33.15 L0,51 L2.43555,51 L23.85435,25.7913375 C22.3912,24.86505 20.84095,24.027375 19.22375,23.275125 L0,33.15 Z"/>
    <path fill="#353534" d="M0,16.575 L0,45.9 L19.227,23.2713 C13.5512,20.63715 19.99335,17.85 13,17.85 L0,16.575 Z"/>
    <path fill="#E9478B" d="M39,0 L0,0 L0,19.125 C6.99335,19.125 13.5512,20.63715 19.227,23.2713 L39,0 Z"/>
  </g>
</svg>
