<?xml version="1.0" encoding="utf-8"?>
<!-- Generator: Adobe Illustrator 19.2.1, SVG Export Plug-In . SVG Version: 6.00 Build 0)  -->
<svg version="1.1" id="Layer_1" xmlns="http://www.w3.org/2000/svg" xmlns:xlink="http://www.w3.org/1999/xlink" x="0px" y="0px"
	 viewBox="0 0 40 40" style="enable-background:new 0 0 40 40;" xml:space="preserve">
<style type="text/css">
	.st0{fill:#E9478B;}
	.st1{fill:#3EBEB0;}
	.st2{fill:#37A595;}
	.st3{fill:#353535;}
	.st4{fill:none;}
</style>
<title>logo-menu</title>
<g id="ES_Hadoop_Gery">
	<path class="st0" d="M5.6,15.1c5,0,9.9,1.2,14.3,3.6L35,0.5H5v36.2l0,0V15.1L5.6,15.1z"/>
	<path class="st1" d="M19.9,18.7L5,36.7v2.8h30C33.3,30.7,27.8,23,19.9,18.7z"/>
	<path class="st2" d="M19.9,18.7L5,36.7v2.8h5.3l14.4-17.4c0,0-1-0.8-2.3-1.8C21.4,19.6,19.9,18.7,19.9,18.7z"/>
	<path class="st3" d="M5.6,15.1H5v21.6l14.9-17.9C15.5,16.3,10.5,15.1,5.6,15.1z"/>
</g>
<rect x="0" class="st4" width="40" height="40"/>
</svg>
