<svg xmlns="http://www.w3.org/2000/svg" width="43" height="51" viewBox="0 0 43 51">
  <g fill="none" fill-rule="evenodd">
    <path fill="#FFC000" d="M4.97214157 50.6241818C.2364612 46.6332937-1.02177627 40.479681 1.1974291 32.1633437c.4508005-1.2962031.78693276-2.1349608 1.00839677-2.5162731 2.37198915-4.0840437 3.88826874-6.0115473 4.4669341-7.2136694.9895608-2.055718-3.5178404-9.5533154 3.2270042-13.2033133-1.19279487 2.6748694-1.1477231 4.8439968.13521533 6.507382.5242035.6796526.9738641-3.5180796 2.1879989-2.9949324.8094232.3487648 2.5150123 1.3470756 5.1167671 2.9949324l-1.4185274-3.5175277C13.9259514 6.56125322 15.0229967 2.48793914 19.2123542 0c-1.053319 7.0755323-.3298536 10.6815942 2.1703963 10.8181858 3.7503749.2048874 1.0003242-6.77077702.677422-7.0887057-.3229022-.3179287 5.3289113 2.7761356 3.7249394 12.0079898-1.2493281 2.7166086-.8335294 3.9406027 1.247396 3.6719824 2.0809255-.2686203 2.9665148-2.1518326 2.6567678-5.6496368-2.2193548-4.86416172-2.3694446-9.11785616-.4502692-12.76108338.4166336 3.4240625 1.2333819 5.767977 2.4502449 7.0317435 1.8252946 1.8956498 4.6226594 9.14398218 4.6226594 12.15127848 0 2.0048642-.8799833 4.8869024-2.63995 8.6461147-.4169325 1.2640609-.2102601 2.1292391.6200172 2.5955345 1.2454159.6994431 2.6383803-.2503689 3.074971-.6994431.4365907-.4490743 2.9754095-6.1157115 2.3192901-9.5961475 3.3619205 4.9217127 3.9903839 10.2035237 1.8853903 15.8454332-3.1574905 8.4628641-9.1034962 12.9185022-10.361021 13.4775268-.8383499.372683-9.5845055.4304861-26.23846683.1734091z"/>
    <path fill="#FF3F00" d="M6.00743904 36.6206376c0-1.7743291.6930613-3.0264394.92419552-4.3654479.2419917-1.401908.51967634-2.6181935.69435192-3.2861462.34151395-1.3059362.29263014-2.7022834 0-2.9109241-.29263015-.2086407 1.66530098.719976 1.89738696 1.1927845.154724.3152057 1.97807516 2.6325526 5.47005346 6.9520406l7.1213397-6.4922583 4.3073812-1.101932 2.3877947-2.2696575c.7826642-1.5961198 1.5458944-2.3702614 2.2896908-2.3224249-.237393.5612324-.2967412 1.0387878-.1780447 1.4326661.1780447.5908175 2.9372891 4.5789458 2.9803427 4.8819716.0430536.3030258 7.039179 16.6144452-2.6317439 22.3479358V34.8463085L7.96750043 43.8314368c-1.3067076-2.9193533-1.9600614-5.3229531-1.9600614-7.2107992z"/>
    <path fill="#FFC000" d="M10.594781 39.5105872c.2690852-.6735378-.0375225-1.9108102-.9198229-3.7118174-1.32345067-2.7015106 1.4642719 1.165297 2.6464529 1.8559087.7881206.4604079.2125773 1.0790441-1.72663 1.8559087zm16.26634625-7.1073432c.7159237-.11624658 1.61855856-1.016303 2.7079047-2.7001694 1.63401903-2.5257995-.24469872 1.8552983-.22780026 3.22431653.0112655.9126788-.81543593.7379631-2.48010446-.52414714z"/>
    <path fill="#292320" d="M9.3098992 23.266471l-5.55436686-.8095441c-.75642838-.9978084-.15240686-1.6404965 1.81206453-1.9280644 1.9644714-.2875679 3.2119055-.4313518 3.74230232-.4313518.54086122-4.7276563 1.698077-7.3875867 3.4716474-7.9797914.4671618.1560794.7335562.6672067.7991831 1.5333819 1.4707-.7941386 3.066749-1.1796358 4.7881467-1.1564915 2.5820967.0347165 8.9170348 2.8159375 8.7055787 10.3543961 3.1300588 2.3566678 5.0490099 4.4881851 5.7568535 6.3945518.7078435 1.9063666.7884196 2.85955.2417282 2.85955-.8725835-.0467226-1.7302925-.5349949-2.5731272-1.4648169-1.2642519-1.3947331-4.43273-3.2911188-4.6950881-3.1173196-.2623581.1737992-.5247161 1.0918321-.2623581 1.2656313.1749054.1158661.5090943.1158661 1.0025666 0 .154724.5437463.331199.8562666.5294251.9375609.2973392.1219415.9583918.9846451.9117504 1.503005-.0310943.3455733-.0466415.637553-.0466415.8759393 1.2198529.2485118 2.0733014.6972219 2.5603456 1.34613.7305663.9733623.5581276 1.8282547.7305663 2.0267894.1149592.1323564-.4948925 5.2349503-1.829555 15.3077815H5.00389147c2.15744655-7.0909781 4.74999828-11.6617594 7.77765512-13.712344 1.090692-.289593 1.7158666-.3619912 1.8755238-.2171947.2394859.2171947.5973692-1.4311854-.2394858-2.0487041l-1.6613768.2154589c-1.1165541-.1275106-1.6704211-.7544317-1.6616011-1.8807633-.0318417-.357724-.1389526-.5626234-.3213325-.614698-.27357-.078112-.6537649-.5876843-.4156245-.8312418.2381404-.2435576.7093758-.1837802.2381404-.4671532-.4712355-.2833729-.98373066-.3976117-.70780622-.7116871.18394962-.2093835.27592442-.4731561.27592442-.7913179-.9509919-.015767-1.4363917-.1759689-1.45619935-.4806057-.0297115-.4569552.71060915-2.342275 1.18027493-2.7364152.46966582-.3941401-.36124687-1.3596911-.46966578-1.5347922-.07227927-.116734-.1084189-.6853604-.1084189-1.7058792zm3.003215-9.4186794c-1.3827242 2.4297893-1.9344983 4.4614968-1.6553224 6.0951224 1.8373286.0433956 2.8102584.1154322 2.9187895.2161099.0752591.0698134-.2349831-.6806968-.6691252-2.7308822-.1279553-.6042542-.3260693-1.7977042-.5943419-3.5803501z"/>
    <path fill="#FFC000" d="M29.4385802 34.8617139h4.8702267l-3.2468178 16.0068756h-4.4991618l-4.7310774-8.1746954-1.669792 8.1746954h-4.8934183l3.2468178-16.0068756h4.4991619l4.7542689 8.2203641"/>
  </g>
</svg>
