<svg xmlns="http://www.w3.org/2000/svg" width="106" height="58" viewBox="0 0 106 58">
  <g fill="none" fill-rule="evenodd">
    <path fill="#FFC000" d="M5.63085938 56.8366699c-5.33867664-4.259557-6.77046018-11.0886775-4.2953506-20.4873617.50278383-1.4649.87767665-2.4128196 1.12467843-2.8437586 2.6455114-4.6155699 4.3366384-6.7939325 4.98203166-8.1525072 1.10367045-2.3232637-3.92349467-10.7966513 3.59912107-14.9216857-1.3303401 3.0229958-1.28007095 5.4744287.1508075 7.3542986.5846512.7681074 1.0861638-3.9759473 2.4403046-3.384714.9027606.3941555 2.8050269 1.5223935 5.706799 3.384714l-1.5821027-3.9753235C15.5318006 7.41518103 16.75535 2.8117371 21.4277967 0c-1.1747809 7.99639202-.3678902 12.0717723 2.4206721 12.2261409 4.1828435.2315529 1.115675-7.65197377.7555379-8.01127994-.3601372-.35930617 8.2406392 1.098379 6.4517077 11.53173184.4541731 4.5601941 1.8417016 6.6885009 4.1625858 6.3849205 2.3208841-.3035805 3.3085937-2.4318873 2.9631288-6.3849205-2.4752763-5.497218-2.6426734-10.3045183-.5021913-14.42190083.464677 3.86969416 1.3756074 6.51866224 2.7327911 7.94690426 2.0357755 2.14236307 5.155714 10.33404457 5.155714 13.73273157 0 2.2657914-.9814572 5.5229184-2.9443716 9.7713812-.4650105 1.4285747-.234506 2.4063532.6915134 2.9333356 1.3890292.7904736 2.942621-.2829536 3.4295565-.7904736.4869355-.5075199 3.3185142-6.9116533 2.5867354-10.8450578 3.7495951 5.5622591 4.4505288 11.5314823 2.1028011 17.9076697-3.5215916 9.564281-11.2625909 14.855487-11.5741143 14.855487H5.63085938z"/>
    <path fill="#FF3F00" d="M6.70017745 41.3867058c0-2.0052527.77298057-3.4203216 1.03076767-4.933598.2698966-1.5843622.579602-2.9589437.77442002-3.7138285.3808951-1.4759.32637433-3.0539776 0-3.2897723-.32637433-.2357947 1.85733256.8136787 2.11618116 1.3480219.1725657.3562288 2.2061738 2.9751715 6.1008241 7.8568282l7.9425258-7.3372066 4.8040801-1.2453452 2.6631395-2.5650468c.8729159-1.80385 1.7241568-2.6787439 2.5537229-2.6246816-.2647676.6342751-.3309595 1.1739829-.1985757 1.6191234.1985757.6677106 3.275998 5.1748821 3.3240163 5.5173458.0480183.3424637 1.2503513 2.6732129.3301258 7.362907H34.87606L8.88626024 49.5359693c-1.45738853-3.2992985-2.1860828-6.0157197-2.1860828-8.1492635z"/>
    <path fill="#FFC000" d="M11.8165015 44.652774c.3001144-.7611968-.0418493-2.1594967-1.0258908-4.1948996-1.4760623-3.0531043 1.6331222 1.316957 2.9516244 2.0974498.8790016.5203286.2370904 1.2194785-1.9257336 2.0974498zm18.11245645-8.02725784c.8070433-.13479717 1.82949588-1.14809482 3.06735785-3.039893 1.85679298-2.83769736-.28773232 2.0781418-.27766634 3.61030236.00671057 1.0214404-.92318657.83130392-2.7896915-.57040936z"/>
    <path fill="#292320" d="M10.3834556 26.2945338l-6.19485994-.9149039c-.84365473-1.1276702-.16998143-1.8540023 2.0210199-2.1789963 2.19100134-.324994 3.58228135-.487491 4.17384004-.487491.6032298-5.3429468 1.8938882-8.3490594 3.871975-9.0183377.5210319.1763926.818145.7540416.8913396 1.732947 1.6402915-.8974934 3.4203863-1.3331619 5.3402844-1.3070055 2.8798471.0392347 9.9452887 3.1824235 9.7094488 11.7019903 3.4909966 2.6633812 5.6312286 5.0723092 6.420696 7.2267839.7894674 2.1544747.879335 3.231712.2696027 3.231712-.9732041-.0528033-1.9298185-.6046229-2.8698433-1.6554585-1.4100371-1.5762535-4.9438833-3.7194482-5.2364948-3.5230296-.2926115.1964187-.585223 1.2339309-.2926115 1.4303495.1950743.1309458.5677997.1309458 1.118176 0 .1725657.6145133.3693907.9677072.5904749 1.0595818.3316264.1378118 1.0689072 1.1127937 1.0168874 1.6986166-.0346799.3905486-.0520198.7205287-.0520198.9899402 1.3605183.280855 2.3123809.7879633 2.8555878 1.5213249.8148104 1.1000425.6224872 2.0661967.8148104 2.29057.1282156.1495823-.5155773 5.7145684-1.9313786 16.6949584H6.20961557c1.98709032-7.6104574 4.66902863-12.5744172 8.04581503-14.8918793 1.2164635-.3272827 1.9137291-.4091034 2.0917969-.245462.2671018.245462.6662538-1.61745-.2671017-2.3153369l-1.8529559.2435002c-1.2453078-.1441057-1.8630431-.8526187-1.853206-2.1255391-.0355135-.4042807-.1549757-.6358471-.3583865-.6946991-.3051163-.0882781-.7291528-.6641697-.4635516-.9394255.2656012-.2752559.7911764-.2076986.2656012-.5279518-.5255753-.3202531-1.097168-.4493597-.7894258-.804311.2051615-.2366342.3077423-.5347361.3077423-.8943056-1.0606541-.0178191-1.602027-.1988709-1.62411876-.5431552-.03313762-.5164266.79255196-2.6471152 1.31637646-3.0925515.5238246-.4454363-.4029035-1.536651-.5238245-1.734541-.0806141-.1319266-.1209211-.774558-.1209211-1.9278943zm3.349526-10.6444929c-1.5421708 2.7460193-2.1575719 5.0421476-1.8462033 6.8883847 2.0491973.0490434 3.134319.1304554 3.2553651.244236.0839376.0788994-.2620798-.7692875-.7462843-3.0862985-.1427103-.6828961-.3636694-2.0316701-.6628775-4.0463222zm37.6659696 26.4531397H42.604561l-.8018415 4.0257621h8.1218781l-.7501098 3.7677005h-8.121878l-1.3191586 6.5289603H35l3.6212195-18.0901233H52.149061l-.7501098 3.7677004zm14.9167866-2.9548062c1.3536531.7311784 2.4098316 1.7419099 3.1685671 3.0322247.7587355 1.2903148 1.1380975 2.7440477 1.1380975 4.3612423 0 1.8752576-.4828244 3.5956515-1.4484878 5.1612335-.9656633 1.565582-2.2761868 2.7999646-3.9316097 3.703185-1.6554229.9032204-3.4660146 1.3548238-5.4318293 1.3548238-1.7243989 0-3.2634018-.3698847-4.6170549-1.1096652-1.3536531-.7397805-2.4055206-1.7591139-3.1556341-3.0580308-.7501135-1.298917-1.1251646-2.7655528-1.1251646-4.3999516 0-1.8924617.4828244-3.6128557 1.4484878-5.1612335.9656633-1.5483777 2.2718759-2.7655565 3.9186768-3.6515726 1.6468009-.8860162 3.4530816-1.3290177 5.4188963-1.3290177 1.7243989 0 3.2634018.3655838 4.6170549 1.0967621zm-7.6950915 3.6773789c-.8621994.5161259-1.5519486 1.2214875-2.0692683 2.1161057-.5173196.8946183-.7759756 1.8666409-.7759756 2.9160969 0 .9118225.1983029 1.7376116.5949147 2.4773921.3966117.7397805.9397892 1.3247145 1.6295488 1.7548194.6897595.4301049 1.4484836.6451542 2.2761951.6451542.9484194 0 1.8450933-.2623601 2.6900488-.7870881.8449554-.524728 1.5174609-1.2343906 2.0175365-2.1290088.5000757-.8946183.7501098-1.8752429.7501098-2.9419031 0-.9118225-.189681-1.7333106-.5690488-2.464489-.3793677-.7311784-.9053015-1.3075104-1.5778171-1.7290132-.6725155-.4215029-1.4139959-.6322511-2.2244634-.6322511-.9656633 0-1.879581.2580591-2.7417805.774185zm29.0783415 4.9418811c-.7759795 1.2301001-1.8882001 2.1634138-3.3366951 2.7999691l2.5348536 5.858h-5.3800975L79.8875 51.419207h-3.4918902l-1.0087683 5.0063965h-4.7334513l3.6212196-18.0901233h8.1477439c2.0692786 0 3.6600127.4473024 4.77225 1.3419207 1.1122372.8946183 1.6683475 2.1505058 1.6683475 3.7677004 0 1.651603-.3879839 3.0924329-1.1639634 4.3225331zm-10.5532683-.1161278h3.4142927c1.1553472 0 2.0606431-.3010689 2.7159146-.9032159.6552716-.6021469.9829025-1.4365379.9829025-2.5031982 0-.6881679-.2198576-1.217189-.6595793-1.5870793-.4397217-.3698902-1.0734288-.5548326-1.9011402-.5548326h-3.4401586l-1.1122317 5.548326zm24.8363415-9.096674c1.241567.3698902 2.3193.8645035 3.233232 1.4838546l-2.198598 3.7677005c-.879443-.5677386-1.849403-1.0365459-2.909908-1.4064362-1.0605057-.3698902-1.9614906-.5548326-2.7029821-.5548326-.6035396 0-1.0863641.1118256-1.4484878.3354802-.3621238.2236546-.5604267.5505294-.5949147.9806344-.0172439.5505343.2284792.9720308.7371769 1.2645022.5086976.2924713 1.3234639.6107442 2.4443231.9548282 1.1208593.3440839 2.0477096.6838617 2.7805796 1.0193436.732869.3354818 1.362265.8343961 1.888207 1.4967577.525942.6623616.788909 1.5268596.788909 2.5935198 0 1.3247232-.349186 2.4558823-1.047568 3.393511-.698381.9376288-1.646786 1.6429903-2.845243 2.1161058-1.1984576.4731154-2.5219139.7096696-3.970409.7096696-1.517471 0-2.9918099-.2580591-4.4230609-.7741851-1.4312511-.5161259-2.6469341-1.2300894-3.6470854-2.1419119l2.1985976-3.7160881c.8277114.8085973 1.8407806 1.47525 3.0392378 1.999978 1.1984572.524728 2.2805012.7870881 3.2461646.7870881.7587355 0 1.3536442-.1419325 1.7847439-.4258017.4310997-.2838693.6466464-.7010648.6466464-1.2515992 0-.3784923-.1379499-.6924642-.4138537-.9419251-.2759038-.2494608-.6207784-.4516071-1.0346342-.6064449-.4138557-.1548378-1.0087644-.3526831-1.7847439-.5935419-1.1208592-.3096755-2.0433988-.6279484-2.7676463-.9548281-.7242475-.3268798-1.3450218-.8085901-1.8623415-1.4451454-.5173196-.6365553-.7759756-1.4709464-.7759756-2.5031983 0-1.2387022.3276309-2.3182494.9829025-3.238674.6552715-.9204245 1.5735002-1.634388 2.7547134-2.1419119C95.2612559 38.2537581 96.6278215 38 98.1797805 38c1.2932991 0 2.5607135.1849424 3.8022805.5548326z"/>
    <path fill="#FFC000" d="M32.8040366 39h5.4318293l-3.6212196 18.0901233h-5.0179756l-5.2766341-9.2386079-1.8623415 9.2386079H17L20.6212195 39h5.0179756l5.3025 9.2902203"/>
  </g>
</svg>
