<svg xmlns="http://www.w3.org/2000/svg" width="20" height="34" viewBox="0 0 20 34">
  <defs>
    <linearGradient id="a" x1="37.598676%" x2="66.455912%" y1="81.326138%" y2="24.924239%">
      <stop stop-color="#00B5E9" offset="0%"/>
      <stop stop-color="#37EECB" offset="100%"/>
    </linearGradient>
    <linearGradient id="b" x1="37.598676%" x2="66.455912%" y1="81.368641%" y2="24.890216%">
      <stop stop-color="#00B5E9" offset="0%"/>
      <stop stop-color="#37EECB" offset="100%"/>
    </linearGradient>
  </defs>
  <g fill="none">
    <path fill="url(#a)" d="M16.327998 14.98997c.12032.25789.229392.517247.327215.77807.451443 1.089333.887655 2.462715 1.019457 4.164215.00082.085955.001307.168568.001442.248027.031814.153422.04772.30851.04772.46526 0 .3476-.046693.684283-.134143 1.00411-.06276.336283-.163448.558918-.31401.787206-.14214.265202-.314856.511534-.51343.734272-.056035.081828-.11528.16099-.17752.237313l-1.971605 1.540387-.952837.744437-.724396.56596-2.73325 2.135448c-.00332.001104-.00664.002202-.009965.003295L4.56799 32.792457c-.472527.164903-.98652.226605-1.51325.16193C1.167592 32.722674-.168453 30.95653.0706 29.00959c.099972-.814198.459575-1.531077.982194-2.072695l1.097712-.857627.003076.003937.06046-.053576 4.543934-3.55011c.021017-.02111.042286-.041936.0638-.06248L16.328 14.98997z" transform="rotate(-7 10.5 24.175)"/>
    <path fill="url(#b)" d="M16.325835.852824c.090514.193197.174706.387215.252575.582054.47936 1.119833.961052 2.55664 1.099268 4.36343.000712.08345.001114.163753.001188.241082.033528.157276.050293.316303.050293.47708 0 .367188-.0522.722198-.149588 1.058032-.059026.283036-.147474.484537-.2734.684085-.14633.282447-.32713.544195-.53684.77969-.058727.085937-.121002.168947-.18657.248827l-1.967278 1.537006-.955105.74621-.72612.567307-2.714816 2.121047c-.00452.001542-.00904.003075-.013567.004598l-5.642395 4.40832c-.477245.168684-.99716.232248-1.530103.16681-1.890795-.23216-3.22961-2.000155-2.990333-3.948927.099313-.80883.454865-1.52168.972032-2.062288l1.09978-.859242.00291.003726.057347-.0508 4.532667-3.54131c.018272-.01874.03674-.037264.0554-.055574l9.56265-7.47116z" transform="rotate(173 10.088 9.804)"/>
  </g>
</svg>
