<?xml version="1.0" encoding="UTF-8"?>
<svg width="20px" height="34px" viewBox="0 0 20 34" version="1.1" xmlns="http://www.w3.org/2000/svg" xmlns:xlink="http://www.w3.org/1999/xlink">
    <!-- Generator: Sketch 46.2 (44496) - http://www.bohemiancoding.com/sketch -->
    <title>Symbol</title>
    <desc>Created with Sketch.</desc>
    <defs>
        <linearGradient x1="37.5986761%" y1="82.429692%" x2="66.4559117%" y2="24.0408717%" id="linearGradient-1">
            <stop stop-color="#00B5E9" offset="0%"></stop>
            <stop stop-color="#37EECB" offset="100%"></stop>
        </linearGradient>
        <linearGradient x1="37.5986761%" y1="81.3261375%" x2="66.4559117%" y2="24.9242385%" id="linearGradient-2">
            <stop stop-color="#00B5E9" offset="0%"></stop>
            <stop stop-color="#37EECB" offset="100%"></stop>
        </linearGradient>
        <linearGradient x1="37.5986761%" y1="81.368641%" x2="66.4559117%" y2="24.8902155%" id="linearGradient-3">
            <stop stop-color="#00B5E9" offset="0%"></stop>
            <stop stop-color="#37EECB" offset="100%"></stop>
        </linearGradient>
    </defs>
    <g id="Page-1" stroke="none" stroke-width="1" fill="none" fill-rule="evenodd">
        <g id="statengine-logo" transform="translate(-3.000000, -2.000000)" fill-rule="nonzero">
            <g id="Symbol" transform="translate(13.060935, 18.496273) rotate(-7.000000) translate(-13.060935, -18.496273) translate(2.060935, 1.996273)">
                <path d="M16.3279979,14.9899707 C16.448318,15.2478597 16.5573897,15.5072166 16.6552131,15.7680412 C17.106656,16.8573727 17.5428683,18.2307545 17.6746697,19.9322552 C17.6754898,20.0182098 17.675977,20.1008229 17.6761125,20.1802823 C17.7079256,20.3337043 17.7238322,20.488791 17.7238322,20.6455426 C17.7238322,20.9931418 17.6771394,21.3298252 17.5896891,21.6496523 C17.5269331,21.9859353 17.4262462,22.2085702 17.2756805,22.4368576 C17.1335434,22.7020596 16.9608282,22.9483916 16.7622538,23.1711305 C16.7062188,23.2529582 16.6469723,23.3321215 16.5847319,23.4084435 L14.6131277,24.9488296 L13.6602908,25.6932674 L12.9358945,26.2592277 L10.2026464,28.3946752 C10.1993261,28.3957786 10.1960038,28.3968769 10.1926796,28.3979701 L4.56799322,32.7924566 C4.09546587,32.9573604 3.58147388,33.0190616 3.05474279,32.9543871 C1.16759278,32.7226743 -0.168453075,30.9565287 0.0706008569,29.0095907 C0.170571924,28.1953917 0.530175453,27.4785125 1.05279394,26.9368952 L2.15050647,26.0792682 L2.15358248,26.0832053 L2.21404224,26.0296286 L6.75797555,22.4795188 C6.77899317,22.4584143 6.80026237,22.4375878 6.82177715,22.4170443 L16.3279979,14.9899707 Z" id="Combined-Shape" fill="url(#linearGradient-2)"></path>
                <g id="Group-4" transform="translate(12.929487, 10.165281) rotate(180.000000) translate(-12.929487, -10.165281) translate(3.929487, 0.665281)" fill="url(#linearGradient-3)">
                    <path d="M16.3258346,0.852824474 C16.4163494,1.04602057 16.5005412,1.24003855 16.5784099,1.43487841 C17.057769,2.55471089 17.5394621,3.99151662 17.6776778,5.79830846 C17.6783902,5.88175766 17.6787922,5.96206096 17.6788664,6.03938994 C17.7123944,6.19666593 17.7291585,6.35569287 17.7291585,6.51647076 C17.7291585,6.8836576 17.676962,7.23866758 17.5795761,7.57450203 C17.5205502,7.85753777 17.4321015,8.0590386 17.3061762,8.25858695 C17.1598473,8.54103372 16.9790473,8.80278152 16.7693373,9.03827573 C16.7106085,9.1242136 16.6483341,9.20722421 16.5827659,9.28710364 L14.6154881,10.8241095 L13.660383,11.5703194 L12.9342625,12.1376269 L10.2194466,14.2586736 C10.2149281,14.2602158 10.2104059,14.2617487 10.2058801,14.2632721 L4.56348592,18.6715935 C4.08624056,18.8402755 3.56632737,18.9038397 3.03338264,18.8384023 C1.14258904,18.606242 -0.196227991,16.8382472 0.0430511024,14.8894754 C0.14236303,14.0806447 0.497914532,13.3677963 1.0150819,12.8271868 L2.11486098,11.9679452 L2.11777229,11.9716715 L2.17512013,11.9208656 L6.7077851,8.37955962 C6.7260569,8.36082126 6.74452493,8.3422953 6.76318512,8.32398504 L16.3258346,0.852824474 Z" id="Combined-Shape"></path>
                </g>
            </g>
        </g>
    </g>
</svg>