<svg xmlns="http://www.w3.org/2000/svg" width="18" height="31" viewBox="0 0 18 31">
  <path fill="#6F6560" fill-rule="evenodd" d="M1.626 24.617l-.867.867c-.26.446-.4.96-.4 1.507 0 1.72 1.4 3.11 3.13 3.11.82 0 1.57-.31 2.13-.83l.187-.18.07-.073 3.697-3.7c.2-.1.39-.22.564-.36l.47-.47c.03-.036.054-.07.08-.106l.59-.566.51-.506.59-.594.78-.78.1-.1c.21-.22.395-.42.56-.605.052-.033.1-.07.15-.104l.63-.628c.11-.15.21-.308.29-.475.43-.635.64-1.41.54-2.21-.02-.194-.075-.38-.155-.56l-.017-.134c-.35-1.906-1.09-3.27-1.695-4.255L1.94 24.497l-.037.04H1.9l-.178.177-.094-.093zm14.64-18.66l.864-.864c.25-.445.39-.956.39-1.5 0-1.716-1.406-3.106-3.142-3.106-.956 0-1.812.42-2.388 1.086L8.264 5.298c-.222.113-.428.25-.615.41l-.36.353-.13.16c-.31.29-.59.57-.86.83l-.25.25-.6.6-.687.69c-.28.3-.53.56-.743.8-.06.04-.114.08-.17.12l-.607.61c-.115.154-.217.317-.3.49-.428.633-.638 1.405-.54 2.207.024.194.08.38.16.563l.014.13c.345 1.91 1.087 3.273 1.692 4.26L15.96 6.08l.03-.037h.002l.178-.178.097.095z"/>
</svg>
