<svg height="100" width="100" xmlns="http://www.w3.org/2000/svg"><g fill="#29ace3" fill-rule="evenodd"><path d="M51.166 63.614c-4.452 0-8.061-3.591-8.061-8.024 0-4.428 3.609-8.02 8.06-8.02 4.45 0 8.057 3.592 8.057 8.02 0 4.433-3.607 8.024-8.056 8.024zm-23.735 0c-4.45 0-8.062-3.59-8.062-8.022 0-4.43 3.612-8.021 8.062-8.021s8.055 3.59 8.055 8.02c0 4.432-3.605 8.023-8.055 8.023zm23.735-21.398c-5.141 0-9.614 2.88-11.867 7.106a13.434 13.434 0 00-11.868-7.106c-3.02 0-5.811.995-8.062 2.676v-11.27C19.342 32.165 18.149 31 16.682 31S14.034 32.165 14 33.622v22.191h.003C14.12 63.1 20.084 68.97 27.43 68.97a13.44 13.44 0 0011.868-7.104 13.44 13.44 0 0011.867 7.104c7.416 0 13.432-5.988 13.432-13.379 0-7.387-6.016-13.374-13.432-13.374z"/><path d="M85.441 64.49l-7.301-8.917 7.31-8.936c.924-1.178.66-2.825-.616-3.7-1.278-.881-3.07-.655-4.059.489v-.002l-6.29 7.676-6.283-7.676v.002c-.978-1.144-2.782-1.37-4.055-.488-1.274.875-1.54 2.52-.611 3.7h-.003l7.297 8.935-7.297 8.918h.003c-.929 1.182-.663 2.823.61 3.702 1.274.878 3.078.654 4.056-.491l6.284-7.666 6.28 7.666c.99 1.145 2.782 1.369 4.059.49 1.277-.878 1.542-2.519.616-3.701z"/></g></svg>
