<svg height="100" viewBox="0 0 100 100" width="100" xmlns="http://www.w3.org/2000/svg" xmlns:xlink="http://www.w3.org/1999/xlink"><linearGradient id="a"><stop offset=".18" stop-color="#0052cc"/><stop offset="1" stop-color="#2684ff"/></linearGradient><linearGradient id="b" x1="99.14%" x2="33.859%" xlink:href="#a" y1="112.708%" y2="37.755%"/><linearGradient id="c" x1="7053.827%" x2="6067.181%" xlink:href="#a" y1="-161634%" y2="-163895%"/><g fill="none" transform="translate(18 20)"><path d="m3.23 46.53c-.65 1.06-1.38 2.29-2 3.27-.55494813.9377932-.25702976 2.1472528.67 2.72l13 8c.4563267.2817439 1.0066877.3684166 1.5275199.2405589.5208321-.1278577.9684941-.4595324 1.2424801-.9205589.52-.87 1.19-2 1.92-3.21 5.15-8.5 10.33-7.46 19.67-3l12.89 6.13c.48819.2323645 1.0496589.2571765 1.5564427.068781.5067839-.1883955.9157017-.573946 1.1335573-1.068781l6.19-14c.4373336-.9998956-.0076609-2.165781-1-2.62-2.72-1.28-8.13-3.83-13-6.18-17.52-8.51-32.41-7.96-43.8 10.57z" fill="url(#b)"/><path d="m61.52 14.76c.65-1.06 1.38-2.29 2-3.27.5549481-.9377932.2570298-2.14725284-.67-2.72l-13-8c-.4600501-.30985835-1.0281196-.4147483-1.5684887-.28961019s-1.0045021.46906442-1.2815113.94961019c-.52.87-1.19 2-1.92 3.21-5.15 8.5-10.33 7.46-19.67 3l-12.85-6.1c-.48819-.23236451-1.0496589-.25717646-1.5564427-.06878099-.5067839.18839548-.9157017.57394602-1.1335573 1.06878099l-6.19 14c-.43733358.9998956.00766087 2.165781 1 2.62 2.72 1.28 8.13 3.83 13 6.18 17.56 8.5 32.45 7.93 43.84-10.58z" fill="url(#c)"/></g></svg>