<svg fill="none" height="100" viewBox="0 0 100 100" width="100" xmlns="http://www.w3.org/2000/svg"><circle cx="50" cy="50" fill="#017f4b" r="35"/><path clip-rule="evenodd" d="m52.2348 25.0436c12.7604 1.1309 22.768 11.8589 22.768 24.9288 0 6.7302-2.6536 12.8393-6.9702 17.3369l1.8767 2.3728c5.0039-5.0634 8.0935-12.0257 8.0935-19.7097 0-14.7253-11.3463-26.8004-25.768-27.9394zm-4-3.0436c-14.6429.9124-26.2348 13.0886-26.2348 27.9724 0 8.8748 4.1213 16.7869 10.5534 21.9224l1.6417-2.5305c-5.612-4.5892-9.1951-11.5713-9.1951-19.3919 0-13.2289 10.2524-24.0585 23.2348-24.9658zm-10.7496 49.6425-1.6349 2.52c4.1523 2.4388 8.9884 3.8372 14.1511 3.8372 6.3473 0 12.201-2.1137 16.8972-5.6761l-1.8616-2.3538c-4.1846 3.1578-9.3919 5.0299-15.0356 5.0299-4.5601 0-8.8352-1.2222-12.5162-3.3572zm-5.6311-15.4785c2.5729 7.5568 9.7251 12.9934 18.1474 12.9934 10.5874 0 19.1676-8.5907 19.1676-19.1849 0-.8008-.049-1.5903-.1442-2.3654l-2.9317.7863c.0502.5196.0759 1.0464.0759 1.5791 0 8.9401-7.2398 16.1849-16.1676 16.1849-7.0322 0-13.0171-4.495-15.2416-10.7728zm2.0484-4.6908-2.9337.7868c-.089-.75-.1348-1.5134-.1348-2.2875 0-10.5941 8.5802-19.1848 19.1675-19.1848 8.395 0 15.5281 5.4012 18.1222 12.9197l-2.9068.7797c-2.2449-6.2394-8.2106-10.6994-15.2154-10.6994-8.9277 0-16.1675 7.2448-16.1675 16.1848 0 .506.0231 1.0066.0685 1.5007zm22.5661 1.9658c.5532-1.0318.8667-2.2112.8667-3.4664 0-4.0565-3.2848-7.3424-7.3338-7.3424-4.0489 0-7.3337 3.2859-7.3337 7.3424s3.2848 7.3424 7.3337 7.3424c1.3472 0 2.6069-.3624 3.6905-.9957l2.1703 2.1725c-1.6655 1.1495-3.6864 1.8232-5.8608 1.8232-5.7085 0-10.3337-4.6318-10.3337-10.3424s4.6252-10.3424 10.3337-10.3424c5.7086 0 10.3338 4.6318 10.3338 10.3424 0 2.0851-.6179 4.0294-1.6803 5.655z" fill="#fff" fill-rule="evenodd"/></svg>