<svg width="100" height="100" fill="none" xmlns="http://www.w3.org/2000/svg"><circle cx="50" cy="50" r="35" fill="#0060D5"/><mask id="a" mask-type="alpha" maskUnits="userSpaceOnUse" x="15" y="15" width="70" height="70"><circle cx="50" cy="50" r="35" fill="#0060D5"/></mask><g mask="url(#a)"><path clip-rule="evenodd" d="M50 10c-7.295 0-14.112 1.985-20 5.395C41.943 22.315 50 35.203 50 50c0 14.797-8.057 27.685-20 34.605C35.888 88.015 42.705 90 50 90c22.093 0 40-17.907 40-40S72.093 10 50 10z" stroke="#fff" stroke-width="3"/><path d="M50.555 30l1.181-.925-.45-.575h-.731V30zm.006.008l-1.181.924.435.556.705.02.041-1.5zm0 39.984l-.041-1.5-.706.02-.434.556 1.181.924zm-.006.008v1.5h.731l.45-.576L50.556 70zM30 71.5h14.62v-3H30v3zM8.5 50c0 11.873 9.627 21.5 21.5 21.5v-3c-10.217 0-18.5-8.283-18.5-18.5h-3zM30 28.5C18.127 28.5 8.5 38.127 8.5 50h3c0-10.217 8.283-18.5 18.5-18.5v-3zm14.62 0H30v3h14.62v-3zm5.38 0h-5.38v3H50v-3zm.555 0H50v3h.555v-3zm1.187.583l-.006-.008-2.362 1.85a.22.22 0 01.006.007l2.362-1.849zM71.5 50c0-11.672-9.302-21.172-20.898-21.492l-.082 3c9.976.274 17.98 8.45 17.98 18.492h3zM50.602 71.492C62.198 71.172 71.5 61.672 71.5 50h-3c0 10.043-8.004 18.218-17.98 18.493l.082 2.999zm1.135-.568l.002-.003.004-.005-2.363-1.848-.003.004-.004.004 2.364 1.848zM50 71.5h.555v-3H50v3zm-5.38 0H50v-3h-5.38v3z" fill="#fff"/></g></svg>