<svg height="52" viewBox="0 0 52 52" width="52" xmlns="http://www.w3.org/2000/svg"><g fill="none" fill-rule="evenodd"><circle cx="26" cy="26" fill="#fff" r="26"/><path d="m26.2884088 9c-9.5464114 0-17.2884088 7.740936-17.2884088 17.2905316 0 7.6390397 4.9536471 14.1190087 11.8242187 16.4053074.8650573.159213 1.180299-.3746813 1.180299-.8332147 0-.4107695-.0148599-1.4976636-.0233512-2.9401334-4.809294 1.0444373-5.8240115-2.3181412-5.8240115-2.3181412-.7865122-1.9975925-1.9201088-2.5293639-1.9201088-2.5293639-1.5698401-1.0720342.1188791-1.0508058.1188791-1.0508058 1.7354216.1220633 2.6482428 1.7821242 2.6482428 1.7821242 1.5422433 2.6418744 4.0471945 1.8787134 5.0321922 1.4361012.1570902-1.1166138.603948-1.8787133 1.0975083-2.3107113-3.8391561-.4362436-7.8757363-1.9201087-7.8757363-8.5454923 0-1.8872047.6740017-3.4315708 1.7800013-4.6394668-.1783186-.437305-.7716524-2.1960779.1698272-4.5757816 0 0 1.4509611-.4649019 4.7541001 1.7725714 1.3787846-.384234 2.858404-.5752896 4.3284707-.5827195 1.4690053.0074299 2.9475633.1984855 4.3284707.5827195 3.3010162-2.2374733 4.7498545-1.7725714 4.7498545-1.7725714.9436024 2.3797037.3502686 4.1384766.1730115 4.5757816 1.1081224 1.207896 1.776817 2.7522621 1.776817 4.6394668 0 6.6423663-4.0429487 8.1039416-7.8937804 8.5316939.6198692.5338942 1.172869 1.5889457 1.172869 3.2012427 0 2.3117727-.0212284 4.1766876-.0212284 4.7434859 0 .4627791.3120575 1.000919 1.1887904.8321533 6.8652645-2.2916058 11.8146659-8.7673292 11.8146659-16.404246 0-9.5495956-7.7419974-17.2905316-17.291593-17.2905316" fill="#1a1919"/></g></svg>