<svg width="100" height="100" fill="none" xmlns="http://www.w3.org/2000/svg"><g clip-path="url(#clip0)"><path d="M24.09 72.01h9.546V48.83L20 38.601V67.92a4.09 4.09 0 004.09 4.09z" fill="#4285F4"/><path d="M66.364 72.01h9.545A4.09 4.09 0 0080 67.92V38.602L66.364 48.829v23.182z" fill="#34A853"/><path d="M66.364 31.102v17.727L80 38.602v-5.455c0-5.055-5.772-7.943-9.818-4.909l-3.818 2.864z" fill="#FBBC04"/><path d="M33.636 48.83V31.101L50 43.374l16.364-12.272v17.727L50 61.102 33.636 48.829z" fill="#EA4335"/><path d="M20 33.147v5.455l13.636 10.227V31.102l-3.818-2.864C25.772 25.204 20 28.092 20 33.148z" fill="#C5221F"/></g><defs><clipPath id="clip0"><path fill="#fff" transform="translate(20 27)" d="M0 0h60v45.011H0z"/></clipPath></defs></svg>