<svg height="100" viewBox="0 0 100 100" width="100" xmlns="http://www.w3.org/2000/svg"><g fill="none" fill-rule="evenodd" transform="translate(21 29)"><path d="m55.074 0c2.706 0 4.92 2.22169863 4.92 4.93764384v1.43150684l-6.828 4.90027402-23.25 16.0883287-23.25-16.2516712v32.5015342h-1.752c-2.7 0-4.914-2.2223013-4.914-4.9376438v-33.73112328c0-2.71594521 2.214-4.93764384 4.914-4.93764384l25.002 18.61923292 25.158-18.61923292z" fill="#e75a4d"/><path d="m6.666 11.106v32.502h46.5v-32.339l-23.25 16.089z" fill="#e7e4d7"/><path d="m6.666 43.608 23.25-16.25-.108-.076-23.142 15.968z" fill="#b8b7ae"/><path d="m53.166 11.269.012 32.339-23.262-16.25z" fill="#b7b6ad"/><path d="m59.994 6.36915068.006 32.30443832c-.12 3.5911233-1.668 4.872548-6.822 4.932822l-.012-32.3387946 6.828-4.90027393z" fill="#b2392f"/><path d="m4.914 0 25.002 18.619 25.158-18.619z" fill="#f7f5ed"/></g></svg>