<svg width="100" height="100" fill="none" xmlns="http://www.w3.org/2000/svg"><g clip-path="url(#clip0)"><path d="M24.536 68.945l2.646 4.57c.55.963 1.34 1.719 2.268 2.269l9.45-16.358H20c0 1.065.275 2.13.825 3.093l3.711 6.426z" fill="#0066DA"/><path d="M50 40.182l-9.45-16.357c-.928.55-1.718 1.306-2.268 2.268l-17.457 30.24A6.227 6.227 0 0020 59.426h18.9L50 40.182z" fill="#00AC47"/><path d="M70.55 75.784c.928-.55 1.718-1.306 2.268-2.269l1.1-1.89 5.257-9.106c.55-.962.825-2.028.825-3.093H61.098l4.022 7.904 5.43 8.454z" fill="#EA4335"/><path d="M50 40.182l9.45-16.357A6.042 6.042 0 0056.357 23H43.643c-1.1 0-2.165.31-3.093.825L50 40.182z" fill="#00832D"/><path d="M61.1 59.426H38.9l-9.45 16.358a6.04 6.04 0 003.093.824h34.914c1.1 0 2.165-.309 3.093-.825L61.1 59.427z" fill="#2684FC"/><path d="M70.447 41.213l-8.729-15.12c-.55-.962-1.34-1.718-2.268-2.268L50 40.182l11.1 19.244h18.866c0-1.065-.275-2.13-.825-3.093l-8.694-15.12z" fill="#FFBA00"/></g><defs><clipPath id="clip0"><path fill="#fff" transform="translate(20 23)" d="M0 0h60v53.608H0z"/></clipPath></defs></svg>