<svg height="100" viewBox="0 0 100 100" width="100" xmlns="http://www.w3.org/2000/svg"><path d="m58.470798 31.205258h22.4994182c.8279025 0 2.294983 1.1273613 2.294983 2.7001315l-19.7112086 13.2892772c-.1207888.0377477-.3824974.0352299-.5032862 0l-4.5799064-2.8838314zm0 17.9950047 4.1797934 2.8712488c.5888452.4328264 1.2984792 0 1.2984792 0-.7071175.4328264 19.3186464-12.8690327 19.3186464-12.8690327v24.0872863c0 2.6221222-1.67846 3.7218025-3.5657824 3.7218025h-21.2336531v-17.8113049zm-41.470798-24.6509669 39.0046948-7.5492958v67l-39.0046948-8.1784038zm26.1004319 34.304c1.6482629-2.1691643 2.4736526-5.027831 2.4711362-8.5734836 0-3.4500282-.7951925-6.228169-2.3855775-8.336939-1.5878685-2.1087699-3.6714742-3.1606385-6.245784-3.1606385-2.7252958 0-4.9145916 1.1021972-6.5678874 3.3040752-1.6532957 2.2018779-2.4786854 5.0857089-2.4786854 8.6514929 0 3.3770517.8153239 6.1149296 2.440939 8.2186667 1.6281314 2.1012206 3.7318685 3.1530892 6.3162441 3.1530892 2.6523193 0 4.8013521-1.0870986 6.449615-3.2562629zm-6.2709483-15.6949859c1.3840375 0 2.4736526.6492394 3.2713615 1.9477183.7977089 1.3009953 1.1953051 3.1203756 1.1953051 5.4581408 0 2.2421409-.4126948 3.9960939-1.2330516 5.2593427-.8203568 1.2632489-1.9326197 1.8948733-3.3342723 1.8948733-1.3588732 0-2.458554-.646723-3.2965258-1.9477183-.8379719-1.2984789-1.258216-3.0650141-1.258216-5.2996057 0-2.2018779.4202441-3.9709295 1.258216-5.3071549.8379718-1.3362253 1.9728826-2.0055962 3.3971831-2.0055962z" fill="#0072c6"/></svg>