<svg fill="none" height="100" viewBox="0 0 102 100" width="102" xmlns="http://www.w3.org/2000/svg" xmlns:xlink="http://www.w3.org/1999/xlink"><linearGradient id="a" gradientUnits="userSpaceOnUse" x1="9.88794" x2="43.4615" y1="20.9988" y2="78.9304"><stop offset="0" stop-color="#058f92"/><stop offset=".5" stop-color="#038489"/><stop offset="1" stop-color="#026d71"/></linearGradient><path d="m52.1629 57.022c15.4125 0 27.9068-12.5409 27.9068-28.011 0-15.47-12.4943-28.011-27.9068-28.011s-27.9068 12.541-27.9068 28.011c0 15.4701 12.4943 28.011 27.9068 28.011z" fill="#036c70"/><path d="m75.4188 80.3617c14.1281 0 25.5812-11.4959 25.5812-25.6768 0-14.1808-11.4531-25.6767-25.5812-25.6767s-25.5812 11.4959-25.5812 25.6767c0 14.1809 11.4531 25.6768 25.5812 25.6768z" fill="#1a9ba1"/><path d="m55.6508 99.0371c10.9172 0 19.7673-8.8832 19.7673-19.8411 0-10.958-8.8501-19.8411-19.7673-19.8411-10.9171 0-19.7673 8.8831-19.7673 19.8411 0 10.9579 8.8502 19.8411 19.7673 19.8411z" fill="#37c6d0"/><g fill="#000"><path d="m56.8143 26.2805v49.8128c-.0116 1.7309-1.0566 3.2859-2.6512 3.9449-.5077.2156-1.0534.3267-1.6046.3268h-16.6511c-.0232-.3968-.0232-.7703-.0232-1.1671-.0078-.3896.0077-.7794.0465-1.1672.4256-7.4615 5.0052-14.0449 11.8372-17.0166v-4.3417c-15.2049-2.4185-25.5776-16.751-23.1681-32.0125.0167-.1057.034-.2114.0519-.3169.1158-.7872.2789-1.5667.4884-2.3342h27.4184c2.3467.009 4.2468 1.9162 4.2558 4.2717z" opacity=".1"/><path d="m50.2321 24.342h-25.5812c-2.5842 15.2341 7.6245 29.6865 22.8019 32.2803.4596.0785.921.1455 1.3839.2008-7.2092 3.4314-12.4627 13.1769-12.9092 21.2067-.0387.3877-.0542.7775-.0465 1.1671 0 .3968 0 .7703.0232 1.1671.042.7847.1431 1.565.3023 2.3343h14.0232c1.7245-.0116 3.2737-1.0605 3.9302-2.6611.2148-.5096.3255-1.0573.3256-1.6106v-49.8129c-.0088-2.3545-1.9076-4.2614-4.2534-4.2717z" opacity=".2"/><path d="m50.2332 24.342h-25.5812c-2.5837 15.2355 7.6266 29.6885 22.8054 32.2819.3105.053.6219.1008.9339.1432-6.9766 3.6788-12.0231 13.401-12.4603 21.2627h14.3022c2.343-.0178 4.2381-1.9199 4.2558-4.2717v-45.1444c-.009-2.3554-1.9091-4.2627-4.2558-4.2717z" opacity=".2"/><path d="m47.9068 24.342h-23.2556c-2.4396 14.3825 6.539 28.2329 20.6278 31.8205-5.3347 6.1179-8.6068 13.7714-9.3488 21.8673h11.9767c2.3467-.009 4.2468-1.9162 4.2558-4.2717v-45.1444c-.0013-2.3586-1.906-4.2703-4.2559-4.2717z" opacity=".2"/></g><path d="m5.26276 24.342h42.63684c2.3543 0 4.2628 1.9157 4.2628 4.2787v42.7961c0 2.3631-1.9085 4.2787-4.2628 4.2787h-42.63684c-2.35426 0-4.26276-1.9156-4.26276-4.2787v-42.7961c0-2.363 1.9085-4.2787 4.26276-4.2787z" fill="url(#a)"/><path d="m20.0404 49.4935c-.999-.6651-1.8334-1.5506-2.4395-2.5887-.5873-1.0853-.8801-2.3065-.8489-3.5411-.0523-1.6716.5097-3.3042 1.579-4.5868 1.1237-1.2842 2.5762-2.2351 4.2-2.7498 1.8507-.6114 3.789-.9126 5.7372-.8916 2.5619-.094 5.1203.2656 7.5581 1.0621v5.3688c-1.0592-.6441-2.2129-1.1168-3.4186-1.4006-1.3083-.322-2.6507-.4835-3.9977-.4809-1.4204-.0523-2.8318.2476-4.1093.8731-.9862.4269-1.6258 1.4009-1.6278 2.4789-.004.654.2463 1.2838.6976 1.7554.5332.556 1.1638 1.0087 1.8605 1.3352.7752.3875 1.938.9026 3.4884 1.5453.1707.0542.3371.1213.4976.2008 1.5259.5985 2.9979 1.3272 4.4 2.1778 1.0618.6571 1.9529 1.558 2.6 2.6284.6635 1.2134.985 2.5852.9302 3.9682.0758 1.7162-.4473 3.4052-1.479 4.7759-1.0284 1.2601-2.4032 2.1888-3.9535 2.6704-1.8235.5736-3.7265.851-5.6372.8216-1.7143.0078-3.426-.1328-5.1162-.4202-1.4272-.2344-2.8199-.6452-4.1465-1.2231v-5.6606c1.268.909 2.6847 1.5884 4.186 2.0075 1.4962.468 3.0516.718 4.6186.7423 1.4503.0922 2.898-.2162 4.186-.8917.9023-.511 1.451-1.479 1.4279-2.5186.0061-.7234-.279-1.4186-.7906-1.9281-.6363-.6269-1.3729-1.1422-2.1791-1.5243-.9302-.4669-2.3-1.0823-4.1093-1.8464-1.4393-.5808-2.8174-1.3041-4.1139-2.1592z" fill="#fff"/></svg>