<svg fill="none" xmlns="http://www.w3.org/2000/svg" viewBox="0 0 479 474"><path fill-rule="evenodd" clip-rule="evenodd" d="M220.262 1.417c-24.571 5.428-45.523 23.047-54.857 46.19-2.666 6.381-5.524 19.334-5.619 24.476 0 3.239-.285 3.429-12.19 9.524-52.667 26.572-90.19 71.429-106.286 126.857-3.238 11.334-7.428 35.81-7.428 43.429 0 3.555 0 4.97.707 5.657.467.455 1.242.592 2.53.819 1.715.286 9.62.571 17.43.762l14.285.286v-4.572c0-2.381.857-9.809 2-16.476 5.905-36.095 20.571-65.524 45.809-91.714 12.096-12.476 28.286-24.762 41.429-31.334l8.667-4.381 4.381 6.762c10.952 16.858 29.238 29.429 49.238 33.81 32.857 7.143 68.38-9.524 83.809-39.429 7.619-14.761 10.095-27.81 8.476-44.19-1.047-10.476-2.762-15.905-8.666-27.524-7.619-14.952-22.667-28.476-38.858-35.047C252.167.179 233.5-1.44 220.262 1.417zm32.762 37.714c7.81 3.524 12.095 6.952 16.476 13.048 15.334 21.428 7.81 50.857-15.809 61.714-21.238 9.809-44.571 1.428-54.571-19.714-3.429-7.143-3.715-8.477-3.715-16.762-.095-18.477 8.762-31.905 26-39.048 5.238-2.286 7.048-2.476 15.905-2.19 8.286.19 11.048.762 15.714 2.952zm87.81 69.429l-9.334 14.666 2.381 1.619c16 10.381 35.048 29.334 45.905 45.524 18.857 28.095 29.048 60.857 29.048 93.048 0 7.238-.286 14.666-.667 16.38l-.005.025c-.567 3.024-.584 3.118-7.233 3.118-19.143 0-38.381 8.191-52.667 22.381-19.809 19.715-26.762 44.095-20.857 72.953 4.095 20.095 20.476 40.857 39.905 50.666 12.667 6.286 22.381 8.286 37.524 7.714 14-.571 20-2.19 33.428-8.952 11.048-5.619 25.238-19.809 31.238-31.333 10.191-19.429 11.905-40.762 4.857-61.524-4.571-13.428-14.666-27.238-26.095-35.905l-5.619-4.285.667-6.572c1.238-11.143.762-37.143-.953-49.333-4.857-36.191-19.714-72.095-41.047-98.952-8-10.096-23.524-26-31.619-32.477-7.714-6.19-17.905-13.428-18.857-13.428-.381 0-4.953 6.571-10 14.667zm78.095 214.19c8.571 4 15.905 11.333 20.095 19.905 3.143 6.381 3.333 7.333 3.333 17.714 0 10.476-.19 11.428-3.333 17.714-10.19 20.762-34.381 28.952-55.809 18.857-15.619-7.238-25.048-25.428-22.381-42.857 2.476-15.905 12.571-27.714 28.476-33.428 8-2.858 21.238-2 29.619 2.095zM7.215 327.417c11.143-23.62 31.238-38.572 58.667-43.905 5.523-1.048 23.619.285 30.761 2.285 25.048 7.239 45.905 27.429 53.048 51.619 6.667 22.191 3.048 47.524-9.048 64.762-1.142 1.524-1.904 2.953-1.714 3.143 2.762 2.476 18.667 11.81 26.381 15.524 28 13.428 61.429 19.333 89.524 16 22-2.572 35.524-6 56.19-14.476 1.429-.572 3.048 2 9.238 14.381 4.191 8.381 7.619 15.428 7.619 15.904 0 2.191-27.333 11.905-44.285 15.619-17.048 3.81-26.667 4.858-44.286 4.858-44.667-.096-84.095-12.667-120.19-38.477-5.753-4.08-7.465-5.294-9.031-5.128-.663.071-1.3.389-2.207.843-12.19 6.285-34.19 8.381-49.048 4.666-22.571-5.619-40.952-20.285-50.952-40.571C2.644 383.797.834 376.559.167 363.893c-.762-13.715 1.238-24.286 7.048-36.476zm109.905 26.761c-2.477-14.19-11.048-25.428-24-31.523-16.286-7.619-37.334-2.953-48.477 10.761-14 17.048-12.857 40.572 2.572 56 15.333 15.334 39.333 15.905 56.667 1.429 9.809-8.19 15.428-23.81 13.238-36.667z" fill="#647487"/></svg>