<svg fill="none" height="100" viewBox="0 0 100 100" width="100" xmlns="http://www.w3.org/2000/svg"><path d="m29.7068 59.2345c0 4.0473-3.3061 7.3535-7.3534 7.3535-4.0472 0-7.3534-3.3062-7.3534-7.3535 0-4.0472 3.3062-7.3534 7.3534-7.3534h7.3534z" fill="#e01e5a"/><path d="m33.412 59.2345c0-4.0472 3.3062-7.3534 7.3535-7.3534 4.0472 0 7.3534 3.3062 7.3534 7.3534v18.4121c0 4.0472-3.3062 7.3534-7.3534 7.3534-4.0473 0-7.3535-3.3062-7.3535-7.3534z" fill="#e01e5a"/><path d="m40.7655 29.7068c-4.0473 0-7.3535-3.3061-7.3535-7.3534 0-4.0472 3.3062-7.3534 7.3535-7.3534 4.0472 0 7.3534 3.3062 7.3534 7.3534v7.3534z" fill="#36c5f0"/><path d="m40.7655 33.4121c4.0472 0 7.3534 3.3061 7.3534 7.3534 0 4.0472-3.3062 7.3534-7.3534 7.3534h-18.4121c-4.0472 0-7.3534-3.3062-7.3534-7.3534 0-4.0473 3.3062-7.3534 7.3534-7.3534z" fill="#36c5f0"/><path d="m70.2932 40.7655c0-4.0473 3.3062-7.3534 7.3534-7.3534s7.3534 3.3061 7.3534 7.3534c0 4.0472-3.3062 7.3534-7.3534 7.3534h-7.3534z" fill="#2eb67d"/><path d="m66.588 40.7655c0 4.0472-3.3062 7.3534-7.3534 7.3534-4.0473 0-7.3535-3.3062-7.3535-7.3534v-18.4121c0-4.0472 3.3062-7.3534 7.3535-7.3534 4.0472 0 7.3534 3.3062 7.3534 7.3534z" fill="#2eb67d"/><g fill="#ecb22e"><path d="m59.2346 70.2932c4.0472 0 7.3534 3.3062 7.3534 7.3534s-3.3062 7.3534-7.3534 7.3534c-4.0473 0-7.3535-3.3062-7.3535-7.3534v-7.3534z"/><path d="m59.2346 66.588c-4.0473 0-7.3535-3.3062-7.3535-7.3535 0-4.0472 3.3062-7.3534 7.3535-7.3534h18.412c4.0472 0 7.3534 3.3062 7.3534 7.3534 0 4.0473-3.3062 7.3535-7.3534 7.3535z"/></g></svg>