<svg xmlns="http://www.w3.org/2000/svg" xmlns:xlink="http://www.w3.org/1999/xlink" width="62" height="62" viewBox="19 19 62 62" fill="none"><g clip-path="url(#B)"><g fill="#5059c9"><path d="M62.246 42.628h16.015a2.74 2.74 0 0 1 2.74 2.74v14.587a10.07 10.07 0 0 1-10.068 10.069h-.048a10.07 10.07 0 0 1-10.07-10.067V44.06a1.43 1.43 0 0 1 1.432-1.432zm10.824-2.884a6.49 6.49 0 0 0 6.488-6.488 6.49 6.49 0 0 0-6.488-6.488 6.49 6.49 0 0 0-6.488 6.488 6.49 6.49 0 0 0 6.488 6.488z"/></g><g fill="#7b83eb"><path d="M52.884 39.744c5.176 0 9.372-4.196 9.372-9.372S58.06 21 52.884 21s-9.372 4.196-9.372 9.372 4.196 9.372 9.372 9.372zm12.496 2.884H38.945a2.71 2.71 0 0 0-2.643 2.773v16.638c-.209 8.972 6.889 16.417 15.86 16.636 8.971-.22 16.069-7.665 15.861-16.636V45.401a2.71 2.71 0 0 0-2.643-2.773z"/></g><g fill="#000"><path opacity=".1" d="M53.605 42.628v23.315c-.007 1.069-.655 2.03-1.644 2.437-.315.133-.653.202-.995.202H37.571l-.505-1.442c-.505-1.654-.762-3.375-.764-5.104V45.396c-.035-1.493 1.146-2.731 2.639-2.768h14.664z"/><path opacity=".2" d="M52.163 42.628v24.757c0 .342-.069.68-.202.995-.407.989-1.368 1.636-2.437 1.644H38.249l-.678-1.442a14.29 14.29 0 0 1-.505-1.442c-.505-1.654-.762-3.375-.764-5.104V45.396c-.035-1.493 1.146-2.731 2.639-2.768h13.222z"/><path opacity=".2" d="M52.163 42.628v21.873a2.66 2.66 0 0 1-2.639 2.639H37.067c-.505-1.654-.762-3.375-.764-5.104V45.396c-.035-1.493 1.146-2.731 2.639-2.768h13.222z"/><path opacity=".2" d="M50.721 42.628v21.873a2.66 2.66 0 0 1-2.639 2.639H37.067c-.505-1.654-.762-3.375-.764-5.104V45.396c-.035-1.493 1.146-2.731 2.639-2.768h11.78z"/><path opacity=".1" d="M53.605 35.174v4.542l-.721.029c-.245 0-.476-.014-.721-.029a7.91 7.91 0 0 1-1.442-.231 9.37 9.37 0 0 1-6.488-5.508c-.199-.465-.353-.948-.462-1.442h7.195a2.65 2.65 0 0 1 2.639 2.638z"/><use xlink:href="#C" opacity=".2"/><use xlink:href="#C" opacity=".2"/><path opacity=".2" d="M50.721 36.615v2.869a9.37 9.37 0 0 1-6.488-5.508h3.85a2.65 2.65 0 0 1 2.639 2.639z"/></g><path d="M21.643 33.977h26.435c1.46 0 2.643 1.183 2.643 2.643v26.435c0 1.46-1.183 2.643-2.643 2.643H21.643c-1.46 0-2.643-1.183-2.643-2.643V36.62c0-1.46 1.183-2.643 2.643-2.643z" fill="url(#A)"/><path d="M41.816 44.038h-5.284v14.39h-3.367v-14.39h-5.26v-2.791h13.911v2.791z" fill="#fff"/></g><defs><linearGradient id="A" x1="24.511" y1="31.911" x2="45.21" y2="67.763" gradientUnits="userSpaceOnUse"><stop stop-color="#5a62c3"/><stop offset=".5" stop-color="#4d55bd"/><stop offset="1" stop-color="#3940ab"/></linearGradient><clipPath id="B"><path fill="#fff" transform="translate(19 21)" d="M0 0h62v57.674H0z"/></clipPath><path id="C" d="M52.163 36.615v3.1a7.91 7.91 0 0 1-1.442-.231 9.37 9.37 0 0 1-6.489-5.508h5.292a2.65 2.65 0 0 1 2.639 2.639z"/></defs></svg>