<svg xmlns="http://www.w3.org/2000/svg" width="32" height="32" viewBox="0 0 32 32">
  <g fill="none">
    <circle cx="26.002" cy="5.998" r="5.998" fill="#3EBEB0"/>
    <circle cx="5.998" cy="5.998" r="5.998" fill="#3EBEB0"/>
    <circle cx="26.002" cy="26.002" r="5.998" fill="#3EBEB0"/>
    <circle cx="5.998" cy="26.002" r="5.998" fill="#3EBEB0"/>
    <path fill="#07A5DE" d="M16,1.82857143 C8.1882049,1.83867072 1.86178957,8.17600074 1.865156,15.9878016 C1.86852243,23.7996025 8.20039746,30.1314776 16.0121984,30.134844 C23.8239993,30.1382104 30.1613293,23.8117951 30.1714286,16 C30.1738562,12.2407598 28.6815789,8.63479075 26.0233941,5.97660592 C23.3652092,3.3184211 19.7592402,1.82614376 16,1.82857143 Z M21.0742857,17.4811429 L18.2857143,17.4811429 C17.8666091,17.4811429 17.5268571,17.8208948 17.5268571,18.24 L17.5268571,21.056 C17.5279595,21.4990959 17.3330266,21.9199903 16.9943711,22.2057309 C16.6557157,22.4914714 16.2080199,22.612795 15.7714286,22.5371429 C15.0440155,22.3986876 14.5134934,21.7689313 14.5005714,21.0285714 L14.5005714,18.2857143 C14.5005714,17.8666091 14.1608195,17.5268571 13.7417143,17.5268571 L10.9714286,17.5268571 C10.5283327,17.5279595 10.1074383,17.3330266 9.82169772,16.9943711 C9.53595716,16.6557157 9.41463359,16.2080199 9.49028571,15.7714286 C9.62652151,15.0538335 10.2414654,14.5261965 10.9714286,14.5005714 L13.7142857,14.5005714 C14.1333909,14.5005714 14.4731429,14.1608195 14.4731429,13.7417143 L14.4731429,10.9714286 C14.4720405,10.5283327 14.6669734,10.1074383 15.0056289,9.82169772 C15.3442843,9.53595716 15.7919801,9.41463359 16.2285714,9.49028571 C16.9461665,9.62652151 17.4738035,10.2414654 17.4994286,10.9714286 L17.4994286,13.7142857 C17.4994286,14.1333909 17.8391805,14.4731429 18.2582857,14.4731429 L21.0011429,14.4731429 C21.753654,14.4572432 22.4106823,14.979792 22.5645714,15.7165714 C22.6497545,16.1589203 22.5315459,16.6161285 22.2426354,16.9617575 C21.953725,17.3073866 21.5247297,17.504809 21.0742857,17.4994286 L21.0742857,17.4811429 Z"/>
    <path fill="#227991" d="M29.2571429 20.9645714C28.2939935 20.3379437 27.1696227 20.0044439 26.0205714 20.0045714 22.7081253 20.0045714 20.0228571 22.6898396 20.0228571 26.0022857 20.0137331 27.155707 20.3409823 28.2867819 20.9645714 29.2571429 24.793835 27.8159074 27.8159074 24.793835 29.2571429 20.9645714zM11.0354286 29.2571429C11.6459593 28.2890412 11.9634773 27.1650272 11.9497143 26.0205714 11.9497143 22.7081253 9.26444613 20.0228571 5.952 20.0228571 4.81411903 20.0225674 3.70014991 20.3494586 2.74285714 20.9645714 4.18409259 24.793835 7.206165 27.8159074 11.0354286 29.2571429zM20.9645714 2.74285714C20.3379437 3.70600645 20.0044439 4.83037728 20.0045714 5.97942857 20.0045714 9.29187471 22.6898396 11.9771429 26.0022857 11.9771429 27.1467415 11.9909059 28.2707555 11.6733878 29.2388571 11.0628571 27.8082689 7.22694175 24.7925466 4.19455805 20.9645714 2.74285714zM2.74285714 11.0354286C3.71095876 11.6459593 4.83497279 11.9634773 5.97942857 11.9497143 9.29187471 11.9497143 11.9771429 9.26444613 11.9771429 5.952 11.9909059 4.80754422 11.6733878 3.68353019 11.0628571 2.71542857 7.21751726 4.15613701 4.18356558 7.19008869 2.74285714 11.0354286z"/>
  </g>
</svg>
