<svg xmlns="http://www.w3.org/2000/svg" width="32" height="32" viewBox="0 0 32 32">
  <g fill="none">
    <path fill="#3EBEB0" d="M16 30.3634286C15.3890153 30.3634286 14.8937143 29.8681276 14.8937143 29.2571429L14.8937143 2.74285714C14.8937143 2.13187241 15.3890153 1.63657143 16 1.63657143 16.6109847 1.63657143 17.1062857 2.13187241 17.1062857 2.74285714L17.1062857 29.2571429C17.1062857 29.5505481 16.9897309 29.8319362 16.7822621 30.039405 16.5747933 30.2468738 16.2934052 30.3634286 16 30.3634286zM26.6697143 30.3634286C26.0730574 30.3436937 25.5996737 29.8541259 25.6 29.2571429L25.6 2.74285714C25.6 2.13187241 26.095301 1.63657143 26.7062857 1.63657143 27.3172704 1.63657143 27.8125714 2.13187241 27.8125714 2.74285714L27.8125714 29.2571429C27.8127353 29.5569958 27.6911738 29.8440714 27.4757266 30.0526243 27.2602794 30.2611772 26.9694034 30.3733411 26.6697143 30.3634286zM5.33028571 30.3634286C4.71930099 30.3634286 4.224 29.8681276 4.224 29.2571429L4.224 10.176C4.224 9.56501527 4.71930099 9.06971429 5.33028571 9.06971429 5.94127044 9.06971429 6.43657143 9.56501527 6.43657143 10.176L6.43657143 29.2571429C6.43657143 29.8681276 5.94127044 30.3634286 5.33028571 30.3634286z"/>
    <circle cx="5.33" cy="5.33" r="5.33" fill="#07A5DE"/>
    <path fill="#227991" d="M5.33028571,9.06971429 C4.71930099,9.06971429 4.224,9.56501527 4.224,10.176 L4.224,10.5508571 C4.58783951,10.6274968 4.95846979,10.6673166 5.33028571,10.6697143 C5.68989114,10.6652552 6.04818663,10.6254446 6.4,10.5508571 L6.4,10.176 C6.40032628,9.57901696 5.92694256,9.08944918 5.33028571,9.06971429 Z"/>
    <path fill="#FFF" d="M4.57142857,2.88 L4.57142857,4.224 C4.55824075,4.41014361 4.41014361,4.55824075 4.224,4.57142857 L2.88,4.57142857 C2.51065534,4.56071659 2.18857901,4.82070592 2.12114286,5.184 C2.08320957,5.39741127 2.14188539,5.61665531 2.28134273,5.7825919 C2.42080008,5.94852849 2.62667318,6.04406417 2.84342857,6.04342857 L4.224,6.04342857 C4.41532184,6.05295241 4.5668765,6.20849535 4.57142857,6.4 L4.57142857,7.78057143 C4.56001491,8.15203276 4.81929947,8.47710594 5.184,8.54857143 C5.39844411,8.58344044 5.617383,8.52238505 5.78283542,8.38157448 C5.94828785,8.24076391 6.04356273,8.03440331 6.04342857,7.81714286 L6.04342857,6.4 C6.04342857,6.19802158 6.20716443,6.03428571 6.40914286,6.03428571 L7.78057143,6.03428571 C8.13297656,6.05222433 8.45124683,5.82488842 8.54857143,5.48571429 C8.60232092,5.26308681 8.55004314,5.02811648 8.40697297,4.84927876 C8.2639028,4.67044105 8.04613906,4.56785949 7.81714286,4.57142857 L6.4,4.57142857 C6.30140146,4.57145939 6.20696773,4.53167637 6.13811401,4.46110131 C6.06926029,4.39052625 6.03182075,4.29513916 6.03428571,4.19657143 L6.03428571,2.84342857 C6.03492132,2.62667318 5.93938563,2.42080008 5.77344904,2.28134273 C5.60751245,2.14188539 5.38826841,2.08320957 5.17485714,2.12114286 C4.81521173,2.19250586 4.55994536,2.51352266 4.57142857,2.88 Z"/>
    <circle cx="16" cy="21.669" r="5.33" fill="#07A5DE"/>
    <path fill="#227991" d="M14.8937143,16.4571429 L14.8937143,26.88 C15.6227367,27.0383668 16.3772633,27.0383668 17.1062857,26.88 L17.1062857,16.4571429 C16.3772633,16.2987761 15.6227367,16.2987761 14.8937143,16.4571429 Z"/>
    <circle cx="26.67" cy="12.91" r="5.33" fill="#07A5DE"/>
    <path fill="#227991" d="M25.6,7.69828571 L25.6,18.1302857 C25.9637805,18.2072965 26.3344486,18.2471203 26.7062857,18.2491429 C27.0781016,18.2467452 27.4487319,18.2069254 27.8125714,18.1302857 L27.8125714,7.69828571 C27.4487319,7.62164603 27.0781016,7.58182624 26.7062857,7.57942857 C26.3344486,7.58145109 25.9637805,7.62127493 25.6,7.69828571 Z"/>
  </g>
</svg>
