<svg xmlns="http://www.w3.org/2000/svg" width="32" height="32" viewBox="0 0 32 32">
  <g fill="none" transform="translate(1)">
    <circle cx="15.086" cy="18.578" r="4.416" fill="#3EBEB0"/>
    <circle cx="25.463" cy="18.578" r="4.416" fill="#3EBEB0"/>
    <circle cx="4.709" cy="18.578" r="4.416" fill="#3EBEB0"/>
    <circle cx="9.893" cy="9.609" r="4.416" fill="#3EBEB0"/>
    <circle cx="20.279" cy="27.575" r="4.416" fill="#3EBEB0"/>
    <path fill="#07A5DE" d="M20.2788571,-1.37284559e-16 C16.3906601,-0.00369776478 12.883435,2.33613838 11.3937778,5.92765771 C9.90412057,9.51917705 10.7256568,13.6544569 13.4750286,16.4038286 C16.2244003,19.1532003 20.3596801,19.9747366 23.9511994,18.4850793 C27.5427188,16.9954221 29.8825549,13.488197 29.8788571,9.6 C29.8738169,4.30015556 25.5787016,0.00504027393 20.2788571,-1.37284559e-16 Z M23.68,10.5325714 L21.7874286,10.5325714 C21.5082357,10.5375578 21.2845269,10.765334 21.2845714,11.0445714 L21.2845714,12.9371429 C21.2831863,13.2318117 21.1526396,13.5110487 20.9274242,13.7010741 C20.7022088,13.8910996 20.4049853,13.9727938 20.1142857,13.9245714 C19.6161749,13.8305413 19.2598594,13.38902 19.2731429,12.8822857 L19.2731429,11.0537143 C19.2755968,10.9187713 19.2237026,10.7885062 19.1291313,10.6922154 C19.0345601,10.5959246 18.905251,10.541692 18.7702857,10.5417143 L16.8685714,10.5417143 C16.5704108,10.5434861 16.2868345,10.4128667 16.0943949,10.185117 C15.9019553,9.95736743 15.8204934,9.65596913 15.872,9.36228571 C15.9739189,8.86641455 16.4174084,8.51547942 16.9234286,8.53028571 L18.752,8.53028571 C18.8869653,8.53030802 19.0162743,8.47607538 19.1108456,8.37978461 C19.2054169,8.28349384 19.2573111,8.15322873 19.2548571,8.01828571 L19.2548571,6.11657143 C19.2557915,5.82000844 19.3875685,5.53897652 19.6149616,5.34860092 C19.8423546,5.15822533 20.142179,5.07791662 20.4342857,5.12914286 C20.9323965,5.22317299 21.288712,5.66469431 21.2754286,6.17142857 L21.2754286,8 C21.275384,8.27923743 21.4990928,8.50701362 21.7782857,8.512 L23.6068571,8.512 C24.1128773,8.49719371 24.5563668,8.84812884 24.6582857,9.344 C24.7122822,9.63593732 24.6345312,9.93681566 24.4458586,10.1660441 C24.257186,10.3952725 23.9768722,10.529426 23.68,10.5325714 Z"/>
    <path fill="#227991" d="M28.1417143 15.0948571C26.8161878 14.04499 25.0053983 13.8500535 23.4867906 14.5937418 21.9681829 15.3374302 21.0119229 16.8874385 21.0285714 18.5782857 21.0328223 18.7774266 21.0511537 18.9760174 21.0834286 19.1725714 23.9262836 18.9330406 26.5141468 17.4379798 28.1417143 15.0948571zM19.5017143 18.5782857C19.5055063 16.8975008 18.5509376 15.3615524 17.0421896 14.6207883 15.5334415 13.8800241 13.7344179 14.0640154 12.4068571 15.0948571 14.0227912 17.4413506 16.5999671 18.9460996 19.4377143 19.2 19.4743713 18.9946267 19.4957631 18.7868199 19.5017143 18.5782857zM11.5931429 5.54057143C10.3736407 8.11908003 10.3736407 11.1083485 11.5931429 13.6868571 13.2347188 12.9992825 14.3031056 11.39347 14.3031056 9.61371429 14.3031056 7.83395855 13.2347188 6.22814608 11.5931429 5.54057143z"/>
  </g>
</svg>
