<svg xmlns="http://www.w3.org/2000/svg" width="32" height="32" viewBox="0 0 32 32">
  <path fill="#07A5DE" d="M16,0.184242424 C7.26519828,0.184242424 0.184242424,7.26519828 0.184242424,16 C0.184242424,24.7348017 7.26519828,31.8157576 16,31.8157576 C24.7348017,31.8157576 31.8157576,24.7348017 31.8157576,16 C31.8050717,7.26962836 24.7303716,0.194928326 16,0.184242424 Z M21.6727273,17.6387879 L18.5212121,17.6387879 C18.0552846,17.6387879 17.6775758,18.0164967 17.6775758,18.4824242 L17.6775758,21.6339394 C17.6746316,22.1236738 17.4590457,22.5879653 17.086811,22.9062259 C16.7145764,23.2244865 16.2224254,23.3653101 15.7381818,23.2921212 C14.9086927,23.1230935 14.3200687,22.3832258 14.3418182,21.5369697 L14.3418182,18.5212121 C14.3418182,18.0552846 13.9641093,17.6775758 13.4981818,17.6775758 L10.3272727,17.6775758 C9.83753831,17.6746316 9.37324683,17.4590457 9.0549862,17.086811 C8.73672558,16.7145764 8.59590203,16.2224254 8.66909091,15.7381818 C8.83811858,14.9086927 9.57798629,14.3200687 10.4242424,14.3418182 L13.4787879,14.3418182 C13.9447154,14.3418182 14.3224242,13.9641093 14.3224242,13.4981818 L14.3224242,10.3272727 C14.3253684,9.83753831 14.5409543,9.37324683 14.913189,9.0549862 C15.2854236,8.73672558 15.7775746,8.59590203 16.2618182,8.66909091 C17.0913073,8.83811858 17.6799313,9.57798629 17.6581818,10.4242424 L17.6581818,13.4787879 C17.6581818,13.9447154 18.0358907,14.3224242 18.5018182,14.3224242 L21.5563636,14.3224242 C22.4026198,14.3006748 23.1424875,14.8892988 23.3115152,15.7187879 C23.3904828,16.2027404 23.2550097,16.6971064 22.9403615,17.0731947 C22.6257133,17.4492831 22.1630198,17.6698855 21.6727273,17.6775758 L21.6727273,17.6387879 Z"/>
</svg>
