<svg xmlns="http://www.w3.org/2000/svg" width="32" height="32" viewBox="0 0 32 32">
  <g fill="none">
    <circle cx="19.218" cy="19.218" r="7.077" fill="#3EBEB0"/>
    <circle cx="12.782" cy="12.782" r="7.077" fill="#07A5DE"/>
    <path fill="#227991" d="M14.2171429,14.2171429 C12.7336819,15.6907478 11.9830884,17.7481782 12.1691429,19.8308571 C14.25048,20.0082049 16.3040225,19.2581438 17.7810832,17.7810832 C19.2581438,16.3040225 20.0082049,14.25048 19.8308571,12.1691429 C17.7481782,11.9830884 15.6907478,12.7336819 14.2171429,14.2171429 Z"/>
    <path fill="#3EBEB0" d="M1.82857143 9.97485714C1.2175867 9.97485714.722285714 9.47955616.722285714 8.86857143L.722285714 1.82857143C.722285714 1.2175867 1.2175867.722285714 1.82857143.722285714L8.86857143.722285714C9.26380925.722285708 9.62902406.933142573 9.82664297 1.27542857 10.0242619 1.61771456 10.0242619 2.0394283 9.82664297 2.38171429 9.62902406 2.72400028 9.26380925 2.93485715 8.86857143 2.93485714L2.93485714 2.93485714 2.93485714 8.86857143C2.93485714 9.47955616 2.43955616 9.97485714 1.82857143 9.97485714zM8.86857143 31.2777143L1.82857143 31.2777143C1.2175867 31.2777143.722285714 30.7824133.722285714 30.1714286L.722285714 23.1314286C.722285708 22.7361907.933142573 22.3709759 1.27542857 22.173357 1.61771456 21.9757381 2.0394283 21.9757381 2.38171429 22.173357 2.72400028 22.3709759 2.93485715 22.7361907 2.93485714 23.1314286L2.93485714 29.0651429 8.86857143 29.0651429C9.47955616 29.0651429 9.97485714 29.5604438 9.97485714 30.1714286 9.97485714 30.7824133 9.47955616 31.2777143 8.86857143 31.2777143zM30.1714286 31.2777143L23.1314286 31.2777143C22.5204438 31.2777143 22.0251429 30.7824133 22.0251429 30.1714286 22.0251429 29.5604438 22.5204438 29.0651429 23.1314286 29.0651429L29.0651429 29.0651429 29.0651429 23.1314286C29.0651429 22.5204438 29.5604438 22.0251429 30.1714286 22.0251429 30.7824133 22.0251429 31.2777143 22.5204438 31.2777143 23.1314286L31.2777143 30.1714286C31.2777143 30.7824133 30.7824133 31.2777143 30.1714286 31.2777143zM30.1714286 9.97485714C29.5604438 9.97485714 29.0651429 9.47955616 29.0651429 8.86857143L29.0651429 2.93485714 23.1314286 2.93485714C22.5204438 2.93485713 22.0251429 2.43955615 22.0251429 1.82857143 22.0251429 1.21758671 22.5204438.722285723 23.1314286.722285714L30.1714286.722285714C30.7824133.722285714 31.2777143 1.2175867 31.2777143 1.82857143L31.2777143 8.86857143C31.2777143 9.47955616 30.7824133 9.97485714 30.1714286 9.97485714z"/>
  </g>
</svg>
