<svg width="64" height="64" viewBox="0 0 64 64" fill="none" xmlns="http://www.w3.org/2000/svg">
<path d="M39.7612 29.8197L26.9658 33.9925L15.842 38.9057L12.7257 39.7293C11.9021 40.5113 11.0614 41.275 10.2042 42.0201C9.22281 42.8741 8.29979 43.6482 7.59788 44.2076C6.8163 44.8305 5.65428 45.9836 5.06027 46.7229C4.1766 47.8229 3.48562 48.9959 3.18852 49.898C2.65387 51.5209 2.91433 53.1646 3.94524 54.6818C5.26224 56.6197 7.88386 58.5886 10.9328 59.929C12.488 60.6126 15.1126 61.4941 17.0805 61.991C20.3601 62.8192 26.6986 63.719 30.1894 63.8527C30.8974 63.8798 31.8398 63.8773 31.8832 63.8487C31.9598 63.7981 32.5033 62.7691 33.1337 61.481C35.2791 57.0984 36.8313 52.99 37.6667 49.4811C38.1724 47.3564 38.5668 44.5232 38.8221 41.164C38.8936 40.223 38.9196 37.0847 38.8646 36.0181C38.7751 34.2822 38.6222 32.8675 38.377 31.479C38.3409 31.2756 38.3277 31.0967 38.3466 31.0804C38.3822 31.0499 38.503 31.0111 40.0747 30.5543L39.7611 29.8197H39.7612ZM36.8369 31.5358C36.9532 31.5358 37.2624 34.501 37.3429 36.3823C37.36 36.782 37.3565 37.038 37.3327 37.038C37.2563 37.038 35.6941 36.1205 34.5868 35.4251C33.6197 34.8178 31.7844 33.5982 31.4927 33.3692C31.4005 33.2969 31.4103 33.2933 32.2008 33.0211C33.5461 32.5578 36.7353 31.5357 36.8369 31.5357V31.5358ZM30.3189 33.6747C30.4016 33.6745 30.6267 33.7987 31.1587 34.132C33.1544 35.3823 35.857 36.8865 37.015 37.3921C37.3741 37.5488 37.4151 37.4881 36.5881 38.0497C34.8252 39.2468 32.6334 40.4239 29.9426 41.6194C29.4736 41.8277 29.0763 41.9978 29.0602 41.9978C29.0442 41.9978 29.0966 41.7599 29.1756 41.4676C29.8275 39.0563 30.1953 36.6223 30.2056 34.6703C30.2108 33.7049 30.2109 33.6998 30.3027 33.6767C30.308 33.6755 30.3135 33.6748 30.3189 33.6748V33.6747ZM28.9773 34.1867C29.035 34.2447 28.9932 36.408 28.9227 36.9974C28.7534 38.4116 28.4767 39.7195 28.0343 41.2066C27.9286 41.5619 27.8295 41.8682 27.8137 41.8864C27.7752 41.931 26.4524 40.6421 26.0127 40.1321C25.2613 39.2605 24.6669 38.3947 24.234 37.5418C24.0138 37.1083 23.6629 36.2522 23.6957 36.2284C23.8443 36.1205 28.9409 34.1502 28.9773 34.1867ZM22.6576 36.6777C22.6695 36.6789 22.6787 36.6822 22.6839 36.6879C22.7029 36.7089 22.7703 36.866 22.8337 37.0379C23.1418 37.8748 23.8346 39.1182 24.4363 39.9135C25.0932 40.7818 25.9497 41.707 26.6663 42.3216C26.8964 42.5188 27.111 42.703 27.1419 42.7303C27.2033 42.7847 27.2239 42.7755 25.6464 43.3738C23.8182 44.0673 21.8272 44.7617 19.5413 45.5006C18.6702 45.7822 17.9328 46.0202 17.9041 46.0308C17.8171 46.0631 17.8437 46.0095 18.0985 45.612C19.2343 43.8386 20.9549 40.3697 21.9169 37.9161C22.0838 37.4907 22.2425 37.0643 22.2711 36.9691C22.3129 36.8291 22.3542 36.7816 22.4856 36.7223C22.5583 36.6894 22.6219 36.6741 22.6576 36.6778V36.6777ZM20.7211 37.4771C20.7467 37.4997 20.2563 38.5353 19.774 39.4765C18.8383 41.3017 17.8067 43.098 16.437 45.2902C16.2007 45.6684 15.9829 46.0143 15.9534 46.0571C15.9047 46.1277 15.8848 46.1045 15.7349 45.8062C15.407 45.1541 15.1322 44.3312 14.9902 43.5661C14.8495 42.8088 14.8735 41.4977 15.0428 40.6845C15.1685 40.0802 15.163 40.0937 15.4475 39.9478C16.6774 39.3175 20.6808 37.4418 20.721 37.4771H20.7211ZM37.4016 38.1549V38.5658C37.3995 40.7234 37.1691 43.6772 36.835 45.8325C36.7763 46.2107 36.7255 46.5228 36.7216 46.5267C36.7177 46.5304 36.4451 46.4505 36.1166 46.3485C34.6648 45.8979 33.0907 45.2245 31.6707 44.4464C30.7303 43.9311 29.3702 43.0963 29.4084 43.0581C29.4186 43.0478 29.8193 42.8355 30.2987 42.5866C32.1976 41.601 34.0115 40.5384 35.5884 39.4845C36.1801 39.0891 37.0654 38.449 37.2619 38.2764L37.4016 38.1549ZM13.4177 41.0143C13.4572 41.0123 13.4472 41.0873 13.3854 41.4434C13.3424 41.691 13.2939 42.1588 13.2762 42.4814C13.1984 43.8957 13.4277 44.9391 14.1301 46.3668C14.3254 46.7636 14.4781 47.0946 14.47 47.1014C14.3997 47.1601 8.00394 49.0318 5.99315 49.5822C5.39711 49.7454 4.87619 49.8892 4.83365 49.902C4.76385 49.923 4.75766 49.9078 4.78309 49.7442C5.00333 48.3253 6.08568 46.463 7.59788 44.8996C8.60337 43.8603 9.40824 43.2446 10.777 42.4632C11.7592 41.9025 13.2849 41.0608 13.3975 41.0183C13.404 41.0159 13.4109 41.0146 13.4178 41.0143H13.4177ZM28.5037 43.7159C28.5098 43.7085 28.7468 43.8354 29.0299 43.9991C31.0958 45.1938 33.9785 46.3145 36.4363 46.8767L36.6588 46.9273L36.3533 47.0973C35.0694 47.8097 30.8412 49.569 26.5227 51.189C25.8922 51.4255 25.2771 51.6574 25.1567 51.705C25.0364 51.7526 24.9382 51.7853 24.9382 51.7758C24.9382 51.7663 25.1163 51.4235 25.3348 51.0149C26.5472 48.7481 27.7573 45.9935 28.3783 44.0821C28.4416 43.8873 28.4977 43.7231 28.5037 43.7159ZM26.9658 44.2197C26.9725 44.2263 26.8969 44.4295 26.7979 44.6689C25.955 46.707 24.8507 48.9303 23.4427 51.4278C23.0844 52.0634 22.7824 52.5822 22.7708 52.5812C22.7594 52.5802 22.468 52.4077 22.1233 52.1968C20.0724 50.9412 18.2578 49.3956 17.0663 47.8925L16.8963 47.6801L17.7807 47.4372C20.9349 46.5731 23.6099 45.649 26.2697 44.5029C26.6463 44.3407 26.9592 44.2131 26.9658 44.2197ZM36.5192 47.5546C36.5238 47.5556 36.5253 47.5588 36.5253 47.5627C36.5253 47.7776 36.0374 49.7673 35.6309 51.2072C35.2899 52.4151 35.0037 53.3598 34.4734 55.0339C34.2392 55.7732 34.0382 56.3766 34.0262 56.3735C33.9845 56.3646 33.9427 56.3565 33.9007 56.3491C31.0273 55.8292 28.4539 55.1041 26.0431 54.1353C25.3685 53.8643 24.3947 53.4329 24.3432 53.3826C24.3258 53.3656 24.9082 53.0912 25.6364 52.7735C30.0393 50.8524 34.6014 48.6647 36.1611 47.7267C36.3487 47.6138 36.4875 47.548 36.5192 47.5546ZM14.466 48.3094C14.4896 48.3317 13.258 50.0948 11.5378 52.5023C10.94 53.3391 10.2377 54.3253 9.9777 54.6939C9.6783 55.1213 9.38618 55.5537 9.10147 55.991L8.69473 56.6183L8.2616 56.2541C7.75353 55.8275 6.86406 54.9216 6.46061 54.4187C5.6304 53.3837 5.06781 52.2946 4.84583 51.2942C4.74335 50.8324 4.74026 50.5972 4.83771 50.5678C4.97848 50.5253 7.56143 49.9173 9.98369 49.3556C11.3292 49.0436 12.8848 48.6784 13.442 48.5441C13.9993 48.4098 14.4605 48.3043 14.466 48.3094ZM15.7045 48.7829L16.016 49.131C17.4093 50.683 18.8263 51.8412 20.5551 52.8403C20.8603 53.0166 21.0929 53.17 21.0731 53.1822C21.0011 53.2267 15.095 55.3266 12.3635 56.2784C10.8231 56.8151 9.55761 57.2527 9.55065 57.2517C9.54369 57.2507 9.45639 57.1937 9.35845 57.1242L9.18036 56.9966L9.45958 56.594C10.3659 55.2812 11.5046 53.8376 13.9966 50.8388L15.7044 48.7828L15.7045 48.7829ZM23.4224 54.2993C23.4293 54.2908 23.8611 54.4438 24.3837 54.6392C25.6433 55.1103 26.6319 55.4174 27.9696 55.7522C29.6125 56.1634 31.9867 56.5747 33.3928 56.6932C33.6086 56.7114 33.7188 56.7361 33.6842 56.758C33.6189 56.7993 32.1953 57.2748 31.1487 57.6038C29.4872 58.1261 24.4098 59.6261 20.2698 60.8173C19.5017 61.0383 18.845 61.225 18.8107 61.2322C18.7179 61.2515 18.3938 61.1664 18.3938 61.1229C18.3938 61.1022 18.626 60.8084 18.9078 60.4713C20.2993 58.8068 21.6818 56.9477 22.8357 55.1896C23.1513 54.7088 23.4157 54.3078 23.4225 54.2992L23.4224 54.2993ZM21.7125 54.3478C21.725 54.3603 21.039 55.4587 19.8327 57.359C19.4034 58.035 18.9751 58.7115 18.5477 59.3886C18.3497 59.7026 18.0596 60.1797 17.9041 60.4511L17.6209 60.9448L17.4771 60.9063C17.1305 60.8126 14.6849 59.9486 14.0391 59.6922C13.2384 59.3744 12.404 58.9906 11.7887 58.6581C11.0199 58.2427 10.0449 57.626 10.1214 57.6018C10.1433 57.5948 11.4663 57.2327 13.0595 56.7984C17.298 55.6431 19.6426 54.9794 21.1803 54.4996C21.4676 54.41 21.707 54.3423 21.7125 54.3478ZM33.7509 57.1708C33.7601 57.1688 33.7643 57.1688 33.7652 57.1708C33.8052 57.271 32.2361 61.617 31.6626 62.9948C31.5341 63.3033 31.4867 63.3781 31.4198 63.3751C31.2574 63.368 28.9823 63.05 27.6053 62.8409C25.1947 62.475 21.1571 61.7699 20.1382 61.5377L19.9014 61.4851L21.3463 61.1593C24.4432 60.4615 25.9305 60.0873 27.4394 59.6254C29.3423 59.0429 31.2266 58.3165 33.1298 57.4318C33.4306 57.292 33.687 57.1847 33.7509 57.1708Z" fill="url(#paint0_linear_857_78973)"/>
<path d="M26.5744 0.000371277C26.3605 -0.0245726 22.9265 1.21266 20.7202 2.109C17.7306 3.32361 15.4095 4.48737 13.9776 5.49247C13.4445 5.86663 12.7743 6.53953 12.6763 6.79767C12.6397 6.89435 12.6225 7.00728 12.6217 7.12349L13.9208 8.3498L17.0028 9.33325L24.3445 10.6445L32.7364 12.0874L32.8213 11.3669C32.7959 11.3631 32.7719 11.3588 32.7464 11.3549L31.6415 11.1808L31.4169 10.7862C30.2764 8.77365 29.016 6.28323 28.2845 4.59807C27.7179 3.29287 27.1738 1.78946 26.8719 0.700539C26.6927 0.0539318 26.674 0.0120698 26.5744 0.000371277ZM26.4126 0.498281C26.4211 0.496638 26.4254 0.496638 26.4267 0.498281C26.4335 0.506306 26.4725 0.776242 26.5118 1.09722C26.6769 2.44883 26.9793 3.75984 27.4527 5.17071C27.8095 6.23392 27.8145 6.17146 27.39 6.05303C26.4031 5.77758 21.9819 5.01863 18.7835 4.57573C18.2682 4.50438 17.8393 4.44096 17.8325 4.4341C17.7919 4.39349 20.139 3.1637 21.1796 2.67961C22.514 2.05872 26.148 0.545848 26.4126 0.498184V0.498281ZM17.0938 4.82672L17.4682 4.95415C19.5216 5.65315 24.6685 6.63631 27.5134 6.8726C27.8344 6.89919 28.1041 6.9278 28.1124 6.93525C28.1206 6.94279 27.8479 7.08849 27.5073 7.25913C26.1349 7.94654 24.6244 8.78448 23.5795 9.43853C23.2727 9.63054 22.9912 9.78543 22.9542 9.78253C22.9172 9.77962 22.7148 9.74704 22.503 9.71166L22.1165 9.64891L21.1451 8.70597C19.4399 7.05562 18.1086 5.77874 17.5937 5.29621L17.0938 4.82672ZM16.7134 5.1303L18.0733 6.82803C18.8219 7.76197 19.5722 8.68867 19.7387 8.88812C19.9052 9.08748 20.0341 9.25648 20.0261 9.26247C19.9874 9.2907 18.0551 8.91442 17.0311 8.67968C15.9799 8.43855 15.5451 8.32321 14.8942 8.11506L14.364 7.94509L14.366 7.8136C14.3727 7.16139 15.1948 6.19941 16.5899 5.21519L16.7134 5.1302V5.1303ZM28.2945 7.44321C28.3353 7.4464 28.3783 7.52926 28.4989 7.7933C28.8288 8.5159 29.8553 10.4742 30.1036 10.853C30.1853 10.9777 30.315 10.9861 28.9521 10.766C25.6771 10.2369 24.6176 10.0599 24.6176 10.0395C24.6176 10.027 24.7158 9.96274 24.8361 9.89584C25.8503 9.3318 26.8737 8.62196 27.7846 7.85402C28.0023 7.67032 28.2117 7.49552 28.25 7.46342C28.2658 7.45027 28.281 7.44215 28.2945 7.44321Z" fill="url(#paint1_linear_857_78973)"/>
<path d="M12.7344 6.66705C12.7344 6.66705 12.5219 7.00399 12.7223 7.5049C12.8462 7.81476 13.2186 8.18708 13.6289 8.58145C13.6289 8.58145 17.9266 12.7737 18.4531 13.3814C20.8344 16.1297 21.8686 18.8352 21.9641 22.5706C22.0254 24.9676 21.5631 27.0747 20.4403 29.5237C18.4279 33.913 14.1877 38.7536 7.63896 44.1361L8.60017 43.8184C9.21797 43.3556 10.0571 42.8613 12.0362 41.7786C16.5943 39.2855 21.7128 36.9921 28.0005 34.6292C37.0468 31.2296 51.9273 27.2408 60.3944 25.9439L61.2766 25.8084L61.1411 25.5959C60.3668 24.3925 59.8384 23.6504 59.2025 22.864C57.3453 20.5675 55.0971 18.6936 52.3424 17.1514C48.5571 15.0321 43.6473 13.3851 37.4406 12.151C36.2672 11.9177 33.6976 11.4773 31.6065 11.1513C27.1772 10.461 24.3203 9.99503 21.1647 9.44549C20.0334 9.24923 18.3441 8.96547 17.2227 8.72309C16.6385 8.59672 15.5279 8.33414 14.6649 8.03703C13.9524 7.75656 12.949 7.48537 12.7344 6.66705ZM15.2255 9.08526C15.2315 9.07984 15.3929 9.12973 15.5897 9.19663C15.9524 9.31971 16.431 9.46386 16.988 9.61952C17.4117 9.73751 17.8367 9.85083 18.2629 9.95945C18.8444 10.1081 19.3252 10.236 19.3314 10.2427C19.3957 10.3152 20.3723 13.4321 20.7054 14.6279C20.8325 15.0844 20.929 15.4647 20.9199 15.4739C20.9107 15.4829 20.8025 15.3148 20.6811 15.1015C19.5513 13.1146 17.762 11.094 15.6929 9.46783C15.435 9.26508 15.2255 9.09299 15.2255 9.08526ZM19.987 10.4006C20.0367 10.3972 20.2513 10.4331 20.5071 10.4897C22.1547 10.854 25.0967 11.4221 26.9886 11.7402C27.3038 11.7933 27.5634 11.8504 27.5634 11.8678C27.5634 11.8852 27.4457 11.9596 27.3024 12.0316C26.9849 12.1913 25.7004 12.9602 25.2706 13.2479C24.1977 13.9659 23.2331 14.7346 22.5306 15.4334C22.2483 15.7141 22.0121 15.9433 22.0045 15.9433C21.997 15.9433 21.9476 15.7796 21.8953 15.5791C21.544 14.2328 20.8179 12.2449 20.1671 10.8458C20.0624 10.6207 19.9769 10.4222 19.9769 10.4047C19.9769 10.4024 19.9798 10.4011 19.987 10.4007V10.4006ZM28.3627 11.9932C28.4178 12.0116 28.522 12.3369 28.7067 13.0678C29.0603 14.4673 29.2249 16.0392 29.1702 17.4934C29.1549 17.8981 29.1293 18.2739 29.1134 18.3291L29.0831 18.4303L28.5833 18.2684C27.5529 17.9391 25.8695 17.4434 24.4268 17.0441C23.6072 16.8173 22.9354 16.6148 22.9354 16.5949C22.9354 16.535 24.1313 15.3394 24.6454 14.8849C25.6273 14.0169 28.269 11.962 28.3628 11.9932L28.3627 11.9932ZM29.0284 12.0883C29.0583 12.0605 33.031 12.7484 34.8362 13.0941C36.1818 13.3516 38.1287 13.7593 38.246 13.8083C38.3026 13.832 38.1011 13.9418 37.4547 14.2334C34.898 15.3864 33.0038 16.4155 31.1209 17.6755C30.6249 18.0074 30.2128 18.2785 30.2042 18.2785C30.1956 18.2785 30.1882 18.0015 30.188 17.6633C30.1867 15.8272 29.8202 13.9739 29.1478 12.408C29.0755 12.2395 29.0212 12.0951 29.0284 12.0883ZM39.3003 14.1201C39.331 14.1508 39.2007 14.9341 39.0878 15.3969C38.7363 16.8372 37.8048 18.9748 36.6555 20.9842C36.4529 21.3381 36.2717 21.6334 36.2507 21.6397C36.2297 21.6461 35.9679 21.5085 35.67 21.3341C34.546 20.6767 33.2732 20.0549 31.8757 19.4785C31.486 19.3178 31.1541 19.1748 31.1371 19.1588C31.0732 19.099 34.1791 17.0427 35.8257 16.0546C37.1428 15.2643 39.2633 14.083 39.3003 14.12V14.1201ZM40.0349 14.2354C40.1243 14.2354 41.8861 14.7157 42.7971 14.9882C45.0662 15.6669 47.6838 16.623 49.3819 17.3942L50.0881 17.7139L49.5903 17.8292C45.4354 18.7838 41.8742 19.8853 38.4444 21.2775C38.1593 21.3932 37.9113 21.488 37.8938 21.488C37.8764 21.488 37.9674 21.2675 38.0942 20.9983C39.1253 18.8077 39.7911 16.509 39.964 14.5571C39.9798 14.3794 40.0119 14.2354 40.0349 14.2354ZM22.5226 18.2602C22.5507 18.2325 23.8916 18.5467 24.6231 18.7521C25.7224 19.0607 28.0617 19.8435 28.0633 19.9035C28.0633 19.9151 27.8054 20.1399 27.4905 20.4034C26.2258 21.4614 25.0058 22.5677 23.5445 23.9791C23.1113 24.3974 22.7432 24.7379 22.725 24.7379C22.7067 24.7379 22.6987 24.6768 22.7087 24.6023C22.9288 22.9777 22.8815 20.8916 22.5752 18.7682C22.5364 18.4991 22.5129 18.2699 22.5226 18.2603V18.2602ZM50.76 18.2866C50.7801 18.3068 50.1378 19.3105 49.738 19.8832C49.1547 20.7189 48.3092 21.8159 46.3829 24.2381C45.5356 25.3033 44.6897 26.3697 43.8453 27.4373C43.4609 27.9245 43.1382 28.3237 43.1289 28.3237C43.1197 28.3237 42.9956 28.1492 42.8537 27.9372C41.7679 26.3149 40.4793 24.89 38.9421 23.6107C38.6552 23.3719 38.3316 23.1102 38.2237 23.0299C38.1158 22.9497 38.0279 22.8754 38.0275 22.864C38.0265 22.8375 39.6681 22.1334 40.9211 21.6236C43.1027 20.7359 46.0842 19.6729 48.3154 18.9888C49.492 18.6281 50.7421 18.2688 50.76 18.2866ZM51.5005 18.481C51.5358 18.4737 51.77 18.587 52.051 18.748C54.4009 20.0941 56.7036 21.8228 58.5144 23.6007C59.0295 24.1063 60.2896 25.4171 60.2709 25.4279C60.2661 25.4307 59.8309 25.4652 59.3036 25.5048C55.2315 25.8111 50.0253 26.6774 45.0129 27.8826C44.6726 27.9644 44.3782 28.0323 44.3593 28.0323C44.3404 28.0323 44.713 27.6583 45.1869 27.2026C48.1305 24.3728 49.4734 22.5859 51.0534 19.3935C51.2887 18.9181 51.4883 18.5079 51.4966 18.4829C51.4971 18.4814 51.4981 18.4814 51.5005 18.481ZM29.9776 20.6866C30.1119 20.7168 31.3673 21.3009 32.3148 21.7753C33.1812 22.2091 34.4936 22.9078 34.559 22.9693C34.5672 22.977 34.1049 23.2184 33.531 23.5055C31.714 24.4145 30.1577 25.2731 28.5326 26.2658C28.0693 26.5488 27.6809 26.7817 27.6686 26.7817C27.628 26.7817 27.644 26.7467 27.9033 26.2718C28.7686 24.6869 29.4667 22.7947 29.8683 20.9456C29.9041 20.7806 29.9472 20.6798 29.9776 20.6866ZM28.7128 20.9133C28.739 20.9394 28.4132 22.136 28.2069 22.775C27.8111 24.0005 27.142 25.5412 26.4989 26.7008C26.3326 26.9991 26.1613 27.2946 25.985 27.5871L25.7462 27.9777L25.2038 27.4535C24.5736 26.8426 24.0603 26.4632 23.4048 26.1261C23.1473 25.9936 22.9378 25.8708 22.9374 25.8529C22.9362 25.7732 24.5861 24.2727 25.8595 23.1958C26.771 22.4251 28.6895 20.89 28.7128 20.9132V20.9133ZM36.3985 24.0741L36.87 24.3796C37.9516 25.082 39.2323 26.0267 40.2089 26.8404C40.7561 27.2964 41.8196 28.2487 42.0382 28.4795L42.1556 28.603L41.3725 28.8215C36.9432 30.0504 33.5211 31.1444 29.5283 32.6117C29.0852 32.7746 28.7026 32.9092 28.6763 32.9092C28.6212 32.9092 28.5666 32.9598 29.5627 32.0431C32.1165 29.6928 34.3726 27.1033 36.0584 24.5841L36.3985 24.0741ZM34.3788 24.58C34.402 24.6032 33.0699 26.4688 32.2784 27.5224C31.3314 28.7828 29.6447 30.8899 28.4841 32.2617C27.9993 32.8347 27.5838 33.3103 27.5614 33.3179C27.5367 33.3263 27.5214 33.186 27.5209 32.9638C27.5186 31.7934 27.2225 30.5425 26.6993 29.4832C26.4784 29.0358 26.4413 28.9275 26.4869 28.8862C26.6689 28.7212 29.4864 27.1146 31.2625 26.1625C32.4826 25.5085 34.3557 24.5568 34.3789 24.58H34.3788ZM22.1644 27.5729C22.1886 27.5729 22.4146 27.6865 22.6662 27.8259C23.2829 28.1675 23.8369 28.5433 24.3256 28.951C24.3445 28.9668 24.0914 29.1735 23.763 29.4104C22.8465 30.0717 21.451 31.1249 20.6426 31.7678C19.7899 32.4463 19.7616 32.467 19.8575 32.3203C20.4962 31.3436 20.8173 30.7906 21.1526 30.0842C21.4507 29.4564 21.7478 28.7111 21.9599 28.0626C22.0482 27.7933 22.1402 27.5729 22.1644 27.5729ZM25.4183 30.1268C25.4624 30.1213 25.5251 30.2032 25.7867 30.5942C26.338 31.4179 26.7603 32.5166 26.8692 33.411L26.8915 33.6032L25.5701 34.1153C23.1981 35.0357 21.0147 35.943 19.5398 36.6185C18.9972 36.8691 18.4582 37.1275 17.9229 37.3935C17.4472 37.6315 17.0589 37.8186 17.0589 37.8083C17.0589 37.7981 17.3576 37.5735 17.7226 37.3085C20.6172 35.207 23.1131 32.9064 24.9934 30.6063C25.1945 30.3603 25.3771 30.1471 25.4002 30.1329C25.4057 30.1295 25.4119 30.1274 25.4183 30.1268ZM23.9169 30.499C23.9552 30.5374 22.8488 31.7885 22.1037 32.549C20.2388 34.4523 18.39 35.9446 16.0997 37.3976C15.8131 37.5794 15.5512 37.7437 15.5169 37.7638C15.454 37.8006 15.5372 37.706 16.5429 36.6104C17.1765 35.9199 17.6616 35.3468 18.2123 34.6314C18.575 34.1601 18.6442 34.094 19.1755 33.7106C20.6067 32.6775 23.8788 30.4611 23.9168 30.4991L23.9169 30.499Z" fill="url(#paint2_radial_857_78973)"/>
<defs>
<linearGradient id="paint0_linear_857_78973" x1="14.9704" y1="61.6794" x2="40.0748" y2="46.8456" gradientUnits="userSpaceOnUse">
<stop stop-color="#909CA9"/>
<stop offset="1" stop-color="#EDEDEE"/>
</linearGradient>
<linearGradient id="paint1_linear_857_78973" x1="12.6217" y1="6.04363" x2="32.8214" y2="6.04363" gradientUnits="userSpaceOnUse">
<stop stop-color="#939FAB"/>
<stop offset="1" stop-color="#DCDEE1"/>
</linearGradient>
<radialGradient id="paint2_radial_857_78973" cx="0" cy="0" r="1" gradientUnits="userSpaceOnUse" gradientTransform="translate(31.6759 23.1761) rotate(-171.401) scale(26.0607 52.049)">
<stop stop-color="#EE352C"/>
<stop offset="1" stop-color="#A91D22"/>
</radialGradient>
</defs>
</svg>
