<?xml version="1.0" encoding="UTF-8" standalone="no"?>
<svg
   xmlns:dc="http://purl.org/dc/elements/1.1/"
   xmlns:cc="http://creativecommons.org/ns#"
   xmlns:rdf="http://www.w3.org/1999/02/22-rdf-syntax-ns#"
   xmlns:svg="http://www.w3.org/2000/svg"
   xmlns="http://www.w3.org/2000/svg"
   xmlns:sodipodi="http://sodipodi.sourceforge.net/DTD/sodipodi-0.dtd"
   xmlns:inkscape="http://www.inkscape.org/namespaces/inkscape"
   id="Layer_1"
   data-name="Layer 1"
   viewBox="0 0 141.37 51"
   version="1.1"
   inkscape:version="0.91 r13725"
   sodipodi:docname="header.svg">
  <metadata
     id="metadata31">
    <rdf:RDF>
      <cc:Work
         rdf:about="">
        <dc:format>image/svg+xml</dc:format>
        <dc:type
           rdf:resource="http://purl.org/dc/dcmitype/StillImage" />
        <dc:title>Kibana-Full-Logo</dc:title>
      </cc:Work>
    </rdf:RDF>
  </metadata>
  <sodipodi:namedview
     pagecolor="#515151"
     bordercolor="#666666"
     borderopacity="1"
     objecttolerance="10"
     gridtolerance="10"
     guidetolerance="10"
     inkscape:pageopacity="1"
     inkscape:pageshadow="2"
     inkscape:window-width="1796"
     inkscape:window-height="1079"
     id="namedview29"
     showgrid="false"
     inkscape:zoom="2.0725756"
     inkscape:cx="70.684998"
     inkscape:cy="25.5"
     inkscape:window-x="848"
     inkscape:window-y="219"
     inkscape:window-maximized="0"
     inkscape:current-layer="Layer_1" />
  <defs
     id="defs3">
    <style
       id="style5">.cls-1,.cls-2,.cls-3,.cls-4{fill:#fff;}.cls-1{opacity:0.6;}.cls-2{opacity:0.4;}.cls-3{opacity:0.9;}</style>
    <style
       id="style5-2">.cls-1,.cls-2,.cls-3,.cls-4{fill:#fff;}.cls-1{opacity:0.6;}.cls-2{opacity:0.4;}.cls-3{opacity:0.9;}</style>
    <clipPath
       clipPathUnits="userSpaceOnUse"
       id="clipPath8447">
      <path
         inkscape:connector-curvature="0"
         d="m 0,440.426 600,0 L 600,0 0,0 0,440.426 Z"
         id="path8449" />
    </clipPath>
    <clipPath
       clipPathUnits="userSpaceOnUse"
       id="clipPath4253">
      <rect
         style="opacity:1;fill:#000000;fill-opacity:1;stroke:none;stroke-width:10;stroke-miterlimit:4;stroke-dasharray:none;stroke-opacity:1"
         id="rect4255"
         width="590.45569"
         height="105.34558"
         x="81.218109"
         y="405.88754" />
    </clipPath>
    <clipPath
       clipPathUnits="userSpaceOnUse"
       id="clipPath4257">
      <rect
         style="opacity:1;fill:#000000;fill-opacity:1;stroke:none;stroke-width:10;stroke-miterlimit:4;stroke-dasharray:none;stroke-opacity:1"
         id="rect4259"
         width="590.45569"
         height="105.34558"
         x="81.218109"
         y="405.88754" />
    </clipPath>
    <clipPath
       clipPathUnits="userSpaceOnUse"
       id="clipPath4261">
      <rect
         style="opacity:1;fill:#000000;fill-opacity:1;stroke:none;stroke-width:10;stroke-miterlimit:4;stroke-dasharray:none;stroke-opacity:1"
         id="rect4263"
         width="590.45569"
         height="105.34558"
         x="81.218109"
         y="405.88754" />
    </clipPath>
    <clipPath
       clipPathUnits="userSpaceOnUse"
       id="clipPath4265">
      <rect
         style="opacity:1;fill:#000000;fill-opacity:1;stroke:none;stroke-width:10;stroke-miterlimit:4;stroke-dasharray:none;stroke-opacity:1"
         id="rect4267"
         width="590.45569"
         height="105.34558"
         x="81.218109"
         y="405.88754" />
    </clipPath>
    <clipPath
       clipPathUnits="userSpaceOnUse"
       id="clipPath4273">
      <rect
         style="opacity:1;fill:#000000;fill-opacity:1;stroke:none;stroke-width:10;stroke-miterlimit:4;stroke-dasharray:none;stroke-opacity:1"
         id="rect4275"
         width="590.45569"
         height="105.34558"
         x="81.218109"
         y="405.88754" />
    </clipPath>
    <clipPath
       id="clipPath6722"
       clipPathUnits="userSpaceOnUse">
      <rect
         y="405.88754"
         x="81.218109"
         height="105.34558"
         width="590.45569"
         id="rect6724"
         style="opacity:1;fill:#454545;fill-opacity:1"
         clip-path="url(#clipPath4273)"
         transform="matrix(0.7991718,0,0,1.6423733,-57.813512,-156.40647)" />
    </clipPath>
    <clipPath
       id="clipPath8447-1"
       clipPathUnits="userSpaceOnUse">
      <path
         inkscape:connector-curvature="0"
         id="path8449-8"
         d="m 0,440.426 600,0 L 600,0 0,0 0,440.426 Z" />
    </clipPath>
  </defs>
  <title
     id="title7">Kibana-Full-Logo</title>
  <flowRoot
     xml:space="preserve"
     id="flowRoot4521"
     style="font-style:normal;font-weight:normal;font-size:10.06073475px;line-height:125%;font-family:sans-serif;letter-spacing:0px;word-spacing:0px;fill:#000000;fill-opacity:1;stroke:#000000;stroke-width:1px;stroke-linecap:butt;stroke-linejoin:miter;stroke-opacity:1"
     transform="matrix(0.29990651,0,0,0.29990651,417.97386,-264.67424)"><flowRegion
       id="flowRegion4523"><rect
         style="fill:#000000;fill-opacity:1;stroke:#000000;stroke-opacity:1"
         id="rect4525"
         width="107.50423"
         height="36.241951"
         x="386.03168"
         y="722.34802" /></flowRegion><flowPara
       id="flowPara4527" /></flowRoot>  <g
     style="fill:#ffffff;fill-opacity:1;stroke:none;stroke-opacity:1"
     transform="matrix(0.20384968,0,0,0.20384968,-164.99706,-94.175653)"
     clip-path="none"
     id="g4599">
    <g
       style="fill:#ffffff;fill-opacity:1;stroke:none;stroke-opacity:1"
       id="g4587" />
    <g
       id="text4185-4"
       style="font-style:normal;font-variant:normal;font-weight:normal;font-stretch:normal;font-size:138.11274719px;line-height:125%;font-family:Velocity;-inkscape-font-specification:Velocity;letter-spacing:0px;word-spacing:0px;fill:#ffffff;fill-opacity:1;stroke:none;stroke-width:1px;stroke-linecap:butt;stroke-linejoin:miter;stroke-opacity:1" />
    <g
       id="text4189-5"
       style="font-style:normal;font-variant:normal;font-weight:normal;font-stretch:normal;font-size:138.11274719px;line-height:125%;font-family:Velocity;-inkscape-font-specification:Velocity;letter-spacing:0px;word-spacing:0px;fill:#ffffff;fill-opacity:1;stroke:none;stroke-width:1px;stroke-linecap:butt;stroke-linejoin:miter;stroke-opacity:1" />
  </g>
  <g
     id="g5037"
     transform="translate(-2.4124571,0.48249141)">
    <g
       style="fill:#ffffff;fill-opacity:1;stroke:none;stroke-width:0.35433072px;stroke-opacity:1"
       id="Template"
       transform="matrix(0.08800445,0,0,0.08800445,6.5176435,6.7116786)">
      <path
         id="path5301"
         d="m 208.92148,385.60444 c -5.42144,-2.95843 -17.1322,-7.92522 -42.39069,-17.97905 C 117.96545,348.29462 95.695817,338.235 74.969427,326.26549 34.098287,302.66246 12.199099,274.73898 3.9687098,235.73315 -0.88484694,212.7306 -1.3316944,182.04311 2.8767418,160.72555 15.053403,99.046684 63.873051,58.361504 143.53079,43.508004 c 32.46905,-6.05443 72.75239,-7.57359 108.77622,-4.10217 50.34904,4.85183 91.0531,18.86059 120.68214,41.53407 2.97652,2.27774 8.33784,6.94634 11.9143,10.3747 22.84656,21.900666 35.69494,48.646656 39.48135,82.186536 1.07107,9.48725 1.08489,29.37004 0.0279,39.63758 -5.12674,49.78065 -28.81588,84.07647 -77.73933,112.54623 -20.49742,11.92791 -41.27098,21.57677 -89.22471,41.44296 -24.43182,10.12158 -33.66465,14.22208 -39.86789,17.70653 l -4.96197,2.78723 -3.69672,-2.01723 z m 20.65626,-35.6631 c 7.73101,-0.72495 17.28878,-2.29247 21.33652,-3.49928 9.5103,-2.83543 19.09007,-8.47121 27.03892,-15.90691 5.42997,-5.07946 5.80832,-5.32849 11.04348,-7.26858 36.72543,-13.61028 62.8314,-37.4823 73.96112,-67.63241 4.67447,-12.66274 6.70181,-27.79562 5.54877,-41.41578 -0.7813,-9.22643 -2.74013,-19.30017 -5.25158,-27.00751 -1.04564,-3.20888 -1.90102,-6.06884 -1.90102,-6.35545 0,-0.28664 1.45466,-3.29075 3.2328,-6.67581 11.29614,-21.50589 13.67961,-46.50575 6.55035,-68.70816 l -1.17358,-3.65488 -3.62839,-1.69723 C 349.60179,92.291984 315.1174,90.417994 291.74812,96.066104 l -5.06794,1.22484 -9.33943,-4.23943 c -5.13692,-2.33166 -11.74083,-5.06192 -14.67563,-6.0672 -22.86298,-7.83138 -49.21751,-10.37901 -72.57219,-7.01533 -15.82046,2.27854 -34.62877,8.21828 -48.88189,15.43705 l -3.40182,1.72303 -4.71574,-1.17214 c -7.1156,-1.76861 -15.55563,-2.74484 -26.36271,-3.04931 -18.940741,-0.53359 -35.992122,2.03115 -46.811687,7.04103 l -4.599902,2.129986 -1.493624,5.03409 c -0.821376,2.76873 -1.867327,6.95961 -2.323999,9.31302 -1.183455,6.09704 -1.587564,18.29429 -0.825661,24.91864 1.281854,11.14509 5.220543,24.01907 10.131264,33.11428 l 2.474818,4.58397 -1.681371,5.0627 c -4.652801,14.00955 -6.242819,23.70663 -6.236762,38.03584 0,12.23881 0.993225,19.05653 4.321299,29.81711 9.913898,32.05273 38.522457,58.47889 78.419755,72.43731 4.48805,1.57018 5.16485,1.99918 8.92088,5.6541 5.15119,5.01249 11.12199,9.15143 17.81543,12.34966 7.56426,3.61425 12.57946,5.01326 23.03055,6.42435 15.67835,2.11679 27.63359,2.43717 41.70598,1.11764 z m -26.51765,-15.35383 c -5.26162,-0.39941 -18.98344,-2.24701 -22.11042,-2.97707 -3.45294,-0.8062 -10.53393,-3.95756 -14.28139,-6.35596 -3.71314,-2.3764 -9.09237,-7.2742 -10.95525,-9.97462 -1.52512,-2.21071 -2.07465,-2.57973 -5.31794,-3.57113 -11.35758,-3.47155 -24.13599,-9.1254 -33.38195,-14.76992 -15.99984,-9.76762 -27.597763,-21.57644 -35.144271,-35.78362 -6.661094,-12.54001 -8.963596,-21.4832 -9.368192,-36.38813 -0.426978,-15.72395 1.6927,-27.31503 7.773708,-42.50978 l 1.959822,-4.89714 -2.437035,-3.66078 c -5.585891,-8.39111 -9.358167,-17.74304 -11.237657,-27.85921 -1.803762,-9.70906 -1.378777,-25.18989 0.879681,-32.04648 0.369325,-1.12117 5.271315,-2.5347 12.970289,-3.74019 8.493754,-1.32992 33.445365,-1.33642 40.556535,-0.0127 6.17712,1.15169 9.92526,2.15487 13.43616,3.59619 l 2.78006,1.14131 2.13607,-1.25429 c 11.63455,-6.83196 27.2367,-12.89627 41.17702,-16.004866 32.72942,-7.29838 67.86829,-1.92452 98.17202,15.013666 4.30487,2.40624 4.63819,2.50812 6.22344,1.90189 11.15173,-4.26469 15.97439,-5.08708 31.76939,-5.41757 15.59788,-0.32636 24.99727,0.52806 34.40834,3.12786 2.65634,0.73375 2.7089,0.78766 3.3123,3.39308 2.01386,8.69436 2.17747,21.56116 0.39047,30.69243 -1.98675,10.15112 -6.28931,20.47282 -11.78156,28.26324 l -2.78744,3.95384 2.5389,6.8694 c 4.85272,13.12883 6.8784,24.0443 6.86163,36.97371 -0.0296,23.29556 -8.23761,42.82904 -24.9966,59.49129 -11.866,11.79752 -29.5814,22.1852 -48.49665,28.43661 -5.5583,1.837 -5.85417,2.01009 -7.74629,4.5325 -5.2345,6.97843 -14.85107,13.5818 -23.7386,16.30046 -6.42138,1.96426 -18.7812,3.41466 -30.57641,3.58806 -5.65538,0.0831 -11.50001,0.0589 -12.98818,-0.0542 z m 20.02349,-36.44663 c 22.16792,-1.92638 37.48062,-8.00083 41.51704,-16.46967 2.25108,-4.7229 1.86932,-11.58596 -0.9809,-17.63116 -4.11494,-8.72781 -15.55646,-19.3609 -27.74741,-25.78669 -7.94063,-4.1855 -18.0487,-7.05086 -24.87306,-7.05086 -7.58498,0 -19.42898,4.16174 -29.29229,10.29273 -17.81329,11.07282 -27.81936,27.03234 -24.31338,38.77973 1.821,6.10147 9.51358,11.13437 22.22642,14.54179 11.94715,3.2022 29.45654,4.54133 43.46358,3.32413 z m -6.4725,-94.37702 c 4.83498,-1.13637 12.4891,-4.8823 16.75487,-8.19981 11.84876,-9.2151 14.49591,-19.97008 6.28818,-25.54802 -12.95713,-8.8058 -48.85907,-7.86953 -58.67276,1.5301 -2.21857,2.12482 -2.79238,4.01437 -2.43542,8.01809 0.65711,7.37131 9.01861,16.26494 20.1853,21.46968 7.41575,3.45648 11.88507,4.13889 17.87983,2.72996 z m -61.63105,-43.55382 c 1.23717,-0.49301 3.23148,-1.83784 4.43201,-2.98855 2.35588,-2.25823 4.37402,-6.29807 3.53572,-7.07789 -0.50498,-0.46981 -24.98249,-10.05773 -25.67672,-10.05773 -0.20436,0 -0.88873,1.118 -1.5207,2.4845 -5.16731,11.17361 7.13567,22.45933 19.22969,17.63967 z m 119.0954,-0.31862 c 4.80919,-2.11078 8.26686,-7.02496 8.26686,-11.74935 0,-2.32392 -1.39714,-6.75138 -2.36672,-7.49987 -1.10212,-0.85077 -26.30867,8.88004 -26.3128,10.15779 0,1.52101 2.55796,5.69521 4.36483,7.10951 4.94029,3.86678 10.25709,4.52343 16.04783,1.98192 z"
         style="fill:#ffffff;fill-opacity:1;stroke:none;stroke-width:0.40064034px;stroke-opacity:1"
         inkscape:connector-curvature="0" />
    </g>
    <g
       style="font-style:normal;font-weight:normal;font-size:73.0574646px;line-height:125%;font-family:sans-serif;letter-spacing:0px;word-spacing:0px;fill:#ffffff;fill-opacity:1;stroke:none;stroke-width:1px;stroke-linecap:butt;stroke-linejoin:miter;stroke-opacity:1"
       id="text4959"
       transform="matrix(0.29399115,0,0,0.29399115,-1.2096765,-148.73169)">
      <path
         d="m 192.54803,566.91467 0,11.34388 13.51991,0 0,5.10118 -13.51991,0 0,21.68894 q 0,4.88714 1.31988,6.27837 1.35556,1.39123 5.45791,1.39123 l 6.74212,0 0,5.49358 -6.74212,0 q -7.59826,0 -10.48774,-2.81813 -2.88948,-2.85381 -2.88948,-10.34505 l 0,-21.68894 -4.8158,0 0,-5.10118 4.8158,0 0,-11.34388 6.59943,0 z"
         style="letter-spacing:-2.23402953px;fill:#ffffff;fill-opacity:1;stroke:none;stroke-opacity:1"
         id="path4964"
         inkscape:connector-curvature="0" />
      <path
         d="m 212.50235,578.25855 6.56376,0 0,39.9533 -6.56376,0 0,-39.9533 z m 0,-15.55325 6.56376,0 0,8.31172 -6.56376,0 0,-8.31172 z"
         style="letter-spacing:-2.23402953px;fill:#ffffff;fill-opacity:1;stroke:none;stroke-opacity:1"
         id="path4966"
         inkscape:connector-curvature="0" />
      <path
         d="m 261.63685,585.92816 q 2.46141,-4.4234 5.88598,-6.52809 3.42457,-2.10468 8.062,-2.10468 6.24271,0 9.6316,4.38773 3.3889,4.35206 3.3889,12.41406 l 0,24.11467 -6.59943,0 0,-23.90063 q 0,-5.74329 -2.03334,-8.52575 -2.03334,-2.78246 -6.20703,-2.78246 -5.10118,0 -8.062,3.38889 -2.96083,3.3889 -2.96083,9.2392 l 0,22.58075 -6.59943,0 0,-23.90063 q 0,-5.77896 -2.03334,-8.52575 -2.03333,-2.78246 -6.27837,-2.78246 -5.02984,0 -7.99066,3.42457 -2.96083,3.38889 -2.96083,9.20352 l 0,22.58075 -6.59943,0 0,-39.9533 6.59943,0 0,6.20703 q 2.24738,-3.67427 5.38656,-5.42223 3.13919,-1.74796 7.45558,-1.74796 4.35205,0 7.38422,2.2117 3.06784,2.2117 4.53042,6.42107 z"
         style="letter-spacing:-2.23402953px;fill:#ffffff;fill-opacity:1;stroke:none;stroke-opacity:1"
         id="path4968"
         inkscape:connector-curvature="0" />
      <path
         d="m 333.53046,596.59426 0,3.21054 -30.17901,0 q 0.42807,6.77779 4.06668,10.34505 3.67428,3.53158 10.20236,3.53158 3.78129,0 7.31288,-0.92748 3.56726,-0.92749 7.06317,-2.78247 l 0,6.20704 q -3.53158,1.49824 -7.24153,2.28304 -3.70995,0.7848 -7.52692,0.7848 -9.56025,0 -15.16085,-5.56493 -5.56492,-5.56492 -5.56492,-15.05383 0,-9.80996 5.27954,-15.55325 5.31522,-5.77896 14.30471,-5.77896 8.062,0 12.73511,5.2082 4.70878,5.17253 4.70878,14.09067 z m -6.56375,-1.92632 q -0.0713,-5.38656 -3.03217,-8.59709 -2.92515,-3.21053 -7.77663,-3.21053 -5.49358,0 -8.81113,3.10351 -3.28187,3.10352 -3.78129,8.73979 l 23.40122,-0.0357 z"
         style="letter-spacing:-2.23402953px;fill:#ffffff;fill-opacity:1;stroke:none;stroke-opacity:1"
         id="path4970"
         inkscape:connector-curvature="0" />
      <path
         d="m 341.92686,562.7053 6.56376,0 0,55.50655 -6.56376,0 0,-55.50655 z"
         style="letter-spacing:-2.23402953px;fill:#ffffff;fill-opacity:1;stroke:none;stroke-opacity:1"
         id="path4972"
         inkscape:connector-curvature="0" />
      <path
         d="m 359.95486,578.25855 6.56376,0 0,39.9533 -6.56376,0 0,-39.9533 z m 0,-15.55325 6.56376,0 0,8.31172 -6.56376,0 0,-8.31172 z"
         style="letter-spacing:-2.23402953px;fill:#ffffff;fill-opacity:1;stroke:none;stroke-opacity:1"
         id="path4974"
         inkscape:connector-curvature="0" />
      <path
         d="m 393.46477,582.86032 q -5.27955,0 -8.34739,4.13802 -3.06784,4.10234 -3.06784,11.27254 0,7.17019 3.03217,11.30821 3.06784,4.10234 8.38306,4.10234 5.24387,0 8.31171,-4.13802 3.06784,-4.13802 3.06784,-11.27253 0,-7.09885 -3.06784,-11.23687 -3.06784,-4.17369 -8.31171,-4.17369 z m 0,-5.56493 q 8.56142,0 13.44856,5.56493 4.88715,5.56492 4.88715,15.41056 0,9.80996 -4.88715,15.41055 -4.88714,5.56493 -13.44856,5.56493 -8.5971,0 -13.48424,-5.56493 -4.85147,-5.60059 -4.85147,-15.41055 0,-9.84564 4.85147,-15.41056 4.88714,-5.56493 13.48424,-5.56493 z"
         style="letter-spacing:-2.23402953px;fill:#ffffff;fill-opacity:1;stroke:none;stroke-opacity:1"
         id="path4976"
         inkscape:connector-curvature="0" />
      <path
         d="m 453.6221,594.09718 0,24.11467 -6.56376,0 0,-23.90063 q 0,-5.67194 -2.2117,-8.49008 -2.2117,-2.81813 -6.6351,-2.81813 -5.31522,0 -8.38306,3.38889 -3.06784,3.3889 -3.06784,9.2392 l 0,22.58075 -6.59943,0 0,-39.9533 6.59943,0 0,6.20703 q 2.35439,-3.60293 5.52925,-5.38656 3.21053,-1.78363 7.38423,-1.78363 6.88481,0 10.41639,4.28071 3.53159,4.24504 3.53159,12.52108 z"
         style="letter-spacing:-2.23402953px;fill:#ffffff;fill-opacity:1;stroke:none;stroke-opacity:1"
         id="path4978"
         inkscape:connector-curvature="0" />
    </g>
  </g>
</svg>
