<svg xmlns="http://www.w3.org/2000/svg" xml:space="preserve" width="571.5" height="632.057" overflow="visible"><ellipse cx="346.517" cy="406.618" fill="#71C9F1" rx="224.981" ry="225.439"/><path fill="#359946" d="M501.978 457.39c-7.509-.713-16.236.223-23.391-2.537-8.306-3.204-4.547-10.3-9.413-16.078-3.78-4.487-11.079-5.93-16.188-8.536-6.96-3.549-13.698-7.636-21.302-9.71-7.862-2.143-17.271.333-24.15 4.177-2.157 1.205-7.1 5.316-9.661 3.283-2.681-2.127 2.007-10.977-4.186-8.791-5.667 2-8.333 10.666-13 10-5.563-.797-10.045-2.484-15.7-2.025-4.935.4-9.862 1.645-13.318-2.984-3.655-4.897-.294-11.042-2.59-16.06-3.943-8.621-14.11-.312-20.288-4.171 4.428-3.34 8.556-9.208 8.812-14.902.24-5.296-3.365-9.285-8.459-5.876-2.794 1.87-2.717 5.298-4.786 7.61-3.579 3.998-22.032 5.008-23.392-2.131-1.274-6.693-3.8-19.088-.613-25.461 2.46-4.92 5.587-10.722 11.14-12.62 5.662-1.937 13.416.266 19.726-1.347 5.419-1.385 11.471-3.187 16.794-.577 5.431 2.663 6.361 8.669 8.675 13.876 1.333 3 6.333 7 4.998-1.009-1.043-6.257-6.906-13.907-3.835-20.018 2.753-5.469 9.375-7.259 12.905-11.957 3.462-4.605.965-10.548 3.581-15.406 2.607-4.842 8.754-6.369 11.152-11.427 1.169-2.466 6.492-16.992 11.812-12.393 2.256 1.95.915 4.433 4.449 1.971 1.443-1.005 6.797-4.77 3.601-6.54-2.938-1.626-8 .977-9.614-3.112-2.782-7.047 10.244-10.657 11.95-15.776 1-3 .999-4-6.667-7-5.263-2.06-10.834-13.366-16.136-13.021-2.959.193-2.355 3.443-4.236 3.981-4.458 1.275-6.904-5.511-9.975-7.852-2.22-1.691-10.525-5.292-13.255-3.211-6.569 5.007 11.048 30.222-1.377 34.982-3.051 1.169-9.481-11.799-13.748-13.541-6.876-2.808-18.555-1.837-18.288-12.673.259-10.54 13.503-7.468 16.641-14.656 2.782-6.372-7.008-16.185-12.755-14.704-.313 1.593.765 5.348-.234 6.547-3.135 3.749-22.685.086-26.976-1.256-7.398-2.314-15.241-3.933-22.041-7.793-5.896-3.347-9.099-9.623-16.62-6.803-5.333 2-8.581 4.748-13.247 6.749-4.513 1.935-9.57 2.161-14.054 4.299-4.543 2.167-1.849 10.273-5.445 14.193-4.375 4.767-11.717 4.507-17.641 5.074-1.479.142-11.102.365-11.364 1.94-.377 2.465 24.337-.224 26.059-.717 3.962-1.134 6.864-4.043 10.679-5.509 4.563-1.753 10.064-2.544 12.391 2.452 2.72 5.866.49 11.602-1.584 17.235-2.341 6.359-1.505 7.897.193 14.208 1.063 3.951.289 6.358-1.373 10.062-4.133 9.214-15.476 25.558-11.28 36.347 3.218 8.275 10.404 15.299 16.03 21.95 3.825 4.522 3.212 8.959 5.922 14.176 2.562 4.931 6.369 9.652 9.468 14.285 4.448 6.649 5.391 15.301 10.732 21.386 4.689 5.344 18.895 14.808 26.259 15.046 2.229.071 4.227-2.034 6.38-1.789 6.695.77 10.746 7.212 16.557 9.839 5.312 2.401 12.593.383 17.068 4.591 5.602 5.266 6.109 13.242 14.608 15.555 4.236 1.151 9.679-.793 13.622 1.16 11.421 5.661 3.7 18.943.003 26.387-3.837 7.723-7.906 16.742-6.265 25.596 1.417 7.646 7.29 12.614 11.329 18.841 3.502 5.398 4.498 12.508 10.363 16.07 4.594 2.789 13.605 2.979 16.249 8.182 2.943 5.793-3.647 14.68-5.068 20.259-1.802 7.076-3.995 14.092-6.196 21.056-2.197 6.953-5.879 11.785-8.91 18.124-2.504 5.236-9.558 25.709 1.111 24.759 15.161-1.355 20.782-21.278 33.737-26.138 2.666-1 25-17.666 29-21 4-3.332 14-7.332 15.333-11.332s6.333-7 8-14.001c1.917-8.052 14.624-10.232 20.124-15.672 7.525-7.445 11.274-18.378 15.207-27.991 3.35-8.187 10.577-14.424 12.632-23.294 2.588-11.177-6.133-13.849-16.671-14.851"/><path fill="#359946" d="M381.378 381.335c-1.71-.46-3.672-.411-5.432-.978-2.658-.856-4.965-2.606-7.574-3.604-2.751-1.053-5.575-1.834-8.521-2.048a19.6 19.6 0 0 0-4.813.229c-1.477.259-3.017.697-4.387 1.315-.578.261-1.629.807-1.259 1.641.655 1.472 4.881.516 6.075.517 4.407.004 9.582-.109 13.225 2.781a15.8 15.8 0 0 1 2.563 2.56c.613.771 1.158 1.651 2.077 2.095.902.436 1.856-.061 2.698-.418 1.194-.506 2.403-.981 3.641-1.37 1.015-.318 2.294-.438 3.014-1.312.6-.728-.414-1.167-1.307-1.408M401.687 385.114c-2.328-.596-4.999 2.082-8.334.75-3.021-1.209-3.718-2.699-5.646-3.062-1.204-.227-3.259.418-1.688 1.812 2.719 2.412 4.67 4.588 8 6.084 2.071.93 7.254.213 9.25-.918 3.418-1.934 2.001-3.75-1.582-4.666M417.418 273.486c-.908-.569-4.107-7.395-6.731-1.956-3.417 7.083 9.064 8.755 10.345 7.231s-3.261-5.054-3.614-5.275M360.747 219.091c-1.993-.813-19.86-8.049-20.452-2.425-.387 3.669 6.869 4.285 9.104 4.869 3.51.918 9.196 3.659 10.155 7.568.661 2.702-3.062 6.094 2.133 6.094 2.333 0 7.333 1.333 7.333 1.333s2.331 1.332 4.33 1c5.634-.933-3.676-9.816-5.043-11.32-2.56-2.815-3.88-5.617-7.56-7.119M309.146 212.979c-1.678-.62-5.983-1.21-6.354-1.005-3.8 2.109-3.879 3.164.234 5.171 3.782 1.846 7.568 3.359 11.677 4.333 2.281.541 6.878.554 4.704-3.035-1.836-3.028-7.161-4.319-10.261-5.464M348.823 199.695c-1.944-1.491-4.894.116-6.754.966-4.292 1.959-8.718.723-13.063 2.073-1.127.35-2.913 1.235-3.002 2.619-.118 1.815 2.478 2.298 3.74 2.786 1.955.756 3.552 2.407 5.803 1.95 1.804-.366 3.223-1.749 5.056-2.105 2.112-.41 4.178-.647 5.794-2.204 1.193-1.149 4.435-4.535 2.426-6.085M409.354 226.53c-.277-1.943.044-3.902-.289-5.833-1.829-10.604-14.968-16.208-23.786-19.79-3.56-1.446-7.52-2.477-11.37-2.703-5.047-.295-11.717-.849-16.163 2.083-1.566 1.033-2.45 2.509-2.168 4.596.491 3.619 7.262 2.939 9.767 3.551 7.157 1.748 13.058 5.072 18.678 9.865 8.422 7.184 15.936 13.401 26.332 17.563 1.666.667 4.991 1.393 4.261-1.401-1.031-3.936-4.595-3.264-5.262-7.931M526.982 282.734c.352 6.433 1.142 12.889 3.198 19.021.987 2.942 2.672 5.6 3.723 8.518 2.473 6.87 1.067 14.3 2.423 21.351 1.335 6.941 5.996 12.545 8.022 19.24 1.876 6.197.695 13.385 3.337 19.332 1.507 3.391 4.328 5.977 6.224 9.145 2.399 4.01 5.111 14.822 10.22 16.139 3.615.932 3.283-7.537 3.784-9.68.519-2.219 1.267-4.58 1.886-6.961-4.898-39.934-20.21-76.639-43.142-107.295-.017.349.138 7.751.325 11.19M476.633 224.922c.477 2.124 1.054 4.656-.107 5.572-2.11 1.665-5.297-1.39-6.854-2.635-1.262-1.009-3.767-3.708-5.544-2.832-3.024 1.491 7.355 8.955 8.257 9.812 1.441 1.37 2.495 3.188 4.04 4.431 3.075 2.472 3.656-.448 5.861-1.96 3.364-2.308 6.416 1.998 8.007 4.324 2.456 3.59 4.026 7.599 6.747 11.036 3.116 3.936 6.173 7.852 8.763 12.208 2.714 4.562 5.375 9.192 8.843 13.237 2.25 2.625 6.559 4.244 7.52 3.403 1.647-1.44-.844-4.196-1.373-5.637-1.469-4-4.137-7.383-6.099-11.132-1.967-3.76-4.444-12.495-4.486-12.773a226.3 226.3 0 0 0-33.99-29.577c-.015.604.188 1.518.415 2.523M419.521 197.116c4.331 3.715 9.838 5.95 15.165 8.081 3.333 1.333 4.333 3 8.333 5 4.945 2.473 9.567 5.014 14.826 6.81 1.517.518 5.319 2.592 6.841 1.523.674-.474.79-1.88.596-3.397a223.7 223.7 0 0 0-50.229-23.287c.157.317 2.928 3.95 4.468 5.27"/><path fill="#CCC" d="M56.772 483.438h65.061v106.465c-27.313 12.211-64.063 15.461-91.063-5.039C7.581 567.256-5.479 522.768 2.21 481.368s31.643-63.137 56.78-70.381c25.137-7.246 53.529.877 61.512 6.357l-10.055 47.908c-11.178-6.139-20.737-9.535-32.974-7.246-29.954 5.607-24.806 69.16-17.152 82.807 6.198 11.051 11.09 10.201 11.09 10.201l.148-20.848-14.787-.148zM225.77 420.364c-22.75-15.25-65.25-14.25-89.5-6.25l.25 182c23.75 3.75 65.75 6.5 88.75-10.25 24.713-17.998 33.25-48.25 33-84.5-.257-37.25-9.75-65.75-32.5-81m-21.5 83.25c-.5 44-15 47.75-15 47.75v-96s16 3.25 15 48.25M291.02 409.364l-40.75 188.5h52l7.75-38.25h13.75l7.25 38.25 52.25-.25-36.75-188zM389.52 409.364v188.25h96v-47.5h-43v-140.75z"/><path d="M112.02 583.364c-7.25 3-22.75 6-35 6-19.25 0-33.75-5.5-45-16.75-14.5-14-22.25-39-21.75-68 .75-61.25 35.75-86.75 71.5-86.75 12.75 0 22.25 2.5 27.5 5l-5.75 28.25c-4.75-2.25-11-3.75-19.25-3.75-22.25 0-40 15.25-40 59.25 0 40.5 15.75 55 31 55 3 0 5.25-.25 6.5-.75v-40.75h-15v-26.75h45.25zM146.516 421.864c8.25-2 20.25-3.25 33.25-3.25 21.25 0 36 5 46.75 15 14.5 13 22 35.25 22 68 0 34-8.75 58.25-23.5 71.25-11.25 11-28 16.25-51.5 16.25-10.25 0-20.5-1-27-1.75zm32.75 140c1.5.5 4 .5 5.75.5 15.75 0 29.5-15.5 29.5-62 0-34.5-9-55.5-28.75-55.5-2.25 0-4.5 0-6.5.75zM302.018 549.364l-7.5 38.5h-31.75l36.5-168.5h39.25l32.75 168.5h-31.75l-7.25-38.5zm27.25-25.5-5.5-35.25c-1.75-10.25-4-27-5.5-38.25h-.75c-1.75 11.25-4.25 28.75-6 38.5l-6.25 35zM399.766 419.364h32.75v140.75h43.25v27.75h-76z"/><path fill="#ED1E3A" d="m182.65 173.129-2.333 6.184 186.476 68.695c.404-2.107 1.5-4.08 2.162-6.247z"/><path fill="#ED1E3A" d="m180.528 179.824-33.894 195.825c2.202 1.482 4.432 2.82 6.716 4.102l34.414-198.825z"/><path fill="#ED1E3A" d="M244.787 288.181c-66.626 41.209-91.718 80.856-96.071 88.376a102 102 0 0 0 5.158 2.872c10.307-16.118 37.901-52.546 94.204-86.861 51.214-31.214 96.002-40.895 117.844-43.891.354-1.78 1.219-3.4 2.071-5.071-14.297 1.719-67.518 10.131-123.206 44.575"/><path fill="#666667" d="m263.86 51.352-80.769 51.653-14.161-51.353L249.699 0z"/><path d="M175.983 114.397s-12.522 3.461-23.303 9.845-19.823 15.693-19.823 15.693l-34.207-57.5s6.653-12.348 17.642-18.854c10.565-6.257 25.482-6.683 25.482-6.683z"/><path fill="#666667" d="M152.493 136.525c19.72-12.891 41.243-20.098 49.737-16.902-5.473-2.507-27.143-10.826-50.188 2.244-23.858 13.531-26.183 34.557-26.165 42.379 1.076-6.775 11.099-17.577 26.616-27.721"/><path fill="#989898" d="M205.773 125.483c.139-.985.084-1.885-.177-2.681a4.4 4.4 0 0 0-.875-1.545 5.2 5.2 0 0 0-1.167-.988c-1.379-.871-3.304-1.323-5.658-1.393a23 23 0 0 0-1.212-.003q-1.248.029-2.626.18a41 41 0 0 0-2.135.296q-.733.121-1.494.271-.38.075-.769.157-.774.164-1.574.358c-10.13 2.447-23.218 8.3-35.594 16.39-12.051 7.876-20.788 16.152-24.596 22.63q-.308.524-.573 1.034-.266.509-.486 1.001t-.396.965c-.41 1.104-.634 2.131-.66 3.066q-.012.401.026.78c.147 1.511.884 2.74 2.263 3.611 7.357 4.647 30.218-2.63 51.062-16.256a150 150 0 0 0 1.924-1.28c14.533-9.838 23.808-20.107 24.717-26.593"/><path d="m149.318 142.744 35.03 35.53-1.747 1.724-35.032-35.53zM185.674 178.985l-12.429-48.322 2.377-.612 12.429 48.323zM182.736 172.197l-22.197-40.319c-.891.273-1.691.455-2.214 1.07l22.261 40.433z"/><circle cx="184.314" cy="176.851" r="6.662"/><path fill="#666667" d="m110.624 151.075-83.697 53.621-13.645-51.699 83.697-53.622z"/><path d="m97.479 128.201 2.529 3.574 23.545-15.261c-.268-.568-2.182-3.293-2.52-3.79zM157.986 89.501l2.529 3.574 23.546-15.261c-.269-.569-2.182-3.294-2.521-3.791z"/></svg>