<?xml version="1.0" encoding="utf-8"?>
<svg width="1792" height="1792" viewBox="0 0 1792 1792" xmlns="http://www.w3.org/2000/svg">
  <path d="M 1792 832 L 1792 960 C 1792 977.333 1785.667 992.333 1773 1005 C 1760.333 1017.667 1745.333 1024 1728 1024 L 1117 1024 C 1129.676 983.589 1136.509 940.593 1136.509 896 C 1136.509 851.407 1129.676 808.411 1117 768 L 1728 768 C 1745.333 768 1760.333 774.333 1773 787 C 1785.667 799.667 1792 814.667 1792 832 Z M 301.698 1024 L 64 1024 C 46.667 1024 31.667 1017.667 19 1005 C 6.333 992.333 0 977.333 0 960 L 0 832 C 0 814.667 6.333 799.667 19 787 C 31.667 774.333 46.667 768 64 768 L 301.698 768 C 289.022 808.411 282.189 851.407 282.189 896 C 282.189 940.593 289.022 983.589 301.698 1024 Z"/>
  <ellipse cx="707.492" cy="896" rx="263.725" ry="263.725"/>
</svg>