<svg width="24" height="25" viewBox="0 0 24 25" fill="none" xmlns="http://www.w3.org/2000/svg">
<g clip-path="url(#clip0_9989_50673)">
<path fill-rule="evenodd" clip-rule="evenodd" d="M2.24673 14.1971L-0.00012207 15.5452V20.1445L4.49988 22.8445L8.24988 20.5945L11.9999 22.8445L15.7499 20.5945L19.4999 22.8445L23.9999 20.1445V15.5452L20.2499 13.2952V9.54521L16.4999 7.29521V3.54521L11.9999 0.845215L7.49988 3.54521V5.66927L8.99988 5.6945V4.3945L11.9999 2.5945L14.9999 4.3945V7.29521L13.5029 8.19339L14.253 9.49261L15.7499 8.5945L18.7499 10.3945V13.2952L15.7499 15.0952L14.0573 14.0797L13.3289 15.3919L14.9999 16.3945V19.2952L11.9999 21.0952L8.99988 19.2952V18.0206L7.49988 17.9953V19.2952L4.49988 21.0952L1.49988 19.2952L1.49988 16.3945L2.99684 15.4963L2.24673 14.1971ZM16.4999 19.2952V16.3945L19.4999 14.5945L22.4999 16.3945V19.2952L19.4999 21.0952L16.4999 19.2952Z" fill="#98A2B3"/>
<path fill-rule="evenodd" clip-rule="evenodd" d="M8.24988 16.8447L3.74988 14.1447L3.74988 9.54544L8.24988 6.84544L12.7499 9.54544L12.7499 14.1447L8.24988 16.8447ZM11.2499 13.2954L11.2499 10.3947L8.24988 8.59473L5.24988 10.3947L5.24988 13.2954L8.24988 15.0954L11.2499 13.2954Z" fill="#24C292"/>
</g>
<defs>
<clipPath id="clip0_9989_50673">
<rect width="24" height="24" fill="white" transform="translate(-0.00012207 0.219971)"/>
</clipPath>
</defs>
</svg>
