<svg width="24" height="24" viewBox="0 0 24 24" fill="none" xmlns="http://www.w3.org/2000/svg">
<path fill-rule="evenodd" clip-rule="evenodd" d="M2.24686 13.9769L0 15.325V19.9243L4.5 22.6243L8.25 20.3743L12 22.6243L15.75 20.3743L19.5 22.6243L24 19.9243V15.325L20.25 13.075V9.325L16.5 7.075V3.325L12 0.625L7.5 3.325V5.44905L9 5.47429V4.17428L12 2.37428L15 4.17428V7.075L13.503 7.97317L14.2531 9.2724L15.75 8.37429L18.75 10.1743V13.075L15.75 14.875L14.0574 13.8595L13.329 15.1717L15 16.1743V19.075L12 20.875L9 19.075V17.8003L7.5 17.7751V19.075L4.5 20.875L1.5 19.075L1.5 16.1743L2.99696 15.2761L2.24686 13.9769ZM16.5 19.075V16.1743L19.5 14.3743L22.5 16.1743V19.075L19.5 20.875L16.5 19.075Z" fill="#535766"/>
<path fill-rule="evenodd" clip-rule="evenodd" d="M8.25 16.625L3.75 13.925L3.75 9.32572L8.25 6.62572L12.75 9.32572L12.75 13.925L8.25 16.625ZM11.25 13.0757L11.25 10.175L8.25 8.375L5.25 10.175L5.25 13.0757L8.25 14.8757L11.25 13.0757Z" fill="#0B64DD"/>
</svg>
