<?xml version="1.0" encoding="UTF-8" standalone="no"?>
<!-- Created with Inkscape (http://www.inkscape.org/) -->
<svg
   xmlns:svg="http://www.w3.org/2000/svg"
   xmlns="http://www.w3.org/2000/svg"
   version="1.0"
   width="744.09448"
   height="578.2677"
   id="svg2206">
  <defs
     id="defs2208" />
  <g
     transform="translate(88.531636,-126.60988)"
     id="layer1">
    <g
       transform="matrix(3.5433071,0,0,3.5433071,-70.892703,-365.08493)"
       style="fill-rule:evenodd"
       id="g2195">
      <path
         d="M 37.481557,153.14346 C 37.203039,153.14394 36.863498,153.22332 36.463039,153.44438 C 35.131151,154.18323 35.826466,155.55086 35.826466,155.55086 L 60.86117,208.47907 L 66.925981,208.47907 L 38.62739,153.8842 C 38.62739,153.8842 38.317112,153.14202 37.481557,153.14346 z M 82.597266,254.45126 L 101.61346,294.68273 C 101.61345,294.68269 102.6954,296.80406 104.96993,296.98595 L 105.59493,296.98595 C 106.20688,296.93987 106.89488,296.75939 107.65512,296.37254 C 111.76718,294.27999 109.6932,291.00218 109.69215,291.00218 L 90.756982,254.45126 L 82.597266,254.45126 z "
         style="fill:#777777"
         id="path10" />
      <path
         d="M 179.4878,150.25776 C 170.59174,145.98808 162.01314,144.08296 153.49923,143.74845 L 147.88637,143.74845 C 135.58336,144.20882 123.29912,147.59346 110.26566,151.49385 C 86.088381,158.72534 64.582751,162.63925 40.423974,152.7823 C 43.055993,157.48492 44.373578,159.83597 47.00691,164.53505 C 49.424493,168.85775 51.845358,173.17993 54.26386,177.50079 C 56.896667,182.20262 58.212939,184.5517 60.846271,189.25262 C 80.081429,194.68923 96.010947,187.63871 113.10411,179.09344 C 133.63008,168.8378 152.17023,159.61143 175.62205,164.95723 C 155.80317,155.03269 137.83651,157.4924 117.1133,163.11471 C 137.40226,152.78585 156.50408,144.75265 179.4878,150.25776 L 179.4878,150.25776 z "
         style="fill:#f26711"
         id="path14" />
      <path
         d="M 38.945891,234.7459 C 38.945891,238.71072 38.945891,242.54996 39.067544,244.56479 C 38.641692,245.29353 36.934213,245.96754 35.471353,245.96754 C 35.409673,245.96754 33.397207,242.85652 30.531986,239.31807 L 16.446299,221.87688 C 12.971761,217.48567 10.89814,214.98659 9.8005027,214.07124 C 9.4963034,214.68003 9.4963034,215.71625 9.4963034,217.97321 L 9.4963034,229.80601 C 9.4963034,234.74577 9.7393479,239.31807 10.410607,240.9661 C 10.959688,242.24576 12.361656,242.61203 13.946826,242.91518 L 15.654174,243.16059 C 16.141181,243.64944 16.019921,244.93093 15.654174,245.2934 C 12.361656,245.1745 9.9226811,245.11059 7.4838375,245.11059 C 5.2278022,245.11059 2.9722918,245.1745 0.65562663,245.2934 C 0.2893539,244.93093 0.1675692,243.64944 0.65562663,243.16059 L 1.6917152,242.97726 C 3.3380396,242.61098 4.4959129,242.24576 5.044469,240.9661 C 5.6541799,239.31794 5.8986679,234.74577 5.8986679,229.80601 L 5.8986679,214.31481 C 5.8986679,210.96192 5.8986679,209.98699 5.4717653,209.13279 C 5.044469,208.09578 4.1301651,207.48515 1.9959145,207.05917 L 0.2893539,206.81429 C 0.13712302,206.64014 0.047359301,206.34159 0.0219,206.02177 L 0.0219,205.6404 C 0.05851415,205.18791 0.22609935,204.77243 0.53239836,204.68096 C 3.3986695,204.79985 6.4468303,204.86285 8.9477473,204.86285 C 11.020449,204.86285 12.788952,204.80182 14.069529,204.68056 C 14.680158,207.42439 18.643017,212.05785 24.130152,218.58462 L 29.251934,224.62268 C 31.996289,227.79393 33.703243,229.92635 35.106523,231.33094 C 35.350093,230.71979 35.349962,229.68186 35.349962,228.58645 L 35.350093,220.1694 C 35.350093,215.23042 35.106523,210.65641 34.434739,209.00733 C 33.885658,207.72859 32.544976,207.36429 30.898652,207.05917 L 29.251934,206.81429 C 28.764926,206.32623 28.88658,205.04618 29.251934,204.68096 C 32.54537,204.79985 34.92319,204.86285 37.423189,204.86285 C 39.678305,204.86285 41.874104,204.80169 44.252318,204.68043 C 44.618591,205.04618 44.739326,206.32623 44.252318,206.81521 L 43.154681,206.9971 C 41.570036,207.36416 40.410719,207.72846 39.861114,209.01048 C 39.191691,210.65628 38.94681,215.23042 38.94681,220.1711 L 38.945891,234.7459 L 38.945891,234.7459 z "
         style="fill:#f26711"
         id="path16" />
      <path
         d="M 53.432365,227.97556 C 54.287482,227.97556 55.261629,227.85194 55.933807,227.4274 C 56.2384,227.24078 56.358741,226.63068 56.358741,226.02556 C 56.358872,224.01205 55.201393,222.66953 53.128297,222.66953 C 50.56675,222.66953 48.372263,225.1089 48.372263,227.05929 C 48.372263,227.9148 49.225018,227.97556 51.176854,227.97556 L 53.432365,227.97556 L 53.432365,227.97556 z M 49.40927,230.6585 C 48.006909,230.6585 47.884206,230.77923 47.884206,231.75522 C 47.884206,236.33015 50.811632,240.78159 56.481444,240.78159 C 58.189317,240.78159 60.506507,240.41729 62.152307,237.61073 C 62.823172,237.48947 63.738001,237.977 63.738001,239.01164 C 61.237478,244.19642 56.725932,245.96728 53.067142,245.96728 C 44.835651,245.96728 40.38526,240.17135 40.38526,233.52425 C 40.38526,225.83987 45.933813,219.86257 53.555068,219.86257 C 59.895878,219.86257 63.310705,223.94879 63.310705,228.64643 C 63.310705,229.80469 63.005981,230.6585 61.116612,230.6585 L 49.40927,230.6585 L 49.40927,230.6585 z "
         style="fill:#f26711"
         id="path18" />
      <path
         d="M 75.333269,224.01231 C 74.541144,224.01231 74.48012,224.0715 74.48012,225.41506 L 74.48012,234.55994 C 74.48012,237.977 74.48012,241.75849 78.748228,241.75849 C 79.601902,241.75849 80.576836,241.33211 81.309775,240.84458 C 81.918173,241.02608 82.284315,241.69642 82.161612,242.42883 C 80.454657,244.25757 77.162533,245.96728 73.382483,245.96728 C 68.320938,245.96728 66.553223,243.03907 66.553223,239.01177 L 66.553354,225.41493 C 66.553354,224.13252 66.492199,224.01218 65.394562,224.01218 L 63.505193,224.01218 C 62.833934,223.76362 62.650994,222.54735 63.138527,222.11913 C 65.028289,221.45063 66.735768,220.35103 68.199547,219.37649 C 69.29679,218.58436 70.821855,217.30483 72.711618,214.6173 C 73.137602,214.37518 74.236157,214.43764 74.541275,214.92373 L 74.541275,219.49827 C 74.541275,220.65614 74.60243,220.7173 75.699673,220.7173 L 81.126967,220.71717 C 81.431691,220.96021 81.613974,221.32832 81.613974,221.87648 C 81.613974,222.54735 81.43156,223.64315 80.821849,224.01218 L 75.333269,224.01231 L 75.333269,224.01231 z "
         style="fill:#f26711"
         id="path20" />
      <path
         d="M 97.353203,234.80495 C 97.353203,239.56243 97.963439,242.54996 102.72039,242.54996 C 107.23233,242.54983 109.60976,239.0749 109.60976,234.13422 C 109.60976,228.82805 106.56068,225.10916 100.70832,225.10916 C 97.353728,225.10916 97.353728,225.16939 97.353728,227.6106 L 97.353728,234.80403 L 97.353203,234.80495 z M 97.353203,220.71743 C 97.353203,222.30444 97.415276,222.42399 100.58562,222.42399 C 105.82918,222.42386 107.78049,219.07215 107.78049,215.41245 C 107.78049,210.10681 104.48745,207.4841 100.2801,207.4841 C 97.415276,207.4841 97.353203,207.974 97.353203,210.65641 L 97.353203,220.71743 z M 88.938379,214.80129 C 88.938379,208.64342 88.816594,207.974 86.255966,207.66704 L 84.609248,207.42164 C 84.060692,207.11639 83.938382,205.28778 84.853605,205.22663 C 89.487985,204.92256 93.938901,204.67715 100.03745,204.67715 C 105.88981,204.67715 109.79388,205.34933 112.47498,206.93542 C 115.09715,208.52059 116.68141,211.08318 116.68141,214.67898 C 116.68141,219.80299 112.35319,221.81507 110.4633,222.30444 C 109.8528,222.42386 109.24257,222.66966 109.24257,222.97438 C 109.24257,223.15667 109.549,223.33829 110.09808,223.46231 C 114.91474,224.49971 118.99899,227.66782 119.06054,233.58264 C 119.12209,239.19419 115.76841,242.48828 111.92813,243.83133 C 108.08509,245.17253 103.5133,245.35534 99.79349,245.35534 C 97.599003,245.35534 95.281813,245.10901 93.512917,245.10901 C 90.524073,245.10901 87.536543,245.17253 84.062004,245.29327 C 83.574997,244.92804 83.574997,243.34327 84.062004,243.16046 L 85.830507,242.79379 C 88.57355,242.24563 88.939823,241.81833 88.939823,236.32936 L 88.938379,214.80129 L 88.938379,214.80129 z "
         style="fill:#777777"
         id="path22" />
      <path
         d="M 132.35791,246.0871 C 126.74951,246.0871 123.27313,244.5014 121.99348,243.77083 C 120.83521,242.42923 120.04308,238.03842 120.04308,233.89078 C 120.46907,233.09905 121.87222,233.03658 122.35975,233.70745 C 123.57878,237.67136 127.66303,243.28146 132.84675,243.28146 C 137.3579,243.28146 139.43244,240.17175 139.43244,237.12359 C 139.43244,232.18422 134.79911,229.25693 131.1398,227.42779 C 126.74964,225.22963 121.99361,221.5732 121.93376,215.53384 C 121.9339,208.64355 127.23888,203.88476 136.07969,203.88476 C 138.09123,203.88476 140.59071,204.13017 143.031,204.86298 C 143.82325,205.10655 144.37128,205.22689 145.1037,205.34959 C 145.58939,206.69119 146.20133,209.98476 146.20133,214.07137 C 145.89595,214.80142 144.37128,214.8635 143.82312,214.25602 C 142.78611,211.14355 140.16302,206.69119 135.77313,206.69119 C 131.75003,206.69119 129.55554,209.31481 129.55554,212.36205 C 129.55554,215.16848 132.05279,217.72832 135.10187,219.31441 L 139.12785,221.45089 C 142.9075,223.46297 147.72496,226.99905 147.72496,233.70745 C 147.72509,241.20928 141.56433,246.0871 132.35791,246.0871 L 132.35791,246.0871 z "
         style="fill:#777777"
         id="path24" />
      <path
         d="M 161.11773,234.07136 C 161.11773,237.42739 161.24043,239.62188 162.33676,240.90337 C 163.43636,242.12371 165.2029,242.67188 167.3983,242.67188 C 177.94607,242.67188 181.54409,233.28251 181.54409,224.98672 C 181.54423,214.0089 175.75158,207.48397 164.71445,207.48397 C 163.07101,207.48384 161.90985,207.78896 161.54463,208.27885 C 161.17849,208.76534 161.11773,209.92374 161.11773,211.8131 L 161.11773,234.07228 L 161.11773,234.07136 z M 152.39923,214.7404 C 152.39923,208.94736 152.27705,207.78896 149.47194,207.48397 L 148.31406,207.36311 C 147.7054,207.05786 147.70527,205.28765 148.43677,205.22649 C 153.55868,204.92229 158.31366,204.67689 164.77796,204.67689 C 169.7777,204.67689 174.77612,205.16862 178.98452,206.6908 C 186.97296,209.55654 191.36128,216.75286 191.36128,224.37464 C 191.36141,232.54813 187.45944,239.13566 180.44843,242.61072 C 176.30263,244.68566 171.30119,245.47555 165.02114,245.47555 C 162.15684,245.47555 159.10487,245.10888 156.9113,245.10888 C 153.98361,245.10888 150.8739,245.17227 147.39976,245.29314 C 146.91236,244.92778 146.91236,243.46492 147.39976,243.1602 L 149.28965,242.85521 C 152.03322,242.36807 152.39936,241.9413 152.39936,236.32923 L 152.39923,214.7404 L 152.39923,214.7404 z "
         style="fill:#777777"
         id="path26" />
      <path
         d="M 189.07047,209.35746 C 189.07047,207.84775 189.60616,206.55746 190.67795,205.48857 C 191.74921,204.41954 193.04081,203.88437 194.55052,203.88437 C 196.05996,203.88437 197.35012,204.41954 198.41915,205.48857 C 199.48713,206.55746 200.0219,207.84775 200.0219,209.35746 C 200.0219,210.86862 199.48713,212.1589 198.41915,213.23108 C 197.35012,214.30234 196.05983,214.83856 194.55052,214.83856 C 193.04094,214.83856 191.74921,214.30247 190.67795,213.23108 C 189.60616,212.1589 189.07047,210.86862 189.07047,209.35746 z M 199.12466,209.35746 C 199.12466,208.09263 198.67925,207.01403 197.7866,206.12098 C 196.89422,205.22886 195.81626,204.78201 194.55052,204.78201 C 193.28582,204.78201 192.20524,205.22886 191.31036,206.12098 C 190.41495,207.01403 189.96771,208.09277 189.96771,209.35746 C 189.96771,210.62282 190.41495,211.70287 191.31036,212.59827 C 192.20524,213.49171 193.28582,213.9404 194.55065,213.9404 C 195.8164,213.94027 196.89408,213.49171 197.78674,212.59827 C 198.67939,211.70287 199.12466,210.62282 199.12466,209.35746 z M 196.25091,212.65339 L 194.53385,209.75051 L 193.55892,209.75051 L 193.55892,212.65326 L 192.60157,212.65326 L 192.60157,205.92046 L 194.32952,205.92046 C 195.95078,205.92046 196.76101,206.54211 196.76101,207.78384 C 196.76101,208.64775 196.32479,209.25878 195.45262,209.61481 L 197.29894,212.65326 L 196.25091,212.65339 z M 193.55892,206.73581 L 193.55892,208.98673 C 193.63949,208.99775 193.8496,209.00195 194.18844,209.00195 C 194.81351,209.00195 195.23437,208.92229 195.4496,208.76219 C 195.66535,208.60143 195.77322,208.29591 195.77322,207.84408 C 195.77335,207.09959 195.28805,206.72741 194.31863,206.72741 L 193.93897,206.72741 L 193.55892,206.73581 L 193.55892,206.73581 z "
         style="fill:#777777"
         id="path28" />
    </g>
  </g>
</svg>
