<svg xmlns="http://www.w3.org/2000/svg" width="482" height="100" fill="none"><mask id="a" width="481" height="100" x="0" y="0" maskUnits="userSpaceOnUse" style="mask-type:luminance"><path fill="#fff" d="M480.699.355h-480v98.8h480z"/></mask><g mask="url(#a)"><path fill="#FFD270" d="M417.791 20.995c33.468 0 60.6-27.132 60.6-60.6s-27.132-60.6-60.6-60.6-60.6 27.131-60.6 60.6 27.131 60.6 60.6 60.6"/><mask id="b" width="122" height="122" x="415" y="-105" maskUnits="userSpaceOnUse" style="mask-type:alpha"><path fill="#FFD270" d="M476.194 16.927c33.468 0 60.6-27.131 60.6-60.6s-27.132-60.599-60.6-60.599-60.6 27.13-60.6 60.599 27.131 60.6 60.6 60.6"/></mask><g fill="#FFD270" mask="url(#b)"><path d="M424.892 17.39c.2.5.8.7 1.3.5s.7-.8.5-1.3c-.1-.1-.1-.2-.2-.3-.4-.4-1.1-.4-1.5 0-.3.2-.4.7-.1 1.1M417.791 5.79c.1-.1.2-.2.1-.3s-.2-.1-.3-.1c-.1.1-.3.2-.2.4s.3 0 .4 0M420.192 7.99c-.3.3-.5.8-.4 1.2 0 .2.2.3.3.4.5.3 1.1.2 1.4-.3v-.1l.2-.3c.2.1.4.3.5.4.2.2.6.2.8 0l.1-.1c.2-.3.3-.7.1-1s-.5-.4-.8-.4c-.2.1-.5.1-.7.2-.1-.1-.2-.1-.3-.2-.3-.1-.8-.1-1.2.2M420.091 12.49c.2.4.9.6 1.2.5.4-.3.5-.8.3-1.3-.3-.4-.9-.5-1.4-.2-.3.2-.3.7-.1 1M424.892 13.79c.3-.3.4-.8.2-1.2s-.6-.4-1-.1c-.3.2-.5.6-.4 1 .3.4.8.5 1.2.3M420.19 14.99c-.2-.1-.4 0-.6.2-.3.3-.1.6.1.9.4 0 .8 0 .9-.4v-.1c.3.1.7 0 1-.2.2-.2.3-.6.1-.8-.2-.4-.7-.5-1.1-.3-.2.1-.4.4-.4.7M428.092 12.29c.3-.2.5-.6.3-1-.2-.3-.7-.5-1.1-.4-.3.2-.3.7-.1 1.2.3.3.7.4.9.2M417.992 12.191c0 .3.1.7.5.7.3.1.5-.1.6-.4 0-.2-.1-.4-.2-.6-.4-.2-.7 0-.9.3M429.391 15.49c-.4.1-.4.5-.3.9.3.1.7.3.9-.1.2-.2.1-.5-.1-.7-.1-.1-.3-.1-.5-.1M418.491 8.09c0-.3-.1-.4-.7-.5-.2.2-.2.5 0 .7.1.1.1.1.2.1.2.1.5-.1.5-.3M422.291 5.89c0-.3-.2-.5-.4-.5-.1 0-.2 0-.3.1-.2.2-.2.5 0 .7.1.1.1.1.2.1.2 0 .4-.2.5-.4M414.591 12.99c-.1.2-.2.5-.2.8q.15.6.6.9c.3.2.4.7.8.8.7.2 1.5-.1 1.9-.8.3-.4.3-.9.1-1.3s-.8-.3-1.2-.7c-.8-.9-1.6-.4-2 .3M414.392 17.09c-.1.6.2 1.1.7 1.3.5.1.9-.1 1.2-.5.2-.4-.2-.9-.7-1.2-.4-.2-1 0-1.2.4M414.891 9.29c.3 0 .8 0 .8-.5s-.3-.5-.5-.5-.4-.2-.2-.2q.3 0 0-.6c-.1-.3-.4-.5-.7-.4h-.1c-.4.2-.7.6-.5 1.1.1.5.4.5.5.8s.4.3.7.3M427.591 15.59c.4-.2.5-.6.3-1.1-.2-.3-.5-.5-.9-.4-.3.1-.7.9-.6 1.2.3.4.8.5 1.2.3M446.292 15.791c-.1-.4-.6-.6-1-.5-.4.2-.7.6-.5.9.3.5.8.7 1.3.5.2-.1.3-.5.2-.9M434.191 7.69c.3-.1.4-.4.3-.7 0-.2-.3-.4-.5-.4h-.1c-.3.1-.5.4-.4.7.2.3.5.4.7.4M438.691 16.69c0 .2.1.3.3.4.2 0 .5 0 .7-.2.3-.3 0-.6-.2-.9-.4.1-.8.2-.8.7M433.992 11.39c.2-.1.3-.4.1-.7 0-.2-.2-.3-.4-.2h-.1c-.2.1-.4.3-.3.6.2.2.5.3.7.3M444.991 12.591c.2-.1.4-.6.3-.8s-.4-.1-.6-.1-.3.2-.3.4v.1c.1.3.3.5.6.4M434.392 14.99c-.2-.1-.4.1-.4.3s.1.5.3.6c.1.1.3.1.4 0v-.1c0-.2 0-.3-.1-.5 0-.1 0-.3-.2-.3M431.09 18.79c.4.2 1 .1 1.2-.3.3-.3 0-.9-.5-1.3-.4-.3-1-.1-1.3.3-.2.4.1 1 .6 1.3M432.191 15.091c.5-.1.8-.7.6-1.2v-.1c-.2-.6-.8-.8-1.4-.7-.5.3-.8.8-.6 1.4.2.5.8.8 1.3.6 0 .1.1.1.1 0M418.791 18.09c.4-.2.6-.7.4-1.2-.3-.4-.8-.6-1.2-.3-.4.2-.5.6-.4 1 .1.5.7.7 1.2.5q-.15 0 0 0M443.391 18.59c.4-.3.6-.7.5-1.2-.2-.3-.6-.5-1-.4-.3.1-.5.4-.4.8 0 .6.5.9.9.8M439.59 14.29c.2.3.5.4.8.3.4-.1.6-.5.5-.9-.2-.4-.6-.6-1.1-.6-.3.2-.4.8-.2 1.2M453.291 16.79c.3-.1.5-.5.3-.8-.1-.3-.4-.5-.7-.4h-.1c-.3.1-.4.5-.3.8s.4.5.8.4"/><path d="M424.992 16.491c.3-.2.4-.5.3-.8s-.4-.4-.7-.3-.5.4-.4.7v.1c.2.2.5.4.8.3M444.092 14.79c.3-.2.4-.5.3-.8s-.4-.4-.7-.3-.5.4-.4.7v.1c.2.3.5.4.8.3M449.891 12.39c-.1-.3-.5-.4-.8-.3s-.4.5-.3.8.4.4.7.3c.3-.2.5-.5.4-.8M439.49 10.491c.3-.1.4-.5.3-.8s-.5-.4-.7-.3c-.4.1-.5.4-.4.6.1.4.4.5.8.5M447.592 15.59c.1.3.4.5.7.4.2 0 .4-.2.4-.5v-.1c-.1-.3-.4-.5-.6-.4-.4.1-.6.4-.5.6M434.991 14.091c.2-.1.4-.3.3-.6 0-.2-.6-.5-.8-.3-.1.1-.2.4-.2.5 0 .2.3.4.5.4zM432.591 16.09c-.1.1-.2.2-.2.4s.2.3.3.4c.4.1.5-.2.6-.5-.1-.3-.3-.5-.7-.3M436.991 14.29c.3-.1.4-.4.2-.6s-.3-.3-.4-.3-.4.5-.3.8.3.2.5.1M424.291 14.09c.2-.1.5-.5.5-.7s-.6-.2-.8-.1-.3.3-.2.5.3.5.5.3M425.491 9.091c.2-.1.5-.4.5-.6s-.5-.2-.7-.2-.4.3-.3.6c0 .2.2.3.4.3 0 0 .1 0 .1-.1M427.391 17.091c.1 0 .4-.4.3-.6-.2-.1-.4-.2-.6-.2-.1.1-.3.4-.2.6s.3.2.5.2M431.092 5.89c.1-.1.3-.3.3-.4s-.3-.3-.4-.3-.5.3-.4.5.4.3.5.2M447.291 9.69c.2 0 .6-.5.5-.8s-.8-.2-1-.2c-.2.1-.4.4-.3.7s.6.4.8.3M438.092 7.79c.1 0 .3-.3.3-.3s-.3-.1-.5-.1-.2.2-.1.3c0 0 .1.1.3.1M437.791 10.69c.1-.1.2-.2.1-.4 0-.1-.2-.3-.3-.3-.1.1-.2.2-.2.4 0 .1.2.4.4.3M442.892 8.391c.1-.1.2-.3.1-.4s-.2-.2-.3-.2c-.1.1-.2.2-.2.3.1.1.3.3.4.3M421.491 11.49c-.1.1-.2.2-.2.3s.2.3.4.3.2-.3.1-.4-.2-.3-.3-.2M417.791 9.89c0-.1-.2-.3-.3-.2s-.1.3-.1.4c.1.1.2.2.3.1.1.1.1-.1.1-.3M439.391 8.591c.1 0 .1-.1.1-.2l-.2-.1s-.1.1-.1.2.1.1.2.1M422.692 15.89c.1 0 .1-.2.1-.2s-.1-.1-.2-.1-.1.1-.1.2.1.2.2.1M430.891 11.99c.1 0 .3-.1.3-.3s-.3-.1-.5-.1-.2.2-.1.3.2.1.3.1M446.892 13.49c.1-.1.4-.5.3-.7s-.5-.1-.7 0-.3.4-.1.6c.1.2.3.2.4.1.1.1.1 0 .1 0M451.391 8.79c.1-.1.2-.4.2-.5-.1-.1-.3-.2-.5-.1-.1 0-.3.4-.2.5s.4.2.5.1M443.791 16.891c-.1.1-.1.3-.1.4s.3.3.4.2.1-.4 0-.5-.2-.2-.3-.1M439.792 16.39c0-.1-.2-.2-.4-.1s0 .3 0 .4c.1.1.2.1.3.1s.1-.2.1-.4M452.992 14.691c.2-.1.2-.3.2-.4-.1-.2-.4 0-.5 0s-.1.3-.1.3c.1 0 .3.1.4.1"/></g><mask id="c" width="122" height="122" x="357" y="-101" maskUnits="userSpaceOnUse" style="mask-type:alpha"><path fill="#F5B527" d="M417.791 20.995c33.468 0 60.6-27.132 60.6-60.6s-27.132-60.6-60.6-60.6-60.6 27.131-60.6 60.6 27.131 60.6 60.6 60.6"/></mask><g fill="#F5B527" mask="url(#c)"><path d="M371.592.695c-.3-.1-.6-.2-.8.1s-.5.6-.9.7c-.2.1-.4.3-.4.5v.1c.1.3.5.6.8.4s.7-.3 1-.2q.6 0 .9-.6c0-.4-.2-.8-.6-1M373.691 13.195c.4 0 .8-.3.8-.7v-.1c0-.4-.4-.8-.7-.8-.5.1-.9.5-.9 1.1 0 .3.4.6.8.5M373.791 2.795c0-.6-.3-.9-.7-.8s-.7.5-.7.9q.3.6.9.6c.3-.1.5-.4.5-.7M373.191 4.195c-.2.1-.3.4-.3.6 0 .3.3.5.6.5.5-.1.5-.4.7-.8-.4-.4-.7-.5-1-.3M359.891 12.795c.3 0 .6-.3.6-.6s-.3-.6-.6-.6-.5.2-.5.5v.1c-.1.3.1.5.5.6M385.092 4.195c0 .3.3.6.6.5.2 0 .5-.1.5-.4v-.1c0-.3-.2-.6-.5-.6-.3.1-.6.3-.6.6M375.192 5.694c-.2 0-.4 0-.5.2s-.1.5 0 .7c.2.4.5.2.9.1 0-.5 0-.8-.4-1M381.592 2.895c0 .2.3.4.6.3s.4-.2.3-.4-.1-.5-.5-.5c-.1.1-.3.3-.4.6M363.991 14.695c.1.2.4.3.6.3.3-.1.2-.9 0-.9s-.8.3-.6.6M377.191 12.995c0 .2.5.6.7.5s.2-.3.2-.5-.1-.4-.3-.4h-.1c-.2 0-.5 0-.5.4M365.691 12.695c0 .5.4.9.8.9.5-.1.8-.5.8-1s-.4-.8-.9-.8c-.4 0-.7.4-.7.8zM361.391.695c-.1-.3-.7-.2-.9-.1-.1.1-.2.3-.2.4 0 .2.2.4.5.4.3.1.7-.4.6-.7M369.892 14.795c.2 0 .4-.4.4-.5s-.2-.5-.5-.4c-.2.1-.3.2-.3.4s.2.5.4.5M378.092 2.095c.1-.2 0-.4-.2-.5s-.5 0-.7.1c-.1.1-.1.3 0 .4s.3.1.5.1c.1.1.3 0 .4-.1M362.791 8.395c-.3.3-.4.7-.2 1 .1.1.1.3.2.4-.3.3-.4.6-.5 1h-.3c-.5.2-.7.7-.5 1.2.3.5.9.6 1.4.3.2-.2.4-.4.5-.7h.1c.6 0 .8-.4.9-.9.3 0 .7.2.9-.2.1-.2 0-.5-.2-.7-.4-.3-.6 0-.9.2l-.5-.3.4-.7c-.1-.2-.2-.4-.3-.5-.2-.1-.6-.2-1-.1M366.891 14.895c-.7-.1-1.1.3-.9 1 .1.4.3.7.5 1.1.3.4.8.5 1.3.3.2-.1.6-.5.3-1-.8-.3-.4-.8-.9-1.2-.1-.2-.2-.2-.3-.2M378.592-.005c0 .5.4 1 .9 1h.1c.6-.1 1.1-.5 1.1-1.1-.1-.6-.6-1-1.1-1-.6-.1-1 .4-1 1.1M367.891 2.995c0-.7-.6-1.2-1.2-1.1-.6 0-1 .5-1 1.2s.4 1.4 1.1 1.3c.6-.1 1.1-.6 1.1-1.4M369.691 7.295c-.5.1-.8.5-.9 1 .1.4.4.8.9.8q.75-.15.9-.9c-.1-.4-.5-.9-.9-.9M367.992 6.495c.6 0 1-.5 1-1.1s-.5-1-1.1-1-.9.4-.9 1.1.4 1 1 1M373.992.995c.2.4.3.7.5 1.1.1.2.4.3.7.2s.4-.5.2-.7c-.1-.2-.1-.3-.1-.5 0-.4-.3-.8-.7-.8-.4-.1-.7.1-.6.7M363.592 19.795c0 .5.4.8.7.8.5-.1.9-.5.9-1.1 0-.3-.5-.7-.9-.6-.4 0-.7.4-.7.8zM361.891 3.795c-.1-.5-.5-1-1.1-1-.3.1-.5.4-.5.7 0 .4.3.8.7.9h.1c.4 0 .8-.3.8-.6M371.992 9.595c.1.5.5.8 1 .8.4-.1.7-.5.7-.9 0-.3-.3-.6-.6-.6-.7 0-1.1.3-1.1.7M370.092 12.994c0 .4.2.7.6.7s.9-.5.9-.8-.4-.7-.9-.7-.6.3-.6.8M377.191 7.295c-.3.1-.6.4-.5.7.1.4.401.8.701.7s.899-.5.899-.8-.6-.7-1.1-.6M362.891 1.795c0-.3-.3-.5-.7-.5s-.8.3-.8.7.4.8.8.8c.3-.1.7-.7.7-1M366.191 8.895c.1.4.4.7.8.7.3 0 .5-.2.5-.5 0-.4-.3-.7-.7-.8-.3 0-.6.3-.6.6M370.891 4.595c0-.5-.2-.8-.5-.8-.4.1-.7.4-.7.8 0 .3.5.6.8.6s.5-.2.4-.6M360.391 15.495c-.3.1-.5.4-.5.7.1.3.4.5.7.5s.5-.3.5-.6c0-.4-.3-.6-.7-.6q.15 0 0 0M370.691 19.595c0 .3.3.6.7.6.3 0 .6-.3.6-.6v-.1c0-.3-.3-.5-.6-.5-.4 0-.7.2-.7.6M372.292 6.894c.3-.1.5-.1.5-.4 0-.5-.3-.8-.6-.8s-.6.3-.6.6v.1c.1.3.4.5.7.5M375.391 11.495c.1.3.3.6.7.6.3 0 .5-.3.5-.6s-.2-.6-.5-.6h-.1c-.4 0-.6.3-.6.6M375.991 17.695c.3 0 .5-.3.5-.6-.1-.3-.3-.5-.6-.5s-.5.2-.5.5.3.6.6.6M358.892 6.094c-.2-.2-.5-.2-.6 0-.2.2-.2.4-.2.7 0 .2.2.3.4.3-.2.4-.2.9-.1 1.3.1.3.2.5.4.7.3.2.7.3 1 .2.4-.1.8.2 1.1-.1.6-.4.9-1.2.7-1.9-.1-.5-.4-.8-.9-1s-.8.4-1.3.4h-.3c0-.3 0-.5-.2-.6M380.891 8.295c.1.3.3.5.6.5s.5-.3.5-.6v-.1c0-.4-.2-.6-.5-.6-.3.2-.6.4-.6.8M361.391 17.995c0 .3.3.5.6.5s.6-.2.6-.5v-.1c0-.3-.2-.6-.5-.6-.5.1-.7.4-.7.7M373.491 14.495c-.3 0-.6.2-.6.5 0 .2.1.5.4.5h.1c.3 0 .6-.2.6-.5s-.2-.4-.5-.5M378.691 2.995c0 .3.2.5.5.5.2 0 .6-.5.5-.7s-.3-.3-.5-.3-.5.1-.5.4zM362.891 12.995c-.1-.1-.4 0-.4.1-.1.2-.2.4-.1.6.1.3.4.2.7.1.1-.4.1-.7-.2-.8M377.591.095c0-.2-.2-.3-.3-.3-.2 0-.4.1-.5.2-.2.3.1.5.3.7.3 0 .5-.2.5-.6M355.59 17.795c.1.3.1.6.2 1-.1.3.1.5.3.6h.1c.3 0 .6-.2.6-.6 0-.2.1-.4.2-.6.3-.3.3-.7.1-1-.3-.3-.8-.4-1.2-.2-.1.2-.4.3-.3.8M377.991 4.795c0 .3.2.5.5.4s.4-.1.4-.3-.4-.6-.6-.5-.4.2-.3.4M358.692 4.595c.5 0 .9-.4.9-.9v-.1c0-.3-.1-.7-.2-1 .5-.2.7-.6.7-1.1 0-.4-.3-.7-.7-.7-.4-.1-.9.1-1 .6-.1.3-.1.7.1.9-.5.2-.8.7-.9 1.2.1.7.5 1.1 1.1 1.1M357.291 2.495c0-.3-.2-.5-.5-.5-.3.1-.5.4-.5.7s.3.5.6.5.5-.3.5-.6c-.1 0-.1 0-.1-.1M359.891 18.595c0-.3-.2-.6-.5-.6s-.6.2-.6.5.4.3.6.4.4 0 .5-.3c-.1.1-.1 0 0 0M387.691 1.695c0 .2.2.4.3.4s.4-.2.4-.3-.2-.5-.3-.5-.4.3-.4.4M379.191 16.095c0 .2.3.8.6.8s.5-.7.4-.9c-.1-.3-.3-.5-.5-.5-.2-.1-.4.3-.5.6M383.891 7.795c0 .1.1.4.2.4s.2-.3.2-.4-.2-.2-.2-.2c-.1 0-.2.1-.2.2M381.192 6.595c0 .1.2.2.3.2s.4-.1.4-.2q0-.15-.3-.3c-.1.1-.5.2-.4.3M381.891 12.295c.1.2.2.3.4.3.1 0 .2-.2.2-.3s-.1-.3-.2-.3-.4.1-.4.3M382.691 8.795c0 .1.1.1.2.1s.1-.1.1-.2-.1-.2-.1-.1c-.1 0-.2.1-.2.2M367.191 19.495l-.1-.1c-.1 0-.2.1-.2.2s.1.1.2.1c0-.1.1-.1.1-.2M356.391 14.795c.3.2.7.3 1 .2.3-.2.4-.5.4-.8.5-.1.9-.5.9-1 0-.4-.2-.8-.6-1 .2-.1.4-.3.4-.5.3-.5 0-1.2-.5-1.5-.4-.1-.8 0-1.1.3 0-.3-.3-.4-.5-.4-.3 0-.5.3-.5.6s.3.6.6.6h.1c0 .4.2.8.6.9h.1c-.3.2-.5.6-.5 1 0 .2 0 .3.1.5-.1 0-.3 0-.4.1-.4.2-.4.7-.1 1M365.991 5.295c-.3-.5-.9-.3-1-.4s.3-.9-.1-1.5c-.6-.7-1.6-.7-2.3-.1-.2.2-.3.4-.4.6-.1.3-.1.6 0 .8-.2.1-.3.3-.3.5 0 .3.3.5.6.6.2 0 .3-.1.4-.3.4.1.9.1 1 .2s-.4 1 .1 1.5c.4.5 1.1.6 1.6.2.5-.6.7-1.4.4-2.1M363.591.595c.7.2 1-.2 1.4 0s.7 0 1-.5c.1-.1.1-.1.1-.2.1.2.2.3.4.3.2-.1.3-.2.3-.4s-.1-.4-.3-.4h-.30000000000000004c.1-.3 0-.6-.3-.8-.6-.4-1 0-1.1.2s-.5.3-.5.1-.2-.5-.8-.6c-.5-.2-1 .1-1.2.6v.1c.2.7.6 1.4 1.3 1.6M354.791 9.495c.4-.2.4-.5.2-.8.3-.2.5-.5.7-.8.1-.3.1-.7-.1-1.1.2.1.5.1.7.1.8-.1 1-.4 1-1s-.5-1-1.1-1h-.2c.2-.2.4-.5.4-.8s-.4-.6-.8-.6-.8.3-.8.8v.1c0 .4.3.8.6.8h.1c-.2.2-.4.6-.4.9 0 .1.1.2.1.4-.5-.1-1 0-1.4.3-.3.4-.2 1 .1 1.3.2.3.5.5.3.9s.3.5.6.5M369.891 11.695c.3-.1.5-.3.5-.6-.1-.3-.3-.5-.6-.5-.3.1-.5.4-.5.7.1.2.3.4.6.4M357.491-.005c.1-.1.9.4 1.2-.3s.2-1.2-.5-1.5c-.2-.1-.4-.3-.6-.5 0-.2-.2-.4-.4-.5-.3-.4-.8-.5-1.3-.3s-.7.7-.5 1.2c0 .1 0 .1.1.2.2.3.7.3.8.6s-.3-.1-.3.7 1.1 1.2 1.5.4M379.691 4.295c-.1.6.2 1.1.7 1.3.6.1 1.2-.2 1.4-.8.1-.6-.3-1.2-.9-1.3-.5 0-1 .3-1.2.8M384.792 17.694c-.8 0-.9.1-.5.8q-.3.45-.3.9c.1.3.2.6.4.8.2.3.6.2.9-.2.2-.2.2-.5.2-.8-.1-.3-.4-.4-.6-.7 0-.2.1-.5-.1-.8M395.592 8.395c-.4.2-.6.6-.6 1 .1.2.2.4.4.5.5.3 1.2 0 1.5-.5-.1-.2-.2-.5-.3-.7-.3-.3-.7-.4-1-.3M394.891 5.995c-.5-.1-.7 0-.9.5s0 .8.4.9c.4 0 .9-.2 1.1-.6.1-.3-.2-.7-.6-.8M399.492 1.195c.3.1.6 0 .7-.3 0-.4-.2-.9-.5-1.1-.4-.1-.7.1-.8.6s.1.7.6.8M390.491 21.394c.3.1.6-.1.7-.4 0-.3-.2-.6-.5-.8-.3 0-.6.3-.8.6 0 .2.3.5.6.6"/><path d="M374.091 3.895c-.3 0-.6.2-.7.6 0 .3.1.5.4.6.3 0 .6-.2.7-.5.1-.4-.1-.7-.4-.7M365.59 9.895c-.1.3.1.6.4.7s.6-.1.7-.4-.1-.6-.3-.6c-.3-.2-.6 0-.8.3M362.591 13.194c-.3 0-.4.3-.4.5 0 .3.8.5.9.3s-.2-.8-.5-.8M363.991 15.495c-.4-.1-.9.1-1.1.5 0 .4.3.8.7 1s.9.1 1.1-.3.1-.9-.3-1.1c-.2-.1-.3-.1-.4-.1M376.692 14.895c.3 0 .4-.7.4-.8 0-.2-.2-.3-.4-.3s-.5.1-.6.3.3.8.6.8M360.692 18.795c-.1.2.2.5.4.6s.6-.1.6-.3-.2-.3-.3-.4c-.2-.1-.6 0-.7.1M403.992 2.295c0-.1 0-.3-.2-.3-.1 0-.2.1-.3.2 0 .1 0 .3.2.4s.3-.3.3-.3M385.892 8.695c-.1-.7-.6-1.3-1.2-1.5-.4-.1-.8 0-1.2.2-.5.3-.7.9-.6 1.4.2.5.8.9.8 1.1s-.9.6-.9 1.2c0 .4.2.7.5.9-.1-.1-.2-.1-.3-.1-.4-.1-.7.1-.8.4v.1c-.2.5.1 1 .6 1.1.5.2 1-.1 1.1-.6v-.1c.1-.4-.1-.7-.5-.9.2.1.4.1.5.2.8-.1 1.4-.6 1.6-1.3.1-.5-.6-.8-.6-1s1-.4 1-1.1M384.792.695c-.2-.1-.4-.4-.7-.3s-.4 1.1-.3 1.2.4.4.2.7-.7.3-.7.6-.3 1.1.1 1.5.6-.1.9-.2c.4-.1.6-.4.6-.8s-.3-.8-.2-1 .2-.4.5-.3.8 0 1-.7-.3-1.3-.8-1.2-.4.5-.6.5M371.592.695h-.5c-.3-.2-.8-.1-1 .2-.1.1-.1.2-.1.3-.1-.1-.1-.1-.2-.1-.2 0-.5.2-.6.6s.1.7.4.8.6-.2.6-.5c.2.1.3.1.5.2.3 0 .5.1.8.2.3.2.8.3 1.1.1.4-.1.6-.5.6-.9v-.1c.1.2.3.4.6.4.4.1.7-.2.8-.7.1-.4-.1-.8-.4-.9-.5-.1-.9.2-1.1.6v.2c-.1-.1-.2-.2-.4-.3-.3-.2-.7-.2-1.1-.1M393.992 1.995c.2.1.5 0 .6-.2v-.1c.2-.4.2-.8 0-.9-.3-.1-.7.1-.9.3-.2.3 0 .8.3.9M405.092 9.595c.1 0 .3 0 .4-.1 0-.1 0-.2-.1-.3-.1 0-.4-.1-.4.1s.1.3.1.3M386.092 12.395c-.3-.1-.6-.1-.8.2-.2.2-.1.4-.1.7.1.4.4.6.9.8l.6-.6c0 .1.1.2.1.3.1.5 0 .7-.5.5-.4-.2-.9 0-1.2.4q-.45.6 0 1.2c.2.4.7.5 1.1.3h.1c.3-.2.5-.4.7-.7.2-.2.3-.4.6-.3s.5-.2.5-.6c.5.4 1.2.4 1.7-.1l.1-.1c.4-.5.3-.8-.3-1.3v-1c-.1-.3-.4-.6-.7-.5-.4.1-.8.3-1.2.4-.5-.3-.5-.3-.9.2 0 .2.4.5 0 .7-.3-.2-.5-.4-.7-.5M392.09 17.795c.4-.2.6-.6.4-1 0-.1-.1-.2-.2-.2-.1-.1-.3-.2-.5-.5.2-.1.4-.3.5-.3.4 0 .8-.3.8-.7v-.1c0-.1.1-.2.2-.3.2-.4.1-.7-.1-.8s-.6 0-.8.5v.2c-.1.2-.2.3-.5.1s-.1-.2-.2-.2c-.3-.2-.8-.2-1.1 0-.4.2-.5.6-.4 1 .1.5.5.8 1 1-.1.2-.1.4-.1.7 0 .6.4.9 1 .6M389.491 18.395c-.4 0-.9-.2-1.2.3-.2.2-.5.4-.8.4-.4.1-.7.4-.8.8.2.6.6 1 1.2 1.3.4-.2 1-.4 1.6-.6.1 0 .1-.2.1-.3 0-.3 0-.6.2-.8.3-.5.1-1.1-.3-1.1M368.892 13.994c-.2-.4-.6-.5-.9-.5-.1 0-.3 0-.4.1-.2-.3-.4-.6-.8-.7v-.3c-.1-.5-.5-.9-1-.9-.5.2-.9.7-.7 1.3.1.3.3.5.5.7v.2c-.2.6.1.9.6 1.2-.1.3-.4.6 0 .9.2.2.5.2.7 0 .4-.3.2-.6 0-.9l.5-.4.5.6c.2 0 .4-.1.6-.2.2-.4.4-.7.4-1.1M379.491 8.895c.1.2.4.3.6.2 0 0 .1 0 .1-.1.2-.2.5-.3.8-.3.6-.1 1-.6 1-1.2v-.5c.2-.2.2-.6 0-.8s-.5-.1-.7 0-.5.3-.8.4-.5.3-.5.7c0 .1-.1.2-.2.3-.7.5-.7.7-.3 1.3M405.091 12.895c-.5 0-.9.2-1.2.5-.1.1-.1.3-.1.5.1.5.5.9 1.1.9h.5v.7c.1.4.2.6.7.5.4 0 .7-.2.8-.5s0-.7-.3-.9c-.2-.2-.4-.3-.6-.4v-.4c-.1-.4-.5-.8-.9-.9M361.492 15.995c.2-.3.2-.8-.2-1-.1-.1-.3-.1-.5-.1-.4 0-.8.1-1.2.2-.4.2-.7.7-.6 1.2 0 .3.3.8.8.6.6-.7.9-.2 1.5-.5.1-.2.2-.3.2-.4M380.992 20.195c-.1 0-.2-.1-.3-.1-.3-.2-.7-.1-.8.2q-.3.45 0 .9c.4.8.7 1 1.5.6.5-.3 1.1-.5 1.6-.8.6 1.1.8 1.1 1.5.4 0-.5-.4-.9-.9-.9h-.1c-.7-1.3-1.6-1.4-2.5-.3M399.291 20.995c.1-.5-.2-1-.7-1.1h-.1c-.5-.2-1.1 0-1.3.5 0 .1-.1.2-.1.2-.1.6.2 1.2.8 1.3.7.1 1.2-.3 1.4-.9M372.591 20.395c.6.2 1.3-.2 1.4-.8.2-.6-.1-1.1-.8-1.3s-1.4 0-1.6.7c-.1.6.3 1.3 1 1.4M367.991 20.895c0-.5-.3-1-.7-1.2-.4-.1-.9.2-1 .6-.1.5.2.9.6 1.1s.9-.1 1.1-.5M388.392 6.495c-.2.6.1 1.2.7 1.4h.1c.4.1.8-.1 1-.5h.1c.5 0 1-.3 1.1-.8s-.2-1.1-.7-1.3c-.4-.1-.9 0-1.2.4-.4 0-.9.3-1.1.8M396.591 17.494c-.5-.2-1.1.1-1.3.6 0 .6.3 1.2.8 1.5.5.1 1.1-.3 1.2-.8.2-.5-.1-1.1-.7-1.3M379.691 14.294c-.1-.1-.2-.2-.4-.3-.3-.3-.7-.3-1-.1-.4.2-.7.6-.6 1.1 0 .5.4.8.9.8h.2c.6-.2 1.1-.8.9-1.5M369.291 19.495c-.1.6.2 1.1.7 1.3.6.1 1.1-.2 1.3-.7.2-.6-.1-1-.8-1.2-.5-.2-1 0-1.2.5zM386.591 9.795c-.1.5.1 1 .6 1.2.6.1 1.2-.3 1.4-.9 0-.2 0-.4-.1-.6.2-.1.3-.3.4-.5.1-.3-.1-.6-.4-.7-.3 0-.6.2-.7.5v.1c-.5.1-1 .4-1.2.9M390.691 9.095c-.1.5.4 1 1 1.2.4.1.9-.1 1-.6v-.1c.1-.8-.1-1-.9-1.2-.5-.1-1 .2-1.1.7M401.491 15.695c-.1.4 0 .9.4 1.2.5.2 1 0 1.2-.5s0-1-.5-1.2c-.1 0-.1 0-.2-.1-.4 0-.8.2-.9.6M387.191 3.895c.3.1.7-.3.8-.7s-.1-.8-.7-1-.9.1-1 .4c-.1.6.3 1.1.9 1.3M357.791 11.395c-.5-.1-.9.1-1 .5-.1.5.3 1 .8 1.2.3.1.8-.3.8-.7.1-.4-.1-.8-.6-1q.15 0 0 0M380.891 15.595c.2.1.3 0 .5-.1.4-.3.5-.8.3-1.2-.1-.3-.3-.5-.6-.4-.4 0-.8.3-.9.8v.2zM373.591 14.395c.5.1 1-.2 1.2-.7 0-.3-.2-.6-.5-.7-.4-.2-.9 0-1 .4v.1c-.2.3 0 .8.3.9M367.791 4.495c0 .5.3 1 .8 1.1.4.1.7-.1.8-.5v-.1c.2-.4 0-.8-.4-.9-.1 0-.2-.1-.3-.1-.4 0-.8.2-.9.5M396.791 2.695c0 .4.2.7.5.8.4.1 1.1-.3 1.2-.6s-.4-.8-.8-.9-.8.2-.9.7M403.592 20.195c.4.1.8-.2 1-.6q.15-.6-.6-.9c-.4-.1-.8 0-1 .3q0 .9.6 1.2M399.692 17.395c-.1-.2-.3-.3-.5-.3-.4 0-.5.3-.6.7.2.3.5.6.9.4 0 0 .1 0 .1-.1.2.3.4.6.8.7.3.1.6-.1.7-.4.1-.5-.1-1-.5-1q-.6-.3-.9 0M392.291 18.995c-.4-.1-.7.3-.9.8 0 .3.2.6.5.7.4.1.9-.1 1-.5s-.1-.9-.5-1zM362.392 19.694c-.4-.1-.7 0-.8.4 0 .4.2.9.5 1.1.4.1.8-.1.9-.7s0-.7-.6-.8M386.191 17.495c-.3-.1-.7.1-.8.4-.1.4.1.8.4 1 .4.1.9-.1 1.1-.5.1-.3-.2-.7-.7-.9M375.292 15.995c.3.1.6-.1.7-.5s-.1-.9-.4-1c-.4-.1-.9.1-1 .6-.1.2.3.8.7.9M367.392-.906c-.3-.1-.7.2-.8.7-.1.3 0 .6.3.7h.1c.4 0 .8-.1 1.1-.5 0-.4-.2-.8-.7-.9M395.891 3.395c-.6-.1-1 .1-1.1.4 0 .4.3.8.7.9.4-.1.7-.3.8-.7.1-.2-.1-.5-.4-.6M374.692 4.295c-.2.6 0 1 .4 1.1.4 0 .8-.2 1-.5.1-.3-.3-.8-.7-1-.2-.1-.5 0-.6.2zM387.891 16.395c-.4.3-.6.7-.5 1.2.1.3.4.4.7.4s.5-.2.6-.5c.1-.5-.6-1.1-.8-1.1M406.791 21.695c.4.1.8 0 1-.4.1-.4-.1-.8-.4-1-.3-.1-.8.2-.9.7-.1.3.1.6.3.7M367.491 16.995c-.4-.1-.8.2-1 .6-.1.3.1.6.4.6.4.1.8-.1.9-.4s0-.6-.3-.8M394.792 21.095c-.1.3.1.6.3.7h.1c.3.1.6-.1.7-.4 0-.3-.1-.6-.4-.8-.2 0-.5.2-.7.5M362.892 9.595c0-.3-.2-.6-.5-.7-.3 0-.6.2-.6.5-.1.3.1.6.4.6.2.2.6 0 .7-.4q0 .15 0 0M396.991-.505c-.2-.1-.4-.1-.5 0-.2.1-.3.3-.3.5 0 .1.2.3.3.4.3.1.6.2.8.3s.4-.1.4-.3c0-.1-.1-.2-.1-.2-.3-.3-.5-.5-.6-.7M391.791 4.094c.1.3.3.6.6.7.2 0 .6-.3.6-.6 0-.2-.1-.4-.4-.5h-.1c-.3 0-.6.1-.7.4M384.891 5.694c0 .2 0 .5.2.7q.45.3.9 0l.1-.1c0 .2 0 .4-.1.6 0 .2.1.4.2.5.2.2.4.4.5.6.2.3.6.4.9.2.4-.3.5-.6.2-1l-.6-.6.2-.4c.1-.2.1-.5-.1-.7-.3-.2-.6-.2-.9-.1-.2 0-.3.2-.4.3-.1-.3-.3-.4-.6-.5-.2 0-.4.1-.5.5q0-.15 0 0M372.292 10.895c.2-.2.4-.4.2-.6-.1-.2-.3-.3-.5-.4-.2 0-.4.1-.4.2-.3-.3-.8-.5-1.2-.5-.3 0-.5.1-.8.2-.3.2-.5.6-.5.9 0 .4-.4.7-.2 1.1.2.7.9 1.3 1.6 1.3q.75 0 1.2-.6c.3-.4-.1-.9 0-1.4v-.3c.2.3.4.3.6.1M360.191 9.795c-.3-.1-.6.1-.7.4s0 .6.3.7.6-.1.7-.4c.2-.3 0-.6-.3-.7M391.492 12.895c.2.1.3.1.5.1.3-.1.4-.3.5-.6s.2-.4.1-.7c-.3-.3-.7-.4-1.1-.1-.2.1-.3.3-.3.5-.3-.1-.6.1-.7.4 0 .3.1.6.4.6.3.1.5 0 .6-.2M400.392 13.895c-.2.2-.4.5-.2.9.1.2.5.3.7.2s.3-.3.3-.5c-.1-.5-.4-.6-.8-.6M391.192 3.095c0-.3-.1-.7-.5-.7s-.5.4-.4.7c.2.3.6.3.9.1-.1 0 0 0 0-.1M405.592 2.094c.3-.1.1-.9-.2-1s-.8.1-.8.4.7.8 1 .6M397.092 10.995c.1.1.2.3.4.4s.4 0 .5-.3.1-.5-.2-.6c-.3 0-.6.2-.7.5M364.491 12.695c.1-.1.1-.3.1-.4-.1-.2-.3-.3-.5-.3-.3 0-.3.4-.3.6.2.3.5.4.7.1M362.092 4.395c-.3 0-.7-.1-1-.1-.2-.1-.5-.1-.7.1 0 0 0 .1-.1.1-.1.3 0 .7.4.8.2.1.4.2.5.4.2.3.5.5.9.4.3-.1.6-.7.5-1.1s-.1-.6-.5-.6M365.692 4.994c-.1.3 0 .6.3.7h.1c.3.1.7-.1.8-.4 0-.3-.2-.6-.5-.7s-.6.1-.7.4M365.391 1.895c-.3-.1-.5.1-.5.3s.1.3.2.5c.3.1.6-.1.7-.4 0-.3-.2-.3-.4-.4M362.692 1.695c.3.1.6-.1.7-.4 0-.3-.1-.3-.3-.4s-.5.1-.5.3 0 .3.1.5M376.791 4.995v.4c-.2-.1-.3-.1-.5 0-.3.1-.4.4-.4.7.1.4.5.4.9.5.2-.2.3-.4.3-.7.1.1.2.2.4.2.6.1 1.1-.2 1.3-.8.1-.5-.1-1-.6-1.1-.6-.1-1.2.2-1.4.8M381.891 1.195c.1-.4-.1-.8-.5-1-.5-.1-1 .2-1.1.6-.1.3.3.7.7.8s.8-.1.9-.4M373.691 11.095c-.1.4.1.9.5 1.1h.101c.3.1.7.1 1 .1 0 .5.399.9.899 1 .4.1.801-.1.901-.5.2-.4.1-.9-.2-1.1s-.6-.2-.9-.1c-.1-.5-.4-1-.9-1.2-.6 0-1.101.3-1.401.7M376.092 10.395c.3.1.6-.1.7-.3 0-.3-.2-.6-.5-.7s-.6.1-.6.4c-.1.3.1.6.4.6M389.091 1.495c.3 0 .6-.2.7-.5 0-.2-.1-.5-.3-.5h-.1c-.3-.1-.6.1-.7.4 0 .3.2.5.4.6M359.992 8.194c.3.1.7 0 .7-.3s0-.7-.3-.7-.5.3-.5.5c-.1.1-.1.3.1.5M382.292 2.195c-.2-.2-.5 0-.6.3-.1.2 0 .4.2.5h.1c.2 0 .5 0 .6-.2s-.2-.4-.3-.6M377.692 8.595c-.3 0-.5.6-.2.8s.7-.1.8-.5c0-.2-.3-.4-.6-.3M403.891 11.595c.2-.2.2-.4-.1-.8-.3 0-.5.2-.6.4v.3c.2.2.4.3.7.1M407.991 13.095c.2-.2.3-.5.1-.7-.1-.1-.1-.1-.2-.1-.3 0-.5.2-.6.4v.3c.2.1.5.2.7.1M357.091 14.895c.1 0 .2 0 .2-.1s0-.2-.1-.2-.2.1-.2.1c-.1.1 0 .2.1.2M397.991 8.195c.1-.1 0-.2-.1-.3h-.1c-.1-.1-.2 0-.3.1-.1.2 0 .3.1.3s.3 0 .4-.1M397.591 11.895c-.3 0-.5.2-.7.4-.2.3-.3.6-.3 1s-.2.7-.1 1.1c.3.7 1.1 1.1 1.9.9.5-.1.9-.3 1.1-.8.2-.4-.3-.8-.2-1.3 0-1.3-.9-1.4-1.7-1.3M394.291 14.295c-.5.3-.7.9-.5 1.4.2.4.7.7 1.1.6s.6-.7.5-1.3c-.1-.5-.6-.8-1.1-.7M393.991 10.995c-.3.5-.2 1.1.3 1.4h.1c.5.3 1.2.2 1.5-.3.2-.6-.1-1.2-.6-1.5-.4-.3-1-.1-1.3.4M379.592 18.095c.4.5 1 .7 1.6.6.4-.2.3-.7.4-.8s.7.3 1.2.1c.5-.3.7-.9.5-1.5-.1-.3-.3-.6-.6-.8-.4-.2-.9-.1-1.2.2s-.3 1-.4 1-.7-.4-1.2-.1c-.3.3-.5.9-.3 1.3M364.691 5.995c-.3.2-.5.5-.5.9.1.3.4.6.7.6-.1.5.2 1 .7 1.2.4.1.8 0 1.1-.3 0 .2.2.4.4.6.4.4 1.1.4 1.5-.1.2-.4.2-.8 0-1.1.3 0 .5-.1.6-.4 0-.3-.1-.6-.4-.7s-.6.1-.7.4v.1c-.4-.1-.8 0-1.1.3-.1-.4-.4-.7-.8-.7h-.5c.1-.1.1-.3 0-.4-.2-.4-.6-.5-1-.4M370.891 17.995c.5-.1.6-.8.7-.9s.8.5 1.5.4c.7-.3 1.1-1 1-1.7-.1-.4-.3-.8-.6-1.1-.2-.2-.5-.3-.8-.3 0-.2-.2-.4-.4-.4-.3 0-.6.1-.7.4 0 .2 0 .4.2.5-.2.4-.4.8-.5.9s-.8-.6-1.5-.4c-.6.2-.9.9-.7 1.5.4.6 1.1 1.1 1.8 1.1M376.192 17.094c-.4.6-.1 1-.4 1.4s-.2.7.2 1.1l.1.2c-.2 0-.4.2-.4.3 0 .2.1.4.3.4.2.1.4 0 .5-.1 0-.1.1-.1 0-.2v-.1c.2.2.6.2.8 0 .5-.5.3-.9.1-1.1s-.2-.6.1-.5.5 0 .8-.6c.3-.4.2-1-.2-1.3 0 0-.1 0-.1-.1-.6-.3-1.4-.1-1.8.6M400.291 4.595c-.2-.1-.3 0-.5.1-.1.1-.3.1-.5.3-.2.3-.2.7-.1 1s.4.5.8.5c.3 0 .5-.1.7-.4s.2-.6.1-.8c-.2-.3-.2-.7-.5-.7M396.692 5.595c-.1 0-.2.2-.2.3.1.2.2.3.4.3.1 0 .2-.2.2-.3-.1-.2-.3-.3-.4-.3M400.591 9.694c.2.3.5.6.9.3s.2-.6.1-.7-.1-.4 0-.3.3 0 .5-.4c.2-.3.1-.6-.2-.8h-.1c-.4-.2-.9-.1-1.2.3-.2.4-.1.6-.2.9s0 .5.2.7M403.491 4.995c.3.2.7.5 1.1.4l.4-.4c.5 0 1-.2 1-.5 0-.2-.1-.5-.3-.6-.4-.2-.6-.1-1 .3-.4 0-.8 0-1.1.1-.2.1-.3.3-.3.5.1 0 .2.1.2.2M370.191 5.995c.1.4.4.6.7.4.2.3.3.6.6.9.3.2.6.3 1 .3-.2.2-.3.4-.3.7-.1.8.1 1.1.7 1.3.6.1 1.1-.2 1.3-.8v-.30000000000000004c.1.3.4.5.7.6s.7-.2.8-.6-.1-.8-.5-1h-.1c-.4-.1-.8 0-.9.4v.1c-.2-.3-.4-.5-.8-.6h-.4c.3-.4.3-.9.1-1.4-.3-.4-.8-.5-1.3-.3-.3.1-.6.3-1 0s-.5 0-.6.3M378.092 1.595c-.6-.2-1.2.1-1.5.6-.1.6.3 1.2.8 1.4.6.1 1.1-.3 1.3-.8.1-.5-.2-1-.6-1.2M363.691 19.795c0 .3.1.6.4.7.3 0 .6-.2.7-.5 0-.3-.2-.6-.5-.6-.3-.1-.5.1-.6.4M389.192 3.295c-.3-.1-.6.1-.6.4-.1.2 0 .5.3.6h.1c.3.1.6 0 .7-.3 0-.3-.2-.6-.5-.7q0 .15 0 0M378.591 11.395c.1.1-.6.7 0 1.3s1.1.5 1.6 0c.2-.2.4-.3.7-.4.2 0 .4-.1.5-.3.5-.2.7-.7.6-1.1-.2-.8-.8-1-1.2-.8s-.5.5-.8.6.2-.3-.5-.5-1.6.5-.9 1.2M357.89 2.495c.2.3.1.2 0 .5s-.1.8.5.9c.6 0 1.1-.4 1.1-1 0-.7-.6-1.3-1.2-1.3s-.7.6-.4.9M397.992 9.895c.4.5 1 .7 1.6.4.5-.4.6-1 .3-1.6-.3-.5-1-.5-1.6-.1-.4.3-.6.9-.3 1.3"/><path d="M397.292 21.495c.3.5 1 .6 1.5.3.5-.4.6-1 .3-1.5-.4-.5-1.1-.5-1.5-.1-.5.2-.6.8-.3 1.3M424.892 17.094c.2.5.8.7 1.3.5s.7-.8.5-1.3c-.1-.1-.1-.2-.2-.3-.4-.4-1.1-.4-1.5 0-.3.2-.4.7-.1 1.1M410.69 11.995c-.1.4 0 .9.4 1.1q.3.15.6 0c.5-.2.8-.9.6-1.4-.2-.1-.4-.2-.7-.2-.4-.1-.8.1-.9.5M397.99 7.295c.4-.4.5-1 .2-1.4-.3-.3-.9-.4-1.2 0-.3.3-.4.9 0 1.2.2.3.7.4 1 .2M391.691 13.094c.3-.2.5-.6.3-.9 0 0 0-.1-.1-.1-.3-.4-.8-.5-1.2-.3-.4.3-.4.8-.2 1.2.2.3.8.3 1.2.1M408.392 10.995c-.4.3-.5.5-.1 1s.6.5.9.3c.3-.3.4-.8.2-1.2-.2-.3-.6-.4-1-.1M407.691 4.394c.3-.2.4-.5.2-.8-.3-.3-.8-.4-1.2-.3-.4.3-.4.6 0 1s.6.4 1 .1M403.391 5.095c.3-.2.3-.7 0-1.1-.1-.2-.4-.3-.6-.1h-.1c-.4.2-.5.7-.3 1 .3.2.7.3 1 .2M384.791 18.595c.1-.2-.3-.9-.6-.8s-.4.4-.4.7c.1.3.9.4 1 .1M385.292 13.994c0-.2-.5-.6-.8-.5s-.5.5-.1.8 1 0 .9-.3M381.29 17.595c.2-.1.3-.3.2-.5 0 0 0-.1-.1-.1-.1-.1-.4-.4-.7-.2s0 .5.1.6c.1.3.3.3.5.2M395.791 1.494c.1-.1.1-.3.1-.4s-.3-.3-.4-.2-.1.4 0 .5c0 .1.1.2.3.1M386.591 18.795c0-.1-.1-.3-.3-.3s-.2.2-.3.3.1.3.3.4.3-.3.3-.4M384.092 10.695c.2-.2 0-.4 0-.4-.1-.1-.2-.1-.4 0-.1.1-.1.3 0 .4.1 0 .3.1.4 0M411.491 1.595c-.1-.1-.2-.2-.4 0q-.15.15 0 .3c.1.1.3.2.4.1s0-.4 0-.4M404.691 19.595c-.6-.4-1.3-.4-1.9 0-.3.2-.6.6-.6 1-.1.5.2 1.1.7 1.3s1.2 0 1.4.1-.1 1 .4 1.5c.3.2.7.3 1 .2-.1 0-.2.1-.3.2-.3.2-.4.6-.2 1 0 0 0 .1.1.1.3.4.8.5 1.3.2.4-.3.5-.9.2-1.3-.2-.3-.7-.4-1-.2.2-.1.3-.2.5-.3.4-.6.4-1.5 0-2.1-.4-.4-1-.1-1.1-.2s-.1-1-.5-1.5M397.792 15.195c-.2.1-.6 0-.7.3s.6 1 .8 1 .6 0 .6.3-.2.7 0 1 .7 1 1.2.9.3-.6.5-.8c.2-.3.1-.8-.2-1s-.8-.3-.9-.5-.2-.4.1-.6.5-.6.1-1.2-1.2-.6-1.4-.2.1.7-.1.8M404.791 9.095c.2-.1.3-.3.2-.5v-.1c-.2-.4-.5-.6-.7-.5-.3.2-.4.6-.4.9.2.2.6.3.9.2M417.791 5.495c.1-.1.2-.2.1-.3s-.2-.1-.3-.1c-.1.1-.3.2-.2.4s.3 0 .4 0M407.591 21.795c-.3.1-.4.4-.4.7s.3.4.5.5c.4.2.8.1 1.1-.2l-.1-.9.3.2c.5.2.5.5 0 .7-.4.2-.6.7-.4 1.2.1.4.5.7.9.8s.8-.2.9-.6v-.1c.1-.3.1-.7 0-1s-.1-.5.1-.7.2-.5-.1-.8c.8-.3 1.1-.7 1-1.5-.1-.6-.4-.7-1.2-.7l-.7-.7c-.3-.2-.7-.1-.9.2-.2.4-.3.8-.5 1.2-.6.1-.6.2-.5.8.2.2.6 0 .6.4-.1.3-.3.4-.6.5M415.592 20.695c.1-.4-.1-.8-.5-1h-.3c-.2 0-.5 0-.7.1 0-.3 0-.5.1-.6.3-.3.3-.7 0-1-.1-.1-.1-.2-.1-.3-.2-.4-.4-.5-.7-.4s-.4.5-.1.9l.1.1c.1.2.1.4-.2.4h-.3c-.4.1-.7.4-.8.8s.1.9.5 1c.4.2 1 .2 1.4 0 .1.2.3.4.4.6.6.2 1.1.1 1.2-.6M420.192 7.694c-.3.3-.5.8-.4 1.2 0 .2.2.3.3.4.5.3 1.1.2 1.4-.3v-.1l.2-.3c.2.1.4.3.5.4.2.2.6.2.8 0l.1-.1c.2-.3.3-.7.1-1s-.5-.4-.8-.4c-.2.1-.5.1-.7.2-.1-.1-.2-.1-.3-.2-.3-.1-.8-.1-1.2.2M387.092 20.095c.2.3.5.7.8.9.4.3.9.2 1.3-.1.2-.2.3-.4.2-.6-.3-.6-.8-1.1-1.3-1.4-.1 0-.2-.1-.3-.1-.4 0-.7.3-.8.7 0 .3 0 .5.1.6M428.792 19.795l-1.2.6c-.5-.7-.5-.7-1.1-.2.1.4.3.6.8.5.4 1 1 1 1.7.2h.2c.3.1.5 0 .6-.2q.15-.3 0-.6c-.2-.5-.4-.6-1-.3M422.691 17.294c-.3-.4-.9-.5-1.3-.2h-.1c-.5.3-.7.9-.4 1.3 0 .1.1.2.1.2.4.5 1.1.6 1.5.2.5-.4.5-1 .2-1.5M404.59 16.295c.3.5 1 .7 1.5.3 0 0 .1 0 .1-.1.4-.2.5-.7.3-1.1l.1-.1c.4-.4.4-1 .1-1.4-.4-.4-1-.5-1.4-.2s-.5.7-.5 1.1c-.4.5-.4 1.1-.2 1.5M418.291 17.095c-.5.3-.6.9-.4 1.4.5.4 1.101.5 1.701.3.4-.4.499-1 .199-1.4-.4-.5-1-.6-1.5-.3M405.991 19.695c.3.4.9.6 1.3.3.4-.4.5-1.1.3-1.6-.1-.2-.3-.3-.5-.3.1-.2 0-.4-.1-.6-.2-.2-.5-.3-.8-.1-.2.2-.3.6 0 .9l.1.1c-.5.4-.6.9-.3 1.3M408.091 16.195c.4.4 1.1.4 1.5 0 .4-.3.4-.8.2-1.1l-.1-.1c-.6-.6-.8-.5-1.5-.2-.4.4-.4 1-.1 1.4M400.892 6.795c-.4.4-.5 1.1-.1 1.5.2.4.7.5 1 .2l.1-.1c.4-.3.6-.8.3-1.3l-.1-.1c-.2-.3-.7-.5-1.2-.2M420.091 12.195c.2.4.9.6 1.2.5.4-.3.5-.8.3-1.3-.3-.4-.9-.5-1.4-.2-.3.2-.3.7-.1 1M401.791 15.495c.3-.3.2-.8 0-1.1s-.6-.4-1-.2c-.1 0-.1.1-.2.1-.3.2-.5.6-.3 1 .4.4 1 .5 1.5.2M391.392 19.195c-.3.2-.4.7-.2 1l.1.1c.3.4.7.5 1 .2.4-.4.5-.9.2-1.4-.4-.2-.8-.2-1.1.1M407.091 7.395c.2.3.6.3 1 .1.3-.3.4-.8.3-1.3-.4-.3-.9-.3-1.2 0-.4.4-.4.8-.1 1.2M424.892 13.494c.3-.3.4-.8.2-1.2s-.6-.4-1-.1c-.3.2-.5.6-.4 1 .3.4.8.5 1.2.3M422.792 21.995c.4-.3.5-.8.3-1.2-.2-.2-1-.2-1.3 0-.3.3-.3.8.1 1.1.2.2.6.2.9.1M420.19 14.695c-.2-.1-.4 0-.6.2-.3.3-.1.6.1.9.4 0 .8 0 .9-.4v-.1c.3.1.7 0 1-.2.2-.2.3-.6.1-.8-.2-.4-.7-.5-1.1-.3-.2.1-.4.4-.4.7M395.291 9.895c-.3.3-.4.8-.1 1.2.3.3.8.3 1.1.1.2-.2.3-.5.2-.8-.4-.6-.9-.8-1.2-.5M407.09 8.594c-.5.4-.6.8-.4 1.1.3.3.799.4 1.099.1s.4-.8.1-1.1c-.2-.3-.599-.3-.799-.1M428.092 11.994c.3-.2.5-.6.3-1-.2-.3-.7-.5-1.1-.4-.3.2-.3.7-.1 1.2.3.3.7.4.9.2M419.892 20.794c.2.3.5.4.8.2h.1c.2-.2.3-.5.2-.8-.2-.2-.6-.3-.9-.2s-.3.5-.2.8M405.491 3.695c.2-.2.4-.7.2-.9-.3-.3-.7-.3-1-.1-.2.2-.3.6-.1.8.2.3.6.4.9.2M394.492 6.594c.3-.1.5-.4.4-.8s-.4-.5-.8-.4c-.1 0-.1 0-.2.1-.2.2-.2.7 0 1.1zM404.791 5.194c-.1 0-.3.2-.4.4 0 .2 0 .4.2.5s.3.1.5 0c.3-.1.5-.3.8-.5.2-.1.2-.3 0-.5-.1 0-.2-.1-.3 0-.3.1-.5.1-.8.1M404.991 12.095c.3.2.7.2 1 0 .2-.3.1-.6-.1-.9q-.3-.3-.6 0v.1c-.4.3-.5.6-.3.8M390.49 5.795q.3-.45 0-.9c-.2-.2-.5-.3-.8-.1-.2.1-.3.4-.2.7.3.3.8.5 1 .3M401.691 18.395q.3.3.6.3c.3-.1.6-.4.5-.7v-.1c.2.1.3.3.4.5.1.1.3.2.5.2h.8c.4 0 .7-.2.7-.6 0-.5-.1-.8-.6-.8-.3 0-.5 0-.8.1l-.2-.4c-.1-.2-.3-.4-.6-.3-.4 0-.5.3-.6.6-.1.2-.1.3 0 .5-.3-.1-.5-.1-.8.1 0 0-.1.3.1.6M411.491 17.995c.2-.1.3-.2.4-.3.1-.3.1-.5-.1-.8-.1-.2-.2-.5-.5-.5s-.8.3-.8.7c0 .2.1.4.2.6-.3.2-.3.6-.2.8.2.2.5.3.7.1.3-.1.4-.4.3-.6M417.992 11.895c0 .3.1.7.5.7.3.1.5-.1.6-.4 0-.2-.1-.4-.2-.6-.4-.2-.7 0-.9.3M397.792 12.595c.2.2.5.3.7.1.2-.1.3-.4.2-.7-.2-.3-.5-.3-.8-.2-.3.2-.3.5-.1.8M429.391 15.194c-.4.1-.4.5-.3.9.3.1.7.3.9-.1.2-.2.1-.5-.1-.7-.1-.1-.3-.1-.5-.1M403.791 11.894c-.3-.2-.6-.3-.9 0s0 .6.2.8c.3 0 .6-.3.6-.6.1 0 .1-.1.1-.2M412.391.295c.1-.3-.6-.7-.9-.5s-.5.7-.2.9 1-.1 1.1-.4M389.191 16.695c-.2 0-.4.5-.2.7s.5.3.7.1c.2-.1.2-.4.1-.5 0 0 0-.1-.1-.1-.1-.2-.3-.3-.5-.2M424.99 20.995c-.3.2-.1.6 0 .8s.4.3.6.1.3-.4.1-.6-.4-.5-.7-.3M388.192 16.794c.1-.2.2-.4.2-.6s-.5-.3-.7-.1c-.1.1-.1.3-.2.5.3.3.6.4.7.2M406.191 1.595c.2-.1.3-.5.2-.7s-.4-.2-.6-.1-.3.4-.1.6c0 .3.3.4.5.2q0 .15 0 0M413.691 12.495c.2 0 .4 0 .6-.1s.2-.4.1-.6-.3-.3-.6-.2c-.2.3-.3.6-.1.9M390.192 9.494c-.1-.3-.6-.2-.9-.2l-.1.1c-.1.2 0 .5.2.6.1.1.3.2.4.2.1-.2.5-.5.4-.7M395.49 8.195c.2-.1.1-.4 0-.6s-.4-.3-.6-.1c0 0-.1 0-.1.1-.1.2-.4.5-.1.7s.6 0 .8-.1M430.692 20.095c-.1.1-.2.4-.2.5.2.3.5.3.7.2s.3-.4.1-.6c-.2-.1-.4-.2-.6-.1M396.39 17.795c-.2-.3-.7-.5-1.1-.3-.4.3-.5.9-.2 1.3.2.2.7.2 1 0s.4-.7.3-1M396.591 14.095c.5-.3.4-.9.3-1.2s-.8-.3-1.2.1c-.2.2-.2.5-.1.8.2.3.7.5 1 .3M401.191 12.394c.2-.2.3-.6.1-.8s-.5-.2-.6 0c-.3.2-.3.5-.2.8.2.2.5.2.7 0M397.391 18.195c-.2 0-.3.4-.1.6.1.2.3.3.5.2 0 0 .1 0 .1-.1.1-.1.4-.4.2-.6s-.5-.2-.7-.1M393.391 11.394c.2-.2.1-.7 0-.8q-.3-.3-.6 0c-.2.1-.2.3-.1.5l.1.1c.1.1.4.4.6.2M394.091 8.695c.1-.2.1-.4.1-.5-.2-.2-.5-.2-.6-.1l-.1.1c-.1.1-.1.3-.1.4.2.3.6.3.7.1M384.691 21.195c0 .2.9.6 1.1.4s.1-.7-.3-.9-.8.3-.8.5M418.491 7.795c0-.3-.1-.4-.7-.5-.2.2-.2.5 0 .7.1.1.1.1.2.1.2.1.5-.1.5-.3M422.291 5.595c0-.3-.2-.5-.4-.5-.1 0-.2 0-.3.1-.2.2-.2.5 0 .7.1.1.1.1.2.1.2 0 .4-.2.5-.4M386.192 13.594c0 .1.3.4.5.2s.1-.5 0-.6-.3-.3-.5-.1c-.1.1-.1.3 0 .5M396.591 2.295c0 .1.2.2.4.1s0-.3 0-.5c-.1-.1-.2-.1-.3-.1-.2.2-.2.4-.1.5M389.791 10.895c.1 0 .1.1.2.1s0-.1 0-.2-.2-.1-.2 0zM412.092 9.995c0-.1-.2-.2-.3-.1h-.1c-.1 0-.2.1-.1.2v.1c0 .1.2.2.3.1.2 0 .2-.1.2-.3q0 .15 0 0M414.591 12.695c-.1.2-.2.5-.2.8q.15.6.6.9c.3.2.4.7.8.8.7.2 1.5-.1 1.9-.8.3-.4.3-.9.1-1.3s-.8-.3-1.2-.7c-.8-.9-1.6-.4-2 .3M414.392 16.795c-.1.6.2 1.1.7 1.3.5.1.9-.1 1.2-.5.2-.4-.2-.9-.7-1.2-.4-.2-1 0-1.2.4M411.592 14.795c.2.5.7.8 1.2.7h.1c.7-.3.9-.9.7-1.4-.3-.5-1-.7-1.5-.5-.4.2-.6.7-.5 1.2M391.691 16.495c.8-.1.599-.9 1.099-.8s.201.6.901.7 1.299-.4 1.099-.9-.699-.5-.699-.7.099-.7-.301-.8c-.9-.2-.799.7-1.099.7s-.8-.2-1.2-.2c-.6 0-1.1.4-1 1 0 .6.5 1 1.1.9 0 .1.1.1.1.1M410.791 5.895c-.2.1-.3.2-.3.4-.1.2-.1.4 0 .5.1.3.4.6.7.8.3.1.7 0 .9-.2s.2-.5.1-.8c-.1-.2-.3-.6-.6-.6s-.6-.2-.8-.1M409.291 9.294c-.1.1 0 .3.1.4.2.1.3 0 .4-.1s0-.3-.1-.4c-.2 0-.3 0-.4.1M414.891 8.995c.3 0 .8 0 .8-.5s-.3-.5-.5-.5-.4-.2-.2-.2q.3 0 0-.6c-.1-.3-.4-.5-.7-.4h-.1c-.4.2-.7.6-.5 1.1.1.5.4.5.5.8s.4.3.7.3M413.191 3.695c.4-.1.8-.2 1.1-.6l-.1-.5c.4-.4.5-.9.3-1.1s-.4-.2-.6-.1c-.4.2-.5.4-.4 1l-.6.9c-.1.2 0 .4.2.5 0-.1 0-.1.1-.1M394.192 20.995c-.5.3-.7 1-.5 1.5.4.4 1 .6 1.6.3.4-.4.5-1 .2-1.5s-.9-.6-1.3-.3M402.691 13.594c-.2.2-.3.5-.1.7.1.2.4.3.6.2h.1c.3-.2.4-.5.2-.8-.2-.2-.6-.3-.8-.1M434.992 21.295c0 .3 0 .6.3.7.4.1.7.3.9.7.1.2.4.3.6.2l.1-.1c.3-.2.4-.7.1-.8-.3-.2-.5-.6-.5-.9-.1-.4-.4-.6-.8-.6s-.6.4-.7.8"/><path d="M419.892 21.194c.1.5.6.9 1.2.8.6-.2.9-.8.8-1.4-.2-.5-.8-.8-1.3-.6-.5.1-.8.6-.7 1.2M427.591 15.295c.4-.2.5-.6.3-1.1-.2-.3-.5-.5-.9-.4-.3.1-.7.9-.6 1.2.3.4.8.5 1.2.3M446.292 15.495c-.1-.4-.6-.6-1-.5-.4.2-.7.6-.5.9.3.5.8.7 1.3.5.2-.1.3-.5.2-.9M436.292 18.595c-.6.2-.8.5-.6 1 .2.3.6.5 1 .4.3-.3.4-.7.3-1.1-.1-.3-.4-.4-.7-.3M437.892 18.695c.2.2.5.2.7.1.3-.1.4-.5.3-.8-.2-.4-.6-.4-.9-.4-.4.6-.4.9-.1 1.1M428.092 17.495c0 .4 0 .8.4.9.3.1.6 0 .7-.3.1-.2.1-.5-.1-.6-.3-.3-.6-.2-1 0M412.691 14.995c0 .4 0 .8.4.9.3.1.6-.1.7-.3s.1-.5-.1-.6c-.4-.4-.7-.2-1 0M434.191 7.395c.3-.1.4-.4.3-.7 0-.2-.3-.4-.5-.4h-.1c-.3.1-.5.4-.4.7.2.3.5.4.7.4M438.691 16.394c0 .2.1.3.3.4.2 0 .5 0 .7-.2.3-.3 0-.6-.2-.9-.4.1-.8.2-.8.7M433.992 11.095c.2-.1.3-.4.1-.7 0-.2-.2-.3-.4-.2h-.1c-.2.1-.4.3-.3.6.2.2.5.3.7.3M444.991 12.295c.2-.1.4-.6.3-.8s-.4-.1-.6-.1-.3.2-.3.4v.1c.1.3.3.5.6.4M448.99 18.795c0-.2-.5-.2-.6-.2s-.4.4-.3.6c.1.1.3.2.5.2.1-.2.4-.5.4-.6M413.39 18.295c.1 0 .301-.1.301-.3s-.301-.2-.301-.2c-.1.1-.199.2-.199.3-.1 0 .099.3.199.2M434.392 14.695c-.2-.1-.4.1-.4.3s.1.5.3.6c.1.1.3.1.4 0v-.1c0-.2 0-.3-.1-.5 0-.1 0-.3-.2-.3M431.09 18.494c.4.2 1 .1 1.2-.3.3-.3 0-.9-.5-1.3-.4-.3-1-.1-1.3.3-.2.4.1 1 .6 1.3M449.891 21.495c0 .4.3.7.7.7.2 0 .4-.1.5-.2.3-.2.6-.5.9-.8.3-.4.2-1-.1-1.3-.2-.3-.6-.3-.9-.1l-.1.1c-.1.9-.6.6-.9 1.2-.1.2-.1.3-.1.4M432.191 14.795c.5-.1.8-.7.6-1.2v-.1c-.2-.6-.8-.8-1.4-.7-.5.3-.8.8-.6 1.4.2.5.8.8 1.3.6 0 .1.1.1.1 0M441.892 21.095c.3.4.7.7 1.2.6.4-.2.6-.7.5-1.1-.2-.4-.6-.6-1.1-.6-.5.2-.7.7-.6 1.1M422.692 20.595c-.1.3 0 .6.3.7.1.1.2.1.4 0l.6-.6c.7.1 1.2-.2 1.2-.6-.1-.5-.4-.9-.9-1s-.6.2-.8 1.1c-.4-.1-.7-.1-.8.4M418.791 17.795c.4-.2.6-.7.4-1.2-.3-.4-.8-.6-1.2-.3-.4.2-.5.6-.4 1 .1.5.7.7 1.2.5q-.15 0 0 0M434.59 18.995c.3-.3.6-.5.9-.8.2-.2.2-.5 0-.7s-.5-.2-.7 0c-.1.1-.3.2-.4.3-.4.1-.6.5-.6.9-.1.3.2.5.8.3M409.692 21.395c.5.1 1.1-.3 1.1-.7s-.2-.7-.6-.8c-.3-.1-.7 0-.8.3-.1.2-.6.7-.4 1s.5.2.7.2M443.391 18.295c.4-.3.6-.7.5-1.2-.2-.3-.6-.5-1-.4-.3.1-.5.4-.4.8 0 .6.5.9.9.8M447.09 18.995c.4-.2.6-.4.5-.8-.2-.4-.6-.6-1.1-.6-.4.1-.6.6-.5.9 0 0 0 .1.1.1.1.5.5.6 1 .4M439.59 13.995c.2.3.5.4.8.3.4-.1.6-.5.5-.9-.2-.4-.6-.6-1.1-.6-.3.2-.4.8-.2 1.2M421.591 18.395c.4-.2.6-.6.6-1-.1-.3-.4-.5-.8-.4-.4.2-.6.6-.5 1 .1.3.4.5.7.4M427.791 20.095c.3-.1.4-.4.2-.8s-.4-.6-.8-.5-.7.6-.5.9c.3.2.7.4 1.1.4M438.891 20.795c-.5.2-.7.5-.6.7.2.4.6.5 1 .5.3-.2.5-.6.3-1-.1-.3-.4-.4-.7-.2M453.291 16.495c.3-.1.5-.5.3-.8-.1-.3-.4-.5-.7-.4h-.1c-.3.1-.4.5-.3.8s.4.5.8.4M440.591 18.795c-.1-.2-.3-.5-.5-.4-.5.2-.6.5-.5.8s.4.5.8.4h.1c.2-.2.3-.5.1-.8q.15 0 0 0M424.992 16.195c.3-.2.4-.5.3-.8s-.4-.4-.7-.3-.5.4-.4.7v.1c.2.2.5.4.8.3M444.092 14.495c.3-.2.4-.5.3-.8s-.4-.4-.7-.3-.5.4-.4.7v.1c.2.3.5.4.8.3M449.891 12.094c-.1-.3-.5-.4-.8-.3s-.4.5-.3.8.4.4.7.3c.3-.2.5-.5.4-.8M439.49 10.195c.3-.1.4-.5.3-.8s-.5-.4-.7-.3c-.4.1-.5.4-.4.6.1.4.4.5.8.5M447.592 15.295c.1.3.4.5.7.4.2 0 .4-.2.4-.5v-.1c-.1-.3-.4-.5-.6-.4-.4.1-.6.4-.5.6M434.991 13.795c.2-.1.4-.3.3-.6 0-.2-.6-.5-.8-.3-.1.1-.2.4-.2.5 0 .2.3.4.5.4zM415.791 20.895c.2-.1.6-.5.5-.7s-.6-.2-.8-.2-.3.4-.2.6.3.5.5.3M432.591 15.794c-.1.1-.2.2-.2.4s.2.3.3.4c.4.1.5-.2.6-.5-.1-.3-.3-.5-.7-.3M436.991 13.995c.3-.1.4-.4.2-.6s-.3-.3-.4-.3-.4.5-.3.8.3.2.5.1M424.291 13.794c.2-.1.5-.5.5-.7s-.6-.2-.8-.1-.3.3-.2.5.3.5.5.3M425.491 8.795c.2-.1.5-.4.5-.6s-.5-.2-.7-.2-.4.3-.3.6c0 .2.2.3.4.3 0 0 .1 0 .1-.1M427.391 16.795c.1 0 .4-.4.3-.6-.2-.1-.4-.2-.6-.2-.1.1-.3.4-.2.6s.3.2.5.2M431.092 5.595c.1-.1.3-.3.3-.4s-.3-.3-.4-.3-.5.3-.4.5.4.3.5.2M447.291 9.395c.2 0 .6-.5.5-.8s-.8-.2-1-.2c-.2.1-.4.4-.3.7s.6.4.8.3M438.092 7.495c.1 0 .3-.3.3-.3s-.3-.1-.5-.1-.2.2-.1.3c0 0 .1.1.3.1M437.791 10.394c.1-.1.2-.2.1-.4 0-.1-.2-.3-.3-.3-.1.1-.2.2-.2.4 0 .1.2.4.4.3M442.892 8.095c.1-.1.2-.3.1-.4s-.2-.2-.3-.2c-.1.1-.2.2-.2.3.1.1.3.3.4.3M421.491 11.194c-.1.1-.2.2-.2.3s.2.3.4.3.2-.3.1-.4-.2-.3-.3-.2M417.791 9.594c0-.1-.2-.3-.3-.2s-.1.3-.1.4c.1.1.2.2.3.1.1.1.1-.1.1-.3M439.391 8.295c.1 0 .1-.1.1-.2l-.2-.1s-.1.1-.1.2.1.1.2.1M422.692 15.595c.1 0 .1-.2.1-.2s-.1-.1-.2-.1-.1.1-.1.2.1.2.2.1M430.891 11.695c.1 0 .3-.1.3-.3s-.3-.1-.5-.1-.2.2-.1.3.2.1.3.1M429.79 18.895c-.6 0-1.1.5-.9.9s.6.7 1 .9c.3.2.601-.2.701.3s.4 1.3 1.1 1c.4-.2.6-.6.5-1 .3.2.7.2 1 .1.5-.3.7-.9.5-1.4-.2-.4-.7-.6-1.1-.5-.4.2-.701.7-.701 1.1-.1-.1-.3-.2-.4-.2-.3 0-.1-.7-.6-.8s-.5-.4-1.1-.4M445.991 19.594c-.1-.3-.5-.4-.8-.3s-.4.5-.3.8.5.4.8.2c.3-.1.4-.4.3-.7M450.791 18.795c.4-.3.3-.7 0-1.1-.3-.3-.6-.3-1-.1-.3.4-.4.8-.3 1.3.4.2.9.2 1.3-.1"/><path d="M451.891 20.694c.1.4.2.7.6.7.3 0 .5-.2.6-.5.1-.2 0-.5-.2-.6-.4-.1-.7.2-1 .4M448.492 20.395c.3-.2.3-.6.1-.9-.2-.2-.5-.3-.7-.1-.3.2-.4.5-.2.8v.1c.2.2.6.2.8.1M447.191 18.295c.1-.2.4-.6.2-.8s-.6 0-.8.1-.2.3-.1.5l.1.1c.2.2.5.3.6.1M446.892 13.194c.1-.1.4-.5.3-.7s-.5-.1-.7 0-.3.4-.1.6c.1.2.3.2.4.1.1.1.1 0 .1 0M450.991 20.295c.1-.1.2-.5.1-.6q-.3-.15-.6 0c-.1.2-.2.5-.1.6q.3.15.6 0M451.391 8.495c.1-.1.2-.4.2-.5-.1-.1-.3-.2-.5-.1-.1 0-.3.4-.2.5s.4.2.5.1M443.791 16.595c-.1.1-.1.3-.1.4s.3.3.4.2.1-.4 0-.5-.2-.2-.3-.1M439.792 16.095c0-.1-.2-.2-.4-.1s0 .3 0 .4c.1.1.2.1.3.1s.1-.2.1-.4M446.192 20.495c.1-.1.1-.2 0-.2h-.2s-.1.1 0 .2zM452.992 14.395c.2-.1.2-.3.2-.4-.1-.2-.4 0-.5 0s-.1.3-.1.3c.1 0 .3.1.4.1"/></g><path fill="#424854" d="M365.076 59.728c11.819 0 21.4-9.581 21.4-21.4 0-11.82-9.581-21.4-21.4-21.4s-21.4 9.58-21.4 21.4 9.581 21.4 21.4 21.4"/><mask id="d" width="44" height="44" x="343" y="16" maskUnits="userSpaceOnUse" style="mask-type:alpha"><path fill="#E6EBF2" d="M365.076 59.728c11.819 0 21.4-9.581 21.4-21.4 0-11.82-9.581-21.4-21.4-21.4s-21.4 9.58-21.4 21.4 9.581 21.4 21.4 21.4"/></mask><g fill="#242424" mask="url(#d)"><path d="M379.376 49.528c-.4 0-.8.3-.8.7v.1c0 .4.4.8.7.8.5-.1.9-.5.9-1.1 0-.3-.4-.5-.8-.5M379.375 60.028c0 .6.3.9.7.8s.7-.5.7-.9q-.3-.6-.9-.6c-.3.1-.5.3-.5.7M379.975 58.528c.2-.1.3-.4.3-.6 0-.3-.3-.5-.6-.5-.5.1-.5.4-.7.8.4.4.7.5 1 .3M368.075 58.628c0-.3-.3-.6-.6-.6s-.5.2-.5.4v.1c0 .3.2.6.5.6.4 0 .6-.2.6-.5M377.976 57.028c.2 0 .4 0 .5-.2s.1-.5 0-.7c-.2-.4-.5-.2-.9-.1 0 .5 0 .9.4 1M371.575 59.928c0-.2-.3-.4-.7-.3s-.4.2-.3.4.1.5.5.5c.2-.1.5-.3.5-.6M384.275 40.428c0-.2 0-.4-.1-.5-.3-.2-.6-.1-.8.2-.1.2.1.6.5.6.2-.1.3-.2.4-.3M375.875 49.828c0-.2-.5-.6-.7-.5s-.2.3-.2.5.1.4.3.4h.1c.3 0 .5-.1.5-.4M387.475 50.028c0-.5-.4-.9-.8-.9-.4.1-.8.5-.8 1 0 .4.3.8.7.8h.2c.4 0 .7-.4.7-.8zM383.275 47.928c-.2 0-.4.4-.4.5s.3.5.5.4.3-.2.3-.4-.2-.5-.4-.5M386.175 47.828c.4.2.8 0 .9-.4q.15-.3 0-.6c-.1-.4-.3-.7-.5-1.1-.3-.4-.9-.5-1.3-.3-.2.1-.6.5-.3 1 .8.3.4.8.9 1.2.1.1.2.2.3.2M385.276 59.728c0 .7.6 1.2 1.2 1.1.6 0 1-.4 1-1.2s-.4-1.4-1.1-1.3c-.7 0-1.2.6-1.2 1.3.1 0 .1.1.1.1M383.476 55.428c.5-.1.8-.5.9-1-.1-.4-.5-.8-.9-.8-.4.1-.8.4-.9.9q.15.75.9.9M385.176 56.229c-.6 0-1 .4-1 1v.2c.1.5.5.9 1.1.9s.9-.4.9-1.1-.4-1-1-1M381.175 53.128c-.1-.5-.5-.8-1-.8-.3 0-.7.5-.7.9 0 .3.3.6.6.6.7 0 1.1-.3 1.1-.7M382.975 49.728c0-.4-.3-.7-.6-.7s-.9.6-.9.9.4.7.9.7q.75 0 .6-.9M375.976 55.528c.3-.1.6-.4.5-.7-.1-.4-.4-.8-.7-.7s-.9.5-.8.8.5.6 1 .6M386.976 53.828c-.1-.4-.4-.7-.8-.7-.3 0-.5.2-.5.5 0 .4.3.7.7.8.3 0 .6-.3.6-.6M382.275 58.128c0 .5.2.8.5.8.4-.1.7-.4.7-.8 0-.3-.5-.6-.9-.6s-.3.3-.3.6M382.376 43.128c0-.3-.3-.6-.7-.6-.3 0-.6.3-.6.6v.1c0 .3.3.5.6.5.4 0 .7-.2.7-.6M380.875 55.828c-.3.1-.6.1-.5.4 0 .5.3.8.6.7.3 0 .6-.3.6-.6v-.1c-.1-.2-.4-.4-.7-.4M377.776 51.329c-.1-.3-.4-.6-.7-.6s-.5.3-.5.6.2.6.6.6h.1c.3 0 .5-.3.5-.6M377.176 45.028c-.3 0-.5.3-.5.6s.3.6.7.6c.3 0 .5-.3.5-.5-.1-.4-.3-.7-.7-.7M372.276 54.428c-.1-.3-.3-.5-.7-.5-.3 0-.5.3-.5.6v.1c0 .4.2.6.5.6.4-.1.6-.4.7-.8M379.576 48.228c.3 0 .6-.2.6-.6 0-.2-.1-.5-.4-.5h-.1c-.3 0-.6.2-.6.5v.1c0 .2.2.5.5.5M374.475 59.828c0-.3-.2-.5-.5-.5-.2 0-.6.4-.5.7.1.2.3.3.5.3s.5-.2.5-.5M375.275 57.928c0-.3-.2-.5-.5-.4s-.4.1-.4.3.4.6.6.5.3-.2.3-.4M373.876 46.728c0-.2-.3-.8-.6-.7s-.5.7-.4.9c.1.3.3.5.5.5.3 0 .5-.4.5-.7M369.275 55.028c0-.1-.2-.4-.2-.4s-.2.3-.2.4.2.2.2.2.2-.1.2-.2M371.976 56.228c-.1-.1-.2-.2-.3-.2s-.4.1-.3.2q0 .15.3.3c0-.1.4-.2.3-.3M371.276 50.529c0-.2-.3-.3-.4-.3s-.2.1-.2.3c0 .1.1.2.2.2s.4 0 .4-.2M370.476 54.028c0-.1-.1-.1-.2-.1s-.1.1-.1.2c0 0 .1.2.1.1.1 0 .2-.1.2-.2M385.875 43.228c0 .1.1.1.1.1.1 0 .2 0 .2-.1s-.1-.1-.2-.1c0-.1-.1 0-.1.1M383.275 51.028c-.3 0-.5.3-.5.6s.3.5.6.5c.3-.1.5-.4.5-.7 0-.2-.3-.4-.6-.4M347.975 56.528c.6.2 1.3 0 1.5-.6s-.1-1.2-.6-1.5c-.5-.2-1.1.1-1.4.8-.2.5 0 1.1.5 1.3"/><path d="M374.275 47.628c.5.3 1.1.1 1.4-.3.3-.5.1-1.1-.3-1.4-.1-.1-.201-.1-.301-.1-.6-.1-1.099.3-1.199.8-.3.4-.1.9.4 1M359.676 51.228c.1.4.5.7 1 .7.2 0 .4-.2.5-.3.3-.5.2-1.2-.3-1.5-.2 0-.5.1-.7.2-.4.1-.6.5-.5.9M346.475 54.328c.1-.5-.1-1.1-.6-1.3-.5-.1-.9.2-1 .7-.1.4.2.8.6 1 .4.1.9 0 1-.4M377.076 55.229q-.15.6.6.9c.5.2.8 0 .9-.3.1-.4-.1-.9-.4-1.2-.5-.1-.9.1-1.1.6M357.176 51.728c-.2.5-.1.7.5.9s.8.1 1-.2c.1-.4-.1-.9-.5-1.2-.4-.2-.8 0-1 .5q0-.15 0 0M352.975 46.528c.1-.3 0-.6-.2-.8-.4-.1-.9.1-1.2.4-.2.4 0 .7.5.9s.7 0 .9-.5M349.775 49.529c.1-.3-.2-.8-.6-1-.2-.1-.5 0-.6.2v.1c-.2.3-.1.8.2 1 .4.1.8 0 1-.3M371.975 57.929c.1-.3 0-.7-.4-.8-.3-.1-.7.1-.8.4 0 .3.2.7.5.8.2.1.6-.2.7-.4M386.075 57.528c-.1.3 0 .6.3.7s.6 0 .8-.3c.1-.3 0-.6-.3-.7s-.7 0-.8.3M354.575 42.229c-.1 0-.3 0-.3.2 0 .1 0 .2.1.3.1 0 .3.1.4-.1s-.2-.4-.2-.4M350.676 61.028c-.1.1-.5.3-.4.6s1 .5 1.2.4.5-.4.7-.1.2.7.5.8 1.1.4 1.5 0 0-.6 0-1-.3-.7-.7-.7-.8.2-1 .1-.4-.3-.2-.5 0-.8-.5-1.1-1.3.2-1.3.6.3.8.2.9M353.175 52.128c.1-.2.1-.5-.1-.6h-.1c-.4-.2-.8-.3-.9-.1-.1.3-.1.7.2 1 .3.1.7 0 .9-.3M361.976 41.928c0-.1.1-.3-.1-.4-.1-.1-.2 0-.3.1 0 .1-.1.4 0 .4s.4 0 .4-.1M362.576 61.128c-.2.3-.1.6.1.8.1.3.4.2.6.2.4 0 .7-.3.9-.8l-.5-.7h.4c.5-.1.7.1.4.6-.2.4-.1.9.3 1.2.3.3.8.4 1.2.1.4-.2.6-.6.5-1v-.1c-.1-.3-.3-.6-.6-.8-.2-.2-.3-.3-.3-.6s-.1-.6-.5-.6c.5-.4.5-1.2.1-1.7l-.1-.1c-.4-.4-.8-.4-1.3.1-.3-.1-.7-.1-1-.1-.4 0-.6.3-.6.7.1.4.2.8.3 1.3-.4.4-.4.4 0 .9.2 0 .5-.4.7 0-.4.2-.5.4-.6.6M377.275 57.028c-.8-.9-1.1-1-2.1-.4h-.1l.3-.3c.1-.2.1-.4 0-.5 0 0-.1 0-.1-.1-.2-.1-.5-.1-.6.1v.7q-.45-.15-.6.3c-.1.3 0 .6.4.8h.2c.4 0 .5.3.7.6-.7.5-.7 1-.1 1.5l.2.1c.5.3.8.2 1-.3.3-.4.2-.9-.2-1.2h.6c.3.1.6 0 .7-.3-.1-.3-.1-.7-.3-1M368.575 55.828c-.1-.4-.5-.7-.9-.5-.1 0-.2.1-.3.1-.2.1-.4.3-.5.5-.1-.2-.3-.4-.2-.6.1-.4-.2-.8-.6-.9h-.1c-.1 0-.2-.1-.3-.2-.4-.2-.6-.2-.8 0s0 .6.4.8h.1c.2.1.3.3.1.5s-.2.1-.2.2c-.3.3-.4.7-.2 1.1.1.4.6.6 1 .5.5-.1.9-.4 1.1-.8.2.1.4.2.7.2.6.1.9-.3.7-.9M368.875 58.429c-.1.4-.2.9.1 1.3.2.2.3.5.3.8 0 .4.3.8.7.9.6-.1 1.1-.5 1.4-1-.1-.4-.3-1-.5-1.6 0-.1-.2-.1-.3-.1-.3 0-.6-.1-.8-.3-.2-.5-.9-.3-.9 0M365.276 42.428c-.1.4.1.9.4 1.2.1.1.3.2.5.2.6 0 1-.4 1-1v-.5h.7q.6 0 .6-.6c.1-.4-.1-.7-.5-.9-.3-.2-.7-.1-.9.2-.2.2-.3.4-.5.6h-.4c-.4 0-.8.3-.9.8M379.075 47.729c-.2.4-.5.8-.7 1.2-.8-.3-.9-.3-1 .4.2.3.6.3.8.1l.1-.1c.9.6 1.4.3 1.5-.8.1 0 .1-.1.2-.1.3 0 .4-.3.4-.5s-.1-.5-.3-.5c-.4-.3-.7-.2-1 .3M372.574 49.128c-.5-.2-.999.1-1.199.5v.1c-.3.5-.1 1.1.4 1.4.1 0 .199.1.299.1.6.2 1.201-.1 1.401-.7 0-.6-.301-1.2-.901-1.4M356.975 58.129c.5.3 1.2 0 1.4-.5v-.1c.2-.4 0-.8-.3-1.1v-.1c.1-.5-.2-1-.7-1.2-.5-.1-1.1.1-1.3.6-.2.4-.1.9.2 1.2 0 .5.2 1 .7 1.2M368.776 51.329c-.2.5 0 1.1.4 1.3.6.1 1.2-.2 1.6-.7.2-.5-.1-1.1-.6-1.3-.5-.1-1.1.2-1.4.7M359.976 60.328c.5.2 1 0 1.3-.4.1-.6-.2-1.2-.7-1.5q-.3-.15-.6 0c-.1-.2-.2-.4-.4-.4-.3-.1-.6 0-.7.3s.1.7.4.8h.1c-.1.4.2 1 .6 1.2M378.875 53.228c-.2.4 0 .9.4 1.1h.1c.5.2 1.1 0 1.3-.6.2-.5 0-1.1-.6-1.3-.5-.2-1 .1-1.2.8M359.776 56.228c.5.2 1.1-.2 1.3-.8.1-.4-.1-.9-.5-1-.8-.2-1 0-1.3.7-.2.4 0 1 .5 1.1M348.575 52.328c-.2.4.2 1.1.8 1.3.4.2.8 0 1-.4.2-.5 0-1-.4-1.2 0 0-.1 0-.1-.1-.5-.2-1 0-1.3.4M367.575 46.228c.4.2 1.1.1 1.2-.3.2-.5 0-1-.4-1.2-.5-.2-1 .1-1.2.6-.1.4 0 .8.4.9M354.175 59.128c.1-.3-.2-.7-.6-.9s-.8 0-1 .6c-.1.4 0 .8.3 1 .6.1 1.1-.2 1.3-.7M354.176 49.428c.3.1.7-.1.9-.4.1-.3-.2-1.2-.5-1.2s-.9.2-1 .7.1.7.6.9M372.375 44.628c.1-.4-.1-.9-.5-1.1s-.7 0-.9.5c-.1.4 0 .8.2 1 .4.2.9 0 1.2-.4M375.176 52.928c.2-.4 0-.9-.4-1.2-.3-.1-1 .3-1.1.7 0 .3.1.6.4.8.5.3.9.1 1.1-.3M369.076 48.228c-.2.1-.3.2-.4.4-.1.4.3.6.6.7.3-.2.6-.4.5-.8 0 0 0-.1-.1-.1.3-.1.6-.4.8-.7.1-.3-.1-.6-.4-.7-.5-.2-1 0-1.1.4-.1.3 0 .6.1.8M385.175 53.428c.1-.4-.2-.8-.6-.9s-.8.1-1 .5c-.1.4 0 .7.3.8s1.2 0 1.3-.4M369.775 55.829c-.1.4.2.8.8.9.3.1.7-.1.8-.4.1-.4-.1-.8-.4-1-.5-.2-1 0-1.2.5M345.676 58.028c-.1.4.1.9.5 1.1.4.1.8-.2 1-.6.1-.3-.1-.6-.3-.8-.6-.2-1.1-.1-1.2.3M354.776 50.428c-.2.6-.1 1 .3 1.1.4 0 .8-.2 1-.6q0-.6-.6-.9c-.3-.1-.6.1-.7.4M366.676 59.828c0 .2.8.8 1.1.7s.5-.4.5-.7-.2-.6-.4-.6c-.4-.2-1.2.4-1.2.6M374.176 41.628c.2-.4 0-.8-.3-1-.4-.2-.8 0-1.1.3-.2.3.1.8.6 1 .4.1.7 0 .8-.3M382.375 56.228c-.1.4.2.8.5.9.2 0 .7-.3.7-.8-.1-.3-.4-.6-.7-.5-.2.1-.4.2-.5.4M372.175 53.528c.3.1.6 0 .8-.3.1-.3 0-.6-.3-.8-.3-.1-.7 0-.9.3 0 .3.1.6.4.8M350.775 47.228c.1-.3 0-.7-.3-.8-.4-.1-.7.1-.9.4-.1.3.1.6.4.7s.6 0 .8-.3M350.975 48.828c-.1.1-.1.4-.1.5.1.2.3.3.4.3s.3-.1.4-.2c.1-.3.3-.5.4-.8.1-.2 0-.4-.3-.5-.1 0-.2.1-.2.1-.1.4-.3.5-.6.6M354.876 54.529c.4 0 .7-.2.8-.6 0-.2-.3-.6-.6-.7-.2 0-.5.1-.5.3v.1q0 .75.3.9M355.676 61.529c.2.1.5 0 .7-.1.3-.2.3-.6.1-.9l-.1-.1c.2 0 .4.1.6.2.2 0 .4 0 .5-.1.2-.2.5-.3.7-.4.3-.2.4-.6.3-.9-.2-.4-.5-.6-.9-.4-.2.1-.4.3-.6.5l-.4-.2c-.2-.2-.5-.2-.7 0s-.3.6-.2.9c0 .2.1.3.3.4-.3.1-.5.3-.6.5s-.1.5.1.6zM377.475 59.328c-.1.2 0 .5.3.6.2.2.6.1.8-.1.3-.3.2-.7 0-1-.5-.1-1 .1-1.1.5M381.476 57.928c-.4-.1-.7.2-.8.5.1.1.2.4.4.5s.6-.1.8-.4c.1-.3-.1-.6-.4-.6M380.675 57.028c.1-.3 0-.6-.3-.7s-.7.1-.8.4.1.6.4.7c.3 0 .6-.2.7-.4M363.675 55.829c.1-.1.2-.3.2-.5 0-.3-.3-.4-.5-.6s-.4-.3-.7-.2c-.3.2-.4.7-.2 1 .1.2.3.3.5.4-.1.3 0 .6.3.8.3.1.6-.1.7-.3-.1-.2-.2-.5-.3-.6M365.676 47.128c.2.2.5.5.8.3.3-.1.4-.4.3-.7-.1-.2-.3-.3-.5-.4-.4.1-.6.4-.6.8M349.175 58.928c.3.1.6-.1.7-.3s0-.5-.2-.7h-.1c-.3-.1-.6 0-.7.3-.1.2 0 .6.3.7M377.076 43.628c-.3.3-.1.7.2 1 .3-.1.7-.2.7-.6 0-.3-.2-.5-.4-.5-.2-.1-.4 0-.5.1M353.876 55.028c-.4 0-.7 0-.7.5s.3.5.6.5c.3-.2.4-.6.2-.9 0 0 0-.1-.1-.1M354.575 40.528c-.1-.3-.9-.2-1 .1s0 .8.3.9.8-.7.7-1M376.574 50.928c-.1.3.3.6.5.7s.5 0 .6-.3 0-.5-.2-.6-.8-.2-.9.2M350.275 45.128c.1-.2 0-.5-.2-.7-.2-.1-.5 0-.6.2v.1c-.1.2 0 .4.2.5.2.2.4.1.6-.1M362.476 50.028c.2-.1.3-.2.5-.4.1-.2 0-.4-.2-.5s-.4-.1-.6.1c-.2.4 0 .7.3.8M344.876 56.528c.1-.2-.1-.4-.3-.5s-.6 0-.6.3-.1.6.3.7.5-.4.6-.5M380.776 46.928c-.1.2.1.4.1.6.4.2.6 0 .6-.2s.1-.5-.2-.6-.4.1-.5.2M346.676 45.228c-.1-.2-.5-.2-.7-.2-.1 0-.3 0-.3.1 0 .3.2.6.5.7.3 0 .5-.2.5-.5.1 0 .1 0 0-.1M349.074 60.828c.3-.6-.2-1-.4-1.2s-.9.2-1 .7c-.1.3.1.6.4.7.3.2.9.1 1-.2M351.975 56.828c.1-.3-.1-.6-.4-.7s-.5.1-.6.3c-.1.3 0 .6.3.7.4.2.7 0 .7-.3M344.975 60.328c0-.2-.3-.6-.5-.7s-.5 0-.6.3c-.1.2 0 .4.2.5h.1c.2.1.7.1.8-.1M343.976 57.728c0-.2-.1-.4-.2-.5-.2-.1-.6.1-.6.4s.1.3.1.4c.4.1.7-.1.7-.3M363.875 43.428c-.1-.3-.3-.3-.9 0-.1.3.1.5.4.6h.3c.2-.1.2-.4.2-.6M365.776 39.528c-.1-.2-.4-.3-.7-.2-.1 0-.1.1-.2.2-.1.3.1.5.4.6h.3c.2-.1.3-.4.2-.6M382.775 48.729c0 .1.1.3.2.3s.4.1.4 0 0-.3-.1-.4c-.2 0-.5-.1-.5.1M384.975 49.028c-.1.2 0 .3.2.4h.1c.2 0 .3-.1.4-.2s0-.3-.1-.4c-.3-.1-.5 0-.6.2M359.676 48.928c-.1-.1-.2 0-.3.1q-.15.15 0 .3h.1c.1.1.2.1.3-.1.1-.1.1-.2-.1-.3q.15 0 0 0M363.375 49.728c0 .3.1.5.3.7.3.3.6.4 1 .4s.7.3 1.1.2c.7-.3 1.2-1 1.1-1.7q0-.75-.6-1.2c-.4-.2-.9.2-1.4.1-1.3-.2-1.6.7-1.5 1.5M365.375 53.228c.2.5.8.8 1.3.7s.8-.6.7-1.1c0-.4-.6-.7-1.2-.7-.5.1-.8.6-.8 1.1M361.976 53.129c.4.4 1.1.3 1.4-.1l.1-.1c.4-.5.3-1.2-.2-1.5-.5-.2-1.2-.1-1.6.4-.2.4-.1 1 .3 1.3M356.376 46.128c-.1.2-.1.3 0 .5 0 .2.1.4.3.5.3.2.7.3 1 .2s.6-.4.6-.7-.1-.5-.3-.7-.5-.3-.8-.2-.7.1-.8.4M356.975 49.828c0 .1.1.2.3.2s.3-.2.3-.3-.2-.2-.3-.2-.3.2-.3.3M361.576 46.428c.3-.2.7-.5.4-.8s-.5-.3-.7-.2-.4.1-.3-.1 0-.3-.3-.6c-.2-.2-.6-.2-.8.1-.3.4-.2.9.2 1.2s.6.1.8.3.4.3.7.1M357.176 42.928c.2-.3.6-.6.6-1.1l-.4-.4c.1-.5-.101-1-.401-1.1a.48.48 0 0 0-.599.2c-.2.4-.201.6.199 1v1.1c0 .2.2.4.4.4 0 .1.101 0 .201-.1M353.875 57.028c-.1.3 0 .6.3.7.2.1.5 0 .7-.2v-.1c.1-.3 0-.6-.3-.8-.3 0-.6.1-.7.4M354.875 44.328c-.5.4-.5 1.1-.1 1.6.5.4 1.1.4 1.6 0 .4-.4.4-1-.1-1.6-.4-.4-1-.4-1.4 0M343.376 45.428c-.4.4-.4 1.1 0 1.5s1.1.4 1.6 0c.4-.4.4-.9.1-1.3l-.1-.1c-.5-.5-1.1-.5-1.6-.1"/><path d="M354.875 57.128c-.4-.1-.8.2-1 .6 0 .2 0 .4.1.6.3.5 1 .7 1.5.3.1-.2.1-.5.1-.7 0-.4-.3-.7-.7-.8M357.475 43.929c.4.3 1 .3 1.5 0 .2-.3.1-.7-.1-1-.3-.3-.8-.4-1.1-.1l-.1.1c-.4.2-.5.7-.2 1M350.676 38.528c.2.3.7.4 1 .1s.4-.8.1-1.2c-.4-.3-.9-.3-1.2 0-.2.3-.1.8.1 1.1M355.476 54.728c-.3-.4-.6-.4-1 0s-.4.7-.2 1c.4.2.9.3 1.3.1.3-.4.2-.8-.1-1.1M361.874 53.028c.2.2.5.3.8.1.3-.4.3-.8.1-1.2-.3-.3-.7-.3-1 .1s-.3.6.1 1M360.476 48.828c.2.3.8.2 1.1-.2.2-.2.2-.4.1-.6l-.1-.1c-.2-.3-.7-.4-1-.2-.2.4-.2.8-.1 1.1M344.076 32.728c.2.1.8-.5.7-.8-.1-.2-.4-.4-.7-.2-.3.1-.2.9 0 1M348.776 32.428c.2-.1.5-.7.4-.9s-.6-.4-.9 0 .3 1 .5.9M344.475 29.028c.1.2.3.2.5.1 0 0 .1 0 .1-.1.1-.1.3-.5.1-.7s-.5 0-.6.2c-.1.1-.1.3-.1.5M362.776 40.729c.1.1.3.1.4 0s.2-.3.1-.4-.4 0-.5.1q-.15.15 0 .3M344.275 34.528c.1 0 .2-.2.2-.3s-.2-.2-.3-.2-.3.2-.3.3.3.2.4.2M351.875 30.728c.2.2.4 0 .4-.1q.15-.15 0-.3c-.1-.1-.3-.1-.4 0-.1 0-.2.2 0 .4M365.275 56.228c0-.1.1-.3 0-.4q-.15-.15-.3 0c-.1.1-.2.3-.1.4s.3 0 .4 0M346.376 52.428c.4-.8.1-1.8-.7-2.2-.2-.1-.5-.2-.7-.2-.5 0-1 .4-1.2.9-.1.5.2 1.2.1 1.4s-1 0-1.4.6c-.2.3-.2.7 0 1.1-.1-.1-.1-.2-.2-.3-.3-.3-.7-.3-1 0l-.1.1c-.3.4-.3.9 0 1.3.4.3.9.3 1.3 0 .2-.3.3-.7.1-1 .1.2.2.3.4.4.7.3 1.5.2 2.1-.3.3-.4-.1-1 0-1.1s.9-.2 1.3-.7M349.576 44.928c-.1-.2-.1-.6-.4-.6s-.9.8-.9.9.1.6-.2.7-.7-.1-1 .2-.9.8-.7 1.3.6.2.9.3.7 0 .9-.3c.2-.4.2-.8.3-1s.4-.2.6 0 .7.4 1.2 0 .4-1.3 0-1.4-.6.1-.7-.1M356.776 50.828c.1.2.4.3.6.1h.1c.4-.3.5-.6.4-.8-.3-.2-.7-.3-1-.2-.3.3-.3.6-.1.9M344.676 55.728c-.2-.2-.5-.4-.8-.3-.3 0-.3.3-.4.5-.1.4 0 .8.4 1.1l.9-.2c0 .1-.1.2-.1.3-.1.5-.4.6-.7.2s-.8-.5-1.2-.2c-.4.2-.6.6-.6 1 .1.5.3.8.8.8.3 0 .7 0 1-.2.2-.1.5-.2.7 0s.6.1.8-.2c.4.8.9 1 1.6.8s.6-.6.5-1.3c.2-.2.4-.5.5-.8s0-.7-.4-.8-.8-.2-1.3-.3c-.2-.5-.2-.6-.9-.3-.1.2.1.6-.4.7-.1-.4-.3-.6-.4-.8M347.076 63.428c.4.1.8-.2.9-.6v-.4c-.1-.2-.1-.5-.2-.7.3 0 .5-.1.6 0 .3.2.8.2 1-.2.1-.1.2-.2.3-.2.4-.2.5-.5.3-.7s-.5-.3-.9 0c0 0 0 .1-.1.1-.2.1-.4.1-.5-.1 0-.1 0-.2-.1-.3-.2-.4-.6-.7-1-.6-.5 0-.7.2-.9.7s0 1 .3 1.4l-.5.5c-.1.6.1 1 .8 1.1M340.876 49.328c0 .3.2.5.6.5.3 0 .6 0 .9.1.6.2 1.2 0 1.4-.6v-.1c0-.1.1-.2.2-.3.4-.2.4-.4.4-.7s-.3-.3-.6-.4h-.9c-.3 0-.7 0-.9.3-.1.1-.2.2-.3.2-.8.1-.9.3-.8 1M343.076 35.228c-.3.3-.6.6-.8.9-.2.4-.1 1 .3 1.3.2.2.4.2.6.1.5-.4.9-.9 1.1-1.6v-.3c-.1-.4-.4-.7-.8-.6-.2 0-.3.1-.4.2M349.675 51.828c-.4.4-.5 1.1-.1 1.6l.1.1c.3.3.8.4 1.1.1l.1.1c.4.3 1 .2 1.4-.1.4-.4.4-1.1 0-1.5-.3-.3-.7-.4-1.1-.2-.5-.5-1.1-.4-1.5-.1M346.476 53.728c-.4.4-.4.9-.1 1.4.5.4 1.2.4 1.7 0 .1-.2.2-.3.2-.6.2 0 .4-.1.6-.2.2-.2.2-.6 0-.8-.3-.2-.7-.2-.9.1v.1q-.9-.45-1.5 0M350.276 55.228c-.3.5-.2 1.2.2 1.5.3.3.8.3 1.1 0l.1-.1c.5-.7.4-.9-.1-1.5-.3-.3-.9-.3-1.3.1M358.476 46.629c-.5-.3-1.1-.3-1.5.2-.3.3-.3.7-.1 1.1l.1.1c.3.4.9.4 1.3.1l.1-.1c.3-.4.4-1 .1-1.4M349.976 48.928c.4.2.8.1 1-.2.4-.4.3-.8-.1-1.2-.3-.3-.7-.4-1.1-.1-.3.5-.2 1.1.2 1.5M344.676 39.228c-.3-.3-.7-.3-1-.1l-.1.1c-.3.3-.4.8-.1 1 .4.3 1 .3 1.4 0 .1-.3.1-.7-.2-1M358.775 52.929c-.2.3-.2.7 0 1 .4.3.9.3 1.3.1.2-.4.1-.9-.2-1.2-.3-.4-.7-.4-1.1.1M354.476 41.528c-.4-.2-.9-.2-1.2.1-.2.4-.2.8.1 1.1.3.2.6.2.8 0 .5-.3.6-.9.3-1.2M357.676 53.028c-.4-.4-.9-.5-1.1-.2-.3.3-.4.8-.1 1.1s.8.4 1.1.1l.2-.2c.1-.2.1-.6-.1-.8M362.175 50.628c.3.2.6.2.9.1.2-.3.2-.7 0-1-.2-.2-.6-.2-.8.1-.3.2-.3.6-.1.8M357.575 40.228c.2.3.6.3.9.1s.3-.6.1-.9c-.2-.2-.7-.1-1.1.2 0 .2 0 .5.1.6M360.676 50.228c0-.1-.3-.3-.5-.3s-.4.1-.5.3c-.1.1 0 .3.1.5.2.2.4.5.6.7s.4.1.5-.1v-.3c-.2-.3-.2-.5-.2-.8M353.876 51.528c-.1.3-.1.7.2 1 .3.1.6 0 .9-.2.1-.2.1-.4-.1-.6h-.1c-.4-.4-.8-.4-.9-.2M357.674 36.228c.2.2.7.1.9-.1s.2-.5 0-.7-.5-.2-.7 0c-.3.1-.4.6-.2.8M347.075 49.328c-.2.2-.2.4-.2.7.1.3.5.5.8.4h.1c-.1.2-.2.4-.4.5-.1.2-.2.4-.1.6.1.3.1.5.1.8 0 .4.3.6.7.6.5 0 .7-.2.7-.7 0-.3-.1-.5-.2-.8l.4-.2c.2-.1.3-.4.2-.7s-.4-.5-.7-.5c-.2 0-.3 0-.5.1.1-.3 0-.5-.2-.7-.2-.3-.4-.3-.7-.1M349.075 58.928c.1.2.2.3.4.4.3.1.5-.1.7-.2s.4-.3.4-.6-.5-.7-.9-.7c-.2 0-.4.1-.5.3-.2-.2-.6-.2-.8 0s-.2.5 0 .8c.2.1.5.1.7 0M352.175 44.428c-.2.2-.2.5 0 .8.2.2.5.3.7.1h.1c.2-.2.2-.6 0-.8-.3-.2-.6-.2-.8-.1M353.775 50.328c.1-.3.2-.7-.1-.8s-.6.1-.7.4c.1.3.4.6.7.5zM366.676 56.928c.3 0 .6-.7.3-1s-.8-.3-.9-.1.3 1.1.6 1.1M346.776 36.729c-.1-.2-.6-.3-.8-.1s-.2.5 0 .7c.1.2.4.2.6.1 0 0 .1 0 .1-.1.1-.2.2-.4.1-.6M346.475 35.728c.2.1.4.1.7.1.2-.1.2-.6 0-.7-.1-.1-.3-.1-.5-.1-.3.3-.4.6-.2.7M364.375 51.028c.2.2.5.2.7 0q.3-.3 0-.6c-.1-.2-.4-.2-.6 0-.2.1-.3.3-.1.6q-.15 0 0 0M354.076 36.529c.2-.2 0-.6.1-.9l-.2-.1c-.2-.1-.5.1-.6.3-.1.1-.2.3-.2.5.3 0 .6.4.9.2M356.176 41.528c.2.2.4.1.6-.1s.2-.5 0-.6-.5-.3-.7 0 0 .5.1.7M365.676 47.828c.2 0 .4-.3.5-.6q.15-.15 0-.3c-.3-.2-.6-.1-.9.2-.1.2 0 .6.2.7.1-.1.1 0 .2 0M346.874 43.929c.3-.3.3-.8.1-1.1-.4-.3-.9-.3-1.3 0-.2.2-.1.7.2 1 .2.3.7.3 1 .1M350.475 43.528c.4.5 1 .2 1.3.1s.2-.9-.3-1.2c-.2-.2-.5-.2-.8 0-.3.3-.4.8-.2 1.1M352.875 47.928c.2.2.6.2.8-.1.2-.2.1-.5 0-.6-.2-.2-.6-.2-.8 0-.2.1-.2.5 0 .7M346.576 45.028c-.1-.2-.4-.2-.6 0-.2.1-.2.3-.1.5l.1.1c.1.1.4.3.6.1s.1-.5 0-.7M352.675 40.028c.2.2.6 0 .8-.2s.1-.5 0-.6-.3-.2-.5 0l-.1.1c-.2.1-.4.5-.2.7M355.375 40.228c.2.1.4.1.5 0 .2-.1.2-.6-.1-.7h-.4c-.2.3-.2.6 0 .7M349.375 33.228c-.1.1-.3.3-.1.5s.5 0 .6-.1.2-.3.1-.5c-.3 0-.5 0-.6.1M362.075 41.628c-.1 0-.2.3-.1.4s.3 0 .4-.1q.15-.15 0-.3c0-.1-.2 0-.3 0M352.576 36.328c0 .1-.1.2 0 .2h.2c.1 0 0-.2 0-.2zM356.976 58.128c.1-.1.1-.2.1-.3v-.1c-.1-.1-.2-.2-.3 0-.1 0-.2.2-.1.3v.1c.1.1.2.2.3 0M352.276 58.528c-.5.2-.7.7-.5 1.2 0 .1.1.1.1.2.3.5.9.7 1.5.5.4-.4.6-1.1.3-1.6-.4-.4-1-.5-1.4-.3M347.275 39.128c.2.8 1 .4 1 1s-.5.3-.5 1 .6 1.2 1.1 1 .4-.8.5-.8.7 0 .7-.5c0-.9-.8-.7-.9-1s.1-.8 0-1.2c-.1-.6-.5-1-1.1-.8-.5.1-.9.7-.7 1.2-.1 0-.1.1-.1.1M360.875 56.328c-.1-.1-.3-.2-.5-.2-.2-.1-.4-.1-.5 0-.3.2-.5.5-.6.8 0 .3.1.7.4.9.2.1.5.1.8 0s.5-.4.5-.7.1-.7-.1-.8M357.275 55.328c-.1 0-.3 0-.3.1 0 .2 0 .3.2.4.1.1.3-.1.3-.2s-.1-.3-.2-.3M358.476 60.828c0 .3.1.8.6.8s.5-.4.4-.5.1-.4.2-.3.3.2.6 0c.3-.1.4-.5.3-.8v-.1c-.2-.4-.8-.6-1.2-.3-.4.2-.4.5-.7.6s-.3.3-.2.6M363.475 58.328c.2.3.3.8.8 1l.5-.2c.4.3 1 .3 1.1.1.2-.2.2-.5 0-.7-.3-.4-.5-.4-1-.3-.3-.2-.7-.3-1-.4-.2 0-.4.1-.4.3zM351.975 49.528c-.2-.2-.5-.2-.7 0s-.3.5-.1.7l.1.1c.2.2.6.3.8.1.1-.3.1-.7-.1-.9"/><path d="M343.675 34.628c-.5.1-.9.2-1.4.2-.2-.8-.3-.9-1-.5-.1.4.1.7.6.8 0 1.1.6 1.3 1.6.7.1 0 .1.1.2.1.2.2.5.1.7 0s.3-.4.2-.6c0-.7-.3-.8-.9-.7M344.176 47.928c-.5-.1-1.1.2-1.1.7 0 .4.2.7.6.8.3.1.7 0 .9-.3.1-.2.6-.6.4-1s-.6-.1-.8-.2M345.374 27.028c.4-.1.6-.4.6-.8-.1-.4-.5-.7-.9-.7-.3.1-.5.6-.4 1.1.1.3.4.4.7.4M345.275 44.928c-.3 0-.4.3-.4.6.1.3.4.4.6.4.3-.1.5-.4.4-.6 0-.3-.3-.5-.6-.4M345.676 30.428c-.5 0-.6.3-.6.8.3.2.6.5.9.2.2-.1.3-.4.2-.7-.2-.1-.3-.2-.5-.3M345.375 35.528c-.2 0-.3.3-.4.4.1.4.4.4.6.4s.4-.2.3-.5-.3-.4-.5-.3M348.476 40.729c-.1 0-.3.1-.3.3s.3.2.4.1.2-.2.1-.3c.1 0 0-.1-.2-.1M345.276 38.128c-.1.1-.2.2-.1.4 0 .1.2.3.3.3.1-.1.2-.2.2-.3-.1-.2-.3-.5-.4-.4M346.376 40.028c-.2.1-.3.2-.2.4v.1c.1.1.3.2.4.1.2 0 .2-.2.2-.4s-.1-.3-.4-.2c.1-.1.1 0 0 0"/></g></g></svg>