<svg xmlns="http://www.w3.org/2000/svg" width="481" height="100" fill="none"><g clip-path="url(#a)"><path fill="#FFD270" d="M417.534 20.995c33.468 0 60.6-27.132 60.6-60.6s-27.132-60.6-60.6-60.6-60.6 27.132-60.6 60.6 27.131 60.6 60.6 60.6"/><mask id="b" width="122" height="122" x="415" y="-105" maskUnits="userSpaceOnUse" style="mask-type:alpha"><path fill="#FFD270" d="M475.936 16.928c33.468 0 60.6-27.132 60.6-60.6s-27.132-60.6-60.6-60.6-60.6 27.131-60.6 60.6 27.131 60.6 60.6 60.6"/></mask><g fill="#FFD270" mask="url(#b)"><path d="M424.634 17.39c.2.5.8.7 1.3.5s.7-.8.5-1.3c-.1-.1-.1-.2-.2-.3-.4-.4-1.1-.4-1.5 0-.3.2-.4.7-.1 1.1M417.533 5.79c.1-.1.2-.2.1-.3s-.2-.1-.3-.1c-.1.1-.3.2-.2.4s.3 0 .4 0M419.934 7.99c-.3.3-.5.8-.4 1.2 0 .2.2.3.3.4.5.3 1.1.2 1.4-.3v-.1l.2-.3c.2.1.4.3.5.4.2.2.6.2.8 0l.1-.1c.2-.3.3-.7.1-1s-.5-.4-.8-.4c-.2.1-.5.1-.7.2-.1-.1-.2-.1-.3-.2-.3-.1-.8-.1-1.2.2M419.833 12.49c.2.4.9.6 1.2.5.4-.3.5-.8.3-1.3-.3-.4-.9-.5-1.4-.2-.3.2-.3.7-.1 1M424.634 13.79c.3-.3.4-.8.2-1.2s-.6-.4-1-.1c-.3.2-.5.6-.4 1 .3.4.8.5 1.2.3M419.933 14.99c-.2-.1-.4 0-.6.2-.3.3-.1.6.1.9.4 0 .8 0 .9-.4v-.1c.3.1.7 0 1-.2.2-.2.3-.6.1-.8-.2-.4-.7-.5-1.1-.3-.2.1-.4.4-.4.7M427.834 12.29c.3-.2.5-.6.3-1-.2-.3-.7-.5-1.1-.4-.3.2-.3.7-.1 1.2.3.3.7.4.9.2M417.734 12.191c0 .3.1.7.5.7.3.1.5-.1.6-.4 0-.2-.1-.4-.2-.6-.4-.2-.7 0-.9.3M429.133 15.49c-.4.1-.4.5-.3.9.3.1.7.3.9-.1.2-.2.1-.5-.1-.7-.1-.1-.3-.1-.5-.1M418.233 8.09c0-.3-.1-.4-.7-.5-.2.2-.2.5 0 .7.1.1.1.1.2.1.2.1.5-.1.5-.3M422.034 5.89c0-.3-.2-.5-.4-.5-.1 0-.2 0-.3.1-.2.2-.2.5 0 .7.1.1.1.1.2.1.2 0 .4-.2.5-.4M414.333 12.99c-.1.2-.2.5-.2.8q.15.6.6.9c.3.2.4.7.8.8.7.2 1.5-.1 1.9-.8.3-.4.3-.9.1-1.3s-.8-.3-1.2-.7c-.8-.9-1.6-.4-2 .3M414.134 17.09c-.1.6.2 1.1.7 1.3.5.1.9-.1 1.2-.5.2-.4-.2-.9-.7-1.2-.4-.2-1 0-1.2.4M414.633 9.29c.3 0 .8 0 .8-.5s-.3-.5-.5-.5-.4-.2-.2-.2q.3 0 0-.6c-.1-.3-.4-.5-.7-.4h-.1c-.4.2-.7.6-.5 1.1.1.5.4.5.5.8s.4.3.7.3M427.333 15.59c.4-.2.5-.6.3-1.1-.2-.3-.5-.5-.9-.4-.3.1-.7.9-.6 1.2.3.4.8.5 1.2.3M446.034 15.791c-.1-.4-.6-.6-1-.5-.4.2-.7.6-.5.9.3.5.8.7 1.3.5.2-.1.3-.5.2-.9M433.933 7.69c.3-.1.4-.4.3-.7 0-.2-.3-.4-.5-.4h-.1c-.3.1-.5.4-.4.7.2.3.5.4.7.4M438.434 16.69c0 .2.1.3.3.4.2 0 .5 0 .7-.2.3-.3 0-.6-.2-.9-.4.1-.8.2-.8.7M433.734 11.39c.2-.1.3-.4.1-.7 0-.2-.2-.3-.4-.2h-.1c-.2.1-.4.3-.3.6.2.2.5.3.7.3M444.733 12.591c.2-.1.4-.6.3-.8s-.4-.1-.6-.1-.3.2-.3.4v.1c.1.3.3.5.6.4M434.134 14.99c-.2-.1-.4.1-.4.3s.1.5.3.6c.1.1.3.1.4 0v-.1c0-.2 0-.3-.1-.5 0-.1 0-.3-.2-.3M430.833 18.79c.4.2 1 .1 1.2-.3.3-.3 0-.9-.5-1.3-.4-.3-1-.1-1.3.3-.2.4.1 1 .6 1.3M431.933 15.091c.5-.1.8-.7.6-1.2v-.1c-.2-.6-.8-.8-1.4-.7-.5.3-.8.8-.6 1.4.2.5.8.8 1.3.6 0 .1.1.1.1 0M418.533 18.09c.4-.2.6-.7.4-1.2-.3-.4-.8-.6-1.2-.3-.4.2-.5.6-.4 1 .1.5.7.7 1.2.5q-.15 0 0 0M443.133 18.59c.4-.3.6-.7.5-1.2-.2-.3-.6-.5-1-.4-.3.1-.5.4-.4.8 0 .6.5.9.9.8M439.333 14.29c.2.3.5.4.8.3.4-.1.6-.5.5-.9-.2-.4-.6-.6-1.1-.6-.3.2-.4.8-.2 1.2M453.033 16.79c.3-.1.5-.5.3-.8-.1-.3-.4-.5-.7-.4h-.1c-.3.1-.4.5-.3.8s.4.5.8.4c0 0-.1 0 0 0"/><path d="M424.734 16.491c.3-.2.4-.5.3-.8s-.4-.4-.7-.3-.5.4-.4.7v.1c.2.2.5.4.8.3M443.834 14.79c.3-.2.4-.5.3-.8s-.4-.4-.7-.3-.5.4-.4.7v.1c.2.3.5.4.8.3M449.634 12.39c-.1-.3-.5-.4-.8-.3s-.4.5-.3.8.4.4.7.3c.3-.2.5-.5.4-.8M439.233 10.491c.3-.1.4-.5.3-.8s-.5-.4-.7-.3c-.4.1-.5.4-.4.6.1.4.4.5.8.5M447.334 15.59c.1.3.4.5.7.4.2 0 .4-.2.4-.5v-.1c-.1-.3-.4-.5-.6-.4-.4.1-.6.4-.5.6M434.733 14.091c.2-.1.4-.3.3-.6 0-.2-.6-.5-.8-.3-.1.1-.2.4-.2.5 0 .2.3.4.5.4zM432.333 16.09c-.1.1-.2.2-.2.4s.2.3.3.4c.4.1.5-.2.6-.5-.1-.3-.3-.5-.7-.3M436.733 14.29c.3-.1.4-.4.2-.6s-.3-.3-.4-.3-.4.5-.3.8.3.2.5.1M424.033 14.09c.2-.1.5-.5.5-.7s-.6-.2-.8-.1-.3.3-.2.5.3.5.5.3M425.234 9.091c.2-.1.5-.4.5-.6s-.5-.2-.7-.2-.4.3-.3.6c0 .2.2.3.4.3 0 0 .1 0 .1-.1M427.133 17.091c.1 0 .4-.4.3-.6-.2-.1-.4-.2-.6-.2-.1.1-.3.4-.2.6s.3.2.5.2M430.834 5.89c.1-.1.3-.3.3-.4s-.3-.3-.4-.3-.5.3-.4.5.4.3.5.2M447.034 9.69c.2 0 .6-.5.5-.8s-.8-.2-1-.2c-.2.1-.4.4-.3.7s.6.4.8.3M437.834 7.79c.1 0 .3-.3.3-.3s-.3-.1-.5-.1-.2.2-.1.3c0 0 .1.1.3.1M437.533 10.69c.1-.1.2-.2.1-.4 0-.1-.2-.3-.3-.3-.1.1-.2.2-.2.4 0 .1.2.4.4.3M442.634 8.391c.1-.1.2-.3.1-.4s-.2-.2-.3-.2c-.1.1-.2.2-.2.3.1.1.3.3.4.3M421.233 11.49c-.1.1-.2.2-.2.3s.2.3.4.3.2-.3.1-.4-.2-.3-.3-.2M417.533 9.89c0-.1-.2-.3-.3-.2s-.1.3-.1.4c.1.1.2.2.3.1.1.1.1-.1.1-.3M439.134 8.591c.1 0 .1-.1.1-.2l-.2-.1s-.1.1-.1.2.1.1.2.1M422.434 15.89c.1 0 .1-.2.1-.2s-.1-.1-.2-.1-.1.1-.1.2.1.2.2.1M430.633 11.99c.1 0 .3-.1.3-.3s-.3-.1-.5-.1-.2.2-.1.3.2.1.3.1M446.634 13.49c.1-.1.4-.5.3-.7s-.5-.1-.7 0-.3.4-.1.6c.1.2.3.2.4.1.1.1.1 0 .1 0M451.133 8.79c.1-.1.2-.4.2-.5-.1-.1-.3-.2-.5-.1-.1 0-.3.4-.2.5s.4.2.5.1M443.534 16.891c-.1.1-.1.3-.1.4s.3.3.4.2.1-.4 0-.5-.2-.2-.3-.1M439.534 16.39c0-.1-.2-.2-.4-.1s0 .3 0 .4c.1.1.2.1.3.1s.1-.2.1-.4M452.734 14.691c.2-.1.2-.3.2-.4-.1-.2-.4 0-.5 0s-.1.3-.1.3c.1 0 .3.1.4.1"/></g><mask id="c" width="123" height="122" x="356" y="-101" maskUnits="userSpaceOnUse" style="mask-type:alpha"><path fill="#F5B527" d="M417.534 20.995c33.468 0 60.6-27.132 60.6-60.6s-27.132-60.6-60.6-60.6-60.6 27.132-60.6 60.6 27.131 60.6 60.6 60.6"/></mask><g fill="#F5B527" mask="url(#c)"><path d="M371.334.695c-.3-.1-.6-.2-.8.1s-.5.6-.9.7c-.2.1-.4.3-.4.5v.1c.1.3.5.6.8.4s.7-.3 1-.2q.6 0 .9-.6c0-.4-.2-.8-.6-1M373.433 13.195c.4 0 .8-.3.8-.7v-.1c0-.4-.4-.8-.7-.8-.5.1-.9.5-.9 1.1 0 .3.4.6.8.5M373.533 2.795c0-.6-.3-.9-.7-.8s-.7.5-.7.9q.3.6.9.6c.3-.1.5-.4.5-.7M372.933 4.195c-.2.1-.3.4-.3.6 0 .3.3.5.6.5.5-.1.5-.4.7-.8-.4-.4-.7-.5-1-.3M359.633 12.795c.3 0 .6-.3.6-.6s-.3-.6-.6-.6-.5.2-.5.5v.1c-.1.3.1.5.5.6 0 0-.1 0 0 0M384.834 4.195c0 .3.3.6.6.5.2 0 .5-.1.5-.4v-.1c0-.3-.2-.6-.5-.6-.3.1-.6.3-.6.6M374.934 5.694c-.2 0-.4 0-.5.2s-.1.5 0 .7c.2.4.5.2.9.1 0-.5 0-.8-.4-1M381.334 2.895c0 .2.3.4.6.3s.4-.2.3-.4-.1-.5-.5-.5c-.1.1-.3.3-.4.6M363.734 14.695c.1.2.4.3.6.3.3-.1.2-.9 0-.9s-.8.3-.6.6M376.934 12.995c0 .2.5.6.7.5s.2-.3.2-.5-.1-.4-.3-.4h-.1c-.2 0-.5 0-.5.4M365.434 12.695c0 .5.4.9.8.9.5-.1.8-.5.8-1s-.4-.8-.9-.8c-.4 0-.7.4-.7.8zM361.133.695c-.1-.3-.7-.2-.9-.1-.1.1-.2.3-.2.4 0 .2.2.4.5.4.3.1.7-.4.6-.7M369.634 14.795c.2 0 .4-.4.4-.5s-.2-.5-.5-.4c-.2.1-.3.2-.3.4s.2.5.4.5M377.834 2.095c.1-.2 0-.4-.2-.5s-.5 0-.7.1c-.1.1-.1.3 0 .4s.3.1.5.1c.1.1.3 0 .4-.1M362.533 8.395c-.3.3-.4.7-.2 1 .1.1.1.3.2.4-.3.3-.4.6-.5 1h-.3c-.5.2-.7.7-.5 1.2.3.5.9.6 1.4.3.2-.2.4-.4.5-.7h.1c.6 0 .8-.4.9-.9.3 0 .7.2.9-.2.1-.2 0-.5-.2-.7-.4-.3-.6 0-.9.2l-.5-.3.4-.7c-.1-.2-.2-.4-.3-.5-.2-.1-.6-.2-1-.1M366.633 14.895c-.7-.1-1.1.3-.9 1 .1.4.3.7.5 1.1.3.4.8.5 1.3.3.2-.1.6-.5.3-1-.8-.3-.4-.8-.9-1.2-.1-.2-.2-.2-.3-.2M378.334-.005c0 .5.4 1 .9 1h.1c.6-.1 1.1-.5 1.1-1.1-.1-.6-.6-1-1.1-1-.6-.1-1 .4-1 1.1M367.634 2.995c0-.7-.6-1.2-1.2-1.1-.6 0-1 .5-1 1.2s.4 1.4 1.1 1.3c.6-.1 1.1-.6 1.1-1.4 0 0 0 .1 0 0M369.433 7.295c-.5.1-.8.5-.9 1 .1.4.4.8.9.8q.75-.15.9-.9c-.1-.4-.5-.9-.9-.9M367.734 6.495c.6 0 1-.5 1-1.1s-.5-1-1.1-1-.9.4-.9 1.1.4 1 1 1M373.734.995c.2.4.3.7.5 1.1.1.2.4.3.7.2s.4-.5.2-.7c-.1-.2-.1-.3-.1-.5 0-.4-.3-.8-.7-.8-.4-.1-.7.1-.6.7M363.334 19.795c0 .5.4.8.7.8.5-.1.9-.5.9-1.1 0-.3-.5-.7-.9-.6-.4 0-.7.4-.7.8zM361.633 3.795c-.1-.5-.5-1-1.1-1-.3.1-.5.4-.5.7 0 .4.3.8.7.9h.1c.4 0 .8-.3.8-.6M371.734 9.595c.1.5.5.8 1 .8.4-.1.7-.5.7-.9 0-.3-.3-.6-.6-.6-.7 0-1.1.3-1.1.7M369.834 12.994c0 .4.2.7.6.7s.9-.5.9-.8-.4-.7-.9-.7-.6.3-.6.8M376.934 7.295c-.3.1-.6.4-.5.7.1.4.4.8.7.7s.9-.5.9-.8-.6-.7-1.1-.6M362.633 1.795c0-.3-.3-.5-.7-.5s-.8.3-.8.7.4.8.8.8c.3-.1.7-.7.7-1M365.934 8.895c.1.4.4.7.8.7.3 0 .5-.2.5-.5 0-.4-.3-.7-.7-.8-.3 0-.6.3-.6.6M370.634 4.595c0-.5-.2-.8-.5-.8-.4.1-.7.4-.7.8 0 .3.5.6.8.6s.5-.2.4-.6M360.133 15.495c-.3.1-.5.4-.5.7.1.3.4.5.7.5s.5-.3.5-.6c0-.4-.3-.6-.7-.6q.15 0 0 0M370.434 19.595c0 .3.3.6.7.6.3 0 .6-.3.6-.6v-.1c0-.3-.3-.5-.6-.5-.4 0-.7.2-.7.6M372.034 6.894c.3-.1.5-.1.5-.4 0-.5-.3-.8-.6-.8s-.6.3-.6.6v.1c.1.3.4.5.7.5M375.133 11.495c.1.3.3.6.7.6.3 0 .5-.3.5-.6s-.2-.6-.5-.6h-.1c-.4 0-.6.3-.6.6M375.733 17.695c.3 0 .5-.3.5-.6-.1-.3-.3-.5-.6-.5s-.5.2-.5.5.3.6.6.6M358.634 6.094c-.2-.2-.5-.2-.6 0-.2.2-.2.4-.2.7 0 .2.2.3.4.3-.2.4-.2.9-.1 1.3.1.3.2.5.4.7.3.2.7.3 1 .2.4-.1.8.2 1.1-.1.6-.4.9-1.2.7-1.9-.1-.5-.4-.8-.9-1s-.8.4-1.3.4h-.3c0-.3 0-.5-.2-.6M380.633 8.295c.1.3.3.5.6.5s.5-.3.5-.6v-.1c0-.4-.2-.6-.5-.6-.3.2-.6.4-.6.8M361.133 17.995c0 .3.3.5.6.5s.6-.2.6-.5v-.1c0-.3-.2-.6-.5-.6-.5.1-.7.4-.7.7M373.233 14.495c-.3 0-.6.2-.6.5 0 .2.1.5.4.5h.1c.3 0 .6-.2.6-.5s-.2-.4-.5-.5M378.434 2.995c0 .3.2.5.5.5.2 0 .6-.5.5-.7s-.3-.3-.5-.3-.5.1-.5.4zM362.633 12.995c-.1-.1-.4 0-.4.1-.1.2-.2.4-.1.6.1.3.4.2.7.1.1-.4.1-.7-.2-.8M377.333.095c0-.2-.2-.3-.3-.3-.2 0-.4.1-.5.2-.2.3.1.5.3.7.3 0 .5-.2.5-.6M355.333 17.795c.1.3.1.6.2 1-.1.3.1.5.3.6h.1c.3 0 .6-.2.6-.6 0-.2.1-.4.2-.6.3-.3.3-.7.1-1-.3-.3-.8-.4-1.2-.2-.1.2-.4.3-.3.8M377.734 4.795c0 .3.2.5.5.4s.4-.1.4-.3-.4-.6-.6-.5-.4.2-.3.4M358.434 4.595c.5 0 .9-.4.9-.9v-.1c0-.3-.1-.7-.2-1 .5-.2.7-.6.7-1.1 0-.4-.3-.7-.7-.7-.4-.1-.9.1-1 .6-.1.3-.1.7.1.9-.5.2-.8.7-.9 1.2.1.7.5 1.1 1.1 1.1M357.033 2.495c0-.3-.2-.5-.5-.5-.3.1-.5.4-.5.7s.3.5.6.5.5-.3.5-.6c-.1 0-.1 0-.1-.1M359.633 18.595c0-.3-.2-.6-.5-.6s-.6.2-.6.5.4.3.6.4.4 0 .5-.3c-.1 0-.1.1 0 0M387.434 1.695c0 .2.2.4.3.4s.4-.2.4-.3-.2-.5-.3-.5-.4.3-.4.4M378.934 16.095c0 .2.3.8.6.8s.5-.7.4-.9c-.1-.3-.3-.5-.5-.5-.2-.1-.4.3-.5.6M383.633 7.795c0 .1.1.4.2.4s.2-.3.2-.4-.2-.2-.2-.2c-.1 0-.2.1-.2.2M380.934 6.595c0 .1.2.2.3.2s.4-.1.4-.2q0-.15-.3-.3c-.1.1-.5.2-.4.3M381.633 12.295c.1.2.2.3.4.3.1 0 .2-.2.2-.3s-.1-.3-.2-.3-.4.1-.4.3M382.434 8.795c0 .1.1.1.2.1s.1-.1.1-.2-.1-.2-.1-.1c-.1 0-.2.1-.2.2M366.933 19.495l-.1-.1c-.1 0-.2.1-.2.2s.1.1.2.1c0-.1.1-.1.1-.2M356.133 14.795c.3.2.7.3 1 .2.3-.2.4-.5.4-.8.5-.1.9-.5.9-1 0-.4-.2-.8-.6-1 .2-.1.4-.3.4-.5.3-.5 0-1.2-.5-1.5-.4-.1-.8 0-1.1.3 0-.3-.3-.4-.5-.4-.3 0-.5.3-.5.6s.3.6.6.6h.1c0 .4.2.8.6.9h.1c-.3.2-.5.6-.5 1 0 .2 0 .3.1.5-.1 0-.3 0-.4.1-.4.2-.4.7-.1 1M365.733 5.295c-.3-.5-.9-.3-1-.4s.3-.9-.1-1.5c-.6-.7-1.6-.7-2.3-.1-.2.2-.3.4-.4.6-.1.3-.1.6 0 .8-.2.1-.3.3-.3.5 0 .3.3.5.6.6.2 0 .3-.1.4-.3.4.1.9.1 1 .2s-.4 1 .1 1.5c.4.5 1.1.6 1.6.2.5-.6.7-1.4.4-2.1M363.333.595c.7.2 1-.2 1.4 0s.7 0 1-.5c.1-.1.1-.1.1-.2.1.2.2.3.4.3.2-.1.3-.2.3-.4s-.1-.4-.3-.4h-.30000000000000004c.1-.3 0-.6-.3-.8-.6-.4-1 0-1.1.2s-.5.3-.5.1-.2-.5-.8-.6c-.5-.2-1 .1-1.2.6v.1c.2.7.6 1.4 1.3 1.6M354.533 9.495c.4-.2.4-.5.2-.8.3-.2.5-.5.7-.8.1-.3.1-.7-.1-1.1.2.1.5.1.7.1.8-.1 1-.4 1-1s-.5-1-1.1-1h-.2c.2-.2.4-.5.4-.8s-.4-.6-.8-.6-.8.3-.8.8v.1c0 .4.3.8.6.8h.1c-.2.2-.4.6-.4.9 0 .1.1.2.1.4-.5-.1-1 0-1.4.3-.3.4-.2 1 .1 1.3.2.3.5.5.3.9s.3.5.6.5M369.633 11.695c.3-.1.5-.3.5-.6-.1-.3-.3-.5-.6-.5-.3.1-.5.4-.5.7.1.2.3.4.6.4M357.233-.005c.1-.1.9.4 1.2-.3s.2-1.2-.5-1.5c-.2-.1-.4-.3-.6-.5 0-.2-.2-.4-.4-.5-.3-.4-.8-.5-1.3-.3s-.7.7-.5 1.2c0 .1 0 .1.1.2.2.3.7.3.8.6s-.3-.1-.3.7 1.1 1.2 1.5.4M379.433 4.295c-.1.6.2 1.1.7 1.3.6.1 1.2-.2 1.4-.8.1-.6-.3-1.2-.9-1.3-.5 0-1 .3-1.2.8M384.534 17.694c-.8 0-.9.1-.5.8q-.3.45-.3.9c.1.3.2.6.4.8.2.3.6.2.9-.2.2-.2.2-.5.2-.8-.1-.3-.4-.4-.6-.7 0-.2.1-.5-.1-.8M395.334 8.395c-.4.2-.6.6-.6 1 .1.2.2.4.4.5.5.3 1.2 0 1.5-.5-.1-.2-.2-.5-.3-.7-.3-.3-.7-.4-1-.3M394.633 5.995c-.5-.1-.7 0-.9.5s0 .8.4.9c.4 0 .9-.2 1.1-.6.1-.3-.2-.7-.6-.8M399.234 1.195c.3.1.6 0 .7-.3 0-.4-.2-.9-.5-1.1-.4-.1-.7.1-.8.6s.1.7.6.8M390.233 21.394c.3.1.6-.1.7-.4 0-.3-.2-.6-.5-.8-.3 0-.6.3-.8.6 0 .2.3.5.6.6"/><path d="M373.833 3.895c-.3 0-.6.2-.7.6 0 .3.1.5.4.6.3 0 .6-.2.7-.5.1-.4-.1-.7-.4-.7M365.333 9.895c-.1.3.1.6.4.7s.6-.1.7-.4-.1-.6-.3-.6c-.3-.2-.6 0-.8.3M362.334 13.194c-.3 0-.4.3-.4.5 0 .3.8.5.9.3s-.2-.8-.5-.8M363.733 15.495c-.4-.1-.9.1-1.1.5 0 .4.3.8.7 1s.9.1 1.1-.3.1-.9-.3-1.1c-.2-.1-.3-.1-.4-.1M376.434 14.895c.3 0 .4-.7.4-.8 0-.2-.2-.3-.4-.3s-.5.1-.6.3.3.8.6.8M360.434 18.795c-.1.2.2.5.4.6s.6-.1.6-.3-.2-.3-.3-.4c-.2-.1-.6 0-.7.1M403.734 2.295c0-.1 0-.3-.2-.3-.1 0-.2.1-.3.2 0 .1 0 .3.2.4s.3-.3.3-.3M385.634 8.695c-.1-.7-.6-1.3-1.2-1.5-.4-.1-.8 0-1.2.2-.5.3-.7.9-.6 1.4.2.5.8.9.8 1.1s-.9.6-.9 1.2c0 .4.2.7.5.9-.1-.1-.2-.1-.3-.1-.4-.1-.7.1-.8.4v.1c-.2.5.1 1 .6 1.1.5.2 1-.1 1.1-.6v-.1c.1-.4-.1-.7-.5-.9.2.1.4.1.5.2.8-.1 1.4-.6 1.6-1.3.1-.5-.6-.8-.6-1s1-.4 1-1.1M384.534.695c-.2-.1-.4-.4-.7-.3s-.4 1.1-.3 1.2.4.4.2.7-.7.3-.7.6-.3 1.1.1 1.5.6-.1.9-.2c.4-.1.6-.4.6-.8s-.3-.8-.2-1 .2-.4.5-.3.8 0 1-.7-.3-1.3-.8-1.2-.4.5-.6.5M371.334.695h-.5c-.3-.2-.8-.1-1 .2-.1.1-.1.2-.1.3-.1-.1-.1-.1-.2-.1-.2 0-.5.2-.6.6s.1.7.4.8.6-.2.6-.5c.2.1.3.1.5.2.3 0 .5.1.8.2.3.2.8.3 1.1.1.4-.1.6-.5.6-.9v-.1c.1.2.3.4.6.4.4.1.7-.2.8-.7.1-.4-.1-.8-.4-.9-.5-.1-.9.2-1.1.6v.2c-.1-.1-.2-.2-.4-.3-.3-.2-.7-.2-1.1-.1M393.734 1.995c.2.1.5 0 .6-.2v-.1c.2-.4.2-.8 0-.9-.3-.1-.7.1-.9.3-.2.3 0 .8.3.9M404.834 9.595c.1 0 .3 0 .4-.1 0-.1 0-.2-.1-.3-.1 0-.4-.1-.4.1s.1.3.1.3M385.834 12.395c-.3-.1-.6-.1-.8.2-.2.2-.1.4-.1.7.1.4.4.6.9.8l.6-.6c0 .1.1.2.1.3.1.5 0 .7-.5.5-.4-.2-.9 0-1.2.4q-.45.6 0 1.2c.2.4.7.5 1.1.3h.1c.3-.2.5-.4.7-.7.2-.2.3-.4.6-.3s.5-.2.5-.6c.5.4 1.2.4 1.7-.1l.1-.1c.4-.5.3-.8-.3-1.3v-1c-.1-.3-.4-.6-.7-.5-.4.1-.8.3-1.2.4-.5-.3-.5-.3-.9.2 0 .2.4.5 0 .7-.3-.2-.5-.4-.7-.5M391.833 17.795c.4-.2.6-.6.4-1 0-.1-.1-.2-.2-.2-.1-.1-.3-.2-.5-.5.2-.1.4-.3.5-.3.4 0 .8-.3.8-.7v-.1c0-.1.1-.2.2-.3.2-.4.1-.7-.1-.8s-.6 0-.8.5v.2c-.1.2-.2.3-.5.1s-.1-.2-.2-.2c-.3-.2-.8-.2-1.1 0-.4.2-.5.6-.4 1 .1.5.5.8 1 1-.1.2-.1.4-.1.7 0 .6.4.9 1 .6M389.234 18.395c-.4 0-.9-.2-1.2.3-.2.2-.5.4-.8.4-.4.1-.7.4-.8.8.2.6.6 1 1.2 1.3.4-.2 1-.4 1.6-.6.1 0 .1-.2.1-.3 0-.3 0-.6.2-.8.3-.5.1-1.1-.3-1.1M368.634 13.994c-.2-.4-.6-.5-.9-.5-.1 0-.3 0-.4.1-.2-.3-.4-.6-.8-.7v-.3c-.1-.5-.5-.9-1-.9-.5.2-.9.7-.7 1.3.1.3.3.5.5.7v.2c-.2.6.1.9.6 1.2-.1.3-.4.6 0 .9.2.2.5.2.7 0 .4-.3.2-.6 0-.9l.5-.4.5.6c.2 0 .4-.1.6-.2.2-.4.4-.7.4-1.1M379.233 8.895c.1.2.4.3.6.2 0 0 .1 0 .1-.1.2-.2.5-.3.8-.3.6-.1 1-.6 1-1.2v-.5c.2-.2.2-.6 0-.8s-.5-.1-.7 0-.5.3-.8.4-.5.3-.5.7c0 .1-.1.2-.2.3-.7.5-.7.7-.3 1.3M404.833 12.895c-.5 0-.9.2-1.2.5-.1.1-.1.3-.1.5.1.5.5.9 1.1.9h.5v.7c.1.4.2.6.7.5.4 0 .7-.2.8-.5s0-.7-.3-.9c-.2-.2-.4-.3-.6-.4v-.4c-.1-.4-.5-.8-.9-.9M361.234 15.995c.2-.3.2-.8-.2-1-.1-.1-.3-.1-.5-.1-.4 0-.8.1-1.2.2-.4.2-.7.7-.6 1.2 0 .3.3.8.8.6.6-.7.9-.2 1.5-.5.1-.2.2-.3.2-.4M380.734 20.195c-.1 0-.2-.1-.3-.1-.3-.2-.7-.1-.8.2q-.3.45 0 .9c.4.8.7 1 1.5.6.5-.3 1.1-.5 1.6-.8.6 1.1.8 1.1 1.5.4 0-.5-.4-.9-.9-.9h-.1c-.7-1.3-1.6-1.4-2.5-.3M399.033 20.995c.1-.5-.2-1-.7-1.1h-.1c-.5-.2-1.1 0-1.3.5 0 .1-.1.2-.1.2-.1.6.2 1.2.8 1.3.7.1 1.2-.3 1.4-.9M372.334 20.395c.6.2 1.3-.2 1.4-.8.2-.6-.1-1.1-.8-1.3s-1.4 0-1.6.7c-.1.6.3 1.3 1 1.4M367.733 20.895c0-.5-.3-1-.7-1.2-.4-.1-.9.2-1 .6-.1.5.2.9.6 1.1s.9-.1 1.1-.5M388.134 6.495c-.2.6.1 1.2.7 1.4h.1c.4.1.8-.1 1-.5h.1c.5 0 1-.3 1.1-.8s-.2-1.1-.7-1.3c-.4-.1-.9 0-1.2.4-.4 0-.9.3-1.1.8M396.333 17.494c-.5-.2-1.1.1-1.3.6 0 .6.3 1.2.8 1.5.5.1 1.1-.3 1.2-.8.2-.5-.1-1.1-.7-1.3M379.433 14.294c-.1-.1-.2-.2-.4-.3-.3-.3-.7-.3-1-.1-.4.2-.7.6-.6 1.1 0 .5.4.8.9.8h.2c.6-.2 1.1-.8.9-1.5M369.033 19.495c-.1.6.2 1.1.7 1.3.6.1 1.1-.2 1.3-.7.2-.6-.1-1-.8-1.2-.5-.2-1 0-1.2.5zM386.334 9.795c-.1.5.1 1 .6 1.2.6.1 1.2-.3 1.4-.9 0-.2 0-.4-.1-.6.2-.1.3-.3.4-.5.1-.3-.1-.6-.4-.7-.3 0-.6.2-.7.5v.1c-.5.1-1 .4-1.2.9M390.433 9.095c-.1.5.4 1 1 1.2.4.1.9-.1 1-.6v-.1c.1-.8-.1-1-.9-1.2-.5-.1-1 .2-1.1.7M401.233 15.695c-.1.4 0 .9.4 1.2.5.2 1 0 1.2-.5s0-1-.5-1.2c-.1 0-.1 0-.2-.1-.4 0-.8.2-.9.6M386.933 3.895c.3.1.7-.3.8-.7s-.1-.8-.7-1-.9.1-1 .4c-.1.6.3 1.1.9 1.3M357.533 11.395c-.5-.1-.9.1-1 .5-.1.5.3 1 .8 1.2.3.1.8-.3.8-.7.1-.4-.1-.8-.6-1q.15 0 0 0M380.634 15.595c.2.1.3 0 .5-.1.4-.3.5-.8.3-1.2-.1-.3-.3-.5-.6-.4-.4 0-.8.3-.9.8v.2zM373.334 14.395c.5.1 1-.2 1.2-.7 0-.3-.2-.6-.5-.7-.4-.2-.9 0-1 .4v.1c-.2.3 0 .8.3.9M367.533 4.495c0 .5.3 1 .8 1.1.4.1.7-.1.8-.5v-.1c.2-.4 0-.8-.4-.9-.1 0-.2-.1-.3-.1-.4 0-.8.2-.9.5M396.533 2.695c0 .4.2.7.5.8.4.1 1.1-.3 1.2-.6s-.4-.8-.8-.9-.8.2-.9.7M403.334 20.195c.4.1.8-.2 1-.6q.15-.6-.6-.9c-.4-.1-.8 0-1 .3q0 .9.6 1.2M399.434 17.395c-.1-.2-.3-.3-.5-.3-.4 0-.5.3-.6.7.2.3.5.6.9.4 0 0 .1 0 .1-.1.2.3.4.6.8.7.3.1.6-.1.7-.4.1-.5-.1-1-.5-1q-.6-.3-.9 0M392.033 18.995c-.4-.1-.7.3-.9.8 0 .3.2.6.5.7.4.1.9-.1 1-.5s-.1-.9-.5-1zM362.134 19.694c-.4-.1-.7 0-.8.4 0 .4.2.9.5 1.1.4.1.8-.1.9-.7s0-.7-.6-.8M385.933 17.495c-.3-.1-.7.1-.8.4-.1.4.1.8.4 1 .4.1.9-.1 1.1-.5.1-.3-.2-.7-.7-.9M375.034 15.995c.3.1.6-.1.7-.5s-.1-.9-.4-1c-.4-.1-.9.1-1 .6-.1.2.3.8.7.9M367.134-.906c-.3-.1-.7.2-.8.7-.1.3 0 .6.3.7h.1c.4 0 .8-.1 1.1-.5 0-.4-.2-.8-.7-.9 0 0 .1 0 0 0M395.633 3.395c-.6-.1-1 .1-1.1.4 0 .4.3.8.7.9.4-.1.7-.3.8-.7.1-.2-.1-.5-.4-.6M374.434 4.295c-.2.6 0 1 .4 1.1.4 0 .8-.2 1-.5.1-.3-.3-.8-.7-1-.2-.1-.5 0-.6.2zM387.633 16.395c-.4.3-.6.7-.5 1.2.1.3.4.4.7.4s.5-.2.6-.5c.1-.5-.6-1.1-.8-1.1M406.534 21.695c.4.1.8 0 1-.4.1-.4-.1-.8-.4-1-.3-.1-.8.2-.9.7-.1.3.1.6.3.7M367.233 16.995c-.4-.1-.8.2-1 .6-.1.3.1.6.4.6.4.1.8-.1.9-.4s0-.6-.3-.8M394.534 21.095c-.1.3.1.6.3.7h.1c.3.1.6-.1.7-.4 0-.3-.1-.6-.4-.8-.2 0-.5.2-.7.5M362.634 9.595c0-.3-.2-.6-.5-.7-.3 0-.6.2-.6.5-.1.3.1.6.4.6.2.2.6 0 .7-.4q0 .15 0 0M396.734-.505c-.2-.1-.4-.1-.5 0-.2.1-.3.3-.3.5 0 .1.2.3.3.4.3.1.6.2.8.3s.4-.1.4-.3c0-.1-.1-.2-.1-.2-.3-.3-.5-.5-.6-.7M391.533 4.094c.1.3.3.6.6.7.2 0 .6-.3.6-.6 0-.2-.1-.4-.4-.5h-.1c-.3 0-.6.1-.7.4M384.633 5.694c0 .2 0 .5.2.7q.45.3.9 0l.1-.1c0 .2 0 .4-.1.6 0 .2.1.4.2.5.2.2.4.4.5.6.2.3.6.4.9.2.4-.3.5-.6.2-1l-.6-.6.2-.4c.1-.2.1-.5-.1-.7-.3-.2-.6-.2-.9-.1-.2 0-.3.2-.4.3-.1-.3-.3-.4-.6-.5-.2 0-.4.1-.5.5q0-.15 0 0M372.034 10.895c.2-.2.4-.4.2-.6-.1-.2-.3-.3-.5-.4-.2 0-.4.1-.4.2-.3-.3-.8-.5-1.2-.5-.3 0-.5.1-.8.2-.3.2-.5.6-.5.9 0 .4-.4.7-.2 1.1.2.7.9 1.3 1.6 1.3q.75 0 1.2-.6c.3-.4-.1-.9 0-1.4v-.3c.2.3.4.3.6.1M359.933 9.795c-.3-.1-.6.1-.7.4s0 .6.3.7.6-.1.7-.4c.2-.3 0-.6-.3-.7M391.234 12.895c.2.1.3.1.5.1.3-.1.4-.3.5-.6s.2-.4.1-.7c-.3-.3-.7-.4-1.1-.1-.2.1-.3.3-.3.5-.3-.1-.6.1-.7.4 0 .3.1.6.4.6.3.1.5 0 .6-.2M400.134 13.895c-.2.2-.4.5-.2.9.1.2.5.3.7.2s.3-.3.3-.5c-.1-.5-.4-.6-.8-.6M390.934 3.095c0-.3-.1-.7-.5-.7s-.5.4-.4.7c.2.3.6.3.9.1-.1 0 0 0 0-.1M405.334 2.094c.3-.1.1-.9-.2-1s-.8.1-.8.4.7.8 1 .6M396.834 10.995c.1.1.2.3.4.4s.4 0 .5-.3.1-.5-.2-.6c-.3 0-.6.2-.7.5M364.233 12.695c.1-.1.1-.3.1-.4-.1-.2-.3-.3-.5-.3-.3 0-.3.4-.3.6.2.3.5.4.7.1M361.834 4.395c-.3 0-.7-.1-1-.1-.2-.1-.5-.1-.7.1 0 0 0 .1-.1.1-.1.3 0 .7.4.8.2.1.4.2.5.4.2.3.5.5.9.4.3-.1.6-.7.5-1.1s-.1-.6-.5-.6M365.434 4.994c-.1.3 0 .6.3.7h.1c.3.1.7-.1.8-.4 0-.3-.2-.6-.5-.7s-.6.1-.7.4M365.133 1.895c-.3-.1-.5.1-.5.3s.1.3.2.5c.3.1.6-.1.7-.4 0-.3-.2-.3-.4-.4M362.434 1.695c.3.1.6-.1.7-.4 0-.3-.1-.3-.3-.4s-.5.1-.5.3 0 .3.1.5M376.533 4.995v.4c-.2-.1-.3-.1-.5 0-.3.1-.4.4-.4.7.1.4.5.4.9.5.2-.2.3-.4.3-.7.1.1.2.2.4.2.6.1 1.1-.2 1.3-.8.1-.5-.1-1-.6-1.1-.6-.1-1.2.2-1.4.8M381.633 1.195c.1-.4-.1-.8-.5-1-.5-.1-1 .2-1.1.6-.1.3.3.7.7.8s.8-.1.9-.4M373.434 11.095c-.1.4.1.9.5 1.1h.1c.3.1.7.1 1 .1 0 .5.4.9.9 1 .4.1.8-.1.9-.5.2-.4.1-.9-.2-1.1s-.6-.2-.9-.1c-.1-.5-.4-1-.9-1.2-.6 0-1.1.3-1.4.7M375.834 10.395c.3.1.6-.1.7-.3 0-.3-.2-.6-.5-.7s-.6.1-.6.4c-.1.3.1.6.4.6M388.834 1.495c.3 0 .6-.2.7-.5 0-.2-.1-.5-.3-.5h-.1c-.3-.1-.6.1-.7.4 0 .3.2.5.4.6M359.734 8.194c.3.1.7 0 .7-.3s0-.7-.3-.7-.5.3-.5.5c-.1.1-.1.3.1.5M382.034 2.195c-.2-.2-.5 0-.6.3-.1.2 0 .4.2.5h.1c.2 0 .5 0 .6-.2s-.2-.4-.3-.6M377.434 8.595c-.3 0-.5.6-.2.8s.7-.1.8-.5c0-.2-.3-.4-.6-.3M403.634 11.595c.2-.2.2-.4-.1-.8-.3 0-.5.2-.6.4v.3c.2.2.4.3.7.1M407.733 13.095c.2-.2.3-.5.1-.7-.1-.1-.1-.1-.2-.1-.3 0-.5.2-.6.4v.3c.2.1.5.2.7.1M356.833 14.895c.1 0 .2 0 .2-.1s0-.2-.1-.2-.2.1-.2.1c-.1.1 0 .2.1.2M397.733 8.195c.1-.1 0-.2-.1-.3h-.1c-.1-.1-.2 0-.3.1-.1.2 0 .3.1.3s.3 0 .4-.1M397.333 11.895c-.3 0-.5.2-.7.4-.2.3-.3.6-.3 1s-.2.7-.1 1.1c.3.7 1.1 1.1 1.9.9.5-.1.9-.3 1.1-.8.2-.4-.3-.8-.2-1.3 0-1.3-.9-1.4-1.7-1.3M394.034 14.295c-.5.3-.7.9-.5 1.4.2.4.7.7 1.1.6s.6-.7.5-1.3c-.1-.5-.6-.8-1.1-.7M393.733 10.995c-.3.5-.2 1.1.3 1.4h.1c.5.3 1.2.2 1.5-.3.2-.6-.1-1.2-.6-1.5-.4-.3-1-.1-1.3.4M379.334 18.095c.4.5 1 .7 1.6.6.4-.2.3-.7.4-.8s.7.3 1.2.1c.5-.3.7-.9.5-1.5-.1-.3-.3-.6-.6-.8-.4-.2-.9-.1-1.2.2s-.3 1-.4 1-.7-.4-1.2-.1c-.3.3-.5.9-.3 1.3M364.434 5.995c-.3.2-.5.5-.5.9.1.3.4.6.7.6-.1.5.2 1 .7 1.2.4.1.8 0 1.1-.3 0 .2.2.4.4.6.4.4 1.1.4 1.5-.1.2-.4.2-.8 0-1.1.3 0 .5-.1.6-.4 0-.3-.1-.6-.4-.7s-.6.1-.7.4v.1c-.4-.1-.8 0-1.1.3-.1-.4-.4-.7-.8-.7h-.5c.1-.1.1-.3 0-.4-.2-.4-.6-.5-1-.4M370.633 17.995c.5-.1.6-.8.7-.9s.8.5 1.5.4c.7-.3 1.1-1 1-1.7-.1-.4-.3-.8-.6-1.1-.2-.2-.5-.3-.8-.3 0-.2-.2-.4-.4-.4-.3 0-.6.1-.7.4 0 .2 0 .4.2.5-.2.4-.4.8-.5.9s-.8-.6-1.5-.4c-.6.2-.9.9-.7 1.5.4.6 1.1 1.1 1.8 1.1M375.934 17.094c-.4.6-.1 1-.4 1.4s-.2.7.2 1.1l.1.2c-.2 0-.4.2-.4.3 0 .2.1.4.3.4.2.1.4 0 .5-.1 0-.1.1-.1 0-.2v-.1c.2.2.6.2.8 0 .5-.5.3-.9.1-1.1s-.2-.6.1-.5.5 0 .8-.6c.3-.4.2-1-.2-1.3 0 0-.1 0-.1-.1-.6-.3-1.4-.1-1.8.6M400.033 4.595c-.2-.1-.3 0-.5.1-.1.1-.3.1-.5.3-.2.3-.2.7-.1 1s.4.5.8.5c.3 0 .5-.1.7-.4s.2-.6.1-.8c-.2-.3-.2-.7-.5-.7M396.434 5.595c-.1 0-.2.2-.2.3.1.2.2.3.4.3.1 0 .2-.2.2-.3-.1-.2-.3-.3-.4-.3M400.333 9.694c.2.3.5.6.9.3s.2-.6.1-.7-.1-.4 0-.3.3 0 .5-.4c.2-.3.1-.6-.2-.8h-.1c-.4-.2-.9-.1-1.2.3-.2.4-.1.6-.2.9s0 .5.2.7M403.233 4.995c.3.2.7.5 1.1.4l.4-.4c.5 0 1-.2 1-.5 0-.2-.1-.5-.3-.6-.4-.2-.6-.1-1 .3-.4 0-.8 0-1.1.1-.2.1-.3.3-.3.5.1 0 .2.1.2.2M369.934 5.995c.1.4.4.6.7.4.2.3.3.6.6.9.3.2.6.3 1 .3-.2.2-.3.4-.3.7-.1.8.1 1.1.7 1.3.6.1 1.1-.2 1.3-.8v-.30000000000000004c.1.3.4.5.7.6s.7-.2.8-.6-.1-.8-.5-1h-.1c-.4-.1-.8 0-.9.4v.1c-.2-.3-.4-.5-.8-.6h-.4c.3-.4.3-.9.1-1.4-.3-.4-.8-.5-1.3-.3-.3.1-.6.3-1 0s-.5 0-.6.3M377.834 1.595c-.6-.2-1.2.1-1.5.6-.1.6.3 1.2.8 1.4.6.1 1.1-.3 1.3-.8.1-.5-.2-1-.6-1.2M363.434 19.795c0 .3.1.6.4.7.3 0 .6-.2.7-.5 0-.3-.2-.6-.5-.6-.3-.1-.5.1-.6.4M388.934 3.295c-.3-.1-.6.1-.6.4-.1.2 0 .5.3.6h.1c.3.1.6 0 .7-.3 0-.3-.2-.6-.5-.7q0 .15 0 0M378.333 11.395c.1.1-.6.7 0 1.3s1.1.5 1.6 0c.2-.2.4-.3.7-.4.2 0 .4-.1.5-.3.5-.2.7-.7.6-1.1-.2-.8-.8-1-1.2-.8s-.5.5-.8.6.2-.3-.5-.5-1.6.5-.9 1.2M357.633 2.495c.2.3.1.2 0 .5s-.1.8.5.9c.6 0 1.1-.4 1.1-1 0-.7-.6-1.3-1.2-1.3s-.7.6-.4.9M397.734 9.895c.4.5 1 .7 1.6.4.5-.4.6-1 .3-1.6-.3-.5-1-.5-1.6-.1-.4.3-.6.9-.3 1.3"/><path d="M397.034 21.495c.3.5 1 .6 1.5.3.5-.4.6-1 .3-1.5-.4-.5-1.1-.5-1.5-.1-.5.2-.6.8-.3 1.3M424.634 17.094c.2.5.8.7 1.3.5s.7-.8.5-1.3c-.1-.1-.1-.2-.2-.3-.4-.4-1.1-.4-1.5 0-.3.2-.4.7-.1 1.1M410.433 11.995c-.1.4 0 .9.4 1.1q.3.15.6 0c.5-.2.8-.9.6-1.4-.2-.1-.4-.2-.7-.2-.4-.1-.8.1-.9.5M397.733 7.295c.4-.4.5-1 .2-1.4-.3-.3-.9-.4-1.2 0-.3.3-.4.9 0 1.2.2.3.7.4 1 .2M391.433 13.094c.3-.2.5-.6.3-.9 0 0 0-.1-.1-.1-.3-.4-.8-.5-1.2-.3-.4.3-.4.8-.2 1.2.2.3.8.3 1.2.1M408.134 10.995c-.4.3-.5.5-.1 1s.6.5.9.3c.3-.3.4-.8.2-1.2-.2-.3-.6-.4-1-.1M407.433 4.394c.3-.2.4-.5.2-.8-.3-.3-.8-.4-1.2-.3-.4.3-.4.6 0 1s.6.4 1 .1M403.133 5.095c.3-.2.3-.7 0-1.1-.1-.2-.4-.3-.6-.1h-.1c-.4.2-.5.7-.3 1 .3.2.7.3 1 .2M384.533 18.595c.1-.2-.3-.9-.6-.8s-.4.4-.4.7c.1.3.9.4 1 .1M385.034 13.994c0-.2-.5-.6-.8-.5s-.5.5-.1.8 1 0 .9-.3M381.033 17.595c.2-.1.3-.3.2-.5 0 0 0-.1-.1-.1-.1-.1-.4-.4-.7-.2s0 .5.1.6c.1.3.3.3.5.2M395.533 1.494c.1-.1.1-.3.1-.4s-.3-.3-.4-.2-.1.4 0 .5c0 .1.1.2.3.1M386.334 18.795c0-.1-.1-.3-.3-.3s-.2.2-.3.3.1.3.3.4.3-.3.3-.4M383.834 10.695c.2-.2 0-.4 0-.4-.1-.1-.2-.1-.4 0-.1.1-.1.3 0 .4.1 0 .3.1.4 0M411.233 1.595c-.1-.1-.2-.2-.4 0q-.15.15 0 .3c.1.1.3.2.4.1s0-.4 0-.4M404.433 19.595c-.6-.4-1.3-.4-1.9 0-.3.2-.6.6-.6 1-.1.5.2 1.1.7 1.3s1.2 0 1.4.1-.1 1 .4 1.5c.3.2.7.3 1 .2-.1 0-.2.1-.3.2-.3.2-.4.6-.2 1 0 0 0 .1.1.1.3.4.8.5 1.3.2.4-.3.5-.9.2-1.3-.2-.3-.7-.4-1-.2.2-.1.3-.2.5-.3.4-.6.4-1.5 0-2.1-.4-.4-1-.1-1.1-.2s-.1-1-.5-1.5M397.534 15.195c-.2.1-.6 0-.7.3s.6 1 .8 1 .6 0 .6.3-.2.7 0 1 .7 1 1.2.9.3-.6.5-.8c.2-.3.1-.8-.2-1s-.8-.3-.9-.5-.2-.4.1-.6.5-.6.1-1.2-1.2-.6-1.4-.2.1.7-.1.8M404.533 9.095c.2-.1.3-.3.2-.5v-.1c-.2-.4-.5-.6-.7-.5-.3.2-.4.6-.4.9.2.2.6.3.9.2M417.533 5.495c.1-.1.2-.2.1-.3s-.2-.1-.3-.1c-.1.1-.3.2-.2.4s.3 0 .4 0M407.334 21.795c-.3.1-.4.4-.4.7s.3.4.5.5c.4.2.8.1 1.1-.2l-.1-.9.3.2c.5.2.5.5 0 .7-.4.2-.6.7-.4 1.2.1.4.5.7.9.8s.8-.2.9-.6v-.1c.1-.3.1-.7 0-1s-.1-.5.1-.7.2-.5-.1-.8c.8-.3 1.1-.7 1-1.5-.1-.6-.4-.7-1.2-.7l-.7-.7c-.3-.2-.7-.1-.9.2-.2.4-.3.8-.5 1.2-.6.1-.6.2-.5.8.2.2.6 0 .6.4-.1.3-.3.4-.6.5M415.334 20.695c.1-.4-.1-.8-.5-1h-.3c-.2 0-.5 0-.7.1 0-.3 0-.5.1-.6.3-.3.3-.7 0-1-.1-.1-.1-.2-.1-.3-.2-.4-.4-.5-.7-.4s-.4.5-.1.9l.1.1c.1.2.1.4-.2.4h-.3c-.4.1-.7.4-.8.8s.1.9.5 1c.4.2 1 .2 1.4 0 .1.2.3.4.4.6.6.2 1.1.1 1.2-.6M419.934 7.694c-.3.3-.5.8-.4 1.2 0 .2.2.3.3.4.5.3 1.1.2 1.4-.3v-.1l.2-.3c.2.1.4.3.5.4.2.2.6.2.8 0l.1-.1c.2-.3.3-.7.1-1s-.5-.4-.8-.4c-.2.1-.5.1-.7.2-.1-.1-.2-.1-.3-.2-.3-.1-.8-.1-1.2.2M386.834 20.095c.2.3.5.7.8.9.4.3.9.2 1.3-.1.2-.2.3-.4.2-.6-.3-.6-.8-1.1-1.3-1.4-.1 0-.2-.1-.3-.1-.4 0-.7.3-.8.7 0 .3 0 .5.1.6M428.534 19.795l-1.2.6c-.5-.7-.5-.7-1.1-.2.1.4.3.6.8.5.4 1 1 1 1.7.2h.2c.3.1.5 0 .6-.2q.15-.3 0-.6c-.2-.5-.4-.6-1-.3M422.433 17.294c-.3-.4-.9-.5-1.3-.2h-.1c-.5.3-.7.9-.4 1.3 0 .1.1.2.1.2.4.5 1.1.6 1.5.2.5-.4.5-1 .2-1.5M404.333 16.295c.3.5 1 .7 1.5.3 0 0 .1 0 .1-.1.4-.2.5-.7.3-1.1l.1-.1c.4-.4.4-1 .1-1.4-.4-.4-1-.5-1.4-.2s-.5.7-.5 1.1c-.4.5-.4 1.1-.2 1.5M418.034 17.095c-.5.3-.6.9-.4 1.4.5.4 1.1.5 1.7.3.4-.4.5-1 .2-1.4-.4-.5-1-.6-1.5-.3M405.733 19.695c.3.4.9.6 1.3.3.4-.4.5-1.1.3-1.6-.1-.2-.3-.3-.5-.3.1-.2 0-.4-.1-.6-.2-.2-.5-.3-.8-.1-.2.2-.3.6 0 .9l.1.1c-.5.4-.6.9-.3 1.3M407.833 16.195c.4.4 1.1.4 1.5 0 .4-.3.4-.8.2-1.1l-.1-.1c-.6-.6-.8-.5-1.5-.2-.4.4-.4 1-.1 1.4M400.634 6.795c-.4.4-.5 1.1-.1 1.5.2.4.7.5 1 .2l.1-.1c.4-.3.6-.8.3-1.3l-.1-.1c-.2-.3-.7-.5-1.2-.2M419.833 12.195c.2.4.9.6 1.2.5.4-.3.5-.8.3-1.3-.3-.4-.9-.5-1.4-.2-.3.2-.3.7-.1 1M401.534 15.495c.3-.3.2-.8 0-1.1s-.6-.4-1-.2c-.1 0-.1.1-.2.1-.3.2-.5.6-.3 1 .4.4 1 .5 1.5.2M391.134 19.195c-.3.2-.4.7-.2 1l.1.1c.3.4.7.5 1 .2.4-.4.5-.9.2-1.4-.4-.2-.8-.2-1.1.1M406.833 7.395c.2.3.6.3 1 .1.3-.3.4-.8.3-1.3-.4-.3-.9-.3-1.2 0-.4.4-.4.8-.1 1.2M424.634 13.494c.3-.3.4-.8.2-1.2s-.6-.4-1-.1c-.3.2-.5.6-.4 1 .3.4.8.5 1.2.3M422.534 21.995c.4-.3.5-.8.3-1.2-.2-.2-1-.2-1.3 0-.3.3-.3.8.1 1.1.2.2.6.2.9.1M419.933 14.695c-.2-.1-.4 0-.6.2-.3.3-.1.6.1.9.4 0 .8 0 .9-.4v-.1c.3.1.7 0 1-.2.2-.2.3-.6.1-.8-.2-.4-.7-.5-1.1-.3-.2.1-.4.4-.4.7M395.033 9.895c-.3.3-.4.8-.1 1.2.3.3.8.3 1.1.1.2-.2.3-.5.2-.8-.4-.6-.9-.8-1.2-.5M406.833 8.594c-.5.4-.6.8-.4 1.1.3.3.799.4 1.099.1s.4-.8.1-1.1c-.2-.3-.599-.3-.799-.1M427.834 11.994c.3-.2.5-.6.3-1-.2-.3-.7-.5-1.1-.4-.3.2-.3.7-.1 1.2.3.3.7.4.9.2M419.634 20.794c.2.3.5.4.8.2h.1c.2-.2.3-.5.2-.8-.2-.2-.6-.3-.9-.2s-.3.5-.2.8M405.234 3.695c.2-.2.4-.7.2-.9-.3-.3-.7-.3-1-.1-.2.2-.3.6-.1.8.2.3.6.4.9.2M394.234 6.594c.3-.1.5-.4.4-.8s-.4-.5-.8-.4c-.1 0-.1 0-.2.1-.2.2-.2.7 0 1.1zM404.533 5.194c-.1 0-.3.2-.4.4 0 .2 0 .4.2.5s.3.1.5 0c.3-.1.5-.3.8-.5.2-.1.2-.3 0-.5-.1 0-.2-.1-.3 0-.3.1-.5.1-.8.1M404.733 12.095c.3.2.7.2 1 0 .2-.3.1-.6-.1-.9q-.3-.3-.6 0v.1c-.4.3-.5.6-.3.8M390.233 5.795q.3-.45 0-.9c-.2-.2-.5-.3-.8-.1-.2.1-.3.4-.2.7.3.3.8.5 1 .3M401.434 18.395q.3.3.6.3c.3-.1.6-.4.5-.7v-.1c.2.1.3.3.4.5.1.1.3.2.5.2h.8c.4 0 .7-.2.7-.6 0-.5-.1-.8-.6-.8-.3 0-.5 0-.8.1l-.2-.4c-.1-.2-.3-.4-.6-.3-.4 0-.5.3-.6.6-.1.2-.1.3 0 .5-.3-.1-.5-.1-.8.1 0 0-.1.3.1.6 0 0 0-.1 0 0M411.234 17.995c.2-.1.3-.2.4-.3.1-.3.1-.5-.1-.8-.1-.2-.2-.5-.5-.5s-.8.3-.8.7c0 .2.1.4.2.6-.3.2-.3.6-.2.8.2.2.5.3.7.1.3-.1.4-.4.3-.6M417.734 11.895c0 .3.1.7.5.7.3.1.5-.1.6-.4 0-.2-.1-.4-.2-.6-.4-.2-.7 0-.9.3M397.534 12.595c.2.2.5.3.7.1.2-.1.3-.4.2-.7-.2-.3-.5-.3-.8-.2-.3.2-.3.5-.1.8M429.133 15.194c-.4.1-.4.5-.3.9.3.1.7.3.9-.1.2-.2.1-.5-.1-.7-.1-.1-.3-.1-.5-.1M403.533 11.894c-.3-.2-.6-.3-.9 0s0 .6.2.8c.3 0 .6-.3.6-.6.1 0 .1-.1.1-.2M412.133.295c.1-.3-.6-.7-.9-.5s-.5.7-.2.9 1-.1 1.1-.4M388.933 16.695c-.2 0-.4.5-.2.7s.5.3.7.1c.2-.1.2-.4.1-.5 0 0 0-.1-.1-.1-.1-.2-.3-.3-.5-.2M424.733 20.995c-.3.2-.1.6 0 .8s.4.3.6.1.3-.4.1-.6-.4-.5-.7-.3M387.934 16.794c.1-.2.2-.4.2-.6s-.5-.3-.7-.1c-.1.1-.1.3-.2.5.3.3.6.4.7.2M405.933 1.595c.2-.1.3-.5.2-.7s-.4-.2-.6-.1-.3.4-.1.6c0 .3.3.4.5.2q0 .15 0 0M413.433 12.495c.2 0 .4 0 .6-.1s.2-.4.1-.6-.3-.3-.6-.2c-.2.3-.3.6-.1.9M389.934 9.494c-.1-.3-.6-.2-.9-.2l-.1.1c-.1.2 0 .5.2.6.1.1.3.2.4.2.1-.2.5-.5.4-.7M395.233 8.195c.2-.1.1-.4 0-.6s-.4-.3-.6-.1c0 0-.1 0-.1.1-.1.2-.4.5-.1.7s.6 0 .8-.1M430.434 20.095c-.1.1-.2.4-.2.5.2.3.5.3.7.2s.3-.4.1-.6c-.2-.1-.4-.2-.6-.1M396.133 17.795c-.2-.3-.7-.5-1.1-.3-.4.3-.5.9-.2 1.3.2.2.7.2 1 0s.4-.7.3-1M396.333 14.095c.5-.3.4-.9.3-1.2s-.8-.3-1.2.1c-.2.2-.2.5-.1.8.2.3.7.5 1 .3M400.934 12.394c.2-.2.3-.6.1-.8s-.5-.2-.6 0c-.3.2-.3.5-.2.8.2.2.5.2.7 0 0 0 0 .1 0 0M397.133 18.195c-.2 0-.3.4-.1.6.1.2.3.3.5.2 0 0 .1 0 .1-.1.1-.1.4-.4.2-.6s-.5-.2-.7-.1M393.133 11.394c.2-.2.1-.7 0-.8q-.3-.3-.6 0c-.2.1-.2.3-.1.5l.1.1c.1.1.4.4.6.2M393.833 8.695c.1-.2.1-.4.1-.5-.2-.2-.5-.2-.6-.1l-.1.1c-.1.1-.1.3-.1.4.2.3.6.3.7.1M384.434 21.195c0 .2.9.6 1.1.4s.1-.7-.3-.9-.8.3-.8.5M418.233 7.795c0-.3-.1-.4-.7-.5-.2.2-.2.5 0 .7.1.1.1.1.2.1.2.1.5-.1.5-.3M422.034 5.595c0-.3-.2-.5-.4-.5-.1 0-.2 0-.3.1-.2.2-.2.5 0 .7.1.1.1.1.2.1.2 0 .4-.2.5-.4M385.934 13.594c0 .1.3.4.5.2s.1-.5 0-.6-.3-.3-.5-.1c-.1.1-.1.3 0 .5M396.333 2.295c0 .1.2.2.4.1s0-.3 0-.5c-.1-.1-.2-.1-.3-.1-.2.2-.2.4-.1.5M389.533 10.895c.1 0 .1.1.2.1s0-.1 0-.2-.2-.1-.2 0zM411.834 9.995c0-.1-.2-.2-.3-.1h-.1c-.1 0-.2.1-.1.2v.1c0 .1.2.2.3.1.2 0 .2-.1.2-.3q0 .15 0 0M414.333 12.695c-.1.2-.2.5-.2.8q.15.6.6.9c.3.2.4.7.8.8.7.2 1.5-.1 1.9-.8.3-.4.3-.9.1-1.3s-.8-.3-1.2-.7c-.8-.9-1.6-.4-2 .3M414.134 16.795c-.1.6.2 1.1.7 1.3.5.1.9-.1 1.2-.5.2-.4-.2-.9-.7-1.2-.4-.2-1 0-1.2.4M411.334 14.795c.2.5.7.8 1.2.7h.1c.7-.3.9-.9.7-1.4-.3-.5-1-.7-1.5-.5-.4.2-.6.7-.5 1.2M391.434 16.495c.8-.1.599-.9 1.099-.8s.201.6.901.7 1.299-.4 1.099-.9-.699-.5-.699-.7.099-.7-.301-.8c-.9-.2-.799.7-1.099.7s-.8-.2-1.2-.2c-.6 0-1.1.4-1 1 0 .6.5 1 1.1.9 0 .1.1.1.1.1M410.533 5.895c-.2.1-.3.2-.3.4-.1.2-.1.4 0 .5.1.3.4.6.7.8.3.1.7 0 .9-.2s.2-.5.1-.8c-.1-.2-.3-.6-.6-.6s-.6-.2-.8-.1M409.034 9.294c-.1.1 0 .3.1.4.2.1.3 0 .4-.1s0-.3-.1-.4c-.2 0-.3 0-.4.1M414.633 8.995c.3 0 .8 0 .8-.5s-.3-.5-.5-.5-.4-.2-.2-.2q.3 0 0-.6c-.1-.3-.4-.5-.7-.4h-.1c-.4.2-.7.6-.5 1.1.1.5.4.5.5.8s.4.3.7.3M412.933 3.695c.4-.1.8-.2 1.1-.6l-.1-.5c.4-.4.5-.9.3-1.1s-.4-.2-.6-.1c-.4.2-.5.4-.4 1l-.6.9c-.1.2 0 .4.2.5 0-.1 0-.1.1-.1M393.934 20.995c-.5.3-.7 1-.5 1.5.4.4 1 .6 1.6.3.4-.4.5-1 .2-1.5s-.9-.6-1.3-.3M402.434 13.594c-.2.2-.3.5-.1.7.1.2.4.3.6.2h.1c.3-.2.4-.5.2-.8-.2-.2-.6-.3-.8-.1M434.734 21.295c0 .3 0 .6.3.7.4.1.7.3.9.7.1.2.4.3.6.2l.1-.1c.3-.2.4-.7.1-.8-.3-.2-.5-.6-.5-.9-.1-.4-.4-.6-.8-.6s-.6.4-.7.8"/><path d="M419.634 21.194c.1.5.6.9 1.2.8.6-.2.9-.8.8-1.4-.2-.5-.8-.8-1.3-.6-.5.1-.8.6-.7 1.2M427.333 15.295c.4-.2.5-.6.3-1.1-.2-.3-.5-.5-.9-.4-.3.1-.7.9-.6 1.2.3.4.8.5 1.2.3M446.034 15.495c-.1-.4-.6-.6-1-.5-.4.2-.7.6-.5.9.3.5.8.7 1.3.5.2-.1.3-.5.2-.9M436.034 18.595c-.6.2-.8.5-.6 1 .2.3.6.5 1 .4.3-.3.4-.7.3-1.1-.1-.3-.4-.4-.7-.3M437.634 18.695c.2.2.5.2.7.1.3-.1.4-.5.3-.8-.2-.4-.6-.4-.9-.4-.4.6-.4.9-.1 1.1M427.834 17.495c0 .4 0 .8.4.9.3.1.6 0 .7-.3.1-.2.1-.5-.1-.6-.3-.3-.6-.2-1 0M412.434 14.995c0 .4 0 .8.4.9.3.1.6-.1.7-.3s.1-.5-.1-.6c-.4-.4-.7-.2-1 0M433.933 7.395c.3-.1.4-.4.3-.7 0-.2-.3-.4-.5-.4h-.1c-.3.1-.5.4-.4.7.2.3.5.4.7.4M438.434 16.394c0 .2.1.3.3.4.2 0 .5 0 .7-.2.3-.3 0-.6-.2-.9-.4.1-.8.2-.8.7M433.734 11.095c.2-.1.3-.4.1-.7 0-.2-.2-.3-.4-.2h-.1c-.2.1-.4.3-.3.6.2.2.5.3.7.3M444.733 12.295c.2-.1.4-.6.3-.8s-.4-.1-.6-.1-.3.2-.3.4v.1c.1.3.3.5.6.4M448.733 18.795c0-.2-.5-.2-.6-.2s-.4.4-.3.6c.1.1.3.2.5.2.1-.2.4-.5.4-.6M413.133 18.295c.1 0 .301-.1.301-.3s-.301-.2-.301-.2c-.1.1-.199.2-.199.3-.1 0 .099.3.199.2M434.134 14.695c-.2-.1-.4.1-.4.3s.1.5.3.6c.1.1.3.1.4 0v-.1c0-.2 0-.3-.1-.5 0-.1 0-.3-.2-.3M430.833 18.494c.4.2 1 .1 1.2-.3.3-.3 0-.9-.5-1.3-.4-.3-1-.1-1.3.3-.2.4.1 1 .6 1.3M449.633 21.495c0 .4.3.7.7.7.2 0 .4-.1.5-.2.3-.2.6-.5.9-.8.3-.4.2-1-.1-1.3-.2-.3-.6-.3-.9-.1l-.1.1c-.1.9-.6.6-.9 1.2-.1.2-.1.3-.1.4M431.933 14.795c.5-.1.8-.7.6-1.2v-.1c-.2-.6-.8-.8-1.4-.7-.5.3-.8.8-.6 1.4.2.5.8.8 1.3.6 0 .1.1.1.1 0M441.634 21.095c.3.4.7.7 1.2.6.4-.2.6-.7.5-1.1-.2-.4-.6-.6-1.1-.6-.5.2-.7.7-.6 1.1M422.434 20.595c-.1.3 0 .6.3.7.1.1.2.1.4 0l.6-.6c.7.1 1.2-.2 1.2-.6-.1-.5-.4-.9-.9-1s-.6.2-.8 1.1c-.4-.1-.7-.1-.8.4M418.533 17.795c.4-.2.6-.7.4-1.2-.3-.4-.8-.6-1.2-.3-.4.2-.5.6-.4 1 .1.5.7.7 1.2.5q-.15 0 0 0M434.333 18.995c.3-.3.6-.5.9-.8.2-.2.2-.5 0-.7s-.5-.2-.7 0c-.1.1-.3.2-.4.3-.4.1-.6.5-.6.9-.1.3.2.5.8.3M409.434 21.395c.5.1 1.1-.3 1.1-.7s-.2-.7-.6-.8c-.3-.1-.7 0-.8.3-.1.2-.6.7-.4 1s.5.2.7.2M443.133 18.295c.4-.3.6-.7.5-1.2-.2-.3-.6-.5-1-.4-.3.1-.5.4-.4.8 0 .6.5.9.9.8M446.833 18.995c.4-.2.6-.4.5-.8-.2-.4-.6-.6-1.1-.6-.4.1-.6.6-.5.9 0 0 0 .1.1.1.1.5.5.6 1 .4M439.333 13.995c.2.3.5.4.8.3.4-.1.6-.5.5-.9-.2-.4-.6-.6-1.1-.6-.3.2-.4.8-.2 1.2M421.333 18.395c.4-.2.6-.6.6-1-.1-.3-.4-.5-.8-.4-.4.2-.6.6-.5 1 .1.3.4.5.7.4M427.533 20.095c.3-.1.4-.4.2-.8s-.4-.6-.8-.5-.7.6-.5.9c.3.2.7.4 1.1.4M438.633 20.795c-.5.2-.7.5-.6.7.2.4.6.5 1 .5.3-.2.5-.6.3-1-.1-.3-.4-.4-.7-.2M453.033 16.495c.3-.1.5-.5.3-.8-.1-.3-.4-.5-.7-.4h-.1c-.3.1-.4.5-.3.8s.4.5.8.4c0 0-.1 0 0 0M440.334 18.795c-.1-.2-.3-.5-.5-.4-.5.2-.6.5-.5.8s.4.5.8.4h.1c.2-.2.3-.5.1-.8q.15 0 0 0M424.734 16.195c.3-.2.4-.5.3-.8s-.4-.4-.7-.3-.5.4-.4.7v.1c.2.2.5.4.8.3M443.834 14.495c.3-.2.4-.5.3-.8s-.4-.4-.7-.3-.5.4-.4.7v.1c.2.3.5.4.8.3M449.634 12.094c-.1-.3-.5-.4-.8-.3s-.4.5-.3.8.4.4.7.3c.3-.2.5-.5.4-.8M439.233 10.195c.3-.1.4-.5.3-.8s-.5-.4-.7-.3c-.4.1-.5.4-.4.6.1.4.4.5.8.5M447.334 15.295c.1.3.4.5.7.4.2 0 .4-.2.4-.5v-.1c-.1-.3-.4-.5-.6-.4-.4.1-.6.4-.5.6M434.733 13.795c.2-.1.4-.3.3-.6 0-.2-.6-.5-.8-.3-.1.1-.2.4-.2.5 0 .2.3.4.5.4zM415.533 20.895c.2-.1.6-.5.5-.7s-.6-.2-.8-.2-.3.4-.2.6.3.5.5.3M432.333 15.794c-.1.1-.2.2-.2.4s.2.3.3.4c.4.1.5-.2.6-.5-.1-.3-.3-.5-.7-.3M436.733 13.995c.3-.1.4-.4.2-.6s-.3-.3-.4-.3-.4.5-.3.8.3.2.5.1M424.033 13.794c.2-.1.5-.5.5-.7s-.6-.2-.8-.1-.3.3-.2.5.3.5.5.3M425.234 8.795c.2-.1.5-.4.5-.6s-.5-.2-.7-.2-.4.3-.3.6c0 .2.2.3.4.3 0 0 .1 0 .1-.1M427.133 16.795c.1 0 .4-.4.3-.6-.2-.1-.4-.2-.6-.2-.1.1-.3.4-.2.6s.3.2.5.2M430.834 5.595c.1-.1.3-.3.3-.4s-.3-.3-.4-.3-.5.3-.4.5.4.3.5.2M447.034 9.395c.2 0 .6-.5.5-.8s-.8-.2-1-.2c-.2.1-.4.4-.3.7s.6.4.8.3M437.834 7.495c.1 0 .3-.3.3-.3s-.3-.1-.5-.1-.2.2-.1.3c0 0 .1.1.3.1M437.533 10.394c.1-.1.2-.2.1-.4 0-.1-.2-.3-.3-.3-.1.1-.2.2-.2.4 0 .1.2.4.4.3M442.634 8.095c.1-.1.2-.3.1-.4s-.2-.2-.3-.2c-.1.1-.2.2-.2.3.1.1.3.3.4.3M421.233 11.194c-.1.1-.2.2-.2.3s.2.3.4.3.2-.3.1-.4-.2-.3-.3-.2M417.533 9.594c0-.1-.2-.3-.3-.2s-.1.3-.1.4c.1.1.2.2.3.1.1.1.1-.1.1-.3M439.134 8.295c.1 0 .1-.1.1-.2l-.2-.1s-.1.1-.1.2.1.1.2.1M422.434 15.595c.1 0 .1-.2.1-.2s-.1-.1-.2-.1-.1.1-.1.2.1.2.2.1M430.633 11.695c.1 0 .3-.1.3-.3s-.3-.1-.5-.1-.2.2-.1.3.2.1.3.1M429.533 18.895c-.6 0-1.1.5-.9.9s.6.7 1 .9c.3.2.6-.2.7.3s.4 1.3 1.1 1c.4-.2.6-.6.5-1 .3.2.7.2 1 .1.5-.3.7-.9.5-1.4-.2-.4-.7-.6-1.1-.5-.4.2-.7.7-.7 1.1-.1-.1-.3-.2-.4-.2-.3 0-.1-.7-.6-.8s-.5-.4-1.1-.4M445.733 19.594c-.1-.3-.5-.4-.8-.3s-.4.5-.3.8.5.4.8.2c.3-.1.4-.4.3-.7 0 0 0 .1 0 0M450.533 18.795c.4-.3.3-.7 0-1.1-.3-.3-.6-.3-1-.1-.3.4-.4.8-.3 1.3.4.2.9.2 1.3-.1"/><path d="M451.633 20.694c.1.4.2.7.6.7.3 0 .5-.2.6-.5.1-.2 0-.5-.2-.6-.4-.1-.7.2-1 .4M448.234 20.395c.3-.2.3-.6.1-.9-.2-.2-.5-.3-.7-.1-.3.2-.4.5-.2.8v.1c.2.2.6.2.8.1M446.934 18.295c.1-.2.4-.6.2-.8s-.6 0-.8.1-.2.3-.1.5l.1.1c.2.2.5.3.6.1M446.634 13.194c.1-.1.4-.5.3-.7s-.5-.1-.7 0-.3.4-.1.6c.1.2.3.2.4.1.1.1.1 0 .1 0M450.733 20.295c.1-.1.2-.5.1-.6q-.3-.15-.6 0c-.1.2-.2.5-.1.6q.3.15.6 0M451.133 8.495c.1-.1.2-.4.2-.5-.1-.1-.3-.2-.5-.1-.1 0-.3.4-.2.5s.4.2.5.1M443.534 16.595c-.1.1-.1.3-.1.4s.3.3.4.2.1-.4 0-.5-.2-.2-.3-.1M439.534 16.095c0-.1-.2-.2-.4-.1s0 .3 0 .4c.1.1.2.1.3.1s.1-.2.1-.4M445.934 20.495c.1-.1.1-.2 0-.2h-.2s-.1.1 0 .2zM452.734 14.395c.2-.1.2-.3.2-.4-.1-.2-.4 0-.5 0s-.1.3-.1.3c.1 0 .3.1.4.1"/></g><path fill="#F5F7FA" d="M364.818 59.728c11.819 0 21.4-9.581 21.4-21.4 0-11.82-9.581-21.4-21.4-21.4s-21.4 9.58-21.4 21.4 9.581 21.4 21.4 21.4"/><mask id="d" width="44" height="44" x="343" y="16" maskUnits="userSpaceOnUse" style="mask-type:alpha"><path fill="#E6EBF2" d="M364.818 59.728c11.819 0 21.4-9.581 21.4-21.4 0-11.82-9.581-21.4-21.4-21.4s-21.4 9.58-21.4 21.4 9.581 21.4 21.4 21.4"/></mask><g fill="#E6EBF2" mask="url(#d)"><path d="M379.118 49.528c-.4 0-.8.3-.8.7v.1c0 .4.4.8.7.8.5-.1.9-.5.9-1.1 0-.3-.4-.5-.8-.5M379.117 60.028c0 .6.3.9.7.8s.7-.5.7-.9q-.3-.6-.9-.6c-.3.1-.5.3-.5.7 0 0 0-.1 0 0M379.717 58.528c.2-.1.3-.4.3-.6 0-.3-.3-.5-.6-.5-.5.1-.5.4-.7.8.4.4.7.5 1 .3M367.817 58.628c0-.3-.3-.6-.6-.6s-.5.2-.5.4v.1c0 .3.2.6.5.6.4 0 .6-.2.6-.5M377.718 57.028c.2 0 .4 0 .5-.2s.1-.5 0-.7c-.2-.4-.5-.2-.9-.1 0 .5 0 .9.4 1M371.317 59.928c0-.2-.3-.4-.7-.3s-.4.2-.3.4.1.5.5.5c.2-.1.5-.3.5-.6M384.017 40.428c0-.2 0-.4-.1-.5-.3-.2-.6-.1-.8.2-.1.2.1.6.5.6.2-.1.3-.2.4-.3M375.617 49.828c0-.2-.5-.6-.7-.5s-.2.3-.2.5.1.4.3.4h.1c.3 0 .5-.1.5-.4M387.217 50.028c0-.5-.4-.9-.8-.9-.4.1-.8.5-.8 1 0 .4.3.8.7.8h.2c.4 0 .7-.4.7-.8zM383.017 47.928c-.2 0-.4.4-.4.5s.3.5.5.4.3-.2.3-.4-.2-.5-.4-.5M385.917 47.828c.4.2.8 0 .9-.4q.15-.3 0-.6c-.1-.4-.3-.7-.5-1.1-.3-.4-.9-.5-1.3-.3-.2.1-.6.5-.3 1 .8.3.4.8.9 1.2.1.1.2.2.3.2M385.018 59.728c0 .7.6 1.2 1.2 1.1.6 0 1-.4 1-1.2s-.4-1.4-1.1-1.3c-.7 0-1.2.6-1.2 1.3.1 0 .1.1.1.1M383.218 55.428c.5-.1.8-.5.9-1-.1-.4-.5-.8-.9-.8-.4.1-.8.4-.9.9q.15.75.9.9M384.918 56.229c-.6 0-1 .4-1 1v.2c.1.5.5.9 1.1.9s.9-.4.9-1.1-.4-1-1-1M380.917 53.128c-.1-.5-.5-.8-1-.8-.3 0-.7.5-.7.9 0 .3.3.6.6.6.7 0 1.1-.3 1.1-.7M382.717 49.728c0-.4-.3-.7-.6-.7s-.9.6-.9.9.4.7.9.7q.75 0 .6-.9M375.718 55.528c.3-.1.6-.4.5-.7-.1-.4-.4-.8-.7-.7s-.9.5-.8.8.5.6 1 .6M386.718 53.828c-.1-.4-.4-.7-.8-.7-.3 0-.5.2-.5.5 0 .4.3.7.7.8.3 0 .6-.3.6-.6M382.017 58.128c0 .5.2.8.5.8.4-.1.7-.4.7-.8 0-.3-.5-.6-.9-.6s-.3.3-.3.6M382.118 43.128c0-.3-.3-.6-.7-.6-.3 0-.6.3-.6.6v.1c0 .3.3.5.6.5.4 0 .7-.2.7-.6M380.617 55.828c-.3.1-.6.1-.5.4 0 .5.3.8.6.7.3 0 .6-.3.6-.6v-.1c-.1-.2-.4-.4-.7-.4M377.518 51.329c-.1-.3-.4-.6-.7-.6s-.5.3-.5.6.2.6.6.6h.1c.3 0 .5-.3.5-.6M376.918 45.028c-.3 0-.5.3-.5.6s.3.6.7.6c.3 0 .5-.3.5-.5-.1-.4-.3-.7-.7-.7M372.018 54.428c-.1-.3-.3-.5-.7-.5-.3 0-.5.3-.5.6v.1c0 .4.2.6.5.6.4-.1.6-.4.7-.8M379.318 48.228c.3 0 .6-.2.6-.6 0-.2-.1-.5-.4-.5h-.1c-.3 0-.6.2-.6.5v.1c0 .2.2.5.5.5M374.217 59.828c0-.3-.2-.5-.5-.5-.2 0-.6.4-.5.7.1.2.3.3.5.3s.5-.2.5-.5c0 0 0 .1 0 0M375.017 57.928c0-.3-.2-.5-.5-.4s-.4.1-.4.3.4.6.6.5.3-.2.3-.4M373.618 46.728c0-.2-.3-.8-.6-.7s-.5.7-.4.9c.1.3.3.5.5.5.3 0 .5-.4.5-.7M369.017 55.028c0-.1-.2-.4-.2-.4s-.2.3-.2.4.2.2.2.2.2-.1.2-.2M371.718 56.228c-.1-.1-.2-.2-.3-.2s-.4.1-.3.2q0 .15.3.3c0-.1.4-.2.3-.3M371.018 50.529c0-.2-.3-.3-.4-.3s-.2.1-.2.3c0 .1.1.2.2.2s.4 0 .4-.2M370.218 54.028c0-.1-.1-.1-.2-.1s-.1.1-.1.2c0 0 .1.2.1.1.1 0 .2-.1.2-.2M385.617 43.228c0 .1.1.1.1.1.1 0 .2 0 .2-.1s-.1-.1-.2-.1c0-.1-.1 0-.1.1M383.018 51.028c-.3 0-.5.3-.5.6s.3.5.6.5c.3-.1.5-.4.5-.7 0-.2-.3-.4-.6-.4 0 0 .1 0 0 0M347.717 56.528c.6.2 1.3 0 1.5-.6s-.1-1.2-.6-1.5c-.5-.2-1.1.1-1.4.8-.2.5 0 1.1.5 1.3"/><path d="M374.018 47.628c.5.3 1.1.1 1.4-.3.3-.5.1-1.1-.3-1.4-.1-.1-.201-.1-.301-.1-.6-.1-1.099.3-1.199.8-.3.4-.1.9.4 1M359.418 51.228c.1.4.5.7 1 .7.2 0 .4-.2.5-.3.3-.5.2-1.2-.3-1.5-.2 0-.5.1-.7.2-.4.1-.6.5-.5.9M346.217 54.328c.1-.5-.1-1.1-.6-1.3-.5-.1-.9.2-1 .7-.1.4.2.8.6 1 .4.1.9 0 1-.4M376.818 55.229q-.15.6.6.9c.5.2.8 0 .9-.3.1-.4-.1-.9-.4-1.2-.5-.1-.9.1-1.1.6M356.918 51.728c-.2.5-.1.7.5.9s.8.1 1-.2c.1-.4-.1-.9-.5-1.2-.4-.2-.8 0-1 .5q0-.15 0 0M352.717 46.528c.1-.3 0-.6-.2-.8-.4-.1-.9.1-1.2.4-.2.4 0 .7.5.9s.7 0 .9-.5M349.517 49.529c.1-.3-.2-.8-.6-1-.2-.1-.5 0-.6.2v.1c-.2.3-.1.8.2 1 .4.1.8 0 1-.3M371.718 57.929c.1-.3 0-.7-.4-.8-.3-.1-.7.1-.8.4 0 .3.2.7.5.8.2.1.6-.2.7-.4M385.817 57.528c-.1.3 0 .6.3.7s.6 0 .8-.3c.1-.3 0-.6-.3-.7s-.7 0-.8.3M354.318 42.229c-.1 0-.3 0-.3.2 0 .1 0 .2.1.3.1 0 .3.1.4-.1s-.2-.4-.2-.4M350.418 61.028c-.1.1-.5.3-.4.6s1 .5 1.2.4.5-.4.7-.1.2.7.5.8 1.1.4 1.5 0 0-.6 0-1-.3-.7-.7-.7-.8.2-1 .1-.4-.3-.2-.5 0-.8-.5-1.1-1.3.2-1.3.6.3.8.2.9M352.918 52.128c.1-.2.1-.5-.1-.6h-.1c-.4-.2-.8-.3-.9-.1-.1.3-.1.7.2 1 .3.1.7 0 .9-.3M361.718 41.928c0-.1.1-.3-.1-.4-.1-.1-.2 0-.3.1 0 .1-.1.4 0 .4s.4 0 .4-.1M362.318 61.128c-.2.3-.1.6.1.8.1.3.4.2.6.2.4 0 .7-.3.9-.8l-.5-.7h.4c.5-.1.7.1.4.6-.2.4-.1.9.3 1.2.3.3.8.4 1.2.1.4-.2.6-.6.5-1v-.1c-.1-.3-.3-.6-.6-.8-.2-.2-.3-.3-.3-.6s-.1-.6-.5-.6c.5-.4.5-1.2.1-1.7l-.1-.1c-.4-.4-.8-.4-1.3.1-.3-.1-.7-.1-1-.1-.4 0-.6.3-.6.7.1.4.2.8.3 1.3-.4.4-.4.4 0 .9.2 0 .5-.4.7 0-.4.2-.5.4-.6.6M377.017 57.028c-.8-.9-1.1-1-2.1-.4h-.1l.3-.3c.1-.2.1-.4 0-.5 0 0-.1 0-.1-.1-.2-.1-.5-.1-.6.1v.7q-.45-.15-.6.3c-.1.3 0 .6.4.8h.2c.4 0 .5.3.7.6-.7.5-.7 1-.1 1.5l.2.1c.5.3.8.2 1-.3.3-.4.2-.9-.2-1.2h.6c.3.1.6 0 .7-.3-.1-.3-.1-.7-.3-1M368.318 55.828c-.1-.4-.5-.7-.9-.5-.1 0-.2.1-.3.1-.2.1-.4.3-.5.5-.1-.2-.3-.4-.2-.6.1-.4-.2-.8-.6-.9h-.1c-.1 0-.2-.1-.3-.2-.4-.2-.6-.2-.8 0s0 .6.4.8h.1c.2.1.3.3.1.5s-.2.1-.2.2c-.3.3-.4.7-.2 1.1.1.4.6.6 1 .5.5-.1.9-.4 1.1-.8.2.1.4.2.7.2.6.1.9-.3.7-.9M368.618 58.429c-.1.4-.2.9.1 1.3.2.2.3.5.3.8 0 .4.3.8.7.9.6-.1 1.1-.5 1.4-1-.1-.4-.3-1-.5-1.6 0-.1-.2-.1-.3-.1-.3 0-.6-.1-.8-.3-.2-.5-.9-.3-.9 0M365.018 42.428c-.1.4.1.9.4 1.2.1.1.3.2.5.2.6 0 1-.4 1-1v-.5h.7q.6 0 .6-.6c.1-.4-.1-.7-.5-.9-.3-.2-.7-.1-.9.2-.2.2-.3.4-.5.6h-.4c-.4 0-.8.3-.9.8M378.817 47.729c-.2.4-.5.8-.7 1.2-.8-.3-.9-.3-1 .4.2.3.6.3.8.1l.1-.1c.9.6 1.4.3 1.5-.8.1 0 .1-.1.2-.1.3 0 .4-.3.4-.5s-.1-.5-.3-.5c-.4-.3-.7-.2-1 .3M372.317 49.128c-.5-.2-.999.1-1.199.5v.1c-.3.5-.1 1.1.4 1.4.1 0 .199.1.299.1.6.2 1.201-.1 1.401-.7 0-.6-.301-1.2-.901-1.4M356.717 58.129c.5.3 1.2 0 1.4-.5v-.1c.2-.4 0-.8-.3-1.1v-.1c.1-.5-.2-1-.7-1.2-.5-.1-1.1.1-1.3.6-.2.4-.1.9.2 1.2 0 .5.2 1 .7 1.2M368.518 51.329c-.2.5 0 1.1.4 1.3.6.1 1.2-.2 1.6-.7.2-.5-.1-1.1-.6-1.3-.5-.1-1.1.2-1.4.7M359.718 60.328c.5.2 1 0 1.3-.4.1-.6-.2-1.2-.7-1.5q-.3-.15-.6 0c-.1-.2-.2-.4-.4-.4-.3-.1-.6 0-.7.3s.1.7.4.8h.1c-.1.4.2 1 .6 1.2M378.618 53.228c-.2.4 0 .9.4 1.1h.1c.5.2 1.1 0 1.3-.6.2-.5 0-1.1-.6-1.3-.5-.2-1 .1-1.2.8M359.518 56.228c.5.2 1.1-.2 1.3-.8.1-.4-.1-.9-.5-1-.8-.2-1 0-1.3.7-.2.4 0 1 .5 1.1M348.318 52.328c-.2.4.2 1.1.8 1.3.4.2.8 0 1-.4.2-.5 0-1-.4-1.2 0 0-.1 0-.1-.1-.5-.2-1 0-1.3.4M367.317 46.228c.4.2 1.1.1 1.2-.3.2-.5 0-1-.4-1.2-.5-.2-1 .1-1.2.6-.1.4 0 .8.4.9M353.917 59.128c.1-.3-.2-.7-.6-.9s-.8 0-1 .6c-.1.4 0 .8.3 1 .6.1 1.1-.2 1.3-.7M353.918 49.428c.3.1.7-.1.9-.4.1-.3-.2-1.2-.5-1.2s-.9.2-1 .7.1.7.6.9M372.117 44.628c.1-.4-.1-.9-.5-1.1s-.7 0-.9.5c-.1.4 0 .8.2 1 .4.2.9 0 1.2-.4M374.918 52.928c.2-.4 0-.9-.4-1.2-.3-.1-1 .3-1.1.7 0 .3.1.6.4.8.5.3.9.1 1.1-.3M368.818 48.228c-.2.1-.3.2-.4.4-.1.4.3.6.6.7.3-.2.6-.4.5-.8 0 0 0-.1-.1-.1.3-.1.6-.4.8-.7.1-.3-.1-.6-.4-.7-.5-.2-1 0-1.1.4-.1.3 0 .6.1.8M384.917 53.428c.1-.4-.2-.8-.6-.9s-.8.1-1 .5c-.1.4 0 .7.3.8s1.2 0 1.3-.4M369.517 55.829c-.1.4.2.8.8.9.3.1.7-.1.8-.4.1-.4-.1-.8-.4-1-.5-.2-1 0-1.2.5M345.418 58.028c-.1.4.1.9.5 1.1.4.1.8-.2 1-.6.1-.3-.1-.6-.3-.8-.6-.2-1.1-.1-1.2.3M354.518 50.428c-.2.6-.1 1 .3 1.1.4 0 .8-.2 1-.6q0-.6-.6-.9c-.3-.1-.6.1-.7.4M366.418 59.828c0 .2.8.8 1.1.7s.5-.4.5-.7-.2-.6-.4-.6c-.4-.2-1.2.4-1.2.6M373.918 41.628c.2-.4 0-.8-.3-1-.4-.2-.8 0-1.1.3-.2.3.1.8.6 1 .4.1.7 0 .8-.3M382.117 56.228c-.1.4.2.8.5.9.2 0 .7-.3.7-.8-.1-.3-.4-.6-.7-.5-.2.1-.4.2-.5.4M371.918 53.528c.3.1.6 0 .8-.3.1-.3 0-.6-.3-.8-.3-.1-.7 0-.9.3 0 .3.1.6.4.8M350.517 47.228c.1-.3 0-.7-.3-.8-.4-.1-.7.1-.9.4-.1.3.1.6.4.7s.6 0 .8-.3M350.717 48.828c-.1.1-.1.4-.1.5.1.2.3.3.4.3s.3-.1.4-.2c.1-.3.3-.5.4-.8.1-.2 0-.4-.3-.5-.1 0-.2.1-.2.1-.1.4-.3.5-.6.6M354.618 54.529c.4 0 .7-.2.8-.6 0-.2-.3-.6-.6-.7-.2 0-.5.1-.5.3v.1q0 .75.3.9M355.418 61.529c.2.1.5 0 .7-.1.3-.2.3-.6.1-.9l-.1-.1c.2 0 .4.1.6.2.2 0 .4 0 .5-.1.2-.2.5-.3.7-.4.3-.2.4-.6.3-.9-.2-.4-.5-.6-.9-.4-.2.1-.4.3-.6.5l-.4-.2c-.2-.2-.5-.2-.7 0s-.3.6-.2.9c0 .2.1.3.3.4-.3.1-.5.3-.6.5s-.1.5.1.6zM377.217 59.328c-.1.2 0 .5.3.6.2.2.6.1.8-.1.3-.3.2-.7 0-1-.5-.1-1 .1-1.1.5M381.218 57.928c-.4-.1-.7.2-.8.5.1.1.2.4.4.5s.6-.1.8-.4c.1-.3-.1-.6-.4-.6M380.417 57.028c.1-.3 0-.6-.3-.7s-.7.1-.8.4.1.6.4.7c.3 0 .6-.2.7-.4M363.417 55.829c.1-.1.2-.3.2-.5 0-.3-.3-.4-.5-.6s-.4-.3-.7-.2c-.3.2-.4.7-.2 1 .1.2.3.3.5.4-.1.3 0 .6.3.8.3.1.6-.1.7-.3-.1-.2-.2-.5-.3-.6M365.418 47.128c.2.2.5.5.8.3.3-.1.4-.4.3-.7-.1-.2-.3-.3-.5-.4-.4.1-.6.4-.6.8M348.918 58.928c.3.1.6-.1.7-.3s0-.5-.2-.7h-.1c-.3-.1-.6 0-.7.3-.1.2 0 .6.3.7M376.818 43.628c-.3.3-.1.7.2 1 .3-.1.7-.2.7-.6 0-.3-.2-.5-.4-.5-.2-.1-.4 0-.5.1M353.618 55.028c-.4 0-.7 0-.7.5s.3.5.6.5c.3-.2.4-.6.2-.9 0 0 0-.1-.1-.1M354.317 40.528c-.1-.3-.9-.2-1 .1s0 .8.3.9.8-.7.7-1M376.317 50.928c-.1.3.3.6.5.7s.5 0 .6-.3 0-.5-.2-.6-.8-.2-.9.2M350.017 45.128c.1-.2 0-.5-.2-.7-.2-.1-.5 0-.6.2v.1c-.1.2 0 .4.2.5.2.2.4.1.6-.1M362.218 50.028c.2-.1.3-.2.5-.4.1-.2 0-.4-.2-.5s-.4-.1-.6.1c-.2.4 0 .7.3.8M344.618 56.528c.1-.2-.1-.4-.3-.5s-.6 0-.6.3-.1.6.3.7.5-.4.6-.5M380.518 46.928c-.1.2.1.4.1.6.4.2.6 0 .6-.2s.1-.5-.2-.6-.4.1-.5.2M346.418 45.228c-.1-.2-.5-.2-.7-.2-.1 0-.3 0-.3.1 0 .3.2.6.5.7.3 0 .5-.2.5-.5.1 0 .1 0 0-.1M348.817 60.828c.3-.6-.2-1-.4-1.2s-.9.2-1 .7c-.1.3.1.6.4.7.3.2.9.1 1-.2M351.717 56.828c.1-.3-.1-.6-.4-.7s-.5.1-.6.3c-.1.3 0 .6.3.7.4.2.7 0 .7-.3M344.717 60.328c0-.2-.3-.6-.5-.7s-.5 0-.6.3c-.1.2 0 .4.2.5h.1c.2.1.7.1.8-.1M343.718 57.728c0-.2-.1-.4-.2-.5-.2-.1-.6.1-.6.4s.1.3.1.4c.4.1.7-.1.7-.3M363.617 43.428c-.1-.3-.3-.3-.9 0-.1.3.1.5.4.6h.3c.2-.1.2-.4.2-.6M365.518 39.528c-.1-.2-.4-.3-.7-.2-.1 0-.1.1-.2.2-.1.3.1.5.4.6h.3c.2-.1.3-.4.2-.6M382.518 48.729c0 .1.1.3.2.3s.4.1.4 0 0-.3-.1-.4c-.2 0-.5-.1-.5.1M384.717 49.028c-.1.2 0 .3.2.4h.1c.2 0 .3-.1.4-.2s0-.3-.1-.4c-.3-.1-.5 0-.6.2 0 0 0-.1 0 0M359.418 48.928c-.1-.1-.2 0-.3.1q-.15.15 0 .3h.1c.1.1.2.1.3-.1.1-.1.1-.2-.1-.3q.15 0 0 0M363.117 49.728c0 .3.1.5.3.7.3.3.6.4 1 .4s.7.3 1.1.2c.7-.3 1.2-1 1.1-1.7q0-.75-.6-1.2c-.4-.2-.9.2-1.4.1-1.3-.2-1.6.7-1.5 1.5M365.117 53.228c.2.5.8.8 1.3.7s.8-.6.7-1.1c0-.4-.6-.7-1.2-.7-.5.1-.8.6-.8 1.1M361.718 53.129c.4.4 1.1.3 1.4-.1l.1-.1c.4-.5.3-1.2-.2-1.5-.5-.2-1.2-.1-1.6.4-.2.4-.1 1 .3 1.3M356.118 46.128c-.1.2-.1.3 0 .5 0 .2.1.4.3.5.3.2.7.3 1 .2s.6-.4.6-.7-.1-.5-.3-.7-.5-.3-.8-.2-.7.1-.8.4M356.717 49.828c0 .1.1.2.3.2s.3-.2.3-.3-.2-.2-.3-.2-.3.2-.3.3M361.318 46.428c.3-.2.7-.5.4-.8s-.5-.3-.7-.2-.4.1-.3-.1 0-.3-.3-.6c-.2-.2-.6-.2-.8.1-.3.4-.2.9.2 1.2s.6.1.8.3.4.3.7.1M356.918 42.928c.2-.3.6-.6.6-1.1l-.4-.4c.1-.5-.1-1-.4-1.1-.2-.1-.5 0-.6.2-.2.4-.2.6.2 1v1.1c0 .2.2.4.4.4 0 .1.1 0 .2-.1M353.618 57.028c-.1.3 0 .6.3.7.2.1.5 0 .7-.2v-.1c.1-.3 0-.6-.3-.8-.3 0-.6.1-.7.4M354.617 44.328c-.5.4-.5 1.1-.1 1.6.5.4 1.1.4 1.6 0 .4-.4.4-1-.1-1.6-.4-.4-1-.4-1.4 0M343.118 45.428c-.4.4-.4 1.1 0 1.5s1.1.4 1.6 0c.4-.4.4-.9.1-1.3l-.1-.1c-.5-.5-1.1-.5-1.6-.1 0 0 0-.1 0 0"/><path d="M354.617 57.128c-.4-.1-.8.2-1 .6 0 .2 0 .4.1.6.3.5 1 .7 1.5.3.1-.2.1-.5.1-.7 0-.4-.3-.7-.7-.8M357.217 43.929c.4.3 1 .3 1.5 0 .2-.3.1-.7-.1-1-.3-.3-.8-.4-1.1-.1l-.1.1c-.4.2-.5.7-.2 1M350.418 38.528c.2.3.7.4 1 .1s.4-.8.1-1.2c-.4-.3-.9-.3-1.2 0-.2.3-.1.8.1 1.1M355.218 54.728c-.3-.4-.6-.4-1 0s-.4.7-.2 1c.4.2.9.3 1.3.1.3-.4.2-.8-.1-1.1M361.617 53.028c.2.2.5.3.8.1.3-.4.3-.8.1-1.2-.3-.3-.7-.3-1 .1s-.3.6.1 1M360.218 48.828c.2.3.8.2 1.1-.2.2-.2.2-.4.1-.6l-.1-.1c-.2-.3-.7-.4-1-.2-.2.4-.2.8-.1 1.1M343.818 32.728c.2.1.8-.5.7-.8-.1-.2-.4-.4-.7-.2-.3.1-.2.9 0 1M348.518 32.428c.2-.1.5-.7.4-.9s-.6-.4-.9 0 .3 1 .5.9M344.217 29.028c.1.2.3.2.5.1 0 0 .1 0 .1-.1.1-.1.3-.5.1-.7s-.5 0-.6.2c-.1.1-.1.3-.1.5M362.518 40.729c.1.1.3.1.4 0s.2-.3.1-.4-.4 0-.5.1q-.15.15 0 .3M344.017 34.528c.1 0 .2-.2.2-.3s-.2-.2-.3-.2-.3.2-.3.3.3.2.4.2M351.617 30.728c.2.2.4 0 .4-.1q.15-.15 0-.3c-.1-.1-.3-.1-.4 0-.1 0-.2.2 0 .4M365.018 56.228c0-.1.1-.3 0-.4q-.15-.15-.3 0c-.1.1-.2.3-.1.4s.3 0 .4 0M346.118 52.428c.4-.8.1-1.8-.7-2.2-.2-.1-.5-.2-.7-.2-.5 0-1 .4-1.2.9-.1.5.2 1.2.1 1.4s-1 0-1.4.6c-.2.3-.2.7 0 1.1-.1-.1-.1-.2-.2-.3-.3-.3-.7-.3-1 0l-.1.1c-.3.4-.3.9 0 1.3.4.3.9.3 1.3 0 .2-.3.3-.7.1-1 .1.2.2.3.4.4.7.3 1.5.2 2.1-.3.3-.4-.1-1 0-1.1s.9-.2 1.3-.7M349.318 44.928c-.1-.2-.1-.6-.4-.6s-.9.8-.9.9.1.6-.2.7-.7-.1-1 .2-.9.8-.7 1.3.6.2.9.3.7 0 .9-.3c.2-.4.2-.8.3-1s.4-.2.6 0 .7.4 1.2 0 .4-1.3 0-1.4-.6.1-.7-.1M356.518 50.828c.1.2.4.3.6.1h.1c.4-.3.5-.6.4-.8-.3-.2-.7-.3-1-.2-.3.3-.3.6-.1.9M344.418 55.728c-.2-.2-.5-.4-.8-.3-.3 0-.3.3-.4.5-.1.4 0 .8.4 1.1l.9-.2c0 .1-.1.2-.1.3-.1.5-.4.6-.7.2s-.8-.5-1.2-.2c-.4.2-.6.6-.6 1 .1.5.3.8.8.8.3 0 .7 0 1-.2.2-.1.5-.2.7 0s.6.1.8-.2c.4.8.9 1 1.6.8s.6-.6.5-1.3c.2-.2.4-.5.5-.8s0-.7-.4-.8-.8-.2-1.3-.3c-.2-.5-.2-.6-.9-.3-.1.2.1.6-.4.7-.1-.4-.3-.6-.4-.8M346.818 63.428c.4.1.8-.2.9-.6v-.4c-.1-.2-.1-.5-.2-.7.3 0 .5-.1.6 0 .3.2.8.2 1-.2.1-.1.2-.2.3-.2.4-.2.5-.5.3-.7s-.5-.3-.9 0c0 0 0 .1-.1.1-.2.1-.4.1-.5-.1 0-.1 0-.2-.1-.3-.2-.4-.6-.7-1-.6-.5 0-.7.2-.9.7s0 1 .3 1.4l-.5.5c-.1.6.1 1 .8 1.1M340.618 49.328c0 .3.2.5.6.5.3 0 .6 0 .9.1.6.2 1.2 0 1.4-.6v-.1c0-.1.1-.2.2-.3.4-.2.4-.4.4-.7s-.3-.3-.6-.4h-.9c-.3 0-.7 0-.9.3-.1.1-.2.2-.3.2-.8.1-.9.3-.8 1M342.818 35.228c-.3.3-.6.6-.8.9-.2.4-.1 1 .3 1.3.2.2.4.2.6.1.5-.4.9-.9 1.1-1.6v-.3c-.1-.4-.4-.7-.8-.6-.2 0-.3.1-.4.2M349.417 51.828c-.4.4-.5 1.1-.1 1.6l.1.1c.3.3.8.4 1.1.1l.1.1c.4.3 1 .2 1.4-.1.4-.4.4-1.1 0-1.5-.3-.3-.7-.4-1.1-.2-.5-.5-1.1-.4-1.5-.1M346.218 53.728c-.4.4-.4.9-.1 1.4.5.4 1.2.4 1.7 0 .1-.2.2-.3.2-.6.2 0 .4-.1.6-.2.2-.2.2-.6 0-.8-.3-.2-.7-.2-.9.1v.1q-.9-.45-1.5 0M350.018 55.228c-.3.5-.2 1.2.2 1.5.3.3.8.3 1.1 0l.1-.1c.5-.7.4-.9-.1-1.5-.3-.3-.9-.3-1.3.1M358.218 46.629c-.5-.3-1.1-.3-1.5.2-.3.3-.3.7-.1 1.1l.1.1c.3.4.9.4 1.3.1l.1-.1c.3-.4.4-1 .1-1.4M349.718 48.928c.4.2.8.1 1-.2.4-.4.3-.8-.1-1.2-.3-.3-.7-.4-1.1-.1-.3.5-.2 1.1.2 1.5M344.418 39.228c-.3-.3-.7-.3-1-.1l-.1.1c-.3.3-.4.8-.1 1 .4.3 1 .3 1.4 0 .1-.3.1-.7-.2-1M358.517 52.929c-.2.3-.2.7 0 1 .4.3.9.3 1.3.1.2-.4.1-.9-.2-1.2-.3-.4-.7-.4-1.1.1M354.218 41.528c-.4-.2-.9-.2-1.2.1-.2.4-.2.8.1 1.1.3.2.6.2.8 0 .5-.3.6-.9.3-1.2M357.418 53.028c-.4-.4-.9-.5-1.1-.2-.3.3-.4.8-.1 1.1s.8.4 1.1.1l.2-.2c.1-.2.1-.6-.1-.8M361.917 50.628c.3.2.6.2.9.1.2-.3.2-.7 0-1-.2-.2-.6-.2-.8.1-.3.2-.3.6-.1.8M357.317 40.228c.2.3.6.3.9.1s.3-.6.1-.9c-.2-.2-.7-.1-1.1.2 0 .2 0 .5.1.6M360.418 50.228c0-.1-.3-.3-.5-.3s-.4.1-.5.3c-.1.1 0 .3.1.5.2.2.4.5.6.7s.4.1.5-.1v-.3c-.2-.3-.2-.5-.2-.8M353.618 51.528c-.1.3-.1.7.2 1 .3.1.6 0 .9-.2.1-.2.1-.4-.1-.6h-.1c-.4-.4-.8-.4-.9-.2M357.417 36.228c.2.2.7.1.9-.1s.2-.5 0-.7-.5-.2-.7 0c-.3.1-.4.6-.2.8M346.817 49.328c-.2.2-.2.4-.2.7.1.3.5.5.8.4h.1c-.1.2-.2.4-.4.5-.1.2-.2.4-.1.6.1.3.1.5.1.8 0 .4.3.6.7.6.5 0 .7-.2.7-.7 0-.3-.1-.5-.2-.8l.4-.2c.2-.1.3-.4.2-.7s-.4-.5-.7-.5c-.2 0-.3 0-.5.1.1-.3 0-.5-.2-.7-.2-.3-.4-.3-.7-.1 0 0 .1 0 0 0M348.817 58.928c.1.2.2.3.4.4.3.1.5-.1.7-.2s.4-.3.4-.6-.5-.7-.9-.7c-.2 0-.4.1-.5.3-.2-.2-.6-.2-.8 0s-.2.5 0 .8c.2.1.5.1.7 0M351.918 44.428c-.2.2-.2.5 0 .8.2.2.5.3.7.1h.1c.2-.2.2-.6 0-.8-.3-.2-.6-.2-.8-.1M353.517 50.328c.1-.3.2-.7-.1-.8s-.6.1-.7.4c.1.3.4.6.7.5zM366.418 56.928c.3 0 .6-.7.3-1s-.8-.3-.9-.1.3 1.1.6 1.1M346.518 36.729c-.1-.2-.6-.3-.8-.1s-.2.5 0 .7c.1.2.4.2.6.1 0 0 .1 0 .1-.1.1-.2.2-.4.1-.6M346.217 35.728c.2.1.4.1.7.1.2-.1.2-.6 0-.7-.1-.1-.3-.1-.5-.1-.3.3-.4.6-.2.7M364.117 51.028c.2.2.5.2.7 0q.3-.3 0-.6c-.1-.2-.4-.2-.6 0-.2.1-.3.3-.1.6q-.15 0 0 0M353.818 36.529c.2-.2 0-.6.1-.9l-.2-.1c-.2-.1-.5.1-.6.3-.1.1-.2.3-.2.5.3 0 .6.4.9.2M355.918 41.528c.2.2.4.1.6-.1s.2-.5 0-.6-.5-.3-.7 0 0 .5.1.7M365.418 47.828c.2 0 .4-.3.5-.6q.15-.15 0-.3c-.3-.2-.6-.1-.9.2-.1.2 0 .6.2.7.1-.1.1 0 .2 0M346.617 43.929c.3-.3.3-.8.1-1.1-.4-.3-.9-.3-1.3 0-.2.2-.1.7.2 1 .2.3.7.3 1 .1M350.217 43.528c.4.5 1 .2 1.3.1s.2-.9-.3-1.2c-.2-.2-.5-.2-.8 0-.3.3-.4.8-.2 1.1M352.617 47.928c.2.2.6.2.8-.1.2-.2.1-.5 0-.6-.2-.2-.6-.2-.8 0-.2.1-.2.5 0 .7M346.318 45.028c-.1-.2-.4-.2-.6 0-.2.1-.2.3-.1.5l.1.1c.1.1.4.3.6.1s.1-.5 0-.7M352.417 40.028c.2.2.6 0 .8-.2s.1-.5 0-.6-.3-.2-.5 0l-.1.1c-.2.1-.4.5-.2.7M355.117 40.228c.2.1.4.1.5 0 .2-.1.2-.6-.1-.7h-.4c-.2.3-.2.6 0 .7M349.117 33.228c-.1.1-.3.3-.1.5s.5 0 .6-.1.2-.3.1-.5c-.3 0-.5 0-.6.1M361.817 41.628c-.1 0-.2.3-.1.4s.3 0 .4-.1q.15-.15 0-.3c0-.1-.2 0-.3 0M352.318 36.328c0 .1-.1.2 0 .2h.2c.1 0 0-.2 0-.2zM356.718 58.128c.1-.1.1-.2.1-.3v-.1c-.1-.1-.2-.2-.3 0-.1 0-.2.2-.1.3v.1c.1.1.2.2.3 0M352.018 58.528c-.5.2-.7.7-.5 1.2 0 .1.1.1.1.2.3.5.9.7 1.5.5.4-.4.6-1.1.3-1.6-.4-.4-1-.5-1.4-.3M347.018 39.128c.2.8 1 .4 1 1s-.5.3-.5 1 .6 1.2 1.1 1 .4-.8.5-.8.7 0 .7-.5c0-.9-.8-.7-.9-1s.1-.8 0-1.2c-.1-.6-.5-1-1.1-.8-.5.1-.9.7-.7 1.2-.1 0-.1.1-.1.1M360.618 56.328c-.1-.1-.3-.2-.5-.2-.2-.1-.4-.1-.5 0-.3.2-.5.5-.6.8 0 .3.1.7.4.9.2.1.5.1.8 0s.5-.4.5-.7.1-.7-.1-.8M357.017 55.328c-.1 0-.3 0-.3.1 0 .2 0 .3.2.4.1.1.3-.1.3-.2s-.1-.3-.2-.3M358.218 60.828c0 .3.1.8.6.8s.5-.4.4-.5.1-.4.2-.3.3.2.6 0c.3-.1.4-.5.3-.8v-.1c-.2-.4-.8-.6-1.2-.3-.4.2-.4.5-.7.6s-.3.3-.2.6M363.217 58.328c.2.3.3.8.8 1l.5-.2c.4.3 1 .3 1.1.1.2-.2.2-.5 0-.7-.3-.4-.5-.4-1-.3-.3-.2-.7-.3-1-.4-.2 0-.4.1-.4.3zM351.718 49.528c-.2-.2-.5-.2-.7 0s-.3.5-.1.7l.1.1c.2.2.6.3.8.1.1-.3.1-.7-.1-.9"/><path d="M343.417 34.628c-.5.1-.9.2-1.4.2-.2-.8-.3-.9-1-.5-.1.4.1.7.6.8 0 1.1.6 1.3 1.6.7.1 0 .1.1.2.1.2.2.5.1.7 0s.3-.4.2-.6c0-.7-.3-.8-.9-.7M343.918 47.928c-.5-.1-1.1.2-1.1.7 0 .4.2.7.6.8.3.1.7 0 .9-.3.1-.2.6-.6.4-1s-.6-.1-.8-.2M345.117 27.028c.4-.1.6-.4.6-.8-.1-.4-.5-.7-.9-.7-.3.1-.5.6-.4 1.1.1.3.4.4.7.4M345.017 44.928c-.3 0-.4.3-.4.6.1.3.4.4.6.4.3-.1.5-.4.4-.6 0-.3-.3-.5-.6-.4M345.418 30.428c-.5 0-.6.3-.6.8.3.2.6.5.9.2.2-.1.3-.4.2-.7-.2-.1-.3-.2-.5-.3M345.117 35.528c-.2 0-.3.3-.4.4.1.4.4.4.6.4s.4-.2.3-.5-.3-.4-.5-.3M348.218 40.729c-.1 0-.3.1-.3.3s.3.2.4.1.2-.2.1-.3c.1 0 0-.1-.2-.1M345.018 38.128c-.1.1-.2.2-.1.4 0 .1.2.3.3.3.1-.1.2-.2.2-.3-.1-.2-.3-.5-.4-.4M346.118 40.028c-.2.1-.3.2-.2.4v.1c.1.1.3.2.4.1.2 0 .2-.2.2-.4s-.1-.3-.4-.2c.1 0 .1-.1 0 0"/></g></g><defs><clipPath id="a"><path fill="#fff" d="M.441.355h480v98.8h-480z"/></clipPath></defs></svg>