<svg width="24" height="24" viewBox="0 0 24 24" fill="none" xmlns="http://www.w3.org/2000/svg">
<path d="M12.1777 17.7847L20.5053 19.7997V4.164L12.1777 6.18033V17.7847Z" fill="#8C3123"/>
<path d="M20.5053 4.164L22.106 4.964V19.0043L20.5057 19.804L20.5053 4.164Z" fill="#E05243"/>
<path d="M15.81 6.952L12.1777 6.05333V0L15.81 1.816V6.952Z" fill="#E05243"/>
<path d="M12.1777 24L15.8097 22.1847V17.0487L12.1777 17.947V24Z" fill="#E05243"/>
<path d="M15.81 14.5713L12.1777 15.0337V8.98L15.81 9.43567V14.5713Z" fill="#E05243"/>
<path d="M12.1777 17.7847L3.84967 19.7997V4.164L12.1777 6.18033V17.7847Z" fill="#E05243"/>
<path d="M3.84967 4.164L2.25 4.964V19.0043L3.84967 19.804L3.84967 4.164Z" fill="#8C3123"/>
<path d="M8.54633 6.952L12.1777 6.05333V0L8.54633 1.816V6.952Z" fill="#8C3123"/>
<path d="M12.1777 24L8.546 22.1847V17.0487L12.1777 17.947V24Z" fill="#8C3123"/>
<path d="M8.54633 14.5713L12.1777 15.0337V8.98L8.54633 9.43567V14.5713Z" fill="#8C3123"/>
<path d="M15.81 6.952L12.1777 7.614L8.54633 6.952L12.1777 6.05333L15.81 6.952Z" fill="#5E1F18"/>
<path d="M15.8097 17.0487L12.1777 16.382L8.546 17.0487L12.1777 17.9527L15.8097 17.0487Z" fill="#F2B0A9"/>
</svg>
