<svg xmlns="http://www.w3.org/2000/svg" width="32" height="32" viewBox="0 0 32 32">
  <g fill="none" fill-rule="evenodd">
    <path fill="#00BFB3" d="M28.4070559 5.58384335C27.8390648 4.86773294 26.8710799 4.79625935 26.2337565 5.44776863L22.5871469 9.16989336C22.071155 9.69769834 22.0258223 10.5265171 22.4564823 11.1312937 23.4271338 12.4961644 24.0004581 14.1785427 24.0004581 15.9997448 24.0004581 17.804453 23.4364669 19.4730865 22.4831485 20.8310847 22.0604885 21.4317378 22.1044878 22.2481861 22.6098132 22.7746166L26.2244234 26.5366016C26.8617467 27.2018558 27.8377315 27.1358802 28.4110558 26.4115228 33.1976477 20.3623829 33.1963144 11.6302343 28.4070559 5.58384335M8.00004161 16.0001572C8.00004161 14.1789551 8.57336598 12.4965767 9.54401747 11.131706 9.97334409 10.5269295 9.92934478 9.69811069 9.41201953 9.17030571L5.7680765 5.44955547C5.12941982 4.79804619 4.15876833 4.86814529 3.59077721 5.58700468-1.19714793 11.6347701-1.19714793 20.3682932 3.59211052 26.4160587 4.16276827 27.1349181 5.13208645 27.2036427 5.76940982 26.5466354L9.40001972 22.8038933C9.9106784 22.2760883 9.95601103 21.454142 9.52935103 20.85074 8.56803273 19.4899927 8.00004161 17.8131123 8.00004161 16.0001572"/>
    <path fill="#0078A0" d="M22.9809022 23.1608357L22.6098132 22.7746166C22.1044878 22.2481861 22.0604885 21.4317378 22.4831485 20.8310847 23.4364669 19.4730865 24.0004581 17.804453 24.0004581 15.9997448 24.0004581 14.1785427 23.4271338 12.4961644 22.4564823 11.1312937 22.0258223 10.5265171 22.071155 9.69769834 22.5871469 9.16989336L22.9451496 8.80447706C24.8287494 10.6229135 26 13.1743882 26 16 26 18.8076911 24.843559 21.3447113 22.9809022 23.1608357zM9.03693882 23.178188L9.40001972 22.8038933C9.9106784 22.2760883 9.95601103 21.454142 9.52935103 20.85074 8.56803273 19.4899927 8.00004161 17.8131123 8.00004161 16.0001572 8.00004161 14.1789551 8.57336598 12.4965767 9.54401747 11.131706 9.97334409 10.5269295 9.92934478 9.69811069 9.41201953 9.17030571L9.05428105 8.8050268C7.17101453 10.6234277 6 13.1746729 6 16 6 18.8166445 7.16382829 21.3608892 9.03693882 23.178188z"/>
    <path fill="#00A9E5" d="M16,21 C13.2380828,21 11,18.7619172 11,16 C11,13.2380828 13.2380828,11 16,11 C18.7619172,11 21,13.2380828 21,16 C21,18.7619172 18.7619172,21 16,21"/>
  </g>
</svg>
