<svg width="282" height="282" viewBox="0 0 282 282" fill="none" xmlns="http://www.w3.org/2000/svg">
<rect width="282" height="282" fill="white"/>
<path d="M226.371 42.9609H44.3269C37.4887 42.9609 31.9453 48.5044 31.9453 55.3425V111.236C31.9453 118.074 37.4887 123.617 44.3269 123.617H226.371C233.209 123.617 238.753 118.074 238.753 111.236V55.3425C238.753 48.5044 233.209 42.9609 226.371 42.9609Z" fill="#153385" stroke="#101C3F" stroke-miterlimit="10"/>
<path d="M226.371 160.08H44.3269C37.4887 160.08 31.9453 165.623 31.9453 172.462V228.355C31.9453 235.193 37.4887 240.736 44.3269 240.736H226.371C233.209 240.736 238.753 235.193 238.753 228.355V172.462C238.753 165.623 233.209 160.08 226.371 160.08Z" fill="#153385" stroke="#101C3F" stroke-miterlimit="10"/>
<path d="M223.441 42.9609H44.3269C37.4887 42.9609 31.9453 48.5044 31.9453 55.3425V106.08C31.9453 112.919 37.4887 118.462 44.3269 118.462H223.441C230.279 118.462 235.822 112.919 235.822 106.08V55.3425C235.822 48.5044 230.279 42.9609 223.441 42.9609Z" fill="#0B64DD" stroke="#101C3F" stroke-miterlimit="10"/>
<path d="M65.3889 62.0176L48.3146 90.9887H82.4631L65.3889 62.0176Z" fill="white"/>
<path d="M223.441 159.131H44.3269C37.4887 159.131 31.9453 164.674 31.9453 171.512V222.25C31.9453 229.089 37.4887 234.632 44.3269 234.632H223.441C230.279 234.632 235.822 229.089 235.822 222.25V171.512C235.822 164.674 230.279 159.131 223.441 159.131Z" fill="#0B64DD" stroke="#101C3F" stroke-miterlimit="10"/>
<path d="M79.8633 182.418H50.9142V211.367H79.8633V182.418Z" fill="white"/>
<path d="M254.505 98.9434H72.4608C65.6227 98.9434 60.0793 104.487 60.0793 111.325V167.218C60.0793 174.056 65.6227 179.6 72.4608 179.6H254.505C261.343 179.6 266.887 174.056 266.887 167.218V111.325C266.887 104.487 261.343 98.9434 254.505 98.9434Z" fill="#153385" stroke="#101C3F" stroke-miterlimit="10"/>
<path d="M249.614 98.9434H70.5C63.6619 98.9434 58.1184 104.487 58.1184 111.325V162.063C58.1184 168.901 63.6619 174.444 70.5 174.444H249.614C256.452 174.444 261.996 168.901 261.996 162.063V111.325C261.996 104.487 256.452 98.9434 249.614 98.9434Z" fill="#48EFCF" stroke="#101C3F" stroke-miterlimit="10"/>
<path d="M259.176 241.485C259.176 241.485 240.846 218.264 239.964 214.342C239.083 210.421 229.654 179.224 228.222 175.766C226.525 171.646 222.141 165.345 214.783 155.365C213.417 153.514 210.222 153.25 210.222 153.25L206.433 148.821C206.433 148.821 203.899 144.834 198.281 146.001C198.281 146.001 195.748 142.851 192.839 143.115C188.653 143.468 185.701 145.142 185.701 145.142C185.701 145.142 172.174 131.306 169.112 128.288C166.071 125.27 164.133 123.794 161.952 125.821C159.771 127.848 160.057 133.157 163.428 137.101C166.798 141.044 174.862 154.616 174.862 154.616C174.862 154.616 170.654 163.935 169.993 165.829C169.332 167.724 172.438 170.104 176.206 169.134C176.206 169.134 178.012 173.849 183.542 171.998C183.542 171.998 187.133 182.375 187.089 187.266C187.045 192.135 183.696 194.25 179.533 190.196C175.369 186.142 167.614 177.418 158.361 174.862C149.107 172.307 148.689 179.665 151.399 182.243C154.108 184.82 160.079 191.628 163.56 195.263C167.041 198.92 180.788 213.968 188.037 221.37C195.285 228.773 204.45 233.267 208.151 236.484C214.937 242.432 226.569 262.128 226.569 262.128C229.896 269.795 264.661 250.055 259.109 241.485H259.176Z" fill="white" stroke="#101C3F" stroke-miterlimit="10"/>
<path d="M174.906 154.594C174.906 154.594 179.422 162.547 183.608 171.976" stroke="#101C3F" stroke-linecap="round" stroke-linejoin="round"/>
<path d="M176.272 169.09C176.272 169.09 178.585 167.988 179.753 163.979" stroke="#101C3F" stroke-linecap="round" stroke-linejoin="round"/>
<path d="M185.723 145.119C185.723 145.119 186.737 146.066 188.389 148.248C189.601 149.856 197.158 164.881 198.501 166.754C199.823 168.649 203.084 169.442 203.084 169.442" stroke="#101C3F" stroke-linecap="round" stroke-linejoin="round"/>
<path d="M198.281 145.979L211.985 164.397" stroke="#101C3F" stroke-linecap="round" stroke-linejoin="round"/>
<path d="M210.244 153.229L219.123 166.095" stroke="#101C3F" stroke-linecap="round" stroke-linejoin="round"/>
<path d="M96.9375 153.777C106.367 153.777 114.012 146.133 114.012 136.703C114.012 127.273 106.367 119.629 96.9375 119.629C87.5077 119.629 79.8633 127.273 79.8633 136.703C79.8633 146.133 87.5077 153.777 96.9375 153.777Z" fill="white"/>
</svg>
