<svg xmlns="http://www.w3.org/2000/svg" width="76" height="111" fill="none">
  <path fill="#153385" stroke="#101C3F" stroke-miterlimit="10" d="m11.852 47.47-3.19-19.424c-1.138-5.553-.126-11.195 2.849-15.899 2.974-4.703 7.518-7.835 12.796-8.824 10.467-1.965 20.453 5.11 22.719 16.114v.076l3.303 21.845-9.492 1.99-3.291-21.806c-1.165-5.553-6.202-9.128-11.505-8.14-2.67.508-4.974 2.093-6.48 4.476-1.507 2.384-2.026 5.236-1.444 8.05l3.19 19.424-9.467 2.117h.012Z"/>
  <path fill="#fff" stroke="#101C3F" stroke-miterlimit="10" d="M14.815 45.023 11.5 25.6c-1.19-5.54-.101-11.195 3.05-15.899 3.152-4.716 7.962-7.86 13.53-8.862 11.05-2.003 21.568 5.059 23.935 16.05v.077l3.43 21.845-10.025 2.016-3.404-21.807c-1.215-5.553-6.519-9.116-12.113-8.101-2.822.507-5.252 2.104-6.86 4.488a10.432 10.432 0 0 0-1.544 8.063l3.316 19.423-9.999 2.143v-.013Z"/>
  <path fill="#153385" stroke="#101C3F" stroke-miterlimit="10" d="m17.549 41.371-10.05 1.674c-1.772.291-3.48 1.052-4.733 2.358a6.09 6.09 0 0 0-.532.608C1.31 47.191.5 48.813.5 50.943c0 4.945 7.278 51.829 7.278 51.829s1.29 7.607 5.885 7.607 14.277-1.8 14.277-1.8L17.536 41.384l.013-.013Z"/>
  <path fill="#48EFCF" stroke="#101C3F" stroke-miterlimit="10" d="m69.872 102.798-45.945 6.416c-3.556.494-6.822-1.927-7.315-5.401L8.107 48.51c-.481-3.486 2-6.707 5.556-7.201l45.906-3.132c3.557-.494 6.822 1.927 7.316 5.401l8.556 52.007c.48 3.486-2 6.706-5.557 7.201l-.012.012Z"/>
  <path fill="#101C3F" d="m53.76 88.04-6.683-18.016a7.118 7.118 0 0 0 2.987-5.807c0-3.93-3.19-7.125-7.113-7.125-3.924 0-7.113 3.195-7.113 7.125a7.116 7.116 0 0 0 3.936 6.365l-.822 19.689 14.808-2.244v.012Z"/>
  <mask id="a" width="19" height="34" x="35" y="57" maskUnits="userSpaceOnUse" style="mask-type:luminance">
    <path fill="#fff" d="m53.76 88.04-6.683-18.016a7.118 7.118 0 0 0 2.987-5.807c0-3.93-3.19-7.125-7.113-7.125-3.924 0-7.113 3.195-7.113 7.125a7.116 7.116 0 0 0 3.936 6.365l-.822 19.689 14.808-2.244v.012Z"/>
  </mask>
  <g mask="url(#a)">
    <path fill="#0B64DD" d="M53.962 88.04 47.28 70.023a7.118 7.118 0 0 0 2.987-5.807c0-3.93-3.19-7.125-7.113-7.125-.52 0-1.026.063-1.52.165a7.122 7.122 0 0 1 5.595 6.96 7.152 7.152 0 0 1-2.987 5.807l6.822 18.447"/>
  </g>
</svg>
