<svg width="116" height="116" viewBox="0 0 116 116" fill="none" xmlns="http://www.w3.org/2000/svg">
<mask id="mask0_825_4410" style="mask-type:luminance" maskUnits="userSpaceOnUse" x="8" y="0" width="100" height="116">
<path d="M107.8473 0H8V116H107.8473V0Z" fill="white"/>
</mask>
<g mask="url(#mask0_825_4410)">
<path d="M77.5018 11.7326C64.3328 6.88087 52.118 12.054 45.4783 21.2954C65.3373 5.11295 96.2961 24.2186 93.2424 49.0298C92.7401 53.0779 91.3238 56.7946 89.2143 60.009C93.7949 56.1216 97.0293 50.4461 97.7526 42.9324C99.0685 29.3616 90.1284 16.3834 77.5018 11.7326Z" fill="#101C3F" stroke="#101C3F" stroke-miterlimit="10"/>
<path d="M47.5776 5.63528C16.0262 24.4898 32.8415 70.5462 65.3372 75.7094C85.0455 78.8434 104.563 65.6644 107.074 45.4136C110.841 14.4849 74.9 -10.6779 47.5776 5.64533V5.63528ZM97.6721 43.6557C96.0448 56.9051 84.5834 66.5985 71.3742 66.8296C46.342 67.2615 28.5322 34.3339 49.0944 16.4437C68.9534 -0.84376 100.776 18.4929 97.6721 43.6557Z" fill="#0B64DD" stroke="#101C3F" stroke-miterlimit="10"/>
<path d="M65.337 75.6994C40.0838 71.6914 24.303 42.9727 33.3335 21.5266C25.6491 32.0738 23.5095 46.6592 31.6158 60.7122C46.0706 85.7746 84.9047 87.9644 98.3048 64.3284C90.2487 73.1078 77.833 77.6984 65.3269 75.7094L65.337 75.6994Z" fill="#153385" stroke="#101C3F" stroke-miterlimit="10"/>
<path d="M48.9493 71.1058L46.0165 68.8391C43.6813 67.0343 40.3252 67.4642 38.5203 69.7994L11.6086 104.619C9.80377 106.954 10.2337 110.31 12.5689 112.115L15.5017 114.382C17.8369 116.187 21.1931 115.757 22.998 113.422L49.9096 78.602C51.7144 76.2668 51.2845 72.9107 48.9493 71.1058Z" fill="#153385" stroke="#101C3F" stroke-miterlimit="10"/>
<path d="M46.9593 69.5674L44.0265 67.3007C41.6913 65.4959 38.3352 65.9258 36.5303 68.261L9.61863 103.081C7.81378 105.416 8.24372 108.772 10.5789 110.577L13.5117 112.844C15.8469 114.648 19.2031 114.218 21.008 111.883L47.9196 77.0637C49.7244 74.7285 49.2945 71.3723 46.9593 69.5674Z" fill="#0B64DD" stroke="#101C3F" stroke-miterlimit="10"/>
<path d="M44.4536 50.7374L60.8069 33.3696L75.111 48.4974L93.5336 25.3335" stroke="#101C3F" stroke-miterlimit="10"/>
<path d="M60.8067 37.4479C62.421 37.4479 63.7298 36.1392 63.7298 34.5248C63.7298 32.9104 62.421 31.6017 60.8067 31.6017C59.1923 31.6017 57.8835 32.9104 57.8835 34.5248C57.8835 36.1392 59.1923 37.4479 60.8067 37.4479Z" fill="#48EFCF" stroke="#101C3F" stroke-miterlimit="10"/>
<path d="M75.613 51.1896C77.2274 51.1896 78.5361 49.8809 78.5361 48.2665C78.5361 46.6521 77.2274 45.3434 75.613 45.3434C73.9986 45.3434 72.6899 46.6521 72.6899 48.2665C72.6899 49.8809 73.9986 51.1896 75.613 51.1896Z" fill="#48EFCF" stroke="#101C3F" stroke-miterlimit="10"/>
</g>
</svg>
